<svg width="230" height="241" viewBox="0 0 230 241" fill="none" xmlns="http://www.w3.org/2000/svg">
<path d="M84.5 48C84.5 44.4102 87.4101 41.5 91 41.5H92C95.5899 41.5 98.5 44.4101 98.5 48V71.5H84.5V48Z" fill="#1E38C1" stroke="white"/>
<path d="M99.5 40C99.5 36.4101 102.41 33.5 106 33.5H107C110.59 33.5 113.5 36.4101 113.5 40V71.5H99.5V40Z" fill="#294CFF" stroke="white"/>
<path d="M114.5 13C114.5 9.41015 117.41 6.5 121 6.5H122C125.59 6.5 128.5 9.41015 128.5 13V71.5H114.5V13Z" fill="#142893" stroke="white"/>
<path d="M129.5 26C129.5 22.4102 132.41 19.5 136 19.5H138C141.59 19.5 144.5 22.4101 144.5 26V71.5H129.5V26Z" fill="#294CFF" stroke="white"/>
<line x1="76.5" y1="72.5" x2="151.5" y2="72.5" stroke="#242424" stroke-width="3" stroke-linecap="round" stroke-linejoin="round"/>
<path d="M90.36 96.103L86.337 109H84.771L81.504 99.163C81.474 99.067 81.444 98.965 81.414 98.857C81.39 98.749 81.363 98.635 81.333 98.515C81.303 98.635 81.273 98.749 81.243 98.857C81.213 98.965 81.183 99.067 81.153 99.163L77.868 109H76.302L72.279 96.103H73.728C73.884 96.103 74.013 96.142 74.115 96.22C74.223 96.298 74.292 96.397 74.322 96.517L76.986 105.481C77.028 105.643 77.067 105.817 77.103 106.003C77.145 106.189 77.184 106.387 77.22 106.597C77.262 106.387 77.304 106.189 77.346 106.003C77.394 105.811 77.445 105.637 77.499 105.481L80.532 96.517C80.568 96.415 80.637 96.322 80.739 96.238C80.847 96.148 80.976 96.103 81.126 96.103H81.63C81.786 96.103 81.912 96.142 82.008 96.22C82.104 96.298 82.176 96.397 82.224 96.517L85.248 105.481C85.302 105.637 85.35 105.805 85.392 105.985C85.44 106.165 85.485 106.354 85.527 106.552C85.557 106.354 85.59 106.165 85.626 105.985C85.662 105.805 85.701 105.637 85.743 105.481L88.416 96.517C88.446 96.409 88.512 96.313 88.614 96.229C88.722 96.145 88.851 96.103 89.001 96.103H90.36ZM95.8233 104.896C95.0853 104.92 94.4553 104.98 93.9333 105.076C93.4173 105.166 92.9943 105.286 92.6643 105.436C92.3403 105.586 92.1033 105.763 91.9533 105.967C91.8093 106.171 91.7373 106.399 91.7373 106.651C91.7373 106.891 91.7763 107.098 91.8543 107.272C91.9323 107.446 92.0373 107.59 92.1693 107.704C92.3073 107.812 92.4663 107.893 92.6463 107.947C92.8323 107.995 93.0303 108.019 93.2403 108.019C93.5223 108.019 93.7803 107.992 94.0143 107.938C94.2483 107.878 94.4673 107.794 94.6713 107.686C94.8813 107.578 95.0793 107.449 95.2653 107.299C95.4573 107.149 95.6433 106.978 95.8233 106.786V104.896ZM90.6483 101.17C91.1523 100.684 91.6953 100.321 92.2773 100.081C92.8593 99.841 93.5043 99.721 94.2123 99.721C94.7223 99.721 95.1753 99.805 95.5713 99.973C95.9673 100.141 96.3003 100.375 96.5703 100.675C96.8403 100.975 97.0443 101.338 97.1823 101.764C97.3203 102.19 97.3893 102.658 97.3893 103.168V109H96.6783C96.5223 109 96.4023 108.976 96.3183 108.928C96.2343 108.874 96.1683 108.772 96.1203 108.622L95.9403 107.758C95.7003 107.98 95.4663 108.178 95.2383 108.352C95.0103 108.52 94.7703 108.664 94.5183 108.784C94.2663 108.898 93.9963 108.985 93.7083 109.045C93.4263 109.111 93.1113 109.144 92.7633 109.144C92.4093 109.144 92.0763 109.096 91.7643 109C91.4523 108.898 91.1793 108.748 90.9453 108.55C90.7173 108.352 90.5343 108.103 90.3963 107.803C90.2643 107.497 90.1983 107.137 90.1983 106.723C90.1983 106.363 90.2973 106.018 90.4953 105.688C90.6933 105.352 91.0143 105.055 91.4583 104.797C91.9023 104.539 92.4813 104.329 93.1953 104.167C93.9093 103.999 94.7853 103.903 95.8233 103.879V103.168C95.8233 102.46 95.6703 101.926 95.3643 101.566C95.0583 101.2 94.6113 101.017 94.0233 101.017C93.6273 101.017 93.2943 101.068 93.0243 101.17C92.7603 101.266 92.5293 101.377 92.3313 101.503C92.1393 101.623 91.9713 101.734 91.8273 101.836C91.6893 101.932 91.5513 101.98 91.4133 101.98C91.3053 101.98 91.2123 101.953 91.1343 101.899C91.0563 101.839 90.9903 101.767 90.9363 101.683L90.6483 101.17ZM101.522 99.883V109H99.9195V99.883H101.522ZM101.864 97.021C101.864 97.177 101.831 97.324 101.765 97.462C101.705 97.594 101.621 97.714 101.513 97.822C101.411 97.924 101.288 98.005 101.144 98.065C101.006 98.125 100.859 98.155 100.703 98.155C100.547 98.155 100.4 98.125 100.262 98.065C100.13 98.005 100.013 97.924 99.9105 97.822C99.8085 97.714 99.7275 97.594 99.6675 97.462C99.6075 97.324 99.5775 97.177 99.5775 97.021C99.5775 96.865 99.6075 96.718 99.6675 96.58C99.7275 96.436 99.8085 96.313 99.9105 96.211C100.013 96.103 100.13 96.019 100.262 95.959C100.4 95.899 100.547 95.869 100.703 95.869C100.859 95.869 101.006 95.899 101.144 95.959C101.288 96.019 101.411 96.103 101.513 96.211C101.621 96.313 101.705 96.436 101.765 96.58C101.831 96.718 101.864 96.865 101.864 97.021ZM106.953 109.144C106.233 109.144 105.678 108.943 105.288 108.541C104.904 108.139 104.712 107.56 104.712 106.804V101.224H103.614C103.518 101.224 103.437 101.197 103.371 101.143C103.305 101.083 103.272 100.993 103.272 100.873V100.234L104.766 100.045L105.135 97.228C105.153 97.138 105.192 97.066 105.252 97.012C105.318 96.952 105.402 96.922 105.504 96.922H106.314V100.063H108.951V101.224H106.314V106.696C106.314 107.08 106.407 107.365 106.593 107.551C106.779 107.737 107.019 107.83 107.313 107.83C107.481 107.83 107.625 107.809 107.745 107.767C107.871 107.719 107.979 107.668 108.069 107.614C108.159 107.56 108.234 107.512 108.294 107.47C108.36 107.422 108.417 107.398 108.465 107.398C108.549 107.398 108.624 107.449 108.69 107.551L109.158 108.316C108.882 108.574 108.549 108.778 108.159 108.928C107.769 109.072 107.367 109.144 106.953 109.144ZM123.67 109H122.068V101.224H117.37V106.696C117.37 107.08 117.463 107.365 117.649 107.551C117.835 107.737 118.075 107.83 118.369 107.83C118.537 107.83 118.681 107.809 118.801 107.767C118.927 107.719 119.035 107.668 119.125 107.614C119.215 107.56 119.29 107.512 119.35 107.47C119.416 107.422 119.473 107.398 119.521 107.398C119.605 107.398 119.68 107.449 119.746 107.551L120.214 108.316C119.938 108.574 119.605 108.778 119.215 108.928C118.825 109.072 118.423 109.144 118.009 109.144C117.289 109.144 116.734 108.943 116.344 108.541C115.96 108.139 115.768 107.56 115.768 106.804V101.224H114.67C114.574 101.224 114.493 101.197 114.427 101.143C114.361 101.083 114.328 100.993 114.328 100.873V100.234L115.822 100.036L116.191 97.228C116.209 97.138 116.248 97.066 116.308 97.012C116.374 96.952 116.458 96.922 116.56 96.922H117.37V100.063H123.67V109ZM124.066 96.958C124.066 97.114 124.033 97.261 123.967 97.399C123.907 97.531 123.823 97.648 123.715 97.75C123.613 97.852 123.493 97.933 123.355 97.993C123.217 98.053 123.07 98.083 122.914 98.083C122.758 98.083 122.611 98.053 122.473 97.993C122.341 97.933 122.224 97.852 122.122 97.75C122.02 97.648 121.939 97.531 121.879 97.399C121.819 97.261 121.789 97.114 121.789 96.958C121.789 96.802 121.819 96.655 121.879 96.517C121.939 96.373 122.02 96.25 122.122 96.148C122.224 96.04 122.341 95.956 122.473 95.896C122.611 95.836 122.758 95.806 122.914 95.806C123.07 95.806 123.217 95.836 123.355 95.896C123.493 95.956 123.613 96.04 123.715 96.148C123.823 96.25 123.907 96.373 123.967 96.517C124.033 96.655 124.066 96.802 124.066 96.958ZM126.302 109V99.883H127.265C127.493 99.883 127.634 99.994 127.688 100.216L127.805 101.152C128.141 100.738 128.519 100.399 128.939 100.135C129.359 99.871 129.845 99.739 130.397 99.739C131.009 99.739 131.504 99.91 131.882 100.252C132.266 100.594 132.542 101.056 132.71 101.638C132.842 101.308 133.01 101.023 133.214 100.783C133.424 100.543 133.658 100.345 133.916 100.189C134.174 100.033 134.447 99.919 134.735 99.847C135.029 99.775 135.326 99.739 135.626 99.739C136.106 99.739 136.532 99.817 136.904 99.973C137.282 100.123 137.6 100.345 137.858 100.639C138.122 100.933 138.323 101.296 138.461 101.728C138.599 102.154 138.668 102.643 138.668 103.195V109H137.057V103.195C137.057 102.481 136.901 101.941 136.589 101.575C136.277 101.203 135.827 101.017 135.239 101.017C134.975 101.017 134.723 101.065 134.483 101.161C134.249 101.251 134.042 101.386 133.862 101.566C133.682 101.746 133.538 101.974 133.43 102.25C133.328 102.52 133.277 102.835 133.277 103.195V109H131.666V103.195C131.666 102.463 131.519 101.917 131.225 101.557C130.931 101.197 130.502 101.017 129.938 101.017C129.542 101.017 129.176 101.125 128.84 101.341C128.504 101.551 128.195 101.839 127.913 102.205V109H126.302ZM147.205 103.447C147.205 103.075 147.151 102.736 147.043 102.43C146.941 102.118 146.788 101.851 146.584 101.629C146.386 101.401 146.143 101.227 145.855 101.107C145.567 100.981 145.24 100.918 144.874 100.918C144.106 100.918 143.497 101.143 143.047 101.593C142.603 102.037 142.327 102.655 142.219 103.447H147.205ZM148.501 107.722C148.303 107.962 148.066 108.172 147.79 108.352C147.514 108.526 147.217 108.67 146.899 108.784C146.587 108.898 146.263 108.982 145.927 109.036C145.591 109.096 145.258 109.126 144.928 109.126C144.298 109.126 143.716 109.021 143.182 108.811C142.654 108.595 142.195 108.283 141.805 107.875C141.421 107.461 141.121 106.951 140.905 106.345C140.689 105.739 140.581 105.043 140.581 104.257C140.581 103.621 140.677 103.027 140.869 102.475C141.067 101.923 141.349 101.446 141.715 101.044C142.081 100.636 142.528 100.318 143.056 100.09C143.584 99.856 144.178 99.739 144.838 99.739C145.384 99.739 145.888 99.832 146.35 100.018C146.818 100.198 147.22 100.462 147.556 100.81C147.898 101.152 148.165 101.578 148.357 102.088C148.549 102.592 148.645 103.168 148.645 103.816C148.645 104.068 148.618 104.236 148.564 104.32C148.51 104.404 148.408 104.446 148.258 104.446H142.165C142.183 105.022 142.261 105.523 142.399 105.949C142.543 106.375 142.741 106.732 142.993 107.02C143.245 107.302 143.545 107.515 143.893 107.659C144.241 107.797 144.631 107.866 145.063 107.866C145.465 107.866 145.81 107.821 146.098 107.731C146.392 107.635 146.644 107.533 146.854 107.425C147.064 107.317 147.238 107.218 147.376 107.128C147.52 107.032 147.643 106.984 147.745 106.984C147.877 106.984 147.979 107.035 148.051 107.137L148.501 107.722ZM155.923 101.386C155.851 101.518 155.74 101.584 155.59 101.584C155.5 101.584 155.398 101.551 155.284 101.485C155.17 101.419 155.029 101.347 154.861 101.269C154.699 101.185 154.504 101.11 154.276 101.044C154.048 100.972 153.778 100.936 153.466 100.936C153.196 100.936 152.953 100.972 152.737 101.044C152.521 101.11 152.335 101.203 152.179 101.323C152.029 101.443 151.912 101.584 151.828 101.746C151.75 101.902 151.711 102.073 151.711 102.259C151.711 102.493 151.777 102.688 151.909 102.844C152.047 103 152.227 103.135 152.449 103.249C152.671 103.363 152.923 103.465 153.205 103.555C153.487 103.639 153.775 103.732 154.069 103.834C154.369 103.93 154.66 104.038 154.942 104.158C155.224 104.278 155.476 104.428 155.698 104.608C155.92 104.788 156.097 105.01 156.229 105.274C156.367 105.532 156.436 105.844 156.436 106.21C156.436 106.63 156.361 107.02 156.211 107.38C156.061 107.734 155.839 108.043 155.545 108.307C155.251 108.565 154.891 108.769 154.465 108.919C154.039 109.069 153.547 109.144 152.989 109.144C152.353 109.144 151.777 109.042 151.261 108.838C150.745 108.628 150.307 108.361 149.947 108.037L150.325 107.425C150.373 107.347 150.43 107.287 150.496 107.245C150.562 107.203 150.646 107.182 150.748 107.182C150.856 107.182 150.97 107.224 151.09 107.308C151.21 107.392 151.354 107.485 151.522 107.587C151.696 107.689 151.906 107.782 152.152 107.866C152.398 107.95 152.704 107.992 153.07 107.992C153.382 107.992 153.655 107.953 153.889 107.875C154.123 107.791 154.318 107.68 154.474 107.542C154.63 107.404 154.744 107.245 154.816 107.065C154.894 106.885 154.933 106.693 154.933 106.489C154.933 106.237 154.864 106.03 154.726 105.868C154.594 105.7 154.417 105.559 154.195 105.445C153.973 105.325 153.718 105.223 153.43 105.139C153.148 105.049 152.857 104.956 152.557 104.86C152.263 104.764 151.972 104.656 151.684 104.536C151.402 104.41 151.15 104.254 150.928 104.068C150.706 103.882 150.526 103.654 150.388 103.384C150.256 103.108 150.19 102.775 150.19 102.385C150.19 102.037 150.262 101.704 150.406 101.386C150.55 101.062 150.76 100.78 151.036 100.54C151.312 100.294 151.651 100.099 152.053 99.955C152.455 99.811 152.914 99.739 153.43 99.739C154.03 99.739 154.567 99.835 155.041 100.027C155.521 100.213 155.935 100.471 156.283 100.801L155.923 101.386Z" fill="black"/>
<path d="M8.20009 156.79C8.69809 156.79 9.13609 156.724 9.51409 156.592C9.89809 156.46 10.2191 156.277 10.4771 156.043C10.7411 155.803 10.9391 155.518 11.0711 155.188C11.2031 154.858 11.2691 154.495 11.2691 154.099C11.2691 153.277 11.0141 152.635 10.5041 152.173C10.0001 151.711 9.23209 151.48 8.20009 151.48H6.13009V156.79H8.20009ZM8.20009 150.103C9.01609 150.103 9.72409 150.199 10.3241 150.391C10.9301 150.577 11.4311 150.844 11.8271 151.192C12.2231 151.54 12.5171 151.96 12.7091 152.452C12.9071 152.944 13.0061 153.493 13.0061 154.099C13.0061 154.699 12.9011 155.248 12.6911 155.746C12.4811 156.244 12.1721 156.673 11.7641 157.033C11.3621 157.393 10.8611 157.675 10.2611 157.879C9.66709 158.077 8.98009 158.176 8.20009 158.176H6.13009V163H4.39309V150.103H8.20009ZM16.4289 149.743V163H14.8269V149.743H16.4289ZM23.9678 158.896C23.2298 158.92 22.5998 158.98 22.0778 159.076C21.5618 159.166 21.1388 159.286 20.8088 159.436C20.4848 159.586 20.2478 159.763 20.0978 159.967C19.9538 160.171 19.8818 160.399 19.8818 160.651C19.8818 160.891 19.9208 161.098 19.9988 161.272C20.0768 161.446 20.1818 161.59 20.3138 161.704C20.4518 161.812 20.6108 161.893 20.7908 161.947C20.9768 161.995 21.1748 162.019 21.3848 162.019C21.6668 162.019 21.9248 161.992 22.1588 161.938C22.3928 161.878 22.6118 161.794 22.8158 161.686C23.0258 161.578 23.2238 161.449 23.4098 161.299C23.6018 161.149 23.7878 160.978 23.9678 160.786V158.896ZM18.7928 155.17C19.2968 154.684 19.8398 154.321 20.4218 154.081C21.0038 153.841 21.6488 153.721 22.3568 153.721C22.8668 153.721 23.3198 153.805 23.7158 153.973C24.1118 154.141 24.4448 154.375 24.7148 154.675C24.9848 154.975 25.1888 155.338 25.3268 155.764C25.4648 156.19 25.5338 156.658 25.5338 157.168V163H24.8228C24.6668 163 24.5468 162.976 24.4628 162.928C24.3788 162.874 24.3128 162.772 24.2648 162.622L24.0848 161.758C23.8448 161.98 23.6108 162.178 23.3828 162.352C23.1548 162.52 22.9148 162.664 22.6628 162.784C22.4108 162.898 22.1408 162.985 21.8528 163.045C21.5708 163.111 21.2558 163.144 20.9078 163.144C20.5538 163.144 20.2208 163.096 19.9088 163C19.5968 162.898 19.3238 162.748 19.0898 162.55C18.8618 162.352 18.6788 162.103 18.5408 161.803C18.4088 161.497 18.3428 161.137 18.3428 160.723C18.3428 160.363 18.4418 160.018 18.6398 159.688C18.8378 159.352 19.1588 159.055 19.6028 158.797C20.0468 158.539 20.6258 158.329 21.3398 158.167C22.0538 157.999 22.9298 157.903 23.9678 157.879V157.168C23.9678 156.46 23.8148 155.926 23.5088 155.566C23.2028 155.2 22.7558 155.017 22.1678 155.017C21.7718 155.017 21.4388 155.068 21.1688 155.17C20.9048 155.266 20.6738 155.377 20.4758 155.503C20.2838 155.623 20.1158 155.734 19.9718 155.836C19.8338 155.932 19.6958 155.98 19.5578 155.98C19.4498 155.98 19.3568 155.953 19.2788 155.899C19.2008 155.839 19.1348 155.767 19.0808 155.683L18.7928 155.17ZM29.4861 155.206C29.6841 154.984 29.8941 154.783 30.1161 154.603C30.3381 154.423 30.5721 154.27 30.8181 154.144C31.0701 154.012 31.3341 153.913 31.6101 153.847C31.8921 153.775 32.1951 153.739 32.5191 153.739C33.0171 153.739 33.4551 153.823 33.8331 153.991C34.2171 154.153 34.5351 154.387 34.7871 154.693C35.0451 154.993 35.2401 155.356 35.3721 155.782C35.5041 156.208 35.5701 156.679 35.5701 157.195V163H33.9591V157.195C33.9591 156.505 33.8001 155.971 33.4821 155.593C33.1701 155.209 32.6931 155.017 32.0511 155.017C31.5771 155.017 31.1331 155.131 30.7191 155.359C30.3111 155.587 29.9331 155.896 29.5851 156.286V163H27.9741V153.883H28.9371C29.1651 153.883 29.3061 153.994 29.3601 154.216L29.4861 155.206ZM49.9892 153.883L46.2722 163H44.8322L41.1152 153.883H42.4202C42.5522 153.883 42.6602 153.916 42.7442 153.982C42.8282 154.048 42.8852 154.126 42.9152 154.216L45.2282 160.084C45.3002 160.306 45.3632 160.522 45.4172 160.732C45.4712 160.942 45.5222 161.152 45.5702 161.362C45.6182 161.152 45.6692 160.942 45.7232 160.732C45.7772 160.522 45.8432 160.306 45.9212 160.084L48.2612 154.216C48.2972 154.12 48.3572 154.042 48.4412 153.982C48.5252 153.916 48.6242 153.883 48.7382 153.883H49.9892ZM53.1505 153.883V163H51.5485V153.883H53.1505ZM53.4925 151.021C53.4925 151.177 53.4595 151.324 53.3935 151.462C53.3335 151.594 53.2495 151.714 53.1415 151.822C53.0395 151.924 52.9165 152.005 52.7725 152.065C52.6345 152.125 52.4875 152.155 52.3315 152.155C52.1755 152.155 52.0285 152.125 51.8905 152.065C51.7585 152.005 51.6415 151.924 51.5395 151.822C51.4375 151.714 51.3565 151.594 51.2965 151.462C51.2365 151.324 51.2065 151.177 51.2065 151.021C51.2065 150.865 51.2365 150.718 51.2965 150.58C51.3565 150.436 51.4375 150.313 51.5395 150.211C51.6415 150.103 51.7585 150.019 51.8905 149.959C52.0285 149.899 52.1755 149.869 52.3315 149.869C52.4875 149.869 52.6345 149.899 52.7725 149.959C52.9165 150.019 53.0395 150.103 53.1415 150.211C53.2495 150.313 53.3335 150.436 53.3935 150.58C53.4595 150.718 53.4925 150.865 53.4925 151.021ZM61.0927 155.386C61.0207 155.518 60.9097 155.584 60.7597 155.584C60.6697 155.584 60.5677 155.551 60.4537 155.485C60.3397 155.419 60.1987 155.347 60.0307 155.269C59.8687 155.185 59.6737 155.11 59.4457 155.044C59.2177 154.972 58.9477 154.936 58.6357 154.936C58.3657 154.936 58.1227 154.972 57.9067 155.044C57.6907 155.11 57.5047 155.203 57.3487 155.323C57.1987 155.443 57.0817 155.584 56.9977 155.746C56.9197 155.902 56.8807 156.073 56.8807 156.259C56.8807 156.493 56.9467 156.688 57.0787 156.844C57.2167 157 57.3967 157.135 57.6187 157.249C57.8407 157.363 58.0927 157.465 58.3747 157.555C58.6567 157.639 58.9447 157.732 59.2387 157.834C59.5387 157.93 59.8297 158.038 60.1117 158.158C60.3937 158.278 60.6457 158.428 60.8677 158.608C61.0897 158.788 61.2667 159.01 61.3987 159.274C61.5367 159.532 61.6057 159.844 61.6057 160.21C61.6057 160.63 61.5307 161.02 61.3807 161.38C61.2307 161.734 61.0087 162.043 60.7147 162.307C60.4207 162.565 60.0607 162.769 59.6347 162.919C59.2087 163.069 58.7167 163.144 58.1587 163.144C57.5227 163.144 56.9467 163.042 56.4307 162.838C55.9147 162.628 55.4767 162.361 55.1167 162.037L55.4947 161.425C55.5427 161.347 55.5997 161.287 55.6657 161.245C55.7317 161.203 55.8157 161.182 55.9177 161.182C56.0257 161.182 56.1397 161.224 56.2597 161.308C56.3797 161.392 56.5237 161.485 56.6917 161.587C56.8657 161.689 57.0757 161.782 57.3217 161.866C57.5677 161.95 57.8737 161.992 58.2397 161.992C58.5517 161.992 58.8247 161.953 59.0587 161.875C59.2927 161.791 59.4877 161.68 59.6437 161.542C59.7997 161.404 59.9137 161.245 59.9857 161.065C60.0637 160.885 60.1027 160.693 60.1027 160.489C60.1027 160.237 60.0337 160.03 59.8957 159.868C59.7637 159.7 59.5867 159.559 59.3647 159.445C59.1427 159.325 58.8877 159.223 58.5997 159.139C58.3177 159.049 58.0267 158.956 57.7267 158.86C57.4327 158.764 57.1417 158.656 56.8537 158.536C56.5717 158.41 56.3197 158.254 56.0977 158.068C55.8757 157.882 55.6957 157.654 55.5577 157.384C55.4257 157.108 55.3597 156.775 55.3597 156.385C55.3597 156.037 55.4317 155.704 55.5757 155.386C55.7197 155.062 55.9297 154.78 56.2057 154.54C56.4817 154.294 56.8207 154.099 57.2227 153.955C57.6247 153.811 58.0837 153.739 58.5997 153.739C59.1997 153.739 59.7367 153.835 60.2107 154.027C60.6907 154.213 61.1047 154.471 61.4527 154.801L61.0927 155.386ZM65.2618 153.883V163H63.6598V153.883H65.2618ZM65.6038 151.021C65.6038 151.177 65.5708 151.324 65.5048 151.462C65.4448 151.594 65.3608 151.714 65.2528 151.822C65.1508 151.924 65.0278 152.005 64.8838 152.065C64.7458 152.125 64.5988 152.155 64.4428 152.155C64.2868 152.155 64.1398 152.125 64.0018 152.065C63.8698 152.005 63.7528 151.924 63.6508 151.822C63.5488 151.714 63.4678 151.594 63.4078 151.462C63.3478 151.324 63.3178 151.177 63.3178 151.021C63.3178 150.865 63.3478 150.718 63.4078 150.58C63.4678 150.436 63.5488 150.313 63.6508 150.211C63.7528 150.103 63.8698 150.019 64.0018 149.959C64.1398 149.899 64.2868 149.869 64.4428 149.869C64.5988 149.869 64.7458 149.899 64.8838 149.959C65.0278 150.019 65.1508 150.103 65.2528 150.211C65.3608 150.313 65.4448 150.436 65.5048 150.58C65.5708 150.718 65.6038 150.865 65.6038 151.021ZM70.693 163.144C69.973 163.144 69.418 162.943 69.028 162.541C68.644 162.139 68.452 161.56 68.452 160.804V155.224H67.354C67.258 155.224 67.177 155.197 67.111 155.143C67.045 155.083 67.012 154.993 67.012 154.873V154.234L68.506 154.045L68.875 151.228C68.893 151.138 68.932 151.066 68.992 151.012C69.058 150.952 69.142 150.922 69.244 150.922H70.054V154.063H72.691V155.224H70.054V160.696C70.054 161.08 70.147 161.365 70.333 161.551C70.519 161.737 70.759 161.83 71.053 161.83C71.221 161.83 71.365 161.809 71.485 161.767C71.611 161.719 71.719 161.668 71.809 161.614C71.899 161.56 71.974 161.512 72.034 161.47C72.1 161.422 72.157 161.398 72.205 161.398C72.289 161.398 72.364 161.449 72.43 161.551L72.898 162.316C72.622 162.574 72.289 162.778 71.899 162.928C71.509 163.072 71.107 163.144 70.693 163.144ZM79.6552 155.386C79.5832 155.518 79.4722 155.584 79.3222 155.584C79.2322 155.584 79.1302 155.551 79.0162 155.485C78.9022 155.419 78.7612 155.347 78.5932 155.269C78.4312 155.185 78.2362 155.11 78.0082 155.044C77.7802 154.972 77.5102 154.936 77.1982 154.936C76.9282 154.936 76.6852 154.972 76.4692 155.044C76.2532 155.11 76.0672 155.203 75.9112 155.323C75.7612 155.443 75.6442 155.584 75.5602 155.746C75.4822 155.902 75.4432 156.073 75.4432 156.259C75.4432 156.493 75.5092 156.688 75.6412 156.844C75.7792 157 75.9592 157.135 76.1812 157.249C76.4032 157.363 76.6552 157.465 76.9372 157.555C77.2192 157.639 77.5072 157.732 77.8012 157.834C78.1012 157.93 78.3922 158.038 78.6742 158.158C78.9562 158.278 79.2082 158.428 79.4302 158.608C79.6522 158.788 79.8292 159.01 79.9612 159.274C80.0992 159.532 80.1682 159.844 80.1682 160.21C80.1682 160.63 80.0932 161.02 79.9432 161.38C79.7932 161.734 79.5712 162.043 79.2772 162.307C78.9832 162.565 78.6232 162.769 78.1972 162.919C77.7712 163.069 77.2792 163.144 76.7212 163.144C76.0852 163.144 75.5092 163.042 74.9932 162.838C74.4772 162.628 74.0392 162.361 73.6792 162.037L74.0572 161.425C74.1052 161.347 74.1622 161.287 74.2282 161.245C74.2942 161.203 74.3782 161.182 74.4802 161.182C74.5882 161.182 74.7022 161.224 74.8222 161.308C74.9422 161.392 75.0862 161.485 75.2542 161.587C75.4282 161.689 75.6382 161.782 75.8842 161.866C76.1302 161.95 76.4362 161.992 76.8022 161.992C77.1142 161.992 77.3872 161.953 77.6212 161.875C77.8552 161.791 78.0502 161.68 78.2062 161.542C78.3622 161.404 78.4762 161.245 78.5482 161.065C78.6262 160.885 78.6652 160.693 78.6652 160.489C78.6652 160.237 78.5962 160.03 78.4582 159.868C78.3262 159.7 78.1492 159.559 77.9272 159.445C77.7052 159.325 77.4502 159.223 77.1622 159.139C76.8802 159.049 76.5892 158.956 76.2892 158.86C75.9952 158.764 75.7042 158.656 75.4162 158.536C75.1342 158.41 74.8822 158.254 74.6602 158.068C74.4382 157.882 74.2582 157.654 74.1202 157.384C73.9882 157.108 73.9222 156.775 73.9222 156.385C73.9222 156.037 73.9942 155.704 74.1382 155.386C74.2822 155.062 74.4922 154.78 74.7682 154.54C75.0442 154.294 75.3832 154.099 75.7852 153.955C76.1872 153.811 76.6462 153.739 77.1622 153.739C77.7622 153.739 78.2992 153.835 78.7732 154.027C79.2532 154.213 79.6672 154.471 80.0152 154.801L79.6552 155.386ZM91.6788 158.896C90.9408 158.92 90.3108 158.98 89.7888 159.076C89.2728 159.166 88.8498 159.286 88.5198 159.436C88.1958 159.586 87.9588 159.763 87.8088 159.967C87.6648 160.171 87.5928 160.399 87.5928 160.651C87.5928 160.891 87.6318 161.098 87.7098 161.272C87.7878 161.446 87.8928 161.59 88.0248 161.704C88.1628 161.812 88.3218 161.893 88.5018 161.947C88.6878 161.995 88.8858 162.019 89.0958 162.019C89.3778 162.019 89.6358 161.992 89.8698 161.938C90.1038 161.878 90.3228 161.794 90.5268 161.686C90.7368 161.578 90.9348 161.449 91.1208 161.299C91.3128 161.149 91.4988 160.978 91.6788 160.786V158.896ZM86.5038 155.17C87.0078 154.684 87.5508 154.321 88.1328 154.081C88.7148 153.841 89.3598 153.721 90.0678 153.721C90.5778 153.721 91.0308 153.805 91.4268 153.973C91.8228 154.141 92.1558 154.375 92.4258 154.675C92.6958 154.975 92.8998 155.338 93.0378 155.764C93.1758 156.19 93.2448 156.658 93.2448 157.168V163H92.5338C92.3778 163 92.2578 162.976 92.1738 162.928C92.0898 162.874 92.0238 162.772 91.9758 162.622L91.7958 161.758C91.5558 161.98 91.3218 162.178 91.0938 162.352C90.8658 162.52 90.6258 162.664 90.3738 162.784C90.1218 162.898 89.8518 162.985 89.5638 163.045C89.2818 163.111 88.9668 163.144 88.6188 163.144C88.2648 163.144 87.9318 163.096 87.6198 163C87.3078 162.898 87.0348 162.748 86.8008 162.55C86.5728 162.352 86.3898 162.103 86.2518 161.803C86.1198 161.497 86.0538 161.137 86.0538 160.723C86.0538 160.363 86.1528 160.018 86.3508 159.688C86.5488 159.352 86.8698 159.055 87.3138 158.797C87.7578 158.539 88.3368 158.329 89.0508 158.167C89.7648 157.999 90.6408 157.903 91.6788 157.879V157.168C91.6788 156.46 91.5258 155.926 91.2198 155.566C90.9138 155.2 90.4668 155.017 89.8788 155.017C89.4828 155.017 89.1498 155.068 88.8798 155.17C88.6158 155.266 88.3848 155.377 88.1868 155.503C87.9948 155.623 87.8268 155.734 87.6828 155.836C87.5448 155.932 87.4068 155.98 87.2688 155.98C87.1608 155.98 87.0678 155.953 86.9898 155.899C86.9118 155.839 86.8458 155.767 86.7917 155.683L86.5038 155.17ZM97.296 155.098C97.686 154.684 98.118 154.354 98.592 154.108C99.066 153.862 99.612 153.739 100.23 153.739C100.728 153.739 101.166 153.823 101.544 153.991C101.928 154.153 102.246 154.387 102.498 154.693C102.756 154.993 102.951 155.356 103.083 155.782C103.215 156.208 103.281 156.679 103.281 157.195V163H101.67V157.195C101.67 156.505 101.511 155.971 101.193 155.593C100.881 155.209 100.404 155.017 99.762 155.017C99.288 155.017 98.844 155.131 98.43 155.359C98.022 155.587 97.644 155.896 97.296 156.286V163H95.685V149.743H97.296V155.098ZM111.824 157.447C111.824 157.075 111.77 156.736 111.662 156.43C111.56 156.118 111.407 155.851 111.203 155.629C111.005 155.401 110.762 155.227 110.474 155.107C110.186 154.981 109.859 154.918 109.493 154.918C108.725 154.918 108.116 155.143 107.666 155.593C107.222 156.037 106.946 156.655 106.838 157.447H111.824ZM113.12 161.722C112.922 161.962 112.685 162.172 112.409 162.352C112.133 162.526 111.836 162.67 111.518 162.784C111.206 162.898 110.882 162.982 110.546 163.036C110.21 163.096 109.877 163.126 109.547 163.126C108.917 163.126 108.335 163.021 107.801 162.811C107.273 162.595 106.814 162.283 106.424 161.875C106.04 161.461 105.74 160.951 105.524 160.345C105.308 159.739 105.2 159.043 105.2 158.257C105.2 157.621 105.296 157.027 105.488 156.475C105.686 155.923 105.968 155.446 106.334 155.044C106.7 154.636 107.147 154.318 107.675 154.09C108.203 153.856 108.797 153.739 109.457 153.739C110.003 153.739 110.507 153.832 110.969 154.018C111.437 154.198 111.839 154.462 112.175 154.81C112.517 155.152 112.784 155.578 112.976 156.088C113.168 156.592 113.264 157.168 113.264 157.816C113.264 158.068 113.237 158.236 113.183 158.32C113.129 158.404 113.027 158.446 112.877 158.446H106.784C106.802 159.022 106.88 159.523 107.018 159.949C107.162 160.375 107.36 160.732 107.612 161.02C107.864 161.302 108.164 161.515 108.512 161.659C108.86 161.797 109.25 161.866 109.682 161.866C110.084 161.866 110.429 161.821 110.717 161.731C111.011 161.635 111.263 161.533 111.473 161.425C111.683 161.317 111.857 161.218 111.995 161.128C112.139 161.032 112.262 160.984 112.364 160.984C112.496 160.984 112.598 161.035 112.67 161.137L113.12 161.722ZM120.173 158.896C119.435 158.92 118.805 158.98 118.283 159.076C117.767 159.166 117.344 159.286 117.014 159.436C116.69 159.586 116.453 159.763 116.303 159.967C116.159 160.171 116.087 160.399 116.087 160.651C116.087 160.891 116.126 161.098 116.204 161.272C116.282 161.446 116.387 161.59 116.519 161.704C116.657 161.812 116.816 161.893 116.996 161.947C117.182 161.995 117.38 162.019 117.59 162.019C117.872 162.019 118.13 161.992 118.364 161.938C118.598 161.878 118.817 161.794 119.021 161.686C119.231 161.578 119.429 161.449 119.615 161.299C119.807 161.149 119.993 160.978 120.173 160.786V158.896ZM114.998 155.17C115.502 154.684 116.045 154.321 116.627 154.081C117.209 153.841 117.854 153.721 118.562 153.721C119.072 153.721 119.525 153.805 119.921 153.973C120.317 154.141 120.65 154.375 120.92 154.675C121.19 154.975 121.394 155.338 121.532 155.764C121.67 156.19 121.739 156.658 121.739 157.168V163H121.028C120.872 163 120.752 162.976 120.668 162.928C120.584 162.874 120.518 162.772 120.47 162.622L120.29 161.758C120.05 161.98 119.816 162.178 119.588 162.352C119.36 162.52 119.12 162.664 118.868 162.784C118.616 162.898 118.346 162.985 118.058 163.045C117.776 163.111 117.461 163.144 117.113 163.144C116.759 163.144 116.426 163.096 116.114 163C115.802 162.898 115.529 162.748 115.295 162.55C115.067 162.352 114.884 162.103 114.746 161.803C114.614 161.497 114.548 161.137 114.548 160.723C114.548 160.363 114.647 160.018 114.845 159.688C115.043 159.352 115.364 159.055 115.808 158.797C116.252 158.539 116.831 158.329 117.545 158.167C118.259 157.999 119.135 157.903 120.173 157.879V157.168C120.173 156.46 120.02 155.926 119.714 155.566C119.408 155.2 118.961 155.017 118.373 155.017C117.977 155.017 117.644 155.068 117.374 155.17C117.11 155.266 116.879 155.377 116.681 155.503C116.489 155.623 116.321 155.734 116.177 155.836C116.039 155.932 115.901 155.98 115.763 155.98C115.655 155.98 115.562 155.953 115.484 155.899C115.406 155.839 115.34 155.767 115.286 155.683L114.998 155.17ZM130.119 156.052C129.819 155.65 129.495 155.371 129.147 155.215C128.799 155.053 128.409 154.972 127.977 154.972C127.131 154.972 126.48 155.275 126.024 155.881C125.568 156.487 125.34 157.351 125.34 158.473C125.34 159.067 125.391 159.577 125.493 160.003C125.595 160.423 125.745 160.771 125.943 161.047C126.141 161.317 126.384 161.515 126.672 161.641C126.96 161.767 127.287 161.83 127.653 161.83C128.181 161.83 128.64 161.71 129.03 161.47C129.426 161.23 129.789 160.891 130.119 160.453V156.052ZM131.721 149.743V163H130.767C130.539 163 130.395 162.889 130.335 162.667L130.191 161.56C129.801 162.028 129.357 162.406 128.859 162.694C128.361 162.982 127.785 163.126 127.131 163.126C126.609 163.126 126.135 163.027 125.709 162.829C125.283 162.625 124.92 162.328 124.62 161.938C124.32 161.548 124.089 161.062 123.927 160.48C123.765 159.898 123.684 159.229 123.684 158.473C123.684 157.801 123.774 157.177 123.954 156.601C124.134 156.019 124.392 155.515 124.728 155.089C125.064 154.663 125.475 154.33 125.961 154.09C126.453 153.844 127.005 153.721 127.617 153.721C128.175 153.721 128.652 153.817 129.048 154.009C129.45 154.195 129.807 154.456 130.119 154.792V149.743H131.721ZM142.7 153.739C143.366 153.739 143.966 153.85 144.5 154.072C145.034 154.294 145.49 154.609 145.868 155.017C146.246 155.425 146.534 155.92 146.732 156.502C146.936 157.078 147.038 157.723 147.038 158.437C147.038 159.157 146.936 159.805 146.732 160.381C146.534 160.957 146.246 161.449 145.868 161.857C145.49 162.265 145.034 162.58 144.5 162.802C143.966 163.018 143.366 163.126 142.7 163.126C142.028 163.126 141.422 163.018 140.882 162.802C140.348 162.58 139.892 162.265 139.514 161.857C139.136 161.449 138.845 160.957 138.641 160.381C138.443 159.805 138.344 159.157 138.344 158.437C138.344 157.723 138.443 157.078 138.641 156.502C138.845 155.92 139.136 155.425 139.514 155.017C139.892 154.609 140.348 154.294 140.882 154.072C141.422 153.85 142.028 153.739 142.7 153.739ZM142.7 161.875C143.6 161.875 144.272 161.575 144.716 160.975C145.16 160.369 145.382 159.526 145.382 158.446C145.382 157.36 145.16 156.514 144.716 155.908C144.272 155.302 143.6 154.999 142.7 154.999C142.244 154.999 141.845 155.077 141.503 155.233C141.167 155.389 140.885 155.614 140.657 155.908C140.435 156.202 140.267 156.565 140.153 156.997C140.045 157.423 139.991 157.906 139.991 158.446C139.991 159.526 140.213 160.369 140.657 160.975C141.107 161.575 141.788 161.875 142.7 161.875ZM149.47 163V155.251L148.462 155.134C148.336 155.104 148.231 155.059 148.147 154.999C148.069 154.933 148.03 154.84 148.03 154.72V154.063H149.47V153.181C149.47 152.659 149.542 152.197 149.686 151.795C149.836 151.387 150.046 151.045 150.316 150.769C150.592 150.487 150.922 150.274 151.306 150.13C151.69 149.986 152.122 149.914 152.602 149.914C153.01 149.914 153.385 149.974 153.727 150.094L153.691 150.895C153.679 151.039 153.598 151.117 153.448 151.129C153.304 151.141 153.109 151.147 152.863 151.147C152.587 151.147 152.335 151.183 152.107 151.255C151.885 151.327 151.693 151.444 151.531 151.606C151.369 151.768 151.243 151.981 151.153 152.245C151.069 152.509 151.027 152.836 151.027 153.226V154.063H153.655V155.224H151.081V163H149.47ZM167.918 163H166.316V155.224H161.618V160.696C161.618 161.08 161.711 161.365 161.897 161.551C162.083 161.737 162.323 161.83 162.617 161.83C162.785 161.83 162.929 161.809 163.049 161.767C163.175 161.719 163.283 161.668 163.373 161.614C163.463 161.56 163.538 161.512 163.598 161.47C163.664 161.422 163.721 161.398 163.769 161.398C163.853 161.398 163.928 161.449 163.994 161.551L164.462 162.316C164.186 162.574 163.853 162.778 163.463 162.928C163.073 163.072 162.671 163.144 162.257 163.144C161.537 163.144 160.982 162.943 160.592 162.541C160.208 162.139 160.016 161.56 160.016 160.804V155.224H158.918C158.822 155.224 158.741 155.197 158.675 155.143C158.609 155.083 158.576 154.993 158.576 154.873V154.234L160.07 154.036L160.439 151.228C160.457 151.138 160.496 151.066 160.556 151.012C160.622 150.952 160.706 150.922 160.808 150.922H161.618V154.063H167.918V163ZM168.314 150.958C168.314 151.114 168.281 151.261 168.215 151.399C168.155 151.531 168.071 151.648 167.963 151.75C167.861 151.852 167.741 151.933 167.603 151.993C167.465 152.053 167.318 152.083 167.162 152.083C167.006 152.083 166.859 152.053 166.721 151.993C166.589 151.933 166.472 151.852 166.37 151.75C166.268 151.648 166.187 151.531 166.127 151.399C166.067 151.261 166.037 151.114 166.037 150.958C166.037 150.802 166.067 150.655 166.127 150.517C166.187 150.373 166.268 150.25 166.37 150.148C166.472 150.04 166.589 149.956 166.721 149.896C166.859 149.836 167.006 149.806 167.162 149.806C167.318 149.806 167.465 149.836 167.603 149.896C167.741 149.956 167.861 150.04 167.963 150.148C168.071 150.25 168.155 150.373 168.215 150.517C168.281 150.655 168.314 150.802 168.314 150.958ZM170.55 163V153.883H171.513C171.741 153.883 171.882 153.994 171.936 154.216L172.053 155.152C172.389 154.738 172.767 154.399 173.187 154.135C173.607 153.871 174.093 153.739 174.645 153.739C175.257 153.739 175.752 153.91 176.13 154.252C176.514 154.594 176.79 155.056 176.958 155.638C177.09 155.308 177.258 155.023 177.462 154.783C177.672 154.543 177.906 154.345 178.164 154.189C178.422 154.033 178.695 153.919 178.983 153.847C179.277 153.775 179.574 153.739 179.874 153.739C180.354 153.739 180.78 153.817 181.152 153.973C181.53 154.123 181.848 154.345 182.106 154.639C182.37 154.933 182.571 155.296 182.709 155.728C182.847 156.154 182.916 156.643 182.916 157.195V163H181.305V157.195C181.305 156.481 181.149 155.941 180.837 155.575C180.525 155.203 180.075 155.017 179.487 155.017C179.223 155.017 178.971 155.065 178.731 155.161C178.497 155.251 178.29 155.386 178.11 155.566C177.93 155.746 177.786 155.974 177.678 156.25C177.576 156.52 177.525 156.835 177.525 157.195V163H175.914V157.195C175.914 156.463 175.767 155.917 175.473 155.557C175.179 155.197 174.75 155.017 174.186 155.017C173.79 155.017 173.424 155.125 173.088 155.341C172.752 155.551 172.443 155.839 172.161 156.205V163H170.55ZM191.453 157.447C191.453 157.075 191.399 156.736 191.291 156.43C191.189 156.118 191.036 155.851 190.832 155.629C190.634 155.401 190.391 155.227 190.103 155.107C189.815 154.981 189.488 154.918 189.122 154.918C188.354 154.918 187.745 155.143 187.295 155.593C186.851 156.037 186.575 156.655 186.467 157.447H191.453ZM192.749 161.722C192.551 161.962 192.314 162.172 192.038 162.352C191.762 162.526 191.465 162.67 191.147 162.784C190.835 162.898 190.511 162.982 190.175 163.036C189.839 163.096 189.506 163.126 189.176 163.126C188.546 163.126 187.964 163.021 187.43 162.811C186.902 162.595 186.443 162.283 186.053 161.875C185.669 161.461 185.369 160.951 185.153 160.345C184.937 159.739 184.829 159.043 184.829 158.257C184.829 157.621 184.925 157.027 185.117 156.475C185.315 155.923 185.597 155.446 185.963 155.044C186.329 154.636 186.776 154.318 187.304 154.09C187.832 153.856 188.426 153.739 189.086 153.739C189.632 153.739 190.136 153.832 190.598 154.018C191.066 154.198 191.468 154.462 191.804 154.81C192.146 155.152 192.413 155.578 192.605 156.088C192.797 156.592 192.893 157.168 192.893 157.816C192.893 158.068 192.866 158.236 192.812 158.32C192.758 158.404 192.656 158.446 192.506 158.446H186.413C186.431 159.022 186.509 159.523 186.647 159.949C186.791 160.375 186.989 160.732 187.241 161.02C187.493 161.302 187.793 161.515 188.141 161.659C188.489 161.797 188.879 161.866 189.311 161.866C189.713 161.866 190.058 161.821 190.346 161.731C190.64 161.635 190.892 161.533 191.102 161.425C191.312 161.317 191.486 161.218 191.624 161.128C191.768 161.032 191.891 160.984 191.993 160.984C192.125 160.984 192.227 161.035 192.299 161.137L192.749 161.722ZM204.407 158.896C203.669 158.92 203.039 158.98 202.517 159.076C202.001 159.166 201.578 159.286 201.248 159.436C200.924 159.586 200.687 159.763 200.537 159.967C200.393 160.171 200.321 160.399 200.321 160.651C200.321 160.891 200.36 161.098 200.438 161.272C200.516 161.446 200.621 161.59 200.753 161.704C200.891 161.812 201.05 161.893 201.23 161.947C201.416 161.995 201.614 162.019 201.824 162.019C202.106 162.019 202.364 161.992 202.598 161.938C202.832 161.878 203.051 161.794 203.255 161.686C203.465 161.578 203.663 161.449 203.849 161.299C204.041 161.149 204.227 160.978 204.407 160.786V158.896ZM199.232 155.17C199.736 154.684 200.279 154.321 200.861 154.081C201.443 153.841 202.088 153.721 202.796 153.721C203.306 153.721 203.759 153.805 204.155 153.973C204.551 154.141 204.884 154.375 205.154 154.675C205.424 154.975 205.628 155.338 205.766 155.764C205.904 156.19 205.973 156.658 205.973 157.168V163H205.262C205.106 163 204.986 162.976 204.902 162.928C204.818 162.874 204.752 162.772 204.704 162.622L204.524 161.758C204.284 161.98 204.05 162.178 203.822 162.352C203.594 162.52 203.354 162.664 203.102 162.784C202.85 162.898 202.58 162.985 202.292 163.045C202.01 163.111 201.695 163.144 201.347 163.144C200.993 163.144 200.66 163.096 200.348 163C200.036 162.898 199.763 162.748 199.529 162.55C199.301 162.352 199.118 162.103 198.98 161.803C198.848 161.497 198.782 161.137 198.782 160.723C198.782 160.363 198.881 160.018 199.079 159.688C199.277 159.352 199.598 159.055 200.042 158.797C200.486 158.539 201.065 158.329 201.779 158.167C202.493 157.999 203.369 157.903 204.407 157.879V157.168C204.407 156.46 204.254 155.926 203.948 155.566C203.642 155.2 203.195 155.017 202.607 155.017C202.211 155.017 201.878 155.068 201.608 155.17C201.344 155.266 201.113 155.377 200.915 155.503C200.723 155.623 200.555 155.734 200.411 155.836C200.273 155.932 200.135 155.98 199.997 155.98C199.889 155.98 199.796 155.953 199.718 155.899C199.64 155.839 199.574 155.767 199.52 155.683L199.232 155.17ZM209.926 155.206C210.124 154.984 210.334 154.783 210.556 154.603C210.778 154.423 211.012 154.27 211.258 154.144C211.51 154.012 211.774 153.913 212.05 153.847C212.332 153.775 212.635 153.739 212.959 153.739C213.457 153.739 213.895 153.823 214.273 153.991C214.657 154.153 214.975 154.387 215.227 154.693C215.485 154.993 215.68 155.356 215.812 155.782C215.944 156.208 216.01 156.679 216.01 157.195V163H214.399V157.195C214.399 156.505 214.24 155.971 213.922 155.593C213.61 155.209 213.133 155.017 212.491 155.017C212.017 155.017 211.573 155.131 211.159 155.359C210.751 155.587 210.373 155.896 210.025 156.286V163H208.414V153.883H209.377C209.605 153.883 209.746 153.994 209.8 154.216L209.926 155.206ZM224.391 156.052C224.091 155.65 223.767 155.371 223.419 155.215C223.071 155.053 222.681 154.972 222.249 154.972C221.403 154.972 220.752 155.275 220.296 155.881C219.84 156.487 219.612 157.351 219.612 158.473C219.612 159.067 219.663 159.577 219.765 160.003C219.867 160.423 220.017 160.771 220.215 161.047C220.413 161.317 220.656 161.515 220.944 161.641C221.232 161.767 221.559 161.83 221.925 161.83C222.453 161.83 222.912 161.71 223.302 161.47C223.698 161.23 224.061 160.891 224.391 160.453V156.052ZM225.993 149.743V163H225.039C224.811 163 224.667 162.889 224.607 162.667L224.463 161.56C224.073 162.028 223.629 162.406 223.131 162.694C222.633 162.982 222.057 163.126 221.403 163.126C220.881 163.126 220.407 163.027 219.981 162.829C219.555 162.625 219.192 162.328 218.892 161.938C218.592 161.548 218.361 161.062 218.199 160.48C218.037 159.898 217.956 159.229 217.956 158.473C217.956 157.801 218.046 157.177 218.226 156.601C218.406 156.019 218.664 155.515 219 155.089C219.336 154.663 219.747 154.33 220.233 154.09C220.725 153.844 221.277 153.721 221.889 153.721C222.447 153.721 222.924 153.817 223.32 154.009C223.722 154.195 224.079 154.456 224.391 154.792V149.743H225.993ZM15.2589 194.804C15.5529 195.2 15.8739 195.479 16.2219 195.641C16.5759 195.803 16.9629 195.884 17.3829 195.884C18.2409 195.884 18.8979 195.581 19.3539 194.975C19.8099 194.369 20.0379 193.466 20.0379 192.266C20.0379 191.15 19.8339 190.331 19.4259 189.809C19.0239 189.281 18.4479 189.017 17.6979 189.017C17.1759 189.017 16.7199 189.137 16.3299 189.377C15.9459 189.617 15.5889 189.956 15.2589 190.394V194.804ZM15.2589 189.197C15.6429 188.753 16.0749 188.399 16.5549 188.135C17.0409 187.871 17.5989 187.739 18.2289 187.739C18.7629 187.739 19.2429 187.841 19.6689 188.045C20.1009 188.249 20.4669 188.546 20.7669 188.936C21.0669 189.32 21.2949 189.788 21.4509 190.34C21.6129 190.892 21.6939 191.513 21.6939 192.203C21.6939 192.941 21.6039 193.613 21.4239 194.219C21.2439 194.825 20.9829 195.344 20.6409 195.776C20.3049 196.202 19.8939 196.535 19.4079 196.775C18.9219 197.009 18.3759 197.126 17.7699 197.126C17.1699 197.126 16.6629 197.015 16.2489 196.793C15.8409 196.565 15.4839 196.244 15.1779 195.83L15.0969 196.658C15.0489 196.886 14.9109 197 14.6829 197H13.6479V183.743H15.2589V189.197ZM29.8222 191.447C29.8222 191.075 29.7682 190.736 29.6602 190.43C29.5582 190.118 29.4052 189.851 29.2012 189.629C29.0032 189.401 28.7602 189.227 28.4722 189.107C28.1842 188.981 27.8572 188.918 27.4912 188.918C26.7232 188.918 26.1142 189.143 25.6642 189.593C25.2202 190.037 24.9442 190.655 24.8362 191.447H29.8222ZM31.1182 195.722C30.9202 195.962 30.6832 196.172 30.4072 196.352C30.1312 196.526 29.8342 196.67 29.5162 196.784C29.2042 196.898 28.8802 196.982 28.5442 197.036C28.2082 197.096 27.8752 197.126 27.5452 197.126C26.9152 197.126 26.3332 197.021 25.7992 196.811C25.2712 196.595 24.8122 196.283 24.4222 195.875C24.0382 195.461 23.7382 194.951 23.5222 194.345C23.3062 193.739 23.1982 193.043 23.1982 192.257C23.1982 191.621 23.2942 191.027 23.4862 190.475C23.6842 189.923 23.9662 189.446 24.3322 189.044C24.6982 188.636 25.1452 188.318 25.6732 188.09C26.2012 187.856 26.7952 187.739 27.4552 187.739C28.0012 187.739 28.5052 187.832 28.9672 188.018C29.4352 188.198 29.8372 188.462 30.1732 188.81C30.5152 189.152 30.7822 189.578 30.9742 190.088C31.1662 190.592 31.2622 191.168 31.2622 191.816C31.2622 192.068 31.2352 192.236 31.1812 192.32C31.1272 192.404 31.0252 192.446 30.8752 192.446H24.7822C24.8002 193.022 24.8782 193.523 25.0162 193.949C25.1602 194.375 25.3582 194.732 25.6102 195.02C25.8622 195.302 26.1622 195.515 26.5102 195.659C26.8582 195.797 27.2482 195.866 27.6802 195.866C28.0822 195.866 28.4272 195.821 28.7152 195.731C29.0092 195.635 29.2612 195.533 29.4712 195.425C29.6812 195.317 29.8552 195.218 29.9932 195.128C30.1372 195.032 30.2602 194.984 30.3622 194.984C30.4942 194.984 30.5962 195.035 30.6682 195.137L31.1182 195.722ZM39.5274 187.883V197H37.9254V187.883H39.5274ZM39.8694 185.021C39.8694 185.177 39.8364 185.324 39.7704 185.462C39.7104 185.594 39.6264 185.714 39.5184 185.822C39.4164 185.924 39.2934 186.005 39.1494 186.065C39.0114 186.125 38.8644 186.155 38.7084 186.155C38.5524 186.155 38.4054 186.125 38.2674 186.065C38.1354 186.005 38.0184 185.924 37.9164 185.822C37.8144 185.714 37.7334 185.594 37.6734 185.462C37.6134 185.324 37.5834 185.177 37.5834 185.021C37.5834 184.865 37.6134 184.718 37.6734 184.58C37.7334 184.436 37.8144 184.313 37.9164 184.211C38.0184 184.103 38.1354 184.019 38.2674 183.959C38.4054 183.899 38.5524 183.869 38.7084 183.869C38.8644 183.869 39.0114 183.899 39.1494 183.959C39.2934 184.019 39.4164 184.103 39.5184 184.211C39.6264 184.313 39.7104 184.436 39.7704 184.58C39.8364 184.718 39.8694 184.865 39.8694 185.021ZM43.6716 189.206C43.8696 188.984 44.0796 188.783 44.3016 188.603C44.5236 188.423 44.7576 188.27 45.0036 188.144C45.2556 188.012 45.5196 187.913 45.7956 187.847C46.0776 187.775 46.3806 187.739 46.7046 187.739C47.2026 187.739 47.6406 187.823 48.0186 187.991C48.4026 188.153 48.7206 188.387 48.9726 188.693C49.2306 188.993 49.4256 189.356 49.5576 189.782C49.6896 190.208 49.7556 190.679 49.7556 191.195V197H48.1446V191.195C48.1446 190.505 47.9856 189.971 47.6676 189.593C47.3556 189.209 46.8786 189.017 46.2366 189.017C45.7626 189.017 45.3186 189.131 44.9046 189.359C44.4966 189.587 44.1186 189.896 43.7706 190.286V197H42.1596V187.883H43.1226C43.3506 187.883 43.4916 187.994 43.5456 188.216L43.6716 189.206ZM52.6501 197V189.251L51.6421 189.134C51.5161 189.104 51.4111 189.059 51.3271 188.999C51.2491 188.933 51.2101 188.84 51.2101 188.72V188.063H52.6501V187.181C52.6501 186.659 52.7221 186.197 52.8661 185.795C53.0161 185.387 53.2261 185.045 53.4961 184.769C53.7721 184.487 54.1021 184.274 54.4861 184.13C54.8701 183.986 55.3021 183.914 55.7821 183.914C56.1901 183.914 56.5651 183.974 56.9071 184.094L56.8711 184.895C56.8591 185.039 56.7781 185.117 56.6281 185.129C56.4841 185.141 56.2891 185.147 56.0431 185.147C55.7671 185.147 55.5151 185.183 55.2871 185.255C55.0651 185.327 54.8731 185.444 54.7111 185.606C54.5491 185.768 54.4231 185.981 54.3331 186.245C54.2491 186.509 54.2071 186.836 54.2071 187.226V188.063H56.8351V189.224H54.2611V197H52.6501ZM61.9108 187.739C62.5768 187.739 63.1768 187.85 63.7108 188.072C64.2448 188.294 64.7008 188.609 65.0788 189.017C65.4568 189.425 65.7448 189.92 65.9428 190.502C66.1468 191.078 66.2488 191.723 66.2488 192.437C66.2488 193.157 66.1468 193.805 65.9428 194.381C65.7448 194.957 65.4568 195.449 65.0788 195.857C64.7008 196.265 64.2448 196.58 63.7108 196.802C63.1768 197.018 62.5768 197.126 61.9108 197.126C61.2388 197.126 60.6328 197.018 60.0928 196.802C59.5588 196.58 59.1028 196.265 58.7248 195.857C58.3468 195.449 58.0558 194.957 57.8518 194.381C57.6538 193.805 57.5548 193.157 57.5548 192.437C57.5548 191.723 57.6538 191.078 57.8518 190.502C58.0558 189.92 58.3468 189.425 58.7248 189.017C59.1028 188.609 59.5588 188.294 60.0928 188.072C60.6328 187.85 61.2388 187.739 61.9108 187.739ZM61.9108 195.875C62.8108 195.875 63.4828 195.575 63.9268 194.975C64.3708 194.369 64.5928 193.526 64.5928 192.446C64.5928 191.36 64.3708 190.514 63.9268 189.908C63.4828 189.302 62.8108 188.999 61.9108 188.999C61.4548 188.999 61.0558 189.077 60.7138 189.233C60.3778 189.389 60.0958 189.614 59.8678 189.908C59.6458 190.202 59.4778 190.565 59.3638 190.997C59.2558 191.423 59.2018 191.906 59.2018 192.446C59.2018 193.526 59.4238 194.369 59.8678 194.975C60.3178 195.575 60.9988 195.875 61.9108 195.875ZM69.8017 189.71C70.0897 189.086 70.4437 188.6 70.8637 188.252C71.2837 187.898 71.7967 187.721 72.4027 187.721C72.5947 187.721 72.7777 187.742 72.9517 187.784C73.1317 187.826 73.2907 187.892 73.4287 187.982L73.3117 189.179C73.2757 189.329 73.1857 189.404 73.0417 189.404C72.9577 189.404 72.8347 189.386 72.6727 189.35C72.5107 189.314 72.3277 189.296 72.1237 189.296C71.8357 189.296 71.5777 189.338 71.3497 189.422C71.1277 189.506 70.9267 189.632 70.7467 189.8C70.5727 189.962 70.4137 190.166 70.2697 190.412C70.1317 190.652 70.0057 190.928 69.8917 191.24V197H68.2807V187.883H69.1987C69.3727 187.883 69.4927 187.916 69.5587 187.982C69.6247 188.048 69.6697 188.162 69.6937 188.324L69.8017 189.71ZM74.8374 197V187.883H75.8004C76.0284 187.883 76.1694 187.994 76.2234 188.216L76.3404 189.152C76.6764 188.738 77.0544 188.399 77.4744 188.135C77.8944 187.871 78.3804 187.739 78.9324 187.739C79.5444 187.739 80.0394 187.91 80.4174 188.252C80.8014 188.594 81.0774 189.056 81.2454 189.638C81.3774 189.308 81.5454 189.023 81.7494 188.783C81.9594 188.543 82.1934 188.345 82.4514 188.189C82.7094 188.033 82.9824 187.919 83.2704 187.847C83.5644 187.775 83.8614 187.739 84.1614 187.739C84.6414 187.739 85.0674 187.817 85.4394 187.973C85.8174 188.123 86.1354 188.345 86.3934 188.639C86.6574 188.933 86.8584 189.296 86.9964 189.728C87.1344 190.154 87.2034 190.643 87.2034 191.195V197H85.5924V191.195C85.5924 190.481 85.4364 189.941 85.1244 189.575C84.8124 189.203 84.3624 189.017 83.7744 189.017C83.5104 189.017 83.2584 189.065 83.0184 189.161C82.7844 189.251 82.5774 189.386 82.3974 189.566C82.2174 189.746 82.0734 189.974 81.9654 190.25C81.8634 190.52 81.8124 190.835 81.8124 191.195V197H80.2014V191.195C80.2014 190.463 80.0544 189.917 79.7604 189.557C79.4664 189.197 79.0374 189.017 78.4734 189.017C78.0774 189.017 77.7114 189.125 77.3754 189.341C77.0394 189.551 76.7304 189.839 76.4484 190.205V197H74.8374ZM95.7401 191.447C95.7401 191.075 95.6861 190.736 95.5781 190.43C95.4761 190.118 95.3231 189.851 95.1191 189.629C94.9211 189.401 94.6781 189.227 94.3901 189.107C94.1021 188.981 93.7751 188.918 93.4091 188.918C92.6411 188.918 92.0321 189.143 91.5821 189.593C91.1381 190.037 90.8621 190.655 90.7541 191.447H95.7401ZM97.0361 195.722C96.8381 195.962 96.6011 196.172 96.3251 196.352C96.0491 196.526 95.7521 196.67 95.4341 196.784C95.1221 196.898 94.7981 196.982 94.4621 197.036C94.1261 197.096 93.7931 197.126 93.4631 197.126C92.8331 197.126 92.2511 197.021 91.7171 196.811C91.1891 196.595 90.7301 196.283 90.3401 195.875C89.9561 195.461 89.6561 194.951 89.4401 194.345C89.2241 193.739 89.1161 193.043 89.1161 192.257C89.1161 191.621 89.2121 191.027 89.4041 190.475C89.6021 189.923 89.8841 189.446 90.2501 189.044C90.6161 188.636 91.0631 188.318 91.5911 188.09C92.1191 187.856 92.7131 187.739 93.3731 187.739C93.9191 187.739 94.4231 187.832 94.8851 188.018C95.3531 188.198 95.7551 188.462 96.0911 188.81C96.4331 189.152 96.7001 189.578 96.8921 190.088C97.0841 190.592 97.1801 191.168 97.1801 191.816C97.1801 192.068 97.1531 192.236 97.0991 192.32C97.0451 192.404 96.9431 192.446 96.7931 192.446H90.7001C90.7181 193.022 90.7961 193.523 90.9341 193.949C91.0781 194.375 91.2761 194.732 91.5281 195.02C91.7801 195.302 92.0801 195.515 92.4281 195.659C92.7761 195.797 93.1661 195.866 93.5981 195.866C94.0001 195.866 94.3451 195.821 94.6331 195.731C94.9271 195.635 95.1791 195.533 95.3891 195.425C95.5991 195.317 95.7731 195.218 95.9111 195.128C96.0551 195.032 96.1781 194.984 96.2801 194.984C96.4121 194.984 96.5141 195.035 96.5861 195.137L97.0361 195.722ZM105.088 190.052C104.788 189.65 104.464 189.371 104.116 189.215C103.768 189.053 103.378 188.972 102.946 188.972C102.1 188.972 101.449 189.275 100.993 189.881C100.537 190.487 100.309 191.351 100.309 192.473C100.309 193.067 100.36 193.577 100.462 194.003C100.564 194.423 100.714 194.771 100.912 195.047C101.11 195.317 101.353 195.515 101.641 195.641C101.929 195.767 102.256 195.83 102.622 195.83C103.15 195.83 103.609 195.71 103.999 195.47C104.395 195.23 104.758 194.891 105.088 194.453V190.052ZM106.69 183.743V197H105.736C105.508 197 105.364 196.889 105.304 196.667L105.16 195.56C104.77 196.028 104.326 196.406 103.828 196.694C103.33 196.982 102.754 197.126 102.1 197.126C101.578 197.126 101.104 197.027 100.678 196.829C100.252 196.625 99.8889 196.328 99.5889 195.938C99.2889 195.548 99.0579 195.062 98.8959 194.48C98.7339 193.898 98.6529 193.229 98.6529 192.473C98.6529 191.801 98.7429 191.177 98.9229 190.601C99.1029 190.019 99.3609 189.515 99.6969 189.089C100.033 188.663 100.444 188.33 100.93 188.09C101.422 187.844 101.974 187.721 102.586 187.721C103.144 187.721 103.621 187.817 104.017 188.009C104.419 188.195 104.776 188.456 105.088 188.792V183.743H106.69ZM117.669 187.739C118.335 187.739 118.935 187.85 119.469 188.072C120.003 188.294 120.459 188.609 120.837 189.017C121.215 189.425 121.503 189.92 121.701 190.502C121.905 191.078 122.007 191.723 122.007 192.437C122.007 193.157 121.905 193.805 121.701 194.381C121.503 194.957 121.215 195.449 120.837 195.857C120.459 196.265 120.003 196.58 119.469 196.802C118.935 197.018 118.335 197.126 117.669 197.126C116.997 197.126 116.391 197.018 115.851 196.802C115.317 196.58 114.861 196.265 114.483 195.857C114.105 195.449 113.814 194.957 113.61 194.381C113.412 193.805 113.313 193.157 113.313 192.437C113.313 191.723 113.412 191.078 113.61 190.502C113.814 189.92 114.105 189.425 114.483 189.017C114.861 188.609 115.317 188.294 115.851 188.072C116.391 187.85 116.997 187.739 117.669 187.739ZM117.669 195.875C118.569 195.875 119.241 195.575 119.685 194.975C120.129 194.369 120.351 193.526 120.351 192.446C120.351 191.36 120.129 190.514 119.685 189.908C119.241 189.302 118.569 188.999 117.669 188.999C117.213 188.999 116.814 189.077 116.472 189.233C116.136 189.389 115.854 189.614 115.626 189.908C115.404 190.202 115.236 190.565 115.122 190.997C115.014 191.423 114.96 191.906 114.96 192.446C114.96 193.526 115.182 194.369 115.626 194.975C116.076 195.575 116.757 195.875 117.669 195.875ZM124.439 197V189.251L123.431 189.134C123.305 189.104 123.2 189.059 123.116 188.999C123.038 188.933 122.999 188.84 122.999 188.72V188.063H124.439V187.181C124.439 186.659 124.511 186.197 124.655 185.795C124.805 185.387 125.015 185.045 125.285 184.769C125.561 184.487 125.891 184.274 126.275 184.13C126.659 183.986 127.091 183.914 127.571 183.914C127.979 183.914 128.354 183.974 128.696 184.094L128.66 184.895C128.648 185.039 128.567 185.117 128.417 185.129C128.273 185.141 128.078 185.147 127.832 185.147C127.556 185.147 127.304 185.183 127.076 185.255C126.854 185.327 126.662 185.444 126.5 185.606C126.338 185.768 126.212 185.981 126.122 186.245C126.038 186.509 125.996 186.836 125.996 187.226V188.063H128.624V189.224H126.05V197H124.439ZM139.368 192.896C138.63 192.92 138 192.98 137.478 193.076C136.962 193.166 136.539 193.286 136.209 193.436C135.885 193.586 135.648 193.763 135.498 193.967C135.354 194.171 135.282 194.399 135.282 194.651C135.282 194.891 135.321 195.098 135.399 195.272C135.477 195.446 135.582 195.59 135.714 195.704C135.852 195.812 136.011 195.893 136.191 195.947C136.377 195.995 136.575 196.019 136.785 196.019C137.067 196.019 137.325 195.992 137.559 195.938C137.793 195.878 138.012 195.794 138.216 195.686C138.426 195.578 138.624 195.449 138.81 195.299C139.002 195.149 139.188 194.978 139.368 194.786V192.896ZM134.193 189.17C134.697 188.684 135.24 188.321 135.822 188.081C136.404 187.841 137.049 187.721 137.757 187.721C138.267 187.721 138.72 187.805 139.116 187.973C139.512 188.141 139.845 188.375 140.115 188.675C140.385 188.975 140.589 189.338 140.727 189.764C140.865 190.19 140.934 190.658 140.934 191.168V197H140.223C140.067 197 139.947 196.976 139.863 196.928C139.779 196.874 139.713 196.772 139.665 196.622L139.485 195.758C139.245 195.98 139.011 196.178 138.783 196.352C138.555 196.52 138.315 196.664 138.063 196.784C137.811 196.898 137.541 196.985 137.253 197.045C136.971 197.111 136.656 197.144 136.308 197.144C135.954 197.144 135.621 197.096 135.309 197C134.997 196.898 134.724 196.748 134.49 196.55C134.262 196.352 134.079 196.103 133.941 195.803C133.809 195.497 133.743 195.137 133.743 194.723C133.743 194.363 133.842 194.018 134.04 193.688C134.238 193.352 134.559 193.055 135.003 192.797C135.447 192.539 136.026 192.329 136.74 192.167C137.454 191.999 138.33 191.903 139.368 191.879V191.168C139.368 190.46 139.215 189.926 138.909 189.566C138.603 189.2 138.156 189.017 137.568 189.017C137.172 189.017 136.839 189.068 136.569 189.17C136.305 189.266 136.074 189.377 135.876 189.503C135.684 189.623 135.516 189.734 135.372 189.836C135.234 189.932 135.096 189.98 134.958 189.98C134.85 189.98 134.757 189.953 134.679 189.899C134.601 189.839 134.535 189.767 134.481 189.683L134.193 189.17ZM149.591 194.804C149.885 195.2 150.206 195.479 150.554 195.641C150.908 195.803 151.295 195.884 151.715 195.884C152.573 195.884 153.23 195.581 153.686 194.975C154.142 194.369 154.37 193.466 154.37 192.266C154.37 191.15 154.166 190.331 153.758 189.809C153.356 189.281 152.78 189.017 152.03 189.017C151.508 189.017 151.052 189.137 150.662 189.377C150.278 189.617 149.921 189.956 149.591 190.394V194.804ZM149.591 189.197C149.975 188.753 150.407 188.399 150.887 188.135C151.373 187.871 151.931 187.739 152.561 187.739C153.095 187.739 153.575 187.841 154.001 188.045C154.433 188.249 154.799 188.546 155.099 188.936C155.399 189.32 155.627 189.788 155.783 190.34C155.945 190.892 156.026 191.513 156.026 192.203C156.026 192.941 155.936 193.613 155.756 194.219C155.576 194.825 155.315 195.344 154.973 195.776C154.637 196.202 154.226 196.535 153.74 196.775C153.254 197.009 152.708 197.126 152.102 197.126C151.502 197.126 150.995 197.015 150.581 196.793C150.173 196.565 149.816 196.244 149.51 195.83L149.429 196.658C149.381 196.886 149.243 197 149.015 197H147.98V183.743H149.591V189.197ZM165.549 187.883V197H164.595C164.367 197 164.223 196.889 164.163 196.667L164.037 195.686C163.641 196.124 163.197 196.478 162.705 196.748C162.213 197.012 161.649 197.144 161.013 197.144C160.515 197.144 160.074 197.063 159.69 196.901C159.312 196.733 158.994 196.499 158.736 196.199C158.478 195.899 158.283 195.536 158.151 195.11C158.025 194.684 157.962 194.213 157.962 193.697V187.883H159.564V193.697C159.564 194.387 159.72 194.921 160.032 195.299C160.35 195.677 160.833 195.866 161.481 195.866C161.955 195.866 162.396 195.755 162.804 195.533C163.218 195.305 163.599 194.993 163.947 194.597V187.883H165.549ZM173.399 189.386C173.327 189.518 173.216 189.584 173.066 189.584C172.976 189.584 172.874 189.551 172.76 189.485C172.646 189.419 172.505 189.347 172.337 189.269C172.175 189.185 171.98 189.11 171.752 189.044C171.524 188.972 171.254 188.936 170.942 188.936C170.672 188.936 170.429 188.972 170.213 189.044C169.997 189.11 169.811 189.203 169.655 189.323C169.505 189.443 169.388 189.584 169.304 189.746C169.226 189.902 169.187 190.073 169.187 190.259C169.187 190.493 169.253 190.688 169.385 190.844C169.523 191 169.703 191.135 169.925 191.249C170.147 191.363 170.399 191.465 170.681 191.555C170.963 191.639 171.251 191.732 171.545 191.834C171.845 191.93 172.136 192.038 172.418 192.158C172.7 192.278 172.952 192.428 173.174 192.608C173.396 192.788 173.573 193.01 173.705 193.274C173.843 193.532 173.912 193.844 173.912 194.21C173.912 194.63 173.837 195.02 173.687 195.38C173.537 195.734 173.315 196.043 173.021 196.307C172.727 196.565 172.367 196.769 171.941 196.919C171.515 197.069 171.023 197.144 170.465 197.144C169.829 197.144 169.253 197.042 168.737 196.838C168.221 196.628 167.783 196.361 167.423 196.037L167.801 195.425C167.849 195.347 167.906 195.287 167.972 195.245C168.038 195.203 168.122 195.182 168.224 195.182C168.332 195.182 168.446 195.224 168.566 195.308C168.686 195.392 168.83 195.485 168.998 195.587C169.172 195.689 169.382 195.782 169.628 195.866C169.874 195.95 170.18 195.992 170.546 195.992C170.858 195.992 171.131 195.953 171.365 195.875C171.599 195.791 171.794 195.68 171.95 195.542C172.106 195.404 172.22 195.245 172.292 195.065C172.37 194.885 172.409 194.693 172.409 194.489C172.409 194.237 172.34 194.03 172.202 193.868C172.07 193.7 171.893 193.559 171.671 193.445C171.449 193.325 171.194 193.223 170.906 193.139C170.624 193.049 170.333 192.956 170.033 192.86C169.739 192.764 169.448 192.656 169.16 192.536C168.878 192.41 168.626 192.254 168.404 192.068C168.182 191.882 168.002 191.654 167.864 191.384C167.732 191.108 167.666 190.775 167.666 190.385C167.666 190.037 167.738 189.704 167.882 189.386C168.026 189.062 168.236 188.78 168.512 188.54C168.788 188.294 169.127 188.099 169.529 187.955C169.931 187.811 170.39 187.739 170.906 187.739C171.506 187.739 172.043 187.835 172.517 188.027C172.997 188.213 173.411 188.471 173.759 188.801L173.399 189.386ZM177.568 187.883V197H175.966V187.883H177.568ZM177.91 185.021C177.91 185.177 177.877 185.324 177.811 185.462C177.751 185.594 177.667 185.714 177.559 185.822C177.457 185.924 177.334 186.005 177.19 186.065C177.052 186.125 176.905 186.155 176.749 186.155C176.593 186.155 176.446 186.125 176.308 186.065C176.176 186.005 176.059 185.924 175.957 185.822C175.855 185.714 175.774 185.594 175.714 185.462C175.654 185.324 175.624 185.177 175.624 185.021C175.624 184.865 175.654 184.718 175.714 184.58C175.774 184.436 175.855 184.313 175.957 184.211C176.059 184.103 176.176 184.019 176.308 183.959C176.446 183.899 176.593 183.869 176.749 183.869C176.905 183.869 177.052 183.899 177.19 183.959C177.334 184.019 177.457 184.103 177.559 184.211C177.667 184.313 177.751 184.436 177.811 184.58C177.877 184.718 177.91 184.865 177.91 185.021ZM181.713 189.206C181.911 188.984 182.121 188.783 182.343 188.603C182.565 188.423 182.799 188.27 183.045 188.144C183.297 188.012 183.561 187.913 183.837 187.847C184.119 187.775 184.422 187.739 184.746 187.739C185.244 187.739 185.682 187.823 186.06 187.991C186.444 188.153 186.762 188.387 187.014 188.693C187.272 188.993 187.467 189.356 187.599 189.782C187.731 190.208 187.797 190.679 187.797 191.195V197H186.186V191.195C186.186 190.505 186.027 189.971 185.709 189.593C185.397 189.209 184.92 189.017 184.278 189.017C183.804 189.017 183.36 189.131 182.946 189.359C182.538 189.587 182.16 189.896 181.812 190.286V197H180.201V187.883H181.164C181.392 187.883 181.533 187.994 181.587 188.216L181.713 189.206ZM196.34 191.447C196.34 191.075 196.286 190.736 196.178 190.43C196.076 190.118 195.923 189.851 195.719 189.629C195.521 189.401 195.278 189.227 194.99 189.107C194.702 188.981 194.375 188.918 194.009 188.918C193.241 188.918 192.632 189.143 192.182 189.593C191.738 190.037 191.462 190.655 191.354 191.447H196.34ZM197.636 195.722C197.438 195.962 197.201 196.172 196.925 196.352C196.649 196.526 196.352 196.67 196.034 196.784C195.722 196.898 195.398 196.982 195.062 197.036C194.726 197.096 194.393 197.126 194.063 197.126C193.433 197.126 192.851 197.021 192.317 196.811C191.789 196.595 191.33 196.283 190.94 195.875C190.556 195.461 190.256 194.951 190.04 194.345C189.824 193.739 189.716 193.043 189.716 192.257C189.716 191.621 189.812 191.027 190.004 190.475C190.202 189.923 190.484 189.446 190.85 189.044C191.216 188.636 191.663 188.318 192.191 188.09C192.719 187.856 193.313 187.739 193.973 187.739C194.519 187.739 195.023 187.832 195.485 188.018C195.953 188.198 196.355 188.462 196.691 188.81C197.033 189.152 197.3 189.578 197.492 190.088C197.684 190.592 197.78 191.168 197.78 191.816C197.78 192.068 197.753 192.236 197.699 192.32C197.645 192.404 197.543 192.446 197.393 192.446H191.3C191.318 193.022 191.396 193.523 191.534 193.949C191.678 194.375 191.876 194.732 192.128 195.02C192.38 195.302 192.68 195.515 193.028 195.659C193.376 195.797 193.766 195.866 194.198 195.866C194.6 195.866 194.945 195.821 195.233 195.731C195.527 195.635 195.779 195.533 195.989 195.425C196.199 195.317 196.373 195.218 196.511 195.128C196.655 195.032 196.778 194.984 196.88 194.984C197.012 194.984 197.114 195.035 197.186 195.137L197.636 195.722ZM205.058 189.386C204.986 189.518 204.875 189.584 204.725 189.584C204.635 189.584 204.533 189.551 204.419 189.485C204.305 189.419 204.164 189.347 203.996 189.269C203.834 189.185 203.639 189.11 203.411 189.044C203.183 188.972 202.913 188.936 202.601 188.936C202.331 188.936 202.088 188.972 201.872 189.044C201.656 189.11 201.47 189.203 201.314 189.323C201.164 189.443 201.047 189.584 200.963 189.746C200.885 189.902 200.846 190.073 200.846 190.259C200.846 190.493 200.912 190.688 201.044 190.844C201.182 191 201.362 191.135 201.584 191.249C201.806 191.363 202.058 191.465 202.34 191.555C202.622 191.639 202.91 191.732 203.204 191.834C203.504 191.93 203.795 192.038 204.077 192.158C204.359 192.278 204.611 192.428 204.833 192.608C205.055 192.788 205.232 193.01 205.364 193.274C205.502 193.532 205.571 193.844 205.571 194.21C205.571 194.63 205.496 195.02 205.346 195.38C205.196 195.734 204.974 196.043 204.68 196.307C204.386 196.565 204.026 196.769 203.6 196.919C203.174 197.069 202.682 197.144 202.124 197.144C201.488 197.144 200.912 197.042 200.396 196.838C199.88 196.628 199.442 196.361 199.082 196.037L199.46 195.425C199.508 195.347 199.565 195.287 199.631 195.245C199.697 195.203 199.781 195.182 199.883 195.182C199.991 195.182 200.105 195.224 200.225 195.308C200.345 195.392 200.489 195.485 200.657 195.587C200.831 195.689 201.041 195.782 201.287 195.866C201.533 195.95 201.839 195.992 202.205 195.992C202.517 195.992 202.79 195.953 203.024 195.875C203.258 195.791 203.453 195.68 203.609 195.542C203.765 195.404 203.879 195.245 203.951 195.065C204.029 194.885 204.068 194.693 204.068 194.489C204.068 194.237 203.999 194.03 203.861 193.868C203.729 193.7 203.552 193.559 203.33 193.445C203.108 193.325 202.853 193.223 202.565 193.139C202.283 193.049 201.992 192.956 201.692 192.86C201.398 192.764 201.107 192.656 200.819 192.536C200.537 192.41 200.285 192.254 200.063 192.068C199.841 191.882 199.661 191.654 199.523 191.384C199.391 191.108 199.325 190.775 199.325 190.385C199.325 190.037 199.397 189.704 199.541 189.386C199.685 189.062 199.895 188.78 200.171 188.54C200.447 188.294 200.786 188.099 201.188 187.955C201.59 187.811 202.049 187.739 202.565 187.739C203.165 187.739 203.702 187.835 204.176 188.027C204.656 188.213 205.07 188.471 205.418 188.801L205.058 189.386ZM212.845 189.386C212.773 189.518 212.662 189.584 212.512 189.584C212.422 189.584 212.32 189.551 212.206 189.485C212.092 189.419 211.951 189.347 211.783 189.269C211.621 189.185 211.426 189.11 211.198 189.044C210.97 188.972 210.7 188.936 210.388 188.936C210.118 188.936 209.875 188.972 209.659 189.044C209.443 189.11 209.257 189.203 209.101 189.323C208.951 189.443 208.834 189.584 208.75 189.746C208.672 189.902 208.633 190.073 208.633 190.259C208.633 190.493 208.699 190.688 208.831 190.844C208.969 191 209.149 191.135 209.371 191.249C209.593 191.363 209.845 191.465 210.127 191.555C210.409 191.639 210.697 191.732 210.991 191.834C211.291 191.93 211.582 192.038 211.864 192.158C212.146 192.278 212.398 192.428 212.62 192.608C212.842 192.788 213.019 193.01 213.151 193.274C213.289 193.532 213.358 193.844 213.358 194.21C213.358 194.63 213.283 195.02 213.133 195.38C212.983 195.734 212.761 196.043 212.467 196.307C212.173 196.565 211.813 196.769 211.387 196.919C210.961 197.069 210.469 197.144 209.911 197.144C209.275 197.144 208.699 197.042 208.183 196.838C207.667 196.628 207.229 196.361 206.869 196.037L207.247 195.425C207.295 195.347 207.352 195.287 207.418 195.245C207.484 195.203 207.568 195.182 207.67 195.182C207.778 195.182 207.892 195.224 208.012 195.308C208.132 195.392 208.276 195.485 208.444 195.587C208.618 195.689 208.828 195.782 209.074 195.866C209.32 195.95 209.626 195.992 209.992 195.992C210.304 195.992 210.577 195.953 210.811 195.875C211.045 195.791 211.24 195.68 211.396 195.542C211.552 195.404 211.666 195.245 211.738 195.065C211.816 194.885 211.855 194.693 211.855 194.489C211.855 194.237 211.786 194.03 211.648 193.868C211.516 193.7 211.339 193.559 211.117 193.445C210.895 193.325 210.64 193.223 210.352 193.139C210.07 193.049 209.779 192.956 209.479 192.86C209.185 192.764 208.894 192.656 208.606 192.536C208.324 192.41 208.072 192.254 207.85 192.068C207.628 191.882 207.448 191.654 207.31 191.384C207.178 191.108 207.112 190.775 207.112 190.385C207.112 190.037 207.184 189.704 207.328 189.386C207.472 189.062 207.682 188.78 207.958 188.54C208.234 188.294 208.573 188.099 208.975 187.955C209.377 187.811 209.836 187.739 210.352 187.739C210.952 187.739 211.489 187.835 211.963 188.027C212.443 188.213 212.857 188.471 213.205 188.801L212.845 189.386ZM216.306 183.239C216.558 183.665 216.729 184.115 216.819 184.589C216.909 185.063 216.918 185.531 216.846 185.993C216.774 186.455 216.624 186.899 216.396 187.325C216.168 187.751 215.865 188.129 215.487 188.459L215.001 188.144C214.911 188.09 214.869 188.021 214.875 187.937C214.887 187.847 214.917 187.775 214.965 187.721C215.121 187.529 215.253 187.298 215.361 187.028C215.475 186.752 215.547 186.458 215.577 186.146C215.613 185.828 215.598 185.501 215.532 185.165C215.472 184.829 215.349 184.505 215.163 184.193C215.085 184.067 215.061 183.956 215.091 183.86C215.127 183.758 215.202 183.683 215.316 183.635L216.306 183.239ZM74.4445 228.804C74.7385 229.2 75.0595 229.479 75.4075 229.641C75.7555 229.803 76.1455 229.884 76.5775 229.884C77.4295 229.884 78.0835 229.581 78.5395 228.975C78.9955 228.369 79.2235 227.505 79.2235 226.383C79.2235 225.789 79.1695 225.279 79.0615 224.853C78.9595 224.427 78.8095 224.079 78.6115 223.809C78.4135 223.533 78.1705 223.332 77.8825 223.206C77.5945 223.08 77.2675 223.017 76.9015 223.017C76.3795 223.017 75.9205 223.137 75.5245 223.377C75.1345 223.617 74.7745 223.956 74.4445 224.394V228.804ZM74.3635 223.296C74.7475 222.822 75.1915 222.441 75.6955 222.153C76.1995 221.865 76.7755 221.721 77.4235 221.721C77.9515 221.721 78.4285 221.823 78.8545 222.027C79.2805 222.225 79.6435 222.522 79.9435 222.918C80.2435 223.308 80.4745 223.794 80.6365 224.376C80.7985 224.958 80.8795 225.627 80.8795 226.383C80.8795 227.055 80.7895 227.682 80.6095 228.264C80.4295 228.84 80.1685 229.341 79.8265 229.767C79.4905 230.187 79.0765 230.52 78.5845 230.766C78.0985 231.006 77.5495 231.126 76.9375 231.126C76.3795 231.126 75.8995 231.033 75.4975 230.847C75.1015 230.655 74.7505 230.391 74.4445 230.055V234.087H72.8335V221.883H73.7965C74.0245 221.883 74.1655 221.994 74.2195 222.216L74.3635 223.296ZM89.0253 225.447C89.0253 225.075 88.9713 224.736 88.8633 224.43C88.7613 224.118 88.6083 223.851 88.4043 223.629C88.2063 223.401 87.9633 223.227 87.6753 223.107C87.3873 222.981 87.0603 222.918 86.6943 222.918C85.9263 222.918 85.3173 223.143 84.8673 223.593C84.4233 224.037 84.1473 224.655 84.0393 225.447H89.0253ZM90.3213 229.722C90.1233 229.962 89.8863 230.172 89.6103 230.352C89.3343 230.526 89.0373 230.67 88.7193 230.784C88.4073 230.898 88.0833 230.982 87.7473 231.036C87.4113 231.096 87.0783 231.126 86.7483 231.126C86.1183 231.126 85.5363 231.021 85.0023 230.811C84.4743 230.595 84.0153 230.283 83.6253 229.875C83.2413 229.461 82.9413 228.951 82.7253 228.345C82.5093 227.739 82.4013 227.043 82.4013 226.257C82.4013 225.621 82.4973 225.027 82.6893 224.475C82.8873 223.923 83.1693 223.446 83.5353 223.044C83.9013 222.636 84.3483 222.318 84.8763 222.09C85.4043 221.856 85.9983 221.739 86.6583 221.739C87.2043 221.739 87.7083 221.832 88.1703 222.018C88.6383 222.198 89.0403 222.462 89.3763 222.81C89.7183 223.152 89.9853 223.578 90.1773 224.088C90.3693 224.592 90.4653 225.168 90.4653 225.816C90.4653 226.068 90.4383 226.236 90.3843 226.32C90.3303 226.404 90.2283 226.446 90.0783 226.446H83.9853C84.0033 227.022 84.0813 227.523 84.2193 227.949C84.3633 228.375 84.5613 228.732 84.8133 229.02C85.0653 229.302 85.3653 229.515 85.7133 229.659C86.0613 229.797 86.4513 229.866 86.8833 229.866C87.2853 229.866 87.6303 229.821 87.9183 229.731C88.2123 229.635 88.4643 229.533 88.6743 229.425C88.8843 229.317 89.0583 229.218 89.1963 229.128C89.3403 229.032 89.4633 228.984 89.5653 228.984C89.6973 228.984 89.7993 229.035 89.8713 229.137L90.3213 229.722ZM97.3741 226.896C96.6361 226.92 96.0061 226.98 95.4841 227.076C94.9681 227.166 94.5451 227.286 94.2151 227.436C93.8911 227.586 93.6541 227.763 93.5041 227.967C93.3601 228.171 93.2881 228.399 93.2881 228.651C93.2881 228.891 93.3271 229.098 93.4051 229.272C93.4831 229.446 93.5881 229.59 93.7201 229.704C93.8581 229.812 94.0171 229.893 94.1971 229.947C94.3831 229.995 94.5811 230.019 94.7911 230.019C95.0731 230.019 95.3311 229.992 95.5651 229.938C95.7991 229.878 96.0181 229.794 96.2221 229.686C96.4321 229.578 96.6301 229.449 96.8161 229.299C97.0081 229.149 97.1941 228.978 97.3741 228.786V226.896ZM92.1991 223.17C92.7031 222.684 93.2461 222.321 93.8281 222.081C94.4101 221.841 95.0551 221.721 95.7631 221.721C96.2731 221.721 96.7261 221.805 97.1221 221.973C97.5181 222.141 97.8511 222.375 98.1211 222.675C98.3911 222.975 98.5951 223.338 98.7331 223.764C98.8711 224.19 98.9401 224.658 98.9401 225.168V231H98.2291C98.0731 231 97.9531 230.976 97.8691 230.928C97.7851 230.874 97.7191 230.772 97.6711 230.622L97.4911 229.758C97.2511 229.98 97.0171 230.178 96.7891 230.352C96.5611 230.52 96.3211 230.664 96.0691 230.784C95.8171 230.898 95.5471 230.985 95.2591 231.045C94.9771 231.111 94.6621 231.144 94.3141 231.144C93.9601 231.144 93.6271 231.096 93.3151 231C93.0031 230.898 92.7301 230.748 92.4961 230.55C92.2681 230.352 92.0851 230.103 91.9471 229.803C91.8151 229.497 91.7491 229.137 91.7491 228.723C91.7491 228.363 91.8481 228.018 92.0461 227.688C92.2441 227.352 92.5651 227.055 93.0091 226.797C93.4531 226.539 94.0321 226.329 94.7461 226.167C95.4601 225.999 96.3361 225.903 97.3741 225.879V225.168C97.3741 224.46 97.2211 223.926 96.9151 223.566C96.6091 223.2 96.1621 223.017 95.5741 223.017C95.1781 223.017 94.8451 223.068 94.5751 223.17C94.3111 223.266 94.0801 223.377 93.8821 223.503C93.6901 223.623 93.5221 223.734 93.3781 223.836C93.2401 223.932 93.1021 223.98 92.9641 223.98C92.8561 223.98 92.7631 223.953 92.6851 223.899C92.6071 223.839 92.5411 223.767 92.4871 223.683L92.1991 223.17ZM102.991 217.743V225.546H103.405C103.525 225.546 103.624 225.531 103.702 225.501C103.786 225.465 103.873 225.396 103.963 225.294L106.843 222.207C106.927 222.105 107.014 222.027 107.104 221.973C107.2 221.913 107.326 221.883 107.482 221.883H108.931L105.574 225.456C105.412 225.66 105.238 225.819 105.052 225.933C105.16 226.005 105.256 226.089 105.34 226.185C105.43 226.275 105.514 226.38 105.592 226.5L109.156 231H107.725C107.587 231 107.467 230.979 107.365 230.937C107.269 230.889 107.185 230.805 107.113 230.685L104.116 226.95C104.026 226.824 103.936 226.743 103.846 226.707C103.762 226.665 103.63 226.644 103.45 226.644H102.991V231H101.38V217.743H102.991ZM116.737 223.098C117.127 222.684 117.559 222.354 118.033 222.108C118.507 221.862 119.053 221.739 119.671 221.739C120.169 221.739 120.607 221.823 120.985 221.991C121.369 222.153 121.687 222.387 121.939 222.693C122.197 222.993 122.392 223.356 122.524 223.782C122.656 224.208 122.722 224.679 122.722 225.195V231H121.111V225.195C121.111 224.505 120.952 223.971 120.634 223.593C120.322 223.209 119.845 223.017 119.203 223.017C118.729 223.017 118.285 223.131 117.871 223.359C117.463 223.587 117.085 223.896 116.737 224.286V231H115.126V217.743H116.737V223.098ZM129.007 221.739C129.673 221.739 130.273 221.85 130.807 222.072C131.341 222.294 131.797 222.609 132.175 223.017C132.553 223.425 132.841 223.92 133.039 224.502C133.243 225.078 133.345 225.723 133.345 226.437C133.345 227.157 133.243 227.805 133.039 228.381C132.841 228.957 132.553 229.449 132.175 229.857C131.797 230.265 131.341 230.58 130.807 230.802C130.273 231.018 129.673 231.126 129.007 231.126C128.335 231.126 127.729 231.018 127.189 230.802C126.655 230.58 126.199 230.265 125.821 229.857C125.443 229.449 125.152 228.957 124.948 228.381C124.75 227.805 124.651 227.157 124.651 226.437C124.651 225.723 124.75 225.078 124.948 224.502C125.152 223.92 125.443 223.425 125.821 223.017C126.199 222.609 126.655 222.294 127.189 222.072C127.729 221.85 128.335 221.739 129.007 221.739ZM129.007 229.875C129.907 229.875 130.579 229.575 131.023 228.975C131.467 228.369 131.689 227.526 131.689 226.446C131.689 225.36 131.467 224.514 131.023 223.908C130.579 223.302 129.907 222.999 129.007 222.999C128.551 222.999 128.152 223.077 127.81 223.233C127.474 223.389 127.192 223.614 126.964 223.908C126.742 224.202 126.574 224.565 126.46 224.997C126.352 225.423 126.298 225.906 126.298 226.446C126.298 227.526 126.52 228.369 126.964 228.975C127.414 229.575 128.095 229.875 129.007 229.875ZM142.873 221.883V231H141.919C141.691 231 141.547 230.889 141.487 230.667L141.361 229.686C140.965 230.124 140.521 230.478 140.029 230.748C139.537 231.012 138.973 231.144 138.337 231.144C137.839 231.144 137.398 231.063 137.014 230.901C136.636 230.733 136.318 230.499 136.06 230.199C135.802 229.899 135.607 229.536 135.475 229.11C135.349 228.684 135.286 228.213 135.286 227.697V221.883H136.888V227.697C136.888 228.387 137.044 228.921 137.356 229.299C137.674 229.677 138.157 229.866 138.805 229.866C139.279 229.866 139.72 229.755 140.128 229.533C140.542 229.305 140.923 228.993 141.271 228.597V221.883H142.873ZM146.935 223.71C147.223 223.086 147.577 222.6 147.997 222.252C148.417 221.898 148.93 221.721 149.536 221.721C149.728 221.721 149.911 221.742 150.085 221.784C150.265 221.826 150.424 221.892 150.562 221.982L150.445 223.179C150.409 223.329 150.319 223.404 150.175 223.404C150.091 223.404 149.968 223.386 149.806 223.35C149.644 223.314 149.461 223.296 149.257 223.296C148.969 223.296 148.711 223.338 148.483 223.422C148.261 223.506 148.06 223.632 147.88 223.8C147.706 223.962 147.547 224.166 147.403 224.412C147.265 224.652 147.139 224.928 147.025 225.24V231H145.414V221.883H146.332C146.506 221.883 146.626 221.916 146.692 221.982C146.758 222.048 146.803 222.162 146.827 222.324L146.935 223.71ZM157.227 223.386C157.155 223.518 157.044 223.584 156.894 223.584C156.804 223.584 156.702 223.551 156.588 223.485C156.474 223.419 156.333 223.347 156.165 223.269C156.003 223.185 155.808 223.11 155.58 223.044C155.352 222.972 155.082 222.936 154.77 222.936C154.5 222.936 154.257 222.972 154.041 223.044C153.825 223.11 153.639 223.203 153.483 223.323C153.333 223.443 153.216 223.584 153.132 223.746C153.054 223.902 153.015 224.073 153.015 224.259C153.015 224.493 153.081 224.688 153.213 224.844C153.351 225 153.531 225.135 153.753 225.249C153.975 225.363 154.227 225.465 154.509 225.555C154.791 225.639 155.079 225.732 155.373 225.834C155.673 225.93 155.964 226.038 156.246 226.158C156.528 226.278 156.78 226.428 157.002 226.608C157.224 226.788 157.401 227.01 157.533 227.274C157.671 227.532 157.74 227.844 157.74 228.21C157.74 228.63 157.665 229.02 157.515 229.38C157.365 229.734 157.143 230.043 156.849 230.307C156.555 230.565 156.195 230.769 155.769 230.919C155.343 231.069 154.851 231.144 154.293 231.144C153.657 231.144 153.081 231.042 152.565 230.838C152.049 230.628 151.611 230.361 151.251 230.037L151.629 229.425C151.677 229.347 151.734 229.287 151.8 229.245C151.866 229.203 151.95 229.182 152.052 229.182C152.16 229.182 152.274 229.224 152.394 229.308C152.514 229.392 152.658 229.485 152.826 229.587C153 229.689 153.21 229.782 153.456 229.866C153.702 229.95 154.008 229.992 154.374 229.992C154.686 229.992 154.959 229.953 155.193 229.875C155.427 229.791 155.622 229.68 155.778 229.542C155.934 229.404 156.048 229.245 156.12 229.065C156.198 228.885 156.237 228.693 156.237 228.489C156.237 228.237 156.168 228.03 156.03 227.868C155.898 227.7 155.721 227.559 155.499 227.445C155.277 227.325 155.022 227.223 154.734 227.139C154.452 227.049 154.161 226.956 153.861 226.86C153.567 226.764 153.276 226.656 152.988 226.536C152.706 226.41 152.454 226.254 152.232 226.068C152.01 225.882 151.83 225.654 151.692 225.384C151.56 225.108 151.494 224.775 151.494 224.385C151.494 224.037 151.566 223.704 151.71 223.386C151.854 223.062 152.064 222.78 152.34 222.54C152.616 222.294 152.955 222.099 153.357 221.955C153.759 221.811 154.218 221.739 154.734 221.739C155.334 221.739 155.871 221.835 156.345 222.027C156.825 222.213 157.239 222.471 157.587 222.801L157.227 223.386Z" fill="black"/>
</svg>
