<svg width="230" height="241" viewBox="0 0 230 241" fill="none" xmlns="http://www.w3.org/2000/svg">
<path d="M134.444 18H95.5556C92.4873 18 90 20.4873 90 23.5556V62.4444C90 65.5127 92.4873 68 95.5556 68H134.444C137.513 68 140 65.5127 140 62.4444V23.5556C140 20.4873 137.513 18 134.444 18Z" stroke="#1E38C1" stroke-width="5" stroke-linecap="round" stroke-linejoin="round"/>
<path d="M126 12V23" stroke="#1E38C1" stroke-width="5" stroke-linecap="round" stroke-linejoin="round"/>
<path d="M104 12V23" stroke="#1E38C1" stroke-width="5" stroke-linecap="round" stroke-linejoin="round"/>
<path d="M90 34H140" stroke="#1E38C1" stroke-width="5" stroke-linecap="round" stroke-linejoin="round"/>
<rect x="91" y="35" width="48" height="31" fill="#1E38C1"/>
<path d="M96 39H100" stroke="white" stroke-width="2" stroke-linecap="round" stroke-linejoin="round"/>
<path d="M107 39H111" stroke="white" stroke-width="2" stroke-linecap="round" stroke-linejoin="round"/>
<path d="M118 39H123" stroke="white" stroke-width="2" stroke-linecap="round" stroke-linejoin="round"/>
<path d="M129 39H134" stroke="white" stroke-width="2" stroke-linecap="round" stroke-linejoin="round"/>
<path d="M96 49H100" stroke="white" stroke-width="2" stroke-linecap="round" stroke-linejoin="round"/>
<path d="M107 49H111" stroke="white" stroke-width="2" stroke-linecap="round" stroke-linejoin="round"/>
<path d="M118 49H123" stroke="white" stroke-width="2" stroke-linecap="round" stroke-linejoin="round"/>
<path d="M129 49H134" stroke="white" stroke-width="2" stroke-linecap="round" stroke-linejoin="round"/>
<path d="M96 60H100" stroke="white" stroke-width="2" stroke-linecap="round" stroke-linejoin="round"/>
<path d="M107 60H111" stroke="white" stroke-width="2" stroke-linecap="round" stroke-linejoin="round"/>
<path d="M118 60H123" stroke="white" stroke-width="2" stroke-linecap="round" stroke-linejoin="round"/>
<path d="M129 60H134" stroke="white" stroke-width="2" stroke-linecap="round" stroke-linejoin="round"/>
<path d="M51.563 102.556C51.563 103.522 51.41 104.41 51.104 105.22C50.798 106.024 50.366 106.717 49.808 107.299C49.25 107.881 48.578 108.334 47.792 108.658C47.012 108.976 46.148 109.135 45.2 109.135C44.252 109.135 43.388 108.976 42.608 108.658C41.828 108.334 41.159 107.881 40.601 107.299C40.043 106.717 39.611 106.024 39.305 105.22C38.999 104.41 38.846 103.522 38.846 102.556C38.846 101.59 38.999 100.705 39.305 99.901C39.611 99.091 40.043 98.395 40.601 97.813C41.159 97.225 41.828 96.769 42.608 96.445C43.388 96.121 44.252 95.959 45.2 95.959C46.148 95.959 47.012 96.121 47.792 96.445C48.578 96.769 49.25 97.225 49.808 97.813C50.366 98.395 50.798 99.091 51.104 99.901C51.41 100.705 51.563 101.59 51.563 102.556ZM49.772 102.556C49.772 101.764 49.664 101.053 49.448 100.423C49.232 99.793 48.926 99.262 48.53 98.83C48.134 98.392 47.654 98.056 47.09 97.822C46.526 97.588 45.896 97.471 45.2 97.471C44.51 97.471 43.883 97.588 43.319 97.822C42.755 98.056 42.272 98.392 41.87 98.83C41.474 99.262 41.168 99.793 40.952 100.423C40.736 101.053 40.628 101.764 40.628 102.556C40.628 103.348 40.736 104.059 40.952 104.689C41.168 105.313 41.474 105.844 41.87 106.282C42.272 106.714 42.755 107.047 43.319 107.281C43.883 107.509 44.51 107.623 45.2 107.623C45.896 107.623 46.526 107.509 47.09 107.281C47.654 107.047 48.134 106.714 48.53 106.282C48.926 105.844 49.232 105.313 49.448 104.689C49.664 104.059 49.772 103.348 49.772 102.556ZM55.0193 101.206C55.2173 100.984 55.4273 100.783 55.6493 100.603C55.8713 100.423 56.1053 100.27 56.3513 100.144C56.6033 100.012 56.8673 99.913 57.1433 99.847C57.4253 99.775 57.7283 99.739 58.0523 99.739C58.5503 99.739 58.9883 99.823 59.3663 99.991C59.7503 100.153 60.0683 100.387 60.3203 100.693C60.5783 100.993 60.7733 101.356 60.9053 101.782C61.0373 102.208 61.1033 102.679 61.1033 103.195V109H59.4923V103.195C59.4923 102.505 59.3333 101.971 59.0153 101.593C58.7033 101.209 58.2263 101.017 57.5843 101.017C57.1103 101.017 56.6663 101.131 56.2523 101.359C55.8443 101.587 55.4663 101.896 55.1183 102.286V109H53.5073V99.883H54.4703C54.6983 99.883 54.8393 99.994 54.8933 100.216L55.0193 101.206ZM65.2004 95.743V109H63.5984V95.743H65.2004ZM69.4903 99.883V109H67.8883V99.883H69.4903ZM69.8323 97.021C69.8323 97.177 69.7993 97.324 69.7333 97.462C69.6733 97.594 69.5893 97.714 69.4813 97.822C69.3793 97.924 69.2563 98.005 69.1123 98.065C68.9743 98.125 68.8273 98.155 68.6713 98.155C68.5153 98.155 68.3683 98.125 68.2303 98.065C68.0983 98.005 67.9813 97.924 67.8793 97.822C67.7773 97.714 67.6963 97.594 67.6363 97.462C67.5763 97.324 67.5463 97.177 67.5463 97.021C67.5463 96.865 67.5763 96.718 67.6363 96.58C67.6963 96.436 67.7773 96.313 67.8793 96.211C67.9813 96.103 68.0983 96.019 68.2303 95.959C68.3683 95.899 68.5153 95.869 68.6713 95.869C68.8273 95.869 68.9743 95.899 69.1123 95.959C69.2563 96.019 69.3793 96.103 69.4813 96.211C69.5893 96.313 69.6733 96.436 69.7333 96.58C69.7993 96.718 69.8323 96.865 69.8323 97.021ZM73.6345 101.206C73.8325 100.984 74.0425 100.783 74.2645 100.603C74.4865 100.423 74.7205 100.27 74.9665 100.144C75.2185 100.012 75.4825 99.913 75.7585 99.847C76.0405 99.775 76.3435 99.739 76.6675 99.739C77.1655 99.739 77.6035 99.823 77.9815 99.991C78.3655 100.153 78.6835 100.387 78.9355 100.693C79.1935 100.993 79.3885 101.356 79.5205 101.782C79.6525 102.208 79.7185 102.679 79.7185 103.195V109H78.1075V103.195C78.1075 102.505 77.9485 101.971 77.6305 101.593C77.3185 101.209 76.8415 101.017 76.1995 101.017C75.7255 101.017 75.2815 101.131 74.8675 101.359C74.4595 101.587 74.0815 101.896 73.7335 102.286V109H72.1225V99.883H73.0855C73.3135 99.883 73.4545 99.994 73.5085 100.216L73.6345 101.206ZM88.2616 103.447C88.2616 103.075 88.2076 102.736 88.0996 102.43C87.9976 102.118 87.8446 101.851 87.6406 101.629C87.4426 101.401 87.1996 101.227 86.9116 101.107C86.6236 100.981 86.2966 100.918 85.9306 100.918C85.1626 100.918 84.5536 101.143 84.1036 101.593C83.6596 102.037 83.3836 102.655 83.2756 103.447H88.2616ZM89.5576 107.722C89.3596 107.962 89.1226 108.172 88.8466 108.352C88.5706 108.526 88.2736 108.67 87.9556 108.784C87.6436 108.898 87.3196 108.982 86.9836 109.036C86.6476 109.096 86.3146 109.126 85.9846 109.126C85.3546 109.126 84.7726 109.021 84.2386 108.811C83.7106 108.595 83.2516 108.283 82.8616 107.875C82.4776 107.461 82.1776 106.951 81.9616 106.345C81.7456 105.739 81.6376 105.043 81.6376 104.257C81.6376 103.621 81.7336 103.027 81.9256 102.475C82.1236 101.923 82.4056 101.446 82.7716 101.044C83.1376 100.636 83.5846 100.318 84.1126 100.09C84.6406 99.856 85.2346 99.739 85.8946 99.739C86.4406 99.739 86.9446 99.832 87.4066 100.018C87.8746 100.198 88.2766 100.462 88.6126 100.81C88.9546 101.152 89.2216 101.578 89.4136 102.088C89.6056 102.592 89.7016 103.168 89.7016 103.816C89.7016 104.068 89.6746 104.236 89.6206 104.32C89.5666 104.404 89.4646 104.446 89.3146 104.446H83.2216C83.2396 105.022 83.3176 105.523 83.4556 105.949C83.5996 106.375 83.7976 106.732 84.0496 107.02C84.3016 107.302 84.6016 107.515 84.9496 107.659C85.2976 107.797 85.6876 107.866 86.1196 107.866C86.5216 107.866 86.8666 107.821 87.1546 107.731C87.4486 107.635 87.7006 107.533 87.9106 107.425C88.1206 107.317 88.2946 107.218 88.4326 107.128C88.5766 107.032 88.6996 106.984 88.8016 106.984C88.9336 106.984 89.0356 107.035 89.1076 107.137L89.5576 107.722ZM97.7959 101.71C98.0839 101.086 98.4379 100.6 98.8579 100.252C99.2779 99.898 99.7909 99.721 100.397 99.721C100.589 99.721 100.772 99.742 100.946 99.784C101.126 99.826 101.285 99.892 101.423 99.982L101.306 101.179C101.27 101.329 101.18 101.404 101.036 101.404C100.952 101.404 100.829 101.386 100.667 101.35C100.505 101.314 100.322 101.296 100.118 101.296C99.8299 101.296 99.5719 101.338 99.3439 101.422C99.1219 101.506 98.9209 101.632 98.7409 101.8C98.5669 101.962 98.4079 102.166 98.2639 102.412C98.1259 102.652 97.9999 102.928 97.8859 103.24V109H96.2749V99.883H97.1929C97.3669 99.883 97.4869 99.916 97.5529 99.982C97.6189 100.048 97.6639 100.162 97.6879 100.324L97.7959 101.71ZM108.564 103.447C108.564 103.075 108.51 102.736 108.402 102.43C108.3 102.118 108.147 101.851 107.943 101.629C107.745 101.401 107.502 101.227 107.214 101.107C106.926 100.981 106.599 100.918 106.233 100.918C105.465 100.918 104.856 101.143 104.406 101.593C103.962 102.037 103.686 102.655 103.578 103.447H108.564ZM109.86 107.722C109.662 107.962 109.425 108.172 109.149 108.352C108.873 108.526 108.576 108.67 108.258 108.784C107.946 108.898 107.622 108.982 107.286 109.036C106.95 109.096 106.617 109.126 106.287 109.126C105.657 109.126 105.075 109.021 104.541 108.811C104.013 108.595 103.554 108.283 103.164 107.875C102.78 107.461 102.48 106.951 102.264 106.345C102.048 105.739 101.94 105.043 101.94 104.257C101.94 103.621 102.036 103.027 102.228 102.475C102.426 101.923 102.708 101.446 103.074 101.044C103.44 100.636 103.887 100.318 104.415 100.09C104.943 99.856 105.537 99.739 106.197 99.739C106.743 99.739 107.247 99.832 107.709 100.018C108.177 100.198 108.579 100.462 108.915 100.81C109.257 101.152 109.524 101.578 109.716 102.088C109.908 102.592 110.004 103.168 110.004 103.816C110.004 104.068 109.977 104.236 109.923 104.32C109.869 104.404 109.767 104.446 109.617 104.446H103.524C103.542 105.022 103.62 105.523 103.758 105.949C103.902 106.375 104.1 106.732 104.352 107.02C104.604 107.302 104.904 107.515 105.252 107.659C105.6 107.797 105.99 107.866 106.422 107.866C106.824 107.866 107.169 107.821 107.457 107.731C107.751 107.635 108.003 107.533 108.213 107.425C108.423 107.317 108.597 107.218 108.735 107.128C108.879 107.032 109.002 106.984 109.104 106.984C109.236 106.984 109.338 107.035 109.41 107.137L109.86 107.722ZM117.282 101.386C117.21 101.518 117.099 101.584 116.949 101.584C116.859 101.584 116.757 101.551 116.643 101.485C116.529 101.419 116.388 101.347 116.22 101.269C116.058 101.185 115.863 101.11 115.635 101.044C115.407 100.972 115.137 100.936 114.825 100.936C114.555 100.936 114.312 100.972 114.096 101.044C113.88 101.11 113.694 101.203 113.538 101.323C113.388 101.443 113.271 101.584 113.187 101.746C113.109 101.902 113.07 102.073 113.07 102.259C113.07 102.493 113.136 102.688 113.268 102.844C113.406 103 113.586 103.135 113.808 103.249C114.03 103.363 114.282 103.465 114.564 103.555C114.846 103.639 115.134 103.732 115.428 103.834C115.728 103.93 116.019 104.038 116.301 104.158C116.583 104.278 116.835 104.428 117.057 104.608C117.279 104.788 117.456 105.01 117.588 105.274C117.726 105.532 117.795 105.844 117.795 106.21C117.795 106.63 117.72 107.02 117.57 107.38C117.42 107.734 117.198 108.043 116.904 108.307C116.61 108.565 116.25 108.769 115.824 108.919C115.398 109.069 114.906 109.144 114.348 109.144C113.712 109.144 113.136 109.042 112.62 108.838C112.104 108.628 111.666 108.361 111.306 108.037L111.684 107.425C111.732 107.347 111.789 107.287 111.855 107.245C111.921 107.203 112.005 107.182 112.107 107.182C112.215 107.182 112.329 107.224 112.449 107.308C112.569 107.392 112.713 107.485 112.881 107.587C113.055 107.689 113.265 107.782 113.511 107.866C113.757 107.95 114.063 107.992 114.429 107.992C114.741 107.992 115.014 107.953 115.248 107.875C115.482 107.791 115.677 107.68 115.833 107.542C115.989 107.404 116.103 107.245 116.175 107.065C116.253 106.885 116.292 106.693 116.292 106.489C116.292 106.237 116.223 106.03 116.085 105.868C115.953 105.7 115.776 105.559 115.554 105.445C115.332 105.325 115.077 105.223 114.789 105.139C114.507 105.049 114.216 104.956 113.916 104.86C113.622 104.764 113.331 104.656 113.043 104.536C112.761 104.41 112.509 104.254 112.287 104.068C112.065 103.882 111.885 103.654 111.747 103.384C111.615 103.108 111.549 102.775 111.549 102.385C111.549 102.037 111.621 101.704 111.765 101.386C111.909 101.062 112.119 100.78 112.395 100.54C112.671 100.294 113.01 100.099 113.412 99.955C113.814 99.811 114.273 99.739 114.789 99.739C115.389 99.739 115.926 99.835 116.4 100.027C116.88 100.213 117.294 100.471 117.642 100.801L117.282 101.386ZM125.861 103.447C125.861 103.075 125.807 102.736 125.699 102.43C125.597 102.118 125.444 101.851 125.24 101.629C125.042 101.401 124.799 101.227 124.511 101.107C124.223 100.981 123.896 100.918 123.53 100.918C122.762 100.918 122.153 101.143 121.703 101.593C121.259 102.037 120.983 102.655 120.875 103.447H125.861ZM127.157 107.722C126.959 107.962 126.722 108.172 126.446 108.352C126.17 108.526 125.873 108.67 125.555 108.784C125.243 108.898 124.919 108.982 124.583 109.036C124.247 109.096 123.914 109.126 123.584 109.126C122.954 109.126 122.372 109.021 121.838 108.811C121.31 108.595 120.851 108.283 120.461 107.875C120.077 107.461 119.777 106.951 119.561 106.345C119.345 105.739 119.237 105.043 119.237 104.257C119.237 103.621 119.333 103.027 119.525 102.475C119.723 101.923 120.005 101.446 120.371 101.044C120.737 100.636 121.184 100.318 121.712 100.09C122.24 99.856 122.834 99.739 123.494 99.739C124.04 99.739 124.544 99.832 125.006 100.018C125.474 100.198 125.876 100.462 126.212 100.81C126.554 101.152 126.821 101.578 127.013 102.088C127.205 102.592 127.301 103.168 127.301 103.816C127.301 104.068 127.274 104.236 127.22 104.32C127.166 104.404 127.064 104.446 126.914 104.446H120.821C120.839 105.022 120.917 105.523 121.055 105.949C121.199 106.375 121.397 106.732 121.649 107.02C121.901 107.302 122.201 107.515 122.549 107.659C122.897 107.797 123.287 107.866 123.719 107.866C124.121 107.866 124.466 107.821 124.754 107.731C125.048 107.635 125.3 107.533 125.51 107.425C125.72 107.317 125.894 107.218 126.032 107.128C126.176 107.032 126.299 106.984 126.401 106.984C126.533 106.984 126.635 107.035 126.707 107.137L127.157 107.722ZM130.79 101.71C131.078 101.086 131.432 100.6 131.852 100.252C132.272 99.898 132.785 99.721 133.391 99.721C133.583 99.721 133.766 99.742 133.94 99.784C134.12 99.826 134.279 99.892 134.417 99.982L134.3 101.179C134.264 101.329 134.174 101.404 134.03 101.404C133.946 101.404 133.823 101.386 133.661 101.35C133.499 101.314 133.316 101.296 133.112 101.296C132.824 101.296 132.566 101.338 132.338 101.422C132.116 101.506 131.915 101.632 131.735 101.8C131.561 101.962 131.402 102.166 131.258 102.412C131.12 102.652 130.994 102.928 130.88 103.24V109H129.269V99.883H130.187C130.361 99.883 130.481 99.916 130.547 99.982C130.613 100.048 130.658 100.162 130.682 100.324L130.79 101.71ZM143.638 99.883L139.921 109H138.481L134.764 99.883H136.069C136.201 99.883 136.309 99.916 136.393 99.982C136.477 100.048 136.534 100.126 136.564 100.216L138.877 106.084C138.949 106.306 139.012 106.522 139.066 106.732C139.12 106.942 139.171 107.152 139.219 107.362C139.267 107.152 139.318 106.942 139.372 106.732C139.426 106.522 139.492 106.306 139.57 106.084L141.91 100.216C141.946 100.12 142.006 100.042 142.09 99.982C142.174 99.916 142.273 99.883 142.387 99.883H143.638ZM149.855 104.896C149.117 104.92 148.487 104.98 147.965 105.076C147.449 105.166 147.026 105.286 146.696 105.436C146.372 105.586 146.135 105.763 145.985 105.967C145.841 106.171 145.769 106.399 145.769 106.651C145.769 106.891 145.808 107.098 145.886 107.272C145.964 107.446 146.069 107.59 146.201 107.704C146.339 107.812 146.498 107.893 146.678 107.947C146.864 107.995 147.062 108.019 147.272 108.019C147.554 108.019 147.812 107.992 148.046 107.938C148.28 107.878 148.499 107.794 148.703 107.686C148.913 107.578 149.111 107.449 149.297 107.299C149.489 107.149 149.675 106.978 149.855 106.786V104.896ZM144.68 101.17C145.184 100.684 145.727 100.321 146.309 100.081C146.891 99.841 147.536 99.721 148.244 99.721C148.754 99.721 149.207 99.805 149.603 99.973C149.999 100.141 150.332 100.375 150.602 100.675C150.872 100.975 151.076 101.338 151.214 101.764C151.352 102.19 151.421 102.658 151.421 103.168V109H150.71C150.554 109 150.434 108.976 150.35 108.928C150.266 108.874 150.2 108.772 150.152 108.622L149.972 107.758C149.732 107.98 149.498 108.178 149.27 108.352C149.042 108.52 148.802 108.664 148.55 108.784C148.298 108.898 148.028 108.985 147.74 109.045C147.458 109.111 147.143 109.144 146.795 109.144C146.441 109.144 146.108 109.096 145.796 109C145.484 108.898 145.211 108.748 144.977 108.55C144.749 108.352 144.566 108.103 144.428 107.803C144.296 107.497 144.23 107.137 144.23 106.723C144.23 106.363 144.329 106.018 144.527 105.688C144.725 105.352 145.046 105.055 145.49 104.797C145.934 104.539 146.513 104.329 147.227 104.167C147.941 103.999 148.817 103.903 149.855 103.879V103.168C149.855 102.46 149.702 101.926 149.396 101.566C149.09 101.2 148.643 101.017 148.055 101.017C147.659 101.017 147.326 101.068 147.056 101.17C146.792 101.266 146.561 101.377 146.363 101.503C146.171 101.623 146.003 101.734 145.859 101.836C145.721 101.932 145.583 101.98 145.445 101.98C145.337 101.98 145.244 101.953 145.166 101.899C145.088 101.839 145.022 101.767 144.968 101.683L144.68 101.17ZM162.198 109H160.596V101.224H155.898V106.696C155.898 107.08 155.991 107.365 156.177 107.551C156.363 107.737 156.603 107.83 156.897 107.83C157.065 107.83 157.209 107.809 157.329 107.767C157.455 107.719 157.563 107.668 157.653 107.614C157.743 107.56 157.818 107.512 157.878 107.47C157.944 107.422 158.001 107.398 158.049 107.398C158.133 107.398 158.208 107.449 158.274 107.551L158.742 108.316C158.466 108.574 158.133 108.778 157.743 108.928C157.353 109.072 156.951 109.144 156.537 109.144C155.817 109.144 155.262 108.943 154.872 108.541C154.488 108.139 154.296 107.56 154.296 106.804V101.224H153.198C153.102 101.224 153.021 101.197 152.955 101.143C152.889 101.083 152.856 100.993 152.856 100.873V100.234L154.35 100.036L154.719 97.228C154.737 97.138 154.776 97.066 154.836 97.012C154.902 96.952 154.986 96.922 155.088 96.922H155.898V100.063H162.198V109ZM162.594 96.958C162.594 97.114 162.561 97.261 162.495 97.399C162.435 97.531 162.351 97.648 162.243 97.75C162.141 97.852 162.021 97.933 161.883 97.993C161.745 98.053 161.598 98.083 161.442 98.083C161.286 98.083 161.139 98.053 161.001 97.993C160.869 97.933 160.752 97.852 160.65 97.75C160.548 97.648 160.467 97.531 160.407 97.399C160.347 97.261 160.317 97.114 160.317 96.958C160.317 96.802 160.347 96.655 160.407 96.517C160.467 96.373 160.548 96.25 160.65 96.148C160.752 96.04 160.869 95.956 161.001 95.896C161.139 95.836 161.286 95.806 161.442 95.806C161.598 95.806 161.745 95.836 161.883 95.896C162.021 95.956 162.141 96.04 162.243 96.148C162.351 96.25 162.435 96.373 162.495 96.517C162.561 96.655 162.594 96.802 162.594 96.958ZM168.673 99.739C169.339 99.739 169.939 99.85 170.473 100.072C171.007 100.294 171.463 100.609 171.841 101.017C172.219 101.425 172.507 101.92 172.705 102.502C172.909 103.078 173.011 103.723 173.011 104.437C173.011 105.157 172.909 105.805 172.705 106.381C172.507 106.957 172.219 107.449 171.841 107.857C171.463 108.265 171.007 108.58 170.473 108.802C169.939 109.018 169.339 109.126 168.673 109.126C168.001 109.126 167.395 109.018 166.855 108.802C166.321 108.58 165.865 108.265 165.487 107.857C165.109 107.449 164.818 106.957 164.614 106.381C164.416 105.805 164.317 105.157 164.317 104.437C164.317 103.723 164.416 103.078 164.614 102.502C164.818 101.92 165.109 101.425 165.487 101.017C165.865 100.609 166.321 100.294 166.855 100.072C167.395 99.85 168.001 99.739 168.673 99.739ZM168.673 107.875C169.573 107.875 170.245 107.575 170.689 106.975C171.133 106.369 171.355 105.526 171.355 104.446C171.355 103.36 171.133 102.514 170.689 101.908C170.245 101.302 169.573 100.999 168.673 100.999C168.217 100.999 167.818 101.077 167.476 101.233C167.14 101.389 166.858 101.614 166.63 101.908C166.408 102.202 166.24 102.565 166.126 102.997C166.018 103.423 165.964 103.906 165.964 104.446C165.964 105.526 166.186 106.369 166.63 106.975C167.08 107.575 167.761 107.875 168.673 107.875ZM176.554 101.206C176.752 100.984 176.962 100.783 177.184 100.603C177.406 100.423 177.64 100.27 177.886 100.144C178.138 100.012 178.402 99.913 178.678 99.847C178.96 99.775 179.263 99.739 179.587 99.739C180.085 99.739 180.523 99.823 180.901 99.991C181.285 100.153 181.603 100.387 181.855 100.693C182.113 100.993 182.308 101.356 182.44 101.782C182.572 102.208 182.638 102.679 182.638 103.195V109H181.027V103.195C181.027 102.505 180.868 101.971 180.55 101.593C180.238 101.209 179.761 101.017 179.119 101.017C178.645 101.017 178.201 101.131 177.787 101.359C177.379 101.587 177.001 101.896 176.653 102.286V109H175.042V99.883H176.005C176.233 99.883 176.374 99.994 176.428 100.216L176.554 101.206ZM190.39 101.386C190.318 101.518 190.207 101.584 190.057 101.584C189.967 101.584 189.865 101.551 189.751 101.485C189.637 101.419 189.496 101.347 189.328 101.269C189.166 101.185 188.971 101.11 188.743 101.044C188.515 100.972 188.245 100.936 187.933 100.936C187.663 100.936 187.42 100.972 187.204 101.044C186.988 101.11 186.802 101.203 186.646 101.323C186.496 101.443 186.379 101.584 186.295 101.746C186.217 101.902 186.178 102.073 186.178 102.259C186.178 102.493 186.244 102.688 186.376 102.844C186.514 103 186.694 103.135 186.916 103.249C187.138 103.363 187.39 103.465 187.672 103.555C187.954 103.639 188.242 103.732 188.536 103.834C188.836 103.93 189.127 104.038 189.409 104.158C189.691 104.278 189.943 104.428 190.165 104.608C190.387 104.788 190.564 105.01 190.696 105.274C190.834 105.532 190.903 105.844 190.903 106.21C190.903 106.63 190.828 107.02 190.678 107.38C190.528 107.734 190.306 108.043 190.012 108.307C189.718 108.565 189.358 108.769 188.932 108.919C188.506 109.069 188.014 109.144 187.456 109.144C186.82 109.144 186.244 109.042 185.728 108.838C185.212 108.628 184.774 108.361 184.414 108.037L184.792 107.425C184.84 107.347 184.897 107.287 184.963 107.245C185.029 107.203 185.113 107.182 185.215 107.182C185.323 107.182 185.437 107.224 185.557 107.308C185.677 107.392 185.821 107.485 185.989 107.587C186.163 107.689 186.373 107.782 186.619 107.866C186.865 107.95 187.171 107.992 187.537 107.992C187.849 107.992 188.122 107.953 188.356 107.875C188.59 107.791 188.785 107.68 188.941 107.542C189.097 107.404 189.211 107.245 189.283 107.065C189.361 106.885 189.4 106.693 189.4 106.489C189.4 106.237 189.331 106.03 189.193 105.868C189.061 105.7 188.884 105.559 188.662 105.445C188.44 105.325 188.185 105.223 187.897 105.139C187.615 105.049 187.324 104.956 187.024 104.86C186.73 104.764 186.439 104.656 186.151 104.536C185.869 104.41 185.617 104.254 185.395 104.068C185.173 103.882 184.993 103.654 184.855 103.384C184.723 103.108 184.657 102.775 184.657 102.385C184.657 102.037 184.729 101.704 184.873 101.386C185.017 101.062 185.227 100.78 185.503 100.54C185.779 100.294 186.118 100.099 186.52 99.955C186.922 99.811 187.381 99.739 187.897 99.739C188.497 99.739 189.034 99.835 189.508 100.027C189.988 100.213 190.402 100.471 190.75 100.801L190.39 101.386Z" fill="black"/>
<path d="M14.4754 160.336C14.5714 160.336 14.6554 160.375 14.7274 160.453L15.4204 161.2C14.8924 161.812 14.2504 162.289 13.4944 162.631C12.7444 162.973 11.8354 163.144 10.7674 163.144C9.84341 163.144 9.00341 162.985 8.24741 162.667C7.49141 162.343 6.84641 161.893 6.31241 161.317C5.77841 160.735 5.36441 160.039 5.07041 159.229C4.77641 158.419 4.62941 157.528 4.62941 156.556C4.62941 155.584 4.78241 154.693 5.08841 153.883C5.39441 153.073 5.82341 152.377 6.37541 151.795C6.93341 151.213 7.59941 150.763 8.37341 150.445C9.14741 150.121 10.0024 149.959 10.9384 149.959C11.8564 149.959 12.6664 150.106 13.3684 150.4C14.0704 150.694 14.6884 151.093 15.2224 151.597L14.6464 152.398C14.6104 152.458 14.5624 152.509 14.5024 152.551C14.4484 152.587 14.3734 152.605 14.2774 152.605C14.1694 152.605 14.0374 152.548 13.8814 152.434C13.7254 152.314 13.5214 152.182 13.2694 152.038C13.0174 151.894 12.7024 151.765 12.3244 151.651C11.9464 151.531 11.4814 151.471 10.9294 151.471C10.2634 151.471 9.65441 151.588 9.10241 151.822C8.55041 152.05 8.07341 152.383 7.67141 152.821C7.27541 153.259 6.96641 153.793 6.74441 154.423C6.52241 155.053 6.41141 155.764 6.41141 156.556C6.41141 157.36 6.52541 158.077 6.75341 158.707C6.98741 159.337 7.30241 159.871 7.69841 160.309C8.10041 160.741 8.57141 161.071 9.11141 161.299C9.65741 161.527 10.2454 161.641 10.8754 161.641C11.2594 161.641 11.6044 161.62 11.9104 161.578C12.2224 161.53 12.5074 161.458 12.7654 161.362C13.0294 161.266 13.2724 161.146 13.4944 161.002C13.7224 160.852 13.9474 160.675 14.1694 160.471C14.2714 160.381 14.3734 160.336 14.4754 160.336ZM18.6779 155.098C19.0679 154.684 19.4999 154.354 19.9739 154.108C20.4479 153.862 20.9939 153.739 21.6119 153.739C22.1099 153.739 22.5479 153.823 22.9259 153.991C23.3099 154.153 23.6279 154.387 23.8799 154.693C24.1379 154.993 24.3329 155.356 24.4649 155.782C24.5969 156.208 24.6629 156.679 24.6629 157.195V163H23.0519V157.195C23.0519 156.505 22.8929 155.971 22.5749 155.593C22.2629 155.209 21.7859 155.017 21.1439 155.017C20.6699 155.017 20.2259 155.131 19.8119 155.359C19.4039 155.587 19.0259 155.896 18.6779 156.286V163H17.0669V149.743H18.6779V155.098ZM30.947 153.739C31.613 153.739 32.213 153.85 32.747 154.072C33.281 154.294 33.737 154.609 34.115 155.017C34.493 155.425 34.781 155.92 34.979 156.502C35.183 157.078 35.285 157.723 35.285 158.437C35.285 159.157 35.183 159.805 34.979 160.381C34.781 160.957 34.493 161.449 34.115 161.857C33.737 162.265 33.281 162.58 32.747 162.802C32.213 163.018 31.613 163.126 30.947 163.126C30.275 163.126 29.669 163.018 29.129 162.802C28.595 162.58 28.139 162.265 27.761 161.857C27.383 161.449 27.092 160.957 26.888 160.381C26.69 159.805 26.591 159.157 26.591 158.437C26.591 157.723 26.69 157.078 26.888 156.502C27.092 155.92 27.383 155.425 27.761 155.017C28.139 154.609 28.595 154.294 29.129 154.072C29.669 153.85 30.275 153.739 30.947 153.739ZM30.947 161.875C31.847 161.875 32.519 161.575 32.963 160.975C33.407 160.369 33.629 159.526 33.629 158.446C33.629 157.36 33.407 156.514 32.963 155.908C32.519 155.302 31.847 154.999 30.947 154.999C30.491 154.999 30.092 155.077 29.75 155.233C29.414 155.389 29.132 155.614 28.904 155.908C28.682 156.202 28.514 156.565 28.4 156.997C28.292 157.423 28.238 157.906 28.238 158.446C28.238 159.526 28.46 160.369 28.904 160.975C29.354 161.575 30.035 161.875 30.947 161.875ZM41.1599 153.739C41.8259 153.739 42.4259 153.85 42.9599 154.072C43.4939 154.294 43.9499 154.609 44.3279 155.017C44.7059 155.425 44.9939 155.92 45.1919 156.502C45.3959 157.078 45.4979 157.723 45.4979 158.437C45.4979 159.157 45.3959 159.805 45.1919 160.381C44.9939 160.957 44.7059 161.449 44.3279 161.857C43.9499 162.265 43.4939 162.58 42.9599 162.802C42.4259 163.018 41.8259 163.126 41.1599 163.126C40.4879 163.126 39.8819 163.018 39.3419 162.802C38.8079 162.58 38.3519 162.265 37.9739 161.857C37.5959 161.449 37.3049 160.957 37.1009 160.381C36.9029 159.805 36.8039 159.157 36.8039 158.437C36.8039 157.723 36.9029 157.078 37.1009 156.502C37.3049 155.92 37.5959 155.425 37.9739 155.017C38.3519 154.609 38.8079 154.294 39.3419 154.072C39.8819 153.85 40.4879 153.739 41.1599 153.739ZM41.1599 161.875C42.0599 161.875 42.7319 161.575 43.1759 160.975C43.6199 160.369 43.8419 159.526 43.8419 158.446C43.8419 157.36 43.6199 156.514 43.1759 155.908C42.7319 155.302 42.0599 154.999 41.1599 154.999C40.7039 154.999 40.3049 155.077 39.9629 155.233C39.6269 155.389 39.3449 155.614 39.1169 155.908C38.8949 156.202 38.7269 156.565 38.6129 156.997C38.5049 157.423 38.4509 157.906 38.4509 158.446C38.4509 159.526 38.6729 160.369 39.1169 160.975C39.5669 161.575 40.2479 161.875 41.1599 161.875ZM52.8397 155.386C52.7677 155.518 52.6567 155.584 52.5067 155.584C52.4167 155.584 52.3147 155.551 52.2007 155.485C52.0867 155.419 51.9457 155.347 51.7777 155.269C51.6157 155.185 51.4207 155.11 51.1927 155.044C50.9647 154.972 50.6947 154.936 50.3827 154.936C50.1127 154.936 49.8697 154.972 49.6537 155.044C49.4377 155.11 49.2517 155.203 49.0957 155.323C48.9457 155.443 48.8287 155.584 48.7447 155.746C48.6667 155.902 48.6277 156.073 48.6277 156.259C48.6277 156.493 48.6937 156.688 48.8257 156.844C48.9637 157 49.1437 157.135 49.3657 157.249C49.5877 157.363 49.8397 157.465 50.1217 157.555C50.4037 157.639 50.6917 157.732 50.9857 157.834C51.2857 157.93 51.5767 158.038 51.8587 158.158C52.1407 158.278 52.3927 158.428 52.6147 158.608C52.8367 158.788 53.0137 159.01 53.1457 159.274C53.2837 159.532 53.3527 159.844 53.3527 160.21C53.3527 160.63 53.2777 161.02 53.1277 161.38C52.9777 161.734 52.7557 162.043 52.4617 162.307C52.1677 162.565 51.8077 162.769 51.3817 162.919C50.9557 163.069 50.4637 163.144 49.9057 163.144C49.2697 163.144 48.6937 163.042 48.1777 162.838C47.6617 162.628 47.2237 162.361 46.8637 162.037L47.2417 161.425C47.2897 161.347 47.3467 161.287 47.4127 161.245C47.4787 161.203 47.5627 161.182 47.6647 161.182C47.7727 161.182 47.8867 161.224 48.0067 161.308C48.1267 161.392 48.2707 161.485 48.4387 161.587C48.6127 161.689 48.8227 161.782 49.0687 161.866C49.3147 161.95 49.6207 161.992 49.9867 161.992C50.2987 161.992 50.5717 161.953 50.8057 161.875C51.0397 161.791 51.2347 161.68 51.3907 161.542C51.5467 161.404 51.6607 161.245 51.7327 161.065C51.8107 160.885 51.8497 160.693 51.8497 160.489C51.8497 160.237 51.7807 160.03 51.6427 159.868C51.5107 159.7 51.3337 159.559 51.1117 159.445C50.8897 159.325 50.6347 159.223 50.3467 159.139C50.0647 159.049 49.7737 158.956 49.4737 158.86C49.1797 158.764 48.8887 158.656 48.6007 158.536C48.3187 158.41 48.0667 158.254 47.8447 158.068C47.6227 157.882 47.4427 157.654 47.3047 157.384C47.1727 157.108 47.1067 156.775 47.1067 156.385C47.1067 156.037 47.1787 155.704 47.3227 155.386C47.4667 155.062 47.6767 154.78 47.9527 154.54C48.2287 154.294 48.5677 154.099 48.9697 153.955C49.3717 153.811 49.8307 153.739 50.3467 153.739C50.9467 153.739 51.4837 153.835 51.9577 154.027C52.4377 154.213 52.8517 154.471 53.1997 154.801L52.8397 155.386ZM61.4189 157.447C61.4189 157.075 61.3649 156.736 61.2569 156.43C61.1549 156.118 61.0019 155.851 60.7979 155.629C60.5999 155.401 60.3569 155.227 60.0689 155.107C59.7809 154.981 59.4539 154.918 59.0879 154.918C58.3199 154.918 57.7109 155.143 57.2609 155.593C56.8169 156.037 56.5409 156.655 56.4329 157.447H61.4189ZM62.7149 161.722C62.5169 161.962 62.2799 162.172 62.0039 162.352C61.7279 162.526 61.4309 162.67 61.1129 162.784C60.8009 162.898 60.4769 162.982 60.1409 163.036C59.8049 163.096 59.4719 163.126 59.1419 163.126C58.5119 163.126 57.9299 163.021 57.3959 162.811C56.8679 162.595 56.4089 162.283 56.0189 161.875C55.6349 161.461 55.3349 160.951 55.1189 160.345C54.9029 159.739 54.7949 159.043 54.7949 158.257C54.7949 157.621 54.8909 157.027 55.0829 156.475C55.2809 155.923 55.5629 155.446 55.9289 155.044C56.2949 154.636 56.7419 154.318 57.2699 154.09C57.7979 153.856 58.3919 153.739 59.0519 153.739C59.5979 153.739 60.1019 153.832 60.5639 154.018C61.0319 154.198 61.4339 154.462 61.7699 154.81C62.1119 155.152 62.3789 155.578 62.5709 156.088C62.7629 156.592 62.8589 157.168 62.8589 157.816C62.8589 158.068 62.8319 158.236 62.7779 158.32C62.7239 158.404 62.6219 158.446 62.4719 158.446H56.3789C56.3969 159.022 56.4749 159.523 56.6129 159.949C56.7569 160.375 56.9549 160.732 57.2069 161.02C57.4589 161.302 57.7589 161.515 58.1069 161.659C58.4549 161.797 58.8449 161.866 59.2769 161.866C59.6789 161.866 60.0239 161.821 60.3119 161.731C60.6059 161.635 60.8579 161.533 61.0679 161.425C61.2779 161.317 61.4519 161.218 61.5899 161.128C61.7339 161.032 61.8569 160.984 61.9589 160.984C62.0909 160.984 62.1929 161.035 62.2649 161.137L62.7149 161.722ZM70.0261 163V155.251L69.0181 155.134C68.8921 155.104 68.7871 155.059 68.7031 154.999C68.6251 154.933 68.5861 154.84 68.5861 154.72V154.063H70.0261V153.181C70.0261 152.659 70.0981 152.197 70.2421 151.795C70.3921 151.387 70.6021 151.045 70.8721 150.769C71.1481 150.487 71.4781 150.274 71.8621 150.13C72.2461 149.986 72.6781 149.914 73.1581 149.914C73.5661 149.914 73.9411 149.974 74.2831 150.094L74.2471 150.895C74.2351 151.039 74.1541 151.117 74.0041 151.129C73.8601 151.141 73.6651 151.147 73.4191 151.147C73.1431 151.147 72.8911 151.183 72.6631 151.255C72.4411 151.327 72.2491 151.444 72.0871 151.606C71.9251 151.768 71.7991 151.981 71.7091 152.245C71.6251 152.509 71.5831 152.836 71.5831 153.226V154.063H74.2111V155.224H71.6371V163H70.0261ZM77.2636 155.71C77.5516 155.086 77.9056 154.6 78.3256 154.252C78.7456 153.898 79.2586 153.721 79.8646 153.721C80.0566 153.721 80.2396 153.742 80.4136 153.784C80.5936 153.826 80.7526 153.892 80.8906 153.982L80.7736 155.179C80.7376 155.329 80.6476 155.404 80.5036 155.404C80.4196 155.404 80.2966 155.386 80.1346 155.35C79.9726 155.314 79.7896 155.296 79.5856 155.296C79.2976 155.296 79.0396 155.338 78.8116 155.422C78.5896 155.506 78.3886 155.632 78.2086 155.8C78.0346 155.962 77.8756 156.166 77.7316 156.412C77.5936 156.652 77.4676 156.928 77.3536 157.24V163H75.7426V153.883H76.6606C76.8346 153.883 76.9546 153.916 77.0206 153.982C77.0866 154.048 77.1316 154.162 77.1556 154.324L77.2636 155.71ZM85.7731 153.739C86.4391 153.739 87.0391 153.85 87.5731 154.072C88.1071 154.294 88.5631 154.609 88.9411 155.017C89.3191 155.425 89.6071 155.92 89.8051 156.502C90.0091 157.078 90.1111 157.723 90.1111 158.437C90.1111 159.157 90.0091 159.805 89.8051 160.381C89.6071 160.957 89.3191 161.449 88.9411 161.857C88.5631 162.265 88.1071 162.58 87.5731 162.802C87.0391 163.018 86.4391 163.126 85.7731 163.126C85.1011 163.126 84.4951 163.018 83.9551 162.802C83.4211 162.58 82.9651 162.265 82.5871 161.857C82.2091 161.449 81.9181 160.957 81.7141 160.381C81.5161 159.805 81.4171 159.157 81.4171 158.437C81.4171 157.723 81.5161 157.078 81.7141 156.502C81.9181 155.92 82.2091 155.425 82.5871 155.017C82.9651 154.609 83.4211 154.294 83.9551 154.072C84.4951 153.85 85.1011 153.739 85.7731 153.739ZM85.7731 161.875C86.6731 161.875 87.3451 161.575 87.7891 160.975C88.2331 160.369 88.4551 159.526 88.4551 158.446C88.4551 157.36 88.2331 156.514 87.7891 155.908C87.3451 155.302 86.6731 154.999 85.7731 154.999C85.3171 154.999 84.9181 155.077 84.5761 155.233C84.2401 155.389 83.9581 155.614 83.7301 155.908C83.5081 156.202 83.3401 156.565 83.2261 156.997C83.1181 157.423 83.0641 157.906 83.0641 158.446C83.0641 159.526 83.2861 160.369 83.7301 160.975C84.1801 161.575 84.8611 161.875 85.7731 161.875ZM92.143 163V153.883H93.106C93.334 153.883 93.475 153.994 93.529 154.216L93.646 155.152C93.982 154.738 94.36 154.399 94.78 154.135C95.2 153.871 95.686 153.739 96.238 153.739C96.85 153.739 97.345 153.91 97.723 154.252C98.107 154.594 98.383 155.056 98.551 155.638C98.683 155.308 98.851 155.023 99.055 154.783C99.265 154.543 99.499 154.345 99.757 154.189C100.015 154.033 100.288 153.919 100.576 153.847C100.87 153.775 101.167 153.739 101.467 153.739C101.947 153.739 102.373 153.817 102.745 153.973C103.123 154.123 103.441 154.345 103.699 154.639C103.963 154.933 104.164 155.296 104.302 155.728C104.44 156.154 104.509 156.643 104.509 157.195V163H102.898V157.195C102.898 156.481 102.742 155.941 102.43 155.575C102.118 155.203 101.668 155.017 101.08 155.017C100.816 155.017 100.564 155.065 100.324 155.161C100.09 155.251 99.883 155.386 99.703 155.566C99.523 155.746 99.379 155.974 99.271 156.25C99.169 156.52 99.118 156.835 99.118 157.195V163H97.507V157.195C97.507 156.463 97.36 155.917 97.066 155.557C96.772 155.197 96.343 155.017 95.779 155.017C95.383 155.017 95.017 155.125 94.681 155.341C94.345 155.551 94.036 155.839 93.754 156.205V163H92.143ZM116.49 158.896C115.752 158.92 115.122 158.98 114.6 159.076C114.084 159.166 113.661 159.286 113.331 159.436C113.007 159.586 112.77 159.763 112.62 159.967C112.476 160.171 112.404 160.399 112.404 160.651C112.404 160.891 112.443 161.098 112.521 161.272C112.599 161.446 112.704 161.59 112.836 161.704C112.974 161.812 113.133 161.893 113.313 161.947C113.499 161.995 113.697 162.019 113.907 162.019C114.189 162.019 114.447 161.992 114.681 161.938C114.915 161.878 115.134 161.794 115.338 161.686C115.548 161.578 115.746 161.449 115.932 161.299C116.124 161.149 116.31 160.978 116.49 160.786V158.896ZM111.315 155.17C111.819 154.684 112.362 154.321 112.944 154.081C113.526 153.841 114.171 153.721 114.879 153.721C115.389 153.721 115.842 153.805 116.238 153.973C116.634 154.141 116.967 154.375 117.237 154.675C117.507 154.975 117.711 155.338 117.849 155.764C117.987 156.19 118.056 156.658 118.056 157.168V163H117.345C117.189 163 117.069 162.976 116.985 162.928C116.901 162.874 116.835 162.772 116.787 162.622L116.607 161.758C116.367 161.98 116.133 162.178 115.905 162.352C115.677 162.52 115.437 162.664 115.185 162.784C114.933 162.898 114.663 162.985 114.375 163.045C114.093 163.111 113.778 163.144 113.43 163.144C113.076 163.144 112.743 163.096 112.431 163C112.119 162.898 111.846 162.748 111.612 162.55C111.384 162.352 111.201 162.103 111.063 161.803C110.931 161.497 110.865 161.137 110.865 160.723C110.865 160.363 110.964 160.018 111.162 159.688C111.36 159.352 111.681 159.055 112.125 158.797C112.569 158.539 113.148 158.329 113.862 158.167C114.576 157.999 115.452 157.903 116.49 157.879V157.168C116.49 156.46 116.337 155.926 116.031 155.566C115.725 155.2 115.278 155.017 114.69 155.017C114.294 155.017 113.961 155.068 113.691 155.17C113.427 155.266 113.196 155.377 112.998 155.503C112.806 155.623 112.638 155.734 112.494 155.836C112.356 155.932 112.218 155.98 112.08 155.98C111.972 155.98 111.879 155.953 111.801 155.899C111.723 155.839 111.657 155.767 111.603 155.683L111.315 155.17ZM128.115 153.883L124.398 163H122.958L119.241 153.883H120.546C120.678 153.883 120.786 153.916 120.87 153.982C120.954 154.048 121.011 154.126 121.041 154.216L123.354 160.084C123.426 160.306 123.489 160.522 123.543 160.732C123.597 160.942 123.648 161.152 123.696 161.362C123.744 161.152 123.795 160.942 123.849 160.732C123.903 160.522 123.969 160.306 124.047 160.084L126.387 154.216C126.423 154.12 126.483 154.042 126.567 153.982C126.651 153.916 126.75 153.883 126.864 153.883H128.115ZM134.332 158.896C133.594 158.92 132.964 158.98 132.442 159.076C131.926 159.166 131.503 159.286 131.173 159.436C130.849 159.586 130.612 159.763 130.462 159.967C130.318 160.171 130.246 160.399 130.246 160.651C130.246 160.891 130.285 161.098 130.363 161.272C130.441 161.446 130.546 161.59 130.678 161.704C130.816 161.812 130.975 161.893 131.155 161.947C131.341 161.995 131.539 162.019 131.749 162.019C132.031 162.019 132.289 161.992 132.523 161.938C132.757 161.878 132.976 161.794 133.18 161.686C133.39 161.578 133.588 161.449 133.774 161.299C133.966 161.149 134.152 160.978 134.332 160.786V158.896ZM129.157 155.17C129.661 154.684 130.204 154.321 130.786 154.081C131.368 153.841 132.013 153.721 132.721 153.721C133.231 153.721 133.684 153.805 134.08 153.973C134.476 154.141 134.809 154.375 135.079 154.675C135.349 154.975 135.553 155.338 135.691 155.764C135.829 156.19 135.898 156.658 135.898 157.168V163H135.187C135.031 163 134.911 162.976 134.827 162.928C134.743 162.874 134.677 162.772 134.629 162.622L134.449 161.758C134.209 161.98 133.975 162.178 133.747 162.352C133.519 162.52 133.279 162.664 133.027 162.784C132.775 162.898 132.505 162.985 132.217 163.045C131.935 163.111 131.62 163.144 131.272 163.144C130.918 163.144 130.585 163.096 130.273 163C129.961 162.898 129.688 162.748 129.454 162.55C129.226 162.352 129.043 162.103 128.905 161.803C128.773 161.497 128.707 161.137 128.707 160.723C128.707 160.363 128.806 160.018 129.004 159.688C129.202 159.352 129.523 159.055 129.967 158.797C130.411 158.539 130.99 158.329 131.704 158.167C132.418 157.999 133.294 157.903 134.332 157.879V157.168C134.332 156.46 134.179 155.926 133.873 155.566C133.567 155.2 133.12 155.017 132.532 155.017C132.136 155.017 131.803 155.068 131.533 155.17C131.269 155.266 131.038 155.377 130.84 155.503C130.648 155.623 130.48 155.734 130.336 155.836C130.198 155.932 130.06 155.98 129.922 155.98C129.814 155.98 129.721 155.953 129.643 155.899C129.565 155.839 129.499 155.767 129.445 155.683L129.157 155.17ZM140.03 153.883V163H138.428V153.883H140.03ZM140.372 151.021C140.372 151.177 140.339 151.324 140.273 151.462C140.213 151.594 140.129 151.714 140.021 151.822C139.919 151.924 139.796 152.005 139.652 152.065C139.514 152.125 139.367 152.155 139.211 152.155C139.055 152.155 138.908 152.125 138.77 152.065C138.638 152.005 138.521 151.924 138.419 151.822C138.317 151.714 138.236 151.594 138.176 151.462C138.116 151.324 138.086 151.177 138.086 151.021C138.086 150.865 138.116 150.718 138.176 150.58C138.236 150.436 138.317 150.313 138.419 150.211C138.521 150.103 138.638 150.019 138.77 149.959C138.908 149.899 139.055 149.869 139.211 149.869C139.367 149.869 139.514 149.899 139.652 149.959C139.796 150.019 139.919 150.103 140.021 150.211C140.129 150.313 140.213 150.436 140.273 150.58C140.339 150.718 140.372 150.865 140.372 151.021ZM144.319 149.743V163H142.717V149.743H144.319ZM151.857 158.896C151.119 158.92 150.489 158.98 149.967 159.076C149.451 159.166 149.028 159.286 148.698 159.436C148.374 159.586 148.137 159.763 147.987 159.967C147.843 160.171 147.771 160.399 147.771 160.651C147.771 160.891 147.81 161.098 147.888 161.272C147.966 161.446 148.071 161.59 148.203 161.704C148.341 161.812 148.5 161.893 148.68 161.947C148.866 161.995 149.064 162.019 149.274 162.019C149.556 162.019 149.814 161.992 150.048 161.938C150.282 161.878 150.501 161.794 150.705 161.686C150.915 161.578 151.113 161.449 151.299 161.299C151.491 161.149 151.677 160.978 151.857 160.786V158.896ZM146.682 155.17C147.186 154.684 147.729 154.321 148.311 154.081C148.893 153.841 149.538 153.721 150.246 153.721C150.756 153.721 151.209 153.805 151.605 153.973C152.001 154.141 152.334 154.375 152.604 154.675C152.874 154.975 153.078 155.338 153.216 155.764C153.354 156.19 153.423 156.658 153.423 157.168V163H152.712C152.556 163 152.436 162.976 152.352 162.928C152.268 162.874 152.202 162.772 152.154 162.622L151.974 161.758C151.734 161.98 151.5 162.178 151.272 162.352C151.044 162.52 150.804 162.664 150.552 162.784C150.3 162.898 150.03 162.985 149.742 163.045C149.46 163.111 149.145 163.144 148.797 163.144C148.443 163.144 148.11 163.096 147.798 163C147.486 162.898 147.213 162.748 146.979 162.55C146.751 162.352 146.568 162.103 146.43 161.803C146.298 161.497 146.232 161.137 146.232 160.723C146.232 160.363 146.331 160.018 146.529 159.688C146.727 159.352 147.048 159.055 147.492 158.797C147.936 158.539 148.515 158.329 149.229 158.167C149.943 157.999 150.819 157.903 151.857 157.879V157.168C151.857 156.46 151.704 155.926 151.398 155.566C151.092 155.2 150.645 155.017 150.057 155.017C149.661 155.017 149.328 155.068 149.058 155.17C148.794 155.266 148.563 155.377 148.365 155.503C148.173 155.623 148.005 155.734 147.861 155.836C147.723 155.932 147.585 155.98 147.447 155.98C147.339 155.98 147.246 155.953 147.168 155.899C147.09 155.839 147.024 155.767 146.97 155.683L146.682 155.17ZM157.475 160.804C157.769 161.2 158.09 161.479 158.438 161.641C158.792 161.803 159.179 161.884 159.599 161.884C160.457 161.884 161.114 161.581 161.57 160.975C162.026 160.369 162.254 159.466 162.254 158.266C162.254 157.15 162.05 156.331 161.642 155.809C161.24 155.281 160.664 155.017 159.914 155.017C159.392 155.017 158.936 155.137 158.546 155.377C158.162 155.617 157.805 155.956 157.475 156.394V160.804ZM157.475 155.197C157.859 154.753 158.291 154.399 158.771 154.135C159.257 153.871 159.815 153.739 160.445 153.739C160.979 153.739 161.459 153.841 161.885 154.045C162.317 154.249 162.683 154.546 162.983 154.936C163.283 155.32 163.511 155.788 163.667 156.34C163.829 156.892 163.91 157.513 163.91 158.203C163.91 158.941 163.82 159.613 163.64 160.219C163.46 160.825 163.199 161.344 162.857 161.776C162.521 162.202 162.11 162.535 161.624 162.775C161.138 163.009 160.592 163.126 159.986 163.126C159.386 163.126 158.879 163.015 158.465 162.793C158.057 162.565 157.7 162.244 157.394 161.83L157.313 162.658C157.265 162.886 157.127 163 156.899 163H155.864V149.743H157.475V155.197ZM167.592 149.743V163H165.99V149.743H167.592ZM176.292 157.447C176.292 157.075 176.238 156.736 176.13 156.43C176.028 156.118 175.875 155.851 175.671 155.629C175.473 155.401 175.23 155.227 174.942 155.107C174.654 154.981 174.327 154.918 173.961 154.918C173.193 154.918 172.584 155.143 172.134 155.593C171.69 156.037 171.414 156.655 171.306 157.447H176.292ZM177.588 161.722C177.39 161.962 177.153 162.172 176.877 162.352C176.601 162.526 176.304 162.67 175.986 162.784C175.674 162.898 175.35 162.982 175.014 163.036C174.678 163.096 174.345 163.126 174.015 163.126C173.385 163.126 172.803 163.021 172.269 162.811C171.741 162.595 171.282 162.283 170.892 161.875C170.508 161.461 170.208 160.951 169.992 160.345C169.776 159.739 169.668 159.043 169.668 158.257C169.668 157.621 169.764 157.027 169.956 156.475C170.154 155.923 170.436 155.446 170.802 155.044C171.168 154.636 171.615 154.318 172.143 154.09C172.671 153.856 173.265 153.739 173.925 153.739C174.471 153.739 174.975 153.832 175.437 154.018C175.905 154.198 176.307 154.462 176.643 154.81C176.985 155.152 177.252 155.578 177.444 156.088C177.636 156.592 177.732 157.168 177.732 157.816C177.732 158.068 177.705 158.236 177.651 158.32C177.597 158.404 177.495 158.446 177.345 158.446H171.252C171.27 159.022 171.348 159.523 171.486 159.949C171.63 160.375 171.828 160.732 172.08 161.02C172.332 161.302 172.632 161.515 172.98 161.659C173.328 161.797 173.718 161.866 174.15 161.866C174.552 161.866 174.897 161.821 175.185 161.731C175.479 161.635 175.731 161.533 175.941 161.425C176.151 161.317 176.325 161.218 176.463 161.128C176.607 161.032 176.73 160.984 176.832 160.984C176.964 160.984 177.066 161.035 177.138 161.137L177.588 161.722ZM192.765 163H191.163V155.224H186.465V160.696C186.465 161.08 186.558 161.365 186.744 161.551C186.93 161.737 187.17 161.83 187.464 161.83C187.632 161.83 187.776 161.809 187.896 161.767C188.022 161.719 188.13 161.668 188.22 161.614C188.31 161.56 188.385 161.512 188.445 161.47C188.511 161.422 188.568 161.398 188.616 161.398C188.7 161.398 188.775 161.449 188.841 161.551L189.309 162.316C189.033 162.574 188.7 162.778 188.31 162.928C187.92 163.072 187.518 163.144 187.104 163.144C186.384 163.144 185.829 162.943 185.439 162.541C185.055 162.139 184.863 161.56 184.863 160.804V155.224H183.765C183.669 155.224 183.588 155.197 183.522 155.143C183.456 155.083 183.423 154.993 183.423 154.873V154.234L184.917 154.036L185.286 151.228C185.304 151.138 185.343 151.066 185.403 151.012C185.469 150.952 185.553 150.922 185.655 150.922H186.465V154.063H192.765V163ZM193.161 150.958C193.161 151.114 193.128 151.261 193.062 151.399C193.002 151.531 192.918 151.648 192.81 151.75C192.708 151.852 192.588 151.933 192.45 151.993C192.312 152.053 192.165 152.083 192.009 152.083C191.853 152.083 191.706 152.053 191.568 151.993C191.436 151.933 191.319 151.852 191.217 151.75C191.115 151.648 191.034 151.531 190.974 151.399C190.914 151.261 190.884 151.114 190.884 150.958C190.884 150.802 190.914 150.655 190.974 150.517C191.034 150.373 191.115 150.25 191.217 150.148C191.319 150.04 191.436 149.956 191.568 149.896C191.706 149.836 191.853 149.806 192.009 149.806C192.165 149.806 192.312 149.836 192.45 149.896C192.588 149.956 192.708 150.04 192.81 150.148C192.918 150.25 193.002 150.373 193.062 150.517C193.128 150.655 193.161 150.802 193.161 150.958ZM195.397 163V153.883H196.36C196.588 153.883 196.729 153.994 196.783 154.216L196.9 155.152C197.236 154.738 197.614 154.399 198.034 154.135C198.454 153.871 198.94 153.739 199.492 153.739C200.104 153.739 200.599 153.91 200.977 154.252C201.361 154.594 201.637 155.056 201.805 155.638C201.937 155.308 202.105 155.023 202.309 154.783C202.519 154.543 202.753 154.345 203.011 154.189C203.269 154.033 203.542 153.919 203.83 153.847C204.124 153.775 204.421 153.739 204.721 153.739C205.201 153.739 205.627 153.817 205.999 153.973C206.377 154.123 206.695 154.345 206.953 154.639C207.217 154.933 207.418 155.296 207.556 155.728C207.694 156.154 207.763 156.643 207.763 157.195V163H206.152V157.195C206.152 156.481 205.996 155.941 205.684 155.575C205.372 155.203 204.922 155.017 204.334 155.017C204.07 155.017 203.818 155.065 203.578 155.161C203.344 155.251 203.137 155.386 202.957 155.566C202.777 155.746 202.633 155.974 202.525 156.25C202.423 156.52 202.372 156.835 202.372 157.195V163H200.761V157.195C200.761 156.463 200.614 155.917 200.32 155.557C200.026 155.197 199.597 155.017 199.033 155.017C198.637 155.017 198.271 155.125 197.935 155.341C197.599 155.551 197.29 155.839 197.008 156.205V163H195.397ZM216.3 157.447C216.3 157.075 216.246 156.736 216.138 156.43C216.036 156.118 215.883 155.851 215.679 155.629C215.481 155.401 215.238 155.227 214.95 155.107C214.662 154.981 214.335 154.918 213.969 154.918C213.201 154.918 212.592 155.143 212.142 155.593C211.698 156.037 211.422 156.655 211.314 157.447H216.3ZM217.596 161.722C217.398 161.962 217.161 162.172 216.885 162.352C216.609 162.526 216.312 162.67 215.994 162.784C215.682 162.898 215.358 162.982 215.022 163.036C214.686 163.096 214.353 163.126 214.023 163.126C213.393 163.126 212.811 163.021 212.277 162.811C211.749 162.595 211.29 162.283 210.9 161.875C210.516 161.461 210.216 160.951 210 160.345C209.784 159.739 209.676 159.043 209.676 158.257C209.676 157.621 209.772 157.027 209.964 156.475C210.162 155.923 210.444 155.446 210.81 155.044C211.176 154.636 211.623 154.318 212.151 154.09C212.679 153.856 213.273 153.739 213.933 153.739C214.479 153.739 214.983 153.832 215.445 154.018C215.913 154.198 216.315 154.462 216.651 154.81C216.993 155.152 217.26 155.578 217.452 156.088C217.644 156.592 217.74 157.168 217.74 157.816C217.74 158.068 217.713 158.236 217.659 158.32C217.605 158.404 217.503 158.446 217.353 158.446H211.26C211.278 159.022 211.356 159.523 211.494 159.949C211.638 160.375 211.836 160.732 212.088 161.02C212.34 161.302 212.64 161.515 212.988 161.659C213.336 161.797 213.726 161.866 214.158 161.866C214.56 161.866 214.905 161.821 215.193 161.731C215.487 161.635 215.739 161.533 215.949 161.425C216.159 161.317 216.333 161.218 216.471 161.128C216.615 161.032 216.738 160.984 216.84 160.984C216.972 160.984 217.074 161.035 217.146 161.137L217.596 161.722ZM225.017 155.386C224.945 155.518 224.834 155.584 224.684 155.584C224.594 155.584 224.492 155.551 224.378 155.485C224.264 155.419 224.123 155.347 223.955 155.269C223.793 155.185 223.598 155.11 223.37 155.044C223.142 154.972 222.872 154.936 222.56 154.936C222.29 154.936 222.047 154.972 221.831 155.044C221.615 155.11 221.429 155.203 221.273 155.323C221.123 155.443 221.006 155.584 220.922 155.746C220.844 155.902 220.805 156.073 220.805 156.259C220.805 156.493 220.871 156.688 221.003 156.844C221.141 157 221.321 157.135 221.543 157.249C221.765 157.363 222.017 157.465 222.299 157.555C222.581 157.639 222.869 157.732 223.163 157.834C223.463 157.93 223.754 158.038 224.036 158.158C224.318 158.278 224.57 158.428 224.792 158.608C225.014 158.788 225.191 159.01 225.323 159.274C225.461 159.532 225.53 159.844 225.53 160.21C225.53 160.63 225.455 161.02 225.305 161.38C225.155 161.734 224.933 162.043 224.639 162.307C224.345 162.565 223.985 162.769 223.559 162.919C223.133 163.069 222.641 163.144 222.083 163.144C221.447 163.144 220.871 163.042 220.355 162.838C219.839 162.628 219.401 162.361 219.041 162.037L219.419 161.425C219.467 161.347 219.524 161.287 219.59 161.245C219.656 161.203 219.74 161.182 219.842 161.182C219.95 161.182 220.064 161.224 220.184 161.308C220.304 161.392 220.448 161.485 220.616 161.587C220.79 161.689 221 161.782 221.246 161.866C221.492 161.95 221.798 161.992 222.164 161.992C222.476 161.992 222.749 161.953 222.983 161.875C223.217 161.791 223.412 161.68 223.568 161.542C223.724 161.404 223.838 161.245 223.91 161.065C223.988 160.885 224.027 160.693 224.027 160.489C224.027 160.237 223.958 160.03 223.82 159.868C223.688 159.7 223.511 159.559 223.289 159.445C223.067 159.325 222.812 159.223 222.524 159.139C222.242 159.049 221.951 158.956 221.651 158.86C221.357 158.764 221.066 158.656 220.778 158.536C220.496 158.41 220.244 158.254 220.022 158.068C219.8 157.882 219.62 157.654 219.482 157.384C219.35 157.108 219.284 156.775 219.284 156.385C219.284 156.037 219.356 155.704 219.5 155.386C219.644 155.062 219.854 154.78 220.13 154.54C220.406 154.294 220.745 154.099 221.147 153.955C221.549 153.811 222.008 153.739 222.524 153.739C223.124 153.739 223.661 153.835 224.135 154.027C224.615 154.213 225.029 154.471 225.377 154.801L225.017 155.386ZM13.1045 192.896C12.3665 192.92 11.7365 192.98 11.2145 193.076C10.6985 193.166 10.2755 193.286 9.94553 193.436C9.62153 193.586 9.38453 193.763 9.23453 193.967C9.09053 194.171 9.01853 194.399 9.01853 194.651C9.01853 194.891 9.05753 195.098 9.13553 195.272C9.21353 195.446 9.31853 195.59 9.45053 195.704C9.58853 195.812 9.74753 195.893 9.92753 195.947C10.1135 195.995 10.3115 196.019 10.5215 196.019C10.8035 196.019 11.0615 195.992 11.2955 195.938C11.5295 195.878 11.7485 195.794 11.9525 195.686C12.1625 195.578 12.3605 195.449 12.5465 195.299C12.7385 195.149 12.9245 194.978 13.1045 194.786V192.896ZM7.92953 189.17C8.43353 188.684 8.97653 188.321 9.55853 188.081C10.1405 187.841 10.7855 187.721 11.4935 187.721C12.0035 187.721 12.4565 187.805 12.8525 187.973C13.2485 188.141 13.5815 188.375 13.8515 188.675C14.1215 188.975 14.3255 189.338 14.4635 189.764C14.6015 190.19 14.6705 190.658 14.6705 191.168V197H13.9595C13.8035 197 13.6835 196.976 13.5995 196.928C13.5155 196.874 13.4495 196.772 13.4015 196.622L13.2215 195.758C12.9815 195.98 12.7475 196.178 12.5195 196.352C12.2915 196.52 12.0515 196.664 11.7995 196.784C11.5475 196.898 11.2775 196.985 10.9895 197.045C10.7075 197.111 10.3925 197.144 10.0445 197.144C9.69053 197.144 9.35753 197.096 9.04553 197C8.73353 196.898 8.46053 196.748 8.22653 196.55C7.99853 196.352 7.81553 196.103 7.67753 195.803C7.54553 195.497 7.47953 195.137 7.47953 194.723C7.47953 194.363 7.57853 194.018 7.77653 193.688C7.97453 193.352 8.29553 193.055 8.73953 192.797C9.18353 192.539 9.76253 192.329 10.4765 192.167C11.1905 191.999 12.0665 191.903 13.1045 191.879V191.168C13.1045 190.46 12.9515 189.926 12.6455 189.566C12.3395 189.2 11.8925 189.017 11.3045 189.017C10.9085 189.017 10.5755 189.068 10.3055 189.17C10.0415 189.266 9.81053 189.377 9.61253 189.503C9.42053 189.623 9.25253 189.734 9.10853 189.836C8.97053 189.932 8.83253 189.98 8.69453 189.98C8.58653 189.98 8.49353 189.953 8.41553 189.899C8.33753 189.839 8.27153 189.767 8.21753 189.683L7.92953 189.17ZM18.6228 189.206C18.8208 188.984 19.0308 188.783 19.2528 188.603C19.4748 188.423 19.7088 188.27 19.9548 188.144C20.2068 188.012 20.4708 187.913 20.7468 187.847C21.0288 187.775 21.3318 187.739 21.6558 187.739C22.1538 187.739 22.5918 187.823 22.9698 187.991C23.3538 188.153 23.6718 188.387 23.9238 188.693C24.1818 188.993 24.3768 189.356 24.5088 189.782C24.6408 190.208 24.7068 190.679 24.7068 191.195V197H23.0958V191.195C23.0958 190.505 22.9368 189.971 22.6188 189.593C22.3068 189.209 21.8298 189.017 21.1878 189.017C20.7138 189.017 20.2698 189.131 19.8558 189.359C19.4478 189.587 19.0698 189.896 18.7218 190.286V197H17.1108V187.883H18.0738C18.3018 187.883 18.4428 187.994 18.4968 188.216L18.6228 189.206ZM33.0879 190.052C32.7879 189.65 32.4639 189.371 32.1159 189.215C31.7679 189.053 31.3779 188.972 30.9459 188.972C30.0999 188.972 29.4489 189.275 28.9929 189.881C28.5369 190.487 28.3089 191.351 28.3089 192.473C28.3089 193.067 28.3599 193.577 28.4619 194.003C28.5639 194.423 28.7139 194.771 28.9119 195.047C29.1099 195.317 29.3529 195.515 29.6409 195.641C29.9289 195.767 30.2559 195.83 30.6219 195.83C31.1499 195.83 31.6089 195.71 31.9989 195.47C32.3949 195.23 32.7579 194.891 33.0879 194.453V190.052ZM34.6899 183.743V197H33.7359C33.5079 197 33.3639 196.889 33.3039 196.667L33.1599 195.56C32.7699 196.028 32.3259 196.406 31.8279 196.694C31.3299 196.982 30.7539 197.126 30.0999 197.126C29.5779 197.126 29.1039 197.027 28.6779 196.829C28.2519 196.625 27.8889 196.328 27.5889 195.938C27.2889 195.548 27.0579 195.062 26.8959 194.48C26.7339 193.898 26.6529 193.229 26.6529 192.473C26.6529 191.801 26.7429 191.177 26.9229 190.601C27.1029 190.019 27.3609 189.515 27.6969 189.089C28.0329 188.663 28.4439 188.33 28.9299 188.09C29.4219 187.844 29.9739 187.721 30.5859 187.721C31.1439 187.721 31.6209 187.817 32.0169 188.009C32.4189 188.195 32.7759 188.456 33.0879 188.792V183.743H34.6899ZM43.3466 189.71C43.6346 189.086 43.9886 188.6 44.4086 188.252C44.8286 187.898 45.3416 187.721 45.9476 187.721C46.1396 187.721 46.3226 187.742 46.4966 187.784C46.6766 187.826 46.8356 187.892 46.9736 187.982L46.8566 189.179C46.8206 189.329 46.7306 189.404 46.5866 189.404C46.5026 189.404 46.3796 189.386 46.2176 189.35C46.0556 189.314 45.8726 189.296 45.6686 189.296C45.3806 189.296 45.1226 189.338 44.8946 189.422C44.6726 189.506 44.4716 189.632 44.2916 189.8C44.1176 189.962 43.9586 190.166 43.8146 190.412C43.6766 190.652 43.5506 190.928 43.4366 191.24V197H41.8256V187.883H42.7436C42.9176 187.883 43.0376 187.916 43.1036 187.982C43.1696 188.048 43.2146 188.162 43.2386 188.324L43.3466 189.71ZM54.1151 191.447C54.1151 191.075 54.0611 190.736 53.9531 190.43C53.8511 190.118 53.6981 189.851 53.4941 189.629C53.2961 189.401 53.0531 189.227 52.7651 189.107C52.4771 188.981 52.1501 188.918 51.7841 188.918C51.0161 188.918 50.4071 189.143 49.9571 189.593C49.5131 190.037 49.2371 190.655 49.1291 191.447H54.1151ZM55.4111 195.722C55.2131 195.962 54.9761 196.172 54.7001 196.352C54.4241 196.526 54.1271 196.67 53.8091 196.784C53.4971 196.898 53.1731 196.982 52.8371 197.036C52.5011 197.096 52.1681 197.126 51.8381 197.126C51.2081 197.126 50.6261 197.021 50.0921 196.811C49.5641 196.595 49.1051 196.283 48.7151 195.875C48.3311 195.461 48.0311 194.951 47.8151 194.345C47.5991 193.739 47.4911 193.043 47.4911 192.257C47.4911 191.621 47.5871 191.027 47.7791 190.475C47.9771 189.923 48.2591 189.446 48.6251 189.044C48.9911 188.636 49.4381 188.318 49.9661 188.09C50.4941 187.856 51.0881 187.739 51.7481 187.739C52.2941 187.739 52.7981 187.832 53.2601 188.018C53.7281 188.198 54.1301 188.462 54.4661 188.81C54.8081 189.152 55.0751 189.578 55.2671 190.088C55.4591 190.592 55.5551 191.168 55.5551 191.816C55.5551 192.068 55.5281 192.236 55.4741 192.32C55.4201 192.404 55.3181 192.446 55.1681 192.446H49.0751C49.0931 193.022 49.1711 193.523 49.3091 193.949C49.4531 194.375 49.6511 194.732 49.9031 195.02C50.1551 195.302 50.4551 195.515 50.8031 195.659C51.1511 195.797 51.5411 195.866 51.9731 195.866C52.3751 195.866 52.7201 195.821 53.0081 195.731C53.3021 195.635 53.5541 195.533 53.7641 195.425C53.9741 195.317 54.1481 195.218 54.2861 195.128C54.4301 195.032 54.5531 194.984 54.6551 194.984C54.7871 194.984 54.8891 195.035 54.9611 195.137L55.4111 195.722ZM62.8329 189.386C62.7609 189.518 62.6499 189.584 62.4999 189.584C62.4099 189.584 62.3079 189.551 62.1939 189.485C62.0799 189.419 61.9389 189.347 61.7709 189.269C61.6089 189.185 61.4139 189.11 61.1859 189.044C60.9579 188.972 60.6879 188.936 60.3759 188.936C60.1059 188.936 59.8629 188.972 59.6469 189.044C59.4309 189.11 59.2449 189.203 59.0889 189.323C58.9389 189.443 58.8219 189.584 58.7379 189.746C58.6599 189.902 58.6209 190.073 58.6209 190.259C58.6209 190.493 58.6869 190.688 58.8189 190.844C58.9569 191 59.1369 191.135 59.3589 191.249C59.5809 191.363 59.8329 191.465 60.1149 191.555C60.3969 191.639 60.6849 191.732 60.9789 191.834C61.2789 191.93 61.5699 192.038 61.8519 192.158C62.1339 192.278 62.3859 192.428 62.6079 192.608C62.8299 192.788 63.0069 193.01 63.1389 193.274C63.2769 193.532 63.3459 193.844 63.3459 194.21C63.3459 194.63 63.2709 195.02 63.1209 195.38C62.9709 195.734 62.7489 196.043 62.4549 196.307C62.1609 196.565 61.8009 196.769 61.3749 196.919C60.9489 197.069 60.4569 197.144 59.8989 197.144C59.2629 197.144 58.6869 197.042 58.1709 196.838C57.6549 196.628 57.2169 196.361 56.8569 196.037L57.2349 195.425C57.2829 195.347 57.3399 195.287 57.4059 195.245C57.4719 195.203 57.5559 195.182 57.6579 195.182C57.7659 195.182 57.8799 195.224 57.9999 195.308C58.1199 195.392 58.2639 195.485 58.4319 195.587C58.6059 195.689 58.8159 195.782 59.0619 195.866C59.3079 195.95 59.6139 195.992 59.9799 195.992C60.2919 195.992 60.5649 195.953 60.7989 195.875C61.0329 195.791 61.2279 195.68 61.3839 195.542C61.5399 195.404 61.6539 195.245 61.7259 195.065C61.8039 194.885 61.8429 194.693 61.8429 194.489C61.8429 194.237 61.7739 194.03 61.6359 193.868C61.5039 193.7 61.3269 193.559 61.1049 193.445C60.8829 193.325 60.6279 193.223 60.3399 193.139C60.0579 193.049 59.7669 192.956 59.4669 192.86C59.1729 192.764 58.8819 192.656 58.5939 192.536C58.3119 192.41 58.0599 192.254 57.8379 192.068C57.6159 191.882 57.4359 191.654 57.2979 191.384C57.1659 191.108 57.0999 190.775 57.0999 190.385C57.0999 190.037 57.1719 189.704 57.3159 189.386C57.4599 189.062 57.6699 188.78 57.9459 188.54C58.2219 188.294 58.5609 188.099 58.9629 187.955C59.3649 187.811 59.8239 187.739 60.3399 187.739C60.9399 187.739 61.4769 187.835 61.9509 188.027C62.4309 188.213 62.8449 188.471 63.1929 188.801L62.8329 189.386ZM71.412 191.447C71.412 191.075 71.358 190.736 71.25 190.43C71.148 190.118 70.995 189.851 70.791 189.629C70.593 189.401 70.35 189.227 70.062 189.107C69.774 188.981 69.447 188.918 69.081 188.918C68.313 188.918 67.704 189.143 67.254 189.593C66.81 190.037 66.534 190.655 66.426 191.447H71.412ZM72.708 195.722C72.51 195.962 72.273 196.172 71.997 196.352C71.721 196.526 71.424 196.67 71.106 196.784C70.794 196.898 70.47 196.982 70.134 197.036C69.798 197.096 69.465 197.126 69.135 197.126C68.505 197.126 67.923 197.021 67.389 196.811C66.861 196.595 66.402 196.283 66.012 195.875C65.628 195.461 65.328 194.951 65.112 194.345C64.896 193.739 64.788 193.043 64.788 192.257C64.788 191.621 64.884 191.027 65.076 190.475C65.274 189.923 65.556 189.446 65.922 189.044C66.288 188.636 66.735 188.318 67.263 188.09C67.791 187.856 68.385 187.739 69.045 187.739C69.591 187.739 70.095 187.832 70.557 188.018C71.025 188.198 71.427 188.462 71.763 188.81C72.105 189.152 72.372 189.578 72.564 190.088C72.756 190.592 72.852 191.168 72.852 191.816C72.852 192.068 72.825 192.236 72.771 192.32C72.717 192.404 72.615 192.446 72.465 192.446H66.372C66.39 193.022 66.468 193.523 66.606 193.949C66.75 194.375 66.948 194.732 67.2 195.02C67.452 195.302 67.752 195.515 68.1 195.659C68.448 195.797 68.838 195.866 69.27 195.866C69.672 195.866 70.017 195.821 70.305 195.731C70.599 195.635 70.851 195.533 71.061 195.425C71.271 195.317 71.445 195.218 71.583 195.128C71.727 195.032 71.85 194.984 71.952 194.984C72.084 194.984 72.186 195.035 72.258 195.137L72.708 195.722ZM76.3408 189.71C76.6288 189.086 76.9828 188.6 77.4028 188.252C77.8228 187.898 78.3358 187.721 78.9418 187.721C79.1338 187.721 79.3168 187.742 79.4908 187.784C79.6708 187.826 79.8298 187.892 79.9678 187.982L79.8508 189.179C79.8148 189.329 79.7248 189.404 79.5808 189.404C79.4968 189.404 79.3738 189.386 79.2118 189.35C79.0498 189.314 78.8668 189.296 78.6628 189.296C78.3748 189.296 78.1168 189.338 77.8888 189.422C77.6668 189.506 77.4658 189.632 77.2858 189.8C77.1118 189.962 76.9528 190.166 76.8088 190.412C76.6708 190.652 76.5448 190.928 76.4308 191.24V197H74.8198V187.883H75.7378C75.9118 187.883 76.0318 187.916 76.0978 187.982C76.1638 188.048 76.2088 188.162 76.2328 188.324L76.3408 189.71ZM89.1884 187.883L85.4714 197H84.0314L80.3144 187.883H81.6194C81.7514 187.883 81.8594 187.916 81.9434 187.982C82.0274 188.048 82.0844 188.126 82.1144 188.216L84.4274 194.084C84.4994 194.306 84.5624 194.522 84.6164 194.732C84.6704 194.942 84.7214 195.152 84.7694 195.362C84.8174 195.152 84.8684 194.942 84.9224 194.732C84.9764 194.522 85.0424 194.306 85.1204 194.084L87.4604 188.216C87.4964 188.12 87.5564 188.042 87.6404 187.982C87.7244 187.916 87.8234 187.883 87.9374 187.883H89.1884ZM96.5136 191.447C96.5136 191.075 96.4596 190.736 96.3516 190.43C96.2496 190.118 96.0966 189.851 95.8926 189.629C95.6946 189.401 95.4516 189.227 95.1636 189.107C94.8756 188.981 94.5486 188.918 94.1826 188.918C93.4146 188.918 92.8056 189.143 92.3556 189.593C91.9116 190.037 91.6356 190.655 91.5276 191.447H96.5136ZM97.8096 195.722C97.6116 195.962 97.3746 196.172 97.0986 196.352C96.8226 196.526 96.5256 196.67 96.2076 196.784C95.8956 196.898 95.5716 196.982 95.2356 197.036C94.8996 197.096 94.5666 197.126 94.2366 197.126C93.6066 197.126 93.0246 197.021 92.4906 196.811C91.9626 196.595 91.5036 196.283 91.1136 195.875C90.7296 195.461 90.4296 194.951 90.2136 194.345C89.9976 193.739 89.8896 193.043 89.8896 192.257C89.8896 191.621 89.9856 191.027 90.1776 190.475C90.3756 189.923 90.6576 189.446 91.0236 189.044C91.3896 188.636 91.8366 188.318 92.3646 188.09C92.8926 187.856 93.4866 187.739 94.1466 187.739C94.6926 187.739 95.1966 187.832 95.6586 188.018C96.1266 188.198 96.5286 188.462 96.8646 188.81C97.2066 189.152 97.4736 189.578 97.6656 190.088C97.8576 190.592 97.9536 191.168 97.9536 191.816C97.9536 192.068 97.9266 192.236 97.8726 192.32C97.8186 192.404 97.7166 192.446 97.5666 192.446H91.4736C91.4916 193.022 91.5696 193.523 91.7076 193.949C91.8516 194.375 92.0496 194.732 92.3016 195.02C92.5536 195.302 92.8536 195.515 93.2016 195.659C93.5496 195.797 93.9396 195.866 94.3716 195.866C94.7736 195.866 95.1186 195.821 95.4066 195.731C95.7006 195.635 95.9526 195.533 96.1626 195.425C96.3726 195.317 96.5466 195.218 96.6846 195.128C96.8286 195.032 96.9516 194.984 97.0536 194.984C97.1856 194.984 97.2876 195.035 97.3596 195.137L97.8096 195.722ZM116.731 187.883L113.779 197H112.51C112.354 197 112.246 196.898 112.186 196.694L110.17 190.511C110.122 190.373 110.083 190.235 110.053 190.097C110.023 189.953 109.993 189.812 109.963 189.674C109.933 189.812 109.903 189.953 109.873 190.097C109.843 190.235 109.804 190.376 109.756 190.52L107.704 196.694C107.65 196.898 107.53 197 107.344 197H106.138L103.186 187.883H104.446C104.572 187.883 104.677 187.916 104.761 187.982C104.851 188.048 104.911 188.126 104.941 188.216L106.687 194.084C106.789 194.516 106.87 194.924 106.93 195.308C106.984 195.11 107.038 194.909 107.092 194.705C107.152 194.501 107.215 194.294 107.281 194.084L109.207 188.18C109.237 188.09 109.288 188.015 109.36 187.955C109.438 187.895 109.531 187.865 109.639 187.865H110.341C110.461 187.865 110.56 187.895 110.638 187.955C110.716 188.015 110.77 188.09 110.8 188.18L112.681 194.084C112.747 194.294 112.807 194.501 112.861 194.705C112.915 194.909 112.966 195.11 113.014 195.308C113.044 195.11 113.08 194.912 113.122 194.714C113.17 194.51 113.221 194.3 113.275 194.084L115.057 188.216C115.087 188.12 115.144 188.042 115.228 187.982C115.312 187.916 115.411 187.883 115.525 187.883H116.731ZM119.982 187.883V197H118.38V187.883H119.982ZM120.324 185.021C120.324 185.177 120.291 185.324 120.225 185.462C120.165 185.594 120.081 185.714 119.973 185.822C119.871 185.924 119.748 186.005 119.604 186.065C119.466 186.125 119.319 186.155 119.163 186.155C119.007 186.155 118.86 186.125 118.722 186.065C118.59 186.005 118.473 185.924 118.371 185.822C118.269 185.714 118.188 185.594 118.128 185.462C118.068 185.324 118.038 185.177 118.038 185.021C118.038 184.865 118.068 184.718 118.128 184.58C118.188 184.436 118.269 184.313 118.371 184.211C118.473 184.103 118.59 184.019 118.722 183.959C118.86 183.899 119.007 183.869 119.163 183.869C119.319 183.869 119.466 183.899 119.604 183.959C119.748 184.019 119.871 184.103 119.973 184.211C120.081 184.313 120.165 184.436 120.225 184.58C120.291 184.718 120.324 184.865 120.324 185.021ZM125.414 197.144C124.694 197.144 124.139 196.943 123.749 196.541C123.365 196.139 123.173 195.56 123.173 194.804V189.224H122.075C121.979 189.224 121.898 189.197 121.832 189.143C121.766 189.083 121.733 188.993 121.733 188.873V188.234L123.227 188.045L123.596 185.228C123.614 185.138 123.653 185.066 123.713 185.012C123.779 184.952 123.863 184.922 123.965 184.922H124.775V188.063H127.412V189.224H124.775V194.696C124.775 195.08 124.868 195.365 125.054 195.551C125.24 195.737 125.48 195.83 125.774 195.83C125.942 195.83 126.086 195.809 126.206 195.767C126.332 195.719 126.44 195.668 126.53 195.614C126.62 195.56 126.695 195.512 126.755 195.47C126.821 195.422 126.878 195.398 126.926 195.398C127.01 195.398 127.085 195.449 127.151 195.551L127.619 196.316C127.343 196.574 127.01 196.778 126.62 196.928C126.23 197.072 125.828 197.144 125.414 197.144ZM130.677 189.098C131.067 188.684 131.499 188.354 131.973 188.108C132.447 187.862 132.993 187.739 133.611 187.739C134.109 187.739 134.547 187.823 134.925 187.991C135.309 188.153 135.627 188.387 135.879 188.693C136.137 188.993 136.332 189.356 136.464 189.782C136.596 190.208 136.662 190.679 136.662 191.195V197H135.051V191.195C135.051 190.505 134.892 189.971 134.574 189.593C134.262 189.209 133.785 189.017 133.143 189.017C132.669 189.017 132.225 189.131 131.811 189.359C131.403 189.587 131.025 189.896 130.677 190.286V197H129.066V183.743H130.677V189.098ZM148.649 192.896C147.911 192.92 147.281 192.98 146.759 193.076C146.243 193.166 145.82 193.286 145.49 193.436C145.166 193.586 144.929 193.763 144.779 193.967C144.635 194.171 144.563 194.399 144.563 194.651C144.563 194.891 144.602 195.098 144.68 195.272C144.758 195.446 144.863 195.59 144.995 195.704C145.133 195.812 145.292 195.893 145.472 195.947C145.658 195.995 145.856 196.019 146.066 196.019C146.348 196.019 146.606 195.992 146.84 195.938C147.074 195.878 147.293 195.794 147.497 195.686C147.707 195.578 147.905 195.449 148.091 195.299C148.283 195.149 148.469 194.978 148.649 194.786V192.896ZM143.474 189.17C143.978 188.684 144.521 188.321 145.103 188.081C145.685 187.841 146.33 187.721 147.038 187.721C147.548 187.721 148.001 187.805 148.397 187.973C148.793 188.141 149.126 188.375 149.396 188.675C149.666 188.975 149.87 189.338 150.008 189.764C150.146 190.19 150.215 190.658 150.215 191.168V197H149.504C149.348 197 149.228 196.976 149.144 196.928C149.06 196.874 148.994 196.772 148.946 196.622L148.766 195.758C148.526 195.98 148.292 196.178 148.064 196.352C147.836 196.52 147.596 196.664 147.344 196.784C147.092 196.898 146.822 196.985 146.534 197.045C146.252 197.111 145.937 197.144 145.589 197.144C145.235 197.144 144.902 197.096 144.59 197C144.278 196.898 144.005 196.748 143.771 196.55C143.543 196.352 143.36 196.103 143.222 195.803C143.09 195.497 143.024 195.137 143.024 194.723C143.024 194.363 143.123 194.018 143.321 193.688C143.519 193.352 143.84 193.055 144.284 192.797C144.728 192.539 145.307 192.329 146.021 192.167C146.735 191.999 147.611 191.903 148.649 191.879V191.168C148.649 190.46 148.496 189.926 148.19 189.566C147.884 189.2 147.437 189.017 146.849 189.017C146.453 189.017 146.12 189.068 145.85 189.17C145.586 189.266 145.355 189.377 145.157 189.503C144.965 189.623 144.797 189.734 144.653 189.836C144.515 189.932 144.377 189.98 144.239 189.98C144.131 189.98 144.038 189.953 143.96 189.899C143.882 189.839 143.816 189.767 143.762 189.683L143.474 189.17ZM160.153 187.883V197H159.199C158.971 197 158.827 196.889 158.767 196.667L158.641 195.686C158.245 196.124 157.801 196.478 157.309 196.748C156.817 197.012 156.253 197.144 155.617 197.144C155.119 197.144 154.678 197.063 154.294 196.901C153.916 196.733 153.598 196.499 153.34 196.199C153.082 195.899 152.887 195.536 152.755 195.11C152.629 194.684 152.566 194.213 152.566 193.697V187.883H154.168V193.697C154.168 194.387 154.324 194.921 154.636 195.299C154.954 195.677 155.437 195.866 156.085 195.866C156.559 195.866 157 195.755 157.408 195.533C157.822 195.305 158.203 194.993 158.551 194.597V187.883H160.153ZM165.492 197.144C164.772 197.144 164.217 196.943 163.827 196.541C163.443 196.139 163.251 195.56 163.251 194.804V189.224H162.153C162.057 189.224 161.976 189.197 161.91 189.143C161.844 189.083 161.811 188.993 161.811 188.873V188.234L163.305 188.045L163.674 185.228C163.692 185.138 163.731 185.066 163.791 185.012C163.857 184.952 163.941 184.922 164.043 184.922H164.853V188.063H167.49V189.224H164.853V194.696C164.853 195.08 164.946 195.365 165.132 195.551C165.318 195.737 165.558 195.83 165.852 195.83C166.02 195.83 166.164 195.809 166.284 195.767C166.41 195.719 166.518 195.668 166.608 195.614C166.698 195.56 166.773 195.512 166.833 195.47C166.899 195.422 166.956 195.398 167.004 195.398C167.088 195.398 167.163 195.449 167.229 195.551L167.697 196.316C167.421 196.574 167.088 196.778 166.698 196.928C166.308 197.072 165.906 197.144 165.492 197.144ZM172.934 187.739C173.6 187.739 174.2 187.85 174.734 188.072C175.268 188.294 175.724 188.609 176.102 189.017C176.48 189.425 176.768 189.92 176.966 190.502C177.17 191.078 177.272 191.723 177.272 192.437C177.272 193.157 177.17 193.805 176.966 194.381C176.768 194.957 176.48 195.449 176.102 195.857C175.724 196.265 175.268 196.58 174.734 196.802C174.2 197.018 173.6 197.126 172.934 197.126C172.262 197.126 171.656 197.018 171.116 196.802C170.582 196.58 170.126 196.265 169.748 195.857C169.37 195.449 169.079 194.957 168.875 194.381C168.677 193.805 168.578 193.157 168.578 192.437C168.578 191.723 168.677 191.078 168.875 190.502C169.079 189.92 169.37 189.425 169.748 189.017C170.126 188.609 170.582 188.294 171.116 188.072C171.656 187.85 172.262 187.739 172.934 187.739ZM172.934 195.875C173.834 195.875 174.506 195.575 174.95 194.975C175.394 194.369 175.616 193.526 175.616 192.446C175.616 191.36 175.394 190.514 174.95 189.908C174.506 189.302 173.834 188.999 172.934 188.999C172.478 188.999 172.079 189.077 171.737 189.233C171.401 189.389 171.119 189.614 170.891 189.908C170.669 190.202 170.501 190.565 170.387 190.997C170.279 191.423 170.225 191.906 170.225 192.446C170.225 193.526 170.447 194.369 170.891 194.975C171.341 195.575 172.022 195.875 172.934 195.875ZM179.16 190.925H183.606V192.284H179.16V190.925ZM186.596 197V189.251L185.588 189.134C185.456 189.104 185.351 189.059 185.273 188.999C185.195 188.933 185.156 188.84 185.156 188.72V188.063H186.596V187.559C186.596 187.001 186.683 186.491 186.857 186.029C187.031 185.561 187.292 185.159 187.64 184.823C187.988 184.487 188.42 184.226 188.936 184.04C189.458 183.854 190.061 183.761 190.745 183.761C190.973 183.761 191.207 183.776 191.447 183.806C191.687 183.836 191.894 183.881 192.068 183.941L192.005 184.778C191.999 184.838 191.975 184.88 191.933 184.904C191.897 184.928 191.846 184.943 191.78 184.949C191.714 184.955 191.63 184.958 191.528 184.958C191.432 184.952 191.321 184.949 191.195 184.949C190.127 184.949 189.353 185.171 188.873 185.615C188.393 186.053 188.153 186.716 188.153 187.604V188.063H193.661V197H192.05V189.224H188.198V197H186.596ZM197.941 183.743V197H196.339V183.743H197.941ZM202.195 183.743V197H200.593V183.743H202.195ZM210.894 191.447C210.894 191.075 210.84 190.736 210.732 190.43C210.63 190.118 210.477 189.851 210.273 189.629C210.075 189.401 209.832 189.227 209.544 189.107C209.256 188.981 208.929 188.918 208.563 188.918C207.795 188.918 207.186 189.143 206.736 189.593C206.292 190.037 206.016 190.655 205.908 191.447H210.894ZM212.19 195.722C211.992 195.962 211.755 196.172 211.479 196.352C211.203 196.526 210.906 196.67 210.588 196.784C210.276 196.898 209.952 196.982 209.616 197.036C209.28 197.096 208.947 197.126 208.617 197.126C207.987 197.126 207.405 197.021 206.871 196.811C206.343 196.595 205.884 196.283 205.494 195.875C205.11 195.461 204.81 194.951 204.594 194.345C204.378 193.739 204.27 193.043 204.27 192.257C204.27 191.621 204.366 191.027 204.558 190.475C204.756 189.923 205.038 189.446 205.404 189.044C205.77 188.636 206.217 188.318 206.745 188.09C207.273 187.856 207.867 187.739 208.527 187.739C209.073 187.739 209.577 187.832 210.039 188.018C210.507 188.198 210.909 188.462 211.245 188.81C211.587 189.152 211.854 189.578 212.046 190.088C212.238 190.592 212.334 191.168 212.334 191.816C212.334 192.068 212.307 192.236 212.253 192.32C212.199 192.404 212.097 192.446 211.947 192.446H205.854C205.872 193.022 205.95 193.523 206.088 193.949C206.232 194.375 206.43 194.732 206.682 195.02C206.934 195.302 207.234 195.515 207.582 195.659C207.93 195.797 208.32 195.866 208.752 195.866C209.154 195.866 209.499 195.821 209.787 195.731C210.081 195.635 210.333 195.533 210.543 195.425C210.753 195.317 210.927 195.218 211.065 195.128C211.209 195.032 211.332 194.984 211.434 194.984C211.566 194.984 211.668 195.035 211.74 195.137L212.19 195.722ZM220.242 190.052C219.942 189.65 219.618 189.371 219.27 189.215C218.922 189.053 218.532 188.972 218.1 188.972C217.254 188.972 216.603 189.275 216.147 189.881C215.691 190.487 215.463 191.351 215.463 192.473C215.463 193.067 215.514 193.577 215.616 194.003C215.718 194.423 215.868 194.771 216.066 195.047C216.264 195.317 216.507 195.515 216.795 195.641C217.083 195.767 217.41 195.83 217.776 195.83C218.304 195.83 218.763 195.71 219.153 195.47C219.549 195.23 219.912 194.891 220.242 194.453V190.052ZM221.844 183.743V197H220.89C220.662 197 220.518 196.889 220.458 196.667L220.314 195.56C219.924 196.028 219.48 196.406 218.982 196.694C218.484 196.982 217.908 197.126 217.254 197.126C216.732 197.126 216.258 197.027 215.832 196.829C215.406 196.625 215.043 196.328 214.743 195.938C214.443 195.548 214.212 195.062 214.05 194.48C213.888 193.898 213.807 193.229 213.807 192.473C213.807 191.801 213.897 191.177 214.077 190.601C214.257 190.019 214.515 189.515 214.851 189.089C215.187 188.663 215.598 188.33 216.084 188.09C216.576 187.844 217.128 187.721 217.74 187.721C218.298 187.721 218.775 187.817 219.171 188.009C219.573 188.195 219.93 188.456 220.242 188.792V183.743H221.844ZM34.3946 221.883V231H32.7926V221.883H34.3946ZM34.7366 219.021C34.7366 219.177 34.7036 219.324 34.6376 219.462C34.5776 219.594 34.4936 219.714 34.3856 219.822C34.2836 219.924 34.1606 220.005 34.0166 220.065C33.8786 220.125 33.7316 220.155 33.5756 220.155C33.4196 220.155 33.2726 220.125 33.1346 220.065C33.0026 220.005 32.8856 219.924 32.7836 219.822C32.6816 219.714 32.6006 219.594 32.5406 219.462C32.4806 219.324 32.4506 219.177 32.4506 219.021C32.4506 218.865 32.4806 218.718 32.5406 218.58C32.6006 218.436 32.6816 218.313 32.7836 218.211C32.8856 218.103 33.0026 218.019 33.1346 217.959C33.2726 217.899 33.4196 217.869 33.5756 217.869C33.7316 217.869 33.8786 217.899 34.0166 217.959C34.1606 218.019 34.2836 218.103 34.3856 218.211C34.4936 218.313 34.5776 218.436 34.6376 218.58C34.7036 218.718 34.7366 218.865 34.7366 219.021ZM38.5388 223.206C38.7368 222.984 38.9468 222.783 39.1688 222.603C39.3908 222.423 39.6248 222.27 39.8708 222.144C40.1228 222.012 40.3868 221.913 40.6628 221.847C40.9448 221.775 41.2478 221.739 41.5718 221.739C42.0698 221.739 42.5078 221.823 42.8858 221.991C43.2698 222.153 43.5878 222.387 43.8398 222.693C44.0978 222.993 44.2928 223.356 44.4248 223.782C44.5568 224.208 44.6228 224.679 44.6228 225.195V231H43.0118V225.195C43.0118 224.505 42.8528 223.971 42.5348 223.593C42.2228 223.209 41.7458 223.017 41.1038 223.017C40.6298 223.017 40.1858 223.131 39.7718 223.359C39.3638 223.587 38.9858 223.896 38.6378 224.286V231H37.0268V221.883H37.9898C38.2178 221.883 38.3588 221.994 38.4128 222.216L38.5388 223.206ZM47.5173 231V223.251L46.5093 223.134C46.3833 223.104 46.2783 223.059 46.1943 222.999C46.1163 222.933 46.0773 222.84 46.0773 222.72V222.063H47.5173V221.181C47.5173 220.659 47.5893 220.197 47.7333 219.795C47.8833 219.387 48.0933 219.045 48.3633 218.769C48.6393 218.487 48.9693 218.274 49.3533 218.13C49.7373 217.986 50.1693 217.914 50.6493 217.914C51.0573 217.914 51.4323 217.974 51.7743 218.094L51.7383 218.895C51.7263 219.039 51.6453 219.117 51.4953 219.129C51.3513 219.141 51.1563 219.147 50.9103 219.147C50.6343 219.147 50.3823 219.183 50.1543 219.255C49.9323 219.327 49.7403 219.444 49.5783 219.606C49.4163 219.768 49.2903 219.981 49.2003 220.245C49.1163 220.509 49.0743 220.836 49.0743 221.226V222.063H51.7023V223.224H49.1283V231H47.5173ZM56.778 221.739C57.444 221.739 58.044 221.85 58.578 222.072C59.112 222.294 59.568 222.609 59.946 223.017C60.324 223.425 60.612 223.92 60.81 224.502C61.014 225.078 61.116 225.723 61.116 226.437C61.116 227.157 61.014 227.805 60.81 228.381C60.612 228.957 60.324 229.449 59.946 229.857C59.568 230.265 59.112 230.58 58.578 230.802C58.044 231.018 57.444 231.126 56.778 231.126C56.106 231.126 55.5 231.018 54.96 230.802C54.426 230.58 53.97 230.265 53.592 229.857C53.214 229.449 52.923 228.957 52.719 228.381C52.521 227.805 52.422 227.157 52.422 226.437C52.422 225.723 52.521 225.078 52.719 224.502C52.923 223.92 53.214 223.425 53.592 223.017C53.97 222.609 54.426 222.294 54.96 222.072C55.5 221.85 56.106 221.739 56.778 221.739ZM56.778 229.875C57.678 229.875 58.35 229.575 58.794 228.975C59.238 228.369 59.46 227.526 59.46 226.446C59.46 225.36 59.238 224.514 58.794 223.908C58.35 223.302 57.678 222.999 56.778 222.999C56.322 222.999 55.923 223.077 55.581 223.233C55.245 223.389 54.963 223.614 54.735 223.908C54.513 224.202 54.345 224.565 54.231 224.997C54.123 225.423 54.069 225.906 54.069 226.446C54.069 227.526 54.291 228.369 54.735 228.975C55.185 229.575 55.866 229.875 56.778 229.875ZM68.3474 231V223.251L67.3394 223.134C67.2134 223.104 67.1084 223.059 67.0244 222.999C66.9464 222.933 66.9074 222.84 66.9074 222.72V222.063H68.3474V221.181C68.3474 220.659 68.4194 220.197 68.5634 219.795C68.7134 219.387 68.9234 219.045 69.1934 218.769C69.4694 218.487 69.7994 218.274 70.1834 218.13C70.5674 217.986 70.9994 217.914 71.4794 217.914C71.8874 217.914 72.2624 217.974 72.6044 218.094L72.5684 218.895C72.5564 219.039 72.4754 219.117 72.3254 219.129C72.1814 219.141 71.9864 219.147 71.7404 219.147C71.4644 219.147 71.2124 219.183 70.9844 219.255C70.7624 219.327 70.5704 219.444 70.4084 219.606C70.2464 219.768 70.1204 219.981 70.0304 220.245C69.9464 220.509 69.9044 220.836 69.9044 221.226V222.063H72.5324V223.224H69.9584V231H68.3474ZM77.6081 221.739C78.2741 221.739 78.8741 221.85 79.4081 222.072C79.9421 222.294 80.3981 222.609 80.7761 223.017C81.1541 223.425 81.4421 223.92 81.6401 224.502C81.8441 225.078 81.9461 225.723 81.9461 226.437C81.9461 227.157 81.8441 227.805 81.6401 228.381C81.4421 228.957 81.1541 229.449 80.7761 229.857C80.3981 230.265 79.9421 230.58 79.4081 230.802C78.8741 231.018 78.2741 231.126 77.6081 231.126C76.9361 231.126 76.3301 231.018 75.7901 230.802C75.2561 230.58 74.8001 230.265 74.4221 229.857C74.0441 229.449 73.7531 228.957 73.5491 228.381C73.3511 227.805 73.2521 227.157 73.2521 226.437C73.2521 225.723 73.3511 225.078 73.5491 224.502C73.7531 223.92 74.0441 223.425 74.4221 223.017C74.8001 222.609 75.2561 222.294 75.7901 222.072C76.3301 221.85 76.9361 221.739 77.6081 221.739ZM77.6081 229.875C78.5081 229.875 79.1801 229.575 79.6241 228.975C80.0681 228.369 80.2901 227.526 80.2901 226.446C80.2901 225.36 80.0681 224.514 79.6241 223.908C79.1801 223.302 78.5081 222.999 77.6081 222.999C77.1521 222.999 76.7531 223.077 76.4111 223.233C76.0751 223.389 75.7931 223.614 75.5651 223.908C75.3431 224.202 75.1751 224.565 75.0611 224.997C74.9531 225.423 74.8991 225.906 74.8991 226.446C74.8991 227.526 75.1211 228.369 75.5651 228.975C76.0151 229.575 76.6961 229.875 77.6081 229.875ZM85.499 223.71C85.787 223.086 86.141 222.6 86.561 222.252C86.981 221.898 87.494 221.721 88.1 221.721C88.292 221.721 88.475 221.742 88.649 221.784C88.829 221.826 88.988 221.892 89.126 221.982L89.009 223.179C88.973 223.329 88.883 223.404 88.739 223.404C88.655 223.404 88.532 223.386 88.37 223.35C88.208 223.314 88.025 223.296 87.821 223.296C87.533 223.296 87.275 223.338 87.047 223.422C86.825 223.506 86.624 223.632 86.444 223.8C86.27 223.962 86.111 224.166 85.967 224.412C85.829 224.652 85.703 224.928 85.589 225.24V231H83.978V221.883H84.896C85.07 221.883 85.19 221.916 85.256 221.982C85.322 222.048 85.367 222.162 85.391 222.324L85.499 223.71ZM95.3474 231V223.251L94.3394 223.134C94.2134 223.104 94.1084 223.059 94.0244 222.999C93.9464 222.933 93.9074 222.84 93.9074 222.72V222.063H95.3474V221.181C95.3474 220.659 95.4194 220.197 95.5634 219.795C95.7134 219.387 95.9234 219.045 96.1934 218.769C96.4694 218.487 96.7994 218.274 97.1834 218.13C97.5674 217.986 97.9994 217.914 98.4794 217.914C98.8874 217.914 99.2624 217.974 99.6044 218.094L99.5684 218.895C99.5564 219.039 99.4754 219.117 99.3254 219.129C99.1814 219.141 98.9864 219.147 98.7404 219.147C98.4644 219.147 98.2124 219.183 97.9844 219.255C97.7624 219.327 97.5704 219.444 97.4084 219.606C97.2464 219.768 97.1204 219.981 97.0304 220.245C96.9464 220.509 96.9044 220.836 96.9044 221.226V222.063H99.5324V223.224H96.9584V231H95.3474ZM105.952 226.896C105.214 226.92 104.584 226.98 104.062 227.076C103.546 227.166 103.123 227.286 102.793 227.436C102.469 227.586 102.232 227.763 102.082 227.967C101.938 228.171 101.866 228.399 101.866 228.651C101.866 228.891 101.905 229.098 101.983 229.272C102.061 229.446 102.166 229.59 102.298 229.704C102.436 229.812 102.595 229.893 102.775 229.947C102.961 229.995 103.159 230.019 103.369 230.019C103.651 230.019 103.909 229.992 104.143 229.938C104.377 229.878 104.596 229.794 104.8 229.686C105.01 229.578 105.208 229.449 105.394 229.299C105.586 229.149 105.772 228.978 105.952 228.786V226.896ZM100.777 223.17C101.281 222.684 101.824 222.321 102.406 222.081C102.988 221.841 103.633 221.721 104.341 221.721C104.851 221.721 105.304 221.805 105.7 221.973C106.096 222.141 106.429 222.375 106.699 222.675C106.969 222.975 107.173 223.338 107.311 223.764C107.449 224.19 107.518 224.658 107.518 225.168V231H106.807C106.651 231 106.531 230.976 106.447 230.928C106.363 230.874 106.297 230.772 106.249 230.622L106.069 229.758C105.829 229.98 105.595 230.178 105.367 230.352C105.139 230.52 104.899 230.664 104.647 230.784C104.395 230.898 104.125 230.985 103.837 231.045C103.555 231.111 103.24 231.144 102.892 231.144C102.538 231.144 102.205 231.096 101.893 231C101.581 230.898 101.308 230.748 101.074 230.55C100.846 230.352 100.663 230.103 100.525 229.803C100.393 229.497 100.327 229.137 100.327 228.723C100.327 228.363 100.426 228.018 100.624 227.688C100.822 227.352 101.143 227.055 101.587 226.797C102.031 226.539 102.61 226.329 103.324 226.167C104.038 225.999 104.914 225.903 105.952 225.879V225.168C105.952 224.46 105.799 223.926 105.493 223.566C105.187 223.2 104.74 223.017 104.152 223.017C103.756 223.017 103.423 223.068 103.153 223.17C102.889 223.266 102.658 223.377 102.46 223.503C102.268 223.623 102.1 223.734 101.956 223.836C101.818 223.932 101.68 223.98 101.542 223.98C101.434 223.98 101.341 223.953 101.263 223.899C101.185 223.839 101.119 223.767 101.065 223.683L100.777 223.17ZM115.268 223.386C115.196 223.518 115.085 223.584 114.935 223.584C114.845 223.584 114.743 223.551 114.629 223.485C114.515 223.419 114.374 223.347 114.206 223.269C114.044 223.185 113.849 223.11 113.621 223.044C113.393 222.972 113.123 222.936 112.811 222.936C112.541 222.936 112.298 222.972 112.082 223.044C111.866 223.11 111.68 223.203 111.524 223.323C111.374 223.443 111.257 223.584 111.173 223.746C111.095 223.902 111.056 224.073 111.056 224.259C111.056 224.493 111.122 224.688 111.254 224.844C111.392 225 111.572 225.135 111.794 225.249C112.016 225.363 112.268 225.465 112.55 225.555C112.832 225.639 113.12 225.732 113.414 225.834C113.714 225.93 114.005 226.038 114.287 226.158C114.569 226.278 114.821 226.428 115.043 226.608C115.265 226.788 115.442 227.01 115.574 227.274C115.712 227.532 115.781 227.844 115.781 228.21C115.781 228.63 115.706 229.02 115.556 229.38C115.406 229.734 115.184 230.043 114.89 230.307C114.596 230.565 114.236 230.769 113.81 230.919C113.384 231.069 112.892 231.144 112.334 231.144C111.698 231.144 111.122 231.042 110.606 230.838C110.09 230.628 109.652 230.361 109.292 230.037L109.67 229.425C109.718 229.347 109.775 229.287 109.841 229.245C109.907 229.203 109.991 229.182 110.093 229.182C110.201 229.182 110.315 229.224 110.435 229.308C110.555 229.392 110.699 229.485 110.867 229.587C111.041 229.689 111.251 229.782 111.497 229.866C111.743 229.95 112.049 229.992 112.415 229.992C112.727 229.992 113 229.953 113.234 229.875C113.468 229.791 113.663 229.68 113.819 229.542C113.975 229.404 114.089 229.245 114.161 229.065C114.239 228.885 114.278 228.693 114.278 228.489C114.278 228.237 114.209 228.03 114.071 227.868C113.939 227.7 113.762 227.559 113.54 227.445C113.318 227.325 113.063 227.223 112.775 227.139C112.493 227.049 112.202 226.956 111.902 226.86C111.608 226.764 111.317 226.656 111.029 226.536C110.747 226.41 110.495 226.254 110.273 226.068C110.051 225.882 109.871 225.654 109.733 225.384C109.601 225.108 109.535 224.775 109.535 224.385C109.535 224.037 109.607 223.704 109.751 223.386C109.895 223.062 110.105 222.78 110.381 222.54C110.657 222.294 110.996 222.099 111.398 221.955C111.8 221.811 112.259 221.739 112.775 221.739C113.375 221.739 113.912 221.835 114.386 222.027C114.866 222.213 115.28 222.471 115.628 222.801L115.268 223.386ZM120.545 231.144C119.825 231.144 119.27 230.943 118.88 230.541C118.496 230.139 118.304 229.56 118.304 228.804V223.224H117.206C117.11 223.224 117.029 223.197 116.963 223.143C116.897 223.083 116.864 222.993 116.864 222.873V222.234L118.358 222.045L118.727 219.228C118.745 219.138 118.784 219.066 118.844 219.012C118.91 218.952 118.994 218.922 119.096 218.922H119.906V222.063H122.543V223.224H119.906V228.696C119.906 229.08 119.999 229.365 120.185 229.551C120.371 229.737 120.611 229.83 120.905 229.83C121.073 229.83 121.217 229.809 121.337 229.767C121.463 229.719 121.571 229.668 121.661 229.614C121.751 229.56 121.826 229.512 121.886 229.47C121.952 229.422 122.009 229.398 122.057 229.398C122.141 229.398 122.216 229.449 122.282 229.551L122.75 230.316C122.474 230.574 122.141 230.778 121.751 230.928C121.361 231.072 120.959 231.144 120.545 231.144ZM130.246 225.447C130.246 225.075 130.192 224.736 130.084 224.43C129.982 224.118 129.829 223.851 129.625 223.629C129.427 223.401 129.184 223.227 128.896 223.107C128.608 222.981 128.281 222.918 127.915 222.918C127.147 222.918 126.538 223.143 126.088 223.593C125.644 224.037 125.368 224.655 125.26 225.447H130.246ZM131.542 229.722C131.344 229.962 131.107 230.172 130.831 230.352C130.555 230.526 130.258 230.67 129.94 230.784C129.628 230.898 129.304 230.982 128.968 231.036C128.632 231.096 128.299 231.126 127.969 231.126C127.339 231.126 126.757 231.021 126.223 230.811C125.695 230.595 125.236 230.283 124.846 229.875C124.462 229.461 124.162 228.951 123.946 228.345C123.73 227.739 123.622 227.043 123.622 226.257C123.622 225.621 123.718 225.027 123.91 224.475C124.108 223.923 124.39 223.446 124.756 223.044C125.122 222.636 125.569 222.318 126.097 222.09C126.625 221.856 127.219 221.739 127.879 221.739C128.425 221.739 128.929 221.832 129.391 222.018C129.859 222.198 130.261 222.462 130.597 222.81C130.939 223.152 131.206 223.578 131.398 224.088C131.59 224.592 131.686 225.168 131.686 225.816C131.686 226.068 131.659 226.236 131.605 226.32C131.551 226.404 131.449 226.446 131.299 226.446H125.206C125.224 227.022 125.302 227.523 125.44 227.949C125.584 228.375 125.782 228.732 126.034 229.02C126.286 229.302 126.586 229.515 126.934 229.659C127.282 229.797 127.672 229.866 128.104 229.866C128.506 229.866 128.851 229.821 129.139 229.731C129.433 229.635 129.685 229.533 129.895 229.425C130.105 229.317 130.279 229.218 130.417 229.128C130.561 229.032 130.684 228.984 130.786 228.984C130.918 228.984 131.02 229.035 131.092 229.137L131.542 229.722ZM135.175 223.71C135.463 223.086 135.817 222.6 136.237 222.252C136.657 221.898 137.17 221.721 137.776 221.721C137.968 221.721 138.151 221.742 138.325 221.784C138.505 221.826 138.664 221.892 138.802 221.982L138.685 223.179C138.649 223.329 138.559 223.404 138.415 223.404C138.331 223.404 138.208 223.386 138.046 223.35C137.884 223.314 137.701 223.296 137.497 223.296C137.209 223.296 136.951 223.338 136.723 223.422C136.501 223.506 136.3 223.632 136.12 223.8C135.946 223.962 135.787 224.166 135.643 224.412C135.505 224.652 135.379 224.928 135.265 225.24V231H133.654V221.883H134.572C134.746 221.883 134.866 221.916 134.932 221.982C134.998 222.048 135.043 222.162 135.067 222.324L135.175 223.71ZM149.739 223.386C149.667 223.518 149.556 223.584 149.406 223.584C149.316 223.584 149.214 223.551 149.1 223.485C148.986 223.419 148.845 223.347 148.677 223.269C148.515 223.185 148.32 223.11 148.092 223.044C147.864 222.972 147.594 222.936 147.282 222.936C147.012 222.936 146.769 222.972 146.553 223.044C146.337 223.11 146.151 223.203 145.995 223.323C145.845 223.443 145.728 223.584 145.644 223.746C145.566 223.902 145.527 224.073 145.527 224.259C145.527 224.493 145.593 224.688 145.725 224.844C145.863 225 146.043 225.135 146.265 225.249C146.487 225.363 146.739 225.465 147.021 225.555C147.303 225.639 147.591 225.732 147.885 225.834C148.185 225.93 148.476 226.038 148.758 226.158C149.04 226.278 149.292 226.428 149.514 226.608C149.736 226.788 149.913 227.01 150.045 227.274C150.183 227.532 150.252 227.844 150.252 228.21C150.252 228.63 150.177 229.02 150.027 229.38C149.877 229.734 149.655 230.043 149.361 230.307C149.067 230.565 148.707 230.769 148.281 230.919C147.855 231.069 147.363 231.144 146.805 231.144C146.169 231.144 145.593 231.042 145.077 230.838C144.561 230.628 144.123 230.361 143.763 230.037L144.141 229.425C144.189 229.347 144.246 229.287 144.312 229.245C144.378 229.203 144.462 229.182 144.564 229.182C144.672 229.182 144.786 229.224 144.906 229.308C145.026 229.392 145.17 229.485 145.338 229.587C145.512 229.689 145.722 229.782 145.968 229.866C146.214 229.95 146.52 229.992 146.886 229.992C147.198 229.992 147.471 229.953 147.705 229.875C147.939 229.791 148.134 229.68 148.29 229.542C148.446 229.404 148.56 229.245 148.632 229.065C148.71 228.885 148.749 228.693 148.749 228.489C148.749 228.237 148.68 228.03 148.542 227.868C148.41 227.7 148.233 227.559 148.011 227.445C147.789 227.325 147.534 227.223 147.246 227.139C146.964 227.049 146.673 226.956 146.373 226.86C146.079 226.764 145.788 226.656 145.5 226.536C145.218 226.41 144.966 226.254 144.744 226.068C144.522 225.882 144.342 225.654 144.204 225.384C144.072 225.108 144.006 224.775 144.006 224.385C144.006 224.037 144.078 223.704 144.222 223.386C144.366 223.062 144.576 222.78 144.852 222.54C145.128 222.294 145.467 222.099 145.869 221.955C146.271 221.811 146.73 221.739 147.246 221.739C147.846 221.739 148.383 221.835 148.857 222.027C149.337 222.213 149.751 222.471 150.099 222.801L149.739 223.386ZM158.318 225.447C158.318 225.075 158.264 224.736 158.156 224.43C158.054 224.118 157.901 223.851 157.697 223.629C157.499 223.401 157.256 223.227 156.968 223.107C156.68 222.981 156.353 222.918 155.987 222.918C155.219 222.918 154.61 223.143 154.16 223.593C153.716 224.037 153.44 224.655 153.332 225.447H158.318ZM159.614 229.722C159.416 229.962 159.179 230.172 158.903 230.352C158.627 230.526 158.33 230.67 158.012 230.784C157.7 230.898 157.376 230.982 157.04 231.036C156.704 231.096 156.371 231.126 156.041 231.126C155.411 231.126 154.829 231.021 154.295 230.811C153.767 230.595 153.308 230.283 152.918 229.875C152.534 229.461 152.234 228.951 152.018 228.345C151.802 227.739 151.694 227.043 151.694 226.257C151.694 225.621 151.79 225.027 151.982 224.475C152.18 223.923 152.462 223.446 152.828 223.044C153.194 222.636 153.641 222.318 154.169 222.09C154.697 221.856 155.291 221.739 155.951 221.739C156.497 221.739 157.001 221.832 157.463 222.018C157.931 222.198 158.333 222.462 158.669 222.81C159.011 223.152 159.278 223.578 159.47 224.088C159.662 224.592 159.758 225.168 159.758 225.816C159.758 226.068 159.731 226.236 159.677 226.32C159.623 226.404 159.521 226.446 159.371 226.446H153.278C153.296 227.022 153.374 227.523 153.512 227.949C153.656 228.375 153.854 228.732 154.106 229.02C154.358 229.302 154.658 229.515 155.006 229.659C155.354 229.797 155.744 229.866 156.176 229.866C156.578 229.866 156.923 229.821 157.211 229.731C157.505 229.635 157.757 229.533 157.967 229.425C158.177 229.317 158.351 229.218 158.489 229.128C158.633 229.032 158.756 228.984 158.858 228.984C158.99 228.984 159.092 229.035 159.164 229.137L159.614 229.722ZM163.247 223.71C163.535 223.086 163.889 222.6 164.309 222.252C164.729 221.898 165.242 221.721 165.848 221.721C166.04 221.721 166.223 221.742 166.397 221.784C166.577 221.826 166.736 221.892 166.874 221.982L166.757 223.179C166.721 223.329 166.631 223.404 166.487 223.404C166.403 223.404 166.28 223.386 166.118 223.35C165.956 223.314 165.773 223.296 165.569 223.296C165.281 223.296 165.023 223.338 164.795 223.422C164.573 223.506 164.372 223.632 164.192 223.8C164.018 223.962 163.859 224.166 163.715 224.412C163.577 224.652 163.451 224.928 163.337 225.24V231H161.726V221.883H162.644C162.818 221.883 162.938 221.916 163.004 221.982C163.07 222.048 163.115 222.162 163.139 222.324L163.247 223.71ZM176.095 221.883L172.378 231H170.938L167.221 221.883H168.526C168.658 221.883 168.766 221.916 168.85 221.982C168.934 222.048 168.991 222.126 169.021 222.216L171.334 228.084C171.406 228.306 171.469 228.522 171.523 228.732C171.577 228.942 171.628 229.152 171.676 229.362C171.724 229.152 171.775 228.942 171.829 228.732C171.883 228.522 171.949 228.306 172.027 228.084L174.367 222.216C174.403 222.12 174.463 222.042 174.547 221.982C174.631 221.916 174.73 221.883 174.844 221.883H176.095ZM179.256 221.883V231H177.654V221.883H179.256ZM179.598 219.021C179.598 219.177 179.565 219.324 179.499 219.462C179.439 219.594 179.355 219.714 179.247 219.822C179.145 219.924 179.022 220.005 178.878 220.065C178.74 220.125 178.593 220.155 178.437 220.155C178.281 220.155 178.134 220.125 177.996 220.065C177.864 220.005 177.747 219.924 177.645 219.822C177.543 219.714 177.462 219.594 177.402 219.462C177.342 219.324 177.312 219.177 177.312 219.021C177.312 218.865 177.342 218.718 177.402 218.58C177.462 218.436 177.543 218.313 177.645 218.211C177.747 218.103 177.864 218.019 177.996 217.959C178.134 217.899 178.281 217.869 178.437 217.869C178.593 217.869 178.74 217.899 178.878 217.959C179.022 218.019 179.145 218.103 179.247 218.211C179.355 218.313 179.439 218.436 179.499 218.58C179.565 218.718 179.598 218.865 179.598 219.021ZM188.233 223.503C188.185 223.569 188.137 223.62 188.089 223.656C188.041 223.692 187.975 223.71 187.891 223.71C187.801 223.71 187.702 223.674 187.594 223.602C187.486 223.524 187.351 223.44 187.189 223.35C187.033 223.26 186.838 223.179 186.604 223.107C186.376 223.029 186.094 222.99 185.758 222.99C185.308 222.99 184.912 223.071 184.57 223.233C184.228 223.389 183.94 223.617 183.706 223.917C183.478 224.217 183.304 224.58 183.184 225.006C183.07 225.432 183.013 225.909 183.013 226.437C183.013 226.989 183.076 227.481 183.202 227.913C183.328 228.339 183.505 228.699 183.733 228.993C183.967 229.281 184.246 229.503 184.57 229.659C184.9 229.809 185.269 229.884 185.677 229.884C186.067 229.884 186.388 229.839 186.64 229.749C186.892 229.653 187.099 229.548 187.261 229.434C187.429 229.32 187.567 229.218 187.675 229.128C187.789 229.032 187.9 228.984 188.008 228.984C188.14 228.984 188.242 229.035 188.314 229.137L188.764 229.722C188.566 229.968 188.341 230.178 188.089 230.352C187.837 230.526 187.564 230.673 187.27 230.793C186.982 230.907 186.679 230.991 186.361 231.045C186.043 231.099 185.719 231.126 185.389 231.126C184.819 231.126 184.288 231.021 183.796 230.811C183.31 230.601 182.887 230.298 182.527 229.902C182.167 229.5 181.885 229.008 181.681 228.426C181.477 227.844 181.375 227.181 181.375 226.437C181.375 225.759 181.468 225.132 181.654 224.556C181.846 223.98 182.122 223.485 182.482 223.071C182.848 222.651 183.295 222.324 183.823 222.09C184.357 221.856 184.969 221.739 185.659 221.739C186.301 221.739 186.865 221.844 187.351 222.054C187.843 222.258 188.278 222.549 188.656 222.927L188.233 223.503ZM196.428 225.447C196.428 225.075 196.374 224.736 196.266 224.43C196.164 224.118 196.011 223.851 195.807 223.629C195.609 223.401 195.366 223.227 195.078 223.107C194.79 222.981 194.463 222.918 194.097 222.918C193.329 222.918 192.72 223.143 192.27 223.593C191.826 224.037 191.55 224.655 191.442 225.447H196.428ZM197.724 229.722C197.526 229.962 197.289 230.172 197.013 230.352C196.737 230.526 196.44 230.67 196.122 230.784C195.81 230.898 195.486 230.982 195.15 231.036C194.814 231.096 194.481 231.126 194.151 231.126C193.521 231.126 192.939 231.021 192.405 230.811C191.877 230.595 191.418 230.283 191.028 229.875C190.644 229.461 190.344 228.951 190.128 228.345C189.912 227.739 189.804 227.043 189.804 226.257C189.804 225.621 189.9 225.027 190.092 224.475C190.29 223.923 190.572 223.446 190.938 223.044C191.304 222.636 191.751 222.318 192.279 222.09C192.807 221.856 193.401 221.739 194.061 221.739C194.607 221.739 195.111 221.832 195.573 222.018C196.041 222.198 196.443 222.462 196.779 222.81C197.121 223.152 197.388 223.578 197.58 224.088C197.772 224.592 197.868 225.168 197.868 225.816C197.868 226.068 197.841 226.236 197.787 226.32C197.733 226.404 197.631 226.446 197.481 226.446H191.388C191.406 227.022 191.484 227.523 191.622 227.949C191.766 228.375 191.964 228.732 192.216 229.02C192.468 229.302 192.768 229.515 193.116 229.659C193.464 229.797 193.854 229.866 194.286 229.866C194.688 229.866 195.033 229.821 195.321 229.731C195.615 229.635 195.867 229.533 196.077 229.425C196.287 229.317 196.461 229.218 196.599 229.128C196.743 229.032 196.866 228.984 196.968 228.984C197.1 228.984 197.202 229.035 197.274 229.137L197.724 229.722Z" fill="black"/>
</svg>
