<svg width="230" height="241" viewBox="0 0 230 241" fill="none" xmlns="http://www.w3.org/2000/svg">
<circle cx="134" cy="11" r="7.5" fill="#142893" stroke="white"/>
<path d="M150.87 41.2897C151.885 32.1655 146.81 20 140.044 20H128.879C123.465 20 117.375 28.4483 118.052 41.2897C118.841 41.7402 121.435 42.7766 125.495 43.3172V66.2965L128.879 69H141.397L142.699 67.6483L143.765 66.2965L144.442 43.3172C145.795 43.3172 148.976 42.9117 150.87 41.2897Z" fill="#142893" stroke="white" stroke-linecap="round" stroke-linejoin="round"/>
<circle cx="115" cy="13" r="7.5" fill="#1E38C1" stroke="white"/>
<path d="M131.867 44.2897C132.912 35.1655 127.683 23 120.712 23H109.208C103.631 23 97.3561 31.4483 98.0533 44.2897C98.8667 44.7402 101.539 45.7766 105.722 46.3172V69.2965L109.208 72H122.106L123.447 70.6483L124.546 69.2965L125.243 46.3172C126.638 46.3172 129.914 45.9117 131.867 44.2897Z" fill="#1E38C1" stroke="white" stroke-linecap="round" stroke-linejoin="round"/>
<path d="M102.5 20C102.5 24.114 98.9473 27.5 94.5 27.5C90.0527 27.5 86.5 24.114 86.5 20C86.5 15.886 90.0527 12.5 94.5 12.5C98.9473 12.5 102.5 15.886 102.5 20Z" fill="#294CFF" stroke="white"/>
<path d="M111.87 49.8552C112.885 40.9172 107.81 29 101.044 29H89.8785C84.4651 29 78.375 37.2759 79.0517 49.8552C79.8412 50.2966 82.4351 51.3117 86.4951 51.8414V74.3517L89.8785 77H102.397L103.699 75.6759L104.765 74.3517L105.442 51.8414C106.795 51.8414 109.976 51.4441 111.87 49.8552Z" fill="#294CFF" stroke="white" stroke-linecap="round" stroke-linejoin="round"/>
<path d="M67.632 96.103L62.376 109H60.81L55.554 96.103H56.949C57.105 96.103 57.231 96.142 57.327 96.22C57.423 96.298 57.495 96.397 57.543 96.517L61.179 105.616C61.257 105.82 61.332 106.042 61.404 106.282C61.482 106.522 61.551 106.774 61.611 107.038C61.671 106.774 61.734 106.522 61.8 106.282C61.866 106.042 61.938 105.82 62.016 105.616L65.643 96.517C65.679 96.415 65.748 96.322 65.85 96.238C65.958 96.148 66.087 96.103 66.237 96.103H67.632ZM70.6426 99.883V109H69.0406V99.883H70.6426ZM70.9846 97.021C70.9846 97.177 70.9516 97.324 70.8856 97.462C70.8256 97.594 70.7416 97.714 70.6336 97.822C70.5316 97.924 70.4086 98.005 70.2646 98.065C70.1266 98.125 69.9796 98.155 69.8236 98.155C69.6676 98.155 69.5206 98.125 69.3826 98.065C69.2506 98.005 69.1336 97.924 69.0316 97.822C68.9296 97.714 68.8486 97.594 68.7886 97.462C68.7286 97.324 68.6986 97.177 68.6986 97.021C68.6986 96.865 68.7286 96.718 68.7886 96.58C68.8486 96.436 68.9296 96.313 69.0316 96.211C69.1336 96.103 69.2506 96.019 69.3826 95.959C69.5206 95.899 69.6676 95.869 69.8236 95.869C69.9796 95.869 70.1266 95.899 70.2646 95.959C70.4086 96.019 70.5316 96.103 70.6336 96.211C70.7416 96.313 70.8256 96.436 70.8856 96.58C70.9516 96.718 70.9846 96.865 70.9846 97.021ZM74.7959 101.71C75.0839 101.086 75.4379 100.6 75.8579 100.252C76.2779 99.898 76.7909 99.721 77.3969 99.721C77.5889 99.721 77.7719 99.742 77.9459 99.784C78.1259 99.826 78.2849 99.892 78.4229 99.982L78.3059 101.179C78.2699 101.329 78.1799 101.404 78.0359 101.404C77.9519 101.404 77.8289 101.386 77.6669 101.35C77.5049 101.314 77.3219 101.296 77.1179 101.296C76.8299 101.296 76.5719 101.338 76.3439 101.422C76.1219 101.506 75.9209 101.632 75.7409 101.8C75.5669 101.962 75.4079 102.166 75.2639 102.412C75.1259 102.652 74.9999 102.928 74.8859 103.24V109H73.2749V99.883H74.1929C74.3669 99.883 74.4869 99.916 74.5529 99.982C74.6189 100.048 74.6639 100.162 74.6879 100.324L74.7959 101.71ZM82.6305 109.144C81.9105 109.144 81.3555 108.943 80.9655 108.541C80.5815 108.139 80.3895 107.56 80.3895 106.804V101.224H79.2915C79.1955 101.224 79.1145 101.197 79.0485 101.143C78.9825 101.083 78.9495 100.993 78.9495 100.873V100.234L80.4435 100.045L80.8125 97.228C80.8305 97.138 80.8695 97.066 80.9295 97.012C80.9955 96.952 81.0795 96.922 81.1815 96.922H81.9915V100.063H84.6285V101.224H81.9915V106.696C81.9915 107.08 82.0845 107.365 82.2705 107.551C82.4565 107.737 82.6965 107.83 82.9905 107.83C83.1585 107.83 83.3025 107.809 83.4225 107.767C83.5485 107.719 83.6565 107.668 83.7465 107.614C83.8365 107.56 83.9115 107.512 83.9715 107.47C84.0375 107.422 84.0945 107.398 84.1425 107.398C84.2265 107.398 84.3015 107.449 84.3675 107.551L84.8355 108.316C84.5595 108.574 84.2265 108.778 83.8365 108.928C83.4465 109.072 83.0445 109.144 82.6305 109.144ZM93.7797 99.883V109H92.8257C92.5977 109 92.4537 108.889 92.3937 108.667L92.2677 107.686C91.8717 108.124 91.4277 108.478 90.9357 108.748C90.4437 109.012 89.8797 109.144 89.2437 109.144C88.7457 109.144 88.3047 109.063 87.9207 108.901C87.5427 108.733 87.2247 108.499 86.9667 108.199C86.7087 107.899 86.5137 107.536 86.3817 107.11C86.2557 106.684 86.1927 106.213 86.1927 105.697V99.883H87.7947V105.697C87.7947 106.387 87.9507 106.921 88.2627 107.299C88.5807 107.677 89.0637 107.866 89.7117 107.866C90.1857 107.866 90.6267 107.755 91.0347 107.533C91.4487 107.305 91.8297 106.993 92.1777 106.597V99.883H93.7797ZM101.261 104.896C100.523 104.92 99.8928 104.98 99.3708 105.076C98.8548 105.166 98.4318 105.286 98.1018 105.436C97.7778 105.586 97.5408 105.763 97.3908 105.967C97.2468 106.171 97.1748 106.399 97.1748 106.651C97.1748 106.891 97.2138 107.098 97.2918 107.272C97.3698 107.446 97.4748 107.59 97.6068 107.704C97.7448 107.812 97.9038 107.893 98.0838 107.947C98.2698 107.995 98.4678 108.019 98.6778 108.019C98.9598 108.019 99.2178 107.992 99.4518 107.938C99.6858 107.878 99.9048 107.794 100.109 107.686C100.319 107.578 100.517 107.449 100.703 107.299C100.895 107.149 101.081 106.978 101.261 106.786V104.896ZM96.0858 101.17C96.5898 100.684 97.1328 100.321 97.7148 100.081C98.2968 99.841 98.9418 99.721 99.6498 99.721C100.16 99.721 100.613 99.805 101.009 99.973C101.405 100.141 101.738 100.375 102.008 100.675C102.278 100.975 102.482 101.338 102.62 101.764C102.758 102.19 102.827 102.658 102.827 103.168V109H102.116C101.96 109 101.84 108.976 101.756 108.928C101.672 108.874 101.606 108.772 101.558 108.622L101.378 107.758C101.138 107.98 100.904 108.178 100.676 108.352C100.448 108.52 100.208 108.664 99.9558 108.784C99.7038 108.898 99.4338 108.985 99.1458 109.045C98.8638 109.111 98.5488 109.144 98.2008 109.144C97.8468 109.144 97.5138 109.096 97.2018 109C96.8898 108.898 96.6168 108.748 96.3828 108.55C96.1548 108.352 95.9718 108.103 95.8338 107.803C95.7018 107.497 95.6358 107.137 95.6358 106.723C95.6358 106.363 95.7348 106.018 95.9328 105.688C96.1308 105.352 96.4518 105.055 96.8958 104.797C97.3398 104.539 97.9188 104.329 98.6328 104.167C99.3468 103.999 100.223 103.903 101.261 103.879V103.168C101.261 102.46 101.108 101.926 100.802 101.566C100.496 101.2 100.049 101.017 99.4608 101.017C99.0648 101.017 98.7318 101.068 98.4618 101.17C98.1978 101.266 97.9668 101.377 97.7688 101.503C97.5768 101.623 97.4088 101.734 97.2648 101.836C97.1268 101.932 96.9888 101.98 96.8508 101.98C96.7428 101.98 96.6498 101.953 96.5718 101.899C96.4938 101.839 96.4278 101.767 96.3738 101.683L96.0858 101.17ZM106.923 95.743V109H105.321V95.743H106.923ZM115.494 102.556C115.494 103.348 115.602 104.059 115.818 104.689C116.034 105.313 116.34 105.844 116.736 106.282C117.138 106.714 117.621 107.047 118.185 107.281C118.749 107.509 119.376 107.623 120.066 107.623C120.762 107.623 121.392 107.509 121.956 107.281C122.52 107.047 123 106.714 123.396 106.282C123.792 105.844 124.098 105.313 124.314 104.689C124.53 104.059 124.638 103.348 124.638 102.556C124.638 101.764 124.53 101.053 124.314 100.423C124.098 99.793 123.792 99.262 123.396 98.83C123 98.392 122.52 98.056 121.956 97.822C121.392 97.588 120.762 97.471 120.066 97.471C119.376 97.471 118.749 97.588 118.185 97.822C117.621 98.056 117.138 98.392 116.736 98.83C116.34 99.262 116.034 99.793 115.818 100.423C115.602 101.053 115.494 101.764 115.494 102.556ZM127.023 111.664H125.583C125.367 111.664 125.175 111.634 125.007 111.574C124.839 111.514 124.686 111.409 124.548 111.259L122.289 108.793C121.605 109.021 120.864 109.135 120.066 109.135C119.118 109.135 118.254 108.976 117.474 108.658C116.694 108.334 116.025 107.881 115.467 107.299C114.909 106.717 114.477 106.024 114.171 105.22C113.865 104.41 113.712 103.522 113.712 102.556C113.712 101.59 113.865 100.705 114.171 99.901C114.477 99.091 114.909 98.395 115.467 97.813C116.025 97.225 116.694 96.769 117.474 96.445C118.254 96.121 119.118 95.959 120.066 95.959C121.014 95.959 121.878 96.121 122.658 96.445C123.444 96.769 124.116 97.225 124.674 97.813C125.232 98.395 125.664 99.091 125.97 99.901C126.276 100.705 126.429 101.59 126.429 102.556C126.429 103.162 126.366 103.738 126.24 104.284C126.12 104.83 125.943 105.34 125.709 105.814C125.475 106.282 125.19 106.708 124.854 107.092C124.518 107.476 124.14 107.809 123.72 108.091L127.023 111.664ZM135.897 99.883V109H134.943C134.715 109 134.571 108.889 134.511 108.667L134.385 107.686C133.989 108.124 133.545 108.478 133.053 108.748C132.561 109.012 131.997 109.144 131.361 109.144C130.863 109.144 130.422 109.063 130.038 108.901C129.66 108.733 129.342 108.499 129.084 108.199C128.826 107.899 128.631 107.536 128.499 107.11C128.373 106.684 128.31 106.213 128.31 105.697V99.883H129.912V105.697C129.912 106.387 130.068 106.921 130.38 107.299C130.698 107.677 131.181 107.866 131.829 107.866C132.303 107.866 132.744 107.755 133.152 107.533C133.566 107.305 133.947 106.993 134.295 106.597V99.883H135.897ZM144.539 103.447C144.539 103.075 144.485 102.736 144.377 102.43C144.275 102.118 144.122 101.851 143.918 101.629C143.72 101.401 143.477 101.227 143.189 101.107C142.901 100.981 142.574 100.918 142.208 100.918C141.44 100.918 140.831 101.143 140.381 101.593C139.937 102.037 139.661 102.655 139.553 103.447H144.539ZM145.835 107.722C145.637 107.962 145.4 108.172 145.124 108.352C144.848 108.526 144.551 108.67 144.233 108.784C143.921 108.898 143.597 108.982 143.261 109.036C142.925 109.096 142.592 109.126 142.262 109.126C141.632 109.126 141.05 109.021 140.516 108.811C139.988 108.595 139.529 108.283 139.139 107.875C138.755 107.461 138.455 106.951 138.239 106.345C138.023 105.739 137.915 105.043 137.915 104.257C137.915 103.621 138.011 103.027 138.203 102.475C138.401 101.923 138.683 101.446 139.049 101.044C139.415 100.636 139.862 100.318 140.39 100.09C140.918 99.856 141.512 99.739 142.172 99.739C142.718 99.739 143.222 99.832 143.684 100.018C144.152 100.198 144.554 100.462 144.89 100.81C145.232 101.152 145.499 101.578 145.691 102.088C145.883 102.592 145.979 103.168 145.979 103.816C145.979 104.068 145.952 104.236 145.898 104.32C145.844 104.404 145.742 104.446 145.592 104.446H139.499C139.517 105.022 139.595 105.523 139.733 105.949C139.877 106.375 140.075 106.732 140.327 107.02C140.579 107.302 140.879 107.515 141.227 107.659C141.575 107.797 141.965 107.866 142.397 107.866C142.799 107.866 143.144 107.821 143.432 107.731C143.726 107.635 143.978 107.533 144.188 107.425C144.398 107.317 144.572 107.218 144.71 107.128C144.854 107.032 144.977 106.984 145.079 106.984C145.211 106.984 145.313 107.035 145.385 107.137L145.835 107.722ZM155.444 99.883V109H154.49C154.262 109 154.118 108.889 154.058 108.667L153.932 107.686C153.536 108.124 153.092 108.478 152.6 108.748C152.108 109.012 151.544 109.144 150.908 109.144C150.41 109.144 149.969 109.063 149.585 108.901C149.207 108.733 148.889 108.499 148.631 108.199C148.373 107.899 148.178 107.536 148.046 107.11C147.92 106.684 147.857 106.213 147.857 105.697V99.883H149.459V105.697C149.459 106.387 149.615 106.921 149.927 107.299C150.245 107.677 150.728 107.866 151.376 107.866C151.85 107.866 152.291 107.755 152.699 107.533C153.113 107.305 153.494 106.993 153.842 106.597V99.883H155.444ZM164.086 103.447C164.086 103.075 164.032 102.736 163.924 102.43C163.822 102.118 163.669 101.851 163.465 101.629C163.267 101.401 163.024 101.227 162.736 101.107C162.448 100.981 162.121 100.918 161.755 100.918C160.987 100.918 160.378 101.143 159.928 101.593C159.484 102.037 159.208 102.655 159.1 103.447H164.086ZM165.382 107.722C165.184 107.962 164.947 108.172 164.671 108.352C164.395 108.526 164.098 108.67 163.78 108.784C163.468 108.898 163.144 108.982 162.808 109.036C162.472 109.096 162.139 109.126 161.809 109.126C161.179 109.126 160.597 109.021 160.063 108.811C159.535 108.595 159.076 108.283 158.686 107.875C158.302 107.461 158.002 106.951 157.786 106.345C157.57 105.739 157.462 105.043 157.462 104.257C157.462 103.621 157.558 103.027 157.75 102.475C157.948 101.923 158.23 101.446 158.596 101.044C158.962 100.636 159.409 100.318 159.937 100.09C160.465 99.856 161.059 99.739 161.719 99.739C162.265 99.739 162.769 99.832 163.231 100.018C163.699 100.198 164.101 100.462 164.437 100.81C164.779 101.152 165.046 101.578 165.238 102.088C165.43 102.592 165.526 103.168 165.526 103.816C165.526 104.068 165.499 104.236 165.445 104.32C165.391 104.404 165.289 104.446 165.139 104.446H159.046C159.064 105.022 159.142 105.523 159.28 105.949C159.424 106.375 159.622 106.732 159.874 107.02C160.126 107.302 160.426 107.515 160.774 107.659C161.122 107.797 161.512 107.866 161.944 107.866C162.346 107.866 162.691 107.821 162.979 107.731C163.273 107.635 163.525 107.533 163.735 107.425C163.945 107.317 164.119 107.218 164.257 107.128C164.401 107.032 164.524 106.984 164.626 106.984C164.758 106.984 164.86 107.035 164.932 107.137L165.382 107.722ZM172.804 101.386C172.732 101.518 172.621 101.584 172.471 101.584C172.381 101.584 172.279 101.551 172.165 101.485C172.051 101.419 171.91 101.347 171.742 101.269C171.58 101.185 171.385 101.11 171.157 101.044C170.929 100.972 170.659 100.936 170.347 100.936C170.077 100.936 169.834 100.972 169.618 101.044C169.402 101.11 169.216 101.203 169.06 101.323C168.91 101.443 168.793 101.584 168.709 101.746C168.631 101.902 168.592 102.073 168.592 102.259C168.592 102.493 168.658 102.688 168.79 102.844C168.928 103 169.108 103.135 169.33 103.249C169.552 103.363 169.804 103.465 170.086 103.555C170.368 103.639 170.656 103.732 170.95 103.834C171.25 103.93 171.541 104.038 171.823 104.158C172.105 104.278 172.357 104.428 172.579 104.608C172.801 104.788 172.978 105.01 173.11 105.274C173.248 105.532 173.317 105.844 173.317 106.21C173.317 106.63 173.242 107.02 173.092 107.38C172.942 107.734 172.72 108.043 172.426 108.307C172.132 108.565 171.772 108.769 171.346 108.919C170.92 109.069 170.428 109.144 169.87 109.144C169.234 109.144 168.658 109.042 168.142 108.838C167.626 108.628 167.188 108.361 166.828 108.037L167.206 107.425C167.254 107.347 167.311 107.287 167.377 107.245C167.443 107.203 167.527 107.182 167.629 107.182C167.737 107.182 167.851 107.224 167.971 107.308C168.091 107.392 168.235 107.485 168.403 107.587C168.577 107.689 168.787 107.782 169.033 107.866C169.279 107.95 169.585 107.992 169.951 107.992C170.263 107.992 170.536 107.953 170.77 107.875C171.004 107.791 171.199 107.68 171.355 107.542C171.511 107.404 171.625 107.245 171.697 107.065C171.775 106.885 171.814 106.693 171.814 106.489C171.814 106.237 171.745 106.03 171.607 105.868C171.475 105.7 171.298 105.559 171.076 105.445C170.854 105.325 170.599 105.223 170.311 105.139C170.029 105.049 169.738 104.956 169.438 104.86C169.144 104.764 168.853 104.656 168.565 104.536C168.283 104.41 168.031 104.254 167.809 104.068C167.587 103.882 167.407 103.654 167.269 103.384C167.137 103.108 167.071 102.775 167.071 102.385C167.071 102.037 167.143 101.704 167.287 101.386C167.431 101.062 167.641 100.78 167.917 100.54C168.193 100.294 168.532 100.099 168.934 99.955C169.336 99.811 169.795 99.739 170.311 99.739C170.911 99.739 171.448 99.835 171.922 100.027C172.402 100.213 172.816 100.471 173.164 100.801L172.804 101.386Z" fill="black"/>
<path d="M26.259 158.545C26.259 159.265 26.169 159.91 25.989 160.48C25.815 161.05 25.554 161.533 25.206 161.929C24.864 162.319 24.441 162.619 23.937 162.829C23.433 163.039 22.854 163.144 22.2 163.144C21.606 163.144 21 163.06 20.382 162.892C20.394 162.718 20.409 162.547 20.427 162.379C20.445 162.205 20.46 162.034 20.472 161.866C20.484 161.764 20.52 161.683 20.58 161.623C20.646 161.557 20.745 161.524 20.877 161.524C20.985 161.524 21.126 161.551 21.3 161.605C21.48 161.659 21.72 161.686 22.02 161.686C22.416 161.686 22.77 161.626 23.082 161.506C23.394 161.386 23.655 161.2 23.865 160.948C24.075 160.696 24.234 160.375 24.342 159.985C24.456 159.589 24.513 159.121 24.513 158.581V150.103H26.259V158.545ZM32.5729 153.739C33.2389 153.739 33.8389 153.85 34.3729 154.072C34.9069 154.294 35.3629 154.609 35.7409 155.017C36.1189 155.425 36.4069 155.92 36.6049 156.502C36.8089 157.078 36.9109 157.723 36.9109 158.437C36.9109 159.157 36.8089 159.805 36.6049 160.381C36.4069 160.957 36.1189 161.449 35.7409 161.857C35.3629 162.265 34.9069 162.58 34.3729 162.802C33.8389 163.018 33.2389 163.126 32.5729 163.126C31.9009 163.126 31.2949 163.018 30.7549 162.802C30.2209 162.58 29.7649 162.265 29.3869 161.857C29.0089 161.449 28.7179 160.957 28.5139 160.381C28.3159 159.805 28.2169 159.157 28.2169 158.437C28.2169 157.723 28.3159 157.078 28.5139 156.502C28.7179 155.92 29.0089 155.425 29.3869 155.017C29.7649 154.609 30.2209 154.294 30.7549 154.072C31.2949 153.85 31.9009 153.739 32.5729 153.739ZM32.5729 161.875C33.4729 161.875 34.1449 161.575 34.5889 160.975C35.0329 160.369 35.2549 159.526 35.2549 158.446C35.2549 157.36 35.0329 156.514 34.5889 155.908C34.1449 155.302 33.4729 154.999 32.5729 154.999C32.1169 154.999 31.7179 155.077 31.3759 155.233C31.0399 155.389 30.7579 155.614 30.5299 155.908C30.3079 156.202 30.1399 156.565 30.0259 156.997C29.9179 157.423 29.8639 157.906 29.8639 158.446C29.8639 159.526 30.0859 160.369 30.5299 160.975C30.9799 161.575 31.6609 161.875 32.5729 161.875ZM40.6348 153.883V163H39.0328V153.883H40.6348ZM40.9768 151.021C40.9768 151.177 40.9438 151.324 40.8778 151.462C40.8178 151.594 40.7338 151.714 40.6258 151.822C40.5238 151.924 40.4008 152.005 40.2568 152.065C40.1188 152.125 39.9718 152.155 39.8158 152.155C39.6598 152.155 39.5128 152.125 39.3748 152.065C39.2428 152.005 39.1258 151.924 39.0238 151.822C38.9218 151.714 38.8408 151.594 38.7808 151.462C38.7208 151.324 38.6908 151.177 38.6908 151.021C38.6908 150.865 38.7208 150.718 38.7808 150.58C38.8408 150.436 38.9218 150.313 39.0238 150.211C39.1258 150.103 39.2428 150.019 39.3748 149.959C39.5128 149.899 39.6598 149.869 39.8158 149.869C39.9718 149.869 40.1188 149.899 40.2568 149.959C40.4008 150.019 40.5238 150.103 40.6258 150.211C40.7338 150.313 40.8178 150.436 40.8778 150.58C40.9438 150.718 40.9768 150.865 40.9768 151.021ZM44.779 155.206C44.977 154.984 45.187 154.783 45.409 154.603C45.631 154.423 45.865 154.27 46.111 154.144C46.363 154.012 46.627 153.913 46.903 153.847C47.185 153.775 47.488 153.739 47.812 153.739C48.31 153.739 48.748 153.823 49.126 153.991C49.51 154.153 49.828 154.387 50.08 154.693C50.338 154.993 50.533 155.356 50.665 155.782C50.797 156.208 50.863 156.679 50.863 157.195V163H49.252V157.195C49.252 156.505 49.093 155.971 48.775 155.593C48.463 155.209 47.986 155.017 47.344 155.017C46.87 155.017 46.426 155.131 46.012 155.359C45.604 155.587 45.226 155.896 44.878 156.286V163H43.267V153.883H44.23C44.458 153.883 44.599 153.994 44.653 154.216L44.779 155.206ZM58.5036 163V155.251L57.4956 155.134C57.3696 155.104 57.2646 155.059 57.1806 154.999C57.1026 154.933 57.0636 154.84 57.0636 154.72V154.063H58.5036V153.181C58.5036 152.659 58.5756 152.197 58.7196 151.795C58.8696 151.387 59.0796 151.045 59.3496 150.769C59.6256 150.487 59.9556 150.274 60.3396 150.13C60.7236 149.986 61.1556 149.914 61.6356 149.914C62.0436 149.914 62.4186 149.974 62.7606 150.094L62.7246 150.895C62.7126 151.039 62.6316 151.117 62.4816 151.129C62.3376 151.141 62.1426 151.147 61.8966 151.147C61.6206 151.147 61.3686 151.183 61.1406 151.255C60.9186 151.327 60.7266 151.444 60.5646 151.606C60.4026 151.768 60.2766 151.981 60.1866 152.245C60.1026 152.509 60.0606 152.836 60.0606 153.226V154.063H62.6886V155.224H60.1146V163H58.5036ZM65.7412 155.71C66.0292 155.086 66.3832 154.6 66.8032 154.252C67.2232 153.898 67.7362 153.721 68.3422 153.721C68.5342 153.721 68.7172 153.742 68.8912 153.784C69.0712 153.826 69.2302 153.892 69.3682 153.982L69.2512 155.179C69.2152 155.329 69.1252 155.404 68.9812 155.404C68.8972 155.404 68.7742 155.386 68.6122 155.35C68.4502 155.314 68.2672 155.296 68.0632 155.296C67.7752 155.296 67.5172 155.338 67.2892 155.422C67.0672 155.506 66.8662 155.632 66.6862 155.8C66.5122 155.962 66.3532 156.166 66.2092 156.412C66.0712 156.652 65.9452 156.928 65.8312 157.24V163H64.2202V153.883H65.1382C65.3122 153.883 65.4322 153.916 65.4982 153.982C65.5642 154.048 65.6092 154.162 65.6332 154.324L65.7412 155.71ZM74.2507 153.739C74.9167 153.739 75.5167 153.85 76.0507 154.072C76.5847 154.294 77.0407 154.609 77.4187 155.017C77.7967 155.425 78.0847 155.92 78.2827 156.502C78.4867 157.078 78.5887 157.723 78.5887 158.437C78.5887 159.157 78.4867 159.805 78.2827 160.381C78.0847 160.957 77.7967 161.449 77.4187 161.857C77.0407 162.265 76.5847 162.58 76.0507 162.802C75.5167 163.018 74.9167 163.126 74.2507 163.126C73.5787 163.126 72.9727 163.018 72.4327 162.802C71.8987 162.58 71.4427 162.265 71.0647 161.857C70.6867 161.449 70.3957 160.957 70.1917 160.381C69.9937 159.805 69.8947 159.157 69.8947 158.437C69.8947 157.723 69.9937 157.078 70.1917 156.502C70.3957 155.92 70.6867 155.425 71.0647 155.017C71.4427 154.609 71.8987 154.294 72.4327 154.072C72.9727 153.85 73.5787 153.739 74.2507 153.739ZM74.2507 161.875C75.1507 161.875 75.8227 161.575 76.2667 160.975C76.7107 160.369 76.9327 159.526 76.9327 158.446C76.9327 157.36 76.7107 156.514 76.2667 155.908C75.8227 155.302 75.1507 154.999 74.2507 154.999C73.7947 154.999 73.3957 155.077 73.0537 155.233C72.7177 155.389 72.4357 155.614 72.2077 155.908C71.9857 156.202 71.8177 156.565 71.7037 156.997C71.5957 157.423 71.5417 157.906 71.5417 158.446C71.5417 159.526 71.7637 160.369 72.2077 160.975C72.6577 161.575 73.3387 161.875 74.2507 161.875ZM80.6206 163V153.883H81.5836C81.8116 153.883 81.9526 153.994 82.0066 154.216L82.1236 155.152C82.4596 154.738 82.8376 154.399 83.2576 154.135C83.6776 153.871 84.1636 153.739 84.7156 153.739C85.3276 153.739 85.8226 153.91 86.2006 154.252C86.5846 154.594 86.8606 155.056 87.0286 155.638C87.1606 155.308 87.3286 155.023 87.5326 154.783C87.7426 154.543 87.9766 154.345 88.2346 154.189C88.4926 154.033 88.7656 153.919 89.0536 153.847C89.3476 153.775 89.6446 153.739 89.9446 153.739C90.4246 153.739 90.8506 153.817 91.2226 153.973C91.6006 154.123 91.9186 154.345 92.1766 154.639C92.4406 154.933 92.6416 155.296 92.7796 155.728C92.9176 156.154 92.9866 156.643 92.9866 157.195V163H91.3756V157.195C91.3756 156.481 91.2196 155.941 90.9076 155.575C90.5956 155.203 90.1456 155.017 89.5576 155.017C89.2936 155.017 89.0416 155.065 88.8016 155.161C88.5676 155.251 88.3606 155.386 88.1806 155.566C88.0006 155.746 87.8566 155.974 87.7486 156.25C87.6466 156.52 87.5956 156.835 87.5956 157.195V163H85.9846V157.195C85.9846 156.463 85.8376 155.917 85.5436 155.557C85.2496 155.197 84.8206 155.017 84.2566 155.017C83.8606 155.017 83.4946 155.125 83.1586 155.341C82.8226 155.551 82.5136 155.839 82.2316 156.205V163H80.6206ZM104.968 158.896C104.23 158.92 103.6 158.98 103.078 159.076C102.562 159.166 102.139 159.286 101.809 159.436C101.485 159.586 101.248 159.763 101.098 159.967C100.954 160.171 100.882 160.399 100.882 160.651C100.882 160.891 100.921 161.098 100.999 161.272C101.077 161.446 101.182 161.59 101.314 161.704C101.452 161.812 101.611 161.893 101.791 161.947C101.977 161.995 102.175 162.019 102.385 162.019C102.667 162.019 102.925 161.992 103.159 161.938C103.393 161.878 103.612 161.794 103.816 161.686C104.026 161.578 104.224 161.449 104.41 161.299C104.602 161.149 104.788 160.978 104.968 160.786V158.896ZM99.7928 155.17C100.297 154.684 100.84 154.321 101.422 154.081C102.004 153.841 102.649 153.721 103.357 153.721C103.867 153.721 104.32 153.805 104.716 153.973C105.112 154.141 105.445 154.375 105.715 154.675C105.985 154.975 106.189 155.338 106.327 155.764C106.465 156.19 106.534 156.658 106.534 157.168V163H105.823C105.667 163 105.547 162.976 105.463 162.928C105.379 162.874 105.313 162.772 105.265 162.622L105.085 161.758C104.845 161.98 104.611 162.178 104.383 162.352C104.155 162.52 103.915 162.664 103.663 162.784C103.411 162.898 103.141 162.985 102.853 163.045C102.571 163.111 102.256 163.144 101.908 163.144C101.554 163.144 101.221 163.096 100.909 163C100.597 162.898 100.324 162.748 100.09 162.55C99.8618 162.352 99.6788 162.103 99.5408 161.803C99.4088 161.497 99.3428 161.137 99.3428 160.723C99.3428 160.363 99.4418 160.018 99.6398 159.688C99.8378 159.352 100.159 159.055 100.603 158.797C101.047 158.539 101.626 158.329 102.34 158.167C103.054 157.999 103.93 157.903 104.968 157.879V157.168C104.968 156.46 104.815 155.926 104.509 155.566C104.203 155.2 103.756 155.017 103.168 155.017C102.772 155.017 102.439 155.068 102.169 155.17C101.905 155.266 101.674 155.377 101.476 155.503C101.284 155.623 101.116 155.734 100.972 155.836C100.834 155.932 100.696 155.98 100.558 155.98C100.45 155.98 100.357 155.953 100.279 155.899C100.201 155.839 100.135 155.767 100.081 155.683L99.7928 155.17ZM110.486 155.206C110.684 154.984 110.894 154.783 111.116 154.603C111.338 154.423 111.572 154.27 111.818 154.144C112.07 154.012 112.334 153.913 112.61 153.847C112.892 153.775 113.195 153.739 113.519 153.739C114.017 153.739 114.455 153.823 114.833 153.991C115.217 154.153 115.535 154.387 115.787 154.693C116.045 154.993 116.24 155.356 116.372 155.782C116.504 156.208 116.57 156.679 116.57 157.195V163H114.959V157.195C114.959 156.505 114.8 155.971 114.482 155.593C114.17 155.209 113.693 155.017 113.051 155.017C112.577 155.017 112.133 155.131 111.719 155.359C111.311 155.587 110.933 155.896 110.585 156.286V163H108.974V153.883H109.937C110.165 153.883 110.306 153.994 110.36 154.216L110.486 155.206ZM126.649 153.883L121.564 165.691C121.51 165.811 121.441 165.907 121.357 165.979C121.279 166.051 121.156 166.087 120.988 166.087H119.8L121.465 162.469L117.703 153.883H119.089C119.227 153.883 119.335 153.919 119.413 153.991C119.497 154.057 119.554 154.132 119.584 154.216L122.023 159.958C122.119 160.21 122.2 160.474 122.266 160.75C122.35 160.468 122.44 160.201 122.536 159.949L124.903 154.216C124.939 154.12 124.999 154.042 125.083 153.982C125.173 153.916 125.272 153.883 125.38 153.883H126.649ZM140.637 153.883L137.685 163H136.416C136.26 163 136.152 162.898 136.092 162.694L134.076 156.511C134.028 156.373 133.989 156.235 133.959 156.097C133.929 155.953 133.899 155.812 133.869 155.674C133.839 155.812 133.809 155.953 133.779 156.097C133.749 156.235 133.71 156.376 133.662 156.52L131.61 162.694C131.556 162.898 131.436 163 131.25 163H130.044L127.092 153.883H128.352C128.478 153.883 128.583 153.916 128.667 153.982C128.757 154.048 128.817 154.126 128.847 154.216L130.593 160.084C130.695 160.516 130.776 160.924 130.836 161.308C130.89 161.11 130.944 160.909 130.998 160.705C131.058 160.501 131.121 160.294 131.187 160.084L133.113 154.18C133.143 154.09 133.194 154.015 133.266 153.955C133.344 153.895 133.437 153.865 133.545 153.865H134.247C134.367 153.865 134.466 153.895 134.544 153.955C134.622 154.015 134.676 154.09 134.706 154.18L136.587 160.084C136.653 160.294 136.713 160.501 136.767 160.705C136.821 160.909 136.872 161.11 136.92 161.308C136.95 161.11 136.986 160.912 137.028 160.714C137.076 160.51 137.127 160.3 137.181 160.084L138.963 154.216C138.993 154.12 139.05 154.042 139.134 153.982C139.218 153.916 139.317 153.883 139.431 153.883H140.637ZM143.808 155.098C144.198 154.684 144.63 154.354 145.104 154.108C145.578 153.862 146.124 153.739 146.742 153.739C147.24 153.739 147.678 153.823 148.056 153.991C148.44 154.153 148.758 154.387 149.01 154.693C149.268 154.993 149.463 155.356 149.595 155.782C149.727 156.208 149.793 156.679 149.793 157.195V163H148.182V157.195C148.182 156.505 148.023 155.971 147.705 155.593C147.393 155.209 146.916 155.017 146.274 155.017C145.8 155.017 145.356 155.131 144.942 155.359C144.534 155.587 144.156 155.896 143.808 156.286V163H142.197V149.743H143.808V155.098ZM158.336 157.447C158.336 157.075 158.282 156.736 158.174 156.43C158.072 156.118 157.919 155.851 157.715 155.629C157.517 155.401 157.274 155.227 156.986 155.107C156.698 154.981 156.371 154.918 156.005 154.918C155.237 154.918 154.628 155.143 154.178 155.593C153.734 156.037 153.458 156.655 153.35 157.447H158.336ZM159.632 161.722C159.434 161.962 159.197 162.172 158.921 162.352C158.645 162.526 158.348 162.67 158.03 162.784C157.718 162.898 157.394 162.982 157.058 163.036C156.722 163.096 156.389 163.126 156.059 163.126C155.429 163.126 154.847 163.021 154.313 162.811C153.785 162.595 153.326 162.283 152.936 161.875C152.552 161.461 152.252 160.951 152.036 160.345C151.82 159.739 151.712 159.043 151.712 158.257C151.712 157.621 151.808 157.027 152 156.475C152.198 155.923 152.48 155.446 152.846 155.044C153.212 154.636 153.659 154.318 154.187 154.09C154.715 153.856 155.309 153.739 155.969 153.739C156.515 153.739 157.019 153.832 157.481 154.018C157.949 154.198 158.351 154.462 158.687 154.81C159.029 155.152 159.296 155.578 159.488 156.088C159.68 156.592 159.776 157.168 159.776 157.816C159.776 158.068 159.749 158.236 159.695 158.32C159.641 158.404 159.539 158.446 159.389 158.446H153.296C153.314 159.022 153.392 159.523 153.53 159.949C153.674 160.375 153.872 160.732 154.124 161.02C154.376 161.302 154.676 161.515 155.024 161.659C155.372 161.797 155.762 161.866 156.194 161.866C156.596 161.866 156.941 161.821 157.229 161.731C157.523 161.635 157.775 161.533 157.985 161.425C158.195 161.317 158.369 161.218 158.507 161.128C158.651 161.032 158.774 160.984 158.876 160.984C159.008 160.984 159.11 161.035 159.182 161.137L159.632 161.722ZM163.265 155.71C163.553 155.086 163.907 154.6 164.327 154.252C164.747 153.898 165.26 153.721 165.866 153.721C166.058 153.721 166.241 153.742 166.415 153.784C166.595 153.826 166.754 153.892 166.892 153.982L166.775 155.179C166.739 155.329 166.649 155.404 166.505 155.404C166.421 155.404 166.298 155.386 166.136 155.35C165.974 155.314 165.791 155.296 165.587 155.296C165.299 155.296 165.041 155.338 164.813 155.422C164.591 155.506 164.39 155.632 164.21 155.8C164.036 155.962 163.877 156.166 163.733 156.412C163.595 156.652 163.469 156.928 163.355 157.24V163H161.744V153.883H162.662C162.836 153.883 162.956 153.916 163.022 153.982C163.088 154.048 163.133 154.162 163.157 154.324L163.265 155.71ZM174.033 157.447C174.033 157.075 173.979 156.736 173.871 156.43C173.769 156.118 173.616 155.851 173.412 155.629C173.214 155.401 172.971 155.227 172.683 155.107C172.395 154.981 172.068 154.918 171.702 154.918C170.934 154.918 170.325 155.143 169.875 155.593C169.431 156.037 169.155 156.655 169.047 157.447H174.033ZM175.329 161.722C175.131 161.962 174.894 162.172 174.618 162.352C174.342 162.526 174.045 162.67 173.727 162.784C173.415 162.898 173.091 162.982 172.755 163.036C172.419 163.096 172.086 163.126 171.756 163.126C171.126 163.126 170.544 163.021 170.01 162.811C169.482 162.595 169.023 162.283 168.633 161.875C168.249 161.461 167.949 160.951 167.733 160.345C167.517 159.739 167.409 159.043 167.409 158.257C167.409 157.621 167.505 157.027 167.697 156.475C167.895 155.923 168.177 155.446 168.543 155.044C168.909 154.636 169.356 154.318 169.884 154.09C170.412 153.856 171.006 153.739 171.666 153.739C172.212 153.739 172.716 153.832 173.178 154.018C173.646 154.198 174.048 154.462 174.384 154.81C174.726 155.152 174.993 155.578 175.185 156.088C175.377 156.592 175.473 157.168 175.473 157.816C175.473 158.068 175.446 158.236 175.392 158.32C175.338 158.404 175.236 158.446 175.086 158.446H168.993C169.011 159.022 169.089 159.523 169.227 159.949C169.371 160.375 169.569 160.732 169.821 161.02C170.073 161.302 170.373 161.515 170.721 161.659C171.069 161.797 171.459 161.866 171.891 161.866C172.293 161.866 172.638 161.821 172.926 161.731C173.22 161.635 173.472 161.533 173.682 161.425C173.892 161.317 174.066 161.218 174.204 161.128C174.348 161.032 174.471 160.984 174.573 160.984C174.705 160.984 174.807 161.035 174.879 161.137L175.329 161.722ZM186.987 158.896C186.249 158.92 185.619 158.98 185.097 159.076C184.581 159.166 184.158 159.286 183.828 159.436C183.504 159.586 183.267 159.763 183.117 159.967C182.973 160.171 182.901 160.399 182.901 160.651C182.901 160.891 182.94 161.098 183.018 161.272C183.096 161.446 183.201 161.59 183.333 161.704C183.471 161.812 183.63 161.893 183.81 161.947C183.996 161.995 184.194 162.019 184.404 162.019C184.686 162.019 184.944 161.992 185.178 161.938C185.412 161.878 185.631 161.794 185.835 161.686C186.045 161.578 186.243 161.449 186.429 161.299C186.621 161.149 186.807 160.978 186.987 160.786V158.896ZM181.812 155.17C182.316 154.684 182.859 154.321 183.441 154.081C184.023 153.841 184.668 153.721 185.376 153.721C185.886 153.721 186.339 153.805 186.735 153.973C187.131 154.141 187.464 154.375 187.734 154.675C188.004 154.975 188.208 155.338 188.346 155.764C188.484 156.19 188.553 156.658 188.553 157.168V163H187.842C187.686 163 187.566 162.976 187.482 162.928C187.398 162.874 187.332 162.772 187.284 162.622L187.104 161.758C186.864 161.98 186.63 162.178 186.402 162.352C186.174 162.52 185.934 162.664 185.682 162.784C185.43 162.898 185.16 162.985 184.872 163.045C184.59 163.111 184.275 163.144 183.927 163.144C183.573 163.144 183.24 163.096 182.928 163C182.616 162.898 182.343 162.748 182.109 162.55C181.881 162.352 181.698 162.103 181.56 161.803C181.428 161.497 181.362 161.137 181.362 160.723C181.362 160.363 181.461 160.018 181.659 159.688C181.857 159.352 182.178 159.055 182.622 158.797C183.066 158.539 183.645 158.329 184.359 158.167C185.073 157.999 185.949 157.903 186.987 157.879V157.168C186.987 156.46 186.834 155.926 186.528 155.566C186.222 155.2 185.775 155.017 185.187 155.017C184.791 155.017 184.458 155.068 184.188 155.17C183.924 155.266 183.693 155.377 183.495 155.503C183.303 155.623 183.135 155.734 182.991 155.836C182.853 155.932 182.715 155.98 182.577 155.98C182.469 155.98 182.376 155.953 182.298 155.899C182.22 155.839 182.154 155.767 182.1 155.683L181.812 155.17ZM192.506 155.206C192.704 154.984 192.914 154.783 193.136 154.603C193.358 154.423 193.592 154.27 193.838 154.144C194.09 154.012 194.354 153.913 194.63 153.847C194.912 153.775 195.215 153.739 195.539 153.739C196.037 153.739 196.475 153.823 196.853 153.991C197.237 154.153 197.555 154.387 197.807 154.693C198.065 154.993 198.26 155.356 198.392 155.782C198.524 156.208 198.59 156.679 198.59 157.195V163H196.979V157.195C196.979 156.505 196.82 155.971 196.502 155.593C196.19 155.209 195.713 155.017 195.071 155.017C194.597 155.017 194.153 155.131 193.739 155.359C193.331 155.587 192.953 155.896 192.605 156.286V163H190.994V153.883H191.957C192.185 153.883 192.326 153.994 192.38 154.216L192.506 155.206ZM206.971 156.052C206.671 155.65 206.347 155.371 205.999 155.215C205.651 155.053 205.261 154.972 204.829 154.972C203.983 154.972 203.332 155.275 202.876 155.881C202.42 156.487 202.192 157.351 202.192 158.473C202.192 159.067 202.243 159.577 202.345 160.003C202.447 160.423 202.597 160.771 202.795 161.047C202.993 161.317 203.236 161.515 203.524 161.641C203.812 161.767 204.139 161.83 204.505 161.83C205.033 161.83 205.492 161.71 205.882 161.47C206.278 161.23 206.641 160.891 206.971 160.453V156.052ZM208.573 149.743V163H207.619C207.391 163 207.247 162.889 207.187 162.667L207.043 161.56C206.653 162.028 206.209 162.406 205.711 162.694C205.213 162.982 204.637 163.126 203.983 163.126C203.461 163.126 202.987 163.027 202.561 162.829C202.135 162.625 201.772 162.328 201.472 161.938C201.172 161.548 200.941 161.062 200.779 160.48C200.617 159.898 200.536 159.229 200.536 158.473C200.536 157.801 200.626 157.177 200.806 156.601C200.986 156.019 201.244 155.515 201.58 155.089C201.916 154.663 202.327 154.33 202.813 154.09C203.305 153.844 203.857 153.721 204.469 153.721C205.027 153.721 205.504 153.817 205.9 154.009C206.302 154.195 206.659 154.456 206.971 154.792V149.743H208.573ZM26.4122 183.743V191.546H26.8262C26.9462 191.546 27.0452 191.531 27.1232 191.501C27.2072 191.465 27.2942 191.396 27.3842 191.294L30.2642 188.207C30.3482 188.105 30.4352 188.027 30.5252 187.973C30.6212 187.913 30.7472 187.883 30.9032 187.883H32.3522L28.9952 191.456C28.8332 191.66 28.6592 191.819 28.4732 191.933C28.5812 192.005 28.6772 192.089 28.7612 192.185C28.8512 192.275 28.9352 192.38 29.0132 192.5L32.5772 197H31.1462C31.0082 197 30.8882 196.979 30.7862 196.937C30.6902 196.889 30.6062 196.805 30.5342 196.685L27.5372 192.95C27.4472 192.824 27.3572 192.743 27.2672 192.707C27.1832 192.665 27.0512 192.644 26.8712 192.644H26.4122V197H24.8012V183.743H26.4122ZM35.4539 189.206C35.6519 188.984 35.8619 188.783 36.0839 188.603C36.3059 188.423 36.5399 188.27 36.7859 188.144C37.0379 188.012 37.3019 187.913 37.5779 187.847C37.8599 187.775 38.1629 187.739 38.4869 187.739C38.9849 187.739 39.4229 187.823 39.8009 187.991C40.1849 188.153 40.5029 188.387 40.7549 188.693C41.0129 188.993 41.2079 189.356 41.3399 189.782C41.4719 190.208 41.5379 190.679 41.5379 191.195V197H39.9269V191.195C39.9269 190.505 39.7679 189.971 39.4499 189.593C39.1379 189.209 38.6609 189.017 38.0189 189.017C37.5449 189.017 37.1009 189.131 36.6869 189.359C36.2789 189.587 35.9009 189.896 35.5529 190.286V197H33.9419V187.883H34.9049C35.1329 187.883 35.2739 187.994 35.3279 188.216L35.4539 189.206ZM47.822 187.739C48.488 187.739 49.088 187.85 49.622 188.072C50.156 188.294 50.612 188.609 50.99 189.017C51.368 189.425 51.656 189.92 51.854 190.502C52.058 191.078 52.16 191.723 52.16 192.437C52.16 193.157 52.058 193.805 51.854 194.381C51.656 194.957 51.368 195.449 50.99 195.857C50.612 196.265 50.156 196.58 49.622 196.802C49.088 197.018 48.488 197.126 47.822 197.126C47.15 197.126 46.544 197.018 46.004 196.802C45.47 196.58 45.014 196.265 44.636 195.857C44.258 195.449 43.967 194.957 43.763 194.381C43.565 193.805 43.466 193.157 43.466 192.437C43.466 191.723 43.565 191.078 43.763 190.502C43.967 189.92 44.258 189.425 44.636 189.017C45.014 188.609 45.47 188.294 46.004 188.072C46.544 187.85 47.15 187.739 47.822 187.739ZM47.822 195.875C48.722 195.875 49.394 195.575 49.838 194.975C50.282 194.369 50.504 193.526 50.504 192.446C50.504 191.36 50.282 190.514 49.838 189.908C49.394 189.302 48.722 188.999 47.822 188.999C47.366 188.999 46.967 189.077 46.625 189.233C46.289 189.389 46.007 189.614 45.779 189.908C45.557 190.202 45.389 190.565 45.275 190.997C45.167 191.423 45.113 191.906 45.113 192.446C45.113 193.526 45.335 194.369 45.779 194.975C46.229 195.575 46.91 195.875 47.822 195.875ZM66.6242 187.883L63.6722 197H62.4032C62.2472 197 62.1392 196.898 62.0792 196.694L60.0632 190.511C60.0152 190.373 59.9762 190.235 59.9462 190.097C59.9162 189.953 59.8862 189.812 59.8562 189.674C59.8262 189.812 59.7962 189.953 59.7662 190.097C59.7362 190.235 59.6972 190.376 59.6492 190.52L57.5972 196.694C57.5432 196.898 57.4232 197 57.2372 197H56.0312L53.0792 187.883H54.3392C54.4652 187.883 54.5702 187.916 54.6542 187.982C54.7442 188.048 54.8042 188.126 54.8342 188.216L56.5802 194.084C56.6822 194.516 56.7632 194.924 56.8232 195.308C56.8772 195.11 56.9312 194.909 56.9852 194.705C57.0452 194.501 57.1082 194.294 57.1742 194.084L59.1002 188.18C59.1302 188.09 59.1812 188.015 59.2532 187.955C59.3312 187.895 59.4242 187.865 59.5322 187.865H60.2342C60.3542 187.865 60.4532 187.895 60.5312 187.955C60.6092 188.015 60.6632 188.09 60.6932 188.18L62.5742 194.084C62.6402 194.294 62.7002 194.501 62.7542 194.705C62.8082 194.909 62.8592 195.11 62.9072 195.308C62.9372 195.11 62.9732 194.912 63.0152 194.714C63.0632 194.51 63.1142 194.3 63.1682 194.084L64.9502 188.216C64.9802 188.12 65.0372 188.042 65.1212 187.982C65.2052 187.916 65.3042 187.883 65.4182 187.883H66.6242ZM84.6242 187.883L81.6722 197H80.4032C80.2472 197 80.1392 196.898 80.0792 196.694L78.0632 190.511C78.0152 190.373 77.9762 190.235 77.9462 190.097C77.9162 189.953 77.8862 189.812 77.8562 189.674C77.8262 189.812 77.7962 189.953 77.7662 190.097C77.7362 190.235 77.6972 190.376 77.6492 190.52L75.5972 196.694C75.5432 196.898 75.4232 197 75.2372 197H74.0312L71.0792 187.883H72.3392C72.4652 187.883 72.5702 187.916 72.6542 187.982C72.7442 188.048 72.8042 188.126 72.8342 188.216L74.5802 194.084C74.6822 194.516 74.7632 194.924 74.8232 195.308C74.8772 195.11 74.9312 194.909 74.9852 194.705C75.0452 194.501 75.1082 194.294 75.1742 194.084L77.1002 188.18C77.1302 188.09 77.1812 188.015 77.2532 187.955C77.3312 187.895 77.4242 187.865 77.5322 187.865H78.2342C78.3542 187.865 78.4532 187.895 78.5312 187.955C78.6092 188.015 78.6632 188.09 78.6932 188.18L80.5742 194.084C80.6402 194.294 80.7002 194.501 80.7542 194.705C80.8082 194.909 80.8592 195.11 80.9072 195.308C80.9372 195.11 80.9732 194.912 81.0152 194.714C81.0632 194.51 81.1142 194.3 81.1682 194.084L82.9502 188.216C82.9802 188.12 83.0372 188.042 83.1212 187.982C83.2052 187.916 83.3042 187.883 83.4182 187.883H84.6242ZM87.795 189.098C88.185 188.684 88.617 188.354 89.091 188.108C89.565 187.862 90.111 187.739 90.729 187.739C91.227 187.739 91.665 187.823 92.043 187.991C92.427 188.153 92.745 188.387 92.997 188.693C93.255 188.993 93.45 189.356 93.582 189.782C93.714 190.208 93.78 190.679 93.78 191.195V197H92.169V191.195C92.169 190.505 92.01 189.971 91.692 189.593C91.38 189.209 90.903 189.017 90.261 189.017C89.787 189.017 89.343 189.131 88.929 189.359C88.521 189.587 88.143 189.896 87.795 190.286V197H86.184V183.743H87.795V189.098ZM102.323 191.447C102.323 191.075 102.269 190.736 102.161 190.43C102.059 190.118 101.906 189.851 101.702 189.629C101.504 189.401 101.261 189.227 100.973 189.107C100.685 188.981 100.358 188.918 99.9921 188.918C99.2241 188.918 98.6151 189.143 98.1651 189.593C97.7211 190.037 97.4451 190.655 97.3371 191.447H102.323ZM103.619 195.722C103.421 195.962 103.184 196.172 102.908 196.352C102.632 196.526 102.335 196.67 102.017 196.784C101.705 196.898 101.381 196.982 101.045 197.036C100.709 197.096 100.376 197.126 100.046 197.126C99.4161 197.126 98.8341 197.021 98.3001 196.811C97.7721 196.595 97.3131 196.283 96.9231 195.875C96.5391 195.461 96.2391 194.951 96.0231 194.345C95.8071 193.739 95.6991 193.043 95.6991 192.257C95.6991 191.621 95.7951 191.027 95.9871 190.475C96.1851 189.923 96.4671 189.446 96.8331 189.044C97.1991 188.636 97.6461 188.318 98.1741 188.09C98.7021 187.856 99.2961 187.739 99.9561 187.739C100.502 187.739 101.006 187.832 101.468 188.018C101.936 188.198 102.338 188.462 102.674 188.81C103.016 189.152 103.283 189.578 103.475 190.088C103.667 190.592 103.763 191.168 103.763 191.816C103.763 192.068 103.736 192.236 103.682 192.32C103.628 192.404 103.526 192.446 103.376 192.446H97.2831C97.3011 193.022 97.3791 193.523 97.5171 193.949C97.6611 194.375 97.8591 194.732 98.1111 195.02C98.3631 195.302 98.6631 195.515 99.0111 195.659C99.3591 195.797 99.7491 195.866 100.181 195.866C100.583 195.866 100.928 195.821 101.216 195.731C101.51 195.635 101.762 195.533 101.972 195.425C102.182 195.317 102.356 195.218 102.494 195.128C102.638 195.032 102.761 194.984 102.863 194.984C102.995 194.984 103.097 195.035 103.169 195.137L103.619 195.722ZM107.243 189.206C107.441 188.984 107.651 188.783 107.873 188.603C108.095 188.423 108.329 188.27 108.575 188.144C108.827 188.012 109.091 187.913 109.367 187.847C109.649 187.775 109.952 187.739 110.276 187.739C110.774 187.739 111.212 187.823 111.59 187.991C111.974 188.153 112.292 188.387 112.544 188.693C112.802 188.993 112.997 189.356 113.129 189.782C113.261 190.208 113.327 190.679 113.327 191.195V197H111.716V191.195C111.716 190.505 111.557 189.971 111.239 189.593C110.927 189.209 110.45 189.017 109.808 189.017C109.334 189.017 108.89 189.131 108.476 189.359C108.068 189.587 107.69 189.896 107.342 190.286V197H105.731V187.883H106.694C106.922 187.883 107.063 187.994 107.117 188.216L107.243 189.206ZM123.172 197.144C122.452 197.144 121.897 196.943 121.507 196.541C121.123 196.139 120.931 195.56 120.931 194.804V189.224H119.833C119.737 189.224 119.656 189.197 119.59 189.143C119.524 189.083 119.491 188.993 119.491 188.873V188.234L120.985 188.045L121.354 185.228C121.372 185.138 121.411 185.066 121.471 185.012C121.537 184.952 121.621 184.922 121.723 184.922H122.533V188.063H125.17V189.224H122.533V194.696C122.533 195.08 122.626 195.365 122.812 195.551C122.998 195.737 123.238 195.83 123.532 195.83C123.7 195.83 123.844 195.809 123.964 195.767C124.09 195.719 124.198 195.668 124.288 195.614C124.378 195.56 124.453 195.512 124.513 195.47C124.579 195.422 124.636 195.398 124.684 195.398C124.768 195.398 124.843 195.449 124.909 195.551L125.377 196.316C125.101 196.574 124.768 196.778 124.378 196.928C123.988 197.072 123.586 197.144 123.172 197.144ZM130.615 187.739C131.281 187.739 131.881 187.85 132.415 188.072C132.949 188.294 133.405 188.609 133.783 189.017C134.161 189.425 134.449 189.92 134.647 190.502C134.851 191.078 134.953 191.723 134.953 192.437C134.953 193.157 134.851 193.805 134.647 194.381C134.449 194.957 134.161 195.449 133.783 195.857C133.405 196.265 132.949 196.58 132.415 196.802C131.881 197.018 131.281 197.126 130.615 197.126C129.943 197.126 129.337 197.018 128.797 196.802C128.263 196.58 127.807 196.265 127.429 195.857C127.051 195.449 126.76 194.957 126.556 194.381C126.358 193.805 126.259 193.157 126.259 192.437C126.259 191.723 126.358 191.078 126.556 190.502C126.76 189.92 127.051 189.425 127.429 189.017C127.807 188.609 128.263 188.294 128.797 188.072C129.337 187.85 129.943 187.739 130.615 187.739ZM130.615 195.875C131.515 195.875 132.187 195.575 132.631 194.975C133.075 194.369 133.297 193.526 133.297 192.446C133.297 191.36 133.075 190.514 132.631 189.908C132.187 189.302 131.515 188.999 130.615 188.999C130.159 188.999 129.76 189.077 129.418 189.233C129.082 189.389 128.8 189.614 128.572 189.908C128.35 190.202 128.182 190.565 128.068 190.997C127.96 191.423 127.906 191.906 127.906 192.446C127.906 193.526 128.128 194.369 128.572 194.975C129.022 195.575 129.703 195.875 130.615 195.875ZM146.531 192.896C145.793 192.92 145.163 192.98 144.641 193.076C144.125 193.166 143.702 193.286 143.372 193.436C143.048 193.586 142.811 193.763 142.661 193.967C142.517 194.171 142.445 194.399 142.445 194.651C142.445 194.891 142.484 195.098 142.562 195.272C142.64 195.446 142.745 195.59 142.877 195.704C143.015 195.812 143.174 195.893 143.354 195.947C143.54 195.995 143.738 196.019 143.948 196.019C144.23 196.019 144.488 195.992 144.722 195.938C144.956 195.878 145.175 195.794 145.379 195.686C145.589 195.578 145.787 195.449 145.973 195.299C146.165 195.149 146.351 194.978 146.531 194.786V192.896ZM141.356 189.17C141.86 188.684 142.403 188.321 142.985 188.081C143.567 187.841 144.212 187.721 144.92 187.721C145.43 187.721 145.883 187.805 146.279 187.973C146.675 188.141 147.008 188.375 147.278 188.675C147.548 188.975 147.752 189.338 147.89 189.764C148.028 190.19 148.097 190.658 148.097 191.168V197H147.386C147.23 197 147.11 196.976 147.026 196.928C146.942 196.874 146.876 196.772 146.828 196.622L146.648 195.758C146.408 195.98 146.174 196.178 145.946 196.352C145.718 196.52 145.478 196.664 145.226 196.784C144.974 196.898 144.704 196.985 144.416 197.045C144.134 197.111 143.819 197.144 143.471 197.144C143.117 197.144 142.784 197.096 142.472 197C142.16 196.898 141.887 196.748 141.653 196.55C141.425 196.352 141.242 196.103 141.104 195.803C140.972 195.497 140.906 195.137 140.906 194.723C140.906 194.363 141.005 194.018 141.203 193.688C141.401 193.352 141.722 193.055 142.166 192.797C142.61 192.539 143.189 192.329 143.903 192.167C144.617 191.999 145.493 191.903 146.531 191.879V191.168C146.531 190.46 146.378 189.926 146.072 189.566C145.766 189.2 145.319 189.017 144.731 189.017C144.335 189.017 144.002 189.068 143.732 189.17C143.468 189.266 143.237 189.377 143.039 189.503C142.847 189.623 142.679 189.734 142.535 189.836C142.397 189.932 142.259 189.98 142.121 189.98C142.013 189.98 141.92 189.953 141.842 189.899C141.764 189.839 141.698 189.767 141.644 189.683L141.356 189.17ZM152.059 189.71C152.347 189.086 152.701 188.6 153.121 188.252C153.541 187.898 154.054 187.721 154.66 187.721C154.852 187.721 155.035 187.742 155.209 187.784C155.389 187.826 155.548 187.892 155.686 187.982L155.569 189.179C155.533 189.329 155.443 189.404 155.299 189.404C155.215 189.404 155.092 189.386 154.93 189.35C154.768 189.314 154.585 189.296 154.381 189.296C154.093 189.296 153.835 189.338 153.607 189.422C153.385 189.506 153.184 189.632 153.004 189.8C152.83 189.962 152.671 190.166 152.527 190.412C152.389 190.652 152.263 190.928 152.149 191.24V197H150.538V187.883H151.456C151.63 187.883 151.75 187.916 151.816 187.982C151.882 188.048 151.927 188.162 151.951 188.324L152.059 189.71ZM158.615 189.71C158.903 189.086 159.257 188.6 159.677 188.252C160.097 187.898 160.61 187.721 161.216 187.721C161.408 187.721 161.591 187.742 161.765 187.784C161.945 187.826 162.104 187.892 162.242 187.982L162.125 189.179C162.089 189.329 161.999 189.404 161.855 189.404C161.771 189.404 161.648 189.386 161.486 189.35C161.324 189.314 161.141 189.296 160.937 189.296C160.649 189.296 160.391 189.338 160.163 189.422C159.941 189.506 159.74 189.632 159.56 189.8C159.386 189.962 159.227 190.166 159.083 190.412C158.945 190.652 158.819 190.928 158.705 191.24V197H157.094V187.883H158.012C158.186 187.883 158.306 187.916 158.372 187.982C158.438 188.048 158.483 188.162 158.507 188.324L158.615 189.71ZM165.343 187.883V197H163.741V187.883H165.343ZM165.685 185.021C165.685 185.177 165.652 185.324 165.586 185.462C165.526 185.594 165.442 185.714 165.334 185.822C165.232 185.924 165.109 186.005 164.965 186.065C164.827 186.125 164.68 186.155 164.524 186.155C164.368 186.155 164.221 186.125 164.083 186.065C163.951 186.005 163.834 185.924 163.732 185.822C163.63 185.714 163.549 185.594 163.489 185.462C163.429 185.324 163.399 185.177 163.399 185.021C163.399 184.865 163.429 184.718 163.489 184.58C163.549 184.436 163.63 184.313 163.732 184.211C163.834 184.103 163.951 184.019 164.083 183.959C164.221 183.899 164.368 183.869 164.524 183.869C164.68 183.869 164.827 183.899 164.965 183.959C165.109 184.019 165.232 184.103 165.334 184.211C165.442 184.313 165.526 184.436 165.586 184.58C165.652 184.718 165.685 184.865 165.685 185.021ZM175.787 187.883L172.07 197H170.63L166.913 187.883H168.218C168.35 187.883 168.458 187.916 168.542 187.982C168.626 188.048 168.683 188.126 168.713 188.216L171.026 194.084C171.098 194.306 171.161 194.522 171.215 194.732C171.269 194.942 171.32 195.152 171.368 195.362C171.416 195.152 171.467 194.942 171.521 194.732C171.575 194.522 171.641 194.306 171.719 194.084L174.059 188.216C174.095 188.12 174.155 188.042 174.239 187.982C174.323 187.916 174.422 187.883 174.536 187.883H175.787ZM183.112 191.447C183.112 191.075 183.058 190.736 182.95 190.43C182.848 190.118 182.695 189.851 182.491 189.629C182.293 189.401 182.05 189.227 181.762 189.107C181.474 188.981 181.147 188.918 180.781 188.918C180.013 188.918 179.404 189.143 178.954 189.593C178.51 190.037 178.234 190.655 178.126 191.447H183.112ZM184.408 195.722C184.21 195.962 183.973 196.172 183.697 196.352C183.421 196.526 183.124 196.67 182.806 196.784C182.494 196.898 182.17 196.982 181.834 197.036C181.498 197.096 181.165 197.126 180.835 197.126C180.205 197.126 179.623 197.021 179.089 196.811C178.561 196.595 178.102 196.283 177.712 195.875C177.328 195.461 177.028 194.951 176.812 194.345C176.596 193.739 176.488 193.043 176.488 192.257C176.488 191.621 176.584 191.027 176.776 190.475C176.974 189.923 177.256 189.446 177.622 189.044C177.988 188.636 178.435 188.318 178.963 188.09C179.491 187.856 180.085 187.739 180.745 187.739C181.291 187.739 181.795 187.832 182.257 188.018C182.725 188.198 183.127 188.462 183.463 188.81C183.805 189.152 184.072 189.578 184.264 190.088C184.456 190.592 184.552 191.168 184.552 191.816C184.552 192.068 184.525 192.236 184.471 192.32C184.417 192.404 184.315 192.446 184.165 192.446H178.072C178.09 193.022 178.168 193.523 178.306 193.949C178.45 194.375 178.648 194.732 178.9 195.02C179.152 195.302 179.452 195.515 179.8 195.659C180.148 195.797 180.538 195.866 180.97 195.866C181.372 195.866 181.717 195.821 182.005 195.731C182.299 195.635 182.551 195.533 182.761 195.425C182.971 195.317 183.145 195.218 183.283 195.128C183.427 195.032 183.55 194.984 183.652 194.984C183.784 194.984 183.886 195.035 183.958 195.137L184.408 195.722ZM193.924 197.144C193.204 197.144 192.649 196.943 192.259 196.541C191.875 196.139 191.683 195.56 191.683 194.804V189.224H190.585C190.489 189.224 190.408 189.197 190.342 189.143C190.276 189.083 190.243 188.993 190.243 188.873V188.234L191.737 188.045L192.106 185.228C192.124 185.138 192.163 185.066 192.223 185.012C192.289 184.952 192.373 184.922 192.475 184.922H193.285V188.063H195.922V189.224H193.285V194.696C193.285 195.08 193.378 195.365 193.564 195.551C193.75 195.737 193.99 195.83 194.284 195.83C194.452 195.83 194.596 195.809 194.716 195.767C194.842 195.719 194.95 195.668 195.04 195.614C195.13 195.56 195.205 195.512 195.265 195.47C195.331 195.422 195.388 195.398 195.436 195.398C195.52 195.398 195.595 195.449 195.661 195.551L196.129 196.316C195.853 196.574 195.52 196.778 195.13 196.928C194.74 197.072 194.338 197.144 193.924 197.144ZM201.367 187.739C202.033 187.739 202.633 187.85 203.167 188.072C203.701 188.294 204.157 188.609 204.535 189.017C204.913 189.425 205.201 189.92 205.399 190.502C205.603 191.078 205.705 191.723 205.705 192.437C205.705 193.157 205.603 193.805 205.399 194.381C205.201 194.957 204.913 195.449 204.535 195.857C204.157 196.265 203.701 196.58 203.167 196.802C202.633 197.018 202.033 197.126 201.367 197.126C200.695 197.126 200.089 197.018 199.549 196.802C199.015 196.58 198.559 196.265 198.181 195.857C197.803 195.449 197.512 194.957 197.308 194.381C197.11 193.805 197.011 193.157 197.011 192.437C197.011 191.723 197.11 191.078 197.308 190.502C197.512 189.92 197.803 189.425 198.181 189.017C198.559 188.609 199.015 188.294 199.549 188.072C200.089 187.85 200.695 187.739 201.367 187.739ZM201.367 195.875C202.267 195.875 202.939 195.575 203.383 194.975C203.827 194.369 204.049 193.526 204.049 192.446C204.049 191.36 203.827 190.514 203.383 189.908C202.939 189.302 202.267 188.999 201.367 188.999C200.911 188.999 200.512 189.077 200.17 189.233C199.834 189.389 199.552 189.614 199.324 189.908C199.102 190.202 198.934 190.565 198.82 190.997C198.712 191.423 198.658 191.906 198.658 192.446C198.658 193.526 198.88 194.369 199.324 194.975C199.774 195.575 200.455 195.875 201.367 195.875ZM30.7716 228.804C31.0656 229.2 31.3866 229.479 31.7346 229.641C32.0826 229.803 32.4726 229.884 32.9046 229.884C33.7566 229.884 34.4106 229.581 34.8666 228.975C35.3226 228.369 35.5506 227.505 35.5506 226.383C35.5506 225.789 35.4966 225.279 35.3886 224.853C35.2866 224.427 35.1366 224.079 34.9386 223.809C34.7406 223.533 34.4976 223.332 34.2096 223.206C33.9216 223.08 33.5946 223.017 33.2286 223.017C32.7066 223.017 32.2476 223.137 31.8516 223.377C31.4616 223.617 31.1016 223.956 30.7716 224.394V228.804ZM30.6906 223.296C31.0746 222.822 31.5186 222.441 32.0226 222.153C32.5266 221.865 33.1026 221.721 33.7506 221.721C34.2786 221.721 34.7556 221.823 35.1816 222.027C35.6076 222.225 35.9706 222.522 36.2706 222.918C36.5706 223.308 36.8016 223.794 36.9636 224.376C37.1256 224.958 37.2066 225.627 37.2066 226.383C37.2066 227.055 37.1166 227.682 36.9366 228.264C36.7566 228.84 36.4956 229.341 36.1536 229.767C35.8176 230.187 35.4036 230.52 34.9116 230.766C34.4256 231.006 33.8766 231.126 33.2646 231.126C32.7066 231.126 32.2266 231.033 31.8246 230.847C31.4286 230.655 31.0776 230.391 30.7716 230.055V234.087H29.1606V221.883H30.1236C30.3516 221.883 30.4926 221.994 30.5466 222.216L30.6906 223.296ZM40.7714 223.71C41.0594 223.086 41.4134 222.6 41.8334 222.252C42.2534 221.898 42.7664 221.721 43.3724 221.721C43.5644 221.721 43.7474 221.742 43.9214 221.784C44.1014 221.826 44.2604 221.892 44.3984 221.982L44.2814 223.179C44.2454 223.329 44.1554 223.404 44.0114 223.404C43.9274 223.404 43.8044 223.386 43.6424 223.35C43.4804 223.314 43.2974 223.296 43.0934 223.296C42.8054 223.296 42.5474 223.338 42.3194 223.422C42.0974 223.506 41.8964 223.632 41.7164 223.8C41.5424 223.962 41.3834 224.166 41.2394 224.412C41.1014 224.652 40.9754 224.928 40.8614 225.24V231H39.2504V221.883H40.1684C40.3424 221.883 40.4624 221.916 40.5284 221.982C40.5944 222.048 40.6394 222.162 40.6634 222.324L40.7714 223.71ZM51.5399 225.447C51.5399 225.075 51.4859 224.736 51.3779 224.43C51.2759 224.118 51.1229 223.851 50.9189 223.629C50.7209 223.401 50.4779 223.227 50.1899 223.107C49.9019 222.981 49.5749 222.918 49.2089 222.918C48.4409 222.918 47.8319 223.143 47.3819 223.593C46.9379 224.037 46.6619 224.655 46.5539 225.447H51.5399ZM52.8359 229.722C52.6379 229.962 52.4009 230.172 52.1249 230.352C51.8489 230.526 51.5519 230.67 51.2339 230.784C50.9219 230.898 50.5979 230.982 50.2619 231.036C49.9259 231.096 49.5929 231.126 49.2629 231.126C48.6329 231.126 48.0509 231.021 47.5169 230.811C46.9889 230.595 46.5299 230.283 46.1399 229.875C45.7559 229.461 45.4559 228.951 45.2399 228.345C45.0239 227.739 44.9159 227.043 44.9159 226.257C44.9159 225.621 45.0119 225.027 45.2039 224.475C45.4019 223.923 45.6839 223.446 46.0499 223.044C46.4159 222.636 46.8629 222.318 47.3909 222.09C47.9189 221.856 48.5129 221.739 49.1729 221.739C49.7189 221.739 50.2229 221.832 50.6849 222.018C51.1529 222.198 51.5549 222.462 51.8909 222.81C52.2329 223.152 52.4999 223.578 52.6919 224.088C52.8839 224.592 52.9799 225.168 52.9799 225.816C52.9799 226.068 52.9529 226.236 52.8989 226.32C52.8449 226.404 52.7429 226.446 52.5929 226.446H46.4999C46.5179 227.022 46.5959 227.523 46.7339 227.949C46.8779 228.375 47.0759 228.732 47.3279 229.02C47.5799 229.302 47.8799 229.515 48.2279 229.659C48.5759 229.797 48.9659 229.866 49.3979 229.866C49.7999 229.866 50.1449 229.821 50.4329 229.731C50.7269 229.635 50.9789 229.533 51.1889 229.425C51.3989 229.317 51.5729 229.218 51.7109 229.128C51.8549 229.032 51.9779 228.984 52.0799 228.984C52.2119 228.984 52.3139 229.035 52.3859 229.137L52.8359 229.722ZM62.5664 221.883L58.8494 231H57.4094L53.6924 221.883H54.9974C55.1294 221.883 55.2374 221.916 55.3214 221.982C55.4054 222.048 55.4624 222.126 55.4924 222.216L57.8054 228.084C57.8774 228.306 57.9404 228.522 57.9944 228.732C58.0484 228.942 58.0994 229.152 58.1474 229.362C58.1954 229.152 58.2464 228.942 58.3004 228.732C58.3544 228.522 58.4204 228.306 58.4984 228.084L60.8384 222.216C60.8744 222.12 60.9344 222.042 61.0184 221.982C61.1024 221.916 61.2014 221.883 61.3154 221.883H62.5664ZM69.8915 225.447C69.8915 225.075 69.8375 224.736 69.7295 224.43C69.6275 224.118 69.4745 223.851 69.2705 223.629C69.0725 223.401 68.8295 223.227 68.5415 223.107C68.2535 222.981 67.9265 222.918 67.5605 222.918C66.7925 222.918 66.1835 223.143 65.7335 223.593C65.2895 224.037 65.0135 224.655 64.9055 225.447H69.8915ZM71.1875 229.722C70.9895 229.962 70.7525 230.172 70.4765 230.352C70.2005 230.526 69.9035 230.67 69.5855 230.784C69.2735 230.898 68.9495 230.982 68.6135 231.036C68.2775 231.096 67.9445 231.126 67.6145 231.126C66.9845 231.126 66.4025 231.021 65.8685 230.811C65.3405 230.595 64.8815 230.283 64.4915 229.875C64.1075 229.461 63.8075 228.951 63.5915 228.345C63.3755 227.739 63.2675 227.043 63.2675 226.257C63.2675 225.621 63.3635 225.027 63.5555 224.475C63.7535 223.923 64.0355 223.446 64.4015 223.044C64.7675 222.636 65.2145 222.318 65.7425 222.09C66.2705 221.856 66.8645 221.739 67.5245 221.739C68.0705 221.739 68.5745 221.832 69.0365 222.018C69.5045 222.198 69.9065 222.462 70.2425 222.81C70.5845 223.152 70.8515 223.578 71.0435 224.088C71.2355 224.592 71.3315 225.168 71.3315 225.816C71.3315 226.068 71.3045 226.236 71.2505 226.32C71.1965 226.404 71.0945 226.446 70.9445 226.446H64.8515C64.8695 227.022 64.9475 227.523 65.0855 227.949C65.2295 228.375 65.4275 228.732 65.6795 229.02C65.9315 229.302 66.2315 229.515 66.5795 229.659C66.9275 229.797 67.3175 229.866 67.7495 229.866C68.1515 229.866 68.4965 229.821 68.7845 229.731C69.0785 229.635 69.3305 229.533 69.5405 229.425C69.7505 229.317 69.9245 229.218 70.0625 229.128C70.2065 229.032 70.3295 228.984 70.4315 228.984C70.5635 228.984 70.6655 229.035 70.7375 229.137L71.1875 229.722ZM74.8113 223.206C75.0093 222.984 75.2193 222.783 75.4413 222.603C75.6633 222.423 75.8973 222.27 76.1433 222.144C76.3953 222.012 76.6593 221.913 76.9353 221.847C77.2173 221.775 77.5203 221.739 77.8443 221.739C78.3423 221.739 78.7803 221.823 79.1583 221.991C79.5423 222.153 79.8603 222.387 80.1123 222.693C80.3703 222.993 80.5653 223.356 80.6973 223.782C80.8293 224.208 80.8953 224.679 80.8953 225.195V231H79.2843V225.195C79.2843 224.505 79.1253 223.971 78.8073 223.593C78.4953 223.209 78.0183 223.017 77.3763 223.017C76.9023 223.017 76.4583 223.131 76.0443 223.359C75.6363 223.587 75.2583 223.896 74.9103 224.286V231H73.2993V221.883H74.2623C74.4903 221.883 74.6313 221.994 74.6853 222.216L74.8113 223.206ZM86.0123 231.144C85.2923 231.144 84.7373 230.943 84.3473 230.541C83.9633 230.139 83.7713 229.56 83.7713 228.804V223.224H82.6733C82.5773 223.224 82.4963 223.197 82.4303 223.143C82.3643 223.083 82.3313 222.993 82.3313 222.873V222.234L83.8253 222.045L84.1943 219.228C84.2123 219.138 84.2513 219.066 84.3113 219.012C84.3773 218.952 84.4613 218.922 84.5633 218.922H85.3733V222.063H88.0103V223.224H85.3733V228.696C85.3733 229.08 85.4663 229.365 85.6523 229.551C85.8383 229.737 86.0783 229.83 86.3723 229.83C86.5403 229.83 86.6843 229.809 86.8043 229.767C86.9303 229.719 87.0383 229.668 87.1283 229.614C87.2183 229.56 87.2933 229.512 87.3533 229.47C87.4193 229.422 87.4763 229.398 87.5243 229.398C87.6083 229.398 87.6833 229.449 87.7493 229.551L88.2173 230.316C87.9413 230.574 87.6083 230.778 87.2183 230.928C86.8283 231.072 86.4263 231.144 86.0123 231.144ZM106.474 221.883L103.522 231H102.253C102.097 231 101.989 230.898 101.929 230.694L99.9128 224.511C99.8648 224.373 99.8258 224.235 99.7958 224.097C99.7658 223.953 99.7358 223.812 99.7058 223.674C99.6758 223.812 99.6458 223.953 99.6158 224.097C99.5858 224.235 99.5468 224.376 99.4988 224.52L97.4468 230.694C97.3928 230.898 97.2728 231 97.0868 231H95.8808L92.9288 221.883H94.1888C94.3148 221.883 94.4198 221.916 94.5038 221.982C94.5938 222.048 94.6538 222.126 94.6838 222.216L96.4298 228.084C96.5318 228.516 96.6128 228.924 96.6728 229.308C96.7268 229.11 96.7808 228.909 96.8348 228.705C96.8948 228.501 96.9578 228.294 97.0238 228.084L98.9498 222.18C98.9798 222.09 99.0308 222.015 99.1028 221.955C99.1808 221.895 99.2738 221.865 99.3818 221.865H100.084C100.204 221.865 100.303 221.895 100.381 221.955C100.459 222.015 100.513 222.09 100.543 222.18L102.424 228.084C102.49 228.294 102.55 228.501 102.604 228.705C102.658 228.909 102.709 229.11 102.757 229.308C102.787 229.11 102.823 228.912 102.865 228.714C102.913 228.51 102.964 228.3 103.018 228.084L104.8 222.216C104.83 222.12 104.887 222.042 104.971 221.982C105.055 221.916 105.154 221.883 105.268 221.883H106.474ZM112.869 226.896C112.131 226.92 111.501 226.98 110.979 227.076C110.463 227.166 110.04 227.286 109.71 227.436C109.386 227.586 109.149 227.763 108.999 227.967C108.855 228.171 108.783 228.399 108.783 228.651C108.783 228.891 108.822 229.098 108.9 229.272C108.978 229.446 109.083 229.59 109.215 229.704C109.353 229.812 109.512 229.893 109.692 229.947C109.878 229.995 110.076 230.019 110.286 230.019C110.568 230.019 110.826 229.992 111.06 229.938C111.294 229.878 111.513 229.794 111.717 229.686C111.927 229.578 112.125 229.449 112.311 229.299C112.503 229.149 112.689 228.978 112.869 228.786V226.896ZM107.694 223.17C108.198 222.684 108.741 222.321 109.323 222.081C109.905 221.841 110.55 221.721 111.258 221.721C111.768 221.721 112.221 221.805 112.617 221.973C113.013 222.141 113.346 222.375 113.616 222.675C113.886 222.975 114.09 223.338 114.228 223.764C114.366 224.19 114.435 224.658 114.435 225.168V231H113.724C113.568 231 113.448 230.976 113.364 230.928C113.28 230.874 113.214 230.772 113.166 230.622L112.986 229.758C112.746 229.98 112.512 230.178 112.284 230.352C112.056 230.52 111.816 230.664 111.564 230.784C111.312 230.898 111.042 230.985 110.754 231.045C110.472 231.111 110.157 231.144 109.809 231.144C109.455 231.144 109.122 231.096 108.81 231C108.498 230.898 108.225 230.748 107.991 230.55C107.763 230.352 107.58 230.103 107.442 229.803C107.31 229.497 107.244 229.137 107.244 228.723C107.244 228.363 107.343 228.018 107.541 227.688C107.739 227.352 108.06 227.055 108.504 226.797C108.948 226.539 109.527 226.329 110.241 226.167C110.955 225.999 111.831 225.903 112.869 225.879V225.168C112.869 224.46 112.716 223.926 112.41 223.566C112.104 223.2 111.657 223.017 111.069 223.017C110.673 223.017 110.34 223.068 110.07 223.17C109.806 223.266 109.575 223.377 109.377 223.503C109.185 223.623 109.017 223.734 108.873 223.836C108.735 223.932 108.597 223.98 108.459 223.98C108.351 223.98 108.258 223.953 108.18 223.899C108.102 223.839 108.036 223.767 107.982 223.683L107.694 223.17ZM118.567 221.883V231H116.965V221.883H118.567ZM118.909 219.021C118.909 219.177 118.876 219.324 118.81 219.462C118.75 219.594 118.666 219.714 118.558 219.822C118.456 219.924 118.333 220.005 118.189 220.065C118.051 220.125 117.904 220.155 117.748 220.155C117.592 220.155 117.445 220.125 117.307 220.065C117.175 220.005 117.058 219.924 116.956 219.822C116.854 219.714 116.773 219.594 116.713 219.462C116.653 219.324 116.623 219.177 116.623 219.021C116.623 218.865 116.653 218.718 116.713 218.58C116.773 218.436 116.854 218.313 116.956 218.211C117.058 218.103 117.175 218.019 117.307 217.959C117.445 217.899 117.592 217.869 117.748 217.869C117.904 217.869 118.051 217.899 118.189 217.959C118.333 218.019 118.456 218.103 118.558 218.211C118.666 218.313 118.75 218.436 118.81 218.58C118.876 218.718 118.909 218.865 118.909 219.021ZM129.66 231H128.058V223.224H123.36V228.696C123.36 229.08 123.453 229.365 123.639 229.551C123.825 229.737 124.065 229.83 124.359 229.83C124.527 229.83 124.671 229.809 124.791 229.767C124.917 229.719 125.025 229.668 125.115 229.614C125.205 229.56 125.28 229.512 125.34 229.47C125.406 229.422 125.463 229.398 125.511 229.398C125.595 229.398 125.67 229.449 125.736 229.551L126.204 230.316C125.928 230.574 125.595 230.778 125.205 230.928C124.815 231.072 124.413 231.144 123.999 231.144C123.279 231.144 122.724 230.943 122.334 230.541C121.95 230.139 121.758 229.56 121.758 228.804V223.224H120.66C120.564 223.224 120.483 223.197 120.417 223.143C120.351 223.083 120.318 222.993 120.318 222.873V222.234L121.812 222.036L122.181 219.228C122.199 219.138 122.238 219.066 122.298 219.012C122.364 218.952 122.448 218.922 122.55 218.922H123.36V222.063H129.66V231ZM130.056 218.958C130.056 219.114 130.023 219.261 129.957 219.399C129.897 219.531 129.813 219.648 129.705 219.75C129.603 219.852 129.483 219.933 129.345 219.993C129.207 220.053 129.06 220.083 128.904 220.083C128.748 220.083 128.601 220.053 128.463 219.993C128.331 219.933 128.214 219.852 128.112 219.75C128.01 219.648 127.929 219.531 127.869 219.399C127.809 219.261 127.779 219.114 127.779 218.958C127.779 218.802 127.809 218.655 127.869 218.517C127.929 218.373 128.01 218.25 128.112 218.148C128.214 218.04 128.331 217.956 128.463 217.896C128.601 217.836 128.748 217.806 128.904 217.806C129.06 217.806 129.207 217.836 129.345 217.896C129.483 217.956 129.603 218.04 129.705 218.148C129.813 218.25 129.897 218.373 129.957 218.517C130.023 218.655 130.056 218.802 130.056 218.958ZM133.803 223.206C134.001 222.984 134.211 222.783 134.433 222.603C134.655 222.423 134.889 222.27 135.135 222.144C135.387 222.012 135.651 221.913 135.927 221.847C136.209 221.775 136.512 221.739 136.836 221.739C137.334 221.739 137.772 221.823 138.15 221.991C138.534 222.153 138.852 222.387 139.104 222.693C139.362 222.993 139.557 223.356 139.689 223.782C139.821 224.208 139.887 224.679 139.887 225.195V231H138.276V225.195C138.276 224.505 138.117 223.971 137.799 223.593C137.487 223.209 137.01 223.017 136.368 223.017C135.894 223.017 135.45 223.131 135.036 223.359C134.628 223.587 134.25 223.896 133.902 224.286V231H132.291V221.883H133.254C133.482 221.883 133.623 221.994 133.677 222.216L133.803 223.206ZM145.506 226.545C145.83 226.545 146.115 226.5 146.361 226.41C146.607 226.32 146.814 226.194 146.982 226.032C147.15 225.87 147.276 225.678 147.36 225.456C147.444 225.228 147.486 224.979 147.486 224.709C147.486 224.151 147.315 223.707 146.973 223.377C146.637 223.047 146.148 222.882 145.506 222.882C144.858 222.882 144.363 223.047 144.021 223.377C143.685 223.707 143.517 224.151 143.517 224.709C143.517 224.979 143.559 225.228 143.643 225.456C143.733 225.678 143.862 225.87 144.03 226.032C144.198 226.194 144.405 226.32 144.651 226.41C144.897 226.5 145.182 226.545 145.506 226.545ZM148.395 231.495C148.395 231.273 148.332 231.093 148.206 230.955C148.08 230.817 147.909 230.709 147.693 230.631C147.483 230.553 147.237 230.499 146.955 230.469C146.673 230.433 146.373 230.406 146.055 230.388C145.743 230.37 145.425 230.352 145.101 230.334C144.777 230.316 144.465 230.286 144.165 230.244C143.829 230.4 143.553 230.598 143.337 230.838C143.127 231.072 143.022 231.348 143.022 231.666C143.022 231.87 143.073 232.059 143.175 232.233C143.283 232.413 143.445 232.566 143.661 232.692C143.877 232.824 144.147 232.926 144.471 232.998C144.801 233.076 145.188 233.115 145.632 233.115C146.064 233.115 146.451 233.076 146.793 232.998C147.135 232.92 147.423 232.809 147.657 232.665C147.897 232.521 148.08 232.35 148.206 232.152C148.332 231.954 148.395 231.735 148.395 231.495ZM150.024 222.243V222.837C150.024 223.035 149.898 223.161 149.646 223.215L148.611 223.35C148.815 223.746 148.917 224.184 148.917 224.664C148.917 225.108 148.83 225.513 148.656 225.879C148.488 226.239 148.254 226.548 147.954 226.806C147.654 227.064 147.294 227.262 146.874 227.4C146.454 227.538 145.998 227.607 145.506 227.607C145.08 227.607 144.678 227.556 144.3 227.454C144.108 227.574 143.961 227.703 143.859 227.841C143.757 227.973 143.706 228.108 143.706 228.246C143.706 228.462 143.793 228.627 143.967 228.741C144.147 228.849 144.381 228.927 144.669 228.975C144.957 229.023 145.284 229.053 145.65 229.065C146.022 229.077 146.4 229.098 146.784 229.128C147.174 229.152 147.552 229.197 147.918 229.263C148.29 229.329 148.62 229.437 148.908 229.587C149.196 229.737 149.427 229.944 149.601 230.208C149.781 230.472 149.871 230.814 149.871 231.234C149.871 231.624 149.772 232.002 149.574 232.368C149.382 232.734 149.103 233.058 148.737 233.34C148.371 233.628 147.921 233.856 147.387 234.024C146.859 234.198 146.262 234.285 145.596 234.285C144.93 234.285 144.348 234.219 143.85 234.087C143.352 233.955 142.938 233.778 142.608 233.556C142.278 233.334 142.029 233.076 141.861 232.782C141.699 232.494 141.618 232.191 141.618 231.873C141.618 231.423 141.759 231.042 142.041 230.73C142.323 230.418 142.71 230.169 143.202 229.983C142.932 229.863 142.716 229.704 142.554 229.506C142.398 229.302 142.32 229.029 142.32 228.687C142.32 228.555 142.344 228.42 142.392 228.282C142.44 228.138 142.512 227.997 142.608 227.859C142.71 227.715 142.833 227.58 142.977 227.454C143.121 227.328 143.289 227.217 143.481 227.121C143.031 226.869 142.68 226.536 142.428 226.122C142.176 225.702 142.05 225.216 142.05 224.664C142.05 224.22 142.134 223.818 142.302 223.458C142.476 223.092 142.716 222.783 143.022 222.531C143.328 222.273 143.691 222.075 144.111 221.937C144.537 221.799 145.002 221.73 145.506 221.73C145.902 221.73 146.271 221.775 146.613 221.865C146.955 221.949 147.267 222.075 147.549 222.243H150.024ZM157.978 221.883V231H156.376V221.883H157.978ZM158.32 219.021C158.32 219.177 158.287 219.324 158.221 219.462C158.161 219.594 158.077 219.714 157.969 219.822C157.867 219.924 157.744 220.005 157.6 220.065C157.462 220.125 157.315 220.155 157.159 220.155C157.003 220.155 156.856 220.125 156.718 220.065C156.586 220.005 156.469 219.924 156.367 219.822C156.265 219.714 156.184 219.594 156.124 219.462C156.064 219.324 156.034 219.177 156.034 219.021C156.034 218.865 156.064 218.718 156.124 218.58C156.184 218.436 156.265 218.313 156.367 218.211C156.469 218.103 156.586 218.019 156.718 217.959C156.856 217.899 157.003 217.869 157.159 217.869C157.315 217.869 157.462 217.899 157.6 217.959C157.744 218.019 157.867 218.103 157.969 218.211C158.077 218.313 158.161 218.436 158.221 218.58C158.287 218.718 158.32 218.865 158.32 219.021ZM162.122 223.206C162.32 222.984 162.53 222.783 162.752 222.603C162.974 222.423 163.208 222.27 163.454 222.144C163.706 222.012 163.97 221.913 164.246 221.847C164.528 221.775 164.831 221.739 165.155 221.739C165.653 221.739 166.091 221.823 166.469 221.991C166.853 222.153 167.171 222.387 167.423 222.693C167.681 222.993 167.876 223.356 168.008 223.782C168.14 224.208 168.206 224.679 168.206 225.195V231H166.595V225.195C166.595 224.505 166.436 223.971 166.118 223.593C165.806 223.209 165.329 223.017 164.687 223.017C164.213 223.017 163.769 223.131 163.355 223.359C162.947 223.587 162.569 223.896 162.221 224.286V231H160.61V221.883H161.573C161.801 221.883 161.942 221.994 161.996 222.216L162.122 223.206ZM176.908 217.743V231H175.306V217.743H176.908ZM181.198 221.883V231H179.596V221.883H181.198ZM181.54 219.021C181.54 219.177 181.507 219.324 181.441 219.462C181.381 219.594 181.297 219.714 181.189 219.822C181.087 219.924 180.964 220.005 180.82 220.065C180.682 220.125 180.535 220.155 180.379 220.155C180.223 220.155 180.076 220.125 179.938 220.065C179.806 220.005 179.689 219.924 179.587 219.822C179.485 219.714 179.404 219.594 179.344 219.462C179.284 219.324 179.254 219.177 179.254 219.021C179.254 218.865 179.284 218.718 179.344 218.58C179.404 218.436 179.485 218.313 179.587 218.211C179.689 218.103 179.806 218.019 179.938 217.959C180.076 217.899 180.223 217.869 180.379 217.869C180.535 217.869 180.682 217.899 180.82 217.959C180.964 218.019 181.087 218.103 181.189 218.211C181.297 218.313 181.381 218.436 181.441 218.58C181.507 218.718 181.54 218.865 181.54 219.021ZM185.343 223.206C185.541 222.984 185.751 222.783 185.973 222.603C186.195 222.423 186.429 222.27 186.675 222.144C186.927 222.012 187.191 221.913 187.467 221.847C187.749 221.775 188.052 221.739 188.376 221.739C188.874 221.739 189.312 221.823 189.69 221.991C190.074 222.153 190.392 222.387 190.644 222.693C190.902 222.993 191.097 223.356 191.229 223.782C191.361 224.208 191.427 224.679 191.427 225.195V231H189.816V225.195C189.816 224.505 189.657 223.971 189.339 223.593C189.027 223.209 188.55 223.017 187.908 223.017C187.434 223.017 186.99 223.131 186.576 223.359C186.168 223.587 185.79 223.896 185.442 224.286V231H183.831V221.883H184.794C185.022 221.883 185.163 221.994 185.217 222.216L185.343 223.206ZM199.97 225.447C199.97 225.075 199.916 224.736 199.808 224.43C199.706 224.118 199.553 223.851 199.349 223.629C199.151 223.401 198.908 223.227 198.62 223.107C198.332 222.981 198.005 222.918 197.639 222.918C196.871 222.918 196.262 223.143 195.812 223.593C195.368 224.037 195.092 224.655 194.984 225.447H199.97ZM201.266 229.722C201.068 229.962 200.831 230.172 200.555 230.352C200.279 230.526 199.982 230.67 199.664 230.784C199.352 230.898 199.028 230.982 198.692 231.036C198.356 231.096 198.023 231.126 197.693 231.126C197.063 231.126 196.481 231.021 195.947 230.811C195.419 230.595 194.96 230.283 194.57 229.875C194.186 229.461 193.886 228.951 193.67 228.345C193.454 227.739 193.346 227.043 193.346 226.257C193.346 225.621 193.442 225.027 193.634 224.475C193.832 223.923 194.114 223.446 194.48 223.044C194.846 222.636 195.293 222.318 195.821 222.09C196.349 221.856 196.943 221.739 197.603 221.739C198.149 221.739 198.653 221.832 199.115 222.018C199.583 222.198 199.985 222.462 200.321 222.81C200.663 223.152 200.93 223.578 201.122 224.088C201.314 224.592 201.41 225.168 201.41 225.816C201.41 226.068 201.383 226.236 201.329 226.32C201.275 226.404 201.173 226.446 201.023 226.446H194.93C194.948 227.022 195.026 227.523 195.164 227.949C195.308 228.375 195.506 228.732 195.758 229.02C196.01 229.302 196.31 229.515 196.658 229.659C197.006 229.797 197.396 229.866 197.828 229.866C198.23 229.866 198.575 229.821 198.863 229.731C199.157 229.635 199.409 229.533 199.619 229.425C199.829 229.317 200.003 229.218 200.141 229.128C200.285 229.032 200.408 228.984 200.51 228.984C200.642 228.984 200.744 229.035 200.816 229.137L201.266 229.722Z" fill="black"/>
</svg>
