<svg width="230" height="241" viewBox="0 0 230 241" fill="none" xmlns="http://www.w3.org/2000/svg">
<path d="M126.721 36.7708L130.219 36.551C130.224 36.5506 130.231 36.5501 130.237 36.5497C132.73 36.3412 134.967 35.0465 136.376 32.9965L139.141 28.9741C141.548 25.4723 142.48 21.2428 141.766 17.065C141.625 16.2445 141.202 15.4884 140.574 14.9368C139.946 14.3847 139.139 14.0586 138.3 14.019C134.03 13.8163 129.908 15.2416 126.691 18.0306L122.995 21.2347C121.111 22.8672 120.083 25.2247 120.173 27.7037C120.173 27.7096 120.173 27.7159 120.174 27.7222L120.373 31.1911C120.451 32.5435 119.951 33.8778 119.004 34.8497L90.1276 64.2628C89.3546 65.0621 88.9554 66.1587 89.004 67.3507C89.0576 68.663 89.6648 69.9519 90.6286 70.799C91.4993 71.5641 92.696 72 93.8924 72C94.0204 72 94.1485 71.995 94.2762 71.9847C95.4757 71.8897 96.5262 71.3655 97.2374 70.5035L123.22 38.5595C124.082 37.5084 125.358 36.8563 126.721 36.7708ZM120.285 36.0813C120.285 36.0813 95.8416 68.8046 95.8526 69.3876C95.8636 69.9706 96.5749 68.4386 95.8636 68.4949C95.0175 68.562 95.5784 67.2583 94.9707 66.7242C94.363 66.1896 92.9212 68.1915 92.8871 67.3507C92.5894 67.9047 96.3269 69.2341 96.7566 68.7901L120.285 36.0813C121.579 34.7533 126.826 36.8411 126.721 34.9975L127.415 31.9999C127.347 30.0594 128.621 28.9093 130.096 27.6308L127.865 19.3627C130.734 16.8764 121.526 22.8656 125.331 23.0449C125.765 23.0656 120.542 35.3137 120.867 35.5993C121.191 35.8843 131.212 34.4259 131.284 34.8497C131.921 38.5744 139.812 24.8554 137.666 27.9771L134.901 31.9999C133.798 33.6049 132.047 34.6195 130.096 34.7857L127.068 33.4987C125.209 33.6158 121.462 34.6457 120.285 36.0813Z" fill="#142893"/>
<path d="M140.661 63.934L120.93 46.2183C120.559 45.8848 120.234 45.9547 119.895 46.3207C119.557 46.6866 119.335 47.2103 119.706 47.5438L137.018 70.6841C137.487 71.1116 138.99 66.2779 139.004 66.9942C137.791 67.2522 137.603 67.7207 137.018 68.2979C136.433 68.8746 137.825 70.2237 136.958 70.2064C136.232 70.1922 139.702 65.3177 139.273 64.86L120.501 46.0217C120.163 45.6553 116.668 50.0515 116.297 50.3846C115.926 50.7181 115.899 51.2852 116.237 51.6512L133.823 70.6841C134.596 71.5081 135.697 71.9754 136.923 71.9991C136.955 71.9995 136.986 72 137.018 72C138.336 72 139.653 71.473 140.559 70.5796C141.488 69.6643 142.026 68.3243 141.999 66.9942C141.975 65.7856 141.501 64.7006 140.661 63.934Z" fill="#294CFF"/>
<path d="M93.6843 36.2823C95.1498 37.6306 97.0539 38.3993 99.0458 38.447C99.0521 38.4474 99.0584 38.4474 99.0643 38.4474L102.542 38.4582C103.897 38.4623 105.2 39.037 106.114 40.032L107.646 41.7111C107.821 41.9028 108.06 42 108.301 42C108.514 42 108.727 41.9239 108.897 41.7696C109.259 41.4406 109.285 40.8812 108.955 40.5203L108.99 37.1847C107.741 35.8247 109.067 34.5366 107.218 34.5303L106.722 27.7384C105.182 27.6992 96.2507 34.6774 95.1092 33.6455L84.8468 23.0557C84.744 22.9333 84.9675 23.3137 85.0806 23.2007C85.1582 23.1228 85.0333 22.5539 85.0806 22.5539C85.128 22.5539 84.7868 23.1228 84.8648 23.2007L93.0418 33.0556C93.9485 33.9611 98.6327 34.5514 99.5394 33.6455L100.577 32.5209L102.198 30.991L103.084 30.6961L103.674 30.4012L104.856 29.8113C105.762 28.9058 104.581 23.9333 103.674 23.0278L92.6563 15.2939C92.5373 15.1751 104.146 25.5061 104.265 25.3873C104.378 25.2743 103.97 29.0734 105.446 28.6316L106.332 28.0417C107.366 29.1812 106.673 27.5192 106.712 29.0574L106.722 32.5209C106.729 34.366 107.513 36.1401 108.877 37.3903L108.897 41.7696C108.306 42.3595 111.44 39.1859 111.769 38.825C112.098 38.4636 112.072 37.9047 111.711 37.5757L110.072 36.0852C109.073 35.1698 108.498 33.8683 108.494 32.515L108.483 29.0426C108.483 29.0363 108.483 29.03 108.482 29.0237C108.434 27.0345 107.665 25.1331 106.315 23.6696C106.289 23.6421 106.262 23.616 106.233 23.5917L94.2093 13.4911C93.3783 12.7926 92.1723 12.8448 91.4044 13.6117C90.5945 14.4204 90.5945 15.7359 91.4044 16.5441L100.577 25.7046C100.793 25.9207 100.793 26.2721 100.577 26.4881L100.125 26.9391L89.9018 16.7305C89.5562 16.3848 88.9956 16.3848 88.6499 16.7305C88.3042 17.0756 88.3042 17.6355 88.6499 17.9807L98.8732 28.1897L98.2107 28.8508L87.9874 18.6422C87.6418 18.297 87.0811 18.297 86.7355 18.6422C86.3894 18.9874 86.3894 19.5472 86.7355 19.8924L96.9583 30.1015L96.5068 30.5529C96.2905 30.7689 95.9385 30.7689 95.7222 30.5529L86.5489 21.3928C86.1568 21.0013 85.6354 20.7853 85.0806 20.7853C84.5259 20.7853 84.0045 21.0013 83.6124 21.3928C82.8445 22.1597 82.7926 23.364 83.4916 24.1943L93.6068 36.2013C93.6306 36.2301 93.6568 36.2571 93.6843 36.2823Z" fill="#294CFF"/>
<path d="M79.063 102.556C79.063 103.522 78.91 104.41 78.604 105.22C78.298 106.024 77.866 106.717 77.308 107.299C76.75 107.881 76.078 108.334 75.292 108.658C74.512 108.976 73.648 109.135 72.7 109.135C71.752 109.135 70.888 108.976 70.108 108.658C69.328 108.334 68.659 107.881 68.101 107.299C67.543 106.717 67.111 106.024 66.805 105.22C66.499 104.41 66.346 103.522 66.346 102.556C66.346 101.59 66.499 100.705 66.805 99.901C67.111 99.091 67.543 98.395 68.101 97.813C68.659 97.225 69.328 96.769 70.108 96.445C70.888 96.121 71.752 95.959 72.7 95.959C73.648 95.959 74.512 96.121 75.292 96.445C76.078 96.769 76.75 97.225 77.308 97.813C77.866 98.395 78.298 99.091 78.604 99.901C78.91 100.705 79.063 101.59 79.063 102.556ZM77.272 102.556C77.272 101.764 77.164 101.053 76.948 100.423C76.732 99.793 76.426 99.262 76.03 98.83C75.634 98.392 75.154 98.056 74.59 97.822C74.026 97.588 73.396 97.471 72.7 97.471C72.01 97.471 71.383 97.588 70.819 97.822C70.255 98.056 69.772 98.392 69.37 98.83C68.974 99.262 68.668 99.793 68.452 100.423C68.236 101.053 68.128 101.764 68.128 102.556C68.128 103.348 68.236 104.059 68.452 104.689C68.668 105.313 68.974 105.844 69.37 106.282C69.772 106.714 70.255 107.047 70.819 107.281C71.383 107.509 72.01 107.623 72.7 107.623C73.396 107.623 74.026 107.509 74.59 107.281C75.154 107.047 75.634 106.714 76.03 106.282C76.426 105.844 76.732 105.313 76.948 104.689C77.164 104.059 77.272 103.348 77.272 102.556ZM82.5283 101.71C82.8163 101.086 83.1703 100.6 83.5903 100.252C84.0103 99.898 84.5233 99.721 85.1293 99.721C85.3213 99.721 85.5043 99.742 85.6783 99.784C85.8583 99.826 86.0173 99.892 86.1553 99.982L86.0383 101.179C86.0023 101.329 85.9123 101.404 85.7683 101.404C85.6843 101.404 85.5613 101.386 85.3993 101.35C85.2373 101.314 85.0543 101.296 84.8503 101.296C84.5623 101.296 84.3043 101.338 84.0763 101.422C83.8543 101.506 83.6533 101.632 83.4733 101.8C83.2993 101.962 83.1403 102.166 82.9963 102.412C82.8583 102.652 82.7323 102.928 82.6183 103.24V109H81.0073V99.883H81.9253C82.0993 99.883 82.2193 99.916 82.2853 99.982C82.3513 100.048 82.3963 100.162 82.4203 100.324L82.5283 101.71ZM93.1524 102.052C92.8524 101.65 92.5284 101.371 92.1804 101.215C91.8324 101.053 91.4424 100.972 91.0104 100.972C90.1644 100.972 89.5134 101.275 89.0574 101.881C88.6014 102.487 88.3734 103.351 88.3734 104.473C88.3734 105.067 88.4244 105.577 88.5264 106.003C88.6284 106.423 88.7784 106.771 88.9764 107.047C89.1744 107.317 89.4174 107.515 89.7054 107.641C89.9934 107.767 90.3204 107.83 90.6864 107.83C91.2144 107.83 91.6734 107.71 92.0634 107.47C92.4594 107.23 92.8224 106.891 93.1524 106.453V102.052ZM94.7544 95.743V109H93.8004C93.5724 109 93.4284 108.889 93.3684 108.667L93.2244 107.56C92.8344 108.028 92.3904 108.406 91.8924 108.694C91.3944 108.982 90.8184 109.126 90.1644 109.126C89.6424 109.126 89.1684 109.027 88.7424 108.829C88.3164 108.625 87.9534 108.328 87.6534 107.938C87.3534 107.548 87.1224 107.062 86.9604 106.48C86.7984 105.898 86.7174 105.229 86.7174 104.473C86.7174 103.801 86.8074 103.177 86.9874 102.601C87.1674 102.019 87.4254 101.515 87.7614 101.089C88.0974 100.663 88.5084 100.33 88.9944 100.09C89.4864 99.844 90.0384 99.721 90.6504 99.721C91.2084 99.721 91.6854 99.817 92.0814 100.009C92.4834 100.195 92.8404 100.456 93.1524 100.792V95.743H94.7544ZM103.387 103.447C103.387 103.075 103.333 102.736 103.225 102.43C103.123 102.118 102.97 101.851 102.766 101.629C102.568 101.401 102.325 101.227 102.037 101.107C101.749 100.981 101.422 100.918 101.056 100.918C100.288 100.918 99.6786 101.143 99.2286 101.593C98.7846 102.037 98.5086 102.655 98.4006 103.447H103.387ZM104.683 107.722C104.485 107.962 104.248 108.172 103.972 108.352C103.696 108.526 103.399 108.67 103.081 108.784C102.769 108.898 102.445 108.982 102.109 109.036C101.773 109.096 101.44 109.126 101.11 109.126C100.48 109.126 99.8976 109.021 99.3636 108.811C98.8356 108.595 98.3766 108.283 97.9866 107.875C97.6026 107.461 97.3026 106.951 97.0866 106.345C96.8706 105.739 96.7626 105.043 96.7626 104.257C96.7626 103.621 96.8586 103.027 97.0506 102.475C97.2486 101.923 97.5306 101.446 97.8966 101.044C98.2626 100.636 98.7096 100.318 99.2376 100.09C99.7656 99.856 100.36 99.739 101.02 99.739C101.566 99.739 102.07 99.832 102.532 100.018C103 100.198 103.402 100.462 103.738 100.81C104.08 101.152 104.347 101.578 104.539 102.088C104.731 102.592 104.827 103.168 104.827 103.816C104.827 104.068 104.8 104.236 104.746 104.32C104.692 104.404 104.59 104.446 104.44 104.446H98.3466C98.3646 105.022 98.4426 105.523 98.5806 105.949C98.7246 106.375 98.9226 106.732 99.1746 107.02C99.4266 107.302 99.7266 107.515 100.075 107.659C100.423 107.797 100.813 107.866 101.245 107.866C101.647 107.866 101.992 107.821 102.28 107.731C102.574 107.635 102.826 107.533 103.036 107.425C103.246 107.317 103.42 107.218 103.558 107.128C103.702 107.032 103.825 106.984 103.927 106.984C104.059 106.984 104.161 107.035 104.233 107.137L104.683 107.722ZM108.315 101.71C108.603 101.086 108.957 100.6 109.377 100.252C109.797 99.898 110.31 99.721 110.916 99.721C111.108 99.721 111.291 99.742 111.465 99.784C111.645 99.826 111.804 99.892 111.942 99.982L111.825 101.179C111.789 101.329 111.699 101.404 111.555 101.404C111.471 101.404 111.348 101.386 111.186 101.35C111.024 101.314 110.841 101.296 110.637 101.296C110.349 101.296 110.091 101.338 109.863 101.422C109.641 101.506 109.44 101.632 109.26 101.8C109.086 101.962 108.927 102.166 108.783 102.412C108.645 102.652 108.519 102.928 108.405 103.24V109H106.794V99.883H107.712C107.886 99.883 108.006 99.916 108.072 99.982C108.138 100.048 108.183 100.162 108.207 100.324L108.315 101.71ZM122.511 104.896C121.773 104.92 121.143 104.98 120.621 105.076C120.105 105.166 119.682 105.286 119.352 105.436C119.028 105.586 118.791 105.763 118.641 105.967C118.497 106.171 118.425 106.399 118.425 106.651C118.425 106.891 118.464 107.098 118.542 107.272C118.62 107.446 118.725 107.59 118.857 107.704C118.995 107.812 119.154 107.893 119.334 107.947C119.52 107.995 119.718 108.019 119.928 108.019C120.21 108.019 120.468 107.992 120.702 107.938C120.936 107.878 121.155 107.794 121.359 107.686C121.569 107.578 121.767 107.449 121.953 107.299C122.145 107.149 122.331 106.978 122.511 106.786V104.896ZM117.336 101.17C117.84 100.684 118.383 100.321 118.965 100.081C119.547 99.841 120.192 99.721 120.9 99.721C121.41 99.721 121.863 99.805 122.259 99.973C122.655 100.141 122.988 100.375 123.258 100.675C123.528 100.975 123.732 101.338 123.87 101.764C124.008 102.19 124.077 102.658 124.077 103.168V109H123.366C123.21 109 123.09 108.976 123.006 108.928C122.922 108.874 122.856 108.772 122.808 108.622L122.628 107.758C122.388 107.98 122.154 108.178 121.926 108.352C121.698 108.52 121.458 108.664 121.206 108.784C120.954 108.898 120.684 108.985 120.396 109.045C120.114 109.111 119.799 109.144 119.451 109.144C119.097 109.144 118.764 109.096 118.452 109C118.14 108.898 117.867 108.748 117.633 108.55C117.405 108.352 117.222 108.103 117.084 107.803C116.952 107.497 116.886 107.137 116.886 106.723C116.886 106.363 116.985 106.018 117.183 105.688C117.381 105.352 117.702 105.055 118.146 104.797C118.59 104.539 119.169 104.329 119.883 104.167C120.597 103.999 121.473 103.903 122.511 103.879V103.168C122.511 102.46 122.358 101.926 122.052 101.566C121.746 101.2 121.299 101.017 120.711 101.017C120.315 101.017 119.982 101.068 119.712 101.17C119.448 101.266 119.217 101.377 119.019 101.503C118.827 101.623 118.659 101.734 118.515 101.836C118.377 101.932 118.239 101.98 118.101 101.98C117.993 101.98 117.9 101.953 117.822 101.899C117.744 101.839 117.678 101.767 117.624 101.683L117.336 101.17ZM128.128 101.098C128.518 100.684 128.95 100.354 129.424 100.108C129.898 99.862 130.444 99.739 131.062 99.739C131.56 99.739 131.998 99.823 132.376 99.991C132.76 100.153 133.078 100.387 133.33 100.693C133.588 100.993 133.783 101.356 133.915 101.782C134.047 102.208 134.113 102.679 134.113 103.195V109H132.502V103.195C132.502 102.505 132.343 101.971 132.025 101.593C131.713 101.209 131.236 101.017 130.594 101.017C130.12 101.017 129.676 101.131 129.262 101.359C128.854 101.587 128.476 101.896 128.128 102.286V109H126.517V95.743H128.128V101.098ZM142.656 103.447C142.656 103.075 142.602 102.736 142.494 102.43C142.392 102.118 142.239 101.851 142.035 101.629C141.837 101.401 141.594 101.227 141.306 101.107C141.018 100.981 140.691 100.918 140.325 100.918C139.557 100.918 138.948 101.143 138.498 101.593C138.054 102.037 137.778 102.655 137.67 103.447H142.656ZM143.952 107.722C143.754 107.962 143.517 108.172 143.241 108.352C142.965 108.526 142.668 108.67 142.35 108.784C142.038 108.898 141.714 108.982 141.378 109.036C141.042 109.096 140.709 109.126 140.379 109.126C139.749 109.126 139.167 109.021 138.633 108.811C138.105 108.595 137.646 108.283 137.256 107.875C136.872 107.461 136.572 106.951 136.356 106.345C136.14 105.739 136.032 105.043 136.032 104.257C136.032 103.621 136.128 103.027 136.32 102.475C136.518 101.923 136.8 101.446 137.166 101.044C137.532 100.636 137.979 100.318 138.507 100.09C139.035 99.856 139.629 99.739 140.289 99.739C140.835 99.739 141.339 99.832 141.801 100.018C142.269 100.198 142.671 100.462 143.007 100.81C143.349 101.152 143.616 101.578 143.808 102.088C144 102.592 144.096 103.168 144.096 103.816C144.096 104.068 144.069 104.236 144.015 104.32C143.961 104.404 143.859 104.446 143.709 104.446H137.616C137.634 105.022 137.712 105.523 137.85 105.949C137.994 106.375 138.192 106.732 138.444 107.02C138.696 107.302 138.996 107.515 139.344 107.659C139.692 107.797 140.082 107.866 140.514 107.866C140.916 107.866 141.261 107.821 141.549 107.731C141.843 107.635 142.095 107.533 142.305 107.425C142.515 107.317 142.689 107.218 142.827 107.128C142.971 107.032 143.094 106.984 143.196 106.984C143.328 106.984 143.43 107.035 143.502 107.137L143.952 107.722ZM151.005 104.896C150.267 104.92 149.637 104.98 149.115 105.076C148.599 105.166 148.176 105.286 147.846 105.436C147.522 105.586 147.285 105.763 147.135 105.967C146.991 106.171 146.919 106.399 146.919 106.651C146.919 106.891 146.958 107.098 147.036 107.272C147.114 107.446 147.219 107.59 147.351 107.704C147.489 107.812 147.648 107.893 147.828 107.947C148.014 107.995 148.212 108.019 148.422 108.019C148.704 108.019 148.962 107.992 149.196 107.938C149.43 107.878 149.649 107.794 149.853 107.686C150.063 107.578 150.261 107.449 150.447 107.299C150.639 107.149 150.825 106.978 151.005 106.786V104.896ZM145.83 101.17C146.334 100.684 146.877 100.321 147.459 100.081C148.041 99.841 148.686 99.721 149.394 99.721C149.904 99.721 150.357 99.805 150.753 99.973C151.149 100.141 151.482 100.375 151.752 100.675C152.022 100.975 152.226 101.338 152.364 101.764C152.502 102.19 152.571 102.658 152.571 103.168V109H151.86C151.704 109 151.584 108.976 151.5 108.928C151.416 108.874 151.35 108.772 151.302 108.622L151.122 107.758C150.882 107.98 150.648 108.178 150.42 108.352C150.192 108.52 149.952 108.664 149.7 108.784C149.448 108.898 149.178 108.985 148.89 109.045C148.608 109.111 148.293 109.144 147.945 109.144C147.591 109.144 147.258 109.096 146.946 109C146.634 108.898 146.361 108.748 146.127 108.55C145.899 108.352 145.716 108.103 145.578 107.803C145.446 107.497 145.38 107.137 145.38 106.723C145.38 106.363 145.479 106.018 145.677 105.688C145.875 105.352 146.196 105.055 146.64 104.797C147.084 104.539 147.663 104.329 148.377 104.167C149.091 103.999 149.967 103.903 151.005 103.879V103.168C151.005 102.46 150.852 101.926 150.546 101.566C150.24 101.2 149.793 101.017 149.205 101.017C148.809 101.017 148.476 101.068 148.206 101.17C147.942 101.266 147.711 101.377 147.513 101.503C147.321 101.623 147.153 101.734 147.009 101.836C146.871 101.932 146.733 101.98 146.595 101.98C146.487 101.98 146.394 101.953 146.316 101.899C146.238 101.839 146.172 101.767 146.118 101.683L145.83 101.17ZM160.951 102.052C160.651 101.65 160.327 101.371 159.979 101.215C159.631 101.053 159.241 100.972 158.809 100.972C157.963 100.972 157.312 101.275 156.856 101.881C156.4 102.487 156.172 103.351 156.172 104.473C156.172 105.067 156.223 105.577 156.325 106.003C156.427 106.423 156.577 106.771 156.775 107.047C156.973 107.317 157.216 107.515 157.504 107.641C157.792 107.767 158.119 107.83 158.485 107.83C159.013 107.83 159.472 107.71 159.862 107.47C160.258 107.23 160.621 106.891 160.951 106.453V102.052ZM162.553 95.743V109H161.599C161.371 109 161.227 108.889 161.167 108.667L161.023 107.56C160.633 108.028 160.189 108.406 159.691 108.694C159.193 108.982 158.617 109.126 157.963 109.126C157.441 109.126 156.967 109.027 156.541 108.829C156.115 108.625 155.752 108.328 155.452 107.938C155.152 107.548 154.921 107.062 154.759 106.48C154.597 105.898 154.516 105.229 154.516 104.473C154.516 103.801 154.606 103.177 154.786 102.601C154.966 102.019 155.224 101.515 155.56 101.089C155.896 100.663 156.307 100.33 156.793 100.09C157.285 99.844 157.837 99.721 158.449 99.721C159.007 99.721 159.484 99.817 159.88 100.009C160.282 100.195 160.639 100.456 160.951 100.792V95.743H162.553Z" fill="black"/>
<path d="M17.2128 152.119C17.1588 152.209 17.0988 152.278 17.0328 152.326C16.9728 152.368 16.8978 152.389 16.8078 152.389C16.7058 152.389 16.5858 152.338 16.4478 152.236C16.3098 152.134 16.1358 152.023 15.9258 151.903C15.7218 151.777 15.4728 151.663 15.1788 151.561C14.8908 151.459 14.5398 151.408 14.1258 151.408C13.7358 151.408 13.3908 151.462 13.0908 151.57C12.7968 151.672 12.5478 151.813 12.3438 151.993C12.1458 152.173 11.9958 152.386 11.8938 152.632C11.7918 152.872 11.7408 153.133 11.7408 153.415C11.7408 153.775 11.8278 154.075 12.0018 154.315C12.1818 154.549 12.4158 154.75 12.7038 154.918C12.9978 155.086 13.3278 155.233 13.6938 155.359C14.0658 155.479 14.4438 155.605 14.8278 155.737C15.2178 155.869 15.5958 156.019 15.9618 156.187C16.3338 156.349 16.6638 156.556 16.9518 156.808C17.2458 157.06 17.4798 157.369 17.6538 157.735C17.8338 158.101 17.9238 158.551 17.9238 159.085C17.9238 159.649 17.8278 160.18 17.6358 160.678C17.4438 161.17 17.1618 161.599 16.7898 161.965C16.4238 162.331 15.9708 162.619 15.4308 162.829C14.8968 163.039 14.2878 163.144 13.6038 163.144C12.7638 163.144 12.0018 162.994 11.3178 162.694C10.6338 162.388 10.0487 161.977 9.56275 161.461L10.0668 160.633C10.1148 160.567 10.1718 160.513 10.2378 160.471C10.3098 160.423 10.3878 160.399 10.4718 160.399C10.5498 160.399 10.6368 160.432 10.7328 160.498C10.8348 160.558 10.9488 160.636 11.0748 160.732C11.2008 160.828 11.3448 160.933 11.5068 161.047C11.6688 161.161 11.8518 161.266 12.0558 161.362C12.2658 161.458 12.5028 161.539 12.7668 161.605C13.0308 161.665 13.3278 161.695 13.6578 161.695C14.0718 161.695 14.4408 161.638 14.7648 161.524C15.0888 161.41 15.3618 161.251 15.5838 161.047C15.8118 160.837 15.9858 160.588 16.1058 160.3C16.2258 160.012 16.2858 159.691 16.2858 159.337C16.2858 158.947 16.1958 158.629 16.0158 158.383C15.8418 158.131 15.6108 157.921 15.3228 157.753C15.0348 157.585 14.7048 157.444 14.3328 157.33C13.9608 157.21 13.5828 157.09 13.1988 156.97C12.8148 156.844 12.4368 156.7 12.0648 156.538C11.6928 156.376 11.3628 156.166 11.0748 155.908C10.7868 155.65 10.5528 155.329 10.3728 154.945C10.1988 154.555 10.1118 154.075 10.1118 153.505C10.1118 153.049 10.1988 152.608 10.3728 152.182C10.5528 151.756 10.8108 151.378 11.1468 151.048C11.4888 150.718 11.9058 150.454 12.3978 150.256C12.8958 150.058 13.4658 149.959 14.1078 149.959C14.8278 149.959 15.4818 150.073 16.0698 150.301C16.6638 150.529 17.1858 150.859 17.6358 151.291L17.2128 152.119ZM22.4059 163.144C21.6859 163.144 21.1309 162.943 20.7409 162.541C20.3569 162.139 20.1649 161.56 20.1649 160.804V155.224H19.0669C18.9709 155.224 18.8899 155.197 18.8239 155.143C18.7579 155.083 18.7249 154.993 18.7249 154.873V154.234L20.2189 154.045L20.5879 151.228C20.6059 151.138 20.6449 151.066 20.7049 151.012C20.7709 150.952 20.8549 150.922 20.9569 150.922H21.7669V154.063H24.4039V155.224H21.7669V160.696C21.7669 161.08 21.8599 161.365 22.0459 161.551C22.2319 161.737 22.4719 161.83 22.7659 161.83C22.9339 161.83 23.0779 161.809 23.1979 161.767C23.3239 161.719 23.4319 161.668 23.5219 161.614C23.6119 161.56 23.6869 161.512 23.7469 161.47C23.8129 161.422 23.8699 161.398 23.9179 161.398C24.0019 161.398 24.0769 161.449 24.1429 161.551L24.6109 162.316C24.3349 162.574 24.0019 162.778 23.6119 162.928C23.2219 163.072 22.8199 163.144 22.4059 163.144ZM30.9991 158.896C30.2611 158.92 29.6311 158.98 29.1091 159.076C28.5931 159.166 28.1701 159.286 27.8401 159.436C27.5161 159.586 27.2791 159.763 27.1291 159.967C26.9851 160.171 26.9131 160.399 26.9131 160.651C26.9131 160.891 26.9521 161.098 27.0301 161.272C27.1081 161.446 27.2131 161.59 27.3451 161.704C27.4831 161.812 27.6421 161.893 27.8221 161.947C28.0081 161.995 28.2061 162.019 28.4161 162.019C28.6981 162.019 28.9561 161.992 29.1901 161.938C29.4241 161.878 29.6431 161.794 29.8471 161.686C30.0571 161.578 30.2551 161.449 30.4411 161.299C30.6331 161.149 30.8191 160.978 30.9991 160.786V158.896ZM25.8241 155.17C26.3281 154.684 26.8711 154.321 27.4531 154.081C28.0351 153.841 28.6801 153.721 29.3881 153.721C29.8981 153.721 30.3511 153.805 30.7471 153.973C31.1431 154.141 31.4761 154.375 31.7461 154.675C32.0161 154.975 32.2201 155.338 32.3581 155.764C32.4961 156.19 32.5651 156.658 32.5651 157.168V163H31.8541C31.6981 163 31.5781 162.976 31.4941 162.928C31.4101 162.874 31.3441 162.772 31.2961 162.622L31.1161 161.758C30.8761 161.98 30.6421 162.178 30.4141 162.352C30.1861 162.52 29.9461 162.664 29.6941 162.784C29.4421 162.898 29.1721 162.985 28.8841 163.045C28.6021 163.111 28.2871 163.144 27.9391 163.144C27.5851 163.144 27.2521 163.096 26.9401 163C26.6281 162.898 26.3551 162.748 26.1211 162.55C25.8931 162.352 25.7101 162.103 25.5721 161.803C25.4401 161.497 25.3741 161.137 25.3741 160.723C25.3741 160.363 25.4731 160.018 25.6711 159.688C25.8691 159.352 26.1901 159.055 26.6341 158.797C27.0781 158.539 27.6571 158.329 28.3711 158.167C29.0851 157.999 29.9611 157.903 30.9991 157.879V157.168C30.9991 156.46 30.8461 155.926 30.5401 155.566C30.2341 155.2 29.7871 155.017 29.1991 155.017C28.8031 155.017 28.4701 155.068 28.2001 155.17C27.9361 155.266 27.7051 155.377 27.5071 155.503C27.3151 155.623 27.1471 155.734 27.0031 155.836C26.8651 155.932 26.7271 155.98 26.5891 155.98C26.4811 155.98 26.3881 155.953 26.3101 155.899C26.2321 155.839 26.1661 155.767 26.1121 155.683L25.8241 155.17ZM36.5263 155.71C36.8143 155.086 37.1683 154.6 37.5883 154.252C38.0083 153.898 38.5213 153.721 39.1273 153.721C39.3193 153.721 39.5023 153.742 39.6763 153.784C39.8563 153.826 40.0153 153.892 40.1533 153.982L40.0363 155.179C40.0003 155.329 39.9103 155.404 39.7663 155.404C39.6823 155.404 39.5593 155.386 39.3973 155.35C39.2353 155.314 39.0523 155.296 38.8483 155.296C38.5603 155.296 38.3023 155.338 38.0743 155.422C37.8523 155.506 37.6513 155.632 37.4713 155.8C37.2973 155.962 37.1383 156.166 36.9943 156.412C36.8563 156.652 36.7303 156.928 36.6163 157.24V163H35.0053V153.883H35.9233C36.0973 153.883 36.2173 153.916 36.2833 153.982C36.3493 154.048 36.3943 154.162 36.4183 154.324L36.5263 155.71ZM44.361 163.144C43.641 163.144 43.086 162.943 42.696 162.541C42.312 162.139 42.12 161.56 42.12 160.804V155.224H41.022C40.926 155.224 40.845 155.197 40.779 155.143C40.713 155.083 40.68 154.993 40.68 154.873V154.234L42.174 154.045L42.543 151.228C42.561 151.138 42.6 151.066 42.66 151.012C42.726 150.952 42.81 150.922 42.912 150.922H43.722V154.063H46.359V155.224H43.722V160.696C43.722 161.08 43.815 161.365 44.001 161.551C44.187 161.737 44.427 161.83 44.721 161.83C44.889 161.83 45.033 161.809 45.153 161.767C45.279 161.719 45.387 161.668 45.477 161.614C45.567 161.56 45.642 161.512 45.702 161.47C45.768 161.422 45.825 161.398 45.873 161.398C45.957 161.398 46.032 161.449 46.098 161.551L46.566 162.316C46.29 162.574 45.957 162.778 45.567 162.928C45.177 163.072 44.775 163.144 44.361 163.144ZM55.4176 163.144C54.6976 163.144 54.1426 162.943 53.7526 162.541C53.3686 162.139 53.1766 161.56 53.1766 160.804V155.224H52.0786C51.9826 155.224 51.9016 155.197 51.8356 155.143C51.7696 155.083 51.7366 154.993 51.7366 154.873V154.234L53.2306 154.045L53.5996 151.228C53.6176 151.138 53.6566 151.066 53.7166 151.012C53.7826 150.952 53.8666 150.922 53.9686 150.922H54.7786V154.063H57.4156V155.224H54.7786V160.696C54.7786 161.08 54.8716 161.365 55.0576 161.551C55.2436 161.737 55.4836 161.83 55.7776 161.83C55.9456 161.83 56.0896 161.809 56.2096 161.767C56.3356 161.719 56.4436 161.668 56.5336 161.614C56.6236 161.56 56.6986 161.512 56.7586 161.47C56.8246 161.422 56.8816 161.398 56.9296 161.398C57.0136 161.398 57.0886 161.449 57.1546 161.551L57.6226 162.316C57.3466 162.574 57.0136 162.778 56.6236 162.928C56.2336 163.072 55.8316 163.144 55.4176 163.144ZM60.6808 155.098C61.0708 154.684 61.5028 154.354 61.9768 154.108C62.4508 153.862 62.9968 153.739 63.6148 153.739C64.1128 153.739 64.5508 153.823 64.9288 153.991C65.3128 154.153 65.6308 154.387 65.8828 154.693C66.1408 154.993 66.3358 155.356 66.4678 155.782C66.5998 156.208 66.6658 156.679 66.6658 157.195V163H65.0548V157.195C65.0548 156.505 64.8958 155.971 64.5778 155.593C64.2658 155.209 63.7888 155.017 63.1468 155.017C62.6728 155.017 62.2288 155.131 61.8148 155.359C61.4068 155.587 61.0288 155.896 60.6808 156.286V163H59.0698V149.743H60.6808V155.098ZM75.2089 157.447C75.2089 157.075 75.1549 156.736 75.0469 156.43C74.9449 156.118 74.7919 155.851 74.5879 155.629C74.3899 155.401 74.1469 155.227 73.8589 155.107C73.5709 154.981 73.2439 154.918 72.8779 154.918C72.1099 154.918 71.5009 155.143 71.0509 155.593C70.6069 156.037 70.3309 156.655 70.2229 157.447H75.2089ZM76.5049 161.722C76.3069 161.962 76.0699 162.172 75.7939 162.352C75.5179 162.526 75.2209 162.67 74.9029 162.784C74.5909 162.898 74.2669 162.982 73.9309 163.036C73.5949 163.096 73.2619 163.126 72.9319 163.126C72.3019 163.126 71.7199 163.021 71.1859 162.811C70.6579 162.595 70.1989 162.283 69.8089 161.875C69.4249 161.461 69.1249 160.951 68.9089 160.345C68.6929 159.739 68.5849 159.043 68.5849 158.257C68.5849 157.621 68.6809 157.027 68.8729 156.475C69.0709 155.923 69.3529 155.446 69.7189 155.044C70.0849 154.636 70.5319 154.318 71.0599 154.09C71.5879 153.856 72.1819 153.739 72.8419 153.739C73.3879 153.739 73.8919 153.832 74.3539 154.018C74.8219 154.198 75.2239 154.462 75.5599 154.81C75.9019 155.152 76.1689 155.578 76.3609 156.088C76.5529 156.592 76.6489 157.168 76.6489 157.816C76.6489 158.068 76.6219 158.236 76.5679 158.32C76.5139 158.404 76.4119 158.446 76.2619 158.446H70.1689C70.1869 159.022 70.2649 159.523 70.4029 159.949C70.5469 160.375 70.7449 160.732 70.9969 161.02C71.2489 161.302 71.5489 161.515 71.8969 161.659C72.2449 161.797 72.6349 161.866 73.0669 161.866C73.4689 161.866 73.8139 161.821 74.1019 161.731C74.3959 161.635 74.6479 161.533 74.8579 161.425C75.0679 161.317 75.2419 161.218 75.3799 161.128C75.5239 161.032 75.6469 160.984 75.7489 160.984C75.8809 160.984 75.9829 161.035 76.0549 161.137L76.5049 161.722ZM89.1621 156.052C88.8621 155.65 88.5381 155.371 88.1901 155.215C87.8421 155.053 87.4521 154.972 87.0201 154.972C86.1741 154.972 85.5231 155.275 85.0671 155.881C84.6111 156.487 84.3831 157.351 84.3831 158.473C84.3831 159.067 84.4341 159.577 84.5361 160.003C84.6381 160.423 84.7881 160.771 84.9861 161.047C85.1841 161.317 85.4271 161.515 85.7151 161.641C86.0031 161.767 86.3301 161.83 86.6961 161.83C87.2241 161.83 87.6831 161.71 88.0731 161.47C88.4691 161.23 88.8321 160.891 89.1621 160.453V156.052ZM90.7641 149.743V163H89.8101C89.5821 163 89.4381 162.889 89.3781 162.667L89.2341 161.56C88.8441 162.028 88.4001 162.406 87.9021 162.694C87.4041 162.982 86.8281 163.126 86.1741 163.126C85.6521 163.126 85.1781 163.027 84.7521 162.829C84.3261 162.625 83.9631 162.328 83.6631 161.938C83.3631 161.548 83.1321 161.062 82.9701 160.48C82.8081 159.898 82.7271 159.229 82.7271 158.473C82.7271 157.801 82.8171 157.177 82.9971 156.601C83.1771 156.019 83.4351 155.515 83.7711 155.089C84.1071 154.663 84.5181 154.33 85.0041 154.09C85.4961 153.844 86.0481 153.721 86.6601 153.721C87.2181 153.721 87.6951 153.817 88.0911 154.009C88.4931 154.195 88.8501 154.456 89.1621 154.792V149.743H90.7641ZM94.9864 153.883V163H93.3844V153.883H94.9864ZM95.3284 151.021C95.3284 151.177 95.2954 151.324 95.2294 151.462C95.1694 151.594 95.0854 151.714 94.9774 151.822C94.8754 151.924 94.7524 152.005 94.6084 152.065C94.4704 152.125 94.3234 152.155 94.1674 152.155C94.0114 152.155 93.8644 152.125 93.7264 152.065C93.5944 152.005 93.4774 151.924 93.3754 151.822C93.2734 151.714 93.1924 151.594 93.1324 151.462C93.0724 151.324 93.0424 151.177 93.0424 151.021C93.0424 150.865 93.0724 150.718 93.1324 150.58C93.1924 150.436 93.2734 150.313 93.3754 150.211C93.4774 150.103 93.5944 150.019 93.7264 149.959C93.8644 149.899 94.0114 149.869 94.1674 149.869C94.3234 149.869 94.4704 149.899 94.6084 149.959C94.7524 150.019 94.8754 150.103 94.9774 150.211C95.0854 150.313 95.1694 150.436 95.2294 150.58C95.2954 150.718 95.3284 150.865 95.3284 151.021ZM99.1306 155.206C99.3286 154.984 99.5386 154.783 99.7606 154.603C99.9826 154.423 100.217 154.27 100.463 154.144C100.715 154.012 100.979 153.913 101.255 153.847C101.537 153.775 101.84 153.739 102.164 153.739C102.662 153.739 103.1 153.823 103.478 153.991C103.862 154.153 104.18 154.387 104.432 154.693C104.69 154.993 104.885 155.356 105.017 155.782C105.149 156.208 105.215 156.679 105.215 157.195V163H103.604V157.195C103.604 156.505 103.445 155.971 103.127 155.593C102.815 155.209 102.338 155.017 101.696 155.017C101.222 155.017 100.778 155.131 100.364 155.359C99.9556 155.587 99.5776 155.896 99.2296 156.286V163H97.6186V153.883H98.5816C98.8096 153.883 98.9506 153.994 99.0046 154.216L99.1306 155.206ZM109.348 153.883V163H107.746V153.883H109.348ZM109.69 151.021C109.69 151.177 109.657 151.324 109.591 151.462C109.531 151.594 109.447 151.714 109.339 151.822C109.237 151.924 109.114 152.005 108.97 152.065C108.832 152.125 108.685 152.155 108.529 152.155C108.373 152.155 108.226 152.125 108.088 152.065C107.956 152.005 107.839 151.924 107.737 151.822C107.635 151.714 107.554 151.594 107.494 151.462C107.434 151.324 107.404 151.177 107.404 151.021C107.404 150.865 107.434 150.718 107.494 150.58C107.554 150.436 107.635 150.313 107.737 150.211C107.839 150.103 107.956 150.019 108.088 149.959C108.226 149.899 108.373 149.869 108.529 149.869C108.685 149.869 108.832 149.899 108.97 149.959C109.114 150.019 109.237 150.103 109.339 150.211C109.447 150.313 109.531 150.436 109.591 150.58C109.657 150.718 109.69 150.865 109.69 151.021ZM113.492 155.206C113.69 154.984 113.9 154.783 114.122 154.603C114.344 154.423 114.578 154.27 114.824 154.144C115.076 154.012 115.34 153.913 115.616 153.847C115.898 153.775 116.201 153.739 116.525 153.739C117.023 153.739 117.461 153.823 117.839 153.991C118.223 154.153 118.541 154.387 118.793 154.693C119.051 154.993 119.246 155.356 119.378 155.782C119.51 156.208 119.576 156.679 119.576 157.195V163H117.965V157.195C117.965 156.505 117.806 155.971 117.488 155.593C117.176 155.209 116.699 155.017 116.057 155.017C115.583 155.017 115.139 155.131 114.725 155.359C114.317 155.587 113.939 155.896 113.591 156.286V163H111.98V153.883H112.943C113.171 153.883 113.312 153.994 113.366 154.216L113.492 155.206ZM125.194 158.545C125.518 158.545 125.803 158.5 126.049 158.41C126.295 158.32 126.502 158.194 126.67 158.032C126.838 157.87 126.964 157.678 127.048 157.456C127.132 157.228 127.174 156.979 127.174 156.709C127.174 156.151 127.003 155.707 126.661 155.377C126.325 155.047 125.836 154.882 125.194 154.882C124.546 154.882 124.051 155.047 123.709 155.377C123.373 155.707 123.205 156.151 123.205 156.709C123.205 156.979 123.247 157.228 123.331 157.456C123.421 157.678 123.55 157.87 123.718 158.032C123.886 158.194 124.093 158.32 124.339 158.41C124.585 158.5 124.87 158.545 125.194 158.545ZM128.083 163.495C128.083 163.273 128.02 163.093 127.894 162.955C127.768 162.817 127.597 162.709 127.381 162.631C127.171 162.553 126.925 162.499 126.643 162.469C126.361 162.433 126.061 162.406 125.743 162.388C125.431 162.37 125.113 162.352 124.789 162.334C124.465 162.316 124.153 162.286 123.853 162.244C123.517 162.4 123.241 162.598 123.025 162.838C122.815 163.072 122.71 163.348 122.71 163.666C122.71 163.87 122.761 164.059 122.863 164.233C122.971 164.413 123.133 164.566 123.349 164.692C123.565 164.824 123.835 164.926 124.159 164.998C124.489 165.076 124.876 165.115 125.32 165.115C125.752 165.115 126.139 165.076 126.481 164.998C126.823 164.92 127.111 164.809 127.345 164.665C127.585 164.521 127.768 164.35 127.894 164.152C128.02 163.954 128.083 163.735 128.083 163.495ZM129.712 154.243V154.837C129.712 155.035 129.586 155.161 129.334 155.215L128.299 155.35C128.503 155.746 128.605 156.184 128.605 156.664C128.605 157.108 128.518 157.513 128.344 157.879C128.176 158.239 127.942 158.548 127.642 158.806C127.342 159.064 126.982 159.262 126.562 159.4C126.142 159.538 125.686 159.607 125.194 159.607C124.768 159.607 124.366 159.556 123.988 159.454C123.796 159.574 123.649 159.703 123.547 159.841C123.445 159.973 123.394 160.108 123.394 160.246C123.394 160.462 123.481 160.627 123.655 160.741C123.835 160.849 124.069 160.927 124.357 160.975C124.645 161.023 124.972 161.053 125.338 161.065C125.71 161.077 126.088 161.098 126.472 161.128C126.862 161.152 127.24 161.197 127.606 161.263C127.978 161.329 128.308 161.437 128.596 161.587C128.884 161.737 129.115 161.944 129.289 162.208C129.469 162.472 129.559 162.814 129.559 163.234C129.559 163.624 129.46 164.002 129.262 164.368C129.07 164.734 128.791 165.058 128.425 165.34C128.059 165.628 127.609 165.856 127.075 166.024C126.547 166.198 125.95 166.285 125.284 166.285C124.618 166.285 124.036 166.219 123.538 166.087C123.04 165.955 122.626 165.778 122.296 165.556C121.966 165.334 121.717 165.076 121.549 164.782C121.387 164.494 121.306 164.191 121.306 163.873C121.306 163.423 121.447 163.042 121.729 162.73C122.011 162.418 122.398 162.169 122.89 161.983C122.62 161.863 122.404 161.704 122.242 161.506C122.086 161.302 122.008 161.029 122.008 160.687C122.008 160.555 122.032 160.42 122.08 160.282C122.128 160.138 122.2 159.997 122.296 159.859C122.398 159.715 122.521 159.58 122.665 159.454C122.809 159.328 122.977 159.217 123.169 159.121C122.719 158.869 122.368 158.536 122.116 158.122C121.864 157.702 121.738 157.216 121.738 156.664C121.738 156.22 121.822 155.818 121.99 155.458C122.164 155.092 122.404 154.783 122.71 154.531C123.016 154.273 123.379 154.075 123.799 153.937C124.225 153.799 124.69 153.73 125.194 153.73C125.59 153.73 125.959 153.775 126.301 153.865C126.643 153.949 126.955 154.075 127.237 154.243H129.712ZM142.076 157.447C142.076 157.075 142.022 156.736 141.914 156.43C141.812 156.118 141.659 155.851 141.455 155.629C141.257 155.401 141.014 155.227 140.726 155.107C140.438 154.981 140.111 154.918 139.745 154.918C138.977 154.918 138.368 155.143 137.918 155.593C137.474 156.037 137.198 156.655 137.09 157.447H142.076ZM143.372 161.722C143.174 161.962 142.937 162.172 142.661 162.352C142.385 162.526 142.088 162.67 141.77 162.784C141.458 162.898 141.134 162.982 140.798 163.036C140.462 163.096 140.129 163.126 139.799 163.126C139.169 163.126 138.587 163.021 138.053 162.811C137.525 162.595 137.066 162.283 136.676 161.875C136.292 161.461 135.992 160.951 135.776 160.345C135.56 159.739 135.452 159.043 135.452 158.257C135.452 157.621 135.548 157.027 135.74 156.475C135.938 155.923 136.22 155.446 136.586 155.044C136.952 154.636 137.399 154.318 137.927 154.09C138.455 153.856 139.049 153.739 139.709 153.739C140.255 153.739 140.759 153.832 141.221 154.018C141.689 154.198 142.091 154.462 142.427 154.81C142.769 155.152 143.036 155.578 143.228 156.088C143.42 156.592 143.516 157.168 143.516 157.816C143.516 158.068 143.489 158.236 143.435 158.32C143.381 158.404 143.279 158.446 143.129 158.446H137.036C137.054 159.022 137.132 159.523 137.27 159.949C137.414 160.375 137.612 160.732 137.864 161.02C138.116 161.302 138.416 161.515 138.764 161.659C139.112 161.797 139.502 161.866 139.934 161.866C140.336 161.866 140.681 161.821 140.969 161.731C141.263 161.635 141.515 161.533 141.725 161.425C141.935 161.317 142.109 161.218 142.247 161.128C142.391 161.032 142.514 160.984 142.616 160.984C142.748 160.984 142.85 161.035 142.922 161.137L143.372 161.722ZM152.849 163H151.31C151.178 163 151.073 162.967 150.995 162.901C150.923 162.829 150.863 162.751 150.815 162.667L148.52 159.094C148.496 159.178 148.469 159.262 148.439 159.346C148.415 159.424 148.379 159.496 148.331 159.562L146.207 162.667C146.147 162.751 146.081 162.829 146.009 162.901C145.943 162.967 145.85 163 145.73 163H144.299L147.494 158.32L144.425 153.883H145.964C146.096 153.883 146.192 153.904 146.252 153.946C146.312 153.988 146.366 154.048 146.414 154.126L148.655 157.546C148.703 157.372 148.778 157.204 148.88 157.042L150.842 154.162C150.896 154.078 150.953 154.012 151.013 153.964C151.079 153.91 151.157 153.883 151.247 153.883H152.723L149.654 158.239L152.849 163ZM155.937 160.804C156.231 161.2 156.552 161.479 156.9 161.641C157.248 161.803 157.638 161.884 158.07 161.884C158.922 161.884 159.576 161.581 160.032 160.975C160.488 160.369 160.716 159.505 160.716 158.383C160.716 157.789 160.662 157.279 160.554 156.853C160.452 156.427 160.302 156.079 160.104 155.809C159.906 155.533 159.663 155.332 159.375 155.206C159.087 155.08 158.76 155.017 158.394 155.017C157.872 155.017 157.413 155.137 157.017 155.377C156.627 155.617 156.267 155.956 155.937 156.394V160.804ZM155.856 155.296C156.24 154.822 156.684 154.441 157.188 154.153C157.692 153.865 158.268 153.721 158.916 153.721C159.444 153.721 159.921 153.823 160.347 154.027C160.773 154.225 161.136 154.522 161.436 154.918C161.736 155.308 161.967 155.794 162.129 156.376C162.291 156.958 162.372 157.627 162.372 158.383C162.372 159.055 162.282 159.682 162.102 160.264C161.922 160.84 161.661 161.341 161.319 161.767C160.983 162.187 160.569 162.52 160.077 162.766C159.591 163.006 159.042 163.126 158.43 163.126C157.872 163.126 157.392 163.033 156.99 162.847C156.594 162.655 156.243 162.391 155.937 162.055V166.087H154.326V153.883H155.289C155.517 153.883 155.658 153.994 155.712 154.216L155.856 155.296ZM170.517 157.447C170.517 157.075 170.463 156.736 170.355 156.43C170.253 156.118 170.1 155.851 169.896 155.629C169.698 155.401 169.455 155.227 169.167 155.107C168.879 154.981 168.552 154.918 168.186 154.918C167.418 154.918 166.809 155.143 166.359 155.593C165.915 156.037 165.639 156.655 165.531 157.447H170.517ZM171.813 161.722C171.615 161.962 171.378 162.172 171.102 162.352C170.826 162.526 170.529 162.67 170.211 162.784C169.899 162.898 169.575 162.982 169.239 163.036C168.903 163.096 168.57 163.126 168.24 163.126C167.61 163.126 167.028 163.021 166.494 162.811C165.966 162.595 165.507 162.283 165.117 161.875C164.733 161.461 164.433 160.951 164.217 160.345C164.001 159.739 163.893 159.043 163.893 158.257C163.893 157.621 163.989 157.027 164.181 156.475C164.379 155.923 164.661 155.446 165.027 155.044C165.393 154.636 165.84 154.318 166.368 154.09C166.896 153.856 167.49 153.739 168.15 153.739C168.696 153.739 169.2 153.832 169.662 154.018C170.13 154.198 170.532 154.462 170.868 154.81C171.21 155.152 171.477 155.578 171.669 156.088C171.861 156.592 171.957 157.168 171.957 157.816C171.957 158.068 171.93 158.236 171.876 158.32C171.822 158.404 171.72 158.446 171.57 158.446H165.477C165.495 159.022 165.573 159.523 165.711 159.949C165.855 160.375 166.053 160.732 166.305 161.02C166.557 161.302 166.857 161.515 167.205 161.659C167.553 161.797 167.943 161.866 168.375 161.866C168.777 161.866 169.122 161.821 169.41 161.731C169.704 161.635 169.956 161.533 170.166 161.425C170.376 161.317 170.55 161.218 170.688 161.128C170.832 161.032 170.955 160.984 171.057 160.984C171.189 160.984 171.291 161.035 171.363 161.137L171.813 161.722ZM175.446 155.71C175.734 155.086 176.088 154.6 176.508 154.252C176.928 153.898 177.441 153.721 178.047 153.721C178.239 153.721 178.422 153.742 178.596 153.784C178.776 153.826 178.935 153.892 179.073 153.982L178.956 155.179C178.92 155.329 178.83 155.404 178.686 155.404C178.602 155.404 178.479 155.386 178.317 155.35C178.155 155.314 177.972 155.296 177.768 155.296C177.48 155.296 177.222 155.338 176.994 155.422C176.772 155.506 176.571 155.632 176.391 155.8C176.217 155.962 176.058 156.166 175.914 156.412C175.776 156.652 175.65 156.928 175.536 157.24V163H173.925V153.883H174.843C175.017 153.883 175.137 153.916 175.203 153.982C175.269 154.048 175.314 154.162 175.338 154.324L175.446 155.71ZM182.174 153.883V163H180.572V153.883H182.174ZM182.516 151.021C182.516 151.177 182.483 151.324 182.417 151.462C182.357 151.594 182.273 151.714 182.165 151.822C182.063 151.924 181.94 152.005 181.796 152.065C181.658 152.125 181.511 152.155 181.355 152.155C181.199 152.155 181.052 152.125 180.914 152.065C180.782 152.005 180.665 151.924 180.563 151.822C180.461 151.714 180.38 151.594 180.32 151.462C180.26 151.324 180.23 151.177 180.23 151.021C180.23 150.865 180.26 150.718 180.32 150.58C180.38 150.436 180.461 150.313 180.563 150.211C180.665 150.103 180.782 150.019 180.914 149.959C181.052 149.899 181.199 149.869 181.355 149.869C181.511 149.869 181.658 149.899 181.796 149.959C181.94 150.019 182.063 150.103 182.165 150.211C182.273 150.313 182.357 150.436 182.417 150.58C182.483 150.718 182.516 150.865 182.516 151.021ZM190.908 157.447C190.908 157.075 190.854 156.736 190.746 156.43C190.644 156.118 190.491 155.851 190.287 155.629C190.089 155.401 189.846 155.227 189.558 155.107C189.27 154.981 188.943 154.918 188.577 154.918C187.809 154.918 187.2 155.143 186.75 155.593C186.306 156.037 186.03 156.655 185.922 157.447H190.908ZM192.204 161.722C192.006 161.962 191.769 162.172 191.493 162.352C191.217 162.526 190.92 162.67 190.602 162.784C190.29 162.898 189.966 162.982 189.63 163.036C189.294 163.096 188.961 163.126 188.631 163.126C188.001 163.126 187.419 163.021 186.885 162.811C186.357 162.595 185.898 162.283 185.508 161.875C185.124 161.461 184.824 160.951 184.608 160.345C184.392 159.739 184.284 159.043 184.284 158.257C184.284 157.621 184.38 157.027 184.572 156.475C184.77 155.923 185.052 155.446 185.418 155.044C185.784 154.636 186.231 154.318 186.759 154.09C187.287 153.856 187.881 153.739 188.541 153.739C189.087 153.739 189.591 153.832 190.053 154.018C190.521 154.198 190.923 154.462 191.259 154.81C191.601 155.152 191.868 155.578 192.06 156.088C192.252 156.592 192.348 157.168 192.348 157.816C192.348 158.068 192.321 158.236 192.267 158.32C192.213 158.404 192.111 158.446 191.961 158.446H185.868C185.886 159.022 185.964 159.523 186.102 159.949C186.246 160.375 186.444 160.732 186.696 161.02C186.948 161.302 187.248 161.515 187.596 161.659C187.944 161.797 188.334 161.866 188.766 161.866C189.168 161.866 189.513 161.821 189.801 161.731C190.095 161.635 190.347 161.533 190.557 161.425C190.767 161.317 190.941 161.218 191.079 161.128C191.223 161.032 191.346 160.984 191.448 160.984C191.58 160.984 191.682 161.035 191.754 161.137L192.204 161.722ZM195.828 155.206C196.026 154.984 196.236 154.783 196.458 154.603C196.68 154.423 196.914 154.27 197.16 154.144C197.412 154.012 197.676 153.913 197.952 153.847C198.234 153.775 198.537 153.739 198.861 153.739C199.359 153.739 199.797 153.823 200.175 153.991C200.559 154.153 200.877 154.387 201.129 154.693C201.387 154.993 201.582 155.356 201.714 155.782C201.846 156.208 201.912 156.679 201.912 157.195V163H200.301V157.195C200.301 156.505 200.142 155.971 199.824 155.593C199.512 155.209 199.035 155.017 198.393 155.017C197.919 155.017 197.475 155.131 197.061 155.359C196.653 155.587 196.275 155.896 195.927 156.286V163H194.316V153.883H195.279C195.507 153.883 195.648 153.994 195.702 154.216L195.828 155.206ZM210.698 155.503C210.65 155.569 210.602 155.62 210.554 155.656C210.506 155.692 210.44 155.71 210.356 155.71C210.266 155.71 210.167 155.674 210.059 155.602C209.951 155.524 209.816 155.44 209.654 155.35C209.498 155.26 209.303 155.179 209.069 155.107C208.841 155.029 208.559 154.99 208.223 154.99C207.773 154.99 207.377 155.071 207.035 155.233C206.693 155.389 206.405 155.617 206.171 155.917C205.943 156.217 205.769 156.58 205.649 157.006C205.535 157.432 205.478 157.909 205.478 158.437C205.478 158.989 205.541 159.481 205.667 159.913C205.793 160.339 205.97 160.699 206.198 160.993C206.432 161.281 206.711 161.503 207.035 161.659C207.365 161.809 207.734 161.884 208.142 161.884C208.532 161.884 208.853 161.839 209.105 161.749C209.357 161.653 209.564 161.548 209.726 161.434C209.894 161.32 210.032 161.218 210.14 161.128C210.254 161.032 210.365 160.984 210.473 160.984C210.605 160.984 210.707 161.035 210.779 161.137L211.229 161.722C211.031 161.968 210.806 162.178 210.554 162.352C210.302 162.526 210.029 162.673 209.735 162.793C209.447 162.907 209.144 162.991 208.826 163.045C208.508 163.099 208.184 163.126 207.854 163.126C207.284 163.126 206.753 163.021 206.261 162.811C205.775 162.601 205.352 162.298 204.992 161.902C204.632 161.5 204.35 161.008 204.146 160.426C203.942 159.844 203.84 159.181 203.84 158.437C203.84 157.759 203.933 157.132 204.119 156.556C204.311 155.98 204.587 155.485 204.947 155.071C205.313 154.651 205.76 154.324 206.288 154.09C206.822 153.856 207.434 153.739 208.124 153.739C208.766 153.739 209.33 153.844 209.816 154.054C210.308 154.258 210.743 154.549 211.121 154.927L210.698 155.503ZM218.892 157.447C218.892 157.075 218.838 156.736 218.73 156.43C218.628 156.118 218.475 155.851 218.271 155.629C218.073 155.401 217.83 155.227 217.542 155.107C217.254 154.981 216.927 154.918 216.561 154.918C215.793 154.918 215.184 155.143 214.734 155.593C214.29 156.037 214.014 156.655 213.906 157.447H218.892ZM220.188 161.722C219.99 161.962 219.753 162.172 219.477 162.352C219.201 162.526 218.904 162.67 218.586 162.784C218.274 162.898 217.95 162.982 217.614 163.036C217.278 163.096 216.945 163.126 216.615 163.126C215.985 163.126 215.403 163.021 214.869 162.811C214.341 162.595 213.882 162.283 213.492 161.875C213.108 161.461 212.808 160.951 212.592 160.345C212.376 159.739 212.268 159.043 212.268 158.257C212.268 157.621 212.364 157.027 212.556 156.475C212.754 155.923 213.036 155.446 213.402 155.044C213.768 154.636 214.215 154.318 214.743 154.09C215.271 153.856 215.865 153.739 216.525 153.739C217.071 153.739 217.575 153.832 218.037 154.018C218.505 154.198 218.907 154.462 219.243 154.81C219.585 155.152 219.852 155.578 220.044 156.088C220.236 156.592 220.332 157.168 220.332 157.816C220.332 158.068 220.305 158.236 220.251 158.32C220.197 158.404 220.095 158.446 219.945 158.446H213.852C213.87 159.022 213.948 159.523 214.086 159.949C214.23 160.375 214.428 160.732 214.68 161.02C214.932 161.302 215.232 161.515 215.58 161.659C215.928 161.797 216.318 161.866 216.75 161.866C217.152 161.866 217.497 161.821 217.785 161.731C218.079 161.635 218.331 161.533 218.541 161.425C218.751 161.317 218.925 161.218 219.063 161.128C219.207 161.032 219.33 160.984 219.432 160.984C219.564 160.984 219.666 161.035 219.738 161.137L220.188 161.722ZM11.5409 191.447C11.5409 191.075 11.4869 190.736 11.3789 190.43C11.2769 190.118 11.1239 189.851 10.9199 189.629C10.7219 189.401 10.4789 189.227 10.1909 189.107C9.90292 188.981 9.57592 188.918 9.20992 188.918C8.44192 188.918 7.83292 189.143 7.38292 189.593C6.93892 190.037 6.66292 190.655 6.55492 191.447H11.5409ZM12.8369 195.722C12.6389 195.962 12.4019 196.172 12.1259 196.352C11.8499 196.526 11.5529 196.67 11.2349 196.784C10.9229 196.898 10.5989 196.982 10.2629 197.036C9.92692 197.096 9.59392 197.126 9.26392 197.126C8.63392 197.126 8.05192 197.021 7.51792 196.811C6.98992 196.595 6.53092 196.283 6.14092 195.875C5.75692 195.461 5.45692 194.951 5.24092 194.345C5.02492 193.739 4.91692 193.043 4.91692 192.257C4.91692 191.621 5.01292 191.027 5.20492 190.475C5.40292 189.923 5.68492 189.446 6.05092 189.044C6.41692 188.636 6.86392 188.318 7.39192 188.09C7.91992 187.856 8.51392 187.739 9.17392 187.739C9.71992 187.739 10.2239 187.832 10.6859 188.018C11.1539 188.198 11.5559 188.462 11.8919 188.81C12.2339 189.152 12.5009 189.578 12.6929 190.088C12.8849 190.592 12.9809 191.168 12.9809 191.816C12.9809 192.068 12.9539 192.236 12.8999 192.32C12.8459 192.404 12.7439 192.446 12.5939 192.446H6.50092C6.51892 193.022 6.59692 193.523 6.73492 193.949C6.87892 194.375 7.07692 194.732 7.32892 195.02C7.58092 195.302 7.88092 195.515 8.22892 195.659C8.57692 195.797 8.96692 195.866 9.39892 195.866C9.80092 195.866 10.1459 195.821 10.4339 195.731C10.7279 195.635 10.9799 195.533 11.1899 195.425C11.3999 195.317 11.5739 195.218 11.7119 195.128C11.8559 195.032 11.9789 194.984 12.0809 194.984C12.2129 194.984 12.3149 195.035 12.3869 195.137L12.8369 195.722ZM19.8897 192.896C19.1517 192.92 18.5217 192.98 17.9997 193.076C17.4837 193.166 17.0607 193.286 16.7307 193.436C16.4067 193.586 16.1697 193.763 16.0197 193.967C15.8757 194.171 15.8037 194.399 15.8037 194.651C15.8037 194.891 15.8427 195.098 15.9207 195.272C15.9987 195.446 16.1037 195.59 16.2357 195.704C16.3737 195.812 16.5327 195.893 16.7127 195.947C16.8987 195.995 17.0967 196.019 17.3067 196.019C17.5887 196.019 17.8467 195.992 18.0807 195.938C18.3147 195.878 18.5337 195.794 18.7377 195.686C18.9477 195.578 19.1457 195.449 19.3317 195.299C19.5237 195.149 19.7097 194.978 19.8897 194.786V192.896ZM14.7147 189.17C15.2187 188.684 15.7617 188.321 16.3437 188.081C16.9257 187.841 17.5707 187.721 18.2787 187.721C18.7887 187.721 19.2417 187.805 19.6377 187.973C20.0337 188.141 20.3667 188.375 20.6367 188.675C20.9067 188.975 21.1107 189.338 21.2487 189.764C21.3867 190.19 21.4557 190.658 21.4557 191.168V197H20.7447C20.5887 197 20.4687 196.976 20.3847 196.928C20.3007 196.874 20.2347 196.772 20.1867 196.622L20.0067 195.758C19.7667 195.98 19.5327 196.178 19.3047 196.352C19.0767 196.52 18.8367 196.664 18.5847 196.784C18.3327 196.898 18.0627 196.985 17.7747 197.045C17.4927 197.111 17.1777 197.144 16.8297 197.144C16.4757 197.144 16.1427 197.096 15.8307 197C15.5187 196.898 15.2457 196.748 15.0117 196.55C14.7837 196.352 14.6007 196.103 14.4627 195.803C14.3307 195.497 14.2647 195.137 14.2647 194.723C14.2647 194.363 14.3637 194.018 14.5617 193.688C14.7597 193.352 15.0807 193.055 15.5247 192.797C15.9687 192.539 16.5477 192.329 17.2617 192.167C17.9757 191.999 18.8517 191.903 19.8897 191.879V191.168C19.8897 190.46 19.7367 189.926 19.4307 189.566C19.1247 189.2 18.6777 189.017 18.0897 189.017C17.6937 189.017 17.3607 189.068 17.0907 189.17C16.8267 189.266 16.5957 189.377 16.3977 189.503C16.2057 189.623 16.0377 189.734 15.8937 189.836C15.7557 189.932 15.6177 189.98 15.4797 189.98C15.3717 189.98 15.2787 189.953 15.2007 189.899C15.1227 189.839 15.0567 189.767 15.0027 189.683L14.7147 189.17ZM25.417 189.71C25.705 189.086 26.059 188.6 26.479 188.252C26.899 187.898 27.412 187.721 28.018 187.721C28.21 187.721 28.393 187.742 28.567 187.784C28.747 187.826 28.906 187.892 29.044 187.982L28.927 189.179C28.891 189.329 28.801 189.404 28.657 189.404C28.573 189.404 28.45 189.386 28.288 189.35C28.126 189.314 27.943 189.296 27.739 189.296C27.451 189.296 27.193 189.338 26.965 189.422C26.743 189.506 26.542 189.632 26.362 189.8C26.188 189.962 26.029 190.166 25.885 190.412C25.747 190.652 25.621 190.928 25.507 191.24V197H23.896V187.883H24.814C24.988 187.883 25.108 187.916 25.174 187.982C25.24 188.048 25.285 188.162 25.309 188.324L25.417 189.71ZM32.1086 183.743V197H30.5066V183.743H32.1086ZM42.5725 187.883L37.4875 199.691C37.4335 199.811 37.3645 199.907 37.2805 199.979C37.2025 200.051 37.0795 200.087 36.9115 200.087H35.7235L37.3885 196.469L33.6265 187.883H35.0125C35.1505 187.883 35.2585 187.919 35.3365 187.991C35.4205 188.057 35.4775 188.132 35.5075 188.216L37.9465 193.958C38.0425 194.21 38.1235 194.474 38.1895 194.75C38.2735 194.468 38.3635 194.201 38.4595 193.949L40.8265 188.216C40.8625 188.12 40.9225 188.042 41.0065 187.982C41.0965 187.916 41.1955 187.883 41.3035 187.883H42.5725ZM53.0948 192.896C52.3568 192.92 51.7268 192.98 51.2048 193.076C50.6888 193.166 50.2658 193.286 49.9358 193.436C49.6118 193.586 49.3748 193.763 49.2248 193.967C49.0808 194.171 49.0088 194.399 49.0088 194.651C49.0088 194.891 49.0478 195.098 49.1258 195.272C49.2038 195.446 49.3088 195.59 49.4408 195.704C49.5788 195.812 49.7378 195.893 49.9178 195.947C50.1038 195.995 50.3018 196.019 50.5118 196.019C50.7938 196.019 51.0518 195.992 51.2858 195.938C51.5198 195.878 51.7388 195.794 51.9428 195.686C52.1528 195.578 52.3508 195.449 52.5368 195.299C52.7288 195.149 52.9148 194.978 53.0948 194.786V192.896ZM47.9198 189.17C48.4238 188.684 48.9668 188.321 49.5488 188.081C50.1308 187.841 50.7758 187.721 51.4838 187.721C51.9938 187.721 52.4468 187.805 52.8428 187.973C53.2388 188.141 53.5718 188.375 53.8418 188.675C54.1118 188.975 54.3158 189.338 54.4538 189.764C54.5918 190.19 54.6608 190.658 54.6608 191.168V197H53.9498C53.7938 197 53.6738 196.976 53.5898 196.928C53.5058 196.874 53.4398 196.772 53.3918 196.622L53.2118 195.758C52.9718 195.98 52.7378 196.178 52.5098 196.352C52.2818 196.52 52.0418 196.664 51.7898 196.784C51.5378 196.898 51.2678 196.985 50.9798 197.045C50.6978 197.111 50.3828 197.144 50.0348 197.144C49.6808 197.144 49.3478 197.096 49.0358 197C48.7238 196.898 48.4508 196.748 48.2168 196.55C47.9888 196.352 47.8058 196.103 47.6678 195.803C47.5358 195.497 47.4698 195.137 47.4698 194.723C47.4698 194.363 47.5688 194.018 47.7668 193.688C47.9648 193.352 48.2858 193.055 48.7298 192.797C49.1738 192.539 49.7528 192.329 50.4668 192.167C51.1808 191.999 52.0568 191.903 53.0948 191.879V191.168C53.0948 190.46 52.9418 189.926 52.6358 189.566C52.3298 189.2 51.8828 189.017 51.2948 189.017C50.8988 189.017 50.5658 189.068 50.2958 189.17C50.0318 189.266 49.8008 189.377 49.6028 189.503C49.4108 189.623 49.2428 189.734 49.0988 189.836C48.9608 189.932 48.8228 189.98 48.6848 189.98C48.5768 189.98 48.4838 189.953 48.4058 189.899C48.3278 189.839 48.2618 189.767 48.2078 189.683L47.9198 189.17ZM58.613 189.206C58.811 188.984 59.021 188.783 59.243 188.603C59.465 188.423 59.699 188.27 59.945 188.144C60.197 188.012 60.461 187.913 60.737 187.847C61.019 187.775 61.322 187.739 61.646 187.739C62.144 187.739 62.582 187.823 62.96 187.991C63.344 188.153 63.662 188.387 63.914 188.693C64.172 188.993 64.367 189.356 64.499 189.782C64.631 190.208 64.697 190.679 64.697 191.195V197H63.086V191.195C63.086 190.505 62.927 189.971 62.609 189.593C62.297 189.209 61.82 189.017 61.178 189.017C60.704 189.017 60.26 189.131 59.846 189.359C59.438 189.587 59.06 189.896 58.712 190.286V197H57.101V187.883H58.064C58.292 187.883 58.433 187.994 58.487 188.216L58.613 189.206ZM73.0781 190.052C72.7781 189.65 72.4541 189.371 72.1061 189.215C71.7581 189.053 71.3681 188.972 70.9361 188.972C70.0901 188.972 69.4391 189.275 68.9831 189.881C68.5271 190.487 68.2991 191.351 68.2991 192.473C68.2991 193.067 68.3501 193.577 68.4521 194.003C68.5541 194.423 68.7041 194.771 68.9021 195.047C69.1001 195.317 69.3431 195.515 69.6311 195.641C69.9191 195.767 70.2461 195.83 70.6121 195.83C71.1401 195.83 71.5991 195.71 71.9891 195.47C72.3851 195.23 72.7481 194.891 73.0781 194.453V190.052ZM74.6801 183.743V197H73.7261C73.4981 197 73.3541 196.889 73.2941 196.667L73.1501 195.56C72.7601 196.028 72.3161 196.406 71.8181 196.694C71.3201 196.982 70.7441 197.126 70.0901 197.126C69.5681 197.126 69.0941 197.027 68.6681 196.829C68.2421 196.625 67.8791 196.328 67.5791 195.938C67.2791 195.548 67.0481 195.062 66.8861 194.48C66.7241 193.898 66.6431 193.229 66.6431 192.473C66.6431 191.801 66.7331 191.177 66.9131 190.601C67.0931 190.019 67.3511 189.515 67.6871 189.089C68.0231 188.663 68.4341 188.33 68.9201 188.09C69.4121 187.844 69.9641 187.721 70.5761 187.721C71.1341 187.721 71.6111 187.817 72.0071 188.009C72.4091 188.195 72.7661 188.456 73.0781 188.792V183.743H74.6801ZM83.4269 189.098C83.8169 188.684 84.2489 188.354 84.7229 188.108C85.1969 187.862 85.7429 187.739 86.3609 187.739C86.8589 187.739 87.2969 187.823 87.6749 187.991C88.0589 188.153 88.3769 188.387 88.6289 188.693C88.8869 188.993 89.0819 189.356 89.2139 189.782C89.3459 190.208 89.4119 190.679 89.4119 191.195V197H87.8009V191.195C87.8009 190.505 87.6419 189.971 87.3239 189.593C87.0119 189.209 86.5349 189.017 85.8929 189.017C85.4189 189.017 84.9749 189.131 84.5609 189.359C84.1529 189.587 83.7749 189.896 83.4269 190.286V197H81.8159V183.743H83.4269V189.098ZM96.794 192.896C96.056 192.92 95.426 192.98 94.904 193.076C94.388 193.166 93.965 193.286 93.635 193.436C93.311 193.586 93.074 193.763 92.924 193.967C92.78 194.171 92.708 194.399 92.708 194.651C92.708 194.891 92.747 195.098 92.825 195.272C92.903 195.446 93.008 195.59 93.14 195.704C93.278 195.812 93.437 195.893 93.617 195.947C93.803 195.995 94.001 196.019 94.211 196.019C94.493 196.019 94.751 195.992 94.985 195.938C95.219 195.878 95.438 195.794 95.642 195.686C95.852 195.578 96.05 195.449 96.236 195.299C96.428 195.149 96.614 194.978 96.794 194.786V192.896ZM91.619 189.17C92.123 188.684 92.666 188.321 93.248 188.081C93.83 187.841 94.475 187.721 95.183 187.721C95.693 187.721 96.146 187.805 96.542 187.973C96.938 188.141 97.271 188.375 97.541 188.675C97.811 188.975 98.015 189.338 98.153 189.764C98.291 190.19 98.36 190.658 98.36 191.168V197H97.649C97.493 197 97.373 196.976 97.289 196.928C97.205 196.874 97.139 196.772 97.091 196.622L96.911 195.758C96.671 195.98 96.437 196.178 96.209 196.352C95.981 196.52 95.741 196.664 95.489 196.784C95.237 196.898 94.967 196.985 94.679 197.045C94.397 197.111 94.082 197.144 93.734 197.144C93.38 197.144 93.047 197.096 92.735 197C92.423 196.898 92.15 196.748 91.916 196.55C91.688 196.352 91.505 196.103 91.367 195.803C91.235 195.497 91.169 195.137 91.169 194.723C91.169 194.363 91.268 194.018 91.466 193.688C91.664 193.352 91.985 193.055 92.429 192.797C92.873 192.539 93.452 192.329 94.166 192.167C94.88 191.999 95.756 191.903 96.794 191.879V191.168C96.794 190.46 96.641 189.926 96.335 189.566C96.029 189.2 95.582 189.017 94.994 189.017C94.598 189.017 94.265 189.068 93.995 189.17C93.731 189.266 93.5 189.377 93.302 189.503C93.11 189.623 92.942 189.734 92.798 189.836C92.66 189.932 92.522 189.98 92.384 189.98C92.276 189.98 92.183 189.953 92.105 189.899C92.027 189.839 91.961 189.767 91.907 189.683L91.619 189.17ZM108.419 187.883L104.702 197H103.262L99.5449 187.883H100.85C100.982 187.883 101.09 187.916 101.174 187.982C101.258 188.048 101.315 188.126 101.345 188.216L103.658 194.084C103.73 194.306 103.793 194.522 103.847 194.732C103.901 194.942 103.952 195.152 104 195.362C104.048 195.152 104.099 194.942 104.153 194.732C104.207 194.522 104.273 194.306 104.351 194.084L106.691 188.216C106.727 188.12 106.787 188.042 106.871 187.982C106.955 187.916 107.054 187.883 107.168 187.883H108.419ZM115.744 191.447C115.744 191.075 115.69 190.736 115.582 190.43C115.48 190.118 115.327 189.851 115.123 189.629C114.925 189.401 114.682 189.227 114.394 189.107C114.106 188.981 113.779 188.918 113.413 188.918C112.645 188.918 112.036 189.143 111.586 189.593C111.142 190.037 110.866 190.655 110.758 191.447H115.744ZM117.04 195.722C116.842 195.962 116.605 196.172 116.329 196.352C116.053 196.526 115.756 196.67 115.438 196.784C115.126 196.898 114.802 196.982 114.466 197.036C114.13 197.096 113.797 197.126 113.467 197.126C112.837 197.126 112.255 197.021 111.721 196.811C111.193 196.595 110.734 196.283 110.344 195.875C109.96 195.461 109.66 194.951 109.444 194.345C109.228 193.739 109.12 193.043 109.12 192.257C109.12 191.621 109.216 191.027 109.408 190.475C109.606 189.923 109.888 189.446 110.254 189.044C110.62 188.636 111.067 188.318 111.595 188.09C112.123 187.856 112.717 187.739 113.377 187.739C113.923 187.739 114.427 187.832 114.889 188.018C115.357 188.198 115.759 188.462 116.095 188.81C116.437 189.152 116.704 189.578 116.896 190.088C117.088 190.592 117.184 191.168 117.184 191.816C117.184 192.068 117.157 192.236 117.103 192.32C117.049 192.404 116.947 192.446 116.797 192.446H110.704C110.722 193.022 110.8 193.523 110.938 193.949C111.082 194.375 111.28 194.732 111.532 195.02C111.784 195.302 112.084 195.515 112.432 195.659C112.78 195.797 113.17 195.866 113.602 195.866C114.004 195.866 114.349 195.821 114.637 195.731C114.931 195.635 115.183 195.533 115.393 195.425C115.603 195.317 115.777 195.218 115.915 195.128C116.059 195.032 116.182 194.984 116.284 194.984C116.416 194.984 116.518 195.035 116.59 195.137L117.04 195.722ZM126.556 197.144C125.836 197.144 125.281 196.943 124.891 196.541C124.507 196.139 124.315 195.56 124.315 194.804V189.224H123.217C123.121 189.224 123.04 189.197 122.974 189.143C122.908 189.083 122.875 188.993 122.875 188.873V188.234L124.369 188.045L124.738 185.228C124.756 185.138 124.795 185.066 124.855 185.012C124.921 184.952 125.005 184.922 125.107 184.922H125.917V188.063H128.554V189.224H125.917V194.696C125.917 195.08 126.01 195.365 126.196 195.551C126.382 195.737 126.622 195.83 126.916 195.83C127.084 195.83 127.228 195.809 127.348 195.767C127.474 195.719 127.582 195.668 127.672 195.614C127.762 195.56 127.837 195.512 127.897 195.47C127.963 195.422 128.02 195.398 128.068 195.398C128.152 195.398 128.227 195.449 128.293 195.551L128.761 196.316C128.485 196.574 128.152 196.778 127.762 196.928C127.372 197.072 126.97 197.144 126.556 197.144ZM131.819 189.098C132.209 188.684 132.641 188.354 133.115 188.108C133.589 187.862 134.135 187.739 134.753 187.739C135.251 187.739 135.689 187.823 136.067 187.991C136.451 188.153 136.769 188.387 137.021 188.693C137.279 188.993 137.474 189.356 137.606 189.782C137.738 190.208 137.804 190.679 137.804 191.195V197H136.193V191.195C136.193 190.505 136.034 189.971 135.716 189.593C135.404 189.209 134.927 189.017 134.285 189.017C133.811 189.017 133.367 189.131 132.953 189.359C132.545 189.587 132.167 189.896 131.819 190.286V197H130.208V183.743H131.819V189.098ZM146.348 191.447C146.348 191.075 146.294 190.736 146.186 190.43C146.084 190.118 145.931 189.851 145.727 189.629C145.529 189.401 145.286 189.227 144.998 189.107C144.71 188.981 144.383 188.918 144.017 188.918C143.249 188.918 142.64 189.143 142.19 189.593C141.746 190.037 141.47 190.655 141.362 191.447H146.348ZM147.644 195.722C147.446 195.962 147.209 196.172 146.933 196.352C146.657 196.526 146.36 196.67 146.042 196.784C145.73 196.898 145.406 196.982 145.07 197.036C144.734 197.096 144.401 197.126 144.071 197.126C143.441 197.126 142.859 197.021 142.325 196.811C141.797 196.595 141.338 196.283 140.948 195.875C140.564 195.461 140.264 194.951 140.048 194.345C139.832 193.739 139.724 193.043 139.724 192.257C139.724 191.621 139.82 191.027 140.012 190.475C140.21 189.923 140.492 189.446 140.858 189.044C141.224 188.636 141.671 188.318 142.199 188.09C142.727 187.856 143.321 187.739 143.981 187.739C144.527 187.739 145.031 187.832 145.493 188.018C145.961 188.198 146.363 188.462 146.699 188.81C147.041 189.152 147.308 189.578 147.5 190.088C147.692 190.592 147.788 191.168 147.788 191.816C147.788 192.068 147.761 192.236 147.707 192.32C147.653 192.404 147.551 192.446 147.401 192.446H141.308C141.326 193.022 141.404 193.523 141.542 193.949C141.686 194.375 141.884 194.732 142.136 195.02C142.388 195.302 142.688 195.515 143.036 195.659C143.384 195.797 143.774 195.866 144.206 195.866C144.608 195.866 144.953 195.821 145.241 195.731C145.535 195.635 145.787 195.533 145.997 195.425C146.207 195.317 146.381 195.218 146.519 195.128C146.663 195.032 146.786 194.984 146.888 194.984C147.02 194.984 147.122 195.035 147.194 195.137L147.644 195.722ZM158.204 187.739C158.87 187.739 159.47 187.85 160.004 188.072C160.538 188.294 160.994 188.609 161.372 189.017C161.75 189.425 162.038 189.92 162.236 190.502C162.44 191.078 162.542 191.723 162.542 192.437C162.542 193.157 162.44 193.805 162.236 194.381C162.038 194.957 161.75 195.449 161.372 195.857C160.994 196.265 160.538 196.58 160.004 196.802C159.47 197.018 158.87 197.126 158.204 197.126C157.532 197.126 156.926 197.018 156.386 196.802C155.852 196.58 155.396 196.265 155.018 195.857C154.64 195.449 154.349 194.957 154.145 194.381C153.947 193.805 153.848 193.157 153.848 192.437C153.848 191.723 153.947 191.078 154.145 190.502C154.349 189.92 154.64 189.425 155.018 189.017C155.396 188.609 155.852 188.294 156.386 188.072C156.926 187.85 157.532 187.739 158.204 187.739ZM158.204 195.875C159.104 195.875 159.776 195.575 160.22 194.975C160.664 194.369 160.886 193.526 160.886 192.446C160.886 191.36 160.664 190.514 160.22 189.908C159.776 189.302 159.104 188.999 158.204 188.999C157.748 188.999 157.349 189.077 157.007 189.233C156.671 189.389 156.389 189.614 156.161 189.908C155.939 190.202 155.771 190.565 155.657 190.997C155.549 191.423 155.495 191.906 155.495 192.446C155.495 193.526 155.717 194.369 156.161 194.975C156.611 195.575 157.292 195.875 158.204 195.875ZM166.185 194.804C166.479 195.2 166.8 195.479 167.148 195.641C167.496 195.803 167.886 195.884 168.318 195.884C169.17 195.884 169.824 195.581 170.28 194.975C170.736 194.369 170.964 193.505 170.964 192.383C170.964 191.789 170.91 191.279 170.802 190.853C170.7 190.427 170.55 190.079 170.352 189.809C170.154 189.533 169.911 189.332 169.623 189.206C169.335 189.08 169.008 189.017 168.642 189.017C168.12 189.017 167.661 189.137 167.265 189.377C166.875 189.617 166.515 189.956 166.185 190.394V194.804ZM166.104 189.296C166.488 188.822 166.932 188.441 167.436 188.153C167.94 187.865 168.516 187.721 169.164 187.721C169.692 187.721 170.169 187.823 170.595 188.027C171.021 188.225 171.384 188.522 171.684 188.918C171.984 189.308 172.215 189.794 172.377 190.376C172.539 190.958 172.62 191.627 172.62 192.383C172.62 193.055 172.53 193.682 172.35 194.264C172.17 194.84 171.909 195.341 171.567 195.767C171.231 196.187 170.817 196.52 170.325 196.766C169.839 197.006 169.29 197.126 168.678 197.126C168.12 197.126 167.64 197.033 167.238 196.847C166.842 196.655 166.491 196.391 166.185 196.055V200.087H164.574V187.883H165.537C165.765 187.883 165.906 187.994 165.96 188.216L166.104 189.296ZM183 197H181.398V189.224H176.7V194.696C176.7 195.08 176.793 195.365 176.979 195.551C177.165 195.737 177.405 195.83 177.699 195.83C177.867 195.83 178.011 195.809 178.131 195.767C178.257 195.719 178.365 195.668 178.455 195.614C178.545 195.56 178.62 195.512 178.68 195.47C178.746 195.422 178.803 195.398 178.851 195.398C178.935 195.398 179.01 195.449 179.076 195.551L179.544 196.316C179.268 196.574 178.935 196.778 178.545 196.928C178.155 197.072 177.753 197.144 177.339 197.144C176.619 197.144 176.064 196.943 175.674 196.541C175.29 196.139 175.098 195.56 175.098 194.804V189.224H174C173.904 189.224 173.823 189.197 173.757 189.143C173.691 189.083 173.658 188.993 173.658 188.873V188.234L175.152 188.036L175.521 185.228C175.539 185.138 175.578 185.066 175.638 185.012C175.704 184.952 175.788 184.922 175.89 184.922H176.7V188.063H183V197ZM183.396 184.958C183.396 185.114 183.363 185.261 183.297 185.399C183.237 185.531 183.153 185.648 183.045 185.75C182.943 185.852 182.823 185.933 182.685 185.993C182.547 186.053 182.4 186.083 182.244 186.083C182.088 186.083 181.941 186.053 181.803 185.993C181.671 185.933 181.554 185.852 181.452 185.75C181.35 185.648 181.269 185.531 181.209 185.399C181.149 185.261 181.119 185.114 181.119 184.958C181.119 184.802 181.149 184.655 181.209 184.517C181.269 184.373 181.35 184.25 181.452 184.148C181.554 184.04 181.671 183.956 181.803 183.896C181.941 183.836 182.088 183.806 182.244 183.806C182.4 183.806 182.547 183.836 182.685 183.896C182.823 183.956 182.943 184.04 183.045 184.148C183.153 184.25 183.237 184.373 183.297 184.517C183.363 184.655 183.396 184.802 183.396 184.958ZM189.475 187.739C190.141 187.739 190.741 187.85 191.275 188.072C191.809 188.294 192.265 188.609 192.643 189.017C193.021 189.425 193.309 189.92 193.507 190.502C193.711 191.078 193.813 191.723 193.813 192.437C193.813 193.157 193.711 193.805 193.507 194.381C193.309 194.957 193.021 195.449 192.643 195.857C192.265 196.265 191.809 196.58 191.275 196.802C190.741 197.018 190.141 197.126 189.475 197.126C188.803 197.126 188.197 197.018 187.657 196.802C187.123 196.58 186.667 196.265 186.289 195.857C185.911 195.449 185.62 194.957 185.416 194.381C185.218 193.805 185.119 193.157 185.119 192.437C185.119 191.723 185.218 191.078 185.416 190.502C185.62 189.92 185.911 189.425 186.289 189.017C186.667 188.609 187.123 188.294 187.657 188.072C188.197 187.85 188.803 187.739 189.475 187.739ZM189.475 195.875C190.375 195.875 191.047 195.575 191.491 194.975C191.935 194.369 192.157 193.526 192.157 192.446C192.157 191.36 191.935 190.514 191.491 189.908C191.047 189.302 190.375 188.999 189.475 188.999C189.019 188.999 188.62 189.077 188.278 189.233C187.942 189.389 187.66 189.614 187.432 189.908C187.21 190.202 187.042 190.565 186.928 190.997C186.82 191.423 186.766 191.906 186.766 192.446C186.766 193.526 186.988 194.369 187.432 194.975C187.882 195.575 188.563 195.875 189.475 195.875ZM197.357 189.206C197.555 188.984 197.765 188.783 197.987 188.603C198.209 188.423 198.443 188.27 198.689 188.144C198.941 188.012 199.205 187.913 199.481 187.847C199.763 187.775 200.066 187.739 200.39 187.739C200.888 187.739 201.326 187.823 201.704 187.991C202.088 188.153 202.406 188.387 202.658 188.693C202.916 188.993 203.111 189.356 203.243 189.782C203.375 190.208 203.441 190.679 203.441 191.195V197H201.83V191.195C201.83 190.505 201.671 189.971 201.353 189.593C201.041 189.209 200.564 189.017 199.922 189.017C199.448 189.017 199.004 189.131 198.59 189.359C198.182 189.587 197.804 189.896 197.456 190.286V197H195.845V187.883H196.808C197.036 187.883 197.177 187.994 197.231 188.216L197.357 189.206ZM213.287 197.144C212.567 197.144 212.012 196.943 211.622 196.541C211.238 196.139 211.046 195.56 211.046 194.804V189.224H209.948C209.852 189.224 209.771 189.197 209.705 189.143C209.639 189.083 209.606 188.993 209.606 188.873V188.234L211.1 188.045L211.469 185.228C211.487 185.138 211.526 185.066 211.586 185.012C211.652 184.952 211.736 184.922 211.838 184.922H212.648V188.063H215.285V189.224H212.648V194.696C212.648 195.08 212.741 195.365 212.927 195.551C213.113 195.737 213.353 195.83 213.647 195.83C213.815 195.83 213.959 195.809 214.079 195.767C214.205 195.719 214.313 195.668 214.403 195.614C214.493 195.56 214.568 195.512 214.628 195.47C214.694 195.422 214.751 195.398 214.799 195.398C214.883 195.398 214.958 195.449 215.024 195.551L215.492 196.316C215.216 196.574 214.883 196.778 214.493 196.928C214.103 197.072 213.701 197.144 213.287 197.144ZM220.729 187.739C221.395 187.739 221.995 187.85 222.529 188.072C223.063 188.294 223.519 188.609 223.897 189.017C224.275 189.425 224.563 189.92 224.761 190.502C224.965 191.078 225.067 191.723 225.067 192.437C225.067 193.157 224.965 193.805 224.761 194.381C224.563 194.957 224.275 195.449 223.897 195.857C223.519 196.265 223.063 196.58 222.529 196.802C221.995 197.018 221.395 197.126 220.729 197.126C220.057 197.126 219.451 197.018 218.911 196.802C218.377 196.58 217.921 196.265 217.543 195.857C217.165 195.449 216.874 194.957 216.67 194.381C216.472 193.805 216.373 193.157 216.373 192.437C216.373 191.723 216.472 191.078 216.67 190.502C216.874 189.92 217.165 189.425 217.543 189.017C217.921 188.609 218.377 188.294 218.911 188.072C219.451 187.85 220.057 187.739 220.729 187.739ZM220.729 195.875C221.629 195.875 222.301 195.575 222.745 194.975C223.189 194.369 223.411 193.526 223.411 192.446C223.411 191.36 223.189 190.514 222.745 189.908C222.301 189.302 221.629 188.999 220.729 188.999C220.273 188.999 219.874 189.077 219.532 189.233C219.196 189.389 218.914 189.614 218.686 189.908C218.464 190.202 218.296 190.565 218.182 190.997C218.074 191.423 218.02 191.906 218.02 192.446C218.02 193.526 218.242 194.369 218.686 194.975C219.136 195.575 219.817 195.875 220.729 195.875ZM17.7106 221.739C18.3766 221.739 18.9766 221.85 19.5106 222.072C20.0446 222.294 20.5006 222.609 20.8786 223.017C21.2566 223.425 21.5446 223.92 21.7426 224.502C21.9466 225.078 22.0486 225.723 22.0486 226.437C22.0486 227.157 21.9466 227.805 21.7426 228.381C21.5446 228.957 21.2566 229.449 20.8786 229.857C20.5006 230.265 20.0446 230.58 19.5106 230.802C18.9766 231.018 18.3766 231.126 17.7106 231.126C17.0386 231.126 16.4326 231.018 15.8926 230.802C15.3586 230.58 14.9026 230.265 14.5246 229.857C14.1466 229.449 13.8556 228.957 13.6516 228.381C13.4536 227.805 13.3546 227.157 13.3546 226.437C13.3546 225.723 13.4536 225.078 13.6516 224.502C13.8556 223.92 14.1466 223.425 14.5246 223.017C14.9026 222.609 15.3586 222.294 15.8926 222.072C16.4326 221.85 17.0386 221.739 17.7106 221.739ZM17.7106 229.875C18.6106 229.875 19.2826 229.575 19.7266 228.975C20.1706 228.369 20.3926 227.526 20.3926 226.446C20.3926 225.36 20.1706 224.514 19.7266 223.908C19.2826 223.302 18.6106 222.999 17.7106 222.999C17.2546 222.999 16.8556 223.077 16.5136 223.233C16.1776 223.389 15.8956 223.614 15.6676 223.908C15.4456 224.202 15.2776 224.565 15.1636 224.997C15.0556 225.423 15.0016 225.906 15.0016 226.446C15.0016 227.526 15.2236 228.369 15.6676 228.975C16.1176 229.575 16.7986 229.875 17.7106 229.875ZM25.6015 223.71C25.8895 223.086 26.2435 222.6 26.6635 222.252C27.0835 221.898 27.5965 221.721 28.2025 221.721C28.3945 221.721 28.5775 221.742 28.7515 221.784C28.9315 221.826 29.0905 221.892 29.2285 221.982L29.1115 223.179C29.0755 223.329 28.9855 223.404 28.8415 223.404C28.7575 223.404 28.6345 223.386 28.4725 223.35C28.3105 223.314 28.1275 223.296 27.9235 223.296C27.6355 223.296 27.3775 223.338 27.1495 223.422C26.9275 223.506 26.7265 223.632 26.5465 223.8C26.3725 223.962 26.2135 224.166 26.0695 224.412C25.9315 224.652 25.8055 224.928 25.6915 225.24V231H24.0805V221.883H24.9985C25.1725 221.883 25.2925 221.916 25.3585 221.982C25.4245 222.048 25.4695 222.162 25.4935 222.324L25.6015 223.71ZM36.2256 224.052C35.9256 223.65 35.6016 223.371 35.2536 223.215C34.9056 223.053 34.5156 222.972 34.0836 222.972C33.2376 222.972 32.5866 223.275 32.1306 223.881C31.6746 224.487 31.4466 225.351 31.4466 226.473C31.4466 227.067 31.4976 227.577 31.5996 228.003C31.7016 228.423 31.8516 228.771 32.0496 229.047C32.2476 229.317 32.4906 229.515 32.7786 229.641C33.0666 229.767 33.3936 229.83 33.7596 229.83C34.2876 229.83 34.7466 229.71 35.1366 229.47C35.5326 229.23 35.8956 228.891 36.2256 228.453V224.052ZM37.8276 217.743V231H36.8736C36.6456 231 36.5016 230.889 36.4416 230.667L36.2976 229.56C35.9076 230.028 35.4636 230.406 34.9656 230.694C34.4676 230.982 33.8916 231.126 33.2376 231.126C32.7156 231.126 32.2416 231.027 31.8156 230.829C31.3896 230.625 31.0266 230.328 30.7266 229.938C30.4266 229.548 30.1956 229.062 30.0336 228.48C29.8716 227.898 29.7906 227.229 29.7906 226.473C29.7906 225.801 29.8806 225.177 30.0606 224.601C30.2406 224.019 30.4986 223.515 30.8346 223.089C31.1706 222.663 31.5816 222.33 32.0676 222.09C32.5596 221.844 33.1116 221.721 33.7236 221.721C34.2816 221.721 34.7586 221.817 35.1546 222.009C35.5566 222.195 35.9136 222.456 36.2256 222.792V217.743H37.8276ZM46.4599 225.447C46.4599 225.075 46.4059 224.736 46.2979 224.43C46.1959 224.118 46.0429 223.851 45.8389 223.629C45.6409 223.401 45.3979 223.227 45.1099 223.107C44.8219 222.981 44.4949 222.918 44.1289 222.918C43.3609 222.918 42.7519 223.143 42.3019 223.593C41.8579 224.037 41.5819 224.655 41.4739 225.447H46.4599ZM47.7559 229.722C47.5579 229.962 47.3209 230.172 47.0449 230.352C46.7689 230.526 46.4719 230.67 46.1539 230.784C45.8419 230.898 45.5179 230.982 45.1819 231.036C44.8459 231.096 44.5129 231.126 44.1829 231.126C43.5529 231.126 42.9709 231.021 42.4369 230.811C41.9089 230.595 41.4499 230.283 41.0599 229.875C40.6759 229.461 40.3759 228.951 40.1599 228.345C39.9439 227.739 39.8359 227.043 39.8359 226.257C39.8359 225.621 39.9319 225.027 40.1239 224.475C40.3219 223.923 40.6039 223.446 40.9699 223.044C41.3359 222.636 41.7829 222.318 42.3109 222.09C42.8389 221.856 43.4329 221.739 44.0929 221.739C44.6389 221.739 45.1429 221.832 45.6049 222.018C46.0729 222.198 46.4749 222.462 46.8109 222.81C47.1529 223.152 47.4199 223.578 47.6119 224.088C47.8039 224.592 47.8999 225.168 47.8999 225.816C47.8999 226.068 47.8729 226.236 47.8189 226.32C47.7649 226.404 47.6629 226.446 47.5129 226.446H41.4199C41.4379 227.022 41.5159 227.523 41.6539 227.949C41.7979 228.375 41.9959 228.732 42.2479 229.02C42.4999 229.302 42.7999 229.515 43.1479 229.659C43.4959 229.797 43.8859 229.866 44.3179 229.866C44.7199 229.866 45.0649 229.821 45.3529 229.731C45.6469 229.635 45.8989 229.533 46.1089 229.425C46.3189 229.317 46.4929 229.218 46.6309 229.128C46.7749 229.032 46.8979 228.984 46.9999 228.984C47.1319 228.984 47.2339 229.035 47.3059 229.137L47.7559 229.722ZM51.3886 223.71C51.6766 223.086 52.0306 222.6 52.4506 222.252C52.8706 221.898 53.3836 221.721 53.9896 221.721C54.1816 221.721 54.3646 221.742 54.5386 221.784C54.7186 221.826 54.8776 221.892 55.0156 221.982L54.8986 223.179C54.8626 223.329 54.7726 223.404 54.6286 223.404C54.5446 223.404 54.4216 223.386 54.2596 223.35C54.0976 223.314 53.9146 223.296 53.7106 223.296C53.4226 223.296 53.1646 223.338 52.9366 223.422C52.7146 223.506 52.5136 223.632 52.3336 223.8C52.1596 223.962 52.0006 224.166 51.8566 224.412C51.7186 224.652 51.5926 224.928 51.4786 225.24V231H49.8676V221.883H50.7856C50.9596 221.883 51.0796 221.916 51.1456 221.982C51.2116 222.048 51.2566 222.162 51.2806 222.324L51.3886 223.71ZM60.643 231V221.883H61.606C61.834 221.883 61.975 221.994 62.029 222.216L62.146 223.152C62.482 222.738 62.86 222.399 63.28 222.135C63.7 221.871 64.186 221.739 64.738 221.739C65.35 221.739 65.845 221.91 66.223 222.252C66.607 222.594 66.883 223.056 67.051 223.638C67.183 223.308 67.351 223.023 67.555 222.783C67.765 222.543 67.999 222.345 68.257 222.189C68.515 222.033 68.788 221.919 69.076 221.847C69.37 221.775 69.667 221.739 69.967 221.739C70.447 221.739 70.873 221.817 71.245 221.973C71.623 222.123 71.941 222.345 72.199 222.639C72.463 222.933 72.664 223.296 72.802 223.728C72.94 224.154 73.009 224.643 73.009 225.195V231H71.398V225.195C71.398 224.481 71.242 223.941 70.93 223.575C70.618 223.203 70.168 223.017 69.58 223.017C69.316 223.017 69.064 223.065 68.824 223.161C68.59 223.251 68.383 223.386 68.203 223.566C68.023 223.746 67.879 223.974 67.771 224.25C67.669 224.52 67.618 224.835 67.618 225.195V231H66.007V225.195C66.007 224.463 65.86 223.917 65.566 223.557C65.272 223.197 64.843 223.017 64.279 223.017C63.883 223.017 63.517 223.125 63.181 223.341C62.845 223.551 62.536 223.839 62.254 224.205V231H60.643ZM81.5458 225.447C81.5458 225.075 81.4918 224.736 81.3838 224.43C81.2818 224.118 81.1288 223.851 80.9248 223.629C80.7268 223.401 80.4838 223.227 80.1958 223.107C79.9078 222.981 79.5808 222.918 79.2148 222.918C78.4468 222.918 77.8378 223.143 77.3878 223.593C76.9438 224.037 76.6678 224.655 76.5598 225.447H81.5458ZM82.8418 229.722C82.6438 229.962 82.4068 230.172 82.1308 230.352C81.8548 230.526 81.5578 230.67 81.2398 230.784C80.9278 230.898 80.6038 230.982 80.2678 231.036C79.9318 231.096 79.5988 231.126 79.2688 231.126C78.6388 231.126 78.0568 231.021 77.5228 230.811C76.9948 230.595 76.5358 230.283 76.1458 229.875C75.7618 229.461 75.4618 228.951 75.2458 228.345C75.0298 227.739 74.9218 227.043 74.9218 226.257C74.9218 225.621 75.0178 225.027 75.2098 224.475C75.4078 223.923 75.6898 223.446 76.0558 223.044C76.4218 222.636 76.8688 222.318 77.3968 222.09C77.9248 221.856 78.5188 221.739 79.1788 221.739C79.7248 221.739 80.2288 221.832 80.6908 222.018C81.1588 222.198 81.5608 222.462 81.8968 222.81C82.2388 223.152 82.5058 223.578 82.6978 224.088C82.8898 224.592 82.9858 225.168 82.9858 225.816C82.9858 226.068 82.9588 226.236 82.9048 226.32C82.8508 226.404 82.7488 226.446 82.5988 226.446H76.5058C76.5238 227.022 76.6018 227.523 76.7398 227.949C76.8838 228.375 77.0818 228.732 77.3338 229.02C77.5858 229.302 77.8858 229.515 78.2338 229.659C78.5818 229.797 78.9718 229.866 79.4038 229.866C79.8058 229.866 80.1508 229.821 80.4388 229.731C80.7328 229.635 80.9848 229.533 81.1948 229.425C81.4048 229.317 81.5788 229.218 81.7168 229.128C81.8608 229.032 81.9838 228.984 82.0858 228.984C82.2178 228.984 82.3198 229.035 82.3918 229.137L82.8418 229.722ZM89.8946 226.896C89.1566 226.92 88.5266 226.98 88.0046 227.076C87.4886 227.166 87.0656 227.286 86.7356 227.436C86.4116 227.586 86.1746 227.763 86.0246 227.967C85.8806 228.171 85.8086 228.399 85.8086 228.651C85.8086 228.891 85.8476 229.098 85.9256 229.272C86.0036 229.446 86.1086 229.59 86.2406 229.704C86.3786 229.812 86.5376 229.893 86.7176 229.947C86.9036 229.995 87.1016 230.019 87.3116 230.019C87.5936 230.019 87.8516 229.992 88.0856 229.938C88.3196 229.878 88.5386 229.794 88.7426 229.686C88.9526 229.578 89.1506 229.449 89.3366 229.299C89.5286 229.149 89.7146 228.978 89.8946 228.786V226.896ZM84.7196 223.17C85.2236 222.684 85.7666 222.321 86.3486 222.081C86.9306 221.841 87.5756 221.721 88.2836 221.721C88.7936 221.721 89.2466 221.805 89.6426 221.973C90.0386 222.141 90.3716 222.375 90.6416 222.675C90.9116 222.975 91.1156 223.338 91.2536 223.764C91.3916 224.19 91.4606 224.658 91.4606 225.168V231H90.7496C90.5936 231 90.4736 230.976 90.3896 230.928C90.3056 230.874 90.2396 230.772 90.1916 230.622L90.0116 229.758C89.7716 229.98 89.5376 230.178 89.3096 230.352C89.0816 230.52 88.8416 230.664 88.5896 230.784C88.3376 230.898 88.0676 230.985 87.7796 231.045C87.4976 231.111 87.1826 231.144 86.8346 231.144C86.4806 231.144 86.1476 231.096 85.8356 231C85.5236 230.898 85.2506 230.748 85.0166 230.55C84.7886 230.352 84.6056 230.103 84.4676 229.803C84.3356 229.497 84.2696 229.137 84.2696 228.723C84.2696 228.363 84.3686 228.018 84.5666 227.688C84.7646 227.352 85.0856 227.055 85.5296 226.797C85.9736 226.539 86.5526 226.329 87.2666 226.167C87.9806 225.999 88.8566 225.903 89.8946 225.879V225.168C89.8946 224.46 89.7416 223.926 89.4356 223.566C89.1296 223.2 88.6826 223.017 88.0946 223.017C87.6986 223.017 87.3656 223.068 87.0956 223.17C86.8316 223.266 86.6006 223.377 86.4026 223.503C86.2106 223.623 86.0426 223.734 85.8986 223.836C85.7606 223.932 85.6226 223.98 85.4846 223.98C85.3766 223.98 85.2836 223.953 85.2056 223.899C85.1276 223.839 85.0616 223.767 85.0076 223.683L84.7196 223.17ZM95.5568 217.743V231H93.9548V217.743H95.5568ZM103.465 223.386C103.393 223.518 103.282 223.584 103.132 223.584C103.042 223.584 102.94 223.551 102.826 223.485C102.712 223.419 102.571 223.347 102.403 223.269C102.241 223.185 102.046 223.11 101.818 223.044C101.59 222.972 101.32 222.936 101.008 222.936C100.738 222.936 100.495 222.972 100.279 223.044C100.063 223.11 99.8767 223.203 99.7207 223.323C99.5707 223.443 99.4537 223.584 99.3697 223.746C99.2917 223.902 99.2527 224.073 99.2527 224.259C99.2527 224.493 99.3187 224.688 99.4507 224.844C99.5887 225 99.7687 225.135 99.9907 225.249C100.213 225.363 100.465 225.465 100.747 225.555C101.029 225.639 101.317 225.732 101.611 225.834C101.911 225.93 102.202 226.038 102.484 226.158C102.766 226.278 103.018 226.428 103.24 226.608C103.462 226.788 103.639 227.01 103.771 227.274C103.909 227.532 103.978 227.844 103.978 228.21C103.978 228.63 103.903 229.02 103.753 229.38C103.603 229.734 103.381 230.043 103.087 230.307C102.793 230.565 102.433 230.769 102.007 230.919C101.581 231.069 101.089 231.144 100.531 231.144C99.8947 231.144 99.3187 231.042 98.8027 230.838C98.2867 230.628 97.8487 230.361 97.4887 230.037L97.8667 229.425C97.9147 229.347 97.9717 229.287 98.0377 229.245C98.1037 229.203 98.1877 229.182 98.2897 229.182C98.3977 229.182 98.5117 229.224 98.6317 229.308C98.7517 229.392 98.8957 229.485 99.0637 229.587C99.2377 229.689 99.4477 229.782 99.6937 229.866C99.9397 229.95 100.246 229.992 100.612 229.992C100.924 229.992 101.197 229.953 101.431 229.875C101.665 229.791 101.86 229.68 102.016 229.542C102.172 229.404 102.286 229.245 102.358 229.065C102.436 228.885 102.475 228.693 102.475 228.489C102.475 228.237 102.406 228.03 102.268 227.868C102.136 227.7 101.959 227.559 101.737 227.445C101.515 227.325 101.26 227.223 100.972 227.139C100.69 227.049 100.399 226.956 100.099 226.86C99.8047 226.764 99.5137 226.656 99.2257 226.536C98.9437 226.41 98.6917 226.254 98.4697 226.068C98.2477 225.882 98.0677 225.654 97.9297 225.384C97.7977 225.108 97.7317 224.775 97.7317 224.385C97.7317 224.037 97.8037 223.704 97.9477 223.386C98.0917 223.062 98.3017 222.78 98.5777 222.54C98.8537 222.294 99.1927 222.099 99.5947 221.955C99.9967 221.811 100.456 221.739 100.972 221.739C101.572 221.739 102.109 221.835 102.583 222.027C103.063 222.213 103.477 222.471 103.825 222.801L103.465 223.386ZM115.488 226.896C114.75 226.92 114.12 226.98 113.598 227.076C113.082 227.166 112.659 227.286 112.329 227.436C112.005 227.586 111.768 227.763 111.618 227.967C111.474 228.171 111.402 228.399 111.402 228.651C111.402 228.891 111.441 229.098 111.519 229.272C111.597 229.446 111.702 229.59 111.834 229.704C111.972 229.812 112.131 229.893 112.311 229.947C112.497 229.995 112.695 230.019 112.905 230.019C113.187 230.019 113.445 229.992 113.679 229.938C113.913 229.878 114.132 229.794 114.336 229.686C114.546 229.578 114.744 229.449 114.93 229.299C115.122 229.149 115.308 228.978 115.488 228.786V226.896ZM110.313 223.17C110.817 222.684 111.36 222.321 111.942 222.081C112.524 221.841 113.169 221.721 113.877 221.721C114.387 221.721 114.84 221.805 115.236 221.973C115.632 222.141 115.965 222.375 116.235 222.675C116.505 222.975 116.709 223.338 116.847 223.764C116.985 224.19 117.054 224.658 117.054 225.168V231H116.343C116.187 231 116.067 230.976 115.983 230.928C115.899 230.874 115.833 230.772 115.785 230.622L115.605 229.758C115.365 229.98 115.131 230.178 114.903 230.352C114.675 230.52 114.435 230.664 114.183 230.784C113.931 230.898 113.661 230.985 113.373 231.045C113.091 231.111 112.776 231.144 112.428 231.144C112.074 231.144 111.741 231.096 111.429 231C111.117 230.898 110.844 230.748 110.61 230.55C110.382 230.352 110.199 230.103 110.061 229.803C109.929 229.497 109.863 229.137 109.863 228.723C109.863 228.363 109.962 228.018 110.16 227.688C110.358 227.352 110.679 227.055 111.123 226.797C111.567 226.539 112.146 226.329 112.86 226.167C113.574 225.999 114.45 225.903 115.488 225.879V225.168C115.488 224.46 115.335 223.926 115.029 223.566C114.723 223.2 114.276 223.017 113.688 223.017C113.292 223.017 112.959 223.068 112.689 223.17C112.425 223.266 112.194 223.377 111.996 223.503C111.804 223.623 111.636 223.734 111.492 223.836C111.354 223.932 111.216 223.98 111.078 223.98C110.97 223.98 110.877 223.953 110.799 223.899C110.721 223.839 110.655 223.767 110.601 223.683L110.313 223.17ZM121.106 223.098C121.496 222.684 121.928 222.354 122.402 222.108C122.876 221.862 123.422 221.739 124.04 221.739C124.538 221.739 124.976 221.823 125.354 221.991C125.738 222.153 126.056 222.387 126.308 222.693C126.566 222.993 126.761 223.356 126.893 223.782C127.025 224.208 127.091 224.679 127.091 225.195V231H125.48V225.195C125.48 224.505 125.321 223.971 125.003 223.593C124.691 223.209 124.214 223.017 123.572 223.017C123.098 223.017 122.654 223.131 122.24 223.359C121.832 223.587 121.454 223.896 121.106 224.286V231H119.495V217.743H121.106V223.098ZM135.634 225.447C135.634 225.075 135.58 224.736 135.472 224.43C135.37 224.118 135.217 223.851 135.013 223.629C134.815 223.401 134.572 223.227 134.284 223.107C133.996 222.981 133.669 222.918 133.303 222.918C132.535 222.918 131.926 223.143 131.476 223.593C131.032 224.037 130.756 224.655 130.648 225.447H135.634ZM136.93 229.722C136.732 229.962 136.495 230.172 136.219 230.352C135.943 230.526 135.646 230.67 135.328 230.784C135.016 230.898 134.692 230.982 134.356 231.036C134.02 231.096 133.687 231.126 133.357 231.126C132.727 231.126 132.145 231.021 131.611 230.811C131.083 230.595 130.624 230.283 130.234 229.875C129.85 229.461 129.55 228.951 129.334 228.345C129.118 227.739 129.01 227.043 129.01 226.257C129.01 225.621 129.106 225.027 129.298 224.475C129.496 223.923 129.778 223.446 130.144 223.044C130.51 222.636 130.957 222.318 131.485 222.09C132.013 221.856 132.607 221.739 133.267 221.739C133.813 221.739 134.317 221.832 134.779 222.018C135.247 222.198 135.649 222.462 135.985 222.81C136.327 223.152 136.594 223.578 136.786 224.088C136.978 224.592 137.074 225.168 137.074 225.816C137.074 226.068 137.047 226.236 136.993 226.32C136.939 226.404 136.837 226.446 136.687 226.446H130.594C130.612 227.022 130.69 227.523 130.828 227.949C130.972 228.375 131.17 228.732 131.422 229.02C131.674 229.302 131.974 229.515 132.322 229.659C132.67 229.797 133.06 229.866 133.492 229.866C133.894 229.866 134.239 229.821 134.527 229.731C134.821 229.635 135.073 229.533 135.283 229.425C135.493 229.317 135.667 229.218 135.805 229.128C135.949 229.032 136.072 228.984 136.174 228.984C136.306 228.984 136.408 229.035 136.48 229.137L136.93 229.722ZM143.982 226.896C143.244 226.92 142.614 226.98 142.092 227.076C141.576 227.166 141.153 227.286 140.823 227.436C140.499 227.586 140.262 227.763 140.112 227.967C139.968 228.171 139.896 228.399 139.896 228.651C139.896 228.891 139.935 229.098 140.013 229.272C140.091 229.446 140.196 229.59 140.328 229.704C140.466 229.812 140.625 229.893 140.805 229.947C140.991 229.995 141.189 230.019 141.399 230.019C141.681 230.019 141.939 229.992 142.173 229.938C142.407 229.878 142.626 229.794 142.83 229.686C143.04 229.578 143.238 229.449 143.424 229.299C143.616 229.149 143.802 228.978 143.982 228.786V226.896ZM138.807 223.17C139.311 222.684 139.854 222.321 140.436 222.081C141.018 221.841 141.663 221.721 142.371 221.721C142.881 221.721 143.334 221.805 143.73 221.973C144.126 222.141 144.459 222.375 144.729 222.675C144.999 222.975 145.203 223.338 145.341 223.764C145.479 224.19 145.548 224.658 145.548 225.168V231H144.837C144.681 231 144.561 230.976 144.477 230.928C144.393 230.874 144.327 230.772 144.279 230.622L144.099 229.758C143.859 229.98 143.625 230.178 143.397 230.352C143.169 230.52 142.929 230.664 142.677 230.784C142.425 230.898 142.155 230.985 141.867 231.045C141.585 231.111 141.27 231.144 140.922 231.144C140.568 231.144 140.235 231.096 139.923 231C139.611 230.898 139.338 230.748 139.104 230.55C138.876 230.352 138.693 230.103 138.555 229.803C138.423 229.497 138.357 229.137 138.357 228.723C138.357 228.363 138.456 228.018 138.654 227.688C138.852 227.352 139.173 227.055 139.617 226.797C140.061 226.539 140.64 226.329 141.354 226.167C142.068 225.999 142.944 225.903 143.982 225.879V225.168C143.982 224.46 143.829 223.926 143.523 223.566C143.217 223.2 142.77 223.017 142.182 223.017C141.786 223.017 141.453 223.068 141.183 223.17C140.919 223.266 140.688 223.377 140.49 223.503C140.298 223.623 140.13 223.734 139.986 223.836C139.848 223.932 139.71 223.98 139.572 223.98C139.464 223.98 139.371 223.953 139.293 223.899C139.215 223.839 139.149 223.767 139.095 223.683L138.807 223.17ZM153.929 224.052C153.629 223.65 153.305 223.371 152.957 223.215C152.609 223.053 152.219 222.972 151.787 222.972C150.941 222.972 150.29 223.275 149.834 223.881C149.378 224.487 149.15 225.351 149.15 226.473C149.15 227.067 149.201 227.577 149.303 228.003C149.405 228.423 149.555 228.771 149.753 229.047C149.951 229.317 150.194 229.515 150.482 229.641C150.77 229.767 151.097 229.83 151.463 229.83C151.991 229.83 152.45 229.71 152.84 229.47C153.236 229.23 153.599 228.891 153.929 228.453V224.052ZM155.531 217.743V231H154.577C154.349 231 154.205 230.889 154.145 230.667L154.001 229.56C153.611 230.028 153.167 230.406 152.669 230.694C152.171 230.982 151.595 231.126 150.941 231.126C150.419 231.126 149.945 231.027 149.519 230.829C149.093 230.625 148.73 230.328 148.43 229.938C148.13 229.548 147.899 229.062 147.737 228.48C147.575 227.898 147.494 227.229 147.494 226.473C147.494 225.801 147.584 225.177 147.764 224.601C147.944 224.019 148.202 223.515 148.538 223.089C148.874 222.663 149.285 222.33 149.771 222.09C150.263 221.844 150.815 221.721 151.427 221.721C151.985 221.721 152.462 221.817 152.858 222.009C153.26 222.195 153.617 222.456 153.929 222.792V217.743H155.531ZM166.509 221.739C167.175 221.739 167.775 221.85 168.309 222.072C168.843 222.294 169.299 222.609 169.677 223.017C170.055 223.425 170.343 223.92 170.541 224.502C170.745 225.078 170.847 225.723 170.847 226.437C170.847 227.157 170.745 227.805 170.541 228.381C170.343 228.957 170.055 229.449 169.677 229.857C169.299 230.265 168.843 230.58 168.309 230.802C167.775 231.018 167.175 231.126 166.509 231.126C165.837 231.126 165.231 231.018 164.691 230.802C164.157 230.58 163.701 230.265 163.323 229.857C162.945 229.449 162.654 228.957 162.45 228.381C162.252 227.805 162.153 227.157 162.153 226.437C162.153 225.723 162.252 225.078 162.45 224.502C162.654 223.92 162.945 223.425 163.323 223.017C163.701 222.609 164.157 222.294 164.691 222.072C165.231 221.85 165.837 221.739 166.509 221.739ZM166.509 229.875C167.409 229.875 168.081 229.575 168.525 228.975C168.969 228.369 169.191 227.526 169.191 226.446C169.191 225.36 168.969 224.514 168.525 223.908C168.081 223.302 167.409 222.999 166.509 222.999C166.053 222.999 165.654 223.077 165.312 223.233C164.976 223.389 164.694 223.614 164.466 223.908C164.244 224.202 164.076 224.565 163.962 224.997C163.854 225.423 163.8 225.906 163.8 226.446C163.8 227.526 164.022 228.369 164.466 228.975C164.916 229.575 165.597 229.875 166.509 229.875ZM173.28 231V223.251L172.272 223.134C172.146 223.104 172.041 223.059 171.957 222.999C171.879 222.933 171.84 222.84 171.84 222.72V222.063H173.28V221.181C173.28 220.659 173.352 220.197 173.496 219.795C173.646 219.387 173.856 219.045 174.126 218.769C174.402 218.487 174.732 218.274 175.116 218.13C175.5 217.986 175.932 217.914 176.412 217.914C176.82 217.914 177.195 217.974 177.537 218.094L177.501 218.895C177.489 219.039 177.408 219.117 177.258 219.129C177.114 219.141 176.919 219.147 176.673 219.147C176.397 219.147 176.145 219.183 175.917 219.255C175.695 219.327 175.503 219.444 175.341 219.606C175.179 219.768 175.053 219.981 174.963 220.245C174.879 220.509 174.837 220.836 174.837 221.226V222.063H177.465V223.224H174.891V231H173.28ZM191.728 231H190.126V223.224H185.428V228.696C185.428 229.08 185.521 229.365 185.707 229.551C185.893 229.737 186.133 229.83 186.427 229.83C186.595 229.83 186.739 229.809 186.859 229.767C186.985 229.719 187.093 229.668 187.183 229.614C187.273 229.56 187.348 229.512 187.408 229.47C187.474 229.422 187.531 229.398 187.579 229.398C187.663 229.398 187.738 229.449 187.804 229.551L188.272 230.316C187.996 230.574 187.663 230.778 187.273 230.928C186.883 231.072 186.481 231.144 186.067 231.144C185.347 231.144 184.792 230.943 184.402 230.541C184.018 230.139 183.826 229.56 183.826 228.804V223.224H182.728C182.632 223.224 182.551 223.197 182.485 223.143C182.419 223.083 182.386 222.993 182.386 222.873V222.234L183.88 222.036L184.249 219.228C184.267 219.138 184.306 219.066 184.366 219.012C184.432 218.952 184.516 218.922 184.618 218.922H185.428V222.063H191.728V231ZM192.124 218.958C192.124 219.114 192.091 219.261 192.025 219.399C191.965 219.531 191.881 219.648 191.773 219.75C191.671 219.852 191.551 219.933 191.413 219.993C191.275 220.053 191.128 220.083 190.972 220.083C190.816 220.083 190.669 220.053 190.531 219.993C190.399 219.933 190.282 219.852 190.18 219.75C190.078 219.648 189.997 219.531 189.937 219.399C189.877 219.261 189.847 219.114 189.847 218.958C189.847 218.802 189.877 218.655 189.937 218.517C189.997 218.373 190.078 218.25 190.18 218.148C190.282 218.04 190.399 217.956 190.531 217.896C190.669 217.836 190.816 217.806 190.972 217.806C191.128 217.806 191.275 217.836 191.413 217.896C191.551 217.956 191.671 218.04 191.773 218.148C191.881 218.25 191.965 218.373 192.025 218.517C192.091 218.655 192.124 218.802 192.124 218.958ZM194.36 231V221.883H195.323C195.551 221.883 195.692 221.994 195.746 222.216L195.863 223.152C196.199 222.738 196.577 222.399 196.997 222.135C197.417 221.871 197.903 221.739 198.455 221.739C199.067 221.739 199.562 221.91 199.94 222.252C200.324 222.594 200.6 223.056 200.768 223.638C200.9 223.308 201.068 223.023 201.272 222.783C201.482 222.543 201.716 222.345 201.974 222.189C202.232 222.033 202.505 221.919 202.793 221.847C203.087 221.775 203.384 221.739 203.684 221.739C204.164 221.739 204.59 221.817 204.962 221.973C205.34 222.123 205.658 222.345 205.916 222.639C206.18 222.933 206.381 223.296 206.519 223.728C206.657 224.154 206.726 224.643 206.726 225.195V231H205.115V225.195C205.115 224.481 204.959 223.941 204.647 223.575C204.335 223.203 203.885 223.017 203.297 223.017C203.033 223.017 202.781 223.065 202.541 223.161C202.307 223.251 202.1 223.386 201.92 223.566C201.74 223.746 201.596 223.974 201.488 224.25C201.386 224.52 201.335 224.835 201.335 225.195V231H199.724V225.195C199.724 224.463 199.577 223.917 199.283 223.557C198.989 223.197 198.56 223.017 197.996 223.017C197.6 223.017 197.234 223.125 196.898 223.341C196.562 223.551 196.253 223.839 195.971 224.205V231H194.36ZM215.263 225.447C215.263 225.075 215.209 224.736 215.101 224.43C214.999 224.118 214.846 223.851 214.642 223.629C214.444 223.401 214.201 223.227 213.913 223.107C213.625 222.981 213.298 222.918 212.932 222.918C212.164 222.918 211.555 223.143 211.105 223.593C210.661 224.037 210.385 224.655 210.277 225.447H215.263ZM216.559 229.722C216.361 229.962 216.124 230.172 215.848 230.352C215.572 230.526 215.275 230.67 214.957 230.784C214.645 230.898 214.321 230.982 213.985 231.036C213.649 231.096 213.316 231.126 212.986 231.126C212.356 231.126 211.774 231.021 211.24 230.811C210.712 230.595 210.253 230.283 209.863 229.875C209.479 229.461 209.179 228.951 208.963 228.345C208.747 227.739 208.639 227.043 208.639 226.257C208.639 225.621 208.735 225.027 208.927 224.475C209.125 223.923 209.407 223.446 209.773 223.044C210.139 222.636 210.586 222.318 211.114 222.09C211.642 221.856 212.236 221.739 212.896 221.739C213.442 221.739 213.946 221.832 214.408 222.018C214.876 222.198 215.278 222.462 215.614 222.81C215.956 223.152 216.223 223.578 216.415 224.088C216.607 224.592 216.703 225.168 216.703 225.816C216.703 226.068 216.676 226.236 216.622 226.32C216.568 226.404 216.466 226.446 216.316 226.446H210.223C210.241 227.022 210.319 227.523 210.457 227.949C210.601 228.375 210.799 228.732 211.051 229.02C211.303 229.302 211.603 229.515 211.951 229.659C212.299 229.797 212.689 229.866 213.121 229.866C213.523 229.866 213.868 229.821 214.156 229.731C214.45 229.635 214.702 229.533 214.912 229.425C215.122 229.317 215.296 229.218 215.434 229.128C215.578 229.032 215.701 228.984 215.803 228.984C215.935 228.984 216.037 229.035 216.109 229.137L216.559 229.722Z" fill="black"/>
</svg>
