<svg width="230" height="241" viewBox="0 0 230 241" fill="none" xmlns="http://www.w3.org/2000/svg">
<path d="M95 9H122.6L135 21.7416V72L132.733 70.018L129.667 72L127.667 70.018L124.6 72L122.6 70.018L120.333 72L118.067 70.018L115.4 72L112.6 70.018L109.667 72L107.267 70.018L104.733 72L102.2 70.018L100.067 72L97.2667 70.018L95 72V9Z" fill="#1E38C1"/>
<path d="M122.6 9H95V72L97.2667 70.018L100.067 72L102.2 70.018L104.733 72L107.267 70.018L109.667 72L112.6 70.018L115.4 72L118.067 70.018L120.333 72L122.6 70.018L124.6 72L127.667 70.018L129.667 72L132.733 70.018L135 72V21.7416M122.6 9L135 21.7416M122.6 9V21.7416H135" stroke="#1E38C1" stroke-width="3" stroke-linecap="round" stroke-linejoin="round"/>
<path d="M101 28H112" stroke="white" stroke-width="2" stroke-linecap="round" stroke-linejoin="round"/>
<path d="M118 28H129" stroke="white" stroke-width="2" stroke-linecap="round" stroke-linejoin="round"/>
<path d="M101 37H129" stroke="white" stroke-width="2" stroke-linecap="round" stroke-linejoin="round"/>
<path d="M101 46H129" stroke="white" stroke-width="2" stroke-linecap="round" stroke-linejoin="round"/>
<path d="M101 55H112" stroke="white" stroke-width="2" stroke-linecap="round" stroke-linejoin="round"/>
<path d="M118 55H129" stroke="white" stroke-width="2" stroke-linecap="round" stroke-linejoin="round"/>
<path d="M122 22V9L135 22H122Z" fill="white" stroke="#1E38C1" stroke-width="2" stroke-linecap="round" stroke-linejoin="round"/>
<path d="M52.954 102.79C53.452 102.79 53.89 102.724 54.268 102.592C54.652 102.46 54.973 102.277 55.231 102.043C55.495 101.803 55.693 101.518 55.825 101.188C55.957 100.858 56.023 100.495 56.023 100.099C56.023 99.277 55.768 98.635 55.258 98.173C54.754 97.711 53.986 97.48 52.954 97.48H50.884V102.79H52.954ZM52.954 96.103C53.77 96.103 54.478 96.199 55.078 96.391C55.684 96.577 56.185 96.844 56.581 97.192C56.977 97.54 57.271 97.96 57.463 98.452C57.661 98.944 57.76 99.493 57.76 100.099C57.76 100.699 57.655 101.248 57.445 101.746C57.235 102.244 56.926 102.673 56.518 103.033C56.116 103.393 55.615 103.675 55.015 103.879C54.421 104.077 53.734 104.176 52.954 104.176H50.884V109H49.147V96.103H52.954ZM64.2393 104.896C63.5013 104.92 62.8713 104.98 62.3493 105.076C61.8333 105.166 61.4103 105.286 61.0803 105.436C60.7563 105.586 60.5193 105.763 60.3693 105.967C60.2253 106.171 60.1533 106.399 60.1533 106.651C60.1533 106.891 60.1923 107.098 60.2703 107.272C60.3483 107.446 60.4533 107.59 60.5853 107.704C60.7233 107.812 60.8823 107.893 61.0623 107.947C61.2483 107.995 61.4463 108.019 61.6563 108.019C61.9383 108.019 62.1963 107.992 62.4303 107.938C62.6643 107.878 62.8833 107.794 63.0873 107.686C63.2973 107.578 63.4953 107.449 63.6813 107.299C63.8733 107.149 64.0593 106.978 64.2393 106.786V104.896ZM59.0643 101.17C59.5683 100.684 60.1113 100.321 60.6933 100.081C61.2753 99.841 61.9203 99.721 62.6283 99.721C63.1383 99.721 63.5913 99.805 63.9873 99.973C64.3833 100.141 64.7163 100.375 64.9863 100.675C65.2563 100.975 65.4603 101.338 65.5983 101.764C65.7363 102.19 65.8053 102.658 65.8053 103.168V109H65.0943C64.9383 109 64.8183 108.976 64.7343 108.928C64.6503 108.874 64.5843 108.772 64.5363 108.622L64.3563 107.758C64.1163 107.98 63.8823 108.178 63.6543 108.352C63.4263 108.52 63.1863 108.664 62.9343 108.784C62.6823 108.898 62.4123 108.985 62.1243 109.045C61.8423 109.111 61.5273 109.144 61.1793 109.144C60.8253 109.144 60.4923 109.096 60.1803 109C59.8683 108.898 59.5953 108.748 59.3613 108.55C59.1333 108.352 58.9503 108.103 58.8123 107.803C58.6803 107.497 58.6143 107.137 58.6143 106.723C58.6143 106.363 58.7133 106.018 58.9113 105.688C59.1093 105.352 59.4303 105.055 59.8743 104.797C60.3183 104.539 60.8973 104.329 61.6113 104.167C62.3253 103.999 63.2013 103.903 64.2393 103.879V103.168C64.2393 102.46 64.0863 101.926 63.7803 101.566C63.4743 101.2 63.0273 101.017 62.4393 101.017C62.0433 101.017 61.7103 101.068 61.4403 101.17C61.1763 101.266 60.9453 101.377 60.7473 101.503C60.5553 101.623 60.3873 101.734 60.2433 101.836C60.1053 101.932 59.9673 101.98 59.8293 101.98C59.7213 101.98 59.6283 101.953 59.5503 101.899C59.4723 101.839 59.4063 101.767 59.3523 101.683L59.0643 101.17ZM75.9006 99.883L70.8156 111.691C70.7616 111.811 70.6926 111.907 70.6086 111.979C70.5306 112.051 70.4076 112.087 70.2396 112.087H69.0516L70.7166 108.469L66.9546 99.883H68.3406C68.4786 99.883 68.5866 99.919 68.6646 99.991C68.7486 100.057 68.8056 100.132 68.8356 100.216L71.2746 105.958C71.3706 106.21 71.4516 106.474 71.5176 106.75C71.6016 106.468 71.6916 106.201 71.7876 105.949L74.1546 100.216C74.1906 100.12 74.2506 100.042 74.3346 99.982C74.4246 99.916 74.5236 99.883 74.6316 99.883H75.9006ZM79.0079 99.883V109H77.4059V99.883H79.0079ZM79.3499 97.021C79.3499 97.177 79.3169 97.324 79.2509 97.462C79.1909 97.594 79.1069 97.714 78.9989 97.822C78.8969 97.924 78.7739 98.005 78.6299 98.065C78.4919 98.125 78.3449 98.155 78.1889 98.155C78.0329 98.155 77.8859 98.125 77.7479 98.065C77.6159 98.005 77.4989 97.924 77.3969 97.822C77.2949 97.714 77.2139 97.594 77.1539 97.462C77.0939 97.324 77.0639 97.177 77.0639 97.021C77.0639 96.865 77.0939 96.718 77.1539 96.58C77.2139 96.436 77.2949 96.313 77.3969 96.211C77.4989 96.103 77.6159 96.019 77.7479 95.959C77.8859 95.899 78.0329 95.869 78.1889 95.869C78.3449 95.869 78.4919 95.899 78.6299 95.959C78.7739 96.019 78.8969 96.103 78.9989 96.211C79.1069 96.313 79.1909 96.436 79.2509 96.58C79.3169 96.718 79.3499 96.865 79.3499 97.021ZM83.1521 101.206C83.3501 100.984 83.5601 100.783 83.7821 100.603C84.0041 100.423 84.2381 100.27 84.4841 100.144C84.7361 100.012 85.0001 99.913 85.2761 99.847C85.5581 99.775 85.8611 99.739 86.1851 99.739C86.6831 99.739 87.1211 99.823 87.4991 99.991C87.8831 100.153 88.2011 100.387 88.4531 100.693C88.7111 100.993 88.9061 101.356 89.0381 101.782C89.1701 102.208 89.2361 102.679 89.2361 103.195V109H87.6251V103.195C87.6251 102.505 87.4661 101.971 87.1481 101.593C86.8361 101.209 86.3591 101.017 85.7171 101.017C85.2431 101.017 84.7991 101.131 84.3851 101.359C83.9771 101.587 83.5991 101.896 83.2511 102.286V109H81.6401V99.883H82.6031C82.8311 99.883 82.9721 99.994 83.0261 100.216L83.1521 101.206ZM94.8542 104.545C95.1782 104.545 95.4632 104.5 95.7092 104.41C95.9552 104.32 96.1622 104.194 96.3302 104.032C96.4982 103.87 96.6242 103.678 96.7082 103.456C96.7922 103.228 96.8342 102.979 96.8342 102.709C96.8342 102.151 96.6632 101.707 96.3212 101.377C95.9852 101.047 95.4962 100.882 94.8542 100.882C94.2062 100.882 93.7112 101.047 93.3692 101.377C93.0332 101.707 92.8652 102.151 92.8652 102.709C92.8652 102.979 92.9072 103.228 92.9912 103.456C93.0812 103.678 93.2102 103.87 93.3782 104.032C93.5462 104.194 93.7532 104.32 93.9992 104.41C94.2452 104.5 94.5302 104.545 94.8542 104.545ZM97.7432 109.495C97.7432 109.273 97.6802 109.093 97.5542 108.955C97.4282 108.817 97.2572 108.709 97.0412 108.631C96.8312 108.553 96.5852 108.499 96.3032 108.469C96.0212 108.433 95.7212 108.406 95.4032 108.388C95.0912 108.37 94.7732 108.352 94.4492 108.334C94.1252 108.316 93.8132 108.286 93.5132 108.244C93.1772 108.4 92.9012 108.598 92.6852 108.838C92.4752 109.072 92.3702 109.348 92.3702 109.666C92.3702 109.87 92.4212 110.059 92.5232 110.233C92.6312 110.413 92.7932 110.566 93.0092 110.692C93.2252 110.824 93.4952 110.926 93.8192 110.998C94.1492 111.076 94.5362 111.115 94.9802 111.115C95.4122 111.115 95.7992 111.076 96.1412 110.998C96.4832 110.92 96.7712 110.809 97.0052 110.665C97.2452 110.521 97.4282 110.35 97.5542 110.152C97.6802 109.954 97.7432 109.735 97.7432 109.495ZM99.3722 100.243V100.837C99.3722 101.035 99.2462 101.161 98.9942 101.215L97.9592 101.35C98.1632 101.746 98.2652 102.184 98.2652 102.664C98.2652 103.108 98.1782 103.513 98.0042 103.879C97.8362 104.239 97.6022 104.548 97.3022 104.806C97.0022 105.064 96.6422 105.262 96.2222 105.4C95.8022 105.538 95.3462 105.607 94.8542 105.607C94.4282 105.607 94.0262 105.556 93.6482 105.454C93.4562 105.574 93.3092 105.703 93.2072 105.841C93.1052 105.973 93.0542 106.108 93.0542 106.246C93.0542 106.462 93.1412 106.627 93.3152 106.741C93.4952 106.849 93.7292 106.927 94.0172 106.975C94.3052 107.023 94.6322 107.053 94.9982 107.065C95.3702 107.077 95.7482 107.098 96.1322 107.128C96.5222 107.152 96.9002 107.197 97.2662 107.263C97.6382 107.329 97.9682 107.437 98.2562 107.587C98.5442 107.737 98.7752 107.944 98.9492 108.208C99.1292 108.472 99.2192 108.814 99.2192 109.234C99.2192 109.624 99.1202 110.002 98.9222 110.368C98.7302 110.734 98.4512 111.058 98.0852 111.34C97.7192 111.628 97.2692 111.856 96.7352 112.024C96.2072 112.198 95.6102 112.285 94.9442 112.285C94.2782 112.285 93.6962 112.219 93.1982 112.087C92.7002 111.955 92.2862 111.778 91.9562 111.556C91.6262 111.334 91.3772 111.076 91.2092 110.782C91.0472 110.494 90.9662 110.191 90.9662 109.873C90.9662 109.423 91.1072 109.042 91.3892 108.73C91.6712 108.418 92.0582 108.169 92.5502 107.983C92.2802 107.863 92.0642 107.704 91.9022 107.506C91.7462 107.302 91.6682 107.029 91.6682 106.687C91.6682 106.555 91.6922 106.42 91.7402 106.282C91.7882 106.138 91.8602 105.997 91.9562 105.859C92.0582 105.715 92.1812 105.58 92.3252 105.454C92.4692 105.328 92.6372 105.217 92.8292 105.121C92.3792 104.869 92.0282 104.536 91.7762 104.122C91.5242 103.702 91.3982 103.216 91.3982 102.664C91.3982 102.22 91.4822 101.818 91.6502 101.458C91.8242 101.092 92.0642 100.783 92.3702 100.531C92.6762 100.273 93.0392 100.075 93.4592 99.937C93.8852 99.799 94.3502 99.73 94.8542 99.73C95.2502 99.73 95.6192 99.775 95.9612 99.865C96.3032 99.949 96.6152 100.075 96.8972 100.243H99.3722ZM106.228 109V101.251L105.22 101.134C105.094 101.104 104.989 101.059 104.905 100.999C104.827 100.933 104.788 100.84 104.788 100.72V100.063H106.228V99.181C106.228 98.659 106.3 98.197 106.444 97.795C106.594 97.387 106.804 97.045 107.074 96.769C107.35 96.487 107.68 96.274 108.064 96.13C108.448 95.986 108.88 95.914 109.36 95.914C109.768 95.914 110.143 95.974 110.485 96.094L110.449 96.895C110.437 97.039 110.356 97.117 110.206 97.129C110.062 97.141 109.867 97.147 109.621 97.147C109.345 97.147 109.093 97.183 108.865 97.255C108.643 97.327 108.451 97.444 108.289 97.606C108.127 97.768 108.001 97.981 107.911 98.245C107.827 98.509 107.785 98.836 107.785 99.226V100.063H110.413V101.224H107.839V109H106.228ZM115.489 99.739C116.155 99.739 116.755 99.85 117.289 100.072C117.823 100.294 118.279 100.609 118.657 101.017C119.035 101.425 119.323 101.92 119.521 102.502C119.725 103.078 119.827 103.723 119.827 104.437C119.827 105.157 119.725 105.805 119.521 106.381C119.323 106.957 119.035 107.449 118.657 107.857C118.279 108.265 117.823 108.58 117.289 108.802C116.755 109.018 116.155 109.126 115.489 109.126C114.817 109.126 114.211 109.018 113.671 108.802C113.137 108.58 112.681 108.265 112.303 107.857C111.925 107.449 111.634 106.957 111.43 106.381C111.232 105.805 111.133 105.157 111.133 104.437C111.133 103.723 111.232 103.078 111.43 102.502C111.634 101.92 111.925 101.425 112.303 101.017C112.681 100.609 113.137 100.294 113.671 100.072C114.211 99.85 114.817 99.739 115.489 99.739ZM115.489 107.875C116.389 107.875 117.061 107.575 117.505 106.975C117.949 106.369 118.171 105.526 118.171 104.446C118.171 103.36 117.949 102.514 117.505 101.908C117.061 101.302 116.389 100.999 115.489 100.999C115.033 100.999 114.634 101.077 114.292 101.233C113.956 101.389 113.674 101.614 113.446 101.908C113.224 102.202 113.056 102.565 112.942 102.997C112.834 103.423 112.78 103.906 112.78 104.446C112.78 105.526 113.002 106.369 113.446 106.975C113.896 107.575 114.577 107.875 115.489 107.875ZM123.38 101.71C123.668 101.086 124.022 100.6 124.442 100.252C124.862 99.898 125.375 99.721 125.981 99.721C126.173 99.721 126.356 99.742 126.53 99.784C126.71 99.826 126.869 99.892 127.007 99.982L126.89 101.179C126.854 101.329 126.764 101.404 126.62 101.404C126.536 101.404 126.413 101.386 126.251 101.35C126.089 101.314 125.906 101.296 125.702 101.296C125.414 101.296 125.156 101.338 124.928 101.422C124.706 101.506 124.505 101.632 124.325 101.8C124.151 101.962 123.992 102.166 123.848 102.412C123.71 102.652 123.584 102.928 123.47 103.24V109H121.859V99.883H122.777C122.951 99.883 123.071 99.916 123.137 99.982C123.203 100.048 123.248 100.162 123.272 100.324L123.38 101.71ZM137.575 104.896C136.837 104.92 136.207 104.98 135.685 105.076C135.169 105.166 134.746 105.286 134.416 105.436C134.092 105.586 133.855 105.763 133.705 105.967C133.561 106.171 133.489 106.399 133.489 106.651C133.489 106.891 133.528 107.098 133.606 107.272C133.684 107.446 133.789 107.59 133.921 107.704C134.059 107.812 134.218 107.893 134.398 107.947C134.584 107.995 134.782 108.019 134.992 108.019C135.274 108.019 135.532 107.992 135.766 107.938C136 107.878 136.219 107.794 136.423 107.686C136.633 107.578 136.831 107.449 137.017 107.299C137.209 107.149 137.395 106.978 137.575 106.786V104.896ZM132.4 101.17C132.904 100.684 133.447 100.321 134.029 100.081C134.611 99.841 135.256 99.721 135.964 99.721C136.474 99.721 136.927 99.805 137.323 99.973C137.719 100.141 138.052 100.375 138.322 100.675C138.592 100.975 138.796 101.338 138.934 101.764C139.072 102.19 139.141 102.658 139.141 103.168V109H138.43C138.274 109 138.154 108.976 138.07 108.928C137.986 108.874 137.92 108.772 137.872 108.622L137.692 107.758C137.452 107.98 137.218 108.178 136.99 108.352C136.762 108.52 136.522 108.664 136.27 108.784C136.018 108.898 135.748 108.985 135.46 109.045C135.178 109.111 134.863 109.144 134.515 109.144C134.161 109.144 133.828 109.096 133.516 109C133.204 108.898 132.931 108.748 132.697 108.55C132.469 108.352 132.286 108.103 132.148 107.803C132.016 107.497 131.95 107.137 131.95 106.723C131.95 106.363 132.049 106.018 132.247 105.688C132.445 105.352 132.766 105.055 133.21 104.797C133.654 104.539 134.233 104.329 134.947 104.167C135.661 103.999 136.537 103.903 137.575 103.879V103.168C137.575 102.46 137.422 101.926 137.116 101.566C136.81 101.2 136.363 101.017 135.775 101.017C135.379 101.017 135.046 101.068 134.776 101.17C134.512 101.266 134.281 101.377 134.083 101.503C133.891 101.623 133.723 101.734 133.579 101.836C133.441 101.932 133.303 101.98 133.165 101.98C133.057 101.98 132.964 101.953 132.886 101.899C132.808 101.839 132.742 101.767 132.688 101.683L132.4 101.17ZM146.187 109V99.883H147.15C147.378 99.883 147.519 99.994 147.573 100.216L147.69 101.152C148.026 100.738 148.404 100.399 148.824 100.135C149.244 99.871 149.73 99.739 150.282 99.739C150.894 99.739 151.389 99.91 151.767 100.252C152.151 100.594 152.427 101.056 152.595 101.638C152.727 101.308 152.895 101.023 153.099 100.783C153.309 100.543 153.543 100.345 153.801 100.189C154.059 100.033 154.332 99.919 154.62 99.847C154.914 99.775 155.211 99.739 155.511 99.739C155.991 99.739 156.417 99.817 156.789 99.973C157.167 100.123 157.485 100.345 157.743 100.639C158.007 100.933 158.208 101.296 158.346 101.728C158.484 102.154 158.553 102.643 158.553 103.195V109H156.942V103.195C156.942 102.481 156.786 101.941 156.474 101.575C156.162 101.203 155.712 101.017 155.124 101.017C154.86 101.017 154.608 101.065 154.368 101.161C154.134 101.251 153.927 101.386 153.747 101.566C153.567 101.746 153.423 101.974 153.315 102.25C153.213 102.52 153.162 102.835 153.162 103.195V109H151.551V103.195C151.551 102.463 151.404 101.917 151.11 101.557C150.816 101.197 150.387 101.017 149.823 101.017C149.427 101.017 149.061 101.125 148.725 101.341C148.389 101.551 148.08 101.839 147.798 102.205V109H146.187ZM167.09 103.447C167.09 103.075 167.036 102.736 166.928 102.43C166.826 102.118 166.673 101.851 166.469 101.629C166.271 101.401 166.028 101.227 165.74 101.107C165.452 100.981 165.125 100.918 164.759 100.918C163.991 100.918 163.382 101.143 162.932 101.593C162.488 102.037 162.212 102.655 162.104 103.447H167.09ZM168.386 107.722C168.188 107.962 167.951 108.172 167.675 108.352C167.399 108.526 167.102 108.67 166.784 108.784C166.472 108.898 166.148 108.982 165.812 109.036C165.476 109.096 165.143 109.126 164.813 109.126C164.183 109.126 163.601 109.021 163.067 108.811C162.539 108.595 162.08 108.283 161.69 107.875C161.306 107.461 161.006 106.951 160.79 106.345C160.574 105.739 160.466 105.043 160.466 104.257C160.466 103.621 160.562 103.027 160.754 102.475C160.952 101.923 161.234 101.446 161.6 101.044C161.966 100.636 162.413 100.318 162.941 100.09C163.469 99.856 164.063 99.739 164.723 99.739C165.269 99.739 165.773 99.832 166.235 100.018C166.703 100.198 167.105 100.462 167.441 100.81C167.783 101.152 168.05 101.578 168.242 102.088C168.434 102.592 168.53 103.168 168.53 103.816C168.53 104.068 168.503 104.236 168.449 104.32C168.395 104.404 168.293 104.446 168.143 104.446H162.05C162.068 105.022 162.146 105.523 162.284 105.949C162.428 106.375 162.626 106.732 162.878 107.02C163.13 107.302 163.43 107.515 163.778 107.659C164.126 107.797 164.516 107.866 164.948 107.866C165.35 107.866 165.695 107.821 165.983 107.731C166.277 107.635 166.529 107.533 166.739 107.425C166.949 107.317 167.123 107.218 167.261 107.128C167.405 107.032 167.528 106.984 167.63 106.984C167.762 106.984 167.864 107.035 167.936 107.137L168.386 107.722ZM175.439 104.896C174.701 104.92 174.071 104.98 173.549 105.076C173.033 105.166 172.61 105.286 172.28 105.436C171.956 105.586 171.719 105.763 171.569 105.967C171.425 106.171 171.353 106.399 171.353 106.651C171.353 106.891 171.392 107.098 171.47 107.272C171.548 107.446 171.653 107.59 171.785 107.704C171.923 107.812 172.082 107.893 172.262 107.947C172.448 107.995 172.646 108.019 172.856 108.019C173.138 108.019 173.396 107.992 173.63 107.938C173.864 107.878 174.083 107.794 174.287 107.686C174.497 107.578 174.695 107.449 174.881 107.299C175.073 107.149 175.259 106.978 175.439 106.786V104.896ZM170.264 101.17C170.768 100.684 171.311 100.321 171.893 100.081C172.475 99.841 173.12 99.721 173.828 99.721C174.338 99.721 174.791 99.805 175.187 99.973C175.583 100.141 175.916 100.375 176.186 100.675C176.456 100.975 176.66 101.338 176.798 101.764C176.936 102.19 177.005 102.658 177.005 103.168V109H176.294C176.138 109 176.018 108.976 175.934 108.928C175.85 108.874 175.784 108.772 175.736 108.622L175.556 107.758C175.316 107.98 175.082 108.178 174.854 108.352C174.626 108.52 174.386 108.664 174.134 108.784C173.882 108.898 173.612 108.985 173.324 109.045C173.042 109.111 172.727 109.144 172.379 109.144C172.025 109.144 171.692 109.096 171.38 109C171.068 108.898 170.795 108.748 170.561 108.55C170.333 108.352 170.15 108.103 170.012 107.803C169.88 107.497 169.814 107.137 169.814 106.723C169.814 106.363 169.913 106.018 170.111 105.688C170.309 105.352 170.63 105.055 171.074 104.797C171.518 104.539 172.097 104.329 172.811 104.167C173.525 103.999 174.401 103.903 175.439 103.879V103.168C175.439 102.46 175.286 101.926 174.98 101.566C174.674 101.2 174.227 101.017 173.639 101.017C173.243 101.017 172.91 101.068 172.64 101.17C172.376 101.266 172.145 101.377 171.947 101.503C171.755 101.623 171.587 101.734 171.443 101.836C171.305 101.932 171.167 101.98 171.029 101.98C170.921 101.98 170.828 101.953 170.75 101.899C170.672 101.839 170.606 101.767 170.552 101.683L170.264 101.17ZM181.101 95.743V109H179.499V95.743H181.101Z" fill="black"/>
<path d="M12.332 161.614C12.866 161.614 13.343 161.524 13.763 161.344C14.183 161.164 14.537 160.912 14.825 160.588C15.119 160.264 15.341 159.877 15.491 159.427C15.647 158.977 15.725 158.482 15.725 157.942V150.103H17.462V157.942C17.462 158.686 17.342 159.376 17.102 160.012C16.868 160.648 16.529 161.2 16.085 161.668C15.647 162.13 15.11 162.493 14.474 162.757C13.838 163.021 13.124 163.153 12.332 163.153C11.54 163.153 10.826 163.021 10.19 162.757C9.55401 162.493 9.01401 162.13 8.57001 161.668C8.12601 161.2 7.78401 160.648 7.54401 160.012C7.31001 159.376 7.19301 158.686 7.19301 157.942V150.103H8.93001V157.933C8.93001 158.473 9.00501 158.968 9.15501 159.418C9.31101 159.868 9.53301 160.255 9.82101 160.579C10.115 160.903 10.472 161.158 10.892 161.344C11.318 161.524 11.798 161.614 12.332 161.614ZM25.0839 155.386C25.0119 155.518 24.9009 155.584 24.7509 155.584C24.6609 155.584 24.5589 155.551 24.4449 155.485C24.3309 155.419 24.1899 155.347 24.0219 155.269C23.8599 155.185 23.6649 155.11 23.4369 155.044C23.2089 154.972 22.9389 154.936 22.6269 154.936C22.3569 154.936 22.1139 154.972 21.8979 155.044C21.6819 155.11 21.4959 155.203 21.3399 155.323C21.1899 155.443 21.0729 155.584 20.9889 155.746C20.9109 155.902 20.8719 156.073 20.8719 156.259C20.8719 156.493 20.9379 156.688 21.0699 156.844C21.2079 157 21.3879 157.135 21.6099 157.249C21.8319 157.363 22.0839 157.465 22.3659 157.555C22.6479 157.639 22.9359 157.732 23.2299 157.834C23.5299 157.93 23.8209 158.038 24.1029 158.158C24.3849 158.278 24.6369 158.428 24.8589 158.608C25.0809 158.788 25.2579 159.01 25.3899 159.274C25.5279 159.532 25.5969 159.844 25.5969 160.21C25.5969 160.63 25.5219 161.02 25.3719 161.38C25.2219 161.734 24.9999 162.043 24.7059 162.307C24.4119 162.565 24.0519 162.769 23.6259 162.919C23.1999 163.069 22.7079 163.144 22.1499 163.144C21.5139 163.144 20.9379 163.042 20.4219 162.838C19.9059 162.628 19.4679 162.361 19.1079 162.037L19.4859 161.425C19.5339 161.347 19.5909 161.287 19.6569 161.245C19.7229 161.203 19.8069 161.182 19.9089 161.182C20.0169 161.182 20.1309 161.224 20.2509 161.308C20.3709 161.392 20.5149 161.485 20.6829 161.587C20.8569 161.689 21.0669 161.782 21.3129 161.866C21.5589 161.95 21.8649 161.992 22.2309 161.992C22.5429 161.992 22.8159 161.953 23.0499 161.875C23.2839 161.791 23.4789 161.68 23.6349 161.542C23.7909 161.404 23.9049 161.245 23.9769 161.065C24.0549 160.885 24.0939 160.693 24.0939 160.489C24.0939 160.237 24.0249 160.03 23.8869 159.868C23.7549 159.7 23.5779 159.559 23.3559 159.445C23.1339 159.325 22.8789 159.223 22.5909 159.139C22.3089 159.049 22.0179 158.956 21.7179 158.86C21.4239 158.764 21.1329 158.656 20.8449 158.536C20.5629 158.41 20.3109 158.254 20.0889 158.068C19.8669 157.882 19.6869 157.654 19.5489 157.384C19.4169 157.108 19.3509 156.775 19.3509 156.385C19.3509 156.037 19.4229 155.704 19.5669 155.386C19.7109 155.062 19.9209 154.78 20.1969 154.54C20.4729 154.294 20.8119 154.099 21.2139 153.955C21.6159 153.811 22.0749 153.739 22.5909 153.739C23.1909 153.739 23.7279 153.835 24.2019 154.027C24.6819 154.213 25.0959 154.471 25.4439 154.801L25.0839 155.386ZM33.663 157.447C33.663 157.075 33.609 156.736 33.501 156.43C33.399 156.118 33.246 155.851 33.042 155.629C32.844 155.401 32.601 155.227 32.313 155.107C32.025 154.981 31.698 154.918 31.332 154.918C30.564 154.918 29.955 155.143 29.505 155.593C29.061 156.037 28.785 156.655 28.677 157.447H33.663ZM34.959 161.722C34.761 161.962 34.524 162.172 34.248 162.352C33.972 162.526 33.675 162.67 33.357 162.784C33.045 162.898 32.721 162.982 32.385 163.036C32.049 163.096 31.716 163.126 31.386 163.126C30.756 163.126 30.174 163.021 29.64 162.811C29.112 162.595 28.653 162.283 28.263 161.875C27.879 161.461 27.579 160.951 27.363 160.345C27.147 159.739 27.039 159.043 27.039 158.257C27.039 157.621 27.135 157.027 27.327 156.475C27.525 155.923 27.807 155.446 28.173 155.044C28.539 154.636 28.986 154.318 29.514 154.09C30.042 153.856 30.636 153.739 31.296 153.739C31.842 153.739 32.346 153.832 32.808 154.018C33.276 154.198 33.678 154.462 34.014 154.81C34.356 155.152 34.623 155.578 34.815 156.088C35.007 156.592 35.103 157.168 35.103 157.816C35.103 158.068 35.076 158.236 35.022 158.32C34.968 158.404 34.866 158.446 34.716 158.446H28.623C28.641 159.022 28.719 159.523 28.857 159.949C29.001 160.375 29.199 160.732 29.451 161.02C29.703 161.302 30.003 161.515 30.351 161.659C30.699 161.797 31.089 161.866 31.521 161.866C31.923 161.866 32.268 161.821 32.556 161.731C32.85 161.635 33.102 161.533 33.312 161.425C33.522 161.317 33.696 161.218 33.834 161.128C33.978 161.032 34.101 160.984 34.203 160.984C34.335 160.984 34.437 161.035 34.509 161.137L34.959 161.722ZM44.4752 163.144C43.7552 163.144 43.2002 162.943 42.8102 162.541C42.4262 162.139 42.2342 161.56 42.2342 160.804V155.224H41.1362C41.0402 155.224 40.9592 155.197 40.8932 155.143C40.8272 155.083 40.7942 154.993 40.7942 154.873V154.234L42.2882 154.045L42.6572 151.228C42.6752 151.138 42.7142 151.066 42.7742 151.012C42.8402 150.952 42.9242 150.922 43.0262 150.922H43.8362V154.063H46.4732V155.224H43.8362V160.696C43.8362 161.08 43.9292 161.365 44.1152 161.551C44.3012 161.737 44.5412 161.83 44.8352 161.83C45.0032 161.83 45.1472 161.809 45.2672 161.767C45.3932 161.719 45.5012 161.668 45.5912 161.614C45.6812 161.56 45.7562 161.512 45.8162 161.47C45.8822 161.422 45.9392 161.398 45.9872 161.398C46.0712 161.398 46.1462 161.449 46.2122 161.551L46.6802 162.316C46.4042 162.574 46.0712 162.778 45.6812 162.928C45.2912 163.072 44.8892 163.144 44.4752 163.144ZM49.7384 155.098C50.1284 154.684 50.5604 154.354 51.0344 154.108C51.5084 153.862 52.0544 153.739 52.6724 153.739C53.1704 153.739 53.6084 153.823 53.9864 153.991C54.3704 154.153 54.6884 154.387 54.9404 154.693C55.1984 154.993 55.3934 155.356 55.5254 155.782C55.6574 156.208 55.7234 156.679 55.7234 157.195V163H54.1124V157.195C54.1124 156.505 53.9534 155.971 53.6354 155.593C53.3234 155.209 52.8464 155.017 52.2044 155.017C51.7304 155.017 51.2864 155.131 50.8724 155.359C50.4644 155.587 50.0864 155.896 49.7384 156.286V163H48.1274V149.743H49.7384V155.098ZM64.2665 157.447C64.2665 157.075 64.2125 156.736 64.1045 156.43C64.0025 156.118 63.8495 155.851 63.6455 155.629C63.4475 155.401 63.2045 155.227 62.9165 155.107C62.6285 154.981 62.3015 154.918 61.9355 154.918C61.1675 154.918 60.5585 155.143 60.1085 155.593C59.6645 156.037 59.3885 156.655 59.2805 157.447H64.2665ZM65.5625 161.722C65.3645 161.962 65.1275 162.172 64.8515 162.352C64.5755 162.526 64.2785 162.67 63.9605 162.784C63.6485 162.898 63.3245 162.982 62.9885 163.036C62.6525 163.096 62.3195 163.126 61.9895 163.126C61.3595 163.126 60.7775 163.021 60.2435 162.811C59.7155 162.595 59.2565 162.283 58.8665 161.875C58.4825 161.461 58.1825 160.951 57.9665 160.345C57.7505 159.739 57.6425 159.043 57.6425 158.257C57.6425 157.621 57.7385 157.027 57.9305 156.475C58.1285 155.923 58.4105 155.446 58.7765 155.044C59.1425 154.636 59.5895 154.318 60.1175 154.09C60.6455 153.856 61.2395 153.739 61.8995 153.739C62.4455 153.739 62.9495 153.832 63.4115 154.018C63.8795 154.198 64.2815 154.462 64.6175 154.81C64.9595 155.152 65.2265 155.578 65.4185 156.088C65.6105 156.592 65.7065 157.168 65.7065 157.816C65.7065 158.068 65.6795 158.236 65.6255 158.32C65.5715 158.404 65.4695 158.446 65.3195 158.446H59.2265C59.2445 159.022 59.3225 159.523 59.4605 159.949C59.6045 160.375 59.8025 160.732 60.0545 161.02C60.3065 161.302 60.6065 161.515 60.9545 161.659C61.3025 161.797 61.6925 161.866 62.1245 161.866C62.5265 161.866 62.8715 161.821 63.1595 161.731C63.4535 161.635 63.7055 161.533 63.9155 161.425C64.1255 161.317 64.2995 161.218 64.4375 161.128C64.5815 161.032 64.7045 160.984 64.8065 160.984C64.9385 160.984 65.0405 161.035 65.1125 161.137L65.5625 161.722ZM78.6247 155.503C78.5767 155.569 78.5287 155.62 78.4807 155.656C78.4327 155.692 78.3667 155.71 78.2827 155.71C78.1927 155.71 78.0937 155.674 77.9857 155.602C77.8777 155.524 77.7427 155.44 77.5807 155.35C77.4247 155.26 77.2297 155.179 76.9957 155.107C76.7677 155.029 76.4857 154.99 76.1497 154.99C75.6997 154.99 75.3037 155.071 74.9617 155.233C74.6197 155.389 74.3317 155.617 74.0977 155.917C73.8697 156.217 73.6957 156.58 73.5757 157.006C73.4617 157.432 73.4047 157.909 73.4047 158.437C73.4047 158.989 73.4677 159.481 73.5937 159.913C73.7197 160.339 73.8967 160.699 74.1247 160.993C74.3587 161.281 74.6377 161.503 74.9617 161.659C75.2917 161.809 75.6607 161.884 76.0687 161.884C76.4587 161.884 76.7797 161.839 77.0317 161.749C77.2837 161.653 77.4907 161.548 77.6527 161.434C77.8207 161.32 77.9587 161.218 78.0667 161.128C78.1807 161.032 78.2917 160.984 78.3997 160.984C78.5317 160.984 78.6337 161.035 78.7057 161.137L79.1557 161.722C78.9577 161.968 78.7327 162.178 78.4807 162.352C78.2287 162.526 77.9557 162.673 77.6617 162.793C77.3737 162.907 77.0707 162.991 76.7527 163.045C76.4347 163.099 76.1107 163.126 75.7807 163.126C75.2107 163.126 74.6797 163.021 74.1877 162.811C73.7017 162.601 73.2787 162.298 72.9187 161.902C72.5587 161.5 72.2767 161.008 72.0727 160.426C71.8687 159.844 71.7667 159.181 71.7667 158.437C71.7667 157.759 71.8597 157.132 72.0457 156.556C72.2377 155.98 72.5137 155.485 72.8737 155.071C73.2397 154.651 73.6867 154.324 74.2147 154.09C74.7487 153.856 75.3607 153.739 76.0507 153.739C76.6927 153.739 77.2567 153.844 77.7427 154.054C78.2347 154.258 78.6697 154.549 79.0477 154.927L78.6247 155.503ZM85.8164 158.896C85.0784 158.92 84.4484 158.98 83.9264 159.076C83.4104 159.166 82.9874 159.286 82.6574 159.436C82.3334 159.586 82.0964 159.763 81.9464 159.967C81.8024 160.171 81.7304 160.399 81.7304 160.651C81.7304 160.891 81.7694 161.098 81.8474 161.272C81.9254 161.446 82.0304 161.59 82.1624 161.704C82.3004 161.812 82.4594 161.893 82.6394 161.947C82.8254 161.995 83.0234 162.019 83.2334 162.019C83.5154 162.019 83.7734 161.992 84.0074 161.938C84.2414 161.878 84.4604 161.794 84.6644 161.686C84.8744 161.578 85.0724 161.449 85.2584 161.299C85.4504 161.149 85.6364 160.978 85.8164 160.786V158.896ZM80.6414 155.17C81.1454 154.684 81.6884 154.321 82.2704 154.081C82.8524 153.841 83.4974 153.721 84.2054 153.721C84.7154 153.721 85.1684 153.805 85.5644 153.973C85.9604 154.141 86.2934 154.375 86.5634 154.675C86.8334 154.975 87.0374 155.338 87.1754 155.764C87.3134 156.19 87.3824 156.658 87.3824 157.168V163H86.6714C86.5154 163 86.3954 162.976 86.3114 162.928C86.2274 162.874 86.1614 162.772 86.1134 162.622L85.9334 161.758C85.6934 161.98 85.4594 162.178 85.2314 162.352C85.0034 162.52 84.7634 162.664 84.5114 162.784C84.2594 162.898 83.9894 162.985 83.7014 163.045C83.4194 163.111 83.1044 163.144 82.7564 163.144C82.4024 163.144 82.0694 163.096 81.7574 163C81.4454 162.898 81.1724 162.748 80.9384 162.55C80.7104 162.352 80.5274 162.103 80.3894 161.803C80.2574 161.497 80.1914 161.137 80.1914 160.723C80.1914 160.363 80.2904 160.018 80.4884 159.688C80.6864 159.352 81.0074 159.055 81.4514 158.797C81.8954 158.539 82.4744 158.329 83.1884 158.167C83.9024 157.999 84.7784 157.903 85.8164 157.879V157.168C85.8164 156.46 85.6634 155.926 85.3574 155.566C85.0514 155.2 84.6044 155.017 84.0164 155.017C83.6204 155.017 83.2874 155.068 83.0174 155.17C82.7534 155.266 82.5224 155.377 82.3244 155.503C82.1324 155.623 81.9644 155.734 81.8204 155.836C81.6824 155.932 81.5444 155.98 81.4064 155.98C81.2984 155.98 81.2054 155.953 81.1274 155.899C81.0494 155.839 80.9834 155.767 80.9294 155.683L80.6414 155.17ZM91.3437 155.71C91.6317 155.086 91.9857 154.6 92.4057 154.252C92.8257 153.898 93.3387 153.721 93.9447 153.721C94.1367 153.721 94.3197 153.742 94.4937 153.784C94.6737 153.826 94.8327 153.892 94.9707 153.982L94.8537 155.179C94.8177 155.329 94.7277 155.404 94.5837 155.404C94.4997 155.404 94.3767 155.386 94.2147 155.35C94.0527 155.314 93.8697 155.296 93.6657 155.296C93.3777 155.296 93.1197 155.338 92.8917 155.422C92.6697 155.506 92.4687 155.632 92.2887 155.8C92.1147 155.962 91.9557 156.166 91.8117 156.412C91.6737 156.652 91.5477 156.928 91.4337 157.24V163H89.8227V153.883H90.7407C90.9147 153.883 91.0347 153.916 91.1007 153.982C91.1667 154.048 91.2117 154.162 91.2357 154.324L91.3437 155.71ZM101.968 156.052C101.668 155.65 101.344 155.371 100.996 155.215C100.648 155.053 100.258 154.972 99.8258 154.972C98.9798 154.972 98.3288 155.275 97.8728 155.881C97.4168 156.487 97.1888 157.351 97.1888 158.473C97.1888 159.067 97.2398 159.577 97.3418 160.003C97.4438 160.423 97.5938 160.771 97.7918 161.047C97.9898 161.317 98.2328 161.515 98.5208 161.641C98.8088 161.767 99.1358 161.83 99.5018 161.83C100.03 161.83 100.489 161.71 100.879 161.47C101.275 161.23 101.638 160.891 101.968 160.453V156.052ZM103.57 149.743V163H102.616C102.388 163 102.244 162.889 102.184 162.667L102.04 161.56C101.65 162.028 101.206 162.406 100.708 162.694C100.21 162.982 99.6338 163.126 98.9798 163.126C98.4578 163.126 97.9838 163.027 97.5578 162.829C97.1318 162.625 96.7688 162.328 96.4688 161.938C96.1688 161.548 95.9378 161.062 95.7758 160.48C95.6138 159.898 95.5328 159.229 95.5328 158.473C95.5328 157.801 95.6228 157.177 95.8028 156.601C95.9828 156.019 96.2408 155.515 96.5768 155.089C96.9128 154.663 97.3238 154.33 97.8098 154.09C98.3018 153.844 98.8538 153.721 99.4658 153.721C100.024 153.721 100.501 153.817 100.897 154.009C101.299 154.195 101.656 154.456 101.968 154.792V149.743H103.57ZM114.549 153.739C115.215 153.739 115.815 153.85 116.349 154.072C116.883 154.294 117.339 154.609 117.717 155.017C118.095 155.425 118.383 155.92 118.581 156.502C118.785 157.078 118.887 157.723 118.887 158.437C118.887 159.157 118.785 159.805 118.581 160.381C118.383 160.957 118.095 161.449 117.717 161.857C117.339 162.265 116.883 162.58 116.349 162.802C115.815 163.018 115.215 163.126 114.549 163.126C113.877 163.126 113.271 163.018 112.731 162.802C112.197 162.58 111.741 162.265 111.363 161.857C110.985 161.449 110.694 160.957 110.49 160.381C110.292 159.805 110.193 159.157 110.193 158.437C110.193 157.723 110.292 157.078 110.49 156.502C110.694 155.92 110.985 155.425 111.363 155.017C111.741 154.609 112.197 154.294 112.731 154.072C113.271 153.85 113.877 153.739 114.549 153.739ZM114.549 161.875C115.449 161.875 116.121 161.575 116.565 160.975C117.009 160.369 117.231 159.526 117.231 158.446C117.231 157.36 117.009 156.514 116.565 155.908C116.121 155.302 115.449 154.999 114.549 154.999C114.093 154.999 113.694 155.077 113.352 155.233C113.016 155.389 112.734 155.614 112.506 155.908C112.284 156.202 112.116 156.565 112.002 156.997C111.894 157.423 111.84 157.906 111.84 158.446C111.84 159.526 112.062 160.369 112.506 160.975C112.956 161.575 113.637 161.875 114.549 161.875ZM122.43 155.206C122.628 154.984 122.838 154.783 123.06 154.603C123.282 154.423 123.516 154.27 123.762 154.144C124.014 154.012 124.278 153.913 124.554 153.847C124.836 153.775 125.139 153.739 125.463 153.739C125.961 153.739 126.399 153.823 126.777 153.991C127.161 154.153 127.479 154.387 127.731 154.693C127.989 154.993 128.184 155.356 128.316 155.782C128.448 156.208 128.514 156.679 128.514 157.195V163H126.903V157.195C126.903 156.505 126.744 155.971 126.426 155.593C126.114 155.209 125.637 155.017 124.995 155.017C124.521 155.017 124.077 155.131 123.663 155.359C123.255 155.587 122.877 155.896 122.529 156.286V163H120.918V153.883H121.881C122.109 153.883 122.25 153.994 122.304 154.216L122.43 155.206ZM136.173 163V155.251L135.165 155.134C135.033 155.104 134.928 155.059 134.85 154.999C134.772 154.933 134.733 154.84 134.733 154.72V154.063H136.173V153.559C136.173 153.001 136.26 152.491 136.434 152.029C136.608 151.561 136.869 151.159 137.217 150.823C137.565 150.487 137.997 150.226 138.513 150.04C139.035 149.854 139.638 149.761 140.322 149.761C140.55 149.761 140.784 149.776 141.024 149.806C141.264 149.836 141.471 149.881 141.645 149.941L141.582 150.778C141.576 150.838 141.552 150.88 141.51 150.904C141.474 150.928 141.423 150.943 141.357 150.949C141.291 150.955 141.207 150.958 141.105 150.958C141.009 150.952 140.898 150.949 140.772 150.949C139.704 150.949 138.93 151.171 138.45 151.615C137.97 152.053 137.73 152.716 137.73 153.604V154.063H143.238V163H141.627V155.224H137.775V163H136.173ZM147.518 149.743V163H145.916V149.743H147.518ZM156.218 157.447C156.218 157.075 156.164 156.736 156.056 156.43C155.954 156.118 155.801 155.851 155.597 155.629C155.399 155.401 155.156 155.227 154.868 155.107C154.58 154.981 154.253 154.918 153.887 154.918C153.119 154.918 152.51 155.143 152.06 155.593C151.616 156.037 151.34 156.655 151.232 157.447H156.218ZM157.514 161.722C157.316 161.962 157.079 162.172 156.803 162.352C156.527 162.526 156.23 162.67 155.912 162.784C155.6 162.898 155.276 162.982 154.94 163.036C154.604 163.096 154.271 163.126 153.941 163.126C153.311 163.126 152.729 163.021 152.195 162.811C151.667 162.595 151.208 162.283 150.818 161.875C150.434 161.461 150.134 160.951 149.918 160.345C149.702 159.739 149.594 159.043 149.594 158.257C149.594 157.621 149.69 157.027 149.882 156.475C150.08 155.923 150.362 155.446 150.728 155.044C151.094 154.636 151.541 154.318 152.069 154.09C152.597 153.856 153.191 153.739 153.851 153.739C154.397 153.739 154.901 153.832 155.363 154.018C155.831 154.198 156.233 154.462 156.569 154.81C156.911 155.152 157.178 155.578 157.37 156.088C157.562 156.592 157.658 157.168 157.658 157.816C157.658 158.068 157.631 158.236 157.577 158.32C157.523 158.404 157.421 158.446 157.271 158.446H151.178C151.196 159.022 151.274 159.523 151.412 159.949C151.556 160.375 151.754 160.732 152.006 161.02C152.258 161.302 152.558 161.515 152.906 161.659C153.254 161.797 153.644 161.866 154.076 161.866C154.478 161.866 154.823 161.821 155.111 161.731C155.405 161.635 155.657 161.533 155.867 161.425C156.077 161.317 156.251 161.218 156.389 161.128C156.533 161.032 156.656 160.984 156.758 160.984C156.89 160.984 156.992 161.035 157.064 161.137L157.514 161.722ZM169.172 158.896C168.434 158.92 167.804 158.98 167.282 159.076C166.766 159.166 166.343 159.286 166.013 159.436C165.689 159.586 165.452 159.763 165.302 159.967C165.158 160.171 165.086 160.399 165.086 160.651C165.086 160.891 165.125 161.098 165.203 161.272C165.281 161.446 165.386 161.59 165.518 161.704C165.656 161.812 165.815 161.893 165.995 161.947C166.181 161.995 166.379 162.019 166.589 162.019C166.871 162.019 167.129 161.992 167.363 161.938C167.597 161.878 167.816 161.794 168.02 161.686C168.23 161.578 168.428 161.449 168.614 161.299C168.806 161.149 168.992 160.978 169.172 160.786V158.896ZM163.997 155.17C164.501 154.684 165.044 154.321 165.626 154.081C166.208 153.841 166.853 153.721 167.561 153.721C168.071 153.721 168.524 153.805 168.92 153.973C169.316 154.141 169.649 154.375 169.919 154.675C170.189 154.975 170.393 155.338 170.531 155.764C170.669 156.19 170.738 156.658 170.738 157.168V163H170.027C169.871 163 169.751 162.976 169.667 162.928C169.583 162.874 169.517 162.772 169.469 162.622L169.289 161.758C169.049 161.98 168.815 162.178 168.587 162.352C168.359 162.52 168.119 162.664 167.867 162.784C167.615 162.898 167.345 162.985 167.057 163.045C166.775 163.111 166.46 163.144 166.112 163.144C165.758 163.144 165.425 163.096 165.113 163C164.801 162.898 164.528 162.748 164.294 162.55C164.066 162.352 163.883 162.103 163.745 161.803C163.613 161.497 163.547 161.137 163.547 160.723C163.547 160.363 163.646 160.018 163.844 159.688C164.042 159.352 164.363 159.055 164.807 158.797C165.251 158.539 165.83 158.329 166.544 158.167C167.258 157.999 168.134 157.903 169.172 157.879V157.168C169.172 156.46 169.019 155.926 168.713 155.566C168.407 155.2 167.96 155.017 167.372 155.017C166.976 155.017 166.643 155.068 166.373 155.17C166.109 155.266 165.878 155.377 165.68 155.503C165.488 155.623 165.32 155.734 165.176 155.836C165.038 155.932 164.9 155.98 164.762 155.98C164.654 155.98 164.561 155.953 164.483 155.899C164.405 155.839 164.339 155.767 164.285 155.683L163.997 155.17ZM174.69 155.206C174.888 154.984 175.098 154.783 175.32 154.603C175.542 154.423 175.776 154.27 176.022 154.144C176.274 154.012 176.538 153.913 176.814 153.847C177.096 153.775 177.399 153.739 177.723 153.739C178.221 153.739 178.659 153.823 179.037 153.991C179.421 154.153 179.739 154.387 179.991 154.693C180.249 154.993 180.444 155.356 180.576 155.782C180.708 156.208 180.774 156.679 180.774 157.195V163H179.163V157.195C179.163 156.505 179.004 155.971 178.686 155.593C178.374 155.209 177.897 155.017 177.255 155.017C176.781 155.017 176.337 155.131 175.923 155.359C175.515 155.587 175.137 155.896 174.789 156.286V163H173.178V153.883H174.141C174.369 153.883 174.51 153.994 174.564 154.216L174.69 155.206ZM189.155 156.052C188.855 155.65 188.531 155.371 188.183 155.215C187.835 155.053 187.445 154.972 187.013 154.972C186.167 154.972 185.516 155.275 185.06 155.881C184.604 156.487 184.376 157.351 184.376 158.473C184.376 159.067 184.427 159.577 184.529 160.003C184.631 160.423 184.781 160.771 184.979 161.047C185.177 161.317 185.42 161.515 185.708 161.641C185.996 161.767 186.323 161.83 186.689 161.83C187.217 161.83 187.676 161.71 188.066 161.47C188.462 161.23 188.825 160.891 189.155 160.453V156.052ZM190.757 149.743V163H189.803C189.575 163 189.431 162.889 189.371 162.667L189.227 161.56C188.837 162.028 188.393 162.406 187.895 162.694C187.397 162.982 186.821 163.126 186.167 163.126C185.645 163.126 185.171 163.027 184.745 162.829C184.319 162.625 183.956 162.328 183.656 161.938C183.356 161.548 183.125 161.062 182.963 160.48C182.801 159.898 182.72 159.229 182.72 158.473C182.72 157.801 182.81 157.177 182.99 156.601C183.17 156.019 183.428 155.515 183.764 155.089C184.1 154.663 184.511 154.33 184.997 154.09C185.489 153.844 186.041 153.721 186.653 153.721C187.211 153.721 187.688 153.817 188.084 154.009C188.486 154.195 188.843 154.456 189.155 154.792V149.743H190.757ZM199.504 160.804C199.798 161.2 200.119 161.479 200.467 161.641C200.815 161.803 201.205 161.884 201.637 161.884C202.489 161.884 203.143 161.581 203.599 160.975C204.055 160.369 204.283 159.505 204.283 158.383C204.283 157.789 204.229 157.279 204.121 156.853C204.019 156.427 203.869 156.079 203.671 155.809C203.473 155.533 203.23 155.332 202.942 155.206C202.654 155.08 202.327 155.017 201.961 155.017C201.439 155.017 200.98 155.137 200.584 155.377C200.194 155.617 199.834 155.956 199.504 156.394V160.804ZM199.423 155.296C199.807 154.822 200.251 154.441 200.755 154.153C201.259 153.865 201.835 153.721 202.483 153.721C203.011 153.721 203.488 153.823 203.914 154.027C204.34 154.225 204.703 154.522 205.003 154.918C205.303 155.308 205.534 155.794 205.696 156.376C205.858 156.958 205.939 157.627 205.939 158.383C205.939 159.055 205.849 159.682 205.669 160.264C205.489 160.84 205.228 161.341 204.886 161.767C204.55 162.187 204.136 162.52 203.644 162.766C203.158 163.006 202.609 163.126 201.997 163.126C201.439 163.126 200.959 163.033 200.557 162.847C200.161 162.655 199.81 162.391 199.504 162.055V166.087H197.893V153.883H198.856C199.084 153.883 199.225 153.994 199.279 154.216L199.423 155.296ZM212.924 158.896C212.186 158.92 211.556 158.98 211.034 159.076C210.518 159.166 210.095 159.286 209.765 159.436C209.441 159.586 209.204 159.763 209.054 159.967C208.91 160.171 208.838 160.399 208.838 160.651C208.838 160.891 208.877 161.098 208.955 161.272C209.033 161.446 209.138 161.59 209.27 161.704C209.408 161.812 209.567 161.893 209.747 161.947C209.933 161.995 210.131 162.019 210.341 162.019C210.623 162.019 210.881 161.992 211.115 161.938C211.349 161.878 211.568 161.794 211.772 161.686C211.982 161.578 212.18 161.449 212.366 161.299C212.558 161.149 212.744 160.978 212.924 160.786V158.896ZM207.749 155.17C208.253 154.684 208.796 154.321 209.378 154.081C209.96 153.841 210.605 153.721 211.313 153.721C211.823 153.721 212.276 153.805 212.672 153.973C213.068 154.141 213.401 154.375 213.671 154.675C213.941 154.975 214.145 155.338 214.283 155.764C214.421 156.19 214.49 156.658 214.49 157.168V163H213.779C213.623 163 213.503 162.976 213.419 162.928C213.335 162.874 213.269 162.772 213.221 162.622L213.041 161.758C212.801 161.98 212.567 162.178 212.339 162.352C212.111 162.52 211.871 162.664 211.619 162.784C211.367 162.898 211.097 162.985 210.809 163.045C210.527 163.111 210.212 163.144 209.864 163.144C209.51 163.144 209.177 163.096 208.865 163C208.553 162.898 208.28 162.748 208.046 162.55C207.818 162.352 207.635 162.103 207.497 161.803C207.365 161.497 207.299 161.137 207.299 160.723C207.299 160.363 207.398 160.018 207.596 159.688C207.794 159.352 208.115 159.055 208.559 158.797C209.003 158.539 209.582 158.329 210.296 158.167C211.01 157.999 211.886 157.903 212.924 157.879V157.168C212.924 156.46 212.771 155.926 212.465 155.566C212.159 155.2 211.712 155.017 211.124 155.017C210.728 155.017 210.395 155.068 210.125 155.17C209.861 155.266 209.63 155.377 209.432 155.503C209.24 155.623 209.072 155.734 208.928 155.836C208.79 155.932 208.652 155.98 208.514 155.98C208.406 155.98 208.313 155.953 208.235 155.899C208.157 155.839 208.091 155.767 208.037 155.683L207.749 155.17ZM224.585 153.883L219.5 165.691C219.446 165.811 219.377 165.907 219.293 165.979C219.215 166.051 219.092 166.087 218.924 166.087H217.736L219.401 162.469L215.639 153.883H217.025C217.163 153.883 217.271 153.919 217.349 153.991C217.433 154.057 217.49 154.132 217.52 154.216L219.959 159.958C220.055 160.21 220.136 160.474 220.202 160.75C220.286 160.468 220.376 160.201 220.472 159.949L222.839 154.216C222.875 154.12 222.935 154.042 223.019 153.982C223.109 153.916 223.208 153.883 223.316 153.883H224.585ZM21.5275 187.883L18.5755 197H17.3065C17.1505 197 17.0425 196.898 16.9825 196.694L14.9665 190.511C14.9185 190.373 14.8795 190.235 14.8495 190.097C14.8195 189.953 14.7895 189.812 14.7595 189.674C14.7295 189.812 14.6995 189.953 14.6695 190.097C14.6395 190.235 14.6005 190.376 14.5525 190.52L12.5005 196.694C12.4465 196.898 12.3265 197 12.1405 197H10.9345L7.98255 187.883H9.24255C9.36855 187.883 9.47355 187.916 9.55755 187.982C9.64755 188.048 9.70755 188.126 9.73755 188.216L11.4835 194.084C11.5855 194.516 11.6665 194.924 11.7265 195.308C11.7805 195.11 11.8345 194.909 11.8885 194.705C11.9485 194.501 12.0115 194.294 12.0775 194.084L14.0035 188.18C14.0335 188.09 14.0845 188.015 14.1565 187.955C14.2345 187.895 14.3275 187.865 14.4355 187.865H15.1375C15.2575 187.865 15.3565 187.895 15.4345 187.955C15.5125 188.015 15.5665 188.09 15.5965 188.18L17.4775 194.084C17.5435 194.294 17.6035 194.501 17.6575 194.705C17.7115 194.909 17.7625 195.11 17.8105 195.308C17.8405 195.11 17.8765 194.912 17.9185 194.714C17.9665 194.51 18.0175 194.3 18.0715 194.084L19.8535 188.216C19.8835 188.12 19.9405 188.042 20.0245 187.982C20.1085 187.916 20.2075 187.883 20.3215 187.883H21.5275ZM24.7794 187.883V197H23.1774V187.883H24.7794ZM25.1214 185.021C25.1214 185.177 25.0884 185.324 25.0224 185.462C24.9624 185.594 24.8784 185.714 24.7704 185.822C24.6684 185.924 24.5454 186.005 24.4014 186.065C24.2634 186.125 24.1164 186.155 23.9604 186.155C23.8044 186.155 23.6574 186.125 23.5194 186.065C23.3874 186.005 23.2704 185.924 23.1684 185.822C23.0664 185.714 22.9854 185.594 22.9254 185.462C22.8654 185.324 22.8354 185.177 22.8354 185.021C22.8354 184.865 22.8654 184.718 22.9254 184.58C22.9854 184.436 23.0664 184.313 23.1684 184.211C23.2704 184.103 23.3874 184.019 23.5194 183.959C23.6574 183.899 23.8044 183.869 23.9604 183.869C24.1164 183.869 24.2634 183.899 24.4014 183.959C24.5454 184.019 24.6684 184.103 24.7704 184.211C24.8784 184.313 24.9624 184.436 25.0224 184.58C25.0884 184.718 25.1214 184.865 25.1214 185.021ZM30.2106 197.144C29.4906 197.144 28.9356 196.943 28.5456 196.541C28.1616 196.139 27.9696 195.56 27.9696 194.804V189.224H26.8716C26.7756 189.224 26.6946 189.197 26.6286 189.143C26.5626 189.083 26.5296 188.993 26.5296 188.873V188.234L28.0236 188.045L28.3926 185.228C28.4106 185.138 28.4496 185.066 28.5096 185.012C28.5756 184.952 28.6596 184.922 28.7616 184.922H29.5716V188.063H32.2086V189.224H29.5716V194.696C29.5716 195.08 29.6646 195.365 29.8506 195.551C30.0366 195.737 30.2766 195.83 30.5706 195.83C30.7386 195.83 30.8826 195.809 31.0026 195.767C31.1286 195.719 31.2366 195.668 31.3266 195.614C31.4166 195.56 31.4916 195.512 31.5516 195.47C31.6176 195.422 31.6746 195.398 31.7226 195.398C31.8066 195.398 31.8816 195.449 31.9476 195.551L32.4156 196.316C32.1396 196.574 31.8066 196.778 31.4166 196.928C31.0266 197.072 30.6246 197.144 30.2106 197.144ZM35.4738 189.098C35.8638 188.684 36.2958 188.354 36.7698 188.108C37.2438 187.862 37.7898 187.739 38.4078 187.739C38.9058 187.739 39.3438 187.823 39.7218 187.991C40.1058 188.153 40.4238 188.387 40.6758 188.693C40.9338 188.993 41.1288 189.356 41.2608 189.782C41.3928 190.208 41.4588 190.679 41.4588 191.195V197H39.8478V191.195C39.8478 190.505 39.6888 189.971 39.3708 189.593C39.0588 189.209 38.5818 189.017 37.9398 189.017C37.4658 189.017 37.0218 189.131 36.6078 189.359C36.1998 189.587 35.8218 189.896 35.4738 190.286V197H33.8628V183.743H35.4738V189.098ZM47.7429 187.739C48.4089 187.739 49.0089 187.85 49.5429 188.072C50.0769 188.294 50.5329 188.609 50.9109 189.017C51.2889 189.425 51.5769 189.92 51.7749 190.502C51.9789 191.078 52.0809 191.723 52.0809 192.437C52.0809 193.157 51.9789 193.805 51.7749 194.381C51.5769 194.957 51.2889 195.449 50.9109 195.857C50.5329 196.265 50.0769 196.58 49.5429 196.802C49.0089 197.018 48.4089 197.126 47.7429 197.126C47.0709 197.126 46.4649 197.018 45.9249 196.802C45.3909 196.58 44.9349 196.265 44.5569 195.857C44.1789 195.449 43.8879 194.957 43.6839 194.381C43.4859 193.805 43.3869 193.157 43.3869 192.437C43.3869 191.723 43.4859 191.078 43.6839 190.502C43.8879 189.92 44.1789 189.425 44.5569 189.017C44.9349 188.609 45.3909 188.294 45.9249 188.072C46.4649 187.85 47.0709 187.739 47.7429 187.739ZM47.7429 195.875C48.6429 195.875 49.3149 195.575 49.7589 194.975C50.2029 194.369 50.4249 193.526 50.4249 192.446C50.4249 191.36 50.2029 190.514 49.7589 189.908C49.3149 189.302 48.6429 188.999 47.7429 188.999C47.2869 188.999 46.8879 189.077 46.5459 189.233C46.2099 189.389 45.9279 189.614 45.6999 189.908C45.4779 190.202 45.3099 190.565 45.1959 190.997C45.0879 191.423 45.0339 191.906 45.0339 192.446C45.0339 193.526 45.2559 194.369 45.6999 194.975C46.1499 195.575 46.8309 195.875 47.7429 195.875ZM61.6098 187.883V197H60.6558C60.4278 197 60.2838 196.889 60.2238 196.667L60.0978 195.686C59.7018 196.124 59.2578 196.478 58.7658 196.748C58.2738 197.012 57.7098 197.144 57.0738 197.144C56.5758 197.144 56.1348 197.063 55.7508 196.901C55.3728 196.733 55.0548 196.499 54.7968 196.199C54.5388 195.899 54.3438 195.536 54.2118 195.11C54.0858 194.684 54.0228 194.213 54.0228 193.697V187.883H55.6248V193.697C55.6248 194.387 55.7808 194.921 56.0928 195.299C56.4108 195.677 56.8938 195.866 57.5418 195.866C58.0158 195.866 58.4568 195.755 58.8648 195.533C59.2788 195.305 59.6598 194.993 60.0078 194.597V187.883H61.6098ZM66.9489 197.144C66.2289 197.144 65.6739 196.943 65.2839 196.541C64.8999 196.139 64.7079 195.56 64.7079 194.804V189.224H63.6099C63.5139 189.224 63.4329 189.197 63.3669 189.143C63.3009 189.083 63.2679 188.993 63.2679 188.873V188.234L64.7619 188.045L65.1309 185.228C65.1489 185.138 65.1879 185.066 65.2479 185.012C65.3139 184.952 65.3979 184.922 65.4999 184.922H66.3099V188.063H68.9469V189.224H66.3099V194.696C66.3099 195.08 66.4029 195.365 66.5889 195.551C66.7749 195.737 67.0149 195.83 67.3089 195.83C67.4769 195.83 67.6209 195.809 67.7409 195.767C67.8669 195.719 67.9749 195.668 68.0649 195.614C68.1549 195.56 68.2299 195.512 68.2899 195.47C68.3559 195.422 68.4129 195.398 68.4609 195.398C68.5449 195.398 68.6199 195.449 68.6859 195.551L69.1539 196.316C68.8779 196.574 68.5449 196.778 68.1549 196.928C67.7649 197.072 67.3629 197.144 66.9489 197.144ZM76.7185 189.206C76.9165 188.984 77.1265 188.783 77.3485 188.603C77.5705 188.423 77.8045 188.27 78.0505 188.144C78.3025 188.012 78.5665 187.913 78.8425 187.847C79.1245 187.775 79.4275 187.739 79.7515 187.739C80.2495 187.739 80.6875 187.823 81.0655 187.991C81.4495 188.153 81.7675 188.387 82.0195 188.693C82.2775 188.993 82.4725 189.356 82.6045 189.782C82.7365 190.208 82.8025 190.679 82.8025 191.195V197H81.1915V191.195C81.1915 190.505 81.0325 189.971 80.7145 189.593C80.4025 189.209 79.9255 189.017 79.2835 189.017C78.8095 189.017 78.3655 189.131 77.9515 189.359C77.5435 189.587 77.1655 189.896 76.8175 190.286V197H75.2065V187.883H76.1695C76.3975 187.883 76.5385 187.994 76.5925 188.216L76.7185 189.206ZM91.3456 191.447C91.3456 191.075 91.2916 190.736 91.1836 190.43C91.0816 190.118 90.9286 189.851 90.7246 189.629C90.5266 189.401 90.2836 189.227 89.9956 189.107C89.7076 188.981 89.3806 188.918 89.0146 188.918C88.2466 188.918 87.6376 189.143 87.1876 189.593C86.7436 190.037 86.4676 190.655 86.3596 191.447H91.3456ZM92.6416 195.722C92.4436 195.962 92.2066 196.172 91.9306 196.352C91.6546 196.526 91.3576 196.67 91.0396 196.784C90.7276 196.898 90.4036 196.982 90.0676 197.036C89.7316 197.096 89.3986 197.126 89.0686 197.126C88.4386 197.126 87.8566 197.021 87.3226 196.811C86.7946 196.595 86.3356 196.283 85.9456 195.875C85.5616 195.461 85.2616 194.951 85.0456 194.345C84.8296 193.739 84.7216 193.043 84.7216 192.257C84.7216 191.621 84.8176 191.027 85.0096 190.475C85.2076 189.923 85.4896 189.446 85.8556 189.044C86.2216 188.636 86.6686 188.318 87.1966 188.09C87.7246 187.856 88.3186 187.739 88.9786 187.739C89.5246 187.739 90.0286 187.832 90.4906 188.018C90.9586 188.198 91.3606 188.462 91.6966 188.81C92.0386 189.152 92.3056 189.578 92.4976 190.088C92.6896 190.592 92.7856 191.168 92.7856 191.816C92.7856 192.068 92.7586 192.236 92.7046 192.32C92.6506 192.404 92.5486 192.446 92.3986 192.446H86.3056C86.3236 193.022 86.4016 193.523 86.5396 193.949C86.6836 194.375 86.8816 194.732 87.1336 195.02C87.3856 195.302 87.6856 195.515 88.0336 195.659C88.3816 195.797 88.7716 195.866 89.2036 195.866C89.6056 195.866 89.9506 195.821 90.2386 195.731C90.5326 195.635 90.7846 195.533 90.9946 195.425C91.2046 195.317 91.3786 195.218 91.5166 195.128C91.6606 195.032 91.7836 194.984 91.8856 194.984C92.0176 194.984 92.1196 195.035 92.1916 195.137L92.6416 195.722ZM100.855 191.447C100.855 191.075 100.801 190.736 100.693 190.43C100.591 190.118 100.438 189.851 100.234 189.629C100.036 189.401 99.7934 189.227 99.5054 189.107C99.2174 188.981 98.8904 188.918 98.5244 188.918C97.7564 188.918 97.1474 189.143 96.6974 189.593C96.2534 190.037 95.9774 190.655 95.8694 191.447H100.855ZM102.151 195.722C101.953 195.962 101.716 196.172 101.44 196.352C101.164 196.526 100.867 196.67 100.549 196.784C100.237 196.898 99.9134 196.982 99.5774 197.036C99.2414 197.096 98.9084 197.126 98.5784 197.126C97.9484 197.126 97.3664 197.021 96.8324 196.811C96.3044 196.595 95.8454 196.283 95.4554 195.875C95.0714 195.461 94.7714 194.951 94.5554 194.345C94.3394 193.739 94.2314 193.043 94.2314 192.257C94.2314 191.621 94.3274 191.027 94.5194 190.475C94.7174 189.923 94.9994 189.446 95.3654 189.044C95.7314 188.636 96.1784 188.318 96.7064 188.09C97.2344 187.856 97.8284 187.739 98.4884 187.739C99.0344 187.739 99.5384 187.832 100 188.018C100.468 188.198 100.87 188.462 101.206 188.81C101.548 189.152 101.815 189.578 102.007 190.088C102.199 190.592 102.295 191.168 102.295 191.816C102.295 192.068 102.268 192.236 102.214 192.32C102.16 192.404 102.058 192.446 101.908 192.446H95.8154C95.8334 193.022 95.9114 193.523 96.0494 193.949C96.1934 194.375 96.3914 194.732 96.6434 195.02C96.8954 195.302 97.1954 195.515 97.5434 195.659C97.8914 195.797 98.2814 195.866 98.7134 195.866C99.1154 195.866 99.4604 195.821 99.7484 195.731C100.042 195.635 100.294 195.533 100.504 195.425C100.714 195.317 100.888 195.218 101.026 195.128C101.17 195.032 101.293 194.984 101.395 194.984C101.527 194.984 101.629 195.035 101.701 195.137L102.151 195.722ZM110.203 190.052C109.903 189.65 109.579 189.371 109.231 189.215C108.883 189.053 108.493 188.972 108.061 188.972C107.215 188.972 106.564 189.275 106.108 189.881C105.652 190.487 105.424 191.351 105.424 192.473C105.424 193.067 105.475 193.577 105.577 194.003C105.679 194.423 105.829 194.771 106.027 195.047C106.225 195.317 106.468 195.515 106.756 195.641C107.044 195.767 107.371 195.83 107.737 195.83C108.265 195.83 108.724 195.71 109.114 195.47C109.51 195.23 109.873 194.891 110.203 194.453V190.052ZM111.805 183.743V197H110.851C110.623 197 110.479 196.889 110.419 196.667L110.275 195.56C109.885 196.028 109.441 196.406 108.943 196.694C108.445 196.982 107.869 197.126 107.215 197.126C106.693 197.126 106.219 197.027 105.793 196.829C105.367 196.625 105.004 196.328 104.704 195.938C104.404 195.548 104.173 195.062 104.011 194.48C103.849 193.898 103.768 193.229 103.768 192.473C103.768 191.801 103.858 191.177 104.038 190.601C104.218 190.019 104.476 189.515 104.812 189.089C105.148 188.663 105.559 188.33 106.045 188.09C106.537 187.844 107.089 187.721 107.701 187.721C108.259 187.721 108.736 187.817 109.132 188.009C109.534 188.195 109.891 188.456 110.203 188.792V183.743H111.805ZM116.027 187.883V197H114.425V187.883H116.027ZM116.369 185.021C116.369 185.177 116.336 185.324 116.27 185.462C116.21 185.594 116.126 185.714 116.018 185.822C115.916 185.924 115.793 186.005 115.649 186.065C115.511 186.125 115.364 186.155 115.208 186.155C115.052 186.155 114.905 186.125 114.767 186.065C114.635 186.005 114.518 185.924 114.416 185.822C114.314 185.714 114.233 185.594 114.173 185.462C114.113 185.324 114.083 185.177 114.083 185.021C114.083 184.865 114.113 184.718 114.173 184.58C114.233 184.436 114.314 184.313 114.416 184.211C114.518 184.103 114.635 184.019 114.767 183.959C114.905 183.899 115.052 183.869 115.208 183.869C115.364 183.869 115.511 183.899 115.649 183.959C115.793 184.019 115.916 184.103 116.018 184.211C116.126 184.313 116.21 184.436 116.27 184.58C116.336 184.718 116.369 184.865 116.369 185.021ZM120.172 189.206C120.37 188.984 120.58 188.783 120.802 188.603C121.024 188.423 121.258 188.27 121.504 188.144C121.756 188.012 122.02 187.913 122.296 187.847C122.578 187.775 122.881 187.739 123.205 187.739C123.703 187.739 124.141 187.823 124.519 187.991C124.903 188.153 125.221 188.387 125.473 188.693C125.731 188.993 125.926 189.356 126.058 189.782C126.19 190.208 126.256 190.679 126.256 191.195V197H124.645V191.195C124.645 190.505 124.486 189.971 124.168 189.593C123.856 189.209 123.379 189.017 122.737 189.017C122.263 189.017 121.819 189.131 121.405 189.359C120.997 189.587 120.619 189.896 120.271 190.286V197H118.66V187.883H119.623C119.851 187.883 119.992 187.994 120.046 188.216L120.172 189.206ZM131.874 192.545C132.198 192.545 132.483 192.5 132.729 192.41C132.975 192.32 133.182 192.194 133.35 192.032C133.518 191.87 133.644 191.678 133.728 191.456C133.812 191.228 133.854 190.979 133.854 190.709C133.854 190.151 133.683 189.707 133.341 189.377C133.005 189.047 132.516 188.882 131.874 188.882C131.226 188.882 130.731 189.047 130.389 189.377C130.053 189.707 129.885 190.151 129.885 190.709C129.885 190.979 129.927 191.228 130.011 191.456C130.101 191.678 130.23 191.87 130.398 192.032C130.566 192.194 130.773 192.32 131.019 192.41C131.265 192.5 131.55 192.545 131.874 192.545ZM134.763 197.495C134.763 197.273 134.7 197.093 134.574 196.955C134.448 196.817 134.277 196.709 134.061 196.631C133.851 196.553 133.605 196.499 133.323 196.469C133.041 196.433 132.741 196.406 132.423 196.388C132.111 196.37 131.793 196.352 131.469 196.334C131.145 196.316 130.833 196.286 130.533 196.244C130.197 196.4 129.921 196.598 129.705 196.838C129.495 197.072 129.39 197.348 129.39 197.666C129.39 197.87 129.441 198.059 129.543 198.233C129.651 198.413 129.813 198.566 130.029 198.692C130.245 198.824 130.515 198.926 130.839 198.998C131.169 199.076 131.556 199.115 132 199.115C132.432 199.115 132.819 199.076 133.161 198.998C133.503 198.92 133.791 198.809 134.025 198.665C134.265 198.521 134.448 198.35 134.574 198.152C134.7 197.954 134.763 197.735 134.763 197.495ZM136.392 188.243V188.837C136.392 189.035 136.266 189.161 136.014 189.215L134.979 189.35C135.183 189.746 135.285 190.184 135.285 190.664C135.285 191.108 135.198 191.513 135.024 191.879C134.856 192.239 134.622 192.548 134.322 192.806C134.022 193.064 133.662 193.262 133.242 193.4C132.822 193.538 132.366 193.607 131.874 193.607C131.448 193.607 131.046 193.556 130.668 193.454C130.476 193.574 130.329 193.703 130.227 193.841C130.125 193.973 130.074 194.108 130.074 194.246C130.074 194.462 130.161 194.627 130.335 194.741C130.515 194.849 130.749 194.927 131.037 194.975C131.325 195.023 131.652 195.053 132.018 195.065C132.39 195.077 132.768 195.098 133.152 195.128C133.542 195.152 133.92 195.197 134.286 195.263C134.658 195.329 134.988 195.437 135.276 195.587C135.564 195.737 135.795 195.944 135.969 196.208C136.149 196.472 136.239 196.814 136.239 197.234C136.239 197.624 136.14 198.002 135.942 198.368C135.75 198.734 135.471 199.058 135.105 199.34C134.739 199.628 134.289 199.856 133.755 200.024C133.227 200.198 132.63 200.285 131.964 200.285C131.298 200.285 130.716 200.219 130.218 200.087C129.72 199.955 129.306 199.778 128.976 199.556C128.646 199.334 128.397 199.076 128.229 198.782C128.067 198.494 127.986 198.191 127.986 197.873C127.986 197.423 128.127 197.042 128.409 196.73C128.691 196.418 129.078 196.169 129.57 195.983C129.3 195.863 129.084 195.704 128.922 195.506C128.766 195.302 128.688 195.029 128.688 194.687C128.688 194.555 128.712 194.42 128.76 194.282C128.808 194.138 128.88 193.997 128.976 193.859C129.078 193.715 129.201 193.58 129.345 193.454C129.489 193.328 129.657 193.217 129.849 193.121C129.399 192.869 129.048 192.536 128.796 192.122C128.544 191.702 128.418 191.216 128.418 190.664C128.418 190.22 128.502 189.818 128.67 189.458C128.844 189.092 129.084 188.783 129.39 188.531C129.696 188.273 130.059 188.075 130.479 187.937C130.905 187.799 131.37 187.73 131.874 187.73C132.27 187.73 132.639 187.775 132.981 187.865C133.323 187.949 133.635 188.075 133.917 188.243H136.392ZM145.453 197.144C144.733 197.144 144.178 196.943 143.788 196.541C143.404 196.139 143.212 195.56 143.212 194.804V189.224H142.114C142.018 189.224 141.937 189.197 141.871 189.143C141.805 189.083 141.772 188.993 141.772 188.873V188.234L143.266 188.045L143.635 185.228C143.653 185.138 143.692 185.066 143.752 185.012C143.818 184.952 143.902 184.922 144.004 184.922H144.814V188.063H147.451V189.224H144.814V194.696C144.814 195.08 144.907 195.365 145.093 195.551C145.279 195.737 145.519 195.83 145.813 195.83C145.981 195.83 146.125 195.809 146.245 195.767C146.371 195.719 146.479 195.668 146.569 195.614C146.659 195.56 146.734 195.512 146.794 195.47C146.86 195.422 146.917 195.398 146.965 195.398C147.049 195.398 147.124 195.449 147.19 195.551L147.658 196.316C147.382 196.574 147.049 196.778 146.659 196.928C146.269 197.072 145.867 197.144 145.453 197.144ZM152.895 187.739C153.561 187.739 154.161 187.85 154.695 188.072C155.229 188.294 155.685 188.609 156.063 189.017C156.441 189.425 156.729 189.92 156.927 190.502C157.131 191.078 157.233 191.723 157.233 192.437C157.233 193.157 157.131 193.805 156.927 194.381C156.729 194.957 156.441 195.449 156.063 195.857C155.685 196.265 155.229 196.58 154.695 196.802C154.161 197.018 153.561 197.126 152.895 197.126C152.223 197.126 151.617 197.018 151.077 196.802C150.543 196.58 150.087 196.265 149.709 195.857C149.331 195.449 149.04 194.957 148.836 194.381C148.638 193.805 148.539 193.157 148.539 192.437C148.539 191.723 148.638 191.078 148.836 190.502C149.04 189.92 149.331 189.425 149.709 189.017C150.087 188.609 150.543 188.294 151.077 188.072C151.617 187.85 152.223 187.739 152.895 187.739ZM152.895 195.875C153.795 195.875 154.467 195.575 154.911 194.975C155.355 194.369 155.577 193.526 155.577 192.446C155.577 191.36 155.355 190.514 154.911 189.908C154.467 189.302 153.795 188.999 152.895 188.999C152.439 188.999 152.04 189.077 151.698 189.233C151.362 189.389 151.08 189.614 150.852 189.908C150.63 190.202 150.462 190.565 150.348 190.997C150.24 191.423 150.186 191.906 150.186 192.446C150.186 193.526 150.408 194.369 150.852 194.975C151.302 195.575 151.983 195.875 152.895 195.875ZM170.216 189.503C170.168 189.569 170.12 189.62 170.072 189.656C170.024 189.692 169.958 189.71 169.874 189.71C169.784 189.71 169.685 189.674 169.577 189.602C169.469 189.524 169.334 189.44 169.172 189.35C169.016 189.26 168.821 189.179 168.587 189.107C168.359 189.029 168.077 188.99 167.741 188.99C167.291 188.99 166.895 189.071 166.553 189.233C166.211 189.389 165.923 189.617 165.689 189.917C165.461 190.217 165.287 190.58 165.167 191.006C165.053 191.432 164.996 191.909 164.996 192.437C164.996 192.989 165.059 193.481 165.185 193.913C165.311 194.339 165.488 194.699 165.716 194.993C165.95 195.281 166.229 195.503 166.553 195.659C166.883 195.809 167.252 195.884 167.66 195.884C168.05 195.884 168.371 195.839 168.623 195.749C168.875 195.653 169.082 195.548 169.244 195.434C169.412 195.32 169.55 195.218 169.658 195.128C169.772 195.032 169.883 194.984 169.991 194.984C170.123 194.984 170.225 195.035 170.297 195.137L170.747 195.722C170.549 195.968 170.324 196.178 170.072 196.352C169.82 196.526 169.547 196.673 169.253 196.793C168.965 196.907 168.662 196.991 168.344 197.045C168.026 197.099 167.702 197.126 167.372 197.126C166.802 197.126 166.271 197.021 165.779 196.811C165.293 196.601 164.87 196.298 164.51 195.902C164.15 195.5 163.868 195.008 163.664 194.426C163.46 193.844 163.358 193.181 163.358 192.437C163.358 191.759 163.451 191.132 163.637 190.556C163.829 189.98 164.105 189.485 164.465 189.071C164.831 188.651 165.278 188.324 165.806 188.09C166.34 187.856 166.952 187.739 167.642 187.739C168.284 187.739 168.848 187.844 169.334 188.054C169.826 188.258 170.261 188.549 170.639 188.927L170.216 189.503ZM177.407 192.896C176.669 192.92 176.039 192.98 175.517 193.076C175.001 193.166 174.578 193.286 174.248 193.436C173.924 193.586 173.687 193.763 173.537 193.967C173.393 194.171 173.321 194.399 173.321 194.651C173.321 194.891 173.36 195.098 173.438 195.272C173.516 195.446 173.621 195.59 173.753 195.704C173.891 195.812 174.05 195.893 174.23 195.947C174.416 195.995 174.614 196.019 174.824 196.019C175.106 196.019 175.364 195.992 175.598 195.938C175.832 195.878 176.051 195.794 176.255 195.686C176.465 195.578 176.663 195.449 176.849 195.299C177.041 195.149 177.227 194.978 177.407 194.786V192.896ZM172.232 189.17C172.736 188.684 173.279 188.321 173.861 188.081C174.443 187.841 175.088 187.721 175.796 187.721C176.306 187.721 176.759 187.805 177.155 187.973C177.551 188.141 177.884 188.375 178.154 188.675C178.424 188.975 178.628 189.338 178.766 189.764C178.904 190.19 178.973 190.658 178.973 191.168V197H178.262C178.106 197 177.986 196.976 177.902 196.928C177.818 196.874 177.752 196.772 177.704 196.622L177.524 195.758C177.284 195.98 177.05 196.178 176.822 196.352C176.594 196.52 176.354 196.664 176.102 196.784C175.85 196.898 175.58 196.985 175.292 197.045C175.01 197.111 174.695 197.144 174.347 197.144C173.993 197.144 173.66 197.096 173.348 197C173.036 196.898 172.763 196.748 172.529 196.55C172.301 196.352 172.118 196.103 171.98 195.803C171.848 195.497 171.782 195.137 171.782 194.723C171.782 194.363 171.881 194.018 172.079 193.688C172.277 193.352 172.598 193.055 173.042 192.797C173.486 192.539 174.065 192.329 174.779 192.167C175.493 191.999 176.369 191.903 177.407 191.879V191.168C177.407 190.46 177.254 189.926 176.948 189.566C176.642 189.2 176.195 189.017 175.607 189.017C175.211 189.017 174.878 189.068 174.608 189.17C174.344 189.266 174.113 189.377 173.915 189.503C173.723 189.623 173.555 189.734 173.411 189.836C173.273 189.932 173.135 189.98 172.997 189.98C172.889 189.98 172.796 189.953 172.718 189.899C172.64 189.839 172.574 189.767 172.52 189.683L172.232 189.17ZM183.07 183.743V197H181.468V183.743H183.07ZM187.323 183.743V197H185.721V183.743H187.323ZM199.468 192.896C198.73 192.92 198.1 192.98 197.578 193.076C197.062 193.166 196.639 193.286 196.309 193.436C195.985 193.586 195.748 193.763 195.598 193.967C195.454 194.171 195.382 194.399 195.382 194.651C195.382 194.891 195.421 195.098 195.499 195.272C195.577 195.446 195.682 195.59 195.814 195.704C195.952 195.812 196.111 195.893 196.291 195.947C196.477 195.995 196.675 196.019 196.885 196.019C197.167 196.019 197.425 195.992 197.659 195.938C197.893 195.878 198.112 195.794 198.316 195.686C198.526 195.578 198.724 195.449 198.91 195.299C199.102 195.149 199.288 194.978 199.468 194.786V192.896ZM194.293 189.17C194.797 188.684 195.34 188.321 195.922 188.081C196.504 187.841 197.149 187.721 197.857 187.721C198.367 187.721 198.82 187.805 199.216 187.973C199.612 188.141 199.945 188.375 200.215 188.675C200.485 188.975 200.689 189.338 200.827 189.764C200.965 190.19 201.034 190.658 201.034 191.168V197H200.323C200.167 197 200.047 196.976 199.963 196.928C199.879 196.874 199.813 196.772 199.765 196.622L199.585 195.758C199.345 195.98 199.111 196.178 198.883 196.352C198.655 196.52 198.415 196.664 198.163 196.784C197.911 196.898 197.641 196.985 197.353 197.045C197.071 197.111 196.756 197.144 196.408 197.144C196.054 197.144 195.721 197.096 195.409 197C195.097 196.898 194.824 196.748 194.59 196.55C194.362 196.352 194.179 196.103 194.041 195.803C193.909 195.497 193.843 195.137 193.843 194.723C193.843 194.363 193.942 194.018 194.14 193.688C194.338 193.352 194.659 193.055 195.103 192.797C195.547 192.539 196.126 192.329 196.84 192.167C197.554 191.999 198.43 191.903 199.468 191.879V191.168C199.468 190.46 199.315 189.926 199.009 189.566C198.703 189.2 198.256 189.017 197.668 189.017C197.272 189.017 196.939 189.068 196.669 189.17C196.405 189.266 196.174 189.377 195.976 189.503C195.784 189.623 195.616 189.734 195.472 189.836C195.334 189.932 195.196 189.98 195.058 189.98C194.95 189.98 194.857 189.953 194.779 189.899C194.701 189.839 194.635 189.767 194.581 189.683L194.293 189.17ZM204.986 189.206C205.184 188.984 205.394 188.783 205.616 188.603C205.838 188.423 206.072 188.27 206.318 188.144C206.57 188.012 206.834 187.913 207.11 187.847C207.392 187.775 207.695 187.739 208.019 187.739C208.517 187.739 208.955 187.823 209.333 187.991C209.717 188.153 210.035 188.387 210.287 188.693C210.545 188.993 210.74 189.356 210.872 189.782C211.004 190.208 211.07 190.679 211.07 191.195V197H209.459V191.195C209.459 190.505 209.3 189.971 208.982 189.593C208.67 189.209 208.193 189.017 207.551 189.017C207.077 189.017 206.633 189.131 206.219 189.359C205.811 189.587 205.433 189.896 205.085 190.286V197H203.474V187.883H204.437C204.665 187.883 204.806 187.994 204.86 188.216L204.986 189.206ZM219.451 190.052C219.151 189.65 218.827 189.371 218.479 189.215C218.131 189.053 217.741 188.972 217.309 188.972C216.463 188.972 215.812 189.275 215.356 189.881C214.9 190.487 214.672 191.351 214.672 192.473C214.672 193.067 214.723 193.577 214.825 194.003C214.927 194.423 215.077 194.771 215.275 195.047C215.473 195.317 215.716 195.515 216.004 195.641C216.292 195.767 216.619 195.83 216.985 195.83C217.513 195.83 217.972 195.71 218.362 195.47C218.758 195.23 219.121 194.891 219.451 194.453V190.052ZM221.053 183.743V197H220.099C219.871 197 219.727 196.889 219.667 196.667L219.523 195.56C219.133 196.028 218.689 196.406 218.191 196.694C217.693 196.982 217.117 197.126 216.463 197.126C215.941 197.126 215.467 197.027 215.041 196.829C214.615 196.625 214.252 196.328 213.952 195.938C213.652 195.548 213.421 195.062 213.259 194.48C213.097 193.898 213.016 193.229 213.016 192.473C213.016 191.801 213.106 191.177 213.286 190.601C213.466 190.019 213.724 189.515 214.06 189.089C214.396 188.663 214.807 188.33 215.293 188.09C215.785 187.844 216.337 187.721 216.949 187.721C217.507 187.721 217.984 187.817 218.38 188.009C218.782 188.195 219.139 188.456 219.451 188.792V183.743H221.053ZM64.6906 221.883L61.7386 231H60.4696C60.3136 231 60.2056 230.898 60.1456 230.694L58.1296 224.511C58.0816 224.373 58.0426 224.235 58.0126 224.097C57.9826 223.953 57.9526 223.812 57.9226 223.674C57.8926 223.812 57.8626 223.953 57.8326 224.097C57.8026 224.235 57.7636 224.376 57.7156 224.52L55.6636 230.694C55.6096 230.898 55.4896 231 55.3036 231H54.0976L51.1456 221.883H52.4056C52.5316 221.883 52.6366 221.916 52.7206 221.982C52.8106 222.048 52.8706 222.126 52.9006 222.216L54.6466 228.084C54.7486 228.516 54.8296 228.924 54.8896 229.308C54.9436 229.11 54.9976 228.909 55.0516 228.705C55.1116 228.501 55.1746 228.294 55.2406 228.084L57.1666 222.18C57.1966 222.09 57.2476 222.015 57.3196 221.955C57.3976 221.895 57.4906 221.865 57.5986 221.865H58.3006C58.4206 221.865 58.5196 221.895 58.5976 221.955C58.6756 222.015 58.7296 222.09 58.7596 222.18L60.6406 228.084C60.7066 228.294 60.7666 228.501 60.8206 228.705C60.8746 228.909 60.9256 229.11 60.9736 229.308C61.0036 229.11 61.0396 228.912 61.0816 228.714C61.1296 228.51 61.1806 228.3 61.2346 228.084L63.0166 222.216C63.0466 222.12 63.1036 222.042 63.1876 221.982C63.2716 221.916 63.3706 221.883 63.4846 221.883H64.6906ZM71.086 226.896C70.348 226.92 69.718 226.98 69.196 227.076C68.68 227.166 68.257 227.286 67.927 227.436C67.603 227.586 67.366 227.763 67.216 227.967C67.072 228.171 67 228.399 67 228.651C67 228.891 67.039 229.098 67.117 229.272C67.195 229.446 67.3 229.59 67.432 229.704C67.57 229.812 67.729 229.893 67.909 229.947C68.095 229.995 68.293 230.019 68.503 230.019C68.785 230.019 69.043 229.992 69.277 229.938C69.511 229.878 69.73 229.794 69.934 229.686C70.144 229.578 70.342 229.449 70.528 229.299C70.72 229.149 70.906 228.978 71.086 228.786V226.896ZM65.911 223.17C66.415 222.684 66.958 222.321 67.54 222.081C68.122 221.841 68.767 221.721 69.475 221.721C69.985 221.721 70.438 221.805 70.834 221.973C71.23 222.141 71.563 222.375 71.833 222.675C72.103 222.975 72.307 223.338 72.445 223.764C72.583 224.19 72.652 224.658 72.652 225.168V231H71.941C71.785 231 71.665 230.976 71.581 230.928C71.497 230.874 71.431 230.772 71.383 230.622L71.203 229.758C70.963 229.98 70.729 230.178 70.501 230.352C70.273 230.52 70.033 230.664 69.781 230.784C69.529 230.898 69.259 230.985 68.971 231.045C68.689 231.111 68.374 231.144 68.026 231.144C67.672 231.144 67.339 231.096 67.027 231C66.715 230.898 66.442 230.748 66.208 230.55C65.98 230.352 65.797 230.103 65.659 229.803C65.527 229.497 65.461 229.137 65.461 228.723C65.461 228.363 65.56 228.018 65.758 227.688C65.956 227.352 66.277 227.055 66.721 226.797C67.165 226.539 67.744 226.329 68.458 226.167C69.172 225.999 70.048 225.903 71.086 225.879V225.168C71.086 224.46 70.933 223.926 70.627 223.566C70.321 223.2 69.874 223.017 69.286 223.017C68.89 223.017 68.557 223.068 68.287 223.17C68.023 223.266 67.792 223.377 67.594 223.503C67.402 223.623 67.234 223.734 67.09 223.836C66.952 223.932 66.814 223.98 66.676 223.98C66.568 223.98 66.475 223.953 66.397 223.899C66.319 223.839 66.253 223.767 66.199 223.683L65.911 223.17ZM76.7842 221.883V231H75.1822V221.883H76.7842ZM77.1262 219.021C77.1262 219.177 77.0932 219.324 77.0272 219.462C76.9672 219.594 76.8832 219.714 76.7752 219.822C76.6732 219.924 76.5502 220.005 76.4062 220.065C76.2682 220.125 76.1212 220.155 75.9652 220.155C75.8092 220.155 75.6622 220.125 75.5242 220.065C75.3922 220.005 75.2752 219.924 75.1732 219.822C75.0712 219.714 74.9902 219.594 74.9302 219.462C74.8702 219.324 74.8402 219.177 74.8402 219.021C74.8402 218.865 74.8702 218.718 74.9302 218.58C74.9902 218.436 75.0712 218.313 75.1732 218.211C75.2752 218.103 75.3922 218.019 75.5242 217.959C75.6622 217.899 75.8092 217.869 75.9652 217.869C76.1212 217.869 76.2682 217.899 76.4062 217.959C76.5502 218.019 76.6732 218.103 76.7752 218.211C76.8832 218.313 76.9672 218.436 77.0272 218.58C77.0932 218.718 77.1262 218.865 77.1262 219.021ZM82.2155 231.144C81.4955 231.144 80.9405 230.943 80.5505 230.541C80.1665 230.139 79.9745 229.56 79.9745 228.804V223.224H78.8765C78.7805 223.224 78.6995 223.197 78.6335 223.143C78.5675 223.083 78.5345 222.993 78.5345 222.873V222.234L80.0285 222.045L80.3975 219.228C80.4155 219.138 80.4545 219.066 80.5145 219.012C80.5805 218.952 80.6645 218.922 80.7665 218.922H81.5765V222.063H84.2135V223.224H81.5765V228.696C81.5765 229.08 81.6695 229.365 81.8555 229.551C82.0415 229.737 82.2815 229.83 82.5755 229.83C82.7435 229.83 82.8875 229.809 83.0075 229.767C83.1335 229.719 83.2415 229.668 83.3315 229.614C83.4215 229.56 83.4965 229.512 83.5565 229.47C83.6225 229.422 83.6795 229.398 83.7275 229.398C83.8115 229.398 83.8865 229.449 83.9525 229.551L84.4205 230.316C84.1445 230.574 83.8115 230.778 83.4215 230.928C83.0315 231.072 82.6295 231.144 82.2155 231.144ZM91.0671 231V223.251L90.0591 223.134C89.9331 223.104 89.8281 223.059 89.7441 222.999C89.6661 222.933 89.6271 222.84 89.6271 222.72V222.063H91.0671V221.181C91.0671 220.659 91.1391 220.197 91.2831 219.795C91.4331 219.387 91.6431 219.045 91.9131 218.769C92.1891 218.487 92.5191 218.274 92.9031 218.13C93.2871 217.986 93.7191 217.914 94.1991 217.914C94.6071 217.914 94.9821 217.974 95.3241 218.094L95.2881 218.895C95.2761 219.039 95.1951 219.117 95.0451 219.129C94.9011 219.141 94.7061 219.147 94.4601 219.147C94.1841 219.147 93.9321 219.183 93.7041 219.255C93.4821 219.327 93.2901 219.444 93.1281 219.606C92.9661 219.768 92.8401 219.981 92.7501 220.245C92.6661 220.509 92.6241 220.836 92.6241 221.226V222.063H95.2521V223.224H92.6781V231H91.0671ZM100.328 221.739C100.994 221.739 101.594 221.85 102.128 222.072C102.662 222.294 103.118 222.609 103.496 223.017C103.874 223.425 104.162 223.92 104.36 224.502C104.564 225.078 104.666 225.723 104.666 226.437C104.666 227.157 104.564 227.805 104.36 228.381C104.162 228.957 103.874 229.449 103.496 229.857C103.118 230.265 102.662 230.58 102.128 230.802C101.594 231.018 100.994 231.126 100.328 231.126C99.6558 231.126 99.0498 231.018 98.5098 230.802C97.9758 230.58 97.5198 230.265 97.1418 229.857C96.7638 229.449 96.4728 228.957 96.2688 228.381C96.0708 227.805 95.9718 227.157 95.9718 226.437C95.9718 225.723 96.0708 225.078 96.2688 224.502C96.4728 223.92 96.7638 223.425 97.1418 223.017C97.5198 222.609 97.9758 222.294 98.5098 222.072C99.0498 221.85 99.6558 221.739 100.328 221.739ZM100.328 229.875C101.228 229.875 101.9 229.575 102.344 228.975C102.788 228.369 103.01 227.526 103.01 226.446C103.01 225.36 102.788 224.514 102.344 223.908C101.9 223.302 101.228 222.999 100.328 222.999C99.8718 222.999 99.4728 223.077 99.1308 223.233C98.7948 223.389 98.5128 223.614 98.2848 223.908C98.0628 224.202 97.8948 224.565 97.7808 224.997C97.6728 225.423 97.6188 225.906 97.6188 226.446C97.6188 227.526 97.8408 228.369 98.2848 228.975C98.7348 229.575 99.4158 229.875 100.328 229.875ZM108.219 223.71C108.507 223.086 108.861 222.6 109.281 222.252C109.701 221.898 110.214 221.721 110.82 221.721C111.012 221.721 111.195 221.742 111.369 221.784C111.549 221.826 111.708 221.892 111.846 221.982L111.729 223.179C111.693 223.329 111.603 223.404 111.459 223.404C111.375 223.404 111.252 223.386 111.09 223.35C110.928 223.314 110.745 223.296 110.541 223.296C110.253 223.296 109.995 223.338 109.767 223.422C109.545 223.506 109.344 223.632 109.164 223.8C108.99 223.962 108.831 224.166 108.687 224.412C108.549 224.652 108.423 224.928 108.309 225.24V231H106.698V221.883H107.616C107.79 221.883 107.91 221.916 107.976 221.982C108.042 222.048 108.087 222.162 108.111 222.324L108.219 223.71ZM122.414 226.896C121.676 226.92 121.046 226.98 120.524 227.076C120.008 227.166 119.585 227.286 119.255 227.436C118.931 227.586 118.694 227.763 118.544 227.967C118.4 228.171 118.328 228.399 118.328 228.651C118.328 228.891 118.367 229.098 118.445 229.272C118.523 229.446 118.628 229.59 118.76 229.704C118.898 229.812 119.057 229.893 119.237 229.947C119.423 229.995 119.621 230.019 119.831 230.019C120.113 230.019 120.371 229.992 120.605 229.938C120.839 229.878 121.058 229.794 121.262 229.686C121.472 229.578 121.67 229.449 121.856 229.299C122.048 229.149 122.234 228.978 122.414 228.786V226.896ZM117.239 223.17C117.743 222.684 118.286 222.321 118.868 222.081C119.45 221.841 120.095 221.721 120.803 221.721C121.313 221.721 121.766 221.805 122.162 221.973C122.558 222.141 122.891 222.375 123.161 222.675C123.431 222.975 123.635 223.338 123.773 223.764C123.911 224.19 123.98 224.658 123.98 225.168V231H123.269C123.113 231 122.993 230.976 122.909 230.928C122.825 230.874 122.759 230.772 122.711 230.622L122.531 229.758C122.291 229.98 122.057 230.178 121.829 230.352C121.601 230.52 121.361 230.664 121.109 230.784C120.857 230.898 120.587 230.985 120.299 231.045C120.017 231.111 119.702 231.144 119.354 231.144C119 231.144 118.667 231.096 118.355 231C118.043 230.898 117.77 230.748 117.536 230.55C117.308 230.352 117.125 230.103 116.987 229.803C116.855 229.497 116.789 229.137 116.789 228.723C116.789 228.363 116.888 228.018 117.086 227.688C117.284 227.352 117.605 227.055 118.049 226.797C118.493 226.539 119.072 226.329 119.786 226.167C120.5 225.999 121.376 225.903 122.414 225.879V225.168C122.414 224.46 122.261 223.926 121.955 223.566C121.649 223.2 121.202 223.017 120.614 223.017C120.218 223.017 119.885 223.068 119.615 223.17C119.351 223.266 119.12 223.377 118.922 223.503C118.73 223.623 118.562 223.734 118.418 223.836C118.28 223.932 118.142 223.98 118.004 223.98C117.896 223.98 117.803 223.953 117.725 223.899C117.647 223.839 117.581 223.767 117.527 223.683L117.239 223.17ZM143.23 221.883L140.278 231H139.009C138.853 231 138.745 230.898 138.685 230.694L136.669 224.511C136.621 224.373 136.582 224.235 136.552 224.097C136.522 223.953 136.492 223.812 136.462 223.674C136.432 223.812 136.402 223.953 136.372 224.097C136.342 224.235 136.303 224.376 136.255 224.52L134.203 230.694C134.149 230.898 134.029 231 133.843 231H132.637L129.685 221.883H130.945C131.071 221.883 131.176 221.916 131.26 221.982C131.35 222.048 131.41 222.126 131.44 222.216L133.186 228.084C133.288 228.516 133.369 228.924 133.429 229.308C133.483 229.11 133.537 228.909 133.591 228.705C133.651 228.501 133.714 228.294 133.78 228.084L135.706 222.18C135.736 222.09 135.787 222.015 135.859 221.955C135.937 221.895 136.03 221.865 136.138 221.865H136.84C136.96 221.865 137.059 221.895 137.137 221.955C137.215 222.015 137.269 222.09 137.299 222.18L139.18 228.084C139.246 228.294 139.306 228.501 139.36 228.705C139.414 228.909 139.465 229.11 139.513 229.308C139.543 229.11 139.579 228.912 139.621 228.714C139.669 228.51 139.72 228.3 139.774 228.084L141.556 222.216C141.586 222.12 141.643 222.042 141.727 221.982C141.811 221.916 141.91 221.883 142.024 221.883H143.23ZM149.625 226.896C148.887 226.92 148.257 226.98 147.735 227.076C147.219 227.166 146.796 227.286 146.466 227.436C146.142 227.586 145.905 227.763 145.755 227.967C145.611 228.171 145.539 228.399 145.539 228.651C145.539 228.891 145.578 229.098 145.656 229.272C145.734 229.446 145.839 229.59 145.971 229.704C146.109 229.812 146.268 229.893 146.448 229.947C146.634 229.995 146.832 230.019 147.042 230.019C147.324 230.019 147.582 229.992 147.816 229.938C148.05 229.878 148.269 229.794 148.473 229.686C148.683 229.578 148.881 229.449 149.067 229.299C149.259 229.149 149.445 228.978 149.625 228.786V226.896ZM144.45 223.17C144.954 222.684 145.497 222.321 146.079 222.081C146.661 221.841 147.306 221.721 148.014 221.721C148.524 221.721 148.977 221.805 149.373 221.973C149.769 222.141 150.102 222.375 150.372 222.675C150.642 222.975 150.846 223.338 150.984 223.764C151.122 224.19 151.191 224.658 151.191 225.168V231H150.48C150.324 231 150.204 230.976 150.12 230.928C150.036 230.874 149.97 230.772 149.922 230.622L149.742 229.758C149.502 229.98 149.268 230.178 149.04 230.352C148.812 230.52 148.572 230.664 148.32 230.784C148.068 230.898 147.798 230.985 147.51 231.045C147.228 231.111 146.913 231.144 146.565 231.144C146.211 231.144 145.878 231.096 145.566 231C145.254 230.898 144.981 230.748 144.747 230.55C144.519 230.352 144.336 230.103 144.198 229.803C144.066 229.497 144 229.137 144 228.723C144 228.363 144.099 228.018 144.297 227.688C144.495 227.352 144.816 227.055 145.26 226.797C145.704 226.539 146.283 226.329 146.997 226.167C147.711 225.999 148.587 225.903 149.625 225.879V225.168C149.625 224.46 149.472 223.926 149.166 223.566C148.86 223.2 148.413 223.017 147.825 223.017C147.429 223.017 147.096 223.068 146.826 223.17C146.562 223.266 146.331 223.377 146.133 223.503C145.941 223.623 145.773 223.734 145.629 223.836C145.491 223.932 145.353 223.98 145.215 223.98C145.107 223.98 145.014 223.953 144.936 223.899C144.858 223.839 144.792 223.767 144.738 223.683L144.45 223.17ZM155.323 221.883V231H153.721V221.883H155.323ZM155.665 219.021C155.665 219.177 155.632 219.324 155.566 219.462C155.506 219.594 155.422 219.714 155.314 219.822C155.212 219.924 155.089 220.005 154.945 220.065C154.807 220.125 154.66 220.155 154.504 220.155C154.348 220.155 154.201 220.125 154.063 220.065C153.931 220.005 153.814 219.924 153.712 219.822C153.61 219.714 153.529 219.594 153.469 219.462C153.409 219.324 153.379 219.177 153.379 219.021C153.379 218.865 153.409 218.718 153.469 218.58C153.529 218.436 153.61 218.313 153.712 218.211C153.814 218.103 153.931 218.019 154.063 217.959C154.201 217.899 154.348 217.869 154.504 217.869C154.66 217.869 154.807 217.899 154.945 217.959C155.089 218.019 155.212 218.103 155.314 218.211C155.422 218.313 155.506 218.436 155.566 218.58C155.632 218.718 155.665 218.865 155.665 219.021ZM160.755 231.144C160.035 231.144 159.48 230.943 159.09 230.541C158.706 230.139 158.514 229.56 158.514 228.804V223.224H157.416C157.32 223.224 157.239 223.197 157.173 223.143C157.107 223.083 157.074 222.993 157.074 222.873V222.234L158.568 222.045L158.937 219.228C158.955 219.138 158.994 219.066 159.054 219.012C159.12 218.952 159.204 218.922 159.306 218.922H160.116V222.063H162.753V223.224H160.116V228.696C160.116 229.08 160.209 229.365 160.395 229.551C160.581 229.737 160.821 229.83 161.115 229.83C161.283 229.83 161.427 229.809 161.547 229.767C161.673 229.719 161.781 229.668 161.871 229.614C161.961 229.56 162.036 229.512 162.096 229.47C162.162 229.422 162.219 229.398 162.267 229.398C162.351 229.398 162.426 229.449 162.492 229.551L162.96 230.316C162.684 230.574 162.351 230.778 161.961 230.928C161.571 231.072 161.169 231.144 160.755 231.144ZM170.456 225.447C170.456 225.075 170.402 224.736 170.294 224.43C170.192 224.118 170.039 223.851 169.835 223.629C169.637 223.401 169.394 223.227 169.106 223.107C168.818 222.981 168.491 222.918 168.125 222.918C167.357 222.918 166.748 223.143 166.298 223.593C165.854 224.037 165.578 224.655 165.47 225.447H170.456ZM171.752 229.722C171.554 229.962 171.317 230.172 171.041 230.352C170.765 230.526 170.468 230.67 170.15 230.784C169.838 230.898 169.514 230.982 169.178 231.036C168.842 231.096 168.509 231.126 168.179 231.126C167.549 231.126 166.967 231.021 166.433 230.811C165.905 230.595 165.446 230.283 165.056 229.875C164.672 229.461 164.372 228.951 164.156 228.345C163.94 227.739 163.832 227.043 163.832 226.257C163.832 225.621 163.928 225.027 164.12 224.475C164.318 223.923 164.6 223.446 164.966 223.044C165.332 222.636 165.779 222.318 166.307 222.09C166.835 221.856 167.429 221.739 168.089 221.739C168.635 221.739 169.139 221.832 169.601 222.018C170.069 222.198 170.471 222.462 170.807 222.81C171.149 223.152 171.416 223.578 171.608 224.088C171.8 224.592 171.896 225.168 171.896 225.816C171.896 226.068 171.869 226.236 171.815 226.32C171.761 226.404 171.659 226.446 171.509 226.446H165.416C165.434 227.022 165.512 227.523 165.65 227.949C165.794 228.375 165.992 228.732 166.244 229.02C166.496 229.302 166.796 229.515 167.144 229.659C167.492 229.797 167.882 229.866 168.314 229.866C168.716 229.866 169.061 229.821 169.349 229.731C169.643 229.635 169.895 229.533 170.105 229.425C170.315 229.317 170.489 229.218 170.627 229.128C170.771 229.032 170.894 228.984 170.996 228.984C171.128 228.984 171.23 229.035 171.302 229.137L171.752 229.722ZM175.385 223.71C175.673 223.086 176.027 222.6 176.447 222.252C176.867 221.898 177.38 221.721 177.986 221.721C178.178 221.721 178.361 221.742 178.535 221.784C178.715 221.826 178.874 221.892 179.012 221.982L178.895 223.179C178.859 223.329 178.769 223.404 178.625 223.404C178.541 223.404 178.418 223.386 178.256 223.35C178.094 223.314 177.911 223.296 177.707 223.296C177.419 223.296 177.161 223.338 176.933 223.422C176.711 223.506 176.51 223.632 176.33 223.8C176.156 223.962 175.997 224.166 175.853 224.412C175.715 224.652 175.589 224.928 175.475 225.24V231H173.864V221.883H174.782C174.956 221.883 175.076 221.916 175.142 221.982C175.208 222.048 175.253 222.162 175.277 222.324L175.385 223.71Z" fill="black"/>
</svg>
