<svg width="302" height="130" viewBox="0 0 302 130" fill="none" xmlns="http://www.w3.org/2000/svg">
<path d="M36 70.5C16.3873 70.5 0.5 54.8234 0.5 35.5C0.5 16.1766 16.3873 0.5 36 0.5C55.6127 0.5 71.5 16.1766 71.5 35.5C71.5 54.8234 55.6127 70.5 36 70.5Z" fill="#275B81" stroke="white"/>
<path d="M25.7639 30.8867C26.0833 31.1997 26.5126 31.375 26.9598 31.375C27.4069 31.375 27.8363 31.1997 28.1556 30.8867L30.8889 28.1534C31.2019 27.834 31.3773 27.4047 31.3773 26.9575C31.3773 26.5104 31.2019 26.081 30.8889 25.7617L24.4485 19.3213C26.3468 18.4623 28.4618 18.2022 30.5116 18.5757C32.5615 18.9492 34.4488 19.9385 35.9221 21.4118C37.3955 22.8851 38.3848 24.7725 38.7583 26.8223C39.1318 28.8722 38.8717 30.9872 38.0127 32.8855L49.8173 44.69C50.4969 45.3697 50.8787 46.2914 50.8787 47.2525C50.8787 48.2137 50.4969 49.1354 49.8173 49.815C49.1376 50.4947 48.2159 50.8765 47.2548 50.8765C46.2936 50.8765 45.3719 50.4947 44.6923 49.815L32.8877 38.0105C30.9894 38.8695 28.8744 39.1296 26.8245 38.7561C24.7747 38.3826 22.8874 37.3933 21.414 35.9199C19.9407 34.4466 18.9514 32.5593 18.5779 30.5094C18.2044 28.4596 18.4645 26.3446 19.3235 24.4463L25.7468 30.8696L25.7639 30.8867Z" stroke="white" stroke-width="2" stroke-linecap="round" stroke-linejoin="round"/>
<path d="M124.814 13.608C124.066 13.7213 123.511 13.914 123.148 14.186C122.808 14.458 122.57 14.8887 122.434 15.478C122.321 16.0673 122.264 16.94 122.264 18.096V27.106C122.264 30.3473 121.799 32.75 120.87 34.314C120.258 35.3113 119.374 36.0933 118.218 36.66C117.062 37.204 115.645 37.476 113.968 37.476C111.339 37.476 109.299 36.9093 107.848 35.776C106.805 34.9373 106.103 33.8833 105.74 32.614C105.377 31.322 105.196 29.52 105.196 27.208V16.532C105.196 15.6707 105.128 15.0473 104.992 14.662C104.879 14.2767 104.641 14.016 104.278 13.88C103.938 13.744 103.394 13.6533 102.646 13.608V12.928C103.802 12.996 105.57 13.03 107.95 13.03C110.307 13.03 112.109 12.996 113.356 12.928V13.608C112.54 13.6533 111.939 13.744 111.554 13.88C111.191 14.016 110.942 14.2767 110.806 14.662C110.67 15.0473 110.602 15.6707 110.602 16.532V29.35C110.602 31.73 110.942 33.4867 111.622 34.62C112.325 35.7307 113.549 36.286 115.294 36.286C117.561 36.286 119.159 35.5267 120.088 34.008C121.017 32.4667 121.482 30.2907 121.482 27.48V18.504C121.482 17.1893 121.403 16.2147 121.244 15.58C121.085 14.9453 120.779 14.492 120.326 14.22C119.873 13.9253 119.159 13.7213 118.184 13.608V12.928C119.045 12.996 120.269 13.03 121.856 13.03C123.125 13.03 124.111 12.996 124.814 12.928V13.608ZM132.159 18.946C133.021 18.946 133.814 19.0593 134.539 19.286C135.265 19.49 135.82 19.728 136.205 20C136.432 20.1587 136.636 20.238 136.817 20.238C137.021 20.238 137.191 20.136 137.327 19.932C137.486 19.7053 137.588 19.388 137.633 18.98H138.347C138.257 20.136 138.211 22.1307 138.211 24.964H137.497C137.293 23.468 136.84 22.2213 136.137 21.224C135.457 20.204 134.46 19.694 133.145 19.694C132.465 19.694 131.899 19.8867 131.445 20.272C131.015 20.6573 130.799 21.19 130.799 21.87C130.799 22.6407 131.06 23.3093 131.581 23.876C132.103 24.42 132.919 25.0887 134.029 25.882L135.015 26.596C136.398 27.6387 137.418 28.568 138.075 29.384C138.733 30.2 139.061 31.22 139.061 32.444C139.061 33.4413 138.767 34.3253 138.177 35.096C137.611 35.8667 136.84 36.456 135.865 36.864C134.891 37.272 133.814 37.476 132.635 37.476C131.389 37.476 130.323 37.238 129.439 36.762C128.714 36.3993 128.193 36.1613 127.875 36.048C127.649 35.98 127.445 36.0593 127.263 36.286C127.105 36.49 126.98 36.8073 126.889 37.238H126.175C126.266 35.946 126.311 33.6793 126.311 30.438H127.025C127.479 34.6087 129.009 36.694 131.615 36.694C132.273 36.694 132.828 36.5013 133.281 36.116C133.757 35.708 133.995 35.096 133.995 34.28C133.995 33.6453 133.848 33.0787 133.553 32.58C133.281 32.0813 132.93 31.6393 132.499 31.254C132.069 30.8687 131.423 30.336 130.561 29.656C129.541 28.84 128.759 28.1827 128.215 27.684C127.694 27.1853 127.241 26.596 126.855 25.916C126.493 25.236 126.311 24.4767 126.311 23.638C126.311 22.1873 126.878 21.0427 128.011 20.204C129.145 19.3653 130.527 18.946 132.159 18.946ZM145.62 37.238C144.17 37.238 143.082 36.864 142.356 36.116C141.654 35.368 141.302 34.382 141.302 33.158C141.302 32.138 141.563 31.2993 142.084 30.642C142.628 29.962 143.274 29.4407 144.022 29.078C144.793 28.7153 145.768 28.33 146.946 27.922C148.193 27.4913 149.1 27.106 149.666 26.766C150.256 26.4033 150.55 25.916 150.55 25.304V22.652C150.55 21.7 150.324 20.9633 149.87 20.442C149.44 19.898 148.76 19.626 147.83 19.626C146.742 19.626 145.915 19.898 145.348 20.442C145.983 20.6687 146.47 21.0087 146.81 21.462C147.173 21.9153 147.354 22.448 147.354 23.06C147.354 23.8307 147.094 24.4427 146.572 24.896C146.051 25.3493 145.416 25.576 144.668 25.576C143.875 25.576 143.263 25.3267 142.832 24.828C142.402 24.3293 142.186 23.706 142.186 22.958C142.186 22.3233 142.334 21.7907 142.628 21.36C142.946 20.9067 143.422 20.4873 144.056 20.102C144.668 19.7393 145.416 19.456 146.3 19.252C147.207 19.048 148.193 18.946 149.258 18.946C150.369 18.946 151.332 19.0593 152.148 19.286C152.964 19.5127 153.644 19.898 154.188 20.442C154.687 20.9407 155.016 21.5527 155.174 22.278C155.356 23.0033 155.446 23.9893 155.446 25.236V34.484C155.446 35.028 155.492 35.4133 155.582 35.64C155.696 35.8667 155.9 35.98 156.194 35.98C156.534 35.98 156.942 35.7873 157.418 35.402L157.758 35.98C156.738 36.8187 155.492 37.238 154.018 37.238C152.772 37.238 151.899 36.9887 151.4 36.49C150.902 35.9913 150.641 35.3227 150.618 34.484C149.485 36.32 147.819 37.238 145.62 37.238ZM148.238 35.062C149.122 35.062 149.893 34.5973 150.55 33.668V26.698C150.278 27.1513 149.7 27.65 148.816 28.194C147.932 28.7607 147.264 29.3273 146.81 29.894C146.357 30.4607 146.13 31.2767 146.13 32.342C146.13 33.2713 146.323 33.9627 146.708 34.416C147.094 34.8467 147.604 35.062 148.238 35.062ZM170.392 18.946C172.228 18.946 173.713 19.7053 174.846 21.224C175.979 22.72 176.546 24.896 176.546 27.752C176.546 31.084 175.821 33.5433 174.37 35.13C172.919 36.694 171.049 37.476 168.76 37.476C167.196 37.476 165.927 37.0793 164.952 36.286C164.136 36.218 163.32 36.3087 162.504 36.558C161.688 36.8073 161.042 37.136 160.566 37.544L160.056 37.238C160.215 36.6713 160.294 36.0367 160.294 35.334V14.492C160.294 13.4493 160.124 12.69 159.784 12.214C159.467 11.738 158.911 11.5 158.118 11.5V10.786C158.821 10.854 159.523 10.888 160.226 10.888C162.198 10.888 163.853 10.7293 165.19 10.412V22.176C165.666 21.1333 166.357 20.34 167.264 19.796C168.171 19.2293 169.213 18.946 170.392 18.946ZM167.706 36.762C168.953 36.762 169.882 36.0593 170.494 34.654C171.106 33.2487 171.412 31.1067 171.412 28.228C171.412 25.44 171.151 23.4453 170.63 22.244C170.109 21.02 169.361 20.408 168.386 20.408C167.661 20.408 166.992 20.68 166.38 21.224C165.791 21.7453 165.394 22.4593 165.19 23.366V35.844C165.938 36.456 166.777 36.762 167.706 36.762ZM183.072 10.65C184.024 10.65 184.772 10.888 185.316 11.364C185.883 11.8173 186.166 12.452 186.166 13.268C186.166 14.084 185.883 14.73 185.316 15.206C184.772 15.6593 184.024 15.886 183.072 15.886C182.12 15.886 181.361 15.6593 180.794 15.206C180.25 14.73 179.978 14.084 179.978 13.268C179.978 12.452 180.25 11.8173 180.794 11.364C181.361 10.888 182.12 10.65 183.072 10.65ZM185.724 33.838C185.724 34.7673 185.883 35.4133 186.2 35.776C186.54 36.116 187.107 36.286 187.9 36.286V37C185.633 36.9093 184.126 36.864 183.378 36.864C182.675 36.864 181.1 36.9093 178.652 37V36.286C179.468 36.286 180.035 36.116 180.352 35.776C180.669 35.4133 180.828 34.7673 180.828 33.838V23.128C180.828 22.0853 180.669 21.326 180.352 20.85C180.035 20.374 179.468 20.136 178.652 20.136V19.422C179.377 19.49 180.08 19.524 180.76 19.524C182.777 19.524 184.432 19.3653 185.724 19.048V33.838ZM196.313 33.838C196.313 34.7673 196.471 35.4133 196.789 35.776C197.106 36.116 197.673 36.286 198.489 36.286V37C196.131 36.9093 194.613 36.864 193.933 36.864C193.162 36.864 191.598 36.9093 189.241 37V36.286C190.034 36.286 190.589 36.116 190.907 35.776C191.247 35.4133 191.417 34.7673 191.417 33.838V14.458C191.417 13.4153 191.247 12.656 190.907 12.18C190.589 11.704 190.034 11.466 189.241 11.466V10.752C189.966 10.82 190.669 10.854 191.349 10.854C193.321 10.854 194.975 10.6953 196.313 10.378V33.838ZM204.355 10.65C205.307 10.65 206.055 10.888 206.599 11.364C207.166 11.8173 207.449 12.452 207.449 13.268C207.449 14.084 207.166 14.73 206.599 15.206C206.055 15.6593 205.307 15.886 204.355 15.886C203.403 15.886 202.644 15.6593 202.077 15.206C201.533 14.73 201.261 14.084 201.261 13.268C201.261 12.452 201.533 11.8173 202.077 11.364C202.644 10.888 203.403 10.65 204.355 10.65ZM207.007 33.838C207.007 34.7673 207.166 35.4133 207.483 35.776C207.823 36.116 208.39 36.286 209.183 36.286V37C206.916 36.9093 205.409 36.864 204.661 36.864C203.958 36.864 202.383 36.9093 199.935 37V36.286C200.751 36.286 201.318 36.116 201.635 35.776C201.952 35.4133 202.111 34.7673 202.111 33.838V23.128C202.111 22.0853 201.952 21.326 201.635 20.85C201.318 20.374 200.751 20.136 199.935 20.136V19.422C200.66 19.49 201.363 19.524 202.043 19.524C204.06 19.524 205.715 19.3653 207.007 19.048V33.838ZM217.562 19.422H221.574V20.102H217.562V33.838C217.562 34.518 217.675 35.0053 217.902 35.3C218.151 35.572 218.536 35.708 219.058 35.708C220.032 35.708 220.803 35.028 221.37 33.668L221.948 33.974C221.086 36.3087 219.534 37.476 217.29 37.476C215.794 37.476 214.66 37.0907 213.89 36.32C213.414 35.844 213.085 35.2547 212.904 34.552C212.745 33.8267 212.666 32.8407 212.666 31.594V20.102H209.81V19.422H212.666V14.934C214.547 14.934 216.179 14.5713 217.562 13.846V19.422ZM236.621 19.524C237.754 19.524 238.627 19.49 239.239 19.422V20.102C238.763 20.238 238.332 20.5327 237.947 20.986C237.584 21.4167 237.233 22.0967 236.893 23.026L230.807 40.128C230.354 41.3067 229.855 42.1113 229.311 42.542C228.654 43.1087 227.668 43.392 226.353 43.392C225.401 43.392 224.54 43.154 223.769 42.678C223.021 42.2247 222.647 41.556 222.647 40.672C222.647 39.9693 222.896 39.4027 223.395 38.972C223.894 38.564 224.551 38.36 225.367 38.36C226.138 38.36 226.75 38.5413 227.203 38.904C227.679 39.2893 227.917 39.822 227.917 40.502C227.917 40.978 227.77 41.4087 227.475 41.794C227.18 42.202 226.761 42.508 226.217 42.712C226.376 42.7347 226.636 42.746 226.999 42.746C228.404 42.746 229.436 41.8507 230.093 40.06L230.637 38.428L223.429 22.04C223.066 21.2693 222.715 20.7593 222.375 20.51C222.035 20.2607 221.684 20.136 221.321 20.136V19.422C222.817 19.558 224.37 19.626 225.979 19.626C227.316 19.626 228.892 19.558 230.705 19.422V20.136C229.98 20.136 229.436 20.1927 229.073 20.306C228.733 20.3967 228.563 20.6573 228.563 21.088C228.563 21.3373 228.642 21.6547 228.801 22.04L232.949 32.07L235.295 25.542C235.658 24.4767 235.839 23.57 235.839 22.822C235.839 21.1673 235 20.2607 233.323 20.102V19.422C234.388 19.49 235.488 19.524 236.621 19.524Z" fill="black"/>
<path d="M107.888 72.768C108.363 72.768 108.787 72.688 109.16 72.528C109.533 72.368 109.848 72.144 110.104 71.856C110.365 71.568 110.563 71.224 110.696 70.824C110.835 70.424 110.904 69.984 110.904 69.504V62.536H112.448V69.504C112.448 70.1653 112.341 70.7787 112.128 71.344C111.92 71.9093 111.619 72.4 111.224 72.816C110.835 73.2267 110.357 73.5493 109.792 73.784C109.227 74.0187 108.592 74.136 107.888 74.136C107.184 74.136 106.549 74.0187 105.984 73.784C105.419 73.5493 104.939 73.2267 104.544 72.816C104.149 72.4 103.845 71.9093 103.632 71.344C103.424 70.7787 103.32 70.1653 103.32 69.504V62.536H104.864V69.496C104.864 69.976 104.931 70.416 105.064 70.816C105.203 71.216 105.4 71.56 105.656 71.848C105.917 72.136 106.235 72.3627 106.608 72.528C106.987 72.688 107.413 72.768 107.888 72.768ZM119.223 67.232C119.159 67.3493 119.06 67.408 118.927 67.408C118.847 67.408 118.756 67.3787 118.655 67.32C118.554 67.2613 118.428 67.1973 118.279 67.128C118.135 67.0533 117.962 66.9867 117.759 66.928C117.556 66.864 117.316 66.832 117.039 66.832C116.799 66.832 116.583 66.864 116.391 66.928C116.199 66.9867 116.034 67.0693 115.895 67.176C115.762 67.2827 115.658 67.408 115.583 67.552C115.514 67.6907 115.479 67.8427 115.479 68.008C115.479 68.216 115.538 68.3893 115.655 68.528C115.778 68.6667 115.938 68.7867 116.135 68.888C116.332 68.9893 116.556 69.08 116.807 69.16C117.058 69.2347 117.314 69.3173 117.575 69.408C117.842 69.4933 118.1 69.5893 118.351 69.696C118.602 69.8027 118.826 69.936 119.023 70.096C119.22 70.256 119.378 70.4533 119.495 70.688C119.618 70.9173 119.679 71.1947 119.679 71.52C119.679 71.8933 119.612 72.24 119.479 72.56C119.346 72.8747 119.148 73.1493 118.887 73.384C118.626 73.6133 118.306 73.7947 117.927 73.928C117.548 74.0613 117.111 74.128 116.615 74.128C116.05 74.128 115.538 74.0373 115.079 73.856C114.62 73.6693 114.231 73.432 113.911 73.144L114.247 72.6C114.29 72.5307 114.34 72.4773 114.399 72.44C114.458 72.4027 114.532 72.384 114.623 72.384C114.719 72.384 114.82 72.4213 114.927 72.496C115.034 72.5707 115.162 72.6533 115.311 72.744C115.466 72.8347 115.652 72.9173 115.871 72.992C116.09 73.0667 116.362 73.104 116.687 73.104C116.964 73.104 117.207 73.0693 117.415 73C117.623 72.9253 117.796 72.8267 117.935 72.704C118.074 72.5813 118.175 72.44 118.239 72.28C118.308 72.12 118.343 71.9493 118.343 71.768C118.343 71.544 118.282 71.36 118.159 71.216C118.042 71.0667 117.884 70.9413 117.687 70.84C117.49 70.7333 117.263 70.6427 117.007 70.568C116.756 70.488 116.498 70.4053 116.231 70.32C115.97 70.2347 115.711 70.1387 115.455 70.032C115.204 69.92 114.98 69.7813 114.783 69.616C114.586 69.4507 114.426 69.248 114.303 69.008C114.186 68.7627 114.127 68.4667 114.127 68.12C114.127 67.8107 114.191 67.5147 114.319 67.232C114.447 66.944 114.634 66.6933 114.879 66.48C115.124 66.2613 115.426 66.088 115.783 65.96C116.14 65.832 116.548 65.768 117.007 65.768C117.54 65.768 118.018 65.8533 118.439 66.024C118.866 66.1893 119.234 66.4187 119.543 66.712L119.223 67.232ZM125.817 70.352C125.161 70.3733 124.601 70.4267 124.137 70.512C123.678 70.592 123.302 70.6987 123.009 70.832C122.721 70.9653 122.51 71.1227 122.377 71.304C122.249 71.4853 122.185 71.688 122.185 71.912C122.185 72.1253 122.22 72.3093 122.289 72.464C122.358 72.6187 122.452 72.7467 122.569 72.848C122.692 72.944 122.833 73.016 122.993 73.064C123.158 73.1067 123.334 73.128 123.521 73.128C123.772 73.128 124.001 73.104 124.209 73.056C124.417 73.0027 124.612 72.928 124.793 72.832C124.98 72.736 125.156 72.6213 125.321 72.488C125.492 72.3547 125.657 72.2027 125.817 72.032V70.352ZM121.217 67.04C121.665 66.608 122.148 66.2853 122.665 66.072C123.182 65.8587 123.756 65.752 124.385 65.752C124.838 65.752 125.241 65.8267 125.593 65.976C125.945 66.1253 126.241 66.3333 126.481 66.6C126.721 66.8667 126.902 67.1893 127.025 67.568C127.148 67.9467 127.209 68.3627 127.209 68.816V74H126.577C126.438 74 126.332 73.9787 126.257 73.936C126.182 73.888 126.124 73.7973 126.081 73.664L125.921 72.896C125.708 73.0933 125.5 73.2693 125.297 73.424C125.094 73.5733 124.881 73.7013 124.657 73.808C124.433 73.9093 124.193 73.9867 123.937 74.04C123.686 74.0987 123.406 74.128 123.097 74.128C122.782 74.128 122.486 74.0853 122.209 74C121.932 73.9093 121.689 73.776 121.481 73.6C121.278 73.424 121.116 73.2027 120.993 72.936C120.876 72.664 120.817 72.344 120.817 71.976C120.817 71.656 120.905 71.3493 121.081 71.056C121.257 70.7573 121.542 70.4933 121.937 70.264C122.332 70.0347 122.846 69.848 123.481 69.704C124.116 69.5547 124.894 69.4693 125.817 69.448V68.816C125.817 68.1867 125.681 67.712 125.409 67.392C125.137 67.0667 124.74 66.904 124.217 66.904C123.865 66.904 123.569 66.9493 123.329 67.04C123.094 67.1253 122.889 67.224 122.713 67.336C122.542 67.4427 122.393 67.5413 122.265 67.632C122.142 67.7173 122.02 67.76 121.897 67.76C121.801 67.76 121.718 67.736 121.649 67.688C121.58 67.6347 121.521 67.5707 121.473 67.496L121.217 67.04ZM130.81 72.048C131.071 72.4 131.357 72.648 131.666 72.792C131.981 72.936 132.325 73.008 132.698 73.008C133.461 73.008 134.045 72.7387 134.45 72.2C134.855 71.6613 135.058 70.8587 135.058 69.792C135.058 68.8 134.877 68.072 134.514 67.608C134.157 67.1387 133.645 66.904 132.978 66.904C132.514 66.904 132.109 67.0107 131.762 67.224C131.421 67.4373 131.103 67.7387 130.81 68.128V72.048ZM130.81 67.064C131.151 66.6693 131.535 66.3547 131.962 66.12C132.394 65.8853 132.89 65.768 133.45 65.768C133.925 65.768 134.351 65.8587 134.73 66.04C135.114 66.2213 135.439 66.4853 135.706 66.832C135.973 67.1733 136.175 67.5893 136.314 68.08C136.458 68.5707 136.53 69.1227 136.53 69.736C136.53 70.392 136.45 70.9893 136.29 71.528C136.13 72.0667 135.898 72.528 135.594 72.912C135.295 73.2907 134.93 73.5867 134.498 73.8C134.066 74.008 133.581 74.112 133.042 74.112C132.509 74.112 132.058 74.0133 131.69 73.816C131.327 73.6133 131.01 73.328 130.738 72.96L130.666 73.696C130.623 73.8987 130.501 74 130.298 74H129.378V62.216H130.81V67.064ZM139.835 65.896V74H138.411V65.896H139.835ZM140.139 63.352C140.139 63.4907 140.11 63.6213 140.051 63.744C139.998 63.8613 139.923 63.968 139.827 64.064C139.736 64.1547 139.627 64.2267 139.499 64.28C139.376 64.3333 139.246 64.36 139.107 64.36C138.968 64.36 138.838 64.3333 138.715 64.28C138.598 64.2267 138.494 64.1547 138.403 64.064C138.312 63.968 138.24 63.8613 138.187 63.744C138.134 63.6213 138.107 63.4907 138.107 63.352C138.107 63.2133 138.134 63.0827 138.187 62.96C138.24 62.832 138.312 62.7227 138.403 62.632C138.494 62.536 138.598 62.4613 138.715 62.408C138.838 62.3547 138.968 62.328 139.107 62.328C139.246 62.328 139.376 62.3547 139.499 62.408C139.627 62.4613 139.736 62.536 139.827 62.632C139.923 62.7227 139.998 62.832 140.051 62.96C140.11 63.0827 140.139 63.2133 140.139 63.352ZM143.647 62.216V74H142.223V62.216H143.647ZM147.46 65.896V74H146.036V65.896H147.46ZM147.764 63.352C147.764 63.4907 147.735 63.6213 147.676 63.744C147.623 63.8613 147.548 63.968 147.452 64.064C147.361 64.1547 147.252 64.2267 147.124 64.28C147.001 64.3333 146.871 64.36 146.732 64.36C146.593 64.36 146.463 64.3333 146.34 64.28C146.223 64.2267 146.119 64.1547 146.028 64.064C145.937 63.968 145.865 63.8613 145.812 63.744C145.759 63.6213 145.732 63.4907 145.732 63.352C145.732 63.2133 145.759 63.0827 145.812 62.96C145.865 62.832 145.937 62.7227 146.028 62.632C146.119 62.536 146.223 62.4613 146.34 62.408C146.463 62.3547 146.593 62.328 146.732 62.328C146.871 62.328 147.001 62.3547 147.124 62.408C147.252 62.4613 147.361 62.536 147.452 62.632C147.548 62.7227 147.623 62.832 147.676 62.96C147.735 63.0827 147.764 63.2133 147.764 63.352ZM152.288 74.128C151.648 74.128 151.155 73.9493 150.808 73.592C150.467 73.2347 150.296 72.72 150.296 72.048V67.088H149.32C149.235 67.088 149.163 67.064 149.104 67.016C149.045 66.9627 149.016 66.8827 149.016 66.776V66.208L150.344 66.04L150.672 63.536C150.688 63.456 150.723 63.392 150.776 63.344C150.835 63.2907 150.909 63.264 151 63.264H151.72V66.056H154.064V67.088H151.72V71.952C151.72 72.2933 151.803 72.5467 151.968 72.712C152.133 72.8773 152.347 72.96 152.608 72.96C152.757 72.96 152.885 72.9413 152.992 72.904C153.104 72.8613 153.2 72.816 153.28 72.768C153.36 72.72 153.427 72.6773 153.48 72.64C153.539 72.5973 153.589 72.576 153.632 72.576C153.707 72.576 153.773 72.6213 153.832 72.712L154.248 73.392C154.003 73.6213 153.707 73.8027 153.36 73.936C153.013 74.064 152.656 74.128 152.288 74.128ZM162.526 65.896L158.006 76.392C157.958 76.4987 157.897 76.584 157.822 76.648C157.753 76.712 157.644 76.744 157.494 76.744H156.438L157.918 73.528L154.574 65.896H155.806C155.929 65.896 156.025 65.928 156.094 65.992C156.169 66.0507 156.22 66.1173 156.246 66.192L158.414 71.296C158.5 71.52 158.572 71.7547 158.63 72C158.705 71.7493 158.785 71.512 158.87 71.288L160.974 66.192C161.006 66.1067 161.06 66.0373 161.134 65.984C161.214 65.9253 161.302 65.896 161.398 65.896H162.526ZM169.975 74.128C169.335 74.128 168.842 73.9493 168.495 73.592C168.154 73.2347 167.983 72.72 167.983 72.048V67.088H167.007C166.922 67.088 166.85 67.064 166.791 67.016C166.733 66.9627 166.703 66.8827 166.703 66.776V66.208L168.031 66.04L168.359 63.536C168.375 63.456 168.41 63.392 168.463 63.344C168.522 63.2907 168.597 63.264 168.687 63.264H169.407V66.056H171.751V67.088H169.407V71.952C169.407 72.2933 169.49 72.5467 169.655 72.712C169.821 72.8773 170.034 72.96 170.295 72.96C170.445 72.96 170.573 72.9413 170.679 72.904C170.791 72.8613 170.887 72.816 170.967 72.768C171.047 72.72 171.114 72.6773 171.167 72.64C171.226 72.5973 171.277 72.576 171.319 72.576C171.394 72.576 171.461 72.6213 171.519 72.712L171.935 73.392C171.69 73.6213 171.394 73.8027 171.047 73.936C170.701 74.064 170.343 74.128 169.975 74.128ZM178.599 69.064C178.599 68.7333 178.551 68.432 178.455 68.16C178.364 67.8827 178.228 67.6453 178.047 67.448C177.871 67.2453 177.655 67.0907 177.399 66.984C177.143 66.872 176.852 66.816 176.527 66.816C175.844 66.816 175.303 67.016 174.903 67.416C174.508 67.8107 174.263 68.36 174.167 69.064H178.599ZM179.751 72.864C179.575 73.0773 179.364 73.264 179.119 73.424C178.874 73.5787 178.61 73.7067 178.327 73.808C178.05 73.9093 177.762 73.984 177.463 74.032C177.164 74.0853 176.868 74.112 176.575 74.112C176.015 74.112 175.498 74.0187 175.023 73.832C174.554 73.64 174.146 73.3627 173.799 73C173.458 72.632 173.191 72.1787 172.999 71.64C172.807 71.1013 172.711 70.4827 172.711 69.784C172.711 69.2187 172.796 68.6907 172.967 68.2C173.143 67.7093 173.394 67.2853 173.719 66.928C174.044 66.5653 174.442 66.2827 174.911 66.08C175.38 65.872 175.908 65.768 176.495 65.768C176.98 65.768 177.428 65.8507 177.839 66.016C178.255 66.176 178.612 66.4107 178.911 66.72C179.215 67.024 179.452 67.4027 179.623 67.856C179.794 68.304 179.879 68.816 179.879 69.392C179.879 69.616 179.855 69.7653 179.807 69.84C179.759 69.9147 179.668 69.952 179.535 69.952H174.119C174.135 70.464 174.204 70.9093 174.327 71.288C174.455 71.6667 174.631 71.984 174.855 72.24C175.079 72.4907 175.346 72.68 175.655 72.808C175.964 72.9307 176.311 72.992 176.695 72.992C177.052 72.992 177.359 72.952 177.615 72.872C177.876 72.7867 178.1 72.696 178.287 72.6C178.474 72.504 178.628 72.416 178.751 72.336C178.879 72.2507 178.988 72.208 179.079 72.208C179.196 72.208 179.287 72.2533 179.351 72.344L179.751 72.864ZM186.348 67.232C186.284 67.3493 186.185 67.408 186.052 67.408C185.972 67.408 185.881 67.3787 185.78 67.32C185.679 67.2613 185.553 67.1973 185.404 67.128C185.26 67.0533 185.087 66.9867 184.884 66.928C184.681 66.864 184.441 66.832 184.164 66.832C183.924 66.832 183.708 66.864 183.516 66.928C183.324 66.9867 183.159 67.0693 183.02 67.176C182.887 67.2827 182.783 67.408 182.708 67.552C182.639 67.6907 182.604 67.8427 182.604 68.008C182.604 68.216 182.663 68.3893 182.78 68.528C182.903 68.6667 183.063 68.7867 183.26 68.888C183.457 68.9893 183.681 69.08 183.932 69.16C184.183 69.2347 184.439 69.3173 184.7 69.408C184.967 69.4933 185.225 69.5893 185.476 69.696C185.727 69.8027 185.951 69.936 186.148 70.096C186.345 70.256 186.503 70.4533 186.62 70.688C186.743 70.9173 186.804 71.1947 186.804 71.52C186.804 71.8933 186.737 72.24 186.604 72.56C186.471 72.8747 186.273 73.1493 186.012 73.384C185.751 73.6133 185.431 73.7947 185.052 73.928C184.673 74.0613 184.236 74.128 183.74 74.128C183.175 74.128 182.663 74.0373 182.204 73.856C181.745 73.6693 181.356 73.432 181.036 73.144L181.372 72.6C181.415 72.5307 181.465 72.4773 181.524 72.44C181.583 72.4027 181.657 72.384 181.748 72.384C181.844 72.384 181.945 72.4213 182.052 72.496C182.159 72.5707 182.287 72.6533 182.436 72.744C182.591 72.8347 182.777 72.9173 182.996 72.992C183.215 73.0667 183.487 73.104 183.812 73.104C184.089 73.104 184.332 73.0693 184.54 73C184.748 72.9253 184.921 72.8267 185.06 72.704C185.199 72.5813 185.3 72.44 185.364 72.28C185.433 72.12 185.468 71.9493 185.468 71.768C185.468 71.544 185.407 71.36 185.284 71.216C185.167 71.0667 185.009 70.9413 184.812 70.84C184.615 70.7333 184.388 70.6427 184.132 70.568C183.881 70.488 183.623 70.4053 183.356 70.32C183.095 70.2347 182.836 70.1387 182.58 70.032C182.329 69.92 182.105 69.7813 181.908 69.616C181.711 69.4507 181.551 69.248 181.428 69.008C181.311 68.7627 181.252 68.4667 181.252 68.12C181.252 67.8107 181.316 67.5147 181.444 67.232C181.572 66.944 181.759 66.6933 182.004 66.48C182.249 66.2613 182.551 66.088 182.908 65.96C183.265 65.832 183.673 65.768 184.132 65.768C184.665 65.768 185.143 65.8533 185.564 66.024C185.991 66.1893 186.359 66.4187 186.668 66.712L186.348 67.232ZM196.07 74H194.646V67.088H190.47V71.952C190.47 72.2933 190.553 72.5467 190.718 72.712C190.883 72.8773 191.097 72.96 191.358 72.96C191.507 72.96 191.635 72.9413 191.742 72.904C191.854 72.8613 191.95 72.816 192.03 72.768C192.11 72.72 192.177 72.6773 192.23 72.64C192.289 72.5973 192.339 72.576 192.382 72.576C192.457 72.576 192.523 72.6213 192.582 72.712L192.998 73.392C192.753 73.6213 192.457 73.8027 192.11 73.936C191.763 74.064 191.406 74.128 191.038 74.128C190.398 74.128 189.905 73.9493 189.558 73.592C189.217 73.2347 189.046 72.72 189.046 72.048V67.088H188.07C187.985 67.088 187.913 67.064 187.854 67.016C187.795 66.9627 187.766 66.8827 187.766 66.776V66.208L189.094 66.032L189.422 63.536C189.438 63.456 189.473 63.392 189.526 63.344C189.585 63.2907 189.659 63.264 189.75 63.264H190.47V66.056H196.07V74ZM196.422 63.296C196.422 63.4347 196.393 63.5653 196.334 63.688C196.281 63.8053 196.206 63.9093 196.11 64C196.019 64.0907 195.913 64.1627 195.79 64.216C195.667 64.2693 195.537 64.296 195.398 64.296C195.259 64.296 195.129 64.2693 195.006 64.216C194.889 64.1627 194.785 64.0907 194.694 64C194.603 63.9093 194.531 63.8053 194.478 63.688C194.425 63.5653 194.398 63.4347 194.398 63.296C194.398 63.1573 194.425 63.0267 194.478 62.904C194.531 62.776 194.603 62.6667 194.694 62.576C194.785 62.48 194.889 62.4053 195.006 62.352C195.129 62.2987 195.259 62.272 195.398 62.272C195.537 62.272 195.667 62.2987 195.79 62.352C195.913 62.4053 196.019 62.48 196.11 62.576C196.206 62.6667 196.281 62.776 196.334 62.904C196.393 63.0267 196.422 63.1573 196.422 63.296ZM199.753 67.072C199.929 66.8747 200.116 66.696 200.313 66.536C200.511 66.376 200.719 66.24 200.937 66.128C201.161 66.0107 201.396 65.9227 201.641 65.864C201.892 65.8 202.161 65.768 202.449 65.768C202.892 65.768 203.281 65.8427 203.617 65.992C203.959 66.136 204.241 66.344 204.465 66.616C204.695 66.8827 204.868 67.2053 204.985 67.584C205.103 67.9627 205.161 68.3813 205.161 68.84V74H203.729V68.84C203.729 68.2267 203.588 67.752 203.305 67.416C203.028 67.0747 202.604 66.904 202.033 66.904C201.612 66.904 201.217 67.0053 200.849 67.208C200.487 67.4107 200.151 67.6853 199.841 68.032V74H198.409V65.896H199.265C199.468 65.896 199.593 65.9947 199.641 66.192L199.753 67.072ZM210.155 70.04C210.443 70.04 210.696 70 210.915 69.92C211.134 69.84 211.318 69.728 211.467 69.584C211.616 69.44 211.728 69.2693 211.803 69.072C211.878 68.8693 211.915 68.648 211.915 68.408C211.915 67.912 211.763 67.5173 211.459 67.224C211.16 66.9307 210.726 66.784 210.155 66.784C209.579 66.784 209.139 66.9307 208.835 67.224C208.536 67.5173 208.387 67.912 208.387 68.408C208.387 68.648 208.424 68.8693 208.499 69.072C208.579 69.2693 208.694 69.44 208.843 69.584C208.992 69.728 209.176 69.84 209.395 69.92C209.614 70 209.867 70.04 210.155 70.04ZM212.723 74.44C212.723 74.2427 212.667 74.0827 212.555 73.96C212.443 73.8373 212.291 73.7413 212.099 73.672C211.912 73.6027 211.694 73.5547 211.443 73.528C211.192 73.496 210.926 73.472 210.643 73.456C210.366 73.44 210.083 73.424 209.795 73.408C209.507 73.392 209.23 73.3653 208.963 73.328C208.664 73.4667 208.419 73.6427 208.227 73.856C208.04 74.064 207.947 74.3093 207.947 74.592C207.947 74.7733 207.992 74.9413 208.083 75.096C208.179 75.256 208.323 75.392 208.515 75.504C208.707 75.6213 208.947 75.712 209.235 75.776C209.528 75.8453 209.872 75.88 210.267 75.88C210.651 75.88 210.995 75.8453 211.299 75.776C211.603 75.7067 211.859 75.608 212.067 75.48C212.28 75.352 212.443 75.2 212.555 75.024C212.667 74.848 212.723 74.6533 212.723 74.44ZM214.171 66.216V66.744C214.171 66.92 214.059 67.032 213.835 67.08L212.915 67.2C213.096 67.552 213.187 67.9413 213.187 68.368C213.187 68.7627 213.11 69.1227 212.955 69.448C212.806 69.768 212.598 70.0427 212.331 70.272C212.064 70.5013 211.744 70.6773 211.371 70.8C210.998 70.9227 210.592 70.984 210.155 70.984C209.776 70.984 209.419 70.9387 209.083 70.848C208.912 70.9547 208.782 71.0693 208.691 71.192C208.6 71.3093 208.555 71.4293 208.555 71.552C208.555 71.744 208.632 71.8907 208.787 71.992C208.947 72.088 209.155 72.1573 209.411 72.2C209.667 72.2427 209.958 72.2693 210.283 72.28C210.614 72.2907 210.95 72.3093 211.291 72.336C211.638 72.3573 211.974 72.3973 212.299 72.456C212.63 72.5147 212.923 72.6107 213.179 72.744C213.435 72.8773 213.64 73.0613 213.795 73.296C213.955 73.5307 214.035 73.8347 214.035 74.208C214.035 74.5547 213.947 74.8907 213.771 75.216C213.6 75.5413 213.352 75.8293 213.027 76.08C212.702 76.336 212.302 76.5387 211.827 76.688C211.358 76.8427 210.827 76.92 210.235 76.92C209.643 76.92 209.126 76.8613 208.683 76.744C208.24 76.6267 207.872 76.4693 207.579 76.272C207.286 76.0747 207.064 75.8453 206.915 75.584C206.771 75.328 206.699 75.0587 206.699 74.776C206.699 74.376 206.824 74.0373 207.075 73.76C207.326 73.4827 207.67 73.2613 208.107 73.096C207.867 72.9893 207.675 72.848 207.531 72.672C207.392 72.4907 207.323 72.248 207.323 71.944C207.323 71.8267 207.344 71.7067 207.387 71.584C207.43 71.456 207.494 71.3307 207.579 71.208C207.67 71.08 207.779 70.96 207.907 70.848C208.035 70.736 208.184 70.6373 208.355 70.552C207.955 70.328 207.643 70.032 207.419 69.664C207.195 69.2907 207.083 68.8587 207.083 68.368C207.083 67.9733 207.158 67.616 207.307 67.296C207.462 66.9707 207.675 66.696 207.947 66.472C208.219 66.2427 208.542 66.0667 208.915 65.944C209.294 65.8213 209.707 65.76 210.155 65.76C210.507 65.76 210.835 65.8 211.139 65.88C211.443 65.9547 211.72 66.0667 211.971 66.216H214.171ZM109.552 94.744L107.752 90.08C107.699 89.9413 107.643 89.7813 107.584 89.6C107.525 89.4133 107.469 89.216 107.416 89.008C107.304 89.44 107.189 89.8 107.072 90.088L105.272 94.744H109.552ZM112.784 99H111.584C111.445 99 111.333 98.9653 111.248 98.896C111.163 98.8267 111.099 98.7387 111.056 98.632L109.984 95.864H104.84L103.768 98.632C103.736 98.728 103.675 98.8133 103.584 98.888C103.493 98.9627 103.381 99 103.248 99H102.048L106.632 87.536H108.2L112.784 99ZM114.141 99V92.112L113.245 92.008C113.127 91.9813 113.034 91.9413 112.965 91.888C112.895 91.8293 112.861 91.7467 112.861 91.64V91.056H114.141V90.392C114.141 89.928 114.205 89.5173 114.333 89.16C114.466 88.7973 114.653 88.4933 114.893 88.248C115.133 87.9973 115.423 87.808 115.765 87.68C116.106 87.552 116.49 87.488 116.917 87.488C117.279 87.488 117.615 87.5413 117.925 87.648L117.885 88.368C117.874 88.496 117.805 88.5653 117.677 88.576C117.549 88.5867 117.373 88.592 117.149 88.592C116.903 88.592 116.679 88.624 116.477 88.688C116.279 88.7467 116.109 88.848 115.965 88.992C115.826 89.136 115.717 89.328 115.637 89.568C115.562 89.8027 115.525 90.0933 115.525 90.44V91.056H119.181V90.608C119.181 90.112 119.258 89.6587 119.413 89.248C119.567 88.832 119.799 88.4747 120.109 88.176C120.418 87.8773 120.802 87.6453 121.261 87.48C121.725 87.3147 122.261 87.232 122.869 87.232C123.071 87.232 123.279 87.2453 123.493 87.272C123.706 87.2987 123.89 87.3387 124.045 87.392L123.989 88.136C123.983 88.1893 123.962 88.2267 123.925 88.248C123.893 88.2693 123.847 88.2827 123.789 88.288C123.73 88.2933 123.655 88.296 123.565 88.296C123.479 88.2907 123.381 88.288 123.269 88.288C122.319 88.288 121.631 88.4853 121.205 88.88C120.778 89.2693 120.565 89.8587 120.565 90.648V91.056H125.461V99H124.029V92.088H120.605V99H119.181V92.088H115.565V99H114.141ZM129.144 92.072C129.32 91.8747 129.507 91.696 129.704 91.536C129.901 91.376 130.109 91.24 130.328 91.128C130.552 91.0107 130.787 90.9227 131.032 90.864C131.283 90.8 131.552 90.768 131.84 90.768C132.283 90.768 132.672 90.8427 133.008 90.992C133.349 91.136 133.632 91.344 133.856 91.616C134.085 91.8827 134.259 92.2053 134.376 92.584C134.493 92.9627 134.552 93.3813 134.552 93.84V99H133.12V93.84C133.12 93.2267 132.979 92.752 132.696 92.416C132.419 92.0747 131.995 91.904 131.424 91.904C131.003 91.904 130.608 92.0053 130.24 92.208C129.877 92.4107 129.541 92.6853 129.232 93.032V99H127.8V90.896H128.656C128.859 90.896 128.984 90.9947 129.032 91.192L129.144 92.072ZM138.226 90.896V99H136.802V90.896H138.226ZM138.53 88.352C138.53 88.4907 138.5 88.6213 138.442 88.744C138.388 88.8613 138.314 88.968 138.218 89.064C138.127 89.1547 138.018 89.2267 137.89 89.28C137.767 89.3333 137.636 89.36 137.498 89.36C137.359 89.36 137.228 89.3333 137.106 89.28C136.988 89.2267 136.884 89.1547 136.794 89.064C136.703 88.968 136.631 88.8613 136.578 88.744C136.524 88.6213 136.498 88.4907 136.498 88.352C136.498 88.2133 136.524 88.0827 136.578 87.96C136.631 87.832 136.703 87.7227 136.794 87.632C136.884 87.536 136.988 87.4613 137.106 87.408C137.228 87.3547 137.359 87.328 137.498 87.328C137.636 87.328 137.767 87.3547 137.89 87.408C138.018 87.4613 138.127 87.536 138.218 87.632C138.314 87.7227 138.388 87.832 138.442 87.96C138.5 88.0827 138.53 88.2133 138.53 88.352ZM143.054 99.128C142.414 99.128 141.92 98.9493 141.574 98.592C141.232 98.2347 141.062 97.72 141.062 97.048V92.088H140.086C140 92.088 139.928 92.064 139.87 92.016C139.811 91.9627 139.782 91.8827 139.782 91.776V91.208L141.11 91.04L141.438 88.536C141.454 88.456 141.488 88.392 141.542 88.344C141.6 88.2907 141.675 88.264 141.766 88.264H142.486V91.056H144.83V92.088H142.486V96.952C142.486 97.2933 142.568 97.5467 142.734 97.712C142.899 97.8773 143.112 97.96 143.374 97.96C143.523 97.96 143.651 97.9413 143.758 97.904C143.87 97.8613 143.966 97.816 144.046 97.768C144.126 97.72 144.192 97.6773 144.246 97.64C144.304 97.5973 144.355 97.576 144.398 97.576C144.472 97.576 144.539 97.6213 144.598 97.712L145.014 98.392C144.768 98.6213 144.472 98.8027 144.126 98.936C143.779 99.064 143.422 99.128 143.054 99.128ZM153.292 90.896L148.772 101.392C148.724 101.499 148.663 101.584 148.588 101.648C148.519 101.712 148.409 101.744 148.26 101.744H147.204L148.684 98.528L145.34 90.896H146.572C146.695 90.896 146.791 90.928 146.86 90.992C146.935 91.0507 146.985 91.1173 147.012 91.192L149.18 96.296C149.265 96.52 149.337 96.7547 149.396 97C149.471 96.7493 149.551 96.512 149.636 96.288L151.74 91.192C151.772 91.1067 151.825 91.0373 151.9 90.984C151.98 90.9253 152.068 90.896 152.164 90.896H153.292ZM158.253 99V90.896H159.109C159.312 90.896 159.437 90.9947 159.485 91.192L159.589 92.024C159.888 91.656 160.224 91.3547 160.597 91.12C160.97 90.8853 161.402 90.768 161.893 90.768C162.437 90.768 162.877 90.92 163.213 91.224C163.554 91.528 163.8 91.9387 163.949 92.456C164.066 92.1627 164.216 91.9093 164.397 91.696C164.584 91.4827 164.792 91.3067 165.021 91.168C165.25 91.0293 165.493 90.928 165.749 90.864C166.01 90.8 166.274 90.768 166.541 90.768C166.968 90.768 167.346 90.8373 167.677 90.976C168.013 91.1093 168.296 91.3067 168.525 91.568C168.76 91.8293 168.938 92.152 169.061 92.536C169.184 92.9147 169.245 93.3493 169.245 93.84V99H167.813V93.84C167.813 93.2053 167.674 92.7253 167.397 92.4C167.12 92.0693 166.72 91.904 166.197 91.904C165.962 91.904 165.738 91.9467 165.525 92.032C165.317 92.112 165.133 92.232 164.973 92.392C164.813 92.552 164.685 92.7547 164.589 93C164.498 93.24 164.453 93.52 164.453 93.84V99H163.021V93.84C163.021 93.1893 162.89 92.704 162.629 92.384C162.368 92.064 161.986 91.904 161.485 91.904C161.133 91.904 160.808 92 160.509 92.192C160.21 92.3787 159.936 92.6347 159.685 92.96V99H158.253ZM175.801 95.352C175.145 95.3733 174.585 95.4267 174.121 95.512C173.663 95.592 173.287 95.6987 172.993 95.832C172.705 95.9653 172.495 96.1227 172.361 96.304C172.233 96.4853 172.169 96.688 172.169 96.912C172.169 97.1253 172.204 97.3093 172.273 97.464C172.343 97.6187 172.436 97.7467 172.553 97.848C172.676 97.944 172.817 98.016 172.977 98.064C173.143 98.1067 173.319 98.128 173.505 98.128C173.756 98.128 173.985 98.104 174.193 98.056C174.401 98.0027 174.596 97.928 174.777 97.832C174.964 97.736 175.14 97.6213 175.305 97.488C175.476 97.3547 175.641 97.2027 175.801 97.032V95.352ZM171.201 92.04C171.649 91.608 172.132 91.2853 172.649 91.072C173.167 90.8587 173.74 90.752 174.369 90.752C174.823 90.752 175.225 90.8267 175.577 90.976C175.929 91.1253 176.225 91.3333 176.465 91.6C176.705 91.8667 176.887 92.1893 177.009 92.568C177.132 92.9467 177.193 93.3627 177.193 93.816V99H176.561C176.423 99 176.316 98.9787 176.241 98.936C176.167 98.888 176.108 98.7973 176.065 98.664L175.905 97.896C175.692 98.0933 175.484 98.2693 175.281 98.424C175.079 98.5733 174.865 98.7013 174.641 98.808C174.417 98.9093 174.177 98.9867 173.921 99.04C173.671 99.0987 173.391 99.128 173.081 99.128C172.767 99.128 172.471 99.0853 172.193 99C171.916 98.9093 171.673 98.776 171.465 98.6C171.263 98.424 171.1 98.2027 170.977 97.936C170.86 97.664 170.801 97.344 170.801 96.976C170.801 96.656 170.889 96.3493 171.065 96.056C171.241 95.7573 171.527 95.4933 171.921 95.264C172.316 95.0347 172.831 94.848 173.465 94.704C174.1 94.5547 174.879 94.4693 175.801 94.448V93.816C175.801 93.1867 175.665 92.712 175.393 92.392C175.121 92.0667 174.724 91.904 174.201 91.904C173.849 91.904 173.553 91.9493 173.313 92.04C173.079 92.1253 172.873 92.224 172.697 92.336C172.527 92.4427 172.377 92.5413 172.249 92.632C172.127 92.7173 172.004 92.76 171.881 92.76C171.785 92.76 171.703 92.736 171.633 92.688C171.564 92.6347 171.505 92.5707 171.457 92.496L171.201 92.04ZM180.794 97.048C181.056 97.4 181.341 97.648 181.65 97.792C181.96 97.936 182.306 98.008 182.69 98.008C183.448 98.008 184.029 97.7387 184.434 97.2C184.84 96.6613 185.042 95.8933 185.042 94.896C185.042 94.368 184.994 93.9147 184.898 93.536C184.808 93.1573 184.674 92.848 184.498 92.608C184.322 92.3627 184.106 92.184 183.85 92.072C183.594 91.96 183.304 91.904 182.978 91.904C182.514 91.904 182.106 92.0107 181.754 92.224C181.408 92.4373 181.088 92.7387 180.794 93.128V97.048ZM180.722 92.152C181.064 91.7307 181.458 91.392 181.906 91.136C182.354 90.88 182.866 90.752 183.442 90.752C183.912 90.752 184.336 90.8427 184.714 91.024C185.093 91.2 185.416 91.464 185.682 91.816C185.949 92.1627 186.154 92.5947 186.298 93.112C186.442 93.6293 186.514 94.224 186.514 94.896C186.514 95.4933 186.434 96.0507 186.274 96.568C186.114 97.08 185.882 97.5253 185.578 97.904C185.28 98.2773 184.912 98.5733 184.474 98.792C184.042 99.0053 183.554 99.112 183.01 99.112C182.514 99.112 182.088 99.0293 181.73 98.864C181.378 98.6933 181.066 98.4587 180.794 98.16V101.744H179.362V90.896H180.218C180.421 90.896 180.546 90.9947 180.594 91.192L180.722 92.152ZM189.763 97.048C190.024 97.4 190.31 97.648 190.619 97.792C190.928 97.936 191.275 98.008 191.659 98.008C192.416 98.008 192.998 97.7387 193.403 97.2C193.808 96.6613 194.011 95.8933 194.011 94.896C194.011 94.368 193.963 93.9147 193.867 93.536C193.776 93.1573 193.643 92.848 193.467 92.608C193.291 92.3627 193.075 92.184 192.819 92.072C192.563 91.96 192.272 91.904 191.947 91.904C191.483 91.904 191.075 92.0107 190.723 92.224C190.376 92.4373 190.056 92.7387 189.763 93.128V97.048ZM189.691 92.152C190.032 91.7307 190.427 91.392 190.875 91.136C191.323 90.88 191.835 90.752 192.411 90.752C192.88 90.752 193.304 90.8427 193.683 91.024C194.062 91.2 194.384 91.464 194.651 91.816C194.918 92.1627 195.123 92.5947 195.267 93.112C195.411 93.6293 195.483 94.224 195.483 94.896C195.483 95.4933 195.403 96.0507 195.243 96.568C195.083 97.08 194.851 97.5253 194.547 97.904C194.248 98.2773 193.88 98.5733 193.443 98.792C193.011 99.0053 192.523 99.112 191.979 99.112C191.483 99.112 191.056 99.0293 190.699 98.864C190.347 98.6933 190.035 98.4587 189.763 98.16V101.744H188.331V90.896H189.187C189.39 90.896 189.515 90.9947 189.563 91.192L189.691 92.152ZM198.804 90.896V99H197.38V90.896H198.804ZM199.108 88.352C199.108 88.4907 199.079 88.6213 199.02 88.744C198.967 88.8613 198.892 88.968 198.796 89.064C198.705 89.1547 198.596 89.2267 198.468 89.28C198.345 89.3333 198.215 89.36 198.076 89.36C197.937 89.36 197.807 89.3333 197.684 89.28C197.567 89.2267 197.463 89.1547 197.372 89.064C197.281 88.968 197.209 88.8613 197.156 88.744C197.103 88.6213 197.076 88.4907 197.076 88.352C197.076 88.2133 197.103 88.0827 197.156 87.96C197.209 87.832 197.281 87.7227 197.372 87.632C197.463 87.536 197.567 87.4613 197.684 87.408C197.807 87.3547 197.937 87.328 198.076 87.328C198.215 87.328 198.345 87.3547 198.468 87.408C198.596 87.4613 198.705 87.536 198.796 87.632C198.892 87.7227 198.967 87.832 199.02 87.96C199.079 88.0827 199.108 88.2133 199.108 88.352ZM202.488 92.072C202.664 91.8747 202.85 91.696 203.048 91.536C203.245 91.376 203.453 91.24 203.672 91.128C203.896 91.0107 204.13 90.9227 204.376 90.864C204.626 90.8 204.896 90.768 205.184 90.768C205.626 90.768 206.016 90.8427 206.352 90.992C206.693 91.136 206.976 91.344 207.2 91.616C207.429 91.8827 207.602 92.2053 207.72 92.584C207.837 92.9627 207.896 93.3813 207.896 93.84V99H206.464V93.84C206.464 93.2267 206.322 92.752 206.04 92.416C205.762 92.0747 205.338 91.904 204.768 91.904C204.346 91.904 203.952 92.0053 203.584 92.208C203.221 92.4107 202.885 92.6853 202.576 93.032V99H201.144V90.896H202C202.202 90.896 202.328 90.9947 202.376 91.192L202.488 92.072ZM212.89 95.04C213.178 95.04 213.431 95 213.65 94.92C213.868 94.84 214.052 94.728 214.202 94.584C214.351 94.44 214.463 94.2693 214.538 94.072C214.612 93.8693 214.65 93.648 214.65 93.408C214.65 92.912 214.498 92.5173 214.194 92.224C213.895 91.9307 213.46 91.784 212.89 91.784C212.314 91.784 211.874 91.9307 211.57 92.224C211.271 92.5173 211.122 92.912 211.122 93.408C211.122 93.648 211.159 93.8693 211.234 94.072C211.314 94.2693 211.428 94.44 211.578 94.584C211.727 94.728 211.911 94.84 212.13 94.92C212.348 95 212.602 95.04 212.89 95.04ZM215.458 99.44C215.458 99.2427 215.402 99.0827 215.29 98.96C215.178 98.8373 215.026 98.7413 214.834 98.672C214.647 98.6027 214.428 98.5547 214.178 98.528C213.927 98.496 213.66 98.472 213.378 98.456C213.1 98.44 212.818 98.424 212.53 98.408C212.242 98.392 211.964 98.3653 211.698 98.328C211.399 98.4667 211.154 98.6427 210.962 98.856C210.775 99.064 210.682 99.3093 210.682 99.592C210.682 99.7733 210.727 99.9413 210.818 100.096C210.914 100.256 211.058 100.392 211.25 100.504C211.442 100.621 211.682 100.712 211.97 100.776C212.263 100.845 212.607 100.88 213.002 100.88C213.386 100.88 213.73 100.845 214.034 100.776C214.338 100.707 214.594 100.608 214.802 100.48C215.015 100.352 215.178 100.2 215.29 100.024C215.402 99.848 215.458 99.6533 215.458 99.44ZM216.906 91.216V91.744C216.906 91.92 216.794 92.032 216.57 92.08L215.65 92.2C215.831 92.552 215.922 92.9413 215.922 93.368C215.922 93.7627 215.844 94.1227 215.69 94.448C215.54 94.768 215.332 95.0427 215.066 95.272C214.799 95.5013 214.479 95.6773 214.106 95.8C213.732 95.9227 213.327 95.984 212.89 95.984C212.511 95.984 212.154 95.9387 211.818 95.848C211.647 95.9547 211.516 96.0693 211.426 96.192C211.335 96.3093 211.289 96.4293 211.289 96.552C211.289 96.744 211.367 96.8907 211.522 96.992C211.682 97.088 211.89 97.1573 212.146 97.2C212.402 97.2427 212.692 97.2693 213.018 97.28C213.348 97.2907 213.684 97.3093 214.026 97.336C214.372 97.3573 214.708 97.3973 215.034 97.456C215.364 97.5147 215.658 97.6107 215.914 97.744C216.17 97.8773 216.375 98.0613 216.53 98.296C216.69 98.5307 216.77 98.8347 216.77 99.208C216.77 99.5547 216.682 99.8907 216.506 100.216C216.335 100.541 216.087 100.829 215.762 101.08C215.436 101.336 215.036 101.539 214.562 101.688C214.092 101.843 213.562 101.92 212.97 101.92C212.378 101.92 211.86 101.861 211.418 101.744C210.975 101.627 210.607 101.469 210.314 101.272C210.02 101.075 209.799 100.845 209.65 100.584C209.506 100.328 209.434 100.059 209.434 99.776C209.434 99.376 209.559 99.0373 209.81 98.76C210.06 98.4827 210.404 98.2613 210.842 98.096C210.602 97.9893 210.41 97.848 210.266 97.672C210.127 97.4907 210.058 97.248 210.058 96.944C210.058 96.8267 210.079 96.7067 210.122 96.584C210.164 96.456 210.228 96.3307 210.314 96.208C210.404 96.08 210.514 95.96 210.642 95.848C210.77 95.736 210.919 95.6373 211.09 95.552C210.69 95.328 210.378 95.032 210.154 94.664C209.93 94.2907 209.818 93.8587 209.818 93.368C209.818 92.9733 209.892 92.616 210.042 92.296C210.196 91.9707 210.41 91.696 210.682 91.472C210.954 91.2427 211.276 91.0667 211.65 90.944C212.028 90.8213 212.442 90.76 212.89 90.76C213.242 90.76 213.57 90.8 213.874 90.88C214.178 90.9547 214.455 91.0667 214.706 91.216H216.906ZM113.4 118.272C113.4 119.131 113.264 119.912 112.992 120.616C112.72 121.32 112.336 121.923 111.84 122.424C111.344 122.925 110.747 123.315 110.048 123.592C109.355 123.864 108.587 124 107.744 124H103.464V112.536H107.744C108.587 112.536 109.355 112.675 110.048 112.952C110.747 113.224 111.344 113.613 111.84 114.12C112.336 114.621 112.72 115.224 112.992 115.928C113.264 116.632 113.4 117.413 113.4 118.272ZM111.808 118.272C111.808 117.568 111.712 116.939 111.52 116.384C111.328 115.829 111.056 115.36 110.704 114.976C110.352 114.592 109.925 114.299 109.424 114.096C108.923 113.893 108.363 113.792 107.744 113.792H105.016V122.744H107.744C108.363 122.744 108.923 122.643 109.424 122.44C109.925 122.237 110.352 121.947 110.704 121.568C111.056 121.184 111.328 120.715 111.52 120.16C111.712 119.605 111.808 118.976 111.808 118.272ZM120.615 119.064C120.615 118.733 120.567 118.432 120.471 118.16C120.38 117.883 120.244 117.645 120.063 117.448C119.887 117.245 119.671 117.091 119.415 116.984C119.159 116.872 118.868 116.816 118.543 116.816C117.86 116.816 117.319 117.016 116.919 117.416C116.524 117.811 116.279 118.36 116.183 119.064H120.615ZM121.767 122.864C121.591 123.077 121.38 123.264 121.135 123.424C120.889 123.579 120.625 123.707 120.343 123.808C120.065 123.909 119.777 123.984 119.479 124.032C119.18 124.085 118.884 124.112 118.591 124.112C118.031 124.112 117.513 124.019 117.039 123.832C116.569 123.64 116.161 123.363 115.815 123C115.473 122.632 115.207 122.179 115.015 121.64C114.823 121.101 114.727 120.483 114.727 119.784C114.727 119.219 114.812 118.691 114.983 118.2C115.159 117.709 115.409 117.285 115.735 116.928C116.06 116.565 116.457 116.283 116.927 116.08C117.396 115.872 117.924 115.768 118.511 115.768C118.996 115.768 119.444 115.851 119.855 116.016C120.271 116.176 120.628 116.411 120.927 116.72C121.231 117.024 121.468 117.403 121.639 117.856C121.809 118.304 121.895 118.816 121.895 119.392C121.895 119.616 121.871 119.765 121.823 119.84C121.775 119.915 121.684 119.952 121.551 119.952H116.135C116.151 120.464 116.22 120.909 116.343 121.288C116.471 121.667 116.647 121.984 116.871 122.24C117.095 122.491 117.361 122.68 117.671 122.808C117.98 122.931 118.327 122.992 118.711 122.992C119.068 122.992 119.375 122.952 119.631 122.872C119.892 122.787 120.116 122.696 120.303 122.6C120.489 122.504 120.644 122.416 120.767 122.336C120.895 122.251 121.004 122.208 121.095 122.208C121.212 122.208 121.303 122.253 121.367 122.344L121.767 122.864ZM128.364 117.232C128.3 117.349 128.201 117.408 128.068 117.408C127.988 117.408 127.897 117.379 127.796 117.32C127.694 117.261 127.569 117.197 127.42 117.128C127.276 117.053 127.102 116.987 126.9 116.928C126.697 116.864 126.457 116.832 126.18 116.832C125.94 116.832 125.724 116.864 125.532 116.928C125.34 116.987 125.174 117.069 125.036 117.176C124.902 117.283 124.798 117.408 124.724 117.552C124.654 117.691 124.62 117.843 124.62 118.008C124.62 118.216 124.678 118.389 124.796 118.528C124.918 118.667 125.078 118.787 125.276 118.888C125.473 118.989 125.697 119.08 125.948 119.16C126.198 119.235 126.454 119.317 126.716 119.408C126.982 119.493 127.241 119.589 127.492 119.696C127.742 119.803 127.966 119.936 128.164 120.096C128.361 120.256 128.518 120.453 128.636 120.688C128.758 120.917 128.82 121.195 128.82 121.52C128.82 121.893 128.753 122.24 128.62 122.56C128.486 122.875 128.289 123.149 128.028 123.384C127.766 123.613 127.446 123.795 127.068 123.928C126.689 124.061 126.252 124.128 125.756 124.128C125.19 124.128 124.678 124.037 124.22 123.856C123.761 123.669 123.372 123.432 123.052 123.144L123.388 122.6C123.43 122.531 123.481 122.477 123.54 122.44C123.598 122.403 123.673 122.384 123.764 122.384C123.86 122.384 123.961 122.421 124.068 122.496C124.174 122.571 124.302 122.653 124.452 122.744C124.606 122.835 124.793 122.917 125.012 122.992C125.23 123.067 125.502 123.104 125.828 123.104C126.105 123.104 126.348 123.069 126.556 123C126.764 122.925 126.937 122.827 127.076 122.704C127.214 122.581 127.316 122.44 127.38 122.28C127.449 122.12 127.484 121.949 127.484 121.768C127.484 121.544 127.422 121.36 127.3 121.216C127.182 121.067 127.025 120.941 126.828 120.84C126.63 120.733 126.404 120.643 126.148 120.568C125.897 120.488 125.638 120.405 125.372 120.32C125.11 120.235 124.852 120.139 124.596 120.032C124.345 119.92 124.121 119.781 123.924 119.616C123.726 119.451 123.566 119.248 123.444 119.008C123.326 118.763 123.268 118.467 123.268 118.12C123.268 117.811 123.332 117.515 123.46 117.232C123.588 116.944 123.774 116.693 124.02 116.48C124.265 116.261 124.566 116.088 124.924 115.96C125.281 115.832 125.689 115.768 126.148 115.768C126.681 115.768 127.158 115.853 127.58 116.024C128.006 116.189 128.374 116.419 128.684 116.712L128.364 117.232ZM132.07 115.896V124H130.646V115.896H132.07ZM132.374 113.352C132.374 113.491 132.344 113.621 132.286 113.744C132.232 113.861 132.158 113.968 132.062 114.064C131.971 114.155 131.862 114.227 131.734 114.28C131.611 114.333 131.48 114.36 131.342 114.36C131.203 114.36 131.072 114.333 130.95 114.28C130.832 114.227 130.728 114.155 130.638 114.064C130.547 113.968 130.475 113.861 130.422 113.744C130.368 113.621 130.342 113.491 130.342 113.352C130.342 113.213 130.368 113.083 130.422 112.96C130.475 112.832 130.547 112.723 130.638 112.632C130.728 112.536 130.832 112.461 130.95 112.408C131.072 112.355 131.203 112.328 131.342 112.328C131.48 112.328 131.611 112.355 131.734 112.408C131.862 112.461 131.971 112.536 132.062 112.632C132.158 112.723 132.232 112.832 132.286 112.96C132.344 113.083 132.374 113.213 132.374 113.352ZM137.233 120.04C137.521 120.04 137.775 120 137.993 119.92C138.212 119.84 138.396 119.728 138.545 119.584C138.695 119.44 138.807 119.269 138.881 119.072C138.956 118.869 138.993 118.648 138.993 118.408C138.993 117.912 138.841 117.517 138.537 117.224C138.239 116.931 137.804 116.784 137.233 116.784C136.657 116.784 136.217 116.931 135.913 117.224C135.615 117.517 135.465 117.912 135.465 118.408C135.465 118.648 135.503 118.869 135.577 119.072C135.657 119.269 135.772 119.44 135.921 119.584C136.071 119.728 136.255 119.84 136.473 119.92C136.692 120 136.945 120.04 137.233 120.04ZM139.801 124.44C139.801 124.243 139.745 124.083 139.633 123.96C139.521 123.837 139.369 123.741 139.177 123.672C138.991 123.603 138.772 123.555 138.521 123.528C138.271 123.496 138.004 123.472 137.721 123.456C137.444 123.44 137.161 123.424 136.873 123.408C136.585 123.392 136.308 123.365 136.041 123.328C135.743 123.467 135.497 123.643 135.305 123.856C135.119 124.064 135.025 124.309 135.025 124.592C135.025 124.773 135.071 124.941 135.161 125.096C135.257 125.256 135.401 125.392 135.593 125.504C135.785 125.621 136.025 125.712 136.313 125.776C136.607 125.845 136.951 125.88 137.345 125.88C137.729 125.88 138.073 125.845 138.377 125.776C138.681 125.707 138.937 125.608 139.145 125.48C139.359 125.352 139.521 125.2 139.633 125.024C139.745 124.848 139.801 124.653 139.801 124.44ZM141.249 116.216V116.744C141.249 116.92 141.137 117.032 140.913 117.08L139.993 117.2C140.175 117.552 140.265 117.941 140.265 118.368C140.265 118.763 140.188 119.123 140.033 119.448C139.884 119.768 139.676 120.043 139.409 120.272C139.143 120.501 138.823 120.677 138.449 120.8C138.076 120.923 137.671 120.984 137.233 120.984C136.855 120.984 136.497 120.939 136.161 120.848C135.991 120.955 135.86 121.069 135.769 121.192C135.679 121.309 135.633 121.429 135.633 121.552C135.633 121.744 135.711 121.891 135.865 121.992C136.025 122.088 136.233 122.157 136.489 122.2C136.745 122.243 137.036 122.269 137.361 122.28C137.692 122.291 138.028 122.309 138.369 122.336C138.716 122.357 139.052 122.397 139.377 122.456C139.708 122.515 140.001 122.611 140.257 122.744C140.513 122.877 140.719 123.061 140.873 123.296C141.033 123.531 141.113 123.835 141.113 124.208C141.113 124.555 141.025 124.891 140.849 125.216C140.679 125.541 140.431 125.829 140.105 126.08C139.78 126.336 139.38 126.539 138.905 126.688C138.436 126.843 137.905 126.92 137.313 126.92C136.721 126.92 136.204 126.861 135.761 126.744C135.319 126.627 134.951 126.469 134.657 126.272C134.364 126.075 134.143 125.845 133.993 125.584C133.849 125.328 133.777 125.059 133.777 124.776C133.777 124.376 133.903 124.037 134.153 123.76C134.404 123.483 134.748 123.261 135.185 123.096C134.945 122.989 134.753 122.848 134.609 122.672C134.471 122.491 134.401 122.248 134.401 121.944C134.401 121.827 134.423 121.707 134.465 121.584C134.508 121.456 134.572 121.331 134.657 121.208C134.748 121.08 134.857 120.96 134.985 120.848C135.113 120.736 135.263 120.637 135.433 120.552C135.033 120.328 134.721 120.032 134.497 119.664C134.273 119.291 134.161 118.859 134.161 118.368C134.161 117.973 134.236 117.616 134.385 117.296C134.54 116.971 134.753 116.696 135.025 116.472C135.297 116.243 135.62 116.067 135.993 115.944C136.372 115.821 136.785 115.76 137.233 115.76C137.585 115.76 137.913 115.8 138.217 115.88C138.521 115.955 138.799 116.067 139.049 116.216H141.249ZM144.066 117.072C144.242 116.875 144.428 116.696 144.626 116.536C144.823 116.376 145.031 116.24 145.25 116.128C145.474 116.011 145.708 115.923 145.954 115.864C146.204 115.8 146.474 115.768 146.762 115.768C147.204 115.768 147.594 115.843 147.93 115.992C148.271 116.136 148.554 116.344 148.778 116.616C149.007 116.883 149.18 117.205 149.298 117.584C149.415 117.963 149.474 118.381 149.474 118.84V124H148.042V118.84C148.042 118.227 147.9 117.752 147.618 117.416C147.34 117.075 146.916 116.904 146.346 116.904C145.924 116.904 145.53 117.005 145.162 117.208C144.799 117.411 144.463 117.685 144.154 118.032V124H142.722V115.896H143.578C143.78 115.896 143.906 115.995 143.954 116.192L144.066 117.072ZM157.241 115.896V124H155.817V115.896H157.241ZM157.545 113.352C157.545 113.491 157.516 113.621 157.457 113.744C157.404 113.861 157.329 113.968 157.233 114.064C157.143 114.155 157.033 114.227 156.905 114.28C156.783 114.333 156.652 114.36 156.513 114.36C156.375 114.36 156.244 114.333 156.121 114.28C156.004 114.227 155.9 114.155 155.809 114.064C155.719 113.968 155.647 113.861 155.593 113.744C155.54 113.621 155.513 113.491 155.513 113.352C155.513 113.213 155.54 113.083 155.593 112.96C155.647 112.832 155.719 112.723 155.809 112.632C155.9 112.536 156.004 112.461 156.121 112.408C156.244 112.355 156.375 112.328 156.513 112.328C156.652 112.328 156.783 112.355 156.905 112.408C157.033 112.461 157.143 112.536 157.233 112.632C157.329 112.723 157.404 112.832 157.457 112.96C157.516 113.083 157.545 113.213 157.545 113.352ZM162.069 124.128C161.429 124.128 160.936 123.949 160.589 123.592C160.248 123.235 160.077 122.72 160.077 122.048V117.088H159.101C159.016 117.088 158.944 117.064 158.885 117.016C158.826 116.963 158.797 116.883 158.797 116.776V116.208L160.125 116.04L160.453 113.536C160.469 113.456 160.504 113.392 160.557 113.344C160.616 113.291 160.69 113.264 160.781 113.264H161.501V116.056H163.845V117.088H161.501V121.952C161.501 122.293 161.584 122.547 161.749 122.712C161.914 122.877 162.128 122.96 162.389 122.96C162.538 122.96 162.666 122.941 162.773 122.904C162.885 122.861 162.981 122.816 163.061 122.768C163.141 122.72 163.208 122.677 163.261 122.64C163.32 122.597 163.37 122.576 163.413 122.576C163.488 122.576 163.554 122.621 163.613 122.712L164.029 123.392C163.784 123.621 163.488 123.803 163.141 123.936C162.794 124.064 162.437 124.128 162.069 124.128ZM170.693 119.064C170.693 118.733 170.645 118.432 170.549 118.16C170.458 117.883 170.322 117.645 170.141 117.448C169.965 117.245 169.749 117.091 169.493 116.984C169.237 116.872 168.946 116.816 168.621 116.816C167.938 116.816 167.397 117.016 166.997 117.416C166.602 117.811 166.357 118.36 166.261 119.064H170.693ZM171.845 122.864C171.669 123.077 171.458 123.264 171.213 123.424C170.967 123.579 170.703 123.707 170.421 123.808C170.143 123.909 169.855 123.984 169.557 124.032C169.258 124.085 168.962 124.112 168.669 124.112C168.109 124.112 167.591 124.019 167.117 123.832C166.647 123.64 166.239 123.363 165.893 123C165.551 122.632 165.285 122.179 165.093 121.64C164.901 121.101 164.805 120.483 164.805 119.784C164.805 119.219 164.89 118.691 165.061 118.2C165.237 117.709 165.487 117.285 165.813 116.928C166.138 116.565 166.535 116.283 167.005 116.08C167.474 115.872 168.002 115.768 168.589 115.768C169.074 115.768 169.522 115.851 169.933 116.016C170.349 116.176 170.706 116.411 171.005 116.72C171.309 117.024 171.546 117.403 171.717 117.856C171.887 118.304 171.973 118.816 171.973 119.392C171.973 119.616 171.949 119.765 171.901 119.84C171.853 119.915 171.762 119.952 171.629 119.952H166.213C166.229 120.464 166.298 120.909 166.421 121.288C166.549 121.667 166.725 121.984 166.949 122.24C167.173 122.491 167.439 122.68 167.749 122.808C168.058 122.931 168.405 122.992 168.789 122.992C169.146 122.992 169.453 122.952 169.709 122.872C169.97 122.787 170.194 122.696 170.381 122.6C170.567 122.504 170.722 122.416 170.845 122.336C170.973 122.251 171.082 122.208 171.173 122.208C171.29 122.208 171.381 122.253 171.445 122.344L171.845 122.864ZM175.074 117.52C175.33 116.965 175.644 116.533 176.018 116.224C176.391 115.909 176.847 115.752 177.386 115.752C177.556 115.752 177.719 115.771 177.874 115.808C178.034 115.845 178.175 115.904 178.298 115.984L178.194 117.048C178.162 117.181 178.082 117.248 177.954 117.248C177.879 117.248 177.77 117.232 177.626 117.2C177.482 117.168 177.319 117.152 177.138 117.152C176.882 117.152 176.652 117.189 176.45 117.264C176.252 117.339 176.074 117.451 175.914 117.6C175.759 117.744 175.618 117.925 175.49 118.144C175.367 118.357 175.255 118.603 175.154 118.88V124H173.722V115.896H174.538C174.692 115.896 174.799 115.925 174.858 115.984C174.916 116.043 174.956 116.144 174.978 116.288L175.074 117.52ZM183.817 120.352C183.161 120.373 182.601 120.427 182.137 120.512C181.678 120.592 181.302 120.699 181.009 120.832C180.721 120.965 180.51 121.123 180.377 121.304C180.249 121.485 180.185 121.688 180.185 121.912C180.185 122.125 180.22 122.309 180.289 122.464C180.358 122.619 180.452 122.747 180.569 122.848C180.692 122.944 180.833 123.016 180.993 123.064C181.158 123.107 181.334 123.128 181.521 123.128C181.772 123.128 182.001 123.104 182.209 123.056C182.417 123.003 182.612 122.928 182.793 122.832C182.98 122.736 183.156 122.621 183.321 122.488C183.492 122.355 183.657 122.203 183.817 122.032V120.352ZM179.217 117.04C179.665 116.608 180.148 116.285 180.665 116.072C181.182 115.859 181.756 115.752 182.385 115.752C182.838 115.752 183.241 115.827 183.593 115.976C183.945 116.125 184.241 116.333 184.481 116.6C184.721 116.867 184.902 117.189 185.025 117.568C185.148 117.947 185.209 118.363 185.209 118.816V124H184.577C184.438 124 184.332 123.979 184.257 123.936C184.182 123.888 184.124 123.797 184.081 123.664L183.921 122.896C183.708 123.093 183.5 123.269 183.297 123.424C183.094 123.573 182.881 123.701 182.657 123.808C182.433 123.909 182.193 123.987 181.937 124.04C181.686 124.099 181.406 124.128 181.097 124.128C180.782 124.128 180.486 124.085 180.209 124C179.932 123.909 179.689 123.776 179.481 123.6C179.278 123.424 179.116 123.203 178.993 122.936C178.876 122.664 178.817 122.344 178.817 121.976C178.817 121.656 178.905 121.349 179.081 121.056C179.257 120.757 179.542 120.493 179.937 120.264C180.332 120.035 180.846 119.848 181.481 119.704C182.116 119.555 182.894 119.469 183.817 119.448V118.816C183.817 118.187 183.681 117.712 183.409 117.392C183.137 117.067 182.74 116.904 182.217 116.904C181.865 116.904 181.569 116.949 181.329 117.04C181.094 117.125 180.889 117.224 180.713 117.336C180.542 117.443 180.393 117.541 180.265 117.632C180.142 117.717 180.02 117.76 179.897 117.76C179.801 117.76 179.718 117.736 179.649 117.688C179.58 117.635 179.521 117.571 179.473 117.496L179.217 117.04ZM194.789 124H193.365V117.088H189.189V121.952C189.189 122.293 189.271 122.547 189.437 122.712C189.602 122.877 189.815 122.96 190.077 122.96C190.226 122.96 190.354 122.941 190.461 122.904C190.573 122.861 190.669 122.816 190.749 122.768C190.829 122.72 190.895 122.677 190.949 122.64C191.007 122.597 191.058 122.576 191.101 122.576C191.175 122.576 191.242 122.621 191.301 122.712L191.717 123.392C191.471 123.621 191.175 123.803 190.829 123.936C190.482 124.064 190.125 124.128 189.757 124.128C189.117 124.128 188.623 123.949 188.277 123.592C187.935 123.235 187.765 122.72 187.765 122.048V117.088H186.789C186.703 117.088 186.631 117.064 186.573 117.016C186.514 116.963 186.485 116.883 186.485 116.776V116.208L187.813 116.032L188.141 113.536C188.157 113.456 188.191 113.392 188.245 113.344C188.303 113.291 188.378 113.264 188.469 113.264H189.189V116.056H194.789V124ZM195.141 113.296C195.141 113.435 195.111 113.565 195.053 113.688C194.999 113.805 194.925 113.909 194.829 114C194.738 114.091 194.631 114.163 194.509 114.216C194.386 114.269 194.255 114.296 194.117 114.296C193.978 114.296 193.847 114.269 193.725 114.216C193.607 114.163 193.503 114.091 193.413 114C193.322 113.909 193.25 113.805 193.197 113.688C193.143 113.565 193.117 113.435 193.117 113.296C193.117 113.157 193.143 113.027 193.197 112.904C193.25 112.776 193.322 112.667 193.413 112.576C193.503 112.48 193.607 112.405 193.725 112.352C193.847 112.299 193.978 112.272 194.117 112.272C194.255 112.272 194.386 112.299 194.509 112.352C194.631 112.405 194.738 112.48 194.829 112.576C194.925 112.667 194.999 112.776 195.053 112.904C195.111 113.027 195.141 113.157 195.141 113.296ZM200.544 115.768C201.136 115.768 201.669 115.867 202.144 116.064C202.619 116.261 203.024 116.541 203.36 116.904C203.696 117.267 203.952 117.707 204.128 118.224C204.309 118.736 204.4 119.309 204.4 119.944C204.4 120.584 204.309 121.16 204.128 121.672C203.952 122.184 203.696 122.621 203.36 122.984C203.024 123.347 202.619 123.627 202.144 123.824C201.669 124.016 201.136 124.112 200.544 124.112C199.947 124.112 199.408 124.016 198.928 123.824C198.453 123.627 198.048 123.347 197.712 122.984C197.376 122.621 197.117 122.184 196.936 121.672C196.76 121.16 196.672 120.584 196.672 119.944C196.672 119.309 196.76 118.736 196.936 118.224C197.117 117.707 197.376 117.267 197.712 116.904C198.048 116.541 198.453 116.261 198.928 116.064C199.408 115.867 199.947 115.768 200.544 115.768ZM200.544 123C201.344 123 201.941 122.733 202.336 122.2C202.731 121.661 202.928 120.912 202.928 119.952C202.928 118.987 202.731 118.235 202.336 117.696C201.941 117.157 201.344 116.888 200.544 116.888C200.139 116.888 199.784 116.957 199.48 117.096C199.181 117.235 198.931 117.435 198.728 117.696C198.531 117.957 198.381 118.28 198.28 118.664C198.184 119.043 198.136 119.472 198.136 119.952C198.136 120.912 198.333 121.661 198.728 122.2C199.128 122.733 199.733 123 200.544 123ZM207.55 117.072C207.726 116.875 207.913 116.696 208.11 116.536C208.307 116.376 208.515 116.24 208.734 116.128C208.958 116.011 209.193 115.923 209.438 115.864C209.689 115.8 209.958 115.768 210.246 115.768C210.689 115.768 211.078 115.843 211.414 115.992C211.755 116.136 212.038 116.344 212.262 116.616C212.491 116.883 212.665 117.205 212.782 117.584C212.899 117.963 212.958 118.381 212.958 118.84V124H211.526V118.84C211.526 118.227 211.385 117.752 211.102 117.416C210.825 117.075 210.401 116.904 209.83 116.904C209.409 116.904 209.014 117.005 208.646 117.208C208.283 117.411 207.947 117.685 207.638 118.032V124H206.206V115.896H207.062C207.265 115.896 207.39 115.995 207.438 116.192L207.55 117.072ZM219.848 117.232C219.784 117.349 219.685 117.408 219.552 117.408C219.472 117.408 219.381 117.379 219.28 117.32C219.179 117.261 219.053 117.197 218.904 117.128C218.76 117.053 218.587 116.987 218.384 116.928C218.181 116.864 217.941 116.832 217.664 116.832C217.424 116.832 217.208 116.864 217.016 116.928C216.824 116.987 216.659 117.069 216.52 117.176C216.387 117.283 216.283 117.408 216.208 117.552C216.139 117.691 216.104 117.843 216.104 118.008C216.104 118.216 216.163 118.389 216.28 118.528C216.403 118.667 216.563 118.787 216.76 118.888C216.957 118.989 217.181 119.08 217.432 119.16C217.683 119.235 217.939 119.317 218.2 119.408C218.467 119.493 218.725 119.589 218.976 119.696C219.227 119.803 219.451 119.936 219.648 120.096C219.845 120.256 220.003 120.453 220.12 120.688C220.243 120.917 220.304 121.195 220.304 121.52C220.304 121.893 220.237 122.24 220.104 122.56C219.971 122.875 219.773 123.149 219.512 123.384C219.251 123.613 218.931 123.795 218.552 123.928C218.173 124.061 217.736 124.128 217.24 124.128C216.675 124.128 216.163 124.037 215.704 123.856C215.245 123.669 214.856 123.432 214.536 123.144L214.872 122.6C214.915 122.531 214.965 122.477 215.024 122.44C215.083 122.403 215.157 122.384 215.248 122.384C215.344 122.384 215.445 122.421 215.552 122.496C215.659 122.571 215.787 122.653 215.936 122.744C216.091 122.835 216.277 122.917 216.496 122.992C216.715 123.067 216.987 123.104 217.312 123.104C217.589 123.104 217.832 123.069 218.04 123C218.248 122.925 218.421 122.827 218.56 122.704C218.699 122.581 218.8 122.44 218.864 122.28C218.933 122.12 218.968 121.949 218.968 121.768C218.968 121.544 218.907 121.36 218.784 121.216C218.667 121.067 218.509 120.941 218.312 120.84C218.115 120.733 217.888 120.643 217.632 120.568C217.381 120.488 217.123 120.405 216.856 120.32C216.595 120.235 216.336 120.139 216.08 120.032C215.829 119.92 215.605 119.781 215.408 119.616C215.211 119.451 215.051 119.248 214.928 119.008C214.811 118.763 214.752 118.467 214.752 118.12C214.752 117.811 214.816 117.515 214.944 117.232C215.072 116.944 215.259 116.693 215.504 116.48C215.749 116.261 216.051 116.088 216.408 115.96C216.765 115.832 217.173 115.768 217.632 115.768C218.165 115.768 218.643 115.853 219.064 116.024C219.491 116.189 219.859 116.419 220.168 116.712L219.848 117.232Z" fill="#4F4F4F"/>
</svg>
