<svg width="302" height="155" viewBox="0 0 302 155" fill="none" xmlns="http://www.w3.org/2000/svg">
<path d="M36 70.5C16.3873 70.5 0.5 54.8234 0.5 35.5C0.5 16.1766 16.3873 0.5 36 0.5C55.6127 0.5 71.5 16.1766 71.5 35.5C71.5 54.8234 55.6127 70.5 36 70.5Z" fill="#275B81" stroke="white"/>
<path d="M36 49.8359H52.5" stroke="white" stroke-width="2" stroke-linecap="round" stroke-linejoin="round"/>
<path d="M44.25 20.2734C44.9793 19.5606 45.9686 19.1602 47 19.1602C47.5107 19.1602 48.0164 19.2585 48.4883 19.4495C48.9601 19.6405 49.3889 19.9204 49.75 20.2734C50.1111 20.6263 50.3976 21.0453 50.593 21.5064C50.7885 21.9675 50.8891 22.4617 50.8891 22.9609C50.8891 23.46 50.7885 23.9542 50.593 24.4153C50.3976 24.8764 50.1111 25.2954 49.75 25.6484L26.8333 48.0442L19.5 49.8359L21.3333 42.6692L44.25 20.2734Z" stroke="white" stroke-width="2" stroke-linecap="round" stroke-linejoin="round"/>
<path d="M126.208 35.504C125.596 36.2067 124.939 36.7053 124.236 37C123.533 37.3173 122.683 37.476 121.686 37.476C120.371 37.476 119.329 37.204 118.558 36.66C117.81 36.0933 117.323 35.1413 117.096 33.804L116.484 30.404C116.189 28.7493 115.827 27.5367 115.396 26.766C114.988 25.9727 114.297 25.576 113.322 25.576H111.112V33.396C111.112 34.2573 111.169 34.8807 111.282 35.266C111.418 35.6513 111.656 35.912 111.996 36.048C112.336 36.184 112.891 36.2747 113.662 36.32V37C112.438 36.932 110.727 36.898 108.528 36.898C106.103 36.898 104.312 36.932 103.156 37V36.32C103.904 36.2747 104.448 36.184 104.788 36.048C105.151 35.912 105.389 35.6513 105.502 35.266C105.638 34.8807 105.706 34.2573 105.706 33.396V16.532C105.706 15.6707 105.638 15.0473 105.502 14.662C105.389 14.2767 105.151 14.016 104.788 13.88C104.448 13.744 103.904 13.6533 103.156 13.608V12.928C104.312 12.996 106.035 13.03 108.324 13.03L112.098 12.996C112.551 12.9733 113.073 12.962 113.662 12.962C116.79 12.962 119.136 13.472 120.7 14.492C122.287 15.512 123.08 16.974 123.08 18.878C123.08 20.4873 122.491 21.904 121.312 23.128C120.133 24.352 118.184 25.1227 115.464 25.44C117.504 25.6213 119.023 26.0633 120.02 26.766C121.017 27.4687 121.663 28.5227 121.958 29.928L122.74 33.43C122.921 34.3367 123.125 34.9713 123.352 35.334C123.601 35.6967 123.941 35.878 124.372 35.878C124.644 35.8553 124.871 35.7873 125.052 35.674C125.256 35.5607 125.483 35.368 125.732 35.096L126.208 35.504ZM113.22 13.608C112.608 13.608 112.155 13.6873 111.86 13.846C111.588 14.0047 111.395 14.288 111.282 14.696C111.169 15.104 111.112 15.716 111.112 16.532V24.896H112.574C114.433 24.896 115.702 24.4087 116.382 23.434C117.085 22.4367 117.436 21.0427 117.436 19.252C117.436 17.3933 117.107 15.988 116.45 15.036C115.793 14.084 114.716 13.608 113.22 13.608ZM136.353 34.688C138.212 34.688 139.708 33.7813 140.841 31.968L141.453 32.172C141 33.6453 140.184 34.9033 139.005 35.946C137.849 36.966 136.398 37.476 134.653 37.476C132.25 37.476 130.335 36.7167 128.907 35.198C127.502 33.6567 126.799 31.39 126.799 28.398C126.799 25.338 127.558 23.0033 129.077 21.394C130.596 19.762 132.613 18.946 135.129 18.946C139.39 18.946 141.521 21.462 141.521 26.494H131.967C131.944 26.834 131.933 27.3667 131.933 28.092C131.933 29.588 132.137 30.8347 132.545 31.832C132.976 32.8293 133.52 33.5547 134.177 34.008C134.857 34.4613 135.582 34.688 136.353 34.688ZM134.925 19.66C134.109 19.66 133.429 20.17 132.885 21.19C132.364 22.1873 132.035 23.74 131.899 25.848H137.237C137.282 24.0573 137.101 22.584 136.693 21.428C136.308 20.2493 135.718 19.66 134.925 19.66ZM150.222 18.946C151.083 18.946 151.876 19.0593 152.602 19.286C153.327 19.49 153.882 19.728 154.268 20C154.494 20.1587 154.698 20.238 154.88 20.238C155.084 20.238 155.254 20.136 155.39 19.932C155.548 19.7053 155.65 19.388 155.696 18.98H156.41C156.319 20.136 156.274 22.1307 156.274 24.964H155.56C155.356 23.468 154.902 22.2213 154.2 21.224C153.52 20.204 152.522 19.694 151.208 19.694C150.528 19.694 149.961 19.8867 149.508 20.272C149.077 20.6573 148.862 21.19 148.862 21.87C148.862 22.6407 149.122 23.3093 149.644 23.876C150.165 24.42 150.981 25.0887 152.092 25.882L153.078 26.596C154.46 27.6387 155.48 28.568 156.138 29.384C156.795 30.2 157.124 31.22 157.124 32.444C157.124 33.4413 156.829 34.3253 156.24 35.096C155.673 35.8667 154.902 36.456 153.928 36.864C152.953 37.272 151.876 37.476 150.698 37.476C149.451 37.476 148.386 37.238 147.502 36.762C146.776 36.3993 146.255 36.1613 145.938 36.048C145.711 35.98 145.507 36.0593 145.326 36.286C145.167 36.49 145.042 36.8073 144.952 37.238H144.238C144.328 35.946 144.374 33.6793 144.374 30.438H145.088C145.541 34.6087 147.071 36.694 149.678 36.694C150.335 36.694 150.89 36.5013 151.344 36.116C151.82 35.708 152.058 35.096 152.058 34.28C152.058 33.6453 151.91 33.0787 151.616 32.58C151.344 32.0813 150.992 31.6393 150.562 31.254C150.131 30.8687 149.485 30.336 148.624 29.656C147.604 28.84 146.822 28.1827 146.278 27.684C145.756 27.1853 145.303 26.596 144.918 25.916C144.555 25.236 144.374 24.4767 144.374 23.638C144.374 22.1873 144.94 21.0427 146.074 20.204C147.207 19.3653 148.59 18.946 150.222 18.946ZM169.191 34.688C171.05 34.688 172.546 33.7813 173.679 31.968L174.291 32.172C173.838 33.6453 173.022 34.9033 171.843 35.946C170.687 36.966 169.236 37.476 167.491 37.476C165.088 37.476 163.173 36.7167 161.745 35.198C160.34 33.6567 159.637 31.39 159.637 28.398C159.637 25.338 160.396 23.0033 161.915 21.394C163.434 19.762 165.451 18.946 167.967 18.946C172.228 18.946 174.359 21.462 174.359 26.494H164.805C164.782 26.834 164.771 27.3667 164.771 28.092C164.771 29.588 164.975 30.8347 165.383 31.832C165.814 32.8293 166.358 33.5547 167.015 34.008C167.695 34.4613 168.42 34.688 169.191 34.688ZM167.763 19.66C166.947 19.66 166.267 20.17 165.723 21.19C165.202 22.1873 164.873 23.74 164.737 25.848H170.075C170.12 24.0573 169.939 22.584 169.531 21.428C169.146 20.2493 168.556 19.66 167.763 19.66ZM180.816 37.238C179.365 37.238 178.277 36.864 177.552 36.116C176.849 35.368 176.498 34.382 176.498 33.158C176.498 32.138 176.758 31.2993 177.28 30.642C177.824 29.962 178.47 29.4407 179.218 29.078C179.988 28.7153 180.963 28.33 182.142 27.922C183.388 27.4913 184.295 27.106 184.862 26.766C185.451 26.4033 185.746 25.916 185.746 25.304V22.652C185.746 21.7 185.519 20.9633 185.066 20.442C184.635 19.898 183.955 19.626 183.026 19.626C181.938 19.626 181.11 19.898 180.544 20.442C181.178 20.6687 181.666 21.0087 182.006 21.462C182.368 21.9153 182.55 22.448 182.55 23.06C182.55 23.8307 182.289 24.4427 181.768 24.896C181.246 25.3493 180.612 25.576 179.864 25.576C179.07 25.576 178.458 25.3267 178.028 24.828C177.597 24.3293 177.382 23.706 177.382 22.958C177.382 22.3233 177.529 21.7907 177.824 21.36C178.141 20.9067 178.617 20.4873 179.252 20.102C179.864 19.7393 180.612 19.456 181.496 19.252C182.402 19.048 183.388 18.946 184.454 18.946C185.564 18.946 186.528 19.0593 187.344 19.286C188.16 19.5127 188.84 19.898 189.384 20.442C189.882 20.9407 190.211 21.5527 190.37 22.278C190.551 23.0033 190.642 23.9893 190.642 25.236V34.484C190.642 35.028 190.687 35.4133 190.778 35.64C190.891 35.8667 191.095 35.98 191.39 35.98C191.73 35.98 192.138 35.7873 192.614 35.402L192.954 35.98C191.934 36.8187 190.687 37.238 189.214 37.238C187.967 37.238 187.094 36.9887 186.596 36.49C186.097 35.9913 185.836 35.3227 185.814 34.484C184.68 36.32 183.014 37.238 180.816 37.238ZM183.434 35.062C184.318 35.062 185.088 34.5973 185.746 33.668V26.698C185.474 27.1513 184.896 27.65 184.012 28.194C183.128 28.7607 182.459 29.3273 182.006 29.894C181.552 30.4607 181.326 31.2767 181.326 32.342C181.326 33.2713 181.518 33.9627 181.904 34.416C182.289 34.8467 182.799 35.062 183.434 35.062ZM205.621 18.946C206.641 18.946 207.412 19.252 207.933 19.864C208.455 20.476 208.715 21.2127 208.715 22.074C208.715 22.9127 208.466 23.604 207.967 24.148C207.491 24.6693 206.857 24.93 206.063 24.93C205.293 24.93 204.681 24.7373 204.227 24.352C203.774 23.944 203.547 23.4113 203.547 22.754C203.547 21.666 204.046 20.782 205.043 20.102C204.953 20.0793 204.817 20.068 204.635 20.068C204.409 20.068 204.227 20.0907 204.091 20.136C203.23 20.272 202.493 20.7933 201.881 21.7C201.292 22.6067 200.997 23.536 200.997 24.488V33.498C200.997 34.5407 201.247 35.266 201.745 35.674C202.267 36.082 203.083 36.286 204.193 36.286V37C203.876 37 203.615 36.9887 203.411 36.966C201.099 36.898 199.558 36.864 198.787 36.864C198.175 36.864 196.781 36.898 194.605 36.966C194.424 36.9887 194.197 37 193.925 37V36.286C194.741 36.286 195.308 36.116 195.625 35.776C195.943 35.4133 196.101 34.7673 196.101 33.838V23.128C196.101 22.0853 195.943 21.326 195.625 20.85C195.308 20.374 194.741 20.136 193.925 20.136V19.422C194.651 19.49 195.353 19.524 196.033 19.524C198.051 19.524 199.705 19.3653 200.997 19.048V22.21C201.428 21.2353 202.051 20.4533 202.867 19.864C203.683 19.252 204.601 18.946 205.621 18.946ZM218.172 18.946C219.01 18.946 219.804 19.0367 220.552 19.218C221.3 19.3993 221.923 19.6487 222.422 19.966C223.011 20.3287 223.464 20.7933 223.782 21.36C224.122 21.904 224.292 22.5047 224.292 23.162C224.292 23.9553 224.042 24.6127 223.544 25.134C223.045 25.6327 222.399 25.882 221.606 25.882C220.812 25.882 220.178 25.6553 219.702 25.202C219.226 24.7487 218.988 24.1367 218.988 23.366C218.988 22.686 219.203 22.0967 219.634 21.598C220.064 21.0993 220.597 20.7593 221.232 20.578C221.05 20.3287 220.767 20.136 220.382 20C220.019 19.8413 219.622 19.762 219.192 19.762C217.832 19.762 216.766 20.51 215.996 22.006C215.248 23.4793 214.874 25.4173 214.874 27.82C214.874 30.2453 215.304 31.9907 216.166 33.056C217.027 34.1213 218.104 34.654 219.396 34.654C220.166 34.654 220.937 34.45 221.708 34.042C222.501 33.634 223.215 32.92 223.85 31.9L224.428 32.104C223.974 33.5773 223.181 34.8467 222.048 35.912C220.914 36.9547 219.452 37.476 217.662 37.476C215.327 37.476 213.423 36.7053 211.95 35.164C210.476 33.6227 209.74 31.3333 209.74 28.296C209.74 26.3013 210.102 24.6013 210.828 23.196C211.553 21.7907 212.55 20.7367 213.82 20.034C215.089 19.3087 216.54 18.946 218.172 18.946ZM233.101 22.108C234.121 20 235.968 18.946 238.643 18.946C240.411 18.946 241.657 19.388 242.383 20.272C242.768 20.7027 243.04 21.2693 243.199 21.972C243.38 22.652 243.471 23.5587 243.471 24.692V33.838C243.471 34.7673 243.629 35.4133 243.947 35.776C244.264 36.116 244.831 36.286 245.647 36.286V37C243.289 36.9093 241.793 36.864 241.159 36.864C240.388 36.864 238.915 36.9093 236.739 37V36.286C237.419 36.286 237.895 36.116 238.167 35.776C238.439 35.4133 238.575 34.7673 238.575 33.838V23.264C238.575 22.3347 238.416 21.632 238.099 21.156C237.804 20.68 237.26 20.442 236.467 20.442C235.515 20.442 234.71 20.816 234.053 21.564C233.418 22.2893 233.101 23.2187 233.101 24.352V33.838C233.101 34.7673 233.237 35.4133 233.509 35.776C233.781 36.116 234.257 36.286 234.937 36.286V37C232.761 36.9093 231.355 36.864 230.721 36.864C229.95 36.864 228.386 36.9093 226.029 37V36.286C226.822 36.286 227.377 36.116 227.695 35.776C228.035 35.4133 228.205 34.7673 228.205 33.838V14.492C228.205 13.4493 228.035 12.69 227.695 12.214C227.377 11.738 226.822 11.5 226.029 11.5V10.786C226.754 10.854 227.457 10.888 228.137 10.888C230.109 10.888 231.763 10.7293 233.101 10.412V22.108Z" fill="black"/>
<path d="M115.392 62.536V74H114.032V65.576C114.032 65.464 114.035 65.344 114.04 65.216C114.051 65.088 114.061 64.9573 114.072 64.824L110.136 71.992C110.013 72.232 109.827 72.352 109.576 72.352H109.352C109.101 72.352 108.915 72.232 108.792 71.992L104.776 64.792C104.808 65.0747 104.824 65.336 104.824 65.576V74H103.464V62.536H104.608C104.747 62.536 104.853 62.5493 104.928 62.576C105.003 62.6027 105.075 62.6773 105.144 62.8L109.104 69.856C109.168 69.984 109.229 70.1173 109.288 70.256C109.352 70.3947 109.411 70.536 109.464 70.68C109.517 70.536 109.573 70.3947 109.632 70.256C109.691 70.112 109.755 69.976 109.824 69.848L113.712 62.8C113.776 62.6773 113.845 62.6027 113.92 62.576C114 62.5493 114.109 62.536 114.248 62.536H115.392ZM122.145 70.352C121.489 70.3733 120.929 70.4267 120.465 70.512C120.006 70.592 119.63 70.6987 119.337 70.832C119.049 70.9653 118.838 71.1227 118.705 71.304C118.577 71.4853 118.513 71.688 118.513 71.912C118.513 72.1253 118.548 72.3093 118.617 72.464C118.686 72.6187 118.78 72.7467 118.897 72.848C119.02 72.944 119.161 73.016 119.321 73.064C119.486 73.1067 119.662 73.128 119.849 73.128C120.1 73.128 120.329 73.104 120.537 73.056C120.745 73.0027 120.94 72.928 121.121 72.832C121.308 72.736 121.484 72.6213 121.649 72.488C121.82 72.3547 121.985 72.2027 122.145 72.032V70.352ZM117.545 67.04C117.993 66.608 118.476 66.2853 118.993 66.072C119.51 65.8587 120.084 65.752 120.713 65.752C121.166 65.752 121.569 65.8267 121.921 65.976C122.273 66.1253 122.569 66.3333 122.809 66.6C123.049 66.8667 123.23 67.1893 123.353 67.568C123.476 67.9467 123.537 68.3627 123.537 68.816V74H122.905C122.766 74 122.66 73.9787 122.585 73.936C122.51 73.888 122.452 73.7973 122.409 73.664L122.249 72.896C122.036 73.0933 121.828 73.2693 121.625 73.424C121.422 73.5733 121.209 73.7013 120.985 73.808C120.761 73.9093 120.521 73.9867 120.265 74.04C120.014 74.0987 119.734 74.128 119.425 74.128C119.11 74.128 118.814 74.0853 118.537 74C118.26 73.9093 118.017 73.776 117.809 73.6C117.606 73.424 117.444 73.2027 117.321 72.936C117.204 72.664 117.145 72.344 117.145 71.976C117.145 71.656 117.233 71.3493 117.409 71.056C117.585 70.7573 117.87 70.4933 118.265 70.264C118.66 70.0347 119.174 69.848 119.809 69.704C120.444 69.5547 121.222 69.4693 122.145 69.448V68.816C122.145 68.1867 122.009 67.712 121.737 67.392C121.465 67.0667 121.068 66.904 120.545 66.904C120.193 66.904 119.897 66.9493 119.657 67.04C119.422 67.1253 119.217 67.224 119.041 67.336C118.87 67.4427 118.721 67.5413 118.593 67.632C118.47 67.7173 118.348 67.76 118.225 67.76C118.129 67.76 118.046 67.736 117.977 67.688C117.908 67.6347 117.849 67.5707 117.801 67.496L117.545 67.04ZM127.058 67.52C127.314 66.9653 127.629 66.5333 128.002 66.224C128.375 65.9093 128.831 65.752 129.37 65.752C129.541 65.752 129.703 65.7707 129.858 65.808C130.018 65.8453 130.159 65.904 130.282 65.984L130.178 67.048C130.146 67.1813 130.066 67.248 129.938 67.248C129.863 67.248 129.754 67.232 129.61 67.2C129.466 67.168 129.303 67.152 129.122 67.152C128.866 67.152 128.637 67.1893 128.434 67.264C128.237 67.3387 128.058 67.4507 127.898 67.6C127.743 67.744 127.602 67.9253 127.474 68.144C127.351 68.3573 127.239 68.6027 127.138 68.88V74H125.706V65.896H126.522C126.677 65.896 126.783 65.9253 126.842 65.984C126.901 66.0427 126.941 66.144 126.962 66.288L127.058 67.52ZM132.966 62.216V69.152H133.334C133.441 69.152 133.529 69.1387 133.598 69.112C133.673 69.08 133.75 69.0187 133.83 68.928L136.39 66.184C136.465 66.0933 136.542 66.024 136.622 65.976C136.708 65.9227 136.82 65.896 136.958 65.896H138.246L135.262 69.072C135.118 69.2533 134.964 69.3947 134.798 69.496C134.894 69.56 134.98 69.6347 135.054 69.72C135.134 69.8 135.209 69.8933 135.278 70L138.446 74H137.174C137.052 74 136.945 73.9813 136.854 73.944C136.769 73.9013 136.694 73.8267 136.63 73.72L133.966 70.4C133.886 70.288 133.806 70.216 133.726 70.184C133.652 70.1467 133.534 70.128 133.374 70.128H132.966V74H131.534V62.216H132.966ZM144.63 69.064C144.63 68.7333 144.582 68.432 144.486 68.16C144.395 67.8827 144.259 67.6453 144.078 67.448C143.902 67.2453 143.686 67.0907 143.43 66.984C143.174 66.872 142.883 66.816 142.558 66.816C141.875 66.816 141.334 67.016 140.934 67.416C140.539 67.8107 140.294 68.36 140.198 69.064H144.63ZM145.782 72.864C145.606 73.0773 145.395 73.264 145.15 73.424C144.905 73.5787 144.641 73.7067 144.358 73.808C144.081 73.9093 143.793 73.984 143.494 74.032C143.195 74.0853 142.899 74.112 142.606 74.112C142.046 74.112 141.529 74.0187 141.054 73.832C140.585 73.64 140.177 73.3627 139.83 73C139.489 72.632 139.222 72.1787 139.03 71.64C138.838 71.1013 138.742 70.4827 138.742 69.784C138.742 69.2187 138.827 68.6907 138.998 68.2C139.174 67.7093 139.425 67.2853 139.75 66.928C140.075 66.5653 140.473 66.2827 140.942 66.08C141.411 65.872 141.939 65.768 142.526 65.768C143.011 65.768 143.459 65.8507 143.87 66.016C144.286 66.176 144.643 66.4107 144.942 66.72C145.246 67.024 145.483 67.4027 145.654 67.856C145.825 68.304 145.91 68.816 145.91 69.392C145.91 69.616 145.886 69.7653 145.838 69.84C145.79 69.9147 145.699 69.952 145.566 69.952H140.15C140.166 70.464 140.235 70.9093 140.358 71.288C140.486 71.6667 140.662 71.984 140.886 72.24C141.11 72.4907 141.377 72.68 141.686 72.808C141.995 72.9307 142.342 72.992 142.726 72.992C143.083 72.992 143.39 72.952 143.646 72.872C143.907 72.7867 144.131 72.696 144.318 72.6C144.505 72.504 144.659 72.416 144.782 72.336C144.91 72.2507 145.019 72.208 145.11 72.208C145.227 72.208 145.318 72.2533 145.382 72.344L145.782 72.864ZM150.085 74.128C149.445 74.128 148.951 73.9493 148.605 73.592C148.263 73.2347 148.093 72.72 148.093 72.048V67.088H147.117C147.031 67.088 146.959 67.064 146.901 67.016C146.842 66.9627 146.813 66.8827 146.813 66.776V66.208L148.141 66.04L148.469 63.536C148.485 63.456 148.519 63.392 148.573 63.344C148.631 63.2907 148.706 63.264 148.797 63.264H149.517V66.056H151.861V67.088H149.517V71.952C149.517 72.2933 149.599 72.5467 149.765 72.712C149.93 72.8773 150.143 72.96 150.405 72.96C150.554 72.96 150.682 72.9413 150.789 72.904C150.901 72.8613 150.997 72.816 151.077 72.768C151.157 72.72 151.223 72.6773 151.277 72.64C151.335 72.5973 151.386 72.576 151.429 72.576C151.503 72.576 151.57 72.6213 151.629 72.712L152.045 73.392C151.799 73.6213 151.503 73.8027 151.157 73.936C150.81 74.064 150.453 74.128 150.085 74.128ZM158.777 67.52C159.033 66.9653 159.348 66.5333 159.721 66.224C160.094 65.9093 160.55 65.752 161.089 65.752C161.26 65.752 161.422 65.7707 161.577 65.808C161.737 65.8453 161.878 65.904 162.001 65.984L161.897 67.048C161.865 67.1813 161.785 67.248 161.657 67.248C161.582 67.248 161.473 67.232 161.329 67.2C161.185 67.168 161.022 67.152 160.841 67.152C160.585 67.152 160.356 67.1893 160.153 67.264C159.956 67.3387 159.777 67.4507 159.617 67.6C159.462 67.744 159.321 67.9253 159.193 68.144C159.07 68.3573 158.958 68.6027 158.857 68.88V74H157.425V65.896H158.241C158.396 65.896 158.502 65.9253 158.561 65.984C158.62 66.0427 158.66 66.144 158.681 66.288L158.777 67.52ZM168.349 69.064C168.349 68.7333 168.301 68.432 168.205 68.16C168.114 67.8827 167.978 67.6453 167.797 67.448C167.621 67.2453 167.405 67.0907 167.149 66.984C166.893 66.872 166.602 66.816 166.277 66.816C165.594 66.816 165.053 67.016 164.653 67.416C164.258 67.8107 164.013 68.36 163.917 69.064H168.349ZM169.501 72.864C169.325 73.0773 169.114 73.264 168.869 73.424C168.624 73.5787 168.36 73.7067 168.077 73.808C167.8 73.9093 167.512 73.984 167.213 74.032C166.914 74.0853 166.618 74.112 166.325 74.112C165.765 74.112 165.248 74.0187 164.773 73.832C164.304 73.64 163.896 73.3627 163.549 73C163.208 72.632 162.941 72.1787 162.749 71.64C162.557 71.1013 162.461 70.4827 162.461 69.784C162.461 69.2187 162.546 68.6907 162.717 68.2C162.893 67.7093 163.144 67.2853 163.469 66.928C163.794 66.5653 164.192 66.2827 164.661 66.08C165.13 65.872 165.658 65.768 166.245 65.768C166.73 65.768 167.178 65.8507 167.589 66.016C168.005 66.176 168.362 66.4107 168.661 66.72C168.965 67.024 169.202 67.4027 169.373 67.856C169.544 68.304 169.629 68.816 169.629 69.392C169.629 69.616 169.605 69.7653 169.557 69.84C169.509 69.9147 169.418 69.952 169.285 69.952H163.869C163.885 70.464 163.954 70.9093 164.077 71.288C164.205 71.6667 164.381 71.984 164.605 72.24C164.829 72.4907 165.096 72.68 165.405 72.808C165.714 72.9307 166.061 72.992 166.445 72.992C166.802 72.992 167.109 72.952 167.365 72.872C167.626 72.7867 167.85 72.696 168.037 72.6C168.224 72.504 168.378 72.416 168.501 72.336C168.629 72.2507 168.738 72.208 168.829 72.208C168.946 72.208 169.037 72.2533 169.101 72.344L169.501 72.864ZM176.098 67.232C176.034 67.3493 175.935 67.408 175.802 67.408C175.722 67.408 175.631 67.3787 175.53 67.32C175.429 67.2613 175.303 67.1973 175.154 67.128C175.01 67.0533 174.837 66.9867 174.634 66.928C174.431 66.864 174.191 66.832 173.914 66.832C173.674 66.832 173.458 66.864 173.266 66.928C173.074 66.9867 172.909 67.0693 172.77 67.176C172.637 67.2827 172.533 67.408 172.458 67.552C172.389 67.6907 172.354 67.8427 172.354 68.008C172.354 68.216 172.413 68.3893 172.53 68.528C172.653 68.6667 172.813 68.7867 173.01 68.888C173.207 68.9893 173.431 69.08 173.682 69.16C173.933 69.2347 174.189 69.3173 174.45 69.408C174.717 69.4933 174.975 69.5893 175.226 69.696C175.477 69.8027 175.701 69.936 175.898 70.096C176.095 70.256 176.253 70.4533 176.37 70.688C176.493 70.9173 176.554 71.1947 176.554 71.52C176.554 71.8933 176.487 72.24 176.354 72.56C176.221 72.8747 176.023 73.1493 175.762 73.384C175.501 73.6133 175.181 73.7947 174.802 73.928C174.423 74.0613 173.986 74.128 173.49 74.128C172.925 74.128 172.413 74.0373 171.954 73.856C171.495 73.6693 171.106 73.432 170.786 73.144L171.122 72.6C171.165 72.5307 171.215 72.4773 171.274 72.44C171.333 72.4027 171.407 72.384 171.498 72.384C171.594 72.384 171.695 72.4213 171.802 72.496C171.909 72.5707 172.037 72.6533 172.186 72.744C172.341 72.8347 172.527 72.9173 172.746 72.992C172.965 73.0667 173.237 73.104 173.562 73.104C173.839 73.104 174.082 73.0693 174.29 73C174.498 72.9253 174.671 72.8267 174.81 72.704C174.949 72.5813 175.05 72.44 175.114 72.28C175.183 72.12 175.218 71.9493 175.218 71.768C175.218 71.544 175.157 71.36 175.034 71.216C174.917 71.0667 174.759 70.9413 174.562 70.84C174.365 70.7333 174.138 70.6427 173.882 70.568C173.631 70.488 173.373 70.4053 173.106 70.32C172.845 70.2347 172.586 70.1387 172.33 70.032C172.079 69.92 171.855 69.7813 171.658 69.616C171.461 69.4507 171.301 69.248 171.178 69.008C171.061 68.7627 171.002 68.4667 171.002 68.12C171.002 67.8107 171.066 67.5147 171.194 67.232C171.322 66.944 171.509 66.6933 171.754 66.48C171.999 66.2613 172.301 66.088 172.658 65.96C173.015 65.832 173.423 65.768 173.882 65.768C174.415 65.768 174.893 65.8533 175.314 66.024C175.741 66.1893 176.109 66.4187 176.418 66.712L176.098 67.232ZM183.724 69.064C183.724 68.7333 183.676 68.432 183.58 68.16C183.489 67.8827 183.353 67.6453 183.172 67.448C182.996 67.2453 182.78 67.0907 182.524 66.984C182.268 66.872 181.977 66.816 181.652 66.816C180.969 66.816 180.428 67.016 180.028 67.416C179.633 67.8107 179.388 68.36 179.292 69.064H183.724ZM184.876 72.864C184.7 73.0773 184.489 73.264 184.244 73.424C183.999 73.5787 183.735 73.7067 183.452 73.808C183.175 73.9093 182.887 73.984 182.588 74.032C182.289 74.0853 181.993 74.112 181.7 74.112C181.14 74.112 180.623 74.0187 180.148 73.832C179.679 73.64 179.271 73.3627 178.924 73C178.583 72.632 178.316 72.1787 178.124 71.64C177.932 71.1013 177.836 70.4827 177.836 69.784C177.836 69.2187 177.921 68.6907 178.092 68.2C178.268 67.7093 178.519 67.2853 178.844 66.928C179.169 66.5653 179.567 66.2827 180.036 66.08C180.505 65.872 181.033 65.768 181.62 65.768C182.105 65.768 182.553 65.8507 182.964 66.016C183.38 66.176 183.737 66.4107 184.036 66.72C184.34 67.024 184.577 67.4027 184.748 67.856C184.919 68.304 185.004 68.816 185.004 69.392C185.004 69.616 184.98 69.7653 184.932 69.84C184.884 69.9147 184.793 69.952 184.66 69.952H179.244C179.26 70.464 179.329 70.9093 179.452 71.288C179.58 71.6667 179.756 71.984 179.98 72.24C180.204 72.4907 180.471 72.68 180.78 72.808C181.089 72.9307 181.436 72.992 181.82 72.992C182.177 72.992 182.484 72.952 182.74 72.872C183.001 72.7867 183.225 72.696 183.412 72.6C183.599 72.504 183.753 72.416 183.876 72.336C184.004 72.2507 184.113 72.208 184.204 72.208C184.321 72.208 184.412 72.2533 184.476 72.344L184.876 72.864ZM191.145 70.352C190.489 70.3733 189.929 70.4267 189.465 70.512C189.006 70.592 188.63 70.6987 188.337 70.832C188.049 70.9653 187.838 71.1227 187.705 71.304C187.577 71.4853 187.513 71.688 187.513 71.912C187.513 72.1253 187.548 72.3093 187.617 72.464C187.686 72.6187 187.78 72.7467 187.897 72.848C188.02 72.944 188.161 73.016 188.321 73.064C188.486 73.1067 188.662 73.128 188.849 73.128C189.1 73.128 189.329 73.104 189.537 73.056C189.745 73.0027 189.94 72.928 190.121 72.832C190.308 72.736 190.484 72.6213 190.649 72.488C190.82 72.3547 190.985 72.2027 191.145 72.032V70.352ZM186.545 67.04C186.993 66.608 187.476 66.2853 187.993 66.072C188.51 65.8587 189.084 65.752 189.713 65.752C190.166 65.752 190.569 65.8267 190.921 65.976C191.273 66.1253 191.569 66.3333 191.809 66.6C192.049 66.8667 192.23 67.1893 192.353 67.568C192.476 67.9467 192.537 68.3627 192.537 68.816V74H191.905C191.766 74 191.66 73.9787 191.585 73.936C191.51 73.888 191.452 73.7973 191.409 73.664L191.249 72.896C191.036 73.0933 190.828 73.2693 190.625 73.424C190.422 73.5733 190.209 73.7013 189.985 73.808C189.761 73.9093 189.521 73.9867 189.265 74.04C189.014 74.0987 188.734 74.128 188.425 74.128C188.11 74.128 187.814 74.0853 187.537 74C187.26 73.9093 187.017 73.776 186.809 73.6C186.606 73.424 186.444 73.2027 186.321 72.936C186.204 72.664 186.145 72.344 186.145 71.976C186.145 71.656 186.233 71.3493 186.409 71.056C186.585 70.7573 186.87 70.4933 187.265 70.264C187.66 70.0347 188.174 69.848 188.809 69.704C189.444 69.5547 190.222 69.4693 191.145 69.448V68.816C191.145 68.1867 191.009 67.712 190.737 67.392C190.465 67.0667 190.068 66.904 189.545 66.904C189.193 66.904 188.897 66.9493 188.657 67.04C188.422 67.1253 188.217 67.224 188.041 67.336C187.87 67.4427 187.721 67.5413 187.593 67.632C187.47 67.7173 187.348 67.76 187.225 67.76C187.129 67.76 187.046 67.736 186.977 67.688C186.908 67.6347 186.849 67.5707 186.801 67.496L186.545 67.04ZM196.058 67.52C196.314 66.9653 196.629 66.5333 197.002 66.224C197.375 65.9093 197.831 65.752 198.37 65.752C198.541 65.752 198.703 65.7707 198.858 65.808C199.018 65.8453 199.159 65.904 199.282 65.984L199.178 67.048C199.146 67.1813 199.066 67.248 198.938 67.248C198.863 67.248 198.754 67.232 198.61 67.2C198.466 67.168 198.303 67.152 198.122 67.152C197.866 67.152 197.637 67.1893 197.434 67.264C197.237 67.3387 197.058 67.4507 196.898 67.6C196.743 67.744 196.602 67.9253 196.474 68.144C196.351 68.3573 196.239 68.6027 196.138 68.88V74H194.706V65.896H195.522C195.677 65.896 195.783 65.9253 195.842 65.984C195.901 66.0427 195.941 66.144 195.962 66.288L196.058 67.52ZM205.846 67.336C205.803 67.3947 205.761 67.44 205.718 67.472C205.675 67.504 205.617 67.52 205.542 67.52C205.462 67.52 205.374 67.488 205.278 67.424C205.182 67.3547 205.062 67.28 204.918 67.2C204.779 67.12 204.606 67.048 204.398 66.984C204.195 66.9147 203.945 66.88 203.646 66.88C203.246 66.88 202.894 66.952 202.59 67.096C202.286 67.2347 202.03 67.4373 201.822 67.704C201.619 67.9707 201.465 68.2933 201.358 68.672C201.257 69.0507 201.206 69.4747 201.206 69.944C201.206 70.4347 201.262 70.872 201.374 71.256C201.486 71.6347 201.643 71.9547 201.846 72.216C202.054 72.472 202.302 72.6693 202.59 72.808C202.883 72.9413 203.211 73.008 203.574 73.008C203.921 73.008 204.206 72.968 204.43 72.888C204.654 72.8027 204.838 72.7093 204.982 72.608C205.131 72.5067 205.254 72.416 205.35 72.336C205.451 72.2507 205.55 72.208 205.646 72.208C205.763 72.208 205.854 72.2533 205.918 72.344L206.318 72.864C206.142 73.0827 205.942 73.2693 205.718 73.424C205.494 73.5787 205.251 73.7093 204.99 73.816C204.734 73.9173 204.465 73.992 204.182 74.04C203.899 74.088 203.611 74.112 203.318 74.112C202.811 74.112 202.339 74.0187 201.902 73.832C201.47 73.6453 201.094 73.376 200.774 73.024C200.454 72.6667 200.203 72.2293 200.022 71.712C199.841 71.1947 199.75 70.6053 199.75 69.944C199.75 69.3413 199.833 68.784 199.998 68.272C200.169 67.76 200.414 67.32 200.734 66.952C201.059 66.5787 201.457 66.288 201.926 66.08C202.401 65.872 202.945 65.768 203.558 65.768C204.129 65.768 204.63 65.8613 205.062 66.048C205.499 66.2293 205.886 66.488 206.222 66.824L205.846 67.336ZM209.279 66.976C209.625 66.608 210.009 66.3147 210.431 66.096C210.852 65.8773 211.337 65.768 211.887 65.768C212.329 65.768 212.719 65.8427 213.055 65.992C213.396 66.136 213.679 66.344 213.903 66.616C214.132 66.8827 214.305 67.2053 214.423 67.584C214.54 67.9627 214.599 68.3813 214.599 68.84V74H213.167V68.84C213.167 68.2267 213.025 67.752 212.743 67.416C212.465 67.0747 212.041 66.904 211.471 66.904C211.049 66.904 210.655 67.0053 210.287 67.208C209.924 67.4107 209.588 67.6853 209.279 68.032V74H207.847V62.216H209.279V66.976ZM107.888 97.768C108.363 97.768 108.787 97.688 109.16 97.528C109.533 97.368 109.848 97.144 110.104 96.856C110.365 96.568 110.563 96.224 110.696 95.824C110.835 95.424 110.904 94.984 110.904 94.504V87.536H112.448V94.504C112.448 95.1653 112.341 95.7787 112.128 96.344C111.92 96.9093 111.619 97.4 111.224 97.816C110.835 98.2267 110.357 98.5493 109.792 98.784C109.227 99.0187 108.592 99.136 107.888 99.136C107.184 99.136 106.549 99.0187 105.984 98.784C105.419 98.5493 104.939 98.2267 104.544 97.816C104.149 97.4 103.845 96.9093 103.632 96.344C103.424 95.7787 103.32 95.1653 103.32 94.504V87.536H104.864V94.496C104.864 94.976 104.931 95.416 105.064 95.816C105.203 96.216 105.4 96.56 105.656 96.848C105.917 97.136 106.235 97.3627 106.608 97.528C106.987 97.688 107.413 97.768 107.888 97.768ZM119.223 92.232C119.159 92.3493 119.06 92.408 118.927 92.408C118.847 92.408 118.756 92.3787 118.655 92.32C118.554 92.2613 118.428 92.1973 118.279 92.128C118.135 92.0533 117.962 91.9867 117.759 91.928C117.556 91.864 117.316 91.832 117.039 91.832C116.799 91.832 116.583 91.864 116.391 91.928C116.199 91.9867 116.034 92.0693 115.895 92.176C115.762 92.2827 115.658 92.408 115.583 92.552C115.514 92.6907 115.479 92.8427 115.479 93.008C115.479 93.216 115.538 93.3893 115.655 93.528C115.778 93.6667 115.938 93.7867 116.135 93.888C116.332 93.9893 116.556 94.08 116.807 94.16C117.058 94.2347 117.314 94.3173 117.575 94.408C117.842 94.4933 118.1 94.5893 118.351 94.696C118.602 94.8027 118.826 94.936 119.023 95.096C119.22 95.256 119.378 95.4533 119.495 95.688C119.618 95.9173 119.679 96.1947 119.679 96.52C119.679 96.8933 119.612 97.24 119.479 97.56C119.346 97.8747 119.148 98.1493 118.887 98.384C118.626 98.6133 118.306 98.7947 117.927 98.928C117.548 99.0613 117.111 99.128 116.615 99.128C116.05 99.128 115.538 99.0373 115.079 98.856C114.62 98.6693 114.231 98.432 113.911 98.144L114.247 97.6C114.29 97.5307 114.34 97.4773 114.399 97.44C114.458 97.4027 114.532 97.384 114.623 97.384C114.719 97.384 114.82 97.4213 114.927 97.496C115.034 97.5707 115.162 97.6533 115.311 97.744C115.466 97.8347 115.652 97.9173 115.871 97.992C116.09 98.0667 116.362 98.104 116.687 98.104C116.964 98.104 117.207 98.0693 117.415 98C117.623 97.9253 117.796 97.8267 117.935 97.704C118.074 97.5813 118.175 97.44 118.239 97.28C118.308 97.12 118.343 96.9493 118.343 96.768C118.343 96.544 118.282 96.36 118.159 96.216C118.042 96.0667 117.884 95.9413 117.687 95.84C117.49 95.7333 117.263 95.6427 117.007 95.568C116.756 95.488 116.498 95.4053 116.231 95.32C115.97 95.2347 115.711 95.1387 115.455 95.032C115.204 94.92 114.98 94.7813 114.783 94.616C114.586 94.4507 114.426 94.248 114.303 94.008C114.186 93.7627 114.127 93.4667 114.127 93.12C114.127 92.8107 114.191 92.5147 114.319 92.232C114.447 91.944 114.634 91.6933 114.879 91.48C115.124 91.2613 115.426 91.088 115.783 90.96C116.14 90.832 116.548 90.768 117.007 90.768C117.54 90.768 118.018 90.8533 118.439 91.024C118.866 91.1893 119.234 91.4187 119.543 91.712L119.223 92.232ZM126.849 94.064C126.849 93.7333 126.801 93.432 126.705 93.16C126.614 92.8827 126.478 92.6453 126.297 92.448C126.121 92.2453 125.905 92.0907 125.649 91.984C125.393 91.872 125.102 91.816 124.777 91.816C124.094 91.816 123.553 92.016 123.153 92.416C122.758 92.8107 122.513 93.36 122.417 94.064H126.849ZM128.001 97.864C127.825 98.0773 127.614 98.264 127.369 98.424C127.124 98.5787 126.86 98.7067 126.577 98.808C126.3 98.9093 126.012 98.984 125.713 99.032C125.414 99.0853 125.118 99.112 124.825 99.112C124.265 99.112 123.748 99.0187 123.273 98.832C122.804 98.64 122.396 98.3627 122.049 98C121.708 97.632 121.441 97.1787 121.249 96.64C121.057 96.1013 120.961 95.4827 120.961 94.784C120.961 94.2187 121.046 93.6907 121.217 93.2C121.393 92.7093 121.644 92.2853 121.969 91.928C122.294 91.5653 122.692 91.2827 123.161 91.08C123.63 90.872 124.158 90.768 124.745 90.768C125.23 90.768 125.678 90.8507 126.089 91.016C126.505 91.176 126.862 91.4107 127.161 91.72C127.465 92.024 127.702 92.4027 127.873 92.856C128.044 93.304 128.129 93.816 128.129 94.392C128.129 94.616 128.105 94.7653 128.057 94.84C128.009 94.9147 127.918 94.952 127.785 94.952H122.369C122.385 95.464 122.454 95.9093 122.577 96.288C122.705 96.6667 122.881 96.984 123.105 97.24C123.329 97.4907 123.596 97.68 123.905 97.808C124.214 97.9307 124.561 97.992 124.945 97.992C125.302 97.992 125.609 97.952 125.865 97.872C126.126 97.7867 126.35 97.696 126.537 97.6C126.724 97.504 126.878 97.416 127.001 97.336C127.129 97.2507 127.238 97.208 127.329 97.208C127.446 97.208 127.537 97.2533 127.601 97.344L128.001 97.864ZM131.23 92.52C131.486 91.9653 131.801 91.5333 132.174 91.224C132.547 90.9093 133.003 90.752 133.542 90.752C133.713 90.752 133.875 90.7707 134.03 90.808C134.19 90.8453 134.331 90.904 134.454 90.984L134.35 92.048C134.318 92.1813 134.238 92.248 134.11 92.248C134.035 92.248 133.926 92.232 133.782 92.2C133.638 92.168 133.475 92.152 133.294 92.152C133.038 92.152 132.809 92.1893 132.606 92.264C132.409 92.3387 132.23 92.4507 132.07 92.6C131.915 92.744 131.774 92.9253 131.646 93.144C131.523 93.3573 131.411 93.6027 131.31 93.88V99H129.878V90.896H130.694C130.849 90.896 130.955 90.9253 131.014 90.984C131.073 91.0427 131.113 91.144 131.134 91.288L131.23 92.52ZM140.96 90.896V99H139.536V90.896H140.96ZM141.264 88.352C141.264 88.4907 141.235 88.6213 141.176 88.744C141.123 88.8613 141.048 88.968 140.952 89.064C140.861 89.1547 140.752 89.2267 140.624 89.28C140.501 89.3333 140.371 89.36 140.232 89.36C140.093 89.36 139.963 89.3333 139.84 89.28C139.723 89.2267 139.619 89.1547 139.528 89.064C139.437 88.968 139.365 88.8613 139.312 88.744C139.259 88.6213 139.232 88.4907 139.232 88.352C139.232 88.2133 139.259 88.0827 139.312 87.96C139.365 87.832 139.437 87.7227 139.528 87.632C139.619 87.536 139.723 87.4613 139.84 87.408C139.963 87.3547 140.093 87.328 140.232 87.328C140.371 87.328 140.501 87.3547 140.624 87.408C140.752 87.4613 140.861 87.536 140.952 87.632C141.048 87.7227 141.123 87.832 141.176 87.96C141.235 88.0827 141.264 88.2133 141.264 88.352ZM144.644 92.072C144.82 91.8747 145.007 91.696 145.204 91.536C145.401 91.376 145.609 91.24 145.828 91.128C146.052 91.0107 146.287 90.9227 146.532 90.864C146.783 90.8 147.052 90.768 147.34 90.768C147.783 90.768 148.172 90.8427 148.508 90.992C148.849 91.136 149.132 91.344 149.356 91.616C149.585 91.8827 149.759 92.2053 149.876 92.584C149.993 92.9627 150.052 93.3813 150.052 93.84V99H148.62V93.84C148.62 93.2267 148.479 92.752 148.196 92.416C147.919 92.0747 147.495 91.904 146.924 91.904C146.503 91.904 146.108 92.0053 145.74 92.208C145.377 92.4107 145.041 92.6853 144.732 93.032V99H143.3V90.896H144.156C144.359 90.896 144.484 90.9947 144.532 91.192L144.644 92.072ZM154.6 99.128C153.96 99.128 153.467 98.9493 153.12 98.592C152.779 98.2347 152.608 97.72 152.608 97.048V92.088H151.632C151.547 92.088 151.475 92.064 151.416 92.016C151.358 91.9627 151.328 91.8827 151.328 91.776V91.208L152.656 91.04L152.984 88.536C153 88.456 153.035 88.392 153.088 88.344C153.147 88.2907 153.222 88.264 153.312 88.264H154.032V91.056H156.376V92.088H154.032V96.952C154.032 97.2933 154.115 97.5467 154.28 97.712C154.446 97.8773 154.659 97.96 154.92 97.96C155.07 97.96 155.198 97.9413 155.304 97.904C155.416 97.8613 155.512 97.816 155.592 97.768C155.672 97.72 155.739 97.6773 155.792 97.64C155.851 97.5973 155.902 97.576 155.944 97.576C156.019 97.576 156.086 97.6213 156.144 97.712L156.56 98.392C156.315 98.6213 156.019 98.8027 155.672 98.936C155.326 99.064 154.968 99.128 154.6 99.128ZM163.224 94.064C163.224 93.7333 163.176 93.432 163.08 93.16C162.989 92.8827 162.853 92.6453 162.672 92.448C162.496 92.2453 162.28 92.0907 162.024 91.984C161.768 91.872 161.477 91.816 161.152 91.816C160.469 91.816 159.928 92.016 159.528 92.416C159.133 92.8107 158.888 93.36 158.792 94.064H163.224ZM164.376 97.864C164.2 98.0773 163.989 98.264 163.744 98.424C163.499 98.5787 163.235 98.7067 162.952 98.808C162.675 98.9093 162.387 98.984 162.088 99.032C161.789 99.0853 161.493 99.112 161.2 99.112C160.64 99.112 160.123 99.0187 159.648 98.832C159.179 98.64 158.771 98.3627 158.424 98C158.083 97.632 157.816 97.1787 157.624 96.64C157.432 96.1013 157.336 95.4827 157.336 94.784C157.336 94.2187 157.421 93.6907 157.592 93.2C157.768 92.7093 158.019 92.2853 158.344 91.928C158.669 91.5653 159.067 91.2827 159.536 91.08C160.005 90.872 160.533 90.768 161.12 90.768C161.605 90.768 162.053 90.8507 162.464 91.016C162.88 91.176 163.237 91.4107 163.536 91.72C163.84 92.024 164.077 92.4027 164.248 92.856C164.419 93.304 164.504 93.816 164.504 94.392C164.504 94.616 164.48 94.7653 164.432 94.84C164.384 94.9147 164.293 94.952 164.16 94.952H158.744C158.76 95.464 158.829 95.9093 158.952 96.288C159.08 96.6667 159.256 96.984 159.48 97.24C159.704 97.4907 159.971 97.68 160.28 97.808C160.589 97.9307 160.936 97.992 161.32 97.992C161.677 97.992 161.984 97.952 162.24 97.872C162.501 97.7867 162.725 97.696 162.912 97.6C163.099 97.504 163.253 97.416 163.376 97.336C163.504 97.2507 163.613 97.208 163.704 97.208C163.821 97.208 163.912 97.2533 163.976 97.344L164.376 97.864ZM167.605 92.52C167.861 91.9653 168.176 91.5333 168.549 91.224C168.922 90.9093 169.378 90.752 169.917 90.752C170.088 90.752 170.25 90.7707 170.405 90.808C170.565 90.8453 170.706 90.904 170.829 90.984L170.725 92.048C170.693 92.1813 170.613 92.248 170.485 92.248C170.41 92.248 170.301 92.232 170.157 92.2C170.013 92.168 169.85 92.152 169.669 92.152C169.413 92.152 169.184 92.1893 168.981 92.264C168.784 92.3387 168.605 92.4507 168.445 92.6C168.29 92.744 168.149 92.9253 168.021 93.144C167.898 93.3573 167.786 93.6027 167.685 93.88V99H166.253V90.896H167.069C167.224 90.896 167.33 90.9253 167.389 90.984C167.448 91.0427 167.488 91.144 167.509 91.288L167.605 92.52ZM179.025 90.896L175.721 99H174.441L171.137 90.896H172.297C172.414 90.896 172.51 90.9253 172.585 90.984C172.66 91.0427 172.71 91.112 172.737 91.192L174.793 96.408C174.857 96.6053 174.913 96.7973 174.961 96.984C175.009 97.1707 175.054 97.3573 175.097 97.544C175.14 97.3573 175.185 97.1707 175.233 96.984C175.281 96.7973 175.34 96.6053 175.409 96.408L177.489 91.192C177.521 91.1067 177.574 91.0373 177.649 90.984C177.724 90.9253 177.812 90.896 177.913 90.896H179.025ZM181.835 90.896V99H180.411V90.896H181.835ZM182.139 88.352C182.139 88.4907 182.11 88.6213 182.051 88.744C181.998 88.8613 181.923 88.968 181.827 89.064C181.736 89.1547 181.627 89.2267 181.499 89.28C181.376 89.3333 181.246 89.36 181.107 89.36C180.968 89.36 180.838 89.3333 180.715 89.28C180.598 89.2267 180.494 89.1547 180.403 89.064C180.312 88.968 180.24 88.8613 180.187 88.744C180.134 88.6213 180.107 88.4907 180.107 88.352C180.107 88.2133 180.134 88.0827 180.187 87.96C180.24 87.832 180.312 87.7227 180.403 87.632C180.494 87.536 180.598 87.4613 180.715 87.408C180.838 87.3547 180.968 87.328 181.107 87.328C181.246 87.328 181.376 87.3547 181.499 87.408C181.627 87.4613 181.736 87.536 181.827 87.632C181.923 87.7227 181.998 87.832 182.051 87.96C182.11 88.0827 182.139 88.2133 182.139 88.352ZM189.599 94.064C189.599 93.7333 189.551 93.432 189.455 93.16C189.364 92.8827 189.228 92.6453 189.047 92.448C188.871 92.2453 188.655 92.0907 188.399 91.984C188.143 91.872 187.852 91.816 187.527 91.816C186.844 91.816 186.303 92.016 185.903 92.416C185.508 92.8107 185.263 93.36 185.167 94.064H189.599ZM190.751 97.864C190.575 98.0773 190.364 98.264 190.119 98.424C189.874 98.5787 189.61 98.7067 189.327 98.808C189.05 98.9093 188.762 98.984 188.463 99.032C188.164 99.0853 187.868 99.112 187.575 99.112C187.015 99.112 186.498 99.0187 186.023 98.832C185.554 98.64 185.146 98.3627 184.799 98C184.458 97.632 184.191 97.1787 183.999 96.64C183.807 96.1013 183.711 95.4827 183.711 94.784C183.711 94.2187 183.796 93.6907 183.967 93.2C184.143 92.7093 184.394 92.2853 184.719 91.928C185.044 91.5653 185.442 91.2827 185.911 91.08C186.38 90.872 186.908 90.768 187.495 90.768C187.98 90.768 188.428 90.8507 188.839 91.016C189.255 91.176 189.612 91.4107 189.911 91.72C190.215 92.024 190.452 92.4027 190.623 92.856C190.794 93.304 190.879 93.816 190.879 94.392C190.879 94.616 190.855 94.7653 190.807 94.84C190.759 94.9147 190.668 94.952 190.535 94.952H185.119C185.135 95.464 185.204 95.9093 185.327 96.288C185.455 96.6667 185.631 96.984 185.855 97.24C186.079 97.4907 186.346 97.68 186.655 97.808C186.964 97.9307 187.311 97.992 187.695 97.992C188.052 97.992 188.359 97.952 188.615 97.872C188.876 97.7867 189.1 97.696 189.287 97.6C189.474 97.504 189.628 97.416 189.751 97.336C189.879 97.2507 189.988 97.208 190.079 97.208C190.196 97.208 190.287 97.2533 190.351 97.344L190.751 97.864ZM203.726 90.896L201.102 99H199.974C199.835 99 199.739 98.9093 199.686 98.728L197.894 93.232C197.851 93.1093 197.817 92.9867 197.79 92.864C197.763 92.736 197.737 92.6107 197.71 92.488C197.683 92.6107 197.657 92.736 197.63 92.864C197.603 92.9867 197.569 93.112 197.526 93.24L195.702 98.728C195.654 98.9093 195.547 99 195.382 99H194.31L191.686 90.896H192.806C192.918 90.896 193.011 90.9253 193.086 90.984C193.166 91.0427 193.219 91.112 193.246 91.192L194.798 96.408C194.889 96.792 194.961 97.1547 195.014 97.496C195.062 97.32 195.11 97.1413 195.158 96.96C195.211 96.7787 195.267 96.5947 195.326 96.408L197.038 91.16C197.065 91.08 197.11 91.0133 197.174 90.96C197.243 90.9067 197.326 90.88 197.422 90.88H198.046C198.153 90.88 198.241 90.9067 198.31 90.96C198.379 91.0133 198.427 91.08 198.454 91.16L200.126 96.408C200.185 96.5947 200.238 96.7787 200.286 96.96C200.334 97.1413 200.379 97.32 200.422 97.496C200.449 97.32 200.481 97.144 200.518 96.968C200.561 96.7867 200.606 96.6 200.654 96.408L202.238 91.192C202.265 91.1067 202.315 91.0373 202.39 90.984C202.465 90.9253 202.553 90.896 202.654 90.896H203.726ZM209.77 92.232C209.706 92.3493 209.607 92.408 209.474 92.408C209.394 92.408 209.303 92.3787 209.202 92.32C209.101 92.2613 208.975 92.1973 208.826 92.128C208.682 92.0533 208.509 91.9867 208.306 91.928C208.103 91.864 207.863 91.832 207.586 91.832C207.346 91.832 207.13 91.864 206.938 91.928C206.746 91.9867 206.581 92.0693 206.442 92.176C206.309 92.2827 206.205 92.408 206.13 92.552C206.061 92.6907 206.026 92.8427 206.026 93.008C206.026 93.216 206.085 93.3893 206.202 93.528C206.325 93.6667 206.485 93.7867 206.682 93.888C206.879 93.9893 207.103 94.08 207.354 94.16C207.605 94.2347 207.861 94.3173 208.122 94.408C208.389 94.4933 208.647 94.5893 208.898 94.696C209.149 94.8027 209.373 94.936 209.57 95.096C209.767 95.256 209.925 95.4533 210.042 95.688C210.165 95.9173 210.226 96.1947 210.226 96.52C210.226 96.8933 210.159 97.24 210.026 97.56C209.893 97.8747 209.695 98.1493 209.434 98.384C209.173 98.6133 208.853 98.7947 208.474 98.928C208.095 99.0613 207.658 99.128 207.162 99.128C206.597 99.128 206.085 99.0373 205.626 98.856C205.167 98.6693 204.778 98.432 204.458 98.144L204.794 97.6C204.837 97.5307 204.887 97.4773 204.946 97.44C205.005 97.4027 205.079 97.384 205.17 97.384C205.266 97.384 205.367 97.4213 205.474 97.496C205.581 97.5707 205.709 97.6533 205.858 97.744C206.013 97.8347 206.199 97.9173 206.418 97.992C206.637 98.0667 206.909 98.104 207.234 98.104C207.511 98.104 207.754 98.0693 207.962 98C208.17 97.9253 208.343 97.8267 208.482 97.704C208.621 97.5813 208.722 97.44 208.786 97.28C208.855 97.12 208.89 96.9493 208.89 96.768C208.89 96.544 208.829 96.36 208.706 96.216C208.589 96.0667 208.431 95.9413 208.234 95.84C208.037 95.7333 207.81 95.6427 207.554 95.568C207.303 95.488 207.045 95.4053 206.778 95.32C206.517 95.2347 206.258 95.1387 206.002 95.032C205.751 94.92 205.527 94.7813 205.33 94.616C205.133 94.4507 204.973 94.248 204.85 94.008C204.733 93.7627 204.674 93.4667 204.674 93.12C204.674 92.8107 204.738 92.5147 204.866 92.232C204.994 91.944 205.181 91.6933 205.426 91.48C205.671 91.2613 205.973 91.088 206.33 90.96C206.687 90.832 207.095 90.768 207.554 90.768C208.087 90.768 208.565 90.8533 208.986 91.024C209.413 91.1893 209.781 91.4187 210.09 91.712L209.77 92.232ZM111.512 121.632C111.597 121.632 111.672 121.667 111.736 121.736L112.352 122.4C111.883 122.944 111.312 123.368 110.64 123.672C109.973 123.976 109.165 124.128 108.216 124.128C107.395 124.128 106.648 123.987 105.976 123.704C105.304 123.416 104.731 123.016 104.256 122.504C103.781 121.987 103.413 121.368 103.152 120.648C102.891 119.928 102.76 119.136 102.76 118.272C102.76 117.408 102.896 116.616 103.168 115.896C103.44 115.176 103.821 114.557 104.312 114.04C104.808 113.523 105.4 113.123 106.088 112.84C106.776 112.552 107.536 112.408 108.368 112.408C109.184 112.408 109.904 112.539 110.528 112.8C111.152 113.061 111.701 113.416 112.176 113.864L111.664 114.576C111.632 114.629 111.589 114.675 111.536 114.712C111.488 114.744 111.421 114.76 111.336 114.76C111.24 114.76 111.123 114.709 110.984 114.608C110.845 114.501 110.664 114.384 110.44 114.256C110.216 114.128 109.936 114.013 109.6 113.912C109.264 113.805 108.851 113.752 108.36 113.752C107.768 113.752 107.227 113.856 106.736 114.064C106.245 114.267 105.821 114.563 105.464 114.952C105.112 115.341 104.837 115.816 104.64 116.376C104.443 116.936 104.344 117.568 104.344 118.272C104.344 118.987 104.445 119.624 104.648 120.184C104.856 120.744 105.136 121.219 105.488 121.608C105.845 121.992 106.264 122.285 106.744 122.488C107.229 122.691 107.752 122.792 108.312 122.792C108.653 122.792 108.96 122.773 109.232 122.736C109.509 122.693 109.763 122.629 109.992 122.544C110.227 122.459 110.443 122.352 110.64 122.224C110.843 122.091 111.043 121.933 111.24 121.752C111.331 121.672 111.421 121.632 111.512 121.632ZM117.075 115.768C117.667 115.768 118.201 115.867 118.675 116.064C119.15 116.261 119.555 116.541 119.891 116.904C120.227 117.267 120.483 117.707 120.659 118.224C120.841 118.736 120.931 119.309 120.931 119.944C120.931 120.584 120.841 121.16 120.659 121.672C120.483 122.184 120.227 122.621 119.891 122.984C119.555 123.347 119.15 123.627 118.675 123.824C118.201 124.016 117.667 124.112 117.075 124.112C116.478 124.112 115.939 124.016 115.459 123.824C114.985 123.627 114.579 123.347 114.243 122.984C113.907 122.621 113.649 122.184 113.467 121.672C113.291 121.16 113.203 120.584 113.203 119.944C113.203 119.309 113.291 118.736 113.467 118.224C113.649 117.707 113.907 117.267 114.243 116.904C114.579 116.541 114.985 116.261 115.459 116.064C115.939 115.867 116.478 115.768 117.075 115.768ZM117.075 123C117.875 123 118.473 122.733 118.867 122.2C119.262 121.661 119.459 120.912 119.459 119.952C119.459 118.987 119.262 118.235 118.867 117.696C118.473 117.157 117.875 116.888 117.075 116.888C116.67 116.888 116.315 116.957 116.011 117.096C115.713 117.235 115.462 117.435 115.259 117.696C115.062 117.957 114.913 118.28 114.811 118.664C114.715 119.043 114.667 119.472 114.667 119.952C114.667 120.912 114.865 121.661 115.259 122.2C115.659 122.733 116.265 123 117.075 123ZM122.737 124V115.896H123.593C123.796 115.896 123.921 115.995 123.969 116.192L124.073 117.024C124.372 116.656 124.708 116.355 125.081 116.12C125.455 115.885 125.887 115.768 126.377 115.768C126.921 115.768 127.361 115.92 127.697 116.224C128.039 116.528 128.284 116.939 128.433 117.456C128.551 117.163 128.7 116.909 128.881 116.696C129.068 116.483 129.276 116.307 129.505 116.168C129.735 116.029 129.977 115.928 130.233 115.864C130.495 115.8 130.759 115.768 131.025 115.768C131.452 115.768 131.831 115.837 132.161 115.976C132.497 116.109 132.78 116.307 133.009 116.568C133.244 116.829 133.423 117.152 133.545 117.536C133.668 117.915 133.729 118.349 133.729 118.84V124H132.297V118.84C132.297 118.205 132.159 117.725 131.881 117.4C131.604 117.069 131.204 116.904 130.681 116.904C130.447 116.904 130.223 116.947 130.009 117.032C129.801 117.112 129.617 117.232 129.457 117.392C129.297 117.552 129.169 117.755 129.073 118C128.983 118.24 128.937 118.52 128.937 118.84V124H127.505V118.84C127.505 118.189 127.375 117.704 127.113 117.384C126.852 117.064 126.471 116.904 125.969 116.904C125.617 116.904 125.292 117 124.993 117.192C124.695 117.379 124.42 117.635 124.169 117.96V124H122.737ZM137.326 122.048C137.587 122.4 137.872 122.648 138.182 122.792C138.491 122.936 138.838 123.008 139.222 123.008C139.979 123.008 140.56 122.739 140.966 122.2C141.371 121.661 141.574 120.893 141.574 119.896C141.574 119.368 141.526 118.915 141.43 118.536C141.339 118.157 141.206 117.848 141.03 117.608C140.854 117.363 140.638 117.184 140.382 117.072C140.126 116.96 139.835 116.904 139.51 116.904C139.046 116.904 138.638 117.011 138.286 117.224C137.939 117.437 137.619 117.739 137.326 118.128V122.048ZM137.254 117.152C137.595 116.731 137.99 116.392 138.438 116.136C138.886 115.88 139.398 115.752 139.974 115.752C140.443 115.752 140.867 115.843 141.246 116.024C141.624 116.2 141.947 116.464 142.214 116.816C142.48 117.163 142.686 117.595 142.83 118.112C142.974 118.629 143.046 119.224 143.046 119.896C143.046 120.493 142.966 121.051 142.806 121.568C142.646 122.08 142.414 122.525 142.11 122.904C141.811 123.277 141.443 123.573 141.006 123.792C140.574 124.005 140.086 124.112 139.542 124.112C139.046 124.112 138.619 124.029 138.262 123.864C137.91 123.693 137.598 123.459 137.326 123.16V126.744H135.894V115.896H136.75C136.952 115.896 137.078 115.995 137.126 116.192L137.254 117.152ZM150.286 119.064C150.286 118.733 150.238 118.432 150.142 118.16C150.052 117.883 149.916 117.645 149.734 117.448C149.558 117.245 149.342 117.091 149.086 116.984C148.83 116.872 148.54 116.816 148.214 116.816C147.532 116.816 146.99 117.016 146.59 117.416C146.196 117.811 145.95 118.36 145.854 119.064H150.286ZM151.438 122.864C151.262 123.077 151.052 123.264 150.806 123.424C150.561 123.579 150.297 123.707 150.014 123.808C149.737 123.909 149.449 123.984 149.15 124.032C148.852 124.085 148.556 124.112 148.262 124.112C147.702 124.112 147.185 124.019 146.71 123.832C146.241 123.64 145.833 123.363 145.486 123C145.145 122.632 144.878 122.179 144.686 121.64C144.494 121.101 144.398 120.483 144.398 119.784C144.398 119.219 144.484 118.691 144.654 118.2C144.83 117.709 145.081 117.285 145.406 116.928C145.732 116.565 146.129 116.283 146.598 116.08C147.068 115.872 147.596 115.768 148.182 115.768C148.668 115.768 149.116 115.851 149.526 116.016C149.942 116.176 150.3 116.411 150.598 116.72C150.902 117.024 151.14 117.403 151.31 117.856C151.481 118.304 151.566 118.816 151.566 119.392C151.566 119.616 151.542 119.765 151.494 119.84C151.446 119.915 151.356 119.952 151.222 119.952H145.806C145.822 120.464 145.892 120.909 146.014 121.288C146.142 121.667 146.318 121.984 146.542 122.24C146.766 122.491 147.033 122.68 147.342 122.808C147.652 122.931 147.998 122.992 148.382 122.992C148.74 122.992 149.046 122.952 149.302 122.872C149.564 122.787 149.788 122.696 149.974 122.6C150.161 122.504 150.316 122.416 150.438 122.336C150.566 122.251 150.676 122.208 150.766 122.208C150.884 122.208 150.974 122.253 151.038 122.344L151.438 122.864ZM160.773 124H159.349V117.088H155.173V121.952C155.173 122.293 155.256 122.547 155.421 122.712C155.586 122.877 155.8 122.96 156.061 122.96C156.21 122.96 156.338 122.941 156.445 122.904C156.557 122.861 156.653 122.816 156.733 122.768C156.813 122.72 156.88 122.677 156.933 122.64C156.992 122.597 157.042 122.576 157.085 122.576C157.16 122.576 157.226 122.621 157.285 122.712L157.701 123.392C157.456 123.621 157.16 123.803 156.813 123.936C156.466 124.064 156.109 124.128 155.741 124.128C155.101 124.128 154.608 123.949 154.261 123.592C153.92 123.235 153.749 122.72 153.749 122.048V117.088H152.773C152.688 117.088 152.616 117.064 152.557 117.016C152.498 116.963 152.469 116.883 152.469 116.776V116.208L153.797 116.032L154.125 113.536C154.141 113.456 154.176 113.392 154.229 113.344C154.288 113.291 154.362 113.264 154.453 113.264H155.173V116.056H160.773V124ZM161.125 113.296C161.125 113.435 161.096 113.565 161.037 113.688C160.984 113.805 160.909 113.909 160.813 114C160.722 114.091 160.616 114.163 160.493 114.216C160.37 114.269 160.24 114.296 160.101 114.296C159.962 114.296 159.832 114.269 159.709 114.216C159.592 114.163 159.488 114.091 159.397 114C159.306 113.909 159.234 113.805 159.181 113.688C159.128 113.565 159.101 113.435 159.101 113.296C159.101 113.157 159.128 113.027 159.181 112.904C159.234 112.776 159.306 112.667 159.397 112.576C159.488 112.48 159.592 112.405 159.709 112.352C159.832 112.299 159.962 112.272 160.101 112.272C160.24 112.272 160.37 112.299 160.493 112.352C160.616 112.405 160.722 112.48 160.813 112.576C160.909 112.667 160.984 112.776 161.037 112.904C161.096 113.027 161.125 113.157 161.125 113.296ZM165.6 124.128C164.96 124.128 164.467 123.949 164.12 123.592C163.779 123.235 163.608 122.72 163.608 122.048V117.088H162.632C162.547 117.088 162.475 117.064 162.416 117.016C162.358 116.963 162.328 116.883 162.328 116.776V116.208L163.656 116.04L163.984 113.536C164 113.456 164.035 113.392 164.088 113.344C164.147 113.291 164.222 113.264 164.312 113.264H165.032V116.056H167.376V117.088H165.032V121.952C165.032 122.293 165.115 122.547 165.28 122.712C165.446 122.877 165.659 122.96 165.92 122.96C166.07 122.96 166.198 122.941 166.304 122.904C166.416 122.861 166.512 122.816 166.592 122.768C166.672 122.72 166.739 122.677 166.792 122.64C166.851 122.597 166.902 122.576 166.944 122.576C167.019 122.576 167.086 122.621 167.144 122.712L167.56 123.392C167.315 123.621 167.019 123.803 166.672 123.936C166.326 124.064 165.968 124.128 165.6 124.128ZM172.216 115.768C172.808 115.768 173.341 115.867 173.816 116.064C174.291 116.261 174.696 116.541 175.032 116.904C175.368 117.267 175.624 117.707 175.8 118.224C175.981 118.736 176.072 119.309 176.072 119.944C176.072 120.584 175.981 121.16 175.8 121.672C175.624 122.184 175.368 122.621 175.032 122.984C174.696 123.347 174.291 123.627 173.816 123.824C173.341 124.016 172.808 124.112 172.216 124.112C171.619 124.112 171.08 124.016 170.6 123.824C170.125 123.627 169.72 123.347 169.384 122.984C169.048 122.621 168.789 122.184 168.608 121.672C168.432 121.16 168.344 120.584 168.344 119.944C168.344 119.309 168.432 118.736 168.608 118.224C168.789 117.707 169.048 117.267 169.384 116.904C169.72 116.541 170.125 116.261 170.6 116.064C171.08 115.867 171.619 115.768 172.216 115.768ZM172.216 123C173.016 123 173.613 122.733 174.008 122.2C174.403 121.661 174.6 120.912 174.6 119.952C174.6 118.987 174.403 118.235 174.008 117.696C173.613 117.157 173.016 116.888 172.216 116.888C171.811 116.888 171.456 116.957 171.152 117.096C170.853 117.235 170.603 117.435 170.4 117.696C170.203 117.957 170.053 118.28 169.952 118.664C169.856 119.043 169.808 119.472 169.808 119.952C169.808 120.912 170.005 121.661 170.4 122.2C170.8 122.733 171.405 123 172.216 123ZM179.23 117.52C179.486 116.965 179.801 116.533 180.174 116.224C180.547 115.909 181.003 115.752 181.542 115.752C181.713 115.752 181.875 115.771 182.03 115.808C182.19 115.845 182.331 115.904 182.454 115.984L182.35 117.048C182.318 117.181 182.238 117.248 182.11 117.248C182.035 117.248 181.926 117.232 181.782 117.2C181.638 117.168 181.475 117.152 181.294 117.152C181.038 117.152 180.809 117.189 180.606 117.264C180.409 117.339 180.23 117.451 180.07 117.6C179.915 117.744 179.774 117.925 179.646 118.144C179.523 118.357 179.411 118.603 179.31 118.88V124H177.878V115.896H178.694C178.849 115.896 178.955 115.925 179.014 115.984C179.073 116.043 179.113 116.144 179.134 116.288L179.23 117.52ZM187.984 124V117.112L187.088 117.008C186.976 116.981 186.883 116.941 186.808 116.888C186.739 116.829 186.704 116.747 186.704 116.64V116.056H187.984V115.272C187.984 114.808 188.048 114.397 188.176 114.04C188.309 113.677 188.496 113.373 188.736 113.128C188.981 112.877 189.275 112.688 189.616 112.56C189.957 112.432 190.341 112.368 190.768 112.368C191.131 112.368 191.464 112.421 191.768 112.528L191.736 113.24C191.725 113.368 191.653 113.437 191.52 113.448C191.392 113.459 191.219 113.464 191 113.464C190.755 113.464 190.531 113.496 190.328 113.56C190.131 113.624 189.96 113.728 189.816 113.872C189.672 114.016 189.56 114.205 189.48 114.44C189.405 114.675 189.368 114.965 189.368 115.312V116.056H191.704V117.088H189.416V124H187.984ZM198.224 119.064C198.224 118.733 198.176 118.432 198.08 118.16C197.989 117.883 197.853 117.645 197.672 117.448C197.496 117.245 197.28 117.091 197.024 116.984C196.768 116.872 196.477 116.816 196.152 116.816C195.469 116.816 194.928 117.016 194.528 117.416C194.133 117.811 193.888 118.36 193.792 119.064H198.224ZM199.376 122.864C199.2 123.077 198.989 123.264 198.744 123.424C198.499 123.579 198.235 123.707 197.952 123.808C197.675 123.909 197.387 123.984 197.088 124.032C196.789 124.085 196.493 124.112 196.2 124.112C195.64 124.112 195.123 124.019 194.648 123.832C194.179 123.64 193.771 123.363 193.424 123C193.083 122.632 192.816 122.179 192.624 121.64C192.432 121.101 192.336 120.483 192.336 119.784C192.336 119.219 192.421 118.691 192.592 118.2C192.768 117.709 193.019 117.285 193.344 116.928C193.669 116.565 194.067 116.283 194.536 116.08C195.005 115.872 195.533 115.768 196.12 115.768C196.605 115.768 197.053 115.851 197.464 116.016C197.88 116.176 198.237 116.411 198.536 116.72C198.84 117.024 199.077 117.403 199.248 117.856C199.419 118.304 199.504 118.816 199.504 119.392C199.504 119.616 199.48 119.765 199.432 119.84C199.384 119.915 199.293 119.952 199.16 119.952H193.744C193.76 120.464 193.829 120.909 193.952 121.288C194.08 121.667 194.256 121.984 194.48 122.24C194.704 122.491 194.971 122.68 195.28 122.808C195.589 122.931 195.936 122.992 196.32 122.992C196.677 122.992 196.984 122.952 197.24 122.872C197.501 122.787 197.725 122.696 197.912 122.6C198.099 122.504 198.253 122.416 198.376 122.336C198.504 122.251 198.613 122.208 198.704 122.208C198.821 122.208 198.912 122.253 198.976 122.344L199.376 122.864ZM205.645 120.352C204.989 120.373 204.429 120.427 203.965 120.512C203.506 120.592 203.13 120.699 202.837 120.832C202.549 120.965 202.338 121.123 202.205 121.304C202.077 121.485 202.013 121.688 202.013 121.912C202.013 122.125 202.048 122.309 202.117 122.464C202.186 122.619 202.28 122.747 202.397 122.848C202.52 122.944 202.661 123.016 202.821 123.064C202.986 123.107 203.162 123.128 203.349 123.128C203.6 123.128 203.829 123.104 204.037 123.056C204.245 123.003 204.44 122.928 204.621 122.832C204.808 122.736 204.984 122.621 205.149 122.488C205.32 122.355 205.485 122.203 205.645 122.032V120.352ZM201.045 117.04C201.493 116.608 201.976 116.285 202.493 116.072C203.01 115.859 203.584 115.752 204.213 115.752C204.666 115.752 205.069 115.827 205.421 115.976C205.773 116.125 206.069 116.333 206.309 116.6C206.549 116.867 206.73 117.189 206.853 117.568C206.976 117.947 207.037 118.363 207.037 118.816V124H206.405C206.266 124 206.16 123.979 206.085 123.936C206.01 123.888 205.952 123.797 205.909 123.664L205.749 122.896C205.536 123.093 205.328 123.269 205.125 123.424C204.922 123.573 204.709 123.701 204.485 123.808C204.261 123.909 204.021 123.987 203.765 124.04C203.514 124.099 203.234 124.128 202.925 124.128C202.61 124.128 202.314 124.085 202.037 124C201.76 123.909 201.517 123.776 201.309 123.6C201.106 123.424 200.944 123.203 200.821 122.936C200.704 122.664 200.645 122.344 200.645 121.976C200.645 121.656 200.733 121.349 200.909 121.056C201.085 120.757 201.37 120.493 201.765 120.264C202.16 120.035 202.674 119.848 203.309 119.704C203.944 119.555 204.722 119.469 205.645 119.448V118.816C205.645 118.187 205.509 117.712 205.237 117.392C204.965 117.067 204.568 116.904 204.045 116.904C203.693 116.904 203.397 116.949 203.157 117.04C202.922 117.125 202.717 117.224 202.541 117.336C202.37 117.443 202.221 117.541 202.093 117.632C201.97 117.717 201.848 117.76 201.725 117.76C201.629 117.76 201.546 117.736 201.477 117.688C201.408 117.635 201.349 117.571 201.301 117.496L201.045 117.04ZM211.585 124.128C210.945 124.128 210.451 123.949 210.105 123.592C209.763 123.235 209.593 122.72 209.593 122.048V117.088H208.617C208.531 117.088 208.459 117.064 208.401 117.016C208.342 116.963 208.313 116.883 208.313 116.776V116.208L209.641 116.04L209.969 113.536C209.985 113.456 210.019 113.392 210.073 113.344C210.131 113.291 210.206 113.264 210.297 113.264H211.017V116.056H213.361V117.088H211.017V121.952C211.017 122.293 211.099 122.547 211.265 122.712C211.43 122.877 211.643 122.96 211.905 122.96C212.054 122.96 212.182 122.941 212.289 122.904C212.401 122.861 212.497 122.816 212.577 122.768C212.657 122.72 212.723 122.677 212.777 122.64C212.835 122.597 212.886 122.576 212.929 122.576C213.003 122.576 213.07 122.621 213.129 122.712L213.545 123.392C213.299 123.621 213.003 123.803 212.657 123.936C212.31 124.064 211.953 124.128 211.585 124.128ZM221.495 115.896V124H220.647C220.444 124 220.316 123.901 220.263 123.704L220.151 122.832C219.799 123.221 219.404 123.536 218.967 123.776C218.53 124.011 218.028 124.128 217.463 124.128C217.02 124.128 216.628 124.056 216.287 123.912C215.951 123.763 215.668 123.555 215.439 123.288C215.21 123.021 215.036 122.699 214.919 122.32C214.807 121.941 214.751 121.523 214.751 121.064V115.896H216.175V121.064C216.175 121.677 216.314 122.152 216.591 122.488C216.874 122.824 217.303 122.992 217.879 122.992C218.3 122.992 218.692 122.893 219.055 122.696C219.423 122.493 219.762 122.216 220.071 121.864V115.896H221.495ZM225.105 117.52C225.361 116.965 225.676 116.533 226.049 116.224C226.422 115.909 226.878 115.752 227.417 115.752C227.588 115.752 227.75 115.771 227.905 115.808C228.065 115.845 228.206 115.904 228.329 115.984L228.225 117.048C228.193 117.181 228.113 117.248 227.985 117.248C227.91 117.248 227.801 117.232 227.657 117.2C227.513 117.168 227.35 117.152 227.169 117.152C226.913 117.152 226.684 117.189 226.481 117.264C226.284 117.339 226.105 117.451 225.945 117.6C225.79 117.744 225.649 117.925 225.521 118.144C225.398 118.357 225.286 118.603 225.185 118.88V124H223.753V115.896H224.569C224.724 115.896 224.83 115.925 224.889 115.984C224.948 116.043 224.988 116.144 225.009 116.288L225.105 117.52ZM234.677 119.064C234.677 118.733 234.629 118.432 234.533 118.16C234.442 117.883 234.306 117.645 234.125 117.448C233.949 117.245 233.733 117.091 233.477 116.984C233.221 116.872 232.93 116.816 232.605 116.816C231.922 116.816 231.381 117.016 230.981 117.416C230.586 117.811 230.341 118.36 230.245 119.064H234.677ZM235.829 122.864C235.653 123.077 235.442 123.264 235.197 123.424C234.952 123.579 234.688 123.707 234.405 123.808C234.128 123.909 233.84 123.984 233.541 124.032C233.242 124.085 232.946 124.112 232.653 124.112C232.093 124.112 231.576 124.019 231.101 123.832C230.632 123.64 230.224 123.363 229.877 123C229.536 122.632 229.269 122.179 229.077 121.64C228.885 121.101 228.789 120.483 228.789 119.784C228.789 119.219 228.874 118.691 229.045 118.2C229.221 117.709 229.472 117.285 229.797 116.928C230.122 116.565 230.52 116.283 230.989 116.08C231.458 115.872 231.986 115.768 232.573 115.768C233.058 115.768 233.506 115.851 233.917 116.016C234.333 116.176 234.69 116.411 234.989 116.72C235.293 117.024 235.53 117.403 235.701 117.856C235.872 118.304 235.957 118.816 235.957 119.392C235.957 119.616 235.933 119.765 235.885 119.84C235.837 119.915 235.746 119.952 235.613 119.952H230.197C230.213 120.464 230.282 120.909 230.405 121.288C230.533 121.667 230.709 121.984 230.933 122.24C231.157 122.491 231.424 122.68 231.733 122.808C232.042 122.931 232.389 122.992 232.773 122.992C233.13 122.992 233.437 122.952 233.693 122.872C233.954 122.787 234.178 122.696 234.365 122.6C234.552 122.504 234.706 122.416 234.829 122.336C234.957 122.251 235.066 122.208 235.157 122.208C235.274 122.208 235.365 122.253 235.429 122.344L235.829 122.864ZM246.192 120.352C245.536 120.373 244.976 120.427 244.512 120.512C244.053 120.592 243.677 120.699 243.384 120.832C243.096 120.965 242.885 121.123 242.752 121.304C242.624 121.485 242.56 121.688 242.56 121.912C242.56 122.125 242.595 122.309 242.664 122.464C242.733 122.619 242.827 122.747 242.944 122.848C243.067 122.944 243.208 123.016 243.368 123.064C243.533 123.107 243.709 123.128 243.896 123.128C244.147 123.128 244.376 123.104 244.584 123.056C244.792 123.003 244.987 122.928 245.168 122.832C245.355 122.736 245.531 122.621 245.696 122.488C245.867 122.355 246.032 122.203 246.192 122.032V120.352ZM241.592 117.04C242.04 116.608 242.523 116.285 243.04 116.072C243.557 115.859 244.131 115.752 244.76 115.752C245.213 115.752 245.616 115.827 245.968 115.976C246.32 116.125 246.616 116.333 246.856 116.6C247.096 116.867 247.277 117.189 247.4 117.568C247.523 117.947 247.584 118.363 247.584 118.816V124H246.952C246.813 124 246.707 123.979 246.632 123.936C246.557 123.888 246.499 123.797 246.456 123.664L246.296 122.896C246.083 123.093 245.875 123.269 245.672 123.424C245.469 123.573 245.256 123.701 245.032 123.808C244.808 123.909 244.568 123.987 244.312 124.04C244.061 124.099 243.781 124.128 243.472 124.128C243.157 124.128 242.861 124.085 242.584 124C242.307 123.909 242.064 123.776 241.856 123.6C241.653 123.424 241.491 123.203 241.368 122.936C241.251 122.664 241.192 122.344 241.192 121.976C241.192 121.656 241.28 121.349 241.456 121.056C241.632 120.757 241.917 120.493 242.312 120.264C242.707 120.035 243.221 119.848 243.856 119.704C244.491 119.555 245.269 119.469 246.192 119.448V118.816C246.192 118.187 246.056 117.712 245.784 117.392C245.512 117.067 245.115 116.904 244.592 116.904C244.24 116.904 243.944 116.949 243.704 117.04C243.469 117.125 243.264 117.224 243.088 117.336C242.917 117.443 242.768 117.541 242.64 117.632C242.517 117.717 242.395 117.76 242.272 117.76C242.176 117.76 242.093 117.736 242.024 117.688C241.955 117.635 241.896 117.571 241.848 117.496L241.592 117.04ZM251.097 117.072C251.273 116.875 251.46 116.696 251.657 116.536C251.854 116.376 252.062 116.24 252.281 116.128C252.505 116.011 252.74 115.923 252.985 115.864C253.236 115.8 253.505 115.768 253.793 115.768C254.236 115.768 254.625 115.843 254.961 115.992C255.302 116.136 255.585 116.344 255.809 116.616C256.038 116.883 256.212 117.205 256.329 117.584C256.446 117.963 256.505 118.381 256.505 118.84V124H255.073V118.84C255.073 118.227 254.932 117.752 254.649 117.416C254.372 117.075 253.948 116.904 253.377 116.904C252.956 116.904 252.561 117.005 252.193 117.208C251.83 117.411 251.494 117.685 251.185 118.032V124H249.753V115.896H250.609C250.812 115.896 250.937 115.995 250.985 116.192L251.097 117.072ZM263.067 120.352C262.411 120.373 261.851 120.427 261.387 120.512C260.928 120.592 260.552 120.699 260.259 120.832C259.971 120.965 259.76 121.123 259.627 121.304C259.499 121.485 259.435 121.688 259.435 121.912C259.435 122.125 259.47 122.309 259.539 122.464C259.608 122.619 259.702 122.747 259.819 122.848C259.942 122.944 260.083 123.016 260.243 123.064C260.408 123.107 260.584 123.128 260.771 123.128C261.022 123.128 261.251 123.104 261.459 123.056C261.667 123.003 261.862 122.928 262.043 122.832C262.23 122.736 262.406 122.621 262.571 122.488C262.742 122.355 262.907 122.203 263.067 122.032V120.352ZM258.467 117.04C258.915 116.608 259.398 116.285 259.915 116.072C260.432 115.859 261.006 115.752 261.635 115.752C262.088 115.752 262.491 115.827 262.843 115.976C263.195 116.125 263.491 116.333 263.731 116.6C263.971 116.867 264.152 117.189 264.275 117.568C264.398 117.947 264.459 118.363 264.459 118.816V124H263.827C263.688 124 263.582 123.979 263.507 123.936C263.432 123.888 263.374 123.797 263.331 123.664L263.171 122.896C262.958 123.093 262.75 123.269 262.547 123.424C262.344 123.573 262.131 123.701 261.907 123.808C261.683 123.909 261.443 123.987 261.187 124.04C260.936 124.099 260.656 124.128 260.347 124.128C260.032 124.128 259.736 124.085 259.459 124C259.182 123.909 258.939 123.776 258.731 123.6C258.528 123.424 258.366 123.203 258.243 122.936C258.126 122.664 258.067 122.344 258.067 121.976C258.067 121.656 258.155 121.349 258.331 121.056C258.507 120.757 258.792 120.493 259.187 120.264C259.582 120.035 260.096 119.848 260.731 119.704C261.366 119.555 262.144 119.469 263.067 119.448V118.816C263.067 118.187 262.931 117.712 262.659 117.392C262.387 117.067 261.99 116.904 261.467 116.904C261.115 116.904 260.819 116.949 260.579 117.04C260.344 117.125 260.139 117.224 259.963 117.336C259.792 117.443 259.643 117.541 259.515 117.632C259.392 117.717 259.27 117.76 259.147 117.76C259.051 117.76 258.968 117.736 258.899 117.688C258.83 117.635 258.771 117.571 258.723 117.496L258.467 117.04ZM268.1 112.216V124H266.676V112.216H268.1ZM277.401 115.896L272.881 126.392C272.833 126.499 272.772 126.584 272.697 126.648C272.628 126.712 272.519 126.744 272.369 126.744H271.313L272.793 123.528L269.449 115.896H270.681C270.804 115.896 270.9 115.928 270.969 115.992C271.044 116.051 271.095 116.117 271.121 116.192L273.289 121.296C273.375 121.52 273.447 121.755 273.505 122C273.58 121.749 273.66 121.512 273.745 121.288L275.849 116.192C275.881 116.107 275.935 116.037 276.009 115.984C276.089 115.925 276.177 115.896 276.273 115.896H277.401ZM283.239 117.232C283.175 117.349 283.076 117.408 282.943 117.408C282.863 117.408 282.772 117.379 282.671 117.32C282.569 117.261 282.444 117.197 282.295 117.128C282.151 117.053 281.977 116.987 281.775 116.928C281.572 116.864 281.332 116.832 281.055 116.832C280.815 116.832 280.599 116.864 280.407 116.928C280.215 116.987 280.049 117.069 279.911 117.176C279.777 117.283 279.673 117.408 279.599 117.552C279.529 117.691 279.495 117.843 279.495 118.008C279.495 118.216 279.553 118.389 279.671 118.528C279.793 118.667 279.953 118.787 280.151 118.888C280.348 118.989 280.572 119.08 280.823 119.16C281.073 119.235 281.329 119.317 281.591 119.408C281.857 119.493 282.116 119.589 282.367 119.696C282.617 119.803 282.841 119.936 283.039 120.096C283.236 120.256 283.393 120.453 283.511 120.688C283.633 120.917 283.695 121.195 283.695 121.52C283.695 121.893 283.628 122.24 283.495 122.56C283.361 122.875 283.164 123.149 282.903 123.384C282.641 123.613 282.321 123.795 281.943 123.928C281.564 124.061 281.127 124.128 280.631 124.128C280.065 124.128 279.553 124.037 279.095 123.856C278.636 123.669 278.247 123.432 277.927 123.144L278.263 122.6C278.305 122.531 278.356 122.477 278.415 122.44C278.473 122.403 278.548 122.384 278.639 122.384C278.735 122.384 278.836 122.421 278.943 122.496C279.049 122.571 279.177 122.653 279.327 122.744C279.481 122.835 279.668 122.917 279.887 122.992C280.105 123.067 280.377 123.104 280.703 123.104C280.98 123.104 281.223 123.069 281.431 123C281.639 122.925 281.812 122.827 281.951 122.704C282.089 122.581 282.191 122.44 282.255 122.28C282.324 122.12 282.359 121.949 282.359 121.768C282.359 121.544 282.297 121.36 282.175 121.216C282.057 121.067 281.9 120.941 281.703 120.84C281.505 120.733 281.279 120.643 281.023 120.568C280.772 120.488 280.513 120.405 280.247 120.32C279.985 120.235 279.727 120.139 279.471 120.032C279.22 119.92 278.996 119.781 278.799 119.616C278.601 119.451 278.441 119.248 278.319 119.008C278.201 118.763 278.143 118.467 278.143 118.12C278.143 117.811 278.207 117.515 278.335 117.232C278.463 116.944 278.649 116.693 278.895 116.48C279.14 116.261 279.441 116.088 279.799 115.96C280.156 115.832 280.564 115.768 281.023 115.768C281.556 115.768 282.033 115.853 282.455 116.024C282.881 116.189 283.249 116.419 283.559 116.712L283.239 117.232ZM286.945 115.896V124H285.521V115.896H286.945ZM287.249 113.352C287.249 113.491 287.219 113.621 287.161 113.744C287.107 113.861 287.033 113.968 286.937 114.064C286.846 114.155 286.737 114.227 286.609 114.28C286.486 114.333 286.355 114.36 286.217 114.36C286.078 114.36 285.947 114.333 285.825 114.28C285.707 114.227 285.603 114.155 285.513 114.064C285.422 113.968 285.35 113.861 285.297 113.744C285.243 113.621 285.217 113.491 285.217 113.352C285.217 113.213 285.243 113.083 285.297 112.96C285.35 112.832 285.422 112.723 285.513 112.632C285.603 112.536 285.707 112.461 285.825 112.408C285.947 112.355 286.078 112.328 286.217 112.328C286.355 112.328 286.486 112.355 286.609 112.408C286.737 112.461 286.846 112.536 286.937 112.632C287.033 112.723 287.107 112.832 287.161 112.96C287.219 113.083 287.249 113.213 287.249 113.352ZM294.004 117.232C293.94 117.349 293.842 117.408 293.708 117.408C293.628 117.408 293.538 117.379 293.436 117.32C293.335 117.261 293.21 117.197 293.06 117.128C292.916 117.053 292.743 116.987 292.54 116.928C292.338 116.864 292.098 116.832 291.82 116.832C291.58 116.832 291.364 116.864 291.172 116.928C290.98 116.987 290.815 117.069 290.676 117.176C290.543 117.283 290.439 117.408 290.364 117.552C290.295 117.691 290.26 117.843 290.26 118.008C290.26 118.216 290.319 118.389 290.436 118.528C290.559 118.667 290.719 118.787 290.916 118.888C291.114 118.989 291.338 119.08 291.588 119.16C291.839 119.235 292.095 119.317 292.356 119.408C292.623 119.493 292.882 119.589 293.132 119.696C293.383 119.803 293.607 119.936 293.804 120.096C294.002 120.256 294.159 120.453 294.276 120.688C294.399 120.917 294.46 121.195 294.46 121.52C294.46 121.893 294.394 122.24 294.26 122.56C294.127 122.875 293.93 123.149 293.668 123.384C293.407 123.613 293.087 123.795 292.708 123.928C292.33 124.061 291.892 124.128 291.396 124.128C290.831 124.128 290.319 124.037 289.86 123.856C289.402 123.669 289.012 123.432 288.692 123.144L289.028 122.6C289.071 122.531 289.122 122.477 289.18 122.44C289.239 122.403 289.314 122.384 289.404 122.384C289.5 122.384 289.602 122.421 289.708 122.496C289.815 122.571 289.943 122.653 290.092 122.744C290.247 122.835 290.434 122.917 290.652 122.992C290.871 123.067 291.143 123.104 291.468 123.104C291.746 123.104 291.988 123.069 292.196 123C292.404 122.925 292.578 122.827 292.716 122.704C292.855 122.581 292.956 122.44 293.02 122.28C293.09 122.12 293.124 121.949 293.124 121.768C293.124 121.544 293.063 121.36 292.94 121.216C292.823 121.067 292.666 120.941 292.468 120.84C292.271 120.733 292.044 120.643 291.788 120.568C291.538 120.488 291.279 120.405 291.012 120.32C290.751 120.235 290.492 120.139 290.236 120.032C289.986 119.92 289.762 119.781 289.564 119.616C289.367 119.451 289.207 119.248 289.084 119.008C288.967 118.763 288.908 118.467 288.908 118.12C288.908 117.811 288.972 117.515 289.1 117.232C289.228 116.944 289.415 116.693 289.66 116.48C289.906 116.261 290.207 116.088 290.564 115.96C290.922 115.832 291.33 115.768 291.788 115.768C292.322 115.768 292.799 115.853 293.22 116.024C293.647 116.189 294.015 116.419 294.324 116.712L294.004 117.232ZM111.512 146.632C111.597 146.632 111.672 146.667 111.736 146.736L112.352 147.4C111.883 147.944 111.312 148.368 110.64 148.672C109.973 148.976 109.165 149.128 108.216 149.128C107.395 149.128 106.648 148.987 105.976 148.704C105.304 148.416 104.731 148.016 104.256 147.504C103.781 146.987 103.413 146.368 103.152 145.648C102.891 144.928 102.76 144.136 102.76 143.272C102.76 142.408 102.896 141.616 103.168 140.896C103.44 140.176 103.821 139.557 104.312 139.04C104.808 138.523 105.4 138.123 106.088 137.84C106.776 137.552 107.536 137.408 108.368 137.408C109.184 137.408 109.904 137.539 110.528 137.8C111.152 138.061 111.701 138.416 112.176 138.864L111.664 139.576C111.632 139.629 111.589 139.675 111.536 139.712C111.488 139.744 111.421 139.76 111.336 139.76C111.24 139.76 111.123 139.709 110.984 139.608C110.845 139.501 110.664 139.384 110.44 139.256C110.216 139.128 109.936 139.013 109.6 138.912C109.264 138.805 108.851 138.752 108.36 138.752C107.768 138.752 107.227 138.856 106.736 139.064C106.245 139.267 105.821 139.563 105.464 139.952C105.112 140.341 104.837 140.816 104.64 141.376C104.443 141.936 104.344 142.568 104.344 143.272C104.344 143.987 104.445 144.624 104.648 145.184C104.856 145.744 105.136 146.219 105.488 146.608C105.845 146.992 106.264 147.285 106.744 147.488C107.229 147.691 107.752 147.792 108.312 147.792C108.653 147.792 108.96 147.773 109.232 147.736C109.509 147.693 109.763 147.629 109.992 147.544C110.227 147.459 110.443 147.352 110.64 147.224C110.843 147.091 111.043 146.933 111.24 146.752C111.331 146.672 111.421 146.632 111.512 146.632ZM120.355 140.896V149H119.507C119.304 149 119.176 148.901 119.123 148.704L119.011 147.832C118.659 148.221 118.264 148.536 117.827 148.776C117.389 149.011 116.888 149.128 116.323 149.128C115.88 149.128 115.488 149.056 115.147 148.912C114.811 148.763 114.528 148.555 114.299 148.288C114.069 148.021 113.896 147.699 113.779 147.32C113.667 146.941 113.611 146.523 113.611 146.064V140.896H115.035V146.064C115.035 146.677 115.173 147.152 115.451 147.488C115.733 147.824 116.163 147.992 116.739 147.992C117.16 147.992 117.552 147.893 117.915 147.696C118.283 147.493 118.621 147.216 118.931 146.864V140.896H120.355ZM127.332 142.232C127.268 142.349 127.17 142.408 127.036 142.408C126.956 142.408 126.866 142.379 126.764 142.32C126.663 142.261 126.538 142.197 126.388 142.128C126.244 142.053 126.071 141.987 125.868 141.928C125.666 141.864 125.426 141.832 125.148 141.832C124.908 141.832 124.692 141.864 124.5 141.928C124.308 141.987 124.143 142.069 124.004 142.176C123.871 142.283 123.767 142.408 123.692 142.552C123.623 142.691 123.588 142.843 123.588 143.008C123.588 143.216 123.647 143.389 123.764 143.528C123.887 143.667 124.047 143.787 124.244 143.888C124.442 143.989 124.666 144.08 124.916 144.16C125.167 144.235 125.423 144.317 125.684 144.408C125.951 144.493 126.21 144.589 126.46 144.696C126.711 144.803 126.935 144.936 127.132 145.096C127.33 145.256 127.487 145.453 127.604 145.688C127.727 145.917 127.788 146.195 127.788 146.52C127.788 146.893 127.722 147.24 127.588 147.56C127.455 147.875 127.258 148.149 126.996 148.384C126.735 148.613 126.415 148.795 126.036 148.928C125.658 149.061 125.22 149.128 124.724 149.128C124.159 149.128 123.647 149.037 123.188 148.856C122.73 148.669 122.34 148.432 122.02 148.144L122.356 147.6C122.399 147.531 122.45 147.477 122.508 147.44C122.567 147.403 122.642 147.384 122.732 147.384C122.828 147.384 122.93 147.421 123.036 147.496C123.143 147.571 123.271 147.653 123.42 147.744C123.575 147.835 123.762 147.917 123.98 147.992C124.199 148.067 124.471 148.104 124.796 148.104C125.074 148.104 125.316 148.069 125.524 148C125.732 147.925 125.906 147.827 126.044 147.704C126.183 147.581 126.284 147.44 126.348 147.28C126.418 147.12 126.452 146.949 126.452 146.768C126.452 146.544 126.391 146.36 126.268 146.216C126.151 146.067 125.994 145.941 125.796 145.84C125.599 145.733 125.372 145.643 125.116 145.568C124.866 145.488 124.607 145.405 124.34 145.32C124.079 145.235 123.82 145.139 123.564 145.032C123.314 144.92 123.09 144.781 122.892 144.616C122.695 144.451 122.535 144.248 122.412 144.008C122.295 143.763 122.236 143.467 122.236 143.12C122.236 142.811 122.3 142.515 122.428 142.232C122.556 141.944 122.743 141.693 122.988 141.48C123.234 141.261 123.535 141.088 123.892 140.96C124.25 140.832 124.658 140.768 125.116 140.768C125.65 140.768 126.127 140.853 126.548 141.024C126.975 141.189 127.343 141.419 127.652 141.712L127.332 142.232ZM132.022 149.128C131.382 149.128 130.889 148.949 130.542 148.592C130.201 148.235 130.03 147.72 130.03 147.048V142.088H129.054C128.969 142.088 128.897 142.064 128.838 142.016C128.78 141.963 128.75 141.883 128.75 141.776V141.208L130.078 141.04L130.406 138.536C130.422 138.456 130.457 138.392 130.51 138.344C130.569 138.291 130.644 138.264 130.734 138.264H131.454V141.056H133.798V142.088H131.454V146.952C131.454 147.293 131.537 147.547 131.702 147.712C131.868 147.877 132.081 147.96 132.342 147.96C132.492 147.96 132.62 147.941 132.726 147.904C132.838 147.861 132.934 147.816 133.014 147.768C133.094 147.72 133.161 147.677 133.214 147.64C133.273 147.597 133.324 147.576 133.366 147.576C133.441 147.576 133.508 147.621 133.566 147.712L133.982 148.392C133.737 148.621 133.441 148.803 133.094 148.936C132.748 149.064 132.39 149.128 132.022 149.128ZM138.638 140.768C139.23 140.768 139.763 140.867 140.238 141.064C140.712 141.261 141.118 141.541 141.454 141.904C141.79 142.267 142.046 142.707 142.222 143.224C142.403 143.736 142.494 144.309 142.494 144.944C142.494 145.584 142.403 146.16 142.222 146.672C142.046 147.184 141.79 147.621 141.454 147.984C141.118 148.347 140.712 148.627 140.238 148.824C139.763 149.016 139.23 149.112 138.638 149.112C138.04 149.112 137.502 149.016 137.022 148.824C136.547 148.627 136.142 148.347 135.806 147.984C135.47 147.621 135.211 147.184 135.03 146.672C134.854 146.16 134.766 145.584 134.766 144.944C134.766 144.309 134.854 143.736 135.03 143.224C135.211 142.707 135.47 142.267 135.806 141.904C136.142 141.541 136.547 141.261 137.022 141.064C137.502 140.867 138.04 140.768 138.638 140.768ZM138.638 148C139.438 148 140.035 147.733 140.43 147.2C140.824 146.661 141.022 145.912 141.022 144.952C141.022 143.987 140.824 143.235 140.43 142.696C140.035 142.157 139.438 141.888 138.638 141.888C138.232 141.888 137.878 141.957 137.574 142.096C137.275 142.235 137.024 142.435 136.822 142.696C136.624 142.957 136.475 143.28 136.374 143.664C136.278 144.043 136.23 144.472 136.23 144.952C136.23 145.912 136.427 146.661 136.822 147.2C137.222 147.733 137.827 148 138.638 148ZM144.3 149V140.896H145.156C145.359 140.896 145.484 140.995 145.532 141.192L145.636 142.024C145.935 141.656 146.271 141.355 146.644 141.12C147.017 140.885 147.449 140.768 147.94 140.768C148.484 140.768 148.924 140.92 149.26 141.224C149.601 141.528 149.847 141.939 149.996 142.456C150.113 142.163 150.263 141.909 150.444 141.696C150.631 141.483 150.839 141.307 151.068 141.168C151.297 141.029 151.54 140.928 151.796 140.864C152.057 140.8 152.321 140.768 152.588 140.768C153.015 140.768 153.393 140.837 153.724 140.976C154.06 141.109 154.343 141.307 154.572 141.568C154.807 141.829 154.985 142.152 155.108 142.536C155.231 142.915 155.292 143.349 155.292 143.84V149H153.86V143.84C153.86 143.205 153.721 142.725 153.444 142.4C153.167 142.069 152.767 141.904 152.244 141.904C152.009 141.904 151.785 141.947 151.572 142.032C151.364 142.112 151.18 142.232 151.02 142.392C150.86 142.552 150.732 142.755 150.636 143C150.545 143.24 150.5 143.52 150.5 143.84V149H149.068V143.84C149.068 143.189 148.937 142.704 148.676 142.384C148.415 142.064 148.033 141.904 147.532 141.904C147.18 141.904 146.855 142 146.556 142.192C146.257 142.379 145.983 142.635 145.732 142.96V149H144.3ZM162.88 144.064C162.88 143.733 162.832 143.432 162.736 143.16C162.645 142.883 162.509 142.645 162.328 142.448C162.152 142.245 161.936 142.091 161.68 141.984C161.424 141.872 161.133 141.816 160.808 141.816C160.125 141.816 159.584 142.016 159.184 142.416C158.789 142.811 158.544 143.36 158.448 144.064H162.88ZM164.032 147.864C163.856 148.077 163.645 148.264 163.4 148.424C163.155 148.579 162.891 148.707 162.608 148.808C162.331 148.909 162.043 148.984 161.744 149.032C161.445 149.085 161.149 149.112 160.856 149.112C160.296 149.112 159.779 149.019 159.304 148.832C158.835 148.64 158.427 148.363 158.08 148C157.739 147.632 157.472 147.179 157.28 146.64C157.088 146.101 156.992 145.483 156.992 144.784C156.992 144.219 157.077 143.691 157.248 143.2C157.424 142.709 157.675 142.285 158 141.928C158.325 141.565 158.723 141.283 159.192 141.08C159.661 140.872 160.189 140.768 160.776 140.768C161.261 140.768 161.709 140.851 162.12 141.016C162.536 141.176 162.893 141.411 163.192 141.72C163.496 142.024 163.733 142.403 163.904 142.856C164.075 143.304 164.16 143.816 164.16 144.392C164.16 144.616 164.136 144.765 164.088 144.84C164.04 144.915 163.949 144.952 163.816 144.952H158.4C158.416 145.464 158.485 145.909 158.608 146.288C158.736 146.667 158.912 146.984 159.136 147.24C159.36 147.491 159.627 147.68 159.936 147.808C160.245 147.931 160.592 147.992 160.976 147.992C161.333 147.992 161.64 147.952 161.896 147.872C162.157 147.787 162.381 147.696 162.568 147.6C162.755 147.504 162.909 147.416 163.032 147.336C163.16 147.251 163.269 147.208 163.36 147.208C163.477 147.208 163.568 147.253 163.632 147.344L164.032 147.864ZM167.261 142.52C167.517 141.965 167.832 141.533 168.205 141.224C168.579 140.909 169.035 140.752 169.573 140.752C169.744 140.752 169.907 140.771 170.061 140.808C170.221 140.845 170.363 140.904 170.485 140.984L170.381 142.048C170.349 142.181 170.269 142.248 170.141 142.248C170.067 142.248 169.957 142.232 169.813 142.2C169.669 142.168 169.507 142.152 169.325 142.152C169.069 142.152 168.84 142.189 168.637 142.264C168.44 142.339 168.261 142.451 168.101 142.6C167.947 142.744 167.805 142.925 167.677 143.144C167.555 143.357 167.443 143.603 167.341 143.88V149H165.909V140.896H166.725C166.88 140.896 166.987 140.925 167.045 140.984C167.104 141.043 167.144 141.144 167.165 141.288L167.261 142.52ZM176.991 140.896V149.6C176.991 149.925 176.949 150.227 176.863 150.504C176.778 150.787 176.642 151.032 176.455 151.24C176.269 151.448 176.029 151.611 175.735 151.728C175.447 151.851 175.101 151.912 174.695 151.912C174.525 151.912 174.367 151.899 174.223 151.872C174.079 151.845 173.935 151.805 173.791 151.752L173.847 150.984C173.858 150.936 173.877 150.899 173.903 150.872C173.925 150.851 173.957 150.837 173.999 150.832C174.042 150.827 174.098 150.824 174.167 150.824C174.231 150.829 174.314 150.832 174.415 150.832C174.831 150.832 175.127 150.733 175.303 150.536C175.479 150.344 175.567 150.032 175.567 149.6V140.896H176.991ZM177.287 138.352C177.287 138.491 177.258 138.621 177.199 138.744C177.146 138.861 177.071 138.968 176.975 139.064C176.885 139.155 176.778 139.227 176.655 139.28C176.533 139.333 176.402 139.36 176.263 139.36C176.125 139.36 175.994 139.333 175.871 139.28C175.754 139.227 175.65 139.155 175.559 139.064C175.469 138.968 175.397 138.861 175.343 138.744C175.29 138.621 175.263 138.491 175.263 138.352C175.263 138.213 175.29 138.083 175.343 137.96C175.397 137.832 175.469 137.723 175.559 137.632C175.65 137.536 175.754 137.461 175.871 137.408C175.994 137.355 176.125 137.328 176.263 137.328C176.402 137.328 176.533 137.355 176.655 137.408C176.778 137.461 176.885 137.536 176.975 137.632C177.071 137.723 177.146 137.832 177.199 137.96C177.258 138.083 177.287 138.213 177.287 138.352ZM182.747 140.768C183.339 140.768 183.872 140.867 184.347 141.064C184.822 141.261 185.227 141.541 185.563 141.904C185.899 142.267 186.155 142.707 186.331 143.224C186.512 143.736 186.603 144.309 186.603 144.944C186.603 145.584 186.512 146.16 186.331 146.672C186.155 147.184 185.899 147.621 185.563 147.984C185.227 148.347 184.822 148.627 184.347 148.824C183.872 149.016 183.339 149.112 182.747 149.112C182.15 149.112 181.611 149.016 181.131 148.824C180.656 148.627 180.251 148.347 179.915 147.984C179.579 147.621 179.32 147.184 179.139 146.672C178.963 146.16 178.875 145.584 178.875 144.944C178.875 144.309 178.963 143.736 179.139 143.224C179.32 142.707 179.579 142.267 179.915 141.904C180.251 141.541 180.656 141.261 181.131 141.064C181.611 140.867 182.15 140.768 182.747 140.768ZM182.747 148C183.547 148 184.144 147.733 184.539 147.2C184.934 146.661 185.131 145.912 185.131 144.952C185.131 143.987 184.934 143.235 184.539 142.696C184.144 142.157 183.547 141.888 182.747 141.888C182.342 141.888 181.987 141.957 181.683 142.096C181.384 142.235 181.134 142.435 180.931 142.696C180.734 142.957 180.584 143.28 180.483 143.664C180.387 144.043 180.339 144.472 180.339 144.952C180.339 145.912 180.536 146.661 180.931 147.2C181.331 147.733 181.936 148 182.747 148ZM195.073 140.896V149H194.225C194.023 149 193.895 148.901 193.841 148.704L193.729 147.832C193.377 148.221 192.983 148.536 192.545 148.776C192.108 149.011 191.607 149.128 191.041 149.128C190.599 149.128 190.207 149.056 189.865 148.912C189.529 148.763 189.247 148.555 189.017 148.288C188.788 148.021 188.615 147.699 188.497 147.32C188.385 146.941 188.329 146.523 188.329 146.064V140.896H189.753V146.064C189.753 146.677 189.892 147.152 190.169 147.488C190.452 147.824 190.881 147.992 191.457 147.992C191.879 147.992 192.271 147.893 192.633 147.696C193.001 147.493 193.34 147.216 193.649 146.864V140.896H195.073ZM198.683 142.52C198.939 141.965 199.254 141.533 199.627 141.224C200 140.909 200.456 140.752 200.995 140.752C201.166 140.752 201.328 140.771 201.483 140.808C201.643 140.845 201.784 140.904 201.907 140.984L201.803 142.048C201.771 142.181 201.691 142.248 201.563 142.248C201.488 142.248 201.379 142.232 201.235 142.2C201.091 142.168 200.928 142.152 200.747 142.152C200.491 142.152 200.262 142.189 200.059 142.264C199.862 142.339 199.683 142.451 199.523 142.6C199.368 142.744 199.227 142.925 199.099 143.144C198.976 143.357 198.864 143.603 198.763 143.88V149H197.331V140.896H198.147C198.302 140.896 198.408 140.925 198.467 140.984C198.526 141.043 198.566 141.144 198.587 141.288L198.683 142.52ZM204.503 142.072C204.679 141.875 204.866 141.696 205.063 141.536C205.261 141.376 205.469 141.24 205.687 141.128C205.911 141.011 206.146 140.923 206.391 140.864C206.642 140.8 206.911 140.768 207.199 140.768C207.642 140.768 208.031 140.843 208.367 140.992C208.709 141.136 208.991 141.344 209.215 141.616C209.445 141.883 209.618 142.205 209.735 142.584C209.853 142.963 209.911 143.381 209.911 143.84V149H208.479V143.84C208.479 143.227 208.338 142.752 208.055 142.416C207.778 142.075 207.354 141.904 206.783 141.904C206.362 141.904 205.967 142.005 205.599 142.208C205.237 142.411 204.901 142.685 204.591 143.032V149H203.159V140.896H204.015C204.218 140.896 204.343 140.995 204.391 141.192L204.503 142.072ZM217.505 144.064C217.505 143.733 217.457 143.432 217.361 143.16C217.27 142.883 217.134 142.645 216.953 142.448C216.777 142.245 216.561 142.091 216.305 141.984C216.049 141.872 215.758 141.816 215.433 141.816C214.75 141.816 214.209 142.016 213.809 142.416C213.414 142.811 213.169 143.36 213.073 144.064H217.505ZM218.657 147.864C218.481 148.077 218.27 148.264 218.025 148.424C217.78 148.579 217.516 148.707 217.233 148.808C216.956 148.909 216.668 148.984 216.369 149.032C216.07 149.085 215.774 149.112 215.481 149.112C214.921 149.112 214.404 149.019 213.929 148.832C213.46 148.64 213.052 148.363 212.705 148C212.364 147.632 212.097 147.179 211.905 146.64C211.713 146.101 211.617 145.483 211.617 144.784C211.617 144.219 211.702 143.691 211.873 143.2C212.049 142.709 212.3 142.285 212.625 141.928C212.95 141.565 213.348 141.283 213.817 141.08C214.286 140.872 214.814 140.768 215.401 140.768C215.886 140.768 216.334 140.851 216.745 141.016C217.161 141.176 217.518 141.411 217.817 141.72C218.121 142.024 218.358 142.403 218.529 142.856C218.7 143.304 218.785 143.816 218.785 144.392C218.785 144.616 218.761 144.765 218.713 144.84C218.665 144.915 218.574 144.952 218.441 144.952H213.025C213.041 145.464 213.11 145.909 213.233 146.288C213.361 146.667 213.537 146.984 213.761 147.24C213.985 147.491 214.252 147.68 214.561 147.808C214.87 147.931 215.217 147.992 215.601 147.992C215.958 147.992 216.265 147.952 216.521 147.872C216.782 147.787 217.006 147.696 217.193 147.6C217.38 147.504 217.534 147.416 217.657 147.336C217.785 147.251 217.894 147.208 217.985 147.208C218.102 147.208 218.193 147.253 218.257 147.344L218.657 147.864ZM227.323 140.896L222.803 151.392C222.755 151.499 222.694 151.584 222.619 151.648C222.55 151.712 222.44 151.744 222.291 151.744H221.235L222.715 148.528L219.371 140.896H220.603C220.726 140.896 220.822 140.928 220.891 140.992C220.966 141.051 221.016 141.117 221.043 141.192L223.211 146.296C223.296 146.52 223.368 146.755 223.427 147C223.502 146.749 223.582 146.512 223.667 146.288L225.771 141.192C225.803 141.107 225.856 141.037 225.931 140.984C226.011 140.925 226.099 140.896 226.195 140.896H227.323ZM232.284 149V140.896H233.14C233.343 140.896 233.468 140.995 233.516 141.192L233.62 142.024C233.919 141.656 234.255 141.355 234.628 141.12C235.002 140.885 235.434 140.768 235.924 140.768C236.468 140.768 236.908 140.92 237.244 141.224C237.586 141.528 237.831 141.939 237.98 142.456C238.098 142.163 238.247 141.909 238.428 141.696C238.615 141.483 238.823 141.307 239.052 141.168C239.282 141.029 239.524 140.928 239.78 140.864C240.042 140.8 240.306 140.768 240.572 140.768C240.999 140.768 241.378 140.837 241.708 140.976C242.044 141.109 242.327 141.307 242.556 141.568C242.791 141.829 242.97 142.152 243.092 142.536C243.215 142.915 243.276 143.349 243.276 143.84V149H241.844V143.84C241.844 143.205 241.706 142.725 241.428 142.4C241.151 142.069 240.751 141.904 240.228 141.904C239.994 141.904 239.77 141.947 239.556 142.032C239.348 142.112 239.164 142.232 239.004 142.392C238.844 142.552 238.716 142.755 238.62 143C238.53 143.24 238.484 143.52 238.484 143.84V149H237.052V143.84C237.052 143.189 236.922 142.704 236.66 142.384C236.399 142.064 236.018 141.904 235.516 141.904C235.164 141.904 234.839 142 234.54 142.192C234.242 142.379 233.967 142.635 233.716 142.96V149H232.284ZM249.833 145.352C249.177 145.373 248.617 145.427 248.153 145.512C247.694 145.592 247.318 145.699 247.025 145.832C246.737 145.965 246.526 146.123 246.393 146.304C246.265 146.485 246.201 146.688 246.201 146.912C246.201 147.125 246.235 147.309 246.305 147.464C246.374 147.619 246.467 147.747 246.585 147.848C246.707 147.944 246.849 148.016 247.009 148.064C247.174 148.107 247.35 148.128 247.537 148.128C247.787 148.128 248.017 148.104 248.225 148.056C248.433 148.003 248.627 147.928 248.809 147.832C248.995 147.736 249.171 147.621 249.337 147.488C249.507 147.355 249.673 147.203 249.833 147.032V145.352ZM245.233 142.04C245.681 141.608 246.163 141.285 246.681 141.072C247.198 140.859 247.771 140.752 248.401 140.752C248.854 140.752 249.257 140.827 249.609 140.976C249.961 141.125 250.257 141.333 250.497 141.6C250.737 141.867 250.918 142.189 251.041 142.568C251.163 142.947 251.225 143.363 251.225 143.816V149H250.593C250.454 149 250.347 148.979 250.273 148.936C250.198 148.888 250.139 148.797 250.097 148.664L249.937 147.896C249.723 148.093 249.515 148.269 249.312 148.424C249.11 148.573 248.897 148.701 248.673 148.808C248.449 148.909 248.209 148.987 247.953 149.04C247.702 149.099 247.422 149.128 247.113 149.128C246.798 149.128 246.502 149.085 246.225 149C245.947 148.909 245.705 148.776 245.497 148.6C245.294 148.424 245.131 148.203 245.009 147.936C244.891 147.664 244.833 147.344 244.833 146.976C244.833 146.656 244.921 146.349 245.097 146.056C245.273 145.757 245.558 145.493 245.953 145.264C246.347 145.035 246.862 144.848 247.497 144.704C248.131 144.555 248.91 144.469 249.833 144.448V143.816C249.833 143.187 249.697 142.712 249.425 142.392C249.153 142.067 248.755 141.904 248.233 141.904C247.881 141.904 247.585 141.949 247.345 142.04C247.11 142.125 246.905 142.224 246.729 142.336C246.558 142.443 246.409 142.541 246.281 142.632C246.158 142.717 246.035 142.76 245.913 142.76C245.817 142.76 245.734 142.736 245.665 142.688C245.595 142.635 245.537 142.571 245.488 142.496L245.233 142.04ZM254.826 147.048C255.087 147.4 255.372 147.648 255.682 147.792C255.991 147.936 256.338 148.008 256.722 148.008C257.479 148.008 258.06 147.739 258.466 147.2C258.871 146.661 259.074 145.893 259.074 144.896C259.074 144.368 259.026 143.915 258.93 143.536C258.839 143.157 258.706 142.848 258.53 142.608C258.354 142.363 258.138 142.184 257.882 142.072C257.626 141.96 257.335 141.904 257.01 141.904C256.546 141.904 256.138 142.011 255.786 142.224C255.439 142.437 255.119 142.739 254.826 143.128V147.048ZM254.754 142.152C255.095 141.731 255.49 141.392 255.938 141.136C256.386 140.88 256.898 140.752 257.474 140.752C257.943 140.752 258.367 140.843 258.746 141.024C259.124 141.2 259.447 141.464 259.714 141.816C259.98 142.163 260.186 142.595 260.33 143.112C260.474 143.629 260.546 144.224 260.546 144.896C260.546 145.493 260.466 146.051 260.306 146.568C260.146 147.08 259.914 147.525 259.61 147.904C259.311 148.277 258.943 148.573 258.506 148.792C258.074 149.005 257.586 149.112 257.042 149.112C256.546 149.112 256.119 149.029 255.762 148.864C255.41 148.693 255.098 148.459 254.826 148.16V151.744H253.394V140.896H254.25C254.452 140.896 254.578 140.995 254.626 141.192L254.754 142.152Z" fill="#4F4F4F"/>
</svg>
