<svg width="210" height="130" viewBox="0 0 210 130" fill="none" xmlns="http://www.w3.org/2000/svg">
<circle cx="26" cy="26" r="25.5" transform="rotate(90 26 26)" fill="#275B81" stroke="white"/>
<path d="M19.1385 23.0118C19.3799 23.2484 19.7045 23.381 20.0426 23.381C20.3807 23.381 20.7053 23.2484 20.9468 23.0118L23.0135 20.9451C23.2501 20.7037 23.3827 20.379 23.3827 20.0409C23.3827 19.7028 23.2501 19.3782 23.0135 19.1368L18.1439 14.2672C19.5792 13.6177 21.1783 13.421 22.7282 13.7034C24.2781 13.9858 25.7051 14.7339 26.8191 15.8478C27.933 16.9618 28.6811 18.3888 28.9635 19.9387C29.2459 21.4886 29.0492 23.0877 28.3997 24.523L37.3251 33.4484C37.839 33.9623 38.1277 34.6592 38.1277 35.3859C38.1277 36.1126 37.839 36.8096 37.3251 37.3234C36.8113 37.8373 36.1143 38.126 35.3876 38.126C34.6609 38.126 33.964 37.8373 33.4501 37.3234L24.5247 28.398C23.0894 29.0475 21.4903 29.2442 19.9404 28.9618C18.3905 28.6794 16.9635 27.9314 15.8495 26.8174C14.7355 25.7034 13.9875 24.2764 13.7051 22.7265C13.4227 21.1766 13.6194 19.5775 14.2689 18.1422L19.1255 22.9989L19.1385 23.0118Z" stroke="white" stroke-width="2" stroke-linecap="round" stroke-linejoin="round"/>
<path d="M94.814 13.608C94.066 13.7213 93.5107 13.914 93.148 14.186C92.808 14.458 92.57 14.8887 92.434 15.478C92.3207 16.0673 92.264 16.94 92.264 18.096V27.106C92.264 30.3473 91.7993 32.75 90.87 34.314C90.258 35.3113 89.374 36.0933 88.218 36.66C87.062 37.204 85.6453 37.476 83.968 37.476C81.3387 37.476 79.2987 36.9093 77.848 35.776C76.8053 34.9373 76.1027 33.8833 75.74 32.614C75.3773 31.322 75.196 29.52 75.196 27.208V16.532C75.196 15.6707 75.128 15.0473 74.992 14.662C74.8787 14.2767 74.6407 14.016 74.278 13.88C73.938 13.744 73.394 13.6533 72.646 13.608V12.928C73.802 12.996 75.57 13.03 77.95 13.03C80.3073 13.03 82.1093 12.996 83.356 12.928V13.608C82.54 13.6533 81.9393 13.744 81.554 13.88C81.1913 14.016 80.942 14.2767 80.806 14.662C80.67 15.0473 80.602 15.6707 80.602 16.532V29.35C80.602 31.73 80.942 33.4867 81.622 34.62C82.3247 35.7307 83.5487 36.286 85.294 36.286C87.5607 36.286 89.1587 35.5267 90.088 34.008C91.0173 32.4667 91.482 30.2907 91.482 27.48V18.504C91.482 17.1893 91.4027 16.2147 91.244 15.58C91.0853 14.9453 90.7793 14.492 90.326 14.22C89.8727 13.9253 89.1587 13.7213 88.184 13.608V12.928C89.0453 12.996 90.2693 13.03 91.856 13.03C93.1253 13.03 94.1113 12.996 94.814 12.928V13.608ZM102.159 18.946C103.021 18.946 103.814 19.0593 104.539 19.286C105.265 19.49 105.82 19.728 106.205 20C106.432 20.1587 106.636 20.238 106.817 20.238C107.021 20.238 107.191 20.136 107.327 19.932C107.486 19.7053 107.588 19.388 107.633 18.98H108.347C108.257 20.136 108.211 22.1307 108.211 24.964H107.497C107.293 23.468 106.84 22.2213 106.137 21.224C105.457 20.204 104.46 19.694 103.145 19.694C102.465 19.694 101.899 19.8867 101.445 20.272C101.015 20.6573 100.799 21.19 100.799 21.87C100.799 22.6407 101.06 23.3093 101.581 23.876C102.103 24.42 102.919 25.0887 104.029 25.882L105.015 26.596C106.398 27.6387 107.418 28.568 108.075 29.384C108.733 30.2 109.061 31.22 109.061 32.444C109.061 33.4413 108.767 34.3253 108.177 35.096C107.611 35.8667 106.84 36.456 105.865 36.864C104.891 37.272 103.814 37.476 102.635 37.476C101.389 37.476 100.323 37.238 99.4393 36.762C98.714 36.3993 98.1927 36.1613 97.8753 36.048C97.6487 35.98 97.4447 36.0593 97.2633 36.286C97.1047 36.49 96.98 36.8073 96.8893 37.238H96.1753C96.266 35.946 96.3113 33.6793 96.3113 30.438H97.0253C97.4787 34.6087 99.0087 36.694 101.615 36.694C102.273 36.694 102.828 36.5013 103.281 36.116C103.757 35.708 103.995 35.096 103.995 34.28C103.995 33.6453 103.848 33.0787 103.553 32.58C103.281 32.0813 102.93 31.6393 102.499 31.254C102.069 30.8687 101.423 30.336 100.561 29.656C99.5413 28.84 98.7593 28.1827 98.2153 27.684C97.694 27.1853 97.2407 26.596 96.8553 25.916C96.4927 25.236 96.3113 24.4767 96.3113 23.638C96.3113 22.1873 96.878 21.0427 98.0113 20.204C99.1447 19.3653 100.527 18.946 102.159 18.946ZM115.62 37.238C114.17 37.238 113.082 36.864 112.356 36.116C111.654 35.368 111.302 34.382 111.302 33.158C111.302 32.138 111.563 31.2993 112.084 30.642C112.628 29.962 113.274 29.4407 114.022 29.078C114.793 28.7153 115.768 28.33 116.946 27.922C118.193 27.4913 119.1 27.106 119.666 26.766C120.256 26.4033 120.55 25.916 120.55 25.304V22.652C120.55 21.7 120.324 20.9633 119.87 20.442C119.44 19.898 118.76 19.626 117.83 19.626C116.742 19.626 115.915 19.898 115.348 20.442C115.983 20.6687 116.47 21.0087 116.81 21.462C117.173 21.9153 117.354 22.448 117.354 23.06C117.354 23.8307 117.094 24.4427 116.572 24.896C116.051 25.3493 115.416 25.576 114.668 25.576C113.875 25.576 113.263 25.3267 112.832 24.828C112.402 24.3293 112.186 23.706 112.186 22.958C112.186 22.3233 112.334 21.7907 112.628 21.36C112.946 20.9067 113.422 20.4873 114.056 20.102C114.668 19.7393 115.416 19.456 116.3 19.252C117.207 19.048 118.193 18.946 119.258 18.946C120.369 18.946 121.332 19.0593 122.148 19.286C122.964 19.5127 123.644 19.898 124.188 20.442C124.687 20.9407 125.016 21.5527 125.174 22.278C125.356 23.0033 125.446 23.9893 125.446 25.236V34.484C125.446 35.028 125.492 35.4133 125.582 35.64C125.696 35.8667 125.9 35.98 126.194 35.98C126.534 35.98 126.942 35.7873 127.418 35.402L127.758 35.98C126.738 36.8187 125.492 37.238 124.018 37.238C122.772 37.238 121.899 36.9887 121.4 36.49C120.902 35.9913 120.641 35.3227 120.618 34.484C119.485 36.32 117.819 37.238 115.62 37.238ZM118.238 35.062C119.122 35.062 119.893 34.5973 120.55 33.668V26.698C120.278 27.1513 119.7 27.65 118.816 28.194C117.932 28.7607 117.264 29.3273 116.81 29.894C116.357 30.4607 116.13 31.2767 116.13 32.342C116.13 33.2713 116.323 33.9627 116.708 34.416C117.094 34.8467 117.604 35.062 118.238 35.062ZM140.392 18.946C142.228 18.946 143.713 19.7053 144.846 21.224C145.979 22.72 146.546 24.896 146.546 27.752C146.546 31.084 145.821 33.5433 144.37 35.13C142.919 36.694 141.049 37.476 138.76 37.476C137.196 37.476 135.927 37.0793 134.952 36.286C134.136 36.218 133.32 36.3087 132.504 36.558C131.688 36.8073 131.042 37.136 130.566 37.544L130.056 37.238C130.215 36.6713 130.294 36.0367 130.294 35.334V14.492C130.294 13.4493 130.124 12.69 129.784 12.214C129.467 11.738 128.911 11.5 128.118 11.5V10.786C128.821 10.854 129.523 10.888 130.226 10.888C132.198 10.888 133.853 10.7293 135.19 10.412V22.176C135.666 21.1333 136.357 20.34 137.264 19.796C138.171 19.2293 139.213 18.946 140.392 18.946ZM137.706 36.762C138.953 36.762 139.882 36.0593 140.494 34.654C141.106 33.2487 141.412 31.1067 141.412 28.228C141.412 25.44 141.151 23.4453 140.63 22.244C140.109 21.02 139.361 20.408 138.386 20.408C137.661 20.408 136.992 20.68 136.38 21.224C135.791 21.7453 135.394 22.4593 135.19 23.366V35.844C135.938 36.456 136.777 36.762 137.706 36.762ZM153.072 10.65C154.024 10.65 154.772 10.888 155.316 11.364C155.883 11.8173 156.166 12.452 156.166 13.268C156.166 14.084 155.883 14.73 155.316 15.206C154.772 15.6593 154.024 15.886 153.072 15.886C152.12 15.886 151.361 15.6593 150.794 15.206C150.25 14.73 149.978 14.084 149.978 13.268C149.978 12.452 150.25 11.8173 150.794 11.364C151.361 10.888 152.12 10.65 153.072 10.65ZM155.724 33.838C155.724 34.7673 155.883 35.4133 156.2 35.776C156.54 36.116 157.107 36.286 157.9 36.286V37C155.633 36.9093 154.126 36.864 153.378 36.864C152.675 36.864 151.1 36.9093 148.652 37V36.286C149.468 36.286 150.035 36.116 150.352 35.776C150.669 35.4133 150.828 34.7673 150.828 33.838V23.128C150.828 22.0853 150.669 21.326 150.352 20.85C150.035 20.374 149.468 20.136 148.652 20.136V19.422C149.377 19.49 150.08 19.524 150.76 19.524C152.777 19.524 154.432 19.3653 155.724 19.048V33.838ZM166.313 33.838C166.313 34.7673 166.471 35.4133 166.789 35.776C167.106 36.116 167.673 36.286 168.489 36.286V37C166.131 36.9093 164.613 36.864 163.933 36.864C163.162 36.864 161.598 36.9093 159.241 37V36.286C160.034 36.286 160.589 36.116 160.907 35.776C161.247 35.4133 161.417 34.7673 161.417 33.838V14.458C161.417 13.4153 161.247 12.656 160.907 12.18C160.589 11.704 160.034 11.466 159.241 11.466V10.752C159.966 10.82 160.669 10.854 161.349 10.854C163.321 10.854 164.975 10.6953 166.313 10.378V33.838ZM174.355 10.65C175.307 10.65 176.055 10.888 176.599 11.364C177.166 11.8173 177.449 12.452 177.449 13.268C177.449 14.084 177.166 14.73 176.599 15.206C176.055 15.6593 175.307 15.886 174.355 15.886C173.403 15.886 172.644 15.6593 172.077 15.206C171.533 14.73 171.261 14.084 171.261 13.268C171.261 12.452 171.533 11.8173 172.077 11.364C172.644 10.888 173.403 10.65 174.355 10.65ZM177.007 33.838C177.007 34.7673 177.166 35.4133 177.483 35.776C177.823 36.116 178.39 36.286 179.183 36.286V37C176.916 36.9093 175.409 36.864 174.661 36.864C173.958 36.864 172.383 36.9093 169.935 37V36.286C170.751 36.286 171.318 36.116 171.635 35.776C171.952 35.4133 172.111 34.7673 172.111 33.838V23.128C172.111 22.0853 171.952 21.326 171.635 20.85C171.318 20.374 170.751 20.136 169.935 20.136V19.422C170.66 19.49 171.363 19.524 172.043 19.524C174.06 19.524 175.715 19.3653 177.007 19.048V33.838ZM187.562 19.422H191.574V20.102H187.562V33.838C187.562 34.518 187.675 35.0053 187.902 35.3C188.151 35.572 188.536 35.708 189.058 35.708C190.032 35.708 190.803 35.028 191.37 33.668L191.948 33.974C191.086 36.3087 189.534 37.476 187.29 37.476C185.794 37.476 184.66 37.0907 183.89 36.32C183.414 35.844 183.085 35.2547 182.904 34.552C182.745 33.8267 182.666 32.8407 182.666 31.594V20.102H179.81V19.422H182.666V14.934C184.547 14.934 186.179 14.5713 187.562 13.846V19.422ZM206.621 19.524C207.754 19.524 208.627 19.49 209.239 19.422V20.102C208.763 20.238 208.332 20.5327 207.947 20.986C207.584 21.4167 207.233 22.0967 206.893 23.026L200.807 40.128C200.354 41.3067 199.855 42.1113 199.311 42.542C198.654 43.1087 197.668 43.392 196.353 43.392C195.401 43.392 194.54 43.154 193.769 42.678C193.021 42.2247 192.647 41.556 192.647 40.672C192.647 39.9693 192.896 39.4027 193.395 38.972C193.894 38.564 194.551 38.36 195.367 38.36C196.138 38.36 196.75 38.5413 197.203 38.904C197.679 39.2893 197.917 39.822 197.917 40.502C197.917 40.978 197.77 41.4087 197.475 41.794C197.18 42.202 196.761 42.508 196.217 42.712C196.376 42.7347 196.636 42.746 196.999 42.746C198.404 42.746 199.436 41.8507 200.093 40.06L200.637 38.428L193.429 22.04C193.066 21.2693 192.715 20.7593 192.375 20.51C192.035 20.2607 191.684 20.136 191.321 20.136V19.422C192.817 19.558 194.37 19.626 195.979 19.626C197.316 19.626 198.892 19.558 200.705 19.422V20.136C199.98 20.136 199.436 20.1927 199.073 20.306C198.733 20.3967 198.563 20.6573 198.563 21.088C198.563 21.3373 198.642 21.6547 198.801 22.04L202.949 32.07L205.295 25.542C205.658 24.4767 205.839 23.57 205.839 22.822C205.839 21.1673 205 20.2607 203.323 20.102V19.422C204.388 19.49 205.488 19.524 206.621 19.524Z" fill="#275B81"/>
<path d="M77.888 72.768C78.3627 72.768 78.7867 72.688 79.16 72.528C79.5333 72.368 79.848 72.144 80.104 71.856C80.3653 71.568 80.5627 71.224 80.696 70.824C80.8347 70.424 80.904 69.984 80.904 69.504V62.536H82.448V69.504C82.448 70.1653 82.3413 70.7787 82.128 71.344C81.92 71.9093 81.6187 72.4 81.224 72.816C80.8347 73.2267 80.3573 73.5493 79.792 73.784C79.2267 74.0187 78.592 74.136 77.888 74.136C77.184 74.136 76.5493 74.0187 75.984 73.784C75.4187 73.5493 74.9387 73.2267 74.544 72.816C74.1493 72.4 73.8453 71.9093 73.632 71.344C73.424 70.7787 73.32 70.1653 73.32 69.504V62.536H74.864V69.496C74.864 69.976 74.9307 70.416 75.064 70.816C75.2027 71.216 75.4 71.56 75.656 71.848C75.9173 72.136 76.2347 72.3627 76.608 72.528C76.9867 72.688 77.4133 72.768 77.888 72.768ZM89.223 67.232C89.159 67.3493 89.0603 67.408 88.927 67.408C88.847 67.408 88.7563 67.3787 88.655 67.32C88.5537 67.2613 88.4283 67.1973 88.279 67.128C88.135 67.0533 87.9617 66.9867 87.759 66.928C87.5563 66.864 87.3163 66.832 87.039 66.832C86.799 66.832 86.583 66.864 86.391 66.928C86.199 66.9867 86.0337 67.0693 85.895 67.176C85.7617 67.2827 85.6577 67.408 85.583 67.552C85.5137 67.6907 85.479 67.8427 85.479 68.008C85.479 68.216 85.5377 68.3893 85.655 68.528C85.7777 68.6667 85.9377 68.7867 86.135 68.888C86.3323 68.9893 86.5563 69.08 86.807 69.16C87.0577 69.2347 87.3137 69.3173 87.575 69.408C87.8417 69.4933 88.1003 69.5893 88.351 69.696C88.6017 69.8027 88.8257 69.936 89.023 70.096C89.2203 70.256 89.3777 70.4533 89.495 70.688C89.6177 70.9173 89.679 71.1947 89.679 71.52C89.679 71.8933 89.6123 72.24 89.479 72.56C89.3457 72.8747 89.1483 73.1493 88.887 73.384C88.6257 73.6133 88.3057 73.7947 87.927 73.928C87.5483 74.0613 87.111 74.128 86.615 74.128C86.0497 74.128 85.5377 74.0373 85.079 73.856C84.6203 73.6693 84.231 73.432 83.911 73.144L84.247 72.6C84.2897 72.5307 84.3403 72.4773 84.399 72.44C84.4577 72.4027 84.5323 72.384 84.623 72.384C84.719 72.384 84.8203 72.4213 84.927 72.496C85.0337 72.5707 85.1617 72.6533 85.311 72.744C85.4657 72.8347 85.6523 72.9173 85.871 72.992C86.0897 73.0667 86.3617 73.104 86.687 73.104C86.9643 73.104 87.207 73.0693 87.415 73C87.623 72.9253 87.7963 72.8267 87.935 72.704C88.0737 72.5813 88.175 72.44 88.239 72.28C88.3083 72.12 88.343 71.9493 88.343 71.768C88.343 71.544 88.2817 71.36 88.159 71.216C88.0417 71.0667 87.8843 70.9413 87.687 70.84C87.4897 70.7333 87.263 70.6427 87.007 70.568C86.7563 70.488 86.4977 70.4053 86.231 70.32C85.9697 70.2347 85.711 70.1387 85.455 70.032C85.2043 69.92 84.9803 69.7813 84.783 69.616C84.5857 69.4507 84.4257 69.248 84.303 69.008C84.1857 68.7627 84.127 68.4667 84.127 68.12C84.127 67.8107 84.191 67.5147 84.319 67.232C84.447 66.944 84.6337 66.6933 84.879 66.48C85.1243 66.2613 85.4257 66.088 85.783 65.96C86.1403 65.832 86.5483 65.768 87.007 65.768C87.5403 65.768 88.0177 65.8533 88.439 66.024C88.8657 66.1893 89.2337 66.4187 89.543 66.712L89.223 67.232ZM95.8169 70.352C95.1609 70.3733 94.6009 70.4267 94.1369 70.512C93.6782 70.592 93.3022 70.6987 93.0089 70.832C92.7209 70.9653 92.5102 71.1227 92.3769 71.304C92.2489 71.4853 92.1849 71.688 92.1849 71.912C92.1849 72.1253 92.2195 72.3093 92.2889 72.464C92.3582 72.6187 92.4515 72.7467 92.5689 72.848C92.6915 72.944 92.8329 73.016 92.9929 73.064C93.1582 73.1067 93.3342 73.128 93.5209 73.128C93.7715 73.128 94.0009 73.104 94.2089 73.056C94.4169 73.0027 94.6115 72.928 94.7929 72.832C94.9795 72.736 95.1555 72.6213 95.3209 72.488C95.4915 72.3547 95.6569 72.2027 95.8169 72.032V70.352ZM91.2169 67.04C91.6649 66.608 92.1475 66.2853 92.6649 66.072C93.1822 65.8587 93.7555 65.752 94.3849 65.752C94.8382 65.752 95.2409 65.8267 95.5929 65.976C95.9449 66.1253 96.2409 66.3333 96.4809 66.6C96.7209 66.8667 96.9022 67.1893 97.0249 67.568C97.1475 67.9467 97.2089 68.3627 97.2089 68.816V74H96.5769C96.4382 74 96.3315 73.9787 96.2569 73.936C96.1822 73.888 96.1235 73.7973 96.0809 73.664L95.9209 72.896C95.7075 73.0933 95.4995 73.2693 95.2969 73.424C95.0942 73.5733 94.8809 73.7013 94.6569 73.808C94.4329 73.9093 94.1929 73.9867 93.9369 74.04C93.6862 74.0987 93.4062 74.128 93.0969 74.128C92.7822 74.128 92.4862 74.0853 92.2089 74C91.9315 73.9093 91.6889 73.776 91.4809 73.6C91.2782 73.424 91.1155 73.2027 90.9929 72.936C90.8755 72.664 90.8169 72.344 90.8169 71.976C90.8169 71.656 90.9049 71.3493 91.0809 71.056C91.2569 70.7573 91.5422 70.4933 91.9369 70.264C92.3315 70.0347 92.8462 69.848 93.4809 69.704C94.1155 69.5547 94.8942 69.4693 95.8169 69.448V68.816C95.8169 68.1867 95.6809 67.712 95.4089 67.392C95.1369 67.0667 94.7395 66.904 94.2169 66.904C93.8649 66.904 93.5689 66.9493 93.3289 67.04C93.0942 67.1253 92.8889 67.224 92.7129 67.336C92.5422 67.4427 92.3929 67.5413 92.2649 67.632C92.1422 67.7173 92.0195 67.76 91.8969 67.76C91.8009 67.76 91.7182 67.736 91.6489 67.688C91.5795 67.6347 91.5209 67.5707 91.4729 67.496L91.2169 67.04ZM100.81 72.048C101.071 72.4 101.357 72.648 101.666 72.792C101.981 72.936 102.325 73.008 102.698 73.008C103.461 73.008 104.045 72.7387 104.45 72.2C104.855 71.6613 105.058 70.8587 105.058 69.792C105.058 68.8 104.877 68.072 104.514 67.608C104.157 67.1387 103.645 66.904 102.978 66.904C102.514 66.904 102.109 67.0107 101.762 67.224C101.421 67.4373 101.103 67.7387 100.81 68.128V72.048ZM100.81 67.064C101.151 66.6693 101.535 66.3547 101.962 66.12C102.394 65.8853 102.89 65.768 103.45 65.768C103.925 65.768 104.351 65.8587 104.73 66.04C105.114 66.2213 105.439 66.4853 105.706 66.832C105.973 67.1733 106.175 67.5893 106.314 68.08C106.458 68.5707 106.53 69.1227 106.53 69.736C106.53 70.392 106.45 70.9893 106.29 71.528C106.13 72.0667 105.898 72.528 105.594 72.912C105.295 73.2907 104.93 73.5867 104.498 73.8C104.066 74.008 103.581 74.112 103.042 74.112C102.509 74.112 102.058 74.0133 101.69 73.816C101.327 73.6133 101.01 73.328 100.738 72.96L100.666 73.696C100.623 73.8987 100.501 74 100.298 74H99.378V62.216H100.81V67.064ZM109.835 65.896V74H108.411V65.896H109.835ZM110.139 63.352C110.139 63.4907 110.11 63.6213 110.051 63.744C109.998 63.8613 109.923 63.968 109.827 64.064C109.736 64.1547 109.627 64.2267 109.499 64.28C109.376 64.3333 109.246 64.36 109.107 64.36C108.968 64.36 108.838 64.3333 108.715 64.28C108.598 64.2267 108.494 64.1547 108.403 64.064C108.312 63.968 108.24 63.8613 108.187 63.744C108.134 63.6213 108.107 63.4907 108.107 63.352C108.107 63.2133 108.134 63.0827 108.187 62.96C108.24 62.832 108.312 62.7227 108.403 62.632C108.494 62.536 108.598 62.4613 108.715 62.408C108.838 62.3547 108.968 62.328 109.107 62.328C109.246 62.328 109.376 62.3547 109.499 62.408C109.627 62.4613 109.736 62.536 109.827 62.632C109.923 62.7227 109.998 62.832 110.051 62.96C110.11 63.0827 110.139 63.2133 110.139 63.352ZM113.647 62.216V74H112.223V62.216H113.647ZM117.46 65.896V74H116.036V65.896H117.46ZM117.764 63.352C117.764 63.4907 117.735 63.6213 117.676 63.744C117.623 63.8613 117.548 63.968 117.452 64.064C117.361 64.1547 117.252 64.2267 117.124 64.28C117.001 64.3333 116.871 64.36 116.732 64.36C116.593 64.36 116.463 64.3333 116.34 64.28C116.223 64.2267 116.119 64.1547 116.028 64.064C115.937 63.968 115.865 63.8613 115.812 63.744C115.759 63.6213 115.732 63.4907 115.732 63.352C115.732 63.2133 115.759 63.0827 115.812 62.96C115.865 62.832 115.937 62.7227 116.028 62.632C116.119 62.536 116.223 62.4613 116.34 62.408C116.463 62.3547 116.593 62.328 116.732 62.328C116.871 62.328 117.001 62.3547 117.124 62.408C117.252 62.4613 117.361 62.536 117.452 62.632C117.548 62.7227 117.623 62.832 117.676 62.96C117.735 63.0827 117.764 63.2133 117.764 63.352ZM122.288 74.128C121.648 74.128 121.155 73.9493 120.808 73.592C120.467 73.2347 120.296 72.72 120.296 72.048V67.088H119.32C119.235 67.088 119.163 67.064 119.104 67.016C119.045 66.9627 119.016 66.8827 119.016 66.776V66.208L120.344 66.04L120.672 63.536C120.688 63.456 120.723 63.392 120.776 63.344C120.835 63.2907 120.909 63.264 121 63.264H121.72V66.056H124.064V67.088H121.72V71.952C121.72 72.2933 121.803 72.5467 121.968 72.712C122.133 72.8773 122.347 72.96 122.608 72.96C122.757 72.96 122.885 72.9413 122.992 72.904C123.104 72.8613 123.2 72.816 123.28 72.768C123.36 72.72 123.427 72.6773 123.48 72.64C123.539 72.5973 123.589 72.576 123.632 72.576C123.707 72.576 123.773 72.6213 123.832 72.712L124.248 73.392C124.003 73.6213 123.707 73.8027 123.36 73.936C123.013 74.064 122.656 74.128 122.288 74.128ZM132.526 65.896L128.006 76.392C127.958 76.4987 127.897 76.584 127.822 76.648C127.753 76.712 127.644 76.744 127.494 76.744H126.438L127.918 73.528L124.574 65.896H125.806C125.929 65.896 126.025 65.928 126.094 65.992C126.169 66.0507 126.22 66.1173 126.246 66.192L128.414 71.296C128.5 71.52 128.572 71.7547 128.63 72C128.705 71.7493 128.785 71.512 128.87 71.288L130.974 66.192C131.006 66.1067 131.06 66.0373 131.134 65.984C131.214 65.9253 131.302 65.896 131.398 65.896H132.526ZM139.975 74.128C139.335 74.128 138.842 73.9493 138.495 73.592C138.154 73.2347 137.983 72.72 137.983 72.048V67.088H137.007C136.922 67.088 136.85 67.064 136.791 67.016C136.733 66.9627 136.703 66.8827 136.703 66.776V66.208L138.031 66.04L138.359 63.536C138.375 63.456 138.41 63.392 138.463 63.344C138.522 63.2907 138.597 63.264 138.687 63.264H139.407V66.056H141.751V67.088H139.407V71.952C139.407 72.2933 139.49 72.5467 139.655 72.712C139.821 72.8773 140.034 72.96 140.295 72.96C140.445 72.96 140.573 72.9413 140.679 72.904C140.791 72.8613 140.887 72.816 140.967 72.768C141.047 72.72 141.114 72.6773 141.167 72.64C141.226 72.5973 141.277 72.576 141.319 72.576C141.394 72.576 141.461 72.6213 141.519 72.712L141.935 73.392C141.69 73.6213 141.394 73.8027 141.047 73.936C140.701 74.064 140.343 74.128 139.975 74.128ZM148.599 69.064C148.599 68.7333 148.551 68.432 148.455 68.16C148.364 67.8827 148.228 67.6453 148.047 67.448C147.871 67.2453 147.655 67.0907 147.399 66.984C147.143 66.872 146.852 66.816 146.527 66.816C145.844 66.816 145.303 67.016 144.903 67.416C144.508 67.8107 144.263 68.36 144.167 69.064H148.599ZM149.751 72.864C149.575 73.0773 149.364 73.264 149.119 73.424C148.874 73.5787 148.61 73.7067 148.327 73.808C148.05 73.9093 147.762 73.984 147.463 74.032C147.164 74.0853 146.868 74.112 146.575 74.112C146.015 74.112 145.498 74.0187 145.023 73.832C144.554 73.64 144.146 73.3627 143.799 73C143.458 72.632 143.191 72.1787 142.999 71.64C142.807 71.1013 142.711 70.4827 142.711 69.784C142.711 69.2187 142.796 68.6907 142.967 68.2C143.143 67.7093 143.394 67.2853 143.719 66.928C144.044 66.5653 144.442 66.2827 144.911 66.08C145.38 65.872 145.908 65.768 146.495 65.768C146.98 65.768 147.428 65.8507 147.839 66.016C148.255 66.176 148.612 66.4107 148.911 66.72C149.215 67.024 149.452 67.4027 149.623 67.856C149.794 68.304 149.879 68.816 149.879 69.392C149.879 69.616 149.855 69.7653 149.807 69.84C149.759 69.9147 149.668 69.952 149.535 69.952H144.119C144.135 70.464 144.204 70.9093 144.327 71.288C144.455 71.6667 144.631 71.984 144.855 72.24C145.079 72.4907 145.346 72.68 145.655 72.808C145.964 72.9307 146.311 72.992 146.695 72.992C147.052 72.992 147.359 72.952 147.615 72.872C147.876 72.7867 148.1 72.696 148.287 72.6C148.474 72.504 148.628 72.416 148.751 72.336C148.879 72.2507 148.988 72.208 149.079 72.208C149.196 72.208 149.287 72.2533 149.351 72.344L149.751 72.864ZM156.348 67.232C156.284 67.3493 156.185 67.408 156.052 67.408C155.972 67.408 155.881 67.3787 155.78 67.32C155.679 67.2613 155.553 67.1973 155.404 67.128C155.26 67.0533 155.087 66.9867 154.884 66.928C154.681 66.864 154.441 66.832 154.164 66.832C153.924 66.832 153.708 66.864 153.516 66.928C153.324 66.9867 153.159 67.0693 153.02 67.176C152.887 67.2827 152.783 67.408 152.708 67.552C152.639 67.6907 152.604 67.8427 152.604 68.008C152.604 68.216 152.663 68.3893 152.78 68.528C152.903 68.6667 153.063 68.7867 153.26 68.888C153.457 68.9893 153.681 69.08 153.932 69.16C154.183 69.2347 154.439 69.3173 154.7 69.408C154.967 69.4933 155.225 69.5893 155.476 69.696C155.727 69.8027 155.951 69.936 156.148 70.096C156.345 70.256 156.503 70.4533 156.62 70.688C156.743 70.9173 156.804 71.1947 156.804 71.52C156.804 71.8933 156.737 72.24 156.604 72.56C156.471 72.8747 156.273 73.1493 156.012 73.384C155.751 73.6133 155.431 73.7947 155.052 73.928C154.673 74.0613 154.236 74.128 153.74 74.128C153.175 74.128 152.663 74.0373 152.204 73.856C151.745 73.6693 151.356 73.432 151.036 73.144L151.372 72.6C151.415 72.5307 151.465 72.4773 151.524 72.44C151.583 72.4027 151.657 72.384 151.748 72.384C151.844 72.384 151.945 72.4213 152.052 72.496C152.159 72.5707 152.287 72.6533 152.436 72.744C152.591 72.8347 152.777 72.9173 152.996 72.992C153.215 73.0667 153.487 73.104 153.812 73.104C154.089 73.104 154.332 73.0693 154.54 73C154.748 72.9253 154.921 72.8267 155.06 72.704C155.199 72.5813 155.3 72.44 155.364 72.28C155.433 72.12 155.468 71.9493 155.468 71.768C155.468 71.544 155.407 71.36 155.284 71.216C155.167 71.0667 155.009 70.9413 154.812 70.84C154.615 70.7333 154.388 70.6427 154.132 70.568C153.881 70.488 153.623 70.4053 153.356 70.32C153.095 70.2347 152.836 70.1387 152.58 70.032C152.329 69.92 152.105 69.7813 151.908 69.616C151.711 69.4507 151.551 69.248 151.428 69.008C151.311 68.7627 151.252 68.4667 151.252 68.12C151.252 67.8107 151.316 67.5147 151.444 67.232C151.572 66.944 151.759 66.6933 152.004 66.48C152.249 66.2613 152.551 66.088 152.908 65.96C153.265 65.832 153.673 65.768 154.132 65.768C154.665 65.768 155.143 65.8533 155.564 66.024C155.991 66.1893 156.359 66.4187 156.668 66.712L156.348 67.232ZM166.07 74H164.646V67.088H160.47V71.952C160.47 72.2933 160.553 72.5467 160.718 72.712C160.883 72.8773 161.097 72.96 161.358 72.96C161.507 72.96 161.635 72.9413 161.742 72.904C161.854 72.8613 161.95 72.816 162.03 72.768C162.11 72.72 162.177 72.6773 162.23 72.64C162.289 72.5973 162.339 72.576 162.382 72.576C162.457 72.576 162.523 72.6213 162.582 72.712L162.998 73.392C162.753 73.6213 162.457 73.8027 162.11 73.936C161.763 74.064 161.406 74.128 161.038 74.128C160.398 74.128 159.905 73.9493 159.558 73.592C159.217 73.2347 159.046 72.72 159.046 72.048V67.088H158.07C157.985 67.088 157.913 67.064 157.854 67.016C157.795 66.9627 157.766 66.8827 157.766 66.776V66.208L159.094 66.032L159.422 63.536C159.438 63.456 159.473 63.392 159.526 63.344C159.585 63.2907 159.659 63.264 159.75 63.264H160.47V66.056H166.07V74ZM166.422 63.296C166.422 63.4347 166.393 63.5653 166.334 63.688C166.281 63.8053 166.206 63.9093 166.11 64C166.019 64.0907 165.913 64.1627 165.79 64.216C165.667 64.2693 165.537 64.296 165.398 64.296C165.259 64.296 165.129 64.2693 165.006 64.216C164.889 64.1627 164.785 64.0907 164.694 64C164.603 63.9093 164.531 63.8053 164.478 63.688C164.425 63.5653 164.398 63.4347 164.398 63.296C164.398 63.1573 164.425 63.0267 164.478 62.904C164.531 62.776 164.603 62.6667 164.694 62.576C164.785 62.48 164.889 62.4053 165.006 62.352C165.129 62.2987 165.259 62.272 165.398 62.272C165.537 62.272 165.667 62.2987 165.79 62.352C165.913 62.4053 166.019 62.48 166.11 62.576C166.206 62.6667 166.281 62.776 166.334 62.904C166.393 63.0267 166.422 63.1573 166.422 63.296ZM169.753 67.072C169.929 66.8747 170.116 66.696 170.313 66.536C170.511 66.376 170.719 66.24 170.937 66.128C171.161 66.0107 171.396 65.9227 171.641 65.864C171.892 65.8 172.161 65.768 172.449 65.768C172.892 65.768 173.281 65.8427 173.617 65.992C173.959 66.136 174.241 66.344 174.465 66.616C174.695 66.8827 174.868 67.2053 174.985 67.584C175.103 67.9627 175.161 68.3813 175.161 68.84V74H173.729V68.84C173.729 68.2267 173.588 67.752 173.305 67.416C173.028 67.0747 172.604 66.904 172.033 66.904C171.612 66.904 171.217 67.0053 170.849 67.208C170.487 67.4107 170.151 67.6853 169.841 68.032V74H168.409V65.896H169.265C169.468 65.896 169.593 65.9947 169.641 66.192L169.753 67.072ZM180.155 70.04C180.443 70.04 180.696 70 180.915 69.92C181.134 69.84 181.318 69.728 181.467 69.584C181.616 69.44 181.728 69.2693 181.803 69.072C181.878 68.8693 181.915 68.648 181.915 68.408C181.915 67.912 181.763 67.5173 181.459 67.224C181.16 66.9307 180.726 66.784 180.155 66.784C179.579 66.784 179.139 66.9307 178.835 67.224C178.536 67.5173 178.387 67.912 178.387 68.408C178.387 68.648 178.424 68.8693 178.499 69.072C178.579 69.2693 178.694 69.44 178.843 69.584C178.992 69.728 179.176 69.84 179.395 69.92C179.614 70 179.867 70.04 180.155 70.04ZM182.723 74.44C182.723 74.2427 182.667 74.0827 182.555 73.96C182.443 73.8373 182.291 73.7413 182.099 73.672C181.912 73.6027 181.694 73.5547 181.443 73.528C181.192 73.496 180.926 73.472 180.643 73.456C180.366 73.44 180.083 73.424 179.795 73.408C179.507 73.392 179.23 73.3653 178.963 73.328C178.664 73.4667 178.419 73.6427 178.227 73.856C178.04 74.064 177.947 74.3093 177.947 74.592C177.947 74.7733 177.992 74.9413 178.083 75.096C178.179 75.256 178.323 75.392 178.515 75.504C178.707 75.6213 178.947 75.712 179.235 75.776C179.528 75.8453 179.872 75.88 180.267 75.88C180.651 75.88 180.995 75.8453 181.299 75.776C181.603 75.7067 181.859 75.608 182.067 75.48C182.28 75.352 182.443 75.2 182.555 75.024C182.667 74.848 182.723 74.6533 182.723 74.44ZM184.171 66.216V66.744C184.171 66.92 184.059 67.032 183.835 67.08L182.915 67.2C183.096 67.552 183.187 67.9413 183.187 68.368C183.187 68.7627 183.11 69.1227 182.955 69.448C182.806 69.768 182.598 70.0427 182.331 70.272C182.064 70.5013 181.744 70.6773 181.371 70.8C180.998 70.9227 180.592 70.984 180.155 70.984C179.776 70.984 179.419 70.9387 179.083 70.848C178.912 70.9547 178.782 71.0693 178.691 71.192C178.6 71.3093 178.555 71.4293 178.555 71.552C178.555 71.744 178.632 71.8907 178.787 71.992C178.947 72.088 179.155 72.1573 179.411 72.2C179.667 72.2427 179.958 72.2693 180.283 72.28C180.614 72.2907 180.95 72.3093 181.291 72.336C181.638 72.3573 181.974 72.3973 182.299 72.456C182.63 72.5147 182.923 72.6107 183.179 72.744C183.435 72.8773 183.64 73.0613 183.795 73.296C183.955 73.5307 184.035 73.8347 184.035 74.208C184.035 74.5547 183.947 74.8907 183.771 75.216C183.6 75.5413 183.352 75.8293 183.027 76.08C182.702 76.336 182.302 76.5387 181.827 76.688C181.358 76.8427 180.827 76.92 180.235 76.92C179.643 76.92 179.126 76.8613 178.683 76.744C178.24 76.6267 177.872 76.4693 177.579 76.272C177.286 76.0747 177.064 75.8453 176.915 75.584C176.771 75.328 176.699 75.0587 176.699 74.776C176.699 74.376 176.824 74.0373 177.075 73.76C177.326 73.4827 177.67 73.2613 178.107 73.096C177.867 72.9893 177.675 72.848 177.531 72.672C177.392 72.4907 177.323 72.248 177.323 71.944C177.323 71.8267 177.344 71.7067 177.387 71.584C177.43 71.456 177.494 71.3307 177.579 71.208C177.67 71.08 177.779 70.96 177.907 70.848C178.035 70.736 178.184 70.6373 178.355 70.552C177.955 70.328 177.643 70.032 177.419 69.664C177.195 69.2907 177.083 68.8587 177.083 68.368C177.083 67.9733 177.158 67.616 177.307 67.296C177.462 66.9707 177.675 66.696 177.947 66.472C178.219 66.2427 178.542 66.0667 178.915 65.944C179.294 65.8213 179.707 65.76 180.155 65.76C180.507 65.76 180.835 65.8 181.139 65.88C181.443 65.9547 181.72 66.0667 181.971 66.216H184.171ZM79.552 94.744L77.752 90.08C77.6987 89.9413 77.6427 89.7813 77.584 89.6C77.5253 89.4133 77.4693 89.216 77.416 89.008C77.304 89.44 77.1893 89.8 77.072 90.088L75.272 94.744H79.552ZM82.784 99H81.584C81.4453 99 81.3333 98.9653 81.248 98.896C81.1627 98.8267 81.0987 98.7387 81.056 98.632L79.984 95.864H74.84L73.768 98.632C73.736 98.728 73.6747 98.8133 73.584 98.888C73.4933 98.9627 73.3813 99 73.248 99H72.048L76.632 87.536H78.2L82.784 99ZM84.1408 99V92.112L83.2448 92.008C83.1274 91.9813 83.0341 91.9413 82.9648 91.888C82.8954 91.8293 82.8608 91.7467 82.8608 91.64V91.056H84.1408V90.392C84.1408 89.928 84.2048 89.5173 84.3328 89.16C84.4661 88.7973 84.6528 88.4933 84.8928 88.248C85.1328 87.9973 85.4234 87.808 85.7648 87.68C86.1061 87.552 86.4901 87.488 86.9168 87.488C87.2794 87.488 87.6154 87.5413 87.9248 87.648L87.8848 88.368C87.8741 88.496 87.8048 88.5653 87.6768 88.576C87.5488 88.5867 87.3728 88.592 87.1488 88.592C86.9034 88.592 86.6794 88.624 86.4768 88.688C86.2794 88.7467 86.1088 88.848 85.9648 88.992C85.8261 89.136 85.7168 89.328 85.6368 89.568C85.5621 89.8027 85.5248 90.0933 85.5248 90.44V91.056H89.1808V90.608C89.1808 90.112 89.2581 89.6587 89.4128 89.248C89.5674 88.832 89.7994 88.4747 90.1088 88.176C90.4181 87.8773 90.8021 87.6453 91.2608 87.48C91.7248 87.3147 92.2608 87.232 92.8688 87.232C93.0714 87.232 93.2794 87.2453 93.4928 87.272C93.7061 87.2987 93.8901 87.3387 94.0448 87.392L93.9888 88.136C93.9834 88.1893 93.9621 88.2267 93.9248 88.248C93.8928 88.2693 93.8474 88.2827 93.7888 88.288C93.7301 88.2933 93.6554 88.296 93.5648 88.296C93.4794 88.2907 93.3808 88.288 93.2688 88.288C92.3194 88.288 91.6314 88.4853 91.2048 88.88C90.7781 89.2693 90.5648 89.8587 90.5648 90.648V91.056H95.4608V99H94.0288V92.088H90.6048V99H89.1808V92.088H85.5648V99H84.1408ZM99.1439 92.072C99.3199 91.8747 99.5065 91.696 99.7039 91.536C99.9012 91.376 100.109 91.24 100.328 91.128C100.552 91.0107 100.787 90.9227 101.032 90.864C101.283 90.8 101.552 90.768 101.84 90.768C102.283 90.768 102.672 90.8427 103.008 90.992C103.349 91.136 103.632 91.344 103.856 91.616C104.085 91.8827 104.259 92.2053 104.376 92.584C104.493 92.9627 104.552 93.3813 104.552 93.84V99H103.12V93.84C103.12 93.2267 102.979 92.752 102.696 92.416C102.419 92.0747 101.995 91.904 101.424 91.904C101.003 91.904 100.608 92.0053 100.24 92.208C99.8772 92.4107 99.5412 92.6853 99.2319 93.032V99H97.7999V90.896H98.6559C98.8585 90.896 98.9839 90.9947 99.0319 91.192L99.1439 92.072ZM108.226 90.896V99H106.802V90.896H108.226ZM108.53 88.352C108.53 88.4907 108.5 88.6213 108.442 88.744C108.388 88.8613 108.314 88.968 108.218 89.064C108.127 89.1547 108.018 89.2267 107.89 89.28C107.767 89.3333 107.636 89.36 107.498 89.36C107.359 89.36 107.228 89.3333 107.106 89.28C106.988 89.2267 106.884 89.1547 106.794 89.064C106.703 88.968 106.631 88.8613 106.578 88.744C106.524 88.6213 106.498 88.4907 106.498 88.352C106.498 88.2133 106.524 88.0827 106.578 87.96C106.631 87.832 106.703 87.7227 106.794 87.632C106.884 87.536 106.988 87.4613 107.106 87.408C107.228 87.3547 107.359 87.328 107.498 87.328C107.636 87.328 107.767 87.3547 107.89 87.408C108.018 87.4613 108.127 87.536 108.218 87.632C108.314 87.7227 108.388 87.832 108.442 87.96C108.5 88.0827 108.53 88.2133 108.53 88.352ZM113.054 99.128C112.414 99.128 111.92 98.9493 111.574 98.592C111.232 98.2347 111.062 97.72 111.062 97.048V92.088H110.086C110 92.088 109.928 92.064 109.87 92.016C109.811 91.9627 109.782 91.8827 109.782 91.776V91.208L111.11 91.04L111.438 88.536C111.454 88.456 111.488 88.392 111.542 88.344C111.6 88.2907 111.675 88.264 111.766 88.264H112.486V91.056H114.83V92.088H112.486V96.952C112.486 97.2933 112.568 97.5467 112.734 97.712C112.899 97.8773 113.112 97.96 113.374 97.96C113.523 97.96 113.651 97.9413 113.758 97.904C113.87 97.8613 113.966 97.816 114.046 97.768C114.126 97.72 114.192 97.6773 114.246 97.64C114.304 97.5973 114.355 97.576 114.398 97.576C114.472 97.576 114.539 97.6213 114.598 97.712L115.014 98.392C114.768 98.6213 114.472 98.8027 114.126 98.936C113.779 99.064 113.422 99.128 113.054 99.128ZM123.292 90.896L118.772 101.392C118.724 101.499 118.663 101.584 118.588 101.648C118.519 101.712 118.409 101.744 118.26 101.744H117.204L118.684 98.528L115.34 90.896H116.572C116.695 90.896 116.791 90.928 116.86 90.992C116.935 91.0507 116.985 91.1173 117.012 91.192L119.18 96.296C119.265 96.52 119.337 96.7547 119.396 97C119.471 96.7493 119.551 96.512 119.636 96.288L121.74 91.192C121.772 91.1067 121.825 91.0373 121.9 90.984C121.98 90.9253 122.068 90.896 122.164 90.896H123.292ZM128.253 99V90.896H129.109C129.312 90.896 129.437 90.9947 129.485 91.192L129.589 92.024C129.888 91.656 130.224 91.3547 130.597 91.12C130.97 90.8853 131.402 90.768 131.893 90.768C132.437 90.768 132.877 90.92 133.213 91.224C133.554 91.528 133.8 91.9387 133.949 92.456C134.066 92.1627 134.216 91.9093 134.397 91.696C134.584 91.4827 134.792 91.3067 135.021 91.168C135.25 91.0293 135.493 90.928 135.749 90.864C136.01 90.8 136.274 90.768 136.541 90.768C136.968 90.768 137.346 90.8373 137.677 90.976C138.013 91.1093 138.296 91.3067 138.525 91.568C138.76 91.8293 138.938 92.152 139.061 92.536C139.184 92.9147 139.245 93.3493 139.245 93.84V99H137.813V93.84C137.813 93.2053 137.674 92.7253 137.397 92.4C137.12 92.0693 136.72 91.904 136.197 91.904C135.962 91.904 135.738 91.9467 135.525 92.032C135.317 92.112 135.133 92.232 134.973 92.392C134.813 92.552 134.685 92.7547 134.589 93C134.498 93.24 134.453 93.52 134.453 93.84V99H133.021V93.84C133.021 93.1893 132.89 92.704 132.629 92.384C132.368 92.064 131.986 91.904 131.485 91.904C131.133 91.904 130.808 92 130.509 92.192C130.21 92.3787 129.936 92.6347 129.685 92.96V99H128.253ZM145.801 95.352C145.145 95.3733 144.585 95.4267 144.121 95.512C143.663 95.592 143.287 95.6987 142.993 95.832C142.705 95.9653 142.495 96.1227 142.361 96.304C142.233 96.4853 142.169 96.688 142.169 96.912C142.169 97.1253 142.204 97.3093 142.273 97.464C142.343 97.6187 142.436 97.7467 142.553 97.848C142.676 97.944 142.817 98.016 142.977 98.064C143.143 98.1067 143.319 98.128 143.505 98.128C143.756 98.128 143.985 98.104 144.193 98.056C144.401 98.0027 144.596 97.928 144.777 97.832C144.964 97.736 145.14 97.6213 145.305 97.488C145.476 97.3547 145.641 97.2027 145.801 97.032V95.352ZM141.201 92.04C141.649 91.608 142.132 91.2853 142.649 91.072C143.167 90.8587 143.74 90.752 144.369 90.752C144.823 90.752 145.225 90.8267 145.577 90.976C145.929 91.1253 146.225 91.3333 146.465 91.6C146.705 91.8667 146.887 92.1893 147.009 92.568C147.132 92.9467 147.193 93.3627 147.193 93.816V99H146.561C146.423 99 146.316 98.9787 146.241 98.936C146.167 98.888 146.108 98.7973 146.065 98.664L145.905 97.896C145.692 98.0933 145.484 98.2693 145.281 98.424C145.079 98.5733 144.865 98.7013 144.641 98.808C144.417 98.9093 144.177 98.9867 143.921 99.04C143.671 99.0987 143.391 99.128 143.081 99.128C142.767 99.128 142.471 99.0853 142.193 99C141.916 98.9093 141.673 98.776 141.465 98.6C141.263 98.424 141.1 98.2027 140.977 97.936C140.86 97.664 140.801 97.344 140.801 96.976C140.801 96.656 140.889 96.3493 141.065 96.056C141.241 95.7573 141.527 95.4933 141.921 95.264C142.316 95.0347 142.831 94.848 143.465 94.704C144.1 94.5547 144.879 94.4693 145.801 94.448V93.816C145.801 93.1867 145.665 92.712 145.393 92.392C145.121 92.0667 144.724 91.904 144.201 91.904C143.849 91.904 143.553 91.9493 143.313 92.04C143.079 92.1253 142.873 92.224 142.697 92.336C142.527 92.4427 142.377 92.5413 142.249 92.632C142.127 92.7173 142.004 92.76 141.881 92.76C141.785 92.76 141.703 92.736 141.633 92.688C141.564 92.6347 141.505 92.5707 141.457 92.496L141.201 92.04ZM150.794 97.048C151.056 97.4 151.341 97.648 151.65 97.792C151.96 97.936 152.306 98.008 152.69 98.008C153.448 98.008 154.029 97.7387 154.434 97.2C154.84 96.6613 155.042 95.8933 155.042 94.896C155.042 94.368 154.994 93.9147 154.898 93.536C154.808 93.1573 154.674 92.848 154.498 92.608C154.322 92.3627 154.106 92.184 153.85 92.072C153.594 91.96 153.304 91.904 152.978 91.904C152.514 91.904 152.106 92.0107 151.754 92.224C151.408 92.4373 151.088 92.7387 150.794 93.128V97.048ZM150.722 92.152C151.064 91.7307 151.458 91.392 151.906 91.136C152.354 90.88 152.866 90.752 153.442 90.752C153.912 90.752 154.336 90.8427 154.714 91.024C155.093 91.2 155.416 91.464 155.682 91.816C155.949 92.1627 156.154 92.5947 156.298 93.112C156.442 93.6293 156.514 94.224 156.514 94.896C156.514 95.4933 156.434 96.0507 156.274 96.568C156.114 97.08 155.882 97.5253 155.578 97.904C155.28 98.2773 154.912 98.5733 154.474 98.792C154.042 99.0053 153.554 99.112 153.01 99.112C152.514 99.112 152.088 99.0293 151.73 98.864C151.378 98.6933 151.066 98.4587 150.794 98.16V101.744H149.362V90.896H150.218C150.421 90.896 150.546 90.9947 150.594 91.192L150.722 92.152ZM159.763 97.048C160.024 97.4 160.31 97.648 160.619 97.792C160.928 97.936 161.275 98.008 161.659 98.008C162.416 98.008 162.998 97.7387 163.403 97.2C163.808 96.6613 164.011 95.8933 164.011 94.896C164.011 94.368 163.963 93.9147 163.867 93.536C163.776 93.1573 163.643 92.848 163.467 92.608C163.291 92.3627 163.075 92.184 162.819 92.072C162.563 91.96 162.272 91.904 161.947 91.904C161.483 91.904 161.075 92.0107 160.723 92.224C160.376 92.4373 160.056 92.7387 159.763 93.128V97.048ZM159.691 92.152C160.032 91.7307 160.427 91.392 160.875 91.136C161.323 90.88 161.835 90.752 162.411 90.752C162.88 90.752 163.304 90.8427 163.683 91.024C164.062 91.2 164.384 91.464 164.651 91.816C164.918 92.1627 165.123 92.5947 165.267 93.112C165.411 93.6293 165.483 94.224 165.483 94.896C165.483 95.4933 165.403 96.0507 165.243 96.568C165.083 97.08 164.851 97.5253 164.547 97.904C164.248 98.2773 163.88 98.5733 163.443 98.792C163.011 99.0053 162.523 99.112 161.979 99.112C161.483 99.112 161.056 99.0293 160.699 98.864C160.347 98.6933 160.035 98.4587 159.763 98.16V101.744H158.331V90.896H159.187C159.39 90.896 159.515 90.9947 159.563 91.192L159.691 92.152ZM168.804 90.896V99H167.38V90.896H168.804ZM169.108 88.352C169.108 88.4907 169.079 88.6213 169.02 88.744C168.967 88.8613 168.892 88.968 168.796 89.064C168.705 89.1547 168.596 89.2267 168.468 89.28C168.345 89.3333 168.215 89.36 168.076 89.36C167.937 89.36 167.807 89.3333 167.684 89.28C167.567 89.2267 167.463 89.1547 167.372 89.064C167.281 88.968 167.209 88.8613 167.156 88.744C167.103 88.6213 167.076 88.4907 167.076 88.352C167.076 88.2133 167.103 88.0827 167.156 87.96C167.209 87.832 167.281 87.7227 167.372 87.632C167.463 87.536 167.567 87.4613 167.684 87.408C167.807 87.3547 167.937 87.328 168.076 87.328C168.215 87.328 168.345 87.3547 168.468 87.408C168.596 87.4613 168.705 87.536 168.796 87.632C168.892 87.7227 168.967 87.832 169.02 87.96C169.079 88.0827 169.108 88.2133 169.108 88.352ZM172.488 92.072C172.664 91.8747 172.85 91.696 173.048 91.536C173.245 91.376 173.453 91.24 173.672 91.128C173.896 91.0107 174.13 90.9227 174.376 90.864C174.626 90.8 174.896 90.768 175.184 90.768C175.626 90.768 176.016 90.8427 176.352 90.992C176.693 91.136 176.976 91.344 177.2 91.616C177.429 91.8827 177.602 92.2053 177.72 92.584C177.837 92.9627 177.896 93.3813 177.896 93.84V99H176.464V93.84C176.464 93.2267 176.322 92.752 176.04 92.416C175.762 92.0747 175.338 91.904 174.768 91.904C174.346 91.904 173.952 92.0053 173.584 92.208C173.221 92.4107 172.885 92.6853 172.576 93.032V99H171.144V90.896H172C172.202 90.896 172.328 90.9947 172.376 91.192L172.488 92.072ZM182.89 95.04C183.178 95.04 183.431 95 183.65 94.92C183.868 94.84 184.052 94.728 184.202 94.584C184.351 94.44 184.463 94.2693 184.538 94.072C184.612 93.8693 184.65 93.648 184.65 93.408C184.65 92.912 184.498 92.5173 184.194 92.224C183.895 91.9307 183.46 91.784 182.89 91.784C182.314 91.784 181.874 91.9307 181.57 92.224C181.271 92.5173 181.122 92.912 181.122 93.408C181.122 93.648 181.159 93.8693 181.234 94.072C181.314 94.2693 181.428 94.44 181.578 94.584C181.727 94.728 181.911 94.84 182.13 94.92C182.348 95 182.602 95.04 182.89 95.04ZM185.458 99.44C185.458 99.2427 185.402 99.0827 185.29 98.96C185.178 98.8373 185.026 98.7413 184.834 98.672C184.647 98.6027 184.428 98.5547 184.178 98.528C183.927 98.496 183.66 98.472 183.378 98.456C183.1 98.44 182.818 98.424 182.53 98.408C182.242 98.392 181.964 98.3653 181.698 98.328C181.399 98.4667 181.154 98.6427 180.962 98.856C180.775 99.064 180.682 99.3093 180.682 99.592C180.682 99.7733 180.727 99.9413 180.818 100.096C180.914 100.256 181.058 100.392 181.25 100.504C181.442 100.621 181.682 100.712 181.97 100.776C182.263 100.845 182.607 100.88 183.002 100.88C183.386 100.88 183.73 100.845 184.034 100.776C184.338 100.707 184.594 100.608 184.802 100.48C185.015 100.352 185.178 100.2 185.29 100.024C185.402 99.848 185.458 99.6533 185.458 99.44ZM186.906 91.216V91.744C186.906 91.92 186.794 92.032 186.57 92.08L185.65 92.2C185.831 92.552 185.922 92.9413 185.922 93.368C185.922 93.7627 185.844 94.1227 185.69 94.448C185.54 94.768 185.332 95.0427 185.066 95.272C184.799 95.5013 184.479 95.6773 184.106 95.8C183.732 95.9227 183.327 95.984 182.89 95.984C182.511 95.984 182.154 95.9387 181.818 95.848C181.647 95.9547 181.516 96.0693 181.426 96.192C181.335 96.3093 181.289 96.4293 181.289 96.552C181.289 96.744 181.367 96.8907 181.522 96.992C181.682 97.088 181.89 97.1573 182.146 97.2C182.402 97.2427 182.692 97.2693 183.018 97.28C183.348 97.2907 183.684 97.3093 184.026 97.336C184.372 97.3573 184.708 97.3973 185.034 97.456C185.364 97.5147 185.658 97.6107 185.914 97.744C186.17 97.8773 186.375 98.0613 186.53 98.296C186.69 98.5307 186.77 98.8347 186.77 99.208C186.77 99.5547 186.682 99.8907 186.506 100.216C186.335 100.541 186.087 100.829 185.762 101.08C185.436 101.336 185.036 101.539 184.562 101.688C184.092 101.843 183.562 101.92 182.97 101.92C182.378 101.92 181.86 101.861 181.418 101.744C180.975 101.627 180.607 101.469 180.314 101.272C180.02 101.075 179.799 100.845 179.65 100.584C179.506 100.328 179.434 100.059 179.434 99.776C179.434 99.376 179.559 99.0373 179.81 98.76C180.06 98.4827 180.404 98.2613 180.842 98.096C180.602 97.9893 180.41 97.848 180.266 97.672C180.127 97.4907 180.058 97.248 180.058 96.944C180.058 96.8267 180.079 96.7067 180.122 96.584C180.164 96.456 180.228 96.3307 180.314 96.208C180.404 96.08 180.514 95.96 180.642 95.848C180.77 95.736 180.919 95.6373 181.09 95.552C180.69 95.328 180.378 95.032 180.154 94.664C179.93 94.2907 179.818 93.8587 179.818 93.368C179.818 92.9733 179.892 92.616 180.042 92.296C180.196 91.9707 180.41 91.696 180.682 91.472C180.954 91.2427 181.276 91.0667 181.65 90.944C182.028 90.8213 182.442 90.76 182.89 90.76C183.242 90.76 183.57 90.8 183.874 90.88C184.178 90.9547 184.455 91.0667 184.706 91.216H186.906ZM83.4 118.272C83.4 119.131 83.264 119.912 82.992 120.616C82.72 121.32 82.336 121.923 81.84 122.424C81.344 122.925 80.7467 123.315 80.048 123.592C79.3547 123.864 78.5867 124 77.744 124H73.464V112.536H77.744C78.5867 112.536 79.3547 112.675 80.048 112.952C80.7467 113.224 81.344 113.613 81.84 114.12C82.336 114.621 82.72 115.224 82.992 115.928C83.264 116.632 83.4 117.413 83.4 118.272ZM81.808 118.272C81.808 117.568 81.712 116.939 81.52 116.384C81.328 115.829 81.056 115.36 80.704 114.976C80.352 114.592 79.9253 114.299 79.424 114.096C78.9227 113.893 78.3627 113.792 77.744 113.792H75.016V122.744H77.744C78.3627 122.744 78.9227 122.643 79.424 122.44C79.9253 122.237 80.352 121.947 80.704 121.568C81.056 121.184 81.328 120.715 81.52 120.16C81.712 119.605 81.808 118.976 81.808 118.272ZM90.6145 119.064C90.6145 118.733 90.5665 118.432 90.4705 118.16C90.3798 117.883 90.2438 117.645 90.0625 117.448C89.8865 117.245 89.6705 117.091 89.4145 116.984C89.1585 116.872 88.8678 116.816 88.5425 116.816C87.8598 116.816 87.3185 117.016 86.9185 117.416C86.5238 117.811 86.2785 118.36 86.1825 119.064H90.6145ZM91.7665 122.864C91.5905 123.077 91.3798 123.264 91.1345 123.424C90.8892 123.579 90.6252 123.707 90.3425 123.808C90.0652 123.909 89.7772 123.984 89.4785 124.032C89.1798 124.085 88.8838 124.112 88.5905 124.112C88.0305 124.112 87.5132 124.019 87.0385 123.832C86.5692 123.64 86.1612 123.363 85.8145 123C85.4732 122.632 85.2065 122.179 85.0145 121.64C84.8225 121.101 84.7265 120.483 84.7265 119.784C84.7265 119.219 84.8118 118.691 84.9825 118.2C85.1585 117.709 85.4092 117.285 85.7345 116.928C86.0598 116.565 86.4572 116.283 86.9265 116.08C87.3958 115.872 87.9238 115.768 88.5105 115.768C88.9958 115.768 89.4438 115.851 89.8545 116.016C90.2705 116.176 90.6278 116.411 90.9265 116.72C91.2305 117.024 91.4678 117.403 91.6385 117.856C91.8092 118.304 91.8945 118.816 91.8945 119.392C91.8945 119.616 91.8705 119.765 91.8225 119.84C91.7745 119.915 91.6838 119.952 91.5505 119.952H86.1345C86.1505 120.464 86.2198 120.909 86.3425 121.288C86.4705 121.667 86.6465 121.984 86.8705 122.24C87.0945 122.491 87.3612 122.68 87.6705 122.808C87.9798 122.931 88.3265 122.992 88.7105 122.992C89.0678 122.992 89.3745 122.952 89.6305 122.872C89.8918 122.787 90.1158 122.696 90.3025 122.6C90.4892 122.504 90.6438 122.416 90.7665 122.336C90.8945 122.251 91.0038 122.208 91.0945 122.208C91.2118 122.208 91.3025 122.253 91.3665 122.344L91.7665 122.864ZM98.3636 117.232C98.2996 117.349 98.201 117.408 98.0676 117.408C97.9876 117.408 97.897 117.379 97.7956 117.32C97.6943 117.261 97.569 117.197 97.4196 117.128C97.2756 117.053 97.1023 116.987 96.8996 116.928C96.697 116.864 96.457 116.832 96.1796 116.832C95.9396 116.832 95.7236 116.864 95.5316 116.928C95.3396 116.987 95.1743 117.069 95.0356 117.176C94.9023 117.283 94.7983 117.408 94.7236 117.552C94.6543 117.691 94.6196 117.843 94.6196 118.008C94.6196 118.216 94.6783 118.389 94.7956 118.528C94.9183 118.667 95.0783 118.787 95.2756 118.888C95.473 118.989 95.697 119.08 95.9476 119.16C96.1983 119.235 96.4543 119.317 96.7156 119.408C96.9823 119.493 97.241 119.589 97.4916 119.696C97.7423 119.803 97.9663 119.936 98.1636 120.096C98.361 120.256 98.5183 120.453 98.6356 120.688C98.7583 120.917 98.8196 121.195 98.8196 121.52C98.8196 121.893 98.753 122.24 98.6196 122.56C98.4863 122.875 98.289 123.149 98.0276 123.384C97.7663 123.613 97.4463 123.795 97.0676 123.928C96.689 124.061 96.2516 124.128 95.7556 124.128C95.1903 124.128 94.6783 124.037 94.2196 123.856C93.761 123.669 93.3716 123.432 93.0516 123.144L93.3876 122.6C93.4303 122.531 93.481 122.477 93.5396 122.44C93.5983 122.403 93.673 122.384 93.7636 122.384C93.8596 122.384 93.961 122.421 94.0676 122.496C94.1743 122.571 94.3023 122.653 94.4516 122.744C94.6063 122.835 94.793 122.917 95.0116 122.992C95.2303 123.067 95.5023 123.104 95.8276 123.104C96.105 123.104 96.3476 123.069 96.5556 123C96.7636 122.925 96.937 122.827 97.0756 122.704C97.2143 122.581 97.3156 122.44 97.3796 122.28C97.449 122.12 97.4836 121.949 97.4836 121.768C97.4836 121.544 97.4223 121.36 97.2996 121.216C97.1823 121.067 97.025 120.941 96.8276 120.84C96.6303 120.733 96.4036 120.643 96.1476 120.568C95.897 120.488 95.6383 120.405 95.3716 120.32C95.1103 120.235 94.8516 120.139 94.5956 120.032C94.345 119.92 94.121 119.781 93.9236 119.616C93.7263 119.451 93.5663 119.248 93.4436 119.008C93.3263 118.763 93.2676 118.467 93.2676 118.12C93.2676 117.811 93.3316 117.515 93.4596 117.232C93.5876 116.944 93.7743 116.693 94.0196 116.48C94.265 116.261 94.5663 116.088 94.9236 115.96C95.281 115.832 95.689 115.768 96.1476 115.768C96.681 115.768 97.1583 115.853 97.5796 116.024C98.0063 116.189 98.3743 116.419 98.6836 116.712L98.3636 117.232ZM102.07 115.896V124H100.646V115.896H102.07ZM102.374 113.352C102.374 113.491 102.344 113.621 102.286 113.744C102.232 113.861 102.158 113.968 102.062 114.064C101.971 114.155 101.862 114.227 101.734 114.28C101.611 114.333 101.48 114.36 101.342 114.36C101.203 114.36 101.072 114.333 100.95 114.28C100.832 114.227 100.728 114.155 100.638 114.064C100.547 113.968 100.475 113.861 100.422 113.744C100.368 113.621 100.342 113.491 100.342 113.352C100.342 113.213 100.368 113.083 100.422 112.96C100.475 112.832 100.547 112.723 100.638 112.632C100.728 112.536 100.832 112.461 100.95 112.408C101.072 112.355 101.203 112.328 101.342 112.328C101.48 112.328 101.611 112.355 101.734 112.408C101.862 112.461 101.971 112.536 102.062 112.632C102.158 112.723 102.232 112.832 102.286 112.96C102.344 113.083 102.374 113.213 102.374 113.352ZM107.233 120.04C107.521 120.04 107.775 120 107.993 119.92C108.212 119.84 108.396 119.728 108.545 119.584C108.695 119.44 108.807 119.269 108.881 119.072C108.956 118.869 108.993 118.648 108.993 118.408C108.993 117.912 108.841 117.517 108.537 117.224C108.239 116.931 107.804 116.784 107.233 116.784C106.657 116.784 106.217 116.931 105.913 117.224C105.615 117.517 105.465 117.912 105.465 118.408C105.465 118.648 105.503 118.869 105.577 119.072C105.657 119.269 105.772 119.44 105.921 119.584C106.071 119.728 106.255 119.84 106.473 119.92C106.692 120 106.945 120.04 107.233 120.04ZM109.801 124.44C109.801 124.243 109.745 124.083 109.633 123.96C109.521 123.837 109.369 123.741 109.177 123.672C108.991 123.603 108.772 123.555 108.521 123.528C108.271 123.496 108.004 123.472 107.721 123.456C107.444 123.44 107.161 123.424 106.873 123.408C106.585 123.392 106.308 123.365 106.041 123.328C105.743 123.467 105.497 123.643 105.305 123.856C105.119 124.064 105.025 124.309 105.025 124.592C105.025 124.773 105.071 124.941 105.161 125.096C105.257 125.256 105.401 125.392 105.593 125.504C105.785 125.621 106.025 125.712 106.313 125.776C106.607 125.845 106.951 125.88 107.345 125.88C107.729 125.88 108.073 125.845 108.377 125.776C108.681 125.707 108.937 125.608 109.145 125.48C109.359 125.352 109.521 125.2 109.633 125.024C109.745 124.848 109.801 124.653 109.801 124.44ZM111.249 116.216V116.744C111.249 116.92 111.137 117.032 110.913 117.08L109.993 117.2C110.175 117.552 110.265 117.941 110.265 118.368C110.265 118.763 110.188 119.123 110.033 119.448C109.884 119.768 109.676 120.043 109.409 120.272C109.143 120.501 108.823 120.677 108.449 120.8C108.076 120.923 107.671 120.984 107.233 120.984C106.855 120.984 106.497 120.939 106.161 120.848C105.991 120.955 105.86 121.069 105.769 121.192C105.679 121.309 105.633 121.429 105.633 121.552C105.633 121.744 105.711 121.891 105.865 121.992C106.025 122.088 106.233 122.157 106.489 122.2C106.745 122.243 107.036 122.269 107.361 122.28C107.692 122.291 108.028 122.309 108.369 122.336C108.716 122.357 109.052 122.397 109.377 122.456C109.708 122.515 110.001 122.611 110.257 122.744C110.513 122.877 110.719 123.061 110.873 123.296C111.033 123.531 111.113 123.835 111.113 124.208C111.113 124.555 111.025 124.891 110.849 125.216C110.679 125.541 110.431 125.829 110.105 126.08C109.78 126.336 109.38 126.539 108.905 126.688C108.436 126.843 107.905 126.92 107.313 126.92C106.721 126.92 106.204 126.861 105.761 126.744C105.319 126.627 104.951 126.469 104.657 126.272C104.364 126.075 104.143 125.845 103.993 125.584C103.849 125.328 103.777 125.059 103.777 124.776C103.777 124.376 103.903 124.037 104.153 123.76C104.404 123.483 104.748 123.261 105.185 123.096C104.945 122.989 104.753 122.848 104.609 122.672C104.471 122.491 104.401 122.248 104.401 121.944C104.401 121.827 104.423 121.707 104.465 121.584C104.508 121.456 104.572 121.331 104.657 121.208C104.748 121.08 104.857 120.96 104.985 120.848C105.113 120.736 105.263 120.637 105.433 120.552C105.033 120.328 104.721 120.032 104.497 119.664C104.273 119.291 104.161 118.859 104.161 118.368C104.161 117.973 104.236 117.616 104.385 117.296C104.54 116.971 104.753 116.696 105.025 116.472C105.297 116.243 105.62 116.067 105.993 115.944C106.372 115.821 106.785 115.76 107.233 115.76C107.585 115.76 107.913 115.8 108.217 115.88C108.521 115.955 108.799 116.067 109.049 116.216H111.249ZM114.066 117.072C114.242 116.875 114.428 116.696 114.626 116.536C114.823 116.376 115.031 116.24 115.25 116.128C115.474 116.011 115.708 115.923 115.954 115.864C116.204 115.8 116.474 115.768 116.762 115.768C117.204 115.768 117.594 115.843 117.93 115.992C118.271 116.136 118.554 116.344 118.778 116.616C119.007 116.883 119.18 117.205 119.298 117.584C119.415 117.963 119.474 118.381 119.474 118.84V124H118.042V118.84C118.042 118.227 117.9 117.752 117.618 117.416C117.34 117.075 116.916 116.904 116.346 116.904C115.924 116.904 115.53 117.005 115.162 117.208C114.799 117.411 114.463 117.685 114.154 118.032V124H112.722V115.896H113.578C113.78 115.896 113.906 115.995 113.954 116.192L114.066 117.072ZM127.241 115.896V124H125.817V115.896H127.241ZM127.545 113.352C127.545 113.491 127.516 113.621 127.457 113.744C127.404 113.861 127.329 113.968 127.233 114.064C127.143 114.155 127.033 114.227 126.905 114.28C126.783 114.333 126.652 114.36 126.513 114.36C126.375 114.36 126.244 114.333 126.121 114.28C126.004 114.227 125.9 114.155 125.809 114.064C125.719 113.968 125.647 113.861 125.593 113.744C125.54 113.621 125.513 113.491 125.513 113.352C125.513 113.213 125.54 113.083 125.593 112.96C125.647 112.832 125.719 112.723 125.809 112.632C125.9 112.536 126.004 112.461 126.121 112.408C126.244 112.355 126.375 112.328 126.513 112.328C126.652 112.328 126.783 112.355 126.905 112.408C127.033 112.461 127.143 112.536 127.233 112.632C127.329 112.723 127.404 112.832 127.457 112.96C127.516 113.083 127.545 113.213 127.545 113.352ZM132.069 124.128C131.429 124.128 130.936 123.949 130.589 123.592C130.248 123.235 130.077 122.72 130.077 122.048V117.088H129.101C129.016 117.088 128.944 117.064 128.885 117.016C128.826 116.963 128.797 116.883 128.797 116.776V116.208L130.125 116.04L130.453 113.536C130.469 113.456 130.504 113.392 130.557 113.344C130.616 113.291 130.69 113.264 130.781 113.264H131.501V116.056H133.845V117.088H131.501V121.952C131.501 122.293 131.584 122.547 131.749 122.712C131.914 122.877 132.128 122.96 132.389 122.96C132.538 122.96 132.666 122.941 132.773 122.904C132.885 122.861 132.981 122.816 133.061 122.768C133.141 122.72 133.208 122.677 133.261 122.64C133.32 122.597 133.37 122.576 133.413 122.576C133.488 122.576 133.554 122.621 133.613 122.712L134.029 123.392C133.784 123.621 133.488 123.803 133.141 123.936C132.794 124.064 132.437 124.128 132.069 124.128ZM140.693 119.064C140.693 118.733 140.645 118.432 140.549 118.16C140.458 117.883 140.322 117.645 140.141 117.448C139.965 117.245 139.749 117.091 139.493 116.984C139.237 116.872 138.946 116.816 138.621 116.816C137.938 116.816 137.397 117.016 136.997 117.416C136.602 117.811 136.357 118.36 136.261 119.064H140.693ZM141.845 122.864C141.669 123.077 141.458 123.264 141.213 123.424C140.967 123.579 140.703 123.707 140.421 123.808C140.143 123.909 139.855 123.984 139.557 124.032C139.258 124.085 138.962 124.112 138.669 124.112C138.109 124.112 137.591 124.019 137.117 123.832C136.647 123.64 136.239 123.363 135.893 123C135.551 122.632 135.285 122.179 135.093 121.64C134.901 121.101 134.805 120.483 134.805 119.784C134.805 119.219 134.89 118.691 135.061 118.2C135.237 117.709 135.487 117.285 135.813 116.928C136.138 116.565 136.535 116.283 137.005 116.08C137.474 115.872 138.002 115.768 138.589 115.768C139.074 115.768 139.522 115.851 139.933 116.016C140.349 116.176 140.706 116.411 141.005 116.72C141.309 117.024 141.546 117.403 141.717 117.856C141.887 118.304 141.973 118.816 141.973 119.392C141.973 119.616 141.949 119.765 141.901 119.84C141.853 119.915 141.762 119.952 141.629 119.952H136.213C136.229 120.464 136.298 120.909 136.421 121.288C136.549 121.667 136.725 121.984 136.949 122.24C137.173 122.491 137.439 122.68 137.749 122.808C138.058 122.931 138.405 122.992 138.789 122.992C139.146 122.992 139.453 122.952 139.709 122.872C139.97 122.787 140.194 122.696 140.381 122.6C140.567 122.504 140.722 122.416 140.845 122.336C140.973 122.251 141.082 122.208 141.173 122.208C141.29 122.208 141.381 122.253 141.445 122.344L141.845 122.864ZM145.074 117.52C145.33 116.965 145.644 116.533 146.018 116.224C146.391 115.909 146.847 115.752 147.386 115.752C147.556 115.752 147.719 115.771 147.874 115.808C148.034 115.845 148.175 115.904 148.298 115.984L148.194 117.048C148.162 117.181 148.082 117.248 147.954 117.248C147.879 117.248 147.77 117.232 147.626 117.2C147.482 117.168 147.319 117.152 147.138 117.152C146.882 117.152 146.652 117.189 146.45 117.264C146.252 117.339 146.074 117.451 145.914 117.6C145.759 117.744 145.618 117.925 145.49 118.144C145.367 118.357 145.255 118.603 145.154 118.88V124H143.722V115.896H144.538C144.692 115.896 144.799 115.925 144.858 115.984C144.916 116.043 144.956 116.144 144.978 116.288L145.074 117.52ZM153.817 120.352C153.161 120.373 152.601 120.427 152.137 120.512C151.678 120.592 151.302 120.699 151.009 120.832C150.721 120.965 150.51 121.123 150.377 121.304C150.249 121.485 150.185 121.688 150.185 121.912C150.185 122.125 150.22 122.309 150.289 122.464C150.358 122.619 150.452 122.747 150.569 122.848C150.692 122.944 150.833 123.016 150.993 123.064C151.158 123.107 151.334 123.128 151.521 123.128C151.772 123.128 152.001 123.104 152.209 123.056C152.417 123.003 152.612 122.928 152.793 122.832C152.98 122.736 153.156 122.621 153.321 122.488C153.492 122.355 153.657 122.203 153.817 122.032V120.352ZM149.217 117.04C149.665 116.608 150.148 116.285 150.665 116.072C151.182 115.859 151.756 115.752 152.385 115.752C152.838 115.752 153.241 115.827 153.593 115.976C153.945 116.125 154.241 116.333 154.481 116.6C154.721 116.867 154.902 117.189 155.025 117.568C155.148 117.947 155.209 118.363 155.209 118.816V124H154.577C154.438 124 154.332 123.979 154.257 123.936C154.182 123.888 154.124 123.797 154.081 123.664L153.921 122.896C153.708 123.093 153.5 123.269 153.297 123.424C153.094 123.573 152.881 123.701 152.657 123.808C152.433 123.909 152.193 123.987 151.937 124.04C151.686 124.099 151.406 124.128 151.097 124.128C150.782 124.128 150.486 124.085 150.209 124C149.932 123.909 149.689 123.776 149.481 123.6C149.278 123.424 149.116 123.203 148.993 122.936C148.876 122.664 148.817 122.344 148.817 121.976C148.817 121.656 148.905 121.349 149.081 121.056C149.257 120.757 149.542 120.493 149.937 120.264C150.332 120.035 150.846 119.848 151.481 119.704C152.116 119.555 152.894 119.469 153.817 119.448V118.816C153.817 118.187 153.681 117.712 153.409 117.392C153.137 117.067 152.74 116.904 152.217 116.904C151.865 116.904 151.569 116.949 151.329 117.04C151.094 117.125 150.889 117.224 150.713 117.336C150.542 117.443 150.393 117.541 150.265 117.632C150.142 117.717 150.02 117.76 149.897 117.76C149.801 117.76 149.718 117.736 149.649 117.688C149.58 117.635 149.521 117.571 149.473 117.496L149.217 117.04ZM164.789 124H163.365V117.088H159.189V121.952C159.189 122.293 159.271 122.547 159.437 122.712C159.602 122.877 159.815 122.96 160.077 122.96C160.226 122.96 160.354 122.941 160.461 122.904C160.573 122.861 160.669 122.816 160.749 122.768C160.829 122.72 160.895 122.677 160.949 122.64C161.007 122.597 161.058 122.576 161.101 122.576C161.175 122.576 161.242 122.621 161.301 122.712L161.717 123.392C161.471 123.621 161.175 123.803 160.829 123.936C160.482 124.064 160.125 124.128 159.757 124.128C159.117 124.128 158.623 123.949 158.277 123.592C157.935 123.235 157.765 122.72 157.765 122.048V117.088H156.789C156.703 117.088 156.631 117.064 156.573 117.016C156.514 116.963 156.485 116.883 156.485 116.776V116.208L157.813 116.032L158.141 113.536C158.157 113.456 158.191 113.392 158.245 113.344C158.303 113.291 158.378 113.264 158.469 113.264H159.189V116.056H164.789V124ZM165.141 113.296C165.141 113.435 165.111 113.565 165.053 113.688C164.999 113.805 164.925 113.909 164.829 114C164.738 114.091 164.631 114.163 164.509 114.216C164.386 114.269 164.255 114.296 164.117 114.296C163.978 114.296 163.847 114.269 163.725 114.216C163.607 114.163 163.503 114.091 163.413 114C163.322 113.909 163.25 113.805 163.197 113.688C163.143 113.565 163.117 113.435 163.117 113.296C163.117 113.157 163.143 113.027 163.197 112.904C163.25 112.776 163.322 112.667 163.413 112.576C163.503 112.48 163.607 112.405 163.725 112.352C163.847 112.299 163.978 112.272 164.117 112.272C164.255 112.272 164.386 112.299 164.509 112.352C164.631 112.405 164.738 112.48 164.829 112.576C164.925 112.667 164.999 112.776 165.053 112.904C165.111 113.027 165.141 113.157 165.141 113.296ZM170.544 115.768C171.136 115.768 171.669 115.867 172.144 116.064C172.619 116.261 173.024 116.541 173.36 116.904C173.696 117.267 173.952 117.707 174.128 118.224C174.309 118.736 174.4 119.309 174.4 119.944C174.4 120.584 174.309 121.16 174.128 121.672C173.952 122.184 173.696 122.621 173.36 122.984C173.024 123.347 172.619 123.627 172.144 123.824C171.669 124.016 171.136 124.112 170.544 124.112C169.947 124.112 169.408 124.016 168.928 123.824C168.453 123.627 168.048 123.347 167.712 122.984C167.376 122.621 167.117 122.184 166.936 121.672C166.76 121.16 166.672 120.584 166.672 119.944C166.672 119.309 166.76 118.736 166.936 118.224C167.117 117.707 167.376 117.267 167.712 116.904C168.048 116.541 168.453 116.261 168.928 116.064C169.408 115.867 169.947 115.768 170.544 115.768ZM170.544 123C171.344 123 171.941 122.733 172.336 122.2C172.731 121.661 172.928 120.912 172.928 119.952C172.928 118.987 172.731 118.235 172.336 117.696C171.941 117.157 171.344 116.888 170.544 116.888C170.139 116.888 169.784 116.957 169.48 117.096C169.181 117.235 168.931 117.435 168.728 117.696C168.531 117.957 168.381 118.28 168.28 118.664C168.184 119.043 168.136 119.472 168.136 119.952C168.136 120.912 168.333 121.661 168.728 122.2C169.128 122.733 169.733 123 170.544 123ZM177.55 117.072C177.726 116.875 177.913 116.696 178.11 116.536C178.307 116.376 178.515 116.24 178.734 116.128C178.958 116.011 179.193 115.923 179.438 115.864C179.689 115.8 179.958 115.768 180.246 115.768C180.689 115.768 181.078 115.843 181.414 115.992C181.755 116.136 182.038 116.344 182.262 116.616C182.491 116.883 182.665 117.205 182.782 117.584C182.899 117.963 182.958 118.381 182.958 118.84V124H181.526V118.84C181.526 118.227 181.385 117.752 181.102 117.416C180.825 117.075 180.401 116.904 179.83 116.904C179.409 116.904 179.014 117.005 178.646 117.208C178.283 117.411 177.947 117.685 177.638 118.032V124H176.206V115.896H177.062C177.265 115.896 177.39 115.995 177.438 116.192L177.55 117.072ZM189.848 117.232C189.784 117.349 189.685 117.408 189.552 117.408C189.472 117.408 189.381 117.379 189.28 117.32C189.179 117.261 189.053 117.197 188.904 117.128C188.76 117.053 188.587 116.987 188.384 116.928C188.181 116.864 187.941 116.832 187.664 116.832C187.424 116.832 187.208 116.864 187.016 116.928C186.824 116.987 186.659 117.069 186.52 117.176C186.387 117.283 186.283 117.408 186.208 117.552C186.139 117.691 186.104 117.843 186.104 118.008C186.104 118.216 186.163 118.389 186.28 118.528C186.403 118.667 186.563 118.787 186.76 118.888C186.957 118.989 187.181 119.08 187.432 119.16C187.683 119.235 187.939 119.317 188.2 119.408C188.467 119.493 188.725 119.589 188.976 119.696C189.227 119.803 189.451 119.936 189.648 120.096C189.845 120.256 190.003 120.453 190.12 120.688C190.243 120.917 190.304 121.195 190.304 121.52C190.304 121.893 190.237 122.24 190.104 122.56C189.971 122.875 189.773 123.149 189.512 123.384C189.251 123.613 188.931 123.795 188.552 123.928C188.173 124.061 187.736 124.128 187.24 124.128C186.675 124.128 186.163 124.037 185.704 123.856C185.245 123.669 184.856 123.432 184.536 123.144L184.872 122.6C184.915 122.531 184.965 122.477 185.024 122.44C185.083 122.403 185.157 122.384 185.248 122.384C185.344 122.384 185.445 122.421 185.552 122.496C185.659 122.571 185.787 122.653 185.936 122.744C186.091 122.835 186.277 122.917 186.496 122.992C186.715 123.067 186.987 123.104 187.312 123.104C187.589 123.104 187.832 123.069 188.04 123C188.248 122.925 188.421 122.827 188.56 122.704C188.699 122.581 188.8 122.44 188.864 122.28C188.933 122.12 188.968 121.949 188.968 121.768C188.968 121.544 188.907 121.36 188.784 121.216C188.667 121.067 188.509 120.941 188.312 120.84C188.115 120.733 187.888 120.643 187.632 120.568C187.381 120.488 187.123 120.405 186.856 120.32C186.595 120.235 186.336 120.139 186.08 120.032C185.829 119.92 185.605 119.781 185.408 119.616C185.211 119.451 185.051 119.248 184.928 119.008C184.811 118.763 184.752 118.467 184.752 118.12C184.752 117.811 184.816 117.515 184.944 117.232C185.072 116.944 185.259 116.693 185.504 116.48C185.749 116.261 186.051 116.088 186.408 115.96C186.765 115.832 187.173 115.768 187.632 115.768C188.165 115.768 188.643 115.853 189.064 116.024C189.491 116.189 189.859 116.419 190.168 116.712L189.848 117.232Z" fill="#4F4F4F"/>
</svg>
