<svg width="255" height="137" viewBox="0 0 255 137" fill="none" xmlns="http://www.w3.org/2000/svg">
<circle cx="20" cy="20" r="19.5" transform="rotate(90 20 20)" fill="#275B81" stroke="white"/>
<path d="M20 28H30" stroke="white" stroke-linecap="round" stroke-linejoin="round"/>
<path d="M24.9813 9.6895C25.4228 9.24802 26.0216 9 26.6459 9C26.9551 9 27.2612 9.06089 27.5468 9.17919C27.8324 9.2975 28.0919 9.4709 28.3105 9.6895C28.5291 9.90809 28.7025 10.1676 28.8208 10.4532C28.9391 10.7388 29 11.0449 29 11.3541C29 11.6632 28.9391 11.9693 28.8208 12.255C28.7025 12.5406 28.5291 12.8001 28.3105 13.0187L14.4389 26.8903L10 28L11.1097 23.5611L24.9813 9.6895Z" stroke="white" stroke-linecap="round" stroke-linejoin="round"/>
<path d="M72.088 24.944C71.656 25.44 71.192 25.792 70.696 26C70.2 26.224 69.6 26.336 68.896 26.336C67.968 26.336 67.232 26.144 66.688 25.76C66.16 25.36 65.816 24.688 65.656 23.744L65.224 21.344C65.016 20.176 64.76 19.32 64.456 18.776C64.168 18.216 63.68 17.936 62.992 17.936H61.432V23.456C61.432 24.064 61.472 24.504 61.552 24.776C61.648 25.048 61.816 25.232 62.056 25.328C62.296 25.424 62.688 25.488 63.232 25.52V26C62.368 25.952 61.16 25.928 59.608 25.928C57.896 25.928 56.632 25.952 55.816 26V25.52C56.344 25.488 56.728 25.424 56.968 25.328C57.224 25.232 57.392 25.048 57.472 24.776C57.568 24.504 57.616 24.064 57.616 23.456V11.552C57.616 10.944 57.568 10.504 57.472 10.232C57.392 9.96 57.224 9.776 56.968 9.68C56.728 9.584 56.344 9.52 55.816 9.488V9.008C56.632 9.056 57.848 9.08 59.464 9.08L62.128 9.056C62.448 9.04 62.816 9.032 63.232 9.032C65.44 9.032 67.096 9.392 68.2 10.112C69.32 10.832 69.88 11.864 69.88 13.208C69.88 14.344 69.464 15.344 68.632 16.208C67.8 17.072 66.424 17.616 64.504 17.84C65.944 17.968 67.016 18.28 67.72 18.776C68.424 19.272 68.88 20.016 69.088 21.008L69.64 23.48C69.768 24.12 69.912 24.568 70.072 24.824C70.248 25.08 70.488 25.208 70.792 25.208C70.984 25.192 71.144 25.144 71.272 25.064C71.416 24.984 71.576 24.848 71.752 24.656L72.088 24.944ZM62.92 9.488C62.488 9.488 62.168 9.544 61.96 9.656C61.768 9.768 61.632 9.968 61.552 10.256C61.472 10.544 61.432 10.976 61.432 11.552V17.456H62.464C63.776 17.456 64.672 17.112 65.152 16.424C65.648 15.72 65.896 14.736 65.896 13.472C65.896 12.16 65.664 11.168 65.2 10.496C64.736 9.824 63.976 9.488 62.92 9.488ZM79.2492 24.368C80.5612 24.368 81.6172 23.728 82.4172 22.448L82.8492 22.592C82.5292 23.632 81.9532 24.52 81.1212 25.256C80.3052 25.976 79.2812 26.336 78.0492 26.336C76.3532 26.336 75.0012 25.8 73.9932 24.728C73.0012 23.64 72.5052 22.04 72.5052 19.928C72.5052 17.768 73.0412 16.12 74.1132 14.984C75.1852 13.832 76.6092 13.256 78.3852 13.256C81.3932 13.256 82.8972 15.032 82.8972 18.584H76.1532C76.1372 18.824 76.1292 19.2 76.1292 19.712C76.1292 20.768 76.2732 21.648 76.5612 22.352C76.8652 23.056 77.2492 23.568 77.7132 23.888C78.1932 24.208 78.7052 24.368 79.2492 24.368ZM78.2412 13.76C77.6652 13.76 77.1852 14.12 76.8012 14.84C76.4332 15.544 76.2012 16.64 76.1052 18.128H79.8732C79.9052 16.864 79.7772 15.824 79.4892 15.008C79.2172 14.176 78.8012 13.76 78.2412 13.76ZM89.0389 13.256C89.6469 13.256 90.2069 13.336 90.7189 13.496C91.2309 13.64 91.6229 13.808 91.8949 14C92.0549 14.112 92.1989 14.168 92.3269 14.168C92.4709 14.168 92.5909 14.096 92.6869 13.952C92.7989 13.792 92.8709 13.568 92.9029 13.28H93.4069C93.3429 14.096 93.3109 15.504 93.3109 17.504H92.8069C92.6629 16.448 92.3429 15.568 91.8469 14.864C91.3669 14.144 90.6629 13.784 89.7349 13.784C89.2549 13.784 88.8549 13.92 88.5349 14.192C88.2309 14.464 88.0789 14.84 88.0789 15.32C88.0789 15.864 88.2629 16.336 88.6309 16.736C88.9989 17.12 89.5749 17.592 90.3589 18.152L91.0549 18.656C92.0309 19.392 92.7509 20.048 93.2149 20.624C93.6789 21.2 93.9109 21.92 93.9109 22.784C93.9109 23.488 93.7029 24.112 93.2869 24.656C92.8869 25.2 92.3429 25.616 91.6549 25.904C90.9669 26.192 90.2069 26.336 89.3749 26.336C88.4949 26.336 87.7429 26.168 87.1189 25.832C86.6069 25.576 86.2389 25.408 86.0149 25.328C85.8549 25.28 85.7109 25.336 85.5829 25.496C85.4709 25.64 85.3829 25.864 85.3189 26.168H84.8149C84.8789 25.256 84.9109 23.656 84.9109 21.368H85.4149C85.7349 24.312 86.8149 25.784 88.6549 25.784C89.1189 25.784 89.5109 25.648 89.8309 25.376C90.1669 25.088 90.3349 24.656 90.3349 24.08C90.3349 23.632 90.2309 23.232 90.0229 22.88C89.8309 22.528 89.5829 22.216 89.2789 21.944C88.9749 21.672 88.5189 21.296 87.9109 20.816C87.1909 20.24 86.6389 19.776 86.2549 19.424C85.8869 19.072 85.5669 18.656 85.2949 18.176C85.0389 17.696 84.9109 17.16 84.9109 16.568C84.9109 15.544 85.3109 14.736 86.1109 14.144C86.9109 13.552 87.8869 13.256 89.0389 13.256ZM102.429 24.368C103.741 24.368 104.797 23.728 105.597 22.448L106.029 22.592C105.709 23.632 105.133 24.52 104.301 25.256C103.485 25.976 102.461 26.336 101.229 26.336C99.5329 26.336 98.1809 25.8 97.1729 24.728C96.1809 23.64 95.6849 22.04 95.6849 19.928C95.6849 17.768 96.2209 16.12 97.2929 14.984C98.3649 13.832 99.7889 13.256 101.565 13.256C104.573 13.256 106.077 15.032 106.077 18.584H99.3329C99.3169 18.824 99.3089 19.2 99.3089 19.712C99.3089 20.768 99.4529 21.648 99.7409 22.352C100.045 23.056 100.429 23.568 100.893 23.888C101.373 24.208 101.885 24.368 102.429 24.368ZM101.421 13.76C100.845 13.76 100.365 14.12 99.9809 14.84C99.6129 15.544 99.3809 16.64 99.2849 18.128H103.053C103.085 16.864 102.957 15.824 102.669 15.008C102.397 14.176 101.981 13.76 101.421 13.76ZM110.635 26.168C109.611 26.168 108.843 25.904 108.331 25.376C107.835 24.848 107.587 24.152 107.587 23.288C107.587 22.568 107.771 21.976 108.139 21.512C108.523 21.032 108.979 20.664 109.507 20.408C110.051 20.152 110.739 19.88 111.571 19.592C112.451 19.288 113.091 19.016 113.491 18.776C113.907 18.52 114.115 18.176 114.115 17.744V15.872C114.115 15.2 113.955 14.68 113.635 14.312C113.331 13.928 112.851 13.736 112.195 13.736C111.427 13.736 110.843 13.928 110.443 14.312C110.891 14.472 111.235 14.712 111.475 15.032C111.731 15.352 111.859 15.728 111.859 16.16C111.859 16.704 111.675 17.136 111.307 17.456C110.939 17.776 110.491 17.936 109.963 17.936C109.403 17.936 108.971 17.76 108.667 17.408C108.363 17.056 108.211 16.616 108.211 16.088C108.211 15.64 108.315 15.264 108.523 14.96C108.747 14.64 109.083 14.344 109.531 14.072C109.963 13.816 110.491 13.616 111.115 13.472C111.755 13.328 112.451 13.256 113.203 13.256C113.987 13.256 114.667 13.336 115.243 13.496C115.819 13.656 116.299 13.928 116.683 14.312C117.035 14.664 117.267 15.096 117.379 15.608C117.507 16.12 117.571 16.816 117.571 17.696V24.224C117.571 24.608 117.603 24.88 117.667 25.04C117.747 25.2 117.891 25.28 118.099 25.28C118.339 25.28 118.627 25.144 118.963 24.872L119.203 25.28C118.483 25.872 117.603 26.168 116.563 26.168C115.683 26.168 115.067 25.992 114.715 25.64C114.363 25.288 114.179 24.816 114.163 24.224C113.363 25.52 112.187 26.168 110.635 26.168ZM112.483 24.632C113.107 24.632 113.651 24.304 114.115 23.648V18.728C113.923 19.048 113.515 19.4 112.891 19.784C112.267 20.184 111.795 20.584 111.475 20.984C111.155 21.384 110.995 21.96 110.995 22.712C110.995 23.368 111.131 23.856 111.403 24.176C111.675 24.48 112.035 24.632 112.483 24.632ZM128.145 13.256C128.865 13.256 129.409 13.472 129.777 13.904C130.145 14.336 130.329 14.856 130.329 15.464C130.329 16.056 130.153 16.544 129.801 16.928C129.465 17.296 129.017 17.48 128.457 17.48C127.913 17.48 127.481 17.344 127.161 17.072C126.841 16.784 126.681 16.408 126.681 15.944C126.681 15.176 127.033 14.552 127.737 14.072C127.673 14.056 127.577 14.048 127.449 14.048C127.289 14.048 127.161 14.064 127.065 14.096C126.457 14.192 125.937 14.56 125.505 15.2C125.089 15.84 124.881 16.496 124.881 17.168V23.528C124.881 24.264 125.057 24.776 125.409 25.064C125.777 25.352 126.353 25.496 127.137 25.496V26C126.913 26 126.729 25.992 126.585 25.976C124.953 25.928 123.865 25.904 123.321 25.904C122.889 25.904 121.905 25.928 120.369 25.976C120.241 25.992 120.081 26 119.889 26V25.496C120.465 25.496 120.865 25.376 121.089 25.136C121.313 24.88 121.425 24.424 121.425 23.768V16.208C121.425 15.472 121.313 14.936 121.089 14.6C120.865 14.264 120.465 14.096 119.889 14.096V13.592C120.401 13.64 120.897 13.664 121.377 13.664C122.801 13.664 123.969 13.552 124.881 13.328V15.56C125.185 14.872 125.625 14.32 126.201 13.904C126.777 13.472 127.425 13.256 128.145 13.256ZM137.004 13.256C137.596 13.256 138.156 13.32 138.684 13.448C139.212 13.576 139.652 13.752 140.004 13.976C140.42 14.232 140.74 14.56 140.964 14.96C141.204 15.344 141.324 15.768 141.324 16.232C141.324 16.792 141.148 17.256 140.796 17.624C140.444 17.976 139.988 18.152 139.428 18.152C138.868 18.152 138.42 17.992 138.084 17.672C137.748 17.352 137.58 16.92 137.58 16.376C137.58 15.896 137.732 15.48 138.036 15.128C138.34 14.776 138.716 14.536 139.164 14.408C139.036 14.232 138.836 14.096 138.564 14C138.308 13.888 138.028 13.832 137.724 13.832C136.764 13.832 136.012 14.36 135.468 15.416C134.94 16.456 134.676 17.824 134.676 19.52C134.676 21.232 134.98 22.464 135.588 23.216C136.196 23.968 136.956 24.344 137.868 24.344C138.412 24.344 138.956 24.2 139.5 23.912C140.06 23.624 140.564 23.12 141.012 22.4L141.42 22.544C141.1 23.584 140.54 24.48 139.74 25.232C138.94 25.968 137.908 26.336 136.644 26.336C134.996 26.336 133.652 25.792 132.612 24.704C131.572 23.616 131.052 22 131.052 19.856C131.052 18.448 131.308 17.248 131.82 16.256C132.332 15.264 133.036 14.52 133.932 14.024C134.828 13.512 135.852 13.256 137.004 13.256ZM147.542 15.488C148.262 14 149.566 13.256 151.454 13.256C152.702 13.256 153.582 13.568 154.094 14.192C154.366 14.496 154.558 14.896 154.67 15.392C154.798 15.872 154.862 16.512 154.862 17.312V23.768C154.862 24.424 154.974 24.88 155.198 25.136C155.422 25.376 155.822 25.496 156.398 25.496V26C154.734 25.936 153.678 25.904 153.23 25.904C152.686 25.904 151.646 25.936 150.11 26V25.496C150.59 25.496 150.926 25.376 151.118 25.136C151.31 24.88 151.406 24.424 151.406 23.768V16.304C151.406 15.648 151.294 15.152 151.07 14.816C150.862 14.48 150.478 14.312 149.918 14.312C149.246 14.312 148.678 14.576 148.214 15.104C147.766 15.616 147.542 16.272 147.542 17.072V23.768C147.542 24.424 147.638 24.88 147.83 25.136C148.022 25.376 148.358 25.496 148.838 25.496V26C147.302 25.936 146.31 25.904 145.862 25.904C145.318 25.904 144.214 25.936 142.55 26V25.496C143.11 25.496 143.502 25.376 143.726 25.136C143.966 24.88 144.086 24.424 144.086 23.768V10.112C144.086 9.376 143.966 8.84 143.726 8.504C143.502 8.168 143.11 8 142.55 8V7.496C143.062 7.544 143.558 7.568 144.038 7.568C145.43 7.568 146.598 7.456 147.542 7.232V15.488Z" fill="#275B81"/>
<path d="M68.392 44.536V56H67.032V47.576C67.032 47.464 67.0347 47.344 67.04 47.216C67.0507 47.088 67.0613 46.9573 67.072 46.824L63.136 53.992C63.0133 54.232 62.8267 54.352 62.576 54.352H62.352C62.1013 54.352 61.9147 54.232 61.792 53.992L57.776 46.792C57.808 47.0747 57.824 47.336 57.824 47.576V56H56.464V44.536H57.608C57.7467 44.536 57.8533 44.5493 57.928 44.576C58.0027 44.6027 58.0747 44.6773 58.144 44.8L62.104 51.856C62.168 51.984 62.2293 52.1173 62.288 52.256C62.352 52.3947 62.4107 52.536 62.464 52.68C62.5173 52.536 62.5733 52.3947 62.632 52.256C62.6907 52.112 62.7547 51.976 62.824 51.848L66.712 44.8C66.776 44.6773 66.8453 44.6027 66.92 44.576C67 44.5493 67.1093 44.536 67.248 44.536H68.392ZM75.145 52.352C74.489 52.3733 73.929 52.4267 73.465 52.512C73.0063 52.592 72.6303 52.6987 72.337 52.832C72.049 52.9653 71.8383 53.1227 71.705 53.304C71.577 53.4853 71.513 53.688 71.513 53.912C71.513 54.1253 71.5477 54.3093 71.617 54.464C71.6863 54.6187 71.7797 54.7467 71.897 54.848C72.0197 54.944 72.161 55.016 72.321 55.064C72.4863 55.1067 72.6623 55.128 72.849 55.128C73.0997 55.128 73.329 55.104 73.537 55.056C73.745 55.0027 73.9397 54.928 74.121 54.832C74.3077 54.736 74.4837 54.6213 74.649 54.488C74.8197 54.3547 74.985 54.2027 75.145 54.032V52.352ZM70.545 49.04C70.993 48.608 71.4757 48.2853 71.993 48.072C72.5103 47.8587 73.0837 47.752 73.713 47.752C74.1663 47.752 74.569 47.8267 74.921 47.976C75.273 48.1253 75.569 48.3333 75.809 48.6C76.049 48.8667 76.2303 49.1893 76.353 49.568C76.4757 49.9467 76.537 50.3627 76.537 50.816V56H75.905C75.7663 56 75.6597 55.9787 75.585 55.936C75.5103 55.888 75.4517 55.7973 75.409 55.664L75.249 54.896C75.0357 55.0933 74.8277 55.2693 74.625 55.424C74.4223 55.5733 74.209 55.7013 73.985 55.808C73.761 55.9093 73.521 55.9867 73.265 56.04C73.0143 56.0987 72.7343 56.128 72.425 56.128C72.1103 56.128 71.8143 56.0853 71.537 56C71.2597 55.9093 71.017 55.776 70.809 55.6C70.6063 55.424 70.4437 55.2027 70.321 54.936C70.2037 54.664 70.145 54.344 70.145 53.976C70.145 53.656 70.233 53.3493 70.409 53.056C70.585 52.7573 70.8703 52.4933 71.265 52.264C71.6597 52.0347 72.1743 51.848 72.809 51.704C73.4437 51.5547 74.2223 51.4693 75.145 51.448V50.816C75.145 50.1867 75.009 49.712 74.737 49.392C74.465 49.0667 74.0677 48.904 73.545 48.904C73.193 48.904 72.897 48.9493 72.657 49.04C72.4223 49.1253 72.217 49.224 72.041 49.336C71.8703 49.4427 71.721 49.5413 71.593 49.632C71.4703 49.7173 71.3477 49.76 71.225 49.76C71.129 49.76 71.0463 49.736 70.977 49.688C70.9077 49.6347 70.849 49.5707 70.801 49.496L70.545 49.04ZM80.0581 49.52C80.3141 48.9653 80.6288 48.5333 81.0021 48.224C81.3755 47.9093 81.8315 47.752 82.3701 47.752C82.5408 47.752 82.7035 47.7707 82.8581 47.808C83.0181 47.8453 83.1595 47.904 83.2821 47.984L83.1781 49.048C83.1461 49.1813 83.0661 49.248 82.9381 49.248C82.8635 49.248 82.7541 49.232 82.6101 49.2C82.4661 49.168 82.3035 49.152 82.1221 49.152C81.8661 49.152 81.6368 49.1893 81.4341 49.264C81.2368 49.3387 81.0581 49.4507 80.8981 49.6C80.7435 49.744 80.6021 49.9253 80.4741 50.144C80.3515 50.3573 80.2395 50.6027 80.1381 50.88V56H78.7061V47.896H79.5221C79.6768 47.896 79.7835 47.9253 79.8421 47.984C79.9008 48.0427 79.9408 48.144 79.9621 48.288L80.0581 49.52ZM85.9663 44.216V51.152H86.3343C86.4409 51.152 86.5289 51.1387 86.5983 51.112C86.6729 51.08 86.7503 51.0187 86.8303 50.928L89.3903 48.184C89.4649 48.0933 89.5423 48.024 89.6223 47.976C89.7076 47.9227 89.8196 47.896 89.9583 47.896H91.2463L88.2623 51.072C88.1183 51.2533 87.9636 51.3947 87.7983 51.496C87.8943 51.56 87.9796 51.6347 88.0543 51.72C88.1343 51.8 88.2089 51.8933 88.2783 52L91.4462 56H90.1743C90.0516 56 89.9449 55.9813 89.8543 55.944C89.7689 55.9013 89.6943 55.8267 89.6303 55.72L86.9663 52.4C86.8863 52.288 86.8063 52.216 86.7263 52.184C86.6516 52.1467 86.5343 52.128 86.3743 52.128H85.9663V56H84.5343V44.216H85.9663ZM97.6301 51.064C97.6301 50.7333 97.5821 50.432 97.4861 50.16C97.3955 49.8827 97.2595 49.6453 97.0781 49.448C96.9021 49.2453 96.6861 49.0907 96.4301 48.984C96.1741 48.872 95.8835 48.816 95.5581 48.816C94.8755 48.816 94.3341 49.016 93.9341 49.416C93.5395 49.8107 93.2941 50.36 93.1981 51.064H97.6301ZM98.7821 54.864C98.6061 55.0773 98.3955 55.264 98.1501 55.424C97.9048 55.5787 97.6408 55.7067 97.3581 55.808C97.0808 55.9093 96.7928 55.984 96.4941 56.032C96.1955 56.0853 95.8995 56.112 95.6061 56.112C95.0461 56.112 94.5288 56.0187 94.0541 55.832C93.5848 55.64 93.1768 55.3627 92.8301 55C92.4888 54.632 92.2221 54.1787 92.0301 53.64C91.8381 53.1013 91.7421 52.4827 91.7421 51.784C91.7421 51.2187 91.8275 50.6907 91.9981 50.2C92.1741 49.7093 92.4248 49.2853 92.7501 48.928C93.0755 48.5653 93.4728 48.2827 93.9421 48.08C94.4115 47.872 94.9395 47.768 95.5261 47.768C96.0115 47.768 96.4595 47.8507 96.8701 48.016C97.2861 48.176 97.6435 48.4107 97.9421 48.72C98.2461 49.024 98.4835 49.4027 98.6541 49.856C98.8248 50.304 98.9101 50.816 98.9101 51.392C98.9101 51.616 98.8861 51.7653 98.8381 51.84C98.7901 51.9147 98.6995 51.952 98.5661 51.952H93.1501C93.1661 52.464 93.2355 52.9093 93.3581 53.288C93.4861 53.6667 93.6621 53.984 93.8861 54.24C94.1101 54.4907 94.3768 54.68 94.6861 54.808C94.9955 54.9307 95.3421 54.992 95.7261 54.992C96.0835 54.992 96.3901 54.952 96.6461 54.872C96.9075 54.7867 97.1315 54.696 97.3181 54.6C97.5048 54.504 97.6595 54.416 97.7821 54.336C97.9101 54.2507 98.0195 54.208 98.1101 54.208C98.2275 54.208 98.3181 54.2533 98.3821 54.344L98.7821 54.864ZM103.085 56.128C102.445 56.128 101.951 55.9493 101.605 55.592C101.263 55.2347 101.093 54.72 101.093 54.048V49.088H100.117C100.031 49.088 99.9594 49.064 99.9008 49.016C99.8421 48.9627 99.8128 48.8827 99.8128 48.776V48.208L101.141 48.04L101.469 45.536C101.485 45.456 101.519 45.392 101.573 45.344C101.631 45.2907 101.706 45.264 101.797 45.264H102.517V48.056H104.861V49.088H102.517V53.952C102.517 54.2933 102.599 54.5467 102.765 54.712C102.93 54.8773 103.143 54.96 103.405 54.96C103.554 54.96 103.682 54.9413 103.789 54.904C103.901 54.8613 103.997 54.816 104.077 54.768C104.157 54.72 104.223 54.6773 104.277 54.64C104.335 54.5973 104.386 54.576 104.429 54.576C104.503 54.576 104.57 54.6213 104.629 54.712L105.045 55.392C104.799 55.6213 104.503 55.8027 104.157 55.936C103.81 56.064 103.453 56.128 103.085 56.128ZM111.777 49.52C112.033 48.9653 112.348 48.5333 112.721 48.224C113.094 47.9093 113.55 47.752 114.089 47.752C114.26 47.752 114.422 47.7707 114.577 47.808C114.737 47.8453 114.878 47.904 115.001 47.984L114.897 49.048C114.865 49.1813 114.785 49.248 114.657 49.248C114.582 49.248 114.473 49.232 114.329 49.2C114.185 49.168 114.022 49.152 113.841 49.152C113.585 49.152 113.356 49.1893 113.153 49.264C112.956 49.3387 112.777 49.4507 112.617 49.6C112.462 49.744 112.321 49.9253 112.193 50.144C112.07 50.3573 111.958 50.6027 111.857 50.88V56H110.425V47.896H111.241C111.396 47.896 111.502 47.9253 111.561 47.984C111.62 48.0427 111.66 48.144 111.681 48.288L111.777 49.52ZM121.349 51.064C121.349 50.7333 121.301 50.432 121.205 50.16C121.114 49.8827 120.978 49.6453 120.797 49.448C120.621 49.2453 120.405 49.0907 120.149 48.984C119.893 48.872 119.602 48.816 119.277 48.816C118.594 48.816 118.053 49.016 117.653 49.416C117.258 49.8107 117.013 50.36 116.917 51.064H121.349ZM122.501 54.864C122.325 55.0773 122.114 55.264 121.869 55.424C121.624 55.5787 121.36 55.7067 121.077 55.808C120.8 55.9093 120.512 55.984 120.213 56.032C119.914 56.0853 119.618 56.112 119.325 56.112C118.765 56.112 118.248 56.0187 117.773 55.832C117.304 55.64 116.896 55.3627 116.549 55C116.208 54.632 115.941 54.1787 115.749 53.64C115.557 53.1013 115.461 52.4827 115.461 51.784C115.461 51.2187 115.546 50.6907 115.717 50.2C115.893 49.7093 116.144 49.2853 116.469 48.928C116.794 48.5653 117.192 48.2827 117.661 48.08C118.13 47.872 118.658 47.768 119.245 47.768C119.73 47.768 120.178 47.8507 120.589 48.016C121.005 48.176 121.362 48.4107 121.661 48.72C121.965 49.024 122.202 49.4027 122.373 49.856C122.544 50.304 122.629 50.816 122.629 51.392C122.629 51.616 122.605 51.7653 122.557 51.84C122.509 51.9147 122.418 51.952 122.285 51.952H116.869C116.885 52.464 116.954 52.9093 117.077 53.288C117.205 53.6667 117.381 53.984 117.605 54.24C117.829 54.4907 118.096 54.68 118.405 54.808C118.714 54.9307 119.061 54.992 119.445 54.992C119.802 54.992 120.109 54.952 120.365 54.872C120.626 54.7867 120.85 54.696 121.037 54.6C121.224 54.504 121.378 54.416 121.501 54.336C121.629 54.2507 121.738 54.208 121.829 54.208C121.946 54.208 122.037 54.2533 122.101 54.344L122.501 54.864ZM129.098 49.232C129.034 49.3493 128.935 49.408 128.802 49.408C128.722 49.408 128.631 49.3787 128.53 49.32C128.429 49.2613 128.303 49.1973 128.154 49.128C128.01 49.0533 127.837 48.9867 127.634 48.928C127.431 48.864 127.191 48.832 126.914 48.832C126.674 48.832 126.458 48.864 126.266 48.928C126.074 48.9867 125.909 49.0693 125.77 49.176C125.637 49.2827 125.533 49.408 125.458 49.552C125.389 49.6907 125.354 49.8427 125.354 50.008C125.354 50.216 125.413 50.3893 125.53 50.528C125.653 50.6667 125.813 50.7867 126.01 50.888C126.207 50.9893 126.431 51.08 126.682 51.16C126.933 51.2347 127.189 51.3173 127.45 51.408C127.717 51.4933 127.975 51.5893 128.226 51.696C128.477 51.8027 128.701 51.936 128.898 52.096C129.095 52.256 129.253 52.4533 129.37 52.688C129.493 52.9173 129.554 53.1947 129.554 53.52C129.554 53.8933 129.487 54.24 129.354 54.56C129.221 54.8747 129.023 55.1493 128.762 55.384C128.501 55.6133 128.181 55.7947 127.802 55.928C127.423 56.0613 126.986 56.128 126.49 56.128C125.925 56.128 125.413 56.0373 124.954 55.856C124.495 55.6693 124.106 55.432 123.786 55.144L124.122 54.6C124.165 54.5307 124.215 54.4773 124.274 54.44C124.333 54.4027 124.407 54.384 124.498 54.384C124.594 54.384 124.695 54.4213 124.802 54.496C124.909 54.5707 125.037 54.6533 125.186 54.744C125.341 54.8347 125.527 54.9173 125.746 54.992C125.965 55.0667 126.237 55.104 126.562 55.104C126.839 55.104 127.082 55.0693 127.29 55C127.498 54.9253 127.671 54.8267 127.81 54.704C127.949 54.5813 128.05 54.44 128.114 54.28C128.183 54.12 128.218 53.9493 128.218 53.768C128.218 53.544 128.157 53.36 128.034 53.216C127.917 53.0667 127.759 52.9413 127.562 52.84C127.365 52.7333 127.138 52.6427 126.882 52.568C126.631 52.488 126.373 52.4053 126.106 52.32C125.845 52.2347 125.586 52.1387 125.33 52.032C125.079 51.92 124.855 51.7813 124.658 51.616C124.461 51.4507 124.301 51.248 124.178 51.008C124.061 50.7627 124.002 50.4667 124.002 50.12C124.002 49.8107 124.066 49.5147 124.194 49.232C124.322 48.944 124.509 48.6933 124.754 48.48C124.999 48.2613 125.301 48.088 125.658 47.96C126.015 47.832 126.423 47.768 126.882 47.768C127.415 47.768 127.893 47.8533 128.314 48.024C128.741 48.1893 129.109 48.4187 129.418 48.712L129.098 49.232ZM136.724 51.064C136.724 50.7333 136.676 50.432 136.58 50.16C136.489 49.8827 136.353 49.6453 136.172 49.448C135.996 49.2453 135.78 49.0907 135.524 48.984C135.268 48.872 134.977 48.816 134.652 48.816C133.969 48.816 133.428 49.016 133.028 49.416C132.633 49.8107 132.388 50.36 132.292 51.064H136.724ZM137.876 54.864C137.7 55.0773 137.489 55.264 137.244 55.424C136.999 55.5787 136.735 55.7067 136.452 55.808C136.175 55.9093 135.887 55.984 135.588 56.032C135.289 56.0853 134.993 56.112 134.7 56.112C134.14 56.112 133.623 56.0187 133.148 55.832C132.679 55.64 132.271 55.3627 131.924 55C131.583 54.632 131.316 54.1787 131.124 53.64C130.932 53.1013 130.836 52.4827 130.836 51.784C130.836 51.2187 130.921 50.6907 131.092 50.2C131.268 49.7093 131.519 49.2853 131.844 48.928C132.169 48.5653 132.567 48.2827 133.036 48.08C133.505 47.872 134.033 47.768 134.62 47.768C135.105 47.768 135.553 47.8507 135.964 48.016C136.38 48.176 136.737 48.4107 137.036 48.72C137.34 49.024 137.577 49.4027 137.748 49.856C137.919 50.304 138.004 50.816 138.004 51.392C138.004 51.616 137.98 51.7653 137.932 51.84C137.884 51.9147 137.793 51.952 137.66 51.952H132.244C132.26 52.464 132.329 52.9093 132.452 53.288C132.58 53.6667 132.756 53.984 132.98 54.24C133.204 54.4907 133.471 54.68 133.78 54.808C134.089 54.9307 134.436 54.992 134.82 54.992C135.177 54.992 135.484 54.952 135.74 54.872C136.001 54.7867 136.225 54.696 136.412 54.6C136.599 54.504 136.753 54.416 136.876 54.336C137.004 54.2507 137.113 54.208 137.204 54.208C137.321 54.208 137.412 54.2533 137.476 54.344L137.876 54.864ZM144.145 52.352C143.489 52.3733 142.929 52.4267 142.465 52.512C142.006 52.592 141.63 52.6987 141.337 52.832C141.049 52.9653 140.838 53.1227 140.705 53.304C140.577 53.4853 140.513 53.688 140.513 53.912C140.513 54.1253 140.548 54.3093 140.617 54.464C140.686 54.6187 140.78 54.7467 140.897 54.848C141.02 54.944 141.161 55.016 141.321 55.064C141.486 55.1067 141.662 55.128 141.849 55.128C142.1 55.128 142.329 55.104 142.537 55.056C142.745 55.0027 142.94 54.928 143.121 54.832C143.308 54.736 143.484 54.6213 143.649 54.488C143.82 54.3547 143.985 54.2027 144.145 54.032V52.352ZM139.545 49.04C139.993 48.608 140.476 48.2853 140.993 48.072C141.51 47.8587 142.084 47.752 142.713 47.752C143.166 47.752 143.569 47.8267 143.921 47.976C144.273 48.1253 144.569 48.3333 144.809 48.6C145.049 48.8667 145.23 49.1893 145.353 49.568C145.476 49.9467 145.537 50.3627 145.537 50.816V56H144.905C144.766 56 144.66 55.9787 144.585 55.936C144.51 55.888 144.452 55.7973 144.409 55.664L144.249 54.896C144.036 55.0933 143.828 55.2693 143.625 55.424C143.422 55.5733 143.209 55.7013 142.985 55.808C142.761 55.9093 142.521 55.9867 142.265 56.04C142.014 56.0987 141.734 56.128 141.425 56.128C141.11 56.128 140.814 56.0853 140.537 56C140.26 55.9093 140.017 55.776 139.809 55.6C139.606 55.424 139.444 55.2027 139.321 54.936C139.204 54.664 139.145 54.344 139.145 53.976C139.145 53.656 139.233 53.3493 139.409 53.056C139.585 52.7573 139.87 52.4933 140.265 52.264C140.66 52.0347 141.174 51.848 141.809 51.704C142.444 51.5547 143.222 51.4693 144.145 51.448V50.816C144.145 50.1867 144.009 49.712 143.737 49.392C143.465 49.0667 143.068 48.904 142.545 48.904C142.193 48.904 141.897 48.9493 141.657 49.04C141.422 49.1253 141.217 49.224 141.041 49.336C140.87 49.4427 140.721 49.5413 140.593 49.632C140.47 49.7173 140.348 49.76 140.225 49.76C140.129 49.76 140.046 49.736 139.977 49.688C139.908 49.6347 139.849 49.5707 139.801 49.496L139.545 49.04ZM149.058 49.52C149.314 48.9653 149.629 48.5333 150.002 48.224C150.375 47.9093 150.831 47.752 151.37 47.752C151.541 47.752 151.703 47.7707 151.858 47.808C152.018 47.8453 152.159 47.904 152.282 47.984L152.178 49.048C152.146 49.1813 152.066 49.248 151.938 49.248C151.863 49.248 151.754 49.232 151.61 49.2C151.466 49.168 151.303 49.152 151.122 49.152C150.866 49.152 150.637 49.1893 150.434 49.264C150.237 49.3387 150.058 49.4507 149.898 49.6C149.743 49.744 149.602 49.9253 149.474 50.144C149.351 50.3573 149.239 50.6027 149.138 50.88V56H147.706V47.896H148.522C148.677 47.896 148.783 47.9253 148.842 47.984C148.901 48.0427 148.941 48.144 148.962 48.288L149.058 49.52ZM158.846 49.336C158.803 49.3947 158.761 49.44 158.718 49.472C158.675 49.504 158.617 49.52 158.542 49.52C158.462 49.52 158.374 49.488 158.278 49.424C158.182 49.3547 158.062 49.28 157.918 49.2C157.779 49.12 157.606 49.048 157.398 48.984C157.195 48.9147 156.945 48.88 156.646 48.88C156.246 48.88 155.894 48.952 155.59 49.096C155.286 49.2347 155.03 49.4373 154.822 49.704C154.619 49.9707 154.465 50.2933 154.358 50.672C154.257 51.0507 154.206 51.4747 154.206 51.944C154.206 52.4347 154.262 52.872 154.374 53.256C154.486 53.6347 154.643 53.9547 154.846 54.216C155.054 54.472 155.302 54.6693 155.59 54.808C155.883 54.9413 156.211 55.008 156.574 55.008C156.921 55.008 157.206 54.968 157.43 54.888C157.654 54.8027 157.838 54.7093 157.982 54.608C158.131 54.5067 158.254 54.416 158.35 54.336C158.451 54.2507 158.55 54.208 158.646 54.208C158.763 54.208 158.854 54.2533 158.918 54.344L159.318 54.864C159.142 55.0827 158.942 55.2693 158.718 55.424C158.494 55.5787 158.251 55.7093 157.99 55.816C157.734 55.9173 157.465 55.992 157.182 56.04C156.899 56.088 156.611 56.112 156.318 56.112C155.811 56.112 155.339 56.0187 154.902 55.832C154.47 55.6453 154.094 55.376 153.774 55.024C153.454 54.6667 153.203 54.2293 153.022 53.712C152.841 53.1947 152.75 52.6053 152.75 51.944C152.75 51.3413 152.833 50.784 152.998 50.272C153.169 49.76 153.414 49.32 153.734 48.952C154.059 48.5787 154.457 48.288 154.926 48.08C155.401 47.872 155.945 47.768 156.558 47.768C157.129 47.768 157.63 47.8613 158.062 48.048C158.499 48.2293 158.886 48.488 159.222 48.824L158.846 49.336ZM162.279 48.976C162.625 48.608 163.009 48.3147 163.431 48.096C163.852 47.8773 164.337 47.768 164.887 47.768C165.329 47.768 165.719 47.8427 166.055 47.992C166.396 48.136 166.679 48.344 166.903 48.616C167.132 48.8827 167.305 49.2053 167.423 49.584C167.54 49.9627 167.599 50.3813 167.599 50.84V56H166.167V50.84C166.167 50.2267 166.025 49.752 165.743 49.416C165.465 49.0747 165.041 48.904 164.471 48.904C164.049 48.904 163.655 49.0053 163.287 49.208C162.924 49.4107 162.588 49.6853 162.279 50.032V56H160.847V44.216H162.279V48.976ZM60.888 79.768C61.3627 79.768 61.7867 79.688 62.16 79.528C62.5333 79.368 62.848 79.144 63.104 78.856C63.3653 78.568 63.5627 78.224 63.696 77.824C63.8347 77.424 63.904 76.984 63.904 76.504V69.536H65.448V76.504C65.448 77.1653 65.3413 77.7787 65.128 78.344C64.92 78.9093 64.6187 79.4 64.224 79.816C63.8347 80.2267 63.3573 80.5493 62.792 80.784C62.2267 81.0187 61.592 81.136 60.888 81.136C60.184 81.136 59.5493 81.0187 58.984 80.784C58.4187 80.5493 57.9387 80.2267 57.544 79.816C57.1493 79.4 56.8453 78.9093 56.632 78.344C56.424 77.7787 56.32 77.1653 56.32 76.504V69.536H57.864V76.496C57.864 76.976 57.9307 77.416 58.064 77.816C58.2027 78.216 58.4 78.56 58.656 78.848C58.9173 79.136 59.2347 79.3627 59.608 79.528C59.9867 79.688 60.4133 79.768 60.888 79.768ZM72.223 74.232C72.159 74.3493 72.0603 74.408 71.927 74.408C71.847 74.408 71.7563 74.3787 71.655 74.32C71.5537 74.2613 71.4283 74.1973 71.279 74.128C71.135 74.0533 70.9617 73.9867 70.759 73.928C70.5563 73.864 70.3163 73.832 70.039 73.832C69.799 73.832 69.583 73.864 69.391 73.928C69.199 73.9867 69.0337 74.0693 68.895 74.176C68.7617 74.2827 68.6577 74.408 68.583 74.552C68.5137 74.6907 68.479 74.8427 68.479 75.008C68.479 75.216 68.5377 75.3893 68.655 75.528C68.7777 75.6667 68.9377 75.7867 69.135 75.888C69.3323 75.9893 69.5563 76.08 69.807 76.16C70.0577 76.2347 70.3137 76.3173 70.575 76.408C70.8417 76.4933 71.1003 76.5893 71.351 76.696C71.6017 76.8027 71.8257 76.936 72.023 77.096C72.2203 77.256 72.3777 77.4533 72.495 77.688C72.6177 77.9173 72.679 78.1947 72.679 78.52C72.679 78.8933 72.6123 79.24 72.479 79.56C72.3457 79.8747 72.1483 80.1493 71.887 80.384C71.6257 80.6133 71.3057 80.7947 70.927 80.928C70.5483 81.0613 70.111 81.128 69.615 81.128C69.0497 81.128 68.5377 81.0373 68.079 80.856C67.6203 80.6693 67.231 80.432 66.911 80.144L67.247 79.6C67.2897 79.5307 67.3403 79.4773 67.399 79.44C67.4577 79.4027 67.5323 79.384 67.623 79.384C67.719 79.384 67.8203 79.4213 67.927 79.496C68.0337 79.5707 68.1617 79.6533 68.311 79.744C68.4657 79.8347 68.6523 79.9173 68.871 79.992C69.0897 80.0667 69.3617 80.104 69.687 80.104C69.9643 80.104 70.207 80.0693 70.415 80C70.623 79.9253 70.7963 79.8267 70.935 79.704C71.0737 79.5813 71.175 79.44 71.239 79.28C71.3083 79.12 71.343 78.9493 71.343 78.768C71.343 78.544 71.2817 78.36 71.159 78.216C71.0417 78.0667 70.8843 77.9413 70.687 77.84C70.4897 77.7333 70.263 77.6427 70.007 77.568C69.7563 77.488 69.4977 77.4053 69.231 77.32C68.9697 77.2347 68.711 77.1387 68.455 77.032C68.2043 76.92 67.9803 76.7813 67.783 76.616C67.5857 76.4507 67.4257 76.248 67.303 76.008C67.1857 75.7627 67.127 75.4667 67.127 75.12C67.127 74.8107 67.191 74.5147 67.319 74.232C67.447 73.944 67.6337 73.6933 67.879 73.48C68.1243 73.2613 68.4257 73.088 68.783 72.96C69.1403 72.832 69.5483 72.768 70.007 72.768C70.5403 72.768 71.0177 72.8533 71.439 73.024C71.8657 73.1893 72.2337 73.4187 72.543 73.712L72.223 74.232ZM79.8489 76.064C79.8489 75.7333 79.8009 75.432 79.7049 75.16C79.6142 74.8827 79.4782 74.6453 79.2969 74.448C79.1209 74.2453 78.9049 74.0907 78.6489 73.984C78.3929 73.872 78.1022 73.816 77.7769 73.816C77.0942 73.816 76.5529 74.016 76.1529 74.416C75.7582 74.8107 75.5129 75.36 75.4169 76.064H79.8489ZM81.0009 79.864C80.8249 80.0773 80.6142 80.264 80.3689 80.424C80.1235 80.5787 79.8595 80.7067 79.5769 80.808C79.2995 80.9093 79.0115 80.984 78.7129 81.032C78.4142 81.0853 78.1182 81.112 77.8249 81.112C77.2649 81.112 76.7475 81.0187 76.2729 80.832C75.8035 80.64 75.3955 80.3627 75.0489 80C74.7075 79.632 74.4409 79.1787 74.2489 78.64C74.0569 78.1013 73.9609 77.4827 73.9609 76.784C73.9609 76.2187 74.0462 75.6907 74.2169 75.2C74.3929 74.7093 74.6435 74.2853 74.9689 73.928C75.2942 73.5653 75.6915 73.2827 76.1609 73.08C76.6302 72.872 77.1582 72.768 77.7449 72.768C78.2302 72.768 78.6782 72.8507 79.0889 73.016C79.5049 73.176 79.8622 73.4107 80.1609 73.72C80.4649 74.024 80.7022 74.4027 80.8729 74.856C81.0435 75.304 81.1289 75.816 81.1289 76.392C81.1289 76.616 81.1049 76.7653 81.0569 76.84C81.0089 76.9147 80.9182 76.952 80.7849 76.952H75.3689C75.3849 77.464 75.4542 77.9093 75.5769 78.288C75.7049 78.6667 75.8809 78.984 76.1049 79.24C76.3289 79.4907 76.5955 79.68 76.9049 79.808C77.2142 79.9307 77.5609 79.992 77.9449 79.992C78.3022 79.992 78.6089 79.952 78.8649 79.872C79.1262 79.7867 79.3502 79.696 79.5369 79.6C79.7235 79.504 79.8782 79.416 80.0009 79.336C80.1289 79.2507 80.2382 79.208 80.3289 79.208C80.4462 79.208 80.5369 79.2533 80.6009 79.344L81.0009 79.864ZM84.23 74.52C84.486 73.9653 84.8007 73.5333 85.174 73.224C85.5473 72.9093 86.0033 72.752 86.542 72.752C86.7127 72.752 86.8753 72.7707 87.03 72.808C87.19 72.8453 87.3313 72.904 87.454 72.984L87.35 74.048C87.318 74.1813 87.238 74.248 87.11 74.248C87.0353 74.248 86.926 74.232 86.782 74.2C86.638 74.168 86.4753 74.152 86.294 74.152C86.038 74.152 85.8087 74.1893 85.606 74.264C85.4087 74.3387 85.23 74.4507 85.07 74.6C84.9153 74.744 84.774 74.9253 84.646 75.144C84.5233 75.3573 84.4113 75.6027 84.31 75.88V81H82.878V72.896H83.694C83.8487 72.896 83.9553 72.9253 84.014 72.984C84.0727 73.0427 84.1127 73.144 84.134 73.288L84.23 74.52ZM93.9601 72.896V81H92.5361V72.896H93.9601ZM94.2641 70.352C94.2641 70.4907 94.2348 70.6213 94.1761 70.744C94.1228 70.8613 94.0481 70.968 93.9521 71.064C93.8615 71.1547 93.7521 71.2267 93.6241 71.28C93.5015 71.3333 93.3708 71.36 93.2321 71.36C93.0935 71.36 92.9628 71.3333 92.8401 71.28C92.7228 71.2267 92.6188 71.1547 92.5281 71.064C92.4375 70.968 92.3655 70.8613 92.3121 70.744C92.2588 70.6213 92.2321 70.4907 92.2321 70.352C92.2321 70.2133 92.2588 70.0827 92.3121 69.96C92.3655 69.832 92.4375 69.7227 92.5281 69.632C92.6188 69.536 92.7228 69.4613 92.8401 69.408C92.9628 69.3547 93.0935 69.328 93.2321 69.328C93.3708 69.328 93.5015 69.3547 93.6241 69.408C93.7521 69.4613 93.8615 69.536 93.9521 69.632C94.0481 69.7227 94.1228 69.832 94.1761 69.96C94.2348 70.0827 94.2641 70.2133 94.2641 70.352ZM97.6439 74.072C97.8199 73.8747 98.0065 73.696 98.2039 73.536C98.4012 73.376 98.6092 73.24 98.8279 73.128C99.0519 73.0107 99.2865 72.9227 99.5319 72.864C99.7825 72.8 100.052 72.768 100.34 72.768C100.783 72.768 101.172 72.8427 101.508 72.992C101.849 73.136 102.132 73.344 102.356 73.616C102.585 73.8827 102.759 74.2053 102.876 74.584C102.993 74.9627 103.052 75.3813 103.052 75.84V81H101.62V75.84C101.62 75.2267 101.479 74.752 101.196 74.416C100.919 74.0747 100.495 73.904 99.9239 73.904C99.5025 73.904 99.1079 74.0053 98.7399 74.208C98.3772 74.4107 98.0412 74.6853 97.7319 75.032V81H96.2999V72.896H97.1559C97.3585 72.896 97.4839 72.9947 97.5319 73.192L97.6439 74.072ZM107.6 81.128C106.96 81.128 106.467 80.9493 106.12 80.592C105.779 80.2347 105.608 79.72 105.608 79.048V74.088H104.632C104.547 74.088 104.475 74.064 104.416 74.016C104.358 73.9627 104.328 73.8827 104.328 73.776V73.208L105.656 73.04L105.984 70.536C106 70.456 106.035 70.392 106.088 70.344C106.147 70.2907 106.222 70.264 106.312 70.264H107.032V73.056H109.376V74.088H107.032V78.952C107.032 79.2933 107.115 79.5467 107.28 79.712C107.446 79.8773 107.659 79.96 107.92 79.96C108.07 79.96 108.198 79.9413 108.304 79.904C108.416 79.8613 108.512 79.816 108.592 79.768C108.672 79.72 108.739 79.6773 108.792 79.64C108.851 79.5973 108.902 79.576 108.944 79.576C109.019 79.576 109.086 79.6213 109.144 79.712L109.56 80.392C109.315 80.6213 109.019 80.8027 108.672 80.936C108.326 81.064 107.968 81.128 107.6 81.128ZM116.224 76.064C116.224 75.7333 116.176 75.432 116.08 75.16C115.989 74.8827 115.853 74.6453 115.672 74.448C115.496 74.2453 115.28 74.0907 115.024 73.984C114.768 73.872 114.477 73.816 114.152 73.816C113.469 73.816 112.928 74.016 112.528 74.416C112.133 74.8107 111.888 75.36 111.792 76.064H116.224ZM117.376 79.864C117.2 80.0773 116.989 80.264 116.744 80.424C116.499 80.5787 116.235 80.7067 115.952 80.808C115.675 80.9093 115.387 80.984 115.088 81.032C114.789 81.0853 114.493 81.112 114.2 81.112C113.64 81.112 113.123 81.0187 112.648 80.832C112.179 80.64 111.771 80.3627 111.424 80C111.083 79.632 110.816 79.1787 110.624 78.64C110.432 78.1013 110.336 77.4827 110.336 76.784C110.336 76.2187 110.421 75.6907 110.592 75.2C110.768 74.7093 111.019 74.2853 111.344 73.928C111.669 73.5653 112.067 73.2827 112.536 73.08C113.005 72.872 113.533 72.768 114.12 72.768C114.605 72.768 115.053 72.8507 115.464 73.016C115.88 73.176 116.237 73.4107 116.536 73.72C116.84 74.024 117.077 74.4027 117.248 74.856C117.419 75.304 117.504 75.816 117.504 76.392C117.504 76.616 117.48 76.7653 117.432 76.84C117.384 76.9147 117.293 76.952 117.16 76.952H111.744C111.76 77.464 111.829 77.9093 111.952 78.288C112.08 78.6667 112.256 78.984 112.48 79.24C112.704 79.4907 112.971 79.68 113.28 79.808C113.589 79.9307 113.936 79.992 114.32 79.992C114.677 79.992 114.984 79.952 115.24 79.872C115.501 79.7867 115.725 79.696 115.912 79.6C116.099 79.504 116.253 79.416 116.376 79.336C116.504 79.2507 116.613 79.208 116.704 79.208C116.821 79.208 116.912 79.2533 116.976 79.344L117.376 79.864ZM120.605 74.52C120.861 73.9653 121.176 73.5333 121.549 73.224C121.922 72.9093 122.378 72.752 122.917 72.752C123.088 72.752 123.25 72.7707 123.405 72.808C123.565 72.8453 123.706 72.904 123.829 72.984L123.725 74.048C123.693 74.1813 123.613 74.248 123.485 74.248C123.41 74.248 123.301 74.232 123.157 74.2C123.013 74.168 122.85 74.152 122.669 74.152C122.413 74.152 122.184 74.1893 121.981 74.264C121.784 74.3387 121.605 74.4507 121.445 74.6C121.29 74.744 121.149 74.9253 121.021 75.144C120.898 75.3573 120.786 75.6027 120.685 75.88V81H119.253V72.896H120.069C120.224 72.896 120.33 72.9253 120.389 72.984C120.448 73.0427 120.488 73.144 120.509 73.288L120.605 74.52ZM132.025 72.896L128.721 81H127.441L124.137 72.896H125.297C125.414 72.896 125.51 72.9253 125.585 72.984C125.66 73.0427 125.71 73.112 125.737 73.192L127.793 78.408C127.857 78.6053 127.913 78.7973 127.961 78.984C128.009 79.1707 128.054 79.3573 128.097 79.544C128.14 79.3573 128.185 79.1707 128.233 78.984C128.281 78.7973 128.34 78.6053 128.409 78.408L130.489 73.192C130.521 73.1067 130.574 73.0373 130.649 72.984C130.724 72.9253 130.812 72.896 130.913 72.896H132.025ZM134.835 72.896V81H133.411V72.896H134.835ZM135.139 70.352C135.139 70.4907 135.11 70.6213 135.051 70.744C134.998 70.8613 134.923 70.968 134.827 71.064C134.736 71.1547 134.627 71.2267 134.499 71.28C134.376 71.3333 134.246 71.36 134.107 71.36C133.968 71.36 133.838 71.3333 133.715 71.28C133.598 71.2267 133.494 71.1547 133.403 71.064C133.312 70.968 133.24 70.8613 133.187 70.744C133.134 70.6213 133.107 70.4907 133.107 70.352C133.107 70.2133 133.134 70.0827 133.187 69.96C133.24 69.832 133.312 69.7227 133.403 69.632C133.494 69.536 133.598 69.4613 133.715 69.408C133.838 69.3547 133.968 69.328 134.107 69.328C134.246 69.328 134.376 69.3547 134.499 69.408C134.627 69.4613 134.736 69.536 134.827 69.632C134.923 69.7227 134.998 69.832 135.051 69.96C135.11 70.0827 135.139 70.2133 135.139 70.352ZM142.599 76.064C142.599 75.7333 142.551 75.432 142.455 75.16C142.364 74.8827 142.228 74.6453 142.047 74.448C141.871 74.2453 141.655 74.0907 141.399 73.984C141.143 73.872 140.852 73.816 140.527 73.816C139.844 73.816 139.303 74.016 138.903 74.416C138.508 74.8107 138.263 75.36 138.167 76.064H142.599ZM143.751 79.864C143.575 80.0773 143.364 80.264 143.119 80.424C142.874 80.5787 142.61 80.7067 142.327 80.808C142.05 80.9093 141.762 80.984 141.463 81.032C141.164 81.0853 140.868 81.112 140.575 81.112C140.015 81.112 139.498 81.0187 139.023 80.832C138.554 80.64 138.146 80.3627 137.799 80C137.458 79.632 137.191 79.1787 136.999 78.64C136.807 78.1013 136.711 77.4827 136.711 76.784C136.711 76.2187 136.796 75.6907 136.967 75.2C137.143 74.7093 137.394 74.2853 137.719 73.928C138.044 73.5653 138.442 73.2827 138.911 73.08C139.38 72.872 139.908 72.768 140.495 72.768C140.98 72.768 141.428 72.8507 141.839 73.016C142.255 73.176 142.612 73.4107 142.911 73.72C143.215 74.024 143.452 74.4027 143.623 74.856C143.794 75.304 143.879 75.816 143.879 76.392C143.879 76.616 143.855 76.7653 143.807 76.84C143.759 76.9147 143.668 76.952 143.535 76.952H138.119C138.135 77.464 138.204 77.9093 138.327 78.288C138.455 78.6667 138.631 78.984 138.855 79.24C139.079 79.4907 139.346 79.68 139.655 79.808C139.964 79.9307 140.311 79.992 140.695 79.992C141.052 79.992 141.359 79.952 141.615 79.872C141.876 79.7867 142.1 79.696 142.287 79.6C142.474 79.504 142.628 79.416 142.751 79.336C142.879 79.2507 142.988 79.208 143.079 79.208C143.196 79.208 143.287 79.2533 143.351 79.344L143.751 79.864ZM156.726 72.896L154.102 81H152.974C152.835 81 152.739 80.9093 152.686 80.728L150.894 75.232C150.851 75.1093 150.817 74.9867 150.79 74.864C150.763 74.736 150.737 74.6107 150.71 74.488C150.683 74.6107 150.657 74.736 150.63 74.864C150.603 74.9867 150.569 75.112 150.526 75.24L148.702 80.728C148.654 80.9093 148.547 81 148.382 81H147.31L144.686 72.896H145.806C145.918 72.896 146.011 72.9253 146.086 72.984C146.166 73.0427 146.219 73.112 146.246 73.192L147.798 78.408C147.889 78.792 147.961 79.1547 148.014 79.496C148.062 79.32 148.11 79.1413 148.158 78.96C148.211 78.7787 148.267 78.5947 148.326 78.408L150.038 73.16C150.065 73.08 150.11 73.0133 150.174 72.96C150.243 72.9067 150.326 72.88 150.422 72.88H151.046C151.153 72.88 151.241 72.9067 151.31 72.96C151.379 73.0133 151.427 73.08 151.454 73.16L153.126 78.408C153.185 78.5947 153.238 78.7787 153.286 78.96C153.334 79.1413 153.379 79.32 153.422 79.496C153.449 79.32 153.481 79.144 153.518 78.968C153.561 78.7867 153.606 78.6 153.654 78.408L155.238 73.192C155.265 73.1067 155.315 73.0373 155.39 72.984C155.465 72.9253 155.553 72.896 155.654 72.896H156.726ZM162.77 74.232C162.706 74.3493 162.607 74.408 162.474 74.408C162.394 74.408 162.303 74.3787 162.202 74.32C162.101 74.2613 161.975 74.1973 161.826 74.128C161.682 74.0533 161.509 73.9867 161.306 73.928C161.103 73.864 160.863 73.832 160.586 73.832C160.346 73.832 160.13 73.864 159.938 73.928C159.746 73.9867 159.581 74.0693 159.442 74.176C159.309 74.2827 159.205 74.408 159.13 74.552C159.061 74.6907 159.026 74.8427 159.026 75.008C159.026 75.216 159.085 75.3893 159.202 75.528C159.325 75.6667 159.485 75.7867 159.682 75.888C159.879 75.9893 160.103 76.08 160.354 76.16C160.605 76.2347 160.861 76.3173 161.122 76.408C161.389 76.4933 161.647 76.5893 161.898 76.696C162.149 76.8027 162.373 76.936 162.57 77.096C162.767 77.256 162.925 77.4533 163.042 77.688C163.165 77.9173 163.226 78.1947 163.226 78.52C163.226 78.8933 163.159 79.24 163.026 79.56C162.893 79.8747 162.695 80.1493 162.434 80.384C162.173 80.6133 161.853 80.7947 161.474 80.928C161.095 81.0613 160.658 81.128 160.162 81.128C159.597 81.128 159.085 81.0373 158.626 80.856C158.167 80.6693 157.778 80.432 157.458 80.144L157.794 79.6C157.837 79.5307 157.887 79.4773 157.946 79.44C158.005 79.4027 158.079 79.384 158.17 79.384C158.266 79.384 158.367 79.4213 158.474 79.496C158.581 79.5707 158.709 79.6533 158.858 79.744C159.013 79.8347 159.199 79.9173 159.418 79.992C159.637 80.0667 159.909 80.104 160.234 80.104C160.511 80.104 160.754 80.0693 160.962 80C161.17 79.9253 161.343 79.8267 161.482 79.704C161.621 79.5813 161.722 79.44 161.786 79.28C161.855 79.12 161.89 78.9493 161.89 78.768C161.89 78.544 161.829 78.36 161.706 78.216C161.589 78.0667 161.431 77.9413 161.234 77.84C161.037 77.7333 160.81 77.6427 160.554 77.568C160.303 77.488 160.045 77.4053 159.778 77.32C159.517 77.2347 159.258 77.1387 159.002 77.032C158.751 76.92 158.527 76.7813 158.33 76.616C158.133 76.4507 157.973 76.248 157.85 76.008C157.733 75.7627 157.674 75.4667 157.674 75.12C157.674 74.8107 157.738 74.5147 157.866 74.232C157.994 73.944 158.181 73.6933 158.426 73.48C158.671 73.2613 158.973 73.088 159.33 72.96C159.687 72.832 160.095 72.768 160.554 72.768C161.087 72.768 161.565 72.8533 161.986 73.024C162.413 73.1893 162.781 73.4187 163.09 73.712L162.77 74.232ZM64.512 103.632C64.5973 103.632 64.672 103.667 64.736 103.736L65.352 104.4C64.8827 104.944 64.312 105.368 63.64 105.672C62.9733 105.976 62.1653 106.128 61.216 106.128C60.3947 106.128 59.648 105.987 58.976 105.704C58.304 105.416 57.7307 105.016 57.256 104.504C56.7813 103.987 56.4133 103.368 56.152 102.648C55.8907 101.928 55.76 101.136 55.76 100.272C55.76 99.408 55.896 98.616 56.168 97.896C56.44 97.176 56.8213 96.5573 57.312 96.04C57.808 95.5227 58.4 95.1227 59.088 94.84C59.776 94.552 60.536 94.408 61.368 94.408C62.184 94.408 62.904 94.5387 63.528 94.8C64.152 95.0613 64.7013 95.416 65.176 95.864L64.664 96.576C64.632 96.6293 64.5893 96.6747 64.536 96.712C64.488 96.744 64.4213 96.76 64.336 96.76C64.24 96.76 64.1227 96.7093 63.984 96.608C63.8453 96.5013 63.664 96.384 63.44 96.256C63.216 96.128 62.936 96.0133 62.6 95.912C62.264 95.8053 61.8507 95.752 61.36 95.752C60.768 95.752 60.2267 95.856 59.736 96.064C59.2453 96.2667 58.8213 96.5627 58.464 96.952C58.112 97.3413 57.8373 97.816 57.64 98.376C57.4427 98.936 57.344 99.568 57.344 100.272C57.344 100.987 57.4453 101.624 57.648 102.184C57.856 102.744 58.136 103.219 58.488 103.608C58.8453 103.992 59.264 104.285 59.744 104.488C60.2293 104.691 60.752 104.792 61.312 104.792C61.6533 104.792 61.96 104.773 62.232 104.736C62.5093 104.693 62.7627 104.629 62.992 104.544C63.2267 104.459 63.4427 104.352 63.64 104.224C63.8427 104.091 64.0427 103.933 64.24 103.752C64.3307 103.672 64.4213 103.632 64.512 103.632ZM70.0753 97.768C70.6673 97.768 71.2006 97.8667 71.6753 98.064C72.1499 98.2613 72.5553 98.5413 72.8913 98.904C73.2273 99.2667 73.4833 99.7067 73.6593 100.224C73.8406 100.736 73.9313 101.309 73.9313 101.944C73.9313 102.584 73.8406 103.16 73.6593 103.672C73.4833 104.184 73.2273 104.621 72.8913 104.984C72.5553 105.347 72.1499 105.627 71.6753 105.824C71.2006 106.016 70.6673 106.112 70.0753 106.112C69.4779 106.112 68.9393 106.016 68.4593 105.824C67.9846 105.627 67.5793 105.347 67.2433 104.984C66.9073 104.621 66.6486 104.184 66.4673 103.672C66.2913 103.16 66.2033 102.584 66.2033 101.944C66.2033 101.309 66.2913 100.736 66.4673 100.224C66.6486 99.7067 66.9073 99.2667 67.2433 98.904C67.5793 98.5413 67.9846 98.2613 68.4593 98.064C68.9393 97.8667 69.4779 97.768 70.0753 97.768ZM70.0753 105C70.8753 105 71.4726 104.733 71.8673 104.2C72.2619 103.661 72.4593 102.912 72.4593 101.952C72.4593 100.987 72.2619 100.235 71.8673 99.696C71.4726 99.1573 70.8753 98.888 70.0753 98.888C69.6699 98.888 69.3153 98.9573 69.0113 99.096C68.7126 99.2347 68.4619 99.4347 68.2593 99.696C68.0619 99.9573 67.9126 100.28 67.8113 100.664C67.7153 101.043 67.6673 101.472 67.6673 101.952C67.6673 102.912 67.8646 103.661 68.2593 104.2C68.6593 104.733 69.2646 105 70.0753 105ZM75.7374 106V97.896H76.5934C76.796 97.896 76.9214 97.9947 76.9694 98.192L77.0734 99.024C77.372 98.656 77.708 98.3547 78.0814 98.12C78.4547 97.8853 78.8867 97.768 79.3774 97.768C79.9214 97.768 80.3614 97.92 80.6974 98.224C81.0387 98.528 81.284 98.9387 81.4334 99.456C81.5507 99.1627 81.7 98.9093 81.8814 98.696C82.068 98.4827 82.276 98.3067 82.5054 98.168C82.7347 98.0293 82.9774 97.928 83.2334 97.864C83.4947 97.8 83.7587 97.768 84.0254 97.768C84.452 97.768 84.8307 97.8373 85.1614 97.976C85.4974 98.1093 85.78 98.3067 86.0094 98.568C86.244 98.8293 86.4227 99.152 86.5454 99.536C86.668 99.9147 86.7294 100.349 86.7294 100.84V106H85.2974V100.84C85.2974 100.205 85.1587 99.7253 84.8814 99.4C84.604 99.0693 84.204 98.904 83.6814 98.904C83.4467 98.904 83.2227 98.9467 83.0094 99.032C82.8014 99.112 82.6174 99.232 82.4574 99.392C82.2974 99.552 82.1694 99.7547 82.0734 100C81.9827 100.24 81.9374 100.52 81.9374 100.84V106H80.5054V100.84C80.5054 100.189 80.3747 99.704 80.1134 99.384C79.852 99.064 79.4707 98.904 78.9694 98.904C78.6174 98.904 78.292 99 77.9934 99.192C77.6947 99.3787 77.42 99.6347 77.1694 99.96V106H75.7374ZM90.3256 104.048C90.587 104.4 90.8723 104.648 91.1816 104.792C91.491 104.936 91.8376 105.008 92.2216 105.008C92.979 105.008 93.5603 104.739 93.9656 104.2C94.371 103.661 94.5736 102.893 94.5736 101.896C94.5736 101.368 94.5256 100.915 94.4296 100.536C94.339 100.157 94.2056 99.848 94.0296 99.608C93.8536 99.3627 93.6376 99.184 93.3816 99.072C93.1256 98.96 92.835 98.904 92.5096 98.904C92.0456 98.904 91.6376 99.0107 91.2856 99.224C90.939 99.4373 90.619 99.7387 90.3256 100.128V104.048ZM90.2536 99.152C90.595 98.7307 90.9896 98.392 91.4376 98.136C91.8856 97.88 92.3976 97.752 92.9736 97.752C93.443 97.752 93.867 97.8427 94.2456 98.024C94.6243 98.2 94.947 98.464 95.2136 98.816C95.4803 99.1627 95.6856 99.5947 95.8296 100.112C95.9736 100.629 96.0456 101.224 96.0456 101.896C96.0456 102.493 95.9656 103.051 95.8056 103.568C95.6456 104.08 95.4136 104.525 95.1096 104.904C94.811 105.277 94.443 105.573 94.0056 105.792C93.5736 106.005 93.0856 106.112 92.5416 106.112C92.0456 106.112 91.619 106.029 91.2616 105.864C90.9096 105.693 90.5976 105.459 90.3256 105.16V108.744H88.8936V97.896H89.7496C89.9523 97.896 90.0776 97.9947 90.1256 98.192L90.2536 99.152ZM103.286 101.064C103.286 100.733 103.238 100.432 103.142 100.16C103.052 99.8827 102.916 99.6453 102.734 99.448C102.558 99.2453 102.342 99.0907 102.086 98.984C101.83 98.872 101.54 98.816 101.214 98.816C100.532 98.816 99.9904 99.016 99.5904 99.416C99.1957 99.8107 98.9504 100.36 98.8544 101.064H103.286ZM104.438 104.864C104.262 105.077 104.052 105.264 103.806 105.424C103.561 105.579 103.297 105.707 103.014 105.808C102.737 105.909 102.449 105.984 102.15 106.032C101.852 106.085 101.556 106.112 101.262 106.112C100.702 106.112 100.185 106.019 99.7104 105.832C99.241 105.64 98.833 105.363 98.4864 105C98.145 104.632 97.8784 104.179 97.6864 103.64C97.4944 103.101 97.3984 102.483 97.3984 101.784C97.3984 101.219 97.4837 100.691 97.6544 100.2C97.8304 99.7093 98.081 99.2853 98.4064 98.928C98.7317 98.5653 99.129 98.2827 99.5984 98.08C100.068 97.872 100.596 97.768 101.182 97.768C101.668 97.768 102.116 97.8507 102.526 98.016C102.942 98.176 103.3 98.4107 103.598 98.72C103.902 99.024 104.14 99.4027 104.31 99.856C104.481 100.304 104.566 100.816 104.566 101.392C104.566 101.616 104.542 101.765 104.494 101.84C104.446 101.915 104.356 101.952 104.222 101.952H98.8064C98.8224 102.464 98.8917 102.909 99.0144 103.288C99.1424 103.667 99.3184 103.984 99.5424 104.24C99.7664 104.491 100.033 104.68 100.342 104.808C100.652 104.931 100.998 104.992 101.382 104.992C101.74 104.992 102.046 104.952 102.302 104.872C102.564 104.787 102.788 104.696 102.974 104.6C103.161 104.504 103.316 104.416 103.438 104.336C103.566 104.251 103.676 104.208 103.766 104.208C103.884 104.208 103.974 104.253 104.038 104.344L104.438 104.864ZM113.773 106H112.349V99.088H108.173V103.952C108.173 104.293 108.256 104.547 108.421 104.712C108.586 104.877 108.8 104.96 109.061 104.96C109.21 104.96 109.338 104.941 109.445 104.904C109.557 104.861 109.653 104.816 109.733 104.768C109.813 104.72 109.88 104.677 109.933 104.64C109.992 104.597 110.042 104.576 110.085 104.576C110.16 104.576 110.226 104.621 110.285 104.712L110.701 105.392C110.456 105.621 110.16 105.803 109.813 105.936C109.466 106.064 109.109 106.128 108.741 106.128C108.101 106.128 107.608 105.949 107.261 105.592C106.92 105.235 106.749 104.72 106.749 104.048V99.088H105.773C105.688 99.088 105.616 99.064 105.557 99.016C105.498 98.9627 105.469 98.8827 105.469 98.776V98.208L106.797 98.032L107.125 95.536C107.141 95.456 107.176 95.392 107.229 95.344C107.288 95.2907 107.362 95.264 107.453 95.264H108.173V98.056H113.773V106ZM114.125 95.296C114.125 95.4347 114.096 95.5653 114.037 95.688C113.984 95.8053 113.909 95.9093 113.813 96C113.722 96.0907 113.616 96.1627 113.493 96.216C113.37 96.2693 113.24 96.296 113.101 96.296C112.962 96.296 112.832 96.2693 112.709 96.216C112.592 96.1627 112.488 96.0907 112.397 96C112.306 95.9093 112.234 95.8053 112.181 95.688C112.128 95.5653 112.101 95.4347 112.101 95.296C112.101 95.1573 112.128 95.0267 112.181 94.904C112.234 94.776 112.306 94.6667 112.397 94.576C112.488 94.48 112.592 94.4053 112.709 94.352C112.832 94.2987 112.962 94.272 113.101 94.272C113.24 94.272 113.37 94.2987 113.493 94.352C113.616 94.4053 113.722 94.48 113.813 94.576C113.909 94.6667 113.984 94.776 114.037 94.904C114.096 95.0267 114.125 95.1573 114.125 95.296ZM118.6 106.128C117.96 106.128 117.467 105.949 117.12 105.592C116.779 105.235 116.608 104.72 116.608 104.048V99.088H115.632C115.547 99.088 115.475 99.064 115.416 99.016C115.358 98.9627 115.328 98.8827 115.328 98.776V98.208L116.656 98.04L116.984 95.536C117 95.456 117.035 95.392 117.088 95.344C117.147 95.2907 117.222 95.264 117.312 95.264H118.032V98.056H120.376V99.088H118.032V103.952C118.032 104.293 118.115 104.547 118.28 104.712C118.446 104.877 118.659 104.96 118.92 104.96C119.07 104.96 119.198 104.941 119.304 104.904C119.416 104.861 119.512 104.816 119.592 104.768C119.672 104.72 119.739 104.677 119.792 104.64C119.851 104.597 119.902 104.576 119.944 104.576C120.019 104.576 120.086 104.621 120.144 104.712L120.56 105.392C120.315 105.621 120.019 105.803 119.672 105.936C119.326 106.064 118.968 106.128 118.6 106.128ZM125.216 97.768C125.808 97.768 126.341 97.8667 126.816 98.064C127.291 98.2613 127.696 98.5413 128.032 98.904C128.368 99.2667 128.624 99.7067 128.8 100.224C128.981 100.736 129.072 101.309 129.072 101.944C129.072 102.584 128.981 103.16 128.8 103.672C128.624 104.184 128.368 104.621 128.032 104.984C127.696 105.347 127.291 105.627 126.816 105.824C126.341 106.016 125.808 106.112 125.216 106.112C124.619 106.112 124.08 106.016 123.6 105.824C123.125 105.627 122.72 105.347 122.384 104.984C122.048 104.621 121.789 104.184 121.608 103.672C121.432 103.16 121.344 102.584 121.344 101.944C121.344 101.309 121.432 100.736 121.608 100.224C121.789 99.7067 122.048 99.2667 122.384 98.904C122.72 98.5413 123.125 98.2613 123.6 98.064C124.08 97.8667 124.619 97.768 125.216 97.768ZM125.216 105C126.016 105 126.613 104.733 127.008 104.2C127.403 103.661 127.6 102.912 127.6 101.952C127.6 100.987 127.403 100.235 127.008 99.696C126.613 99.1573 126.016 98.888 125.216 98.888C124.811 98.888 124.456 98.9573 124.152 99.096C123.853 99.2347 123.603 99.4347 123.4 99.696C123.203 99.9573 123.053 100.28 122.952 100.664C122.856 101.043 122.808 101.472 122.808 101.952C122.808 102.912 123.005 103.661 123.4 104.2C123.8 104.733 124.405 105 125.216 105ZM132.23 99.52C132.486 98.9653 132.801 98.5333 133.174 98.224C133.547 97.9093 134.003 97.752 134.542 97.752C134.713 97.752 134.875 97.7707 135.03 97.808C135.19 97.8453 135.331 97.904 135.454 97.984L135.35 99.048C135.318 99.1813 135.238 99.248 135.11 99.248C135.035 99.248 134.926 99.232 134.782 99.2C134.638 99.168 134.475 99.152 134.294 99.152C134.038 99.152 133.809 99.1893 133.606 99.264C133.409 99.3387 133.23 99.4507 133.07 99.6C132.915 99.744 132.774 99.9253 132.646 100.144C132.523 100.357 132.411 100.603 132.31 100.88V106H130.878V97.896H131.694C131.849 97.896 131.955 97.9253 132.014 97.984C132.073 98.0427 132.113 98.144 132.134 98.288L132.23 99.52ZM140.984 106V99.112L140.088 99.008C139.976 98.9813 139.883 98.9413 139.808 98.888C139.739 98.8293 139.704 98.7467 139.704 98.64V98.056H140.984V97.272C140.984 96.808 141.048 96.3973 141.176 96.04C141.309 95.6773 141.496 95.3733 141.736 95.128C141.981 94.8773 142.275 94.688 142.616 94.56C142.957 94.432 143.341 94.368 143.768 94.368C144.131 94.368 144.464 94.4213 144.768 94.528L144.736 95.24C144.725 95.368 144.653 95.4373 144.52 95.448C144.392 95.4587 144.219 95.464 144 95.464C143.755 95.464 143.531 95.496 143.328 95.56C143.131 95.624 142.96 95.728 142.816 95.872C142.672 96.016 142.56 96.2053 142.48 96.44C142.405 96.6747 142.368 96.9653 142.368 97.312V98.056H144.704V99.088H142.416V106H140.984ZM151.224 101.064C151.224 100.733 151.176 100.432 151.08 100.16C150.989 99.8827 150.853 99.6453 150.672 99.448C150.496 99.2453 150.28 99.0907 150.024 98.984C149.768 98.872 149.477 98.816 149.152 98.816C148.469 98.816 147.928 99.016 147.528 99.416C147.133 99.8107 146.888 100.36 146.792 101.064H151.224ZM152.376 104.864C152.2 105.077 151.989 105.264 151.744 105.424C151.499 105.579 151.235 105.707 150.952 105.808C150.675 105.909 150.387 105.984 150.088 106.032C149.789 106.085 149.493 106.112 149.2 106.112C148.64 106.112 148.123 106.019 147.648 105.832C147.179 105.64 146.771 105.363 146.424 105C146.083 104.632 145.816 104.179 145.624 103.64C145.432 103.101 145.336 102.483 145.336 101.784C145.336 101.219 145.421 100.691 145.592 100.2C145.768 99.7093 146.019 99.2853 146.344 98.928C146.669 98.5653 147.067 98.2827 147.536 98.08C148.005 97.872 148.533 97.768 149.12 97.768C149.605 97.768 150.053 97.8507 150.464 98.016C150.88 98.176 151.237 98.4107 151.536 98.72C151.84 99.024 152.077 99.4027 152.248 99.856C152.419 100.304 152.504 100.816 152.504 101.392C152.504 101.616 152.48 101.765 152.432 101.84C152.384 101.915 152.293 101.952 152.16 101.952H146.744C146.76 102.464 146.829 102.909 146.952 103.288C147.08 103.667 147.256 103.984 147.48 104.24C147.704 104.491 147.971 104.68 148.28 104.808C148.589 104.931 148.936 104.992 149.32 104.992C149.677 104.992 149.984 104.952 150.24 104.872C150.501 104.787 150.725 104.696 150.912 104.6C151.099 104.504 151.253 104.416 151.376 104.336C151.504 104.251 151.613 104.208 151.704 104.208C151.821 104.208 151.912 104.253 151.976 104.344L152.376 104.864ZM158.645 102.352C157.989 102.373 157.429 102.427 156.965 102.512C156.506 102.592 156.13 102.699 155.837 102.832C155.549 102.965 155.338 103.123 155.205 103.304C155.077 103.485 155.013 103.688 155.013 103.912C155.013 104.125 155.048 104.309 155.117 104.464C155.186 104.619 155.28 104.747 155.397 104.848C155.52 104.944 155.661 105.016 155.821 105.064C155.986 105.107 156.162 105.128 156.349 105.128C156.6 105.128 156.829 105.104 157.037 105.056C157.245 105.003 157.44 104.928 157.621 104.832C157.808 104.736 157.984 104.621 158.149 104.488C158.32 104.355 158.485 104.203 158.645 104.032V102.352ZM154.045 99.04C154.493 98.608 154.976 98.2853 155.493 98.072C156.01 97.8587 156.584 97.752 157.213 97.752C157.666 97.752 158.069 97.8267 158.421 97.976C158.773 98.1253 159.069 98.3333 159.309 98.6C159.549 98.8667 159.73 99.1893 159.853 99.568C159.976 99.9467 160.037 100.363 160.037 100.816V106H159.405C159.266 106 159.16 105.979 159.085 105.936C159.01 105.888 158.952 105.797 158.909 105.664L158.749 104.896C158.536 105.093 158.328 105.269 158.125 105.424C157.922 105.573 157.709 105.701 157.485 105.808C157.261 105.909 157.021 105.987 156.765 106.04C156.514 106.099 156.234 106.128 155.925 106.128C155.61 106.128 155.314 106.085 155.037 106C154.76 105.909 154.517 105.776 154.309 105.6C154.106 105.424 153.944 105.203 153.821 104.936C153.704 104.664 153.645 104.344 153.645 103.976C153.645 103.656 153.733 103.349 153.909 103.056C154.085 102.757 154.37 102.493 154.765 102.264C155.16 102.035 155.674 101.848 156.309 101.704C156.944 101.555 157.722 101.469 158.645 101.448V100.816C158.645 100.187 158.509 99.712 158.237 99.392C157.965 99.0667 157.568 98.904 157.045 98.904C156.693 98.904 156.397 98.9493 156.157 99.04C155.922 99.1253 155.717 99.224 155.541 99.336C155.37 99.4427 155.221 99.5413 155.093 99.632C154.97 99.7173 154.848 99.76 154.725 99.76C154.629 99.76 154.546 99.736 154.477 99.688C154.408 99.6347 154.349 99.5707 154.301 99.496L154.045 99.04ZM164.585 106.128C163.945 106.128 163.451 105.949 163.105 105.592C162.763 105.235 162.593 104.72 162.593 104.048V99.088H161.617C161.531 99.088 161.459 99.064 161.401 99.016C161.342 98.9627 161.313 98.8827 161.313 98.776V98.208L162.641 98.04L162.969 95.536C162.985 95.456 163.019 95.392 163.073 95.344C163.131 95.2907 163.206 95.264 163.297 95.264H164.017V98.056H166.361V99.088H164.017V103.952C164.017 104.293 164.099 104.547 164.265 104.712C164.43 104.877 164.643 104.96 164.905 104.96C165.054 104.96 165.182 104.941 165.289 104.904C165.401 104.861 165.497 104.816 165.577 104.768C165.657 104.72 165.723 104.677 165.777 104.64C165.835 104.597 165.886 104.576 165.929 104.576C166.003 104.576 166.07 104.621 166.129 104.712L166.545 105.392C166.299 105.621 166.003 105.803 165.657 105.936C165.31 106.064 164.953 106.128 164.585 106.128ZM174.495 97.896V106H173.647C173.444 106 173.316 105.901 173.263 105.704L173.151 104.832C172.799 105.221 172.404 105.536 171.967 105.776C171.53 106.011 171.028 106.128 170.463 106.128C170.02 106.128 169.628 106.056 169.287 105.912C168.951 105.763 168.668 105.555 168.439 105.288C168.21 105.021 168.036 104.699 167.919 104.32C167.807 103.941 167.751 103.523 167.751 103.064V97.896H169.175V103.064C169.175 103.677 169.314 104.152 169.591 104.488C169.874 104.824 170.303 104.992 170.879 104.992C171.3 104.992 171.692 104.893 172.055 104.696C172.423 104.493 172.762 104.216 173.071 103.864V97.896H174.495ZM178.105 99.52C178.361 98.9653 178.676 98.5333 179.049 98.224C179.422 97.9093 179.878 97.752 180.417 97.752C180.588 97.752 180.75 97.7707 180.905 97.808C181.065 97.8453 181.206 97.904 181.329 97.984L181.225 99.048C181.193 99.1813 181.113 99.248 180.985 99.248C180.91 99.248 180.801 99.232 180.657 99.2C180.513 99.168 180.35 99.152 180.169 99.152C179.913 99.152 179.684 99.1893 179.481 99.264C179.284 99.3387 179.105 99.4507 178.945 99.6C178.79 99.744 178.649 99.9253 178.521 100.144C178.398 100.357 178.286 100.603 178.185 100.88V106H176.753V97.896H177.569C177.724 97.896 177.83 97.9253 177.889 97.984C177.948 98.0427 177.988 98.144 178.009 98.288L178.105 99.52ZM187.677 101.064C187.677 100.733 187.629 100.432 187.533 100.16C187.442 99.8827 187.306 99.6453 187.125 99.448C186.949 99.2453 186.733 99.0907 186.477 98.984C186.221 98.872 185.93 98.816 185.605 98.816C184.922 98.816 184.381 99.016 183.981 99.416C183.586 99.8107 183.341 100.36 183.245 101.064H187.677ZM188.829 104.864C188.653 105.077 188.442 105.264 188.197 105.424C187.952 105.579 187.688 105.707 187.405 105.808C187.128 105.909 186.84 105.984 186.541 106.032C186.242 106.085 185.946 106.112 185.653 106.112C185.093 106.112 184.576 106.019 184.101 105.832C183.632 105.64 183.224 105.363 182.877 105C182.536 104.632 182.269 104.179 182.077 103.64C181.885 103.101 181.789 102.483 181.789 101.784C181.789 101.219 181.874 100.691 182.045 100.2C182.221 99.7093 182.472 99.2853 182.797 98.928C183.122 98.5653 183.52 98.2827 183.989 98.08C184.458 97.872 184.986 97.768 185.573 97.768C186.058 97.768 186.506 97.8507 186.917 98.016C187.333 98.176 187.69 98.4107 187.989 98.72C188.293 99.024 188.53 99.4027 188.701 99.856C188.872 100.304 188.957 100.816 188.957 101.392C188.957 101.616 188.933 101.765 188.885 101.84C188.837 101.915 188.746 101.952 188.613 101.952H183.197C183.213 102.464 183.282 102.909 183.405 103.288C183.533 103.667 183.709 103.984 183.933 104.24C184.157 104.491 184.424 104.68 184.733 104.808C185.042 104.931 185.389 104.992 185.773 104.992C186.13 104.992 186.437 104.952 186.693 104.872C186.954 104.787 187.178 104.696 187.365 104.6C187.552 104.504 187.706 104.416 187.829 104.336C187.957 104.251 188.066 104.208 188.157 104.208C188.274 104.208 188.365 104.253 188.429 104.344L188.829 104.864ZM199.192 102.352C198.536 102.373 197.976 102.427 197.512 102.512C197.053 102.592 196.677 102.699 196.384 102.832C196.096 102.965 195.885 103.123 195.752 103.304C195.624 103.485 195.56 103.688 195.56 103.912C195.56 104.125 195.595 104.309 195.664 104.464C195.733 104.619 195.827 104.747 195.944 104.848C196.067 104.944 196.208 105.016 196.368 105.064C196.533 105.107 196.709 105.128 196.896 105.128C197.147 105.128 197.376 105.104 197.584 105.056C197.792 105.003 197.987 104.928 198.168 104.832C198.355 104.736 198.531 104.621 198.696 104.488C198.867 104.355 199.032 104.203 199.192 104.032V102.352ZM194.592 99.04C195.04 98.608 195.523 98.2853 196.04 98.072C196.557 97.8587 197.131 97.752 197.76 97.752C198.213 97.752 198.616 97.8267 198.968 97.976C199.32 98.1253 199.616 98.3333 199.856 98.6C200.096 98.8667 200.277 99.1893 200.4 99.568C200.523 99.9467 200.584 100.363 200.584 100.816V106H199.952C199.813 106 199.707 105.979 199.632 105.936C199.557 105.888 199.499 105.797 199.456 105.664L199.296 104.896C199.083 105.093 198.875 105.269 198.672 105.424C198.469 105.573 198.256 105.701 198.032 105.808C197.808 105.909 197.568 105.987 197.312 106.04C197.061 106.099 196.781 106.128 196.472 106.128C196.157 106.128 195.861 106.085 195.584 106C195.307 105.909 195.064 105.776 194.856 105.6C194.653 105.424 194.491 105.203 194.368 104.936C194.251 104.664 194.192 104.344 194.192 103.976C194.192 103.656 194.28 103.349 194.456 103.056C194.632 102.757 194.917 102.493 195.312 102.264C195.707 102.035 196.221 101.848 196.856 101.704C197.491 101.555 198.269 101.469 199.192 101.448V100.816C199.192 100.187 199.056 99.712 198.784 99.392C198.512 99.0667 198.115 98.904 197.592 98.904C197.24 98.904 196.944 98.9493 196.704 99.04C196.469 99.1253 196.264 99.224 196.088 99.336C195.917 99.4427 195.768 99.5413 195.64 99.632C195.517 99.7173 195.395 99.76 195.272 99.76C195.176 99.76 195.093 99.736 195.024 99.688C194.955 99.6347 194.896 99.5707 194.848 99.496L194.592 99.04ZM204.097 99.072C204.273 98.8747 204.46 98.696 204.657 98.536C204.854 98.376 205.062 98.24 205.281 98.128C205.505 98.0107 205.74 97.9227 205.985 97.864C206.236 97.8 206.505 97.768 206.793 97.768C207.236 97.768 207.625 97.8427 207.961 97.992C208.302 98.136 208.585 98.344 208.809 98.616C209.038 98.8827 209.212 99.2053 209.329 99.584C209.446 99.9627 209.505 100.381 209.505 100.84V106H208.073V100.84C208.073 100.227 207.932 99.752 207.649 99.416C207.372 99.0747 206.948 98.904 206.377 98.904C205.956 98.904 205.561 99.0053 205.193 99.208C204.83 99.4107 204.494 99.6853 204.185 100.032V106H202.753V97.896H203.609C203.812 97.896 203.937 97.9947 203.985 98.192L204.097 99.072ZM216.067 102.352C215.411 102.373 214.851 102.427 214.387 102.512C213.928 102.592 213.552 102.699 213.259 102.832C212.971 102.965 212.76 103.123 212.627 103.304C212.499 103.485 212.435 103.688 212.435 103.912C212.435 104.125 212.47 104.309 212.539 104.464C212.608 104.619 212.702 104.747 212.819 104.848C212.942 104.944 213.083 105.016 213.243 105.064C213.408 105.107 213.584 105.128 213.771 105.128C214.022 105.128 214.251 105.104 214.459 105.056C214.667 105.003 214.862 104.928 215.043 104.832C215.23 104.736 215.406 104.621 215.571 104.488C215.742 104.355 215.907 104.203 216.067 104.032V102.352ZM211.467 99.04C211.915 98.608 212.398 98.2853 212.915 98.072C213.432 97.8587 214.006 97.752 214.635 97.752C215.088 97.752 215.491 97.8267 215.843 97.976C216.195 98.1253 216.491 98.3333 216.731 98.6C216.971 98.8667 217.152 99.1893 217.275 99.568C217.398 99.9467 217.459 100.363 217.459 100.816V106H216.827C216.688 106 216.582 105.979 216.507 105.936C216.432 105.888 216.374 105.797 216.331 105.664L216.171 104.896C215.958 105.093 215.75 105.269 215.547 105.424C215.344 105.573 215.131 105.701 214.907 105.808C214.683 105.909 214.443 105.987 214.187 106.04C213.936 106.099 213.656 106.128 213.347 106.128C213.032 106.128 212.736 106.085 212.459 106C212.182 105.909 211.939 105.776 211.731 105.6C211.528 105.424 211.366 105.203 211.243 104.936C211.126 104.664 211.067 104.344 211.067 103.976C211.067 103.656 211.155 103.349 211.331 103.056C211.507 102.757 211.792 102.493 212.187 102.264C212.582 102.035 213.096 101.848 213.731 101.704C214.366 101.555 215.144 101.469 216.067 101.448V100.816C216.067 100.187 215.931 99.712 215.659 99.392C215.387 99.0667 214.99 98.904 214.467 98.904C214.115 98.904 213.819 98.9493 213.579 99.04C213.344 99.1253 213.139 99.224 212.963 99.336C212.792 99.4427 212.643 99.5413 212.515 99.632C212.392 99.7173 212.27 99.76 212.147 99.76C212.051 99.76 211.968 99.736 211.899 99.688C211.83 99.6347 211.771 99.5707 211.723 99.496L211.467 99.04ZM221.1 94.216V106H219.676V94.216H221.1ZM230.401 97.896L225.881 108.392C225.833 108.499 225.772 108.584 225.697 108.648C225.628 108.712 225.519 108.744 225.369 108.744H224.313L225.793 105.528L222.449 97.896H223.681C223.804 97.896 223.9 97.928 223.969 97.992C224.044 98.0507 224.095 98.1173 224.121 98.192L226.289 103.296C226.375 103.52 226.447 103.755 226.505 104C226.58 103.749 226.66 103.512 226.745 103.288L228.849 98.192C228.881 98.1067 228.935 98.0373 229.009 97.984C229.089 97.9253 229.177 97.896 229.273 97.896H230.401ZM236.239 99.232C236.175 99.3493 236.076 99.408 235.943 99.408C235.863 99.408 235.772 99.3787 235.671 99.32C235.569 99.2613 235.444 99.1973 235.295 99.128C235.151 99.0533 234.977 98.9867 234.775 98.928C234.572 98.864 234.332 98.832 234.055 98.832C233.815 98.832 233.599 98.864 233.407 98.928C233.215 98.9867 233.049 99.0693 232.911 99.176C232.777 99.2827 232.673 99.408 232.599 99.552C232.529 99.6907 232.495 99.8427 232.495 100.008C232.495 100.216 232.553 100.389 232.671 100.528C232.793 100.667 232.953 100.787 233.151 100.888C233.348 100.989 233.572 101.08 233.823 101.16C234.073 101.235 234.329 101.317 234.591 101.408C234.857 101.493 235.116 101.589 235.367 101.696C235.617 101.803 235.841 101.936 236.039 102.096C236.236 102.256 236.393 102.453 236.511 102.688C236.633 102.917 236.695 103.195 236.695 103.52C236.695 103.893 236.628 104.24 236.495 104.56C236.361 104.875 236.164 105.149 235.903 105.384C235.641 105.613 235.321 105.795 234.943 105.928C234.564 106.061 234.127 106.128 233.631 106.128C233.065 106.128 232.553 106.037 232.095 105.856C231.636 105.669 231.247 105.432 230.927 105.144L231.263 104.6C231.305 104.531 231.356 104.477 231.415 104.44C231.473 104.403 231.548 104.384 231.639 104.384C231.735 104.384 231.836 104.421 231.943 104.496C232.049 104.571 232.177 104.653 232.327 104.744C232.481 104.835 232.668 104.917 232.887 104.992C233.105 105.067 233.377 105.104 233.703 105.104C233.98 105.104 234.223 105.069 234.431 105C234.639 104.925 234.812 104.827 234.951 104.704C235.089 104.581 235.191 104.44 235.255 104.28C235.324 104.12 235.359 103.949 235.359 103.768C235.359 103.544 235.297 103.36 235.175 103.216C235.057 103.067 234.9 102.941 234.703 102.84C234.505 102.733 234.279 102.643 234.023 102.568C233.772 102.488 233.513 102.405 233.247 102.32C232.985 102.235 232.727 102.139 232.471 102.032C232.22 101.92 231.996 101.781 231.799 101.616C231.601 101.451 231.441 101.248 231.319 101.008C231.201 100.763 231.143 100.467 231.143 100.12C231.143 99.8107 231.207 99.5147 231.335 99.232C231.463 98.944 231.649 98.6933 231.895 98.48C232.14 98.2613 232.441 98.088 232.799 97.96C233.156 97.832 233.564 97.768 234.023 97.768C234.556 97.768 235.033 97.8533 235.455 98.024C235.881 98.1893 236.249 98.4187 236.559 98.712L236.239 99.232ZM239.945 97.896V106H238.521V97.896H239.945ZM240.249 95.352C240.249 95.4907 240.219 95.6213 240.161 95.744C240.107 95.8613 240.033 95.968 239.937 96.064C239.846 96.1547 239.737 96.2267 239.609 96.28C239.486 96.3333 239.355 96.36 239.217 96.36C239.078 96.36 238.947 96.3333 238.825 96.28C238.707 96.2267 238.603 96.1547 238.513 96.064C238.422 95.968 238.35 95.8613 238.297 95.744C238.243 95.6213 238.217 95.4907 238.217 95.352C238.217 95.2133 238.243 95.0827 238.297 94.96C238.35 94.832 238.422 94.7227 238.513 94.632C238.603 94.536 238.707 94.4613 238.825 94.408C238.947 94.3547 239.078 94.328 239.217 94.328C239.355 94.328 239.486 94.3547 239.609 94.408C239.737 94.4613 239.846 94.536 239.937 94.632C240.033 94.7227 240.107 94.832 240.161 94.96C240.219 95.0827 240.249 95.2133 240.249 95.352ZM247.004 99.232C246.94 99.3493 246.842 99.408 246.708 99.408C246.628 99.408 246.538 99.3787 246.436 99.32C246.335 99.2613 246.21 99.1973 246.06 99.128C245.916 99.0533 245.743 98.9867 245.54 98.928C245.338 98.864 245.098 98.832 244.82 98.832C244.58 98.832 244.364 98.864 244.172 98.928C243.98 98.9867 243.815 99.0693 243.676 99.176C243.543 99.2827 243.439 99.408 243.364 99.552C243.295 99.6907 243.26 99.8427 243.26 100.008C243.26 100.216 243.319 100.389 243.436 100.528C243.559 100.667 243.719 100.787 243.916 100.888C244.114 100.989 244.338 101.08 244.588 101.16C244.839 101.235 245.095 101.317 245.356 101.408C245.623 101.493 245.882 101.589 246.132 101.696C246.383 101.803 246.607 101.936 246.804 102.096C247.002 102.256 247.159 102.453 247.276 102.688C247.399 102.917 247.46 103.195 247.46 103.52C247.46 103.893 247.394 104.24 247.26 104.56C247.127 104.875 246.93 105.149 246.668 105.384C246.407 105.613 246.087 105.795 245.708 105.928C245.33 106.061 244.892 106.128 244.396 106.128C243.831 106.128 243.319 106.037 242.86 105.856C242.402 105.669 242.012 105.432 241.692 105.144L242.028 104.6C242.071 104.531 242.122 104.477 242.18 104.44C242.239 104.403 242.314 104.384 242.404 104.384C242.5 104.384 242.602 104.421 242.708 104.496C242.815 104.571 242.943 104.653 243.092 104.744C243.247 104.835 243.434 104.917 243.652 104.992C243.871 105.067 244.143 105.104 244.468 105.104C244.746 105.104 244.988 105.069 245.196 105C245.404 104.925 245.578 104.827 245.716 104.704C245.855 104.581 245.956 104.44 246.02 104.28C246.09 104.12 246.124 103.949 246.124 103.768C246.124 103.544 246.063 103.36 245.94 103.216C245.823 103.067 245.666 102.941 245.468 102.84C245.271 102.733 245.044 102.643 244.788 102.568C244.538 102.488 244.279 102.405 244.012 102.32C243.751 102.235 243.492 102.139 243.236 102.032C242.986 101.92 242.762 101.781 242.564 101.616C242.367 101.451 242.207 101.248 242.084 101.008C241.967 100.763 241.908 100.467 241.908 100.12C241.908 99.8107 241.972 99.5147 242.1 99.232C242.228 98.944 242.415 98.6933 242.66 98.48C242.906 98.2613 243.207 98.088 243.564 97.96C243.922 97.832 244.33 97.768 244.788 97.768C245.322 97.768 245.799 97.8533 246.22 98.024C246.647 98.1893 247.015 98.4187 247.324 98.712L247.004 99.232ZM64.512 128.632C64.5973 128.632 64.672 128.667 64.736 128.736L65.352 129.4C64.8827 129.944 64.312 130.368 63.64 130.672C62.9733 130.976 62.1653 131.128 61.216 131.128C60.3947 131.128 59.648 130.987 58.976 130.704C58.304 130.416 57.7307 130.016 57.256 129.504C56.7813 128.987 56.4133 128.368 56.152 127.648C55.8907 126.928 55.76 126.136 55.76 125.272C55.76 124.408 55.896 123.616 56.168 122.896C56.44 122.176 56.8213 121.557 57.312 121.04C57.808 120.523 58.4 120.123 59.088 119.84C59.776 119.552 60.536 119.408 61.368 119.408C62.184 119.408 62.904 119.539 63.528 119.8C64.152 120.061 64.7013 120.416 65.176 120.864L64.664 121.576C64.632 121.629 64.5893 121.675 64.536 121.712C64.488 121.744 64.4213 121.76 64.336 121.76C64.24 121.76 64.1227 121.709 63.984 121.608C63.8453 121.501 63.664 121.384 63.44 121.256C63.216 121.128 62.936 121.013 62.6 120.912C62.264 120.805 61.8507 120.752 61.36 120.752C60.768 120.752 60.2267 120.856 59.736 121.064C59.2453 121.267 58.8213 121.563 58.464 121.952C58.112 122.341 57.8373 122.816 57.64 123.376C57.4427 123.936 57.344 124.568 57.344 125.272C57.344 125.987 57.4453 126.624 57.648 127.184C57.856 127.744 58.136 128.219 58.488 128.608C58.8453 128.992 59.264 129.285 59.744 129.488C60.2293 129.691 60.752 129.792 61.312 129.792C61.6533 129.792 61.96 129.773 62.232 129.736C62.5093 129.693 62.7627 129.629 62.992 129.544C63.2267 129.459 63.4427 129.352 63.64 129.224C63.8427 129.091 64.0427 128.933 64.24 128.752C64.3307 128.672 64.4213 128.632 64.512 128.632ZM73.3545 122.896V131H72.5065C72.3038 131 72.1758 130.901 72.1225 130.704L72.0105 129.832C71.6585 130.221 71.2638 130.536 70.8265 130.776C70.3892 131.011 69.8878 131.128 69.3225 131.128C68.8798 131.128 68.4878 131.056 68.1465 130.912C67.8105 130.763 67.5278 130.555 67.2985 130.288C67.0692 130.021 66.8958 129.699 66.7785 129.32C66.6665 128.941 66.6105 128.523 66.6105 128.064V122.896H68.0345V128.064C68.0345 128.677 68.1732 129.152 68.4505 129.488C68.7332 129.824 69.1625 129.992 69.7385 129.992C70.1598 129.992 70.5518 129.893 70.9145 129.696C71.2825 129.493 71.6212 129.216 71.9305 128.864V122.896H73.3545ZM80.3324 124.232C80.2684 124.349 80.1697 124.408 80.0364 124.408C79.9564 124.408 79.8657 124.379 79.7644 124.32C79.663 124.261 79.5377 124.197 79.3884 124.128C79.2444 124.053 79.071 123.987 78.8684 123.928C78.6657 123.864 78.4257 123.832 78.1484 123.832C77.9084 123.832 77.6924 123.864 77.5004 123.928C77.3084 123.987 77.143 124.069 77.0044 124.176C76.871 124.283 76.767 124.408 76.6924 124.552C76.623 124.691 76.5884 124.843 76.5884 125.008C76.5884 125.216 76.647 125.389 76.7644 125.528C76.887 125.667 77.047 125.787 77.2444 125.888C77.4417 125.989 77.6657 126.08 77.9164 126.16C78.167 126.235 78.423 126.317 78.6844 126.408C78.951 126.493 79.2097 126.589 79.4604 126.696C79.711 126.803 79.935 126.936 80.1324 127.096C80.3297 127.256 80.487 127.453 80.6044 127.688C80.727 127.917 80.7884 128.195 80.7884 128.52C80.7884 128.893 80.7217 129.24 80.5884 129.56C80.455 129.875 80.2577 130.149 79.9964 130.384C79.735 130.613 79.415 130.795 79.0364 130.928C78.6577 131.061 78.2204 131.128 77.7244 131.128C77.159 131.128 76.647 131.037 76.1884 130.856C75.7297 130.669 75.3404 130.432 75.0204 130.144L75.3564 129.6C75.399 129.531 75.4497 129.477 75.5084 129.44C75.567 129.403 75.6417 129.384 75.7324 129.384C75.8284 129.384 75.9297 129.421 76.0364 129.496C76.143 129.571 76.271 129.653 76.4204 129.744C76.575 129.835 76.7617 129.917 76.9804 129.992C77.199 130.067 77.471 130.104 77.7964 130.104C78.0737 130.104 78.3164 130.069 78.5244 130C78.7324 129.925 78.9057 129.827 79.0444 129.704C79.183 129.581 79.2844 129.44 79.3484 129.28C79.4177 129.12 79.4524 128.949 79.4524 128.768C79.4524 128.544 79.391 128.36 79.2684 128.216C79.151 128.067 78.9937 127.941 78.7964 127.84C78.599 127.733 78.3724 127.643 78.1164 127.568C77.8657 127.488 77.607 127.405 77.3404 127.32C77.079 127.235 76.8204 127.139 76.5644 127.032C76.3137 126.92 76.0897 126.781 75.8924 126.616C75.695 126.451 75.535 126.248 75.4124 126.008C75.295 125.763 75.2364 125.467 75.2364 125.12C75.2364 124.811 75.3004 124.515 75.4284 124.232C75.5564 123.944 75.743 123.693 75.9884 123.48C76.2337 123.261 76.535 123.088 76.8924 122.96C77.2497 122.832 77.6577 122.768 78.1164 122.768C78.6497 122.768 79.127 122.853 79.5484 123.024C79.975 123.189 80.343 123.419 80.6524 123.712L80.3324 124.232ZM85.0223 131.128C84.3823 131.128 83.8889 130.949 83.5423 130.592C83.2009 130.235 83.0303 129.72 83.0303 129.048V124.088H82.0543C81.9689 124.088 81.8969 124.064 81.8383 124.016C81.7796 123.963 81.7503 123.883 81.7503 123.776V123.208L83.0783 123.04L83.4062 120.536C83.4223 120.456 83.4569 120.392 83.5103 120.344C83.5689 120.291 83.6436 120.264 83.7343 120.264H84.4543V123.056H86.7983V124.088H84.4543V128.952C84.4543 129.293 84.5369 129.547 84.7023 129.712C84.8676 129.877 85.0809 129.96 85.3423 129.96C85.4916 129.96 85.6196 129.941 85.7263 129.904C85.8383 129.861 85.9343 129.816 86.0143 129.768C86.0943 129.72 86.1609 129.677 86.2143 129.64C86.2729 129.597 86.3236 129.576 86.3663 129.576C86.4409 129.576 86.5076 129.621 86.5663 129.712L86.9823 130.392C86.7369 130.621 86.4409 130.803 86.0943 130.936C85.7476 131.064 85.3903 131.128 85.0223 131.128ZM91.6378 122.768C92.2298 122.768 92.7631 122.867 93.2378 123.064C93.7124 123.261 94.1178 123.541 94.4538 123.904C94.7898 124.267 95.0458 124.707 95.2218 125.224C95.4031 125.736 95.4938 126.309 95.4938 126.944C95.4938 127.584 95.4031 128.16 95.2218 128.672C95.0458 129.184 94.7898 129.621 94.4538 129.984C94.1178 130.347 93.7124 130.627 93.2378 130.824C92.7631 131.016 92.2298 131.112 91.6378 131.112C91.0404 131.112 90.5018 131.016 90.0218 130.824C89.5471 130.627 89.1418 130.347 88.8058 129.984C88.4698 129.621 88.2111 129.184 88.0298 128.672C87.8538 128.16 87.7658 127.584 87.7658 126.944C87.7658 126.309 87.8538 125.736 88.0298 125.224C88.2111 124.707 88.4698 124.267 88.8058 123.904C89.1418 123.541 89.5471 123.261 90.0218 123.064C90.5018 122.867 91.0404 122.768 91.6378 122.768ZM91.6378 130C92.4378 130 93.0351 129.733 93.4298 129.2C93.8244 128.661 94.0218 127.912 94.0218 126.952C94.0218 125.987 93.8244 125.235 93.4298 124.696C93.0351 124.157 92.4378 123.888 91.6378 123.888C91.2324 123.888 90.8778 123.957 90.5738 124.096C90.2751 124.235 90.0244 124.435 89.8218 124.696C89.6244 124.957 89.4751 125.28 89.3738 125.664C89.2778 126.043 89.2298 126.472 89.2298 126.952C89.2298 127.912 89.4271 128.661 89.8218 129.2C90.2218 129.733 90.8271 130 91.6378 130ZM97.2999 131V122.896H98.1559C98.3585 122.896 98.4839 122.995 98.5319 123.192L98.6359 124.024C98.9345 123.656 99.2705 123.355 99.6439 123.12C100.017 122.885 100.449 122.768 100.94 122.768C101.484 122.768 101.924 122.92 102.26 123.224C102.601 123.528 102.847 123.939 102.996 124.456C103.113 124.163 103.263 123.909 103.444 123.696C103.631 123.483 103.839 123.307 104.068 123.168C104.297 123.029 104.54 122.928 104.796 122.864C105.057 122.8 105.321 122.768 105.588 122.768C106.015 122.768 106.393 122.837 106.724 122.976C107.06 123.109 107.343 123.307 107.572 123.568C107.807 123.829 107.985 124.152 108.108 124.536C108.231 124.915 108.292 125.349 108.292 125.84V131H106.86V125.84C106.86 125.205 106.721 124.725 106.444 124.4C106.167 124.069 105.767 123.904 105.244 123.904C105.009 123.904 104.785 123.947 104.572 124.032C104.364 124.112 104.18 124.232 104.02 124.392C103.86 124.552 103.732 124.755 103.636 125C103.545 125.24 103.5 125.52 103.5 125.84V131H102.068V125.84C102.068 125.189 101.937 124.704 101.676 124.384C101.415 124.064 101.033 123.904 100.532 123.904C100.18 123.904 99.8545 124 99.5559 124.192C99.2572 124.379 98.9825 124.635 98.7319 124.96V131H97.2999ZM115.88 126.064C115.88 125.733 115.832 125.432 115.736 125.16C115.645 124.883 115.509 124.645 115.328 124.448C115.152 124.245 114.936 124.091 114.68 123.984C114.424 123.872 114.133 123.816 113.808 123.816C113.125 123.816 112.584 124.016 112.184 124.416C111.789 124.811 111.544 125.36 111.448 126.064H115.88ZM117.032 129.864C116.856 130.077 116.645 130.264 116.4 130.424C116.155 130.579 115.891 130.707 115.608 130.808C115.331 130.909 115.043 130.984 114.744 131.032C114.445 131.085 114.149 131.112 113.856 131.112C113.296 131.112 112.779 131.019 112.304 130.832C111.835 130.64 111.427 130.363 111.08 130C110.739 129.632 110.472 129.179 110.28 128.64C110.088 128.101 109.992 127.483 109.992 126.784C109.992 126.219 110.077 125.691 110.248 125.2C110.424 124.709 110.675 124.285 111 123.928C111.325 123.565 111.723 123.283 112.192 123.08C112.661 122.872 113.189 122.768 113.776 122.768C114.261 122.768 114.709 122.851 115.12 123.016C115.536 123.176 115.893 123.411 116.192 123.72C116.496 124.024 116.733 124.403 116.904 124.856C117.075 125.304 117.16 125.816 117.16 126.392C117.16 126.616 117.136 126.765 117.088 126.84C117.04 126.915 116.949 126.952 116.816 126.952H111.4C111.416 127.464 111.485 127.909 111.608 128.288C111.736 128.667 111.912 128.984 112.136 129.24C112.36 129.491 112.627 129.68 112.936 129.808C113.245 129.931 113.592 129.992 113.976 129.992C114.333 129.992 114.64 129.952 114.896 129.872C115.157 129.787 115.381 129.696 115.568 129.6C115.755 129.504 115.909 129.416 116.032 129.336C116.16 129.251 116.269 129.208 116.36 129.208C116.477 129.208 116.568 129.253 116.632 129.344L117.032 129.864ZM120.261 124.52C120.517 123.965 120.832 123.533 121.205 123.224C121.579 122.909 122.035 122.752 122.573 122.752C122.744 122.752 122.907 122.771 123.061 122.808C123.221 122.845 123.363 122.904 123.485 122.984L123.381 124.048C123.349 124.181 123.269 124.248 123.141 124.248C123.067 124.248 122.957 124.232 122.813 124.2C122.669 124.168 122.507 124.152 122.325 124.152C122.069 124.152 121.84 124.189 121.637 124.264C121.44 124.339 121.261 124.451 121.101 124.6C120.947 124.744 120.805 124.925 120.677 125.144C120.555 125.357 120.443 125.603 120.341 125.88V131H118.909V122.896H119.725C119.88 122.896 119.987 122.925 120.045 122.984C120.104 123.043 120.144 123.144 120.165 123.288L120.261 124.52ZM129.991 122.896V131.6C129.991 131.925 129.949 132.227 129.863 132.504C129.778 132.787 129.642 133.032 129.455 133.24C129.269 133.448 129.029 133.611 128.735 133.728C128.447 133.851 128.101 133.912 127.695 133.912C127.525 133.912 127.367 133.899 127.223 133.872C127.079 133.845 126.935 133.805 126.791 133.752L126.847 132.984C126.858 132.936 126.877 132.899 126.903 132.872C126.925 132.851 126.957 132.837 126.999 132.832C127.042 132.827 127.098 132.824 127.167 132.824C127.231 132.829 127.314 132.832 127.415 132.832C127.831 132.832 128.127 132.733 128.303 132.536C128.479 132.344 128.567 132.032 128.567 131.6V122.896H129.991ZM130.287 120.352C130.287 120.491 130.258 120.621 130.199 120.744C130.146 120.861 130.071 120.968 129.975 121.064C129.885 121.155 129.778 121.227 129.655 121.28C129.533 121.333 129.402 121.36 129.263 121.36C129.125 121.36 128.994 121.333 128.871 121.28C128.754 121.227 128.65 121.155 128.559 121.064C128.469 120.968 128.397 120.861 128.343 120.744C128.29 120.621 128.263 120.491 128.263 120.352C128.263 120.213 128.29 120.083 128.343 119.96C128.397 119.832 128.469 119.723 128.559 119.632C128.65 119.536 128.754 119.461 128.871 119.408C128.994 119.355 129.125 119.328 129.263 119.328C129.402 119.328 129.533 119.355 129.655 119.408C129.778 119.461 129.885 119.536 129.975 119.632C130.071 119.723 130.146 119.832 130.199 119.96C130.258 120.083 130.287 120.213 130.287 120.352ZM135.747 122.768C136.339 122.768 136.872 122.867 137.347 123.064C137.822 123.261 138.227 123.541 138.563 123.904C138.899 124.267 139.155 124.707 139.331 125.224C139.512 125.736 139.603 126.309 139.603 126.944C139.603 127.584 139.512 128.16 139.331 128.672C139.155 129.184 138.899 129.621 138.563 129.984C138.227 130.347 137.822 130.627 137.347 130.824C136.872 131.016 136.339 131.112 135.747 131.112C135.15 131.112 134.611 131.016 134.131 130.824C133.656 130.627 133.251 130.347 132.915 129.984C132.579 129.621 132.32 129.184 132.139 128.672C131.963 128.16 131.875 127.584 131.875 126.944C131.875 126.309 131.963 125.736 132.139 125.224C132.32 124.707 132.579 124.267 132.915 123.904C133.251 123.541 133.656 123.261 134.131 123.064C134.611 122.867 135.15 122.768 135.747 122.768ZM135.747 130C136.547 130 137.144 129.733 137.539 129.2C137.934 128.661 138.131 127.912 138.131 126.952C138.131 125.987 137.934 125.235 137.539 124.696C137.144 124.157 136.547 123.888 135.747 123.888C135.342 123.888 134.987 123.957 134.683 124.096C134.384 124.235 134.134 124.435 133.931 124.696C133.734 124.957 133.584 125.28 133.483 125.664C133.387 126.043 133.339 126.472 133.339 126.952C133.339 127.912 133.536 128.661 133.931 129.2C134.331 129.733 134.936 130 135.747 130ZM148.073 122.896V131H147.225C147.023 131 146.895 130.901 146.841 130.704L146.729 129.832C146.377 130.221 145.983 130.536 145.545 130.776C145.108 131.011 144.607 131.128 144.041 131.128C143.599 131.128 143.207 131.056 142.865 130.912C142.529 130.763 142.247 130.555 142.017 130.288C141.788 130.021 141.615 129.699 141.497 129.32C141.385 128.941 141.329 128.523 141.329 128.064V122.896H142.753V128.064C142.753 128.677 142.892 129.152 143.169 129.488C143.452 129.824 143.881 129.992 144.457 129.992C144.879 129.992 145.271 129.893 145.633 129.696C146.001 129.493 146.34 129.216 146.649 128.864V122.896H148.073ZM151.683 124.52C151.939 123.965 152.254 123.533 152.627 123.224C153 122.909 153.456 122.752 153.995 122.752C154.166 122.752 154.328 122.771 154.483 122.808C154.643 122.845 154.784 122.904 154.907 122.984L154.803 124.048C154.771 124.181 154.691 124.248 154.563 124.248C154.488 124.248 154.379 124.232 154.235 124.2C154.091 124.168 153.928 124.152 153.747 124.152C153.491 124.152 153.262 124.189 153.059 124.264C152.862 124.339 152.683 124.451 152.523 124.6C152.368 124.744 152.227 124.925 152.099 125.144C151.976 125.357 151.864 125.603 151.763 125.88V131H150.331V122.896H151.147C151.302 122.896 151.408 122.925 151.467 122.984C151.526 123.043 151.566 123.144 151.587 123.288L151.683 124.52ZM157.503 124.072C157.679 123.875 157.866 123.696 158.063 123.536C158.261 123.376 158.469 123.24 158.687 123.128C158.911 123.011 159.146 122.923 159.391 122.864C159.642 122.8 159.911 122.768 160.199 122.768C160.642 122.768 161.031 122.843 161.367 122.992C161.709 123.136 161.991 123.344 162.215 123.616C162.445 123.883 162.618 124.205 162.735 124.584C162.853 124.963 162.911 125.381 162.911 125.84V131H161.479V125.84C161.479 125.227 161.338 124.752 161.055 124.416C160.778 124.075 160.354 123.904 159.783 123.904C159.362 123.904 158.967 124.005 158.599 124.208C158.237 124.411 157.901 124.685 157.591 125.032V131H156.159V122.896H157.015C157.218 122.896 157.343 122.995 157.391 123.192L157.503 124.072ZM170.505 126.064C170.505 125.733 170.457 125.432 170.361 125.16C170.27 124.883 170.134 124.645 169.953 124.448C169.777 124.245 169.561 124.091 169.305 123.984C169.049 123.872 168.758 123.816 168.433 123.816C167.75 123.816 167.209 124.016 166.809 124.416C166.414 124.811 166.169 125.36 166.073 126.064H170.505ZM171.657 129.864C171.481 130.077 171.27 130.264 171.025 130.424C170.78 130.579 170.516 130.707 170.233 130.808C169.956 130.909 169.668 130.984 169.369 131.032C169.07 131.085 168.774 131.112 168.481 131.112C167.921 131.112 167.404 131.019 166.929 130.832C166.46 130.64 166.052 130.363 165.705 130C165.364 129.632 165.097 129.179 164.905 128.64C164.713 128.101 164.617 127.483 164.617 126.784C164.617 126.219 164.702 125.691 164.873 125.2C165.049 124.709 165.3 124.285 165.625 123.928C165.95 123.565 166.348 123.283 166.817 123.08C167.286 122.872 167.814 122.768 168.401 122.768C168.886 122.768 169.334 122.851 169.745 123.016C170.161 123.176 170.518 123.411 170.817 123.72C171.121 124.024 171.358 124.403 171.529 124.856C171.7 125.304 171.785 125.816 171.785 126.392C171.785 126.616 171.761 126.765 171.713 126.84C171.665 126.915 171.574 126.952 171.441 126.952H166.025C166.041 127.464 166.11 127.909 166.233 128.288C166.361 128.667 166.537 128.984 166.761 129.24C166.985 129.491 167.252 129.68 167.561 129.808C167.87 129.931 168.217 129.992 168.601 129.992C168.958 129.992 169.265 129.952 169.521 129.872C169.782 129.787 170.006 129.696 170.193 129.6C170.38 129.504 170.534 129.416 170.657 129.336C170.785 129.251 170.894 129.208 170.985 129.208C171.102 129.208 171.193 129.253 171.257 129.344L171.657 129.864ZM180.323 122.896L175.803 133.392C175.755 133.499 175.694 133.584 175.619 133.648C175.55 133.712 175.44 133.744 175.291 133.744H174.235L175.715 130.528L172.371 122.896H173.603C173.726 122.896 173.822 122.928 173.891 122.992C173.966 123.051 174.016 123.117 174.043 123.192L176.211 128.296C176.296 128.52 176.368 128.755 176.427 129C176.502 128.749 176.582 128.512 176.667 128.288L178.771 123.192C178.803 123.107 178.856 123.037 178.931 122.984C179.011 122.925 179.099 122.896 179.195 122.896H180.323ZM185.284 131V122.896H186.14C186.343 122.896 186.468 122.995 186.516 123.192L186.62 124.024C186.919 123.656 187.255 123.355 187.628 123.12C188.002 122.885 188.434 122.768 188.924 122.768C189.468 122.768 189.908 122.92 190.244 123.224C190.586 123.528 190.831 123.939 190.98 124.456C191.098 124.163 191.247 123.909 191.428 123.696C191.615 123.483 191.823 123.307 192.052 123.168C192.282 123.029 192.524 122.928 192.78 122.864C193.042 122.8 193.306 122.768 193.572 122.768C193.999 122.768 194.378 122.837 194.708 122.976C195.044 123.109 195.327 123.307 195.556 123.568C195.791 123.829 195.97 124.152 196.092 124.536C196.215 124.915 196.276 125.349 196.276 125.84V131H194.844V125.84C194.844 125.205 194.706 124.725 194.428 124.4C194.151 124.069 193.751 123.904 193.228 123.904C192.994 123.904 192.77 123.947 192.556 124.032C192.348 124.112 192.164 124.232 192.004 124.392C191.844 124.552 191.716 124.755 191.62 125C191.53 125.24 191.484 125.52 191.484 125.84V131H190.052V125.84C190.052 125.189 189.922 124.704 189.66 124.384C189.399 124.064 189.018 123.904 188.516 123.904C188.164 123.904 187.839 124 187.54 124.192C187.242 124.379 186.967 124.635 186.716 124.96V131H185.284ZM202.833 127.352C202.177 127.373 201.617 127.427 201.153 127.512C200.694 127.592 200.318 127.699 200.025 127.832C199.737 127.965 199.526 128.123 199.393 128.304C199.265 128.485 199.201 128.688 199.201 128.912C199.201 129.125 199.235 129.309 199.305 129.464C199.374 129.619 199.467 129.747 199.585 129.848C199.707 129.944 199.849 130.016 200.009 130.064C200.174 130.107 200.35 130.128 200.537 130.128C200.787 130.128 201.017 130.104 201.225 130.056C201.433 130.003 201.627 129.928 201.809 129.832C201.995 129.736 202.171 129.621 202.337 129.488C202.507 129.355 202.673 129.203 202.833 129.032V127.352ZM198.233 124.04C198.681 123.608 199.163 123.285 199.681 123.072C200.198 122.859 200.771 122.752 201.401 122.752C201.854 122.752 202.257 122.827 202.609 122.976C202.961 123.125 203.257 123.333 203.497 123.6C203.737 123.867 203.918 124.189 204.041 124.568C204.163 124.947 204.225 125.363 204.225 125.816V131H203.593C203.454 131 203.347 130.979 203.273 130.936C203.198 130.888 203.139 130.797 203.097 130.664L202.937 129.896C202.723 130.093 202.515 130.269 202.312 130.424C202.11 130.573 201.897 130.701 201.673 130.808C201.449 130.909 201.209 130.987 200.953 131.04C200.702 131.099 200.422 131.128 200.113 131.128C199.798 131.128 199.502 131.085 199.225 131C198.947 130.909 198.705 130.776 198.497 130.6C198.294 130.424 198.131 130.203 198.009 129.936C197.891 129.664 197.833 129.344 197.833 128.976C197.833 128.656 197.921 128.349 198.097 128.056C198.273 127.757 198.558 127.493 198.953 127.264C199.347 127.035 199.862 126.848 200.497 126.704C201.131 126.555 201.91 126.469 202.833 126.448V125.816C202.833 125.187 202.697 124.712 202.425 124.392C202.153 124.067 201.755 123.904 201.233 123.904C200.881 123.904 200.585 123.949 200.345 124.04C200.11 124.125 199.905 124.224 199.729 124.336C199.558 124.443 199.409 124.541 199.281 124.632C199.158 124.717 199.035 124.76 198.913 124.76C198.817 124.76 198.734 124.736 198.665 124.688C198.595 124.635 198.537 124.571 198.488 124.496L198.233 124.04ZM207.826 129.048C208.087 129.4 208.372 129.648 208.682 129.792C208.991 129.936 209.338 130.008 209.722 130.008C210.479 130.008 211.06 129.739 211.466 129.2C211.871 128.661 212.074 127.893 212.074 126.896C212.074 126.368 212.026 125.915 211.93 125.536C211.839 125.157 211.706 124.848 211.53 124.608C211.354 124.363 211.138 124.184 210.882 124.072C210.626 123.96 210.335 123.904 210.01 123.904C209.546 123.904 209.138 124.011 208.786 124.224C208.439 124.437 208.119 124.739 207.826 125.128V129.048ZM207.754 124.152C208.095 123.731 208.49 123.392 208.938 123.136C209.386 122.88 209.898 122.752 210.474 122.752C210.943 122.752 211.367 122.843 211.746 123.024C212.124 123.2 212.447 123.464 212.714 123.816C212.98 124.163 213.186 124.595 213.33 125.112C213.474 125.629 213.546 126.224 213.546 126.896C213.546 127.493 213.466 128.051 213.306 128.568C213.146 129.08 212.914 129.525 212.61 129.904C212.311 130.277 211.943 130.573 211.506 130.792C211.074 131.005 210.586 131.112 210.042 131.112C209.546 131.112 209.119 131.029 208.762 130.864C208.41 130.693 208.098 130.459 207.826 130.16V133.744H206.394V122.896H207.25C207.452 122.896 207.578 122.995 207.626 123.192L207.754 124.152Z" fill="#4F4F4F"/>
</svg>
