<svg width="192" height="112" viewBox="0 0 192 112" fill="none" xmlns="http://www.w3.org/2000/svg">
<circle cx="20" cy="20" r="19.5" transform="rotate(90 20 20)" fill="#275B81" stroke="white"/>
<path d="M14.7219 17.7013C14.9076 17.8834 15.1573 17.9854 15.4174 17.9854C15.6774 17.9854 15.9272 17.8834 16.1129 17.7013L17.7026 16.1116C17.8847 15.9259 17.9867 15.6761 17.9867 15.4161C17.9867 15.156 17.8847 14.9063 17.7026 14.7206L13.9568 10.9747C15.0609 10.4751 16.291 10.3238 17.4832 10.5411C18.6754 10.7583 19.7731 11.3337 20.63 12.1906C21.4869 13.0475 22.0623 14.1452 22.2796 15.3374C22.4968 16.5297 22.3455 17.7598 21.8459 18.8638L28.7116 25.7295C29.1069 26.1248 29.3289 26.6609 29.3289 27.2199C29.3289 27.7789 29.1069 28.315 28.7116 28.7103C28.3163 29.1056 27.7802 29.3276 27.2212 29.3276C26.6622 29.3276 26.1261 29.1056 25.7308 28.7103L18.8651 21.8446C17.7611 22.3442 16.531 22.4955 15.3387 22.2783C14.1465 22.061 13.0488 21.4856 12.1919 20.6287C11.335 19.7718 10.7596 18.6741 10.5424 17.4819C10.3251 16.2897 10.4764 15.0596 10.976 13.9555L14.7119 17.6914L14.7219 17.7013Z" stroke="white" stroke-linecap="round" stroke-linejoin="round"/>
<path d="M76.104 9.488C75.576 9.568 75.184 9.704 74.928 9.896C74.688 10.088 74.52 10.392 74.424 10.808C74.344 11.224 74.304 11.84 74.304 12.656V19.016C74.304 21.304 73.976 23 73.32 24.104C72.888 24.808 72.264 25.36 71.448 25.76C70.632 26.144 69.632 26.336 68.448 26.336C66.592 26.336 65.152 25.936 64.128 25.136C63.392 24.544 62.896 23.8 62.64 22.904C62.384 21.992 62.256 20.72 62.256 19.088V11.552C62.256 10.944 62.208 10.504 62.112 10.232C62.032 9.96 61.864 9.776 61.608 9.68C61.368 9.584 60.984 9.52 60.456 9.488V9.008C61.272 9.056 62.52 9.08 64.2 9.08C65.864 9.08 67.136 9.056 68.016 9.008V9.488C67.44 9.52 67.016 9.584 66.744 9.68C66.488 9.776 66.312 9.96 66.216 10.232C66.12 10.504 66.072 10.944 66.072 11.552V20.6C66.072 22.28 66.312 23.52 66.792 24.32C67.288 25.104 68.152 25.496 69.384 25.496C70.984 25.496 72.112 24.96 72.768 23.888C73.424 22.8 73.752 21.264 73.752 19.28V12.944C73.752 12.016 73.696 11.328 73.584 10.88C73.472 10.432 73.256 10.112 72.936 9.92C72.616 9.712 72.112 9.568 71.424 9.488V9.008C72.032 9.056 72.896 9.08 74.016 9.08C74.912 9.08 75.608 9.056 76.104 9.008V9.488ZM81.2889 13.256C81.8969 13.256 82.4569 13.336 82.9689 13.496C83.4809 13.64 83.8729 13.808 84.1449 14C84.3049 14.112 84.4489 14.168 84.5769 14.168C84.7209 14.168 84.8409 14.096 84.9369 13.952C85.0489 13.792 85.1209 13.568 85.1529 13.28H85.6569C85.5929 14.096 85.5609 15.504 85.5609 17.504H85.0569C84.9129 16.448 84.5929 15.568 84.0969 14.864C83.6169 14.144 82.9129 13.784 81.9849 13.784C81.5049 13.784 81.1049 13.92 80.7849 14.192C80.4809 14.464 80.3289 14.84 80.3289 15.32C80.3289 15.864 80.5129 16.336 80.8809 16.736C81.2489 17.12 81.8249 17.592 82.6089 18.152L83.3049 18.656C84.2809 19.392 85.0009 20.048 85.4649 20.624C85.9289 21.2 86.1609 21.92 86.1609 22.784C86.1609 23.488 85.9529 24.112 85.5369 24.656C85.1369 25.2 84.5929 25.616 83.9049 25.904C83.2169 26.192 82.4569 26.336 81.6249 26.336C80.7449 26.336 79.9929 26.168 79.3689 25.832C78.8569 25.576 78.4889 25.408 78.2649 25.328C78.1049 25.28 77.9609 25.336 77.8329 25.496C77.7209 25.64 77.6329 25.864 77.5689 26.168H77.0649C77.1289 25.256 77.1609 23.656 77.1609 21.368H77.6649C77.9849 24.312 79.0649 25.784 80.9049 25.784C81.3689 25.784 81.7609 25.648 82.0809 25.376C82.4169 25.088 82.5849 24.656 82.5849 24.08C82.5849 23.632 82.4809 23.232 82.2729 22.88C82.0809 22.528 81.8329 22.216 81.5289 21.944C81.2249 21.672 80.7689 21.296 80.1609 20.816C79.4409 20.24 78.8889 19.776 78.5049 19.424C78.1369 19.072 77.8169 18.656 77.5449 18.176C77.2889 17.696 77.1609 17.16 77.1609 16.568C77.1609 15.544 77.5609 14.736 78.3609 14.144C79.1609 13.552 80.1369 13.256 81.2889 13.256ZM90.7909 26.168C89.7669 26.168 88.9989 25.904 88.4869 25.376C87.9909 24.848 87.7429 24.152 87.7429 23.288C87.7429 22.568 87.9269 21.976 88.2949 21.512C88.6789 21.032 89.1349 20.664 89.6629 20.408C90.2069 20.152 90.8949 19.88 91.7269 19.592C92.6069 19.288 93.2469 19.016 93.6469 18.776C94.0629 18.52 94.2709 18.176 94.2709 17.744V15.872C94.2709 15.2 94.1109 14.68 93.7909 14.312C93.4869 13.928 93.0069 13.736 92.3509 13.736C91.5829 13.736 90.9989 13.928 90.5989 14.312C91.0469 14.472 91.3909 14.712 91.6309 15.032C91.8869 15.352 92.0149 15.728 92.0149 16.16C92.0149 16.704 91.8309 17.136 91.4629 17.456C91.0949 17.776 90.6469 17.936 90.1189 17.936C89.5589 17.936 89.1269 17.76 88.8229 17.408C88.5189 17.056 88.3669 16.616 88.3669 16.088C88.3669 15.64 88.4709 15.264 88.6789 14.96C88.9029 14.64 89.2389 14.344 89.6869 14.072C90.1189 13.816 90.6469 13.616 91.2709 13.472C91.9109 13.328 92.6069 13.256 93.3589 13.256C94.1429 13.256 94.8229 13.336 95.3989 13.496C95.9749 13.656 96.4549 13.928 96.8389 14.312C97.1909 14.664 97.4229 15.096 97.5349 15.608C97.6629 16.12 97.7269 16.816 97.7269 17.696V24.224C97.7269 24.608 97.7589 24.88 97.8229 25.04C97.9029 25.2 98.0469 25.28 98.2549 25.28C98.4949 25.28 98.7829 25.144 99.1189 24.872L99.3589 25.28C98.6389 25.872 97.7589 26.168 96.7189 26.168C95.8389 26.168 95.2229 25.992 94.8709 25.64C94.5189 25.288 94.3349 24.816 94.3189 24.224C93.5189 25.52 92.3429 26.168 90.7909 26.168ZM92.6389 24.632C93.2629 24.632 93.8069 24.304 94.2709 23.648V18.728C94.0789 19.048 93.6709 19.4 93.0469 19.784C92.4229 20.184 91.9509 20.584 91.6309 20.984C91.3109 21.384 91.1509 21.96 91.1509 22.712C91.1509 23.368 91.2869 23.856 91.5589 24.176C91.8309 24.48 92.1909 24.632 92.6389 24.632ZM108.277 13.256C109.573 13.256 110.621 13.792 111.421 14.864C112.221 15.92 112.621 17.456 112.621 19.472C112.621 21.824 112.109 23.56 111.085 24.68C110.061 25.784 108.741 26.336 107.125 26.336C106.021 26.336 105.125 26.056 104.437 25.496C103.861 25.448 103.285 25.512 102.709 25.688C102.133 25.864 101.677 26.096 101.341 26.384L100.981 26.168C101.093 25.768 101.149 25.32 101.149 24.824V10.112C101.149 9.376 101.029 8.84 100.789 8.504C100.565 8.168 100.173 8 99.6128 8V7.496C100.109 7.544 100.605 7.568 101.101 7.568C102.493 7.568 103.661 7.456 104.605 7.232V15.536C104.941 14.8 105.429 14.24 106.069 13.856C106.709 13.456 107.445 13.256 108.277 13.256ZM106.381 25.832C107.261 25.832 107.917 25.336 108.349 24.344C108.781 23.352 108.997 21.84 108.997 19.808C108.997 17.84 108.813 16.432 108.445 15.584C108.077 14.72 107.549 14.288 106.861 14.288C106.349 14.288 105.877 14.48 105.445 14.864C105.029 15.232 104.749 15.736 104.605 16.376V25.184C105.133 25.616 105.725 25.832 106.381 25.832ZM117.227 7.4C117.899 7.4 118.427 7.568 118.811 7.904C119.211 8.224 119.411 8.672 119.411 9.248C119.411 9.824 119.211 10.28 118.811 10.616C118.427 10.936 117.899 11.096 117.227 11.096C116.555 11.096 116.019 10.936 115.619 10.616C115.235 10.28 115.043 9.824 115.043 9.248C115.043 8.672 115.235 8.224 115.619 7.904C116.019 7.568 116.555 7.4 117.227 7.4ZM119.099 23.768C119.099 24.424 119.211 24.88 119.435 25.136C119.675 25.376 120.075 25.496 120.635 25.496V26C119.035 25.936 117.971 25.904 117.443 25.904C116.947 25.904 115.835 25.936 114.107 26V25.496C114.683 25.496 115.083 25.376 115.307 25.136C115.531 24.88 115.643 24.424 115.643 23.768V16.208C115.643 15.472 115.531 14.936 115.307 14.6C115.083 14.264 114.683 14.096 114.107 14.096V13.592C114.619 13.64 115.115 13.664 115.595 13.664C117.019 13.664 118.187 13.552 119.099 13.328V23.768ZM126.574 23.768C126.574 24.424 126.686 24.88 126.91 25.136C127.134 25.376 127.534 25.496 128.11 25.496V26C126.446 25.936 125.374 25.904 124.894 25.904C124.35 25.904 123.246 25.936 121.582 26V25.496C122.142 25.496 122.534 25.376 122.758 25.136C122.998 24.88 123.118 24.424 123.118 23.768V10.088C123.118 9.352 122.998 8.816 122.758 8.48C122.534 8.144 122.142 7.976 121.582 7.976V7.472C122.094 7.52 122.59 7.544 123.07 7.544C124.462 7.544 125.63 7.432 126.574 7.208V23.768ZM132.251 7.4C132.923 7.4 133.451 7.568 133.835 7.904C134.235 8.224 134.435 8.672 134.435 9.248C134.435 9.824 134.235 10.28 133.835 10.616C133.451 10.936 132.923 11.096 132.251 11.096C131.579 11.096 131.043 10.936 130.643 10.616C130.259 10.28 130.067 9.824 130.067 9.248C130.067 8.672 130.259 8.224 130.643 7.904C131.043 7.568 131.579 7.4 132.251 7.4ZM134.123 23.768C134.123 24.424 134.235 24.88 134.459 25.136C134.699 25.376 135.099 25.496 135.659 25.496V26C134.059 25.936 132.995 25.904 132.467 25.904C131.971 25.904 130.859 25.936 129.131 26V25.496C129.707 25.496 130.107 25.376 130.331 25.136C130.555 24.88 130.667 24.424 130.667 23.768V16.208C130.667 15.472 130.555 14.936 130.331 14.6C130.107 14.264 129.707 14.096 129.131 14.096V13.592C129.643 13.64 130.139 13.664 130.619 13.664C132.043 13.664 133.211 13.552 134.123 13.328V23.768ZM141.573 13.592H144.405V14.072H141.573V23.768C141.573 24.248 141.653 24.592 141.813 24.8C141.989 24.992 142.261 25.088 142.629 25.088C143.317 25.088 143.861 24.608 144.261 23.648L144.669 23.864C144.061 25.512 142.965 26.336 141.381 26.336C140.325 26.336 139.525 26.064 138.981 25.52C138.645 25.184 138.413 24.768 138.285 24.272C138.173 23.76 138.117 23.064 138.117 22.184V14.072H136.101V13.592H138.117V10.424C139.445 10.424 140.597 10.168 141.573 9.656V13.592ZM155.027 13.664C155.827 13.664 156.443 13.64 156.875 13.592V14.072C156.539 14.168 156.235 14.376 155.963 14.696C155.707 15 155.459 15.48 155.219 16.136L150.923 28.208C150.603 29.04 150.251 29.608 149.867 29.912C149.403 30.312 148.707 30.512 147.779 30.512C147.107 30.512 146.499 30.344 145.955 30.008C145.427 29.688 145.163 29.216 145.163 28.592C145.163 28.096 145.339 27.696 145.691 27.392C146.043 27.104 146.507 26.96 147.083 26.96C147.627 26.96 148.059 27.088 148.379 27.344C148.715 27.616 148.883 27.992 148.883 28.472C148.883 28.808 148.779 29.112 148.571 29.384C148.363 29.672 148.067 29.888 147.683 30.032C147.795 30.048 147.979 30.056 148.235 30.056C149.227 30.056 149.955 29.424 150.419 28.16L150.803 27.008L145.715 15.44C145.459 14.896 145.211 14.536 144.971 14.36C144.731 14.184 144.482 14.096 144.226 14.096V13.592C145.283 13.688 146.379 13.736 147.515 13.736C148.459 13.736 149.571 13.688 150.851 13.592V14.096C150.339 14.096 149.955 14.136 149.699 14.216C149.459 14.28 149.339 14.464 149.339 14.768C149.339 14.944 149.395 15.168 149.507 15.44L152.435 22.52L154.091 17.912C154.347 17.16 154.475 16.52 154.475 15.992C154.475 14.824 153.883 14.184 152.699 14.072V13.592C153.451 13.64 154.227 13.664 155.027 13.664Z" fill="#275B81"/>
<path d="M65.888 54.768C66.3627 54.768 66.7867 54.688 67.16 54.528C67.5333 54.368 67.848 54.144 68.104 53.856C68.3653 53.568 68.5627 53.224 68.696 52.824C68.8347 52.424 68.904 51.984 68.904 51.504V44.536H70.448V51.504C70.448 52.1653 70.3413 52.7787 70.128 53.344C69.92 53.9093 69.6187 54.4 69.224 54.816C68.8347 55.2267 68.3573 55.5493 67.792 55.784C67.2267 56.0187 66.592 56.136 65.888 56.136C65.184 56.136 64.5493 56.0187 63.984 55.784C63.4187 55.5493 62.9387 55.2267 62.544 54.816C62.1493 54.4 61.8453 53.9093 61.632 53.344C61.424 52.7787 61.32 52.1653 61.32 51.504V44.536H62.864V51.496C62.864 51.976 62.9307 52.416 63.064 52.816C63.2027 53.216 63.4 53.56 63.656 53.848C63.9173 54.136 64.2347 54.3627 64.608 54.528C64.9867 54.688 65.4133 54.768 65.888 54.768ZM77.223 49.232C77.159 49.3493 77.0603 49.408 76.927 49.408C76.847 49.408 76.7563 49.3787 76.655 49.32C76.5537 49.2613 76.4283 49.1973 76.279 49.128C76.135 49.0533 75.9617 48.9867 75.759 48.928C75.5563 48.864 75.3163 48.832 75.039 48.832C74.799 48.832 74.583 48.864 74.391 48.928C74.199 48.9867 74.0337 49.0693 73.895 49.176C73.7617 49.2827 73.6577 49.408 73.583 49.552C73.5137 49.6907 73.479 49.8427 73.479 50.008C73.479 50.216 73.5377 50.3893 73.655 50.528C73.7777 50.6667 73.9377 50.7867 74.135 50.888C74.3323 50.9893 74.5563 51.08 74.807 51.16C75.0577 51.2347 75.3137 51.3173 75.575 51.408C75.8417 51.4933 76.1003 51.5893 76.351 51.696C76.6017 51.8027 76.8257 51.936 77.023 52.096C77.2203 52.256 77.3777 52.4533 77.495 52.688C77.6177 52.9173 77.679 53.1947 77.679 53.52C77.679 53.8933 77.6123 54.24 77.479 54.56C77.3457 54.8747 77.1483 55.1493 76.887 55.384C76.6257 55.6133 76.3057 55.7947 75.927 55.928C75.5483 56.0613 75.111 56.128 74.615 56.128C74.0497 56.128 73.5377 56.0373 73.079 55.856C72.6203 55.6693 72.231 55.432 71.911 55.144L72.247 54.6C72.2897 54.5307 72.3403 54.4773 72.399 54.44C72.4577 54.4027 72.5323 54.384 72.623 54.384C72.719 54.384 72.8203 54.4213 72.927 54.496C73.0337 54.5707 73.1617 54.6533 73.311 54.744C73.4657 54.8347 73.6523 54.9173 73.871 54.992C74.0897 55.0667 74.3617 55.104 74.687 55.104C74.9643 55.104 75.207 55.0693 75.415 55C75.623 54.9253 75.7963 54.8267 75.935 54.704C76.0737 54.5813 76.175 54.44 76.239 54.28C76.3083 54.12 76.343 53.9493 76.343 53.768C76.343 53.544 76.2817 53.36 76.159 53.216C76.0417 53.0667 75.8843 52.9413 75.687 52.84C75.4897 52.7333 75.263 52.6427 75.007 52.568C74.7563 52.488 74.4977 52.4053 74.231 52.32C73.9697 52.2347 73.711 52.1387 73.455 52.032C73.2043 51.92 72.9803 51.7813 72.783 51.616C72.5857 51.4507 72.4257 51.248 72.303 51.008C72.1857 50.7627 72.127 50.4667 72.127 50.12C72.127 49.8107 72.191 49.5147 72.319 49.232C72.447 48.944 72.6337 48.6933 72.879 48.48C73.1243 48.2613 73.4257 48.088 73.783 47.96C74.1403 47.832 74.5483 47.768 75.007 47.768C75.5403 47.768 76.0177 47.8533 76.439 48.024C76.8657 48.1893 77.2337 48.4187 77.543 48.712L77.223 49.232ZM83.8169 52.352C83.1609 52.3733 82.6009 52.4267 82.1369 52.512C81.6782 52.592 81.3022 52.6987 81.0089 52.832C80.7209 52.9653 80.5102 53.1227 80.3769 53.304C80.2489 53.4853 80.1849 53.688 80.1849 53.912C80.1849 54.1253 80.2195 54.3093 80.2889 54.464C80.3582 54.6187 80.4515 54.7467 80.5689 54.848C80.6915 54.944 80.8329 55.016 80.9929 55.064C81.1582 55.1067 81.3342 55.128 81.5209 55.128C81.7715 55.128 82.0009 55.104 82.2089 55.056C82.4169 55.0027 82.6115 54.928 82.7929 54.832C82.9795 54.736 83.1555 54.6213 83.3209 54.488C83.4915 54.3547 83.6569 54.2027 83.8169 54.032V52.352ZM79.2169 49.04C79.6649 48.608 80.1475 48.2853 80.6649 48.072C81.1822 47.8587 81.7555 47.752 82.3849 47.752C82.8382 47.752 83.2409 47.8267 83.5929 47.976C83.9449 48.1253 84.2409 48.3333 84.4809 48.6C84.7209 48.8667 84.9022 49.1893 85.0249 49.568C85.1475 49.9467 85.2089 50.3627 85.2089 50.816V56H84.5769C84.4382 56 84.3315 55.9787 84.2569 55.936C84.1822 55.888 84.1235 55.7973 84.0809 55.664L83.9209 54.896C83.7075 55.0933 83.4995 55.2693 83.2969 55.424C83.0942 55.5733 82.8809 55.7013 82.6569 55.808C82.4329 55.9093 82.1929 55.9867 81.9369 56.04C81.6862 56.0987 81.4062 56.128 81.0969 56.128C80.7822 56.128 80.4862 56.0853 80.2089 56C79.9315 55.9093 79.6889 55.776 79.4809 55.6C79.2782 55.424 79.1155 55.2027 78.9929 54.936C78.8755 54.664 78.8169 54.344 78.8169 53.976C78.8169 53.656 78.9049 53.3493 79.0809 53.056C79.2569 52.7573 79.5422 52.4933 79.9369 52.264C80.3315 52.0347 80.8462 51.848 81.4809 51.704C82.1155 51.5547 82.8942 51.4693 83.8169 51.448V50.816C83.8169 50.1867 83.6809 49.712 83.4089 49.392C83.1369 49.0667 82.7395 48.904 82.2169 48.904C81.8649 48.904 81.5689 48.9493 81.3289 49.04C81.0942 49.1253 80.8889 49.224 80.7129 49.336C80.5422 49.4427 80.3929 49.5413 80.2649 49.632C80.1422 49.7173 80.0195 49.76 79.8969 49.76C79.8009 49.76 79.7182 49.736 79.6489 49.688C79.5795 49.6347 79.5209 49.5707 79.4729 49.496L79.2169 49.04ZM88.81 54.048C89.0713 54.4 89.3567 54.648 89.666 54.792C89.9807 54.936 90.3247 55.008 90.698 55.008C91.4607 55.008 92.0447 54.7387 92.45 54.2C92.8553 53.6613 93.058 52.8587 93.058 51.792C93.058 50.8 92.8767 50.072 92.514 49.608C92.1567 49.1387 91.6447 48.904 90.978 48.904C90.514 48.904 90.1087 49.0107 89.762 49.224C89.4207 49.4373 89.1033 49.7387 88.81 50.128V54.048ZM88.81 49.064C89.1513 48.6693 89.5353 48.3547 89.962 48.12C90.394 47.8853 90.89 47.768 91.45 47.768C91.9247 47.768 92.3513 47.8587 92.73 48.04C93.114 48.2213 93.4393 48.4853 93.706 48.832C93.9727 49.1733 94.1753 49.5893 94.314 50.08C94.458 50.5707 94.53 51.1227 94.53 51.736C94.53 52.392 94.45 52.9893 94.29 53.528C94.13 54.0667 93.898 54.528 93.594 54.912C93.2953 55.2907 92.93 55.5867 92.498 55.8C92.066 56.008 91.5807 56.112 91.042 56.112C90.5087 56.112 90.058 56.0133 89.69 55.816C89.3273 55.6133 89.01 55.328 88.738 54.96L88.666 55.696C88.6233 55.8987 88.5007 56 88.298 56H87.378V44.216H88.81V49.064ZM97.8351 47.896V56H96.4111V47.896H97.8351ZM98.1391 45.352C98.1391 45.4907 98.1098 45.6213 98.0511 45.744C97.9978 45.8613 97.9231 45.968 97.8271 46.064C97.7365 46.1547 97.6271 46.2267 97.4991 46.28C97.3765 46.3333 97.2458 46.36 97.1071 46.36C96.9685 46.36 96.8378 46.3333 96.7151 46.28C96.5978 46.2267 96.4938 46.1547 96.4031 46.064C96.3125 45.968 96.2405 45.8613 96.1871 45.744C96.1338 45.6213 96.1071 45.4907 96.1071 45.352C96.1071 45.2133 96.1338 45.0827 96.1871 44.96C96.2405 44.832 96.3125 44.7227 96.4031 44.632C96.4938 44.536 96.5978 44.4613 96.7151 44.408C96.8378 44.3547 96.9685 44.328 97.1071 44.328C97.2458 44.328 97.3765 44.3547 97.4991 44.408C97.6271 44.4613 97.7365 44.536 97.8271 44.632C97.9231 44.7227 97.9978 44.832 98.0511 44.96C98.1098 45.0827 98.1391 45.2133 98.1391 45.352ZM101.647 44.216V56H100.223V44.216H101.647ZM105.46 47.896V56H104.036V47.896H105.46ZM105.764 45.352C105.764 45.4907 105.735 45.6213 105.676 45.744C105.623 45.8613 105.548 45.968 105.452 46.064C105.361 46.1547 105.252 46.2267 105.124 46.28C105.001 46.3333 104.871 46.36 104.732 46.36C104.593 46.36 104.463 46.3333 104.34 46.28C104.223 46.2267 104.119 46.1547 104.028 46.064C103.937 45.968 103.865 45.8613 103.812 45.744C103.759 45.6213 103.732 45.4907 103.732 45.352C103.732 45.2133 103.759 45.0827 103.812 44.96C103.865 44.832 103.937 44.7227 104.028 44.632C104.119 44.536 104.223 44.4613 104.34 44.408C104.463 44.3547 104.593 44.328 104.732 44.328C104.871 44.328 105.001 44.3547 105.124 44.408C105.252 44.4613 105.361 44.536 105.452 44.632C105.548 44.7227 105.623 44.832 105.676 44.96C105.735 45.0827 105.764 45.2133 105.764 45.352ZM110.288 56.128C109.648 56.128 109.155 55.9493 108.808 55.592C108.467 55.2347 108.296 54.72 108.296 54.048V49.088H107.32C107.235 49.088 107.163 49.064 107.104 49.016C107.045 48.9627 107.016 48.8827 107.016 48.776V48.208L108.344 48.04L108.672 45.536C108.688 45.456 108.723 45.392 108.776 45.344C108.835 45.2907 108.909 45.264 109 45.264H109.72V48.056H112.064V49.088H109.72V53.952C109.72 54.2933 109.803 54.5467 109.968 54.712C110.133 54.8773 110.347 54.96 110.608 54.96C110.757 54.96 110.885 54.9413 110.992 54.904C111.104 54.8613 111.2 54.816 111.28 54.768C111.36 54.72 111.427 54.6773 111.48 54.64C111.539 54.5973 111.589 54.576 111.632 54.576C111.707 54.576 111.773 54.6213 111.832 54.712L112.248 55.392C112.003 55.6213 111.707 55.8027 111.36 55.936C111.013 56.064 110.656 56.128 110.288 56.128ZM120.526 47.896L116.006 58.392C115.958 58.4987 115.897 58.584 115.822 58.648C115.753 58.712 115.644 58.744 115.494 58.744H114.438L115.918 55.528L112.574 47.896H113.806C113.929 47.896 114.025 47.928 114.094 47.992C114.169 48.0507 114.22 48.1173 114.246 48.192L116.414 53.296C116.5 53.52 116.572 53.7547 116.63 54C116.705 53.7493 116.785 53.512 116.87 53.288L118.974 48.192C119.006 48.1067 119.06 48.0373 119.134 47.984C119.214 47.9253 119.302 47.896 119.398 47.896H120.526ZM127.975 56.128C127.335 56.128 126.842 55.9493 126.495 55.592C126.154 55.2347 125.983 54.72 125.983 54.048V49.088H125.007C124.922 49.088 124.85 49.064 124.791 49.016C124.733 48.9627 124.703 48.8827 124.703 48.776V48.208L126.031 48.04L126.359 45.536C126.375 45.456 126.41 45.392 126.463 45.344C126.522 45.2907 126.597 45.264 126.687 45.264H127.407V48.056H129.751V49.088H127.407V53.952C127.407 54.2933 127.49 54.5467 127.655 54.712C127.821 54.8773 128.034 54.96 128.295 54.96C128.445 54.96 128.573 54.9413 128.679 54.904C128.791 54.8613 128.887 54.816 128.967 54.768C129.047 54.72 129.114 54.6773 129.167 54.64C129.226 54.5973 129.277 54.576 129.319 54.576C129.394 54.576 129.461 54.6213 129.519 54.712L129.935 55.392C129.69 55.6213 129.394 55.8027 129.047 55.936C128.701 56.064 128.343 56.128 127.975 56.128ZM136.599 51.064C136.599 50.7333 136.551 50.432 136.455 50.16C136.364 49.8827 136.228 49.6453 136.047 49.448C135.871 49.2453 135.655 49.0907 135.399 48.984C135.143 48.872 134.852 48.816 134.527 48.816C133.844 48.816 133.303 49.016 132.903 49.416C132.508 49.8107 132.263 50.36 132.167 51.064H136.599ZM137.751 54.864C137.575 55.0773 137.364 55.264 137.119 55.424C136.874 55.5787 136.61 55.7067 136.327 55.808C136.05 55.9093 135.762 55.984 135.463 56.032C135.164 56.0853 134.868 56.112 134.575 56.112C134.015 56.112 133.498 56.0187 133.023 55.832C132.554 55.64 132.146 55.3627 131.799 55C131.458 54.632 131.191 54.1787 130.999 53.64C130.807 53.1013 130.711 52.4827 130.711 51.784C130.711 51.2187 130.796 50.6907 130.967 50.2C131.143 49.7093 131.394 49.2853 131.719 48.928C132.044 48.5653 132.442 48.2827 132.911 48.08C133.38 47.872 133.908 47.768 134.495 47.768C134.98 47.768 135.428 47.8507 135.839 48.016C136.255 48.176 136.612 48.4107 136.911 48.72C137.215 49.024 137.452 49.4027 137.623 49.856C137.794 50.304 137.879 50.816 137.879 51.392C137.879 51.616 137.855 51.7653 137.807 51.84C137.759 51.9147 137.668 51.952 137.535 51.952H132.119C132.135 52.464 132.204 52.9093 132.327 53.288C132.455 53.6667 132.631 53.984 132.855 54.24C133.079 54.4907 133.346 54.68 133.655 54.808C133.964 54.9307 134.311 54.992 134.695 54.992C135.052 54.992 135.359 54.952 135.615 54.872C135.876 54.7867 136.1 54.696 136.287 54.6C136.474 54.504 136.628 54.416 136.751 54.336C136.879 54.2507 136.988 54.208 137.079 54.208C137.196 54.208 137.287 54.2533 137.351 54.344L137.751 54.864ZM144.348 49.232C144.284 49.3493 144.185 49.408 144.052 49.408C143.972 49.408 143.881 49.3787 143.78 49.32C143.679 49.2613 143.553 49.1973 143.404 49.128C143.26 49.0533 143.087 48.9867 142.884 48.928C142.681 48.864 142.441 48.832 142.164 48.832C141.924 48.832 141.708 48.864 141.516 48.928C141.324 48.9867 141.159 49.0693 141.02 49.176C140.887 49.2827 140.783 49.408 140.708 49.552C140.639 49.6907 140.604 49.8427 140.604 50.008C140.604 50.216 140.663 50.3893 140.78 50.528C140.903 50.6667 141.063 50.7867 141.26 50.888C141.457 50.9893 141.681 51.08 141.932 51.16C142.183 51.2347 142.439 51.3173 142.7 51.408C142.967 51.4933 143.225 51.5893 143.476 51.696C143.727 51.8027 143.951 51.936 144.148 52.096C144.345 52.256 144.503 52.4533 144.62 52.688C144.743 52.9173 144.804 53.1947 144.804 53.52C144.804 53.8933 144.737 54.24 144.604 54.56C144.471 54.8747 144.273 55.1493 144.012 55.384C143.751 55.6133 143.431 55.7947 143.052 55.928C142.673 56.0613 142.236 56.128 141.74 56.128C141.175 56.128 140.663 56.0373 140.204 55.856C139.745 55.6693 139.356 55.432 139.036 55.144L139.372 54.6C139.415 54.5307 139.465 54.4773 139.524 54.44C139.583 54.4027 139.657 54.384 139.748 54.384C139.844 54.384 139.945 54.4213 140.052 54.496C140.159 54.5707 140.287 54.6533 140.436 54.744C140.591 54.8347 140.777 54.9173 140.996 54.992C141.215 55.0667 141.487 55.104 141.812 55.104C142.089 55.104 142.332 55.0693 142.54 55C142.748 54.9253 142.921 54.8267 143.06 54.704C143.199 54.5813 143.3 54.44 143.364 54.28C143.433 54.12 143.468 53.9493 143.468 53.768C143.468 53.544 143.407 53.36 143.284 53.216C143.167 53.0667 143.009 52.9413 142.812 52.84C142.615 52.7333 142.388 52.6427 142.132 52.568C141.881 52.488 141.623 52.4053 141.356 52.32C141.095 52.2347 140.836 52.1387 140.58 52.032C140.329 51.92 140.105 51.7813 139.908 51.616C139.711 51.4507 139.551 51.248 139.428 51.008C139.311 50.7627 139.252 50.4667 139.252 50.12C139.252 49.8107 139.316 49.5147 139.444 49.232C139.572 48.944 139.759 48.6933 140.004 48.48C140.249 48.2613 140.551 48.088 140.908 47.96C141.265 47.832 141.673 47.768 142.132 47.768C142.665 47.768 143.143 47.8533 143.564 48.024C143.991 48.1893 144.359 48.4187 144.668 48.712L144.348 49.232ZM154.07 56H152.646V49.088H148.47V53.952C148.47 54.2933 148.553 54.5467 148.718 54.712C148.883 54.8773 149.097 54.96 149.358 54.96C149.507 54.96 149.635 54.9413 149.742 54.904C149.854 54.8613 149.95 54.816 150.03 54.768C150.11 54.72 150.177 54.6773 150.23 54.64C150.289 54.5973 150.339 54.576 150.382 54.576C150.457 54.576 150.523 54.6213 150.582 54.712L150.998 55.392C150.753 55.6213 150.457 55.8027 150.11 55.936C149.763 56.064 149.406 56.128 149.038 56.128C148.398 56.128 147.905 55.9493 147.558 55.592C147.217 55.2347 147.046 54.72 147.046 54.048V49.088H146.07C145.985 49.088 145.913 49.064 145.854 49.016C145.795 48.9627 145.766 48.8827 145.766 48.776V48.208L147.094 48.032L147.422 45.536C147.438 45.456 147.473 45.392 147.526 45.344C147.585 45.2907 147.659 45.264 147.75 45.264H148.47V48.056H154.07V56ZM154.422 45.296C154.422 45.4347 154.393 45.5653 154.334 45.688C154.281 45.8053 154.206 45.9093 154.11 46C154.019 46.0907 153.913 46.1627 153.79 46.216C153.667 46.2693 153.537 46.296 153.398 46.296C153.259 46.296 153.129 46.2693 153.006 46.216C152.889 46.1627 152.785 46.0907 152.694 46C152.603 45.9093 152.531 45.8053 152.478 45.688C152.425 45.5653 152.398 45.4347 152.398 45.296C152.398 45.1573 152.425 45.0267 152.478 44.904C152.531 44.776 152.603 44.6667 152.694 44.576C152.785 44.48 152.889 44.4053 153.006 44.352C153.129 44.2987 153.259 44.272 153.398 44.272C153.537 44.272 153.667 44.2987 153.79 44.352C153.913 44.4053 154.019 44.48 154.11 44.576C154.206 44.6667 154.281 44.776 154.334 44.904C154.393 45.0267 154.422 45.1573 154.422 45.296ZM157.753 49.072C157.929 48.8747 158.116 48.696 158.313 48.536C158.511 48.376 158.719 48.24 158.937 48.128C159.161 48.0107 159.396 47.9227 159.641 47.864C159.892 47.8 160.161 47.768 160.449 47.768C160.892 47.768 161.281 47.8427 161.617 47.992C161.959 48.136 162.241 48.344 162.465 48.616C162.695 48.8827 162.868 49.2053 162.985 49.584C163.103 49.9627 163.161 50.3813 163.161 50.84V56H161.729V50.84C161.729 50.2267 161.588 49.752 161.305 49.416C161.028 49.0747 160.604 48.904 160.033 48.904C159.612 48.904 159.217 49.0053 158.849 49.208C158.487 49.4107 158.151 49.6853 157.841 50.032V56H156.409V47.896H157.265C157.468 47.896 157.593 47.9947 157.641 48.192L157.753 49.072ZM168.155 52.04C168.443 52.04 168.696 52 168.915 51.92C169.134 51.84 169.318 51.728 169.467 51.584C169.616 51.44 169.728 51.2693 169.803 51.072C169.878 50.8693 169.915 50.648 169.915 50.408C169.915 49.912 169.763 49.5173 169.459 49.224C169.16 48.9307 168.726 48.784 168.155 48.784C167.579 48.784 167.139 48.9307 166.835 49.224C166.536 49.5173 166.387 49.912 166.387 50.408C166.387 50.648 166.424 50.8693 166.499 51.072C166.579 51.2693 166.694 51.44 166.843 51.584C166.992 51.728 167.176 51.84 167.395 51.92C167.614 52 167.867 52.04 168.155 52.04ZM170.723 56.44C170.723 56.2427 170.667 56.0827 170.555 55.96C170.443 55.8373 170.291 55.7413 170.099 55.672C169.912 55.6027 169.694 55.5547 169.443 55.528C169.192 55.496 168.926 55.472 168.643 55.456C168.366 55.44 168.083 55.424 167.795 55.408C167.507 55.392 167.23 55.3653 166.963 55.328C166.664 55.4667 166.419 55.6427 166.227 55.856C166.04 56.064 165.947 56.3093 165.947 56.592C165.947 56.7733 165.992 56.9413 166.083 57.096C166.179 57.256 166.323 57.392 166.515 57.504C166.707 57.6213 166.947 57.712 167.235 57.776C167.528 57.8453 167.872 57.88 168.267 57.88C168.651 57.88 168.995 57.8453 169.299 57.776C169.603 57.7067 169.859 57.608 170.067 57.48C170.28 57.352 170.443 57.2 170.555 57.024C170.667 56.848 170.723 56.6533 170.723 56.44ZM172.171 48.216V48.744C172.171 48.92 172.059 49.032 171.835 49.08L170.915 49.2C171.096 49.552 171.187 49.9413 171.187 50.368C171.187 50.7627 171.11 51.1227 170.955 51.448C170.806 51.768 170.598 52.0427 170.331 52.272C170.064 52.5013 169.744 52.6773 169.371 52.8C168.998 52.9227 168.592 52.984 168.155 52.984C167.776 52.984 167.419 52.9387 167.083 52.848C166.912 52.9547 166.782 53.0693 166.691 53.192C166.6 53.3093 166.555 53.4293 166.555 53.552C166.555 53.744 166.632 53.8907 166.787 53.992C166.947 54.088 167.155 54.1573 167.411 54.2C167.667 54.2427 167.958 54.2693 168.283 54.28C168.614 54.2907 168.95 54.3093 169.291 54.336C169.638 54.3573 169.974 54.3973 170.299 54.456C170.63 54.5147 170.923 54.6107 171.179 54.744C171.435 54.8773 171.64 55.0613 171.795 55.296C171.955 55.5307 172.035 55.8347 172.035 56.208C172.035 56.5547 171.947 56.8907 171.771 57.216C171.6 57.5413 171.352 57.8293 171.027 58.08C170.702 58.336 170.302 58.5387 169.827 58.688C169.358 58.8427 168.827 58.92 168.235 58.92C167.643 58.92 167.126 58.8613 166.683 58.744C166.24 58.6267 165.872 58.4693 165.579 58.272C165.286 58.0747 165.064 57.8453 164.915 57.584C164.771 57.328 164.699 57.0587 164.699 56.776C164.699 56.376 164.824 56.0373 165.075 55.76C165.326 55.4827 165.67 55.2613 166.107 55.096C165.867 54.9893 165.675 54.848 165.531 54.672C165.392 54.4907 165.323 54.248 165.323 53.944C165.323 53.8267 165.344 53.7067 165.387 53.584C165.43 53.456 165.494 53.3307 165.579 53.208C165.67 53.08 165.779 52.96 165.907 52.848C166.035 52.736 166.184 52.6373 166.355 52.552C165.955 52.328 165.643 52.032 165.419 51.664C165.195 51.2907 165.083 50.8587 165.083 50.368C165.083 49.9733 165.158 49.616 165.307 49.296C165.462 48.9707 165.675 48.696 165.947 48.472C166.219 48.2427 166.542 48.0667 166.915 47.944C167.294 47.8213 167.707 47.76 168.155 47.76C168.507 47.76 168.835 47.8 169.139 47.88C169.443 47.9547 169.72 48.0667 169.971 48.216H172.171ZM67.552 76.744L65.752 72.08C65.6987 71.9413 65.6427 71.7813 65.584 71.6C65.5253 71.4133 65.4693 71.216 65.416 71.008C65.304 71.44 65.1893 71.8 65.072 72.088L63.272 76.744H67.552ZM70.784 81H69.584C69.4453 81 69.3333 80.9653 69.248 80.896C69.1627 80.8267 69.0987 80.7387 69.056 80.632L67.984 77.864H62.84L61.768 80.632C61.736 80.728 61.6747 80.8133 61.584 80.888C61.4933 80.9627 61.3813 81 61.248 81H60.048L64.632 69.536H66.2L70.784 81ZM72.1408 81V74.112L71.2448 74.008C71.1274 73.9813 71.0341 73.9413 70.9648 73.888C70.8954 73.8293 70.8608 73.7467 70.8608 73.64V73.056H72.1408V72.392C72.1408 71.928 72.2048 71.5173 72.3328 71.16C72.4661 70.7973 72.6528 70.4933 72.8928 70.248C73.1328 69.9973 73.4234 69.808 73.7648 69.68C74.1061 69.552 74.4901 69.488 74.9168 69.488C75.2794 69.488 75.6154 69.5413 75.9248 69.648L75.8848 70.368C75.8741 70.496 75.8048 70.5653 75.6768 70.576C75.5488 70.5867 75.3728 70.592 75.1488 70.592C74.9034 70.592 74.6794 70.624 74.4768 70.688C74.2794 70.7467 74.1088 70.848 73.9648 70.992C73.8261 71.136 73.7168 71.328 73.6368 71.568C73.5621 71.8027 73.5248 72.0933 73.5248 72.44V73.056H77.1808V72.608C77.1808 72.112 77.2581 71.6587 77.4128 71.248C77.5674 70.832 77.7994 70.4747 78.1088 70.176C78.4181 69.8773 78.8021 69.6453 79.2608 69.48C79.7248 69.3147 80.2608 69.232 80.8688 69.232C81.0714 69.232 81.2794 69.2453 81.4928 69.272C81.7061 69.2987 81.8901 69.3387 82.0448 69.392L81.9888 70.136C81.9834 70.1893 81.9621 70.2267 81.9248 70.248C81.8928 70.2693 81.8474 70.2827 81.7888 70.288C81.7301 70.2933 81.6554 70.296 81.5648 70.296C81.4794 70.2907 81.3808 70.288 81.2688 70.288C80.3194 70.288 79.6314 70.4853 79.2048 70.88C78.7781 71.2693 78.5648 71.8587 78.5648 72.648V73.056H83.4608V81H82.0288V74.088H78.6048V81H77.1808V74.088H73.5648V81H72.1408ZM87.1439 74.072C87.3199 73.8747 87.5065 73.696 87.7039 73.536C87.9012 73.376 88.1092 73.24 88.3279 73.128C88.5519 73.0107 88.7865 72.9227 89.0319 72.864C89.2825 72.8 89.5519 72.768 89.8399 72.768C90.2825 72.768 90.6719 72.8427 91.0079 72.992C91.3492 73.136 91.6319 73.344 91.8559 73.616C92.0852 73.8827 92.2585 74.2053 92.3759 74.584C92.4932 74.9627 92.5519 75.3813 92.5519 75.84V81H91.1199V75.84C91.1199 75.2267 90.9785 74.752 90.6959 74.416C90.4185 74.0747 89.9945 73.904 89.4239 73.904C89.0025 73.904 88.6079 74.0053 88.2399 74.208C87.8772 74.4107 87.5412 74.6853 87.2319 75.032V81H85.7999V72.896H86.6559C86.8585 72.896 86.9839 72.9947 87.0319 73.192L87.1439 74.072ZM96.2258 72.896V81H94.8018V72.896H96.2258ZM96.5298 70.352C96.5298 70.4907 96.5004 70.6213 96.4418 70.744C96.3884 70.8613 96.3138 70.968 96.2178 71.064C96.1271 71.1547 96.0178 71.2267 95.8898 71.28C95.7671 71.3333 95.6364 71.36 95.4978 71.36C95.3591 71.36 95.2284 71.3333 95.1058 71.28C94.9884 71.2267 94.8844 71.1547 94.7938 71.064C94.7031 70.968 94.6311 70.8613 94.5778 70.744C94.5244 70.6213 94.4978 70.4907 94.4978 70.352C94.4978 70.2133 94.5244 70.0827 94.5778 69.96C94.6311 69.832 94.7031 69.7227 94.7938 69.632C94.8844 69.536 94.9884 69.4613 95.1058 69.408C95.2284 69.3547 95.3591 69.328 95.4978 69.328C95.6364 69.328 95.7671 69.3547 95.8898 69.408C96.0178 69.4613 96.1271 69.536 96.2178 69.632C96.3138 69.7227 96.3884 69.832 96.4418 69.96C96.5004 70.0827 96.5298 70.2133 96.5298 70.352ZM101.054 81.128C100.414 81.128 99.9202 80.9493 99.5735 80.592C99.2322 80.2347 99.0615 79.72 99.0615 79.048V74.088H98.0855C98.0002 74.088 97.9282 74.064 97.8695 74.016C97.8108 73.9627 97.7815 73.8827 97.7815 73.776V73.208L99.1095 73.04L99.4375 70.536C99.4535 70.456 99.4882 70.392 99.5415 70.344C99.6002 70.2907 99.6748 70.264 99.7655 70.264H100.486V73.056H102.83V74.088H100.486V78.952C100.486 79.2933 100.568 79.5467 100.734 79.712C100.899 79.8773 101.112 79.96 101.374 79.96C101.523 79.96 101.651 79.9413 101.758 79.904C101.87 79.8613 101.966 79.816 102.046 79.768C102.126 79.72 102.192 79.6773 102.246 79.64C102.304 79.5973 102.355 79.576 102.398 79.576C102.472 79.576 102.539 79.6213 102.598 79.712L103.014 80.392C102.768 80.6213 102.472 80.8027 102.126 80.936C101.779 81.064 101.422 81.128 101.054 81.128ZM111.292 72.896L106.772 83.392C106.724 83.4987 106.663 83.584 106.588 83.648C106.519 83.712 106.409 83.744 106.26 83.744H105.204L106.684 80.528L103.34 72.896H104.572C104.695 72.896 104.791 72.928 104.86 72.992C104.935 73.0507 104.985 73.1173 105.012 73.192L107.18 78.296C107.265 78.52 107.337 78.7547 107.396 79C107.471 78.7493 107.551 78.512 107.636 78.288L109.74 73.192C109.772 73.1067 109.825 73.0373 109.9 72.984C109.98 72.9253 110.068 72.896 110.164 72.896H111.292ZM116.253 81V72.896H117.109C117.312 72.896 117.437 72.9947 117.485 73.192L117.589 74.024C117.888 73.656 118.224 73.3547 118.597 73.12C118.97 72.8853 119.402 72.768 119.893 72.768C120.437 72.768 120.877 72.92 121.213 73.224C121.554 73.528 121.8 73.9387 121.949 74.456C122.066 74.1627 122.216 73.9093 122.397 73.696C122.584 73.4827 122.792 73.3067 123.021 73.168C123.25 73.0293 123.493 72.928 123.749 72.864C124.01 72.8 124.274 72.768 124.541 72.768C124.968 72.768 125.346 72.8373 125.677 72.976C126.013 73.1093 126.296 73.3067 126.525 73.568C126.76 73.8293 126.938 74.152 127.061 74.536C127.184 74.9147 127.245 75.3493 127.245 75.84V81H125.813V75.84C125.813 75.2053 125.674 74.7253 125.397 74.4C125.12 74.0693 124.72 73.904 124.197 73.904C123.962 73.904 123.738 73.9467 123.525 74.032C123.317 74.112 123.133 74.232 122.973 74.392C122.813 74.552 122.685 74.7547 122.589 75C122.498 75.24 122.453 75.52 122.453 75.84V81H121.021V75.84C121.021 75.1893 120.89 74.704 120.629 74.384C120.368 74.064 119.986 73.904 119.485 73.904C119.133 73.904 118.808 74 118.509 74.192C118.21 74.3787 117.936 74.6347 117.685 74.96V81H116.253ZM133.801 77.352C133.145 77.3733 132.585 77.4267 132.121 77.512C131.663 77.592 131.287 77.6987 130.993 77.832C130.705 77.9653 130.495 78.1227 130.361 78.304C130.233 78.4853 130.169 78.688 130.169 78.912C130.169 79.1253 130.204 79.3093 130.273 79.464C130.343 79.6187 130.436 79.7467 130.553 79.848C130.676 79.944 130.817 80.016 130.977 80.064C131.143 80.1067 131.319 80.128 131.505 80.128C131.756 80.128 131.985 80.104 132.193 80.056C132.401 80.0027 132.596 79.928 132.777 79.832C132.964 79.736 133.14 79.6213 133.305 79.488C133.476 79.3547 133.641 79.2027 133.801 79.032V77.352ZM129.201 74.04C129.649 73.608 130.132 73.2853 130.649 73.072C131.167 72.8587 131.74 72.752 132.369 72.752C132.823 72.752 133.225 72.8267 133.577 72.976C133.929 73.1253 134.225 73.3333 134.465 73.6C134.705 73.8667 134.887 74.1893 135.009 74.568C135.132 74.9467 135.193 75.3627 135.193 75.816V81H134.561C134.423 81 134.316 80.9787 134.241 80.936C134.167 80.888 134.108 80.7973 134.065 80.664L133.905 79.896C133.692 80.0933 133.484 80.2693 133.281 80.424C133.079 80.5733 132.865 80.7013 132.641 80.808C132.417 80.9093 132.177 80.9867 131.921 81.04C131.671 81.0987 131.391 81.128 131.081 81.128C130.767 81.128 130.471 81.0853 130.193 81C129.916 80.9093 129.673 80.776 129.465 80.6C129.263 80.424 129.1 80.2027 128.977 79.936C128.86 79.664 128.801 79.344 128.801 78.976C128.801 78.656 128.889 78.3493 129.065 78.056C129.241 77.7573 129.527 77.4933 129.921 77.264C130.316 77.0347 130.831 76.848 131.465 76.704C132.1 76.5547 132.879 76.4693 133.801 76.448V75.816C133.801 75.1867 133.665 74.712 133.393 74.392C133.121 74.0667 132.724 73.904 132.201 73.904C131.849 73.904 131.553 73.9493 131.313 74.04C131.079 74.1253 130.873 74.224 130.697 74.336C130.527 74.4427 130.377 74.5413 130.249 74.632C130.127 74.7173 130.004 74.76 129.881 74.76C129.785 74.76 129.703 74.736 129.633 74.688C129.564 74.6347 129.505 74.5707 129.457 74.496L129.201 74.04ZM138.794 79.048C139.056 79.4 139.341 79.648 139.65 79.792C139.96 79.936 140.306 80.008 140.69 80.008C141.448 80.008 142.029 79.7387 142.434 79.2C142.84 78.6613 143.042 77.8933 143.042 76.896C143.042 76.368 142.994 75.9147 142.898 75.536C142.808 75.1573 142.674 74.848 142.498 74.608C142.322 74.3627 142.106 74.184 141.85 74.072C141.594 73.96 141.304 73.904 140.978 73.904C140.514 73.904 140.106 74.0107 139.754 74.224C139.408 74.4373 139.088 74.7387 138.794 75.128V79.048ZM138.722 74.152C139.064 73.7307 139.458 73.392 139.906 73.136C140.354 72.88 140.866 72.752 141.442 72.752C141.912 72.752 142.336 72.8427 142.714 73.024C143.093 73.2 143.416 73.464 143.682 73.816C143.949 74.1627 144.154 74.5947 144.298 75.112C144.442 75.6293 144.514 76.224 144.514 76.896C144.514 77.4933 144.434 78.0507 144.274 78.568C144.114 79.08 143.882 79.5253 143.578 79.904C143.28 80.2773 142.912 80.5733 142.474 80.792C142.042 81.0053 141.554 81.112 141.01 81.112C140.514 81.112 140.088 81.0293 139.73 80.864C139.378 80.6933 139.066 80.4587 138.794 80.16V83.744H137.362V72.896H138.218C138.421 72.896 138.546 72.9947 138.594 73.192L138.722 74.152ZM147.763 79.048C148.024 79.4 148.31 79.648 148.619 79.792C148.928 79.936 149.275 80.008 149.659 80.008C150.416 80.008 150.998 79.7387 151.403 79.2C151.808 78.6613 152.011 77.8933 152.011 76.896C152.011 76.368 151.963 75.9147 151.867 75.536C151.776 75.1573 151.643 74.848 151.467 74.608C151.291 74.3627 151.075 74.184 150.819 74.072C150.563 73.96 150.272 73.904 149.947 73.904C149.483 73.904 149.075 74.0107 148.723 74.224C148.376 74.4373 148.056 74.7387 147.763 75.128V79.048ZM147.691 74.152C148.032 73.7307 148.427 73.392 148.875 73.136C149.323 72.88 149.835 72.752 150.411 72.752C150.88 72.752 151.304 72.8427 151.683 73.024C152.062 73.2 152.384 73.464 152.651 73.816C152.918 74.1627 153.123 74.5947 153.267 75.112C153.411 75.6293 153.483 76.224 153.483 76.896C153.483 77.4933 153.403 78.0507 153.243 78.568C153.083 79.08 152.851 79.5253 152.547 79.904C152.248 80.2773 151.88 80.5733 151.443 80.792C151.011 81.0053 150.523 81.112 149.979 81.112C149.483 81.112 149.056 81.0293 148.699 80.864C148.347 80.6933 148.035 80.4587 147.763 80.16V83.744H146.331V72.896H147.187C147.39 72.896 147.515 72.9947 147.563 73.192L147.691 74.152ZM156.804 72.896V81H155.38V72.896H156.804ZM157.108 70.352C157.108 70.4907 157.079 70.6213 157.02 70.744C156.967 70.8613 156.892 70.968 156.796 71.064C156.705 71.1547 156.596 71.2267 156.468 71.28C156.345 71.3333 156.215 71.36 156.076 71.36C155.937 71.36 155.807 71.3333 155.684 71.28C155.567 71.2267 155.463 71.1547 155.372 71.064C155.281 70.968 155.209 70.8613 155.156 70.744C155.103 70.6213 155.076 70.4907 155.076 70.352C155.076 70.2133 155.103 70.0827 155.156 69.96C155.209 69.832 155.281 69.7227 155.372 69.632C155.463 69.536 155.567 69.4613 155.684 69.408C155.807 69.3547 155.937 69.328 156.076 69.328C156.215 69.328 156.345 69.3547 156.468 69.408C156.596 69.4613 156.705 69.536 156.796 69.632C156.892 69.7227 156.967 69.832 157.02 69.96C157.079 70.0827 157.108 70.2133 157.108 70.352ZM160.488 74.072C160.664 73.8747 160.85 73.696 161.048 73.536C161.245 73.376 161.453 73.24 161.672 73.128C161.896 73.0107 162.13 72.9227 162.376 72.864C162.626 72.8 162.896 72.768 163.184 72.768C163.626 72.768 164.016 72.8427 164.352 72.992C164.693 73.136 164.976 73.344 165.2 73.616C165.429 73.8827 165.602 74.2053 165.72 74.584C165.837 74.9627 165.896 75.3813 165.896 75.84V81H164.464V75.84C164.464 75.2267 164.322 74.752 164.04 74.416C163.762 74.0747 163.338 73.904 162.768 73.904C162.346 73.904 161.952 74.0053 161.584 74.208C161.221 74.4107 160.885 74.6853 160.576 75.032V81H159.144V72.896H160C160.202 72.896 160.328 72.9947 160.376 73.192L160.488 74.072ZM170.89 77.04C171.178 77.04 171.431 77 171.65 76.92C171.868 76.84 172.052 76.728 172.202 76.584C172.351 76.44 172.463 76.2693 172.538 76.072C172.612 75.8693 172.65 75.648 172.65 75.408C172.65 74.912 172.498 74.5173 172.194 74.224C171.895 73.9307 171.46 73.784 170.89 73.784C170.314 73.784 169.874 73.9307 169.57 74.224C169.271 74.5173 169.122 74.912 169.122 75.408C169.122 75.648 169.159 75.8693 169.234 76.072C169.314 76.2693 169.428 76.44 169.578 76.584C169.727 76.728 169.911 76.84 170.13 76.92C170.348 77 170.602 77.04 170.89 77.04ZM173.458 81.44C173.458 81.2427 173.402 81.0827 173.29 80.96C173.178 80.8373 173.026 80.7413 172.834 80.672C172.647 80.6027 172.428 80.5547 172.178 80.528C171.927 80.496 171.66 80.472 171.378 80.456C171.1 80.44 170.818 80.424 170.53 80.408C170.242 80.392 169.964 80.3653 169.698 80.328C169.399 80.4667 169.154 80.6427 168.962 80.856C168.775 81.064 168.682 81.3093 168.682 81.592C168.682 81.7733 168.727 81.9413 168.818 82.096C168.914 82.256 169.058 82.392 169.25 82.504C169.442 82.6213 169.682 82.712 169.97 82.776C170.263 82.8453 170.607 82.88 171.002 82.88C171.386 82.88 171.73 82.8453 172.034 82.776C172.338 82.7067 172.594 82.608 172.802 82.48C173.015 82.352 173.178 82.2 173.29 82.024C173.402 81.848 173.458 81.6533 173.458 81.44ZM174.906 73.216V73.744C174.906 73.92 174.794 74.032 174.57 74.08L173.65 74.2C173.831 74.552 173.922 74.9413 173.922 75.368C173.922 75.7627 173.844 76.1227 173.69 76.448C173.54 76.768 173.332 77.0427 173.066 77.272C172.799 77.5013 172.479 77.6773 172.106 77.8C171.732 77.9227 171.327 77.984 170.89 77.984C170.511 77.984 170.154 77.9387 169.818 77.848C169.647 77.9547 169.516 78.0693 169.426 78.192C169.335 78.3093 169.289 78.4293 169.289 78.552C169.289 78.744 169.367 78.8907 169.522 78.992C169.682 79.088 169.89 79.1573 170.146 79.2C170.402 79.2427 170.692 79.2693 171.018 79.28C171.348 79.2907 171.684 79.3093 172.026 79.336C172.372 79.3573 172.708 79.3973 173.034 79.456C173.364 79.5147 173.658 79.6107 173.914 79.744C174.17 79.8773 174.375 80.0613 174.53 80.296C174.69 80.5307 174.77 80.8347 174.77 81.208C174.77 81.5547 174.682 81.8907 174.506 82.216C174.335 82.5413 174.087 82.8293 173.762 83.08C173.436 83.336 173.036 83.5387 172.562 83.688C172.092 83.8427 171.562 83.92 170.97 83.92C170.378 83.92 169.86 83.8613 169.418 83.744C168.975 83.6267 168.607 83.4693 168.314 83.272C168.02 83.0747 167.799 82.8453 167.65 82.584C167.506 82.328 167.434 82.0587 167.434 81.776C167.434 81.376 167.559 81.0373 167.81 80.76C168.06 80.4827 168.404 80.2613 168.842 80.096C168.602 79.9893 168.41 79.848 168.266 79.672C168.127 79.4907 168.058 79.248 168.058 78.944C168.058 78.8267 168.079 78.7067 168.122 78.584C168.164 78.456 168.228 78.3307 168.314 78.208C168.404 78.08 168.514 77.96 168.642 77.848C168.77 77.736 168.919 77.6373 169.09 77.552C168.69 77.328 168.378 77.032 168.154 76.664C167.93 76.2907 167.818 75.8587 167.818 75.368C167.818 74.9733 167.892 74.616 168.042 74.296C168.196 73.9707 168.41 73.696 168.682 73.472C168.954 73.2427 169.276 73.0667 169.65 72.944C170.028 72.8213 170.442 72.76 170.89 72.76C171.242 72.76 171.57 72.8 171.874 72.88C172.178 72.9547 172.455 73.0667 172.706 73.216H174.906ZM71.4 100.272C71.4 101.131 71.264 101.912 70.992 102.616C70.72 103.32 70.336 103.923 69.84 104.424C69.344 104.925 68.7467 105.315 68.048 105.592C67.3547 105.864 66.5867 106 65.744 106H61.464V94.536H65.744C66.5867 94.536 67.3547 94.6747 68.048 94.952C68.7467 95.224 69.344 95.6133 69.84 96.12C70.336 96.6213 70.72 97.224 70.992 97.928C71.264 98.632 71.4 99.4133 71.4 100.272ZM69.808 100.272C69.808 99.568 69.712 98.9387 69.52 98.384C69.328 97.8293 69.056 97.36 68.704 96.976C68.352 96.592 67.9253 96.2987 67.424 96.096C66.9227 95.8933 66.3627 95.792 65.744 95.792H63.016V104.744H65.744C66.3627 104.744 66.9227 104.643 67.424 104.44C67.9253 104.237 68.352 103.947 68.704 103.568C69.056 103.184 69.328 102.715 69.52 102.16C69.712 101.605 69.808 100.976 69.808 100.272ZM78.6145 101.064C78.6145 100.733 78.5665 100.432 78.4705 100.16C78.3798 99.8827 78.2438 99.6453 78.0625 99.448C77.8865 99.2453 77.6705 99.0907 77.4145 98.984C77.1585 98.872 76.8678 98.816 76.5425 98.816C75.8598 98.816 75.3185 99.016 74.9185 99.416C74.5238 99.8107 74.2785 100.36 74.1825 101.064H78.6145ZM79.7665 104.864C79.5905 105.077 79.3798 105.264 79.1345 105.424C78.8892 105.579 78.6252 105.707 78.3425 105.808C78.0652 105.909 77.7772 105.984 77.4785 106.032C77.1798 106.085 76.8838 106.112 76.5905 106.112C76.0305 106.112 75.5132 106.019 75.0385 105.832C74.5692 105.64 74.1612 105.363 73.8145 105C73.4732 104.632 73.2065 104.179 73.0145 103.64C72.8225 103.101 72.7265 102.483 72.7265 101.784C72.7265 101.219 72.8118 100.691 72.9825 100.2C73.1585 99.7093 73.4092 99.2853 73.7345 98.928C74.0598 98.5653 74.4572 98.2827 74.9265 98.08C75.3958 97.872 75.9238 97.768 76.5105 97.768C76.9958 97.768 77.4438 97.8507 77.8545 98.016C78.2705 98.176 78.6278 98.4107 78.9265 98.72C79.2305 99.024 79.4678 99.4027 79.6385 99.856C79.8092 100.304 79.8945 100.816 79.8945 101.392C79.8945 101.616 79.8705 101.765 79.8225 101.84C79.7745 101.915 79.6838 101.952 79.5505 101.952H74.1345C74.1505 102.464 74.2198 102.909 74.3425 103.288C74.4705 103.667 74.6465 103.984 74.8705 104.24C75.0945 104.491 75.3612 104.68 75.6705 104.808C75.9798 104.931 76.3265 104.992 76.7105 104.992C77.0678 104.992 77.3745 104.952 77.6305 104.872C77.8918 104.787 78.1158 104.696 78.3025 104.6C78.4892 104.504 78.6438 104.416 78.7665 104.336C78.8945 104.251 79.0038 104.208 79.0945 104.208C79.2118 104.208 79.3025 104.253 79.3665 104.344L79.7665 104.864ZM86.3636 99.232C86.2996 99.3493 86.201 99.408 86.0676 99.408C85.9876 99.408 85.897 99.3787 85.7956 99.32C85.6943 99.2613 85.569 99.1973 85.4196 99.128C85.2756 99.0533 85.1023 98.9867 84.8996 98.928C84.697 98.864 84.457 98.832 84.1796 98.832C83.9396 98.832 83.7236 98.864 83.5316 98.928C83.3396 98.9867 83.1743 99.0693 83.0356 99.176C82.9023 99.2827 82.7983 99.408 82.7236 99.552C82.6543 99.6907 82.6196 99.8427 82.6196 100.008C82.6196 100.216 82.6783 100.389 82.7956 100.528C82.9183 100.667 83.0783 100.787 83.2756 100.888C83.473 100.989 83.697 101.08 83.9476 101.16C84.1983 101.235 84.4543 101.317 84.7156 101.408C84.9823 101.493 85.241 101.589 85.4916 101.696C85.7423 101.803 85.9663 101.936 86.1636 102.096C86.361 102.256 86.5183 102.453 86.6356 102.688C86.7583 102.917 86.8196 103.195 86.8196 103.52C86.8196 103.893 86.753 104.24 86.6196 104.56C86.4863 104.875 86.289 105.149 86.0276 105.384C85.7663 105.613 85.4463 105.795 85.0676 105.928C84.689 106.061 84.2516 106.128 83.7556 106.128C83.1903 106.128 82.6783 106.037 82.2196 105.856C81.761 105.669 81.3716 105.432 81.0516 105.144L81.3876 104.6C81.4303 104.531 81.481 104.477 81.5396 104.44C81.5983 104.403 81.673 104.384 81.7636 104.384C81.8596 104.384 81.961 104.421 82.0676 104.496C82.1743 104.571 82.3023 104.653 82.4516 104.744C82.6063 104.835 82.793 104.917 83.0116 104.992C83.2303 105.067 83.5023 105.104 83.8276 105.104C84.105 105.104 84.3476 105.069 84.5556 105C84.7636 104.925 84.937 104.827 85.0756 104.704C85.2143 104.581 85.3156 104.44 85.3796 104.28C85.449 104.12 85.4836 103.949 85.4836 103.768C85.4836 103.544 85.4223 103.36 85.2996 103.216C85.1823 103.067 85.025 102.941 84.8276 102.84C84.6303 102.733 84.4036 102.643 84.1476 102.568C83.897 102.488 83.6383 102.405 83.3716 102.32C83.1103 102.235 82.8516 102.139 82.5956 102.032C82.345 101.92 82.121 101.781 81.9236 101.616C81.7263 101.451 81.5663 101.248 81.4436 101.008C81.3263 100.763 81.2676 100.467 81.2676 100.12C81.2676 99.8107 81.3316 99.5147 81.4596 99.232C81.5876 98.944 81.7743 98.6933 82.0196 98.48C82.265 98.2613 82.5663 98.088 82.9236 97.96C83.281 97.832 83.689 97.768 84.1476 97.768C84.681 97.768 85.1583 97.8533 85.5796 98.024C86.0063 98.1893 86.3743 98.4187 86.6836 98.712L86.3636 99.232ZM90.0695 97.896V106H88.6455V97.896H90.0695ZM90.3735 95.352C90.3735 95.4907 90.3442 95.6213 90.2855 95.744C90.2322 95.8613 90.1575 95.968 90.0615 96.064C89.9708 96.1547 89.8615 96.2267 89.7335 96.28C89.6108 96.3333 89.4802 96.36 89.3415 96.36C89.2028 96.36 89.0722 96.3333 88.9495 96.28C88.8322 96.2267 88.7282 96.1547 88.6375 96.064C88.5468 95.968 88.4748 95.8613 88.4215 95.744C88.3682 95.6213 88.3415 95.4907 88.3415 95.352C88.3415 95.2133 88.3682 95.0827 88.4215 94.96C88.4748 94.832 88.5468 94.7227 88.6375 94.632C88.7282 94.536 88.8322 94.4613 88.9495 94.408C89.0722 94.3547 89.2028 94.328 89.3415 94.328C89.4802 94.328 89.6108 94.3547 89.7335 94.408C89.8615 94.4613 89.9708 94.536 90.0615 94.632C90.1575 94.7227 90.2322 94.832 90.2855 94.96C90.3442 95.0827 90.3735 95.2133 90.3735 95.352ZM95.2333 102.04C95.5213 102.04 95.7746 102 95.9933 101.92C96.2119 101.84 96.3959 101.728 96.5453 101.584C96.6946 101.44 96.8066 101.269 96.8813 101.072C96.9559 100.869 96.9933 100.648 96.9933 100.408C96.9933 99.912 96.8413 99.5173 96.5373 99.224C96.2386 98.9307 95.8039 98.784 95.2333 98.784C94.6573 98.784 94.2173 98.9307 93.9133 99.224C93.6146 99.5173 93.4653 99.912 93.4653 100.408C93.4653 100.648 93.5026 100.869 93.5773 101.072C93.6573 101.269 93.7719 101.44 93.9213 101.584C94.0706 101.728 94.2546 101.84 94.4733 101.92C94.6919 102 94.9453 102.04 95.2333 102.04ZM97.8013 106.44C97.8013 106.243 97.7453 106.083 97.6333 105.96C97.5213 105.837 97.3693 105.741 97.1773 105.672C96.9906 105.603 96.7719 105.555 96.5213 105.528C96.2706 105.496 96.0039 105.472 95.7213 105.456C95.4439 105.44 95.1613 105.424 94.8733 105.408C94.5853 105.392 94.3079 105.365 94.0413 105.328C93.7426 105.467 93.4973 105.643 93.3053 105.856C93.1186 106.064 93.0253 106.309 93.0253 106.592C93.0253 106.773 93.0706 106.941 93.1613 107.096C93.2573 107.256 93.4013 107.392 93.5933 107.504C93.7853 107.621 94.0253 107.712 94.3133 107.776C94.6066 107.845 94.9506 107.88 95.3453 107.88C95.7293 107.88 96.0733 107.845 96.3773 107.776C96.6813 107.707 96.9373 107.608 97.1453 107.48C97.3586 107.352 97.5213 107.2 97.6333 107.024C97.7453 106.848 97.8013 106.653 97.8013 106.44ZM99.2493 98.216V98.744C99.2493 98.92 99.1373 99.032 98.9133 99.08L97.9933 99.2C98.1746 99.552 98.2653 99.9413 98.2653 100.368C98.2653 100.763 98.1879 101.123 98.0333 101.448C97.8839 101.768 97.6759 102.043 97.4093 102.272C97.1426 102.501 96.8226 102.677 96.4493 102.8C96.0759 102.923 95.6706 102.984 95.2333 102.984C94.8546 102.984 94.4973 102.939 94.1613 102.848C93.9906 102.955 93.8599 103.069 93.7693 103.192C93.6786 103.309 93.6332 103.429 93.6332 103.552C93.6332 103.744 93.7106 103.891 93.8653 103.992C94.0253 104.088 94.2333 104.157 94.4893 104.2C94.7453 104.243 95.0359 104.269 95.3613 104.28C95.6919 104.291 96.0279 104.309 96.3693 104.336C96.7159 104.357 97.0519 104.397 97.3773 104.456C97.7079 104.515 98.0013 104.611 98.2573 104.744C98.5133 104.877 98.7186 105.061 98.8733 105.296C99.0333 105.531 99.1133 105.835 99.1133 106.208C99.1133 106.555 99.0253 106.891 98.8493 107.216C98.6786 107.541 98.4306 107.829 98.1053 108.08C97.7799 108.336 97.3799 108.539 96.9053 108.688C96.4359 108.843 95.9053 108.92 95.3133 108.92C94.7213 108.92 94.2039 108.861 93.7613 108.744C93.3186 108.627 92.9506 108.469 92.6573 108.272C92.3639 108.075 92.1426 107.845 91.9933 107.584C91.8493 107.328 91.7773 107.059 91.7773 106.776C91.7773 106.376 91.9026 106.037 92.1533 105.76C92.4039 105.483 92.7479 105.261 93.1853 105.096C92.9453 104.989 92.7533 104.848 92.6093 104.672C92.4706 104.491 92.4013 104.248 92.4013 103.944C92.4013 103.827 92.4226 103.707 92.4653 103.584C92.5079 103.456 92.5719 103.331 92.6573 103.208C92.7479 103.08 92.8573 102.96 92.9853 102.848C93.1133 102.736 93.2626 102.637 93.4333 102.552C93.0333 102.328 92.7213 102.032 92.4973 101.664C92.2733 101.291 92.1613 100.859 92.1613 100.368C92.1613 99.9733 92.2359 99.616 92.3853 99.296C92.5399 98.9707 92.7533 98.696 93.0253 98.472C93.2973 98.2427 93.6199 98.0667 93.9933 97.944C94.3719 97.8213 94.7853 97.76 95.2333 97.76C95.5853 97.76 95.9133 97.8 96.2173 97.88C96.5213 97.9547 96.7986 98.0667 97.0493 98.216H99.2493ZM102.066 99.072C102.242 98.8747 102.428 98.696 102.626 98.536C102.823 98.376 103.031 98.24 103.25 98.128C103.474 98.0107 103.708 97.9227 103.954 97.864C104.204 97.8 104.474 97.768 104.762 97.768C105.204 97.768 105.594 97.8427 105.93 97.992C106.271 98.136 106.554 98.344 106.778 98.616C107.007 98.8827 107.18 99.2053 107.298 99.584C107.415 99.9627 107.474 100.381 107.474 100.84V106H106.042V100.84C106.042 100.227 105.9 99.752 105.618 99.416C105.34 99.0747 104.916 98.904 104.346 98.904C103.924 98.904 103.53 99.0053 103.162 99.208C102.799 99.4107 102.463 99.6853 102.154 100.032V106H100.722V97.896H101.578C101.78 97.896 101.906 97.9947 101.954 98.192L102.066 99.072ZM115.241 97.896V106H113.817V97.896H115.241ZM115.545 95.352C115.545 95.4907 115.516 95.6213 115.457 95.744C115.404 95.8613 115.329 95.968 115.233 96.064C115.143 96.1547 115.033 96.2267 114.905 96.28C114.783 96.3333 114.652 96.36 114.513 96.36C114.375 96.36 114.244 96.3333 114.121 96.28C114.004 96.2267 113.9 96.1547 113.809 96.064C113.719 95.968 113.647 95.8613 113.593 95.744C113.54 95.6213 113.513 95.4907 113.513 95.352C113.513 95.2133 113.54 95.0827 113.593 94.96C113.647 94.832 113.719 94.7227 113.809 94.632C113.9 94.536 114.004 94.4613 114.121 94.408C114.244 94.3547 114.375 94.328 114.513 94.328C114.652 94.328 114.783 94.3547 114.905 94.408C115.033 94.4613 115.143 94.536 115.233 94.632C115.329 94.7227 115.404 94.832 115.457 94.96C115.516 95.0827 115.545 95.2133 115.545 95.352ZM120.069 106.128C119.429 106.128 118.936 105.949 118.589 105.592C118.248 105.235 118.077 104.72 118.077 104.048V99.088H117.101C117.016 99.088 116.944 99.064 116.885 99.016C116.826 98.9627 116.797 98.8827 116.797 98.776V98.208L118.125 98.04L118.453 95.536C118.469 95.456 118.504 95.392 118.557 95.344C118.616 95.2907 118.69 95.264 118.781 95.264H119.501V98.056H121.845V99.088H119.501V103.952C119.501 104.293 119.584 104.547 119.749 104.712C119.914 104.877 120.128 104.96 120.389 104.96C120.538 104.96 120.666 104.941 120.773 104.904C120.885 104.861 120.981 104.816 121.061 104.768C121.141 104.72 121.208 104.677 121.261 104.64C121.32 104.597 121.37 104.576 121.413 104.576C121.488 104.576 121.554 104.621 121.613 104.712L122.029 105.392C121.784 105.621 121.488 105.803 121.141 105.936C120.794 106.064 120.437 106.128 120.069 106.128ZM128.693 101.064C128.693 100.733 128.645 100.432 128.549 100.16C128.458 99.8827 128.322 99.6453 128.141 99.448C127.965 99.2453 127.749 99.0907 127.493 98.984C127.237 98.872 126.946 98.816 126.621 98.816C125.938 98.816 125.397 99.016 124.997 99.416C124.602 99.8107 124.357 100.36 124.261 101.064H128.693ZM129.845 104.864C129.669 105.077 129.458 105.264 129.213 105.424C128.967 105.579 128.703 105.707 128.421 105.808C128.143 105.909 127.855 105.984 127.557 106.032C127.258 106.085 126.962 106.112 126.669 106.112C126.109 106.112 125.591 106.019 125.117 105.832C124.647 105.64 124.239 105.363 123.893 105C123.551 104.632 123.285 104.179 123.093 103.64C122.901 103.101 122.805 102.483 122.805 101.784C122.805 101.219 122.89 100.691 123.061 100.2C123.237 99.7093 123.487 99.2853 123.813 98.928C124.138 98.5653 124.535 98.2827 125.005 98.08C125.474 97.872 126.002 97.768 126.589 97.768C127.074 97.768 127.522 97.8507 127.933 98.016C128.349 98.176 128.706 98.4107 129.005 98.72C129.309 99.024 129.546 99.4027 129.717 99.856C129.887 100.304 129.973 100.816 129.973 101.392C129.973 101.616 129.949 101.765 129.901 101.84C129.853 101.915 129.762 101.952 129.629 101.952H124.213C124.229 102.464 124.298 102.909 124.421 103.288C124.549 103.667 124.725 103.984 124.949 104.24C125.173 104.491 125.439 104.68 125.749 104.808C126.058 104.931 126.405 104.992 126.789 104.992C127.146 104.992 127.453 104.952 127.709 104.872C127.97 104.787 128.194 104.696 128.381 104.6C128.567 104.504 128.722 104.416 128.845 104.336C128.973 104.251 129.082 104.208 129.173 104.208C129.29 104.208 129.381 104.253 129.445 104.344L129.845 104.864ZM133.074 99.52C133.33 98.9653 133.644 98.5333 134.018 98.224C134.391 97.9093 134.847 97.752 135.386 97.752C135.556 97.752 135.719 97.7707 135.874 97.808C136.034 97.8453 136.175 97.904 136.298 97.984L136.194 99.048C136.162 99.1813 136.082 99.248 135.954 99.248C135.879 99.248 135.77 99.232 135.626 99.2C135.482 99.168 135.319 99.152 135.138 99.152C134.882 99.152 134.652 99.1893 134.45 99.264C134.252 99.3387 134.074 99.4507 133.914 99.6C133.759 99.744 133.618 99.9253 133.49 100.144C133.367 100.357 133.255 100.603 133.154 100.88V106H131.722V97.896H132.538C132.692 97.896 132.799 97.9253 132.858 97.984C132.916 98.0427 132.956 98.144 132.978 98.288L133.074 99.52ZM141.817 102.352C141.161 102.373 140.601 102.427 140.137 102.512C139.678 102.592 139.302 102.699 139.009 102.832C138.721 102.965 138.51 103.123 138.377 103.304C138.249 103.485 138.185 103.688 138.185 103.912C138.185 104.125 138.22 104.309 138.289 104.464C138.358 104.619 138.452 104.747 138.569 104.848C138.692 104.944 138.833 105.016 138.993 105.064C139.158 105.107 139.334 105.128 139.521 105.128C139.772 105.128 140.001 105.104 140.209 105.056C140.417 105.003 140.612 104.928 140.793 104.832C140.98 104.736 141.156 104.621 141.321 104.488C141.492 104.355 141.657 104.203 141.817 104.032V102.352ZM137.217 99.04C137.665 98.608 138.148 98.2853 138.665 98.072C139.182 97.8587 139.756 97.752 140.385 97.752C140.838 97.752 141.241 97.8267 141.593 97.976C141.945 98.1253 142.241 98.3333 142.481 98.6C142.721 98.8667 142.902 99.1893 143.025 99.568C143.148 99.9467 143.209 100.363 143.209 100.816V106H142.577C142.438 106 142.332 105.979 142.257 105.936C142.182 105.888 142.124 105.797 142.081 105.664L141.921 104.896C141.708 105.093 141.5 105.269 141.297 105.424C141.094 105.573 140.881 105.701 140.657 105.808C140.433 105.909 140.193 105.987 139.937 106.04C139.686 106.099 139.406 106.128 139.097 106.128C138.782 106.128 138.486 106.085 138.209 106C137.932 105.909 137.689 105.776 137.481 105.6C137.278 105.424 137.116 105.203 136.993 104.936C136.876 104.664 136.817 104.344 136.817 103.976C136.817 103.656 136.905 103.349 137.081 103.056C137.257 102.757 137.542 102.493 137.937 102.264C138.332 102.035 138.846 101.848 139.481 101.704C140.116 101.555 140.894 101.469 141.817 101.448V100.816C141.817 100.187 141.681 99.712 141.409 99.392C141.137 99.0667 140.74 98.904 140.217 98.904C139.865 98.904 139.569 98.9493 139.329 99.04C139.094 99.1253 138.889 99.224 138.713 99.336C138.542 99.4427 138.393 99.5413 138.265 99.632C138.142 99.7173 138.02 99.76 137.897 99.76C137.801 99.76 137.718 99.736 137.649 99.688C137.58 99.6347 137.521 99.5707 137.473 99.496L137.217 99.04ZM152.789 106H151.365V99.088H147.189V103.952C147.189 104.293 147.271 104.547 147.437 104.712C147.602 104.877 147.815 104.96 148.077 104.96C148.226 104.96 148.354 104.941 148.461 104.904C148.573 104.861 148.669 104.816 148.749 104.768C148.829 104.72 148.895 104.677 148.949 104.64C149.007 104.597 149.058 104.576 149.101 104.576C149.175 104.576 149.242 104.621 149.301 104.712L149.717 105.392C149.471 105.621 149.175 105.803 148.829 105.936C148.482 106.064 148.125 106.128 147.757 106.128C147.117 106.128 146.623 105.949 146.277 105.592C145.935 105.235 145.765 104.72 145.765 104.048V99.088H144.789C144.703 99.088 144.631 99.064 144.573 99.016C144.514 98.9627 144.485 98.8827 144.485 98.776V98.208L145.813 98.032L146.141 95.536C146.157 95.456 146.191 95.392 146.245 95.344C146.303 95.2907 146.378 95.264 146.469 95.264H147.189V98.056H152.789V106ZM153.141 95.296C153.141 95.4347 153.111 95.5653 153.053 95.688C152.999 95.8053 152.925 95.9093 152.829 96C152.738 96.0907 152.631 96.1627 152.509 96.216C152.386 96.2693 152.255 96.296 152.117 96.296C151.978 96.296 151.847 96.2693 151.725 96.216C151.607 96.1627 151.503 96.0907 151.413 96C151.322 95.9093 151.25 95.8053 151.197 95.688C151.143 95.5653 151.117 95.4347 151.117 95.296C151.117 95.1573 151.143 95.0267 151.197 94.904C151.25 94.776 151.322 94.6667 151.413 94.576C151.503 94.48 151.607 94.4053 151.725 94.352C151.847 94.2987 151.978 94.272 152.117 94.272C152.255 94.272 152.386 94.2987 152.509 94.352C152.631 94.4053 152.738 94.48 152.829 94.576C152.925 94.6667 152.999 94.776 153.053 94.904C153.111 95.0267 153.141 95.1573 153.141 95.296ZM158.544 97.768C159.136 97.768 159.669 97.8667 160.144 98.064C160.619 98.2613 161.024 98.5413 161.36 98.904C161.696 99.2667 161.952 99.7067 162.128 100.224C162.309 100.736 162.4 101.309 162.4 101.944C162.4 102.584 162.309 103.16 162.128 103.672C161.952 104.184 161.696 104.621 161.36 104.984C161.024 105.347 160.619 105.627 160.144 105.824C159.669 106.016 159.136 106.112 158.544 106.112C157.947 106.112 157.408 106.016 156.928 105.824C156.453 105.627 156.048 105.347 155.712 104.984C155.376 104.621 155.117 104.184 154.936 103.672C154.76 103.16 154.672 102.584 154.672 101.944C154.672 101.309 154.76 100.736 154.936 100.224C155.117 99.7067 155.376 99.2667 155.712 98.904C156.048 98.5413 156.453 98.2613 156.928 98.064C157.408 97.8667 157.947 97.768 158.544 97.768ZM158.544 105C159.344 105 159.941 104.733 160.336 104.2C160.731 103.661 160.928 102.912 160.928 101.952C160.928 100.987 160.731 100.235 160.336 99.696C159.941 99.1573 159.344 98.888 158.544 98.888C158.139 98.888 157.784 98.9573 157.48 99.096C157.181 99.2347 156.931 99.4347 156.728 99.696C156.531 99.9573 156.381 100.28 156.28 100.664C156.184 101.043 156.136 101.472 156.136 101.952C156.136 102.912 156.333 103.661 156.728 104.2C157.128 104.733 157.733 105 158.544 105ZM165.55 99.072C165.726 98.8747 165.913 98.696 166.11 98.536C166.307 98.376 166.515 98.24 166.734 98.128C166.958 98.0107 167.193 97.9227 167.438 97.864C167.689 97.8 167.958 97.768 168.246 97.768C168.689 97.768 169.078 97.8427 169.414 97.992C169.755 98.136 170.038 98.344 170.262 98.616C170.491 98.8827 170.665 99.2053 170.782 99.584C170.899 99.9627 170.958 100.381 170.958 100.84V106H169.526V100.84C169.526 100.227 169.385 99.752 169.102 99.416C168.825 99.0747 168.401 98.904 167.83 98.904C167.409 98.904 167.014 99.0053 166.646 99.208C166.283 99.4107 165.947 99.6853 165.638 100.032V106H164.206V97.896H165.062C165.265 97.896 165.39 97.9947 165.438 98.192L165.55 99.072ZM177.848 99.232C177.784 99.3493 177.685 99.408 177.552 99.408C177.472 99.408 177.381 99.3787 177.28 99.32C177.179 99.2613 177.053 99.1973 176.904 99.128C176.76 99.0533 176.587 98.9867 176.384 98.928C176.181 98.864 175.941 98.832 175.664 98.832C175.424 98.832 175.208 98.864 175.016 98.928C174.824 98.9867 174.659 99.0693 174.52 99.176C174.387 99.2827 174.283 99.408 174.208 99.552C174.139 99.6907 174.104 99.8427 174.104 100.008C174.104 100.216 174.163 100.389 174.28 100.528C174.403 100.667 174.563 100.787 174.76 100.888C174.957 100.989 175.181 101.08 175.432 101.16C175.683 101.235 175.939 101.317 176.2 101.408C176.467 101.493 176.725 101.589 176.976 101.696C177.227 101.803 177.451 101.936 177.648 102.096C177.845 102.256 178.003 102.453 178.12 102.688C178.243 102.917 178.304 103.195 178.304 103.52C178.304 103.893 178.237 104.24 178.104 104.56C177.971 104.875 177.773 105.149 177.512 105.384C177.251 105.613 176.931 105.795 176.552 105.928C176.173 106.061 175.736 106.128 175.24 106.128C174.675 106.128 174.163 106.037 173.704 105.856C173.245 105.669 172.856 105.432 172.536 105.144L172.872 104.6C172.915 104.531 172.965 104.477 173.024 104.44C173.083 104.403 173.157 104.384 173.248 104.384C173.344 104.384 173.445 104.421 173.552 104.496C173.659 104.571 173.787 104.653 173.936 104.744C174.091 104.835 174.277 104.917 174.496 104.992C174.715 105.067 174.987 105.104 175.312 105.104C175.589 105.104 175.832 105.069 176.04 105C176.248 104.925 176.421 104.827 176.56 104.704C176.699 104.581 176.8 104.44 176.864 104.28C176.933 104.12 176.968 103.949 176.968 103.768C176.968 103.544 176.907 103.36 176.784 103.216C176.667 103.067 176.509 102.941 176.312 102.84C176.115 102.733 175.888 102.643 175.632 102.568C175.381 102.488 175.123 102.405 174.856 102.32C174.595 102.235 174.336 102.139 174.08 102.032C173.829 101.92 173.605 101.781 173.408 101.616C173.211 101.451 173.051 101.248 172.928 101.008C172.811 100.763 172.752 100.467 172.752 100.12C172.752 99.8107 172.816 99.5147 172.944 99.232C173.072 98.944 173.259 98.6933 173.504 98.48C173.749 98.2613 174.051 98.088 174.408 97.96C174.765 97.832 175.173 97.768 175.632 97.768C176.165 97.768 176.643 97.8533 177.064 98.024C177.491 98.1893 177.859 98.4187 178.168 98.712L177.848 99.232Z" fill="#4F4F4F"/>
</svg>
