<svg width="272" height="180" viewBox="0 0 272 180" fill="none" xmlns="http://www.w3.org/2000/svg">
<circle cx="26" cy="26" r="25.5" transform="rotate(90 26 26)" fill="#275B81" stroke="white"/>
<path d="M27 35.8974L34.8974 28L38.2821 31.3846L30.3846 39.2821L27 35.8974Z" stroke="white" stroke-width="2" stroke-linecap="round" stroke-linejoin="round"/>
<path d="M33.7672 29.129L32.0749 20.6675L15.7159 16.7188L19.6647 33.0777L28.1262 34.77L33.7672 29.129Z" stroke="white" stroke-width="2" stroke-linecap="round" stroke-linejoin="round"/>
<path d="M15.7159 16.7188L24.2745 25.2773" stroke="white" stroke-width="2" stroke-linecap="round" stroke-linejoin="round"/>
<path d="M25.8705 29.1261C27.1167 29.1261 28.127 28.1159 28.127 26.8697C28.127 25.6235 27.1167 24.6133 25.8705 24.6133C24.6244 24.6133 23.6141 25.6235 23.6141 26.8697C23.6141 28.1159 24.6244 29.1261 25.8705 29.1261Z" stroke="white" stroke-width="2" stroke-linecap="round" stroke-linejoin="round"/>
<path d="M83.662 12.928C88.082 12.928 91.3913 13.9367 93.59 15.954C95.7887 17.9487 96.888 20.8613 96.888 24.692C96.888 27.1627 96.344 29.3273 95.256 31.186C94.1907 33.022 92.638 34.45 90.598 35.47C88.5807 36.49 86.1667 37 83.356 37L81.248 36.966C79.9333 36.9207 78.9813 36.898 78.392 36.898C76.0573 36.898 74.312 36.932 73.156 37V36.32C73.904 36.2747 74.448 36.184 74.788 36.048C75.1507 35.912 75.3887 35.6513 75.502 35.266C75.638 34.8807 75.706 34.2573 75.706 33.396V16.532C75.706 15.6707 75.638 15.0473 75.502 14.662C75.3887 14.2767 75.1507 14.016 74.788 13.88C74.448 13.744 73.904 13.6533 73.156 13.608V12.928C74.108 12.996 75.4793 13.03 77.27 13.03H78.324L79.684 12.996C81.5427 12.9507 82.8687 12.928 83.662 12.928ZM83.628 13.54C82.9253 13.54 82.3927 13.6193 82.03 13.778C81.69 13.9367 81.452 14.22 81.316 14.628C81.18 15.036 81.112 15.648 81.112 16.464V33.464C81.112 34.28 81.18 34.892 81.316 35.3C81.452 35.708 81.69 35.9913 82.03 36.15C82.3927 36.3087 82.9367 36.388 83.662 36.388C86.4047 36.388 88.354 35.436 89.51 33.532C90.666 31.6053 91.244 28.704 91.244 24.828C91.244 20.952 90.6433 18.1073 89.442 16.294C88.2633 14.458 86.3253 13.54 83.628 13.54ZM109.208 34.688C111.067 34.688 112.563 33.7813 113.696 31.968L114.308 32.172C113.855 33.6453 113.039 34.9033 111.86 35.946C110.704 36.966 109.254 37.476 107.508 37.476C105.106 37.476 103.19 36.7167 101.762 35.198C100.357 33.6567 99.6545 31.39 99.6545 28.398C99.6545 25.338 100.414 23.0033 101.932 21.394C103.451 19.762 105.468 18.946 107.984 18.946C112.246 18.946 114.376 21.462 114.376 26.494H104.822C104.8 26.834 104.788 27.3667 104.788 28.092C104.788 29.588 104.992 30.8347 105.4 31.832C105.831 32.8293 106.375 33.5547 107.032 34.008C107.712 34.4613 108.438 34.688 109.208 34.688ZM107.78 19.66C106.964 19.66 106.284 20.17 105.74 21.19C105.219 22.1873 104.89 23.74 104.754 25.848H110.092C110.138 24.0573 109.956 22.584 109.548 21.428C109.163 20.2493 108.574 19.66 107.78 19.66ZM123.077 18.946C123.939 18.946 124.732 19.0593 125.457 19.286C126.183 19.49 126.738 19.728 127.123 20C127.35 20.1587 127.554 20.238 127.735 20.238C127.939 20.238 128.109 20.136 128.245 19.932C128.404 19.7053 128.506 19.388 128.551 18.98H129.265C129.175 20.136 129.129 22.1307 129.129 24.964H128.415C128.211 23.468 127.758 22.2213 127.055 21.224C126.375 20.204 125.378 19.694 124.063 19.694C123.383 19.694 122.817 19.8867 122.363 20.272C121.933 20.6573 121.717 21.19 121.717 21.87C121.717 22.6407 121.978 23.3093 122.499 23.876C123.021 24.42 123.837 25.0887 124.947 25.882L125.933 26.596C127.316 27.6387 128.336 28.568 128.993 29.384C129.651 30.2 129.979 31.22 129.979 32.444C129.979 33.4413 129.685 34.3253 129.095 35.096C128.529 35.8667 127.758 36.456 126.783 36.864C125.809 37.272 124.732 37.476 123.553 37.476C122.307 37.476 121.241 37.238 120.357 36.762C119.632 36.3993 119.111 36.1613 118.793 36.048C118.567 35.98 118.363 36.0593 118.181 36.286C118.023 36.49 117.898 36.8073 117.807 37.238H117.093C117.184 35.946 117.229 33.6793 117.229 30.438H117.943C118.397 34.6087 119.927 36.694 122.533 36.694C123.191 36.694 123.746 36.5013 124.199 36.116C124.675 35.708 124.913 35.096 124.913 34.28C124.913 33.6453 124.766 33.0787 124.471 32.58C124.199 32.0813 123.848 31.6393 123.417 31.254C122.987 30.8687 122.341 30.336 121.479 29.656C120.459 28.84 119.677 28.1827 119.133 27.684C118.612 27.1853 118.159 26.596 117.773 25.916C117.411 25.236 117.229 24.4767 117.229 23.638C117.229 22.1873 117.796 21.0427 118.929 20.204C120.063 19.3653 121.445 18.946 123.077 18.946ZM136.47 10.65C137.422 10.65 138.17 10.888 138.714 11.364C139.281 11.8173 139.564 12.452 139.564 13.268C139.564 14.084 139.281 14.73 138.714 15.206C138.17 15.6593 137.422 15.886 136.47 15.886C135.518 15.886 134.759 15.6593 134.192 15.206C133.648 14.73 133.376 14.084 133.376 13.268C133.376 12.452 133.648 11.8173 134.192 11.364C134.759 10.888 135.518 10.65 136.47 10.65ZM139.122 33.838C139.122 34.7673 139.281 35.4133 139.598 35.776C139.938 36.116 140.505 36.286 141.298 36.286V37C139.032 36.9093 137.524 36.864 136.776 36.864C136.074 36.864 134.498 36.9093 132.05 37V36.286C132.866 36.286 133.433 36.116 133.75 35.776C134.068 35.4133 134.226 34.7673 134.226 33.838V23.128C134.226 22.0853 134.068 21.326 133.75 20.85C133.433 20.374 132.866 20.136 132.05 20.136V19.422C132.776 19.49 133.478 19.524 134.158 19.524C136.176 19.524 137.83 19.3653 139.122 19.048V33.838ZM158.891 22.686C158.438 22.686 158.052 22.5387 157.735 22.244C157.418 21.9267 157.259 21.4847 157.259 20.918C157.259 20.374 157.395 19.8187 157.667 19.252C157.123 19.4787 156.67 19.7393 156.307 20.034C155.967 20.306 155.672 20.6573 155.423 21.088C156.126 21.9267 156.477 23.0147 156.477 24.352C156.477 26.1427 155.854 27.4913 154.607 28.398C153.383 29.3047 151.751 29.758 149.711 29.758H149.099C148.17 30.302 147.705 30.9027 147.705 31.56C147.705 32.2853 148.158 32.648 149.065 32.648H152.771C154.766 32.648 156.352 33.022 157.531 33.77C158.732 34.4953 159.333 35.6173 159.333 37.136C159.333 38.292 158.959 39.3347 158.211 40.264C157.486 41.216 156.375 41.9753 154.879 42.542C153.383 43.1087 151.547 43.392 149.371 43.392C147.172 43.392 145.404 43.1087 144.067 42.542C142.752 41.998 142.095 41.2047 142.095 40.162C142.095 39.4593 142.412 38.8247 143.047 38.258C143.682 37.714 144.622 37.2833 145.869 36.966L146.175 37.51C145.359 38.19 144.951 38.972 144.951 39.856C144.951 40.808 145.382 41.5333 146.243 42.032C147.104 42.5533 148.294 42.814 149.813 42.814C151.4 42.814 152.68 42.4967 153.655 41.862C154.652 41.2273 155.151 40.332 155.151 39.176C155.151 38.428 154.868 37.8387 154.301 37.408C153.757 36.9773 152.794 36.762 151.411 36.762H149.303C147.852 36.762 146.719 36.524 145.903 36.048C145.087 35.5493 144.679 34.8013 144.679 33.804C144.679 32.9653 144.974 32.2173 145.563 31.56C146.152 30.9027 147.048 30.268 148.249 29.656C146.617 29.452 145.325 28.908 144.373 28.024C143.421 27.14 142.945 25.916 142.945 24.352C142.945 22.5613 143.557 21.2127 144.781 20.306C146.028 19.3993 147.671 18.946 149.711 18.946C151.978 18.946 153.712 19.4787 154.913 20.544C155.344 19.932 155.876 19.4447 156.511 19.082C157.146 18.7193 157.792 18.538 158.449 18.538C159.129 18.538 159.662 18.742 160.047 19.15C160.455 19.5353 160.659 20.0453 160.659 20.68C160.659 21.3147 160.478 21.8133 160.115 22.176C159.775 22.516 159.367 22.686 158.891 22.686ZM149.711 29.146C150.346 29.146 150.822 28.7833 151.139 28.058C151.479 27.3327 151.649 26.0973 151.649 24.352C151.649 22.6067 151.479 21.3713 151.139 20.646C150.822 19.9207 150.346 19.558 149.711 19.558C149.076 19.558 148.589 19.9207 148.249 20.646C147.932 21.3713 147.773 22.6067 147.773 24.352C147.773 26.0973 147.932 27.3327 148.249 28.058C148.589 28.7833 149.076 29.146 149.711 29.146ZM174.216 18.946C175.939 18.946 177.185 19.388 177.956 20.272C178.341 20.7027 178.613 21.258 178.772 21.938C178.931 22.618 179.01 23.536 179.01 24.692V33.838C179.01 34.7673 179.169 35.4133 179.486 35.776C179.826 36.116 180.393 36.286 181.186 36.286V37C178.919 36.9093 177.423 36.864 176.698 36.864C176.018 36.864 174.545 36.9093 172.278 37V36.286C172.958 36.286 173.434 36.116 173.706 35.776C173.978 35.4133 174.114 34.7673 174.114 33.838V23.264C174.114 22.3347 173.955 21.632 173.638 21.156C173.343 20.68 172.799 20.442 172.006 20.442C171.077 20.442 170.283 20.8273 169.626 21.598C168.969 22.346 168.64 23.2753 168.64 24.386V33.838C168.64 34.7673 168.776 35.4133 169.048 35.776C169.32 36.116 169.796 36.286 170.476 36.286V37C168.391 36.9093 166.985 36.864 166.26 36.864C165.58 36.864 164.016 36.9093 161.568 37V36.286C162.384 36.286 162.951 36.116 163.268 35.776C163.585 35.4133 163.744 34.7673 163.744 33.838V23.128C163.744 22.0853 163.585 21.326 163.268 20.85C162.951 20.374 162.384 20.136 161.568 20.136V19.422C162.293 19.49 162.996 19.524 163.676 19.524C165.693 19.524 167.348 19.3653 168.64 19.048V22.108C169.66 20 171.519 18.946 174.216 18.946Z" fill="#275B81"/>
<path d="M77.488 72.768C77.9307 72.768 78.312 72.7173 78.632 72.616C78.952 72.5147 79.2133 72.3733 79.416 72.192C79.624 72.0053 79.776 71.7867 79.872 71.536C79.968 71.28 80.016 71 80.016 70.696C80.016 70.104 79.8053 69.6373 79.384 69.296C78.9627 68.9493 78.3307 68.776 77.488 68.776H75.008V72.768H77.488ZM75.008 63.76V67.672H77.056C77.4933 67.672 77.872 67.624 78.192 67.528C78.5173 67.432 78.784 67.2987 78.992 67.128C79.2053 66.9573 79.3627 66.752 79.464 66.512C79.5653 66.2667 79.616 66 79.616 65.712C79.616 65.0347 79.4133 64.5413 79.008 64.232C78.6027 63.9173 77.9733 63.76 77.12 63.76H75.008ZM77.12 62.536C77.824 62.536 78.4293 62.6053 78.936 62.744C79.448 62.8827 79.8667 63.08 80.192 63.336C80.5227 63.592 80.7653 63.9067 80.92 64.28C81.0747 64.648 81.152 65.064 81.152 65.528C81.152 65.8107 81.1067 66.0827 81.016 66.344C80.9307 66.6 80.8 66.84 80.624 67.064C80.448 67.288 80.224 67.4907 79.952 67.672C79.6853 67.848 79.3707 67.992 79.008 68.104C79.8507 68.264 80.4827 68.5653 80.904 69.008C81.3307 69.4453 81.544 70.0213 81.544 70.736C81.544 71.2213 81.4533 71.664 81.272 72.064C81.096 72.464 80.8347 72.808 80.488 73.096C80.1467 73.384 79.7253 73.608 79.224 73.768C78.7227 73.9227 78.152 74 77.512 74H73.464V62.536H77.12ZM84.6519 67.52C84.9079 66.9653 85.2225 66.5333 85.5959 66.224C85.9692 65.9093 86.4252 65.752 86.9639 65.752C87.1345 65.752 87.2972 65.7707 87.4519 65.808C87.6119 65.8453 87.7532 65.904 87.8759 65.984L87.7719 67.048C87.7399 67.1813 87.6599 67.248 87.5319 67.248C87.4572 67.248 87.3479 67.232 87.2039 67.2C87.0599 67.168 86.8972 67.152 86.7159 67.152C86.4599 67.152 86.2305 67.1893 86.0279 67.264C85.8305 67.3387 85.6519 67.4507 85.4919 67.6C85.3372 67.744 85.1959 67.9253 85.0679 68.144C84.9452 68.3573 84.8332 68.6027 84.7319 68.88V74H83.2999V65.896H84.1159C84.2705 65.896 84.3772 65.9253 84.4359 65.984C84.4945 66.0427 84.5345 66.144 84.5559 66.288L84.6519 67.52ZM93.395 70.352C92.739 70.3733 92.179 70.4267 91.715 70.512C91.2563 70.592 90.8803 70.6987 90.587 70.832C90.299 70.9653 90.0883 71.1227 89.955 71.304C89.827 71.4853 89.763 71.688 89.763 71.912C89.763 72.1253 89.7977 72.3093 89.867 72.464C89.9363 72.6187 90.0297 72.7467 90.147 72.848C90.2697 72.944 90.411 73.016 90.571 73.064C90.7363 73.1067 90.9123 73.128 91.099 73.128C91.3497 73.128 91.579 73.104 91.787 73.056C91.995 73.0027 92.1897 72.928 92.371 72.832C92.5577 72.736 92.7337 72.6213 92.899 72.488C93.0697 72.3547 93.235 72.2027 93.395 72.032V70.352ZM88.795 67.04C89.243 66.608 89.7257 66.2853 90.243 66.072C90.7603 65.8587 91.3337 65.752 91.963 65.752C92.4163 65.752 92.819 65.8267 93.171 65.976C93.523 66.1253 93.819 66.3333 94.059 66.6C94.299 66.8667 94.4803 67.1893 94.603 67.568C94.7257 67.9467 94.787 68.3627 94.787 68.816V74H94.155C94.0163 74 93.9097 73.9787 93.835 73.936C93.7603 73.888 93.7017 73.7973 93.659 73.664L93.499 72.896C93.2857 73.0933 93.0777 73.2693 92.875 73.424C92.6723 73.5733 92.459 73.7013 92.235 73.808C92.011 73.9093 91.771 73.9867 91.515 74.04C91.2643 74.0987 90.9843 74.128 90.675 74.128C90.3603 74.128 90.0643 74.0853 89.787 74C89.5097 73.9093 89.267 73.776 89.059 73.6C88.8563 73.424 88.6937 73.2027 88.571 72.936C88.4537 72.664 88.395 72.344 88.395 71.976C88.395 71.656 88.483 71.3493 88.659 71.056C88.835 70.7573 89.1203 70.4933 89.515 70.264C89.9097 70.0347 90.4243 69.848 91.059 69.704C91.6937 69.5547 92.4723 69.4693 93.395 69.448V68.816C93.395 68.1867 93.259 67.712 92.987 67.392C92.715 67.0667 92.3177 66.904 91.795 66.904C91.443 66.904 91.147 66.9493 90.907 67.04C90.6723 67.1253 90.467 67.224 90.291 67.336C90.1203 67.4427 89.971 67.5413 89.843 67.632C89.7203 67.7173 89.5977 67.76 89.475 67.76C89.379 67.76 89.2963 67.736 89.227 67.688C89.1577 67.6347 89.099 67.5707 89.051 67.496L88.795 67.04ZM98.4601 65.896V74H97.0361V65.896H98.4601ZM98.7641 63.352C98.7641 63.4907 98.7348 63.6213 98.6761 63.744C98.6228 63.8613 98.5481 63.968 98.4521 64.064C98.3615 64.1547 98.2521 64.2267 98.1241 64.28C98.0015 64.3333 97.8708 64.36 97.7321 64.36C97.5935 64.36 97.4628 64.3333 97.3401 64.28C97.2228 64.2267 97.1188 64.1547 97.0281 64.064C96.9375 63.968 96.8655 63.8613 96.8121 63.744C96.7588 63.6213 96.7321 63.4907 96.7321 63.352C96.7321 63.2133 96.7588 63.0827 96.8121 62.96C96.8655 62.832 96.9375 62.7227 97.0281 62.632C97.1188 62.536 97.2228 62.4613 97.3401 62.408C97.4628 62.3547 97.5935 62.328 97.7321 62.328C97.8708 62.328 98.0015 62.3547 98.1241 62.408C98.2521 62.4613 98.3615 62.536 98.4521 62.632C98.5481 62.7227 98.6228 62.832 98.6761 62.96C98.7348 63.0827 98.7641 63.2133 98.7641 63.352ZM102.144 67.072C102.32 66.8747 102.507 66.696 102.704 66.536C102.901 66.376 103.109 66.24 103.328 66.128C103.552 66.0107 103.787 65.9227 104.032 65.864C104.283 65.8 104.552 65.768 104.84 65.768C105.283 65.768 105.672 65.8427 106.008 65.992C106.349 66.136 106.632 66.344 106.856 66.616C107.085 66.8827 107.259 67.2053 107.376 67.584C107.493 67.9627 107.552 68.3813 107.552 68.84V74H106.12V68.84C106.12 68.2267 105.979 67.752 105.696 67.416C105.419 67.0747 104.995 66.904 104.424 66.904C104.003 66.904 103.608 67.0053 103.24 67.208C102.877 67.4107 102.541 67.6853 102.232 68.032V74H100.8V65.896H101.656C101.859 65.896 101.984 65.9947 102.032 66.192L102.144 67.072ZM114.442 67.232C114.378 67.3493 114.279 67.408 114.146 67.408C114.066 67.408 113.975 67.3787 113.874 67.32C113.772 67.2613 113.647 67.1973 113.498 67.128C113.354 67.0533 113.18 66.9867 112.978 66.928C112.775 66.864 112.535 66.832 112.258 66.832C112.018 66.832 111.802 66.864 111.61 66.928C111.418 66.9867 111.252 67.0693 111.114 67.176C110.98 67.2827 110.876 67.408 110.802 67.552C110.732 67.6907 110.698 67.8427 110.698 68.008C110.698 68.216 110.756 68.3893 110.874 68.528C110.996 68.6667 111.156 68.7867 111.354 68.888C111.551 68.9893 111.775 69.08 112.026 69.16C112.276 69.2347 112.532 69.3173 112.794 69.408C113.06 69.4933 113.319 69.5893 113.57 69.696C113.82 69.8027 114.044 69.936 114.242 70.096C114.439 70.256 114.596 70.4533 114.714 70.688C114.836 70.9173 114.898 71.1947 114.898 71.52C114.898 71.8933 114.831 72.24 114.698 72.56C114.564 72.8747 114.367 73.1493 114.106 73.384C113.844 73.6133 113.524 73.7947 113.146 73.928C112.767 74.0613 112.33 74.128 111.834 74.128C111.268 74.128 110.756 74.0373 110.298 73.856C109.839 73.6693 109.45 73.432 109.13 73.144L109.466 72.6C109.508 72.5307 109.559 72.4773 109.618 72.44C109.676 72.4027 109.751 72.384 109.842 72.384C109.938 72.384 110.039 72.4213 110.146 72.496C110.252 72.5707 110.38 72.6533 110.53 72.744C110.684 72.8347 110.871 72.9173 111.09 72.992C111.308 73.0667 111.58 73.104 111.906 73.104C112.183 73.104 112.426 73.0693 112.634 73C112.842 72.9253 113.015 72.8267 113.154 72.704C113.292 72.5813 113.394 72.44 113.458 72.28C113.527 72.12 113.562 71.9493 113.562 71.768C113.562 71.544 113.5 71.36 113.378 71.216C113.26 71.0667 113.103 70.9413 112.906 70.84C112.708 70.7333 112.482 70.6427 112.226 70.568C111.975 70.488 111.716 70.4053 111.45 70.32C111.188 70.2347 110.93 70.1387 110.674 70.032C110.423 69.92 110.199 69.7813 110.002 69.616C109.804 69.4507 109.644 69.248 109.522 69.008C109.404 68.7627 109.346 68.4667 109.346 68.12C109.346 67.8107 109.41 67.5147 109.538 67.232C109.666 66.944 109.852 66.6933 110.098 66.48C110.343 66.2613 110.644 66.088 111.002 65.96C111.359 65.832 111.767 65.768 112.226 65.768C112.759 65.768 113.236 65.8533 113.658 66.024C114.084 66.1893 114.452 66.4187 114.762 66.712L114.442 67.232ZM119.132 74.128C118.492 74.128 117.998 73.9493 117.652 73.592C117.31 73.2347 117.14 72.72 117.14 72.048V67.088H116.164C116.078 67.088 116.006 67.064 115.948 67.016C115.889 66.9627 115.86 66.8827 115.86 66.776V66.208L117.188 66.04L117.516 63.536C117.532 63.456 117.566 63.392 117.62 63.344C117.678 63.2907 117.753 63.264 117.844 63.264H118.564V66.056H120.908V67.088H118.564V71.952C118.564 72.2933 118.646 72.5467 118.812 72.712C118.977 72.8773 119.19 72.96 119.452 72.96C119.601 72.96 119.729 72.9413 119.836 72.904C119.948 72.8613 120.044 72.816 120.124 72.768C120.204 72.72 120.27 72.6773 120.324 72.64C120.382 72.5973 120.433 72.576 120.476 72.576C120.55 72.576 120.617 72.6213 120.676 72.712L121.092 73.392C120.846 73.6213 120.55 73.8027 120.204 73.936C119.857 74.064 119.5 74.128 119.132 74.128ZM125.747 65.768C126.339 65.768 126.872 65.8667 127.347 66.064C127.822 66.2613 128.227 66.5413 128.563 66.904C128.899 67.2667 129.155 67.7067 129.331 68.224C129.512 68.736 129.603 69.3093 129.603 69.944C129.603 70.584 129.512 71.16 129.331 71.672C129.155 72.184 128.899 72.6213 128.563 72.984C128.227 73.3467 127.822 73.6267 127.347 73.824C126.872 74.016 126.339 74.112 125.747 74.112C125.15 74.112 124.611 74.016 124.131 73.824C123.656 73.6267 123.251 73.3467 122.915 72.984C122.579 72.6213 122.32 72.184 122.139 71.672C121.963 71.16 121.875 70.584 121.875 69.944C121.875 69.3093 121.963 68.736 122.139 68.224C122.32 67.7067 122.579 67.2667 122.915 66.904C123.251 66.5413 123.656 66.2613 124.131 66.064C124.611 65.8667 125.15 65.768 125.747 65.768ZM125.747 73C126.547 73 127.144 72.7333 127.539 72.2C127.934 71.6613 128.131 70.912 128.131 69.952C128.131 68.9867 127.934 68.2347 127.539 67.696C127.144 67.1573 126.547 66.888 125.747 66.888C125.342 66.888 124.987 66.9573 124.683 67.096C124.384 67.2347 124.134 67.4347 123.931 67.696C123.734 67.9573 123.584 68.28 123.483 68.664C123.387 69.0427 123.339 69.472 123.339 69.952C123.339 70.912 123.536 71.6613 123.931 72.2C124.331 72.7333 124.936 73 125.747 73ZM132.761 67.52C133.017 66.9653 133.332 66.5333 133.705 66.224C134.079 65.9093 134.535 65.752 135.073 65.752C135.244 65.752 135.407 65.7707 135.561 65.808C135.721 65.8453 135.863 65.904 135.985 65.984L135.881 67.048C135.849 67.1813 135.769 67.248 135.641 67.248C135.567 67.248 135.457 67.232 135.313 67.2C135.169 67.168 135.007 67.152 134.825 67.152C134.569 67.152 134.34 67.1893 134.137 67.264C133.94 67.3387 133.761 67.4507 133.601 67.6C133.447 67.744 133.305 67.9253 133.177 68.144C133.055 68.3573 132.943 68.6027 132.841 68.88V74H131.409V65.896H132.225C132.38 65.896 132.487 65.9253 132.545 65.984C132.604 66.0427 132.644 66.144 132.665 66.288L132.761 67.52ZM137.237 74V65.896H138.093C138.296 65.896 138.421 65.9947 138.469 66.192L138.573 67.024C138.872 66.656 139.208 66.3547 139.581 66.12C139.955 65.8853 140.387 65.768 140.877 65.768C141.421 65.768 141.861 65.92 142.197 66.224C142.539 66.528 142.784 66.9387 142.933 67.456C143.051 67.1627 143.2 66.9093 143.381 66.696C143.568 66.4827 143.776 66.3067 144.005 66.168C144.235 66.0293 144.477 65.928 144.733 65.864C144.995 65.8 145.259 65.768 145.525 65.768C145.952 65.768 146.331 65.8373 146.661 65.976C146.997 66.1093 147.28 66.3067 147.509 66.568C147.744 66.8293 147.923 67.152 148.045 67.536C148.168 67.9147 148.229 68.3493 148.229 68.84V74H146.797V68.84C146.797 68.2053 146.659 67.7253 146.381 67.4C146.104 67.0693 145.704 66.904 145.181 66.904C144.947 66.904 144.723 66.9467 144.509 67.032C144.301 67.112 144.117 67.232 143.957 67.392C143.797 67.552 143.669 67.7547 143.573 68C143.483 68.24 143.437 68.52 143.437 68.84V74H142.005V68.84C142.005 68.1893 141.875 67.704 141.613 67.384C141.352 67.064 140.971 66.904 140.469 66.904C140.117 66.904 139.792 67 139.493 67.192C139.195 67.3787 138.92 67.6347 138.669 67.96V74H137.237ZM155.991 65.896V74H154.567V65.896H155.991ZM156.295 63.352C156.295 63.4907 156.266 63.6213 156.207 63.744C156.154 63.8613 156.079 63.968 155.983 64.064C155.893 64.1547 155.783 64.2267 155.655 64.28C155.533 64.3333 155.402 64.36 155.263 64.36C155.125 64.36 154.994 64.3333 154.871 64.28C154.754 64.2267 154.65 64.1547 154.559 64.064C154.469 63.968 154.397 63.8613 154.343 63.744C154.29 63.6213 154.263 63.4907 154.263 63.352C154.263 63.2133 154.29 63.0827 154.343 62.96C154.397 62.832 154.469 62.7227 154.559 62.632C154.65 62.536 154.754 62.4613 154.871 62.408C154.994 62.3547 155.125 62.328 155.263 62.328C155.402 62.328 155.533 62.3547 155.655 62.408C155.783 62.4613 155.893 62.536 155.983 62.632C156.079 62.7227 156.154 62.832 156.207 62.96C156.266 63.0827 156.295 63.2133 156.295 63.352ZM163.611 67.824C163.344 67.4667 163.056 67.2187 162.747 67.08C162.438 66.936 162.091 66.864 161.707 66.864C160.955 66.864 160.376 67.1333 159.971 67.672C159.566 68.2107 159.363 68.9787 159.363 69.976C159.363 70.504 159.408 70.9573 159.499 71.336C159.59 71.7093 159.723 72.0187 159.899 72.264C160.075 72.504 160.291 72.68 160.547 72.792C160.803 72.904 161.094 72.96 161.419 72.96C161.888 72.96 162.296 72.8533 162.643 72.64C162.995 72.4267 163.318 72.1253 163.611 71.736V67.824ZM165.035 62.216V74H164.187C163.984 74 163.856 73.9013 163.803 73.704L163.675 72.72C163.328 73.136 162.934 73.472 162.491 73.728C162.048 73.984 161.536 74.112 160.955 74.112C160.491 74.112 160.07 74.024 159.691 73.848C159.312 73.6667 158.99 73.4027 158.723 73.056C158.456 72.7093 158.251 72.2773 158.107 71.76C157.963 71.2427 157.891 70.648 157.891 69.976C157.891 69.3787 157.971 68.824 158.131 68.312C158.291 67.7947 158.52 67.3467 158.819 66.968C159.118 66.5893 159.483 66.2933 159.915 66.08C160.352 65.8613 160.843 65.752 161.387 65.752C161.883 65.752 162.307 65.8373 162.659 66.008C163.016 66.1733 163.334 66.4053 163.611 66.704V62.216H165.035ZM172.708 69.064C172.708 68.7333 172.66 68.432 172.564 68.16C172.474 67.8827 172.338 67.6453 172.156 67.448C171.98 67.2453 171.764 67.0907 171.508 66.984C171.252 66.872 170.962 66.816 170.636 66.816C169.954 66.816 169.412 67.016 169.012 67.416C168.618 67.8107 168.372 68.36 168.276 69.064H172.708ZM173.86 72.864C173.684 73.0773 173.474 73.264 173.228 73.424C172.983 73.5787 172.719 73.7067 172.436 73.808C172.159 73.9093 171.871 73.984 171.572 74.032C171.274 74.0853 170.978 74.112 170.684 74.112C170.124 74.112 169.607 74.0187 169.132 73.832C168.663 73.64 168.255 73.3627 167.908 73C167.567 72.632 167.3 72.1787 167.108 71.64C166.916 71.1013 166.82 70.4827 166.82 69.784C166.82 69.2187 166.906 68.6907 167.076 68.2C167.252 67.7093 167.503 67.2853 167.828 66.928C168.154 66.5653 168.551 66.2827 169.02 66.08C169.49 65.872 170.018 65.768 170.604 65.768C171.09 65.768 171.538 65.8507 171.948 66.016C172.364 66.176 172.722 66.4107 173.02 66.72C173.324 67.024 173.562 67.4027 173.732 67.856C173.903 68.304 173.988 68.816 173.988 69.392C173.988 69.616 173.964 69.7653 173.916 69.84C173.868 69.9147 173.778 69.952 173.644 69.952H168.228C168.244 70.464 168.314 70.9093 168.436 71.288C168.564 71.6667 168.74 71.984 168.964 72.24C169.188 72.4907 169.455 72.68 169.764 72.808C170.074 72.9307 170.42 72.992 170.804 72.992C171.162 72.992 171.468 72.952 171.724 72.872C171.986 72.7867 172.21 72.696 172.396 72.6C172.583 72.504 172.738 72.416 172.86 72.336C172.988 72.2507 173.098 72.208 173.188 72.208C173.306 72.208 173.396 72.2533 173.46 72.344L173.86 72.864ZM180.129 70.352C179.473 70.3733 178.913 70.4267 178.449 70.512C177.991 70.592 177.615 70.6987 177.321 70.832C177.033 70.9653 176.823 71.1227 176.689 71.304C176.561 71.4853 176.497 71.688 176.497 71.912C176.497 72.1253 176.532 72.3093 176.601 72.464C176.671 72.6187 176.764 72.7467 176.881 72.848C177.004 72.944 177.145 73.016 177.305 73.064C177.471 73.1067 177.647 73.128 177.833 73.128C178.084 73.128 178.313 73.104 178.521 73.056C178.729 73.0027 178.924 72.928 179.105 72.832C179.292 72.736 179.468 72.6213 179.633 72.488C179.804 72.3547 179.969 72.2027 180.129 72.032V70.352ZM175.529 67.04C175.977 66.608 176.46 66.2853 176.977 66.072C177.495 65.8587 178.068 65.752 178.697 65.752C179.151 65.752 179.553 65.8267 179.905 65.976C180.257 66.1253 180.553 66.3333 180.793 66.6C181.033 66.8667 181.215 67.1893 181.337 67.568C181.46 67.9467 181.521 68.3627 181.521 68.816V74H180.889C180.751 74 180.644 73.9787 180.569 73.936C180.495 73.888 180.436 73.7973 180.393 73.664L180.233 72.896C180.02 73.0933 179.812 73.2693 179.609 73.424C179.407 73.5733 179.193 73.7013 178.969 73.808C178.745 73.9093 178.505 73.9867 178.249 74.04C177.999 74.0987 177.719 74.128 177.409 74.128C177.095 74.128 176.799 74.0853 176.521 74C176.244 73.9093 176.001 73.776 175.793 73.6C175.591 73.424 175.428 73.2027 175.305 72.936C175.188 72.664 175.129 72.344 175.129 71.976C175.129 71.656 175.217 71.3493 175.393 71.056C175.569 70.7573 175.855 70.4933 176.249 70.264C176.644 70.0347 177.159 69.848 177.793 69.704C178.428 69.5547 179.207 69.4693 180.129 69.448V68.816C180.129 68.1867 179.993 67.712 179.721 67.392C179.449 67.0667 179.052 66.904 178.529 66.904C178.177 66.904 177.881 66.9493 177.641 67.04C177.407 67.1253 177.201 67.224 177.025 67.336C176.855 67.4427 176.705 67.5413 176.577 67.632C176.455 67.7173 176.332 67.76 176.209 67.76C176.113 67.76 176.031 67.736 175.961 67.688C175.892 67.6347 175.833 67.5707 175.785 67.496L175.529 67.04ZM191.101 74H189.677V67.088H185.501V71.952C185.501 72.2933 185.584 72.5467 185.749 72.712C185.914 72.8773 186.128 72.96 186.389 72.96C186.538 72.96 186.666 72.9413 186.773 72.904C186.885 72.8613 186.981 72.816 187.061 72.768C187.141 72.72 187.208 72.6773 187.261 72.64C187.32 72.5973 187.37 72.576 187.413 72.576C187.488 72.576 187.554 72.6213 187.613 72.712L188.029 73.392C187.784 73.6213 187.488 73.8027 187.141 73.936C186.794 74.064 186.437 74.128 186.069 74.128C185.429 74.128 184.936 73.9493 184.589 73.592C184.248 73.2347 184.077 72.72 184.077 72.048V67.088H183.101C183.016 67.088 182.944 67.064 182.885 67.016C182.826 66.9627 182.797 66.8827 182.797 66.776V66.208L184.125 66.032L184.453 63.536C184.469 63.456 184.504 63.392 184.557 63.344C184.616 63.2907 184.69 63.264 184.781 63.264H185.501V66.056H191.101V74ZM191.453 63.296C191.453 63.4347 191.424 63.5653 191.365 63.688C191.312 63.8053 191.237 63.9093 191.141 64C191.05 64.0907 190.944 64.1627 190.821 64.216C190.698 64.2693 190.568 64.296 190.429 64.296C190.29 64.296 190.16 64.2693 190.037 64.216C189.92 64.1627 189.816 64.0907 189.725 64C189.634 63.9093 189.562 63.8053 189.509 63.688C189.456 63.5653 189.429 63.4347 189.429 63.296C189.429 63.1573 189.456 63.0267 189.509 62.904C189.562 62.776 189.634 62.6667 189.725 62.576C189.816 62.48 189.92 62.4053 190.037 62.352C190.16 62.2987 190.29 62.272 190.429 62.272C190.568 62.272 190.698 62.2987 190.821 62.352C190.944 62.4053 191.05 62.48 191.141 62.576C191.237 62.6667 191.312 62.776 191.365 62.904C191.424 63.0267 191.453 63.1573 191.453 63.296ZM196.857 65.768C197.449 65.768 197.982 65.8667 198.457 66.064C198.931 66.2613 199.337 66.5413 199.673 66.904C200.009 67.2667 200.265 67.7067 200.441 68.224C200.622 68.736 200.713 69.3093 200.713 69.944C200.713 70.584 200.622 71.16 200.441 71.672C200.265 72.184 200.009 72.6213 199.673 72.984C199.337 73.3467 198.931 73.6267 198.457 73.824C197.982 74.016 197.449 74.112 196.857 74.112C196.259 74.112 195.721 74.016 195.241 73.824C194.766 73.6267 194.361 73.3467 194.025 72.984C193.689 72.6213 193.43 72.184 193.249 71.672C193.073 71.16 192.985 70.584 192.985 69.944C192.985 69.3093 193.073 68.736 193.249 68.224C193.43 67.7067 193.689 67.2667 194.025 66.904C194.361 66.5413 194.766 66.2613 195.241 66.064C195.721 65.8667 196.259 65.768 196.857 65.768ZM196.857 73C197.657 73 198.254 72.7333 198.649 72.2C199.043 71.6613 199.241 70.912 199.241 69.952C199.241 68.9867 199.043 68.2347 198.649 67.696C198.254 67.1573 197.657 66.888 196.857 66.888C196.451 66.888 196.097 66.9573 195.793 67.096C195.494 67.2347 195.243 67.4347 195.041 67.696C194.843 67.9573 194.694 68.28 194.593 68.664C194.497 69.0427 194.449 69.472 194.449 69.952C194.449 70.912 194.646 71.6613 195.041 72.2C195.441 72.7333 196.046 73 196.857 73ZM203.863 67.072C204.039 66.8747 204.225 66.696 204.423 66.536C204.62 66.376 204.828 66.24 205.047 66.128C205.271 66.0107 205.505 65.9227 205.751 65.864C206.001 65.8 206.271 65.768 206.559 65.768C207.001 65.768 207.391 65.8427 207.727 65.992C208.068 66.136 208.351 66.344 208.575 66.616C208.804 66.8827 208.977 67.2053 209.095 67.584C209.212 67.9627 209.271 68.3813 209.271 68.84V74H207.839V68.84C207.839 68.2267 207.697 67.752 207.415 67.416C207.137 67.0747 206.713 66.904 206.143 66.904C205.721 66.904 205.327 67.0053 204.959 67.208C204.596 67.4107 204.26 67.6853 203.951 68.032V74H202.519V65.896H203.375C203.577 65.896 203.703 65.9947 203.751 66.192L203.863 67.072ZM81.216 88.84H77.504V99H75.96V88.84H72.24V87.536H81.216V88.84ZM85.145 95.352C84.489 95.3733 83.929 95.4267 83.465 95.512C83.0063 95.592 82.6303 95.6987 82.337 95.832C82.049 95.9653 81.8383 96.1227 81.705 96.304C81.577 96.4853 81.513 96.688 81.513 96.912C81.513 97.1253 81.5477 97.3093 81.617 97.464C81.6863 97.6187 81.7797 97.7467 81.897 97.848C82.0197 97.944 82.161 98.016 82.321 98.064C82.4863 98.1067 82.6623 98.128 82.849 98.128C83.0997 98.128 83.329 98.104 83.537 98.056C83.745 98.0027 83.9397 97.928 84.121 97.832C84.3077 97.736 84.4837 97.6213 84.649 97.488C84.8197 97.3547 84.985 97.2027 85.145 97.032V95.352ZM80.545 92.04C80.993 91.608 81.4757 91.2853 81.993 91.072C82.5103 90.8587 83.0837 90.752 83.713 90.752C84.1663 90.752 84.569 90.8267 84.921 90.976C85.273 91.1253 85.569 91.3333 85.809 91.6C86.049 91.8667 86.2303 92.1893 86.353 92.568C86.4757 92.9467 86.537 93.3627 86.537 93.816V99H85.905C85.7663 99 85.6597 98.9787 85.585 98.936C85.5103 98.888 85.4517 98.7973 85.409 98.664L85.249 97.896C85.0357 98.0933 84.8277 98.2693 84.625 98.424C84.4223 98.5733 84.209 98.7013 83.985 98.808C83.761 98.9093 83.521 98.9867 83.265 99.04C83.0143 99.0987 82.7343 99.128 82.425 99.128C82.1103 99.128 81.8143 99.0853 81.537 99C81.2597 98.9093 81.017 98.776 80.809 98.6C80.6063 98.424 80.4437 98.2027 80.321 97.936C80.2037 97.664 80.145 97.344 80.145 96.976C80.145 96.656 80.233 96.3493 80.409 96.056C80.585 95.7573 80.8703 95.4933 81.265 95.264C81.6597 95.0347 82.1743 94.848 82.809 94.704C83.4437 94.5547 84.2223 94.4693 85.145 94.448V93.816C85.145 93.1867 85.009 92.712 84.737 92.392C84.465 92.0667 84.0677 91.904 83.545 91.904C83.193 91.904 82.897 91.9493 82.657 92.04C82.4223 92.1253 82.217 92.224 82.041 92.336C81.8703 92.4427 81.721 92.5413 81.593 92.632C81.4703 92.7173 81.3477 92.76 81.225 92.76C81.129 92.76 81.0463 92.736 80.977 92.688C80.9077 92.6347 80.849 92.5707 80.801 92.496L80.545 92.04ZM93.4261 92.232C93.3621 92.3493 93.2635 92.408 93.1301 92.408C93.0501 92.408 92.9595 92.3787 92.8581 92.32C92.7568 92.2613 92.6315 92.1973 92.4821 92.128C92.3381 92.0533 92.1648 91.9867 91.9621 91.928C91.7595 91.864 91.5195 91.832 91.2421 91.832C91.0021 91.832 90.7861 91.864 90.5941 91.928C90.4021 91.9867 90.2368 92.0693 90.0981 92.176C89.9648 92.2827 89.8608 92.408 89.7861 92.552C89.7168 92.6907 89.6821 92.8427 89.6821 93.008C89.6821 93.216 89.7408 93.3893 89.8581 93.528C89.9808 93.6667 90.1408 93.7867 90.3381 93.888C90.5355 93.9893 90.7595 94.08 91.0101 94.16C91.2608 94.2347 91.5168 94.3173 91.7781 94.408C92.0448 94.4933 92.3035 94.5893 92.5541 94.696C92.8048 94.8027 93.0288 94.936 93.2261 95.096C93.4235 95.256 93.5808 95.4533 93.6981 95.688C93.8208 95.9173 93.8821 96.1947 93.8821 96.52C93.8821 96.8933 93.8155 97.24 93.6821 97.56C93.5488 97.8747 93.3515 98.1493 93.0901 98.384C92.8288 98.6133 92.5088 98.7947 92.1301 98.928C91.7515 99.0613 91.3141 99.128 90.8181 99.128C90.2528 99.128 89.7408 99.0373 89.2821 98.856C88.8235 98.6693 88.4341 98.432 88.1141 98.144L88.4501 97.6C88.4928 97.5307 88.5435 97.4773 88.6021 97.44C88.6608 97.4027 88.7355 97.384 88.8261 97.384C88.9221 97.384 89.0235 97.4213 89.1301 97.496C89.2368 97.5707 89.3648 97.6533 89.5141 97.744C89.6688 97.8347 89.8555 97.9173 90.0741 97.992C90.2928 98.0667 90.5648 98.104 90.8901 98.104C91.1675 98.104 91.4101 98.0693 91.6181 98C91.8261 97.9253 91.9995 97.8267 92.1381 97.704C92.2768 97.5813 92.3781 97.44 92.4421 97.28C92.5115 97.12 92.5461 96.9493 92.5461 96.768C92.5461 96.544 92.4848 96.36 92.3621 96.216C92.2448 96.0667 92.0875 95.9413 91.8901 95.84C91.6928 95.7333 91.4661 95.6427 91.2101 95.568C90.9595 95.488 90.7008 95.4053 90.4341 95.32C90.1728 95.2347 89.9141 95.1387 89.6581 95.032C89.4075 94.92 89.1835 94.7813 88.9861 94.616C88.7888 94.4507 88.6288 94.248 88.5061 94.008C88.3888 93.7627 88.3301 93.4667 88.3301 93.12C88.3301 92.8107 88.3941 92.5147 88.5221 92.232C88.6501 91.944 88.8368 91.6933 89.0821 91.48C89.3275 91.2613 89.6288 91.088 89.9861 90.96C90.3435 90.832 90.7515 90.768 91.2101 90.768C91.7435 90.768 92.2208 90.8533 92.6421 91.024C93.0688 91.1893 93.4368 91.4187 93.7461 91.712L93.4261 92.232ZM97.06 87.216V94.152H97.428C97.5347 94.152 97.6227 94.1387 97.692 94.112C97.7667 94.08 97.844 94.0187 97.924 93.928L100.484 91.184C100.559 91.0933 100.636 91.024 100.716 90.976C100.801 90.9227 100.913 90.896 101.052 90.896H102.34L99.356 94.072C99.212 94.2533 99.0573 94.3947 98.892 94.496C98.988 94.56 99.0733 94.6347 99.148 94.72C99.228 94.8 99.3027 94.8933 99.372 95L102.54 99H101.268C101.145 99 101.039 98.9813 100.948 98.944C100.863 98.9013 100.788 98.8267 100.724 98.72L98.06 95.4C97.98 95.288 97.9 95.216 97.82 95.184C97.7453 95.1467 97.628 95.128 97.468 95.128H97.06V99H95.628V87.216H97.06ZM108.391 99V92.112L107.495 92.008C107.377 91.9813 107.284 91.9413 107.215 91.888C107.145 91.8293 107.111 91.7467 107.111 91.64V91.056H108.391V90.624C108.391 90.176 108.457 89.752 108.591 89.352C108.729 88.9467 108.937 88.5947 109.215 88.296C109.492 87.9973 109.839 87.76 110.255 87.584C110.671 87.408 111.156 87.32 111.711 87.32C112.121 87.32 112.516 87.336 112.895 87.368C113.279 87.4 113.649 87.4187 114.007 87.424H114.975V99H113.559V88.424C113.271 88.4133 112.98 88.4 112.687 88.384C112.399 88.368 112.145 88.36 111.927 88.36C111.233 88.36 110.7 88.56 110.327 88.96C109.959 89.3547 109.775 89.9093 109.775 90.624V91.056H111.879V92.088H109.815V99H108.391ZM120.7 90.768C121.292 90.768 121.826 90.8667 122.3 91.064C122.775 91.2613 123.18 91.5413 123.516 91.904C123.852 92.2667 124.108 92.7067 124.284 93.224C124.466 93.736 124.556 94.3093 124.556 94.944C124.556 95.584 124.466 96.16 124.284 96.672C124.108 97.184 123.852 97.6213 123.516 97.984C123.18 98.3467 122.775 98.6267 122.3 98.824C121.826 99.016 121.292 99.112 120.7 99.112C120.103 99.112 119.564 99.016 119.084 98.824C118.61 98.6267 118.204 98.3467 117.868 97.984C117.532 97.6213 117.274 97.184 117.092 96.672C116.916 96.16 116.828 95.584 116.828 94.944C116.828 94.3093 116.916 93.736 117.092 93.224C117.274 92.7067 117.532 92.2667 117.868 91.904C118.204 91.5413 118.61 91.2613 119.084 91.064C119.564 90.8667 120.103 90.768 120.7 90.768ZM120.7 98C121.5 98 122.098 97.7333 122.492 97.2C122.887 96.6613 123.084 95.912 123.084 94.952C123.084 93.9867 122.887 93.2347 122.492 92.696C122.098 92.1573 121.5 91.888 120.7 91.888C120.295 91.888 119.94 91.9573 119.636 92.096C119.338 92.2347 119.087 92.4347 118.884 92.696C118.687 92.9573 118.538 93.28 118.436 93.664C118.34 94.0427 118.292 94.472 118.292 94.952C118.292 95.912 118.49 96.6613 118.884 97.2C119.284 97.7333 119.89 98 120.7 98ZM137.413 90.896L134.789 99H133.661C133.523 99 133.427 98.9093 133.373 98.728L131.581 93.232C131.539 93.1093 131.504 92.9867 131.477 92.864C131.451 92.736 131.424 92.6107 131.397 92.488C131.371 92.6107 131.344 92.736 131.317 92.864C131.291 92.9867 131.256 93.112 131.213 93.24L129.389 98.728C129.341 98.9093 129.235 99 129.069 99H127.997L125.373 90.896H126.493C126.605 90.896 126.699 90.9253 126.773 90.984C126.853 91.0427 126.907 91.112 126.933 91.192L128.485 96.408C128.576 96.792 128.648 97.1547 128.701 97.496C128.749 97.32 128.797 97.1413 128.845 96.96C128.899 96.7787 128.955 96.5947 129.013 96.408L130.725 91.16C130.752 91.08 130.797 91.0133 130.861 90.96C130.931 90.9067 131.013 90.88 131.109 90.88H131.733C131.84 90.88 131.928 90.9067 131.997 90.96C132.067 91.0133 132.115 91.08 132.141 91.16L133.813 96.408C133.872 96.5947 133.925 96.7787 133.973 96.96C134.021 97.1413 134.067 97.32 134.109 97.496C134.136 97.32 134.168 97.144 134.205 96.968C134.248 96.7867 134.293 96.6 134.341 96.408L135.925 91.192C135.952 91.1067 136.003 91.0373 136.077 90.984C136.152 90.9253 136.24 90.896 136.341 90.896H137.413ZM143.457 92.232C143.393 92.3493 143.295 92.408 143.161 92.408C143.081 92.408 142.991 92.3787 142.889 92.32C142.788 92.2613 142.663 92.1973 142.513 92.128C142.369 92.0533 142.196 91.9867 141.993 91.928C141.791 91.864 141.551 91.832 141.273 91.832C141.033 91.832 140.817 91.864 140.625 91.928C140.433 91.9867 140.268 92.0693 140.129 92.176C139.996 92.2827 139.892 92.408 139.817 92.552C139.748 92.6907 139.713 92.8427 139.713 93.008C139.713 93.216 139.772 93.3893 139.889 93.528C140.012 93.6667 140.172 93.7867 140.369 93.888C140.567 93.9893 140.791 94.08 141.041 94.16C141.292 94.2347 141.548 94.3173 141.809 94.408C142.076 94.4933 142.335 94.5893 142.585 94.696C142.836 94.8027 143.06 94.936 143.257 95.096C143.455 95.256 143.612 95.4533 143.729 95.688C143.852 95.9173 143.913 96.1947 143.913 96.52C143.913 96.8933 143.847 97.24 143.713 97.56C143.58 97.8747 143.383 98.1493 143.121 98.384C142.86 98.6133 142.54 98.7947 142.161 98.928C141.783 99.0613 141.345 99.128 140.849 99.128C140.284 99.128 139.772 99.0373 139.313 98.856C138.855 98.6693 138.465 98.432 138.145 98.144L138.481 97.6C138.524 97.5307 138.575 97.4773 138.633 97.44C138.692 97.4027 138.767 97.384 138.857 97.384C138.953 97.384 139.055 97.4213 139.161 97.496C139.268 97.5707 139.396 97.6533 139.545 97.744C139.7 97.8347 139.887 97.9173 140.105 97.992C140.324 98.0667 140.596 98.104 140.921 98.104C141.199 98.104 141.441 98.0693 141.649 98C141.857 97.9253 142.031 97.8267 142.169 97.704C142.308 97.5813 142.409 97.44 142.473 97.28C142.543 97.12 142.577 96.9493 142.577 96.768C142.577 96.544 142.516 96.36 142.393 96.216C142.276 96.0667 142.119 95.9413 141.921 95.84C141.724 95.7333 141.497 95.6427 141.241 95.568C140.991 95.488 140.732 95.4053 140.465 95.32C140.204 95.2347 139.945 95.1387 139.689 95.032C139.439 94.92 139.215 94.7813 139.017 94.616C138.82 94.4507 138.66 94.248 138.537 94.008C138.42 93.7627 138.361 93.4667 138.361 93.12C138.361 92.8107 138.425 92.5147 138.553 92.232C138.681 91.944 138.868 91.6933 139.113 91.48C139.359 91.2613 139.66 91.088 140.017 90.96C140.375 90.832 140.783 90.768 141.241 90.768C141.775 90.768 142.252 90.8533 142.673 91.024C143.1 91.1893 143.468 91.4187 143.777 91.712L143.457 92.232ZM88.32 112.536L84.744 124H83.352L80.448 115.256C80.4213 115.171 80.3947 115.08 80.368 114.984C80.3467 114.888 80.3227 114.787 80.296 114.68C80.2693 114.787 80.2427 114.888 80.216 114.984C80.1893 115.08 80.1627 115.171 80.136 115.256L77.216 124H75.824L72.248 112.536H73.536C73.6747 112.536 73.7893 112.571 73.88 112.64C73.976 112.709 74.0373 112.797 74.064 112.904L76.432 120.872C76.4693 121.016 76.504 121.171 76.536 121.336C76.5733 121.501 76.608 121.677 76.64 121.864C76.6773 121.677 76.7147 121.501 76.752 121.336C76.7947 121.165 76.84 121.011 76.888 120.872L79.584 112.904C79.616 112.813 79.6773 112.731 79.768 112.656C79.864 112.576 79.9787 112.536 80.112 112.536H80.56C80.6987 112.536 80.8107 112.571 80.896 112.64C80.9813 112.709 81.0453 112.797 81.088 112.904L83.776 120.872C83.824 121.011 83.8667 121.16 83.904 121.32C83.9467 121.48 83.9867 121.648 84.024 121.824C84.0507 121.648 84.08 121.48 84.112 121.32C84.144 121.16 84.1787 121.011 84.216 120.872L86.592 112.904C86.6187 112.808 86.6773 112.723 86.768 112.648C86.864 112.573 86.9787 112.536 87.112 112.536H88.32ZM91.132 115.896V124H89.708V115.896H91.132ZM91.436 113.352C91.436 113.491 91.4067 113.621 91.348 113.744C91.2947 113.861 91.22 113.968 91.124 114.064C91.0333 114.155 90.924 114.227 90.796 114.28C90.6733 114.333 90.5427 114.36 90.404 114.36C90.2653 114.36 90.1347 114.333 90.012 114.28C89.8947 114.227 89.7907 114.155 89.7 114.064C89.6093 113.968 89.5373 113.861 89.484 113.744C89.4307 113.621 89.404 113.491 89.404 113.352C89.404 113.213 89.4307 113.083 89.484 112.96C89.5373 112.832 89.6093 112.723 89.7 112.632C89.7907 112.536 89.8947 112.461 90.012 112.408C90.1347 112.355 90.2653 112.328 90.404 112.328C90.5427 112.328 90.6733 112.355 90.796 112.408C90.924 112.461 91.0333 112.536 91.124 112.632C91.22 112.723 91.2947 112.832 91.348 112.96C91.4067 113.083 91.436 113.213 91.436 113.352ZM94.8238 117.52C95.0798 116.965 95.3944 116.533 95.7678 116.224C96.1411 115.909 96.5971 115.752 97.1358 115.752C97.3064 115.752 97.4691 115.771 97.6238 115.808C97.7838 115.845 97.9251 115.904 98.0478 115.984L97.9438 117.048C97.9118 117.181 97.8318 117.248 97.7038 117.248C97.6291 117.248 97.5198 117.232 97.3758 117.2C97.2318 117.168 97.0691 117.152 96.8878 117.152C96.6318 117.152 96.4024 117.189 96.1998 117.264C96.0024 117.339 95.8238 117.451 95.6638 117.6C95.5091 117.744 95.3678 117.925 95.2398 118.144C95.1171 118.357 95.0051 118.603 94.9038 118.88V124H93.4718V115.896H94.2878C94.4424 115.896 94.5491 115.925 94.6078 115.984C94.6664 116.043 94.7064 116.144 94.7278 116.288L94.8238 117.52ZM104.396 119.064C104.396 118.733 104.348 118.432 104.252 118.16C104.161 117.883 104.025 117.645 103.844 117.448C103.668 117.245 103.452 117.091 103.196 116.984C102.94 116.872 102.649 116.816 102.324 116.816C101.641 116.816 101.1 117.016 100.7 117.416C100.305 117.811 100.06 118.36 99.9638 119.064H104.396ZM105.548 122.864C105.372 123.077 105.161 123.264 104.916 123.424C104.67 123.579 104.406 123.707 104.124 123.808C103.846 123.909 103.558 123.984 103.26 124.032C102.961 124.085 102.665 124.112 102.372 124.112C101.812 124.112 101.294 124.019 100.82 123.832C100.35 123.64 99.9424 123.363 99.5958 123C99.2544 122.632 98.9878 122.179 98.7958 121.64C98.6038 121.101 98.5078 120.483 98.5078 119.784C98.5078 119.219 98.5931 118.691 98.7638 118.2C98.9398 117.709 99.1904 117.285 99.5158 116.928C99.8411 116.565 100.238 116.283 100.708 116.08C101.177 115.872 101.705 115.768 102.292 115.768C102.777 115.768 103.225 115.851 103.636 116.016C104.052 116.176 104.409 116.411 104.708 116.72C105.012 117.024 105.249 117.403 105.42 117.856C105.59 118.304 105.676 118.816 105.676 119.392C105.676 119.616 105.652 119.765 105.604 119.84C105.556 119.915 105.465 119.952 105.332 119.952H99.9158C99.9318 120.464 100.001 120.909 100.124 121.288C100.252 121.667 100.428 121.984 100.652 122.24C100.876 122.491 101.142 122.68 101.452 122.808C101.761 122.931 102.108 122.992 102.492 122.992C102.849 122.992 103.156 122.952 103.412 122.872C103.673 122.787 103.897 122.696 104.084 122.6C104.27 122.504 104.425 122.416 104.548 122.336C104.676 122.251 104.785 122.208 104.876 122.208C104.993 122.208 105.084 122.253 105.148 122.344L105.548 122.864ZM107.875 124V117.112L106.979 117.008C106.867 116.981 106.773 116.941 106.699 116.888C106.629 116.829 106.595 116.747 106.595 116.64V116.056H107.875V115.272C107.875 114.808 107.939 114.397 108.067 114.04C108.2 113.677 108.387 113.373 108.627 113.128C108.872 112.877 109.165 112.688 109.507 112.56C109.848 112.432 110.232 112.368 110.659 112.368C111.021 112.368 111.355 112.421 111.659 112.528L111.627 113.24C111.616 113.368 111.544 113.437 111.411 113.448C111.283 113.459 111.109 113.464 110.891 113.464C110.645 113.464 110.421 113.496 110.219 113.56C110.021 113.624 109.851 113.728 109.707 113.872C109.563 114.016 109.451 114.205 109.371 114.44C109.296 114.675 109.259 114.965 109.259 115.312V116.056H111.595V117.088H109.307V124H107.875ZM114.308 117.52C114.564 116.965 114.879 116.533 115.252 116.224C115.625 115.909 116.081 115.752 116.62 115.752C116.791 115.752 116.953 115.771 117.108 115.808C117.268 115.845 117.409 115.904 117.532 115.984L117.428 117.048C117.396 117.181 117.316 117.248 117.188 117.248C117.113 117.248 117.004 117.232 116.86 117.2C116.716 117.168 116.553 117.152 116.372 117.152C116.116 117.152 115.887 117.189 115.684 117.264C115.487 117.339 115.308 117.451 115.148 117.6C114.993 117.744 114.852 117.925 114.724 118.144C114.601 118.357 114.489 118.603 114.388 118.88V124H112.956V115.896H113.772C113.927 115.896 114.033 115.925 114.092 115.984C114.151 116.043 114.191 116.144 114.212 116.288L114.308 117.52ZM123.051 120.352C122.395 120.373 121.835 120.427 121.371 120.512C120.913 120.592 120.537 120.699 120.243 120.832C119.955 120.965 119.745 121.123 119.611 121.304C119.483 121.485 119.419 121.688 119.419 121.912C119.419 122.125 119.454 122.309 119.523 122.464C119.593 122.619 119.686 122.747 119.803 122.848C119.926 122.944 120.067 123.016 120.227 123.064C120.393 123.107 120.569 123.128 120.755 123.128C121.006 123.128 121.235 123.104 121.443 123.056C121.651 123.003 121.846 122.928 122.027 122.832C122.214 122.736 122.39 122.621 122.555 122.488C122.726 122.355 122.891 122.203 123.051 122.032V120.352ZM118.451 117.04C118.899 116.608 119.382 116.285 119.899 116.072C120.417 115.859 120.99 115.752 121.619 115.752C122.073 115.752 122.475 115.827 122.827 115.976C123.179 116.125 123.475 116.333 123.715 116.6C123.955 116.867 124.137 117.189 124.259 117.568C124.382 117.947 124.443 118.363 124.443 118.816V124H123.811C123.673 124 123.566 123.979 123.491 123.936C123.417 123.888 123.358 123.797 123.315 123.664L123.155 122.896C122.942 123.093 122.734 123.269 122.531 123.424C122.329 123.573 122.115 123.701 121.891 123.808C121.667 123.909 121.427 123.987 121.171 124.04C120.921 124.099 120.641 124.128 120.331 124.128C120.017 124.128 119.721 124.085 119.443 124C119.166 123.909 118.923 123.776 118.715 123.6C118.513 123.424 118.35 123.203 118.227 122.936C118.11 122.664 118.051 122.344 118.051 121.976C118.051 121.656 118.139 121.349 118.315 121.056C118.491 120.757 118.777 120.493 119.171 120.264C119.566 120.035 120.081 119.848 120.715 119.704C121.35 119.555 122.129 119.469 123.051 119.448V118.816C123.051 118.187 122.915 117.712 122.643 117.392C122.371 117.067 121.974 116.904 121.451 116.904C121.099 116.904 120.803 116.949 120.563 117.04C120.329 117.125 120.123 117.224 119.947 117.336C119.777 117.443 119.627 117.541 119.499 117.632C119.377 117.717 119.254 117.76 119.131 117.76C119.035 117.76 118.953 117.736 118.883 117.688C118.814 117.635 118.755 117.571 118.707 117.496L118.451 117.04ZM126.612 124V115.896H127.468C127.671 115.896 127.796 115.995 127.844 116.192L127.948 117.024C128.247 116.656 128.583 116.355 128.956 116.12C129.33 115.885 129.762 115.768 130.252 115.768C130.796 115.768 131.236 115.92 131.572 116.224C131.914 116.528 132.159 116.939 132.308 117.456C132.426 117.163 132.575 116.909 132.756 116.696C132.943 116.483 133.151 116.307 133.38 116.168C133.61 116.029 133.852 115.928 134.108 115.864C134.37 115.8 134.634 115.768 134.9 115.768C135.327 115.768 135.706 115.837 136.036 115.976C136.372 116.109 136.655 116.307 136.884 116.568C137.119 116.829 137.298 117.152 137.42 117.536C137.543 117.915 137.604 118.349 137.604 118.84V124H136.172V118.84C136.172 118.205 136.034 117.725 135.756 117.4C135.479 117.069 135.079 116.904 134.556 116.904C134.322 116.904 134.098 116.947 133.884 117.032C133.676 117.112 133.492 117.232 133.332 117.392C133.172 117.552 133.044 117.755 132.948 118C132.858 118.24 132.812 118.52 132.812 118.84V124H131.38V118.84C131.38 118.189 131.25 117.704 130.988 117.384C130.727 117.064 130.346 116.904 129.844 116.904C129.492 116.904 129.167 117 128.868 117.192C128.57 117.379 128.295 117.635 128.044 117.96V124H126.612ZM145.193 119.064C145.193 118.733 145.145 118.432 145.049 118.16C144.958 117.883 144.822 117.645 144.641 117.448C144.465 117.245 144.249 117.091 143.993 116.984C143.737 116.872 143.446 116.816 143.121 116.816C142.438 116.816 141.897 117.016 141.497 117.416C141.102 117.811 140.857 118.36 140.761 119.064H145.193ZM146.345 122.864C146.169 123.077 145.958 123.264 145.713 123.424C145.467 123.579 145.203 123.707 144.921 123.808C144.643 123.909 144.355 123.984 144.057 124.032C143.758 124.085 143.462 124.112 143.169 124.112C142.609 124.112 142.091 124.019 141.617 123.832C141.147 123.64 140.739 123.363 140.393 123C140.051 122.632 139.785 122.179 139.593 121.64C139.401 121.101 139.305 120.483 139.305 119.784C139.305 119.219 139.39 118.691 139.561 118.2C139.737 117.709 139.987 117.285 140.313 116.928C140.638 116.565 141.035 116.283 141.505 116.08C141.974 115.872 142.502 115.768 143.089 115.768C143.574 115.768 144.022 115.851 144.433 116.016C144.849 116.176 145.206 116.411 145.505 116.72C145.809 117.024 146.046 117.403 146.217 117.856C146.387 118.304 146.473 118.816 146.473 119.392C146.473 119.616 146.449 119.765 146.401 119.84C146.353 119.915 146.262 119.952 146.129 119.952H140.713C140.729 120.464 140.798 120.909 140.921 121.288C141.049 121.667 141.225 121.984 141.449 122.24C141.673 122.491 141.939 122.68 142.249 122.808C142.558 122.931 142.905 122.992 143.289 122.992C143.646 122.992 143.953 122.952 144.209 122.872C144.47 122.787 144.694 122.696 144.881 122.6C145.067 122.504 145.222 122.416 145.345 122.336C145.473 122.251 145.582 122.208 145.673 122.208C145.79 122.208 145.881 122.253 145.945 122.344L146.345 122.864ZM152.942 117.232C152.878 117.349 152.779 117.408 152.646 117.408C152.566 117.408 152.475 117.379 152.374 117.32C152.272 117.261 152.147 117.197 151.998 117.128C151.854 117.053 151.68 116.987 151.478 116.928C151.275 116.864 151.035 116.832 150.758 116.832C150.518 116.832 150.302 116.864 150.11 116.928C149.918 116.987 149.752 117.069 149.614 117.176C149.48 117.283 149.376 117.408 149.302 117.552C149.232 117.691 149.198 117.843 149.198 118.008C149.198 118.216 149.256 118.389 149.374 118.528C149.496 118.667 149.656 118.787 149.854 118.888C150.051 118.989 150.275 119.08 150.526 119.16C150.776 119.235 151.032 119.317 151.294 119.408C151.56 119.493 151.819 119.589 152.07 119.696C152.32 119.803 152.544 119.936 152.742 120.096C152.939 120.256 153.096 120.453 153.214 120.688C153.336 120.917 153.398 121.195 153.398 121.52C153.398 121.893 153.331 122.24 153.198 122.56C153.064 122.875 152.867 123.149 152.606 123.384C152.344 123.613 152.024 123.795 151.646 123.928C151.267 124.061 150.83 124.128 150.334 124.128C149.768 124.128 149.256 124.037 148.798 123.856C148.339 123.669 147.95 123.432 147.63 123.144L147.966 122.6C148.008 122.531 148.059 122.477 148.118 122.44C148.176 122.403 148.251 122.384 148.342 122.384C148.438 122.384 148.539 122.421 148.646 122.496C148.752 122.571 148.88 122.653 149.03 122.744C149.184 122.835 149.371 122.917 149.59 122.992C149.808 123.067 150.08 123.104 150.406 123.104C150.683 123.104 150.926 123.069 151.134 123C151.342 122.925 151.515 122.827 151.654 122.704C151.792 122.581 151.894 122.44 151.958 122.28C152.027 122.12 152.062 121.949 152.062 121.768C152.062 121.544 152 121.36 151.878 121.216C151.76 121.067 151.603 120.941 151.406 120.84C151.208 120.733 150.982 120.643 150.726 120.568C150.475 120.488 150.216 120.405 149.95 120.32C149.688 120.235 149.43 120.139 149.174 120.032C148.923 119.92 148.699 119.781 148.502 119.616C148.304 119.451 148.144 119.248 148.022 119.008C147.904 118.763 147.846 118.467 147.846 118.12C147.846 117.811 147.91 117.515 148.038 117.232C148.166 116.944 148.352 116.693 148.598 116.48C148.843 116.261 149.144 116.088 149.502 115.96C149.859 115.832 150.267 115.768 150.726 115.768C151.259 115.768 151.736 115.853 152.158 116.024C152.584 116.189 152.952 116.419 153.262 116.712L152.942 117.232ZM77.488 147.768C77.9307 147.768 78.312 147.717 78.632 147.616C78.952 147.515 79.2133 147.373 79.416 147.192C79.624 147.005 79.776 146.787 79.872 146.536C79.968 146.28 80.016 146 80.016 145.696C80.016 145.104 79.8053 144.637 79.384 144.296C78.9627 143.949 78.3307 143.776 77.488 143.776H75.008V147.768H77.488ZM75.008 138.76V142.672H77.056C77.4933 142.672 77.872 142.624 78.192 142.528C78.5173 142.432 78.784 142.299 78.992 142.128C79.2053 141.957 79.3627 141.752 79.464 141.512C79.5653 141.267 79.616 141 79.616 140.712C79.616 140.035 79.4133 139.541 79.008 139.232C78.6027 138.917 77.9733 138.76 77.12 138.76H75.008ZM77.12 137.536C77.824 137.536 78.4293 137.605 78.936 137.744C79.448 137.883 79.8667 138.08 80.192 138.336C80.5227 138.592 80.7653 138.907 80.92 139.28C81.0747 139.648 81.152 140.064 81.152 140.528C81.152 140.811 81.1067 141.083 81.016 141.344C80.9307 141.6 80.8 141.84 80.624 142.064C80.448 142.288 80.224 142.491 79.952 142.672C79.6853 142.848 79.3707 142.992 79.008 143.104C79.8507 143.264 80.4827 143.565 80.904 144.008C81.3307 144.445 81.544 145.021 81.544 145.736C81.544 146.221 81.4533 146.664 81.272 147.064C81.096 147.464 80.8347 147.808 80.488 148.096C80.1467 148.384 79.7253 148.608 79.224 148.768C78.7227 148.923 78.152 149 77.512 149H73.464V137.536H77.12ZM84.6519 142.52C84.9079 141.965 85.2225 141.533 85.5959 141.224C85.9692 140.909 86.4252 140.752 86.9639 140.752C87.1345 140.752 87.2972 140.771 87.4519 140.808C87.6119 140.845 87.7532 140.904 87.8759 140.984L87.7719 142.048C87.7399 142.181 87.6599 142.248 87.5319 142.248C87.4572 142.248 87.3479 142.232 87.2039 142.2C87.0599 142.168 86.8972 142.152 86.7159 142.152C86.4599 142.152 86.2305 142.189 86.0279 142.264C85.8305 142.339 85.6519 142.451 85.4919 142.6C85.3372 142.744 85.1959 142.925 85.0679 143.144C84.9452 143.357 84.8332 143.603 84.7319 143.88V149H83.2999V140.896H84.1159C84.2705 140.896 84.3772 140.925 84.4359 140.984C84.4945 141.043 84.5345 141.144 84.5559 141.288L84.6519 142.52ZM93.395 145.352C92.739 145.373 92.179 145.427 91.715 145.512C91.2563 145.592 90.8803 145.699 90.587 145.832C90.299 145.965 90.0883 146.123 89.955 146.304C89.827 146.485 89.763 146.688 89.763 146.912C89.763 147.125 89.7977 147.309 89.867 147.464C89.9363 147.619 90.0297 147.747 90.147 147.848C90.2697 147.944 90.411 148.016 90.571 148.064C90.7363 148.107 90.9123 148.128 91.099 148.128C91.3497 148.128 91.579 148.104 91.787 148.056C91.995 148.003 92.1897 147.928 92.371 147.832C92.5577 147.736 92.7337 147.621 92.899 147.488C93.0697 147.355 93.235 147.203 93.395 147.032V145.352ZM88.795 142.04C89.243 141.608 89.7257 141.285 90.243 141.072C90.7603 140.859 91.3337 140.752 91.963 140.752C92.4163 140.752 92.819 140.827 93.171 140.976C93.523 141.125 93.819 141.333 94.059 141.6C94.299 141.867 94.4803 142.189 94.603 142.568C94.7257 142.947 94.787 143.363 94.787 143.816V149H94.155C94.0163 149 93.9097 148.979 93.835 148.936C93.7603 148.888 93.7017 148.797 93.659 148.664L93.499 147.896C93.2857 148.093 93.0777 148.269 92.875 148.424C92.6723 148.573 92.459 148.701 92.235 148.808C92.011 148.909 91.771 148.987 91.515 149.04C91.2643 149.099 90.9843 149.128 90.675 149.128C90.3603 149.128 90.0643 149.085 89.787 149C89.5097 148.909 89.267 148.776 89.059 148.6C88.8563 148.424 88.6937 148.203 88.571 147.936C88.4537 147.664 88.395 147.344 88.395 146.976C88.395 146.656 88.483 146.349 88.659 146.056C88.835 145.757 89.1203 145.493 89.515 145.264C89.9097 145.035 90.4243 144.848 91.059 144.704C91.6937 144.555 92.4723 144.469 93.395 144.448V143.816C93.395 143.187 93.259 142.712 92.987 142.392C92.715 142.067 92.3177 141.904 91.795 141.904C91.443 141.904 91.147 141.949 90.907 142.04C90.6723 142.125 90.467 142.224 90.291 142.336C90.1203 142.443 89.971 142.541 89.843 142.632C89.7203 142.717 89.5977 142.76 89.475 142.76C89.379 142.76 89.2963 142.736 89.227 142.688C89.1577 142.635 89.099 142.571 89.051 142.496L88.795 142.04ZM98.3001 142.072C98.4761 141.875 98.6628 141.696 98.8601 141.536C99.0575 141.376 99.2655 141.24 99.4841 141.128C99.7081 141.011 99.9428 140.923 100.188 140.864C100.439 140.8 100.708 140.768 100.996 140.768C101.439 140.768 101.828 140.843 102.164 140.992C102.505 141.136 102.788 141.344 103.012 141.616C103.241 141.883 103.415 142.205 103.532 142.584C103.649 142.963 103.708 143.381 103.708 143.84V149H102.276V143.84C102.276 143.227 102.135 142.752 101.852 142.416C101.575 142.075 101.151 141.904 100.58 141.904C100.159 141.904 99.7641 142.005 99.3961 142.208C99.0335 142.411 98.6975 142.685 98.3881 143.032V149H96.9561V140.896H97.8121C98.0148 140.896 98.1401 140.995 98.1881 141.192L98.3001 142.072ZM111.158 142.824C110.891 142.467 110.603 142.219 110.294 142.08C109.985 141.936 109.638 141.864 109.254 141.864C108.502 141.864 107.923 142.133 107.518 142.672C107.113 143.211 106.91 143.979 106.91 144.976C106.91 145.504 106.955 145.957 107.046 146.336C107.137 146.709 107.27 147.019 107.446 147.264C107.622 147.504 107.838 147.68 108.094 147.792C108.35 147.904 108.641 147.96 108.966 147.96C109.435 147.96 109.843 147.853 110.19 147.64C110.542 147.427 110.865 147.125 111.158 146.736V142.824ZM112.582 137.216V149H111.734C111.531 149 111.403 148.901 111.35 148.704L111.222 147.72C110.875 148.136 110.481 148.472 110.038 148.728C109.595 148.984 109.083 149.112 108.502 149.112C108.038 149.112 107.617 149.024 107.238 148.848C106.859 148.667 106.537 148.403 106.27 148.056C106.003 147.709 105.798 147.277 105.654 146.76C105.51 146.243 105.438 145.648 105.438 144.976C105.438 144.379 105.518 143.824 105.678 143.312C105.838 142.795 106.067 142.347 106.366 141.968C106.665 141.589 107.03 141.293 107.462 141.08C107.899 140.861 108.39 140.752 108.934 140.752C109.43 140.752 109.854 140.837 110.206 141.008C110.563 141.173 110.881 141.405 111.158 141.704V137.216H112.582ZM116.335 140.896V149H114.911V140.896H116.335ZM116.639 138.352C116.639 138.491 116.61 138.621 116.551 138.744C116.498 138.861 116.423 138.968 116.327 139.064C116.236 139.155 116.127 139.227 115.999 139.28C115.876 139.333 115.746 139.36 115.607 139.36C115.468 139.36 115.338 139.333 115.215 139.28C115.098 139.227 114.994 139.155 114.903 139.064C114.812 138.968 114.74 138.861 114.687 138.744C114.634 138.621 114.607 138.491 114.607 138.352C114.607 138.213 114.634 138.083 114.687 137.96C114.74 137.832 114.812 137.723 114.903 137.632C114.994 137.536 115.098 137.461 115.215 137.408C115.338 137.355 115.468 137.328 115.607 137.328C115.746 137.328 115.876 137.355 115.999 137.408C116.127 137.461 116.236 137.536 116.327 137.632C116.423 137.723 116.498 137.832 116.551 137.96C116.61 138.083 116.639 138.213 116.639 138.352ZM120.019 142.072C120.195 141.875 120.382 141.696 120.579 141.536C120.776 141.376 120.984 141.24 121.203 141.128C121.427 141.011 121.662 140.923 121.907 140.864C122.158 140.8 122.427 140.768 122.715 140.768C123.158 140.768 123.547 140.843 123.883 140.992C124.224 141.136 124.507 141.344 124.731 141.616C124.96 141.883 125.134 142.205 125.251 142.584C125.368 142.963 125.427 143.381 125.427 143.84V149H123.995V143.84C123.995 143.227 123.854 142.752 123.571 142.416C123.294 142.075 122.87 141.904 122.299 141.904C121.878 141.904 121.483 142.005 121.115 142.208C120.752 142.411 120.416 142.685 120.107 143.032V149H118.675V140.896H119.531C119.734 140.896 119.859 140.995 119.907 141.192L120.019 142.072ZM130.421 145.04C130.709 145.04 130.962 145 131.181 144.92C131.399 144.84 131.583 144.728 131.733 144.584C131.882 144.44 131.994 144.269 132.069 144.072C132.143 143.869 132.181 143.648 132.181 143.408C132.181 142.912 132.029 142.517 131.725 142.224C131.426 141.931 130.991 141.784 130.421 141.784C129.845 141.784 129.405 141.931 129.101 142.224C128.802 142.517 128.653 142.912 128.653 143.408C128.653 143.648 128.69 143.869 128.765 144.072C128.845 144.269 128.959 144.44 129.109 144.584C129.258 144.728 129.442 144.84 129.661 144.92C129.879 145 130.133 145.04 130.421 145.04ZM132.989 149.44C132.989 149.243 132.933 149.083 132.821 148.96C132.709 148.837 132.557 148.741 132.365 148.672C132.178 148.603 131.959 148.555 131.709 148.528C131.458 148.496 131.191 148.472 130.909 148.456C130.631 148.44 130.349 148.424 130.061 148.408C129.773 148.392 129.495 148.365 129.229 148.328C128.93 148.467 128.685 148.643 128.493 148.856C128.306 149.064 128.213 149.309 128.213 149.592C128.213 149.773 128.258 149.941 128.349 150.096C128.445 150.256 128.589 150.392 128.781 150.504C128.973 150.621 129.213 150.712 129.501 150.776C129.794 150.845 130.138 150.88 130.533 150.88C130.917 150.88 131.261 150.845 131.565 150.776C131.869 150.707 132.125 150.608 132.333 150.48C132.546 150.352 132.709 150.2 132.821 150.024C132.933 149.848 132.989 149.653 132.989 149.44ZM134.437 141.216V141.744C134.437 141.92 134.325 142.032 134.101 142.08L133.181 142.2C133.362 142.552 133.453 142.941 133.453 143.368C133.453 143.763 133.375 144.123 133.221 144.448C133.071 144.768 132.863 145.043 132.597 145.272C132.33 145.501 132.01 145.677 131.637 145.8C131.263 145.923 130.858 145.984 130.421 145.984C130.042 145.984 129.685 145.939 129.349 145.848C129.178 145.955 129.047 146.069 128.957 146.192C128.866 146.309 128.821 146.429 128.821 146.552C128.821 146.744 128.898 146.891 129.053 146.992C129.213 147.088 129.421 147.157 129.677 147.2C129.933 147.243 130.223 147.269 130.549 147.28C130.879 147.291 131.215 147.309 131.557 147.336C131.903 147.357 132.239 147.397 132.565 147.456C132.895 147.515 133.189 147.611 133.445 147.744C133.701 147.877 133.906 148.061 134.061 148.296C134.221 148.531 134.301 148.835 134.301 149.208C134.301 149.555 134.213 149.891 134.037 150.216C133.866 150.541 133.618 150.829 133.293 151.08C132.967 151.336 132.567 151.539 132.093 151.688C131.623 151.843 131.093 151.92 130.501 151.92C129.909 151.92 129.391 151.861 128.949 151.744C128.506 151.627 128.138 151.469 127.845 151.272C127.551 151.075 127.33 150.845 127.181 150.584C127.037 150.328 126.965 150.059 126.965 149.776C126.965 149.376 127.09 149.037 127.341 148.76C127.591 148.483 127.935 148.261 128.373 148.096C128.133 147.989 127.941 147.848 127.797 147.672C127.658 147.491 127.589 147.248 127.589 146.944C127.589 146.827 127.61 146.707 127.653 146.584C127.695 146.456 127.759 146.331 127.845 146.208C127.935 146.08 128.045 145.96 128.173 145.848C128.301 145.736 128.45 145.637 128.621 145.552C128.221 145.328 127.909 145.032 127.685 144.664C127.461 144.291 127.349 143.859 127.349 143.368C127.349 142.973 127.423 142.616 127.573 142.296C127.727 141.971 127.941 141.696 128.213 141.472C128.485 141.243 128.807 141.067 129.181 140.944C129.559 140.821 129.973 140.76 130.421 140.76C130.773 140.76 131.101 140.8 131.405 140.88C131.709 140.955 131.986 141.067 132.237 141.216H134.437ZM142.827 145.04C143.115 145.04 143.368 145 143.587 144.92C143.806 144.84 143.99 144.728 144.139 144.584C144.288 144.44 144.4 144.269 144.475 144.072C144.55 143.869 144.587 143.648 144.587 143.408C144.587 142.912 144.435 142.517 144.131 142.224C143.832 141.931 143.398 141.784 142.827 141.784C142.251 141.784 141.811 141.931 141.507 142.224C141.208 142.517 141.059 142.912 141.059 143.408C141.059 143.648 141.096 143.869 141.171 144.072C141.251 144.269 141.366 144.44 141.515 144.584C141.664 144.728 141.848 144.84 142.067 144.92C142.286 145 142.539 145.04 142.827 145.04ZM145.395 149.44C145.395 149.243 145.339 149.083 145.227 148.96C145.115 148.837 144.963 148.741 144.771 148.672C144.584 148.603 144.366 148.555 144.115 148.528C143.864 148.496 143.598 148.472 143.315 148.456C143.038 148.44 142.755 148.424 142.467 148.408C142.179 148.392 141.902 148.365 141.635 148.328C141.336 148.467 141.091 148.643 140.899 148.856C140.712 149.064 140.619 149.309 140.619 149.592C140.619 149.773 140.664 149.941 140.755 150.096C140.851 150.256 140.995 150.392 141.187 150.504C141.379 150.621 141.619 150.712 141.907 150.776C142.2 150.845 142.544 150.88 142.939 150.88C143.323 150.88 143.667 150.845 143.971 150.776C144.275 150.707 144.531 150.608 144.739 150.48C144.952 150.352 145.115 150.2 145.227 150.024C145.339 149.848 145.395 149.653 145.395 149.44ZM146.843 141.216V141.744C146.843 141.92 146.731 142.032 146.507 142.08L145.587 142.2C145.768 142.552 145.859 142.941 145.859 143.368C145.859 143.763 145.782 144.123 145.627 144.448C145.478 144.768 145.27 145.043 145.003 145.272C144.736 145.501 144.416 145.677 144.043 145.8C143.67 145.923 143.264 145.984 142.827 145.984C142.448 145.984 142.091 145.939 141.755 145.848C141.584 145.955 141.454 146.069 141.363 146.192C141.272 146.309 141.227 146.429 141.227 146.552C141.227 146.744 141.304 146.891 141.459 146.992C141.619 147.088 141.827 147.157 142.083 147.2C142.339 147.243 142.63 147.269 142.955 147.28C143.286 147.291 143.622 147.309 143.963 147.336C144.31 147.357 144.646 147.397 144.971 147.456C145.302 147.515 145.595 147.611 145.851 147.744C146.107 147.877 146.312 148.061 146.467 148.296C146.627 148.531 146.707 148.835 146.707 149.208C146.707 149.555 146.619 149.891 146.443 150.216C146.272 150.541 146.024 150.829 145.699 151.08C145.374 151.336 144.974 151.539 144.499 151.688C144.03 151.843 143.499 151.92 142.907 151.92C142.315 151.92 141.798 151.861 141.355 151.744C140.912 151.627 140.544 151.469 140.251 151.272C139.958 151.075 139.736 150.845 139.587 150.584C139.443 150.328 139.371 150.059 139.371 149.776C139.371 149.376 139.496 149.037 139.747 148.76C139.998 148.483 140.342 148.261 140.779 148.096C140.539 147.989 140.347 147.848 140.203 147.672C140.064 147.491 139.995 147.248 139.995 146.944C139.995 146.827 140.016 146.707 140.059 146.584C140.102 146.456 140.166 146.331 140.251 146.208C140.342 146.08 140.451 145.96 140.579 145.848C140.707 145.736 140.856 145.637 141.027 145.552C140.627 145.328 140.315 145.032 140.091 144.664C139.867 144.291 139.755 143.859 139.755 143.368C139.755 142.973 139.83 142.616 139.979 142.296C140.134 141.971 140.347 141.696 140.619 141.472C140.891 141.243 141.214 141.067 141.587 140.944C141.966 140.821 142.379 140.76 142.827 140.76C143.179 140.76 143.507 140.8 143.811 140.88C144.115 140.955 144.392 141.067 144.643 141.216H146.843ZM154.98 140.896V149H154.132C153.929 149 153.801 148.901 153.748 148.704L153.636 147.832C153.284 148.221 152.889 148.536 152.452 148.776C152.014 149.011 151.513 149.128 150.948 149.128C150.505 149.128 150.113 149.056 149.772 148.912C149.436 148.763 149.153 148.555 148.924 148.288C148.694 148.021 148.521 147.699 148.404 147.32C148.292 146.941 148.236 146.523 148.236 146.064V140.896H149.66V146.064C149.66 146.677 149.798 147.152 150.076 147.488C150.358 147.824 150.788 147.992 151.364 147.992C151.785 147.992 152.177 147.893 152.54 147.696C152.908 147.493 153.246 147.216 153.556 146.864V140.896H154.98ZM158.741 140.896V149H157.317V140.896H158.741ZM159.045 138.352C159.045 138.491 159.016 138.621 158.957 138.744C158.904 138.861 158.829 138.968 158.733 139.064C158.643 139.155 158.533 139.227 158.405 139.28C158.283 139.333 158.152 139.36 158.013 139.36C157.875 139.36 157.744 139.333 157.621 139.28C157.504 139.227 157.4 139.155 157.309 139.064C157.219 138.968 157.147 138.861 157.093 138.744C157.04 138.621 157.013 138.491 157.013 138.352C157.013 138.213 157.04 138.083 157.093 137.96C157.147 137.832 157.219 137.723 157.309 137.632C157.4 137.536 157.504 137.461 157.621 137.408C157.744 137.355 157.875 137.328 158.013 137.328C158.152 137.328 158.283 137.355 158.405 137.408C158.533 137.461 158.643 137.536 158.733 137.632C158.829 137.723 158.904 137.832 158.957 137.96C159.016 138.083 159.045 138.213 159.045 138.352ZM166.361 142.824C166.094 142.467 165.806 142.219 165.497 142.08C165.188 141.936 164.841 141.864 164.457 141.864C163.705 141.864 163.126 142.133 162.721 142.672C162.316 143.211 162.113 143.979 162.113 144.976C162.113 145.504 162.158 145.957 162.249 146.336C162.34 146.709 162.473 147.019 162.649 147.264C162.825 147.504 163.041 147.68 163.297 147.792C163.553 147.904 163.844 147.96 164.169 147.96C164.638 147.96 165.046 147.853 165.393 147.64C165.745 147.427 166.068 147.125 166.361 146.736V142.824ZM167.785 137.216V149H166.937C166.734 149 166.606 148.901 166.553 148.704L166.425 147.72C166.078 148.136 165.684 148.472 165.241 148.728C164.798 148.984 164.286 149.112 163.705 149.112C163.241 149.112 162.82 149.024 162.441 148.848C162.062 148.667 161.74 148.403 161.473 148.056C161.206 147.709 161.001 147.277 160.857 146.76C160.713 146.243 160.641 145.648 160.641 144.976C160.641 144.379 160.721 143.824 160.881 143.312C161.041 142.795 161.27 142.347 161.569 141.968C161.868 141.589 162.233 141.293 162.665 141.08C163.102 140.861 163.593 140.752 164.137 140.752C164.633 140.752 165.057 140.837 165.409 141.008C165.766 141.173 166.084 141.405 166.361 141.704V137.216H167.785ZM175.458 144.064C175.458 143.733 175.41 143.432 175.314 143.16C175.224 142.883 175.088 142.645 174.906 142.448C174.73 142.245 174.514 142.091 174.258 141.984C174.002 141.872 173.712 141.816 173.386 141.816C172.704 141.816 172.162 142.016 171.762 142.416C171.368 142.811 171.122 143.36 171.026 144.064H175.458ZM176.61 147.864C176.434 148.077 176.224 148.264 175.978 148.424C175.733 148.579 175.469 148.707 175.186 148.808C174.909 148.909 174.621 148.984 174.322 149.032C174.024 149.085 173.728 149.112 173.434 149.112C172.874 149.112 172.357 149.019 171.882 148.832C171.413 148.64 171.005 148.363 170.658 148C170.317 147.632 170.05 147.179 169.858 146.64C169.666 146.101 169.57 145.483 169.57 144.784C169.57 144.219 169.656 143.691 169.826 143.2C170.002 142.709 170.253 142.285 170.578 141.928C170.904 141.565 171.301 141.283 171.77 141.08C172.24 140.872 172.768 140.768 173.354 140.768C173.84 140.768 174.288 140.851 174.698 141.016C175.114 141.176 175.472 141.411 175.77 141.72C176.074 142.024 176.312 142.403 176.482 142.856C176.653 143.304 176.738 143.816 176.738 144.392C176.738 144.616 176.714 144.765 176.666 144.84C176.618 144.915 176.528 144.952 176.394 144.952H170.978C170.994 145.464 171.064 145.909 171.186 146.288C171.314 146.667 171.49 146.984 171.714 147.24C171.938 147.491 172.205 147.68 172.514 147.808C172.824 147.931 173.17 147.992 173.554 147.992C173.912 147.992 174.218 147.952 174.474 147.872C174.736 147.787 174.96 147.696 175.146 147.6C175.333 147.504 175.488 147.416 175.61 147.336C175.738 147.251 175.848 147.208 175.938 147.208C176.056 147.208 176.146 147.253 176.21 147.344L176.61 147.864ZM75.016 174H73.464V162.536H75.016V174ZM78.8314 167.072C79.0074 166.875 79.194 166.696 79.3914 166.536C79.5887 166.376 79.7967 166.24 80.0154 166.128C80.2394 166.011 80.474 165.923 80.7194 165.864C80.97 165.8 81.2394 165.768 81.5274 165.768C81.97 165.768 82.3594 165.843 82.6954 165.992C83.0367 166.136 83.3194 166.344 83.5434 166.616C83.7727 166.883 83.946 167.205 84.0634 167.584C84.1807 167.963 84.2394 168.381 84.2394 168.84V174H82.8074V168.84C82.8074 168.227 82.666 167.752 82.3834 167.416C82.106 167.075 81.682 166.904 81.1114 166.904C80.69 166.904 80.2954 167.005 79.9274 167.208C79.5647 167.411 79.2287 167.685 78.9194 168.032V174H77.4874V165.896H78.3434C78.546 165.896 78.6714 165.995 78.7194 166.192L78.8314 167.072ZM88.7879 174.128C88.1479 174.128 87.6545 173.949 87.3079 173.592C86.9665 173.235 86.7959 172.72 86.7959 172.048V167.088H85.8199C85.7345 167.088 85.6625 167.064 85.6039 167.016C85.5452 166.963 85.5159 166.883 85.5159 166.776V166.208L86.8439 166.04L87.1719 163.536C87.1879 163.456 87.2225 163.392 87.2759 163.344C87.3345 163.291 87.4092 163.264 87.4999 163.264H88.2199V166.056H90.5639V167.088H88.2199V171.952C88.2199 172.293 88.3025 172.547 88.4679 172.712C88.6332 172.877 88.8465 172.96 89.1079 172.96C89.2572 172.96 89.3852 172.941 89.4919 172.904C89.6039 172.861 89.6999 172.816 89.7799 172.768C89.8599 172.72 89.9265 172.677 89.9799 172.64C90.0385 172.597 90.0892 172.576 90.1319 172.576C90.2065 172.576 90.2732 172.621 90.3319 172.712L90.7479 173.392C90.5025 173.621 90.2065 173.803 89.8599 173.936C89.5132 174.064 89.1559 174.128 88.7879 174.128ZM97.4114 169.064C97.4114 168.733 97.3634 168.432 97.2674 168.16C97.1767 167.883 97.0407 167.645 96.8594 167.448C96.6834 167.245 96.4674 167.091 96.2114 166.984C95.9554 166.872 95.6647 166.816 95.3394 166.816C94.6567 166.816 94.1154 167.016 93.7154 167.416C93.3207 167.811 93.0754 168.36 92.9794 169.064H97.4114ZM98.5634 172.864C98.3874 173.077 98.1767 173.264 97.9314 173.424C97.686 173.579 97.422 173.707 97.1394 173.808C96.862 173.909 96.574 173.984 96.2754 174.032C95.9767 174.085 95.6807 174.112 95.3874 174.112C94.8274 174.112 94.31 174.019 93.8354 173.832C93.366 173.64 92.958 173.363 92.6114 173C92.27 172.632 92.0034 172.179 91.8114 171.64C91.6194 171.101 91.5234 170.483 91.5234 169.784C91.5234 169.219 91.6087 168.691 91.7794 168.2C91.9554 167.709 92.206 167.285 92.5314 166.928C92.8567 166.565 93.254 166.283 93.7234 166.08C94.1927 165.872 94.7207 165.768 95.3074 165.768C95.7927 165.768 96.2407 165.851 96.6514 166.016C97.0674 166.176 97.4247 166.411 97.7234 166.72C98.0274 167.024 98.2647 167.403 98.4354 167.856C98.606 168.304 98.6914 168.816 98.6914 169.392C98.6914 169.616 98.6674 169.765 98.6194 169.84C98.5714 169.915 98.4807 169.952 98.3474 169.952H92.9314C92.9474 170.464 93.0167 170.909 93.1394 171.288C93.2674 171.667 93.4434 171.984 93.6674 172.24C93.8914 172.491 94.158 172.68 94.4674 172.808C94.7767 172.931 95.1234 172.992 95.5074 172.992C95.8647 172.992 96.1714 172.952 96.4274 172.872C96.6887 172.787 96.9127 172.696 97.0994 172.6C97.286 172.504 97.4407 172.416 97.5634 172.336C97.6914 172.251 97.8007 172.208 97.8914 172.208C98.0087 172.208 98.0994 172.253 98.1634 172.344L98.5634 172.864ZM101.793 167.52C102.049 166.965 102.363 166.533 102.737 166.224C103.11 165.909 103.566 165.752 104.105 165.752C104.275 165.752 104.438 165.771 104.593 165.808C104.753 165.845 104.894 165.904 105.017 165.984L104.913 167.048C104.881 167.181 104.801 167.248 104.673 167.248C104.598 167.248 104.489 167.232 104.345 167.2C104.201 167.168 104.038 167.152 103.857 167.152C103.601 167.152 103.371 167.189 103.169 167.264C102.971 167.339 102.793 167.451 102.633 167.6C102.478 167.744 102.337 167.925 102.209 168.144C102.086 168.357 101.974 168.603 101.873 168.88V174H100.441V165.896H101.257C101.411 165.896 101.518 165.925 101.577 165.984C101.635 166.043 101.675 166.144 101.697 166.288L101.793 167.52ZM110.536 170.352C109.88 170.373 109.32 170.427 108.856 170.512C108.397 170.592 108.021 170.699 107.728 170.832C107.44 170.965 107.229 171.123 107.096 171.304C106.968 171.485 106.904 171.688 106.904 171.912C106.904 172.125 106.938 172.309 107.008 172.464C107.077 172.619 107.17 172.747 107.288 172.848C107.41 172.944 107.552 173.016 107.712 173.064C107.877 173.107 108.053 173.128 108.24 173.128C108.49 173.128 108.72 173.104 108.928 173.056C109.136 173.003 109.33 172.928 109.512 172.832C109.698 172.736 109.874 172.621 110.04 172.488C110.21 172.355 110.376 172.203 110.536 172.032V170.352ZM105.936 167.04C106.384 166.608 106.866 166.285 107.384 166.072C107.901 165.859 108.474 165.752 109.104 165.752C109.557 165.752 109.96 165.827 110.312 165.976C110.664 166.125 110.96 166.333 111.2 166.6C111.44 166.867 111.621 167.189 111.744 167.568C111.866 167.947 111.928 168.363 111.928 168.816V174H111.296C111.157 174 111.05 173.979 110.976 173.936C110.901 173.888 110.842 173.797 110.8 173.664L110.64 172.896C110.426 173.093 110.218 173.269 110.016 173.424C109.813 173.573 109.6 173.701 109.376 173.808C109.152 173.909 108.912 173.987 108.656 174.04C108.405 174.099 108.125 174.128 107.816 174.128C107.501 174.128 107.205 174.085 106.928 174C106.65 173.909 106.408 173.776 106.2 173.6C105.997 173.424 105.834 173.203 105.712 172.936C105.594 172.664 105.536 172.344 105.536 171.976C105.536 171.656 105.624 171.349 105.8 171.056C105.976 170.757 106.261 170.493 106.656 170.264C107.05 170.035 107.565 169.848 108.2 169.704C108.834 169.555 109.613 169.469 110.536 169.448V168.816C110.536 168.187 110.4 167.712 110.128 167.392C109.856 167.067 109.458 166.904 108.936 166.904C108.584 166.904 108.288 166.949 108.048 167.04C107.813 167.125 107.608 167.224 107.432 167.336C107.261 167.443 107.112 167.541 106.984 167.632C106.861 167.717 106.738 167.76 106.616 167.76C106.52 167.76 106.437 167.736 106.368 167.688C106.298 167.635 106.24 167.571 106.192 167.496L105.936 167.04ZM119.737 167.336C119.694 167.395 119.651 167.44 119.609 167.472C119.566 167.504 119.507 167.52 119.433 167.52C119.353 167.52 119.265 167.488 119.169 167.424C119.073 167.355 118.953 167.28 118.809 167.2C118.67 167.12 118.497 167.048 118.289 166.984C118.086 166.915 117.835 166.88 117.537 166.88C117.137 166.88 116.785 166.952 116.481 167.096C116.177 167.235 115.921 167.437 115.713 167.704C115.51 167.971 115.355 168.293 115.249 168.672C115.147 169.051 115.097 169.475 115.097 169.944C115.097 170.435 115.153 170.872 115.265 171.256C115.377 171.635 115.534 171.955 115.737 172.216C115.945 172.472 116.193 172.669 116.481 172.808C116.774 172.941 117.102 173.008 117.465 173.008C117.811 173.008 118.097 172.968 118.321 172.888C118.545 172.803 118.729 172.709 118.873 172.608C119.022 172.507 119.145 172.416 119.241 172.336C119.342 172.251 119.441 172.208 119.537 172.208C119.654 172.208 119.745 172.253 119.809 172.344L120.209 172.864C120.033 173.083 119.833 173.269 119.609 173.424C119.385 173.579 119.142 173.709 118.881 173.816C118.625 173.917 118.355 173.992 118.073 174.04C117.79 174.088 117.502 174.112 117.209 174.112C116.702 174.112 116.23 174.019 115.793 173.832C115.361 173.645 114.985 173.376 114.665 173.024C114.345 172.667 114.094 172.229 113.913 171.712C113.731 171.195 113.641 170.605 113.641 169.944C113.641 169.341 113.723 168.784 113.889 168.272C114.059 167.76 114.305 167.32 114.625 166.952C114.95 166.579 115.347 166.288 115.817 166.08C116.291 165.872 116.835 165.768 117.449 165.768C118.019 165.768 118.521 165.861 118.953 166.048C119.39 166.229 119.777 166.488 120.113 166.824L119.737 167.336ZM129.257 174H127.833V167.088H123.657V171.952C123.657 172.293 123.74 172.547 123.905 172.712C124.071 172.877 124.284 172.96 124.545 172.96C124.695 172.96 124.823 172.941 124.929 172.904C125.041 172.861 125.137 172.816 125.217 172.768C125.297 172.72 125.364 172.677 125.417 172.64C125.476 172.597 125.527 172.576 125.569 172.576C125.644 172.576 125.711 172.621 125.769 172.712L126.185 173.392C125.94 173.621 125.644 173.803 125.297 173.936C124.951 174.064 124.593 174.128 124.225 174.128C123.585 174.128 123.092 173.949 122.745 173.592C122.404 173.235 122.233 172.72 122.233 172.048V167.088H121.257C121.172 167.088 121.1 167.064 121.041 167.016C120.983 166.963 120.953 166.883 120.953 166.776V166.208L122.281 166.032L122.609 163.536C122.625 163.456 122.66 163.392 122.713 163.344C122.772 163.291 122.847 163.264 122.937 163.264H123.657V166.056H129.257V174ZM129.609 163.296C129.609 163.435 129.58 163.565 129.521 163.688C129.468 163.805 129.393 163.909 129.297 164C129.207 164.091 129.1 164.163 128.977 164.216C128.855 164.269 128.724 164.296 128.585 164.296C128.447 164.296 128.316 164.269 128.193 164.216C128.076 164.163 127.972 164.091 127.881 164C127.791 163.909 127.719 163.805 127.665 163.688C127.612 163.565 127.585 163.435 127.585 163.296C127.585 163.157 127.612 163.027 127.665 162.904C127.719 162.776 127.791 162.667 127.881 162.576C127.972 162.48 128.076 162.405 128.193 162.352C128.316 162.299 128.447 162.272 128.585 162.272C128.724 162.272 128.855 162.299 128.977 162.352C129.1 162.405 129.207 162.48 129.297 162.576C129.393 162.667 129.468 162.776 129.521 162.904C129.58 163.027 129.609 163.157 129.609 163.296ZM138.541 165.896L135.237 174H133.957L130.653 165.896H131.813C131.93 165.896 132.026 165.925 132.101 165.984C132.175 166.043 132.226 166.112 132.253 166.192L134.309 171.408C134.373 171.605 134.429 171.797 134.477 171.984C134.525 172.171 134.57 172.357 134.613 172.544C134.655 172.357 134.701 172.171 134.749 171.984C134.797 171.797 134.855 171.605 134.925 171.408L137.005 166.192C137.037 166.107 137.09 166.037 137.165 165.984C137.239 165.925 137.327 165.896 137.429 165.896H138.541ZM145.052 169.064C145.052 168.733 145.004 168.432 144.908 168.16C144.817 167.883 144.681 167.645 144.5 167.448C144.324 167.245 144.108 167.091 143.852 166.984C143.596 166.872 143.305 166.816 142.98 166.816C142.297 166.816 141.756 167.016 141.356 167.416C140.961 167.811 140.716 168.36 140.62 169.064H145.052ZM146.204 172.864C146.028 173.077 145.817 173.264 145.572 173.424C145.327 173.579 145.063 173.707 144.78 173.808C144.503 173.909 144.215 173.984 143.916 174.032C143.617 174.085 143.321 174.112 143.028 174.112C142.468 174.112 141.951 174.019 141.476 173.832C141.007 173.64 140.599 173.363 140.252 173C139.911 172.632 139.644 172.179 139.452 171.64C139.26 171.101 139.164 170.483 139.164 169.784C139.164 169.219 139.249 168.691 139.42 168.2C139.596 167.709 139.847 167.285 140.172 166.928C140.497 166.565 140.895 166.283 141.364 166.08C141.833 165.872 142.361 165.768 142.948 165.768C143.433 165.768 143.881 165.851 144.292 166.016C144.708 166.176 145.065 166.411 145.364 166.72C145.668 167.024 145.905 167.403 146.076 167.856C146.247 168.304 146.332 168.816 146.332 169.392C146.332 169.616 146.308 169.765 146.26 169.84C146.212 169.915 146.121 169.952 145.988 169.952H140.572C140.588 170.464 140.657 170.909 140.78 171.288C140.908 171.667 141.084 171.984 141.308 172.24C141.532 172.491 141.799 172.68 142.108 172.808C142.417 172.931 142.764 172.992 143.148 172.992C143.505 172.992 143.812 172.952 144.068 172.872C144.329 172.787 144.553 172.696 144.74 172.6C144.927 172.504 145.081 172.416 145.204 172.336C145.332 172.251 145.441 172.208 145.532 172.208C145.649 172.208 145.74 172.253 145.804 172.344L146.204 172.864ZM153.607 172.048C153.868 172.4 154.154 172.648 154.463 172.792C154.772 172.936 155.119 173.008 155.503 173.008C156.26 173.008 156.842 172.739 157.247 172.2C157.652 171.661 157.855 170.893 157.855 169.896C157.855 169.368 157.807 168.915 157.711 168.536C157.62 168.157 157.487 167.848 157.311 167.608C157.135 167.363 156.919 167.184 156.663 167.072C156.407 166.96 156.116 166.904 155.791 166.904C155.327 166.904 154.919 167.011 154.567 167.224C154.22 167.437 153.9 167.739 153.607 168.128V172.048ZM153.535 167.152C153.876 166.731 154.271 166.392 154.719 166.136C155.167 165.88 155.679 165.752 156.255 165.752C156.724 165.752 157.148 165.843 157.527 166.024C157.906 166.2 158.228 166.464 158.495 166.816C158.762 167.163 158.967 167.595 159.111 168.112C159.255 168.629 159.327 169.224 159.327 169.896C159.327 170.493 159.247 171.051 159.087 171.568C158.927 172.08 158.695 172.525 158.391 172.904C158.092 173.277 157.724 173.573 157.287 173.792C156.855 174.005 156.367 174.112 155.823 174.112C155.327 174.112 154.9 174.029 154.543 173.864C154.191 173.693 153.879 173.459 153.607 173.16V176.744H152.175V165.896H153.031C153.234 165.896 153.359 165.995 153.407 166.192L153.535 167.152ZM162.496 167.52C162.752 166.965 163.066 166.533 163.44 166.224C163.813 165.909 164.269 165.752 164.808 165.752C164.978 165.752 165.141 165.771 165.296 165.808C165.456 165.845 165.597 165.904 165.72 165.984L165.616 167.048C165.584 167.181 165.504 167.248 165.376 167.248C165.301 167.248 165.192 167.232 165.048 167.2C164.904 167.168 164.741 167.152 164.56 167.152C164.304 167.152 164.074 167.189 163.872 167.264C163.674 167.339 163.496 167.451 163.336 167.6C163.181 167.744 163.04 167.925 162.912 168.144C162.789 168.357 162.677 168.603 162.576 168.88V174H161.144V165.896H161.96C162.114 165.896 162.221 165.925 162.28 165.984C162.338 166.043 162.378 166.144 162.4 166.288L162.496 167.52ZM170.06 165.768C170.652 165.768 171.185 165.867 171.66 166.064C172.134 166.261 172.54 166.541 172.876 166.904C173.212 167.267 173.468 167.707 173.644 168.224C173.825 168.736 173.916 169.309 173.916 169.944C173.916 170.584 173.825 171.16 173.644 171.672C173.468 172.184 173.212 172.621 172.876 172.984C172.54 173.347 172.134 173.627 171.66 173.824C171.185 174.016 170.652 174.112 170.06 174.112C169.462 174.112 168.924 174.016 168.444 173.824C167.969 173.627 167.564 173.347 167.228 172.984C166.892 172.621 166.633 172.184 166.452 171.672C166.276 171.16 166.188 170.584 166.188 169.944C166.188 169.309 166.276 168.736 166.452 168.224C166.633 167.707 166.892 167.267 167.228 166.904C167.564 166.541 167.969 166.261 168.444 166.064C168.924 165.867 169.462 165.768 170.06 165.768ZM170.06 173C170.86 173 171.457 172.733 171.852 172.2C172.246 171.661 172.444 170.912 172.444 169.952C172.444 168.987 172.246 168.235 171.852 167.696C171.457 167.157 170.86 166.888 170.06 166.888C169.654 166.888 169.3 166.957 168.996 167.096C168.697 167.235 168.446 167.435 168.244 167.696C168.046 167.957 167.897 168.28 167.796 168.664C167.7 169.043 167.652 169.472 167.652 169.952C167.652 170.912 167.849 171.661 168.244 172.2C168.644 172.733 169.249 173 170.06 173ZM178.069 174.128C177.429 174.128 176.936 173.949 176.589 173.592C176.248 173.235 176.077 172.72 176.077 172.048V167.088H175.101C175.016 167.088 174.944 167.064 174.885 167.016C174.826 166.963 174.797 166.883 174.797 166.776V166.208L176.125 166.04L176.453 163.536C176.469 163.456 176.504 163.392 176.557 163.344C176.616 163.291 176.69 163.264 176.781 163.264H177.501V166.056H179.845V167.088H177.501V171.952C177.501 172.293 177.584 172.547 177.749 172.712C177.914 172.877 178.128 172.96 178.389 172.96C178.538 172.96 178.666 172.941 178.773 172.904C178.885 172.861 178.981 172.816 179.061 172.768C179.141 172.72 179.208 172.677 179.261 172.64C179.32 172.597 179.37 172.576 179.413 172.576C179.488 172.576 179.554 172.621 179.613 172.712L180.029 173.392C179.784 173.621 179.488 173.803 179.141 173.936C178.794 174.064 178.437 174.128 178.069 174.128ZM184.685 165.768C185.277 165.768 185.81 165.867 186.285 166.064C186.759 166.261 187.165 166.541 187.501 166.904C187.837 167.267 188.093 167.707 188.269 168.224C188.45 168.736 188.541 169.309 188.541 169.944C188.541 170.584 188.45 171.16 188.269 171.672C188.093 172.184 187.837 172.621 187.501 172.984C187.165 173.347 186.759 173.627 186.285 173.824C185.81 174.016 185.277 174.112 184.685 174.112C184.087 174.112 183.549 174.016 183.069 173.824C182.594 173.627 182.189 173.347 181.853 172.984C181.517 172.621 181.258 172.184 181.077 171.672C180.901 171.16 180.813 170.584 180.813 169.944C180.813 169.309 180.901 168.736 181.077 168.224C181.258 167.707 181.517 167.267 181.853 166.904C182.189 166.541 182.594 166.261 183.069 166.064C183.549 165.867 184.087 165.768 184.685 165.768ZM184.685 173C185.485 173 186.082 172.733 186.477 172.2C186.871 171.661 187.069 170.912 187.069 169.952C187.069 168.987 186.871 168.235 186.477 167.696C186.082 167.157 185.485 166.888 184.685 166.888C184.279 166.888 183.925 166.957 183.621 167.096C183.322 167.235 183.071 167.435 182.869 167.696C182.671 167.957 182.522 168.28 182.421 168.664C182.325 169.043 182.277 169.472 182.277 169.952C182.277 170.912 182.474 171.661 182.869 172.2C183.269 172.733 183.874 173 184.685 173ZM192.694 174.128C192.054 174.128 191.561 173.949 191.214 173.592C190.873 173.235 190.702 172.72 190.702 172.048V167.088H189.726C189.641 167.088 189.569 167.064 189.51 167.016C189.451 166.963 189.422 166.883 189.422 166.776V166.208L190.75 166.04L191.078 163.536C191.094 163.456 191.129 163.392 191.182 163.344C191.241 163.291 191.315 163.264 191.406 163.264H192.126V166.056H194.47V167.088H192.126V171.952C192.126 172.293 192.209 172.547 192.374 172.712C192.539 172.877 192.753 172.96 193.014 172.96C193.163 172.96 193.291 172.941 193.398 172.904C193.51 172.861 193.606 172.816 193.686 172.768C193.766 172.72 193.833 172.677 193.886 172.64C193.945 172.597 193.995 172.576 194.038 172.576C194.113 172.576 194.179 172.621 194.238 172.712L194.654 173.392C194.409 173.621 194.113 173.803 193.766 173.936C193.419 174.064 193.062 174.128 192.694 174.128ZM202.933 165.896L198.413 176.392C198.365 176.499 198.303 176.584 198.229 176.648C198.159 176.712 198.05 176.744 197.901 176.744H196.845L198.325 173.528L194.981 165.896H196.213C196.335 165.896 196.431 165.928 196.501 165.992C196.575 166.051 196.626 166.117 196.653 166.192L198.821 171.296C198.906 171.52 198.978 171.755 199.036 172C199.111 171.749 199.191 171.512 199.277 171.288L201.381 166.192C201.413 166.107 201.466 166.037 201.541 165.984C201.621 165.925 201.709 165.896 201.805 165.896H202.933ZM205.623 172.048C205.884 172.4 206.169 172.648 206.479 172.792C206.788 172.936 207.135 173.008 207.519 173.008C208.276 173.008 208.857 172.739 209.263 172.2C209.668 171.661 209.871 170.893 209.871 169.896C209.871 169.368 209.823 168.915 209.727 168.536C209.636 168.157 209.503 167.848 209.327 167.608C209.151 167.363 208.935 167.184 208.679 167.072C208.423 166.96 208.132 166.904 207.807 166.904C207.343 166.904 206.935 167.011 206.583 167.224C206.236 167.437 205.916 167.739 205.623 168.128V172.048ZM205.551 167.152C205.892 166.731 206.287 166.392 206.735 166.136C207.183 165.88 207.695 165.752 208.271 165.752C208.74 165.752 209.164 165.843 209.543 166.024C209.921 166.2 210.244 166.464 210.511 166.816C210.777 167.163 210.983 167.595 211.127 168.112C211.271 168.629 211.343 169.224 211.343 169.896C211.343 170.493 211.263 171.051 211.102 171.568C210.943 172.08 210.711 172.525 210.407 172.904C210.108 173.277 209.74 173.573 209.303 173.792C208.871 174.005 208.383 174.112 207.839 174.112C207.343 174.112 206.916 174.029 206.559 173.864C206.207 173.693 205.895 173.459 205.623 173.16V176.744H204.191V165.896H205.047C205.249 165.896 205.375 165.995 205.423 166.192L205.551 167.152ZM218.583 169.064C218.583 168.733 218.535 168.432 218.439 168.16C218.349 167.883 218.213 167.645 218.031 167.448C217.855 167.245 217.639 167.091 217.383 166.984C217.127 166.872 216.837 166.816 216.511 166.816C215.829 166.816 215.287 167.016 214.887 167.416C214.493 167.811 214.247 168.36 214.151 169.064H218.583ZM219.735 172.864C219.559 173.077 219.349 173.264 219.103 173.424C218.858 173.579 218.594 173.707 218.311 173.808C218.034 173.909 217.746 173.984 217.447 174.032C217.149 174.085 216.853 174.112 216.559 174.112C215.999 174.112 215.482 174.019 215.007 173.832C214.538 173.64 214.13 173.363 213.783 173C213.442 172.632 213.175 172.179 212.983 171.64C212.791 171.101 212.695 170.483 212.695 169.784C212.695 169.219 212.781 168.691 212.951 168.2C213.127 167.709 213.378 167.285 213.703 166.928C214.029 166.565 214.426 166.283 214.895 166.08C215.365 165.872 215.893 165.768 216.479 165.768C216.965 165.768 217.413 165.851 217.823 166.016C218.239 166.176 218.597 166.411 218.895 166.72C219.199 167.024 219.437 167.403 219.607 167.856C219.778 168.304 219.863 168.816 219.863 169.392C219.863 169.616 219.839 169.765 219.791 169.84C219.743 169.915 219.653 169.952 219.519 169.952H214.103C214.119 170.464 214.189 170.909 214.311 171.288C214.439 171.667 214.615 171.984 214.839 172.24C215.063 172.491 215.33 172.68 215.639 172.808C215.949 172.931 216.295 172.992 216.679 172.992C217.037 172.992 217.343 172.952 217.599 172.872C217.861 172.787 218.085 172.696 218.271 172.6C218.458 172.504 218.613 172.416 218.735 172.336C218.863 172.251 218.973 172.208 219.063 172.208C219.181 172.208 219.271 172.253 219.335 172.344L219.735 172.864Z" fill="#4F4F4F"/>
</svg>
