<svg width="245" height="139" viewBox="0 0 245 139" fill="none" xmlns="http://www.w3.org/2000/svg">
<path d="M20 28H30" stroke="#275B81" stroke-width="2" stroke-linecap="round" stroke-linejoin="round"/>
<path d="M24.9813 9.6895C25.4228 9.24802 26.0216 9 26.6459 9C26.9551 9 27.2612 9.06089 27.5468 9.17919C27.8324 9.2975 28.0919 9.4709 28.3105 9.6895C28.5291 9.90809 28.7025 10.1676 28.8208 10.4532C28.9391 10.7388 29 11.0449 29 11.3541C29 11.6632 28.9391 11.9693 28.8208 12.255C28.7025 12.5406 28.5291 12.8001 28.3105 13.0187L14.4389 26.8903L10 28L11.1097 23.5611L24.9813 9.6895Z" stroke="#275B81" stroke-width="2" stroke-linecap="round" stroke-linejoin="round"/>
<path d="M62.088 24.944C61.656 25.44 61.192 25.792 60.696 26C60.2 26.224 59.6 26.336 58.896 26.336C57.968 26.336 57.232 26.144 56.688 25.76C56.16 25.36 55.816 24.688 55.656 23.744L55.224 21.344C55.016 20.176 54.76 19.32 54.456 18.776C54.168 18.216 53.68 17.936 52.992 17.936H51.432V23.456C51.432 24.064 51.472 24.504 51.552 24.776C51.648 25.048 51.816 25.232 52.056 25.328C52.296 25.424 52.688 25.488 53.232 25.52V26C52.368 25.952 51.16 25.928 49.608 25.928C47.896 25.928 46.632 25.952 45.816 26V25.52C46.344 25.488 46.728 25.424 46.968 25.328C47.224 25.232 47.392 25.048 47.472 24.776C47.568 24.504 47.616 24.064 47.616 23.456V11.552C47.616 10.944 47.568 10.504 47.472 10.232C47.392 9.96 47.224 9.776 46.968 9.68C46.728 9.584 46.344 9.52 45.816 9.488V9.008C46.632 9.056 47.848 9.08 49.464 9.08L52.128 9.056C52.448 9.04 52.816 9.032 53.232 9.032C55.44 9.032 57.096 9.392 58.2 10.112C59.32 10.832 59.88 11.864 59.88 13.208C59.88 14.344 59.464 15.344 58.632 16.208C57.8 17.072 56.424 17.616 54.504 17.84C55.944 17.968 57.016 18.28 57.72 18.776C58.424 19.272 58.88 20.016 59.088 21.008L59.64 23.48C59.768 24.12 59.912 24.568 60.072 24.824C60.248 25.08 60.488 25.208 60.792 25.208C60.984 25.192 61.144 25.144 61.272 25.064C61.416 24.984 61.576 24.848 61.752 24.656L62.088 24.944ZM52.92 9.488C52.488 9.488 52.168 9.544 51.96 9.656C51.768 9.768 51.632 9.968 51.552 10.256C51.472 10.544 51.432 10.976 51.432 11.552V17.456H52.464C53.776 17.456 54.672 17.112 55.152 16.424C55.648 15.72 55.896 14.736 55.896 13.472C55.896 12.16 55.664 11.168 55.2 10.496C54.736 9.824 53.976 9.488 52.92 9.488ZM69.2492 24.368C70.5612 24.368 71.6172 23.728 72.4172 22.448L72.8492 22.592C72.5292 23.632 71.9532 24.52 71.1212 25.256C70.3052 25.976 69.2812 26.336 68.0492 26.336C66.3532 26.336 65.0012 25.8 63.9932 24.728C63.0012 23.64 62.5052 22.04 62.5052 19.928C62.5052 17.768 63.0412 16.12 64.1132 14.984C65.1852 13.832 66.6092 13.256 68.3852 13.256C71.3932 13.256 72.8972 15.032 72.8972 18.584H66.1532C66.1372 18.824 66.1292 19.2 66.1292 19.712C66.1292 20.768 66.2732 21.648 66.5612 22.352C66.8652 23.056 67.2492 23.568 67.7132 23.888C68.1932 24.208 68.7052 24.368 69.2492 24.368ZM68.2412 13.76C67.6652 13.76 67.1852 14.12 66.8012 14.84C66.4332 15.544 66.2012 16.64 66.1052 18.128H69.8732C69.9052 16.864 69.7772 15.824 69.4892 15.008C69.2172 14.176 68.8012 13.76 68.2412 13.76ZM79.0389 13.256C79.6469 13.256 80.2069 13.336 80.7189 13.496C81.2309 13.64 81.6229 13.808 81.8949 14C82.0549 14.112 82.1989 14.168 82.3269 14.168C82.4709 14.168 82.5909 14.096 82.6869 13.952C82.7989 13.792 82.8709 13.568 82.9029 13.28H83.4069C83.3429 14.096 83.3109 15.504 83.3109 17.504H82.8069C82.6629 16.448 82.3429 15.568 81.8469 14.864C81.3669 14.144 80.6629 13.784 79.7349 13.784C79.2549 13.784 78.8549 13.92 78.5349 14.192C78.2309 14.464 78.0789 14.84 78.0789 15.32C78.0789 15.864 78.2629 16.336 78.6309 16.736C78.9989 17.12 79.5749 17.592 80.3589 18.152L81.0549 18.656C82.0309 19.392 82.7509 20.048 83.2149 20.624C83.6789 21.2 83.9109 21.92 83.9109 22.784C83.9109 23.488 83.7029 24.112 83.2869 24.656C82.8869 25.2 82.3429 25.616 81.6549 25.904C80.9669 26.192 80.2069 26.336 79.3749 26.336C78.4949 26.336 77.7429 26.168 77.1189 25.832C76.6069 25.576 76.2389 25.408 76.0149 25.328C75.8549 25.28 75.7109 25.336 75.5829 25.496C75.4709 25.64 75.3829 25.864 75.3189 26.168H74.8149C74.8789 25.256 74.9109 23.656 74.9109 21.368H75.4149C75.7349 24.312 76.8149 25.784 78.6549 25.784C79.1189 25.784 79.5109 25.648 79.8309 25.376C80.1669 25.088 80.3349 24.656 80.3349 24.08C80.3349 23.632 80.2309 23.232 80.0229 22.88C79.8309 22.528 79.5829 22.216 79.2789 21.944C78.9749 21.672 78.5189 21.296 77.9109 20.816C77.1909 20.24 76.6389 19.776 76.2549 19.424C75.8869 19.072 75.5669 18.656 75.2949 18.176C75.0389 17.696 74.9109 17.16 74.9109 16.568C74.9109 15.544 75.3109 14.736 76.1109 14.144C76.9109 13.552 77.8869 13.256 79.0389 13.256ZM92.4289 24.368C93.7409 24.368 94.7969 23.728 95.5969 22.448L96.0289 22.592C95.7089 23.632 95.1329 24.52 94.3009 25.256C93.4849 25.976 92.4609 26.336 91.2289 26.336C89.5329 26.336 88.1809 25.8 87.1729 24.728C86.1809 23.64 85.6849 22.04 85.6849 19.928C85.6849 17.768 86.2209 16.12 87.2929 14.984C88.3649 13.832 89.7889 13.256 91.5649 13.256C94.5729 13.256 96.0769 15.032 96.0769 18.584H89.3329C89.3169 18.824 89.3089 19.2 89.3089 19.712C89.3089 20.768 89.4529 21.648 89.7409 22.352C90.0449 23.056 90.4289 23.568 90.8929 23.888C91.3729 24.208 91.8849 24.368 92.4289 24.368ZM91.4209 13.76C90.8449 13.76 90.3649 14.12 89.9809 14.84C89.6129 15.544 89.3809 16.64 89.2849 18.128H93.0529C93.0849 16.864 92.9569 15.824 92.6689 15.008C92.3969 14.176 91.9809 13.76 91.4209 13.76ZM100.635 26.168C99.6106 26.168 98.8426 25.904 98.3306 25.376C97.8346 24.848 97.5866 24.152 97.5866 23.288C97.5866 22.568 97.7706 21.976 98.1386 21.512C98.5226 21.032 98.9786 20.664 99.5066 20.408C100.051 20.152 100.739 19.88 101.571 19.592C102.451 19.288 103.091 19.016 103.491 18.776C103.907 18.52 104.115 18.176 104.115 17.744V15.872C104.115 15.2 103.955 14.68 103.635 14.312C103.331 13.928 102.851 13.736 102.195 13.736C101.427 13.736 100.843 13.928 100.443 14.312C100.891 14.472 101.235 14.712 101.475 15.032C101.731 15.352 101.859 15.728 101.859 16.16C101.859 16.704 101.675 17.136 101.307 17.456C100.939 17.776 100.491 17.936 99.9626 17.936C99.4026 17.936 98.9706 17.76 98.6666 17.408C98.3626 17.056 98.2106 16.616 98.2106 16.088C98.2106 15.64 98.3146 15.264 98.5226 14.96C98.7466 14.64 99.0826 14.344 99.5306 14.072C99.9626 13.816 100.491 13.616 101.115 13.472C101.755 13.328 102.451 13.256 103.203 13.256C103.987 13.256 104.667 13.336 105.243 13.496C105.819 13.656 106.299 13.928 106.683 14.312C107.035 14.664 107.267 15.096 107.379 15.608C107.507 16.12 107.571 16.816 107.571 17.696V24.224C107.571 24.608 107.603 24.88 107.667 25.04C107.747 25.2 107.891 25.28 108.099 25.28C108.339 25.28 108.627 25.144 108.963 24.872L109.203 25.28C108.483 25.872 107.603 26.168 106.563 26.168C105.683 26.168 105.067 25.992 104.715 25.64C104.363 25.288 104.179 24.816 104.163 24.224C103.363 25.52 102.187 26.168 100.635 26.168ZM102.483 24.632C103.107 24.632 103.651 24.304 104.115 23.648V18.728C103.923 19.048 103.515 19.4 102.891 19.784C102.267 20.184 101.795 20.584 101.475 20.984C101.155 21.384 100.995 21.96 100.995 22.712C100.995 23.368 101.131 23.856 101.403 24.176C101.675 24.48 102.035 24.632 102.483 24.632ZM118.145 13.256C118.865 13.256 119.409 13.472 119.777 13.904C120.145 14.336 120.329 14.856 120.329 15.464C120.329 16.056 120.153 16.544 119.801 16.928C119.465 17.296 119.017 17.48 118.457 17.48C117.913 17.48 117.481 17.344 117.161 17.072C116.841 16.784 116.681 16.408 116.681 15.944C116.681 15.176 117.033 14.552 117.737 14.072C117.673 14.056 117.577 14.048 117.449 14.048C117.289 14.048 117.161 14.064 117.065 14.096C116.457 14.192 115.937 14.56 115.505 15.2C115.089 15.84 114.881 16.496 114.881 17.168V23.528C114.881 24.264 115.057 24.776 115.409 25.064C115.777 25.352 116.353 25.496 117.137 25.496V26C116.913 26 116.729 25.992 116.585 25.976C114.953 25.928 113.865 25.904 113.321 25.904C112.889 25.904 111.905 25.928 110.369 25.976C110.241 25.992 110.081 26 109.889 26V25.496C110.465 25.496 110.865 25.376 111.089 25.136C111.313 24.88 111.425 24.424 111.425 23.768V16.208C111.425 15.472 111.313 14.936 111.089 14.6C110.865 14.264 110.465 14.096 109.889 14.096V13.592C110.401 13.64 110.897 13.664 111.377 13.664C112.801 13.664 113.969 13.552 114.881 13.328V15.56C115.185 14.872 115.625 14.32 116.201 13.904C116.777 13.472 117.425 13.256 118.145 13.256ZM127.004 13.256C127.596 13.256 128.156 13.32 128.684 13.448C129.212 13.576 129.652 13.752 130.004 13.976C130.42 14.232 130.74 14.56 130.964 14.96C131.204 15.344 131.324 15.768 131.324 16.232C131.324 16.792 131.148 17.256 130.796 17.624C130.444 17.976 129.988 18.152 129.428 18.152C128.868 18.152 128.42 17.992 128.084 17.672C127.748 17.352 127.58 16.92 127.58 16.376C127.58 15.896 127.732 15.48 128.036 15.128C128.34 14.776 128.716 14.536 129.164 14.408C129.036 14.232 128.836 14.096 128.564 14C128.308 13.888 128.028 13.832 127.724 13.832C126.764 13.832 126.012 14.36 125.468 15.416C124.94 16.456 124.676 17.824 124.676 19.52C124.676 21.232 124.98 22.464 125.588 23.216C126.196 23.968 126.956 24.344 127.868 24.344C128.412 24.344 128.956 24.2 129.5 23.912C130.06 23.624 130.564 23.12 131.012 22.4L131.42 22.544C131.1 23.584 130.54 24.48 129.74 25.232C128.94 25.968 127.908 26.336 126.644 26.336C124.996 26.336 123.652 25.792 122.612 24.704C121.572 23.616 121.052 22 121.052 19.856C121.052 18.448 121.308 17.248 121.82 16.256C122.332 15.264 123.036 14.52 123.932 14.024C124.828 13.512 125.852 13.256 127.004 13.256ZM137.542 15.488C138.262 14 139.566 13.256 141.454 13.256C142.702 13.256 143.582 13.568 144.094 14.192C144.366 14.496 144.558 14.896 144.67 15.392C144.798 15.872 144.862 16.512 144.862 17.312V23.768C144.862 24.424 144.974 24.88 145.198 25.136C145.422 25.376 145.822 25.496 146.398 25.496V26C144.734 25.936 143.678 25.904 143.23 25.904C142.686 25.904 141.646 25.936 140.11 26V25.496C140.59 25.496 140.926 25.376 141.118 25.136C141.31 24.88 141.406 24.424 141.406 23.768V16.304C141.406 15.648 141.294 15.152 141.07 14.816C140.862 14.48 140.478 14.312 139.918 14.312C139.246 14.312 138.678 14.576 138.214 15.104C137.766 15.616 137.542 16.272 137.542 17.072V23.768C137.542 24.424 137.638 24.88 137.83 25.136C138.022 25.376 138.358 25.496 138.838 25.496V26C137.302 25.936 136.31 25.904 135.862 25.904C135.318 25.904 134.214 25.936 132.55 26V25.496C133.11 25.496 133.502 25.376 133.726 25.136C133.966 24.88 134.086 24.424 134.086 23.768V10.112C134.086 9.376 133.966 8.84 133.726 8.504C133.502 8.168 133.11 8 132.55 8V7.496C133.062 7.544 133.558 7.568 134.038 7.568C135.43 7.568 136.598 7.456 137.542 7.232V15.488Z" fill="#275B81"/>
<path d="M51.624 59.614C52.158 59.614 52.635 59.524 53.055 59.344C53.475 59.164 53.829 58.912 54.117 58.588C54.411 58.264 54.633 57.877 54.783 57.427C54.939 56.977 55.017 56.482 55.017 55.942V48.103H56.754V55.942C56.754 56.686 56.634 57.376 56.394 58.012C56.16 58.648 55.821 59.2 55.377 59.668C54.939 60.13 54.402 60.493 53.766 60.757C53.13 61.021 52.416 61.153 51.624 61.153C50.832 61.153 50.118 61.021 49.482 60.757C48.846 60.493 48.306 60.13 47.862 59.668C47.418 59.2 47.076 58.648 46.836 58.012C46.602 57.376 46.485 56.686 46.485 55.942V48.103H48.222V55.933C48.222 56.473 48.297 56.968 48.447 57.418C48.603 57.868 48.825 58.255 49.113 58.579C49.407 58.903 49.764 59.158 50.184 59.344C50.61 59.524 51.09 59.614 51.624 59.614ZM64.3759 53.386C64.3039 53.518 64.1929 53.584 64.0429 53.584C63.9529 53.584 63.8509 53.551 63.7369 53.485C63.6229 53.419 63.4819 53.347 63.3139 53.269C63.1519 53.185 62.9569 53.11 62.7289 53.044C62.5009 52.972 62.2309 52.936 61.9189 52.936C61.6489 52.936 61.4059 52.972 61.1899 53.044C60.9739 53.11 60.7879 53.203 60.6319 53.323C60.4819 53.443 60.3649 53.584 60.2809 53.746C60.2029 53.902 60.1639 54.073 60.1639 54.259C60.1639 54.493 60.2299 54.688 60.3619 54.844C60.4999 55 60.6799 55.135 60.9019 55.249C61.1239 55.363 61.3759 55.465 61.6579 55.555C61.9399 55.639 62.2279 55.732 62.5219 55.834C62.8219 55.93 63.1129 56.038 63.3949 56.158C63.6769 56.278 63.9289 56.428 64.1509 56.608C64.3729 56.788 64.5499 57.01 64.6819 57.274C64.8199 57.532 64.8889 57.844 64.8889 58.21C64.8889 58.63 64.8139 59.02 64.6639 59.38C64.5139 59.734 64.2919 60.043 63.9979 60.307C63.7039 60.565 63.3439 60.769 62.9179 60.919C62.4919 61.069 61.9999 61.144 61.4419 61.144C60.8059 61.144 60.2299 61.042 59.7139 60.838C59.1979 60.628 58.7599 60.361 58.3999 60.037L58.7779 59.425C58.8259 59.347 58.8829 59.287 58.9489 59.245C59.0149 59.203 59.0989 59.182 59.2009 59.182C59.3089 59.182 59.4229 59.224 59.5429 59.308C59.6629 59.392 59.8069 59.485 59.9749 59.587C60.1489 59.689 60.3589 59.782 60.6049 59.866C60.8509 59.95 61.1569 59.992 61.5229 59.992C61.8349 59.992 62.1079 59.953 62.3419 59.875C62.5759 59.791 62.7709 59.68 62.9269 59.542C63.0829 59.404 63.1969 59.245 63.2689 59.065C63.3469 58.885 63.3859 58.693 63.3859 58.489C63.3859 58.237 63.3169 58.03 63.1789 57.868C63.0469 57.7 62.8699 57.559 62.6479 57.445C62.4259 57.325 62.1709 57.223 61.8829 57.139C61.6009 57.049 61.3099 56.956 61.0099 56.86C60.7159 56.764 60.4249 56.656 60.1369 56.536C59.8549 56.41 59.6029 56.254 59.3809 56.068C59.1589 55.882 58.9789 55.654 58.8409 55.384C58.7089 55.108 58.6429 54.775 58.6429 54.385C58.6429 54.037 58.7149 53.704 58.8589 53.386C59.0029 53.062 59.2129 52.78 59.4889 52.54C59.7649 52.294 60.1039 52.099 60.5059 51.955C60.9079 51.811 61.3669 51.739 61.8829 51.739C62.4829 51.739 63.0199 51.835 63.4939 52.027C63.9739 52.213 64.3879 52.471 64.7359 52.801L64.3759 53.386ZM72.955 55.447C72.955 55.075 72.901 54.736 72.793 54.43C72.691 54.118 72.538 53.851 72.334 53.629C72.136 53.401 71.893 53.227 71.605 53.107C71.317 52.981 70.99 52.918 70.624 52.918C69.856 52.918 69.247 53.143 68.797 53.593C68.353 54.037 68.077 54.655 67.969 55.447H72.955ZM74.251 59.722C74.053 59.962 73.816 60.172 73.54 60.352C73.264 60.526 72.967 60.67 72.649 60.784C72.337 60.898 72.013 60.982 71.677 61.036C71.341 61.096 71.008 61.126 70.678 61.126C70.048 61.126 69.466 61.021 68.932 60.811C68.404 60.595 67.945 60.283 67.555 59.875C67.171 59.461 66.871 58.951 66.655 58.345C66.439 57.739 66.331 57.043 66.331 56.257C66.331 55.621 66.427 55.027 66.619 54.475C66.817 53.923 67.099 53.446 67.465 53.044C67.831 52.636 68.278 52.318 68.806 52.09C69.334 51.856 69.928 51.739 70.588 51.739C71.134 51.739 71.638 51.832 72.1 52.018C72.568 52.198 72.97 52.462 73.306 52.81C73.648 53.152 73.915 53.578 74.107 54.088C74.299 54.592 74.395 55.168 74.395 55.816C74.395 56.068 74.368 56.236 74.314 56.32C74.26 56.404 74.158 56.446 74.008 56.446H67.915C67.933 57.022 68.011 57.523 68.149 57.949C68.293 58.375 68.491 58.732 68.743 59.02C68.995 59.302 69.295 59.515 69.643 59.659C69.991 59.797 70.381 59.866 70.813 59.866C71.215 59.866 71.56 59.821 71.848 59.731C72.142 59.635 72.394 59.533 72.604 59.425C72.814 59.317 72.988 59.218 73.126 59.128C73.27 59.032 73.393 58.984 73.495 58.984C73.627 58.984 73.729 59.035 73.801 59.137L74.251 59.722ZM77.8838 53.71C78.1718 53.086 78.5258 52.6 78.9458 52.252C79.3658 51.898 79.8788 51.721 80.4848 51.721C80.6768 51.721 80.8598 51.742 81.0338 51.784C81.2138 51.826 81.3728 51.892 81.5108 51.982L81.3938 53.179C81.3578 53.329 81.2678 53.404 81.1238 53.404C81.0398 53.404 80.9168 53.386 80.7548 53.35C80.5928 53.314 80.4098 53.296 80.2058 53.296C79.9178 53.296 79.6598 53.338 79.4318 53.422C79.2098 53.506 79.0088 53.632 78.8288 53.8C78.6548 53.962 78.4958 54.166 78.3518 54.412C78.2138 54.652 78.0878 54.928 77.9738 55.24V61H76.3628V51.883H77.2808C77.4548 51.883 77.5748 51.916 77.6408 51.982C77.7068 52.048 77.7518 52.162 77.7758 52.324L77.8838 53.71ZM88.8301 51.883V61H87.2281V51.883H88.8301ZM89.1721 49.021C89.1721 49.177 89.1391 49.324 89.0731 49.462C89.0131 49.594 88.9291 49.714 88.8211 49.822C88.7191 49.924 88.5961 50.005 88.4521 50.065C88.3141 50.125 88.1671 50.155 88.0111 50.155C87.8551 50.155 87.7081 50.125 87.5701 50.065C87.4381 50.005 87.3211 49.924 87.2191 49.822C87.1171 49.714 87.0361 49.594 86.9761 49.462C86.9161 49.324 86.8861 49.177 86.8861 49.021C86.8861 48.865 86.9161 48.718 86.9761 48.58C87.0361 48.436 87.1171 48.313 87.2191 48.211C87.3211 48.103 87.4381 48.019 87.5701 47.959C87.7081 47.899 87.8551 47.869 88.0111 47.869C88.1671 47.869 88.3141 47.899 88.4521 47.959C88.5961 48.019 88.7191 48.103 88.8211 48.211C88.9291 48.313 89.0131 48.436 89.0731 48.58C89.1391 48.718 89.1721 48.865 89.1721 49.021ZM92.9744 53.206C93.1724 52.984 93.3824 52.783 93.6044 52.603C93.8264 52.423 94.0604 52.27 94.3064 52.144C94.5584 52.012 94.8224 51.913 95.0984 51.847C95.3804 51.775 95.6834 51.739 96.0074 51.739C96.5054 51.739 96.9434 51.823 97.3214 51.991C97.7054 52.153 98.0234 52.387 98.2754 52.693C98.5334 52.993 98.7284 53.356 98.8604 53.782C98.9924 54.208 99.0584 54.679 99.0584 55.195V61H97.4474V55.195C97.4474 54.505 97.2884 53.971 96.9704 53.593C96.6584 53.209 96.1814 53.017 95.5394 53.017C95.0654 53.017 94.6214 53.131 94.2074 53.359C93.7994 53.587 93.4214 53.896 93.0734 54.286V61H91.4624V51.883H92.4254C92.6534 51.883 92.7944 51.994 92.8484 52.216L92.9744 53.206ZM104.175 61.144C103.455 61.144 102.9 60.943 102.51 60.541C102.126 60.139 101.934 59.56 101.934 58.804V53.224H100.836C100.74 53.224 100.659 53.197 100.593 53.143C100.527 53.083 100.494 52.993 100.494 52.873V52.234L101.988 52.045L102.357 49.228C102.375 49.138 102.414 49.066 102.474 49.012C102.54 48.952 102.624 48.922 102.726 48.922H103.536V52.063H106.173V53.224H103.536V58.696C103.536 59.08 103.629 59.365 103.815 59.551C104.001 59.737 104.241 59.83 104.535 59.83C104.703 59.83 104.847 59.809 104.967 59.767C105.093 59.719 105.201 59.668 105.291 59.614C105.381 59.56 105.456 59.512 105.516 59.47C105.582 59.422 105.639 59.398 105.687 59.398C105.771 59.398 105.846 59.449 105.912 59.551L106.38 60.316C106.104 60.574 105.771 60.778 105.381 60.928C104.991 61.072 104.589 61.144 104.175 61.144ZM113.877 55.447C113.877 55.075 113.823 54.736 113.715 54.43C113.613 54.118 113.46 53.851 113.256 53.629C113.058 53.401 112.815 53.227 112.527 53.107C112.239 52.981 111.912 52.918 111.546 52.918C110.778 52.918 110.169 53.143 109.719 53.593C109.275 54.037 108.999 54.655 108.891 55.447H113.877ZM115.173 59.722C114.975 59.962 114.738 60.172 114.462 60.352C114.186 60.526 113.889 60.67 113.571 60.784C113.259 60.898 112.935 60.982 112.599 61.036C112.263 61.096 111.93 61.126 111.6 61.126C110.97 61.126 110.388 61.021 109.854 60.811C109.326 60.595 108.867 60.283 108.477 59.875C108.093 59.461 107.793 58.951 107.577 58.345C107.361 57.739 107.253 57.043 107.253 56.257C107.253 55.621 107.349 55.027 107.541 54.475C107.739 53.923 108.021 53.446 108.387 53.044C108.753 52.636 109.2 52.318 109.728 52.09C110.256 51.856 110.85 51.739 111.51 51.739C112.056 51.739 112.56 51.832 113.022 52.018C113.49 52.198 113.892 52.462 114.228 52.81C114.57 53.152 114.837 53.578 115.029 54.088C115.221 54.592 115.317 55.168 115.317 55.816C115.317 56.068 115.29 56.236 115.236 56.32C115.182 56.404 115.08 56.446 114.93 56.446H108.837C108.855 57.022 108.933 57.523 109.071 57.949C109.215 58.375 109.413 58.732 109.665 59.02C109.917 59.302 110.217 59.515 110.565 59.659C110.913 59.797 111.303 59.866 111.735 59.866C112.137 59.866 112.482 59.821 112.77 59.731C113.064 59.635 113.316 59.533 113.526 59.425C113.736 59.317 113.91 59.218 114.048 59.128C114.192 59.032 114.315 58.984 114.417 58.984C114.549 58.984 114.651 59.035 114.723 59.137L115.173 59.722ZM118.806 53.71C119.094 53.086 119.448 52.6 119.868 52.252C120.288 51.898 120.801 51.721 121.407 51.721C121.599 51.721 121.782 51.742 121.956 51.784C122.136 51.826 122.295 51.892 122.433 51.982L122.316 53.179C122.28 53.329 122.19 53.404 122.046 53.404C121.962 53.404 121.839 53.386 121.677 53.35C121.515 53.314 121.332 53.296 121.128 53.296C120.84 53.296 120.582 53.338 120.354 53.422C120.132 53.506 119.931 53.632 119.751 53.8C119.577 53.962 119.418 54.166 119.274 54.412C119.136 54.652 119.01 54.928 118.896 55.24V61H117.285V51.883H118.203C118.377 51.883 118.497 51.916 118.563 51.982C118.629 52.048 118.674 52.162 118.698 52.324L118.806 53.71ZM131.653 51.883L127.936 61H126.496L122.779 51.883H124.084C124.216 51.883 124.324 51.916 124.408 51.982C124.492 52.048 124.549 52.126 124.579 52.216L126.892 58.084C126.964 58.306 127.027 58.522 127.081 58.732C127.135 58.942 127.186 59.152 127.234 59.362C127.282 59.152 127.333 58.942 127.387 58.732C127.441 58.522 127.507 58.306 127.585 58.084L129.925 52.216C129.961 52.12 130.021 52.042 130.105 51.982C130.189 51.916 130.288 51.883 130.402 51.883H131.653ZM134.815 51.883V61H133.213V51.883H134.815ZM135.157 49.021C135.157 49.177 135.124 49.324 135.058 49.462C134.998 49.594 134.914 49.714 134.806 49.822C134.704 49.924 134.581 50.005 134.437 50.065C134.299 50.125 134.152 50.155 133.996 50.155C133.84 50.155 133.693 50.125 133.555 50.065C133.423 50.005 133.306 49.924 133.204 49.822C133.102 49.714 133.021 49.594 132.961 49.462C132.901 49.324 132.871 49.177 132.871 49.021C132.871 48.865 132.901 48.718 132.961 48.58C133.021 48.436 133.102 48.313 133.204 48.211C133.306 48.103 133.423 48.019 133.555 47.959C133.693 47.899 133.84 47.869 133.996 47.869C134.152 47.869 134.299 47.899 134.437 47.959C134.581 48.019 134.704 48.103 134.806 48.211C134.914 48.313 134.998 48.436 135.058 48.58C135.124 48.718 135.157 48.865 135.157 49.021ZM143.549 55.447C143.549 55.075 143.495 54.736 143.387 54.43C143.285 54.118 143.132 53.851 142.928 53.629C142.73 53.401 142.487 53.227 142.199 53.107C141.911 52.981 141.584 52.918 141.218 52.918C140.45 52.918 139.841 53.143 139.391 53.593C138.947 54.037 138.671 54.655 138.563 55.447H143.549ZM144.845 59.722C144.647 59.962 144.41 60.172 144.134 60.352C143.858 60.526 143.561 60.67 143.243 60.784C142.931 60.898 142.607 60.982 142.271 61.036C141.935 61.096 141.602 61.126 141.272 61.126C140.642 61.126 140.06 61.021 139.526 60.811C138.998 60.595 138.539 60.283 138.149 59.875C137.765 59.461 137.465 58.951 137.249 58.345C137.033 57.739 136.925 57.043 136.925 56.257C136.925 55.621 137.021 55.027 137.213 54.475C137.411 53.923 137.693 53.446 138.059 53.044C138.425 52.636 138.872 52.318 139.4 52.09C139.928 51.856 140.522 51.739 141.182 51.739C141.728 51.739 142.232 51.832 142.694 52.018C143.162 52.198 143.564 52.462 143.9 52.81C144.242 53.152 144.509 53.578 144.701 54.088C144.893 54.592 144.989 55.168 144.989 55.816C144.989 56.068 144.962 56.236 144.908 56.32C144.854 56.404 144.752 56.446 144.602 56.446H138.509C138.527 57.022 138.605 57.523 138.743 57.949C138.887 58.375 139.085 58.732 139.337 59.02C139.589 59.302 139.889 59.515 140.237 59.659C140.585 59.797 140.975 59.866 141.407 59.866C141.809 59.866 142.154 59.821 142.442 59.731C142.736 59.635 142.988 59.533 143.198 59.425C143.408 59.317 143.582 59.218 143.72 59.128C143.864 59.032 143.987 58.984 144.089 58.984C144.221 58.984 144.323 59.035 144.395 59.137L144.845 59.722ZM159.442 51.883L156.49 61H155.221C155.065 61 154.957 60.898 154.897 60.694L152.881 54.511C152.833 54.373 152.794 54.235 152.764 54.097C152.734 53.953 152.704 53.812 152.674 53.674C152.644 53.812 152.614 53.953 152.584 54.097C152.554 54.235 152.515 54.376 152.467 54.52L150.415 60.694C150.361 60.898 150.241 61 150.055 61H148.849L145.897 51.883H147.157C147.283 51.883 147.388 51.916 147.472 51.982C147.562 52.048 147.622 52.126 147.652 52.216L149.398 58.084C149.5 58.516 149.581 58.924 149.641 59.308C149.695 59.11 149.749 58.909 149.803 58.705C149.863 58.501 149.926 58.294 149.992 58.084L151.918 52.18C151.948 52.09 151.999 52.015 152.071 51.955C152.149 51.895 152.242 51.865 152.35 51.865H153.052C153.172 51.865 153.271 51.895 153.349 51.955C153.427 52.015 153.481 52.09 153.511 52.18L155.392 58.084C155.458 58.294 155.518 58.501 155.572 58.705C155.626 58.909 155.677 59.11 155.725 59.308C155.755 59.11 155.791 58.912 155.833 58.714C155.881 58.51 155.932 58.3 155.986 58.084L157.768 52.216C157.798 52.12 157.855 52.042 157.939 51.982C158.023 51.916 158.122 51.883 158.236 51.883H159.442ZM166.241 53.386C166.169 53.518 166.058 53.584 165.908 53.584C165.818 53.584 165.716 53.551 165.602 53.485C165.488 53.419 165.347 53.347 165.179 53.269C165.017 53.185 164.822 53.11 164.594 53.044C164.366 52.972 164.096 52.936 163.784 52.936C163.514 52.936 163.271 52.972 163.055 53.044C162.839 53.11 162.653 53.203 162.497 53.323C162.347 53.443 162.23 53.584 162.146 53.746C162.068 53.902 162.029 54.073 162.029 54.259C162.029 54.493 162.095 54.688 162.227 54.844C162.365 55 162.545 55.135 162.767 55.249C162.989 55.363 163.241 55.465 163.523 55.555C163.805 55.639 164.093 55.732 164.387 55.834C164.687 55.93 164.978 56.038 165.26 56.158C165.542 56.278 165.794 56.428 166.016 56.608C166.238 56.788 166.415 57.01 166.547 57.274C166.685 57.532 166.754 57.844 166.754 58.21C166.754 58.63 166.679 59.02 166.529 59.38C166.379 59.734 166.157 60.043 165.863 60.307C165.569 60.565 165.209 60.769 164.783 60.919C164.357 61.069 163.865 61.144 163.307 61.144C162.671 61.144 162.095 61.042 161.579 60.838C161.063 60.628 160.625 60.361 160.265 60.037L160.643 59.425C160.691 59.347 160.748 59.287 160.814 59.245C160.88 59.203 160.964 59.182 161.066 59.182C161.174 59.182 161.288 59.224 161.408 59.308C161.528 59.392 161.672 59.485 161.84 59.587C162.014 59.689 162.224 59.782 162.47 59.866C162.716 59.95 163.022 59.992 163.388 59.992C163.7 59.992 163.973 59.953 164.207 59.875C164.441 59.791 164.636 59.68 164.792 59.542C164.948 59.404 165.062 59.245 165.134 59.065C165.212 58.885 165.251 58.693 165.251 58.489C165.251 58.237 165.182 58.03 165.044 57.868C164.912 57.7 164.735 57.559 164.513 57.445C164.291 57.325 164.036 57.223 163.748 57.139C163.466 57.049 163.175 56.956 162.875 56.86C162.581 56.764 162.29 56.656 162.002 56.536C161.72 56.41 161.468 56.254 161.246 56.068C161.024 55.882 160.844 55.654 160.706 55.384C160.574 55.108 160.508 54.775 160.508 54.385C160.508 54.037 160.58 53.704 160.724 53.386C160.868 53.062 161.078 52.78 161.354 52.54C161.63 52.294 161.969 52.099 162.371 51.955C162.773 51.811 163.232 51.739 163.748 51.739C164.348 51.739 164.885 51.835 165.359 52.027C165.839 52.213 166.253 52.471 166.601 52.801L166.241 53.386ZM55.701 92.336C55.797 92.336 55.881 92.375 55.953 92.453L56.646 93.2C56.118 93.812 55.476 94.289 54.72 94.631C53.97 94.973 53.061 95.144 51.993 95.144C51.069 95.144 50.229 94.985 49.473 94.667C48.717 94.343 48.072 93.893 47.538 93.317C47.004 92.735 46.59 92.039 46.296 91.229C46.002 90.419 45.855 89.528 45.855 88.556C45.855 87.584 46.008 86.693 46.314 85.883C46.62 85.073 47.049 84.377 47.601 83.795C48.159 83.213 48.825 82.763 49.599 82.445C50.373 82.121 51.228 81.959 52.164 81.959C53.082 81.959 53.892 82.106 54.594 82.4C55.296 82.694 55.914 83.093 56.448 83.597L55.872 84.398C55.836 84.458 55.788 84.509 55.728 84.551C55.674 84.587 55.599 84.605 55.503 84.605C55.395 84.605 55.263 84.548 55.107 84.434C54.951 84.314 54.747 84.182 54.495 84.038C54.243 83.894 53.928 83.765 53.55 83.651C53.172 83.531 52.707 83.471 52.155 83.471C51.489 83.471 50.88 83.588 50.328 83.822C49.776 84.05 49.299 84.383 48.897 84.821C48.501 85.259 48.192 85.793 47.97 86.423C47.748 87.053 47.637 87.764 47.637 88.556C47.637 89.36 47.751 90.077 47.979 90.707C48.213 91.337 48.528 91.871 48.924 92.309C49.326 92.741 49.797 93.071 50.337 93.299C50.883 93.527 51.471 93.641 52.101 93.641C52.485 93.641 52.83 93.62 53.136 93.578C53.448 93.53 53.733 93.458 53.991 93.362C54.255 93.266 54.498 93.146 54.72 93.002C54.948 92.852 55.173 92.675 55.395 92.471C55.497 92.381 55.599 92.336 55.701 92.336ZM61.9597 85.739C62.6257 85.739 63.2257 85.85 63.7597 86.072C64.2937 86.294 64.7497 86.609 65.1277 87.017C65.5057 87.425 65.7937 87.92 65.9917 88.502C66.1957 89.078 66.2977 89.723 66.2977 90.437C66.2977 91.157 66.1957 91.805 65.9917 92.381C65.7937 92.957 65.5057 93.449 65.1277 93.857C64.7497 94.265 64.2937 94.58 63.7597 94.802C63.2257 95.018 62.6257 95.126 61.9597 95.126C61.2877 95.126 60.6817 95.018 60.1417 94.802C59.6077 94.58 59.1517 94.265 58.7737 93.857C58.3957 93.449 58.1047 92.957 57.9007 92.381C57.7027 91.805 57.6037 91.157 57.6037 90.437C57.6037 89.723 57.7027 89.078 57.9007 88.502C58.1047 87.92 58.3957 87.425 58.7737 87.017C59.1517 86.609 59.6077 86.294 60.1417 86.072C60.6817 85.85 61.2877 85.739 61.9597 85.739ZM61.9597 93.875C62.8597 93.875 63.5317 93.575 63.9757 92.975C64.4197 92.369 64.6417 91.526 64.6417 90.446C64.6417 89.36 64.4197 88.514 63.9757 87.908C63.5317 87.302 62.8597 86.999 61.9597 86.999C61.5037 86.999 61.1047 87.077 60.7627 87.233C60.4267 87.389 60.1447 87.614 59.9167 87.908C59.6947 88.202 59.5267 88.565 59.4127 88.997C59.3047 89.423 59.2507 89.906 59.2507 90.446C59.2507 91.526 59.4727 92.369 59.9167 92.975C60.3667 93.575 61.0477 93.875 61.9597 93.875ZM68.3295 95V85.883H69.2925C69.5205 85.883 69.6615 85.994 69.7155 86.216L69.8325 87.152C70.1685 86.738 70.5465 86.399 70.9665 86.135C71.3865 85.871 71.8725 85.739 72.4245 85.739C73.0365 85.739 73.5315 85.91 73.9095 86.252C74.2935 86.594 74.5695 87.056 74.7375 87.638C74.8695 87.308 75.0375 87.023 75.2415 86.783C75.4515 86.543 75.6855 86.345 75.9435 86.189C76.2015 86.033 76.4745 85.919 76.7625 85.847C77.0565 85.775 77.3535 85.739 77.6535 85.739C78.1335 85.739 78.5595 85.817 78.9315 85.973C79.3095 86.123 79.6275 86.345 79.8855 86.639C80.1495 86.933 80.3505 87.296 80.4885 87.728C80.6265 88.154 80.6955 88.643 80.6955 89.195V95H79.0845V89.195C79.0845 88.481 78.9285 87.941 78.6165 87.575C78.3045 87.203 77.8545 87.017 77.2665 87.017C77.0025 87.017 76.7505 87.065 76.5105 87.161C76.2765 87.251 76.0695 87.386 75.8895 87.566C75.7095 87.746 75.5655 87.974 75.4575 88.25C75.3555 88.52 75.3045 88.835 75.3045 89.195V95H73.6935V89.195C73.6935 88.463 73.5465 87.917 73.2525 87.557C72.9585 87.197 72.5295 87.017 71.9655 87.017C71.5695 87.017 71.2035 87.125 70.8675 87.341C70.5315 87.551 70.2225 87.839 69.9405 88.205V95H68.3295ZM84.7413 92.804C85.0353 93.2 85.3563 93.479 85.7043 93.641C86.0523 93.803 86.4423 93.884 86.8743 93.884C87.7263 93.884 88.3803 93.581 88.8363 92.975C89.2923 92.369 89.5203 91.505 89.5203 90.383C89.5203 89.789 89.4663 89.279 89.3583 88.853C89.2563 88.427 89.1063 88.079 88.9083 87.809C88.7103 87.533 88.4673 87.332 88.1793 87.206C87.8913 87.08 87.5643 87.017 87.1983 87.017C86.6763 87.017 86.2173 87.137 85.8213 87.377C85.4313 87.617 85.0713 87.956 84.7413 88.394V92.804ZM84.6603 87.296C85.0443 86.822 85.4883 86.441 85.9923 86.153C86.4963 85.865 87.0723 85.721 87.7203 85.721C88.2483 85.721 88.7253 85.823 89.1513 86.027C89.5773 86.225 89.9403 86.522 90.2403 86.918C90.5403 87.308 90.7713 87.794 90.9333 88.376C91.0953 88.958 91.1763 89.627 91.1763 90.383C91.1763 91.055 91.0863 91.682 90.9063 92.264C90.7263 92.84 90.4653 93.341 90.1233 93.767C89.7873 94.187 89.3733 94.52 88.8813 94.766C88.3953 95.006 87.8463 95.126 87.2343 95.126C86.6763 95.126 86.1963 95.033 85.7943 94.847C85.3983 94.655 85.0473 94.391 84.7413 94.055V98.087H83.1303V85.883H84.0933C84.3213 85.883 84.4623 85.994 84.5163 86.216L84.6603 87.296ZM99.3222 89.447C99.3222 89.075 99.2682 88.736 99.1602 88.43C99.0582 88.118 98.9052 87.851 98.7012 87.629C98.5032 87.401 98.2602 87.227 97.9722 87.107C97.6842 86.981 97.3572 86.918 96.9912 86.918C96.2232 86.918 95.6142 87.143 95.1642 87.593C94.7202 88.037 94.4442 88.655 94.3362 89.447H99.3222ZM100.618 93.722C100.42 93.962 100.183 94.172 99.9072 94.352C99.6312 94.526 99.3342 94.67 99.0162 94.784C98.7042 94.898 98.3802 94.982 98.0442 95.036C97.7082 95.096 97.3752 95.126 97.0452 95.126C96.4152 95.126 95.8332 95.021 95.2992 94.811C94.7712 94.595 94.3122 94.283 93.9222 93.875C93.5382 93.461 93.2382 92.951 93.0222 92.345C92.8062 91.739 92.6982 91.043 92.6982 90.257C92.6982 89.621 92.7942 89.027 92.9862 88.475C93.1842 87.923 93.4662 87.446 93.8322 87.044C94.1982 86.636 94.6452 86.318 95.1732 86.09C95.7012 85.856 96.2952 85.739 96.9552 85.739C97.5012 85.739 98.0052 85.832 98.4672 86.018C98.9352 86.198 99.3372 86.462 99.6732 86.81C100.015 87.152 100.282 87.578 100.474 88.088C100.666 88.592 100.762 89.168 100.762 89.816C100.762 90.068 100.735 90.236 100.681 90.32C100.627 90.404 100.525 90.446 100.375 90.446H94.2822C94.3002 91.022 94.3782 91.523 94.5162 91.949C94.6602 92.375 94.8582 92.732 95.1102 93.02C95.3622 93.302 95.6622 93.515 96.0102 93.659C96.3582 93.797 96.7482 93.866 97.1802 93.866C97.5822 93.866 97.9272 93.821 98.2152 93.731C98.5092 93.635 98.7612 93.533 98.9712 93.425C99.1812 93.317 99.3552 93.218 99.4932 93.128C99.6372 93.032 99.7602 92.984 99.8622 92.984C99.9942 92.984 100.096 93.035 100.168 93.137L100.618 93.722ZM111.12 95H109.518V87.224H104.82V92.696C104.82 93.08 104.913 93.365 105.099 93.551C105.285 93.737 105.525 93.83 105.819 93.83C105.987 93.83 106.131 93.809 106.251 93.767C106.377 93.719 106.485 93.668 106.575 93.614C106.665 93.56 106.74 93.512 106.8 93.47C106.866 93.422 106.923 93.398 106.971 93.398C107.055 93.398 107.13 93.449 107.196 93.551L107.664 94.316C107.388 94.574 107.055 94.778 106.665 94.928C106.275 95.072 105.873 95.144 105.459 95.144C104.739 95.144 104.184 94.943 103.794 94.541C103.41 94.139 103.218 93.56 103.218 92.804V87.224H102.12C102.024 87.224 101.943 87.197 101.877 87.143C101.811 87.083 101.778 86.993 101.778 86.873V86.234L103.272 86.036L103.641 83.228C103.659 83.138 103.698 83.066 103.758 83.012C103.824 82.952 103.908 82.922 104.01 82.922H104.82V86.063H111.12V95ZM111.516 82.958C111.516 83.114 111.483 83.261 111.417 83.399C111.357 83.531 111.273 83.648 111.165 83.75C111.063 83.852 110.943 83.933 110.805 83.993C110.667 84.053 110.52 84.083 110.364 84.083C110.208 84.083 110.061 84.053 109.923 83.993C109.791 83.933 109.674 83.852 109.572 83.75C109.47 83.648 109.389 83.531 109.329 83.399C109.269 83.261 109.239 83.114 109.239 82.958C109.239 82.802 109.269 82.655 109.329 82.517C109.389 82.373 109.47 82.25 109.572 82.148C109.674 82.04 109.791 81.956 109.923 81.896C110.061 81.836 110.208 81.806 110.364 81.806C110.52 81.806 110.667 81.836 110.805 81.896C110.943 81.956 111.063 82.04 111.165 82.148C111.273 82.25 111.357 82.373 111.417 82.517C111.483 82.655 111.516 82.802 111.516 82.958ZM116.55 95.144C115.83 95.144 115.275 94.943 114.885 94.541C114.501 94.139 114.309 93.56 114.309 92.804V87.224H113.211C113.115 87.224 113.034 87.197 112.968 87.143C112.902 87.083 112.869 86.993 112.869 86.873V86.234L114.363 86.045L114.732 83.228C114.75 83.138 114.789 83.066 114.849 83.012C114.915 82.952 114.999 82.922 115.101 82.922H115.911V86.063H118.548V87.224H115.911V92.696C115.911 93.08 116.004 93.365 116.19 93.551C116.376 93.737 116.616 93.83 116.91 93.83C117.078 93.83 117.222 93.809 117.342 93.767C117.468 93.719 117.576 93.668 117.666 93.614C117.756 93.56 117.831 93.512 117.891 93.47C117.957 93.422 118.014 93.398 118.062 93.398C118.146 93.398 118.221 93.449 118.287 93.551L118.755 94.316C118.479 94.574 118.146 94.778 117.756 94.928C117.366 95.072 116.964 95.144 116.55 95.144ZM123.993 85.739C124.659 85.739 125.259 85.85 125.793 86.072C126.327 86.294 126.783 86.609 127.161 87.017C127.539 87.425 127.827 87.92 128.025 88.502C128.229 89.078 128.331 89.723 128.331 90.437C128.331 91.157 128.229 91.805 128.025 92.381C127.827 92.957 127.539 93.449 127.161 93.857C126.783 94.265 126.327 94.58 125.793 94.802C125.259 95.018 124.659 95.126 123.993 95.126C123.321 95.126 122.715 95.018 122.175 94.802C121.641 94.58 121.185 94.265 120.807 93.857C120.429 93.449 120.138 92.957 119.934 92.381C119.736 91.805 119.637 91.157 119.637 90.437C119.637 89.723 119.736 89.078 119.934 88.502C120.138 87.92 120.429 87.425 120.807 87.017C121.185 86.609 121.641 86.294 122.175 86.072C122.715 85.85 123.321 85.739 123.993 85.739ZM123.993 93.875C124.893 93.875 125.565 93.575 126.009 92.975C126.453 92.369 126.675 91.526 126.675 90.446C126.675 89.36 126.453 88.514 126.009 87.908C125.565 87.302 124.893 86.999 123.993 86.999C123.537 86.999 123.138 87.077 122.796 87.233C122.46 87.389 122.178 87.614 121.95 87.908C121.728 88.202 121.56 88.565 121.446 88.997C121.338 89.423 121.284 89.906 121.284 90.446C121.284 91.526 121.506 92.369 121.95 92.975C122.4 93.575 123.081 93.875 123.993 93.875ZM131.884 87.71C132.172 87.086 132.526 86.6 132.946 86.252C133.366 85.898 133.879 85.721 134.485 85.721C134.677 85.721 134.86 85.742 135.034 85.784C135.214 85.826 135.373 85.892 135.511 85.982L135.394 87.179C135.358 87.329 135.268 87.404 135.124 87.404C135.04 87.404 134.917 87.386 134.755 87.35C134.593 87.314 134.41 87.296 134.206 87.296C133.918 87.296 133.66 87.338 133.432 87.422C133.21 87.506 133.009 87.632 132.829 87.8C132.655 87.962 132.496 88.166 132.352 88.412C132.214 88.652 132.088 88.928 131.974 89.24V95H130.363V85.883H131.281C131.455 85.883 131.575 85.916 131.641 85.982C131.707 86.048 131.752 86.162 131.776 86.324L131.884 87.71ZM146.079 90.896C145.341 90.92 144.711 90.98 144.189 91.076C143.673 91.166 143.25 91.286 142.92 91.436C142.596 91.586 142.359 91.763 142.209 91.967C142.065 92.171 141.993 92.399 141.993 92.651C141.993 92.891 142.032 93.098 142.11 93.272C142.188 93.446 142.293 93.59 142.425 93.704C142.563 93.812 142.722 93.893 142.902 93.947C143.088 93.995 143.286 94.019 143.496 94.019C143.778 94.019 144.036 93.992 144.27 93.938C144.504 93.878 144.723 93.794 144.927 93.686C145.137 93.578 145.335 93.449 145.521 93.299C145.713 93.149 145.899 92.978 146.079 92.786V90.896ZM140.904 87.17C141.408 86.684 141.951 86.321 142.533 86.081C143.115 85.841 143.76 85.721 144.468 85.721C144.978 85.721 145.431 85.805 145.827 85.973C146.223 86.141 146.556 86.375 146.826 86.675C147.096 86.975 147.3 87.338 147.438 87.764C147.576 88.19 147.645 88.658 147.645 89.168V95H146.934C146.778 95 146.658 94.976 146.574 94.928C146.49 94.874 146.424 94.772 146.376 94.622L146.196 93.758C145.956 93.98 145.722 94.178 145.494 94.352C145.266 94.52 145.026 94.664 144.774 94.784C144.522 94.898 144.252 94.985 143.964 95.045C143.682 95.111 143.367 95.144 143.019 95.144C142.665 95.144 142.332 95.096 142.02 95C141.708 94.898 141.435 94.748 141.201 94.55C140.973 94.352 140.79 94.103 140.652 93.803C140.52 93.497 140.454 93.137 140.454 92.723C140.454 92.363 140.553 92.018 140.751 91.688C140.949 91.352 141.27 91.055 141.714 90.797C142.158 90.539 142.737 90.329 143.451 90.167C144.165 89.999 145.041 89.903 146.079 89.879V89.168C146.079 88.46 145.926 87.926 145.62 87.566C145.314 87.2 144.867 87.017 144.279 87.017C143.883 87.017 143.55 87.068 143.28 87.17C143.016 87.266 142.785 87.377 142.587 87.503C142.395 87.623 142.227 87.734 142.083 87.836C141.945 87.932 141.807 87.98 141.669 87.98C141.561 87.98 141.468 87.953 141.39 87.899C141.312 87.839 141.246 87.767 141.192 87.683L140.904 87.17ZM151.597 87.206C151.795 86.984 152.005 86.783 152.227 86.603C152.449 86.423 152.683 86.27 152.929 86.144C153.181 86.012 153.445 85.913 153.721 85.847C154.003 85.775 154.306 85.739 154.63 85.739C155.128 85.739 155.566 85.823 155.944 85.991C156.328 86.153 156.646 86.387 156.898 86.693C157.156 86.993 157.351 87.356 157.483 87.782C157.615 88.208 157.681 88.679 157.681 89.195V95H156.07V89.195C156.07 88.505 155.911 87.971 155.593 87.593C155.281 87.209 154.804 87.017 154.162 87.017C153.688 87.017 153.244 87.131 152.83 87.359C152.422 87.587 152.044 87.896 151.696 88.286V95H150.085V85.883H151.048C151.276 85.883 151.417 85.994 151.471 86.216L151.597 87.206ZM165.064 90.896C164.326 90.92 163.696 90.98 163.174 91.076C162.658 91.166 162.235 91.286 161.905 91.436C161.581 91.586 161.344 91.763 161.194 91.967C161.05 92.171 160.978 92.399 160.978 92.651C160.978 92.891 161.017 93.098 161.095 93.272C161.173 93.446 161.278 93.59 161.41 93.704C161.548 93.812 161.707 93.893 161.887 93.947C162.073 93.995 162.271 94.019 162.481 94.019C162.763 94.019 163.021 93.992 163.255 93.938C163.489 93.878 163.708 93.794 163.912 93.686C164.122 93.578 164.32 93.449 164.506 93.299C164.698 93.149 164.884 92.978 165.064 92.786V90.896ZM159.889 87.17C160.393 86.684 160.936 86.321 161.518 86.081C162.1 85.841 162.745 85.721 163.453 85.721C163.963 85.721 164.416 85.805 164.812 85.973C165.208 86.141 165.541 86.375 165.811 86.675C166.081 86.975 166.285 87.338 166.423 87.764C166.561 88.19 166.63 88.658 166.63 89.168V95H165.919C165.763 95 165.643 94.976 165.559 94.928C165.475 94.874 165.409 94.772 165.361 94.622L165.181 93.758C164.941 93.98 164.707 94.178 164.479 94.352C164.251 94.52 164.011 94.664 163.759 94.784C163.507 94.898 163.237 94.985 162.949 95.045C162.667 95.111 162.352 95.144 162.004 95.144C161.65 95.144 161.317 95.096 161.005 95C160.693 94.898 160.42 94.748 160.186 94.55C159.958 94.352 159.775 94.103 159.637 93.803C159.505 93.497 159.439 93.137 159.439 92.723C159.439 92.363 159.538 92.018 159.736 91.688C159.934 91.352 160.255 91.055 160.699 90.797C161.143 90.539 161.722 90.329 162.436 90.167C163.15 89.999 164.026 89.903 165.064 89.879V89.168C165.064 88.46 164.911 87.926 164.605 87.566C164.299 87.2 163.852 87.017 163.264 87.017C162.868 87.017 162.535 87.068 162.265 87.17C162.001 87.266 161.77 87.377 161.572 87.503C161.38 87.623 161.212 87.734 161.068 87.836C160.93 87.932 160.792 87.98 160.654 87.98C160.546 87.98 160.453 87.953 160.375 87.899C160.297 87.839 160.231 87.767 160.177 87.683L159.889 87.17ZM170.726 81.743V95H169.124V81.743H170.726ZM181.19 85.883L176.105 97.691C176.051 97.811 175.982 97.907 175.898 97.979C175.82 98.051 175.697 98.087 175.529 98.087H174.341L176.006 94.469L172.244 85.883H173.63C173.768 85.883 173.876 85.919 173.954 85.991C174.038 86.057 174.095 86.132 174.125 86.216L176.564 91.958C176.66 92.21 176.741 92.474 176.807 92.75C176.891 92.468 176.981 92.201 177.077 91.949L179.444 86.216C179.48 86.12 179.54 86.042 179.624 85.982C179.714 85.916 179.813 85.883 179.921 85.883H181.19ZM187.757 87.386C187.685 87.518 187.574 87.584 187.424 87.584C187.334 87.584 187.232 87.551 187.118 87.485C187.004 87.419 186.863 87.347 186.695 87.269C186.533 87.185 186.338 87.11 186.11 87.044C185.882 86.972 185.612 86.936 185.3 86.936C185.03 86.936 184.787 86.972 184.571 87.044C184.355 87.11 184.169 87.203 184.013 87.323C183.863 87.443 183.746 87.584 183.662 87.746C183.584 87.902 183.545 88.073 183.545 88.259C183.545 88.493 183.611 88.688 183.743 88.844C183.881 89 184.061 89.135 184.283 89.249C184.505 89.363 184.757 89.465 185.039 89.555C185.321 89.639 185.609 89.732 185.903 89.834C186.203 89.93 186.494 90.038 186.776 90.158C187.058 90.278 187.31 90.428 187.532 90.608C187.754 90.788 187.931 91.01 188.063 91.274C188.201 91.532 188.27 91.844 188.27 92.21C188.27 92.63 188.195 93.02 188.045 93.38C187.895 93.734 187.673 94.043 187.379 94.307C187.085 94.565 186.725 94.769 186.299 94.919C185.873 95.069 185.381 95.144 184.823 95.144C184.187 95.144 183.611 95.042 183.095 94.838C182.579 94.628 182.141 94.361 181.781 94.037L182.159 93.425C182.207 93.347 182.264 93.287 182.33 93.245C182.396 93.203 182.48 93.182 182.582 93.182C182.69 93.182 182.804 93.224 182.924 93.308C183.044 93.392 183.188 93.485 183.356 93.587C183.53 93.689 183.74 93.782 183.986 93.866C184.232 93.95 184.538 93.992 184.904 93.992C185.216 93.992 185.489 93.953 185.723 93.875C185.957 93.791 186.152 93.68 186.308 93.542C186.464 93.404 186.578 93.245 186.65 93.065C186.728 92.885 186.767 92.693 186.767 92.489C186.767 92.237 186.698 92.03 186.56 91.868C186.428 91.7 186.251 91.559 186.029 91.445C185.807 91.325 185.552 91.223 185.264 91.139C184.982 91.049 184.691 90.956 184.391 90.86C184.097 90.764 183.806 90.656 183.518 90.536C183.236 90.41 182.984 90.254 182.762 90.068C182.54 89.882 182.36 89.654 182.222 89.384C182.09 89.108 182.024 88.775 182.024 88.385C182.024 88.037 182.096 87.704 182.24 87.386C182.384 87.062 182.594 86.78 182.87 86.54C183.146 86.294 183.485 86.099 183.887 85.955C184.289 85.811 184.748 85.739 185.264 85.739C185.864 85.739 186.401 85.835 186.875 86.027C187.355 86.213 187.769 86.471 188.117 86.801L187.757 87.386ZM191.926 85.883V95H190.324V85.883H191.926ZM192.268 83.021C192.268 83.177 192.235 83.324 192.169 83.462C192.109 83.594 192.025 83.714 191.917 83.822C191.815 83.924 191.692 84.005 191.548 84.065C191.41 84.125 191.263 84.155 191.107 84.155C190.951 84.155 190.804 84.125 190.666 84.065C190.534 84.005 190.417 83.924 190.315 83.822C190.213 83.714 190.132 83.594 190.072 83.462C190.012 83.324 189.982 83.177 189.982 83.021C189.982 82.865 190.012 82.718 190.072 82.58C190.132 82.436 190.213 82.313 190.315 82.211C190.417 82.103 190.534 82.019 190.666 81.959C190.804 81.899 190.951 81.869 191.107 81.869C191.263 81.869 191.41 81.899 191.548 81.959C191.692 82.019 191.815 82.103 191.917 82.211C192.025 82.313 192.109 82.436 192.169 82.58C192.235 82.718 192.268 82.865 192.268 83.021ZM199.868 87.386C199.796 87.518 199.685 87.584 199.535 87.584C199.445 87.584 199.343 87.551 199.229 87.485C199.115 87.419 198.974 87.347 198.806 87.269C198.644 87.185 198.449 87.11 198.221 87.044C197.993 86.972 197.723 86.936 197.411 86.936C197.141 86.936 196.898 86.972 196.682 87.044C196.466 87.11 196.28 87.203 196.124 87.323C195.974 87.443 195.857 87.584 195.773 87.746C195.695 87.902 195.656 88.073 195.656 88.259C195.656 88.493 195.722 88.688 195.854 88.844C195.992 89 196.172 89.135 196.394 89.249C196.616 89.363 196.868 89.465 197.15 89.555C197.432 89.639 197.72 89.732 198.014 89.834C198.314 89.93 198.605 90.038 198.887 90.158C199.169 90.278 199.421 90.428 199.643 90.608C199.865 90.788 200.042 91.01 200.174 91.274C200.312 91.532 200.381 91.844 200.381 92.21C200.381 92.63 200.306 93.02 200.156 93.38C200.006 93.734 199.784 94.043 199.49 94.307C199.196 94.565 198.836 94.769 198.41 94.919C197.984 95.069 197.492 95.144 196.934 95.144C196.298 95.144 195.722 95.042 195.206 94.838C194.69 94.628 194.252 94.361 193.892 94.037L194.27 93.425C194.318 93.347 194.375 93.287 194.441 93.245C194.507 93.203 194.591 93.182 194.693 93.182C194.801 93.182 194.915 93.224 195.035 93.308C195.155 93.392 195.299 93.485 195.467 93.587C195.641 93.689 195.851 93.782 196.097 93.866C196.343 93.95 196.649 93.992 197.015 93.992C197.327 93.992 197.6 93.953 197.834 93.875C198.068 93.791 198.263 93.68 198.419 93.542C198.575 93.404 198.689 93.245 198.761 93.065C198.839 92.885 198.878 92.693 198.878 92.489C198.878 92.237 198.809 92.03 198.671 91.868C198.539 91.7 198.362 91.559 198.14 91.445C197.918 91.325 197.663 91.223 197.375 91.139C197.093 91.049 196.802 90.956 196.502 90.86C196.208 90.764 195.917 90.656 195.629 90.536C195.347 90.41 195.095 90.254 194.873 90.068C194.651 89.882 194.471 89.654 194.333 89.384C194.201 89.108 194.135 88.775 194.135 88.385C194.135 88.037 194.207 87.704 194.351 87.386C194.495 87.062 194.705 86.78 194.981 86.54C195.257 86.294 195.596 86.099 195.998 85.955C196.4 85.811 196.859 85.739 197.375 85.739C197.975 85.739 198.512 85.835 198.986 86.027C199.466 86.213 199.88 86.471 200.228 86.801L199.868 87.386ZM55.701 126.336C55.797 126.336 55.881 126.375 55.953 126.453L56.646 127.2C56.118 127.812 55.476 128.289 54.72 128.631C53.97 128.973 53.061 129.144 51.993 129.144C51.069 129.144 50.229 128.985 49.473 128.667C48.717 128.343 48.072 127.893 47.538 127.317C47.004 126.735 46.59 126.039 46.296 125.229C46.002 124.419 45.855 123.528 45.855 122.556C45.855 121.584 46.008 120.693 46.314 119.883C46.62 119.073 47.049 118.377 47.601 117.795C48.159 117.213 48.825 116.763 49.599 116.445C50.373 116.121 51.228 115.959 52.164 115.959C53.082 115.959 53.892 116.106 54.594 116.4C55.296 116.694 55.914 117.093 56.448 117.597L55.872 118.398C55.836 118.458 55.788 118.509 55.728 118.551C55.674 118.587 55.599 118.605 55.503 118.605C55.395 118.605 55.263 118.548 55.107 118.434C54.951 118.314 54.747 118.182 54.495 118.038C54.243 117.894 53.928 117.765 53.55 117.651C53.172 117.531 52.707 117.471 52.155 117.471C51.489 117.471 50.88 117.588 50.328 117.822C49.776 118.05 49.299 118.383 48.897 118.821C48.501 119.259 48.192 119.793 47.97 120.423C47.748 121.053 47.637 121.764 47.637 122.556C47.637 123.36 47.751 124.077 47.979 124.707C48.213 125.337 48.528 125.871 48.924 126.309C49.326 126.741 49.797 127.071 50.337 127.299C50.883 127.527 51.471 127.641 52.101 127.641C52.485 127.641 52.83 127.62 53.136 127.578C53.448 127.53 53.733 127.458 53.991 127.362C54.255 127.266 54.498 127.146 54.72 127.002C54.948 126.852 55.173 126.675 55.395 126.471C55.497 126.381 55.599 126.336 55.701 126.336ZM65.6488 119.883V129H64.6948C64.4668 129 64.3228 128.889 64.2628 128.667L64.1368 127.686C63.7408 128.124 63.2968 128.478 62.8048 128.748C62.3128 129.012 61.7488 129.144 61.1128 129.144C60.6148 129.144 60.1738 129.063 59.7898 128.901C59.4118 128.733 59.0938 128.499 58.8358 128.199C58.5778 127.899 58.3828 127.536 58.2508 127.11C58.1248 126.684 58.0618 126.213 58.0618 125.697V119.883H59.6638V125.697C59.6638 126.387 59.8198 126.921 60.1318 127.299C60.4498 127.677 60.9328 127.866 61.5808 127.866C62.0548 127.866 62.4958 127.755 62.9038 127.533C63.3178 127.305 63.6988 126.993 64.0468 126.597V119.883H65.6488ZM73.4989 121.386C73.4269 121.518 73.3159 121.584 73.1659 121.584C73.0759 121.584 72.9739 121.551 72.8599 121.485C72.7459 121.419 72.6049 121.347 72.4369 121.269C72.2749 121.185 72.0799 121.11 71.8519 121.044C71.6239 120.972 71.3539 120.936 71.0419 120.936C70.7719 120.936 70.5289 120.972 70.3129 121.044C70.0969 121.11 69.9109 121.203 69.7549 121.323C69.6049 121.443 69.4879 121.584 69.4039 121.746C69.3259 121.902 69.2869 122.073 69.2869 122.259C69.2869 122.493 69.3529 122.688 69.4849 122.844C69.6229 123 69.8029 123.135 70.0249 123.249C70.2469 123.363 70.4989 123.465 70.7809 123.555C71.0629 123.639 71.3509 123.732 71.6449 123.834C71.9449 123.93 72.2359 124.038 72.5179 124.158C72.7999 124.278 73.0519 124.428 73.2739 124.608C73.4959 124.788 73.6729 125.01 73.8049 125.274C73.9429 125.532 74.0119 125.844 74.0119 126.21C74.0119 126.63 73.9369 127.02 73.7869 127.38C73.6369 127.734 73.4149 128.043 73.1209 128.307C72.8269 128.565 72.4669 128.769 72.0409 128.919C71.6149 129.069 71.1229 129.144 70.5649 129.144C69.9289 129.144 69.3529 129.042 68.8369 128.838C68.3209 128.628 67.8829 128.361 67.5229 128.037L67.9009 127.425C67.9489 127.347 68.0059 127.287 68.0719 127.245C68.1379 127.203 68.2219 127.182 68.3239 127.182C68.4319 127.182 68.5459 127.224 68.6659 127.308C68.7859 127.392 68.9299 127.485 69.0979 127.587C69.2719 127.689 69.4819 127.782 69.7279 127.866C69.9739 127.95 70.2799 127.992 70.6459 127.992C70.9579 127.992 71.2309 127.953 71.4649 127.875C71.6989 127.791 71.8939 127.68 72.0499 127.542C72.2059 127.404 72.3199 127.245 72.3919 127.065C72.4699 126.885 72.5089 126.693 72.5089 126.489C72.5089 126.237 72.4399 126.03 72.3019 125.868C72.1699 125.7 71.9929 125.559 71.7709 125.445C71.5489 125.325 71.2939 125.223 71.0059 125.139C70.7239 125.049 70.4329 124.956 70.1329 124.86C69.8389 124.764 69.5479 124.656 69.2599 124.536C68.9779 124.41 68.7259 124.254 68.5039 124.068C68.2819 123.882 68.1019 123.654 67.9639 123.384C67.8319 123.108 67.7659 122.775 67.7659 122.385C67.7659 122.037 67.8379 121.704 67.9819 121.386C68.1259 121.062 68.3359 120.78 68.6119 120.54C68.8879 120.294 69.2269 120.099 69.6289 119.955C70.0309 119.811 70.4899 119.739 71.0059 119.739C71.6059 119.739 72.1429 119.835 72.6169 120.027C73.0969 120.213 73.5109 120.471 73.8589 120.801L73.4989 121.386ZM78.775 129.144C78.055 129.144 77.5 128.943 77.11 128.541C76.726 128.139 76.534 127.56 76.534 126.804V121.224H75.436C75.34 121.224 75.259 121.197 75.193 121.143C75.127 121.083 75.094 120.993 75.094 120.873V120.234L76.588 120.045L76.957 117.228C76.975 117.138 77.014 117.066 77.074 117.012C77.14 116.952 77.224 116.922 77.326 116.922H78.136V120.063H80.773V121.224H78.136V126.696C78.136 127.08 78.229 127.365 78.415 127.551C78.601 127.737 78.841 127.83 79.135 127.83C79.303 127.83 79.447 127.809 79.567 127.767C79.693 127.719 79.801 127.668 79.891 127.614C79.981 127.56 80.056 127.512 80.116 127.47C80.182 127.422 80.239 127.398 80.287 127.398C80.371 127.398 80.446 127.449 80.512 127.551L80.98 128.316C80.704 128.574 80.371 128.778 79.981 128.928C79.591 129.072 79.189 129.144 78.775 129.144ZM86.2175 119.739C86.8835 119.739 87.4835 119.85 88.0175 120.072C88.5515 120.294 89.0075 120.609 89.3855 121.017C89.7635 121.425 90.0515 121.92 90.2495 122.502C90.4535 123.078 90.5555 123.723 90.5555 124.437C90.5555 125.157 90.4535 125.805 90.2495 126.381C90.0515 126.957 89.7635 127.449 89.3855 127.857C89.0075 128.265 88.5515 128.58 88.0175 128.802C87.4835 129.018 86.8835 129.126 86.2175 129.126C85.5455 129.126 84.9395 129.018 84.3995 128.802C83.8655 128.58 83.4095 128.265 83.0315 127.857C82.6535 127.449 82.3625 126.957 82.1585 126.381C81.9605 125.805 81.8615 125.157 81.8615 124.437C81.8615 123.723 81.9605 123.078 82.1585 122.502C82.3625 121.92 82.6535 121.425 83.0315 121.017C83.4095 120.609 83.8655 120.294 84.3995 120.072C84.9395 119.85 85.5455 119.739 86.2175 119.739ZM86.2175 127.875C87.1175 127.875 87.7895 127.575 88.2335 126.975C88.6775 126.369 88.8995 125.526 88.8995 124.446C88.8995 123.36 88.6775 122.514 88.2335 121.908C87.7895 121.302 87.1175 120.999 86.2175 120.999C85.7615 120.999 85.3625 121.077 85.0205 121.233C84.6845 121.389 84.4025 121.614 84.1745 121.908C83.9525 122.202 83.7845 122.565 83.6705 122.997C83.5625 123.423 83.5085 123.906 83.5085 124.446C83.5085 125.526 83.7305 126.369 84.1745 126.975C84.6245 127.575 85.3055 127.875 86.2175 127.875ZM92.5874 129V119.883H93.5504C93.7784 119.883 93.9194 119.994 93.9734 120.216L94.0904 121.152C94.4264 120.738 94.8044 120.399 95.2244 120.135C95.6444 119.871 96.1304 119.739 96.6824 119.739C97.2944 119.739 97.7894 119.91 98.1674 120.252C98.5514 120.594 98.8274 121.056 98.9954 121.638C99.1274 121.308 99.2954 121.023 99.4994 120.783C99.7094 120.543 99.9434 120.345 100.201 120.189C100.459 120.033 100.732 119.919 101.02 119.847C101.314 119.775 101.611 119.739 101.911 119.739C102.391 119.739 102.817 119.817 103.189 119.973C103.567 120.123 103.885 120.345 104.143 120.639C104.407 120.933 104.608 121.296 104.746 121.728C104.884 122.154 104.953 122.643 104.953 123.195V129H103.342V123.195C103.342 122.481 103.186 121.941 102.874 121.575C102.562 121.203 102.112 121.017 101.524 121.017C101.26 121.017 101.008 121.065 100.768 121.161C100.534 121.251 100.327 121.386 100.147 121.566C99.9674 121.746 99.8234 121.974 99.7154 122.25C99.6134 122.52 99.5624 122.835 99.5624 123.195V129H97.9514V123.195C97.9514 122.463 97.8044 121.917 97.5104 121.557C97.2164 121.197 96.7874 121.017 96.2234 121.017C95.8274 121.017 95.4614 121.125 95.1254 121.341C94.7894 121.551 94.4804 121.839 94.1984 122.205V129H92.5874ZM113.49 123.447C113.49 123.075 113.436 122.736 113.328 122.43C113.226 122.118 113.073 121.851 112.869 121.629C112.671 121.401 112.428 121.227 112.14 121.107C111.852 120.981 111.525 120.918 111.159 120.918C110.391 120.918 109.782 121.143 109.332 121.593C108.888 122.037 108.612 122.655 108.504 123.447H113.49ZM114.786 127.722C114.588 127.962 114.351 128.172 114.075 128.352C113.799 128.526 113.502 128.67 113.184 128.784C112.872 128.898 112.548 128.982 112.212 129.036C111.876 129.096 111.543 129.126 111.213 129.126C110.583 129.126 110.001 129.021 109.467 128.811C108.939 128.595 108.48 128.283 108.09 127.875C107.706 127.461 107.406 126.951 107.19 126.345C106.974 125.739 106.866 125.043 106.866 124.257C106.866 123.621 106.962 123.027 107.154 122.475C107.352 121.923 107.634 121.446 108 121.044C108.366 120.636 108.813 120.318 109.341 120.09C109.869 119.856 110.463 119.739 111.123 119.739C111.669 119.739 112.173 119.832 112.635 120.018C113.103 120.198 113.505 120.462 113.841 120.81C114.183 121.152 114.45 121.578 114.642 122.088C114.834 122.592 114.93 123.168 114.93 123.816C114.93 124.068 114.903 124.236 114.849 124.32C114.795 124.404 114.693 124.446 114.543 124.446H108.45C108.468 125.022 108.546 125.523 108.684 125.949C108.828 126.375 109.026 126.732 109.278 127.02C109.53 127.302 109.83 127.515 110.178 127.659C110.526 127.797 110.916 127.866 111.348 127.866C111.75 127.866 112.095 127.821 112.383 127.731C112.677 127.635 112.929 127.533 113.139 127.425C113.349 127.317 113.523 127.218 113.661 127.128C113.805 127.032 113.928 126.984 114.03 126.984C114.162 126.984 114.264 127.035 114.336 127.137L114.786 127.722ZM118.419 121.71C118.707 121.086 119.061 120.6 119.481 120.252C119.901 119.898 120.414 119.721 121.02 119.721C121.212 119.721 121.395 119.742 121.569 119.784C121.749 119.826 121.908 119.892 122.046 119.982L121.929 121.179C121.893 121.329 121.803 121.404 121.659 121.404C121.575 121.404 121.452 121.386 121.29 121.35C121.128 121.314 120.945 121.296 120.741 121.296C120.453 121.296 120.195 121.338 119.967 121.422C119.745 121.506 119.544 121.632 119.364 121.8C119.19 121.962 119.031 122.166 118.887 122.412C118.749 122.652 118.623 122.928 118.509 123.24V129H116.898V119.883H117.816C117.99 119.883 118.11 119.916 118.176 119.982C118.242 120.048 118.287 120.162 118.311 120.324L118.419 121.71ZM129.365 119.883V129.675C129.365 130.041 129.317 130.38 129.221 130.692C129.125 131.01 128.972 131.286 128.762 131.52C128.552 131.754 128.282 131.937 127.952 132.069C127.628 132.207 127.238 132.276 126.782 132.276C126.59 132.276 126.413 132.261 126.251 132.231C126.089 132.201 125.927 132.156 125.765 132.096L125.828 131.232C125.84 131.178 125.861 131.136 125.891 131.106C125.915 131.082 125.951 131.067 125.999 131.061C126.047 131.055 126.11 131.052 126.188 131.052C126.26 131.058 126.353 131.061 126.467 131.061C126.935 131.061 127.268 130.95 127.466 130.728C127.664 130.512 127.763 130.161 127.763 129.675V119.883H129.365ZM129.698 117.021C129.698 117.177 129.665 117.324 129.599 117.462C129.539 117.594 129.455 117.714 129.347 117.822C129.245 117.924 129.125 118.005 128.987 118.065C128.849 118.125 128.702 118.155 128.546 118.155C128.39 118.155 128.243 118.125 128.105 118.065C127.973 118.005 127.856 117.924 127.754 117.822C127.652 117.714 127.571 117.594 127.511 117.462C127.451 117.324 127.421 117.177 127.421 117.021C127.421 116.865 127.451 116.718 127.511 116.58C127.571 116.436 127.652 116.313 127.754 116.211C127.856 116.103 127.973 116.019 128.105 115.959C128.243 115.899 128.39 115.869 128.546 115.869C128.702 115.869 128.849 115.899 128.987 115.959C129.125 116.019 129.245 116.103 129.347 116.211C129.455 116.313 129.539 116.436 129.599 116.58C129.665 116.718 129.698 116.865 129.698 117.021ZM135.841 119.739C136.507 119.739 137.107 119.85 137.641 120.072C138.175 120.294 138.631 120.609 139.009 121.017C139.387 121.425 139.675 121.92 139.873 122.502C140.077 123.078 140.179 123.723 140.179 124.437C140.179 125.157 140.077 125.805 139.873 126.381C139.675 126.957 139.387 127.449 139.009 127.857C138.631 128.265 138.175 128.58 137.641 128.802C137.107 129.018 136.507 129.126 135.841 129.126C135.169 129.126 134.563 129.018 134.023 128.802C133.489 128.58 133.033 128.265 132.655 127.857C132.277 127.449 131.986 126.957 131.782 126.381C131.584 125.805 131.485 125.157 131.485 124.437C131.485 123.723 131.584 123.078 131.782 122.502C131.986 121.92 132.277 121.425 132.655 121.017C133.033 120.609 133.489 120.294 134.023 120.072C134.563 119.85 135.169 119.739 135.841 119.739ZM135.841 127.875C136.741 127.875 137.413 127.575 137.857 126.975C138.301 126.369 138.523 125.526 138.523 124.446C138.523 123.36 138.301 122.514 137.857 121.908C137.413 121.302 136.741 120.999 135.841 120.999C135.385 120.999 134.986 121.077 134.644 121.233C134.308 121.389 134.026 121.614 133.798 121.908C133.576 122.202 133.408 122.565 133.294 122.997C133.186 123.423 133.132 123.906 133.132 124.446C133.132 125.526 133.354 126.369 133.798 126.975C134.248 127.575 134.929 127.875 135.841 127.875ZM149.707 119.883V129H148.753C148.525 129 148.381 128.889 148.321 128.667L148.195 127.686C147.799 128.124 147.355 128.478 146.863 128.748C146.371 129.012 145.807 129.144 145.171 129.144C144.673 129.144 144.232 129.063 143.848 128.901C143.47 128.733 143.152 128.499 142.894 128.199C142.636 127.899 142.441 127.536 142.309 127.11C142.183 126.684 142.12 126.213 142.12 125.697V119.883H143.722V125.697C143.722 126.387 143.878 126.921 144.19 127.299C144.508 127.677 144.991 127.866 145.639 127.866C146.113 127.866 146.554 127.755 146.962 127.533C147.376 127.305 147.757 126.993 148.105 126.597V119.883H149.707ZM153.769 121.71C154.057 121.086 154.411 120.6 154.831 120.252C155.251 119.898 155.764 119.721 156.37 119.721C156.562 119.721 156.745 119.742 156.919 119.784C157.099 119.826 157.258 119.892 157.396 119.982L157.279 121.179C157.243 121.329 157.153 121.404 157.009 121.404C156.925 121.404 156.802 121.386 156.64 121.35C156.478 121.314 156.295 121.296 156.091 121.296C155.803 121.296 155.545 121.338 155.317 121.422C155.095 121.506 154.894 121.632 154.714 121.8C154.54 121.962 154.381 122.166 154.237 122.412C154.099 122.652 153.973 122.928 153.859 123.24V129H152.248V119.883H153.166C153.34 119.883 153.46 119.916 153.526 119.982C153.592 120.048 153.637 120.162 153.661 120.324L153.769 121.71ZM160.316 121.206C160.514 120.984 160.724 120.783 160.946 120.603C161.168 120.423 161.402 120.27 161.648 120.144C161.9 120.012 162.164 119.913 162.44 119.847C162.722 119.775 163.025 119.739 163.349 119.739C163.847 119.739 164.285 119.823 164.663 119.991C165.047 120.153 165.365 120.387 165.617 120.693C165.875 120.993 166.07 121.356 166.202 121.782C166.334 122.208 166.4 122.679 166.4 123.195V129H164.789V123.195C164.789 122.505 164.63 121.971 164.312 121.593C164 121.209 163.523 121.017 162.881 121.017C162.407 121.017 161.963 121.131 161.549 121.359C161.141 121.587 160.763 121.896 160.415 122.286V129H158.804V119.883H159.767C159.995 119.883 160.136 119.994 160.19 120.216L160.316 121.206ZM174.943 123.447C174.943 123.075 174.889 122.736 174.781 122.43C174.679 122.118 174.526 121.851 174.322 121.629C174.124 121.401 173.881 121.227 173.593 121.107C173.305 120.981 172.978 120.918 172.612 120.918C171.844 120.918 171.235 121.143 170.785 121.593C170.341 122.037 170.065 122.655 169.957 123.447H174.943ZM176.239 127.722C176.041 127.962 175.804 128.172 175.528 128.352C175.252 128.526 174.955 128.67 174.637 128.784C174.325 128.898 174.001 128.982 173.665 129.036C173.329 129.096 172.996 129.126 172.666 129.126C172.036 129.126 171.454 129.021 170.92 128.811C170.392 128.595 169.933 128.283 169.543 127.875C169.159 127.461 168.859 126.951 168.643 126.345C168.427 125.739 168.319 125.043 168.319 124.257C168.319 123.621 168.415 123.027 168.607 122.475C168.805 121.923 169.087 121.446 169.453 121.044C169.819 120.636 170.266 120.318 170.794 120.09C171.322 119.856 171.916 119.739 172.576 119.739C173.122 119.739 173.626 119.832 174.088 120.018C174.556 120.198 174.958 120.462 175.294 120.81C175.636 121.152 175.903 121.578 176.095 122.088C176.287 122.592 176.383 123.168 176.383 123.816C176.383 124.068 176.356 124.236 176.302 124.32C176.248 124.404 176.146 124.446 175.996 124.446H169.903C169.921 125.022 169.999 125.523 170.137 125.949C170.281 126.375 170.479 126.732 170.731 127.02C170.983 127.302 171.283 127.515 171.631 127.659C171.979 127.797 172.369 127.866 172.801 127.866C173.203 127.866 173.548 127.821 173.836 127.731C174.13 127.635 174.382 127.533 174.592 127.425C174.802 127.317 174.976 127.218 175.114 127.128C175.258 127.032 175.381 126.984 175.483 126.984C175.615 126.984 175.717 127.035 175.789 127.137L176.239 127.722ZM185.989 119.883L180.904 131.691C180.85 131.811 180.781 131.907 180.697 131.979C180.619 132.051 180.496 132.087 180.328 132.087H179.14L180.805 128.469L177.043 119.883H178.429C178.567 119.883 178.675 119.919 178.753 119.991C178.837 120.057 178.894 120.132 178.924 120.216L181.363 125.958C181.459 126.21 181.54 126.474 181.606 126.75C181.69 126.468 181.78 126.201 181.876 125.949L184.243 120.216C184.279 120.12 184.339 120.042 184.423 119.982C184.513 119.916 184.612 119.883 184.72 119.883H185.989ZM191.57 129V119.883H192.533C192.761 119.883 192.902 119.994 192.956 120.216L193.073 121.152C193.409 120.738 193.787 120.399 194.207 120.135C194.627 119.871 195.113 119.739 195.665 119.739C196.277 119.739 196.772 119.91 197.15 120.252C197.534 120.594 197.81 121.056 197.978 121.638C198.11 121.308 198.278 121.023 198.482 120.783C198.692 120.543 198.926 120.345 199.184 120.189C199.442 120.033 199.715 119.919 200.003 119.847C200.297 119.775 200.594 119.739 200.894 119.739C201.374 119.739 201.8 119.817 202.172 119.973C202.55 120.123 202.868 120.345 203.126 120.639C203.39 120.933 203.591 121.296 203.729 121.728C203.867 122.154 203.936 122.643 203.936 123.195V129H202.325V123.195C202.325 122.481 202.169 121.941 201.857 121.575C201.545 121.203 201.095 121.017 200.507 121.017C200.243 121.017 199.991 121.065 199.751 121.161C199.517 121.251 199.31 121.386 199.13 121.566C198.95 121.746 198.806 121.974 198.698 122.25C198.596 122.52 198.545 122.835 198.545 123.195V129H196.934V123.195C196.934 122.463 196.787 121.917 196.493 121.557C196.199 121.197 195.77 121.017 195.206 121.017C194.81 121.017 194.444 121.125 194.108 121.341C193.772 121.551 193.463 121.839 193.181 122.205V129H191.57ZM211.312 124.896C210.574 124.92 209.944 124.98 209.422 125.076C208.906 125.166 208.483 125.286 208.153 125.436C207.829 125.586 207.592 125.763 207.442 125.967C207.298 126.171 207.226 126.399 207.226 126.651C207.226 126.891 207.265 127.098 207.343 127.272C207.421 127.446 207.526 127.59 207.658 127.704C207.796 127.812 207.955 127.893 208.135 127.947C208.321 127.995 208.519 128.019 208.729 128.019C209.011 128.019 209.269 127.992 209.503 127.938C209.737 127.878 209.956 127.794 210.16 127.686C210.37 127.578 210.568 127.449 210.754 127.299C210.946 127.149 211.132 126.978 211.312 126.786V124.896ZM206.137 121.17C206.641 120.684 207.184 120.321 207.766 120.081C208.348 119.841 208.993 119.721 209.701 119.721C210.211 119.721 210.664 119.805 211.06 119.973C211.456 120.141 211.789 120.375 212.059 120.675C212.329 120.975 212.533 121.338 212.671 121.764C212.809 122.19 212.878 122.658 212.878 123.168V129H212.167C212.011 129 211.891 128.976 211.807 128.928C211.723 128.874 211.657 128.772 211.609 128.622L211.429 127.758C211.189 127.98 210.955 128.178 210.727 128.352C210.499 128.52 210.259 128.664 210.007 128.784C209.755 128.898 209.485 128.985 209.197 129.045C208.915 129.111 208.6 129.144 208.252 129.144C207.898 129.144 207.565 129.096 207.253 129C206.941 128.898 206.668 128.748 206.434 128.55C206.206 128.352 206.023 128.103 205.885 127.803C205.753 127.497 205.687 127.137 205.687 126.723C205.687 126.363 205.786 126.018 205.984 125.688C206.182 125.352 206.503 125.055 206.947 124.797C207.391 124.539 207.97 124.329 208.684 124.167C209.398 123.999 210.274 123.903 211.312 123.879V123.168C211.312 122.46 211.159 121.926 210.853 121.566C210.547 121.2 210.1 121.017 209.512 121.017C209.116 121.017 208.783 121.068 208.513 121.17C208.249 121.266 208.018 121.377 207.82 121.503C207.628 121.623 207.46 121.734 207.316 121.836C207.178 121.932 207.04 121.98 206.902 121.98C206.794 121.98 206.701 121.953 206.623 121.899C206.545 121.839 206.479 121.767 206.425 121.683L206.137 121.17ZM216.929 126.804C217.223 127.2 217.544 127.479 217.892 127.641C218.24 127.803 218.63 127.884 219.062 127.884C219.914 127.884 220.568 127.581 221.024 126.975C221.48 126.369 221.708 125.505 221.708 124.383C221.708 123.789 221.654 123.279 221.546 122.853C221.444 122.427 221.294 122.079 221.096 121.809C220.898 121.533 220.655 121.332 220.367 121.206C220.079 121.08 219.752 121.017 219.386 121.017C218.864 121.017 218.405 121.137 218.009 121.377C217.619 121.617 217.259 121.956 216.929 122.394V126.804ZM216.848 121.296C217.232 120.822 217.676 120.441 218.18 120.153C218.684 119.865 219.26 119.721 219.908 119.721C220.436 119.721 220.913 119.823 221.339 120.027C221.765 120.225 222.128 120.522 222.428 120.918C222.728 121.308 222.959 121.794 223.121 122.376C223.283 122.958 223.364 123.627 223.364 124.383C223.364 125.055 223.274 125.682 223.094 126.264C222.914 126.84 222.653 127.341 222.311 127.767C221.975 128.187 221.561 128.52 221.069 128.766C220.583 129.006 220.034 129.126 219.422 129.126C218.864 129.126 218.384 129.033 217.982 128.847C217.586 128.655 217.235 128.391 216.929 128.055V132.087H215.318V119.883H216.281C216.509 119.883 216.65 119.994 216.704 120.216L216.848 121.296Z" fill="#4F4F4F"/>
</svg>
