<svg width="166" height="105" viewBox="0 0 166 105" fill="none" xmlns="http://www.w3.org/2000/svg">
<path d="M14.5 4.86621V8.51604" stroke="#275B81" stroke-width="2" stroke-linecap="round" stroke-linejoin="round"/>
<path d="M14.5 20.6826V24.3324" stroke="#275B81" stroke-width="2" stroke-linecap="round" stroke-linejoin="round"/>
<path d="M7.25 7.2998L10.875 10.9496" stroke="#275B81" stroke-width="2" stroke-linecap="round" stroke-linejoin="round"/>
<path d="M18.125 18.249L21.75 21.8989" stroke="#275B81" stroke-width="2" stroke-linecap="round" stroke-linejoin="round"/>
<path d="M4.83325 14.5996H8.45825" stroke="#275B81" stroke-width="2" stroke-linecap="round" stroke-linejoin="round"/>
<path d="M20.5417 14.5996H24.1667" stroke="#275B81" stroke-width="2" stroke-linecap="round" stroke-linejoin="round"/>
<path d="M7.25 21.8989L10.875 18.249" stroke="#275B81" stroke-width="2" stroke-linecap="round" stroke-linejoin="round"/>
<path d="M18.125 10.9496L21.75 7.2998" stroke="#275B81" stroke-width="2" stroke-linecap="round" stroke-linejoin="round"/>
<path d="M47.656 9.008C47.544 10.368 47.488 11.584 47.488 12.656C47.488 13.408 47.512 14.016 47.56 14.48H47.008C46.688 12.672 46.208 11.4 45.568 10.664C44.928 9.928 44.032 9.56 42.88 9.56H42.088C41.592 9.56 41.232 9.6 41.008 9.68C40.784 9.76 40.632 9.92 40.552 10.16C40.472 10.384 40.432 10.752 40.432 11.264V17.312H41.272C42.12 17.312 42.76 17 43.192 16.376C43.64 15.752 43.952 15.008 44.128 14.144H44.68C44.632 14.816 44.608 15.568 44.608 16.4V17.552C44.608 18.368 44.656 19.504 44.752 20.96H44.2C43.864 18.848 42.888 17.792 41.272 17.792H40.432V23.312C40.432 23.952 40.496 24.424 40.624 24.728C40.768 25.016 41.008 25.208 41.344 25.304C41.696 25.4 42.248 25.456 43 25.472V26C41.032 25.952 39.568 25.928 38.608 25.928C37.808 25.928 36.8 25.944 35.584 25.976L34.816 26V25.52C35.344 25.488 35.728 25.424 35.968 25.328C36.224 25.232 36.392 25.048 36.472 24.776C36.568 24.504 36.616 24.064 36.616 23.456V11.552C36.616 10.944 36.568 10.504 36.472 10.232C36.392 9.96 36.224 9.776 35.968 9.68C35.728 9.584 35.344 9.52 34.816 9.488V9.008C36.544 9.056 39.152 9.08 42.64 9.08C44.992 9.08 46.664 9.056 47.656 9.008ZM51.8991 7.4C52.5711 7.4 53.0991 7.568 53.4831 7.904C53.8831 8.224 54.0831 8.672 54.0831 9.248C54.0831 9.824 53.8831 10.28 53.4831 10.616C53.0991 10.936 52.5711 11.096 51.8991 11.096C51.2271 11.096 50.6911 10.936 50.2911 10.616C49.9071 10.28 49.7151 9.824 49.7151 9.248C49.7151 8.672 49.9071 8.224 50.2911 7.904C50.6911 7.568 51.2271 7.4 51.8991 7.4ZM53.7711 23.768C53.7711 24.424 53.8831 24.88 54.1071 25.136C54.3471 25.376 54.7471 25.496 55.3071 25.496V26C53.7071 25.936 52.6431 25.904 52.1151 25.904C51.6191 25.904 50.5071 25.936 48.7791 26V25.496C49.3551 25.496 49.7551 25.376 49.9791 25.136C50.2031 24.88 50.3151 24.424 50.3151 23.768V16.208C50.3151 15.472 50.2031 14.936 49.9791 14.6C49.7551 14.264 49.3551 14.096 48.7791 14.096V13.592C49.2911 13.64 49.7871 13.664 50.2671 13.664C51.6911 13.664 52.8591 13.552 53.7711 13.328V23.768ZM65.2774 13.256C66.4934 13.256 67.3734 13.568 67.9174 14.192C68.1894 14.496 68.3814 14.888 68.4934 15.368C68.6054 15.848 68.6614 16.496 68.6614 17.312V23.768C68.6614 24.424 68.7734 24.88 68.9974 25.136C69.2374 25.376 69.6374 25.496 70.1974 25.496V26C68.5974 25.936 67.5414 25.904 67.0294 25.904C66.5494 25.904 65.5094 25.936 63.9094 26V25.496C64.3894 25.496 64.7254 25.376 64.9174 25.136C65.1094 24.88 65.2054 24.424 65.2054 23.768V16.304C65.2054 15.648 65.0934 15.152 64.8694 14.816C64.6614 14.48 64.2774 14.312 63.7174 14.312C63.0614 14.312 62.5014 14.584 62.0374 15.128C61.5734 15.656 61.3414 16.312 61.3414 17.096V23.768C61.3414 24.424 61.4374 24.88 61.6294 25.136C61.8214 25.376 62.1574 25.496 62.6374 25.496V26C61.1654 25.936 60.1734 25.904 59.6614 25.904C59.1814 25.904 58.0774 25.936 56.3494 26V25.496C56.9254 25.496 57.3254 25.376 57.5494 25.136C57.7734 24.88 57.8854 24.424 57.8854 23.768V16.208C57.8854 15.472 57.7734 14.936 57.5494 14.6C57.3254 14.264 56.9254 14.096 56.3494 14.096V13.592C56.8614 13.64 57.3574 13.664 57.8374 13.664C59.2614 13.664 60.4294 13.552 61.3414 13.328V15.488C62.0614 14 63.3734 13.256 65.2774 13.256ZM74.2596 26.168C73.2356 26.168 72.4676 25.904 71.9556 25.376C71.4596 24.848 71.2116 24.152 71.2116 23.288C71.2116 22.568 71.3956 21.976 71.7636 21.512C72.1476 21.032 72.6036 20.664 73.1316 20.408C73.6756 20.152 74.3636 19.88 75.1956 19.592C76.0756 19.288 76.7156 19.016 77.1156 18.776C77.5316 18.52 77.7396 18.176 77.7396 17.744V15.872C77.7396 15.2 77.5796 14.68 77.2596 14.312C76.9556 13.928 76.4756 13.736 75.8196 13.736C75.0516 13.736 74.4676 13.928 74.0676 14.312C74.5156 14.472 74.8596 14.712 75.0996 15.032C75.3556 15.352 75.4836 15.728 75.4836 16.16C75.4836 16.704 75.2996 17.136 74.9316 17.456C74.5636 17.776 74.1156 17.936 73.5876 17.936C73.0276 17.936 72.5956 17.76 72.2916 17.408C71.9876 17.056 71.8356 16.616 71.8356 16.088C71.8356 15.64 71.9396 15.264 72.1476 14.96C72.3716 14.64 72.7076 14.344 73.1556 14.072C73.5876 13.816 74.1156 13.616 74.7396 13.472C75.3796 13.328 76.0756 13.256 76.8276 13.256C77.6116 13.256 78.2916 13.336 78.8676 13.496C79.4436 13.656 79.9236 13.928 80.3076 14.312C80.6596 14.664 80.8916 15.096 81.0036 15.608C81.1316 16.12 81.1956 16.816 81.1956 17.696V24.224C81.1956 24.608 81.2276 24.88 81.2916 25.04C81.3716 25.2 81.5156 25.28 81.7236 25.28C81.9636 25.28 82.2516 25.144 82.5876 24.872L82.8276 25.28C82.1076 25.872 81.2276 26.168 80.1876 26.168C79.3076 26.168 78.6916 25.992 78.3396 25.64C77.9876 25.288 77.8036 24.816 77.7876 24.224C76.9876 25.52 75.8116 26.168 74.2596 26.168ZM76.1076 24.632C76.7316 24.632 77.2756 24.304 77.7396 23.648V18.728C77.5476 19.048 77.1396 19.4 76.5156 19.784C75.8916 20.184 75.4196 20.584 75.0996 20.984C74.7796 21.384 74.6196 21.96 74.6196 22.712C74.6196 23.368 74.7556 23.856 75.0276 24.176C75.2996 24.48 75.6596 24.632 76.1076 24.632ZM88.4095 23.768C88.4095 24.424 88.5215 24.88 88.7455 25.136C88.9695 25.376 89.3695 25.496 89.9455 25.496V26C88.2815 25.936 87.2095 25.904 86.7295 25.904C86.1855 25.904 85.0815 25.936 83.4175 26V25.496C83.9775 25.496 84.3695 25.376 84.5935 25.136C84.8335 24.88 84.9535 24.424 84.9535 23.768V10.088C84.9535 9.352 84.8335 8.816 84.5935 8.48C84.3695 8.144 83.9775 7.976 83.4175 7.976V7.472C83.9295 7.52 84.4255 7.544 84.9055 7.544C86.2975 7.544 87.4655 7.432 88.4095 7.208V23.768ZM95.7186 13.256C96.3266 13.256 96.8866 13.336 97.3986 13.496C97.9106 13.64 98.3026 13.808 98.5746 14C98.7346 14.112 98.8786 14.168 99.0066 14.168C99.1506 14.168 99.2706 14.096 99.3666 13.952C99.4786 13.792 99.5506 13.568 99.5826 13.28H100.087C100.023 14.096 99.9906 15.504 99.9906 17.504H99.4866C99.3426 16.448 99.0226 15.568 98.5266 14.864C98.0466 14.144 97.3426 13.784 96.4146 13.784C95.9346 13.784 95.5346 13.92 95.2146 14.192C94.9106 14.464 94.7586 14.84 94.7586 15.32C94.7586 15.864 94.9426 16.336 95.3106 16.736C95.6786 17.12 96.2546 17.592 97.0386 18.152L97.7346 18.656C98.7106 19.392 99.4306 20.048 99.8946 20.624C100.359 21.2 100.591 21.92 100.591 22.784C100.591 23.488 100.383 24.112 99.9666 24.656C99.5666 25.2 99.0226 25.616 98.3346 25.904C97.6466 26.192 96.8866 26.336 96.0546 26.336C95.1746 26.336 94.4226 26.168 93.7986 25.832C93.2866 25.576 92.9186 25.408 92.6946 25.328C92.5346 25.28 92.3906 25.336 92.2626 25.496C92.1506 25.64 92.0626 25.864 91.9986 26.168H91.4946C91.5586 25.256 91.5906 23.656 91.5906 21.368H92.0946C92.4146 24.312 93.4946 25.784 95.3346 25.784C95.7986 25.784 96.1906 25.648 96.5106 25.376C96.8466 25.088 97.0146 24.656 97.0146 24.08C97.0146 23.632 96.9106 23.232 96.7026 22.88C96.5106 22.528 96.2626 22.216 95.9586 21.944C95.6546 21.672 95.1986 21.296 94.5906 20.816C93.8706 20.24 93.3186 19.776 92.9346 19.424C92.5666 19.072 92.2466 18.656 91.9746 18.176C91.7186 17.696 91.5906 17.16 91.5906 16.568C91.5906 15.544 91.9906 14.736 92.7906 14.144C93.5906 13.552 94.5666 13.256 95.7186 13.256Z" fill="#275B81"/>
<path d="M40.174 59.614C40.672 59.614 41.101 59.557 41.461 59.443C41.821 59.329 42.115 59.17 42.343 58.966C42.577 58.756 42.748 58.51 42.856 58.228C42.964 57.94 43.018 57.625 43.018 57.283C43.018 56.617 42.781 56.092 42.307 55.708C41.833 55.318 41.122 55.123 40.174 55.123H37.384V59.614H40.174ZM37.384 49.48V53.881H39.688C40.18 53.881 40.606 53.827 40.966 53.719C41.332 53.611 41.632 53.461 41.866 53.269C42.106 53.077 42.283 52.846 42.397 52.576C42.511 52.3 42.568 52 42.568 51.676C42.568 50.914 42.34 50.359 41.884 50.011C41.428 49.657 40.72 49.48 39.76 49.48H37.384ZM39.76 48.103C40.552 48.103 41.233 48.181 41.803 48.337C42.379 48.493 42.85 48.715 43.216 49.003C43.588 49.291 43.861 49.645 44.035 50.065C44.209 50.479 44.296 50.947 44.296 51.469C44.296 51.787 44.245 52.093 44.143 52.387C44.047 52.675 43.9 52.945 43.702 53.197C43.504 53.449 43.252 53.677 42.946 53.881C42.646 54.079 42.292 54.241 41.884 54.367C42.832 54.547 43.543 54.886 44.017 55.384C44.497 55.876 44.737 56.524 44.737 57.328C44.737 57.874 44.635 58.372 44.431 58.822C44.233 59.272 43.939 59.659 43.549 59.983C43.165 60.307 42.691 60.559 42.127 60.739C41.563 60.913 40.921 61 40.201 61H35.647V48.103H39.76ZM48.2334 53.71C48.5214 53.086 48.8754 52.6 49.2954 52.252C49.7154 51.898 50.2284 51.721 50.8344 51.721C51.0264 51.721 51.2094 51.742 51.3834 51.784C51.5634 51.826 51.7224 51.892 51.8604 51.982L51.7434 53.179C51.7074 53.329 51.6174 53.404 51.4734 53.404C51.3894 53.404 51.2664 53.386 51.1044 53.35C50.9424 53.314 50.7594 53.296 50.5554 53.296C50.2674 53.296 50.0094 53.338 49.7814 53.422C49.5594 53.506 49.3584 53.632 49.1784 53.8C49.0044 53.962 48.8454 54.166 48.7014 54.412C48.5634 54.652 48.4374 54.928 48.3234 55.24V61H46.7124V51.883H47.6304C47.8044 51.883 47.9244 51.916 47.9904 51.982C48.0564 52.048 48.1014 52.162 48.1254 52.324L48.2334 53.71ZM58.0694 56.896C57.3314 56.92 56.7014 56.98 56.1794 57.076C55.6634 57.166 55.2404 57.286 54.9104 57.436C54.5864 57.586 54.3494 57.763 54.1994 57.967C54.0554 58.171 53.9834 58.399 53.9834 58.651C53.9834 58.891 54.0224 59.098 54.1004 59.272C54.1784 59.446 54.2834 59.59 54.4154 59.704C54.5534 59.812 54.7124 59.893 54.8924 59.947C55.0784 59.995 55.2764 60.019 55.4864 60.019C55.7684 60.019 56.0264 59.992 56.2604 59.938C56.4944 59.878 56.7134 59.794 56.9174 59.686C57.1274 59.578 57.3254 59.449 57.5114 59.299C57.7034 59.149 57.8894 58.978 58.0694 58.786V56.896ZM52.8944 53.17C53.3984 52.684 53.9414 52.321 54.5234 52.081C55.1054 51.841 55.7504 51.721 56.4584 51.721C56.9684 51.721 57.4214 51.805 57.8174 51.973C58.2134 52.141 58.5464 52.375 58.8164 52.675C59.0864 52.975 59.2904 53.338 59.4284 53.764C59.5664 54.19 59.6354 54.658 59.6354 55.168V61H58.9244C58.7684 61 58.6484 60.976 58.5644 60.928C58.4804 60.874 58.4144 60.772 58.3664 60.622L58.1864 59.758C57.9464 59.98 57.7124 60.178 57.4844 60.352C57.2564 60.52 57.0164 60.664 56.7644 60.784C56.5124 60.898 56.2424 60.985 55.9544 61.045C55.6724 61.111 55.3574 61.144 55.0094 61.144C54.6554 61.144 54.3224 61.096 54.0104 61C53.6984 60.898 53.4254 60.748 53.1914 60.55C52.9634 60.352 52.7804 60.103 52.6424 59.803C52.5104 59.497 52.4444 59.137 52.4444 58.723C52.4444 58.363 52.5434 58.018 52.7414 57.688C52.9394 57.352 53.2604 57.055 53.7044 56.797C54.1484 56.539 54.7274 56.329 55.4414 56.167C56.1554 55.999 57.0314 55.903 58.0694 55.879V55.168C58.0694 54.46 57.9164 53.926 57.6104 53.566C57.3044 53.2 56.8574 53.017 56.2694 53.017C55.8734 53.017 55.5404 53.068 55.2704 53.17C55.0064 53.266 54.7754 53.377 54.5774 53.503C54.3854 53.623 54.2174 53.734 54.0734 53.836C53.9354 53.932 53.7974 53.98 53.6594 53.98C53.5514 53.98 53.4584 53.953 53.3804 53.899C53.3024 53.839 53.2364 53.767 53.1824 53.683L52.8944 53.17ZM63.5876 53.206C63.7856 52.984 63.9956 52.783 64.2176 52.603C64.4396 52.423 64.6736 52.27 64.9196 52.144C65.1716 52.012 65.4356 51.913 65.7116 51.847C65.9936 51.775 66.2966 51.739 66.6206 51.739C67.1186 51.739 67.5566 51.823 67.9346 51.991C68.3186 52.153 68.6366 52.387 68.8886 52.693C69.1466 52.993 69.3416 53.356 69.4736 53.782C69.6056 54.208 69.6716 54.679 69.6716 55.195V61H68.0606V55.195C68.0606 54.505 67.9016 53.971 67.5836 53.593C67.2716 53.209 66.7946 53.017 66.1526 53.017C65.6786 53.017 65.2346 53.131 64.8206 53.359C64.4126 53.587 64.0346 53.896 63.6866 54.286V61H62.0756V51.883H63.0386C63.2666 51.883 63.4076 51.994 63.4616 52.216L63.5876 53.206ZM78.0528 54.052C77.7528 53.65 77.4288 53.371 77.0808 53.215C76.7328 53.053 76.3428 52.972 75.9108 52.972C75.0648 52.972 74.4138 53.275 73.9578 53.881C73.5018 54.487 73.2738 55.351 73.2738 56.473C73.2738 57.067 73.3248 57.577 73.4268 58.003C73.5288 58.423 73.6788 58.771 73.8768 59.047C74.0748 59.317 74.3178 59.515 74.6058 59.641C74.8938 59.767 75.2208 59.83 75.5868 59.83C76.1148 59.83 76.5738 59.71 76.9638 59.47C77.3598 59.23 77.7228 58.891 78.0528 58.453V54.052ZM79.6548 47.743V61H78.7008C78.4728 61 78.3288 60.889 78.2688 60.667L78.1248 59.56C77.7348 60.028 77.2908 60.406 76.7928 60.694C76.2948 60.982 75.7188 61.126 75.0648 61.126C74.5428 61.126 74.0688 61.027 73.6428 60.829C73.2168 60.625 72.8538 60.328 72.5538 59.938C72.2538 59.548 72.0228 59.062 71.8608 58.48C71.6988 57.898 71.6178 57.229 71.6178 56.473C71.6178 55.801 71.7078 55.177 71.8878 54.601C72.0678 54.019 72.3258 53.515 72.6618 53.089C72.9978 52.663 73.4088 52.33 73.8948 52.09C74.3868 51.844 74.9388 51.721 75.5508 51.721C76.1088 51.721 76.5858 51.817 76.9818 52.009C77.3838 52.195 77.7408 52.456 78.0528 52.792V47.743H79.6548ZM83.877 51.883V61H82.275V51.883H83.877ZM84.219 49.021C84.219 49.177 84.186 49.324 84.12 49.462C84.06 49.594 83.976 49.714 83.868 49.822C83.766 49.924 83.643 50.005 83.499 50.065C83.361 50.125 83.214 50.155 83.058 50.155C82.902 50.155 82.755 50.125 82.617 50.065C82.485 50.005 82.368 49.924 82.266 49.822C82.164 49.714 82.083 49.594 82.023 49.462C81.963 49.324 81.933 49.177 81.933 49.021C81.933 48.865 81.963 48.718 82.023 48.58C82.083 48.436 82.164 48.313 82.266 48.211C82.368 48.103 82.485 48.019 82.617 47.959C82.755 47.899 82.902 47.869 83.058 47.869C83.214 47.869 83.361 47.899 83.499 47.959C83.643 48.019 83.766 48.103 83.868 48.211C83.976 48.313 84.06 48.436 84.12 48.58C84.186 48.718 84.219 48.865 84.219 49.021ZM88.0212 53.206C88.2192 52.984 88.4292 52.783 88.6512 52.603C88.8732 52.423 89.1072 52.27 89.3532 52.144C89.6052 52.012 89.8692 51.913 90.1452 51.847C90.4272 51.775 90.7302 51.739 91.0542 51.739C91.5522 51.739 91.9902 51.823 92.3682 51.991C92.7522 52.153 93.0702 52.387 93.3222 52.693C93.5802 52.993 93.7752 53.356 93.9072 53.782C94.0392 54.208 94.1052 54.679 94.1052 55.195V61H92.4942V55.195C92.4942 54.505 92.3352 53.971 92.0172 53.593C91.7052 53.209 91.2282 53.017 90.5862 53.017C90.1122 53.017 89.6682 53.131 89.2542 53.359C88.8462 53.587 88.4682 53.896 88.1202 54.286V61H86.5092V51.883H87.4722C87.7002 51.883 87.8412 51.994 87.8952 52.216L88.0212 53.206ZM99.7233 56.545C100.047 56.545 100.332 56.5 100.578 56.41C100.824 56.32 101.031 56.194 101.199 56.032C101.367 55.87 101.493 55.678 101.577 55.456C101.661 55.228 101.703 54.979 101.703 54.709C101.703 54.151 101.532 53.707 101.19 53.377C100.854 53.047 100.365 52.882 99.7233 52.882C99.0753 52.882 98.5803 53.047 98.2383 53.377C97.9023 53.707 97.7343 54.151 97.7343 54.709C97.7343 54.979 97.7763 55.228 97.8603 55.456C97.9503 55.678 98.0793 55.87 98.2473 56.032C98.4153 56.194 98.6223 56.32 98.8683 56.41C99.1143 56.5 99.3993 56.545 99.7233 56.545ZM102.612 61.495C102.612 61.273 102.549 61.093 102.423 60.955C102.297 60.817 102.126 60.709 101.91 60.631C101.7 60.553 101.454 60.499 101.172 60.469C100.89 60.433 100.59 60.406 100.272 60.388C99.9603 60.37 99.6423 60.352 99.3183 60.334C98.9943 60.316 98.6823 60.286 98.3823 60.244C98.0463 60.4 97.7703 60.598 97.5543 60.838C97.3443 61.072 97.2393 61.348 97.2393 61.666C97.2393 61.87 97.2903 62.059 97.3923 62.233C97.5003 62.413 97.6623 62.566 97.8783 62.692C98.0943 62.824 98.3643 62.926 98.6883 62.998C99.0183 63.076 99.4053 63.115 99.8493 63.115C100.281 63.115 100.668 63.076 101.01 62.998C101.352 62.92 101.64 62.809 101.874 62.665C102.114 62.521 102.297 62.35 102.423 62.152C102.549 61.954 102.612 61.735 102.612 61.495ZM104.241 52.243V52.837C104.241 53.035 104.115 53.161 103.863 53.215L102.828 53.35C103.032 53.746 103.134 54.184 103.134 54.664C103.134 55.108 103.047 55.513 102.873 55.879C102.705 56.239 102.471 56.548 102.171 56.806C101.871 57.064 101.511 57.262 101.091 57.4C100.671 57.538 100.215 57.607 99.7233 57.607C99.2973 57.607 98.8953 57.556 98.5173 57.454C98.3253 57.574 98.1783 57.703 98.0763 57.841C97.9743 57.973 97.9233 58.108 97.9233 58.246C97.9233 58.462 98.0103 58.627 98.1843 58.741C98.3643 58.849 98.5983 58.927 98.8863 58.975C99.1743 59.023 99.5013 59.053 99.8673 59.065C100.239 59.077 100.617 59.098 101.001 59.128C101.391 59.152 101.769 59.197 102.135 59.263C102.507 59.329 102.837 59.437 103.125 59.587C103.413 59.737 103.644 59.944 103.818 60.208C103.998 60.472 104.088 60.814 104.088 61.234C104.088 61.624 103.989 62.002 103.791 62.368C103.599 62.734 103.32 63.058 102.954 63.34C102.588 63.628 102.138 63.856 101.604 64.024C101.076 64.198 100.479 64.285 99.8133 64.285C99.1473 64.285 98.5653 64.219 98.0673 64.087C97.5693 63.955 97.1553 63.778 96.8253 63.556C96.4953 63.334 96.2463 63.076 96.0783 62.782C95.9163 62.494 95.8353 62.191 95.8353 61.873C95.8353 61.423 95.9763 61.042 96.2583 60.73C96.5403 60.418 96.9273 60.169 97.4193 59.983C97.1493 59.863 96.9333 59.704 96.7713 59.506C96.6153 59.302 96.5373 59.029 96.5373 58.687C96.5373 58.555 96.5613 58.42 96.6093 58.282C96.6573 58.138 96.7293 57.997 96.8253 57.859C96.9273 57.715 97.0503 57.58 97.1943 57.454C97.3383 57.328 97.5063 57.217 97.6983 57.121C97.2483 56.869 96.8973 56.536 96.6453 56.122C96.3933 55.702 96.2673 55.216 96.2673 54.664C96.2673 54.22 96.3513 53.818 96.5193 53.458C96.6933 53.092 96.9333 52.783 97.2393 52.531C97.5453 52.273 97.9083 52.075 98.3283 51.937C98.7543 51.799 99.2193 51.73 99.7233 51.73C100.119 51.73 100.488 51.775 100.83 51.865C101.172 51.949 101.484 52.075 101.766 52.243H104.241ZM113.68 56.545C114.004 56.545 114.289 56.5 114.535 56.41C114.781 56.32 114.988 56.194 115.156 56.032C115.324 55.87 115.45 55.678 115.534 55.456C115.618 55.228 115.66 54.979 115.66 54.709C115.66 54.151 115.489 53.707 115.147 53.377C114.811 53.047 114.322 52.882 113.68 52.882C113.032 52.882 112.537 53.047 112.195 53.377C111.859 53.707 111.691 54.151 111.691 54.709C111.691 54.979 111.733 55.228 111.817 55.456C111.907 55.678 112.036 55.87 112.204 56.032C112.372 56.194 112.579 56.32 112.825 56.41C113.071 56.5 113.356 56.545 113.68 56.545ZM116.569 61.495C116.569 61.273 116.506 61.093 116.38 60.955C116.254 60.817 116.083 60.709 115.867 60.631C115.657 60.553 115.411 60.499 115.129 60.469C114.847 60.433 114.547 60.406 114.229 60.388C113.917 60.37 113.599 60.352 113.275 60.334C112.951 60.316 112.639 60.286 112.339 60.244C112.003 60.4 111.727 60.598 111.511 60.838C111.301 61.072 111.196 61.348 111.196 61.666C111.196 61.87 111.247 62.059 111.349 62.233C111.457 62.413 111.619 62.566 111.835 62.692C112.051 62.824 112.321 62.926 112.645 62.998C112.975 63.076 113.362 63.115 113.806 63.115C114.238 63.115 114.625 63.076 114.967 62.998C115.309 62.92 115.597 62.809 115.831 62.665C116.071 62.521 116.254 62.35 116.38 62.152C116.506 61.954 116.569 61.735 116.569 61.495ZM118.198 52.243V52.837C118.198 53.035 118.072 53.161 117.82 53.215L116.785 53.35C116.989 53.746 117.091 54.184 117.091 54.664C117.091 55.108 117.004 55.513 116.83 55.879C116.662 56.239 116.428 56.548 116.128 56.806C115.828 57.064 115.468 57.262 115.048 57.4C114.628 57.538 114.172 57.607 113.68 57.607C113.254 57.607 112.852 57.556 112.474 57.454C112.282 57.574 112.135 57.703 112.033 57.841C111.931 57.973 111.88 58.108 111.88 58.246C111.88 58.462 111.967 58.627 112.141 58.741C112.321 58.849 112.555 58.927 112.843 58.975C113.131 59.023 113.458 59.053 113.824 59.065C114.196 59.077 114.574 59.098 114.958 59.128C115.348 59.152 115.726 59.197 116.092 59.263C116.464 59.329 116.794 59.437 117.082 59.587C117.37 59.737 117.601 59.944 117.775 60.208C117.955 60.472 118.045 60.814 118.045 61.234C118.045 61.624 117.946 62.002 117.748 62.368C117.556 62.734 117.277 63.058 116.911 63.34C116.545 63.628 116.095 63.856 115.561 64.024C115.033 64.198 114.436 64.285 113.77 64.285C113.104 64.285 112.522 64.219 112.024 64.087C111.526 63.955 111.112 63.778 110.782 63.556C110.452 63.334 110.203 63.076 110.035 62.782C109.873 62.494 109.792 62.191 109.792 61.873C109.792 61.423 109.933 61.042 110.215 60.73C110.497 60.418 110.884 60.169 111.376 59.983C111.106 59.863 110.89 59.704 110.728 59.506C110.572 59.302 110.494 59.029 110.494 58.687C110.494 58.555 110.518 58.42 110.566 58.282C110.614 58.138 110.686 57.997 110.782 57.859C110.884 57.715 111.007 57.58 111.151 57.454C111.295 57.328 111.463 57.217 111.655 57.121C111.205 56.869 110.854 56.536 110.602 56.122C110.35 55.702 110.224 55.216 110.224 54.664C110.224 54.22 110.308 53.818 110.476 53.458C110.65 53.092 110.89 52.783 111.196 52.531C111.502 52.273 111.865 52.075 112.285 51.937C112.711 51.799 113.176 51.73 113.68 51.73C114.076 51.73 114.445 51.775 114.787 51.865C115.129 51.949 115.441 52.075 115.723 52.243H118.198ZM127.352 51.883V61H126.398C126.17 61 126.026 60.889 125.966 60.667L125.84 59.686C125.444 60.124 125 60.478 124.508 60.748C124.016 61.012 123.452 61.144 122.816 61.144C122.318 61.144 121.877 61.063 121.493 60.901C121.115 60.733 120.797 60.499 120.539 60.199C120.281 59.899 120.086 59.536 119.954 59.11C119.828 58.684 119.765 58.213 119.765 57.697V51.883H121.367V57.697C121.367 58.387 121.523 58.921 121.835 59.299C122.153 59.677 122.636 59.866 123.284 59.866C123.758 59.866 124.199 59.755 124.607 59.533C125.021 59.305 125.402 58.993 125.75 58.597V51.883H127.352ZM131.584 51.883V61H129.982V51.883H131.584ZM131.926 49.021C131.926 49.177 131.893 49.324 131.827 49.462C131.767 49.594 131.683 49.714 131.575 49.822C131.473 49.924 131.35 50.005 131.206 50.065C131.068 50.125 130.921 50.155 130.765 50.155C130.609 50.155 130.462 50.125 130.324 50.065C130.192 50.005 130.075 49.924 129.973 49.822C129.871 49.714 129.79 49.594 129.73 49.462C129.67 49.324 129.64 49.177 129.64 49.021C129.64 48.865 129.67 48.718 129.73 48.58C129.79 48.436 129.871 48.313 129.973 48.211C130.075 48.103 130.192 48.019 130.324 47.959C130.462 47.899 130.609 47.869 130.765 47.869C130.921 47.869 131.068 47.899 131.206 47.959C131.35 48.019 131.473 48.103 131.575 48.211C131.683 48.313 131.767 48.436 131.827 48.58C131.893 48.718 131.926 48.865 131.926 49.021ZM140.156 54.052C139.856 53.65 139.532 53.371 139.184 53.215C138.836 53.053 138.446 52.972 138.014 52.972C137.168 52.972 136.517 53.275 136.061 53.881C135.605 54.487 135.377 55.351 135.377 56.473C135.377 57.067 135.428 57.577 135.53 58.003C135.632 58.423 135.782 58.771 135.98 59.047C136.178 59.317 136.421 59.515 136.709 59.641C136.997 59.767 137.324 59.83 137.69 59.83C138.218 59.83 138.677 59.71 139.067 59.47C139.463 59.23 139.826 58.891 140.156 58.453V54.052ZM141.758 47.743V61H140.804C140.576 61 140.432 60.889 140.372 60.667L140.228 59.56C139.838 60.028 139.394 60.406 138.896 60.694C138.398 60.982 137.822 61.126 137.168 61.126C136.646 61.126 136.172 61.027 135.746 60.829C135.32 60.625 134.957 60.328 134.657 59.938C134.357 59.548 134.126 59.062 133.964 58.48C133.802 57.898 133.721 57.229 133.721 56.473C133.721 55.801 133.811 55.177 133.991 54.601C134.171 54.019 134.429 53.515 134.765 53.089C135.101 52.663 135.512 52.33 135.998 52.09C136.49 51.844 137.042 51.721 137.654 51.721C138.212 51.721 138.689 51.817 139.085 52.009C139.487 52.195 139.844 52.456 140.156 52.792V47.743H141.758ZM150.391 55.447C150.391 55.075 150.337 54.736 150.229 54.43C150.127 54.118 149.974 53.851 149.77 53.629C149.572 53.401 149.329 53.227 149.041 53.107C148.753 52.981 148.426 52.918 148.06 52.918C147.292 52.918 146.683 53.143 146.233 53.593C145.789 54.037 145.513 54.655 145.405 55.447H150.391ZM151.687 59.722C151.489 59.962 151.252 60.172 150.976 60.352C150.7 60.526 150.403 60.67 150.085 60.784C149.773 60.898 149.449 60.982 149.113 61.036C148.777 61.096 148.444 61.126 148.114 61.126C147.484 61.126 146.902 61.021 146.368 60.811C145.84 60.595 145.381 60.283 144.991 59.875C144.607 59.461 144.307 58.951 144.091 58.345C143.875 57.739 143.767 57.043 143.767 56.257C143.767 55.621 143.863 55.027 144.055 54.475C144.253 53.923 144.535 53.446 144.901 53.044C145.267 52.636 145.714 52.318 146.242 52.09C146.77 51.856 147.364 51.739 148.024 51.739C148.57 51.739 149.074 51.832 149.536 52.018C150.004 52.198 150.406 52.462 150.742 52.81C151.084 53.152 151.351 53.578 151.543 54.088C151.735 54.592 151.831 55.168 151.831 55.816C151.831 56.068 151.804 56.236 151.75 56.32C151.696 56.404 151.594 56.446 151.444 56.446H145.351C145.369 57.022 145.447 57.523 145.585 57.949C145.729 58.375 145.927 58.732 146.179 59.02C146.431 59.302 146.731 59.515 147.079 59.659C147.427 59.797 147.817 59.866 148.249 59.866C148.651 59.866 148.996 59.821 149.284 59.731C149.578 59.635 149.83 59.533 150.04 59.425C150.25 59.317 150.424 59.218 150.562 59.128C150.706 59.032 150.829 58.984 150.931 58.984C151.063 58.984 151.165 59.035 151.237 59.137L151.687 59.722ZM37.393 83.525V88.034H42.694V89.456H37.393V95H35.647V82.103H43.594V83.525H37.393ZM47.1036 85.883V95H45.5016V85.883H47.1036ZM47.4456 83.021C47.4456 83.177 47.4126 83.324 47.3466 83.462C47.2866 83.594 47.2026 83.714 47.0946 83.822C46.9926 83.924 46.8696 84.005 46.7256 84.065C46.5876 84.125 46.4406 84.155 46.2846 84.155C46.1286 84.155 45.9816 84.125 45.8436 84.065C45.7116 84.005 45.5946 83.924 45.4926 83.822C45.3906 83.714 45.3096 83.594 45.2496 83.462C45.1896 83.324 45.1596 83.177 45.1596 83.021C45.1596 82.865 45.1896 82.718 45.2496 82.58C45.3096 82.436 45.3906 82.313 45.4926 82.211C45.5946 82.103 45.7116 82.019 45.8436 81.959C45.9816 81.899 46.1286 81.869 46.2846 81.869C46.4406 81.869 46.5876 81.899 46.7256 81.959C46.8696 82.019 46.9926 82.103 47.0946 82.211C47.2026 82.313 47.2866 82.436 47.3466 82.58C47.4126 82.718 47.4456 82.865 47.4456 83.021ZM51.2478 87.206C51.4458 86.984 51.6558 86.783 51.8778 86.603C52.0998 86.423 52.3338 86.27 52.5798 86.144C52.8318 86.012 53.0958 85.913 53.3718 85.847C53.6538 85.775 53.9568 85.739 54.2808 85.739C54.7788 85.739 55.2168 85.823 55.5948 85.991C55.9788 86.153 56.2968 86.387 56.5488 86.693C56.8068 86.993 57.0018 87.356 57.1338 87.782C57.2658 88.208 57.3318 88.679 57.3318 89.195V95H55.7208V89.195C55.7208 88.505 55.5618 87.971 55.2438 87.593C54.9318 87.209 54.4548 87.017 53.8128 87.017C53.3388 87.017 52.8948 87.131 52.4808 87.359C52.0728 87.587 51.6948 87.896 51.3468 88.286V95H49.7358V85.883H50.6988C50.9268 85.883 51.0678 85.994 51.1218 86.216L51.2478 87.206ZM64.7139 90.896C63.9759 90.92 63.3459 90.98 62.8239 91.076C62.3079 91.166 61.8849 91.286 61.5549 91.436C61.2309 91.586 60.9939 91.763 60.8439 91.967C60.6999 92.171 60.6279 92.399 60.6279 92.651C60.6279 92.891 60.6669 93.098 60.7449 93.272C60.8229 93.446 60.9279 93.59 61.0599 93.704C61.1979 93.812 61.3569 93.893 61.5369 93.947C61.7229 93.995 61.9209 94.019 62.1309 94.019C62.4129 94.019 62.6709 93.992 62.9049 93.938C63.1389 93.878 63.3579 93.794 63.5619 93.686C63.7719 93.578 63.9699 93.449 64.1559 93.299C64.3479 93.149 64.5339 92.978 64.7139 92.786V90.896ZM59.5389 87.17C60.0429 86.684 60.5859 86.321 61.1679 86.081C61.7499 85.841 62.3949 85.721 63.1029 85.721C63.6129 85.721 64.0659 85.805 64.4619 85.973C64.8579 86.141 65.1909 86.375 65.4609 86.675C65.7309 86.975 65.9349 87.338 66.0729 87.764C66.2109 88.19 66.2799 88.658 66.2799 89.168V95H65.5689C65.4129 95 65.2929 94.976 65.2089 94.928C65.1249 94.874 65.0589 94.772 65.0109 94.622L64.8309 93.758C64.5909 93.98 64.3569 94.178 64.1289 94.352C63.9009 94.52 63.6609 94.664 63.4089 94.784C63.1569 94.898 62.8869 94.985 62.5989 95.045C62.3169 95.111 62.0019 95.144 61.6539 95.144C61.2999 95.144 60.9669 95.096 60.6549 95C60.3429 94.898 60.0699 94.748 59.8359 94.55C59.6079 94.352 59.4249 94.103 59.2869 93.803C59.1549 93.497 59.0889 93.137 59.0889 92.723C59.0889 92.363 59.1879 92.018 59.3859 91.688C59.5839 91.352 59.9049 91.055 60.3489 90.797C60.7929 90.539 61.3719 90.329 62.0859 90.167C62.7999 89.999 63.6759 89.903 64.7139 89.879V89.168C64.7139 88.46 64.5609 87.926 64.2549 87.566C63.9489 87.2 63.5019 87.017 62.9139 87.017C62.5179 87.017 62.1849 87.068 61.9149 87.17C61.6509 87.266 61.4199 87.377 61.2219 87.503C61.0299 87.623 60.8619 87.734 60.7179 87.836C60.5799 87.932 60.4419 87.98 60.3039 87.98C60.1959 87.98 60.1029 87.953 60.0249 87.899C59.9469 87.839 59.8809 87.767 59.8269 87.683L59.5389 87.17ZM70.3762 81.743V95H68.7742V81.743H70.3762ZM79.1905 92.804C79.4845 93.2 79.8055 93.479 80.1535 93.641C80.5015 93.803 80.8915 93.884 81.3235 93.884C82.1755 93.884 82.8295 93.581 83.2855 92.975C83.7415 92.369 83.9695 91.505 83.9695 90.383C83.9695 89.789 83.9155 89.279 83.8075 88.853C83.7055 88.427 83.5555 88.079 83.3575 87.809C83.1595 87.533 82.9165 87.332 82.6285 87.206C82.3405 87.08 82.0135 87.017 81.6475 87.017C81.1255 87.017 80.6665 87.137 80.2705 87.377C79.8805 87.617 79.5205 87.956 79.1905 88.394V92.804ZM79.1095 87.296C79.4935 86.822 79.9375 86.441 80.4415 86.153C80.9455 85.865 81.5215 85.721 82.1695 85.721C82.6975 85.721 83.1745 85.823 83.6005 86.027C84.0265 86.225 84.3895 86.522 84.6895 86.918C84.9895 87.308 85.2205 87.794 85.3825 88.376C85.5445 88.958 85.6255 89.627 85.6255 90.383C85.6255 91.055 85.5355 91.682 85.3555 92.264C85.1755 92.84 84.9145 93.341 84.5725 93.767C84.2365 94.187 83.8225 94.52 83.3305 94.766C82.8445 95.006 82.2955 95.126 81.6835 95.126C81.1255 95.126 80.6455 95.033 80.2435 94.847C79.8475 94.655 79.4965 94.391 79.1905 94.055V98.087H77.5795V85.883H78.5425C78.7705 85.883 78.9115 85.994 78.9655 86.216L79.1095 87.296ZM89.1904 87.71C89.4784 87.086 89.8324 86.6 90.2524 86.252C90.6724 85.898 91.1854 85.721 91.7914 85.721C91.9834 85.721 92.1664 85.742 92.3404 85.784C92.5204 85.826 92.6794 85.892 92.8174 85.982L92.7004 87.179C92.6644 87.329 92.5744 87.404 92.4304 87.404C92.3464 87.404 92.2234 87.386 92.0614 87.35C91.8994 87.314 91.7164 87.296 91.5124 87.296C91.2244 87.296 90.9664 87.338 90.7384 87.422C90.5164 87.506 90.3154 87.632 90.1354 87.8C89.9614 87.962 89.8024 88.166 89.6584 88.412C89.5204 88.652 89.3944 88.928 89.2804 89.24V95H87.6694V85.883H88.5874C88.7614 85.883 88.8814 85.916 88.9474 85.982C89.0134 86.048 89.0584 86.162 89.0824 86.324L89.1904 87.71ZM97.6999 85.739C98.3659 85.739 98.9659 85.85 99.4999 86.072C100.034 86.294 100.49 86.609 100.868 87.017C101.246 87.425 101.534 87.92 101.732 88.502C101.936 89.078 102.038 89.723 102.038 90.437C102.038 91.157 101.936 91.805 101.732 92.381C101.534 92.957 101.246 93.449 100.868 93.857C100.49 94.265 100.034 94.58 99.4999 94.802C98.9659 95.018 98.3659 95.126 97.6999 95.126C97.0279 95.126 96.4219 95.018 95.8819 94.802C95.3479 94.58 94.8919 94.265 94.5139 93.857C94.1359 93.449 93.8449 92.957 93.6409 92.381C93.4429 91.805 93.3439 91.157 93.3439 90.437C93.3439 89.723 93.4429 89.078 93.6409 88.502C93.8449 87.92 94.1359 87.425 94.5139 87.017C94.8919 86.609 95.3479 86.294 95.8819 86.072C96.4219 85.85 97.0279 85.739 97.6999 85.739ZM97.6999 93.875C98.5999 93.875 99.2719 93.575 99.7159 92.975C100.16 92.369 100.382 91.526 100.382 90.446C100.382 89.36 100.16 88.514 99.7159 87.908C99.2719 87.302 98.5999 86.999 97.6999 86.999C97.2439 86.999 96.8449 87.077 96.5029 87.233C96.1669 87.389 95.8849 87.614 95.6569 87.908C95.4349 88.202 95.2669 88.565 95.1529 88.997C95.0449 89.423 94.9909 89.906 94.9909 90.446C94.9909 91.526 95.2129 92.369 95.6569 92.975C96.1069 93.575 96.7879 93.875 97.6999 93.875ZM110.01 88.052C109.71 87.65 109.386 87.371 109.038 87.215C108.69 87.053 108.3 86.972 107.868 86.972C107.022 86.972 106.371 87.275 105.915 87.881C105.459 88.487 105.231 89.351 105.231 90.473C105.231 91.067 105.282 91.577 105.384 92.003C105.486 92.423 105.636 92.771 105.834 93.047C106.032 93.317 106.275 93.515 106.563 93.641C106.851 93.767 107.178 93.83 107.544 93.83C108.072 93.83 108.531 93.71 108.921 93.47C109.317 93.23 109.68 92.891 110.01 92.453V88.052ZM111.612 81.743V95H110.658C110.43 95 110.286 94.889 110.226 94.667L110.082 93.56C109.692 94.028 109.248 94.406 108.75 94.694C108.252 94.982 107.676 95.126 107.022 95.126C106.5 95.126 106.026 95.027 105.6 94.829C105.174 94.625 104.811 94.328 104.511 93.938C104.211 93.548 103.98 93.062 103.818 92.48C103.656 91.898 103.575 91.229 103.575 90.473C103.575 89.801 103.665 89.177 103.845 88.601C104.025 88.019 104.283 87.515 104.619 87.089C104.955 86.663 105.366 86.33 105.852 86.09C106.344 85.844 106.896 85.721 107.508 85.721C108.066 85.721 108.543 85.817 108.939 86.009C109.341 86.195 109.698 86.456 110.01 86.792V81.743H111.612ZM121.639 85.883V95H120.685C120.457 95 120.313 94.889 120.253 94.667L120.127 93.686C119.731 94.124 119.287 94.478 118.795 94.748C118.303 95.012 117.739 95.144 117.103 95.144C116.605 95.144 116.164 95.063 115.78 94.901C115.402 94.733 115.084 94.499 114.826 94.199C114.568 93.899 114.373 93.536 114.241 93.11C114.115 92.684 114.052 92.213 114.052 91.697V85.883H115.654V91.697C115.654 92.387 115.81 92.921 116.122 93.299C116.44 93.677 116.923 93.866 117.571 93.866C118.045 93.866 118.486 93.755 118.894 93.533C119.308 93.305 119.689 92.993 120.037 92.597V85.883H121.639ZM130.524 87.503C130.476 87.569 130.428 87.62 130.38 87.656C130.332 87.692 130.266 87.71 130.182 87.71C130.092 87.71 129.993 87.674 129.885 87.602C129.777 87.524 129.642 87.44 129.48 87.35C129.324 87.26 129.129 87.179 128.895 87.107C128.667 87.029 128.385 86.99 128.049 86.99C127.599 86.99 127.203 87.071 126.861 87.233C126.519 87.389 126.231 87.617 125.997 87.917C125.769 88.217 125.595 88.58 125.475 89.006C125.361 89.432 125.304 89.909 125.304 90.437C125.304 90.989 125.367 91.481 125.493 91.913C125.619 92.339 125.796 92.699 126.024 92.993C126.258 93.281 126.537 93.503 126.861 93.659C127.191 93.809 127.56 93.884 127.968 93.884C128.358 93.884 128.679 93.839 128.931 93.749C129.183 93.653 129.39 93.548 129.552 93.434C129.72 93.32 129.858 93.218 129.966 93.128C130.08 93.032 130.191 92.984 130.299 92.984C130.431 92.984 130.533 93.035 130.605 93.137L131.055 93.722C130.857 93.968 130.632 94.178 130.38 94.352C130.128 94.526 129.855 94.673 129.561 94.793C129.273 94.907 128.97 94.991 128.652 95.045C128.334 95.099 128.01 95.126 127.68 95.126C127.11 95.126 126.579 95.021 126.087 94.811C125.601 94.601 125.178 94.298 124.818 93.902C124.458 93.5 124.176 93.008 123.972 92.426C123.768 91.844 123.666 91.181 123.666 90.437C123.666 89.759 123.759 89.132 123.945 88.556C124.137 87.98 124.413 87.485 124.773 87.071C125.139 86.651 125.586 86.324 126.114 86.09C126.648 85.856 127.26 85.739 127.95 85.739C128.592 85.739 129.156 85.844 129.642 86.054C130.134 86.258 130.569 86.549 130.947 86.927L130.524 87.503ZM135.574 95.144C134.854 95.144 134.299 94.943 133.909 94.541C133.525 94.139 133.333 93.56 133.333 92.804V87.224H132.235C132.139 87.224 132.058 87.197 131.992 87.143C131.926 87.083 131.893 86.993 131.893 86.873V86.234L133.387 86.045L133.756 83.228C133.774 83.138 133.813 83.066 133.873 83.012C133.939 82.952 134.023 82.922 134.125 82.922H134.935V86.063H137.572V87.224H134.935V92.696C134.935 93.08 135.028 93.365 135.214 93.551C135.4 93.737 135.64 93.83 135.934 93.83C136.102 93.83 136.246 93.809 136.366 93.767C136.492 93.719 136.6 93.668 136.69 93.614C136.78 93.56 136.855 93.512 136.915 93.47C136.981 93.422 137.038 93.398 137.086 93.398C137.17 93.398 137.245 93.449 137.311 93.551L137.779 94.316C137.503 94.574 137.17 94.778 136.78 94.928C136.39 95.072 135.988 95.144 135.574 95.144Z" fill="#4F4F4F"/>
</svg>
