<svg width="302" height="180" viewBox="0 0 302 180" fill="none" xmlns="http://www.w3.org/2000/svg">
<path d="M36 70.5C16.3873 70.5 0.5 54.8234 0.5 35.5C0.5 16.1766 16.3873 0.5 36 0.5C55.6127 0.5 71.5 16.1766 71.5 35.5C71.5 54.8234 55.6127 70.5 36 70.5Z" fill="#727272" stroke="white"/>
<g clip-path="url(#clip0)">
<path d="M36 46.859L46.859 36L51.5128 40.6538L40.6538 51.5128L36 46.859Z" stroke="white" stroke-width="2" stroke-linecap="round" stroke-linejoin="round"/>
<path d="M45.3049 37.5524L42.978 25.9178L20.4844 20.4883L25.9139 42.9819L37.5485 45.3088L45.3049 37.5524Z" stroke="white" stroke-width="2" stroke-linecap="round" stroke-linejoin="round"/>
<path d="M20.4844 20.4883L32.2524 32.2563" stroke="white" stroke-width="2" stroke-linecap="round" stroke-linejoin="round"/>
<path d="M34.447 37.5494C36.1605 37.5494 37.5496 36.1603 37.5496 34.4468C37.5496 32.7333 36.1605 31.3442 34.447 31.3442C32.7335 31.3442 31.3445 32.7333 31.3445 34.4468C31.3445 36.1603 32.7335 37.5494 34.447 37.5494Z" stroke="white" stroke-width="2" stroke-linecap="round" stroke-linejoin="round"/>
</g>
<path d="M113.662 12.928C118.082 12.928 121.391 13.9367 123.59 15.954C125.789 17.9487 126.888 20.8613 126.888 24.692C126.888 27.1627 126.344 29.3273 125.256 31.186C124.191 33.022 122.638 34.45 120.598 35.47C118.581 36.49 116.167 37 113.356 37L111.248 36.966C109.933 36.9207 108.981 36.898 108.392 36.898C106.057 36.898 104.312 36.932 103.156 37V36.32C103.904 36.2747 104.448 36.184 104.788 36.048C105.151 35.912 105.389 35.6513 105.502 35.266C105.638 34.8807 105.706 34.2573 105.706 33.396V16.532C105.706 15.6707 105.638 15.0473 105.502 14.662C105.389 14.2767 105.151 14.016 104.788 13.88C104.448 13.744 103.904 13.6533 103.156 13.608V12.928C104.108 12.996 105.479 13.03 107.27 13.03H108.324L109.684 12.996C111.543 12.9507 112.869 12.928 113.662 12.928ZM113.628 13.54C112.925 13.54 112.393 13.6193 112.03 13.778C111.69 13.9367 111.452 14.22 111.316 14.628C111.18 15.036 111.112 15.648 111.112 16.464V33.464C111.112 34.28 111.18 34.892 111.316 35.3C111.452 35.708 111.69 35.9913 112.03 36.15C112.393 36.3087 112.937 36.388 113.662 36.388C116.405 36.388 118.354 35.436 119.51 33.532C120.666 31.6053 121.244 28.704 121.244 24.828C121.244 20.952 120.643 18.1073 119.442 16.294C118.263 14.458 116.325 13.54 113.628 13.54ZM139.208 34.688C141.067 34.688 142.563 33.7813 143.696 31.968L144.308 32.172C143.855 33.6453 143.039 34.9033 141.86 35.946C140.704 36.966 139.254 37.476 137.508 37.476C135.106 37.476 133.19 36.7167 131.762 35.198C130.357 33.6567 129.654 31.39 129.654 28.398C129.654 25.338 130.414 23.0033 131.932 21.394C133.451 19.762 135.468 18.946 137.984 18.946C142.246 18.946 144.376 21.462 144.376 26.494H134.822C134.8 26.834 134.788 27.3667 134.788 28.092C134.788 29.588 134.992 30.8347 135.4 31.832C135.831 32.8293 136.375 33.5547 137.032 34.008C137.712 34.4613 138.438 34.688 139.208 34.688ZM137.78 19.66C136.964 19.66 136.284 20.17 135.74 21.19C135.219 22.1873 134.89 23.74 134.754 25.848H140.092C140.138 24.0573 139.956 22.584 139.548 21.428C139.163 20.2493 138.574 19.66 137.78 19.66ZM153.077 18.946C153.939 18.946 154.732 19.0593 155.457 19.286C156.183 19.49 156.738 19.728 157.123 20C157.35 20.1587 157.554 20.238 157.735 20.238C157.939 20.238 158.109 20.136 158.245 19.932C158.404 19.7053 158.506 19.388 158.551 18.98H159.265C159.175 20.136 159.129 22.1307 159.129 24.964H158.415C158.211 23.468 157.758 22.2213 157.055 21.224C156.375 20.204 155.378 19.694 154.063 19.694C153.383 19.694 152.817 19.8867 152.363 20.272C151.933 20.6573 151.717 21.19 151.717 21.87C151.717 22.6407 151.978 23.3093 152.499 23.876C153.021 24.42 153.837 25.0887 154.947 25.882L155.933 26.596C157.316 27.6387 158.336 28.568 158.993 29.384C159.651 30.2 159.979 31.22 159.979 32.444C159.979 33.4413 159.685 34.3253 159.095 35.096C158.529 35.8667 157.758 36.456 156.783 36.864C155.809 37.272 154.732 37.476 153.553 37.476C152.307 37.476 151.241 37.238 150.357 36.762C149.632 36.3993 149.111 36.1613 148.793 36.048C148.567 35.98 148.363 36.0593 148.181 36.286C148.023 36.49 147.898 36.8073 147.807 37.238H147.093C147.184 35.946 147.229 33.6793 147.229 30.438H147.943C148.397 34.6087 149.927 36.694 152.533 36.694C153.191 36.694 153.746 36.5013 154.199 36.116C154.675 35.708 154.913 35.096 154.913 34.28C154.913 33.6453 154.766 33.0787 154.471 32.58C154.199 32.0813 153.848 31.6393 153.417 31.254C152.987 30.8687 152.341 30.336 151.479 29.656C150.459 28.84 149.677 28.1827 149.133 27.684C148.612 27.1853 148.159 26.596 147.773 25.916C147.411 25.236 147.229 24.4767 147.229 23.638C147.229 22.1873 147.796 21.0427 148.929 20.204C150.063 19.3653 151.445 18.946 153.077 18.946ZM166.47 10.65C167.422 10.65 168.17 10.888 168.714 11.364C169.281 11.8173 169.564 12.452 169.564 13.268C169.564 14.084 169.281 14.73 168.714 15.206C168.17 15.6593 167.422 15.886 166.47 15.886C165.518 15.886 164.759 15.6593 164.192 15.206C163.648 14.73 163.376 14.084 163.376 13.268C163.376 12.452 163.648 11.8173 164.192 11.364C164.759 10.888 165.518 10.65 166.47 10.65ZM169.122 33.838C169.122 34.7673 169.281 35.4133 169.598 35.776C169.938 36.116 170.505 36.286 171.298 36.286V37C169.032 36.9093 167.524 36.864 166.776 36.864C166.074 36.864 164.498 36.9093 162.05 37V36.286C162.866 36.286 163.433 36.116 163.75 35.776C164.068 35.4133 164.226 34.7673 164.226 33.838V23.128C164.226 22.0853 164.068 21.326 163.75 20.85C163.433 20.374 162.866 20.136 162.05 20.136V19.422C162.776 19.49 163.478 19.524 164.158 19.524C166.176 19.524 167.83 19.3653 169.122 19.048V33.838ZM188.891 22.686C188.438 22.686 188.052 22.5387 187.735 22.244C187.418 21.9267 187.259 21.4847 187.259 20.918C187.259 20.374 187.395 19.8187 187.667 19.252C187.123 19.4787 186.67 19.7393 186.307 20.034C185.967 20.306 185.672 20.6573 185.423 21.088C186.126 21.9267 186.477 23.0147 186.477 24.352C186.477 26.1427 185.854 27.4913 184.607 28.398C183.383 29.3047 181.751 29.758 179.711 29.758H179.099C178.17 30.302 177.705 30.9027 177.705 31.56C177.705 32.2853 178.158 32.648 179.065 32.648H182.771C184.766 32.648 186.352 33.022 187.531 33.77C188.732 34.4953 189.333 35.6173 189.333 37.136C189.333 38.292 188.959 39.3347 188.211 40.264C187.486 41.216 186.375 41.9753 184.879 42.542C183.383 43.1087 181.547 43.392 179.371 43.392C177.172 43.392 175.404 43.1087 174.067 42.542C172.752 41.998 172.095 41.2047 172.095 40.162C172.095 39.4593 172.412 38.8247 173.047 38.258C173.682 37.714 174.622 37.2833 175.869 36.966L176.175 37.51C175.359 38.19 174.951 38.972 174.951 39.856C174.951 40.808 175.382 41.5333 176.243 42.032C177.104 42.5533 178.294 42.814 179.813 42.814C181.4 42.814 182.68 42.4967 183.655 41.862C184.652 41.2273 185.151 40.332 185.151 39.176C185.151 38.428 184.868 37.8387 184.301 37.408C183.757 36.9773 182.794 36.762 181.411 36.762H179.303C177.852 36.762 176.719 36.524 175.903 36.048C175.087 35.5493 174.679 34.8013 174.679 33.804C174.679 32.9653 174.974 32.2173 175.563 31.56C176.152 30.9027 177.048 30.268 178.249 29.656C176.617 29.452 175.325 28.908 174.373 28.024C173.421 27.14 172.945 25.916 172.945 24.352C172.945 22.5613 173.557 21.2127 174.781 20.306C176.028 19.3993 177.671 18.946 179.711 18.946C181.978 18.946 183.712 19.4787 184.913 20.544C185.344 19.932 185.876 19.4447 186.511 19.082C187.146 18.7193 187.792 18.538 188.449 18.538C189.129 18.538 189.662 18.742 190.047 19.15C190.455 19.5353 190.659 20.0453 190.659 20.68C190.659 21.3147 190.478 21.8133 190.115 22.176C189.775 22.516 189.367 22.686 188.891 22.686ZM179.711 29.146C180.346 29.146 180.822 28.7833 181.139 28.058C181.479 27.3327 181.649 26.0973 181.649 24.352C181.649 22.6067 181.479 21.3713 181.139 20.646C180.822 19.9207 180.346 19.558 179.711 19.558C179.076 19.558 178.589 19.9207 178.249 20.646C177.932 21.3713 177.773 22.6067 177.773 24.352C177.773 26.0973 177.932 27.3327 178.249 28.058C178.589 28.7833 179.076 29.146 179.711 29.146ZM204.216 18.946C205.939 18.946 207.185 19.388 207.956 20.272C208.341 20.7027 208.613 21.258 208.772 21.938C208.931 22.618 209.01 23.536 209.01 24.692V33.838C209.01 34.7673 209.169 35.4133 209.486 35.776C209.826 36.116 210.393 36.286 211.186 36.286V37C208.919 36.9093 207.423 36.864 206.698 36.864C206.018 36.864 204.545 36.9093 202.278 37V36.286C202.958 36.286 203.434 36.116 203.706 35.776C203.978 35.4133 204.114 34.7673 204.114 33.838V23.264C204.114 22.3347 203.955 21.632 203.638 21.156C203.343 20.68 202.799 20.442 202.006 20.442C201.077 20.442 200.283 20.8273 199.626 21.598C198.969 22.346 198.64 23.2753 198.64 24.386V33.838C198.64 34.7673 198.776 35.4133 199.048 35.776C199.32 36.116 199.796 36.286 200.476 36.286V37C198.391 36.9093 196.985 36.864 196.26 36.864C195.58 36.864 194.016 36.9093 191.568 37V36.286C192.384 36.286 192.951 36.116 193.268 35.776C193.585 35.4133 193.744 34.7673 193.744 33.838V23.128C193.744 22.0853 193.585 21.326 193.268 20.85C192.951 20.374 192.384 20.136 191.568 20.136V19.422C192.293 19.49 192.996 19.524 193.676 19.524C195.693 19.524 197.348 19.3653 198.64 19.048V22.108C199.66 20 201.519 18.946 204.216 18.946Z" fill="#727272"/>
<path d="M107.488 72.768C107.931 72.768 108.312 72.7173 108.632 72.616C108.952 72.5147 109.213 72.3733 109.416 72.192C109.624 72.0053 109.776 71.7867 109.872 71.536C109.968 71.28 110.016 71 110.016 70.696C110.016 70.104 109.805 69.6373 109.384 69.296C108.963 68.9493 108.331 68.776 107.488 68.776H105.008V72.768H107.488ZM105.008 63.76V67.672H107.056C107.493 67.672 107.872 67.624 108.192 67.528C108.517 67.432 108.784 67.2987 108.992 67.128C109.205 66.9573 109.363 66.752 109.464 66.512C109.565 66.2667 109.616 66 109.616 65.712C109.616 65.0347 109.413 64.5413 109.008 64.232C108.603 63.9173 107.973 63.76 107.12 63.76H105.008ZM107.12 62.536C107.824 62.536 108.429 62.6053 108.936 62.744C109.448 62.8827 109.867 63.08 110.192 63.336C110.523 63.592 110.765 63.9067 110.92 64.28C111.075 64.648 111.152 65.064 111.152 65.528C111.152 65.8107 111.107 66.0827 111.016 66.344C110.931 66.6 110.8 66.84 110.624 67.064C110.448 67.288 110.224 67.4907 109.952 67.672C109.685 67.848 109.371 67.992 109.008 68.104C109.851 68.264 110.483 68.5653 110.904 69.008C111.331 69.4453 111.544 70.0213 111.544 70.736C111.544 71.2213 111.453 71.664 111.272 72.064C111.096 72.464 110.835 72.808 110.488 73.096C110.147 73.384 109.725 73.608 109.224 73.768C108.723 73.9227 108.152 74 107.512 74H103.464V62.536H107.12ZM114.652 67.52C114.908 66.9653 115.223 66.5333 115.596 66.224C115.969 65.9093 116.425 65.752 116.964 65.752C117.135 65.752 117.297 65.7707 117.452 65.808C117.612 65.8453 117.753 65.904 117.876 65.984L117.772 67.048C117.74 67.1813 117.66 67.248 117.532 67.248C117.457 67.248 117.348 67.232 117.204 67.2C117.06 67.168 116.897 67.152 116.716 67.152C116.46 67.152 116.231 67.1893 116.028 67.264C115.831 67.3387 115.652 67.4507 115.492 67.6C115.337 67.744 115.196 67.9253 115.068 68.144C114.945 68.3573 114.833 68.6027 114.732 68.88V74H113.3V65.896H114.116C114.271 65.896 114.377 65.9253 114.436 65.984C114.495 66.0427 114.535 66.144 114.556 66.288L114.652 67.52ZM123.395 70.352C122.739 70.3733 122.179 70.4267 121.715 70.512C121.256 70.592 120.88 70.6987 120.587 70.832C120.299 70.9653 120.088 71.1227 119.955 71.304C119.827 71.4853 119.763 71.688 119.763 71.912C119.763 72.1253 119.798 72.3093 119.867 72.464C119.936 72.6187 120.03 72.7467 120.147 72.848C120.27 72.944 120.411 73.016 120.571 73.064C120.736 73.1067 120.912 73.128 121.099 73.128C121.35 73.128 121.579 73.104 121.787 73.056C121.995 73.0027 122.19 72.928 122.371 72.832C122.558 72.736 122.734 72.6213 122.899 72.488C123.07 72.3547 123.235 72.2027 123.395 72.032V70.352ZM118.795 67.04C119.243 66.608 119.726 66.2853 120.243 66.072C120.76 65.8587 121.334 65.752 121.963 65.752C122.416 65.752 122.819 65.8267 123.171 65.976C123.523 66.1253 123.819 66.3333 124.059 66.6C124.299 66.8667 124.48 67.1893 124.603 67.568C124.726 67.9467 124.787 68.3627 124.787 68.816V74H124.155C124.016 74 123.91 73.9787 123.835 73.936C123.76 73.888 123.702 73.7973 123.659 73.664L123.499 72.896C123.286 73.0933 123.078 73.2693 122.875 73.424C122.672 73.5733 122.459 73.7013 122.235 73.808C122.011 73.9093 121.771 73.9867 121.515 74.04C121.264 74.0987 120.984 74.128 120.675 74.128C120.36 74.128 120.064 74.0853 119.787 74C119.51 73.9093 119.267 73.776 119.059 73.6C118.856 73.424 118.694 73.2027 118.571 72.936C118.454 72.664 118.395 72.344 118.395 71.976C118.395 71.656 118.483 71.3493 118.659 71.056C118.835 70.7573 119.12 70.4933 119.515 70.264C119.91 70.0347 120.424 69.848 121.059 69.704C121.694 69.5547 122.472 69.4693 123.395 69.448V68.816C123.395 68.1867 123.259 67.712 122.987 67.392C122.715 67.0667 122.318 66.904 121.795 66.904C121.443 66.904 121.147 66.9493 120.907 67.04C120.672 67.1253 120.467 67.224 120.291 67.336C120.12 67.4427 119.971 67.5413 119.843 67.632C119.72 67.7173 119.598 67.76 119.475 67.76C119.379 67.76 119.296 67.736 119.227 67.688C119.158 67.6347 119.099 67.5707 119.051 67.496L118.795 67.04ZM128.46 65.896V74H127.036V65.896H128.46ZM128.764 63.352C128.764 63.4907 128.735 63.6213 128.676 63.744C128.623 63.8613 128.548 63.968 128.452 64.064C128.361 64.1547 128.252 64.2267 128.124 64.28C128.001 64.3333 127.871 64.36 127.732 64.36C127.593 64.36 127.463 64.3333 127.34 64.28C127.223 64.2267 127.119 64.1547 127.028 64.064C126.937 63.968 126.865 63.8613 126.812 63.744C126.759 63.6213 126.732 63.4907 126.732 63.352C126.732 63.2133 126.759 63.0827 126.812 62.96C126.865 62.832 126.937 62.7227 127.028 62.632C127.119 62.536 127.223 62.4613 127.34 62.408C127.463 62.3547 127.593 62.328 127.732 62.328C127.871 62.328 128.001 62.3547 128.124 62.408C128.252 62.4613 128.361 62.536 128.452 62.632C128.548 62.7227 128.623 62.832 128.676 62.96C128.735 63.0827 128.764 63.2133 128.764 63.352ZM132.144 67.072C132.32 66.8747 132.507 66.696 132.704 66.536C132.901 66.376 133.109 66.24 133.328 66.128C133.552 66.0107 133.787 65.9227 134.032 65.864C134.283 65.8 134.552 65.768 134.84 65.768C135.283 65.768 135.672 65.8427 136.008 65.992C136.349 66.136 136.632 66.344 136.856 66.616C137.085 66.8827 137.259 67.2053 137.376 67.584C137.493 67.9627 137.552 68.3813 137.552 68.84V74H136.12V68.84C136.12 68.2267 135.979 67.752 135.696 67.416C135.419 67.0747 134.995 66.904 134.424 66.904C134.003 66.904 133.608 67.0053 133.24 67.208C132.877 67.4107 132.541 67.6853 132.232 68.032V74H130.8V65.896H131.656C131.859 65.896 131.984 65.9947 132.032 66.192L132.144 67.072ZM144.442 67.232C144.378 67.3493 144.279 67.408 144.146 67.408C144.066 67.408 143.975 67.3787 143.874 67.32C143.772 67.2613 143.647 67.1973 143.498 67.128C143.354 67.0533 143.18 66.9867 142.978 66.928C142.775 66.864 142.535 66.832 142.258 66.832C142.018 66.832 141.802 66.864 141.61 66.928C141.418 66.9867 141.252 67.0693 141.114 67.176C140.98 67.2827 140.876 67.408 140.802 67.552C140.732 67.6907 140.698 67.8427 140.698 68.008C140.698 68.216 140.756 68.3893 140.874 68.528C140.996 68.6667 141.156 68.7867 141.354 68.888C141.551 68.9893 141.775 69.08 142.026 69.16C142.276 69.2347 142.532 69.3173 142.794 69.408C143.06 69.4933 143.319 69.5893 143.57 69.696C143.82 69.8027 144.044 69.936 144.242 70.096C144.439 70.256 144.596 70.4533 144.714 70.688C144.836 70.9173 144.898 71.1947 144.898 71.52C144.898 71.8933 144.831 72.24 144.698 72.56C144.564 72.8747 144.367 73.1493 144.106 73.384C143.844 73.6133 143.524 73.7947 143.146 73.928C142.767 74.0613 142.33 74.128 141.834 74.128C141.268 74.128 140.756 74.0373 140.298 73.856C139.839 73.6693 139.45 73.432 139.13 73.144L139.466 72.6C139.508 72.5307 139.559 72.4773 139.618 72.44C139.676 72.4027 139.751 72.384 139.842 72.384C139.938 72.384 140.039 72.4213 140.146 72.496C140.252 72.5707 140.38 72.6533 140.53 72.744C140.684 72.8347 140.871 72.9173 141.09 72.992C141.308 73.0667 141.58 73.104 141.906 73.104C142.183 73.104 142.426 73.0693 142.634 73C142.842 72.9253 143.015 72.8267 143.154 72.704C143.292 72.5813 143.394 72.44 143.458 72.28C143.527 72.12 143.562 71.9493 143.562 71.768C143.562 71.544 143.5 71.36 143.378 71.216C143.26 71.0667 143.103 70.9413 142.906 70.84C142.708 70.7333 142.482 70.6427 142.226 70.568C141.975 70.488 141.716 70.4053 141.45 70.32C141.188 70.2347 140.93 70.1387 140.674 70.032C140.423 69.92 140.199 69.7813 140.002 69.616C139.804 69.4507 139.644 69.248 139.522 69.008C139.404 68.7627 139.346 68.4667 139.346 68.12C139.346 67.8107 139.41 67.5147 139.538 67.232C139.666 66.944 139.852 66.6933 140.098 66.48C140.343 66.2613 140.644 66.088 141.002 65.96C141.359 65.832 141.767 65.768 142.226 65.768C142.759 65.768 143.236 65.8533 143.658 66.024C144.084 66.1893 144.452 66.4187 144.762 66.712L144.442 67.232ZM149.132 74.128C148.492 74.128 147.998 73.9493 147.652 73.592C147.31 73.2347 147.14 72.72 147.14 72.048V67.088H146.164C146.078 67.088 146.006 67.064 145.948 67.016C145.889 66.9627 145.86 66.8827 145.86 66.776V66.208L147.188 66.04L147.516 63.536C147.532 63.456 147.566 63.392 147.62 63.344C147.678 63.2907 147.753 63.264 147.844 63.264H148.564V66.056H150.908V67.088H148.564V71.952C148.564 72.2933 148.646 72.5467 148.812 72.712C148.977 72.8773 149.19 72.96 149.452 72.96C149.601 72.96 149.729 72.9413 149.836 72.904C149.948 72.8613 150.044 72.816 150.124 72.768C150.204 72.72 150.27 72.6773 150.324 72.64C150.382 72.5973 150.433 72.576 150.476 72.576C150.55 72.576 150.617 72.6213 150.676 72.712L151.092 73.392C150.846 73.6213 150.55 73.8027 150.204 73.936C149.857 74.064 149.5 74.128 149.132 74.128ZM155.747 65.768C156.339 65.768 156.872 65.8667 157.347 66.064C157.822 66.2613 158.227 66.5413 158.563 66.904C158.899 67.2667 159.155 67.7067 159.331 68.224C159.512 68.736 159.603 69.3093 159.603 69.944C159.603 70.584 159.512 71.16 159.331 71.672C159.155 72.184 158.899 72.6213 158.563 72.984C158.227 73.3467 157.822 73.6267 157.347 73.824C156.872 74.016 156.339 74.112 155.747 74.112C155.15 74.112 154.611 74.016 154.131 73.824C153.656 73.6267 153.251 73.3467 152.915 72.984C152.579 72.6213 152.32 72.184 152.139 71.672C151.963 71.16 151.875 70.584 151.875 69.944C151.875 69.3093 151.963 68.736 152.139 68.224C152.32 67.7067 152.579 67.2667 152.915 66.904C153.251 66.5413 153.656 66.2613 154.131 66.064C154.611 65.8667 155.15 65.768 155.747 65.768ZM155.747 73C156.547 73 157.144 72.7333 157.539 72.2C157.934 71.6613 158.131 70.912 158.131 69.952C158.131 68.9867 157.934 68.2347 157.539 67.696C157.144 67.1573 156.547 66.888 155.747 66.888C155.342 66.888 154.987 66.9573 154.683 67.096C154.384 67.2347 154.134 67.4347 153.931 67.696C153.734 67.9573 153.584 68.28 153.483 68.664C153.387 69.0427 153.339 69.472 153.339 69.952C153.339 70.912 153.536 71.6613 153.931 72.2C154.331 72.7333 154.936 73 155.747 73ZM162.761 67.52C163.017 66.9653 163.332 66.5333 163.705 66.224C164.079 65.9093 164.535 65.752 165.073 65.752C165.244 65.752 165.407 65.7707 165.561 65.808C165.721 65.8453 165.863 65.904 165.985 65.984L165.881 67.048C165.849 67.1813 165.769 67.248 165.641 67.248C165.567 67.248 165.457 67.232 165.313 67.2C165.169 67.168 165.007 67.152 164.825 67.152C164.569 67.152 164.34 67.1893 164.137 67.264C163.94 67.3387 163.761 67.4507 163.601 67.6C163.447 67.744 163.305 67.9253 163.177 68.144C163.055 68.3573 162.943 68.6027 162.841 68.88V74H161.409V65.896H162.225C162.38 65.896 162.487 65.9253 162.545 65.984C162.604 66.0427 162.644 66.144 162.665 66.288L162.761 67.52ZM167.237 74V65.896H168.093C168.296 65.896 168.421 65.9947 168.469 66.192L168.573 67.024C168.872 66.656 169.208 66.3547 169.581 66.12C169.955 65.8853 170.387 65.768 170.877 65.768C171.421 65.768 171.861 65.92 172.197 66.224C172.539 66.528 172.784 66.9387 172.933 67.456C173.051 67.1627 173.2 66.9093 173.381 66.696C173.568 66.4827 173.776 66.3067 174.005 66.168C174.235 66.0293 174.477 65.928 174.733 65.864C174.995 65.8 175.259 65.768 175.525 65.768C175.952 65.768 176.331 65.8373 176.661 65.976C176.997 66.1093 177.28 66.3067 177.509 66.568C177.744 66.8293 177.923 67.152 178.045 67.536C178.168 67.9147 178.229 68.3493 178.229 68.84V74H176.797V68.84C176.797 68.2053 176.659 67.7253 176.381 67.4C176.104 67.0693 175.704 66.904 175.181 66.904C174.947 66.904 174.723 66.9467 174.509 67.032C174.301 67.112 174.117 67.232 173.957 67.392C173.797 67.552 173.669 67.7547 173.573 68C173.483 68.24 173.437 68.52 173.437 68.84V74H172.005V68.84C172.005 68.1893 171.875 67.704 171.613 67.384C171.352 67.064 170.971 66.904 170.469 66.904C170.117 66.904 169.792 67 169.493 67.192C169.195 67.3787 168.92 67.6347 168.669 67.96V74H167.237ZM185.991 65.896V74H184.567V65.896H185.991ZM186.295 63.352C186.295 63.4907 186.266 63.6213 186.207 63.744C186.154 63.8613 186.079 63.968 185.983 64.064C185.893 64.1547 185.783 64.2267 185.655 64.28C185.533 64.3333 185.402 64.36 185.263 64.36C185.125 64.36 184.994 64.3333 184.871 64.28C184.754 64.2267 184.65 64.1547 184.559 64.064C184.469 63.968 184.397 63.8613 184.343 63.744C184.29 63.6213 184.263 63.4907 184.263 63.352C184.263 63.2133 184.29 63.0827 184.343 62.96C184.397 62.832 184.469 62.7227 184.559 62.632C184.65 62.536 184.754 62.4613 184.871 62.408C184.994 62.3547 185.125 62.328 185.263 62.328C185.402 62.328 185.533 62.3547 185.655 62.408C185.783 62.4613 185.893 62.536 185.983 62.632C186.079 62.7227 186.154 62.832 186.207 62.96C186.266 63.0827 186.295 63.2133 186.295 63.352ZM193.611 67.824C193.344 67.4667 193.056 67.2187 192.747 67.08C192.438 66.936 192.091 66.864 191.707 66.864C190.955 66.864 190.376 67.1333 189.971 67.672C189.566 68.2107 189.363 68.9787 189.363 69.976C189.363 70.504 189.408 70.9573 189.499 71.336C189.59 71.7093 189.723 72.0187 189.899 72.264C190.075 72.504 190.291 72.68 190.547 72.792C190.803 72.904 191.094 72.96 191.419 72.96C191.888 72.96 192.296 72.8533 192.643 72.64C192.995 72.4267 193.318 72.1253 193.611 71.736V67.824ZM195.035 62.216V74H194.187C193.984 74 193.856 73.9013 193.803 73.704L193.675 72.72C193.328 73.136 192.934 73.472 192.491 73.728C192.048 73.984 191.536 74.112 190.955 74.112C190.491 74.112 190.07 74.024 189.691 73.848C189.312 73.6667 188.99 73.4027 188.723 73.056C188.456 72.7093 188.251 72.2773 188.107 71.76C187.963 71.2427 187.891 70.648 187.891 69.976C187.891 69.3787 187.971 68.824 188.131 68.312C188.291 67.7947 188.52 67.3467 188.819 66.968C189.118 66.5893 189.483 66.2933 189.915 66.08C190.352 65.8613 190.843 65.752 191.387 65.752C191.883 65.752 192.307 65.8373 192.659 66.008C193.016 66.1733 193.334 66.4053 193.611 66.704V62.216H195.035ZM202.708 69.064C202.708 68.7333 202.66 68.432 202.564 68.16C202.474 67.8827 202.338 67.6453 202.156 67.448C201.98 67.2453 201.764 67.0907 201.508 66.984C201.252 66.872 200.962 66.816 200.636 66.816C199.954 66.816 199.412 67.016 199.012 67.416C198.618 67.8107 198.372 68.36 198.276 69.064H202.708ZM203.86 72.864C203.684 73.0773 203.474 73.264 203.228 73.424C202.983 73.5787 202.719 73.7067 202.436 73.808C202.159 73.9093 201.871 73.984 201.572 74.032C201.274 74.0853 200.978 74.112 200.684 74.112C200.124 74.112 199.607 74.0187 199.132 73.832C198.663 73.64 198.255 73.3627 197.908 73C197.567 72.632 197.3 72.1787 197.108 71.64C196.916 71.1013 196.82 70.4827 196.82 69.784C196.82 69.2187 196.906 68.6907 197.076 68.2C197.252 67.7093 197.503 67.2853 197.828 66.928C198.154 66.5653 198.551 66.2827 199.02 66.08C199.49 65.872 200.018 65.768 200.604 65.768C201.09 65.768 201.538 65.8507 201.948 66.016C202.364 66.176 202.722 66.4107 203.02 66.72C203.324 67.024 203.562 67.4027 203.732 67.856C203.903 68.304 203.988 68.816 203.988 69.392C203.988 69.616 203.964 69.7653 203.916 69.84C203.868 69.9147 203.778 69.952 203.644 69.952H198.228C198.244 70.464 198.314 70.9093 198.436 71.288C198.564 71.6667 198.74 71.984 198.964 72.24C199.188 72.4907 199.455 72.68 199.764 72.808C200.074 72.9307 200.42 72.992 200.804 72.992C201.162 72.992 201.468 72.952 201.724 72.872C201.986 72.7867 202.21 72.696 202.396 72.6C202.583 72.504 202.738 72.416 202.86 72.336C202.988 72.2507 203.098 72.208 203.188 72.208C203.306 72.208 203.396 72.2533 203.46 72.344L203.86 72.864ZM210.129 70.352C209.473 70.3733 208.913 70.4267 208.449 70.512C207.991 70.592 207.615 70.6987 207.321 70.832C207.033 70.9653 206.823 71.1227 206.689 71.304C206.561 71.4853 206.497 71.688 206.497 71.912C206.497 72.1253 206.532 72.3093 206.601 72.464C206.671 72.6187 206.764 72.7467 206.881 72.848C207.004 72.944 207.145 73.016 207.305 73.064C207.471 73.1067 207.647 73.128 207.833 73.128C208.084 73.128 208.313 73.104 208.521 73.056C208.729 73.0027 208.924 72.928 209.105 72.832C209.292 72.736 209.468 72.6213 209.633 72.488C209.804 72.3547 209.969 72.2027 210.129 72.032V70.352ZM205.529 67.04C205.977 66.608 206.46 66.2853 206.977 66.072C207.495 65.8587 208.068 65.752 208.697 65.752C209.151 65.752 209.553 65.8267 209.905 65.976C210.257 66.1253 210.553 66.3333 210.793 66.6C211.033 66.8667 211.215 67.1893 211.337 67.568C211.46 67.9467 211.521 68.3627 211.521 68.816V74H210.889C210.751 74 210.644 73.9787 210.569 73.936C210.495 73.888 210.436 73.7973 210.393 73.664L210.233 72.896C210.02 73.0933 209.812 73.2693 209.609 73.424C209.407 73.5733 209.193 73.7013 208.969 73.808C208.745 73.9093 208.505 73.9867 208.249 74.04C207.999 74.0987 207.719 74.128 207.409 74.128C207.095 74.128 206.799 74.0853 206.521 74C206.244 73.9093 206.001 73.776 205.793 73.6C205.591 73.424 205.428 73.2027 205.305 72.936C205.188 72.664 205.129 72.344 205.129 71.976C205.129 71.656 205.217 71.3493 205.393 71.056C205.569 70.7573 205.855 70.4933 206.249 70.264C206.644 70.0347 207.159 69.848 207.793 69.704C208.428 69.5547 209.207 69.4693 210.129 69.448V68.816C210.129 68.1867 209.993 67.712 209.721 67.392C209.449 67.0667 209.052 66.904 208.529 66.904C208.177 66.904 207.881 66.9493 207.641 67.04C207.407 67.1253 207.201 67.224 207.025 67.336C206.855 67.4427 206.705 67.5413 206.577 67.632C206.455 67.7173 206.332 67.76 206.209 67.76C206.113 67.76 206.031 67.736 205.961 67.688C205.892 67.6347 205.833 67.5707 205.785 67.496L205.529 67.04ZM221.101 74H219.677V67.088H215.501V71.952C215.501 72.2933 215.584 72.5467 215.749 72.712C215.914 72.8773 216.128 72.96 216.389 72.96C216.538 72.96 216.666 72.9413 216.773 72.904C216.885 72.8613 216.981 72.816 217.061 72.768C217.141 72.72 217.208 72.6773 217.261 72.64C217.32 72.5973 217.37 72.576 217.413 72.576C217.488 72.576 217.554 72.6213 217.613 72.712L218.029 73.392C217.784 73.6213 217.488 73.8027 217.141 73.936C216.794 74.064 216.437 74.128 216.069 74.128C215.429 74.128 214.936 73.9493 214.589 73.592C214.248 73.2347 214.077 72.72 214.077 72.048V67.088H213.101C213.016 67.088 212.944 67.064 212.885 67.016C212.826 66.9627 212.797 66.8827 212.797 66.776V66.208L214.125 66.032L214.453 63.536C214.469 63.456 214.504 63.392 214.557 63.344C214.616 63.2907 214.69 63.264 214.781 63.264H215.501V66.056H221.101V74ZM221.453 63.296C221.453 63.4347 221.424 63.5653 221.365 63.688C221.312 63.8053 221.237 63.9093 221.141 64C221.05 64.0907 220.944 64.1627 220.821 64.216C220.698 64.2693 220.568 64.296 220.429 64.296C220.29 64.296 220.16 64.2693 220.037 64.216C219.92 64.1627 219.816 64.0907 219.725 64C219.634 63.9093 219.562 63.8053 219.509 63.688C219.456 63.5653 219.429 63.4347 219.429 63.296C219.429 63.1573 219.456 63.0267 219.509 62.904C219.562 62.776 219.634 62.6667 219.725 62.576C219.816 62.48 219.92 62.4053 220.037 62.352C220.16 62.2987 220.29 62.272 220.429 62.272C220.568 62.272 220.698 62.2987 220.821 62.352C220.944 62.4053 221.05 62.48 221.141 62.576C221.237 62.6667 221.312 62.776 221.365 62.904C221.424 63.0267 221.453 63.1573 221.453 63.296ZM226.857 65.768C227.449 65.768 227.982 65.8667 228.457 66.064C228.931 66.2613 229.337 66.5413 229.673 66.904C230.009 67.2667 230.265 67.7067 230.441 68.224C230.622 68.736 230.713 69.3093 230.713 69.944C230.713 70.584 230.622 71.16 230.441 71.672C230.265 72.184 230.009 72.6213 229.673 72.984C229.337 73.3467 228.931 73.6267 228.457 73.824C227.982 74.016 227.449 74.112 226.857 74.112C226.259 74.112 225.721 74.016 225.241 73.824C224.766 73.6267 224.361 73.3467 224.025 72.984C223.689 72.6213 223.43 72.184 223.249 71.672C223.073 71.16 222.985 70.584 222.985 69.944C222.985 69.3093 223.073 68.736 223.249 68.224C223.43 67.7067 223.689 67.2667 224.025 66.904C224.361 66.5413 224.766 66.2613 225.241 66.064C225.721 65.8667 226.259 65.768 226.857 65.768ZM226.857 73C227.657 73 228.254 72.7333 228.649 72.2C229.043 71.6613 229.241 70.912 229.241 69.952C229.241 68.9867 229.043 68.2347 228.649 67.696C228.254 67.1573 227.657 66.888 226.857 66.888C226.451 66.888 226.097 66.9573 225.793 67.096C225.494 67.2347 225.243 67.4347 225.041 67.696C224.843 67.9573 224.694 68.28 224.593 68.664C224.497 69.0427 224.449 69.472 224.449 69.952C224.449 70.912 224.646 71.6613 225.041 72.2C225.441 72.7333 226.046 73 226.857 73ZM233.863 67.072C234.039 66.8747 234.225 66.696 234.423 66.536C234.62 66.376 234.828 66.24 235.047 66.128C235.271 66.0107 235.505 65.9227 235.751 65.864C236.001 65.8 236.271 65.768 236.559 65.768C237.001 65.768 237.391 65.8427 237.727 65.992C238.068 66.136 238.351 66.344 238.575 66.616C238.804 66.8827 238.977 67.2053 239.095 67.584C239.212 67.9627 239.271 68.3813 239.271 68.84V74H237.839V68.84C237.839 68.2267 237.697 67.752 237.415 67.416C237.137 67.0747 236.713 66.904 236.143 66.904C235.721 66.904 235.327 67.0053 234.959 67.208C234.596 67.4107 234.26 67.6853 233.951 68.032V74H232.519V65.896H233.375C233.577 65.896 233.703 65.9947 233.751 66.192L233.863 67.072ZM111.216 88.84H107.504V99H105.96V88.84H102.24V87.536H111.216V88.84ZM115.145 95.352C114.489 95.3733 113.929 95.4267 113.465 95.512C113.006 95.592 112.63 95.6987 112.337 95.832C112.049 95.9653 111.838 96.1227 111.705 96.304C111.577 96.4853 111.513 96.688 111.513 96.912C111.513 97.1253 111.548 97.3093 111.617 97.464C111.686 97.6187 111.78 97.7467 111.897 97.848C112.02 97.944 112.161 98.016 112.321 98.064C112.486 98.1067 112.662 98.128 112.849 98.128C113.1 98.128 113.329 98.104 113.537 98.056C113.745 98.0027 113.94 97.928 114.121 97.832C114.308 97.736 114.484 97.6213 114.649 97.488C114.82 97.3547 114.985 97.2027 115.145 97.032V95.352ZM110.545 92.04C110.993 91.608 111.476 91.2853 111.993 91.072C112.51 90.8587 113.084 90.752 113.713 90.752C114.166 90.752 114.569 90.8267 114.921 90.976C115.273 91.1253 115.569 91.3333 115.809 91.6C116.049 91.8667 116.23 92.1893 116.353 92.568C116.476 92.9467 116.537 93.3627 116.537 93.816V99H115.905C115.766 99 115.66 98.9787 115.585 98.936C115.51 98.888 115.452 98.7973 115.409 98.664L115.249 97.896C115.036 98.0933 114.828 98.2693 114.625 98.424C114.422 98.5733 114.209 98.7013 113.985 98.808C113.761 98.9093 113.521 98.9867 113.265 99.04C113.014 99.0987 112.734 99.128 112.425 99.128C112.11 99.128 111.814 99.0853 111.537 99C111.26 98.9093 111.017 98.776 110.809 98.6C110.606 98.424 110.444 98.2027 110.321 97.936C110.204 97.664 110.145 97.344 110.145 96.976C110.145 96.656 110.233 96.3493 110.409 96.056C110.585 95.7573 110.87 95.4933 111.265 95.264C111.66 95.0347 112.174 94.848 112.809 94.704C113.444 94.5547 114.222 94.4693 115.145 94.448V93.816C115.145 93.1867 115.009 92.712 114.737 92.392C114.465 92.0667 114.068 91.904 113.545 91.904C113.193 91.904 112.897 91.9493 112.657 92.04C112.422 92.1253 112.217 92.224 112.041 92.336C111.87 92.4427 111.721 92.5413 111.593 92.632C111.47 92.7173 111.348 92.76 111.225 92.76C111.129 92.76 111.046 92.736 110.977 92.688C110.908 92.6347 110.849 92.5707 110.801 92.496L110.545 92.04ZM123.426 92.232C123.362 92.3493 123.263 92.408 123.13 92.408C123.05 92.408 122.959 92.3787 122.858 92.32C122.757 92.2613 122.631 92.1973 122.482 92.128C122.338 92.0533 122.165 91.9867 121.962 91.928C121.759 91.864 121.519 91.832 121.242 91.832C121.002 91.832 120.786 91.864 120.594 91.928C120.402 91.9867 120.237 92.0693 120.098 92.176C119.965 92.2827 119.861 92.408 119.786 92.552C119.717 92.6907 119.682 92.8427 119.682 93.008C119.682 93.216 119.741 93.3893 119.858 93.528C119.981 93.6667 120.141 93.7867 120.338 93.888C120.535 93.9893 120.759 94.08 121.01 94.16C121.261 94.2347 121.517 94.3173 121.778 94.408C122.045 94.4933 122.303 94.5893 122.554 94.696C122.805 94.8027 123.029 94.936 123.226 95.096C123.423 95.256 123.581 95.4533 123.698 95.688C123.821 95.9173 123.882 96.1947 123.882 96.52C123.882 96.8933 123.815 97.24 123.682 97.56C123.549 97.8747 123.351 98.1493 123.09 98.384C122.829 98.6133 122.509 98.7947 122.13 98.928C121.751 99.0613 121.314 99.128 120.818 99.128C120.253 99.128 119.741 99.0373 119.282 98.856C118.823 98.6693 118.434 98.432 118.114 98.144L118.45 97.6C118.493 97.5307 118.543 97.4773 118.602 97.44C118.661 97.4027 118.735 97.384 118.826 97.384C118.922 97.384 119.023 97.4213 119.13 97.496C119.237 97.5707 119.365 97.6533 119.514 97.744C119.669 97.8347 119.855 97.9173 120.074 97.992C120.293 98.0667 120.565 98.104 120.89 98.104C121.167 98.104 121.41 98.0693 121.618 98C121.826 97.9253 121.999 97.8267 122.138 97.704C122.277 97.5813 122.378 97.44 122.442 97.28C122.511 97.12 122.546 96.9493 122.546 96.768C122.546 96.544 122.485 96.36 122.362 96.216C122.245 96.0667 122.087 95.9413 121.89 95.84C121.693 95.7333 121.466 95.6427 121.21 95.568C120.959 95.488 120.701 95.4053 120.434 95.32C120.173 95.2347 119.914 95.1387 119.658 95.032C119.407 94.92 119.183 94.7813 118.986 94.616C118.789 94.4507 118.629 94.248 118.506 94.008C118.389 93.7627 118.33 93.4667 118.33 93.12C118.33 92.8107 118.394 92.5147 118.522 92.232C118.65 91.944 118.837 91.6933 119.082 91.48C119.327 91.2613 119.629 91.088 119.986 90.96C120.343 90.832 120.751 90.768 121.21 90.768C121.743 90.768 122.221 90.8533 122.642 91.024C123.069 91.1893 123.437 91.4187 123.746 91.712L123.426 92.232ZM127.06 87.216V94.152H127.428C127.535 94.152 127.623 94.1387 127.692 94.112C127.767 94.08 127.844 94.0187 127.924 93.928L130.484 91.184C130.559 91.0933 130.636 91.024 130.716 90.976C130.801 90.9227 130.913 90.896 131.052 90.896H132.34L129.356 94.072C129.212 94.2533 129.057 94.3947 128.892 94.496C128.988 94.56 129.073 94.6347 129.148 94.72C129.228 94.8 129.303 94.8933 129.372 95L132.54 99H131.268C131.145 99 131.039 98.9813 130.948 98.944C130.863 98.9013 130.788 98.8267 130.724 98.72L128.06 95.4C127.98 95.288 127.9 95.216 127.82 95.184C127.745 95.1467 127.628 95.128 127.468 95.128H127.06V99H125.628V87.216H127.06ZM138.391 99V92.112L137.495 92.008C137.377 91.9813 137.284 91.9413 137.215 91.888C137.145 91.8293 137.111 91.7467 137.111 91.64V91.056H138.391V90.624C138.391 90.176 138.457 89.752 138.591 89.352C138.729 88.9467 138.937 88.5947 139.215 88.296C139.492 87.9973 139.839 87.76 140.255 87.584C140.671 87.408 141.156 87.32 141.711 87.32C142.121 87.32 142.516 87.336 142.895 87.368C143.279 87.4 143.649 87.4187 144.007 87.424H144.975V99H143.559V88.424C143.271 88.4133 142.98 88.4 142.687 88.384C142.399 88.368 142.145 88.36 141.927 88.36C141.233 88.36 140.7 88.56 140.327 88.96C139.959 89.3547 139.775 89.9093 139.775 90.624V91.056H141.879V92.088H139.815V99H138.391ZM150.7 90.768C151.292 90.768 151.826 90.8667 152.3 91.064C152.775 91.2613 153.18 91.5413 153.516 91.904C153.852 92.2667 154.108 92.7067 154.284 93.224C154.466 93.736 154.556 94.3093 154.556 94.944C154.556 95.584 154.466 96.16 154.284 96.672C154.108 97.184 153.852 97.6213 153.516 97.984C153.18 98.3467 152.775 98.6267 152.3 98.824C151.826 99.016 151.292 99.112 150.7 99.112C150.103 99.112 149.564 99.016 149.084 98.824C148.61 98.6267 148.204 98.3467 147.868 97.984C147.532 97.6213 147.274 97.184 147.092 96.672C146.916 96.16 146.828 95.584 146.828 94.944C146.828 94.3093 146.916 93.736 147.092 93.224C147.274 92.7067 147.532 92.2667 147.868 91.904C148.204 91.5413 148.61 91.2613 149.084 91.064C149.564 90.8667 150.103 90.768 150.7 90.768ZM150.7 98C151.5 98 152.098 97.7333 152.492 97.2C152.887 96.6613 153.084 95.912 153.084 94.952C153.084 93.9867 152.887 93.2347 152.492 92.696C152.098 92.1573 151.5 91.888 150.7 91.888C150.295 91.888 149.94 91.9573 149.636 92.096C149.338 92.2347 149.087 92.4347 148.884 92.696C148.687 92.9573 148.538 93.28 148.436 93.664C148.34 94.0427 148.292 94.472 148.292 94.952C148.292 95.912 148.49 96.6613 148.884 97.2C149.284 97.7333 149.89 98 150.7 98ZM167.413 90.896L164.789 99H163.661C163.523 99 163.427 98.9093 163.373 98.728L161.581 93.232C161.539 93.1093 161.504 92.9867 161.477 92.864C161.451 92.736 161.424 92.6107 161.397 92.488C161.371 92.6107 161.344 92.736 161.317 92.864C161.291 92.9867 161.256 93.112 161.213 93.24L159.389 98.728C159.341 98.9093 159.235 99 159.069 99H157.997L155.373 90.896H156.493C156.605 90.896 156.699 90.9253 156.773 90.984C156.853 91.0427 156.907 91.112 156.933 91.192L158.485 96.408C158.576 96.792 158.648 97.1547 158.701 97.496C158.749 97.32 158.797 97.1413 158.845 96.96C158.899 96.7787 158.955 96.5947 159.013 96.408L160.725 91.16C160.752 91.08 160.797 91.0133 160.861 90.96C160.931 90.9067 161.013 90.88 161.109 90.88H161.733C161.84 90.88 161.928 90.9067 161.997 90.96C162.067 91.0133 162.115 91.08 162.141 91.16L163.813 96.408C163.872 96.5947 163.925 96.7787 163.973 96.96C164.021 97.1413 164.067 97.32 164.109 97.496C164.136 97.32 164.168 97.144 164.205 96.968C164.248 96.7867 164.293 96.6 164.341 96.408L165.925 91.192C165.952 91.1067 166.003 91.0373 166.077 90.984C166.152 90.9253 166.24 90.896 166.341 90.896H167.413ZM173.457 92.232C173.393 92.3493 173.295 92.408 173.161 92.408C173.081 92.408 172.991 92.3787 172.889 92.32C172.788 92.2613 172.663 92.1973 172.513 92.128C172.369 92.0533 172.196 91.9867 171.993 91.928C171.791 91.864 171.551 91.832 171.273 91.832C171.033 91.832 170.817 91.864 170.625 91.928C170.433 91.9867 170.268 92.0693 170.129 92.176C169.996 92.2827 169.892 92.408 169.817 92.552C169.748 92.6907 169.713 92.8427 169.713 93.008C169.713 93.216 169.772 93.3893 169.889 93.528C170.012 93.6667 170.172 93.7867 170.369 93.888C170.567 93.9893 170.791 94.08 171.041 94.16C171.292 94.2347 171.548 94.3173 171.809 94.408C172.076 94.4933 172.335 94.5893 172.585 94.696C172.836 94.8027 173.06 94.936 173.257 95.096C173.455 95.256 173.612 95.4533 173.729 95.688C173.852 95.9173 173.913 96.1947 173.913 96.52C173.913 96.8933 173.847 97.24 173.713 97.56C173.58 97.8747 173.383 98.1493 173.121 98.384C172.86 98.6133 172.54 98.7947 172.161 98.928C171.783 99.0613 171.345 99.128 170.849 99.128C170.284 99.128 169.772 99.0373 169.313 98.856C168.855 98.6693 168.465 98.432 168.145 98.144L168.481 97.6C168.524 97.5307 168.575 97.4773 168.633 97.44C168.692 97.4027 168.767 97.384 168.857 97.384C168.953 97.384 169.055 97.4213 169.161 97.496C169.268 97.5707 169.396 97.6533 169.545 97.744C169.7 97.8347 169.887 97.9173 170.105 97.992C170.324 98.0667 170.596 98.104 170.921 98.104C171.199 98.104 171.441 98.0693 171.649 98C171.857 97.9253 172.031 97.8267 172.169 97.704C172.308 97.5813 172.409 97.44 172.473 97.28C172.543 97.12 172.577 96.9493 172.577 96.768C172.577 96.544 172.516 96.36 172.393 96.216C172.276 96.0667 172.119 95.9413 171.921 95.84C171.724 95.7333 171.497 95.6427 171.241 95.568C170.991 95.488 170.732 95.4053 170.465 95.32C170.204 95.2347 169.945 95.1387 169.689 95.032C169.439 94.92 169.215 94.7813 169.017 94.616C168.82 94.4507 168.66 94.248 168.537 94.008C168.42 93.7627 168.361 93.4667 168.361 93.12C168.361 92.8107 168.425 92.5147 168.553 92.232C168.681 91.944 168.868 91.6933 169.113 91.48C169.359 91.2613 169.66 91.088 170.017 90.96C170.375 90.832 170.783 90.768 171.241 90.768C171.775 90.768 172.252 90.8533 172.673 91.024C173.1 91.1893 173.468 91.4187 173.777 91.712L173.457 92.232ZM118.32 112.536L114.744 124H113.352L110.448 115.256C110.421 115.171 110.395 115.08 110.368 114.984C110.347 114.888 110.323 114.787 110.296 114.68C110.269 114.787 110.243 114.888 110.216 114.984C110.189 115.08 110.163 115.171 110.136 115.256L107.216 124H105.824L102.248 112.536H103.536C103.675 112.536 103.789 112.571 103.88 112.64C103.976 112.709 104.037 112.797 104.064 112.904L106.432 120.872C106.469 121.016 106.504 121.171 106.536 121.336C106.573 121.501 106.608 121.677 106.64 121.864C106.677 121.677 106.715 121.501 106.752 121.336C106.795 121.165 106.84 121.011 106.888 120.872L109.584 112.904C109.616 112.813 109.677 112.731 109.768 112.656C109.864 112.576 109.979 112.536 110.112 112.536H110.56C110.699 112.536 110.811 112.571 110.896 112.64C110.981 112.709 111.045 112.797 111.088 112.904L113.776 120.872C113.824 121.011 113.867 121.16 113.904 121.32C113.947 121.48 113.987 121.648 114.024 121.824C114.051 121.648 114.08 121.48 114.112 121.32C114.144 121.16 114.179 121.011 114.216 120.872L116.592 112.904C116.619 112.808 116.677 112.723 116.768 112.648C116.864 112.573 116.979 112.536 117.112 112.536H118.32ZM121.132 115.896V124H119.708V115.896H121.132ZM121.436 113.352C121.436 113.491 121.407 113.621 121.348 113.744C121.295 113.861 121.22 113.968 121.124 114.064C121.033 114.155 120.924 114.227 120.796 114.28C120.673 114.333 120.543 114.36 120.404 114.36C120.265 114.36 120.135 114.333 120.012 114.28C119.895 114.227 119.791 114.155 119.7 114.064C119.609 113.968 119.537 113.861 119.484 113.744C119.431 113.621 119.404 113.491 119.404 113.352C119.404 113.213 119.431 113.083 119.484 112.96C119.537 112.832 119.609 112.723 119.7 112.632C119.791 112.536 119.895 112.461 120.012 112.408C120.135 112.355 120.265 112.328 120.404 112.328C120.543 112.328 120.673 112.355 120.796 112.408C120.924 112.461 121.033 112.536 121.124 112.632C121.22 112.723 121.295 112.832 121.348 112.96C121.407 113.083 121.436 113.213 121.436 113.352ZM124.824 117.52C125.08 116.965 125.394 116.533 125.768 116.224C126.141 115.909 126.597 115.752 127.136 115.752C127.306 115.752 127.469 115.771 127.624 115.808C127.784 115.845 127.925 115.904 128.048 115.984L127.944 117.048C127.912 117.181 127.832 117.248 127.704 117.248C127.629 117.248 127.52 117.232 127.376 117.2C127.232 117.168 127.069 117.152 126.888 117.152C126.632 117.152 126.402 117.189 126.2 117.264C126.002 117.339 125.824 117.451 125.664 117.6C125.509 117.744 125.368 117.925 125.24 118.144C125.117 118.357 125.005 118.603 124.904 118.88V124H123.472V115.896H124.288C124.442 115.896 124.549 115.925 124.608 115.984C124.666 116.043 124.706 116.144 124.728 116.288L124.824 117.52ZM134.396 119.064C134.396 118.733 134.348 118.432 134.252 118.16C134.161 117.883 134.025 117.645 133.844 117.448C133.668 117.245 133.452 117.091 133.196 116.984C132.94 116.872 132.649 116.816 132.324 116.816C131.641 116.816 131.1 117.016 130.7 117.416C130.305 117.811 130.06 118.36 129.964 119.064H134.396ZM135.548 122.864C135.372 123.077 135.161 123.264 134.916 123.424C134.67 123.579 134.406 123.707 134.124 123.808C133.846 123.909 133.558 123.984 133.26 124.032C132.961 124.085 132.665 124.112 132.372 124.112C131.812 124.112 131.294 124.019 130.82 123.832C130.35 123.64 129.942 123.363 129.596 123C129.254 122.632 128.988 122.179 128.796 121.64C128.604 121.101 128.508 120.483 128.508 119.784C128.508 119.219 128.593 118.691 128.764 118.2C128.94 117.709 129.19 117.285 129.516 116.928C129.841 116.565 130.238 116.283 130.708 116.08C131.177 115.872 131.705 115.768 132.292 115.768C132.777 115.768 133.225 115.851 133.636 116.016C134.052 116.176 134.409 116.411 134.708 116.72C135.012 117.024 135.249 117.403 135.42 117.856C135.59 118.304 135.676 118.816 135.676 119.392C135.676 119.616 135.652 119.765 135.604 119.84C135.556 119.915 135.465 119.952 135.332 119.952H129.916C129.932 120.464 130.001 120.909 130.124 121.288C130.252 121.667 130.428 121.984 130.652 122.24C130.876 122.491 131.142 122.68 131.452 122.808C131.761 122.931 132.108 122.992 132.492 122.992C132.849 122.992 133.156 122.952 133.412 122.872C133.673 122.787 133.897 122.696 134.084 122.6C134.27 122.504 134.425 122.416 134.548 122.336C134.676 122.251 134.785 122.208 134.876 122.208C134.993 122.208 135.084 122.253 135.148 122.344L135.548 122.864ZM137.875 124V117.112L136.979 117.008C136.867 116.981 136.773 116.941 136.699 116.888C136.629 116.829 136.595 116.747 136.595 116.64V116.056H137.875V115.272C137.875 114.808 137.939 114.397 138.067 114.04C138.2 113.677 138.387 113.373 138.627 113.128C138.872 112.877 139.165 112.688 139.507 112.56C139.848 112.432 140.232 112.368 140.659 112.368C141.021 112.368 141.355 112.421 141.659 112.528L141.627 113.24C141.616 113.368 141.544 113.437 141.411 113.448C141.283 113.459 141.109 113.464 140.891 113.464C140.645 113.464 140.421 113.496 140.219 113.56C140.021 113.624 139.851 113.728 139.707 113.872C139.563 114.016 139.451 114.205 139.371 114.44C139.296 114.675 139.259 114.965 139.259 115.312V116.056H141.595V117.088H139.307V124H137.875ZM144.308 117.52C144.564 116.965 144.879 116.533 145.252 116.224C145.625 115.909 146.081 115.752 146.62 115.752C146.791 115.752 146.953 115.771 147.108 115.808C147.268 115.845 147.409 115.904 147.532 115.984L147.428 117.048C147.396 117.181 147.316 117.248 147.188 117.248C147.113 117.248 147.004 117.232 146.86 117.2C146.716 117.168 146.553 117.152 146.372 117.152C146.116 117.152 145.887 117.189 145.684 117.264C145.487 117.339 145.308 117.451 145.148 117.6C144.993 117.744 144.852 117.925 144.724 118.144C144.601 118.357 144.489 118.603 144.388 118.88V124H142.956V115.896H143.772C143.927 115.896 144.033 115.925 144.092 115.984C144.151 116.043 144.191 116.144 144.212 116.288L144.308 117.52ZM153.051 120.352C152.395 120.373 151.835 120.427 151.371 120.512C150.913 120.592 150.537 120.699 150.243 120.832C149.955 120.965 149.745 121.123 149.611 121.304C149.483 121.485 149.419 121.688 149.419 121.912C149.419 122.125 149.454 122.309 149.523 122.464C149.593 122.619 149.686 122.747 149.803 122.848C149.926 122.944 150.067 123.016 150.227 123.064C150.393 123.107 150.569 123.128 150.755 123.128C151.006 123.128 151.235 123.104 151.443 123.056C151.651 123.003 151.846 122.928 152.027 122.832C152.214 122.736 152.39 122.621 152.555 122.488C152.726 122.355 152.891 122.203 153.051 122.032V120.352ZM148.451 117.04C148.899 116.608 149.382 116.285 149.899 116.072C150.417 115.859 150.99 115.752 151.619 115.752C152.073 115.752 152.475 115.827 152.827 115.976C153.179 116.125 153.475 116.333 153.715 116.6C153.955 116.867 154.137 117.189 154.259 117.568C154.382 117.947 154.443 118.363 154.443 118.816V124H153.811C153.673 124 153.566 123.979 153.491 123.936C153.417 123.888 153.358 123.797 153.315 123.664L153.155 122.896C152.942 123.093 152.734 123.269 152.531 123.424C152.329 123.573 152.115 123.701 151.891 123.808C151.667 123.909 151.427 123.987 151.171 124.04C150.921 124.099 150.641 124.128 150.331 124.128C150.017 124.128 149.721 124.085 149.443 124C149.166 123.909 148.923 123.776 148.715 123.6C148.513 123.424 148.35 123.203 148.227 122.936C148.11 122.664 148.051 122.344 148.051 121.976C148.051 121.656 148.139 121.349 148.315 121.056C148.491 120.757 148.777 120.493 149.171 120.264C149.566 120.035 150.081 119.848 150.715 119.704C151.35 119.555 152.129 119.469 153.051 119.448V118.816C153.051 118.187 152.915 117.712 152.643 117.392C152.371 117.067 151.974 116.904 151.451 116.904C151.099 116.904 150.803 116.949 150.563 117.04C150.329 117.125 150.123 117.224 149.947 117.336C149.777 117.443 149.627 117.541 149.499 117.632C149.377 117.717 149.254 117.76 149.131 117.76C149.035 117.76 148.953 117.736 148.883 117.688C148.814 117.635 148.755 117.571 148.707 117.496L148.451 117.04ZM156.612 124V115.896H157.468C157.671 115.896 157.796 115.995 157.844 116.192L157.948 117.024C158.247 116.656 158.583 116.355 158.956 116.12C159.33 115.885 159.762 115.768 160.252 115.768C160.796 115.768 161.236 115.92 161.572 116.224C161.914 116.528 162.159 116.939 162.308 117.456C162.426 117.163 162.575 116.909 162.756 116.696C162.943 116.483 163.151 116.307 163.38 116.168C163.61 116.029 163.852 115.928 164.108 115.864C164.37 115.8 164.634 115.768 164.9 115.768C165.327 115.768 165.706 115.837 166.036 115.976C166.372 116.109 166.655 116.307 166.884 116.568C167.119 116.829 167.298 117.152 167.42 117.536C167.543 117.915 167.604 118.349 167.604 118.84V124H166.172V118.84C166.172 118.205 166.034 117.725 165.756 117.4C165.479 117.069 165.079 116.904 164.556 116.904C164.322 116.904 164.098 116.947 163.884 117.032C163.676 117.112 163.492 117.232 163.332 117.392C163.172 117.552 163.044 117.755 162.948 118C162.858 118.24 162.812 118.52 162.812 118.84V124H161.38V118.84C161.38 118.189 161.25 117.704 160.988 117.384C160.727 117.064 160.346 116.904 159.844 116.904C159.492 116.904 159.167 117 158.868 117.192C158.57 117.379 158.295 117.635 158.044 117.96V124H156.612ZM175.193 119.064C175.193 118.733 175.145 118.432 175.049 118.16C174.958 117.883 174.822 117.645 174.641 117.448C174.465 117.245 174.249 117.091 173.993 116.984C173.737 116.872 173.446 116.816 173.121 116.816C172.438 116.816 171.897 117.016 171.497 117.416C171.102 117.811 170.857 118.36 170.761 119.064H175.193ZM176.345 122.864C176.169 123.077 175.958 123.264 175.713 123.424C175.467 123.579 175.203 123.707 174.921 123.808C174.643 123.909 174.355 123.984 174.057 124.032C173.758 124.085 173.462 124.112 173.169 124.112C172.609 124.112 172.091 124.019 171.617 123.832C171.147 123.64 170.739 123.363 170.393 123C170.051 122.632 169.785 122.179 169.593 121.64C169.401 121.101 169.305 120.483 169.305 119.784C169.305 119.219 169.39 118.691 169.561 118.2C169.737 117.709 169.987 117.285 170.313 116.928C170.638 116.565 171.035 116.283 171.505 116.08C171.974 115.872 172.502 115.768 173.089 115.768C173.574 115.768 174.022 115.851 174.433 116.016C174.849 116.176 175.206 116.411 175.505 116.72C175.809 117.024 176.046 117.403 176.217 117.856C176.387 118.304 176.473 118.816 176.473 119.392C176.473 119.616 176.449 119.765 176.401 119.84C176.353 119.915 176.262 119.952 176.129 119.952H170.713C170.729 120.464 170.798 120.909 170.921 121.288C171.049 121.667 171.225 121.984 171.449 122.24C171.673 122.491 171.939 122.68 172.249 122.808C172.558 122.931 172.905 122.992 173.289 122.992C173.646 122.992 173.953 122.952 174.209 122.872C174.47 122.787 174.694 122.696 174.881 122.6C175.067 122.504 175.222 122.416 175.345 122.336C175.473 122.251 175.582 122.208 175.673 122.208C175.79 122.208 175.881 122.253 175.945 122.344L176.345 122.864ZM182.942 117.232C182.878 117.349 182.779 117.408 182.646 117.408C182.566 117.408 182.475 117.379 182.374 117.32C182.272 117.261 182.147 117.197 181.998 117.128C181.854 117.053 181.68 116.987 181.478 116.928C181.275 116.864 181.035 116.832 180.758 116.832C180.518 116.832 180.302 116.864 180.11 116.928C179.918 116.987 179.752 117.069 179.614 117.176C179.48 117.283 179.376 117.408 179.302 117.552C179.232 117.691 179.198 117.843 179.198 118.008C179.198 118.216 179.256 118.389 179.374 118.528C179.496 118.667 179.656 118.787 179.854 118.888C180.051 118.989 180.275 119.08 180.526 119.16C180.776 119.235 181.032 119.317 181.294 119.408C181.56 119.493 181.819 119.589 182.07 119.696C182.32 119.803 182.544 119.936 182.742 120.096C182.939 120.256 183.096 120.453 183.214 120.688C183.336 120.917 183.398 121.195 183.398 121.52C183.398 121.893 183.331 122.24 183.198 122.56C183.064 122.875 182.867 123.149 182.606 123.384C182.344 123.613 182.024 123.795 181.646 123.928C181.267 124.061 180.83 124.128 180.334 124.128C179.768 124.128 179.256 124.037 178.798 123.856C178.339 123.669 177.95 123.432 177.63 123.144L177.966 122.6C178.008 122.531 178.059 122.477 178.118 122.44C178.176 122.403 178.251 122.384 178.342 122.384C178.438 122.384 178.539 122.421 178.646 122.496C178.752 122.571 178.88 122.653 179.03 122.744C179.184 122.835 179.371 122.917 179.59 122.992C179.808 123.067 180.08 123.104 180.406 123.104C180.683 123.104 180.926 123.069 181.134 123C181.342 122.925 181.515 122.827 181.654 122.704C181.792 122.581 181.894 122.44 181.958 122.28C182.027 122.12 182.062 121.949 182.062 121.768C182.062 121.544 182 121.36 181.878 121.216C181.76 121.067 181.603 120.941 181.406 120.84C181.208 120.733 180.982 120.643 180.726 120.568C180.475 120.488 180.216 120.405 179.95 120.32C179.688 120.235 179.43 120.139 179.174 120.032C178.923 119.92 178.699 119.781 178.502 119.616C178.304 119.451 178.144 119.248 178.022 119.008C177.904 118.763 177.846 118.467 177.846 118.12C177.846 117.811 177.91 117.515 178.038 117.232C178.166 116.944 178.352 116.693 178.598 116.48C178.843 116.261 179.144 116.088 179.502 115.96C179.859 115.832 180.267 115.768 180.726 115.768C181.259 115.768 181.736 115.853 182.158 116.024C182.584 116.189 182.952 116.419 183.262 116.712L182.942 117.232ZM107.488 147.768C107.931 147.768 108.312 147.717 108.632 147.616C108.952 147.515 109.213 147.373 109.416 147.192C109.624 147.005 109.776 146.787 109.872 146.536C109.968 146.28 110.016 146 110.016 145.696C110.016 145.104 109.805 144.637 109.384 144.296C108.963 143.949 108.331 143.776 107.488 143.776H105.008V147.768H107.488ZM105.008 138.76V142.672H107.056C107.493 142.672 107.872 142.624 108.192 142.528C108.517 142.432 108.784 142.299 108.992 142.128C109.205 141.957 109.363 141.752 109.464 141.512C109.565 141.267 109.616 141 109.616 140.712C109.616 140.035 109.413 139.541 109.008 139.232C108.603 138.917 107.973 138.76 107.12 138.76H105.008ZM107.12 137.536C107.824 137.536 108.429 137.605 108.936 137.744C109.448 137.883 109.867 138.08 110.192 138.336C110.523 138.592 110.765 138.907 110.92 139.28C111.075 139.648 111.152 140.064 111.152 140.528C111.152 140.811 111.107 141.083 111.016 141.344C110.931 141.6 110.8 141.84 110.624 142.064C110.448 142.288 110.224 142.491 109.952 142.672C109.685 142.848 109.371 142.992 109.008 143.104C109.851 143.264 110.483 143.565 110.904 144.008C111.331 144.445 111.544 145.021 111.544 145.736C111.544 146.221 111.453 146.664 111.272 147.064C111.096 147.464 110.835 147.808 110.488 148.096C110.147 148.384 109.725 148.608 109.224 148.768C108.723 148.923 108.152 149 107.512 149H103.464V137.536H107.12ZM114.652 142.52C114.908 141.965 115.223 141.533 115.596 141.224C115.969 140.909 116.425 140.752 116.964 140.752C117.135 140.752 117.297 140.771 117.452 140.808C117.612 140.845 117.753 140.904 117.876 140.984L117.772 142.048C117.74 142.181 117.66 142.248 117.532 142.248C117.457 142.248 117.348 142.232 117.204 142.2C117.06 142.168 116.897 142.152 116.716 142.152C116.46 142.152 116.231 142.189 116.028 142.264C115.831 142.339 115.652 142.451 115.492 142.6C115.337 142.744 115.196 142.925 115.068 143.144C114.945 143.357 114.833 143.603 114.732 143.88V149H113.3V140.896H114.116C114.271 140.896 114.377 140.925 114.436 140.984C114.495 141.043 114.535 141.144 114.556 141.288L114.652 142.52ZM123.395 145.352C122.739 145.373 122.179 145.427 121.715 145.512C121.256 145.592 120.88 145.699 120.587 145.832C120.299 145.965 120.088 146.123 119.955 146.304C119.827 146.485 119.763 146.688 119.763 146.912C119.763 147.125 119.798 147.309 119.867 147.464C119.936 147.619 120.03 147.747 120.147 147.848C120.27 147.944 120.411 148.016 120.571 148.064C120.736 148.107 120.912 148.128 121.099 148.128C121.35 148.128 121.579 148.104 121.787 148.056C121.995 148.003 122.19 147.928 122.371 147.832C122.558 147.736 122.734 147.621 122.899 147.488C123.07 147.355 123.235 147.203 123.395 147.032V145.352ZM118.795 142.04C119.243 141.608 119.726 141.285 120.243 141.072C120.76 140.859 121.334 140.752 121.963 140.752C122.416 140.752 122.819 140.827 123.171 140.976C123.523 141.125 123.819 141.333 124.059 141.6C124.299 141.867 124.48 142.189 124.603 142.568C124.726 142.947 124.787 143.363 124.787 143.816V149H124.155C124.016 149 123.91 148.979 123.835 148.936C123.76 148.888 123.702 148.797 123.659 148.664L123.499 147.896C123.286 148.093 123.078 148.269 122.875 148.424C122.672 148.573 122.459 148.701 122.235 148.808C122.011 148.909 121.771 148.987 121.515 149.04C121.264 149.099 120.984 149.128 120.675 149.128C120.36 149.128 120.064 149.085 119.787 149C119.51 148.909 119.267 148.776 119.059 148.6C118.856 148.424 118.694 148.203 118.571 147.936C118.454 147.664 118.395 147.344 118.395 146.976C118.395 146.656 118.483 146.349 118.659 146.056C118.835 145.757 119.12 145.493 119.515 145.264C119.91 145.035 120.424 144.848 121.059 144.704C121.694 144.555 122.472 144.469 123.395 144.448V143.816C123.395 143.187 123.259 142.712 122.987 142.392C122.715 142.067 122.318 141.904 121.795 141.904C121.443 141.904 121.147 141.949 120.907 142.04C120.672 142.125 120.467 142.224 120.291 142.336C120.12 142.443 119.971 142.541 119.843 142.632C119.72 142.717 119.598 142.76 119.475 142.76C119.379 142.76 119.296 142.736 119.227 142.688C119.158 142.635 119.099 142.571 119.051 142.496L118.795 142.04ZM128.3 142.072C128.476 141.875 128.663 141.696 128.86 141.536C129.057 141.376 129.265 141.24 129.484 141.128C129.708 141.011 129.943 140.923 130.188 140.864C130.439 140.8 130.708 140.768 130.996 140.768C131.439 140.768 131.828 140.843 132.164 140.992C132.505 141.136 132.788 141.344 133.012 141.616C133.241 141.883 133.415 142.205 133.532 142.584C133.649 142.963 133.708 143.381 133.708 143.84V149H132.276V143.84C132.276 143.227 132.135 142.752 131.852 142.416C131.575 142.075 131.151 141.904 130.58 141.904C130.159 141.904 129.764 142.005 129.396 142.208C129.033 142.411 128.697 142.685 128.388 143.032V149H126.956V140.896H127.812C128.015 140.896 128.14 140.995 128.188 141.192L128.3 142.072ZM141.158 142.824C140.891 142.467 140.603 142.219 140.294 142.08C139.985 141.936 139.638 141.864 139.254 141.864C138.502 141.864 137.923 142.133 137.518 142.672C137.113 143.211 136.91 143.979 136.91 144.976C136.91 145.504 136.955 145.957 137.046 146.336C137.137 146.709 137.27 147.019 137.446 147.264C137.622 147.504 137.838 147.68 138.094 147.792C138.35 147.904 138.641 147.96 138.966 147.96C139.435 147.96 139.843 147.853 140.19 147.64C140.542 147.427 140.865 147.125 141.158 146.736V142.824ZM142.582 137.216V149H141.734C141.531 149 141.403 148.901 141.35 148.704L141.222 147.72C140.875 148.136 140.481 148.472 140.038 148.728C139.595 148.984 139.083 149.112 138.502 149.112C138.038 149.112 137.617 149.024 137.238 148.848C136.859 148.667 136.537 148.403 136.27 148.056C136.003 147.709 135.798 147.277 135.654 146.76C135.51 146.243 135.438 145.648 135.438 144.976C135.438 144.379 135.518 143.824 135.678 143.312C135.838 142.795 136.067 142.347 136.366 141.968C136.665 141.589 137.03 141.293 137.462 141.08C137.899 140.861 138.39 140.752 138.934 140.752C139.43 140.752 139.854 140.837 140.206 141.008C140.563 141.173 140.881 141.405 141.158 141.704V137.216H142.582ZM146.335 140.896V149H144.911V140.896H146.335ZM146.639 138.352C146.639 138.491 146.61 138.621 146.551 138.744C146.498 138.861 146.423 138.968 146.327 139.064C146.236 139.155 146.127 139.227 145.999 139.28C145.876 139.333 145.746 139.36 145.607 139.36C145.468 139.36 145.338 139.333 145.215 139.28C145.098 139.227 144.994 139.155 144.903 139.064C144.812 138.968 144.74 138.861 144.687 138.744C144.634 138.621 144.607 138.491 144.607 138.352C144.607 138.213 144.634 138.083 144.687 137.96C144.74 137.832 144.812 137.723 144.903 137.632C144.994 137.536 145.098 137.461 145.215 137.408C145.338 137.355 145.468 137.328 145.607 137.328C145.746 137.328 145.876 137.355 145.999 137.408C146.127 137.461 146.236 137.536 146.327 137.632C146.423 137.723 146.498 137.832 146.551 137.96C146.61 138.083 146.639 138.213 146.639 138.352ZM150.019 142.072C150.195 141.875 150.382 141.696 150.579 141.536C150.776 141.376 150.984 141.24 151.203 141.128C151.427 141.011 151.662 140.923 151.907 140.864C152.158 140.8 152.427 140.768 152.715 140.768C153.158 140.768 153.547 140.843 153.883 140.992C154.224 141.136 154.507 141.344 154.731 141.616C154.96 141.883 155.134 142.205 155.251 142.584C155.368 142.963 155.427 143.381 155.427 143.84V149H153.995V143.84C153.995 143.227 153.854 142.752 153.571 142.416C153.294 142.075 152.87 141.904 152.299 141.904C151.878 141.904 151.483 142.005 151.115 142.208C150.752 142.411 150.416 142.685 150.107 143.032V149H148.675V140.896H149.531C149.734 140.896 149.859 140.995 149.907 141.192L150.019 142.072ZM160.421 145.04C160.709 145.04 160.962 145 161.181 144.92C161.399 144.84 161.583 144.728 161.733 144.584C161.882 144.44 161.994 144.269 162.069 144.072C162.143 143.869 162.181 143.648 162.181 143.408C162.181 142.912 162.029 142.517 161.725 142.224C161.426 141.931 160.991 141.784 160.421 141.784C159.845 141.784 159.405 141.931 159.101 142.224C158.802 142.517 158.653 142.912 158.653 143.408C158.653 143.648 158.69 143.869 158.765 144.072C158.845 144.269 158.959 144.44 159.109 144.584C159.258 144.728 159.442 144.84 159.661 144.92C159.879 145 160.133 145.04 160.421 145.04ZM162.989 149.44C162.989 149.243 162.933 149.083 162.821 148.96C162.709 148.837 162.557 148.741 162.365 148.672C162.178 148.603 161.959 148.555 161.709 148.528C161.458 148.496 161.191 148.472 160.909 148.456C160.631 148.44 160.349 148.424 160.061 148.408C159.773 148.392 159.495 148.365 159.229 148.328C158.93 148.467 158.685 148.643 158.493 148.856C158.306 149.064 158.213 149.309 158.213 149.592C158.213 149.773 158.258 149.941 158.349 150.096C158.445 150.256 158.589 150.392 158.781 150.504C158.973 150.621 159.213 150.712 159.501 150.776C159.794 150.845 160.138 150.88 160.533 150.88C160.917 150.88 161.261 150.845 161.565 150.776C161.869 150.707 162.125 150.608 162.333 150.48C162.546 150.352 162.709 150.2 162.821 150.024C162.933 149.848 162.989 149.653 162.989 149.44ZM164.437 141.216V141.744C164.437 141.92 164.325 142.032 164.101 142.08L163.181 142.2C163.362 142.552 163.453 142.941 163.453 143.368C163.453 143.763 163.375 144.123 163.221 144.448C163.071 144.768 162.863 145.043 162.597 145.272C162.33 145.501 162.01 145.677 161.637 145.8C161.263 145.923 160.858 145.984 160.421 145.984C160.042 145.984 159.685 145.939 159.349 145.848C159.178 145.955 159.047 146.069 158.957 146.192C158.866 146.309 158.821 146.429 158.821 146.552C158.821 146.744 158.898 146.891 159.053 146.992C159.213 147.088 159.421 147.157 159.677 147.2C159.933 147.243 160.223 147.269 160.549 147.28C160.879 147.291 161.215 147.309 161.557 147.336C161.903 147.357 162.239 147.397 162.565 147.456C162.895 147.515 163.189 147.611 163.445 147.744C163.701 147.877 163.906 148.061 164.061 148.296C164.221 148.531 164.301 148.835 164.301 149.208C164.301 149.555 164.213 149.891 164.037 150.216C163.866 150.541 163.618 150.829 163.293 151.08C162.967 151.336 162.567 151.539 162.093 151.688C161.623 151.843 161.093 151.92 160.501 151.92C159.909 151.92 159.391 151.861 158.949 151.744C158.506 151.627 158.138 151.469 157.845 151.272C157.551 151.075 157.33 150.845 157.181 150.584C157.037 150.328 156.965 150.059 156.965 149.776C156.965 149.376 157.09 149.037 157.341 148.76C157.591 148.483 157.935 148.261 158.373 148.096C158.133 147.989 157.941 147.848 157.797 147.672C157.658 147.491 157.589 147.248 157.589 146.944C157.589 146.827 157.61 146.707 157.653 146.584C157.695 146.456 157.759 146.331 157.845 146.208C157.935 146.08 158.045 145.96 158.173 145.848C158.301 145.736 158.45 145.637 158.621 145.552C158.221 145.328 157.909 145.032 157.685 144.664C157.461 144.291 157.349 143.859 157.349 143.368C157.349 142.973 157.423 142.616 157.573 142.296C157.727 141.971 157.941 141.696 158.213 141.472C158.485 141.243 158.807 141.067 159.181 140.944C159.559 140.821 159.973 140.76 160.421 140.76C160.773 140.76 161.101 140.8 161.405 140.88C161.709 140.955 161.986 141.067 162.237 141.216H164.437ZM172.827 145.04C173.115 145.04 173.368 145 173.587 144.92C173.806 144.84 173.99 144.728 174.139 144.584C174.288 144.44 174.4 144.269 174.475 144.072C174.55 143.869 174.587 143.648 174.587 143.408C174.587 142.912 174.435 142.517 174.131 142.224C173.832 141.931 173.398 141.784 172.827 141.784C172.251 141.784 171.811 141.931 171.507 142.224C171.208 142.517 171.059 142.912 171.059 143.408C171.059 143.648 171.096 143.869 171.171 144.072C171.251 144.269 171.366 144.44 171.515 144.584C171.664 144.728 171.848 144.84 172.067 144.92C172.286 145 172.539 145.04 172.827 145.04ZM175.395 149.44C175.395 149.243 175.339 149.083 175.227 148.96C175.115 148.837 174.963 148.741 174.771 148.672C174.584 148.603 174.366 148.555 174.115 148.528C173.864 148.496 173.598 148.472 173.315 148.456C173.038 148.44 172.755 148.424 172.467 148.408C172.179 148.392 171.902 148.365 171.635 148.328C171.336 148.467 171.091 148.643 170.899 148.856C170.712 149.064 170.619 149.309 170.619 149.592C170.619 149.773 170.664 149.941 170.755 150.096C170.851 150.256 170.995 150.392 171.187 150.504C171.379 150.621 171.619 150.712 171.907 150.776C172.2 150.845 172.544 150.88 172.939 150.88C173.323 150.88 173.667 150.845 173.971 150.776C174.275 150.707 174.531 150.608 174.739 150.48C174.952 150.352 175.115 150.2 175.227 150.024C175.339 149.848 175.395 149.653 175.395 149.44ZM176.843 141.216V141.744C176.843 141.92 176.731 142.032 176.507 142.08L175.587 142.2C175.768 142.552 175.859 142.941 175.859 143.368C175.859 143.763 175.782 144.123 175.627 144.448C175.478 144.768 175.27 145.043 175.003 145.272C174.736 145.501 174.416 145.677 174.043 145.8C173.67 145.923 173.264 145.984 172.827 145.984C172.448 145.984 172.091 145.939 171.755 145.848C171.584 145.955 171.454 146.069 171.363 146.192C171.272 146.309 171.227 146.429 171.227 146.552C171.227 146.744 171.304 146.891 171.459 146.992C171.619 147.088 171.827 147.157 172.083 147.2C172.339 147.243 172.63 147.269 172.955 147.28C173.286 147.291 173.622 147.309 173.963 147.336C174.31 147.357 174.646 147.397 174.971 147.456C175.302 147.515 175.595 147.611 175.851 147.744C176.107 147.877 176.312 148.061 176.467 148.296C176.627 148.531 176.707 148.835 176.707 149.208C176.707 149.555 176.619 149.891 176.443 150.216C176.272 150.541 176.024 150.829 175.699 151.08C175.374 151.336 174.974 151.539 174.499 151.688C174.03 151.843 173.499 151.92 172.907 151.92C172.315 151.92 171.798 151.861 171.355 151.744C170.912 151.627 170.544 151.469 170.251 151.272C169.958 151.075 169.736 150.845 169.587 150.584C169.443 150.328 169.371 150.059 169.371 149.776C169.371 149.376 169.496 149.037 169.747 148.76C169.998 148.483 170.342 148.261 170.779 148.096C170.539 147.989 170.347 147.848 170.203 147.672C170.064 147.491 169.995 147.248 169.995 146.944C169.995 146.827 170.016 146.707 170.059 146.584C170.102 146.456 170.166 146.331 170.251 146.208C170.342 146.08 170.451 145.96 170.579 145.848C170.707 145.736 170.856 145.637 171.027 145.552C170.627 145.328 170.315 145.032 170.091 144.664C169.867 144.291 169.755 143.859 169.755 143.368C169.755 142.973 169.83 142.616 169.979 142.296C170.134 141.971 170.347 141.696 170.619 141.472C170.891 141.243 171.214 141.067 171.587 140.944C171.966 140.821 172.379 140.76 172.827 140.76C173.179 140.76 173.507 140.8 173.811 140.88C174.115 140.955 174.392 141.067 174.643 141.216H176.843ZM184.98 140.896V149H184.132C183.929 149 183.801 148.901 183.748 148.704L183.636 147.832C183.284 148.221 182.889 148.536 182.452 148.776C182.014 149.011 181.513 149.128 180.948 149.128C180.505 149.128 180.113 149.056 179.772 148.912C179.436 148.763 179.153 148.555 178.924 148.288C178.694 148.021 178.521 147.699 178.404 147.32C178.292 146.941 178.236 146.523 178.236 146.064V140.896H179.66V146.064C179.66 146.677 179.798 147.152 180.076 147.488C180.358 147.824 180.788 147.992 181.364 147.992C181.785 147.992 182.177 147.893 182.54 147.696C182.908 147.493 183.246 147.216 183.556 146.864V140.896H184.98ZM188.741 140.896V149H187.317V140.896H188.741ZM189.045 138.352C189.045 138.491 189.016 138.621 188.957 138.744C188.904 138.861 188.829 138.968 188.733 139.064C188.643 139.155 188.533 139.227 188.405 139.28C188.283 139.333 188.152 139.36 188.013 139.36C187.875 139.36 187.744 139.333 187.621 139.28C187.504 139.227 187.4 139.155 187.309 139.064C187.219 138.968 187.147 138.861 187.093 138.744C187.04 138.621 187.013 138.491 187.013 138.352C187.013 138.213 187.04 138.083 187.093 137.96C187.147 137.832 187.219 137.723 187.309 137.632C187.4 137.536 187.504 137.461 187.621 137.408C187.744 137.355 187.875 137.328 188.013 137.328C188.152 137.328 188.283 137.355 188.405 137.408C188.533 137.461 188.643 137.536 188.733 137.632C188.829 137.723 188.904 137.832 188.957 137.96C189.016 138.083 189.045 138.213 189.045 138.352ZM196.361 142.824C196.094 142.467 195.806 142.219 195.497 142.08C195.188 141.936 194.841 141.864 194.457 141.864C193.705 141.864 193.126 142.133 192.721 142.672C192.316 143.211 192.113 143.979 192.113 144.976C192.113 145.504 192.158 145.957 192.249 146.336C192.34 146.709 192.473 147.019 192.649 147.264C192.825 147.504 193.041 147.68 193.297 147.792C193.553 147.904 193.844 147.96 194.169 147.96C194.638 147.96 195.046 147.853 195.393 147.64C195.745 147.427 196.068 147.125 196.361 146.736V142.824ZM197.785 137.216V149H196.937C196.734 149 196.606 148.901 196.553 148.704L196.425 147.72C196.078 148.136 195.684 148.472 195.241 148.728C194.798 148.984 194.286 149.112 193.705 149.112C193.241 149.112 192.82 149.024 192.441 148.848C192.062 148.667 191.74 148.403 191.473 148.056C191.206 147.709 191.001 147.277 190.857 146.76C190.713 146.243 190.641 145.648 190.641 144.976C190.641 144.379 190.721 143.824 190.881 143.312C191.041 142.795 191.27 142.347 191.569 141.968C191.868 141.589 192.233 141.293 192.665 141.08C193.102 140.861 193.593 140.752 194.137 140.752C194.633 140.752 195.057 140.837 195.409 141.008C195.766 141.173 196.084 141.405 196.361 141.704V137.216H197.785ZM205.458 144.064C205.458 143.733 205.41 143.432 205.314 143.16C205.224 142.883 205.088 142.645 204.906 142.448C204.73 142.245 204.514 142.091 204.258 141.984C204.002 141.872 203.712 141.816 203.386 141.816C202.704 141.816 202.162 142.016 201.762 142.416C201.368 142.811 201.122 143.36 201.026 144.064H205.458ZM206.61 147.864C206.434 148.077 206.224 148.264 205.978 148.424C205.733 148.579 205.469 148.707 205.186 148.808C204.909 148.909 204.621 148.984 204.322 149.032C204.024 149.085 203.728 149.112 203.434 149.112C202.874 149.112 202.357 149.019 201.882 148.832C201.413 148.64 201.005 148.363 200.658 148C200.317 147.632 200.05 147.179 199.858 146.64C199.666 146.101 199.57 145.483 199.57 144.784C199.57 144.219 199.656 143.691 199.826 143.2C200.002 142.709 200.253 142.285 200.578 141.928C200.904 141.565 201.301 141.283 201.77 141.08C202.24 140.872 202.768 140.768 203.354 140.768C203.84 140.768 204.288 140.851 204.698 141.016C205.114 141.176 205.472 141.411 205.77 141.72C206.074 142.024 206.312 142.403 206.482 142.856C206.653 143.304 206.738 143.816 206.738 144.392C206.738 144.616 206.714 144.765 206.666 144.84C206.618 144.915 206.528 144.952 206.394 144.952H200.978C200.994 145.464 201.064 145.909 201.186 146.288C201.314 146.667 201.49 146.984 201.714 147.24C201.938 147.491 202.205 147.68 202.514 147.808C202.824 147.931 203.17 147.992 203.554 147.992C203.912 147.992 204.218 147.952 204.474 147.872C204.736 147.787 204.96 147.696 205.146 147.6C205.333 147.504 205.488 147.416 205.61 147.336C205.738 147.251 205.848 147.208 205.938 147.208C206.056 147.208 206.146 147.253 206.21 147.344L206.61 147.864ZM105.016 174H103.464V162.536H105.016V174ZM108.831 167.072C109.007 166.875 109.194 166.696 109.391 166.536C109.589 166.376 109.797 166.24 110.015 166.128C110.239 166.011 110.474 165.923 110.719 165.864C110.97 165.8 111.239 165.768 111.527 165.768C111.97 165.768 112.359 165.843 112.695 165.992C113.037 166.136 113.319 166.344 113.543 166.616C113.773 166.883 113.946 167.205 114.063 167.584C114.181 167.963 114.239 168.381 114.239 168.84V174H112.807V168.84C112.807 168.227 112.666 167.752 112.383 167.416C112.106 167.075 111.682 166.904 111.111 166.904C110.69 166.904 110.295 167.005 109.927 167.208C109.565 167.411 109.229 167.685 108.919 168.032V174H107.487V165.896H108.343C108.546 165.896 108.671 165.995 108.719 166.192L108.831 167.072ZM118.788 174.128C118.148 174.128 117.655 173.949 117.308 173.592C116.967 173.235 116.796 172.72 116.796 172.048V167.088H115.82C115.735 167.088 115.663 167.064 115.604 167.016C115.545 166.963 115.516 166.883 115.516 166.776V166.208L116.844 166.04L117.172 163.536C117.188 163.456 117.223 163.392 117.276 163.344C117.335 163.291 117.409 163.264 117.5 163.264H118.22V166.056H120.564V167.088H118.22V171.952C118.22 172.293 118.303 172.547 118.468 172.712C118.633 172.877 118.847 172.96 119.108 172.96C119.257 172.96 119.385 172.941 119.492 172.904C119.604 172.861 119.7 172.816 119.78 172.768C119.86 172.72 119.927 172.677 119.98 172.64C120.039 172.597 120.089 172.576 120.132 172.576C120.207 172.576 120.273 172.621 120.332 172.712L120.748 173.392C120.503 173.621 120.207 173.803 119.86 173.936C119.513 174.064 119.156 174.128 118.788 174.128ZM127.411 169.064C127.411 168.733 127.363 168.432 127.267 168.16C127.177 167.883 127.041 167.645 126.859 167.448C126.683 167.245 126.467 167.091 126.211 166.984C125.955 166.872 125.665 166.816 125.339 166.816C124.657 166.816 124.115 167.016 123.715 167.416C123.321 167.811 123.075 168.36 122.979 169.064H127.411ZM128.563 172.864C128.387 173.077 128.177 173.264 127.931 173.424C127.686 173.579 127.422 173.707 127.139 173.808C126.862 173.909 126.574 173.984 126.275 174.032C125.977 174.085 125.681 174.112 125.387 174.112C124.827 174.112 124.31 174.019 123.835 173.832C123.366 173.64 122.958 173.363 122.611 173C122.27 172.632 122.003 172.179 121.811 171.64C121.619 171.101 121.523 170.483 121.523 169.784C121.523 169.219 121.609 168.691 121.779 168.2C121.955 167.709 122.206 167.285 122.531 166.928C122.857 166.565 123.254 166.283 123.723 166.08C124.193 165.872 124.721 165.768 125.307 165.768C125.793 165.768 126.241 165.851 126.651 166.016C127.067 166.176 127.425 166.411 127.723 166.72C128.027 167.024 128.265 167.403 128.435 167.856C128.606 168.304 128.691 168.816 128.691 169.392C128.691 169.616 128.667 169.765 128.619 169.84C128.571 169.915 128.481 169.952 128.347 169.952H122.931C122.947 170.464 123.017 170.909 123.139 171.288C123.267 171.667 123.443 171.984 123.667 172.24C123.891 172.491 124.158 172.68 124.467 172.808C124.777 172.931 125.123 172.992 125.507 172.992C125.865 172.992 126.171 172.952 126.427 172.872C126.689 172.787 126.913 172.696 127.099 172.6C127.286 172.504 127.441 172.416 127.563 172.336C127.691 172.251 127.801 172.208 127.891 172.208C128.009 172.208 128.099 172.253 128.163 172.344L128.563 172.864ZM131.793 167.52C132.049 166.965 132.363 166.533 132.737 166.224C133.11 165.909 133.566 165.752 134.105 165.752C134.275 165.752 134.438 165.771 134.593 165.808C134.753 165.845 134.894 165.904 135.017 165.984L134.913 167.048C134.881 167.181 134.801 167.248 134.673 167.248C134.598 167.248 134.489 167.232 134.345 167.2C134.201 167.168 134.038 167.152 133.857 167.152C133.601 167.152 133.371 167.189 133.169 167.264C132.971 167.339 132.793 167.451 132.633 167.6C132.478 167.744 132.337 167.925 132.209 168.144C132.086 168.357 131.974 168.603 131.873 168.88V174H130.441V165.896H131.257C131.411 165.896 131.518 165.925 131.577 165.984C131.635 166.043 131.675 166.144 131.697 166.288L131.793 167.52ZM140.536 170.352C139.88 170.373 139.32 170.427 138.856 170.512C138.397 170.592 138.021 170.699 137.728 170.832C137.44 170.965 137.229 171.123 137.096 171.304C136.968 171.485 136.904 171.688 136.904 171.912C136.904 172.125 136.938 172.309 137.008 172.464C137.077 172.619 137.17 172.747 137.288 172.848C137.41 172.944 137.552 173.016 137.712 173.064C137.877 173.107 138.053 173.128 138.24 173.128C138.49 173.128 138.72 173.104 138.928 173.056C139.136 173.003 139.33 172.928 139.512 172.832C139.698 172.736 139.874 172.621 140.04 172.488C140.21 172.355 140.376 172.203 140.536 172.032V170.352ZM135.936 167.04C136.384 166.608 136.866 166.285 137.384 166.072C137.901 165.859 138.474 165.752 139.104 165.752C139.557 165.752 139.96 165.827 140.312 165.976C140.664 166.125 140.96 166.333 141.2 166.6C141.44 166.867 141.621 167.189 141.744 167.568C141.866 167.947 141.928 168.363 141.928 168.816V174H141.296C141.157 174 141.05 173.979 140.976 173.936C140.901 173.888 140.842 173.797 140.8 173.664L140.64 172.896C140.426 173.093 140.218 173.269 140.016 173.424C139.813 173.573 139.6 173.701 139.376 173.808C139.152 173.909 138.912 173.987 138.656 174.04C138.405 174.099 138.125 174.128 137.816 174.128C137.501 174.128 137.205 174.085 136.928 174C136.65 173.909 136.408 173.776 136.2 173.6C135.997 173.424 135.834 173.203 135.712 172.936C135.594 172.664 135.536 172.344 135.536 171.976C135.536 171.656 135.624 171.349 135.8 171.056C135.976 170.757 136.261 170.493 136.656 170.264C137.05 170.035 137.565 169.848 138.2 169.704C138.834 169.555 139.613 169.469 140.536 169.448V168.816C140.536 168.187 140.4 167.712 140.128 167.392C139.856 167.067 139.458 166.904 138.936 166.904C138.584 166.904 138.288 166.949 138.048 167.04C137.813 167.125 137.608 167.224 137.432 167.336C137.261 167.443 137.112 167.541 136.984 167.632C136.861 167.717 136.738 167.76 136.616 167.76C136.52 167.76 136.437 167.736 136.368 167.688C136.298 167.635 136.24 167.571 136.192 167.496L135.936 167.04ZM149.737 167.336C149.694 167.395 149.651 167.44 149.609 167.472C149.566 167.504 149.507 167.52 149.433 167.52C149.353 167.52 149.265 167.488 149.169 167.424C149.073 167.355 148.953 167.28 148.809 167.2C148.67 167.12 148.497 167.048 148.289 166.984C148.086 166.915 147.835 166.88 147.537 166.88C147.137 166.88 146.785 166.952 146.481 167.096C146.177 167.235 145.921 167.437 145.713 167.704C145.51 167.971 145.355 168.293 145.249 168.672C145.147 169.051 145.097 169.475 145.097 169.944C145.097 170.435 145.153 170.872 145.265 171.256C145.377 171.635 145.534 171.955 145.737 172.216C145.945 172.472 146.193 172.669 146.481 172.808C146.774 172.941 147.102 173.008 147.465 173.008C147.811 173.008 148.097 172.968 148.321 172.888C148.545 172.803 148.729 172.709 148.873 172.608C149.022 172.507 149.145 172.416 149.241 172.336C149.342 172.251 149.441 172.208 149.537 172.208C149.654 172.208 149.745 172.253 149.809 172.344L150.209 172.864C150.033 173.083 149.833 173.269 149.609 173.424C149.385 173.579 149.142 173.709 148.881 173.816C148.625 173.917 148.355 173.992 148.073 174.04C147.79 174.088 147.502 174.112 147.209 174.112C146.702 174.112 146.23 174.019 145.793 173.832C145.361 173.645 144.985 173.376 144.665 173.024C144.345 172.667 144.094 172.229 143.913 171.712C143.731 171.195 143.641 170.605 143.641 169.944C143.641 169.341 143.723 168.784 143.889 168.272C144.059 167.76 144.305 167.32 144.625 166.952C144.95 166.579 145.347 166.288 145.817 166.08C146.291 165.872 146.835 165.768 147.449 165.768C148.019 165.768 148.521 165.861 148.953 166.048C149.39 166.229 149.777 166.488 150.113 166.824L149.737 167.336ZM159.257 174H157.833V167.088H153.657V171.952C153.657 172.293 153.74 172.547 153.905 172.712C154.071 172.877 154.284 172.96 154.545 172.96C154.695 172.96 154.823 172.941 154.929 172.904C155.041 172.861 155.137 172.816 155.217 172.768C155.297 172.72 155.364 172.677 155.417 172.64C155.476 172.597 155.527 172.576 155.569 172.576C155.644 172.576 155.711 172.621 155.769 172.712L156.185 173.392C155.94 173.621 155.644 173.803 155.297 173.936C154.951 174.064 154.593 174.128 154.225 174.128C153.585 174.128 153.092 173.949 152.745 173.592C152.404 173.235 152.233 172.72 152.233 172.048V167.088H151.257C151.172 167.088 151.1 167.064 151.041 167.016C150.983 166.963 150.953 166.883 150.953 166.776V166.208L152.281 166.032L152.609 163.536C152.625 163.456 152.66 163.392 152.713 163.344C152.772 163.291 152.847 163.264 152.937 163.264H153.657V166.056H159.257V174ZM159.609 163.296C159.609 163.435 159.58 163.565 159.521 163.688C159.468 163.805 159.393 163.909 159.297 164C159.207 164.091 159.1 164.163 158.977 164.216C158.855 164.269 158.724 164.296 158.585 164.296C158.447 164.296 158.316 164.269 158.193 164.216C158.076 164.163 157.972 164.091 157.881 164C157.791 163.909 157.719 163.805 157.665 163.688C157.612 163.565 157.585 163.435 157.585 163.296C157.585 163.157 157.612 163.027 157.665 162.904C157.719 162.776 157.791 162.667 157.881 162.576C157.972 162.48 158.076 162.405 158.193 162.352C158.316 162.299 158.447 162.272 158.585 162.272C158.724 162.272 158.855 162.299 158.977 162.352C159.1 162.405 159.207 162.48 159.297 162.576C159.393 162.667 159.468 162.776 159.521 162.904C159.58 163.027 159.609 163.157 159.609 163.296ZM168.541 165.896L165.237 174H163.957L160.653 165.896H161.813C161.93 165.896 162.026 165.925 162.101 165.984C162.175 166.043 162.226 166.112 162.253 166.192L164.309 171.408C164.373 171.605 164.429 171.797 164.477 171.984C164.525 172.171 164.57 172.357 164.613 172.544C164.655 172.357 164.701 172.171 164.749 171.984C164.797 171.797 164.855 171.605 164.925 171.408L167.005 166.192C167.037 166.107 167.09 166.037 167.165 165.984C167.239 165.925 167.327 165.896 167.429 165.896H168.541ZM175.052 169.064C175.052 168.733 175.004 168.432 174.908 168.16C174.817 167.883 174.681 167.645 174.5 167.448C174.324 167.245 174.108 167.091 173.852 166.984C173.596 166.872 173.305 166.816 172.98 166.816C172.297 166.816 171.756 167.016 171.356 167.416C170.961 167.811 170.716 168.36 170.62 169.064H175.052ZM176.204 172.864C176.028 173.077 175.817 173.264 175.572 173.424C175.327 173.579 175.063 173.707 174.78 173.808C174.503 173.909 174.215 173.984 173.916 174.032C173.617 174.085 173.321 174.112 173.028 174.112C172.468 174.112 171.951 174.019 171.476 173.832C171.007 173.64 170.599 173.363 170.252 173C169.911 172.632 169.644 172.179 169.452 171.64C169.26 171.101 169.164 170.483 169.164 169.784C169.164 169.219 169.249 168.691 169.42 168.2C169.596 167.709 169.847 167.285 170.172 166.928C170.497 166.565 170.895 166.283 171.364 166.08C171.833 165.872 172.361 165.768 172.948 165.768C173.433 165.768 173.881 165.851 174.292 166.016C174.708 166.176 175.065 166.411 175.364 166.72C175.668 167.024 175.905 167.403 176.076 167.856C176.247 168.304 176.332 168.816 176.332 169.392C176.332 169.616 176.308 169.765 176.26 169.84C176.212 169.915 176.121 169.952 175.988 169.952H170.572C170.588 170.464 170.657 170.909 170.78 171.288C170.908 171.667 171.084 171.984 171.308 172.24C171.532 172.491 171.799 172.68 172.108 172.808C172.417 172.931 172.764 172.992 173.148 172.992C173.505 172.992 173.812 172.952 174.068 172.872C174.329 172.787 174.553 172.696 174.74 172.6C174.927 172.504 175.081 172.416 175.204 172.336C175.332 172.251 175.441 172.208 175.532 172.208C175.649 172.208 175.74 172.253 175.804 172.344L176.204 172.864ZM183.607 172.048C183.868 172.4 184.154 172.648 184.463 172.792C184.772 172.936 185.119 173.008 185.503 173.008C186.26 173.008 186.842 172.739 187.247 172.2C187.652 171.661 187.855 170.893 187.855 169.896C187.855 169.368 187.807 168.915 187.711 168.536C187.62 168.157 187.487 167.848 187.311 167.608C187.135 167.363 186.919 167.184 186.663 167.072C186.407 166.96 186.116 166.904 185.791 166.904C185.327 166.904 184.919 167.011 184.567 167.224C184.22 167.437 183.9 167.739 183.607 168.128V172.048ZM183.535 167.152C183.876 166.731 184.271 166.392 184.719 166.136C185.167 165.88 185.679 165.752 186.255 165.752C186.724 165.752 187.148 165.843 187.527 166.024C187.906 166.2 188.228 166.464 188.495 166.816C188.762 167.163 188.967 167.595 189.111 168.112C189.255 168.629 189.327 169.224 189.327 169.896C189.327 170.493 189.247 171.051 189.087 171.568C188.927 172.08 188.695 172.525 188.391 172.904C188.092 173.277 187.724 173.573 187.287 173.792C186.855 174.005 186.367 174.112 185.823 174.112C185.327 174.112 184.9 174.029 184.543 173.864C184.191 173.693 183.879 173.459 183.607 173.16V176.744H182.175V165.896H183.031C183.234 165.896 183.359 165.995 183.407 166.192L183.535 167.152ZM192.496 167.52C192.752 166.965 193.066 166.533 193.44 166.224C193.813 165.909 194.269 165.752 194.808 165.752C194.978 165.752 195.141 165.771 195.296 165.808C195.456 165.845 195.597 165.904 195.72 165.984L195.616 167.048C195.584 167.181 195.504 167.248 195.376 167.248C195.301 167.248 195.192 167.232 195.048 167.2C194.904 167.168 194.741 167.152 194.56 167.152C194.304 167.152 194.074 167.189 193.872 167.264C193.674 167.339 193.496 167.451 193.336 167.6C193.181 167.744 193.04 167.925 192.912 168.144C192.789 168.357 192.677 168.603 192.576 168.88V174H191.144V165.896H191.96C192.114 165.896 192.221 165.925 192.28 165.984C192.338 166.043 192.378 166.144 192.4 166.288L192.496 167.52ZM200.06 165.768C200.652 165.768 201.185 165.867 201.66 166.064C202.134 166.261 202.54 166.541 202.876 166.904C203.212 167.267 203.468 167.707 203.644 168.224C203.825 168.736 203.916 169.309 203.916 169.944C203.916 170.584 203.825 171.16 203.644 171.672C203.468 172.184 203.212 172.621 202.876 172.984C202.54 173.347 202.134 173.627 201.66 173.824C201.185 174.016 200.652 174.112 200.06 174.112C199.462 174.112 198.924 174.016 198.444 173.824C197.969 173.627 197.564 173.347 197.228 172.984C196.892 172.621 196.633 172.184 196.452 171.672C196.276 171.16 196.188 170.584 196.188 169.944C196.188 169.309 196.276 168.736 196.452 168.224C196.633 167.707 196.892 167.267 197.228 166.904C197.564 166.541 197.969 166.261 198.444 166.064C198.924 165.867 199.462 165.768 200.06 165.768ZM200.06 173C200.86 173 201.457 172.733 201.852 172.2C202.246 171.661 202.444 170.912 202.444 169.952C202.444 168.987 202.246 168.235 201.852 167.696C201.457 167.157 200.86 166.888 200.06 166.888C199.654 166.888 199.3 166.957 198.996 167.096C198.697 167.235 198.446 167.435 198.244 167.696C198.046 167.957 197.897 168.28 197.796 168.664C197.7 169.043 197.652 169.472 197.652 169.952C197.652 170.912 197.849 171.661 198.244 172.2C198.644 172.733 199.249 173 200.06 173ZM208.069 174.128C207.429 174.128 206.936 173.949 206.589 173.592C206.248 173.235 206.077 172.72 206.077 172.048V167.088H205.101C205.016 167.088 204.944 167.064 204.885 167.016C204.826 166.963 204.797 166.883 204.797 166.776V166.208L206.125 166.04L206.453 163.536C206.469 163.456 206.504 163.392 206.557 163.344C206.616 163.291 206.69 163.264 206.781 163.264H207.501V166.056H209.845V167.088H207.501V171.952C207.501 172.293 207.584 172.547 207.749 172.712C207.914 172.877 208.128 172.96 208.389 172.96C208.538 172.96 208.666 172.941 208.773 172.904C208.885 172.861 208.981 172.816 209.061 172.768C209.141 172.72 209.208 172.677 209.261 172.64C209.32 172.597 209.37 172.576 209.413 172.576C209.488 172.576 209.554 172.621 209.613 172.712L210.029 173.392C209.784 173.621 209.488 173.803 209.141 173.936C208.794 174.064 208.437 174.128 208.069 174.128ZM214.685 165.768C215.277 165.768 215.81 165.867 216.285 166.064C216.759 166.261 217.165 166.541 217.501 166.904C217.837 167.267 218.093 167.707 218.269 168.224C218.45 168.736 218.541 169.309 218.541 169.944C218.541 170.584 218.45 171.16 218.269 171.672C218.093 172.184 217.837 172.621 217.501 172.984C217.165 173.347 216.759 173.627 216.285 173.824C215.81 174.016 215.277 174.112 214.685 174.112C214.087 174.112 213.549 174.016 213.069 173.824C212.594 173.627 212.189 173.347 211.853 172.984C211.517 172.621 211.258 172.184 211.077 171.672C210.901 171.16 210.813 170.584 210.813 169.944C210.813 169.309 210.901 168.736 211.077 168.224C211.258 167.707 211.517 167.267 211.853 166.904C212.189 166.541 212.594 166.261 213.069 166.064C213.549 165.867 214.087 165.768 214.685 165.768ZM214.685 173C215.485 173 216.082 172.733 216.477 172.2C216.871 171.661 217.069 170.912 217.069 169.952C217.069 168.987 216.871 168.235 216.477 167.696C216.082 167.157 215.485 166.888 214.685 166.888C214.279 166.888 213.925 166.957 213.621 167.096C213.322 167.235 213.071 167.435 212.869 167.696C212.671 167.957 212.522 168.28 212.421 168.664C212.325 169.043 212.277 169.472 212.277 169.952C212.277 170.912 212.474 171.661 212.869 172.2C213.269 172.733 213.874 173 214.685 173ZM222.694 174.128C222.054 174.128 221.561 173.949 221.214 173.592C220.873 173.235 220.702 172.72 220.702 172.048V167.088H219.726C219.641 167.088 219.569 167.064 219.51 167.016C219.451 166.963 219.422 166.883 219.422 166.776V166.208L220.75 166.04L221.078 163.536C221.094 163.456 221.129 163.392 221.182 163.344C221.241 163.291 221.315 163.264 221.406 163.264H222.126V166.056H224.47V167.088H222.126V171.952C222.126 172.293 222.209 172.547 222.374 172.712C222.539 172.877 222.753 172.96 223.014 172.96C223.163 172.96 223.291 172.941 223.398 172.904C223.51 172.861 223.606 172.816 223.686 172.768C223.766 172.72 223.833 172.677 223.886 172.64C223.945 172.597 223.995 172.576 224.038 172.576C224.113 172.576 224.179 172.621 224.238 172.712L224.654 173.392C224.409 173.621 224.113 173.803 223.766 173.936C223.419 174.064 223.062 174.128 222.694 174.128ZM232.933 165.896L228.413 176.392C228.365 176.499 228.303 176.584 228.229 176.648C228.159 176.712 228.05 176.744 227.901 176.744H226.845L228.325 173.528L224.981 165.896H226.213C226.335 165.896 226.431 165.928 226.501 165.992C226.575 166.051 226.626 166.117 226.653 166.192L228.821 171.296C228.906 171.52 228.978 171.755 229.036 172C229.111 171.749 229.191 171.512 229.277 171.288L231.381 166.192C231.413 166.107 231.466 166.037 231.541 165.984C231.621 165.925 231.709 165.896 231.805 165.896H232.933ZM235.623 172.048C235.884 172.4 236.169 172.648 236.479 172.792C236.788 172.936 237.135 173.008 237.519 173.008C238.276 173.008 238.857 172.739 239.263 172.2C239.668 171.661 239.871 170.893 239.871 169.896C239.871 169.368 239.823 168.915 239.727 168.536C239.636 168.157 239.503 167.848 239.327 167.608C239.151 167.363 238.935 167.184 238.679 167.072C238.423 166.96 238.132 166.904 237.807 166.904C237.343 166.904 236.935 167.011 236.583 167.224C236.236 167.437 235.916 167.739 235.623 168.128V172.048ZM235.551 167.152C235.892 166.731 236.287 166.392 236.735 166.136C237.183 165.88 237.695 165.752 238.271 165.752C238.74 165.752 239.164 165.843 239.543 166.024C239.921 166.2 240.244 166.464 240.511 166.816C240.777 167.163 240.983 167.595 241.127 168.112C241.271 168.629 241.343 169.224 241.343 169.896C241.343 170.493 241.263 171.051 241.102 171.568C240.943 172.08 240.711 172.525 240.407 172.904C240.108 173.277 239.74 173.573 239.303 173.792C238.871 174.005 238.383 174.112 237.839 174.112C237.343 174.112 236.916 174.029 236.559 173.864C236.207 173.693 235.895 173.459 235.623 173.16V176.744H234.191V165.896H235.047C235.249 165.896 235.375 165.995 235.423 166.192L235.551 167.152ZM248.583 169.064C248.583 168.733 248.535 168.432 248.439 168.16C248.349 167.883 248.213 167.645 248.031 167.448C247.855 167.245 247.639 167.091 247.383 166.984C247.127 166.872 246.837 166.816 246.511 166.816C245.829 166.816 245.287 167.016 244.887 167.416C244.493 167.811 244.247 168.36 244.151 169.064H248.583ZM249.735 172.864C249.559 173.077 249.349 173.264 249.103 173.424C248.858 173.579 248.594 173.707 248.311 173.808C248.034 173.909 247.746 173.984 247.447 174.032C247.149 174.085 246.853 174.112 246.559 174.112C245.999 174.112 245.482 174.019 245.007 173.832C244.538 173.64 244.13 173.363 243.783 173C243.442 172.632 243.175 172.179 242.983 171.64C242.791 171.101 242.695 170.483 242.695 169.784C242.695 169.219 242.781 168.691 242.951 168.2C243.127 167.709 243.378 167.285 243.703 166.928C244.029 166.565 244.426 166.283 244.895 166.08C245.365 165.872 245.893 165.768 246.479 165.768C246.965 165.768 247.413 165.851 247.823 166.016C248.239 166.176 248.597 166.411 248.895 166.72C249.199 167.024 249.437 167.403 249.607 167.856C249.778 168.304 249.863 168.816 249.863 169.392C249.863 169.616 249.839 169.765 249.791 169.84C249.743 169.915 249.653 169.952 249.519 169.952H244.103C244.119 170.464 244.189 170.909 244.311 171.288C244.439 171.667 244.615 171.984 244.839 172.24C245.063 172.491 245.33 172.68 245.639 172.808C245.949 172.931 246.295 172.992 246.679 172.992C247.037 172.992 247.343 172.952 247.599 172.872C247.861 172.787 248.085 172.696 248.271 172.6C248.458 172.504 248.613 172.416 248.735 172.336C248.863 172.251 248.973 172.208 249.063 172.208C249.181 172.208 249.271 172.253 249.335 172.344L249.735 172.864Z" fill="#959191"/>
<defs>
<clipPath id="clip0">
<rect width="44" height="34" fill="white" transform="translate(14 18)"/>
</clipPath>
</defs>
</svg>
