<svg width="255" height="162" viewBox="0 0 255 162" fill="none" xmlns="http://www.w3.org/2000/svg">
<circle cx="20" cy="20" r="19.5" transform="rotate(90 20 20)" fill="#275B81" stroke="white"/>
<g clip-path="url(#clip0)">
<g clip-path="url(#clip1)">
<g clip-path="url(#clip2)">
<path d="M19.9979 27.9961L26.9965 20.9976L29.9958 23.9969L22.9973 30.9954L19.9979 27.9961Z" stroke="white" stroke-linecap="round" stroke-linejoin="round"/>
<path d="M25.9966 21.9972L24.497 14.4988L10 10.9995L13.4993 25.4965L20.9977 26.9961L25.9966 21.9972Z" stroke="white" stroke-linecap="round" stroke-linejoin="round"/>
<path d="M10 10.9995L17.9983 18.9978" stroke="white" stroke-linecap="round" stroke-linejoin="round"/>
<path d="M18.9981 21.9977C20.1024 21.9977 20.9977 21.1025 20.9977 19.9981C20.9977 18.8938 20.1024 17.9985 18.9981 17.9985C17.8938 17.9985 16.9985 18.8938 16.9985 19.9981C16.9985 21.1025 17.8938 21.9977 18.9981 21.9977Z" stroke="white" stroke-linecap="round" stroke-linejoin="round"/>
</g>
</g>
</g>
<path d="M63.232 9.008C66.352 9.008 68.688 9.72 70.24 11.144C71.792 12.552 72.568 14.608 72.568 17.312C72.568 19.056 72.184 20.584 71.416 21.896C70.664 23.192 69.568 24.2 68.128 24.92C66.704 25.64 65 26 63.016 26L61.528 25.976C60.6 25.944 59.928 25.928 59.512 25.928C57.864 25.928 56.632 25.952 55.816 26V25.52C56.344 25.488 56.728 25.424 56.968 25.328C57.224 25.232 57.392 25.048 57.472 24.776C57.568 24.504 57.616 24.064 57.616 23.456V11.552C57.616 10.944 57.568 10.504 57.472 10.232C57.392 9.96 57.224 9.776 56.968 9.68C56.728 9.584 56.344 9.52 55.816 9.488V9.008C56.488 9.056 57.456 9.08 58.72 9.08H59.464L60.424 9.056C61.736 9.024 62.672 9.008 63.232 9.008ZM63.208 9.44C62.712 9.44 62.336 9.496 62.08 9.608C61.84 9.72 61.672 9.92 61.576 10.208C61.48 10.496 61.432 10.928 61.432 11.504V23.504C61.432 24.08 61.48 24.512 61.576 24.8C61.672 25.088 61.84 25.288 62.08 25.4C62.336 25.512 62.72 25.568 63.232 25.568C65.168 25.568 66.544 24.896 67.36 23.552C68.176 22.192 68.584 20.144 68.584 17.408C68.584 14.672 68.16 12.664 67.312 11.384C66.48 10.088 65.112 9.44 63.208 9.44ZM81.2648 24.368C82.5768 24.368 83.6328 23.728 84.4328 22.448L84.8648 22.592C84.5448 23.632 83.9688 24.52 83.1368 25.256C82.3208 25.976 81.2968 26.336 80.0648 26.336C78.3688 26.336 77.0168 25.8 76.0088 24.728C75.0168 23.64 74.5208 22.04 74.5208 19.928C74.5208 17.768 75.0568 16.12 76.1288 14.984C77.2008 13.832 78.6248 13.256 80.4008 13.256C83.4088 13.256 84.9128 15.032 84.9128 18.584H78.1688C78.1528 18.824 78.1448 19.2 78.1448 19.712C78.1448 20.768 78.2888 21.648 78.5768 22.352C78.8808 23.056 79.2648 23.568 79.7288 23.888C80.2088 24.208 80.7208 24.368 81.2648 24.368ZM80.2568 13.76C79.6808 13.76 79.2008 14.12 78.8168 14.84C78.4488 15.544 78.2168 16.64 78.1208 18.128H81.8888C81.9208 16.864 81.7928 15.824 81.5048 15.008C81.2328 14.176 80.8168 13.76 80.2568 13.76ZM91.0546 13.256C91.6626 13.256 92.2226 13.336 92.7346 13.496C93.2466 13.64 93.6386 13.808 93.9106 14C94.0706 14.112 94.2146 14.168 94.3426 14.168C94.4866 14.168 94.6066 14.096 94.7026 13.952C94.8146 13.792 94.8866 13.568 94.9186 13.28H95.4226C95.3586 14.096 95.3266 15.504 95.3266 17.504H94.8226C94.6786 16.448 94.3586 15.568 93.8626 14.864C93.3826 14.144 92.6786 13.784 91.7506 13.784C91.2706 13.784 90.8706 13.92 90.5506 14.192C90.2466 14.464 90.0946 14.84 90.0946 15.32C90.0946 15.864 90.2786 16.336 90.6466 16.736C91.0146 17.12 91.5906 17.592 92.3746 18.152L93.0706 18.656C94.0466 19.392 94.7666 20.048 95.2306 20.624C95.6946 21.2 95.9266 21.92 95.9266 22.784C95.9266 23.488 95.7186 24.112 95.3026 24.656C94.9026 25.2 94.3586 25.616 93.6706 25.904C92.9826 26.192 92.2226 26.336 91.3906 26.336C90.5106 26.336 89.7586 26.168 89.1346 25.832C88.6226 25.576 88.2546 25.408 88.0306 25.328C87.8706 25.28 87.7266 25.336 87.5986 25.496C87.4866 25.64 87.3986 25.864 87.3346 26.168H86.8306C86.8946 25.256 86.9266 23.656 86.9266 21.368H87.4306C87.7506 24.312 88.8306 25.784 90.6706 25.784C91.1346 25.784 91.5266 25.648 91.8466 25.376C92.1826 25.088 92.3506 24.656 92.3506 24.08C92.3506 23.632 92.2466 23.232 92.0386 22.88C91.8466 22.528 91.5986 22.216 91.2946 21.944C90.9906 21.672 90.5346 21.296 89.9266 20.816C89.2066 20.24 88.6546 19.776 88.2706 19.424C87.9026 19.072 87.5826 18.656 87.3106 18.176C87.0546 17.696 86.9266 17.16 86.9266 16.568C86.9266 15.544 87.3266 14.736 88.1266 14.144C88.9266 13.552 89.9026 13.256 91.0546 13.256ZM100.509 7.4C101.181 7.4 101.709 7.568 102.093 7.904C102.493 8.224 102.693 8.672 102.693 9.248C102.693 9.824 102.493 10.28 102.093 10.616C101.709 10.936 101.181 11.096 100.509 11.096C99.8365 11.096 99.3005 10.936 98.9005 10.616C98.5165 10.28 98.3245 9.824 98.3245 9.248C98.3245 8.672 98.5165 8.224 98.9005 7.904C99.3005 7.568 99.8365 7.4 100.509 7.4ZM102.381 23.768C102.381 24.424 102.493 24.88 102.717 25.136C102.957 25.376 103.357 25.496 103.917 25.496V26C102.317 25.936 101.253 25.904 100.725 25.904C100.229 25.904 99.1165 25.936 97.3885 26V25.496C97.9645 25.496 98.3645 25.376 98.5885 25.136C98.8125 24.88 98.9245 24.424 98.9245 23.768V16.208C98.9245 15.472 98.8125 14.936 98.5885 14.6C98.3645 14.264 97.9645 14.096 97.3885 14.096V13.592C97.9005 13.64 98.3965 13.664 98.8765 13.664C100.301 13.664 101.469 13.552 102.381 13.328V23.768ZM116.335 15.896C116.015 15.896 115.743 15.792 115.519 15.584C115.295 15.36 115.183 15.048 115.183 14.648C115.183 14.264 115.279 13.872 115.471 13.472C115.087 13.632 114.767 13.816 114.511 14.024C114.271 14.216 114.063 14.464 113.887 14.768C114.383 15.36 114.631 16.128 114.631 17.072C114.631 18.336 114.191 19.288 113.311 19.928C112.447 20.568 111.295 20.888 109.855 20.888H109.423C108.767 21.272 108.439 21.696 108.439 22.16C108.439 22.672 108.759 22.928 109.399 22.928H112.015C113.423 22.928 114.543 23.192 115.375 23.72C116.223 24.232 116.647 25.024 116.647 26.096C116.647 26.912 116.383 27.648 115.855 28.304C115.343 28.976 114.559 29.512 113.503 29.912C112.447 30.312 111.151 30.512 109.615 30.512C108.063 30.512 106.815 30.312 105.871 29.912C104.943 29.528 104.479 28.968 104.479 28.232C104.479 27.736 104.703 27.288 105.151 26.888C105.599 26.504 106.263 26.2 107.143 25.976L107.359 26.36C106.783 26.84 106.495 27.392 106.495 28.016C106.495 28.688 106.799 29.2 107.407 29.552C108.015 29.92 108.855 30.104 109.927 30.104C111.047 30.104 111.951 29.88 112.639 29.432C113.343 28.984 113.695 28.352 113.695 27.536C113.695 27.008 113.495 26.592 113.095 26.288C112.711 25.984 112.031 25.832 111.055 25.832H109.567C108.543 25.832 107.743 25.664 107.167 25.328C106.591 24.976 106.303 24.448 106.303 23.744C106.303 23.152 106.511 22.624 106.927 22.16C107.343 21.696 107.975 21.248 108.823 20.816C107.671 20.672 106.759 20.288 106.087 19.664C105.415 19.04 105.079 18.176 105.079 17.072C105.079 15.808 105.511 14.856 106.375 14.216C107.255 13.576 108.415 13.256 109.855 13.256C111.455 13.256 112.679 13.632 113.527 14.384C113.831 13.952 114.207 13.608 114.655 13.352C115.103 13.096 115.559 12.968 116.023 12.968C116.503 12.968 116.879 13.112 117.151 13.4C117.439 13.672 117.583 14.032 117.583 14.48C117.583 14.928 117.455 15.28 117.199 15.536C116.959 15.776 116.671 15.896 116.335 15.896ZM109.855 20.456C110.303 20.456 110.639 20.2 110.863 19.688C111.103 19.176 111.223 18.304 111.223 17.072C111.223 15.84 111.103 14.968 110.863 14.456C110.639 13.944 110.303 13.688 109.855 13.688C109.407 13.688 109.063 13.944 108.823 14.456C108.599 14.968 108.487 15.84 108.487 17.072C108.487 18.304 108.599 19.176 108.823 19.688C109.063 20.2 109.407 20.456 109.855 20.456ZM127.152 13.256C128.368 13.256 129.248 13.568 129.792 14.192C130.064 14.496 130.256 14.888 130.368 15.368C130.48 15.848 130.536 16.496 130.536 17.312V23.768C130.536 24.424 130.648 24.88 130.872 25.136C131.112 25.376 131.512 25.496 132.072 25.496V26C130.472 25.936 129.416 25.904 128.904 25.904C128.424 25.904 127.384 25.936 125.784 26V25.496C126.264 25.496 126.6 25.376 126.792 25.136C126.984 24.88 127.08 24.424 127.08 23.768V16.304C127.08 15.648 126.968 15.152 126.744 14.816C126.536 14.48 126.152 14.312 125.592 14.312C124.936 14.312 124.376 14.584 123.912 15.128C123.448 15.656 123.216 16.312 123.216 17.096V23.768C123.216 24.424 123.312 24.88 123.504 25.136C123.696 25.376 124.032 25.496 124.512 25.496V26C123.04 25.936 122.048 25.904 121.536 25.904C121.056 25.904 119.952 25.936 118.224 26V25.496C118.8 25.496 119.2 25.376 119.424 25.136C119.648 24.88 119.76 24.424 119.76 23.768V16.208C119.76 15.472 119.648 14.936 119.424 14.6C119.2 14.264 118.8 14.096 118.224 14.096V13.592C118.736 13.64 119.232 13.664 119.712 13.664C121.136 13.664 122.304 13.552 123.216 13.328V15.488C123.936 14 125.248 13.256 127.152 13.256Z" fill="#275B81"/>
<path d="M60.488 54.768C60.9307 54.768 61.312 54.7173 61.632 54.616C61.952 54.5147 62.2133 54.3733 62.416 54.192C62.624 54.0053 62.776 53.7867 62.872 53.536C62.968 53.28 63.016 53 63.016 52.696C63.016 52.104 62.8053 51.6373 62.384 51.296C61.9627 50.9493 61.3307 50.776 60.488 50.776H58.008V54.768H60.488ZM58.008 45.76V49.672H60.056C60.4933 49.672 60.872 49.624 61.192 49.528C61.5173 49.432 61.784 49.2987 61.992 49.128C62.2053 48.9573 62.3627 48.752 62.464 48.512C62.5653 48.2667 62.616 48 62.616 47.712C62.616 47.0347 62.4133 46.5413 62.008 46.232C61.6027 45.9173 60.9733 45.76 60.12 45.76H58.008ZM60.12 44.536C60.824 44.536 61.4293 44.6053 61.936 44.744C62.448 44.8827 62.8667 45.08 63.192 45.336C63.5227 45.592 63.7653 45.9067 63.92 46.28C64.0747 46.648 64.152 47.064 64.152 47.528C64.152 47.8107 64.1067 48.0827 64.016 48.344C63.9307 48.6 63.8 48.84 63.624 49.064C63.448 49.288 63.224 49.4907 62.952 49.672C62.6853 49.848 62.3707 49.992 62.008 50.104C62.8507 50.264 63.4827 50.5653 63.904 51.008C64.3307 51.4453 64.544 52.0213 64.544 52.736C64.544 53.2213 64.4533 53.664 64.272 54.064C64.096 54.464 63.8347 54.808 63.488 55.096C63.1467 55.384 62.7253 55.608 62.224 55.768C61.7227 55.9227 61.152 56 60.512 56H56.464V44.536H60.12ZM67.6519 49.52C67.9079 48.9653 68.2225 48.5333 68.5959 48.224C68.9692 47.9093 69.4252 47.752 69.9639 47.752C70.1345 47.752 70.2972 47.7707 70.4519 47.808C70.6119 47.8453 70.7532 47.904 70.8759 47.984L70.7719 49.048C70.7399 49.1813 70.6599 49.248 70.5319 49.248C70.4572 49.248 70.3479 49.232 70.2039 49.2C70.0599 49.168 69.8972 49.152 69.7159 49.152C69.4599 49.152 69.2305 49.1893 69.0279 49.264C68.8305 49.3387 68.6519 49.4507 68.4919 49.6C68.3372 49.744 68.1959 49.9253 68.0679 50.144C67.9452 50.3573 67.8332 50.6027 67.7319 50.88V56H66.2999V47.896H67.1159C67.2705 47.896 67.3772 47.9253 67.4359 47.984C67.4945 48.0427 67.5345 48.144 67.5559 48.288L67.6519 49.52ZM76.395 52.352C75.739 52.3733 75.179 52.4267 74.715 52.512C74.2563 52.592 73.8803 52.6987 73.587 52.832C73.299 52.9653 73.0883 53.1227 72.955 53.304C72.827 53.4853 72.763 53.688 72.763 53.912C72.763 54.1253 72.7977 54.3093 72.867 54.464C72.9363 54.6187 73.0297 54.7467 73.147 54.848C73.2697 54.944 73.411 55.016 73.571 55.064C73.7363 55.1067 73.9123 55.128 74.099 55.128C74.3497 55.128 74.579 55.104 74.787 55.056C74.995 55.0027 75.1897 54.928 75.371 54.832C75.5577 54.736 75.7337 54.6213 75.899 54.488C76.0697 54.3547 76.235 54.2027 76.395 54.032V52.352ZM71.795 49.04C72.243 48.608 72.7257 48.2853 73.243 48.072C73.7603 47.8587 74.3337 47.752 74.963 47.752C75.4163 47.752 75.819 47.8267 76.171 47.976C76.523 48.1253 76.819 48.3333 77.059 48.6C77.299 48.8667 77.4803 49.1893 77.603 49.568C77.7257 49.9467 77.787 50.3627 77.787 50.816V56H77.155C77.0163 56 76.9097 55.9787 76.835 55.936C76.7603 55.888 76.7017 55.7973 76.659 55.664L76.499 54.896C76.2857 55.0933 76.0777 55.2693 75.875 55.424C75.6723 55.5733 75.459 55.7013 75.235 55.808C75.011 55.9093 74.771 55.9867 74.515 56.04C74.2643 56.0987 73.9843 56.128 73.675 56.128C73.3603 56.128 73.0643 56.0853 72.787 56C72.5097 55.9093 72.267 55.776 72.059 55.6C71.8563 55.424 71.6937 55.2027 71.571 54.936C71.4537 54.664 71.395 54.344 71.395 53.976C71.395 53.656 71.483 53.3493 71.659 53.056C71.835 52.7573 72.1203 52.4933 72.515 52.264C72.9097 52.0347 73.4243 51.848 74.059 51.704C74.6937 51.5547 75.4723 51.4693 76.395 51.448V50.816C76.395 50.1867 76.259 49.712 75.987 49.392C75.715 49.0667 75.3177 48.904 74.795 48.904C74.443 48.904 74.147 48.9493 73.907 49.04C73.6723 49.1253 73.467 49.224 73.291 49.336C73.1203 49.4427 72.971 49.5413 72.843 49.632C72.7203 49.7173 72.5977 49.76 72.475 49.76C72.379 49.76 72.2963 49.736 72.227 49.688C72.1577 49.6347 72.099 49.5707 72.051 49.496L71.795 49.04ZM81.4601 47.896V56H80.0361V47.896H81.4601ZM81.7641 45.352C81.7641 45.4907 81.7348 45.6213 81.6761 45.744C81.6228 45.8613 81.5481 45.968 81.4521 46.064C81.3615 46.1547 81.2521 46.2267 81.1241 46.28C81.0015 46.3333 80.8708 46.36 80.7321 46.36C80.5935 46.36 80.4628 46.3333 80.3401 46.28C80.2228 46.2267 80.1188 46.1547 80.0281 46.064C79.9375 45.968 79.8655 45.8613 79.8121 45.744C79.7588 45.6213 79.7321 45.4907 79.7321 45.352C79.7321 45.2133 79.7588 45.0827 79.8121 44.96C79.8655 44.832 79.9375 44.7227 80.0281 44.632C80.1188 44.536 80.2228 44.4613 80.3401 44.408C80.4628 44.3547 80.5935 44.328 80.7321 44.328C80.8708 44.328 81.0015 44.3547 81.1241 44.408C81.2521 44.4613 81.3615 44.536 81.4521 44.632C81.5481 44.7227 81.6228 44.832 81.6761 44.96C81.7348 45.0827 81.7641 45.2133 81.7641 45.352ZM85.1439 49.072C85.3199 48.8747 85.5065 48.696 85.7039 48.536C85.9012 48.376 86.1092 48.24 86.3279 48.128C86.5519 48.0107 86.7865 47.9227 87.0319 47.864C87.2825 47.8 87.5519 47.768 87.8399 47.768C88.2825 47.768 88.6719 47.8427 89.0079 47.992C89.3492 48.136 89.6319 48.344 89.8559 48.616C90.0852 48.8827 90.2585 49.2053 90.3759 49.584C90.4932 49.9627 90.5519 50.3813 90.5519 50.84V56H89.1199V50.84C89.1199 50.2267 88.9785 49.752 88.6959 49.416C88.4185 49.0747 87.9945 48.904 87.4239 48.904C87.0025 48.904 86.6079 49.0053 86.2399 49.208C85.8772 49.4107 85.5412 49.6853 85.2319 50.032V56H83.7999V47.896H84.6559C84.8585 47.896 84.9839 47.9947 85.0319 48.192L85.1439 49.072ZM97.4418 49.232C97.3778 49.3493 97.2791 49.408 97.1458 49.408C97.0658 49.408 96.9751 49.3787 96.8738 49.32C96.7724 49.2613 96.6471 49.1973 96.4978 49.128C96.3538 49.0533 96.1804 48.9867 95.9778 48.928C95.7751 48.864 95.5351 48.832 95.2578 48.832C95.0178 48.832 94.8018 48.864 94.6098 48.928C94.4178 48.9867 94.2524 49.0693 94.1138 49.176C93.9804 49.2827 93.8764 49.408 93.8018 49.552C93.7324 49.6907 93.6978 49.8427 93.6978 50.008C93.6978 50.216 93.7564 50.3893 93.8738 50.528C93.9964 50.6667 94.1564 50.7867 94.3538 50.888C94.5511 50.9893 94.7751 51.08 95.0258 51.16C95.2764 51.2347 95.5324 51.3173 95.7938 51.408C96.0604 51.4933 96.3191 51.5893 96.5698 51.696C96.8204 51.8027 97.0444 51.936 97.2418 52.096C97.4391 52.256 97.5964 52.4533 97.7138 52.688C97.8364 52.9173 97.8978 53.1947 97.8978 53.52C97.8978 53.8933 97.8311 54.24 97.6978 54.56C97.5644 54.8747 97.3671 55.1493 97.1058 55.384C96.8444 55.6133 96.5244 55.7947 96.1458 55.928C95.7671 56.0613 95.3298 56.128 94.8338 56.128C94.2684 56.128 93.7564 56.0373 93.2978 55.856C92.8391 55.6693 92.4498 55.432 92.1298 55.144L92.4658 54.6C92.5084 54.5307 92.5591 54.4773 92.6178 54.44C92.6764 54.4027 92.7511 54.384 92.8418 54.384C92.9378 54.384 93.0391 54.4213 93.1458 54.496C93.2524 54.5707 93.3804 54.6533 93.5298 54.744C93.6844 54.8347 93.8711 54.9173 94.0898 54.992C94.3084 55.0667 94.5804 55.104 94.9058 55.104C95.1831 55.104 95.4258 55.0693 95.6337 55C95.8418 54.9253 96.0151 54.8267 96.1538 54.704C96.2924 54.5813 96.3938 54.44 96.4578 54.28C96.5271 54.12 96.5618 53.9493 96.5618 53.768C96.5618 53.544 96.5004 53.36 96.3778 53.216C96.2604 53.0667 96.1031 52.9413 95.9058 52.84C95.7084 52.7333 95.4818 52.6427 95.2258 52.568C94.9751 52.488 94.7164 52.4053 94.4498 52.32C94.1884 52.2347 93.9298 52.1387 93.6738 52.032C93.4231 51.92 93.1991 51.7813 93.0018 51.616C92.8044 51.4507 92.6444 51.248 92.5218 51.008C92.4044 50.7627 92.3458 50.4667 92.3458 50.12C92.3458 49.8107 92.4098 49.5147 92.5378 49.232C92.6658 48.944 92.8524 48.6933 93.0978 48.48C93.3431 48.2613 93.6444 48.088 94.0018 47.96C94.3591 47.832 94.7671 47.768 95.2258 47.768C95.7591 47.768 96.2364 47.8533 96.6578 48.024C97.0844 48.1893 97.4524 48.4187 97.7618 48.712L97.4418 49.232ZM102.132 56.128C101.492 56.128 100.998 55.9493 100.652 55.592C100.31 55.2347 100.14 54.72 100.14 54.048V49.088H99.1636C99.0783 49.088 99.0063 49.064 98.9476 49.016C98.889 48.9627 98.8596 48.8827 98.8596 48.776V48.208L100.188 48.04L100.516 45.536C100.532 45.456 100.566 45.392 100.62 45.344C100.678 45.2907 100.753 45.264 100.844 45.264H101.564V48.056H103.908V49.088H101.564V53.952C101.564 54.2933 101.646 54.5467 101.812 54.712C101.977 54.8773 102.19 54.96 102.452 54.96C102.601 54.96 102.729 54.9413 102.836 54.904C102.948 54.8613 103.044 54.816 103.124 54.768C103.204 54.72 103.27 54.6773 103.324 54.64C103.382 54.5973 103.433 54.576 103.476 54.576C103.55 54.576 103.617 54.6213 103.676 54.712L104.092 55.392C103.846 55.6213 103.55 55.8027 103.204 55.936C102.857 56.064 102.5 56.128 102.132 56.128ZM108.747 47.768C109.339 47.768 109.872 47.8667 110.347 48.064C110.822 48.2613 111.227 48.5413 111.563 48.904C111.899 49.2667 112.155 49.7067 112.331 50.224C112.512 50.736 112.603 51.3093 112.603 51.944C112.603 52.584 112.512 53.16 112.331 53.672C112.155 54.184 111.899 54.6213 111.563 54.984C111.227 55.3467 110.822 55.6267 110.347 55.824C109.872 56.016 109.339 56.112 108.747 56.112C108.15 56.112 107.611 56.016 107.131 55.824C106.656 55.6267 106.251 55.3467 105.915 54.984C105.579 54.6213 105.32 54.184 105.139 53.672C104.963 53.16 104.875 52.584 104.875 51.944C104.875 51.3093 104.963 50.736 105.139 50.224C105.32 49.7067 105.579 49.2667 105.915 48.904C106.251 48.5413 106.656 48.2613 107.131 48.064C107.611 47.8667 108.15 47.768 108.747 47.768ZM108.747 55C109.547 55 110.144 54.7333 110.539 54.2C110.934 53.6613 111.131 52.912 111.131 51.952C111.131 50.9867 110.934 50.2347 110.539 49.696C110.144 49.1573 109.547 48.888 108.747 48.888C108.342 48.888 107.987 48.9573 107.683 49.096C107.384 49.2347 107.134 49.4347 106.931 49.696C106.734 49.9573 106.584 50.28 106.483 50.664C106.387 51.0427 106.339 51.472 106.339 51.952C106.339 52.912 106.536 53.6613 106.931 54.2C107.331 54.7333 107.936 55 108.747 55ZM115.761 49.52C116.017 48.9653 116.332 48.5333 116.705 48.224C117.079 47.9093 117.535 47.752 118.073 47.752C118.244 47.752 118.407 47.7707 118.561 47.808C118.721 47.8453 118.863 47.904 118.985 47.984L118.881 49.048C118.849 49.1813 118.769 49.248 118.641 49.248C118.567 49.248 118.457 49.232 118.313 49.2C118.169 49.168 118.007 49.152 117.825 49.152C117.569 49.152 117.34 49.1893 117.137 49.264C116.94 49.3387 116.761 49.4507 116.601 49.6C116.447 49.744 116.305 49.9253 116.177 50.144C116.055 50.3573 115.943 50.6027 115.841 50.88V56H114.409V47.896H115.225C115.38 47.896 115.487 47.9253 115.545 47.984C115.604 48.0427 115.644 48.144 115.665 48.288L115.761 49.52ZM120.237 56V47.896H121.093C121.296 47.896 121.421 47.9947 121.469 48.192L121.573 49.024C121.872 48.656 122.208 48.3547 122.581 48.12C122.955 47.8853 123.387 47.768 123.877 47.768C124.421 47.768 124.861 47.92 125.197 48.224C125.539 48.528 125.784 48.9387 125.933 49.456C126.051 49.1627 126.2 48.9093 126.381 48.696C126.568 48.4827 126.776 48.3067 127.005 48.168C127.235 48.0293 127.477 47.928 127.733 47.864C127.995 47.8 128.259 47.768 128.525 47.768C128.952 47.768 129.331 47.8373 129.661 47.976C129.997 48.1093 130.28 48.3067 130.509 48.568C130.744 48.8293 130.923 49.152 131.045 49.536C131.168 49.9147 131.229 50.3493 131.229 50.84V56H129.797V50.84C129.797 50.2053 129.659 49.7253 129.381 49.4C129.104 49.0693 128.704 48.904 128.181 48.904C127.947 48.904 127.723 48.9467 127.509 49.032C127.301 49.112 127.117 49.232 126.957 49.392C126.797 49.552 126.669 49.7547 126.573 50C126.483 50.24 126.437 50.52 126.437 50.84V56H125.005V50.84C125.005 50.1893 124.875 49.704 124.613 49.384C124.352 49.064 123.971 48.904 123.469 48.904C123.117 48.904 122.792 49 122.493 49.192C122.195 49.3787 121.92 49.6347 121.669 49.96V56H120.237ZM138.991 47.896V56H137.567V47.896H138.991ZM139.295 45.352C139.295 45.4907 139.266 45.6213 139.207 45.744C139.154 45.8613 139.079 45.968 138.983 46.064C138.893 46.1547 138.783 46.2267 138.655 46.28C138.533 46.3333 138.402 46.36 138.263 46.36C138.125 46.36 137.994 46.3333 137.871 46.28C137.754 46.2267 137.65 46.1547 137.559 46.064C137.469 45.968 137.397 45.8613 137.343 45.744C137.29 45.6213 137.263 45.4907 137.263 45.352C137.263 45.2133 137.29 45.0827 137.343 44.96C137.397 44.832 137.469 44.7227 137.559 44.632C137.65 44.536 137.754 44.4613 137.871 44.408C137.994 44.3547 138.125 44.328 138.263 44.328C138.402 44.328 138.533 44.3547 138.655 44.408C138.783 44.4613 138.893 44.536 138.983 44.632C139.079 44.7227 139.154 44.832 139.207 44.96C139.266 45.0827 139.295 45.2133 139.295 45.352ZM146.611 49.824C146.344 49.4667 146.056 49.2187 145.747 49.08C145.438 48.936 145.091 48.864 144.707 48.864C143.955 48.864 143.376 49.1333 142.971 49.672C142.566 50.2107 142.363 50.9787 142.363 51.976C142.363 52.504 142.408 52.9573 142.499 53.336C142.59 53.7093 142.723 54.0187 142.899 54.264C143.075 54.504 143.291 54.68 143.547 54.792C143.803 54.904 144.094 54.96 144.419 54.96C144.888 54.96 145.296 54.8533 145.643 54.64C145.995 54.4267 146.318 54.1253 146.611 53.736V49.824ZM148.035 44.216V56H147.187C146.984 56 146.856 55.9013 146.803 55.704L146.675 54.72C146.328 55.136 145.934 55.472 145.491 55.728C145.048 55.984 144.536 56.112 143.955 56.112C143.491 56.112 143.07 56.024 142.691 55.848C142.312 55.6667 141.99 55.4027 141.723 55.056C141.456 54.7093 141.251 54.2773 141.107 53.76C140.963 53.2427 140.891 52.648 140.891 51.976C140.891 51.3787 140.971 50.824 141.131 50.312C141.291 49.7947 141.52 49.3467 141.819 48.968C142.118 48.5893 142.483 48.2933 142.915 48.08C143.352 47.8613 143.843 47.752 144.387 47.752C144.883 47.752 145.307 47.8373 145.659 48.008C146.016 48.1733 146.334 48.4053 146.611 48.704V44.216H148.035ZM155.708 51.064C155.708 50.7333 155.66 50.432 155.564 50.16C155.474 49.8827 155.338 49.6453 155.156 49.448C154.98 49.2453 154.764 49.0907 154.508 48.984C154.252 48.872 153.962 48.816 153.636 48.816C152.954 48.816 152.412 49.016 152.012 49.416C151.618 49.8107 151.372 50.36 151.276 51.064H155.708ZM156.86 54.864C156.684 55.0773 156.474 55.264 156.228 55.424C155.983 55.5787 155.719 55.7067 155.436 55.808C155.159 55.9093 154.871 55.984 154.572 56.032C154.274 56.0853 153.978 56.112 153.684 56.112C153.124 56.112 152.607 56.0187 152.132 55.832C151.663 55.64 151.255 55.3627 150.908 55C150.567 54.632 150.3 54.1787 150.108 53.64C149.916 53.1013 149.82 52.4827 149.82 51.784C149.82 51.2187 149.906 50.6907 150.076 50.2C150.252 49.7093 150.503 49.2853 150.828 48.928C151.154 48.5653 151.551 48.2827 152.02 48.08C152.49 47.872 153.018 47.768 153.604 47.768C154.09 47.768 154.538 47.8507 154.948 48.016C155.364 48.176 155.722 48.4107 156.02 48.72C156.324 49.024 156.562 49.4027 156.732 49.856C156.903 50.304 156.988 50.816 156.988 51.392C156.988 51.616 156.964 51.7653 156.916 51.84C156.868 51.9147 156.778 51.952 156.644 51.952H151.228C151.244 52.464 151.314 52.9093 151.436 53.288C151.564 53.6667 151.74 53.984 151.964 54.24C152.188 54.4907 152.455 54.68 152.764 54.808C153.074 54.9307 153.42 54.992 153.804 54.992C154.162 54.992 154.468 54.952 154.724 54.872C154.986 54.7867 155.21 54.696 155.396 54.6C155.583 54.504 155.738 54.416 155.86 54.336C155.988 54.2507 156.098 54.208 156.188 54.208C156.306 54.208 156.396 54.2533 156.46 54.344L156.86 54.864ZM163.129 52.352C162.473 52.3733 161.913 52.4267 161.449 52.512C160.991 52.592 160.615 52.6987 160.321 52.832C160.033 52.9653 159.823 53.1227 159.689 53.304C159.561 53.4853 159.497 53.688 159.497 53.912C159.497 54.1253 159.532 54.3093 159.601 54.464C159.671 54.6187 159.764 54.7467 159.881 54.848C160.004 54.944 160.145 55.016 160.305 55.064C160.471 55.1067 160.647 55.128 160.833 55.128C161.084 55.128 161.313 55.104 161.521 55.056C161.729 55.0027 161.924 54.928 162.105 54.832C162.292 54.736 162.468 54.6213 162.633 54.488C162.804 54.3547 162.969 54.2027 163.129 54.032V52.352ZM158.529 49.04C158.977 48.608 159.46 48.2853 159.977 48.072C160.495 47.8587 161.068 47.752 161.697 47.752C162.151 47.752 162.553 47.8267 162.905 47.976C163.257 48.1253 163.553 48.3333 163.793 48.6C164.033 48.8667 164.215 49.1893 164.337 49.568C164.46 49.9467 164.521 50.3627 164.521 50.816V56H163.889C163.751 56 163.644 55.9787 163.569 55.936C163.495 55.888 163.436 55.7973 163.393 55.664L163.233 54.896C163.02 55.0933 162.812 55.2693 162.609 55.424C162.407 55.5733 162.193 55.7013 161.969 55.808C161.745 55.9093 161.505 55.9867 161.249 56.04C160.999 56.0987 160.719 56.128 160.409 56.128C160.095 56.128 159.799 56.0853 159.521 56C159.244 55.9093 159.001 55.776 158.793 55.6C158.591 55.424 158.428 55.2027 158.305 54.936C158.188 54.664 158.129 54.344 158.129 53.976C158.129 53.656 158.217 53.3493 158.393 53.056C158.569 52.7573 158.855 52.4933 159.249 52.264C159.644 52.0347 160.159 51.848 160.793 51.704C161.428 51.5547 162.207 51.4693 163.129 51.448V50.816C163.129 50.1867 162.993 49.712 162.721 49.392C162.449 49.0667 162.052 48.904 161.529 48.904C161.177 48.904 160.881 48.9493 160.641 49.04C160.407 49.1253 160.201 49.224 160.025 49.336C159.855 49.4427 159.705 49.5413 159.577 49.632C159.455 49.7173 159.332 49.76 159.209 49.76C159.113 49.76 159.031 49.736 158.961 49.688C158.892 49.6347 158.833 49.5707 158.785 49.496L158.529 49.04ZM174.101 56H172.677V49.088H168.501V53.952C168.501 54.2933 168.584 54.5467 168.749 54.712C168.914 54.8773 169.128 54.96 169.389 54.96C169.538 54.96 169.666 54.9413 169.773 54.904C169.885 54.8613 169.981 54.816 170.061 54.768C170.141 54.72 170.208 54.6773 170.261 54.64C170.32 54.5973 170.37 54.576 170.413 54.576C170.488 54.576 170.554 54.6213 170.613 54.712L171.029 55.392C170.784 55.6213 170.488 55.8027 170.141 55.936C169.794 56.064 169.437 56.128 169.069 56.128C168.429 56.128 167.936 55.9493 167.589 55.592C167.248 55.2347 167.077 54.72 167.077 54.048V49.088H166.101C166.016 49.088 165.944 49.064 165.885 49.016C165.826 48.9627 165.797 48.8827 165.797 48.776V48.208L167.125 48.032L167.453 45.536C167.469 45.456 167.504 45.392 167.557 45.344C167.616 45.2907 167.69 45.264 167.781 45.264H168.501V48.056H174.101V56ZM174.453 45.296C174.453 45.4347 174.424 45.5653 174.365 45.688C174.312 45.8053 174.237 45.9093 174.141 46C174.05 46.0907 173.944 46.1627 173.821 46.216C173.698 46.2693 173.568 46.296 173.429 46.296C173.29 46.296 173.16 46.2693 173.037 46.216C172.92 46.1627 172.816 46.0907 172.725 46C172.634 45.9093 172.562 45.8053 172.509 45.688C172.456 45.5653 172.429 45.4347 172.429 45.296C172.429 45.1573 172.456 45.0267 172.509 44.904C172.562 44.776 172.634 44.6667 172.725 44.576C172.816 44.48 172.92 44.4053 173.037 44.352C173.16 44.2987 173.29 44.272 173.429 44.272C173.568 44.272 173.698 44.2987 173.821 44.352C173.944 44.4053 174.05 44.48 174.141 44.576C174.237 44.6667 174.312 44.776 174.365 44.904C174.424 45.0267 174.453 45.1573 174.453 45.296ZM179.857 47.768C180.449 47.768 180.982 47.8667 181.457 48.064C181.931 48.2613 182.337 48.5413 182.673 48.904C183.009 49.2667 183.265 49.7067 183.441 50.224C183.622 50.736 183.713 51.3093 183.713 51.944C183.713 52.584 183.622 53.16 183.441 53.672C183.265 54.184 183.009 54.6213 182.673 54.984C182.337 55.3467 181.931 55.6267 181.457 55.824C180.982 56.016 180.449 56.112 179.857 56.112C179.259 56.112 178.721 56.016 178.241 55.824C177.766 55.6267 177.361 55.3467 177.025 54.984C176.689 54.6213 176.43 54.184 176.249 53.672C176.073 53.16 175.985 52.584 175.985 51.944C175.985 51.3093 176.073 50.736 176.249 50.224C176.43 49.7067 176.689 49.2667 177.025 48.904C177.361 48.5413 177.766 48.2613 178.241 48.064C178.721 47.8667 179.259 47.768 179.857 47.768ZM179.857 55C180.657 55 181.254 54.7333 181.649 54.2C182.043 53.6613 182.241 52.912 182.241 51.952C182.241 50.9867 182.043 50.2347 181.649 49.696C181.254 49.1573 180.657 48.888 179.857 48.888C179.451 48.888 179.097 48.9573 178.793 49.096C178.494 49.2347 178.243 49.4347 178.041 49.696C177.843 49.9573 177.694 50.28 177.593 50.664C177.497 51.0427 177.449 51.472 177.449 51.952C177.449 52.912 177.646 53.6613 178.041 54.2C178.441 54.7333 179.046 55 179.857 55ZM186.863 49.072C187.039 48.8747 187.225 48.696 187.423 48.536C187.62 48.376 187.828 48.24 188.047 48.128C188.271 48.0107 188.505 47.9227 188.751 47.864C189.001 47.8 189.271 47.768 189.559 47.768C190.001 47.768 190.391 47.8427 190.727 47.992C191.068 48.136 191.351 48.344 191.575 48.616C191.804 48.8827 191.977 49.2053 192.095 49.584C192.212 49.9627 192.271 50.3813 192.271 50.84V56H190.839V50.84C190.839 50.2267 190.697 49.752 190.415 49.416C190.137 49.0747 189.713 48.904 189.143 48.904C188.721 48.904 188.327 49.0053 187.959 49.208C187.596 49.4107 187.26 49.6853 186.951 50.032V56H185.519V47.896H186.375C186.577 47.896 186.703 47.9947 186.751 48.192L186.863 49.072ZM64.216 70.84H60.504V81H58.96V70.84H55.24V69.536H64.216V70.84ZM68.145 77.352C67.489 77.3733 66.929 77.4267 66.465 77.512C66.0063 77.592 65.6303 77.6987 65.337 77.832C65.049 77.9653 64.8383 78.1227 64.705 78.304C64.577 78.4853 64.513 78.688 64.513 78.912C64.513 79.1253 64.5477 79.3093 64.617 79.464C64.6863 79.6187 64.7797 79.7467 64.897 79.848C65.0197 79.944 65.161 80.016 65.321 80.064C65.4863 80.1067 65.6623 80.128 65.849 80.128C66.0997 80.128 66.329 80.104 66.537 80.056C66.745 80.0027 66.9397 79.928 67.121 79.832C67.3077 79.736 67.4837 79.6213 67.649 79.488C67.8197 79.3547 67.985 79.2027 68.145 79.032V77.352ZM63.545 74.04C63.993 73.608 64.4757 73.2853 64.993 73.072C65.5103 72.8587 66.0837 72.752 66.713 72.752C67.1663 72.752 67.569 72.8267 67.921 72.976C68.273 73.1253 68.569 73.3333 68.809 73.6C69.049 73.8667 69.2303 74.1893 69.353 74.568C69.4757 74.9467 69.537 75.3627 69.537 75.816V81H68.905C68.7663 81 68.6597 80.9787 68.585 80.936C68.5103 80.888 68.4517 80.7973 68.409 80.664L68.249 79.896C68.0357 80.0933 67.8277 80.2693 67.625 80.424C67.4223 80.5733 67.209 80.7013 66.985 80.808C66.761 80.9093 66.521 80.9867 66.265 81.04C66.0143 81.0987 65.7343 81.128 65.425 81.128C65.1103 81.128 64.8143 81.0853 64.537 81C64.2597 80.9093 64.017 80.776 63.809 80.6C63.6063 80.424 63.4437 80.2027 63.321 79.936C63.2037 79.664 63.145 79.344 63.145 78.976C63.145 78.656 63.233 78.3493 63.409 78.056C63.585 77.7573 63.8703 77.4933 64.265 77.264C64.6597 77.0347 65.1743 76.848 65.809 76.704C66.4437 76.5547 67.2223 76.4693 68.145 76.448V75.816C68.145 75.1867 68.009 74.712 67.737 74.392C67.465 74.0667 67.0677 73.904 66.545 73.904C66.193 73.904 65.897 73.9493 65.657 74.04C65.4223 74.1253 65.217 74.224 65.041 74.336C64.8703 74.4427 64.721 74.5413 64.593 74.632C64.4703 74.7173 64.3477 74.76 64.225 74.76C64.129 74.76 64.0463 74.736 63.977 74.688C63.9077 74.6347 63.849 74.5707 63.801 74.496L63.545 74.04ZM76.4261 74.232C76.3621 74.3493 76.2635 74.408 76.1301 74.408C76.0501 74.408 75.9595 74.3787 75.8581 74.32C75.7568 74.2613 75.6315 74.1973 75.4821 74.128C75.3381 74.0533 75.1648 73.9867 74.9621 73.928C74.7595 73.864 74.5195 73.832 74.2421 73.832C74.0021 73.832 73.7861 73.864 73.5941 73.928C73.4021 73.9867 73.2368 74.0693 73.0981 74.176C72.9648 74.2827 72.8608 74.408 72.7861 74.552C72.7168 74.6907 72.6821 74.8427 72.6821 75.008C72.6821 75.216 72.7408 75.3893 72.8581 75.528C72.9808 75.6667 73.1408 75.7867 73.3381 75.888C73.5355 75.9893 73.7595 76.08 74.0101 76.16C74.2608 76.2347 74.5168 76.3173 74.7781 76.408C75.0448 76.4933 75.3035 76.5893 75.5541 76.696C75.8048 76.8027 76.0288 76.936 76.2261 77.096C76.4235 77.256 76.5808 77.4533 76.6981 77.688C76.8208 77.9173 76.8821 78.1947 76.8821 78.52C76.8821 78.8933 76.8155 79.24 76.6821 79.56C76.5488 79.8747 76.3515 80.1493 76.0901 80.384C75.8288 80.6133 75.5088 80.7947 75.1301 80.928C74.7515 81.0613 74.3141 81.128 73.8181 81.128C73.2528 81.128 72.7408 81.0373 72.2821 80.856C71.8235 80.6693 71.4341 80.432 71.1141 80.144L71.4501 79.6C71.4928 79.5307 71.5435 79.4773 71.6021 79.44C71.6608 79.4027 71.7355 79.384 71.8261 79.384C71.9221 79.384 72.0235 79.4213 72.1301 79.496C72.2368 79.5707 72.3648 79.6533 72.5141 79.744C72.6688 79.8347 72.8555 79.9173 73.0741 79.992C73.2928 80.0667 73.5648 80.104 73.8901 80.104C74.1675 80.104 74.4101 80.0693 74.6181 80C74.8261 79.9253 74.9995 79.8267 75.1381 79.704C75.2768 79.5813 75.3781 79.44 75.4421 79.28C75.5115 79.12 75.5461 78.9493 75.5461 78.768C75.5461 78.544 75.4848 78.36 75.3621 78.216C75.2448 78.0667 75.0875 77.9413 74.8901 77.84C74.6928 77.7333 74.4661 77.6427 74.2101 77.568C73.9595 77.488 73.7008 77.4053 73.4341 77.32C73.1728 77.2347 72.9141 77.1387 72.6581 77.032C72.4075 76.92 72.1835 76.7813 71.9861 76.616C71.7888 76.4507 71.6288 76.248 71.5061 76.008C71.3888 75.7627 71.3301 75.4667 71.3301 75.12C71.3301 74.8107 71.3941 74.5147 71.5221 74.232C71.6501 73.944 71.8368 73.6933 72.0821 73.48C72.3275 73.2613 72.6288 73.088 72.9861 72.96C73.3435 72.832 73.7515 72.768 74.2101 72.768C74.7435 72.768 75.2208 72.8533 75.6421 73.024C76.0688 73.1893 76.4368 73.4187 76.7461 73.712L76.4261 74.232ZM80.06 69.216V76.152H80.428C80.5347 76.152 80.6227 76.1387 80.692 76.112C80.7667 76.08 80.844 76.0187 80.924 75.928L83.484 73.184C83.5587 73.0933 83.636 73.024 83.716 72.976C83.8013 72.9227 83.9133 72.896 84.052 72.896H85.34L82.356 76.072C82.212 76.2533 82.0573 76.3947 81.892 76.496C81.988 76.56 82.0733 76.6347 82.148 76.72C82.228 76.8 82.3027 76.8933 82.372 77L85.54 81H84.268C84.1453 81 84.0387 80.9813 83.948 80.944C83.8627 80.9013 83.788 80.8267 83.724 80.72L81.06 77.4C80.98 77.288 80.9 77.216 80.82 77.184C80.7453 77.1467 80.628 77.128 80.468 77.128H80.06V81H78.628V69.216H80.06ZM91.3908 81V74.112L90.4948 74.008C90.3774 73.9813 90.2841 73.9413 90.2148 73.888C90.1454 73.8293 90.1108 73.7467 90.1108 73.64V73.056H91.3908V72.624C91.3908 72.176 91.4574 71.752 91.5908 71.352C91.7294 70.9467 91.9374 70.5947 92.2148 70.296C92.4921 69.9973 92.8388 69.76 93.2548 69.584C93.6708 69.408 94.1561 69.32 94.7108 69.32C95.1214 69.32 95.5161 69.336 95.8948 69.368C96.2788 69.4 96.6494 69.4187 97.0068 69.424H97.9748V81H96.5588V70.424C96.2708 70.4133 95.9801 70.4 95.6868 70.384C95.3988 70.368 95.1454 70.36 94.9268 70.36C94.2334 70.36 93.7001 70.56 93.3268 70.96C92.9588 71.3547 92.7748 71.9093 92.7748 72.624V73.056H94.8788V74.088H92.8148V81H91.3908ZM103.7 72.768C104.292 72.768 104.826 72.8667 105.3 73.064C105.775 73.2613 106.18 73.5413 106.516 73.904C106.852 74.2667 107.108 74.7067 107.284 75.224C107.466 75.736 107.556 76.3093 107.556 76.944C107.556 77.584 107.466 78.16 107.284 78.672C107.108 79.184 106.852 79.6213 106.516 79.984C106.18 80.3467 105.775 80.6267 105.3 80.824C104.826 81.016 104.292 81.112 103.7 81.112C103.103 81.112 102.564 81.016 102.084 80.824C101.61 80.6267 101.204 80.3467 100.868 79.984C100.532 79.6213 100.274 79.184 100.092 78.672C99.9163 78.16 99.8283 77.584 99.8283 76.944C99.8283 76.3093 99.9163 75.736 100.092 75.224C100.274 74.7067 100.532 74.2667 100.868 73.904C101.204 73.5413 101.61 73.2613 102.084 73.064C102.564 72.8667 103.103 72.768 103.7 72.768ZM103.7 80C104.5 80 105.098 79.7333 105.492 79.2C105.887 78.6613 106.084 77.912 106.084 76.952C106.084 75.9867 105.887 75.2347 105.492 74.696C105.098 74.1573 104.5 73.888 103.7 73.888C103.295 73.888 102.94 73.9573 102.636 74.096C102.338 74.2347 102.087 74.4347 101.884 74.696C101.687 74.9573 101.538 75.28 101.436 75.664C101.34 76.0427 101.292 76.472 101.292 76.952C101.292 77.912 101.49 78.6613 101.884 79.2C102.284 79.7333 102.89 80 103.7 80ZM120.413 72.896L117.789 81H116.661C116.523 81 116.427 80.9093 116.373 80.728L114.581 75.232C114.539 75.1093 114.504 74.9867 114.477 74.864C114.451 74.736 114.424 74.6107 114.397 74.488C114.371 74.6107 114.344 74.736 114.317 74.864C114.291 74.9867 114.256 75.112 114.213 75.24L112.389 80.728C112.341 80.9093 112.235 81 112.069 81H110.997L108.373 72.896H109.493C109.605 72.896 109.699 72.9253 109.773 72.984C109.853 73.0427 109.907 73.112 109.933 73.192L111.485 78.408C111.576 78.792 111.648 79.1547 111.701 79.496C111.749 79.32 111.797 79.1413 111.845 78.96C111.899 78.7787 111.955 78.5947 112.013 78.408L113.725 73.16C113.752 73.08 113.797 73.0133 113.861 72.96C113.931 72.9067 114.013 72.88 114.109 72.88H114.733C114.84 72.88 114.928 72.9067 114.997 72.96C115.067 73.0133 115.115 73.08 115.141 73.16L116.813 78.408C116.872 78.5947 116.925 78.7787 116.973 78.96C117.021 79.1413 117.067 79.32 117.109 79.496C117.136 79.32 117.168 79.144 117.205 78.968C117.248 78.7867 117.293 78.6 117.341 78.408L118.925 73.192C118.952 73.1067 119.003 73.0373 119.077 72.984C119.152 72.9253 119.24 72.896 119.341 72.896H120.413ZM126.457 74.232C126.393 74.3493 126.295 74.408 126.161 74.408C126.081 74.408 125.991 74.3787 125.889 74.32C125.788 74.2613 125.663 74.1973 125.513 74.128C125.369 74.0533 125.196 73.9867 124.993 73.928C124.791 73.864 124.551 73.832 124.273 73.832C124.033 73.832 123.817 73.864 123.625 73.928C123.433 73.9867 123.268 74.0693 123.129 74.176C122.996 74.2827 122.892 74.408 122.817 74.552C122.748 74.6907 122.713 74.8427 122.713 75.008C122.713 75.216 122.772 75.3893 122.889 75.528C123.012 75.6667 123.172 75.7867 123.369 75.888C123.567 75.9893 123.791 76.08 124.041 76.16C124.292 76.2347 124.548 76.3173 124.809 76.408C125.076 76.4933 125.335 76.5893 125.585 76.696C125.836 76.8027 126.06 76.936 126.257 77.096C126.455 77.256 126.612 77.4533 126.729 77.688C126.852 77.9173 126.913 78.1947 126.913 78.52C126.913 78.8933 126.847 79.24 126.713 79.56C126.58 79.8747 126.383 80.1493 126.121 80.384C125.86 80.6133 125.54 80.7947 125.161 80.928C124.783 81.0613 124.345 81.128 123.849 81.128C123.284 81.128 122.772 81.0373 122.313 80.856C121.855 80.6693 121.465 80.432 121.145 80.144L121.481 79.6C121.524 79.5307 121.575 79.4773 121.633 79.44C121.692 79.4027 121.767 79.384 121.857 79.384C121.953 79.384 122.055 79.4213 122.161 79.496C122.268 79.5707 122.396 79.6533 122.545 79.744C122.7 79.8347 122.887 79.9173 123.105 79.992C123.324 80.0667 123.596 80.104 123.921 80.104C124.199 80.104 124.441 80.0693 124.649 80C124.857 79.9253 125.031 79.8267 125.169 79.704C125.308 79.5813 125.409 79.44 125.473 79.28C125.543 79.12 125.577 78.9493 125.577 78.768C125.577 78.544 125.516 78.36 125.393 78.216C125.276 78.0667 125.119 77.9413 124.921 77.84C124.724 77.7333 124.497 77.6427 124.241 77.568C123.991 77.488 123.732 77.4053 123.465 77.32C123.204 77.2347 122.945 77.1387 122.689 77.032C122.439 76.92 122.215 76.7813 122.017 76.616C121.82 76.4507 121.66 76.248 121.537 76.008C121.42 75.7627 121.361 75.4667 121.361 75.12C121.361 74.8107 121.425 74.5147 121.553 74.232C121.681 73.944 121.868 73.6933 122.113 73.48C122.359 73.2613 122.66 73.088 123.017 72.96C123.375 72.832 123.783 72.768 124.241 72.768C124.775 72.768 125.252 72.8533 125.673 73.024C126.1 73.1893 126.468 73.4187 126.777 73.712L126.457 74.232ZM71.32 94.536L67.744 106H66.352L63.448 97.256C63.4213 97.1707 63.3947 97.08 63.368 96.984C63.3467 96.888 63.3227 96.7867 63.296 96.68C63.2693 96.7867 63.2427 96.888 63.216 96.984C63.1893 97.08 63.1627 97.1707 63.136 97.256L60.216 106H58.824L55.248 94.536H56.536C56.6747 94.536 56.7893 94.5707 56.88 94.64C56.976 94.7093 57.0373 94.7973 57.064 94.904L59.432 102.872C59.4693 103.016 59.504 103.171 59.536 103.336C59.5733 103.501 59.608 103.677 59.64 103.864C59.6773 103.677 59.7147 103.501 59.752 103.336C59.7947 103.165 59.84 103.011 59.888 102.872L62.584 94.904C62.616 94.8133 62.6773 94.7307 62.768 94.656C62.864 94.576 62.9787 94.536 63.112 94.536H63.56C63.6987 94.536 63.8107 94.5707 63.896 94.64C63.9813 94.7093 64.0453 94.7973 64.088 94.904L66.776 102.872C66.824 103.011 66.8667 103.16 66.904 103.32C66.9467 103.48 66.9867 103.648 67.024 103.824C67.0507 103.648 67.08 103.48 67.112 103.32C67.144 103.16 67.1787 103.011 67.216 102.872L69.592 94.904C69.6187 94.808 69.6773 94.7227 69.768 94.648C69.864 94.5733 69.9787 94.536 70.112 94.536H71.32ZM74.132 97.896V106H72.708V97.896H74.132ZM74.436 95.352C74.436 95.4907 74.4067 95.6213 74.348 95.744C74.2947 95.8613 74.22 95.968 74.124 96.064C74.0333 96.1547 73.924 96.2267 73.796 96.28C73.6733 96.3333 73.5427 96.36 73.404 96.36C73.2653 96.36 73.1347 96.3333 73.012 96.28C72.8947 96.2267 72.7907 96.1547 72.7 96.064C72.6093 95.968 72.5373 95.8613 72.484 95.744C72.4307 95.6213 72.404 95.4907 72.404 95.352C72.404 95.2133 72.4307 95.0827 72.484 94.96C72.5373 94.832 72.6093 94.7227 72.7 94.632C72.7907 94.536 72.8947 94.4613 73.012 94.408C73.1347 94.3547 73.2653 94.328 73.404 94.328C73.5427 94.328 73.6733 94.3547 73.796 94.408C73.924 94.4613 74.0333 94.536 74.124 94.632C74.22 94.7227 74.2947 94.832 74.348 94.96C74.4067 95.0827 74.436 95.2133 74.436 95.352ZM77.8238 99.52C78.0798 98.9653 78.3944 98.5333 78.7678 98.224C79.1411 97.9093 79.5971 97.752 80.1358 97.752C80.3064 97.752 80.4691 97.7707 80.6238 97.808C80.7838 97.8453 80.9251 97.904 81.0478 97.984L80.9438 99.048C80.9118 99.1813 80.8318 99.248 80.7038 99.248C80.6291 99.248 80.5198 99.232 80.3758 99.2C80.2318 99.168 80.0691 99.152 79.8878 99.152C79.6318 99.152 79.4024 99.1893 79.1998 99.264C79.0024 99.3387 78.8238 99.4507 78.6638 99.6C78.5091 99.744 78.3678 99.9253 78.2398 100.144C78.1171 100.357 78.0051 100.603 77.9038 100.88V106H76.4718V97.896H77.2878C77.4424 97.896 77.5491 97.9253 77.6078 97.984C77.6664 98.0427 77.7064 98.144 77.7278 98.288L77.8238 99.52ZM87.3958 101.064C87.3958 100.733 87.3478 100.432 87.2518 100.16C87.1611 99.8827 87.0251 99.6453 86.8438 99.448C86.6678 99.2453 86.4518 99.0907 86.1958 98.984C85.9398 98.872 85.6491 98.816 85.3238 98.816C84.6411 98.816 84.0998 99.016 83.6998 99.416C83.3051 99.8107 83.0598 100.36 82.9638 101.064H87.3958ZM88.5478 104.864C88.3718 105.077 88.1611 105.264 87.9158 105.424C87.6704 105.579 87.4064 105.707 87.1238 105.808C86.8464 105.909 86.5584 105.984 86.2598 106.032C85.9611 106.085 85.6651 106.112 85.3718 106.112C84.8118 106.112 84.2944 106.019 83.8198 105.832C83.3504 105.64 82.9424 105.363 82.5958 105C82.2544 104.632 81.9878 104.179 81.7958 103.64C81.6038 103.101 81.5078 102.483 81.5078 101.784C81.5078 101.219 81.5931 100.691 81.7638 100.2C81.9398 99.7093 82.1904 99.2853 82.5158 98.928C82.8411 98.5653 83.2384 98.2827 83.7078 98.08C84.1771 97.872 84.7051 97.768 85.2918 97.768C85.7771 97.768 86.2251 97.8507 86.6358 98.016C87.0518 98.176 87.4091 98.4107 87.7078 98.72C88.0118 99.024 88.2491 99.4027 88.4198 99.856C88.5904 100.304 88.6758 100.816 88.6758 101.392C88.6758 101.616 88.6518 101.765 88.6038 101.84C88.5558 101.915 88.4651 101.952 88.3318 101.952H82.9158C82.9318 102.464 83.0011 102.909 83.1238 103.288C83.2518 103.667 83.4278 103.984 83.6518 104.24C83.8758 104.491 84.1424 104.68 84.4518 104.808C84.7611 104.931 85.1078 104.992 85.4918 104.992C85.8491 104.992 86.1558 104.952 86.4118 104.872C86.6731 104.787 86.8971 104.696 87.0838 104.6C87.2704 104.504 87.4251 104.416 87.5478 104.336C87.6758 104.251 87.7851 104.208 87.8758 104.208C87.9931 104.208 88.0838 104.253 88.1478 104.344L88.5478 104.864ZM90.8748 106V99.112L89.9788 99.008C89.8668 98.9813 89.7734 98.9413 89.6988 98.888C89.6294 98.8293 89.5948 98.7467 89.5948 98.64V98.056H90.8748V97.272C90.8748 96.808 90.9388 96.3973 91.0668 96.04C91.2001 95.6773 91.3868 95.3733 91.6268 95.128C91.8721 94.8773 92.1654 94.688 92.5068 94.56C92.8481 94.432 93.2321 94.368 93.6588 94.368C94.0214 94.368 94.3548 94.4213 94.6588 94.528L94.6268 95.24C94.6161 95.368 94.5441 95.4373 94.4108 95.448C94.2828 95.4587 94.1094 95.464 93.8908 95.464C93.6454 95.464 93.4214 95.496 93.2188 95.56C93.0214 95.624 92.8508 95.728 92.7068 95.872C92.5628 96.016 92.4508 96.2053 92.3708 96.44C92.2961 96.6747 92.2588 96.9653 92.2588 97.312V98.056H94.5948V99.088H92.3068V106H90.8748ZM97.3081 99.52C97.5641 98.9653 97.8788 98.5333 98.2521 98.224C98.6255 97.9093 99.0815 97.752 99.6201 97.752C99.7908 97.752 99.9535 97.7707 100.108 97.808C100.268 97.8453 100.409 97.904 100.532 97.984L100.428 99.048C100.396 99.1813 100.316 99.248 100.188 99.248C100.113 99.248 100.004 99.232 99.8601 99.2C99.7161 99.168 99.5535 99.152 99.3721 99.152C99.1161 99.152 98.8868 99.1893 98.6841 99.264C98.4868 99.3387 98.3081 99.4507 98.1481 99.6C97.9935 99.744 97.8521 99.9253 97.7241 100.144C97.6015 100.357 97.4895 100.603 97.3881 100.88V106H95.9561V97.896H96.7721C96.9268 97.896 97.0335 97.9253 97.0921 97.984C97.1508 98.0427 97.1908 98.144 97.2121 98.288L97.3081 99.52ZM106.051 102.352C105.395 102.373 104.835 102.427 104.371 102.512C103.913 102.592 103.537 102.699 103.243 102.832C102.955 102.965 102.745 103.123 102.611 103.304C102.483 103.485 102.419 103.688 102.419 103.912C102.419 104.125 102.454 104.309 102.523 104.464C102.593 104.619 102.686 104.747 102.803 104.848C102.926 104.944 103.067 105.016 103.227 105.064C103.393 105.107 103.569 105.128 103.755 105.128C104.006 105.128 104.235 105.104 104.443 105.056C104.651 105.003 104.846 104.928 105.027 104.832C105.214 104.736 105.39 104.621 105.555 104.488C105.726 104.355 105.891 104.203 106.051 104.032V102.352ZM101.451 99.04C101.899 98.608 102.382 98.2853 102.899 98.072C103.417 97.8587 103.99 97.752 104.619 97.752C105.073 97.752 105.475 97.8267 105.827 97.976C106.179 98.1253 106.475 98.3333 106.715 98.6C106.955 98.8667 107.137 99.1893 107.259 99.568C107.382 99.9467 107.443 100.363 107.443 100.816V106H106.811C106.673 106 106.566 105.979 106.491 105.936C106.417 105.888 106.358 105.797 106.315 105.664L106.155 104.896C105.942 105.093 105.734 105.269 105.531 105.424C105.329 105.573 105.115 105.701 104.891 105.808C104.667 105.909 104.427 105.987 104.171 106.04C103.921 106.099 103.641 106.128 103.331 106.128C103.017 106.128 102.721 106.085 102.443 106C102.166 105.909 101.923 105.776 101.715 105.6C101.513 105.424 101.35 105.203 101.227 104.936C101.11 104.664 101.051 104.344 101.051 103.976C101.051 103.656 101.139 103.349 101.315 103.056C101.491 102.757 101.777 102.493 102.171 102.264C102.566 102.035 103.081 101.848 103.715 101.704C104.35 101.555 105.129 101.469 106.051 101.448V100.816C106.051 100.187 105.915 99.712 105.643 99.392C105.371 99.0667 104.974 98.904 104.451 98.904C104.099 98.904 103.803 98.9493 103.563 99.04C103.329 99.1253 103.123 99.224 102.947 99.336C102.777 99.4427 102.627 99.5413 102.499 99.632C102.377 99.7173 102.254 99.76 102.131 99.76C102.035 99.76 101.953 99.736 101.883 99.688C101.814 99.6347 101.755 99.5707 101.707 99.496L101.451 99.04ZM109.612 106V97.896H110.468C110.671 97.896 110.796 97.9947 110.844 98.192L110.948 99.024C111.247 98.656 111.583 98.3547 111.956 98.12C112.33 97.8853 112.762 97.768 113.252 97.768C113.796 97.768 114.236 97.92 114.572 98.224C114.914 98.528 115.159 98.9387 115.308 99.456C115.426 99.1627 115.575 98.9093 115.756 98.696C115.943 98.4827 116.151 98.3067 116.38 98.168C116.61 98.0293 116.852 97.928 117.108 97.864C117.37 97.8 117.634 97.768 117.9 97.768C118.327 97.768 118.706 97.8373 119.036 97.976C119.372 98.1093 119.655 98.3067 119.884 98.568C120.119 98.8293 120.298 99.152 120.42 99.536C120.543 99.9147 120.604 100.349 120.604 100.84V106H119.172V100.84C119.172 100.205 119.034 99.7253 118.756 99.4C118.479 99.0693 118.079 98.904 117.556 98.904C117.322 98.904 117.098 98.9467 116.884 99.032C116.676 99.112 116.492 99.232 116.332 99.392C116.172 99.552 116.044 99.7547 115.948 100C115.858 100.24 115.812 100.52 115.812 100.84V106H114.38V100.84C114.38 100.189 114.25 99.704 113.988 99.384C113.727 99.064 113.346 98.904 112.844 98.904C112.492 98.904 112.167 99 111.868 99.192C111.57 99.3787 111.295 99.6347 111.044 99.96V106H109.612ZM128.193 101.064C128.193 100.733 128.145 100.432 128.049 100.16C127.958 99.8827 127.822 99.6453 127.641 99.448C127.465 99.2453 127.249 99.0907 126.993 98.984C126.737 98.872 126.446 98.816 126.121 98.816C125.438 98.816 124.897 99.016 124.497 99.416C124.102 99.8107 123.857 100.36 123.761 101.064H128.193ZM129.345 104.864C129.169 105.077 128.958 105.264 128.713 105.424C128.467 105.579 128.203 105.707 127.921 105.808C127.643 105.909 127.355 105.984 127.057 106.032C126.758 106.085 126.462 106.112 126.169 106.112C125.609 106.112 125.091 106.019 124.617 105.832C124.147 105.64 123.739 105.363 123.393 105C123.051 104.632 122.785 104.179 122.593 103.64C122.401 103.101 122.305 102.483 122.305 101.784C122.305 101.219 122.39 100.691 122.561 100.2C122.737 99.7093 122.987 99.2853 123.313 98.928C123.638 98.5653 124.035 98.2827 124.505 98.08C124.974 97.872 125.502 97.768 126.089 97.768C126.574 97.768 127.022 97.8507 127.433 98.016C127.849 98.176 128.206 98.4107 128.505 98.72C128.809 99.024 129.046 99.4027 129.217 99.856C129.387 100.304 129.473 100.816 129.473 101.392C129.473 101.616 129.449 101.765 129.401 101.84C129.353 101.915 129.262 101.952 129.129 101.952H123.713C123.729 102.464 123.798 102.909 123.921 103.288C124.049 103.667 124.225 103.984 124.449 104.24C124.673 104.491 124.939 104.68 125.249 104.808C125.558 104.931 125.905 104.992 126.289 104.992C126.646 104.992 126.953 104.952 127.209 104.872C127.47 104.787 127.694 104.696 127.881 104.6C128.067 104.504 128.222 104.416 128.345 104.336C128.473 104.251 128.582 104.208 128.673 104.208C128.79 104.208 128.881 104.253 128.945 104.344L129.345 104.864ZM135.942 99.232C135.878 99.3493 135.779 99.408 135.646 99.408C135.566 99.408 135.475 99.3787 135.374 99.32C135.272 99.2613 135.147 99.1973 134.998 99.128C134.854 99.0533 134.68 98.9867 134.478 98.928C134.275 98.864 134.035 98.832 133.758 98.832C133.518 98.832 133.302 98.864 133.11 98.928C132.918 98.9867 132.752 99.0693 132.614 99.176C132.48 99.2827 132.376 99.408 132.302 99.552C132.232 99.6907 132.198 99.8427 132.198 100.008C132.198 100.216 132.256 100.389 132.374 100.528C132.496 100.667 132.656 100.787 132.854 100.888C133.051 100.989 133.275 101.08 133.526 101.16C133.776 101.235 134.032 101.317 134.294 101.408C134.56 101.493 134.819 101.589 135.07 101.696C135.32 101.803 135.544 101.936 135.742 102.096C135.939 102.256 136.096 102.453 136.214 102.688C136.336 102.917 136.398 103.195 136.398 103.52C136.398 103.893 136.331 104.24 136.198 104.56C136.064 104.875 135.867 105.149 135.606 105.384C135.344 105.613 135.024 105.795 134.646 105.928C134.267 106.061 133.83 106.128 133.334 106.128C132.768 106.128 132.256 106.037 131.798 105.856C131.339 105.669 130.95 105.432 130.63 105.144L130.966 104.6C131.008 104.531 131.059 104.477 131.118 104.44C131.176 104.403 131.251 104.384 131.342 104.384C131.438 104.384 131.539 104.421 131.646 104.496C131.752 104.571 131.88 104.653 132.03 104.744C132.184 104.835 132.371 104.917 132.59 104.992C132.808 105.067 133.08 105.104 133.406 105.104C133.683 105.104 133.926 105.069 134.134 105C134.342 104.925 134.515 104.827 134.654 104.704C134.792 104.581 134.894 104.44 134.958 104.28C135.027 104.12 135.062 103.949 135.062 103.768C135.062 103.544 135 103.36 134.878 103.216C134.76 103.067 134.603 102.941 134.406 102.84C134.208 102.733 133.982 102.643 133.726 102.568C133.475 102.488 133.216 102.405 132.95 102.32C132.688 102.235 132.43 102.139 132.174 102.032C131.923 101.92 131.699 101.781 131.502 101.616C131.304 101.451 131.144 101.248 131.022 101.008C130.904 100.763 130.846 100.467 130.846 100.12C130.846 99.8107 130.91 99.5147 131.038 99.232C131.166 98.944 131.352 98.6933 131.598 98.48C131.843 98.2613 132.144 98.088 132.502 97.96C132.859 97.832 133.267 97.768 133.726 97.768C134.259 97.768 134.736 97.8533 135.158 98.024C135.584 98.1893 135.952 98.4187 136.262 98.712L135.942 99.232ZM60.488 129.768C60.9307 129.768 61.312 129.717 61.632 129.616C61.952 129.515 62.2133 129.373 62.416 129.192C62.624 129.005 62.776 128.787 62.872 128.536C62.968 128.28 63.016 128 63.016 127.696C63.016 127.104 62.8053 126.637 62.384 126.296C61.9627 125.949 61.3307 125.776 60.488 125.776H58.008V129.768H60.488ZM58.008 120.76V124.672H60.056C60.4933 124.672 60.872 124.624 61.192 124.528C61.5173 124.432 61.784 124.299 61.992 124.128C62.2053 123.957 62.3627 123.752 62.464 123.512C62.5653 123.267 62.616 123 62.616 122.712C62.616 122.035 62.4133 121.541 62.008 121.232C61.6027 120.917 60.9733 120.76 60.12 120.76H58.008ZM60.12 119.536C60.824 119.536 61.4293 119.605 61.936 119.744C62.448 119.883 62.8667 120.08 63.192 120.336C63.5227 120.592 63.7653 120.907 63.92 121.28C64.0747 121.648 64.152 122.064 64.152 122.528C64.152 122.811 64.1067 123.083 64.016 123.344C63.9307 123.6 63.8 123.84 63.624 124.064C63.448 124.288 63.224 124.491 62.952 124.672C62.6853 124.848 62.3707 124.992 62.008 125.104C62.8507 125.264 63.4827 125.565 63.904 126.008C64.3307 126.445 64.544 127.021 64.544 127.736C64.544 128.221 64.4533 128.664 64.272 129.064C64.096 129.464 63.8347 129.808 63.488 130.096C63.1467 130.384 62.7253 130.608 62.224 130.768C61.7227 130.923 61.152 131 60.512 131H56.464V119.536H60.12ZM67.6519 124.52C67.9079 123.965 68.2225 123.533 68.5959 123.224C68.9692 122.909 69.4252 122.752 69.9639 122.752C70.1345 122.752 70.2972 122.771 70.4519 122.808C70.6119 122.845 70.7532 122.904 70.8759 122.984L70.7719 124.048C70.7399 124.181 70.6599 124.248 70.5319 124.248C70.4572 124.248 70.3479 124.232 70.2039 124.2C70.0599 124.168 69.8972 124.152 69.7159 124.152C69.4599 124.152 69.2305 124.189 69.0279 124.264C68.8305 124.339 68.6519 124.451 68.4919 124.6C68.3372 124.744 68.1959 124.925 68.0679 125.144C67.9452 125.357 67.8332 125.603 67.7319 125.88V131H66.2999V122.896H67.1159C67.2705 122.896 67.3772 122.925 67.4359 122.984C67.4945 123.043 67.5345 123.144 67.5559 123.288L67.6519 124.52ZM76.395 127.352C75.739 127.373 75.179 127.427 74.715 127.512C74.2563 127.592 73.8803 127.699 73.587 127.832C73.299 127.965 73.0883 128.123 72.955 128.304C72.827 128.485 72.763 128.688 72.763 128.912C72.763 129.125 72.7977 129.309 72.867 129.464C72.9363 129.619 73.0297 129.747 73.147 129.848C73.2697 129.944 73.411 130.016 73.571 130.064C73.7363 130.107 73.9123 130.128 74.099 130.128C74.3497 130.128 74.579 130.104 74.787 130.056C74.995 130.003 75.1897 129.928 75.371 129.832C75.5577 129.736 75.7337 129.621 75.899 129.488C76.0697 129.355 76.235 129.203 76.395 129.032V127.352ZM71.795 124.04C72.243 123.608 72.7257 123.285 73.243 123.072C73.7603 122.859 74.3337 122.752 74.963 122.752C75.4163 122.752 75.819 122.827 76.171 122.976C76.523 123.125 76.819 123.333 77.059 123.6C77.299 123.867 77.4803 124.189 77.603 124.568C77.7257 124.947 77.787 125.363 77.787 125.816V131H77.155C77.0163 131 76.9097 130.979 76.835 130.936C76.7603 130.888 76.7017 130.797 76.659 130.664L76.499 129.896C76.2857 130.093 76.0777 130.269 75.875 130.424C75.6723 130.573 75.459 130.701 75.235 130.808C75.011 130.909 74.771 130.987 74.515 131.04C74.2643 131.099 73.9843 131.128 73.675 131.128C73.3603 131.128 73.0643 131.085 72.787 131C72.5097 130.909 72.267 130.776 72.059 130.6C71.8563 130.424 71.6937 130.203 71.571 129.936C71.4537 129.664 71.395 129.344 71.395 128.976C71.395 128.656 71.483 128.349 71.659 128.056C71.835 127.757 72.1203 127.493 72.515 127.264C72.9097 127.035 73.4243 126.848 74.059 126.704C74.6937 126.555 75.4723 126.469 76.395 126.448V125.816C76.395 125.187 76.259 124.712 75.987 124.392C75.715 124.067 75.3177 123.904 74.795 123.904C74.443 123.904 74.147 123.949 73.907 124.04C73.6723 124.125 73.467 124.224 73.291 124.336C73.1203 124.443 72.971 124.541 72.843 124.632C72.7203 124.717 72.5977 124.76 72.475 124.76C72.379 124.76 72.2963 124.736 72.227 124.688C72.1577 124.635 72.099 124.571 72.051 124.496L71.795 124.04ZM81.3001 124.072C81.4761 123.875 81.6628 123.696 81.8601 123.536C82.0575 123.376 82.2655 123.24 82.4841 123.128C82.7081 123.011 82.9428 122.923 83.1881 122.864C83.4388 122.8 83.7081 122.768 83.9961 122.768C84.4388 122.768 84.8281 122.843 85.1641 122.992C85.5055 123.136 85.7881 123.344 86.0121 123.616C86.2415 123.883 86.4148 124.205 86.5321 124.584C86.6495 124.963 86.7081 125.381 86.7081 125.84V131H85.2761V125.84C85.2761 125.227 85.1348 124.752 84.8521 124.416C84.5748 124.075 84.1508 123.904 83.5801 123.904C83.1588 123.904 82.7641 124.005 82.3961 124.208C82.0335 124.411 81.6975 124.685 81.3881 125.032V131H79.9561V122.896H80.8121C81.0148 122.896 81.1401 122.995 81.1881 123.192L81.3001 124.072ZM94.158 124.824C93.8913 124.467 93.6033 124.219 93.294 124.08C92.9847 123.936 92.638 123.864 92.254 123.864C91.502 123.864 90.9233 124.133 90.518 124.672C90.1127 125.211 89.91 125.979 89.91 126.976C89.91 127.504 89.9553 127.957 90.046 128.336C90.1367 128.709 90.27 129.019 90.446 129.264C90.622 129.504 90.838 129.68 91.094 129.792C91.35 129.904 91.6407 129.96 91.966 129.96C92.4353 129.96 92.8433 129.853 93.19 129.64C93.542 129.427 93.8647 129.125 94.158 128.736V124.824ZM95.582 119.216V131H94.734C94.5313 131 94.4033 130.901 94.35 130.704L94.222 129.72C93.8753 130.136 93.4807 130.472 93.038 130.728C92.5953 130.984 92.0833 131.112 91.502 131.112C91.038 131.112 90.6167 131.024 90.238 130.848C89.8593 130.667 89.5367 130.403 89.27 130.056C89.0033 129.709 88.798 129.277 88.654 128.76C88.51 128.243 88.438 127.648 88.438 126.976C88.438 126.379 88.518 125.824 88.678 125.312C88.838 124.795 89.0673 124.347 89.366 123.968C89.6647 123.589 90.03 123.293 90.462 123.08C90.8993 122.861 91.39 122.752 91.934 122.752C92.43 122.752 92.854 122.837 93.206 123.008C93.5633 123.173 93.8807 123.405 94.158 123.704V119.216H95.582ZM99.3351 122.896V131H97.9111V122.896H99.3351ZM99.6391 120.352C99.6391 120.491 99.6098 120.621 99.5511 120.744C99.4978 120.861 99.4231 120.968 99.3271 121.064C99.2365 121.155 99.1271 121.227 98.9991 121.28C98.8765 121.333 98.7458 121.36 98.6071 121.36C98.4685 121.36 98.3378 121.333 98.2151 121.28C98.0978 121.227 97.9938 121.155 97.9031 121.064C97.8125 120.968 97.7405 120.861 97.6871 120.744C97.6338 120.621 97.6071 120.491 97.6071 120.352C97.6071 120.213 97.6338 120.083 97.6871 119.96C97.7405 119.832 97.8125 119.723 97.9031 119.632C97.9938 119.536 98.0978 119.461 98.2151 119.408C98.3378 119.355 98.4685 119.328 98.6071 119.328C98.7458 119.328 98.8765 119.355 98.9991 119.408C99.1271 119.461 99.2365 119.536 99.3271 119.632C99.4231 119.723 99.4978 119.832 99.5511 119.96C99.6098 120.083 99.6391 120.213 99.6391 120.352ZM103.019 124.072C103.195 123.875 103.382 123.696 103.579 123.536C103.776 123.376 103.984 123.24 104.203 123.128C104.427 123.011 104.662 122.923 104.907 122.864C105.158 122.8 105.427 122.768 105.715 122.768C106.158 122.768 106.547 122.843 106.883 122.992C107.224 123.136 107.507 123.344 107.731 123.616C107.96 123.883 108.134 124.205 108.251 124.584C108.368 124.963 108.427 125.381 108.427 125.84V131H106.995V125.84C106.995 125.227 106.854 124.752 106.571 124.416C106.294 124.075 105.87 123.904 105.299 123.904C104.878 123.904 104.483 124.005 104.115 124.208C103.752 124.411 103.416 124.685 103.107 125.032V131H101.675V122.896H102.531C102.734 122.896 102.859 122.995 102.907 123.192L103.019 124.072ZM113.421 127.04C113.709 127.04 113.962 127 114.181 126.92C114.399 126.84 114.583 126.728 114.733 126.584C114.882 126.44 114.994 126.269 115.069 126.072C115.143 125.869 115.181 125.648 115.181 125.408C115.181 124.912 115.029 124.517 114.725 124.224C114.426 123.931 113.991 123.784 113.421 123.784C112.845 123.784 112.405 123.931 112.101 124.224C111.802 124.517 111.653 124.912 111.653 125.408C111.653 125.648 111.69 125.869 111.765 126.072C111.845 126.269 111.959 126.44 112.109 126.584C112.258 126.728 112.442 126.84 112.661 126.92C112.879 127 113.133 127.04 113.421 127.04ZM115.989 131.44C115.989 131.243 115.933 131.083 115.821 130.96C115.709 130.837 115.557 130.741 115.365 130.672C115.178 130.603 114.959 130.555 114.709 130.528C114.458 130.496 114.191 130.472 113.909 130.456C113.631 130.44 113.349 130.424 113.061 130.408C112.773 130.392 112.495 130.365 112.229 130.328C111.93 130.467 111.685 130.643 111.493 130.856C111.306 131.064 111.213 131.309 111.213 131.592C111.213 131.773 111.258 131.941 111.349 132.096C111.445 132.256 111.589 132.392 111.781 132.504C111.973 132.621 112.213 132.712 112.501 132.776C112.794 132.845 113.138 132.88 113.533 132.88C113.917 132.88 114.261 132.845 114.565 132.776C114.869 132.707 115.125 132.608 115.333 132.48C115.546 132.352 115.709 132.2 115.821 132.024C115.933 131.848 115.989 131.653 115.989 131.44ZM117.437 123.216V123.744C117.437 123.92 117.325 124.032 117.101 124.08L116.181 124.2C116.362 124.552 116.453 124.941 116.453 125.368C116.453 125.763 116.375 126.123 116.221 126.448C116.071 126.768 115.863 127.043 115.597 127.272C115.33 127.501 115.01 127.677 114.637 127.8C114.263 127.923 113.858 127.984 113.421 127.984C113.042 127.984 112.685 127.939 112.349 127.848C112.178 127.955 112.047 128.069 111.957 128.192C111.866 128.309 111.821 128.429 111.821 128.552C111.821 128.744 111.898 128.891 112.053 128.992C112.213 129.088 112.421 129.157 112.677 129.2C112.933 129.243 113.223 129.269 113.549 129.28C113.879 129.291 114.215 129.309 114.557 129.336C114.903 129.357 115.239 129.397 115.565 129.456C115.895 129.515 116.189 129.611 116.445 129.744C116.701 129.877 116.906 130.061 117.061 130.296C117.221 130.531 117.301 130.835 117.301 131.208C117.301 131.555 117.213 131.891 117.037 132.216C116.866 132.541 116.618 132.829 116.293 133.08C115.967 133.336 115.567 133.539 115.093 133.688C114.623 133.843 114.093 133.92 113.501 133.92C112.909 133.92 112.391 133.861 111.949 133.744C111.506 133.627 111.138 133.469 110.845 133.272C110.551 133.075 110.33 132.845 110.181 132.584C110.037 132.328 109.965 132.059 109.965 131.776C109.965 131.376 110.09 131.037 110.341 130.76C110.591 130.483 110.935 130.261 111.373 130.096C111.133 129.989 110.941 129.848 110.797 129.672C110.658 129.491 110.589 129.248 110.589 128.944C110.589 128.827 110.61 128.707 110.653 128.584C110.695 128.456 110.759 128.331 110.845 128.208C110.935 128.08 111.045 127.96 111.173 127.848C111.301 127.736 111.45 127.637 111.621 127.552C111.221 127.328 110.909 127.032 110.685 126.664C110.461 126.291 110.349 125.859 110.349 125.368C110.349 124.973 110.423 124.616 110.573 124.296C110.727 123.971 110.941 123.696 111.213 123.472C111.485 123.243 111.807 123.067 112.181 122.944C112.559 122.821 112.973 122.76 113.421 122.76C113.773 122.76 114.101 122.8 114.405 122.88C114.709 122.955 114.986 123.067 115.237 123.216H117.437ZM125.827 127.04C126.115 127.04 126.368 127 126.587 126.92C126.806 126.84 126.99 126.728 127.139 126.584C127.288 126.44 127.4 126.269 127.475 126.072C127.55 125.869 127.587 125.648 127.587 125.408C127.587 124.912 127.435 124.517 127.131 124.224C126.832 123.931 126.398 123.784 125.827 123.784C125.251 123.784 124.811 123.931 124.507 124.224C124.208 124.517 124.059 124.912 124.059 125.408C124.059 125.648 124.096 125.869 124.171 126.072C124.251 126.269 124.366 126.44 124.515 126.584C124.664 126.728 124.848 126.84 125.067 126.92C125.286 127 125.539 127.04 125.827 127.04ZM128.395 131.44C128.395 131.243 128.339 131.083 128.227 130.96C128.115 130.837 127.963 130.741 127.771 130.672C127.584 130.603 127.366 130.555 127.115 130.528C126.864 130.496 126.598 130.472 126.315 130.456C126.038 130.44 125.755 130.424 125.467 130.408C125.179 130.392 124.902 130.365 124.635 130.328C124.336 130.467 124.091 130.643 123.899 130.856C123.712 131.064 123.619 131.309 123.619 131.592C123.619 131.773 123.664 131.941 123.755 132.096C123.851 132.256 123.995 132.392 124.187 132.504C124.379 132.621 124.619 132.712 124.907 132.776C125.2 132.845 125.544 132.88 125.939 132.88C126.323 132.88 126.667 132.845 126.971 132.776C127.275 132.707 127.531 132.608 127.739 132.48C127.952 132.352 128.115 132.2 128.227 132.024C128.339 131.848 128.395 131.653 128.395 131.44ZM129.843 123.216V123.744C129.843 123.92 129.731 124.032 129.507 124.08L128.587 124.2C128.768 124.552 128.859 124.941 128.859 125.368C128.859 125.763 128.782 126.123 128.627 126.448C128.478 126.768 128.27 127.043 128.003 127.272C127.736 127.501 127.416 127.677 127.043 127.8C126.67 127.923 126.264 127.984 125.827 127.984C125.448 127.984 125.091 127.939 124.755 127.848C124.584 127.955 124.454 128.069 124.363 128.192C124.272 128.309 124.227 128.429 124.227 128.552C124.227 128.744 124.304 128.891 124.459 128.992C124.619 129.088 124.827 129.157 125.083 129.2C125.339 129.243 125.63 129.269 125.955 129.28C126.286 129.291 126.622 129.309 126.963 129.336C127.31 129.357 127.646 129.397 127.971 129.456C128.302 129.515 128.595 129.611 128.851 129.744C129.107 129.877 129.312 130.061 129.467 130.296C129.627 130.531 129.707 130.835 129.707 131.208C129.707 131.555 129.619 131.891 129.443 132.216C129.272 132.541 129.024 132.829 128.699 133.08C128.374 133.336 127.974 133.539 127.499 133.688C127.03 133.843 126.499 133.92 125.907 133.92C125.315 133.92 124.798 133.861 124.355 133.744C123.912 133.627 123.544 133.469 123.251 133.272C122.958 133.075 122.736 132.845 122.587 132.584C122.443 132.328 122.371 132.059 122.371 131.776C122.371 131.376 122.496 131.037 122.747 130.76C122.998 130.483 123.342 130.261 123.779 130.096C123.539 129.989 123.347 129.848 123.203 129.672C123.064 129.491 122.995 129.248 122.995 128.944C122.995 128.827 123.016 128.707 123.059 128.584C123.102 128.456 123.166 128.331 123.251 128.208C123.342 128.08 123.451 127.96 123.579 127.848C123.707 127.736 123.856 127.637 124.027 127.552C123.627 127.328 123.315 127.032 123.091 126.664C122.867 126.291 122.755 125.859 122.755 125.368C122.755 124.973 122.83 124.616 122.979 124.296C123.134 123.971 123.347 123.696 123.619 123.472C123.891 123.243 124.214 123.067 124.587 122.944C124.966 122.821 125.379 122.76 125.827 122.76C126.179 122.76 126.507 122.8 126.811 122.88C127.115 122.955 127.392 123.067 127.643 123.216H129.843ZM137.98 122.896V131H137.132C136.929 131 136.801 130.901 136.748 130.704L136.636 129.832C136.284 130.221 135.889 130.536 135.452 130.776C135.014 131.011 134.513 131.128 133.948 131.128C133.505 131.128 133.113 131.056 132.772 130.912C132.436 130.763 132.153 130.555 131.924 130.288C131.694 130.021 131.521 129.699 131.404 129.32C131.292 128.941 131.236 128.523 131.236 128.064V122.896H132.66V128.064C132.66 128.677 132.798 129.152 133.076 129.488C133.358 129.824 133.788 129.992 134.364 129.992C134.785 129.992 135.177 129.893 135.54 129.696C135.908 129.493 136.246 129.216 136.556 128.864V122.896H137.98ZM141.741 122.896V131H140.317V122.896H141.741ZM142.045 120.352C142.045 120.491 142.016 120.621 141.957 120.744C141.904 120.861 141.829 120.968 141.733 121.064C141.643 121.155 141.533 121.227 141.405 121.28C141.283 121.333 141.152 121.36 141.013 121.36C140.875 121.36 140.744 121.333 140.621 121.28C140.504 121.227 140.4 121.155 140.309 121.064C140.219 120.968 140.147 120.861 140.093 120.744C140.04 120.621 140.013 120.491 140.013 120.352C140.013 120.213 140.04 120.083 140.093 119.96C140.147 119.832 140.219 119.723 140.309 119.632C140.4 119.536 140.504 119.461 140.621 119.408C140.744 119.355 140.875 119.328 141.013 119.328C141.152 119.328 141.283 119.355 141.405 119.408C141.533 119.461 141.643 119.536 141.733 119.632C141.829 119.723 141.904 119.832 141.957 119.96C142.016 120.083 142.045 120.213 142.045 120.352ZM149.361 124.824C149.094 124.467 148.806 124.219 148.497 124.08C148.188 123.936 147.841 123.864 147.457 123.864C146.705 123.864 146.126 124.133 145.721 124.672C145.316 125.211 145.113 125.979 145.113 126.976C145.113 127.504 145.158 127.957 145.249 128.336C145.34 128.709 145.473 129.019 145.649 129.264C145.825 129.504 146.041 129.68 146.297 129.792C146.553 129.904 146.844 129.96 147.169 129.96C147.638 129.96 148.046 129.853 148.393 129.64C148.745 129.427 149.068 129.125 149.361 128.736V124.824ZM150.785 119.216V131H149.937C149.734 131 149.606 130.901 149.553 130.704L149.425 129.72C149.078 130.136 148.684 130.472 148.241 130.728C147.798 130.984 147.286 131.112 146.705 131.112C146.241 131.112 145.82 131.024 145.441 130.848C145.062 130.667 144.74 130.403 144.473 130.056C144.206 129.709 144.001 129.277 143.857 128.76C143.713 128.243 143.641 127.648 143.641 126.976C143.641 126.379 143.721 125.824 143.881 125.312C144.041 124.795 144.27 124.347 144.569 123.968C144.868 123.589 145.233 123.293 145.665 123.08C146.102 122.861 146.593 122.752 147.137 122.752C147.633 122.752 148.057 122.837 148.409 123.008C148.766 123.173 149.084 123.405 149.361 123.704V119.216H150.785ZM158.458 126.064C158.458 125.733 158.41 125.432 158.314 125.16C158.224 124.883 158.088 124.645 157.906 124.448C157.73 124.245 157.514 124.091 157.258 123.984C157.002 123.872 156.712 123.816 156.386 123.816C155.704 123.816 155.162 124.016 154.762 124.416C154.368 124.811 154.122 125.36 154.026 126.064H158.458ZM159.61 129.864C159.434 130.077 159.224 130.264 158.978 130.424C158.733 130.579 158.469 130.707 158.186 130.808C157.909 130.909 157.621 130.984 157.322 131.032C157.024 131.085 156.728 131.112 156.434 131.112C155.874 131.112 155.357 131.019 154.882 130.832C154.413 130.64 154.005 130.363 153.658 130C153.317 129.632 153.05 129.179 152.858 128.64C152.666 128.101 152.57 127.483 152.57 126.784C152.57 126.219 152.656 125.691 152.826 125.2C153.002 124.709 153.253 124.285 153.578 123.928C153.904 123.565 154.301 123.283 154.77 123.08C155.24 122.872 155.768 122.768 156.354 122.768C156.84 122.768 157.288 122.851 157.698 123.016C158.114 123.176 158.472 123.411 158.77 123.72C159.074 124.024 159.312 124.403 159.482 124.856C159.653 125.304 159.738 125.816 159.738 126.392C159.738 126.616 159.714 126.765 159.666 126.84C159.618 126.915 159.528 126.952 159.394 126.952H153.978C153.994 127.464 154.064 127.909 154.186 128.288C154.314 128.667 154.49 128.984 154.714 129.24C154.938 129.491 155.205 129.68 155.514 129.808C155.824 129.931 156.17 129.992 156.554 129.992C156.912 129.992 157.218 129.952 157.474 129.872C157.736 129.787 157.96 129.696 158.146 129.6C158.333 129.504 158.488 129.416 158.61 129.336C158.738 129.251 158.848 129.208 158.938 129.208C159.056 129.208 159.146 129.253 159.21 129.344L159.61 129.864ZM58.016 156H56.464V144.536H58.016V156ZM61.8314 149.072C62.0074 148.875 62.194 148.696 62.3914 148.536C62.5887 148.376 62.7967 148.24 63.0154 148.128C63.2394 148.011 63.474 147.923 63.7194 147.864C63.97 147.8 64.2394 147.768 64.5274 147.768C64.97 147.768 65.3594 147.843 65.6954 147.992C66.0367 148.136 66.3194 148.344 66.5434 148.616C66.7727 148.883 66.946 149.205 67.0634 149.584C67.1807 149.963 67.2394 150.381 67.2394 150.84V156H65.8074V150.84C65.8074 150.227 65.666 149.752 65.3834 149.416C65.106 149.075 64.682 148.904 64.1114 148.904C63.69 148.904 63.2954 149.005 62.9274 149.208C62.5647 149.411 62.2287 149.685 61.9194 150.032V156H60.4874V147.896H61.3434C61.546 147.896 61.6714 147.995 61.7194 148.192L61.8314 149.072ZM71.7879 156.128C71.1479 156.128 70.6545 155.949 70.3079 155.592C69.9665 155.235 69.7959 154.72 69.7959 154.048V149.088H68.8199C68.7345 149.088 68.6625 149.064 68.6039 149.016C68.5452 148.963 68.5159 148.883 68.5159 148.776V148.208L69.8439 148.04L70.1719 145.536C70.1879 145.456 70.2225 145.392 70.2759 145.344C70.3345 145.291 70.4092 145.264 70.4999 145.264H71.2199V148.056H73.5639V149.088H71.2199V153.952C71.2199 154.293 71.3025 154.547 71.4679 154.712C71.6332 154.877 71.8465 154.96 72.1079 154.96C72.2572 154.96 72.3852 154.941 72.4919 154.904C72.6039 154.861 72.6999 154.816 72.7799 154.768C72.8599 154.72 72.9265 154.677 72.9799 154.64C73.0385 154.597 73.0892 154.576 73.1319 154.576C73.2065 154.576 73.2732 154.621 73.3319 154.712L73.7479 155.392C73.5025 155.621 73.2065 155.803 72.8599 155.936C72.5132 156.064 72.1559 156.128 71.7879 156.128ZM80.4114 151.064C80.4114 150.733 80.3634 150.432 80.2674 150.16C80.1767 149.883 80.0407 149.645 79.8594 149.448C79.6834 149.245 79.4674 149.091 79.2114 148.984C78.9554 148.872 78.6647 148.816 78.3394 148.816C77.6567 148.816 77.1154 149.016 76.7154 149.416C76.3207 149.811 76.0754 150.36 75.9794 151.064H80.4114ZM81.5634 154.864C81.3874 155.077 81.1767 155.264 80.9314 155.424C80.686 155.579 80.422 155.707 80.1394 155.808C79.862 155.909 79.574 155.984 79.2754 156.032C78.9767 156.085 78.6807 156.112 78.3874 156.112C77.8274 156.112 77.31 156.019 76.8354 155.832C76.366 155.64 75.958 155.363 75.6114 155C75.27 154.632 75.0034 154.179 74.8114 153.64C74.6194 153.101 74.5234 152.483 74.5234 151.784C74.5234 151.219 74.6087 150.691 74.7794 150.2C74.9554 149.709 75.206 149.285 75.5314 148.928C75.8567 148.565 76.254 148.283 76.7234 148.08C77.1927 147.872 77.7207 147.768 78.3074 147.768C78.7927 147.768 79.2407 147.851 79.6514 148.016C80.0674 148.176 80.4247 148.411 80.7234 148.72C81.0274 149.024 81.2647 149.403 81.4354 149.856C81.606 150.304 81.6914 150.816 81.6914 151.392C81.6914 151.616 81.6674 151.765 81.6194 151.84C81.5714 151.915 81.4807 151.952 81.3474 151.952H75.9314C75.9474 152.464 76.0167 152.909 76.1394 153.288C76.2674 153.667 76.4434 153.984 76.6674 154.24C76.8914 154.491 77.158 154.68 77.4674 154.808C77.7767 154.931 78.1234 154.992 78.5074 154.992C78.8647 154.992 79.1714 154.952 79.4274 154.872C79.6887 154.787 79.9127 154.696 80.0994 154.6C80.286 154.504 80.4407 154.416 80.5634 154.336C80.6914 154.251 80.8007 154.208 80.8914 154.208C81.0087 154.208 81.0994 154.253 81.1634 154.344L81.5634 154.864ZM84.7925 149.52C85.0485 148.965 85.3632 148.533 85.7365 148.224C86.1098 147.909 86.5658 147.752 87.1045 147.752C87.2752 147.752 87.4378 147.771 87.5925 147.808C87.7525 147.845 87.8938 147.904 88.0165 147.984L87.9125 149.048C87.8805 149.181 87.8005 149.248 87.6725 149.248C87.5978 149.248 87.4885 149.232 87.3445 149.2C87.2005 149.168 87.0378 149.152 86.8565 149.152C86.6005 149.152 86.3712 149.189 86.1685 149.264C85.9712 149.339 85.7925 149.451 85.6325 149.6C85.4778 149.744 85.3365 149.925 85.2085 150.144C85.0858 150.357 84.9738 150.603 84.8725 150.88V156H83.4405V147.896H84.2565C84.4112 147.896 84.5178 147.925 84.5765 147.984C84.6352 148.043 84.6752 148.144 84.6965 148.288L84.7925 149.52ZM93.5356 152.352C92.8796 152.373 92.3196 152.427 91.8556 152.512C91.397 152.592 91.021 152.699 90.7276 152.832C90.4396 152.965 90.229 153.123 90.0956 153.304C89.9676 153.485 89.9036 153.688 89.9036 153.912C89.9036 154.125 89.9383 154.309 90.0076 154.464C90.077 154.619 90.1703 154.747 90.2876 154.848C90.4103 154.944 90.5516 155.016 90.7116 155.064C90.877 155.107 91.053 155.128 91.2396 155.128C91.4903 155.128 91.7196 155.104 91.9276 155.056C92.1356 155.003 92.3303 154.928 92.5116 154.832C92.6983 154.736 92.8743 154.621 93.0396 154.488C93.2103 154.355 93.3756 154.203 93.5356 154.032V152.352ZM88.9356 149.04C89.3836 148.608 89.8663 148.285 90.3836 148.072C90.901 147.859 91.4743 147.752 92.1036 147.752C92.557 147.752 92.9596 147.827 93.3116 147.976C93.6636 148.125 93.9596 148.333 94.1996 148.6C94.4396 148.867 94.621 149.189 94.7436 149.568C94.8663 149.947 94.9276 150.363 94.9276 150.816V156H94.2956C94.157 156 94.0503 155.979 93.9756 155.936C93.901 155.888 93.8423 155.797 93.7996 155.664L93.6396 154.896C93.4263 155.093 93.2183 155.269 93.0156 155.424C92.813 155.573 92.5996 155.701 92.3756 155.808C92.1516 155.909 91.9116 155.987 91.6556 156.04C91.405 156.099 91.125 156.128 90.8156 156.128C90.501 156.128 90.205 156.085 89.9276 156C89.6503 155.909 89.4076 155.776 89.1996 155.6C88.997 155.424 88.8343 155.203 88.7116 154.936C88.5943 154.664 88.5356 154.344 88.5356 153.976C88.5356 153.656 88.6236 153.349 88.7996 153.056C88.9756 152.757 89.261 152.493 89.6556 152.264C90.0503 152.035 90.565 151.848 91.1996 151.704C91.8343 151.555 92.613 151.469 93.5356 151.448V150.816C93.5356 150.187 93.3996 149.712 93.1276 149.392C92.8556 149.067 92.4583 148.904 91.9356 148.904C91.5836 148.904 91.2876 148.949 91.0476 149.04C90.813 149.125 90.6076 149.224 90.4316 149.336C90.261 149.443 90.1116 149.541 89.9836 149.632C89.861 149.717 89.7383 149.76 89.6156 149.76C89.5196 149.76 89.437 149.736 89.3676 149.688C89.2983 149.635 89.2396 149.571 89.1916 149.496L88.9356 149.04ZM102.737 149.336C102.694 149.395 102.651 149.44 102.609 149.472C102.566 149.504 102.507 149.52 102.433 149.52C102.353 149.52 102.265 149.488 102.169 149.424C102.073 149.355 101.953 149.28 101.809 149.2C101.67 149.12 101.497 149.048 101.289 148.984C101.086 148.915 100.835 148.88 100.537 148.88C100.137 148.88 99.7848 148.952 99.4808 149.096C99.1768 149.235 98.9208 149.437 98.7128 149.704C98.5101 149.971 98.3554 150.293 98.2488 150.672C98.1474 151.051 98.0968 151.475 98.0968 151.944C98.0968 152.435 98.1528 152.872 98.2648 153.256C98.3768 153.635 98.5341 153.955 98.7368 154.216C98.9448 154.472 99.1928 154.669 99.4808 154.808C99.7741 154.941 100.102 155.008 100.465 155.008C100.811 155.008 101.097 154.968 101.321 154.888C101.545 154.803 101.729 154.709 101.873 154.608C102.022 154.507 102.145 154.416 102.241 154.336C102.342 154.251 102.441 154.208 102.537 154.208C102.654 154.208 102.745 154.253 102.809 154.344L103.209 154.864C103.033 155.083 102.833 155.269 102.609 155.424C102.385 155.579 102.142 155.709 101.881 155.816C101.625 155.917 101.355 155.992 101.073 156.04C100.79 156.088 100.502 156.112 100.209 156.112C99.7021 156.112 99.2301 156.019 98.7928 155.832C98.3608 155.645 97.9848 155.376 97.6648 155.024C97.3448 154.667 97.0941 154.229 96.9128 153.712C96.7314 153.195 96.6408 152.605 96.6408 151.944C96.6408 151.341 96.7234 150.784 96.8888 150.272C97.0594 149.76 97.3048 149.32 97.6248 148.952C97.9501 148.579 98.3474 148.288 98.8168 148.08C99.2914 147.872 99.8354 147.768 100.449 147.768C101.019 147.768 101.521 147.861 101.953 148.048C102.39 148.229 102.777 148.488 103.113 148.824L102.737 149.336ZM112.257 156H110.833V149.088H106.657V153.952C106.657 154.293 106.74 154.547 106.905 154.712C107.071 154.877 107.284 154.96 107.545 154.96C107.695 154.96 107.823 154.941 107.929 154.904C108.041 154.861 108.137 154.816 108.217 154.768C108.297 154.72 108.364 154.677 108.417 154.64C108.476 154.597 108.527 154.576 108.569 154.576C108.644 154.576 108.711 154.621 108.769 154.712L109.185 155.392C108.94 155.621 108.644 155.803 108.297 155.936C107.951 156.064 107.593 156.128 107.225 156.128C106.585 156.128 106.092 155.949 105.745 155.592C105.404 155.235 105.233 154.72 105.233 154.048V149.088H104.257C104.172 149.088 104.1 149.064 104.041 149.016C103.983 148.963 103.953 148.883 103.953 148.776V148.208L105.281 148.032L105.609 145.536C105.625 145.456 105.66 145.392 105.713 145.344C105.772 145.291 105.847 145.264 105.937 145.264H106.657V148.056H112.257V156ZM112.609 145.296C112.609 145.435 112.58 145.565 112.521 145.688C112.468 145.805 112.393 145.909 112.297 146C112.207 146.091 112.1 146.163 111.977 146.216C111.855 146.269 111.724 146.296 111.585 146.296C111.447 146.296 111.316 146.269 111.193 146.216C111.076 146.163 110.972 146.091 110.881 146C110.791 145.909 110.719 145.805 110.665 145.688C110.612 145.565 110.585 145.435 110.585 145.296C110.585 145.157 110.612 145.027 110.665 144.904C110.719 144.776 110.791 144.667 110.881 144.576C110.972 144.48 111.076 144.405 111.193 144.352C111.316 144.299 111.447 144.272 111.585 144.272C111.724 144.272 111.855 144.299 111.977 144.352C112.1 144.405 112.207 144.48 112.297 144.576C112.393 144.667 112.468 144.776 112.521 144.904C112.58 145.027 112.609 145.157 112.609 145.296ZM121.541 147.896L118.237 156H116.957L113.653 147.896H114.813C114.93 147.896 115.026 147.925 115.101 147.984C115.175 148.043 115.226 148.112 115.253 148.192L117.309 153.408C117.373 153.605 117.429 153.797 117.477 153.984C117.525 154.171 117.57 154.357 117.613 154.544C117.655 154.357 117.701 154.171 117.749 153.984C117.797 153.797 117.855 153.605 117.925 153.408L120.005 148.192C120.037 148.107 120.09 148.037 120.165 147.984C120.239 147.925 120.327 147.896 120.429 147.896H121.541ZM128.052 151.064C128.052 150.733 128.004 150.432 127.908 150.16C127.817 149.883 127.681 149.645 127.5 149.448C127.324 149.245 127.108 149.091 126.852 148.984C126.596 148.872 126.305 148.816 125.98 148.816C125.297 148.816 124.756 149.016 124.356 149.416C123.961 149.811 123.716 150.36 123.62 151.064H128.052ZM129.204 154.864C129.028 155.077 128.817 155.264 128.572 155.424C128.327 155.579 128.063 155.707 127.78 155.808C127.503 155.909 127.215 155.984 126.916 156.032C126.617 156.085 126.321 156.112 126.028 156.112C125.468 156.112 124.951 156.019 124.476 155.832C124.007 155.64 123.599 155.363 123.252 155C122.911 154.632 122.644 154.179 122.452 153.64C122.26 153.101 122.164 152.483 122.164 151.784C122.164 151.219 122.249 150.691 122.42 150.2C122.596 149.709 122.847 149.285 123.172 148.928C123.497 148.565 123.895 148.283 124.364 148.08C124.833 147.872 125.361 147.768 125.948 147.768C126.433 147.768 126.881 147.851 127.292 148.016C127.708 148.176 128.065 148.411 128.364 148.72C128.668 149.024 128.905 149.403 129.076 149.856C129.247 150.304 129.332 150.816 129.332 151.392C129.332 151.616 129.308 151.765 129.26 151.84C129.212 151.915 129.121 151.952 128.988 151.952H123.572C123.588 152.464 123.657 152.909 123.78 153.288C123.908 153.667 124.084 153.984 124.308 154.24C124.532 154.491 124.799 154.68 125.108 154.808C125.417 154.931 125.764 154.992 126.148 154.992C126.505 154.992 126.812 154.952 127.068 154.872C127.329 154.787 127.553 154.696 127.74 154.6C127.927 154.504 128.081 154.416 128.204 154.336C128.332 154.251 128.441 154.208 128.532 154.208C128.649 154.208 128.74 154.253 128.804 154.344L129.204 154.864ZM136.607 154.048C136.868 154.4 137.154 154.648 137.463 154.792C137.772 154.936 138.119 155.008 138.503 155.008C139.26 155.008 139.842 154.739 140.247 154.2C140.652 153.661 140.855 152.893 140.855 151.896C140.855 151.368 140.807 150.915 140.711 150.536C140.62 150.157 140.487 149.848 140.311 149.608C140.135 149.363 139.919 149.184 139.663 149.072C139.407 148.96 139.116 148.904 138.791 148.904C138.327 148.904 137.919 149.011 137.567 149.224C137.22 149.437 136.9 149.739 136.607 150.128V154.048ZM136.535 149.152C136.876 148.731 137.271 148.392 137.719 148.136C138.167 147.88 138.679 147.752 139.255 147.752C139.724 147.752 140.148 147.843 140.527 148.024C140.906 148.2 141.228 148.464 141.495 148.816C141.762 149.163 141.967 149.595 142.111 150.112C142.255 150.629 142.327 151.224 142.327 151.896C142.327 152.493 142.247 153.051 142.087 153.568C141.927 154.08 141.695 154.525 141.391 154.904C141.092 155.277 140.724 155.573 140.287 155.792C139.855 156.005 139.367 156.112 138.823 156.112C138.327 156.112 137.9 156.029 137.543 155.864C137.191 155.693 136.879 155.459 136.607 155.16V158.744H135.175V147.896H136.031C136.234 147.896 136.359 147.995 136.407 148.192L136.535 149.152ZM145.496 149.52C145.752 148.965 146.066 148.533 146.44 148.224C146.813 147.909 147.269 147.752 147.808 147.752C147.978 147.752 148.141 147.771 148.296 147.808C148.456 147.845 148.597 147.904 148.72 147.984L148.616 149.048C148.584 149.181 148.504 149.248 148.376 149.248C148.301 149.248 148.192 149.232 148.048 149.2C147.904 149.168 147.741 149.152 147.56 149.152C147.304 149.152 147.074 149.189 146.872 149.264C146.674 149.339 146.496 149.451 146.336 149.6C146.181 149.744 146.04 149.925 145.912 150.144C145.789 150.357 145.677 150.603 145.576 150.88V156H144.144V147.896H144.96C145.114 147.896 145.221 147.925 145.28 147.984C145.338 148.043 145.378 148.144 145.4 148.288L145.496 149.52ZM153.06 147.768C153.652 147.768 154.185 147.867 154.66 148.064C155.134 148.261 155.54 148.541 155.876 148.904C156.212 149.267 156.468 149.707 156.644 150.224C156.825 150.736 156.916 151.309 156.916 151.944C156.916 152.584 156.825 153.16 156.644 153.672C156.468 154.184 156.212 154.621 155.876 154.984C155.54 155.347 155.134 155.627 154.66 155.824C154.185 156.016 153.652 156.112 153.06 156.112C152.462 156.112 151.924 156.016 151.444 155.824C150.969 155.627 150.564 155.347 150.228 154.984C149.892 154.621 149.633 154.184 149.452 153.672C149.276 153.16 149.188 152.584 149.188 151.944C149.188 151.309 149.276 150.736 149.452 150.224C149.633 149.707 149.892 149.267 150.228 148.904C150.564 148.541 150.969 148.261 151.444 148.064C151.924 147.867 152.462 147.768 153.06 147.768ZM153.06 155C153.86 155 154.457 154.733 154.852 154.2C155.246 153.661 155.444 152.912 155.444 151.952C155.444 150.987 155.246 150.235 154.852 149.696C154.457 149.157 153.86 148.888 153.06 148.888C152.654 148.888 152.3 148.957 151.996 149.096C151.697 149.235 151.446 149.435 151.244 149.696C151.046 149.957 150.897 150.28 150.796 150.664C150.7 151.043 150.652 151.472 150.652 151.952C150.652 152.912 150.849 153.661 151.244 154.2C151.644 154.733 152.249 155 153.06 155ZM161.069 156.128C160.429 156.128 159.936 155.949 159.589 155.592C159.248 155.235 159.077 154.72 159.077 154.048V149.088H158.101C158.016 149.088 157.944 149.064 157.885 149.016C157.826 148.963 157.797 148.883 157.797 148.776V148.208L159.125 148.04L159.453 145.536C159.469 145.456 159.504 145.392 159.557 145.344C159.616 145.291 159.69 145.264 159.781 145.264H160.501V148.056H162.845V149.088H160.501V153.952C160.501 154.293 160.584 154.547 160.749 154.712C160.914 154.877 161.128 154.96 161.389 154.96C161.538 154.96 161.666 154.941 161.773 154.904C161.885 154.861 161.981 154.816 162.061 154.768C162.141 154.72 162.208 154.677 162.261 154.64C162.32 154.597 162.37 154.576 162.413 154.576C162.488 154.576 162.554 154.621 162.613 154.712L163.029 155.392C162.784 155.621 162.488 155.803 162.141 155.936C161.794 156.064 161.437 156.128 161.069 156.128ZM167.685 147.768C168.277 147.768 168.81 147.867 169.285 148.064C169.759 148.261 170.165 148.541 170.501 148.904C170.837 149.267 171.093 149.707 171.269 150.224C171.45 150.736 171.541 151.309 171.541 151.944C171.541 152.584 171.45 153.16 171.269 153.672C171.093 154.184 170.837 154.621 170.501 154.984C170.165 155.347 169.759 155.627 169.285 155.824C168.81 156.016 168.277 156.112 167.685 156.112C167.087 156.112 166.549 156.016 166.069 155.824C165.594 155.627 165.189 155.347 164.853 154.984C164.517 154.621 164.258 154.184 164.077 153.672C163.901 153.16 163.813 152.584 163.813 151.944C163.813 151.309 163.901 150.736 164.077 150.224C164.258 149.707 164.517 149.267 164.853 148.904C165.189 148.541 165.594 148.261 166.069 148.064C166.549 147.867 167.087 147.768 167.685 147.768ZM167.685 155C168.485 155 169.082 154.733 169.477 154.2C169.871 153.661 170.069 152.912 170.069 151.952C170.069 150.987 169.871 150.235 169.477 149.696C169.082 149.157 168.485 148.888 167.685 148.888C167.279 148.888 166.925 148.957 166.621 149.096C166.322 149.235 166.071 149.435 165.869 149.696C165.671 149.957 165.522 150.28 165.421 150.664C165.325 151.043 165.277 151.472 165.277 151.952C165.277 152.912 165.474 153.661 165.869 154.2C166.269 154.733 166.874 155 167.685 155ZM175.694 156.128C175.054 156.128 174.561 155.949 174.214 155.592C173.873 155.235 173.702 154.72 173.702 154.048V149.088H172.726C172.641 149.088 172.569 149.064 172.51 149.016C172.451 148.963 172.422 148.883 172.422 148.776V148.208L173.75 148.04L174.078 145.536C174.094 145.456 174.129 145.392 174.182 145.344C174.241 145.291 174.315 145.264 174.406 145.264H175.126V148.056H177.47V149.088H175.126V153.952C175.126 154.293 175.209 154.547 175.374 154.712C175.539 154.877 175.753 154.96 176.014 154.96C176.163 154.96 176.291 154.941 176.398 154.904C176.51 154.861 176.606 154.816 176.686 154.768C176.766 154.72 176.833 154.677 176.886 154.64C176.945 154.597 176.995 154.576 177.038 154.576C177.113 154.576 177.179 154.621 177.238 154.712L177.654 155.392C177.409 155.621 177.113 155.803 176.766 155.936C176.419 156.064 176.062 156.128 175.694 156.128ZM185.933 147.896L181.413 158.392C181.365 158.499 181.303 158.584 181.229 158.648C181.159 158.712 181.05 158.744 180.901 158.744H179.845L181.325 155.528L177.981 147.896H179.213C179.335 147.896 179.431 147.928 179.501 147.992C179.575 148.051 179.626 148.117 179.653 148.192L181.821 153.296C181.906 153.52 181.978 153.755 182.036 154C182.111 153.749 182.191 153.512 182.277 153.288L184.381 148.192C184.413 148.107 184.466 148.037 184.541 147.984C184.621 147.925 184.709 147.896 184.805 147.896H185.933ZM188.623 154.048C188.884 154.4 189.169 154.648 189.479 154.792C189.788 154.936 190.135 155.008 190.519 155.008C191.276 155.008 191.857 154.739 192.263 154.2C192.668 153.661 192.871 152.893 192.871 151.896C192.871 151.368 192.823 150.915 192.727 150.536C192.636 150.157 192.503 149.848 192.327 149.608C192.151 149.363 191.935 149.184 191.679 149.072C191.423 148.96 191.132 148.904 190.807 148.904C190.343 148.904 189.935 149.011 189.583 149.224C189.236 149.437 188.916 149.739 188.623 150.128V154.048ZM188.551 149.152C188.892 148.731 189.287 148.392 189.735 148.136C190.183 147.88 190.695 147.752 191.271 147.752C191.74 147.752 192.164 147.843 192.543 148.024C192.921 148.2 193.244 148.464 193.511 148.816C193.777 149.163 193.983 149.595 194.127 150.112C194.271 150.629 194.343 151.224 194.343 151.896C194.343 152.493 194.263 153.051 194.102 153.568C193.943 154.08 193.711 154.525 193.407 154.904C193.108 155.277 192.74 155.573 192.303 155.792C191.871 156.005 191.383 156.112 190.839 156.112C190.343 156.112 189.916 156.029 189.559 155.864C189.207 155.693 188.895 155.459 188.623 155.16V158.744H187.191V147.896H188.047C188.249 147.896 188.375 147.995 188.423 148.192L188.551 149.152ZM201.583 151.064C201.583 150.733 201.535 150.432 201.439 150.16C201.349 149.883 201.213 149.645 201.031 149.448C200.855 149.245 200.639 149.091 200.383 148.984C200.127 148.872 199.837 148.816 199.511 148.816C198.829 148.816 198.287 149.016 197.887 149.416C197.493 149.811 197.247 150.36 197.151 151.064H201.583ZM202.735 154.864C202.559 155.077 202.349 155.264 202.103 155.424C201.858 155.579 201.594 155.707 201.311 155.808C201.034 155.909 200.746 155.984 200.447 156.032C200.149 156.085 199.853 156.112 199.559 156.112C198.999 156.112 198.482 156.019 198.007 155.832C197.538 155.64 197.13 155.363 196.783 155C196.442 154.632 196.175 154.179 195.983 153.64C195.791 153.101 195.695 152.483 195.695 151.784C195.695 151.219 195.781 150.691 195.951 150.2C196.127 149.709 196.378 149.285 196.703 148.928C197.029 148.565 197.426 148.283 197.895 148.08C198.365 147.872 198.893 147.768 199.479 147.768C199.965 147.768 200.413 147.851 200.823 148.016C201.239 148.176 201.597 148.411 201.895 148.72C202.199 149.024 202.437 149.403 202.607 149.856C202.778 150.304 202.863 150.816 202.863 151.392C202.863 151.616 202.839 151.765 202.791 151.84C202.743 151.915 202.653 151.952 202.519 151.952H197.103C197.119 152.464 197.189 152.909 197.311 153.288C197.439 153.667 197.615 153.984 197.839 154.24C198.063 154.491 198.33 154.68 198.639 154.808C198.949 154.931 199.295 154.992 199.679 154.992C200.037 154.992 200.343 154.952 200.599 154.872C200.861 154.787 201.085 154.696 201.271 154.6C201.458 154.504 201.613 154.416 201.735 154.336C201.863 154.251 201.973 154.208 202.063 154.208C202.181 154.208 202.271 154.253 202.335 154.344L202.735 154.864Z" fill="#4F4F4F"/>
<defs>
<clipPath id="clip0">
<rect width="21.62" height="22.9712" fill="white" transform="translate(8.46155 8.46143)"/>
</clipPath>
<clipPath id="clip1">
<rect width="21.62" height="21.62" fill="white" transform="translate(8.46155 9.13721)"/>
</clipPath>
<clipPath id="clip2">
<rect width="23" height="23" fill="white" transform="translate(8 8.99951)"/>
</clipPath>
</defs>
</svg>
