<svg width="302" height="130" viewBox="0 0 302 130" fill="none" xmlns="http://www.w3.org/2000/svg">
<path d="M36 70.5C16.3873 70.5 0.5 54.8234 0.5 35.5C0.5 16.1766 16.3873 0.5 36 0.5C55.6127 0.5 71.5 16.1766 71.5 35.5C71.5 54.8234 55.6127 70.5 36 70.5Z" fill="#275B81" stroke="white"/>
<path d="M36 49.8359H52.5" stroke="white" stroke-width="2" stroke-linecap="round" stroke-linejoin="round"/>
<path d="M44.25 20.2734C44.9793 19.5606 45.9686 19.1602 47 19.1602C47.5107 19.1602 48.0164 19.2585 48.4883 19.4495C48.9601 19.6405 49.3889 19.9204 49.75 20.2734C50.1111 20.6263 50.3976 21.0453 50.593 21.5064C50.7885 21.9675 50.8891 22.4617 50.8891 22.9609C50.8891 23.46 50.7885 23.9542 50.593 24.4153C50.3976 24.8764 50.1111 25.2954 49.75 25.6484L26.8333 48.0442L19.5 49.8359L21.3333 42.6692L44.25 20.2734Z" stroke="white" stroke-width="2" stroke-linecap="round" stroke-linejoin="round"/>
<path d="M126.208 35.504C125.596 36.2067 124.939 36.7053 124.236 37C123.533 37.3173 122.683 37.476 121.686 37.476C120.371 37.476 119.329 37.204 118.558 36.66C117.81 36.0933 117.323 35.1413 117.096 33.804L116.484 30.404C116.189 28.7493 115.827 27.5367 115.396 26.766C114.988 25.9727 114.297 25.576 113.322 25.576H111.112V33.396C111.112 34.2573 111.169 34.8807 111.282 35.266C111.418 35.6513 111.656 35.912 111.996 36.048C112.336 36.184 112.891 36.2747 113.662 36.32V37C112.438 36.932 110.727 36.898 108.528 36.898C106.103 36.898 104.312 36.932 103.156 37V36.32C103.904 36.2747 104.448 36.184 104.788 36.048C105.151 35.912 105.389 35.6513 105.502 35.266C105.638 34.8807 105.706 34.2573 105.706 33.396V16.532C105.706 15.6707 105.638 15.0473 105.502 14.662C105.389 14.2767 105.151 14.016 104.788 13.88C104.448 13.744 103.904 13.6533 103.156 13.608V12.928C104.312 12.996 106.035 13.03 108.324 13.03L112.098 12.996C112.551 12.9733 113.073 12.962 113.662 12.962C116.79 12.962 119.136 13.472 120.7 14.492C122.287 15.512 123.08 16.974 123.08 18.878C123.08 20.4873 122.491 21.904 121.312 23.128C120.133 24.352 118.184 25.1227 115.464 25.44C117.504 25.6213 119.023 26.0633 120.02 26.766C121.017 27.4687 121.663 28.5227 121.958 29.928L122.74 33.43C122.921 34.3367 123.125 34.9713 123.352 35.334C123.601 35.6967 123.941 35.878 124.372 35.878C124.644 35.8553 124.871 35.7873 125.052 35.674C125.256 35.5607 125.483 35.368 125.732 35.096L126.208 35.504ZM113.22 13.608C112.608 13.608 112.155 13.6873 111.86 13.846C111.588 14.0047 111.395 14.288 111.282 14.696C111.169 15.104 111.112 15.716 111.112 16.532V24.896H112.574C114.433 24.896 115.702 24.4087 116.382 23.434C117.085 22.4367 117.436 21.0427 117.436 19.252C117.436 17.3933 117.107 15.988 116.45 15.036C115.793 14.084 114.716 13.608 113.22 13.608ZM136.353 34.688C138.212 34.688 139.708 33.7813 140.841 31.968L141.453 32.172C141 33.6453 140.184 34.9033 139.005 35.946C137.849 36.966 136.398 37.476 134.653 37.476C132.25 37.476 130.335 36.7167 128.907 35.198C127.502 33.6567 126.799 31.39 126.799 28.398C126.799 25.338 127.558 23.0033 129.077 21.394C130.596 19.762 132.613 18.946 135.129 18.946C139.39 18.946 141.521 21.462 141.521 26.494H131.967C131.944 26.834 131.933 27.3667 131.933 28.092C131.933 29.588 132.137 30.8347 132.545 31.832C132.976 32.8293 133.52 33.5547 134.177 34.008C134.857 34.4613 135.582 34.688 136.353 34.688ZM134.925 19.66C134.109 19.66 133.429 20.17 132.885 21.19C132.364 22.1873 132.035 23.74 131.899 25.848H137.237C137.282 24.0573 137.101 22.584 136.693 21.428C136.308 20.2493 135.718 19.66 134.925 19.66ZM150.222 18.946C151.083 18.946 151.876 19.0593 152.602 19.286C153.327 19.49 153.882 19.728 154.268 20C154.494 20.1587 154.698 20.238 154.88 20.238C155.084 20.238 155.254 20.136 155.39 19.932C155.548 19.7053 155.65 19.388 155.696 18.98H156.41C156.319 20.136 156.274 22.1307 156.274 24.964H155.56C155.356 23.468 154.902 22.2213 154.2 21.224C153.52 20.204 152.522 19.694 151.208 19.694C150.528 19.694 149.961 19.8867 149.508 20.272C149.077 20.6573 148.862 21.19 148.862 21.87C148.862 22.6407 149.122 23.3093 149.644 23.876C150.165 24.42 150.981 25.0887 152.092 25.882L153.078 26.596C154.46 27.6387 155.48 28.568 156.138 29.384C156.795 30.2 157.124 31.22 157.124 32.444C157.124 33.4413 156.829 34.3253 156.24 35.096C155.673 35.8667 154.902 36.456 153.928 36.864C152.953 37.272 151.876 37.476 150.698 37.476C149.451 37.476 148.386 37.238 147.502 36.762C146.776 36.3993 146.255 36.1613 145.938 36.048C145.711 35.98 145.507 36.0593 145.326 36.286C145.167 36.49 145.042 36.8073 144.952 37.238H144.238C144.328 35.946 144.374 33.6793 144.374 30.438H145.088C145.541 34.6087 147.071 36.694 149.678 36.694C150.335 36.694 150.89 36.5013 151.344 36.116C151.82 35.708 152.058 35.096 152.058 34.28C152.058 33.6453 151.91 33.0787 151.616 32.58C151.344 32.0813 150.992 31.6393 150.562 31.254C150.131 30.8687 149.485 30.336 148.624 29.656C147.604 28.84 146.822 28.1827 146.278 27.684C145.756 27.1853 145.303 26.596 144.918 25.916C144.555 25.236 144.374 24.4767 144.374 23.638C144.374 22.1873 144.94 21.0427 146.074 20.204C147.207 19.3653 148.59 18.946 150.222 18.946ZM169.191 34.688C171.05 34.688 172.546 33.7813 173.679 31.968L174.291 32.172C173.838 33.6453 173.022 34.9033 171.843 35.946C170.687 36.966 169.236 37.476 167.491 37.476C165.088 37.476 163.173 36.7167 161.745 35.198C160.34 33.6567 159.637 31.39 159.637 28.398C159.637 25.338 160.396 23.0033 161.915 21.394C163.434 19.762 165.451 18.946 167.967 18.946C172.228 18.946 174.359 21.462 174.359 26.494H164.805C164.782 26.834 164.771 27.3667 164.771 28.092C164.771 29.588 164.975 30.8347 165.383 31.832C165.814 32.8293 166.358 33.5547 167.015 34.008C167.695 34.4613 168.42 34.688 169.191 34.688ZM167.763 19.66C166.947 19.66 166.267 20.17 165.723 21.19C165.202 22.1873 164.873 23.74 164.737 25.848H170.075C170.12 24.0573 169.939 22.584 169.531 21.428C169.146 20.2493 168.556 19.66 167.763 19.66ZM180.816 37.238C179.365 37.238 178.277 36.864 177.552 36.116C176.849 35.368 176.498 34.382 176.498 33.158C176.498 32.138 176.758 31.2993 177.28 30.642C177.824 29.962 178.47 29.4407 179.218 29.078C179.988 28.7153 180.963 28.33 182.142 27.922C183.388 27.4913 184.295 27.106 184.862 26.766C185.451 26.4033 185.746 25.916 185.746 25.304V22.652C185.746 21.7 185.519 20.9633 185.066 20.442C184.635 19.898 183.955 19.626 183.026 19.626C181.938 19.626 181.11 19.898 180.544 20.442C181.178 20.6687 181.666 21.0087 182.006 21.462C182.368 21.9153 182.55 22.448 182.55 23.06C182.55 23.8307 182.289 24.4427 181.768 24.896C181.246 25.3493 180.612 25.576 179.864 25.576C179.07 25.576 178.458 25.3267 178.028 24.828C177.597 24.3293 177.382 23.706 177.382 22.958C177.382 22.3233 177.529 21.7907 177.824 21.36C178.141 20.9067 178.617 20.4873 179.252 20.102C179.864 19.7393 180.612 19.456 181.496 19.252C182.402 19.048 183.388 18.946 184.454 18.946C185.564 18.946 186.528 19.0593 187.344 19.286C188.16 19.5127 188.84 19.898 189.384 20.442C189.882 20.9407 190.211 21.5527 190.37 22.278C190.551 23.0033 190.642 23.9893 190.642 25.236V34.484C190.642 35.028 190.687 35.4133 190.778 35.64C190.891 35.8667 191.095 35.98 191.39 35.98C191.73 35.98 192.138 35.7873 192.614 35.402L192.954 35.98C191.934 36.8187 190.687 37.238 189.214 37.238C187.967 37.238 187.094 36.9887 186.596 36.49C186.097 35.9913 185.836 35.3227 185.814 34.484C184.68 36.32 183.014 37.238 180.816 37.238ZM183.434 35.062C184.318 35.062 185.088 34.5973 185.746 33.668V26.698C185.474 27.1513 184.896 27.65 184.012 28.194C183.128 28.7607 182.459 29.3273 182.006 29.894C181.552 30.4607 181.326 31.2767 181.326 32.342C181.326 33.2713 181.518 33.9627 181.904 34.416C182.289 34.8467 182.799 35.062 183.434 35.062ZM205.621 18.946C206.641 18.946 207.412 19.252 207.933 19.864C208.455 20.476 208.715 21.2127 208.715 22.074C208.715 22.9127 208.466 23.604 207.967 24.148C207.491 24.6693 206.857 24.93 206.063 24.93C205.293 24.93 204.681 24.7373 204.227 24.352C203.774 23.944 203.547 23.4113 203.547 22.754C203.547 21.666 204.046 20.782 205.043 20.102C204.953 20.0793 204.817 20.068 204.635 20.068C204.409 20.068 204.227 20.0907 204.091 20.136C203.23 20.272 202.493 20.7933 201.881 21.7C201.292 22.6067 200.997 23.536 200.997 24.488V33.498C200.997 34.5407 201.247 35.266 201.745 35.674C202.267 36.082 203.083 36.286 204.193 36.286V37C203.876 37 203.615 36.9887 203.411 36.966C201.099 36.898 199.558 36.864 198.787 36.864C198.175 36.864 196.781 36.898 194.605 36.966C194.424 36.9887 194.197 37 193.925 37V36.286C194.741 36.286 195.308 36.116 195.625 35.776C195.943 35.4133 196.101 34.7673 196.101 33.838V23.128C196.101 22.0853 195.943 21.326 195.625 20.85C195.308 20.374 194.741 20.136 193.925 20.136V19.422C194.651 19.49 195.353 19.524 196.033 19.524C198.051 19.524 199.705 19.3653 200.997 19.048V22.21C201.428 21.2353 202.051 20.4533 202.867 19.864C203.683 19.252 204.601 18.946 205.621 18.946ZM218.172 18.946C219.01 18.946 219.804 19.0367 220.552 19.218C221.3 19.3993 221.923 19.6487 222.422 19.966C223.011 20.3287 223.464 20.7933 223.782 21.36C224.122 21.904 224.292 22.5047 224.292 23.162C224.292 23.9553 224.042 24.6127 223.544 25.134C223.045 25.6327 222.399 25.882 221.606 25.882C220.812 25.882 220.178 25.6553 219.702 25.202C219.226 24.7487 218.988 24.1367 218.988 23.366C218.988 22.686 219.203 22.0967 219.634 21.598C220.064 21.0993 220.597 20.7593 221.232 20.578C221.05 20.3287 220.767 20.136 220.382 20C220.019 19.8413 219.622 19.762 219.192 19.762C217.832 19.762 216.766 20.51 215.996 22.006C215.248 23.4793 214.874 25.4173 214.874 27.82C214.874 30.2453 215.304 31.9907 216.166 33.056C217.027 34.1213 218.104 34.654 219.396 34.654C220.166 34.654 220.937 34.45 221.708 34.042C222.501 33.634 223.215 32.92 223.85 31.9L224.428 32.104C223.974 33.5773 223.181 34.8467 222.048 35.912C220.914 36.9547 219.452 37.476 217.662 37.476C215.327 37.476 213.423 36.7053 211.95 35.164C210.476 33.6227 209.74 31.3333 209.74 28.296C209.74 26.3013 210.102 24.6013 210.828 23.196C211.553 21.7907 212.55 20.7367 213.82 20.034C215.089 19.3087 216.54 18.946 218.172 18.946ZM233.101 22.108C234.121 20 235.968 18.946 238.643 18.946C240.411 18.946 241.657 19.388 242.383 20.272C242.768 20.7027 243.04 21.2693 243.199 21.972C243.38 22.652 243.471 23.5587 243.471 24.692V33.838C243.471 34.7673 243.629 35.4133 243.947 35.776C244.264 36.116 244.831 36.286 245.647 36.286V37C243.289 36.9093 241.793 36.864 241.159 36.864C240.388 36.864 238.915 36.9093 236.739 37V36.286C237.419 36.286 237.895 36.116 238.167 35.776C238.439 35.4133 238.575 34.7673 238.575 33.838V23.264C238.575 22.3347 238.416 21.632 238.099 21.156C237.804 20.68 237.26 20.442 236.467 20.442C235.515 20.442 234.71 20.816 234.053 21.564C233.418 22.2893 233.101 23.2187 233.101 24.352V33.838C233.101 34.7673 233.237 35.4133 233.509 35.776C233.781 36.116 234.257 36.286 234.937 36.286V37C232.761 36.9093 231.355 36.864 230.721 36.864C229.95 36.864 228.386 36.9093 226.029 37V36.286C226.822 36.286 227.377 36.116 227.695 35.776C228.035 35.4133 228.205 34.7673 228.205 33.838V14.492C228.205 13.4493 228.035 12.69 227.695 12.214C227.377 11.738 226.822 11.5 226.029 11.5V10.786C226.754 10.854 227.457 10.888 228.137 10.888C230.109 10.888 231.763 10.7293 233.101 10.412V22.108Z" fill="#275B81"/>
<path d="M107.888 72.768C108.363 72.768 108.787 72.688 109.16 72.528C109.533 72.368 109.848 72.144 110.104 71.856C110.365 71.568 110.563 71.224 110.696 70.824C110.835 70.424 110.904 69.984 110.904 69.504V62.536H112.448V69.504C112.448 70.1653 112.341 70.7787 112.128 71.344C111.92 71.9093 111.619 72.4 111.224 72.816C110.835 73.2267 110.357 73.5493 109.792 73.784C109.227 74.0187 108.592 74.136 107.888 74.136C107.184 74.136 106.549 74.0187 105.984 73.784C105.419 73.5493 104.939 73.2267 104.544 72.816C104.149 72.4 103.845 71.9093 103.632 71.344C103.424 70.7787 103.32 70.1653 103.32 69.504V62.536H104.864V69.496C104.864 69.976 104.931 70.416 105.064 70.816C105.203 71.216 105.4 71.56 105.656 71.848C105.917 72.136 106.235 72.3627 106.608 72.528C106.987 72.688 107.413 72.768 107.888 72.768ZM119.223 67.232C119.159 67.3493 119.06 67.408 118.927 67.408C118.847 67.408 118.756 67.3787 118.655 67.32C118.554 67.2613 118.428 67.1973 118.279 67.128C118.135 67.0533 117.962 66.9867 117.759 66.928C117.556 66.864 117.316 66.832 117.039 66.832C116.799 66.832 116.583 66.864 116.391 66.928C116.199 66.9867 116.034 67.0693 115.895 67.176C115.762 67.2827 115.658 67.408 115.583 67.552C115.514 67.6907 115.479 67.8427 115.479 68.008C115.479 68.216 115.538 68.3893 115.655 68.528C115.778 68.6667 115.938 68.7867 116.135 68.888C116.332 68.9893 116.556 69.08 116.807 69.16C117.058 69.2347 117.314 69.3173 117.575 69.408C117.842 69.4933 118.1 69.5893 118.351 69.696C118.602 69.8027 118.826 69.936 119.023 70.096C119.22 70.256 119.378 70.4533 119.495 70.688C119.618 70.9173 119.679 71.1947 119.679 71.52C119.679 71.8933 119.612 72.24 119.479 72.56C119.346 72.8747 119.148 73.1493 118.887 73.384C118.626 73.6133 118.306 73.7947 117.927 73.928C117.548 74.0613 117.111 74.128 116.615 74.128C116.05 74.128 115.538 74.0373 115.079 73.856C114.62 73.6693 114.231 73.432 113.911 73.144L114.247 72.6C114.29 72.5307 114.34 72.4773 114.399 72.44C114.458 72.4027 114.532 72.384 114.623 72.384C114.719 72.384 114.82 72.4213 114.927 72.496C115.034 72.5707 115.162 72.6533 115.311 72.744C115.466 72.8347 115.652 72.9173 115.871 72.992C116.09 73.0667 116.362 73.104 116.687 73.104C116.964 73.104 117.207 73.0693 117.415 73C117.623 72.9253 117.796 72.8267 117.935 72.704C118.074 72.5813 118.175 72.44 118.239 72.28C118.308 72.12 118.343 71.9493 118.343 71.768C118.343 71.544 118.282 71.36 118.159 71.216C118.042 71.0667 117.884 70.9413 117.687 70.84C117.49 70.7333 117.263 70.6427 117.007 70.568C116.756 70.488 116.498 70.4053 116.231 70.32C115.97 70.2347 115.711 70.1387 115.455 70.032C115.204 69.92 114.98 69.7813 114.783 69.616C114.586 69.4507 114.426 69.248 114.303 69.008C114.186 68.7627 114.127 68.4667 114.127 68.12C114.127 67.8107 114.191 67.5147 114.319 67.232C114.447 66.944 114.634 66.6933 114.879 66.48C115.124 66.2613 115.426 66.088 115.783 65.96C116.14 65.832 116.548 65.768 117.007 65.768C117.54 65.768 118.018 65.8533 118.439 66.024C118.866 66.1893 119.234 66.4187 119.543 66.712L119.223 67.232ZM126.849 69.064C126.849 68.7333 126.801 68.432 126.705 68.16C126.614 67.8827 126.478 67.6453 126.297 67.448C126.121 67.2453 125.905 67.0907 125.649 66.984C125.393 66.872 125.102 66.816 124.777 66.816C124.094 66.816 123.553 67.016 123.153 67.416C122.758 67.8107 122.513 68.36 122.417 69.064H126.849ZM128.001 72.864C127.825 73.0773 127.614 73.264 127.369 73.424C127.124 73.5787 126.86 73.7067 126.577 73.808C126.3 73.9093 126.012 73.984 125.713 74.032C125.414 74.0853 125.118 74.112 124.825 74.112C124.265 74.112 123.748 74.0187 123.273 73.832C122.804 73.64 122.396 73.3627 122.049 73C121.708 72.632 121.441 72.1787 121.249 71.64C121.057 71.1013 120.961 70.4827 120.961 69.784C120.961 69.2187 121.046 68.6907 121.217 68.2C121.393 67.7093 121.644 67.2853 121.969 66.928C122.294 66.5653 122.692 66.2827 123.161 66.08C123.63 65.872 124.158 65.768 124.745 65.768C125.23 65.768 125.678 65.8507 126.089 66.016C126.505 66.176 126.862 66.4107 127.161 66.72C127.465 67.024 127.702 67.4027 127.873 67.856C128.044 68.304 128.129 68.816 128.129 69.392C128.129 69.616 128.105 69.7653 128.057 69.84C128.009 69.9147 127.918 69.952 127.785 69.952H122.369C122.385 70.464 122.454 70.9093 122.577 71.288C122.705 71.6667 122.881 71.984 123.105 72.24C123.329 72.4907 123.596 72.68 123.905 72.808C124.214 72.9307 124.561 72.992 124.945 72.992C125.302 72.992 125.609 72.952 125.865 72.872C126.126 72.7867 126.35 72.696 126.537 72.6C126.724 72.504 126.878 72.416 127.001 72.336C127.129 72.2507 127.238 72.208 127.329 72.208C127.446 72.208 127.537 72.2533 127.601 72.344L128.001 72.864ZM131.23 67.52C131.486 66.9653 131.801 66.5333 132.174 66.224C132.547 65.9093 133.003 65.752 133.542 65.752C133.713 65.752 133.875 65.7707 134.03 65.808C134.19 65.8453 134.331 65.904 134.454 65.984L134.35 67.048C134.318 67.1813 134.238 67.248 134.11 67.248C134.035 67.248 133.926 67.232 133.782 67.2C133.638 67.168 133.475 67.152 133.294 67.152C133.038 67.152 132.809 67.1893 132.606 67.264C132.409 67.3387 132.23 67.4507 132.07 67.6C131.915 67.744 131.774 67.9253 131.646 68.144C131.523 68.3573 131.411 68.6027 131.31 68.88V74H129.878V65.896H130.694C130.849 65.896 130.955 65.9253 131.014 65.984C131.073 66.0427 131.113 66.144 131.134 66.288L131.23 67.52ZM140.96 65.896V74H139.536V65.896H140.96ZM141.264 63.352C141.264 63.4907 141.235 63.6213 141.176 63.744C141.123 63.8613 141.048 63.968 140.952 64.064C140.861 64.1547 140.752 64.2267 140.624 64.28C140.501 64.3333 140.371 64.36 140.232 64.36C140.093 64.36 139.963 64.3333 139.84 64.28C139.723 64.2267 139.619 64.1547 139.528 64.064C139.437 63.968 139.365 63.8613 139.312 63.744C139.259 63.6213 139.232 63.4907 139.232 63.352C139.232 63.2133 139.259 63.0827 139.312 62.96C139.365 62.832 139.437 62.7227 139.528 62.632C139.619 62.536 139.723 62.4613 139.84 62.408C139.963 62.3547 140.093 62.328 140.232 62.328C140.371 62.328 140.501 62.3547 140.624 62.408C140.752 62.4613 140.861 62.536 140.952 62.632C141.048 62.7227 141.123 62.832 141.176 62.96C141.235 63.0827 141.264 63.2133 141.264 63.352ZM144.644 67.072C144.82 66.8747 145.007 66.696 145.204 66.536C145.401 66.376 145.609 66.24 145.828 66.128C146.052 66.0107 146.287 65.9227 146.532 65.864C146.783 65.8 147.052 65.768 147.34 65.768C147.783 65.768 148.172 65.8427 148.508 65.992C148.849 66.136 149.132 66.344 149.356 66.616C149.585 66.8827 149.759 67.2053 149.876 67.584C149.993 67.9627 150.052 68.3813 150.052 68.84V74H148.62V68.84C148.62 68.2267 148.479 67.752 148.196 67.416C147.919 67.0747 147.495 66.904 146.924 66.904C146.503 66.904 146.108 67.0053 145.74 67.208C145.377 67.4107 145.041 67.6853 144.732 68.032V74H143.3V65.896H144.156C144.359 65.896 144.484 65.9947 144.532 66.192L144.644 67.072ZM154.6 74.128C153.96 74.128 153.467 73.9493 153.12 73.592C152.779 73.2347 152.608 72.72 152.608 72.048V67.088H151.632C151.547 67.088 151.475 67.064 151.416 67.016C151.358 66.9627 151.328 66.8827 151.328 66.776V66.208L152.656 66.04L152.984 63.536C153 63.456 153.035 63.392 153.088 63.344C153.147 63.2907 153.222 63.264 153.312 63.264H154.032V66.056H156.376V67.088H154.032V71.952C154.032 72.2933 154.115 72.5467 154.28 72.712C154.446 72.8773 154.659 72.96 154.92 72.96C155.07 72.96 155.198 72.9413 155.304 72.904C155.416 72.8613 155.512 72.816 155.592 72.768C155.672 72.72 155.739 72.6773 155.792 72.64C155.851 72.5973 155.902 72.576 155.944 72.576C156.019 72.576 156.086 72.6213 156.144 72.712L156.56 73.392C156.315 73.6213 156.019 73.8027 155.672 73.936C155.326 74.064 154.968 74.128 154.6 74.128ZM163.224 69.064C163.224 68.7333 163.176 68.432 163.08 68.16C162.989 67.8827 162.853 67.6453 162.672 67.448C162.496 67.2453 162.28 67.0907 162.024 66.984C161.768 66.872 161.477 66.816 161.152 66.816C160.469 66.816 159.928 67.016 159.528 67.416C159.133 67.8107 158.888 68.36 158.792 69.064H163.224ZM164.376 72.864C164.2 73.0773 163.989 73.264 163.744 73.424C163.499 73.5787 163.235 73.7067 162.952 73.808C162.675 73.9093 162.387 73.984 162.088 74.032C161.789 74.0853 161.493 74.112 161.2 74.112C160.64 74.112 160.123 74.0187 159.648 73.832C159.179 73.64 158.771 73.3627 158.424 73C158.083 72.632 157.816 72.1787 157.624 71.64C157.432 71.1013 157.336 70.4827 157.336 69.784C157.336 69.2187 157.421 68.6907 157.592 68.2C157.768 67.7093 158.019 67.2853 158.344 66.928C158.669 66.5653 159.067 66.2827 159.536 66.08C160.005 65.872 160.533 65.768 161.12 65.768C161.605 65.768 162.053 65.8507 162.464 66.016C162.88 66.176 163.237 66.4107 163.536 66.72C163.84 67.024 164.077 67.4027 164.248 67.856C164.419 68.304 164.504 68.816 164.504 69.392C164.504 69.616 164.48 69.7653 164.432 69.84C164.384 69.9147 164.293 69.952 164.16 69.952H158.744C158.76 70.464 158.829 70.9093 158.952 71.288C159.08 71.6667 159.256 71.984 159.48 72.24C159.704 72.4907 159.971 72.68 160.28 72.808C160.589 72.9307 160.936 72.992 161.32 72.992C161.677 72.992 161.984 72.952 162.24 72.872C162.501 72.7867 162.725 72.696 162.912 72.6C163.099 72.504 163.253 72.416 163.376 72.336C163.504 72.2507 163.613 72.208 163.704 72.208C163.821 72.208 163.912 72.2533 163.976 72.344L164.376 72.864ZM167.605 67.52C167.861 66.9653 168.176 66.5333 168.549 66.224C168.922 65.9093 169.378 65.752 169.917 65.752C170.088 65.752 170.25 65.7707 170.405 65.808C170.565 65.8453 170.706 65.904 170.829 65.984L170.725 67.048C170.693 67.1813 170.613 67.248 170.485 67.248C170.41 67.248 170.301 67.232 170.157 67.2C170.013 67.168 169.85 67.152 169.669 67.152C169.413 67.152 169.184 67.1893 168.981 67.264C168.784 67.3387 168.605 67.4507 168.445 67.6C168.29 67.744 168.149 67.9253 168.021 68.144C167.898 68.3573 167.786 68.6027 167.685 68.88V74H166.253V65.896H167.069C167.224 65.896 167.33 65.9253 167.389 65.984C167.448 66.0427 167.488 66.144 167.509 66.288L167.605 67.52ZM179.025 65.896L175.721 74H174.441L171.137 65.896H172.297C172.414 65.896 172.51 65.9253 172.585 65.984C172.66 66.0427 172.71 66.112 172.737 66.192L174.793 71.408C174.857 71.6053 174.913 71.7973 174.961 71.984C175.009 72.1707 175.054 72.3573 175.097 72.544C175.14 72.3573 175.185 72.1707 175.233 71.984C175.281 71.7973 175.34 71.6053 175.409 71.408L177.489 66.192C177.521 66.1067 177.574 66.0373 177.649 65.984C177.724 65.9253 177.812 65.896 177.913 65.896H179.025ZM181.835 65.896V74H180.411V65.896H181.835ZM182.139 63.352C182.139 63.4907 182.11 63.6213 182.051 63.744C181.998 63.8613 181.923 63.968 181.827 64.064C181.736 64.1547 181.627 64.2267 181.499 64.28C181.376 64.3333 181.246 64.36 181.107 64.36C180.968 64.36 180.838 64.3333 180.715 64.28C180.598 64.2267 180.494 64.1547 180.403 64.064C180.312 63.968 180.24 63.8613 180.187 63.744C180.134 63.6213 180.107 63.4907 180.107 63.352C180.107 63.2133 180.134 63.0827 180.187 62.96C180.24 62.832 180.312 62.7227 180.403 62.632C180.494 62.536 180.598 62.4613 180.715 62.408C180.838 62.3547 180.968 62.328 181.107 62.328C181.246 62.328 181.376 62.3547 181.499 62.408C181.627 62.4613 181.736 62.536 181.827 62.632C181.923 62.7227 181.998 62.832 182.051 62.96C182.11 63.0827 182.139 63.2133 182.139 63.352ZM189.599 69.064C189.599 68.7333 189.551 68.432 189.455 68.16C189.364 67.8827 189.228 67.6453 189.047 67.448C188.871 67.2453 188.655 67.0907 188.399 66.984C188.143 66.872 187.852 66.816 187.527 66.816C186.844 66.816 186.303 67.016 185.903 67.416C185.508 67.8107 185.263 68.36 185.167 69.064H189.599ZM190.751 72.864C190.575 73.0773 190.364 73.264 190.119 73.424C189.874 73.5787 189.61 73.7067 189.327 73.808C189.05 73.9093 188.762 73.984 188.463 74.032C188.164 74.0853 187.868 74.112 187.575 74.112C187.015 74.112 186.498 74.0187 186.023 73.832C185.554 73.64 185.146 73.3627 184.799 73C184.458 72.632 184.191 72.1787 183.999 71.64C183.807 71.1013 183.711 70.4827 183.711 69.784C183.711 69.2187 183.796 68.6907 183.967 68.2C184.143 67.7093 184.394 67.2853 184.719 66.928C185.044 66.5653 185.442 66.2827 185.911 66.08C186.38 65.872 186.908 65.768 187.495 65.768C187.98 65.768 188.428 65.8507 188.839 66.016C189.255 66.176 189.612 66.4107 189.911 66.72C190.215 67.024 190.452 67.4027 190.623 67.856C190.794 68.304 190.879 68.816 190.879 69.392C190.879 69.616 190.855 69.7653 190.807 69.84C190.759 69.9147 190.668 69.952 190.535 69.952H185.119C185.135 70.464 185.204 70.9093 185.327 71.288C185.455 71.6667 185.631 71.984 185.855 72.24C186.079 72.4907 186.346 72.68 186.655 72.808C186.964 72.9307 187.311 72.992 187.695 72.992C188.052 72.992 188.359 72.952 188.615 72.872C188.876 72.7867 189.1 72.696 189.287 72.6C189.474 72.504 189.628 72.416 189.751 72.336C189.879 72.2507 189.988 72.208 190.079 72.208C190.196 72.208 190.287 72.2533 190.351 72.344L190.751 72.864ZM203.726 65.896L201.102 74H199.974C199.835 74 199.739 73.9093 199.686 73.728L197.894 68.232C197.851 68.1093 197.817 67.9867 197.79 67.864C197.763 67.736 197.737 67.6107 197.71 67.488C197.683 67.6107 197.657 67.736 197.63 67.864C197.603 67.9867 197.569 68.112 197.526 68.24L195.702 73.728C195.654 73.9093 195.547 74 195.382 74H194.31L191.686 65.896H192.806C192.918 65.896 193.011 65.9253 193.086 65.984C193.166 66.0427 193.219 66.112 193.246 66.192L194.798 71.408C194.889 71.792 194.961 72.1547 195.014 72.496C195.062 72.32 195.11 72.1413 195.158 71.96C195.211 71.7787 195.267 71.5947 195.326 71.408L197.038 66.16C197.065 66.08 197.11 66.0133 197.174 65.96C197.243 65.9067 197.326 65.88 197.422 65.88H198.046C198.153 65.88 198.241 65.9067 198.31 65.96C198.379 66.0133 198.427 66.08 198.454 66.16L200.126 71.408C200.185 71.5947 200.238 71.7787 200.286 71.96C200.334 72.1413 200.379 72.32 200.422 72.496C200.449 72.32 200.481 72.144 200.518 71.968C200.561 71.7867 200.606 71.6 200.654 71.408L202.238 66.192C202.265 66.1067 202.315 66.0373 202.39 65.984C202.465 65.9253 202.553 65.896 202.654 65.896H203.726ZM209.77 67.232C209.706 67.3493 209.607 67.408 209.474 67.408C209.394 67.408 209.303 67.3787 209.202 67.32C209.101 67.2613 208.975 67.1973 208.826 67.128C208.682 67.0533 208.509 66.9867 208.306 66.928C208.103 66.864 207.863 66.832 207.586 66.832C207.346 66.832 207.13 66.864 206.938 66.928C206.746 66.9867 206.581 67.0693 206.442 67.176C206.309 67.2827 206.205 67.408 206.13 67.552C206.061 67.6907 206.026 67.8427 206.026 68.008C206.026 68.216 206.085 68.3893 206.202 68.528C206.325 68.6667 206.485 68.7867 206.682 68.888C206.879 68.9893 207.103 69.08 207.354 69.16C207.605 69.2347 207.861 69.3173 208.122 69.408C208.389 69.4933 208.647 69.5893 208.898 69.696C209.149 69.8027 209.373 69.936 209.57 70.096C209.767 70.256 209.925 70.4533 210.042 70.688C210.165 70.9173 210.226 71.1947 210.226 71.52C210.226 71.8933 210.159 72.24 210.026 72.56C209.893 72.8747 209.695 73.1493 209.434 73.384C209.173 73.6133 208.853 73.7947 208.474 73.928C208.095 74.0613 207.658 74.128 207.162 74.128C206.597 74.128 206.085 74.0373 205.626 73.856C205.167 73.6693 204.778 73.432 204.458 73.144L204.794 72.6C204.837 72.5307 204.887 72.4773 204.946 72.44C205.005 72.4027 205.079 72.384 205.17 72.384C205.266 72.384 205.367 72.4213 205.474 72.496C205.581 72.5707 205.709 72.6533 205.858 72.744C206.013 72.8347 206.199 72.9173 206.418 72.992C206.637 73.0667 206.909 73.104 207.234 73.104C207.511 73.104 207.754 73.0693 207.962 73C208.17 72.9253 208.343 72.8267 208.482 72.704C208.621 72.5813 208.722 72.44 208.786 72.28C208.855 72.12 208.89 71.9493 208.89 71.768C208.89 71.544 208.829 71.36 208.706 71.216C208.589 71.0667 208.431 70.9413 208.234 70.84C208.037 70.7333 207.81 70.6427 207.554 70.568C207.303 70.488 207.045 70.4053 206.778 70.32C206.517 70.2347 206.258 70.1387 206.002 70.032C205.751 69.92 205.527 69.7813 205.33 69.616C205.133 69.4507 204.973 69.248 204.85 69.008C204.733 68.7627 204.674 68.4667 204.674 68.12C204.674 67.8107 204.738 67.5147 204.866 67.232C204.994 66.944 205.181 66.6933 205.426 66.48C205.671 66.2613 205.973 66.088 206.33 65.96C206.687 65.832 207.095 65.768 207.554 65.768C208.087 65.768 208.565 65.8533 208.986 66.024C209.413 66.1893 209.781 66.4187 210.09 66.712L209.77 67.232ZM111.512 96.632C111.597 96.632 111.672 96.6667 111.736 96.736L112.352 97.4C111.883 97.944 111.312 98.368 110.64 98.672C109.973 98.976 109.165 99.128 108.216 99.128C107.395 99.128 106.648 98.9867 105.976 98.704C105.304 98.416 104.731 98.016 104.256 97.504C103.781 96.9867 103.413 96.368 103.152 95.648C102.891 94.928 102.76 94.136 102.76 93.272C102.76 92.408 102.896 91.616 103.168 90.896C103.44 90.176 103.821 89.5573 104.312 89.04C104.808 88.5227 105.4 88.1227 106.088 87.84C106.776 87.552 107.536 87.408 108.368 87.408C109.184 87.408 109.904 87.5387 110.528 87.8C111.152 88.0613 111.701 88.416 112.176 88.864L111.664 89.576C111.632 89.6293 111.589 89.6747 111.536 89.712C111.488 89.744 111.421 89.76 111.336 89.76C111.24 89.76 111.123 89.7093 110.984 89.608C110.845 89.5013 110.664 89.384 110.44 89.256C110.216 89.128 109.936 89.0133 109.6 88.912C109.264 88.8053 108.851 88.752 108.36 88.752C107.768 88.752 107.227 88.856 106.736 89.064C106.245 89.2667 105.821 89.5627 105.464 89.952C105.112 90.3413 104.837 90.816 104.64 91.376C104.443 91.936 104.344 92.568 104.344 93.272C104.344 93.9867 104.445 94.624 104.648 95.184C104.856 95.744 105.136 96.2187 105.488 96.608C105.845 96.992 106.264 97.2853 106.744 97.488C107.229 97.6907 107.752 97.792 108.312 97.792C108.653 97.792 108.96 97.7733 109.232 97.736C109.509 97.6933 109.763 97.6293 109.992 97.544C110.227 97.4587 110.443 97.352 110.64 97.224C110.843 97.0907 111.043 96.9333 111.24 96.752C111.331 96.672 111.421 96.632 111.512 96.632ZM120.355 90.896V99H119.507C119.304 99 119.176 98.9013 119.123 98.704L119.011 97.832C118.659 98.2213 118.264 98.536 117.827 98.776C117.389 99.0107 116.888 99.128 116.323 99.128C115.88 99.128 115.488 99.056 115.147 98.912C114.811 98.7627 114.528 98.5547 114.299 98.288C114.069 98.0213 113.896 97.6987 113.779 97.32C113.667 96.9413 113.611 96.5227 113.611 96.064V90.896H115.035V96.064C115.035 96.6773 115.173 97.152 115.451 97.488C115.733 97.824 116.163 97.992 116.739 97.992C117.16 97.992 117.552 97.8933 117.915 97.696C118.283 97.4933 118.621 97.216 118.931 96.864V90.896H120.355ZM127.332 92.232C127.268 92.3493 127.17 92.408 127.036 92.408C126.956 92.408 126.866 92.3787 126.764 92.32C126.663 92.2613 126.538 92.1973 126.388 92.128C126.244 92.0533 126.071 91.9867 125.868 91.928C125.666 91.864 125.426 91.832 125.148 91.832C124.908 91.832 124.692 91.864 124.5 91.928C124.308 91.9867 124.143 92.0693 124.004 92.176C123.871 92.2827 123.767 92.408 123.692 92.552C123.623 92.6907 123.588 92.8427 123.588 93.008C123.588 93.216 123.647 93.3893 123.764 93.528C123.887 93.6667 124.047 93.7867 124.244 93.888C124.442 93.9893 124.666 94.08 124.916 94.16C125.167 94.2347 125.423 94.3173 125.684 94.408C125.951 94.4933 126.21 94.5893 126.46 94.696C126.711 94.8027 126.935 94.936 127.132 95.096C127.33 95.256 127.487 95.4533 127.604 95.688C127.727 95.9173 127.788 96.1947 127.788 96.52C127.788 96.8933 127.722 97.24 127.588 97.56C127.455 97.8747 127.258 98.1493 126.996 98.384C126.735 98.6133 126.415 98.7947 126.036 98.928C125.658 99.0613 125.22 99.128 124.724 99.128C124.159 99.128 123.647 99.0373 123.188 98.856C122.73 98.6693 122.34 98.432 122.02 98.144L122.356 97.6C122.399 97.5307 122.45 97.4773 122.508 97.44C122.567 97.4027 122.642 97.384 122.732 97.384C122.828 97.384 122.93 97.4213 123.036 97.496C123.143 97.5707 123.271 97.6533 123.42 97.744C123.575 97.8347 123.762 97.9173 123.98 97.992C124.199 98.0667 124.471 98.104 124.796 98.104C125.074 98.104 125.316 98.0693 125.524 98C125.732 97.9253 125.906 97.8267 126.044 97.704C126.183 97.5813 126.284 97.44 126.348 97.28C126.418 97.12 126.452 96.9493 126.452 96.768C126.452 96.544 126.391 96.36 126.268 96.216C126.151 96.0667 125.994 95.9413 125.796 95.84C125.599 95.7333 125.372 95.6427 125.116 95.568C124.866 95.488 124.607 95.4053 124.34 95.32C124.079 95.2347 123.82 95.1387 123.564 95.032C123.314 94.92 123.09 94.7813 122.892 94.616C122.695 94.4507 122.535 94.248 122.412 94.008C122.295 93.7627 122.236 93.4667 122.236 93.12C122.236 92.8107 122.3 92.5147 122.428 92.232C122.556 91.944 122.743 91.6933 122.988 91.48C123.234 91.2613 123.535 91.088 123.892 90.96C124.25 90.832 124.658 90.768 125.116 90.768C125.65 90.768 126.127 90.8533 126.548 91.024C126.975 91.1893 127.343 91.4187 127.652 91.712L127.332 92.232ZM132.022 99.128C131.382 99.128 130.889 98.9493 130.542 98.592C130.201 98.2347 130.03 97.72 130.03 97.048V92.088H129.054C128.969 92.088 128.897 92.064 128.838 92.016C128.78 91.9627 128.75 91.8827 128.75 91.776V91.208L130.078 91.04L130.406 88.536C130.422 88.456 130.457 88.392 130.51 88.344C130.569 88.2907 130.644 88.264 130.734 88.264H131.454V91.056H133.798V92.088H131.454V96.952C131.454 97.2933 131.537 97.5467 131.702 97.712C131.868 97.8773 132.081 97.96 132.342 97.96C132.492 97.96 132.62 97.9413 132.726 97.904C132.838 97.8613 132.934 97.816 133.014 97.768C133.094 97.72 133.161 97.6773 133.214 97.64C133.273 97.5973 133.324 97.576 133.366 97.576C133.441 97.576 133.508 97.6213 133.566 97.712L133.982 98.392C133.737 98.6213 133.441 98.8027 133.094 98.936C132.748 99.064 132.39 99.128 132.022 99.128ZM138.638 90.768C139.23 90.768 139.763 90.8667 140.238 91.064C140.712 91.2613 141.118 91.5413 141.454 91.904C141.79 92.2667 142.046 92.7067 142.222 93.224C142.403 93.736 142.494 94.3093 142.494 94.944C142.494 95.584 142.403 96.16 142.222 96.672C142.046 97.184 141.79 97.6213 141.454 97.984C141.118 98.3467 140.712 98.6267 140.238 98.824C139.763 99.016 139.23 99.112 138.638 99.112C138.04 99.112 137.502 99.016 137.022 98.824C136.547 98.6267 136.142 98.3467 135.806 97.984C135.47 97.6213 135.211 97.184 135.03 96.672C134.854 96.16 134.766 95.584 134.766 94.944C134.766 94.3093 134.854 93.736 135.03 93.224C135.211 92.7067 135.47 92.2667 135.806 91.904C136.142 91.5413 136.547 91.2613 137.022 91.064C137.502 90.8667 138.04 90.768 138.638 90.768ZM138.638 98C139.438 98 140.035 97.7333 140.43 97.2C140.824 96.6613 141.022 95.912 141.022 94.952C141.022 93.9867 140.824 93.2347 140.43 92.696C140.035 92.1573 139.438 91.888 138.638 91.888C138.232 91.888 137.878 91.9573 137.574 92.096C137.275 92.2347 137.024 92.4347 136.822 92.696C136.624 92.9573 136.475 93.28 136.374 93.664C136.278 94.0427 136.23 94.472 136.23 94.952C136.23 95.912 136.427 96.6613 136.822 97.2C137.222 97.7333 137.827 98 138.638 98ZM144.3 99V90.896H145.156C145.359 90.896 145.484 90.9947 145.532 91.192L145.636 92.024C145.935 91.656 146.271 91.3547 146.644 91.12C147.017 90.8853 147.449 90.768 147.94 90.768C148.484 90.768 148.924 90.92 149.26 91.224C149.601 91.528 149.847 91.9387 149.996 92.456C150.113 92.1627 150.263 91.9093 150.444 91.696C150.631 91.4827 150.839 91.3067 151.068 91.168C151.297 91.0293 151.54 90.928 151.796 90.864C152.057 90.8 152.321 90.768 152.588 90.768C153.015 90.768 153.393 90.8373 153.724 90.976C154.06 91.1093 154.343 91.3067 154.572 91.568C154.807 91.8293 154.985 92.152 155.108 92.536C155.231 92.9147 155.292 93.3493 155.292 93.84V99H153.86V93.84C153.86 93.2053 153.721 92.7253 153.444 92.4C153.167 92.0693 152.767 91.904 152.244 91.904C152.009 91.904 151.785 91.9467 151.572 92.032C151.364 92.112 151.18 92.232 151.02 92.392C150.86 92.552 150.732 92.7547 150.636 93C150.545 93.24 150.5 93.52 150.5 93.84V99H149.068V93.84C149.068 93.1893 148.937 92.704 148.676 92.384C148.415 92.064 148.033 91.904 147.532 91.904C147.18 91.904 146.855 92 146.556 92.192C146.257 92.3787 145.983 92.6347 145.732 92.96V99H144.3ZM162.88 94.064C162.88 93.7333 162.832 93.432 162.736 93.16C162.645 92.8827 162.509 92.6453 162.328 92.448C162.152 92.2453 161.936 92.0907 161.68 91.984C161.424 91.872 161.133 91.816 160.808 91.816C160.125 91.816 159.584 92.016 159.184 92.416C158.789 92.8107 158.544 93.36 158.448 94.064H162.88ZM164.032 97.864C163.856 98.0773 163.645 98.264 163.4 98.424C163.155 98.5787 162.891 98.7067 162.608 98.808C162.331 98.9093 162.043 98.984 161.744 99.032C161.445 99.0853 161.149 99.112 160.856 99.112C160.296 99.112 159.779 99.0187 159.304 98.832C158.835 98.64 158.427 98.3627 158.08 98C157.739 97.632 157.472 97.1787 157.28 96.64C157.088 96.1013 156.992 95.4827 156.992 94.784C156.992 94.2187 157.077 93.6907 157.248 93.2C157.424 92.7093 157.675 92.2853 158 91.928C158.325 91.5653 158.723 91.2827 159.192 91.08C159.661 90.872 160.189 90.768 160.776 90.768C161.261 90.768 161.709 90.8507 162.12 91.016C162.536 91.176 162.893 91.4107 163.192 91.72C163.496 92.024 163.733 92.4027 163.904 92.856C164.075 93.304 164.16 93.816 164.16 94.392C164.16 94.616 164.136 94.7653 164.088 94.84C164.04 94.9147 163.949 94.952 163.816 94.952H158.4C158.416 95.464 158.485 95.9093 158.608 96.288C158.736 96.6667 158.912 96.984 159.136 97.24C159.36 97.4907 159.627 97.68 159.936 97.808C160.245 97.9307 160.592 97.992 160.976 97.992C161.333 97.992 161.64 97.952 161.896 97.872C162.157 97.7867 162.381 97.696 162.568 97.6C162.755 97.504 162.909 97.416 163.032 97.336C163.16 97.2507 163.269 97.208 163.36 97.208C163.477 97.208 163.568 97.2533 163.632 97.344L164.032 97.864ZM167.261 92.52C167.517 91.9653 167.832 91.5333 168.205 91.224C168.579 90.9093 169.035 90.752 169.573 90.752C169.744 90.752 169.907 90.7707 170.061 90.808C170.221 90.8453 170.363 90.904 170.485 90.984L170.381 92.048C170.349 92.1813 170.269 92.248 170.141 92.248C170.067 92.248 169.957 92.232 169.813 92.2C169.669 92.168 169.507 92.152 169.325 92.152C169.069 92.152 168.84 92.1893 168.637 92.264C168.44 92.3387 168.261 92.4507 168.101 92.6C167.947 92.744 167.805 92.9253 167.677 93.144C167.555 93.3573 167.443 93.6027 167.341 93.88V99H165.909V90.896H166.725C166.88 90.896 166.987 90.9253 167.045 90.984C167.104 91.0427 167.144 91.144 167.165 91.288L167.261 92.52ZM176.991 90.896V99.6C176.991 99.9253 176.949 100.227 176.863 100.504C176.778 100.787 176.642 101.032 176.455 101.24C176.269 101.448 176.029 101.611 175.735 101.728C175.447 101.851 175.101 101.912 174.695 101.912C174.525 101.912 174.367 101.899 174.223 101.872C174.079 101.845 173.935 101.805 173.791 101.752L173.847 100.984C173.858 100.936 173.877 100.899 173.903 100.872C173.925 100.851 173.957 100.837 173.999 100.832C174.042 100.827 174.098 100.824 174.167 100.824C174.231 100.829 174.314 100.832 174.415 100.832C174.831 100.832 175.127 100.733 175.303 100.536C175.479 100.344 175.567 100.032 175.567 99.6V90.896H176.991ZM177.287 88.352C177.287 88.4907 177.258 88.6213 177.199 88.744C177.146 88.8613 177.071 88.968 176.975 89.064C176.885 89.1547 176.778 89.2267 176.655 89.28C176.533 89.3333 176.402 89.36 176.263 89.36C176.125 89.36 175.994 89.3333 175.871 89.28C175.754 89.2267 175.65 89.1547 175.559 89.064C175.469 88.968 175.397 88.8613 175.343 88.744C175.29 88.6213 175.263 88.4907 175.263 88.352C175.263 88.2133 175.29 88.0827 175.343 87.96C175.397 87.832 175.469 87.7227 175.559 87.632C175.65 87.536 175.754 87.4613 175.871 87.408C175.994 87.3547 176.125 87.328 176.263 87.328C176.402 87.328 176.533 87.3547 176.655 87.408C176.778 87.4613 176.885 87.536 176.975 87.632C177.071 87.7227 177.146 87.832 177.199 87.96C177.258 88.0827 177.287 88.2133 177.287 88.352ZM182.747 90.768C183.339 90.768 183.872 90.8667 184.347 91.064C184.822 91.2613 185.227 91.5413 185.563 91.904C185.899 92.2667 186.155 92.7067 186.331 93.224C186.512 93.736 186.603 94.3093 186.603 94.944C186.603 95.584 186.512 96.16 186.331 96.672C186.155 97.184 185.899 97.6213 185.563 97.984C185.227 98.3467 184.822 98.6267 184.347 98.824C183.872 99.016 183.339 99.112 182.747 99.112C182.15 99.112 181.611 99.016 181.131 98.824C180.656 98.6267 180.251 98.3467 179.915 97.984C179.579 97.6213 179.32 97.184 179.139 96.672C178.963 96.16 178.875 95.584 178.875 94.944C178.875 94.3093 178.963 93.736 179.139 93.224C179.32 92.7067 179.579 92.2667 179.915 91.904C180.251 91.5413 180.656 91.2613 181.131 91.064C181.611 90.8667 182.15 90.768 182.747 90.768ZM182.747 98C183.547 98 184.144 97.7333 184.539 97.2C184.934 96.6613 185.131 95.912 185.131 94.952C185.131 93.9867 184.934 93.2347 184.539 92.696C184.144 92.1573 183.547 91.888 182.747 91.888C182.342 91.888 181.987 91.9573 181.683 92.096C181.384 92.2347 181.134 92.4347 180.931 92.696C180.734 92.9573 180.584 93.28 180.483 93.664C180.387 94.0427 180.339 94.472 180.339 94.952C180.339 95.912 180.536 96.6613 180.931 97.2C181.331 97.7333 181.936 98 182.747 98ZM195.073 90.896V99H194.225C194.023 99 193.895 98.9013 193.841 98.704L193.729 97.832C193.377 98.2213 192.983 98.536 192.545 98.776C192.108 99.0107 191.607 99.128 191.041 99.128C190.599 99.128 190.207 99.056 189.865 98.912C189.529 98.7627 189.247 98.5547 189.017 98.288C188.788 98.0213 188.615 97.6987 188.497 97.32C188.385 96.9413 188.329 96.5227 188.329 96.064V90.896H189.753V96.064C189.753 96.6773 189.892 97.152 190.169 97.488C190.452 97.824 190.881 97.992 191.457 97.992C191.879 97.992 192.271 97.8933 192.633 97.696C193.001 97.4933 193.34 97.216 193.649 96.864V90.896H195.073ZM198.683 92.52C198.939 91.9653 199.254 91.5333 199.627 91.224C200 90.9093 200.456 90.752 200.995 90.752C201.166 90.752 201.328 90.7707 201.483 90.808C201.643 90.8453 201.784 90.904 201.907 90.984L201.803 92.048C201.771 92.1813 201.691 92.248 201.563 92.248C201.488 92.248 201.379 92.232 201.235 92.2C201.091 92.168 200.928 92.152 200.747 92.152C200.491 92.152 200.262 92.1893 200.059 92.264C199.862 92.3387 199.683 92.4507 199.523 92.6C199.368 92.744 199.227 92.9253 199.099 93.144C198.976 93.3573 198.864 93.6027 198.763 93.88V99H197.331V90.896H198.147C198.302 90.896 198.408 90.9253 198.467 90.984C198.526 91.0427 198.566 91.144 198.587 91.288L198.683 92.52ZM204.503 92.072C204.679 91.8747 204.866 91.696 205.063 91.536C205.261 91.376 205.469 91.24 205.687 91.128C205.911 91.0107 206.146 90.9227 206.391 90.864C206.642 90.8 206.911 90.768 207.199 90.768C207.642 90.768 208.031 90.8427 208.367 90.992C208.709 91.136 208.991 91.344 209.215 91.616C209.445 91.8827 209.618 92.2053 209.735 92.584C209.853 92.9627 209.911 93.3813 209.911 93.84V99H208.479V93.84C208.479 93.2267 208.338 92.752 208.055 92.416C207.778 92.0747 207.354 91.904 206.783 91.904C206.362 91.904 205.967 92.0053 205.599 92.208C205.237 92.4107 204.901 92.6853 204.591 93.032V99H203.159V90.896H204.015C204.218 90.896 204.343 90.9947 204.391 91.192L204.503 92.072ZM217.505 94.064C217.505 93.7333 217.457 93.432 217.361 93.16C217.27 92.8827 217.134 92.6453 216.953 92.448C216.777 92.2453 216.561 92.0907 216.305 91.984C216.049 91.872 215.758 91.816 215.433 91.816C214.75 91.816 214.209 92.016 213.809 92.416C213.414 92.8107 213.169 93.36 213.073 94.064H217.505ZM218.657 97.864C218.481 98.0773 218.27 98.264 218.025 98.424C217.78 98.5787 217.516 98.7067 217.233 98.808C216.956 98.9093 216.668 98.984 216.369 99.032C216.07 99.0853 215.774 99.112 215.481 99.112C214.921 99.112 214.404 99.0187 213.929 98.832C213.46 98.64 213.052 98.3627 212.705 98C212.364 97.632 212.097 97.1787 211.905 96.64C211.713 96.1013 211.617 95.4827 211.617 94.784C211.617 94.2187 211.702 93.6907 211.873 93.2C212.049 92.7093 212.3 92.2853 212.625 91.928C212.95 91.5653 213.348 91.2827 213.817 91.08C214.286 90.872 214.814 90.768 215.401 90.768C215.886 90.768 216.334 90.8507 216.745 91.016C217.161 91.176 217.518 91.4107 217.817 91.72C218.121 92.024 218.358 92.4027 218.529 92.856C218.7 93.304 218.785 93.816 218.785 94.392C218.785 94.616 218.761 94.7653 218.713 94.84C218.665 94.9147 218.574 94.952 218.441 94.952H213.025C213.041 95.464 213.11 95.9093 213.233 96.288C213.361 96.6667 213.537 96.984 213.761 97.24C213.985 97.4907 214.252 97.68 214.561 97.808C214.87 97.9307 215.217 97.992 215.601 97.992C215.958 97.992 216.265 97.952 216.521 97.872C216.782 97.7867 217.006 97.696 217.193 97.6C217.38 97.504 217.534 97.416 217.657 97.336C217.785 97.2507 217.894 97.208 217.985 97.208C218.102 97.208 218.193 97.2533 218.257 97.344L218.657 97.864ZM227.323 90.896L222.803 101.392C222.755 101.499 222.694 101.584 222.619 101.648C222.55 101.712 222.44 101.744 222.291 101.744H221.235L222.715 98.528L219.371 90.896H220.603C220.726 90.896 220.822 90.928 220.891 90.992C220.966 91.0507 221.016 91.1173 221.043 91.192L223.211 96.296C223.296 96.52 223.368 96.7547 223.427 97C223.502 96.7493 223.582 96.512 223.667 96.288L225.771 91.192C225.803 91.1067 225.856 91.0373 225.931 90.984C226.011 90.9253 226.099 90.896 226.195 90.896H227.323ZM232.284 99V90.896H233.14C233.343 90.896 233.468 90.9947 233.516 91.192L233.62 92.024C233.919 91.656 234.255 91.3547 234.628 91.12C235.002 90.8853 235.434 90.768 235.924 90.768C236.468 90.768 236.908 90.92 237.244 91.224C237.586 91.528 237.831 91.9387 237.98 92.456C238.098 92.1627 238.247 91.9093 238.428 91.696C238.615 91.4827 238.823 91.3067 239.052 91.168C239.282 91.0293 239.524 90.928 239.78 90.864C240.042 90.8 240.306 90.768 240.572 90.768C240.999 90.768 241.378 90.8373 241.708 90.976C242.044 91.1093 242.327 91.3067 242.556 91.568C242.791 91.8293 242.97 92.152 243.092 92.536C243.215 92.9147 243.276 93.3493 243.276 93.84V99H241.844V93.84C241.844 93.2053 241.706 92.7253 241.428 92.4C241.151 92.0693 240.751 91.904 240.228 91.904C239.994 91.904 239.77 91.9467 239.556 92.032C239.348 92.112 239.164 92.232 239.004 92.392C238.844 92.552 238.716 92.7547 238.62 93C238.53 93.24 238.484 93.52 238.484 93.84V99H237.052V93.84C237.052 93.1893 236.922 92.704 236.66 92.384C236.399 92.064 236.018 91.904 235.516 91.904C235.164 91.904 234.839 92 234.54 92.192C234.242 92.3787 233.967 92.6347 233.716 92.96V99H232.284ZM249.833 95.352C249.177 95.3733 248.617 95.4267 248.153 95.512C247.694 95.592 247.318 95.6987 247.025 95.832C246.737 95.9653 246.526 96.1227 246.393 96.304C246.265 96.4853 246.201 96.688 246.201 96.912C246.201 97.1253 246.235 97.3093 246.305 97.464C246.374 97.6187 246.467 97.7467 246.585 97.848C246.707 97.944 246.849 98.016 247.009 98.064C247.174 98.1067 247.35 98.128 247.537 98.128C247.787 98.128 248.017 98.104 248.225 98.056C248.433 98.0027 248.627 97.928 248.809 97.832C248.995 97.736 249.171 97.6213 249.337 97.488C249.507 97.3547 249.673 97.2027 249.833 97.032V95.352ZM245.233 92.04C245.681 91.608 246.163 91.2853 246.681 91.072C247.198 90.8587 247.771 90.752 248.401 90.752C248.854 90.752 249.257 90.8267 249.609 90.976C249.961 91.1253 250.257 91.3333 250.497 91.6C250.737 91.8667 250.918 92.1893 251.041 92.568C251.163 92.9467 251.225 93.3627 251.225 93.816V99H250.593C250.454 99 250.347 98.9787 250.273 98.936C250.198 98.888 250.139 98.7973 250.097 98.664L249.937 97.896C249.723 98.0933 249.515 98.2693 249.312 98.424C249.11 98.5733 248.897 98.7013 248.673 98.808C248.449 98.9093 248.209 98.9867 247.953 99.04C247.702 99.0987 247.422 99.128 247.113 99.128C246.798 99.128 246.502 99.0853 246.225 99C245.947 98.9093 245.705 98.776 245.497 98.6C245.294 98.424 245.131 98.2027 245.009 97.936C244.891 97.664 244.833 97.344 244.833 96.976C244.833 96.656 244.921 96.3493 245.097 96.056C245.273 95.7573 245.558 95.4933 245.953 95.264C246.347 95.0347 246.862 94.848 247.497 94.704C248.131 94.5547 248.91 94.4693 249.833 94.448V93.816C249.833 93.1867 249.697 92.712 249.425 92.392C249.153 92.0667 248.755 91.904 248.233 91.904C247.881 91.904 247.585 91.9493 247.345 92.04C247.11 92.1253 246.905 92.224 246.729 92.336C246.558 92.4427 246.409 92.5413 246.281 92.632C246.158 92.7173 246.035 92.76 245.913 92.76C245.817 92.76 245.734 92.736 245.665 92.688C245.595 92.6347 245.537 92.5707 245.488 92.496L245.233 92.04ZM254.826 97.048C255.087 97.4 255.372 97.648 255.682 97.792C255.991 97.936 256.338 98.008 256.722 98.008C257.479 98.008 258.06 97.7387 258.466 97.2C258.871 96.6613 259.074 95.8933 259.074 94.896C259.074 94.368 259.026 93.9147 258.93 93.536C258.839 93.1573 258.706 92.848 258.53 92.608C258.354 92.3627 258.138 92.184 257.882 92.072C257.626 91.96 257.335 91.904 257.01 91.904C256.546 91.904 256.138 92.0107 255.786 92.224C255.439 92.4373 255.119 92.7387 254.826 93.128V97.048ZM254.754 92.152C255.095 91.7307 255.49 91.392 255.938 91.136C256.386 90.88 256.898 90.752 257.474 90.752C257.943 90.752 258.367 90.8427 258.746 91.024C259.124 91.2 259.447 91.464 259.714 91.816C259.98 92.1627 260.186 92.5947 260.33 93.112C260.474 93.6293 260.546 94.224 260.546 94.896C260.546 95.4933 260.466 96.0507 260.306 96.568C260.146 97.08 259.914 97.5253 259.61 97.904C259.311 98.2773 258.943 98.5733 258.506 98.792C258.074 99.0053 257.586 99.112 257.042 99.112C256.546 99.112 256.119 99.0293 255.762 98.864C255.41 98.6933 255.098 98.4587 254.826 98.16V101.744H253.394V90.896H254.25C254.452 90.896 254.578 90.9947 254.626 91.192L254.754 92.152ZM111.512 121.632C111.597 121.632 111.672 121.667 111.736 121.736L112.352 122.4C111.883 122.944 111.312 123.368 110.64 123.672C109.973 123.976 109.165 124.128 108.216 124.128C107.395 124.128 106.648 123.987 105.976 123.704C105.304 123.416 104.731 123.016 104.256 122.504C103.781 121.987 103.413 121.368 103.152 120.648C102.891 119.928 102.76 119.136 102.76 118.272C102.76 117.408 102.896 116.616 103.168 115.896C103.44 115.176 103.821 114.557 104.312 114.04C104.808 113.523 105.4 113.123 106.088 112.84C106.776 112.552 107.536 112.408 108.368 112.408C109.184 112.408 109.904 112.539 110.528 112.8C111.152 113.061 111.701 113.416 112.176 113.864L111.664 114.576C111.632 114.629 111.589 114.675 111.536 114.712C111.488 114.744 111.421 114.76 111.336 114.76C111.24 114.76 111.123 114.709 110.984 114.608C110.845 114.501 110.664 114.384 110.44 114.256C110.216 114.128 109.936 114.013 109.6 113.912C109.264 113.805 108.851 113.752 108.36 113.752C107.768 113.752 107.227 113.856 106.736 114.064C106.245 114.267 105.821 114.563 105.464 114.952C105.112 115.341 104.837 115.816 104.64 116.376C104.443 116.936 104.344 117.568 104.344 118.272C104.344 118.987 104.445 119.624 104.648 120.184C104.856 120.744 105.136 121.219 105.488 121.608C105.845 121.992 106.264 122.285 106.744 122.488C107.229 122.691 107.752 122.792 108.312 122.792C108.653 122.792 108.96 122.773 109.232 122.736C109.509 122.693 109.763 122.629 109.992 122.544C110.227 122.459 110.443 122.352 110.64 122.224C110.843 122.091 111.043 121.933 111.24 121.752C111.331 121.672 111.421 121.632 111.512 121.632ZM117.075 115.768C117.667 115.768 118.201 115.867 118.675 116.064C119.15 116.261 119.555 116.541 119.891 116.904C120.227 117.267 120.483 117.707 120.659 118.224C120.841 118.736 120.931 119.309 120.931 119.944C120.931 120.584 120.841 121.16 120.659 121.672C120.483 122.184 120.227 122.621 119.891 122.984C119.555 123.347 119.15 123.627 118.675 123.824C118.201 124.016 117.667 124.112 117.075 124.112C116.478 124.112 115.939 124.016 115.459 123.824C114.985 123.627 114.579 123.347 114.243 122.984C113.907 122.621 113.649 122.184 113.467 121.672C113.291 121.16 113.203 120.584 113.203 119.944C113.203 119.309 113.291 118.736 113.467 118.224C113.649 117.707 113.907 117.267 114.243 116.904C114.579 116.541 114.985 116.261 115.459 116.064C115.939 115.867 116.478 115.768 117.075 115.768ZM117.075 123C117.875 123 118.473 122.733 118.867 122.2C119.262 121.661 119.459 120.912 119.459 119.952C119.459 118.987 119.262 118.235 118.867 117.696C118.473 117.157 117.875 116.888 117.075 116.888C116.67 116.888 116.315 116.957 116.011 117.096C115.713 117.235 115.462 117.435 115.259 117.696C115.062 117.957 114.913 118.28 114.811 118.664C114.715 119.043 114.667 119.472 114.667 119.952C114.667 120.912 114.865 121.661 115.259 122.2C115.659 122.733 116.265 123 117.075 123ZM122.737 124V115.896H123.593C123.796 115.896 123.921 115.995 123.969 116.192L124.073 117.024C124.372 116.656 124.708 116.355 125.081 116.12C125.455 115.885 125.887 115.768 126.377 115.768C126.921 115.768 127.361 115.92 127.697 116.224C128.039 116.528 128.284 116.939 128.433 117.456C128.551 117.163 128.7 116.909 128.881 116.696C129.068 116.483 129.276 116.307 129.505 116.168C129.735 116.029 129.977 115.928 130.233 115.864C130.495 115.8 130.759 115.768 131.025 115.768C131.452 115.768 131.831 115.837 132.161 115.976C132.497 116.109 132.78 116.307 133.009 116.568C133.244 116.829 133.423 117.152 133.545 117.536C133.668 117.915 133.729 118.349 133.729 118.84V124H132.297V118.84C132.297 118.205 132.159 117.725 131.881 117.4C131.604 117.069 131.204 116.904 130.681 116.904C130.447 116.904 130.223 116.947 130.009 117.032C129.801 117.112 129.617 117.232 129.457 117.392C129.297 117.552 129.169 117.755 129.073 118C128.983 118.24 128.937 118.52 128.937 118.84V124H127.505V118.84C127.505 118.189 127.375 117.704 127.113 117.384C126.852 117.064 126.471 116.904 125.969 116.904C125.617 116.904 125.292 117 124.993 117.192C124.695 117.379 124.42 117.635 124.169 117.96V124H122.737ZM137.326 122.048C137.587 122.4 137.872 122.648 138.182 122.792C138.491 122.936 138.838 123.008 139.222 123.008C139.979 123.008 140.56 122.739 140.966 122.2C141.371 121.661 141.574 120.893 141.574 119.896C141.574 119.368 141.526 118.915 141.43 118.536C141.339 118.157 141.206 117.848 141.03 117.608C140.854 117.363 140.638 117.184 140.382 117.072C140.126 116.96 139.835 116.904 139.51 116.904C139.046 116.904 138.638 117.011 138.286 117.224C137.939 117.437 137.619 117.739 137.326 118.128V122.048ZM137.254 117.152C137.595 116.731 137.99 116.392 138.438 116.136C138.886 115.88 139.398 115.752 139.974 115.752C140.443 115.752 140.867 115.843 141.246 116.024C141.624 116.2 141.947 116.464 142.214 116.816C142.48 117.163 142.686 117.595 142.83 118.112C142.974 118.629 143.046 119.224 143.046 119.896C143.046 120.493 142.966 121.051 142.806 121.568C142.646 122.08 142.414 122.525 142.11 122.904C141.811 123.277 141.443 123.573 141.006 123.792C140.574 124.005 140.086 124.112 139.542 124.112C139.046 124.112 138.619 124.029 138.262 123.864C137.91 123.693 137.598 123.459 137.326 123.16V126.744H135.894V115.896H136.75C136.952 115.896 137.078 115.995 137.126 116.192L137.254 117.152ZM150.286 119.064C150.286 118.733 150.238 118.432 150.142 118.16C150.052 117.883 149.916 117.645 149.734 117.448C149.558 117.245 149.342 117.091 149.086 116.984C148.83 116.872 148.54 116.816 148.214 116.816C147.532 116.816 146.99 117.016 146.59 117.416C146.196 117.811 145.95 118.36 145.854 119.064H150.286ZM151.438 122.864C151.262 123.077 151.052 123.264 150.806 123.424C150.561 123.579 150.297 123.707 150.014 123.808C149.737 123.909 149.449 123.984 149.15 124.032C148.852 124.085 148.556 124.112 148.262 124.112C147.702 124.112 147.185 124.019 146.71 123.832C146.241 123.64 145.833 123.363 145.486 123C145.145 122.632 144.878 122.179 144.686 121.64C144.494 121.101 144.398 120.483 144.398 119.784C144.398 119.219 144.484 118.691 144.654 118.2C144.83 117.709 145.081 117.285 145.406 116.928C145.732 116.565 146.129 116.283 146.598 116.08C147.068 115.872 147.596 115.768 148.182 115.768C148.668 115.768 149.116 115.851 149.526 116.016C149.942 116.176 150.3 116.411 150.598 116.72C150.902 117.024 151.14 117.403 151.31 117.856C151.481 118.304 151.566 118.816 151.566 119.392C151.566 119.616 151.542 119.765 151.494 119.84C151.446 119.915 151.356 119.952 151.222 119.952H145.806C145.822 120.464 145.892 120.909 146.014 121.288C146.142 121.667 146.318 121.984 146.542 122.24C146.766 122.491 147.033 122.68 147.342 122.808C147.652 122.931 147.998 122.992 148.382 122.992C148.74 122.992 149.046 122.952 149.302 122.872C149.564 122.787 149.788 122.696 149.974 122.6C150.161 122.504 150.316 122.416 150.438 122.336C150.566 122.251 150.676 122.208 150.766 122.208C150.884 122.208 150.974 122.253 151.038 122.344L151.438 122.864ZM160.773 124H159.349V117.088H155.173V121.952C155.173 122.293 155.256 122.547 155.421 122.712C155.586 122.877 155.8 122.96 156.061 122.96C156.21 122.96 156.338 122.941 156.445 122.904C156.557 122.861 156.653 122.816 156.733 122.768C156.813 122.72 156.88 122.677 156.933 122.64C156.992 122.597 157.042 122.576 157.085 122.576C157.16 122.576 157.226 122.621 157.285 122.712L157.701 123.392C157.456 123.621 157.16 123.803 156.813 123.936C156.466 124.064 156.109 124.128 155.741 124.128C155.101 124.128 154.608 123.949 154.261 123.592C153.92 123.235 153.749 122.72 153.749 122.048V117.088H152.773C152.688 117.088 152.616 117.064 152.557 117.016C152.498 116.963 152.469 116.883 152.469 116.776V116.208L153.797 116.032L154.125 113.536C154.141 113.456 154.176 113.392 154.229 113.344C154.288 113.291 154.362 113.264 154.453 113.264H155.173V116.056H160.773V124ZM161.125 113.296C161.125 113.435 161.096 113.565 161.037 113.688C160.984 113.805 160.909 113.909 160.813 114C160.722 114.091 160.616 114.163 160.493 114.216C160.37 114.269 160.24 114.296 160.101 114.296C159.962 114.296 159.832 114.269 159.709 114.216C159.592 114.163 159.488 114.091 159.397 114C159.306 113.909 159.234 113.805 159.181 113.688C159.128 113.565 159.101 113.435 159.101 113.296C159.101 113.157 159.128 113.027 159.181 112.904C159.234 112.776 159.306 112.667 159.397 112.576C159.488 112.48 159.592 112.405 159.709 112.352C159.832 112.299 159.962 112.272 160.101 112.272C160.24 112.272 160.37 112.299 160.493 112.352C160.616 112.405 160.722 112.48 160.813 112.576C160.909 112.667 160.984 112.776 161.037 112.904C161.096 113.027 161.125 113.157 161.125 113.296ZM165.6 124.128C164.96 124.128 164.467 123.949 164.12 123.592C163.779 123.235 163.608 122.72 163.608 122.048V117.088H162.632C162.547 117.088 162.475 117.064 162.416 117.016C162.358 116.963 162.328 116.883 162.328 116.776V116.208L163.656 116.04L163.984 113.536C164 113.456 164.035 113.392 164.088 113.344C164.147 113.291 164.222 113.264 164.312 113.264H165.032V116.056H167.376V117.088H165.032V121.952C165.032 122.293 165.115 122.547 165.28 122.712C165.446 122.877 165.659 122.96 165.92 122.96C166.07 122.96 166.198 122.941 166.304 122.904C166.416 122.861 166.512 122.816 166.592 122.768C166.672 122.72 166.739 122.677 166.792 122.64C166.851 122.597 166.902 122.576 166.944 122.576C167.019 122.576 167.086 122.621 167.144 122.712L167.56 123.392C167.315 123.621 167.019 123.803 166.672 123.936C166.326 124.064 165.968 124.128 165.6 124.128ZM172.216 115.768C172.808 115.768 173.341 115.867 173.816 116.064C174.291 116.261 174.696 116.541 175.032 116.904C175.368 117.267 175.624 117.707 175.8 118.224C175.981 118.736 176.072 119.309 176.072 119.944C176.072 120.584 175.981 121.16 175.8 121.672C175.624 122.184 175.368 122.621 175.032 122.984C174.696 123.347 174.291 123.627 173.816 123.824C173.341 124.016 172.808 124.112 172.216 124.112C171.619 124.112 171.08 124.016 170.6 123.824C170.125 123.627 169.72 123.347 169.384 122.984C169.048 122.621 168.789 122.184 168.608 121.672C168.432 121.16 168.344 120.584 168.344 119.944C168.344 119.309 168.432 118.736 168.608 118.224C168.789 117.707 169.048 117.267 169.384 116.904C169.72 116.541 170.125 116.261 170.6 116.064C171.08 115.867 171.619 115.768 172.216 115.768ZM172.216 123C173.016 123 173.613 122.733 174.008 122.2C174.403 121.661 174.6 120.912 174.6 119.952C174.6 118.987 174.403 118.235 174.008 117.696C173.613 117.157 173.016 116.888 172.216 116.888C171.811 116.888 171.456 116.957 171.152 117.096C170.853 117.235 170.603 117.435 170.4 117.696C170.203 117.957 170.053 118.28 169.952 118.664C169.856 119.043 169.808 119.472 169.808 119.952C169.808 120.912 170.005 121.661 170.4 122.2C170.8 122.733 171.405 123 172.216 123ZM179.23 117.52C179.486 116.965 179.801 116.533 180.174 116.224C180.547 115.909 181.003 115.752 181.542 115.752C181.713 115.752 181.875 115.771 182.03 115.808C182.19 115.845 182.331 115.904 182.454 115.984L182.35 117.048C182.318 117.181 182.238 117.248 182.11 117.248C182.035 117.248 181.926 117.232 181.782 117.2C181.638 117.168 181.475 117.152 181.294 117.152C181.038 117.152 180.809 117.189 180.606 117.264C180.409 117.339 180.23 117.451 180.07 117.6C179.915 117.744 179.774 117.925 179.646 118.144C179.523 118.357 179.411 118.603 179.31 118.88V124H177.878V115.896H178.694C178.849 115.896 178.955 115.925 179.014 115.984C179.073 116.043 179.113 116.144 179.134 116.288L179.23 117.52ZM187.984 124V117.112L187.088 117.008C186.976 116.981 186.883 116.941 186.808 116.888C186.739 116.829 186.704 116.747 186.704 116.64V116.056H187.984V115.272C187.984 114.808 188.048 114.397 188.176 114.04C188.309 113.677 188.496 113.373 188.736 113.128C188.981 112.877 189.275 112.688 189.616 112.56C189.957 112.432 190.341 112.368 190.768 112.368C191.131 112.368 191.464 112.421 191.768 112.528L191.736 113.24C191.725 113.368 191.653 113.437 191.52 113.448C191.392 113.459 191.219 113.464 191 113.464C190.755 113.464 190.531 113.496 190.328 113.56C190.131 113.624 189.96 113.728 189.816 113.872C189.672 114.016 189.56 114.205 189.48 114.44C189.405 114.675 189.368 114.965 189.368 115.312V116.056H191.704V117.088H189.416V124H187.984ZM198.224 119.064C198.224 118.733 198.176 118.432 198.08 118.16C197.989 117.883 197.853 117.645 197.672 117.448C197.496 117.245 197.28 117.091 197.024 116.984C196.768 116.872 196.477 116.816 196.152 116.816C195.469 116.816 194.928 117.016 194.528 117.416C194.133 117.811 193.888 118.36 193.792 119.064H198.224ZM199.376 122.864C199.2 123.077 198.989 123.264 198.744 123.424C198.499 123.579 198.235 123.707 197.952 123.808C197.675 123.909 197.387 123.984 197.088 124.032C196.789 124.085 196.493 124.112 196.2 124.112C195.64 124.112 195.123 124.019 194.648 123.832C194.179 123.64 193.771 123.363 193.424 123C193.083 122.632 192.816 122.179 192.624 121.64C192.432 121.101 192.336 120.483 192.336 119.784C192.336 119.219 192.421 118.691 192.592 118.2C192.768 117.709 193.019 117.285 193.344 116.928C193.669 116.565 194.067 116.283 194.536 116.08C195.005 115.872 195.533 115.768 196.12 115.768C196.605 115.768 197.053 115.851 197.464 116.016C197.88 116.176 198.237 116.411 198.536 116.72C198.84 117.024 199.077 117.403 199.248 117.856C199.419 118.304 199.504 118.816 199.504 119.392C199.504 119.616 199.48 119.765 199.432 119.84C199.384 119.915 199.293 119.952 199.16 119.952H193.744C193.76 120.464 193.829 120.909 193.952 121.288C194.08 121.667 194.256 121.984 194.48 122.24C194.704 122.491 194.971 122.68 195.28 122.808C195.589 122.931 195.936 122.992 196.32 122.992C196.677 122.992 196.984 122.952 197.24 122.872C197.501 122.787 197.725 122.696 197.912 122.6C198.099 122.504 198.253 122.416 198.376 122.336C198.504 122.251 198.613 122.208 198.704 122.208C198.821 122.208 198.912 122.253 198.976 122.344L199.376 122.864ZM205.645 120.352C204.989 120.373 204.429 120.427 203.965 120.512C203.506 120.592 203.13 120.699 202.837 120.832C202.549 120.965 202.338 121.123 202.205 121.304C202.077 121.485 202.013 121.688 202.013 121.912C202.013 122.125 202.048 122.309 202.117 122.464C202.186 122.619 202.28 122.747 202.397 122.848C202.52 122.944 202.661 123.016 202.821 123.064C202.986 123.107 203.162 123.128 203.349 123.128C203.6 123.128 203.829 123.104 204.037 123.056C204.245 123.003 204.44 122.928 204.621 122.832C204.808 122.736 204.984 122.621 205.149 122.488C205.32 122.355 205.485 122.203 205.645 122.032V120.352ZM201.045 117.04C201.493 116.608 201.976 116.285 202.493 116.072C203.01 115.859 203.584 115.752 204.213 115.752C204.666 115.752 205.069 115.827 205.421 115.976C205.773 116.125 206.069 116.333 206.309 116.6C206.549 116.867 206.73 117.189 206.853 117.568C206.976 117.947 207.037 118.363 207.037 118.816V124H206.405C206.266 124 206.16 123.979 206.085 123.936C206.01 123.888 205.952 123.797 205.909 123.664L205.749 122.896C205.536 123.093 205.328 123.269 205.125 123.424C204.922 123.573 204.709 123.701 204.485 123.808C204.261 123.909 204.021 123.987 203.765 124.04C203.514 124.099 203.234 124.128 202.925 124.128C202.61 124.128 202.314 124.085 202.037 124C201.76 123.909 201.517 123.776 201.309 123.6C201.106 123.424 200.944 123.203 200.821 122.936C200.704 122.664 200.645 122.344 200.645 121.976C200.645 121.656 200.733 121.349 200.909 121.056C201.085 120.757 201.37 120.493 201.765 120.264C202.16 120.035 202.674 119.848 203.309 119.704C203.944 119.555 204.722 119.469 205.645 119.448V118.816C205.645 118.187 205.509 117.712 205.237 117.392C204.965 117.067 204.568 116.904 204.045 116.904C203.693 116.904 203.397 116.949 203.157 117.04C202.922 117.125 202.717 117.224 202.541 117.336C202.37 117.443 202.221 117.541 202.093 117.632C201.97 117.717 201.848 117.76 201.725 117.76C201.629 117.76 201.546 117.736 201.477 117.688C201.408 117.635 201.349 117.571 201.301 117.496L201.045 117.04ZM211.585 124.128C210.945 124.128 210.451 123.949 210.105 123.592C209.763 123.235 209.593 122.72 209.593 122.048V117.088H208.617C208.531 117.088 208.459 117.064 208.401 117.016C208.342 116.963 208.313 116.883 208.313 116.776V116.208L209.641 116.04L209.969 113.536C209.985 113.456 210.019 113.392 210.073 113.344C210.131 113.291 210.206 113.264 210.297 113.264H211.017V116.056H213.361V117.088H211.017V121.952C211.017 122.293 211.099 122.547 211.265 122.712C211.43 122.877 211.643 122.96 211.905 122.96C212.054 122.96 212.182 122.941 212.289 122.904C212.401 122.861 212.497 122.816 212.577 122.768C212.657 122.72 212.723 122.677 212.777 122.64C212.835 122.597 212.886 122.576 212.929 122.576C213.003 122.576 213.07 122.621 213.129 122.712L213.545 123.392C213.299 123.621 213.003 123.803 212.657 123.936C212.31 124.064 211.953 124.128 211.585 124.128ZM221.495 115.896V124H220.647C220.444 124 220.316 123.901 220.263 123.704L220.151 122.832C219.799 123.221 219.404 123.536 218.967 123.776C218.53 124.011 218.028 124.128 217.463 124.128C217.02 124.128 216.628 124.056 216.287 123.912C215.951 123.763 215.668 123.555 215.439 123.288C215.21 123.021 215.036 122.699 214.919 122.32C214.807 121.941 214.751 121.523 214.751 121.064V115.896H216.175V121.064C216.175 121.677 216.314 122.152 216.591 122.488C216.874 122.824 217.303 122.992 217.879 122.992C218.3 122.992 218.692 122.893 219.055 122.696C219.423 122.493 219.762 122.216 220.071 121.864V115.896H221.495ZM225.105 117.52C225.361 116.965 225.676 116.533 226.049 116.224C226.422 115.909 226.878 115.752 227.417 115.752C227.588 115.752 227.75 115.771 227.905 115.808C228.065 115.845 228.206 115.904 228.329 115.984L228.225 117.048C228.193 117.181 228.113 117.248 227.985 117.248C227.91 117.248 227.801 117.232 227.657 117.2C227.513 117.168 227.35 117.152 227.169 117.152C226.913 117.152 226.684 117.189 226.481 117.264C226.284 117.339 226.105 117.451 225.945 117.6C225.79 117.744 225.649 117.925 225.521 118.144C225.398 118.357 225.286 118.603 225.185 118.88V124H223.753V115.896H224.569C224.724 115.896 224.83 115.925 224.889 115.984C224.948 116.043 224.988 116.144 225.009 116.288L225.105 117.52ZM234.677 119.064C234.677 118.733 234.629 118.432 234.533 118.16C234.442 117.883 234.306 117.645 234.125 117.448C233.949 117.245 233.733 117.091 233.477 116.984C233.221 116.872 232.93 116.816 232.605 116.816C231.922 116.816 231.381 117.016 230.981 117.416C230.586 117.811 230.341 118.36 230.245 119.064H234.677ZM235.829 122.864C235.653 123.077 235.442 123.264 235.197 123.424C234.952 123.579 234.688 123.707 234.405 123.808C234.128 123.909 233.84 123.984 233.541 124.032C233.242 124.085 232.946 124.112 232.653 124.112C232.093 124.112 231.576 124.019 231.101 123.832C230.632 123.64 230.224 123.363 229.877 123C229.536 122.632 229.269 122.179 229.077 121.64C228.885 121.101 228.789 120.483 228.789 119.784C228.789 119.219 228.874 118.691 229.045 118.2C229.221 117.709 229.472 117.285 229.797 116.928C230.122 116.565 230.52 116.283 230.989 116.08C231.458 115.872 231.986 115.768 232.573 115.768C233.058 115.768 233.506 115.851 233.917 116.016C234.333 116.176 234.69 116.411 234.989 116.72C235.293 117.024 235.53 117.403 235.701 117.856C235.872 118.304 235.957 118.816 235.957 119.392C235.957 119.616 235.933 119.765 235.885 119.84C235.837 119.915 235.746 119.952 235.613 119.952H230.197C230.213 120.464 230.282 120.909 230.405 121.288C230.533 121.667 230.709 121.984 230.933 122.24C231.157 122.491 231.424 122.68 231.733 122.808C232.042 122.931 232.389 122.992 232.773 122.992C233.13 122.992 233.437 122.952 233.693 122.872C233.954 122.787 234.178 122.696 234.365 122.6C234.552 122.504 234.706 122.416 234.829 122.336C234.957 122.251 235.066 122.208 235.157 122.208C235.274 122.208 235.365 122.253 235.429 122.344L235.829 122.864ZM246.192 120.352C245.536 120.373 244.976 120.427 244.512 120.512C244.053 120.592 243.677 120.699 243.384 120.832C243.096 120.965 242.885 121.123 242.752 121.304C242.624 121.485 242.56 121.688 242.56 121.912C242.56 122.125 242.595 122.309 242.664 122.464C242.733 122.619 242.827 122.747 242.944 122.848C243.067 122.944 243.208 123.016 243.368 123.064C243.533 123.107 243.709 123.128 243.896 123.128C244.147 123.128 244.376 123.104 244.584 123.056C244.792 123.003 244.987 122.928 245.168 122.832C245.355 122.736 245.531 122.621 245.696 122.488C245.867 122.355 246.032 122.203 246.192 122.032V120.352ZM241.592 117.04C242.04 116.608 242.523 116.285 243.04 116.072C243.557 115.859 244.131 115.752 244.76 115.752C245.213 115.752 245.616 115.827 245.968 115.976C246.32 116.125 246.616 116.333 246.856 116.6C247.096 116.867 247.277 117.189 247.4 117.568C247.523 117.947 247.584 118.363 247.584 118.816V124H246.952C246.813 124 246.707 123.979 246.632 123.936C246.557 123.888 246.499 123.797 246.456 123.664L246.296 122.896C246.083 123.093 245.875 123.269 245.672 123.424C245.469 123.573 245.256 123.701 245.032 123.808C244.808 123.909 244.568 123.987 244.312 124.04C244.061 124.099 243.781 124.128 243.472 124.128C243.157 124.128 242.861 124.085 242.584 124C242.307 123.909 242.064 123.776 241.856 123.6C241.653 123.424 241.491 123.203 241.368 122.936C241.251 122.664 241.192 122.344 241.192 121.976C241.192 121.656 241.28 121.349 241.456 121.056C241.632 120.757 241.917 120.493 242.312 120.264C242.707 120.035 243.221 119.848 243.856 119.704C244.491 119.555 245.269 119.469 246.192 119.448V118.816C246.192 118.187 246.056 117.712 245.784 117.392C245.512 117.067 245.115 116.904 244.592 116.904C244.24 116.904 243.944 116.949 243.704 117.04C243.469 117.125 243.264 117.224 243.088 117.336C242.917 117.443 242.768 117.541 242.64 117.632C242.517 117.717 242.395 117.76 242.272 117.76C242.176 117.76 242.093 117.736 242.024 117.688C241.955 117.635 241.896 117.571 241.848 117.496L241.592 117.04ZM251.097 117.072C251.273 116.875 251.46 116.696 251.657 116.536C251.854 116.376 252.062 116.24 252.281 116.128C252.505 116.011 252.74 115.923 252.985 115.864C253.236 115.8 253.505 115.768 253.793 115.768C254.236 115.768 254.625 115.843 254.961 115.992C255.302 116.136 255.585 116.344 255.809 116.616C256.038 116.883 256.212 117.205 256.329 117.584C256.446 117.963 256.505 118.381 256.505 118.84V124H255.073V118.84C255.073 118.227 254.932 117.752 254.649 117.416C254.372 117.075 253.948 116.904 253.377 116.904C252.956 116.904 252.561 117.005 252.193 117.208C251.83 117.411 251.494 117.685 251.185 118.032V124H249.753V115.896H250.609C250.812 115.896 250.937 115.995 250.985 116.192L251.097 117.072ZM263.067 120.352C262.411 120.373 261.851 120.427 261.387 120.512C260.928 120.592 260.552 120.699 260.259 120.832C259.971 120.965 259.76 121.123 259.627 121.304C259.499 121.485 259.435 121.688 259.435 121.912C259.435 122.125 259.47 122.309 259.539 122.464C259.608 122.619 259.702 122.747 259.819 122.848C259.942 122.944 260.083 123.016 260.243 123.064C260.408 123.107 260.584 123.128 260.771 123.128C261.022 123.128 261.251 123.104 261.459 123.056C261.667 123.003 261.862 122.928 262.043 122.832C262.23 122.736 262.406 122.621 262.571 122.488C262.742 122.355 262.907 122.203 263.067 122.032V120.352ZM258.467 117.04C258.915 116.608 259.398 116.285 259.915 116.072C260.432 115.859 261.006 115.752 261.635 115.752C262.088 115.752 262.491 115.827 262.843 115.976C263.195 116.125 263.491 116.333 263.731 116.6C263.971 116.867 264.152 117.189 264.275 117.568C264.398 117.947 264.459 118.363 264.459 118.816V124H263.827C263.688 124 263.582 123.979 263.507 123.936C263.432 123.888 263.374 123.797 263.331 123.664L263.171 122.896C262.958 123.093 262.75 123.269 262.547 123.424C262.344 123.573 262.131 123.701 261.907 123.808C261.683 123.909 261.443 123.987 261.187 124.04C260.936 124.099 260.656 124.128 260.347 124.128C260.032 124.128 259.736 124.085 259.459 124C259.182 123.909 258.939 123.776 258.731 123.6C258.528 123.424 258.366 123.203 258.243 122.936C258.126 122.664 258.067 122.344 258.067 121.976C258.067 121.656 258.155 121.349 258.331 121.056C258.507 120.757 258.792 120.493 259.187 120.264C259.582 120.035 260.096 119.848 260.731 119.704C261.366 119.555 262.144 119.469 263.067 119.448V118.816C263.067 118.187 262.931 117.712 262.659 117.392C262.387 117.067 261.99 116.904 261.467 116.904C261.115 116.904 260.819 116.949 260.579 117.04C260.344 117.125 260.139 117.224 259.963 117.336C259.792 117.443 259.643 117.541 259.515 117.632C259.392 117.717 259.27 117.76 259.147 117.76C259.051 117.76 258.968 117.736 258.899 117.688C258.83 117.635 258.771 117.571 258.723 117.496L258.467 117.04ZM268.1 112.216V124H266.676V112.216H268.1ZM277.401 115.896L272.881 126.392C272.833 126.499 272.772 126.584 272.697 126.648C272.628 126.712 272.519 126.744 272.369 126.744H271.313L272.793 123.528L269.449 115.896H270.681C270.804 115.896 270.9 115.928 270.969 115.992C271.044 116.051 271.095 116.117 271.121 116.192L273.289 121.296C273.375 121.52 273.447 121.755 273.505 122C273.58 121.749 273.66 121.512 273.745 121.288L275.849 116.192C275.881 116.107 275.935 116.037 276.009 115.984C276.089 115.925 276.177 115.896 276.273 115.896H277.401ZM283.239 117.232C283.175 117.349 283.076 117.408 282.943 117.408C282.863 117.408 282.772 117.379 282.671 117.32C282.569 117.261 282.444 117.197 282.295 117.128C282.151 117.053 281.977 116.987 281.775 116.928C281.572 116.864 281.332 116.832 281.055 116.832C280.815 116.832 280.599 116.864 280.407 116.928C280.215 116.987 280.049 117.069 279.911 117.176C279.777 117.283 279.673 117.408 279.599 117.552C279.529 117.691 279.495 117.843 279.495 118.008C279.495 118.216 279.553 118.389 279.671 118.528C279.793 118.667 279.953 118.787 280.151 118.888C280.348 118.989 280.572 119.08 280.823 119.16C281.073 119.235 281.329 119.317 281.591 119.408C281.857 119.493 282.116 119.589 282.367 119.696C282.617 119.803 282.841 119.936 283.039 120.096C283.236 120.256 283.393 120.453 283.511 120.688C283.633 120.917 283.695 121.195 283.695 121.52C283.695 121.893 283.628 122.24 283.495 122.56C283.361 122.875 283.164 123.149 282.903 123.384C282.641 123.613 282.321 123.795 281.943 123.928C281.564 124.061 281.127 124.128 280.631 124.128C280.065 124.128 279.553 124.037 279.095 123.856C278.636 123.669 278.247 123.432 277.927 123.144L278.263 122.6C278.305 122.531 278.356 122.477 278.415 122.44C278.473 122.403 278.548 122.384 278.639 122.384C278.735 122.384 278.836 122.421 278.943 122.496C279.049 122.571 279.177 122.653 279.327 122.744C279.481 122.835 279.668 122.917 279.887 122.992C280.105 123.067 280.377 123.104 280.703 123.104C280.98 123.104 281.223 123.069 281.431 123C281.639 122.925 281.812 122.827 281.951 122.704C282.089 122.581 282.191 122.44 282.255 122.28C282.324 122.12 282.359 121.949 282.359 121.768C282.359 121.544 282.297 121.36 282.175 121.216C282.057 121.067 281.9 120.941 281.703 120.84C281.505 120.733 281.279 120.643 281.023 120.568C280.772 120.488 280.513 120.405 280.247 120.32C279.985 120.235 279.727 120.139 279.471 120.032C279.22 119.92 278.996 119.781 278.799 119.616C278.601 119.451 278.441 119.248 278.319 119.008C278.201 118.763 278.143 118.467 278.143 118.12C278.143 117.811 278.207 117.515 278.335 117.232C278.463 116.944 278.649 116.693 278.895 116.48C279.14 116.261 279.441 116.088 279.799 115.96C280.156 115.832 280.564 115.768 281.023 115.768C281.556 115.768 282.033 115.853 282.455 116.024C282.881 116.189 283.249 116.419 283.559 116.712L283.239 117.232ZM286.945 115.896V124H285.521V115.896H286.945ZM287.249 113.352C287.249 113.491 287.219 113.621 287.161 113.744C287.107 113.861 287.033 113.968 286.937 114.064C286.846 114.155 286.737 114.227 286.609 114.28C286.486 114.333 286.355 114.36 286.217 114.36C286.078 114.36 285.947 114.333 285.825 114.28C285.707 114.227 285.603 114.155 285.513 114.064C285.422 113.968 285.35 113.861 285.297 113.744C285.243 113.621 285.217 113.491 285.217 113.352C285.217 113.213 285.243 113.083 285.297 112.96C285.35 112.832 285.422 112.723 285.513 112.632C285.603 112.536 285.707 112.461 285.825 112.408C285.947 112.355 286.078 112.328 286.217 112.328C286.355 112.328 286.486 112.355 286.609 112.408C286.737 112.461 286.846 112.536 286.937 112.632C287.033 112.723 287.107 112.832 287.161 112.96C287.219 113.083 287.249 113.213 287.249 113.352ZM294.004 117.232C293.94 117.349 293.842 117.408 293.708 117.408C293.628 117.408 293.538 117.379 293.436 117.32C293.335 117.261 293.21 117.197 293.06 117.128C292.916 117.053 292.743 116.987 292.54 116.928C292.338 116.864 292.098 116.832 291.82 116.832C291.58 116.832 291.364 116.864 291.172 116.928C290.98 116.987 290.815 117.069 290.676 117.176C290.543 117.283 290.439 117.408 290.364 117.552C290.295 117.691 290.26 117.843 290.26 118.008C290.26 118.216 290.319 118.389 290.436 118.528C290.559 118.667 290.719 118.787 290.916 118.888C291.114 118.989 291.338 119.08 291.588 119.16C291.839 119.235 292.095 119.317 292.356 119.408C292.623 119.493 292.882 119.589 293.132 119.696C293.383 119.803 293.607 119.936 293.804 120.096C294.002 120.256 294.159 120.453 294.276 120.688C294.399 120.917 294.46 121.195 294.46 121.52C294.46 121.893 294.394 122.24 294.26 122.56C294.127 122.875 293.93 123.149 293.668 123.384C293.407 123.613 293.087 123.795 292.708 123.928C292.33 124.061 291.892 124.128 291.396 124.128C290.831 124.128 290.319 124.037 289.86 123.856C289.402 123.669 289.012 123.432 288.692 123.144L289.028 122.6C289.071 122.531 289.122 122.477 289.18 122.44C289.239 122.403 289.314 122.384 289.404 122.384C289.5 122.384 289.602 122.421 289.708 122.496C289.815 122.571 289.943 122.653 290.092 122.744C290.247 122.835 290.434 122.917 290.652 122.992C290.871 123.067 291.143 123.104 291.468 123.104C291.746 123.104 291.988 123.069 292.196 123C292.404 122.925 292.578 122.827 292.716 122.704C292.855 122.581 292.956 122.44 293.02 122.28C293.09 122.12 293.124 121.949 293.124 121.768C293.124 121.544 293.063 121.36 292.94 121.216C292.823 121.067 292.666 120.941 292.468 120.84C292.271 120.733 292.044 120.643 291.788 120.568C291.538 120.488 291.279 120.405 291.012 120.32C290.751 120.235 290.492 120.139 290.236 120.032C289.986 119.92 289.762 119.781 289.564 119.616C289.367 119.451 289.207 119.248 289.084 119.008C288.967 118.763 288.908 118.467 288.908 118.12C288.908 117.811 288.972 117.515 289.1 117.232C289.228 116.944 289.415 116.693 289.66 116.48C289.906 116.261 290.207 116.088 290.564 115.96C290.922 115.832 291.33 115.768 291.788 115.768C292.322 115.768 292.799 115.853 293.22 116.024C293.647 116.189 294.015 116.419 294.324 116.712L294.004 117.232Z" fill="#4F4F4F"/>
</svg>
