<svg width="245" height="173" viewBox="0 0 245 173" fill="none" xmlns="http://www.w3.org/2000/svg">
<path d="M20 27.7L27.7 20L31 23.3L23.3 31L20 27.7Z" stroke="#275B81" stroke-width="2" stroke-linecap="round" stroke-linejoin="round"/>
<path d="M26 20.6875L24.4062 12.7188L9 9L12.7188 24.4062L20.6875 26L26 20.6875Z" stroke="#275B81" stroke-width="2" stroke-linecap="round" stroke-linejoin="round"/>
<path d="M9 9L17 17" stroke="#275B81" stroke-width="2" stroke-linecap="round" stroke-linejoin="round"/>
<path d="M18.5 21C19.8807 21 21 19.8807 21 18.5C21 17.1193 19.8807 16 18.5 16C17.1193 16 16 17.1193 16 18.5C16 19.8807 17.1193 21 18.5 21Z" stroke="#275B81" stroke-width="2" stroke-linecap="round" stroke-linejoin="round"/>
<path d="M53.232 9.008C56.352 9.008 58.688 9.72 60.24 11.144C61.792 12.552 62.568 14.608 62.568 17.312C62.568 19.056 62.184 20.584 61.416 21.896C60.664 23.192 59.568 24.2 58.128 24.92C56.704 25.64 55 26 53.016 26L51.528 25.976C50.6 25.944 49.928 25.928 49.512 25.928C47.864 25.928 46.632 25.952 45.816 26V25.52C46.344 25.488 46.728 25.424 46.968 25.328C47.224 25.232 47.392 25.048 47.472 24.776C47.568 24.504 47.616 24.064 47.616 23.456V11.552C47.616 10.944 47.568 10.504 47.472 10.232C47.392 9.96 47.224 9.776 46.968 9.68C46.728 9.584 46.344 9.52 45.816 9.488V9.008C46.488 9.056 47.456 9.08 48.72 9.08H49.464L50.424 9.056C51.736 9.024 52.672 9.008 53.232 9.008ZM53.208 9.44C52.712 9.44 52.336 9.496 52.08 9.608C51.84 9.72 51.672 9.92 51.576 10.208C51.48 10.496 51.432 10.928 51.432 11.504V23.504C51.432 24.08 51.48 24.512 51.576 24.8C51.672 25.088 51.84 25.288 52.08 25.4C52.336 25.512 52.72 25.568 53.232 25.568C55.168 25.568 56.544 24.896 57.36 23.552C58.176 22.192 58.584 20.144 58.584 17.408C58.584 14.672 58.16 12.664 57.312 11.384C56.48 10.088 55.112 9.44 53.208 9.44ZM71.2648 24.368C72.5768 24.368 73.6328 23.728 74.4328 22.448L74.8648 22.592C74.5448 23.632 73.9688 24.52 73.1368 25.256C72.3208 25.976 71.2968 26.336 70.0648 26.336C68.3688 26.336 67.0168 25.8 66.0088 24.728C65.0168 23.64 64.5208 22.04 64.5208 19.928C64.5208 17.768 65.0568 16.12 66.1288 14.984C67.2008 13.832 68.6248 13.256 70.4008 13.256C73.4088 13.256 74.9128 15.032 74.9128 18.584H68.1688C68.1528 18.824 68.1448 19.2 68.1448 19.712C68.1448 20.768 68.2888 21.648 68.5768 22.352C68.8808 23.056 69.2648 23.568 69.7288 23.888C70.2088 24.208 70.7208 24.368 71.2648 24.368ZM70.2568 13.76C69.6808 13.76 69.2008 14.12 68.8168 14.84C68.4488 15.544 68.2168 16.64 68.1208 18.128H71.8888C71.9208 16.864 71.7928 15.824 71.5048 15.008C71.2328 14.176 70.8168 13.76 70.2568 13.76ZM81.0546 13.256C81.6626 13.256 82.2226 13.336 82.7346 13.496C83.2466 13.64 83.6386 13.808 83.9106 14C84.0706 14.112 84.2146 14.168 84.3426 14.168C84.4866 14.168 84.6066 14.096 84.7026 13.952C84.8146 13.792 84.8866 13.568 84.9186 13.28H85.4226C85.3586 14.096 85.3266 15.504 85.3266 17.504H84.8226C84.6786 16.448 84.3586 15.568 83.8626 14.864C83.3826 14.144 82.6786 13.784 81.7506 13.784C81.2706 13.784 80.8706 13.92 80.5506 14.192C80.2466 14.464 80.0946 14.84 80.0946 15.32C80.0946 15.864 80.2786 16.336 80.6466 16.736C81.0146 17.12 81.5906 17.592 82.3746 18.152L83.0706 18.656C84.0466 19.392 84.7666 20.048 85.2306 20.624C85.6946 21.2 85.9266 21.92 85.9266 22.784C85.9266 23.488 85.7186 24.112 85.3026 24.656C84.9026 25.2 84.3586 25.616 83.6706 25.904C82.9826 26.192 82.2226 26.336 81.3906 26.336C80.5106 26.336 79.7586 26.168 79.1346 25.832C78.6226 25.576 78.2546 25.408 78.0306 25.328C77.8706 25.28 77.7266 25.336 77.5986 25.496C77.4866 25.64 77.3986 25.864 77.3346 26.168H76.8306C76.8946 25.256 76.9266 23.656 76.9266 21.368H77.4306C77.7506 24.312 78.8306 25.784 80.6706 25.784C81.1346 25.784 81.5266 25.648 81.8466 25.376C82.1826 25.088 82.3506 24.656 82.3506 24.08C82.3506 23.632 82.2466 23.232 82.0386 22.88C81.8466 22.528 81.5986 22.216 81.2946 21.944C80.9906 21.672 80.5346 21.296 79.9266 20.816C79.2066 20.24 78.6546 19.776 78.2706 19.424C77.9026 19.072 77.5826 18.656 77.3106 18.176C77.0546 17.696 76.9266 17.16 76.9266 16.568C76.9266 15.544 77.3266 14.736 78.1266 14.144C78.9266 13.552 79.9026 13.256 81.0546 13.256ZM90.5085 7.4C91.1805 7.4 91.7085 7.568 92.0925 7.904C92.4925 8.224 92.6925 8.672 92.6925 9.248C92.6925 9.824 92.4925 10.28 92.0925 10.616C91.7085 10.936 91.1805 11.096 90.5085 11.096C89.8365 11.096 89.3005 10.936 88.9005 10.616C88.5165 10.28 88.3245 9.824 88.3245 9.248C88.3245 8.672 88.5165 8.224 88.9005 7.904C89.3005 7.568 89.8365 7.4 90.5085 7.4ZM92.3805 23.768C92.3805 24.424 92.4925 24.88 92.7165 25.136C92.9565 25.376 93.3565 25.496 93.9165 25.496V26C92.3165 25.936 91.2525 25.904 90.7245 25.904C90.2285 25.904 89.1165 25.936 87.3885 26V25.496C87.9645 25.496 88.3645 25.376 88.5885 25.136C88.8125 24.88 88.9245 24.424 88.9245 23.768V16.208C88.9245 15.472 88.8125 14.936 88.5885 14.6C88.3645 14.264 87.9645 14.096 87.3885 14.096V13.592C87.9005 13.64 88.3965 13.664 88.8765 13.664C90.3005 13.664 91.4685 13.552 92.3805 13.328V23.768ZM106.335 15.896C106.015 15.896 105.743 15.792 105.519 15.584C105.295 15.36 105.183 15.048 105.183 14.648C105.183 14.264 105.279 13.872 105.471 13.472C105.087 13.632 104.767 13.816 104.511 14.024C104.271 14.216 104.063 14.464 103.887 14.768C104.383 15.36 104.631 16.128 104.631 17.072C104.631 18.336 104.191 19.288 103.311 19.928C102.447 20.568 101.295 20.888 99.8548 20.888H99.4228C98.7668 21.272 98.4388 21.696 98.4388 22.16C98.4388 22.672 98.7588 22.928 99.3988 22.928H102.015C103.423 22.928 104.543 23.192 105.375 23.72C106.223 24.232 106.647 25.024 106.647 26.096C106.647 26.912 106.383 27.648 105.855 28.304C105.343 28.976 104.559 29.512 103.503 29.912C102.447 30.312 101.151 30.512 99.6148 30.512C98.0628 30.512 96.8148 30.312 95.8708 29.912C94.9428 29.528 94.4788 28.968 94.4788 28.232C94.4788 27.736 94.7028 27.288 95.1508 26.888C95.5988 26.504 96.2628 26.2 97.1428 25.976L97.3588 26.36C96.7828 26.84 96.4948 27.392 96.4948 28.016C96.4948 28.688 96.7988 29.2 97.4068 29.552C98.0148 29.92 98.8548 30.104 99.9268 30.104C101.047 30.104 101.951 29.88 102.639 29.432C103.343 28.984 103.695 28.352 103.695 27.536C103.695 27.008 103.495 26.592 103.095 26.288C102.711 25.984 102.031 25.832 101.055 25.832H99.5668C98.5428 25.832 97.7428 25.664 97.1668 25.328C96.5908 24.976 96.3028 24.448 96.3028 23.744C96.3028 23.152 96.5108 22.624 96.9268 22.16C97.3428 21.696 97.9748 21.248 98.8228 20.816C97.6708 20.672 96.7588 20.288 96.0868 19.664C95.4148 19.04 95.0788 18.176 95.0788 17.072C95.0788 15.808 95.5108 14.856 96.3748 14.216C97.2548 13.576 98.4148 13.256 99.8548 13.256C101.455 13.256 102.679 13.632 103.527 14.384C103.831 13.952 104.207 13.608 104.655 13.352C105.103 13.096 105.559 12.968 106.023 12.968C106.503 12.968 106.879 13.112 107.151 13.4C107.439 13.672 107.583 14.032 107.583 14.48C107.583 14.928 107.455 15.28 107.199 15.536C106.959 15.776 106.671 15.896 106.335 15.896ZM99.8548 20.456C100.303 20.456 100.639 20.2 100.863 19.688C101.103 19.176 101.223 18.304 101.223 17.072C101.223 15.84 101.103 14.968 100.863 14.456C100.639 13.944 100.303 13.688 99.8548 13.688C99.4068 13.688 99.0628 13.944 98.8228 14.456C98.5988 14.968 98.4868 15.84 98.4868 17.072C98.4868 18.304 98.5988 19.176 98.8228 19.688C99.0628 20.2 99.4068 20.456 99.8548 20.456ZM117.152 13.256C118.368 13.256 119.248 13.568 119.792 14.192C120.064 14.496 120.256 14.888 120.368 15.368C120.48 15.848 120.536 16.496 120.536 17.312V23.768C120.536 24.424 120.648 24.88 120.872 25.136C121.112 25.376 121.512 25.496 122.072 25.496V26C120.472 25.936 119.416 25.904 118.904 25.904C118.424 25.904 117.384 25.936 115.784 26V25.496C116.264 25.496 116.6 25.376 116.792 25.136C116.984 24.88 117.08 24.424 117.08 23.768V16.304C117.08 15.648 116.968 15.152 116.744 14.816C116.536 14.48 116.152 14.312 115.592 14.312C114.936 14.312 114.376 14.584 113.912 15.128C113.448 15.656 113.216 16.312 113.216 17.096V23.768C113.216 24.424 113.312 24.88 113.504 25.136C113.696 25.376 114.032 25.496 114.512 25.496V26C113.04 25.936 112.048 25.904 111.536 25.904C111.056 25.904 109.952 25.936 108.224 26V25.496C108.8 25.496 109.2 25.376 109.424 25.136C109.648 24.88 109.76 24.424 109.76 23.768V16.208C109.76 15.472 109.648 14.936 109.424 14.6C109.2 14.264 108.8 14.096 108.224 14.096V13.592C108.736 13.64 109.232 13.664 109.712 13.664C111.136 13.664 112.304 13.552 113.216 13.328V15.488C113.936 14 115.248 13.256 117.152 13.256Z" fill="#275B81"/>
<path d="M51.174 59.614C51.672 59.614 52.101 59.557 52.461 59.443C52.821 59.329 53.115 59.17 53.343 58.966C53.577 58.756 53.748 58.51 53.856 58.228C53.964 57.94 54.018 57.625 54.018 57.283C54.018 56.617 53.781 56.092 53.307 55.708C52.833 55.318 52.122 55.123 51.174 55.123H48.384V59.614H51.174ZM48.384 49.48V53.881H50.688C51.18 53.881 51.606 53.827 51.966 53.719C52.332 53.611 52.632 53.461 52.866 53.269C53.106 53.077 53.283 52.846 53.397 52.576C53.511 52.3 53.568 52 53.568 51.676C53.568 50.914 53.34 50.359 52.884 50.011C52.428 49.657 51.72 49.48 50.76 49.48H48.384ZM50.76 48.103C51.552 48.103 52.233 48.181 52.803 48.337C53.379 48.493 53.85 48.715 54.216 49.003C54.588 49.291 54.861 49.645 55.035 50.065C55.209 50.479 55.296 50.947 55.296 51.469C55.296 51.787 55.245 52.093 55.143 52.387C55.047 52.675 54.9 52.945 54.702 53.197C54.504 53.449 54.252 53.677 53.946 53.881C53.646 54.079 53.292 54.241 52.884 54.367C53.832 54.547 54.543 54.886 55.017 55.384C55.497 55.876 55.737 56.524 55.737 57.328C55.737 57.874 55.635 58.372 55.431 58.822C55.233 59.272 54.939 59.659 54.549 59.983C54.165 60.307 53.691 60.559 53.127 60.739C52.563 60.913 51.921 61 51.201 61H46.647V48.103H50.76ZM59.2334 53.71C59.5214 53.086 59.8754 52.6 60.2954 52.252C60.7154 51.898 61.2284 51.721 61.8344 51.721C62.0264 51.721 62.2094 51.742 62.3834 51.784C62.5634 51.826 62.7224 51.892 62.8604 51.982L62.7434 53.179C62.7074 53.329 62.6174 53.404 62.4734 53.404C62.3894 53.404 62.2664 53.386 62.1044 53.35C61.9424 53.314 61.7594 53.296 61.5554 53.296C61.2674 53.296 61.0094 53.338 60.7814 53.422C60.5594 53.506 60.3584 53.632 60.1784 53.8C60.0044 53.962 59.8454 54.166 59.7014 54.412C59.5634 54.652 59.4374 54.928 59.3234 55.24V61H57.7124V51.883H58.6304C58.8044 51.883 58.9244 51.916 58.9904 51.982C59.0564 52.048 59.1014 52.162 59.1254 52.324L59.2334 53.71ZM69.0694 56.896C68.3314 56.92 67.7014 56.98 67.1794 57.076C66.6634 57.166 66.2404 57.286 65.9104 57.436C65.5864 57.586 65.3494 57.763 65.1994 57.967C65.0554 58.171 64.9834 58.399 64.9834 58.651C64.9834 58.891 65.0224 59.098 65.1004 59.272C65.1784 59.446 65.2834 59.59 65.4154 59.704C65.5534 59.812 65.7124 59.893 65.8924 59.947C66.0784 59.995 66.2764 60.019 66.4864 60.019C66.7684 60.019 67.0264 59.992 67.2604 59.938C67.4944 59.878 67.7134 59.794 67.9174 59.686C68.1274 59.578 68.3254 59.449 68.5114 59.299C68.7034 59.149 68.8894 58.978 69.0694 58.786V56.896ZM63.8944 53.17C64.3984 52.684 64.9414 52.321 65.5234 52.081C66.1054 51.841 66.7504 51.721 67.4584 51.721C67.9684 51.721 68.4214 51.805 68.8174 51.973C69.2134 52.141 69.5464 52.375 69.8164 52.675C70.0864 52.975 70.2904 53.338 70.4284 53.764C70.5664 54.19 70.6354 54.658 70.6354 55.168V61H69.9244C69.7684 61 69.6484 60.976 69.5644 60.928C69.4804 60.874 69.4144 60.772 69.3664 60.622L69.1864 59.758C68.9464 59.98 68.7124 60.178 68.4844 60.352C68.2564 60.52 68.0164 60.664 67.7644 60.784C67.5124 60.898 67.2424 60.985 66.9544 61.045C66.6724 61.111 66.3574 61.144 66.0094 61.144C65.6554 61.144 65.3224 61.096 65.0104 61C64.6984 60.898 64.4254 60.748 64.1914 60.55C63.9634 60.352 63.7804 60.103 63.6424 59.803C63.5104 59.497 63.4444 59.137 63.4444 58.723C63.4444 58.363 63.5434 58.018 63.7414 57.688C63.9394 57.352 64.2604 57.055 64.7044 56.797C65.1484 56.539 65.7274 56.329 66.4414 56.167C67.1554 55.999 68.0314 55.903 69.0694 55.879V55.168C69.0694 54.46 68.9164 53.926 68.6104 53.566C68.3044 53.2 67.8574 53.017 67.2694 53.017C66.8734 53.017 66.5404 53.068 66.2704 53.17C66.0064 53.266 65.7754 53.377 65.5774 53.503C65.3854 53.623 65.2174 53.734 65.0734 53.836C64.9354 53.932 64.7974 53.98 64.6594 53.98C64.5514 53.98 64.4584 53.953 64.3804 53.899C64.3024 53.839 64.2364 53.767 64.1824 53.683L63.8944 53.17ZM74.7676 51.883V61H73.1656V51.883H74.7676ZM75.1096 49.021C75.1096 49.177 75.0766 49.324 75.0106 49.462C74.9506 49.594 74.8666 49.714 74.7586 49.822C74.6566 49.924 74.5336 50.005 74.3896 50.065C74.2516 50.125 74.1046 50.155 73.9486 50.155C73.7926 50.155 73.6456 50.125 73.5076 50.065C73.3756 50.005 73.2586 49.924 73.1566 49.822C73.0546 49.714 72.9736 49.594 72.9136 49.462C72.8536 49.324 72.8236 49.177 72.8236 49.021C72.8236 48.865 72.8536 48.718 72.9136 48.58C72.9736 48.436 73.0546 48.313 73.1566 48.211C73.2586 48.103 73.3756 48.019 73.5076 47.959C73.6456 47.899 73.7926 47.869 73.9486 47.869C74.1046 47.869 74.2516 47.899 74.3896 47.959C74.5336 48.019 74.6566 48.103 74.7586 48.211C74.8666 48.313 74.9506 48.436 75.0106 48.58C75.0766 48.718 75.1096 48.865 75.1096 49.021ZM78.9119 53.206C79.1099 52.984 79.3199 52.783 79.5419 52.603C79.7639 52.423 79.9979 52.27 80.2439 52.144C80.4959 52.012 80.7599 51.913 81.0359 51.847C81.3179 51.775 81.6209 51.739 81.9449 51.739C82.4429 51.739 82.8809 51.823 83.2589 51.991C83.6429 52.153 83.9609 52.387 84.2129 52.693C84.4709 52.993 84.6659 53.356 84.7979 53.782C84.9299 54.208 84.9959 54.679 84.9959 55.195V61H83.3849V55.195C83.3849 54.505 83.2259 53.971 82.9079 53.593C82.5959 53.209 82.1189 53.017 81.4769 53.017C81.0029 53.017 80.5589 53.131 80.1449 53.359C79.7369 53.587 79.3589 53.896 79.0109 54.286V61H77.3999V51.883H78.3629C78.5909 51.883 78.7319 51.994 78.7859 52.216L78.9119 53.206ZM92.747 53.386C92.675 53.518 92.564 53.584 92.414 53.584C92.324 53.584 92.222 53.551 92.108 53.485C91.994 53.419 91.853 53.347 91.685 53.269C91.523 53.185 91.328 53.11 91.1 53.044C90.872 52.972 90.602 52.936 90.29 52.936C90.02 52.936 89.777 52.972 89.561 53.044C89.345 53.11 89.159 53.203 89.003 53.323C88.853 53.443 88.736 53.584 88.652 53.746C88.574 53.902 88.535 54.073 88.535 54.259C88.535 54.493 88.601 54.688 88.733 54.844C88.871 55 89.051 55.135 89.273 55.249C89.495 55.363 89.747 55.465 90.029 55.555C90.311 55.639 90.599 55.732 90.893 55.834C91.193 55.93 91.484 56.038 91.766 56.158C92.048 56.278 92.3 56.428 92.522 56.608C92.744 56.788 92.921 57.01 93.053 57.274C93.191 57.532 93.26 57.844 93.26 58.21C93.26 58.63 93.185 59.02 93.035 59.38C92.885 59.734 92.663 60.043 92.369 60.307C92.075 60.565 91.715 60.769 91.289 60.919C90.863 61.069 90.371 61.144 89.813 61.144C89.177 61.144 88.601 61.042 88.085 60.838C87.569 60.628 87.131 60.361 86.771 60.037L87.149 59.425C87.197 59.347 87.254 59.287 87.32 59.245C87.386 59.203 87.47 59.182 87.572 59.182C87.68 59.182 87.794 59.224 87.914 59.308C88.034 59.392 88.178 59.485 88.346 59.587C88.52 59.689 88.73 59.782 88.976 59.866C89.222 59.95 89.528 59.992 89.894 59.992C90.206 59.992 90.479 59.953 90.713 59.875C90.947 59.791 91.142 59.68 91.298 59.542C91.454 59.404 91.568 59.245 91.64 59.065C91.718 58.885 91.757 58.693 91.757 58.489C91.757 58.237 91.688 58.03 91.55 57.868C91.418 57.7 91.241 57.559 91.019 57.445C90.797 57.325 90.542 57.223 90.254 57.139C89.972 57.049 89.681 56.956 89.381 56.86C89.087 56.764 88.796 56.656 88.508 56.536C88.226 56.41 87.974 56.254 87.752 56.068C87.53 55.882 87.35 55.654 87.212 55.384C87.08 55.108 87.014 54.775 87.014 54.385C87.014 54.037 87.086 53.704 87.23 53.386C87.374 53.062 87.584 52.78 87.86 52.54C88.136 52.294 88.475 52.099 88.877 51.955C89.279 51.811 89.738 51.739 90.254 51.739C90.854 51.739 91.391 51.835 91.865 52.027C92.345 52.213 92.759 52.471 93.107 52.801L92.747 53.386ZM98.0231 61.144C97.3031 61.144 96.7481 60.943 96.3581 60.541C95.9741 60.139 95.7821 59.56 95.7821 58.804V53.224H94.6841C94.5881 53.224 94.5071 53.197 94.4411 53.143C94.3751 53.083 94.3421 52.993 94.3421 52.873V52.234L95.8361 52.045L96.2051 49.228C96.2231 49.138 96.2621 49.066 96.3221 49.012C96.3881 48.952 96.4721 48.922 96.5741 48.922H97.3841V52.063H100.021V53.224H97.3841V58.696C97.3841 59.08 97.4771 59.365 97.6631 59.551C97.8491 59.737 98.0891 59.83 98.3831 59.83C98.5511 59.83 98.6951 59.809 98.8151 59.767C98.9411 59.719 99.0491 59.668 99.1391 59.614C99.2291 59.56 99.3041 59.512 99.3641 59.47C99.4301 59.422 99.4871 59.398 99.5351 59.398C99.6191 59.398 99.6941 59.449 99.7601 59.551L100.228 60.316C99.9521 60.574 99.6191 60.778 99.2291 60.928C98.8391 61.072 98.4371 61.144 98.0231 61.144ZM105.466 51.739C106.132 51.739 106.732 51.85 107.266 52.072C107.8 52.294 108.256 52.609 108.634 53.017C109.012 53.425 109.3 53.92 109.498 54.502C109.702 55.078 109.804 55.723 109.804 56.437C109.804 57.157 109.702 57.805 109.498 58.381C109.3 58.957 109.012 59.449 108.634 59.857C108.256 60.265 107.8 60.58 107.266 60.802C106.732 61.018 106.132 61.126 105.466 61.126C104.794 61.126 104.188 61.018 103.648 60.802C103.114 60.58 102.658 60.265 102.28 59.857C101.902 59.449 101.611 58.957 101.407 58.381C101.209 57.805 101.11 57.157 101.11 56.437C101.11 55.723 101.209 55.078 101.407 54.502C101.611 53.92 101.902 53.425 102.28 53.017C102.658 52.609 103.114 52.294 103.648 52.072C104.188 51.85 104.794 51.739 105.466 51.739ZM105.466 59.875C106.366 59.875 107.038 59.575 107.482 58.975C107.926 58.369 108.148 57.526 108.148 56.446C108.148 55.36 107.926 54.514 107.482 53.908C107.038 53.302 106.366 52.999 105.466 52.999C105.01 52.999 104.611 53.077 104.269 53.233C103.933 53.389 103.651 53.614 103.423 53.908C103.201 54.202 103.033 54.565 102.919 54.997C102.811 55.423 102.757 55.906 102.757 56.446C102.757 57.526 102.979 58.369 103.423 58.975C103.873 59.575 104.554 59.875 105.466 59.875ZM113.356 53.71C113.644 53.086 113.998 52.6 114.418 52.252C114.838 51.898 115.351 51.721 115.957 51.721C116.149 51.721 116.332 51.742 116.506 51.784C116.686 51.826 116.845 51.892 116.983 51.982L116.866 53.179C116.83 53.329 116.74 53.404 116.596 53.404C116.512 53.404 116.389 53.386 116.227 53.35C116.065 53.314 115.882 53.296 115.678 53.296C115.39 53.296 115.132 53.338 114.904 53.422C114.682 53.506 114.481 53.632 114.301 53.8C114.127 53.962 113.968 54.166 113.824 54.412C113.686 54.652 113.56 54.928 113.446 55.24V61H111.835V51.883H112.753C112.927 51.883 113.047 51.916 113.113 51.982C113.179 52.048 113.224 52.162 113.248 52.324L113.356 53.71ZM118.392 61V51.883H119.355C119.583 51.883 119.724 51.994 119.778 52.216L119.895 53.152C120.231 52.738 120.609 52.399 121.029 52.135C121.449 51.871 121.935 51.739 122.487 51.739C123.099 51.739 123.594 51.91 123.972 52.252C124.356 52.594 124.632 53.056 124.8 53.638C124.932 53.308 125.1 53.023 125.304 52.783C125.514 52.543 125.748 52.345 126.006 52.189C126.264 52.033 126.537 51.919 126.825 51.847C127.119 51.775 127.416 51.739 127.716 51.739C128.196 51.739 128.622 51.817 128.994 51.973C129.372 52.123 129.69 52.345 129.948 52.639C130.212 52.933 130.413 53.296 130.551 53.728C130.689 54.154 130.758 54.643 130.758 55.195V61H129.147V55.195C129.147 54.481 128.991 53.941 128.679 53.575C128.367 53.203 127.917 53.017 127.329 53.017C127.065 53.017 126.813 53.065 126.573 53.161C126.339 53.251 126.132 53.386 125.952 53.566C125.772 53.746 125.628 53.974 125.52 54.25C125.418 54.52 125.367 54.835 125.367 55.195V61H123.756V55.195C123.756 54.463 123.609 53.917 123.315 53.557C123.021 53.197 122.592 53.017 122.028 53.017C121.632 53.017 121.266 53.125 120.93 53.341C120.594 53.551 120.285 53.839 120.003 54.205V61H118.392ZM134.885 51.883V61H133.283V51.883H134.885ZM135.227 49.021C135.227 49.177 135.194 49.324 135.128 49.462C135.068 49.594 134.984 49.714 134.876 49.822C134.774 49.924 134.651 50.005 134.507 50.065C134.369 50.125 134.222 50.155 134.066 50.155C133.91 50.155 133.763 50.125 133.625 50.065C133.493 50.005 133.376 49.924 133.274 49.822C133.172 49.714 133.091 49.594 133.031 49.462C132.971 49.324 132.941 49.177 132.941 49.021C132.941 48.865 132.971 48.718 133.031 48.58C133.091 48.436 133.172 48.313 133.274 48.211C133.376 48.103 133.493 48.019 133.625 47.959C133.763 47.899 133.91 47.869 134.066 47.869C134.222 47.869 134.369 47.899 134.507 47.959C134.651 48.019 134.774 48.103 134.876 48.211C134.984 48.313 135.068 48.436 135.128 48.58C135.194 48.718 135.227 48.865 135.227 49.021ZM139.029 53.206C139.227 52.984 139.437 52.783 139.659 52.603C139.881 52.423 140.115 52.27 140.361 52.144C140.613 52.012 140.877 51.913 141.153 51.847C141.435 51.775 141.738 51.739 142.062 51.739C142.56 51.739 142.998 51.823 143.376 51.991C143.76 52.153 144.078 52.387 144.33 52.693C144.588 52.993 144.783 53.356 144.915 53.782C145.047 54.208 145.113 54.679 145.113 55.195V61H143.502V55.195C143.502 54.505 143.343 53.971 143.025 53.593C142.713 53.209 142.236 53.017 141.594 53.017C141.12 53.017 140.676 53.131 140.262 53.359C139.854 53.587 139.476 53.896 139.128 54.286V61H137.517V51.883H138.48C138.708 51.883 138.849 51.994 138.903 52.216L139.029 53.206ZM150.731 56.545C151.055 56.545 151.34 56.5 151.586 56.41C151.832 56.32 152.039 56.194 152.207 56.032C152.375 55.87 152.501 55.678 152.585 55.456C152.669 55.228 152.711 54.979 152.711 54.709C152.711 54.151 152.54 53.707 152.198 53.377C151.862 53.047 151.373 52.882 150.731 52.882C150.083 52.882 149.588 53.047 149.246 53.377C148.91 53.707 148.742 54.151 148.742 54.709C148.742 54.979 148.784 55.228 148.868 55.456C148.958 55.678 149.087 55.87 149.255 56.032C149.423 56.194 149.63 56.32 149.876 56.41C150.122 56.5 150.407 56.545 150.731 56.545ZM153.62 61.495C153.62 61.273 153.557 61.093 153.431 60.955C153.305 60.817 153.134 60.709 152.918 60.631C152.708 60.553 152.462 60.499 152.18 60.469C151.898 60.433 151.598 60.406 151.28 60.388C150.968 60.37 150.65 60.352 150.326 60.334C150.002 60.316 149.69 60.286 149.39 60.244C149.054 60.4 148.778 60.598 148.562 60.838C148.352 61.072 148.247 61.348 148.247 61.666C148.247 61.87 148.298 62.059 148.4 62.233C148.508 62.413 148.67 62.566 148.886 62.692C149.102 62.824 149.372 62.926 149.696 62.998C150.026 63.076 150.413 63.115 150.857 63.115C151.289 63.115 151.676 63.076 152.018 62.998C152.36 62.92 152.648 62.809 152.882 62.665C153.122 62.521 153.305 62.35 153.431 62.152C153.557 61.954 153.62 61.735 153.62 61.495ZM155.249 52.243V52.837C155.249 53.035 155.123 53.161 154.871 53.215L153.836 53.35C154.04 53.746 154.142 54.184 154.142 54.664C154.142 55.108 154.055 55.513 153.881 55.879C153.713 56.239 153.479 56.548 153.179 56.806C152.879 57.064 152.519 57.262 152.099 57.4C151.679 57.538 151.223 57.607 150.731 57.607C150.305 57.607 149.903 57.556 149.525 57.454C149.333 57.574 149.186 57.703 149.084 57.841C148.982 57.973 148.931 58.108 148.931 58.246C148.931 58.462 149.018 58.627 149.192 58.741C149.372 58.849 149.606 58.927 149.894 58.975C150.182 59.023 150.509 59.053 150.875 59.065C151.247 59.077 151.625 59.098 152.009 59.128C152.399 59.152 152.777 59.197 153.143 59.263C153.515 59.329 153.845 59.437 154.133 59.587C154.421 59.737 154.652 59.944 154.826 60.208C155.006 60.472 155.096 60.814 155.096 61.234C155.096 61.624 154.997 62.002 154.799 62.368C154.607 62.734 154.328 63.058 153.962 63.34C153.596 63.628 153.146 63.856 152.612 64.024C152.084 64.198 151.487 64.285 150.821 64.285C150.155 64.285 149.573 64.219 149.075 64.087C148.577 63.955 148.163 63.778 147.833 63.556C147.503 63.334 147.254 63.076 147.086 62.782C146.924 62.494 146.843 62.191 146.843 61.873C146.843 61.423 146.984 61.042 147.266 60.73C147.548 60.418 147.935 60.169 148.427 59.983C148.157 59.863 147.941 59.704 147.779 59.506C147.623 59.302 147.545 59.029 147.545 58.687C147.545 58.555 147.569 58.42 147.617 58.282C147.665 58.138 147.737 57.997 147.833 57.859C147.935 57.715 148.058 57.58 148.202 57.454C148.346 57.328 148.514 57.217 148.706 57.121C148.256 56.869 147.905 56.536 147.653 56.122C147.401 55.702 147.275 55.216 147.275 54.664C147.275 54.22 147.359 53.818 147.527 53.458C147.701 53.092 147.941 52.783 148.247 52.531C148.553 52.273 148.916 52.075 149.336 51.937C149.762 51.799 150.227 51.73 150.731 51.73C151.127 51.73 151.496 51.775 151.838 51.865C152.18 51.949 152.492 52.075 152.774 52.243H155.249ZM55.368 83.57H51.192V95H49.455V83.57H45.27V82.103H55.368V83.57ZM59.7881 90.896C59.0501 90.92 58.4201 90.98 57.8981 91.076C57.3821 91.166 56.9591 91.286 56.6291 91.436C56.3051 91.586 56.0681 91.763 55.9181 91.967C55.7741 92.171 55.7021 92.399 55.7021 92.651C55.7021 92.891 55.7411 93.098 55.8191 93.272C55.8971 93.446 56.0021 93.59 56.1341 93.704C56.2721 93.812 56.4311 93.893 56.6111 93.947C56.7971 93.995 56.9951 94.019 57.2051 94.019C57.4871 94.019 57.7451 93.992 57.9791 93.938C58.2131 93.878 58.4321 93.794 58.6361 93.686C58.8461 93.578 59.0441 93.449 59.2301 93.299C59.4221 93.149 59.6081 92.978 59.7881 92.786V90.896ZM54.6131 87.17C55.1171 86.684 55.6601 86.321 56.2421 86.081C56.8241 85.841 57.4691 85.721 58.1771 85.721C58.6871 85.721 59.1401 85.805 59.5361 85.973C59.9321 86.141 60.2651 86.375 60.5351 86.675C60.8051 86.975 61.0091 87.338 61.1471 87.764C61.2851 88.19 61.3541 88.658 61.3541 89.168V95H60.6431C60.4871 95 60.3671 94.976 60.2831 94.928C60.1991 94.874 60.1331 94.772 60.0851 94.622L59.9051 93.758C59.6651 93.98 59.4311 94.178 59.2031 94.352C58.9751 94.52 58.7351 94.664 58.4831 94.784C58.2311 94.898 57.9611 94.985 57.6731 95.045C57.3911 95.111 57.0761 95.144 56.7281 95.144C56.3741 95.144 56.0411 95.096 55.7291 95C55.4171 94.898 55.1441 94.748 54.9101 94.55C54.6821 94.352 54.4991 94.103 54.3611 93.803C54.2291 93.497 54.1631 93.137 54.1631 92.723C54.1631 92.363 54.2621 92.018 54.4601 91.688C54.6581 91.352 54.9791 91.055 55.4231 90.797C55.8671 90.539 56.4461 90.329 57.1601 90.167C57.8741 89.999 58.7501 89.903 59.7881 89.879V89.168C59.7881 88.46 59.6351 87.926 59.3291 87.566C59.0231 87.2 58.5761 87.017 57.9881 87.017C57.5921 87.017 57.2591 87.068 56.9891 87.17C56.7251 87.266 56.4941 87.377 56.2961 87.503C56.1041 87.623 55.9361 87.734 55.7921 87.836C55.6541 87.932 55.5161 87.98 55.3781 87.98C55.2701 87.98 55.1771 87.953 55.0991 87.899C55.0211 87.839 54.9551 87.767 54.9011 87.683L54.6131 87.17ZM69.1044 87.386C69.0324 87.518 68.9214 87.584 68.7714 87.584C68.6814 87.584 68.5794 87.551 68.4654 87.485C68.3514 87.419 68.2104 87.347 68.0424 87.269C67.8804 87.185 67.6854 87.11 67.4574 87.044C67.2294 86.972 66.9594 86.936 66.6474 86.936C66.3774 86.936 66.1344 86.972 65.9184 87.044C65.7024 87.11 65.5164 87.203 65.3604 87.323C65.2104 87.443 65.0934 87.584 65.0094 87.746C64.9314 87.902 64.8924 88.073 64.8924 88.259C64.8924 88.493 64.9584 88.688 65.0904 88.844C65.2284 89 65.4084 89.135 65.6304 89.249C65.8524 89.363 66.1044 89.465 66.3864 89.555C66.6684 89.639 66.9564 89.732 67.2504 89.834C67.5504 89.93 67.8414 90.038 68.1234 90.158C68.4054 90.278 68.6574 90.428 68.8794 90.608C69.1014 90.788 69.2784 91.01 69.4104 91.274C69.5484 91.532 69.6174 91.844 69.6174 92.21C69.6174 92.63 69.5424 93.02 69.3924 93.38C69.2424 93.734 69.0204 94.043 68.7264 94.307C68.4324 94.565 68.0724 94.769 67.6464 94.919C67.2204 95.069 66.7284 95.144 66.1704 95.144C65.5344 95.144 64.9584 95.042 64.4424 94.838C63.9264 94.628 63.4884 94.361 63.1284 94.037L63.5064 93.425C63.5544 93.347 63.6114 93.287 63.6774 93.245C63.7434 93.203 63.8274 93.182 63.9294 93.182C64.0374 93.182 64.1514 93.224 64.2714 93.308C64.3914 93.392 64.5354 93.485 64.7034 93.587C64.8774 93.689 65.0874 93.782 65.3334 93.866C65.5794 93.95 65.8854 93.992 66.2514 93.992C66.5634 93.992 66.8364 93.953 67.0704 93.875C67.3044 93.791 67.4994 93.68 67.6554 93.542C67.8114 93.404 67.9254 93.245 67.9974 93.065C68.0754 92.885 68.1144 92.693 68.1144 92.489C68.1144 92.237 68.0454 92.03 67.9074 91.868C67.7754 91.7 67.5984 91.559 67.3764 91.445C67.1544 91.325 66.8994 91.223 66.6114 91.139C66.3294 91.049 66.0384 90.956 65.7384 90.86C65.4444 90.764 65.1534 90.656 64.8654 90.536C64.5834 90.41 64.3314 90.254 64.1094 90.068C63.8874 89.882 63.7074 89.654 63.5694 89.384C63.4374 89.108 63.3714 88.775 63.3714 88.385C63.3714 88.037 63.4434 87.704 63.5874 87.386C63.7314 87.062 63.9414 86.78 64.2174 86.54C64.4934 86.294 64.8324 86.099 65.2344 85.955C65.6364 85.811 66.0954 85.739 66.6114 85.739C67.2114 85.739 67.7484 85.835 68.2224 86.027C68.7024 86.213 69.1164 86.471 69.4644 86.801L69.1044 87.386ZM73.1925 81.743V89.546H73.6065C73.7265 89.546 73.8255 89.531 73.9035 89.501C73.9875 89.465 74.0745 89.396 74.1645 89.294L77.0445 86.207C77.1285 86.105 77.2155 86.027 77.3055 85.973C77.4015 85.913 77.5275 85.883 77.6835 85.883H79.1325L75.7755 89.456C75.6135 89.66 75.4395 89.819 75.2535 89.933C75.3615 90.005 75.4575 90.089 75.5415 90.185C75.6315 90.275 75.7155 90.38 75.7935 90.5L79.3575 95H77.9265C77.7885 95 77.6685 94.979 77.5665 94.937C77.4705 94.889 77.3865 94.805 77.3145 94.685L74.3175 90.95C74.2275 90.824 74.1375 90.743 74.0475 90.707C73.9635 90.665 73.8315 90.644 73.6515 90.644H73.1925V95H71.5815V81.743H73.1925ZM85.9396 95V87.251L84.9316 87.134C84.7996 87.104 84.6946 87.059 84.6166 86.999C84.5386 86.933 84.4996 86.84 84.4996 86.72V86.063H85.9396V85.577C85.9396 85.073 86.0146 84.596 86.1646 84.146C86.3206 83.69 86.5546 83.294 86.8666 82.958C87.1786 82.622 87.5686 82.355 88.0366 82.157C88.5046 81.959 89.0506 81.86 89.6746 81.86C90.1366 81.86 90.5806 81.878 91.0066 81.914C91.4386 81.95 91.8556 81.971 92.2576 81.977H93.3466V95H91.7536V83.102C91.4296 83.09 91.1026 83.075 90.7726 83.057C90.4486 83.039 90.1636 83.03 89.9176 83.03C89.1376 83.03 88.5376 83.255 88.1176 83.705C87.7036 84.149 87.4966 84.773 87.4966 85.577V86.063H89.8636V87.224H87.5416V95H85.9396ZM99.7878 85.739C100.454 85.739 101.054 85.85 101.588 86.072C102.122 86.294 102.578 86.609 102.956 87.017C103.334 87.425 103.622 87.92 103.82 88.502C104.024 89.078 104.126 89.723 104.126 90.437C104.126 91.157 104.024 91.805 103.82 92.381C103.622 92.957 103.334 93.449 102.956 93.857C102.578 94.265 102.122 94.58 101.588 94.802C101.054 95.018 100.454 95.126 99.7878 95.126C99.1158 95.126 98.5098 95.018 97.9698 94.802C97.4358 94.58 96.9798 94.265 96.6018 93.857C96.2238 93.449 95.9328 92.957 95.7288 92.381C95.5308 91.805 95.4318 91.157 95.4318 90.437C95.4318 89.723 95.5308 89.078 95.7288 88.502C95.9328 87.92 96.2238 87.425 96.6018 87.017C96.9798 86.609 97.4358 86.294 97.9698 86.072C98.5098 85.85 99.1158 85.739 99.7878 85.739ZM99.7878 93.875C100.688 93.875 101.36 93.575 101.804 92.975C102.248 92.369 102.47 91.526 102.47 90.446C102.47 89.36 102.248 88.514 101.804 87.908C101.36 87.302 100.688 86.999 99.7878 86.999C99.3318 86.999 98.9328 87.077 98.5908 87.233C98.2548 87.389 97.9728 87.614 97.7448 87.908C97.5228 88.202 97.3548 88.565 97.2408 88.997C97.1328 89.423 97.0788 89.906 97.0788 90.446C97.0788 91.526 97.3008 92.369 97.7448 92.975C98.1948 93.575 98.8758 93.875 99.7878 93.875ZM118.59 85.883L115.638 95H114.369C114.213 95 114.105 94.898 114.045 94.694L112.029 88.511C111.981 88.373 111.942 88.235 111.912 88.097C111.882 87.953 111.852 87.812 111.822 87.674C111.792 87.812 111.762 87.953 111.732 88.097C111.702 88.235 111.663 88.376 111.615 88.52L109.563 94.694C109.509 94.898 109.389 95 109.203 95H107.997L105.045 85.883H106.305C106.431 85.883 106.536 85.916 106.62 85.982C106.71 86.048 106.77 86.126 106.8 86.216L108.546 92.084C108.648 92.516 108.729 92.924 108.789 93.308C108.843 93.11 108.897 92.909 108.951 92.705C109.011 92.501 109.074 92.294 109.14 92.084L111.066 86.18C111.096 86.09 111.147 86.015 111.219 85.955C111.297 85.895 111.39 85.865 111.498 85.865H112.2C112.32 85.865 112.419 85.895 112.497 85.955C112.575 86.015 112.629 86.09 112.659 86.18L114.54 92.084C114.606 92.294 114.666 92.501 114.72 92.705C114.774 92.909 114.825 93.11 114.873 93.308C114.903 93.11 114.939 92.912 114.981 92.714C115.029 92.51 115.08 92.3 115.134 92.084L116.916 86.216C116.946 86.12 117.003 86.042 117.087 85.982C117.171 85.916 117.27 85.883 117.384 85.883H118.59ZM125.39 87.386C125.318 87.518 125.207 87.584 125.057 87.584C124.967 87.584 124.865 87.551 124.751 87.485C124.637 87.419 124.496 87.347 124.328 87.269C124.166 87.185 123.971 87.11 123.743 87.044C123.515 86.972 123.245 86.936 122.933 86.936C122.663 86.936 122.42 86.972 122.204 87.044C121.988 87.11 121.802 87.203 121.646 87.323C121.496 87.443 121.379 87.584 121.295 87.746C121.217 87.902 121.178 88.073 121.178 88.259C121.178 88.493 121.244 88.688 121.376 88.844C121.514 89 121.694 89.135 121.916 89.249C122.138 89.363 122.39 89.465 122.672 89.555C122.954 89.639 123.242 89.732 123.536 89.834C123.836 89.93 124.127 90.038 124.409 90.158C124.691 90.278 124.943 90.428 125.165 90.608C125.387 90.788 125.564 91.01 125.696 91.274C125.834 91.532 125.903 91.844 125.903 92.21C125.903 92.63 125.828 93.02 125.678 93.38C125.528 93.734 125.306 94.043 125.012 94.307C124.718 94.565 124.358 94.769 123.932 94.919C123.506 95.069 123.014 95.144 122.456 95.144C121.82 95.144 121.244 95.042 120.728 94.838C120.212 94.628 119.774 94.361 119.414 94.037L119.792 93.425C119.84 93.347 119.897 93.287 119.963 93.245C120.029 93.203 120.113 93.182 120.215 93.182C120.323 93.182 120.437 93.224 120.557 93.308C120.677 93.392 120.821 93.485 120.989 93.587C121.163 93.689 121.373 93.782 121.619 93.866C121.865 93.95 122.171 93.992 122.537 93.992C122.849 93.992 123.122 93.953 123.356 93.875C123.59 93.791 123.785 93.68 123.941 93.542C124.097 93.404 124.211 93.245 124.283 93.065C124.361 92.885 124.4 92.693 124.4 92.489C124.4 92.237 124.331 92.03 124.193 91.868C124.061 91.7 123.884 91.559 123.662 91.445C123.44 91.325 123.185 91.223 122.897 91.139C122.615 91.049 122.324 90.956 122.024 90.86C121.73 90.764 121.439 90.656 121.151 90.536C120.869 90.41 120.617 90.254 120.395 90.068C120.173 89.882 119.993 89.654 119.855 89.384C119.723 89.108 119.657 88.775 119.657 88.385C119.657 88.037 119.729 87.704 119.873 87.386C120.017 87.062 120.227 86.78 120.503 86.54C120.779 86.294 121.118 86.099 121.52 85.955C121.922 85.811 122.381 85.739 122.897 85.739C123.497 85.739 124.034 85.835 124.508 86.027C124.988 86.213 125.402 86.471 125.75 86.801L125.39 87.386ZM63.36 116.103L59.337 129H57.771L54.504 119.163C54.474 119.067 54.444 118.965 54.414 118.857C54.39 118.749 54.363 118.635 54.333 118.515C54.303 118.635 54.273 118.749 54.243 118.857C54.213 118.965 54.183 119.067 54.153 119.163L50.868 129H49.302L45.279 116.103H46.728C46.884 116.103 47.013 116.142 47.115 116.22C47.223 116.298 47.292 116.397 47.322 116.517L49.986 125.481C50.028 125.643 50.067 125.817 50.103 126.003C50.145 126.189 50.184 126.387 50.22 126.597C50.262 126.387 50.304 126.189 50.346 126.003C50.394 125.811 50.445 125.637 50.499 125.481L53.532 116.517C53.568 116.415 53.637 116.322 53.739 116.238C53.847 116.148 53.976 116.103 54.126 116.103H54.63C54.786 116.103 54.912 116.142 55.008 116.22C55.104 116.298 55.176 116.397 55.224 116.517L58.248 125.481C58.302 125.637 58.35 125.805 58.392 125.985C58.44 126.165 58.485 126.354 58.527 126.552C58.557 126.354 58.59 126.165 58.626 125.985C58.662 125.805 58.701 125.637 58.743 125.481L61.416 116.517C61.446 116.409 61.512 116.313 61.614 116.229C61.722 116.145 61.851 116.103 62.001 116.103H63.36ZM66.5235 119.883V129H64.9215V119.883H66.5235ZM66.8655 117.021C66.8655 117.177 66.8325 117.324 66.7665 117.462C66.7065 117.594 66.6225 117.714 66.5145 117.822C66.4125 117.924 66.2895 118.005 66.1455 118.065C66.0075 118.125 65.8605 118.155 65.7045 118.155C65.5485 118.155 65.4015 118.125 65.2635 118.065C65.1315 118.005 65.0145 117.924 64.9125 117.822C64.8105 117.714 64.7295 117.594 64.6695 117.462C64.6095 117.324 64.5795 117.177 64.5795 117.021C64.5795 116.865 64.6095 116.718 64.6695 116.58C64.7295 116.436 64.8105 116.313 64.9125 116.211C65.0145 116.103 65.1315 116.019 65.2635 115.959C65.4015 115.899 65.5485 115.869 65.7045 115.869C65.8605 115.869 66.0075 115.899 66.1455 115.959C66.2895 116.019 66.4125 116.103 66.5145 116.211C66.6225 116.313 66.7065 116.436 66.7665 116.58C66.8325 116.718 66.8655 116.865 66.8655 117.021ZM70.6767 121.71C70.9647 121.086 71.3187 120.6 71.7387 120.252C72.1587 119.898 72.6717 119.721 73.2777 119.721C73.4697 119.721 73.6527 119.742 73.8267 119.784C74.0067 119.826 74.1657 119.892 74.3037 119.982L74.1867 121.179C74.1507 121.329 74.0607 121.404 73.9167 121.404C73.8327 121.404 73.7097 121.386 73.5477 121.35C73.3857 121.314 73.2027 121.296 72.9987 121.296C72.7107 121.296 72.4527 121.338 72.2247 121.422C72.0027 121.506 71.8017 121.632 71.6217 121.8C71.4477 121.962 71.2887 122.166 71.1447 122.412C71.0067 122.652 70.8807 122.928 70.7667 123.24V129H69.1557V119.883H70.0737C70.2477 119.883 70.3677 119.916 70.4337 119.982C70.4997 120.048 70.5447 120.162 70.5687 120.324L70.6767 121.71ZM81.4452 123.447C81.4452 123.075 81.3912 122.736 81.2832 122.43C81.1812 122.118 81.0282 121.851 80.8242 121.629C80.6262 121.401 80.3832 121.227 80.0952 121.107C79.8072 120.981 79.4802 120.918 79.1142 120.918C78.3462 120.918 77.7372 121.143 77.2872 121.593C76.8432 122.037 76.5672 122.655 76.4592 123.447H81.4452ZM82.7412 127.722C82.5432 127.962 82.3062 128.172 82.0302 128.352C81.7542 128.526 81.4572 128.67 81.1392 128.784C80.8272 128.898 80.5032 128.982 80.1672 129.036C79.8312 129.096 79.4982 129.126 79.1682 129.126C78.5382 129.126 77.9562 129.021 77.4222 128.811C76.8942 128.595 76.4352 128.283 76.0452 127.875C75.6612 127.461 75.3612 126.951 75.1452 126.345C74.9292 125.739 74.8212 125.043 74.8212 124.257C74.8212 123.621 74.9172 123.027 75.1092 122.475C75.3072 121.923 75.5892 121.446 75.9552 121.044C76.3212 120.636 76.7682 120.318 77.2962 120.09C77.8242 119.856 78.4182 119.739 79.0782 119.739C79.6242 119.739 80.1282 119.832 80.5902 120.018C81.0582 120.198 81.4602 120.462 81.7962 120.81C82.1382 121.152 82.4052 121.578 82.5972 122.088C82.7892 122.592 82.8852 123.168 82.8852 123.816C82.8852 124.068 82.8582 124.236 82.8042 124.32C82.7502 124.404 82.6482 124.446 82.4982 124.446H76.4052C76.4232 125.022 76.5012 125.523 76.6392 125.949C76.7832 126.375 76.9812 126.732 77.2332 127.02C77.4852 127.302 77.7852 127.515 78.1332 127.659C78.4812 127.797 78.8712 127.866 79.3032 127.866C79.7052 127.866 80.0502 127.821 80.3382 127.731C80.6322 127.635 80.8842 127.533 81.0942 127.425C81.3042 127.317 81.4782 127.218 81.6162 127.128C81.7602 127.032 81.8832 126.984 81.9852 126.984C82.1172 126.984 82.2192 127.035 82.2912 127.137L82.7412 127.722ZM85.3591 129V121.251L84.3511 121.134C84.2251 121.104 84.1201 121.059 84.0361 120.999C83.9581 120.933 83.9191 120.84 83.9191 120.72V120.063H85.3591V119.181C85.3591 118.659 85.4311 118.197 85.5751 117.795C85.7251 117.387 85.9351 117.045 86.2051 116.769C86.4811 116.487 86.8111 116.274 87.1951 116.13C87.5791 115.986 88.0111 115.914 88.4911 115.914C88.8991 115.914 89.2741 115.974 89.6161 116.094L89.5801 116.895C89.5681 117.039 89.4871 117.117 89.3371 117.129C89.1931 117.141 88.9981 117.147 88.7521 117.147C88.4761 117.147 88.2241 117.183 87.9961 117.255C87.7741 117.327 87.5821 117.444 87.4201 117.606C87.2581 117.768 87.1321 117.981 87.0421 118.245C86.9581 118.509 86.9161 118.836 86.9161 119.226V120.063H89.5441V121.224H86.9701V129H85.3591ZM92.5966 121.71C92.8846 121.086 93.2386 120.6 93.6586 120.252C94.0786 119.898 94.5916 119.721 95.1976 119.721C95.3896 119.721 95.5726 119.742 95.7466 119.784C95.9266 119.826 96.0856 119.892 96.2236 119.982L96.1066 121.179C96.0706 121.329 95.9806 121.404 95.8366 121.404C95.7526 121.404 95.6296 121.386 95.4676 121.35C95.3056 121.314 95.1226 121.296 94.9186 121.296C94.6306 121.296 94.3726 121.338 94.1446 121.422C93.9226 121.506 93.7216 121.632 93.5416 121.8C93.3676 121.962 93.2086 122.166 93.0646 122.412C92.9266 122.652 92.8006 122.928 92.6866 123.24V129H91.0756V119.883H91.9936C92.1676 119.883 92.2876 119.916 92.3536 119.982C92.4196 120.048 92.4646 120.162 92.4886 120.324L92.5966 121.71ZM102.433 124.896C101.695 124.92 101.065 124.98 100.543 125.076C100.027 125.166 99.6037 125.286 99.2737 125.436C98.9497 125.586 98.7127 125.763 98.5627 125.967C98.4187 126.171 98.3467 126.399 98.3467 126.651C98.3467 126.891 98.3857 127.098 98.4637 127.272C98.5417 127.446 98.6467 127.59 98.7787 127.704C98.9167 127.812 99.0757 127.893 99.2557 127.947C99.4417 127.995 99.6397 128.019 99.8497 128.019C100.132 128.019 100.39 127.992 100.624 127.938C100.858 127.878 101.077 127.794 101.281 127.686C101.491 127.578 101.689 127.449 101.875 127.299C102.067 127.149 102.253 126.978 102.433 126.786V124.896ZM97.2577 121.17C97.7617 120.684 98.3047 120.321 98.8867 120.081C99.4687 119.841 100.114 119.721 100.822 119.721C101.332 119.721 101.785 119.805 102.181 119.973C102.577 120.141 102.91 120.375 103.18 120.675C103.45 120.975 103.654 121.338 103.792 121.764C103.93 122.19 103.999 122.658 103.999 123.168V129H103.288C103.132 129 103.012 128.976 102.928 128.928C102.844 128.874 102.778 128.772 102.73 128.622L102.55 127.758C102.31 127.98 102.076 128.178 101.848 128.352C101.62 128.52 101.38 128.664 101.128 128.784C100.876 128.898 100.606 128.985 100.318 129.045C100.036 129.111 99.7207 129.144 99.3727 129.144C99.0187 129.144 98.6857 129.096 98.3737 129C98.0617 128.898 97.7887 128.748 97.5547 128.55C97.3267 128.352 97.1437 128.103 97.0057 127.803C96.8737 127.497 96.8077 127.137 96.8077 126.723C96.8077 126.363 96.9067 126.018 97.1047 125.688C97.3027 125.352 97.6237 125.055 98.0677 124.797C98.5117 124.539 99.0907 124.329 99.8047 124.167C100.519 123.999 101.395 123.903 102.433 123.879V123.168C102.433 122.46 102.28 121.926 101.974 121.566C101.668 121.2 101.221 121.017 100.633 121.017C100.237 121.017 99.9037 121.068 99.6337 121.17C99.3697 121.266 99.1387 121.377 98.9407 121.503C98.7487 121.623 98.5807 121.734 98.4367 121.836C98.2987 121.932 98.1607 121.98 98.0227 121.98C97.9147 121.98 97.8217 121.953 97.7437 121.899C97.6657 121.839 97.5997 121.767 97.5457 121.683L97.2577 121.17ZM106.439 129V119.883H107.402C107.63 119.883 107.771 119.994 107.825 120.216L107.942 121.152C108.278 120.738 108.656 120.399 109.076 120.135C109.496 119.871 109.982 119.739 110.534 119.739C111.146 119.739 111.641 119.91 112.019 120.252C112.403 120.594 112.679 121.056 112.847 121.638C112.979 121.308 113.147 121.023 113.351 120.783C113.561 120.543 113.795 120.345 114.053 120.189C114.311 120.033 114.584 119.919 114.872 119.847C115.166 119.775 115.463 119.739 115.763 119.739C116.243 119.739 116.669 119.817 117.041 119.973C117.419 120.123 117.737 120.345 117.995 120.639C118.259 120.933 118.46 121.296 118.598 121.728C118.736 122.154 118.805 122.643 118.805 123.195V129H117.194V123.195C117.194 122.481 117.038 121.941 116.726 121.575C116.414 121.203 115.964 121.017 115.376 121.017C115.112 121.017 114.86 121.065 114.62 121.161C114.386 121.251 114.179 121.386 113.999 121.566C113.819 121.746 113.675 121.974 113.567 122.25C113.465 122.52 113.414 122.835 113.414 123.195V129H111.803V123.195C111.803 122.463 111.656 121.917 111.362 121.557C111.068 121.197 110.639 121.017 110.075 121.017C109.679 121.017 109.313 121.125 108.977 121.341C108.641 121.551 108.332 121.839 108.05 122.205V129H106.439ZM127.342 123.447C127.342 123.075 127.288 122.736 127.18 122.43C127.078 122.118 126.925 121.851 126.721 121.629C126.523 121.401 126.28 121.227 125.992 121.107C125.704 120.981 125.377 120.918 125.011 120.918C124.243 120.918 123.634 121.143 123.184 121.593C122.74 122.037 122.464 122.655 122.356 123.447H127.342ZM128.638 127.722C128.44 127.962 128.203 128.172 127.927 128.352C127.651 128.526 127.354 128.67 127.036 128.784C126.724 128.898 126.4 128.982 126.064 129.036C125.728 129.096 125.395 129.126 125.065 129.126C124.435 129.126 123.853 129.021 123.319 128.811C122.791 128.595 122.332 128.283 121.942 127.875C121.558 127.461 121.258 126.951 121.042 126.345C120.826 125.739 120.718 125.043 120.718 124.257C120.718 123.621 120.814 123.027 121.006 122.475C121.204 121.923 121.486 121.446 121.852 121.044C122.218 120.636 122.665 120.318 123.193 120.09C123.721 119.856 124.315 119.739 124.975 119.739C125.521 119.739 126.025 119.832 126.487 120.018C126.955 120.198 127.357 120.462 127.693 120.81C128.035 121.152 128.302 121.578 128.494 122.088C128.686 122.592 128.782 123.168 128.782 123.816C128.782 124.068 128.755 124.236 128.701 124.32C128.647 124.404 128.545 124.446 128.395 124.446H122.302C122.32 125.022 122.398 125.523 122.536 125.949C122.68 126.375 122.878 126.732 123.13 127.02C123.382 127.302 123.682 127.515 124.03 127.659C124.378 127.797 124.768 127.866 125.2 127.866C125.602 127.866 125.947 127.821 126.235 127.731C126.529 127.635 126.781 127.533 126.991 127.425C127.201 127.317 127.375 127.218 127.513 127.128C127.657 127.032 127.78 126.984 127.882 126.984C128.014 126.984 128.116 127.035 128.188 127.137L128.638 127.722ZM136.059 121.386C135.987 121.518 135.876 121.584 135.726 121.584C135.636 121.584 135.534 121.551 135.42 121.485C135.306 121.419 135.165 121.347 134.997 121.269C134.835 121.185 134.64 121.11 134.412 121.044C134.184 120.972 133.914 120.936 133.602 120.936C133.332 120.936 133.089 120.972 132.873 121.044C132.657 121.11 132.471 121.203 132.315 121.323C132.165 121.443 132.048 121.584 131.964 121.746C131.886 121.902 131.847 122.073 131.847 122.259C131.847 122.493 131.913 122.688 132.045 122.844C132.183 123 132.363 123.135 132.585 123.249C132.807 123.363 133.059 123.465 133.341 123.555C133.623 123.639 133.911 123.732 134.205 123.834C134.505 123.93 134.796 124.038 135.078 124.158C135.36 124.278 135.612 124.428 135.834 124.608C136.056 124.788 136.233 125.01 136.365 125.274C136.503 125.532 136.572 125.844 136.572 126.21C136.572 126.63 136.497 127.02 136.347 127.38C136.197 127.734 135.975 128.043 135.681 128.307C135.387 128.565 135.027 128.769 134.601 128.919C134.175 129.069 133.683 129.144 133.125 129.144C132.489 129.144 131.913 129.042 131.397 128.838C130.881 128.628 130.443 128.361 130.083 128.037L130.461 127.425C130.509 127.347 130.566 127.287 130.632 127.245C130.698 127.203 130.782 127.182 130.884 127.182C130.992 127.182 131.106 127.224 131.226 127.308C131.346 127.392 131.49 127.485 131.658 127.587C131.832 127.689 132.042 127.782 132.288 127.866C132.534 127.95 132.84 127.992 133.206 127.992C133.518 127.992 133.791 127.953 134.025 127.875C134.259 127.791 134.454 127.68 134.61 127.542C134.766 127.404 134.88 127.245 134.952 127.065C135.03 126.885 135.069 126.693 135.069 126.489C135.069 126.237 135 126.03 134.862 125.868C134.73 125.7 134.553 125.559 134.331 125.445C134.109 125.325 133.854 125.223 133.566 125.139C133.284 125.049 132.993 124.956 132.693 124.86C132.399 124.764 132.108 124.656 131.82 124.536C131.538 124.41 131.286 124.254 131.064 124.068C130.842 123.882 130.662 123.654 130.524 123.384C130.392 123.108 130.326 122.775 130.326 122.385C130.326 122.037 130.398 121.704 130.542 121.386C130.686 121.062 130.896 120.78 131.172 120.54C131.448 120.294 131.787 120.099 132.189 119.955C132.591 119.811 133.05 119.739 133.566 119.739C134.166 119.739 134.703 119.835 135.177 120.027C135.657 120.213 136.071 120.471 136.419 120.801L136.059 121.386ZM50.454 156.79C50.952 156.79 51.39 156.724 51.768 156.592C52.152 156.46 52.473 156.277 52.731 156.043C52.995 155.803 53.193 155.518 53.325 155.188C53.457 154.858 53.523 154.495 53.523 154.099C53.523 153.277 53.268 152.635 52.758 152.173C52.254 151.711 51.486 151.48 50.454 151.48H48.384V156.79H50.454ZM50.454 150.103C51.27 150.103 51.978 150.199 52.578 150.391C53.184 150.577 53.685 150.844 54.081 151.192C54.477 151.54 54.771 151.96 54.963 152.452C55.161 152.944 55.26 153.493 55.26 154.099C55.26 154.699 55.155 155.248 54.945 155.746C54.735 156.244 54.426 156.673 54.018 157.033C53.616 157.393 53.115 157.675 52.515 157.879C51.921 158.077 51.234 158.176 50.454 158.176H48.384V163H46.647V150.103H50.454ZM58.4248 155.71C58.7128 155.086 59.0668 154.6 59.4868 154.252C59.9068 153.898 60.4198 153.721 61.0258 153.721C61.2178 153.721 61.4008 153.742 61.5748 153.784C61.7548 153.826 61.9138 153.892 62.0518 153.982L61.9348 155.179C61.8988 155.329 61.8088 155.404 61.6648 155.404C61.5808 155.404 61.4578 155.386 61.2958 155.35C61.1338 155.314 60.9508 155.296 60.7468 155.296C60.4588 155.296 60.2008 155.338 59.9728 155.422C59.7508 155.506 59.5498 155.632 59.3698 155.8C59.1958 155.962 59.0368 156.166 58.8928 156.412C58.7548 156.652 58.6288 156.928 58.5148 157.24V163H56.9038V153.883H57.8218C57.9958 153.883 58.1158 153.916 58.1818 153.982C58.2478 154.048 58.2928 154.162 58.3168 154.324L58.4248 155.71ZM66.9343 153.739C67.6003 153.739 68.2003 153.85 68.7343 154.072C69.2683 154.294 69.7243 154.609 70.1023 155.017C70.4803 155.425 70.7683 155.92 70.9663 156.502C71.1703 157.078 71.2723 157.723 71.2723 158.437C71.2723 159.157 71.1703 159.805 70.9663 160.381C70.7683 160.957 70.4803 161.449 70.1023 161.857C69.7243 162.265 69.2683 162.58 68.7343 162.802C68.2003 163.018 67.6003 163.126 66.9343 163.126C66.2623 163.126 65.6563 163.018 65.1163 162.802C64.5823 162.58 64.1263 162.265 63.7483 161.857C63.3703 161.449 63.0793 160.957 62.8753 160.381C62.6773 159.805 62.5783 159.157 62.5783 158.437C62.5783 157.723 62.6773 157.078 62.8753 156.502C63.0793 155.92 63.3703 155.425 63.7483 155.017C64.1263 154.609 64.5823 154.294 65.1163 154.072C65.6563 153.85 66.2623 153.739 66.9343 153.739ZM66.9343 161.875C67.8343 161.875 68.5063 161.575 68.9503 160.975C69.3943 160.369 69.6163 159.526 69.6163 158.446C69.6163 157.36 69.3943 156.514 68.9503 155.908C68.5063 155.302 67.8343 154.999 66.9343 154.999C66.4783 154.999 66.0793 155.077 65.7373 155.233C65.4013 155.389 65.1193 155.614 64.8913 155.908C64.6693 156.202 64.5013 156.565 64.3873 156.997C64.2793 157.423 64.2253 157.906 64.2253 158.446C64.2253 159.526 64.4473 160.369 64.8913 160.975C65.3413 161.575 66.0223 161.875 66.9343 161.875ZM75.945 163.144C75.225 163.144 74.67 162.943 74.28 162.541C73.896 162.139 73.704 161.56 73.704 160.804V155.224H72.606C72.51 155.224 72.429 155.197 72.363 155.143C72.297 155.083 72.264 154.993 72.264 154.873V154.234L73.758 154.045L74.127 151.228C74.145 151.138 74.184 151.066 74.244 151.012C74.31 150.952 74.394 150.922 74.496 150.922H75.306V154.063H77.943V155.224H75.306V160.696C75.306 161.08 75.399 161.365 75.585 161.551C75.771 161.737 76.011 161.83 76.305 161.83C76.473 161.83 76.617 161.809 76.737 161.767C76.863 161.719 76.971 161.668 77.061 161.614C77.151 161.56 77.226 161.512 77.286 161.47C77.352 161.422 77.409 161.398 77.457 161.398C77.541 161.398 77.616 161.449 77.682 161.551L78.15 162.316C77.874 162.574 77.541 162.778 77.151 162.928C76.761 163.072 76.359 163.144 75.945 163.144ZM83.3874 153.739C84.0534 153.739 84.6534 153.85 85.1874 154.072C85.7214 154.294 86.1774 154.609 86.5554 155.017C86.9334 155.425 87.2214 155.92 87.4194 156.502C87.6234 157.078 87.7254 157.723 87.7254 158.437C87.7254 159.157 87.6234 159.805 87.4194 160.381C87.2214 160.957 86.9334 161.449 86.5554 161.857C86.1774 162.265 85.7214 162.58 85.1874 162.802C84.6534 163.018 84.0534 163.126 83.3874 163.126C82.7154 163.126 82.1094 163.018 81.5694 162.802C81.0354 162.58 80.5794 162.265 80.2014 161.857C79.8234 161.449 79.5324 160.957 79.3284 160.381C79.1304 159.805 79.0314 159.157 79.0314 158.437C79.0314 157.723 79.1304 157.078 79.3284 156.502C79.5324 155.92 79.8234 155.425 80.2014 155.017C80.5794 154.609 81.0354 154.294 81.5694 154.072C82.1094 153.85 82.7154 153.739 83.3874 153.739ZM83.3874 161.875C84.2874 161.875 84.9594 161.575 85.4034 160.975C85.8474 160.369 86.0694 159.526 86.0694 158.446C86.0694 157.36 85.8474 156.514 85.4034 155.908C84.9594 155.302 84.2874 154.999 83.3874 154.999C82.9314 154.999 82.5324 155.077 82.1904 155.233C81.8544 155.389 81.5724 155.614 81.3444 155.908C81.1224 156.202 80.9544 156.565 80.8404 156.997C80.7324 157.423 80.6784 157.906 80.6784 158.446C80.6784 159.526 80.9004 160.369 81.3444 160.975C81.7944 161.575 82.4754 161.875 83.3874 161.875ZM92.3981 163.144C91.6781 163.144 91.1231 162.943 90.7331 162.541C90.3491 162.139 90.1571 161.56 90.1571 160.804V155.224H89.0591C88.9631 155.224 88.8821 155.197 88.8161 155.143C88.7501 155.083 88.7171 154.993 88.7171 154.873V154.234L90.2111 154.045L90.5801 151.228C90.5981 151.138 90.6371 151.066 90.6971 151.012C90.7631 150.952 90.8471 150.922 90.9491 150.922H91.7591V154.063H94.3961V155.224H91.7591V160.696C91.7591 161.08 91.8521 161.365 92.0381 161.551C92.2241 161.737 92.4641 161.83 92.7581 161.83C92.9261 161.83 93.0701 161.809 93.1901 161.767C93.3161 161.719 93.4241 161.668 93.5141 161.614C93.6041 161.56 93.6791 161.512 93.7391 161.47C93.8051 161.422 93.8621 161.398 93.9101 161.398C93.9941 161.398 94.0691 161.449 94.1351 161.551L94.6031 162.316C94.3271 162.574 93.9941 162.778 93.6041 162.928C93.2141 163.072 92.8121 163.144 92.3981 163.144ZM103.916 153.883L98.8313 165.691C98.7773 165.811 98.7083 165.907 98.6243 165.979C98.5463 166.051 98.4233 166.087 98.2553 166.087H97.0673L98.7323 162.469L94.9703 153.883H96.3563C96.4943 153.883 96.6023 153.919 96.6803 153.991C96.7643 154.057 96.8213 154.132 96.8513 154.216L99.2903 159.958C99.3863 160.21 99.4673 160.474 99.5332 160.75C99.6173 160.468 99.7073 160.201 99.8033 159.949L102.17 154.216C102.206 154.12 102.266 154.042 102.35 153.982C102.44 153.916 102.539 153.883 102.647 153.883H103.916ZM106.943 160.804C107.237 161.2 107.558 161.479 107.906 161.641C108.254 161.803 108.644 161.884 109.076 161.884C109.928 161.884 110.582 161.581 111.038 160.975C111.494 160.369 111.722 159.505 111.722 158.383C111.722 157.789 111.668 157.279 111.56 156.853C111.458 156.427 111.308 156.079 111.11 155.809C110.912 155.533 110.669 155.332 110.381 155.206C110.093 155.08 109.766 155.017 109.4 155.017C108.878 155.017 108.419 155.137 108.023 155.377C107.633 155.617 107.273 155.956 106.943 156.394V160.804ZM106.862 155.296C107.246 154.822 107.69 154.441 108.194 154.153C108.698 153.865 109.274 153.721 109.922 153.721C110.45 153.721 110.927 153.823 111.353 154.027C111.779 154.225 112.142 154.522 112.442 154.918C112.742 155.308 112.973 155.794 113.135 156.376C113.297 156.958 113.378 157.627 113.378 158.383C113.378 159.055 113.288 159.682 113.107 160.264C112.928 160.84 112.667 161.341 112.325 161.767C111.989 162.187 111.575 162.52 111.083 162.766C110.597 163.006 110.048 163.126 109.436 163.126C108.878 163.126 108.398 163.033 107.996 162.847C107.6 162.655 107.249 162.391 106.943 162.055V166.087H105.332V153.883H106.295C106.523 153.883 106.664 153.994 106.718 154.216L106.862 155.296ZM117.113 153.883V163H115.511V153.883H117.113ZM117.455 151.021C117.455 151.177 117.422 151.324 117.356 151.462C117.296 151.594 117.212 151.714 117.104 151.822C117.002 151.924 116.879 152.005 116.735 152.065C116.597 152.125 116.45 152.155 116.294 152.155C116.138 152.155 115.991 152.125 115.853 152.065C115.721 152.005 115.604 151.924 115.502 151.822C115.4 151.714 115.319 151.594 115.259 151.462C115.199 151.324 115.169 151.177 115.169 151.021C115.169 150.865 115.199 150.718 115.259 150.58C115.319 150.436 115.4 150.313 115.502 150.211C115.604 150.103 115.721 150.019 115.853 149.959C115.991 149.899 116.138 149.869 116.294 149.869C116.45 149.869 116.597 149.899 116.735 149.959C116.879 150.019 117.002 150.103 117.104 150.211C117.212 150.313 117.296 150.436 117.356 150.58C117.422 150.718 117.455 150.865 117.455 151.021ZM121.258 155.206C121.456 154.984 121.666 154.783 121.888 154.603C122.11 154.423 122.344 154.27 122.59 154.144C122.842 154.012 123.106 153.913 123.382 153.847C123.664 153.775 123.967 153.739 124.291 153.739C124.789 153.739 125.227 153.823 125.605 153.991C125.989 154.153 126.307 154.387 126.559 154.693C126.817 154.993 127.012 155.356 127.144 155.782C127.276 156.208 127.342 156.679 127.342 157.195V163H125.731V157.195C125.731 156.505 125.572 155.971 125.254 155.593C124.942 155.209 124.465 155.017 123.823 155.017C123.349 155.017 122.905 155.131 122.491 155.359C122.083 155.587 121.705 155.896 121.357 156.286V163H119.746V153.883H120.709C120.937 153.883 121.078 153.994 121.132 154.216L121.258 155.206ZM132.96 158.545C133.284 158.545 133.569 158.5 133.815 158.41C134.061 158.32 134.268 158.194 134.436 158.032C134.604 157.87 134.73 157.678 134.814 157.456C134.898 157.228 134.94 156.979 134.94 156.709C134.94 156.151 134.769 155.707 134.427 155.377C134.091 155.047 133.602 154.882 132.96 154.882C132.312 154.882 131.817 155.047 131.475 155.377C131.139 155.707 130.971 156.151 130.971 156.709C130.971 156.979 131.013 157.228 131.097 157.456C131.187 157.678 131.316 157.87 131.484 158.032C131.652 158.194 131.859 158.32 132.105 158.41C132.351 158.5 132.636 158.545 132.96 158.545ZM135.849 163.495C135.849 163.273 135.786 163.093 135.66 162.955C135.534 162.817 135.363 162.709 135.147 162.631C134.937 162.553 134.691 162.499 134.409 162.469C134.127 162.433 133.827 162.406 133.509 162.388C133.197 162.37 132.879 162.352 132.555 162.334C132.231 162.316 131.919 162.286 131.619 162.244C131.283 162.4 131.007 162.598 130.791 162.838C130.581 163.072 130.476 163.348 130.476 163.666C130.476 163.87 130.527 164.059 130.629 164.233C130.737 164.413 130.899 164.566 131.115 164.692C131.331 164.824 131.601 164.926 131.925 164.998C132.255 165.076 132.642 165.115 133.086 165.115C133.518 165.115 133.905 165.076 134.247 164.998C134.589 164.92 134.877 164.809 135.111 164.665C135.351 164.521 135.534 164.35 135.66 164.152C135.786 163.954 135.849 163.735 135.849 163.495ZM137.478 154.243V154.837C137.478 155.035 137.352 155.161 137.1 155.215L136.065 155.35C136.269 155.746 136.371 156.184 136.371 156.664C136.371 157.108 136.284 157.513 136.11 157.879C135.942 158.239 135.708 158.548 135.408 158.806C135.108 159.064 134.748 159.262 134.328 159.4C133.908 159.538 133.452 159.607 132.96 159.607C132.534 159.607 132.132 159.556 131.754 159.454C131.562 159.574 131.415 159.703 131.313 159.841C131.211 159.973 131.16 160.108 131.16 160.246C131.16 160.462 131.247 160.627 131.421 160.741C131.601 160.849 131.835 160.927 132.123 160.975C132.411 161.023 132.738 161.053 133.104 161.065C133.476 161.077 133.854 161.098 134.238 161.128C134.628 161.152 135.006 161.197 135.372 161.263C135.744 161.329 136.074 161.437 136.362 161.587C136.65 161.737 136.881 161.944 137.055 162.208C137.235 162.472 137.325 162.814 137.325 163.234C137.325 163.624 137.226 164.002 137.028 164.368C136.836 164.734 136.557 165.058 136.191 165.34C135.825 165.628 135.375 165.856 134.841 166.024C134.313 166.198 133.716 166.285 133.05 166.285C132.384 166.285 131.802 166.219 131.304 166.087C130.806 165.955 130.392 165.778 130.062 165.556C129.732 165.334 129.483 165.076 129.315 164.782C129.153 164.494 129.072 164.191 129.072 163.873C129.072 163.423 129.213 163.042 129.495 162.73C129.777 162.418 130.164 162.169 130.656 161.983C130.386 161.863 130.17 161.704 130.008 161.506C129.852 161.302 129.774 161.029 129.774 160.687C129.774 160.555 129.798 160.42 129.846 160.282C129.894 160.138 129.966 159.997 130.062 159.859C130.164 159.715 130.287 159.58 130.431 159.454C130.575 159.328 130.743 159.217 130.935 159.121C130.485 158.869 130.134 158.536 129.882 158.122C129.63 157.702 129.504 157.216 129.504 156.664C129.504 156.22 129.588 155.818 129.756 155.458C129.93 155.092 130.17 154.783 130.476 154.531C130.782 154.273 131.145 154.075 131.565 153.937C131.991 153.799 132.456 153.73 132.96 153.73C133.356 153.73 133.725 153.775 134.067 153.865C134.409 153.949 134.721 154.075 135.003 154.243H137.478Z" fill="#4F4F4F"/>
</svg>
