<svg width="272" height="155" viewBox="0 0 272 155" fill="none" xmlns="http://www.w3.org/2000/svg">
<circle cx="26" cy="26" r="25.5" transform="rotate(90 26 26)" fill="#275B81" stroke="white"/>
<path d="M26 36.6914H38.75" stroke="white" stroke-width="2" stroke-linecap="round" stroke-linejoin="round"/>
<path d="M32.375 13.8475C32.9386 13.2967 33.703 12.9873 34.5 12.9873C34.8947 12.9873 35.2854 13.0633 35.65 13.2109C36.0147 13.3585 36.3459 13.5748 36.625 13.8475C36.9041 14.1202 37.1254 14.444 37.2764 14.8003C37.4275 15.1566 37.5052 15.5385 37.5052 15.9242C37.5052 16.3099 37.4275 16.6918 37.2764 17.0481C37.1254 17.4044 36.9041 17.7282 36.625 18.0009L18.9167 35.3068L13.25 36.6912L14.6667 31.1534L32.375 13.8475Z" stroke="white" stroke-width="2" stroke-linecap="round" stroke-linejoin="round"/>
<path d="M96.208 35.504C95.596 36.2067 94.9387 36.7053 94.236 37C93.5333 37.3173 92.6833 37.476 91.686 37.476C90.3713 37.476 89.3287 37.204 88.558 36.66C87.81 36.0933 87.3227 35.1413 87.096 33.804L86.484 30.404C86.1893 28.7493 85.8267 27.5367 85.396 26.766C84.988 25.9727 84.2967 25.576 83.322 25.576H81.112V33.396C81.112 34.2573 81.1687 34.8807 81.282 35.266C81.418 35.6513 81.656 35.912 81.996 36.048C82.336 36.184 82.8913 36.2747 83.662 36.32V37C82.438 36.932 80.7267 36.898 78.528 36.898C76.1027 36.898 74.312 36.932 73.156 37V36.32C73.904 36.2747 74.448 36.184 74.788 36.048C75.1507 35.912 75.3887 35.6513 75.502 35.266C75.638 34.8807 75.706 34.2573 75.706 33.396V16.532C75.706 15.6707 75.638 15.0473 75.502 14.662C75.3887 14.2767 75.1507 14.016 74.788 13.88C74.448 13.744 73.904 13.6533 73.156 13.608V12.928C74.312 12.996 76.0347 13.03 78.324 13.03L82.098 12.996C82.5513 12.9733 83.0727 12.962 83.662 12.962C86.79 12.962 89.136 13.472 90.7 14.492C92.2867 15.512 93.08 16.974 93.08 18.878C93.08 20.4873 92.4907 21.904 91.312 23.128C90.1333 24.352 88.184 25.1227 85.464 25.44C87.504 25.6213 89.0227 26.0633 90.02 26.766C91.0173 27.4687 91.6633 28.5227 91.958 29.928L92.74 33.43C92.9213 34.3367 93.1253 34.9713 93.352 35.334C93.6013 35.6967 93.9413 35.878 94.372 35.878C94.644 35.8553 94.8707 35.7873 95.052 35.674C95.256 35.5607 95.4827 35.368 95.732 35.096L96.208 35.504ZM83.22 13.608C82.608 13.608 82.1547 13.6873 81.86 13.846C81.588 14.0047 81.3953 14.288 81.282 14.696C81.1687 15.104 81.112 15.716 81.112 16.532V24.896H82.574C84.4327 24.896 85.702 24.4087 86.382 23.434C87.0847 22.4367 87.436 21.0427 87.436 19.252C87.436 17.3933 87.1073 15.988 86.45 15.036C85.7927 14.084 84.716 13.608 83.22 13.608ZM106.353 34.688C108.212 34.688 109.708 33.7813 110.841 31.968L111.453 32.172C111 33.6453 110.184 34.9033 109.005 35.946C107.849 36.966 106.398 37.476 104.653 37.476C102.25 37.476 100.335 36.7167 98.907 35.198C97.5017 33.6567 96.799 31.39 96.799 28.398C96.799 25.338 97.5583 23.0033 99.077 21.394C100.596 19.762 102.613 18.946 105.129 18.946C109.39 18.946 111.521 21.462 111.521 26.494H101.967C101.944 26.834 101.933 27.3667 101.933 28.092C101.933 29.588 102.137 30.8347 102.545 31.832C102.976 32.8293 103.52 33.5547 104.177 34.008C104.857 34.4613 105.582 34.688 106.353 34.688ZM104.925 19.66C104.109 19.66 103.429 20.17 102.885 21.19C102.364 22.1873 102.035 23.74 101.899 25.848H107.237C107.282 24.0573 107.101 22.584 106.693 21.428C106.308 20.2493 105.718 19.66 104.925 19.66ZM120.222 18.946C121.083 18.946 121.876 19.0593 122.602 19.286C123.327 19.49 123.882 19.728 124.268 20C124.494 20.1587 124.698 20.238 124.88 20.238C125.084 20.238 125.254 20.136 125.39 19.932C125.548 19.7053 125.65 19.388 125.696 18.98H126.41C126.319 20.136 126.274 22.1307 126.274 24.964H125.56C125.356 23.468 124.902 22.2213 124.2 21.224C123.52 20.204 122.522 19.694 121.208 19.694C120.528 19.694 119.961 19.8867 119.508 20.272C119.077 20.6573 118.862 21.19 118.862 21.87C118.862 22.6407 119.122 23.3093 119.644 23.876C120.165 24.42 120.981 25.0887 122.092 25.882L123.078 26.596C124.46 27.6387 125.48 28.568 126.138 29.384C126.795 30.2 127.124 31.22 127.124 32.444C127.124 33.4413 126.829 34.3253 126.24 35.096C125.673 35.8667 124.902 36.456 123.928 36.864C122.953 37.272 121.876 37.476 120.698 37.476C119.451 37.476 118.386 37.238 117.502 36.762C116.776 36.3993 116.255 36.1613 115.938 36.048C115.711 35.98 115.507 36.0593 115.326 36.286C115.167 36.49 115.042 36.8073 114.952 37.238H114.238C114.328 35.946 114.374 33.6793 114.374 30.438H115.088C115.541 34.6087 117.071 36.694 119.678 36.694C120.335 36.694 120.89 36.5013 121.344 36.116C121.82 35.708 122.058 35.096 122.058 34.28C122.058 33.6453 121.91 33.0787 121.616 32.58C121.344 32.0813 120.992 31.6393 120.562 31.254C120.131 30.8687 119.485 30.336 118.624 29.656C117.604 28.84 116.822 28.1827 116.278 27.684C115.756 27.1853 115.303 26.596 114.918 25.916C114.555 25.236 114.374 24.4767 114.374 23.638C114.374 22.1873 114.94 21.0427 116.074 20.204C117.207 19.3653 118.59 18.946 120.222 18.946ZM139.191 34.688C141.05 34.688 142.546 33.7813 143.679 31.968L144.291 32.172C143.838 33.6453 143.022 34.9033 141.843 35.946C140.687 36.966 139.236 37.476 137.491 37.476C135.088 37.476 133.173 36.7167 131.745 35.198C130.34 33.6567 129.637 31.39 129.637 28.398C129.637 25.338 130.396 23.0033 131.915 21.394C133.434 19.762 135.451 18.946 137.967 18.946C142.228 18.946 144.359 21.462 144.359 26.494H134.805C134.782 26.834 134.771 27.3667 134.771 28.092C134.771 29.588 134.975 30.8347 135.383 31.832C135.814 32.8293 136.358 33.5547 137.015 34.008C137.695 34.4613 138.42 34.688 139.191 34.688ZM137.763 19.66C136.947 19.66 136.267 20.17 135.723 21.19C135.202 22.1873 134.873 23.74 134.737 25.848H140.075C140.12 24.0573 139.939 22.584 139.531 21.428C139.146 20.2493 138.556 19.66 137.763 19.66ZM150.816 37.238C149.365 37.238 148.277 36.864 147.552 36.116C146.849 35.368 146.498 34.382 146.498 33.158C146.498 32.138 146.758 31.2993 147.28 30.642C147.824 29.962 148.47 29.4407 149.218 29.078C149.988 28.7153 150.963 28.33 152.142 27.922C153.388 27.4913 154.295 27.106 154.862 26.766C155.451 26.4033 155.746 25.916 155.746 25.304V22.652C155.746 21.7 155.519 20.9633 155.066 20.442C154.635 19.898 153.955 19.626 153.026 19.626C151.938 19.626 151.11 19.898 150.544 20.442C151.178 20.6687 151.666 21.0087 152.006 21.462C152.368 21.9153 152.55 22.448 152.55 23.06C152.55 23.8307 152.289 24.4427 151.768 24.896C151.246 25.3493 150.612 25.576 149.864 25.576C149.07 25.576 148.458 25.3267 148.028 24.828C147.597 24.3293 147.382 23.706 147.382 22.958C147.382 22.3233 147.529 21.7907 147.824 21.36C148.141 20.9067 148.617 20.4873 149.252 20.102C149.864 19.7393 150.612 19.456 151.496 19.252C152.402 19.048 153.388 18.946 154.454 18.946C155.564 18.946 156.528 19.0593 157.344 19.286C158.16 19.5127 158.84 19.898 159.384 20.442C159.882 20.9407 160.211 21.5527 160.37 22.278C160.551 23.0033 160.642 23.9893 160.642 25.236V34.484C160.642 35.028 160.687 35.4133 160.778 35.64C160.891 35.8667 161.095 35.98 161.39 35.98C161.73 35.98 162.138 35.7873 162.614 35.402L162.954 35.98C161.934 36.8187 160.687 37.238 159.214 37.238C157.967 37.238 157.094 36.9887 156.596 36.49C156.097 35.9913 155.836 35.3227 155.814 34.484C154.68 36.32 153.014 37.238 150.816 37.238ZM153.434 35.062C154.318 35.062 155.088 34.5973 155.746 33.668V26.698C155.474 27.1513 154.896 27.65 154.012 28.194C153.128 28.7607 152.459 29.3273 152.006 29.894C151.552 30.4607 151.326 31.2767 151.326 32.342C151.326 33.2713 151.518 33.9627 151.904 34.416C152.289 34.8467 152.799 35.062 153.434 35.062ZM175.621 18.946C176.641 18.946 177.412 19.252 177.933 19.864C178.455 20.476 178.715 21.2127 178.715 22.074C178.715 22.9127 178.466 23.604 177.967 24.148C177.491 24.6693 176.857 24.93 176.063 24.93C175.293 24.93 174.681 24.7373 174.227 24.352C173.774 23.944 173.547 23.4113 173.547 22.754C173.547 21.666 174.046 20.782 175.043 20.102C174.953 20.0793 174.817 20.068 174.635 20.068C174.409 20.068 174.227 20.0907 174.091 20.136C173.23 20.272 172.493 20.7933 171.881 21.7C171.292 22.6067 170.997 23.536 170.997 24.488V33.498C170.997 34.5407 171.247 35.266 171.745 35.674C172.267 36.082 173.083 36.286 174.193 36.286V37C173.876 37 173.615 36.9887 173.411 36.966C171.099 36.898 169.558 36.864 168.787 36.864C168.175 36.864 166.781 36.898 164.605 36.966C164.424 36.9887 164.197 37 163.925 37V36.286C164.741 36.286 165.308 36.116 165.625 35.776C165.943 35.4133 166.101 34.7673 166.101 33.838V23.128C166.101 22.0853 165.943 21.326 165.625 20.85C165.308 20.374 164.741 20.136 163.925 20.136V19.422C164.651 19.49 165.353 19.524 166.033 19.524C168.051 19.524 169.705 19.3653 170.997 19.048V22.21C171.428 21.2353 172.051 20.4533 172.867 19.864C173.683 19.252 174.601 18.946 175.621 18.946ZM188.172 18.946C189.01 18.946 189.804 19.0367 190.552 19.218C191.3 19.3993 191.923 19.6487 192.422 19.966C193.011 20.3287 193.464 20.7933 193.782 21.36C194.122 21.904 194.292 22.5047 194.292 23.162C194.292 23.9553 194.042 24.6127 193.544 25.134C193.045 25.6327 192.399 25.882 191.606 25.882C190.812 25.882 190.178 25.6553 189.702 25.202C189.226 24.7487 188.988 24.1367 188.988 23.366C188.988 22.686 189.203 22.0967 189.634 21.598C190.064 21.0993 190.597 20.7593 191.232 20.578C191.05 20.3287 190.767 20.136 190.382 20C190.019 19.8413 189.622 19.762 189.192 19.762C187.832 19.762 186.766 20.51 185.996 22.006C185.248 23.4793 184.874 25.4173 184.874 27.82C184.874 30.2453 185.304 31.9907 186.166 33.056C187.027 34.1213 188.104 34.654 189.396 34.654C190.166 34.654 190.937 34.45 191.708 34.042C192.501 33.634 193.215 32.92 193.85 31.9L194.428 32.104C193.974 33.5773 193.181 34.8467 192.048 35.912C190.914 36.9547 189.452 37.476 187.662 37.476C185.327 37.476 183.423 36.7053 181.95 35.164C180.476 33.6227 179.74 31.3333 179.74 28.296C179.74 26.3013 180.102 24.6013 180.828 23.196C181.553 21.7907 182.55 20.7367 183.82 20.034C185.089 19.3087 186.54 18.946 188.172 18.946ZM203.101 22.108C204.121 20 205.968 18.946 208.643 18.946C210.411 18.946 211.657 19.388 212.383 20.272C212.768 20.7027 213.04 21.2693 213.199 21.972C213.38 22.652 213.471 23.5587 213.471 24.692V33.838C213.471 34.7673 213.629 35.4133 213.947 35.776C214.264 36.116 214.831 36.286 215.647 36.286V37C213.289 36.9093 211.793 36.864 211.159 36.864C210.388 36.864 208.915 36.9093 206.739 37V36.286C207.419 36.286 207.895 36.116 208.167 35.776C208.439 35.4133 208.575 34.7673 208.575 33.838V23.264C208.575 22.3347 208.416 21.632 208.099 21.156C207.804 20.68 207.26 20.442 206.467 20.442C205.515 20.442 204.71 20.816 204.053 21.564C203.418 22.2893 203.101 23.2187 203.101 24.352V33.838C203.101 34.7673 203.237 35.4133 203.509 35.776C203.781 36.116 204.257 36.286 204.937 36.286V37C202.761 36.9093 201.355 36.864 200.721 36.864C199.95 36.864 198.386 36.9093 196.029 37V36.286C196.822 36.286 197.377 36.116 197.695 35.776C198.035 35.4133 198.205 34.7673 198.205 33.838V14.492C198.205 13.4493 198.035 12.69 197.695 12.214C197.377 11.738 196.822 11.5 196.029 11.5V10.786C196.754 10.854 197.457 10.888 198.137 10.888C200.109 10.888 201.763 10.7293 203.101 10.412V22.108Z" fill="#275B81"/>
<path d="M85.392 62.536V74H84.032V65.576C84.032 65.464 84.0347 65.344 84.04 65.216C84.0507 65.088 84.0613 64.9573 84.072 64.824L80.136 71.992C80.0133 72.232 79.8267 72.352 79.576 72.352H79.352C79.1013 72.352 78.9147 72.232 78.792 71.992L74.776 64.792C74.808 65.0747 74.824 65.336 74.824 65.576V74H73.464V62.536H74.608C74.7467 62.536 74.8533 62.5493 74.928 62.576C75.0027 62.6027 75.0747 62.6773 75.144 62.8L79.104 69.856C79.168 69.984 79.2293 70.1173 79.288 70.256C79.352 70.3947 79.4107 70.536 79.464 70.68C79.5173 70.536 79.5733 70.3947 79.632 70.256C79.6907 70.112 79.7547 69.976 79.824 69.848L83.712 62.8C83.776 62.6773 83.8453 62.6027 83.92 62.576C84 62.5493 84.1093 62.536 84.248 62.536H85.392ZM92.145 70.352C91.489 70.3733 90.929 70.4267 90.465 70.512C90.0063 70.592 89.6303 70.6987 89.337 70.832C89.049 70.9653 88.8383 71.1227 88.705 71.304C88.577 71.4853 88.513 71.688 88.513 71.912C88.513 72.1253 88.5477 72.3093 88.617 72.464C88.6863 72.6187 88.7797 72.7467 88.897 72.848C89.0197 72.944 89.161 73.016 89.321 73.064C89.4863 73.1067 89.6623 73.128 89.849 73.128C90.0997 73.128 90.329 73.104 90.537 73.056C90.745 73.0027 90.9397 72.928 91.121 72.832C91.3077 72.736 91.4837 72.6213 91.649 72.488C91.8197 72.3547 91.985 72.2027 92.145 72.032V70.352ZM87.545 67.04C87.993 66.608 88.4757 66.2853 88.993 66.072C89.5103 65.8587 90.0837 65.752 90.713 65.752C91.1663 65.752 91.569 65.8267 91.921 65.976C92.273 66.1253 92.569 66.3333 92.809 66.6C93.049 66.8667 93.2303 67.1893 93.353 67.568C93.4757 67.9467 93.537 68.3627 93.537 68.816V74H92.905C92.7663 74 92.6597 73.9787 92.585 73.936C92.5103 73.888 92.4517 73.7973 92.409 73.664L92.249 72.896C92.0357 73.0933 91.8277 73.2693 91.625 73.424C91.4223 73.5733 91.209 73.7013 90.985 73.808C90.761 73.9093 90.521 73.9867 90.265 74.04C90.0143 74.0987 89.7343 74.128 89.425 74.128C89.1103 74.128 88.8143 74.0853 88.537 74C88.2597 73.9093 88.017 73.776 87.809 73.6C87.6063 73.424 87.4437 73.2027 87.321 72.936C87.2037 72.664 87.145 72.344 87.145 71.976C87.145 71.656 87.233 71.3493 87.409 71.056C87.585 70.7573 87.8703 70.4933 88.265 70.264C88.6597 70.0347 89.1743 69.848 89.809 69.704C90.4437 69.5547 91.2223 69.4693 92.145 69.448V68.816C92.145 68.1867 92.009 67.712 91.737 67.392C91.465 67.0667 91.0677 66.904 90.545 66.904C90.193 66.904 89.897 66.9493 89.657 67.04C89.4223 67.1253 89.217 67.224 89.041 67.336C88.8703 67.4427 88.721 67.5413 88.593 67.632C88.4703 67.7173 88.3477 67.76 88.225 67.76C88.129 67.76 88.0463 67.736 87.977 67.688C87.9077 67.6347 87.849 67.5707 87.801 67.496L87.545 67.04ZM97.0581 67.52C97.3141 66.9653 97.6288 66.5333 98.0021 66.224C98.3755 65.9093 98.8315 65.752 99.3701 65.752C99.5408 65.752 99.7035 65.7707 99.8581 65.808C100.018 65.8453 100.159 65.904 100.282 65.984L100.178 67.048C100.146 67.1813 100.066 67.248 99.9381 67.248C99.8635 67.248 99.7541 67.232 99.6101 67.2C99.4661 67.168 99.3035 67.152 99.1221 67.152C98.8661 67.152 98.6368 67.1893 98.4341 67.264C98.2368 67.3387 98.0581 67.4507 97.8981 67.6C97.7435 67.744 97.6021 67.9253 97.4741 68.144C97.3515 68.3573 97.2395 68.6027 97.1381 68.88V74H95.7061V65.896H96.5221C96.6768 65.896 96.7835 65.9253 96.8421 65.984C96.9008 66.0427 96.9408 66.144 96.9621 66.288L97.0581 67.52ZM102.966 62.216V69.152H103.334C103.441 69.152 103.529 69.1387 103.598 69.112C103.673 69.08 103.75 69.0187 103.83 68.928L106.39 66.184C106.465 66.0933 106.542 66.024 106.622 65.976C106.708 65.9227 106.82 65.896 106.958 65.896H108.246L105.262 69.072C105.118 69.2533 104.964 69.3947 104.798 69.496C104.894 69.56 104.98 69.6347 105.054 69.72C105.134 69.8 105.209 69.8933 105.278 70L108.446 74H107.174C107.052 74 106.945 73.9813 106.854 73.944C106.769 73.9013 106.694 73.8267 106.63 73.72L103.966 70.4C103.886 70.288 103.806 70.216 103.726 70.184C103.652 70.1467 103.534 70.128 103.374 70.128H102.966V74H101.534V62.216H102.966ZM114.63 69.064C114.63 68.7333 114.582 68.432 114.486 68.16C114.395 67.8827 114.259 67.6453 114.078 67.448C113.902 67.2453 113.686 67.0907 113.43 66.984C113.174 66.872 112.883 66.816 112.558 66.816C111.875 66.816 111.334 67.016 110.934 67.416C110.539 67.8107 110.294 68.36 110.198 69.064H114.63ZM115.782 72.864C115.606 73.0773 115.395 73.264 115.15 73.424C114.905 73.5787 114.641 73.7067 114.358 73.808C114.081 73.9093 113.793 73.984 113.494 74.032C113.195 74.0853 112.899 74.112 112.606 74.112C112.046 74.112 111.529 74.0187 111.054 73.832C110.585 73.64 110.177 73.3627 109.83 73C109.489 72.632 109.222 72.1787 109.03 71.64C108.838 71.1013 108.742 70.4827 108.742 69.784C108.742 69.2187 108.827 68.6907 108.998 68.2C109.174 67.7093 109.425 67.2853 109.75 66.928C110.075 66.5653 110.473 66.2827 110.942 66.08C111.411 65.872 111.939 65.768 112.526 65.768C113.011 65.768 113.459 65.8507 113.87 66.016C114.286 66.176 114.643 66.4107 114.942 66.72C115.246 67.024 115.483 67.4027 115.654 67.856C115.825 68.304 115.91 68.816 115.91 69.392C115.91 69.616 115.886 69.7653 115.838 69.84C115.79 69.9147 115.699 69.952 115.566 69.952H110.15C110.166 70.464 110.235 70.9093 110.358 71.288C110.486 71.6667 110.662 71.984 110.886 72.24C111.11 72.4907 111.377 72.68 111.686 72.808C111.995 72.9307 112.342 72.992 112.726 72.992C113.083 72.992 113.39 72.952 113.646 72.872C113.907 72.7867 114.131 72.696 114.318 72.6C114.505 72.504 114.659 72.416 114.782 72.336C114.91 72.2507 115.019 72.208 115.11 72.208C115.227 72.208 115.318 72.2533 115.382 72.344L115.782 72.864ZM120.085 74.128C119.445 74.128 118.951 73.9493 118.605 73.592C118.263 73.2347 118.093 72.72 118.093 72.048V67.088H117.117C117.031 67.088 116.959 67.064 116.901 67.016C116.842 66.9627 116.813 66.8827 116.813 66.776V66.208L118.141 66.04L118.469 63.536C118.485 63.456 118.519 63.392 118.573 63.344C118.631 63.2907 118.706 63.264 118.797 63.264H119.517V66.056H121.861V67.088H119.517V71.952C119.517 72.2933 119.599 72.5467 119.765 72.712C119.93 72.8773 120.143 72.96 120.405 72.96C120.554 72.96 120.682 72.9413 120.789 72.904C120.901 72.8613 120.997 72.816 121.077 72.768C121.157 72.72 121.223 72.6773 121.277 72.64C121.335 72.5973 121.386 72.576 121.429 72.576C121.503 72.576 121.57 72.6213 121.629 72.712L122.045 73.392C121.799 73.6213 121.503 73.8027 121.157 73.936C120.81 74.064 120.453 74.128 120.085 74.128ZM128.777 67.52C129.033 66.9653 129.348 66.5333 129.721 66.224C130.094 65.9093 130.55 65.752 131.089 65.752C131.26 65.752 131.422 65.7707 131.577 65.808C131.737 65.8453 131.878 65.904 132.001 65.984L131.897 67.048C131.865 67.1813 131.785 67.248 131.657 67.248C131.582 67.248 131.473 67.232 131.329 67.2C131.185 67.168 131.022 67.152 130.841 67.152C130.585 67.152 130.356 67.1893 130.153 67.264C129.956 67.3387 129.777 67.4507 129.617 67.6C129.462 67.744 129.321 67.9253 129.193 68.144C129.07 68.3573 128.958 68.6027 128.857 68.88V74H127.425V65.896H128.241C128.396 65.896 128.502 65.9253 128.561 65.984C128.62 66.0427 128.66 66.144 128.681 66.288L128.777 67.52ZM138.349 69.064C138.349 68.7333 138.301 68.432 138.205 68.16C138.114 67.8827 137.978 67.6453 137.797 67.448C137.621 67.2453 137.405 67.0907 137.149 66.984C136.893 66.872 136.602 66.816 136.277 66.816C135.594 66.816 135.053 67.016 134.653 67.416C134.258 67.8107 134.013 68.36 133.917 69.064H138.349ZM139.501 72.864C139.325 73.0773 139.114 73.264 138.869 73.424C138.624 73.5787 138.36 73.7067 138.077 73.808C137.8 73.9093 137.512 73.984 137.213 74.032C136.914 74.0853 136.618 74.112 136.325 74.112C135.765 74.112 135.248 74.0187 134.773 73.832C134.304 73.64 133.896 73.3627 133.549 73C133.208 72.632 132.941 72.1787 132.749 71.64C132.557 71.1013 132.461 70.4827 132.461 69.784C132.461 69.2187 132.546 68.6907 132.717 68.2C132.893 67.7093 133.144 67.2853 133.469 66.928C133.794 66.5653 134.192 66.2827 134.661 66.08C135.13 65.872 135.658 65.768 136.245 65.768C136.73 65.768 137.178 65.8507 137.589 66.016C138.005 66.176 138.362 66.4107 138.661 66.72C138.965 67.024 139.202 67.4027 139.373 67.856C139.544 68.304 139.629 68.816 139.629 69.392C139.629 69.616 139.605 69.7653 139.557 69.84C139.509 69.9147 139.418 69.952 139.285 69.952H133.869C133.885 70.464 133.954 70.9093 134.077 71.288C134.205 71.6667 134.381 71.984 134.605 72.24C134.829 72.4907 135.096 72.68 135.405 72.808C135.714 72.9307 136.061 72.992 136.445 72.992C136.802 72.992 137.109 72.952 137.365 72.872C137.626 72.7867 137.85 72.696 138.037 72.6C138.224 72.504 138.378 72.416 138.501 72.336C138.629 72.2507 138.738 72.208 138.829 72.208C138.946 72.208 139.037 72.2533 139.101 72.344L139.501 72.864ZM146.098 67.232C146.034 67.3493 145.935 67.408 145.802 67.408C145.722 67.408 145.631 67.3787 145.53 67.32C145.429 67.2613 145.303 67.1973 145.154 67.128C145.01 67.0533 144.837 66.9867 144.634 66.928C144.431 66.864 144.191 66.832 143.914 66.832C143.674 66.832 143.458 66.864 143.266 66.928C143.074 66.9867 142.909 67.0693 142.77 67.176C142.637 67.2827 142.533 67.408 142.458 67.552C142.389 67.6907 142.354 67.8427 142.354 68.008C142.354 68.216 142.413 68.3893 142.53 68.528C142.653 68.6667 142.813 68.7867 143.01 68.888C143.207 68.9893 143.431 69.08 143.682 69.16C143.933 69.2347 144.189 69.3173 144.45 69.408C144.717 69.4933 144.975 69.5893 145.226 69.696C145.477 69.8027 145.701 69.936 145.898 70.096C146.095 70.256 146.253 70.4533 146.37 70.688C146.493 70.9173 146.554 71.1947 146.554 71.52C146.554 71.8933 146.487 72.24 146.354 72.56C146.221 72.8747 146.023 73.1493 145.762 73.384C145.501 73.6133 145.181 73.7947 144.802 73.928C144.423 74.0613 143.986 74.128 143.49 74.128C142.925 74.128 142.413 74.0373 141.954 73.856C141.495 73.6693 141.106 73.432 140.786 73.144L141.122 72.6C141.165 72.5307 141.215 72.4773 141.274 72.44C141.333 72.4027 141.407 72.384 141.498 72.384C141.594 72.384 141.695 72.4213 141.802 72.496C141.909 72.5707 142.037 72.6533 142.186 72.744C142.341 72.8347 142.527 72.9173 142.746 72.992C142.965 73.0667 143.237 73.104 143.562 73.104C143.839 73.104 144.082 73.0693 144.29 73C144.498 72.9253 144.671 72.8267 144.81 72.704C144.949 72.5813 145.05 72.44 145.114 72.28C145.183 72.12 145.218 71.9493 145.218 71.768C145.218 71.544 145.157 71.36 145.034 71.216C144.917 71.0667 144.759 70.9413 144.562 70.84C144.365 70.7333 144.138 70.6427 143.882 70.568C143.631 70.488 143.373 70.4053 143.106 70.32C142.845 70.2347 142.586 70.1387 142.33 70.032C142.079 69.92 141.855 69.7813 141.658 69.616C141.461 69.4507 141.301 69.248 141.178 69.008C141.061 68.7627 141.002 68.4667 141.002 68.12C141.002 67.8107 141.066 67.5147 141.194 67.232C141.322 66.944 141.509 66.6933 141.754 66.48C141.999 66.2613 142.301 66.088 142.658 65.96C143.015 65.832 143.423 65.768 143.882 65.768C144.415 65.768 144.893 65.8533 145.314 66.024C145.741 66.1893 146.109 66.4187 146.418 66.712L146.098 67.232ZM153.724 69.064C153.724 68.7333 153.676 68.432 153.58 68.16C153.489 67.8827 153.353 67.6453 153.172 67.448C152.996 67.2453 152.78 67.0907 152.524 66.984C152.268 66.872 151.977 66.816 151.652 66.816C150.969 66.816 150.428 67.016 150.028 67.416C149.633 67.8107 149.388 68.36 149.292 69.064H153.724ZM154.876 72.864C154.7 73.0773 154.489 73.264 154.244 73.424C153.999 73.5787 153.735 73.7067 153.452 73.808C153.175 73.9093 152.887 73.984 152.588 74.032C152.289 74.0853 151.993 74.112 151.7 74.112C151.14 74.112 150.623 74.0187 150.148 73.832C149.679 73.64 149.271 73.3627 148.924 73C148.583 72.632 148.316 72.1787 148.124 71.64C147.932 71.1013 147.836 70.4827 147.836 69.784C147.836 69.2187 147.921 68.6907 148.092 68.2C148.268 67.7093 148.519 67.2853 148.844 66.928C149.169 66.5653 149.567 66.2827 150.036 66.08C150.505 65.872 151.033 65.768 151.62 65.768C152.105 65.768 152.553 65.8507 152.964 66.016C153.38 66.176 153.737 66.4107 154.036 66.72C154.34 67.024 154.577 67.4027 154.748 67.856C154.919 68.304 155.004 68.816 155.004 69.392C155.004 69.616 154.98 69.7653 154.932 69.84C154.884 69.9147 154.793 69.952 154.66 69.952H149.244C149.26 70.464 149.329 70.9093 149.452 71.288C149.58 71.6667 149.756 71.984 149.98 72.24C150.204 72.4907 150.471 72.68 150.78 72.808C151.089 72.9307 151.436 72.992 151.82 72.992C152.177 72.992 152.484 72.952 152.74 72.872C153.001 72.7867 153.225 72.696 153.412 72.6C153.599 72.504 153.753 72.416 153.876 72.336C154.004 72.2507 154.113 72.208 154.204 72.208C154.321 72.208 154.412 72.2533 154.476 72.344L154.876 72.864ZM161.145 70.352C160.489 70.3733 159.929 70.4267 159.465 70.512C159.006 70.592 158.63 70.6987 158.337 70.832C158.049 70.9653 157.838 71.1227 157.705 71.304C157.577 71.4853 157.513 71.688 157.513 71.912C157.513 72.1253 157.548 72.3093 157.617 72.464C157.686 72.6187 157.78 72.7467 157.897 72.848C158.02 72.944 158.161 73.016 158.321 73.064C158.486 73.1067 158.662 73.128 158.849 73.128C159.1 73.128 159.329 73.104 159.537 73.056C159.745 73.0027 159.94 72.928 160.121 72.832C160.308 72.736 160.484 72.6213 160.649 72.488C160.82 72.3547 160.985 72.2027 161.145 72.032V70.352ZM156.545 67.04C156.993 66.608 157.476 66.2853 157.993 66.072C158.51 65.8587 159.084 65.752 159.713 65.752C160.166 65.752 160.569 65.8267 160.921 65.976C161.273 66.1253 161.569 66.3333 161.809 66.6C162.049 66.8667 162.23 67.1893 162.353 67.568C162.476 67.9467 162.537 68.3627 162.537 68.816V74H161.905C161.766 74 161.66 73.9787 161.585 73.936C161.51 73.888 161.452 73.7973 161.409 73.664L161.249 72.896C161.036 73.0933 160.828 73.2693 160.625 73.424C160.422 73.5733 160.209 73.7013 159.985 73.808C159.761 73.9093 159.521 73.9867 159.265 74.04C159.014 74.0987 158.734 74.128 158.425 74.128C158.11 74.128 157.814 74.0853 157.537 74C157.26 73.9093 157.017 73.776 156.809 73.6C156.606 73.424 156.444 73.2027 156.321 72.936C156.204 72.664 156.145 72.344 156.145 71.976C156.145 71.656 156.233 71.3493 156.409 71.056C156.585 70.7573 156.87 70.4933 157.265 70.264C157.66 70.0347 158.174 69.848 158.809 69.704C159.444 69.5547 160.222 69.4693 161.145 69.448V68.816C161.145 68.1867 161.009 67.712 160.737 67.392C160.465 67.0667 160.068 66.904 159.545 66.904C159.193 66.904 158.897 66.9493 158.657 67.04C158.422 67.1253 158.217 67.224 158.041 67.336C157.87 67.4427 157.721 67.5413 157.593 67.632C157.47 67.7173 157.348 67.76 157.225 67.76C157.129 67.76 157.046 67.736 156.977 67.688C156.908 67.6347 156.849 67.5707 156.801 67.496L156.545 67.04ZM166.058 67.52C166.314 66.9653 166.629 66.5333 167.002 66.224C167.375 65.9093 167.831 65.752 168.37 65.752C168.541 65.752 168.703 65.7707 168.858 65.808C169.018 65.8453 169.159 65.904 169.282 65.984L169.178 67.048C169.146 67.1813 169.066 67.248 168.938 67.248C168.863 67.248 168.754 67.232 168.61 67.2C168.466 67.168 168.303 67.152 168.122 67.152C167.866 67.152 167.637 67.1893 167.434 67.264C167.237 67.3387 167.058 67.4507 166.898 67.6C166.743 67.744 166.602 67.9253 166.474 68.144C166.351 68.3573 166.239 68.6027 166.138 68.88V74H164.706V65.896H165.522C165.677 65.896 165.783 65.9253 165.842 65.984C165.901 66.0427 165.941 66.144 165.962 66.288L166.058 67.52ZM175.846 67.336C175.803 67.3947 175.761 67.44 175.718 67.472C175.675 67.504 175.617 67.52 175.542 67.52C175.462 67.52 175.374 67.488 175.278 67.424C175.182 67.3547 175.062 67.28 174.918 67.2C174.779 67.12 174.606 67.048 174.398 66.984C174.195 66.9147 173.945 66.88 173.646 66.88C173.246 66.88 172.894 66.952 172.59 67.096C172.286 67.2347 172.03 67.4373 171.822 67.704C171.619 67.9707 171.465 68.2933 171.358 68.672C171.257 69.0507 171.206 69.4747 171.206 69.944C171.206 70.4347 171.262 70.872 171.374 71.256C171.486 71.6347 171.643 71.9547 171.846 72.216C172.054 72.472 172.302 72.6693 172.59 72.808C172.883 72.9413 173.211 73.008 173.574 73.008C173.921 73.008 174.206 72.968 174.43 72.888C174.654 72.8027 174.838 72.7093 174.982 72.608C175.131 72.5067 175.254 72.416 175.35 72.336C175.451 72.2507 175.55 72.208 175.646 72.208C175.763 72.208 175.854 72.2533 175.918 72.344L176.318 72.864C176.142 73.0827 175.942 73.2693 175.718 73.424C175.494 73.5787 175.251 73.7093 174.99 73.816C174.734 73.9173 174.465 73.992 174.182 74.04C173.899 74.088 173.611 74.112 173.318 74.112C172.811 74.112 172.339 74.0187 171.902 73.832C171.47 73.6453 171.094 73.376 170.774 73.024C170.454 72.6667 170.203 72.2293 170.022 71.712C169.841 71.1947 169.75 70.6053 169.75 69.944C169.75 69.3413 169.833 68.784 169.998 68.272C170.169 67.76 170.414 67.32 170.734 66.952C171.059 66.5787 171.457 66.288 171.926 66.08C172.401 65.872 172.945 65.768 173.558 65.768C174.129 65.768 174.63 65.8613 175.062 66.048C175.499 66.2293 175.886 66.488 176.222 66.824L175.846 67.336ZM179.279 66.976C179.625 66.608 180.009 66.3147 180.431 66.096C180.852 65.8773 181.337 65.768 181.887 65.768C182.329 65.768 182.719 65.8427 183.055 65.992C183.396 66.136 183.679 66.344 183.903 66.616C184.132 66.8827 184.305 67.2053 184.423 67.584C184.54 67.9627 184.599 68.3813 184.599 68.84V74H183.167V68.84C183.167 68.2267 183.025 67.752 182.743 67.416C182.465 67.0747 182.041 66.904 181.471 66.904C181.049 66.904 180.655 67.0053 180.287 67.208C179.924 67.4107 179.588 67.6853 179.279 68.032V74H177.847V62.216H179.279V66.976ZM77.888 97.768C78.3627 97.768 78.7867 97.688 79.16 97.528C79.5333 97.368 79.848 97.144 80.104 96.856C80.3653 96.568 80.5627 96.224 80.696 95.824C80.8347 95.424 80.904 94.984 80.904 94.504V87.536H82.448V94.504C82.448 95.1653 82.3413 95.7787 82.128 96.344C81.92 96.9093 81.6187 97.4 81.224 97.816C80.8347 98.2267 80.3573 98.5493 79.792 98.784C79.2267 99.0187 78.592 99.136 77.888 99.136C77.184 99.136 76.5493 99.0187 75.984 98.784C75.4187 98.5493 74.9387 98.2267 74.544 97.816C74.1493 97.4 73.8453 96.9093 73.632 96.344C73.424 95.7787 73.32 95.1653 73.32 94.504V87.536H74.864V94.496C74.864 94.976 74.9307 95.416 75.064 95.816C75.2027 96.216 75.4 96.56 75.656 96.848C75.9173 97.136 76.2347 97.3627 76.608 97.528C76.9867 97.688 77.4133 97.768 77.888 97.768ZM89.223 92.232C89.159 92.3493 89.0603 92.408 88.927 92.408C88.847 92.408 88.7563 92.3787 88.655 92.32C88.5537 92.2613 88.4283 92.1973 88.279 92.128C88.135 92.0533 87.9617 91.9867 87.759 91.928C87.5563 91.864 87.3163 91.832 87.039 91.832C86.799 91.832 86.583 91.864 86.391 91.928C86.199 91.9867 86.0337 92.0693 85.895 92.176C85.7617 92.2827 85.6577 92.408 85.583 92.552C85.5137 92.6907 85.479 92.8427 85.479 93.008C85.479 93.216 85.5377 93.3893 85.655 93.528C85.7777 93.6667 85.9377 93.7867 86.135 93.888C86.3323 93.9893 86.5563 94.08 86.807 94.16C87.0577 94.2347 87.3137 94.3173 87.575 94.408C87.8417 94.4933 88.1003 94.5893 88.351 94.696C88.6017 94.8027 88.8257 94.936 89.023 95.096C89.2203 95.256 89.3777 95.4533 89.495 95.688C89.6177 95.9173 89.679 96.1947 89.679 96.52C89.679 96.8933 89.6123 97.24 89.479 97.56C89.3457 97.8747 89.1483 98.1493 88.887 98.384C88.6257 98.6133 88.3057 98.7947 87.927 98.928C87.5483 99.0613 87.111 99.128 86.615 99.128C86.0497 99.128 85.5377 99.0373 85.079 98.856C84.6203 98.6693 84.231 98.432 83.911 98.144L84.247 97.6C84.2897 97.5307 84.3403 97.4773 84.399 97.44C84.4577 97.4027 84.5323 97.384 84.623 97.384C84.719 97.384 84.8203 97.4213 84.927 97.496C85.0337 97.5707 85.1617 97.6533 85.311 97.744C85.4657 97.8347 85.6523 97.9173 85.871 97.992C86.0897 98.0667 86.3617 98.104 86.687 98.104C86.9643 98.104 87.207 98.0693 87.415 98C87.623 97.9253 87.7963 97.8267 87.935 97.704C88.0737 97.5813 88.175 97.44 88.239 97.28C88.3083 97.12 88.343 96.9493 88.343 96.768C88.343 96.544 88.2817 96.36 88.159 96.216C88.0417 96.0667 87.8843 95.9413 87.687 95.84C87.4897 95.7333 87.263 95.6427 87.007 95.568C86.7563 95.488 86.4977 95.4053 86.231 95.32C85.9697 95.2347 85.711 95.1387 85.455 95.032C85.2043 94.92 84.9803 94.7813 84.783 94.616C84.5857 94.4507 84.4257 94.248 84.303 94.008C84.1857 93.7627 84.127 93.4667 84.127 93.12C84.127 92.8107 84.191 92.5147 84.319 92.232C84.447 91.944 84.6337 91.6933 84.879 91.48C85.1243 91.2613 85.4257 91.088 85.783 90.96C86.1403 90.832 86.5483 90.768 87.007 90.768C87.5403 90.768 88.0177 90.8533 88.439 91.024C88.8657 91.1893 89.2337 91.4187 89.543 91.712L89.223 92.232ZM96.8489 94.064C96.8489 93.7333 96.8009 93.432 96.7049 93.16C96.6142 92.8827 96.4782 92.6453 96.2969 92.448C96.1209 92.2453 95.9049 92.0907 95.6489 91.984C95.3929 91.872 95.1022 91.816 94.7769 91.816C94.0942 91.816 93.5529 92.016 93.1529 92.416C92.7582 92.8107 92.5129 93.36 92.4169 94.064H96.8489ZM98.0009 97.864C97.8249 98.0773 97.6142 98.264 97.3689 98.424C97.1235 98.5787 96.8595 98.7067 96.5769 98.808C96.2995 98.9093 96.0115 98.984 95.7129 99.032C95.4142 99.0853 95.1182 99.112 94.8249 99.112C94.2649 99.112 93.7475 99.0187 93.2729 98.832C92.8035 98.64 92.3955 98.3627 92.0489 98C91.7075 97.632 91.4409 97.1787 91.2489 96.64C91.0569 96.1013 90.9609 95.4827 90.9609 94.784C90.9609 94.2187 91.0462 93.6907 91.2169 93.2C91.3929 92.7093 91.6435 92.2853 91.9689 91.928C92.2942 91.5653 92.6915 91.2827 93.1609 91.08C93.6302 90.872 94.1582 90.768 94.7449 90.768C95.2302 90.768 95.6782 90.8507 96.0889 91.016C96.5049 91.176 96.8622 91.4107 97.1609 91.72C97.4649 92.024 97.7022 92.4027 97.8729 92.856C98.0435 93.304 98.1289 93.816 98.1289 94.392C98.1289 94.616 98.1049 94.7653 98.0569 94.84C98.0089 94.9147 97.9182 94.952 97.7849 94.952H92.3689C92.3849 95.464 92.4542 95.9093 92.5769 96.288C92.7049 96.6667 92.8809 96.984 93.1049 97.24C93.3289 97.4907 93.5955 97.68 93.9049 97.808C94.2142 97.9307 94.5609 97.992 94.9449 97.992C95.3022 97.992 95.6089 97.952 95.8649 97.872C96.1262 97.7867 96.3502 97.696 96.5369 97.6C96.7235 97.504 96.8782 97.416 97.0009 97.336C97.1289 97.2507 97.2382 97.208 97.3289 97.208C97.4462 97.208 97.5369 97.2533 97.6009 97.344L98.0009 97.864ZM101.23 92.52C101.486 91.9653 101.801 91.5333 102.174 91.224C102.547 90.9093 103.003 90.752 103.542 90.752C103.713 90.752 103.875 90.7707 104.03 90.808C104.19 90.8453 104.331 90.904 104.454 90.984L104.35 92.048C104.318 92.1813 104.238 92.248 104.11 92.248C104.035 92.248 103.926 92.232 103.782 92.2C103.638 92.168 103.475 92.152 103.294 92.152C103.038 92.152 102.809 92.1893 102.606 92.264C102.409 92.3387 102.23 92.4507 102.07 92.6C101.915 92.744 101.774 92.9253 101.646 93.144C101.523 93.3573 101.411 93.6027 101.31 93.88V99H99.878V90.896H100.694C100.849 90.896 100.955 90.9253 101.014 90.984C101.073 91.0427 101.113 91.144 101.134 91.288L101.23 92.52ZM110.96 90.896V99H109.536V90.896H110.96ZM111.264 88.352C111.264 88.4907 111.235 88.6213 111.176 88.744C111.123 88.8613 111.048 88.968 110.952 89.064C110.861 89.1547 110.752 89.2267 110.624 89.28C110.501 89.3333 110.371 89.36 110.232 89.36C110.093 89.36 109.963 89.3333 109.84 89.28C109.723 89.2267 109.619 89.1547 109.528 89.064C109.437 88.968 109.365 88.8613 109.312 88.744C109.259 88.6213 109.232 88.4907 109.232 88.352C109.232 88.2133 109.259 88.0827 109.312 87.96C109.365 87.832 109.437 87.7227 109.528 87.632C109.619 87.536 109.723 87.4613 109.84 87.408C109.963 87.3547 110.093 87.328 110.232 87.328C110.371 87.328 110.501 87.3547 110.624 87.408C110.752 87.4613 110.861 87.536 110.952 87.632C111.048 87.7227 111.123 87.832 111.176 87.96C111.235 88.0827 111.264 88.2133 111.264 88.352ZM114.644 92.072C114.82 91.8747 115.007 91.696 115.204 91.536C115.401 91.376 115.609 91.24 115.828 91.128C116.052 91.0107 116.287 90.9227 116.532 90.864C116.783 90.8 117.052 90.768 117.34 90.768C117.783 90.768 118.172 90.8427 118.508 90.992C118.849 91.136 119.132 91.344 119.356 91.616C119.585 91.8827 119.759 92.2053 119.876 92.584C119.993 92.9627 120.052 93.3813 120.052 93.84V99H118.62V93.84C118.62 93.2267 118.479 92.752 118.196 92.416C117.919 92.0747 117.495 91.904 116.924 91.904C116.503 91.904 116.108 92.0053 115.74 92.208C115.377 92.4107 115.041 92.6853 114.732 93.032V99H113.3V90.896H114.156C114.359 90.896 114.484 90.9947 114.532 91.192L114.644 92.072ZM124.6 99.128C123.96 99.128 123.467 98.9493 123.12 98.592C122.779 98.2347 122.608 97.72 122.608 97.048V92.088H121.632C121.547 92.088 121.475 92.064 121.416 92.016C121.358 91.9627 121.328 91.8827 121.328 91.776V91.208L122.656 91.04L122.984 88.536C123 88.456 123.035 88.392 123.088 88.344C123.147 88.2907 123.222 88.264 123.312 88.264H124.032V91.056H126.376V92.088H124.032V96.952C124.032 97.2933 124.115 97.5467 124.28 97.712C124.446 97.8773 124.659 97.96 124.92 97.96C125.07 97.96 125.198 97.9413 125.304 97.904C125.416 97.8613 125.512 97.816 125.592 97.768C125.672 97.72 125.739 97.6773 125.792 97.64C125.851 97.5973 125.902 97.576 125.944 97.576C126.019 97.576 126.086 97.6213 126.144 97.712L126.56 98.392C126.315 98.6213 126.019 98.8027 125.672 98.936C125.326 99.064 124.968 99.128 124.6 99.128ZM133.224 94.064C133.224 93.7333 133.176 93.432 133.08 93.16C132.989 92.8827 132.853 92.6453 132.672 92.448C132.496 92.2453 132.28 92.0907 132.024 91.984C131.768 91.872 131.477 91.816 131.152 91.816C130.469 91.816 129.928 92.016 129.528 92.416C129.133 92.8107 128.888 93.36 128.792 94.064H133.224ZM134.376 97.864C134.2 98.0773 133.989 98.264 133.744 98.424C133.499 98.5787 133.235 98.7067 132.952 98.808C132.675 98.9093 132.387 98.984 132.088 99.032C131.789 99.0853 131.493 99.112 131.2 99.112C130.64 99.112 130.123 99.0187 129.648 98.832C129.179 98.64 128.771 98.3627 128.424 98C128.083 97.632 127.816 97.1787 127.624 96.64C127.432 96.1013 127.336 95.4827 127.336 94.784C127.336 94.2187 127.421 93.6907 127.592 93.2C127.768 92.7093 128.019 92.2853 128.344 91.928C128.669 91.5653 129.067 91.2827 129.536 91.08C130.005 90.872 130.533 90.768 131.12 90.768C131.605 90.768 132.053 90.8507 132.464 91.016C132.88 91.176 133.237 91.4107 133.536 91.72C133.84 92.024 134.077 92.4027 134.248 92.856C134.419 93.304 134.504 93.816 134.504 94.392C134.504 94.616 134.48 94.7653 134.432 94.84C134.384 94.9147 134.293 94.952 134.16 94.952H128.744C128.76 95.464 128.829 95.9093 128.952 96.288C129.08 96.6667 129.256 96.984 129.48 97.24C129.704 97.4907 129.971 97.68 130.28 97.808C130.589 97.9307 130.936 97.992 131.32 97.992C131.677 97.992 131.984 97.952 132.24 97.872C132.501 97.7867 132.725 97.696 132.912 97.6C133.099 97.504 133.253 97.416 133.376 97.336C133.504 97.2507 133.613 97.208 133.704 97.208C133.821 97.208 133.912 97.2533 133.976 97.344L134.376 97.864ZM137.605 92.52C137.861 91.9653 138.176 91.5333 138.549 91.224C138.922 90.9093 139.378 90.752 139.917 90.752C140.088 90.752 140.25 90.7707 140.405 90.808C140.565 90.8453 140.706 90.904 140.829 90.984L140.725 92.048C140.693 92.1813 140.613 92.248 140.485 92.248C140.41 92.248 140.301 92.232 140.157 92.2C140.013 92.168 139.85 92.152 139.669 92.152C139.413 92.152 139.184 92.1893 138.981 92.264C138.784 92.3387 138.605 92.4507 138.445 92.6C138.29 92.744 138.149 92.9253 138.021 93.144C137.898 93.3573 137.786 93.6027 137.685 93.88V99H136.253V90.896H137.069C137.224 90.896 137.33 90.9253 137.389 90.984C137.448 91.0427 137.488 91.144 137.509 91.288L137.605 92.52ZM149.025 90.896L145.721 99H144.441L141.137 90.896H142.297C142.414 90.896 142.51 90.9253 142.585 90.984C142.66 91.0427 142.71 91.112 142.737 91.192L144.793 96.408C144.857 96.6053 144.913 96.7973 144.961 96.984C145.009 97.1707 145.054 97.3573 145.097 97.544C145.14 97.3573 145.185 97.1707 145.233 96.984C145.281 96.7973 145.34 96.6053 145.409 96.408L147.489 91.192C147.521 91.1067 147.574 91.0373 147.649 90.984C147.724 90.9253 147.812 90.896 147.913 90.896H149.025ZM151.835 90.896V99H150.411V90.896H151.835ZM152.139 88.352C152.139 88.4907 152.11 88.6213 152.051 88.744C151.998 88.8613 151.923 88.968 151.827 89.064C151.736 89.1547 151.627 89.2267 151.499 89.28C151.376 89.3333 151.246 89.36 151.107 89.36C150.968 89.36 150.838 89.3333 150.715 89.28C150.598 89.2267 150.494 89.1547 150.403 89.064C150.312 88.968 150.24 88.8613 150.187 88.744C150.134 88.6213 150.107 88.4907 150.107 88.352C150.107 88.2133 150.134 88.0827 150.187 87.96C150.24 87.832 150.312 87.7227 150.403 87.632C150.494 87.536 150.598 87.4613 150.715 87.408C150.838 87.3547 150.968 87.328 151.107 87.328C151.246 87.328 151.376 87.3547 151.499 87.408C151.627 87.4613 151.736 87.536 151.827 87.632C151.923 87.7227 151.998 87.832 152.051 87.96C152.11 88.0827 152.139 88.2133 152.139 88.352ZM159.599 94.064C159.599 93.7333 159.551 93.432 159.455 93.16C159.364 92.8827 159.228 92.6453 159.047 92.448C158.871 92.2453 158.655 92.0907 158.399 91.984C158.143 91.872 157.852 91.816 157.527 91.816C156.844 91.816 156.303 92.016 155.903 92.416C155.508 92.8107 155.263 93.36 155.167 94.064H159.599ZM160.751 97.864C160.575 98.0773 160.364 98.264 160.119 98.424C159.874 98.5787 159.61 98.7067 159.327 98.808C159.05 98.9093 158.762 98.984 158.463 99.032C158.164 99.0853 157.868 99.112 157.575 99.112C157.015 99.112 156.498 99.0187 156.023 98.832C155.554 98.64 155.146 98.3627 154.799 98C154.458 97.632 154.191 97.1787 153.999 96.64C153.807 96.1013 153.711 95.4827 153.711 94.784C153.711 94.2187 153.796 93.6907 153.967 93.2C154.143 92.7093 154.394 92.2853 154.719 91.928C155.044 91.5653 155.442 91.2827 155.911 91.08C156.38 90.872 156.908 90.768 157.495 90.768C157.98 90.768 158.428 90.8507 158.839 91.016C159.255 91.176 159.612 91.4107 159.911 91.72C160.215 92.024 160.452 92.4027 160.623 92.856C160.794 93.304 160.879 93.816 160.879 94.392C160.879 94.616 160.855 94.7653 160.807 94.84C160.759 94.9147 160.668 94.952 160.535 94.952H155.119C155.135 95.464 155.204 95.9093 155.327 96.288C155.455 96.6667 155.631 96.984 155.855 97.24C156.079 97.4907 156.346 97.68 156.655 97.808C156.964 97.9307 157.311 97.992 157.695 97.992C158.052 97.992 158.359 97.952 158.615 97.872C158.876 97.7867 159.1 97.696 159.287 97.6C159.474 97.504 159.628 97.416 159.751 97.336C159.879 97.2507 159.988 97.208 160.079 97.208C160.196 97.208 160.287 97.2533 160.351 97.344L160.751 97.864ZM173.726 90.896L171.102 99H169.974C169.835 99 169.739 98.9093 169.686 98.728L167.894 93.232C167.851 93.1093 167.817 92.9867 167.79 92.864C167.763 92.736 167.737 92.6107 167.71 92.488C167.683 92.6107 167.657 92.736 167.63 92.864C167.603 92.9867 167.569 93.112 167.526 93.24L165.702 98.728C165.654 98.9093 165.547 99 165.382 99H164.31L161.686 90.896H162.806C162.918 90.896 163.011 90.9253 163.086 90.984C163.166 91.0427 163.219 91.112 163.246 91.192L164.798 96.408C164.889 96.792 164.961 97.1547 165.014 97.496C165.062 97.32 165.11 97.1413 165.158 96.96C165.211 96.7787 165.267 96.5947 165.326 96.408L167.038 91.16C167.065 91.08 167.11 91.0133 167.174 90.96C167.243 90.9067 167.326 90.88 167.422 90.88H168.046C168.153 90.88 168.241 90.9067 168.31 90.96C168.379 91.0133 168.427 91.08 168.454 91.16L170.126 96.408C170.185 96.5947 170.238 96.7787 170.286 96.96C170.334 97.1413 170.379 97.32 170.422 97.496C170.449 97.32 170.481 97.144 170.518 96.968C170.561 96.7867 170.606 96.6 170.654 96.408L172.238 91.192C172.265 91.1067 172.315 91.0373 172.39 90.984C172.465 90.9253 172.553 90.896 172.654 90.896H173.726ZM179.77 92.232C179.706 92.3493 179.607 92.408 179.474 92.408C179.394 92.408 179.303 92.3787 179.202 92.32C179.101 92.2613 178.975 92.1973 178.826 92.128C178.682 92.0533 178.509 91.9867 178.306 91.928C178.103 91.864 177.863 91.832 177.586 91.832C177.346 91.832 177.13 91.864 176.938 91.928C176.746 91.9867 176.581 92.0693 176.442 92.176C176.309 92.2827 176.205 92.408 176.13 92.552C176.061 92.6907 176.026 92.8427 176.026 93.008C176.026 93.216 176.085 93.3893 176.202 93.528C176.325 93.6667 176.485 93.7867 176.682 93.888C176.879 93.9893 177.103 94.08 177.354 94.16C177.605 94.2347 177.861 94.3173 178.122 94.408C178.389 94.4933 178.647 94.5893 178.898 94.696C179.149 94.8027 179.373 94.936 179.57 95.096C179.767 95.256 179.925 95.4533 180.042 95.688C180.165 95.9173 180.226 96.1947 180.226 96.52C180.226 96.8933 180.159 97.24 180.026 97.56C179.893 97.8747 179.695 98.1493 179.434 98.384C179.173 98.6133 178.853 98.7947 178.474 98.928C178.095 99.0613 177.658 99.128 177.162 99.128C176.597 99.128 176.085 99.0373 175.626 98.856C175.167 98.6693 174.778 98.432 174.458 98.144L174.794 97.6C174.837 97.5307 174.887 97.4773 174.946 97.44C175.005 97.4027 175.079 97.384 175.17 97.384C175.266 97.384 175.367 97.4213 175.474 97.496C175.581 97.5707 175.709 97.6533 175.858 97.744C176.013 97.8347 176.199 97.9173 176.418 97.992C176.637 98.0667 176.909 98.104 177.234 98.104C177.511 98.104 177.754 98.0693 177.962 98C178.17 97.9253 178.343 97.8267 178.482 97.704C178.621 97.5813 178.722 97.44 178.786 97.28C178.855 97.12 178.89 96.9493 178.89 96.768C178.89 96.544 178.829 96.36 178.706 96.216C178.589 96.0667 178.431 95.9413 178.234 95.84C178.037 95.7333 177.81 95.6427 177.554 95.568C177.303 95.488 177.045 95.4053 176.778 95.32C176.517 95.2347 176.258 95.1387 176.002 95.032C175.751 94.92 175.527 94.7813 175.33 94.616C175.133 94.4507 174.973 94.248 174.85 94.008C174.733 93.7627 174.674 93.4667 174.674 93.12C174.674 92.8107 174.738 92.5147 174.866 92.232C174.994 91.944 175.181 91.6933 175.426 91.48C175.671 91.2613 175.973 91.088 176.33 90.96C176.687 90.832 177.095 90.768 177.554 90.768C178.087 90.768 178.565 90.8533 178.986 91.024C179.413 91.1893 179.781 91.4187 180.09 91.712L179.77 92.232ZM81.512 121.632C81.5973 121.632 81.672 121.667 81.736 121.736L82.352 122.4C81.8827 122.944 81.312 123.368 80.64 123.672C79.9733 123.976 79.1653 124.128 78.216 124.128C77.3947 124.128 76.648 123.987 75.976 123.704C75.304 123.416 74.7307 123.016 74.256 122.504C73.7813 121.987 73.4133 121.368 73.152 120.648C72.8907 119.928 72.76 119.136 72.76 118.272C72.76 117.408 72.896 116.616 73.168 115.896C73.44 115.176 73.8213 114.557 74.312 114.04C74.808 113.523 75.4 113.123 76.088 112.84C76.776 112.552 77.536 112.408 78.368 112.408C79.184 112.408 79.904 112.539 80.528 112.8C81.152 113.061 81.7013 113.416 82.176 113.864L81.664 114.576C81.632 114.629 81.5893 114.675 81.536 114.712C81.488 114.744 81.4213 114.76 81.336 114.76C81.24 114.76 81.1227 114.709 80.984 114.608C80.8453 114.501 80.664 114.384 80.44 114.256C80.216 114.128 79.936 114.013 79.6 113.912C79.264 113.805 78.8507 113.752 78.36 113.752C77.768 113.752 77.2267 113.856 76.736 114.064C76.2453 114.267 75.8213 114.563 75.464 114.952C75.112 115.341 74.8373 115.816 74.64 116.376C74.4427 116.936 74.344 117.568 74.344 118.272C74.344 118.987 74.4453 119.624 74.648 120.184C74.856 120.744 75.136 121.219 75.488 121.608C75.8453 121.992 76.264 122.285 76.744 122.488C77.2293 122.691 77.752 122.792 78.312 122.792C78.6533 122.792 78.96 122.773 79.232 122.736C79.5093 122.693 79.7627 122.629 79.992 122.544C80.2267 122.459 80.4427 122.352 80.64 122.224C80.8427 122.091 81.0427 121.933 81.24 121.752C81.3307 121.672 81.4213 121.632 81.512 121.632ZM87.0753 115.768C87.6673 115.768 88.2006 115.867 88.6753 116.064C89.1499 116.261 89.5553 116.541 89.8913 116.904C90.2273 117.267 90.4833 117.707 90.6593 118.224C90.8406 118.736 90.9313 119.309 90.9313 119.944C90.9313 120.584 90.8406 121.16 90.6593 121.672C90.4833 122.184 90.2273 122.621 89.8913 122.984C89.5553 123.347 89.1499 123.627 88.6753 123.824C88.2006 124.016 87.6673 124.112 87.0753 124.112C86.4779 124.112 85.9393 124.016 85.4593 123.824C84.9846 123.627 84.5793 123.347 84.2433 122.984C83.9073 122.621 83.6486 122.184 83.4673 121.672C83.2913 121.16 83.2033 120.584 83.2033 119.944C83.2033 119.309 83.2913 118.736 83.4673 118.224C83.6486 117.707 83.9073 117.267 84.2433 116.904C84.5793 116.541 84.9846 116.261 85.4593 116.064C85.9393 115.867 86.4779 115.768 87.0753 115.768ZM87.0753 123C87.8753 123 88.4726 122.733 88.8673 122.2C89.2619 121.661 89.4593 120.912 89.4593 119.952C89.4593 118.987 89.2619 118.235 88.8673 117.696C88.4726 117.157 87.8753 116.888 87.0753 116.888C86.6699 116.888 86.3153 116.957 86.0113 117.096C85.7126 117.235 85.4619 117.435 85.2593 117.696C85.0619 117.957 84.9126 118.28 84.8113 118.664C84.7153 119.043 84.6673 119.472 84.6673 119.952C84.6673 120.912 84.8646 121.661 85.2593 122.2C85.6593 122.733 86.2646 123 87.0753 123ZM92.7374 124V115.896H93.5934C93.796 115.896 93.9214 115.995 93.9694 116.192L94.0734 117.024C94.372 116.656 94.708 116.355 95.0814 116.12C95.4547 115.885 95.8867 115.768 96.3774 115.768C96.9214 115.768 97.3614 115.92 97.6974 116.224C98.0387 116.528 98.284 116.939 98.4334 117.456C98.5507 117.163 98.7 116.909 98.8814 116.696C99.068 116.483 99.276 116.307 99.5054 116.168C99.7347 116.029 99.9774 115.928 100.233 115.864C100.495 115.8 100.759 115.768 101.025 115.768C101.452 115.768 101.831 115.837 102.161 115.976C102.497 116.109 102.78 116.307 103.009 116.568C103.244 116.829 103.423 117.152 103.545 117.536C103.668 117.915 103.729 118.349 103.729 118.84V124H102.297V118.84C102.297 118.205 102.159 117.725 101.881 117.4C101.604 117.069 101.204 116.904 100.681 116.904C100.447 116.904 100.223 116.947 100.009 117.032C99.8014 117.112 99.6174 117.232 99.4574 117.392C99.2974 117.552 99.1694 117.755 99.0734 118C98.9827 118.24 98.9374 118.52 98.9374 118.84V124H97.5054V118.84C97.5054 118.189 97.3747 117.704 97.1134 117.384C96.852 117.064 96.4707 116.904 95.9694 116.904C95.6174 116.904 95.292 117 94.9934 117.192C94.6947 117.379 94.42 117.635 94.1694 117.96V124H92.7374ZM107.326 122.048C107.587 122.4 107.872 122.648 108.182 122.792C108.491 122.936 108.838 123.008 109.222 123.008C109.979 123.008 110.56 122.739 110.966 122.2C111.371 121.661 111.574 120.893 111.574 119.896C111.574 119.368 111.526 118.915 111.43 118.536C111.339 118.157 111.206 117.848 111.03 117.608C110.854 117.363 110.638 117.184 110.382 117.072C110.126 116.96 109.835 116.904 109.51 116.904C109.046 116.904 108.638 117.011 108.286 117.224C107.939 117.437 107.619 117.739 107.326 118.128V122.048ZM107.254 117.152C107.595 116.731 107.99 116.392 108.438 116.136C108.886 115.88 109.398 115.752 109.974 115.752C110.443 115.752 110.867 115.843 111.246 116.024C111.624 116.2 111.947 116.464 112.214 116.816C112.48 117.163 112.686 117.595 112.83 118.112C112.974 118.629 113.046 119.224 113.046 119.896C113.046 120.493 112.966 121.051 112.806 121.568C112.646 122.08 112.414 122.525 112.11 122.904C111.811 123.277 111.443 123.573 111.006 123.792C110.574 124.005 110.086 124.112 109.542 124.112C109.046 124.112 108.619 124.029 108.262 123.864C107.91 123.693 107.598 123.459 107.326 123.16V126.744H105.894V115.896H106.75C106.952 115.896 107.078 115.995 107.126 116.192L107.254 117.152ZM120.286 119.064C120.286 118.733 120.238 118.432 120.142 118.16C120.052 117.883 119.916 117.645 119.734 117.448C119.558 117.245 119.342 117.091 119.086 116.984C118.83 116.872 118.54 116.816 118.214 116.816C117.532 116.816 116.99 117.016 116.59 117.416C116.196 117.811 115.95 118.36 115.854 119.064H120.286ZM121.438 122.864C121.262 123.077 121.052 123.264 120.806 123.424C120.561 123.579 120.297 123.707 120.014 123.808C119.737 123.909 119.449 123.984 119.15 124.032C118.852 124.085 118.556 124.112 118.262 124.112C117.702 124.112 117.185 124.019 116.71 123.832C116.241 123.64 115.833 123.363 115.486 123C115.145 122.632 114.878 122.179 114.686 121.64C114.494 121.101 114.398 120.483 114.398 119.784C114.398 119.219 114.484 118.691 114.654 118.2C114.83 117.709 115.081 117.285 115.406 116.928C115.732 116.565 116.129 116.283 116.598 116.08C117.068 115.872 117.596 115.768 118.182 115.768C118.668 115.768 119.116 115.851 119.526 116.016C119.942 116.176 120.3 116.411 120.598 116.72C120.902 117.024 121.14 117.403 121.31 117.856C121.481 118.304 121.566 118.816 121.566 119.392C121.566 119.616 121.542 119.765 121.494 119.84C121.446 119.915 121.356 119.952 121.222 119.952H115.806C115.822 120.464 115.892 120.909 116.014 121.288C116.142 121.667 116.318 121.984 116.542 122.24C116.766 122.491 117.033 122.68 117.342 122.808C117.652 122.931 117.998 122.992 118.382 122.992C118.74 122.992 119.046 122.952 119.302 122.872C119.564 122.787 119.788 122.696 119.974 122.6C120.161 122.504 120.316 122.416 120.438 122.336C120.566 122.251 120.676 122.208 120.766 122.208C120.884 122.208 120.974 122.253 121.038 122.344L121.438 122.864ZM130.773 124H129.349V117.088H125.173V121.952C125.173 122.293 125.256 122.547 125.421 122.712C125.586 122.877 125.8 122.96 126.061 122.96C126.21 122.96 126.338 122.941 126.445 122.904C126.557 122.861 126.653 122.816 126.733 122.768C126.813 122.72 126.88 122.677 126.933 122.64C126.992 122.597 127.042 122.576 127.085 122.576C127.16 122.576 127.226 122.621 127.285 122.712L127.701 123.392C127.456 123.621 127.16 123.803 126.813 123.936C126.466 124.064 126.109 124.128 125.741 124.128C125.101 124.128 124.608 123.949 124.261 123.592C123.92 123.235 123.749 122.72 123.749 122.048V117.088H122.773C122.688 117.088 122.616 117.064 122.557 117.016C122.498 116.963 122.469 116.883 122.469 116.776V116.208L123.797 116.032L124.125 113.536C124.141 113.456 124.176 113.392 124.229 113.344C124.288 113.291 124.362 113.264 124.453 113.264H125.173V116.056H130.773V124ZM131.125 113.296C131.125 113.435 131.096 113.565 131.037 113.688C130.984 113.805 130.909 113.909 130.813 114C130.722 114.091 130.616 114.163 130.493 114.216C130.37 114.269 130.24 114.296 130.101 114.296C129.962 114.296 129.832 114.269 129.709 114.216C129.592 114.163 129.488 114.091 129.397 114C129.306 113.909 129.234 113.805 129.181 113.688C129.128 113.565 129.101 113.435 129.101 113.296C129.101 113.157 129.128 113.027 129.181 112.904C129.234 112.776 129.306 112.667 129.397 112.576C129.488 112.48 129.592 112.405 129.709 112.352C129.832 112.299 129.962 112.272 130.101 112.272C130.24 112.272 130.37 112.299 130.493 112.352C130.616 112.405 130.722 112.48 130.813 112.576C130.909 112.667 130.984 112.776 131.037 112.904C131.096 113.027 131.125 113.157 131.125 113.296ZM135.6 124.128C134.96 124.128 134.467 123.949 134.12 123.592C133.779 123.235 133.608 122.72 133.608 122.048V117.088H132.632C132.547 117.088 132.475 117.064 132.416 117.016C132.358 116.963 132.328 116.883 132.328 116.776V116.208L133.656 116.04L133.984 113.536C134 113.456 134.035 113.392 134.088 113.344C134.147 113.291 134.222 113.264 134.312 113.264H135.032V116.056H137.376V117.088H135.032V121.952C135.032 122.293 135.115 122.547 135.28 122.712C135.446 122.877 135.659 122.96 135.92 122.96C136.07 122.96 136.198 122.941 136.304 122.904C136.416 122.861 136.512 122.816 136.592 122.768C136.672 122.72 136.739 122.677 136.792 122.64C136.851 122.597 136.902 122.576 136.944 122.576C137.019 122.576 137.086 122.621 137.144 122.712L137.56 123.392C137.315 123.621 137.019 123.803 136.672 123.936C136.326 124.064 135.968 124.128 135.6 124.128ZM142.216 115.768C142.808 115.768 143.341 115.867 143.816 116.064C144.291 116.261 144.696 116.541 145.032 116.904C145.368 117.267 145.624 117.707 145.8 118.224C145.981 118.736 146.072 119.309 146.072 119.944C146.072 120.584 145.981 121.16 145.8 121.672C145.624 122.184 145.368 122.621 145.032 122.984C144.696 123.347 144.291 123.627 143.816 123.824C143.341 124.016 142.808 124.112 142.216 124.112C141.619 124.112 141.08 124.016 140.6 123.824C140.125 123.627 139.72 123.347 139.384 122.984C139.048 122.621 138.789 122.184 138.608 121.672C138.432 121.16 138.344 120.584 138.344 119.944C138.344 119.309 138.432 118.736 138.608 118.224C138.789 117.707 139.048 117.267 139.384 116.904C139.72 116.541 140.125 116.261 140.6 116.064C141.08 115.867 141.619 115.768 142.216 115.768ZM142.216 123C143.016 123 143.613 122.733 144.008 122.2C144.403 121.661 144.6 120.912 144.6 119.952C144.6 118.987 144.403 118.235 144.008 117.696C143.613 117.157 143.016 116.888 142.216 116.888C141.811 116.888 141.456 116.957 141.152 117.096C140.853 117.235 140.603 117.435 140.4 117.696C140.203 117.957 140.053 118.28 139.952 118.664C139.856 119.043 139.808 119.472 139.808 119.952C139.808 120.912 140.005 121.661 140.4 122.2C140.8 122.733 141.405 123 142.216 123ZM149.23 117.52C149.486 116.965 149.801 116.533 150.174 116.224C150.547 115.909 151.003 115.752 151.542 115.752C151.713 115.752 151.875 115.771 152.03 115.808C152.19 115.845 152.331 115.904 152.454 115.984L152.35 117.048C152.318 117.181 152.238 117.248 152.11 117.248C152.035 117.248 151.926 117.232 151.782 117.2C151.638 117.168 151.475 117.152 151.294 117.152C151.038 117.152 150.809 117.189 150.606 117.264C150.409 117.339 150.23 117.451 150.07 117.6C149.915 117.744 149.774 117.925 149.646 118.144C149.523 118.357 149.411 118.603 149.31 118.88V124H147.878V115.896H148.694C148.849 115.896 148.955 115.925 149.014 115.984C149.073 116.043 149.113 116.144 149.134 116.288L149.23 117.52ZM157.984 124V117.112L157.088 117.008C156.976 116.981 156.883 116.941 156.808 116.888C156.739 116.829 156.704 116.747 156.704 116.64V116.056H157.984V115.272C157.984 114.808 158.048 114.397 158.176 114.04C158.309 113.677 158.496 113.373 158.736 113.128C158.981 112.877 159.275 112.688 159.616 112.56C159.957 112.432 160.341 112.368 160.768 112.368C161.131 112.368 161.464 112.421 161.768 112.528L161.736 113.24C161.725 113.368 161.653 113.437 161.52 113.448C161.392 113.459 161.219 113.464 161 113.464C160.755 113.464 160.531 113.496 160.328 113.56C160.131 113.624 159.96 113.728 159.816 113.872C159.672 114.016 159.56 114.205 159.48 114.44C159.405 114.675 159.368 114.965 159.368 115.312V116.056H161.704V117.088H159.416V124H157.984ZM168.224 119.064C168.224 118.733 168.176 118.432 168.08 118.16C167.989 117.883 167.853 117.645 167.672 117.448C167.496 117.245 167.28 117.091 167.024 116.984C166.768 116.872 166.477 116.816 166.152 116.816C165.469 116.816 164.928 117.016 164.528 117.416C164.133 117.811 163.888 118.36 163.792 119.064H168.224ZM169.376 122.864C169.2 123.077 168.989 123.264 168.744 123.424C168.499 123.579 168.235 123.707 167.952 123.808C167.675 123.909 167.387 123.984 167.088 124.032C166.789 124.085 166.493 124.112 166.2 124.112C165.64 124.112 165.123 124.019 164.648 123.832C164.179 123.64 163.771 123.363 163.424 123C163.083 122.632 162.816 122.179 162.624 121.64C162.432 121.101 162.336 120.483 162.336 119.784C162.336 119.219 162.421 118.691 162.592 118.2C162.768 117.709 163.019 117.285 163.344 116.928C163.669 116.565 164.067 116.283 164.536 116.08C165.005 115.872 165.533 115.768 166.12 115.768C166.605 115.768 167.053 115.851 167.464 116.016C167.88 116.176 168.237 116.411 168.536 116.72C168.84 117.024 169.077 117.403 169.248 117.856C169.419 118.304 169.504 118.816 169.504 119.392C169.504 119.616 169.48 119.765 169.432 119.84C169.384 119.915 169.293 119.952 169.16 119.952H163.744C163.76 120.464 163.829 120.909 163.952 121.288C164.08 121.667 164.256 121.984 164.48 122.24C164.704 122.491 164.971 122.68 165.28 122.808C165.589 122.931 165.936 122.992 166.32 122.992C166.677 122.992 166.984 122.952 167.24 122.872C167.501 122.787 167.725 122.696 167.912 122.6C168.099 122.504 168.253 122.416 168.376 122.336C168.504 122.251 168.613 122.208 168.704 122.208C168.821 122.208 168.912 122.253 168.976 122.344L169.376 122.864ZM175.645 120.352C174.989 120.373 174.429 120.427 173.965 120.512C173.506 120.592 173.13 120.699 172.837 120.832C172.549 120.965 172.338 121.123 172.205 121.304C172.077 121.485 172.013 121.688 172.013 121.912C172.013 122.125 172.048 122.309 172.117 122.464C172.186 122.619 172.28 122.747 172.397 122.848C172.52 122.944 172.661 123.016 172.821 123.064C172.986 123.107 173.162 123.128 173.349 123.128C173.6 123.128 173.829 123.104 174.037 123.056C174.245 123.003 174.44 122.928 174.621 122.832C174.808 122.736 174.984 122.621 175.149 122.488C175.32 122.355 175.485 122.203 175.645 122.032V120.352ZM171.045 117.04C171.493 116.608 171.976 116.285 172.493 116.072C173.01 115.859 173.584 115.752 174.213 115.752C174.666 115.752 175.069 115.827 175.421 115.976C175.773 116.125 176.069 116.333 176.309 116.6C176.549 116.867 176.73 117.189 176.853 117.568C176.976 117.947 177.037 118.363 177.037 118.816V124H176.405C176.266 124 176.16 123.979 176.085 123.936C176.01 123.888 175.952 123.797 175.909 123.664L175.749 122.896C175.536 123.093 175.328 123.269 175.125 123.424C174.922 123.573 174.709 123.701 174.485 123.808C174.261 123.909 174.021 123.987 173.765 124.04C173.514 124.099 173.234 124.128 172.925 124.128C172.61 124.128 172.314 124.085 172.037 124C171.76 123.909 171.517 123.776 171.309 123.6C171.106 123.424 170.944 123.203 170.821 122.936C170.704 122.664 170.645 122.344 170.645 121.976C170.645 121.656 170.733 121.349 170.909 121.056C171.085 120.757 171.37 120.493 171.765 120.264C172.16 120.035 172.674 119.848 173.309 119.704C173.944 119.555 174.722 119.469 175.645 119.448V118.816C175.645 118.187 175.509 117.712 175.237 117.392C174.965 117.067 174.568 116.904 174.045 116.904C173.693 116.904 173.397 116.949 173.157 117.04C172.922 117.125 172.717 117.224 172.541 117.336C172.37 117.443 172.221 117.541 172.093 117.632C171.97 117.717 171.848 117.76 171.725 117.76C171.629 117.76 171.546 117.736 171.477 117.688C171.408 117.635 171.349 117.571 171.301 117.496L171.045 117.04ZM181.585 124.128C180.945 124.128 180.451 123.949 180.105 123.592C179.763 123.235 179.593 122.72 179.593 122.048V117.088H178.617C178.531 117.088 178.459 117.064 178.401 117.016C178.342 116.963 178.313 116.883 178.313 116.776V116.208L179.641 116.04L179.969 113.536C179.985 113.456 180.019 113.392 180.073 113.344C180.131 113.291 180.206 113.264 180.297 113.264H181.017V116.056H183.361V117.088H181.017V121.952C181.017 122.293 181.099 122.547 181.265 122.712C181.43 122.877 181.643 122.96 181.905 122.96C182.054 122.96 182.182 122.941 182.289 122.904C182.401 122.861 182.497 122.816 182.577 122.768C182.657 122.72 182.723 122.677 182.777 122.64C182.835 122.597 182.886 122.576 182.929 122.576C183.003 122.576 183.07 122.621 183.129 122.712L183.545 123.392C183.299 123.621 183.003 123.803 182.657 123.936C182.31 124.064 181.953 124.128 181.585 124.128ZM191.495 115.896V124H190.647C190.444 124 190.316 123.901 190.263 123.704L190.151 122.832C189.799 123.221 189.404 123.536 188.967 123.776C188.53 124.011 188.028 124.128 187.463 124.128C187.02 124.128 186.628 124.056 186.287 123.912C185.951 123.763 185.668 123.555 185.439 123.288C185.21 123.021 185.036 122.699 184.919 122.32C184.807 121.941 184.751 121.523 184.751 121.064V115.896H186.175V121.064C186.175 121.677 186.314 122.152 186.591 122.488C186.874 122.824 187.303 122.992 187.879 122.992C188.3 122.992 188.692 122.893 189.055 122.696C189.423 122.493 189.762 122.216 190.071 121.864V115.896H191.495ZM195.105 117.52C195.361 116.965 195.676 116.533 196.049 116.224C196.422 115.909 196.878 115.752 197.417 115.752C197.588 115.752 197.75 115.771 197.905 115.808C198.065 115.845 198.206 115.904 198.329 115.984L198.225 117.048C198.193 117.181 198.113 117.248 197.985 117.248C197.91 117.248 197.801 117.232 197.657 117.2C197.513 117.168 197.35 117.152 197.169 117.152C196.913 117.152 196.684 117.189 196.481 117.264C196.284 117.339 196.105 117.451 195.945 117.6C195.79 117.744 195.649 117.925 195.521 118.144C195.398 118.357 195.286 118.603 195.185 118.88V124H193.753V115.896H194.569C194.724 115.896 194.83 115.925 194.889 115.984C194.948 116.043 194.988 116.144 195.009 116.288L195.105 117.52ZM204.677 119.064C204.677 118.733 204.629 118.432 204.533 118.16C204.442 117.883 204.306 117.645 204.125 117.448C203.949 117.245 203.733 117.091 203.477 116.984C203.221 116.872 202.93 116.816 202.605 116.816C201.922 116.816 201.381 117.016 200.981 117.416C200.586 117.811 200.341 118.36 200.245 119.064H204.677ZM205.829 122.864C205.653 123.077 205.442 123.264 205.197 123.424C204.952 123.579 204.688 123.707 204.405 123.808C204.128 123.909 203.84 123.984 203.541 124.032C203.242 124.085 202.946 124.112 202.653 124.112C202.093 124.112 201.576 124.019 201.101 123.832C200.632 123.64 200.224 123.363 199.877 123C199.536 122.632 199.269 122.179 199.077 121.64C198.885 121.101 198.789 120.483 198.789 119.784C198.789 119.219 198.874 118.691 199.045 118.2C199.221 117.709 199.472 117.285 199.797 116.928C200.122 116.565 200.52 116.283 200.989 116.08C201.458 115.872 201.986 115.768 202.573 115.768C203.058 115.768 203.506 115.851 203.917 116.016C204.333 116.176 204.69 116.411 204.989 116.72C205.293 117.024 205.53 117.403 205.701 117.856C205.872 118.304 205.957 118.816 205.957 119.392C205.957 119.616 205.933 119.765 205.885 119.84C205.837 119.915 205.746 119.952 205.613 119.952H200.197C200.213 120.464 200.282 120.909 200.405 121.288C200.533 121.667 200.709 121.984 200.933 122.24C201.157 122.491 201.424 122.68 201.733 122.808C202.042 122.931 202.389 122.992 202.773 122.992C203.13 122.992 203.437 122.952 203.693 122.872C203.954 122.787 204.178 122.696 204.365 122.6C204.552 122.504 204.706 122.416 204.829 122.336C204.957 122.251 205.066 122.208 205.157 122.208C205.274 122.208 205.365 122.253 205.429 122.344L205.829 122.864ZM216.192 120.352C215.536 120.373 214.976 120.427 214.512 120.512C214.053 120.592 213.677 120.699 213.384 120.832C213.096 120.965 212.885 121.123 212.752 121.304C212.624 121.485 212.56 121.688 212.56 121.912C212.56 122.125 212.595 122.309 212.664 122.464C212.733 122.619 212.827 122.747 212.944 122.848C213.067 122.944 213.208 123.016 213.368 123.064C213.533 123.107 213.709 123.128 213.896 123.128C214.147 123.128 214.376 123.104 214.584 123.056C214.792 123.003 214.987 122.928 215.168 122.832C215.355 122.736 215.531 122.621 215.696 122.488C215.867 122.355 216.032 122.203 216.192 122.032V120.352ZM211.592 117.04C212.04 116.608 212.523 116.285 213.04 116.072C213.557 115.859 214.131 115.752 214.76 115.752C215.213 115.752 215.616 115.827 215.968 115.976C216.32 116.125 216.616 116.333 216.856 116.6C217.096 116.867 217.277 117.189 217.4 117.568C217.523 117.947 217.584 118.363 217.584 118.816V124H216.952C216.813 124 216.707 123.979 216.632 123.936C216.557 123.888 216.499 123.797 216.456 123.664L216.296 122.896C216.083 123.093 215.875 123.269 215.672 123.424C215.469 123.573 215.256 123.701 215.032 123.808C214.808 123.909 214.568 123.987 214.312 124.04C214.061 124.099 213.781 124.128 213.472 124.128C213.157 124.128 212.861 124.085 212.584 124C212.307 123.909 212.064 123.776 211.856 123.6C211.653 123.424 211.491 123.203 211.368 122.936C211.251 122.664 211.192 122.344 211.192 121.976C211.192 121.656 211.28 121.349 211.456 121.056C211.632 120.757 211.917 120.493 212.312 120.264C212.707 120.035 213.221 119.848 213.856 119.704C214.491 119.555 215.269 119.469 216.192 119.448V118.816C216.192 118.187 216.056 117.712 215.784 117.392C215.512 117.067 215.115 116.904 214.592 116.904C214.24 116.904 213.944 116.949 213.704 117.04C213.469 117.125 213.264 117.224 213.088 117.336C212.917 117.443 212.768 117.541 212.64 117.632C212.517 117.717 212.395 117.76 212.272 117.76C212.176 117.76 212.093 117.736 212.024 117.688C211.955 117.635 211.896 117.571 211.848 117.496L211.592 117.04ZM221.097 117.072C221.273 116.875 221.46 116.696 221.657 116.536C221.854 116.376 222.062 116.24 222.281 116.128C222.505 116.011 222.74 115.923 222.985 115.864C223.236 115.8 223.505 115.768 223.793 115.768C224.236 115.768 224.625 115.843 224.961 115.992C225.302 116.136 225.585 116.344 225.809 116.616C226.038 116.883 226.212 117.205 226.329 117.584C226.446 117.963 226.505 118.381 226.505 118.84V124H225.073V118.84C225.073 118.227 224.932 117.752 224.649 117.416C224.372 117.075 223.948 116.904 223.377 116.904C222.956 116.904 222.561 117.005 222.193 117.208C221.83 117.411 221.494 117.685 221.185 118.032V124H219.753V115.896H220.609C220.812 115.896 220.937 115.995 220.985 116.192L221.097 117.072ZM233.067 120.352C232.411 120.373 231.851 120.427 231.387 120.512C230.928 120.592 230.552 120.699 230.259 120.832C229.971 120.965 229.76 121.123 229.627 121.304C229.499 121.485 229.435 121.688 229.435 121.912C229.435 122.125 229.47 122.309 229.539 122.464C229.608 122.619 229.702 122.747 229.819 122.848C229.942 122.944 230.083 123.016 230.243 123.064C230.408 123.107 230.584 123.128 230.771 123.128C231.022 123.128 231.251 123.104 231.459 123.056C231.667 123.003 231.862 122.928 232.043 122.832C232.23 122.736 232.406 122.621 232.571 122.488C232.742 122.355 232.907 122.203 233.067 122.032V120.352ZM228.467 117.04C228.915 116.608 229.398 116.285 229.915 116.072C230.432 115.859 231.006 115.752 231.635 115.752C232.088 115.752 232.491 115.827 232.843 115.976C233.195 116.125 233.491 116.333 233.731 116.6C233.971 116.867 234.152 117.189 234.275 117.568C234.398 117.947 234.459 118.363 234.459 118.816V124H233.827C233.688 124 233.582 123.979 233.507 123.936C233.432 123.888 233.374 123.797 233.331 123.664L233.171 122.896C232.958 123.093 232.75 123.269 232.547 123.424C232.344 123.573 232.131 123.701 231.907 123.808C231.683 123.909 231.443 123.987 231.187 124.04C230.936 124.099 230.656 124.128 230.347 124.128C230.032 124.128 229.736 124.085 229.459 124C229.182 123.909 228.939 123.776 228.731 123.6C228.528 123.424 228.366 123.203 228.243 122.936C228.126 122.664 228.067 122.344 228.067 121.976C228.067 121.656 228.155 121.349 228.331 121.056C228.507 120.757 228.792 120.493 229.187 120.264C229.582 120.035 230.096 119.848 230.731 119.704C231.366 119.555 232.144 119.469 233.067 119.448V118.816C233.067 118.187 232.931 117.712 232.659 117.392C232.387 117.067 231.99 116.904 231.467 116.904C231.115 116.904 230.819 116.949 230.579 117.04C230.344 117.125 230.139 117.224 229.963 117.336C229.792 117.443 229.643 117.541 229.515 117.632C229.392 117.717 229.27 117.76 229.147 117.76C229.051 117.76 228.968 117.736 228.899 117.688C228.83 117.635 228.771 117.571 228.723 117.496L228.467 117.04ZM238.1 112.216V124H236.676V112.216H238.1ZM247.401 115.896L242.881 126.392C242.833 126.499 242.772 126.584 242.697 126.648C242.628 126.712 242.519 126.744 242.369 126.744H241.313L242.793 123.528L239.449 115.896H240.681C240.804 115.896 240.9 115.928 240.969 115.992C241.044 116.051 241.095 116.117 241.121 116.192L243.289 121.296C243.375 121.52 243.447 121.755 243.505 122C243.58 121.749 243.66 121.512 243.745 121.288L245.849 116.192C245.881 116.107 245.935 116.037 246.009 115.984C246.089 115.925 246.177 115.896 246.273 115.896H247.401ZM253.239 117.232C253.175 117.349 253.076 117.408 252.943 117.408C252.863 117.408 252.772 117.379 252.671 117.32C252.569 117.261 252.444 117.197 252.295 117.128C252.151 117.053 251.977 116.987 251.775 116.928C251.572 116.864 251.332 116.832 251.055 116.832C250.815 116.832 250.599 116.864 250.407 116.928C250.215 116.987 250.049 117.069 249.911 117.176C249.777 117.283 249.673 117.408 249.599 117.552C249.529 117.691 249.495 117.843 249.495 118.008C249.495 118.216 249.553 118.389 249.671 118.528C249.793 118.667 249.953 118.787 250.151 118.888C250.348 118.989 250.572 119.08 250.823 119.16C251.073 119.235 251.329 119.317 251.591 119.408C251.857 119.493 252.116 119.589 252.367 119.696C252.617 119.803 252.841 119.936 253.039 120.096C253.236 120.256 253.393 120.453 253.511 120.688C253.633 120.917 253.695 121.195 253.695 121.52C253.695 121.893 253.628 122.24 253.495 122.56C253.361 122.875 253.164 123.149 252.903 123.384C252.641 123.613 252.321 123.795 251.943 123.928C251.564 124.061 251.127 124.128 250.631 124.128C250.065 124.128 249.553 124.037 249.095 123.856C248.636 123.669 248.247 123.432 247.927 123.144L248.263 122.6C248.305 122.531 248.356 122.477 248.415 122.44C248.473 122.403 248.548 122.384 248.639 122.384C248.735 122.384 248.836 122.421 248.943 122.496C249.049 122.571 249.177 122.653 249.327 122.744C249.481 122.835 249.668 122.917 249.887 122.992C250.105 123.067 250.377 123.104 250.703 123.104C250.98 123.104 251.223 123.069 251.431 123C251.639 122.925 251.812 122.827 251.951 122.704C252.089 122.581 252.191 122.44 252.255 122.28C252.324 122.12 252.359 121.949 252.359 121.768C252.359 121.544 252.297 121.36 252.175 121.216C252.057 121.067 251.9 120.941 251.703 120.84C251.505 120.733 251.279 120.643 251.023 120.568C250.772 120.488 250.513 120.405 250.247 120.32C249.985 120.235 249.727 120.139 249.471 120.032C249.22 119.92 248.996 119.781 248.799 119.616C248.601 119.451 248.441 119.248 248.319 119.008C248.201 118.763 248.143 118.467 248.143 118.12C248.143 117.811 248.207 117.515 248.335 117.232C248.463 116.944 248.649 116.693 248.895 116.48C249.14 116.261 249.441 116.088 249.799 115.96C250.156 115.832 250.564 115.768 251.023 115.768C251.556 115.768 252.033 115.853 252.455 116.024C252.881 116.189 253.249 116.419 253.559 116.712L253.239 117.232ZM256.945 115.896V124H255.521V115.896H256.945ZM257.249 113.352C257.249 113.491 257.219 113.621 257.161 113.744C257.107 113.861 257.033 113.968 256.937 114.064C256.846 114.155 256.737 114.227 256.609 114.28C256.486 114.333 256.355 114.36 256.217 114.36C256.078 114.36 255.947 114.333 255.825 114.28C255.707 114.227 255.603 114.155 255.513 114.064C255.422 113.968 255.35 113.861 255.297 113.744C255.243 113.621 255.217 113.491 255.217 113.352C255.217 113.213 255.243 113.083 255.297 112.96C255.35 112.832 255.422 112.723 255.513 112.632C255.603 112.536 255.707 112.461 255.825 112.408C255.947 112.355 256.078 112.328 256.217 112.328C256.355 112.328 256.486 112.355 256.609 112.408C256.737 112.461 256.846 112.536 256.937 112.632C257.033 112.723 257.107 112.832 257.161 112.96C257.219 113.083 257.249 113.213 257.249 113.352ZM264.004 117.232C263.94 117.349 263.842 117.408 263.708 117.408C263.628 117.408 263.538 117.379 263.436 117.32C263.335 117.261 263.21 117.197 263.06 117.128C262.916 117.053 262.743 116.987 262.54 116.928C262.338 116.864 262.098 116.832 261.82 116.832C261.58 116.832 261.364 116.864 261.172 116.928C260.98 116.987 260.815 117.069 260.676 117.176C260.543 117.283 260.439 117.408 260.364 117.552C260.295 117.691 260.26 117.843 260.26 118.008C260.26 118.216 260.319 118.389 260.436 118.528C260.559 118.667 260.719 118.787 260.916 118.888C261.114 118.989 261.338 119.08 261.588 119.16C261.839 119.235 262.095 119.317 262.356 119.408C262.623 119.493 262.882 119.589 263.132 119.696C263.383 119.803 263.607 119.936 263.804 120.096C264.002 120.256 264.159 120.453 264.276 120.688C264.399 120.917 264.46 121.195 264.46 121.52C264.46 121.893 264.394 122.24 264.26 122.56C264.127 122.875 263.93 123.149 263.668 123.384C263.407 123.613 263.087 123.795 262.708 123.928C262.33 124.061 261.892 124.128 261.396 124.128C260.831 124.128 260.319 124.037 259.86 123.856C259.402 123.669 259.012 123.432 258.692 123.144L259.028 122.6C259.071 122.531 259.122 122.477 259.18 122.44C259.239 122.403 259.314 122.384 259.404 122.384C259.5 122.384 259.602 122.421 259.708 122.496C259.815 122.571 259.943 122.653 260.092 122.744C260.247 122.835 260.434 122.917 260.652 122.992C260.871 123.067 261.143 123.104 261.468 123.104C261.746 123.104 261.988 123.069 262.196 123C262.404 122.925 262.578 122.827 262.716 122.704C262.855 122.581 262.956 122.44 263.02 122.28C263.09 122.12 263.124 121.949 263.124 121.768C263.124 121.544 263.063 121.36 262.94 121.216C262.823 121.067 262.666 120.941 262.468 120.84C262.271 120.733 262.044 120.643 261.788 120.568C261.538 120.488 261.279 120.405 261.012 120.32C260.751 120.235 260.492 120.139 260.236 120.032C259.986 119.92 259.762 119.781 259.564 119.616C259.367 119.451 259.207 119.248 259.084 119.008C258.967 118.763 258.908 118.467 258.908 118.12C258.908 117.811 258.972 117.515 259.1 117.232C259.228 116.944 259.415 116.693 259.66 116.48C259.906 116.261 260.207 116.088 260.564 115.96C260.922 115.832 261.33 115.768 261.788 115.768C262.322 115.768 262.799 115.853 263.22 116.024C263.647 116.189 264.015 116.419 264.324 116.712L264.004 117.232ZM81.512 146.632C81.5973 146.632 81.672 146.667 81.736 146.736L82.352 147.4C81.8827 147.944 81.312 148.368 80.64 148.672C79.9733 148.976 79.1653 149.128 78.216 149.128C77.3947 149.128 76.648 148.987 75.976 148.704C75.304 148.416 74.7307 148.016 74.256 147.504C73.7813 146.987 73.4133 146.368 73.152 145.648C72.8907 144.928 72.76 144.136 72.76 143.272C72.76 142.408 72.896 141.616 73.168 140.896C73.44 140.176 73.8213 139.557 74.312 139.04C74.808 138.523 75.4 138.123 76.088 137.84C76.776 137.552 77.536 137.408 78.368 137.408C79.184 137.408 79.904 137.539 80.528 137.8C81.152 138.061 81.7013 138.416 82.176 138.864L81.664 139.576C81.632 139.629 81.5893 139.675 81.536 139.712C81.488 139.744 81.4213 139.76 81.336 139.76C81.24 139.76 81.1227 139.709 80.984 139.608C80.8453 139.501 80.664 139.384 80.44 139.256C80.216 139.128 79.936 139.013 79.6 138.912C79.264 138.805 78.8507 138.752 78.36 138.752C77.768 138.752 77.2267 138.856 76.736 139.064C76.2453 139.267 75.8213 139.563 75.464 139.952C75.112 140.341 74.8373 140.816 74.64 141.376C74.4427 141.936 74.344 142.568 74.344 143.272C74.344 143.987 74.4453 144.624 74.648 145.184C74.856 145.744 75.136 146.219 75.488 146.608C75.8453 146.992 76.264 147.285 76.744 147.488C77.2293 147.691 77.752 147.792 78.312 147.792C78.6533 147.792 78.96 147.773 79.232 147.736C79.5093 147.693 79.7627 147.629 79.992 147.544C80.2267 147.459 80.4427 147.352 80.64 147.224C80.8427 147.091 81.0427 146.933 81.24 146.752C81.3307 146.672 81.4213 146.632 81.512 146.632ZM90.3545 140.896V149H89.5065C89.3038 149 89.1758 148.901 89.1225 148.704L89.0105 147.832C88.6585 148.221 88.2638 148.536 87.8265 148.776C87.3892 149.011 86.8878 149.128 86.3225 149.128C85.8798 149.128 85.4878 149.056 85.1465 148.912C84.8105 148.763 84.5278 148.555 84.2985 148.288C84.0692 148.021 83.8958 147.699 83.7785 147.32C83.6665 146.941 83.6105 146.523 83.6105 146.064V140.896H85.0345V146.064C85.0345 146.677 85.1732 147.152 85.4505 147.488C85.7332 147.824 86.1625 147.992 86.7385 147.992C87.1598 147.992 87.5518 147.893 87.9145 147.696C88.2825 147.493 88.6212 147.216 88.9305 146.864V140.896H90.3545ZM97.3324 142.232C97.2684 142.349 97.1697 142.408 97.0364 142.408C96.9564 142.408 96.8657 142.379 96.7644 142.32C96.663 142.261 96.5377 142.197 96.3884 142.128C96.2444 142.053 96.071 141.987 95.8684 141.928C95.6657 141.864 95.4257 141.832 95.1484 141.832C94.9084 141.832 94.6924 141.864 94.5004 141.928C94.3084 141.987 94.143 142.069 94.0044 142.176C93.871 142.283 93.767 142.408 93.6924 142.552C93.623 142.691 93.5884 142.843 93.5884 143.008C93.5884 143.216 93.647 143.389 93.7644 143.528C93.887 143.667 94.047 143.787 94.2444 143.888C94.4417 143.989 94.6657 144.08 94.9164 144.16C95.167 144.235 95.423 144.317 95.6844 144.408C95.951 144.493 96.2097 144.589 96.4604 144.696C96.711 144.803 96.935 144.936 97.1324 145.096C97.3297 145.256 97.487 145.453 97.6044 145.688C97.727 145.917 97.7884 146.195 97.7884 146.52C97.7884 146.893 97.7217 147.24 97.5884 147.56C97.455 147.875 97.2577 148.149 96.9964 148.384C96.735 148.613 96.415 148.795 96.0364 148.928C95.6577 149.061 95.2204 149.128 94.7244 149.128C94.159 149.128 93.647 149.037 93.1884 148.856C92.7297 148.669 92.3404 148.432 92.0204 148.144L92.3564 147.6C92.399 147.531 92.4497 147.477 92.5084 147.44C92.567 147.403 92.6417 147.384 92.7324 147.384C92.8284 147.384 92.9297 147.421 93.0364 147.496C93.143 147.571 93.271 147.653 93.4204 147.744C93.575 147.835 93.7617 147.917 93.9804 147.992C94.199 148.067 94.471 148.104 94.7964 148.104C95.0737 148.104 95.3164 148.069 95.5244 148C95.7324 147.925 95.9057 147.827 96.0444 147.704C96.183 147.581 96.2844 147.44 96.3484 147.28C96.4177 147.12 96.4524 146.949 96.4524 146.768C96.4524 146.544 96.391 146.36 96.2684 146.216C96.151 146.067 95.9937 145.941 95.7964 145.84C95.599 145.733 95.3724 145.643 95.1164 145.568C94.8657 145.488 94.607 145.405 94.3404 145.32C94.079 145.235 93.8204 145.139 93.5644 145.032C93.3137 144.92 93.0897 144.781 92.8924 144.616C92.695 144.451 92.535 144.248 92.4124 144.008C92.295 143.763 92.2364 143.467 92.2364 143.12C92.2364 142.811 92.3004 142.515 92.4284 142.232C92.5564 141.944 92.743 141.693 92.9884 141.48C93.2337 141.261 93.535 141.088 93.8924 140.96C94.2497 140.832 94.6577 140.768 95.1164 140.768C95.6497 140.768 96.127 140.853 96.5484 141.024C96.975 141.189 97.343 141.419 97.6524 141.712L97.3324 142.232ZM102.022 149.128C101.382 149.128 100.889 148.949 100.542 148.592C100.201 148.235 100.03 147.72 100.03 147.048V142.088H99.0543C98.9689 142.088 98.8969 142.064 98.8383 142.016C98.7796 141.963 98.7503 141.883 98.7503 141.776V141.208L100.078 141.04L100.406 138.536C100.422 138.456 100.457 138.392 100.51 138.344C100.569 138.291 100.644 138.264 100.734 138.264H101.454V141.056H103.798V142.088H101.454V146.952C101.454 147.293 101.537 147.547 101.702 147.712C101.868 147.877 102.081 147.96 102.342 147.96C102.492 147.96 102.62 147.941 102.726 147.904C102.838 147.861 102.934 147.816 103.014 147.768C103.094 147.72 103.161 147.677 103.214 147.64C103.273 147.597 103.324 147.576 103.366 147.576C103.441 147.576 103.508 147.621 103.566 147.712L103.982 148.392C103.737 148.621 103.441 148.803 103.094 148.936C102.748 149.064 102.39 149.128 102.022 149.128ZM108.638 140.768C109.23 140.768 109.763 140.867 110.238 141.064C110.712 141.261 111.118 141.541 111.454 141.904C111.79 142.267 112.046 142.707 112.222 143.224C112.403 143.736 112.494 144.309 112.494 144.944C112.494 145.584 112.403 146.16 112.222 146.672C112.046 147.184 111.79 147.621 111.454 147.984C111.118 148.347 110.712 148.627 110.238 148.824C109.763 149.016 109.23 149.112 108.638 149.112C108.04 149.112 107.502 149.016 107.022 148.824C106.547 148.627 106.142 148.347 105.806 147.984C105.47 147.621 105.211 147.184 105.03 146.672C104.854 146.16 104.766 145.584 104.766 144.944C104.766 144.309 104.854 143.736 105.03 143.224C105.211 142.707 105.47 142.267 105.806 141.904C106.142 141.541 106.547 141.261 107.022 141.064C107.502 140.867 108.04 140.768 108.638 140.768ZM108.638 148C109.438 148 110.035 147.733 110.43 147.2C110.824 146.661 111.022 145.912 111.022 144.952C111.022 143.987 110.824 143.235 110.43 142.696C110.035 142.157 109.438 141.888 108.638 141.888C108.232 141.888 107.878 141.957 107.574 142.096C107.275 142.235 107.024 142.435 106.822 142.696C106.624 142.957 106.475 143.28 106.374 143.664C106.278 144.043 106.23 144.472 106.23 144.952C106.23 145.912 106.427 146.661 106.822 147.2C107.222 147.733 107.827 148 108.638 148ZM114.3 149V140.896H115.156C115.359 140.896 115.484 140.995 115.532 141.192L115.636 142.024C115.935 141.656 116.271 141.355 116.644 141.12C117.017 140.885 117.449 140.768 117.94 140.768C118.484 140.768 118.924 140.92 119.26 141.224C119.601 141.528 119.847 141.939 119.996 142.456C120.113 142.163 120.263 141.909 120.444 141.696C120.631 141.483 120.839 141.307 121.068 141.168C121.297 141.029 121.54 140.928 121.796 140.864C122.057 140.8 122.321 140.768 122.588 140.768C123.015 140.768 123.393 140.837 123.724 140.976C124.06 141.109 124.343 141.307 124.572 141.568C124.807 141.829 124.985 142.152 125.108 142.536C125.231 142.915 125.292 143.349 125.292 143.84V149H123.86V143.84C123.86 143.205 123.721 142.725 123.444 142.4C123.167 142.069 122.767 141.904 122.244 141.904C122.009 141.904 121.785 141.947 121.572 142.032C121.364 142.112 121.18 142.232 121.02 142.392C120.86 142.552 120.732 142.755 120.636 143C120.545 143.24 120.5 143.52 120.5 143.84V149H119.068V143.84C119.068 143.189 118.937 142.704 118.676 142.384C118.415 142.064 118.033 141.904 117.532 141.904C117.18 141.904 116.855 142 116.556 142.192C116.257 142.379 115.983 142.635 115.732 142.96V149H114.3ZM132.88 144.064C132.88 143.733 132.832 143.432 132.736 143.16C132.645 142.883 132.509 142.645 132.328 142.448C132.152 142.245 131.936 142.091 131.68 141.984C131.424 141.872 131.133 141.816 130.808 141.816C130.125 141.816 129.584 142.016 129.184 142.416C128.789 142.811 128.544 143.36 128.448 144.064H132.88ZM134.032 147.864C133.856 148.077 133.645 148.264 133.4 148.424C133.155 148.579 132.891 148.707 132.608 148.808C132.331 148.909 132.043 148.984 131.744 149.032C131.445 149.085 131.149 149.112 130.856 149.112C130.296 149.112 129.779 149.019 129.304 148.832C128.835 148.64 128.427 148.363 128.08 148C127.739 147.632 127.472 147.179 127.28 146.64C127.088 146.101 126.992 145.483 126.992 144.784C126.992 144.219 127.077 143.691 127.248 143.2C127.424 142.709 127.675 142.285 128 141.928C128.325 141.565 128.723 141.283 129.192 141.08C129.661 140.872 130.189 140.768 130.776 140.768C131.261 140.768 131.709 140.851 132.12 141.016C132.536 141.176 132.893 141.411 133.192 141.72C133.496 142.024 133.733 142.403 133.904 142.856C134.075 143.304 134.16 143.816 134.16 144.392C134.16 144.616 134.136 144.765 134.088 144.84C134.04 144.915 133.949 144.952 133.816 144.952H128.4C128.416 145.464 128.485 145.909 128.608 146.288C128.736 146.667 128.912 146.984 129.136 147.24C129.36 147.491 129.627 147.68 129.936 147.808C130.245 147.931 130.592 147.992 130.976 147.992C131.333 147.992 131.64 147.952 131.896 147.872C132.157 147.787 132.381 147.696 132.568 147.6C132.755 147.504 132.909 147.416 133.032 147.336C133.16 147.251 133.269 147.208 133.36 147.208C133.477 147.208 133.568 147.253 133.632 147.344L134.032 147.864ZM137.261 142.52C137.517 141.965 137.832 141.533 138.205 141.224C138.579 140.909 139.035 140.752 139.573 140.752C139.744 140.752 139.907 140.771 140.061 140.808C140.221 140.845 140.363 140.904 140.485 140.984L140.381 142.048C140.349 142.181 140.269 142.248 140.141 142.248C140.067 142.248 139.957 142.232 139.813 142.2C139.669 142.168 139.507 142.152 139.325 142.152C139.069 142.152 138.84 142.189 138.637 142.264C138.44 142.339 138.261 142.451 138.101 142.6C137.947 142.744 137.805 142.925 137.677 143.144C137.555 143.357 137.443 143.603 137.341 143.88V149H135.909V140.896H136.725C136.88 140.896 136.987 140.925 137.045 140.984C137.104 141.043 137.144 141.144 137.165 141.288L137.261 142.52ZM146.991 140.896V149.6C146.991 149.925 146.949 150.227 146.863 150.504C146.778 150.787 146.642 151.032 146.455 151.24C146.269 151.448 146.029 151.611 145.735 151.728C145.447 151.851 145.101 151.912 144.695 151.912C144.525 151.912 144.367 151.899 144.223 151.872C144.079 151.845 143.935 151.805 143.791 151.752L143.847 150.984C143.858 150.936 143.877 150.899 143.903 150.872C143.925 150.851 143.957 150.837 143.999 150.832C144.042 150.827 144.098 150.824 144.167 150.824C144.231 150.829 144.314 150.832 144.415 150.832C144.831 150.832 145.127 150.733 145.303 150.536C145.479 150.344 145.567 150.032 145.567 149.6V140.896H146.991ZM147.287 138.352C147.287 138.491 147.258 138.621 147.199 138.744C147.146 138.861 147.071 138.968 146.975 139.064C146.885 139.155 146.778 139.227 146.655 139.28C146.533 139.333 146.402 139.36 146.263 139.36C146.125 139.36 145.994 139.333 145.871 139.28C145.754 139.227 145.65 139.155 145.559 139.064C145.469 138.968 145.397 138.861 145.343 138.744C145.29 138.621 145.263 138.491 145.263 138.352C145.263 138.213 145.29 138.083 145.343 137.96C145.397 137.832 145.469 137.723 145.559 137.632C145.65 137.536 145.754 137.461 145.871 137.408C145.994 137.355 146.125 137.328 146.263 137.328C146.402 137.328 146.533 137.355 146.655 137.408C146.778 137.461 146.885 137.536 146.975 137.632C147.071 137.723 147.146 137.832 147.199 137.96C147.258 138.083 147.287 138.213 147.287 138.352ZM152.747 140.768C153.339 140.768 153.872 140.867 154.347 141.064C154.822 141.261 155.227 141.541 155.563 141.904C155.899 142.267 156.155 142.707 156.331 143.224C156.512 143.736 156.603 144.309 156.603 144.944C156.603 145.584 156.512 146.16 156.331 146.672C156.155 147.184 155.899 147.621 155.563 147.984C155.227 148.347 154.822 148.627 154.347 148.824C153.872 149.016 153.339 149.112 152.747 149.112C152.15 149.112 151.611 149.016 151.131 148.824C150.656 148.627 150.251 148.347 149.915 147.984C149.579 147.621 149.32 147.184 149.139 146.672C148.963 146.16 148.875 145.584 148.875 144.944C148.875 144.309 148.963 143.736 149.139 143.224C149.32 142.707 149.579 142.267 149.915 141.904C150.251 141.541 150.656 141.261 151.131 141.064C151.611 140.867 152.15 140.768 152.747 140.768ZM152.747 148C153.547 148 154.144 147.733 154.539 147.2C154.934 146.661 155.131 145.912 155.131 144.952C155.131 143.987 154.934 143.235 154.539 142.696C154.144 142.157 153.547 141.888 152.747 141.888C152.342 141.888 151.987 141.957 151.683 142.096C151.384 142.235 151.134 142.435 150.931 142.696C150.734 142.957 150.584 143.28 150.483 143.664C150.387 144.043 150.339 144.472 150.339 144.952C150.339 145.912 150.536 146.661 150.931 147.2C151.331 147.733 151.936 148 152.747 148ZM165.073 140.896V149H164.225C164.023 149 163.895 148.901 163.841 148.704L163.729 147.832C163.377 148.221 162.983 148.536 162.545 148.776C162.108 149.011 161.607 149.128 161.041 149.128C160.599 149.128 160.207 149.056 159.865 148.912C159.529 148.763 159.247 148.555 159.017 148.288C158.788 148.021 158.615 147.699 158.497 147.32C158.385 146.941 158.329 146.523 158.329 146.064V140.896H159.753V146.064C159.753 146.677 159.892 147.152 160.169 147.488C160.452 147.824 160.881 147.992 161.457 147.992C161.879 147.992 162.271 147.893 162.633 147.696C163.001 147.493 163.34 147.216 163.649 146.864V140.896H165.073ZM168.683 142.52C168.939 141.965 169.254 141.533 169.627 141.224C170 140.909 170.456 140.752 170.995 140.752C171.166 140.752 171.328 140.771 171.483 140.808C171.643 140.845 171.784 140.904 171.907 140.984L171.803 142.048C171.771 142.181 171.691 142.248 171.563 142.248C171.488 142.248 171.379 142.232 171.235 142.2C171.091 142.168 170.928 142.152 170.747 142.152C170.491 142.152 170.262 142.189 170.059 142.264C169.862 142.339 169.683 142.451 169.523 142.6C169.368 142.744 169.227 142.925 169.099 143.144C168.976 143.357 168.864 143.603 168.763 143.88V149H167.331V140.896H168.147C168.302 140.896 168.408 140.925 168.467 140.984C168.526 141.043 168.566 141.144 168.587 141.288L168.683 142.52ZM174.503 142.072C174.679 141.875 174.866 141.696 175.063 141.536C175.261 141.376 175.469 141.24 175.687 141.128C175.911 141.011 176.146 140.923 176.391 140.864C176.642 140.8 176.911 140.768 177.199 140.768C177.642 140.768 178.031 140.843 178.367 140.992C178.709 141.136 178.991 141.344 179.215 141.616C179.445 141.883 179.618 142.205 179.735 142.584C179.853 142.963 179.911 143.381 179.911 143.84V149H178.479V143.84C178.479 143.227 178.338 142.752 178.055 142.416C177.778 142.075 177.354 141.904 176.783 141.904C176.362 141.904 175.967 142.005 175.599 142.208C175.237 142.411 174.901 142.685 174.591 143.032V149H173.159V140.896H174.015C174.218 140.896 174.343 140.995 174.391 141.192L174.503 142.072ZM187.505 144.064C187.505 143.733 187.457 143.432 187.361 143.16C187.27 142.883 187.134 142.645 186.953 142.448C186.777 142.245 186.561 142.091 186.305 141.984C186.049 141.872 185.758 141.816 185.433 141.816C184.75 141.816 184.209 142.016 183.809 142.416C183.414 142.811 183.169 143.36 183.073 144.064H187.505ZM188.657 147.864C188.481 148.077 188.27 148.264 188.025 148.424C187.78 148.579 187.516 148.707 187.233 148.808C186.956 148.909 186.668 148.984 186.369 149.032C186.07 149.085 185.774 149.112 185.481 149.112C184.921 149.112 184.404 149.019 183.929 148.832C183.46 148.64 183.052 148.363 182.705 148C182.364 147.632 182.097 147.179 181.905 146.64C181.713 146.101 181.617 145.483 181.617 144.784C181.617 144.219 181.702 143.691 181.873 143.2C182.049 142.709 182.3 142.285 182.625 141.928C182.95 141.565 183.348 141.283 183.817 141.08C184.286 140.872 184.814 140.768 185.401 140.768C185.886 140.768 186.334 140.851 186.745 141.016C187.161 141.176 187.518 141.411 187.817 141.72C188.121 142.024 188.358 142.403 188.529 142.856C188.7 143.304 188.785 143.816 188.785 144.392C188.785 144.616 188.761 144.765 188.713 144.84C188.665 144.915 188.574 144.952 188.441 144.952H183.025C183.041 145.464 183.11 145.909 183.233 146.288C183.361 146.667 183.537 146.984 183.761 147.24C183.985 147.491 184.252 147.68 184.561 147.808C184.87 147.931 185.217 147.992 185.601 147.992C185.958 147.992 186.265 147.952 186.521 147.872C186.782 147.787 187.006 147.696 187.193 147.6C187.38 147.504 187.534 147.416 187.657 147.336C187.785 147.251 187.894 147.208 187.985 147.208C188.102 147.208 188.193 147.253 188.257 147.344L188.657 147.864ZM197.323 140.896L192.803 151.392C192.755 151.499 192.694 151.584 192.619 151.648C192.55 151.712 192.44 151.744 192.291 151.744H191.235L192.715 148.528L189.371 140.896H190.603C190.726 140.896 190.822 140.928 190.891 140.992C190.966 141.051 191.016 141.117 191.043 141.192L193.211 146.296C193.296 146.52 193.368 146.755 193.427 147C193.502 146.749 193.582 146.512 193.667 146.288L195.771 141.192C195.803 141.107 195.856 141.037 195.931 140.984C196.011 140.925 196.099 140.896 196.195 140.896H197.323ZM202.284 149V140.896H203.14C203.343 140.896 203.468 140.995 203.516 141.192L203.62 142.024C203.919 141.656 204.255 141.355 204.628 141.12C205.002 140.885 205.434 140.768 205.924 140.768C206.468 140.768 206.908 140.92 207.244 141.224C207.586 141.528 207.831 141.939 207.98 142.456C208.098 142.163 208.247 141.909 208.428 141.696C208.615 141.483 208.823 141.307 209.052 141.168C209.282 141.029 209.524 140.928 209.78 140.864C210.042 140.8 210.306 140.768 210.572 140.768C210.999 140.768 211.378 140.837 211.708 140.976C212.044 141.109 212.327 141.307 212.556 141.568C212.791 141.829 212.97 142.152 213.092 142.536C213.215 142.915 213.276 143.349 213.276 143.84V149H211.844V143.84C211.844 143.205 211.706 142.725 211.428 142.4C211.151 142.069 210.751 141.904 210.228 141.904C209.994 141.904 209.77 141.947 209.556 142.032C209.348 142.112 209.164 142.232 209.004 142.392C208.844 142.552 208.716 142.755 208.62 143C208.53 143.24 208.484 143.52 208.484 143.84V149H207.052V143.84C207.052 143.189 206.922 142.704 206.66 142.384C206.399 142.064 206.018 141.904 205.516 141.904C205.164 141.904 204.839 142 204.54 142.192C204.242 142.379 203.967 142.635 203.716 142.96V149H202.284ZM219.833 145.352C219.177 145.373 218.617 145.427 218.153 145.512C217.694 145.592 217.318 145.699 217.025 145.832C216.737 145.965 216.526 146.123 216.393 146.304C216.265 146.485 216.201 146.688 216.201 146.912C216.201 147.125 216.235 147.309 216.305 147.464C216.374 147.619 216.467 147.747 216.585 147.848C216.707 147.944 216.849 148.016 217.009 148.064C217.174 148.107 217.35 148.128 217.537 148.128C217.787 148.128 218.017 148.104 218.225 148.056C218.433 148.003 218.627 147.928 218.809 147.832C218.995 147.736 219.171 147.621 219.337 147.488C219.507 147.355 219.673 147.203 219.833 147.032V145.352ZM215.233 142.04C215.681 141.608 216.163 141.285 216.681 141.072C217.198 140.859 217.771 140.752 218.401 140.752C218.854 140.752 219.257 140.827 219.609 140.976C219.961 141.125 220.257 141.333 220.497 141.6C220.737 141.867 220.918 142.189 221.041 142.568C221.163 142.947 221.225 143.363 221.225 143.816V149H220.593C220.454 149 220.347 148.979 220.273 148.936C220.198 148.888 220.139 148.797 220.097 148.664L219.937 147.896C219.723 148.093 219.515 148.269 219.312 148.424C219.11 148.573 218.897 148.701 218.673 148.808C218.449 148.909 218.209 148.987 217.953 149.04C217.702 149.099 217.422 149.128 217.113 149.128C216.798 149.128 216.502 149.085 216.225 149C215.947 148.909 215.705 148.776 215.497 148.6C215.294 148.424 215.131 148.203 215.009 147.936C214.891 147.664 214.833 147.344 214.833 146.976C214.833 146.656 214.921 146.349 215.097 146.056C215.273 145.757 215.558 145.493 215.953 145.264C216.347 145.035 216.862 144.848 217.497 144.704C218.131 144.555 218.91 144.469 219.833 144.448V143.816C219.833 143.187 219.697 142.712 219.425 142.392C219.153 142.067 218.755 141.904 218.233 141.904C217.881 141.904 217.585 141.949 217.345 142.04C217.11 142.125 216.905 142.224 216.729 142.336C216.558 142.443 216.409 142.541 216.281 142.632C216.158 142.717 216.035 142.76 215.913 142.76C215.817 142.76 215.734 142.736 215.665 142.688C215.595 142.635 215.537 142.571 215.488 142.496L215.233 142.04ZM224.826 147.048C225.087 147.4 225.372 147.648 225.682 147.792C225.991 147.936 226.338 148.008 226.722 148.008C227.479 148.008 228.06 147.739 228.466 147.2C228.871 146.661 229.074 145.893 229.074 144.896C229.074 144.368 229.026 143.915 228.93 143.536C228.839 143.157 228.706 142.848 228.53 142.608C228.354 142.363 228.138 142.184 227.882 142.072C227.626 141.96 227.335 141.904 227.01 141.904C226.546 141.904 226.138 142.011 225.786 142.224C225.439 142.437 225.119 142.739 224.826 143.128V147.048ZM224.754 142.152C225.095 141.731 225.49 141.392 225.938 141.136C226.386 140.88 226.898 140.752 227.474 140.752C227.943 140.752 228.367 140.843 228.746 141.024C229.124 141.2 229.447 141.464 229.714 141.816C229.98 142.163 230.186 142.595 230.33 143.112C230.474 143.629 230.546 144.224 230.546 144.896C230.546 145.493 230.466 146.051 230.306 146.568C230.146 147.08 229.914 147.525 229.61 147.904C229.311 148.277 228.943 148.573 228.506 148.792C228.074 149.005 227.586 149.112 227.042 149.112C226.546 149.112 226.119 149.029 225.762 148.864C225.41 148.693 225.098 148.459 224.826 148.16V151.744H223.394V140.896H224.25C224.452 140.896 224.578 140.995 224.626 141.192L224.754 142.152Z" fill="#4F4F4F"/>
</svg>
