<svg width="245" height="105" viewBox="0 0 245 105" fill="none" xmlns="http://www.w3.org/2000/svg">
<path d="M19.6667 10V13.6498" stroke="#1E38C1" stroke-width="2" stroke-linecap="round" stroke-linejoin="round"/>
<path d="M19.6667 25.8164V29.4662" stroke="#1E38C1" stroke-width="2" stroke-linecap="round" stroke-linejoin="round"/>
<path d="M12.4167 12.4336L16.0417 16.0834" stroke="#1E38C1" stroke-width="2" stroke-linecap="round" stroke-linejoin="round"/>
<path d="M23.2917 23.3828L26.9167 27.0326" stroke="#1E38C1" stroke-width="2" stroke-linecap="round" stroke-linejoin="round"/>
<path d="M10 19.7334H13.625" stroke="#1E38C1" stroke-width="2" stroke-linecap="round" stroke-linejoin="round"/>
<path d="M25.7085 19.7334H29.3335" stroke="#1E38C1" stroke-width="2" stroke-linecap="round" stroke-linejoin="round"/>
<path d="M12.4167 27.0326L16.0417 23.3828" stroke="#1E38C1" stroke-width="2" stroke-linecap="round" stroke-linejoin="round"/>
<path d="M23.2917 16.0834L26.9167 12.4336" stroke="#1E38C1" stroke-width="2" stroke-linecap="round" stroke-linejoin="round"/>
<path d="M58.656 9.008C58.544 10.368 58.488 11.584 58.488 12.656C58.488 13.408 58.512 14.016 58.56 14.48H58.008C57.688 12.672 57.208 11.4 56.568 10.664C55.928 9.928 55.032 9.56 53.88 9.56H53.088C52.592 9.56 52.232 9.6 52.008 9.68C51.784 9.76 51.632 9.92 51.552 10.16C51.472 10.384 51.432 10.752 51.432 11.264V17.312H52.272C53.12 17.312 53.76 17 54.192 16.376C54.64 15.752 54.952 15.008 55.128 14.144H55.68C55.632 14.816 55.608 15.568 55.608 16.4V17.552C55.608 18.368 55.656 19.504 55.752 20.96H55.2C54.864 18.848 53.888 17.792 52.272 17.792H51.432V23.312C51.432 23.952 51.496 24.424 51.624 24.728C51.768 25.016 52.008 25.208 52.344 25.304C52.696 25.4 53.248 25.456 54 25.472V26C52.032 25.952 50.568 25.928 49.608 25.928C48.808 25.928 47.8 25.944 46.584 25.976L45.816 26V25.52C46.344 25.488 46.728 25.424 46.968 25.328C47.224 25.232 47.392 25.048 47.472 24.776C47.568 24.504 47.616 24.064 47.616 23.456V11.552C47.616 10.944 47.568 10.504 47.472 10.232C47.392 9.96 47.224 9.776 46.968 9.68C46.728 9.584 46.344 9.52 45.816 9.488V9.008C47.544 9.056 50.152 9.08 53.64 9.08C55.992 9.08 57.664 9.056 58.656 9.008ZM62.8991 7.4C63.5711 7.4 64.0991 7.568 64.4831 7.904C64.8831 8.224 65.0831 8.672 65.0831 9.248C65.0831 9.824 64.8831 10.28 64.4831 10.616C64.0991 10.936 63.5711 11.096 62.8991 11.096C62.2271 11.096 61.6911 10.936 61.2911 10.616C60.9071 10.28 60.7151 9.824 60.7151 9.248C60.7151 8.672 60.9071 8.224 61.2911 7.904C61.6911 7.568 62.2271 7.4 62.8991 7.4ZM64.7711 23.768C64.7711 24.424 64.8831 24.88 65.1071 25.136C65.3471 25.376 65.7471 25.496 66.3071 25.496V26C64.7071 25.936 63.6431 25.904 63.1151 25.904C62.6191 25.904 61.5071 25.936 59.7791 26V25.496C60.3551 25.496 60.7551 25.376 60.9791 25.136C61.2031 24.88 61.3151 24.424 61.3151 23.768V16.208C61.3151 15.472 61.2031 14.936 60.9791 14.6C60.7551 14.264 60.3551 14.096 59.7791 14.096V13.592C60.2911 13.64 60.7871 13.664 61.2671 13.664C62.6911 13.664 63.8591 13.552 64.7711 13.328V23.768ZM76.2774 13.256C77.4934 13.256 78.3734 13.568 78.9174 14.192C79.1894 14.496 79.3814 14.888 79.4934 15.368C79.6054 15.848 79.6614 16.496 79.6614 17.312V23.768C79.6614 24.424 79.7734 24.88 79.9974 25.136C80.2374 25.376 80.6374 25.496 81.1974 25.496V26C79.5974 25.936 78.5414 25.904 78.0294 25.904C77.5494 25.904 76.5094 25.936 74.9094 26V25.496C75.3894 25.496 75.7254 25.376 75.9174 25.136C76.1094 24.88 76.2054 24.424 76.2054 23.768V16.304C76.2054 15.648 76.0934 15.152 75.8694 14.816C75.6614 14.48 75.2774 14.312 74.7174 14.312C74.0614 14.312 73.5014 14.584 73.0374 15.128C72.5734 15.656 72.3414 16.312 72.3414 17.096V23.768C72.3414 24.424 72.4374 24.88 72.6294 25.136C72.8214 25.376 73.1574 25.496 73.6374 25.496V26C72.1654 25.936 71.1734 25.904 70.6614 25.904C70.1814 25.904 69.0774 25.936 67.3494 26V25.496C67.9254 25.496 68.3254 25.376 68.5494 25.136C68.7734 24.88 68.8854 24.424 68.8854 23.768V16.208C68.8854 15.472 68.7734 14.936 68.5494 14.6C68.3254 14.264 67.9254 14.096 67.3494 14.096V13.592C67.8614 13.64 68.3574 13.664 68.8374 13.664C70.2614 13.664 71.4294 13.552 72.3414 13.328V15.488C73.0614 14 74.3734 13.256 76.2774 13.256ZM85.2596 26.168C84.2356 26.168 83.4676 25.904 82.9556 25.376C82.4596 24.848 82.2116 24.152 82.2116 23.288C82.2116 22.568 82.3956 21.976 82.7636 21.512C83.1476 21.032 83.6036 20.664 84.1316 20.408C84.6756 20.152 85.3636 19.88 86.1956 19.592C87.0756 19.288 87.7156 19.016 88.1156 18.776C88.5316 18.52 88.7396 18.176 88.7396 17.744V15.872C88.7396 15.2 88.5796 14.68 88.2596 14.312C87.9556 13.928 87.4756 13.736 86.8196 13.736C86.0516 13.736 85.4676 13.928 85.0676 14.312C85.5156 14.472 85.8596 14.712 86.0996 15.032C86.3556 15.352 86.4836 15.728 86.4836 16.16C86.4836 16.704 86.2996 17.136 85.9316 17.456C85.5636 17.776 85.1156 17.936 84.5876 17.936C84.0276 17.936 83.5956 17.76 83.2916 17.408C82.9876 17.056 82.8356 16.616 82.8356 16.088C82.8356 15.64 82.9396 15.264 83.1476 14.96C83.3716 14.64 83.7076 14.344 84.1556 14.072C84.5876 13.816 85.1156 13.616 85.7396 13.472C86.3796 13.328 87.0756 13.256 87.8276 13.256C88.6116 13.256 89.2916 13.336 89.8676 13.496C90.4436 13.656 90.9236 13.928 91.3076 14.312C91.6596 14.664 91.8916 15.096 92.0036 15.608C92.1316 16.12 92.1956 16.816 92.1956 17.696V24.224C92.1956 24.608 92.2276 24.88 92.2916 25.04C92.3716 25.2 92.5156 25.28 92.7236 25.28C92.9636 25.28 93.2516 25.144 93.5876 24.872L93.8276 25.28C93.1076 25.872 92.2276 26.168 91.1876 26.168C90.3076 26.168 89.6916 25.992 89.3396 25.64C88.9876 25.288 88.8036 24.816 88.7876 24.224C87.9876 25.52 86.8116 26.168 85.2596 26.168ZM87.1076 24.632C87.7316 24.632 88.2756 24.304 88.7396 23.648V18.728C88.5476 19.048 88.1396 19.4 87.5156 19.784C86.8916 20.184 86.4196 20.584 86.0996 20.984C85.7796 21.384 85.6196 21.96 85.6196 22.712C85.6196 23.368 85.7556 23.856 86.0276 24.176C86.2996 24.48 86.6596 24.632 87.1076 24.632ZM99.4095 23.768C99.4095 24.424 99.5215 24.88 99.7455 25.136C99.9695 25.376 100.37 25.496 100.946 25.496V26C99.2815 25.936 98.2095 25.904 97.7295 25.904C97.1855 25.904 96.0815 25.936 94.4175 26V25.496C94.9775 25.496 95.3695 25.376 95.5935 25.136C95.8335 24.88 95.9535 24.424 95.9535 23.768V10.088C95.9535 9.352 95.8335 8.816 95.5935 8.48C95.3695 8.144 94.9775 7.976 94.4175 7.976V7.472C94.9295 7.52 95.4255 7.544 95.9055 7.544C97.2975 7.544 98.4655 7.432 99.4095 7.208V23.768ZM106.719 13.256C107.327 13.256 107.887 13.336 108.399 13.496C108.911 13.64 109.303 13.808 109.575 14C109.735 14.112 109.879 14.168 110.007 14.168C110.151 14.168 110.271 14.096 110.367 13.952C110.479 13.792 110.551 13.568 110.583 13.28H111.087C111.023 14.096 110.991 15.504 110.991 17.504H110.487C110.343 16.448 110.023 15.568 109.527 14.864C109.047 14.144 108.343 13.784 107.415 13.784C106.935 13.784 106.535 13.92 106.215 14.192C105.911 14.464 105.759 14.84 105.759 15.32C105.759 15.864 105.943 16.336 106.311 16.736C106.679 17.12 107.255 17.592 108.039 18.152L108.735 18.656C109.711 19.392 110.431 20.048 110.895 20.624C111.359 21.2 111.591 21.92 111.591 22.784C111.591 23.488 111.383 24.112 110.967 24.656C110.567 25.2 110.023 25.616 109.335 25.904C108.647 26.192 107.887 26.336 107.055 26.336C106.175 26.336 105.423 26.168 104.799 25.832C104.287 25.576 103.919 25.408 103.695 25.328C103.535 25.28 103.391 25.336 103.263 25.496C103.151 25.64 103.063 25.864 102.999 26.168H102.495C102.559 25.256 102.591 23.656 102.591 21.368H103.095C103.415 24.312 104.495 25.784 106.335 25.784C106.799 25.784 107.191 25.648 107.511 25.376C107.847 25.088 108.015 24.656 108.015 24.08C108.015 23.632 107.911 23.232 107.703 22.88C107.511 22.528 107.263 22.216 106.959 21.944C106.655 21.672 106.199 21.296 105.591 20.816C104.871 20.24 104.319 19.776 103.935 19.424C103.567 19.072 103.247 18.656 102.975 18.176C102.719 17.696 102.591 17.16 102.591 16.568C102.591 15.544 102.991 14.736 103.791 14.144C104.591 13.552 105.567 13.256 106.719 13.256Z" fill="#1E38C1"/>
<path d="M51.174 59.614C51.672 59.614 52.101 59.557 52.461 59.443C52.821 59.329 53.115 59.17 53.343 58.966C53.577 58.756 53.748 58.51 53.856 58.228C53.964 57.94 54.018 57.625 54.018 57.283C54.018 56.617 53.781 56.092 53.307 55.708C52.833 55.318 52.122 55.123 51.174 55.123H48.384V59.614H51.174ZM48.384 49.48V53.881H50.688C51.18 53.881 51.606 53.827 51.966 53.719C52.332 53.611 52.632 53.461 52.866 53.269C53.106 53.077 53.283 52.846 53.397 52.576C53.511 52.3 53.568 52 53.568 51.676C53.568 50.914 53.34 50.359 52.884 50.011C52.428 49.657 51.72 49.48 50.76 49.48H48.384ZM50.76 48.103C51.552 48.103 52.233 48.181 52.803 48.337C53.379 48.493 53.85 48.715 54.216 49.003C54.588 49.291 54.861 49.645 55.035 50.065C55.209 50.479 55.296 50.947 55.296 51.469C55.296 51.787 55.245 52.093 55.143 52.387C55.047 52.675 54.9 52.945 54.702 53.197C54.504 53.449 54.252 53.677 53.946 53.881C53.646 54.079 53.292 54.241 52.884 54.367C53.832 54.547 54.543 54.886 55.017 55.384C55.497 55.876 55.737 56.524 55.737 57.328C55.737 57.874 55.635 58.372 55.431 58.822C55.233 59.272 54.939 59.659 54.549 59.983C54.165 60.307 53.691 60.559 53.127 60.739C52.563 60.913 51.921 61 51.201 61H46.647V48.103H50.76ZM59.2334 53.71C59.5214 53.086 59.8754 52.6 60.2954 52.252C60.7154 51.898 61.2284 51.721 61.8344 51.721C62.0264 51.721 62.2094 51.742 62.3834 51.784C62.5634 51.826 62.7224 51.892 62.8604 51.982L62.7434 53.179C62.7074 53.329 62.6174 53.404 62.4734 53.404C62.3894 53.404 62.2664 53.386 62.1044 53.35C61.9424 53.314 61.7594 53.296 61.5554 53.296C61.2674 53.296 61.0094 53.338 60.7814 53.422C60.5594 53.506 60.3584 53.632 60.1784 53.8C60.0044 53.962 59.8454 54.166 59.7014 54.412C59.5634 54.652 59.4374 54.928 59.3234 55.24V61H57.7124V51.883H58.6304C58.8044 51.883 58.9244 51.916 58.9904 51.982C59.0564 52.048 59.1014 52.162 59.1254 52.324L59.2334 53.71ZM69.0694 56.896C68.3314 56.92 67.7014 56.98 67.1794 57.076C66.6634 57.166 66.2404 57.286 65.9104 57.436C65.5864 57.586 65.3494 57.763 65.1994 57.967C65.0554 58.171 64.9834 58.399 64.9834 58.651C64.9834 58.891 65.0224 59.098 65.1004 59.272C65.1784 59.446 65.2834 59.59 65.4154 59.704C65.5534 59.812 65.7124 59.893 65.8924 59.947C66.0784 59.995 66.2764 60.019 66.4864 60.019C66.7684 60.019 67.0264 59.992 67.2604 59.938C67.4944 59.878 67.7134 59.794 67.9174 59.686C68.1274 59.578 68.3254 59.449 68.5114 59.299C68.7034 59.149 68.8894 58.978 69.0694 58.786V56.896ZM63.8944 53.17C64.3984 52.684 64.9414 52.321 65.5234 52.081C66.1054 51.841 66.7504 51.721 67.4584 51.721C67.9684 51.721 68.4214 51.805 68.8174 51.973C69.2134 52.141 69.5464 52.375 69.8164 52.675C70.0864 52.975 70.2904 53.338 70.4284 53.764C70.5664 54.19 70.6354 54.658 70.6354 55.168V61H69.9244C69.7684 61 69.6484 60.976 69.5644 60.928C69.4804 60.874 69.4144 60.772 69.3664 60.622L69.1864 59.758C68.9464 59.98 68.7124 60.178 68.4844 60.352C68.2564 60.52 68.0164 60.664 67.7644 60.784C67.5124 60.898 67.2424 60.985 66.9544 61.045C66.6724 61.111 66.3574 61.144 66.0094 61.144C65.6554 61.144 65.3224 61.096 65.0104 61C64.6984 60.898 64.4254 60.748 64.1914 60.55C63.9634 60.352 63.7804 60.103 63.6424 59.803C63.5104 59.497 63.4444 59.137 63.4444 58.723C63.4444 58.363 63.5434 58.018 63.7414 57.688C63.9394 57.352 64.2604 57.055 64.7044 56.797C65.1484 56.539 65.7274 56.329 66.4414 56.167C67.1554 55.999 68.0314 55.903 69.0694 55.879V55.168C69.0694 54.46 68.9164 53.926 68.6104 53.566C68.3044 53.2 67.8574 53.017 67.2694 53.017C66.8734 53.017 66.5404 53.068 66.2704 53.17C66.0064 53.266 65.7754 53.377 65.5774 53.503C65.3854 53.623 65.2174 53.734 65.0734 53.836C64.9354 53.932 64.7974 53.98 64.6594 53.98C64.5514 53.98 64.4584 53.953 64.3804 53.899C64.3024 53.839 64.2364 53.767 64.1824 53.683L63.8944 53.17ZM74.5876 53.206C74.7856 52.984 74.9956 52.783 75.2176 52.603C75.4396 52.423 75.6736 52.27 75.9196 52.144C76.1716 52.012 76.4356 51.913 76.7116 51.847C76.9936 51.775 77.2966 51.739 77.6206 51.739C78.1186 51.739 78.5566 51.823 78.9346 51.991C79.3186 52.153 79.6366 52.387 79.8886 52.693C80.1466 52.993 80.3416 53.356 80.4736 53.782C80.6056 54.208 80.6716 54.679 80.6716 55.195V61H79.0606V55.195C79.0606 54.505 78.9016 53.971 78.5836 53.593C78.2716 53.209 77.7946 53.017 77.1526 53.017C76.6786 53.017 76.2346 53.131 75.8206 53.359C75.4126 53.587 75.0346 53.896 74.6866 54.286V61H73.0756V51.883H74.0386C74.2666 51.883 74.4076 51.994 74.4616 52.216L74.5876 53.206ZM89.0528 54.052C88.7528 53.65 88.4288 53.371 88.0808 53.215C87.7328 53.053 87.3428 52.972 86.9108 52.972C86.0648 52.972 85.4138 53.275 84.9578 53.881C84.5018 54.487 84.2738 55.351 84.2738 56.473C84.2738 57.067 84.3248 57.577 84.4268 58.003C84.5288 58.423 84.6788 58.771 84.8768 59.047C85.0748 59.317 85.3178 59.515 85.6058 59.641C85.8938 59.767 86.2208 59.83 86.5868 59.83C87.1148 59.83 87.5738 59.71 87.9638 59.47C88.3598 59.23 88.7228 58.891 89.0528 58.453V54.052ZM90.6548 47.743V61H89.7008C89.4728 61 89.3288 60.889 89.2688 60.667L89.1248 59.56C88.7348 60.028 88.2908 60.406 87.7928 60.694C87.2948 60.982 86.7188 61.126 86.0648 61.126C85.5428 61.126 85.0688 61.027 84.6428 60.829C84.2168 60.625 83.8538 60.328 83.5538 59.938C83.2538 59.548 83.0228 59.062 82.8608 58.48C82.6988 57.898 82.6178 57.229 82.6178 56.473C82.6178 55.801 82.7078 55.177 82.8878 54.601C83.0678 54.019 83.3258 53.515 83.6618 53.089C83.9978 52.663 84.4088 52.33 84.8948 52.09C85.3868 51.844 85.9388 51.721 86.5508 51.721C87.1088 51.721 87.5858 51.817 87.9818 52.009C88.3838 52.195 88.7408 52.456 89.0528 52.792V47.743H90.6548ZM94.877 51.883V61H93.275V51.883H94.877ZM95.219 49.021C95.219 49.177 95.186 49.324 95.12 49.462C95.06 49.594 94.976 49.714 94.868 49.822C94.766 49.924 94.643 50.005 94.499 50.065C94.361 50.125 94.214 50.155 94.058 50.155C93.902 50.155 93.755 50.125 93.617 50.065C93.485 50.005 93.368 49.924 93.266 49.822C93.164 49.714 93.083 49.594 93.023 49.462C92.963 49.324 92.933 49.177 92.933 49.021C92.933 48.865 92.963 48.718 93.023 48.58C93.083 48.436 93.164 48.313 93.266 48.211C93.368 48.103 93.485 48.019 93.617 47.959C93.755 47.899 93.902 47.869 94.058 47.869C94.214 47.869 94.361 47.899 94.499 47.959C94.643 48.019 94.766 48.103 94.868 48.211C94.976 48.313 95.06 48.436 95.12 48.58C95.186 48.718 95.219 48.865 95.219 49.021ZM99.0212 53.206C99.2192 52.984 99.4292 52.783 99.6512 52.603C99.8732 52.423 100.107 52.27 100.353 52.144C100.605 52.012 100.869 51.913 101.145 51.847C101.427 51.775 101.73 51.739 102.054 51.739C102.552 51.739 102.99 51.823 103.368 51.991C103.752 52.153 104.07 52.387 104.322 52.693C104.58 52.993 104.775 53.356 104.907 53.782C105.039 54.208 105.105 54.679 105.105 55.195V61H103.494V55.195C103.494 54.505 103.335 53.971 103.017 53.593C102.705 53.209 102.228 53.017 101.586 53.017C101.112 53.017 100.668 53.131 100.254 53.359C99.8462 53.587 99.4682 53.896 99.1202 54.286V61H97.5092V51.883H98.4722C98.7002 51.883 98.8412 51.994 98.8952 52.216L99.0212 53.206ZM110.723 56.545C111.047 56.545 111.332 56.5 111.578 56.41C111.824 56.32 112.031 56.194 112.199 56.032C112.367 55.87 112.493 55.678 112.577 55.456C112.661 55.228 112.703 54.979 112.703 54.709C112.703 54.151 112.532 53.707 112.19 53.377C111.854 53.047 111.365 52.882 110.723 52.882C110.075 52.882 109.58 53.047 109.238 53.377C108.902 53.707 108.734 54.151 108.734 54.709C108.734 54.979 108.776 55.228 108.86 55.456C108.95 55.678 109.079 55.87 109.247 56.032C109.415 56.194 109.622 56.32 109.868 56.41C110.114 56.5 110.399 56.545 110.723 56.545ZM113.612 61.495C113.612 61.273 113.549 61.093 113.423 60.955C113.297 60.817 113.126 60.709 112.91 60.631C112.7 60.553 112.454 60.499 112.172 60.469C111.89 60.433 111.59 60.406 111.272 60.388C110.96 60.37 110.642 60.352 110.318 60.334C109.994 60.316 109.682 60.286 109.382 60.244C109.046 60.4 108.77 60.598 108.554 60.838C108.344 61.072 108.239 61.348 108.239 61.666C108.239 61.87 108.29 62.059 108.392 62.233C108.5 62.413 108.662 62.566 108.878 62.692C109.094 62.824 109.364 62.926 109.688 62.998C110.018 63.076 110.405 63.115 110.849 63.115C111.281 63.115 111.668 63.076 112.01 62.998C112.352 62.92 112.64 62.809 112.874 62.665C113.114 62.521 113.297 62.35 113.423 62.152C113.549 61.954 113.612 61.735 113.612 61.495ZM115.241 52.243V52.837C115.241 53.035 115.115 53.161 114.863 53.215L113.828 53.35C114.032 53.746 114.134 54.184 114.134 54.664C114.134 55.108 114.047 55.513 113.873 55.879C113.705 56.239 113.471 56.548 113.171 56.806C112.871 57.064 112.511 57.262 112.091 57.4C111.671 57.538 111.215 57.607 110.723 57.607C110.297 57.607 109.895 57.556 109.517 57.454C109.325 57.574 109.178 57.703 109.076 57.841C108.974 57.973 108.923 58.108 108.923 58.246C108.923 58.462 109.01 58.627 109.184 58.741C109.364 58.849 109.598 58.927 109.886 58.975C110.174 59.023 110.501 59.053 110.867 59.065C111.239 59.077 111.617 59.098 112.001 59.128C112.391 59.152 112.769 59.197 113.135 59.263C113.507 59.329 113.837 59.437 114.125 59.587C114.413 59.737 114.644 59.944 114.818 60.208C114.998 60.472 115.088 60.814 115.088 61.234C115.088 61.624 114.989 62.002 114.791 62.368C114.599 62.734 114.32 63.058 113.954 63.34C113.588 63.628 113.138 63.856 112.604 64.024C112.076 64.198 111.479 64.285 110.813 64.285C110.147 64.285 109.565 64.219 109.067 64.087C108.569 63.955 108.155 63.778 107.825 63.556C107.495 63.334 107.246 63.076 107.078 62.782C106.916 62.494 106.835 62.191 106.835 61.873C106.835 61.423 106.976 61.042 107.258 60.73C107.54 60.418 107.927 60.169 108.419 59.983C108.149 59.863 107.933 59.704 107.771 59.506C107.615 59.302 107.537 59.029 107.537 58.687C107.537 58.555 107.561 58.42 107.609 58.282C107.657 58.138 107.729 57.997 107.825 57.859C107.927 57.715 108.05 57.58 108.194 57.454C108.338 57.328 108.506 57.217 108.698 57.121C108.248 56.869 107.897 56.536 107.645 56.122C107.393 55.702 107.267 55.216 107.267 54.664C107.267 54.22 107.351 53.818 107.519 53.458C107.693 53.092 107.933 52.783 108.239 52.531C108.545 52.273 108.908 52.075 109.328 51.937C109.754 51.799 110.219 51.73 110.723 51.73C111.119 51.73 111.488 51.775 111.83 51.865C112.172 51.949 112.484 52.075 112.766 52.243H115.241ZM124.68 56.545C125.004 56.545 125.289 56.5 125.535 56.41C125.781 56.32 125.988 56.194 126.156 56.032C126.324 55.87 126.45 55.678 126.534 55.456C126.618 55.228 126.66 54.979 126.66 54.709C126.66 54.151 126.489 53.707 126.147 53.377C125.811 53.047 125.322 52.882 124.68 52.882C124.032 52.882 123.537 53.047 123.195 53.377C122.859 53.707 122.691 54.151 122.691 54.709C122.691 54.979 122.733 55.228 122.817 55.456C122.907 55.678 123.036 55.87 123.204 56.032C123.372 56.194 123.579 56.32 123.825 56.41C124.071 56.5 124.356 56.545 124.68 56.545ZM127.569 61.495C127.569 61.273 127.506 61.093 127.38 60.955C127.254 60.817 127.083 60.709 126.867 60.631C126.657 60.553 126.411 60.499 126.129 60.469C125.847 60.433 125.547 60.406 125.229 60.388C124.917 60.37 124.599 60.352 124.275 60.334C123.951 60.316 123.639 60.286 123.339 60.244C123.003 60.4 122.727 60.598 122.511 60.838C122.301 61.072 122.196 61.348 122.196 61.666C122.196 61.87 122.247 62.059 122.349 62.233C122.457 62.413 122.619 62.566 122.835 62.692C123.051 62.824 123.321 62.926 123.645 62.998C123.975 63.076 124.362 63.115 124.806 63.115C125.238 63.115 125.625 63.076 125.967 62.998C126.309 62.92 126.597 62.809 126.831 62.665C127.071 62.521 127.254 62.35 127.38 62.152C127.506 61.954 127.569 61.735 127.569 61.495ZM129.198 52.243V52.837C129.198 53.035 129.072 53.161 128.82 53.215L127.785 53.35C127.989 53.746 128.091 54.184 128.091 54.664C128.091 55.108 128.004 55.513 127.83 55.879C127.662 56.239 127.428 56.548 127.128 56.806C126.828 57.064 126.468 57.262 126.048 57.4C125.628 57.538 125.172 57.607 124.68 57.607C124.254 57.607 123.852 57.556 123.474 57.454C123.282 57.574 123.135 57.703 123.033 57.841C122.931 57.973 122.88 58.108 122.88 58.246C122.88 58.462 122.967 58.627 123.141 58.741C123.321 58.849 123.555 58.927 123.843 58.975C124.131 59.023 124.458 59.053 124.824 59.065C125.196 59.077 125.574 59.098 125.958 59.128C126.348 59.152 126.726 59.197 127.092 59.263C127.464 59.329 127.794 59.437 128.082 59.587C128.37 59.737 128.601 59.944 128.775 60.208C128.955 60.472 129.045 60.814 129.045 61.234C129.045 61.624 128.946 62.002 128.748 62.368C128.556 62.734 128.277 63.058 127.911 63.34C127.545 63.628 127.095 63.856 126.561 64.024C126.033 64.198 125.436 64.285 124.77 64.285C124.104 64.285 123.522 64.219 123.024 64.087C122.526 63.955 122.112 63.778 121.782 63.556C121.452 63.334 121.203 63.076 121.035 62.782C120.873 62.494 120.792 62.191 120.792 61.873C120.792 61.423 120.933 61.042 121.215 60.73C121.497 60.418 121.884 60.169 122.376 59.983C122.106 59.863 121.89 59.704 121.728 59.506C121.572 59.302 121.494 59.029 121.494 58.687C121.494 58.555 121.518 58.42 121.566 58.282C121.614 58.138 121.686 57.997 121.782 57.859C121.884 57.715 122.007 57.58 122.151 57.454C122.295 57.328 122.463 57.217 122.655 57.121C122.205 56.869 121.854 56.536 121.602 56.122C121.35 55.702 121.224 55.216 121.224 54.664C121.224 54.22 121.308 53.818 121.476 53.458C121.65 53.092 121.89 52.783 122.196 52.531C122.502 52.273 122.865 52.075 123.285 51.937C123.711 51.799 124.176 51.73 124.68 51.73C125.076 51.73 125.445 51.775 125.787 51.865C126.129 51.949 126.441 52.075 126.723 52.243H129.198ZM138.352 51.883V61H137.398C137.17 61 137.026 60.889 136.966 60.667L136.84 59.686C136.444 60.124 136 60.478 135.508 60.748C135.016 61.012 134.452 61.144 133.816 61.144C133.318 61.144 132.877 61.063 132.493 60.901C132.115 60.733 131.797 60.499 131.539 60.199C131.281 59.899 131.086 59.536 130.954 59.11C130.828 58.684 130.765 58.213 130.765 57.697V51.883H132.367V57.697C132.367 58.387 132.523 58.921 132.835 59.299C133.153 59.677 133.636 59.866 134.284 59.866C134.758 59.866 135.199 59.755 135.607 59.533C136.021 59.305 136.402 58.993 136.75 58.597V51.883H138.352ZM142.584 51.883V61H140.982V51.883H142.584ZM142.926 49.021C142.926 49.177 142.893 49.324 142.827 49.462C142.767 49.594 142.683 49.714 142.575 49.822C142.473 49.924 142.35 50.005 142.206 50.065C142.068 50.125 141.921 50.155 141.765 50.155C141.609 50.155 141.462 50.125 141.324 50.065C141.192 50.005 141.075 49.924 140.973 49.822C140.871 49.714 140.79 49.594 140.73 49.462C140.67 49.324 140.64 49.177 140.64 49.021C140.64 48.865 140.67 48.718 140.73 48.58C140.79 48.436 140.871 48.313 140.973 48.211C141.075 48.103 141.192 48.019 141.324 47.959C141.462 47.899 141.609 47.869 141.765 47.869C141.921 47.869 142.068 47.899 142.206 47.959C142.35 48.019 142.473 48.103 142.575 48.211C142.683 48.313 142.767 48.436 142.827 48.58C142.893 48.718 142.926 48.865 142.926 49.021ZM151.156 54.052C150.856 53.65 150.532 53.371 150.184 53.215C149.836 53.053 149.446 52.972 149.014 52.972C148.168 52.972 147.517 53.275 147.061 53.881C146.605 54.487 146.377 55.351 146.377 56.473C146.377 57.067 146.428 57.577 146.53 58.003C146.632 58.423 146.782 58.771 146.98 59.047C147.178 59.317 147.421 59.515 147.709 59.641C147.997 59.767 148.324 59.83 148.69 59.83C149.218 59.83 149.677 59.71 150.067 59.47C150.463 59.23 150.826 58.891 151.156 58.453V54.052ZM152.758 47.743V61H151.804C151.576 61 151.432 60.889 151.372 60.667L151.228 59.56C150.838 60.028 150.394 60.406 149.896 60.694C149.398 60.982 148.822 61.126 148.168 61.126C147.646 61.126 147.172 61.027 146.746 60.829C146.32 60.625 145.957 60.328 145.657 59.938C145.357 59.548 145.126 59.062 144.964 58.48C144.802 57.898 144.721 57.229 144.721 56.473C144.721 55.801 144.811 55.177 144.991 54.601C145.171 54.019 145.429 53.515 145.765 53.089C146.101 52.663 146.512 52.33 146.998 52.09C147.49 51.844 148.042 51.721 148.654 51.721C149.212 51.721 149.689 51.817 150.085 52.009C150.487 52.195 150.844 52.456 151.156 52.792V47.743H152.758ZM161.391 55.447C161.391 55.075 161.337 54.736 161.229 54.43C161.127 54.118 160.974 53.851 160.77 53.629C160.572 53.401 160.329 53.227 160.041 53.107C159.753 52.981 159.426 52.918 159.06 52.918C158.292 52.918 157.683 53.143 157.233 53.593C156.789 54.037 156.513 54.655 156.405 55.447H161.391ZM162.687 59.722C162.489 59.962 162.252 60.172 161.976 60.352C161.7 60.526 161.403 60.67 161.085 60.784C160.773 60.898 160.449 60.982 160.113 61.036C159.777 61.096 159.444 61.126 159.114 61.126C158.484 61.126 157.902 61.021 157.368 60.811C156.84 60.595 156.381 60.283 155.991 59.875C155.607 59.461 155.307 58.951 155.091 58.345C154.875 57.739 154.767 57.043 154.767 56.257C154.767 55.621 154.863 55.027 155.055 54.475C155.253 53.923 155.535 53.446 155.901 53.044C156.267 52.636 156.714 52.318 157.242 52.09C157.77 51.856 158.364 51.739 159.024 51.739C159.57 51.739 160.074 51.832 160.536 52.018C161.004 52.198 161.406 52.462 161.742 52.81C162.084 53.152 162.351 53.578 162.543 54.088C162.735 54.592 162.831 55.168 162.831 55.816C162.831 56.068 162.804 56.236 162.75 56.32C162.696 56.404 162.594 56.446 162.444 56.446H156.351C156.369 57.022 156.447 57.523 156.585 57.949C156.729 58.375 156.927 58.732 157.179 59.02C157.431 59.302 157.731 59.515 158.079 59.659C158.427 59.797 158.817 59.866 159.249 59.866C159.651 59.866 159.996 59.821 160.284 59.731C160.578 59.635 160.83 59.533 161.04 59.425C161.25 59.317 161.424 59.218 161.562 59.128C161.706 59.032 161.829 58.984 161.931 58.984C162.063 58.984 162.165 59.035 162.237 59.137L162.687 59.722ZM48.393 83.525V88.034H53.694V89.456H48.393V95H46.647V82.103H54.594V83.525H48.393ZM58.1036 85.883V95H56.5016V85.883H58.1036ZM58.4456 83.021C58.4456 83.177 58.4126 83.324 58.3466 83.462C58.2866 83.594 58.2026 83.714 58.0946 83.822C57.9926 83.924 57.8696 84.005 57.7256 84.065C57.5876 84.125 57.4406 84.155 57.2846 84.155C57.1286 84.155 56.9816 84.125 56.8436 84.065C56.7116 84.005 56.5946 83.924 56.4926 83.822C56.3906 83.714 56.3096 83.594 56.2496 83.462C56.1896 83.324 56.1596 83.177 56.1596 83.021C56.1596 82.865 56.1896 82.718 56.2496 82.58C56.3096 82.436 56.3906 82.313 56.4926 82.211C56.5946 82.103 56.7116 82.019 56.8436 81.959C56.9816 81.899 57.1286 81.869 57.2846 81.869C57.4406 81.869 57.5876 81.899 57.7256 81.959C57.8696 82.019 57.9926 82.103 58.0946 82.211C58.2026 82.313 58.2866 82.436 58.3466 82.58C58.4126 82.718 58.4456 82.865 58.4456 83.021ZM62.2478 87.206C62.4458 86.984 62.6558 86.783 62.8778 86.603C63.0998 86.423 63.3338 86.27 63.5798 86.144C63.8318 86.012 64.0958 85.913 64.3718 85.847C64.6538 85.775 64.9568 85.739 65.2808 85.739C65.7788 85.739 66.2168 85.823 66.5948 85.991C66.9788 86.153 67.2968 86.387 67.5488 86.693C67.8068 86.993 68.0018 87.356 68.1338 87.782C68.2658 88.208 68.3318 88.679 68.3318 89.195V95H66.7208V89.195C66.7208 88.505 66.5618 87.971 66.2438 87.593C65.9318 87.209 65.4548 87.017 64.8128 87.017C64.3388 87.017 63.8948 87.131 63.4808 87.359C63.0728 87.587 62.6948 87.896 62.3468 88.286V95H60.7358V85.883H61.6988C61.9268 85.883 62.0678 85.994 62.1218 86.216L62.2478 87.206ZM75.7139 90.896C74.9759 90.92 74.3459 90.98 73.8239 91.076C73.3079 91.166 72.8849 91.286 72.5549 91.436C72.2309 91.586 71.9939 91.763 71.8439 91.967C71.6999 92.171 71.6279 92.399 71.6279 92.651C71.6279 92.891 71.6669 93.098 71.7449 93.272C71.8229 93.446 71.9279 93.59 72.0599 93.704C72.1979 93.812 72.3569 93.893 72.5369 93.947C72.7229 93.995 72.9209 94.019 73.1309 94.019C73.4129 94.019 73.6709 93.992 73.9049 93.938C74.1389 93.878 74.3579 93.794 74.5619 93.686C74.7719 93.578 74.9699 93.449 75.1559 93.299C75.3479 93.149 75.5339 92.978 75.7139 92.786V90.896ZM70.5389 87.17C71.0429 86.684 71.5859 86.321 72.1679 86.081C72.7499 85.841 73.3949 85.721 74.1029 85.721C74.6129 85.721 75.0659 85.805 75.4619 85.973C75.8579 86.141 76.1909 86.375 76.4609 86.675C76.7309 86.975 76.9349 87.338 77.0729 87.764C77.2109 88.19 77.2799 88.658 77.2799 89.168V95H76.5689C76.4129 95 76.2929 94.976 76.2089 94.928C76.1249 94.874 76.0589 94.772 76.0109 94.622L75.8309 93.758C75.5909 93.98 75.3569 94.178 75.1289 94.352C74.9009 94.52 74.6609 94.664 74.4089 94.784C74.1569 94.898 73.8869 94.985 73.5989 95.045C73.3169 95.111 73.0019 95.144 72.6539 95.144C72.2999 95.144 71.9669 95.096 71.6549 95C71.3429 94.898 71.0699 94.748 70.8359 94.55C70.6079 94.352 70.4249 94.103 70.2869 93.803C70.1549 93.497 70.0889 93.137 70.0889 92.723C70.0889 92.363 70.1879 92.018 70.3859 91.688C70.5839 91.352 70.9049 91.055 71.3489 90.797C71.7929 90.539 72.3719 90.329 73.0859 90.167C73.7999 89.999 74.6759 89.903 75.7139 89.879V89.168C75.7139 88.46 75.5609 87.926 75.2549 87.566C74.9489 87.2 74.5019 87.017 73.9139 87.017C73.5179 87.017 73.1849 87.068 72.9149 87.17C72.6509 87.266 72.4199 87.377 72.2219 87.503C72.0299 87.623 71.8619 87.734 71.7179 87.836C71.5799 87.932 71.4419 87.98 71.3039 87.98C71.1959 87.98 71.1029 87.953 71.0249 87.899C70.9469 87.839 70.8809 87.767 70.8269 87.683L70.5389 87.17ZM81.3762 81.743V95H79.7742V81.743H81.3762ZM90.1905 92.804C90.4845 93.2 90.8055 93.479 91.1535 93.641C91.5015 93.803 91.8915 93.884 92.3235 93.884C93.1755 93.884 93.8295 93.581 94.2855 92.975C94.7415 92.369 94.9695 91.505 94.9695 90.383C94.9695 89.789 94.9155 89.279 94.8075 88.853C94.7055 88.427 94.5555 88.079 94.3575 87.809C94.1595 87.533 93.9165 87.332 93.6285 87.206C93.3405 87.08 93.0135 87.017 92.6475 87.017C92.1255 87.017 91.6665 87.137 91.2705 87.377C90.8805 87.617 90.5205 87.956 90.1905 88.394V92.804ZM90.1095 87.296C90.4935 86.822 90.9375 86.441 91.4415 86.153C91.9455 85.865 92.5215 85.721 93.1695 85.721C93.6975 85.721 94.1745 85.823 94.6005 86.027C95.0265 86.225 95.3895 86.522 95.6895 86.918C95.9895 87.308 96.2205 87.794 96.3825 88.376C96.5445 88.958 96.6255 89.627 96.6255 90.383C96.6255 91.055 96.5355 91.682 96.3555 92.264C96.1755 92.84 95.9145 93.341 95.5725 93.767C95.2365 94.187 94.8225 94.52 94.3305 94.766C93.8445 95.006 93.2955 95.126 92.6835 95.126C92.1255 95.126 91.6455 95.033 91.2435 94.847C90.8475 94.655 90.4965 94.391 90.1905 94.055V98.087H88.5795V85.883H89.5425C89.7705 85.883 89.9115 85.994 89.9655 86.216L90.1095 87.296ZM100.19 87.71C100.478 87.086 100.832 86.6 101.252 86.252C101.672 85.898 102.185 85.721 102.791 85.721C102.983 85.721 103.166 85.742 103.34 85.784C103.52 85.826 103.679 85.892 103.817 85.982L103.7 87.179C103.664 87.329 103.574 87.404 103.43 87.404C103.346 87.404 103.223 87.386 103.061 87.35C102.899 87.314 102.716 87.296 102.512 87.296C102.224 87.296 101.966 87.338 101.738 87.422C101.516 87.506 101.315 87.632 101.135 87.8C100.961 87.962 100.802 88.166 100.658 88.412C100.52 88.652 100.394 88.928 100.28 89.24V95H98.6694V85.883H99.5874C99.7614 85.883 99.8814 85.916 99.9474 85.982C100.013 86.048 100.058 86.162 100.082 86.324L100.19 87.71ZM108.7 85.739C109.366 85.739 109.966 85.85 110.5 86.072C111.034 86.294 111.49 86.609 111.868 87.017C112.246 87.425 112.534 87.92 112.732 88.502C112.936 89.078 113.038 89.723 113.038 90.437C113.038 91.157 112.936 91.805 112.732 92.381C112.534 92.957 112.246 93.449 111.868 93.857C111.49 94.265 111.034 94.58 110.5 94.802C109.966 95.018 109.366 95.126 108.7 95.126C108.028 95.126 107.422 95.018 106.882 94.802C106.348 94.58 105.892 94.265 105.514 93.857C105.136 93.449 104.845 92.957 104.641 92.381C104.443 91.805 104.344 91.157 104.344 90.437C104.344 89.723 104.443 89.078 104.641 88.502C104.845 87.92 105.136 87.425 105.514 87.017C105.892 86.609 106.348 86.294 106.882 86.072C107.422 85.85 108.028 85.739 108.7 85.739ZM108.7 93.875C109.6 93.875 110.272 93.575 110.716 92.975C111.16 92.369 111.382 91.526 111.382 90.446C111.382 89.36 111.16 88.514 110.716 87.908C110.272 87.302 109.6 86.999 108.7 86.999C108.244 86.999 107.845 87.077 107.503 87.233C107.167 87.389 106.885 87.614 106.657 87.908C106.435 88.202 106.267 88.565 106.153 88.997C106.045 89.423 105.991 89.906 105.991 90.446C105.991 91.526 106.213 92.369 106.657 92.975C107.107 93.575 107.788 93.875 108.7 93.875ZM121.01 88.052C120.71 87.65 120.386 87.371 120.038 87.215C119.69 87.053 119.3 86.972 118.868 86.972C118.022 86.972 117.371 87.275 116.915 87.881C116.459 88.487 116.231 89.351 116.231 90.473C116.231 91.067 116.282 91.577 116.384 92.003C116.486 92.423 116.636 92.771 116.834 93.047C117.032 93.317 117.275 93.515 117.563 93.641C117.851 93.767 118.178 93.83 118.544 93.83C119.072 93.83 119.531 93.71 119.921 93.47C120.317 93.23 120.68 92.891 121.01 92.453V88.052ZM122.612 81.743V95H121.658C121.43 95 121.286 94.889 121.226 94.667L121.082 93.56C120.692 94.028 120.248 94.406 119.75 94.694C119.252 94.982 118.676 95.126 118.022 95.126C117.5 95.126 117.026 95.027 116.6 94.829C116.174 94.625 115.811 94.328 115.511 93.938C115.211 93.548 114.98 93.062 114.818 92.48C114.656 91.898 114.575 91.229 114.575 90.473C114.575 89.801 114.665 89.177 114.845 88.601C115.025 88.019 115.283 87.515 115.619 87.089C115.955 86.663 116.366 86.33 116.852 86.09C117.344 85.844 117.896 85.721 118.508 85.721C119.066 85.721 119.543 85.817 119.939 86.009C120.341 86.195 120.698 86.456 121.01 86.792V81.743H122.612ZM132.639 85.883V95H131.685C131.457 95 131.313 94.889 131.253 94.667L131.127 93.686C130.731 94.124 130.287 94.478 129.795 94.748C129.303 95.012 128.739 95.144 128.103 95.144C127.605 95.144 127.164 95.063 126.78 94.901C126.402 94.733 126.084 94.499 125.826 94.199C125.568 93.899 125.373 93.536 125.241 93.11C125.115 92.684 125.052 92.213 125.052 91.697V85.883H126.654V91.697C126.654 92.387 126.81 92.921 127.122 93.299C127.44 93.677 127.923 93.866 128.571 93.866C129.045 93.866 129.486 93.755 129.894 93.533C130.308 93.305 130.689 92.993 131.037 92.597V85.883H132.639ZM141.524 87.503C141.476 87.569 141.428 87.62 141.38 87.656C141.332 87.692 141.266 87.71 141.182 87.71C141.092 87.71 140.993 87.674 140.885 87.602C140.777 87.524 140.642 87.44 140.48 87.35C140.324 87.26 140.129 87.179 139.895 87.107C139.667 87.029 139.385 86.99 139.049 86.99C138.599 86.99 138.203 87.071 137.861 87.233C137.519 87.389 137.231 87.617 136.997 87.917C136.769 88.217 136.595 88.58 136.475 89.006C136.361 89.432 136.304 89.909 136.304 90.437C136.304 90.989 136.367 91.481 136.493 91.913C136.619 92.339 136.796 92.699 137.024 92.993C137.258 93.281 137.537 93.503 137.861 93.659C138.191 93.809 138.56 93.884 138.968 93.884C139.358 93.884 139.679 93.839 139.931 93.749C140.183 93.653 140.39 93.548 140.552 93.434C140.72 93.32 140.858 93.218 140.966 93.128C141.08 93.032 141.191 92.984 141.299 92.984C141.431 92.984 141.533 93.035 141.605 93.137L142.055 93.722C141.857 93.968 141.632 94.178 141.38 94.352C141.128 94.526 140.855 94.673 140.561 94.793C140.273 94.907 139.97 94.991 139.652 95.045C139.334 95.099 139.01 95.126 138.68 95.126C138.11 95.126 137.579 95.021 137.087 94.811C136.601 94.601 136.178 94.298 135.818 93.902C135.458 93.5 135.176 93.008 134.972 92.426C134.768 91.844 134.666 91.181 134.666 90.437C134.666 89.759 134.759 89.132 134.945 88.556C135.137 87.98 135.413 87.485 135.773 87.071C136.139 86.651 136.586 86.324 137.114 86.09C137.648 85.856 138.26 85.739 138.95 85.739C139.592 85.739 140.156 85.844 140.642 86.054C141.134 86.258 141.569 86.549 141.947 86.927L141.524 87.503ZM146.574 95.144C145.854 95.144 145.299 94.943 144.909 94.541C144.525 94.139 144.333 93.56 144.333 92.804V87.224H143.235C143.139 87.224 143.058 87.197 142.992 87.143C142.926 87.083 142.893 86.993 142.893 86.873V86.234L144.387 86.045L144.756 83.228C144.774 83.138 144.813 83.066 144.873 83.012C144.939 82.952 145.023 82.922 145.125 82.922H145.935V86.063H148.572V87.224H145.935V92.696C145.935 93.08 146.028 93.365 146.214 93.551C146.4 93.737 146.64 93.83 146.934 93.83C147.102 93.83 147.246 93.809 147.366 93.767C147.492 93.719 147.6 93.668 147.69 93.614C147.78 93.56 147.855 93.512 147.915 93.47C147.981 93.422 148.038 93.398 148.086 93.398C148.17 93.398 148.245 93.449 148.311 93.551L148.779 94.316C148.503 94.574 148.17 94.778 147.78 94.928C147.39 95.072 146.988 95.144 146.574 95.144Z" fill="#4F4F4F"/>
</svg>
