<svg width="621" height="96" viewBox="0 0 621 96" fill="none" xmlns="http://www.w3.org/2000/svg">
<rect x="19" y="49" width="30" height="42" fill="black"/>
<path d="M1 49L34.0493 5L68 49H34.0493H1Z" fill="black" stroke="black"/>
<path d="M104.152 39.508C104.152 40.54 104.344 41.26 104.728 41.668C105.112 42.052 105.784 42.244 106.744 42.244V43C104.152 42.904 102.496 42.856 101.776 42.856C100.984 42.856 99.256 42.892 96.592 42.964L95.584 43V42.244C96.712 42.244 97.552 42.028 98.104 41.596C98.68 41.164 98.968 40.396 98.968 39.292V30.508C98.968 29.356 98.86 28.516 98.644 27.988C98.452 27.436 98.116 27.076 97.636 26.908C97.156 26.716 96.424 26.62 95.44 26.62V25.828C97.528 25.78 99.244 25.624 100.588 25.36C101.932 25.072 103.12 24.616 104.152 23.992V39.508ZM119.589 23.884C121.485 23.884 123.177 24.28 124.665 25.072C126.153 25.864 127.305 26.98 128.121 28.42C128.961 29.86 129.381 31.516 129.381 33.388C129.381 35.308 128.949 37.036 128.085 38.572C127.245 40.108 126.045 41.32 124.485 42.208C122.949 43.072 121.185 43.504 119.193 43.504C117.321 43.504 115.641 43.108 114.153 42.316C112.665 41.524 111.501 40.408 110.661 38.968C109.821 37.528 109.401 35.86 109.401 33.964C109.401 32.068 109.821 30.352 110.661 28.816C111.525 27.28 112.725 26.08 114.261 25.216C115.797 24.328 117.573 23.884 119.589 23.884ZM119.265 24.532C118.401 24.532 117.633 24.904 116.961 25.648C116.289 26.392 115.761 27.472 115.377 28.888C115.017 30.28 114.837 31.936 114.837 33.856C114.837 36.904 115.269 39.172 116.133 40.66C117.021 42.124 118.149 42.856 119.517 42.856C120.381 42.856 121.137 42.484 121.785 41.74C122.457 40.972 122.985 39.892 123.369 38.5C123.753 37.084 123.945 35.416 123.945 33.496C123.945 30.448 123.501 28.192 122.613 26.728C121.749 25.264 120.633 24.532 119.265 24.532ZM142.792 23.884C144.688 23.884 146.38 24.28 147.868 25.072C149.356 25.864 150.508 26.98 151.324 28.42C152.164 29.86 152.584 31.516 152.584 33.388C152.584 35.308 152.152 37.036 151.288 38.572C150.448 40.108 149.248 41.32 147.688 42.208C146.152 43.072 144.388 43.504 142.396 43.504C140.524 43.504 138.844 43.108 137.356 42.316C135.868 41.524 134.704 40.408 133.864 38.968C133.024 37.528 132.604 35.86 132.604 33.964C132.604 32.068 133.024 30.352 133.864 28.816C134.728 27.28 135.928 26.08 137.464 25.216C139 24.328 140.776 23.884 142.792 23.884ZM142.468 24.532C141.604 24.532 140.836 24.904 140.164 25.648C139.492 26.392 138.964 27.472 138.58 28.888C138.22 30.28 138.04 31.936 138.04 33.856C138.04 36.904 138.472 39.172 139.336 40.66C140.224 42.124 141.352 42.856 142.72 42.856C143.584 42.856 144.34 42.484 144.988 41.74C145.66 40.972 146.188 39.892 146.572 38.5C146.956 37.084 147.148 35.416 147.148 33.496C147.148 30.448 146.704 28.192 145.816 26.728C144.952 25.264 143.836 24.532 142.468 24.532ZM178.344 13.804L157.284 44.98L156.6 44.512L177.66 13.336L178.344 13.804ZM161.244 15.604C162.996 15.604 164.4 16.132 165.456 17.188C166.536 18.22 167.076 19.648 167.076 21.472C167.076 22.672 166.824 23.728 166.32 24.64C165.816 25.552 165.12 26.26 164.232 26.764C163.344 27.268 162.348 27.52 161.244 27.52C159.492 27.52 158.076 27.004 156.996 25.972C155.916 24.916 155.375 23.476 155.375 21.652C155.375 20.476 155.628 19.432 156.132 18.52C156.636 17.584 157.332 16.864 158.22 16.36C159.132 15.856 160.14 15.604 161.244 15.604ZM161.172 16.252C159.612 16.252 158.832 18.04 158.832 21.616C158.832 23.344 159.048 24.652 159.479 25.54C159.912 26.428 160.524 26.872 161.316 26.872C162.852 26.872 163.62 25.096 163.62 21.544C163.62 19.792 163.404 18.472 162.972 17.584C162.564 16.696 161.964 16.252 161.172 16.252ZM173.34 31.588C175.092 31.588 176.496 32.116 177.552 33.172C178.632 34.204 179.172 35.632 179.172 37.456C179.172 38.656 178.92 39.712 178.416 40.624C177.912 41.536 177.216 42.244 176.328 42.748C175.44 43.252 174.444 43.504 173.34 43.504C171.588 43.504 170.172 42.988 169.092 41.956C168.012 40.9 167.472 39.46 167.472 37.636C167.472 36.46 167.724 35.416 168.228 34.504C168.732 33.568 169.428 32.848 170.316 32.344C171.228 31.84 172.236 31.588 173.34 31.588ZM173.268 32.236C171.708 32.236 170.928 34.024 170.928 37.6C170.928 39.328 171.144 40.636 171.576 41.524C172.008 42.412 172.62 42.856 173.412 42.856C174.948 42.856 175.716 41.08 175.716 37.528C175.716 35.776 175.5 34.456 175.068 33.568C174.66 32.68 174.06 32.236 173.268 32.236ZM198.933 23.884C201.693 23.884 203.853 24.676 205.413 26.26C206.973 27.82 207.753 30.304 207.753 33.712C207.753 37.12 206.973 39.604 205.413 41.164C203.853 42.724 201.693 43.504 198.933 43.504C196.197 43.504 194.037 42.724 192.453 41.164C190.893 39.604 190.113 37.12 190.113 33.712C190.113 30.304 190.893 27.82 192.453 26.26C194.037 24.676 196.197 23.884 198.933 23.884ZM198.933 24.604C197.901 24.604 197.073 25.36 196.449 26.872C195.849 28.36 195.549 30.64 195.549 33.712C195.549 36.784 195.849 39.064 196.449 40.552C197.073 42.04 197.901 42.784 198.933 42.784C199.989 42.784 200.817 42.052 201.417 40.588C202.017 39.1 202.317 36.808 202.317 33.712C202.317 30.616 202.005 28.324 201.381 26.836C200.781 25.348 199.965 24.604 198.933 24.604ZM219.505 14.848C220.993 14.848 222.277 15.244 223.357 16.036C223.717 16.324 224.005 16.708 224.221 17.188C224.461 17.644 224.581 18.16 224.581 18.736C224.581 19.408 224.341 19.996 223.861 20.5C223.381 20.98 222.769 21.22 222.025 21.22C221.209 21.22 220.549 20.992 220.045 20.536C219.541 20.08 219.289 19.456 219.289 18.664C219.289 18.04 219.469 17.488 219.829 17.008C220.189 16.528 220.717 16.192 221.413 16C221.341 15.856 221.185 15.736 220.945 15.64C220.729 15.544 220.453 15.496 220.117 15.496C219.205 15.496 218.557 15.808 218.173 16.432C217.909 16.792 217.729 17.32 217.633 18.016C217.537 18.712 217.489 19.756 217.489 21.148V24.424H221.341V25.144H217.489V39.292C217.489 40.396 217.765 41.164 218.317 41.596C218.893 42.028 219.745 42.244 220.873 42.244V43L219.865 42.964C217.201 42.892 215.473 42.856 214.681 42.856C213.961 42.856 212.401 42.904 210.001 43V42.244C210.865 42.244 211.465 42.064 211.801 41.704C212.137 41.32 212.305 40.636 212.305 39.652V25.144H209.857V24.424H212.305C212.305 22.336 212.473 20.728 212.809 19.6C213.145 18.448 213.733 17.464 214.573 16.648C215.101 16.12 215.809 15.688 216.697 15.352C217.585 15.016 218.521 14.848 219.505 14.848ZM248.987 39.076C248.987 40.18 249.155 40.984 249.491 41.488C249.851 41.992 250.451 42.244 251.291 42.244V43C250.547 42.928 249.803 42.892 249.059 42.892C246.971 42.892 245.219 43.06 243.803 43.396V40.156C242.699 42.388 240.767 43.504 238.007 43.504C236.207 43.504 234.899 43.036 234.083 42.1C233.699 41.644 233.411 41.056 233.219 40.336C233.051 39.592 232.967 38.62 232.967 37.42V28.312C232.967 27.208 232.787 26.404 232.427 25.9C232.091 25.396 231.503 25.144 230.663 25.144V24.388C231.407 24.46 232.151 24.496 232.895 24.496C234.983 24.496 236.735 24.328 238.151 23.992V38.896C238.151 39.904 238.295 40.66 238.583 41.164C238.895 41.668 239.471 41.92 240.311 41.92C241.271 41.92 242.087 41.524 242.759 40.732C243.455 39.916 243.803 38.92 243.803 37.744V28.312C243.803 27.208 243.623 26.404 243.263 25.9C242.927 25.396 242.339 25.144 241.499 25.144V24.388C242.267 24.46 243.011 24.496 243.731 24.496C245.819 24.496 247.571 24.328 248.987 23.992V39.076ZM260.019 23.884C260.931 23.884 261.771 24.004 262.539 24.244C263.307 24.46 263.895 24.712 264.303 25C264.543 25.168 264.759 25.252 264.951 25.252C265.167 25.252 265.347 25.144 265.491 24.928C265.659 24.688 265.767 24.352 265.815 23.92H266.571C266.475 25.144 266.427 27.256 266.427 30.256H265.671C265.455 28.672 264.975 27.352 264.231 26.296C263.511 25.216 262.455 24.676 261.063 24.676C260.343 24.676 259.743 24.88 259.263 25.288C258.807 25.696 258.579 26.26 258.579 26.98C258.579 27.796 258.855 28.504 259.407 29.104C259.959 29.68 260.823 30.388 261.999 31.228L263.043 31.984C264.507 33.088 265.587 34.072 266.283 34.936C266.979 35.8 267.327 36.88 267.327 38.176C267.327 39.232 267.015 40.168 266.391 40.984C265.791 41.8 264.975 42.424 263.943 42.856C262.911 43.288 261.771 43.504 260.523 43.504C259.203 43.504 258.075 43.252 257.139 42.748C256.371 42.364 255.819 42.112 255.483 41.992C255.243 41.92 255.027 42.004 254.835 42.244C254.667 42.46 254.535 42.796 254.439 43.252H253.683C253.779 41.884 253.827 39.484 253.827 36.052H254.583C255.063 40.468 256.683 42.676 259.443 42.676C260.139 42.676 260.727 42.472 261.207 42.064C261.711 41.632 261.963 40.984 261.963 40.12C261.963 39.448 261.807 38.848 261.495 38.32C261.207 37.792 260.835 37.324 260.379 36.916C259.923 36.508 259.239 35.944 258.327 35.224C257.247 34.36 256.419 33.664 255.843 33.136C255.291 32.608 254.811 31.984 254.403 31.264C254.019 30.544 253.827 29.74 253.827 28.852C253.827 27.316 254.427 26.104 255.627 25.216C256.827 24.328 258.291 23.884 260.019 23.884ZM280.104 40.552C282.072 40.552 283.656 39.592 284.856 37.672L285.504 37.888C285.024 39.448 284.16 40.78 282.912 41.884C281.688 42.964 280.152 43.504 278.304 43.504C275.76 43.504 273.732 42.7 272.22 41.092C270.732 39.46 269.988 37.06 269.988 33.892C269.988 30.652 270.792 28.18 272.4 26.476C274.008 24.748 276.144 23.884 278.808 23.884C283.32 23.884 285.576 26.548 285.576 31.876H275.46C275.436 32.236 275.424 32.8 275.424 33.568C275.424 35.152 275.64 36.472 276.072 37.528C276.528 38.584 277.104 39.352 277.8 39.832C278.52 40.312 279.288 40.552 280.104 40.552ZM278.592 24.64C277.728 24.64 277.008 25.18 276.432 26.26C275.88 27.316 275.532 28.96 275.388 31.192H281.04C281.088 29.296 280.896 27.736 280.464 26.512C280.056 25.264 279.432 24.64 278.592 24.64ZM299.834 23.884C300.914 23.884 301.73 24.208 302.282 24.856C302.834 25.504 303.11 26.284 303.11 27.196C303.11 28.084 302.846 28.816 302.318 29.392C301.814 29.944 301.142 30.22 300.302 30.22C299.486 30.22 298.838 30.016 298.358 29.608C297.878 29.176 297.638 28.612 297.638 27.916C297.638 26.764 298.166 25.828 299.222 25.108C299.126 25.084 298.982 25.072 298.79 25.072C298.55 25.072 298.358 25.096 298.214 25.144C297.302 25.288 296.522 25.84 295.874 26.8C295.25 27.76 294.938 28.744 294.938 29.752V39.292C294.938 40.396 295.202 41.164 295.73 41.596C296.282 42.028 297.146 42.244 298.322 42.244V43C297.986 43 297.71 42.988 297.494 42.964C295.046 42.892 293.414 42.856 292.598 42.856C291.95 42.856 290.474 42.892 288.17 42.964C287.978 42.988 287.738 43 287.45 43V42.244C288.314 42.244 288.914 42.064 289.25 41.704C289.586 41.32 289.754 40.636 289.754 39.652V28.312C289.754 27.208 289.586 26.404 289.25 25.9C288.914 25.396 288.314 25.144 287.45 25.144V24.388C288.218 24.46 288.962 24.496 289.682 24.496C291.818 24.496 293.57 24.328 294.938 23.992V27.34C295.394 26.308 296.054 25.48 296.918 24.856C297.782 24.208 298.754 23.884 299.834 23.884ZM311.383 23.884C312.295 23.884 313.135 24.004 313.903 24.244C314.671 24.46 315.259 24.712 315.667 25C315.907 25.168 316.123 25.252 316.315 25.252C316.531 25.252 316.711 25.144 316.855 24.928C317.023 24.688 317.131 24.352 317.179 23.92H317.935C317.839 25.144 317.791 27.256 317.791 30.256H317.035C316.819 28.672 316.339 27.352 315.595 26.296C314.875 25.216 313.819 24.676 312.427 24.676C311.707 24.676 311.107 24.88 310.627 25.288C310.171 25.696 309.943 26.26 309.943 26.98C309.943 27.796 310.219 28.504 310.771 29.104C311.323 29.68 312.187 30.388 313.363 31.228L314.407 31.984C315.871 33.088 316.951 34.072 317.647 34.936C318.343 35.8 318.691 36.88 318.691 38.176C318.691 39.232 318.379 40.168 317.755 40.984C317.155 41.8 316.339 42.424 315.307 42.856C314.275 43.288 313.135 43.504 311.887 43.504C310.567 43.504 309.439 43.252 308.503 42.748C307.735 42.364 307.183 42.112 306.847 41.992C306.607 41.92 306.391 42.004 306.199 42.244C306.031 42.46 305.899 42.796 305.803 43.252H305.047C305.143 41.884 305.191 39.484 305.191 36.052H305.947C306.427 40.468 308.047 42.676 310.807 42.676C311.503 42.676 312.091 42.472 312.571 42.064C313.075 41.632 313.327 40.984 313.327 40.12C313.327 39.448 313.171 38.848 312.859 38.32C312.571 37.792 312.199 37.324 311.743 36.916C311.287 36.508 310.603 35.944 309.691 35.224C308.611 34.36 307.783 33.664 307.207 33.136C306.655 32.608 306.175 31.984 305.767 31.264C305.383 30.544 305.191 29.74 305.191 28.852C305.191 27.316 305.791 26.104 306.991 25.216C308.191 24.328 309.655 23.884 311.383 23.884ZM352.998 24.496C354.222 24.496 355.134 24.46 355.734 24.388V25.108C355.23 25.252 354.774 25.552 354.366 26.008C353.958 26.464 353.598 27.196 353.286 28.204L348.498 43.072C348.234 43.048 347.838 43.036 347.31 43.036C346.806 43.036 346.422 43.048 346.158 43.072L341.262 29.716L337.266 43.072C337.026 43.048 336.642 43.036 336.114 43.036C335.586 43.036 335.19 43.048 334.926 43.072L329.238 27.16C328.95 26.32 328.626 25.78 328.266 25.54C327.906 25.276 327.534 25.144 327.15 25.144V24.388C328.71 24.532 330.414 24.604 332.262 24.604C333.462 24.604 335.022 24.532 336.942 24.388V25.144C336.15 25.144 335.574 25.204 335.214 25.324C334.878 25.444 334.71 25.732 334.71 26.188C334.71 26.5 334.77 26.824 334.89 27.16L338.13 37.348L342.054 24.352L343.386 24.388L344.682 24.352L349.362 38.104L351.63 30.868C351.966 29.74 352.134 28.828 352.134 28.132C352.134 26.26 351.186 25.252 349.29 25.108V24.388C350.418 24.46 351.654 24.496 352.998 24.496ZM366.659 40.552C368.627 40.552 370.211 39.592 371.411 37.672L372.059 37.888C371.579 39.448 370.715 40.78 369.467 41.884C368.243 42.964 366.707 43.504 364.859 43.504C362.315 43.504 360.287 42.7 358.775 41.092C357.287 39.46 356.543 37.06 356.543 33.892C356.543 30.652 357.347 28.18 358.955 26.476C360.563 24.748 362.699 23.884 365.363 23.884C369.875 23.884 372.131 26.548 372.131 31.876H362.015C361.991 32.236 361.979 32.8 361.979 33.568C361.979 35.152 362.195 36.472 362.627 37.528C363.083 38.584 363.659 39.352 364.355 39.832C365.075 40.312 365.843 40.552 366.659 40.552ZM365.147 24.64C364.283 24.64 363.563 25.18 362.987 26.26C362.435 27.316 362.087 28.96 361.943 31.192H367.595C367.643 29.296 367.451 27.736 367.019 26.512C366.611 25.264 365.987 24.64 365.147 24.64ZM386.389 23.884C387.469 23.884 388.285 24.208 388.837 24.856C389.389 25.504 389.665 26.284 389.665 27.196C389.665 28.084 389.401 28.816 388.873 29.392C388.369 29.944 387.697 30.22 386.857 30.22C386.041 30.22 385.393 30.016 384.913 29.608C384.433 29.176 384.193 28.612 384.193 27.916C384.193 26.764 384.721 25.828 385.777 25.108C385.681 25.084 385.537 25.072 385.345 25.072C385.105 25.072 384.913 25.096 384.769 25.144C383.857 25.288 383.077 25.84 382.429 26.8C381.805 27.76 381.493 28.744 381.493 29.752V39.292C381.493 40.396 381.757 41.164 382.285 41.596C382.837 42.028 383.701 42.244 384.877 42.244V43C384.541 43 384.265 42.988 384.049 42.964C381.601 42.892 379.969 42.856 379.153 42.856C378.505 42.856 377.029 42.892 374.725 42.964C374.533 42.988 374.293 43 374.005 43V42.244C374.869 42.244 375.469 42.064 375.805 41.704C376.141 41.32 376.309 40.636 376.309 39.652V28.312C376.309 27.208 376.141 26.404 375.805 25.9C375.469 25.396 374.869 25.144 374.005 25.144V24.388C374.773 24.46 375.517 24.496 376.237 24.496C378.373 24.496 380.125 24.328 381.493 23.992V27.34C381.949 26.308 382.609 25.48 383.473 24.856C384.337 24.208 385.309 23.884 386.389 23.884ZM400.901 40.552C402.869 40.552 404.453 39.592 405.653 37.672L406.301 37.888C405.821 39.448 404.957 40.78 403.709 41.884C402.485 42.964 400.949 43.504 399.101 43.504C396.557 43.504 394.529 42.7 393.017 41.092C391.529 39.46 390.785 37.06 390.785 33.892C390.785 30.652 391.589 28.18 393.197 26.476C394.805 24.748 396.941 23.884 399.605 23.884C404.117 23.884 406.373 26.548 406.373 31.876H396.257C396.233 32.236 396.221 32.8 396.221 33.568C396.221 35.152 396.437 36.472 396.869 37.528C397.325 38.584 397.901 39.352 398.597 39.832C399.317 40.312 400.085 40.552 400.901 40.552ZM399.389 24.64C398.525 24.64 397.805 25.18 397.229 26.26C396.677 27.316 396.329 28.96 396.185 31.192H401.837C401.885 29.296 401.693 27.736 401.261 26.512C400.853 25.264 400.229 24.64 399.389 24.64ZM426.22 23.884C427.108 23.884 427.948 23.98 428.74 24.172C429.532 24.364 430.192 24.628 430.72 24.964C431.344 25.348 431.824 25.84 432.16 26.44C432.52 27.016 432.7 27.652 432.7 28.348C432.7 29.188 432.436 29.884 431.908 30.436C431.38 30.964 430.696 31.228 429.856 31.228C429.016 31.228 428.344 30.988 427.84 30.508C427.336 30.028 427.084 29.38 427.084 28.564C427.084 27.844 427.312 27.22 427.768 26.692C428.224 26.164 428.788 25.804 429.46 25.612C429.268 25.348 428.968 25.144 428.56 25C428.176 24.832 427.756 24.748 427.3 24.748C425.86 24.748 424.732 25.54 423.916 27.124C423.124 28.684 422.728 30.736 422.728 33.28C422.728 35.848 423.184 37.696 424.096 38.824C425.008 39.952 426.148 40.516 427.516 40.516C428.332 40.516 429.148 40.3 429.964 39.868C430.804 39.436 431.56 38.68 432.232 37.6L432.844 37.816C432.364 39.376 431.524 40.72 430.324 41.848C429.124 42.952 427.576 43.504 425.68 43.504C423.208 43.504 421.192 42.688 419.632 41.056C418.072 39.424 417.292 37 417.292 33.784C417.292 31.672 417.676 29.872 418.444 28.384C419.212 26.896 420.268 25.78 421.612 25.036C422.956 24.268 424.492 23.884 426.22 23.884ZM444.007 23.884C446.767 23.884 448.927 24.676 450.487 26.26C452.047 27.82 452.827 30.304 452.827 33.712C452.827 37.12 452.047 39.604 450.487 41.164C448.927 42.724 446.767 43.504 444.007 43.504C441.271 43.504 439.111 42.724 437.527 41.164C435.967 39.604 435.187 37.12 435.187 33.712C435.187 30.304 435.967 27.82 437.527 26.26C439.111 24.676 441.271 23.884 444.007 23.884ZM444.007 24.604C442.975 24.604 442.147 25.36 441.523 26.872C440.923 28.36 440.623 30.64 440.623 33.712C440.623 36.784 440.923 39.064 441.523 40.552C442.147 42.04 442.975 42.784 444.007 42.784C445.063 42.784 445.891 42.052 446.491 40.588C447.091 39.1 447.391 36.808 447.391 33.712C447.391 30.616 447.079 28.324 446.455 26.836C445.855 25.348 445.039 24.604 444.007 24.604ZM468.467 23.884C470.291 23.884 471.611 24.352 472.427 25.288C472.835 25.744 473.123 26.332 473.291 27.052C473.459 27.772 473.543 28.744 473.543 29.968V39.652C473.543 40.636 473.711 41.32 474.047 41.704C474.407 42.064 475.007 42.244 475.847 42.244V43C473.447 42.904 471.863 42.856 471.095 42.856C470.375 42.856 468.815 42.904 466.415 43V42.244C467.135 42.244 467.639 42.064 467.927 41.704C468.215 41.32 468.359 40.636 468.359 39.652V28.456C468.359 27.472 468.191 26.728 467.855 26.224C467.543 25.72 466.967 25.468 466.127 25.468C465.143 25.468 464.303 25.876 463.607 26.692C462.911 27.484 462.563 28.468 462.563 29.644V39.652C462.563 40.636 462.707 41.32 462.995 41.704C463.283 42.064 463.787 42.244 464.507 42.244V43C462.299 42.904 460.811 42.856 460.043 42.856C459.323 42.856 457.667 42.904 455.075 43V42.244C455.939 42.244 456.539 42.064 456.875 41.704C457.211 41.32 457.379 40.636 457.379 39.652V28.312C457.379 27.208 457.211 26.404 456.875 25.9C456.539 25.396 455.939 25.144 455.075 25.144V24.388C455.843 24.46 456.587 24.496 457.307 24.496C459.443 24.496 461.195 24.328 462.563 23.992V27.232C463.643 25 465.611 23.884 468.467 23.884ZM489.86 14.848C491.252 14.848 492.392 14.956 493.28 15.172C494.168 15.388 494.948 15.712 495.62 16.144C496.052 16.408 496.4 16.756 496.664 17.188C496.952 17.62 497.096 18.088 497.096 18.592C497.096 19.456 496.796 20.14 496.196 20.644C495.62 21.124 494.792 21.364 493.712 21.364C492.656 21.364 491.828 21.124 491.228 20.644C490.628 20.14 490.328 19.468 490.328 18.628C490.328 18.004 490.532 17.464 490.94 17.008C491.372 16.528 491.96 16.18 492.704 15.964C492.464 15.82 492.128 15.712 491.696 15.64C491.288 15.544 490.844 15.496 490.364 15.496C488.276 15.496 486.74 16.384 485.756 18.16C485.396 18.784 485.144 19.564 485 20.5C484.856 21.412 484.784 22.72 484.784 24.424H489.068C491.012 24.424 492.524 24.4 493.604 24.352C494.708 24.28 495.764 24.16 496.772 23.992V39.652C496.772 40.636 496.952 41.32 497.312 41.704C497.696 42.064 498.356 42.244 499.292 42.244V43C496.7 42.904 495.032 42.856 494.288 42.856C493.544 42.856 491.876 42.904 489.284 43V42.244C490.148 42.244 490.748 42.064 491.084 41.704C491.42 41.32 491.588 40.636 491.588 39.652V28.312C491.588 27.208 491.396 26.404 491.012 25.9C490.652 25.396 490.004 25.144 489.068 25.144H484.784V39.652C484.784 40.636 485.024 41.32 485.504 41.704C485.984 42.064 486.704 42.244 487.664 42.244V43L486.728 42.964C484.352 42.892 482.876 42.856 482.3 42.856C481.532 42.856 480.032 42.892 477.8 42.964C477.632 42.988 477.392 43 477.08 43V42.244C478.016 42.244 478.664 42.064 479.024 41.704C479.408 41.32 479.6 40.636 479.6 39.652V25.144H476.936V24.424H479.6C479.6 21.472 480.548 19.084 482.444 17.26C483.284 16.492 484.352 15.904 485.648 15.496C486.944 15.064 488.348 14.848 489.86 14.848ZM518.349 39.04C518.349 40.144 518.517 40.948 518.853 41.452C519.189 41.956 519.789 42.208 520.653 42.208V42.964C519.909 42.892 519.165 42.856 518.421 42.856C516.285 42.856 514.533 43.024 513.165 43.36V40.264C512.349 42.424 510.789 43.504 508.485 43.504C506.229 43.504 504.429 42.688 503.085 41.056C501.765 39.4 501.117 36.916 501.141 33.604C501.141 31.492 501.477 29.716 502.149 28.276C502.845 26.812 503.793 25.72 504.993 25C506.217 24.256 507.609 23.884 509.169 23.884C510.921 23.884 512.253 24.34 513.165 25.252V19.132C513.165 18.028 512.985 17.224 512.625 16.72C512.289 16.216 511.701 15.964 510.861 15.964V15.208C511.629 15.28 512.373 15.316 513.093 15.316C515.181 15.316 516.933 15.148 518.349 14.812V39.04ZM509.961 41.956C510.753 41.956 511.449 41.668 512.049 41.092C512.673 40.516 513.045 39.736 513.165 38.752V26.152C512.565 25.336 511.689 24.928 510.537 24.928C509.265 24.928 508.281 25.66 507.585 27.124C506.889 28.588 506.553 30.772 506.577 33.676C506.553 36.604 506.829 38.716 507.405 40.012C508.005 41.308 508.857 41.956 509.961 41.956ZM532.737 40.552C534.705 40.552 536.289 39.592 537.489 37.672L538.137 37.888C537.657 39.448 536.793 40.78 535.545 41.884C534.321 42.964 532.785 43.504 530.937 43.504C528.393 43.504 526.365 42.7 524.853 41.092C523.365 39.46 522.621 37.06 522.621 33.892C522.621 30.652 523.425 28.18 525.033 26.476C526.641 24.748 528.777 23.884 531.441 23.884C535.953 23.884 538.209 26.548 538.209 31.876H528.093C528.069 32.236 528.057 32.8 528.057 33.568C528.057 35.152 528.273 36.472 528.705 37.528C529.161 38.584 529.737 39.352 530.433 39.832C531.153 40.312 531.921 40.552 532.737 40.552ZM531.225 24.64C530.361 24.64 529.641 25.18 529.065 26.26C528.513 27.316 528.165 28.96 528.021 31.192H533.673C533.721 29.296 533.529 27.736 533.097 26.512C532.689 25.264 532.065 24.64 531.225 24.64ZM553.475 23.884C555.299 23.884 556.619 24.352 557.435 25.288C557.843 25.744 558.131 26.332 558.299 27.052C558.467 27.772 558.551 28.744 558.551 29.968V39.652C558.551 40.636 558.719 41.32 559.055 41.704C559.415 42.064 560.015 42.244 560.855 42.244V43C558.455 42.904 556.871 42.856 556.103 42.856C555.383 42.856 553.823 42.904 551.423 43V42.244C552.143 42.244 552.647 42.064 552.935 41.704C553.223 41.32 553.367 40.636 553.367 39.652V28.456C553.367 27.472 553.199 26.728 552.863 26.224C552.551 25.72 551.975 25.468 551.135 25.468C550.151 25.468 549.311 25.876 548.615 26.692C547.919 27.484 547.571 28.468 547.571 29.644V39.652C547.571 40.636 547.715 41.32 548.003 41.704C548.291 42.064 548.795 42.244 549.515 42.244V43C547.307 42.904 545.819 42.856 545.051 42.856C544.331 42.856 542.675 42.904 540.083 43V42.244C540.947 42.244 541.547 42.064 541.883 41.704C542.219 41.32 542.387 40.636 542.387 39.652V28.312C542.387 27.208 542.219 26.404 541.883 25.9C541.547 25.396 540.947 25.144 540.083 25.144V24.388C540.851 24.46 541.595 24.496 542.315 24.496C544.451 24.496 546.203 24.328 547.571 23.992V27.232C548.651 25 550.619 23.884 553.475 23.884ZM569.504 24.388H573.752V25.108H569.504V39.652C569.504 40.372 569.624 40.888 569.864 41.2C570.128 41.488 570.536 41.632 571.088 41.632C572.12 41.632 572.936 40.912 573.536 39.472L574.148 39.796C573.236 42.268 571.592 43.504 569.216 43.504C567.632 43.504 566.432 43.096 565.616 42.28C565.112 41.776 564.764 41.152 564.572 40.408C564.404 39.64 564.32 38.596 564.32 37.276V25.108H561.296V24.388H564.32V19.636C566.312 19.636 568.04 19.252 569.504 18.484V24.388ZM587.689 15.1C588.697 15.1 589.489 15.352 590.065 15.856C590.665 16.336 590.965 17.008 590.965 17.872C590.965 18.736 590.665 19.42 590.065 19.924C589.489 20.404 588.697 20.644 587.689 20.644C586.681 20.644 585.877 20.404 585.277 19.924C584.701 19.42 584.413 18.736 584.413 17.872C584.413 17.008 584.701 16.336 585.277 15.856C585.877 15.352 586.681 15.1 587.689 15.1ZM590.497 39.652C590.497 40.636 590.665 41.32 591.001 41.704C591.361 42.064 591.961 42.244 592.801 42.244V43C590.401 42.904 588.805 42.856 588.013 42.856C587.269 42.856 585.601 42.904 583.009 43V42.244C583.873 42.244 584.473 42.064 584.809 41.704C585.145 41.32 585.313 40.636 585.313 39.652V28.312C585.313 27.208 585.145 26.404 584.809 25.9C584.473 25.396 583.873 25.144 583.009 25.144V24.388C583.777 24.46 584.521 24.496 585.241 24.496C587.377 24.496 589.129 24.328 590.497 23.992V39.652ZM607.756 23.884C609.58 23.884 610.9 24.352 611.716 25.288C612.124 25.744 612.412 26.332 612.58 27.052C612.748 27.772 612.832 28.744 612.832 29.968V39.652C612.832 40.636 613 41.32 613.336 41.704C613.696 42.064 614.296 42.244 615.136 42.244V43C612.736 42.904 611.152 42.856 610.384 42.856C609.664 42.856 608.104 42.904 605.704 43V42.244C606.424 42.244 606.928 42.064 607.216 41.704C607.504 41.32 607.648 40.636 607.648 39.652V28.456C607.648 27.472 607.48 26.728 607.144 26.224C606.832 25.72 606.256 25.468 605.416 25.468C604.432 25.468 603.592 25.876 602.896 26.692C602.2 27.484 601.852 28.468 601.852 29.644V39.652C601.852 40.636 601.996 41.32 602.284 41.704C602.572 42.064 603.076 42.244 603.796 42.244V43C601.588 42.904 600.1 42.856 599.332 42.856C598.612 42.856 596.956 42.904 594.364 43V42.244C595.228 42.244 595.828 42.064 596.164 41.704C596.5 41.32 596.668 40.636 596.668 39.652V28.312C596.668 27.208 596.5 26.404 596.164 25.9C595.828 25.396 595.228 25.144 594.364 25.144V24.388C595.132 24.46 595.876 24.496 596.596 24.496C598.732 24.496 600.484 24.328 601.852 23.992V27.232C602.932 25 604.9 23.884 607.756 23.884ZM104.224 68.884C105.112 68.884 105.952 68.98 106.744 69.172C107.536 69.364 108.196 69.628 108.724 69.964C109.348 70.348 109.828 70.84 110.164 71.44C110.524 72.016 110.704 72.652 110.704 73.348C110.704 74.188 110.44 74.884 109.912 75.436C109.384 75.964 108.7 76.228 107.86 76.228C107.02 76.228 106.348 75.988 105.844 75.508C105.34 75.028 105.088 74.38 105.088 73.564C105.088 72.844 105.316 72.22 105.772 71.692C106.228 71.164 106.792 70.804 107.464 70.612C107.272 70.348 106.972 70.144 106.564 70C106.18 69.832 105.76 69.748 105.304 69.748C103.864 69.748 102.736 70.54 101.92 72.124C101.128 73.684 100.732 75.736 100.732 78.28C100.732 80.848 101.188 82.696 102.1 83.824C103.012 84.952 104.152 85.516 105.52 85.516C106.336 85.516 107.152 85.3 107.968 84.868C108.808 84.436 109.564 83.68 110.236 82.6L110.848 82.816C110.368 84.376 109.528 85.72 108.328 86.848C107.128 87.952 105.58 88.504 103.684 88.504C101.212 88.504 99.196 87.688 97.636 86.056C96.076 84.424 95.296 82 95.296 78.784C95.296 76.672 95.68 74.872 96.448 73.384C97.216 71.896 98.272 70.78 99.616 70.036C100.96 69.268 102.496 68.884 104.224 68.884ZM122.011 68.884C124.771 68.884 126.931 69.676 128.491 71.26C130.051 72.82 130.831 75.304 130.831 78.712C130.831 82.12 130.051 84.604 128.491 86.164C126.931 87.724 124.771 88.504 122.011 88.504C119.275 88.504 117.115 87.724 115.531 86.164C113.971 84.604 113.191 82.12 113.191 78.712C113.191 75.304 113.971 72.82 115.531 71.26C117.115 69.676 119.275 68.884 122.011 68.884ZM122.011 69.604C120.979 69.604 120.151 70.36 119.527 71.872C118.927 73.36 118.627 75.64 118.627 78.712C118.627 81.784 118.927 84.064 119.527 85.552C120.151 87.04 120.979 87.784 122.011 87.784C123.067 87.784 123.895 87.052 124.495 85.588C125.095 84.1 125.395 81.808 125.395 78.712C125.395 75.616 125.083 73.324 124.459 71.836C123.859 70.348 123.043 69.604 122.011 69.604ZM162.023 84.652C162.023 85.636 162.191 86.32 162.527 86.704C162.887 87.064 163.487 87.244 164.327 87.244V88C161.927 87.904 160.343 87.856 159.575 87.856C158.903 87.856 157.415 87.904 155.111 88V87.244C155.759 87.244 156.203 87.064 156.443 86.704C156.707 86.344 156.839 85.66 156.839 84.652V73.456C156.839 72.448 156.683 71.704 156.371 71.224C156.083 70.72 155.519 70.468 154.679 70.468C153.791 70.468 153.011 70.84 152.339 71.584C151.691 72.328 151.307 73.24 151.187 74.32V74.968V84.652C151.187 85.636 151.331 86.32 151.619 86.704C151.931 87.064 152.483 87.244 153.275 87.244V88C150.971 87.904 149.459 87.856 148.739 87.856C148.067 87.856 146.579 87.904 144.275 88V87.244C144.923 87.244 145.367 87.064 145.607 86.704C145.871 86.32 146.003 85.636 146.003 84.652V73.456C146.003 72.448 145.871 71.704 145.607 71.224C145.343 70.72 144.827 70.468 144.059 70.468C143.099 70.468 142.271 70.876 141.575 71.692C140.903 72.484 140.567 73.468 140.567 74.644V84.652C140.567 85.636 140.687 86.32 140.927 86.704C141.191 87.064 141.647 87.244 142.295 87.244V88C140.183 87.904 138.767 87.856 138.047 87.856C137.327 87.856 135.671 87.904 133.079 88V87.244C133.943 87.244 134.543 87.064 134.879 86.704C135.215 86.32 135.383 85.636 135.383 84.652V73.312C135.383 72.208 135.215 71.404 134.879 70.9C134.543 70.396 133.943 70.144 133.079 70.144V69.388C133.847 69.46 134.591 69.496 135.311 69.496C137.447 69.496 139.199 69.328 140.567 68.992V72.232C141.623 70 143.483 68.884 146.147 68.884C147.971 68.884 149.291 69.352 150.107 70.288C150.563 70.768 150.863 71.488 151.007 72.448C151.631 71.152 152.447 70.24 153.455 69.712C154.463 69.16 155.639 68.884 156.983 68.884C158.807 68.884 160.127 69.352 160.943 70.288C161.327 70.72 161.603 71.308 161.771 72.052C161.939 72.796 162.023 73.768 162.023 74.968V84.652ZM178.593 68.884C179.841 68.884 180.945 69.22 181.905 69.892C182.889 70.564 183.657 71.572 184.209 72.916C184.761 74.26 185.037 75.904 185.037 77.848C185.037 81.28 184.281 83.92 182.769 85.768C181.281 87.592 179.253 88.504 176.685 88.504C175.965 88.504 175.281 88.408 174.633 88.216C174.009 88.024 173.469 87.736 173.013 87.352V90.952C173.013 92.008 173.277 92.74 173.805 93.148C174.333 93.556 175.149 93.76 176.253 93.76V94.516L175.281 94.48C172.617 94.408 170.925 94.372 170.205 94.372C169.485 94.372 167.973 94.42 165.669 94.516V93.76C166.461 93.76 167.013 93.58 167.325 93.22C167.661 92.884 167.829 92.248 167.829 91.312V73.312C167.829 72.208 167.649 71.404 167.289 70.9C166.953 70.396 166.365 70.144 165.525 70.144V69.388C166.293 69.46 167.037 69.496 167.757 69.496C169.845 69.496 171.597 69.328 173.013 68.992V72.304C173.517 71.2 174.249 70.36 175.209 69.784C176.169 69.184 177.297 68.884 178.593 68.884ZM175.281 87.532C176.817 87.532 177.921 86.776 178.593 85.264C179.265 83.728 179.601 81.496 179.601 78.568C179.601 75.64 179.325 73.552 178.773 72.304C178.245 71.056 177.477 70.432 176.469 70.432C175.653 70.432 174.921 70.708 174.273 71.26C173.649 71.812 173.229 72.58 173.013 73.564V86.56C173.589 87.208 174.345 87.532 175.281 87.532ZM194.599 84.652C194.599 85.636 194.767 86.32 195.103 86.704C195.439 87.064 196.039 87.244 196.903 87.244V88C194.407 87.904 192.799 87.856 192.079 87.856C191.263 87.856 189.607 87.904 187.111 88V87.244C187.951 87.244 188.539 87.064 188.875 86.704C189.235 86.32 189.415 85.636 189.415 84.652V64.132C189.415 63.028 189.235 62.224 188.875 61.72C188.539 61.216 187.951 60.964 187.111 60.964V60.208C187.879 60.28 188.623 60.316 189.343 60.316C191.431 60.316 193.183 60.148 194.599 59.812V84.652ZM208.667 85.552C210.635 85.552 212.219 84.592 213.419 82.672L214.067 82.888C213.587 84.448 212.723 85.78 211.475 86.884C210.251 87.964 208.715 88.504 206.867 88.504C204.323 88.504 202.295 87.7 200.783 86.092C199.295 84.46 198.551 82.06 198.551 78.892C198.551 75.652 199.355 73.18 200.963 71.476C202.571 69.748 204.707 68.884 207.371 68.884C211.883 68.884 214.139 71.548 214.139 76.876H204.023C203.999 77.236 203.987 77.8 203.987 78.568C203.987 80.152 204.203 81.472 204.635 82.528C205.091 83.584 205.667 84.352 206.363 84.832C207.083 85.312 207.851 85.552 208.667 85.552ZM207.155 69.64C206.291 69.64 205.571 70.18 204.995 71.26C204.443 72.316 204.095 73.96 203.951 76.192H209.603C209.651 74.296 209.459 72.736 209.027 71.512C208.619 70.264 207.995 69.64 207.155 69.64ZM223.531 69.388H227.779V70.108H223.531V84.652C223.531 85.372 223.651 85.888 223.891 86.2C224.155 86.488 224.563 86.632 225.115 86.632C226.147 86.632 226.963 85.912 227.563 84.472L228.175 84.796C227.263 87.268 225.619 88.504 223.243 88.504C221.659 88.504 220.459 88.096 219.643 87.28C219.139 86.776 218.791 86.152 218.599 85.408C218.431 84.64 218.347 83.596 218.347 82.276V70.108H215.323V69.388H218.347V64.636C220.339 64.636 222.067 64.252 223.531 63.484V69.388ZM233.56 60.1C234.568 60.1 235.36 60.352 235.936 60.856C236.536 61.336 236.836 62.008 236.836 62.872C236.836 63.736 236.536 64.42 235.936 64.924C235.36 65.404 234.568 65.644 233.56 65.644C232.552 65.644 231.748 65.404 231.148 64.924C230.572 64.42 230.284 63.736 230.284 62.872C230.284 62.008 230.572 61.336 231.148 60.856C231.748 60.352 232.552 60.1 233.56 60.1ZM236.368 84.652C236.368 85.636 236.536 86.32 236.872 86.704C237.232 87.064 237.832 87.244 238.672 87.244V88C236.272 87.904 234.676 87.856 233.884 87.856C233.14 87.856 231.472 87.904 228.88 88V87.244C229.744 87.244 230.344 87.064 230.68 86.704C231.016 86.32 231.184 85.636 231.184 84.652V73.312C231.184 72.208 231.016 71.404 230.68 70.9C230.344 70.396 229.744 70.144 228.88 70.144V69.388C229.648 69.46 230.392 69.496 231.112 69.496C233.248 69.496 235 69.328 236.368 68.992V84.652ZM253.627 68.884C255.451 68.884 256.771 69.352 257.587 70.288C257.995 70.744 258.283 71.332 258.451 72.052C258.619 72.772 258.703 73.744 258.703 74.968V84.652C258.703 85.636 258.871 86.32 259.207 86.704C259.567 87.064 260.167 87.244 261.007 87.244V88C258.607 87.904 257.023 87.856 256.255 87.856C255.535 87.856 253.975 87.904 251.575 88V87.244C252.295 87.244 252.799 87.064 253.087 86.704C253.375 86.32 253.519 85.636 253.519 84.652V73.456C253.519 72.472 253.351 71.728 253.015 71.224C252.703 70.72 252.127 70.468 251.287 70.468C250.303 70.468 249.463 70.876 248.767 71.692C248.071 72.484 247.723 73.468 247.723 74.644V84.652C247.723 85.636 247.867 86.32 248.155 86.704C248.443 87.064 248.947 87.244 249.667 87.244V88C247.459 87.904 245.971 87.856 245.203 87.856C244.483 87.856 242.827 87.904 240.235 88V87.244C241.099 87.244 241.699 87.064 242.035 86.704C242.371 86.32 242.539 85.636 242.539 84.652V73.312C242.539 72.208 242.371 71.404 242.035 70.9C241.699 70.396 241.099 70.144 240.235 70.144V69.388C241.003 69.46 241.747 69.496 242.467 69.496C244.603 69.496 246.355 69.328 247.723 68.992V72.232C248.803 70 250.771 68.884 253.627 68.884ZM279.166 72.844C278.686 72.844 278.278 72.688 277.942 72.376C277.606 72.04 277.438 71.572 277.438 70.972C277.438 70.396 277.582 69.808 277.87 69.208C277.294 69.448 276.814 69.724 276.43 70.036C276.07 70.324 275.758 70.696 275.494 71.152C276.238 72.04 276.61 73.192 276.61 74.608C276.61 76.504 275.95 77.932 274.63 78.892C273.334 79.852 271.606 80.332 269.446 80.332H268.798C267.814 80.908 267.322 81.544 267.322 82.24C267.322 83.008 267.802 83.392 268.762 83.392H272.686C274.798 83.392 276.478 83.788 277.726 84.58C278.998 85.348 279.634 86.536 279.634 88.144C279.634 89.368 279.238 90.472 278.446 91.456C277.678 92.464 276.502 93.268 274.918 93.868C273.334 94.468 271.39 94.768 269.086 94.768C266.758 94.768 264.886 94.468 263.47 93.868C262.078 93.292 261.382 92.452 261.382 91.348C261.382 90.604 261.718 89.932 262.39 89.332C263.062 88.756 264.058 88.3 265.378 87.964L265.702 88.54C264.838 89.26 264.406 90.088 264.406 91.024C264.406 92.032 264.862 92.8 265.774 93.328C266.686 93.88 267.946 94.156 269.554 94.156C271.234 94.156 272.59 93.82 273.622 93.148C274.678 92.476 275.206 91.528 275.206 90.304C275.206 89.512 274.906 88.888 274.306 88.432C273.73 87.976 272.71 87.748 271.246 87.748H269.014C267.478 87.748 266.278 87.496 265.414 86.992C264.55 86.464 264.118 85.672 264.118 84.616C264.118 83.728 264.43 82.936 265.054 82.24C265.678 81.544 266.626 80.872 267.898 80.224C266.17 80.008 264.802 79.432 263.794 78.496C262.786 77.56 262.282 76.264 262.282 74.608C262.282 72.712 262.93 71.284 264.226 70.324C265.546 69.364 267.286 68.884 269.446 68.884C271.846 68.884 273.682 69.448 274.954 70.576C275.41 69.928 275.974 69.412 276.646 69.028C277.318 68.644 278.002 68.452 278.698 68.452C279.418 68.452 279.982 68.668 280.39 69.1C280.822 69.508 281.038 70.048 281.038 70.72C281.038 71.392 280.846 71.92 280.462 72.304C280.102 72.664 279.67 72.844 279.166 72.844ZM269.446 79.684C270.118 79.684 270.622 79.3 270.958 78.532C271.318 77.764 271.498 76.456 271.498 74.608C271.498 72.76 271.318 71.452 270.958 70.684C270.622 69.916 270.118 69.532 269.446 69.532C268.774 69.532 268.258 69.916 267.898 70.684C267.562 71.452 267.394 72.76 267.394 74.608C267.394 76.456 267.562 77.764 267.898 78.532C268.258 79.3 268.774 79.684 269.446 79.684ZM297.289 69.388H301.537V70.108H297.289V84.652C297.289 85.372 297.409 85.888 297.649 86.2C297.913 86.488 298.321 86.632 298.873 86.632C299.905 86.632 300.721 85.912 301.321 84.472L301.933 84.796C301.021 87.268 299.377 88.504 297.001 88.504C295.417 88.504 294.217 88.096 293.401 87.28C292.897 86.776 292.549 86.152 292.357 85.408C292.189 84.64 292.105 83.596 292.105 82.276V70.108H289.081V69.388H292.105V64.636C294.097 64.636 295.825 64.252 297.289 63.484V69.388ZM309.945 72.232C311.025 70 312.981 68.884 315.813 68.884C317.685 68.884 319.005 69.352 319.773 70.288C320.181 70.744 320.469 71.344 320.637 72.088C320.829 72.808 320.925 73.768 320.925 74.968V84.652C320.925 85.636 321.093 86.32 321.429 86.704C321.765 87.064 322.365 87.244 323.229 87.244V88C320.733 87.904 319.149 87.856 318.477 87.856C317.661 87.856 316.101 87.904 313.797 88V87.244C314.517 87.244 315.021 87.064 315.309 86.704C315.597 86.32 315.741 85.636 315.741 84.652V73.456C315.741 72.472 315.573 71.728 315.237 71.224C314.925 70.72 314.349 70.468 313.509 70.468C312.501 70.468 311.649 70.864 310.953 71.656C310.281 72.424 309.945 73.408 309.945 74.608V84.652C309.945 85.636 310.089 86.32 310.377 86.704C310.665 87.064 311.169 87.244 311.889 87.244V88C309.585 87.904 308.097 87.856 307.425 87.856C306.609 87.856 304.953 87.904 302.457 88V87.244C303.297 87.244 303.885 87.064 304.221 86.704C304.581 86.32 304.761 85.636 304.761 84.652V64.168C304.761 63.064 304.581 62.26 304.221 61.756C303.885 61.252 303.297 61 302.457 61V60.244C303.225 60.316 303.969 60.352 304.689 60.352C306.777 60.352 308.529 60.184 309.945 59.848V72.232ZM335.124 85.552C337.092 85.552 338.676 84.592 339.876 82.672L340.524 82.888C340.044 84.448 339.18 85.78 337.932 86.884C336.708 87.964 335.172 88.504 333.324 88.504C330.78 88.504 328.752 87.7 327.24 86.092C325.752 84.46 325.008 82.06 325.008 78.892C325.008 75.652 325.812 73.18 327.42 71.476C329.028 69.748 331.164 68.884 333.828 68.884C338.34 68.884 340.596 71.548 340.596 76.876H330.48C330.456 77.236 330.444 77.8 330.444 78.568C330.444 80.152 330.66 81.472 331.092 82.528C331.548 83.584 332.124 84.352 332.82 84.832C333.54 85.312 334.308 85.552 335.124 85.552ZM333.612 69.64C332.748 69.64 332.028 70.18 331.452 71.26C330.9 72.316 330.552 73.96 330.408 76.192H336.06C336.108 74.296 335.916 72.736 335.484 71.512C335.076 70.264 334.452 69.64 333.612 69.64ZM370.667 84.652C370.667 85.636 370.847 86.32 371.207 86.704C371.591 87.064 372.251 87.244 373.187 87.244V88C370.595 87.904 368.927 87.856 368.183 87.856C367.439 87.856 365.771 87.904 363.179 88V87.244C364.043 87.244 364.643 87.064 364.979 86.704C365.315 86.32 365.483 85.636 365.483 84.652V63.664C365.483 62.56 365.255 61.78 364.799 61.324C364.559 61.06 364.235 60.856 363.827 60.712C363.443 60.568 363.035 60.496 362.603 60.496C361.955 60.496 361.403 60.604 360.947 60.82C360.515 61.012 360.131 61.312 359.795 61.72C359.315 62.248 359.003 62.92 358.859 63.736C358.739 64.552 358.679 65.788 358.679 67.444V69.424H362.459V70.144H358.679V84.652C358.679 85.636 358.919 86.32 359.399 86.704C359.879 87.064 360.599 87.244 361.559 87.244V88L360.623 87.964C358.247 87.892 356.771 87.856 356.195 87.856C355.427 87.856 353.927 87.892 351.695 87.964C351.527 87.988 351.287 88 350.975 88V87.244C351.911 87.244 352.559 87.064 352.919 86.704C353.303 86.32 353.495 85.636 353.495 84.652V70.144H350.831V69.424H353.495C353.495 67.6 353.699 66.076 354.107 64.852C354.515 63.604 355.175 62.584 356.087 61.792C356.879 61.12 357.791 60.628 358.823 60.316C359.855 60.004 360.923 59.848 362.027 59.848C362.507 59.848 363.251 59.896 364.259 59.992C365.411 60.088 366.323 60.136 366.995 60.136C368.123 60.136 369.347 60.016 370.667 59.776V84.652ZM383.574 68.884C386.334 68.884 388.494 69.676 390.054 71.26C391.614 72.82 392.394 75.304 392.394 78.712C392.394 82.12 391.614 84.604 390.054 86.164C388.494 87.724 386.334 88.504 383.574 88.504C380.838 88.504 378.678 87.724 377.094 86.164C375.534 84.604 374.754 82.12 374.754 78.712C374.754 75.304 375.534 72.82 377.094 71.26C378.678 69.676 380.838 68.884 383.574 68.884ZM383.574 69.604C382.542 69.604 381.714 70.36 381.09 71.872C380.49 73.36 380.19 75.64 380.19 78.712C380.19 81.784 380.49 84.064 381.09 85.552C381.714 87.04 382.542 87.784 383.574 87.784C384.63 87.784 385.458 87.052 386.058 85.588C386.658 84.1 386.958 81.808 386.958 78.712C386.958 75.616 386.646 73.324 386.022 71.836C385.422 70.348 384.606 69.604 383.574 69.604ZM418.951 69.496C420.175 69.496 421.087 69.46 421.687 69.388V70.108C421.183 70.252 420.727 70.552 420.319 71.008C419.911 71.464 419.551 72.196 419.239 73.204L414.451 88.072C414.187 88.048 413.791 88.036 413.263 88.036C412.759 88.036 412.375 88.048 412.111 88.072L407.215 74.716L403.219 88.072C402.979 88.048 402.595 88.036 402.067 88.036C401.539 88.036 401.143 88.048 400.879 88.072L395.191 72.16C394.903 71.32 394.579 70.78 394.219 70.54C393.859 70.276 393.487 70.144 393.103 70.144V69.388C394.663 69.532 396.367 69.604 398.215 69.604C399.415 69.604 400.975 69.532 402.895 69.388V70.144C402.103 70.144 401.527 70.204 401.167 70.324C400.831 70.444 400.663 70.732 400.663 71.188C400.663 71.5 400.723 71.824 400.843 72.16L404.083 82.348L408.007 69.352L409.339 69.388L410.635 69.352L415.315 83.104L417.583 75.868C417.919 74.74 418.087 73.828 418.087 73.132C418.087 71.26 417.139 70.252 415.243 70.108V69.388C416.371 69.46 417.607 69.496 418.951 69.496Z" fill="black"/>
</svg>
