<svg width="654" height="116" viewBox="0 0 654 116" fill="none" xmlns="http://www.w3.org/2000/svg">
<path d="M15.04 63.2C15.36 63.6267 15.6533 64.0267 15.92 64.4C16.1867 64.72 16.48 65.0933 16.8 65.52C15.8933 66.1067 14.72 66.88 13.28 67.84C11.84 68.8 10.4267 69.8667 9.04 71.04C7.70667 72.2133 6.61333 73.4133 5.76 74.64C4.90667 75.92 4.64 77.1467 4.96 78.32C8.8 78.48 12.8267 77.9733 17.04 76.8C21.3067 75.68 25.44 74.1067 29.44 72.08C33.4933 70 37.28 67.6267 40.8 64.96C44.32 62.2933 47.3067 59.5467 49.76 56.72C50.7733 55.44 51.68 54.0267 52.48 52.48C51.2533 52.0533 49.7867 51.84 48.08 51.84C46.3733 51.7867 44.7733 51.84 43.28 52C38.32 52.5333 33.52 53.0667 28.88 53.6C24.2933 54.08 19.7067 54.5867 15.12 55.12C13.52 55.2267 12.0533 55.2533 10.72 55.2C9.44 55.0933 8.24 54.8267 7.12 54.4C6.05333 53.9733 5.04 53.36 4.08 52.56C3.12 51.7067 2.18667 50.5867 1.28 49.2C0.746667 48.08 0.64 46.9867 0.96 45.92C1.28 44.8 1.76 43.7867 2.4 42.88C4.69333 39.84 7.54667 37.0133 10.96 34.4C14.4267 31.7333 18.16 29.3067 22.16 27.12C26.2133 24.88 30.3733 22.88 34.64 21.12C38.96 19.36 43.0933 17.8667 47.04 16.64C51.04 15.36 54.6933 14.3467 58 13.6C61.36 12.8533 64.1067 12.4 66.24 12.24C68.7467 12.0267 70.8267 12.64 72.48 14.08C73.28 14.7733 74.0533 15.68 74.8 16.8C75.5467 17.8667 76.0533 18.9067 76.32 19.92C76.5333 20.9867 76.2133 22.08 75.36 23.2C73.4933 25.44 71.1733 27.5467 68.4 29.52C65.68 31.4933 62.8533 33.3067 59.92 34.96C56.9867 36.6133 54.1067 38.08 51.28 39.36C48.5067 40.5867 46.1333 41.6 44.16 42.4C43.4667 42.6667 42.9067 42.8533 42.48 42.96C42.0533 43.0667 41.6533 43.0667 41.28 42.96C40.9067 42.8533 40.5067 42.6133 40.08 42.24C39.7067 41.8667 39.2267 41.36 38.64 40.72C41.3067 39.12 44 37.5733 46.72 36.08C49.44 34.5333 52.1067 32.9333 54.72 31.28C57.3867 29.5733 59.9467 27.7867 62.4 25.92C64.9067 24.0533 67.28 21.9467 69.52 19.6C63.8133 20.3467 58.1067 21.5733 52.4 23.28C46.7467 24.9867 41.2267 27.12 35.84 29.68C30.5067 32.24 25.4133 35.1733 20.56 38.48C15.76 41.7867 11.36 45.36 7.36 49.2C10.4533 49.6267 13.5733 49.7867 16.72 49.68C19.92 49.52 23.12 49.28 26.32 48.96C29.5733 48.5867 32.7733 48.24 35.92 47.92C39.12 47.6 42.2667 47.44 45.36 47.44C47.6533 47.4933 49.7333 47.92 51.6 48.72C53.52 49.4667 54.9067 50.9067 55.76 53.04C56.08 54.1067 55.9733 55.2267 55.44 56.4C54.9067 57.5733 54.1867 58.6933 53.28 59.76C50.9867 62.48 48.0533 65.1733 44.48 67.84C40.9067 70.4533 37.0933 72.8 33.04 74.88C28.9867 77.0133 24.9067 78.7467 20.8 80.08C16.6933 81.4667 12.96 82.24 9.6 82.4C8.58667 82.5067 7.52 82.3467 6.4 81.92C5.28 81.4933 4.29333 80.88 3.44 80.08C2.64 79.3333 2.05333 78.4533 1.68 77.44C1.30667 76.48 1.33333 75.52 1.76 74.56C2.24 73.44 2.93333 72.3467 3.84 71.28C4.8 70.2133 5.86667 69.2267 7.04 68.32C8.26667 67.36 9.54667 66.4533 10.88 65.6C12.2667 64.7467 13.6533 63.9467 15.04 63.2ZM99.3056 50.64C95.4123 55.1733 91.7056 59.3333 88.1856 63.12C84.6656 66.8533 81.039 70.4 77.3056 73.76C76.2923 74.5067 75.359 75.0667 74.5056 75.44C73.7056 75.8133 72.7456 75.6533 71.6256 74.96C71.359 74.8 71.0656 74.64 70.7456 74.48C70.4256 74.3733 70.1056 74.2133 69.7856 74C68.399 73.4133 67.4123 72.6133 66.8256 71.6C66.1856 70.5867 65.839 69.3867 65.7856 68C65.679 66.0267 65.8123 64.1067 66.1856 62.24C66.5056 60.3733 66.959 58.5333 67.5456 56.72C68.9856 51.9733 70.8256 47.44 73.0656 43.12C75.3056 38.8 77.7056 34.5333 80.2656 30.32C80.5856 29.8933 80.879 29.4667 81.1456 29.04C81.4123 28.56 81.759 28 82.1856 27.36C80.7456 27.36 79.3056 27.3867 77.8656 27.44C76.479 27.44 75.119 27.36 73.7856 27.2C72.4523 27.04 71.1723 26.7467 69.9456 26.32C68.719 25.84 67.5723 25.0667 66.5056 24C65.919 23.4667 65.6256 22.9333 65.6256 22.4C65.5723 21.8667 65.679 21.3867 65.9456 20.96C66.159 20.5333 66.5056 20.1867 66.9856 19.92C67.4123 19.6533 67.8656 19.52 68.3456 19.52C68.7723 20.1067 69.599 20.56 70.8256 20.88C72.0523 21.2 73.4656 21.44 75.0656 21.6C76.719 21.76 78.4256 21.8667 80.1856 21.92C81.999 21.92 83.7056 21.92 85.3056 21.92C86.799 20.16 88.239 18.4 89.6256 16.64C91.0123 14.88 92.399 13.1733 93.7856 11.52C95.2256 9.81333 96.639 8.18666 98.0256 6.63999C99.4656 5.09333 100.959 3.65333 102.506 2.32C102.986 1.94666 103.466 1.62666 103.946 1.36C104.426 1.09333 104.959 1.14666 105.546 1.52C106.132 1.94666 106.666 2.45333 107.146 3.04C107.679 3.57333 108.159 4.13333 108.586 4.72C108.639 4.77333 108.559 5.14666 108.346 5.84C108.132 6.48 107.866 7.22666 107.546 8.08C107.279 8.88 107.012 9.68 106.746 10.48C106.479 11.2267 106.319 11.7333 106.266 12C105.839 11.7867 105.466 11.6 105.146 11.44C104.826 11.2267 104.506 10.9867 104.186 10.72L96.9856 20.56C100.986 20.08 105.066 19.7067 109.226 19.44C113.439 19.1733 117.412 19.0667 121.146 19.12C124.879 19.12 128.239 19.28 131.226 19.6C134.266 19.92 136.666 20.4 138.426 21.04C139.439 21.4133 140.346 21.8667 141.146 22.4C141.946 22.88 142.692 23.4933 143.386 24.24C143.759 24.72 143.919 25.12 143.866 25.44C143.866 25.76 143.519 25.84 142.826 25.68C140.746 24.88 138.399 24.32 135.786 24C133.226 23.68 130.506 23.52 127.626 23.52C124.799 23.4667 121.892 23.5733 118.906 23.84C115.919 24.0533 112.986 24.32 110.106 24.64C107.279 24.9067 104.559 25.2 101.946 25.52C99.3323 25.84 96.9856 26.08 94.9056 26.24C94.2656 26.3467 93.7056 26.48 93.2256 26.64C92.799 26.8 92.399 27.1467 92.0256 27.68C89.8923 31.0933 87.8123 34.56 85.7856 38.08C83.759 41.6 81.8923 45.2 80.1856 48.88C78.5323 52.5067 77.0923 56.24 75.8656 60.08C74.6923 63.8667 73.839 67.7333 73.3056 71.68C75.599 70.24 77.7856 68.56 79.8656 66.64C81.9456 64.72 83.9723 62.72 85.9456 60.64C87.919 58.5067 89.8656 56.3733 91.7856 54.24C93.7056 52.1067 95.679 50.1067 97.7056 48.24L99.3056 50.64ZM137.137 51.36C134.31 53.9733 131.404 56.48 128.417 58.88C125.43 61.28 122.23 63.36 118.817 65.12C115.19 67.04 111.59 66.9333 108.017 64.8C106.63 63.8933 105.537 62.8533 104.737 61.68C103.937 60.5067 103.59 59.0933 103.697 57.44C103.964 53.44 104.897 49.7867 106.497 46.48C108.15 43.1733 110.63 40.32 113.937 37.92C115.217 36.96 116.47 36.4267 117.697 36.32C118.977 36.16 120.23 36.2933 121.457 36.72C122.684 37.0933 123.83 37.68 124.897 38.48C126.017 39.2267 127.057 40.0267 128.017 40.88C130.204 42.8533 130.417 45.0133 128.657 47.36C126.257 50.56 123.19 52.8 119.457 54.08C118.017 54.6133 116.63 54.6667 115.297 54.24C113.964 53.76 112.684 53.28 111.457 52.8C110.71 54.08 110.15 55.3333 109.777 56.56C109.404 57.7867 109.217 59.0933 109.217 60.48C109.217 61.7067 109.43 62.5333 109.857 62.96C110.337 63.3867 111.19 63.4667 112.417 63.2C114.604 62.6133 116.684 61.7867 118.657 60.72C120.63 59.6533 122.524 58.5067 124.337 57.28C126.15 56 127.91 54.6667 129.617 53.28C131.324 51.8933 133.057 50.5867 134.817 49.36L137.137 51.36ZM122.657 41.04C121.91 41.3067 121.084 41.7867 120.177 42.48C119.27 43.1733 118.364 43.9733 117.457 44.88C116.55 45.7333 115.724 46.6133 114.977 47.52C114.23 48.3733 113.67 49.1467 113.297 49.84C114.257 49.9467 115.244 49.76 116.257 49.28C117.324 48.8 118.31 48.16 119.217 47.36C120.124 46.56 120.897 45.6267 121.537 44.56C122.177 43.44 122.55 42.2667 122.657 41.04ZM138.51 87.36C138.563 87.84 138.483 88.1867 138.27 88.4C138.003 88.6667 137.63 88.7467 137.15 88.64C135.497 88.16 134.243 87.4667 133.39 86.56C132.483 85.6533 131.87 84.56 131.55 83.28C131.23 82 131.177 80.56 131.39 78.96C131.55 77.36 131.87 75.6533 132.35 73.84C133.31 69.9467 134.617 65.9733 136.27 61.92C137.923 57.8667 139.79 53.9733 141.87 50.24C143.897 46.4533 146.083 42.9333 148.43 39.68C150.777 36.4267 153.123 33.6533 155.47 31.36C158.563 28.2667 161.497 29.04 164.27 33.68C163.63 33.84 162.857 34.3733 161.95 35.28C161.097 36.1333 160.217 37.0933 159.31 38.16C158.403 39.2267 157.55 40.2933 156.75 41.36C155.95 42.3733 155.31 43.1467 154.83 43.68C156.377 42.9333 157.897 42.1867 159.39 41.44C160.883 40.6933 162.323 40.08 163.71 39.6C165.15 39.0667 166.483 38.6933 167.71 38.48C168.937 38.2667 170.057 38.32 171.07 38.64C171.923 38.9067 172.723 39.3867 173.47 40.08C174.217 40.72 174.963 41.44 175.71 42.24C176.563 43.1467 177.043 44.1333 177.15 45.2C177.257 46.2133 177.097 47.2267 176.67 48.24C176.03 49.7333 175.23 51.1467 174.27 52.48C173.31 53.76 172.297 54.96 171.23 56.08C172.51 55.7067 173.683 55.3067 174.75 54.88C175.817 54.4 176.803 53.8933 177.71 53.36C178.67 52.8267 179.603 52.24 180.51 51.6C181.47 50.9067 182.483 50.16 183.55 49.36L185.31 52C182.697 54.2933 179.817 56.2133 176.67 57.76C173.577 59.3067 170.323 60.56 166.91 61.52C163.497 62.48 160.003 63.2267 156.43 63.76C152.91 64.24 149.39 64.56 145.87 64.72C145.123 66.2667 144.27 68.0533 143.31 70.08C142.403 72.1067 141.55 74.16 140.75 76.24C139.95 78.3733 139.337 80.4 138.91 82.32C138.43 84.2933 138.297 85.9733 138.51 87.36ZM171.23 41.2C169.043 40.9867 166.803 41.36 164.51 42.32C162.217 43.28 160.03 44.6667 157.95 46.48C155.87 48.2933 153.95 50.4267 152.19 52.88C150.483 55.28 149.123 57.7867 148.11 60.4C150.19 59.8667 152.19 59.2 154.11 58.4C156.03 57.6 157.923 56.6667 159.79 55.6C160.803 54.96 162.003 54.1067 163.39 53.04C164.777 51.92 166.057 50.72 167.23 49.44C168.457 48.1067 169.47 46.72 170.27 45.28C171.07 43.84 171.39 42.48 171.23 41.2ZM239.459 51.92C238.712 52.56 237.779 53.4133 236.659 54.48C235.592 55.5467 234.472 56.64 233.299 57.76C232.125 58.88 230.952 59.9467 229.779 60.96C228.659 61.92 227.645 62.64 226.739 63.12C224.765 64.1333 222.792 64.08 220.819 62.96C219.005 62 218.259 60.5867 218.579 58.72C218.845 56.9067 219.165 55.1733 219.539 53.52C219.965 51.8133 220.392 50.16 220.819 48.56C217.992 50 215.352 51.6267 212.899 53.44C210.445 55.2 208.099 57.0667 205.859 59.04C203.619 61.0133 201.432 63.0667 199.299 65.2C197.165 67.28 195.032 69.3333 192.899 71.36C192.419 71.84 191.885 72.3733 191.299 72.96C190.712 73.4933 190.045 73.6267 189.299 73.36C188.392 73.04 187.485 72.64 186.579 72.16C185.672 71.6267 184.819 71.0667 184.019 70.48C183.645 70.2667 183.459 69.7867 183.459 69.04C183.459 68.24 183.539 67.4133 183.699 66.56C183.859 65.6533 184.072 64.8267 184.339 64.08C184.605 63.28 184.792 62.7467 184.899 62.48C186.125 59.6 187.379 56.7467 188.659 53.92C189.885 51.04 191.272 48.2133 192.819 45.44C195.112 41.2267 197.539 37.12 200.099 33.12C202.659 29.0667 205.352 25.2 208.179 21.52C211.005 17.7867 213.992 14.24 217.139 10.88C220.285 7.52 223.645 4.4 227.219 1.52C229.299 0.293332 231.005 -0.133336 232.339 0.239996C233.725 0.559995 235.245 1.67999 236.899 3.6C237.165 4.18666 236.979 4.66666 236.339 5.04C235.699 5.36 235.192 5.62666 234.819 5.84C230.659 8.45333 226.685 11.8133 222.899 15.92C219.165 19.9733 215.645 24.3733 212.339 29.12C209.085 33.8133 206.072 38.64 203.299 43.6C200.525 48.56 198.072 53.2 195.939 57.52C195.245 58.9067 195.005 59.76 195.219 60.08C195.432 60.4 196.179 59.9733 197.459 58.8C198.952 57.52 200.525 56.24 202.179 54.96C203.832 53.6267 205.512 52.3467 207.219 51.12C208.979 49.8933 210.739 48.7733 212.499 47.76C214.259 46.6933 215.939 45.84 217.539 45.2C218.232 44.9333 218.925 44.7733 219.619 44.72C220.312 44.6667 221.032 44.8267 221.779 45.2C223.272 46.0533 224.312 46.9333 224.899 47.84C225.485 48.6933 225.779 49.6267 225.779 50.64C225.779 51.6 225.565 52.64 225.139 53.76C224.765 54.8267 224.365 56 223.939 57.28C223.832 57.76 223.725 58.24 223.619 58.72C223.512 59.2 223.379 59.8133 223.219 60.56C224.232 60.1333 225.352 59.44 226.579 58.48C227.859 57.4667 229.139 56.4 230.419 55.28C231.699 54.1067 232.899 52.9867 234.019 51.92C235.192 50.8533 236.232 50.0267 237.139 49.44L239.459 51.92ZM270.766 64.88C269.539 66 268.552 66.88 267.806 67.52C267.112 68.16 266.526 68.6667 266.046 69.04C265.619 69.36 265.299 69.6 265.086 69.76C264.872 69.8667 264.686 69.9467 264.526 70C263.566 70.32 262.632 70.3467 261.726 70.08C260.819 69.76 260.072 69.2 259.486 68.4C258.899 67.6 258.472 66.5867 258.206 65.36C257.992 64.08 258.072 62.64 258.446 61.04L255.326 64.08C254.152 65.2533 252.792 66 251.246 66.32C249.699 66.64 248.232 66.6133 246.846 66.24C245.459 65.8133 244.232 65.0667 243.166 64C242.099 62.9333 241.459 61.6 241.246 60C241.086 58.1867 241.379 56.2933 242.126 54.32C242.872 52.3467 243.832 50.4533 245.006 48.64C246.232 46.7733 247.566 45.0667 249.006 43.52C250.499 41.92 251.859 40.64 253.086 39.68C254.366 38.6667 255.566 37.92 256.686 37.44C257.806 36.96 258.899 36.72 259.966 36.72C261.032 36.6667 262.099 36.88 263.166 37.36C264.232 37.7867 265.379 38.4 266.606 39.2C267.352 38.7733 268.072 38.2667 268.766 37.68C269.512 37.0933 270.259 36.7733 271.006 36.72C271.752 36.72 272.499 37.0133 273.246 37.6C273.992 38.1333 274.792 38.6133 275.646 39.04C274.739 41.0667 273.779 43.0933 272.766 45.12C271.806 47.1467 270.872 49.2 269.966 51.28C269.112 53.36 268.339 55.4667 267.646 57.6C266.952 59.7333 266.472 61.8933 266.206 64.08C269.032 62 271.566 59.7067 273.806 57.2C276.046 54.6933 278.232 52.0533 280.366 49.28L282.846 50.4C281.086 53.12 279.192 55.68 277.166 58.08C275.192 60.4267 273.059 62.6933 270.766 64.88ZM265.246 41.6C264.872 40.96 264.419 40.6667 263.886 40.72C263.406 40.7733 262.952 40.9333 262.526 41.2C259.112 43.44 256.286 46.2133 254.046 49.52C251.806 52.7733 250.259 56.2667 249.406 60C250.579 59.4667 251.939 58.5067 253.486 57.12C255.032 55.7333 256.552 54.16 258.046 52.4C259.592 50.64 261.006 48.8 262.286 46.88C263.566 44.96 264.552 43.2 265.246 41.6ZM336.233 52.16C334.526 53.76 332.793 55.3333 331.033 56.88C329.326 58.3733 327.593 59.8933 325.833 61.44C324.926 62.1333 323.993 62.4 323.033 62.24C322.126 62.0267 321.139 61.5733 320.073 60.88C319.006 60.24 318.419 59.52 318.313 58.72C318.206 57.92 318.153 57.1467 318.153 56.4C318.206 55.0133 318.313 53.6533 318.473 52.32C318.633 50.9867 318.766 49.6267 318.873 48.24C319.033 46 318.739 44.8267 317.993 44.72C317.299 44.6133 316.099 45.1467 314.393 46.32C310.979 48.8267 307.726 51.4667 304.633 54.24C301.539 56.96 298.766 60 296.313 63.36C295.726 64.1067 295.246 64.6933 294.873 65.12C294.553 65.4933 294.179 65.7067 293.753 65.76C293.379 65.8133 292.873 65.7067 292.233 65.44C291.646 65.1733 290.819 64.7467 289.753 64.16C289.326 63.9467 288.926 63.76 288.553 63.6C288.232 63.44 287.886 63.2267 287.512 62.96C286.232 62.2667 285.592 61.2533 285.592 59.92C285.966 55.4933 287.006 51.28 288.713 47.28C290.419 43.2267 293.006 39.76 296.473 36.88C297.219 36.1867 297.993 35.8667 298.793 35.92C299.646 35.92 300.473 36.1067 301.273 36.48C302.073 36.8533 302.846 37.3067 303.593 37.84C304.339 38.3733 305.006 38.8267 305.593 39.2C304.366 40.2667 303.139 41.6 301.913 43.2C300.739 44.7467 299.619 46.3733 298.553 48.08C297.539 49.7333 296.606 51.3867 295.753 53.04C294.953 54.64 294.313 56 293.833 57.12C295.326 55.7867 296.979 54.3467 298.793 52.8C300.606 51.2533 302.446 49.7867 304.313 48.4C306.179 46.96 307.993 45.6533 309.753 44.48C311.513 43.2533 313.086 42.2933 314.473 41.6C315.379 41.1733 316.286 41.0667 317.193 41.28C318.099 41.44 319.059 41.8133 320.073 42.4C322.366 43.84 323.539 45.6267 323.593 47.76C323.539 49.5733 323.406 51.3333 323.193 53.04C322.979 54.6933 323.113 56.2933 323.593 57.84C325.459 56.4533 327.246 55.04 328.953 53.6C330.659 52.16 332.366 50.6667 334.073 49.12L336.233 52.16ZM362.659 51.44C361.433 52.9867 360.153 54.56 358.819 56.16C357.486 57.7067 356.179 59.1733 354.899 60.56C353.673 61.8933 352.526 63.0933 351.459 64.16C350.446 65.1733 349.646 65.9467 349.059 66.48C348.419 67.0667 347.673 67.4667 346.819 67.68C346.019 67.8933 345.193 67.9467 344.339 67.84C343.539 67.68 342.713 67.3867 341.859 66.96C341.059 66.5333 340.339 65.9467 339.699 65.2C339.326 64.7733 339.033 64.2667 338.819 63.68C338.606 63.04 338.446 62.4 338.339 61.76C338.126 60.3733 338.259 58.8 338.739 57.04C339.219 55.2267 339.886 53.44 340.739 51.68C341.539 49.92 342.419 48.24 343.379 46.64C344.339 45.04 345.219 43.76 346.019 42.8C346.979 41.7333 348.179 41.2533 349.619 41.36C351.059 41.4667 352.259 42.1333 353.219 43.36C353.593 44 353.673 44.64 353.459 45.28C352.979 46.7733 352.366 48.2667 351.619 49.76C350.873 51.2533 350.099 52.7467 349.299 54.24C348.499 55.7333 347.753 57.2267 347.059 58.72C346.366 60.2133 345.859 61.7067 345.539 63.2C346.926 62.6133 348.259 61.8133 349.539 60.8C350.873 59.7867 352.153 58.64 353.379 57.36C354.606 56.08 355.806 54.7467 356.979 53.36C358.153 51.92 359.299 50.5333 360.419 49.2L362.659 51.44ZM350.419 35.84C350.419 35.04 350.499 34.1067 350.659 33.04C350.819 31.9733 351.086 31.0133 351.459 30.16C351.886 29.2533 352.446 28.56 353.139 28.08C353.833 27.6 354.713 27.5733 355.779 28C356.793 28.4267 357.593 28.8533 358.179 29.28C358.766 29.6533 359.139 30.08 359.299 30.56C359.513 30.9867 359.513 31.52 359.299 32.16C359.139 32.7467 358.819 33.4667 358.339 34.32C358.073 34.7467 357.859 35.0933 357.699 35.36C357.593 35.5733 357.486 35.8133 357.379 36.08C357.273 36.2933 357.139 36.5333 356.979 36.8C356.819 37.0667 356.633 37.4133 356.419 37.84C355.993 38.6933 355.619 39.1733 355.299 39.28C354.979 39.3867 354.313 39.2 353.299 38.72C352.606 38.4533 351.939 38.16 351.299 37.84C350.713 37.52 350.419 36.8533 350.419 35.84ZM366.462 57.44C366.729 53.44 367.662 49.7867 369.263 46.48C370.916 43.1733 373.396 40.32 376.703 37.92C377.983 36.96 379.236 36.4267 380.463 36.32C381.743 36.16 382.996 36.2933 384.223 36.72C385.449 37.0933 386.596 37.68 387.663 38.48C388.783 39.2267 389.823 40.0267 390.783 40.88C392.969 42.8533 393.183 45.0133 391.423 47.36C389.023 50.56 385.956 52.8 382.223 54.08C380.783 54.6133 379.396 54.6667 378.062 54.24C376.729 53.76 375.449 53.28 374.223 52.8C373.903 53.44 373.529 54.24 373.103 55.2C372.729 56.16 372.409 57.1467 372.143 58.16C371.929 59.12 371.823 60.0533 371.823 60.96C371.876 61.8133 372.143 62.48 372.623 62.96C375.289 62.32 378.063 61.36 380.943 60.08C383.876 58.8 386.729 57.28 389.503 55.52C392.329 53.7067 395.049 51.7067 397.663 49.52C400.276 47.28 402.596 44.9333 404.623 42.48C406.703 39.9733 408.436 37.3867 409.823 34.72C411.209 32.0533 412.089 29.36 412.463 26.64C412.569 25.84 412.836 25.28 413.262 24.96C413.742 24.5867 414.649 24.7467 415.983 25.44C418.009 27.04 419.236 28.6133 419.663 30.16C420.143 31.7067 420.116 33.3333 419.583 35.04C418.516 38.5067 416.809 41.7333 414.463 44.72C412.116 47.6533 409.423 50.32 406.383 52.72C403.343 55.12 400.089 57.2 396.623 58.96C393.209 60.72 389.929 62.1333 386.783 63.2C385.023 63.7867 383.129 64.32 381.103 64.8C379.129 65.28 377.183 65.5733 375.263 65.68C374.036 65.7867 372.889 65.6267 371.823 65.2C370.756 64.7733 369.823 64.1867 369.023 63.44C368.223 62.6933 367.582 61.8133 367.102 60.8C366.622 59.7333 366.409 58.6133 366.462 57.44ZM385.423 41.04C384.676 41.3067 383.849 41.7867 382.943 42.48C382.036 43.1733 381.129 43.9733 380.223 44.88C379.316 45.7333 378.489 46.6133 377.743 47.52C376.996 48.3733 376.436 49.1467 376.063 49.84C377.023 49.9467 378.009 49.76 379.023 49.28C380.089 48.8 381.076 48.16 381.983 47.36C382.889 46.56 383.663 45.6267 384.303 44.56C384.943 43.44 385.316 42.2667 385.423 41.04ZM460.55 80.88C458.897 80.6667 457.59 80.2667 456.63 79.68C455.723 79.0933 455.03 78.3467 454.55 77.44C454.123 76.5867 453.883 75.6 453.83 74.48C453.777 73.4133 453.803 72.2667 453.91 71.04C454.123 68.9067 454.577 66.64 455.27 64.24C455.963 61.7867 456.763 59.3067 457.67 56.8C458.577 54.2933 459.563 51.7867 460.63 49.28C461.697 46.72 462.71 44.2667 463.67 41.92C464.47 40 464.817 38.1333 464.71 36.32C464.657 34.4533 464.337 32.64 463.75 30.88C463.163 29.12 462.417 27.3867 461.51 25.68C460.603 23.9733 459.723 22.32 458.87 20.72C458.283 19.3867 458.097 18.48 458.31 18C458.523 17.52 459.403 17.0933 460.95 16.72C466.443 15.5467 472.23 14.4 478.31 13.28C484.39 12.1067 490.337 11.0933 496.15 10.24C502.017 9.33333 507.537 8.64 512.71 8.16C517.937 7.62666 522.443 7.38666 526.23 7.44C528.31 7.33333 529.99 7.84 531.27 8.96C532.55 10.08 533.67 11.36 534.63 12.8C535.163 13.6 535.19 14.24 534.71 14.72C534.283 15.1467 533.323 15.3067 531.83 15.2C525.003 15.2 518.123 15.52 511.19 16.16C504.31 16.8 497.43 17.44 490.55 18.08C489.483 18.1333 488.657 18.6667 488.07 19.68C486.79 21.8133 485.163 24.48 483.19 27.68C481.27 30.8267 479.27 34.2667 477.19 38C475.11 41.7333 473.03 45.6 470.95 49.6C468.923 53.6 467.137 57.4933 465.59 61.28C464.043 65.0133 462.87 68.5067 462.07 71.76C461.27 75.0133 461.057 77.76 461.43 80C461.537 80.64 461.537 80.9333 461.43 80.88C461.377 80.88 461.083 80.88 460.55 80.88ZM463.27 21.92C464.177 23.9467 465.03 25.92 465.83 27.84C466.63 29.7067 467.43 31.6267 468.23 33.6C469.03 32.2667 469.75 31.04 470.39 29.92C471.03 28.7467 471.67 27.6267 472.31 26.56C472.95 25.4933 473.59 24.4267 474.23 23.36C474.923 22.24 475.67 21.0667 476.47 19.84C475.19 20 474.017 20.1867 472.95 20.4C471.883 20.56 470.817 20.72 469.75 20.88C468.737 21.04 467.697 21.2267 466.63 21.44C465.617 21.6 464.497 21.76 463.27 21.92ZM506.307 51.2C504.441 52.9067 502.468 54.4 500.388 55.68C498.361 56.96 496.334 58.3733 494.308 59.92C494.788 61.9467 495.188 63.76 495.508 65.36C495.828 66.96 495.934 68.5067 495.828 70C495.774 71.44 495.454 72.88 494.868 74.32C494.281 75.8133 493.321 77.4667 491.988 79.28C488.681 83.3867 484.387 86.2133 479.107 87.76C477.027 88.3467 475.134 88.32 473.428 87.68C471.721 87.0933 470.121 86.08 468.627 84.64C468.147 84.0533 467.854 83.3867 467.747 82.64C467.641 81.9467 467.667 81.2 467.827 80.4C467.934 79.6 468.147 78.8 468.467 78C468.787 77.2 469.187 76.4 469.667 75.6C470.574 74.0533 471.641 72.6667 472.867 71.44C474.094 70.2133 475.481 69.04 477.027 67.92C478.521 66.8 480.174 65.6533 481.987 64.48C483.801 63.3067 485.774 62 487.908 60.56C487.268 58.7467 486.708 57.2267 486.228 56C485.801 54.7733 485.454 53.7333 485.188 52.88C484.867 52.0267 484.627 51.3333 484.467 50.8C484.254 50.2133 484.094 49.6533 483.987 49.12C483.561 47.36 483.507 45.6267 483.827 43.92C484.147 42.2133 484.761 40.64 485.668 39.2C486.628 37.76 487.801 36.5333 489.188 35.52C490.628 34.4533 492.228 33.7333 493.988 33.36C494.841 33.2 495.694 33.2 496.548 33.36C497.454 33.52 498.281 33.8133 499.028 34.24C499.828 34.6667 500.548 35.2 501.188 35.84C501.828 36.48 502.361 37.2 502.788 38C502.628 38.1067 502.441 38.16 502.228 38.16C502.014 38.16 501.828 38.16 501.668 38.16C499.268 38.2667 497.294 38.8267 495.747 39.84C494.254 40.8 493.161 42.1333 492.468 43.84C491.774 45.5467 491.481 47.5733 491.588 49.92C491.694 52.2133 492.174 54.7467 493.028 57.52L504.948 49.2L506.307 51.2ZM471.587 82.8C473.667 82.5867 475.721 81.8667 477.747 80.64C479.774 79.4133 481.587 77.8933 483.187 76.08C484.734 74.2667 485.934 72.2933 486.788 70.16C487.694 68.0267 488.041 65.9733 487.827 64C485.961 65.2267 484.067 66.5067 482.147 67.84C480.174 69.12 478.414 70.5067 476.867 72C475.267 73.4933 473.961 75.12 472.947 76.88C471.934 78.64 471.481 80.6133 471.587 82.8ZM538.563 64.88C537.336 66 536.349 66.88 535.603 67.52C534.909 68.16 534.323 68.6667 533.843 69.04C533.416 69.36 533.096 69.6 532.883 69.76C532.669 69.8667 532.483 69.9467 532.323 70C531.363 70.32 530.429 70.3467 529.523 70.08C528.616 69.76 527.869 69.2 527.283 68.4C526.696 67.6 526.269 66.5867 526.003 65.36C525.789 64.08 525.869 62.64 526.243 61.04L523.122 64.08C521.949 65.2533 520.589 66 519.043 66.32C517.496 66.64 516.029 66.6133 514.643 66.24C513.256 65.8133 512.029 65.0667 510.962 64C509.896 62.9333 509.256 61.6 509.042 60C508.882 58.1867 509.176 56.2933 509.923 54.32C510.669 52.3467 511.629 50.4533 512.803 48.64C514.029 46.7733 515.363 45.0667 516.803 43.52C518.296 41.92 519.656 40.64 520.883 39.68C522.163 38.6667 523.363 37.92 524.483 37.44C525.603 36.96 526.696 36.72 527.763 36.72C528.829 36.6667 529.896 36.88 530.963 37.36C532.029 37.7867 533.176 38.4 534.403 39.2C535.149 38.7733 535.869 38.2667 536.563 37.68C537.309 37.0933 538.056 36.7733 538.803 36.72C539.549 36.72 540.296 37.0133 541.043 37.6C541.789 38.1333 542.589 38.6133 543.443 39.04C542.536 41.0667 541.576 43.0933 540.563 45.12C539.603 47.1467 538.669 49.2 537.763 51.28C536.909 53.36 536.136 55.4667 535.443 57.6C534.749 59.7333 534.269 61.8933 534.003 64.08C536.829 62 539.363 59.7067 541.603 57.2C543.843 54.6933 546.029 52.0533 548.163 49.28L550.643 50.4C548.883 53.12 546.989 55.68 544.963 58.08C542.989 60.4267 540.856 62.6933 538.563 64.88ZM533.043 41.6C532.669 40.96 532.216 40.6667 531.683 40.72C531.203 40.7733 530.749 40.9333 530.323 41.2C526.909 43.44 524.083 46.2133 521.843 49.52C519.603 52.7733 518.056 56.2667 517.203 60C518.376 59.4667 519.736 58.5067 521.283 57.12C522.829 55.7333 524.349 54.16 525.843 52.4C527.389 50.64 528.803 48.8 530.083 46.88C531.363 44.96 532.349 43.2 533.043 41.6ZM604.029 52.16C602.323 53.76 600.589 55.3333 598.829 56.88C597.123 58.3733 595.389 59.8933 593.629 61.44C592.723 62.1333 591.789 62.4 590.829 62.24C589.923 62.0267 588.936 61.5733 587.869 60.88C586.803 60.24 586.216 59.52 586.109 58.72C586.003 57.92 585.949 57.1467 585.949 56.4C586.003 55.0133 586.109 53.6533 586.269 52.32C586.429 50.9867 586.563 49.6267 586.669 48.24C586.829 46 586.536 44.8267 585.789 44.72C585.096 44.6133 583.896 45.1467 582.189 46.32C578.776 48.8267 575.523 51.4667 572.429 54.24C569.336 56.96 566.563 60 564.109 63.36C563.523 64.1067 563.043 64.6933 562.669 65.12C562.349 65.4933 561.976 65.7067 561.549 65.76C561.176 65.8133 560.669 65.7067 560.029 65.44C559.443 65.1733 558.616 64.7467 557.549 64.16C557.123 63.9467 556.723 63.76 556.349 63.6C556.029 63.44 555.683 63.2267 555.309 62.96C554.029 62.2667 553.389 61.2533 553.389 59.92C553.763 55.4933 554.803 51.28 556.509 47.28C558.216 43.2267 560.803 39.76 564.269 36.88C565.016 36.1867 565.789 35.8667 566.589 35.92C567.443 35.92 568.269 36.1067 569.069 36.48C569.869 36.8533 570.643 37.3067 571.389 37.84C572.136 38.3733 572.803 38.8267 573.389 39.2C572.163 40.2667 570.936 41.6 569.709 43.2C568.536 44.7467 567.416 46.3733 566.349 48.08C565.336 49.7333 564.403 51.3867 563.549 53.04C562.749 54.64 562.109 56 561.629 57.12C563.123 55.7867 564.776 54.3467 566.589 52.8C568.403 51.2533 570.243 49.7867 572.109 48.4C573.976 46.96 575.789 45.6533 577.549 44.48C579.309 43.2533 580.883 42.2933 582.269 41.6C583.176 41.1733 584.083 41.0667 584.989 41.28C585.896 41.44 586.856 41.8133 587.869 42.4C590.163 43.84 591.336 45.6267 591.389 47.76C591.336 49.5733 591.203 51.3333 590.989 53.04C590.776 54.6933 590.909 56.2933 591.389 57.84C593.256 56.4533 595.043 55.04 596.749 53.6C598.456 52.16 600.163 50.6667 601.869 49.12L604.029 52.16ZM644.216 57.2C642.03 57.7867 639.923 58.5333 637.896 59.44C635.87 60.2933 633.896 61.2 631.976 62.16C630.056 63.12 628.136 64.08 626.216 65.04C624.296 66 622.35 66.8533 620.376 67.6C617.336 68.8267 614.536 68.4 611.976 66.32C611.39 65.7867 610.75 65.28 610.056 64.8C609.416 64.32 608.776 63.7867 608.136 63.2C606.163 61.6 605.47 59.4133 606.056 56.64C606.75 53.76 607.896 51.0667 609.496 48.56C611.096 46 612.99 43.7333 615.176 41.76C617.416 39.7333 619.843 38.0533 622.456 36.72C625.07 35.3333 627.71 34.3733 630.376 33.84C632.83 33.4133 634.936 33.7333 636.696 34.8C638.456 35.8667 640.03 37.3333 641.416 39.2C641.523 39.36 641.576 39.5733 641.576 39.84C641.576 40.0533 641.63 40.3733 641.736 40.8C641.15 40.5867 640.616 40.3733 640.136 40.16C639.656 39.8933 639.176 39.68 638.696 39.52C638.216 39.3067 637.736 39.1733 637.256 39.12C636.776 39.0667 636.216 39.1467 635.576 39.36C630.51 41.12 626.323 43.84 623.016 47.52C619.763 51.1467 617.123 55.5733 615.096 60.8C617.55 60.1067 619.87 59.3067 622.056 58.4C624.296 57.44 626.536 56.5067 628.776 55.6C630.75 54.8 632.723 54.08 634.696 53.44C636.723 52.8 638.803 52.3467 640.936 52.08C643.176 51.8133 645.176 52.1067 646.936 52.96C648.696 53.76 650.27 54.96 651.656 56.56C652.616 57.7867 653.176 59.0933 653.336 60.48C653.496 61.8667 653.39 63.2533 653.016 64.64C652.163 67.84 650.91 71.1733 649.256 74.64C647.603 78.1067 645.656 81.52 643.416 84.88C641.23 88.2933 638.776 91.5733 636.056 94.72C633.336 97.92 630.483 100.827 627.496 103.44C624.51 106.053 621.416 108.32 618.216 110.24C615.016 112.213 611.843 113.653 608.696 114.56C606.883 115.093 605.203 115.147 603.656 114.72C602.11 114.347 600.643 113.653 599.256 112.64C598.35 112 597.736 111.253 597.416 110.4C597.043 109.547 596.883 108.587 596.936 107.52C596.99 105.707 597.443 103.84 598.296 101.92C599.15 100.053 600.19 98.24 601.416 96.48C602.643 94.7733 603.95 93.1467 605.336 91.6C606.723 90.1067 608.003 88.8267 609.176 87.76C615.843 81.4667 623.47 76.5067 632.056 72.88C632.856 72.5067 633.656 72.2133 634.456 72C635.31 71.7333 636.163 71.4667 637.016 71.2C637.336 71.0933 637.896 70.9333 638.696 70.72C639.496 70.5067 640.35 70.32 641.256 70.16C642.216 69.9467 643.15 69.7867 644.056 69.68C644.963 69.5733 645.683 69.6 646.216 69.76C646.536 69.0133 646.91 68.1333 647.336 67.12C647.763 66.1067 648.136 65.0667 648.456 64C648.83 62.9333 649.096 61.8933 649.256 60.88C649.416 59.8667 649.363 59.0133 649.096 58.32C648.883 57.6267 648.376 57.1733 647.576 56.96C646.83 56.6933 645.71 56.7733 644.216 57.2ZM639.896 73.76C633.603 76.16 627.763 79.1733 622.376 82.8C617.043 86.48 612.216 90.88 607.896 96C606.99 97.0667 606.083 98.2667 605.176 99.6C604.27 100.987 603.523 102.347 602.936 103.68C602.296 105.067 601.87 106.347 601.656 107.52C601.443 108.693 601.576 109.627 602.056 110.32C602.536 111.013 603.39 111.36 604.616 111.36C605.843 111.413 607.603 110.933 609.896 109.92C613.31 108.427 616.723 106.267 620.136 103.44C623.603 100.613 626.856 97.4667 629.896 94C632.936 90.5867 635.71 87.04 638.216 83.36C640.776 79.7333 642.91 76.3733 644.616 73.28L645.256 72L639.896 73.76Z" fill="#EBF3B5"/>
</svg>
