<svg width="245" height="105" viewBox="0 0 245 105" fill="none" xmlns="http://www.w3.org/2000/svg">
<path d="M20 27.7L27.7 20L31 23.3L23.3 31L20 27.7Z" stroke="#0F4FAD" stroke-width="2" stroke-linecap="round" stroke-linejoin="round"/>
<path d="M26 20.6875L24.4062 12.7188L9 9L12.7188 24.4062L20.6875 26L26 20.6875Z" stroke="#0F4FAD" stroke-width="2" stroke-linecap="round" stroke-linejoin="round"/>
<path d="M9 9L17 17" stroke="#0F4FAD" stroke-width="2" stroke-linecap="round" stroke-linejoin="round"/>
<path d="M18.5 21C19.8807 21 21 19.8807 21 18.5C21 17.1193 19.8807 16 18.5 16C17.1193 16 16 17.1193 16 18.5C16 19.8807 17.1193 21 18.5 21Z" stroke="#0F4FAD" stroke-width="2" stroke-linecap="round" stroke-linejoin="round"/>
<path d="M53.232 9.008C56.352 9.008 58.688 9.72 60.24 11.144C61.792 12.552 62.568 14.608 62.568 17.312C62.568 19.056 62.184 20.584 61.416 21.896C60.664 23.192 59.568 24.2 58.128 24.92C56.704 25.64 55 26 53.016 26L51.528 25.976C50.6 25.944 49.928 25.928 49.512 25.928C47.864 25.928 46.632 25.952 45.816 26V25.52C46.344 25.488 46.728 25.424 46.968 25.328C47.224 25.232 47.392 25.048 47.472 24.776C47.568 24.504 47.616 24.064 47.616 23.456V11.552C47.616 10.944 47.568 10.504 47.472 10.232C47.392 9.96 47.224 9.776 46.968 9.68C46.728 9.584 46.344 9.52 45.816 9.488V9.008C46.488 9.056 47.456 9.08 48.72 9.08H49.464L50.424 9.056C51.736 9.024 52.672 9.008 53.232 9.008ZM53.208 9.44C52.712 9.44 52.336 9.496 52.08 9.608C51.84 9.72 51.672 9.92 51.576 10.208C51.48 10.496 51.432 10.928 51.432 11.504V23.504C51.432 24.08 51.48 24.512 51.576 24.8C51.672 25.088 51.84 25.288 52.08 25.4C52.336 25.512 52.72 25.568 53.232 25.568C55.168 25.568 56.544 24.896 57.36 23.552C58.176 22.192 58.584 20.144 58.584 17.408C58.584 14.672 58.16 12.664 57.312 11.384C56.48 10.088 55.112 9.44 53.208 9.44ZM71.2648 24.368C72.5768 24.368 73.6328 23.728 74.4328 22.448L74.8648 22.592C74.5448 23.632 73.9688 24.52 73.1368 25.256C72.3208 25.976 71.2968 26.336 70.0648 26.336C68.3688 26.336 67.0168 25.8 66.0088 24.728C65.0168 23.64 64.5208 22.04 64.5208 19.928C64.5208 17.768 65.0568 16.12 66.1288 14.984C67.2008 13.832 68.6248 13.256 70.4008 13.256C73.4088 13.256 74.9128 15.032 74.9128 18.584H68.1688C68.1528 18.824 68.1448 19.2 68.1448 19.712C68.1448 20.768 68.2888 21.648 68.5768 22.352C68.8808 23.056 69.2648 23.568 69.7288 23.888C70.2088 24.208 70.7208 24.368 71.2648 24.368ZM70.2568 13.76C69.6808 13.76 69.2008 14.12 68.8168 14.84C68.4488 15.544 68.2168 16.64 68.1208 18.128H71.8888C71.9208 16.864 71.7928 15.824 71.5048 15.008C71.2328 14.176 70.8168 13.76 70.2568 13.76ZM81.0546 13.256C81.6626 13.256 82.2226 13.336 82.7346 13.496C83.2466 13.64 83.6386 13.808 83.9106 14C84.0706 14.112 84.2146 14.168 84.3426 14.168C84.4866 14.168 84.6066 14.096 84.7026 13.952C84.8146 13.792 84.8866 13.568 84.9186 13.28H85.4226C85.3586 14.096 85.3266 15.504 85.3266 17.504H84.8226C84.6786 16.448 84.3586 15.568 83.8626 14.864C83.3826 14.144 82.6786 13.784 81.7506 13.784C81.2706 13.784 80.8706 13.92 80.5506 14.192C80.2466 14.464 80.0946 14.84 80.0946 15.32C80.0946 15.864 80.2786 16.336 80.6466 16.736C81.0146 17.12 81.5906 17.592 82.3746 18.152L83.0706 18.656C84.0466 19.392 84.7666 20.048 85.2306 20.624C85.6946 21.2 85.9266 21.92 85.9266 22.784C85.9266 23.488 85.7186 24.112 85.3026 24.656C84.9026 25.2 84.3586 25.616 83.6706 25.904C82.9826 26.192 82.2226 26.336 81.3906 26.336C80.5106 26.336 79.7586 26.168 79.1346 25.832C78.6226 25.576 78.2546 25.408 78.0306 25.328C77.8706 25.28 77.7266 25.336 77.5986 25.496C77.4866 25.64 77.3986 25.864 77.3346 26.168H76.8306C76.8946 25.256 76.9266 23.656 76.9266 21.368H77.4306C77.7506 24.312 78.8306 25.784 80.6706 25.784C81.1346 25.784 81.5266 25.648 81.8466 25.376C82.1826 25.088 82.3506 24.656 82.3506 24.08C82.3506 23.632 82.2466 23.232 82.0386 22.88C81.8466 22.528 81.5986 22.216 81.2946 21.944C80.9906 21.672 80.5346 21.296 79.9266 20.816C79.2066 20.24 78.6546 19.776 78.2706 19.424C77.9026 19.072 77.5826 18.656 77.3106 18.176C77.0546 17.696 76.9266 17.16 76.9266 16.568C76.9266 15.544 77.3266 14.736 78.1266 14.144C78.9266 13.552 79.9026 13.256 81.0546 13.256ZM90.5085 7.4C91.1805 7.4 91.7085 7.568 92.0925 7.904C92.4925 8.224 92.6925 8.672 92.6925 9.248C92.6925 9.824 92.4925 10.28 92.0925 10.616C91.7085 10.936 91.1805 11.096 90.5085 11.096C89.8365 11.096 89.3005 10.936 88.9005 10.616C88.5165 10.28 88.3245 9.824 88.3245 9.248C88.3245 8.672 88.5165 8.224 88.9005 7.904C89.3005 7.568 89.8365 7.4 90.5085 7.4ZM92.3805 23.768C92.3805 24.424 92.4925 24.88 92.7165 25.136C92.9565 25.376 93.3565 25.496 93.9165 25.496V26C92.3165 25.936 91.2525 25.904 90.7245 25.904C90.2285 25.904 89.1165 25.936 87.3885 26V25.496C87.9645 25.496 88.3645 25.376 88.5885 25.136C88.8125 24.88 88.9245 24.424 88.9245 23.768V16.208C88.9245 15.472 88.8125 14.936 88.5885 14.6C88.3645 14.264 87.9645 14.096 87.3885 14.096V13.592C87.9005 13.64 88.3965 13.664 88.8765 13.664C90.3005 13.664 91.4685 13.552 92.3805 13.328V23.768ZM106.335 15.896C106.015 15.896 105.743 15.792 105.519 15.584C105.295 15.36 105.183 15.048 105.183 14.648C105.183 14.264 105.279 13.872 105.471 13.472C105.087 13.632 104.767 13.816 104.511 14.024C104.271 14.216 104.063 14.464 103.887 14.768C104.383 15.36 104.631 16.128 104.631 17.072C104.631 18.336 104.191 19.288 103.311 19.928C102.447 20.568 101.295 20.888 99.8548 20.888H99.4228C98.7668 21.272 98.4388 21.696 98.4388 22.16C98.4388 22.672 98.7588 22.928 99.3988 22.928H102.015C103.423 22.928 104.543 23.192 105.375 23.72C106.223 24.232 106.647 25.024 106.647 26.096C106.647 26.912 106.383 27.648 105.855 28.304C105.343 28.976 104.559 29.512 103.503 29.912C102.447 30.312 101.151 30.512 99.6148 30.512C98.0628 30.512 96.8148 30.312 95.8708 29.912C94.9428 29.528 94.4788 28.968 94.4788 28.232C94.4788 27.736 94.7028 27.288 95.1508 26.888C95.5988 26.504 96.2628 26.2 97.1428 25.976L97.3588 26.36C96.7828 26.84 96.4948 27.392 96.4948 28.016C96.4948 28.688 96.7988 29.2 97.4068 29.552C98.0148 29.92 98.8548 30.104 99.9268 30.104C101.047 30.104 101.951 29.88 102.639 29.432C103.343 28.984 103.695 28.352 103.695 27.536C103.695 27.008 103.495 26.592 103.095 26.288C102.711 25.984 102.031 25.832 101.055 25.832H99.5668C98.5428 25.832 97.7428 25.664 97.1668 25.328C96.5908 24.976 96.3028 24.448 96.3028 23.744C96.3028 23.152 96.5108 22.624 96.9268 22.16C97.3428 21.696 97.9748 21.248 98.8228 20.816C97.6708 20.672 96.7588 20.288 96.0868 19.664C95.4148 19.04 95.0788 18.176 95.0788 17.072C95.0788 15.808 95.5108 14.856 96.3748 14.216C97.2548 13.576 98.4148 13.256 99.8548 13.256C101.455 13.256 102.679 13.632 103.527 14.384C103.831 13.952 104.207 13.608 104.655 13.352C105.103 13.096 105.559 12.968 106.023 12.968C106.503 12.968 106.879 13.112 107.151 13.4C107.439 13.672 107.583 14.032 107.583 14.48C107.583 14.928 107.455 15.28 107.199 15.536C106.959 15.776 106.671 15.896 106.335 15.896ZM99.8548 20.456C100.303 20.456 100.639 20.2 100.863 19.688C101.103 19.176 101.223 18.304 101.223 17.072C101.223 15.84 101.103 14.968 100.863 14.456C100.639 13.944 100.303 13.688 99.8548 13.688C99.4068 13.688 99.0628 13.944 98.8228 14.456C98.5988 14.968 98.4868 15.84 98.4868 17.072C98.4868 18.304 98.5988 19.176 98.8228 19.688C99.0628 20.2 99.4068 20.456 99.8548 20.456ZM117.152 13.256C118.368 13.256 119.248 13.568 119.792 14.192C120.064 14.496 120.256 14.888 120.368 15.368C120.48 15.848 120.536 16.496 120.536 17.312V23.768C120.536 24.424 120.648 24.88 120.872 25.136C121.112 25.376 121.512 25.496 122.072 25.496V26C120.472 25.936 119.416 25.904 118.904 25.904C118.424 25.904 117.384 25.936 115.784 26V25.496C116.264 25.496 116.6 25.376 116.792 25.136C116.984 24.88 117.08 24.424 117.08 23.768V16.304C117.08 15.648 116.968 15.152 116.744 14.816C116.536 14.48 116.152 14.312 115.592 14.312C114.936 14.312 114.376 14.584 113.912 15.128C113.448 15.656 113.216 16.312 113.216 17.096V23.768C113.216 24.424 113.312 24.88 113.504 25.136C113.696 25.376 114.032 25.496 114.512 25.496V26C113.04 25.936 112.048 25.904 111.536 25.904C111.056 25.904 109.952 25.936 108.224 26V25.496C108.8 25.496 109.2 25.376 109.424 25.136C109.648 24.88 109.76 24.424 109.76 23.768V16.208C109.76 15.472 109.648 14.936 109.424 14.6C109.2 14.264 108.8 14.096 108.224 14.096V13.592C108.736 13.64 109.232 13.664 109.712 13.664C111.136 13.664 112.304 13.552 113.216 13.328V15.488C113.936 14 115.248 13.256 117.152 13.256Z" fill="#0F4FAD"/>
<path d="M57.9814 61H56.5049L53.9121 52.3955C53.7891 52.0146 53.6514 51.5342 53.499 50.9541C53.3467 50.374 53.2676 50.0254 53.2617 49.9082C53.1328 50.6816 52.9277 51.5283 52.6465 52.4482L50.1328 61H48.6562L45.2373 48.1504H46.8193L48.8496 56.0869C49.1309 57.2002 49.3359 58.208 49.4648 59.1104C49.623 58.0381 49.8574 56.9893 50.168 55.9639L52.4707 48.1504H54.0527L56.4697 56.0342C56.751 56.9424 56.9883 57.9678 57.1816 59.1104C57.293 58.2783 57.5039 57.2646 57.8145 56.0693L59.8359 48.1504H61.418L57.9814 61ZM64.6699 61H63.2109V51.3672H64.6699V61ZM63.0879 48.7568C63.0879 48.4229 63.1699 48.1797 63.334 48.0273C63.498 47.8691 63.7031 47.79 63.9492 47.79C64.1836 47.79 64.3857 47.8691 64.5557 48.0273C64.7256 48.1855 64.8105 48.4287 64.8105 48.7568C64.8105 49.085 64.7256 49.3311 64.5557 49.4951C64.3857 49.6533 64.1836 49.7324 63.9492 49.7324C63.7031 49.7324 63.498 49.6533 63.334 49.4951C63.1699 49.3311 63.0879 49.085 63.0879 48.7568ZM72.1582 51.1914C72.5859 51.1914 72.9697 51.2266 73.3096 51.2969L73.1074 52.6504C72.709 52.5625 72.3574 52.5186 72.0527 52.5186C71.2734 52.5186 70.6055 52.835 70.0488 53.4678C69.498 54.1006 69.2227 54.8887 69.2227 55.832V61H67.7637V51.3672H68.9678L69.1348 53.1514H69.2051C69.5625 52.5244 69.9932 52.041 70.4971 51.7012C71.001 51.3613 71.5547 51.1914 72.1582 51.1914ZM79.1807 61.1758C77.7568 61.1758 76.6318 60.7422 75.8057 59.875C74.9854 59.0078 74.5752 57.8037 74.5752 56.2627C74.5752 54.71 74.9561 53.4766 75.7178 52.5625C76.4854 51.6484 77.5137 51.1914 78.8027 51.1914C80.0098 51.1914 80.9648 51.5898 81.668 52.3867C82.3711 53.1777 82.7227 54.2236 82.7227 55.5244V56.4473H76.0869C76.1162 57.5781 76.4004 58.4365 76.9395 59.0225C77.4844 59.6084 78.249 59.9014 79.2334 59.9014C80.2705 59.9014 81.2959 59.6846 82.3096 59.251V60.5518C81.7939 60.7744 81.3047 60.9326 80.8418 61.0264C80.3848 61.126 79.8311 61.1758 79.1807 61.1758ZM78.7852 52.4131C78.0117 52.4131 77.3936 52.665 76.9307 53.1689C76.4736 53.6729 76.2041 54.3701 76.1221 55.2607H81.1582C81.1582 54.3408 80.9531 53.6377 80.543 53.1514C80.1328 52.6592 79.5469 52.4131 78.7852 52.4131ZM89.5605 52.501H87.1084V61H85.6494V52.501H83.9268V51.8418L85.6494 51.3145V50.7783C85.6494 48.4111 86.6836 47.2275 88.752 47.2275C89.2617 47.2275 89.8594 47.3301 90.5449 47.5352L90.167 48.7041C89.6045 48.5225 89.124 48.4316 88.7256 48.4316C88.1748 48.4316 87.7676 48.6162 87.5039 48.9854C87.2402 49.3486 87.1084 49.9346 87.1084 50.7432V51.3672H89.5605V52.501ZM95.7129 51.1914C96.1406 51.1914 96.5244 51.2266 96.8643 51.2969L96.6621 52.6504C96.2637 52.5625 95.9121 52.5186 95.6074 52.5186C94.8281 52.5186 94.1602 52.835 93.6035 53.4678C93.0527 54.1006 92.7773 54.8887 92.7773 55.832V61H91.3184V51.3672H92.5225L92.6895 53.1514H92.7598C93.1172 52.5244 93.5479 52.041 94.0518 51.7012C94.5557 51.3613 95.1094 51.1914 95.7129 51.1914ZM104.59 61L104.3 59.6289H104.229C103.749 60.2324 103.269 60.6426 102.788 60.8594C102.313 61.0703 101.719 61.1758 101.004 61.1758C100.049 61.1758 99.2988 60.9297 98.7539 60.4375C98.2148 59.9453 97.9453 59.2451 97.9453 58.3369C97.9453 56.3916 99.501 55.3721 102.612 55.2783L104.247 55.2256V54.6279C104.247 53.8721 104.083 53.3154 103.755 52.958C103.433 52.5947 102.914 52.4131 102.199 52.4131C101.396 52.4131 100.488 52.6592 99.4746 53.1514L99.0264 52.0352C99.501 51.7773 100.02 51.5752 100.582 51.4287C101.15 51.2822 101.719 51.209 102.287 51.209C103.436 51.209 104.285 51.4639 104.836 51.9736C105.393 52.4834 105.671 53.3008 105.671 54.4258V61H104.59ZM101.294 59.9717C102.202 59.9717 102.914 59.7227 103.43 59.2246C103.951 58.7266 104.212 58.0293 104.212 57.1328V56.2627L102.753 56.3242C101.593 56.3652 100.755 56.5469 100.239 56.8691C99.7295 57.1855 99.4746 57.6807 99.4746 58.3545C99.4746 58.8818 99.6328 59.2832 99.9492 59.5586C100.271 59.834 100.72 59.9717 101.294 59.9717ZM120.964 61V54.7334C120.964 53.9658 120.8 53.3916 120.472 53.0107C120.144 52.624 119.634 52.4307 118.942 52.4307C118.034 52.4307 117.363 52.6914 116.93 53.2129C116.496 53.7344 116.279 54.5371 116.279 55.6211V61H114.82V54.7334C114.82 53.9658 114.656 53.3916 114.328 53.0107C114 52.624 113.487 52.4307 112.79 52.4307C111.876 52.4307 111.205 52.7061 110.777 53.2568C110.355 53.8018 110.145 54.6982 110.145 55.9463V61H108.686V51.3672H109.872L110.109 52.6855H110.18C110.455 52.2168 110.842 51.8506 111.34 51.5869C111.844 51.3232 112.406 51.1914 113.027 51.1914C114.533 51.1914 115.518 51.7363 115.98 52.8262H116.051C116.338 52.3223 116.754 51.9238 117.299 51.6309C117.844 51.3379 118.465 51.1914 119.162 51.1914C120.252 51.1914 121.066 51.4727 121.605 52.0352C122.15 52.5918 122.423 53.4854 122.423 54.7158V61H120.964ZM129.507 61.1758C128.083 61.1758 126.958 60.7422 126.132 59.875C125.312 59.0078 124.901 57.8037 124.901 56.2627C124.901 54.71 125.282 53.4766 126.044 52.5625C126.812 51.6484 127.84 51.1914 129.129 51.1914C130.336 51.1914 131.291 51.5898 131.994 52.3867C132.697 53.1777 133.049 54.2236 133.049 55.5244V56.4473H126.413C126.442 57.5781 126.727 58.4365 127.266 59.0225C127.811 59.6084 128.575 59.9014 129.56 59.9014C130.597 59.9014 131.622 59.6846 132.636 59.251V60.5518C132.12 60.7744 131.631 60.9326 131.168 61.0264C130.711 61.126 130.157 61.1758 129.507 61.1758ZM129.111 52.4131C128.338 52.4131 127.72 52.665 127.257 53.1689C126.8 53.6729 126.53 54.3701 126.448 55.2607H131.484C131.484 54.3408 131.279 53.6377 130.869 53.1514C130.459 52.6592 129.873 52.4131 129.111 52.4131ZM141.759 58.3721C141.759 59.2686 141.425 59.96 140.757 60.4463C140.089 60.9326 139.151 61.1758 137.944 61.1758C136.667 61.1758 135.671 60.9736 134.956 60.5693V59.2158C135.419 59.4502 135.914 59.6348 136.441 59.7695C136.975 59.9043 137.487 59.9717 137.979 59.9717C138.741 59.9717 139.327 59.8516 139.737 59.6113C140.147 59.3652 140.353 58.9932 140.353 58.4951C140.353 58.1201 140.188 57.8008 139.86 57.5371C139.538 57.2676 138.905 56.9512 137.962 56.5879C137.065 56.2539 136.427 55.9639 136.046 55.7178C135.671 55.4658 135.39 55.1816 135.202 54.8652C135.021 54.5488 134.93 54.1709 134.93 53.7314C134.93 52.9463 135.249 52.3281 135.888 51.877C136.526 51.4199 137.402 51.1914 138.516 51.1914C139.553 51.1914 140.566 51.4023 141.557 51.8242L141.038 53.0107C140.071 52.6123 139.195 52.4131 138.41 52.4131C137.719 52.4131 137.197 52.5215 136.846 52.7383C136.494 52.9551 136.318 53.2539 136.318 53.6348C136.318 53.8926 136.383 54.1123 136.512 54.2939C136.646 54.4756 136.86 54.6484 137.153 54.8125C137.446 54.9766 138.009 55.2139 138.841 55.5244C139.983 55.9404 140.754 56.3594 141.152 56.7812C141.557 57.2031 141.759 57.7334 141.759 58.3721ZM54.9141 85.8945C54.9141 87.1953 54.4688 88.1973 53.5781 88.9004C52.6934 89.5977 51.4248 89.9463 49.7725 89.9463H48.2607V95H46.7666V82.1504H50.0977C53.3086 82.1504 54.9141 83.3984 54.9141 85.8945ZM48.2607 88.6631H49.6055C50.9297 88.6631 51.8877 88.4492 52.4795 88.0215C53.0713 87.5938 53.3672 86.9082 53.3672 85.9648C53.3672 85.1152 53.0889 84.4824 52.5322 84.0664C51.9756 83.6504 51.1084 83.4424 49.9307 83.4424H48.2607V88.6631ZM61.7871 85.1914C62.2148 85.1914 62.5986 85.2266 62.9385 85.2969L62.7363 86.6504C62.3379 86.5625 61.9863 86.5186 61.6816 86.5186C60.9023 86.5186 60.2344 86.835 59.6777 87.4678C59.127 88.1006 58.8516 88.8887 58.8516 89.832V95H57.3926V85.3672H58.5967L58.7637 87.1514H58.834C59.1914 86.5244 59.6221 86.041 60.126 85.7012C60.6299 85.3613 61.1836 85.1914 61.7871 85.1914ZM73.0547 90.1748C73.0547 91.7451 72.6592 92.9727 71.8682 93.8574C71.0771 94.7363 69.9844 95.1758 68.5898 95.1758C67.7285 95.1758 66.9639 94.9736 66.2959 94.5693C65.6279 94.165 65.1123 93.585 64.749 92.8291C64.3857 92.0732 64.2041 91.1885 64.2041 90.1748C64.2041 88.6045 64.5967 87.3828 65.3818 86.5098C66.167 85.6309 67.2568 85.1914 68.6514 85.1914C69.999 85.1914 71.0684 85.6396 71.8594 86.5361C72.6562 87.4326 73.0547 88.6455 73.0547 90.1748ZM65.7158 90.1748C65.7158 91.4053 65.9619 92.3428 66.4541 92.9873C66.9463 93.6318 67.6699 93.9541 68.625 93.9541C69.5801 93.9541 70.3037 93.6348 70.7959 92.9961C71.2939 92.3516 71.543 91.4111 71.543 90.1748C71.543 88.9502 71.2939 88.0215 70.7959 87.3887C70.3037 86.75 69.5742 86.4307 68.6074 86.4307C67.6523 86.4307 66.9316 86.7441 66.4453 87.3711C65.959 87.998 65.7158 88.9326 65.7158 90.1748ZM78.7324 93.9717C78.9902 93.9717 79.2393 93.9541 79.4795 93.9189C79.7197 93.8779 79.9102 93.8369 80.0508 93.7959V94.9121C79.8926 94.9883 79.6582 95.0498 79.3477 95.0967C79.043 95.1494 78.7676 95.1758 78.5215 95.1758C76.6582 95.1758 75.7266 94.1943 75.7266 92.2314V86.501H74.3467V85.7979L75.7266 85.1914L76.3418 83.1348H77.1855V85.3672H79.9805V86.501H77.1855V92.1699C77.1855 92.75 77.3232 93.1953 77.5986 93.5059C77.874 93.8164 78.252 93.9717 78.7324 93.9717ZM90.2988 90.1748C90.2988 91.7451 89.9033 92.9727 89.1123 93.8574C88.3213 94.7363 87.2285 95.1758 85.834 95.1758C84.9727 95.1758 84.208 94.9736 83.54 94.5693C82.8721 94.165 82.3564 93.585 81.9932 92.8291C81.6299 92.0732 81.4482 91.1885 81.4482 90.1748C81.4482 88.6045 81.8408 87.3828 82.626 86.5098C83.4111 85.6309 84.501 85.1914 85.8955 85.1914C87.2432 85.1914 88.3125 85.6396 89.1035 86.5361C89.9004 87.4326 90.2988 88.6455 90.2988 90.1748ZM82.96 90.1748C82.96 91.4053 83.2061 92.3428 83.6982 92.9873C84.1904 93.6318 84.9141 93.9541 85.8691 93.9541C86.8242 93.9541 87.5479 93.6348 88.04 92.9961C88.5381 92.3516 88.7871 91.4111 88.7871 90.1748C88.7871 88.9502 88.5381 88.0215 88.04 87.3887C87.5479 86.75 86.8184 86.4307 85.8516 86.4307C84.8965 86.4307 84.1758 86.7441 83.6895 87.3711C83.2031 87.998 82.96 88.9326 82.96 90.1748ZM95.9766 93.9717C96.2344 93.9717 96.4834 93.9541 96.7236 93.9189C96.9639 93.8779 97.1543 93.8369 97.2949 93.7959V94.9121C97.1367 94.9883 96.9023 95.0498 96.5918 95.0967C96.2871 95.1494 96.0117 95.1758 95.7656 95.1758C93.9023 95.1758 92.9707 94.1943 92.9707 92.2314V86.501H91.5908V85.7979L92.9707 85.1914L93.5859 83.1348H94.4297V85.3672H97.2246V86.501H94.4297V92.1699C94.4297 92.75 94.5674 93.1953 94.8428 93.5059C95.1182 93.8164 95.4961 93.9717 95.9766 93.9717ZM97.6992 85.3672H99.2637L101.373 90.8604C101.836 92.1143 102.123 93.0195 102.234 93.5762H102.305C102.381 93.2773 102.539 92.7676 102.779 92.0469C103.025 91.3203 103.822 89.0938 105.17 85.3672H106.734L102.595 96.3359C102.185 97.4199 101.704 98.1875 101.153 98.6387C100.608 99.0957 99.9375 99.3242 99.1406 99.3242C98.6953 99.3242 98.2559 99.2744 97.8223 99.1748V98.0059C98.1445 98.0762 98.5049 98.1113 98.9033 98.1113C99.9053 98.1113 100.62 97.5488 101.048 96.4238L101.584 95.0527L97.6992 85.3672ZM112.781 95.1758C112.154 95.1758 111.58 95.0615 111.059 94.833C110.543 94.5986 110.109 94.2412 109.758 93.7607H109.652C109.723 94.3232 109.758 94.8564 109.758 95.3604V99.3242H108.299V85.3672H109.485L109.688 86.6855H109.758C110.133 86.1582 110.569 85.7773 111.067 85.543C111.565 85.3086 112.137 85.1914 112.781 85.1914C114.059 85.1914 115.043 85.6279 115.734 86.501C116.432 87.374 116.78 88.5986 116.78 90.1748C116.78 91.7568 116.426 92.9873 115.717 93.8662C115.014 94.7393 114.035 95.1758 112.781 95.1758ZM112.57 86.4307C111.586 86.4307 110.874 86.7031 110.435 87.248C109.995 87.793 109.77 88.6602 109.758 89.8496V90.1748C109.758 91.5283 109.983 92.498 110.435 93.084C110.886 93.6641 111.609 93.9541 112.605 93.9541C113.438 93.9541 114.088 93.6172 114.557 92.9434C115.031 92.2695 115.269 91.3408 115.269 90.1572C115.269 88.9561 115.031 88.0361 114.557 87.3975C114.088 86.7529 113.426 86.4307 112.57 86.4307ZM120.797 95H119.338V85.3672H120.797V95ZM119.215 82.7568C119.215 82.4229 119.297 82.1797 119.461 82.0273C119.625 81.8691 119.83 81.79 120.076 81.79C120.311 81.79 120.513 81.8691 120.683 82.0273C120.853 82.1855 120.938 82.4287 120.938 82.7568C120.938 83.085 120.853 83.3311 120.683 83.4951C120.513 83.6533 120.311 83.7324 120.076 83.7324C119.83 83.7324 119.625 83.6533 119.461 83.4951C119.297 83.3311 119.215 83.085 119.215 82.7568ZM130.482 95V88.7686C130.482 87.9834 130.304 87.3975 129.946 87.0107C129.589 86.624 129.029 86.4307 128.268 86.4307C127.26 86.4307 126.521 86.7031 126.053 87.248C125.584 87.793 125.35 88.6924 125.35 89.9463V95H123.891V85.3672H125.077L125.314 86.6855H125.385C125.684 86.2109 126.103 85.8447 126.642 85.5869C127.181 85.3232 127.781 85.1914 128.443 85.1914C129.604 85.1914 130.477 85.4727 131.062 86.0352C131.648 86.5918 131.941 87.4854 131.941 88.7158V95H130.482ZM142.831 85.3672V86.29L141.047 86.501C141.211 86.7061 141.357 86.9756 141.486 87.3096C141.615 87.6377 141.68 88.0098 141.68 88.4258C141.68 89.3691 141.357 90.1221 140.713 90.6846C140.068 91.2471 139.184 91.5283 138.059 91.5283C137.771 91.5283 137.502 91.5049 137.25 91.458C136.629 91.7861 136.318 92.1992 136.318 92.6973C136.318 92.9609 136.427 93.1572 136.644 93.2861C136.86 93.4092 137.232 93.4707 137.76 93.4707H139.465C140.508 93.4707 141.308 93.6904 141.864 94.1299C142.427 94.5693 142.708 95.208 142.708 96.0459C142.708 97.1123 142.28 97.9238 141.425 98.4805C140.569 99.043 139.321 99.3242 137.681 99.3242C136.421 99.3242 135.448 99.0898 134.763 98.6211C134.083 98.1523 133.743 97.4902 133.743 96.6348C133.743 96.0488 133.931 95.542 134.306 95.1143C134.681 94.6865 135.208 94.3965 135.888 94.2441C135.642 94.1328 135.434 93.96 135.264 93.7256C135.1 93.4912 135.018 93.2188 135.018 92.9082C135.018 92.5566 135.111 92.249 135.299 91.9854C135.486 91.7217 135.782 91.4668 136.187 91.2207C135.688 91.0156 135.281 90.667 134.965 90.1748C134.654 89.6826 134.499 89.1201 134.499 88.4873C134.499 87.4326 134.815 86.6211 135.448 86.0527C136.081 85.4785 136.978 85.1914 138.138 85.1914C138.642 85.1914 139.096 85.25 139.5 85.3672H142.831ZM135.149 96.6172C135.149 97.1387 135.369 97.5342 135.809 97.8037C136.248 98.0732 136.878 98.208 137.698 98.208C138.923 98.208 139.828 98.0234 140.414 97.6543C141.006 97.291 141.302 96.7959 141.302 96.1689C141.302 95.6475 141.141 95.2842 140.818 95.0791C140.496 94.8799 139.89 94.7803 138.999 94.7803H137.25C136.588 94.7803 136.072 94.9385 135.703 95.2549C135.334 95.5713 135.149 96.0254 135.149 96.6172ZM135.94 88.4521C135.94 89.126 136.131 89.6357 136.512 89.9814C136.893 90.3271 137.423 90.5 138.103 90.5C139.526 90.5 140.238 89.8086 140.238 88.4258C140.238 86.9785 139.518 86.2549 138.076 86.2549C137.391 86.2549 136.863 86.4395 136.494 86.8086C136.125 87.1777 135.94 87.7256 135.94 88.4521Z" fill="#4F4F4F"/>
</svg>
