<svg width="652" height="459" viewBox="0 0 652 459" fill="none" xmlns="http://www.w3.org/2000/svg">
<rect width="652" height="459" fill="white"/>
<path d="M205.534 49.353C205.462 49.479 205.384 49.572 205.3 49.632C205.222 49.686 205.123 49.713 205.003 49.713C204.877 49.713 204.739 49.668 204.589 49.578C204.445 49.482 204.271 49.377 204.067 49.263C203.863 49.149 203.623 49.047 203.347 48.957C203.077 48.861 202.756 48.813 202.384 48.813C202.048 48.813 201.754 48.855 201.502 48.939C201.25 49.017 201.037 49.128 200.863 49.272C200.695 49.416 200.569 49.59 200.485 49.794C200.401 49.992 200.359 50.211 200.359 50.451C200.359 50.757 200.443 51.012 200.611 51.216C200.785 51.42 201.013 51.594 201.295 51.738C201.577 51.882 201.898 52.011 202.258 52.125C202.618 52.239 202.987 52.362 203.365 52.494C203.743 52.62 204.112 52.77 204.472 52.944C204.832 53.112 205.153 53.328 205.435 53.592C205.717 53.85 205.942 54.168 206.11 54.546C206.284 54.924 206.371 55.383 206.371 55.923C206.371 56.511 206.269 57.063 206.065 57.579C205.867 58.089 205.573 58.536 205.183 58.92C204.799 59.298 204.328 59.598 203.77 59.82C203.212 60.036 202.573 60.144 201.853 60.144C201.439 60.144 201.031 60.102 200.629 60.018C200.227 59.94 199.84 59.826 199.468 59.676C199.102 59.526 198.757 59.346 198.433 59.136C198.109 58.926 197.821 58.692 197.569 58.434L198.28 57.273C198.34 57.189 198.418 57.12 198.514 57.066C198.61 57.006 198.712 56.976 198.82 56.976C198.97 56.976 199.132 57.039 199.306 57.165C199.48 57.285 199.687 57.42 199.927 57.57C200.167 57.72 200.446 57.858 200.764 57.984C201.088 58.104 201.475 58.164 201.925 58.164C202.615 58.164 203.149 58.002 203.527 57.678C203.905 57.348 204.094 56.877 204.094 56.265C204.094 55.923 204.007 55.644 203.833 55.428C203.665 55.212 203.44 55.032 203.158 54.888C202.876 54.738 202.555 54.612 202.195 54.51C201.835 54.408 201.469 54.297 201.097 54.177C200.725 54.057 200.359 53.913 199.999 53.745C199.639 53.577 199.318 53.358 199.036 53.088C198.754 52.818 198.526 52.482 198.352 52.08C198.184 51.672 198.1 51.171 198.1 50.577C198.1 50.103 198.193 49.641 198.379 49.191C198.571 48.741 198.847 48.342 199.207 47.994C199.567 47.646 200.011 47.367 200.539 47.157C201.067 46.947 201.673 46.842 202.357 46.842C203.125 46.842 203.833 46.962 204.481 47.202C205.129 47.442 205.681 47.778 206.137 48.21L205.534 49.353ZM212.183 50.622C212.867 50.622 213.488 50.733 214.046 50.955C214.61 51.177 215.09 51.492 215.486 51.9C215.888 52.308 216.197 52.806 216.413 53.394C216.629 53.982 216.737 54.639 216.737 55.365C216.737 56.097 216.629 56.757 216.413 57.345C216.197 57.933 215.888 58.434 215.486 58.848C215.09 59.262 214.61 59.58 214.046 59.802C213.488 60.024 212.867 60.135 212.183 60.135C211.493 60.135 210.866 60.024 210.302 59.802C209.738 59.58 209.255 59.262 208.853 58.848C208.457 58.434 208.148 57.933 207.926 57.345C207.71 56.757 207.602 56.097 207.602 55.365C207.602 54.639 207.71 53.982 207.926 53.394C208.148 52.806 208.457 52.308 208.853 51.9C209.255 51.492 209.738 51.177 210.302 50.955C210.866 50.733 211.493 50.622 212.183 50.622ZM212.183 58.425C212.951 58.425 213.518 58.167 213.884 57.651C214.256 57.135 214.442 56.379 214.442 55.383C214.442 54.387 214.256 53.628 213.884 53.106C213.518 52.584 212.951 52.323 212.183 52.323C211.403 52.323 210.824 52.587 210.446 53.115C210.074 53.637 209.888 54.393 209.888 55.383C209.888 56.373 210.074 57.129 210.446 57.651C210.824 58.167 211.403 58.425 212.183 58.425ZM225.048 52.719C224.982 52.803 224.916 52.869 224.85 52.917C224.79 52.965 224.7 52.989 224.58 52.989C224.466 52.989 224.355 52.956 224.247 52.89C224.139 52.818 224.01 52.74 223.86 52.656C223.71 52.566 223.53 52.488 223.32 52.422C223.116 52.35 222.861 52.314 222.555 52.314C222.165 52.314 221.823 52.386 221.529 52.53C221.235 52.668 220.989 52.869 220.791 53.133C220.599 53.397 220.455 53.718 220.359 54.096C220.263 54.468 220.215 54.891 220.215 55.365C220.215 55.857 220.266 56.295 220.368 56.679C220.476 57.063 220.629 57.387 220.827 57.651C221.025 57.909 221.265 58.107 221.547 58.245C221.829 58.377 222.147 58.443 222.501 58.443C222.855 58.443 223.14 58.401 223.356 58.317C223.578 58.227 223.764 58.131 223.914 58.029C224.064 57.921 224.193 57.825 224.301 57.741C224.415 57.651 224.541 57.606 224.679 57.606C224.859 57.606 224.994 57.675 225.084 57.813L225.723 58.623C225.477 58.911 225.21 59.154 224.922 59.352C224.634 59.544 224.334 59.7 224.022 59.82C223.716 59.934 223.398 60.015 223.068 60.063C222.744 60.111 222.42 60.135 222.096 60.135C221.526 60.135 220.989 60.03 220.485 59.82C219.981 59.604 219.54 59.292 219.162 58.884C218.784 58.476 218.484 57.978 218.262 57.39C218.046 56.796 217.938 56.121 217.938 55.365C217.938 54.687 218.034 54.06 218.226 53.484C218.424 52.902 218.712 52.401 219.09 51.981C219.468 51.555 219.936 51.222 220.494 50.982C221.052 50.742 221.694 50.622 222.42 50.622C223.11 50.622 223.713 50.733 224.229 50.955C224.751 51.177 225.219 51.495 225.633 51.909L225.048 52.719ZM229.421 50.766V60H227.189V50.766H229.421ZM229.727 48.075C229.727 48.267 229.688 48.447 229.61 48.615C229.532 48.783 229.427 48.93 229.295 49.056C229.169 49.182 229.019 49.284 228.845 49.362C228.671 49.434 228.485 49.47 228.287 49.47C228.095 49.47 227.912 49.434 227.738 49.362C227.57 49.284 227.423 49.182 227.297 49.056C227.171 48.93 227.069 48.783 226.991 48.615C226.919 48.447 226.883 48.267 226.883 48.075C226.883 47.877 226.919 47.691 226.991 47.517C227.069 47.343 227.171 47.193 227.297 47.067C227.423 46.941 227.57 46.842 227.738 46.77C227.912 46.692 228.095 46.653 228.287 46.653C228.485 46.653 228.671 46.692 228.845 46.77C229.019 46.842 229.169 46.941 229.295 47.067C229.427 47.193 229.532 47.343 229.61 47.517C229.688 47.691 229.727 47.877 229.727 48.075ZM236.565 56.058C235.923 56.088 235.383 56.145 234.945 56.229C234.507 56.307 234.156 56.409 233.892 56.535C233.628 56.661 233.439 56.808 233.325 56.976C233.211 57.144 233.154 57.327 233.154 57.525C233.154 57.915 233.268 58.194 233.496 58.362C233.73 58.53 234.033 58.614 234.405 58.614C234.861 58.614 235.254 58.533 235.584 58.371C235.92 58.203 236.247 57.951 236.565 57.615V56.058ZM231.471 52.053C232.533 51.081 233.811 50.595 235.305 50.595C235.845 50.595 236.328 50.685 236.754 50.865C237.18 51.039 237.54 51.285 237.834 51.603C238.128 51.915 238.35 52.29 238.5 52.728C238.656 53.166 238.734 53.646 238.734 54.168V60H237.726C237.516 60 237.354 59.97 237.24 59.91C237.126 59.844 237.036 59.715 236.97 59.523L236.772 58.857C236.538 59.067 236.31 59.253 236.088 59.415C235.866 59.571 235.635 59.703 235.395 59.811C235.155 59.919 234.897 60 234.621 60.054C234.351 60.114 234.051 60.144 233.721 60.144C233.331 60.144 232.971 60.093 232.641 59.991C232.311 59.883 232.026 59.724 231.786 59.514C231.546 59.304 231.36 59.043 231.228 58.731C231.096 58.419 231.03 58.056 231.03 57.642C231.03 57.408 231.069 57.177 231.147 56.949C231.225 56.715 231.351 56.493 231.525 56.283C231.705 56.073 231.936 55.875 232.218 55.689C232.5 55.503 232.845 55.341 233.253 55.203C233.667 55.065 234.147 54.954 234.693 54.87C235.239 54.78 235.863 54.726 236.565 54.708V54.168C236.565 53.55 236.433 53.094 236.169 52.8C235.905 52.5 235.524 52.35 235.026 52.35C234.666 52.35 234.366 52.392 234.126 52.476C233.892 52.56 233.685 52.656 233.505 52.764C233.325 52.866 233.16 52.959 233.01 53.043C232.866 53.127 232.704 53.169 232.524 53.169C232.368 53.169 232.236 53.13 232.128 53.052C232.02 52.968 231.933 52.872 231.867 52.764L231.471 52.053ZM243.077 46.626V60H240.854V46.626H243.077ZM264.132 46.986V60H261.999V51.594C261.999 51.258 262.017 50.895 262.053 50.505L258.12 57.894C257.934 58.248 257.649 58.425 257.265 58.425H256.923C256.539 58.425 256.254 58.248 256.068 57.894L252.09 50.478C252.108 50.676 252.123 50.871 252.135 51.063C252.147 51.255 252.153 51.432 252.153 51.594V60H250.02V46.986H251.847C251.955 46.986 252.048 46.989 252.126 46.995C252.204 47.001 252.273 47.016 252.333 47.04C252.399 47.064 252.456 47.103 252.504 47.157C252.558 47.211 252.609 47.283 252.657 47.373L256.554 54.6C256.656 54.792 256.749 54.99 256.833 55.194C256.923 55.398 257.01 55.608 257.094 55.824C257.178 55.602 257.265 55.389 257.355 55.185C257.445 54.975 257.541 54.774 257.643 54.582L261.486 47.373C261.534 47.283 261.585 47.211 261.639 47.157C261.693 47.103 261.75 47.064 261.81 47.04C261.876 47.016 261.948 47.001 262.026 46.995C262.104 46.989 262.197 46.986 262.305 46.986H264.132ZM272.353 54.321C272.353 54.033 272.311 53.763 272.227 53.511C272.149 53.253 272.029 53.028 271.867 52.836C271.705 52.644 271.498 52.494 271.246 52.386C271 52.272 270.712 52.215 270.382 52.215C269.74 52.215 269.233 52.398 268.861 52.764C268.495 53.13 268.261 53.649 268.159 54.321H272.353ZM268.114 55.662C268.15 56.136 268.234 56.547 268.366 56.895C268.498 57.237 268.672 57.522 268.888 57.75C269.104 57.972 269.359 58.14 269.653 58.254C269.953 58.362 270.283 58.416 270.643 58.416C271.003 58.416 271.312 58.374 271.57 58.29C271.834 58.206 272.062 58.113 272.254 58.011C272.452 57.909 272.623 57.816 272.767 57.732C272.917 57.648 273.061 57.606 273.199 57.606C273.385 57.606 273.523 57.675 273.613 57.813L274.252 58.623C274.006 58.911 273.73 59.154 273.424 59.352C273.118 59.544 272.797 59.7 272.461 59.82C272.131 59.934 271.792 60.015 271.444 60.063C271.102 60.111 270.769 60.135 270.445 60.135C269.803 60.135 269.206 60.03 268.654 59.82C268.102 59.604 267.622 59.289 267.214 58.875C266.806 58.455 266.485 57.939 266.251 57.327C266.017 56.709 265.9 55.995 265.9 55.185C265.9 54.555 266.002 53.964 266.206 53.412C266.41 52.854 266.701 52.371 267.079 51.963C267.463 51.549 267.928 51.222 268.474 50.982C269.026 50.742 269.647 50.622 270.337 50.622C270.919 50.622 271.456 50.715 271.948 50.901C272.44 51.087 272.863 51.36 273.217 51.72C273.571 52.074 273.847 52.512 274.045 53.034C274.249 53.55 274.351 54.141 274.351 54.807C274.351 55.143 274.315 55.371 274.243 55.491C274.171 55.605 274.033 55.662 273.829 55.662H268.114ZM281.815 53.124C281.563 52.818 281.287 52.602 280.987 52.476C280.693 52.35 280.375 52.287 280.033 52.287C279.697 52.287 279.394 52.35 279.124 52.476C278.854 52.602 278.623 52.794 278.431 53.052C278.239 53.304 278.092 53.628 277.99 54.024C277.888 54.414 277.837 54.876 277.837 55.41C277.837 55.95 277.879 56.409 277.963 56.787C278.053 57.159 278.179 57.465 278.341 57.705C278.503 57.939 278.701 58.11 278.935 58.218C279.169 58.32 279.43 58.371 279.718 58.371C280.18 58.371 280.573 58.275 280.897 58.083C281.221 57.891 281.527 57.618 281.815 57.264V53.124ZM284.038 46.626V60H282.679C282.385 60 282.199 59.865 282.121 59.595L281.932 58.704C281.56 59.13 281.131 59.475 280.645 59.739C280.165 60.003 279.604 60.135 278.962 60.135C278.458 60.135 277.996 60.03 277.576 59.82C277.156 59.61 276.793 59.307 276.487 58.911C276.187 58.509 275.953 58.014 275.785 57.426C275.623 56.838 275.542 56.166 275.542 55.41C275.542 54.726 275.635 54.09 275.821 53.502C276.007 52.914 276.274 52.404 276.622 51.972C276.97 51.54 277.387 51.204 277.873 50.964C278.359 50.718 278.905 50.595 279.511 50.595C280.027 50.595 280.468 50.676 280.834 50.838C281.2 51 281.527 51.219 281.815 51.495V46.626H284.038ZM288.536 50.766V60H286.304V50.766H288.536ZM288.842 48.075C288.842 48.267 288.803 48.447 288.725 48.615C288.647 48.783 288.542 48.93 288.41 49.056C288.284 49.182 288.134 49.284 287.96 49.362C287.786 49.434 287.6 49.47 287.402 49.47C287.21 49.47 287.027 49.434 286.853 49.362C286.685 49.284 286.538 49.182 286.412 49.056C286.286 48.93 286.184 48.783 286.106 48.615C286.034 48.447 285.998 48.267 285.998 48.075C285.998 47.877 286.034 47.691 286.106 47.517C286.184 47.343 286.286 47.193 286.412 47.067C286.538 46.941 286.685 46.842 286.853 46.77C287.027 46.692 287.21 46.653 287.402 46.653C287.6 46.653 287.786 46.692 287.96 46.77C288.134 46.842 288.284 46.941 288.41 47.067C288.542 47.193 288.647 47.343 288.725 47.517C288.803 47.691 288.842 47.877 288.842 48.075ZM295.68 56.058C295.038 56.088 294.498 56.145 294.06 56.229C293.622 56.307 293.271 56.409 293.007 56.535C292.743 56.661 292.554 56.808 292.44 56.976C292.326 57.144 292.269 57.327 292.269 57.525C292.269 57.915 292.383 58.194 292.611 58.362C292.845 58.53 293.148 58.614 293.52 58.614C293.976 58.614 294.369 58.533 294.699 58.371C295.035 58.203 295.362 57.951 295.68 57.615V56.058ZM290.586 52.053C291.648 51.081 292.926 50.595 294.42 50.595C294.96 50.595 295.443 50.685 295.869 50.865C296.295 51.039 296.655 51.285 296.949 51.603C297.243 51.915 297.465 52.29 297.615 52.728C297.771 53.166 297.849 53.646 297.849 54.168V60H296.841C296.631 60 296.469 59.97 296.355 59.91C296.241 59.844 296.151 59.715 296.085 59.523L295.887 58.857C295.653 59.067 295.425 59.253 295.203 59.415C294.981 59.571 294.75 59.703 294.51 59.811C294.27 59.919 294.012 60 293.736 60.054C293.466 60.114 293.166 60.144 292.836 60.144C292.446 60.144 292.086 60.093 291.756 59.991C291.426 59.883 291.141 59.724 290.901 59.514C290.661 59.304 290.475 59.043 290.343 58.731C290.211 58.419 290.145 58.056 290.145 57.642C290.145 57.408 290.184 57.177 290.262 56.949C290.34 56.715 290.466 56.493 290.64 56.283C290.82 56.073 291.051 55.875 291.333 55.689C291.615 55.503 291.96 55.341 292.368 55.203C292.782 55.065 293.262 54.954 293.808 54.87C294.354 54.78 294.978 54.726 295.68 54.708V54.168C295.68 53.55 295.548 53.094 295.284 52.8C295.02 52.5 294.639 52.35 294.141 52.35C293.781 52.35 293.481 52.392 293.241 52.476C293.007 52.56 292.8 52.656 292.62 52.764C292.44 52.866 292.275 52.959 292.125 53.043C291.981 53.127 291.819 53.169 291.639 53.169C291.483 53.169 291.351 53.13 291.243 53.052C291.135 52.968 291.048 52.872 290.982 52.764L290.586 52.053Z" fill="black"/>
<path d="M349.483 46.986V60H348.241C348.049 60 347.887 59.97 347.755 59.91C347.629 59.844 347.506 59.736 347.386 59.586L340.591 50.91C340.627 51.306 340.645 51.672 340.645 52.008V60H338.512V46.986H339.781C339.883 46.986 339.97 46.992 340.042 47.004C340.12 47.01 340.186 47.028 340.24 47.058C340.3 47.082 340.357 47.121 340.411 47.175C340.465 47.223 340.525 47.289 340.591 47.373L347.413 56.085C347.395 55.875 347.38 55.668 347.368 55.464C347.356 55.26 347.35 55.071 347.35 54.897V46.986H349.483ZM357.698 54.321C357.698 54.033 357.656 53.763 357.572 53.511C357.494 53.253 357.374 53.028 357.212 52.836C357.05 52.644 356.843 52.494 356.591 52.386C356.345 52.272 356.057 52.215 355.727 52.215C355.085 52.215 354.578 52.398 354.206 52.764C353.84 53.13 353.606 53.649 353.504 54.321H357.698ZM353.459 55.662C353.495 56.136 353.579 56.547 353.711 56.895C353.843 57.237 354.017 57.522 354.233 57.75C354.449 57.972 354.704 58.14 354.998 58.254C355.298 58.362 355.628 58.416 355.988 58.416C356.348 58.416 356.657 58.374 356.915 58.29C357.179 58.206 357.407 58.113 357.599 58.011C357.797 57.909 357.968 57.816 358.112 57.732C358.262 57.648 358.406 57.606 358.544 57.606C358.73 57.606 358.868 57.675 358.958 57.813L359.597 58.623C359.351 58.911 359.075 59.154 358.769 59.352C358.463 59.544 358.142 59.7 357.806 59.82C357.476 59.934 357.137 60.015 356.789 60.063C356.447 60.111 356.114 60.135 355.79 60.135C355.148 60.135 354.551 60.03 353.999 59.82C353.447 59.604 352.967 59.289 352.559 58.875C352.151 58.455 351.83 57.939 351.596 57.327C351.362 56.709 351.245 55.995 351.245 55.185C351.245 54.555 351.347 53.964 351.551 53.412C351.755 52.854 352.046 52.371 352.424 51.963C352.808 51.549 353.273 51.222 353.819 50.982C354.371 50.742 354.992 50.622 355.682 50.622C356.264 50.622 356.801 50.715 357.293 50.901C357.785 51.087 358.208 51.36 358.562 51.72C358.916 52.074 359.192 52.512 359.39 53.034C359.594 53.55 359.696 54.141 359.696 54.807C359.696 55.143 359.66 55.371 359.588 55.491C359.516 55.605 359.378 55.662 359.174 55.662H353.459ZM374.427 50.766L371.493 60H369.711C369.507 60 369.366 59.868 369.288 59.604L367.632 54.267C367.578 54.087 367.527 53.91 367.479 53.736C367.437 53.556 367.401 53.376 367.371 53.196C367.335 53.376 367.293 53.559 367.245 53.745C367.203 53.925 367.155 54.105 367.101 54.285L365.418 59.604C365.346 59.868 365.187 60 364.941 60H363.231L360.306 50.766H362.079C362.241 50.766 362.379 50.805 362.493 50.883C362.607 50.961 362.682 51.06 362.718 51.18L364.041 56.112C364.107 56.382 364.164 56.646 364.212 56.904C364.266 57.162 364.311 57.42 364.347 57.678C364.413 57.42 364.482 57.162 364.554 56.904C364.632 56.646 364.713 56.382 364.797 56.112L366.327 51.162C366.363 51.042 366.432 50.943 366.534 50.865C366.642 50.787 366.771 50.748 366.921 50.748H367.902C368.058 50.748 368.19 50.787 368.298 50.865C368.412 50.943 368.487 51.042 368.523 51.162L370.008 56.112C370.086 56.382 370.158 56.649 370.224 56.913C370.296 57.171 370.365 57.429 370.431 57.687C370.509 57.177 370.62 56.652 370.764 56.112L372.123 51.18C372.165 51.06 372.24 50.961 372.348 50.883C372.456 50.805 372.585 50.766 372.735 50.766H374.427ZM381.219 52.566C381.159 52.662 381.096 52.731 381.03 52.773C380.964 52.809 380.88 52.827 380.778 52.827C380.67 52.827 380.553 52.797 380.427 52.737C380.307 52.677 380.166 52.611 380.004 52.539C379.842 52.461 379.656 52.392 379.446 52.332C379.242 52.272 378.999 52.242 378.717 52.242C378.279 52.242 377.934 52.335 377.682 52.521C377.436 52.707 377.313 52.95 377.313 53.25C377.313 53.448 377.376 53.616 377.502 53.754C377.634 53.886 377.805 54.003 378.015 54.105C378.231 54.207 378.474 54.3 378.744 54.384C379.014 54.462 379.287 54.549 379.563 54.645C379.845 54.741 380.121 54.852 380.391 54.978C380.661 55.098 380.901 55.254 381.111 55.446C381.327 55.632 381.498 55.857 381.624 56.121C381.756 56.385 381.822 56.703 381.822 57.075C381.822 57.519 381.741 57.93 381.579 58.308C381.423 58.68 381.189 59.004 380.877 59.28C380.565 59.55 380.178 59.763 379.716 59.919C379.26 60.069 378.732 60.144 378.132 60.144C377.814 60.144 377.502 60.114 377.196 60.054C376.896 60 376.605 59.922 376.323 59.82C376.047 59.718 375.789 59.598 375.549 59.46C375.315 59.322 375.108 59.172 374.928 59.01L375.441 58.164C375.507 58.062 375.585 57.984 375.675 57.93C375.765 57.876 375.879 57.849 376.017 57.849C376.155 57.849 376.284 57.888 376.404 57.966C376.53 58.044 376.674 58.128 376.836 58.218C376.998 58.308 377.187 58.392 377.403 58.47C377.625 58.548 377.904 58.587 378.24 58.587C378.504 58.587 378.729 58.557 378.915 58.497C379.107 58.431 379.263 58.347 379.383 58.245C379.509 58.143 379.599 58.026 379.653 57.894C379.713 57.756 379.743 57.615 379.743 57.471C379.743 57.255 379.677 57.078 379.545 56.94C379.419 56.802 379.248 56.682 379.032 56.58C378.822 56.478 378.579 56.388 378.303 56.31C378.033 56.226 377.754 56.136 377.466 56.04C377.184 55.944 376.905 55.833 376.629 55.707C376.359 55.575 376.116 55.41 375.9 55.212C375.69 55.014 375.519 54.771 375.387 54.483C375.261 54.195 375.198 53.847 375.198 53.439C375.198 53.061 375.273 52.701 375.423 52.359C375.573 52.017 375.792 51.72 376.08 51.468C376.374 51.21 376.737 51.006 377.169 50.856C377.607 50.7 378.111 50.622 378.681 50.622C379.317 50.622 379.896 50.727 380.418 50.937C380.94 51.147 381.375 51.423 381.723 51.765L381.219 52.566ZM405.416 46.986L401.375 60H399.188L396.344 51.108C396.266 50.892 396.194 50.628 396.128 50.316C396.092 50.466 396.056 50.607 396.02 50.739C395.984 50.871 395.945 50.994 395.903 51.108L393.032 60H390.836L386.804 46.986H388.829C389.039 46.986 389.213 47.037 389.351 47.139C389.495 47.235 389.591 47.367 389.639 47.535L391.853 55.32C391.901 55.512 391.946 55.722 391.988 55.95C392.036 56.172 392.084 56.406 392.132 56.652C392.18 56.4 392.231 56.163 392.285 55.941C392.345 55.719 392.408 55.512 392.474 55.32L395.03 47.535C395.078 47.397 395.171 47.271 395.309 47.157C395.453 47.043 395.627 46.986 395.831 46.986H396.542C396.752 46.986 396.923 47.037 397.055 47.139C397.187 47.241 397.286 47.373 397.352 47.535L399.899 55.32C400.025 55.692 400.139 56.121 400.241 56.607C400.319 56.133 400.406 55.704 400.502 55.32L402.716 47.535C402.752 47.385 402.842 47.256 402.986 47.148C403.136 47.04 403.313 46.986 403.517 46.986H405.416ZM411.523 54.321C411.523 54.033 411.481 53.763 411.397 53.511C411.319 53.253 411.199 53.028 411.037 52.836C410.875 52.644 410.668 52.494 410.416 52.386C410.17 52.272 409.882 52.215 409.552 52.215C408.91 52.215 408.403 52.398 408.031 52.764C407.665 53.13 407.431 53.649 407.329 54.321H411.523ZM407.284 55.662C407.32 56.136 407.404 56.547 407.536 56.895C407.668 57.237 407.842 57.522 408.058 57.75C408.274 57.972 408.529 58.14 408.823 58.254C409.123 58.362 409.453 58.416 409.813 58.416C410.173 58.416 410.482 58.374 410.74 58.29C411.004 58.206 411.232 58.113 411.424 58.011C411.622 57.909 411.793 57.816 411.937 57.732C412.087 57.648 412.231 57.606 412.369 57.606C412.555 57.606 412.693 57.675 412.783 57.813L413.422 58.623C413.176 58.911 412.9 59.154 412.594 59.352C412.288 59.544 411.967 59.7 411.631 59.82C411.301 59.934 410.962 60.015 410.614 60.063C410.272 60.111 409.939 60.135 409.615 60.135C408.973 60.135 408.376 60.03 407.824 59.82C407.272 59.604 406.792 59.289 406.384 58.875C405.976 58.455 405.655 57.939 405.421 57.327C405.187 56.709 405.07 55.995 405.07 55.185C405.07 54.555 405.172 53.964 405.376 53.412C405.58 52.854 405.871 52.371 406.249 51.963C406.633 51.549 407.098 51.222 407.644 50.982C408.196 50.742 408.817 50.622 409.507 50.622C410.089 50.622 410.626 50.715 411.118 50.901C411.61 51.087 412.033 51.36 412.387 51.72C412.741 52.074 413.017 52.512 413.215 53.034C413.419 53.55 413.521 54.141 413.521 54.807C413.521 55.143 413.485 55.371 413.413 55.491C413.341 55.605 413.203 55.662 412.999 55.662H407.284ZM417.412 57.606C417.664 57.912 417.937 58.128 418.231 58.254C418.531 58.38 418.846 58.443 419.176 58.443C419.518 58.443 419.824 58.383 420.094 58.263C420.37 58.137 420.604 57.945 420.796 57.687C420.988 57.423 421.135 57.09 421.237 56.688C421.339 56.28 421.39 55.794 421.39 55.23C421.39 54.216 421.222 53.484 420.886 53.034C420.55 52.578 420.067 52.35 419.437 52.35C419.011 52.35 418.639 52.449 418.321 52.647C418.003 52.839 417.7 53.112 417.412 53.466V57.606ZM417.412 51.9C417.784 51.51 418.195 51.201 418.645 50.973C419.101 50.739 419.62 50.622 420.202 50.622C420.736 50.622 421.216 50.727 421.642 50.937C422.074 51.147 422.44 51.45 422.74 51.846C423.046 52.236 423.28 52.71 423.442 53.268C423.604 53.826 423.685 54.453 423.685 55.149C423.685 55.899 423.592 56.58 423.406 57.192C423.22 57.804 422.953 58.329 422.605 58.767C422.263 59.199 421.849 59.535 421.363 59.775C420.877 60.015 420.337 60.135 419.743 60.135C419.455 60.135 419.194 60.105 418.96 60.045C418.726 59.991 418.51 59.913 418.312 59.811C418.114 59.709 417.931 59.586 417.763 59.442C417.601 59.292 417.445 59.127 417.295 58.947L417.196 59.568C417.16 59.724 417.097 59.835 417.007 59.901C416.923 59.967 416.806 60 416.656 60H415.189V46.626H417.412V51.9ZM431.036 52.566C430.976 52.662 430.913 52.731 430.847 52.773C430.781 52.809 430.697 52.827 430.595 52.827C430.487 52.827 430.37 52.797 430.244 52.737C430.124 52.677 429.983 52.611 429.821 52.539C429.659 52.461 429.473 52.392 429.263 52.332C429.059 52.272 428.816 52.242 428.534 52.242C428.096 52.242 427.751 52.335 427.499 52.521C427.253 52.707 427.13 52.95 427.13 53.25C427.13 53.448 427.193 53.616 427.319 53.754C427.451 53.886 427.622 54.003 427.832 54.105C428.048 54.207 428.291 54.3 428.561 54.384C428.831 54.462 429.104 54.549 429.38 54.645C429.662 54.741 429.938 54.852 430.208 54.978C430.478 55.098 430.718 55.254 430.928 55.446C431.144 55.632 431.315 55.857 431.441 56.121C431.573 56.385 431.639 56.703 431.639 57.075C431.639 57.519 431.558 57.93 431.396 58.308C431.24 58.68 431.006 59.004 430.694 59.28C430.382 59.55 429.995 59.763 429.533 59.919C429.077 60.069 428.549 60.144 427.949 60.144C427.631 60.144 427.319 60.114 427.013 60.054C426.713 60 426.422 59.922 426.14 59.82C425.864 59.718 425.606 59.598 425.366 59.46C425.132 59.322 424.925 59.172 424.745 59.01L425.258 58.164C425.324 58.062 425.402 57.984 425.492 57.93C425.582 57.876 425.696 57.849 425.834 57.849C425.972 57.849 426.101 57.888 426.221 57.966C426.347 58.044 426.491 58.128 426.653 58.218C426.815 58.308 427.004 58.392 427.22 58.47C427.442 58.548 427.721 58.587 428.057 58.587C428.321 58.587 428.546 58.557 428.732 58.497C428.924 58.431 429.08 58.347 429.2 58.245C429.326 58.143 429.416 58.026 429.47 57.894C429.53 57.756 429.56 57.615 429.56 57.471C429.56 57.255 429.494 57.078 429.362 56.94C429.236 56.802 429.065 56.682 428.849 56.58C428.639 56.478 428.396 56.388 428.12 56.31C427.85 56.226 427.571 56.136 427.283 56.04C427.001 55.944 426.722 55.833 426.446 55.707C426.176 55.575 425.933 55.41 425.717 55.212C425.507 55.014 425.336 54.771 425.204 54.483C425.078 54.195 425.015 53.847 425.015 53.439C425.015 53.061 425.09 52.701 425.24 52.359C425.39 52.017 425.609 51.72 425.897 51.468C426.191 51.21 426.554 51.006 426.986 50.856C427.424 50.7 427.928 50.622 428.498 50.622C429.134 50.622 429.713 50.727 430.235 50.937C430.757 51.147 431.192 51.423 431.54 51.765L431.036 52.566ZM435.616 50.766V60H433.384V50.766H435.616ZM435.922 48.075C435.922 48.267 435.883 48.447 435.805 48.615C435.727 48.783 435.622 48.93 435.49 49.056C435.364 49.182 435.214 49.284 435.04 49.362C434.866 49.434 434.68 49.47 434.482 49.47C434.29 49.47 434.107 49.434 433.933 49.362C433.765 49.284 433.618 49.182 433.492 49.056C433.366 48.93 433.264 48.783 433.186 48.615C433.114 48.447 433.078 48.267 433.078 48.075C433.078 47.877 433.114 47.691 433.186 47.517C433.264 47.343 433.366 47.193 433.492 47.067C433.618 46.941 433.765 46.842 433.933 46.77C434.107 46.692 434.29 46.653 434.482 46.653C434.68 46.653 434.866 46.692 435.04 46.77C435.214 46.842 435.364 46.941 435.49 47.067C435.622 47.193 435.727 47.343 435.805 47.517C435.883 47.691 435.922 47.877 435.922 48.075ZM440.96 60.144C440.156 60.144 439.538 59.919 439.106 59.469C438.68 59.013 438.467 58.386 438.467 57.588V52.431H437.522C437.402 52.431 437.3 52.392 437.216 52.314C437.132 52.236 437.09 52.119 437.09 51.963V51.081L438.575 50.838L439.043 48.318C439.073 48.198 439.13 48.105 439.214 48.039C439.298 47.973 439.406 47.94 439.538 47.94H440.69V50.847H443.156V52.431H440.69V57.435C440.69 57.723 440.759 57.948 440.897 58.11C441.041 58.272 441.236 58.353 441.482 58.353C441.62 58.353 441.734 58.338 441.824 58.308C441.92 58.272 442.001 58.236 442.067 58.2C442.139 58.164 442.202 58.131 442.256 58.101C442.31 58.065 442.364 58.047 442.418 58.047C442.484 58.047 442.538 58.065 442.58 58.101C442.622 58.131 442.667 58.179 442.715 58.245L443.381 59.325C443.057 59.595 442.685 59.799 442.265 59.937C441.845 60.075 441.41 60.144 440.96 60.144ZM450.458 54.321C450.458 54.033 450.416 53.763 450.332 53.511C450.254 53.253 450.134 53.028 449.972 52.836C449.81 52.644 449.603 52.494 449.351 52.386C449.105 52.272 448.817 52.215 448.487 52.215C447.845 52.215 447.338 52.398 446.966 52.764C446.6 53.13 446.366 53.649 446.264 54.321H450.458ZM446.219 55.662C446.255 56.136 446.339 56.547 446.471 56.895C446.603 57.237 446.777 57.522 446.993 57.75C447.209 57.972 447.464 58.14 447.758 58.254C448.058 58.362 448.388 58.416 448.748 58.416C449.108 58.416 449.417 58.374 449.675 58.29C449.939 58.206 450.167 58.113 450.359 58.011C450.557 57.909 450.728 57.816 450.872 57.732C451.022 57.648 451.166 57.606 451.304 57.606C451.49 57.606 451.628 57.675 451.718 57.813L452.357 58.623C452.111 58.911 451.835 59.154 451.529 59.352C451.223 59.544 450.902 59.7 450.566 59.82C450.236 59.934 449.897 60.015 449.549 60.063C449.207 60.111 448.874 60.135 448.55 60.135C447.908 60.135 447.311 60.03 446.759 59.82C446.207 59.604 445.727 59.289 445.319 58.875C444.911 58.455 444.59 57.939 444.356 57.327C444.122 56.709 444.005 55.995 444.005 55.185C444.005 54.555 444.107 53.964 444.311 53.412C444.515 52.854 444.806 52.371 445.184 51.963C445.568 51.549 446.033 51.222 446.579 50.982C447.131 50.742 447.752 50.622 448.442 50.622C449.024 50.622 449.561 50.715 450.053 50.901C450.545 51.087 450.968 51.36 451.322 51.72C451.676 52.074 451.952 52.512 452.15 53.034C452.354 53.55 452.456 54.141 452.456 54.807C452.456 55.143 452.42 55.371 452.348 55.491C452.276 55.605 452.138 55.662 451.934 55.662H446.219ZM459.758 52.566C459.698 52.662 459.635 52.731 459.569 52.773C459.503 52.809 459.419 52.827 459.317 52.827C459.209 52.827 459.092 52.797 458.966 52.737C458.846 52.677 458.705 52.611 458.543 52.539C458.381 52.461 458.195 52.392 457.985 52.332C457.781 52.272 457.538 52.242 457.256 52.242C456.818 52.242 456.473 52.335 456.221 52.521C455.975 52.707 455.852 52.95 455.852 53.25C455.852 53.448 455.915 53.616 456.041 53.754C456.173 53.886 456.344 54.003 456.554 54.105C456.77 54.207 457.013 54.3 457.283 54.384C457.553 54.462 457.826 54.549 458.102 54.645C458.384 54.741 458.66 54.852 458.93 54.978C459.2 55.098 459.44 55.254 459.65 55.446C459.866 55.632 460.037 55.857 460.163 56.121C460.295 56.385 460.361 56.703 460.361 57.075C460.361 57.519 460.28 57.93 460.118 58.308C459.962 58.68 459.728 59.004 459.416 59.28C459.104 59.55 458.717 59.763 458.255 59.919C457.799 60.069 457.271 60.144 456.671 60.144C456.353 60.144 456.041 60.114 455.735 60.054C455.435 60 455.144 59.922 454.862 59.82C454.586 59.718 454.328 59.598 454.088 59.46C453.854 59.322 453.647 59.172 453.467 59.01L453.98 58.164C454.046 58.062 454.124 57.984 454.214 57.93C454.304 57.876 454.418 57.849 454.556 57.849C454.694 57.849 454.823 57.888 454.943 57.966C455.069 58.044 455.213 58.128 455.375 58.218C455.537 58.308 455.726 58.392 455.942 58.47C456.164 58.548 456.443 58.587 456.779 58.587C457.043 58.587 457.268 58.557 457.454 58.497C457.646 58.431 457.802 58.347 457.922 58.245C458.048 58.143 458.138 58.026 458.192 57.894C458.252 57.756 458.282 57.615 458.282 57.471C458.282 57.255 458.216 57.078 458.084 56.94C457.958 56.802 457.787 56.682 457.571 56.58C457.361 56.478 457.118 56.388 456.842 56.31C456.572 56.226 456.293 56.136 456.005 56.04C455.723 55.944 455.444 55.833 455.168 55.707C454.898 55.575 454.655 55.41 454.439 55.212C454.229 55.014 454.058 54.771 453.926 54.483C453.8 54.195 453.737 53.847 453.737 53.439C453.737 53.061 453.812 52.701 453.962 52.359C454.112 52.017 454.331 51.72 454.619 51.468C454.913 51.21 455.276 51.006 455.708 50.856C456.146 50.7 456.65 50.622 457.22 50.622C457.856 50.622 458.435 50.727 458.957 50.937C459.479 51.147 459.914 51.423 460.262 51.765L459.758 52.566Z" fill="black"/>
<path d="M510.436 48.975H506.512V60H504.091V48.975H500.167V46.986H510.436V48.975ZM518.567 50.766L514.904 60H512.888L509.225 50.766H511.061C511.229 50.766 511.367 50.805 511.475 50.883C511.589 50.961 511.664 51.06 511.7 51.18L513.482 56.112C513.578 56.4 513.662 56.682 513.734 56.958C513.806 57.234 513.869 57.51 513.923 57.786C513.983 57.51 514.049 57.234 514.121 56.958C514.193 56.682 514.28 56.4 514.382 56.112L516.2 51.18C516.242 51.06 516.317 50.961 516.425 50.883C516.533 50.805 516.662 50.766 516.812 50.766H518.567ZM532.977 56.931C533.109 56.931 533.226 56.982 533.328 57.084L534.282 58.119C533.754 58.773 533.103 59.274 532.329 59.622C531.561 59.97 530.637 60.144 529.557 60.144C528.591 60.144 527.721 59.979 526.947 59.649C526.179 59.319 525.522 58.86 524.976 58.272C524.43 57.684 524.01 56.982 523.716 56.166C523.428 55.35 523.284 54.459 523.284 53.493C523.284 52.515 523.44 51.621 523.752 50.811C524.064 49.995 524.502 49.293 525.066 48.705C525.636 48.117 526.314 47.661 527.1 47.337C527.886 47.007 528.756 46.842 529.71 46.842C530.658 46.842 531.498 46.998 532.23 47.31C532.968 47.622 533.595 48.03 534.111 48.534L533.301 49.659C533.253 49.731 533.19 49.794 533.112 49.848C533.04 49.902 532.938 49.929 532.806 49.929C532.716 49.929 532.623 49.905 532.527 49.857C532.431 49.803 532.326 49.74 532.212 49.668C532.098 49.59 531.966 49.506 531.816 49.416C531.666 49.326 531.492 49.245 531.294 49.173C531.096 49.095 530.865 49.032 530.601 48.984C530.343 48.93 530.043 48.903 529.701 48.903C529.119 48.903 528.585 49.008 528.099 49.218C527.619 49.422 527.205 49.722 526.857 50.118C526.509 50.508 526.239 50.988 526.047 51.558C525.855 52.122 525.759 52.767 525.759 53.493C525.759 54.225 525.861 54.876 526.065 55.446C526.275 56.016 526.557 56.496 526.911 56.886C527.265 57.276 527.682 57.576 528.162 57.786C528.642 57.99 529.158 58.092 529.71 58.092C530.04 58.092 530.337 58.074 530.601 58.038C530.871 58.002 531.117 57.945 531.339 57.867C531.567 57.789 531.78 57.69 531.978 57.57C532.182 57.444 532.383 57.291 532.581 57.111C532.641 57.057 532.704 57.015 532.77 56.985C532.836 56.949 532.905 56.931 532.977 56.931ZM537.812 51.756C538.172 51.42 538.568 51.147 539 50.937C539.432 50.727 539.939 50.622 540.521 50.622C541.025 50.622 541.472 50.709 541.862 50.883C542.252 51.051 542.576 51.291 542.834 51.603C543.098 51.909 543.296 52.278 543.428 52.71C543.566 53.136 543.635 53.607 543.635 54.123V60H541.412V54.123C541.412 53.559 541.283 53.124 541.025 52.818C540.767 52.506 540.374 52.35 539.846 52.35C539.462 52.35 539.102 52.437 538.766 52.611C538.43 52.785 538.112 53.022 537.812 53.322V60H535.589V46.626H537.812V51.756ZM550.627 56.058C549.985 56.088 549.445 56.145 549.007 56.229C548.569 56.307 548.218 56.409 547.954 56.535C547.69 56.661 547.501 56.808 547.387 56.976C547.273 57.144 547.216 57.327 547.216 57.525C547.216 57.915 547.33 58.194 547.558 58.362C547.792 58.53 548.095 58.614 548.467 58.614C548.923 58.614 549.316 58.533 549.646 58.371C549.982 58.203 550.309 57.951 550.627 57.615V56.058ZM545.533 52.053C546.595 51.081 547.873 50.595 549.367 50.595C549.907 50.595 550.39 50.685 550.816 50.865C551.242 51.039 551.602 51.285 551.896 51.603C552.19 51.915 552.412 52.29 552.562 52.728C552.718 53.166 552.796 53.646 552.796 54.168V60H551.788C551.578 60 551.416 59.97 551.302 59.91C551.188 59.844 551.098 59.715 551.032 59.523L550.834 58.857C550.6 59.067 550.372 59.253 550.15 59.415C549.928 59.571 549.697 59.703 549.457 59.811C549.217 59.919 548.959 60 548.683 60.054C548.413 60.114 548.113 60.144 547.783 60.144C547.393 60.144 547.033 60.093 546.703 59.991C546.373 59.883 546.088 59.724 545.848 59.514C545.608 59.304 545.422 59.043 545.29 58.731C545.158 58.419 545.092 58.056 545.092 57.642C545.092 57.408 545.131 57.177 545.209 56.949C545.287 56.715 545.413 56.493 545.587 56.283C545.767 56.073 545.998 55.875 546.28 55.689C546.562 55.503 546.907 55.341 547.315 55.203C547.729 55.065 548.209 54.954 548.755 54.87C549.301 54.78 549.925 54.726 550.627 54.708V54.168C550.627 53.55 550.495 53.094 550.231 52.8C549.967 52.5 549.586 52.35 549.088 52.35C548.728 52.35 548.428 52.392 548.188 52.476C547.954 52.56 547.747 52.656 547.567 52.764C547.387 52.866 547.222 52.959 547.072 53.043C546.928 53.127 546.766 53.169 546.586 53.169C546.43 53.169 546.298 53.13 546.19 53.052C546.082 52.968 545.995 52.872 545.929 52.764L545.533 52.053ZM556.969 51.9C557.155 51.714 557.35 51.543 557.554 51.387C557.764 51.225 557.983 51.09 558.211 50.982C558.445 50.868 558.694 50.781 558.958 50.721C559.222 50.655 559.51 50.622 559.822 50.622C560.326 50.622 560.773 50.709 561.163 50.883C561.553 51.051 561.877 51.291 562.135 51.603C562.399 51.909 562.597 52.278 562.729 52.71C562.867 53.136 562.936 53.607 562.936 54.123V60H560.713V54.123C560.713 53.559 560.584 53.124 560.326 52.818C560.068 52.506 559.675 52.35 559.147 52.35C558.763 52.35 558.403 52.437 558.067 52.611C557.731 52.785 557.413 53.022 557.113 53.322V60H554.89V50.766H556.249C556.537 50.766 556.726 50.901 556.816 51.171L556.969 51.9ZM567.129 51.9C567.315 51.714 567.51 51.543 567.714 51.387C567.924 51.225 568.143 51.09 568.371 50.982C568.605 50.868 568.854 50.781 569.118 50.721C569.382 50.655 569.67 50.622 569.982 50.622C570.486 50.622 570.933 50.709 571.323 50.883C571.713 51.051 572.037 51.291 572.295 51.603C572.559 51.909 572.757 52.278 572.889 52.71C573.027 53.136 573.096 53.607 573.096 54.123V60H570.873V54.123C570.873 53.559 570.744 53.124 570.486 52.818C570.228 52.506 569.835 52.35 569.307 52.35C568.923 52.35 568.563 52.437 568.227 52.611C567.891 52.785 567.573 53.022 567.273 53.322V60H565.05V50.766H566.409C566.697 50.766 566.886 50.901 566.976 51.171L567.129 51.9ZM581.159 54.321C581.159 54.033 581.117 53.763 581.033 53.511C580.955 53.253 580.835 53.028 580.673 52.836C580.511 52.644 580.304 52.494 580.052 52.386C579.806 52.272 579.518 52.215 579.188 52.215C578.546 52.215 578.039 52.398 577.667 52.764C577.301 53.13 577.067 53.649 576.965 54.321H581.159ZM576.92 55.662C576.956 56.136 577.04 56.547 577.172 56.895C577.304 57.237 577.478 57.522 577.694 57.75C577.91 57.972 578.165 58.14 578.459 58.254C578.759 58.362 579.089 58.416 579.449 58.416C579.809 58.416 580.118 58.374 580.376 58.29C580.64 58.206 580.868 58.113 581.06 58.011C581.258 57.909 581.429 57.816 581.573 57.732C581.723 57.648 581.867 57.606 582.005 57.606C582.191 57.606 582.329 57.675 582.419 57.813L583.058 58.623C582.812 58.911 582.536 59.154 582.23 59.352C581.924 59.544 581.603 59.7 581.267 59.82C580.937 59.934 580.598 60.015 580.25 60.063C579.908 60.111 579.575 60.135 579.251 60.135C578.609 60.135 578.012 60.03 577.46 59.82C576.908 59.604 576.428 59.289 576.02 58.875C575.612 58.455 575.291 57.939 575.057 57.327C574.823 56.709 574.706 55.995 574.706 55.185C574.706 54.555 574.808 53.964 575.012 53.412C575.216 52.854 575.507 52.371 575.885 51.963C576.269 51.549 576.734 51.222 577.28 50.982C577.832 50.742 578.453 50.622 579.143 50.622C579.725 50.622 580.262 50.715 580.754 50.901C581.246 51.087 581.669 51.36 582.023 51.72C582.377 52.074 582.653 52.512 582.851 53.034C583.055 53.55 583.157 54.141 583.157 54.807C583.157 55.143 583.121 55.371 583.049 55.491C582.977 55.605 582.839 55.662 582.635 55.662H576.92ZM587.076 46.626V60H584.853V46.626H587.076ZM594.924 52.566C594.864 52.662 594.801 52.731 594.735 52.773C594.669 52.809 594.585 52.827 594.483 52.827C594.375 52.827 594.258 52.797 594.132 52.737C594.012 52.677 593.871 52.611 593.709 52.539C593.547 52.461 593.361 52.392 593.151 52.332C592.947 52.272 592.704 52.242 592.422 52.242C591.984 52.242 591.639 52.335 591.387 52.521C591.141 52.707 591.018 52.95 591.018 53.25C591.018 53.448 591.081 53.616 591.207 53.754C591.339 53.886 591.51 54.003 591.72 54.105C591.936 54.207 592.179 54.3 592.449 54.384C592.719 54.462 592.992 54.549 593.268 54.645C593.55 54.741 593.826 54.852 594.096 54.978C594.366 55.098 594.606 55.254 594.816 55.446C595.032 55.632 595.203 55.857 595.329 56.121C595.461 56.385 595.527 56.703 595.527 57.075C595.527 57.519 595.446 57.93 595.284 58.308C595.128 58.68 594.894 59.004 594.582 59.28C594.27 59.55 593.883 59.763 593.421 59.919C592.965 60.069 592.437 60.144 591.837 60.144C591.519 60.144 591.207 60.114 590.901 60.054C590.601 60 590.31 59.922 590.028 59.82C589.752 59.718 589.494 59.598 589.254 59.46C589.02 59.322 588.813 59.172 588.633 59.01L589.146 58.164C589.212 58.062 589.29 57.984 589.38 57.93C589.47 57.876 589.584 57.849 589.722 57.849C589.86 57.849 589.989 57.888 590.109 57.966C590.235 58.044 590.379 58.128 590.541 58.218C590.703 58.308 590.892 58.392 591.108 58.47C591.33 58.548 591.609 58.587 591.945 58.587C592.209 58.587 592.434 58.557 592.62 58.497C592.812 58.431 592.968 58.347 593.088 58.245C593.214 58.143 593.304 58.026 593.358 57.894C593.418 57.756 593.448 57.615 593.448 57.471C593.448 57.255 593.382 57.078 593.25 56.94C593.124 56.802 592.953 56.682 592.737 56.58C592.527 56.478 592.284 56.388 592.008 56.31C591.738 56.226 591.459 56.136 591.171 56.04C590.889 55.944 590.61 55.833 590.334 55.707C590.064 55.575 589.821 55.41 589.605 55.212C589.395 55.014 589.224 54.771 589.092 54.483C588.966 54.195 588.903 53.847 588.903 53.439C588.903 53.061 588.978 52.701 589.128 52.359C589.278 52.017 589.497 51.72 589.785 51.468C590.079 51.21 590.442 51.006 590.874 50.856C591.312 50.7 591.816 50.622 592.386 50.622C593.022 50.622 593.601 50.727 594.123 50.937C594.645 51.147 595.08 51.423 595.428 51.765L594.924 52.566Z" fill="black"/>
<path d="M62.386 116.931C62.518 116.931 62.635 116.982 62.737 117.084L63.691 118.119C63.163 118.773 62.512 119.274 61.738 119.622C60.97 119.97 60.046 120.144 58.966 120.144C58 120.144 57.13 119.979 56.356 119.649C55.588 119.319 54.931 118.86 54.385 118.272C53.839 117.684 53.419 116.982 53.125 116.166C52.837 115.35 52.693 114.459 52.693 113.493C52.693 112.515 52.849 111.621 53.161 110.811C53.473 109.995 53.911 109.293 54.475 108.705C55.045 108.117 55.723 107.661 56.509 107.337C57.295 107.007 58.165 106.842 59.119 106.842C60.067 106.842 60.907 106.998 61.639 107.31C62.377 107.622 63.004 108.03 63.52 108.534L62.71 109.659C62.662 109.731 62.599 109.794 62.521 109.848C62.449 109.902 62.347 109.929 62.215 109.929C62.125 109.929 62.032 109.905 61.936 109.857C61.84 109.803 61.735 109.74 61.621 109.668C61.507 109.59 61.375 109.506 61.225 109.416C61.075 109.326 60.901 109.245 60.703 109.173C60.505 109.095 60.274 109.032 60.01 108.984C59.752 108.93 59.452 108.903 59.11 108.903C58.528 108.903 57.994 109.008 57.508 109.218C57.028 109.422 56.614 109.722 56.266 110.118C55.918 110.508 55.648 110.988 55.456 111.558C55.264 112.122 55.168 112.767 55.168 113.493C55.168 114.225 55.27 114.876 55.474 115.446C55.684 116.016 55.966 116.496 56.32 116.886C56.674 117.276 57.091 117.576 57.571 117.786C58.051 117.99 58.567 118.092 59.119 118.092C59.449 118.092 59.746 118.074 60.01 118.038C60.28 118.002 60.526 117.945 60.748 117.867C60.976 117.789 61.189 117.69 61.387 117.57C61.591 117.444 61.792 117.291 61.99 117.111C62.05 117.057 62.113 117.015 62.179 116.985C62.245 116.949 62.314 116.931 62.386 116.931ZM68.891 110.622C69.575 110.622 70.196 110.733 70.754 110.955C71.318 111.177 71.798 111.492 72.194 111.9C72.596 112.308 72.905 112.806 73.121 113.394C73.337 113.982 73.445 114.639 73.445 115.365C73.445 116.097 73.337 116.757 73.121 117.345C72.905 117.933 72.596 118.434 72.194 118.848C71.798 119.262 71.318 119.58 70.754 119.802C70.196 120.024 69.575 120.135 68.891 120.135C68.201 120.135 67.574 120.024 67.01 119.802C66.446 119.58 65.963 119.262 65.561 118.848C65.165 118.434 64.856 117.933 64.634 117.345C64.418 116.757 64.31 116.097 64.31 115.365C64.31 114.639 64.418 113.982 64.634 113.394C64.856 112.806 65.165 112.308 65.561 111.9C65.963 111.492 66.446 111.177 67.01 110.955C67.574 110.733 68.201 110.622 68.891 110.622ZM68.891 118.425C69.659 118.425 70.226 118.167 70.592 117.651C70.964 117.135 71.15 116.379 71.15 115.383C71.15 114.387 70.964 113.628 70.592 113.106C70.226 112.584 69.659 112.323 68.891 112.323C68.111 112.323 67.532 112.587 67.154 113.115C66.782 113.637 66.596 114.393 66.596 115.383C66.596 116.373 66.782 117.129 67.154 117.651C67.532 118.167 68.111 118.425 68.891 118.425ZM77.22 111.9C77.406 111.714 77.601 111.543 77.805 111.387C78.015 111.225 78.234 111.09 78.462 110.982C78.696 110.868 78.945 110.781 79.209 110.721C79.473 110.655 79.761 110.622 80.073 110.622C80.577 110.622 81.024 110.709 81.414 110.883C81.804 111.051 82.128 111.291 82.386 111.603C82.65 111.909 82.848 112.278 82.98 112.71C83.118 113.136 83.187 113.607 83.187 114.123V120H80.964V114.123C80.964 113.559 80.835 113.124 80.577 112.818C80.319 112.506 79.926 112.35 79.398 112.35C79.014 112.35 78.654 112.437 78.318 112.611C77.982 112.785 77.664 113.022 77.364 113.322V120H75.141V110.766H76.5C76.788 110.766 76.977 110.901 77.067 111.171L77.22 111.9ZM93.4152 110.766L89.7522 120H87.7362L84.0732 110.766H85.9092C86.0772 110.766 86.2152 110.805 86.3232 110.883C86.4372 110.961 86.5122 111.06 86.5482 111.18L88.3302 116.112C88.4262 116.4 88.5102 116.682 88.5822 116.958C88.6542 117.234 88.7172 117.51 88.7712 117.786C88.8312 117.51 88.8972 117.234 88.9692 116.958C89.0412 116.682 89.1282 116.4 89.2302 116.112L91.0482 111.18C91.0902 111.06 91.1652 110.961 91.2732 110.883C91.3812 110.805 91.5102 110.766 91.6602 110.766H93.4152ZM100.268 114.321C100.268 114.033 100.226 113.763 100.142 113.511C100.064 113.253 99.9437 113.028 99.7817 112.836C99.6197 112.644 99.4127 112.494 99.1607 112.386C98.9147 112.272 98.6267 112.215 98.2967 112.215C97.6547 112.215 97.1477 112.398 96.7757 112.764C96.4097 113.13 96.1757 113.649 96.0737 114.321H100.268ZM96.0287 115.662C96.0647 116.136 96.1487 116.547 96.2807 116.895C96.4127 117.237 96.5867 117.522 96.8027 117.75C97.0187 117.972 97.2737 118.14 97.5677 118.254C97.8677 118.362 98.1977 118.416 98.5577 118.416C98.9177 118.416 99.2267 118.374 99.4847 118.29C99.7487 118.206 99.9767 118.113 100.169 118.011C100.367 117.909 100.538 117.816 100.682 117.732C100.832 117.648 100.976 117.606 101.114 117.606C101.3 117.606 101.438 117.675 101.528 117.813L102.167 118.623C101.921 118.911 101.645 119.154 101.339 119.352C101.033 119.544 100.712 119.7 100.376 119.82C100.046 119.934 99.7067 120.015 99.3587 120.063C99.0167 120.111 98.6837 120.135 98.3597 120.135C97.7177 120.135 97.1207 120.03 96.5687 119.82C96.0167 119.604 95.5367 119.289 95.1287 118.875C94.7207 118.455 94.3997 117.939 94.1657 117.327C93.9317 116.709 93.8147 115.995 93.8147 115.185C93.8147 114.555 93.9167 113.964 94.1207 113.412C94.3247 112.854 94.6157 112.371 94.9937 111.963C95.3777 111.549 95.8427 111.222 96.3887 110.982C96.9407 110.742 97.5617 110.622 98.2517 110.622C98.8337 110.622 99.3707 110.715 99.8627 110.901C100.355 111.087 100.778 111.36 101.132 111.72C101.486 112.074 101.762 112.512 101.96 113.034C102.164 113.55 102.266 114.141 102.266 114.807C102.266 115.143 102.23 115.371 102.158 115.491C102.086 115.605 101.948 115.662 101.744 115.662H96.0287ZM106.013 111.9C106.199 111.714 106.394 111.543 106.598 111.387C106.808 111.225 107.027 111.09 107.255 110.982C107.489 110.868 107.738 110.781 108.002 110.721C108.266 110.655 108.554 110.622 108.866 110.622C109.37 110.622 109.817 110.709 110.207 110.883C110.597 111.051 110.921 111.291 111.179 111.603C111.443 111.909 111.641 112.278 111.773 112.71C111.911 113.136 111.98 113.607 111.98 114.123V120H109.757V114.123C109.757 113.559 109.628 113.124 109.37 112.818C109.112 112.506 108.719 112.35 108.191 112.35C107.807 112.35 107.447 112.437 107.111 112.611C106.775 112.785 106.457 113.022 106.157 113.322V120H103.934V110.766H105.293C105.581 110.766 105.77 110.901 105.86 111.171L106.013 111.9ZM116.398 110.766V120H114.166V110.766H116.398ZM116.704 108.075C116.704 108.267 116.665 108.447 116.587 108.615C116.509 108.783 116.404 108.93 116.272 109.056C116.146 109.182 115.996 109.284 115.822 109.362C115.648 109.434 115.462 109.47 115.264 109.47C115.072 109.47 114.889 109.434 114.715 109.362C114.547 109.284 114.4 109.182 114.274 109.056C114.148 108.93 114.046 108.783 113.968 108.615C113.896 108.447 113.86 108.267 113.86 108.075C113.86 107.877 113.896 107.691 113.968 107.517C114.046 107.343 114.148 107.193 114.274 107.067C114.4 106.941 114.547 106.842 114.715 106.77C114.889 106.692 115.072 106.653 115.264 106.653C115.462 106.653 115.648 106.692 115.822 106.77C115.996 106.842 116.146 106.941 116.272 107.067C116.404 107.193 116.509 107.343 116.587 107.517C116.665 107.691 116.704 107.877 116.704 108.075ZM124.613 114.321C124.613 114.033 124.571 113.763 124.487 113.511C124.409 113.253 124.289 113.028 124.127 112.836C123.965 112.644 123.758 112.494 123.506 112.386C123.26 112.272 122.972 112.215 122.642 112.215C122 112.215 121.493 112.398 121.121 112.764C120.755 113.13 120.521 113.649 120.419 114.321H124.613ZM120.374 115.662C120.41 116.136 120.494 116.547 120.626 116.895C120.758 117.237 120.932 117.522 121.148 117.75C121.364 117.972 121.619 118.14 121.913 118.254C122.213 118.362 122.543 118.416 122.903 118.416C123.263 118.416 123.572 118.374 123.83 118.29C124.094 118.206 124.322 118.113 124.514 118.011C124.712 117.909 124.883 117.816 125.027 117.732C125.177 117.648 125.321 117.606 125.459 117.606C125.645 117.606 125.783 117.675 125.873 117.813L126.512 118.623C126.266 118.911 125.99 119.154 125.684 119.352C125.378 119.544 125.057 119.7 124.721 119.82C124.391 119.934 124.052 120.015 123.704 120.063C123.362 120.111 123.029 120.135 122.705 120.135C122.063 120.135 121.466 120.03 120.914 119.82C120.362 119.604 119.882 119.289 119.474 118.875C119.066 118.455 118.745 117.939 118.511 117.327C118.277 116.709 118.16 115.995 118.16 115.185C118.16 114.555 118.262 113.964 118.466 113.412C118.67 112.854 118.961 112.371 119.339 111.963C119.723 111.549 120.188 111.222 120.734 110.982C121.286 110.742 121.907 110.622 122.597 110.622C123.179 110.622 123.716 110.715 124.208 110.901C124.7 111.087 125.123 111.36 125.477 111.72C125.831 112.074 126.107 112.512 126.305 113.034C126.509 113.55 126.611 114.141 126.611 114.807C126.611 115.143 126.575 115.371 126.503 115.491C126.431 115.605 126.293 115.662 126.089 115.662H120.374ZM130.359 111.9C130.545 111.714 130.74 111.543 130.944 111.387C131.154 111.225 131.373 111.09 131.601 110.982C131.835 110.868 132.084 110.781 132.348 110.721C132.612 110.655 132.9 110.622 133.212 110.622C133.716 110.622 134.163 110.709 134.553 110.883C134.943 111.051 135.267 111.291 135.525 111.603C135.789 111.909 135.987 112.278 136.119 112.71C136.257 113.136 136.326 113.607 136.326 114.123V120H134.103V114.123C134.103 113.559 133.974 113.124 133.716 112.818C133.458 112.506 133.065 112.35 132.537 112.35C132.153 112.35 131.793 112.437 131.457 112.611C131.121 112.785 130.803 113.022 130.503 113.322V120H128.28V110.766H129.639C129.927 110.766 130.116 110.901 130.206 111.171L130.359 111.9ZM145.055 112.719C144.989 112.803 144.923 112.869 144.857 112.917C144.797 112.965 144.707 112.989 144.587 112.989C144.473 112.989 144.362 112.956 144.254 112.89C144.146 112.818 144.017 112.74 143.867 112.656C143.717 112.566 143.537 112.488 143.327 112.422C143.123 112.35 142.868 112.314 142.562 112.314C142.172 112.314 141.83 112.386 141.536 112.53C141.242 112.668 140.996 112.869 140.798 113.133C140.606 113.397 140.462 113.718 140.366 114.096C140.27 114.468 140.222 114.891 140.222 115.365C140.222 115.857 140.273 116.295 140.375 116.679C140.483 117.063 140.636 117.387 140.834 117.651C141.032 117.909 141.272 118.107 141.554 118.245C141.836 118.377 142.154 118.443 142.508 118.443C142.862 118.443 143.147 118.401 143.363 118.317C143.585 118.227 143.771 118.131 143.921 118.029C144.071 117.921 144.2 117.825 144.308 117.741C144.422 117.651 144.548 117.606 144.686 117.606C144.866 117.606 145.001 117.675 145.091 117.813L145.73 118.623C145.484 118.911 145.217 119.154 144.929 119.352C144.641 119.544 144.341 119.7 144.029 119.82C143.723 119.934 143.405 120.015 143.075 120.063C142.751 120.111 142.427 120.135 142.103 120.135C141.533 120.135 140.996 120.03 140.492 119.82C139.988 119.604 139.547 119.292 139.169 118.884C138.791 118.476 138.491 117.978 138.269 117.39C138.053 116.796 137.945 116.121 137.945 115.365C137.945 114.687 138.041 114.06 138.233 113.484C138.431 112.902 138.719 112.401 139.097 111.981C139.475 111.555 139.943 111.222 140.501 110.982C141.059 110.742 141.701 110.622 142.427 110.622C143.117 110.622 143.72 110.733 144.236 110.955C144.758 111.177 145.226 111.495 145.64 111.909L145.055 112.719ZM152.914 114.321C152.914 114.033 152.872 113.763 152.788 113.511C152.71 113.253 152.59 113.028 152.428 112.836C152.266 112.644 152.059 112.494 151.807 112.386C151.561 112.272 151.273 112.215 150.943 112.215C150.301 112.215 149.794 112.398 149.422 112.764C149.056 113.13 148.822 113.649 148.72 114.321H152.914ZM148.675 115.662C148.711 116.136 148.795 116.547 148.927 116.895C149.059 117.237 149.233 117.522 149.449 117.75C149.665 117.972 149.92 118.14 150.214 118.254C150.514 118.362 150.844 118.416 151.204 118.416C151.564 118.416 151.873 118.374 152.131 118.29C152.395 118.206 152.623 118.113 152.815 118.011C153.013 117.909 153.184 117.816 153.328 117.732C153.478 117.648 153.622 117.606 153.76 117.606C153.946 117.606 154.084 117.675 154.174 117.813L154.813 118.623C154.567 118.911 154.291 119.154 153.985 119.352C153.679 119.544 153.358 119.7 153.022 119.82C152.692 119.934 152.353 120.015 152.005 120.063C151.663 120.111 151.33 120.135 151.006 120.135C150.364 120.135 149.767 120.03 149.215 119.82C148.663 119.604 148.183 119.289 147.775 118.875C147.367 118.455 147.046 117.939 146.812 117.327C146.578 116.709 146.461 115.995 146.461 115.185C146.461 114.555 146.563 113.964 146.767 113.412C146.971 112.854 147.262 112.371 147.64 111.963C148.024 111.549 148.489 111.222 149.035 110.982C149.587 110.742 150.208 110.622 150.898 110.622C151.48 110.622 152.017 110.715 152.509 110.901C153.001 111.087 153.424 111.36 153.778 111.72C154.132 112.074 154.408 112.512 154.606 113.034C154.81 113.55 154.912 114.141 154.912 114.807C154.912 115.143 154.876 115.371 154.804 115.491C154.732 115.605 154.594 115.662 154.39 115.662H148.675Z" fill="black"/>
<path d="M39.679 170.529C40.123 170.529 40.51 170.475 40.84 170.367C41.17 170.253 41.443 170.094 41.659 169.89C41.881 169.68 42.046 169.428 42.154 169.134C42.262 168.834 42.316 168.501 42.316 168.135C42.316 167.787 42.262 167.472 42.154 167.19C42.046 166.908 41.884 166.668 41.668 166.47C41.452 166.272 41.179 166.122 40.849 166.02C40.519 165.912 40.129 165.858 39.679 165.858H37.87V170.529H39.679ZM39.679 163.986C40.549 163.986 41.302 164.088 41.938 164.292C42.574 164.496 43.099 164.781 43.513 165.147C43.927 165.513 44.233 165.951 44.431 166.461C44.635 166.971 44.737 167.529 44.737 168.135C44.737 168.765 44.632 169.344 44.422 169.872C44.212 170.394 43.897 170.844 43.477 171.222C43.057 171.6 42.529 171.894 41.893 172.104C41.263 172.314 40.525 172.419 39.679 172.419H37.87V177H35.449V163.986H39.679ZM51.7697 171.321C51.7697 171.033 51.7277 170.763 51.6437 170.511C51.5657 170.253 51.4457 170.028 51.2837 169.836C51.1217 169.644 50.9147 169.494 50.6627 169.386C50.4167 169.272 50.1287 169.215 49.7987 169.215C49.1567 169.215 48.6497 169.398 48.2777 169.764C47.9117 170.13 47.6777 170.649 47.5757 171.321H51.7697ZM47.5307 172.662C47.5667 173.136 47.6507 173.547 47.7827 173.895C47.9147 174.237 48.0887 174.522 48.3047 174.75C48.5207 174.972 48.7757 175.14 49.0697 175.254C49.3697 175.362 49.6997 175.416 50.0597 175.416C50.4197 175.416 50.7287 175.374 50.9867 175.29C51.2507 175.206 51.4787 175.113 51.6707 175.011C51.8687 174.909 52.0397 174.816 52.1837 174.732C52.3337 174.648 52.4777 174.606 52.6157 174.606C52.8017 174.606 52.9397 174.675 53.0297 174.813L53.6687 175.623C53.4227 175.911 53.1467 176.154 52.8407 176.352C52.5347 176.544 52.2137 176.7 51.8777 176.82C51.5477 176.934 51.2087 177.015 50.8607 177.063C50.5187 177.111 50.1857 177.135 49.8617 177.135C49.2197 177.135 48.6227 177.03 48.0707 176.82C47.5187 176.604 47.0387 176.289 46.6307 175.875C46.2227 175.455 45.9017 174.939 45.6677 174.327C45.4337 173.709 45.3167 172.995 45.3167 172.185C45.3167 171.555 45.4187 170.964 45.6227 170.412C45.8267 169.854 46.1177 169.371 46.4957 168.963C46.8797 168.549 47.3447 168.222 47.8907 167.982C48.4427 167.742 49.0637 167.622 49.7537 167.622C50.3357 167.622 50.8727 167.715 51.3647 167.901C51.8567 168.087 52.2797 168.36 52.6337 168.72C52.9877 169.074 53.2637 169.512 53.4617 170.034C53.6657 170.55 53.7677 171.141 53.7677 171.807C53.7677 172.143 53.7317 172.371 53.6597 172.491C53.5877 172.605 53.4497 172.662 53.2457 172.662H47.5307ZM57.5329 169.368C57.8209 168.816 58.1629 168.384 58.5589 168.072C58.9549 167.754 59.4229 167.595 59.9629 167.595C60.3889 167.595 60.7309 167.688 60.9889 167.874L60.8449 169.539C60.8149 169.647 60.7699 169.725 60.7099 169.773C60.6559 169.815 60.5809 169.836 60.4849 169.836C60.3949 169.836 60.2599 169.821 60.0799 169.791C59.9059 169.761 59.7349 169.746 59.5669 169.746C59.3209 169.746 59.1019 169.782 58.9099 169.854C58.7179 169.926 58.5439 170.031 58.3879 170.169C58.2379 170.301 58.1029 170.463 57.9829 170.655C57.8689 170.847 57.7609 171.066 57.6589 171.312V177H55.4359V167.766H56.7409C56.9689 167.766 57.1279 167.808 57.2179 167.892C57.3079 167.97 57.3679 168.114 57.3979 168.324L57.5329 169.368ZM67.7496 169.566C67.6896 169.662 67.6266 169.731 67.5606 169.773C67.4946 169.809 67.4106 169.827 67.3086 169.827C67.2006 169.827 67.0836 169.797 66.9576 169.737C66.8376 169.677 66.6966 169.611 66.5346 169.539C66.3726 169.461 66.1866 169.392 65.9766 169.332C65.7726 169.272 65.5296 169.242 65.2476 169.242C64.8096 169.242 64.4646 169.335 64.2126 169.521C63.9666 169.707 63.8436 169.95 63.8436 170.25C63.8436 170.448 63.9066 170.616 64.0326 170.754C64.1646 170.886 64.3356 171.003 64.5456 171.105C64.7616 171.207 65.0046 171.3 65.2746 171.384C65.5446 171.462 65.8176 171.549 66.0936 171.645C66.3756 171.741 66.6516 171.852 66.9216 171.978C67.1916 172.098 67.4316 172.254 67.6416 172.446C67.8576 172.632 68.0286 172.857 68.1546 173.121C68.2866 173.385 68.3526 173.703 68.3526 174.075C68.3526 174.519 68.2716 174.93 68.1096 175.308C67.9536 175.68 67.7196 176.004 67.4076 176.28C67.0956 176.55 66.7086 176.763 66.2466 176.919C65.7906 177.069 65.2626 177.144 64.6626 177.144C64.3446 177.144 64.0326 177.114 63.7266 177.054C63.4266 177 63.1356 176.922 62.8536 176.82C62.5776 176.718 62.3196 176.598 62.0796 176.46C61.8456 176.322 61.6386 176.172 61.4586 176.01L61.9716 175.164C62.0376 175.062 62.1156 174.984 62.2056 174.93C62.2956 174.876 62.4096 174.849 62.5476 174.849C62.6856 174.849 62.8146 174.888 62.9346 174.966C63.0606 175.044 63.2046 175.128 63.3666 175.218C63.5286 175.308 63.7176 175.392 63.9336 175.47C64.1556 175.548 64.4346 175.587 64.7706 175.587C65.0346 175.587 65.2596 175.557 65.4456 175.497C65.6376 175.431 65.7936 175.347 65.9136 175.245C66.0396 175.143 66.1296 175.026 66.1836 174.894C66.2436 174.756 66.2736 174.615 66.2736 174.471C66.2736 174.255 66.2076 174.078 66.0756 173.94C65.9496 173.802 65.7786 173.682 65.5626 173.58C65.3526 173.478 65.1096 173.388 64.8336 173.31C64.5636 173.226 64.2846 173.136 63.9966 173.04C63.7146 172.944 63.4356 172.833 63.1596 172.707C62.8896 172.575 62.6466 172.41 62.4306 172.212C62.2206 172.014 62.0496 171.771 61.9176 171.483C61.7916 171.195 61.7286 170.847 61.7286 170.439C61.7286 170.061 61.8036 169.701 61.9536 169.359C62.1036 169.017 62.3226 168.72 62.6106 168.468C62.9046 168.21 63.2676 168.006 63.6996 167.856C64.1376 167.7 64.6416 167.622 65.2116 167.622C65.8476 167.622 66.4266 167.727 66.9486 167.937C67.4706 168.147 67.9056 168.423 68.2536 168.765L67.7496 169.566ZM74.1117 167.622C74.7957 167.622 75.4167 167.733 75.9747 167.955C76.5387 168.177 77.0187 168.492 77.4147 168.9C77.8167 169.308 78.1257 169.806 78.3417 170.394C78.5577 170.982 78.6657 171.639 78.6657 172.365C78.6657 173.097 78.5577 173.757 78.3417 174.345C78.1257 174.933 77.8167 175.434 77.4147 175.848C77.0187 176.262 76.5387 176.58 75.9747 176.802C75.4167 177.024 74.7957 177.135 74.1117 177.135C73.4217 177.135 72.7947 177.024 72.2307 176.802C71.6667 176.58 71.1837 176.262 70.7817 175.848C70.3857 175.434 70.0767 174.933 69.8547 174.345C69.6387 173.757 69.5307 173.097 69.5307 172.365C69.5307 171.639 69.6387 170.982 69.8547 170.394C70.0767 169.806 70.3857 169.308 70.7817 168.9C71.1837 168.492 71.6667 168.177 72.2307 167.955C72.7947 167.733 73.4217 167.622 74.1117 167.622ZM74.1117 175.425C74.8797 175.425 75.4467 175.167 75.8127 174.651C76.1847 174.135 76.3707 173.379 76.3707 172.383C76.3707 171.387 76.1847 170.628 75.8127 170.106C75.4467 169.584 74.8797 169.323 74.1117 169.323C73.3317 169.323 72.7527 169.587 72.3747 170.115C72.0027 170.637 71.8167 171.393 71.8167 172.383C71.8167 173.373 72.0027 174.129 72.3747 174.651C72.7527 175.167 73.3317 175.425 74.1117 175.425ZM82.4407 168.9C82.6267 168.714 82.8217 168.543 83.0257 168.387C83.2357 168.225 83.4547 168.09 83.6827 167.982C83.9167 167.868 84.1657 167.781 84.4297 167.721C84.6937 167.655 84.9817 167.622 85.2937 167.622C85.7977 167.622 86.2447 167.709 86.6347 167.883C87.0247 168.051 87.3487 168.291 87.6067 168.603C87.8707 168.909 88.0687 169.278 88.2007 169.71C88.3387 170.136 88.4077 170.607 88.4077 171.123V177H86.1847V171.123C86.1847 170.559 86.0557 170.124 85.7977 169.818C85.5397 169.506 85.1467 169.35 84.6187 169.35C84.2347 169.35 83.8747 169.437 83.5387 169.611C83.2027 169.785 82.8847 170.022 82.5847 170.322V177H80.3617V167.766H81.7207C82.0087 167.766 82.1977 167.901 82.2877 168.171L82.4407 168.9ZM95.3998 173.058C94.7578 173.088 94.2178 173.145 93.7798 173.229C93.3418 173.307 92.9908 173.409 92.7268 173.535C92.4628 173.661 92.2738 173.808 92.1598 173.976C92.0458 174.144 91.9888 174.327 91.9888 174.525C91.9888 174.915 92.1028 175.194 92.3308 175.362C92.5648 175.53 92.8678 175.614 93.2398 175.614C93.6958 175.614 94.0888 175.533 94.4188 175.371C94.7548 175.203 95.0818 174.951 95.3998 174.615V173.058ZM90.3058 169.053C91.3678 168.081 92.6458 167.595 94.1398 167.595C94.6798 167.595 95.1628 167.685 95.5888 167.865C96.0148 168.039 96.3748 168.285 96.6688 168.603C96.9628 168.915 97.1848 169.29 97.3348 169.728C97.4908 170.166 97.5688 170.646 97.5688 171.168V177H96.5608C96.3508 177 96.1888 176.97 96.0748 176.91C95.9608 176.844 95.8708 176.715 95.8048 176.523L95.6068 175.857C95.3728 176.067 95.1448 176.253 94.9228 176.415C94.7008 176.571 94.4698 176.703 94.2298 176.811C93.9898 176.919 93.7318 177 93.4558 177.054C93.1858 177.114 92.8858 177.144 92.5558 177.144C92.1658 177.144 91.8058 177.093 91.4758 176.991C91.1458 176.883 90.8608 176.724 90.6208 176.514C90.3808 176.304 90.1948 176.043 90.0628 175.731C89.9308 175.419 89.8648 175.056 89.8648 174.642C89.8648 174.408 89.9038 174.177 89.9818 173.949C90.0598 173.715 90.1858 173.493 90.3598 173.283C90.5398 173.073 90.7708 172.875 91.0528 172.689C91.3348 172.503 91.6798 172.341 92.0878 172.203C92.5018 172.065 92.9818 171.954 93.5278 171.87C94.0738 171.78 94.6978 171.726 95.3998 171.708V171.168C95.3998 170.55 95.2678 170.094 95.0038 169.8C94.7398 169.5 94.3588 169.35 93.8608 169.35C93.5008 169.35 93.2008 169.392 92.9608 169.476C92.7268 169.56 92.5198 169.656 92.3398 169.764C92.1598 169.866 91.9948 169.959 91.8448 170.043C91.7008 170.127 91.5388 170.169 91.3588 170.169C91.2028 170.169 91.0708 170.13 90.9628 170.052C90.8548 169.968 90.7678 169.872 90.7018 169.764L90.3058 169.053ZM101.912 163.626V177H99.6895V163.626H101.912ZM106.431 167.766V177H104.199V167.766H106.431ZM106.737 165.075C106.737 165.267 106.698 165.447 106.62 165.615C106.542 165.783 106.437 165.93 106.305 166.056C106.179 166.182 106.029 166.284 105.855 166.362C105.681 166.434 105.495 166.47 105.297 166.47C105.105 166.47 104.922 166.434 104.748 166.362C104.58 166.284 104.433 166.182 104.307 166.056C104.181 165.93 104.079 165.783 104.001 165.615C103.929 165.447 103.893 165.267 103.893 165.075C103.893 164.877 103.929 164.691 104.001 164.517C104.079 164.343 104.181 164.193 104.307 164.067C104.433 163.941 104.58 163.842 104.748 163.77C104.922 163.692 105.105 163.653 105.297 163.653C105.495 163.653 105.681 163.692 105.855 163.77C106.029 163.842 106.179 163.941 106.305 164.067C106.437 164.193 106.542 164.343 106.62 164.517C106.698 164.691 106.737 164.877 106.737 165.075ZM115.331 168.684C115.331 168.84 115.304 168.993 115.25 169.143C115.196 169.293 115.124 169.416 115.034 169.512L110.651 175.29H115.196V177H108.068V176.073C108.068 175.971 108.092 175.851 108.14 175.713C108.188 175.569 108.26 175.434 108.356 175.308L112.784 169.467H108.329V167.766H115.331V168.684ZM121.855 173.058C121.213 173.088 120.673 173.145 120.235 173.229C119.797 173.307 119.446 173.409 119.182 173.535C118.918 173.661 118.729 173.808 118.615 173.976C118.501 174.144 118.444 174.327 118.444 174.525C118.444 174.915 118.558 175.194 118.786 175.362C119.02 175.53 119.323 175.614 119.695 175.614C120.151 175.614 120.544 175.533 120.874 175.371C121.21 175.203 121.537 174.951 121.855 174.615V173.058ZM116.761 169.053C117.823 168.081 119.101 167.595 120.595 167.595C121.135 167.595 121.618 167.685 122.044 167.865C122.47 168.039 122.83 168.285 123.124 168.603C123.418 168.915 123.64 169.29 123.79 169.728C123.946 170.166 124.024 170.646 124.024 171.168V177H123.016C122.806 177 122.644 176.97 122.53 176.91C122.416 176.844 122.326 176.715 122.26 176.523L122.062 175.857C121.828 176.067 121.6 176.253 121.378 176.415C121.156 176.571 120.925 176.703 120.685 176.811C120.445 176.919 120.187 177 119.911 177.054C119.641 177.114 119.341 177.144 119.011 177.144C118.621 177.144 118.261 177.093 117.931 176.991C117.601 176.883 117.316 176.724 117.076 176.514C116.836 176.304 116.65 176.043 116.518 175.731C116.386 175.419 116.32 175.056 116.32 174.642C116.32 174.408 116.359 174.177 116.437 173.949C116.515 173.715 116.641 173.493 116.815 173.283C116.995 173.073 117.226 172.875 117.508 172.689C117.79 172.503 118.135 172.341 118.543 172.203C118.957 172.065 119.437 171.954 119.983 171.87C120.529 171.78 121.153 171.726 121.855 171.708V171.168C121.855 170.55 121.723 170.094 121.459 169.8C121.195 169.5 120.814 169.35 120.316 169.35C119.956 169.35 119.656 169.392 119.416 169.476C119.182 169.56 118.975 169.656 118.795 169.764C118.615 169.866 118.45 169.959 118.3 170.043C118.156 170.127 117.994 170.169 117.814 170.169C117.658 170.169 117.526 170.13 117.418 170.052C117.31 169.968 117.223 169.872 117.157 169.764L116.761 169.053ZM135.309 177H133.086V169.431H128.802V174.435C128.802 174.723 128.871 174.948 129.009 175.11C129.153 175.272 129.348 175.353 129.594 175.353C129.732 175.353 129.846 175.338 129.936 175.308C130.032 175.272 130.113 175.236 130.179 175.2C130.251 175.164 130.314 175.131 130.368 175.101C130.422 175.065 130.476 175.047 130.53 175.047C130.596 175.047 130.65 175.065 130.692 175.101C130.734 175.131 130.779 175.179 130.827 175.245L131.493 176.325C131.169 176.595 130.797 176.799 130.377 176.937C129.957 177.075 129.522 177.144 129.072 177.144C128.268 177.144 127.65 176.919 127.218 176.469C126.792 176.013 126.579 175.386 126.579 174.588V169.431H125.634C125.514 169.431 125.412 169.392 125.328 169.314C125.244 169.236 125.202 169.119 125.202 168.963V168.081L126.687 167.829L127.155 165.318C127.185 165.198 127.242 165.105 127.326 165.039C127.41 164.973 127.518 164.94 127.65 164.94H128.802V167.847H135.309V177ZM135.696 165.039C135.696 165.231 135.657 165.414 135.579 165.588C135.501 165.756 135.396 165.903 135.264 166.029C135.138 166.155 134.985 166.257 134.805 166.335C134.631 166.407 134.445 166.443 134.247 166.443C134.055 166.443 133.875 166.407 133.707 166.335C133.539 166.257 133.392 166.155 133.266 166.029C133.14 165.903 133.038 165.756 132.96 165.588C132.888 165.414 132.852 165.231 132.852 165.039C132.852 164.841 132.888 164.658 132.96 164.49C133.038 164.316 133.14 164.166 133.266 164.04C133.392 163.908 133.539 163.806 133.707 163.734C133.875 163.656 134.055 163.617 134.247 163.617C134.445 163.617 134.631 163.656 134.805 163.734C134.985 163.806 135.138 163.908 135.264 164.04C135.396 164.166 135.501 164.316 135.579 164.49C135.657 164.658 135.696 164.841 135.696 165.039ZM141.664 167.622C142.348 167.622 142.969 167.733 143.527 167.955C144.091 168.177 144.571 168.492 144.967 168.9C145.369 169.308 145.678 169.806 145.894 170.394C146.11 170.982 146.218 171.639 146.218 172.365C146.218 173.097 146.11 173.757 145.894 174.345C145.678 174.933 145.369 175.434 144.967 175.848C144.571 176.262 144.091 176.58 143.527 176.802C142.969 177.024 142.348 177.135 141.664 177.135C140.974 177.135 140.347 177.024 139.783 176.802C139.219 176.58 138.736 176.262 138.334 175.848C137.938 175.434 137.629 174.933 137.407 174.345C137.191 173.757 137.083 173.097 137.083 172.365C137.083 171.639 137.191 170.982 137.407 170.394C137.629 169.806 137.938 169.308 138.334 168.9C138.736 168.492 139.219 168.177 139.783 167.955C140.347 167.733 140.974 167.622 141.664 167.622ZM141.664 175.425C142.432 175.425 142.999 175.167 143.365 174.651C143.737 174.135 143.923 173.379 143.923 172.383C143.923 171.387 143.737 170.628 143.365 170.106C142.999 169.584 142.432 169.323 141.664 169.323C140.884 169.323 140.305 169.587 139.927 170.115C139.555 170.637 139.369 171.393 139.369 172.383C139.369 173.373 139.555 174.129 139.927 174.651C140.305 175.167 140.884 175.425 141.664 175.425ZM149.993 168.9C150.179 168.714 150.374 168.543 150.578 168.387C150.788 168.225 151.007 168.09 151.235 167.982C151.469 167.868 151.718 167.781 151.982 167.721C152.246 167.655 152.534 167.622 152.846 167.622C153.35 167.622 153.797 167.709 154.187 167.883C154.577 168.051 154.901 168.291 155.159 168.603C155.423 168.909 155.621 169.278 155.753 169.71C155.891 170.136 155.96 170.607 155.96 171.123V177H153.737V171.123C153.737 170.559 153.608 170.124 153.35 169.818C153.092 169.506 152.699 169.35 152.171 169.35C151.787 169.35 151.427 169.437 151.091 169.611C150.755 169.785 150.437 170.022 150.137 170.322V177H147.914V167.766H149.273C149.561 167.766 149.75 167.901 149.84 168.171L149.993 168.9Z" fill="black"/>
<path d="M68.539 227.975H64.615V239H62.194V227.975H58.27V225.986H68.539V227.975ZM70.1774 231.368C70.4654 230.816 70.8074 230.384 71.2034 230.072C71.5994 229.754 72.0674 229.595 72.6074 229.595C73.0334 229.595 73.3754 229.688 73.6334 229.874L73.4894 231.539C73.4594 231.647 73.4144 231.725 73.3544 231.773C73.3004 231.815 73.2254 231.836 73.1294 231.836C73.0394 231.836 72.9044 231.821 72.7244 231.791C72.5504 231.761 72.3794 231.746 72.2114 231.746C71.9654 231.746 71.7464 231.782 71.5544 231.854C71.3624 231.926 71.1884 232.031 71.0324 232.169C70.8824 232.301 70.7474 232.463 70.6274 232.655C70.5134 232.847 70.4054 233.066 70.3034 233.312V239H68.0804V229.766H69.3854C69.6134 229.766 69.7724 229.808 69.8624 229.892C69.9524 229.97 70.0124 230.114 70.0424 230.324L70.1774 231.368ZM82.7513 229.766V239H81.3923C81.0983 239 80.9123 238.865 80.8343 238.595L80.6813 237.857C80.3033 238.241 79.8863 238.553 79.4303 238.793C78.9743 239.027 78.4373 239.144 77.8193 239.144C77.3153 239.144 76.8683 239.06 76.4783 238.892C76.0943 238.718 75.7703 238.475 75.5063 238.163C75.2423 237.851 75.0413 237.482 74.9033 237.056C74.7713 236.624 74.7053 236.15 74.7053 235.634V229.766H76.9283V235.634C76.9283 236.198 77.0573 236.636 77.3153 236.948C77.5793 237.254 77.9723 237.407 78.4943 237.407C78.8783 237.407 79.2383 237.323 79.5743 237.155C79.9103 236.981 80.2283 236.744 80.5283 236.444V229.766H82.7513ZM90.5894 231.566C90.5294 231.662 90.4664 231.731 90.4004 231.773C90.3344 231.809 90.2504 231.827 90.1484 231.827C90.0404 231.827 89.9234 231.797 89.7974 231.737C89.6774 231.677 89.5364 231.611 89.3744 231.539C89.2124 231.461 89.0264 231.392 88.8164 231.332C88.6124 231.272 88.3694 231.242 88.0874 231.242C87.6494 231.242 87.3044 231.335 87.0524 231.521C86.8064 231.707 86.6834 231.95 86.6834 232.25C86.6834 232.448 86.7464 232.616 86.8724 232.754C87.0044 232.886 87.1754 233.003 87.3854 233.105C87.6014 233.207 87.8444 233.3 88.1144 233.384C88.3844 233.462 88.6574 233.549 88.9334 233.645C89.2154 233.741 89.4914 233.852 89.7614 233.978C90.0314 234.098 90.2714 234.254 90.4814 234.446C90.6974 234.632 90.8684 234.857 90.9944 235.121C91.1264 235.385 91.1924 235.703 91.1924 236.075C91.1924 236.519 91.1114 236.93 90.9494 237.308C90.7934 237.68 90.5594 238.004 90.2474 238.28C89.9354 238.55 89.5484 238.763 89.0864 238.919C88.6304 239.069 88.1024 239.144 87.5024 239.144C87.1844 239.144 86.8724 239.114 86.5664 239.054C86.2664 239 85.9754 238.922 85.6934 238.82C85.4174 238.718 85.1594 238.598 84.9194 238.46C84.6854 238.322 84.4784 238.172 84.2984 238.01L84.8114 237.164C84.8774 237.062 84.9554 236.984 85.0454 236.93C85.1354 236.876 85.2494 236.849 85.3874 236.849C85.5254 236.849 85.6544 236.888 85.7744 236.966C85.9004 237.044 86.0444 237.128 86.2064 237.218C86.3684 237.308 86.5574 237.392 86.7734 237.47C86.9954 237.548 87.2744 237.587 87.6104 237.587C87.8744 237.587 88.0994 237.557 88.2854 237.497C88.4774 237.431 88.6334 237.347 88.7534 237.245C88.8794 237.143 88.9694 237.026 89.0234 236.894C89.0834 236.756 89.1134 236.615 89.1134 236.471C89.1134 236.255 89.0474 236.078 88.9154 235.94C88.7894 235.802 88.6184 235.682 88.4024 235.58C88.1924 235.478 87.9494 235.388 87.6734 235.31C87.4034 235.226 87.1244 235.136 86.8364 235.04C86.5544 234.944 86.2754 234.833 85.9994 234.707C85.7294 234.575 85.4864 234.41 85.2704 234.212C85.0604 234.014 84.8894 233.771 84.7574 233.483C84.6314 233.195 84.5684 232.847 84.5684 232.439C84.5684 232.061 84.6434 231.701 84.7934 231.359C84.9434 231.017 85.1624 230.72 85.4504 230.468C85.7444 230.21 86.1074 230.006 86.5394 229.856C86.9774 229.7 87.4814 229.622 88.0514 229.622C88.6874 229.622 89.2664 229.727 89.7884 229.937C90.3104 230.147 90.7454 230.423 91.0934 230.765L90.5894 231.566ZM95.9436 239.144C95.1396 239.144 94.5216 238.919 94.0896 238.469C93.6636 238.013 93.4506 237.386 93.4506 236.588V231.431H92.5056C92.3856 231.431 92.2836 231.392 92.1996 231.314C92.1156 231.236 92.0736 231.119 92.0736 230.963V230.081L93.5586 229.838L94.0266 227.318C94.0566 227.198 94.1136 227.105 94.1976 227.039C94.2816 226.973 94.3896 226.94 94.5216 226.94H95.6736V229.847H98.1396V231.431H95.6736V236.435C95.6736 236.723 95.7426 236.948 95.8806 237.11C96.0246 237.272 96.2196 237.353 96.4656 237.353C96.6036 237.353 96.7176 237.338 96.8076 237.308C96.9036 237.272 96.9846 237.236 97.0506 237.2C97.1226 237.164 97.1856 237.131 97.2396 237.101C97.2936 237.065 97.3476 237.047 97.4016 237.047C97.4676 237.047 97.5216 237.065 97.5636 237.101C97.6056 237.131 97.6506 237.179 97.6986 237.245L98.3646 238.325C98.0406 238.595 97.6686 238.799 97.2486 238.937C96.8286 239.075 96.3936 239.144 95.9436 239.144ZM112.748 229.766L109.814 239H108.032C107.828 239 107.687 238.868 107.609 238.604L105.953 233.267C105.899 233.087 105.848 232.91 105.8 232.736C105.758 232.556 105.722 232.376 105.692 232.196C105.656 232.376 105.614 232.559 105.566 232.745C105.524 232.925 105.476 233.105 105.422 233.285L103.739 238.604C103.667 238.868 103.508 239 103.262 239H101.552L98.6268 229.766H100.4C100.562 229.766 100.7 229.805 100.814 229.883C100.928 229.961 101.003 230.06 101.039 230.18L102.362 235.112C102.428 235.382 102.485 235.646 102.533 235.904C102.587 236.162 102.632 236.42 102.668 236.678C102.734 236.42 102.803 236.162 102.875 235.904C102.953 235.646 103.034 235.382 103.118 235.112L104.648 230.162C104.684 230.042 104.753 229.943 104.855 229.865C104.963 229.787 105.092 229.748 105.242 229.748H106.223C106.379 229.748 106.511 229.787 106.619 229.865C106.733 229.943 106.808 230.042 106.844 230.162L108.329 235.112C108.407 235.382 108.479 235.649 108.545 235.913C108.617 236.171 108.686 236.429 108.752 236.687C108.83 236.177 108.941 235.652 109.085 235.112L110.444 230.18C110.486 230.06 110.561 229.961 110.669 229.883C110.777 229.805 110.906 229.766 111.056 229.766H112.748ZM117.94 229.622C118.624 229.622 119.245 229.733 119.803 229.955C120.367 230.177 120.847 230.492 121.243 230.9C121.645 231.308 121.954 231.806 122.17 232.394C122.386 232.982 122.494 233.639 122.494 234.365C122.494 235.097 122.386 235.757 122.17 236.345C121.954 236.933 121.645 237.434 121.243 237.848C120.847 238.262 120.367 238.58 119.803 238.802C119.245 239.024 118.624 239.135 117.94 239.135C117.25 239.135 116.623 239.024 116.059 238.802C115.495 238.58 115.012 238.262 114.61 237.848C114.214 237.434 113.905 236.933 113.683 236.345C113.467 235.757 113.359 235.097 113.359 234.365C113.359 233.639 113.467 232.982 113.683 232.394C113.905 231.806 114.214 231.308 114.61 230.9C115.012 230.492 115.495 230.177 116.059 229.955C116.623 229.733 117.25 229.622 117.94 229.622ZM117.94 237.425C118.708 237.425 119.275 237.167 119.641 236.651C120.013 236.135 120.199 235.379 120.199 234.383C120.199 233.387 120.013 232.628 119.641 232.106C119.275 231.584 118.708 231.323 117.94 231.323C117.16 231.323 116.581 231.587 116.203 232.115C115.831 232.637 115.645 233.393 115.645 234.383C115.645 235.373 115.831 236.129 116.203 236.651C116.581 237.167 117.16 237.425 117.94 237.425ZM126.287 231.368C126.575 230.816 126.917 230.384 127.313 230.072C127.709 229.754 128.177 229.595 128.717 229.595C129.143 229.595 129.485 229.688 129.743 229.874L129.599 231.539C129.569 231.647 129.524 231.725 129.464 231.773C129.41 231.815 129.335 231.836 129.239 231.836C129.149 231.836 129.014 231.821 128.834 231.791C128.66 231.761 128.489 231.746 128.321 231.746C128.075 231.746 127.856 231.782 127.664 231.854C127.472 231.926 127.298 232.031 127.142 232.169C126.992 232.301 126.857 232.463 126.737 232.655C126.623 232.847 126.515 233.066 126.413 233.312V239H124.19V229.766H125.495C125.723 229.766 125.882 229.808 125.972 229.892C126.062 229.97 126.122 230.114 126.152 230.324L126.287 231.368ZM133.983 239.144C133.179 239.144 132.561 238.919 132.129 238.469C131.703 238.013 131.49 237.386 131.49 236.588V231.431H130.545C130.425 231.431 130.323 231.392 130.239 231.314C130.155 231.236 130.113 231.119 130.113 230.963V230.081L131.598 229.838L132.066 227.318C132.096 227.198 132.153 227.105 132.237 227.039C132.321 226.973 132.429 226.94 132.561 226.94H133.713V229.847H136.179V231.431H133.713V236.435C133.713 236.723 133.782 236.948 133.92 237.11C134.064 237.272 134.259 237.353 134.505 237.353C134.643 237.353 134.757 237.338 134.847 237.308C134.943 237.272 135.024 237.236 135.09 237.2C135.162 237.164 135.225 237.131 135.279 237.101C135.333 237.065 135.387 237.047 135.441 237.047C135.507 237.047 135.561 237.065 135.603 237.101C135.645 237.131 135.69 237.179 135.738 237.245L136.404 238.325C136.08 238.595 135.708 238.799 135.288 238.937C134.868 239.075 134.433 239.144 133.983 239.144ZM139.825 230.756C140.185 230.42 140.581 230.147 141.013 229.937C141.445 229.727 141.952 229.622 142.534 229.622C143.038 229.622 143.485 229.709 143.875 229.883C144.265 230.051 144.589 230.291 144.847 230.603C145.111 230.909 145.309 231.278 145.441 231.71C145.579 232.136 145.648 232.607 145.648 233.123V239H143.425V233.123C143.425 232.559 143.296 232.124 143.038 231.818C142.78 231.506 142.387 231.35 141.859 231.35C141.475 231.35 141.115 231.437 140.779 231.611C140.443 231.785 140.125 232.022 139.825 232.322V239H137.602V225.626H139.825V230.756ZM155.904 229.766L150.873 241.538C150.807 241.694 150.72 241.811 150.612 241.889C150.51 241.973 150.351 242.015 150.135 242.015H148.479L150.207 238.307L146.472 229.766H148.425C148.599 229.766 148.734 229.808 148.83 229.892C148.932 229.976 149.007 230.072 149.055 230.18L151.017 234.968C151.083 235.13 151.137 235.292 151.179 235.454C151.227 235.616 151.272 235.781 151.314 235.949C151.368 235.781 151.422 235.616 151.476 235.454C151.53 235.286 151.59 235.121 151.656 234.959L153.51 230.18C153.558 230.06 153.636 229.961 153.744 229.883C153.858 229.805 153.984 229.766 154.122 229.766H155.904Z" fill="black"/>
<path d="M83.005 293.493C83.005 294.447 82.846 295.323 82.528 296.121C82.21 296.919 81.763 297.606 81.187 298.182C80.611 298.758 79.918 299.205 79.108 299.523C78.298 299.841 77.398 300 76.408 300H71.449V286.986H76.408C77.398 286.986 78.298 287.148 79.108 287.472C79.918 287.79 80.611 288.237 81.187 288.813C81.763 289.383 82.21 290.067 82.528 290.865C82.846 291.663 83.005 292.539 83.005 293.493ZM80.521 293.493C80.521 292.779 80.425 292.14 80.233 291.576C80.047 291.006 79.774 290.526 79.414 290.136C79.06 289.74 78.628 289.437 78.118 289.227C77.614 289.017 77.044 288.912 76.408 288.912H73.879V298.074H76.408C77.044 298.074 77.614 297.969 78.118 297.759C78.628 297.549 79.06 297.249 79.414 296.859C79.774 296.463 80.047 295.983 80.233 295.419C80.425 294.849 80.521 294.207 80.521 293.493ZM86.9372 290.766V300H84.7052V290.766H86.9372ZM87.2432 288.075C87.2432 288.267 87.2042 288.447 87.1262 288.615C87.0482 288.783 86.9432 288.93 86.8112 289.056C86.6852 289.182 86.5352 289.284 86.3612 289.362C86.1872 289.434 86.0012 289.47 85.8032 289.47C85.6112 289.47 85.4282 289.434 85.2542 289.362C85.0862 289.284 84.9392 289.182 84.8132 289.056C84.6872 288.93 84.5852 288.783 84.5072 288.615C84.4352 288.447 84.3992 288.267 84.3992 288.075C84.3992 287.877 84.4352 287.691 84.5072 287.517C84.5852 287.343 84.6872 287.193 84.8132 287.067C84.9392 286.941 85.0862 286.842 85.2542 286.77C85.4282 286.692 85.6112 286.653 85.8032 286.653C86.0012 286.653 86.1872 286.692 86.3612 286.77C86.5352 286.842 86.6852 286.941 86.8112 287.067C86.9432 287.193 87.0482 287.343 87.1262 287.517C87.2042 287.691 87.2432 287.877 87.2432 288.075ZM94.8375 292.566C94.7775 292.662 94.7145 292.731 94.6485 292.773C94.5825 292.809 94.4985 292.827 94.3965 292.827C94.2885 292.827 94.1715 292.797 94.0455 292.737C93.9255 292.677 93.7845 292.611 93.6225 292.539C93.4605 292.461 93.2745 292.392 93.0645 292.332C92.8605 292.272 92.6175 292.242 92.3355 292.242C91.8975 292.242 91.5525 292.335 91.3005 292.521C91.0545 292.707 90.9315 292.95 90.9315 293.25C90.9315 293.448 90.9945 293.616 91.1205 293.754C91.2525 293.886 91.4235 294.003 91.6335 294.105C91.8495 294.207 92.0925 294.3 92.3625 294.384C92.6325 294.462 92.9055 294.549 93.1815 294.645C93.4635 294.741 93.7395 294.852 94.0095 294.978C94.2795 295.098 94.5195 295.254 94.7295 295.446C94.9455 295.632 95.1165 295.857 95.2425 296.121C95.3745 296.385 95.4405 296.703 95.4405 297.075C95.4405 297.519 95.3595 297.93 95.1975 298.308C95.0415 298.68 94.8075 299.004 94.4955 299.28C94.1835 299.55 93.7965 299.763 93.3345 299.919C92.8785 300.069 92.3505 300.144 91.7505 300.144C91.4325 300.144 91.1205 300.114 90.8145 300.054C90.5145 300 90.2235 299.922 89.9415 299.82C89.6655 299.718 89.4075 299.598 89.1675 299.46C88.9335 299.322 88.7265 299.172 88.5465 299.01L89.0595 298.164C89.1255 298.062 89.2035 297.984 89.2935 297.93C89.3835 297.876 89.4975 297.849 89.6355 297.849C89.7735 297.849 89.9025 297.888 90.0225 297.966C90.1485 298.044 90.2925 298.128 90.4545 298.218C90.6165 298.308 90.8055 298.392 91.0215 298.47C91.2435 298.548 91.5225 298.587 91.8585 298.587C92.1225 298.587 92.3475 298.557 92.5335 298.497C92.7255 298.431 92.8815 298.347 93.0015 298.245C93.1275 298.143 93.2175 298.026 93.2715 297.894C93.3315 297.756 93.3615 297.615 93.3615 297.471C93.3615 297.255 93.2955 297.078 93.1635 296.94C93.0375 296.802 92.8665 296.682 92.6505 296.58C92.4405 296.478 92.1975 296.388 91.9215 296.31C91.6515 296.226 91.3725 296.136 91.0845 296.04C90.8025 295.944 90.5235 295.833 90.2475 295.707C89.9775 295.575 89.7345 295.41 89.5185 295.212C89.3085 295.014 89.1375 294.771 89.0055 294.483C88.8795 294.195 88.8165 293.847 88.8165 293.439C88.8165 293.061 88.8915 292.701 89.0415 292.359C89.1915 292.017 89.4105 291.72 89.6985 291.468C89.9925 291.21 90.3555 291.006 90.7875 290.856C91.2255 290.7 91.7295 290.622 92.2995 290.622C92.9355 290.622 93.5145 290.727 94.0365 290.937C94.5585 291.147 94.9935 291.423 95.3415 291.765L94.8375 292.566ZM103.729 292.719C103.663 292.803 103.597 292.869 103.531 292.917C103.471 292.965 103.381 292.989 103.261 292.989C103.147 292.989 103.036 292.956 102.928 292.89C102.82 292.818 102.691 292.74 102.541 292.656C102.391 292.566 102.211 292.488 102.001 292.422C101.797 292.35 101.542 292.314 101.236 292.314C100.846 292.314 100.504 292.386 100.21 292.53C99.9156 292.668 99.6696 292.869 99.4716 293.133C99.2796 293.397 99.1356 293.718 99.0396 294.096C98.9436 294.468 98.8956 294.891 98.8956 295.365C98.8956 295.857 98.9466 296.295 99.0486 296.679C99.1566 297.063 99.3096 297.387 99.5076 297.651C99.7056 297.909 99.9456 298.107 100.228 298.245C100.51 298.377 100.828 298.443 101.182 298.443C101.536 298.443 101.821 298.401 102.037 298.317C102.259 298.227 102.445 298.131 102.595 298.029C102.745 297.921 102.874 297.825 102.982 297.741C103.096 297.651 103.222 297.606 103.36 297.606C103.54 297.606 103.675 297.675 103.765 297.813L104.404 298.623C104.158 298.911 103.891 299.154 103.603 299.352C103.315 299.544 103.015 299.7 102.703 299.82C102.397 299.934 102.079 300.015 101.749 300.063C101.425 300.111 101.101 300.135 100.777 300.135C100.207 300.135 99.6696 300.03 99.1656 299.82C98.6616 299.604 98.2206 299.292 97.8426 298.884C97.4646 298.476 97.1646 297.978 96.9426 297.39C96.7266 296.796 96.6186 296.121 96.6186 295.365C96.6186 294.687 96.7146 294.06 96.9066 293.484C97.1046 292.902 97.3926 292.401 97.7706 291.981C98.1486 291.555 98.6166 291.222 99.1746 290.982C99.7326 290.742 100.375 290.622 101.101 290.622C101.791 290.622 102.394 290.733 102.91 290.955C103.432 291.177 103.9 291.495 104.314 291.909L103.729 292.719ZM113.753 290.766V300H112.394C112.1 300 111.914 299.865 111.836 299.595L111.683 298.857C111.305 299.241 110.888 299.553 110.432 299.793C109.976 300.027 109.439 300.144 108.821 300.144C108.317 300.144 107.87 300.06 107.48 299.892C107.096 299.718 106.772 299.475 106.508 299.163C106.244 298.851 106.043 298.482 105.905 298.056C105.773 297.624 105.707 297.15 105.707 296.634V290.766H107.93V296.634C107.93 297.198 108.059 297.636 108.317 297.948C108.581 298.254 108.974 298.407 109.496 298.407C109.88 298.407 110.24 298.323 110.576 298.155C110.912 297.981 111.23 297.744 111.53 297.444V290.766H113.753ZM121.591 292.566C121.531 292.662 121.468 292.731 121.402 292.773C121.336 292.809 121.252 292.827 121.15 292.827C121.042 292.827 120.925 292.797 120.799 292.737C120.679 292.677 120.538 292.611 120.376 292.539C120.214 292.461 120.028 292.392 119.818 292.332C119.614 292.272 119.371 292.242 119.089 292.242C118.651 292.242 118.306 292.335 118.054 292.521C117.808 292.707 117.685 292.95 117.685 293.25C117.685 293.448 117.748 293.616 117.874 293.754C118.006 293.886 118.177 294.003 118.387 294.105C118.603 294.207 118.846 294.3 119.116 294.384C119.386 294.462 119.659 294.549 119.935 294.645C120.217 294.741 120.493 294.852 120.763 294.978C121.033 295.098 121.273 295.254 121.483 295.446C121.699 295.632 121.87 295.857 121.996 296.121C122.128 296.385 122.194 296.703 122.194 297.075C122.194 297.519 122.113 297.93 121.951 298.308C121.795 298.68 121.561 299.004 121.249 299.28C120.937 299.55 120.55 299.763 120.088 299.919C119.632 300.069 119.104 300.144 118.504 300.144C118.186 300.144 117.874 300.114 117.568 300.054C117.268 300 116.977 299.922 116.695 299.82C116.419 299.718 116.161 299.598 115.921 299.46C115.687 299.322 115.48 299.172 115.3 299.01L115.813 298.164C115.879 298.062 115.957 297.984 116.047 297.93C116.137 297.876 116.251 297.849 116.389 297.849C116.527 297.849 116.656 297.888 116.776 297.966C116.902 298.044 117.046 298.128 117.208 298.218C117.37 298.308 117.559 298.392 117.775 298.47C117.997 298.548 118.276 298.587 118.612 298.587C118.876 298.587 119.101 298.557 119.287 298.497C119.479 298.431 119.635 298.347 119.755 298.245C119.881 298.143 119.971 298.026 120.025 297.894C120.085 297.756 120.115 297.615 120.115 297.471C120.115 297.255 120.049 297.078 119.917 296.94C119.791 296.802 119.62 296.682 119.404 296.58C119.194 296.478 118.951 296.388 118.675 296.31C118.405 296.226 118.126 296.136 117.838 296.04C117.556 295.944 117.277 295.833 117.001 295.707C116.731 295.575 116.488 295.41 116.272 295.212C116.062 295.014 115.891 294.771 115.759 294.483C115.633 294.195 115.57 293.847 115.57 293.439C115.57 293.061 115.645 292.701 115.795 292.359C115.945 292.017 116.164 291.72 116.452 291.468C116.746 291.21 117.109 291.006 117.541 290.856C117.979 290.7 118.483 290.622 119.053 290.622C119.689 290.622 120.268 290.727 120.79 290.937C121.312 291.147 121.747 291.423 122.095 291.765L121.591 292.566ZM129.502 292.566C129.442 292.662 129.379 292.731 129.313 292.773C129.247 292.809 129.163 292.827 129.061 292.827C128.953 292.827 128.836 292.797 128.71 292.737C128.59 292.677 128.449 292.611 128.287 292.539C128.125 292.461 127.939 292.392 127.729 292.332C127.525 292.272 127.282 292.242 127 292.242C126.562 292.242 126.217 292.335 125.965 292.521C125.719 292.707 125.596 292.95 125.596 293.25C125.596 293.448 125.659 293.616 125.785 293.754C125.917 293.886 126.088 294.003 126.298 294.105C126.514 294.207 126.757 294.3 127.027 294.384C127.297 294.462 127.57 294.549 127.846 294.645C128.128 294.741 128.404 294.852 128.674 294.978C128.944 295.098 129.184 295.254 129.394 295.446C129.61 295.632 129.781 295.857 129.907 296.121C130.039 296.385 130.105 296.703 130.105 297.075C130.105 297.519 130.024 297.93 129.862 298.308C129.706 298.68 129.472 299.004 129.16 299.28C128.848 299.55 128.461 299.763 127.999 299.919C127.543 300.069 127.015 300.144 126.415 300.144C126.097 300.144 125.785 300.114 125.479 300.054C125.179 300 124.888 299.922 124.606 299.82C124.33 299.718 124.072 299.598 123.832 299.46C123.598 299.322 123.391 299.172 123.211 299.01L123.724 298.164C123.79 298.062 123.868 297.984 123.958 297.93C124.048 297.876 124.162 297.849 124.3 297.849C124.438 297.849 124.567 297.888 124.687 297.966C124.813 298.044 124.957 298.128 125.119 298.218C125.281 298.308 125.47 298.392 125.686 298.47C125.908 298.548 126.187 298.587 126.523 298.587C126.787 298.587 127.012 298.557 127.198 298.497C127.39 298.431 127.546 298.347 127.666 298.245C127.792 298.143 127.882 298.026 127.936 297.894C127.996 297.756 128.026 297.615 128.026 297.471C128.026 297.255 127.96 297.078 127.828 296.94C127.702 296.802 127.531 296.682 127.315 296.58C127.105 296.478 126.862 296.388 126.586 296.31C126.316 296.226 126.037 296.136 125.749 296.04C125.467 295.944 125.188 295.833 124.912 295.707C124.642 295.575 124.399 295.41 124.183 295.212C123.973 295.014 123.802 294.771 123.67 294.483C123.544 294.195 123.481 293.847 123.481 293.439C123.481 293.061 123.556 292.701 123.706 292.359C123.856 292.017 124.075 291.72 124.363 291.468C124.657 291.21 125.02 291.006 125.452 290.856C125.89 290.7 126.394 290.622 126.964 290.622C127.6 290.622 128.179 290.727 128.701 290.937C129.223 291.147 129.658 291.423 130.006 291.765L129.502 292.566ZM134.082 290.766V300H131.85V290.766H134.082ZM134.388 288.075C134.388 288.267 134.349 288.447 134.271 288.615C134.193 288.783 134.088 288.93 133.956 289.056C133.83 289.182 133.68 289.284 133.506 289.362C133.332 289.434 133.146 289.47 132.948 289.47C132.756 289.47 132.573 289.434 132.399 289.362C132.231 289.284 132.084 289.182 131.958 289.056C131.832 288.93 131.73 288.783 131.652 288.615C131.58 288.447 131.544 288.267 131.544 288.075C131.544 287.877 131.58 287.691 131.652 287.517C131.73 287.343 131.832 287.193 131.958 287.067C132.084 286.941 132.231 286.842 132.399 286.77C132.573 286.692 132.756 286.653 132.948 286.653C133.146 286.653 133.332 286.692 133.506 286.77C133.68 286.842 133.83 286.941 133.956 287.067C134.088 287.193 134.193 287.343 134.271 287.517C134.349 287.691 134.388 287.877 134.388 288.075ZM140.434 290.622C141.118 290.622 141.739 290.733 142.297 290.955C142.861 291.177 143.341 291.492 143.737 291.9C144.139 292.308 144.448 292.806 144.664 293.394C144.88 293.982 144.988 294.639 144.988 295.365C144.988 296.097 144.88 296.757 144.664 297.345C144.448 297.933 144.139 298.434 143.737 298.848C143.341 299.262 142.861 299.58 142.297 299.802C141.739 300.024 141.118 300.135 140.434 300.135C139.744 300.135 139.117 300.024 138.553 299.802C137.989 299.58 137.506 299.262 137.104 298.848C136.708 298.434 136.399 297.933 136.177 297.345C135.961 296.757 135.853 296.097 135.853 295.365C135.853 294.639 135.961 293.982 136.177 293.394C136.399 292.806 136.708 292.308 137.104 291.9C137.506 291.492 137.989 291.177 138.553 290.955C139.117 290.733 139.744 290.622 140.434 290.622ZM140.434 298.425C141.202 298.425 141.769 298.167 142.135 297.651C142.507 297.135 142.693 296.379 142.693 295.383C142.693 294.387 142.507 293.628 142.135 293.106C141.769 292.584 141.202 292.323 140.434 292.323C139.654 292.323 139.075 292.587 138.697 293.115C138.325 293.637 138.139 294.393 138.139 295.383C138.139 296.373 138.325 297.129 138.697 297.651C139.075 298.167 139.654 298.425 140.434 298.425ZM148.763 291.9C148.949 291.714 149.144 291.543 149.348 291.387C149.558 291.225 149.777 291.09 150.005 290.982C150.239 290.868 150.488 290.781 150.752 290.721C151.016 290.655 151.304 290.622 151.616 290.622C152.12 290.622 152.567 290.709 152.957 290.883C153.347 291.051 153.671 291.291 153.929 291.603C154.193 291.909 154.391 292.278 154.523 292.71C154.661 293.136 154.73 293.607 154.73 294.123V300H152.507V294.123C152.507 293.559 152.378 293.124 152.12 292.818C151.862 292.506 151.469 292.35 150.941 292.35C150.557 292.35 150.197 292.437 149.861 292.611C149.525 292.785 149.207 293.022 148.907 293.322V300H146.684V290.766H148.043C148.331 290.766 148.52 290.901 148.61 291.171L148.763 291.9Z" fill="black"/>
<path d="M131.072 359.002V361H123.449V347.986H125.87V359.002H131.072ZM134.754 351.766V361H132.522V351.766H134.754ZM135.06 349.075C135.06 349.267 135.021 349.447 134.943 349.615C134.865 349.783 134.76 349.93 134.628 350.056C134.502 350.182 134.352 350.284 134.178 350.362C134.004 350.434 133.818 350.47 133.62 350.47C133.428 350.47 133.245 350.434 133.071 350.362C132.903 350.284 132.756 350.182 132.63 350.056C132.504 349.93 132.402 349.783 132.324 349.615C132.252 349.447 132.216 349.267 132.216 349.075C132.216 348.877 132.252 348.691 132.324 348.517C132.402 348.343 132.504 348.193 132.63 348.067C132.756 347.941 132.903 347.842 133.071 347.77C133.245 347.692 133.428 347.653 133.62 347.653C133.818 347.653 134.004 347.692 134.178 347.77C134.352 347.842 134.502 347.941 134.628 348.067C134.76 348.193 134.865 348.343 134.943 348.517C135.021 348.691 135.06 348.877 135.06 349.075ZM145.345 351.766L141.682 361H139.666L136.003 351.766H137.839C138.007 351.766 138.145 351.805 138.253 351.883C138.367 351.961 138.442 352.06 138.478 352.18L140.26 357.112C140.356 357.4 140.44 357.682 140.512 357.958C140.584 358.234 140.647 358.51 140.701 358.786C140.761 358.51 140.827 358.234 140.899 357.958C140.971 357.682 141.058 357.4 141.16 357.112L142.978 352.18C143.02 352.06 143.095 351.961 143.203 351.883C143.311 351.805 143.44 351.766 143.59 351.766H145.345ZM152.197 355.321C152.197 355.033 152.155 354.763 152.071 354.511C151.993 354.253 151.873 354.028 151.711 353.836C151.549 353.644 151.342 353.494 151.09 353.386C150.844 353.272 150.556 353.215 150.226 353.215C149.584 353.215 149.077 353.398 148.705 353.764C148.339 354.13 148.105 354.649 148.003 355.321H152.197ZM147.958 356.662C147.994 357.136 148.078 357.547 148.21 357.895C148.342 358.237 148.516 358.522 148.732 358.75C148.948 358.972 149.203 359.14 149.497 359.254C149.797 359.362 150.127 359.416 150.487 359.416C150.847 359.416 151.156 359.374 151.414 359.29C151.678 359.206 151.906 359.113 152.098 359.011C152.296 358.909 152.467 358.816 152.611 358.732C152.761 358.648 152.905 358.606 153.043 358.606C153.229 358.606 153.367 358.675 153.457 358.813L154.096 359.623C153.85 359.911 153.574 360.154 153.268 360.352C152.962 360.544 152.641 360.7 152.305 360.82C151.975 360.934 151.636 361.015 151.288 361.063C150.946 361.111 150.613 361.135 150.289 361.135C149.647 361.135 149.05 361.03 148.498 360.82C147.946 360.604 147.466 360.289 147.058 359.875C146.65 359.455 146.329 358.939 146.095 358.327C145.861 357.709 145.744 356.995 145.744 356.185C145.744 355.555 145.846 354.964 146.05 354.412C146.254 353.854 146.545 353.371 146.923 352.963C147.307 352.549 147.772 352.222 148.318 351.982C148.87 351.742 149.491 351.622 150.181 351.622C150.763 351.622 151.3 351.715 151.792 351.901C152.284 352.087 152.707 352.36 153.061 352.72C153.415 353.074 153.691 353.512 153.889 354.034C154.093 354.55 154.195 355.141 154.195 355.807C154.195 356.143 154.159 356.371 154.087 356.491C154.015 356.605 153.877 356.662 153.673 356.662H147.958Z" fill="black"/>
<line x1="26" y1="83.5" x2="627" y2="83.4999" stroke="#092A60"/>
<line x1="26" y1="143.5" x2="627" y2="143.5" stroke="#092A60"/>
<line x1="26" y1="203.5" x2="627" y2="203.5" stroke="#092A60"/>
<line x1="26" y1="263.5" x2="627" y2="263.5" stroke="#092A60"/>
<line x1="26" y1="323.5" x2="627" y2="323.5" stroke="#092A60"/>
<line x1="26" y1="383.5" x2="627" y2="383.5" stroke="#092A60"/>
<line x1="174.5" y1="434" x2="174.5" y2="25" stroke="#092A60"/>
<line x1="324.5" y1="434" x2="324.5" y2="25" stroke="#092A60"/>
<line x1="474.5" y1="434" x2="474.5" y2="25" stroke="#092A60"/>
<circle cx="248" cy="113" r="10" fill="#EC9E2A"/>
<circle cx="399" cy="234" r="10" fill="#2AA6EC"/>
<circle cx="399" cy="355" r="10" fill="#2AA6EC"/>
<circle cx="399" cy="113" r="10" fill="#2AA6EC"/>
<circle cx="548" cy="234" r="10" fill="#5D2AEC"/>
<circle cx="248" cy="173" r="10" fill="#EC9E2A"/>
<circle cx="248" cy="292" r="10" fill="#EC9E2A"/>
<circle cx="548" cy="355" r="10" fill="#5D2AEC"/>
</svg>
