<svg width="711" height="440" viewBox="0 0 711 440" fill="none" xmlns="http://www.w3.org/2000/svg">
<path d="M36.06 155.1C36.6133 155.1 37.1 155.027 37.52 154.88C37.9467 154.733 38.3033 154.53 38.59 154.27C38.8833 154.003 39.1033 153.687 39.25 153.32C39.3967 152.953 39.47 152.55 39.47 152.11C39.47 151.197 39.1867 150.483 38.62 149.97C38.06 149.457 37.2067 149.2 36.06 149.2H33.76V155.1H36.06ZM36.06 147.67C36.9667 147.67 37.7533 147.777 38.42 147.99C39.0933 148.197 39.65 148.493 40.09 148.88C40.53 149.267 40.8567 149.733 41.07 150.28C41.29 150.827 41.4 151.437 41.4 152.11C41.4 152.777 41.2833 153.387 41.05 153.94C40.8167 154.493 40.4733 154.97 40.02 155.37C39.5733 155.77 39.0167 156.083 38.35 156.31C37.69 156.53 36.9267 156.64 36.06 156.64H33.76V162H31.83V147.67H36.06ZM45.2431 151.87V162H43.4631V151.87H45.2431ZM45.6231 148.69C45.6231 148.863 45.5865 149.027 45.5131 149.18C45.4465 149.327 45.3531 149.46 45.2331 149.58C45.1198 149.693 44.9831 149.783 44.8231 149.85C44.6698 149.917 44.5065 149.95 44.3331 149.95C44.1598 149.95 43.9965 149.917 43.8431 149.85C43.6965 149.783 43.5665 149.693 43.4531 149.58C43.3398 149.46 43.2498 149.327 43.1831 149.18C43.1165 149.027 43.0831 148.863 43.0831 148.69C43.0831 148.517 43.1165 148.353 43.1831 148.2C43.2498 148.04 43.3398 147.903 43.4531 147.79C43.5665 147.67 43.6965 147.577 43.8431 147.51C43.9965 147.443 44.1598 147.41 44.3331 147.41C44.5065 147.41 44.6698 147.443 44.8231 147.51C44.9831 147.577 45.1198 147.67 45.2331 147.79C45.3531 147.903 45.4465 148.04 45.5131 148.2C45.5865 148.353 45.6231 148.517 45.6231 148.69ZM55.2178 153.67C55.1645 153.743 55.1111 153.8 55.0578 153.84C55.0045 153.88 54.9311 153.9 54.8378 153.9C54.7378 153.9 54.6278 153.86 54.5078 153.78C54.3878 153.693 54.2378 153.6 54.0578 153.5C53.8845 153.4 53.6678 153.31 53.4078 153.23C53.1545 153.143 52.8411 153.1 52.4678 153.1C51.9678 153.1 51.5278 153.19 51.1478 153.37C50.7678 153.543 50.4478 153.797 50.1878 154.13C49.9345 154.463 49.7411 154.867 49.6078 155.34C49.4811 155.813 49.4178 156.343 49.4178 156.93C49.4178 157.543 49.4878 158.09 49.6278 158.57C49.7678 159.043 49.9645 159.443 50.2178 159.77C50.4778 160.09 50.7878 160.337 51.1478 160.51C51.5145 160.677 51.9245 160.76 52.3778 160.76C52.8111 160.76 53.1678 160.71 53.4478 160.61C53.7278 160.503 53.9578 160.387 54.1378 160.26C54.3245 160.133 54.4778 160.02 54.5978 159.92C54.7245 159.813 54.8478 159.76 54.9678 159.76C55.1145 159.76 55.2278 159.817 55.3078 159.93L55.8078 160.58C55.5878 160.853 55.3378 161.087 55.0578 161.28C54.7778 161.473 54.4745 161.637 54.1478 161.77C53.8278 161.897 53.4911 161.99 53.1378 162.05C52.7845 162.11 52.4245 162.14 52.0578 162.14C51.4245 162.14 50.8345 162.023 50.2878 161.79C49.7478 161.557 49.2778 161.22 48.8778 160.78C48.4778 160.333 48.1645 159.787 47.9378 159.14C47.7111 158.493 47.5978 157.757 47.5978 156.93C47.5978 156.177 47.7011 155.48 47.9078 154.84C48.1211 154.2 48.4278 153.65 48.8278 153.19C49.2345 152.723 49.7311 152.36 50.3178 152.1C50.9111 151.84 51.5911 151.71 52.3578 151.71C53.0711 151.71 53.6978 151.827 54.2378 152.06C54.7845 152.287 55.2678 152.61 55.6878 153.03L55.2178 153.67ZM60.8286 162.16C60.0286 162.16 59.4119 161.937 58.9786 161.49C58.5519 161.043 58.3386 160.4 58.3386 159.56V153.36H57.1186C57.0119 153.36 56.9219 153.33 56.8486 153.27C56.7753 153.203 56.7386 153.103 56.7386 152.97V152.26L58.3986 152.05L58.8086 148.92C58.8286 148.82 58.8719 148.74 58.9386 148.68C59.0119 148.613 59.1053 148.58 59.2186 148.58H60.1186V152.07H63.0486V153.36H60.1186V159.44C60.1186 159.867 60.2219 160.183 60.4286 160.39C60.6353 160.597 60.9019 160.7 61.2286 160.7C61.4153 160.7 61.5753 160.677 61.7086 160.63C61.8486 160.577 61.9686 160.52 62.0686 160.46C62.1686 160.4 62.2519 160.347 62.3186 160.3C62.3919 160.247 62.4553 160.22 62.5086 160.22C62.6019 160.22 62.6853 160.277 62.7586 160.39L63.2786 161.24C62.9719 161.527 62.6019 161.753 62.1686 161.92C61.7353 162.08 61.2886 162.16 60.8286 162.16ZM73.2166 151.87V162H72.1566C71.9032 162 71.7432 161.877 71.6766 161.63L71.5366 160.54C71.0966 161.027 70.6032 161.42 70.0566 161.72C69.5099 162.013 68.8832 162.16 68.1766 162.16C67.6232 162.16 67.1332 162.07 66.7066 161.89C66.2866 161.703 65.9332 161.443 65.6466 161.11C65.3599 160.777 65.1432 160.373 64.9966 159.9C64.8566 159.427 64.7866 158.903 64.7866 158.33V151.87H66.5666V158.33C66.5666 159.097 66.7399 159.69 67.0866 160.11C67.4399 160.53 67.9766 160.74 68.6966 160.74C69.2232 160.74 69.7132 160.617 70.1666 160.37C70.6266 160.117 71.0499 159.77 71.4366 159.33V151.87H73.2166ZM77.7289 153.9C78.0489 153.207 78.4422 152.667 78.9089 152.28C79.3756 151.887 79.9456 151.69 80.6189 151.69C80.8322 151.69 81.0356 151.713 81.2289 151.76C81.4289 151.807 81.6056 151.88 81.7589 151.98L81.6289 153.31C81.5889 153.477 81.4889 153.56 81.3289 153.56C81.2356 153.56 81.0989 153.54 80.9189 153.5C80.7389 153.46 80.5356 153.44 80.3089 153.44C79.9889 153.44 79.7022 153.487 79.4489 153.58C79.2022 153.673 78.9789 153.813 78.7789 154C78.5856 154.18 78.4089 154.407 78.2489 154.68C78.0956 154.947 77.9556 155.253 77.8289 155.6V162H76.0389V151.87H77.0589C77.2522 151.87 77.3856 151.907 77.4589 151.98C77.5322 152.053 77.5822 152.18 77.6089 152.36L77.7289 153.9ZM89.6939 155.83C89.6939 155.417 89.6339 155.04 89.5139 154.7C89.4006 154.353 89.2306 154.057 89.0039 153.81C88.7839 153.557 88.5139 153.363 88.1939 153.23C87.8739 153.09 87.5106 153.02 87.1039 153.02C86.2506 153.02 85.5739 153.27 85.0739 153.77C84.5806 154.263 84.2739 154.95 84.1539 155.83H89.6939ZM91.1339 160.58C90.9139 160.847 90.6506 161.08 90.3439 161.28C90.0372 161.473 89.7072 161.633 89.3539 161.76C89.0072 161.887 88.6472 161.98 88.2739 162.04C87.9006 162.107 87.5306 162.14 87.1639 162.14C86.4639 162.14 85.8172 162.023 85.2239 161.79C84.6372 161.55 84.1272 161.203 83.6939 160.75C83.2672 160.29 82.9339 159.723 82.6939 159.05C82.4539 158.377 82.3339 157.603 82.3339 156.73C82.3339 156.023 82.4406 155.363 82.6539 154.75C82.8739 154.137 83.1872 153.607 83.5939 153.16C84.0006 152.707 84.4972 152.353 85.0839 152.1C85.6706 151.84 86.3306 151.71 87.0639 151.71C87.6706 151.71 88.2306 151.813 88.7439 152.02C89.2639 152.22 89.7106 152.513 90.0839 152.9C90.4639 153.28 90.7606 153.753 90.9739 154.32C91.1872 154.88 91.2939 155.52 91.2939 156.24C91.2939 156.52 91.2639 156.707 91.2039 156.8C91.1439 156.893 91.0306 156.94 90.8639 156.94H84.0939C84.1139 157.58 84.2006 158.137 84.3539 158.61C84.5139 159.083 84.7339 159.48 85.0139 159.8C85.2939 160.113 85.6272 160.35 86.0139 160.51C86.4006 160.663 86.8339 160.74 87.3139 160.74C87.7606 160.74 88.1439 160.69 88.4639 160.59C88.7906 160.483 89.0706 160.37 89.3039 160.25C89.5372 160.13 89.7306 160.02 89.8839 159.92C90.0439 159.813 90.1806 159.76 90.2939 159.76C90.4406 159.76 90.5539 159.817 90.6339 159.93L91.1339 160.58ZM99.3803 153.54C99.3003 153.687 99.177 153.76 99.0103 153.76C98.9103 153.76 98.797 153.723 98.6703 153.65C98.5436 153.577 98.387 153.497 98.2003 153.41C98.0203 153.317 97.8036 153.233 97.5503 153.16C97.297 153.08 96.997 153.04 96.6503 153.04C96.3503 153.04 96.0803 153.08 95.8403 153.16C95.6003 153.233 95.3936 153.337 95.2203 153.47C95.0536 153.603 94.9236 153.76 94.8303 153.94C94.7436 154.113 94.7003 154.303 94.7003 154.51C94.7003 154.77 94.7736 154.987 94.9203 155.16C95.0736 155.333 95.2736 155.483 95.5203 155.61C95.767 155.737 96.047 155.85 96.3603 155.95C96.6736 156.043 96.9936 156.147 97.3203 156.26C97.6536 156.367 97.977 156.487 98.2903 156.62C98.6036 156.753 98.8836 156.92 99.1303 157.12C99.377 157.32 99.5736 157.567 99.7203 157.86C99.8736 158.147 99.9503 158.493 99.9503 158.9C99.9503 159.367 99.867 159.8 99.7003 160.2C99.5336 160.593 99.287 160.937 98.9603 161.23C98.6336 161.517 98.2336 161.743 97.7603 161.91C97.287 162.077 96.7403 162.16 96.1203 162.16C95.4136 162.16 94.7736 162.047 94.2003 161.82C93.627 161.587 93.1403 161.29 92.7403 160.93L93.1603 160.25C93.2136 160.163 93.277 160.097 93.3503 160.05C93.4236 160.003 93.517 159.98 93.6303 159.98C93.7503 159.98 93.877 160.027 94.0103 160.12C94.1436 160.213 94.3036 160.317 94.4903 160.43C94.6836 160.543 94.917 160.647 95.1903 160.74C95.4636 160.833 95.8036 160.88 96.2103 160.88C96.557 160.88 96.8603 160.837 97.1203 160.75C97.3803 160.657 97.597 160.533 97.7703 160.38C97.9436 160.227 98.0703 160.05 98.1503 159.85C98.237 159.65 98.2803 159.437 98.2803 159.21C98.2803 158.93 98.2036 158.7 98.0503 158.52C97.9036 158.333 97.707 158.177 97.4603 158.05C97.2136 157.917 96.9303 157.803 96.6103 157.71C96.297 157.61 95.9736 157.507 95.6403 157.4C95.3136 157.293 94.9903 157.173 94.6703 157.04C94.357 156.9 94.077 156.727 93.8303 156.52C93.5836 156.313 93.3836 156.06 93.2303 155.76C93.0836 155.453 93.0103 155.083 93.0103 154.65C93.0103 154.263 93.0903 153.893 93.2503 153.54C93.4103 153.18 93.6436 152.867 93.9503 152.6C94.257 152.327 94.6336 152.11 95.0803 151.95C95.527 151.79 96.037 151.71 96.6103 151.71C97.277 151.71 97.8736 151.817 98.4003 152.03C98.9336 152.237 99.3936 152.523 99.7803 152.89L99.3803 153.54Z" fill="black"/>
<path d="M41.89 263.04C41.9967 263.04 42.09 263.083 42.17 263.17L42.94 264C42.3533 264.68 41.64 265.21 40.8 265.59C39.9667 265.97 38.9567 266.16 37.77 266.16C36.7433 266.16 35.81 265.983 34.97 265.63C34.13 265.27 33.4133 264.77 32.82 264.13C32.2267 263.483 31.7667 262.71 31.44 261.81C31.1133 260.91 30.95 259.92 30.95 258.84C30.95 257.76 31.12 256.77 31.46 255.87C31.8 254.97 32.2767 254.197 32.89 253.55C33.51 252.903 34.25 252.403 35.11 252.05C35.97 251.69 36.92 251.51 37.96 251.51C38.98 251.51 39.88 251.673 40.66 252C41.44 252.327 42.1267 252.77 42.72 253.33L42.08 254.22C42.04 254.287 41.9867 254.343 41.92 254.39C41.86 254.43 41.7767 254.45 41.67 254.45C41.55 254.45 41.4033 254.387 41.23 254.26C41.0567 254.127 40.83 253.98 40.55 253.82C40.27 253.66 39.92 253.517 39.5 253.39C39.08 253.257 38.5633 253.19 37.95 253.19C37.21 253.19 36.5333 253.32 35.92 253.58C35.3067 253.833 34.7767 254.203 34.33 254.69C33.89 255.177 33.5467 255.77 33.3 256.47C33.0533 257.17 32.93 257.96 32.93 258.84C32.93 259.733 33.0567 260.53 33.31 261.23C33.57 261.93 33.92 262.523 34.36 263.01C34.8067 263.49 35.33 263.857 35.93 264.11C36.5367 264.363 37.19 264.49 37.89 264.49C38.3167 264.49 38.7 264.467 39.04 264.42C39.3867 264.367 39.7033 264.287 39.99 264.18C40.2833 264.073 40.5533 263.94 40.8 263.78C41.0533 263.613 41.3033 263.417 41.55 263.19C41.6633 263.09 41.7767 263.04 41.89 263.04ZM48.8441 255.71C49.5841 255.71 50.2507 255.833 50.8441 256.08C51.4374 256.327 51.9441 256.677 52.3641 257.13C52.7841 257.583 53.1041 258.133 53.3241 258.78C53.5507 259.42 53.6641 260.137 53.6641 260.93C53.6641 261.73 53.5507 262.45 53.3241 263.09C53.1041 263.73 52.7841 264.277 52.3641 264.73C51.9441 265.183 51.4374 265.533 50.8441 265.78C50.2507 266.02 49.5841 266.14 48.8441 266.14C48.0974 266.14 47.4241 266.02 46.8241 265.78C46.2307 265.533 45.7241 265.183 45.3041 264.73C44.8841 264.277 44.5607 263.73 44.3341 263.09C44.1141 262.45 44.0041 261.73 44.0041 260.93C44.0041 260.137 44.1141 259.42 44.3341 258.78C44.5607 258.133 44.8841 257.583 45.3041 257.13C45.7241 256.677 46.2307 256.327 46.8241 256.08C47.4241 255.833 48.0974 255.71 48.8441 255.71ZM48.8441 264.75C49.8441 264.75 50.5907 264.417 51.0841 263.75C51.5774 263.077 51.8241 262.14 51.8241 260.94C51.8241 259.733 51.5774 258.793 51.0841 258.12C50.5907 257.447 49.8441 257.11 48.8441 257.11C48.3374 257.11 47.8941 257.197 47.5141 257.37C47.1407 257.543 46.8274 257.793 46.5741 258.12C46.3274 258.447 46.1407 258.85 46.0141 259.33C45.8941 259.803 45.8341 260.34 45.8341 260.94C45.8341 262.14 46.0807 263.077 46.5741 263.75C47.0741 264.417 47.8307 264.75 48.8441 264.75ZM57.6017 257.34C57.8217 257.093 58.0551 256.87 58.3017 256.67C58.5484 256.47 58.8084 256.3 59.0817 256.16C59.3617 256.013 59.6551 255.903 59.9617 255.83C60.2751 255.75 60.6117 255.71 60.9717 255.71C61.5251 255.71 62.0117 255.803 62.4317 255.99C62.8584 256.17 63.2117 256.43 63.4917 256.77C63.7784 257.103 63.9951 257.507 64.1417 257.98C64.2884 258.453 64.3617 258.977 64.3617 259.55V266H62.5717V259.55C62.5717 258.783 62.3951 258.19 62.0417 257.77C61.6951 257.343 61.1651 257.13 60.4517 257.13C59.9251 257.13 59.4317 257.257 58.9717 257.51C58.5184 257.763 58.0984 258.107 57.7117 258.54V266H55.9217V255.87H56.9917C57.2451 255.87 57.4017 255.993 57.4617 256.24L57.6017 257.34ZM70.0473 266.16C69.2473 266.16 68.6307 265.937 68.1973 265.49C67.7707 265.043 67.5573 264.4 67.5573 263.56V257.36H66.3373C66.2307 257.36 66.1407 257.33 66.0673 257.27C65.994 257.203 65.9573 257.103 65.9573 256.97V256.26L67.6173 256.05L68.0273 252.92C68.0473 252.82 68.0907 252.74 68.1573 252.68C68.2307 252.613 68.324 252.58 68.4373 252.58H69.3373V256.07H72.2673V257.36H69.3373V263.44C69.3373 263.867 69.4407 264.183 69.6473 264.39C69.854 264.597 70.1207 264.7 70.4473 264.7C70.634 264.7 70.794 264.677 70.9273 264.63C71.0673 264.577 71.1873 264.52 71.2873 264.46C71.3873 264.4 71.4707 264.347 71.5373 264.3C71.6107 264.247 71.674 264.22 71.7273 264.22C71.8207 264.22 71.904 264.277 71.9773 264.39L72.4973 265.24C72.1907 265.527 71.8207 265.753 71.3873 265.92C70.954 266.08 70.5073 266.16 70.0473 266.16ZM80.8267 259.83C80.8267 259.417 80.7667 259.04 80.6467 258.7C80.5334 258.353 80.3634 258.057 80.1367 257.81C79.9167 257.557 79.6467 257.363 79.3267 257.23C79.0067 257.09 78.6434 257.02 78.2367 257.02C77.3834 257.02 76.7067 257.27 76.2067 257.77C75.7134 258.263 75.4067 258.95 75.2867 259.83H80.8267ZM82.2667 264.58C82.0467 264.847 81.7834 265.08 81.4767 265.28C81.1701 265.473 80.8401 265.633 80.4867 265.76C80.1401 265.887 79.7801 265.98 79.4067 266.04C79.0334 266.107 78.6634 266.14 78.2967 266.14C77.5967 266.14 76.9501 266.023 76.3567 265.79C75.7701 265.55 75.2601 265.203 74.8267 264.75C74.4001 264.29 74.0667 263.723 73.8267 263.05C73.5867 262.377 73.4667 261.603 73.4667 260.73C73.4667 260.023 73.5734 259.363 73.7867 258.75C74.0067 258.137 74.3201 257.607 74.7267 257.16C75.1334 256.707 75.6301 256.353 76.2167 256.1C76.8034 255.84 77.4634 255.71 78.1967 255.71C78.8034 255.71 79.3634 255.813 79.8767 256.02C80.3967 256.22 80.8434 256.513 81.2167 256.9C81.5967 257.28 81.8934 257.753 82.1067 258.32C82.3201 258.88 82.4267 259.52 82.4267 260.24C82.4267 260.52 82.3967 260.707 82.3367 260.8C82.2767 260.893 82.1634 260.94 81.9967 260.94H75.2267C75.2467 261.58 75.3334 262.137 75.4867 262.61C75.6467 263.083 75.8667 263.48 76.1467 263.8C76.4267 264.113 76.7601 264.35 77.1467 264.51C77.5334 264.663 77.9667 264.74 78.4467 264.74C78.8934 264.74 79.2767 264.69 79.5967 264.59C79.9234 264.483 80.2034 264.37 80.4367 264.25C80.6701 264.13 80.8634 264.02 81.0167 263.92C81.1767 263.813 81.3134 263.76 81.4267 263.76C81.5734 263.76 81.6867 263.817 81.7667 263.93L82.2667 264.58ZM86.2931 257.34C86.5131 257.093 86.7465 256.87 86.9931 256.67C87.2398 256.47 87.4998 256.3 87.7731 256.16C88.0531 256.013 88.3465 255.903 88.6531 255.83C88.9665 255.75 89.3031 255.71 89.6631 255.71C90.2165 255.71 90.7031 255.803 91.1231 255.99C91.5498 256.17 91.9031 256.43 92.1831 256.77C92.4698 257.103 92.6865 257.507 92.8331 257.98C92.9798 258.453 93.0531 258.977 93.0531 259.55V266H91.2631V259.55C91.2631 258.783 91.0865 258.19 90.7331 257.77C90.3865 257.343 89.8565 257.13 89.1431 257.13C88.6165 257.13 88.1231 257.257 87.6631 257.51C87.2098 257.763 86.7898 258.107 86.4031 258.54V266H84.6131V255.87H85.6831C85.9365 255.87 86.0931 255.993 86.1531 256.24L86.2931 257.34ZM98.7388 266.16C97.9388 266.16 97.3221 265.937 96.8888 265.49C96.4621 265.043 96.2488 264.4 96.2488 263.56V257.36H95.0288C94.9221 257.36 94.8321 257.33 94.7588 257.27C94.6854 257.203 94.6488 257.103 94.6488 256.97V256.26L96.3088 256.05L96.7188 252.92C96.7388 252.82 96.7821 252.74 96.8488 252.68C96.9221 252.613 97.0154 252.58 97.1288 252.58H98.0288V256.07H100.959V257.36H98.0288V263.44C98.0288 263.867 98.1321 264.183 98.3388 264.39C98.5454 264.597 98.8121 264.7 99.1388 264.7C99.3254 264.7 99.4854 264.677 99.6188 264.63C99.7588 264.577 99.8788 264.52 99.9788 264.46C100.079 264.4 100.162 264.347 100.229 264.3C100.302 264.247 100.365 264.22 100.419 264.22C100.512 264.22 100.595 264.277 100.669 264.39L101.189 265.24C100.882 265.527 100.512 265.753 100.079 265.92C99.6454 266.08 99.1988 266.16 98.7388 266.16Z" fill="black"/>
<path d="M6.86 364.46C7.41333 364.46 7.89 364.397 8.29 364.27C8.69 364.143 9.01667 363.967 9.27 363.74C9.53 363.507 9.72 363.233 9.84 362.92C9.96 362.6 10.02 362.25 10.02 361.87C10.02 361.13 9.75667 360.547 9.23 360.12C8.70333 359.687 7.91333 359.47 6.86 359.47H3.76V364.46H6.86ZM3.76 353.2V358.09H6.32C6.86667 358.09 7.34 358.03 7.74 357.91C8.14667 357.79 8.48 357.623 8.74 357.41C9.00667 357.197 9.20333 356.94 9.33 356.64C9.45667 356.333 9.52 356 9.52 355.64C9.52 354.793 9.26667 354.177 8.76 353.79C8.25333 353.397 7.46667 353.2 6.4 353.2H3.76ZM6.4 351.67C7.28 351.67 8.03667 351.757 8.67 351.93C9.31 352.103 9.83333 352.35 10.24 352.67C10.6533 352.99 10.9567 353.383 11.15 353.85C11.3433 354.31 11.44 354.83 11.44 355.41C11.44 355.763 11.3833 356.103 11.27 356.43C11.1633 356.75 11 357.05 10.78 357.33C10.56 357.61 10.28 357.863 9.94 358.09C9.60667 358.31 9.21333 358.49 8.76 358.63C9.81333 358.83 10.6033 359.207 11.13 359.76C11.6633 360.307 11.93 361.027 11.93 361.92C11.93 362.527 11.8167 363.08 11.59 363.58C11.37 364.08 11.0433 364.51 10.61 364.87C10.1833 365.23 9.65667 365.51 9.03 365.71C8.40333 365.903 7.69 366 6.89 366H1.83V351.67H6.4ZM18.4534 355.71C19.1934 355.71 19.8601 355.833 20.4534 356.08C21.0468 356.327 21.5534 356.677 21.9734 357.13C22.3934 357.583 22.7134 358.133 22.9334 358.78C23.1601 359.42 23.2734 360.137 23.2734 360.93C23.2734 361.73 23.1601 362.45 22.9334 363.09C22.7134 363.73 22.3934 364.277 21.9734 364.73C21.5534 365.183 21.0468 365.533 20.4534 365.78C19.8601 366.02 19.1934 366.14 18.4534 366.14C17.7068 366.14 17.0334 366.02 16.4334 365.78C15.8401 365.533 15.3334 365.183 14.9134 364.73C14.4934 364.277 14.1701 363.73 13.9434 363.09C13.7234 362.45 13.6134 361.73 13.6134 360.93C13.6134 360.137 13.7234 359.42 13.9434 358.78C14.1701 358.133 14.4934 357.583 14.9134 357.13C15.3334 356.677 15.8401 356.327 16.4334 356.08C17.0334 355.833 17.7068 355.71 18.4534 355.71ZM18.4534 364.75C19.4534 364.75 20.2001 364.417 20.6934 363.75C21.1868 363.077 21.4334 362.14 21.4334 360.94C21.4334 359.733 21.1868 358.793 20.6934 358.12C20.2001 357.447 19.4534 357.11 18.4534 357.11C17.9468 357.11 17.5034 357.197 17.1234 357.37C16.7501 357.543 16.4368 357.793 16.1834 358.12C15.9368 358.447 15.7501 358.85 15.6234 359.33C15.5034 359.803 15.4434 360.34 15.4434 360.94C15.4434 362.14 15.6901 363.077 16.1834 363.75C16.6834 364.417 17.4401 364.75 18.4534 364.75ZM27.3711 351.27V366H25.5911V351.27H27.3711ZM36.8577 358.28C36.5243 357.833 36.1643 357.523 35.7777 357.35C35.391 357.17 34.9577 357.08 34.4777 357.08C33.5377 357.08 32.8143 357.417 32.3077 358.09C31.801 358.763 31.5477 359.723 31.5477 360.97C31.5477 361.63 31.6043 362.197 31.7177 362.67C31.831 363.137 31.9977 363.523 32.2177 363.83C32.4377 364.13 32.7077 364.35 33.0277 364.49C33.3477 364.63 33.711 364.7 34.1177 364.7C34.7043 364.7 35.2143 364.567 35.6477 364.3C36.0877 364.033 36.491 363.657 36.8577 363.17V358.28ZM38.6377 351.27V366H37.5777C37.3243 366 37.1643 365.877 37.0977 365.63L36.9377 364.4C36.5043 364.92 36.011 365.34 35.4577 365.66C34.9043 365.98 34.2643 366.14 33.5377 366.14C32.9577 366.14 32.431 366.03 31.9577 365.81C31.4843 365.583 31.081 365.253 30.7477 364.82C30.4143 364.387 30.1577 363.847 29.9777 363.2C29.7977 362.553 29.7077 361.81 29.7077 360.97C29.7077 360.223 29.8077 359.53 30.0077 358.89C30.2077 358.243 30.4943 357.683 30.8677 357.21C31.241 356.737 31.6977 356.367 32.2377 356.1C32.7843 355.827 33.3977 355.69 34.0777 355.69C34.6977 355.69 35.2277 355.797 35.6677 356.01C36.1143 356.217 36.511 356.507 36.8577 356.88V351.27H38.6377ZM48.2291 359.83C48.2291 359.417 48.1691 359.04 48.0491 358.7C47.9357 358.353 47.7657 358.057 47.5391 357.81C47.3191 357.557 47.0491 357.363 46.7291 357.23C46.4091 357.09 46.0457 357.02 45.6391 357.02C44.7857 357.02 44.1091 357.27 43.6091 357.77C43.1157 358.263 42.8091 358.95 42.6891 359.83H48.2291ZM49.6691 364.58C49.4491 364.847 49.1857 365.08 48.8791 365.28C48.5724 365.473 48.2424 365.633 47.8891 365.76C47.5424 365.887 47.1824 365.98 46.8091 366.04C46.4357 366.107 46.0657 366.14 45.6991 366.14C44.9991 366.14 44.3524 366.023 43.7591 365.79C43.1724 365.55 42.6624 365.203 42.2291 364.75C41.8024 364.29 41.4691 363.723 41.2291 363.05C40.9891 362.377 40.8691 361.603 40.8691 360.73C40.8691 360.023 40.9757 359.363 41.1891 358.75C41.4091 358.137 41.7224 357.607 42.1291 357.16C42.5357 356.707 43.0324 356.353 43.6191 356.1C44.2057 355.84 44.8657 355.71 45.5991 355.71C46.2057 355.71 46.7657 355.813 47.2791 356.02C47.7991 356.22 48.2457 356.513 48.6191 356.9C48.9991 357.28 49.2957 357.753 49.5091 358.32C49.7224 358.88 49.8291 359.52 49.8291 360.24C49.8291 360.52 49.7991 360.707 49.7391 360.8C49.6791 360.893 49.5657 360.94 49.3991 360.94H42.6291C42.6491 361.58 42.7357 362.137 42.8891 362.61C43.0491 363.083 43.2691 363.48 43.5491 363.8C43.8291 364.113 44.1624 364.35 44.5491 364.51C44.9357 364.663 45.3691 364.74 45.8491 364.74C46.2957 364.74 46.6791 364.69 46.9991 364.59C47.3257 364.483 47.6057 364.37 47.8391 364.25C48.0724 364.13 48.2657 364.02 48.4191 363.92C48.5791 363.813 48.7157 363.76 48.8291 363.76C48.9757 363.76 49.0891 363.817 49.1691 363.93L49.6691 364.58ZM58.6155 358.28C58.2821 357.833 57.9221 357.523 57.5355 357.35C57.1488 357.17 56.7155 357.08 56.2355 357.08C55.2955 357.08 54.5721 357.417 54.0655 358.09C53.5588 358.763 53.3055 359.723 53.3055 360.97C53.3055 361.63 53.3621 362.197 53.4755 362.67C53.5888 363.137 53.7555 363.523 53.9755 363.83C54.1955 364.13 54.4655 364.35 54.7855 364.49C55.1055 364.63 55.4688 364.7 55.8755 364.7C56.4621 364.7 56.9721 364.567 57.4055 364.3C57.8455 364.033 58.2488 363.657 58.6155 363.17V358.28ZM60.3955 351.27V366H59.3355C59.0821 366 58.9221 365.877 58.8555 365.63L58.6955 364.4C58.2621 364.92 57.7688 365.34 57.2155 365.66C56.6621 365.98 56.0221 366.14 55.2955 366.14C54.7155 366.14 54.1888 366.03 53.7155 365.81C53.2421 365.583 52.8388 365.253 52.5055 364.82C52.1721 364.387 51.9155 363.847 51.7355 363.2C51.5555 362.553 51.4655 361.81 51.4655 360.97C51.4655 360.223 51.5655 359.53 51.7655 358.89C51.9655 358.243 52.2521 357.683 52.6255 357.21C52.9988 356.737 53.4555 356.367 53.9955 356.1C54.5421 355.827 55.1555 355.69 55.8355 355.69C56.4555 355.69 56.9855 355.797 57.4255 356.01C57.8721 356.217 58.2688 356.507 58.6155 356.88V351.27H60.3955ZM71.4341 366.16C70.6341 366.16 70.0174 365.937 69.5841 365.49C69.1574 365.043 68.9441 364.4 68.9441 363.56V357.36H67.7241C67.6174 357.36 67.5274 357.33 67.4541 357.27C67.3807 357.203 67.3441 357.103 67.3441 356.97V356.26L69.0041 356.05L69.4141 352.92C69.4341 352.82 69.4774 352.74 69.5441 352.68C69.6174 352.613 69.7107 352.58 69.8241 352.58H70.7241V356.07H73.6541V357.36H70.7241V363.44C70.7241 363.867 70.8274 364.183 71.0341 364.39C71.2407 364.597 71.5074 364.7 71.8341 364.7C72.0207 364.7 72.1807 364.677 72.3141 364.63C72.4541 364.577 72.5741 364.52 72.6741 364.46C72.7741 364.4 72.8574 364.347 72.9241 364.3C72.9974 364.247 73.0607 364.22 73.1141 364.22C73.2074 364.22 73.2907 364.277 73.3641 364.39L73.8841 365.24C73.5774 365.527 73.2074 365.753 72.7741 365.92C72.3407 366.08 71.8941 366.16 71.4341 366.16ZM82.2134 359.83C82.2134 359.417 82.1534 359.04 82.0334 358.7C81.9201 358.353 81.7501 358.057 81.5234 357.81C81.3034 357.557 81.0334 357.363 80.7134 357.23C80.3934 357.09 80.0301 357.02 79.6234 357.02C78.7701 357.02 78.0934 357.27 77.5934 357.77C77.1001 358.263 76.7934 358.95 76.6734 359.83H82.2134ZM83.6534 364.58C83.4334 364.847 83.1701 365.08 82.8634 365.28C82.5568 365.473 82.2268 365.633 81.8734 365.76C81.5268 365.887 81.1668 365.98 80.7934 366.04C80.4201 366.107 80.0501 366.14 79.6834 366.14C78.9834 366.14 78.3368 366.023 77.7434 365.79C77.1568 365.55 76.6468 365.203 76.2134 364.75C75.7868 364.29 75.4534 363.723 75.2134 363.05C74.9734 362.377 74.8534 361.603 74.8534 360.73C74.8534 360.023 74.9601 359.363 75.1734 358.75C75.3934 358.137 75.7068 357.607 76.1134 357.16C76.5201 356.707 77.0168 356.353 77.6034 356.1C78.1901 355.84 78.8501 355.71 79.5834 355.71C80.1901 355.71 80.7501 355.813 81.2634 356.02C81.7834 356.22 82.2301 356.513 82.6034 356.9C82.9834 357.28 83.2801 357.753 83.4934 358.32C83.7068 358.88 83.8134 359.52 83.8134 360.24C83.8134 360.52 83.7834 360.707 83.7234 360.8C83.6634 360.893 83.5501 360.94 83.3834 360.94H76.6134C76.6334 361.58 76.7201 362.137 76.8734 362.61C77.0334 363.083 77.2534 363.48 77.5334 363.8C77.8134 364.113 78.1468 364.35 78.5334 364.51C78.9201 364.663 79.3534 364.74 79.8334 364.74C80.2801 364.74 80.6634 364.69 80.9834 364.59C81.3101 364.483 81.5901 364.37 81.8234 364.25C82.0568 364.13 82.2501 364.02 82.4034 363.92C82.5634 363.813 82.7001 363.76 82.8134 363.76C82.9601 363.76 83.0734 363.817 83.1534 363.93L83.6534 364.58ZM94.1831 366H92.4731C92.3265 366 92.2098 365.963 92.1231 365.89C92.0431 365.81 91.9765 365.723 91.9231 365.63L89.3731 361.66C89.3465 361.753 89.3165 361.847 89.2831 361.94C89.2565 362.027 89.2165 362.107 89.1631 362.18L86.8031 365.63C86.7365 365.723 86.6631 365.81 86.5831 365.89C86.5098 365.963 86.4065 366 86.2731 366H84.6831L88.2331 360.8L84.8231 355.87H86.5331C86.6798 355.87 86.7865 355.893 86.8531 355.94C86.9198 355.987 86.9798 356.053 87.0331 356.14L89.5231 359.94C89.5765 359.747 89.6598 359.56 89.7731 359.38L91.9531 356.18C92.0131 356.087 92.0765 356.013 92.1431 355.96C92.2165 355.9 92.3031 355.87 92.4031 355.87H94.0431L90.6331 360.71L94.1831 366ZM98.9341 366.16C98.1341 366.16 97.5174 365.937 97.0841 365.49C96.6574 365.043 96.4441 364.4 96.4441 363.56V357.36H95.2241C95.1174 357.36 95.0274 357.33 94.9541 357.27C94.8807 357.203 94.8441 357.103 94.8441 356.97V356.26L96.5041 356.05L96.9141 352.92C96.9341 352.82 96.9774 352.74 97.0441 352.68C97.1174 352.613 97.2107 352.58 97.3241 352.58H98.2241V356.07H101.154V357.36H98.2241V363.44C98.2241 363.867 98.3274 364.183 98.5341 364.39C98.7407 364.597 99.0074 364.7 99.3341 364.7C99.5207 364.7 99.6807 364.677 99.8141 364.63C99.9541 364.577 100.074 364.52 100.174 364.46C100.274 364.4 100.357 364.347 100.424 364.3C100.497 364.247 100.561 364.22 100.614 364.22C100.707 364.22 100.791 364.277 100.864 364.39L101.384 365.24C101.077 365.527 100.707 365.753 100.274 365.92C99.8407 366.08 99.3941 366.16 98.9341 366.16Z" fill="black"/>
<path d="M26.44 41.67V56H24.5V49.48H16.77V56H14.83V41.67H16.77V48.06H24.5V41.67H26.44ZM36.1509 49.83C36.1509 49.4167 36.0909 49.04 35.9709 48.7C35.8576 48.3533 35.6876 48.0567 35.4609 47.81C35.2409 47.5567 34.9709 47.3633 34.6509 47.23C34.3309 47.09 33.9676 47.02 33.5609 47.02C32.7076 47.02 32.0309 47.27 31.5309 47.77C31.0376 48.2633 30.7309 48.95 30.6109 49.83H36.1509ZM37.5909 54.58C37.3709 54.8467 37.1076 55.08 36.8009 55.28C36.4943 55.4733 36.1643 55.6333 35.8109 55.76C35.4643 55.8867 35.1043 55.98 34.7309 56.04C34.3576 56.1067 33.9876 56.14 33.6209 56.14C32.9209 56.14 32.2743 56.0233 31.6809 55.79C31.0943 55.55 30.5843 55.2033 30.1509 54.75C29.7243 54.29 29.3909 53.7233 29.1509 53.05C28.9109 52.3767 28.7909 51.6033 28.7909 50.73C28.7909 50.0233 28.8976 49.3633 29.1109 48.75C29.3309 48.1367 29.6443 47.6067 30.0509 47.16C30.4576 46.7067 30.9543 46.3533 31.5409 46.1C32.1276 45.84 32.7876 45.71 33.5209 45.71C34.1276 45.71 34.6876 45.8133 35.2009 46.02C35.7209 46.22 36.1676 46.5133 36.5409 46.9C36.9209 47.28 37.2176 47.7533 37.4309 48.32C37.6443 48.88 37.7509 49.52 37.7509 50.24C37.7509 50.52 37.7209 50.7067 37.6609 50.8C37.6009 50.8933 37.4876 50.94 37.3209 50.94H30.5509C30.5709 51.58 30.6576 52.1367 30.8109 52.61C30.9709 53.0833 31.1909 53.48 31.4709 53.8C31.7509 54.1133 32.0843 54.35 32.4709 54.51C32.8576 54.6633 33.2909 54.74 33.7709 54.74C34.2176 54.74 34.6009 54.69 34.9209 54.59C35.2476 54.4833 35.5276 54.37 35.7609 54.25C35.9943 54.13 36.1876 54.02 36.3409 53.92C36.5009 53.8133 36.6376 53.76 36.7509 53.76C36.8976 53.76 37.0109 53.8167 37.0909 53.93L37.5909 54.58ZM45.4273 51.44C44.6073 51.4667 43.9073 51.5333 43.3273 51.64C42.754 51.74 42.284 51.8733 41.9173 52.04C41.5573 52.2067 41.294 52.4033 41.1273 52.63C40.9673 52.8567 40.8873 53.11 40.8873 53.39C40.8873 53.6567 40.9307 53.8867 41.0173 54.08C41.104 54.2733 41.2207 54.4333 41.3673 54.56C41.5207 54.68 41.6973 54.77 41.8973 54.83C42.104 54.8833 42.324 54.91 42.5573 54.91C42.8707 54.91 43.1573 54.88 43.4173 54.82C43.6773 54.7533 43.9207 54.66 44.1473 54.54C44.3807 54.42 44.6007 54.2767 44.8073 54.11C45.0207 53.9433 45.2273 53.7533 45.4273 53.54V51.44ZM39.6773 47.3C40.2373 46.76 40.8407 46.3567 41.4873 46.09C42.134 45.8233 42.8507 45.69 43.6373 45.69C44.204 45.69 44.7073 45.7833 45.1473 45.97C45.5873 46.1567 45.9573 46.4167 46.2573 46.75C46.5573 47.0833 46.784 47.4867 46.9373 47.96C47.0907 48.4333 47.1673 48.9533 47.1673 49.52V56H46.3773C46.204 56 46.0707 55.9733 45.9773 55.92C45.884 55.86 45.8107 55.7467 45.7573 55.58L45.5573 54.62C45.2907 54.8667 45.0307 55.0867 44.7773 55.28C44.524 55.4667 44.2573 55.6267 43.9773 55.76C43.6973 55.8867 43.3973 55.9833 43.0773 56.05C42.764 56.1233 42.414 56.16 42.0273 56.16C41.634 56.16 41.264 56.1067 40.9173 56C40.5707 55.8867 40.2673 55.72 40.0073 55.5C39.754 55.28 39.5507 55.0033 39.3973 54.67C39.2507 54.33 39.1773 53.93 39.1773 53.47C39.1773 53.07 39.2873 52.6867 39.5073 52.32C39.7273 51.9467 40.084 51.6167 40.5773 51.33C41.0707 51.0433 41.714 50.81 42.5073 50.63C43.3007 50.4433 44.274 50.3367 45.4273 50.31V49.52C45.4273 48.7333 45.2573 48.14 44.9173 47.74C44.5773 47.3333 44.0807 47.13 43.4273 47.13C42.9873 47.13 42.6173 47.1867 42.3173 47.3C42.024 47.4067 41.7673 47.53 41.5473 47.67C41.334 47.8033 41.1473 47.9267 40.9873 48.04C40.834 48.1467 40.6807 48.2 40.5273 48.2C40.4073 48.2 40.304 48.17 40.2173 48.11C40.1307 48.0433 40.0573 47.9633 39.9973 47.87L39.6773 47.3ZM56.4788 48.28C56.1454 47.8333 55.7854 47.5233 55.3988 47.35C55.0121 47.17 54.5788 47.08 54.0988 47.08C53.1588 47.08 52.4354 47.4167 51.9288 48.09C51.4221 48.7633 51.1688 49.7233 51.1688 50.97C51.1688 51.63 51.2254 52.1967 51.3388 52.67C51.4521 53.1367 51.6188 53.5233 51.8388 53.83C52.0588 54.13 52.3288 54.35 52.6488 54.49C52.9688 54.63 53.3321 54.7 53.7388 54.7C54.3254 54.7 54.8354 54.5667 55.2688 54.3C55.7088 54.0333 56.1121 53.6567 56.4788 53.17V48.28ZM58.2588 41.27V56H57.1988C56.9454 56 56.7854 55.8767 56.7188 55.63L56.5588 54.4C56.1254 54.92 55.6321 55.34 55.0788 55.66C54.5254 55.98 53.8854 56.14 53.1588 56.14C52.5788 56.14 52.0521 56.03 51.5788 55.81C51.1054 55.5833 50.7021 55.2533 50.3688 54.82C50.0354 54.3867 49.7788 53.8467 49.5988 53.2C49.4188 52.5533 49.3288 51.81 49.3288 50.97C49.3288 50.2233 49.4288 49.53 49.6288 48.89C49.8288 48.2433 50.1154 47.6833 50.4888 47.21C50.8621 46.7367 51.3188 46.3667 51.8588 46.1C52.4054 45.8267 53.0188 45.69 53.6988 45.69C54.3188 45.69 54.8488 45.7967 55.2888 46.01C55.7354 46.2167 56.1321 46.5067 56.4788 46.88V41.27H58.2588ZM62.9102 41.27V56H61.1302V41.27H62.9102ZM67.6767 45.87V56H65.8967V45.87H67.6767ZM68.0567 42.69C68.0567 42.8633 68.0201 43.0267 67.9467 43.18C67.8801 43.3267 67.7867 43.46 67.6667 43.58C67.5534 43.6933 67.4167 43.7833 67.2567 43.85C67.1034 43.9167 66.9401 43.95 66.7667 43.95C66.5934 43.95 66.4301 43.9167 66.2767 43.85C66.1301 43.7833 66.0001 43.6933 65.8867 43.58C65.7734 43.46 65.6834 43.3267 65.6167 43.18C65.5501 43.0267 65.5167 42.8633 65.5167 42.69C65.5167 42.5167 65.5501 42.3533 65.6167 42.2C65.6834 42.04 65.7734 41.9033 65.8867 41.79C66.0001 41.67 66.1301 41.5767 66.2767 41.51C66.4301 41.4433 66.5934 41.41 66.7667 41.41C66.9401 41.41 67.1034 41.4433 67.2567 41.51C67.4167 41.5767 67.5534 41.67 67.6667 41.79C67.7867 41.9033 67.8801 42.04 67.9467 42.2C68.0201 42.3533 68.0567 42.5167 68.0567 42.69ZM72.2814 47.34C72.5014 47.0933 72.7347 46.87 72.9814 46.67C73.2281 46.47 73.4881 46.3 73.7614 46.16C74.0414 46.0133 74.3347 45.9033 74.6414 45.83C74.9547 45.75 75.2914 45.71 75.6514 45.71C76.2047 45.71 76.6914 45.8033 77.1114 45.99C77.5381 46.17 77.8914 46.43 78.1714 46.77C78.4581 47.1033 78.6747 47.5067 78.8214 47.98C78.9681 48.4533 79.0414 48.9767 79.0414 49.55V56H77.2514V49.55C77.2514 48.7833 77.0747 48.19 76.7214 47.77C76.3747 47.3433 75.8447 47.13 75.1314 47.13C74.6047 47.13 74.1114 47.2567 73.6514 47.51C73.1981 47.7633 72.7781 48.1067 72.3914 48.54V56H70.6014V45.87H71.6714C71.9247 45.87 72.0814 45.9933 72.1414 46.24L72.2814 47.34ZM88.5338 49.83C88.5338 49.4167 88.4738 49.04 88.3538 48.7C88.2404 48.3533 88.0704 48.0567 87.8438 47.81C87.6238 47.5567 87.3538 47.3633 87.0338 47.23C86.7138 47.09 86.3504 47.02 85.9438 47.02C85.0904 47.02 84.4138 47.27 83.9138 47.77C83.4204 48.2633 83.1138 48.95 82.9938 49.83H88.5338ZM89.9738 54.58C89.7538 54.8467 89.4904 55.08 89.1838 55.28C88.8771 55.4733 88.5471 55.6333 88.1938 55.76C87.8471 55.8867 87.4871 55.98 87.1138 56.04C86.7404 56.1067 86.3704 56.14 86.0038 56.14C85.3038 56.14 84.6571 56.0233 84.0638 55.79C83.4771 55.55 82.9671 55.2033 82.5338 54.75C82.1071 54.29 81.7738 53.7233 81.5338 53.05C81.2938 52.3767 81.1738 51.6033 81.1738 50.73C81.1738 50.0233 81.2804 49.3633 81.4938 48.75C81.7138 48.1367 82.0271 47.6067 82.4338 47.16C82.8404 46.7067 83.3371 46.3533 83.9238 46.1C84.5104 45.84 85.1704 45.71 85.9038 45.71C86.5104 45.71 87.0704 45.8133 87.5838 46.02C88.1038 46.22 88.5504 46.5133 88.9238 46.9C89.3038 47.28 89.6004 47.7533 89.8138 48.32C90.0271 48.88 90.1338 49.52 90.1338 50.24C90.1338 50.52 90.1038 50.7067 90.0438 50.8C89.9838 50.8933 89.8704 50.94 89.7038 50.94H82.9338C82.9538 51.58 83.0404 52.1367 83.1938 52.61C83.3538 53.0833 83.5738 53.48 83.8538 53.8C84.1338 54.1133 84.4671 54.35 84.8538 54.51C85.2404 54.6633 85.6738 54.74 86.1538 54.74C86.6004 54.74 86.9838 54.69 87.3038 54.59C87.6304 54.4833 87.9104 54.37 88.1438 54.25C88.3771 54.13 88.5704 54.02 88.7238 53.92C88.8838 53.8133 89.0204 53.76 89.1338 53.76C89.2804 53.76 89.3938 53.8167 89.4738 53.93L89.9738 54.58ZM98.2202 47.54C98.1402 47.6867 98.0168 47.76 97.8502 47.76C97.7502 47.76 97.6368 47.7233 97.5102 47.65C97.3835 47.5767 97.2268 47.4967 97.0402 47.41C96.8602 47.3167 96.6435 47.2333 96.3902 47.16C96.1368 47.08 95.8368 47.04 95.4902 47.04C95.1902 47.04 94.9202 47.08 94.6802 47.16C94.4402 47.2333 94.2335 47.3367 94.0602 47.47C93.8935 47.6033 93.7635 47.76 93.6702 47.94C93.5835 48.1133 93.5402 48.3033 93.5402 48.51C93.5402 48.77 93.6135 48.9867 93.7602 49.16C93.9135 49.3333 94.1135 49.4833 94.3602 49.61C94.6068 49.7367 94.8868 49.85 95.2002 49.95C95.5135 50.0433 95.8335 50.1467 96.1602 50.26C96.4935 50.3667 96.8168 50.4867 97.1302 50.62C97.4435 50.7533 97.7235 50.92 97.9702 51.12C98.2168 51.32 98.4135 51.5667 98.5602 51.86C98.7135 52.1467 98.7902 52.4933 98.7902 52.9C98.7902 53.3667 98.7068 53.8 98.5402 54.2C98.3735 54.5933 98.1268 54.9367 97.8002 55.23C97.4735 55.5167 97.0735 55.7433 96.6002 55.91C96.1268 56.0767 95.5802 56.16 94.9602 56.16C94.2535 56.16 93.6135 56.0467 93.0402 55.82C92.4668 55.5867 91.9802 55.29 91.5802 54.93L92.0002 54.25C92.0535 54.1633 92.1168 54.0967 92.1902 54.05C92.2635 54.0033 92.3568 53.98 92.4702 53.98C92.5902 53.98 92.7168 54.0267 92.8502 54.12C92.9835 54.2133 93.1435 54.3167 93.3302 54.43C93.5235 54.5433 93.7568 54.6467 94.0302 54.74C94.3035 54.8333 94.6435 54.88 95.0502 54.88C95.3968 54.88 95.7002 54.8367 95.9602 54.75C96.2202 54.6567 96.4368 54.5333 96.6102 54.38C96.7835 54.2267 96.9102 54.05 96.9902 53.85C97.0768 53.65 97.1202 53.4367 97.1202 53.21C97.1202 52.93 97.0435 52.7 96.8902 52.52C96.7435 52.3333 96.5468 52.1767 96.3002 52.05C96.0535 51.9167 95.7702 51.8033 95.4502 51.71C95.1368 51.61 94.8135 51.5067 94.4802 51.4C94.1535 51.2933 93.8302 51.1733 93.5102 51.04C93.1968 50.9 92.9168 50.7267 92.6702 50.52C92.4235 50.3133 92.2235 50.06 92.0702 49.76C91.9235 49.4533 91.8502 49.0833 91.8502 48.65C91.8502 48.2633 91.9302 47.8933 92.0902 47.54C92.2502 47.18 92.4835 46.8667 92.7902 46.6C93.0968 46.3267 93.4735 46.11 93.9202 45.95C94.3668 45.79 94.8768 45.71 95.4502 45.71C96.1168 45.71 96.7135 45.8167 97.2402 46.03C97.7735 46.2367 98.2335 46.5233 98.6202 46.89L98.2202 47.54Z" fill="black"/>
<rect width="100" height="577" transform="matrix(0 1 1 0 134 2)" fill="#092A60"/>
<path d="M164.81 45.67V46.47C164.81 46.6967 164.783 46.8833 164.73 47.03C164.683 47.1767 164.637 47.3 164.59 47.4L158.65 59.37C158.563 59.5433 158.443 59.6933 158.29 59.82C158.137 59.94 157.933 60 157.68 60H156.4L162.42 48.18C162.507 48.0133 162.597 47.86 162.69 47.72C162.783 47.58 162.883 47.4467 162.99 47.32H155.51C155.397 47.32 155.297 47.2767 155.21 47.19C155.123 47.0967 155.08 46.9933 155.08 46.88V45.67H164.81ZM176.602 52.84C176.602 54.0933 176.465 55.18 176.192 56.1C175.925 57.0133 175.558 57.77 175.092 58.37C174.625 58.97 174.072 59.4167 173.432 59.71C172.798 60.0033 172.118 60.15 171.392 60.15C170.658 60.15 169.975 60.0033 169.342 59.71C168.715 59.4167 168.168 58.97 167.702 58.37C167.235 57.77 166.868 57.0133 166.602 56.1C166.335 55.18 166.202 54.0933 166.202 52.84C166.202 51.5867 166.335 50.5 166.602 49.58C166.868 48.66 167.235 47.9 167.702 47.3C168.168 46.6933 168.715 46.2433 169.342 45.95C169.975 45.6567 170.658 45.51 171.392 45.51C172.118 45.51 172.798 45.6567 173.432 45.95C174.072 46.2433 174.625 46.6933 175.092 47.3C175.558 47.9 175.925 48.66 176.192 49.58C176.465 50.5 176.602 51.5867 176.602 52.84ZM174.752 52.84C174.752 51.7467 174.658 50.83 174.472 50.09C174.292 49.3433 174.045 48.7433 173.732 48.29C173.425 47.8367 173.068 47.5133 172.662 47.32C172.255 47.12 171.832 47.02 171.392 47.02C170.952 47.02 170.528 47.12 170.122 47.32C169.715 47.5133 169.358 47.8367 169.052 48.29C168.745 48.7433 168.498 49.3433 168.312 50.09C168.132 50.83 168.042 51.7467 168.042 52.84C168.042 53.9333 168.132 54.85 168.312 55.59C168.498 56.33 168.745 56.9267 169.052 57.38C169.358 57.8333 169.715 58.16 170.122 58.36C170.528 58.5533 170.952 58.65 171.392 58.65C171.832 58.65 172.255 58.5533 172.662 58.36C173.068 58.16 173.425 57.8333 173.732 57.38C174.045 56.9267 174.292 56.33 174.472 55.59C174.658 54.85 174.752 53.9333 174.752 52.84ZM184.423 49.13C184.423 49.69 184.336 50.1933 184.163 50.64C183.99 51.08 183.756 51.4533 183.463 51.76C183.176 52.06 182.84 52.29 182.453 52.45C182.073 52.61 181.67 52.69 181.243 52.69C180.796 52.69 180.38 52.61 179.993 52.45C179.606 52.29 179.27 52.06 178.983 51.76C178.703 51.4533 178.483 51.08 178.323 50.64C178.163 50.1933 178.083 49.69 178.083 49.13C178.083 48.5567 178.163 48.0467 178.323 47.6C178.483 47.1533 178.703 46.7767 178.983 46.47C179.27 46.1633 179.606 45.93 179.993 45.77C180.38 45.61 180.796 45.53 181.243 45.53C181.696 45.53 182.116 45.61 182.503 45.77C182.89 45.93 183.226 46.1633 183.513 46.47C183.8 46.7767 184.023 47.1533 184.183 47.6C184.343 48.0467 184.423 48.5567 184.423 49.13ZM183.043 49.13C183.043 48.69 182.996 48.3167 182.903 48.01C182.81 47.7033 182.68 47.4533 182.513 47.26C182.353 47.06 182.163 46.9167 181.943 46.83C181.723 46.7433 181.49 46.7 181.243 46.7C180.996 46.7 180.766 46.7433 180.553 46.83C180.34 46.9167 180.153 47.06 179.993 47.26C179.833 47.4533 179.706 47.7033 179.613 48.01C179.52 48.3167 179.473 48.69 179.473 49.13C179.473 49.5633 179.52 49.9333 179.613 50.24C179.706 50.54 179.833 50.7867 179.993 50.98C180.153 51.1667 180.34 51.3033 180.553 51.39C180.766 51.47 180.996 51.51 181.243 51.51C181.49 51.51 181.723 51.47 181.943 51.39C182.163 51.3033 182.353 51.1667 182.513 50.98C182.68 50.7867 182.81 50.54 182.903 50.24C182.996 49.9333 183.043 49.5633 183.043 49.13ZM189.493 45.97C189.56 45.89 189.636 45.82 189.723 45.76C189.816 45.7 189.94 45.67 190.093 45.67H191.383L180.903 59.71C180.843 59.7967 180.766 59.8667 180.673 59.92C180.58 59.9733 180.466 60 180.333 60H179.023L189.493 45.97ZM192.353 56.62C192.353 57.18 192.266 57.68 192.093 58.12C191.92 58.56 191.686 58.9333 191.393 59.24C191.106 59.54 190.77 59.77 190.383 59.93C190.003 60.09 189.6 60.17 189.173 60.17C188.72 60.17 188.3 60.09 187.913 59.93C187.533 59.77 187.2 59.54 186.913 59.24C186.633 58.9333 186.413 58.56 186.253 58.12C186.093 57.68 186.013 57.18 186.013 56.62C186.013 56.0467 186.093 55.5367 186.253 55.09C186.413 54.6367 186.633 54.2567 186.913 53.95C187.2 53.6433 187.533 53.41 187.913 53.25C188.3 53.09 188.72 53.01 189.173 53.01C189.62 53.01 190.036 53.09 190.423 53.25C190.816 53.41 191.153 53.6433 191.433 53.95C191.72 54.2567 191.943 54.6367 192.103 55.09C192.27 55.5367 192.353 56.0467 192.353 56.62ZM190.973 56.62C190.973 56.18 190.926 55.8067 190.833 55.5C190.74 55.1867 190.61 54.9333 190.443 54.74C190.283 54.5467 190.093 54.4067 189.873 54.32C189.653 54.2333 189.42 54.19 189.173 54.19C188.926 54.19 188.693 54.2333 188.473 54.32C188.26 54.4067 188.073 54.5467 187.913 54.74C187.753 54.9333 187.626 55.1867 187.533 55.5C187.446 55.8067 187.403 56.18 187.403 56.62C187.403 57.0533 187.446 57.42 187.533 57.72C187.626 58.02 187.753 58.2667 187.913 58.46C188.073 58.6467 188.26 58.7833 188.473 58.87C188.693 58.95 188.926 58.99 189.173 58.99C189.42 58.99 189.653 58.95 189.873 58.87C190.093 58.7833 190.283 58.6467 190.443 58.46C190.61 58.2667 190.74 58.02 190.833 57.72C190.926 57.42 190.973 57.0533 190.973 56.62Z" fill="white"/>
<rect width="100" height="575" transform="matrix(0 1 1 0 134 2)" stroke="white" stroke-width="3"/>
<rect width="100" height="492" transform="matrix(0 1 1 0 134 104)" fill="#092A60"/>
<path d="M159.78 160.68C160.26 160.68 160.693 160.603 161.08 160.45C161.473 160.297 161.807 160.083 162.08 159.81C162.36 159.537 162.573 159.213 162.72 158.84C162.873 158.467 162.95 158.06 162.95 157.62C162.95 157.153 162.877 156.733 162.73 156.36C162.583 155.98 162.373 155.66 162.1 155.4C161.833 155.133 161.513 154.93 161.14 154.79C160.767 154.65 160.357 154.58 159.91 154.58C159.43 154.58 158.997 154.663 158.61 154.83C158.223 154.99 157.893 155.21 157.62 155.49C157.353 155.763 157.147 156.083 157 156.45C156.86 156.81 156.79 157.187 156.79 157.58C156.79 158.04 156.857 158.46 156.99 158.84C157.123 159.22 157.317 159.547 157.57 159.82C157.83 160.093 158.143 160.307 158.51 160.46C158.883 160.607 159.307 160.68 159.78 160.68ZM158.74 153.04C158.613 153.2 158.49 153.357 158.37 153.51C158.257 153.657 158.147 153.803 158.04 153.95C158.38 153.717 158.753 153.537 159.16 153.41C159.567 153.283 160.01 153.22 160.49 153.22C161.07 153.22 161.617 153.317 162.13 153.51C162.643 153.697 163.09 153.973 163.47 154.34C163.857 154.7 164.163 155.147 164.39 155.68C164.617 156.207 164.73 156.81 164.73 157.49C164.73 158.15 164.61 158.763 164.37 159.33C164.13 159.897 163.793 160.39 163.36 160.81C162.933 161.23 162.417 161.56 161.81 161.8C161.21 162.04 160.547 162.16 159.82 162.16C159.1 162.16 158.447 162.047 157.86 161.82C157.273 161.587 156.773 161.26 156.36 160.84C155.953 160.413 155.637 159.9 155.41 159.3C155.19 158.693 155.08 158.017 155.08 157.27C155.08 156.643 155.217 155.977 155.49 155.27C155.77 154.557 156.213 153.797 156.82 152.99L160.46 148.1C160.553 147.98 160.68 147.88 160.84 147.8C161.007 147.713 161.197 147.67 161.41 147.67H162.99L158.74 153.04ZM176.602 154.84C176.602 156.093 176.465 157.18 176.192 158.1C175.925 159.013 175.558 159.77 175.092 160.37C174.625 160.97 174.072 161.417 173.432 161.71C172.798 162.003 172.118 162.15 171.392 162.15C170.658 162.15 169.975 162.003 169.342 161.71C168.715 161.417 168.168 160.97 167.702 160.37C167.235 159.77 166.868 159.013 166.602 158.1C166.335 157.18 166.202 156.093 166.202 154.84C166.202 153.587 166.335 152.5 166.602 151.58C166.868 150.66 167.235 149.9 167.702 149.3C168.168 148.693 168.715 148.243 169.342 147.95C169.975 147.657 170.658 147.51 171.392 147.51C172.118 147.51 172.798 147.657 173.432 147.95C174.072 148.243 174.625 148.693 175.092 149.3C175.558 149.9 175.925 150.66 176.192 151.58C176.465 152.5 176.602 153.587 176.602 154.84ZM174.752 154.84C174.752 153.747 174.658 152.83 174.472 152.09C174.292 151.343 174.045 150.743 173.732 150.29C173.425 149.837 173.068 149.513 172.662 149.32C172.255 149.12 171.832 149.02 171.392 149.02C170.952 149.02 170.528 149.12 170.122 149.32C169.715 149.513 169.358 149.837 169.052 150.29C168.745 150.743 168.498 151.343 168.312 152.09C168.132 152.83 168.042 153.747 168.042 154.84C168.042 155.933 168.132 156.85 168.312 157.59C168.498 158.33 168.745 158.927 169.052 159.38C169.358 159.833 169.715 160.16 170.122 160.36C170.528 160.553 170.952 160.65 171.392 160.65C171.832 160.65 172.255 160.553 172.662 160.36C173.068 160.16 173.425 159.833 173.732 159.38C174.045 158.927 174.292 158.33 174.472 157.59C174.658 156.85 174.752 155.933 174.752 154.84ZM184.423 151.13C184.423 151.69 184.336 152.193 184.163 152.64C183.99 153.08 183.756 153.453 183.463 153.76C183.176 154.06 182.84 154.29 182.453 154.45C182.073 154.61 181.67 154.69 181.243 154.69C180.796 154.69 180.38 154.61 179.993 154.45C179.606 154.29 179.27 154.06 178.983 153.76C178.703 153.453 178.483 153.08 178.323 152.64C178.163 152.193 178.083 151.69 178.083 151.13C178.083 150.557 178.163 150.047 178.323 149.6C178.483 149.153 178.703 148.777 178.983 148.47C179.27 148.163 179.606 147.93 179.993 147.77C180.38 147.61 180.796 147.53 181.243 147.53C181.696 147.53 182.116 147.61 182.503 147.77C182.89 147.93 183.226 148.163 183.513 148.47C183.8 148.777 184.023 149.153 184.183 149.6C184.343 150.047 184.423 150.557 184.423 151.13ZM183.043 151.13C183.043 150.69 182.996 150.317 182.903 150.01C182.81 149.703 182.68 149.453 182.513 149.26C182.353 149.06 182.163 148.917 181.943 148.83C181.723 148.743 181.49 148.7 181.243 148.7C180.996 148.7 180.766 148.743 180.553 148.83C180.34 148.917 180.153 149.06 179.993 149.26C179.833 149.453 179.706 149.703 179.613 150.01C179.52 150.317 179.473 150.69 179.473 151.13C179.473 151.563 179.52 151.933 179.613 152.24C179.706 152.54 179.833 152.787 179.993 152.98C180.153 153.167 180.34 153.303 180.553 153.39C180.766 153.47 180.996 153.51 181.243 153.51C181.49 153.51 181.723 153.47 181.943 153.39C182.163 153.303 182.353 153.167 182.513 152.98C182.68 152.787 182.81 152.54 182.903 152.24C182.996 151.933 183.043 151.563 183.043 151.13ZM189.493 147.97C189.56 147.89 189.636 147.82 189.723 147.76C189.816 147.7 189.94 147.67 190.093 147.67H191.383L180.903 161.71C180.843 161.797 180.766 161.867 180.673 161.92C180.58 161.973 180.466 162 180.333 162H179.023L189.493 147.97ZM192.353 158.62C192.353 159.18 192.266 159.68 192.093 160.12C191.92 160.56 191.686 160.933 191.393 161.24C191.106 161.54 190.77 161.77 190.383 161.93C190.003 162.09 189.6 162.17 189.173 162.17C188.72 162.17 188.3 162.09 187.913 161.93C187.533 161.77 187.2 161.54 186.913 161.24C186.633 160.933 186.413 160.56 186.253 160.12C186.093 159.68 186.013 159.18 186.013 158.62C186.013 158.047 186.093 157.537 186.253 157.09C186.413 156.637 186.633 156.257 186.913 155.95C187.2 155.643 187.533 155.41 187.913 155.25C188.3 155.09 188.72 155.01 189.173 155.01C189.62 155.01 190.036 155.09 190.423 155.25C190.816 155.41 191.153 155.643 191.433 155.95C191.72 156.257 191.943 156.637 192.103 157.09C192.27 157.537 192.353 158.047 192.353 158.62ZM190.973 158.62C190.973 158.18 190.926 157.807 190.833 157.5C190.74 157.187 190.61 156.933 190.443 156.74C190.283 156.547 190.093 156.407 189.873 156.32C189.653 156.233 189.42 156.19 189.173 156.19C188.926 156.19 188.693 156.233 188.473 156.32C188.26 156.407 188.073 156.547 187.913 156.74C187.753 156.933 187.626 157.187 187.533 157.5C187.446 157.807 187.403 158.18 187.403 158.62C187.403 159.053 187.446 159.42 187.533 159.72C187.626 160.02 187.753 160.267 187.913 160.46C188.073 160.647 188.26 160.783 188.473 160.87C188.693 160.95 188.926 160.99 189.173 160.99C189.42 160.99 189.653 160.95 189.873 160.87C190.093 160.783 190.283 160.647 190.443 160.46C190.61 160.267 190.74 160.02 190.833 159.72C190.926 159.42 190.973 159.053 190.973 158.62Z" fill="white"/>
<rect width="100" height="492" transform="matrix(0 1 1 0 134 104)" stroke="white" stroke-width="3"/>
<rect width="100" height="132" transform="matrix(0 1 1 0 134 206)" fill="#092A60"/>
<path d="M164.18 262.64V264H156.5V262.64H159.57V252.87C159.57 252.577 159.58 252.28 159.6 251.98L157.05 254.17C156.963 254.243 156.877 254.29 156.79 254.31C156.703 254.323 156.623 254.323 156.55 254.31C156.477 254.297 156.407 254.27 156.34 254.23C156.28 254.19 156.233 254.147 156.2 254.1L155.64 253.33L159.91 249.64H161.36V262.64H164.18ZM171.382 262.68C171.862 262.68 172.295 262.603 172.682 262.45C173.075 262.297 173.408 262.083 173.682 261.81C173.962 261.537 174.175 261.213 174.322 260.84C174.475 260.467 174.552 260.06 174.552 259.62C174.552 259.153 174.478 258.733 174.332 258.36C174.185 257.98 173.975 257.66 173.702 257.4C173.435 257.133 173.115 256.93 172.742 256.79C172.368 256.65 171.958 256.58 171.512 256.58C171.032 256.58 170.598 256.663 170.212 256.83C169.825 256.99 169.495 257.21 169.222 257.49C168.955 257.763 168.748 258.083 168.602 258.45C168.462 258.81 168.392 259.187 168.392 259.58C168.392 260.04 168.458 260.46 168.592 260.84C168.725 261.22 168.918 261.547 169.172 261.82C169.432 262.093 169.745 262.307 170.112 262.46C170.485 262.607 170.908 262.68 171.382 262.68ZM170.342 255.04C170.215 255.2 170.092 255.357 169.972 255.51C169.858 255.657 169.748 255.803 169.642 255.95C169.982 255.717 170.355 255.537 170.762 255.41C171.168 255.283 171.612 255.22 172.092 255.22C172.672 255.22 173.218 255.317 173.732 255.51C174.245 255.697 174.692 255.973 175.072 256.34C175.458 256.7 175.765 257.147 175.992 257.68C176.218 258.207 176.332 258.81 176.332 259.49C176.332 260.15 176.212 260.763 175.972 261.33C175.732 261.897 175.395 262.39 174.962 262.81C174.535 263.23 174.018 263.56 173.412 263.8C172.812 264.04 172.148 264.16 171.422 264.16C170.702 264.16 170.048 264.047 169.462 263.82C168.875 263.587 168.375 263.26 167.962 262.84C167.555 262.413 167.238 261.9 167.012 261.3C166.792 260.693 166.682 260.017 166.682 259.27C166.682 258.643 166.818 257.977 167.092 257.27C167.372 256.557 167.815 255.797 168.422 254.99L172.062 250.1C172.155 249.98 172.282 249.88 172.442 249.8C172.608 249.713 172.798 249.67 173.012 249.67H174.592L170.342 255.04ZM184.423 253.13C184.423 253.69 184.336 254.193 184.163 254.64C183.99 255.08 183.756 255.453 183.463 255.76C183.176 256.06 182.84 256.29 182.453 256.45C182.073 256.61 181.67 256.69 181.243 256.69C180.796 256.69 180.38 256.61 179.993 256.45C179.606 256.29 179.27 256.06 178.983 255.76C178.703 255.453 178.483 255.08 178.323 254.64C178.163 254.193 178.083 253.69 178.083 253.13C178.083 252.557 178.163 252.047 178.323 251.6C178.483 251.153 178.703 250.777 178.983 250.47C179.27 250.163 179.606 249.93 179.993 249.77C180.38 249.61 180.796 249.53 181.243 249.53C181.696 249.53 182.116 249.61 182.503 249.77C182.89 249.93 183.226 250.163 183.513 250.47C183.8 250.777 184.023 251.153 184.183 251.6C184.343 252.047 184.423 252.557 184.423 253.13ZM183.043 253.13C183.043 252.69 182.996 252.317 182.903 252.01C182.81 251.703 182.68 251.453 182.513 251.26C182.353 251.06 182.163 250.917 181.943 250.83C181.723 250.743 181.49 250.7 181.243 250.7C180.996 250.7 180.766 250.743 180.553 250.83C180.34 250.917 180.153 251.06 179.993 251.26C179.833 251.453 179.706 251.703 179.613 252.01C179.52 252.317 179.473 252.69 179.473 253.13C179.473 253.563 179.52 253.933 179.613 254.24C179.706 254.54 179.833 254.787 179.993 254.98C180.153 255.167 180.34 255.303 180.553 255.39C180.766 255.47 180.996 255.51 181.243 255.51C181.49 255.51 181.723 255.47 181.943 255.39C182.163 255.303 182.353 255.167 182.513 254.98C182.68 254.787 182.81 254.54 182.903 254.24C182.996 253.933 183.043 253.563 183.043 253.13ZM189.493 249.97C189.56 249.89 189.636 249.82 189.723 249.76C189.816 249.7 189.94 249.67 190.093 249.67H191.383L180.903 263.71C180.843 263.797 180.766 263.867 180.673 263.92C180.58 263.973 180.466 264 180.333 264H179.023L189.493 249.97ZM192.353 260.62C192.353 261.18 192.266 261.68 192.093 262.12C191.92 262.56 191.686 262.933 191.393 263.24C191.106 263.54 190.77 263.77 190.383 263.93C190.003 264.09 189.6 264.17 189.173 264.17C188.72 264.17 188.3 264.09 187.913 263.93C187.533 263.77 187.2 263.54 186.913 263.24C186.633 262.933 186.413 262.56 186.253 262.12C186.093 261.68 186.013 261.18 186.013 260.62C186.013 260.047 186.093 259.537 186.253 259.09C186.413 258.637 186.633 258.257 186.913 257.95C187.2 257.643 187.533 257.41 187.913 257.25C188.3 257.09 188.72 257.01 189.173 257.01C189.62 257.01 190.036 257.09 190.423 257.25C190.816 257.41 191.153 257.643 191.433 257.95C191.72 258.257 191.943 258.637 192.103 259.09C192.27 259.537 192.353 260.047 192.353 260.62ZM190.973 260.62C190.973 260.18 190.926 259.807 190.833 259.5C190.74 259.187 190.61 258.933 190.443 258.74C190.283 258.547 190.093 258.407 189.873 258.32C189.653 258.233 189.42 258.19 189.173 258.19C188.926 258.19 188.693 258.233 188.473 258.32C188.26 258.407 188.073 258.547 187.913 258.74C187.753 258.933 187.626 259.187 187.533 259.5C187.446 259.807 187.403 260.18 187.403 260.62C187.403 261.053 187.446 261.42 187.533 261.72C187.626 262.02 187.753 262.267 187.913 262.46C188.073 262.647 188.26 262.783 188.473 262.87C188.693 262.95 188.926 262.99 189.173 262.99C189.42 262.99 189.653 262.95 189.873 262.87C190.093 262.783 190.283 262.647 190.443 262.46C190.61 262.267 190.74 262.02 190.833 261.72C190.926 261.42 190.973 261.053 190.973 260.62Z" fill="white"/>
<rect width="100" height="132" transform="matrix(0 1 1 0 134 206)" stroke="white" stroke-width="3"/>
<rect width="100" height="105" transform="matrix(0 1 1 0 134 308)" fill="#092A60"/>
<path d="M164.18 364.64V366H156.5V364.64H159.57V354.87C159.57 354.577 159.58 354.28 159.6 353.98L157.05 356.17C156.963 356.243 156.877 356.29 156.79 356.31C156.703 356.323 156.623 356.323 156.55 356.31C156.477 356.297 156.407 356.27 156.34 356.23C156.28 356.19 156.233 356.147 156.2 356.1L155.64 355.33L159.91 351.64H161.36V364.64H164.18ZM166.902 355.55C166.995 354.897 167.175 354.32 167.442 353.82C167.708 353.313 168.045 352.89 168.452 352.55C168.865 352.21 169.335 351.953 169.862 351.78C170.395 351.6 170.968 351.51 171.582 351.51C172.188 351.51 172.748 351.597 173.262 351.77C173.775 351.943 174.215 352.19 174.582 352.51C174.955 352.83 175.245 353.217 175.452 353.67C175.658 354.123 175.762 354.627 175.762 355.18C175.762 355.633 175.702 356.04 175.582 356.4C175.468 356.753 175.302 357.063 175.082 357.33C174.868 357.597 174.608 357.823 174.302 358.01C173.995 358.197 173.652 358.35 173.272 358.47C174.205 358.71 174.905 359.123 175.372 359.71C175.845 360.29 176.082 361.017 176.082 361.89C176.082 362.55 175.955 363.143 175.702 363.67C175.455 364.197 175.115 364.647 174.682 365.02C174.248 365.387 173.742 365.67 173.162 365.87C172.588 366.063 171.972 366.16 171.312 366.16C170.552 366.16 169.902 366.067 169.362 365.88C168.822 365.687 168.365 365.423 167.992 365.09C167.618 364.757 167.312 364.363 167.072 363.91C166.832 363.45 166.628 362.953 166.462 362.42L167.232 362.1C167.432 362.013 167.625 361.99 167.812 362.03C168.005 362.07 168.145 362.18 168.232 362.36C168.318 362.547 168.425 362.77 168.552 363.03C168.685 363.29 168.865 363.54 169.092 363.78C169.318 364.02 169.605 364.223 169.952 364.39C170.305 364.557 170.752 364.64 171.292 364.64C171.792 364.64 172.228 364.56 172.602 364.4C172.982 364.233 173.295 364.02 173.542 363.76C173.795 363.5 173.985 363.21 174.112 362.89C174.238 362.57 174.302 362.253 174.302 361.94C174.302 361.553 174.252 361.2 174.152 360.88C174.052 360.56 173.865 360.283 173.592 360.05C173.318 359.817 172.942 359.633 172.462 359.5C171.988 359.367 171.378 359.3 170.632 359.3V358.01C171.245 358.003 171.765 357.937 172.192 357.81C172.625 357.683 172.975 357.51 173.242 357.29C173.515 357.07 173.712 356.807 173.832 356.5C173.958 356.193 174.022 355.853 174.022 355.48C174.022 355.067 173.955 354.707 173.822 354.4C173.695 354.093 173.518 353.84 173.292 353.64C173.065 353.44 172.795 353.29 172.482 353.19C172.175 353.09 171.842 353.04 171.482 353.04C171.122 353.04 170.785 353.093 170.472 353.2C170.165 353.307 169.892 353.457 169.652 353.65C169.418 353.837 169.222 354.06 169.062 354.32C168.902 354.58 168.788 354.867 168.722 355.18C168.635 355.413 168.525 355.57 168.392 355.65C168.265 355.723 168.078 355.743 167.832 355.71L166.902 355.55ZM184.423 355.13C184.423 355.69 184.336 356.193 184.163 356.64C183.99 357.08 183.756 357.453 183.463 357.76C183.176 358.06 182.84 358.29 182.453 358.45C182.073 358.61 181.67 358.69 181.243 358.69C180.796 358.69 180.38 358.61 179.993 358.45C179.606 358.29 179.27 358.06 178.983 357.76C178.703 357.453 178.483 357.08 178.323 356.64C178.163 356.193 178.083 355.69 178.083 355.13C178.083 354.557 178.163 354.047 178.323 353.6C178.483 353.153 178.703 352.777 178.983 352.47C179.27 352.163 179.606 351.93 179.993 351.77C180.38 351.61 180.796 351.53 181.243 351.53C181.696 351.53 182.116 351.61 182.503 351.77C182.89 351.93 183.226 352.163 183.513 352.47C183.8 352.777 184.023 353.153 184.183 353.6C184.343 354.047 184.423 354.557 184.423 355.13ZM183.043 355.13C183.043 354.69 182.996 354.317 182.903 354.01C182.81 353.703 182.68 353.453 182.513 353.26C182.353 353.06 182.163 352.917 181.943 352.83C181.723 352.743 181.49 352.7 181.243 352.7C180.996 352.7 180.766 352.743 180.553 352.83C180.34 352.917 180.153 353.06 179.993 353.26C179.833 353.453 179.706 353.703 179.613 354.01C179.52 354.317 179.473 354.69 179.473 355.13C179.473 355.563 179.52 355.933 179.613 356.24C179.706 356.54 179.833 356.787 179.993 356.98C180.153 357.167 180.34 357.303 180.553 357.39C180.766 357.47 180.996 357.51 181.243 357.51C181.49 357.51 181.723 357.47 181.943 357.39C182.163 357.303 182.353 357.167 182.513 356.98C182.68 356.787 182.81 356.54 182.903 356.24C182.996 355.933 183.043 355.563 183.043 355.13ZM189.493 351.97C189.56 351.89 189.636 351.82 189.723 351.76C189.816 351.7 189.94 351.67 190.093 351.67H191.383L180.903 365.71C180.843 365.797 180.766 365.867 180.673 365.92C180.58 365.973 180.466 366 180.333 366H179.023L189.493 351.97ZM192.353 362.62C192.353 363.18 192.266 363.68 192.093 364.12C191.92 364.56 191.686 364.933 191.393 365.24C191.106 365.54 190.77 365.77 190.383 365.93C190.003 366.09 189.6 366.17 189.173 366.17C188.72 366.17 188.3 366.09 187.913 365.93C187.533 365.77 187.2 365.54 186.913 365.24C186.633 364.933 186.413 364.56 186.253 364.12C186.093 363.68 186.013 363.18 186.013 362.62C186.013 362.047 186.093 361.537 186.253 361.09C186.413 360.637 186.633 360.257 186.913 359.95C187.2 359.643 187.533 359.41 187.913 359.25C188.3 359.09 188.72 359.01 189.173 359.01C189.62 359.01 190.036 359.09 190.423 359.25C190.816 359.41 191.153 359.643 191.433 359.95C191.72 360.257 191.943 360.637 192.103 361.09C192.27 361.537 192.353 362.047 192.353 362.62ZM190.973 362.62C190.973 362.18 190.926 361.807 190.833 361.5C190.74 361.187 190.61 360.933 190.443 360.74C190.283 360.547 190.093 360.407 189.873 360.32C189.653 360.233 189.42 360.19 189.173 360.19C188.926 360.19 188.693 360.233 188.473 360.32C188.26 360.407 188.073 360.547 187.913 360.74C187.753 360.933 187.626 361.187 187.533 361.5C187.446 361.807 187.403 362.18 187.403 362.62C187.403 363.053 187.446 363.42 187.533 363.72C187.626 364.02 187.753 364.267 187.913 364.46C188.073 364.647 188.26 364.783 188.473 364.87C188.693 364.95 188.926 364.99 189.173 364.99C189.42 364.99 189.653 364.95 189.873 364.87C190.093 364.783 190.283 364.647 190.443 364.46C190.61 364.267 190.74 364.02 190.833 363.72C190.926 363.42 190.973 363.053 190.973 362.62Z" fill="white"/>
<rect width="100" height="105" transform="matrix(0 1 1 0 134 308)" stroke="white" stroke-width="3"/>
<path d="M164.18 437.64V439H156.5V437.64H159.57V427.87C159.57 427.577 159.58 427.28 159.6 426.98L157.05 429.17C156.963 429.243 156.877 429.29 156.79 429.31C156.703 429.323 156.623 429.323 156.55 429.31C156.477 429.297 156.407 429.27 156.34 429.23C156.28 429.19 156.233 429.147 156.2 429.1L155.64 428.33L159.91 424.64H161.36V437.64H164.18ZM166.902 428.55C166.995 427.897 167.175 427.32 167.442 426.82C167.708 426.313 168.045 425.89 168.452 425.55C168.865 425.21 169.335 424.953 169.862 424.78C170.395 424.6 170.968 424.51 171.582 424.51C172.188 424.51 172.748 424.597 173.262 424.77C173.775 424.943 174.215 425.19 174.582 425.51C174.955 425.83 175.245 426.217 175.452 426.67C175.658 427.123 175.762 427.627 175.762 428.18C175.762 428.633 175.702 429.04 175.582 429.4C175.468 429.753 175.302 430.063 175.082 430.33C174.868 430.597 174.608 430.823 174.302 431.01C173.995 431.197 173.652 431.35 173.272 431.47C174.205 431.71 174.905 432.123 175.372 432.71C175.845 433.29 176.082 434.017 176.082 434.89C176.082 435.55 175.955 436.143 175.702 436.67C175.455 437.197 175.115 437.647 174.682 438.02C174.248 438.387 173.742 438.67 173.162 438.87C172.588 439.063 171.972 439.16 171.312 439.16C170.552 439.16 169.902 439.067 169.362 438.88C168.822 438.687 168.365 438.423 167.992 438.09C167.618 437.757 167.312 437.363 167.072 436.91C166.832 436.45 166.628 435.953 166.462 435.42L167.232 435.1C167.432 435.013 167.625 434.99 167.812 435.03C168.005 435.07 168.145 435.18 168.232 435.36C168.318 435.547 168.425 435.77 168.552 436.03C168.685 436.29 168.865 436.54 169.092 436.78C169.318 437.02 169.605 437.223 169.952 437.39C170.305 437.557 170.752 437.64 171.292 437.64C171.792 437.64 172.228 437.56 172.602 437.4C172.982 437.233 173.295 437.02 173.542 436.76C173.795 436.5 173.985 436.21 174.112 435.89C174.238 435.57 174.302 435.253 174.302 434.94C174.302 434.553 174.252 434.2 174.152 433.88C174.052 433.56 173.865 433.283 173.592 433.05C173.318 432.817 172.942 432.633 172.462 432.5C171.988 432.367 171.378 432.3 170.632 432.3V431.01C171.245 431.003 171.765 430.937 172.192 430.81C172.625 430.683 172.975 430.51 173.242 430.29C173.515 430.07 173.712 429.807 173.832 429.5C173.958 429.193 174.022 428.853 174.022 428.48C174.022 428.067 173.955 427.707 173.822 427.4C173.695 427.093 173.518 426.84 173.292 426.64C173.065 426.44 172.795 426.29 172.482 426.19C172.175 426.09 171.842 426.04 171.482 426.04C171.122 426.04 170.785 426.093 170.472 426.2C170.165 426.307 169.892 426.457 169.652 426.65C169.418 426.837 169.222 427.06 169.062 427.32C168.902 427.58 168.788 427.867 168.722 428.18C168.635 428.413 168.525 428.57 168.392 428.65C168.265 428.723 168.078 428.743 167.832 428.71L166.902 428.55ZM184.423 428.13C184.423 428.69 184.336 429.193 184.163 429.64C183.99 430.08 183.756 430.453 183.463 430.76C183.176 431.06 182.84 431.29 182.453 431.45C182.073 431.61 181.67 431.69 181.243 431.69C180.796 431.69 180.38 431.61 179.993 431.45C179.606 431.29 179.27 431.06 178.983 430.76C178.703 430.453 178.483 430.08 178.323 429.64C178.163 429.193 178.083 428.69 178.083 428.13C178.083 427.557 178.163 427.047 178.323 426.6C178.483 426.153 178.703 425.777 178.983 425.47C179.27 425.163 179.606 424.93 179.993 424.77C180.38 424.61 180.796 424.53 181.243 424.53C181.696 424.53 182.116 424.61 182.503 424.77C182.89 424.93 183.226 425.163 183.513 425.47C183.8 425.777 184.023 426.153 184.183 426.6C184.343 427.047 184.423 427.557 184.423 428.13ZM183.043 428.13C183.043 427.69 182.996 427.317 182.903 427.01C182.81 426.703 182.68 426.453 182.513 426.26C182.353 426.06 182.163 425.917 181.943 425.83C181.723 425.743 181.49 425.7 181.243 425.7C180.996 425.7 180.766 425.743 180.553 425.83C180.34 425.917 180.153 426.06 179.993 426.26C179.833 426.453 179.706 426.703 179.613 427.01C179.52 427.317 179.473 427.69 179.473 428.13C179.473 428.563 179.52 428.933 179.613 429.24C179.706 429.54 179.833 429.787 179.993 429.98C180.153 430.167 180.34 430.303 180.553 430.39C180.766 430.47 180.996 430.51 181.243 430.51C181.49 430.51 181.723 430.47 181.943 430.39C182.163 430.303 182.353 430.167 182.513 429.98C182.68 429.787 182.81 429.54 182.903 429.24C182.996 428.933 183.043 428.563 183.043 428.13ZM189.493 424.97C189.56 424.89 189.636 424.82 189.723 424.76C189.816 424.7 189.94 424.67 190.093 424.67H191.383L180.903 438.71C180.843 438.797 180.766 438.867 180.673 438.92C180.58 438.973 180.466 439 180.333 439H179.023L189.493 424.97ZM192.353 435.62C192.353 436.18 192.266 436.68 192.093 437.12C191.92 437.56 191.686 437.933 191.393 438.24C191.106 438.54 190.77 438.77 190.383 438.93C190.003 439.09 189.6 439.17 189.173 439.17C188.72 439.17 188.3 439.09 187.913 438.93C187.533 438.77 187.2 438.54 186.913 438.24C186.633 437.933 186.413 437.56 186.253 437.12C186.093 436.68 186.013 436.18 186.013 435.62C186.013 435.047 186.093 434.537 186.253 434.09C186.413 433.637 186.633 433.257 186.913 432.95C187.2 432.643 187.533 432.41 187.913 432.25C188.3 432.09 188.72 432.01 189.173 432.01C189.62 432.01 190.036 432.09 190.423 432.25C190.816 432.41 191.153 432.643 191.433 432.95C191.72 433.257 191.943 433.637 192.103 434.09C192.27 434.537 192.353 435.047 192.353 435.62ZM190.973 435.62C190.973 435.18 190.926 434.807 190.833 434.5C190.74 434.187 190.61 433.933 190.443 433.74C190.283 433.547 190.093 433.407 189.873 433.32C189.653 433.233 189.42 433.19 189.173 433.19C188.926 433.19 188.693 433.233 188.473 433.32C188.26 433.407 188.073 433.547 187.913 433.74C187.753 433.933 187.626 434.187 187.533 434.5C187.446 434.807 187.403 435.18 187.403 435.62C187.403 436.053 187.446 436.42 187.533 436.72C187.626 437.02 187.753 437.267 187.913 437.46C188.073 437.647 188.26 437.783 188.473 437.87C188.693 437.95 188.926 437.99 189.173 437.99C189.42 437.99 189.653 437.95 189.873 437.87C190.093 437.783 190.283 437.647 190.443 437.46C190.61 437.267 190.74 437.02 190.833 436.72C190.926 436.42 190.973 436.053 190.973 435.62Z" fill="white"/>
</svg>
