<svg width="699" height="490" viewBox="0 0 699 490" fill="none" xmlns="http://www.w3.org/2000/svg">
<path d="M36.06 187.1C36.6133 187.1 37.1 187.027 37.52 186.88C37.9467 186.733 38.3033 186.53 38.59 186.27C38.8833 186.003 39.1033 185.687 39.25 185.32C39.3967 184.953 39.47 184.55 39.47 184.11C39.47 183.197 39.1867 182.483 38.62 181.97C38.06 181.457 37.2067 181.2 36.06 181.2H33.76V187.1H36.06ZM36.06 179.67C36.9667 179.67 37.7533 179.777 38.42 179.99C39.0933 180.197 39.65 180.493 40.09 180.88C40.53 181.267 40.8567 181.733 41.07 182.28C41.29 182.827 41.4 183.437 41.4 184.11C41.4 184.777 41.2833 185.387 41.05 185.94C40.8167 186.493 40.4733 186.97 40.02 187.37C39.5733 187.77 39.0167 188.083 38.35 188.31C37.69 188.53 36.9267 188.64 36.06 188.64H33.76V194H31.83V179.67H36.06ZM45.2431 183.87V194H43.4631V183.87H45.2431ZM45.6231 180.69C45.6231 180.863 45.5865 181.027 45.5131 181.18C45.4465 181.327 45.3531 181.46 45.2331 181.58C45.1198 181.693 44.9831 181.783 44.8231 181.85C44.6698 181.917 44.5065 181.95 44.3331 181.95C44.1598 181.95 43.9965 181.917 43.8431 181.85C43.6965 181.783 43.5665 181.693 43.4531 181.58C43.3398 181.46 43.2498 181.327 43.1831 181.18C43.1165 181.027 43.0831 180.863 43.0831 180.69C43.0831 180.517 43.1165 180.353 43.1831 180.2C43.2498 180.04 43.3398 179.903 43.4531 179.79C43.5665 179.67 43.6965 179.577 43.8431 179.51C43.9965 179.443 44.1598 179.41 44.3331 179.41C44.5065 179.41 44.6698 179.443 44.8231 179.51C44.9831 179.577 45.1198 179.67 45.2331 179.79C45.3531 179.903 45.4465 180.04 45.5131 180.2C45.5865 180.353 45.6231 180.517 45.6231 180.69ZM55.2178 185.67C55.1645 185.743 55.1111 185.8 55.0578 185.84C55.0045 185.88 54.9311 185.9 54.8378 185.9C54.7378 185.9 54.6278 185.86 54.5078 185.78C54.3878 185.693 54.2378 185.6 54.0578 185.5C53.8845 185.4 53.6678 185.31 53.4078 185.23C53.1545 185.143 52.8411 185.1 52.4678 185.1C51.9678 185.1 51.5278 185.19 51.1478 185.37C50.7678 185.543 50.4478 185.797 50.1878 186.13C49.9345 186.463 49.7411 186.867 49.6078 187.34C49.4811 187.813 49.4178 188.343 49.4178 188.93C49.4178 189.543 49.4878 190.09 49.6278 190.57C49.7678 191.043 49.9645 191.443 50.2178 191.77C50.4778 192.09 50.7878 192.337 51.1478 192.51C51.5145 192.677 51.9245 192.76 52.3778 192.76C52.8111 192.76 53.1678 192.71 53.4478 192.61C53.7278 192.503 53.9578 192.387 54.1378 192.26C54.3245 192.133 54.4778 192.02 54.5978 191.92C54.7245 191.813 54.8478 191.76 54.9678 191.76C55.1145 191.76 55.2278 191.817 55.3078 191.93L55.8078 192.58C55.5878 192.853 55.3378 193.087 55.0578 193.28C54.7778 193.473 54.4745 193.637 54.1478 193.77C53.8278 193.897 53.4911 193.99 53.1378 194.05C52.7845 194.11 52.4245 194.14 52.0578 194.14C51.4245 194.14 50.8345 194.023 50.2878 193.79C49.7478 193.557 49.2778 193.22 48.8778 192.78C48.4778 192.333 48.1645 191.787 47.9378 191.14C47.7111 190.493 47.5978 189.757 47.5978 188.93C47.5978 188.177 47.7011 187.48 47.9078 186.84C48.1211 186.2 48.4278 185.65 48.8278 185.19C49.2345 184.723 49.7311 184.36 50.3178 184.1C50.9111 183.84 51.5911 183.71 52.3578 183.71C53.0711 183.71 53.6978 183.827 54.2378 184.06C54.7845 184.287 55.2678 184.61 55.6878 185.03L55.2178 185.67ZM60.8286 194.16C60.0286 194.16 59.4119 193.937 58.9786 193.49C58.5519 193.043 58.3386 192.4 58.3386 191.56V185.36H57.1186C57.0119 185.36 56.9219 185.33 56.8486 185.27C56.7753 185.203 56.7386 185.103 56.7386 184.97V184.26L58.3986 184.05L58.8086 180.92C58.8286 180.82 58.8719 180.74 58.9386 180.68C59.0119 180.613 59.1053 180.58 59.2186 180.58H60.1186V184.07H63.0486V185.36H60.1186V191.44C60.1186 191.867 60.2219 192.183 60.4286 192.39C60.6353 192.597 60.9019 192.7 61.2286 192.7C61.4153 192.7 61.5753 192.677 61.7086 192.63C61.8486 192.577 61.9686 192.52 62.0686 192.46C62.1686 192.4 62.2519 192.347 62.3186 192.3C62.3919 192.247 62.4553 192.22 62.5086 192.22C62.6019 192.22 62.6853 192.277 62.7586 192.39L63.2786 193.24C62.9719 193.527 62.6019 193.753 62.1686 193.92C61.7353 194.08 61.2886 194.16 60.8286 194.16ZM73.2166 183.87V194H72.1566C71.9032 194 71.7432 193.877 71.6766 193.63L71.5366 192.54C71.0966 193.027 70.6032 193.42 70.0566 193.72C69.5099 194.013 68.8832 194.16 68.1766 194.16C67.6232 194.16 67.1332 194.07 66.7066 193.89C66.2866 193.703 65.9332 193.443 65.6466 193.11C65.3599 192.777 65.1432 192.373 64.9966 191.9C64.8566 191.427 64.7866 190.903 64.7866 190.33V183.87H66.5666V190.33C66.5666 191.097 66.7399 191.69 67.0866 192.11C67.4399 192.53 67.9766 192.74 68.6966 192.74C69.2232 192.74 69.7132 192.617 70.1666 192.37C70.6266 192.117 71.0499 191.77 71.4366 191.33V183.87H73.2166ZM77.7289 185.9C78.0489 185.207 78.4422 184.667 78.9089 184.28C79.3756 183.887 79.9456 183.69 80.6189 183.69C80.8322 183.69 81.0356 183.713 81.2289 183.76C81.4289 183.807 81.6056 183.88 81.7589 183.98L81.6289 185.31C81.5889 185.477 81.4889 185.56 81.3289 185.56C81.2356 185.56 81.0989 185.54 80.9189 185.5C80.7389 185.46 80.5356 185.44 80.3089 185.44C79.9889 185.44 79.7022 185.487 79.4489 185.58C79.2022 185.673 78.9789 185.813 78.7789 186C78.5856 186.18 78.4089 186.407 78.2489 186.68C78.0956 186.947 77.9556 187.253 77.8289 187.6V194H76.0389V183.87H77.0589C77.2522 183.87 77.3856 183.907 77.4589 183.98C77.5322 184.053 77.5822 184.18 77.6089 184.36L77.7289 185.9ZM89.6939 187.83C89.6939 187.417 89.6339 187.04 89.5139 186.7C89.4006 186.353 89.2306 186.057 89.0039 185.81C88.7839 185.557 88.5139 185.363 88.1939 185.23C87.8739 185.09 87.5106 185.02 87.1039 185.02C86.2506 185.02 85.5739 185.27 85.0739 185.77C84.5806 186.263 84.2739 186.95 84.1539 187.83H89.6939ZM91.1339 192.58C90.9139 192.847 90.6506 193.08 90.3439 193.28C90.0372 193.473 89.7072 193.633 89.3539 193.76C89.0072 193.887 88.6472 193.98 88.2739 194.04C87.9006 194.107 87.5306 194.14 87.1639 194.14C86.4639 194.14 85.8172 194.023 85.2239 193.79C84.6372 193.55 84.1272 193.203 83.6939 192.75C83.2672 192.29 82.9339 191.723 82.6939 191.05C82.4539 190.377 82.3339 189.603 82.3339 188.73C82.3339 188.023 82.4406 187.363 82.6539 186.75C82.8739 186.137 83.1872 185.607 83.5939 185.16C84.0006 184.707 84.4972 184.353 85.0839 184.1C85.6706 183.84 86.3306 183.71 87.0639 183.71C87.6706 183.71 88.2306 183.813 88.7439 184.02C89.2639 184.22 89.7106 184.513 90.0839 184.9C90.4639 185.28 90.7606 185.753 90.9739 186.32C91.1872 186.88 91.2939 187.52 91.2939 188.24C91.2939 188.52 91.2639 188.707 91.2039 188.8C91.1439 188.893 91.0306 188.94 90.8639 188.94H84.0939C84.1139 189.58 84.2006 190.137 84.3539 190.61C84.5139 191.083 84.7339 191.48 85.0139 191.8C85.2939 192.113 85.6272 192.35 86.0139 192.51C86.4006 192.663 86.8339 192.74 87.3139 192.74C87.7606 192.74 88.1439 192.69 88.4639 192.59C88.7906 192.483 89.0706 192.37 89.3039 192.25C89.5372 192.13 89.7306 192.02 89.8839 191.92C90.0439 191.813 90.1806 191.76 90.2939 191.76C90.4406 191.76 90.5539 191.817 90.6339 191.93L91.1339 192.58ZM99.3803 185.54C99.3003 185.687 99.177 185.76 99.0103 185.76C98.9103 185.76 98.797 185.723 98.6703 185.65C98.5436 185.577 98.387 185.497 98.2003 185.41C98.0203 185.317 97.8036 185.233 97.5503 185.16C97.297 185.08 96.997 185.04 96.6503 185.04C96.3503 185.04 96.0803 185.08 95.8403 185.16C95.6003 185.233 95.3936 185.337 95.2203 185.47C95.0536 185.603 94.9236 185.76 94.8303 185.94C94.7436 186.113 94.7003 186.303 94.7003 186.51C94.7003 186.77 94.7736 186.987 94.9203 187.16C95.0736 187.333 95.2736 187.483 95.5203 187.61C95.767 187.737 96.047 187.85 96.3603 187.95C96.6736 188.043 96.9936 188.147 97.3203 188.26C97.6536 188.367 97.977 188.487 98.2903 188.62C98.6036 188.753 98.8836 188.92 99.1303 189.12C99.377 189.32 99.5736 189.567 99.7203 189.86C99.8736 190.147 99.9503 190.493 99.9503 190.9C99.9503 191.367 99.867 191.8 99.7003 192.2C99.5336 192.593 99.287 192.937 98.9603 193.23C98.6336 193.517 98.2336 193.743 97.7603 193.91C97.287 194.077 96.7403 194.16 96.1203 194.16C95.4136 194.16 94.7736 194.047 94.2003 193.82C93.627 193.587 93.1403 193.29 92.7403 192.93L93.1603 192.25C93.2136 192.163 93.277 192.097 93.3503 192.05C93.4236 192.003 93.517 191.98 93.6303 191.98C93.7503 191.98 93.877 192.027 94.0103 192.12C94.1436 192.213 94.3036 192.317 94.4903 192.43C94.6836 192.543 94.917 192.647 95.1903 192.74C95.4636 192.833 95.8036 192.88 96.2103 192.88C96.557 192.88 96.8603 192.837 97.1203 192.75C97.3803 192.657 97.597 192.533 97.7703 192.38C97.9436 192.227 98.0703 192.05 98.1503 191.85C98.237 191.65 98.2803 191.437 98.2803 191.21C98.2803 190.93 98.2036 190.7 98.0503 190.52C97.9036 190.333 97.707 190.177 97.4603 190.05C97.2136 189.917 96.9303 189.803 96.6103 189.71C96.297 189.61 95.9736 189.507 95.6403 189.4C95.3136 189.293 94.9903 189.173 94.6703 189.04C94.357 188.9 94.077 188.727 93.8303 188.52C93.5836 188.313 93.3836 188.06 93.2303 187.76C93.0836 187.453 93.0103 187.083 93.0103 186.65C93.0103 186.263 93.0903 185.893 93.2503 185.54C93.4103 185.18 93.6436 184.867 93.9503 184.6C94.257 184.327 94.6336 184.11 95.0803 183.95C95.527 183.79 96.037 183.71 96.6103 183.71C97.277 183.71 97.8736 183.817 98.4003 184.03C98.9336 184.237 99.3936 184.523 99.7803 184.89L99.3803 185.54Z" fill="black"/>
<path d="M41.89 314.04C41.9967 314.04 42.09 314.083 42.17 314.17L42.94 315C42.3533 315.68 41.64 316.21 40.8 316.59C39.9667 316.97 38.9567 317.16 37.77 317.16C36.7433 317.16 35.81 316.983 34.97 316.63C34.13 316.27 33.4133 315.77 32.82 315.13C32.2267 314.483 31.7667 313.71 31.44 312.81C31.1133 311.91 30.95 310.92 30.95 309.84C30.95 308.76 31.12 307.77 31.46 306.87C31.8 305.97 32.2767 305.197 32.89 304.55C33.51 303.903 34.25 303.403 35.11 303.05C35.97 302.69 36.92 302.51 37.96 302.51C38.98 302.51 39.88 302.673 40.66 303C41.44 303.327 42.1267 303.77 42.72 304.33L42.08 305.22C42.04 305.287 41.9867 305.343 41.92 305.39C41.86 305.43 41.7767 305.45 41.67 305.45C41.55 305.45 41.4033 305.387 41.23 305.26C41.0567 305.127 40.83 304.98 40.55 304.82C40.27 304.66 39.92 304.517 39.5 304.39C39.08 304.257 38.5633 304.19 37.95 304.19C37.21 304.19 36.5333 304.32 35.92 304.58C35.3067 304.833 34.7767 305.203 34.33 305.69C33.89 306.177 33.5467 306.77 33.3 307.47C33.0533 308.17 32.93 308.96 32.93 309.84C32.93 310.733 33.0567 311.53 33.31 312.23C33.57 312.93 33.92 313.523 34.36 314.01C34.8067 314.49 35.33 314.857 35.93 315.11C36.5367 315.363 37.19 315.49 37.89 315.49C38.3167 315.49 38.7 315.467 39.04 315.42C39.3867 315.367 39.7033 315.287 39.99 315.18C40.2833 315.073 40.5533 314.94 40.8 314.78C41.0533 314.613 41.3033 314.417 41.55 314.19C41.6633 314.09 41.7767 314.04 41.89 314.04ZM48.8441 306.71C49.5841 306.71 50.2507 306.833 50.8441 307.08C51.4374 307.327 51.9441 307.677 52.3641 308.13C52.7841 308.583 53.1041 309.133 53.3241 309.78C53.5507 310.42 53.6641 311.137 53.6641 311.93C53.6641 312.73 53.5507 313.45 53.3241 314.09C53.1041 314.73 52.7841 315.277 52.3641 315.73C51.9441 316.183 51.4374 316.533 50.8441 316.78C50.2507 317.02 49.5841 317.14 48.8441 317.14C48.0974 317.14 47.4241 317.02 46.8241 316.78C46.2307 316.533 45.7241 316.183 45.3041 315.73C44.8841 315.277 44.5607 314.73 44.3341 314.09C44.1141 313.45 44.0041 312.73 44.0041 311.93C44.0041 311.137 44.1141 310.42 44.3341 309.78C44.5607 309.133 44.8841 308.583 45.3041 308.13C45.7241 307.677 46.2307 307.327 46.8241 307.08C47.4241 306.833 48.0974 306.71 48.8441 306.71ZM48.8441 315.75C49.8441 315.75 50.5907 315.417 51.0841 314.75C51.5774 314.077 51.8241 313.14 51.8241 311.94C51.8241 310.733 51.5774 309.793 51.0841 309.12C50.5907 308.447 49.8441 308.11 48.8441 308.11C48.3374 308.11 47.8941 308.197 47.5141 308.37C47.1407 308.543 46.8274 308.793 46.5741 309.12C46.3274 309.447 46.1407 309.85 46.0141 310.33C45.8941 310.803 45.8341 311.34 45.8341 311.94C45.8341 313.14 46.0807 314.077 46.5741 314.75C47.0741 315.417 47.8307 315.75 48.8441 315.75ZM57.6017 308.34C57.8217 308.093 58.0551 307.87 58.3017 307.67C58.5484 307.47 58.8084 307.3 59.0817 307.16C59.3617 307.013 59.6551 306.903 59.9617 306.83C60.2751 306.75 60.6117 306.71 60.9717 306.71C61.5251 306.71 62.0117 306.803 62.4317 306.99C62.8584 307.17 63.2117 307.43 63.4917 307.77C63.7784 308.103 63.9951 308.507 64.1417 308.98C64.2884 309.453 64.3617 309.977 64.3617 310.55V317H62.5717V310.55C62.5717 309.783 62.3951 309.19 62.0417 308.77C61.6951 308.343 61.1651 308.13 60.4517 308.13C59.9251 308.13 59.4317 308.257 58.9717 308.51C58.5184 308.763 58.0984 309.107 57.7117 309.54V317H55.9217V306.87H56.9917C57.2451 306.87 57.4017 306.993 57.4617 307.24L57.6017 308.34ZM70.0473 317.16C69.2473 317.16 68.6307 316.937 68.1973 316.49C67.7707 316.043 67.5573 315.4 67.5573 314.56V308.36H66.3373C66.2307 308.36 66.1407 308.33 66.0673 308.27C65.994 308.203 65.9573 308.103 65.9573 307.97V307.26L67.6173 307.05L68.0273 303.92C68.0473 303.82 68.0907 303.74 68.1573 303.68C68.2307 303.613 68.324 303.58 68.4373 303.58H69.3373V307.07H72.2673V308.36H69.3373V314.44C69.3373 314.867 69.4407 315.183 69.6473 315.39C69.854 315.597 70.1207 315.7 70.4473 315.7C70.634 315.7 70.794 315.677 70.9273 315.63C71.0673 315.577 71.1873 315.52 71.2873 315.46C71.3873 315.4 71.4707 315.347 71.5373 315.3C71.6107 315.247 71.674 315.22 71.7273 315.22C71.8207 315.22 71.904 315.277 71.9773 315.39L72.4973 316.24C72.1907 316.527 71.8207 316.753 71.3873 316.92C70.954 317.08 70.5073 317.16 70.0473 317.16ZM80.8267 310.83C80.8267 310.417 80.7667 310.04 80.6467 309.7C80.5334 309.353 80.3634 309.057 80.1367 308.81C79.9167 308.557 79.6467 308.363 79.3267 308.23C79.0067 308.09 78.6434 308.02 78.2367 308.02C77.3834 308.02 76.7067 308.27 76.2067 308.77C75.7134 309.263 75.4067 309.95 75.2867 310.83H80.8267ZM82.2667 315.58C82.0467 315.847 81.7834 316.08 81.4767 316.28C81.1701 316.473 80.8401 316.633 80.4867 316.76C80.1401 316.887 79.7801 316.98 79.4067 317.04C79.0334 317.107 78.6634 317.14 78.2967 317.14C77.5967 317.14 76.9501 317.023 76.3567 316.79C75.7701 316.55 75.2601 316.203 74.8267 315.75C74.4001 315.29 74.0667 314.723 73.8267 314.05C73.5867 313.377 73.4667 312.603 73.4667 311.73C73.4667 311.023 73.5734 310.363 73.7867 309.75C74.0067 309.137 74.3201 308.607 74.7267 308.16C75.1334 307.707 75.6301 307.353 76.2167 307.1C76.8034 306.84 77.4634 306.71 78.1967 306.71C78.8034 306.71 79.3634 306.813 79.8767 307.02C80.3967 307.22 80.8434 307.513 81.2167 307.9C81.5967 308.28 81.8934 308.753 82.1067 309.32C82.3201 309.88 82.4267 310.52 82.4267 311.24C82.4267 311.52 82.3967 311.707 82.3367 311.8C82.2767 311.893 82.1634 311.94 81.9967 311.94H75.2267C75.2467 312.58 75.3334 313.137 75.4867 313.61C75.6467 314.083 75.8667 314.48 76.1467 314.8C76.4267 315.113 76.7601 315.35 77.1467 315.51C77.5334 315.663 77.9667 315.74 78.4467 315.74C78.8934 315.74 79.2767 315.69 79.5967 315.59C79.9234 315.483 80.2034 315.37 80.4367 315.25C80.6701 315.13 80.8634 315.02 81.0167 314.92C81.1767 314.813 81.3134 314.76 81.4267 314.76C81.5734 314.76 81.6867 314.817 81.7667 314.93L82.2667 315.58ZM86.2931 308.34C86.5131 308.093 86.7465 307.87 86.9931 307.67C87.2398 307.47 87.4998 307.3 87.7731 307.16C88.0531 307.013 88.3465 306.903 88.6531 306.83C88.9665 306.75 89.3031 306.71 89.6631 306.71C90.2165 306.71 90.7031 306.803 91.1231 306.99C91.5498 307.17 91.9031 307.43 92.1831 307.77C92.4698 308.103 92.6865 308.507 92.8331 308.98C92.9798 309.453 93.0531 309.977 93.0531 310.55V317H91.2631V310.55C91.2631 309.783 91.0865 309.19 90.7331 308.77C90.3865 308.343 89.8565 308.13 89.1431 308.13C88.6165 308.13 88.1231 308.257 87.6631 308.51C87.2098 308.763 86.7898 309.107 86.4031 309.54V317H84.6131V306.87H85.6831C85.9365 306.87 86.0931 306.993 86.1531 307.24L86.2931 308.34ZM98.7388 317.16C97.9388 317.16 97.3221 316.937 96.8888 316.49C96.4621 316.043 96.2488 315.4 96.2488 314.56V308.36H95.0288C94.9221 308.36 94.8321 308.33 94.7588 308.27C94.6854 308.203 94.6488 308.103 94.6488 307.97V307.26L96.3088 307.05L96.7188 303.92C96.7388 303.82 96.7821 303.74 96.8488 303.68C96.9221 303.613 97.0154 303.58 97.1288 303.58H98.0288V307.07H100.959V308.36H98.0288V314.44C98.0288 314.867 98.1321 315.183 98.3388 315.39C98.5454 315.597 98.8121 315.7 99.1388 315.7C99.3254 315.7 99.4854 315.677 99.6188 315.63C99.7588 315.577 99.8788 315.52 99.9788 315.46C100.079 315.4 100.162 315.347 100.229 315.3C100.302 315.247 100.365 315.22 100.419 315.22C100.512 315.22 100.595 315.277 100.669 315.39L101.189 316.24C100.882 316.527 100.512 316.753 100.079 316.92C99.6454 317.08 99.1988 317.16 98.7388 317.16Z" fill="black"/>
<path d="M6.86 437.46C7.41333 437.46 7.89 437.397 8.29 437.27C8.69 437.143 9.01667 436.967 9.27 436.74C9.53 436.507 9.72 436.233 9.84 435.92C9.96 435.6 10.02 435.25 10.02 434.87C10.02 434.13 9.75667 433.547 9.23 433.12C8.70333 432.687 7.91333 432.47 6.86 432.47H3.76V437.46H6.86ZM3.76 426.2V431.09H6.32C6.86667 431.09 7.34 431.03 7.74 430.91C8.14667 430.79 8.48 430.623 8.74 430.41C9.00667 430.197 9.20333 429.94 9.33 429.64C9.45667 429.333 9.52 429 9.52 428.64C9.52 427.793 9.26667 427.177 8.76 426.79C8.25333 426.397 7.46667 426.2 6.4 426.2H3.76ZM6.4 424.67C7.28 424.67 8.03667 424.757 8.67 424.93C9.31 425.103 9.83333 425.35 10.24 425.67C10.6533 425.99 10.9567 426.383 11.15 426.85C11.3433 427.31 11.44 427.83 11.44 428.41C11.44 428.763 11.3833 429.103 11.27 429.43C11.1633 429.75 11 430.05 10.78 430.33C10.56 430.61 10.28 430.863 9.94 431.09C9.60667 431.31 9.21333 431.49 8.76 431.63C9.81333 431.83 10.6033 432.207 11.13 432.76C11.6633 433.307 11.93 434.027 11.93 434.92C11.93 435.527 11.8167 436.08 11.59 436.58C11.37 437.08 11.0433 437.51 10.61 437.87C10.1833 438.23 9.65667 438.51 9.03 438.71C8.40333 438.903 7.69 439 6.89 439H1.83V424.67H6.4ZM18.4534 428.71C19.1934 428.71 19.8601 428.833 20.4534 429.08C21.0468 429.327 21.5534 429.677 21.9734 430.13C22.3934 430.583 22.7134 431.133 22.9334 431.78C23.1601 432.42 23.2734 433.137 23.2734 433.93C23.2734 434.73 23.1601 435.45 22.9334 436.09C22.7134 436.73 22.3934 437.277 21.9734 437.73C21.5534 438.183 21.0468 438.533 20.4534 438.78C19.8601 439.02 19.1934 439.14 18.4534 439.14C17.7068 439.14 17.0334 439.02 16.4334 438.78C15.8401 438.533 15.3334 438.183 14.9134 437.73C14.4934 437.277 14.1701 436.73 13.9434 436.09C13.7234 435.45 13.6134 434.73 13.6134 433.93C13.6134 433.137 13.7234 432.42 13.9434 431.78C14.1701 431.133 14.4934 430.583 14.9134 430.13C15.3334 429.677 15.8401 429.327 16.4334 429.08C17.0334 428.833 17.7068 428.71 18.4534 428.71ZM18.4534 437.75C19.4534 437.75 20.2001 437.417 20.6934 436.75C21.1868 436.077 21.4334 435.14 21.4334 433.94C21.4334 432.733 21.1868 431.793 20.6934 431.12C20.2001 430.447 19.4534 430.11 18.4534 430.11C17.9468 430.11 17.5034 430.197 17.1234 430.37C16.7501 430.543 16.4368 430.793 16.1834 431.12C15.9368 431.447 15.7501 431.85 15.6234 432.33C15.5034 432.803 15.4434 433.34 15.4434 433.94C15.4434 435.14 15.6901 436.077 16.1834 436.75C16.6834 437.417 17.4401 437.75 18.4534 437.75ZM27.3711 424.27V439H25.5911V424.27H27.3711ZM36.8577 431.28C36.5243 430.833 36.1643 430.523 35.7777 430.35C35.391 430.17 34.9577 430.08 34.4777 430.08C33.5377 430.08 32.8143 430.417 32.3077 431.09C31.801 431.763 31.5477 432.723 31.5477 433.97C31.5477 434.63 31.6043 435.197 31.7177 435.67C31.831 436.137 31.9977 436.523 32.2177 436.83C32.4377 437.13 32.7077 437.35 33.0277 437.49C33.3477 437.63 33.711 437.7 34.1177 437.7C34.7043 437.7 35.2143 437.567 35.6477 437.3C36.0877 437.033 36.491 436.657 36.8577 436.17V431.28ZM38.6377 424.27V439H37.5777C37.3243 439 37.1643 438.877 37.0977 438.63L36.9377 437.4C36.5043 437.92 36.011 438.34 35.4577 438.66C34.9043 438.98 34.2643 439.14 33.5377 439.14C32.9577 439.14 32.431 439.03 31.9577 438.81C31.4843 438.583 31.081 438.253 30.7477 437.82C30.4143 437.387 30.1577 436.847 29.9777 436.2C29.7977 435.553 29.7077 434.81 29.7077 433.97C29.7077 433.223 29.8077 432.53 30.0077 431.89C30.2077 431.243 30.4943 430.683 30.8677 430.21C31.241 429.737 31.6977 429.367 32.2377 429.1C32.7843 428.827 33.3977 428.69 34.0777 428.69C34.6977 428.69 35.2277 428.797 35.6677 429.01C36.1143 429.217 36.511 429.507 36.8577 429.88V424.27H38.6377ZM48.2291 432.83C48.2291 432.417 48.1691 432.04 48.0491 431.7C47.9357 431.353 47.7657 431.057 47.5391 430.81C47.3191 430.557 47.0491 430.363 46.7291 430.23C46.4091 430.09 46.0457 430.02 45.6391 430.02C44.7857 430.02 44.1091 430.27 43.6091 430.77C43.1157 431.263 42.8091 431.95 42.6891 432.83H48.2291ZM49.6691 437.58C49.4491 437.847 49.1857 438.08 48.8791 438.28C48.5724 438.473 48.2424 438.633 47.8891 438.76C47.5424 438.887 47.1824 438.98 46.8091 439.04C46.4357 439.107 46.0657 439.14 45.6991 439.14C44.9991 439.14 44.3524 439.023 43.7591 438.79C43.1724 438.55 42.6624 438.203 42.2291 437.75C41.8024 437.29 41.4691 436.723 41.2291 436.05C40.9891 435.377 40.8691 434.603 40.8691 433.73C40.8691 433.023 40.9757 432.363 41.1891 431.75C41.4091 431.137 41.7224 430.607 42.1291 430.16C42.5357 429.707 43.0324 429.353 43.6191 429.1C44.2057 428.84 44.8657 428.71 45.5991 428.71C46.2057 428.71 46.7657 428.813 47.2791 429.02C47.7991 429.22 48.2457 429.513 48.6191 429.9C48.9991 430.28 49.2957 430.753 49.5091 431.32C49.7224 431.88 49.8291 432.52 49.8291 433.24C49.8291 433.52 49.7991 433.707 49.7391 433.8C49.6791 433.893 49.5657 433.94 49.3991 433.94H42.6291C42.6491 434.58 42.7357 435.137 42.8891 435.61C43.0491 436.083 43.2691 436.48 43.5491 436.8C43.8291 437.113 44.1624 437.35 44.5491 437.51C44.9357 437.663 45.3691 437.74 45.8491 437.74C46.2957 437.74 46.6791 437.69 46.9991 437.59C47.3257 437.483 47.6057 437.37 47.8391 437.25C48.0724 437.13 48.2657 437.02 48.4191 436.92C48.5791 436.813 48.7157 436.76 48.8291 436.76C48.9757 436.76 49.0891 436.817 49.1691 436.93L49.6691 437.58ZM58.6155 431.28C58.2821 430.833 57.9221 430.523 57.5355 430.35C57.1488 430.17 56.7155 430.08 56.2355 430.08C55.2955 430.08 54.5721 430.417 54.0655 431.09C53.5588 431.763 53.3055 432.723 53.3055 433.97C53.3055 434.63 53.3621 435.197 53.4755 435.67C53.5888 436.137 53.7555 436.523 53.9755 436.83C54.1955 437.13 54.4655 437.35 54.7855 437.49C55.1055 437.63 55.4688 437.7 55.8755 437.7C56.4621 437.7 56.9721 437.567 57.4055 437.3C57.8455 437.033 58.2488 436.657 58.6155 436.17V431.28ZM60.3955 424.27V439H59.3355C59.0821 439 58.9221 438.877 58.8555 438.63L58.6955 437.4C58.2621 437.92 57.7688 438.34 57.2155 438.66C56.6621 438.98 56.0221 439.14 55.2955 439.14C54.7155 439.14 54.1888 439.03 53.7155 438.81C53.2421 438.583 52.8388 438.253 52.5055 437.82C52.1721 437.387 51.9155 436.847 51.7355 436.2C51.5555 435.553 51.4655 434.81 51.4655 433.97C51.4655 433.223 51.5655 432.53 51.7655 431.89C51.9655 431.243 52.2521 430.683 52.6255 430.21C52.9988 429.737 53.4555 429.367 53.9955 429.1C54.5421 428.827 55.1555 428.69 55.8355 428.69C56.4555 428.69 56.9855 428.797 57.4255 429.01C57.8721 429.217 58.2688 429.507 58.6155 429.88V424.27H60.3955ZM71.4341 439.16C70.6341 439.16 70.0174 438.937 69.5841 438.49C69.1574 438.043 68.9441 437.4 68.9441 436.56V430.36H67.7241C67.6174 430.36 67.5274 430.33 67.4541 430.27C67.3807 430.203 67.3441 430.103 67.3441 429.97V429.26L69.0041 429.05L69.4141 425.92C69.4341 425.82 69.4774 425.74 69.5441 425.68C69.6174 425.613 69.7107 425.58 69.8241 425.58H70.7241V429.07H73.6541V430.36H70.7241V436.44C70.7241 436.867 70.8274 437.183 71.0341 437.39C71.2407 437.597 71.5074 437.7 71.8341 437.7C72.0207 437.7 72.1807 437.677 72.3141 437.63C72.4541 437.577 72.5741 437.52 72.6741 437.46C72.7741 437.4 72.8574 437.347 72.9241 437.3C72.9974 437.247 73.0607 437.22 73.1141 437.22C73.2074 437.22 73.2907 437.277 73.3641 437.39L73.8841 438.24C73.5774 438.527 73.2074 438.753 72.7741 438.92C72.3407 439.08 71.8941 439.16 71.4341 439.16ZM82.2134 432.83C82.2134 432.417 82.1534 432.04 82.0334 431.7C81.9201 431.353 81.7501 431.057 81.5234 430.81C81.3034 430.557 81.0334 430.363 80.7134 430.23C80.3934 430.09 80.0301 430.02 79.6234 430.02C78.7701 430.02 78.0934 430.27 77.5934 430.77C77.1001 431.263 76.7934 431.95 76.6734 432.83H82.2134ZM83.6534 437.58C83.4334 437.847 83.1701 438.08 82.8634 438.28C82.5568 438.473 82.2268 438.633 81.8734 438.76C81.5268 438.887 81.1668 438.98 80.7934 439.04C80.4201 439.107 80.0501 439.14 79.6834 439.14C78.9834 439.14 78.3368 439.023 77.7434 438.79C77.1568 438.55 76.6468 438.203 76.2134 437.75C75.7868 437.29 75.4534 436.723 75.2134 436.05C74.9734 435.377 74.8534 434.603 74.8534 433.73C74.8534 433.023 74.9601 432.363 75.1734 431.75C75.3934 431.137 75.7068 430.607 76.1134 430.16C76.5201 429.707 77.0168 429.353 77.6034 429.1C78.1901 428.84 78.8501 428.71 79.5834 428.71C80.1901 428.71 80.7501 428.813 81.2634 429.02C81.7834 429.22 82.2301 429.513 82.6034 429.9C82.9834 430.28 83.2801 430.753 83.4934 431.32C83.7068 431.88 83.8134 432.52 83.8134 433.24C83.8134 433.52 83.7834 433.707 83.7234 433.8C83.6634 433.893 83.5501 433.94 83.3834 433.94H76.6134C76.6334 434.58 76.7201 435.137 76.8734 435.61C77.0334 436.083 77.2534 436.48 77.5334 436.8C77.8134 437.113 78.1468 437.35 78.5334 437.51C78.9201 437.663 79.3534 437.74 79.8334 437.74C80.2801 437.74 80.6634 437.69 80.9834 437.59C81.3101 437.483 81.5901 437.37 81.8234 437.25C82.0568 437.13 82.2501 437.02 82.4034 436.92C82.5634 436.813 82.7001 436.76 82.8134 436.76C82.9601 436.76 83.0734 436.817 83.1534 436.93L83.6534 437.58ZM94.1831 439H92.4731C92.3265 439 92.2098 438.963 92.1231 438.89C92.0431 438.81 91.9765 438.723 91.9231 438.63L89.3731 434.66C89.3465 434.753 89.3165 434.847 89.2831 434.94C89.2565 435.027 89.2165 435.107 89.1631 435.18L86.8031 438.63C86.7365 438.723 86.6631 438.81 86.5831 438.89C86.5098 438.963 86.4065 439 86.2731 439H84.6831L88.2331 433.8L84.8231 428.87H86.5331C86.6798 428.87 86.7865 428.893 86.8531 428.94C86.9198 428.987 86.9798 429.053 87.0331 429.14L89.5231 432.94C89.5765 432.747 89.6598 432.56 89.7731 432.38L91.9531 429.18C92.0131 429.087 92.0765 429.013 92.1431 428.96C92.2165 428.9 92.3031 428.87 92.4031 428.87H94.0431L90.6331 433.71L94.1831 439ZM98.9341 439.16C98.1341 439.16 97.5174 438.937 97.0841 438.49C96.6574 438.043 96.4441 437.4 96.4441 436.56V430.36H95.2241C95.1174 430.36 95.0274 430.33 94.9541 430.27C94.8807 430.203 94.8441 430.103 94.8441 429.97V429.26L96.5041 429.05L96.9141 425.92C96.9341 425.82 96.9774 425.74 97.0441 425.68C97.1174 425.613 97.2107 425.58 97.3241 425.58H98.2241V429.07H101.154V430.36H98.2241V436.44C98.2241 436.867 98.3274 437.183 98.5341 437.39C98.7407 437.597 99.0074 437.7 99.3341 437.7C99.5207 437.7 99.6807 437.677 99.8141 437.63C99.9541 437.577 100.074 437.52 100.174 437.46C100.274 437.4 100.357 437.347 100.424 437.3C100.497 437.247 100.561 437.22 100.614 437.22C100.707 437.22 100.791 437.277 100.864 437.39L101.384 438.24C101.077 438.527 100.707 438.753 100.274 438.92C99.8407 439.08 99.3941 439.16 98.9341 439.16Z" fill="black"/>
<path d="M26.44 56.67V71H24.5V64.48H16.77V71H14.83V56.67H16.77V63.06H24.5V56.67H26.44ZM36.1509 64.83C36.1509 64.4167 36.0909 64.04 35.9709 63.7C35.8576 63.3533 35.6876 63.0567 35.4609 62.81C35.2409 62.5567 34.9709 62.3633 34.6509 62.23C34.3309 62.09 33.9676 62.02 33.5609 62.02C32.7076 62.02 32.0309 62.27 31.5309 62.77C31.0376 63.2633 30.7309 63.95 30.6109 64.83H36.1509ZM37.5909 69.58C37.3709 69.8467 37.1076 70.08 36.8009 70.28C36.4943 70.4733 36.1643 70.6333 35.8109 70.76C35.4643 70.8867 35.1043 70.98 34.7309 71.04C34.3576 71.1067 33.9876 71.14 33.6209 71.14C32.9209 71.14 32.2743 71.0233 31.6809 70.79C31.0943 70.55 30.5843 70.2033 30.1509 69.75C29.7243 69.29 29.3909 68.7233 29.1509 68.05C28.9109 67.3767 28.7909 66.6033 28.7909 65.73C28.7909 65.0233 28.8976 64.3633 29.1109 63.75C29.3309 63.1367 29.6443 62.6067 30.0509 62.16C30.4576 61.7067 30.9543 61.3533 31.5409 61.1C32.1276 60.84 32.7876 60.71 33.5209 60.71C34.1276 60.71 34.6876 60.8133 35.2009 61.02C35.7209 61.22 36.1676 61.5133 36.5409 61.9C36.9209 62.28 37.2176 62.7533 37.4309 63.32C37.6443 63.88 37.7509 64.52 37.7509 65.24C37.7509 65.52 37.7209 65.7067 37.6609 65.8C37.6009 65.8933 37.4876 65.94 37.3209 65.94H30.5509C30.5709 66.58 30.6576 67.1367 30.8109 67.61C30.9709 68.0833 31.1909 68.48 31.4709 68.8C31.7509 69.1133 32.0843 69.35 32.4709 69.51C32.8576 69.6633 33.2909 69.74 33.7709 69.74C34.2176 69.74 34.6009 69.69 34.9209 69.59C35.2476 69.4833 35.5276 69.37 35.7609 69.25C35.9943 69.13 36.1876 69.02 36.3409 68.92C36.5009 68.8133 36.6376 68.76 36.7509 68.76C36.8976 68.76 37.0109 68.8167 37.0909 68.93L37.5909 69.58ZM45.4273 66.44C44.6073 66.4667 43.9073 66.5333 43.3273 66.64C42.754 66.74 42.284 66.8733 41.9173 67.04C41.5573 67.2067 41.294 67.4033 41.1273 67.63C40.9673 67.8567 40.8873 68.11 40.8873 68.39C40.8873 68.6567 40.9307 68.8867 41.0173 69.08C41.104 69.2733 41.2207 69.4333 41.3673 69.56C41.5207 69.68 41.6973 69.77 41.8973 69.83C42.104 69.8833 42.324 69.91 42.5573 69.91C42.8707 69.91 43.1573 69.88 43.4173 69.82C43.6773 69.7533 43.9207 69.66 44.1473 69.54C44.3807 69.42 44.6007 69.2767 44.8073 69.11C45.0207 68.9433 45.2273 68.7533 45.4273 68.54V66.44ZM39.6773 62.3C40.2373 61.76 40.8407 61.3567 41.4873 61.09C42.134 60.8233 42.8507 60.69 43.6373 60.69C44.204 60.69 44.7073 60.7833 45.1473 60.97C45.5873 61.1567 45.9573 61.4167 46.2573 61.75C46.5573 62.0833 46.784 62.4867 46.9373 62.96C47.0907 63.4333 47.1673 63.9533 47.1673 64.52V71H46.3773C46.204 71 46.0707 70.9733 45.9773 70.92C45.884 70.86 45.8107 70.7467 45.7573 70.58L45.5573 69.62C45.2907 69.8667 45.0307 70.0867 44.7773 70.28C44.524 70.4667 44.2573 70.6267 43.9773 70.76C43.6973 70.8867 43.3973 70.9833 43.0773 71.05C42.764 71.1233 42.414 71.16 42.0273 71.16C41.634 71.16 41.264 71.1067 40.9173 71C40.5707 70.8867 40.2673 70.72 40.0073 70.5C39.754 70.28 39.5507 70.0033 39.3973 69.67C39.2507 69.33 39.1773 68.93 39.1773 68.47C39.1773 68.07 39.2873 67.6867 39.5073 67.32C39.7273 66.9467 40.084 66.6167 40.5773 66.33C41.0707 66.0433 41.714 65.81 42.5073 65.63C43.3007 65.4433 44.274 65.3367 45.4273 65.31V64.52C45.4273 63.7333 45.2573 63.14 44.9173 62.74C44.5773 62.3333 44.0807 62.13 43.4273 62.13C42.9873 62.13 42.6173 62.1867 42.3173 62.3C42.024 62.4067 41.7673 62.53 41.5473 62.67C41.334 62.8033 41.1473 62.9267 40.9873 63.04C40.834 63.1467 40.6807 63.2 40.5273 63.2C40.4073 63.2 40.304 63.17 40.2173 63.11C40.1307 63.0433 40.0573 62.9633 39.9973 62.87L39.6773 62.3ZM56.4788 63.28C56.1454 62.8333 55.7854 62.5233 55.3988 62.35C55.0121 62.17 54.5788 62.08 54.0988 62.08C53.1588 62.08 52.4354 62.4167 51.9288 63.09C51.4221 63.7633 51.1688 64.7233 51.1688 65.97C51.1688 66.63 51.2254 67.1967 51.3388 67.67C51.4521 68.1367 51.6188 68.5233 51.8388 68.83C52.0588 69.13 52.3288 69.35 52.6488 69.49C52.9688 69.63 53.3321 69.7 53.7388 69.7C54.3254 69.7 54.8354 69.5667 55.2688 69.3C55.7088 69.0333 56.1121 68.6567 56.4788 68.17V63.28ZM58.2588 56.27V71H57.1988C56.9454 71 56.7854 70.8767 56.7188 70.63L56.5588 69.4C56.1254 69.92 55.6321 70.34 55.0788 70.66C54.5254 70.98 53.8854 71.14 53.1588 71.14C52.5788 71.14 52.0521 71.03 51.5788 70.81C51.1054 70.5833 50.7021 70.2533 50.3688 69.82C50.0354 69.3867 49.7788 68.8467 49.5988 68.2C49.4188 67.5533 49.3288 66.81 49.3288 65.97C49.3288 65.2233 49.4288 64.53 49.6288 63.89C49.8288 63.2433 50.1154 62.6833 50.4888 62.21C50.8621 61.7367 51.3188 61.3667 51.8588 61.1C52.4054 60.8267 53.0188 60.69 53.6988 60.69C54.3188 60.69 54.8488 60.7967 55.2888 61.01C55.7354 61.2167 56.1321 61.5067 56.4788 61.88V56.27H58.2588ZM62.9102 56.27V71H61.1302V56.27H62.9102ZM67.6767 60.87V71H65.8967V60.87H67.6767ZM68.0567 57.69C68.0567 57.8633 68.0201 58.0267 67.9467 58.18C67.8801 58.3267 67.7867 58.46 67.6667 58.58C67.5534 58.6933 67.4167 58.7833 67.2567 58.85C67.1034 58.9167 66.9401 58.95 66.7667 58.95C66.5934 58.95 66.4301 58.9167 66.2767 58.85C66.1301 58.7833 66.0001 58.6933 65.8867 58.58C65.7734 58.46 65.6834 58.3267 65.6167 58.18C65.5501 58.0267 65.5167 57.8633 65.5167 57.69C65.5167 57.5167 65.5501 57.3533 65.6167 57.2C65.6834 57.04 65.7734 56.9033 65.8867 56.79C66.0001 56.67 66.1301 56.5767 66.2767 56.51C66.4301 56.4433 66.5934 56.41 66.7667 56.41C66.9401 56.41 67.1034 56.4433 67.2567 56.51C67.4167 56.5767 67.5534 56.67 67.6667 56.79C67.7867 56.9033 67.8801 57.04 67.9467 57.2C68.0201 57.3533 68.0567 57.5167 68.0567 57.69ZM72.2814 62.34C72.5014 62.0933 72.7347 61.87 72.9814 61.67C73.2281 61.47 73.4881 61.3 73.7614 61.16C74.0414 61.0133 74.3347 60.9033 74.6414 60.83C74.9547 60.75 75.2914 60.71 75.6514 60.71C76.2047 60.71 76.6914 60.8033 77.1114 60.99C77.5381 61.17 77.8914 61.43 78.1714 61.77C78.4581 62.1033 78.6747 62.5067 78.8214 62.98C78.9681 63.4533 79.0414 63.9767 79.0414 64.55V71H77.2514V64.55C77.2514 63.7833 77.0747 63.19 76.7214 62.77C76.3747 62.3433 75.8447 62.13 75.1314 62.13C74.6047 62.13 74.1114 62.2567 73.6514 62.51C73.1981 62.7633 72.7781 63.1067 72.3914 63.54V71H70.6014V60.87H71.6714C71.9247 60.87 72.0814 60.9933 72.1414 61.24L72.2814 62.34ZM88.5338 64.83C88.5338 64.4167 88.4738 64.04 88.3538 63.7C88.2404 63.3533 88.0704 63.0567 87.8438 62.81C87.6238 62.5567 87.3538 62.3633 87.0338 62.23C86.7138 62.09 86.3504 62.02 85.9438 62.02C85.0904 62.02 84.4138 62.27 83.9138 62.77C83.4204 63.2633 83.1138 63.95 82.9938 64.83H88.5338ZM89.9738 69.58C89.7538 69.8467 89.4904 70.08 89.1838 70.28C88.8771 70.4733 88.5471 70.6333 88.1938 70.76C87.8471 70.8867 87.4871 70.98 87.1138 71.04C86.7404 71.1067 86.3704 71.14 86.0038 71.14C85.3038 71.14 84.6571 71.0233 84.0638 70.79C83.4771 70.55 82.9671 70.2033 82.5338 69.75C82.1071 69.29 81.7738 68.7233 81.5338 68.05C81.2938 67.3767 81.1738 66.6033 81.1738 65.73C81.1738 65.0233 81.2804 64.3633 81.4938 63.75C81.7138 63.1367 82.0271 62.6067 82.4338 62.16C82.8404 61.7067 83.3371 61.3533 83.9238 61.1C84.5104 60.84 85.1704 60.71 85.9038 60.71C86.5104 60.71 87.0704 60.8133 87.5838 61.02C88.1038 61.22 88.5504 61.5133 88.9238 61.9C89.3038 62.28 89.6004 62.7533 89.8138 63.32C90.0271 63.88 90.1338 64.52 90.1338 65.24C90.1338 65.52 90.1038 65.7067 90.0438 65.8C89.9838 65.8933 89.8704 65.94 89.7038 65.94H82.9338C82.9538 66.58 83.0404 67.1367 83.1938 67.61C83.3538 68.0833 83.5738 68.48 83.8538 68.8C84.1338 69.1133 84.4671 69.35 84.8538 69.51C85.2404 69.6633 85.6738 69.74 86.1538 69.74C86.6004 69.74 86.9838 69.69 87.3038 69.59C87.6304 69.4833 87.9104 69.37 88.1438 69.25C88.3771 69.13 88.5704 69.02 88.7238 68.92C88.8838 68.8133 89.0204 68.76 89.1338 68.76C89.2804 68.76 89.3938 68.8167 89.4738 68.93L89.9738 69.58ZM98.2202 62.54C98.1402 62.6867 98.0168 62.76 97.8502 62.76C97.7502 62.76 97.6368 62.7233 97.5102 62.65C97.3835 62.5767 97.2268 62.4967 97.0402 62.41C96.8602 62.3167 96.6435 62.2333 96.3902 62.16C96.1368 62.08 95.8368 62.04 95.4902 62.04C95.1902 62.04 94.9202 62.08 94.6802 62.16C94.4402 62.2333 94.2335 62.3367 94.0602 62.47C93.8935 62.6033 93.7635 62.76 93.6702 62.94C93.5835 63.1133 93.5402 63.3033 93.5402 63.51C93.5402 63.77 93.6135 63.9867 93.7602 64.16C93.9135 64.3333 94.1135 64.4833 94.3602 64.61C94.6068 64.7367 94.8868 64.85 95.2002 64.95C95.5135 65.0433 95.8335 65.1467 96.1602 65.26C96.4935 65.3667 96.8168 65.4867 97.1302 65.62C97.4435 65.7533 97.7235 65.92 97.9702 66.12C98.2168 66.32 98.4135 66.5667 98.5602 66.86C98.7135 67.1467 98.7902 67.4933 98.7902 67.9C98.7902 68.3667 98.7068 68.8 98.5402 69.2C98.3735 69.5933 98.1268 69.9367 97.8002 70.23C97.4735 70.5167 97.0735 70.7433 96.6002 70.91C96.1268 71.0767 95.5802 71.16 94.9602 71.16C94.2535 71.16 93.6135 71.0467 93.0402 70.82C92.4668 70.5867 91.9802 70.29 91.5802 69.93L92.0002 69.25C92.0535 69.1633 92.1168 69.0967 92.1902 69.05C92.2635 69.0033 92.3568 68.98 92.4702 68.98C92.5902 68.98 92.7168 69.0267 92.8502 69.12C92.9835 69.2133 93.1435 69.3167 93.3302 69.43C93.5235 69.5433 93.7568 69.6467 94.0302 69.74C94.3035 69.8333 94.6435 69.88 95.0502 69.88C95.3968 69.88 95.7002 69.8367 95.9602 69.75C96.2202 69.6567 96.4368 69.5333 96.6102 69.38C96.7835 69.2267 96.9102 69.05 96.9902 68.85C97.0768 68.65 97.1202 68.4367 97.1202 68.21C97.1202 67.93 97.0435 67.7 96.8902 67.52C96.7435 67.3333 96.5468 67.1767 96.3002 67.05C96.0535 66.9167 95.7702 66.8033 95.4502 66.71C95.1368 66.61 94.8135 66.5067 94.4802 66.4C94.1535 66.2933 93.8302 66.1733 93.5102 66.04C93.1968 65.9 92.9168 65.7267 92.6702 65.52C92.4235 65.3133 92.2235 65.06 92.0702 64.76C91.9235 64.4533 91.8502 64.0833 91.8502 63.65C91.8502 63.2633 91.9302 62.8933 92.0902 62.54C92.2502 62.18 92.4835 61.8667 92.7902 61.6C93.0968 61.3267 93.4735 61.11 93.9202 60.95C94.3668 60.79 94.8768 60.71 95.4502 60.71C96.1168 60.71 96.7135 60.8167 97.2402 61.03C97.7735 61.2367 98.2335 61.5233 98.6202 61.89L98.2202 62.54Z" fill="black"/>
<rect width="120" height="577" transform="matrix(0 1 1 0 122 2)" fill="#092A60"/>
<path d="M152.81 55.67V56.47C152.81 56.6967 152.783 56.8833 152.73 57.03C152.683 57.1767 152.637 57.3 152.59 57.4L146.65 69.37C146.563 69.5433 146.443 69.6933 146.29 69.82C146.137 69.94 145.933 70 145.68 70H144.4L150.42 58.18C150.507 58.0133 150.597 57.86 150.69 57.72C150.783 57.58 150.883 57.4467 150.99 57.32H143.51C143.397 57.32 143.297 57.2767 143.21 57.19C143.123 57.0967 143.08 56.9933 143.08 56.88V55.67H152.81ZM164.602 62.84C164.602 64.0933 164.465 65.18 164.192 66.1C163.925 67.0133 163.558 67.77 163.092 68.37C162.625 68.97 162.072 69.4167 161.432 69.71C160.798 70.0033 160.118 70.15 159.392 70.15C158.658 70.15 157.975 70.0033 157.342 69.71C156.715 69.4167 156.168 68.97 155.702 68.37C155.235 67.77 154.868 67.0133 154.602 66.1C154.335 65.18 154.202 64.0933 154.202 62.84C154.202 61.5867 154.335 60.5 154.602 59.58C154.868 58.66 155.235 57.9 155.702 57.3C156.168 56.6933 156.715 56.2433 157.342 55.95C157.975 55.6567 158.658 55.51 159.392 55.51C160.118 55.51 160.798 55.6567 161.432 55.95C162.072 56.2433 162.625 56.6933 163.092 57.3C163.558 57.9 163.925 58.66 164.192 59.58C164.465 60.5 164.602 61.5867 164.602 62.84ZM162.752 62.84C162.752 61.7467 162.658 60.83 162.472 60.09C162.292 59.3433 162.045 58.7433 161.732 58.29C161.425 57.8367 161.068 57.5133 160.662 57.32C160.255 57.12 159.832 57.02 159.392 57.02C158.952 57.02 158.528 57.12 158.122 57.32C157.715 57.5133 157.358 57.8367 157.052 58.29C156.745 58.7433 156.498 59.3433 156.312 60.09C156.132 60.83 156.042 61.7467 156.042 62.84C156.042 63.9333 156.132 64.85 156.312 65.59C156.498 66.33 156.745 66.9267 157.052 67.38C157.358 67.8333 157.715 68.16 158.122 68.36C158.528 68.5533 158.952 68.65 159.392 68.65C159.832 68.65 160.255 68.5533 160.662 68.36C161.068 68.16 161.425 67.8333 161.732 67.38C162.045 66.9267 162.292 66.33 162.472 65.59C162.658 64.85 162.752 63.9333 162.752 62.84ZM172.423 59.13C172.423 59.69 172.336 60.1933 172.163 60.64C171.99 61.08 171.756 61.4533 171.463 61.76C171.176 62.06 170.84 62.29 170.453 62.45C170.073 62.61 169.67 62.69 169.243 62.69C168.796 62.69 168.38 62.61 167.993 62.45C167.606 62.29 167.27 62.06 166.983 61.76C166.703 61.4533 166.483 61.08 166.323 60.64C166.163 60.1933 166.083 59.69 166.083 59.13C166.083 58.5567 166.163 58.0467 166.323 57.6C166.483 57.1533 166.703 56.7767 166.983 56.47C167.27 56.1633 167.606 55.93 167.993 55.77C168.38 55.61 168.796 55.53 169.243 55.53C169.696 55.53 170.116 55.61 170.503 55.77C170.89 55.93 171.226 56.1633 171.513 56.47C171.8 56.7767 172.023 57.1533 172.183 57.6C172.343 58.0467 172.423 58.5567 172.423 59.13ZM171.043 59.13C171.043 58.69 170.996 58.3167 170.903 58.01C170.81 57.7033 170.68 57.4533 170.513 57.26C170.353 57.06 170.163 56.9167 169.943 56.83C169.723 56.7433 169.49 56.7 169.243 56.7C168.996 56.7 168.766 56.7433 168.553 56.83C168.34 56.9167 168.153 57.06 167.993 57.26C167.833 57.4533 167.706 57.7033 167.613 58.01C167.52 58.3167 167.473 58.69 167.473 59.13C167.473 59.5633 167.52 59.9333 167.613 60.24C167.706 60.54 167.833 60.7867 167.993 60.98C168.153 61.1667 168.34 61.3033 168.553 61.39C168.766 61.47 168.996 61.51 169.243 61.51C169.49 61.51 169.723 61.47 169.943 61.39C170.163 61.3033 170.353 61.1667 170.513 60.98C170.68 60.7867 170.81 60.54 170.903 60.24C170.996 59.9333 171.043 59.5633 171.043 59.13ZM177.493 55.97C177.56 55.89 177.636 55.82 177.723 55.76C177.816 55.7 177.94 55.67 178.093 55.67H179.383L168.903 69.71C168.843 69.7967 168.766 69.8667 168.673 69.92C168.58 69.9733 168.466 70 168.333 70H167.023L177.493 55.97ZM180.353 66.62C180.353 67.18 180.266 67.68 180.093 68.12C179.92 68.56 179.686 68.9333 179.393 69.24C179.106 69.54 178.77 69.77 178.383 69.93C178.003 70.09 177.6 70.17 177.173 70.17C176.72 70.17 176.3 70.09 175.913 69.93C175.533 69.77 175.2 69.54 174.913 69.24C174.633 68.9333 174.413 68.56 174.253 68.12C174.093 67.68 174.013 67.18 174.013 66.62C174.013 66.0467 174.093 65.5367 174.253 65.09C174.413 64.6367 174.633 64.2567 174.913 63.95C175.2 63.6433 175.533 63.41 175.913 63.25C176.3 63.09 176.72 63.01 177.173 63.01C177.62 63.01 178.036 63.09 178.423 63.25C178.816 63.41 179.153 63.6433 179.433 63.95C179.72 64.2567 179.943 64.6367 180.103 65.09C180.27 65.5367 180.353 66.0467 180.353 66.62ZM178.973 66.62C178.973 66.18 178.926 65.8067 178.833 65.5C178.74 65.1867 178.61 64.9333 178.443 64.74C178.283 64.5467 178.093 64.4067 177.873 64.32C177.653 64.2333 177.42 64.19 177.173 64.19C176.926 64.19 176.693 64.2333 176.473 64.32C176.26 64.4067 176.073 64.5467 175.913 64.74C175.753 64.9333 175.626 65.1867 175.533 65.5C175.446 65.8067 175.403 66.18 175.403 66.62C175.403 67.0533 175.446 67.42 175.533 67.72C175.626 68.02 175.753 68.2667 175.913 68.46C176.073 68.6467 176.26 68.7833 176.473 68.87C176.693 68.95 176.926 68.99 177.173 68.99C177.42 68.99 177.653 68.95 177.873 68.87C178.093 68.7833 178.283 68.6467 178.443 68.46C178.61 68.2667 178.74 68.02 178.833 67.72C178.926 67.42 178.973 67.0533 178.973 66.62Z" fill="white"/>
<rect width="120" height="575" transform="matrix(0 1 1 0 122 2)" stroke="white" stroke-width="3"/>
<rect width="120" height="492" transform="matrix(0 1 1 0 122 124)" fill="#092A60"/>
<path d="M147.78 190.68C148.26 190.68 148.693 190.603 149.08 190.45C149.473 190.297 149.807 190.083 150.08 189.81C150.36 189.537 150.573 189.213 150.72 188.84C150.873 188.467 150.95 188.06 150.95 187.62C150.95 187.153 150.877 186.733 150.73 186.36C150.583 185.98 150.373 185.66 150.1 185.4C149.833 185.133 149.513 184.93 149.14 184.79C148.767 184.65 148.357 184.58 147.91 184.58C147.43 184.58 146.997 184.663 146.61 184.83C146.223 184.99 145.893 185.21 145.62 185.49C145.353 185.763 145.147 186.083 145 186.45C144.86 186.81 144.79 187.187 144.79 187.58C144.79 188.04 144.857 188.46 144.99 188.84C145.123 189.22 145.317 189.547 145.57 189.82C145.83 190.093 146.143 190.307 146.51 190.46C146.883 190.607 147.307 190.68 147.78 190.68ZM146.74 183.04C146.613 183.2 146.49 183.357 146.37 183.51C146.257 183.657 146.147 183.803 146.04 183.95C146.38 183.717 146.753 183.537 147.16 183.41C147.567 183.283 148.01 183.22 148.49 183.22C149.07 183.22 149.617 183.317 150.13 183.51C150.643 183.697 151.09 183.973 151.47 184.34C151.857 184.7 152.163 185.147 152.39 185.68C152.617 186.207 152.73 186.81 152.73 187.49C152.73 188.15 152.61 188.763 152.37 189.33C152.13 189.897 151.793 190.39 151.36 190.81C150.933 191.23 150.417 191.56 149.81 191.8C149.21 192.04 148.547 192.16 147.82 192.16C147.1 192.16 146.447 192.047 145.86 191.82C145.273 191.587 144.773 191.26 144.36 190.84C143.953 190.413 143.637 189.9 143.41 189.3C143.19 188.693 143.08 188.017 143.08 187.27C143.08 186.643 143.217 185.977 143.49 185.27C143.77 184.557 144.213 183.797 144.82 182.99L148.46 178.1C148.553 177.98 148.68 177.88 148.84 177.8C149.007 177.713 149.197 177.67 149.41 177.67H150.99L146.74 183.04ZM164.602 184.84C164.602 186.093 164.465 187.18 164.192 188.1C163.925 189.013 163.558 189.77 163.092 190.37C162.625 190.97 162.072 191.417 161.432 191.71C160.798 192.003 160.118 192.15 159.392 192.15C158.658 192.15 157.975 192.003 157.342 191.71C156.715 191.417 156.168 190.97 155.702 190.37C155.235 189.77 154.868 189.013 154.602 188.1C154.335 187.18 154.202 186.093 154.202 184.84C154.202 183.587 154.335 182.5 154.602 181.58C154.868 180.66 155.235 179.9 155.702 179.3C156.168 178.693 156.715 178.243 157.342 177.95C157.975 177.657 158.658 177.51 159.392 177.51C160.118 177.51 160.798 177.657 161.432 177.95C162.072 178.243 162.625 178.693 163.092 179.3C163.558 179.9 163.925 180.66 164.192 181.58C164.465 182.5 164.602 183.587 164.602 184.84ZM162.752 184.84C162.752 183.747 162.658 182.83 162.472 182.09C162.292 181.343 162.045 180.743 161.732 180.29C161.425 179.837 161.068 179.513 160.662 179.32C160.255 179.12 159.832 179.02 159.392 179.02C158.952 179.02 158.528 179.12 158.122 179.32C157.715 179.513 157.358 179.837 157.052 180.29C156.745 180.743 156.498 181.343 156.312 182.09C156.132 182.83 156.042 183.747 156.042 184.84C156.042 185.933 156.132 186.85 156.312 187.59C156.498 188.33 156.745 188.927 157.052 189.38C157.358 189.833 157.715 190.16 158.122 190.36C158.528 190.553 158.952 190.65 159.392 190.65C159.832 190.65 160.255 190.553 160.662 190.36C161.068 190.16 161.425 189.833 161.732 189.38C162.045 188.927 162.292 188.33 162.472 187.59C162.658 186.85 162.752 185.933 162.752 184.84ZM172.423 181.13C172.423 181.69 172.336 182.193 172.163 182.64C171.99 183.08 171.756 183.453 171.463 183.76C171.176 184.06 170.84 184.29 170.453 184.45C170.073 184.61 169.67 184.69 169.243 184.69C168.796 184.69 168.38 184.61 167.993 184.45C167.606 184.29 167.27 184.06 166.983 183.76C166.703 183.453 166.483 183.08 166.323 182.64C166.163 182.193 166.083 181.69 166.083 181.13C166.083 180.557 166.163 180.047 166.323 179.6C166.483 179.153 166.703 178.777 166.983 178.47C167.27 178.163 167.606 177.93 167.993 177.77C168.38 177.61 168.796 177.53 169.243 177.53C169.696 177.53 170.116 177.61 170.503 177.77C170.89 177.93 171.226 178.163 171.513 178.47C171.8 178.777 172.023 179.153 172.183 179.6C172.343 180.047 172.423 180.557 172.423 181.13ZM171.043 181.13C171.043 180.69 170.996 180.317 170.903 180.01C170.81 179.703 170.68 179.453 170.513 179.26C170.353 179.06 170.163 178.917 169.943 178.83C169.723 178.743 169.49 178.7 169.243 178.7C168.996 178.7 168.766 178.743 168.553 178.83C168.34 178.917 168.153 179.06 167.993 179.26C167.833 179.453 167.706 179.703 167.613 180.01C167.52 180.317 167.473 180.69 167.473 181.13C167.473 181.563 167.52 181.933 167.613 182.24C167.706 182.54 167.833 182.787 167.993 182.98C168.153 183.167 168.34 183.303 168.553 183.39C168.766 183.47 168.996 183.51 169.243 183.51C169.49 183.51 169.723 183.47 169.943 183.39C170.163 183.303 170.353 183.167 170.513 182.98C170.68 182.787 170.81 182.54 170.903 182.24C170.996 181.933 171.043 181.563 171.043 181.13ZM177.493 177.97C177.56 177.89 177.636 177.82 177.723 177.76C177.816 177.7 177.94 177.67 178.093 177.67H179.383L168.903 191.71C168.843 191.797 168.766 191.867 168.673 191.92C168.58 191.973 168.466 192 168.333 192H167.023L177.493 177.97ZM180.353 188.62C180.353 189.18 180.266 189.68 180.093 190.12C179.92 190.56 179.686 190.933 179.393 191.24C179.106 191.54 178.77 191.77 178.383 191.93C178.003 192.09 177.6 192.17 177.173 192.17C176.72 192.17 176.3 192.09 175.913 191.93C175.533 191.77 175.2 191.54 174.913 191.24C174.633 190.933 174.413 190.56 174.253 190.12C174.093 189.68 174.013 189.18 174.013 188.62C174.013 188.047 174.093 187.537 174.253 187.09C174.413 186.637 174.633 186.257 174.913 185.95C175.2 185.643 175.533 185.41 175.913 185.25C176.3 185.09 176.72 185.01 177.173 185.01C177.62 185.01 178.036 185.09 178.423 185.25C178.816 185.41 179.153 185.643 179.433 185.95C179.72 186.257 179.943 186.637 180.103 187.09C180.27 187.537 180.353 188.047 180.353 188.62ZM178.973 188.62C178.973 188.18 178.926 187.807 178.833 187.5C178.74 187.187 178.61 186.933 178.443 186.74C178.283 186.547 178.093 186.407 177.873 186.32C177.653 186.233 177.42 186.19 177.173 186.19C176.926 186.19 176.693 186.233 176.473 186.32C176.26 186.407 176.073 186.547 175.913 186.74C175.753 186.933 175.626 187.187 175.533 187.5C175.446 187.807 175.403 188.18 175.403 188.62C175.403 189.053 175.446 189.42 175.533 189.72C175.626 190.02 175.753 190.267 175.913 190.46C176.073 190.647 176.26 190.783 176.473 190.87C176.693 190.95 176.926 190.99 177.173 190.99C177.42 190.99 177.653 190.95 177.873 190.87C178.093 190.783 178.283 190.647 178.443 190.46C178.61 190.267 178.74 190.02 178.833 189.72C178.926 189.42 178.973 189.053 178.973 188.62Z" fill="white"/>
<rect width="120" height="492" transform="matrix(0 1 1 0 122 124)" stroke="white" stroke-width="3"/>
<rect width="120" height="132" transform="matrix(0 1 1 0 122 246)" fill="#092A60"/>
<path d="M152.18 312.64V314H144.5V312.64H147.57V302.87C147.57 302.577 147.58 302.28 147.6 301.98L145.05 304.17C144.963 304.243 144.877 304.29 144.79 304.31C144.703 304.323 144.623 304.323 144.55 304.31C144.477 304.297 144.407 304.27 144.34 304.23C144.28 304.19 144.233 304.147 144.2 304.1L143.64 303.33L147.91 299.64H149.36V312.64H152.18ZM159.382 312.68C159.862 312.68 160.295 312.603 160.682 312.45C161.075 312.297 161.408 312.083 161.682 311.81C161.962 311.537 162.175 311.213 162.322 310.84C162.475 310.467 162.552 310.06 162.552 309.62C162.552 309.153 162.478 308.733 162.332 308.36C162.185 307.98 161.975 307.66 161.702 307.4C161.435 307.133 161.115 306.93 160.742 306.79C160.368 306.65 159.958 306.58 159.512 306.58C159.032 306.58 158.598 306.663 158.212 306.83C157.825 306.99 157.495 307.21 157.222 307.49C156.955 307.763 156.748 308.083 156.602 308.45C156.462 308.81 156.392 309.187 156.392 309.58C156.392 310.04 156.458 310.46 156.592 310.84C156.725 311.22 156.918 311.547 157.172 311.82C157.432 312.093 157.745 312.307 158.112 312.46C158.485 312.607 158.908 312.68 159.382 312.68ZM158.342 305.04C158.215 305.2 158.092 305.357 157.972 305.51C157.858 305.657 157.748 305.803 157.642 305.95C157.982 305.717 158.355 305.537 158.762 305.41C159.168 305.283 159.612 305.22 160.092 305.22C160.672 305.22 161.218 305.317 161.732 305.51C162.245 305.697 162.692 305.973 163.072 306.34C163.458 306.7 163.765 307.147 163.992 307.68C164.218 308.207 164.332 308.81 164.332 309.49C164.332 310.15 164.212 310.763 163.972 311.33C163.732 311.897 163.395 312.39 162.962 312.81C162.535 313.23 162.018 313.56 161.412 313.8C160.812 314.04 160.148 314.16 159.422 314.16C158.702 314.16 158.048 314.047 157.462 313.82C156.875 313.587 156.375 313.26 155.962 312.84C155.555 312.413 155.238 311.9 155.012 311.3C154.792 310.693 154.682 310.017 154.682 309.27C154.682 308.643 154.818 307.977 155.092 307.27C155.372 306.557 155.815 305.797 156.422 304.99L160.062 300.1C160.155 299.98 160.282 299.88 160.442 299.8C160.608 299.713 160.798 299.67 161.012 299.67H162.592L158.342 305.04ZM172.423 303.13C172.423 303.69 172.336 304.193 172.163 304.64C171.99 305.08 171.756 305.453 171.463 305.76C171.176 306.06 170.84 306.29 170.453 306.45C170.073 306.61 169.67 306.69 169.243 306.69C168.796 306.69 168.38 306.61 167.993 306.45C167.606 306.29 167.27 306.06 166.983 305.76C166.703 305.453 166.483 305.08 166.323 304.64C166.163 304.193 166.083 303.69 166.083 303.13C166.083 302.557 166.163 302.047 166.323 301.6C166.483 301.153 166.703 300.777 166.983 300.47C167.27 300.163 167.606 299.93 167.993 299.77C168.38 299.61 168.796 299.53 169.243 299.53C169.696 299.53 170.116 299.61 170.503 299.77C170.89 299.93 171.226 300.163 171.513 300.47C171.8 300.777 172.023 301.153 172.183 301.6C172.343 302.047 172.423 302.557 172.423 303.13ZM171.043 303.13C171.043 302.69 170.996 302.317 170.903 302.01C170.81 301.703 170.68 301.453 170.513 301.26C170.353 301.06 170.163 300.917 169.943 300.83C169.723 300.743 169.49 300.7 169.243 300.7C168.996 300.7 168.766 300.743 168.553 300.83C168.34 300.917 168.153 301.06 167.993 301.26C167.833 301.453 167.706 301.703 167.613 302.01C167.52 302.317 167.473 302.69 167.473 303.13C167.473 303.563 167.52 303.933 167.613 304.24C167.706 304.54 167.833 304.787 167.993 304.98C168.153 305.167 168.34 305.303 168.553 305.39C168.766 305.47 168.996 305.51 169.243 305.51C169.49 305.51 169.723 305.47 169.943 305.39C170.163 305.303 170.353 305.167 170.513 304.98C170.68 304.787 170.81 304.54 170.903 304.24C170.996 303.933 171.043 303.563 171.043 303.13ZM177.493 299.97C177.56 299.89 177.636 299.82 177.723 299.76C177.816 299.7 177.94 299.67 178.093 299.67H179.383L168.903 313.71C168.843 313.797 168.766 313.867 168.673 313.92C168.58 313.973 168.466 314 168.333 314H167.023L177.493 299.97ZM180.353 310.62C180.353 311.18 180.266 311.68 180.093 312.12C179.92 312.56 179.686 312.933 179.393 313.24C179.106 313.54 178.77 313.77 178.383 313.93C178.003 314.09 177.6 314.17 177.173 314.17C176.72 314.17 176.3 314.09 175.913 313.93C175.533 313.77 175.2 313.54 174.913 313.24C174.633 312.933 174.413 312.56 174.253 312.12C174.093 311.68 174.013 311.18 174.013 310.62C174.013 310.047 174.093 309.537 174.253 309.09C174.413 308.637 174.633 308.257 174.913 307.95C175.2 307.643 175.533 307.41 175.913 307.25C176.3 307.09 176.72 307.01 177.173 307.01C177.62 307.01 178.036 307.09 178.423 307.25C178.816 307.41 179.153 307.643 179.433 307.95C179.72 308.257 179.943 308.637 180.103 309.09C180.27 309.537 180.353 310.047 180.353 310.62ZM178.973 310.62C178.973 310.18 178.926 309.807 178.833 309.5C178.74 309.187 178.61 308.933 178.443 308.74C178.283 308.547 178.093 308.407 177.873 308.32C177.653 308.233 177.42 308.19 177.173 308.19C176.926 308.19 176.693 308.233 176.473 308.32C176.26 308.407 176.073 308.547 175.913 308.74C175.753 308.933 175.626 309.187 175.533 309.5C175.446 309.807 175.403 310.18 175.403 310.62C175.403 311.053 175.446 311.42 175.533 311.72C175.626 312.02 175.753 312.267 175.913 312.46C176.073 312.647 176.26 312.783 176.473 312.87C176.693 312.95 176.926 312.99 177.173 312.99C177.42 312.99 177.653 312.95 177.873 312.87C178.093 312.783 178.283 312.647 178.443 312.46C178.61 312.267 178.74 312.02 178.833 311.72C178.926 311.42 178.973 311.053 178.973 310.62Z" fill="white"/>
<rect width="120" height="132" transform="matrix(0 1 1 0 122 246)" stroke="white" stroke-width="3"/>
<rect width="120" height="105" transform="matrix(0 1 1 0 122 368)" fill="#092A60"/>
<rect width="120" height="105" transform="matrix(0 1 1 0 122 368)" stroke="white" stroke-width="3"/>
<path d="M152.18 437.64V439H144.5V437.64H147.57V427.87C147.57 427.577 147.58 427.28 147.6 426.98L145.05 429.17C144.963 429.243 144.877 429.29 144.79 429.31C144.703 429.323 144.623 429.323 144.55 429.31C144.477 429.297 144.407 429.27 144.34 429.23C144.28 429.19 144.233 429.147 144.2 429.1L143.64 428.33L147.91 424.64H149.36V437.64H152.18ZM154.902 428.55C154.995 427.897 155.175 427.32 155.442 426.82C155.708 426.313 156.045 425.89 156.452 425.55C156.865 425.21 157.335 424.953 157.862 424.78C158.395 424.6 158.968 424.51 159.582 424.51C160.188 424.51 160.748 424.597 161.262 424.77C161.775 424.943 162.215 425.19 162.582 425.51C162.955 425.83 163.245 426.217 163.452 426.67C163.658 427.123 163.762 427.627 163.762 428.18C163.762 428.633 163.702 429.04 163.582 429.4C163.468 429.753 163.302 430.063 163.082 430.33C162.868 430.597 162.608 430.823 162.302 431.01C161.995 431.197 161.652 431.35 161.272 431.47C162.205 431.71 162.905 432.123 163.372 432.71C163.845 433.29 164.082 434.017 164.082 434.89C164.082 435.55 163.955 436.143 163.702 436.67C163.455 437.197 163.115 437.647 162.682 438.02C162.248 438.387 161.742 438.67 161.162 438.87C160.588 439.063 159.972 439.16 159.312 439.16C158.552 439.16 157.902 439.067 157.362 438.88C156.822 438.687 156.365 438.423 155.992 438.09C155.618 437.757 155.312 437.363 155.072 436.91C154.832 436.45 154.628 435.953 154.462 435.42L155.232 435.1C155.432 435.013 155.625 434.99 155.812 435.03C156.005 435.07 156.145 435.18 156.232 435.36C156.318 435.547 156.425 435.77 156.552 436.03C156.685 436.29 156.865 436.54 157.092 436.78C157.318 437.02 157.605 437.223 157.952 437.39C158.305 437.557 158.752 437.64 159.292 437.64C159.792 437.64 160.228 437.56 160.602 437.4C160.982 437.233 161.295 437.02 161.542 436.76C161.795 436.5 161.985 436.21 162.112 435.89C162.238 435.57 162.302 435.253 162.302 434.94C162.302 434.553 162.252 434.2 162.152 433.88C162.052 433.56 161.865 433.283 161.592 433.05C161.318 432.817 160.942 432.633 160.462 432.5C159.988 432.367 159.378 432.3 158.632 432.3V431.01C159.245 431.003 159.765 430.937 160.192 430.81C160.625 430.683 160.975 430.51 161.242 430.29C161.515 430.07 161.712 429.807 161.832 429.5C161.958 429.193 162.022 428.853 162.022 428.48C162.022 428.067 161.955 427.707 161.822 427.4C161.695 427.093 161.518 426.84 161.292 426.64C161.065 426.44 160.795 426.29 160.482 426.19C160.175 426.09 159.842 426.04 159.482 426.04C159.122 426.04 158.785 426.093 158.472 426.2C158.165 426.307 157.892 426.457 157.652 426.65C157.418 426.837 157.222 427.06 157.062 427.32C156.902 427.58 156.788 427.867 156.722 428.18C156.635 428.413 156.525 428.57 156.392 428.65C156.265 428.723 156.078 428.743 155.832 428.71L154.902 428.55ZM172.423 428.13C172.423 428.69 172.336 429.193 172.163 429.64C171.99 430.08 171.756 430.453 171.463 430.76C171.176 431.06 170.84 431.29 170.453 431.45C170.073 431.61 169.67 431.69 169.243 431.69C168.796 431.69 168.38 431.61 167.993 431.45C167.606 431.29 167.27 431.06 166.983 430.76C166.703 430.453 166.483 430.08 166.323 429.64C166.163 429.193 166.083 428.69 166.083 428.13C166.083 427.557 166.163 427.047 166.323 426.6C166.483 426.153 166.703 425.777 166.983 425.47C167.27 425.163 167.606 424.93 167.993 424.77C168.38 424.61 168.796 424.53 169.243 424.53C169.696 424.53 170.116 424.61 170.503 424.77C170.89 424.93 171.226 425.163 171.513 425.47C171.8 425.777 172.023 426.153 172.183 426.6C172.343 427.047 172.423 427.557 172.423 428.13ZM171.043 428.13C171.043 427.69 170.996 427.317 170.903 427.01C170.81 426.703 170.68 426.453 170.513 426.26C170.353 426.06 170.163 425.917 169.943 425.83C169.723 425.743 169.49 425.7 169.243 425.7C168.996 425.7 168.766 425.743 168.553 425.83C168.34 425.917 168.153 426.06 167.993 426.26C167.833 426.453 167.706 426.703 167.613 427.01C167.52 427.317 167.473 427.69 167.473 428.13C167.473 428.563 167.52 428.933 167.613 429.24C167.706 429.54 167.833 429.787 167.993 429.98C168.153 430.167 168.34 430.303 168.553 430.39C168.766 430.47 168.996 430.51 169.243 430.51C169.49 430.51 169.723 430.47 169.943 430.39C170.163 430.303 170.353 430.167 170.513 429.98C170.68 429.787 170.81 429.54 170.903 429.24C170.996 428.933 171.043 428.563 171.043 428.13ZM177.493 424.97C177.56 424.89 177.636 424.82 177.723 424.76C177.816 424.7 177.94 424.67 178.093 424.67H179.383L168.903 438.71C168.843 438.797 168.766 438.867 168.673 438.92C168.58 438.973 168.466 439 168.333 439H167.023L177.493 424.97ZM180.353 435.62C180.353 436.18 180.266 436.68 180.093 437.12C179.92 437.56 179.686 437.933 179.393 438.24C179.106 438.54 178.77 438.77 178.383 438.93C178.003 439.09 177.6 439.17 177.173 439.17C176.72 439.17 176.3 439.09 175.913 438.93C175.533 438.77 175.2 438.54 174.913 438.24C174.633 437.933 174.413 437.56 174.253 437.12C174.093 436.68 174.013 436.18 174.013 435.62C174.013 435.047 174.093 434.537 174.253 434.09C174.413 433.637 174.633 433.257 174.913 432.95C175.2 432.643 175.533 432.41 175.913 432.25C176.3 432.09 176.72 432.01 177.173 432.01C177.62 432.01 178.036 432.09 178.423 432.25C178.816 432.41 179.153 432.643 179.433 432.95C179.72 433.257 179.943 433.637 180.103 434.09C180.27 434.537 180.353 435.047 180.353 435.62ZM178.973 435.62C178.973 435.18 178.926 434.807 178.833 434.5C178.74 434.187 178.61 433.933 178.443 433.74C178.283 433.547 178.093 433.407 177.873 433.32C177.653 433.233 177.42 433.19 177.173 433.19C176.926 433.19 176.693 433.233 176.473 433.32C176.26 433.407 176.073 433.547 175.913 433.74C175.753 433.933 175.626 434.187 175.533 434.5C175.446 434.807 175.403 435.18 175.403 435.62C175.403 436.053 175.446 436.42 175.533 436.72C175.626 437.02 175.753 437.267 175.913 437.46C176.073 437.647 176.26 437.783 176.473 437.87C176.693 437.95 176.926 437.99 177.173 437.99C177.42 437.99 177.653 437.95 177.873 437.87C178.093 437.783 178.283 437.647 178.443 437.46C178.61 437.267 178.74 437.02 178.833 436.72C178.926 436.42 178.973 436.053 178.973 435.62Z" fill="white"/>
</svg>
