<svg width="458" height="80" viewBox="0 0 458 80" fill="none" xmlns="http://www.w3.org/2000/svg">
<path d="M27.24 35.3C26.76 36.42 25.78 38.34 24.3 41.06C22.7 43.94 21.4 46.46 20.4 48.62C19.4 50.78 18.52 53.24 17.76 56C17.04 58.76 16.68 61.64 16.68 64.64L16.8 66.68C16.92 67.72 16.98 68.66 16.98 69.5C16.98 70.74 16.6 71.78 15.84 72.62C15.08 73.46 14 73.88 12.6 73.88C11.16 73.88 10.06 73.4 9.3 72.44C8.58 71.48 8.22 70.2 8.22 68.6C8.22 66.12 8.76 63.6 9.84 61.04C10.92 58.44 12.2 56.04 13.68 53.84C15.2 51.6 17.16 48.9 19.56 45.74C20.04 45.06 20.56 44.36 21.12 43.64C21.68 42.92 22.26 42.14 22.86 41.3H6.9C5.82 41.3 5 41.38 4.44 41.54C3.92 41.7 3.56 41.96 3.36 42.32C3.16 42.68 3 43.24 2.88 44H1.62C1.62 39.2 1.54 35.78 1.38 33.74C2.26 33.94 5.24 34.04 10.32 34.04H27.24V35.3ZM47.8247 39.8C50.3047 41.92 52.1647 43.6 53.4047 44.84C54.6847 46.04 55.8047 47.48 56.7647 49.16C57.7247 50.8 58.2047 52.58 58.2047 54.5C58.2047 56.7 57.5647 58.66 56.2847 60.38C55.0447 62.1 53.3047 63.44 51.0647 64.4C48.8247 65.36 46.3047 65.84 43.5047 65.84C40.9847 65.84 38.6647 65.46 36.5447 64.7C34.4247 63.9 32.7247 62.72 31.4447 61.16C30.2047 59.6 29.5847 57.74 29.5847 55.58C29.5847 52.98 30.4647 50.72 32.2247 48.8C33.9847 46.88 36.3647 45.26 39.3647 43.94C36.8847 41.82 34.9647 39.82 33.6047 37.94C32.2447 36.02 31.5647 33.86 31.5647 31.46C31.5647 29.38 32.1447 27.6 33.3047 26.12C34.4647 24.64 36.0047 23.54 37.9247 22.82C39.8447 22.06 41.9647 21.68 44.2847 21.68C47.7247 21.68 50.5447 22.46 52.7447 24.02C54.9447 25.54 56.0447 27.56 56.0447 30.08C56.0447 32.04 55.3447 33.8 53.9447 35.36C52.5847 36.88 50.5447 38.36 47.8247 39.8ZM43.8047 22.76C42.4847 22.76 41.4247 23.22 40.6247 24.14C39.8647 25.02 39.4847 26.22 39.4847 27.74C39.4847 29.74 40.1047 31.6 41.3447 33.32C42.6247 35.04 44.4647 36.94 46.8647 39.02C47.6247 37.94 48.1847 36.64 48.5447 35.12C48.9047 33.56 49.0847 32.04 49.0847 30.56C49.0847 28.12 48.6047 26.22 47.6447 24.86C46.7247 23.46 45.4447 22.76 43.8047 22.76ZM43.8047 64.76C45.6847 64.76 47.1647 64.18 48.2447 63.02C49.3247 61.82 49.8647 60.24 49.8647 58.28C49.8647 56.48 49.4247 54.82 48.5447 53.3C47.6647 51.78 46.6247 50.44 45.4247 49.28C44.2247 48.12 42.5047 46.6 40.2647 44.72C38.1047 47 37.0247 50.26 37.0247 54.5C37.0247 57.54 37.5447 60.02 38.5847 61.94C39.6647 63.82 41.4047 64.76 43.8047 64.76ZM100.598 16.34L65.4975 68.3L64.3575 67.52L99.4575 15.56L100.598 16.34ZM72.0975 19.34C75.0175 19.34 77.3575 20.22 79.1175 21.98C80.9175 23.7 81.8175 26.08 81.8175 29.12C81.8175 31.12 81.3975 32.88 80.5575 34.4C79.7175 35.92 78.5575 37.1 77.0775 37.94C75.5975 38.78 73.9375 39.2 72.0975 39.2C69.1775 39.2 66.8175 38.34 65.0175 36.62C63.2175 34.86 62.3175 32.46 62.3175 29.42C62.3175 27.46 62.7375 25.72 63.5775 24.2C64.4175 22.64 65.5775 21.44 67.0575 20.6C68.5775 19.76 70.2575 19.34 72.0975 19.34ZM71.9775 20.42C69.3775 20.42 68.0775 23.4 68.0775 29.36C68.0775 32.24 68.4375 34.42 69.1575 35.9C69.8775 37.38 70.8975 38.12 72.2175 38.12C74.7775 38.12 76.0575 35.16 76.0575 29.24C76.0575 26.32 75.6975 24.12 74.9775 22.64C74.2975 21.16 73.2975 20.42 71.9775 20.42ZM92.2575 45.98C95.1775 45.98 97.5175 46.86 99.2775 48.62C101.078 50.34 101.978 52.72 101.978 55.76C101.978 57.76 101.558 59.52 100.718 61.04C99.8775 62.56 98.7175 63.74 97.2375 64.58C95.7575 65.42 94.0975 65.84 92.2575 65.84C89.3375 65.84 86.9775 64.98 85.1775 63.26C83.3775 61.5 82.4775 59.1 82.4775 56.06C82.4775 54.1 82.8975 52.36 83.7375 50.84C84.5775 49.28 85.7375 48.08 87.2175 47.24C88.7375 46.4 90.4175 45.98 92.2575 45.98ZM92.1375 47.06C89.5375 47.06 88.2375 50.04 88.2375 56C88.2375 58.88 88.5975 61.06 89.3175 62.54C90.0375 64.02 91.0575 64.76 92.3775 64.76C94.9375 64.76 96.2175 61.8 96.2175 55.88C96.2175 52.96 95.8575 50.76 95.1375 49.28C94.4575 47.8 93.4575 47.06 92.1375 47.06Z" fill="#0F4FAD"/>
<path d="M132.367 36L132.007 34.7432H131.866C131.579 35.2002 131.172 35.5547 130.645 35.8066C130.117 36.0527 129.517 36.1758 128.843 36.1758C127.688 36.1758 126.818 35.8682 126.232 35.2529C125.646 34.6318 125.354 33.7412 125.354 32.5811V26.1738H128.034V31.9131C128.034 32.6221 128.16 33.1553 128.412 33.5127C128.664 33.8643 129.065 34.04 129.616 34.04C130.366 34.04 130.908 33.791 131.242 33.293C131.576 32.7891 131.743 31.957 131.743 30.7969V26.1738H134.424V36H132.367ZM146.307 36H143.626V30.2607C143.626 29.5518 143.5 29.0215 143.248 28.6699C142.996 28.3125 142.595 28.1338 142.044 28.1338C141.294 28.1338 140.752 28.3857 140.418 28.8896C140.084 29.3877 139.917 30.2168 139.917 31.377V36H137.236V26.1738H139.284L139.645 27.4307H139.794C140.093 26.9561 140.503 26.5986 141.024 26.3584C141.552 26.1123 142.149 25.9893 142.817 25.9893C143.96 25.9893 144.827 26.2998 145.419 26.9209C146.011 27.5361 146.307 28.4268 146.307 29.5928V36ZM152.178 36.1758C151.023 36.1758 150.115 35.7275 149.453 34.8311C148.797 33.9346 148.469 32.6924 148.469 31.1045C148.469 29.4932 148.803 28.2393 149.471 27.3428C150.145 26.4404 151.07 25.9893 152.248 25.9893C153.484 25.9893 154.428 26.4697 155.078 27.4307H155.166C155.031 26.6982 154.964 26.0449 154.964 25.4707V22.3242H157.653V36H155.597L155.078 34.7256H154.964C154.354 35.6924 153.426 36.1758 152.178 36.1758ZM153.118 34.04C153.804 34.04 154.305 33.8408 154.621 33.4424C154.943 33.0439 155.119 32.3672 155.148 31.4121V31.1221C155.148 30.0674 154.984 29.3115 154.656 28.8545C154.334 28.3975 153.807 28.1689 153.074 28.1689C152.477 28.1689 152.011 28.4238 151.677 28.9336C151.349 29.4375 151.185 30.1729 151.185 31.1396C151.185 32.1064 151.352 32.833 151.686 33.3193C152.02 33.7998 152.497 34.04 153.118 34.04ZM164.526 27.8965C163.958 27.8965 163.513 28.0781 163.19 28.4414C162.868 28.7988 162.684 29.3086 162.637 29.9707H166.398C166.387 29.3086 166.214 28.7988 165.88 28.4414C165.546 28.0781 165.095 27.8965 164.526 27.8965ZM164.904 36.1758C163.322 36.1758 162.086 35.7393 161.195 34.8662C160.305 33.9932 159.859 32.7568 159.859 31.1572C159.859 29.5107 160.27 28.2393 161.09 27.3428C161.916 26.4404 163.056 25.9893 164.509 25.9893C165.897 25.9893 166.979 26.3848 167.752 27.1758C168.525 27.9668 168.912 29.0596 168.912 30.4541V31.7549H162.575C162.604 32.5166 162.83 33.1113 163.252 33.5391C163.674 33.9668 164.266 34.1807 165.027 34.1807C165.619 34.1807 166.179 34.1191 166.706 33.9961C167.233 33.873 167.784 33.6768 168.358 33.4072V35.4814C167.89 35.7158 167.389 35.8887 166.855 36C166.322 36.1172 165.672 36.1758 164.904 36.1758ZM176.576 25.9893C176.939 25.9893 177.241 26.0156 177.481 26.0684L177.279 28.582C177.062 28.5234 176.799 28.4941 176.488 28.4941C175.633 28.4941 174.965 28.7139 174.484 29.1533C174.01 29.5928 173.772 30.208 173.772 30.999V36H171.092V26.1738H173.122L173.518 27.8262H173.649C173.954 27.2754 174.364 26.833 174.88 26.499C175.401 26.1592 175.967 25.9893 176.576 25.9893ZM186.121 33.082C186.121 34.0898 185.77 34.8574 185.066 35.3848C184.369 35.9121 183.323 36.1758 181.929 36.1758C181.214 36.1758 180.604 36.126 180.101 36.0264C179.597 35.9326 179.125 35.792 178.686 35.6045V33.3896C179.184 33.624 179.743 33.8203 180.364 33.9785C180.991 34.1367 181.542 34.2158 182.017 34.2158C182.989 34.2158 183.476 33.9346 183.476 33.3721C183.476 33.1611 183.411 32.9912 183.282 32.8623C183.153 32.7275 182.931 32.5781 182.614 32.4141C182.298 32.2441 181.876 32.0479 181.349 31.8252C180.593 31.5088 180.036 31.2158 179.679 30.9463C179.327 30.6768 179.069 30.3691 178.905 30.0234C178.747 29.6719 178.668 29.2412 178.668 28.7314C178.668 27.8584 179.005 27.1846 179.679 26.71C180.358 26.2295 181.319 25.9893 182.562 25.9893C183.745 25.9893 184.896 26.2471 186.016 26.7627L185.207 28.6963C184.715 28.4854 184.255 28.3125 183.827 28.1777C183.399 28.043 182.963 27.9756 182.518 27.9756C181.727 27.9756 181.331 28.1895 181.331 28.6172C181.331 28.8574 181.457 29.0654 181.709 29.2412C181.967 29.417 182.526 29.6777 183.388 30.0234C184.155 30.334 184.718 30.624 185.075 30.8936C185.433 31.1631 185.696 31.4736 185.866 31.8252C186.036 32.1768 186.121 32.5957 186.121 33.082ZM192.353 34.04C192.821 34.04 193.384 33.9375 194.04 33.7324V35.7275C193.372 36.0264 192.552 36.1758 191.579 36.1758C190.507 36.1758 189.725 35.9062 189.232 35.3672C188.746 34.8223 188.503 34.0078 188.503 32.9238V28.1865H187.22V27.0527L188.696 26.1562L189.47 24.082H191.184V26.1738H193.935V28.1865H191.184V32.9238C191.184 33.3047 191.289 33.5859 191.5 33.7676C191.717 33.9492 192.001 34.04 192.353 34.04ZM198.171 31.0693C198.171 32.042 198.329 32.7773 198.646 33.2754C198.968 33.7734 199.489 34.0225 200.21 34.0225C200.925 34.0225 201.438 33.7764 201.748 33.2842C202.064 32.7861 202.223 32.0479 202.223 31.0693C202.223 30.0967 202.064 29.3672 201.748 28.8809C201.432 28.3945 200.913 28.1514 200.192 28.1514C199.478 28.1514 198.962 28.3945 198.646 28.8809C198.329 29.3613 198.171 30.0908 198.171 31.0693ZM204.965 31.0693C204.965 32.6689 204.543 33.9199 203.699 34.8223C202.855 35.7246 201.681 36.1758 200.175 36.1758C199.231 36.1758 198.399 35.9707 197.679 35.5605C196.958 35.1445 196.404 34.5498 196.018 33.7764C195.631 33.0029 195.438 32.1006 195.438 31.0693C195.438 29.4639 195.856 28.2158 196.694 27.3252C197.532 26.4346 198.71 25.9893 200.228 25.9893C201.171 25.9893 202.003 26.1943 202.724 26.6045C203.444 27.0146 203.998 27.6035 204.385 28.3711C204.771 29.1387 204.965 30.0381 204.965 31.0693ZM209.315 31.0693C209.315 32.042 209.474 32.7773 209.79 33.2754C210.112 33.7734 210.634 34.0225 211.354 34.0225C212.069 34.0225 212.582 33.7764 212.893 33.2842C213.209 32.7861 213.367 32.0479 213.367 31.0693C213.367 30.0967 213.209 29.3672 212.893 28.8809C212.576 28.3945 212.058 28.1514 211.337 28.1514C210.622 28.1514 210.106 28.3945 209.79 28.8809C209.474 29.3613 209.315 30.0908 209.315 31.0693ZM216.109 31.0693C216.109 32.6689 215.688 33.9199 214.844 34.8223C214 35.7246 212.825 36.1758 211.319 36.1758C210.376 36.1758 209.544 35.9707 208.823 35.5605C208.103 35.1445 207.549 34.5498 207.162 33.7764C206.775 33.0029 206.582 32.1006 206.582 31.0693C206.582 29.4639 207.001 28.2158 207.839 27.3252C208.677 26.4346 209.854 25.9893 211.372 25.9893C212.315 25.9893 213.147 26.1943 213.868 26.6045C214.589 27.0146 215.143 27.6035 215.529 28.3711C215.916 29.1387 216.109 30.0381 216.109 31.0693ZM221.436 36.1758C220.281 36.1758 219.373 35.7275 218.711 34.8311C218.055 33.9346 217.727 32.6924 217.727 31.1045C217.727 29.4932 218.061 28.2393 218.729 27.3428C219.402 26.4404 220.328 25.9893 221.506 25.9893C222.742 25.9893 223.686 26.4697 224.336 27.4307H224.424C224.289 26.6982 224.222 26.0449 224.222 25.4707V22.3242H226.911V36H224.854L224.336 34.7256H224.222C223.612 35.6924 222.684 36.1758 221.436 36.1758ZM222.376 34.04C223.062 34.04 223.562 33.8408 223.879 33.4424C224.201 33.0439 224.377 32.3672 224.406 31.4121V31.1221C224.406 30.0674 224.242 29.3115 223.914 28.8545C223.592 28.3975 223.064 28.1689 222.332 28.1689C221.734 28.1689 221.269 28.4238 220.935 28.9336C220.606 29.4375 220.442 30.1729 220.442 31.1396C220.442 32.1064 220.609 32.833 220.943 33.3193C221.277 33.7998 221.755 34.04 222.376 34.04ZM238.53 34.04C238.999 34.04 239.562 33.9375 240.218 33.7324V35.7275C239.55 36.0264 238.729 36.1758 237.757 36.1758C236.685 36.1758 235.902 35.9062 235.41 35.3672C234.924 34.8223 234.681 34.0078 234.681 32.9238V28.1865H233.397V27.0527L234.874 26.1562L235.647 24.082H237.361V26.1738H240.112V28.1865H237.361V32.9238C237.361 33.3047 237.467 33.5859 237.678 33.7676C237.895 33.9492 238.179 34.04 238.53 34.04ZM251.283 36H248.603V30.2607C248.603 28.8428 248.075 28.1338 247.021 28.1338C246.271 28.1338 245.729 28.3887 245.395 28.8984C245.061 29.4082 244.894 30.2344 244.894 31.377V36H242.213V22.3242H244.894V25.1104C244.894 25.3271 244.873 25.8369 244.832 26.6396L244.771 27.4307H244.911C245.509 26.4697 246.458 25.9893 247.759 25.9893C248.913 25.9893 249.789 26.2998 250.387 26.9209C250.984 27.542 251.283 28.4326 251.283 29.5928V36ZM258.112 27.8965C257.544 27.8965 257.099 28.0781 256.776 28.4414C256.454 28.7988 256.27 29.3086 256.223 29.9707H259.984C259.973 29.3086 259.8 28.7988 259.466 28.4414C259.132 28.0781 258.681 27.8965 258.112 27.8965ZM258.49 36.1758C256.908 36.1758 255.672 35.7393 254.781 34.8662C253.891 33.9932 253.445 32.7568 253.445 31.1572C253.445 29.5107 253.855 28.2393 254.676 27.3428C255.502 26.4404 256.642 25.9893 258.095 25.9893C259.483 25.9893 260.564 26.3848 261.338 27.1758C262.111 27.9668 262.498 29.0596 262.498 30.4541V31.7549H256.161C256.19 32.5166 256.416 33.1113 256.838 33.5391C257.26 33.9668 257.852 34.1807 258.613 34.1807C259.205 34.1807 259.765 34.1191 260.292 33.9961C260.819 33.873 261.37 33.6768 261.944 33.4072V35.4814C261.476 35.7158 260.975 35.8887 260.441 36C259.908 36.1172 259.258 36.1758 258.49 36.1758ZM274.75 36.1758C273.596 36.1758 272.69 35.7568 272.034 34.9189H271.894C271.987 35.7393 272.034 36.2139 272.034 36.3428V40.3242H269.354V26.1738H271.533L271.911 27.4482H272.034C272.661 26.4756 273.59 25.9893 274.82 25.9893C275.98 25.9893 276.889 26.4375 277.545 27.334C278.201 28.2305 278.529 29.4756 278.529 31.0693C278.529 32.1182 278.374 33.0293 278.063 33.8027C277.759 34.5762 277.322 35.165 276.754 35.5693C276.186 35.9736 275.518 36.1758 274.75 36.1758ZM273.959 28.1338C273.297 28.1338 272.813 28.3389 272.509 28.749C272.204 29.1533 272.046 29.8242 272.034 30.7617V31.0518C272.034 32.1064 272.189 32.8623 272.5 33.3193C272.816 33.7764 273.314 34.0049 273.994 34.0049C275.195 34.0049 275.796 33.0146 275.796 31.0342C275.796 30.0674 275.646 29.3438 275.348 28.8633C275.055 28.377 274.592 28.1338 273.959 28.1338ZM287.705 36L287.345 34.7432H287.204C286.917 35.2002 286.51 35.5547 285.982 35.8066C285.455 36.0527 284.854 36.1758 284.181 36.1758C283.026 36.1758 282.156 35.8682 281.57 35.2529C280.984 34.6318 280.691 33.7412 280.691 32.5811V26.1738H283.372V31.9131C283.372 32.6221 283.498 33.1553 283.75 33.5127C284.002 33.8643 284.403 34.04 284.954 34.04C285.704 34.04 286.246 33.791 286.58 33.293C286.914 32.7891 287.081 31.957 287.081 30.7969V26.1738H289.762V36H287.705ZM298.059 25.9893C298.422 25.9893 298.724 26.0156 298.964 26.0684L298.762 28.582C298.545 28.5234 298.281 28.4941 297.971 28.4941C297.115 28.4941 296.447 28.7139 295.967 29.1533C295.492 29.5928 295.255 30.208 295.255 30.999V36H292.574V26.1738H294.604L295 27.8262H295.132C295.437 27.2754 295.847 26.833 296.362 26.499C296.884 26.1592 297.449 25.9893 298.059 25.9893ZM306.145 36.1758C304.99 36.1758 304.085 35.7568 303.429 34.9189H303.288C303.382 35.7393 303.429 36.2139 303.429 36.3428V40.3242H300.748V26.1738H302.928L303.306 27.4482H303.429C304.056 26.4756 304.984 25.9893 306.215 25.9893C307.375 25.9893 308.283 26.4375 308.939 27.334C309.596 28.2305 309.924 29.4756 309.924 31.0693C309.924 32.1182 309.769 33.0293 309.458 33.8027C309.153 34.5762 308.717 35.165 308.148 35.5693C307.58 35.9736 306.912 36.1758 306.145 36.1758ZM305.354 28.1338C304.691 28.1338 304.208 28.3389 303.903 28.749C303.599 29.1533 303.44 29.8242 303.429 30.7617V31.0518C303.429 32.1064 303.584 32.8623 303.895 33.3193C304.211 33.7764 304.709 34.0049 305.389 34.0049C306.59 34.0049 307.19 33.0146 307.19 31.0342C307.19 30.0674 307.041 29.3438 306.742 28.8633C306.449 28.377 305.986 28.1338 305.354 28.1338ZM314.274 31.0693C314.274 32.042 314.433 32.7773 314.749 33.2754C315.071 33.7734 315.593 34.0225 316.313 34.0225C317.028 34.0225 317.541 33.7764 317.852 33.2842C318.168 32.7861 318.326 32.0479 318.326 31.0693C318.326 30.0967 318.168 29.3672 317.852 28.8809C317.535 28.3945 317.017 28.1514 316.296 28.1514C315.581 28.1514 315.065 28.3945 314.749 28.8809C314.433 29.3613 314.274 30.0908 314.274 31.0693ZM321.068 31.0693C321.068 32.6689 320.646 33.9199 319.803 34.8223C318.959 35.7246 317.784 36.1758 316.278 36.1758C315.335 36.1758 314.503 35.9707 313.782 35.5605C313.062 35.1445 312.508 34.5498 312.121 33.7764C311.734 33.0029 311.541 32.1006 311.541 31.0693C311.541 29.4639 311.96 28.2158 312.798 27.3252C313.636 26.4346 314.813 25.9893 316.331 25.9893C317.274 25.9893 318.106 26.1943 318.827 26.6045C319.548 27.0146 320.102 27.6035 320.488 28.3711C320.875 29.1387 321.068 30.0381 321.068 31.0693ZM330.139 33.082C330.139 34.0898 329.787 34.8574 329.084 35.3848C328.387 35.9121 327.341 36.1758 325.946 36.1758C325.231 36.1758 324.622 36.126 324.118 36.0264C323.614 35.9326 323.143 35.792 322.703 35.6045V33.3896C323.201 33.624 323.761 33.8203 324.382 33.9785C325.009 34.1367 325.56 34.2158 326.034 34.2158C327.007 34.2158 327.493 33.9346 327.493 33.3721C327.493 33.1611 327.429 32.9912 327.3 32.8623C327.171 32.7275 326.948 32.5781 326.632 32.4141C326.315 32.2441 325.894 32.0479 325.366 31.8252C324.61 31.5088 324.054 31.2158 323.696 30.9463C323.345 30.6768 323.087 30.3691 322.923 30.0234C322.765 29.6719 322.686 29.2412 322.686 28.7314C322.686 27.8584 323.022 27.1846 323.696 26.71C324.376 26.2295 325.337 25.9893 326.579 25.9893C327.763 25.9893 328.914 26.2471 330.033 26.7627L329.225 28.6963C328.732 28.4854 328.272 28.3125 327.845 28.1777C327.417 28.043 326.98 27.9756 326.535 27.9756C325.744 27.9756 325.349 28.1895 325.349 28.6172C325.349 28.8574 325.475 29.0654 325.727 29.2412C325.984 29.417 326.544 29.6777 327.405 30.0234C328.173 30.334 328.735 30.624 329.093 30.8936C329.45 31.1631 329.714 31.4736 329.884 31.8252C330.054 32.1768 330.139 32.5957 330.139 33.082ZM336.3 27.8965C335.731 27.8965 335.286 28.0781 334.964 28.4414C334.642 28.7988 334.457 29.3086 334.41 29.9707H338.172C338.16 29.3086 337.987 28.7988 337.653 28.4414C337.319 28.0781 336.868 27.8965 336.3 27.8965ZM336.678 36.1758C335.096 36.1758 333.859 35.7393 332.969 34.8662C332.078 33.9932 331.633 32.7568 331.633 31.1572C331.633 29.5107 332.043 28.2393 332.863 27.3428C333.689 26.4404 334.829 25.9893 336.282 25.9893C337.671 25.9893 338.752 26.3848 339.525 27.1758C340.299 27.9668 340.686 29.0596 340.686 30.4541V31.7549H334.349C334.378 32.5166 334.604 33.1113 335.025 33.5391C335.447 33.9668 336.039 34.1807 336.801 34.1807C337.393 34.1807 337.952 34.1191 338.479 33.9961C339.007 33.873 339.558 33.6768 340.132 33.4072V35.4814C339.663 35.7158 339.162 35.8887 338.629 36C338.096 36.1172 337.445 36.1758 336.678 36.1758ZM349.677 31.0693C349.677 32.042 349.835 32.7773 350.151 33.2754C350.474 33.7734 350.995 34.0225 351.716 34.0225C352.431 34.0225 352.943 33.7764 353.254 33.2842C353.57 32.7861 353.729 32.0479 353.729 31.0693C353.729 30.0967 353.57 29.3672 353.254 28.8809C352.938 28.3945 352.419 28.1514 351.698 28.1514C350.983 28.1514 350.468 28.3945 350.151 28.8809C349.835 29.3613 349.677 30.0908 349.677 31.0693ZM356.471 31.0693C356.471 32.6689 356.049 33.9199 355.205 34.8223C354.361 35.7246 353.187 36.1758 351.681 36.1758C350.737 36.1758 349.905 35.9707 349.185 35.5605C348.464 35.1445 347.91 34.5498 347.523 33.7764C347.137 33.0029 346.943 32.1006 346.943 31.0693C346.943 29.4639 347.362 28.2158 348.2 27.3252C349.038 26.4346 350.216 25.9893 351.733 25.9893C352.677 25.9893 353.509 26.1943 354.229 26.6045C354.95 27.0146 355.504 27.6035 355.891 28.3711C356.277 29.1387 356.471 30.0381 356.471 31.0693ZM364.117 28.1865H361.797V36H359.116V28.1865H357.64V26.8945L359.116 26.1738V25.4531C359.116 24.334 359.392 23.5166 359.942 23.001C360.493 22.4854 361.375 22.2275 362.588 22.2275C363.514 22.2275 364.337 22.3652 365.058 22.6406L364.372 24.6094C363.833 24.4395 363.335 24.3545 362.878 24.3545C362.497 24.3545 362.222 24.4688 362.052 24.6973C361.882 24.9199 361.797 25.207 361.797 25.5586V26.1738H364.117V28.1865ZM374.479 34.04C374.948 34.04 375.511 33.9375 376.167 33.7324V35.7275C375.499 36.0264 374.679 36.1758 373.706 36.1758C372.634 36.1758 371.852 35.9062 371.359 35.3672C370.873 34.8223 370.63 34.0078 370.63 32.9238V28.1865H369.347V27.0527L370.823 26.1562L371.597 24.082H373.311V26.1738H376.062V28.1865H373.311V32.9238C373.311 33.3047 373.416 33.5859 373.627 33.7676C373.844 33.9492 374.128 34.04 374.479 34.04ZM387.232 36H384.552V30.2607C384.552 28.8428 384.024 28.1338 382.97 28.1338C382.22 28.1338 381.678 28.3887 381.344 28.8984C381.01 29.4082 380.843 30.2344 380.843 31.377V36H378.162V22.3242H380.843V25.1104C380.843 25.3271 380.822 25.8369 380.781 26.6396L380.72 27.4307H380.86C381.458 26.4697 382.407 25.9893 383.708 25.9893C384.862 25.9893 385.738 26.2998 386.336 26.9209C386.934 27.542 387.232 28.4326 387.232 29.5928V36ZM394.062 27.8965C393.493 27.8965 393.048 28.0781 392.726 28.4414C392.403 28.7988 392.219 29.3086 392.172 29.9707H395.934C395.922 29.3086 395.749 28.7988 395.415 28.4414C395.081 28.0781 394.63 27.8965 394.062 27.8965ZM394.439 36.1758C392.857 36.1758 391.621 35.7393 390.73 34.8662C389.84 33.9932 389.395 32.7568 389.395 31.1572C389.395 29.5107 389.805 28.2393 390.625 27.3428C391.451 26.4404 392.591 25.9893 394.044 25.9893C395.433 25.9893 396.514 26.3848 397.287 27.1758C398.061 27.9668 398.447 29.0596 398.447 30.4541V31.7549H392.11C392.14 32.5166 392.365 33.1113 392.787 33.5391C393.209 33.9668 393.801 34.1807 394.562 34.1807C395.154 34.1807 395.714 34.1191 396.241 33.9961C396.769 33.873 397.319 33.6768 397.894 33.4072V35.4814C397.425 35.7158 396.924 35.8887 396.391 36C395.857 36.1172 395.207 36.1758 394.439 36.1758ZM133.483 70L132.728 66.5635L131.708 62.2217H131.646L129.854 70H126.971L124.176 60.1738H126.848L127.981 64.5244C128.163 65.3037 128.348 66.3789 128.535 67.75H128.588C128.611 67.3047 128.714 66.5986 128.896 65.6318L129.036 64.8848L130.249 60.1738H133.202L134.354 64.8848C134.377 65.0137 134.412 65.2041 134.459 65.4561C134.512 65.708 134.562 65.9775 134.608 66.2646C134.655 66.5459 134.696 66.8242 134.731 67.0996C134.772 67.3691 134.796 67.5859 134.802 67.75H134.854C134.907 67.3281 135.001 66.751 135.136 66.0186C135.271 65.2803 135.367 64.7822 135.426 64.5244L136.604 60.1738H139.231L136.401 70H133.483ZM144.892 61.8965C144.323 61.8965 143.878 62.0781 143.556 62.4414C143.233 62.7988 143.049 63.3086 143.002 63.9707H146.764C146.752 63.3086 146.579 62.7988 146.245 62.4414C145.911 62.0781 145.46 61.8965 144.892 61.8965ZM145.27 70.1758C143.688 70.1758 142.451 69.7393 141.561 68.8662C140.67 67.9932 140.225 66.7568 140.225 65.1572C140.225 63.5107 140.635 62.2393 141.455 61.3428C142.281 60.4404 143.421 59.9893 144.874 59.9893C146.263 59.9893 147.344 60.3848 148.117 61.1758C148.891 61.9668 149.277 63.0596 149.277 64.4541V65.7549H142.94C142.97 66.5166 143.195 67.1113 143.617 67.5391C144.039 67.9668 144.631 68.1807 145.393 68.1807C145.984 68.1807 146.544 68.1191 147.071 67.9961C147.599 67.873 148.149 67.6768 148.724 67.4072V69.4814C148.255 69.7158 147.754 69.8887 147.221 70C146.688 70.1172 146.037 70.1758 145.27 70.1758ZM156.924 59.9893C158.084 59.9893 158.992 60.4434 159.648 61.3516C160.305 62.2539 160.633 63.4932 160.633 65.0693C160.633 66.6924 160.293 67.9492 159.613 68.8398C158.939 69.7305 158.02 70.1758 156.854 70.1758C155.699 70.1758 154.794 69.7568 154.138 68.9189H153.953L153.505 70H151.457V56.3242H154.138V59.5059C154.138 59.9102 154.103 60.5576 154.032 61.4482H154.138C154.765 60.4756 155.693 59.9893 156.924 59.9893ZM156.062 62.1338C155.4 62.1338 154.917 62.3389 154.612 62.749C154.308 63.1533 154.149 63.8242 154.138 64.7617V65.0518C154.138 66.1064 154.293 66.8623 154.604 67.3193C154.92 67.7764 155.418 68.0049 156.098 68.0049C156.648 68.0049 157.085 67.7529 157.407 67.249C157.735 66.7393 157.899 66.001 157.899 65.0342C157.899 64.0674 157.735 63.3438 157.407 62.8633C157.079 62.377 156.631 62.1338 156.062 62.1338ZM169.703 67.082C169.703 68.0898 169.352 68.8574 168.648 69.3848C167.951 69.9121 166.905 70.1758 165.511 70.1758C164.796 70.1758 164.187 70.126 163.683 70.0264C163.179 69.9326 162.707 69.792 162.268 69.6045V67.3896C162.766 67.624 163.325 67.8203 163.946 67.9785C164.573 68.1367 165.124 68.2158 165.599 68.2158C166.571 68.2158 167.058 67.9346 167.058 67.3721C167.058 67.1611 166.993 66.9912 166.864 66.8623C166.735 66.7275 166.513 66.5781 166.196 66.4141C165.88 66.2441 165.458 66.0479 164.931 65.8252C164.175 65.5088 163.618 65.2158 163.261 64.9463C162.909 64.6768 162.651 64.3691 162.487 64.0234C162.329 63.6719 162.25 63.2412 162.25 62.7314C162.25 61.8584 162.587 61.1846 163.261 60.71C163.94 60.2295 164.901 59.9893 166.144 59.9893C167.327 59.9893 168.479 60.2471 169.598 60.7627L168.789 62.6963C168.297 62.4854 167.837 62.3125 167.409 62.1777C166.981 62.043 166.545 61.9756 166.1 61.9756C165.309 61.9756 164.913 62.1895 164.913 62.6172C164.913 62.8574 165.039 63.0654 165.291 63.2412C165.549 63.417 166.108 63.6777 166.97 64.0234C167.737 64.334 168.3 64.624 168.657 64.8936C169.015 65.1631 169.278 65.4736 169.448 65.8252C169.618 66.1768 169.703 66.5957 169.703 67.082ZM171.681 57.6338C171.681 56.7607 172.167 56.3242 173.14 56.3242C174.112 56.3242 174.599 56.7607 174.599 57.6338C174.599 58.0498 174.476 58.375 174.229 58.6094C173.989 58.8379 173.626 58.9521 173.14 58.9521C172.167 58.9521 171.681 58.5127 171.681 57.6338ZM174.476 70H171.795V60.1738H174.476V70ZM181.437 68.04C181.905 68.04 182.468 67.9375 183.124 67.7324V69.7275C182.456 70.0264 181.636 70.1758 180.663 70.1758C179.591 70.1758 178.809 69.9062 178.316 69.3672C177.83 68.8223 177.587 68.0078 177.587 66.9238V62.1865H176.304V61.0527L177.78 60.1562L178.554 58.082H180.268V60.1738H183.019V62.1865H180.268V66.9238C180.268 67.3047 180.373 67.5859 180.584 67.7676C180.801 67.9492 181.085 68.04 181.437 68.04ZM189.188 61.8965C188.62 61.8965 188.175 62.0781 187.853 62.4414C187.53 62.7988 187.346 63.3086 187.299 63.9707H191.061C191.049 63.3086 190.876 62.7988 190.542 62.4414C190.208 62.0781 189.757 61.8965 189.188 61.8965ZM189.566 70.1758C187.984 70.1758 186.748 69.7393 185.857 68.8662C184.967 67.9932 184.521 66.7568 184.521 65.1572C184.521 63.5107 184.932 62.2393 185.752 61.3428C186.578 60.4404 187.718 59.9893 189.171 59.9893C190.56 59.9893 191.641 60.3848 192.414 61.1758C193.188 61.9668 193.574 63.0596 193.574 64.4541V65.7549H187.237C187.267 66.5166 187.492 67.1113 187.914 67.5391C188.336 67.9668 188.928 68.1807 189.689 68.1807C190.281 68.1807 190.841 68.1191 191.368 67.9961C191.896 67.873 192.446 67.6768 193.021 67.4072V69.4814C192.552 69.7158 192.051 69.8887 191.518 70C190.984 70.1172 190.334 70.1758 189.566 70.1758ZM205.861 62.1865H203.541V70H200.86V62.1865H199.384V60.8945L200.86 60.1738V59.4531C200.86 58.334 201.136 57.5166 201.687 57.001C202.237 56.4854 203.119 56.2275 204.332 56.2275C205.258 56.2275 206.081 56.3652 206.802 56.6406L206.116 58.6094C205.577 58.4395 205.079 58.3545 204.622 58.3545C204.241 58.3545 203.966 58.4688 203.796 58.6973C203.626 58.9199 203.541 59.207 203.541 59.5586V60.1738H205.861V62.1865ZM212.893 59.9893C213.256 59.9893 213.558 60.0156 213.798 60.0684L213.596 62.582C213.379 62.5234 213.115 62.4941 212.805 62.4941C211.949 62.4941 211.281 62.7139 210.801 63.1533C210.326 63.5928 210.089 64.208 210.089 64.999V70H207.408V60.1738H209.438L209.834 61.8262H209.966C210.271 61.2754 210.681 60.833 211.196 60.499C211.718 60.1592 212.283 59.9893 212.893 59.9893ZM217.718 65.0693C217.718 66.042 217.876 66.7773 218.192 67.2754C218.515 67.7734 219.036 68.0225 219.757 68.0225C220.472 68.0225 220.984 67.7764 221.295 67.2842C221.611 66.7861 221.77 66.0479 221.77 65.0693C221.77 64.0967 221.611 63.3672 221.295 62.8809C220.979 62.3945 220.46 62.1514 219.739 62.1514C219.024 62.1514 218.509 62.3945 218.192 62.8809C217.876 63.3613 217.718 64.0908 217.718 65.0693ZM224.512 65.0693C224.512 66.6689 224.09 67.9199 223.246 68.8223C222.402 69.7246 221.228 70.1758 219.722 70.1758C218.778 70.1758 217.946 69.9707 217.226 69.5605C216.505 69.1445 215.951 68.5498 215.564 67.7764C215.178 67.0029 214.984 66.1006 214.984 65.0693C214.984 63.4639 215.403 62.2158 216.241 61.3252C217.079 60.4346 218.257 59.9893 219.774 59.9893C220.718 59.9893 221.55 60.1943 222.271 60.6045C222.991 61.0146 223.545 61.6035 223.932 62.3711C224.318 63.1387 224.512 64.0381 224.512 65.0693ZM235.524 70H232.844V64.2607C232.844 63.5518 232.724 63.0215 232.483 62.6699C232.249 62.3125 231.877 62.1338 231.367 62.1338C230.682 62.1338 230.184 62.3857 229.873 62.8896C229.562 63.3936 229.407 64.2227 229.407 65.377V70H226.727V60.1738H228.774L229.135 61.4307H229.284C229.548 60.9795 229.929 60.6279 230.427 60.376C230.925 60.1182 231.496 59.9893 232.141 59.9893C233.611 59.9893 234.607 60.4697 235.129 61.4307H235.366C235.63 60.9736 236.017 60.6191 236.526 60.3672C237.042 60.1152 237.622 59.9893 238.267 59.9893C239.38 59.9893 240.221 60.2764 240.789 60.8506C241.363 61.4189 241.65 62.333 241.65 63.5928V70H238.961V64.2607C238.961 63.5518 238.841 63.0215 238.601 62.6699C238.366 62.3125 237.994 62.1338 237.484 62.1338C236.828 62.1338 236.336 62.3682 236.008 62.8369C235.686 63.3057 235.524 64.0498 235.524 65.0693V70ZM251.424 70L247.68 60.1738H250.483L252.382 65.7725C252.593 66.4814 252.725 67.1523 252.777 67.7852H252.83C252.859 67.2227 252.991 66.5518 253.226 65.7725L255.115 60.1738H257.919L254.175 70H251.424ZM259.22 57.6338C259.22 56.7607 259.706 56.3242 260.679 56.3242C261.651 56.3242 262.138 56.7607 262.138 57.6338C262.138 58.0498 262.015 58.375 261.769 58.6094C261.528 58.8379 261.165 58.9521 260.679 58.9521C259.706 58.9521 259.22 58.5127 259.22 57.6338ZM262.015 70H259.334V60.1738H262.015V70ZM268.905 61.8965C268.337 61.8965 267.892 62.0781 267.569 62.4414C267.247 62.7988 267.062 63.3086 267.016 63.9707H270.777C270.766 63.3086 270.593 62.7988 270.259 62.4414C269.925 62.0781 269.474 61.8965 268.905 61.8965ZM269.283 70.1758C267.701 70.1758 266.465 69.7393 265.574 68.8662C264.684 67.9932 264.238 66.7568 264.238 65.1572C264.238 63.5107 264.648 62.2393 265.469 61.3428C266.295 60.4404 267.435 59.9893 268.888 59.9893C270.276 59.9893 271.357 60.3848 272.131 61.1758C272.904 61.9668 273.291 63.0596 273.291 64.4541V65.7549H266.954C266.983 66.5166 267.209 67.1113 267.631 67.5391C268.053 67.9668 268.645 68.1807 269.406 68.1807C269.998 68.1807 270.558 68.1191 271.085 67.9961C271.612 67.873 272.163 67.6768 272.737 67.4072V69.4814C272.269 69.7158 271.768 69.8887 271.234 70C270.701 70.1172 270.051 70.1758 269.283 70.1758ZM283.548 70L282.792 66.5635L281.772 62.2217H281.711L279.918 70H277.035L274.24 60.1738H276.912L278.046 64.5244C278.228 65.3037 278.412 66.3789 278.6 67.75H278.652C278.676 67.3047 278.778 66.5986 278.96 65.6318L279.101 64.8848L280.313 60.1738H283.267L284.418 64.8848C284.441 65.0137 284.477 65.2041 284.523 65.4561C284.576 65.708 284.626 65.9775 284.673 66.2646C284.72 66.5459 284.761 66.8242 284.796 67.0996C284.837 67.3691 284.86 67.5859 284.866 67.75H284.919C284.972 67.3281 285.065 66.751 285.2 66.0186C285.335 65.2803 285.432 64.7822 285.49 64.5244L286.668 60.1738H289.296L286.466 70H283.548ZM290.772 57.6338C290.772 56.7607 291.259 56.3242 292.231 56.3242C293.204 56.3242 293.69 56.7607 293.69 57.6338C293.69 58.0498 293.567 58.375 293.321 58.6094C293.081 58.8379 292.718 58.9521 292.231 58.9521C291.259 58.9521 290.772 58.5127 290.772 57.6338ZM293.567 70H290.887V60.1738H293.567V70ZM305.459 70H302.778V64.2607C302.778 63.5518 302.652 63.0215 302.4 62.6699C302.148 62.3125 301.747 62.1338 301.196 62.1338C300.446 62.1338 299.904 62.3857 299.57 62.8896C299.236 63.3877 299.069 64.2168 299.069 65.377V70H296.389V60.1738H298.437L298.797 61.4307H298.946C299.245 60.9561 299.655 60.5986 300.177 60.3584C300.704 60.1123 301.302 59.9893 301.97 59.9893C303.112 59.9893 303.979 60.2998 304.571 60.9209C305.163 61.5361 305.459 62.4268 305.459 63.5928V70ZM316.771 60.1738V61.5361L315.232 61.9316C315.514 62.3711 315.654 62.8633 315.654 63.4082C315.654 64.4629 315.285 65.2861 314.547 65.8779C313.814 66.4639 312.795 66.7568 311.488 66.7568L311.005 66.7305L310.609 66.6865C310.334 66.8975 310.196 67.1318 310.196 67.3896C310.196 67.7764 310.688 67.9697 311.673 67.9697H313.343C314.421 67.9697 315.241 68.2012 315.804 68.6641C316.372 69.127 316.656 69.8066 316.656 70.7031C316.656 71.8516 316.176 72.7422 315.215 73.375C314.26 74.0078 312.886 74.3242 311.093 74.3242C309.722 74.3242 308.673 74.084 307.946 73.6035C307.226 73.1289 306.865 72.4609 306.865 71.5996C306.865 71.0078 307.05 70.5127 307.419 70.1143C307.788 69.7158 308.33 69.4316 309.045 69.2617C308.77 69.1445 308.529 68.9541 308.324 68.6904C308.119 68.4209 308.017 68.1367 308.017 67.8379C308.017 67.4629 308.125 67.1523 308.342 66.9062C308.559 66.6543 308.872 66.4082 309.282 66.168C308.767 65.9453 308.356 65.5879 308.052 65.0957C307.753 64.6035 307.604 64.0234 307.604 63.3555C307.604 62.2832 307.952 61.4541 308.649 60.8682C309.347 60.2822 310.343 59.9893 311.638 59.9893C311.913 59.9893 312.238 60.0156 312.613 60.0684C312.994 60.1152 313.237 60.1504 313.343 60.1738H316.771ZM309.186 71.3887C309.186 71.7578 309.361 72.0479 309.713 72.2588C310.07 72.4697 310.568 72.5752 311.207 72.5752C312.168 72.5752 312.921 72.4434 313.466 72.1797C314.011 71.916 314.283 71.5557 314.283 71.0986C314.283 70.7295 314.122 70.4746 313.8 70.334C313.478 70.1934 312.979 70.123 312.306 70.123H310.917C310.425 70.123 310.012 70.2373 309.678 70.4658C309.35 70.7002 309.186 71.0078 309.186 71.3887ZM310.161 63.3906C310.161 63.9238 310.281 64.3457 310.521 64.6562C310.768 64.9668 311.14 65.1221 311.638 65.1221C312.142 65.1221 312.511 64.9668 312.745 64.6562C312.979 64.3457 313.097 63.9238 313.097 63.3906C313.097 62.207 312.61 61.6152 311.638 61.6152C310.653 61.6152 310.161 62.207 310.161 63.3906ZM327.212 68.04C327.681 68.04 328.243 67.9375 328.899 67.7324V69.7275C328.231 70.0264 327.411 70.1758 326.438 70.1758C325.366 70.1758 324.584 69.9062 324.092 69.3672C323.605 68.8223 323.362 68.0078 323.362 66.9238V62.1865H322.079V61.0527L323.556 60.1562L324.329 58.082H326.043V60.1738H328.794V62.1865H326.043V66.9238C326.043 67.3047 326.148 67.5859 326.359 67.7676C326.576 67.9492 326.86 68.04 327.212 68.04ZM339.965 70H337.284V64.2607C337.284 62.8428 336.757 62.1338 335.702 62.1338C334.952 62.1338 334.41 62.3887 334.076 62.8984C333.742 63.4082 333.575 64.2344 333.575 65.377V70H330.895V56.3242H333.575V59.1104C333.575 59.3271 333.555 59.8369 333.514 60.6396L333.452 61.4307H333.593C334.19 60.4697 335.14 59.9893 336.44 59.9893C337.595 59.9893 338.471 60.2998 339.068 60.9209C339.666 61.542 339.965 62.4326 339.965 63.5928V70ZM346.794 61.8965C346.226 61.8965 345.78 62.0781 345.458 62.4414C345.136 62.7988 344.951 63.3086 344.904 63.9707H348.666C348.654 63.3086 348.481 62.7988 348.147 62.4414C347.813 62.0781 347.362 61.8965 346.794 61.8965ZM347.172 70.1758C345.59 70.1758 344.354 69.7393 343.463 68.8662C342.572 67.9932 342.127 66.7568 342.127 65.1572C342.127 63.5107 342.537 62.2393 343.357 61.3428C344.184 60.4404 345.323 59.9893 346.776 59.9893C348.165 59.9893 349.246 60.3848 350.02 61.1758C350.793 61.9668 351.18 63.0596 351.18 64.4541V65.7549H344.843C344.872 66.5166 345.098 67.1113 345.52 67.5391C345.941 67.9668 346.533 68.1807 347.295 68.1807C347.887 68.1807 348.446 68.1191 348.974 67.9961C349.501 67.873 350.052 67.6768 350.626 67.4072V69.4814C350.157 69.7158 349.656 69.8887 349.123 70C348.59 70.1172 347.939 70.1758 347.172 70.1758ZM367.105 70H364.425V64.2607C364.425 62.8428 363.897 62.1338 362.843 62.1338C362.093 62.1338 361.551 62.3887 361.217 62.8984C360.883 63.4082 360.716 64.2344 360.716 65.377V70H358.035V56.3242H360.716V59.1104C360.716 59.3271 360.695 59.8369 360.654 60.6396L360.593 61.4307H360.733C361.331 60.4697 362.28 59.9893 363.581 59.9893C364.735 59.9893 365.611 60.2998 366.209 60.9209C366.807 61.542 367.105 62.4326 367.105 63.5928V70ZM372.001 65.0693C372.001 66.042 372.159 66.7773 372.476 67.2754C372.798 67.7734 373.319 68.0225 374.04 68.0225C374.755 68.0225 375.268 67.7764 375.578 67.2842C375.895 66.7861 376.053 66.0479 376.053 65.0693C376.053 64.0967 375.895 63.3672 375.578 62.8809C375.262 62.3945 374.743 62.1514 374.022 62.1514C373.308 62.1514 372.792 62.3945 372.476 62.8809C372.159 63.3613 372.001 64.0908 372.001 65.0693ZM378.795 65.0693C378.795 66.6689 378.373 67.9199 377.529 68.8223C376.686 69.7246 375.511 70.1758 374.005 70.1758C373.062 70.1758 372.229 69.9707 371.509 69.5605C370.788 69.1445 370.234 68.5498 369.848 67.7764C369.461 67.0029 369.268 66.1006 369.268 65.0693C369.268 63.4639 369.687 62.2158 370.524 61.3252C371.362 60.4346 372.54 59.9893 374.058 59.9893C375.001 59.9893 375.833 60.1943 376.554 60.6045C377.274 61.0146 377.828 61.6035 378.215 62.3711C378.602 63.1387 378.795 64.0381 378.795 65.0693ZM389.808 70H387.127V64.2607C387.127 63.5518 387.007 63.0215 386.767 62.6699C386.532 62.3125 386.16 62.1338 385.65 62.1338C384.965 62.1338 384.467 62.3857 384.156 62.8896C383.846 63.3936 383.69 64.2227 383.69 65.377V70H381.01V60.1738H383.058L383.418 61.4307H383.567C383.831 60.9795 384.212 60.6279 384.71 60.376C385.208 60.1182 385.779 59.9893 386.424 59.9893C387.895 59.9893 388.891 60.4697 389.412 61.4307H389.649C389.913 60.9736 390.3 60.6191 390.81 60.3672C391.325 60.1152 391.905 59.9893 392.55 59.9893C393.663 59.9893 394.504 60.2764 395.072 60.8506C395.646 61.4189 395.934 62.333 395.934 63.5928V70H393.244V64.2607C393.244 63.5518 393.124 63.0215 392.884 62.6699C392.649 62.3125 392.277 62.1338 391.768 62.1338C391.111 62.1338 390.619 62.3682 390.291 62.8369C389.969 63.3057 389.808 64.0498 389.808 65.0693V70ZM402.763 61.8965C402.194 61.8965 401.749 62.0781 401.427 62.4414C401.104 62.7988 400.92 63.3086 400.873 63.9707H404.635C404.623 63.3086 404.45 62.7988 404.116 62.4414C403.782 62.0781 403.331 61.8965 402.763 61.8965ZM403.141 70.1758C401.559 70.1758 400.322 69.7393 399.432 68.8662C398.541 67.9932 398.096 66.7568 398.096 65.1572C398.096 63.5107 398.506 62.2393 399.326 61.3428C400.152 60.4404 401.292 59.9893 402.745 59.9893C404.134 59.9893 405.215 60.3848 405.988 61.1758C406.762 61.9668 407.148 63.0596 407.148 64.4541V65.7549H400.812C400.841 66.5166 401.066 67.1113 401.488 67.5391C401.91 67.9668 402.502 68.1807 403.264 68.1807C403.855 68.1807 404.415 68.1191 404.942 67.9961C405.47 67.873 406.021 67.6768 406.595 67.4072V69.4814C406.126 69.7158 405.625 69.8887 405.092 70C404.559 70.1172 403.908 70.1758 403.141 70.1758ZM414.725 70.1758C413.57 70.1758 412.665 69.7568 412.009 68.9189H411.868C411.962 69.7393 412.009 70.2139 412.009 70.3428V74.3242H409.328V60.1738H411.508L411.886 61.4482H412.009C412.636 60.4756 413.564 59.9893 414.795 59.9893C415.955 59.9893 416.863 60.4375 417.52 61.334C418.176 62.2305 418.504 63.4756 418.504 65.0693C418.504 66.1182 418.349 67.0293 418.038 67.8027C417.733 68.5762 417.297 69.165 416.729 69.5693C416.16 69.9736 415.492 70.1758 414.725 70.1758ZM413.934 62.1338C413.271 62.1338 412.788 62.3389 412.483 62.749C412.179 63.1533 412.021 63.8242 412.009 64.7617V65.0518C412.009 66.1064 412.164 66.8623 412.475 67.3193C412.791 67.7764 413.289 68.0049 413.969 68.0049C415.17 68.0049 415.771 67.0146 415.771 65.0342C415.771 64.0674 415.621 63.3438 415.322 62.8633C415.029 62.377 414.566 62.1338 413.934 62.1338ZM426.959 70L426.44 68.6641H426.37C425.919 69.2324 425.453 69.6279 424.973 69.8506C424.498 70.0674 423.877 70.1758 423.109 70.1758C422.166 70.1758 421.422 69.9062 420.877 69.3672C420.338 68.8281 420.068 68.0605 420.068 67.0645C420.068 66.0215 420.432 65.2539 421.158 64.7617C421.891 64.2637 422.992 63.9883 424.463 63.9355L426.168 63.8828V63.4521C426.168 62.4561 425.658 61.958 424.639 61.958C423.854 61.958 422.931 62.1953 421.87 62.6699L420.982 60.8594C422.113 60.2676 423.367 59.9717 424.744 59.9717C426.062 59.9717 427.073 60.2588 427.776 60.833C428.479 61.4072 428.831 62.2803 428.831 63.4521V70H426.959ZM426.168 65.4473L425.131 65.4824C424.352 65.5059 423.771 65.6465 423.391 65.9043C423.01 66.1621 422.819 66.5547 422.819 67.082C422.819 67.8379 423.253 68.2158 424.12 68.2158C424.741 68.2158 425.236 68.0371 425.605 67.6797C425.98 67.3223 426.168 66.8477 426.168 66.2559V65.4473ZM440.151 60.1738V61.5361L438.613 61.9316C438.895 62.3711 439.035 62.8633 439.035 63.4082C439.035 64.4629 438.666 65.2861 437.928 65.8779C437.195 66.4639 436.176 66.7568 434.869 66.7568L434.386 66.7305L433.99 66.6865C433.715 66.8975 433.577 67.1318 433.577 67.3896C433.577 67.7764 434.069 67.9697 435.054 67.9697H436.724C437.802 67.9697 438.622 68.2012 439.185 68.6641C439.753 69.127 440.037 69.8066 440.037 70.7031C440.037 71.8516 439.557 72.7422 438.596 73.375C437.641 74.0078 436.267 74.3242 434.474 74.3242C433.103 74.3242 432.054 74.084 431.327 73.6035C430.606 73.1289 430.246 72.4609 430.246 71.5996C430.246 71.0078 430.431 70.5127 430.8 70.1143C431.169 69.7158 431.711 69.4316 432.426 69.2617C432.15 69.1445 431.91 68.9541 431.705 68.6904C431.5 68.4209 431.397 68.1367 431.397 67.8379C431.397 67.4629 431.506 67.1523 431.723 66.9062C431.939 66.6543 432.253 66.4082 432.663 66.168C432.147 65.9453 431.737 65.5879 431.433 65.0957C431.134 64.6035 430.984 64.0234 430.984 63.3555C430.984 62.2832 431.333 61.4541 432.03 60.8682C432.728 60.2822 433.724 59.9893 435.019 59.9893C435.294 59.9893 435.619 60.0156 435.994 60.0684C436.375 60.1152 436.618 60.1504 436.724 60.1738H440.151ZM432.566 71.3887C432.566 71.7578 432.742 72.0479 433.094 72.2588C433.451 72.4697 433.949 72.5752 434.588 72.5752C435.549 72.5752 436.302 72.4434 436.847 72.1797C437.392 71.916 437.664 71.5557 437.664 71.0986C437.664 70.7295 437.503 70.4746 437.181 70.334C436.858 70.1934 436.36 70.123 435.687 70.123H434.298C433.806 70.123 433.393 70.2373 433.059 70.4658C432.73 70.7002 432.566 71.0078 432.566 71.3887ZM433.542 63.3906C433.542 63.9238 433.662 64.3457 433.902 64.6562C434.148 64.9668 434.521 65.1221 435.019 65.1221C435.522 65.1221 435.892 64.9668 436.126 64.6562C436.36 64.3457 436.478 63.9238 436.478 63.3906C436.478 62.207 435.991 61.6152 435.019 61.6152C434.034 61.6152 433.542 62.207 433.542 63.3906ZM445.847 61.8965C445.278 61.8965 444.833 62.0781 444.511 62.4414C444.188 62.7988 444.004 63.3086 443.957 63.9707H447.719C447.707 63.3086 447.534 62.7988 447.2 62.4414C446.866 62.0781 446.415 61.8965 445.847 61.8965ZM446.225 70.1758C444.643 70.1758 443.406 69.7393 442.516 68.8662C441.625 67.9932 441.18 66.7568 441.18 65.1572C441.18 63.5107 441.59 62.2393 442.41 61.3428C443.236 60.4404 444.376 59.9893 445.829 59.9893C447.218 59.9893 448.299 60.3848 449.072 61.1758C449.846 61.9668 450.232 63.0596 450.232 64.4541V65.7549H443.896C443.925 66.5166 444.15 67.1113 444.572 67.5391C444.994 67.9668 445.586 68.1807 446.348 68.1807C446.939 68.1807 447.499 68.1191 448.026 67.9961C448.554 67.873 449.104 67.6768 449.679 67.4072V69.4814C449.21 69.7158 448.709 69.8887 448.176 70C447.643 70.1172 446.992 70.1758 446.225 70.1758Z" fill="#0F4FAD"/>
</svg>
