<svg width="632" height="67" viewBox="0 0 632 67" fill="none" xmlns="http://www.w3.org/2000/svg">
<path d="M22.7 29.25C22.3 30.1833 21.4833 31.7833 20.25 34.05C18.9167 36.45 17.8333 38.55 17 40.35C16.1667 42.15 15.4333 44.2 14.8 46.5C14.2 48.8 13.9 51.2 13.9 53.7L14 55.4C14.1 56.2667 14.15 57.05 14.15 57.75C14.15 58.7833 13.8333 59.65 13.2 60.35C12.5667 61.05 11.6667 61.4 10.5 61.4C9.3 61.4 8.38333 61 7.75 60.2C7.15 59.4 6.85 58.3333 6.85 57C6.85 54.9333 7.3 52.8333 8.2 50.7C9.1 48.5333 10.1667 46.5333 11.4 44.7C12.6667 42.8333 14.3 40.5833 16.3 37.95C16.7 37.3833 17.1333 36.8 17.6 36.2C18.0667 35.6 18.55 34.95 19.05 34.25H5.75C4.85 34.25 4.16667 34.3167 3.7 34.45C3.26667 34.5833 2.96667 34.8 2.8 35.1C2.63333 35.4 2.5 35.8667 2.4 36.5H1.35C1.35 32.5 1.28333 29.65 1.15 27.95C1.88333 28.1167 4.36667 28.2 8.6 28.2H22.7V29.25ZM39.8539 33C41.9206 34.7667 43.4706 36.1667 44.5039 37.2C45.5706 38.2 46.5039 39.4 47.3039 40.8C48.1039 42.1667 48.5039 43.65 48.5039 45.25C48.5039 47.0833 47.9706 48.7167 46.9039 50.15C45.8706 51.5833 44.4206 52.7 42.5539 53.5C40.6872 54.3 38.5872 54.7 36.2539 54.7C34.1539 54.7 32.2206 54.3833 30.4539 53.75C28.6872 53.0833 27.2706 52.1 26.2039 50.8C25.1706 49.5 24.6539 47.95 24.6539 46.15C24.6539 43.9833 25.3872 42.1 26.8539 40.5C28.3206 38.9 30.3039 37.55 32.8039 36.45C30.7372 34.6833 29.1372 33.0167 28.0039 31.45C26.8706 29.85 26.3039 28.05 26.3039 26.05C26.3039 24.3167 26.7872 22.8333 27.7539 21.6C28.7206 20.3667 30.0039 19.45 31.6039 18.85C33.2039 18.2167 34.9706 17.9 36.9039 17.9C39.7706 17.9 42.1206 18.55 43.9539 19.85C45.7872 21.1167 46.7039 22.8 46.7039 24.9C46.7039 26.5333 46.1206 28 44.9539 29.3C43.8206 30.5667 42.1206 31.8 39.8539 33ZM36.5039 18.8C35.4039 18.8 34.5206 19.1833 33.8539 19.95C33.2206 20.6833 32.9039 21.6833 32.9039 22.95C32.9039 24.6167 33.4206 26.1667 34.4539 27.6C35.5206 29.0333 37.0539 30.6167 39.0539 32.35C39.6872 31.45 40.1539 30.3667 40.4539 29.1C40.7539 27.8 40.9039 26.5333 40.9039 25.3C40.9039 23.2667 40.5039 21.6833 39.7039 20.55C38.9372 19.3833 37.8706 18.8 36.5039 18.8ZM36.5039 53.8C38.0706 53.8 39.3039 53.3167 40.2039 52.35C41.1039 51.35 41.5539 50.0333 41.5539 48.4C41.5539 46.9 41.1872 45.5167 40.4539 44.25C39.7206 42.9833 38.8539 41.8667 37.8539 40.9C36.8539 39.9333 35.4206 38.6667 33.5539 37.1C31.7539 39 30.8539 41.7167 30.8539 45.25C30.8539 47.7833 31.2872 49.85 32.1539 51.45C33.0539 53.0167 34.5039 53.8 36.5039 53.8ZM83.8313 13.45L54.5813 56.75L53.6313 56.1L82.8813 12.8L83.8313 13.45ZM60.0813 15.95C62.5146 15.95 64.4646 16.6833 65.9313 18.15C67.4313 19.5833 68.1813 21.5667 68.1813 24.1C68.1813 25.7667 67.8313 27.2333 67.1313 28.5C66.4313 29.7667 65.4646 30.75 64.2313 31.45C62.9979 32.15 61.6146 32.5 60.0813 32.5C57.6479 32.5 55.6813 31.7833 54.1813 30.35C52.6813 28.8833 51.9312 26.8833 51.9312 24.35C51.9312 22.7167 52.2813 21.2667 52.9813 20C53.6813 18.7 54.6479 17.7 55.8813 17C57.1479 16.3 58.5479 15.95 60.0813 15.95ZM59.9813 16.85C57.8146 16.85 56.7313 19.3333 56.7313 24.3C56.7313 26.7 57.0313 28.5167 57.6312 29.75C58.2313 30.9833 59.0813 31.6 60.1813 31.6C62.3146 31.6 63.3813 29.1333 63.3813 24.2C63.3813 21.7667 63.0813 19.9333 62.4813 18.7C61.9146 17.4667 61.0813 16.85 59.9813 16.85ZM76.8813 38.15C79.3146 38.15 81.2646 38.8833 82.7313 40.35C84.2313 41.7833 84.9813 43.7667 84.9813 46.3C84.9813 47.9667 84.6313 49.4333 83.9313 50.7C83.2313 51.9667 82.2646 52.95 81.0313 53.65C79.7979 54.35 78.4146 54.7 76.8813 54.7C74.4479 54.7 72.4813 53.9833 70.9813 52.55C69.4813 51.0833 68.7313 49.0833 68.7313 46.55C68.7313 44.9167 69.0813 43.4667 69.7813 42.2C70.4813 40.9 71.4479 39.9 72.6813 39.2C73.9479 38.5 75.3479 38.15 76.8813 38.15ZM76.7813 39.05C74.6146 39.05 73.5313 41.5333 73.5313 46.5C73.5313 48.9 73.8313 50.7167 74.4313 51.95C75.0313 53.1833 75.8813 53.8 76.9813 53.8C79.1146 53.8 80.1813 51.3333 80.1813 46.4C80.1813 43.9667 79.8813 42.1333 79.2813 40.9C78.7146 39.6667 77.8813 39.05 76.7813 39.05Z" fill="#0F4FAD"/>
<path d="M115.367 27.5L115.007 26.2432H114.866C114.579 26.7002 114.172 27.0547 113.645 27.3066C113.117 27.5527 112.517 27.6758 111.843 27.6758C110.688 27.6758 109.818 27.3682 109.232 26.7529C108.646 26.1318 108.354 25.2412 108.354 24.0811V17.6738H111.034V23.4131C111.034 24.1221 111.16 24.6553 111.412 25.0127C111.664 25.3643 112.065 25.54 112.616 25.54C113.366 25.54 113.908 25.291 114.242 24.793C114.576 24.2891 114.743 23.457 114.743 22.2969V17.6738H117.424V27.5H115.367ZM129.307 27.5H126.626V21.7607C126.626 21.0518 126.5 20.5215 126.248 20.1699C125.996 19.8125 125.595 19.6338 125.044 19.6338C124.294 19.6338 123.752 19.8857 123.418 20.3896C123.084 20.8877 122.917 21.7168 122.917 22.877V27.5H120.236V17.6738H122.284L122.645 18.9307H122.794C123.093 18.4561 123.503 18.0986 124.024 17.8584C124.552 17.6123 125.149 17.4893 125.817 17.4893C126.96 17.4893 127.827 17.7998 128.419 18.4209C129.011 19.0361 129.307 19.9268 129.307 21.0928V27.5ZM135.178 27.6758C134.023 27.6758 133.115 27.2275 132.453 26.3311C131.797 25.4346 131.469 24.1924 131.469 22.6045C131.469 20.9932 131.803 19.7393 132.471 18.8428C133.145 17.9404 134.07 17.4893 135.248 17.4893C136.484 17.4893 137.428 17.9697 138.078 18.9307H138.166C138.031 18.1982 137.964 17.5449 137.964 16.9707V13.8242H140.653V27.5H138.597L138.078 26.2256H137.964C137.354 27.1924 136.426 27.6758 135.178 27.6758ZM136.118 25.54C136.804 25.54 137.305 25.3408 137.621 24.9424C137.943 24.5439 138.119 23.8672 138.148 22.9121V22.6221C138.148 21.5674 137.984 20.8115 137.656 20.3545C137.334 19.8975 136.807 19.6689 136.074 19.6689C135.477 19.6689 135.011 19.9238 134.677 20.4336C134.349 20.9375 134.185 21.6729 134.185 22.6396C134.185 23.6064 134.352 24.333 134.686 24.8193C135.02 25.2998 135.497 25.54 136.118 25.54ZM147.526 19.3965C146.958 19.3965 146.513 19.5781 146.19 19.9414C145.868 20.2988 145.684 20.8086 145.637 21.4707H149.398C149.387 20.8086 149.214 20.2988 148.88 19.9414C148.546 19.5781 148.095 19.3965 147.526 19.3965ZM147.904 27.6758C146.322 27.6758 145.086 27.2393 144.195 26.3662C143.305 25.4932 142.859 24.2568 142.859 22.6572C142.859 21.0107 143.27 19.7393 144.09 18.8428C144.916 17.9404 146.056 17.4893 147.509 17.4893C148.897 17.4893 149.979 17.8848 150.752 18.6758C151.525 19.4668 151.912 20.5596 151.912 21.9541V23.2549H145.575C145.604 24.0166 145.83 24.6113 146.252 25.0391C146.674 25.4668 147.266 25.6807 148.027 25.6807C148.619 25.6807 149.179 25.6191 149.706 25.4961C150.233 25.373 150.784 25.1768 151.358 24.9072V26.9814C150.89 27.2158 150.389 27.3887 149.855 27.5C149.322 27.6172 148.672 27.6758 147.904 27.6758ZM159.576 17.4893C159.939 17.4893 160.241 17.5156 160.481 17.5684L160.279 20.082C160.062 20.0234 159.799 19.9941 159.488 19.9941C158.633 19.9941 157.965 20.2139 157.484 20.6533C157.01 21.0928 156.772 21.708 156.772 22.499V27.5H154.092V17.6738H156.122L156.518 19.3262H156.649C156.954 18.7754 157.364 18.333 157.88 17.999C158.401 17.6592 158.967 17.4893 159.576 17.4893ZM169.121 24.582C169.121 25.5898 168.77 26.3574 168.066 26.8848C167.369 27.4121 166.323 27.6758 164.929 27.6758C164.214 27.6758 163.604 27.626 163.101 27.5264C162.597 27.4326 162.125 27.292 161.686 27.1045V24.8896C162.184 25.124 162.743 25.3203 163.364 25.4785C163.991 25.6367 164.542 25.7158 165.017 25.7158C165.989 25.7158 166.476 25.4346 166.476 24.8721C166.476 24.6611 166.411 24.4912 166.282 24.3623C166.153 24.2275 165.931 24.0781 165.614 23.9141C165.298 23.7441 164.876 23.5479 164.349 23.3252C163.593 23.0088 163.036 22.7158 162.679 22.4463C162.327 22.1768 162.069 21.8691 161.905 21.5234C161.747 21.1719 161.668 20.7412 161.668 20.2314C161.668 19.3584 162.005 18.6846 162.679 18.21C163.358 17.7295 164.319 17.4893 165.562 17.4893C166.745 17.4893 167.896 17.7471 169.016 18.2627L168.207 20.1963C167.715 19.9854 167.255 19.8125 166.827 19.6777C166.399 19.543 165.963 19.4756 165.518 19.4756C164.727 19.4756 164.331 19.6895 164.331 20.1172C164.331 20.3574 164.457 20.5654 164.709 20.7412C164.967 20.917 165.526 21.1777 166.388 21.5234C167.155 21.834 167.718 22.124 168.075 22.3936C168.433 22.6631 168.696 22.9736 168.866 23.3252C169.036 23.6768 169.121 24.0957 169.121 24.582ZM175.353 25.54C175.821 25.54 176.384 25.4375 177.04 25.2324V27.2275C176.372 27.5264 175.552 27.6758 174.579 27.6758C173.507 27.6758 172.725 27.4062 172.232 26.8672C171.746 26.3223 171.503 25.5078 171.503 24.4238V19.6865H170.22V18.5527L171.696 17.6562L172.47 15.582H174.184V17.6738H176.935V19.6865H174.184V24.4238C174.184 24.8047 174.289 25.0859 174.5 25.2676C174.717 25.4492 175.001 25.54 175.353 25.54ZM181.171 22.5693C181.171 23.542 181.329 24.2773 181.646 24.7754C181.968 25.2734 182.489 25.5225 183.21 25.5225C183.925 25.5225 184.438 25.2764 184.748 24.7842C185.064 24.2861 185.223 23.5479 185.223 22.5693C185.223 21.5967 185.064 20.8672 184.748 20.3809C184.432 19.8945 183.913 19.6514 183.192 19.6514C182.478 19.6514 181.962 19.8945 181.646 20.3809C181.329 20.8613 181.171 21.5908 181.171 22.5693ZM187.965 22.5693C187.965 24.1689 187.543 25.4199 186.699 26.3223C185.855 27.2246 184.681 27.6758 183.175 27.6758C182.231 27.6758 181.399 27.4707 180.679 27.0605C179.958 26.6445 179.404 26.0498 179.018 25.2764C178.631 24.5029 178.438 23.6006 178.438 22.5693C178.438 20.9639 178.856 19.7158 179.694 18.8252C180.532 17.9346 181.71 17.4893 183.228 17.4893C184.171 17.4893 185.003 17.6943 185.724 18.1045C186.444 18.5146 186.998 19.1035 187.385 19.8711C187.771 20.6387 187.965 21.5381 187.965 22.5693ZM192.315 22.5693C192.315 23.542 192.474 24.2773 192.79 24.7754C193.112 25.2734 193.634 25.5225 194.354 25.5225C195.069 25.5225 195.582 25.2764 195.893 24.7842C196.209 24.2861 196.367 23.5479 196.367 22.5693C196.367 21.5967 196.209 20.8672 195.893 20.3809C195.576 19.8945 195.058 19.6514 194.337 19.6514C193.622 19.6514 193.106 19.8945 192.79 20.3809C192.474 20.8613 192.315 21.5908 192.315 22.5693ZM199.109 22.5693C199.109 24.1689 198.688 25.4199 197.844 26.3223C197 27.2246 195.825 27.6758 194.319 27.6758C193.376 27.6758 192.544 27.4707 191.823 27.0605C191.103 26.6445 190.549 26.0498 190.162 25.2764C189.775 24.5029 189.582 23.6006 189.582 22.5693C189.582 20.9639 190.001 19.7158 190.839 18.8252C191.677 17.9346 192.854 17.4893 194.372 17.4893C195.315 17.4893 196.147 17.6943 196.868 18.1045C197.589 18.5146 198.143 19.1035 198.529 19.8711C198.916 20.6387 199.109 21.5381 199.109 22.5693ZM204.436 27.6758C203.281 27.6758 202.373 27.2275 201.711 26.3311C201.055 25.4346 200.727 24.1924 200.727 22.6045C200.727 20.9932 201.061 19.7393 201.729 18.8428C202.402 17.9404 203.328 17.4893 204.506 17.4893C205.742 17.4893 206.686 17.9697 207.336 18.9307H207.424C207.289 18.1982 207.222 17.5449 207.222 16.9707V13.8242H209.911V27.5H207.854L207.336 26.2256H207.222C206.612 27.1924 205.684 27.6758 204.436 27.6758ZM205.376 25.54C206.062 25.54 206.562 25.3408 206.879 24.9424C207.201 24.5439 207.377 23.8672 207.406 22.9121V22.6221C207.406 21.5674 207.242 20.8115 206.914 20.3545C206.592 19.8975 206.064 19.6689 205.332 19.6689C204.734 19.6689 204.269 19.9238 203.935 20.4336C203.606 20.9375 203.442 21.6729 203.442 22.6396C203.442 23.6064 203.609 24.333 203.943 24.8193C204.277 25.2998 204.755 25.54 205.376 25.54ZM221.53 25.54C221.999 25.54 222.562 25.4375 223.218 25.2324V27.2275C222.55 27.5264 221.729 27.6758 220.757 27.6758C219.685 27.6758 218.902 27.4062 218.41 26.8672C217.924 26.3223 217.681 25.5078 217.681 24.4238V19.6865H216.397V18.5527L217.874 17.6562L218.647 15.582H220.361V17.6738H223.112V19.6865H220.361V24.4238C220.361 24.8047 220.467 25.0859 220.678 25.2676C220.895 25.4492 221.179 25.54 221.53 25.54ZM234.283 27.5H231.603V21.7607C231.603 20.3428 231.075 19.6338 230.021 19.6338C229.271 19.6338 228.729 19.8887 228.395 20.3984C228.061 20.9082 227.894 21.7344 227.894 22.877V27.5H225.213V13.8242H227.894V16.6104C227.894 16.8271 227.873 17.3369 227.832 18.1396L227.771 18.9307H227.911C228.509 17.9697 229.458 17.4893 230.759 17.4893C231.913 17.4893 232.789 17.7998 233.387 18.4209C233.984 19.042 234.283 19.9326 234.283 21.0928V27.5ZM241.112 19.3965C240.544 19.3965 240.099 19.5781 239.776 19.9414C239.454 20.2988 239.27 20.8086 239.223 21.4707H242.984C242.973 20.8086 242.8 20.2988 242.466 19.9414C242.132 19.5781 241.681 19.3965 241.112 19.3965ZM241.49 27.6758C239.908 27.6758 238.672 27.2393 237.781 26.3662C236.891 25.4932 236.445 24.2568 236.445 22.6572C236.445 21.0107 236.855 19.7393 237.676 18.8428C238.502 17.9404 239.642 17.4893 241.095 17.4893C242.483 17.4893 243.564 17.8848 244.338 18.6758C245.111 19.4668 245.498 20.5596 245.498 21.9541V23.2549H239.161C239.19 24.0166 239.416 24.6113 239.838 25.0391C240.26 25.4668 240.852 25.6807 241.613 25.6807C242.205 25.6807 242.765 25.6191 243.292 25.4961C243.819 25.373 244.37 25.1768 244.944 24.9072V26.9814C244.476 27.2158 243.975 27.3887 243.441 27.5C242.908 27.6172 242.258 27.6758 241.49 27.6758ZM257.75 27.6758C256.596 27.6758 255.69 27.2568 255.034 26.4189H254.894C254.987 27.2393 255.034 27.7139 255.034 27.8428V31.8242H252.354V17.6738H254.533L254.911 18.9482H255.034C255.661 17.9756 256.59 17.4893 257.82 17.4893C258.98 17.4893 259.889 17.9375 260.545 18.834C261.201 19.7305 261.529 20.9756 261.529 22.5693C261.529 23.6182 261.374 24.5293 261.063 25.3027C260.759 26.0762 260.322 26.665 259.754 27.0693C259.186 27.4736 258.518 27.6758 257.75 27.6758ZM256.959 19.6338C256.297 19.6338 255.813 19.8389 255.509 20.249C255.204 20.6533 255.046 21.3242 255.034 22.2617V22.5518C255.034 23.6064 255.189 24.3623 255.5 24.8193C255.816 25.2764 256.314 25.5049 256.994 25.5049C258.195 25.5049 258.796 24.5146 258.796 22.5342C258.796 21.5674 258.646 20.8438 258.348 20.3633C258.055 19.877 257.592 19.6338 256.959 19.6338ZM270.705 27.5L270.345 26.2432H270.204C269.917 26.7002 269.51 27.0547 268.982 27.3066C268.455 27.5527 267.854 27.6758 267.181 27.6758C266.026 27.6758 265.156 27.3682 264.57 26.7529C263.984 26.1318 263.691 25.2412 263.691 24.0811V17.6738H266.372V23.4131C266.372 24.1221 266.498 24.6553 266.75 25.0127C267.002 25.3643 267.403 25.54 267.954 25.54C268.704 25.54 269.246 25.291 269.58 24.793C269.914 24.2891 270.081 23.457 270.081 22.2969V17.6738H272.762V27.5H270.705ZM281.059 17.4893C281.422 17.4893 281.724 17.5156 281.964 17.5684L281.762 20.082C281.545 20.0234 281.281 19.9941 280.971 19.9941C280.115 19.9941 279.447 20.2139 278.967 20.6533C278.492 21.0928 278.255 21.708 278.255 22.499V27.5H275.574V17.6738H277.604L278 19.3262H278.132C278.437 18.7754 278.847 18.333 279.362 17.999C279.884 17.6592 280.449 17.4893 281.059 17.4893ZM289.145 27.6758C287.99 27.6758 287.085 27.2568 286.429 26.4189H286.288C286.382 27.2393 286.429 27.7139 286.429 27.8428V31.8242H283.748V17.6738H285.928L286.306 18.9482H286.429C287.056 17.9756 287.984 17.4893 289.215 17.4893C290.375 17.4893 291.283 17.9375 291.939 18.834C292.596 19.7305 292.924 20.9756 292.924 22.5693C292.924 23.6182 292.769 24.5293 292.458 25.3027C292.153 26.0762 291.717 26.665 291.148 27.0693C290.58 27.4736 289.912 27.6758 289.145 27.6758ZM288.354 19.6338C287.691 19.6338 287.208 19.8389 286.903 20.249C286.599 20.6533 286.44 21.3242 286.429 22.2617V22.5518C286.429 23.6064 286.584 24.3623 286.895 24.8193C287.211 25.2764 287.709 25.5049 288.389 25.5049C289.59 25.5049 290.19 24.5146 290.19 22.5342C290.19 21.5674 290.041 20.8438 289.742 20.3633C289.449 19.877 288.986 19.6338 288.354 19.6338ZM297.274 22.5693C297.274 23.542 297.433 24.2773 297.749 24.7754C298.071 25.2734 298.593 25.5225 299.313 25.5225C300.028 25.5225 300.541 25.2764 300.852 24.7842C301.168 24.2861 301.326 23.5479 301.326 22.5693C301.326 21.5967 301.168 20.8672 300.852 20.3809C300.535 19.8945 300.017 19.6514 299.296 19.6514C298.581 19.6514 298.065 19.8945 297.749 20.3809C297.433 20.8613 297.274 21.5908 297.274 22.5693ZM304.068 22.5693C304.068 24.1689 303.646 25.4199 302.803 26.3223C301.959 27.2246 300.784 27.6758 299.278 27.6758C298.335 27.6758 297.503 27.4707 296.782 27.0605C296.062 26.6445 295.508 26.0498 295.121 25.2764C294.734 24.5029 294.541 23.6006 294.541 22.5693C294.541 20.9639 294.96 19.7158 295.798 18.8252C296.636 17.9346 297.813 17.4893 299.331 17.4893C300.274 17.4893 301.106 17.6943 301.827 18.1045C302.548 18.5146 303.102 19.1035 303.488 19.8711C303.875 20.6387 304.068 21.5381 304.068 22.5693ZM313.139 24.582C313.139 25.5898 312.787 26.3574 312.084 26.8848C311.387 27.4121 310.341 27.6758 308.946 27.6758C308.231 27.6758 307.622 27.626 307.118 27.5264C306.614 27.4326 306.143 27.292 305.703 27.1045V24.8896C306.201 25.124 306.761 25.3203 307.382 25.4785C308.009 25.6367 308.56 25.7158 309.034 25.7158C310.007 25.7158 310.493 25.4346 310.493 24.8721C310.493 24.6611 310.429 24.4912 310.3 24.3623C310.171 24.2275 309.948 24.0781 309.632 23.9141C309.315 23.7441 308.894 23.5479 308.366 23.3252C307.61 23.0088 307.054 22.7158 306.696 22.4463C306.345 22.1768 306.087 21.8691 305.923 21.5234C305.765 21.1719 305.686 20.7412 305.686 20.2314C305.686 19.3584 306.022 18.6846 306.696 18.21C307.376 17.7295 308.337 17.4893 309.579 17.4893C310.763 17.4893 311.914 17.7471 313.033 18.2627L312.225 20.1963C311.732 19.9854 311.272 19.8125 310.845 19.6777C310.417 19.543 309.98 19.4756 309.535 19.4756C308.744 19.4756 308.349 19.6895 308.349 20.1172C308.349 20.3574 308.475 20.5654 308.727 20.7412C308.984 20.917 309.544 21.1777 310.405 21.5234C311.173 21.834 311.735 22.124 312.093 22.3936C312.45 22.6631 312.714 22.9736 312.884 23.3252C313.054 23.6768 313.139 24.0957 313.139 24.582ZM319.3 19.3965C318.731 19.3965 318.286 19.5781 317.964 19.9414C317.642 20.2988 317.457 20.8086 317.41 21.4707H321.172C321.16 20.8086 320.987 20.2988 320.653 19.9414C320.319 19.5781 319.868 19.3965 319.3 19.3965ZM319.678 27.6758C318.096 27.6758 316.859 27.2393 315.969 26.3662C315.078 25.4932 314.633 24.2568 314.633 22.6572C314.633 21.0107 315.043 19.7393 315.863 18.8428C316.689 17.9404 317.829 17.4893 319.282 17.4893C320.671 17.4893 321.752 17.8848 322.525 18.6758C323.299 19.4668 323.686 20.5596 323.686 21.9541V23.2549H317.349C317.378 24.0166 317.604 24.6113 318.025 25.0391C318.447 25.4668 319.039 25.6807 319.801 25.6807C320.393 25.6807 320.952 25.6191 321.479 25.4961C322.007 25.373 322.558 25.1768 323.132 24.9072V26.9814C322.663 27.2158 322.162 27.3887 321.629 27.5C321.096 27.6172 320.445 27.6758 319.678 27.6758ZM332.677 22.5693C332.677 23.542 332.835 24.2773 333.151 24.7754C333.474 25.2734 333.995 25.5225 334.716 25.5225C335.431 25.5225 335.943 25.2764 336.254 24.7842C336.57 24.2861 336.729 23.5479 336.729 22.5693C336.729 21.5967 336.57 20.8672 336.254 20.3809C335.938 19.8945 335.419 19.6514 334.698 19.6514C333.983 19.6514 333.468 19.8945 333.151 20.3809C332.835 20.8613 332.677 21.5908 332.677 22.5693ZM339.471 22.5693C339.471 24.1689 339.049 25.4199 338.205 26.3223C337.361 27.2246 336.187 27.6758 334.681 27.6758C333.737 27.6758 332.905 27.4707 332.185 27.0605C331.464 26.6445 330.91 26.0498 330.523 25.2764C330.137 24.5029 329.943 23.6006 329.943 22.5693C329.943 20.9639 330.362 19.7158 331.2 18.8252C332.038 17.9346 333.216 17.4893 334.733 17.4893C335.677 17.4893 336.509 17.6943 337.229 18.1045C337.95 18.5146 338.504 19.1035 338.891 19.8711C339.277 20.6387 339.471 21.5381 339.471 22.5693ZM347.117 19.6865H344.797V27.5H342.116V19.6865H340.64V18.3945L342.116 17.6738V16.9531C342.116 15.834 342.392 15.0166 342.942 14.501C343.493 13.9854 344.375 13.7275 345.588 13.7275C346.514 13.7275 347.337 13.8652 348.058 14.1406L347.372 16.1094C346.833 15.9395 346.335 15.8545 345.878 15.8545C345.497 15.8545 345.222 15.9688 345.052 16.1973C344.882 16.4199 344.797 16.707 344.797 17.0586V17.6738H347.117V19.6865ZM357.479 25.54C357.948 25.54 358.511 25.4375 359.167 25.2324V27.2275C358.499 27.5264 357.679 27.6758 356.706 27.6758C355.634 27.6758 354.852 27.4062 354.359 26.8672C353.873 26.3223 353.63 25.5078 353.63 24.4238V19.6865H352.347V18.5527L353.823 17.6562L354.597 15.582H356.311V17.6738H359.062V19.6865H356.311V24.4238C356.311 24.8047 356.416 25.0859 356.627 25.2676C356.844 25.4492 357.128 25.54 357.479 25.54ZM370.232 27.5H367.552V21.7607C367.552 20.3428 367.024 19.6338 365.97 19.6338C365.22 19.6338 364.678 19.8887 364.344 20.3984C364.01 20.9082 363.843 21.7344 363.843 22.877V27.5H361.162V13.8242H363.843V16.6104C363.843 16.8271 363.822 17.3369 363.781 18.1396L363.72 18.9307H363.86C364.458 17.9697 365.407 17.4893 366.708 17.4893C367.862 17.4893 368.738 17.7998 369.336 18.4209C369.934 19.042 370.232 19.9326 370.232 21.0928V27.5ZM377.062 19.3965C376.493 19.3965 376.048 19.5781 375.726 19.9414C375.403 20.2988 375.219 20.8086 375.172 21.4707H378.934C378.922 20.8086 378.749 20.2988 378.415 19.9414C378.081 19.5781 377.63 19.3965 377.062 19.3965ZM377.439 27.6758C375.857 27.6758 374.621 27.2393 373.73 26.3662C372.84 25.4932 372.395 24.2568 372.395 22.6572C372.395 21.0107 372.805 19.7393 373.625 18.8428C374.451 17.9404 375.591 17.4893 377.044 17.4893C378.433 17.4893 379.514 17.8848 380.287 18.6758C381.061 19.4668 381.447 20.5596 381.447 21.9541V23.2549H375.11C375.14 24.0166 375.365 24.6113 375.787 25.0391C376.209 25.4668 376.801 25.6807 377.562 25.6807C378.154 25.6807 378.714 25.6191 379.241 25.4961C379.769 25.373 380.319 25.1768 380.894 24.9072V26.9814C380.425 27.2158 379.924 27.3887 379.391 27.5C378.857 27.6172 378.207 27.6758 377.439 27.6758ZM396.38 27.5L395.624 24.0635L394.604 19.7217H394.543L392.75 27.5H389.867L387.072 17.6738H389.744L390.878 22.0244C391.06 22.8037 391.244 23.8789 391.432 25.25H391.484C391.508 24.8047 391.61 24.0986 391.792 23.1318L391.933 22.3848L393.146 17.6738H396.099L397.25 22.3848C397.273 22.5137 397.309 22.7041 397.355 22.9561C397.408 23.208 397.458 23.4775 397.505 23.7646C397.552 24.0459 397.593 24.3242 397.628 24.5996C397.669 24.8691 397.692 25.0859 397.698 25.25H397.751C397.804 24.8281 397.897 24.251 398.032 23.5186C398.167 22.7803 398.264 22.2822 398.322 22.0244L399.5 17.6738H402.128L399.298 27.5H396.38ZM407.788 19.3965C407.22 19.3965 406.774 19.5781 406.452 19.9414C406.13 20.2988 405.945 20.8086 405.898 21.4707H409.66C409.648 20.8086 409.476 20.2988 409.142 19.9414C408.808 19.5781 408.356 19.3965 407.788 19.3965ZM408.166 27.6758C406.584 27.6758 405.348 27.2393 404.457 26.3662C403.566 25.4932 403.121 24.2568 403.121 22.6572C403.121 21.0107 403.531 19.7393 404.352 18.8428C405.178 17.9404 406.317 17.4893 407.771 17.4893C409.159 17.4893 410.24 17.8848 411.014 18.6758C411.787 19.4668 412.174 20.5596 412.174 21.9541V23.2549H405.837C405.866 24.0166 406.092 24.6113 406.514 25.0391C406.936 25.4668 407.527 25.6807 408.289 25.6807C408.881 25.6807 409.44 25.6191 409.968 25.4961C410.495 25.373 411.046 25.1768 411.62 24.9072V26.9814C411.151 27.2158 410.65 27.3887 410.117 27.5C409.584 27.6172 408.934 27.6758 408.166 27.6758ZM419.82 17.4893C420.98 17.4893 421.889 17.9434 422.545 18.8516C423.201 19.7539 423.529 20.9932 423.529 22.5693C423.529 24.1924 423.189 25.4492 422.51 26.3398C421.836 27.2305 420.916 27.6758 419.75 27.6758C418.596 27.6758 417.69 27.2568 417.034 26.4189H416.85L416.401 27.5H414.354V13.8242H417.034V17.0059C417.034 17.4102 416.999 18.0576 416.929 18.9482H417.034C417.661 17.9756 418.59 17.4893 419.82 17.4893ZM418.959 19.6338C418.297 19.6338 417.813 19.8389 417.509 20.249C417.204 20.6533 417.046 21.3242 417.034 22.2617V22.5518C417.034 23.6064 417.189 24.3623 417.5 24.8193C417.816 25.2764 418.314 25.5049 418.994 25.5049C419.545 25.5049 419.981 25.2529 420.304 24.749C420.632 24.2393 420.796 23.501 420.796 22.5342C420.796 21.5674 420.632 20.8438 420.304 20.3633C419.976 19.877 419.527 19.6338 418.959 19.6338ZM432.6 24.582C432.6 25.5898 432.248 26.3574 431.545 26.8848C430.848 27.4121 429.802 27.6758 428.407 27.6758C427.692 27.6758 427.083 27.626 426.579 27.5264C426.075 27.4326 425.604 27.292 425.164 27.1045V24.8896C425.662 25.124 426.222 25.3203 426.843 25.4785C427.47 25.6367 428.021 25.7158 428.495 25.7158C429.468 25.7158 429.954 25.4346 429.954 24.8721C429.954 24.6611 429.89 24.4912 429.761 24.3623C429.632 24.2275 429.409 24.0781 429.093 23.9141C428.776 23.7441 428.354 23.5479 427.827 23.3252C427.071 23.0088 426.515 22.7158 426.157 22.4463C425.806 22.1768 425.548 21.8691 425.384 21.5234C425.226 21.1719 425.146 20.7412 425.146 20.2314C425.146 19.3584 425.483 18.6846 426.157 18.21C426.837 17.7295 427.798 17.4893 429.04 17.4893C430.224 17.4893 431.375 17.7471 432.494 18.2627L431.686 20.1963C431.193 19.9854 430.733 19.8125 430.306 19.6777C429.878 19.543 429.441 19.4756 428.996 19.4756C428.205 19.4756 427.81 19.6895 427.81 20.1172C427.81 20.3574 427.936 20.5654 428.188 20.7412C428.445 20.917 429.005 21.1777 429.866 21.5234C430.634 21.834 431.196 22.124 431.554 22.3936C431.911 22.6631 432.175 22.9736 432.345 23.3252C432.515 23.6768 432.6 24.0957 432.6 24.582ZM434.577 15.1338C434.577 14.2607 435.063 13.8242 436.036 13.8242C437.009 13.8242 437.495 14.2607 437.495 15.1338C437.495 15.5498 437.372 15.875 437.126 16.1094C436.886 16.3379 436.522 16.4521 436.036 16.4521C435.063 16.4521 434.577 16.0127 434.577 15.1338ZM437.372 27.5H434.691V17.6738H437.372V27.5ZM444.333 25.54C444.802 25.54 445.364 25.4375 446.021 25.2324V27.2275C445.353 27.5264 444.532 27.6758 443.56 27.6758C442.487 27.6758 441.705 27.4062 441.213 26.8672C440.727 26.3223 440.483 25.5078 440.483 24.4238V19.6865H439.2V18.5527L440.677 17.6562L441.45 15.582H443.164V17.6738H445.915V19.6865H443.164V24.4238C443.164 24.8047 443.27 25.0859 443.48 25.2676C443.697 25.4492 443.981 25.54 444.333 25.54ZM452.085 19.3965C451.517 19.3965 451.071 19.5781 450.749 19.9414C450.427 20.2988 450.242 20.8086 450.195 21.4707H453.957C453.945 20.8086 453.772 20.2988 453.438 19.9414C453.104 19.5781 452.653 19.3965 452.085 19.3965ZM452.463 27.6758C450.881 27.6758 449.645 27.2393 448.754 26.3662C447.863 25.4932 447.418 24.2568 447.418 22.6572C447.418 21.0107 447.828 19.7393 448.648 18.8428C449.475 17.9404 450.614 17.4893 452.067 17.4893C453.456 17.4893 454.537 17.8848 455.311 18.6758C456.084 19.4668 456.471 20.5596 456.471 21.9541V23.2549H450.134C450.163 24.0166 450.389 24.6113 450.811 25.0391C451.232 25.4668 451.824 25.6807 452.586 25.6807C453.178 25.6807 453.737 25.6191 454.265 25.4961C454.792 25.373 455.343 25.1768 455.917 24.9072V26.9814C455.448 27.2158 454.947 27.3887 454.414 27.5C453.881 27.6172 453.23 27.6758 452.463 27.6758ZM468.758 19.6865H466.438V27.5H463.757V19.6865H462.28V18.3945L463.757 17.6738V16.9531C463.757 15.834 464.032 15.0166 464.583 14.501C465.134 13.9854 466.016 13.7275 467.229 13.7275C468.154 13.7275 468.978 13.8652 469.698 14.1406L469.013 16.1094C468.474 15.9395 467.976 15.8545 467.519 15.8545C467.138 15.8545 466.862 15.9688 466.692 16.1973C466.522 16.4199 466.438 16.707 466.438 17.0586V17.6738H468.758V19.6865ZM475.789 17.4893C476.152 17.4893 476.454 17.5156 476.694 17.5684L476.492 20.082C476.275 20.0234 476.012 19.9941 475.701 19.9941C474.846 19.9941 474.178 20.2139 473.697 20.6533C473.223 21.0928 472.985 21.708 472.985 22.499V27.5H470.305V17.6738H472.335L472.73 19.3262H472.862C473.167 18.7754 473.577 18.333 474.093 17.999C474.614 17.6592 475.18 17.4893 475.789 17.4893ZM480.614 22.5693C480.614 23.542 480.772 24.2773 481.089 24.7754C481.411 25.2734 481.933 25.5225 482.653 25.5225C483.368 25.5225 483.881 25.2764 484.191 24.7842C484.508 24.2861 484.666 23.5479 484.666 22.5693C484.666 21.5967 484.508 20.8672 484.191 20.3809C483.875 19.8945 483.356 19.6514 482.636 19.6514C481.921 19.6514 481.405 19.8945 481.089 20.3809C480.772 20.8613 480.614 21.5908 480.614 22.5693ZM487.408 22.5693C487.408 24.1689 486.986 25.4199 486.143 26.3223C485.299 27.2246 484.124 27.6758 482.618 27.6758C481.675 27.6758 480.843 27.4707 480.122 27.0605C479.401 26.6445 478.848 26.0498 478.461 25.2764C478.074 24.5029 477.881 23.6006 477.881 22.5693C477.881 20.9639 478.3 19.7158 479.138 18.8252C479.976 17.9346 481.153 17.4893 482.671 17.4893C483.614 17.4893 484.446 17.6943 485.167 18.1045C485.888 18.5146 486.441 19.1035 486.828 19.8711C487.215 20.6387 487.408 21.5381 487.408 22.5693ZM498.421 27.5H495.74V21.7607C495.74 21.0518 495.62 20.5215 495.38 20.1699C495.146 19.8125 494.773 19.6338 494.264 19.6338C493.578 19.6338 493.08 19.8857 492.77 20.3896C492.459 20.8936 492.304 21.7227 492.304 22.877V27.5H489.623V17.6738H491.671L492.031 18.9307H492.181C492.444 18.4795 492.825 18.1279 493.323 17.876C493.821 17.6182 494.393 17.4893 495.037 17.4893C496.508 17.4893 497.504 17.9697 498.025 18.9307H498.263C498.526 18.4736 498.913 18.1191 499.423 17.8672C499.938 17.6152 500.519 17.4893 501.163 17.4893C502.276 17.4893 503.117 17.7764 503.686 18.3506C504.26 18.9189 504.547 19.833 504.547 21.0928V27.5H501.857V21.7607C501.857 21.0518 501.737 20.5215 501.497 20.1699C501.263 19.8125 500.891 19.6338 500.381 19.6338C499.725 19.6338 499.232 19.8682 498.904 20.3369C498.582 20.8057 498.421 21.5498 498.421 22.5693V27.5ZM514.32 27.5L510.576 17.6738H513.38L515.278 23.2725C515.489 23.9814 515.621 24.6523 515.674 25.2852H515.727C515.756 24.7227 515.888 24.0518 516.122 23.2725L518.012 17.6738H520.815L517.071 27.5H514.32ZM522.116 15.1338C522.116 14.2607 522.603 13.8242 523.575 13.8242C524.548 13.8242 525.034 14.2607 525.034 15.1338C525.034 15.5498 524.911 15.875 524.665 16.1094C524.425 16.3379 524.062 16.4521 523.575 16.4521C522.603 16.4521 522.116 16.0127 522.116 15.1338ZM524.911 27.5H522.23V17.6738H524.911V27.5ZM531.802 19.3965C531.233 19.3965 530.788 19.5781 530.466 19.9414C530.144 20.2988 529.959 20.8086 529.912 21.4707H533.674C533.662 20.8086 533.489 20.2988 533.155 19.9414C532.821 19.5781 532.37 19.3965 531.802 19.3965ZM532.18 27.6758C530.598 27.6758 529.361 27.2393 528.471 26.3662C527.58 25.4932 527.135 24.2568 527.135 22.6572C527.135 21.0107 527.545 19.7393 528.365 18.8428C529.191 17.9404 530.331 17.4893 531.784 17.4893C533.173 17.4893 534.254 17.8848 535.027 18.6758C535.801 19.4668 536.188 20.5596 536.188 21.9541V23.2549H529.851C529.88 24.0166 530.105 24.6113 530.527 25.0391C530.949 25.4668 531.541 25.6807 532.303 25.6807C532.895 25.6807 533.454 25.6191 533.981 25.4961C534.509 25.373 535.06 25.1768 535.634 24.9072V26.9814C535.165 27.2158 534.664 27.3887 534.131 27.5C533.598 27.6172 532.947 27.6758 532.18 27.6758ZM546.444 27.5L545.688 24.0635L544.669 19.7217H544.607L542.814 27.5H539.932L537.137 17.6738H539.809L540.942 22.0244C541.124 22.8037 541.309 23.8789 541.496 25.25H541.549C541.572 24.8047 541.675 24.0986 541.856 23.1318L541.997 22.3848L543.21 17.6738H546.163L547.314 22.3848C547.338 22.5137 547.373 22.7041 547.42 22.9561C547.473 23.208 547.522 23.4775 547.569 23.7646C547.616 24.0459 547.657 24.3242 547.692 24.5996C547.733 24.8691 547.757 25.0859 547.763 25.25H547.815C547.868 24.8281 547.962 24.251 548.097 23.5186C548.231 22.7803 548.328 22.2822 548.387 22.0244L549.564 17.6738H552.192L549.362 27.5H546.444ZM553.669 15.1338C553.669 14.2607 554.155 13.8242 555.128 13.8242C556.101 13.8242 556.587 14.2607 556.587 15.1338C556.587 15.5498 556.464 15.875 556.218 16.1094C555.978 16.3379 555.614 16.4521 555.128 16.4521C554.155 16.4521 553.669 16.0127 553.669 15.1338ZM556.464 27.5H553.783V17.6738H556.464V27.5ZM568.355 27.5H565.675V21.7607C565.675 21.0518 565.549 20.5215 565.297 20.1699C565.045 19.8125 564.644 19.6338 564.093 19.6338C563.343 19.6338 562.801 19.8857 562.467 20.3896C562.133 20.8877 561.966 21.7168 561.966 22.877V27.5H559.285V17.6738H561.333L561.693 18.9307H561.843C562.142 18.4561 562.552 18.0986 563.073 17.8584C563.601 17.6123 564.198 17.4893 564.866 17.4893C566.009 17.4893 566.876 17.7998 567.468 18.4209C568.06 19.0361 568.355 19.9268 568.355 21.0928V27.5ZM579.667 17.6738V19.0361L578.129 19.4316C578.41 19.8711 578.551 20.3633 578.551 20.9082C578.551 21.9629 578.182 22.7861 577.443 23.3779C576.711 23.9639 575.691 24.2568 574.385 24.2568L573.901 24.2305L573.506 24.1865C573.23 24.3975 573.093 24.6318 573.093 24.8896C573.093 25.2764 573.585 25.4697 574.569 25.4697H576.239C577.317 25.4697 578.138 25.7012 578.7 26.1641C579.269 26.627 579.553 27.3066 579.553 28.2031C579.553 29.3516 579.072 30.2422 578.111 30.875C577.156 31.5078 575.782 31.8242 573.989 31.8242C572.618 31.8242 571.569 31.584 570.843 31.1035C570.122 30.6289 569.762 29.9609 569.762 29.0996C569.762 28.5078 569.946 28.0127 570.315 27.6143C570.685 27.2158 571.227 26.9316 571.941 26.7617C571.666 26.6445 571.426 26.4541 571.221 26.1904C571.016 25.9209 570.913 25.6367 570.913 25.3379C570.913 24.9629 571.021 24.6523 571.238 24.4062C571.455 24.1543 571.769 23.9082 572.179 23.668C571.663 23.4453 571.253 23.0879 570.948 22.5957C570.649 22.1035 570.5 21.5234 570.5 20.8555C570.5 19.7832 570.849 18.9541 571.546 18.3682C572.243 17.7822 573.239 17.4893 574.534 17.4893C574.81 17.4893 575.135 17.5156 575.51 17.5684C575.891 17.6152 576.134 17.6504 576.239 17.6738H579.667ZM572.082 28.8887C572.082 29.2578 572.258 29.5479 572.609 29.7588C572.967 29.9697 573.465 30.0752 574.104 30.0752C575.064 30.0752 575.817 29.9434 576.362 29.6797C576.907 29.416 577.18 29.0557 577.18 28.5986C577.18 28.2295 577.019 27.9746 576.696 27.834C576.374 27.6934 575.876 27.623 575.202 27.623H573.813C573.321 27.623 572.908 27.7373 572.574 27.9658C572.246 28.2002 572.082 28.5078 572.082 28.8887ZM573.058 20.8906C573.058 21.4238 573.178 21.8457 573.418 22.1562C573.664 22.4668 574.036 22.6221 574.534 22.6221C575.038 22.6221 575.407 22.4668 575.642 22.1562C575.876 21.8457 575.993 21.4238 575.993 20.8906C575.993 19.707 575.507 19.1152 574.534 19.1152C573.55 19.1152 573.058 19.707 573.058 20.8906ZM590.108 25.54C590.577 25.54 591.14 25.4375 591.796 25.2324V27.2275C591.128 27.5264 590.308 27.6758 589.335 27.6758C588.263 27.6758 587.48 27.4062 586.988 26.8672C586.502 26.3223 586.259 25.5078 586.259 24.4238V19.6865H584.976V18.5527L586.452 17.6562L587.226 15.582H588.939V17.6738H591.69V19.6865H588.939V24.4238C588.939 24.8047 589.045 25.0859 589.256 25.2676C589.473 25.4492 589.757 25.54 590.108 25.54ZM602.861 27.5H600.181V21.7607C600.181 20.3428 599.653 19.6338 598.599 19.6338C597.849 19.6338 597.307 19.8887 596.973 20.3984C596.639 20.9082 596.472 21.7344 596.472 22.877V27.5H593.791V13.8242H596.472V16.6104C596.472 16.8271 596.451 17.3369 596.41 18.1396L596.349 18.9307H596.489C597.087 17.9697 598.036 17.4893 599.337 17.4893C600.491 17.4893 601.367 17.7998 601.965 18.4209C602.562 19.042 602.861 19.9326 602.861 21.0928V27.5ZM609.69 19.3965C609.122 19.3965 608.677 19.5781 608.354 19.9414C608.032 20.2988 607.848 20.8086 607.801 21.4707H611.562C611.551 20.8086 611.378 20.2988 611.044 19.9414C610.71 19.5781 610.259 19.3965 609.69 19.3965ZM610.068 27.6758C608.486 27.6758 607.25 27.2393 606.359 26.3662C605.469 25.4932 605.023 24.2568 605.023 22.6572C605.023 21.0107 605.434 19.7393 606.254 18.8428C607.08 17.9404 608.22 17.4893 609.673 17.4893C611.062 17.4893 612.143 17.8848 612.916 18.6758C613.689 19.4668 614.076 20.5596 614.076 21.9541V23.2549H607.739C607.769 24.0166 607.994 24.6113 608.416 25.0391C608.838 25.4668 609.43 25.6807 610.191 25.6807C610.783 25.6807 611.343 25.6191 611.87 25.4961C612.397 25.373 612.948 25.1768 613.522 24.9072V26.9814C613.054 27.2158 612.553 27.3887 612.02 27.5C611.486 27.6172 610.836 27.6758 610.068 27.6758ZM117.477 52.5H114.796V46.7607C114.796 45.3428 114.269 44.6338 113.214 44.6338C112.464 44.6338 111.922 44.8887 111.588 45.3984C111.254 45.9082 111.087 46.7344 111.087 47.877V52.5H108.406V38.8242H111.087V41.6104C111.087 41.8271 111.066 42.3369 111.025 43.1396L110.964 43.9307H111.104C111.702 42.9697 112.651 42.4893 113.952 42.4893C115.106 42.4893 115.982 42.7998 116.58 43.4209C117.178 44.042 117.477 44.9326 117.477 46.0928V52.5ZM122.372 47.5693C122.372 48.542 122.53 49.2773 122.847 49.7754C123.169 50.2734 123.69 50.5225 124.411 50.5225C125.126 50.5225 125.639 50.2764 125.949 49.7842C126.266 49.2861 126.424 48.5479 126.424 47.5693C126.424 46.5967 126.266 45.8672 125.949 45.3809C125.633 44.8945 125.114 44.6514 124.394 44.6514C123.679 44.6514 123.163 44.8945 122.847 45.3809C122.53 45.8613 122.372 46.5908 122.372 47.5693ZM129.166 47.5693C129.166 49.1689 128.744 50.4199 127.9 51.3223C127.057 52.2246 125.882 52.6758 124.376 52.6758C123.433 52.6758 122.601 52.4707 121.88 52.0605C121.159 51.6445 120.605 51.0498 120.219 50.2764C119.832 49.5029 119.639 48.6006 119.639 47.5693C119.639 45.9639 120.058 44.7158 120.896 43.8252C121.733 42.9346 122.911 42.4893 124.429 42.4893C125.372 42.4893 126.204 42.6943 126.925 43.1045C127.646 43.5146 128.199 44.1035 128.586 44.8711C128.973 45.6387 129.166 46.5381 129.166 47.5693ZM140.179 52.5H137.498V46.7607C137.498 46.0518 137.378 45.5215 137.138 45.1699C136.903 44.8125 136.531 44.6338 136.021 44.6338C135.336 44.6338 134.838 44.8857 134.527 45.3896C134.217 45.8936 134.062 46.7227 134.062 47.877V52.5H131.381V42.6738H133.429L133.789 43.9307H133.938C134.202 43.4795 134.583 43.1279 135.081 42.876C135.579 42.6182 136.15 42.4893 136.795 42.4893C138.266 42.4893 139.262 42.9697 139.783 43.9307H140.021C140.284 43.4736 140.671 43.1191 141.181 42.8672C141.696 42.6152 142.276 42.4893 142.921 42.4893C144.034 42.4893 144.875 42.7764 145.443 43.3506C146.018 43.9189 146.305 44.833 146.305 46.0928V52.5H143.615V46.7607C143.615 46.0518 143.495 45.5215 143.255 45.1699C143.021 44.8125 142.648 44.6338 142.139 44.6338C141.482 44.6338 140.99 44.8682 140.662 45.3369C140.34 45.8057 140.179 46.5498 140.179 47.5693V52.5ZM153.134 44.3965C152.565 44.3965 152.12 44.5781 151.798 44.9414C151.476 45.2988 151.291 45.8086 151.244 46.4707H155.006C154.994 45.8086 154.821 45.2988 154.487 44.9414C154.153 44.5781 153.702 44.3965 153.134 44.3965ZM153.512 52.6758C151.93 52.6758 150.693 52.2393 149.803 51.3662C148.912 50.4932 148.467 49.2568 148.467 47.6572C148.467 46.0107 148.877 44.7393 149.697 43.8428C150.523 42.9404 151.663 42.4893 153.116 42.4893C154.505 42.4893 155.586 42.8848 156.359 43.6758C157.133 44.4668 157.52 45.5596 157.52 46.9541V48.2549H151.183C151.212 49.0166 151.438 49.6113 151.859 50.0391C152.281 50.4668 152.873 50.6807 153.635 50.6807C154.227 50.6807 154.786 50.6191 155.313 50.4961C155.841 50.373 156.392 50.1768 156.966 49.9072V51.9814C156.497 52.2158 155.996 52.3887 155.463 52.5C154.93 52.6172 154.279 52.6758 153.512 52.6758ZM165.096 52.6758C163.941 52.6758 163.036 52.2568 162.38 51.4189H162.239C162.333 52.2393 162.38 52.7139 162.38 52.8428V56.8242H159.699V42.6738H161.879L162.257 43.9482H162.38C163.007 42.9756 163.936 42.4893 165.166 42.4893C166.326 42.4893 167.234 42.9375 167.891 43.834C168.547 44.7305 168.875 45.9756 168.875 47.5693C168.875 48.6182 168.72 49.5293 168.409 50.3027C168.104 51.0762 167.668 51.665 167.1 52.0693C166.531 52.4736 165.863 52.6758 165.096 52.6758ZM164.305 44.6338C163.643 44.6338 163.159 44.8389 162.854 45.249C162.55 45.6533 162.392 46.3242 162.38 47.2617V47.5518C162.38 48.6064 162.535 49.3623 162.846 49.8193C163.162 50.2764 163.66 50.5049 164.34 50.5049C165.541 50.5049 166.142 49.5146 166.142 47.5342C166.142 46.5674 165.992 45.8438 165.693 45.3633C165.4 44.877 164.938 44.6338 164.305 44.6338ZM177.33 52.5L176.812 51.1641H176.741C176.29 51.7324 175.824 52.1279 175.344 52.3506C174.869 52.5674 174.248 52.6758 173.48 52.6758C172.537 52.6758 171.793 52.4062 171.248 51.8672C170.709 51.3281 170.439 50.5605 170.439 49.5645C170.439 48.5215 170.803 47.7539 171.529 47.2617C172.262 46.7637 173.363 46.4883 174.834 46.4355L176.539 46.3828V45.9521C176.539 44.9561 176.029 44.458 175.01 44.458C174.225 44.458 173.302 44.6953 172.241 45.1699L171.354 43.3594C172.484 42.7676 173.738 42.4717 175.115 42.4717C176.434 42.4717 177.444 42.7588 178.147 43.333C178.851 43.9072 179.202 44.7803 179.202 45.9521V52.5H177.33ZM176.539 47.9473L175.502 47.9824C174.723 48.0059 174.143 48.1465 173.762 48.4043C173.381 48.6621 173.19 49.0547 173.19 49.582C173.19 50.3379 173.624 50.7158 174.491 50.7158C175.112 50.7158 175.607 50.5371 175.977 50.1797C176.352 49.8223 176.539 49.3477 176.539 48.7559V47.9473ZM190.522 42.6738V44.0361L188.984 44.4316C189.266 44.8711 189.406 45.3633 189.406 45.9082C189.406 46.9629 189.037 47.7861 188.299 48.3779C187.566 48.9639 186.547 49.2568 185.24 49.2568L184.757 49.2305L184.361 49.1865C184.086 49.3975 183.948 49.6318 183.948 49.8896C183.948 50.2764 184.44 50.4697 185.425 50.4697H187.095C188.173 50.4697 188.993 50.7012 189.556 51.1641C190.124 51.627 190.408 52.3066 190.408 53.2031C190.408 54.3516 189.928 55.2422 188.967 55.875C188.012 56.5078 186.638 56.8242 184.845 56.8242C183.474 56.8242 182.425 56.584 181.698 56.1035C180.978 55.6289 180.617 54.9609 180.617 54.0996C180.617 53.5078 180.802 53.0127 181.171 52.6143C181.54 52.2158 182.082 51.9316 182.797 51.7617C182.521 51.6445 182.281 51.4541 182.076 51.1904C181.871 50.9209 181.769 50.6367 181.769 50.3379C181.769 49.9629 181.877 49.6523 182.094 49.4062C182.311 49.1543 182.624 48.9082 183.034 48.668C182.519 48.4453 182.108 48.0879 181.804 47.5957C181.505 47.1035 181.355 46.5234 181.355 45.8555C181.355 44.7832 181.704 43.9541 182.401 43.3682C183.099 42.7822 184.095 42.4893 185.39 42.4893C185.665 42.4893 185.99 42.5156 186.365 42.5684C186.746 42.6152 186.989 42.6504 187.095 42.6738H190.522ZM182.938 53.8887C182.938 54.2578 183.113 54.5479 183.465 54.7588C183.822 54.9697 184.32 55.0752 184.959 55.0752C185.92 55.0752 186.673 54.9434 187.218 54.6797C187.763 54.416 188.035 54.0557 188.035 53.5986C188.035 53.2295 187.874 52.9746 187.552 52.834C187.229 52.6934 186.731 52.623 186.058 52.623H184.669C184.177 52.623 183.764 52.7373 183.43 52.9658C183.102 53.2002 182.938 53.5078 182.938 53.8887ZM183.913 45.8906C183.913 46.4238 184.033 46.8457 184.273 47.1562C184.52 47.4668 184.892 47.6221 185.39 47.6221C185.894 47.6221 186.263 47.4668 186.497 47.1562C186.731 46.8457 186.849 46.4238 186.849 45.8906C186.849 44.707 186.362 44.1152 185.39 44.1152C184.405 44.1152 183.913 44.707 183.913 45.8906ZM196.218 44.3965C195.649 44.3965 195.204 44.5781 194.882 44.9414C194.56 45.2988 194.375 45.8086 194.328 46.4707H198.09C198.078 45.8086 197.905 45.2988 197.571 44.9414C197.237 44.5781 196.786 44.3965 196.218 44.3965ZM196.596 52.6758C195.014 52.6758 193.777 52.2393 192.887 51.3662C191.996 50.4932 191.551 49.2568 191.551 47.6572C191.551 46.0107 191.961 44.7393 192.781 43.8428C193.607 42.9404 194.747 42.4893 196.2 42.4893C197.589 42.4893 198.67 42.8848 199.443 43.6758C200.217 44.4668 200.604 45.5596 200.604 46.9541V48.2549H194.267C194.296 49.0166 194.521 49.6113 194.943 50.0391C195.365 50.4668 195.957 50.6807 196.719 50.6807C197.311 50.6807 197.87 50.6191 198.397 50.4961C198.925 50.373 199.476 50.1768 200.05 49.9072V51.9814C199.581 52.2158 199.08 52.3887 198.547 52.5C198.014 52.6172 197.363 52.6758 196.596 52.6758Z" fill="#0F4FAD"/>
</svg>
