<svg width="479" height="80" viewBox="0 0 479 80" fill="none" xmlns="http://www.w3.org/2000/svg">
<path d="M16.5 33.14C19.58 33.14 22.02 33.82 23.82 35.18C25.62 36.5 26.52 38.36 26.52 40.76C26.52 42.4 26.04 43.92 25.08 45.32C24.16 46.72 23.06 47.96 21.78 49.04C20.5 50.12 18.74 51.46 16.5 53.06C13.62 55.06 11.6 56.66 10.44 57.86H23.4C24.48 57.86 25.28 57.78 25.8 57.62C26.36 57.46 26.74 57.2 26.94 56.84C27.14 56.48 27.3 55.92 27.42 55.16H28.68C28.68 59.88 28.76 63.26 28.92 65.3C28.04 65.1 25.06 65 19.98 65H2.52V63.86C3.04 63.3 4.06 62.34 5.58 60.98C7.9 58.86 9.82 56.98 11.34 55.34C12.9 53.66 14.24 51.74 15.36 49.58C16.52 47.38 17.1 45.1 17.1 42.74C17.1 40.62 16.62 39.08 15.66 38.12C14.74 37.12 13.36 36.62 11.52 36.62C9.84 36.62 8.34 37.02 7.02 37.82C5.74 38.58 4.56 39.72 3.48 41.24L2.46 40.64C5.42 35.64 10.1 33.14 16.5 33.14ZM51.2063 38.6C53.3663 38.6 55.3263 39.12 57.0863 40.16C58.8863 41.2 60.3063 42.72 61.3463 44.72C62.4263 46.68 62.9663 48.96 62.9663 51.56C62.9663 54.52 62.2863 57.08 60.9263 59.24C59.6063 61.4 57.8063 63.04 55.5263 64.16C53.2463 65.28 50.7463 65.84 48.0263 65.84C43.6263 65.84 40.1663 64.34 37.6463 61.34C35.1663 58.34 33.9263 54.14 33.9263 48.74C33.9263 43.18 35.1663 38.46 37.6463 34.58C40.1663 30.7 43.2463 27.72 46.8863 25.64C50.5663 23.56 54.2263 22.22 57.8663 21.62L58.1063 22.82C55.5463 23.62 53.2863 24.66 51.3263 25.94C49.4063 27.22 47.7063 29.2 46.2263 31.88C44.7863 34.56 43.8263 38.12 43.3463 42.56C44.1863 41.2 45.2863 40.2 46.6463 39.56C48.0463 38.92 49.5663 38.6 51.2063 38.6ZM48.6263 64.64C50.1463 64.64 51.4063 63.62 52.4063 61.58C53.4063 59.5 53.9063 56.34 53.9063 52.1C53.9063 48.02 53.4263 45.04 52.4663 43.16C51.5463 41.28 50.3263 40.34 48.8063 40.34C47.7663 40.34 46.7063 40.72 45.6263 41.48C44.5463 42.24 43.7063 43.38 43.1063 44.9C43.0263 46.66 42.9863 48.06 42.9863 49.1C42.9863 54.58 43.5263 58.54 44.6063 60.98C45.7263 63.42 47.0663 64.64 48.6263 64.64ZM104.699 16.34L69.5991 68.3L68.4591 67.52L103.559 15.56L104.699 16.34ZM76.1991 19.34C79.1191 19.34 81.4591 20.22 83.2191 21.98C85.0191 23.7 85.9191 26.08 85.9191 29.12C85.9191 31.12 85.4991 32.88 84.6591 34.4C83.8191 35.92 82.6591 37.1 81.1791 37.94C79.6991 38.78 78.0391 39.2 76.1991 39.2C73.2791 39.2 70.9191 38.34 69.1191 36.62C67.3191 34.86 66.4191 32.46 66.4191 29.42C66.4191 27.46 66.8391 25.72 67.6791 24.2C68.5191 22.64 69.6791 21.44 71.1591 20.6C72.6791 19.76 74.3591 19.34 76.1991 19.34ZM76.0791 20.42C73.4791 20.42 72.1791 23.4 72.1791 29.36C72.1791 32.24 72.5391 34.42 73.2591 35.9C73.9791 37.38 74.9991 38.12 76.3191 38.12C78.8791 38.12 80.1591 35.16 80.1591 29.24C80.1591 26.32 79.7991 24.12 79.0791 22.64C78.3991 21.16 77.3991 20.42 76.0791 20.42ZM96.3591 45.98C99.2791 45.98 101.619 46.86 103.379 48.62C105.179 50.34 106.079 52.72 106.079 55.76C106.079 57.76 105.659 59.52 104.819 61.04C103.979 62.56 102.819 63.74 101.339 64.58C99.8591 65.42 98.1991 65.84 96.3591 65.84C93.4391 65.84 91.0791 64.98 89.2791 63.26C87.4791 61.5 86.5791 59.1 86.5791 56.06C86.5791 54.1 86.9991 52.36 87.8391 50.84C88.6791 49.28 89.8391 48.08 91.3191 47.24C92.8391 46.4 94.5191 45.98 96.3591 45.98ZM96.2391 47.06C93.6391 47.06 92.3391 50.04 92.3391 56C92.3391 58.88 92.6991 61.06 93.4191 62.54C94.1391 64.02 95.1591 64.76 96.4791 64.76C99.0391 64.76 100.319 61.8 100.319 55.88C100.319 52.96 99.9591 50.76 99.2391 49.28C98.5591 47.8 97.5591 47.06 96.2391 47.06Z" fill="#0F4FAD"/>
<path d="M138.483 36L137.728 32.5635L136.708 28.2217H136.646L134.854 36H131.971L129.176 26.1738H131.848L132.981 30.5244C133.163 31.3037 133.348 32.3789 133.535 33.75H133.588C133.611 33.3047 133.714 32.5986 133.896 31.6318L134.036 30.8848L135.249 26.1738H138.202L139.354 30.8848C139.377 31.0137 139.412 31.2041 139.459 31.4561C139.512 31.708 139.562 31.9775 139.608 32.2646C139.655 32.5459 139.696 32.8242 139.731 33.0996C139.772 33.3691 139.796 33.5859 139.802 33.75H139.854C139.907 33.3281 140.001 32.751 140.136 32.0186C140.271 31.2803 140.367 30.7822 140.426 30.5244L141.604 26.1738H144.231L141.401 36H138.483ZM152.062 36L151.544 34.6641H151.474C151.022 35.2324 150.557 35.6279 150.076 35.8506C149.602 36.0674 148.98 36.1758 148.213 36.1758C147.27 36.1758 146.525 35.9062 145.98 35.3672C145.441 34.8281 145.172 34.0605 145.172 33.0645C145.172 32.0215 145.535 31.2539 146.262 30.7617C146.994 30.2637 148.096 29.9883 149.566 29.9355L151.271 29.8828V29.4521C151.271 28.4561 150.762 27.958 149.742 27.958C148.957 27.958 148.034 28.1953 146.974 28.6699L146.086 26.8594C147.217 26.2676 148.471 25.9717 149.848 25.9717C151.166 25.9717 152.177 26.2588 152.88 26.833C153.583 27.4072 153.935 28.2803 153.935 29.4521V36H152.062ZM151.271 31.4473L150.234 31.4824C149.455 31.5059 148.875 31.6465 148.494 31.9043C148.113 32.1621 147.923 32.5547 147.923 33.082C147.923 33.8379 148.356 34.2158 149.224 34.2158C149.845 34.2158 150.34 34.0371 150.709 33.6797C151.084 33.3223 151.271 32.8477 151.271 32.2559V31.4473ZM165.773 36H163.093V30.2607C163.093 29.5518 162.967 29.0215 162.715 28.6699C162.463 28.3125 162.062 28.1338 161.511 28.1338C160.761 28.1338 160.219 28.3857 159.885 28.8896C159.551 29.3877 159.384 30.2168 159.384 31.377V36H156.703V26.1738H158.751L159.111 27.4307H159.261C159.56 26.9561 159.97 26.5986 160.491 26.3584C161.019 26.1123 161.616 25.9893 162.284 25.9893C163.427 25.9893 164.294 26.2998 164.886 26.9209C165.478 27.5361 165.773 28.4268 165.773 29.5928V36ZM172.673 34.04C173.142 34.04 173.704 33.9375 174.36 33.7324V35.7275C173.692 36.0264 172.872 36.1758 171.899 36.1758C170.827 36.1758 170.045 35.9062 169.553 35.3672C169.066 34.8223 168.823 34.0078 168.823 32.9238V28.1865H167.54V27.0527L169.017 26.1562L169.79 24.082H171.504V26.1738H174.255V28.1865H171.504V32.9238C171.504 33.3047 171.609 33.5859 171.82 33.7676C172.037 33.9492 172.321 34.04 172.673 34.04ZM180.425 27.8965C179.856 27.8965 179.411 28.0781 179.089 28.4414C178.767 28.7988 178.582 29.3086 178.535 29.9707H182.297C182.285 29.3086 182.112 28.7988 181.778 28.4414C181.444 28.0781 180.993 27.8965 180.425 27.8965ZM180.803 36.1758C179.221 36.1758 177.984 35.7393 177.094 34.8662C176.203 33.9932 175.758 32.7568 175.758 31.1572C175.758 29.5107 176.168 28.2393 176.988 27.3428C177.814 26.4404 178.954 25.9893 180.407 25.9893C181.796 25.9893 182.877 26.3848 183.65 27.1758C184.424 27.9668 184.811 29.0596 184.811 30.4541V31.7549H178.474C178.503 32.5166 178.729 33.1113 179.15 33.5391C179.572 33.9668 180.164 34.1807 180.926 34.1807C181.518 34.1807 182.077 34.1191 182.604 33.9961C183.132 33.873 183.683 33.6768 184.257 33.4072V35.4814C183.788 35.7158 183.287 35.8887 182.754 36C182.221 36.1172 181.57 36.1758 180.803 36.1758ZM190.102 36.1758C188.947 36.1758 188.039 35.7275 187.377 34.8311C186.721 33.9346 186.393 32.6924 186.393 31.1045C186.393 29.4932 186.727 28.2393 187.395 27.3428C188.068 26.4404 188.994 25.9893 190.172 25.9893C191.408 25.9893 192.352 26.4697 193.002 27.4307H193.09C192.955 26.6982 192.888 26.0449 192.888 25.4707V22.3242H195.577V36H193.521L193.002 34.7256H192.888C192.278 35.6924 191.35 36.1758 190.102 36.1758ZM191.042 34.04C191.728 34.04 192.229 33.8408 192.545 33.4424C192.867 33.0439 193.043 32.3672 193.072 31.4121V31.1221C193.072 30.0674 192.908 29.3115 192.58 28.8545C192.258 28.3975 191.73 28.1689 190.998 28.1689C190.4 28.1689 189.935 28.4238 189.601 28.9336C189.272 29.4375 189.108 30.1729 189.108 31.1396C189.108 32.1064 189.275 32.833 189.609 33.3193C189.943 33.7998 190.421 34.04 191.042 34.04ZM207.196 34.04C207.665 34.04 208.228 33.9375 208.884 33.7324V35.7275C208.216 36.0264 207.396 36.1758 206.423 36.1758C205.351 36.1758 204.568 35.9062 204.076 35.3672C203.59 34.8223 203.347 34.0078 203.347 32.9238V28.1865H202.063V27.0527L203.54 26.1562L204.313 24.082H206.027V26.1738H208.778V28.1865H206.027V32.9238C206.027 33.3047 206.133 33.5859 206.344 33.7676C206.561 33.9492 206.845 34.04 207.196 34.04ZM213.015 31.0693C213.015 32.042 213.173 32.7773 213.489 33.2754C213.812 33.7734 214.333 34.0225 215.054 34.0225C215.769 34.0225 216.281 33.7764 216.592 33.2842C216.908 32.7861 217.066 32.0479 217.066 31.0693C217.066 30.0967 216.908 29.3672 216.592 28.8809C216.275 28.3945 215.757 28.1514 215.036 28.1514C214.321 28.1514 213.806 28.3945 213.489 28.8809C213.173 29.3613 213.015 30.0908 213.015 31.0693ZM219.809 31.0693C219.809 32.6689 219.387 33.9199 218.543 34.8223C217.699 35.7246 216.524 36.1758 215.019 36.1758C214.075 36.1758 213.243 35.9707 212.522 35.5605C211.802 35.1445 211.248 34.5498 210.861 33.7764C210.475 33.0029 210.281 32.1006 210.281 31.0693C210.281 29.4639 210.7 28.2158 211.538 27.3252C212.376 26.4346 213.554 25.9893 215.071 25.9893C216.015 25.9893 216.847 26.1943 217.567 26.6045C218.288 27.0146 218.842 27.6035 219.229 28.3711C219.615 29.1387 219.809 30.0381 219.809 31.0693ZM229.38 36H226.699V22.3242H229.38V36ZM236.271 27.8965C235.702 27.8965 235.257 28.0781 234.935 28.4414C234.612 28.7988 234.428 29.3086 234.381 29.9707H238.143C238.131 29.3086 237.958 28.7988 237.624 28.4414C237.29 28.0781 236.839 27.8965 236.271 27.8965ZM236.648 36.1758C235.066 36.1758 233.83 35.7393 232.939 34.8662C232.049 33.9932 231.604 32.7568 231.604 31.1572C231.604 29.5107 232.014 28.2393 232.834 27.3428C233.66 26.4404 234.8 25.9893 236.253 25.9893C237.642 25.9893 238.723 26.3848 239.496 27.1758C240.27 27.9668 240.656 29.0596 240.656 30.4541V31.7549H234.319C234.349 32.5166 234.574 33.1113 234.996 33.5391C235.418 33.9668 236.01 34.1807 236.771 34.1807C237.363 34.1807 237.923 34.1191 238.45 33.9961C238.978 33.873 239.528 33.6768 240.103 33.4072V35.4814C239.634 35.7158 239.133 35.8887 238.6 36C238.066 36.1172 237.416 36.1758 236.648 36.1758ZM249.076 36L248.558 34.6641H248.487C248.036 35.2324 247.57 35.6279 247.09 35.8506C246.615 36.0674 245.994 36.1758 245.227 36.1758C244.283 36.1758 243.539 35.9062 242.994 35.3672C242.455 34.8281 242.186 34.0605 242.186 33.0645C242.186 32.0215 242.549 31.2539 243.275 30.7617C244.008 30.2637 245.109 29.9883 246.58 29.9355L248.285 29.8828V29.4521C248.285 28.4561 247.775 27.958 246.756 27.958C245.971 27.958 245.048 28.1953 243.987 28.6699L243.1 26.8594C244.23 26.2676 245.484 25.9717 246.861 25.9717C248.18 25.9717 249.19 26.2588 249.894 26.833C250.597 27.4072 250.948 28.2803 250.948 29.4521V36H249.076ZM248.285 31.4473L247.248 31.4824C246.469 31.5059 245.889 31.6465 245.508 31.9043C245.127 32.1621 244.937 32.5547 244.937 33.082C244.937 33.8379 245.37 34.2158 246.237 34.2158C246.858 34.2158 247.354 34.0371 247.723 33.6797C248.098 33.3223 248.285 32.8477 248.285 32.2559V31.4473ZM259.201 25.9893C259.564 25.9893 259.866 26.0156 260.106 26.0684L259.904 28.582C259.688 28.5234 259.424 28.4941 259.113 28.4941C258.258 28.4941 257.59 28.7139 257.109 29.1533C256.635 29.5928 256.397 30.208 256.397 30.999V36H253.717V26.1738H255.747L256.143 27.8262H256.274C256.579 27.2754 256.989 26.833 257.505 26.499C258.026 26.1592 258.592 25.9893 259.201 25.9893ZM270.961 36H268.28V30.2607C268.28 29.5518 268.154 29.0215 267.902 28.6699C267.65 28.3125 267.249 28.1338 266.698 28.1338C265.948 28.1338 265.406 28.3857 265.072 28.8896C264.738 29.3877 264.571 30.2168 264.571 31.377V36H261.891V26.1738H263.938L264.299 27.4307H264.448C264.747 26.9561 265.157 26.5986 265.679 26.3584C266.206 26.1123 266.804 25.9893 267.472 25.9893C268.614 25.9893 269.481 26.2998 270.073 26.9209C270.665 27.5361 270.961 28.4268 270.961 29.5928V36ZM287.194 36H284.514V30.2607C284.514 29.5518 284.394 29.0215 284.153 28.6699C283.919 28.3125 283.547 28.1338 283.037 28.1338C282.352 28.1338 281.854 28.3857 281.543 28.8896C281.232 29.3936 281.077 30.2227 281.077 31.377V36H278.396V26.1738H280.444L280.805 27.4307H280.954C281.218 26.9795 281.599 26.6279 282.097 26.376C282.595 26.1182 283.166 25.9893 283.811 25.9893C285.281 25.9893 286.277 26.4697 286.799 27.4307H287.036C287.3 26.9736 287.687 26.6191 288.196 26.3672C288.712 26.1152 289.292 25.9893 289.937 25.9893C291.05 25.9893 291.891 26.2764 292.459 26.8506C293.033 27.4189 293.32 28.333 293.32 29.5928V36H290.631V30.2607C290.631 29.5518 290.511 29.0215 290.271 28.6699C290.036 28.3125 289.664 28.1338 289.154 28.1338C288.498 28.1338 288.006 28.3682 287.678 28.8369C287.355 29.3057 287.194 30.0498 287.194 31.0693V36ZM298.216 31.0693C298.216 32.042 298.374 32.7773 298.69 33.2754C299.013 33.7734 299.534 34.0225 300.255 34.0225C300.97 34.0225 301.482 33.7764 301.793 33.2842C302.109 32.7861 302.268 32.0479 302.268 31.0693C302.268 30.0967 302.109 29.3672 301.793 28.8809C301.477 28.3945 300.958 28.1514 300.237 28.1514C299.522 28.1514 299.007 28.3945 298.69 28.8809C298.374 29.3613 298.216 30.0908 298.216 31.0693ZM305.01 31.0693C305.01 32.6689 304.588 33.9199 303.744 34.8223C302.9 35.7246 301.726 36.1758 300.22 36.1758C299.276 36.1758 298.444 35.9707 297.724 35.5605C297.003 35.1445 296.449 34.5498 296.062 33.7764C295.676 33.0029 295.482 32.1006 295.482 31.0693C295.482 29.4639 295.901 28.2158 296.739 27.3252C297.577 26.4346 298.755 25.9893 300.272 25.9893C301.216 25.9893 302.048 26.1943 302.769 26.6045C303.489 27.0146 304.043 27.6035 304.43 28.3711C304.816 29.1387 305.01 30.0381 305.01 31.0693ZM312.709 25.9893C313.072 25.9893 313.374 26.0156 313.614 26.0684L313.412 28.582C313.195 28.5234 312.932 28.4941 312.621 28.4941C311.766 28.4941 311.098 28.7139 310.617 29.1533C310.143 29.5928 309.905 30.208 309.905 30.999V36H307.225V26.1738H309.255L309.65 27.8262H309.782C310.087 27.2754 310.497 26.833 311.013 26.499C311.534 26.1592 312.1 25.9893 312.709 25.9893ZM319.468 27.8965C318.899 27.8965 318.454 28.0781 318.132 28.4414C317.81 28.7988 317.625 29.3086 317.578 29.9707H321.34C321.328 29.3086 321.155 28.7988 320.821 28.4414C320.487 28.0781 320.036 27.8965 319.468 27.8965ZM319.846 36.1758C318.264 36.1758 317.027 35.7393 316.137 34.8662C315.246 33.9932 314.801 32.7568 314.801 31.1572C314.801 29.5107 315.211 28.2393 316.031 27.3428C316.857 26.4404 317.997 25.9893 319.45 25.9893C320.839 25.9893 321.92 26.3848 322.693 27.1758C323.467 27.9668 323.854 29.0596 323.854 30.4541V31.7549H317.517C317.546 32.5166 317.771 33.1113 318.193 33.5391C318.615 33.9668 319.207 34.1807 319.969 34.1807C320.561 34.1807 321.12 34.1191 321.647 33.9961C322.175 33.873 322.726 33.6768 323.3 33.4072V35.4814C322.831 35.7158 322.33 35.8887 321.797 36C321.264 36.1172 320.613 36.1758 319.846 36.1758ZM336.949 36L336.431 34.6641H336.36C335.909 35.2324 335.443 35.6279 334.963 35.8506C334.488 36.0674 333.867 36.1758 333.1 36.1758C332.156 36.1758 331.412 35.9062 330.867 35.3672C330.328 34.8281 330.059 34.0605 330.059 33.0645C330.059 32.0215 330.422 31.2539 331.148 30.7617C331.881 30.2637 332.982 29.9883 334.453 29.9355L336.158 29.8828V29.4521C336.158 28.4561 335.648 27.958 334.629 27.958C333.844 27.958 332.921 28.1953 331.86 28.6699L330.973 26.8594C332.104 26.2676 333.357 25.9717 334.734 25.9717C336.053 25.9717 337.063 26.2588 337.767 26.833C338.47 27.4072 338.821 28.2803 338.821 29.4521V36H336.949ZM336.158 31.4473L335.121 31.4824C334.342 31.5059 333.762 31.6465 333.381 31.9043C333 32.1621 332.81 32.5547 332.81 33.082C332.81 33.8379 333.243 34.2158 334.11 34.2158C334.731 34.2158 335.227 34.0371 335.596 33.6797C335.971 33.3223 336.158 32.8477 336.158 32.2559V31.4473ZM347.057 25.9893C348.217 25.9893 349.125 26.4434 349.781 27.3516C350.438 28.2539 350.766 29.4932 350.766 31.0693C350.766 32.6924 350.426 33.9492 349.746 34.8398C349.072 35.7305 348.152 36.1758 346.986 36.1758C345.832 36.1758 344.927 35.7568 344.271 34.9189H344.086L343.638 36H341.59V22.3242H344.271V25.5059C344.271 25.9102 344.235 26.5576 344.165 27.4482H344.271C344.897 26.4756 345.826 25.9893 347.057 25.9893ZM346.195 28.1338C345.533 28.1338 345.05 28.3389 344.745 28.749C344.44 29.1533 344.282 29.8242 344.271 30.7617V31.0518C344.271 32.1064 344.426 32.8623 344.736 33.3193C345.053 33.7764 345.551 34.0049 346.23 34.0049C346.781 34.0049 347.218 33.7529 347.54 33.249C347.868 32.7393 348.032 32.001 348.032 31.0342C348.032 30.0674 347.868 29.3438 347.54 28.8633C347.212 28.377 346.764 28.1338 346.195 28.1338ZM355.116 31.0693C355.116 32.042 355.274 32.7773 355.591 33.2754C355.913 33.7734 356.435 34.0225 357.155 34.0225C357.87 34.0225 358.383 33.7764 358.693 33.2842C359.01 32.7861 359.168 32.0479 359.168 31.0693C359.168 30.0967 359.01 29.3672 358.693 28.8809C358.377 28.3945 357.858 28.1514 357.138 28.1514C356.423 28.1514 355.907 28.3945 355.591 28.8809C355.274 29.3613 355.116 30.0908 355.116 31.0693ZM361.91 31.0693C361.91 32.6689 361.488 33.9199 360.645 34.8223C359.801 35.7246 358.626 36.1758 357.12 36.1758C356.177 36.1758 355.345 35.9707 354.624 35.5605C353.903 35.1445 353.35 34.5498 352.963 33.7764C352.576 33.0029 352.383 32.1006 352.383 31.0693C352.383 29.4639 352.802 28.2158 353.64 27.3252C354.478 26.4346 355.655 25.9893 357.173 25.9893C358.116 25.9893 358.948 26.1943 359.669 26.6045C360.39 27.0146 360.943 27.6035 361.33 28.3711C361.717 29.1387 361.91 30.0381 361.91 31.0693ZM371.086 36L370.726 34.7432H370.585C370.298 35.2002 369.891 35.5547 369.363 35.8066C368.836 36.0527 368.235 36.1758 367.562 36.1758C366.407 36.1758 365.537 35.8682 364.951 35.2529C364.365 34.6318 364.072 33.7412 364.072 32.5811V26.1738H366.753V31.9131C366.753 32.6221 366.879 33.1553 367.131 33.5127C367.383 33.8643 367.784 34.04 368.335 34.04C369.085 34.04 369.627 33.791 369.961 33.293C370.295 32.7891 370.462 31.957 370.462 30.7969V26.1738H373.143V36H371.086ZM380.095 34.04C380.563 34.04 381.126 33.9375 381.782 33.7324V35.7275C381.114 36.0264 380.294 36.1758 379.321 36.1758C378.249 36.1758 377.467 35.9062 376.975 35.3672C376.488 34.8223 376.245 34.0078 376.245 32.9238V28.1865H374.962V27.0527L376.438 26.1562L377.212 24.082H378.926V26.1738H381.677V28.1865H378.926V32.9238C378.926 33.3047 379.031 33.5859 379.242 33.7676C379.459 33.9492 379.743 34.04 380.095 34.04ZM391.389 29.1973H392.285C393.123 29.1973 393.75 29.0332 394.166 28.7051C394.582 28.3711 394.79 27.8877 394.79 27.2549C394.79 26.6162 394.614 26.1445 394.263 25.8398C393.917 25.5352 393.372 25.3828 392.628 25.3828H391.389V29.1973ZM397.541 27.1582C397.541 28.541 397.107 29.5986 396.24 30.3311C395.379 31.0635 394.151 31.4297 392.558 31.4297H391.389V36H388.664V23.1504H392.769C394.327 23.1504 395.511 23.4873 396.319 24.1611C397.134 24.8291 397.541 25.8281 397.541 27.1582ZM410.426 23.1504V31.4648C410.426 32.4141 410.212 33.2461 409.784 33.9609C409.362 34.6758 408.75 35.2236 407.947 35.6045C407.145 35.9854 406.195 36.1758 405.1 36.1758C403.447 36.1758 402.164 35.7539 401.25 34.9102C400.336 34.0605 399.879 32.9004 399.879 31.4297V23.1504H402.595V31.0166C402.595 32.0068 402.794 32.7334 403.192 33.1963C403.591 33.6592 404.25 33.8906 405.17 33.8906C406.061 33.8906 406.705 33.6592 407.104 33.1963C407.508 32.7275 407.71 31.9951 407.71 30.999V23.1504H410.426ZM420.973 36H413.572V23.1504H420.973V25.3828H416.297V28.2041H420.647V30.4365H416.297V33.75H420.973V36ZM433.559 28.1865H431.238V36H428.558V28.1865H427.081V26.8945L428.558 26.1738V25.4531C428.558 24.334 428.833 23.5166 429.384 23.001C429.935 22.4854 430.816 22.2275 432.029 22.2275C432.955 22.2275 433.778 22.3652 434.499 22.6406L433.813 24.6094C433.274 24.4395 432.776 24.3545 432.319 24.3545C431.938 24.3545 431.663 24.4688 431.493 24.6973C431.323 24.9199 431.238 25.207 431.238 25.5586V26.1738H433.559V28.1865ZM440.59 25.9893C440.953 25.9893 441.255 26.0156 441.495 26.0684L441.293 28.582C441.076 28.5234 440.812 28.4941 440.502 28.4941C439.646 28.4941 438.979 28.7139 438.498 29.1533C438.023 29.5928 437.786 30.208 437.786 30.999V36H435.105V26.1738H437.136L437.531 27.8262H437.663C437.968 27.2754 438.378 26.833 438.894 26.499C439.415 26.1592 439.98 25.9893 440.59 25.9893ZM445.415 31.0693C445.415 32.042 445.573 32.7773 445.89 33.2754C446.212 33.7734 446.733 34.0225 447.454 34.0225C448.169 34.0225 448.682 33.7764 448.992 33.2842C449.309 32.7861 449.467 32.0479 449.467 31.0693C449.467 30.0967 449.309 29.3672 448.992 28.8809C448.676 28.3945 448.157 28.1514 447.437 28.1514C446.722 28.1514 446.206 28.3945 445.89 28.8809C445.573 29.3613 445.415 30.0908 445.415 31.0693ZM452.209 31.0693C452.209 32.6689 451.787 33.9199 450.943 34.8223C450.1 35.7246 448.925 36.1758 447.419 36.1758C446.476 36.1758 445.644 35.9707 444.923 35.5605C444.202 35.1445 443.648 34.5498 443.262 33.7764C442.875 33.0029 442.682 32.1006 442.682 31.0693C442.682 29.4639 443.101 28.2158 443.938 27.3252C444.776 26.4346 445.954 25.9893 447.472 25.9893C448.415 25.9893 449.247 26.1943 449.968 26.6045C450.688 27.0146 451.242 27.6035 451.629 28.3711C452.016 29.1387 452.209 30.0381 452.209 31.0693ZM463.222 36H460.541V30.2607C460.541 29.5518 460.421 29.0215 460.181 28.6699C459.946 28.3125 459.574 28.1338 459.064 28.1338C458.379 28.1338 457.881 28.3857 457.57 28.8896C457.26 29.3936 457.104 30.2227 457.104 31.377V36H454.424V26.1738H456.472L456.832 27.4307H456.981C457.245 26.9795 457.626 26.6279 458.124 26.376C458.622 26.1182 459.193 25.9893 459.838 25.9893C461.309 25.9893 462.305 26.4697 462.826 27.4307H463.063C463.327 26.9736 463.714 26.6191 464.224 26.3672C464.739 26.1152 465.319 25.9893 465.964 25.9893C467.077 25.9893 467.918 26.2764 468.486 26.8506C469.061 27.4189 469.348 28.333 469.348 29.5928V36H466.658V30.2607C466.658 29.5518 466.538 29.0215 466.298 28.6699C466.063 28.3125 465.691 28.1338 465.182 28.1338C464.525 28.1338 464.033 28.3682 463.705 28.8369C463.383 29.3057 463.222 30.0498 463.222 31.0693V36ZM134.546 68.04C135.015 68.04 135.577 67.9375 136.233 67.7324V69.7275C135.565 70.0264 134.745 70.1758 133.772 70.1758C132.7 70.1758 131.918 69.9062 131.426 69.3672C130.939 68.8223 130.696 68.0078 130.696 66.9238V62.1865H129.413V61.0527L130.89 60.1562L131.663 58.082H133.377V60.1738H136.128V62.1865H133.377V66.9238C133.377 67.3047 133.482 67.5859 133.693 67.7676C133.91 67.9492 134.194 68.04 134.546 68.04ZM147.299 70H144.618V64.2607C144.618 62.8428 144.091 62.1338 143.036 62.1338C142.286 62.1338 141.744 62.3887 141.41 62.8984C141.076 63.4082 140.909 64.2344 140.909 65.377V70H138.229V56.3242H140.909V59.1104C140.909 59.3271 140.889 59.8369 140.848 60.6396L140.786 61.4307H140.927C141.524 60.4697 142.474 59.9893 143.774 59.9893C144.929 59.9893 145.805 60.2998 146.402 60.9209C147 61.542 147.299 62.4326 147.299 63.5928V70ZM154.128 61.8965C153.56 61.8965 153.114 62.0781 152.792 62.4414C152.47 62.7988 152.285 63.3086 152.238 63.9707H156C155.988 63.3086 155.815 62.7988 155.481 62.4414C155.147 62.0781 154.696 61.8965 154.128 61.8965ZM154.506 70.1758C152.924 70.1758 151.688 69.7393 150.797 68.8662C149.906 67.9932 149.461 66.7568 149.461 65.1572C149.461 63.5107 149.871 62.2393 150.691 61.3428C151.518 60.4404 152.657 59.9893 154.11 59.9893C155.499 59.9893 156.58 60.3848 157.354 61.1758C158.127 61.9668 158.514 63.0596 158.514 64.4541V65.7549H152.177C152.206 66.5166 152.432 67.1113 152.854 67.5391C153.275 67.9668 153.867 68.1807 154.629 68.1807C155.221 68.1807 155.78 68.1191 156.308 67.9961C156.835 67.873 157.386 67.6768 157.96 67.4072V69.4814C157.491 69.7158 156.99 69.8887 156.457 70C155.924 70.1172 155.273 70.1758 154.506 70.1758ZM174.439 70H171.759V64.2607C171.759 62.8428 171.231 62.1338 170.177 62.1338C169.427 62.1338 168.885 62.3887 168.551 62.8984C168.217 63.4082 168.05 64.2344 168.05 65.377V70H165.369V56.3242H168.05V59.1104C168.05 59.3271 168.029 59.8369 167.988 60.6396L167.927 61.4307H168.067C168.665 60.4697 169.614 59.9893 170.915 59.9893C172.069 59.9893 172.945 60.2998 173.543 60.9209C174.141 61.542 174.439 62.4326 174.439 63.5928V70ZM179.335 65.0693C179.335 66.042 179.493 66.7773 179.81 67.2754C180.132 67.7734 180.653 68.0225 181.374 68.0225C182.089 68.0225 182.602 67.7764 182.912 67.2842C183.229 66.7861 183.387 66.0479 183.387 65.0693C183.387 64.0967 183.229 63.3672 182.912 62.8809C182.596 62.3945 182.077 62.1514 181.356 62.1514C180.642 62.1514 180.126 62.3945 179.81 62.8809C179.493 63.3613 179.335 64.0908 179.335 65.0693ZM186.129 65.0693C186.129 66.6689 185.707 67.9199 184.863 68.8223C184.02 69.7246 182.845 70.1758 181.339 70.1758C180.396 70.1758 179.563 69.9707 178.843 69.5605C178.122 69.1445 177.568 68.5498 177.182 67.7764C176.795 67.0029 176.602 66.1006 176.602 65.0693C176.602 63.4639 177.021 62.2158 177.858 61.3252C178.696 60.4346 179.874 59.9893 181.392 59.9893C182.335 59.9893 183.167 60.1943 183.888 60.6045C184.608 61.0146 185.162 61.6035 185.549 62.3711C185.936 63.1387 186.129 64.0381 186.129 65.0693ZM197.142 70H194.461V64.2607C194.461 63.5518 194.341 63.0215 194.101 62.6699C193.866 62.3125 193.494 62.1338 192.984 62.1338C192.299 62.1338 191.801 62.3857 191.49 62.8896C191.18 63.3936 191.024 64.2227 191.024 65.377V70H188.344V60.1738H190.392L190.752 61.4307H190.901C191.165 60.9795 191.546 60.6279 192.044 60.376C192.542 60.1182 193.113 59.9893 193.758 59.9893C195.229 59.9893 196.225 60.4697 196.746 61.4307H196.983C197.247 60.9736 197.634 60.6191 198.144 60.3672C198.659 60.1152 199.239 59.9893 199.884 59.9893C200.997 59.9893 201.838 60.2764 202.406 60.8506C202.98 61.4189 203.268 62.333 203.268 63.5928V70H200.578V64.2607C200.578 63.5518 200.458 63.0215 200.218 62.6699C199.983 62.3125 199.611 62.1338 199.102 62.1338C198.445 62.1338 197.953 62.3682 197.625 62.8369C197.303 63.3057 197.142 64.0498 197.142 65.0693V70ZM210.097 61.8965C209.528 61.8965 209.083 62.0781 208.761 62.4414C208.438 62.7988 208.254 63.3086 208.207 63.9707H211.969C211.957 63.3086 211.784 62.7988 211.45 62.4414C211.116 62.0781 210.665 61.8965 210.097 61.8965ZM210.475 70.1758C208.893 70.1758 207.656 69.7393 206.766 68.8662C205.875 67.9932 205.43 66.7568 205.43 65.1572C205.43 63.5107 205.84 62.2393 206.66 61.3428C207.486 60.4404 208.626 59.9893 210.079 59.9893C211.468 59.9893 212.549 60.3848 213.322 61.1758C214.096 61.9668 214.482 63.0596 214.482 64.4541V65.7549H208.146C208.175 66.5166 208.4 67.1113 208.822 67.5391C209.244 67.9668 209.836 68.1807 210.598 68.1807C211.189 68.1807 211.749 68.1191 212.276 67.9961C212.804 67.873 213.354 67.6768 213.929 67.4072V69.4814C213.46 69.7158 212.959 69.8887 212.426 70C211.893 70.1172 211.242 70.1758 210.475 70.1758ZM222.059 70.1758C220.904 70.1758 219.999 69.7568 219.343 68.9189H219.202C219.296 69.7393 219.343 70.2139 219.343 70.3428V74.3242H216.662V60.1738H218.842L219.22 61.4482H219.343C219.97 60.4756 220.898 59.9893 222.129 59.9893C223.289 59.9893 224.197 60.4375 224.854 61.334C225.51 62.2305 225.838 63.4756 225.838 65.0693C225.838 66.1182 225.683 67.0293 225.372 67.8027C225.067 68.5762 224.631 69.165 224.062 69.5693C223.494 69.9736 222.826 70.1758 222.059 70.1758ZM221.268 62.1338C220.605 62.1338 220.122 62.3389 219.817 62.749C219.513 63.1533 219.354 63.8242 219.343 64.7617V65.0518C219.343 66.1064 219.498 66.8623 219.809 67.3193C220.125 67.7764 220.623 68.0049 221.303 68.0049C222.504 68.0049 223.104 67.0146 223.104 65.0342C223.104 64.0674 222.955 63.3438 222.656 62.8633C222.363 62.377 221.9 62.1338 221.268 62.1338ZM234.293 70L233.774 68.6641H233.704C233.253 69.2324 232.787 69.6279 232.307 69.8506C231.832 70.0674 231.211 70.1758 230.443 70.1758C229.5 70.1758 228.756 69.9062 228.211 69.3672C227.672 68.8281 227.402 68.0605 227.402 67.0645C227.402 66.0215 227.766 65.2539 228.492 64.7617C229.225 64.2637 230.326 63.9883 231.797 63.9355L233.502 63.8828V63.4521C233.502 62.4561 232.992 61.958 231.973 61.958C231.188 61.958 230.265 62.1953 229.204 62.6699L228.316 60.8594C229.447 60.2676 230.701 59.9717 232.078 59.9717C233.396 59.9717 234.407 60.2588 235.11 60.833C235.813 61.4072 236.165 62.2803 236.165 63.4521V70H234.293ZM233.502 65.4473L232.465 65.4824C231.686 65.5059 231.105 65.6465 230.725 65.9043C230.344 66.1621 230.153 66.5547 230.153 67.082C230.153 67.8379 230.587 68.2158 231.454 68.2158C232.075 68.2158 232.57 68.0371 232.939 67.6797C233.314 67.3223 233.502 66.8477 233.502 66.2559V65.4473ZM247.485 60.1738V61.5361L245.947 61.9316C246.229 62.3711 246.369 62.8633 246.369 63.4082C246.369 64.4629 246 65.2861 245.262 65.8779C244.529 66.4639 243.51 66.7568 242.203 66.7568L241.72 66.7305L241.324 66.6865C241.049 66.8975 240.911 67.1318 240.911 67.3896C240.911 67.7764 241.403 67.9697 242.388 67.9697H244.058C245.136 67.9697 245.956 68.2012 246.519 68.6641C247.087 69.127 247.371 69.8066 247.371 70.7031C247.371 71.8516 246.891 72.7422 245.93 73.375C244.975 74.0078 243.601 74.3242 241.808 74.3242C240.437 74.3242 239.388 74.084 238.661 73.6035C237.94 73.1289 237.58 72.4609 237.58 71.5996C237.58 71.0078 237.765 70.5127 238.134 70.1143C238.503 69.7158 239.045 69.4316 239.76 69.2617C239.484 69.1445 239.244 68.9541 239.039 68.6904C238.834 68.4209 238.731 68.1367 238.731 67.8379C238.731 67.4629 238.84 67.1523 239.057 66.9062C239.273 66.6543 239.587 66.4082 239.997 66.168C239.481 65.9453 239.071 65.5879 238.767 65.0957C238.468 64.6035 238.318 64.0234 238.318 63.3555C238.318 62.2832 238.667 61.4541 239.364 60.8682C240.062 60.2822 241.058 59.9893 242.353 59.9893C242.628 59.9893 242.953 60.0156 243.328 60.0684C243.709 60.1152 243.952 60.1504 244.058 60.1738H247.485ZM239.9 71.3887C239.9 71.7578 240.076 72.0479 240.428 72.2588C240.785 72.4697 241.283 72.5752 241.922 72.5752C242.883 72.5752 243.636 72.4434 244.181 72.1797C244.726 71.916 244.998 71.5557 244.998 71.0986C244.998 70.7295 244.837 70.4746 244.515 70.334C244.192 70.1934 243.694 70.123 243.021 70.123H241.632C241.14 70.123 240.727 70.2373 240.393 70.4658C240.064 70.7002 239.9 71.0078 239.9 71.3887ZM240.876 63.3906C240.876 63.9238 240.996 64.3457 241.236 64.6562C241.482 64.9668 241.854 65.1221 242.353 65.1221C242.856 65.1221 243.226 64.9668 243.46 64.6562C243.694 64.3457 243.812 63.9238 243.812 63.3906C243.812 62.207 243.325 61.6152 242.353 61.6152C241.368 61.6152 240.876 62.207 240.876 63.3906ZM253.181 61.8965C252.612 61.8965 252.167 62.0781 251.845 62.4414C251.522 62.7988 251.338 63.3086 251.291 63.9707H255.053C255.041 63.3086 254.868 62.7988 254.534 62.4414C254.2 62.0781 253.749 61.8965 253.181 61.8965ZM253.559 70.1758C251.977 70.1758 250.74 69.7393 249.85 68.8662C248.959 67.9932 248.514 66.7568 248.514 65.1572C248.514 63.5107 248.924 62.2393 249.744 61.3428C250.57 60.4404 251.71 59.9893 253.163 59.9893C254.552 59.9893 255.633 60.3848 256.406 61.1758C257.18 61.9668 257.566 63.0596 257.566 64.4541V65.7549H251.229C251.259 66.5166 251.484 67.1113 251.906 67.5391C252.328 67.9668 252.92 68.1807 253.682 68.1807C254.273 68.1807 254.833 68.1191 255.36 67.9961C255.888 67.873 256.438 67.6768 257.013 67.4072V69.4814C256.544 69.7158 256.043 69.8887 255.51 70C254.977 70.1172 254.326 70.1758 253.559 70.1758Z" fill="#0F4FAD"/>
</svg>
