<svg width="461" height="67" viewBox="0 0 461 67" fill="none" xmlns="http://www.w3.org/2000/svg">
<path d="M13.75 27.45C16.3167 27.45 18.35 28.0167 19.85 29.15C21.35 30.25 22.1 31.8 22.1 33.8C22.1 35.1667 21.7 36.4333 20.9 37.6C20.1333 38.7667 19.2167 39.8 18.15 40.7C17.0833 41.6 15.6167 42.7167 13.75 44.05C11.35 45.7167 9.66667 47.05 8.7 48.05H19.5C20.4 48.05 21.0667 47.9833 21.5 47.85C21.9667 47.7167 22.2833 47.5 22.45 47.2C22.6167 46.9 22.75 46.4333 22.85 45.8H23.9C23.9 49.7333 23.9667 52.55 24.1 54.25C23.3667 54.0833 20.8833 54 16.65 54H2.1V53.05C2.53333 52.5833 3.38333 51.7833 4.65 50.65C6.58333 48.8833 8.18333 47.3167 9.45 45.95C10.75 44.55 11.8667 42.95 12.8 41.15C13.7667 39.3167 14.25 37.4167 14.25 35.45C14.25 33.6833 13.85 32.4 13.05 31.6C12.2833 30.7667 11.1333 30.35 9.6 30.35C8.2 30.35 6.95 30.6833 5.85 31.35C4.78333 31.9833 3.8 32.9333 2.9 34.2L2.05 33.7C4.51667 29.5333 8.41667 27.45 13.75 27.45ZM42.6719 32C44.4719 32 46.1052 32.4333 47.5719 33.3C49.0719 34.1667 50.2552 35.4333 51.1219 37.1C52.0219 38.7333 52.4719 40.6333 52.4719 42.8C52.4719 45.2667 51.9052 47.4 50.7719 49.2C49.6719 51 48.1719 52.3667 46.2719 53.3C44.3719 54.2333 42.2885 54.7 40.0219 54.7C36.3552 54.7 33.4719 53.45 31.3719 50.95C29.3052 48.45 28.2719 44.95 28.2719 40.45C28.2719 35.8167 29.3052 31.8833 31.3719 28.65C33.4719 25.4167 36.0385 22.9333 39.0719 21.2C42.1385 19.4667 45.1885 18.35 48.2219 17.85L48.4219 18.85C46.2885 19.5167 44.4052 20.3833 42.7719 21.45C41.1719 22.5167 39.7552 24.1667 38.5219 26.4C37.3219 28.6333 36.5219 31.6 36.1219 35.3C36.8219 34.1667 37.7385 33.3333 38.8719 32.8C40.0385 32.2667 41.3052 32 42.6719 32ZM40.5219 53.7C41.7885 53.7 42.8385 52.85 43.6719 51.15C44.5052 49.4167 44.9219 46.7833 44.9219 43.25C44.9219 39.85 44.5219 37.3667 43.7219 35.8C42.9552 34.2333 41.9385 33.45 40.6719 33.45C39.8052 33.45 38.9219 33.7667 38.0219 34.4C37.1219 35.0333 36.4219 35.9833 35.9219 37.25C35.8552 38.7167 35.8219 39.8833 35.8219 40.75C35.8219 45.3167 36.2719 48.6167 37.1719 50.65C38.1052 52.6833 39.2219 53.7 40.5219 53.7ZM87.2492 13.45L57.9992 56.75L57.0492 56.1L86.2992 12.8L87.2492 13.45ZM63.4992 15.95C65.9326 15.95 67.8826 16.6833 69.3492 18.15C70.8492 19.5833 71.5992 21.5667 71.5992 24.1C71.5992 25.7667 71.2492 27.2333 70.5492 28.5C69.8492 29.7667 68.8826 30.75 67.6492 31.45C66.4159 32.15 65.0326 32.5 63.4992 32.5C61.0659 32.5 59.0992 31.7833 57.5992 30.35C56.0992 28.8833 55.3492 26.8833 55.3492 24.35C55.3492 22.7167 55.6992 21.2667 56.3992 20C57.0992 18.7 58.0659 17.7 59.2992 17C60.5659 16.3 61.9659 15.95 63.4992 15.95ZM63.3992 16.85C61.2326 16.85 60.1492 19.3333 60.1492 24.3C60.1492 26.7 60.4492 28.5167 61.0492 29.75C61.6492 30.9833 62.4992 31.6 63.5992 31.6C65.7326 31.6 66.7992 29.1333 66.7992 24.2C66.7992 21.7667 66.4992 19.9333 65.8992 18.7C65.3326 17.4667 64.4992 16.85 63.3992 16.85ZM80.2992 38.15C82.7326 38.15 84.6826 38.8833 86.1492 40.35C87.6492 41.7833 88.3992 43.7667 88.3992 46.3C88.3992 47.9667 88.0492 49.4333 87.3492 50.7C86.6492 51.9667 85.6826 52.95 84.4492 53.65C83.2159 54.35 81.8326 54.7 80.2992 54.7C77.8659 54.7 75.8992 53.9833 74.3992 52.55C72.8992 51.0833 72.1492 49.0833 72.1492 46.55C72.1492 44.9167 72.4992 43.4667 73.1992 42.2C73.8992 40.9 74.8659 39.9 76.0992 39.2C77.3659 38.5 78.7659 38.15 80.2992 38.15ZM80.1992 39.05C78.0326 39.05 76.9492 41.5333 76.9492 46.5C76.9492 48.9 77.2492 50.7167 77.8492 51.95C78.4492 53.1833 79.2992 53.8 80.3992 53.8C82.5326 53.8 83.5992 51.3333 83.5992 46.4C83.5992 43.9667 83.2992 42.1333 82.6992 40.9C82.1326 39.6667 81.2992 39.05 80.1992 39.05Z" fill="#0F4FAD"/>
<path d="M120.483 27.5L119.728 24.0635L118.708 19.7217H118.646L116.854 27.5H113.971L111.176 17.6738H113.848L114.981 22.0244C115.163 22.8037 115.348 23.8789 115.535 25.25H115.588C115.611 24.8047 115.714 24.0986 115.896 23.1318L116.036 22.3848L117.249 17.6738H120.202L121.354 22.3848C121.377 22.5137 121.412 22.7041 121.459 22.9561C121.512 23.208 121.562 23.4775 121.608 23.7646C121.655 24.0459 121.696 24.3242 121.731 24.5996C121.772 24.8691 121.796 25.0859 121.802 25.25H121.854C121.907 24.8281 122.001 24.251 122.136 23.5186C122.271 22.7803 122.367 22.2822 122.426 22.0244L123.604 17.6738H126.231L123.401 27.5H120.483ZM134.062 27.5L133.544 26.1641H133.474C133.022 26.7324 132.557 27.1279 132.076 27.3506C131.602 27.5674 130.98 27.6758 130.213 27.6758C129.27 27.6758 128.525 27.4062 127.98 26.8672C127.441 26.3281 127.172 25.5605 127.172 24.5645C127.172 23.5215 127.535 22.7539 128.262 22.2617C128.994 21.7637 130.096 21.4883 131.566 21.4355L133.271 21.3828V20.9521C133.271 19.9561 132.762 19.458 131.742 19.458C130.957 19.458 130.034 19.6953 128.974 20.1699L128.086 18.3594C129.217 17.7676 130.471 17.4717 131.848 17.4717C133.166 17.4717 134.177 17.7588 134.88 18.333C135.583 18.9072 135.935 19.7803 135.935 20.9521V27.5H134.062ZM133.271 22.9473L132.234 22.9824C131.455 23.0059 130.875 23.1465 130.494 23.4043C130.113 23.6621 129.923 24.0547 129.923 24.582C129.923 25.3379 130.356 25.7158 131.224 25.7158C131.845 25.7158 132.34 25.5371 132.709 25.1797C133.084 24.8223 133.271 24.3477 133.271 23.7559V22.9473ZM147.773 27.5H145.093V21.7607C145.093 21.0518 144.967 20.5215 144.715 20.1699C144.463 19.8125 144.062 19.6338 143.511 19.6338C142.761 19.6338 142.219 19.8857 141.885 20.3896C141.551 20.8877 141.384 21.7168 141.384 22.877V27.5H138.703V17.6738H140.751L141.111 18.9307H141.261C141.56 18.4561 141.97 18.0986 142.491 17.8584C143.019 17.6123 143.616 17.4893 144.284 17.4893C145.427 17.4893 146.294 17.7998 146.886 18.4209C147.478 19.0361 147.773 19.9268 147.773 21.0928V27.5ZM154.673 25.54C155.142 25.54 155.704 25.4375 156.36 25.2324V27.2275C155.692 27.5264 154.872 27.6758 153.899 27.6758C152.827 27.6758 152.045 27.4062 151.553 26.8672C151.066 26.3223 150.823 25.5078 150.823 24.4238V19.6865H149.54V18.5527L151.017 17.6562L151.79 15.582H153.504V17.6738H156.255V19.6865H153.504V24.4238C153.504 24.8047 153.609 25.0859 153.82 25.2676C154.037 25.4492 154.321 25.54 154.673 25.54ZM162.425 19.3965C161.856 19.3965 161.411 19.5781 161.089 19.9414C160.767 20.2988 160.582 20.8086 160.535 21.4707H164.297C164.285 20.8086 164.112 20.2988 163.778 19.9414C163.444 19.5781 162.993 19.3965 162.425 19.3965ZM162.803 27.6758C161.221 27.6758 159.984 27.2393 159.094 26.3662C158.203 25.4932 157.758 24.2568 157.758 22.6572C157.758 21.0107 158.168 19.7393 158.988 18.8428C159.814 17.9404 160.954 17.4893 162.407 17.4893C163.796 17.4893 164.877 17.8848 165.65 18.6758C166.424 19.4668 166.811 20.5596 166.811 21.9541V23.2549H160.474C160.503 24.0166 160.729 24.6113 161.15 25.0391C161.572 25.4668 162.164 25.6807 162.926 25.6807C163.518 25.6807 164.077 25.6191 164.604 25.4961C165.132 25.373 165.683 25.1768 166.257 24.9072V26.9814C165.788 27.2158 165.287 27.3887 164.754 27.5C164.221 27.6172 163.57 27.6758 162.803 27.6758ZM172.102 27.6758C170.947 27.6758 170.039 27.2275 169.377 26.3311C168.721 25.4346 168.393 24.1924 168.393 22.6045C168.393 20.9932 168.727 19.7393 169.395 18.8428C170.068 17.9404 170.994 17.4893 172.172 17.4893C173.408 17.4893 174.352 17.9697 175.002 18.9307H175.09C174.955 18.1982 174.888 17.5449 174.888 16.9707V13.8242H177.577V27.5H175.521L175.002 26.2256H174.888C174.278 27.1924 173.35 27.6758 172.102 27.6758ZM173.042 25.54C173.728 25.54 174.229 25.3408 174.545 24.9424C174.867 24.5439 175.043 23.8672 175.072 22.9121V22.6221C175.072 21.5674 174.908 20.8115 174.58 20.3545C174.258 19.8975 173.73 19.6689 172.998 19.6689C172.4 19.6689 171.935 19.9238 171.601 20.4336C171.272 20.9375 171.108 21.6729 171.108 22.6396C171.108 23.6064 171.275 24.333 171.609 24.8193C171.943 25.2998 172.421 25.54 173.042 25.54ZM189.196 25.54C189.665 25.54 190.228 25.4375 190.884 25.2324V27.2275C190.216 27.5264 189.396 27.6758 188.423 27.6758C187.351 27.6758 186.568 27.4062 186.076 26.8672C185.59 26.3223 185.347 25.5078 185.347 24.4238V19.6865H184.063V18.5527L185.54 17.6562L186.313 15.582H188.027V17.6738H190.778V19.6865H188.027V24.4238C188.027 24.8047 188.133 25.0859 188.344 25.2676C188.561 25.4492 188.845 25.54 189.196 25.54ZM195.015 22.5693C195.015 23.542 195.173 24.2773 195.489 24.7754C195.812 25.2734 196.333 25.5225 197.054 25.5225C197.769 25.5225 198.281 25.2764 198.592 24.7842C198.908 24.2861 199.066 23.5479 199.066 22.5693C199.066 21.5967 198.908 20.8672 198.592 20.3809C198.275 19.8945 197.757 19.6514 197.036 19.6514C196.321 19.6514 195.806 19.8945 195.489 20.3809C195.173 20.8613 195.015 21.5908 195.015 22.5693ZM201.809 22.5693C201.809 24.1689 201.387 25.4199 200.543 26.3223C199.699 27.2246 198.524 27.6758 197.019 27.6758C196.075 27.6758 195.243 27.4707 194.522 27.0605C193.802 26.6445 193.248 26.0498 192.861 25.2764C192.475 24.5029 192.281 23.6006 192.281 22.5693C192.281 20.9639 192.7 19.7158 193.538 18.8252C194.376 17.9346 195.554 17.4893 197.071 17.4893C198.015 17.4893 198.847 17.6943 199.567 18.1045C200.288 18.5146 200.842 19.1035 201.229 19.8711C201.615 20.6387 201.809 21.5381 201.809 22.5693ZM211.38 27.5H208.699V13.8242H211.38V27.5ZM218.271 19.3965C217.702 19.3965 217.257 19.5781 216.935 19.9414C216.612 20.2988 216.428 20.8086 216.381 21.4707H220.143C220.131 20.8086 219.958 20.2988 219.624 19.9414C219.29 19.5781 218.839 19.3965 218.271 19.3965ZM218.648 27.6758C217.066 27.6758 215.83 27.2393 214.939 26.3662C214.049 25.4932 213.604 24.2568 213.604 22.6572C213.604 21.0107 214.014 19.7393 214.834 18.8428C215.66 17.9404 216.8 17.4893 218.253 17.4893C219.642 17.4893 220.723 17.8848 221.496 18.6758C222.27 19.4668 222.656 20.5596 222.656 21.9541V23.2549H216.319C216.349 24.0166 216.574 24.6113 216.996 25.0391C217.418 25.4668 218.01 25.6807 218.771 25.6807C219.363 25.6807 219.923 25.6191 220.45 25.4961C220.978 25.373 221.528 25.1768 222.103 24.9072V26.9814C221.634 27.2158 221.133 27.3887 220.6 27.5C220.066 27.6172 219.416 27.6758 218.648 27.6758ZM231.076 27.5L230.558 26.1641H230.487C230.036 26.7324 229.57 27.1279 229.09 27.3506C228.615 27.5674 227.994 27.6758 227.227 27.6758C226.283 27.6758 225.539 27.4062 224.994 26.8672C224.455 26.3281 224.186 25.5605 224.186 24.5645C224.186 23.5215 224.549 22.7539 225.275 22.2617C226.008 21.7637 227.109 21.4883 228.58 21.4355L230.285 21.3828V20.9521C230.285 19.9561 229.775 19.458 228.756 19.458C227.971 19.458 227.048 19.6953 225.987 20.1699L225.1 18.3594C226.23 17.7676 227.484 17.4717 228.861 17.4717C230.18 17.4717 231.19 17.7588 231.894 18.333C232.597 18.9072 232.948 19.7803 232.948 20.9521V27.5H231.076ZM230.285 22.9473L229.248 22.9824C228.469 23.0059 227.889 23.1465 227.508 23.4043C227.127 23.6621 226.937 24.0547 226.937 24.582C226.937 25.3379 227.37 25.7158 228.237 25.7158C228.858 25.7158 229.354 25.5371 229.723 25.1797C230.098 24.8223 230.285 24.3477 230.285 23.7559V22.9473ZM241.201 17.4893C241.564 17.4893 241.866 17.5156 242.106 17.5684L241.904 20.082C241.688 20.0234 241.424 19.9941 241.113 19.9941C240.258 19.9941 239.59 20.2139 239.109 20.6533C238.635 21.0928 238.397 21.708 238.397 22.499V27.5H235.717V17.6738H237.747L238.143 19.3262H238.274C238.579 18.7754 238.989 18.333 239.505 17.999C240.026 17.6592 240.592 17.4893 241.201 17.4893ZM252.961 27.5H250.28V21.7607C250.28 21.0518 250.154 20.5215 249.902 20.1699C249.65 19.8125 249.249 19.6338 248.698 19.6338C247.948 19.6338 247.406 19.8857 247.072 20.3896C246.738 20.8877 246.571 21.7168 246.571 22.877V27.5H243.891V17.6738H245.938L246.299 18.9307H246.448C246.747 18.4561 247.157 18.0986 247.679 17.8584C248.206 17.6123 248.804 17.4893 249.472 17.4893C250.614 17.4893 251.481 17.7998 252.073 18.4209C252.665 19.0361 252.961 19.9268 252.961 21.0928V27.5ZM269.194 27.5H266.514V21.7607C266.514 21.0518 266.394 20.5215 266.153 20.1699C265.919 19.8125 265.547 19.6338 265.037 19.6338C264.352 19.6338 263.854 19.8857 263.543 20.3896C263.232 20.8936 263.077 21.7227 263.077 22.877V27.5H260.396V17.6738H262.444L262.805 18.9307H262.954C263.218 18.4795 263.599 18.1279 264.097 17.876C264.595 17.6182 265.166 17.4893 265.811 17.4893C267.281 17.4893 268.277 17.9697 268.799 18.9307H269.036C269.3 18.4736 269.687 18.1191 270.196 17.8672C270.712 17.6152 271.292 17.4893 271.937 17.4893C273.05 17.4893 273.891 17.7764 274.459 18.3506C275.033 18.9189 275.32 19.833 275.32 21.0928V27.5H272.631V21.7607C272.631 21.0518 272.511 20.5215 272.271 20.1699C272.036 19.8125 271.664 19.6338 271.154 19.6338C270.498 19.6338 270.006 19.8682 269.678 20.3369C269.355 20.8057 269.194 21.5498 269.194 22.5693V27.5ZM280.216 22.5693C280.216 23.542 280.374 24.2773 280.69 24.7754C281.013 25.2734 281.534 25.5225 282.255 25.5225C282.97 25.5225 283.482 25.2764 283.793 24.7842C284.109 24.2861 284.268 23.5479 284.268 22.5693C284.268 21.5967 284.109 20.8672 283.793 20.3809C283.477 19.8945 282.958 19.6514 282.237 19.6514C281.522 19.6514 281.007 19.8945 280.69 20.3809C280.374 20.8613 280.216 21.5908 280.216 22.5693ZM287.01 22.5693C287.01 24.1689 286.588 25.4199 285.744 26.3223C284.9 27.2246 283.726 27.6758 282.22 27.6758C281.276 27.6758 280.444 27.4707 279.724 27.0605C279.003 26.6445 278.449 26.0498 278.062 25.2764C277.676 24.5029 277.482 23.6006 277.482 22.5693C277.482 20.9639 277.901 19.7158 278.739 18.8252C279.577 17.9346 280.755 17.4893 282.272 17.4893C283.216 17.4893 284.048 17.6943 284.769 18.1045C285.489 18.5146 286.043 19.1035 286.43 19.8711C286.816 20.6387 287.01 21.5381 287.01 22.5693ZM294.709 17.4893C295.072 17.4893 295.374 17.5156 295.614 17.5684L295.412 20.082C295.195 20.0234 294.932 19.9941 294.621 19.9941C293.766 19.9941 293.098 20.2139 292.617 20.6533C292.143 21.0928 291.905 21.708 291.905 22.499V27.5H289.225V17.6738H291.255L291.65 19.3262H291.782C292.087 18.7754 292.497 18.333 293.013 17.999C293.534 17.6592 294.1 17.4893 294.709 17.4893ZM301.468 19.3965C300.899 19.3965 300.454 19.5781 300.132 19.9414C299.81 20.2988 299.625 20.8086 299.578 21.4707H303.34C303.328 20.8086 303.155 20.2988 302.821 19.9414C302.487 19.5781 302.036 19.3965 301.468 19.3965ZM301.846 27.6758C300.264 27.6758 299.027 27.2393 298.137 26.3662C297.246 25.4932 296.801 24.2568 296.801 22.6572C296.801 21.0107 297.211 19.7393 298.031 18.8428C298.857 17.9404 299.997 17.4893 301.45 17.4893C302.839 17.4893 303.92 17.8848 304.693 18.6758C305.467 19.4668 305.854 20.5596 305.854 21.9541V23.2549H299.517C299.546 24.0166 299.771 24.6113 300.193 25.0391C300.615 25.4668 301.207 25.6807 301.969 25.6807C302.561 25.6807 303.12 25.6191 303.647 25.4961C304.175 25.373 304.726 25.1768 305.3 24.9072V26.9814C304.831 27.2158 304.33 27.3887 303.797 27.5C303.264 27.6172 302.613 27.6758 301.846 27.6758ZM318.949 27.5L318.431 26.1641H318.36C317.909 26.7324 317.443 27.1279 316.963 27.3506C316.488 27.5674 315.867 27.6758 315.1 27.6758C314.156 27.6758 313.412 27.4062 312.867 26.8672C312.328 26.3281 312.059 25.5605 312.059 24.5645C312.059 23.5215 312.422 22.7539 313.148 22.2617C313.881 21.7637 314.982 21.4883 316.453 21.4355L318.158 21.3828V20.9521C318.158 19.9561 317.648 19.458 316.629 19.458C315.844 19.458 314.921 19.6953 313.86 20.1699L312.973 18.3594C314.104 17.7676 315.357 17.4717 316.734 17.4717C318.053 17.4717 319.063 17.7588 319.767 18.333C320.47 18.9072 320.821 19.7803 320.821 20.9521V27.5H318.949ZM318.158 22.9473L317.121 22.9824C316.342 23.0059 315.762 23.1465 315.381 23.4043C315 23.6621 314.81 24.0547 314.81 24.582C314.81 25.3379 315.243 25.7158 316.11 25.7158C316.731 25.7158 317.227 25.5371 317.596 25.1797C317.971 24.8223 318.158 24.3477 318.158 23.7559V22.9473ZM329.057 17.4893C330.217 17.4893 331.125 17.9434 331.781 18.8516C332.438 19.7539 332.766 20.9932 332.766 22.5693C332.766 24.1924 332.426 25.4492 331.746 26.3398C331.072 27.2305 330.152 27.6758 328.986 27.6758C327.832 27.6758 326.927 27.2568 326.271 26.4189H326.086L325.638 27.5H323.59V13.8242H326.271V17.0059C326.271 17.4102 326.235 18.0576 326.165 18.9482H326.271C326.897 17.9756 327.826 17.4893 329.057 17.4893ZM328.195 19.6338C327.533 19.6338 327.05 19.8389 326.745 20.249C326.44 20.6533 326.282 21.3242 326.271 22.2617V22.5518C326.271 23.6064 326.426 24.3623 326.736 24.8193C327.053 25.2764 327.551 25.5049 328.23 25.5049C328.781 25.5049 329.218 25.2529 329.54 24.749C329.868 24.2393 330.032 23.501 330.032 22.5342C330.032 21.5674 329.868 20.8438 329.54 20.3633C329.212 19.877 328.764 19.6338 328.195 19.6338ZM337.116 22.5693C337.116 23.542 337.274 24.2773 337.591 24.7754C337.913 25.2734 338.435 25.5225 339.155 25.5225C339.87 25.5225 340.383 25.2764 340.693 24.7842C341.01 24.2861 341.168 23.5479 341.168 22.5693C341.168 21.5967 341.01 20.8672 340.693 20.3809C340.377 19.8945 339.858 19.6514 339.138 19.6514C338.423 19.6514 337.907 19.8945 337.591 20.3809C337.274 20.8613 337.116 21.5908 337.116 22.5693ZM343.91 22.5693C343.91 24.1689 343.488 25.4199 342.645 26.3223C341.801 27.2246 340.626 27.6758 339.12 27.6758C338.177 27.6758 337.345 27.4707 336.624 27.0605C335.903 26.6445 335.35 26.0498 334.963 25.2764C334.576 24.5029 334.383 23.6006 334.383 22.5693C334.383 20.9639 334.802 19.7158 335.64 18.8252C336.478 17.9346 337.655 17.4893 339.173 17.4893C340.116 17.4893 340.948 17.6943 341.669 18.1045C342.39 18.5146 342.943 19.1035 343.33 19.8711C343.717 20.6387 343.91 21.5381 343.91 22.5693ZM353.086 27.5L352.726 26.2432H352.585C352.298 26.7002 351.891 27.0547 351.363 27.3066C350.836 27.5527 350.235 27.6758 349.562 27.6758C348.407 27.6758 347.537 27.3682 346.951 26.7529C346.365 26.1318 346.072 25.2412 346.072 24.0811V17.6738H348.753V23.4131C348.753 24.1221 348.879 24.6553 349.131 25.0127C349.383 25.3643 349.784 25.54 350.335 25.54C351.085 25.54 351.627 25.291 351.961 24.793C352.295 24.2891 352.462 23.457 352.462 22.2969V17.6738H355.143V27.5H353.086ZM362.095 25.54C362.563 25.54 363.126 25.4375 363.782 25.2324V27.2275C363.114 27.5264 362.294 27.6758 361.321 27.6758C360.249 27.6758 359.467 27.4062 358.975 26.8672C358.488 26.3223 358.245 25.5078 358.245 24.4238V19.6865H356.962V18.5527L358.438 17.6562L359.212 15.582H360.926V17.6738H363.677V19.6865H360.926V24.4238C360.926 24.8047 361.031 25.0859 361.242 25.2676C361.459 25.4492 361.743 25.54 362.095 25.54ZM373.389 20.6973H374.285C375.123 20.6973 375.75 20.5332 376.166 20.2051C376.582 19.8711 376.79 19.3877 376.79 18.7549C376.79 18.1162 376.614 17.6445 376.263 17.3398C375.917 17.0352 375.372 16.8828 374.628 16.8828H373.389V20.6973ZM379.541 18.6582C379.541 20.041 379.107 21.0986 378.24 21.8311C377.379 22.5635 376.151 22.9297 374.558 22.9297H373.389V27.5H370.664V14.6504H374.769C376.327 14.6504 377.511 14.9873 378.319 15.6611C379.134 16.3291 379.541 17.3281 379.541 18.6582ZM392.426 14.6504V22.9648C392.426 23.9141 392.212 24.7461 391.784 25.4609C391.362 26.1758 390.75 26.7236 389.947 27.1045C389.145 27.4854 388.195 27.6758 387.1 27.6758C385.447 27.6758 384.164 27.2539 383.25 26.4102C382.336 25.5605 381.879 24.4004 381.879 22.9297V14.6504H384.595V22.5166C384.595 23.5068 384.794 24.2334 385.192 24.6963C385.591 25.1592 386.25 25.3906 387.17 25.3906C388.061 25.3906 388.705 25.1592 389.104 24.6963C389.508 24.2275 389.71 23.4951 389.71 22.499V14.6504H392.426ZM402.973 27.5H395.572V14.6504H402.973V16.8828H398.297V19.7041H402.647V21.9365H398.297V25.25H402.973V27.5ZM415.559 19.6865H413.238V27.5H410.558V19.6865H409.081V18.3945L410.558 17.6738V16.9531C410.558 15.834 410.833 15.0166 411.384 14.501C411.935 13.9854 412.816 13.7275 414.029 13.7275C414.955 13.7275 415.778 13.8652 416.499 14.1406L415.813 16.1094C415.274 15.9395 414.776 15.8545 414.319 15.8545C413.938 15.8545 413.663 15.9688 413.493 16.1973C413.323 16.4199 413.238 16.707 413.238 17.0586V17.6738H415.559V19.6865ZM422.59 17.4893C422.953 17.4893 423.255 17.5156 423.495 17.5684L423.293 20.082C423.076 20.0234 422.812 19.9941 422.502 19.9941C421.646 19.9941 420.979 20.2139 420.498 20.6533C420.023 21.0928 419.786 21.708 419.786 22.499V27.5H417.105V17.6738H419.136L419.531 19.3262H419.663C419.968 18.7754 420.378 18.333 420.894 17.999C421.415 17.6592 421.98 17.4893 422.59 17.4893ZM427.415 22.5693C427.415 23.542 427.573 24.2773 427.89 24.7754C428.212 25.2734 428.733 25.5225 429.454 25.5225C430.169 25.5225 430.682 25.2764 430.992 24.7842C431.309 24.2861 431.467 23.5479 431.467 22.5693C431.467 21.5967 431.309 20.8672 430.992 20.3809C430.676 19.8945 430.157 19.6514 429.437 19.6514C428.722 19.6514 428.206 19.8945 427.89 20.3809C427.573 20.8613 427.415 21.5908 427.415 22.5693ZM434.209 22.5693C434.209 24.1689 433.787 25.4199 432.943 26.3223C432.1 27.2246 430.925 27.6758 429.419 27.6758C428.476 27.6758 427.644 27.4707 426.923 27.0605C426.202 26.6445 425.648 26.0498 425.262 25.2764C424.875 24.5029 424.682 23.6006 424.682 22.5693C424.682 20.9639 425.101 19.7158 425.938 18.8252C426.776 17.9346 427.954 17.4893 429.472 17.4893C430.415 17.4893 431.247 17.6943 431.968 18.1045C432.688 18.5146 433.242 19.1035 433.629 19.8711C434.016 20.6387 434.209 21.5381 434.209 22.5693ZM445.222 27.5H442.541V21.7607C442.541 21.0518 442.421 20.5215 442.181 20.1699C441.946 19.8125 441.574 19.6338 441.064 19.6338C440.379 19.6338 439.881 19.8857 439.57 20.3896C439.26 20.8936 439.104 21.7227 439.104 22.877V27.5H436.424V17.6738H438.472L438.832 18.9307H438.981C439.245 18.4795 439.626 18.1279 440.124 17.876C440.622 17.6182 441.193 17.4893 441.838 17.4893C443.309 17.4893 444.305 17.9697 444.826 18.9307H445.063C445.327 18.4736 445.714 18.1191 446.224 17.8672C446.739 17.6152 447.319 17.4893 447.964 17.4893C449.077 17.4893 449.918 17.7764 450.486 18.3506C451.061 18.9189 451.348 19.833 451.348 21.0928V27.5H448.658V21.7607C448.658 21.0518 448.538 20.5215 448.298 20.1699C448.063 19.8125 447.691 19.6338 447.182 19.6338C446.525 19.6338 446.033 19.8682 445.705 20.3369C445.383 20.8057 445.222 21.5498 445.222 22.5693V27.5ZM116.546 50.54C117.015 50.54 117.577 50.4375 118.233 50.2324V52.2275C117.565 52.5264 116.745 52.6758 115.772 52.6758C114.7 52.6758 113.918 52.4062 113.426 51.8672C112.939 51.3223 112.696 50.5078 112.696 49.4238V44.6865H111.413V43.5527L112.89 42.6562L113.663 40.582H115.377V42.6738H118.128V44.6865H115.377V49.4238C115.377 49.8047 115.482 50.0859 115.693 50.2676C115.91 50.4492 116.194 50.54 116.546 50.54ZM129.299 52.5H126.618V46.7607C126.618 45.3428 126.091 44.6338 125.036 44.6338C124.286 44.6338 123.744 44.8887 123.41 45.3984C123.076 45.9082 122.909 46.7344 122.909 47.877V52.5H120.229V38.8242H122.909V41.6104C122.909 41.8271 122.889 42.3369 122.848 43.1396L122.786 43.9307H122.927C123.524 42.9697 124.474 42.4893 125.774 42.4893C126.929 42.4893 127.805 42.7998 128.402 43.4209C129 44.042 129.299 44.9326 129.299 46.0928V52.5ZM136.128 44.3965C135.56 44.3965 135.114 44.5781 134.792 44.9414C134.47 45.2988 134.285 45.8086 134.238 46.4707H138C137.988 45.8086 137.815 45.2988 137.481 44.9414C137.147 44.5781 136.696 44.3965 136.128 44.3965ZM136.506 52.6758C134.924 52.6758 133.688 52.2393 132.797 51.3662C131.906 50.4932 131.461 49.2568 131.461 47.6572C131.461 46.0107 131.871 44.7393 132.691 43.8428C133.518 42.9404 134.657 42.4893 136.11 42.4893C137.499 42.4893 138.58 42.8848 139.354 43.6758C140.127 44.4668 140.514 45.5596 140.514 46.9541V48.2549H134.177C134.206 49.0166 134.432 49.6113 134.854 50.0391C135.275 50.4668 135.867 50.6807 136.629 50.6807C137.221 50.6807 137.78 50.6191 138.308 50.4961C138.835 50.373 139.386 50.1768 139.96 49.9072V51.9814C139.491 52.2158 138.99 52.3887 138.457 52.5C137.924 52.6172 137.273 52.6758 136.506 52.6758ZM156.439 52.5H153.759V46.7607C153.759 45.3428 153.231 44.6338 152.177 44.6338C151.427 44.6338 150.885 44.8887 150.551 45.3984C150.217 45.9082 150.05 46.7344 150.05 47.877V52.5H147.369V38.8242H150.05V41.6104C150.05 41.8271 150.029 42.3369 149.988 43.1396L149.927 43.9307H150.067C150.665 42.9697 151.614 42.4893 152.915 42.4893C154.069 42.4893 154.945 42.7998 155.543 43.4209C156.141 44.042 156.439 44.9326 156.439 46.0928V52.5ZM161.335 47.5693C161.335 48.542 161.493 49.2773 161.81 49.7754C162.132 50.2734 162.653 50.5225 163.374 50.5225C164.089 50.5225 164.602 50.2764 164.912 49.7842C165.229 49.2861 165.387 48.5479 165.387 47.5693C165.387 46.5967 165.229 45.8672 164.912 45.3809C164.596 44.8945 164.077 44.6514 163.356 44.6514C162.642 44.6514 162.126 44.8945 161.81 45.3809C161.493 45.8613 161.335 46.5908 161.335 47.5693ZM168.129 47.5693C168.129 49.1689 167.707 50.4199 166.863 51.3223C166.02 52.2246 164.845 52.6758 163.339 52.6758C162.396 52.6758 161.563 52.4707 160.843 52.0605C160.122 51.6445 159.568 51.0498 159.182 50.2764C158.795 49.5029 158.602 48.6006 158.602 47.5693C158.602 45.9639 159.021 44.7158 159.858 43.8252C160.696 42.9346 161.874 42.4893 163.392 42.4893C164.335 42.4893 165.167 42.6943 165.888 43.1045C166.608 43.5146 167.162 44.1035 167.549 44.8711C167.936 45.6387 168.129 46.5381 168.129 47.5693ZM179.142 52.5H176.461V46.7607C176.461 46.0518 176.341 45.5215 176.101 45.1699C175.866 44.8125 175.494 44.6338 174.984 44.6338C174.299 44.6338 173.801 44.8857 173.49 45.3896C173.18 45.8936 173.024 46.7227 173.024 47.877V52.5H170.344V42.6738H172.392L172.752 43.9307H172.901C173.165 43.4795 173.546 43.1279 174.044 42.876C174.542 42.6182 175.113 42.4893 175.758 42.4893C177.229 42.4893 178.225 42.9697 178.746 43.9307H178.983C179.247 43.4736 179.634 43.1191 180.144 42.8672C180.659 42.6152 181.239 42.4893 181.884 42.4893C182.997 42.4893 183.838 42.7764 184.406 43.3506C184.98 43.9189 185.268 44.833 185.268 46.0928V52.5H182.578V46.7607C182.578 46.0518 182.458 45.5215 182.218 45.1699C181.983 44.8125 181.611 44.6338 181.102 44.6338C180.445 44.6338 179.953 44.8682 179.625 45.3369C179.303 45.8057 179.142 46.5498 179.142 47.5693V52.5ZM192.097 44.3965C191.528 44.3965 191.083 44.5781 190.761 44.9414C190.438 45.2988 190.254 45.8086 190.207 46.4707H193.969C193.957 45.8086 193.784 45.2988 193.45 44.9414C193.116 44.5781 192.665 44.3965 192.097 44.3965ZM192.475 52.6758C190.893 52.6758 189.656 52.2393 188.766 51.3662C187.875 50.4932 187.43 49.2568 187.43 47.6572C187.43 46.0107 187.84 44.7393 188.66 43.8428C189.486 42.9404 190.626 42.4893 192.079 42.4893C193.468 42.4893 194.549 42.8848 195.322 43.6758C196.096 44.4668 196.482 45.5596 196.482 46.9541V48.2549H190.146C190.175 49.0166 190.4 49.6113 190.822 50.0391C191.244 50.4668 191.836 50.6807 192.598 50.6807C193.189 50.6807 193.749 50.6191 194.276 50.4961C194.804 50.373 195.354 50.1768 195.929 49.9072V51.9814C195.46 52.2158 194.959 52.3887 194.426 52.5C193.893 52.6172 193.242 52.6758 192.475 52.6758ZM204.059 52.6758C202.904 52.6758 201.999 52.2568 201.343 51.4189H201.202C201.296 52.2393 201.343 52.7139 201.343 52.8428V56.8242H198.662V42.6738H200.842L201.22 43.9482H201.343C201.97 42.9756 202.898 42.4893 204.129 42.4893C205.289 42.4893 206.197 42.9375 206.854 43.834C207.51 44.7305 207.838 45.9756 207.838 47.5693C207.838 48.6182 207.683 49.5293 207.372 50.3027C207.067 51.0762 206.631 51.665 206.062 52.0693C205.494 52.4736 204.826 52.6758 204.059 52.6758ZM203.268 44.6338C202.605 44.6338 202.122 44.8389 201.817 45.249C201.513 45.6533 201.354 46.3242 201.343 47.2617V47.5518C201.343 48.6064 201.498 49.3623 201.809 49.8193C202.125 50.2764 202.623 50.5049 203.303 50.5049C204.504 50.5049 205.104 49.5146 205.104 47.5342C205.104 46.5674 204.955 45.8438 204.656 45.3633C204.363 44.877 203.9 44.6338 203.268 44.6338ZM216.293 52.5L215.774 51.1641H215.704C215.253 51.7324 214.787 52.1279 214.307 52.3506C213.832 52.5674 213.211 52.6758 212.443 52.6758C211.5 52.6758 210.756 52.4062 210.211 51.8672C209.672 51.3281 209.402 50.5605 209.402 49.5645C209.402 48.5215 209.766 47.7539 210.492 47.2617C211.225 46.7637 212.326 46.4883 213.797 46.4355L215.502 46.3828V45.9521C215.502 44.9561 214.992 44.458 213.973 44.458C213.188 44.458 212.265 44.6953 211.204 45.1699L210.316 43.3594C211.447 42.7676 212.701 42.4717 214.078 42.4717C215.396 42.4717 216.407 42.7588 217.11 43.333C217.813 43.9072 218.165 44.7803 218.165 45.9521V52.5H216.293ZM215.502 47.9473L214.465 47.9824C213.686 48.0059 213.105 48.1465 212.725 48.4043C212.344 48.6621 212.153 49.0547 212.153 49.582C212.153 50.3379 212.587 50.7158 213.454 50.7158C214.075 50.7158 214.57 50.5371 214.939 50.1797C215.314 49.8223 215.502 49.3477 215.502 48.7559V47.9473ZM229.485 42.6738V44.0361L227.947 44.4316C228.229 44.8711 228.369 45.3633 228.369 45.9082C228.369 46.9629 228 47.7861 227.262 48.3779C226.529 48.9639 225.51 49.2568 224.203 49.2568L223.72 49.2305L223.324 49.1865C223.049 49.3975 222.911 49.6318 222.911 49.8896C222.911 50.2764 223.403 50.4697 224.388 50.4697H226.058C227.136 50.4697 227.956 50.7012 228.519 51.1641C229.087 51.627 229.371 52.3066 229.371 53.2031C229.371 54.3516 228.891 55.2422 227.93 55.875C226.975 56.5078 225.601 56.8242 223.808 56.8242C222.437 56.8242 221.388 56.584 220.661 56.1035C219.94 55.6289 219.58 54.9609 219.58 54.0996C219.58 53.5078 219.765 53.0127 220.134 52.6143C220.503 52.2158 221.045 51.9316 221.76 51.7617C221.484 51.6445 221.244 51.4541 221.039 51.1904C220.834 50.9209 220.731 50.6367 220.731 50.3379C220.731 49.9629 220.84 49.6523 221.057 49.4062C221.273 49.1543 221.587 48.9082 221.997 48.668C221.481 48.4453 221.071 48.0879 220.767 47.5957C220.468 47.1035 220.318 46.5234 220.318 45.8555C220.318 44.7832 220.667 43.9541 221.364 43.3682C222.062 42.7822 223.058 42.4893 224.353 42.4893C224.628 42.4893 224.953 42.5156 225.328 42.5684C225.709 42.6152 225.952 42.6504 226.058 42.6738H229.485ZM221.9 53.8887C221.9 54.2578 222.076 54.5479 222.428 54.7588C222.785 54.9697 223.283 55.0752 223.922 55.0752C224.883 55.0752 225.636 54.9434 226.181 54.6797C226.726 54.416 226.998 54.0557 226.998 53.5986C226.998 53.2295 226.837 52.9746 226.515 52.834C226.192 52.6934 225.694 52.623 225.021 52.623H223.632C223.14 52.623 222.727 52.7373 222.393 52.9658C222.064 53.2002 221.9 53.5078 221.9 53.8887ZM222.876 45.8906C222.876 46.4238 222.996 46.8457 223.236 47.1562C223.482 47.4668 223.854 47.6221 224.353 47.6221C224.856 47.6221 225.226 47.4668 225.46 47.1562C225.694 46.8457 225.812 46.4238 225.812 45.8906C225.812 44.707 225.325 44.1152 224.353 44.1152C223.368 44.1152 222.876 44.707 222.876 45.8906ZM235.181 44.3965C234.612 44.3965 234.167 44.5781 233.845 44.9414C233.522 45.2988 233.338 45.8086 233.291 46.4707H237.053C237.041 45.8086 236.868 45.2988 236.534 44.9414C236.2 44.5781 235.749 44.3965 235.181 44.3965ZM235.559 52.6758C233.977 52.6758 232.74 52.2393 231.85 51.3662C230.959 50.4932 230.514 49.2568 230.514 47.6572C230.514 46.0107 230.924 44.7393 231.744 43.8428C232.57 42.9404 233.71 42.4893 235.163 42.4893C236.552 42.4893 237.633 42.8848 238.406 43.6758C239.18 44.4668 239.566 45.5596 239.566 46.9541V48.2549H233.229C233.259 49.0166 233.484 49.6113 233.906 50.0391C234.328 50.4668 234.92 50.6807 235.682 50.6807C236.273 50.6807 236.833 50.6191 237.36 50.4961C237.888 50.373 238.438 50.1768 239.013 49.9072V51.9814C238.544 52.2158 238.043 52.3887 237.51 52.5C236.977 52.6172 236.326 52.6758 235.559 52.6758Z" fill="#0F4FAD"/>
</svg>
