<svg width="630" height="67" viewBox="0 0 630 67" fill="none" xmlns="http://www.w3.org/2000/svg">
<path d="M19.25 26.25C19.25 30.15 19.3167 32.95 19.45 34.65C18.75 34.4833 16.4333 34.4 12.5 34.4H4.8L4 42.95C5.93333 41.6167 8.45 40.95 11.55 40.95C14.75 40.95 17.1667 41.6833 18.8 43.15C20.4667 44.6167 21.3 46.5167 21.3 48.85C21.3 51.3167 20.3333 53.5 18.4 55.4C16.4667 57.3333 13.9667 58.8167 10.9 59.85C7.86667 60.8833 4.73333 61.4 1.5 61.4V60.5C3.6 60.4667 5.6 60 7.5 59.1C9.4 58.2333 10.9333 56.9333 12.1 55.2C13.2667 53.5 13.85 51.4833 13.85 49.15C13.85 47.05 13.35 45.45 12.35 44.35C11.3833 43.2167 9.96667 42.65 8.1 42.65C7.2 42.65 6.4 42.7667 5.7 43C5 43.2333 4.3 43.6 3.6 44.1L2.9 43.65L4.5 28C5.16667 28.1333 6.06667 28.2 7.2 28.2H15.45C16.4167 28.2 17.0833 28.0667 17.45 27.8C17.85 27.5 18.1 26.9833 18.2 26.25H19.25ZM36.4492 27.45C39.0159 27.45 41.0492 28.0167 42.5492 29.15C44.0492 30.25 44.7992 31.8 44.7992 33.8C44.7992 35.1667 44.3992 36.4333 43.5992 37.6C42.8326 38.7667 41.9159 39.8 40.8492 40.7C39.7826 41.6 38.3159 42.7167 36.4492 44.05C34.0492 45.7167 32.3659 47.05 31.3992 48.05H42.1992C43.0992 48.05 43.7659 47.9833 44.1992 47.85C44.6659 47.7167 44.9826 47.5 45.1492 47.2C45.3159 46.9 45.4492 46.4333 45.5492 45.8H46.5992C46.5992 49.7333 46.6659 52.55 46.7992 54.25C46.0659 54.0833 43.5826 54 39.3492 54H24.7992V53.05C25.2326 52.5833 26.0826 51.7833 27.3492 50.65C29.2826 48.8833 30.8826 47.3167 32.1492 45.95C33.4492 44.55 34.5659 42.95 35.4992 41.15C36.4659 39.3167 36.9492 37.4167 36.9492 35.45C36.9492 33.6833 36.5492 32.4 35.7492 31.6C34.9826 30.7667 33.8326 30.35 32.2992 30.35C30.8992 30.35 29.6492 30.6833 28.5492 31.35C27.4826 31.9833 26.4992 32.9333 25.5992 34.2L24.7492 33.7C27.2159 29.5333 31.1159 27.45 36.4492 27.45ZM82.1711 13.45L52.9211 56.75L51.9711 56.1L81.2211 12.8L82.1711 13.45ZM58.4211 15.95C60.8544 15.95 62.8044 16.6833 64.2711 18.15C65.7711 19.5833 66.5211 21.5667 66.5211 24.1C66.5211 25.7667 66.1711 27.2333 65.4711 28.5C64.7711 29.7667 63.8044 30.75 62.5711 31.45C61.3378 32.15 59.9544 32.5 58.4211 32.5C55.9878 32.5 54.0211 31.7833 52.5211 30.35C51.0211 28.8833 50.2711 26.8833 50.2711 24.35C50.2711 22.7167 50.6211 21.2667 51.3211 20C52.0211 18.7 52.9878 17.7 54.2211 17C55.4878 16.3 56.8878 15.95 58.4211 15.95ZM58.3211 16.85C56.1544 16.85 55.0711 19.3333 55.0711 24.3C55.0711 26.7 55.3711 28.5167 55.9711 29.75C56.5711 30.9833 57.4211 31.6 58.5211 31.6C60.6544 31.6 61.7211 29.1333 61.7211 24.2C61.7211 21.7667 61.4211 19.9333 60.8211 18.7C60.2544 17.4667 59.4211 16.85 58.3211 16.85ZM75.2211 38.15C77.6544 38.15 79.6044 38.8833 81.0711 40.35C82.5711 41.7833 83.3211 43.7667 83.3211 46.3C83.3211 47.9667 82.9711 49.4333 82.2711 50.7C81.5711 51.9667 80.6044 52.95 79.3711 53.65C78.1378 54.35 76.7544 54.7 75.2211 54.7C72.7878 54.7 70.8211 53.9833 69.3211 52.55C67.8211 51.0833 67.0711 49.0833 67.0711 46.55C67.0711 44.9167 67.4211 43.4667 68.1211 42.2C68.8211 40.9 69.7878 39.9 71.0211 39.2C72.2878 38.5 73.6878 38.15 75.2211 38.15ZM75.1211 39.05C72.9544 39.05 71.8711 41.5333 71.8711 46.5C71.8711 48.9 72.1711 50.7167 72.7711 51.95C73.3711 53.1833 74.2211 53.8 75.3211 53.8C77.4544 53.8 78.5211 51.3333 78.5211 46.4C78.5211 43.9667 78.2211 42.1333 77.6211 40.9C77.0544 39.6667 76.2211 39.05 75.1211 39.05Z" fill="#0F4FAD"/>
<path d="M115.204 40H112.523V34.2607C112.523 33.5518 112.403 33.0215 112.163 32.6699C111.929 32.3125 111.557 32.1338 111.047 32.1338C110.361 32.1338 109.863 32.3857 109.553 32.8896C109.242 33.3936 109.087 34.2227 109.087 35.377V40H106.406V30.1738H108.454L108.814 31.4307H108.964C109.228 30.9795 109.608 30.6279 110.106 30.376C110.604 30.1182 111.176 29.9893 111.82 29.9893C113.291 29.9893 114.287 30.4697 114.809 31.4307H115.046C115.31 30.9736 115.696 30.6191 116.206 30.3672C116.722 30.1152 117.302 29.9893 117.946 29.9893C119.06 29.9893 119.9 30.2764 120.469 30.8506C121.043 31.4189 121.33 32.333 121.33 33.5928V40H118.641V34.2607C118.641 33.5518 118.521 33.0215 118.28 32.6699C118.046 32.3125 117.674 32.1338 117.164 32.1338C116.508 32.1338 116.016 32.3682 115.688 32.8369C115.365 33.3057 115.204 34.0498 115.204 35.0693V40ZM123.976 27.6338C123.976 26.7607 124.462 26.3242 125.435 26.3242C126.407 26.3242 126.894 26.7607 126.894 27.6338C126.894 28.0498 126.771 28.375 126.524 28.6094C126.284 28.8379 125.921 28.9521 125.435 28.9521C124.462 28.9521 123.976 28.5127 123.976 27.6338ZM126.771 40H124.09V30.1738H126.771V40ZM136.447 37.082C136.447 38.0898 136.096 38.8574 135.393 39.3848C134.695 39.9121 133.649 40.1758 132.255 40.1758C131.54 40.1758 130.931 40.126 130.427 40.0264C129.923 39.9326 129.451 39.792 129.012 39.6045V37.3896C129.51 37.624 130.069 37.8203 130.69 37.9785C131.317 38.1367 131.868 38.2158 132.343 38.2158C133.315 38.2158 133.802 37.9346 133.802 37.3721C133.802 37.1611 133.737 36.9912 133.608 36.8623C133.479 36.7275 133.257 36.5781 132.94 36.4141C132.624 36.2441 132.202 36.0479 131.675 35.8252C130.919 35.5088 130.362 35.2158 130.005 34.9463C129.653 34.6768 129.396 34.3691 129.231 34.0234C129.073 33.6719 128.994 33.2412 128.994 32.7314C128.994 31.8584 129.331 31.1846 130.005 30.71C130.685 30.2295 131.646 29.9893 132.888 29.9893C134.071 29.9893 135.223 30.2471 136.342 30.7627L135.533 32.6963C135.041 32.4854 134.581 32.3125 134.153 32.1777C133.726 32.043 133.289 31.9756 132.844 31.9756C132.053 31.9756 131.657 32.1895 131.657 32.6172C131.657 32.8574 131.783 33.0654 132.035 33.2412C132.293 33.417 132.853 33.6777 133.714 34.0234C134.481 34.334 135.044 34.624 135.401 34.8936C135.759 35.1631 136.022 35.4736 136.192 35.8252C136.362 36.1768 136.447 36.5957 136.447 37.082ZM142.529 40.1758C139.471 40.1758 137.941 38.4971 137.941 35.1396C137.941 33.4697 138.357 32.1953 139.189 31.3164C140.021 30.4316 141.214 29.9893 142.767 29.9893C143.903 29.9893 144.923 30.2119 145.825 30.6572L145.034 32.7314C144.612 32.5615 144.22 32.4238 143.856 32.3184C143.493 32.207 143.13 32.1514 142.767 32.1514C141.372 32.1514 140.675 33.1416 140.675 35.1221C140.675 37.0439 141.372 38.0049 142.767 38.0049C143.282 38.0049 143.76 37.9375 144.199 37.8027C144.639 37.6621 145.078 37.4453 145.518 37.1523V39.4463C145.084 39.7217 144.645 39.9121 144.199 40.0176C143.76 40.123 143.203 40.1758 142.529 40.1758ZM150.483 40H147.803V26.3242H150.483V40ZM153.19 27.6338C153.19 26.7607 153.677 26.3242 154.649 26.3242C155.622 26.3242 156.108 26.7607 156.108 27.6338C156.108 28.0498 155.985 28.375 155.739 28.6094C155.499 28.8379 155.136 28.9521 154.649 28.9521C153.677 28.9521 153.19 28.5127 153.19 27.6338ZM155.985 40H153.305V30.1738H155.985V40ZM162.797 40.1758C159.738 40.1758 158.209 38.4971 158.209 35.1396C158.209 33.4697 158.625 32.1953 159.457 31.3164C160.289 30.4316 161.481 29.9893 163.034 29.9893C164.171 29.9893 165.19 30.2119 166.093 30.6572L165.302 32.7314C164.88 32.5615 164.487 32.4238 164.124 32.3184C163.761 32.207 163.397 32.1514 163.034 32.1514C161.64 32.1514 160.942 33.1416 160.942 35.1221C160.942 37.0439 161.64 38.0049 163.034 38.0049C163.55 38.0049 164.027 37.9375 164.467 37.8027C164.906 37.6621 165.346 37.4453 165.785 37.1523V39.4463C165.352 39.7217 164.912 39.9121 164.467 40.0176C164.027 40.123 163.471 40.1758 162.797 40.1758ZM170.646 34.6562L171.814 33.1621L174.565 30.1738H177.589L173.687 34.4365L177.826 40H174.732L171.902 36.0186L170.751 36.9414V40H168.07V26.3242H170.751V32.4238L170.61 34.6562H170.646ZM183.302 31.8965C182.733 31.8965 182.288 32.0781 181.966 32.4414C181.644 32.7988 181.459 33.3086 181.412 33.9707H185.174C185.162 33.3086 184.989 32.7988 184.655 32.4414C184.321 32.0781 183.87 31.8965 183.302 31.8965ZM183.68 40.1758C182.098 40.1758 180.861 39.7393 179.971 38.8662C179.08 37.9932 178.635 36.7568 178.635 35.1572C178.635 33.5107 179.045 32.2393 179.865 31.3428C180.691 30.4404 181.831 29.9893 183.284 29.9893C184.673 29.9893 185.754 30.3848 186.527 31.1758C187.301 31.9668 187.688 33.0596 187.688 34.4541V35.7549H181.351C181.38 36.5166 181.605 37.1113 182.027 37.5391C182.449 37.9668 183.041 38.1807 183.803 38.1807C184.395 38.1807 184.954 38.1191 185.481 37.9961C186.009 37.873 186.56 37.6768 187.134 37.4072V39.4814C186.665 39.7158 186.164 39.8887 185.631 40C185.098 40.1172 184.447 40.1758 183.68 40.1758ZM192.979 40.1758C191.824 40.1758 190.916 39.7275 190.254 38.8311C189.598 37.9346 189.27 36.6924 189.27 35.1045C189.27 33.4932 189.604 32.2393 190.271 31.3428C190.945 30.4404 191.871 29.9893 193.049 29.9893C194.285 29.9893 195.229 30.4697 195.879 31.4307H195.967C195.832 30.6982 195.765 30.0449 195.765 29.4707V26.3242H198.454V40H196.397L195.879 38.7256H195.765C195.155 39.6924 194.227 40.1758 192.979 40.1758ZM193.919 38.04C194.604 38.04 195.105 37.8408 195.422 37.4424C195.744 37.0439 195.92 36.3672 195.949 35.4121V35.1221C195.949 34.0674 195.785 33.3115 195.457 32.8545C195.135 32.3975 194.607 32.1689 193.875 32.1689C193.277 32.1689 192.812 32.4238 192.478 32.9336C192.149 33.4375 191.985 34.1729 191.985 35.1396C191.985 36.1064 192.152 36.833 192.486 37.3193C192.82 37.7998 193.298 38.04 193.919 38.04ZM203.886 38.1104C203.581 39.2939 203.065 40.6973 202.339 42.3203H200.405C200.786 40.7617 201.082 39.291 201.293 37.9082H203.754L203.886 38.1104ZM215.294 38.04C215.763 38.04 216.325 37.9375 216.981 37.7324V39.7275C216.313 40.0264 215.493 40.1758 214.521 40.1758C213.448 40.1758 212.666 39.9062 212.174 39.3672C211.688 38.8223 211.444 38.0078 211.444 36.9238V32.1865H210.161V31.0527L211.638 30.1562L212.411 28.082H214.125V30.1738H216.876V32.1865H214.125V36.9238C214.125 37.3047 214.23 37.5859 214.441 37.7676C214.658 37.9492 214.942 38.04 215.294 38.04ZM228.047 40H225.366V34.2607C225.366 32.8428 224.839 32.1338 223.784 32.1338C223.034 32.1338 222.492 32.3887 222.158 32.8984C221.824 33.4082 221.657 34.2344 221.657 35.377V40H218.977V26.3242H221.657V29.1104C221.657 29.3271 221.637 29.8369 221.596 30.6396L221.534 31.4307H221.675C222.272 30.4697 223.222 29.9893 224.522 29.9893C225.677 29.9893 226.553 30.2998 227.15 30.9209C227.748 31.542 228.047 32.4326 228.047 33.5928V40ZM230.692 27.6338C230.692 26.7607 231.179 26.3242 232.151 26.3242C233.124 26.3242 233.61 26.7607 233.61 27.6338C233.61 28.0498 233.487 28.375 233.241 28.6094C233.001 28.8379 232.638 28.9521 232.151 28.9521C231.179 28.9521 230.692 28.5127 230.692 27.6338ZM233.487 40H230.807V30.1738H233.487V40ZM245.379 40H242.698V34.2607C242.698 33.5518 242.572 33.0215 242.32 32.6699C242.068 32.3125 241.667 32.1338 241.116 32.1338C240.366 32.1338 239.824 32.3857 239.49 32.8896C239.156 33.3877 238.989 34.2168 238.989 35.377V40H236.309V30.1738H238.356L238.717 31.4307H238.866C239.165 30.9561 239.575 30.5986 240.097 30.3584C240.624 30.1123 241.222 29.9893 241.89 29.9893C243.032 29.9893 243.899 30.2998 244.491 30.9209C245.083 31.5361 245.379 32.4268 245.379 33.5928V40ZM250.714 34.6562L251.883 33.1621L254.634 30.1738H257.657L253.755 34.4365L257.895 40H254.801L251.971 36.0186L250.819 36.9414V40H248.139V26.3242H250.819V32.4238L250.679 34.6562H250.714ZM259.187 27.6338C259.187 26.7607 259.673 26.3242 260.646 26.3242C261.618 26.3242 262.104 26.7607 262.104 27.6338C262.104 28.0498 261.981 28.375 261.735 28.6094C261.495 28.8379 261.132 28.9521 260.646 28.9521C259.673 28.9521 259.187 28.5127 259.187 27.6338ZM261.981 40H259.301V30.1738H261.981V40ZM273.873 40H271.192V34.2607C271.192 33.5518 271.066 33.0215 270.814 32.6699C270.562 32.3125 270.161 32.1338 269.61 32.1338C268.86 32.1338 268.318 32.3857 267.984 32.8896C267.65 33.3877 267.483 34.2168 267.483 35.377V40H264.803V30.1738H266.851L267.211 31.4307H267.36C267.659 30.9561 268.069 30.5986 268.591 30.3584C269.118 30.1123 269.716 29.9893 270.384 29.9893C271.526 29.9893 272.394 30.2998 272.985 30.9209C273.577 31.5361 273.873 32.4268 273.873 33.5928V40ZM285.185 30.1738V31.5361L283.646 31.9316C283.928 32.3711 284.068 32.8633 284.068 33.4082C284.068 34.4629 283.699 35.2861 282.961 35.8779C282.229 36.4639 281.209 36.7568 279.902 36.7568L279.419 36.7305L279.023 36.6865C278.748 36.8975 278.61 37.1318 278.61 37.3896C278.61 37.7764 279.103 37.9697 280.087 37.9697H281.757C282.835 37.9697 283.655 38.2012 284.218 38.6641C284.786 39.127 285.07 39.8066 285.07 40.7031C285.07 41.8516 284.59 42.7422 283.629 43.375C282.674 44.0078 281.3 44.3242 279.507 44.3242C278.136 44.3242 277.087 44.084 276.36 43.6035C275.64 43.1289 275.279 42.4609 275.279 41.5996C275.279 41.0078 275.464 40.5127 275.833 40.1143C276.202 39.7158 276.744 39.4316 277.459 39.2617C277.184 39.1445 276.943 38.9541 276.738 38.6904C276.533 38.4209 276.431 38.1367 276.431 37.8379C276.431 37.4629 276.539 37.1523 276.756 36.9062C276.973 36.6543 277.286 36.4082 277.696 36.168C277.181 35.9453 276.771 35.5879 276.466 35.0957C276.167 34.6035 276.018 34.0234 276.018 33.3555C276.018 32.2832 276.366 31.4541 277.063 30.8682C277.761 30.2822 278.757 29.9893 280.052 29.9893C280.327 29.9893 280.652 30.0156 281.027 30.0684C281.408 30.1152 281.651 30.1504 281.757 30.1738H285.185ZM277.6 41.3887C277.6 41.7578 277.775 42.0479 278.127 42.2588C278.484 42.4697 278.982 42.5752 279.621 42.5752C280.582 42.5752 281.335 42.4434 281.88 42.1797C282.425 41.916 282.697 41.5557 282.697 41.0986C282.697 40.7295 282.536 40.4746 282.214 40.334C281.892 40.1934 281.394 40.123 280.72 40.123H279.331C278.839 40.123 278.426 40.2373 278.092 40.4658C277.764 40.7002 277.6 41.0078 277.6 41.3887ZM278.575 33.3906C278.575 33.9238 278.695 34.3457 278.936 34.6562C279.182 34.9668 279.554 35.1221 280.052 35.1221C280.556 35.1221 280.925 34.9668 281.159 34.6562C281.394 34.3457 281.511 33.9238 281.511 33.3906C281.511 32.207 281.024 31.6152 280.052 31.6152C279.067 31.6152 278.575 32.207 278.575 33.3906ZM295.626 38.04C296.095 38.04 296.657 37.9375 297.313 37.7324V39.7275C296.646 40.0264 295.825 40.1758 294.853 40.1758C293.78 40.1758 292.998 39.9062 292.506 39.3672C292.02 38.8223 291.776 38.0078 291.776 36.9238V32.1865H290.493V31.0527L291.97 30.1562L292.743 28.082H294.457V30.1738H297.208V32.1865H294.457V36.9238C294.457 37.3047 294.562 37.5859 294.773 37.7676C294.99 37.9492 295.274 38.04 295.626 38.04ZM308.379 40H305.698V34.2607C305.698 32.8428 305.171 32.1338 304.116 32.1338C303.366 32.1338 302.824 32.3887 302.49 32.8984C302.156 33.4082 301.989 34.2344 301.989 35.377V40H299.309V26.3242H301.989V29.1104C301.989 29.3271 301.969 29.8369 301.928 30.6396L301.866 31.4307H302.007C302.604 30.4697 303.554 29.9893 304.854 29.9893C306.009 29.9893 306.885 30.2998 307.482 30.9209C308.08 31.542 308.379 32.4326 308.379 33.5928V40ZM315.208 31.8965C314.64 31.8965 314.194 32.0781 313.872 32.4414C313.55 32.7988 313.365 33.3086 313.318 33.9707H317.08C317.068 33.3086 316.896 32.7988 316.562 32.4414C316.228 32.0781 315.776 31.8965 315.208 31.8965ZM315.586 40.1758C314.004 40.1758 312.768 39.7393 311.877 38.8662C310.986 37.9932 310.541 36.7568 310.541 35.1572C310.541 33.5107 310.951 32.2393 311.771 31.3428C312.598 30.4404 313.737 29.9893 315.19 29.9893C316.579 29.9893 317.66 30.3848 318.434 31.1758C319.207 31.9668 319.594 33.0596 319.594 34.4541V35.7549H313.257C313.286 36.5166 313.512 37.1113 313.934 37.5391C314.355 37.9668 314.947 38.1807 315.709 38.1807C316.301 38.1807 316.86 38.1191 317.388 37.9961C317.915 37.873 318.466 37.6768 319.04 37.4072V39.4814C318.571 39.7158 318.07 39.8887 317.537 40C317.004 40.1172 316.354 40.1758 315.586 40.1758ZM330.519 31.8965C329.95 31.8965 329.505 32.0781 329.183 32.4414C328.86 32.7988 328.676 33.3086 328.629 33.9707H332.391C332.379 33.3086 332.206 32.7988 331.872 32.4414C331.538 32.0781 331.087 31.8965 330.519 31.8965ZM330.896 40.1758C329.314 40.1758 328.078 39.7393 327.188 38.8662C326.297 37.9932 325.852 36.7568 325.852 35.1572C325.852 33.5107 326.262 32.2393 327.082 31.3428C327.908 30.4404 329.048 29.9893 330.501 29.9893C331.89 29.9893 332.971 30.3848 333.744 31.1758C334.518 31.9668 334.904 33.0596 334.904 34.4541V35.7549H328.567C328.597 36.5166 328.822 37.1113 329.244 37.5391C329.666 37.9668 330.258 38.1807 331.02 38.1807C331.611 38.1807 332.171 38.1191 332.698 37.9961C333.226 37.873 333.776 37.6768 334.351 37.4072V39.4814C333.882 39.7158 333.381 39.8887 332.848 40C332.314 40.1172 331.664 40.1758 330.896 40.1758ZM346.154 40H343.474V34.2607C343.474 33.5518 343.348 33.0215 343.096 32.6699C342.844 32.3125 342.442 32.1338 341.892 32.1338C341.142 32.1338 340.6 32.3857 340.266 32.8896C339.932 33.3877 339.765 34.2168 339.765 35.377V40H337.084V30.1738H339.132L339.492 31.4307H339.642C339.94 30.9561 340.351 30.5986 340.872 30.3584C341.399 30.1123 341.997 29.9893 342.665 29.9893C343.808 29.9893 344.675 30.2998 345.267 30.9209C345.858 31.5361 346.154 32.4268 346.154 33.5928V40ZM353.054 38.04C353.522 38.04 354.085 37.9375 354.741 37.7324V39.7275C354.073 40.0264 353.253 40.1758 352.28 40.1758C351.208 40.1758 350.426 39.9062 349.934 39.3672C349.447 38.8223 349.204 38.0078 349.204 36.9238V32.1865H347.921V31.0527L349.397 30.1562L350.171 28.082H351.885V30.1738H354.636V32.1865H351.885V36.9238C351.885 37.3047 351.99 37.5859 352.201 37.7676C352.418 37.9492 352.702 38.04 353.054 38.04ZM356.622 27.6338C356.622 26.7607 357.108 26.3242 358.081 26.3242C359.054 26.3242 359.54 26.7607 359.54 27.6338C359.54 28.0498 359.417 28.375 359.171 28.6094C358.931 28.8379 358.567 28.9521 358.081 28.9521C357.108 28.9521 356.622 28.5127 356.622 27.6338ZM359.417 40H356.736V30.1738H359.417V40ZM367.723 29.9893C368.086 29.9893 368.388 30.0156 368.628 30.0684L368.426 32.582C368.209 32.5234 367.945 32.4941 367.635 32.4941C366.779 32.4941 366.111 32.7139 365.631 33.1533C365.156 33.5928 364.919 34.208 364.919 34.999V40H362.238V30.1738H364.269L364.664 31.8262H364.796C365.101 31.2754 365.511 30.833 366.026 30.499C366.548 30.1592 367.113 29.9893 367.723 29.9893ZM374.481 31.8965C373.913 31.8965 373.468 32.0781 373.146 32.4414C372.823 32.7988 372.639 33.3086 372.592 33.9707H376.354C376.342 33.3086 376.169 32.7988 375.835 32.4414C375.501 32.0781 375.05 31.8965 374.481 31.8965ZM374.859 40.1758C373.277 40.1758 372.041 39.7393 371.15 38.8662C370.26 37.9932 369.814 36.7568 369.814 35.1572C369.814 33.5107 370.225 32.2393 371.045 31.3428C371.871 30.4404 373.011 29.9893 374.464 29.9893C375.853 29.9893 376.934 30.3848 377.707 31.1758C378.48 31.9668 378.867 33.0596 378.867 34.4541V35.7549H372.53C372.56 36.5166 372.785 37.1113 373.207 37.5391C373.629 37.9668 374.221 38.1807 374.982 38.1807C375.574 38.1807 376.134 38.1191 376.661 37.9961C377.188 37.873 377.739 37.6768 378.313 37.4072V39.4814C377.845 39.7158 377.344 39.8887 376.811 40C376.277 40.1172 375.627 40.1758 374.859 40.1758ZM389.713 40.1758C386.654 40.1758 385.125 38.4971 385.125 35.1396C385.125 33.4697 385.541 32.1953 386.373 31.3164C387.205 30.4316 388.397 29.9893 389.95 29.9893C391.087 29.9893 392.106 30.2119 393.009 30.6572L392.218 32.7314C391.796 32.5615 391.403 32.4238 391.04 32.3184C390.677 32.207 390.313 32.1514 389.95 32.1514C388.556 32.1514 387.858 33.1416 387.858 35.1221C387.858 37.0439 388.556 38.0049 389.95 38.0049C390.466 38.0049 390.943 37.9375 391.383 37.8027C391.822 37.6621 392.262 37.4453 392.701 37.1523V39.4463C392.268 39.7217 391.828 39.9121 391.383 40.0176C390.943 40.123 390.387 40.1758 389.713 40.1758ZM401.227 40L400.708 38.6641H400.638C400.187 39.2324 399.721 39.6279 399.24 39.8506C398.766 40.0674 398.145 40.1758 397.377 40.1758C396.434 40.1758 395.689 39.9062 395.145 39.3672C394.605 38.8281 394.336 38.0605 394.336 37.0645C394.336 36.0215 394.699 35.2539 395.426 34.7617C396.158 34.2637 397.26 33.9883 398.73 33.9355L400.436 33.8828V33.4521C400.436 32.4561 399.926 31.958 398.906 31.958C398.121 31.958 397.198 32.1953 396.138 32.6699L395.25 30.8594C396.381 30.2676 397.635 29.9717 399.012 29.9717C400.33 29.9717 401.341 30.2588 402.044 30.833C402.747 31.4072 403.099 32.2803 403.099 33.4521V40H401.227ZM400.436 35.4473L399.398 35.4824C398.619 35.5059 398.039 35.6465 397.658 35.9043C397.277 36.1621 397.087 36.5547 397.087 37.082C397.087 37.8379 397.521 38.2158 398.388 38.2158C399.009 38.2158 399.504 38.0371 399.873 37.6797C400.248 37.3223 400.436 36.8477 400.436 36.2559V35.4473ZM411.352 29.9893C411.715 29.9893 412.017 30.0156 412.257 30.0684L412.055 32.582C411.838 32.5234 411.574 32.4941 411.264 32.4941C410.408 32.4941 409.74 32.7139 409.26 33.1533C408.785 33.5928 408.548 34.208 408.548 34.999V40H405.867V30.1738H407.897L408.293 31.8262H408.425C408.729 31.2754 409.14 30.833 409.655 30.499C410.177 30.1592 410.742 29.9893 411.352 29.9893ZM417.152 40.1758C415.998 40.1758 415.09 39.7275 414.428 38.8311C413.771 37.9346 413.443 36.6924 413.443 35.1045C413.443 33.4932 413.777 32.2393 414.445 31.3428C415.119 30.4404 416.045 29.9893 417.223 29.9893C418.459 29.9893 419.402 30.4697 420.053 31.4307H420.141C420.006 30.6982 419.938 30.0449 419.938 29.4707V26.3242H422.628V40H420.571L420.053 38.7256H419.938C419.329 39.6924 418.4 40.1758 417.152 40.1758ZM418.093 38.04C418.778 38.04 419.279 37.8408 419.596 37.4424C419.918 37.0439 420.094 36.3672 420.123 35.4121V35.1221C420.123 34.0674 419.959 33.3115 419.631 32.8545C419.309 32.3975 418.781 32.1689 418.049 32.1689C417.451 32.1689 416.985 32.4238 416.651 32.9336C416.323 33.4375 416.159 34.1729 416.159 35.1396C416.159 36.1064 416.326 36.833 416.66 37.3193C416.994 37.7998 417.472 38.04 418.093 38.04ZM438.185 40L437.429 36.5635L436.409 32.2217H436.348L434.555 40H431.672L428.877 30.1738H431.549L432.683 34.5244C432.864 35.3037 433.049 36.3789 433.236 37.75H433.289C433.312 37.3047 433.415 36.5986 433.597 35.6318L433.737 34.8848L434.95 30.1738H437.903L439.055 34.8848C439.078 35.0137 439.113 35.2041 439.16 35.4561C439.213 35.708 439.263 35.9775 439.31 36.2646C439.356 36.5459 439.397 36.8242 439.433 37.0996C439.474 37.3691 439.497 37.5859 439.503 37.75H439.556C439.608 37.3281 439.702 36.751 439.837 36.0186C439.972 35.2803 440.068 34.7822 440.127 34.5244L441.305 30.1738H443.933L441.103 40H438.185ZM451.764 40L451.245 38.6641H451.175C450.724 39.2324 450.258 39.6279 449.777 39.8506C449.303 40.0674 448.682 40.1758 447.914 40.1758C446.971 40.1758 446.227 39.9062 445.682 39.3672C445.143 38.8281 444.873 38.0605 444.873 37.0645C444.873 36.0215 445.236 35.2539 445.963 34.7617C446.695 34.2637 447.797 33.9883 449.268 33.9355L450.973 33.8828V33.4521C450.973 32.4561 450.463 31.958 449.443 31.958C448.658 31.958 447.735 32.1953 446.675 32.6699L445.787 30.8594C446.918 30.2676 448.172 29.9717 449.549 29.9717C450.867 29.9717 451.878 30.2588 452.581 30.833C453.284 31.4072 453.636 32.2803 453.636 33.4521V40H451.764ZM450.973 35.4473L449.936 35.4824C449.156 35.5059 448.576 35.6465 448.195 35.9043C447.814 36.1621 447.624 36.5547 447.624 37.082C447.624 37.8379 448.058 38.2158 448.925 38.2158C449.546 38.2158 450.041 38.0371 450.41 37.6797C450.785 37.3223 450.973 36.8477 450.973 36.2559V35.4473ZM463.26 37.082C463.26 38.0898 462.908 38.8574 462.205 39.3848C461.508 39.9121 460.462 40.1758 459.067 40.1758C458.353 40.1758 457.743 40.126 457.239 40.0264C456.735 39.9326 456.264 39.792 455.824 39.6045V37.3896C456.322 37.624 456.882 37.8203 457.503 37.9785C458.13 38.1367 458.681 38.2158 459.155 38.2158C460.128 38.2158 460.614 37.9346 460.614 37.3721C460.614 37.1611 460.55 36.9912 460.421 36.8623C460.292 36.7275 460.069 36.5781 459.753 36.4141C459.437 36.2441 459.015 36.0479 458.487 35.8252C457.731 35.5088 457.175 35.2158 456.817 34.9463C456.466 34.6768 456.208 34.3691 456.044 34.0234C455.886 33.6719 455.807 33.2412 455.807 32.7314C455.807 31.8584 456.144 31.1846 456.817 30.71C457.497 30.2295 458.458 29.9893 459.7 29.9893C460.884 29.9893 462.035 30.2471 463.154 30.7627L462.346 32.6963C461.854 32.4854 461.394 32.3125 460.966 32.1777C460.538 32.043 460.102 31.9756 459.656 31.9756C458.865 31.9756 458.47 32.1895 458.47 32.6172C458.47 32.8574 458.596 33.0654 458.848 33.2412C459.105 33.417 459.665 33.6777 460.526 34.0234C461.294 34.334 461.856 34.624 462.214 34.8936C462.571 35.1631 462.835 35.4736 463.005 35.8252C463.175 36.1768 463.26 36.5957 463.26 37.082ZM474.018 40.1758C470.959 40.1758 469.43 38.4971 469.43 35.1396C469.43 33.4697 469.846 32.1953 470.678 31.3164C471.51 30.4316 472.702 29.9893 474.255 29.9893C475.392 29.9893 476.411 30.2119 477.313 30.6572L476.522 32.7314C476.101 32.5615 475.708 32.4238 475.345 32.3184C474.981 32.207 474.618 32.1514 474.255 32.1514C472.86 32.1514 472.163 33.1416 472.163 35.1221C472.163 37.0439 472.86 38.0049 474.255 38.0049C474.771 38.0049 475.248 37.9375 475.688 37.8027C476.127 37.6621 476.566 37.4453 477.006 37.1523V39.4463C476.572 39.7217 476.133 39.9121 475.688 40.0176C475.248 40.123 474.691 40.1758 474.018 40.1758ZM481.972 40H479.291V26.3242H481.972V40ZM484.679 27.6338C484.679 26.7607 485.165 26.3242 486.138 26.3242C487.11 26.3242 487.597 26.7607 487.597 27.6338C487.597 28.0498 487.474 28.375 487.228 28.6094C486.987 28.8379 486.624 28.9521 486.138 28.9521C485.165 28.9521 484.679 28.5127 484.679 27.6338ZM487.474 40H484.793V30.1738H487.474V40ZM494.285 40.1758C491.227 40.1758 489.697 38.4971 489.697 35.1396C489.697 33.4697 490.113 32.1953 490.945 31.3164C491.777 30.4316 492.97 29.9893 494.522 29.9893C495.659 29.9893 496.679 30.2119 497.581 30.6572L496.79 32.7314C496.368 32.5615 495.976 32.4238 495.612 32.3184C495.249 32.207 494.886 32.1514 494.522 32.1514C493.128 32.1514 492.431 33.1416 492.431 35.1221C492.431 37.0439 493.128 38.0049 494.522 38.0049C495.038 38.0049 495.516 37.9375 495.955 37.8027C496.395 37.6621 496.834 37.4453 497.273 37.1523V39.4463C496.84 39.7217 496.4 39.9121 495.955 40.0176C495.516 40.123 494.959 40.1758 494.285 40.1758ZM502.134 34.6562L503.303 33.1621L506.054 30.1738H509.077L505.175 34.4365L509.314 40H506.221L503.391 36.0186L502.239 36.9414V40H499.559V26.3242H502.239V32.4238L502.099 34.6562H502.134ZM516.961 40L516.442 38.6641H516.372C515.921 39.2324 515.455 39.6279 514.975 39.8506C514.5 40.0674 513.879 40.1758 513.111 40.1758C512.168 40.1758 511.424 39.9062 510.879 39.3672C510.34 38.8281 510.07 38.0605 510.07 37.0645C510.07 36.0215 510.434 35.2539 511.16 34.7617C511.893 34.2637 512.994 33.9883 514.465 33.9355L516.17 33.8828V33.4521C516.17 32.4561 515.66 31.958 514.641 31.958C513.855 31.958 512.933 32.1953 511.872 32.6699L510.984 30.8594C512.115 30.2676 513.369 29.9717 514.746 29.9717C516.064 29.9717 517.075 30.2588 517.778 30.833C518.481 31.4072 518.833 32.2803 518.833 33.4521V40H516.961ZM516.17 35.4473L515.133 35.4824C514.354 35.5059 513.773 35.6465 513.393 35.9043C513.012 36.1621 512.821 36.5547 512.821 37.082C512.821 37.8379 513.255 38.2158 514.122 38.2158C514.743 38.2158 515.238 38.0371 515.607 37.6797C515.982 37.3223 516.17 36.8477 516.17 36.2559V35.4473ZM527.068 29.9893C528.229 29.9893 529.137 30.4434 529.793 31.3516C530.449 32.2539 530.777 33.4932 530.777 35.0693C530.777 36.6924 530.438 37.9492 529.758 38.8398C529.084 39.7305 528.164 40.1758 526.998 40.1758C525.844 40.1758 524.938 39.7568 524.282 38.9189H524.098L523.649 40H521.602V26.3242H524.282V29.5059C524.282 29.9102 524.247 30.5576 524.177 31.4482H524.282C524.909 30.4756 525.838 29.9893 527.068 29.9893ZM526.207 32.1338C525.545 32.1338 525.062 32.3389 524.757 32.749C524.452 33.1533 524.294 33.8242 524.282 34.7617V35.0518C524.282 36.1064 524.438 36.8623 524.748 37.3193C525.064 37.7764 525.562 38.0049 526.242 38.0049C526.793 38.0049 527.229 37.7529 527.552 37.249C527.88 36.7393 528.044 36.001 528.044 35.0342C528.044 34.0674 527.88 33.3438 527.552 32.8633C527.224 32.377 526.775 32.1338 526.207 32.1338ZM535.673 40H532.992V26.3242H535.673V40ZM542.563 31.8965C541.995 31.8965 541.55 32.0781 541.228 32.4414C540.905 32.7988 540.721 33.3086 540.674 33.9707H544.436C544.424 33.3086 544.251 32.7988 543.917 32.4414C543.583 32.0781 543.132 31.8965 542.563 31.8965ZM542.941 40.1758C541.359 40.1758 540.123 39.7393 539.232 38.8662C538.342 37.9932 537.896 36.7568 537.896 35.1572C537.896 33.5107 538.307 32.2393 539.127 31.3428C539.953 30.4404 541.093 29.9893 542.546 29.9893C543.935 29.9893 545.016 30.3848 545.789 31.1758C546.562 31.9668 546.949 33.0596 546.949 34.4541V35.7549H540.612C540.642 36.5166 540.867 37.1113 541.289 37.5391C541.711 37.9668 542.303 38.1807 543.064 38.1807C543.656 38.1807 544.216 38.1191 544.743 37.9961C545.271 37.873 545.821 37.6768 546.396 37.4072V39.4814C545.927 39.7158 545.426 39.8887 544.893 40C544.359 40.1172 543.709 40.1758 542.941 40.1758Z" fill="#0F4FAD"/>
</svg>
