<svg width="472" height="80" viewBox="0 0 472 80" fill="none" xmlns="http://www.w3.org/2000/svg">
<path d="M23.1 31.7C23.1 36.38 23.18 39.74 23.34 41.78C22.5 41.58 19.72 41.48 15 41.48H5.76L4.8 51.74C7.12 50.14 10.14 49.34 13.86 49.34C17.7 49.34 20.6 50.22 22.56 51.98C24.56 53.74 25.56 56.02 25.56 58.82C25.56 61.78 24.4 64.4 22.08 66.68C19.76 69 16.76 70.78 13.08 72.02C9.44 73.26 5.68 73.88 1.8 73.88V72.8C4.32 72.76 6.72 72.2 9 71.12C11.28 70.08 13.12 68.52 14.52 66.44C15.92 64.4 16.62 61.98 16.62 59.18C16.62 56.66 16.02 54.74 14.82 53.42C13.66 52.06 11.96 51.38 9.72 51.38C8.64 51.38 7.68 51.52 6.84 51.8C6 52.08 5.16 52.52 4.32 53.12L3.48 52.58L5.4 33.8C6.2 33.96 7.28 34.04 8.64 34.04H18.54C19.7 34.04 20.5 33.88 20.94 33.56C21.42 33.2 21.72 32.58 21.84 31.7H23.1ZM43.7391 33.14C46.8191 33.14 49.2591 33.82 51.0591 35.18C52.8591 36.5 53.7591 38.36 53.7591 40.76C53.7591 42.4 53.2791 43.92 52.3191 45.32C51.3991 46.72 50.2991 47.96 49.0191 49.04C47.7391 50.12 45.9791 51.46 43.7391 53.06C40.8591 55.06 38.8391 56.66 37.6791 57.86H50.6391C51.7191 57.86 52.5191 57.78 53.0391 57.62C53.5991 57.46 53.9791 57.2 54.1791 56.84C54.3791 56.48 54.5391 55.92 54.6591 55.16H55.9191C55.9191 59.88 55.9991 63.26 56.1591 65.3C55.2791 65.1 52.2991 65 47.2191 65H29.7591V63.86C30.2791 63.3 31.2991 62.34 32.8191 60.98C35.1391 58.86 37.0591 56.98 38.5791 55.34C40.1391 53.66 41.4791 51.74 42.5991 49.58C43.7591 47.38 44.3391 45.1 44.3391 42.74C44.3391 40.62 43.8591 39.08 42.8991 38.12C41.9791 37.12 40.5991 36.62 38.7591 36.62C37.0791 36.62 35.5791 37.02 34.2591 37.82C32.9791 38.58 31.7991 39.72 30.7191 41.24L29.6991 40.64C32.6591 35.64 37.3391 33.14 43.7391 33.14ZM98.6053 16.34L63.5053 68.3L62.3653 67.52L97.4653 15.56L98.6053 16.34ZM70.1053 19.34C73.0253 19.34 75.3653 20.22 77.1253 21.98C78.9253 23.7 79.8253 26.08 79.8253 29.12C79.8253 31.12 79.4053 32.88 78.5653 34.4C77.7253 35.92 76.5653 37.1 75.0853 37.94C73.6053 38.78 71.9453 39.2 70.1053 39.2C67.1853 39.2 64.8253 38.34 63.0253 36.62C61.2253 34.86 60.3253 32.46 60.3253 29.42C60.3253 27.46 60.7453 25.72 61.5853 24.2C62.4253 22.64 63.5853 21.44 65.0653 20.6C66.5853 19.76 68.2653 19.34 70.1053 19.34ZM69.9853 20.42C67.3853 20.42 66.0853 23.4 66.0853 29.36C66.0853 32.24 66.4453 34.42 67.1653 35.9C67.8853 37.38 68.9053 38.12 70.2253 38.12C72.7853 38.12 74.0653 35.16 74.0653 29.24C74.0653 26.32 73.7053 24.12 72.9853 22.64C72.3053 21.16 71.3053 20.42 69.9853 20.42ZM90.2653 45.98C93.1853 45.98 95.5253 46.86 97.2853 48.62C99.0853 50.34 99.9853 52.72 99.9853 55.76C99.9853 57.76 99.5653 59.52 98.7253 61.04C97.8853 62.56 96.7253 63.74 95.2453 64.58C93.7653 65.42 92.1053 65.84 90.2653 65.84C87.3453 65.84 84.9853 64.98 83.1853 63.26C81.3853 61.5 80.4853 59.1 80.4853 56.06C80.4853 54.1 80.9053 52.36 81.7453 50.84C82.5853 49.28 83.7453 48.08 85.2253 47.24C86.7453 46.4 88.4253 45.98 90.2653 45.98ZM90.1453 47.06C87.5453 47.06 86.2453 50.04 86.2453 56C86.2453 58.88 86.6053 61.06 87.3253 62.54C88.0453 64.02 89.0653 64.76 90.3853 64.76C92.9453 64.76 94.2253 61.8 94.2253 55.88C94.2253 52.96 93.8653 50.76 93.1453 49.28C92.4653 47.8 91.4653 47.06 90.1453 47.06Z" fill="#0F4FAD"/>
<path d="M132.204 36H129.523V30.2607C129.523 29.5518 129.403 29.0215 129.163 28.6699C128.929 28.3125 128.557 28.1338 128.047 28.1338C127.361 28.1338 126.863 28.3857 126.553 28.8896C126.242 29.3936 126.087 30.2227 126.087 31.377V36H123.406V26.1738H125.454L125.814 27.4307H125.964C126.228 26.9795 126.608 26.6279 127.106 26.376C127.604 26.1182 128.176 25.9893 128.82 25.9893C130.291 25.9893 131.287 26.4697 131.809 27.4307H132.046C132.31 26.9736 132.696 26.6191 133.206 26.3672C133.722 26.1152 134.302 25.9893 134.946 25.9893C136.06 25.9893 136.9 26.2764 137.469 26.8506C138.043 27.4189 138.33 28.333 138.33 29.5928V36H135.641V30.2607C135.641 29.5518 135.521 29.0215 135.28 28.6699C135.046 28.3125 134.674 28.1338 134.164 28.1338C133.508 28.1338 133.016 28.3682 132.688 28.8369C132.365 29.3057 132.204 30.0498 132.204 31.0693V36ZM140.976 23.6338C140.976 22.7607 141.462 22.3242 142.435 22.3242C143.407 22.3242 143.894 22.7607 143.894 23.6338C143.894 24.0498 143.771 24.375 143.524 24.6094C143.284 24.8379 142.921 24.9521 142.435 24.9521C141.462 24.9521 140.976 24.5127 140.976 23.6338ZM143.771 36H141.09V26.1738H143.771V36ZM153.447 33.082C153.447 34.0898 153.096 34.8574 152.393 35.3848C151.695 35.9121 150.649 36.1758 149.255 36.1758C148.54 36.1758 147.931 36.126 147.427 36.0264C146.923 35.9326 146.451 35.792 146.012 35.6045V33.3896C146.51 33.624 147.069 33.8203 147.69 33.9785C148.317 34.1367 148.868 34.2158 149.343 34.2158C150.315 34.2158 150.802 33.9346 150.802 33.3721C150.802 33.1611 150.737 32.9912 150.608 32.8623C150.479 32.7275 150.257 32.5781 149.94 32.4141C149.624 32.2441 149.202 32.0479 148.675 31.8252C147.919 31.5088 147.362 31.2158 147.005 30.9463C146.653 30.6768 146.396 30.3691 146.231 30.0234C146.073 29.6719 145.994 29.2412 145.994 28.7314C145.994 27.8584 146.331 27.1846 147.005 26.71C147.685 26.2295 148.646 25.9893 149.888 25.9893C151.071 25.9893 152.223 26.2471 153.342 26.7627L152.533 28.6963C152.041 28.4854 151.581 28.3125 151.153 28.1777C150.726 28.043 150.289 27.9756 149.844 27.9756C149.053 27.9756 148.657 28.1895 148.657 28.6172C148.657 28.8574 148.783 29.0654 149.035 29.2412C149.293 29.417 149.853 29.6777 150.714 30.0234C151.481 30.334 152.044 30.624 152.401 30.8936C152.759 31.1631 153.022 31.4736 153.192 31.8252C153.362 32.1768 153.447 32.5957 153.447 33.082ZM159.529 36.1758C156.471 36.1758 154.941 34.4971 154.941 31.1396C154.941 29.4697 155.357 28.1953 156.189 27.3164C157.021 26.4316 158.214 25.9893 159.767 25.9893C160.903 25.9893 161.923 26.2119 162.825 26.6572L162.034 28.7314C161.612 28.5615 161.22 28.4238 160.856 28.3184C160.493 28.207 160.13 28.1514 159.767 28.1514C158.372 28.1514 157.675 29.1416 157.675 31.1221C157.675 33.0439 158.372 34.0049 159.767 34.0049C160.282 34.0049 160.76 33.9375 161.199 33.8027C161.639 33.6621 162.078 33.4453 162.518 33.1523V35.4463C162.084 35.7217 161.645 35.9121 161.199 36.0176C160.76 36.123 160.203 36.1758 159.529 36.1758ZM167.483 36H164.803V22.3242H167.483V36ZM170.19 23.6338C170.19 22.7607 170.677 22.3242 171.649 22.3242C172.622 22.3242 173.108 22.7607 173.108 23.6338C173.108 24.0498 172.985 24.375 172.739 24.6094C172.499 24.8379 172.136 24.9521 171.649 24.9521C170.677 24.9521 170.19 24.5127 170.19 23.6338ZM172.985 36H170.305V26.1738H172.985V36ZM179.797 36.1758C176.738 36.1758 175.209 34.4971 175.209 31.1396C175.209 29.4697 175.625 28.1953 176.457 27.3164C177.289 26.4316 178.481 25.9893 180.034 25.9893C181.171 25.9893 182.19 26.2119 183.093 26.6572L182.302 28.7314C181.88 28.5615 181.487 28.4238 181.124 28.3184C180.761 28.207 180.397 28.1514 180.034 28.1514C178.64 28.1514 177.942 29.1416 177.942 31.1221C177.942 33.0439 178.64 34.0049 180.034 34.0049C180.55 34.0049 181.027 33.9375 181.467 33.8027C181.906 33.6621 182.346 33.4453 182.785 33.1523V35.4463C182.352 35.7217 181.912 35.9121 181.467 36.0176C181.027 36.123 180.471 36.1758 179.797 36.1758ZM187.646 30.6562L188.814 29.1621L191.565 26.1738H194.589L190.687 30.4365L194.826 36H191.732L188.902 32.0186L187.751 32.9414V36H185.07V22.3242H187.751V28.4238L187.61 30.6562H187.646ZM200.302 27.8965C199.733 27.8965 199.288 28.0781 198.966 28.4414C198.644 28.7988 198.459 29.3086 198.412 29.9707H202.174C202.162 29.3086 201.989 28.7988 201.655 28.4414C201.321 28.0781 200.87 27.8965 200.302 27.8965ZM200.68 36.1758C199.098 36.1758 197.861 35.7393 196.971 34.8662C196.08 33.9932 195.635 32.7568 195.635 31.1572C195.635 29.5107 196.045 28.2393 196.865 27.3428C197.691 26.4404 198.831 25.9893 200.284 25.9893C201.673 25.9893 202.754 26.3848 203.527 27.1758C204.301 27.9668 204.688 29.0596 204.688 30.4541V31.7549H198.351C198.38 32.5166 198.605 33.1113 199.027 33.5391C199.449 33.9668 200.041 34.1807 200.803 34.1807C201.395 34.1807 201.954 34.1191 202.481 33.9961C203.009 33.873 203.56 33.6768 204.134 33.4072V35.4814C203.665 35.7158 203.164 35.8887 202.631 36C202.098 36.1172 201.447 36.1758 200.68 36.1758ZM209.979 36.1758C208.824 36.1758 207.916 35.7275 207.254 34.8311C206.598 33.9346 206.27 32.6924 206.27 31.1045C206.27 29.4932 206.604 28.2393 207.271 27.3428C207.945 26.4404 208.871 25.9893 210.049 25.9893C211.285 25.9893 212.229 26.4697 212.879 27.4307H212.967C212.832 26.6982 212.765 26.0449 212.765 25.4707V22.3242H215.454V36H213.397L212.879 34.7256H212.765C212.155 35.6924 211.227 36.1758 209.979 36.1758ZM210.919 34.04C211.604 34.04 212.105 33.8408 212.422 33.4424C212.744 33.0439 212.92 32.3672 212.949 31.4121V31.1221C212.949 30.0674 212.785 29.3115 212.457 28.8545C212.135 28.3975 211.607 28.1689 210.875 28.1689C210.277 28.1689 209.812 28.4238 209.478 28.9336C209.149 29.4375 208.985 30.1729 208.985 31.1396C208.985 32.1064 209.152 32.833 209.486 33.3193C209.82 33.7998 210.298 34.04 210.919 34.04ZM220.886 34.1104C220.581 35.2939 220.065 36.6973 219.339 38.3203H217.405C217.786 36.7617 218.082 35.291 218.293 33.9082H220.754L220.886 34.1104ZM232.294 34.04C232.763 34.04 233.325 33.9375 233.981 33.7324V35.7275C233.313 36.0264 232.493 36.1758 231.521 36.1758C230.448 36.1758 229.666 35.9062 229.174 35.3672C228.688 34.8223 228.444 34.0078 228.444 32.9238V28.1865H227.161V27.0527L228.638 26.1562L229.411 24.082H231.125V26.1738H233.876V28.1865H231.125V32.9238C231.125 33.3047 231.23 33.5859 231.441 33.7676C231.658 33.9492 231.942 34.04 232.294 34.04ZM245.047 36H242.366V30.2607C242.366 28.8428 241.839 28.1338 240.784 28.1338C240.034 28.1338 239.492 28.3887 239.158 28.8984C238.824 29.4082 238.657 30.2344 238.657 31.377V36H235.977V22.3242H238.657V25.1104C238.657 25.3271 238.637 25.8369 238.596 26.6396L238.534 27.4307H238.675C239.272 26.4697 240.222 25.9893 241.522 25.9893C242.677 25.9893 243.553 26.2998 244.15 26.9209C244.748 27.542 245.047 28.4326 245.047 29.5928V36ZM247.692 23.6338C247.692 22.7607 248.179 22.3242 249.151 22.3242C250.124 22.3242 250.61 22.7607 250.61 23.6338C250.61 24.0498 250.487 24.375 250.241 24.6094C250.001 24.8379 249.638 24.9521 249.151 24.9521C248.179 24.9521 247.692 24.5127 247.692 23.6338ZM250.487 36H247.807V26.1738H250.487V36ZM262.379 36H259.698V30.2607C259.698 29.5518 259.572 29.0215 259.32 28.6699C259.068 28.3125 258.667 28.1338 258.116 28.1338C257.366 28.1338 256.824 28.3857 256.49 28.8896C256.156 29.3877 255.989 30.2168 255.989 31.377V36H253.309V26.1738H255.356L255.717 27.4307H255.866C256.165 26.9561 256.575 26.5986 257.097 26.3584C257.624 26.1123 258.222 25.9893 258.89 25.9893C260.032 25.9893 260.899 26.2998 261.491 26.9209C262.083 27.5361 262.379 28.4268 262.379 29.5928V36ZM267.714 30.6562L268.883 29.1621L271.634 26.1738H274.657L270.755 30.4365L274.895 36H271.801L268.971 32.0186L267.819 32.9414V36H265.139V22.3242H267.819V28.4238L267.679 30.6562H267.714ZM276.187 23.6338C276.187 22.7607 276.673 22.3242 277.646 22.3242C278.618 22.3242 279.104 22.7607 279.104 23.6338C279.104 24.0498 278.981 24.375 278.735 24.6094C278.495 24.8379 278.132 24.9521 277.646 24.9521C276.673 24.9521 276.187 24.5127 276.187 23.6338ZM278.981 36H276.301V26.1738H278.981V36ZM290.873 36H288.192V30.2607C288.192 29.5518 288.066 29.0215 287.814 28.6699C287.562 28.3125 287.161 28.1338 286.61 28.1338C285.86 28.1338 285.318 28.3857 284.984 28.8896C284.65 29.3877 284.483 30.2168 284.483 31.377V36H281.803V26.1738H283.851L284.211 27.4307H284.36C284.659 26.9561 285.069 26.5986 285.591 26.3584C286.118 26.1123 286.716 25.9893 287.384 25.9893C288.526 25.9893 289.394 26.2998 289.985 26.9209C290.577 27.5361 290.873 28.4268 290.873 29.5928V36ZM302.185 26.1738V27.5361L300.646 27.9316C300.928 28.3711 301.068 28.8633 301.068 29.4082C301.068 30.4629 300.699 31.2861 299.961 31.8779C299.229 32.4639 298.209 32.7568 296.902 32.7568L296.419 32.7305L296.023 32.6865C295.748 32.8975 295.61 33.1318 295.61 33.3896C295.61 33.7764 296.103 33.9697 297.087 33.9697H298.757C299.835 33.9697 300.655 34.2012 301.218 34.6641C301.786 35.127 302.07 35.8066 302.07 36.7031C302.07 37.8516 301.59 38.7422 300.629 39.375C299.674 40.0078 298.3 40.3242 296.507 40.3242C295.136 40.3242 294.087 40.084 293.36 39.6035C292.64 39.1289 292.279 38.4609 292.279 37.5996C292.279 37.0078 292.464 36.5127 292.833 36.1143C293.202 35.7158 293.744 35.4316 294.459 35.2617C294.184 35.1445 293.943 34.9541 293.738 34.6904C293.533 34.4209 293.431 34.1367 293.431 33.8379C293.431 33.4629 293.539 33.1523 293.756 32.9062C293.973 32.6543 294.286 32.4082 294.696 32.168C294.181 31.9453 293.771 31.5879 293.466 31.0957C293.167 30.6035 293.018 30.0234 293.018 29.3555C293.018 28.2832 293.366 27.4541 294.063 26.8682C294.761 26.2822 295.757 25.9893 297.052 25.9893C297.327 25.9893 297.652 26.0156 298.027 26.0684C298.408 26.1152 298.651 26.1504 298.757 26.1738H302.185ZM294.6 37.3887C294.6 37.7578 294.775 38.0479 295.127 38.2588C295.484 38.4697 295.982 38.5752 296.621 38.5752C297.582 38.5752 298.335 38.4434 298.88 38.1797C299.425 37.916 299.697 37.5557 299.697 37.0986C299.697 36.7295 299.536 36.4746 299.214 36.334C298.892 36.1934 298.394 36.123 297.72 36.123H296.331C295.839 36.123 295.426 36.2373 295.092 36.4658C294.764 36.7002 294.6 37.0078 294.6 37.3887ZM295.575 29.3906C295.575 29.9238 295.695 30.3457 295.936 30.6562C296.182 30.9668 296.554 31.1221 297.052 31.1221C297.556 31.1221 297.925 30.9668 298.159 30.6562C298.394 30.3457 298.511 29.9238 298.511 29.3906C298.511 28.207 298.024 27.6152 297.052 27.6152C296.067 27.6152 295.575 28.207 295.575 29.3906ZM312.626 34.04C313.095 34.04 313.657 33.9375 314.313 33.7324V35.7275C313.646 36.0264 312.825 36.1758 311.853 36.1758C310.78 36.1758 309.998 35.9062 309.506 35.3672C309.02 34.8223 308.776 34.0078 308.776 32.9238V28.1865H307.493V27.0527L308.97 26.1562L309.743 24.082H311.457V26.1738H314.208V28.1865H311.457V32.9238C311.457 33.3047 311.562 33.5859 311.773 33.7676C311.99 33.9492 312.274 34.04 312.626 34.04ZM325.379 36H322.698V30.2607C322.698 28.8428 322.171 28.1338 321.116 28.1338C320.366 28.1338 319.824 28.3887 319.49 28.8984C319.156 29.4082 318.989 30.2344 318.989 31.377V36H316.309V22.3242H318.989V25.1104C318.989 25.3271 318.969 25.8369 318.928 26.6396L318.866 27.4307H319.007C319.604 26.4697 320.554 25.9893 321.854 25.9893C323.009 25.9893 323.885 26.2998 324.482 26.9209C325.08 27.542 325.379 28.4326 325.379 29.5928V36ZM332.208 27.8965C331.64 27.8965 331.194 28.0781 330.872 28.4414C330.55 28.7988 330.365 29.3086 330.318 29.9707H334.08C334.068 29.3086 333.896 28.7988 333.562 28.4414C333.228 28.0781 332.776 27.8965 332.208 27.8965ZM332.586 36.1758C331.004 36.1758 329.768 35.7393 328.877 34.8662C327.986 33.9932 327.541 32.7568 327.541 31.1572C327.541 29.5107 327.951 28.2393 328.771 27.3428C329.598 26.4404 330.737 25.9893 332.19 25.9893C333.579 25.9893 334.66 26.3848 335.434 27.1758C336.207 27.9668 336.594 29.0596 336.594 30.4541V31.7549H330.257C330.286 32.5166 330.512 33.1113 330.934 33.5391C331.355 33.9668 331.947 34.1807 332.709 34.1807C333.301 34.1807 333.86 34.1191 334.388 33.9961C334.915 33.873 335.466 33.6768 336.04 33.4072V35.4814C335.571 35.7158 335.07 35.8887 334.537 36C334.004 36.1172 333.354 36.1758 332.586 36.1758ZM347.519 27.8965C346.95 27.8965 346.505 28.0781 346.183 28.4414C345.86 28.7988 345.676 29.3086 345.629 29.9707H349.391C349.379 29.3086 349.206 28.7988 348.872 28.4414C348.538 28.0781 348.087 27.8965 347.519 27.8965ZM347.896 36.1758C346.314 36.1758 345.078 35.7393 344.188 34.8662C343.297 33.9932 342.852 32.7568 342.852 31.1572C342.852 29.5107 343.262 28.2393 344.082 27.3428C344.908 26.4404 346.048 25.9893 347.501 25.9893C348.89 25.9893 349.971 26.3848 350.744 27.1758C351.518 27.9668 351.904 29.0596 351.904 30.4541V31.7549H345.567C345.597 32.5166 345.822 33.1113 346.244 33.5391C346.666 33.9668 347.258 34.1807 348.02 34.1807C348.611 34.1807 349.171 34.1191 349.698 33.9961C350.226 33.873 350.776 33.6768 351.351 33.4072V35.4814C350.882 35.7158 350.381 35.8887 349.848 36C349.314 36.1172 348.664 36.1758 347.896 36.1758ZM363.154 36H360.474V30.2607C360.474 29.5518 360.348 29.0215 360.096 28.6699C359.844 28.3125 359.442 28.1338 358.892 28.1338C358.142 28.1338 357.6 28.3857 357.266 28.8896C356.932 29.3877 356.765 30.2168 356.765 31.377V36H354.084V26.1738H356.132L356.492 27.4307H356.642C356.94 26.9561 357.351 26.5986 357.872 26.3584C358.399 26.1123 358.997 25.9893 359.665 25.9893C360.808 25.9893 361.675 26.2998 362.267 26.9209C362.858 27.5361 363.154 28.4268 363.154 29.5928V36ZM370.054 34.04C370.522 34.04 371.085 33.9375 371.741 33.7324V35.7275C371.073 36.0264 370.253 36.1758 369.28 36.1758C368.208 36.1758 367.426 35.9062 366.934 35.3672C366.447 34.8223 366.204 34.0078 366.204 32.9238V28.1865H364.921V27.0527L366.397 26.1562L367.171 24.082H368.885V26.1738H371.636V28.1865H368.885V32.9238C368.885 33.3047 368.99 33.5859 369.201 33.7676C369.418 33.9492 369.702 34.04 370.054 34.04ZM373.622 23.6338C373.622 22.7607 374.108 22.3242 375.081 22.3242C376.054 22.3242 376.54 22.7607 376.54 23.6338C376.54 24.0498 376.417 24.375 376.171 24.6094C375.931 24.8379 375.567 24.9521 375.081 24.9521C374.108 24.9521 373.622 24.5127 373.622 23.6338ZM376.417 36H373.736V26.1738H376.417V36ZM384.723 25.9893C385.086 25.9893 385.388 26.0156 385.628 26.0684L385.426 28.582C385.209 28.5234 384.945 28.4941 384.635 28.4941C383.779 28.4941 383.111 28.7139 382.631 29.1533C382.156 29.5928 381.919 30.208 381.919 30.999V36H379.238V26.1738H381.269L381.664 27.8262H381.796C382.101 27.2754 382.511 26.833 383.026 26.499C383.548 26.1592 384.113 25.9893 384.723 25.9893ZM391.481 27.8965C390.913 27.8965 390.468 28.0781 390.146 28.4414C389.823 28.7988 389.639 29.3086 389.592 29.9707H393.354C393.342 29.3086 393.169 28.7988 392.835 28.4414C392.501 28.0781 392.05 27.8965 391.481 27.8965ZM391.859 36.1758C390.277 36.1758 389.041 35.7393 388.15 34.8662C387.26 33.9932 386.814 32.7568 386.814 31.1572C386.814 29.5107 387.225 28.2393 388.045 27.3428C388.871 26.4404 390.011 25.9893 391.464 25.9893C392.853 25.9893 393.934 26.3848 394.707 27.1758C395.48 27.9668 395.867 29.0596 395.867 30.4541V31.7549H389.53C389.56 32.5166 389.785 33.1113 390.207 33.5391C390.629 33.9668 391.221 34.1807 391.982 34.1807C392.574 34.1807 393.134 34.1191 393.661 33.9961C394.188 33.873 394.739 33.6768 395.313 33.4072V35.4814C394.845 35.7158 394.344 35.8887 393.811 36C393.277 36.1172 392.627 36.1758 391.859 36.1758ZM406.713 36.1758C403.654 36.1758 402.125 34.4971 402.125 31.1396C402.125 29.4697 402.541 28.1953 403.373 27.3164C404.205 26.4316 405.397 25.9893 406.95 25.9893C408.087 25.9893 409.106 26.2119 410.009 26.6572L409.218 28.7314C408.796 28.5615 408.403 28.4238 408.04 28.3184C407.677 28.207 407.313 28.1514 406.95 28.1514C405.556 28.1514 404.858 29.1416 404.858 31.1221C404.858 33.0439 405.556 34.0049 406.95 34.0049C407.466 34.0049 407.943 33.9375 408.383 33.8027C408.822 33.6621 409.262 33.4453 409.701 33.1523V35.4463C409.268 35.7217 408.828 35.9121 408.383 36.0176C407.943 36.123 407.387 36.1758 406.713 36.1758ZM418.227 36L417.708 34.6641H417.638C417.187 35.2324 416.721 35.6279 416.24 35.8506C415.766 36.0674 415.145 36.1758 414.377 36.1758C413.434 36.1758 412.689 35.9062 412.145 35.3672C411.605 34.8281 411.336 34.0605 411.336 33.0645C411.336 32.0215 411.699 31.2539 412.426 30.7617C413.158 30.2637 414.26 29.9883 415.73 29.9355L417.436 29.8828V29.4521C417.436 28.4561 416.926 27.958 415.906 27.958C415.121 27.958 414.198 28.1953 413.138 28.6699L412.25 26.8594C413.381 26.2676 414.635 25.9717 416.012 25.9717C417.33 25.9717 418.341 26.2588 419.044 26.833C419.747 27.4072 420.099 28.2803 420.099 29.4521V36H418.227ZM417.436 31.4473L416.398 31.4824C415.619 31.5059 415.039 31.6465 414.658 31.9043C414.277 32.1621 414.087 32.5547 414.087 33.082C414.087 33.8379 414.521 34.2158 415.388 34.2158C416.009 34.2158 416.504 34.0371 416.873 33.6797C417.248 33.3223 417.436 32.8477 417.436 32.2559V31.4473ZM428.352 25.9893C428.715 25.9893 429.017 26.0156 429.257 26.0684L429.055 28.582C428.838 28.5234 428.574 28.4941 428.264 28.4941C427.408 28.4941 426.74 28.7139 426.26 29.1533C425.785 29.5928 425.548 30.208 425.548 30.999V36H422.867V26.1738H424.897L425.293 27.8262H425.425C425.729 27.2754 426.14 26.833 426.655 26.499C427.177 26.1592 427.742 25.9893 428.352 25.9893ZM434.152 36.1758C432.998 36.1758 432.09 35.7275 431.428 34.8311C430.771 33.9346 430.443 32.6924 430.443 31.1045C430.443 29.4932 430.777 28.2393 431.445 27.3428C432.119 26.4404 433.045 25.9893 434.223 25.9893C435.459 25.9893 436.402 26.4697 437.053 27.4307H437.141C437.006 26.6982 436.938 26.0449 436.938 25.4707V22.3242H439.628V36H437.571L437.053 34.7256H436.938C436.329 35.6924 435.4 36.1758 434.152 36.1758ZM435.093 34.04C435.778 34.04 436.279 33.8408 436.596 33.4424C436.918 33.0439 437.094 32.3672 437.123 31.4121V31.1221C437.123 30.0674 436.959 29.3115 436.631 28.8545C436.309 28.3975 435.781 28.1689 435.049 28.1689C434.451 28.1689 433.985 28.4238 433.651 28.9336C433.323 29.4375 433.159 30.1729 433.159 31.1396C433.159 32.1064 433.326 32.833 433.66 33.3193C433.994 33.7998 434.472 34.04 435.093 34.04ZM131.483 70L130.728 66.5635L129.708 62.2217H129.646L127.854 70H124.971L122.176 60.1738H124.848L125.981 64.5244C126.163 65.3037 126.348 66.3789 126.535 67.75H126.588C126.611 67.3047 126.714 66.5986 126.896 65.6318L127.036 64.8848L128.249 60.1738H131.202L132.354 64.8848C132.377 65.0137 132.412 65.2041 132.459 65.4561C132.512 65.708 132.562 65.9775 132.608 66.2646C132.655 66.5459 132.696 66.8242 132.731 67.0996C132.772 67.3691 132.796 67.5859 132.802 67.75H132.854C132.907 67.3281 133.001 66.751 133.136 66.0186C133.271 65.2803 133.367 64.7822 133.426 64.5244L134.604 60.1738H137.231L134.401 70H131.483ZM145.062 70L144.544 68.6641H144.474C144.022 69.2324 143.557 69.6279 143.076 69.8506C142.602 70.0674 141.98 70.1758 141.213 70.1758C140.27 70.1758 139.525 69.9062 138.98 69.3672C138.441 68.8281 138.172 68.0605 138.172 67.0645C138.172 66.0215 138.535 65.2539 139.262 64.7617C139.994 64.2637 141.096 63.9883 142.566 63.9355L144.271 63.8828V63.4521C144.271 62.4561 143.762 61.958 142.742 61.958C141.957 61.958 141.034 62.1953 139.974 62.6699L139.086 60.8594C140.217 60.2676 141.471 59.9717 142.848 59.9717C144.166 59.9717 145.177 60.2588 145.88 60.833C146.583 61.4072 146.935 62.2803 146.935 63.4521V70H145.062ZM144.271 65.4473L143.234 65.4824C142.455 65.5059 141.875 65.6465 141.494 65.9043C141.113 66.1621 140.923 66.5547 140.923 67.082C140.923 67.8379 141.356 68.2158 142.224 68.2158C142.845 68.2158 143.34 68.0371 143.709 67.6797C144.084 67.3223 144.271 66.8477 144.271 66.2559V65.4473ZM156.559 67.082C156.559 68.0898 156.207 68.8574 155.504 69.3848C154.807 69.9121 153.761 70.1758 152.366 70.1758C151.651 70.1758 151.042 70.126 150.538 70.0264C150.034 69.9326 149.562 69.792 149.123 69.6045V67.3896C149.621 67.624 150.181 67.8203 150.802 67.9785C151.429 68.1367 151.979 68.2158 152.454 68.2158C153.427 68.2158 153.913 67.9346 153.913 67.3721C153.913 67.1611 153.849 66.9912 153.72 66.8623C153.591 66.7275 153.368 66.5781 153.052 66.4141C152.735 66.2441 152.313 66.0479 151.786 65.8252C151.03 65.5088 150.474 65.2158 150.116 64.9463C149.765 64.6768 149.507 64.3691 149.343 64.0234C149.185 63.6719 149.105 63.2412 149.105 62.7314C149.105 61.8584 149.442 61.1846 150.116 60.71C150.796 60.2295 151.757 59.9893 152.999 59.9893C154.183 59.9893 155.334 60.2471 156.453 60.7627L155.645 62.6963C155.152 62.4854 154.692 62.3125 154.265 62.1777C153.837 62.043 153.4 61.9756 152.955 61.9756C152.164 61.9756 151.769 62.1895 151.769 62.6172C151.769 62.8574 151.895 63.0654 152.146 63.2412C152.404 63.417 152.964 63.6777 153.825 64.0234C154.593 64.334 155.155 64.624 155.513 64.8936C155.87 65.1631 156.134 65.4736 156.304 65.8252C156.474 66.1768 156.559 66.5957 156.559 67.082ZM167.316 70.1758C164.258 70.1758 162.729 68.4971 162.729 65.1396C162.729 63.4697 163.145 62.1953 163.977 61.3164C164.809 60.4316 166.001 59.9893 167.554 59.9893C168.69 59.9893 169.71 60.2119 170.612 60.6572L169.821 62.7314C169.399 62.5615 169.007 62.4238 168.644 62.3184C168.28 62.207 167.917 62.1514 167.554 62.1514C166.159 62.1514 165.462 63.1416 165.462 65.1221C165.462 67.0439 166.159 68.0049 167.554 68.0049C168.069 68.0049 168.547 67.9375 168.986 67.8027C169.426 67.6621 169.865 67.4453 170.305 67.1523V69.4463C169.871 69.7217 169.432 69.9121 168.986 70.0176C168.547 70.123 167.99 70.1758 167.316 70.1758ZM175.271 70H172.59V56.3242H175.271V70ZM177.978 57.6338C177.978 56.7607 178.464 56.3242 179.437 56.3242C180.409 56.3242 180.896 56.7607 180.896 57.6338C180.896 58.0498 180.772 58.375 180.526 58.6094C180.286 58.8379 179.923 58.9521 179.437 58.9521C178.464 58.9521 177.978 58.5127 177.978 57.6338ZM180.772 70H178.092V60.1738H180.772V70ZM187.584 70.1758C184.525 70.1758 182.996 68.4971 182.996 65.1396C182.996 63.4697 183.412 62.1953 184.244 61.3164C185.076 60.4316 186.269 59.9893 187.821 59.9893C188.958 59.9893 189.978 60.2119 190.88 60.6572L190.089 62.7314C189.667 62.5615 189.274 62.4238 188.911 62.3184C188.548 62.207 188.185 62.1514 187.821 62.1514C186.427 62.1514 185.729 63.1416 185.729 65.1221C185.729 67.0439 186.427 68.0049 187.821 68.0049C188.337 68.0049 188.814 67.9375 189.254 67.8027C189.693 67.6621 190.133 67.4453 190.572 67.1523V69.4463C190.139 69.7217 189.699 69.9121 189.254 70.0176C188.814 70.123 188.258 70.1758 187.584 70.1758ZM195.433 64.6562L196.602 63.1621L199.353 60.1738H202.376L198.474 64.4365L202.613 70H199.52L196.689 66.0186L195.538 66.9414V70H192.857V56.3242H195.538V62.4238L195.397 64.6562H195.433ZM210.26 70L209.741 68.6641H209.671C209.22 69.2324 208.754 69.6279 208.273 69.8506C207.799 70.0674 207.178 70.1758 206.41 70.1758C205.467 70.1758 204.723 69.9062 204.178 69.3672C203.639 68.8281 203.369 68.0605 203.369 67.0645C203.369 66.0215 203.732 65.2539 204.459 64.7617C205.191 64.2637 206.293 63.9883 207.764 63.9355L209.469 63.8828V63.4521C209.469 62.4561 208.959 61.958 207.939 61.958C207.154 61.958 206.231 62.1953 205.171 62.6699L204.283 60.8594C205.414 60.2676 206.668 59.9717 208.045 59.9717C209.363 59.9717 210.374 60.2588 211.077 60.833C211.78 61.4072 212.132 62.2803 212.132 63.4521V70H210.26ZM209.469 65.4473L208.432 65.4824C207.652 65.5059 207.072 65.6465 206.691 65.9043C206.311 66.1621 206.12 66.5547 206.12 67.082C206.12 67.8379 206.554 68.2158 207.421 68.2158C208.042 68.2158 208.537 68.0371 208.906 67.6797C209.281 67.3223 209.469 66.8477 209.469 66.2559V65.4473ZM220.367 59.9893C221.527 59.9893 222.436 60.4434 223.092 61.3516C223.748 62.2539 224.076 63.4932 224.076 65.0693C224.076 66.6924 223.736 67.9492 223.057 68.8398C222.383 69.7305 221.463 70.1758 220.297 70.1758C219.143 70.1758 218.237 69.7568 217.581 68.9189H217.396L216.948 70H214.9V56.3242H217.581V59.5059C217.581 59.9102 217.546 60.5576 217.476 61.4482H217.581C218.208 60.4756 219.137 59.9893 220.367 59.9893ZM219.506 62.1338C218.844 62.1338 218.36 62.3389 218.056 62.749C217.751 63.1533 217.593 63.8242 217.581 64.7617V65.0518C217.581 66.1064 217.736 66.8623 218.047 67.3193C218.363 67.7764 218.861 68.0049 219.541 68.0049C220.092 68.0049 220.528 67.7529 220.851 67.249C221.179 66.7393 221.343 66.001 221.343 65.0342C221.343 64.0674 221.179 63.3438 220.851 62.8633C220.522 62.377 220.074 62.1338 219.506 62.1338ZM228.972 70H226.291V56.3242H228.972V70ZM235.862 61.8965C235.294 61.8965 234.849 62.0781 234.526 62.4414C234.204 62.7988 234.02 63.3086 233.973 63.9707H237.734C237.723 63.3086 237.55 62.7988 237.216 62.4414C236.882 62.0781 236.431 61.8965 235.862 61.8965ZM236.24 70.1758C234.658 70.1758 233.422 69.7393 232.531 68.8662C231.641 67.9932 231.195 66.7568 231.195 65.1572C231.195 63.5107 231.605 62.2393 232.426 61.3428C233.252 60.4404 234.392 59.9893 235.845 59.9893C237.233 59.9893 238.314 60.3848 239.088 61.1758C239.861 61.9668 240.248 63.0596 240.248 64.4541V65.7549H233.911C233.94 66.5166 234.166 67.1113 234.588 67.5391C235.01 67.9668 235.602 68.1807 236.363 68.1807C236.955 68.1807 237.515 68.1191 238.042 67.9961C238.569 67.873 239.12 67.6768 239.694 67.4072V69.4814C239.226 69.7158 238.725 69.8887 238.191 70C237.658 70.1172 237.008 70.1758 236.24 70.1758Z" fill="#0F4FAD"/>
</svg>
