<svg width="255" height="115" viewBox="0 0 255 115" fill="none" xmlns="http://www.w3.org/2000/svg">
<path d="M17.892 29.884C17.604 29.812 16.404 29.752 14.292 29.704V36.076H10.116V29.704H0.288V28.948L13.716 11.884H14.292V25.996H14.58C15.228 25.996 15.708 25.948 16.02 25.852C16.356 25.756 16.584 25.6 16.704 25.384C16.824 25.168 16.92 24.832 16.992 24.376H17.748C17.748 26.92 17.796 28.756 17.892 29.884ZM10.116 25.996V17.608L3.6 25.996H10.116ZM30.8275 11.884C32.7235 11.884 34.4155 12.28 35.9035 13.072C37.3915 13.864 38.5435 14.98 39.3595 16.42C40.1995 17.86 40.6195 19.516 40.6195 21.388C40.6195 23.308 40.1875 25.036 39.3235 26.572C38.4835 28.108 37.2835 29.32 35.7235 30.208C34.1875 31.072 32.4235 31.504 30.4315 31.504C28.5595 31.504 26.8795 31.108 25.3915 30.316C23.9035 29.524 22.7395 28.408 21.8995 26.968C21.0595 25.528 20.6395 23.86 20.6395 21.964C20.6395 20.068 21.0595 18.352 21.8995 16.816C22.7635 15.28 23.9635 14.08 25.4995 13.216C27.0355 12.328 28.8115 11.884 30.8275 11.884ZM30.5035 12.532C29.6395 12.532 28.8715 12.904 28.1995 13.648C27.5275 14.392 26.9995 15.472 26.6155 16.888C26.2555 18.28 26.0755 19.936 26.0755 21.856C26.0755 24.904 26.5075 27.172 27.3715 28.66C28.2595 30.124 29.3875 30.856 30.7555 30.856C31.6195 30.856 32.3755 30.484 33.0235 29.74C33.6955 28.972 34.2235 27.892 34.6075 26.5C34.9915 25.084 35.1835 23.416 35.1835 21.496C35.1835 18.448 34.7395 16.192 33.8515 14.728C32.9875 13.264 31.8715 12.532 30.5035 12.532ZM66.3787 1.804L45.3187 32.98L44.6347 32.512L65.6947 1.336L66.3787 1.804ZM49.2787 3.604C51.0307 3.604 52.4347 4.132 53.4907 5.188C54.5707 6.22 55.1107 7.648 55.1107 9.472C55.1107 10.672 54.8587 11.728 54.3547 12.64C53.8507 13.552 53.1547 14.26 52.2667 14.764C51.3787 15.268 50.3827 15.52 49.2787 15.52C47.5267 15.52 46.1107 15.004 45.0307 13.972C43.9507 12.916 43.4107 11.476 43.4107 9.652C43.4107 8.476 43.6627 7.432 44.1667 6.52C44.6707 5.584 45.3667 4.864 46.2547 4.36C47.1667 3.856 48.1747 3.604 49.2787 3.604ZM49.2067 4.252C47.6467 4.252 46.8667 6.04 46.8667 9.616C46.8667 11.344 47.0827 12.652 47.5147 13.54C47.9467 14.428 48.5587 14.872 49.3507 14.872C50.8867 14.872 51.6547 13.096 51.6547 9.544C51.6547 7.792 51.4387 6.472 51.0067 5.584C50.5987 4.696 49.9987 4.252 49.2067 4.252ZM61.3747 19.588C63.1267 19.588 64.5307 20.116 65.5867 21.172C66.6667 22.204 67.2067 23.632 67.2067 25.456C67.2067 26.656 66.9547 27.712 66.4507 28.624C65.9467 29.536 65.2507 30.244 64.3627 30.748C63.4747 31.252 62.4787 31.504 61.3747 31.504C59.6227 31.504 58.2067 30.988 57.1267 29.956C56.0467 28.9 55.5067 27.46 55.5067 25.636C55.5067 24.46 55.7587 23.416 56.2627 22.504C56.7667 21.568 57.4627 20.848 58.3507 20.344C59.2627 19.84 60.2707 19.588 61.3747 19.588ZM61.3027 20.236C59.7427 20.236 58.9627 22.024 58.9627 25.6C58.9627 27.328 59.1787 28.636 59.6107 29.524C60.0427 30.412 60.6547 30.856 61.4467 30.856C62.9827 30.856 63.7507 29.08 63.7507 25.528C63.7507 23.776 63.5347 22.456 63.1027 21.568C62.6947 20.68 62.0947 20.236 61.3027 20.236Z" fill="black"/>
<path d="M5.112 61.739C5.778 61.739 6.378 61.85 6.912 62.072C7.446 62.294 7.902 62.609 8.28 63.017C8.658 63.425 8.946 63.92 9.144 64.502C9.348 65.078 9.45 65.723 9.45 66.437C9.45 67.157 9.348 67.805 9.144 68.381C8.946 68.957 8.658 69.449 8.28 69.857C7.902 70.265 7.446 70.58 6.912 70.802C6.378 71.018 5.778 71.126 5.112 71.126C4.44 71.126 3.834 71.018 3.294 70.802C2.76 70.58 2.304 70.265 1.926 69.857C1.548 69.449 1.257 68.957 1.053 68.381C0.855 67.805 0.756 67.157 0.756 66.437C0.756 65.723 0.855 65.078 1.053 64.502C1.257 63.92 1.548 63.425 1.926 63.017C2.304 62.609 2.76 62.294 3.294 62.072C3.834 61.85 4.44 61.739 5.112 61.739ZM5.112 69.875C6.012 69.875 6.684 69.575 7.128 68.975C7.572 68.369 7.794 67.526 7.794 66.446C7.794 65.36 7.572 64.514 7.128 63.908C6.684 63.302 6.012 62.999 5.112 62.999C4.656 62.999 4.257 63.077 3.915 63.233C3.579 63.389 3.297 63.614 3.069 63.908C2.847 64.202 2.679 64.565 2.565 64.997C2.457 65.423 2.403 65.906 2.403 66.446C2.403 67.526 2.625 68.369 3.069 68.975C3.519 69.575 4.2 69.875 5.112 69.875ZM11.8825 71V63.251L10.8745 63.134C10.7485 63.104 10.6435 63.059 10.5595 62.999C10.4815 62.933 10.4425 62.84 10.4425 62.72V62.063H11.8825V61.181C11.8825 60.659 11.9545 60.197 12.0985 59.795C12.2485 59.387 12.4585 59.045 12.7285 58.769C13.0045 58.487 13.3345 58.274 13.7185 58.13C14.1025 57.986 14.5345 57.914 15.0145 57.914C15.4225 57.914 15.7975 57.974 16.1395 58.094L16.1035 58.895C16.0915 59.039 16.0105 59.117 15.8605 59.129C15.7165 59.141 15.5215 59.147 15.2755 59.147C14.9995 59.147 14.7475 59.183 14.5195 59.255C14.2975 59.327 14.1055 59.444 13.9435 59.606C13.7815 59.768 13.6555 59.981 13.5655 60.245C13.4815 60.509 13.4395 60.836 13.4395 61.226V62.063H16.0675V63.224H13.4935V71H11.8825ZM29.3676 61.883V71H28.4136C28.1856 71 28.0416 70.889 27.9816 70.667L27.8556 69.686C27.4596 70.124 27.0156 70.478 26.5236 70.748C26.0316 71.012 25.4676 71.144 24.8316 71.144C24.3336 71.144 23.8926 71.063 23.5086 70.901C23.1306 70.733 22.8126 70.499 22.5546 70.199C22.2966 69.899 22.1016 69.536 21.9696 69.11C21.8436 68.684 21.7806 68.213 21.7806 67.697V61.883H23.3826V67.697C23.3826 68.387 23.5386 68.921 23.8506 69.299C24.1686 69.677 24.6516 69.866 25.2996 69.866C25.7736 69.866 26.2146 69.755 26.6226 69.533C27.0366 69.305 27.4176 68.993 27.7656 68.597V61.883H29.3676ZM37.2177 63.386C37.1457 63.518 37.0347 63.584 36.8847 63.584C36.7947 63.584 36.6927 63.551 36.5787 63.485C36.4647 63.419 36.3237 63.347 36.1557 63.269C35.9937 63.185 35.7987 63.11 35.5707 63.044C35.3427 62.972 35.0727 62.936 34.7607 62.936C34.4907 62.936 34.2477 62.972 34.0317 63.044C33.8157 63.11 33.6297 63.203 33.4737 63.323C33.3237 63.443 33.2067 63.584 33.1227 63.746C33.0447 63.902 33.0057 64.073 33.0057 64.259C33.0057 64.493 33.0717 64.688 33.2037 64.844C33.3417 65 33.5217 65.135 33.7437 65.249C33.9657 65.363 34.2177 65.465 34.4997 65.555C34.7817 65.639 35.0697 65.732 35.3637 65.834C35.6637 65.93 35.9547 66.038 36.2367 66.158C36.5187 66.278 36.7707 66.428 36.9927 66.608C37.2147 66.788 37.3917 67.01 37.5237 67.274C37.6617 67.532 37.7307 67.844 37.7307 68.21C37.7307 68.63 37.6557 69.02 37.5057 69.38C37.3557 69.734 37.1337 70.043 36.8397 70.307C36.5457 70.565 36.1857 70.769 35.7597 70.919C35.3337 71.069 34.8417 71.144 34.2837 71.144C33.6477 71.144 33.0717 71.042 32.5557 70.838C32.0397 70.628 31.6017 70.361 31.2417 70.037L31.6197 69.425C31.6677 69.347 31.7247 69.287 31.7907 69.245C31.8567 69.203 31.9407 69.182 32.0427 69.182C32.1507 69.182 32.2647 69.224 32.3847 69.308C32.5047 69.392 32.6487 69.485 32.8167 69.587C32.9907 69.689 33.2007 69.782 33.4467 69.866C33.6927 69.95 33.9987 69.992 34.3647 69.992C34.6767 69.992 34.9497 69.953 35.1837 69.875C35.4177 69.791 35.6127 69.68 35.7687 69.542C35.9247 69.404 36.0387 69.245 36.1107 69.065C36.1887 68.885 36.2277 68.693 36.2277 68.489C36.2277 68.237 36.1587 68.03 36.0207 67.868C35.8887 67.7 35.7117 67.559 35.4897 67.445C35.2677 67.325 35.0127 67.223 34.7247 67.139C34.4427 67.049 34.1517 66.956 33.8517 66.86C33.5577 66.764 33.2667 66.656 32.9787 66.536C32.6967 66.41 32.4447 66.254 32.2227 66.068C32.0007 65.882 31.8207 65.654 31.6827 65.384C31.5507 65.108 31.4847 64.775 31.4847 64.385C31.4847 64.037 31.5567 63.704 31.7007 63.386C31.8447 63.062 32.0547 62.78 32.3307 62.54C32.6067 62.294 32.9457 62.099 33.3477 61.955C33.7497 61.811 34.2087 61.739 34.7247 61.739C35.3247 61.739 35.8617 61.835 36.3357 62.027C36.8157 62.213 37.2297 62.471 37.5777 62.801L37.2177 63.386ZM45.7968 65.447C45.7968 65.075 45.7428 64.736 45.6348 64.43C45.5328 64.118 45.3798 63.851 45.1758 63.629C44.9778 63.401 44.7348 63.227 44.4468 63.107C44.1588 62.981 43.8318 62.918 43.4658 62.918C42.6978 62.918 42.0888 63.143 41.6388 63.593C41.1948 64.037 40.9188 64.655 40.8108 65.447H45.7968ZM47.0928 69.722C46.8948 69.962 46.6578 70.172 46.3818 70.352C46.1058 70.526 45.8088 70.67 45.4908 70.784C45.1788 70.898 44.8548 70.982 44.5188 71.036C44.1828 71.096 43.8498 71.126 43.5198 71.126C42.8898 71.126 42.3078 71.021 41.7738 70.811C41.2458 70.595 40.7868 70.283 40.3968 69.875C40.0128 69.461 39.7128 68.951 39.4968 68.345C39.2808 67.739 39.1728 67.043 39.1728 66.257C39.1728 65.621 39.2688 65.027 39.4608 64.475C39.6588 63.923 39.9408 63.446 40.3068 63.044C40.6728 62.636 41.1198 62.318 41.6478 62.09C42.1758 61.856 42.7698 61.739 43.4298 61.739C43.9758 61.739 44.4798 61.832 44.9418 62.018C45.4098 62.198 45.8118 62.462 46.1478 62.81C46.4898 63.152 46.7568 63.578 46.9488 64.088C47.1408 64.592 47.2368 65.168 47.2368 65.816C47.2368 66.068 47.2098 66.236 47.1558 66.32C47.1018 66.404 46.9998 66.446 46.8498 66.446H40.7568C40.7748 67.022 40.8528 67.523 40.9908 67.949C41.1348 68.375 41.3328 68.732 41.5848 69.02C41.8368 69.302 42.1368 69.515 42.4848 69.659C42.8328 69.797 43.2228 69.866 43.6548 69.866C44.0568 69.866 44.4018 69.821 44.6898 69.731C44.9838 69.635 45.2358 69.533 45.4458 69.425C45.6558 69.317 45.8298 69.218 45.9678 69.128C46.1118 69.032 46.2348 68.984 46.3368 68.984C46.4688 68.984 46.5708 69.035 46.6428 69.137L47.0928 69.722ZM50.7255 63.71C51.0135 63.086 51.3675 62.6 51.7875 62.252C52.2075 61.898 52.7205 61.721 53.3265 61.721C53.5185 61.721 53.7015 61.742 53.8755 61.784C54.0555 61.826 54.2145 61.892 54.3525 61.982L54.2355 63.179C54.1995 63.329 54.1095 63.404 53.9655 63.404C53.8815 63.404 53.7585 63.386 53.5965 63.35C53.4345 63.314 53.2515 63.296 53.0475 63.296C52.7595 63.296 52.5015 63.338 52.2735 63.422C52.0515 63.506 51.8505 63.632 51.6705 63.8C51.4965 63.962 51.3375 64.166 51.1935 64.412C51.0555 64.652 50.9295 64.928 50.8155 65.24V71H49.2045V61.883H50.1225C50.2965 61.883 50.4165 61.916 50.4825 61.982C50.5485 62.048 50.5935 62.162 50.6175 62.324L50.7255 63.71ZM61.0185 63.386C60.9465 63.518 60.8355 63.584 60.6855 63.584C60.5955 63.584 60.4935 63.551 60.3795 63.485C60.2655 63.419 60.1245 63.347 59.9565 63.269C59.7945 63.185 59.5995 63.11 59.3715 63.044C59.1435 62.972 58.8735 62.936 58.5615 62.936C58.2915 62.936 58.0485 62.972 57.8325 63.044C57.6165 63.11 57.4305 63.203 57.2745 63.323C57.1245 63.443 57.0075 63.584 56.9235 63.746C56.8455 63.902 56.8065 64.073 56.8065 64.259C56.8065 64.493 56.8725 64.688 57.0045 64.844C57.1425 65 57.3225 65.135 57.5445 65.249C57.7665 65.363 58.0185 65.465 58.3005 65.555C58.5825 65.639 58.8705 65.732 59.1645 65.834C59.4645 65.93 59.7555 66.038 60.0375 66.158C60.3195 66.278 60.5715 66.428 60.7935 66.608C61.0155 66.788 61.1925 67.01 61.3245 67.274C61.4625 67.532 61.5315 67.844 61.5315 68.21C61.5315 68.63 61.4565 69.02 61.3065 69.38C61.1565 69.734 60.9345 70.043 60.6405 70.307C60.3465 70.565 59.9865 70.769 59.5605 70.919C59.1345 71.069 58.6425 71.144 58.0845 71.144C57.4485 71.144 56.8725 71.042 56.3565 70.838C55.8405 70.628 55.4025 70.361 55.0425 70.037L55.4205 69.425C55.4685 69.347 55.5255 69.287 55.5915 69.245C55.6575 69.203 55.7415 69.182 55.8435 69.182C55.9515 69.182 56.0655 69.224 56.1855 69.308C56.3055 69.392 56.4495 69.485 56.6175 69.587C56.7915 69.689 57.0015 69.782 57.2475 69.866C57.4935 69.95 57.7995 69.992 58.1655 69.992C58.4775 69.992 58.7505 69.953 58.9845 69.875C59.2185 69.791 59.4135 69.68 59.5695 69.542C59.7255 69.404 59.8395 69.245 59.9115 69.065C59.9895 68.885 60.0285 68.693 60.0285 68.489C60.0285 68.237 59.9595 68.03 59.8215 67.868C59.6895 67.7 59.5125 67.559 59.2905 67.445C59.0685 67.325 58.8135 67.223 58.5255 67.139C58.2435 67.049 57.9525 66.956 57.6525 66.86C57.3585 66.764 57.0675 66.656 56.7795 66.536C56.4975 66.41 56.2455 66.254 56.0235 66.068C55.8015 65.882 55.6215 65.654 55.4835 65.384C55.3515 65.108 55.2855 64.775 55.2855 64.385C55.2855 64.037 55.3575 63.704 55.5015 63.386C55.6455 63.062 55.8555 62.78 56.1315 62.54C56.4075 62.294 56.7465 62.099 57.1485 61.955C57.5505 61.811 58.0095 61.739 58.5255 61.739C59.1255 61.739 59.6625 61.835 60.1365 62.027C60.6165 62.213 61.0305 62.471 61.3785 62.801L61.0185 63.386ZM69.712 68.804C70.006 69.2 70.327 69.479 70.675 69.641C71.023 69.803 71.413 69.884 71.845 69.884C72.697 69.884 73.351 69.581 73.807 68.975C74.263 68.369 74.491 67.505 74.491 66.383C74.491 65.789 74.437 65.279 74.329 64.853C74.227 64.427 74.077 64.079 73.879 63.809C73.681 63.533 73.438 63.332 73.15 63.206C72.862 63.08 72.535 63.017 72.169 63.017C71.647 63.017 71.188 63.137 70.792 63.377C70.402 63.617 70.042 63.956 69.712 64.394V68.804ZM69.631 63.296C70.015 62.822 70.459 62.441 70.963 62.153C71.467 61.865 72.043 61.721 72.691 61.721C73.219 61.721 73.696 61.823 74.122 62.027C74.548 62.225 74.911 62.522 75.211 62.918C75.511 63.308 75.742 63.794 75.904 64.376C76.066 64.958 76.147 65.627 76.147 66.383C76.147 67.055 76.057 67.682 75.877 68.264C75.697 68.84 75.436 69.341 75.094 69.767C74.758 70.187 74.344 70.52 73.852 70.766C73.366 71.006 72.817 71.126 72.205 71.126C71.647 71.126 71.167 71.033 70.765 70.847C70.369 70.655 70.018 70.391 69.712 70.055V74.087H68.101V61.883H69.064C69.292 61.883 69.433 61.994 69.487 62.216L69.631 63.296ZM79.7119 63.71C79.9999 63.086 80.3539 62.6 80.7739 62.252C81.1939 61.898 81.7069 61.721 82.3129 61.721C82.5049 61.721 82.6879 61.742 82.8619 61.784C83.0419 61.826 83.2009 61.892 83.3389 61.982L83.2219 63.179C83.1859 63.329 83.0959 63.404 82.9519 63.404C82.8679 63.404 82.7449 63.386 82.5829 63.35C82.4209 63.314 82.2379 63.296 82.0339 63.296C81.7459 63.296 81.4879 63.338 81.2599 63.422C81.0379 63.506 80.8369 63.632 80.6569 63.8C80.4829 63.962 80.3239 64.166 80.1799 64.412C80.0419 64.652 79.9159 64.928 79.8019 65.24V71H78.1909V61.883H79.1089C79.2829 61.883 79.4029 61.916 79.4689 61.982C79.5349 62.048 79.5799 62.162 79.6039 62.324L79.7119 63.71ZM90.4804 65.447C90.4804 65.075 90.4264 64.736 90.3184 64.43C90.2164 64.118 90.0634 63.851 89.8594 63.629C89.6614 63.401 89.4184 63.227 89.1304 63.107C88.8424 62.981 88.5154 62.918 88.1494 62.918C87.3814 62.918 86.7724 63.143 86.3224 63.593C85.8784 64.037 85.6024 64.655 85.4944 65.447H90.4804ZM91.7764 69.722C91.5784 69.962 91.3414 70.172 91.0654 70.352C90.7894 70.526 90.4924 70.67 90.1744 70.784C89.8624 70.898 89.5384 70.982 89.2024 71.036C88.8664 71.096 88.5334 71.126 88.2034 71.126C87.5734 71.126 86.9914 71.021 86.4574 70.811C85.9294 70.595 85.4704 70.283 85.0804 69.875C84.6964 69.461 84.3964 68.951 84.1804 68.345C83.9644 67.739 83.8564 67.043 83.8564 66.257C83.8564 65.621 83.9524 65.027 84.1444 64.475C84.3424 63.923 84.6244 63.446 84.9904 63.044C85.3564 62.636 85.8034 62.318 86.3314 62.09C86.8594 61.856 87.4534 61.739 88.1134 61.739C88.6594 61.739 89.1634 61.832 89.6254 62.018C90.0934 62.198 90.4954 62.462 90.8314 62.81C91.1734 63.152 91.4404 63.578 91.6324 64.088C91.8244 64.592 91.9204 65.168 91.9204 65.816C91.9204 66.068 91.8934 66.236 91.8394 66.32C91.7854 66.404 91.6834 66.446 91.5334 66.446H85.4404C85.4584 67.022 85.5364 67.523 85.6744 67.949C85.8184 68.375 86.0164 68.732 86.2684 69.02C86.5204 69.302 86.8204 69.515 87.1684 69.659C87.5164 69.797 87.9064 69.866 88.3384 69.866C88.7404 69.866 89.0854 69.821 89.3734 69.731C89.6674 69.635 89.9194 69.533 90.1294 69.425C90.3394 69.317 90.5134 69.218 90.6514 69.128C90.7954 69.032 90.9184 68.984 91.0204 68.984C91.1524 68.984 91.2544 69.035 91.3264 69.137L91.7764 69.722ZM94.3943 71V63.251L93.3863 63.134C93.2603 63.104 93.1553 63.059 93.0713 62.999C92.9933 62.933 92.9543 62.84 92.9543 62.72V62.063H94.3943V61.181C94.3943 60.659 94.4663 60.197 94.6103 59.795C94.7603 59.387 94.9703 59.045 95.2403 58.769C95.5163 58.487 95.8463 58.274 96.2303 58.13C96.6143 57.986 97.0463 57.914 97.5263 57.914C97.9343 57.914 98.3093 57.974 98.6513 58.094L98.6153 58.895C98.6033 59.039 98.5223 59.117 98.3723 59.129C98.2283 59.141 98.0333 59.147 97.7873 59.147C97.5113 59.147 97.2593 59.183 97.0312 59.255C96.8093 59.327 96.6173 59.444 96.4553 59.606C96.2933 59.768 96.1673 59.981 96.0773 60.245C95.9933 60.509 95.9513 60.836 95.9513 61.226V62.063H98.5793V63.224H96.0053V71H94.3943ZM105.914 65.447C105.914 65.075 105.86 64.736 105.752 64.43C105.65 64.118 105.497 63.851 105.293 63.629C105.095 63.401 104.852 63.227 104.564 63.107C104.276 62.981 103.949 62.918 103.583 62.918C102.815 62.918 102.206 63.143 101.756 63.593C101.312 64.037 101.036 64.655 100.928 65.447H105.914ZM107.21 69.722C107.012 69.962 106.775 70.172 106.499 70.352C106.223 70.526 105.926 70.67 105.608 70.784C105.296 70.898 104.972 70.982 104.636 71.036C104.3 71.096 103.967 71.126 103.637 71.126C103.007 71.126 102.425 71.021 101.891 70.811C101.363 70.595 100.904 70.283 100.514 69.875C100.13 69.461 99.83 68.951 99.614 68.345C99.398 67.739 99.29 67.043 99.29 66.257C99.29 65.621 99.386 65.027 99.578 64.475C99.776 63.923 100.058 63.446 100.424 63.044C100.79 62.636 101.237 62.318 101.765 62.09C102.293 61.856 102.887 61.739 103.547 61.739C104.093 61.739 104.597 61.832 105.059 62.018C105.527 62.198 105.929 62.462 106.265 62.81C106.607 63.152 106.874 63.578 107.066 64.088C107.258 64.592 107.354 65.168 107.354 65.816C107.354 66.068 107.327 66.236 107.273 66.32C107.219 66.404 107.117 66.446 106.967 66.446H100.874C100.892 67.022 100.97 67.523 101.108 67.949C101.252 68.375 101.45 68.732 101.702 69.02C101.954 69.302 102.254 69.515 102.602 69.659C102.95 69.797 103.34 69.866 103.772 69.866C104.174 69.866 104.519 69.821 104.807 69.731C105.101 69.635 105.353 69.533 105.563 69.425C105.773 69.317 105.947 69.218 106.085 69.128C106.229 69.032 106.352 68.984 106.454 68.984C106.586 68.984 106.688 69.035 106.76 69.137L107.21 69.722ZM110.843 63.71C111.131 63.086 111.485 62.6 111.905 62.252C112.325 61.898 112.838 61.721 113.444 61.721C113.636 61.721 113.819 61.742 113.993 61.784C114.173 61.826 114.332 61.892 114.47 61.982L114.353 63.179C114.317 63.329 114.227 63.404 114.083 63.404C113.999 63.404 113.876 63.386 113.714 63.35C113.552 63.314 113.369 63.296 113.165 63.296C112.877 63.296 112.619 63.338 112.391 63.422C112.169 63.506 111.968 63.632 111.788 63.8C111.614 63.962 111.455 64.166 111.311 64.412C111.173 64.652 111.047 64.928 110.933 65.24V71H109.322V61.883H110.24C110.414 61.883 110.534 61.916 110.6 61.982C110.666 62.048 110.711 62.162 110.735 62.324L110.843 63.71ZM125.407 63.386C125.335 63.518 125.224 63.584 125.074 63.584C124.984 63.584 124.882 63.551 124.768 63.485C124.654 63.419 124.513 63.347 124.345 63.269C124.183 63.185 123.988 63.11 123.76 63.044C123.532 62.972 123.262 62.936 122.95 62.936C122.68 62.936 122.437 62.972 122.221 63.044C122.005 63.11 121.819 63.203 121.663 63.323C121.513 63.443 121.396 63.584 121.312 63.746C121.234 63.902 121.195 64.073 121.195 64.259C121.195 64.493 121.261 64.688 121.393 64.844C121.531 65 121.711 65.135 121.933 65.249C122.155 65.363 122.407 65.465 122.689 65.555C122.971 65.639 123.259 65.732 123.553 65.834C123.853 65.93 124.144 66.038 124.426 66.158C124.708 66.278 124.96 66.428 125.182 66.608C125.404 66.788 125.581 67.01 125.713 67.274C125.851 67.532 125.92 67.844 125.92 68.21C125.92 68.63 125.845 69.02 125.695 69.38C125.545 69.734 125.323 70.043 125.029 70.307C124.735 70.565 124.375 70.769 123.949 70.919C123.523 71.069 123.031 71.144 122.473 71.144C121.837 71.144 121.261 71.042 120.745 70.838C120.229 70.628 119.791 70.361 119.431 70.037L119.809 69.425C119.857 69.347 119.914 69.287 119.98 69.245C120.046 69.203 120.13 69.182 120.232 69.182C120.34 69.182 120.454 69.224 120.574 69.308C120.694 69.392 120.838 69.485 121.006 69.587C121.18 69.689 121.39 69.782 121.636 69.866C121.882 69.95 122.188 69.992 122.554 69.992C122.866 69.992 123.139 69.953 123.373 69.875C123.607 69.791 123.802 69.68 123.958 69.542C124.114 69.404 124.228 69.245 124.3 69.065C124.378 68.885 124.417 68.693 124.417 68.489C124.417 68.237 124.348 68.03 124.21 67.868C124.078 67.7 123.901 67.559 123.679 67.445C123.457 67.325 123.202 67.223 122.914 67.139C122.632 67.049 122.341 66.956 122.041 66.86C121.747 66.764 121.456 66.656 121.168 66.536C120.886 66.41 120.634 66.254 120.412 66.068C120.19 65.882 120.01 65.654 119.872 65.384C119.74 65.108 119.674 64.775 119.674 64.385C119.674 64.037 119.746 63.704 119.89 63.386C120.034 63.062 120.244 62.78 120.52 62.54C120.796 62.294 121.135 62.099 121.537 61.955C121.939 61.811 122.398 61.739 122.914 61.739C123.514 61.739 124.051 61.835 124.525 62.027C125.005 62.213 125.419 62.471 125.767 62.801L125.407 63.386ZM129.576 61.883V71H127.974V61.883H129.576ZM129.918 59.021C129.918 59.177 129.885 59.324 129.819 59.462C129.759 59.594 129.675 59.714 129.567 59.822C129.465 59.924 129.342 60.005 129.198 60.065C129.06 60.125 128.913 60.155 128.757 60.155C128.601 60.155 128.454 60.125 128.316 60.065C128.184 60.005 128.067 59.924 127.965 59.822C127.863 59.714 127.782 59.594 127.722 59.462C127.662 59.324 127.632 59.177 127.632 59.021C127.632 58.865 127.662 58.718 127.722 58.58C127.782 58.436 127.863 58.313 127.965 58.211C128.067 58.103 128.184 58.019 128.316 57.959C128.454 57.899 128.601 57.869 128.757 57.869C128.913 57.869 129.06 57.899 129.198 57.959C129.342 58.019 129.465 58.103 129.567 58.211C129.675 58.313 129.759 58.436 129.819 58.58C129.885 58.718 129.918 58.865 129.918 59.021ZM132.208 71V61.883H133.171C133.399 61.883 133.54 61.994 133.594 62.216L133.711 63.152C134.047 62.738 134.425 62.399 134.845 62.135C135.265 61.871 135.751 61.739 136.303 61.739C136.915 61.739 137.41 61.91 137.788 62.252C138.172 62.594 138.448 63.056 138.616 63.638C138.748 63.308 138.916 63.023 139.12 62.783C139.33 62.543 139.564 62.345 139.822 62.189C140.08 62.033 140.353 61.919 140.641 61.847C140.935 61.775 141.232 61.739 141.532 61.739C142.012 61.739 142.438 61.817 142.81 61.973C143.188 62.123 143.506 62.345 143.764 62.639C144.028 62.933 144.229 63.296 144.367 63.728C144.505 64.154 144.574 64.643 144.574 65.195V71H142.963V65.195C142.963 64.481 142.807 63.941 142.495 63.575C142.183 63.203 141.733 63.017 141.145 63.017C140.881 63.017 140.629 63.065 140.389 63.161C140.155 63.251 139.948 63.386 139.768 63.566C139.588 63.746 139.444 63.974 139.336 64.25C139.234 64.52 139.183 64.835 139.183 65.195V71H137.572V65.195C137.572 64.463 137.425 63.917 137.131 63.557C136.837 63.197 136.408 63.017 135.844 63.017C135.448 63.017 135.082 63.125 134.746 63.341C134.41 63.551 134.101 63.839 133.819 64.205V71H132.208ZM148.62 68.804C148.914 69.2 149.235 69.479 149.583 69.641C149.931 69.803 150.321 69.884 150.753 69.884C151.605 69.884 152.259 69.581 152.715 68.975C153.171 68.369 153.399 67.505 153.399 66.383C153.399 65.789 153.345 65.279 153.237 64.853C153.135 64.427 152.985 64.079 152.787 63.809C152.589 63.533 152.346 63.332 152.058 63.206C151.77 63.08 151.443 63.017 151.077 63.017C150.555 63.017 150.096 63.137 149.7 63.377C149.31 63.617 148.95 63.956 148.62 64.394V68.804ZM148.539 63.296C148.923 62.822 149.367 62.441 149.871 62.153C150.375 61.865 150.951 61.721 151.599 61.721C152.127 61.721 152.604 61.823 153.03 62.027C153.456 62.225 153.819 62.522 154.119 62.918C154.419 63.308 154.65 63.794 154.812 64.376C154.974 64.958 155.055 65.627 155.055 66.383C155.055 67.055 154.965 67.682 154.785 68.264C154.605 68.84 154.344 69.341 154.002 69.767C153.666 70.187 153.252 70.52 152.76 70.766C152.274 71.006 151.725 71.126 151.113 71.126C150.555 71.126 150.075 71.033 149.673 70.847C149.277 70.655 148.926 70.391 148.62 70.055V74.087H147.009V61.883H147.972C148.2 61.883 148.341 61.994 148.395 62.216L148.539 63.296ZM158.755 57.743V71H157.153V57.743H158.755ZM167.455 65.447C167.455 65.075 167.401 64.736 167.293 64.43C167.191 64.118 167.038 63.851 166.834 63.629C166.636 63.401 166.393 63.227 166.105 63.107C165.817 62.981 165.49 62.918 165.124 62.918C164.356 62.918 163.747 63.143 163.297 63.593C162.853 64.037 162.577 64.655 162.469 65.447H167.455ZM168.751 69.722C168.553 69.962 168.316 70.172 168.04 70.352C167.764 70.526 167.467 70.67 167.149 70.784C166.837 70.898 166.513 70.982 166.177 71.036C165.841 71.096 165.508 71.126 165.178 71.126C164.548 71.126 163.966 71.021 163.432 70.811C162.904 70.595 162.445 70.283 162.055 69.875C161.671 69.461 161.371 68.951 161.155 68.345C160.939 67.739 160.831 67.043 160.831 66.257C160.831 65.621 160.927 65.027 161.119 64.475C161.317 63.923 161.599 63.446 161.965 63.044C162.331 62.636 162.778 62.318 163.306 62.09C163.834 61.856 164.428 61.739 165.088 61.739C165.634 61.739 166.138 61.832 166.6 62.018C167.068 62.198 167.47 62.462 167.806 62.81C168.148 63.152 168.415 63.578 168.607 64.088C168.799 64.592 168.895 65.168 168.895 65.816C168.895 66.068 168.868 66.236 168.814 66.32C168.76 66.404 168.658 66.446 168.508 66.446H162.415C162.433 67.022 162.511 67.523 162.649 67.949C162.793 68.375 162.991 68.732 163.243 69.02C163.495 69.302 163.795 69.515 164.143 69.659C164.491 69.797 164.881 69.866 165.313 69.866C165.715 69.866 166.06 69.821 166.348 69.731C166.642 69.635 166.894 69.533 167.104 69.425C167.314 69.317 167.488 69.218 167.626 69.128C167.77 69.032 167.893 68.984 167.995 68.984C168.127 68.984 168.229 69.035 168.301 69.137L168.751 69.722ZM172.384 63.71C172.672 63.086 173.026 62.6 173.446 62.252C173.866 61.898 174.379 61.721 174.985 61.721C175.177 61.721 175.36 61.742 175.534 61.784C175.714 61.826 175.873 61.892 176.011 61.982L175.894 63.179C175.858 63.329 175.768 63.404 175.624 63.404C175.54 63.404 175.417 63.386 175.255 63.35C175.093 63.314 174.91 63.296 174.706 63.296C174.418 63.296 174.16 63.338 173.932 63.422C173.71 63.506 173.509 63.632 173.329 63.8C173.155 63.962 172.996 64.166 172.852 64.412C172.714 64.652 172.588 64.928 172.474 65.24V71H170.863V61.883H171.781C171.955 61.883 172.075 61.916 172.141 61.982C172.207 62.048 172.252 62.162 172.276 62.324L172.384 63.71ZM183.294 57.743V71H181.692V57.743H183.294ZM190.833 66.896C190.095 66.92 189.465 66.98 188.943 67.076C188.427 67.166 188.004 67.286 187.674 67.436C187.35 67.586 187.113 67.763 186.963 67.967C186.819 68.171 186.747 68.399 186.747 68.651C186.747 68.891 186.786 69.098 186.864 69.272C186.942 69.446 187.047 69.59 187.179 69.704C187.317 69.812 187.476 69.893 187.656 69.947C187.842 69.995 188.04 70.019 188.25 70.019C188.532 70.019 188.79 69.992 189.024 69.938C189.258 69.878 189.477 69.794 189.681 69.686C189.891 69.578 190.089 69.449 190.275 69.299C190.467 69.149 190.653 68.978 190.833 68.786V66.896ZM185.658 63.17C186.162 62.684 186.705 62.321 187.287 62.081C187.869 61.841 188.514 61.721 189.222 61.721C189.732 61.721 190.185 61.805 190.581 61.973C190.977 62.141 191.31 62.375 191.58 62.675C191.85 62.975 192.054 63.338 192.192 63.764C192.33 64.19 192.399 64.658 192.399 65.168V71H191.688C191.532 71 191.412 70.976 191.328 70.928C191.244 70.874 191.178 70.772 191.13 70.622L190.95 69.758C190.71 69.98 190.476 70.178 190.248 70.352C190.02 70.52 189.78 70.664 189.528 70.784C189.276 70.898 189.006 70.985 188.718 71.045C188.436 71.111 188.121 71.144 187.773 71.144C187.419 71.144 187.086 71.096 186.774 71C186.462 70.898 186.189 70.748 185.955 70.55C185.727 70.352 185.544 70.103 185.406 69.803C185.274 69.497 185.208 69.137 185.208 68.723C185.208 68.363 185.307 68.018 185.505 67.688C185.703 67.352 186.024 67.055 186.468 66.797C186.912 66.539 187.491 66.329 188.205 66.167C188.919 65.999 189.795 65.903 190.833 65.879V65.168C190.833 64.46 190.68 63.926 190.374 63.566C190.068 63.2 189.621 63.017 189.033 63.017C188.637 63.017 188.304 63.068 188.034 63.17C187.77 63.266 187.539 63.377 187.341 63.503C187.149 63.623 186.981 63.734 186.837 63.836C186.699 63.932 186.561 63.98 186.423 63.98C186.315 63.98 186.222 63.953 186.144 63.899C186.066 63.839 186 63.767 185.946 63.683L185.658 63.17ZM196.351 63.206C196.549 62.984 196.759 62.783 196.981 62.603C197.203 62.423 197.437 62.27 197.683 62.144C197.935 62.012 198.199 61.913 198.475 61.847C198.757 61.775 199.06 61.739 199.384 61.739C199.882 61.739 200.32 61.823 200.698 61.991C201.082 62.153 201.4 62.387 201.652 62.693C201.91 62.993 202.105 63.356 202.237 63.782C202.369 64.208 202.435 64.679 202.435 65.195V71H200.824V65.195C200.824 64.505 200.665 63.971 200.347 63.593C200.035 63.209 199.558 63.017 198.916 63.017C198.442 63.017 197.998 63.131 197.584 63.359C197.176 63.587 196.798 63.896 196.45 64.286V71H194.839V61.883H195.802C196.03 61.883 196.171 61.994 196.225 62.216L196.351 63.206ZM208.053 66.545C208.377 66.545 208.662 66.5 208.908 66.41C209.154 66.32 209.361 66.194 209.529 66.032C209.697 65.87 209.823 65.678 209.907 65.456C209.991 65.228 210.033 64.979 210.033 64.709C210.033 64.151 209.862 63.707 209.52 63.377C209.184 63.047 208.695 62.882 208.053 62.882C207.405 62.882 206.91 63.047 206.568 63.377C206.232 63.707 206.064 64.151 206.064 64.709C206.064 64.979 206.106 65.228 206.19 65.456C206.28 65.678 206.409 65.87 206.577 66.032C206.745 66.194 206.952 66.32 207.198 66.41C207.444 66.5 207.729 66.545 208.053 66.545ZM210.942 71.495C210.942 71.273 210.879 71.093 210.753 70.955C210.627 70.817 210.456 70.709 210.24 70.631C210.03 70.553 209.784 70.499 209.502 70.469C209.22 70.433 208.92 70.406 208.602 70.388C208.29 70.37 207.972 70.352 207.648 70.334C207.324 70.316 207.012 70.286 206.712 70.244C206.376 70.4 206.1 70.598 205.884 70.838C205.674 71.072 205.569 71.348 205.569 71.666C205.569 71.87 205.62 72.059 205.722 72.233C205.83 72.413 205.992 72.566 206.208 72.692C206.424 72.824 206.694 72.926 207.018 72.998C207.348 73.076 207.735 73.115 208.179 73.115C208.611 73.115 208.998 73.076 209.34 72.998C209.682 72.92 209.97 72.809 210.204 72.665C210.444 72.521 210.627 72.35 210.753 72.152C210.879 71.954 210.942 71.735 210.942 71.495ZM212.571 62.243V62.837C212.571 63.035 212.445 63.161 212.193 63.215L211.158 63.35C211.362 63.746 211.464 64.184 211.464 64.664C211.464 65.108 211.377 65.513 211.203 65.879C211.035 66.239 210.801 66.548 210.501 66.806C210.201 67.064 209.841 67.262 209.421 67.4C209.001 67.538 208.545 67.607 208.053 67.607C207.627 67.607 207.225 67.556 206.847 67.454C206.655 67.574 206.508 67.703 206.406 67.841C206.304 67.973 206.253 68.108 206.253 68.246C206.253 68.462 206.34 68.627 206.514 68.741C206.694 68.849 206.928 68.927 207.216 68.975C207.504 69.023 207.831 69.053 208.197 69.065C208.569 69.077 208.947 69.098 209.331 69.128C209.721 69.152 210.099 69.197 210.465 69.263C210.837 69.329 211.167 69.437 211.455 69.587C211.743 69.737 211.974 69.944 212.148 70.208C212.328 70.472 212.418 70.814 212.418 71.234C212.418 71.624 212.319 72.002 212.121 72.368C211.929 72.734 211.65 73.058 211.284 73.34C210.918 73.628 210.468 73.856 209.934 74.024C209.406 74.198 208.809 74.285 208.143 74.285C207.477 74.285 206.895 74.219 206.397 74.087C205.899 73.955 205.485 73.778 205.155 73.556C204.825 73.334 204.576 73.076 204.408 72.782C204.246 72.494 204.165 72.191 204.165 71.873C204.165 71.423 204.306 71.042 204.588 70.73C204.87 70.418 205.257 70.169 205.749 69.983C205.479 69.863 205.263 69.704 205.101 69.506C204.945 69.302 204.867 69.029 204.867 68.687C204.867 68.555 204.891 68.42 204.939 68.282C204.987 68.138 205.059 67.997 205.155 67.859C205.257 67.715 205.38 67.58 205.524 67.454C205.668 67.328 205.836 67.217 206.028 67.121C205.578 66.869 205.227 66.536 204.975 66.122C204.723 65.702 204.597 65.216 204.597 64.664C204.597 64.22 204.681 63.818 204.849 63.458C205.023 63.092 205.263 62.783 205.569 62.531C205.875 62.273 206.238 62.075 206.658 61.937C207.084 61.799 207.549 61.73 208.053 61.73C208.449 61.73 208.818 61.775 209.16 61.865C209.502 61.949 209.814 62.075 210.096 62.243H212.571ZM221.725 61.883V71H220.771C220.543 71 220.399 70.889 220.339 70.667L220.213 69.686C219.817 70.124 219.373 70.478 218.881 70.748C218.389 71.012 217.825 71.144 217.189 71.144C216.691 71.144 216.25 71.063 215.866 70.901C215.488 70.733 215.17 70.499 214.912 70.199C214.654 69.899 214.459 69.536 214.327 69.11C214.201 68.684 214.138 68.213 214.138 67.697V61.883H215.74V67.697C215.74 68.387 215.896 68.921 216.208 69.299C216.526 69.677 217.009 69.866 217.657 69.866C218.131 69.866 218.572 69.755 218.98 69.533C219.394 69.305 219.775 68.993 220.123 68.597V61.883H221.725ZM229.206 66.896C228.468 66.92 227.838 66.98 227.316 67.076C226.8 67.166 226.377 67.286 226.047 67.436C225.723 67.586 225.486 67.763 225.336 67.967C225.192 68.171 225.12 68.399 225.12 68.651C225.12 68.891 225.159 69.098 225.237 69.272C225.315 69.446 225.42 69.59 225.552 69.704C225.69 69.812 225.849 69.893 226.029 69.947C226.215 69.995 226.413 70.019 226.623 70.019C226.905 70.019 227.163 69.992 227.397 69.938C227.631 69.878 227.85 69.794 228.054 69.686C228.264 69.578 228.462 69.449 228.648 69.299C228.84 69.149 229.026 68.978 229.206 68.786V66.896ZM224.031 63.17C224.535 62.684 225.078 62.321 225.66 62.081C226.242 61.841 226.887 61.721 227.595 61.721C228.105 61.721 228.558 61.805 228.954 61.973C229.35 62.141 229.683 62.375 229.953 62.675C230.223 62.975 230.427 63.338 230.565 63.764C230.703 64.19 230.772 64.658 230.772 65.168V71H230.061C229.905 71 229.785 70.976 229.701 70.928C229.617 70.874 229.551 70.772 229.503 70.622L229.323 69.758C229.083 69.98 228.849 70.178 228.621 70.352C228.393 70.52 228.153 70.664 227.901 70.784C227.649 70.898 227.379 70.985 227.091 71.045C226.809 71.111 226.494 71.144 226.146 71.144C225.792 71.144 225.459 71.096 225.147 71C224.835 70.898 224.562 70.748 224.328 70.55C224.1 70.352 223.917 70.103 223.779 69.803C223.647 69.497 223.581 69.137 223.581 68.723C223.581 68.363 223.68 68.018 223.878 67.688C224.076 67.352 224.397 67.055 224.841 66.797C225.285 66.539 225.864 66.329 226.578 66.167C227.292 65.999 228.168 65.903 229.206 65.879V65.168C229.206 64.46 229.053 63.926 228.747 63.566C228.441 63.2 227.994 63.017 227.406 63.017C227.01 63.017 226.677 63.068 226.407 63.17C226.143 63.266 225.912 63.377 225.714 63.503C225.522 63.623 225.354 63.734 225.21 63.836C225.072 63.932 224.934 63.98 224.796 63.98C224.688 63.98 224.595 63.953 224.517 63.899C224.439 63.839 224.373 63.767 224.319 63.683L224.031 63.17ZM236.389 66.545C236.713 66.545 236.998 66.5 237.244 66.41C237.49 66.32 237.697 66.194 237.865 66.032C238.033 65.87 238.159 65.678 238.243 65.456C238.327 65.228 238.369 64.979 238.369 64.709C238.369 64.151 238.198 63.707 237.856 63.377C237.52 63.047 237.031 62.882 236.389 62.882C235.741 62.882 235.246 63.047 234.904 63.377C234.568 63.707 234.4 64.151 234.4 64.709C234.4 64.979 234.442 65.228 234.526 65.456C234.616 65.678 234.745 65.87 234.913 66.032C235.081 66.194 235.288 66.32 235.534 66.41C235.78 66.5 236.065 66.545 236.389 66.545ZM239.278 71.495C239.278 71.273 239.215 71.093 239.089 70.955C238.963 70.817 238.792 70.709 238.576 70.631C238.366 70.553 238.12 70.499 237.838 70.469C237.556 70.433 237.256 70.406 236.938 70.388C236.626 70.37 236.308 70.352 235.984 70.334C235.66 70.316 235.348 70.286 235.048 70.244C234.712 70.4 234.436 70.598 234.22 70.838C234.01 71.072 233.905 71.348 233.905 71.666C233.905 71.87 233.956 72.059 234.058 72.233C234.166 72.413 234.328 72.566 234.544 72.692C234.76 72.824 235.03 72.926 235.354 72.998C235.684 73.076 236.071 73.115 236.515 73.115C236.947 73.115 237.334 73.076 237.676 72.998C238.018 72.92 238.306 72.809 238.54 72.665C238.78 72.521 238.963 72.35 239.089 72.152C239.215 71.954 239.278 71.735 239.278 71.495ZM240.907 62.243V62.837C240.907 63.035 240.781 63.161 240.529 63.215L239.494 63.35C239.698 63.746 239.8 64.184 239.8 64.664C239.8 65.108 239.713 65.513 239.539 65.879C239.371 66.239 239.137 66.548 238.837 66.806C238.537 67.064 238.177 67.262 237.757 67.4C237.337 67.538 236.881 67.607 236.389 67.607C235.963 67.607 235.561 67.556 235.183 67.454C234.991 67.574 234.844 67.703 234.742 67.841C234.64 67.973 234.589 68.108 234.589 68.246C234.589 68.462 234.676 68.627 234.85 68.741C235.03 68.849 235.264 68.927 235.552 68.975C235.84 69.023 236.167 69.053 236.533 69.065C236.905 69.077 237.283 69.098 237.667 69.128C238.057 69.152 238.435 69.197 238.801 69.263C239.173 69.329 239.503 69.437 239.791 69.587C240.079 69.737 240.31 69.944 240.484 70.208C240.664 70.472 240.754 70.814 240.754 71.234C240.754 71.624 240.655 72.002 240.457 72.368C240.265 72.734 239.986 73.058 239.62 73.34C239.254 73.628 238.804 73.856 238.27 74.024C237.742 74.198 237.145 74.285 236.479 74.285C235.813 74.285 235.231 74.219 234.733 74.087C234.235 73.955 233.821 73.778 233.491 73.556C233.161 73.334 232.912 73.076 232.744 72.782C232.582 72.494 232.501 72.191 232.501 71.873C232.501 71.423 232.642 71.042 232.924 70.73C233.206 70.418 233.593 70.169 234.085 69.983C233.815 69.863 233.599 69.704 233.437 69.506C233.281 69.302 233.203 69.029 233.203 68.687C233.203 68.555 233.227 68.42 233.275 68.282C233.323 68.138 233.395 67.997 233.491 67.859C233.593 67.715 233.716 67.58 233.86 67.454C234.004 67.328 234.172 67.217 234.364 67.121C233.914 66.869 233.563 66.536 233.311 66.122C233.059 65.702 232.933 65.216 232.933 64.664C232.933 64.22 233.017 63.818 233.185 63.458C233.359 63.092 233.599 62.783 233.905 62.531C234.211 62.273 234.574 62.075 234.994 61.937C235.42 61.799 235.885 61.73 236.389 61.73C236.785 61.73 237.154 61.775 237.496 61.865C237.838 61.949 238.15 62.075 238.432 62.243H240.907ZM248.525 65.447C248.525 65.075 248.471 64.736 248.363 64.43C248.261 64.118 248.108 63.851 247.904 63.629C247.706 63.401 247.463 63.227 247.175 63.107C246.887 62.981 246.56 62.918 246.194 62.918C245.426 62.918 244.817 63.143 244.367 63.593C243.923 64.037 243.647 64.655 243.539 65.447H248.525ZM249.821 69.722C249.623 69.962 249.386 70.172 249.11 70.352C248.834 70.526 248.537 70.67 248.219 70.784C247.907 70.898 247.583 70.982 247.247 71.036C246.911 71.096 246.578 71.126 246.248 71.126C245.618 71.126 245.036 71.021 244.502 70.811C243.974 70.595 243.515 70.283 243.125 69.875C242.741 69.461 242.441 68.951 242.225 68.345C242.009 67.739 241.901 67.043 241.901 66.257C241.901 65.621 241.997 65.027 242.189 64.475C242.387 63.923 242.669 63.446 243.035 63.044C243.401 62.636 243.848 62.318 244.376 62.09C244.904 61.856 245.498 61.739 246.158 61.739C246.704 61.739 247.208 61.832 247.67 62.018C248.138 62.198 248.54 62.462 248.876 62.81C249.218 63.152 249.485 63.578 249.677 64.088C249.869 64.592 249.965 65.168 249.965 65.816C249.965 66.068 249.938 66.236 249.884 66.32C249.83 66.404 249.728 66.446 249.578 66.446H243.485C243.503 67.022 243.581 67.523 243.719 67.949C243.863 68.375 244.061 68.732 244.313 69.02C244.565 69.302 244.865 69.515 245.213 69.659C245.561 69.797 245.951 69.866 246.383 69.866C246.785 69.866 247.13 69.821 247.418 69.731C247.712 69.635 247.964 69.533 248.174 69.425C248.384 69.317 248.558 69.218 248.696 69.128C248.84 69.032 248.963 68.984 249.065 68.984C249.197 68.984 249.299 69.035 249.371 69.137L249.821 69.722ZM4.068 105.144C3.348 105.144 2.793 104.943 2.403 104.541C2.019 104.139 1.827 103.56 1.827 102.804V97.224H0.729C0.633 97.224 0.552 97.197 0.486 97.143C0.42 97.083 0.387 96.993 0.387 96.873V96.234L1.881 96.045L2.25 93.228C2.268 93.138 2.307 93.066 2.367 93.012C2.433 92.952 2.517 92.922 2.619 92.922H3.429V96.063H6.066V97.224H3.429V102.696C3.429 103.08 3.522 103.365 3.708 103.551C3.894 103.737 4.134 103.83 4.428 103.83C4.596 103.83 4.74 103.809 4.86 103.767C4.986 103.719 5.094 103.668 5.184 103.614C5.274 103.56 5.349 103.512 5.409 103.47C5.475 103.422 5.532 103.398 5.58 103.398C5.664 103.398 5.739 103.449 5.805 103.551L6.273 104.316C5.997 104.574 5.664 104.778 5.274 104.928C4.884 105.072 4.482 105.144 4.068 105.144ZM11.5104 95.739C12.1764 95.739 12.7764 95.85 13.3104 96.072C13.8444 96.294 14.3004 96.609 14.6784 97.017C15.0564 97.425 15.3444 97.92 15.5424 98.502C15.7464 99.078 15.8484 99.723 15.8484 100.437C15.8484 101.157 15.7464 101.805 15.5424 102.381C15.3444 102.957 15.0564 103.449 14.6784 103.857C14.3004 104.265 13.8444 104.58 13.3104 104.802C12.7764 105.018 12.1764 105.126 11.5104 105.126C10.8384 105.126 10.2324 105.018 9.69244 104.802C9.15844 104.58 8.70244 104.265 8.32444 103.857C7.94644 103.449 7.65544 102.957 7.45144 102.381C7.25344 101.805 7.15444 101.157 7.15444 100.437C7.15444 99.723 7.25344 99.078 7.45144 98.502C7.65544 97.92 7.94644 97.425 8.32444 97.017C8.70244 96.609 9.15844 96.294 9.69244 96.072C10.2324 95.85 10.8384 95.739 11.5104 95.739ZM11.5104 103.875C12.4104 103.875 13.0824 103.575 13.5264 102.975C13.9704 102.369 14.1924 101.526 14.1924 100.446C14.1924 99.36 13.9704 98.514 13.5264 97.908C13.0824 97.302 12.4104 96.999 11.5104 96.999C11.0544 96.999 10.6554 97.077 10.3134 97.233C9.97744 97.389 9.69544 97.614 9.46744 97.908C9.24544 98.202 9.07744 98.565 8.96344 98.997C8.85544 99.423 8.80144 99.906 8.80144 100.446C8.80144 101.526 9.02344 102.369 9.46744 102.975C9.91744 103.575 10.5984 103.875 11.5104 103.875ZM28.4258 98.052C28.1258 97.65 27.8018 97.371 27.4538 97.215C27.1058 97.053 26.7158 96.972 26.2838 96.972C25.4378 96.972 24.7868 97.275 24.3308 97.881C23.8748 98.487 23.6468 99.351 23.6468 100.473C23.6468 101.067 23.6978 101.577 23.7998 102.003C23.9018 102.423 24.0518 102.771 24.2498 103.047C24.4478 103.317 24.6908 103.515 24.9788 103.641C25.2668 103.767 25.5938 103.83 25.9598 103.83C26.4878 103.83 26.9468 103.71 27.3368 103.47C27.7328 103.23 28.0958 102.891 28.4258 102.453V98.052ZM30.0278 91.743V105H29.0738C28.8458 105 28.7018 104.889 28.6418 104.667L28.4978 103.56C28.1078 104.028 27.6638 104.406 27.1658 104.694C26.6678 104.982 26.0918 105.126 25.4378 105.126C24.9158 105.126 24.4418 105.027 24.0158 104.829C23.5898 104.625 23.2268 104.328 22.9268 103.938C22.6268 103.548 22.3958 103.062 22.2338 102.48C22.0718 101.898 21.9908 101.229 21.9908 100.473C21.9908 99.801 22.0808 99.177 22.2608 98.601C22.4408 98.019 22.6988 97.515 23.0348 97.089C23.3708 96.663 23.7818 96.33 24.2678 96.09C24.7598 95.844 25.3118 95.721 25.9238 95.721C26.4818 95.721 26.9588 95.817 27.3548 96.009C27.7568 96.195 28.1138 96.456 28.4258 96.792V91.743H30.0278ZM38.6601 99.447C38.6601 99.075 38.6061 98.736 38.4981 98.43C38.3961 98.118 38.2431 97.851 38.0391 97.629C37.8411 97.401 37.5981 97.227 37.3101 97.107C37.0221 96.981 36.6951 96.918 36.3291 96.918C35.5611 96.918 34.9521 97.143 34.5021 97.593C34.0581 98.037 33.7821 98.655 33.6741 99.447H38.6601ZM39.9561 103.722C39.7581 103.962 39.5211 104.172 39.2451 104.352C38.9691 104.526 38.6721 104.67 38.3541 104.784C38.0421 104.898 37.7181 104.982 37.3821 105.036C37.0461 105.096 36.7131 105.126 36.3831 105.126C35.7531 105.126 35.1711 105.021 34.6371 104.811C34.1091 104.595 33.6501 104.283 33.2601 103.875C32.8761 103.461 32.5761 102.951 32.3601 102.345C32.1441 101.739 32.0361 101.043 32.0361 100.257C32.0361 99.621 32.1321 99.027 32.3241 98.475C32.5221 97.923 32.8041 97.446 33.1701 97.044C33.5361 96.636 33.9831 96.318 34.5111 96.09C35.0391 95.856 35.6331 95.739 36.2931 95.739C36.8391 95.739 37.3431 95.832 37.8051 96.018C38.2731 96.198 38.6751 96.462 39.0111 96.81C39.3531 97.152 39.6201 97.578 39.8121 98.088C40.0041 98.592 40.1001 99.168 40.1001 99.816C40.1001 100.068 40.0731 100.236 40.0191 100.32C39.9651 100.404 39.8631 100.446 39.7131 100.446H33.6201C33.6381 101.022 33.7161 101.523 33.8541 101.949C33.9981 102.375 34.1961 102.732 34.4481 103.02C34.7001 103.302 35.0001 103.515 35.3481 103.659C35.6961 103.797 36.0861 103.866 36.5181 103.866C36.9201 103.866 37.2651 103.821 37.5531 103.731C37.8471 103.635 38.0991 103.533 38.3091 103.425C38.5191 103.317 38.6931 103.218 38.8311 103.128C38.9751 103.032 39.0981 102.984 39.2001 102.984C39.3321 102.984 39.4341 103.035 39.5061 103.137L39.9561 103.722ZM47.3778 97.386C47.3058 97.518 47.1948 97.584 47.0448 97.584C46.9548 97.584 46.8528 97.551 46.7388 97.485C46.6248 97.419 46.4838 97.347 46.3158 97.269C46.1538 97.185 45.9588 97.11 45.7308 97.044C45.5028 96.972 45.2328 96.936 44.9208 96.936C44.6508 96.936 44.4078 96.972 44.1918 97.044C43.9758 97.11 43.7898 97.203 43.6338 97.323C43.4838 97.443 43.3668 97.584 43.2828 97.746C43.2048 97.902 43.1658 98.073 43.1658 98.259C43.1658 98.493 43.2318 98.688 43.3638 98.844C43.5018 99 43.6818 99.135 43.9038 99.249C44.1258 99.363 44.3778 99.465 44.6598 99.555C44.9418 99.639 45.2298 99.732 45.5238 99.834C45.8238 99.93 46.1148 100.038 46.3968 100.158C46.6788 100.278 46.9308 100.428 47.1528 100.608C47.3748 100.788 47.5518 101.01 47.6838 101.274C47.8218 101.532 47.8908 101.844 47.8908 102.21C47.8908 102.63 47.8158 103.02 47.6658 103.38C47.5158 103.734 47.2938 104.043 46.9998 104.307C46.7058 104.565 46.3458 104.769 45.9198 104.919C45.4938 105.069 45.0018 105.144 44.4438 105.144C43.8078 105.144 43.2318 105.042 42.7158 104.838C42.1998 104.628 41.7618 104.361 41.4018 104.037L41.7798 103.425C41.8278 103.347 41.8848 103.287 41.9508 103.245C42.0168 103.203 42.1008 103.182 42.2028 103.182C42.3108 103.182 42.4248 103.224 42.5448 103.308C42.6648 103.392 42.8088 103.485 42.9768 103.587C43.1508 103.689 43.3608 103.782 43.6068 103.866C43.8528 103.95 44.1588 103.992 44.5248 103.992C44.8368 103.992 45.1098 103.953 45.3438 103.875C45.5778 103.791 45.7728 103.68 45.9288 103.542C46.0848 103.404 46.1988 103.245 46.2708 103.065C46.3488 102.885 46.3878 102.693 46.3878 102.489C46.3878 102.237 46.3188 102.03 46.1808 101.868C46.0488 101.7 45.8718 101.559 45.6498 101.445C45.4278 101.325 45.1728 101.223 44.8848 101.139C44.6028 101.049 44.3118 100.956 44.0118 100.86C43.7178 100.764 43.4268 100.656 43.1388 100.536C42.8568 100.41 42.6048 100.254 42.3828 100.068C42.1608 99.882 41.9808 99.654 41.8428 99.384C41.7108 99.108 41.6448 98.775 41.6448 98.385C41.6448 98.037 41.7168 97.704 41.8608 97.386C42.0048 97.062 42.2148 96.78 42.4908 96.54C42.7668 96.294 43.1058 96.099 43.5078 95.955C43.9098 95.811 44.3688 95.739 44.8848 95.739C45.4848 95.739 46.0218 95.835 46.4958 96.027C46.9758 96.213 47.3898 96.471 47.7378 96.801L47.3778 97.386ZM56.1999 97.503C56.1519 97.569 56.1039 97.62 56.0559 97.656C56.0079 97.692 55.9419 97.71 55.8579 97.71C55.7679 97.71 55.6689 97.674 55.5609 97.602C55.4529 97.524 55.3179 97.44 55.1559 97.35C54.9999 97.26 54.8049 97.179 54.5709 97.107C54.3429 97.029 54.0609 96.99 53.7249 96.99C53.2749 96.99 52.8789 97.071 52.5369 97.233C52.1949 97.389 51.9069 97.617 51.6729 97.917C51.4449 98.217 51.2709 98.58 51.1509 99.006C51.0369 99.432 50.9799 99.909 50.9799 100.437C50.9799 100.989 51.0429 101.481 51.1689 101.913C51.2949 102.339 51.4719 102.699 51.6999 102.993C51.9339 103.281 52.2129 103.503 52.5369 103.659C52.8669 103.809 53.2359 103.884 53.6439 103.884C54.0339 103.884 54.3549 103.839 54.6069 103.749C54.8589 103.653 55.0659 103.548 55.2279 103.434C55.3959 103.32 55.5339 103.218 55.6419 103.128C55.7559 103.032 55.8669 102.984 55.9749 102.984C56.1069 102.984 56.2089 103.035 56.2809 103.137L56.7309 103.722C56.5329 103.968 56.3079 104.178 56.0559 104.352C55.8039 104.526 55.5309 104.673 55.2369 104.793C54.9489 104.907 54.6459 104.991 54.3279 105.045C54.0099 105.099 53.6859 105.126 53.3559 105.126C52.7859 105.126 52.2549 105.021 51.7629 104.811C51.2769 104.601 50.8539 104.298 50.4939 103.902C50.1339 103.5 49.8519 103.008 49.6479 102.426C49.4439 101.844 49.3419 101.181 49.3419 100.437C49.3419 99.759 49.4349 99.132 49.6209 98.556C49.8129 97.98 50.0889 97.485 50.4489 97.071C50.8149 96.651 51.2619 96.324 51.7899 96.09C52.3239 95.856 52.9359 95.739 53.6259 95.739C54.2679 95.739 54.8319 95.844 55.3179 96.054C55.8099 96.258 56.2449 96.549 56.6229 96.927L56.1999 97.503ZM59.9716 97.71C60.2596 97.086 60.6136 96.6 61.0336 96.252C61.4536 95.898 61.9666 95.721 62.5726 95.721C62.7646 95.721 62.9476 95.742 63.1216 95.784C63.3016 95.826 63.4606 95.892 63.5986 95.982L63.4816 97.179C63.4456 97.329 63.3556 97.404 63.2116 97.404C63.1276 97.404 63.0046 97.386 62.8426 97.35C62.6806 97.314 62.4976 97.296 62.2936 97.296C62.0056 97.296 61.7476 97.338 61.5196 97.422C61.2976 97.506 61.0966 97.632 60.9166 97.8C60.7426 97.962 60.5836 98.166 60.4396 98.412C60.3016 98.652 60.1756 98.928 60.0616 99.24V105H58.4506V95.883H59.3686C59.5426 95.883 59.6626 95.916 59.7286 95.982C59.7946 96.048 59.8396 96.162 59.8636 96.324L59.9716 97.71ZM66.6993 95.883V105H65.0973V95.883H66.6993ZM67.0413 93.021C67.0413 93.177 67.0083 93.324 66.9423 93.462C66.8823 93.594 66.7983 93.714 66.6903 93.822C66.5883 93.924 66.4653 94.005 66.3213 94.065C66.1833 94.125 66.0363 94.155 65.8803 94.155C65.7243 94.155 65.5773 94.125 65.4393 94.065C65.3073 94.005 65.1903 93.924 65.0883 93.822C64.9863 93.714 64.9053 93.594 64.8453 93.462C64.7853 93.324 64.7553 93.177 64.7553 93.021C64.7553 92.865 64.7853 92.718 64.8453 92.58C64.9053 92.436 64.9863 92.313 65.0883 92.211C65.1903 92.103 65.3073 92.019 65.4393 91.959C65.5773 91.899 65.7243 91.869 65.8803 91.869C66.0363 91.869 66.1833 91.899 66.3213 91.959C66.4653 92.019 66.5883 92.103 66.6903 92.211C66.7983 92.313 66.8823 92.436 66.9423 92.58C67.0083 92.718 67.0413 92.865 67.0413 93.021ZM70.9425 102.804C71.2365 103.2 71.5575 103.479 71.9055 103.641C72.2595 103.803 72.6465 103.884 73.0665 103.884C73.9245 103.884 74.5815 103.581 75.0375 102.975C75.4935 102.369 75.7215 101.466 75.7215 100.266C75.7215 99.15 75.5175 98.331 75.1095 97.809C74.7075 97.281 74.1315 97.017 73.3815 97.017C72.8595 97.017 72.4035 97.137 72.0135 97.377C71.6295 97.617 71.2725 97.956 70.9425 98.394V102.804ZM70.9425 97.197C71.3265 96.753 71.7585 96.399 72.2385 96.135C72.7245 95.871 73.2825 95.739 73.9125 95.739C74.4465 95.739 74.9265 95.841 75.3525 96.045C75.7845 96.249 76.1505 96.546 76.4505 96.936C76.7505 97.32 76.9785 97.788 77.1345 98.34C77.2965 98.892 77.3775 99.513 77.3775 100.203C77.3775 100.941 77.2875 101.613 77.1075 102.219C76.9275 102.825 76.6665 103.344 76.3245 103.776C75.9885 104.202 75.5775 104.535 75.0915 104.775C74.6055 105.009 74.0595 105.126 73.4535 105.126C72.8535 105.126 72.3465 105.015 71.9325 104.793C71.5245 104.565 71.1675 104.244 70.8615 103.83L70.7805 104.658C70.7325 104.886 70.5945 105 70.3665 105H69.3315V91.743H70.9425V97.197ZM85.5058 99.447C85.5058 99.075 85.4518 98.736 85.3438 98.43C85.2418 98.118 85.0888 97.851 84.8848 97.629C84.6868 97.401 84.4438 97.227 84.1558 97.107C83.8678 96.981 83.5408 96.918 83.1748 96.918C82.4068 96.918 81.7978 97.143 81.3478 97.593C80.9038 98.037 80.6278 98.655 80.5198 99.447H85.5058ZM86.8018 103.722C86.6038 103.962 86.3668 104.172 86.0908 104.352C85.8148 104.526 85.5178 104.67 85.1998 104.784C84.8878 104.898 84.5638 104.982 84.2278 105.036C83.8918 105.096 83.5588 105.126 83.2288 105.126C82.5988 105.126 82.0168 105.021 81.4828 104.811C80.9548 104.595 80.4958 104.283 80.1058 103.875C79.7218 103.461 79.4218 102.951 79.2058 102.345C78.9898 101.739 78.8818 101.043 78.8818 100.257C78.8818 99.621 78.9778 99.027 79.1698 98.475C79.3678 97.923 79.6498 97.446 80.0158 97.044C80.3818 96.636 80.8288 96.318 81.3568 96.09C81.8848 95.856 82.4788 95.739 83.1388 95.739C83.6848 95.739 84.1888 95.832 84.6508 96.018C85.1188 96.198 85.5208 96.462 85.8568 96.81C86.1988 97.152 86.4658 97.578 86.6578 98.088C86.8498 98.592 86.9458 99.168 86.9458 99.816C86.9458 100.068 86.9188 100.236 86.8648 100.32C86.8108 100.404 86.7088 100.446 86.5588 100.446H80.4658C80.4838 101.022 80.5618 101.523 80.6998 101.949C80.8438 102.375 81.0418 102.732 81.2938 103.02C81.5458 103.302 81.8458 103.515 82.1938 103.659C82.5418 103.797 82.9318 103.866 83.3638 103.866C83.7658 103.866 84.1108 103.821 84.3988 103.731C84.6928 103.635 84.9448 103.533 85.1548 103.425C85.3648 103.317 85.5388 103.218 85.6768 103.128C85.8208 103.032 85.9438 102.984 86.0458 102.984C86.1778 102.984 86.2798 103.035 86.3518 103.137L86.8018 103.722ZM96.318 105.144C95.598 105.144 95.043 104.943 94.653 104.541C94.269 104.139 94.077 103.56 94.077 102.804V97.224H92.979C92.883 97.224 92.802 97.197 92.736 97.143C92.67 97.083 92.637 96.993 92.637 96.873V96.234L94.131 96.045L94.5 93.228C94.518 93.138 94.557 93.066 94.617 93.012C94.683 92.952 94.767 92.922 94.869 92.922H95.679V96.063H98.316V97.224H95.679V102.696C95.679 103.08 95.772 103.365 95.958 103.551C96.144 103.737 96.384 103.83 96.678 103.83C96.846 103.83 96.99 103.809 97.11 103.767C97.236 103.719 97.344 103.668 97.434 103.614C97.524 103.56 97.599 103.512 97.659 103.47C97.725 103.422 97.782 103.398 97.83 103.398C97.914 103.398 97.989 103.449 98.055 103.551L98.523 104.316C98.247 104.574 97.914 104.778 97.524 104.928C97.134 105.072 96.732 105.144 96.318 105.144ZM101.581 97.098C101.971 96.684 102.403 96.354 102.877 96.108C103.351 95.862 103.897 95.739 104.515 95.739C105.013 95.739 105.451 95.823 105.829 95.991C106.213 96.153 106.531 96.387 106.783 96.693C107.041 96.993 107.236 97.356 107.368 97.782C107.5 98.208 107.566 98.679 107.566 99.195V105H105.955V99.195C105.955 98.505 105.796 97.971 105.478 97.593C105.166 97.209 104.689 97.017 104.047 97.017C103.573 97.017 103.129 97.131 102.715 97.359C102.307 97.587 101.929 97.896 101.581 98.286V105H99.9702V91.743H101.581V97.098ZM116.109 99.447C116.109 99.075 116.055 98.736 115.947 98.43C115.845 98.118 115.692 97.851 115.488 97.629C115.29 97.401 115.047 97.227 114.759 97.107C114.471 96.981 114.144 96.918 113.778 96.918C113.01 96.918 112.401 97.143 111.951 97.593C111.507 98.037 111.231 98.655 111.123 99.447H116.109ZM117.405 103.722C117.207 103.962 116.97 104.172 116.694 104.352C116.418 104.526 116.121 104.67 115.803 104.784C115.491 104.898 115.167 104.982 114.831 105.036C114.495 105.096 114.162 105.126 113.832 105.126C113.202 105.126 112.62 105.021 112.086 104.811C111.558 104.595 111.099 104.283 110.709 103.875C110.325 103.461 110.025 102.951 109.809 102.345C109.593 101.739 109.485 101.043 109.485 100.257C109.485 99.621 109.581 99.027 109.773 98.475C109.971 97.923 110.253 97.446 110.619 97.044C110.985 96.636 111.432 96.318 111.96 96.09C112.488 95.856 113.082 95.739 113.742 95.739C114.288 95.739 114.792 95.832 115.254 96.018C115.722 96.198 116.124 96.462 116.46 96.81C116.802 97.152 117.069 97.578 117.261 98.088C117.453 98.592 117.549 99.168 117.549 99.816C117.549 100.068 117.522 100.236 117.468 100.32C117.414 100.404 117.312 100.446 117.162 100.446H111.069C111.087 101.022 111.165 101.523 111.303 101.949C111.447 102.375 111.645 102.732 111.897 103.02C112.149 103.302 112.449 103.515 112.797 103.659C113.145 103.797 113.535 103.866 113.967 103.866C114.369 103.866 114.714 103.821 115.002 103.731C115.296 103.635 115.548 103.533 115.758 103.425C115.968 103.317 116.142 103.218 116.28 103.128C116.424 103.032 116.547 102.984 116.649 102.984C116.781 102.984 116.883 103.035 116.955 103.137L117.405 103.722ZM129.433 97.386C129.361 97.518 129.25 97.584 129.1 97.584C129.01 97.584 128.908 97.551 128.794 97.485C128.68 97.419 128.539 97.347 128.371 97.269C128.209 97.185 128.014 97.11 127.786 97.044C127.558 96.972 127.288 96.936 126.976 96.936C126.706 96.936 126.463 96.972 126.247 97.044C126.031 97.11 125.845 97.203 125.689 97.323C125.539 97.443 125.422 97.584 125.338 97.746C125.26 97.902 125.221 98.073 125.221 98.259C125.221 98.493 125.287 98.688 125.419 98.844C125.557 99 125.737 99.135 125.959 99.249C126.181 99.363 126.433 99.465 126.715 99.555C126.997 99.639 127.285 99.732 127.579 99.834C127.879 99.93 128.17 100.038 128.452 100.158C128.734 100.278 128.986 100.428 129.208 100.608C129.43 100.788 129.607 101.01 129.739 101.274C129.877 101.532 129.946 101.844 129.946 102.21C129.946 102.63 129.871 103.02 129.721 103.38C129.571 103.734 129.349 104.043 129.055 104.307C128.761 104.565 128.401 104.769 127.975 104.919C127.549 105.069 127.057 105.144 126.499 105.144C125.863 105.144 125.287 105.042 124.771 104.838C124.255 104.628 123.817 104.361 123.457 104.037L123.835 103.425C123.883 103.347 123.94 103.287 124.006 103.245C124.072 103.203 124.156 103.182 124.258 103.182C124.366 103.182 124.48 103.224 124.6 103.308C124.72 103.392 124.864 103.485 125.032 103.587C125.206 103.689 125.416 103.782 125.662 103.866C125.908 103.95 126.214 103.992 126.58 103.992C126.892 103.992 127.165 103.953 127.399 103.875C127.633 103.791 127.828 103.68 127.984 103.542C128.14 103.404 128.254 103.245 128.326 103.065C128.404 102.885 128.443 102.693 128.443 102.489C128.443 102.237 128.374 102.03 128.236 101.868C128.104 101.7 127.927 101.559 127.705 101.445C127.483 101.325 127.228 101.223 126.94 101.139C126.658 101.049 126.367 100.956 126.067 100.86C125.773 100.764 125.482 100.656 125.194 100.536C124.912 100.41 124.66 100.254 124.438 100.068C124.216 99.882 124.036 99.654 123.898 99.384C123.766 99.108 123.7 98.775 123.7 98.385C123.7 98.037 123.772 97.704 123.916 97.386C124.06 97.062 124.27 96.78 124.546 96.54C124.822 96.294 125.161 96.099 125.563 95.955C125.965 95.811 126.424 95.739 126.94 95.739C127.54 95.739 128.077 95.835 128.551 96.027C129.031 96.213 129.445 96.471 129.793 96.801L129.433 97.386ZM138.012 99.447C138.012 99.075 137.958 98.736 137.85 98.43C137.748 98.118 137.595 97.851 137.391 97.629C137.193 97.401 136.95 97.227 136.662 97.107C136.374 96.981 136.047 96.918 135.681 96.918C134.913 96.918 134.304 97.143 133.854 97.593C133.41 98.037 133.134 98.655 133.026 99.447H138.012ZM139.308 103.722C139.11 103.962 138.873 104.172 138.597 104.352C138.321 104.526 138.024 104.67 137.706 104.784C137.394 104.898 137.07 104.982 136.734 105.036C136.398 105.096 136.065 105.126 135.735 105.126C135.105 105.126 134.523 105.021 133.989 104.811C133.461 104.595 133.002 104.283 132.612 103.875C132.228 103.461 131.928 102.951 131.712 102.345C131.496 101.739 131.388 101.043 131.388 100.257C131.388 99.621 131.484 99.027 131.676 98.475C131.874 97.923 132.156 97.446 132.522 97.044C132.888 96.636 133.335 96.318 133.863 96.09C134.391 95.856 134.985 95.739 135.645 95.739C136.191 95.739 136.695 95.832 137.157 96.018C137.625 96.198 138.027 96.462 138.363 96.81C138.705 97.152 138.972 97.578 139.164 98.088C139.356 98.592 139.452 99.168 139.452 99.816C139.452 100.068 139.425 100.236 139.371 100.32C139.317 100.404 139.215 100.446 139.065 100.446H132.972C132.99 101.022 133.068 101.523 133.206 101.949C133.35 102.375 133.548 102.732 133.8 103.02C134.052 103.302 134.352 103.515 134.7 103.659C135.048 103.797 135.438 103.866 135.87 103.866C136.272 103.866 136.617 103.821 136.905 103.731C137.199 103.635 137.451 103.533 137.661 103.425C137.871 103.317 138.045 103.218 138.183 103.128C138.327 103.032 138.45 102.984 138.552 102.984C138.684 102.984 138.786 103.035 138.858 103.137L139.308 103.722ZM142.94 97.71C143.228 97.086 143.582 96.6 144.002 96.252C144.422 95.898 144.935 95.721 145.541 95.721C145.733 95.721 145.916 95.742 146.09 95.784C146.27 95.826 146.429 95.892 146.567 95.982L146.45 97.179C146.414 97.329 146.324 97.404 146.18 97.404C146.096 97.404 145.973 97.386 145.811 97.35C145.649 97.314 145.466 97.296 145.262 97.296C144.974 97.296 144.716 97.338 144.488 97.422C144.266 97.506 144.065 97.632 143.885 97.8C143.711 97.962 143.552 98.166 143.408 98.412C143.27 98.652 143.144 98.928 143.03 99.24V105H141.419V95.883H142.337C142.511 95.883 142.631 95.916 142.697 95.982C142.763 96.048 142.808 96.162 142.832 96.324L142.94 97.71ZM155.788 95.883L152.071 105H150.631L146.914 95.883H148.219C148.351 95.883 148.459 95.916 148.543 95.982C148.627 96.048 148.684 96.126 148.714 96.216L151.027 102.084C151.099 102.306 151.162 102.522 151.216 102.732C151.27 102.942 151.321 103.152 151.369 103.362C151.417 103.152 151.468 102.942 151.522 102.732C151.576 102.522 151.642 102.306 151.72 102.084L154.06 96.216C154.096 96.12 154.156 96.042 154.24 95.982C154.324 95.916 154.423 95.883 154.537 95.883H155.788ZM158.949 95.883V105H157.347V95.883H158.949ZM159.291 93.021C159.291 93.177 159.258 93.324 159.192 93.462C159.132 93.594 159.048 93.714 158.94 93.822C158.838 93.924 158.715 94.005 158.571 94.065C158.433 94.125 158.286 94.155 158.13 94.155C157.974 94.155 157.827 94.125 157.689 94.065C157.557 94.005 157.44 93.924 157.338 93.822C157.236 93.714 157.155 93.594 157.095 93.462C157.035 93.324 157.005 93.177 157.005 93.021C157.005 92.865 157.035 92.718 157.095 92.58C157.155 92.436 157.236 92.313 157.338 92.211C157.44 92.103 157.557 92.019 157.689 91.959C157.827 91.899 157.974 91.869 158.13 91.869C158.286 91.869 158.433 91.899 158.571 91.959C158.715 92.019 158.838 92.103 158.94 92.211C159.048 92.313 159.132 92.436 159.192 92.58C159.258 92.718 159.291 92.865 159.291 93.021ZM167.927 97.503C167.879 97.569 167.831 97.62 167.783 97.656C167.735 97.692 167.669 97.71 167.585 97.71C167.495 97.71 167.396 97.674 167.288 97.602C167.18 97.524 167.045 97.44 166.883 97.35C166.727 97.26 166.532 97.179 166.298 97.107C166.07 97.029 165.788 96.99 165.452 96.99C165.002 96.99 164.606 97.071 164.264 97.233C163.922 97.389 163.634 97.617 163.4 97.917C163.172 98.217 162.998 98.58 162.878 99.006C162.764 99.432 162.707 99.909 162.707 100.437C162.707 100.989 162.77 101.481 162.896 101.913C163.022 102.339 163.199 102.699 163.427 102.993C163.661 103.281 163.94 103.503 164.264 103.659C164.594 103.809 164.963 103.884 165.371 103.884C165.761 103.884 166.082 103.839 166.334 103.749C166.586 103.653 166.793 103.548 166.955 103.434C167.123 103.32 167.261 103.218 167.369 103.128C167.483 103.032 167.594 102.984 167.702 102.984C167.834 102.984 167.936 103.035 168.008 103.137L168.458 103.722C168.26 103.968 168.035 104.178 167.783 104.352C167.531 104.526 167.258 104.673 166.964 104.793C166.676 104.907 166.373 104.991 166.055 105.045C165.737 105.099 165.413 105.126 165.083 105.126C164.513 105.126 163.982 105.021 163.49 104.811C163.004 104.601 162.581 104.298 162.221 103.902C161.861 103.5 161.579 103.008 161.375 102.426C161.171 101.844 161.069 101.181 161.069 100.437C161.069 99.759 161.162 99.132 161.348 98.556C161.54 97.98 161.816 97.485 162.176 97.071C162.542 96.651 162.989 96.324 163.517 96.09C164.051 95.856 164.663 95.739 165.353 95.739C165.995 95.739 166.559 95.844 167.045 96.054C167.537 96.258 167.972 96.549 168.35 96.927L167.927 97.503ZM176.121 99.447C176.121 99.075 176.067 98.736 175.959 98.43C175.857 98.118 175.704 97.851 175.5 97.629C175.302 97.401 175.059 97.227 174.771 97.107C174.483 96.981 174.156 96.918 173.79 96.918C173.022 96.918 172.413 97.143 171.963 97.593C171.519 98.037 171.243 98.655 171.135 99.447H176.121ZM177.417 103.722C177.219 103.962 176.982 104.172 176.706 104.352C176.43 104.526 176.133 104.67 175.815 104.784C175.503 104.898 175.179 104.982 174.843 105.036C174.507 105.096 174.174 105.126 173.844 105.126C173.214 105.126 172.632 105.021 172.098 104.811C171.57 104.595 171.111 104.283 170.721 103.875C170.337 103.461 170.037 102.951 169.821 102.345C169.605 101.739 169.497 101.043 169.497 100.257C169.497 99.621 169.593 99.027 169.785 98.475C169.983 97.923 170.265 97.446 170.631 97.044C170.997 96.636 171.444 96.318 171.972 96.09C172.5 95.856 173.094 95.739 173.754 95.739C174.3 95.739 174.804 95.832 175.266 96.018C175.734 96.198 176.136 96.462 176.472 96.81C176.814 97.152 177.081 97.578 177.273 98.088C177.465 98.592 177.561 99.168 177.561 99.816C177.561 100.068 177.534 100.236 177.48 100.32C177.426 100.404 177.324 100.446 177.174 100.446H171.081C171.099 101.022 171.177 101.523 171.315 101.949C171.459 102.375 171.657 102.732 171.909 103.02C172.161 103.302 172.461 103.515 172.809 103.659C173.157 103.797 173.547 103.866 173.979 103.866C174.381 103.866 174.726 103.821 175.014 103.731C175.308 103.635 175.56 103.533 175.77 103.425C175.98 103.317 176.154 103.218 176.292 103.128C176.436 103.032 176.559 102.984 176.661 102.984C176.793 102.984 176.895 103.035 176.967 103.137L177.417 103.722ZM184.839 97.386C184.767 97.518 184.656 97.584 184.506 97.584C184.416 97.584 184.314 97.551 184.2 97.485C184.086 97.419 183.945 97.347 183.777 97.269C183.615 97.185 183.42 97.11 183.192 97.044C182.964 96.972 182.694 96.936 182.382 96.936C182.112 96.936 181.869 96.972 181.653 97.044C181.437 97.11 181.251 97.203 181.095 97.323C180.945 97.443 180.828 97.584 180.744 97.746C180.666 97.902 180.627 98.073 180.627 98.259C180.627 98.493 180.693 98.688 180.825 98.844C180.963 99 181.143 99.135 181.365 99.249C181.587 99.363 181.839 99.465 182.121 99.555C182.403 99.639 182.691 99.732 182.985 99.834C183.285 99.93 183.576 100.038 183.858 100.158C184.14 100.278 184.392 100.428 184.614 100.608C184.836 100.788 185.013 101.01 185.145 101.274C185.283 101.532 185.352 101.844 185.352 102.21C185.352 102.63 185.277 103.02 185.127 103.38C184.977 103.734 184.755 104.043 184.461 104.307C184.167 104.565 183.807 104.769 183.381 104.919C182.955 105.069 182.463 105.144 181.905 105.144C181.269 105.144 180.693 105.042 180.177 104.838C179.661 104.628 179.223 104.361 178.863 104.037L179.241 103.425C179.289 103.347 179.346 103.287 179.412 103.245C179.478 103.203 179.562 103.182 179.664 103.182C179.772 103.182 179.886 103.224 180.006 103.308C180.126 103.392 180.27 103.485 180.438 103.587C180.612 103.689 180.822 103.782 181.068 103.866C181.314 103.95 181.62 103.992 181.986 103.992C182.298 103.992 182.571 103.953 182.805 103.875C183.039 103.791 183.234 103.68 183.39 103.542C183.546 103.404 183.66 103.245 183.732 103.065C183.81 102.885 183.849 102.693 183.849 102.489C183.849 102.237 183.78 102.03 183.642 101.868C183.51 101.7 183.333 101.559 183.111 101.445C182.889 101.325 182.634 101.223 182.346 101.139C182.064 101.049 181.773 100.956 181.473 100.86C181.179 100.764 180.888 100.656 180.6 100.536C180.318 100.41 180.066 100.254 179.844 100.068C179.622 99.882 179.442 99.654 179.304 99.384C179.172 99.108 179.106 98.775 179.106 98.385C179.106 98.037 179.178 97.704 179.322 97.386C179.466 97.062 179.676 96.78 179.952 96.54C180.228 96.294 180.567 96.099 180.969 95.955C181.371 95.811 181.83 95.739 182.346 95.739C182.946 95.739 183.483 95.835 183.957 96.027C184.437 96.213 184.851 96.471 185.199 96.801L184.839 97.386ZM195.764 95.739C196.43 95.739 197.03 95.85 197.564 96.072C198.098 96.294 198.554 96.609 198.932 97.017C199.31 97.425 199.598 97.92 199.796 98.502C200 99.078 200.102 99.723 200.102 100.437C200.102 101.157 200 101.805 199.796 102.381C199.598 102.957 199.31 103.449 198.932 103.857C198.554 104.265 198.098 104.58 197.564 104.802C197.03 105.018 196.43 105.126 195.764 105.126C195.092 105.126 194.486 105.018 193.946 104.802C193.412 104.58 192.956 104.265 192.578 103.857C192.2 103.449 191.909 102.957 191.705 102.381C191.507 101.805 191.408 101.157 191.408 100.437C191.408 99.723 191.507 99.078 191.705 98.502C191.909 97.92 192.2 97.425 192.578 97.017C192.956 96.609 193.412 96.294 193.946 96.072C194.486 95.85 195.092 95.739 195.764 95.739ZM195.764 103.875C196.664 103.875 197.336 103.575 197.78 102.975C198.224 102.369 198.446 101.526 198.446 100.446C198.446 99.36 198.224 98.514 197.78 97.908C197.336 97.302 196.664 96.999 195.764 96.999C195.308 96.999 194.909 97.077 194.567 97.233C194.231 97.389 193.949 97.614 193.721 97.908C193.499 98.202 193.331 98.565 193.217 98.997C193.109 99.423 193.055 99.906 193.055 100.446C193.055 101.526 193.277 102.369 193.721 102.975C194.171 103.575 194.852 103.875 195.764 103.875ZM202.535 105V97.251L201.527 97.134C201.401 97.104 201.296 97.059 201.212 96.999C201.134 96.933 201.095 96.84 201.095 96.72V96.063H202.535V95.316C202.535 94.794 202.607 94.332 202.751 93.93C202.901 93.522 203.111 93.18 203.381 92.904C203.657 92.622 203.987 92.409 204.371 92.265C204.755 92.121 205.187 92.049 205.667 92.049C206.075 92.049 206.45 92.109 206.792 92.229L206.756 93.039C206.744 93.183 206.663 93.261 206.513 93.273C206.369 93.285 206.174 93.291 205.928 93.291C205.652 93.291 205.4 93.327 205.172 93.399C204.95 93.465 204.758 93.579 204.596 93.741C204.434 93.903 204.308 94.119 204.218 94.389C204.134 94.653 204.092 94.98 204.092 95.37V96.063H208.205V95.082C208.205 94.56 208.277 94.098 208.421 93.696C208.571 93.288 208.781 92.946 209.051 92.67C209.327 92.388 209.657 92.175 210.041 92.031C210.425 91.887 210.857 91.815 211.337 91.815C211.739 91.815 212.114 91.875 212.462 91.995L212.426 92.796C212.414 92.94 212.333 93.018 212.183 93.03C212.039 93.042 211.844 93.048 211.598 93.048C211.322 93.048 211.07 93.084 210.842 93.156C210.62 93.228 210.428 93.345 210.266 93.507C210.104 93.669 209.978 93.882 209.888 94.146C209.804 94.41 209.762 94.737 209.762 95.127V96.063H212.39V97.224H209.816V105H208.205V97.224H204.146V105H202.535ZM219.715 99.447C219.715 99.075 219.661 98.736 219.553 98.43C219.451 98.118 219.298 97.851 219.094 97.629C218.896 97.401 218.653 97.227 218.365 97.107C218.077 96.981 217.75 96.918 217.384 96.918C216.616 96.918 216.007 97.143 215.557 97.593C215.113 98.037 214.837 98.655 214.729 99.447H219.715ZM221.011 103.722C220.813 103.962 220.576 104.172 220.3 104.352C220.024 104.526 219.727 104.67 219.409 104.784C219.097 104.898 218.773 104.982 218.437 105.036C218.101 105.096 217.768 105.126 217.438 105.126C216.808 105.126 216.226 105.021 215.692 104.811C215.164 104.595 214.705 104.283 214.315 103.875C213.931 103.461 213.631 102.951 213.415 102.345C213.199 101.739 213.091 101.043 213.091 100.257C213.091 99.621 213.187 99.027 213.379 98.475C213.577 97.923 213.859 97.446 214.225 97.044C214.591 96.636 215.038 96.318 215.566 96.09C216.094 95.856 216.688 95.739 217.348 95.739C217.894 95.739 218.398 95.832 218.86 96.018C219.328 96.198 219.73 96.462 220.066 96.81C220.408 97.152 220.675 97.578 220.867 98.088C221.059 98.592 221.155 99.168 221.155 99.816C221.155 100.068 221.128 100.236 221.074 100.32C221.02 100.404 220.918 100.446 220.768 100.446H214.675C214.693 101.022 214.771 101.523 214.909 101.949C215.053 102.375 215.251 102.732 215.503 103.02C215.755 103.302 216.055 103.515 216.403 103.659C216.751 103.797 217.141 103.866 217.573 103.866C217.975 103.866 218.32 103.821 218.608 103.731C218.902 103.635 219.154 103.533 219.364 103.425C219.574 103.317 219.748 103.218 219.886 103.128C220.03 103.032 220.153 102.984 220.255 102.984C220.387 102.984 220.489 103.035 220.561 103.137L221.011 103.722ZM224.644 97.71C224.932 97.086 225.286 96.6 225.706 96.252C226.126 95.898 226.639 95.721 227.245 95.721C227.437 95.721 227.62 95.742 227.794 95.784C227.974 95.826 228.133 95.892 228.271 95.982L228.154 97.179C228.118 97.329 228.028 97.404 227.884 97.404C227.8 97.404 227.677 97.386 227.515 97.35C227.353 97.314 227.17 97.296 226.966 97.296C226.678 97.296 226.42 97.338 226.192 97.422C225.97 97.506 225.769 97.632 225.589 97.8C225.415 97.962 225.256 98.166 225.112 98.412C224.974 98.652 224.848 98.928 224.734 99.24V105H223.123V95.883H224.041C224.215 95.883 224.335 95.916 224.401 95.982C224.467 96.048 224.512 96.162 224.536 96.324L224.644 97.71ZM235.412 99.447C235.412 99.075 235.358 98.736 235.25 98.43C235.148 98.118 234.995 97.851 234.791 97.629C234.593 97.401 234.35 97.227 234.062 97.107C233.774 96.981 233.447 96.918 233.081 96.918C232.313 96.918 231.704 97.143 231.254 97.593C230.81 98.037 230.534 98.655 230.426 99.447H235.412ZM236.708 103.722C236.51 103.962 236.273 104.172 235.997 104.352C235.721 104.526 235.424 104.67 235.106 104.784C234.794 104.898 234.47 104.982 234.134 105.036C233.798 105.096 233.465 105.126 233.135 105.126C232.505 105.126 231.923 105.021 231.389 104.811C230.861 104.595 230.402 104.283 230.012 103.875C229.628 103.461 229.328 102.951 229.112 102.345C228.896 101.739 228.788 101.043 228.788 100.257C228.788 99.621 228.884 99.027 229.076 98.475C229.274 97.923 229.556 97.446 229.922 97.044C230.288 96.636 230.735 96.318 231.263 96.09C231.791 95.856 232.385 95.739 233.045 95.739C233.591 95.739 234.095 95.832 234.557 96.018C235.025 96.198 235.427 96.462 235.763 96.81C236.105 97.152 236.372 97.578 236.564 98.088C236.756 98.592 236.852 99.168 236.852 99.816C236.852 100.068 236.825 100.236 236.771 100.32C236.717 100.404 236.615 100.446 236.465 100.446H230.372C230.39 101.022 230.468 101.523 230.606 101.949C230.75 102.375 230.948 102.732 231.2 103.02C231.452 103.302 231.752 103.515 232.1 103.659C232.448 103.797 232.838 103.866 233.27 103.866C233.672 103.866 234.017 103.821 234.305 103.731C234.599 103.635 234.851 103.533 235.061 103.425C235.271 103.317 235.445 103.218 235.583 103.128C235.727 103.032 235.85 102.984 235.952 102.984C236.084 102.984 236.186 103.035 236.258 103.137L236.708 103.722ZM244.76 98.052C244.46 97.65 244.136 97.371 243.788 97.215C243.44 97.053 243.05 96.972 242.618 96.972C241.772 96.972 241.121 97.275 240.665 97.881C240.209 98.487 239.981 99.351 239.981 100.473C239.981 101.067 240.032 101.577 240.134 102.003C240.236 102.423 240.386 102.771 240.584 103.047C240.782 103.317 241.025 103.515 241.313 103.641C241.601 103.767 241.928 103.83 242.294 103.83C242.822 103.83 243.281 103.71 243.671 103.47C244.067 103.23 244.43 102.891 244.76 102.453V98.052ZM246.362 91.743V105H245.408C245.18 105 245.036 104.889 244.976 104.667L244.832 103.56C244.442 104.028 243.998 104.406 243.5 104.694C243.002 104.982 242.426 105.126 241.772 105.126C241.25 105.126 240.776 105.027 240.35 104.829C239.924 104.625 239.561 104.328 239.261 103.938C238.961 103.548 238.73 103.062 238.568 102.48C238.406 101.898 238.325 101.229 238.325 100.473C238.325 99.801 238.415 99.177 238.595 98.601C238.775 98.019 239.033 97.515 239.369 97.089C239.705 96.663 240.116 96.33 240.602 96.09C241.094 95.844 241.646 95.721 242.258 95.721C242.816 95.721 243.293 95.817 243.689 96.009C244.091 96.195 244.448 96.456 244.76 96.792V91.743H246.362Z" fill="#535353"/>
</svg>
