<svg width="213" height="115" viewBox="0 0 213 115" fill="none" xmlns="http://www.w3.org/2000/svg">
<path d="M12.492 15.88C13.98 17.152 15.096 18.16 15.84 18.904C16.608 19.624 17.28 20.488 17.856 21.496C18.432 22.48 18.72 23.548 18.72 24.7C18.72 26.02 18.336 27.196 17.568 28.228C16.824 29.26 15.78 30.064 14.436 30.64C13.092 31.216 11.58 31.504 9.9 31.504C8.388 31.504 6.996 31.276 5.724 30.82C4.452 30.34 3.432 29.632 2.664 28.696C1.92 27.76 1.548 26.644 1.548 25.348C1.548 23.788 2.076 22.432 3.132 21.28C4.188 20.128 5.616 19.156 7.416 18.364C5.928 17.092 4.776 15.892 3.96 14.764C3.144 13.612 2.736 12.316 2.736 10.876C2.736 9.628 3.084 8.56 3.78 7.672C4.476 6.784 5.4 6.124 6.552 5.692C7.704 5.236 8.976 5.008 10.368 5.008C12.432 5.008 14.124 5.476 15.444 6.412C16.764 7.324 17.424 8.536 17.424 10.048C17.424 11.224 17.004 12.28 16.164 13.216C15.348 14.128 14.124 15.016 12.492 15.88ZM10.08 5.656C9.288 5.656 8.652 5.932 8.172 6.484C7.716 7.012 7.488 7.732 7.488 8.644C7.488 9.844 7.86 10.96 8.604 11.992C9.372 13.024 10.476 14.164 11.916 15.412C12.372 14.764 12.708 13.984 12.924 13.072C13.14 12.136 13.248 11.224 13.248 10.336C13.248 8.872 12.96 7.732 12.384 6.916C11.832 6.076 11.064 5.656 10.08 5.656ZM10.08 30.856C11.208 30.856 12.096 30.508 12.744 29.812C13.392 29.092 13.716 28.144 13.716 26.968C13.716 25.888 13.452 24.892 12.924 23.98C12.396 23.068 11.772 22.264 11.052 21.568C10.332 20.872 9.3 19.96 7.956 18.832C6.66 20.2 6.012 22.156 6.012 24.7C6.012 26.524 6.324 28.012 6.948 29.164C7.596 30.292 8.64 30.856 10.08 30.856ZM31.9877 11.884C33.8837 11.884 35.5757 12.28 37.0637 13.072C38.5517 13.864 39.7037 14.98 40.5197 16.42C41.3597 17.86 41.7797 19.516 41.7797 21.388C41.7797 23.308 41.3477 25.036 40.4837 26.572C39.6437 28.108 38.4437 29.32 36.8837 30.208C35.3477 31.072 33.5837 31.504 31.5917 31.504C29.7197 31.504 28.0397 31.108 26.5517 30.316C25.0637 29.524 23.8997 28.408 23.0597 26.968C22.2197 25.528 21.7997 23.86 21.7997 21.964C21.7997 20.068 22.2197 18.352 23.0597 16.816C23.9237 15.28 25.1237 14.08 26.6597 13.216C28.1957 12.328 29.9717 11.884 31.9877 11.884ZM31.6637 12.532C30.7997 12.532 30.0317 12.904 29.3597 13.648C28.6877 14.392 28.1597 15.472 27.7757 16.888C27.4157 18.28 27.2357 19.936 27.2357 21.856C27.2357 24.904 27.6677 27.172 28.5317 28.66C29.4197 30.124 30.5477 30.856 31.9157 30.856C32.7797 30.856 33.5357 30.484 34.1837 29.74C34.8557 28.972 35.3837 27.892 35.7677 26.5C36.1517 25.084 36.3437 23.416 36.3437 21.496C36.3437 18.448 35.8997 16.192 35.0117 14.728C34.1477 13.264 33.0317 12.532 31.6637 12.532ZM67.5388 1.804L46.4788 32.98L45.7948 32.512L66.8548 1.336L67.5388 1.804ZM50.4388 3.604C52.1908 3.604 53.5948 4.132 54.6508 5.188C55.7308 6.22 56.2708 7.648 56.2708 9.472C56.2708 10.672 56.0188 11.728 55.5148 12.64C55.0108 13.552 54.3148 14.26 53.4268 14.764C52.5388 15.268 51.5428 15.52 50.4388 15.52C48.6868 15.52 47.2708 15.004 46.1908 13.972C45.1108 12.916 44.5708 11.476 44.5708 9.652C44.5708 8.476 44.8228 7.432 45.3268 6.52C45.8308 5.584 46.5268 4.864 47.4148 4.36C48.3268 3.856 49.3348 3.604 50.4388 3.604ZM50.3668 4.252C48.8068 4.252 48.0268 6.04 48.0268 9.616C48.0268 11.344 48.2428 12.652 48.6748 13.54C49.1068 14.428 49.7188 14.872 50.5108 14.872C52.0468 14.872 52.8148 13.096 52.8148 9.544C52.8148 7.792 52.5988 6.472 52.1668 5.584C51.7588 4.696 51.1588 4.252 50.3668 4.252ZM62.5348 19.588C64.2868 19.588 65.6908 20.116 66.7468 21.172C67.8268 22.204 68.3668 23.632 68.3668 25.456C68.3668 26.656 68.1148 27.712 67.6108 28.624C67.1068 29.536 66.4108 30.244 65.5228 30.748C64.6348 31.252 63.6388 31.504 62.5348 31.504C60.7828 31.504 59.3668 30.988 58.2868 29.956C57.2068 28.9 56.6668 27.46 56.6668 25.636C56.6668 24.46 56.9188 23.416 57.4228 22.504C57.9268 21.568 58.6228 20.848 59.5108 20.344C60.4228 19.84 61.4308 19.588 62.5348 19.588ZM62.4628 20.236C60.9028 20.236 60.1228 22.024 60.1228 25.6C60.1228 27.328 60.3388 28.636 60.7708 29.524C61.2028 30.412 61.8148 30.856 62.6068 30.856C64.1428 30.856 64.9108 29.08 64.9108 25.528C64.9108 23.776 64.6948 22.456 64.2628 21.568C63.8548 20.68 63.2548 20.236 62.4628 20.236Z" fill="black"/>
<path d="M5.112 61.739C5.778 61.739 6.378 61.85 6.912 62.072C7.446 62.294 7.902 62.609 8.28 63.017C8.658 63.425 8.946 63.92 9.144 64.502C9.348 65.078 9.45 65.723 9.45 66.437C9.45 67.157 9.348 67.805 9.144 68.381C8.946 68.957 8.658 69.449 8.28 69.857C7.902 70.265 7.446 70.58 6.912 70.802C6.378 71.018 5.778 71.126 5.112 71.126C4.44 71.126 3.834 71.018 3.294 70.802C2.76 70.58 2.304 70.265 1.926 69.857C1.548 69.449 1.257 68.957 1.053 68.381C0.855 67.805 0.756 67.157 0.756 66.437C0.756 65.723 0.855 65.078 1.053 64.502C1.257 63.92 1.548 63.425 1.926 63.017C2.304 62.609 2.76 62.294 3.294 62.072C3.834 61.85 4.44 61.739 5.112 61.739ZM5.112 69.875C6.012 69.875 6.684 69.575 7.128 68.975C7.572 68.369 7.794 67.526 7.794 66.446C7.794 65.36 7.572 64.514 7.128 63.908C6.684 63.302 6.012 62.999 5.112 62.999C4.656 62.999 4.257 63.077 3.915 63.233C3.579 63.389 3.297 63.614 3.069 63.908C2.847 64.202 2.679 64.565 2.565 64.997C2.457 65.423 2.403 65.906 2.403 66.446C2.403 67.526 2.625 68.369 3.069 68.975C3.519 69.575 4.2 69.875 5.112 69.875ZM11.8825 71V63.251L10.8745 63.134C10.7485 63.104 10.6435 63.059 10.5595 62.999C10.4815 62.933 10.4425 62.84 10.4425 62.72V62.063H11.8825V61.181C11.8825 60.659 11.9545 60.197 12.0985 59.795C12.2485 59.387 12.4585 59.045 12.7285 58.769C13.0045 58.487 13.3345 58.274 13.7185 58.13C14.1025 57.986 14.5345 57.914 15.0145 57.914C15.4225 57.914 15.7975 57.974 16.1395 58.094L16.1035 58.895C16.0915 59.039 16.0105 59.117 15.8605 59.129C15.7165 59.141 15.5215 59.147 15.2755 59.147C14.9995 59.147 14.7475 59.183 14.5195 59.255C14.2975 59.327 14.1055 59.444 13.9435 59.606C13.7815 59.768 13.6555 59.981 13.5655 60.245C13.4815 60.509 13.4395 60.836 13.4395 61.226V62.063H16.0675V63.224H13.4935V71H11.8825ZM29.3676 61.883V71H28.4136C28.1856 71 28.0416 70.889 27.9816 70.667L27.8556 69.686C27.4596 70.124 27.0156 70.478 26.5236 70.748C26.0316 71.012 25.4676 71.144 24.8316 71.144C24.3336 71.144 23.8926 71.063 23.5086 70.901C23.1306 70.733 22.8126 70.499 22.5546 70.199C22.2966 69.899 22.1016 69.536 21.9696 69.11C21.8436 68.684 21.7806 68.213 21.7806 67.697V61.883H23.3826V67.697C23.3826 68.387 23.5386 68.921 23.8506 69.299C24.1686 69.677 24.6516 69.866 25.2996 69.866C25.7736 69.866 26.2146 69.755 26.6226 69.533C27.0366 69.305 27.4176 68.993 27.7656 68.597V61.883H29.3676ZM37.2177 63.386C37.1457 63.518 37.0347 63.584 36.8847 63.584C36.7947 63.584 36.6927 63.551 36.5787 63.485C36.4647 63.419 36.3237 63.347 36.1557 63.269C35.9937 63.185 35.7987 63.11 35.5707 63.044C35.3427 62.972 35.0727 62.936 34.7607 62.936C34.4907 62.936 34.2477 62.972 34.0317 63.044C33.8157 63.11 33.6297 63.203 33.4737 63.323C33.3237 63.443 33.2067 63.584 33.1227 63.746C33.0447 63.902 33.0057 64.073 33.0057 64.259C33.0057 64.493 33.0717 64.688 33.2037 64.844C33.3417 65 33.5217 65.135 33.7437 65.249C33.9657 65.363 34.2177 65.465 34.4997 65.555C34.7817 65.639 35.0697 65.732 35.3637 65.834C35.6637 65.93 35.9547 66.038 36.2367 66.158C36.5187 66.278 36.7707 66.428 36.9927 66.608C37.2147 66.788 37.3917 67.01 37.5237 67.274C37.6617 67.532 37.7307 67.844 37.7307 68.21C37.7307 68.63 37.6557 69.02 37.5057 69.38C37.3557 69.734 37.1337 70.043 36.8397 70.307C36.5457 70.565 36.1857 70.769 35.7597 70.919C35.3337 71.069 34.8417 71.144 34.2837 71.144C33.6477 71.144 33.0717 71.042 32.5557 70.838C32.0397 70.628 31.6017 70.361 31.2417 70.037L31.6197 69.425C31.6677 69.347 31.7247 69.287 31.7907 69.245C31.8567 69.203 31.9407 69.182 32.0427 69.182C32.1507 69.182 32.2647 69.224 32.3847 69.308C32.5047 69.392 32.6487 69.485 32.8167 69.587C32.9907 69.689 33.2007 69.782 33.4467 69.866C33.6927 69.95 33.9987 69.992 34.3647 69.992C34.6767 69.992 34.9497 69.953 35.1837 69.875C35.4177 69.791 35.6127 69.68 35.7687 69.542C35.9247 69.404 36.0387 69.245 36.1107 69.065C36.1887 68.885 36.2277 68.693 36.2277 68.489C36.2277 68.237 36.1587 68.03 36.0207 67.868C35.8887 67.7 35.7117 67.559 35.4897 67.445C35.2677 67.325 35.0127 67.223 34.7247 67.139C34.4427 67.049 34.1517 66.956 33.8517 66.86C33.5577 66.764 33.2667 66.656 32.9787 66.536C32.6967 66.41 32.4447 66.254 32.2227 66.068C32.0007 65.882 31.8207 65.654 31.6827 65.384C31.5507 65.108 31.4847 64.775 31.4847 64.385C31.4847 64.037 31.5567 63.704 31.7007 63.386C31.8447 63.062 32.0547 62.78 32.3307 62.54C32.6067 62.294 32.9457 62.099 33.3477 61.955C33.7497 61.811 34.2087 61.739 34.7247 61.739C35.3247 61.739 35.8617 61.835 36.3357 62.027C36.8157 62.213 37.2297 62.471 37.5777 62.801L37.2177 63.386ZM45.7968 65.447C45.7968 65.075 45.7428 64.736 45.6348 64.43C45.5328 64.118 45.3798 63.851 45.1758 63.629C44.9778 63.401 44.7348 63.227 44.4468 63.107C44.1588 62.981 43.8318 62.918 43.4658 62.918C42.6978 62.918 42.0888 63.143 41.6388 63.593C41.1948 64.037 40.9188 64.655 40.8108 65.447H45.7968ZM47.0928 69.722C46.8948 69.962 46.6578 70.172 46.3818 70.352C46.1058 70.526 45.8088 70.67 45.4908 70.784C45.1788 70.898 44.8548 70.982 44.5188 71.036C44.1828 71.096 43.8498 71.126 43.5198 71.126C42.8898 71.126 42.3078 71.021 41.7738 70.811C41.2458 70.595 40.7868 70.283 40.3968 69.875C40.0128 69.461 39.7128 68.951 39.4968 68.345C39.2808 67.739 39.1728 67.043 39.1728 66.257C39.1728 65.621 39.2688 65.027 39.4608 64.475C39.6588 63.923 39.9408 63.446 40.3068 63.044C40.6728 62.636 41.1198 62.318 41.6478 62.09C42.1758 61.856 42.7698 61.739 43.4298 61.739C43.9758 61.739 44.4798 61.832 44.9418 62.018C45.4098 62.198 45.8118 62.462 46.1478 62.81C46.4898 63.152 46.7568 63.578 46.9488 64.088C47.1408 64.592 47.2368 65.168 47.2368 65.816C47.2368 66.068 47.2098 66.236 47.1558 66.32C47.1018 66.404 46.9998 66.446 46.8498 66.446H40.7568C40.7748 67.022 40.8528 67.523 40.9908 67.949C41.1348 68.375 41.3328 68.732 41.5848 69.02C41.8368 69.302 42.1368 69.515 42.4848 69.659C42.8328 69.797 43.2228 69.866 43.6548 69.866C44.0568 69.866 44.4018 69.821 44.6898 69.731C44.9838 69.635 45.2358 69.533 45.4458 69.425C45.6558 69.317 45.8298 69.218 45.9678 69.128C46.1118 69.032 46.2348 68.984 46.3368 68.984C46.4688 68.984 46.5708 69.035 46.6428 69.137L47.0928 69.722ZM50.7255 63.71C51.0135 63.086 51.3675 62.6 51.7875 62.252C52.2075 61.898 52.7205 61.721 53.3265 61.721C53.5185 61.721 53.7015 61.742 53.8755 61.784C54.0555 61.826 54.2145 61.892 54.3525 61.982L54.2355 63.179C54.1995 63.329 54.1095 63.404 53.9655 63.404C53.8815 63.404 53.7585 63.386 53.5965 63.35C53.4345 63.314 53.2515 63.296 53.0475 63.296C52.7595 63.296 52.5015 63.338 52.2735 63.422C52.0515 63.506 51.8505 63.632 51.6705 63.8C51.4965 63.962 51.3375 64.166 51.1935 64.412C51.0555 64.652 50.9295 64.928 50.8155 65.24V71H49.2045V61.883H50.1225C50.2965 61.883 50.4165 61.916 50.4825 61.982C50.5485 62.048 50.5935 62.162 50.6175 62.324L50.7255 63.71ZM61.0185 63.386C60.9465 63.518 60.8355 63.584 60.6855 63.584C60.5955 63.584 60.4935 63.551 60.3795 63.485C60.2655 63.419 60.1245 63.347 59.9565 63.269C59.7945 63.185 59.5995 63.11 59.3715 63.044C59.1435 62.972 58.8735 62.936 58.5615 62.936C58.2915 62.936 58.0485 62.972 57.8325 63.044C57.6165 63.11 57.4305 63.203 57.2745 63.323C57.1245 63.443 57.0075 63.584 56.9235 63.746C56.8455 63.902 56.8065 64.073 56.8065 64.259C56.8065 64.493 56.8725 64.688 57.0045 64.844C57.1425 65 57.3225 65.135 57.5445 65.249C57.7665 65.363 58.0185 65.465 58.3005 65.555C58.5825 65.639 58.8705 65.732 59.1645 65.834C59.4645 65.93 59.7555 66.038 60.0375 66.158C60.3195 66.278 60.5715 66.428 60.7935 66.608C61.0155 66.788 61.1925 67.01 61.3245 67.274C61.4625 67.532 61.5315 67.844 61.5315 68.21C61.5315 68.63 61.4565 69.02 61.3065 69.38C61.1565 69.734 60.9345 70.043 60.6405 70.307C60.3465 70.565 59.9865 70.769 59.5605 70.919C59.1345 71.069 58.6425 71.144 58.0845 71.144C57.4485 71.144 56.8725 71.042 56.3565 70.838C55.8405 70.628 55.4025 70.361 55.0425 70.037L55.4205 69.425C55.4685 69.347 55.5255 69.287 55.5915 69.245C55.6575 69.203 55.7415 69.182 55.8435 69.182C55.9515 69.182 56.0655 69.224 56.1855 69.308C56.3055 69.392 56.4495 69.485 56.6175 69.587C56.7915 69.689 57.0015 69.782 57.2475 69.866C57.4935 69.95 57.7995 69.992 58.1655 69.992C58.4775 69.992 58.7505 69.953 58.9845 69.875C59.2185 69.791 59.4135 69.68 59.5695 69.542C59.7255 69.404 59.8395 69.245 59.9115 69.065C59.9895 68.885 60.0285 68.693 60.0285 68.489C60.0285 68.237 59.9595 68.03 59.8215 67.868C59.6895 67.7 59.5125 67.559 59.2905 67.445C59.0685 67.325 58.8135 67.223 58.5255 67.139C58.2435 67.049 57.9525 66.956 57.6525 66.86C57.3585 66.764 57.0675 66.656 56.7795 66.536C56.4975 66.41 56.2455 66.254 56.0235 66.068C55.8015 65.882 55.6215 65.654 55.4835 65.384C55.3515 65.108 55.2855 64.775 55.2855 64.385C55.2855 64.037 55.3575 63.704 55.5015 63.386C55.6455 63.062 55.8555 62.78 56.1315 62.54C56.4075 62.294 56.7465 62.099 57.1485 61.955C57.5505 61.811 58.0095 61.739 58.5255 61.739C59.1255 61.739 59.6625 61.835 60.1365 62.027C60.6165 62.213 61.0305 62.471 61.3785 62.801L61.0185 63.386ZM69.757 57.743V71H68.155V57.743H69.757ZM76.1979 61.739C76.8639 61.739 77.4639 61.85 77.9979 62.072C78.5319 62.294 78.9879 62.609 79.3659 63.017C79.7439 63.425 80.0319 63.92 80.2299 64.502C80.4339 65.078 80.5359 65.723 80.5359 66.437C80.5359 67.157 80.4339 67.805 80.2299 68.381C80.0319 68.957 79.7439 69.449 79.3659 69.857C78.9879 70.265 78.5319 70.58 77.9979 70.802C77.4639 71.018 76.8639 71.126 76.1979 71.126C75.5259 71.126 74.9199 71.018 74.3799 70.802C73.8459 70.58 73.3899 70.265 73.0119 69.857C72.6339 69.449 72.3429 68.957 72.1389 68.381C71.9409 67.805 71.8419 67.157 71.8419 66.437C71.8419 65.723 71.9409 65.078 72.1389 64.502C72.3429 63.92 72.6339 63.425 73.0119 63.017C73.3899 62.609 73.8459 62.294 74.3799 62.072C74.9199 61.85 75.5259 61.739 76.1979 61.739ZM76.1979 69.875C77.0979 69.875 77.7699 69.575 78.2139 68.975C78.6579 68.369 78.8799 67.526 78.8799 66.446C78.8799 65.36 78.6579 64.514 78.2139 63.908C77.7699 63.302 77.0979 62.999 76.1979 62.999C75.7419 62.999 75.3429 63.077 75.0009 63.233C74.6649 63.389 74.3829 63.614 74.1549 63.908C73.9329 64.202 73.7649 64.565 73.6509 64.997C73.5429 65.423 73.4889 65.906 73.4889 66.446C73.4889 67.526 73.7109 68.369 74.1549 68.975C74.6049 69.575 75.2859 69.875 76.1979 69.875ZM86.4108 61.739C87.0768 61.739 87.6768 61.85 88.2108 62.072C88.7448 62.294 89.2008 62.609 89.5788 63.017C89.9568 63.425 90.2448 63.92 90.4428 64.502C90.6468 65.078 90.7488 65.723 90.7488 66.437C90.7488 67.157 90.6468 67.805 90.4428 68.381C90.2448 68.957 89.9568 69.449 89.5788 69.857C89.2008 70.265 88.7448 70.58 88.2108 70.802C87.6768 71.018 87.0768 71.126 86.4108 71.126C85.7388 71.126 85.1328 71.018 84.5928 70.802C84.0588 70.58 83.6028 70.265 83.2248 69.857C82.8468 69.449 82.5558 68.957 82.3518 68.381C82.1538 67.805 82.0548 67.157 82.0548 66.437C82.0548 65.723 82.1538 65.078 82.3518 64.502C82.5558 63.92 82.8468 63.425 83.2248 63.017C83.6028 62.609 84.0588 62.294 84.5928 62.072C85.1328 61.85 85.7388 61.739 86.4108 61.739ZM86.4108 69.875C87.3108 69.875 87.9828 69.575 88.4268 68.975C88.8708 68.369 89.0928 67.526 89.0928 66.446C89.0928 65.36 88.8708 64.514 88.4268 63.908C87.9828 63.302 87.3108 62.999 86.4108 62.999C85.9548 62.999 85.5558 63.077 85.2138 63.233C84.8778 63.389 84.5958 63.614 84.3678 63.908C84.1458 64.202 83.9778 64.565 83.8638 64.997C83.7558 65.423 83.7018 65.906 83.7018 66.446C83.7018 67.526 83.9238 68.369 84.3678 68.975C84.8178 69.575 85.4988 69.875 86.4108 69.875ZM94.3917 57.743V65.546H94.8057C94.9257 65.546 95.0247 65.531 95.1027 65.501C95.1867 65.465 95.2737 65.396 95.3637 65.294L98.2437 62.207C98.3277 62.105 98.4147 62.027 98.5047 61.973C98.6007 61.913 98.7267 61.883 98.8827 61.883H100.332L96.9747 65.456C96.8127 65.66 96.6387 65.819 96.4527 65.933C96.5607 66.005 96.6567 66.089 96.7407 66.185C96.8307 66.275 96.9147 66.38 96.9927 66.5L100.557 71H99.1257C98.9877 71 98.8677 70.979 98.7657 70.937C98.6697 70.889 98.5857 70.805 98.5137 70.685L95.5167 66.95C95.4267 66.824 95.3367 66.743 95.2467 66.707C95.1627 66.665 95.0307 66.644 94.8507 66.644H94.3917V71H92.7807V57.743H94.3917ZM107.121 71V63.251L106.113 63.134C105.987 63.104 105.882 63.059 105.798 62.999C105.72 62.933 105.681 62.84 105.681 62.72V62.063H107.121V61.181C107.121 60.659 107.193 60.197 107.337 59.795C107.487 59.387 107.697 59.045 107.967 58.769C108.243 58.487 108.573 58.274 108.957 58.13C109.341 57.986 109.773 57.914 110.253 57.914C110.661 57.914 111.036 57.974 111.378 58.094L111.342 58.895C111.33 59.039 111.249 59.117 111.099 59.129C110.955 59.141 110.76 59.147 110.514 59.147C110.238 59.147 109.986 59.183 109.758 59.255C109.536 59.327 109.344 59.444 109.182 59.606C109.02 59.768 108.894 59.981 108.804 60.245C108.72 60.509 108.678 60.836 108.678 61.226V62.063H111.306V63.224H108.732V71H107.121ZM116.382 61.739C117.048 61.739 117.648 61.85 118.182 62.072C118.716 62.294 119.172 62.609 119.55 63.017C119.928 63.425 120.216 63.92 120.414 64.502C120.618 65.078 120.72 65.723 120.72 66.437C120.72 67.157 120.618 67.805 120.414 68.381C120.216 68.957 119.928 69.449 119.55 69.857C119.172 70.265 118.716 70.58 118.182 70.802C117.648 71.018 117.048 71.126 116.382 71.126C115.71 71.126 115.104 71.018 114.564 70.802C114.03 70.58 113.574 70.265 113.196 69.857C112.818 69.449 112.527 68.957 112.323 68.381C112.125 67.805 112.026 67.157 112.026 66.437C112.026 65.723 112.125 65.078 112.323 64.502C112.527 63.92 112.818 63.425 113.196 63.017C113.574 62.609 114.03 62.294 114.564 62.072C115.104 61.85 115.71 61.739 116.382 61.739ZM116.382 69.875C117.282 69.875 117.954 69.575 118.398 68.975C118.842 68.369 119.064 67.526 119.064 66.446C119.064 65.36 118.842 64.514 118.398 63.908C117.954 63.302 117.282 62.999 116.382 62.999C115.926 62.999 115.527 63.077 115.185 63.233C114.849 63.389 114.567 63.614 114.339 63.908C114.117 64.202 113.949 64.565 113.835 64.997C113.727 65.423 113.673 65.906 113.673 66.446C113.673 67.526 113.895 68.369 114.339 68.975C114.789 69.575 115.47 69.875 116.382 69.875ZM124.272 63.71C124.56 63.086 124.914 62.6 125.334 62.252C125.754 61.898 126.267 61.721 126.873 61.721C127.065 61.721 127.248 61.742 127.422 61.784C127.602 61.826 127.761 61.892 127.899 61.982L127.782 63.179C127.746 63.329 127.656 63.404 127.512 63.404C127.428 63.404 127.305 63.386 127.143 63.35C126.981 63.314 126.798 63.296 126.594 63.296C126.306 63.296 126.048 63.338 125.82 63.422C125.598 63.506 125.397 63.632 125.217 63.8C125.043 63.962 124.884 64.166 124.74 64.412C124.602 64.652 124.476 64.928 124.362 65.24V71H122.751V61.883H123.669C123.843 61.883 123.963 61.916 124.029 61.982C124.095 62.048 124.14 62.162 124.164 62.324L124.272 63.71ZM134.121 71V63.251L133.113 63.134C132.987 63.104 132.882 63.059 132.798 62.999C132.72 62.933 132.681 62.84 132.681 62.72V62.063H134.121V61.181C134.121 60.659 134.193 60.197 134.337 59.795C134.487 59.387 134.697 59.045 134.967 58.769C135.243 58.487 135.573 58.274 135.957 58.13C136.341 57.986 136.773 57.914 137.253 57.914C137.661 57.914 138.036 57.974 138.378 58.094L138.342 58.895C138.33 59.039 138.249 59.117 138.099 59.129C137.955 59.141 137.76 59.147 137.514 59.147C137.238 59.147 136.986 59.183 136.758 59.255C136.536 59.327 136.344 59.444 136.182 59.606C136.02 59.768 135.894 59.981 135.804 60.245C135.72 60.509 135.678 60.836 135.678 61.226V62.063H138.306V63.224H135.732V71H134.121ZM144.726 66.896C143.988 66.92 143.358 66.98 142.836 67.076C142.32 67.166 141.897 67.286 141.567 67.436C141.243 67.586 141.006 67.763 140.856 67.967C140.712 68.171 140.64 68.399 140.64 68.651C140.64 68.891 140.679 69.098 140.757 69.272C140.835 69.446 140.94 69.59 141.072 69.704C141.21 69.812 141.369 69.893 141.549 69.947C141.735 69.995 141.933 70.019 142.143 70.019C142.425 70.019 142.683 69.992 142.917 69.938C143.151 69.878 143.37 69.794 143.574 69.686C143.784 69.578 143.982 69.449 144.168 69.299C144.36 69.149 144.546 68.978 144.726 68.786V66.896ZM139.551 63.17C140.055 62.684 140.598 62.321 141.18 62.081C141.762 61.841 142.407 61.721 143.115 61.721C143.625 61.721 144.078 61.805 144.474 61.973C144.87 62.141 145.203 62.375 145.473 62.675C145.743 62.975 145.947 63.338 146.085 63.764C146.223 64.19 146.292 64.658 146.292 65.168V71H145.581C145.425 71 145.305 70.976 145.221 70.928C145.137 70.874 145.071 70.772 145.023 70.622L144.843 69.758C144.603 69.98 144.369 70.178 144.141 70.352C143.913 70.52 143.673 70.664 143.421 70.784C143.169 70.898 142.899 70.985 142.611 71.045C142.329 71.111 142.014 71.144 141.666 71.144C141.312 71.144 140.979 71.096 140.667 71C140.355 70.898 140.082 70.748 139.848 70.55C139.62 70.352 139.437 70.103 139.299 69.803C139.167 69.497 139.101 69.137 139.101 68.723C139.101 68.363 139.2 68.018 139.398 67.688C139.596 67.352 139.917 67.055 140.361 66.797C140.805 66.539 141.384 66.329 142.098 66.167C142.812 65.999 143.688 65.903 144.726 65.879V65.168C144.726 64.46 144.573 63.926 144.267 63.566C143.961 63.2 143.514 63.017 142.926 63.017C142.53 63.017 142.197 63.068 141.927 63.17C141.663 63.266 141.432 63.377 141.234 63.503C141.042 63.623 140.874 63.734 140.73 63.836C140.592 63.932 140.454 63.98 140.316 63.98C140.208 63.98 140.115 63.953 140.037 63.899C139.959 63.839 139.893 63.767 139.839 63.683L139.551 63.17ZM148.732 71V61.883H149.695C149.923 61.883 150.064 61.994 150.118 62.216L150.235 63.152C150.571 62.738 150.949 62.399 151.369 62.135C151.789 61.871 152.275 61.739 152.827 61.739C153.439 61.739 153.934 61.91 154.312 62.252C154.696 62.594 154.972 63.056 155.14 63.638C155.272 63.308 155.44 63.023 155.644 62.783C155.854 62.543 156.088 62.345 156.346 62.189C156.604 62.033 156.877 61.919 157.165 61.847C157.459 61.775 157.756 61.739 158.056 61.739C158.536 61.739 158.962 61.817 159.334 61.973C159.712 62.123 160.03 62.345 160.288 62.639C160.552 62.933 160.753 63.296 160.891 63.728C161.029 64.154 161.098 64.643 161.098 65.195V71H159.487V65.195C159.487 64.481 159.331 63.941 159.019 63.575C158.707 63.203 158.257 63.017 157.669 63.017C157.405 63.017 157.153 63.065 156.913 63.161C156.679 63.251 156.472 63.386 156.292 63.566C156.112 63.746 155.968 63.974 155.86 64.25C155.758 64.52 155.707 64.835 155.707 65.195V71H154.096V65.195C154.096 64.463 153.949 63.917 153.655 63.557C153.361 63.197 152.932 63.017 152.368 63.017C151.972 63.017 151.606 63.125 151.27 63.341C150.934 63.551 150.625 63.839 150.343 64.205V71H148.732ZM165.225 61.883V71H163.623V61.883H165.225ZM165.567 59.021C165.567 59.177 165.534 59.324 165.468 59.462C165.408 59.594 165.324 59.714 165.216 59.822C165.114 59.924 164.991 60.005 164.847 60.065C164.709 60.125 164.562 60.155 164.406 60.155C164.25 60.155 164.103 60.125 163.965 60.065C163.833 60.005 163.716 59.924 163.614 59.822C163.512 59.714 163.431 59.594 163.371 59.462C163.311 59.324 163.281 59.177 163.281 59.021C163.281 58.865 163.311 58.718 163.371 58.58C163.431 58.436 163.512 58.313 163.614 58.211C163.716 58.103 163.833 58.019 163.965 57.959C164.103 57.899 164.25 57.869 164.406 57.869C164.562 57.869 164.709 57.899 164.847 57.959C164.991 58.019 165.114 58.103 165.216 58.211C165.324 58.313 165.408 58.436 165.468 58.58C165.534 58.718 165.567 58.865 165.567 59.021ZM169.513 57.743V71H167.911V57.743H169.513ZM173.803 61.883V71H172.201V61.883H173.803ZM174.145 59.021C174.145 59.177 174.112 59.324 174.046 59.462C173.986 59.594 173.902 59.714 173.794 59.822C173.692 59.924 173.569 60.005 173.425 60.065C173.287 60.125 173.14 60.155 172.984 60.155C172.828 60.155 172.681 60.125 172.543 60.065C172.411 60.005 172.294 59.924 172.192 59.822C172.09 59.714 172.009 59.594 171.949 59.462C171.889 59.324 171.859 59.177 171.859 59.021C171.859 58.865 171.889 58.718 171.949 58.58C172.009 58.436 172.09 58.313 172.192 58.211C172.294 58.103 172.411 58.019 172.543 57.959C172.681 57.899 172.828 57.869 172.984 57.869C173.14 57.869 173.287 57.899 173.425 57.959C173.569 58.019 173.692 58.103 173.794 58.211C173.902 58.313 173.986 58.436 174.046 58.58C174.112 58.718 174.145 58.865 174.145 59.021ZM181.376 66.896C180.638 66.92 180.008 66.98 179.486 67.076C178.97 67.166 178.547 67.286 178.217 67.436C177.893 67.586 177.656 67.763 177.506 67.967C177.362 68.171 177.29 68.399 177.29 68.651C177.29 68.891 177.329 69.098 177.407 69.272C177.485 69.446 177.59 69.59 177.722 69.704C177.86 69.812 178.019 69.893 178.199 69.947C178.385 69.995 178.583 70.019 178.793 70.019C179.075 70.019 179.333 69.992 179.567 69.938C179.801 69.878 180.02 69.794 180.224 69.686C180.434 69.578 180.632 69.449 180.818 69.299C181.01 69.149 181.196 68.978 181.376 68.786V66.896ZM176.201 63.17C176.705 62.684 177.248 62.321 177.83 62.081C178.412 61.841 179.057 61.721 179.765 61.721C180.275 61.721 180.728 61.805 181.124 61.973C181.52 62.141 181.853 62.375 182.123 62.675C182.393 62.975 182.597 63.338 182.735 63.764C182.873 64.19 182.942 64.658 182.942 65.168V71H182.231C182.075 71 181.955 70.976 181.871 70.928C181.787 70.874 181.721 70.772 181.673 70.622L181.493 69.758C181.253 69.98 181.019 70.178 180.791 70.352C180.563 70.52 180.323 70.664 180.071 70.784C179.819 70.898 179.549 70.985 179.261 71.045C178.979 71.111 178.664 71.144 178.316 71.144C177.962 71.144 177.629 71.096 177.317 71C177.005 70.898 176.732 70.748 176.498 70.55C176.27 70.352 176.087 70.103 175.949 69.803C175.817 69.497 175.751 69.137 175.751 68.723C175.751 68.363 175.85 68.018 176.048 67.688C176.246 67.352 176.567 67.055 177.011 66.797C177.455 66.539 178.034 66.329 178.748 66.167C179.462 65.999 180.338 65.903 181.376 65.879V65.168C181.376 64.46 181.223 63.926 180.917 63.566C180.611 63.2 180.164 63.017 179.576 63.017C179.18 63.017 178.847 63.068 178.577 63.17C178.313 63.266 178.082 63.377 177.884 63.503C177.692 63.623 177.524 63.734 177.38 63.836C177.242 63.932 177.104 63.98 176.966 63.98C176.858 63.98 176.765 63.953 176.687 63.899C176.609 63.839 176.543 63.767 176.489 63.683L176.201 63.17ZM186.903 63.71C187.191 63.086 187.545 62.6 187.965 62.252C188.385 61.898 188.898 61.721 189.504 61.721C189.696 61.721 189.879 61.742 190.053 61.784C190.233 61.826 190.392 61.892 190.53 61.982L190.413 63.179C190.377 63.329 190.287 63.404 190.143 63.404C190.059 63.404 189.936 63.386 189.774 63.35C189.612 63.314 189.429 63.296 189.225 63.296C188.937 63.296 188.679 63.338 188.451 63.422C188.229 63.506 188.028 63.632 187.848 63.8C187.674 63.962 187.515 64.166 187.371 64.412C187.233 64.652 187.107 64.928 186.993 65.24V71H185.382V61.883H186.3C186.474 61.883 186.594 61.916 186.66 61.982C186.726 62.048 186.771 62.162 186.795 62.324L186.903 63.71ZM2.88 91.743V99.546H3.294C3.414 99.546 3.513 99.531 3.591 99.501C3.675 99.465 3.762 99.396 3.852 99.294L6.732 96.207C6.816 96.105 6.903 96.027 6.993 95.973C7.089 95.913 7.215 95.883 7.371 95.883H8.82L5.463 99.456C5.301 99.66 5.127 99.819 4.941 99.933C5.049 100.005 5.145 100.089 5.229 100.185C5.319 100.275 5.403 100.38 5.481 100.5L9.045 105H7.614C7.476 105 7.356 104.979 7.254 104.937C7.158 104.889 7.074 104.805 7.002 104.685L4.005 100.95C3.915 100.824 3.825 100.743 3.735 100.707C3.651 100.665 3.519 100.644 3.339 100.644H2.88V105H1.269V91.743H2.88ZM16.0019 99.447C16.0019 99.075 15.9479 98.736 15.8399 98.43C15.7379 98.118 15.5849 97.851 15.3809 97.629C15.1829 97.401 14.9399 97.227 14.6519 97.107C14.3639 96.981 14.0369 96.918 13.6709 96.918C12.9029 96.918 12.2939 97.143 11.8439 97.593C11.3999 98.037 11.1239 98.655 11.0159 99.447H16.0019ZM17.2979 103.722C17.0999 103.962 16.8629 104.172 16.5869 104.352C16.3109 104.526 16.0139 104.67 15.6959 104.784C15.3839 104.898 15.0599 104.982 14.7239 105.036C14.3879 105.096 14.0549 105.126 13.7249 105.126C13.0949 105.126 12.5129 105.021 11.9789 104.811C11.4509 104.595 10.9919 104.283 10.6019 103.875C10.2179 103.461 9.91786 102.951 9.70186 102.345C9.48586 101.739 9.37786 101.043 9.37786 100.257C9.37786 99.621 9.47386 99.027 9.66586 98.475C9.86386 97.923 10.1459 97.446 10.5119 97.044C10.8779 96.636 11.3249 96.318 11.8529 96.09C12.3809 95.856 12.9749 95.739 13.6349 95.739C14.1809 95.739 14.6849 95.832 15.1469 96.018C15.6149 96.198 16.0169 96.462 16.3529 96.81C16.6949 97.152 16.9619 97.578 17.1539 98.088C17.3459 98.592 17.4419 99.168 17.4419 99.816C17.4419 100.068 17.4149 100.236 17.3609 100.32C17.3069 100.404 17.2049 100.446 17.0549 100.446H10.9619C10.9799 101.022 11.0579 101.523 11.1959 101.949C11.3399 102.375 11.5379 102.732 11.7899 103.02C12.0419 103.302 12.3419 103.515 12.6899 103.659C13.0379 103.797 13.4279 103.866 13.8599 103.866C14.2619 103.866 14.6069 103.821 14.8949 103.731C15.1889 103.635 15.4409 103.533 15.6509 103.425C15.8609 103.317 16.0349 103.218 16.1729 103.128C16.3169 103.032 16.4399 102.984 16.5419 102.984C16.6739 102.984 16.7759 103.035 16.8479 103.137L17.2979 103.722ZM27.0471 95.883L21.9621 107.691C21.9081 107.811 21.8391 107.907 21.7551 107.979C21.6771 108.051 21.5541 108.087 21.3861 108.087H20.1981L21.8631 104.469L18.1011 95.883H19.4871C19.6251 95.883 19.7331 95.919 19.8111 95.991C19.8951 96.057 19.9521 96.132 19.9821 96.216L22.4211 101.958C22.5171 102.21 22.5981 102.474 22.6641 102.75C22.7481 102.468 22.8381 102.201 22.9341 101.949L25.3011 96.216C25.3371 96.12 25.3971 96.042 25.4811 95.982C25.5711 95.916 25.6701 95.883 25.7781 95.883H27.0471ZM41.0354 95.883L38.0834 105H36.8144C36.6584 105 36.5504 104.898 36.4904 104.694L34.4744 98.511C34.4264 98.373 34.3874 98.235 34.3574 98.097C34.3274 97.953 34.2974 97.812 34.2674 97.674C34.2374 97.812 34.2074 97.953 34.1774 98.097C34.1474 98.235 34.1084 98.376 34.0604 98.52L32.0084 104.694C31.9544 104.898 31.8344 105 31.6484 105H30.4424L27.4904 95.883H28.7504C28.8764 95.883 28.9814 95.916 29.0654 95.982C29.1554 96.048 29.2154 96.126 29.2454 96.216L30.9914 102.084C31.0934 102.516 31.1744 102.924 31.2344 103.308C31.2884 103.11 31.3424 102.909 31.3964 102.705C31.4564 102.501 31.5194 102.294 31.5854 102.084L33.5114 96.18C33.5414 96.09 33.5924 96.015 33.6644 95.955C33.7424 95.895 33.8354 95.865 33.9434 95.865H34.6454C34.7654 95.865 34.8644 95.895 34.9424 95.955C35.0204 96.015 35.0744 96.09 35.1044 96.18L36.9854 102.084C37.0514 102.294 37.1114 102.501 37.1654 102.705C37.2194 102.909 37.2704 103.11 37.3184 103.308C37.3484 103.11 37.3844 102.912 37.4264 102.714C37.4744 102.51 37.5254 102.3 37.5794 102.084L39.3614 96.216C39.3914 96.12 39.4484 96.042 39.5324 95.982C39.6164 95.916 39.7154 95.883 39.8294 95.883H41.0354ZM46.3151 95.739C46.9811 95.739 47.5811 95.85 48.1151 96.072C48.6491 96.294 49.1051 96.609 49.4831 97.017C49.8611 97.425 50.1491 97.92 50.3471 98.502C50.5511 99.078 50.6531 99.723 50.6531 100.437C50.6531 101.157 50.5511 101.805 50.3471 102.381C50.1491 102.957 49.8611 103.449 49.4831 103.857C49.1051 104.265 48.6491 104.58 48.1151 104.802C47.5811 105.018 46.9811 105.126 46.3151 105.126C45.6431 105.126 45.0371 105.018 44.4971 104.802C43.9631 104.58 43.5071 104.265 43.1291 103.857C42.7511 103.449 42.4601 102.957 42.2561 102.381C42.0581 101.805 41.9591 101.157 41.9591 100.437C41.9591 99.723 42.0581 99.078 42.2561 98.502C42.4601 97.92 42.7511 97.425 43.1291 97.017C43.5071 96.609 43.9631 96.294 44.4971 96.072C45.0371 95.85 45.6431 95.739 46.3151 95.739ZM46.3151 103.875C47.2151 103.875 47.8871 103.575 48.3311 102.975C48.7751 102.369 48.9971 101.526 48.9971 100.446C48.9971 99.36 48.7751 98.514 48.3311 97.908C47.8871 97.302 47.2151 96.999 46.3151 96.999C45.8591 96.999 45.4601 97.077 45.1181 97.233C44.7821 97.389 44.5001 97.614 44.2721 97.908C44.0501 98.202 43.8821 98.565 43.7681 98.997C43.6601 99.423 43.6061 99.906 43.6061 100.446C43.6061 101.526 43.8281 102.369 44.2721 102.975C44.7221 103.575 45.4031 103.875 46.3151 103.875ZM54.206 97.71C54.494 97.086 54.848 96.6 55.268 96.252C55.688 95.898 56.201 95.721 56.807 95.721C56.999 95.721 57.182 95.742 57.356 95.784C57.536 95.826 57.695 95.892 57.833 95.982L57.716 97.179C57.68 97.329 57.59 97.404 57.446 97.404C57.362 97.404 57.239 97.386 57.077 97.35C56.915 97.314 56.732 97.296 56.528 97.296C56.24 97.296 55.982 97.338 55.754 97.422C55.532 97.506 55.331 97.632 55.151 97.8C54.977 97.962 54.818 98.166 54.674 98.412C54.536 98.652 54.41 98.928 54.296 99.24V105H52.685V95.883H53.603C53.777 95.883 53.897 95.916 53.963 95.982C54.029 96.048 54.074 96.162 54.098 96.324L54.206 97.71ZM64.8301 98.052C64.5301 97.65 64.2061 97.371 63.8581 97.215C63.5101 97.053 63.1201 96.972 62.6881 96.972C61.8421 96.972 61.1911 97.275 60.7351 97.881C60.2791 98.487 60.0511 99.351 60.0511 100.473C60.0511 101.067 60.1021 101.577 60.2041 102.003C60.3061 102.423 60.4561 102.771 60.6541 103.047C60.8521 103.317 61.0951 103.515 61.3831 103.641C61.6711 103.767 61.9981 103.83 62.3641 103.83C62.8921 103.83 63.3511 103.71 63.7411 103.47C64.1371 103.23 64.5001 102.891 64.8301 102.453V98.052ZM66.4321 91.743V105H65.4781C65.2501 105 65.1061 104.889 65.0461 104.667L64.9021 103.56C64.5121 104.028 64.0681 104.406 63.5701 104.694C63.0721 104.982 62.4961 105.126 61.8421 105.126C61.3201 105.126 60.8461 105.027 60.4201 104.829C59.9941 104.625 59.6311 104.328 59.3311 103.938C59.0311 103.548 58.8001 103.062 58.6381 102.48C58.4761 101.898 58.3951 101.229 58.3951 100.473C58.3951 99.801 58.4851 99.177 58.6651 98.601C58.8451 98.019 59.1031 97.515 59.4391 97.089C59.7751 96.663 60.1861 96.33 60.6721 96.09C61.1641 95.844 61.7161 95.721 62.3281 95.721C62.8861 95.721 63.3631 95.817 63.7591 96.009C64.1611 96.195 64.5181 96.456 64.8301 96.792V91.743H66.4321ZM74.2724 97.386C74.2004 97.518 74.0894 97.584 73.9394 97.584C73.8494 97.584 73.7474 97.551 73.6334 97.485C73.5194 97.419 73.3784 97.347 73.2104 97.269C73.0484 97.185 72.8534 97.11 72.6254 97.044C72.3974 96.972 72.1274 96.936 71.8154 96.936C71.5454 96.936 71.3024 96.972 71.0864 97.044C70.8704 97.11 70.6844 97.203 70.5284 97.323C70.3784 97.443 70.2614 97.584 70.1774 97.746C70.0994 97.902 70.0604 98.073 70.0604 98.259C70.0604 98.493 70.1264 98.688 70.2584 98.844C70.3964 99 70.5764 99.135 70.7984 99.249C71.0204 99.363 71.2724 99.465 71.5544 99.555C71.8364 99.639 72.1244 99.732 72.4184 99.834C72.7184 99.93 73.0094 100.038 73.2914 100.158C73.5734 100.278 73.8254 100.428 74.0474 100.608C74.2694 100.788 74.4464 101.01 74.5784 101.274C74.7164 101.532 74.7854 101.844 74.7854 102.21C74.7854 102.63 74.7104 103.02 74.5604 103.38C74.4104 103.734 74.1884 104.043 73.8944 104.307C73.6004 104.565 73.2404 104.769 72.8144 104.919C72.3884 105.069 71.8964 105.144 71.3384 105.144C70.7024 105.144 70.1264 105.042 69.6104 104.838C69.0944 104.628 68.6564 104.361 68.2964 104.037L68.6744 103.425C68.7224 103.347 68.7794 103.287 68.8454 103.245C68.9114 103.203 68.9954 103.182 69.0974 103.182C69.2054 103.182 69.3194 103.224 69.4394 103.308C69.5594 103.392 69.7034 103.485 69.8714 103.587C70.0454 103.689 70.2554 103.782 70.5014 103.866C70.7474 103.95 71.0534 103.992 71.4194 103.992C71.7314 103.992 72.0044 103.953 72.2384 103.875C72.4724 103.791 72.6674 103.68 72.8234 103.542C72.9794 103.404 73.0934 103.245 73.1654 103.065C73.2434 102.885 73.2824 102.693 73.2824 102.489C73.2824 102.237 73.2134 102.03 73.0754 101.868C72.9434 101.7 72.7664 101.559 72.5444 101.445C72.3224 101.325 72.0674 101.223 71.7794 101.139C71.4974 101.049 71.2064 100.956 70.9064 100.86C70.6124 100.764 70.3214 100.656 70.0334 100.536C69.7514 100.41 69.4994 100.254 69.2774 100.068C69.0554 99.882 68.8754 99.654 68.7374 99.384C68.6054 99.108 68.5394 98.775 68.5394 98.385C68.5394 98.037 68.6114 97.704 68.7554 97.386C68.8994 97.062 69.1094 96.78 69.3854 96.54C69.6614 96.294 70.0004 96.099 70.4024 95.955C70.8044 95.811 71.2634 95.739 71.7794 95.739C72.3794 95.739 72.9164 95.835 73.3904 96.027C73.8704 96.213 74.2844 96.471 74.6324 96.801L74.2724 97.386ZM84.1539 105.144C83.4339 105.144 82.8789 104.943 82.4889 104.541C82.1049 104.139 81.9129 103.56 81.9129 102.804V97.224H80.8149C80.7189 97.224 80.6379 97.197 80.5719 97.143C80.5059 97.083 80.4729 96.993 80.4729 96.873V96.234L81.9669 96.045L82.3359 93.228C82.3539 93.138 82.3929 93.066 82.4529 93.012C82.5189 92.952 82.6029 92.922 82.7049 92.922H83.5149V96.063H86.1519V97.224H83.5149V102.696C83.5149 103.08 83.6079 103.365 83.7939 103.551C83.9799 103.737 84.2199 103.83 84.5139 103.83C84.6819 103.83 84.8259 103.809 84.9459 103.767C85.0719 103.719 85.1799 103.668 85.2699 103.614C85.3599 103.56 85.4349 103.512 85.4949 103.47C85.5609 103.422 85.6179 103.398 85.6659 103.398C85.7499 103.398 85.8249 103.449 85.8909 103.551L86.3589 104.316C86.0829 104.574 85.7499 104.778 85.3599 104.928C84.9699 105.072 84.5679 105.144 84.1539 105.144ZM91.5964 95.739C92.2624 95.739 92.8624 95.85 93.3964 96.072C93.9304 96.294 94.3864 96.609 94.7644 97.017C95.1424 97.425 95.4304 97.92 95.6284 98.502C95.8324 99.078 95.9344 99.723 95.9344 100.437C95.9344 101.157 95.8324 101.805 95.6284 102.381C95.4304 102.957 95.1424 103.449 94.7644 103.857C94.3864 104.265 93.9304 104.58 93.3964 104.802C92.8624 105.018 92.2624 105.126 91.5964 105.126C90.9244 105.126 90.3184 105.018 89.7784 104.802C89.2444 104.58 88.7884 104.265 88.4104 103.857C88.0324 103.449 87.7414 102.957 87.5374 102.381C87.3394 101.805 87.2404 101.157 87.2404 100.437C87.2404 99.723 87.3394 99.078 87.5374 98.502C87.7414 97.92 88.0324 97.425 88.4104 97.017C88.7884 96.609 89.2444 96.294 89.7784 96.072C90.3184 95.85 90.9244 95.739 91.5964 95.739ZM91.5964 103.875C92.4964 103.875 93.1684 103.575 93.6124 102.975C94.0564 102.369 94.2784 101.526 94.2784 100.446C94.2784 99.36 94.0564 98.514 93.6124 97.908C93.1684 97.302 92.4964 96.999 91.5964 96.999C91.1404 96.999 90.7414 97.077 90.3994 97.233C90.0634 97.389 89.7814 97.614 89.5534 97.908C89.3314 98.202 89.1634 98.565 89.0494 98.997C88.9414 99.423 88.8874 99.906 88.8874 100.446C88.8874 101.526 89.1094 102.369 89.5534 102.975C90.0034 103.575 90.6844 103.875 91.5964 103.875ZM107.882 97.386C107.81 97.518 107.699 97.584 107.549 97.584C107.459 97.584 107.357 97.551 107.243 97.485C107.129 97.419 106.988 97.347 106.82 97.269C106.658 97.185 106.463 97.11 106.235 97.044C106.007 96.972 105.737 96.936 105.425 96.936C105.155 96.936 104.912 96.972 104.696 97.044C104.48 97.11 104.294 97.203 104.138 97.323C103.988 97.443 103.871 97.584 103.787 97.746C103.709 97.902 103.67 98.073 103.67 98.259C103.67 98.493 103.736 98.688 103.868 98.844C104.006 99 104.186 99.135 104.408 99.249C104.63 99.363 104.882 99.465 105.164 99.555C105.446 99.639 105.734 99.732 106.028 99.834C106.328 99.93 106.619 100.038 106.901 100.158C107.183 100.278 107.435 100.428 107.657 100.608C107.879 100.788 108.056 101.01 108.188 101.274C108.326 101.532 108.395 101.844 108.395 102.21C108.395 102.63 108.32 103.02 108.17 103.38C108.02 103.734 107.798 104.043 107.504 104.307C107.21 104.565 106.85 104.769 106.424 104.919C105.998 105.069 105.506 105.144 104.948 105.144C104.312 105.144 103.736 105.042 103.22 104.838C102.704 104.628 102.266 104.361 101.906 104.037L102.284 103.425C102.332 103.347 102.389 103.287 102.455 103.245C102.521 103.203 102.605 103.182 102.707 103.182C102.815 103.182 102.929 103.224 103.049 103.308C103.169 103.392 103.313 103.485 103.481 103.587C103.655 103.689 103.865 103.782 104.111 103.866C104.357 103.95 104.663 103.992 105.029 103.992C105.341 103.992 105.614 103.953 105.848 103.875C106.082 103.791 106.277 103.68 106.433 103.542C106.589 103.404 106.703 103.245 106.775 103.065C106.853 102.885 106.892 102.693 106.892 102.489C106.892 102.237 106.823 102.03 106.685 101.868C106.553 101.7 106.376 101.559 106.154 101.445C105.932 101.325 105.677 101.223 105.389 101.139C105.107 101.049 104.816 100.956 104.516 100.86C104.222 100.764 103.931 100.656 103.643 100.536C103.361 100.41 103.109 100.254 102.887 100.068C102.665 99.882 102.485 99.654 102.347 99.384C102.215 99.108 102.149 98.775 102.149 98.385C102.149 98.037 102.221 97.704 102.365 97.386C102.509 97.062 102.719 96.78 102.995 96.54C103.271 96.294 103.61 96.099 104.012 95.955C104.414 95.811 104.873 95.739 105.389 95.739C105.989 95.739 106.526 95.835 107 96.027C107.48 96.213 107.894 96.471 108.242 96.801L107.882 97.386ZM111.97 91.743V99.546H112.384C112.504 99.546 112.603 99.531 112.681 99.501C112.765 99.465 112.852 99.396 112.942 99.294L115.822 96.207C115.906 96.105 115.993 96.027 116.083 95.973C116.179 95.913 116.305 95.883 116.461 95.883H117.91L114.553 99.456C114.391 99.66 114.217 99.819 114.031 99.933C114.139 100.005 114.235 100.089 114.319 100.185C114.409 100.275 114.493 100.38 114.571 100.5L118.135 105H116.704C116.566 105 116.446 104.979 116.344 104.937C116.248 104.889 116.164 104.805 116.092 104.685L113.095 100.95C113.005 100.824 112.915 100.743 112.825 100.707C112.741 100.665 112.609 100.644 112.429 100.644H111.97V105H110.359V91.743H111.97ZM121.191 95.883V105H119.589V95.883H121.191ZM121.533 93.021C121.533 93.177 121.5 93.324 121.434 93.462C121.374 93.594 121.29 93.714 121.182 93.822C121.08 93.924 120.957 94.005 120.813 94.065C120.675 94.125 120.528 94.155 120.372 94.155C120.216 94.155 120.069 94.125 119.931 94.065C119.799 94.005 119.682 93.924 119.58 93.822C119.478 93.714 119.397 93.594 119.337 93.462C119.277 93.324 119.247 93.177 119.247 93.021C119.247 92.865 119.277 92.718 119.337 92.58C119.397 92.436 119.478 92.313 119.58 92.211C119.682 92.103 119.799 92.019 119.931 91.959C120.069 91.899 120.216 91.869 120.372 91.869C120.528 91.869 120.675 91.899 120.813 91.959C120.957 92.019 121.08 92.103 121.182 92.211C121.29 92.313 121.374 92.436 121.434 92.58C121.5 92.718 121.533 92.865 121.533 93.021ZM123.824 105V95.883H124.787C125.015 95.883 125.156 95.994 125.21 96.216L125.327 97.152C125.663 96.738 126.041 96.399 126.461 96.135C126.881 95.871 127.367 95.739 127.919 95.739C128.531 95.739 129.026 95.91 129.404 96.252C129.788 96.594 130.064 97.056 130.232 97.638C130.364 97.308 130.532 97.023 130.736 96.783C130.946 96.543 131.18 96.345 131.438 96.189C131.696 96.033 131.969 95.919 132.257 95.847C132.551 95.775 132.848 95.739 133.148 95.739C133.628 95.739 134.054 95.817 134.426 95.973C134.804 96.123 135.122 96.345 135.38 96.639C135.644 96.933 135.845 97.296 135.983 97.728C136.121 98.154 136.19 98.643 136.19 99.195V105H134.579V99.195C134.579 98.481 134.423 97.941 134.111 97.575C133.799 97.203 133.349 97.017 132.761 97.017C132.497 97.017 132.245 97.065 132.005 97.161C131.771 97.251 131.564 97.386 131.384 97.566C131.204 97.746 131.06 97.974 130.952 98.25C130.85 98.52 130.799 98.835 130.799 99.195V105H129.188V99.195C129.188 98.463 129.041 97.917 128.747 97.557C128.453 97.197 128.024 97.017 127.46 97.017C127.064 97.017 126.698 97.125 126.362 97.341C126.026 97.551 125.717 97.839 125.435 98.205V105H123.824ZM146.029 105.144C145.309 105.144 144.754 104.943 144.364 104.541C143.98 104.139 143.788 103.56 143.788 102.804V97.224H142.69C142.594 97.224 142.513 97.197 142.447 97.143C142.381 97.083 142.348 96.993 142.348 96.873V96.234L143.842 96.045L144.211 93.228C144.229 93.138 144.268 93.066 144.328 93.012C144.394 92.952 144.478 92.922 144.58 92.922H145.39V96.063H148.027V97.224H145.39V102.696C145.39 103.08 145.483 103.365 145.669 103.551C145.855 103.737 146.095 103.83 146.389 103.83C146.557 103.83 146.701 103.809 146.821 103.767C146.947 103.719 147.055 103.668 147.145 103.614C147.235 103.56 147.31 103.512 147.37 103.47C147.436 103.422 147.493 103.398 147.541 103.398C147.625 103.398 147.7 103.449 147.766 103.551L148.234 104.316C147.958 104.574 147.625 104.778 147.235 104.928C146.845 105.072 146.443 105.144 146.029 105.144ZM151.292 97.098C151.682 96.684 152.114 96.354 152.588 96.108C153.062 95.862 153.608 95.739 154.226 95.739C154.724 95.739 155.162 95.823 155.54 95.991C155.924 96.153 156.242 96.387 156.494 96.693C156.752 96.993 156.947 97.356 157.079 97.782C157.211 98.208 157.277 98.679 157.277 99.195V105H155.666V99.195C155.666 98.505 155.507 97.971 155.189 97.593C154.877 97.209 154.4 97.017 153.758 97.017C153.284 97.017 152.84 97.131 152.426 97.359C152.018 97.587 151.64 97.896 151.292 98.286V105H149.681V91.743H151.292V97.098ZM165.82 99.447C165.82 99.075 165.766 98.736 165.658 98.43C165.556 98.118 165.403 97.851 165.199 97.629C165.001 97.401 164.758 97.227 164.47 97.107C164.182 96.981 163.855 96.918 163.489 96.918C162.721 96.918 162.112 97.143 161.662 97.593C161.218 98.037 160.942 98.655 160.834 99.447H165.82ZM167.116 103.722C166.918 103.962 166.681 104.172 166.405 104.352C166.129 104.526 165.832 104.67 165.514 104.784C165.202 104.898 164.878 104.982 164.542 105.036C164.206 105.096 163.873 105.126 163.543 105.126C162.913 105.126 162.331 105.021 161.797 104.811C161.269 104.595 160.81 104.283 160.42 103.875C160.036 103.461 159.736 102.951 159.52 102.345C159.304 101.739 159.196 101.043 159.196 100.257C159.196 99.621 159.292 99.027 159.484 98.475C159.682 97.923 159.964 97.446 160.33 97.044C160.696 96.636 161.143 96.318 161.671 96.09C162.199 95.856 162.793 95.739 163.453 95.739C163.999 95.739 164.503 95.832 164.965 96.018C165.433 96.198 165.835 96.462 166.171 96.81C166.513 97.152 166.78 97.578 166.972 98.088C167.164 98.592 167.26 99.168 167.26 99.816C167.26 100.068 167.233 100.236 167.179 100.32C167.125 100.404 167.023 100.446 166.873 100.446H160.78C160.798 101.022 160.876 101.523 161.014 101.949C161.158 102.375 161.356 102.732 161.608 103.02C161.86 103.302 162.16 103.515 162.508 103.659C162.856 103.797 163.246 103.866 163.678 103.866C164.08 103.866 164.425 103.821 164.713 103.731C165.007 103.635 165.259 103.533 165.469 103.425C165.679 103.317 165.853 103.218 165.991 103.128C166.135 103.032 166.258 102.984 166.36 102.984C166.492 102.984 166.594 103.035 166.666 103.137L167.116 103.722ZM176.632 105.144C175.912 105.144 175.357 104.943 174.967 104.541C174.583 104.139 174.391 103.56 174.391 102.804V97.224H173.293C173.197 97.224 173.116 97.197 173.05 97.143C172.984 97.083 172.951 96.993 172.951 96.873V96.234L174.445 96.045L174.814 93.228C174.832 93.138 174.871 93.066 174.931 93.012C174.997 92.952 175.081 92.922 175.183 92.922H175.993V96.063H178.63V97.224H175.993V102.696C175.993 103.08 176.086 103.365 176.272 103.551C176.458 103.737 176.698 103.83 176.992 103.83C177.16 103.83 177.304 103.809 177.424 103.767C177.55 103.719 177.658 103.668 177.748 103.614C177.838 103.56 177.913 103.512 177.973 103.47C178.039 103.422 178.096 103.398 178.144 103.398C178.228 103.398 178.303 103.449 178.369 103.551L178.837 104.316C178.561 104.574 178.228 104.778 177.838 104.928C177.448 105.072 177.046 105.144 176.632 105.144ZM186.334 99.447C186.334 99.075 186.28 98.736 186.172 98.43C186.07 98.118 185.917 97.851 185.713 97.629C185.515 97.401 185.272 97.227 184.984 97.107C184.696 96.981 184.369 96.918 184.003 96.918C183.235 96.918 182.626 97.143 182.176 97.593C181.732 98.037 181.456 98.655 181.348 99.447H186.334ZM187.63 103.722C187.432 103.962 187.195 104.172 186.919 104.352C186.643 104.526 186.346 104.67 186.028 104.784C185.716 104.898 185.392 104.982 185.056 105.036C184.72 105.096 184.387 105.126 184.057 105.126C183.427 105.126 182.845 105.021 182.311 104.811C181.783 104.595 181.324 104.283 180.934 103.875C180.55 103.461 180.25 102.951 180.034 102.345C179.818 101.739 179.71 101.043 179.71 100.257C179.71 99.621 179.806 99.027 179.998 98.475C180.196 97.923 180.478 97.446 180.844 97.044C181.21 96.636 181.657 96.318 182.185 96.09C182.713 95.856 183.307 95.739 183.967 95.739C184.513 95.739 185.017 95.832 185.479 96.018C185.947 96.198 186.349 96.462 186.685 96.81C187.027 97.152 187.294 97.578 187.486 98.088C187.678 98.592 187.774 99.168 187.774 99.816C187.774 100.068 187.747 100.236 187.693 100.32C187.639 100.404 187.537 100.446 187.387 100.446H181.294C181.312 101.022 181.39 101.523 181.528 101.949C181.672 102.375 181.87 102.732 182.122 103.02C182.374 103.302 182.674 103.515 183.022 103.659C183.37 103.797 183.76 103.866 184.192 103.866C184.594 103.866 184.939 103.821 185.227 103.731C185.521 103.635 185.773 103.533 185.983 103.425C186.193 103.317 186.367 103.218 186.505 103.128C186.649 103.032 186.772 102.984 186.874 102.984C187.006 102.984 187.108 103.035 187.18 103.137L187.63 103.722ZM197.107 105H195.568C195.436 105 195.331 104.967 195.253 104.901C195.181 104.829 195.121 104.751 195.073 104.667L192.778 101.094C192.754 101.178 192.727 101.262 192.697 101.346C192.673 101.424 192.637 101.496 192.589 101.562L190.465 104.667C190.405 104.751 190.339 104.829 190.267 104.901C190.201 104.967 190.108 105 189.988 105H188.557L191.752 100.32L188.683 95.883H190.222C190.354 95.883 190.45 95.904 190.51 95.946C190.57 95.988 190.624 96.048 190.672 96.126L192.913 99.546C192.961 99.372 193.036 99.204 193.138 99.042L195.1 96.162C195.154 96.078 195.211 96.012 195.271 95.964C195.337 95.91 195.415 95.883 195.505 95.883H196.981L193.912 100.239L197.107 105ZM201.382 105.144C200.662 105.144 200.107 104.943 199.717 104.541C199.333 104.139 199.141 103.56 199.141 102.804V97.224H198.043C197.947 97.224 197.866 97.197 197.8 97.143C197.734 97.083 197.701 96.993 197.701 96.873V96.234L199.195 96.045L199.564 93.228C199.582 93.138 199.621 93.066 199.681 93.012C199.747 92.952 199.831 92.922 199.933 92.922H200.743V96.063H203.38V97.224H200.743V102.696C200.743 103.08 200.836 103.365 201.022 103.551C201.208 103.737 201.448 103.83 201.742 103.83C201.91 103.83 202.054 103.809 202.174 103.767C202.3 103.719 202.408 103.668 202.498 103.614C202.588 103.56 202.663 103.512 202.723 103.47C202.789 103.422 202.846 103.398 202.894 103.398C202.978 103.398 203.053 103.449 203.119 103.551L203.587 104.316C203.311 104.574 202.978 104.778 202.588 104.928C202.198 105.072 201.796 105.144 201.382 105.144Z" fill="#535353"/>
</svg>
