<svg width="245" height="139" viewBox="0 0 245 139" fill="none" xmlns="http://www.w3.org/2000/svg">
<path d="M20 28H30" stroke="#CE8200" stroke-width="2" stroke-linecap="round" stroke-linejoin="round"/>
<path d="M24.9813 9.6895C25.4228 9.24802 26.0216 9 26.6459 9C26.9551 9 27.2612 9.06089 27.5468 9.17919C27.8324 9.2975 28.0919 9.4709 28.3105 9.6895C28.5291 9.90809 28.7025 10.1676 28.8208 10.4532C28.9391 10.7388 29 11.0449 29 11.3541C29 11.6632 28.9391 11.9693 28.8208 12.255C28.7025 12.5406 28.5291 12.8001 28.3105 13.0187L14.4389 26.8903L10 28L11.1097 23.5611L24.9813 9.6895Z" stroke="#CE8200" stroke-width="2" stroke-linecap="round" stroke-linejoin="round"/>
<path d="M62.088 24.944C61.656 25.44 61.192 25.792 60.696 26C60.2 26.224 59.6 26.336 58.896 26.336C57.968 26.336 57.232 26.144 56.688 25.76C56.16 25.36 55.816 24.688 55.656 23.744L55.224 21.344C55.016 20.176 54.76 19.32 54.456 18.776C54.168 18.216 53.68 17.936 52.992 17.936H51.432V23.456C51.432 24.064 51.472 24.504 51.552 24.776C51.648 25.048 51.816 25.232 52.056 25.328C52.296 25.424 52.688 25.488 53.232 25.52V26C52.368 25.952 51.16 25.928 49.608 25.928C47.896 25.928 46.632 25.952 45.816 26V25.52C46.344 25.488 46.728 25.424 46.968 25.328C47.224 25.232 47.392 25.048 47.472 24.776C47.568 24.504 47.616 24.064 47.616 23.456V11.552C47.616 10.944 47.568 10.504 47.472 10.232C47.392 9.96 47.224 9.776 46.968 9.68C46.728 9.584 46.344 9.52 45.816 9.488V9.008C46.632 9.056 47.848 9.08 49.464 9.08L52.128 9.056C52.448 9.04 52.816 9.032 53.232 9.032C55.44 9.032 57.096 9.392 58.2 10.112C59.32 10.832 59.88 11.864 59.88 13.208C59.88 14.344 59.464 15.344 58.632 16.208C57.8 17.072 56.424 17.616 54.504 17.84C55.944 17.968 57.016 18.28 57.72 18.776C58.424 19.272 58.88 20.016 59.088 21.008L59.64 23.48C59.768 24.12 59.912 24.568 60.072 24.824C60.248 25.08 60.488 25.208 60.792 25.208C60.984 25.192 61.144 25.144 61.272 25.064C61.416 24.984 61.576 24.848 61.752 24.656L62.088 24.944ZM52.92 9.488C52.488 9.488 52.168 9.544 51.96 9.656C51.768 9.768 51.632 9.968 51.552 10.256C51.472 10.544 51.432 10.976 51.432 11.552V17.456H52.464C53.776 17.456 54.672 17.112 55.152 16.424C55.648 15.72 55.896 14.736 55.896 13.472C55.896 12.16 55.664 11.168 55.2 10.496C54.736 9.824 53.976 9.488 52.92 9.488ZM69.2492 24.368C70.5612 24.368 71.6172 23.728 72.4172 22.448L72.8492 22.592C72.5292 23.632 71.9532 24.52 71.1212 25.256C70.3052 25.976 69.2812 26.336 68.0492 26.336C66.3532 26.336 65.0012 25.8 63.9932 24.728C63.0012 23.64 62.5052 22.04 62.5052 19.928C62.5052 17.768 63.0412 16.12 64.1132 14.984C65.1852 13.832 66.6092 13.256 68.3852 13.256C71.3932 13.256 72.8972 15.032 72.8972 18.584H66.1532C66.1372 18.824 66.1292 19.2 66.1292 19.712C66.1292 20.768 66.2732 21.648 66.5612 22.352C66.8652 23.056 67.2492 23.568 67.7132 23.888C68.1932 24.208 68.7052 24.368 69.2492 24.368ZM68.2412 13.76C67.6652 13.76 67.1852 14.12 66.8012 14.84C66.4332 15.544 66.2012 16.64 66.1052 18.128H69.8732C69.9052 16.864 69.7772 15.824 69.4892 15.008C69.2172 14.176 68.8012 13.76 68.2412 13.76ZM79.0389 13.256C79.6469 13.256 80.2069 13.336 80.7189 13.496C81.2309 13.64 81.6229 13.808 81.8949 14C82.0549 14.112 82.1989 14.168 82.3269 14.168C82.4709 14.168 82.5909 14.096 82.6869 13.952C82.7989 13.792 82.8709 13.568 82.9029 13.28H83.4069C83.3429 14.096 83.3109 15.504 83.3109 17.504H82.8069C82.6629 16.448 82.3429 15.568 81.8469 14.864C81.3669 14.144 80.6629 13.784 79.7349 13.784C79.2549 13.784 78.8549 13.92 78.5349 14.192C78.2309 14.464 78.0789 14.84 78.0789 15.32C78.0789 15.864 78.2629 16.336 78.6309 16.736C78.9989 17.12 79.5749 17.592 80.3589 18.152L81.0549 18.656C82.0309 19.392 82.7509 20.048 83.2149 20.624C83.6789 21.2 83.9109 21.92 83.9109 22.784C83.9109 23.488 83.7029 24.112 83.2869 24.656C82.8869 25.2 82.3429 25.616 81.6549 25.904C80.9669 26.192 80.2069 26.336 79.3749 26.336C78.4949 26.336 77.7429 26.168 77.1189 25.832C76.6069 25.576 76.2389 25.408 76.0149 25.328C75.8549 25.28 75.7109 25.336 75.5829 25.496C75.4709 25.64 75.3829 25.864 75.3189 26.168H74.8149C74.8789 25.256 74.9109 23.656 74.9109 21.368H75.4149C75.7349 24.312 76.8149 25.784 78.6549 25.784C79.1189 25.784 79.5109 25.648 79.8309 25.376C80.1669 25.088 80.3349 24.656 80.3349 24.08C80.3349 23.632 80.2309 23.232 80.0229 22.88C79.8309 22.528 79.5829 22.216 79.2789 21.944C78.9749 21.672 78.5189 21.296 77.9109 20.816C77.1909 20.24 76.6389 19.776 76.2549 19.424C75.8869 19.072 75.5669 18.656 75.2949 18.176C75.0389 17.696 74.9109 17.16 74.9109 16.568C74.9109 15.544 75.3109 14.736 76.1109 14.144C76.9109 13.552 77.8869 13.256 79.0389 13.256ZM92.4289 24.368C93.7409 24.368 94.7969 23.728 95.5969 22.448L96.0289 22.592C95.7089 23.632 95.1329 24.52 94.3009 25.256C93.4849 25.976 92.4609 26.336 91.2289 26.336C89.5329 26.336 88.1809 25.8 87.1729 24.728C86.1809 23.64 85.6849 22.04 85.6849 19.928C85.6849 17.768 86.2209 16.12 87.2929 14.984C88.3649 13.832 89.7889 13.256 91.5649 13.256C94.5729 13.256 96.0769 15.032 96.0769 18.584H89.3329C89.3169 18.824 89.3089 19.2 89.3089 19.712C89.3089 20.768 89.4529 21.648 89.7409 22.352C90.0449 23.056 90.4289 23.568 90.8929 23.888C91.3729 24.208 91.8849 24.368 92.4289 24.368ZM91.4209 13.76C90.8449 13.76 90.3649 14.12 89.9809 14.84C89.6129 15.544 89.3809 16.64 89.2849 18.128H93.0529C93.0849 16.864 92.9569 15.824 92.6689 15.008C92.3969 14.176 91.9809 13.76 91.4209 13.76ZM100.635 26.168C99.6106 26.168 98.8426 25.904 98.3306 25.376C97.8346 24.848 97.5866 24.152 97.5866 23.288C97.5866 22.568 97.7706 21.976 98.1386 21.512C98.5226 21.032 98.9786 20.664 99.5066 20.408C100.051 20.152 100.739 19.88 101.571 19.592C102.451 19.288 103.091 19.016 103.491 18.776C103.907 18.52 104.115 18.176 104.115 17.744V15.872C104.115 15.2 103.955 14.68 103.635 14.312C103.331 13.928 102.851 13.736 102.195 13.736C101.427 13.736 100.843 13.928 100.443 14.312C100.891 14.472 101.235 14.712 101.475 15.032C101.731 15.352 101.859 15.728 101.859 16.16C101.859 16.704 101.675 17.136 101.307 17.456C100.939 17.776 100.491 17.936 99.9626 17.936C99.4026 17.936 98.9706 17.76 98.6666 17.408C98.3626 17.056 98.2106 16.616 98.2106 16.088C98.2106 15.64 98.3146 15.264 98.5226 14.96C98.7466 14.64 99.0826 14.344 99.5306 14.072C99.9626 13.816 100.491 13.616 101.115 13.472C101.755 13.328 102.451 13.256 103.203 13.256C103.987 13.256 104.667 13.336 105.243 13.496C105.819 13.656 106.299 13.928 106.683 14.312C107.035 14.664 107.267 15.096 107.379 15.608C107.507 16.12 107.571 16.816 107.571 17.696V24.224C107.571 24.608 107.603 24.88 107.667 25.04C107.747 25.2 107.891 25.28 108.099 25.28C108.339 25.28 108.627 25.144 108.963 24.872L109.203 25.28C108.483 25.872 107.603 26.168 106.563 26.168C105.683 26.168 105.067 25.992 104.715 25.64C104.363 25.288 104.179 24.816 104.163 24.224C103.363 25.52 102.187 26.168 100.635 26.168ZM102.483 24.632C103.107 24.632 103.651 24.304 104.115 23.648V18.728C103.923 19.048 103.515 19.4 102.891 19.784C102.267 20.184 101.795 20.584 101.475 20.984C101.155 21.384 100.995 21.96 100.995 22.712C100.995 23.368 101.131 23.856 101.403 24.176C101.675 24.48 102.035 24.632 102.483 24.632ZM118.145 13.256C118.865 13.256 119.409 13.472 119.777 13.904C120.145 14.336 120.329 14.856 120.329 15.464C120.329 16.056 120.153 16.544 119.801 16.928C119.465 17.296 119.017 17.48 118.457 17.48C117.913 17.48 117.481 17.344 117.161 17.072C116.841 16.784 116.681 16.408 116.681 15.944C116.681 15.176 117.033 14.552 117.737 14.072C117.673 14.056 117.577 14.048 117.449 14.048C117.289 14.048 117.161 14.064 117.065 14.096C116.457 14.192 115.937 14.56 115.505 15.2C115.089 15.84 114.881 16.496 114.881 17.168V23.528C114.881 24.264 115.057 24.776 115.409 25.064C115.777 25.352 116.353 25.496 117.137 25.496V26C116.913 26 116.729 25.992 116.585 25.976C114.953 25.928 113.865 25.904 113.321 25.904C112.889 25.904 111.905 25.928 110.369 25.976C110.241 25.992 110.081 26 109.889 26V25.496C110.465 25.496 110.865 25.376 111.089 25.136C111.313 24.88 111.425 24.424 111.425 23.768V16.208C111.425 15.472 111.313 14.936 111.089 14.6C110.865 14.264 110.465 14.096 109.889 14.096V13.592C110.401 13.64 110.897 13.664 111.377 13.664C112.801 13.664 113.969 13.552 114.881 13.328V15.56C115.185 14.872 115.625 14.32 116.201 13.904C116.777 13.472 117.425 13.256 118.145 13.256ZM127.004 13.256C127.596 13.256 128.156 13.32 128.684 13.448C129.212 13.576 129.652 13.752 130.004 13.976C130.42 14.232 130.74 14.56 130.964 14.96C131.204 15.344 131.324 15.768 131.324 16.232C131.324 16.792 131.148 17.256 130.796 17.624C130.444 17.976 129.988 18.152 129.428 18.152C128.868 18.152 128.42 17.992 128.084 17.672C127.748 17.352 127.58 16.92 127.58 16.376C127.58 15.896 127.732 15.48 128.036 15.128C128.34 14.776 128.716 14.536 129.164 14.408C129.036 14.232 128.836 14.096 128.564 14C128.308 13.888 128.028 13.832 127.724 13.832C126.764 13.832 126.012 14.36 125.468 15.416C124.94 16.456 124.676 17.824 124.676 19.52C124.676 21.232 124.98 22.464 125.588 23.216C126.196 23.968 126.956 24.344 127.868 24.344C128.412 24.344 128.956 24.2 129.5 23.912C130.06 23.624 130.564 23.12 131.012 22.4L131.42 22.544C131.1 23.584 130.54 24.48 129.74 25.232C128.94 25.968 127.908 26.336 126.644 26.336C124.996 26.336 123.652 25.792 122.612 24.704C121.572 23.616 121.052 22 121.052 19.856C121.052 18.448 121.308 17.248 121.82 16.256C122.332 15.264 123.036 14.52 123.932 14.024C124.828 13.512 125.852 13.256 127.004 13.256ZM137.542 15.488C138.262 14 139.566 13.256 141.454 13.256C142.702 13.256 143.582 13.568 144.094 14.192C144.366 14.496 144.558 14.896 144.67 15.392C144.798 15.872 144.862 16.512 144.862 17.312V23.768C144.862 24.424 144.974 24.88 145.198 25.136C145.422 25.376 145.822 25.496 146.398 25.496V26C144.734 25.936 143.678 25.904 143.23 25.904C142.686 25.904 141.646 25.936 140.11 26V25.496C140.59 25.496 140.926 25.376 141.118 25.136C141.31 24.88 141.406 24.424 141.406 23.768V16.304C141.406 15.648 141.294 15.152 141.07 14.816C140.862 14.48 140.478 14.312 139.918 14.312C139.246 14.312 138.678 14.576 138.214 15.104C137.766 15.616 137.542 16.272 137.542 17.072V23.768C137.542 24.424 137.638 24.88 137.83 25.136C138.022 25.376 138.358 25.496 138.838 25.496V26C137.302 25.936 136.31 25.904 135.862 25.904C135.318 25.904 134.214 25.936 132.55 26V25.496C133.11 25.496 133.502 25.376 133.726 25.136C133.966 24.88 134.086 24.424 134.086 23.768V10.112C134.086 9.376 133.966 8.84 133.726 8.504C133.502 8.168 133.11 8 132.55 8V7.496C133.062 7.544 133.558 7.568 134.038 7.568C135.43 7.568 136.598 7.456 137.542 7.232V15.488Z" fill="#CE8200"/>
<path d="M51.624 59.614C52.158 59.614 52.635 59.524 53.055 59.344C53.475 59.164 53.829 58.912 54.117 58.588C54.411 58.264 54.633 57.877 54.783 57.427C54.939 56.977 55.017 56.482 55.017 55.942V48.103H56.754V55.942C56.754 56.686 56.634 57.376 56.394 58.012C56.16 58.648 55.821 59.2 55.377 59.668C54.939 60.13 54.402 60.493 53.766 60.757C53.13 61.021 52.416 61.153 51.624 61.153C50.832 61.153 50.118 61.021 49.482 60.757C48.846 60.493 48.306 60.13 47.862 59.668C47.418 59.2 47.076 58.648 46.836 58.012C46.602 57.376 46.485 56.686 46.485 55.942V48.103H48.222V55.933C48.222 56.473 48.297 56.968 48.447 57.418C48.603 57.868 48.825 58.255 49.113 58.579C49.407 58.903 49.764 59.158 50.184 59.344C50.61 59.524 51.09 59.614 51.624 59.614ZM64.3759 53.386C64.3039 53.518 64.1929 53.584 64.0429 53.584C63.9529 53.584 63.8509 53.551 63.7369 53.485C63.6229 53.419 63.4819 53.347 63.3139 53.269C63.1519 53.185 62.9569 53.11 62.7289 53.044C62.5009 52.972 62.2309 52.936 61.9189 52.936C61.6489 52.936 61.4059 52.972 61.1899 53.044C60.9739 53.11 60.7879 53.203 60.6319 53.323C60.4819 53.443 60.3649 53.584 60.2809 53.746C60.2029 53.902 60.1639 54.073 60.1639 54.259C60.1639 54.493 60.2299 54.688 60.3619 54.844C60.4999 55 60.6799 55.135 60.9019 55.249C61.1239 55.363 61.3759 55.465 61.6579 55.555C61.9399 55.639 62.2279 55.732 62.5219 55.834C62.8219 55.93 63.1129 56.038 63.3949 56.158C63.6769 56.278 63.9289 56.428 64.1509 56.608C64.3729 56.788 64.5499 57.01 64.6819 57.274C64.8199 57.532 64.8889 57.844 64.8889 58.21C64.8889 58.63 64.8139 59.02 64.6639 59.38C64.5139 59.734 64.2919 60.043 63.9979 60.307C63.7039 60.565 63.3439 60.769 62.9179 60.919C62.4919 61.069 61.9999 61.144 61.4419 61.144C60.8059 61.144 60.2299 61.042 59.7139 60.838C59.1979 60.628 58.7599 60.361 58.3999 60.037L58.7779 59.425C58.8259 59.347 58.8829 59.287 58.9489 59.245C59.0149 59.203 59.0989 59.182 59.2009 59.182C59.3089 59.182 59.4229 59.224 59.5429 59.308C59.6629 59.392 59.8069 59.485 59.9749 59.587C60.1489 59.689 60.3589 59.782 60.6049 59.866C60.8509 59.95 61.1569 59.992 61.5229 59.992C61.8349 59.992 62.1079 59.953 62.3419 59.875C62.5759 59.791 62.7709 59.68 62.9269 59.542C63.0829 59.404 63.1969 59.245 63.2689 59.065C63.3469 58.885 63.3859 58.693 63.3859 58.489C63.3859 58.237 63.3169 58.03 63.1789 57.868C63.0469 57.7 62.8699 57.559 62.6479 57.445C62.4259 57.325 62.1709 57.223 61.8829 57.139C61.6009 57.049 61.3099 56.956 61.0099 56.86C60.7159 56.764 60.4249 56.656 60.1369 56.536C59.8549 56.41 59.6029 56.254 59.3809 56.068C59.1589 55.882 58.9789 55.654 58.8409 55.384C58.7089 55.108 58.6429 54.775 58.6429 54.385C58.6429 54.037 58.7149 53.704 58.8589 53.386C59.0029 53.062 59.2129 52.78 59.4889 52.54C59.7649 52.294 60.1039 52.099 60.5059 51.955C60.9079 51.811 61.3669 51.739 61.8829 51.739C62.4829 51.739 63.0199 51.835 63.4939 52.027C63.9739 52.213 64.3879 52.471 64.7359 52.801L64.3759 53.386ZM72.955 55.447C72.955 55.075 72.901 54.736 72.793 54.43C72.691 54.118 72.538 53.851 72.334 53.629C72.136 53.401 71.893 53.227 71.605 53.107C71.317 52.981 70.99 52.918 70.624 52.918C69.856 52.918 69.247 53.143 68.797 53.593C68.353 54.037 68.077 54.655 67.969 55.447H72.955ZM74.251 59.722C74.053 59.962 73.816 60.172 73.54 60.352C73.264 60.526 72.967 60.67 72.649 60.784C72.337 60.898 72.013 60.982 71.677 61.036C71.341 61.096 71.008 61.126 70.678 61.126C70.048 61.126 69.466 61.021 68.932 60.811C68.404 60.595 67.945 60.283 67.555 59.875C67.171 59.461 66.871 58.951 66.655 58.345C66.439 57.739 66.331 57.043 66.331 56.257C66.331 55.621 66.427 55.027 66.619 54.475C66.817 53.923 67.099 53.446 67.465 53.044C67.831 52.636 68.278 52.318 68.806 52.09C69.334 51.856 69.928 51.739 70.588 51.739C71.134 51.739 71.638 51.832 72.1 52.018C72.568 52.198 72.97 52.462 73.306 52.81C73.648 53.152 73.915 53.578 74.107 54.088C74.299 54.592 74.395 55.168 74.395 55.816C74.395 56.068 74.368 56.236 74.314 56.32C74.26 56.404 74.158 56.446 74.008 56.446H67.915C67.933 57.022 68.011 57.523 68.149 57.949C68.293 58.375 68.491 58.732 68.743 59.02C68.995 59.302 69.295 59.515 69.643 59.659C69.991 59.797 70.381 59.866 70.813 59.866C71.215 59.866 71.56 59.821 71.848 59.731C72.142 59.635 72.394 59.533 72.604 59.425C72.814 59.317 72.988 59.218 73.126 59.128C73.27 59.032 73.393 58.984 73.495 58.984C73.627 58.984 73.729 59.035 73.801 59.137L74.251 59.722ZM77.8838 53.71C78.1718 53.086 78.5258 52.6 78.9458 52.252C79.3658 51.898 79.8788 51.721 80.4848 51.721C80.6768 51.721 80.8598 51.742 81.0338 51.784C81.2138 51.826 81.3728 51.892 81.5108 51.982L81.3938 53.179C81.3578 53.329 81.2678 53.404 81.1238 53.404C81.0398 53.404 80.9168 53.386 80.7548 53.35C80.5928 53.314 80.4098 53.296 80.2058 53.296C79.9178 53.296 79.6598 53.338 79.4318 53.422C79.2098 53.506 79.0088 53.632 78.8288 53.8C78.6548 53.962 78.4958 54.166 78.3518 54.412C78.2138 54.652 78.0878 54.928 77.9738 55.24V61H76.3628V51.883H77.2808C77.4548 51.883 77.5748 51.916 77.6408 51.982C77.7068 52.048 77.7518 52.162 77.7758 52.324L77.8838 53.71ZM88.8301 51.883V61H87.2281V51.883H88.8301ZM89.1721 49.021C89.1721 49.177 89.1391 49.324 89.0731 49.462C89.0131 49.594 88.9291 49.714 88.8211 49.822C88.7191 49.924 88.5961 50.005 88.4521 50.065C88.3141 50.125 88.1671 50.155 88.0111 50.155C87.8551 50.155 87.7081 50.125 87.5701 50.065C87.4381 50.005 87.3211 49.924 87.2191 49.822C87.1171 49.714 87.0361 49.594 86.9761 49.462C86.9161 49.324 86.8861 49.177 86.8861 49.021C86.8861 48.865 86.9161 48.718 86.9761 48.58C87.0361 48.436 87.1171 48.313 87.2191 48.211C87.3211 48.103 87.4381 48.019 87.5701 47.959C87.7081 47.899 87.8551 47.869 88.0111 47.869C88.1671 47.869 88.3141 47.899 88.4521 47.959C88.5961 48.019 88.7191 48.103 88.8211 48.211C88.9291 48.313 89.0131 48.436 89.0731 48.58C89.1391 48.718 89.1721 48.865 89.1721 49.021ZM92.9744 53.206C93.1724 52.984 93.3824 52.783 93.6044 52.603C93.8264 52.423 94.0604 52.27 94.3064 52.144C94.5584 52.012 94.8224 51.913 95.0984 51.847C95.3804 51.775 95.6834 51.739 96.0074 51.739C96.5054 51.739 96.9434 51.823 97.3214 51.991C97.7054 52.153 98.0234 52.387 98.2754 52.693C98.5334 52.993 98.7284 53.356 98.8604 53.782C98.9924 54.208 99.0584 54.679 99.0584 55.195V61H97.4474V55.195C97.4474 54.505 97.2884 53.971 96.9704 53.593C96.6584 53.209 96.1814 53.017 95.5394 53.017C95.0654 53.017 94.6214 53.131 94.2074 53.359C93.7994 53.587 93.4214 53.896 93.0734 54.286V61H91.4624V51.883H92.4254C92.6534 51.883 92.7944 51.994 92.8484 52.216L92.9744 53.206ZM104.175 61.144C103.455 61.144 102.9 60.943 102.51 60.541C102.126 60.139 101.934 59.56 101.934 58.804V53.224H100.836C100.74 53.224 100.659 53.197 100.593 53.143C100.527 53.083 100.494 52.993 100.494 52.873V52.234L101.988 52.045L102.357 49.228C102.375 49.138 102.414 49.066 102.474 49.012C102.54 48.952 102.624 48.922 102.726 48.922H103.536V52.063H106.173V53.224H103.536V58.696C103.536 59.08 103.629 59.365 103.815 59.551C104.001 59.737 104.241 59.83 104.535 59.83C104.703 59.83 104.847 59.809 104.967 59.767C105.093 59.719 105.201 59.668 105.291 59.614C105.381 59.56 105.456 59.512 105.516 59.47C105.582 59.422 105.639 59.398 105.687 59.398C105.771 59.398 105.846 59.449 105.912 59.551L106.38 60.316C106.104 60.574 105.771 60.778 105.381 60.928C104.991 61.072 104.589 61.144 104.175 61.144ZM113.877 55.447C113.877 55.075 113.823 54.736 113.715 54.43C113.613 54.118 113.46 53.851 113.256 53.629C113.058 53.401 112.815 53.227 112.527 53.107C112.239 52.981 111.912 52.918 111.546 52.918C110.778 52.918 110.169 53.143 109.719 53.593C109.275 54.037 108.999 54.655 108.891 55.447H113.877ZM115.173 59.722C114.975 59.962 114.738 60.172 114.462 60.352C114.186 60.526 113.889 60.67 113.571 60.784C113.259 60.898 112.935 60.982 112.599 61.036C112.263 61.096 111.93 61.126 111.6 61.126C110.97 61.126 110.388 61.021 109.854 60.811C109.326 60.595 108.867 60.283 108.477 59.875C108.093 59.461 107.793 58.951 107.577 58.345C107.361 57.739 107.253 57.043 107.253 56.257C107.253 55.621 107.349 55.027 107.541 54.475C107.739 53.923 108.021 53.446 108.387 53.044C108.753 52.636 109.2 52.318 109.728 52.09C110.256 51.856 110.85 51.739 111.51 51.739C112.056 51.739 112.56 51.832 113.022 52.018C113.49 52.198 113.892 52.462 114.228 52.81C114.57 53.152 114.837 53.578 115.029 54.088C115.221 54.592 115.317 55.168 115.317 55.816C115.317 56.068 115.29 56.236 115.236 56.32C115.182 56.404 115.08 56.446 114.93 56.446H108.837C108.855 57.022 108.933 57.523 109.071 57.949C109.215 58.375 109.413 58.732 109.665 59.02C109.917 59.302 110.217 59.515 110.565 59.659C110.913 59.797 111.303 59.866 111.735 59.866C112.137 59.866 112.482 59.821 112.77 59.731C113.064 59.635 113.316 59.533 113.526 59.425C113.736 59.317 113.91 59.218 114.048 59.128C114.192 59.032 114.315 58.984 114.417 58.984C114.549 58.984 114.651 59.035 114.723 59.137L115.173 59.722ZM118.806 53.71C119.094 53.086 119.448 52.6 119.868 52.252C120.288 51.898 120.801 51.721 121.407 51.721C121.599 51.721 121.782 51.742 121.956 51.784C122.136 51.826 122.295 51.892 122.433 51.982L122.316 53.179C122.28 53.329 122.19 53.404 122.046 53.404C121.962 53.404 121.839 53.386 121.677 53.35C121.515 53.314 121.332 53.296 121.128 53.296C120.84 53.296 120.582 53.338 120.354 53.422C120.132 53.506 119.931 53.632 119.751 53.8C119.577 53.962 119.418 54.166 119.274 54.412C119.136 54.652 119.01 54.928 118.896 55.24V61H117.285V51.883H118.203C118.377 51.883 118.497 51.916 118.563 51.982C118.629 52.048 118.674 52.162 118.698 52.324L118.806 53.71ZM131.653 51.883L127.936 61H126.496L122.779 51.883H124.084C124.216 51.883 124.324 51.916 124.408 51.982C124.492 52.048 124.549 52.126 124.579 52.216L126.892 58.084C126.964 58.306 127.027 58.522 127.081 58.732C127.135 58.942 127.186 59.152 127.234 59.362C127.282 59.152 127.333 58.942 127.387 58.732C127.441 58.522 127.507 58.306 127.585 58.084L129.925 52.216C129.961 52.12 130.021 52.042 130.105 51.982C130.189 51.916 130.288 51.883 130.402 51.883H131.653ZM134.815 51.883V61H133.213V51.883H134.815ZM135.157 49.021C135.157 49.177 135.124 49.324 135.058 49.462C134.998 49.594 134.914 49.714 134.806 49.822C134.704 49.924 134.581 50.005 134.437 50.065C134.299 50.125 134.152 50.155 133.996 50.155C133.84 50.155 133.693 50.125 133.555 50.065C133.423 50.005 133.306 49.924 133.204 49.822C133.102 49.714 133.021 49.594 132.961 49.462C132.901 49.324 132.871 49.177 132.871 49.021C132.871 48.865 132.901 48.718 132.961 48.58C133.021 48.436 133.102 48.313 133.204 48.211C133.306 48.103 133.423 48.019 133.555 47.959C133.693 47.899 133.84 47.869 133.996 47.869C134.152 47.869 134.299 47.899 134.437 47.959C134.581 48.019 134.704 48.103 134.806 48.211C134.914 48.313 134.998 48.436 135.058 48.58C135.124 48.718 135.157 48.865 135.157 49.021ZM143.549 55.447C143.549 55.075 143.495 54.736 143.387 54.43C143.285 54.118 143.132 53.851 142.928 53.629C142.73 53.401 142.487 53.227 142.199 53.107C141.911 52.981 141.584 52.918 141.218 52.918C140.45 52.918 139.841 53.143 139.391 53.593C138.947 54.037 138.671 54.655 138.563 55.447H143.549ZM144.845 59.722C144.647 59.962 144.41 60.172 144.134 60.352C143.858 60.526 143.561 60.67 143.243 60.784C142.931 60.898 142.607 60.982 142.271 61.036C141.935 61.096 141.602 61.126 141.272 61.126C140.642 61.126 140.06 61.021 139.526 60.811C138.998 60.595 138.539 60.283 138.149 59.875C137.765 59.461 137.465 58.951 137.249 58.345C137.033 57.739 136.925 57.043 136.925 56.257C136.925 55.621 137.021 55.027 137.213 54.475C137.411 53.923 137.693 53.446 138.059 53.044C138.425 52.636 138.872 52.318 139.4 52.09C139.928 51.856 140.522 51.739 141.182 51.739C141.728 51.739 142.232 51.832 142.694 52.018C143.162 52.198 143.564 52.462 143.9 52.81C144.242 53.152 144.509 53.578 144.701 54.088C144.893 54.592 144.989 55.168 144.989 55.816C144.989 56.068 144.962 56.236 144.908 56.32C144.854 56.404 144.752 56.446 144.602 56.446H138.509C138.527 57.022 138.605 57.523 138.743 57.949C138.887 58.375 139.085 58.732 139.337 59.02C139.589 59.302 139.889 59.515 140.237 59.659C140.585 59.797 140.975 59.866 141.407 59.866C141.809 59.866 142.154 59.821 142.442 59.731C142.736 59.635 142.988 59.533 143.198 59.425C143.408 59.317 143.582 59.218 143.72 59.128C143.864 59.032 143.987 58.984 144.089 58.984C144.221 58.984 144.323 59.035 144.395 59.137L144.845 59.722ZM159.442 51.883L156.49 61H155.221C155.065 61 154.957 60.898 154.897 60.694L152.881 54.511C152.833 54.373 152.794 54.235 152.764 54.097C152.734 53.953 152.704 53.812 152.674 53.674C152.644 53.812 152.614 53.953 152.584 54.097C152.554 54.235 152.515 54.376 152.467 54.52L150.415 60.694C150.361 60.898 150.241 61 150.055 61H148.849L145.897 51.883H147.157C147.283 51.883 147.388 51.916 147.472 51.982C147.562 52.048 147.622 52.126 147.652 52.216L149.398 58.084C149.5 58.516 149.581 58.924 149.641 59.308C149.695 59.11 149.749 58.909 149.803 58.705C149.863 58.501 149.926 58.294 149.992 58.084L151.918 52.18C151.948 52.09 151.999 52.015 152.071 51.955C152.149 51.895 152.242 51.865 152.35 51.865H153.052C153.172 51.865 153.271 51.895 153.349 51.955C153.427 52.015 153.481 52.09 153.511 52.18L155.392 58.084C155.458 58.294 155.518 58.501 155.572 58.705C155.626 58.909 155.677 59.11 155.725 59.308C155.755 59.11 155.791 58.912 155.833 58.714C155.881 58.51 155.932 58.3 155.986 58.084L157.768 52.216C157.798 52.12 157.855 52.042 157.939 51.982C158.023 51.916 158.122 51.883 158.236 51.883H159.442ZM166.241 53.386C166.169 53.518 166.058 53.584 165.908 53.584C165.818 53.584 165.716 53.551 165.602 53.485C165.488 53.419 165.347 53.347 165.179 53.269C165.017 53.185 164.822 53.11 164.594 53.044C164.366 52.972 164.096 52.936 163.784 52.936C163.514 52.936 163.271 52.972 163.055 53.044C162.839 53.11 162.653 53.203 162.497 53.323C162.347 53.443 162.23 53.584 162.146 53.746C162.068 53.902 162.029 54.073 162.029 54.259C162.029 54.493 162.095 54.688 162.227 54.844C162.365 55 162.545 55.135 162.767 55.249C162.989 55.363 163.241 55.465 163.523 55.555C163.805 55.639 164.093 55.732 164.387 55.834C164.687 55.93 164.978 56.038 165.26 56.158C165.542 56.278 165.794 56.428 166.016 56.608C166.238 56.788 166.415 57.01 166.547 57.274C166.685 57.532 166.754 57.844 166.754 58.21C166.754 58.63 166.679 59.02 166.529 59.38C166.379 59.734 166.157 60.043 165.863 60.307C165.569 60.565 165.209 60.769 164.783 60.919C164.357 61.069 163.865 61.144 163.307 61.144C162.671 61.144 162.095 61.042 161.579 60.838C161.063 60.628 160.625 60.361 160.265 60.037L160.643 59.425C160.691 59.347 160.748 59.287 160.814 59.245C160.88 59.203 160.964 59.182 161.066 59.182C161.174 59.182 161.288 59.224 161.408 59.308C161.528 59.392 161.672 59.485 161.84 59.587C162.014 59.689 162.224 59.782 162.47 59.866C162.716 59.95 163.022 59.992 163.388 59.992C163.7 59.992 163.973 59.953 164.207 59.875C164.441 59.791 164.636 59.68 164.792 59.542C164.948 59.404 165.062 59.245 165.134 59.065C165.212 58.885 165.251 58.693 165.251 58.489C165.251 58.237 165.182 58.03 165.044 57.868C164.912 57.7 164.735 57.559 164.513 57.445C164.291 57.325 164.036 57.223 163.748 57.139C163.466 57.049 163.175 56.956 162.875 56.86C162.581 56.764 162.29 56.656 162.002 56.536C161.72 56.41 161.468 56.254 161.246 56.068C161.024 55.882 160.844 55.654 160.706 55.384C160.574 55.108 160.508 54.775 160.508 54.385C160.508 54.037 160.58 53.704 160.724 53.386C160.868 53.062 161.078 52.78 161.354 52.54C161.63 52.294 161.969 52.099 162.371 51.955C162.773 51.811 163.232 51.739 163.748 51.739C164.348 51.739 164.885 51.835 165.359 52.027C165.839 52.213 166.253 52.471 166.601 52.801L166.241 53.386ZM54.603 93.578L54.594 95H46.647V82.103H54.594V83.525H48.393V87.809H53.415V89.177H48.393V93.578H54.603ZM56.4116 95V85.883H57.3746C57.6026 85.883 57.7436 85.994 57.7976 86.216L57.9146 87.152C58.2506 86.738 58.6286 86.399 59.0486 86.135C59.4686 85.871 59.9546 85.739 60.5066 85.739C61.1186 85.739 61.6136 85.91 61.9916 86.252C62.3756 86.594 62.6516 87.056 62.8196 87.638C62.9516 87.308 63.1196 87.023 63.3236 86.783C63.5336 86.543 63.7676 86.345 64.0256 86.189C64.2836 86.033 64.5566 85.919 64.8446 85.847C65.1386 85.775 65.4356 85.739 65.7356 85.739C66.2156 85.739 66.6416 85.817 67.0136 85.973C67.3916 86.123 67.7096 86.345 67.9676 86.639C68.2316 86.933 68.4326 87.296 68.5706 87.728C68.7086 88.154 68.7776 88.643 68.7776 89.195V95H67.1666V89.195C67.1666 88.481 67.0106 87.941 66.6986 87.575C66.3866 87.203 65.9366 87.017 65.3486 87.017C65.0846 87.017 64.8326 87.065 64.5926 87.161C64.3586 87.251 64.1516 87.386 63.9716 87.566C63.7916 87.746 63.6476 87.974 63.5396 88.25C63.4376 88.52 63.3866 88.835 63.3866 89.195V95H61.7756V89.195C61.7756 88.463 61.6286 87.917 61.3346 87.557C61.0406 87.197 60.6116 87.017 60.0476 87.017C59.6516 87.017 59.2856 87.125 58.9496 87.341C58.6136 87.551 58.3046 87.839 58.0226 88.205V95H56.4116ZM72.8234 92.804C73.1174 93.2 73.4384 93.479 73.7864 93.641C74.1344 93.803 74.5244 93.884 74.9564 93.884C75.8084 93.884 76.4624 93.581 76.9184 92.975C77.3744 92.369 77.6024 91.505 77.6024 90.383C77.6024 89.789 77.5484 89.279 77.4404 88.853C77.3384 88.427 77.1884 88.079 76.9904 87.809C76.7924 87.533 76.5494 87.332 76.2614 87.206C75.9734 87.08 75.6464 87.017 75.2804 87.017C74.7584 87.017 74.2994 87.137 73.9034 87.377C73.5134 87.617 73.1534 87.956 72.8234 88.394V92.804ZM72.7424 87.296C73.1264 86.822 73.5704 86.441 74.0744 86.153C74.5784 85.865 75.1544 85.721 75.8024 85.721C76.3304 85.721 76.8074 85.823 77.2334 86.027C77.6594 86.225 78.0224 86.522 78.3224 86.918C78.6224 87.308 78.8534 87.794 79.0154 88.376C79.1774 88.958 79.2584 89.627 79.2584 90.383C79.2584 91.055 79.1684 91.682 78.9884 92.264C78.8084 92.84 78.5474 93.341 78.2054 93.767C77.8694 94.187 77.4554 94.52 76.9634 94.766C76.4774 95.006 75.9284 95.126 75.3164 95.126C74.7584 95.126 74.2784 95.033 73.8764 94.847C73.4804 94.655 73.1294 94.391 72.8234 94.055V98.087H71.2124V85.883H72.1754C72.4034 85.883 72.5444 85.994 72.5984 86.216L72.7424 87.296ZM86.2432 90.896C85.5052 90.92 84.8752 90.98 84.3532 91.076C83.8372 91.166 83.4142 91.286 83.0842 91.436C82.7602 91.586 82.5232 91.763 82.3732 91.967C82.2292 92.171 82.1572 92.399 82.1572 92.651C82.1572 92.891 82.1962 93.098 82.2742 93.272C82.3522 93.446 82.4572 93.59 82.5892 93.704C82.7272 93.812 82.8862 93.893 83.0662 93.947C83.2522 93.995 83.4502 94.019 83.6602 94.019C83.9422 94.019 84.2002 93.992 84.4342 93.938C84.6682 93.878 84.8872 93.794 85.0912 93.686C85.3012 93.578 85.4992 93.449 85.6852 93.299C85.8772 93.149 86.0632 92.978 86.2432 92.786V90.896ZM81.0682 87.17C81.5722 86.684 82.1152 86.321 82.6972 86.081C83.2792 85.841 83.9242 85.721 84.6322 85.721C85.1422 85.721 85.5952 85.805 85.9912 85.973C86.3872 86.141 86.7202 86.375 86.9902 86.675C87.2602 86.975 87.4642 87.338 87.6022 87.764C87.7402 88.19 87.8092 88.658 87.8092 89.168V95H87.0982C86.9422 95 86.8222 94.976 86.7382 94.928C86.6542 94.874 86.5882 94.772 86.5402 94.622L86.3602 93.758C86.1202 93.98 85.8862 94.178 85.6582 94.352C85.4302 94.52 85.1902 94.664 84.9382 94.784C84.6862 94.898 84.4162 94.985 84.1282 95.045C83.8462 95.111 83.5312 95.144 83.1832 95.144C82.8292 95.144 82.4962 95.096 82.1842 95C81.8722 94.898 81.5992 94.748 81.3652 94.55C81.1372 94.352 80.9542 94.103 80.8162 93.803C80.6842 93.497 80.6182 93.137 80.6182 92.723C80.6182 92.363 80.7172 92.018 80.9152 91.688C81.1132 91.352 81.4342 91.055 81.8782 90.797C82.3222 90.539 82.9012 90.329 83.6152 90.167C84.3292 89.999 85.2052 89.903 86.2432 89.879V89.168C86.2432 88.46 86.0902 87.926 85.7842 87.566C85.4782 87.2 85.0312 87.017 84.4432 87.017C84.0472 87.017 83.7142 87.068 83.4442 87.17C83.1802 87.266 82.9492 87.377 82.7512 87.503C82.5592 87.623 82.3912 87.734 82.2472 87.836C82.1092 87.932 81.9712 87.98 81.8332 87.98C81.7252 87.98 81.6322 87.953 81.5542 87.899C81.4762 87.839 81.4102 87.767 81.3562 87.683L81.0682 87.17ZM92.9254 95.144C92.2054 95.144 91.6504 94.943 91.2604 94.541C90.8764 94.139 90.6844 93.56 90.6844 92.804V87.224H89.5864C89.4904 87.224 89.4094 87.197 89.3434 87.143C89.2774 87.083 89.2444 86.993 89.2444 86.873V86.234L90.7384 86.045L91.1074 83.228C91.1254 83.138 91.1644 83.066 91.2244 83.012C91.2904 82.952 91.3744 82.922 91.4764 82.922H92.2864V86.063H94.9234V87.224H92.2864V92.696C92.2864 93.08 92.3794 93.365 92.5654 93.551C92.7514 93.737 92.9914 93.83 93.2854 93.83C93.4534 93.83 93.5974 93.809 93.7174 93.767C93.8434 93.719 93.9514 93.668 94.0414 93.614C94.1314 93.56 94.2064 93.512 94.2664 93.47C94.3324 93.422 94.3894 93.398 94.4374 93.398C94.5214 93.398 94.5964 93.449 94.6624 93.551L95.1304 94.316C94.8544 94.574 94.5214 94.778 94.1314 94.928C93.7414 95.072 93.3394 95.144 92.9254 95.144ZM98.1886 87.098C98.5786 86.684 99.0106 86.354 99.4846 86.108C99.9586 85.862 100.505 85.739 101.123 85.739C101.621 85.739 102.059 85.823 102.437 85.991C102.821 86.153 103.139 86.387 103.391 86.693C103.649 86.993 103.844 87.356 103.976 87.782C104.108 88.208 104.174 88.679 104.174 89.195V95H102.563V89.195C102.563 88.505 102.404 87.971 102.086 87.593C101.774 87.209 101.297 87.017 100.655 87.017C100.181 87.017 99.7366 87.131 99.3226 87.359C98.9146 87.587 98.5366 87.896 98.1886 88.286V95H96.5776V81.743H98.1886V87.098ZM114.252 85.883L109.167 97.691C109.113 97.811 109.044 97.907 108.96 97.979C108.882 98.051 108.759 98.087 108.591 98.087H107.403L109.068 94.469L105.306 85.883H106.692C106.83 85.883 106.938 85.919 107.016 85.991C107.1 86.057 107.157 86.132 107.187 86.216L109.626 91.958C109.722 92.21 109.803 92.474 109.869 92.75C109.953 92.468 110.043 92.201 110.139 91.949L112.506 86.216C112.542 86.12 112.602 86.042 112.686 85.982C112.776 85.916 112.875 85.883 112.983 85.883H114.252ZM119.833 95V85.883H120.796C121.024 85.883 121.165 85.994 121.219 86.216L121.336 87.152C121.672 86.738 122.05 86.399 122.47 86.135C122.89 85.871 123.376 85.739 123.928 85.739C124.54 85.739 125.035 85.91 125.413 86.252C125.797 86.594 126.073 87.056 126.241 87.638C126.373 87.308 126.541 87.023 126.745 86.783C126.955 86.543 127.189 86.345 127.447 86.189C127.705 86.033 127.978 85.919 128.266 85.847C128.56 85.775 128.857 85.739 129.157 85.739C129.637 85.739 130.063 85.817 130.435 85.973C130.813 86.123 131.131 86.345 131.389 86.639C131.653 86.933 131.854 87.296 131.992 87.728C132.13 88.154 132.199 88.643 132.199 89.195V95H130.588V89.195C130.588 88.481 130.432 87.941 130.12 87.575C129.808 87.203 129.358 87.017 128.77 87.017C128.506 87.017 128.254 87.065 128.014 87.161C127.78 87.251 127.573 87.386 127.393 87.566C127.213 87.746 127.069 87.974 126.961 88.25C126.859 88.52 126.808 88.835 126.808 89.195V95H125.197V89.195C125.197 88.463 125.05 87.917 124.756 87.557C124.462 87.197 124.033 87.017 123.469 87.017C123.073 87.017 122.707 87.125 122.371 87.341C122.035 87.551 121.726 87.839 121.444 88.205V95H119.833ZM139.575 90.896C138.837 90.92 138.207 90.98 137.685 91.076C137.169 91.166 136.746 91.286 136.416 91.436C136.092 91.586 135.855 91.763 135.705 91.967C135.561 92.171 135.489 92.399 135.489 92.651C135.489 92.891 135.528 93.098 135.606 93.272C135.684 93.446 135.789 93.59 135.921 93.704C136.059 93.812 136.218 93.893 136.398 93.947C136.584 93.995 136.782 94.019 136.992 94.019C137.274 94.019 137.532 93.992 137.766 93.938C138 93.878 138.219 93.794 138.423 93.686C138.633 93.578 138.831 93.449 139.017 93.299C139.209 93.149 139.395 92.978 139.575 92.786V90.896ZM134.4 87.17C134.904 86.684 135.447 86.321 136.029 86.081C136.611 85.841 137.256 85.721 137.964 85.721C138.474 85.721 138.927 85.805 139.323 85.973C139.719 86.141 140.052 86.375 140.322 86.675C140.592 86.975 140.796 87.338 140.934 87.764C141.072 88.19 141.141 88.658 141.141 89.168V95H140.43C140.274 95 140.154 94.976 140.07 94.928C139.986 94.874 139.92 94.772 139.872 94.622L139.692 93.758C139.452 93.98 139.218 94.178 138.99 94.352C138.762 94.52 138.522 94.664 138.27 94.784C138.018 94.898 137.748 94.985 137.46 95.045C137.178 95.111 136.863 95.144 136.515 95.144C136.161 95.144 135.828 95.096 135.516 95C135.204 94.898 134.931 94.748 134.697 94.55C134.469 94.352 134.286 94.103 134.148 93.803C134.016 93.497 133.95 93.137 133.95 92.723C133.95 92.363 134.049 92.018 134.247 91.688C134.445 91.352 134.766 91.055 135.21 90.797C135.654 90.539 136.233 90.329 136.947 90.167C137.661 89.999 138.537 89.903 139.575 89.879V89.168C139.575 88.46 139.422 87.926 139.116 87.566C138.81 87.2 138.363 87.017 137.775 87.017C137.379 87.017 137.046 87.068 136.776 87.17C136.512 87.266 136.281 87.377 136.083 87.503C135.891 87.623 135.723 87.734 135.579 87.836C135.441 87.932 135.303 87.98 135.165 87.98C135.057 87.98 134.964 87.953 134.886 87.899C134.808 87.839 134.742 87.767 134.688 87.683L134.4 87.17ZM145.193 92.804C145.487 93.2 145.808 93.479 146.156 93.641C146.504 93.803 146.894 93.884 147.326 93.884C148.178 93.884 148.832 93.581 149.288 92.975C149.744 92.369 149.972 91.505 149.972 90.383C149.972 89.789 149.918 89.279 149.81 88.853C149.708 88.427 149.558 88.079 149.36 87.809C149.162 87.533 148.919 87.332 148.631 87.206C148.343 87.08 148.016 87.017 147.65 87.017C147.128 87.017 146.669 87.137 146.273 87.377C145.883 87.617 145.523 87.956 145.193 88.394V92.804ZM145.112 87.296C145.496 86.822 145.94 86.441 146.444 86.153C146.948 85.865 147.524 85.721 148.172 85.721C148.7 85.721 149.177 85.823 149.603 86.027C150.029 86.225 150.392 86.522 150.692 86.918C150.992 87.308 151.223 87.794 151.385 88.376C151.547 88.958 151.628 89.627 151.628 90.383C151.628 91.055 151.538 91.682 151.357 92.264C151.178 92.84 150.917 93.341 150.575 93.767C150.239 94.187 149.825 94.52 149.333 94.766C148.847 95.006 148.298 95.126 147.686 95.126C147.128 95.126 146.648 95.033 146.246 94.847C145.85 94.655 145.499 94.391 145.193 94.055V98.087H143.582V85.883H144.545C144.773 85.883 144.914 85.994 144.968 86.216L145.112 87.296ZM55.701 126.336C55.797 126.336 55.881 126.375 55.953 126.453L56.646 127.2C56.118 127.812 55.476 128.289 54.72 128.631C53.97 128.973 53.061 129.144 51.993 129.144C51.069 129.144 50.229 128.985 49.473 128.667C48.717 128.343 48.072 127.893 47.538 127.317C47.004 126.735 46.59 126.039 46.296 125.229C46.002 124.419 45.855 123.528 45.855 122.556C45.855 121.584 46.008 120.693 46.314 119.883C46.62 119.073 47.049 118.377 47.601 117.795C48.159 117.213 48.825 116.763 49.599 116.445C50.373 116.121 51.228 115.959 52.164 115.959C53.082 115.959 53.892 116.106 54.594 116.4C55.296 116.694 55.914 117.093 56.448 117.597L55.872 118.398C55.836 118.458 55.788 118.509 55.728 118.551C55.674 118.587 55.599 118.605 55.503 118.605C55.395 118.605 55.263 118.548 55.107 118.434C54.951 118.314 54.747 118.182 54.495 118.038C54.243 117.894 53.928 117.765 53.55 117.651C53.172 117.531 52.707 117.471 52.155 117.471C51.489 117.471 50.88 117.588 50.328 117.822C49.776 118.05 49.299 118.383 48.897 118.821C48.501 119.259 48.192 119.793 47.97 120.423C47.748 121.053 47.637 121.764 47.637 122.556C47.637 123.36 47.751 124.077 47.979 124.707C48.213 125.337 48.528 125.871 48.924 126.309C49.326 126.741 49.797 127.071 50.337 127.299C50.883 127.527 51.471 127.641 52.101 127.641C52.485 127.641 52.83 127.62 53.136 127.578C53.448 127.53 53.733 127.458 53.991 127.362C54.255 127.266 54.498 127.146 54.72 127.002C54.948 126.852 55.173 126.675 55.395 126.471C55.497 126.381 55.599 126.336 55.701 126.336ZM61.9597 119.739C62.6257 119.739 63.2257 119.85 63.7597 120.072C64.2937 120.294 64.7497 120.609 65.1277 121.017C65.5057 121.425 65.7937 121.92 65.9917 122.502C66.1957 123.078 66.2977 123.723 66.2977 124.437C66.2977 125.157 66.1957 125.805 65.9917 126.381C65.7937 126.957 65.5057 127.449 65.1277 127.857C64.7497 128.265 64.2937 128.58 63.7597 128.802C63.2257 129.018 62.6257 129.126 61.9597 129.126C61.2877 129.126 60.6817 129.018 60.1417 128.802C59.6077 128.58 59.1517 128.265 58.7737 127.857C58.3957 127.449 58.1047 126.957 57.9007 126.381C57.7027 125.805 57.6037 125.157 57.6037 124.437C57.6037 123.723 57.7027 123.078 57.9007 122.502C58.1047 121.92 58.3957 121.425 58.7737 121.017C59.1517 120.609 59.6077 120.294 60.1417 120.072C60.6817 119.85 61.2877 119.739 61.9597 119.739ZM61.9597 127.875C62.8597 127.875 63.5317 127.575 63.9757 126.975C64.4197 126.369 64.6417 125.526 64.6417 124.446C64.6417 123.36 64.4197 122.514 63.9757 121.908C63.5317 121.302 62.8597 120.999 61.9597 120.999C61.5037 120.999 61.1047 121.077 60.7627 121.233C60.4267 121.389 60.1447 121.614 59.9167 121.908C59.6947 122.202 59.5267 122.565 59.4127 122.997C59.3047 123.423 59.2507 123.906 59.2507 124.446C59.2507 125.526 59.4727 126.369 59.9167 126.975C60.3667 127.575 61.0477 127.875 61.9597 127.875ZM68.3295 129V119.883H69.2925C69.5205 119.883 69.6615 119.994 69.7155 120.216L69.8325 121.152C70.1685 120.738 70.5465 120.399 70.9665 120.135C71.3865 119.871 71.8725 119.739 72.4245 119.739C73.0365 119.739 73.5315 119.91 73.9095 120.252C74.2935 120.594 74.5695 121.056 74.7375 121.638C74.8695 121.308 75.0375 121.023 75.2415 120.783C75.4515 120.543 75.6855 120.345 75.9435 120.189C76.2015 120.033 76.4745 119.919 76.7625 119.847C77.0565 119.775 77.3535 119.739 77.6535 119.739C78.1335 119.739 78.5595 119.817 78.9315 119.973C79.3095 120.123 79.6275 120.345 79.8855 120.639C80.1495 120.933 80.3505 121.296 80.4885 121.728C80.6265 122.154 80.6955 122.643 80.6955 123.195V129H79.0845V123.195C79.0845 122.481 78.9285 121.941 78.6165 121.575C78.3045 121.203 77.8545 121.017 77.2665 121.017C77.0025 121.017 76.7505 121.065 76.5105 121.161C76.2765 121.251 76.0695 121.386 75.8895 121.566C75.7095 121.746 75.5655 121.974 75.4575 122.25C75.3555 122.52 75.3045 122.835 75.3045 123.195V129H73.6935V123.195C73.6935 122.463 73.5465 121.917 73.2525 121.557C72.9585 121.197 72.5295 121.017 71.9655 121.017C71.5695 121.017 71.2035 121.125 70.8675 121.341C70.5315 121.551 70.2225 121.839 69.9405 122.205V129H68.3295ZM84.7413 126.804C85.0353 127.2 85.3563 127.479 85.7043 127.641C86.0523 127.803 86.4423 127.884 86.8743 127.884C87.7263 127.884 88.3803 127.581 88.8363 126.975C89.2923 126.369 89.5203 125.505 89.5203 124.383C89.5203 123.789 89.4663 123.279 89.3583 122.853C89.2563 122.427 89.1063 122.079 88.9083 121.809C88.7103 121.533 88.4673 121.332 88.1793 121.206C87.8913 121.08 87.5643 121.017 87.1983 121.017C86.6763 121.017 86.2173 121.137 85.8213 121.377C85.4313 121.617 85.0713 121.956 84.7413 122.394V126.804ZM84.6603 121.296C85.0443 120.822 85.4883 120.441 85.9923 120.153C86.4963 119.865 87.0723 119.721 87.7203 119.721C88.2483 119.721 88.7253 119.823 89.1513 120.027C89.5773 120.225 89.9403 120.522 90.2403 120.918C90.5403 121.308 90.7713 121.794 90.9333 122.376C91.0953 122.958 91.1763 123.627 91.1763 124.383C91.1763 125.055 91.0863 125.682 90.9063 126.264C90.7263 126.84 90.4653 127.341 90.1233 127.767C89.7873 128.187 89.3733 128.52 88.8813 128.766C88.3953 129.006 87.8463 129.126 87.2343 129.126C86.6763 129.126 86.1963 129.033 85.7943 128.847C85.3983 128.655 85.0473 128.391 84.7413 128.055V132.087H83.1303V119.883H84.0933C84.3213 119.883 84.4623 119.994 84.5163 120.216L84.6603 121.296ZM99.3222 123.447C99.3222 123.075 99.2682 122.736 99.1602 122.43C99.0582 122.118 98.9052 121.851 98.7012 121.629C98.5032 121.401 98.2602 121.227 97.9722 121.107C97.6842 120.981 97.3572 120.918 96.9912 120.918C96.2232 120.918 95.6142 121.143 95.1642 121.593C94.7202 122.037 94.4442 122.655 94.3362 123.447H99.3222ZM100.618 127.722C100.42 127.962 100.183 128.172 99.9072 128.352C99.6312 128.526 99.3342 128.67 99.0162 128.784C98.7042 128.898 98.3802 128.982 98.0442 129.036C97.7082 129.096 97.3752 129.126 97.0452 129.126C96.4152 129.126 95.8332 129.021 95.2992 128.811C94.7712 128.595 94.3122 128.283 93.9222 127.875C93.5382 127.461 93.2382 126.951 93.0222 126.345C92.8062 125.739 92.6982 125.043 92.6982 124.257C92.6982 123.621 92.7942 123.027 92.9862 122.475C93.1842 121.923 93.4662 121.446 93.8322 121.044C94.1982 120.636 94.6452 120.318 95.1732 120.09C95.7012 119.856 96.2952 119.739 96.9552 119.739C97.5012 119.739 98.0052 119.832 98.4672 120.018C98.9352 120.198 99.3372 120.462 99.6732 120.81C100.015 121.152 100.282 121.578 100.474 122.088C100.666 122.592 100.762 123.168 100.762 123.816C100.762 124.068 100.735 124.236 100.681 124.32C100.627 124.404 100.525 124.446 100.375 124.446H94.2822C94.3002 125.022 94.3782 125.523 94.5162 125.949C94.6602 126.375 94.8582 126.732 95.1102 127.02C95.3622 127.302 95.6622 127.515 96.0102 127.659C96.3582 127.797 96.7482 127.866 97.1802 127.866C97.5822 127.866 97.9272 127.821 98.2152 127.731C98.5092 127.635 98.7612 127.533 98.9712 127.425C99.1812 127.317 99.3552 127.218 99.4932 127.128C99.6372 127.032 99.7602 126.984 99.8622 126.984C99.9942 126.984 100.096 127.035 100.168 127.137L100.618 127.722ZM111.12 129H109.518V121.224H104.82V126.696C104.82 127.08 104.913 127.365 105.099 127.551C105.285 127.737 105.525 127.83 105.819 127.83C105.987 127.83 106.131 127.809 106.251 127.767C106.377 127.719 106.485 127.668 106.575 127.614C106.665 127.56 106.74 127.512 106.8 127.47C106.866 127.422 106.923 127.398 106.971 127.398C107.055 127.398 107.13 127.449 107.196 127.551L107.664 128.316C107.388 128.574 107.055 128.778 106.665 128.928C106.275 129.072 105.873 129.144 105.459 129.144C104.739 129.144 104.184 128.943 103.794 128.541C103.41 128.139 103.218 127.56 103.218 126.804V121.224H102.12C102.024 121.224 101.943 121.197 101.877 121.143C101.811 121.083 101.778 120.993 101.778 120.873V120.234L103.272 120.036L103.641 117.228C103.659 117.138 103.698 117.066 103.758 117.012C103.824 116.952 103.908 116.922 104.01 116.922H104.82V120.063H111.12V129ZM111.516 116.958C111.516 117.114 111.483 117.261 111.417 117.399C111.357 117.531 111.273 117.648 111.165 117.75C111.063 117.852 110.943 117.933 110.805 117.993C110.667 118.053 110.52 118.083 110.364 118.083C110.208 118.083 110.061 118.053 109.923 117.993C109.791 117.933 109.674 117.852 109.572 117.75C109.47 117.648 109.389 117.531 109.329 117.399C109.269 117.261 109.239 117.114 109.239 116.958C109.239 116.802 109.269 116.655 109.329 116.517C109.389 116.373 109.47 116.25 109.572 116.148C109.674 116.04 109.791 115.956 109.923 115.896C110.061 115.836 110.208 115.806 110.364 115.806C110.52 115.806 110.667 115.836 110.805 115.896C110.943 115.956 111.063 116.04 111.165 116.148C111.273 116.25 111.357 116.373 111.417 116.517C111.483 116.655 111.516 116.802 111.516 116.958ZM116.55 129.144C115.83 129.144 115.275 128.943 114.885 128.541C114.501 128.139 114.309 127.56 114.309 126.804V121.224H113.211C113.115 121.224 113.034 121.197 112.968 121.143C112.902 121.083 112.869 120.993 112.869 120.873V120.234L114.363 120.045L114.732 117.228C114.75 117.138 114.789 117.066 114.849 117.012C114.915 116.952 114.999 116.922 115.101 116.922H115.911V120.063H118.548V121.224H115.911V126.696C115.911 127.08 116.004 127.365 116.19 127.551C116.376 127.737 116.616 127.83 116.91 127.83C117.078 127.83 117.222 127.809 117.342 127.767C117.468 127.719 117.576 127.668 117.666 127.614C117.756 127.56 117.831 127.512 117.891 127.47C117.957 127.422 118.014 127.398 118.062 127.398C118.146 127.398 118.221 127.449 118.287 127.551L118.755 128.316C118.479 128.574 118.146 128.778 117.756 128.928C117.366 129.072 116.964 129.144 116.55 129.144ZM123.993 119.739C124.659 119.739 125.259 119.85 125.793 120.072C126.327 120.294 126.783 120.609 127.161 121.017C127.539 121.425 127.827 121.92 128.025 122.502C128.229 123.078 128.331 123.723 128.331 124.437C128.331 125.157 128.229 125.805 128.025 126.381C127.827 126.957 127.539 127.449 127.161 127.857C126.783 128.265 126.327 128.58 125.793 128.802C125.259 129.018 124.659 129.126 123.993 129.126C123.321 129.126 122.715 129.018 122.175 128.802C121.641 128.58 121.185 128.265 120.807 127.857C120.429 127.449 120.138 126.957 119.934 126.381C119.736 125.805 119.637 125.157 119.637 124.437C119.637 123.723 119.736 123.078 119.934 122.502C120.138 121.92 120.429 121.425 120.807 121.017C121.185 120.609 121.641 120.294 122.175 120.072C122.715 119.85 123.321 119.739 123.993 119.739ZM123.993 127.875C124.893 127.875 125.565 127.575 126.009 126.975C126.453 126.369 126.675 125.526 126.675 124.446C126.675 123.36 126.453 122.514 126.009 121.908C125.565 121.302 124.893 120.999 123.993 120.999C123.537 120.999 123.138 121.077 122.796 121.233C122.46 121.389 122.178 121.614 121.95 121.908C121.728 122.202 121.56 122.565 121.446 122.997C121.338 123.423 121.284 123.906 121.284 124.446C121.284 125.526 121.506 126.369 121.95 126.975C122.4 127.575 123.081 127.875 123.993 127.875ZM131.884 121.71C132.172 121.086 132.526 120.6 132.946 120.252C133.366 119.898 133.879 119.721 134.485 119.721C134.677 119.721 134.86 119.742 135.034 119.784C135.214 119.826 135.373 119.892 135.511 119.982L135.394 121.179C135.358 121.329 135.268 121.404 135.124 121.404C135.04 121.404 134.917 121.386 134.755 121.35C134.593 121.314 134.41 121.296 134.206 121.296C133.918 121.296 133.66 121.338 133.432 121.422C133.21 121.506 133.009 121.632 132.829 121.8C132.655 121.962 132.496 122.166 132.352 122.412C132.214 122.652 132.088 122.928 131.974 123.24V129H130.363V119.883H131.281C131.455 119.883 131.575 119.916 131.641 119.982C131.707 120.048 131.752 120.162 131.776 120.324L131.884 121.71ZM146.079 124.896C145.341 124.92 144.711 124.98 144.189 125.076C143.673 125.166 143.25 125.286 142.92 125.436C142.596 125.586 142.359 125.763 142.209 125.967C142.065 126.171 141.993 126.399 141.993 126.651C141.993 126.891 142.032 127.098 142.11 127.272C142.188 127.446 142.293 127.59 142.425 127.704C142.563 127.812 142.722 127.893 142.902 127.947C143.088 127.995 143.286 128.019 143.496 128.019C143.778 128.019 144.036 127.992 144.27 127.938C144.504 127.878 144.723 127.794 144.927 127.686C145.137 127.578 145.335 127.449 145.521 127.299C145.713 127.149 145.899 126.978 146.079 126.786V124.896ZM140.904 121.17C141.408 120.684 141.951 120.321 142.533 120.081C143.115 119.841 143.76 119.721 144.468 119.721C144.978 119.721 145.431 119.805 145.827 119.973C146.223 120.141 146.556 120.375 146.826 120.675C147.096 120.975 147.3 121.338 147.438 121.764C147.576 122.19 147.645 122.658 147.645 123.168V129H146.934C146.778 129 146.658 128.976 146.574 128.928C146.49 128.874 146.424 128.772 146.376 128.622L146.196 127.758C145.956 127.98 145.722 128.178 145.494 128.352C145.266 128.52 145.026 128.664 144.774 128.784C144.522 128.898 144.252 128.985 143.964 129.045C143.682 129.111 143.367 129.144 143.019 129.144C142.665 129.144 142.332 129.096 142.02 129C141.708 128.898 141.435 128.748 141.201 128.55C140.973 128.352 140.79 128.103 140.652 127.803C140.52 127.497 140.454 127.137 140.454 126.723C140.454 126.363 140.553 126.018 140.751 125.688C140.949 125.352 141.27 125.055 141.714 124.797C142.158 124.539 142.737 124.329 143.451 124.167C144.165 123.999 145.041 123.903 146.079 123.879V123.168C146.079 122.46 145.926 121.926 145.62 121.566C145.314 121.2 144.867 121.017 144.279 121.017C143.883 121.017 143.55 121.068 143.28 121.17C143.016 121.266 142.785 121.377 142.587 121.503C142.395 121.623 142.227 121.734 142.083 121.836C141.945 121.932 141.807 121.98 141.669 121.98C141.561 121.98 141.468 121.953 141.39 121.899C141.312 121.839 141.246 121.767 141.192 121.683L140.904 121.17ZM151.597 121.206C151.795 120.984 152.005 120.783 152.227 120.603C152.449 120.423 152.683 120.27 152.929 120.144C153.181 120.012 153.445 119.913 153.721 119.847C154.003 119.775 154.306 119.739 154.63 119.739C155.128 119.739 155.566 119.823 155.944 119.991C156.328 120.153 156.646 120.387 156.898 120.693C157.156 120.993 157.351 121.356 157.483 121.782C157.615 122.208 157.681 122.679 157.681 123.195V129H156.07V123.195C156.07 122.505 155.911 121.971 155.593 121.593C155.281 121.209 154.804 121.017 154.162 121.017C153.688 121.017 153.244 121.131 152.83 121.359C152.422 121.587 152.044 121.896 151.696 122.286V129H150.085V119.883H151.048C151.276 119.883 151.417 119.994 151.471 120.216L151.597 121.206ZM165.064 124.896C164.326 124.92 163.696 124.98 163.174 125.076C162.658 125.166 162.235 125.286 161.905 125.436C161.581 125.586 161.344 125.763 161.194 125.967C161.05 126.171 160.978 126.399 160.978 126.651C160.978 126.891 161.017 127.098 161.095 127.272C161.173 127.446 161.278 127.59 161.41 127.704C161.548 127.812 161.707 127.893 161.887 127.947C162.073 127.995 162.271 128.019 162.481 128.019C162.763 128.019 163.021 127.992 163.255 127.938C163.489 127.878 163.708 127.794 163.912 127.686C164.122 127.578 164.32 127.449 164.506 127.299C164.698 127.149 164.884 126.978 165.064 126.786V124.896ZM159.889 121.17C160.393 120.684 160.936 120.321 161.518 120.081C162.1 119.841 162.745 119.721 163.453 119.721C163.963 119.721 164.416 119.805 164.812 119.973C165.208 120.141 165.541 120.375 165.811 120.675C166.081 120.975 166.285 121.338 166.423 121.764C166.561 122.19 166.63 122.658 166.63 123.168V129H165.919C165.763 129 165.643 128.976 165.559 128.928C165.475 128.874 165.409 128.772 165.361 128.622L165.181 127.758C164.941 127.98 164.707 128.178 164.479 128.352C164.251 128.52 164.011 128.664 163.759 128.784C163.507 128.898 163.237 128.985 162.949 129.045C162.667 129.111 162.352 129.144 162.004 129.144C161.65 129.144 161.317 129.096 161.005 129C160.693 128.898 160.42 128.748 160.186 128.55C159.958 128.352 159.775 128.103 159.637 127.803C159.505 127.497 159.439 127.137 159.439 126.723C159.439 126.363 159.538 126.018 159.736 125.688C159.934 125.352 160.255 125.055 160.699 124.797C161.143 124.539 161.722 124.329 162.436 124.167C163.15 123.999 164.026 123.903 165.064 123.879V123.168C165.064 122.46 164.911 121.926 164.605 121.566C164.299 121.2 163.852 121.017 163.264 121.017C162.868 121.017 162.535 121.068 162.265 121.17C162.001 121.266 161.77 121.377 161.572 121.503C161.38 121.623 161.212 121.734 161.068 121.836C160.93 121.932 160.792 121.98 160.654 121.98C160.546 121.98 160.453 121.953 160.375 121.899C160.297 121.839 160.231 121.767 160.177 121.683L159.889 121.17ZM170.726 115.743V129H169.124V115.743H170.726ZM181.19 119.883L176.105 131.691C176.051 131.811 175.982 131.907 175.898 131.979C175.82 132.051 175.697 132.087 175.529 132.087H174.341L176.006 128.469L172.244 119.883H173.63C173.768 119.883 173.876 119.919 173.954 119.991C174.038 120.057 174.095 120.132 174.125 120.216L176.564 125.958C176.66 126.21 176.741 126.474 176.807 126.75C176.891 126.468 176.981 126.201 177.077 125.949L179.444 120.216C179.48 120.12 179.54 120.042 179.624 119.982C179.714 119.916 179.813 119.883 179.921 119.883H181.19ZM187.757 121.386C187.685 121.518 187.574 121.584 187.424 121.584C187.334 121.584 187.232 121.551 187.118 121.485C187.004 121.419 186.863 121.347 186.695 121.269C186.533 121.185 186.338 121.11 186.11 121.044C185.882 120.972 185.612 120.936 185.3 120.936C185.03 120.936 184.787 120.972 184.571 121.044C184.355 121.11 184.169 121.203 184.013 121.323C183.863 121.443 183.746 121.584 183.662 121.746C183.584 121.902 183.545 122.073 183.545 122.259C183.545 122.493 183.611 122.688 183.743 122.844C183.881 123 184.061 123.135 184.283 123.249C184.505 123.363 184.757 123.465 185.039 123.555C185.321 123.639 185.609 123.732 185.903 123.834C186.203 123.93 186.494 124.038 186.776 124.158C187.058 124.278 187.31 124.428 187.532 124.608C187.754 124.788 187.931 125.01 188.063 125.274C188.201 125.532 188.27 125.844 188.27 126.21C188.27 126.63 188.195 127.02 188.045 127.38C187.895 127.734 187.673 128.043 187.379 128.307C187.085 128.565 186.725 128.769 186.299 128.919C185.873 129.069 185.381 129.144 184.823 129.144C184.187 129.144 183.611 129.042 183.095 128.838C182.579 128.628 182.141 128.361 181.781 128.037L182.159 127.425C182.207 127.347 182.264 127.287 182.33 127.245C182.396 127.203 182.48 127.182 182.582 127.182C182.69 127.182 182.804 127.224 182.924 127.308C183.044 127.392 183.188 127.485 183.356 127.587C183.53 127.689 183.74 127.782 183.986 127.866C184.232 127.95 184.538 127.992 184.904 127.992C185.216 127.992 185.489 127.953 185.723 127.875C185.957 127.791 186.152 127.68 186.308 127.542C186.464 127.404 186.578 127.245 186.65 127.065C186.728 126.885 186.767 126.693 186.767 126.489C186.767 126.237 186.698 126.03 186.56 125.868C186.428 125.7 186.251 125.559 186.029 125.445C185.807 125.325 185.552 125.223 185.264 125.139C184.982 125.049 184.691 124.956 184.391 124.86C184.097 124.764 183.806 124.656 183.518 124.536C183.236 124.41 182.984 124.254 182.762 124.068C182.54 123.882 182.36 123.654 182.222 123.384C182.09 123.108 182.024 122.775 182.024 122.385C182.024 122.037 182.096 121.704 182.24 121.386C182.384 121.062 182.594 120.78 182.87 120.54C183.146 120.294 183.485 120.099 183.887 119.955C184.289 119.811 184.748 119.739 185.264 119.739C185.864 119.739 186.401 119.835 186.875 120.027C187.355 120.213 187.769 120.471 188.117 120.801L187.757 121.386ZM191.926 119.883V129H190.324V119.883H191.926ZM192.268 117.021C192.268 117.177 192.235 117.324 192.169 117.462C192.109 117.594 192.025 117.714 191.917 117.822C191.815 117.924 191.692 118.005 191.548 118.065C191.41 118.125 191.263 118.155 191.107 118.155C190.951 118.155 190.804 118.125 190.666 118.065C190.534 118.005 190.417 117.924 190.315 117.822C190.213 117.714 190.132 117.594 190.072 117.462C190.012 117.324 189.982 117.177 189.982 117.021C189.982 116.865 190.012 116.718 190.072 116.58C190.132 116.436 190.213 116.313 190.315 116.211C190.417 116.103 190.534 116.019 190.666 115.959C190.804 115.899 190.951 115.869 191.107 115.869C191.263 115.869 191.41 115.899 191.548 115.959C191.692 116.019 191.815 116.103 191.917 116.211C192.025 116.313 192.109 116.436 192.169 116.58C192.235 116.718 192.268 116.865 192.268 117.021ZM199.868 121.386C199.796 121.518 199.685 121.584 199.535 121.584C199.445 121.584 199.343 121.551 199.229 121.485C199.115 121.419 198.974 121.347 198.806 121.269C198.644 121.185 198.449 121.11 198.221 121.044C197.993 120.972 197.723 120.936 197.411 120.936C197.141 120.936 196.898 120.972 196.682 121.044C196.466 121.11 196.28 121.203 196.124 121.323C195.974 121.443 195.857 121.584 195.773 121.746C195.695 121.902 195.656 122.073 195.656 122.259C195.656 122.493 195.722 122.688 195.854 122.844C195.992 123 196.172 123.135 196.394 123.249C196.616 123.363 196.868 123.465 197.15 123.555C197.432 123.639 197.72 123.732 198.014 123.834C198.314 123.93 198.605 124.038 198.887 124.158C199.169 124.278 199.421 124.428 199.643 124.608C199.865 124.788 200.042 125.01 200.174 125.274C200.312 125.532 200.381 125.844 200.381 126.21C200.381 126.63 200.306 127.02 200.156 127.38C200.006 127.734 199.784 128.043 199.49 128.307C199.196 128.565 198.836 128.769 198.41 128.919C197.984 129.069 197.492 129.144 196.934 129.144C196.298 129.144 195.722 129.042 195.206 128.838C194.69 128.628 194.252 128.361 193.892 128.037L194.27 127.425C194.318 127.347 194.375 127.287 194.441 127.245C194.507 127.203 194.591 127.182 194.693 127.182C194.801 127.182 194.915 127.224 195.035 127.308C195.155 127.392 195.299 127.485 195.467 127.587C195.641 127.689 195.851 127.782 196.097 127.866C196.343 127.95 196.649 127.992 197.015 127.992C197.327 127.992 197.6 127.953 197.834 127.875C198.068 127.791 198.263 127.68 198.419 127.542C198.575 127.404 198.689 127.245 198.761 127.065C198.839 126.885 198.878 126.693 198.878 126.489C198.878 126.237 198.809 126.03 198.671 125.868C198.539 125.7 198.362 125.559 198.14 125.445C197.918 125.325 197.663 125.223 197.375 125.139C197.093 125.049 196.802 124.956 196.502 124.86C196.208 124.764 195.917 124.656 195.629 124.536C195.347 124.41 195.095 124.254 194.873 124.068C194.651 123.882 194.471 123.654 194.333 123.384C194.201 123.108 194.135 122.775 194.135 122.385C194.135 122.037 194.207 121.704 194.351 121.386C194.495 121.062 194.705 120.78 194.981 120.54C195.257 120.294 195.596 120.099 195.998 119.955C196.4 119.811 196.859 119.739 197.375 119.739C197.975 119.739 198.512 119.835 198.986 120.027C199.466 120.213 199.88 120.471 200.228 120.801L199.868 121.386Z" fill="#4F4F4F"/>
</svg>
