<svg width="245" height="173" viewBox="0 0 245 173" fill="none" xmlns="http://www.w3.org/2000/svg">
<path d="M20 27.7L27.7 20L31 23.3L23.3 31L20 27.7Z" stroke="#CE8200" stroke-width="2" stroke-linecap="round" stroke-linejoin="round"/>
<path d="M26 20.6875L24.4062 12.7188L9 9L12.7188 24.4062L20.6875 26L26 20.6875Z" stroke="#CE8200" stroke-width="2" stroke-linecap="round" stroke-linejoin="round"/>
<path d="M9 9L17 17" stroke="#CE8200" stroke-width="2" stroke-linecap="round" stroke-linejoin="round"/>
<path d="M18.5 21C19.8807 21 21 19.8807 21 18.5C21 17.1193 19.8807 16 18.5 16C17.1193 16 16 17.1193 16 18.5C16 19.8807 17.1193 21 18.5 21Z" stroke="#CE8200" stroke-width="2" stroke-linecap="round" stroke-linejoin="round"/>
<path d="M53.232 9.008C56.352 9.008 58.688 9.72 60.24 11.144C61.792 12.552 62.568 14.608 62.568 17.312C62.568 19.056 62.184 20.584 61.416 21.896C60.664 23.192 59.568 24.2 58.128 24.92C56.704 25.64 55 26 53.016 26L51.528 25.976C50.6 25.944 49.928 25.928 49.512 25.928C47.864 25.928 46.632 25.952 45.816 26V25.52C46.344 25.488 46.728 25.424 46.968 25.328C47.224 25.232 47.392 25.048 47.472 24.776C47.568 24.504 47.616 24.064 47.616 23.456V11.552C47.616 10.944 47.568 10.504 47.472 10.232C47.392 9.96 47.224 9.776 46.968 9.68C46.728 9.584 46.344 9.52 45.816 9.488V9.008C46.488 9.056 47.456 9.08 48.72 9.08H49.464L50.424 9.056C51.736 9.024 52.672 9.008 53.232 9.008ZM53.208 9.44C52.712 9.44 52.336 9.496 52.08 9.608C51.84 9.72 51.672 9.92 51.576 10.208C51.48 10.496 51.432 10.928 51.432 11.504V23.504C51.432 24.08 51.48 24.512 51.576 24.8C51.672 25.088 51.84 25.288 52.08 25.4C52.336 25.512 52.72 25.568 53.232 25.568C55.168 25.568 56.544 24.896 57.36 23.552C58.176 22.192 58.584 20.144 58.584 17.408C58.584 14.672 58.16 12.664 57.312 11.384C56.48 10.088 55.112 9.44 53.208 9.44ZM71.2648 24.368C72.5768 24.368 73.6328 23.728 74.4328 22.448L74.8648 22.592C74.5448 23.632 73.9688 24.52 73.1368 25.256C72.3208 25.976 71.2968 26.336 70.0648 26.336C68.3688 26.336 67.0168 25.8 66.0088 24.728C65.0168 23.64 64.5208 22.04 64.5208 19.928C64.5208 17.768 65.0568 16.12 66.1288 14.984C67.2008 13.832 68.6248 13.256 70.4008 13.256C73.4088 13.256 74.9128 15.032 74.9128 18.584H68.1688C68.1528 18.824 68.1448 19.2 68.1448 19.712C68.1448 20.768 68.2888 21.648 68.5768 22.352C68.8808 23.056 69.2648 23.568 69.7288 23.888C70.2088 24.208 70.7208 24.368 71.2648 24.368ZM70.2568 13.76C69.6808 13.76 69.2008 14.12 68.8168 14.84C68.4488 15.544 68.2168 16.64 68.1208 18.128H71.8888C71.9208 16.864 71.7928 15.824 71.5048 15.008C71.2328 14.176 70.8168 13.76 70.2568 13.76ZM81.0546 13.256C81.6626 13.256 82.2226 13.336 82.7346 13.496C83.2466 13.64 83.6386 13.808 83.9106 14C84.0706 14.112 84.2146 14.168 84.3426 14.168C84.4866 14.168 84.6066 14.096 84.7026 13.952C84.8146 13.792 84.8866 13.568 84.9186 13.28H85.4226C85.3586 14.096 85.3266 15.504 85.3266 17.504H84.8226C84.6786 16.448 84.3586 15.568 83.8626 14.864C83.3826 14.144 82.6786 13.784 81.7506 13.784C81.2706 13.784 80.8706 13.92 80.5506 14.192C80.2466 14.464 80.0946 14.84 80.0946 15.32C80.0946 15.864 80.2786 16.336 80.6466 16.736C81.0146 17.12 81.5906 17.592 82.3746 18.152L83.0706 18.656C84.0466 19.392 84.7666 20.048 85.2306 20.624C85.6946 21.2 85.9266 21.92 85.9266 22.784C85.9266 23.488 85.7186 24.112 85.3026 24.656C84.9026 25.2 84.3586 25.616 83.6706 25.904C82.9826 26.192 82.2226 26.336 81.3906 26.336C80.5106 26.336 79.7586 26.168 79.1346 25.832C78.6226 25.576 78.2546 25.408 78.0306 25.328C77.8706 25.28 77.7266 25.336 77.5986 25.496C77.4866 25.64 77.3986 25.864 77.3346 26.168H76.8306C76.8946 25.256 76.9266 23.656 76.9266 21.368H77.4306C77.7506 24.312 78.8306 25.784 80.6706 25.784C81.1346 25.784 81.5266 25.648 81.8466 25.376C82.1826 25.088 82.3506 24.656 82.3506 24.08C82.3506 23.632 82.2466 23.232 82.0386 22.88C81.8466 22.528 81.5986 22.216 81.2946 21.944C80.9906 21.672 80.5346 21.296 79.9266 20.816C79.2066 20.24 78.6546 19.776 78.2706 19.424C77.9026 19.072 77.5826 18.656 77.3106 18.176C77.0546 17.696 76.9266 17.16 76.9266 16.568C76.9266 15.544 77.3266 14.736 78.1266 14.144C78.9266 13.552 79.9026 13.256 81.0546 13.256ZM90.5085 7.4C91.1805 7.4 91.7085 7.568 92.0925 7.904C92.4925 8.224 92.6925 8.672 92.6925 9.248C92.6925 9.824 92.4925 10.28 92.0925 10.616C91.7085 10.936 91.1805 11.096 90.5085 11.096C89.8365 11.096 89.3005 10.936 88.9005 10.616C88.5165 10.28 88.3245 9.824 88.3245 9.248C88.3245 8.672 88.5165 8.224 88.9005 7.904C89.3005 7.568 89.8365 7.4 90.5085 7.4ZM92.3805 23.768C92.3805 24.424 92.4925 24.88 92.7165 25.136C92.9565 25.376 93.3565 25.496 93.9165 25.496V26C92.3165 25.936 91.2525 25.904 90.7245 25.904C90.2285 25.904 89.1165 25.936 87.3885 26V25.496C87.9645 25.496 88.3645 25.376 88.5885 25.136C88.8125 24.88 88.9245 24.424 88.9245 23.768V16.208C88.9245 15.472 88.8125 14.936 88.5885 14.6C88.3645 14.264 87.9645 14.096 87.3885 14.096V13.592C87.9005 13.64 88.3965 13.664 88.8765 13.664C90.3005 13.664 91.4685 13.552 92.3805 13.328V23.768ZM106.335 15.896C106.015 15.896 105.743 15.792 105.519 15.584C105.295 15.36 105.183 15.048 105.183 14.648C105.183 14.264 105.279 13.872 105.471 13.472C105.087 13.632 104.767 13.816 104.511 14.024C104.271 14.216 104.063 14.464 103.887 14.768C104.383 15.36 104.631 16.128 104.631 17.072C104.631 18.336 104.191 19.288 103.311 19.928C102.447 20.568 101.295 20.888 99.8548 20.888H99.4228C98.7668 21.272 98.4388 21.696 98.4388 22.16C98.4388 22.672 98.7588 22.928 99.3988 22.928H102.015C103.423 22.928 104.543 23.192 105.375 23.72C106.223 24.232 106.647 25.024 106.647 26.096C106.647 26.912 106.383 27.648 105.855 28.304C105.343 28.976 104.559 29.512 103.503 29.912C102.447 30.312 101.151 30.512 99.6148 30.512C98.0628 30.512 96.8148 30.312 95.8708 29.912C94.9428 29.528 94.4788 28.968 94.4788 28.232C94.4788 27.736 94.7028 27.288 95.1508 26.888C95.5988 26.504 96.2628 26.2 97.1428 25.976L97.3588 26.36C96.7828 26.84 96.4948 27.392 96.4948 28.016C96.4948 28.688 96.7988 29.2 97.4068 29.552C98.0148 29.92 98.8548 30.104 99.9268 30.104C101.047 30.104 101.951 29.88 102.639 29.432C103.343 28.984 103.695 28.352 103.695 27.536C103.695 27.008 103.495 26.592 103.095 26.288C102.711 25.984 102.031 25.832 101.055 25.832H99.5668C98.5428 25.832 97.7428 25.664 97.1668 25.328C96.5908 24.976 96.3028 24.448 96.3028 23.744C96.3028 23.152 96.5108 22.624 96.9268 22.16C97.3428 21.696 97.9748 21.248 98.8228 20.816C97.6708 20.672 96.7588 20.288 96.0868 19.664C95.4148 19.04 95.0788 18.176 95.0788 17.072C95.0788 15.808 95.5108 14.856 96.3748 14.216C97.2548 13.576 98.4148 13.256 99.8548 13.256C101.455 13.256 102.679 13.632 103.527 14.384C103.831 13.952 104.207 13.608 104.655 13.352C105.103 13.096 105.559 12.968 106.023 12.968C106.503 12.968 106.879 13.112 107.151 13.4C107.439 13.672 107.583 14.032 107.583 14.48C107.583 14.928 107.455 15.28 107.199 15.536C106.959 15.776 106.671 15.896 106.335 15.896ZM99.8548 20.456C100.303 20.456 100.639 20.2 100.863 19.688C101.103 19.176 101.223 18.304 101.223 17.072C101.223 15.84 101.103 14.968 100.863 14.456C100.639 13.944 100.303 13.688 99.8548 13.688C99.4068 13.688 99.0628 13.944 98.8228 14.456C98.5988 14.968 98.4868 15.84 98.4868 17.072C98.4868 18.304 98.5988 19.176 98.8228 19.688C99.0628 20.2 99.4068 20.456 99.8548 20.456ZM117.152 13.256C118.368 13.256 119.248 13.568 119.792 14.192C120.064 14.496 120.256 14.888 120.368 15.368C120.48 15.848 120.536 16.496 120.536 17.312V23.768C120.536 24.424 120.648 24.88 120.872 25.136C121.112 25.376 121.512 25.496 122.072 25.496V26C120.472 25.936 119.416 25.904 118.904 25.904C118.424 25.904 117.384 25.936 115.784 26V25.496C116.264 25.496 116.6 25.376 116.792 25.136C116.984 24.88 117.08 24.424 117.08 23.768V16.304C117.08 15.648 116.968 15.152 116.744 14.816C116.536 14.48 116.152 14.312 115.592 14.312C114.936 14.312 114.376 14.584 113.912 15.128C113.448 15.656 113.216 16.312 113.216 17.096V23.768C113.216 24.424 113.312 24.88 113.504 25.136C113.696 25.376 114.032 25.496 114.512 25.496V26C113.04 25.936 112.048 25.904 111.536 25.904C111.056 25.904 109.952 25.936 108.224 26V25.496C108.8 25.496 109.2 25.376 109.424 25.136C109.648 24.88 109.76 24.424 109.76 23.768V16.208C109.76 15.472 109.648 14.936 109.424 14.6C109.2 14.264 108.8 14.096 108.224 14.096V13.592C108.736 13.64 109.232 13.664 109.712 13.664C111.136 13.664 112.304 13.552 113.216 13.328V15.488C113.936 14 115.248 13.256 117.152 13.256Z" fill="#CE8200"/>
<path d="M55.701 58.336C55.797 58.336 55.881 58.375 55.953 58.453L56.646 59.2C56.118 59.812 55.476 60.289 54.72 60.631C53.97 60.973 53.061 61.144 51.993 61.144C51.069 61.144 50.229 60.985 49.473 60.667C48.717 60.343 48.072 59.893 47.538 59.317C47.004 58.735 46.59 58.039 46.296 57.229C46.002 56.419 45.855 55.528 45.855 54.556C45.855 53.584 46.008 52.693 46.314 51.883C46.62 51.073 47.049 50.377 47.601 49.795C48.159 49.213 48.825 48.763 49.599 48.445C50.373 48.121 51.228 47.959 52.164 47.959C53.082 47.959 53.892 48.106 54.594 48.4C55.296 48.694 55.914 49.093 56.448 49.597L55.872 50.398C55.836 50.458 55.788 50.509 55.728 50.551C55.674 50.587 55.599 50.605 55.503 50.605C55.395 50.605 55.263 50.548 55.107 50.434C54.951 50.314 54.747 50.182 54.495 50.038C54.243 49.894 53.928 49.765 53.55 49.651C53.172 49.531 52.707 49.471 52.155 49.471C51.489 49.471 50.88 49.588 50.328 49.822C49.776 50.05 49.299 50.383 48.897 50.821C48.501 51.259 48.192 51.793 47.97 52.423C47.748 53.053 47.637 53.764 47.637 54.556C47.637 55.36 47.751 56.077 47.979 56.707C48.213 57.337 48.528 57.871 48.924 58.309C49.326 58.741 49.797 59.071 50.337 59.299C50.883 59.527 51.471 59.641 52.101 59.641C52.485 59.641 52.83 59.62 53.136 59.578C53.448 59.53 53.733 59.458 53.991 59.362C54.255 59.266 54.498 59.146 54.72 59.002C54.948 58.852 55.173 58.675 55.395 58.471C55.497 58.381 55.599 58.336 55.701 58.336ZM61.9597 51.739C62.6257 51.739 63.2257 51.85 63.7597 52.072C64.2937 52.294 64.7497 52.609 65.1277 53.017C65.5057 53.425 65.7937 53.92 65.9917 54.502C66.1957 55.078 66.2977 55.723 66.2977 56.437C66.2977 57.157 66.1957 57.805 65.9917 58.381C65.7937 58.957 65.5057 59.449 65.1277 59.857C64.7497 60.265 64.2937 60.58 63.7597 60.802C63.2257 61.018 62.6257 61.126 61.9597 61.126C61.2877 61.126 60.6817 61.018 60.1417 60.802C59.6077 60.58 59.1517 60.265 58.7737 59.857C58.3957 59.449 58.1047 58.957 57.9007 58.381C57.7027 57.805 57.6037 57.157 57.6037 56.437C57.6037 55.723 57.7027 55.078 57.9007 54.502C58.1047 53.92 58.3957 53.425 58.7737 53.017C59.1517 52.609 59.6077 52.294 60.1417 52.072C60.6817 51.85 61.2877 51.739 61.9597 51.739ZM61.9597 59.875C62.8597 59.875 63.5317 59.575 63.9757 58.975C64.4197 58.369 64.6417 57.526 64.6417 56.446C64.6417 55.36 64.4197 54.514 63.9757 53.908C63.5317 53.302 62.8597 52.999 61.9597 52.999C61.5037 52.999 61.1047 53.077 60.7627 53.233C60.4267 53.389 60.1447 53.614 59.9167 53.908C59.6947 54.202 59.5267 54.565 59.4127 54.997C59.3047 55.423 59.2507 55.906 59.2507 56.446C59.2507 57.526 59.4727 58.369 59.9167 58.975C60.3667 59.575 61.0477 59.875 61.9597 59.875ZM69.8415 53.206C70.0395 52.984 70.2495 52.783 70.4715 52.603C70.6935 52.423 70.9275 52.27 71.1735 52.144C71.4255 52.012 71.6895 51.913 71.9655 51.847C72.2475 51.775 72.5505 51.739 72.8745 51.739C73.3725 51.739 73.8105 51.823 74.1885 51.991C74.5725 52.153 74.8905 52.387 75.1425 52.693C75.4005 52.993 75.5955 53.356 75.7275 53.782C75.8595 54.208 75.9255 54.679 75.9255 55.195V61H74.3145V55.195C74.3145 54.505 74.1555 53.971 73.8375 53.593C73.5255 53.209 73.0485 53.017 72.4065 53.017C71.9325 53.017 71.4885 53.131 71.0745 53.359C70.6665 53.587 70.2885 53.896 69.9405 54.286V61H68.3295V51.883H69.2925C69.5205 51.883 69.6615 51.994 69.7155 52.216L69.8415 53.206ZM81.0426 61.144C80.3226 61.144 79.7676 60.943 79.3776 60.541C78.9936 60.139 78.8016 59.56 78.8016 58.804V53.224H77.7036C77.6076 53.224 77.5266 53.197 77.4606 53.143C77.3946 53.083 77.3616 52.993 77.3616 52.873V52.234L78.8556 52.045L79.2246 49.228C79.2426 49.138 79.2816 49.066 79.3416 49.012C79.4076 48.952 79.4916 48.922 79.5936 48.922H80.4036V52.063H83.0406V53.224H80.4036V58.696C80.4036 59.08 80.4966 59.365 80.6826 59.551C80.8686 59.737 81.1086 59.83 81.4026 59.83C81.5706 59.83 81.7146 59.809 81.8346 59.767C81.9606 59.719 82.0686 59.668 82.1586 59.614C82.2486 59.56 82.3236 59.512 82.3836 59.47C82.4496 59.422 82.5066 59.398 82.5546 59.398C82.6386 59.398 82.7136 59.449 82.7796 59.551L83.2476 60.316C82.9716 60.574 82.6386 60.778 82.2486 60.928C81.8586 61.072 81.4566 61.144 81.0426 61.144ZM90.744 55.447C90.744 55.075 90.69 54.736 90.582 54.43C90.48 54.118 90.327 53.851 90.123 53.629C89.925 53.401 89.682 53.227 89.394 53.107C89.106 52.981 88.779 52.918 88.413 52.918C87.645 52.918 87.036 53.143 86.586 53.593C86.142 54.037 85.866 54.655 85.758 55.447H90.744ZM92.04 59.722C91.842 59.962 91.605 60.172 91.329 60.352C91.053 60.526 90.756 60.67 90.438 60.784C90.126 60.898 89.802 60.982 89.466 61.036C89.13 61.096 88.797 61.126 88.467 61.126C87.837 61.126 87.255 61.021 86.721 60.811C86.193 60.595 85.734 60.283 85.344 59.875C84.96 59.461 84.66 58.951 84.444 58.345C84.228 57.739 84.12 57.043 84.12 56.257C84.12 55.621 84.216 55.027 84.408 54.475C84.606 53.923 84.888 53.446 85.254 53.044C85.62 52.636 86.067 52.318 86.595 52.09C87.123 51.856 87.717 51.739 88.377 51.739C88.923 51.739 89.427 51.832 89.889 52.018C90.357 52.198 90.759 52.462 91.095 52.81C91.437 53.152 91.704 53.578 91.896 54.088C92.088 54.592 92.184 55.168 92.184 55.816C92.184 56.068 92.157 56.236 92.103 56.32C92.049 56.404 91.947 56.446 91.797 56.446H85.704C85.722 57.022 85.8 57.523 85.938 57.949C86.082 58.375 86.28 58.732 86.532 59.02C86.784 59.302 87.084 59.515 87.432 59.659C87.78 59.797 88.17 59.866 88.602 59.866C89.004 59.866 89.349 59.821 89.637 59.731C89.931 59.635 90.183 59.533 90.393 59.425C90.603 59.317 90.777 59.218 90.915 59.128C91.059 59.032 91.182 58.984 91.284 58.984C91.416 58.984 91.518 59.035 91.59 59.137L92.04 59.722ZM95.6638 53.206C95.8618 52.984 96.0718 52.783 96.2938 52.603C96.5158 52.423 96.7498 52.27 96.9958 52.144C97.2478 52.012 97.5118 51.913 97.7878 51.847C98.0698 51.775 98.3728 51.739 98.6968 51.739C99.1948 51.739 99.6328 51.823 100.011 51.991C100.395 52.153 100.713 52.387 100.965 52.693C101.223 52.993 101.418 53.356 101.55 53.782C101.682 54.208 101.748 54.679 101.748 55.195V61H100.137V55.195C100.137 54.505 99.9778 53.971 99.6598 53.593C99.3478 53.209 98.8708 53.017 98.2288 53.017C97.7548 53.017 97.3108 53.131 96.8968 53.359C96.4888 53.587 96.1108 53.896 95.7628 54.286V61H94.1518V51.883H95.1148C95.3428 51.883 95.4838 51.994 95.5378 52.216L95.6638 53.206ZM106.865 61.144C106.145 61.144 105.59 60.943 105.2 60.541C104.816 60.139 104.624 59.56 104.624 58.804V53.224H103.526C103.43 53.224 103.349 53.197 103.283 53.143C103.217 53.083 103.184 52.993 103.184 52.873V52.234L104.678 52.045L105.047 49.228C105.065 49.138 105.104 49.066 105.164 49.012C105.23 48.952 105.314 48.922 105.416 48.922H106.226V52.063H108.863V53.224H106.226V58.696C106.226 59.08 106.319 59.365 106.505 59.551C106.691 59.737 106.931 59.83 107.225 59.83C107.393 59.83 107.537 59.809 107.657 59.767C107.783 59.719 107.891 59.668 107.981 59.614C108.071 59.56 108.146 59.512 108.206 59.47C108.272 59.422 108.329 59.398 108.377 59.398C108.461 59.398 108.536 59.449 108.602 59.551L109.07 60.316C108.794 60.574 108.461 60.778 108.071 60.928C107.681 61.072 107.279 61.144 106.865 61.144ZM121.468 53.503C121.42 53.569 121.372 53.62 121.324 53.656C121.276 53.692 121.21 53.71 121.126 53.71C121.036 53.71 120.937 53.674 120.829 53.602C120.721 53.524 120.586 53.44 120.424 53.35C120.268 53.26 120.073 53.179 119.839 53.107C119.611 53.029 119.329 52.99 118.993 52.99C118.543 52.99 118.147 53.071 117.805 53.233C117.463 53.389 117.175 53.617 116.941 53.917C116.713 54.217 116.539 54.58 116.419 55.006C116.305 55.432 116.248 55.909 116.248 56.437C116.248 56.989 116.311 57.481 116.437 57.913C116.563 58.339 116.74 58.699 116.968 58.993C117.202 59.281 117.481 59.503 117.805 59.659C118.135 59.809 118.504 59.884 118.912 59.884C119.302 59.884 119.623 59.839 119.875 59.749C120.127 59.653 120.334 59.548 120.496 59.434C120.664 59.32 120.802 59.218 120.91 59.128C121.024 59.032 121.135 58.984 121.243 58.984C121.375 58.984 121.477 59.035 121.549 59.137L121.999 59.722C121.801 59.968 121.576 60.178 121.324 60.352C121.072 60.526 120.799 60.673 120.505 60.793C120.217 60.907 119.914 60.991 119.596 61.045C119.278 61.099 118.954 61.126 118.624 61.126C118.054 61.126 117.523 61.021 117.031 60.811C116.545 60.601 116.122 60.298 115.762 59.902C115.402 59.5 115.12 59.008 114.916 58.426C114.712 57.844 114.61 57.181 114.61 56.437C114.61 55.759 114.703 55.132 114.889 54.556C115.081 53.98 115.357 53.485 115.717 53.071C116.083 52.651 116.53 52.324 117.058 52.09C117.592 51.856 118.204 51.739 118.894 51.739C119.536 51.739 120.1 51.844 120.586 52.054C121.078 52.258 121.513 52.549 121.891 52.927L121.468 53.503ZM127.403 51.739C128.069 51.739 128.669 51.85 129.203 52.072C129.737 52.294 130.193 52.609 130.571 53.017C130.949 53.425 131.237 53.92 131.435 54.502C131.639 55.078 131.741 55.723 131.741 56.437C131.741 57.157 131.639 57.805 131.435 58.381C131.237 58.957 130.949 59.449 130.571 59.857C130.193 60.265 129.737 60.58 129.203 60.802C128.669 61.018 128.069 61.126 127.403 61.126C126.731 61.126 126.125 61.018 125.585 60.802C125.051 60.58 124.595 60.265 124.217 59.857C123.839 59.449 123.548 58.957 123.344 58.381C123.146 57.805 123.047 57.157 123.047 56.437C123.047 55.723 123.146 55.078 123.344 54.502C123.548 53.92 123.839 53.425 124.217 53.017C124.595 52.609 125.051 52.294 125.585 52.072C126.125 51.85 126.731 51.739 127.403 51.739ZM127.403 59.875C128.303 59.875 128.975 59.575 129.419 58.975C129.863 58.369 130.085 57.526 130.085 56.446C130.085 55.36 129.863 54.514 129.419 53.908C128.975 53.302 128.303 52.999 127.403 52.999C126.947 52.999 126.548 53.077 126.206 53.233C125.87 53.389 125.588 53.614 125.36 53.908C125.138 54.202 124.97 54.565 124.856 54.997C124.748 55.423 124.694 55.906 124.694 56.446C124.694 57.526 124.916 58.369 125.36 58.975C125.81 59.575 126.491 59.875 127.403 59.875ZM135.384 58.804C135.678 59.2 135.999 59.479 136.347 59.641C136.695 59.803 137.085 59.884 137.517 59.884C138.369 59.884 139.023 59.581 139.479 58.975C139.935 58.369 140.163 57.505 140.163 56.383C140.163 55.789 140.109 55.279 140.001 54.853C139.899 54.427 139.749 54.079 139.551 53.809C139.353 53.533 139.11 53.332 138.822 53.206C138.534 53.08 138.207 53.017 137.841 53.017C137.319 53.017 136.86 53.137 136.464 53.377C136.074 53.617 135.714 53.956 135.384 54.394V58.804ZM135.303 53.296C135.687 52.822 136.131 52.441 136.635 52.153C137.139 51.865 137.715 51.721 138.363 51.721C138.891 51.721 139.368 51.823 139.794 52.027C140.22 52.225 140.583 52.522 140.883 52.918C141.183 53.308 141.414 53.794 141.576 54.376C141.738 54.958 141.819 55.627 141.819 56.383C141.819 57.055 141.729 57.682 141.549 58.264C141.369 58.84 141.108 59.341 140.766 59.767C140.43 60.187 140.016 60.52 139.524 60.766C139.038 61.006 138.489 61.126 137.877 61.126C137.319 61.126 136.839 61.033 136.437 60.847C136.041 60.655 135.69 60.391 135.384 60.055V64.087H133.773V51.883H134.736C134.964 51.883 135.105 51.994 135.159 52.216L135.303 53.296ZM151.5 51.883L146.415 63.691C146.361 63.811 146.292 63.907 146.208 63.979C146.13 64.051 146.007 64.087 145.839 64.087H144.651L146.316 60.469L142.554 51.883H143.94C144.078 51.883 144.186 51.919 144.264 51.991C144.348 52.057 144.405 52.132 144.435 52.216L146.874 57.958C146.97 58.21 147.051 58.474 147.117 58.75C147.201 58.468 147.291 58.201 147.387 57.949L149.754 52.216C149.79 52.12 149.85 52.042 149.934 51.982C150.024 51.916 150.123 51.883 150.231 51.883H151.5ZM165.488 51.883L162.536 61H161.267C161.111 61 161.003 60.898 160.943 60.694L158.927 54.511C158.879 54.373 158.84 54.235 158.81 54.097C158.78 53.953 158.75 53.812 158.72 53.674C158.69 53.812 158.66 53.953 158.63 54.097C158.6 54.235 158.561 54.376 158.513 54.52L156.461 60.694C156.407 60.898 156.287 61 156.101 61H154.895L151.943 51.883H153.203C153.329 51.883 153.434 51.916 153.518 51.982C153.608 52.048 153.668 52.126 153.698 52.216L155.444 58.084C155.546 58.516 155.627 58.924 155.687 59.308C155.741 59.11 155.795 58.909 155.849 58.705C155.909 58.501 155.972 58.294 156.038 58.084L157.964 52.18C157.994 52.09 158.045 52.015 158.117 51.955C158.195 51.895 158.288 51.865 158.396 51.865H159.098C159.218 51.865 159.317 51.895 159.395 51.955C159.473 52.015 159.527 52.09 159.557 52.18L161.438 58.084C161.504 58.294 161.564 58.501 161.618 58.705C161.672 58.909 161.723 59.11 161.771 59.308C161.801 59.11 161.837 58.912 161.879 58.714C161.927 58.51 161.978 58.3 162.032 58.084L163.814 52.216C163.844 52.12 163.901 52.042 163.985 51.982C164.069 51.916 164.168 51.883 164.282 51.883H165.488ZM168.569 53.71C168.857 53.086 169.211 52.6 169.631 52.252C170.051 51.898 170.564 51.721 171.17 51.721C171.362 51.721 171.545 51.742 171.719 51.784C171.899 51.826 172.058 51.892 172.196 51.982L172.079 53.179C172.043 53.329 171.953 53.404 171.809 53.404C171.725 53.404 171.602 53.386 171.44 53.35C171.278 53.314 171.095 53.296 170.891 53.296C170.603 53.296 170.345 53.338 170.117 53.422C169.895 53.506 169.694 53.632 169.514 53.8C169.34 53.962 169.181 54.166 169.037 54.412C168.899 54.652 168.773 54.928 168.659 55.24V61H167.048V51.883H167.966C168.14 51.883 168.26 51.916 168.326 51.982C168.392 52.048 168.437 52.162 168.461 52.324L168.569 53.71ZM175.297 51.883V61H173.695V51.883H175.297ZM175.639 49.021C175.639 49.177 175.606 49.324 175.54 49.462C175.48 49.594 175.396 49.714 175.288 49.822C175.186 49.924 175.063 50.005 174.919 50.065C174.781 50.125 174.634 50.155 174.478 50.155C174.322 50.155 174.175 50.125 174.037 50.065C173.905 50.005 173.788 49.924 173.686 49.822C173.584 49.714 173.503 49.594 173.443 49.462C173.383 49.324 173.353 49.177 173.353 49.021C173.353 48.865 173.383 48.718 173.443 48.58C173.503 48.436 173.584 48.313 173.686 48.211C173.788 48.103 173.905 48.019 174.037 47.959C174.175 47.899 174.322 47.869 174.478 47.869C174.634 47.869 174.781 47.899 174.919 47.959C175.063 48.019 175.186 48.103 175.288 48.211C175.396 48.313 175.48 48.436 175.54 48.58C175.606 48.718 175.639 48.865 175.639 49.021ZM186.389 61H184.787V53.224H180.089V58.696C180.089 59.08 180.182 59.365 180.368 59.551C180.554 59.737 180.794 59.83 181.088 59.83C181.256 59.83 181.4 59.809 181.52 59.767C181.646 59.719 181.754 59.668 181.844 59.614C181.934 59.56 182.009 59.512 182.069 59.47C182.135 59.422 182.192 59.398 182.24 59.398C182.324 59.398 182.399 59.449 182.465 59.551L182.933 60.316C182.657 60.574 182.324 60.778 181.934 60.928C181.544 61.072 181.142 61.144 180.728 61.144C180.008 61.144 179.453 60.943 179.063 60.541C178.679 60.139 178.487 59.56 178.487 58.804V53.224H177.389C177.293 53.224 177.212 53.197 177.146 53.143C177.08 53.083 177.047 52.993 177.047 52.873V52.234L178.541 52.036L178.91 49.228C178.928 49.138 178.967 49.066 179.027 49.012C179.093 48.952 179.177 48.922 179.279 48.922H180.089V52.063H186.389V61ZM186.785 48.958C186.785 49.114 186.752 49.261 186.686 49.399C186.626 49.531 186.542 49.648 186.434 49.75C186.332 49.852 186.212 49.933 186.074 49.993C185.936 50.053 185.789 50.083 185.633 50.083C185.477 50.083 185.33 50.053 185.192 49.993C185.06 49.933 184.943 49.852 184.841 49.75C184.739 49.648 184.658 49.531 184.598 49.399C184.538 49.261 184.508 49.114 184.508 48.958C184.508 48.802 184.538 48.655 184.598 48.517C184.658 48.373 184.739 48.25 184.841 48.148C184.943 48.04 185.06 47.956 185.192 47.896C185.33 47.836 185.477 47.806 185.633 47.806C185.789 47.806 185.936 47.836 186.074 47.896C186.212 47.956 186.332 48.04 186.434 48.148C186.542 48.25 186.626 48.373 186.686 48.517C186.752 48.655 186.785 48.802 186.785 48.958ZM190.533 53.206C190.731 52.984 190.941 52.783 191.163 52.603C191.385 52.423 191.619 52.27 191.865 52.144C192.117 52.012 192.381 51.913 192.657 51.847C192.939 51.775 193.242 51.739 193.566 51.739C194.064 51.739 194.502 51.823 194.88 51.991C195.264 52.153 195.582 52.387 195.834 52.693C196.092 52.993 196.287 53.356 196.419 53.782C196.551 54.208 196.617 54.679 196.617 55.195V61H195.006V55.195C195.006 54.505 194.847 53.971 194.529 53.593C194.217 53.209 193.74 53.017 193.098 53.017C192.624 53.017 192.18 53.131 191.766 53.359C191.358 53.587 190.98 53.896 190.632 54.286V61H189.021V51.883H189.984C190.212 51.883 190.353 51.994 190.407 52.216L190.533 53.206ZM202.235 56.545C202.559 56.545 202.844 56.5 203.09 56.41C203.336 56.32 203.543 56.194 203.711 56.032C203.879 55.87 204.005 55.678 204.089 55.456C204.173 55.228 204.215 54.979 204.215 54.709C204.215 54.151 204.044 53.707 203.702 53.377C203.366 53.047 202.877 52.882 202.235 52.882C201.587 52.882 201.092 53.047 200.75 53.377C200.414 53.707 200.246 54.151 200.246 54.709C200.246 54.979 200.288 55.228 200.372 55.456C200.462 55.678 200.591 55.87 200.759 56.032C200.927 56.194 201.134 56.32 201.38 56.41C201.626 56.5 201.911 56.545 202.235 56.545ZM205.124 61.495C205.124 61.273 205.061 61.093 204.935 60.955C204.809 60.817 204.638 60.709 204.422 60.631C204.212 60.553 203.966 60.499 203.684 60.469C203.402 60.433 203.102 60.406 202.784 60.388C202.472 60.37 202.154 60.352 201.83 60.334C201.506 60.316 201.194 60.286 200.894 60.244C200.558 60.4 200.282 60.598 200.066 60.838C199.856 61.072 199.751 61.348 199.751 61.666C199.751 61.87 199.802 62.059 199.904 62.233C200.012 62.413 200.174 62.566 200.39 62.692C200.606 62.824 200.876 62.926 201.2 62.998C201.53 63.076 201.917 63.115 202.361 63.115C202.793 63.115 203.18 63.076 203.522 62.998C203.864 62.92 204.152 62.809 204.386 62.665C204.626 62.521 204.809 62.35 204.935 62.152C205.061 61.954 205.124 61.735 205.124 61.495ZM206.753 52.243V52.837C206.753 53.035 206.627 53.161 206.375 53.215L205.34 53.35C205.544 53.746 205.646 54.184 205.646 54.664C205.646 55.108 205.559 55.513 205.385 55.879C205.217 56.239 204.983 56.548 204.683 56.806C204.383 57.064 204.023 57.262 203.603 57.4C203.183 57.538 202.727 57.607 202.235 57.607C201.809 57.607 201.407 57.556 201.029 57.454C200.837 57.574 200.69 57.703 200.588 57.841C200.486 57.973 200.435 58.108 200.435 58.246C200.435 58.462 200.522 58.627 200.696 58.741C200.876 58.849 201.11 58.927 201.398 58.975C201.686 59.023 202.013 59.053 202.379 59.065C202.751 59.077 203.129 59.098 203.513 59.128C203.903 59.152 204.281 59.197 204.647 59.263C205.019 59.329 205.349 59.437 205.637 59.587C205.925 59.737 206.156 59.944 206.33 60.208C206.51 60.472 206.6 60.814 206.6 61.234C206.6 61.624 206.501 62.002 206.303 62.368C206.111 62.734 205.832 63.058 205.466 63.34C205.1 63.628 204.65 63.856 204.116 64.024C203.588 64.198 202.991 64.285 202.325 64.285C201.659 64.285 201.077 64.219 200.579 64.087C200.081 63.955 199.667 63.778 199.337 63.556C199.007 63.334 198.758 63.076 198.59 62.782C198.428 62.494 198.347 62.191 198.347 61.873C198.347 61.423 198.488 61.042 198.77 60.73C199.052 60.418 199.439 60.169 199.931 59.983C199.661 59.863 199.445 59.704 199.283 59.506C199.127 59.302 199.049 59.029 199.049 58.687C199.049 58.555 199.073 58.42 199.121 58.282C199.169 58.138 199.241 57.997 199.337 57.859C199.439 57.715 199.562 57.58 199.706 57.454C199.85 57.328 200.018 57.217 200.21 57.121C199.76 56.869 199.409 56.536 199.157 56.122C198.905 55.702 198.779 55.216 198.779 54.664C198.779 54.22 198.863 53.818 199.031 53.458C199.205 53.092 199.445 52.783 199.751 52.531C200.057 52.273 200.42 52.075 200.84 51.937C201.266 51.799 201.731 51.73 202.235 51.73C202.631 51.73 203 51.775 203.342 51.865C203.684 51.949 203.996 52.075 204.278 52.243H206.753ZM55.701 92.336C55.797 92.336 55.881 92.375 55.953 92.453L56.646 93.2C56.118 93.812 55.476 94.289 54.72 94.631C53.97 94.973 53.061 95.144 51.993 95.144C51.069 95.144 50.229 94.985 49.473 94.667C48.717 94.343 48.072 93.893 47.538 93.317C47.004 92.735 46.59 92.039 46.296 91.229C46.002 90.419 45.855 89.528 45.855 88.556C45.855 87.584 46.008 86.693 46.314 85.883C46.62 85.073 47.049 84.377 47.601 83.795C48.159 83.213 48.825 82.763 49.599 82.445C50.373 82.121 51.228 81.959 52.164 81.959C53.082 81.959 53.892 82.106 54.594 82.4C55.296 82.694 55.914 83.093 56.448 83.597L55.872 84.398C55.836 84.458 55.788 84.509 55.728 84.551C55.674 84.587 55.599 84.605 55.503 84.605C55.395 84.605 55.263 84.548 55.107 84.434C54.951 84.314 54.747 84.182 54.495 84.038C54.243 83.894 53.928 83.765 53.55 83.651C53.172 83.531 52.707 83.471 52.155 83.471C51.489 83.471 50.88 83.588 50.328 83.822C49.776 84.05 49.299 84.383 48.897 84.821C48.501 85.259 48.192 85.793 47.97 86.423C47.748 87.053 47.637 87.764 47.637 88.556C47.637 89.36 47.751 90.077 47.979 90.707C48.213 91.337 48.528 91.871 48.924 92.309C49.326 92.741 49.797 93.071 50.337 93.299C50.883 93.527 51.471 93.641 52.101 93.641C52.485 93.641 52.83 93.62 53.136 93.578C53.448 93.53 53.733 93.458 53.991 93.362C54.255 93.266 54.498 93.146 54.72 93.002C54.948 92.852 55.173 92.675 55.395 92.471C55.497 92.381 55.599 92.336 55.701 92.336ZM63.2334 90.896C62.4954 90.92 61.8654 90.98 61.3434 91.076C60.8274 91.166 60.4044 91.286 60.0744 91.436C59.7504 91.586 59.5134 91.763 59.3634 91.967C59.2194 92.171 59.1474 92.399 59.1474 92.651C59.1474 92.891 59.1864 93.098 59.2644 93.272C59.3424 93.446 59.4474 93.59 59.5794 93.704C59.7174 93.812 59.8764 93.893 60.0564 93.947C60.2424 93.995 60.4404 94.019 60.6504 94.019C60.9324 94.019 61.1904 93.992 61.4244 93.938C61.6584 93.878 61.8774 93.794 62.0814 93.686C62.2914 93.578 62.4894 93.449 62.6754 93.299C62.8674 93.149 63.0534 92.978 63.2334 92.786V90.896ZM58.0584 87.17C58.5624 86.684 59.1054 86.321 59.6874 86.081C60.2694 85.841 60.9144 85.721 61.6224 85.721C62.1324 85.721 62.5854 85.805 62.9814 85.973C63.3774 86.141 63.7104 86.375 63.9804 86.675C64.2504 86.975 64.4544 87.338 64.5924 87.764C64.7304 88.19 64.7994 88.658 64.7994 89.168V95H64.0884C63.9324 95 63.8124 94.976 63.7284 94.928C63.6444 94.874 63.5784 94.772 63.5304 94.622L63.3504 93.758C63.1104 93.98 62.8764 94.178 62.6484 94.352C62.4204 94.52 62.1804 94.664 61.9284 94.784C61.6764 94.898 61.4064 94.985 61.1184 95.045C60.8364 95.111 60.5214 95.144 60.1734 95.144C59.8194 95.144 59.4864 95.096 59.1744 95C58.8624 94.898 58.5894 94.748 58.3554 94.55C58.1274 94.352 57.9444 94.103 57.8064 93.803C57.6744 93.497 57.6084 93.137 57.6084 92.723C57.6084 92.363 57.7074 92.018 57.9054 91.688C58.1034 91.352 58.4244 91.055 58.8684 90.797C59.3124 90.539 59.8914 90.329 60.6054 90.167C61.3194 89.999 62.1954 89.903 63.2334 89.879V89.168C63.2334 88.46 63.0804 87.926 62.7744 87.566C62.4684 87.2 62.0214 87.017 61.4334 87.017C61.0374 87.017 60.7044 87.068 60.4344 87.17C60.1704 87.266 59.9394 87.377 59.7414 87.503C59.5494 87.623 59.3814 87.734 59.2374 87.836C59.0994 87.932 58.9614 87.98 58.8234 87.98C58.7154 87.98 58.6224 87.953 58.5444 87.899C58.4664 87.839 58.4004 87.767 58.3464 87.683L58.0584 87.17ZM68.7607 87.71C69.0487 87.086 69.4027 86.6 69.8227 86.252C70.2427 85.898 70.7557 85.721 71.3617 85.721C71.5537 85.721 71.7367 85.742 71.9107 85.784C72.0907 85.826 72.2497 85.892 72.3877 85.982L72.2707 87.179C72.2347 87.329 72.1447 87.404 72.0007 87.404C71.9167 87.404 71.7937 87.386 71.6317 87.35C71.4697 87.314 71.2867 87.296 71.0827 87.296C70.7947 87.296 70.5367 87.338 70.3087 87.422C70.0867 87.506 69.8857 87.632 69.7057 87.8C69.5317 87.962 69.3727 88.166 69.2287 88.412C69.0907 88.652 68.9647 88.928 68.8507 89.24V95H67.2397V85.883H68.1577C68.3317 85.883 68.4517 85.916 68.5177 85.982C68.5837 86.048 68.6287 86.162 68.6527 86.324L68.7607 87.71ZM79.3848 88.052C79.0848 87.65 78.7608 87.371 78.4128 87.215C78.0648 87.053 77.6748 86.972 77.2428 86.972C76.3968 86.972 75.7458 87.275 75.2898 87.881C74.8338 88.487 74.6058 89.351 74.6058 90.473C74.6058 91.067 74.6568 91.577 74.7588 92.003C74.8608 92.423 75.0108 92.771 75.2088 93.047C75.4068 93.317 75.6498 93.515 75.9378 93.641C76.2258 93.767 76.5528 93.83 76.9188 93.83C77.4468 93.83 77.9058 93.71 78.2958 93.47C78.6918 93.23 79.0548 92.891 79.3848 92.453V88.052ZM80.9868 81.743V95H80.0328C79.8048 95 79.6608 94.889 79.6008 94.667L79.4568 93.56C79.0668 94.028 78.6228 94.406 78.1248 94.694C77.6268 94.982 77.0508 95.126 76.3968 95.126C75.8748 95.126 75.4008 95.027 74.9748 94.829C74.5488 94.625 74.1858 94.328 73.8858 93.938C73.5858 93.548 73.3548 93.062 73.1928 92.48C73.0308 91.898 72.9498 91.229 72.9498 90.473C72.9498 89.801 73.0398 89.177 73.2198 88.601C73.3998 88.019 73.6578 87.515 73.9938 87.089C74.3298 86.663 74.7408 86.33 75.2268 86.09C75.7188 85.844 76.2708 85.721 76.8828 85.721C77.4408 85.721 77.9178 85.817 78.3138 86.009C78.7158 86.195 79.0728 86.456 79.3848 86.792V81.743H80.9868ZM93.4325 87.386C93.3605 87.518 93.2495 87.584 93.0995 87.584C93.0095 87.584 92.9075 87.551 92.7935 87.485C92.6795 87.419 92.5385 87.347 92.3705 87.269C92.2085 87.185 92.0135 87.11 91.7855 87.044C91.5575 86.972 91.2875 86.936 90.9755 86.936C90.7055 86.936 90.4625 86.972 90.2465 87.044C90.0305 87.11 89.8445 87.203 89.6885 87.323C89.5385 87.443 89.4215 87.584 89.3375 87.746C89.2595 87.902 89.2205 88.073 89.2205 88.259C89.2205 88.493 89.2865 88.688 89.4185 88.844C89.5565 89 89.7365 89.135 89.9585 89.249C90.1805 89.363 90.4325 89.465 90.7145 89.555C90.9965 89.639 91.2845 89.732 91.5785 89.834C91.8785 89.93 92.1695 90.038 92.4515 90.158C92.7335 90.278 92.9855 90.428 93.2075 90.608C93.4295 90.788 93.6065 91.01 93.7385 91.274C93.8765 91.532 93.9455 91.844 93.9455 92.21C93.9455 92.63 93.8705 93.02 93.7205 93.38C93.5705 93.734 93.3485 94.043 93.0545 94.307C92.7605 94.565 92.4005 94.769 91.9745 94.919C91.5485 95.069 91.0565 95.144 90.4985 95.144C89.8625 95.144 89.2865 95.042 88.7705 94.838C88.2545 94.628 87.8165 94.361 87.4565 94.037L87.8345 93.425C87.8825 93.347 87.9395 93.287 88.0055 93.245C88.0715 93.203 88.1555 93.182 88.2575 93.182C88.3655 93.182 88.4795 93.224 88.5995 93.308C88.7195 93.392 88.8635 93.485 89.0315 93.587C89.2055 93.689 89.4155 93.782 89.6615 93.866C89.9075 93.95 90.2135 93.992 90.5795 93.992C90.8915 93.992 91.1645 93.953 91.3985 93.875C91.6325 93.791 91.8275 93.68 91.9835 93.542C92.1395 93.404 92.2535 93.245 92.3255 93.065C92.4035 92.885 92.4425 92.693 92.4425 92.489C92.4425 92.237 92.3735 92.03 92.2355 91.868C92.1035 91.7 91.9265 91.559 91.7045 91.445C91.4825 91.325 91.2275 91.223 90.9395 91.139C90.6575 91.049 90.3665 90.956 90.0665 90.86C89.7725 90.764 89.4815 90.656 89.1935 90.536C88.9115 90.41 88.6595 90.254 88.4375 90.068C88.2155 89.882 88.0355 89.654 87.8975 89.384C87.7655 89.108 87.6995 88.775 87.6995 88.385C87.6995 88.037 87.7715 87.704 87.9155 87.386C88.0595 87.062 88.2695 86.78 88.5455 86.54C88.8215 86.294 89.1605 86.099 89.5625 85.955C89.9645 85.811 90.4235 85.739 90.9395 85.739C91.5395 85.739 92.0765 85.835 92.5505 86.027C93.0305 86.213 93.4445 86.471 93.7925 86.801L93.4325 87.386ZM99.7526 85.739C100.419 85.739 101.019 85.85 101.553 86.072C102.087 86.294 102.543 86.609 102.921 87.017C103.299 87.425 103.587 87.92 103.785 88.502C103.989 89.078 104.091 89.723 104.091 90.437C104.091 91.157 103.989 91.805 103.785 92.381C103.587 92.957 103.299 93.449 102.921 93.857C102.543 94.265 102.087 94.58 101.553 94.802C101.019 95.018 100.419 95.126 99.7526 95.126C99.0806 95.126 98.4746 95.018 97.9346 94.802C97.4006 94.58 96.9446 94.265 96.5666 93.857C96.1886 93.449 95.8976 92.957 95.6936 92.381C95.4956 91.805 95.3966 91.157 95.3966 90.437C95.3966 89.723 95.4956 89.078 95.6936 88.502C95.8976 87.92 96.1886 87.425 96.5666 87.017C96.9446 86.609 97.4006 86.294 97.9346 86.072C98.4746 85.85 99.0806 85.739 99.7526 85.739ZM99.7526 93.875C100.653 93.875 101.325 93.575 101.769 92.975C102.213 92.369 102.435 91.526 102.435 90.446C102.435 89.36 102.213 88.514 101.769 87.908C101.325 87.302 100.653 86.999 99.7526 86.999C99.2966 86.999 98.8976 87.077 98.5556 87.233C98.2196 87.389 97.9376 87.614 97.7096 87.908C97.4876 88.202 97.3196 88.565 97.2056 88.997C97.0976 89.423 97.0436 89.906 97.0436 90.446C97.0436 91.526 97.2656 92.369 97.7096 92.975C98.1596 93.575 98.8406 93.875 99.7526 93.875ZM107.644 87.71C107.932 87.086 108.286 86.6 108.706 86.252C109.126 85.898 109.639 85.721 110.245 85.721C110.437 85.721 110.62 85.742 110.794 85.784C110.974 85.826 111.133 85.892 111.271 85.982L111.154 87.179C111.118 87.329 111.028 87.404 110.884 87.404C110.8 87.404 110.677 87.386 110.515 87.35C110.353 87.314 110.17 87.296 109.966 87.296C109.678 87.296 109.42 87.338 109.192 87.422C108.97 87.506 108.769 87.632 108.589 87.8C108.415 87.962 108.256 88.166 108.112 88.412C107.974 88.652 107.848 88.928 107.734 89.24V95H106.123V85.883H107.041C107.215 85.883 107.335 85.916 107.401 85.982C107.467 86.048 107.512 86.162 107.536 86.324L107.644 87.71ZM121.139 95H119.537V87.224H114.839V92.696C114.839 93.08 114.932 93.365 115.118 93.551C115.304 93.737 115.544 93.83 115.838 93.83C116.006 93.83 116.15 93.809 116.27 93.767C116.396 93.719 116.504 93.668 116.594 93.614C116.684 93.56 116.759 93.512 116.819 93.47C116.885 93.422 116.942 93.398 116.99 93.398C117.074 93.398 117.149 93.449 117.215 93.551L117.683 94.316C117.407 94.574 117.074 94.778 116.684 94.928C116.294 95.072 115.892 95.144 115.478 95.144C114.758 95.144 114.203 94.943 113.813 94.541C113.429 94.139 113.237 93.56 113.237 92.804V87.224H112.139C112.043 87.224 111.962 87.197 111.896 87.143C111.83 87.083 111.797 86.993 111.797 86.873V86.234L113.291 86.036L113.66 83.228C113.678 83.138 113.717 83.066 113.777 83.012C113.843 82.952 113.927 82.922 114.029 82.922H114.839V86.063H121.139V95ZM121.535 82.958C121.535 83.114 121.502 83.261 121.436 83.399C121.376 83.531 121.292 83.648 121.184 83.75C121.082 83.852 120.962 83.933 120.824 83.993C120.686 84.053 120.539 84.083 120.383 84.083C120.227 84.083 120.08 84.053 119.942 83.993C119.81 83.933 119.693 83.852 119.591 83.75C119.489 83.648 119.408 83.531 119.348 83.399C119.288 83.261 119.258 83.114 119.258 82.958C119.258 82.802 119.288 82.655 119.348 82.517C119.408 82.373 119.489 82.25 119.591 82.148C119.693 82.04 119.81 81.956 119.942 81.896C120.08 81.836 120.227 81.806 120.383 81.806C120.539 81.806 120.686 81.836 120.824 81.896C120.962 81.956 121.082 82.04 121.184 82.148C121.292 82.25 121.376 82.373 121.436 82.517C121.502 82.655 121.535 82.802 121.535 82.958ZM125.283 87.206C125.481 86.984 125.691 86.783 125.913 86.603C126.135 86.423 126.369 86.27 126.615 86.144C126.867 86.012 127.131 85.913 127.407 85.847C127.689 85.775 127.992 85.739 128.316 85.739C128.814 85.739 129.252 85.823 129.63 85.991C130.014 86.153 130.332 86.387 130.584 86.693C130.842 86.993 131.037 87.356 131.169 87.782C131.301 88.208 131.367 88.679 131.367 89.195V95H129.756V89.195C129.756 88.505 129.597 87.971 129.279 87.593C128.967 87.209 128.49 87.017 127.848 87.017C127.374 87.017 126.93 87.131 126.516 87.359C126.108 87.587 125.73 87.896 125.382 88.286V95H123.771V85.883H124.734C124.962 85.883 125.103 85.994 125.157 86.216L125.283 87.206ZM136.985 90.545C137.309 90.545 137.594 90.5 137.84 90.41C138.086 90.32 138.293 90.194 138.461 90.032C138.629 89.87 138.755 89.678 138.839 89.456C138.923 89.228 138.965 88.979 138.965 88.709C138.965 88.151 138.794 87.707 138.452 87.377C138.116 87.047 137.627 86.882 136.985 86.882C136.337 86.882 135.842 87.047 135.5 87.377C135.164 87.707 134.996 88.151 134.996 88.709C134.996 88.979 135.038 89.228 135.122 89.456C135.212 89.678 135.341 89.87 135.509 90.032C135.677 90.194 135.884 90.32 136.13 90.41C136.376 90.5 136.661 90.545 136.985 90.545ZM139.874 95.495C139.874 95.273 139.811 95.093 139.685 94.955C139.559 94.817 139.388 94.709 139.172 94.631C138.962 94.553 138.716 94.499 138.434 94.469C138.152 94.433 137.852 94.406 137.534 94.388C137.222 94.37 136.904 94.352 136.58 94.334C136.256 94.316 135.944 94.286 135.644 94.244C135.308 94.4 135.032 94.598 134.816 94.838C134.606 95.072 134.501 95.348 134.501 95.666C134.501 95.87 134.552 96.059 134.654 96.233C134.762 96.413 134.924 96.566 135.14 96.692C135.356 96.824 135.626 96.926 135.95 96.998C136.28 97.076 136.667 97.115 137.111 97.115C137.543 97.115 137.93 97.076 138.272 96.998C138.614 96.92 138.902 96.809 139.136 96.665C139.376 96.521 139.559 96.35 139.685 96.152C139.811 95.954 139.874 95.735 139.874 95.495ZM141.503 86.243V86.837C141.503 87.035 141.377 87.161 141.125 87.215L140.09 87.35C140.294 87.746 140.396 88.184 140.396 88.664C140.396 89.108 140.309 89.513 140.135 89.879C139.967 90.239 139.733 90.548 139.433 90.806C139.133 91.064 138.773 91.262 138.353 91.4C137.933 91.538 137.477 91.607 136.985 91.607C136.559 91.607 136.157 91.556 135.779 91.454C135.587 91.574 135.44 91.703 135.338 91.841C135.236 91.973 135.185 92.108 135.185 92.246C135.185 92.462 135.272 92.627 135.446 92.741C135.626 92.849 135.86 92.927 136.148 92.975C136.436 93.023 136.763 93.053 137.129 93.065C137.501 93.077 137.879 93.098 138.263 93.128C138.653 93.152 139.031 93.197 139.397 93.263C139.769 93.329 140.099 93.437 140.387 93.587C140.675 93.737 140.906 93.944 141.08 94.208C141.26 94.472 141.35 94.814 141.35 95.234C141.35 95.624 141.251 96.002 141.053 96.368C140.861 96.734 140.582 97.058 140.216 97.34C139.85 97.628 139.4 97.856 138.866 98.024C138.338 98.198 137.741 98.285 137.075 98.285C136.409 98.285 135.827 98.219 135.329 98.087C134.831 97.955 134.417 97.778 134.087 97.556C133.757 97.334 133.508 97.076 133.34 96.782C133.178 96.494 133.097 96.191 133.097 95.873C133.097 95.423 133.238 95.042 133.52 94.73C133.802 94.418 134.189 94.169 134.681 93.983C134.411 93.863 134.195 93.704 134.033 93.506C133.877 93.302 133.799 93.029 133.799 92.687C133.799 92.555 133.823 92.42 133.871 92.282C133.919 92.138 133.991 91.997 134.087 91.859C134.189 91.715 134.312 91.58 134.456 91.454C134.6 91.328 134.768 91.217 134.96 91.121C134.51 90.869 134.159 90.536 133.907 90.122C133.655 89.702 133.529 89.216 133.529 88.664C133.529 88.22 133.613 87.818 133.781 87.458C133.955 87.092 134.195 86.783 134.501 86.531C134.807 86.273 135.17 86.075 135.59 85.937C136.016 85.799 136.481 85.73 136.985 85.73C137.381 85.73 137.75 85.775 138.092 85.865C138.434 85.949 138.746 86.075 139.028 86.243H141.503ZM63.36 116.103L59.337 129H57.771L54.504 119.163C54.474 119.067 54.444 118.965 54.414 118.857C54.39 118.749 54.363 118.635 54.333 118.515C54.303 118.635 54.273 118.749 54.243 118.857C54.213 118.965 54.183 119.067 54.153 119.163L50.868 129H49.302L45.279 116.103H46.728C46.884 116.103 47.013 116.142 47.115 116.22C47.223 116.298 47.292 116.397 47.322 116.517L49.986 125.481C50.028 125.643 50.067 125.817 50.103 126.003C50.145 126.189 50.184 126.387 50.22 126.597C50.262 126.387 50.304 126.189 50.346 126.003C50.394 125.811 50.445 125.637 50.499 125.481L53.532 116.517C53.568 116.415 53.637 116.322 53.739 116.238C53.847 116.148 53.976 116.103 54.126 116.103H54.63C54.786 116.103 54.912 116.142 55.008 116.22C55.104 116.298 55.176 116.397 55.224 116.517L58.248 125.481C58.302 125.637 58.35 125.805 58.392 125.985C58.44 126.165 58.485 126.354 58.527 126.552C58.557 126.354 58.59 126.165 58.626 125.985C58.662 125.805 58.701 125.637 58.743 125.481L61.416 116.517C61.446 116.409 61.512 116.313 61.614 116.229C61.722 116.145 61.851 116.103 62.001 116.103H63.36ZM66.5235 119.883V129H64.9215V119.883H66.5235ZM66.8655 117.021C66.8655 117.177 66.8325 117.324 66.7665 117.462C66.7065 117.594 66.6225 117.714 66.5145 117.822C66.4125 117.924 66.2895 118.005 66.1455 118.065C66.0075 118.125 65.8605 118.155 65.7045 118.155C65.5485 118.155 65.4015 118.125 65.2635 118.065C65.1315 118.005 65.0145 117.924 64.9125 117.822C64.8105 117.714 64.7295 117.594 64.6695 117.462C64.6095 117.324 64.5795 117.177 64.5795 117.021C64.5795 116.865 64.6095 116.718 64.6695 116.58C64.7295 116.436 64.8105 116.313 64.9125 116.211C65.0145 116.103 65.1315 116.019 65.2635 115.959C65.4015 115.899 65.5485 115.869 65.7045 115.869C65.8605 115.869 66.0075 115.899 66.1455 115.959C66.2895 116.019 66.4125 116.103 66.5145 116.211C66.6225 116.313 66.7065 116.436 66.7665 116.58C66.8325 116.718 66.8655 116.865 66.8655 117.021ZM70.6767 121.71C70.9647 121.086 71.3187 120.6 71.7387 120.252C72.1587 119.898 72.6717 119.721 73.2777 119.721C73.4697 119.721 73.6527 119.742 73.8267 119.784C74.0067 119.826 74.1657 119.892 74.3037 119.982L74.1867 121.179C74.1507 121.329 74.0607 121.404 73.9167 121.404C73.8327 121.404 73.7097 121.386 73.5477 121.35C73.3857 121.314 73.2027 121.296 72.9987 121.296C72.7107 121.296 72.4527 121.338 72.2247 121.422C72.0027 121.506 71.8017 121.632 71.6217 121.8C71.4477 121.962 71.2887 122.166 71.1447 122.412C71.0067 122.652 70.8807 122.928 70.7667 123.24V129H69.1557V119.883H70.0737C70.2477 119.883 70.3677 119.916 70.4337 119.982C70.4997 120.048 70.5447 120.162 70.5687 120.324L70.6767 121.71ZM81.4452 123.447C81.4452 123.075 81.3912 122.736 81.2832 122.43C81.1812 122.118 81.0282 121.851 80.8242 121.629C80.6262 121.401 80.3832 121.227 80.0952 121.107C79.8072 120.981 79.4802 120.918 79.1142 120.918C78.3462 120.918 77.7372 121.143 77.2872 121.593C76.8432 122.037 76.5672 122.655 76.4592 123.447H81.4452ZM82.7412 127.722C82.5432 127.962 82.3062 128.172 82.0302 128.352C81.7542 128.526 81.4572 128.67 81.1392 128.784C80.8272 128.898 80.5032 128.982 80.1672 129.036C79.8312 129.096 79.4982 129.126 79.1682 129.126C78.5382 129.126 77.9562 129.021 77.4222 128.811C76.8942 128.595 76.4352 128.283 76.0452 127.875C75.6612 127.461 75.3612 126.951 75.1452 126.345C74.9292 125.739 74.8212 125.043 74.8212 124.257C74.8212 123.621 74.9172 123.027 75.1092 122.475C75.3072 121.923 75.5892 121.446 75.9552 121.044C76.3212 120.636 76.7682 120.318 77.2962 120.09C77.8242 119.856 78.4182 119.739 79.0782 119.739C79.6242 119.739 80.1282 119.832 80.5902 120.018C81.0582 120.198 81.4602 120.462 81.7962 120.81C82.1382 121.152 82.4052 121.578 82.5972 122.088C82.7892 122.592 82.8852 123.168 82.8852 123.816C82.8852 124.068 82.8582 124.236 82.8042 124.32C82.7502 124.404 82.6482 124.446 82.4982 124.446H76.4052C76.4232 125.022 76.5012 125.523 76.6392 125.949C76.7832 126.375 76.9812 126.732 77.2332 127.02C77.4852 127.302 77.7852 127.515 78.1332 127.659C78.4812 127.797 78.8712 127.866 79.3032 127.866C79.7052 127.866 80.0502 127.821 80.3382 127.731C80.6322 127.635 80.8842 127.533 81.0942 127.425C81.3042 127.317 81.4782 127.218 81.6162 127.128C81.7602 127.032 81.8832 126.984 81.9852 126.984C82.1172 126.984 82.2192 127.035 82.2912 127.137L82.7412 127.722ZM85.3591 129V121.251L84.3511 121.134C84.2251 121.104 84.1201 121.059 84.0361 120.999C83.9581 120.933 83.9191 120.84 83.9191 120.72V120.063H85.3591V119.181C85.3591 118.659 85.4311 118.197 85.5751 117.795C85.7251 117.387 85.9351 117.045 86.2051 116.769C86.4811 116.487 86.8111 116.274 87.1951 116.13C87.5791 115.986 88.0111 115.914 88.4911 115.914C88.8991 115.914 89.2741 115.974 89.6161 116.094L89.5801 116.895C89.5681 117.039 89.4871 117.117 89.3371 117.129C89.1931 117.141 88.9981 117.147 88.7521 117.147C88.4761 117.147 88.2241 117.183 87.9961 117.255C87.7741 117.327 87.5821 117.444 87.4201 117.606C87.2581 117.768 87.1321 117.981 87.0421 118.245C86.9581 118.509 86.9161 118.836 86.9161 119.226V120.063H89.5441V121.224H86.9701V129H85.3591ZM92.5966 121.71C92.8846 121.086 93.2386 120.6 93.6586 120.252C94.0786 119.898 94.5916 119.721 95.1976 119.721C95.3896 119.721 95.5726 119.742 95.7466 119.784C95.9266 119.826 96.0856 119.892 96.2236 119.982L96.1066 121.179C96.0706 121.329 95.9806 121.404 95.8366 121.404C95.7526 121.404 95.6296 121.386 95.4676 121.35C95.3056 121.314 95.1226 121.296 94.9186 121.296C94.6306 121.296 94.3726 121.338 94.1446 121.422C93.9226 121.506 93.7216 121.632 93.5416 121.8C93.3676 121.962 93.2086 122.166 93.0646 122.412C92.9266 122.652 92.8006 122.928 92.6866 123.24V129H91.0756V119.883H91.9936C92.1676 119.883 92.2876 119.916 92.3536 119.982C92.4196 120.048 92.4646 120.162 92.4886 120.324L92.5966 121.71ZM102.433 124.896C101.695 124.92 101.065 124.98 100.543 125.076C100.027 125.166 99.6037 125.286 99.2737 125.436C98.9497 125.586 98.7127 125.763 98.5627 125.967C98.4187 126.171 98.3467 126.399 98.3467 126.651C98.3467 126.891 98.3857 127.098 98.4637 127.272C98.5417 127.446 98.6467 127.59 98.7787 127.704C98.9167 127.812 99.0757 127.893 99.2557 127.947C99.4417 127.995 99.6397 128.019 99.8497 128.019C100.132 128.019 100.39 127.992 100.624 127.938C100.858 127.878 101.077 127.794 101.281 127.686C101.491 127.578 101.689 127.449 101.875 127.299C102.067 127.149 102.253 126.978 102.433 126.786V124.896ZM97.2577 121.17C97.7617 120.684 98.3047 120.321 98.8867 120.081C99.4687 119.841 100.114 119.721 100.822 119.721C101.332 119.721 101.785 119.805 102.181 119.973C102.577 120.141 102.91 120.375 103.18 120.675C103.45 120.975 103.654 121.338 103.792 121.764C103.93 122.19 103.999 122.658 103.999 123.168V129H103.288C103.132 129 103.012 128.976 102.928 128.928C102.844 128.874 102.778 128.772 102.73 128.622L102.55 127.758C102.31 127.98 102.076 128.178 101.848 128.352C101.62 128.52 101.38 128.664 101.128 128.784C100.876 128.898 100.606 128.985 100.318 129.045C100.036 129.111 99.7207 129.144 99.3727 129.144C99.0187 129.144 98.6857 129.096 98.3737 129C98.0617 128.898 97.7887 128.748 97.5547 128.55C97.3267 128.352 97.1437 128.103 97.0057 127.803C96.8737 127.497 96.8077 127.137 96.8077 126.723C96.8077 126.363 96.9067 126.018 97.1047 125.688C97.3027 125.352 97.6237 125.055 98.0677 124.797C98.5117 124.539 99.0907 124.329 99.8047 124.167C100.519 123.999 101.395 123.903 102.433 123.879V123.168C102.433 122.46 102.28 121.926 101.974 121.566C101.668 121.2 101.221 121.017 100.633 121.017C100.237 121.017 99.9037 121.068 99.6337 121.17C99.3697 121.266 99.1387 121.377 98.9407 121.503C98.7487 121.623 98.5807 121.734 98.4367 121.836C98.2987 121.932 98.1607 121.98 98.0227 121.98C97.9147 121.98 97.8217 121.953 97.7437 121.899C97.6657 121.839 97.5997 121.767 97.5457 121.683L97.2577 121.17ZM106.439 129V119.883H107.402C107.63 119.883 107.771 119.994 107.825 120.216L107.942 121.152C108.278 120.738 108.656 120.399 109.076 120.135C109.496 119.871 109.982 119.739 110.534 119.739C111.146 119.739 111.641 119.91 112.019 120.252C112.403 120.594 112.679 121.056 112.847 121.638C112.979 121.308 113.147 121.023 113.351 120.783C113.561 120.543 113.795 120.345 114.053 120.189C114.311 120.033 114.584 119.919 114.872 119.847C115.166 119.775 115.463 119.739 115.763 119.739C116.243 119.739 116.669 119.817 117.041 119.973C117.419 120.123 117.737 120.345 117.995 120.639C118.259 120.933 118.46 121.296 118.598 121.728C118.736 122.154 118.805 122.643 118.805 123.195V129H117.194V123.195C117.194 122.481 117.038 121.941 116.726 121.575C116.414 121.203 115.964 121.017 115.376 121.017C115.112 121.017 114.86 121.065 114.62 121.161C114.386 121.251 114.179 121.386 113.999 121.566C113.819 121.746 113.675 121.974 113.567 122.25C113.465 122.52 113.414 122.835 113.414 123.195V129H111.803V123.195C111.803 122.463 111.656 121.917 111.362 121.557C111.068 121.197 110.639 121.017 110.075 121.017C109.679 121.017 109.313 121.125 108.977 121.341C108.641 121.551 108.332 121.839 108.05 122.205V129H106.439ZM127.342 123.447C127.342 123.075 127.288 122.736 127.18 122.43C127.078 122.118 126.925 121.851 126.721 121.629C126.523 121.401 126.28 121.227 125.992 121.107C125.704 120.981 125.377 120.918 125.011 120.918C124.243 120.918 123.634 121.143 123.184 121.593C122.74 122.037 122.464 122.655 122.356 123.447H127.342ZM128.638 127.722C128.44 127.962 128.203 128.172 127.927 128.352C127.651 128.526 127.354 128.67 127.036 128.784C126.724 128.898 126.4 128.982 126.064 129.036C125.728 129.096 125.395 129.126 125.065 129.126C124.435 129.126 123.853 129.021 123.319 128.811C122.791 128.595 122.332 128.283 121.942 127.875C121.558 127.461 121.258 126.951 121.042 126.345C120.826 125.739 120.718 125.043 120.718 124.257C120.718 123.621 120.814 123.027 121.006 122.475C121.204 121.923 121.486 121.446 121.852 121.044C122.218 120.636 122.665 120.318 123.193 120.09C123.721 119.856 124.315 119.739 124.975 119.739C125.521 119.739 126.025 119.832 126.487 120.018C126.955 120.198 127.357 120.462 127.693 120.81C128.035 121.152 128.302 121.578 128.494 122.088C128.686 122.592 128.782 123.168 128.782 123.816C128.782 124.068 128.755 124.236 128.701 124.32C128.647 124.404 128.545 124.446 128.395 124.446H122.302C122.32 125.022 122.398 125.523 122.536 125.949C122.68 126.375 122.878 126.732 123.13 127.02C123.382 127.302 123.682 127.515 124.03 127.659C124.378 127.797 124.768 127.866 125.2 127.866C125.602 127.866 125.947 127.821 126.235 127.731C126.529 127.635 126.781 127.533 126.991 127.425C127.201 127.317 127.375 127.218 127.513 127.128C127.657 127.032 127.78 126.984 127.882 126.984C128.014 126.984 128.116 127.035 128.188 127.137L128.638 127.722ZM136.059 121.386C135.987 121.518 135.876 121.584 135.726 121.584C135.636 121.584 135.534 121.551 135.42 121.485C135.306 121.419 135.165 121.347 134.997 121.269C134.835 121.185 134.64 121.11 134.412 121.044C134.184 120.972 133.914 120.936 133.602 120.936C133.332 120.936 133.089 120.972 132.873 121.044C132.657 121.11 132.471 121.203 132.315 121.323C132.165 121.443 132.048 121.584 131.964 121.746C131.886 121.902 131.847 122.073 131.847 122.259C131.847 122.493 131.913 122.688 132.045 122.844C132.183 123 132.363 123.135 132.585 123.249C132.807 123.363 133.059 123.465 133.341 123.555C133.623 123.639 133.911 123.732 134.205 123.834C134.505 123.93 134.796 124.038 135.078 124.158C135.36 124.278 135.612 124.428 135.834 124.608C136.056 124.788 136.233 125.01 136.365 125.274C136.503 125.532 136.572 125.844 136.572 126.21C136.572 126.63 136.497 127.02 136.347 127.38C136.197 127.734 135.975 128.043 135.681 128.307C135.387 128.565 135.027 128.769 134.601 128.919C134.175 129.069 133.683 129.144 133.125 129.144C132.489 129.144 131.913 129.042 131.397 128.838C130.881 128.628 130.443 128.361 130.083 128.037L130.461 127.425C130.509 127.347 130.566 127.287 130.632 127.245C130.698 127.203 130.782 127.182 130.884 127.182C130.992 127.182 131.106 127.224 131.226 127.308C131.346 127.392 131.49 127.485 131.658 127.587C131.832 127.689 132.042 127.782 132.288 127.866C132.534 127.95 132.84 127.992 133.206 127.992C133.518 127.992 133.791 127.953 134.025 127.875C134.259 127.791 134.454 127.68 134.61 127.542C134.766 127.404 134.88 127.245 134.952 127.065C135.03 126.885 135.069 126.693 135.069 126.489C135.069 126.237 135 126.03 134.862 125.868C134.73 125.7 134.553 125.559 134.331 125.445C134.109 125.325 133.854 125.223 133.566 125.139C133.284 125.049 132.993 124.956 132.693 124.86C132.399 124.764 132.108 124.656 131.82 124.536C131.538 124.41 131.286 124.254 131.064 124.068C130.842 123.882 130.662 123.654 130.524 123.384C130.392 123.108 130.326 122.775 130.326 122.385C130.326 122.037 130.398 121.704 130.542 121.386C130.686 121.062 130.896 120.78 131.172 120.54C131.448 120.294 131.787 120.099 132.189 119.955C132.591 119.811 133.05 119.739 133.566 119.739C134.166 119.739 134.703 119.835 135.177 120.027C135.657 120.213 136.071 120.471 136.419 120.801L136.059 121.386ZM50.454 156.79C50.952 156.79 51.39 156.724 51.768 156.592C52.152 156.46 52.473 156.277 52.731 156.043C52.995 155.803 53.193 155.518 53.325 155.188C53.457 154.858 53.523 154.495 53.523 154.099C53.523 153.277 53.268 152.635 52.758 152.173C52.254 151.711 51.486 151.48 50.454 151.48H48.384V156.79H50.454ZM50.454 150.103C51.27 150.103 51.978 150.199 52.578 150.391C53.184 150.577 53.685 150.844 54.081 151.192C54.477 151.54 54.771 151.96 54.963 152.452C55.161 152.944 55.26 153.493 55.26 154.099C55.26 154.699 55.155 155.248 54.945 155.746C54.735 156.244 54.426 156.673 54.018 157.033C53.616 157.393 53.115 157.675 52.515 157.879C51.921 158.077 51.234 158.176 50.454 158.176H48.384V163H46.647V150.103H50.454ZM58.4248 155.71C58.7128 155.086 59.0668 154.6 59.4868 154.252C59.9068 153.898 60.4198 153.721 61.0258 153.721C61.2178 153.721 61.4008 153.742 61.5748 153.784C61.7548 153.826 61.9138 153.892 62.0518 153.982L61.9348 155.179C61.8988 155.329 61.8088 155.404 61.6648 155.404C61.5808 155.404 61.4578 155.386 61.2958 155.35C61.1338 155.314 60.9508 155.296 60.7468 155.296C60.4588 155.296 60.2008 155.338 59.9728 155.422C59.7508 155.506 59.5498 155.632 59.3698 155.8C59.1958 155.962 59.0368 156.166 58.8928 156.412C58.7548 156.652 58.6288 156.928 58.5148 157.24V163H56.9038V153.883H57.8218C57.9958 153.883 58.1158 153.916 58.1818 153.982C58.2478 154.048 58.2928 154.162 58.3168 154.324L58.4248 155.71ZM66.9343 153.739C67.6003 153.739 68.2003 153.85 68.7343 154.072C69.2683 154.294 69.7243 154.609 70.1023 155.017C70.4803 155.425 70.7683 155.92 70.9663 156.502C71.1703 157.078 71.2723 157.723 71.2723 158.437C71.2723 159.157 71.1703 159.805 70.9663 160.381C70.7683 160.957 70.4803 161.449 70.1023 161.857C69.7243 162.265 69.2683 162.58 68.7343 162.802C68.2003 163.018 67.6003 163.126 66.9343 163.126C66.2623 163.126 65.6563 163.018 65.1163 162.802C64.5823 162.58 64.1263 162.265 63.7483 161.857C63.3703 161.449 63.0793 160.957 62.8753 160.381C62.6773 159.805 62.5783 159.157 62.5783 158.437C62.5783 157.723 62.6773 157.078 62.8753 156.502C63.0793 155.92 63.3703 155.425 63.7483 155.017C64.1263 154.609 64.5823 154.294 65.1163 154.072C65.6563 153.85 66.2623 153.739 66.9343 153.739ZM66.9343 161.875C67.8343 161.875 68.5063 161.575 68.9503 160.975C69.3943 160.369 69.6163 159.526 69.6163 158.446C69.6163 157.36 69.3943 156.514 68.9503 155.908C68.5063 155.302 67.8343 154.999 66.9343 154.999C66.4783 154.999 66.0793 155.077 65.7373 155.233C65.4013 155.389 65.1193 155.614 64.8913 155.908C64.6693 156.202 64.5013 156.565 64.3873 156.997C64.2793 157.423 64.2253 157.906 64.2253 158.446C64.2253 159.526 64.4473 160.369 64.8913 160.975C65.3413 161.575 66.0223 161.875 66.9343 161.875ZM75.945 163.144C75.225 163.144 74.67 162.943 74.28 162.541C73.896 162.139 73.704 161.56 73.704 160.804V155.224H72.606C72.51 155.224 72.429 155.197 72.363 155.143C72.297 155.083 72.264 154.993 72.264 154.873V154.234L73.758 154.045L74.127 151.228C74.145 151.138 74.184 151.066 74.244 151.012C74.31 150.952 74.394 150.922 74.496 150.922H75.306V154.063H77.943V155.224H75.306V160.696C75.306 161.08 75.399 161.365 75.585 161.551C75.771 161.737 76.011 161.83 76.305 161.83C76.473 161.83 76.617 161.809 76.737 161.767C76.863 161.719 76.971 161.668 77.061 161.614C77.151 161.56 77.226 161.512 77.286 161.47C77.352 161.422 77.409 161.398 77.457 161.398C77.541 161.398 77.616 161.449 77.682 161.551L78.15 162.316C77.874 162.574 77.541 162.778 77.151 162.928C76.761 163.072 76.359 163.144 75.945 163.144ZM83.3874 153.739C84.0534 153.739 84.6534 153.85 85.1874 154.072C85.7214 154.294 86.1774 154.609 86.5554 155.017C86.9334 155.425 87.2214 155.92 87.4194 156.502C87.6234 157.078 87.7254 157.723 87.7254 158.437C87.7254 159.157 87.6234 159.805 87.4194 160.381C87.2214 160.957 86.9334 161.449 86.5554 161.857C86.1774 162.265 85.7214 162.58 85.1874 162.802C84.6534 163.018 84.0534 163.126 83.3874 163.126C82.7154 163.126 82.1094 163.018 81.5694 162.802C81.0354 162.58 80.5794 162.265 80.2014 161.857C79.8234 161.449 79.5324 160.957 79.3284 160.381C79.1304 159.805 79.0314 159.157 79.0314 158.437C79.0314 157.723 79.1304 157.078 79.3284 156.502C79.5324 155.92 79.8234 155.425 80.2014 155.017C80.5794 154.609 81.0354 154.294 81.5694 154.072C82.1094 153.85 82.7154 153.739 83.3874 153.739ZM83.3874 161.875C84.2874 161.875 84.9594 161.575 85.4034 160.975C85.8474 160.369 86.0694 159.526 86.0694 158.446C86.0694 157.36 85.8474 156.514 85.4034 155.908C84.9594 155.302 84.2874 154.999 83.3874 154.999C82.9314 154.999 82.5324 155.077 82.1904 155.233C81.8544 155.389 81.5724 155.614 81.3444 155.908C81.1224 156.202 80.9544 156.565 80.8404 156.997C80.7324 157.423 80.6784 157.906 80.6784 158.446C80.6784 159.526 80.9004 160.369 81.3444 160.975C81.7944 161.575 82.4754 161.875 83.3874 161.875ZM92.3981 163.144C91.6781 163.144 91.1231 162.943 90.7331 162.541C90.3491 162.139 90.1571 161.56 90.1571 160.804V155.224H89.0591C88.9631 155.224 88.8821 155.197 88.8161 155.143C88.7501 155.083 88.7171 154.993 88.7171 154.873V154.234L90.2111 154.045L90.5801 151.228C90.5981 151.138 90.6371 151.066 90.6971 151.012C90.7631 150.952 90.8471 150.922 90.9491 150.922H91.7591V154.063H94.3961V155.224H91.7591V160.696C91.7591 161.08 91.8521 161.365 92.0381 161.551C92.2241 161.737 92.4641 161.83 92.7581 161.83C92.9261 161.83 93.0701 161.809 93.1901 161.767C93.3161 161.719 93.4241 161.668 93.5141 161.614C93.6041 161.56 93.6791 161.512 93.7391 161.47C93.8051 161.422 93.8621 161.398 93.9101 161.398C93.9941 161.398 94.0691 161.449 94.1351 161.551L94.6031 162.316C94.3271 162.574 93.9941 162.778 93.6041 162.928C93.2141 163.072 92.8121 163.144 92.3981 163.144ZM103.916 153.883L98.8313 165.691C98.7773 165.811 98.7083 165.907 98.6243 165.979C98.5463 166.051 98.4233 166.087 98.2553 166.087H97.0673L98.7323 162.469L94.9703 153.883H96.3563C96.4943 153.883 96.6023 153.919 96.6803 153.991C96.7643 154.057 96.8213 154.132 96.8513 154.216L99.2903 159.958C99.3863 160.21 99.4673 160.474 99.5332 160.75C99.6173 160.468 99.7073 160.201 99.8033 159.949L102.17 154.216C102.206 154.12 102.266 154.042 102.35 153.982C102.44 153.916 102.539 153.883 102.647 153.883H103.916ZM106.943 160.804C107.237 161.2 107.558 161.479 107.906 161.641C108.254 161.803 108.644 161.884 109.076 161.884C109.928 161.884 110.582 161.581 111.038 160.975C111.494 160.369 111.722 159.505 111.722 158.383C111.722 157.789 111.668 157.279 111.56 156.853C111.458 156.427 111.308 156.079 111.11 155.809C110.912 155.533 110.669 155.332 110.381 155.206C110.093 155.08 109.766 155.017 109.4 155.017C108.878 155.017 108.419 155.137 108.023 155.377C107.633 155.617 107.273 155.956 106.943 156.394V160.804ZM106.862 155.296C107.246 154.822 107.69 154.441 108.194 154.153C108.698 153.865 109.274 153.721 109.922 153.721C110.45 153.721 110.927 153.823 111.353 154.027C111.779 154.225 112.142 154.522 112.442 154.918C112.742 155.308 112.973 155.794 113.135 156.376C113.297 156.958 113.378 157.627 113.378 158.383C113.378 159.055 113.288 159.682 113.107 160.264C112.928 160.84 112.667 161.341 112.325 161.767C111.989 162.187 111.575 162.52 111.083 162.766C110.597 163.006 110.048 163.126 109.436 163.126C108.878 163.126 108.398 163.033 107.996 162.847C107.6 162.655 107.249 162.391 106.943 162.055V166.087H105.332V153.883H106.295C106.523 153.883 106.664 153.994 106.718 154.216L106.862 155.296ZM117.113 153.883V163H115.511V153.883H117.113ZM117.455 151.021C117.455 151.177 117.422 151.324 117.356 151.462C117.296 151.594 117.212 151.714 117.104 151.822C117.002 151.924 116.879 152.005 116.735 152.065C116.597 152.125 116.45 152.155 116.294 152.155C116.138 152.155 115.991 152.125 115.853 152.065C115.721 152.005 115.604 151.924 115.502 151.822C115.4 151.714 115.319 151.594 115.259 151.462C115.199 151.324 115.169 151.177 115.169 151.021C115.169 150.865 115.199 150.718 115.259 150.58C115.319 150.436 115.4 150.313 115.502 150.211C115.604 150.103 115.721 150.019 115.853 149.959C115.991 149.899 116.138 149.869 116.294 149.869C116.45 149.869 116.597 149.899 116.735 149.959C116.879 150.019 117.002 150.103 117.104 150.211C117.212 150.313 117.296 150.436 117.356 150.58C117.422 150.718 117.455 150.865 117.455 151.021ZM121.258 155.206C121.456 154.984 121.666 154.783 121.888 154.603C122.11 154.423 122.344 154.27 122.59 154.144C122.842 154.012 123.106 153.913 123.382 153.847C123.664 153.775 123.967 153.739 124.291 153.739C124.789 153.739 125.227 153.823 125.605 153.991C125.989 154.153 126.307 154.387 126.559 154.693C126.817 154.993 127.012 155.356 127.144 155.782C127.276 156.208 127.342 156.679 127.342 157.195V163H125.731V157.195C125.731 156.505 125.572 155.971 125.254 155.593C124.942 155.209 124.465 155.017 123.823 155.017C123.349 155.017 122.905 155.131 122.491 155.359C122.083 155.587 121.705 155.896 121.357 156.286V163H119.746V153.883H120.709C120.937 153.883 121.078 153.994 121.132 154.216L121.258 155.206ZM132.96 158.545C133.284 158.545 133.569 158.5 133.815 158.41C134.061 158.32 134.268 158.194 134.436 158.032C134.604 157.87 134.73 157.678 134.814 157.456C134.898 157.228 134.94 156.979 134.94 156.709C134.94 156.151 134.769 155.707 134.427 155.377C134.091 155.047 133.602 154.882 132.96 154.882C132.312 154.882 131.817 155.047 131.475 155.377C131.139 155.707 130.971 156.151 130.971 156.709C130.971 156.979 131.013 157.228 131.097 157.456C131.187 157.678 131.316 157.87 131.484 158.032C131.652 158.194 131.859 158.32 132.105 158.41C132.351 158.5 132.636 158.545 132.96 158.545ZM135.849 163.495C135.849 163.273 135.786 163.093 135.66 162.955C135.534 162.817 135.363 162.709 135.147 162.631C134.937 162.553 134.691 162.499 134.409 162.469C134.127 162.433 133.827 162.406 133.509 162.388C133.197 162.37 132.879 162.352 132.555 162.334C132.231 162.316 131.919 162.286 131.619 162.244C131.283 162.4 131.007 162.598 130.791 162.838C130.581 163.072 130.476 163.348 130.476 163.666C130.476 163.87 130.527 164.059 130.629 164.233C130.737 164.413 130.899 164.566 131.115 164.692C131.331 164.824 131.601 164.926 131.925 164.998C132.255 165.076 132.642 165.115 133.086 165.115C133.518 165.115 133.905 165.076 134.247 164.998C134.589 164.92 134.877 164.809 135.111 164.665C135.351 164.521 135.534 164.35 135.66 164.152C135.786 163.954 135.849 163.735 135.849 163.495ZM137.478 154.243V154.837C137.478 155.035 137.352 155.161 137.1 155.215L136.065 155.35C136.269 155.746 136.371 156.184 136.371 156.664C136.371 157.108 136.284 157.513 136.11 157.879C135.942 158.239 135.708 158.548 135.408 158.806C135.108 159.064 134.748 159.262 134.328 159.4C133.908 159.538 133.452 159.607 132.96 159.607C132.534 159.607 132.132 159.556 131.754 159.454C131.562 159.574 131.415 159.703 131.313 159.841C131.211 159.973 131.16 160.108 131.16 160.246C131.16 160.462 131.247 160.627 131.421 160.741C131.601 160.849 131.835 160.927 132.123 160.975C132.411 161.023 132.738 161.053 133.104 161.065C133.476 161.077 133.854 161.098 134.238 161.128C134.628 161.152 135.006 161.197 135.372 161.263C135.744 161.329 136.074 161.437 136.362 161.587C136.65 161.737 136.881 161.944 137.055 162.208C137.235 162.472 137.325 162.814 137.325 163.234C137.325 163.624 137.226 164.002 137.028 164.368C136.836 164.734 136.557 165.058 136.191 165.34C135.825 165.628 135.375 165.856 134.841 166.024C134.313 166.198 133.716 166.285 133.05 166.285C132.384 166.285 131.802 166.219 131.304 166.087C130.806 165.955 130.392 165.778 130.062 165.556C129.732 165.334 129.483 165.076 129.315 164.782C129.153 164.494 129.072 164.191 129.072 163.873C129.072 163.423 129.213 163.042 129.495 162.73C129.777 162.418 130.164 162.169 130.656 161.983C130.386 161.863 130.17 161.704 130.008 161.506C129.852 161.302 129.774 161.029 129.774 160.687C129.774 160.555 129.798 160.42 129.846 160.282C129.894 160.138 129.966 159.997 130.062 159.859C130.164 159.715 130.287 159.58 130.431 159.454C130.575 159.328 130.743 159.217 130.935 159.121C130.485 158.869 130.134 158.536 129.882 158.122C129.63 157.702 129.504 157.216 129.504 156.664C129.504 156.22 129.588 155.818 129.756 155.458C129.93 155.092 130.17 154.783 130.476 154.531C130.782 154.273 131.145 154.075 131.565 153.937C131.991 153.799 132.456 153.73 132.96 153.73C133.356 153.73 133.725 153.775 134.067 153.865C134.409 153.949 134.721 154.075 135.003 154.243H137.478Z" fill="#4F4F4F"/>
</svg>
