<svg width="234" height="105" viewBox="0 0 234 105" fill="none" xmlns="http://www.w3.org/2000/svg">
<path d="M14.5 4.86646V8.51628" stroke="#CE8200" stroke-width="2" stroke-linecap="round" stroke-linejoin="round"/>
<path d="M14.5 20.6824V24.3322" stroke="#CE8200" stroke-width="2" stroke-linecap="round" stroke-linejoin="round"/>
<path d="M7.25 7.29968L10.875 10.9495" stroke="#CE8200" stroke-width="2" stroke-linecap="round" stroke-linejoin="round"/>
<path d="M18.125 18.2491L21.75 21.899" stroke="#CE8200" stroke-width="2" stroke-linecap="round" stroke-linejoin="round"/>
<path d="M4.83334 14.5994H8.45834" stroke="#CE8200" stroke-width="2" stroke-linecap="round" stroke-linejoin="round"/>
<path d="M20.5417 14.5994H24.1667" stroke="#CE8200" stroke-width="2" stroke-linecap="round" stroke-linejoin="round"/>
<path d="M7.25 21.899L10.875 18.2491" stroke="#CE8200" stroke-width="2" stroke-linecap="round" stroke-linejoin="round"/>
<path d="M18.125 10.9495L21.75 7.29968" stroke="#CE8200" stroke-width="2" stroke-linecap="round" stroke-linejoin="round"/>
<path d="M47.656 9.008C47.544 10.368 47.488 11.584 47.488 12.656C47.488 13.408 47.512 14.016 47.56 14.48H47.008C46.688 12.672 46.208 11.4 45.568 10.664C44.928 9.928 44.032 9.56 42.88 9.56H42.088C41.592 9.56 41.232 9.6 41.008 9.68C40.784 9.76 40.632 9.92 40.552 10.16C40.472 10.384 40.432 10.752 40.432 11.264V17.312H41.272C42.12 17.312 42.76 17 43.192 16.376C43.64 15.752 43.952 15.008 44.128 14.144H44.68C44.632 14.816 44.608 15.568 44.608 16.4V17.552C44.608 18.368 44.656 19.504 44.752 20.96H44.2C43.864 18.848 42.888 17.792 41.272 17.792H40.432V23.312C40.432 23.952 40.496 24.424 40.624 24.728C40.768 25.016 41.008 25.208 41.344 25.304C41.696 25.4 42.248 25.456 43 25.472V26C41.032 25.952 39.568 25.928 38.608 25.928C37.808 25.928 36.8 25.944 35.584 25.976L34.816 26V25.52C35.344 25.488 35.728 25.424 35.968 25.328C36.224 25.232 36.392 25.048 36.472 24.776C36.568 24.504 36.616 24.064 36.616 23.456V11.552C36.616 10.944 36.568 10.504 36.472 10.232C36.392 9.96 36.224 9.776 35.968 9.68C35.728 9.584 35.344 9.52 34.816 9.488V9.008C36.544 9.056 39.152 9.08 42.64 9.08C44.992 9.08 46.664 9.056 47.656 9.008ZM51.8991 7.4C52.5711 7.4 53.0991 7.568 53.4831 7.904C53.8831 8.224 54.0831 8.672 54.0831 9.248C54.0831 9.824 53.8831 10.28 53.4831 10.616C53.0991 10.936 52.5711 11.096 51.8991 11.096C51.2271 11.096 50.6911 10.936 50.2911 10.616C49.9071 10.28 49.7151 9.824 49.7151 9.248C49.7151 8.672 49.9071 8.224 50.2911 7.904C50.6911 7.568 51.2271 7.4 51.8991 7.4ZM53.7711 23.768C53.7711 24.424 53.8831 24.88 54.1071 25.136C54.3471 25.376 54.7471 25.496 55.3071 25.496V26C53.7071 25.936 52.6431 25.904 52.1151 25.904C51.6191 25.904 50.5071 25.936 48.7791 26V25.496C49.3551 25.496 49.7551 25.376 49.9791 25.136C50.2031 24.88 50.3151 24.424 50.3151 23.768V16.208C50.3151 15.472 50.2031 14.936 49.9791 14.6C49.7551 14.264 49.3551 14.096 48.7791 14.096V13.592C49.2911 13.64 49.7871 13.664 50.2671 13.664C51.6911 13.664 52.8591 13.552 53.7711 13.328V23.768ZM65.2774 13.256C66.4934 13.256 67.3734 13.568 67.9174 14.192C68.1894 14.496 68.3814 14.888 68.4934 15.368C68.6054 15.848 68.6614 16.496 68.6614 17.312V23.768C68.6614 24.424 68.7734 24.88 68.9974 25.136C69.2374 25.376 69.6374 25.496 70.1974 25.496V26C68.5974 25.936 67.5414 25.904 67.0294 25.904C66.5494 25.904 65.5094 25.936 63.9094 26V25.496C64.3894 25.496 64.7254 25.376 64.9174 25.136C65.1094 24.88 65.2054 24.424 65.2054 23.768V16.304C65.2054 15.648 65.0934 15.152 64.8694 14.816C64.6614 14.48 64.2774 14.312 63.7174 14.312C63.0614 14.312 62.5014 14.584 62.0374 15.128C61.5734 15.656 61.3414 16.312 61.3414 17.096V23.768C61.3414 24.424 61.4374 24.88 61.6294 25.136C61.8214 25.376 62.1574 25.496 62.6374 25.496V26C61.1654 25.936 60.1734 25.904 59.6614 25.904C59.1814 25.904 58.0774 25.936 56.3494 26V25.496C56.9254 25.496 57.3254 25.376 57.5494 25.136C57.7734 24.88 57.8854 24.424 57.8854 23.768V16.208C57.8854 15.472 57.7734 14.936 57.5494 14.6C57.3254 14.264 56.9254 14.096 56.3494 14.096V13.592C56.8614 13.64 57.3574 13.664 57.8374 13.664C59.2614 13.664 60.4294 13.552 61.3414 13.328V15.488C62.0614 14 63.3734 13.256 65.2774 13.256ZM74.2596 26.168C73.2356 26.168 72.4676 25.904 71.9556 25.376C71.4596 24.848 71.2116 24.152 71.2116 23.288C71.2116 22.568 71.3956 21.976 71.7636 21.512C72.1476 21.032 72.6036 20.664 73.1316 20.408C73.6756 20.152 74.3636 19.88 75.1956 19.592C76.0756 19.288 76.7156 19.016 77.1156 18.776C77.5316 18.52 77.7396 18.176 77.7396 17.744V15.872C77.7396 15.2 77.5796 14.68 77.2596 14.312C76.9556 13.928 76.4756 13.736 75.8196 13.736C75.0516 13.736 74.4676 13.928 74.0676 14.312C74.5156 14.472 74.8596 14.712 75.0996 15.032C75.3556 15.352 75.4836 15.728 75.4836 16.16C75.4836 16.704 75.2996 17.136 74.9316 17.456C74.5636 17.776 74.1156 17.936 73.5876 17.936C73.0276 17.936 72.5956 17.76 72.2916 17.408C71.9876 17.056 71.8356 16.616 71.8356 16.088C71.8356 15.64 71.9396 15.264 72.1476 14.96C72.3716 14.64 72.7076 14.344 73.1556 14.072C73.5876 13.816 74.1156 13.616 74.7396 13.472C75.3796 13.328 76.0756 13.256 76.8276 13.256C77.6116 13.256 78.2916 13.336 78.8676 13.496C79.4436 13.656 79.9236 13.928 80.3076 14.312C80.6596 14.664 80.8916 15.096 81.0036 15.608C81.1316 16.12 81.1956 16.816 81.1956 17.696V24.224C81.1956 24.608 81.2276 24.88 81.2916 25.04C81.3716 25.2 81.5156 25.28 81.7236 25.28C81.9636 25.28 82.2516 25.144 82.5876 24.872L82.8276 25.28C82.1076 25.872 81.2276 26.168 80.1876 26.168C79.3076 26.168 78.6916 25.992 78.3396 25.64C77.9876 25.288 77.8036 24.816 77.7876 24.224C76.9876 25.52 75.8116 26.168 74.2596 26.168ZM76.1076 24.632C76.7316 24.632 77.2756 24.304 77.7396 23.648V18.728C77.5476 19.048 77.1396 19.4 76.5156 19.784C75.8916 20.184 75.4196 20.584 75.0996 20.984C74.7796 21.384 74.6196 21.96 74.6196 22.712C74.6196 23.368 74.7556 23.856 75.0276 24.176C75.2996 24.48 75.6596 24.632 76.1076 24.632ZM88.4095 23.768C88.4095 24.424 88.5215 24.88 88.7455 25.136C88.9695 25.376 89.3695 25.496 89.9455 25.496V26C88.2815 25.936 87.2095 25.904 86.7295 25.904C86.1855 25.904 85.0815 25.936 83.4175 26V25.496C83.9775 25.496 84.3695 25.376 84.5935 25.136C84.8335 24.88 84.9535 24.424 84.9535 23.768V10.088C84.9535 9.352 84.8335 8.816 84.5935 8.48C84.3695 8.144 83.9775 7.976 83.4175 7.976V7.472C83.9295 7.52 84.4255 7.544 84.9055 7.544C86.2975 7.544 87.4655 7.432 88.4095 7.208V23.768ZM95.7186 13.256C96.3266 13.256 96.8866 13.336 97.3986 13.496C97.9106 13.64 98.3026 13.808 98.5746 14C98.7346 14.112 98.8786 14.168 99.0066 14.168C99.1506 14.168 99.2706 14.096 99.3666 13.952C99.4786 13.792 99.5506 13.568 99.5826 13.28H100.087C100.023 14.096 99.9906 15.504 99.9906 17.504H99.4866C99.3426 16.448 99.0226 15.568 98.5266 14.864C98.0466 14.144 97.3426 13.784 96.4146 13.784C95.9346 13.784 95.5346 13.92 95.2146 14.192C94.9106 14.464 94.7586 14.84 94.7586 15.32C94.7586 15.864 94.9426 16.336 95.3106 16.736C95.6786 17.12 96.2546 17.592 97.0386 18.152L97.7346 18.656C98.7106 19.392 99.4306 20.048 99.8946 20.624C100.359 21.2 100.591 21.92 100.591 22.784C100.591 23.488 100.383 24.112 99.9666 24.656C99.5666 25.2 99.0226 25.616 98.3346 25.904C97.6466 26.192 96.8866 26.336 96.0546 26.336C95.1746 26.336 94.4226 26.168 93.7986 25.832C93.2866 25.576 92.9186 25.408 92.6946 25.328C92.5346 25.28 92.3906 25.336 92.2626 25.496C92.1506 25.64 92.0626 25.864 91.9986 26.168H91.4946C91.5586 25.256 91.5906 23.656 91.5906 21.368H92.0946C92.4146 24.312 93.4946 25.784 95.3346 25.784C95.7986 25.784 96.1906 25.648 96.5106 25.376C96.8466 25.088 97.0146 24.656 97.0146 24.08C97.0146 23.632 96.9106 23.232 96.7026 22.88C96.5106 22.528 96.2626 22.216 95.9586 21.944C95.6546 21.672 95.1986 21.296 94.5906 20.816C93.8706 20.24 93.3186 19.776 92.9346 19.424C92.5666 19.072 92.2466 18.656 91.9746 18.176C91.7186 17.696 91.5906 17.16 91.5906 16.568C91.5906 15.544 91.9906 14.736 92.7906 14.144C93.5906 13.552 94.5666 13.256 95.7186 13.256Z" fill="#CE8200"/>
<path d="M42.964 59.533V61H35.647V48.103H37.384V59.533H42.964ZM46.2071 51.883V61H44.6051V51.883H46.2071ZM46.5491 49.021C46.5491 49.177 46.5161 49.324 46.4501 49.462C46.3901 49.594 46.3061 49.714 46.1981 49.822C46.0961 49.924 45.9731 50.005 45.8291 50.065C45.6911 50.125 45.5441 50.155 45.3881 50.155C45.2321 50.155 45.0851 50.125 44.9471 50.065C44.8151 50.005 44.6981 49.924 44.5961 49.822C44.4941 49.714 44.4131 49.594 44.3531 49.462C44.2931 49.324 44.2631 49.177 44.2631 49.021C44.2631 48.865 44.2931 48.718 44.3531 48.58C44.4131 48.436 44.4941 48.313 44.5961 48.211C44.6981 48.103 44.8151 48.019 44.9471 47.959C45.0851 47.899 45.2321 47.869 45.3881 47.869C45.5441 47.869 45.6911 47.899 45.8291 47.959C45.9731 48.019 46.0961 48.103 46.1981 48.211C46.3061 48.313 46.3901 48.436 46.4501 48.58C46.5161 48.718 46.5491 48.865 46.5491 49.021ZM56.6513 51.883L52.9343 61H51.4943L47.7773 51.883H49.0823C49.2143 51.883 49.3223 51.916 49.4063 51.982C49.4903 52.048 49.5473 52.126 49.5773 52.216L51.8903 58.084C51.9623 58.306 52.0253 58.522 52.0793 58.732C52.1333 58.942 52.1843 59.152 52.2323 59.362C52.2803 59.152 52.3313 58.942 52.3853 58.732C52.4393 58.522 52.5053 58.306 52.5833 58.084L54.9233 52.216C54.9593 52.12 55.0193 52.042 55.1033 51.982C55.1873 51.916 55.2863 51.883 55.4003 51.883H56.6513ZM63.9765 55.447C63.9765 55.075 63.9225 54.736 63.8145 54.43C63.7125 54.118 63.5595 53.851 63.3555 53.629C63.1575 53.401 62.9145 53.227 62.6265 53.107C62.3385 52.981 62.0115 52.918 61.6455 52.918C60.8775 52.918 60.2685 53.143 59.8185 53.593C59.3745 54.037 59.0985 54.655 58.9905 55.447H63.9765ZM65.2725 59.722C65.0745 59.962 64.8375 60.172 64.5615 60.352C64.2855 60.526 63.9885 60.67 63.6705 60.784C63.3585 60.898 63.0345 60.982 62.6985 61.036C62.3625 61.096 62.0295 61.126 61.6995 61.126C61.0695 61.126 60.4875 61.021 59.9535 60.811C59.4255 60.595 58.9665 60.283 58.5765 59.875C58.1925 59.461 57.8925 58.951 57.6765 58.345C57.4605 57.739 57.3525 57.043 57.3525 56.257C57.3525 55.621 57.4485 55.027 57.6405 54.475C57.8385 53.923 58.1205 53.446 58.4865 53.044C58.8525 52.636 59.2995 52.318 59.8275 52.09C60.3555 51.856 60.9495 51.739 61.6095 51.739C62.1555 51.739 62.6595 51.832 63.1215 52.018C63.5895 52.198 63.9915 52.462 64.3275 52.81C64.6695 53.152 64.9365 53.578 65.1285 54.088C65.3205 54.592 65.4165 55.168 65.4165 55.816C65.4165 56.068 65.3895 56.236 65.3355 56.32C65.2815 56.404 65.1795 56.446 65.0295 56.446H58.9365C58.9545 57.022 59.0325 57.523 59.1705 57.949C59.3145 58.375 59.5125 58.732 59.7645 59.02C60.0165 59.302 60.3165 59.515 60.6645 59.659C61.0125 59.797 61.4025 59.866 61.8345 59.866C62.2365 59.866 62.5815 59.821 62.8695 59.731C63.1635 59.635 63.4155 59.533 63.6255 59.425C63.8355 59.317 64.0095 59.218 64.1475 59.128C64.2915 59.032 64.4145 58.984 64.5165 58.984C64.6485 58.984 64.7505 59.035 64.8225 59.137L65.2725 59.722ZM84.1936 51.883L81.2416 61H79.9726C79.8166 61 79.7086 60.898 79.6486 60.694L77.6326 54.511C77.5846 54.373 77.5456 54.235 77.5156 54.097C77.4856 53.953 77.4556 53.812 77.4256 53.674C77.3956 53.812 77.3656 53.953 77.3356 54.097C77.3056 54.235 77.2666 54.376 77.2186 54.52L75.1666 60.694C75.1126 60.898 74.9926 61 74.8066 61H73.6006L70.6486 51.883H71.9086C72.0346 51.883 72.1396 51.916 72.2236 51.982C72.3136 52.048 72.3736 52.126 72.4036 52.216L74.1496 58.084C74.2516 58.516 74.3326 58.924 74.3926 59.308C74.4466 59.11 74.5006 58.909 74.5546 58.705C74.6146 58.501 74.6776 58.294 74.7436 58.084L76.6696 52.18C76.6996 52.09 76.7506 52.015 76.8226 51.955C76.9006 51.895 76.9936 51.865 77.1016 51.865H77.8036C77.9236 51.865 78.0226 51.895 78.1006 51.955C78.1786 52.015 78.2326 52.09 78.2626 52.18L80.1436 58.084C80.2096 58.294 80.2696 58.501 80.3236 58.705C80.3776 58.909 80.4286 59.11 80.4766 59.308C80.5066 59.11 80.5426 58.912 80.5846 58.714C80.6326 58.51 80.6836 58.3 80.7376 58.084L82.5196 52.216C82.5496 52.12 82.6066 52.042 82.6906 51.982C82.7746 51.916 82.8736 51.883 82.9876 51.883H84.1936ZM91.7323 55.447C91.7323 55.075 91.6783 54.736 91.5703 54.43C91.4683 54.118 91.3153 53.851 91.1113 53.629C90.9133 53.401 90.6703 53.227 90.3823 53.107C90.0943 52.981 89.7673 52.918 89.4013 52.918C88.6333 52.918 88.0243 53.143 87.5743 53.593C87.1303 54.037 86.8543 54.655 86.7463 55.447H91.7323ZM93.0283 59.722C92.8303 59.962 92.5933 60.172 92.3173 60.352C92.0413 60.526 91.7443 60.67 91.4263 60.784C91.1143 60.898 90.7903 60.982 90.4543 61.036C90.1183 61.096 89.7853 61.126 89.4553 61.126C88.8253 61.126 88.2433 61.021 87.7093 60.811C87.1813 60.595 86.7223 60.283 86.3323 59.875C85.9483 59.461 85.6483 58.951 85.4323 58.345C85.2163 57.739 85.1083 57.043 85.1083 56.257C85.1083 55.621 85.2043 55.027 85.3963 54.475C85.5943 53.923 85.8763 53.446 86.2423 53.044C86.6083 52.636 87.0553 52.318 87.5833 52.09C88.1113 51.856 88.7053 51.739 89.3653 51.739C89.9113 51.739 90.4153 51.832 90.8773 52.018C91.3453 52.198 91.7473 52.462 92.0833 52.81C92.4253 53.152 92.6923 53.578 92.8843 54.088C93.0763 54.592 93.1723 55.168 93.1723 55.816C93.1723 56.068 93.1453 56.236 93.0913 56.32C93.0373 56.404 92.9353 56.446 92.7853 56.446H86.6923C86.7103 57.022 86.7883 57.523 86.9263 57.949C87.0703 58.375 87.2683 58.732 87.5203 59.02C87.7723 59.302 88.0723 59.515 88.4203 59.659C88.7683 59.797 89.1583 59.866 89.5903 59.866C89.9923 59.866 90.3373 59.821 90.6253 59.731C90.9193 59.635 91.1713 59.533 91.3813 59.425C91.5913 59.317 91.7653 59.218 91.9033 59.128C92.0473 59.032 92.1703 58.984 92.2723 58.984C92.4043 58.984 92.5063 59.035 92.5783 59.137L93.0283 59.722ZM96.7511 58.804C97.0451 59.2 97.3661 59.479 97.7141 59.641C98.0681 59.803 98.4551 59.884 98.8751 59.884C99.7331 59.884 100.39 59.581 100.846 58.975C101.302 58.369 101.53 57.466 101.53 56.266C101.53 55.15 101.326 54.331 100.918 53.809C100.516 53.281 99.9401 53.017 99.1901 53.017C98.6681 53.017 98.2121 53.137 97.8221 53.377C97.4381 53.617 97.0811 53.956 96.7511 54.394V58.804ZM96.7511 53.197C97.1351 52.753 97.5671 52.399 98.0471 52.135C98.5331 51.871 99.0911 51.739 99.7211 51.739C100.255 51.739 100.735 51.841 101.161 52.045C101.593 52.249 101.959 52.546 102.259 52.936C102.559 53.32 102.787 53.788 102.943 54.34C103.105 54.892 103.186 55.513 103.186 56.203C103.186 56.941 103.096 57.613 102.916 58.219C102.736 58.825 102.475 59.344 102.133 59.776C101.797 60.202 101.386 60.535 100.9 60.775C100.414 61.009 99.8681 61.126 99.2621 61.126C98.6621 61.126 98.1551 61.015 97.7411 60.793C97.3331 60.565 96.9761 60.244 96.6701 59.83L96.5891 60.658C96.5411 60.886 96.4031 61 96.1751 61H95.1401V47.743H96.7511V53.197ZM110.522 53.386C110.45 53.518 110.339 53.584 110.189 53.584C110.099 53.584 109.997 53.551 109.883 53.485C109.769 53.419 109.628 53.347 109.46 53.269C109.298 53.185 109.103 53.11 108.875 53.044C108.647 52.972 108.377 52.936 108.065 52.936C107.795 52.936 107.552 52.972 107.336 53.044C107.12 53.11 106.934 53.203 106.778 53.323C106.628 53.443 106.511 53.584 106.427 53.746C106.349 53.902 106.31 54.073 106.31 54.259C106.31 54.493 106.376 54.688 106.508 54.844C106.646 55 106.826 55.135 107.048 55.249C107.27 55.363 107.522 55.465 107.804 55.555C108.086 55.639 108.374 55.732 108.668 55.834C108.968 55.93 109.259 56.038 109.541 56.158C109.823 56.278 110.075 56.428 110.297 56.608C110.519 56.788 110.696 57.01 110.828 57.274C110.966 57.532 111.035 57.844 111.035 58.21C111.035 58.63 110.96 59.02 110.81 59.38C110.66 59.734 110.438 60.043 110.144 60.307C109.85 60.565 109.49 60.769 109.064 60.919C108.638 61.069 108.146 61.144 107.588 61.144C106.952 61.144 106.376 61.042 105.86 60.838C105.344 60.628 104.906 60.361 104.546 60.037L104.924 59.425C104.972 59.347 105.029 59.287 105.095 59.245C105.161 59.203 105.245 59.182 105.347 59.182C105.455 59.182 105.569 59.224 105.689 59.308C105.809 59.392 105.953 59.485 106.121 59.587C106.295 59.689 106.505 59.782 106.751 59.866C106.997 59.95 107.303 59.992 107.669 59.992C107.981 59.992 108.254 59.953 108.488 59.875C108.722 59.791 108.917 59.68 109.073 59.542C109.229 59.404 109.343 59.245 109.415 59.065C109.493 58.885 109.532 58.693 109.532 58.489C109.532 58.237 109.463 58.03 109.325 57.868C109.193 57.7 109.016 57.559 108.794 57.445C108.572 57.325 108.317 57.223 108.029 57.139C107.747 57.049 107.456 56.956 107.156 56.86C106.862 56.764 106.571 56.656 106.283 56.536C106.001 56.41 105.749 56.254 105.527 56.068C105.305 55.882 105.125 55.654 104.987 55.384C104.855 55.108 104.789 54.775 104.789 54.385C104.789 54.037 104.861 53.704 105.005 53.386C105.149 53.062 105.359 52.78 105.635 52.54C105.911 52.294 106.25 52.099 106.652 51.955C107.054 51.811 107.513 51.739 108.029 51.739C108.629 51.739 109.166 51.835 109.64 52.027C110.12 52.213 110.534 52.471 110.882 52.801L110.522 53.386ZM114.691 51.883V61H113.089V51.883H114.691ZM115.033 49.021C115.033 49.177 115 49.324 114.934 49.462C114.874 49.594 114.79 49.714 114.682 49.822C114.58 49.924 114.457 50.005 114.313 50.065C114.175 50.125 114.028 50.155 113.872 50.155C113.716 50.155 113.569 50.125 113.431 50.065C113.299 50.005 113.182 49.924 113.08 49.822C112.978 49.714 112.897 49.594 112.837 49.462C112.777 49.324 112.747 49.177 112.747 49.021C112.747 48.865 112.777 48.718 112.837 48.58C112.897 48.436 112.978 48.313 113.08 48.211C113.182 48.103 113.299 48.019 113.431 47.959C113.569 47.899 113.716 47.869 113.872 47.869C114.028 47.869 114.175 47.899 114.313 47.959C114.457 48.019 114.58 48.103 114.682 48.211C114.79 48.313 114.874 48.436 114.934 48.58C115 48.718 115.033 48.865 115.033 49.021ZM120.123 61.144C119.403 61.144 118.848 60.943 118.458 60.541C118.074 60.139 117.882 59.56 117.882 58.804V53.224H116.784C116.688 53.224 116.607 53.197 116.541 53.143C116.475 53.083 116.442 52.993 116.442 52.873V52.234L117.936 52.045L118.305 49.228C118.323 49.138 118.362 49.066 118.422 49.012C118.488 48.952 118.572 48.922 118.674 48.922H119.484V52.063H122.121V53.224H119.484V58.696C119.484 59.08 119.577 59.365 119.763 59.551C119.949 59.737 120.189 59.83 120.483 59.83C120.651 59.83 120.795 59.809 120.915 59.767C121.041 59.719 121.149 59.668 121.239 59.614C121.329 59.56 121.404 59.512 121.464 59.47C121.53 59.422 121.587 59.398 121.635 59.398C121.719 59.398 121.794 59.449 121.86 59.551L122.328 60.316C122.052 60.574 121.719 60.778 121.329 60.928C120.939 61.072 120.537 61.144 120.123 61.144ZM129.824 55.447C129.824 55.075 129.77 54.736 129.662 54.43C129.56 54.118 129.407 53.851 129.203 53.629C129.005 53.401 128.762 53.227 128.474 53.107C128.186 52.981 127.859 52.918 127.493 52.918C126.725 52.918 126.116 53.143 125.666 53.593C125.222 54.037 124.946 54.655 124.838 55.447H129.824ZM131.12 59.722C130.922 59.962 130.685 60.172 130.409 60.352C130.133 60.526 129.836 60.67 129.518 60.784C129.206 60.898 128.882 60.982 128.546 61.036C128.21 61.096 127.877 61.126 127.547 61.126C126.917 61.126 126.335 61.021 125.801 60.811C125.273 60.595 124.814 60.283 124.424 59.875C124.04 59.461 123.74 58.951 123.524 58.345C123.308 57.739 123.2 57.043 123.2 56.257C123.2 55.621 123.296 55.027 123.488 54.475C123.686 53.923 123.968 53.446 124.334 53.044C124.7 52.636 125.147 52.318 125.675 52.09C126.203 51.856 126.797 51.739 127.457 51.739C128.003 51.739 128.507 51.832 128.969 52.018C129.437 52.198 129.839 52.462 130.175 52.81C130.517 53.152 130.784 53.578 130.976 54.088C131.168 54.592 131.264 55.168 131.264 55.816C131.264 56.068 131.237 56.236 131.183 56.32C131.129 56.404 131.027 56.446 130.877 56.446H124.784C124.802 57.022 124.88 57.523 125.018 57.949C125.162 58.375 125.36 58.732 125.612 59.02C125.864 59.302 126.164 59.515 126.512 59.659C126.86 59.797 127.25 59.866 127.682 59.866C128.084 59.866 128.429 59.821 128.717 59.731C129.011 59.635 129.263 59.533 129.473 59.425C129.683 59.317 129.857 59.218 129.995 59.128C130.139 59.032 130.262 58.984 130.364 58.984C130.496 58.984 130.598 59.035 130.67 59.137L131.12 59.722ZM42.964 93.533V95H35.647V82.103H37.384V93.533H42.964ZM49.9667 89.447C49.9667 89.075 49.9127 88.736 49.8047 88.43C49.7027 88.118 49.5497 87.851 49.3457 87.629C49.1477 87.401 48.9047 87.227 48.6167 87.107C48.3287 86.981 48.0017 86.918 47.6357 86.918C46.8677 86.918 46.2587 87.143 45.8087 87.593C45.3647 88.037 45.0887 88.655 44.9807 89.447H49.9667ZM51.2627 93.722C51.0647 93.962 50.8277 94.172 50.5517 94.352C50.2757 94.526 49.9787 94.67 49.6607 94.784C49.3487 94.898 49.0247 94.982 48.6887 95.036C48.3527 95.096 48.0197 95.126 47.6897 95.126C47.0597 95.126 46.4777 95.021 45.9437 94.811C45.4157 94.595 44.9567 94.283 44.5667 93.875C44.1827 93.461 43.8827 92.951 43.6667 92.345C43.4507 91.739 43.3427 91.043 43.3427 90.257C43.3427 89.621 43.4387 89.027 43.6307 88.475C43.8287 87.923 44.1107 87.446 44.4767 87.044C44.8427 86.636 45.2897 86.318 45.8177 86.09C46.3457 85.856 46.9397 85.739 47.5997 85.739C48.1457 85.739 48.6497 85.832 49.1117 86.018C49.5797 86.198 49.9817 86.462 50.3177 86.81C50.6597 87.152 50.9267 87.578 51.1187 88.088C51.3107 88.592 51.4067 89.168 51.4067 89.816C51.4067 90.068 51.3797 90.236 51.3257 90.32C51.2717 90.404 51.1697 90.446 51.0197 90.446H44.9267C44.9447 91.022 45.0227 91.523 45.1607 91.949C45.3047 92.375 45.5027 92.732 45.7547 93.02C46.0067 93.302 46.3067 93.515 46.6547 93.659C47.0027 93.797 47.3927 93.866 47.8247 93.866C48.2267 93.866 48.5717 93.821 48.8597 93.731C49.1537 93.635 49.4057 93.533 49.6157 93.425C49.8257 93.317 49.9997 93.218 50.1377 93.128C50.2817 93.032 50.4047 92.984 50.5067 92.984C50.6387 92.984 50.7407 93.035 50.8127 93.137L51.2627 93.722ZM58.3155 90.896C57.5775 90.92 56.9475 90.98 56.4255 91.076C55.9095 91.166 55.4865 91.286 55.1565 91.436C54.8325 91.586 54.5955 91.763 54.4455 91.967C54.3015 92.171 54.2295 92.399 54.2295 92.651C54.2295 92.891 54.2685 93.098 54.3465 93.272C54.4245 93.446 54.5295 93.59 54.6615 93.704C54.7995 93.812 54.9585 93.893 55.1385 93.947C55.3245 93.995 55.5225 94.019 55.7325 94.019C56.0145 94.019 56.2725 93.992 56.5065 93.938C56.7405 93.878 56.9595 93.794 57.1635 93.686C57.3735 93.578 57.5715 93.449 57.7575 93.299C57.9495 93.149 58.1355 92.978 58.3155 92.786V90.896ZM53.1405 87.17C53.6445 86.684 54.1875 86.321 54.7695 86.081C55.3515 85.841 55.9965 85.721 56.7045 85.721C57.2145 85.721 57.6675 85.805 58.0635 85.973C58.4595 86.141 58.7925 86.375 59.0625 86.675C59.3325 86.975 59.5365 87.338 59.6745 87.764C59.8125 88.19 59.8815 88.658 59.8815 89.168V95H59.1705C59.0145 95 58.8945 94.976 58.8105 94.928C58.7265 94.874 58.6605 94.772 58.6125 94.622L58.4325 93.758C58.1925 93.98 57.9585 94.178 57.7305 94.352C57.5025 94.52 57.2625 94.664 57.0105 94.784C56.7585 94.898 56.4885 94.985 56.2005 95.045C55.9185 95.111 55.6035 95.144 55.2555 95.144C54.9015 95.144 54.5685 95.096 54.2565 95C53.9445 94.898 53.6715 94.748 53.4375 94.55C53.2095 94.352 53.0265 94.103 52.8885 93.803C52.7565 93.497 52.6905 93.137 52.6905 92.723C52.6905 92.363 52.7895 92.018 52.9875 91.688C53.1855 91.352 53.5065 91.055 53.9505 90.797C54.3945 90.539 54.9735 90.329 55.6875 90.167C56.4015 89.999 57.2775 89.903 58.3155 89.879V89.168C58.3155 88.46 58.1625 87.926 57.8565 87.566C57.5505 87.2 57.1035 87.017 56.5155 87.017C56.1195 87.017 55.7865 87.068 55.5165 87.17C55.2525 87.266 55.0215 87.377 54.8235 87.503C54.6315 87.623 54.4635 87.734 54.3195 87.836C54.1815 87.932 54.0435 87.98 53.9055 87.98C53.7975 87.98 53.7045 87.953 53.6265 87.899C53.5485 87.839 53.4825 87.767 53.4285 87.683L53.1405 87.17ZM63.8427 87.71C64.1307 87.086 64.4847 86.6 64.9047 86.252C65.3247 85.898 65.8377 85.721 66.4437 85.721C66.6357 85.721 66.8187 85.742 66.9927 85.784C67.1727 85.826 67.3317 85.892 67.4697 85.982L67.3527 87.179C67.3167 87.329 67.2267 87.404 67.0827 87.404C66.9987 87.404 66.8757 87.386 66.7137 87.35C66.5517 87.314 66.3687 87.296 66.1647 87.296C65.8767 87.296 65.6187 87.338 65.3907 87.422C65.1687 87.506 64.9677 87.632 64.7877 87.8C64.6137 87.962 64.4547 88.166 64.3107 88.412C64.1727 88.652 64.0467 88.928 63.9327 89.24V95H62.3217V85.883H63.2397C63.4137 85.883 63.5337 85.916 63.5997 85.982C63.6657 86.048 63.7107 86.162 63.7347 86.324L63.8427 87.71ZM70.3904 87.206C70.5884 86.984 70.7984 86.783 71.0204 86.603C71.2424 86.423 71.4764 86.27 71.7224 86.144C71.9744 86.012 72.2384 85.913 72.5144 85.847C72.7964 85.775 73.0994 85.739 73.4234 85.739C73.9214 85.739 74.3594 85.823 74.7374 85.991C75.1214 86.153 75.4394 86.387 75.6914 86.693C75.9494 86.993 76.1444 87.356 76.2764 87.782C76.4084 88.208 76.4744 88.679 76.4744 89.195V95H74.8634V89.195C74.8634 88.505 74.7044 87.971 74.3864 87.593C74.0744 87.209 73.5974 87.017 72.9554 87.017C72.4814 87.017 72.0374 87.131 71.6234 87.359C71.2154 87.587 70.8374 87.896 70.4894 88.286V95H68.8784V85.883H69.8414C70.0694 85.883 70.2104 85.994 70.2644 86.216L70.3904 87.206ZM80.6075 85.883V95H79.0055V85.883H80.6075ZM80.9495 83.021C80.9495 83.177 80.9165 83.324 80.8505 83.462C80.7905 83.594 80.7065 83.714 80.5985 83.822C80.4965 83.924 80.3735 84.005 80.2295 84.065C80.0915 84.125 79.9445 84.155 79.7885 84.155C79.6325 84.155 79.4855 84.125 79.3475 84.065C79.2155 84.005 79.0985 83.924 78.9965 83.822C78.8945 83.714 78.8135 83.594 78.7535 83.462C78.6935 83.324 78.6635 83.177 78.6635 83.021C78.6635 82.865 78.6935 82.718 78.7535 82.58C78.8135 82.436 78.8945 82.313 78.9965 82.211C79.0985 82.103 79.2155 82.019 79.3475 81.959C79.4855 81.899 79.6325 81.869 79.7885 81.869C79.9445 81.869 80.0915 81.899 80.2295 81.959C80.3735 82.019 80.4965 82.103 80.5985 82.211C80.7065 82.313 80.7905 82.436 80.8505 82.58C80.9165 82.718 80.9495 82.865 80.9495 83.021ZM84.7517 87.206C84.9497 86.984 85.1597 86.783 85.3817 86.603C85.6037 86.423 85.8377 86.27 86.0837 86.144C86.3357 86.012 86.5997 85.913 86.8757 85.847C87.1577 85.775 87.4607 85.739 87.7847 85.739C88.2827 85.739 88.7207 85.823 89.0987 85.991C89.4827 86.153 89.8007 86.387 90.0527 86.693C90.3107 86.993 90.5057 87.356 90.6377 87.782C90.7697 88.208 90.8357 88.679 90.8357 89.195V95H89.2247V89.195C89.2247 88.505 89.0657 87.971 88.7477 87.593C88.4357 87.209 87.9587 87.017 87.3167 87.017C86.8427 87.017 86.3987 87.131 85.9847 87.359C85.5767 87.587 85.1987 87.896 84.8507 88.286V95H83.2397V85.883H84.2027C84.4307 85.883 84.5717 85.994 84.6257 86.216L84.7517 87.206ZM96.4538 90.545C96.7778 90.545 97.0628 90.5 97.3088 90.41C97.5548 90.32 97.7618 90.194 97.9298 90.032C98.0978 89.87 98.2238 89.678 98.3078 89.456C98.3918 89.228 98.4338 88.979 98.4338 88.709C98.4338 88.151 98.2628 87.707 97.9208 87.377C97.5848 87.047 97.0958 86.882 96.4538 86.882C95.8058 86.882 95.3108 87.047 94.9688 87.377C94.6328 87.707 94.4648 88.151 94.4648 88.709C94.4648 88.979 94.5068 89.228 94.5908 89.456C94.6808 89.678 94.8098 89.87 94.9778 90.032C95.1458 90.194 95.3528 90.32 95.5988 90.41C95.8448 90.5 96.1298 90.545 96.4538 90.545ZM99.3428 95.495C99.3428 95.273 99.2798 95.093 99.1538 94.955C99.0278 94.817 98.8568 94.709 98.6408 94.631C98.4308 94.553 98.1848 94.499 97.9028 94.469C97.6208 94.433 97.3208 94.406 97.0028 94.388C96.6908 94.37 96.3728 94.352 96.0488 94.334C95.7248 94.316 95.4128 94.286 95.1128 94.244C94.7768 94.4 94.5008 94.598 94.2848 94.838C94.0748 95.072 93.9698 95.348 93.9698 95.666C93.9698 95.87 94.0208 96.059 94.1228 96.233C94.2308 96.413 94.3928 96.566 94.6088 96.692C94.8248 96.824 95.0948 96.926 95.4188 96.998C95.7488 97.076 96.1358 97.115 96.5798 97.115C97.0118 97.115 97.3988 97.076 97.7408 96.998C98.0828 96.92 98.3708 96.809 98.6048 96.665C98.8448 96.521 99.0278 96.35 99.1538 96.152C99.2798 95.954 99.3428 95.735 99.3428 95.495ZM100.972 86.243V86.837C100.972 87.035 100.846 87.161 100.594 87.215L99.5588 87.35C99.7628 87.746 99.8648 88.184 99.8648 88.664C99.8648 89.108 99.7778 89.513 99.6038 89.879C99.4358 90.239 99.2018 90.548 98.9018 90.806C98.6018 91.064 98.2418 91.262 97.8218 91.4C97.4018 91.538 96.9458 91.607 96.4538 91.607C96.0278 91.607 95.6258 91.556 95.2478 91.454C95.0558 91.574 94.9088 91.703 94.8068 91.841C94.7048 91.973 94.6538 92.108 94.6538 92.246C94.6538 92.462 94.7408 92.627 94.9148 92.741C95.0948 92.849 95.3288 92.927 95.6168 92.975C95.9048 93.023 96.2318 93.053 96.5978 93.065C96.9698 93.077 97.3478 93.098 97.7318 93.128C98.1218 93.152 98.4998 93.197 98.8658 93.263C99.2378 93.329 99.5678 93.437 99.8558 93.587C100.144 93.737 100.375 93.944 100.549 94.208C100.729 94.472 100.819 94.814 100.819 95.234C100.819 95.624 100.72 96.002 100.522 96.368C100.33 96.734 100.051 97.058 99.6848 97.34C99.3188 97.628 98.8688 97.856 98.3348 98.024C97.8068 98.198 97.2098 98.285 96.5438 98.285C95.8778 98.285 95.2958 98.219 94.7978 98.087C94.2998 97.955 93.8858 97.778 93.5558 97.556C93.2258 97.334 92.9768 97.076 92.8088 96.782C92.6468 96.494 92.5658 96.191 92.5658 95.873C92.5658 95.423 92.7068 95.042 92.9888 94.73C93.2708 94.418 93.6578 94.169 94.1498 93.983C93.8798 93.863 93.6638 93.704 93.5018 93.506C93.3458 93.302 93.2678 93.029 93.2678 92.687C93.2678 92.555 93.2918 92.42 93.3398 92.282C93.3878 92.138 93.4598 91.997 93.5558 91.859C93.6578 91.715 93.7808 91.58 93.9248 91.454C94.0688 91.328 94.2368 91.217 94.4288 91.121C93.9788 90.869 93.6278 90.536 93.3758 90.122C93.1238 89.702 92.9978 89.216 92.9978 88.664C92.9978 88.22 93.0818 87.818 93.2498 87.458C93.4238 87.092 93.6638 86.783 93.9698 86.531C94.2758 86.273 94.6388 86.075 95.0588 85.937C95.4848 85.799 95.9498 85.73 96.4538 85.73C96.8498 85.73 97.2188 85.775 97.5608 85.865C97.9028 85.949 98.2148 86.075 98.4968 86.243H100.972ZM107.938 87.386C107.866 87.518 107.755 87.584 107.605 87.584C107.515 87.584 107.413 87.551 107.299 87.485C107.185 87.419 107.044 87.347 106.876 87.269C106.714 87.185 106.519 87.11 106.291 87.044C106.063 86.972 105.793 86.936 105.481 86.936C105.211 86.936 104.968 86.972 104.752 87.044C104.536 87.11 104.35 87.203 104.194 87.323C104.044 87.443 103.927 87.584 103.843 87.746C103.765 87.902 103.726 88.073 103.726 88.259C103.726 88.493 103.792 88.688 103.924 88.844C104.062 89 104.242 89.135 104.464 89.249C104.686 89.363 104.938 89.465 105.22 89.555C105.502 89.639 105.79 89.732 106.084 89.834C106.384 89.93 106.675 90.038 106.957 90.158C107.239 90.278 107.491 90.428 107.713 90.608C107.935 90.788 108.112 91.01 108.244 91.274C108.382 91.532 108.451 91.844 108.451 92.21C108.451 92.63 108.376 93.02 108.226 93.38C108.076 93.734 107.854 94.043 107.56 94.307C107.266 94.565 106.906 94.769 106.48 94.919C106.054 95.069 105.562 95.144 105.004 95.144C104.368 95.144 103.792 95.042 103.276 94.838C102.76 94.628 102.322 94.361 101.962 94.037L102.34 93.425C102.388 93.347 102.445 93.287 102.511 93.245C102.577 93.203 102.661 93.182 102.763 93.182C102.871 93.182 102.985 93.224 103.105 93.308C103.225 93.392 103.369 93.485 103.537 93.587C103.711 93.689 103.921 93.782 104.167 93.866C104.413 93.95 104.719 93.992 105.085 93.992C105.397 93.992 105.67 93.953 105.904 93.875C106.138 93.791 106.333 93.68 106.489 93.542C106.645 93.404 106.759 93.245 106.831 93.065C106.909 92.885 106.948 92.693 106.948 92.489C106.948 92.237 106.879 92.03 106.741 91.868C106.609 91.7 106.432 91.559 106.21 91.445C105.988 91.325 105.733 91.223 105.445 91.139C105.163 91.049 104.872 90.956 104.572 90.86C104.278 90.764 103.987 90.656 103.699 90.536C103.417 90.41 103.165 90.254 102.943 90.068C102.721 89.882 102.541 89.654 102.403 89.384C102.271 89.108 102.205 88.775 102.205 88.385C102.205 88.037 102.277 87.704 102.421 87.386C102.565 87.062 102.775 86.78 103.051 86.54C103.327 86.294 103.666 86.099 104.068 85.955C104.47 85.811 104.929 85.739 105.445 85.739C106.045 85.739 106.582 85.835 107.056 86.027C107.536 86.213 107.95 86.471 108.298 86.801L107.938 87.386Z" fill="#4F4F4F"/>
</svg>
