<svg width="539" height="33" viewBox="0 0 539 33" fill="none" xmlns="http://www.w3.org/2000/svg">
<path d="M10.152 27.508C10.152 28.54 10.344 29.26 10.728 29.668C11.112 30.052 11.784 30.244 12.744 30.244V31C10.152 30.904 8.496 30.856 7.776 30.856C6.984 30.856 5.256 30.892 2.592 30.964L1.584 31V30.244C2.712 30.244 3.552 30.028 4.104 29.596C4.68 29.164 4.968 28.396 4.968 27.292V18.508C4.968 17.356 4.86 16.516 4.644 15.988C4.452 15.436 4.116 15.076 3.636 14.908C3.156 14.716 2.424 14.62 1.44 14.62V13.828C3.528 13.78 5.244 13.624 6.588 13.36C7.932 13.072 9.12 12.616 10.152 11.992V27.508ZM25.5893 11.884C27.4853 11.884 29.1773 12.28 30.6653 13.072C32.1533 13.864 33.3053 14.98 34.1212 16.42C34.9613 17.86 35.3813 19.516 35.3813 21.388C35.3813 23.308 34.9493 25.036 34.0853 26.572C33.2453 28.108 32.0453 29.32 30.4853 30.208C28.9493 31.072 27.1853 31.504 25.1933 31.504C23.3213 31.504 21.6413 31.108 20.1533 30.316C18.6653 29.524 17.5013 28.408 16.6613 26.968C15.8213 25.528 15.4013 23.86 15.4013 21.964C15.4013 20.068 15.8213 18.352 16.6613 16.816C17.5253 15.28 18.7253 14.08 20.2613 13.216C21.7973 12.328 23.5733 11.884 25.5893 11.884ZM25.2653 12.532C24.4013 12.532 23.6333 12.904 22.9613 13.648C22.2893 14.392 21.7613 15.472 21.3773 16.888C21.0173 18.28 20.8373 19.936 20.8373 21.856C20.8373 24.904 21.2693 27.172 22.1333 28.66C23.0213 30.124 24.1493 30.856 25.5173 30.856C26.3813 30.856 27.1373 30.484 27.7853 29.74C28.4573 28.972 28.9853 27.892 29.3693 26.5C29.7533 25.084 29.9453 23.416 29.9453 21.496C29.9453 18.448 29.5013 16.192 28.6133 14.728C27.7493 13.264 26.6333 12.532 25.2653 12.532ZM48.7924 11.884C50.6884 11.884 52.3804 12.28 53.8684 13.072C55.3564 13.864 56.5084 14.98 57.3244 16.42C58.1644 17.86 58.5844 19.516 58.5844 21.388C58.5844 23.308 58.1524 25.036 57.2884 26.572C56.4484 28.108 55.2484 29.32 53.6884 30.208C52.1524 31.072 50.3884 31.504 48.3964 31.504C46.5244 31.504 44.8444 31.108 43.3564 30.316C41.8684 29.524 40.7044 28.408 39.8644 26.968C39.0244 25.528 38.6044 23.86 38.6044 21.964C38.6044 20.068 39.0244 18.352 39.8644 16.816C40.7284 15.28 41.9284 14.08 43.4644 13.216C45.0004 12.328 46.7764 11.884 48.7924 11.884ZM48.4684 12.532C47.6044 12.532 46.8364 12.904 46.1644 13.648C45.4924 14.392 44.9644 15.472 44.5804 16.888C44.2204 18.28 44.0404 19.936 44.0404 21.856C44.0404 24.904 44.4724 27.172 45.3364 28.66C46.2244 30.124 47.3524 30.856 48.7204 30.856C49.5844 30.856 50.3404 30.484 50.9884 29.74C51.6604 28.972 52.1884 27.892 52.5724 26.5C52.9564 25.084 53.1484 23.416 53.1484 21.496C53.1484 18.448 52.7044 16.192 51.8164 14.728C50.9524 13.264 49.8364 12.532 48.4684 12.532ZM84.3435 1.804L63.2835 32.98L62.5995 32.512L83.6595 1.336L84.3435 1.804ZM67.2435 3.604C68.9955 3.604 70.3995 4.132 71.4555 5.188C72.5355 6.22 73.0755 7.648 73.0755 9.472C73.0755 10.672 72.8235 11.728 72.3195 12.64C71.8155 13.552 71.1195 14.26 70.2315 14.764C69.3435 15.268 68.3475 15.52 67.2435 15.52C65.4915 15.52 64.0755 15.004 62.9955 13.972C61.9155 12.916 61.3755 11.476 61.3755 9.652C61.3755 8.476 61.6275 7.432 62.1315 6.52C62.6355 5.584 63.3315 4.864 64.2195 4.36C65.1315 3.856 66.1395 3.604 67.2435 3.604ZM67.1715 4.252C65.6115 4.252 64.8315 6.04 64.8315 9.616C64.8315 11.344 65.0475 12.652 65.4795 13.54C65.9115 14.428 66.5235 14.872 67.3155 14.872C68.8515 14.872 69.6195 13.096 69.6195 9.544C69.6195 7.792 69.4035 6.472 68.9715 5.584C68.5635 4.696 67.9635 4.252 67.1715 4.252ZM79.3395 19.588C81.0915 19.588 82.4955 20.116 83.5515 21.172C84.6315 22.204 85.1715 23.632 85.1715 25.456C85.1715 26.656 84.9195 27.712 84.4155 28.624C83.9115 29.536 83.2155 30.244 82.3275 30.748C81.4395 31.252 80.4435 31.504 79.3395 31.504C77.5875 31.504 76.1715 30.988 75.0915 29.956C74.0115 28.9 73.4715 27.46 73.4715 25.636C73.4715 24.46 73.7235 23.416 74.2275 22.504C74.7315 21.568 75.4275 20.848 76.3155 20.344C77.2275 19.84 78.2355 19.588 79.3395 19.588ZM79.2675 20.236C77.7075 20.236 76.9275 22.024 76.9275 25.6C76.9275 27.328 77.1435 28.636 77.5755 29.524C78.0075 30.412 78.6195 30.856 79.4115 30.856C80.9475 30.856 81.7155 29.08 81.7155 25.528C81.7155 23.776 81.4995 22.456 81.0675 21.568C80.6595 20.68 80.0595 20.236 79.2675 20.236Z" fill="black"/>
<path d="M106.544 13.768C107.136 13.768 107.669 13.8667 108.144 14.064C108.619 14.2613 109.024 14.5413 109.36 14.904C109.696 15.2667 109.952 15.7067 110.128 16.224C110.309 16.736 110.4 17.3093 110.4 17.944C110.4 18.584 110.309 19.16 110.128 19.672C109.952 20.184 109.696 20.6213 109.36 20.984C109.024 21.3467 108.619 21.6267 108.144 21.824C107.669 22.016 107.136 22.112 106.544 22.112C105.947 22.112 105.408 22.016 104.928 21.824C104.453 21.6267 104.048 21.3467 103.712 20.984C103.376 20.6213 103.117 20.184 102.936 19.672C102.76 19.16 102.672 18.584 102.672 17.944C102.672 17.3093 102.76 16.736 102.936 16.224C103.117 15.7067 103.376 15.2667 103.712 14.904C104.048 14.5413 104.453 14.2613 104.928 14.064C105.408 13.8667 105.947 13.768 106.544 13.768ZM106.544 21C107.344 21 107.941 20.7333 108.336 20.2C108.731 19.6613 108.928 18.912 108.928 17.952C108.928 16.9867 108.731 16.2347 108.336 15.696C107.941 15.1573 107.344 14.888 106.544 14.888C106.139 14.888 105.784 14.9573 105.48 15.096C105.181 15.2347 104.931 15.4347 104.728 15.696C104.531 15.9573 104.381 16.28 104.28 16.664C104.184 17.0427 104.136 17.472 104.136 17.952C104.136 18.912 104.333 19.6613 104.728 20.2C105.128 20.7333 105.733 21 106.544 21ZM112.562 22V15.112L111.666 15.008C111.554 14.9813 111.461 14.9413 111.386 14.888C111.317 14.8293 111.282 14.7467 111.282 14.64V14.056H112.562V13.272C112.562 12.808 112.626 12.3973 112.754 12.04C112.888 11.6773 113.074 11.3733 113.314 11.128C113.56 10.8773 113.853 10.688 114.194 10.56C114.536 10.432 114.92 10.368 115.346 10.368C115.709 10.368 116.042 10.4213 116.346 10.528L116.314 11.24C116.304 11.368 116.232 11.4373 116.098 11.448C115.97 11.4587 115.797 11.464 115.578 11.464C115.333 11.464 115.109 11.496 114.906 11.56C114.709 11.624 114.538 11.728 114.394 11.872C114.25 12.016 114.138 12.2053 114.058 12.44C113.984 12.6747 113.946 12.9653 113.946 13.312V14.056H116.282V15.088H113.994V22H112.562ZM128.105 13.896V22H127.257C127.054 22 126.926 21.9013 126.873 21.704L126.761 20.832C126.409 21.2213 126.014 21.536 125.577 21.776C125.139 22.0107 124.638 22.128 124.073 22.128C123.63 22.128 123.238 22.056 122.897 21.912C122.561 21.7627 122.278 21.5547 122.049 21.288C121.819 21.0213 121.646 20.6987 121.529 20.32C121.417 19.9413 121.361 19.5227 121.361 19.064V13.896H122.785V19.064C122.785 19.6773 122.923 20.152 123.201 20.488C123.483 20.824 123.913 20.992 124.489 20.992C124.91 20.992 125.302 20.8933 125.665 20.696C126.033 20.4933 126.371 20.216 126.681 19.864V13.896H128.105ZM135.082 15.232C135.018 15.3493 134.92 15.408 134.786 15.408C134.706 15.408 134.616 15.3787 134.514 15.32C134.413 15.2613 134.288 15.1973 134.138 15.128C133.994 15.0533 133.821 14.9867 133.618 14.928C133.416 14.864 133.176 14.832 132.898 14.832C132.658 14.832 132.442 14.864 132.25 14.928C132.058 14.9867 131.893 15.0693 131.754 15.176C131.621 15.2827 131.517 15.408 131.442 15.552C131.373 15.6907 131.338 15.8427 131.338 16.008C131.338 16.216 131.397 16.3893 131.514 16.528C131.637 16.6667 131.797 16.7867 131.994 16.888C132.192 16.9893 132.416 17.08 132.666 17.16C132.917 17.2347 133.173 17.3173 133.434 17.408C133.701 17.4933 133.96 17.5893 134.21 17.696C134.461 17.8027 134.685 17.936 134.882 18.096C135.08 18.256 135.237 18.4533 135.354 18.688C135.477 18.9173 135.538 19.1947 135.538 19.52C135.538 19.8933 135.472 20.24 135.338 20.56C135.205 20.8747 135.008 21.1493 134.746 21.384C134.485 21.6133 134.165 21.7947 133.786 21.928C133.408 22.0613 132.97 22.128 132.474 22.128C131.909 22.128 131.397 22.0373 130.938 21.856C130.48 21.6693 130.09 21.432 129.77 21.144L130.106 20.6C130.149 20.5307 130.2 20.4773 130.258 20.44C130.317 20.4027 130.392 20.384 130.482 20.384C130.578 20.384 130.68 20.4213 130.786 20.496C130.893 20.5707 131.021 20.6533 131.17 20.744C131.325 20.8347 131.512 20.9173 131.73 20.992C131.949 21.0667 132.221 21.104 132.546 21.104C132.824 21.104 133.066 21.0693 133.274 21C133.482 20.9253 133.656 20.8267 133.794 20.704C133.933 20.5813 134.034 20.44 134.098 20.28C134.168 20.12 134.202 19.9493 134.202 19.768C134.202 19.544 134.141 19.36 134.018 19.216C133.901 19.0667 133.744 18.9413 133.546 18.84C133.349 18.7333 133.122 18.6427 132.866 18.568C132.616 18.488 132.357 18.4053 132.09 18.32C131.829 18.2347 131.57 18.1387 131.314 18.032C131.064 17.92 130.84 17.7813 130.642 17.616C130.445 17.4507 130.285 17.248 130.162 17.008C130.045 16.7627 129.986 16.4667 129.986 16.12C129.986 15.8107 130.05 15.5147 130.178 15.232C130.306 14.944 130.493 14.6933 130.738 14.48C130.984 14.2613 131.285 14.088 131.642 13.96C132 13.832 132.408 13.768 132.866 13.768C133.4 13.768 133.877 13.8533 134.298 14.024C134.725 14.1893 135.093 14.4187 135.402 14.712L135.082 15.232ZM142.708 17.064C142.708 16.7333 142.66 16.432 142.564 16.16C142.474 15.8827 142.338 15.6453 142.156 15.448C141.98 15.2453 141.764 15.0907 141.508 14.984C141.252 14.872 140.962 14.816 140.636 14.816C139.954 14.816 139.412 15.016 139.012 15.416C138.618 15.8107 138.372 16.36 138.276 17.064H142.708ZM143.86 20.864C143.684 21.0773 143.474 21.264 143.228 21.424C142.983 21.5787 142.719 21.7067 142.436 21.808C142.159 21.9093 141.871 21.984 141.572 22.032C141.274 22.0853 140.978 22.112 140.684 22.112C140.124 22.112 139.607 22.0187 139.132 21.832C138.663 21.64 138.255 21.3627 137.908 21C137.567 20.632 137.3 20.1787 137.108 19.64C136.916 19.1013 136.82 18.4827 136.82 17.784C136.82 17.2187 136.906 16.6907 137.076 16.2C137.252 15.7093 137.503 15.2853 137.828 14.928C138.154 14.5653 138.551 14.2827 139.02 14.08C139.49 13.872 140.018 13.768 140.604 13.768C141.09 13.768 141.538 13.8507 141.948 14.016C142.364 14.176 142.722 14.4107 143.02 14.72C143.324 15.024 143.562 15.4027 143.732 15.856C143.903 16.304 143.988 16.816 143.988 17.392C143.988 17.616 143.964 17.7653 143.916 17.84C143.868 17.9147 143.778 17.952 143.644 17.952H138.228C138.244 18.464 138.314 18.9093 138.436 19.288C138.564 19.6667 138.74 19.984 138.964 20.24C139.188 20.4907 139.455 20.68 139.764 20.808C140.074 20.9307 140.42 20.992 140.804 20.992C141.162 20.992 141.468 20.952 141.724 20.872C141.986 20.7867 142.21 20.696 142.396 20.6C142.583 20.504 142.738 20.416 142.86 20.336C142.988 20.2507 143.098 20.208 143.188 20.208C143.306 20.208 143.396 20.2533 143.46 20.344L143.86 20.864ZM147.089 15.52C147.345 14.9653 147.66 14.5333 148.033 14.224C148.407 13.9093 148.863 13.752 149.401 13.752C149.572 13.752 149.735 13.7707 149.889 13.808C150.049 13.8453 150.191 13.904 150.313 13.984L150.209 15.048C150.177 15.1813 150.097 15.248 149.969 15.248C149.895 15.248 149.785 15.232 149.641 15.2C149.497 15.168 149.335 15.152 149.153 15.152C148.897 15.152 148.668 15.1893 148.465 15.264C148.268 15.3387 148.089 15.4507 147.929 15.6C147.775 15.744 147.633 15.9253 147.505 16.144C147.383 16.3573 147.271 16.6027 147.169 16.88V22H145.737V13.896H146.553C146.708 13.896 146.815 13.9253 146.873 13.984C146.932 14.0427 146.972 14.144 146.993 14.288L147.089 15.52ZM156.239 15.232C156.175 15.3493 156.076 15.408 155.943 15.408C155.863 15.408 155.772 15.3787 155.671 15.32C155.569 15.2613 155.444 15.1973 155.295 15.128C155.151 15.0533 154.977 14.9867 154.775 14.928C154.572 14.864 154.332 14.832 154.055 14.832C153.815 14.832 153.599 14.864 153.407 14.928C153.215 14.9867 153.049 15.0693 152.911 15.176C152.777 15.2827 152.673 15.408 152.599 15.552C152.529 15.6907 152.495 15.8427 152.495 16.008C152.495 16.216 152.553 16.3893 152.671 16.528C152.793 16.6667 152.953 16.7867 153.151 16.888C153.348 16.9893 153.572 17.08 153.823 17.16C154.073 17.2347 154.329 17.3173 154.591 17.408C154.857 17.4933 155.116 17.5893 155.367 17.696C155.617 17.8027 155.841 17.936 156.039 18.096C156.236 18.256 156.393 18.4533 156.511 18.688C156.633 18.9173 156.695 19.1947 156.695 19.52C156.695 19.8933 156.628 20.24 156.495 20.56C156.361 20.8747 156.164 21.1493 155.903 21.384C155.641 21.6133 155.321 21.7947 154.943 21.928C154.564 22.0613 154.127 22.128 153.631 22.128C153.065 22.128 152.553 22.0373 152.095 21.856C151.636 21.6693 151.247 21.432 150.927 21.144L151.263 20.6C151.305 20.5307 151.356 20.4773 151.415 20.44C151.473 20.4027 151.548 20.384 151.639 20.384C151.735 20.384 151.836 20.4213 151.943 20.496C152.049 20.5707 152.177 20.6533 152.327 20.744C152.481 20.8347 152.668 20.9173 152.887 20.992C153.105 21.0667 153.377 21.104 153.703 21.104C153.98 21.104 154.223 21.0693 154.431 21C154.639 20.9253 154.812 20.8267 154.951 20.704C155.089 20.5813 155.191 20.44 155.255 20.28C155.324 20.12 155.359 19.9493 155.359 19.768C155.359 19.544 155.297 19.36 155.175 19.216C155.057 19.0667 154.9 18.9413 154.703 18.84C154.505 18.7333 154.279 18.6427 154.023 18.568C153.772 18.488 153.513 18.4053 153.247 18.32C152.985 18.2347 152.727 18.1387 152.471 18.032C152.22 17.92 151.996 17.7813 151.799 17.616C151.601 17.4507 151.441 17.248 151.319 17.008C151.201 16.7627 151.143 16.4667 151.143 16.12C151.143 15.8107 151.207 15.5147 151.335 15.232C151.463 14.944 151.649 14.6933 151.895 14.48C152.14 14.2613 152.441 14.088 152.799 13.96C153.156 13.832 153.564 13.768 154.023 13.768C154.556 13.768 155.033 13.8533 155.455 14.024C155.881 14.1893 156.249 14.4187 156.559 14.712L156.239 15.232ZM173.382 13.896L170.758 22H169.63C169.491 22 169.395 21.9093 169.342 21.728L167.55 16.232C167.507 16.1093 167.473 15.9867 167.446 15.864C167.419 15.736 167.393 15.6107 167.366 15.488C167.339 15.6107 167.313 15.736 167.286 15.864C167.259 15.9867 167.225 16.112 167.182 16.24L165.358 21.728C165.31 21.9093 165.203 22 165.038 22H163.966L161.342 13.896H162.462C162.574 13.896 162.667 13.9253 162.742 13.984C162.822 14.0427 162.875 14.112 162.902 14.192L164.454 19.408C164.545 19.792 164.617 20.1547 164.67 20.496C164.718 20.32 164.766 20.1413 164.814 19.96C164.867 19.7787 164.923 19.5947 164.982 19.408L166.694 14.16C166.721 14.08 166.766 14.0133 166.83 13.96C166.899 13.9067 166.982 13.88 167.078 13.88H167.702C167.809 13.88 167.897 13.9067 167.966 13.96C168.035 14.0133 168.083 14.08 168.11 14.16L169.782 19.408C169.841 19.5947 169.894 19.7787 169.942 19.96C169.99 20.1413 170.035 20.32 170.078 20.496C170.105 20.32 170.137 20.144 170.174 19.968C170.217 19.7867 170.262 19.6 170.31 19.408L171.894 14.192C171.921 14.1067 171.971 14.0373 172.046 13.984C172.121 13.9253 172.209 13.896 172.31 13.896H173.382ZM180.083 17.064C180.083 16.7333 180.035 16.432 179.939 16.16C179.849 15.8827 179.713 15.6453 179.531 15.448C179.355 15.2453 179.139 15.0907 178.883 14.984C178.627 14.872 178.337 14.816 178.011 14.816C177.329 14.816 176.787 15.016 176.387 15.416C175.993 15.8107 175.747 16.36 175.651 17.064H180.083ZM181.235 20.864C181.059 21.0773 180.849 21.264 180.603 21.424C180.358 21.5787 180.094 21.7067 179.811 21.808C179.534 21.9093 179.246 21.984 178.947 22.032C178.649 22.0853 178.353 22.112 178.059 22.112C177.499 22.112 176.982 22.0187 176.507 21.832C176.038 21.64 175.63 21.3627 175.283 21C174.942 20.632 174.675 20.1787 174.483 19.64C174.291 19.1013 174.195 18.4827 174.195 17.784C174.195 17.2187 174.281 16.6907 174.451 16.2C174.627 15.7093 174.878 15.2853 175.203 14.928C175.529 14.5653 175.926 14.2827 176.395 14.08C176.865 13.872 177.393 13.768 177.979 13.768C178.465 13.768 178.913 13.8507 179.323 14.016C179.739 14.176 180.097 14.4107 180.395 14.72C180.699 15.024 180.937 15.4027 181.107 15.856C181.278 16.304 181.363 16.816 181.363 17.392C181.363 17.616 181.339 17.7653 181.291 17.84C181.243 17.9147 181.153 17.952 181.019 17.952H175.603C175.619 18.464 175.689 18.9093 175.811 19.288C175.939 19.6667 176.115 19.984 176.339 20.24C176.563 20.4907 176.83 20.68 177.139 20.808C177.449 20.9307 177.795 20.992 178.179 20.992C178.537 20.992 178.843 20.952 179.099 20.872C179.361 20.7867 179.585 20.696 179.771 20.6C179.958 20.504 180.113 20.416 180.235 20.336C180.363 20.2507 180.473 20.208 180.563 20.208C180.681 20.208 180.771 20.2533 180.835 20.344L181.235 20.864ZM184.464 15.52C184.72 14.9653 185.035 14.5333 185.408 14.224C185.782 13.9093 186.238 13.752 186.776 13.752C186.947 13.752 187.11 13.7707 187.264 13.808C187.424 13.8453 187.566 13.904 187.688 13.984L187.584 15.048C187.552 15.1813 187.472 15.248 187.344 15.248C187.27 15.248 187.16 15.232 187.016 15.2C186.872 15.168 186.71 15.152 186.528 15.152C186.272 15.152 186.043 15.1893 185.84 15.264C185.643 15.3387 185.464 15.4507 185.304 15.6C185.15 15.744 185.008 15.9253 184.88 16.144C184.758 16.3573 184.646 16.6027 184.544 16.88V22H183.112V13.896H183.928C184.083 13.896 184.19 13.9253 184.248 13.984C184.307 14.0427 184.347 14.144 184.368 14.288L184.464 15.52ZM194.036 17.064C194.036 16.7333 193.988 16.432 193.892 16.16C193.802 15.8827 193.666 15.6453 193.484 15.448C193.308 15.2453 193.092 15.0907 192.836 14.984C192.58 14.872 192.29 14.816 191.964 14.816C191.282 14.816 190.74 15.016 190.34 15.416C189.946 15.8107 189.7 16.36 189.604 17.064H194.036ZM195.188 20.864C195.012 21.0773 194.802 21.264 194.556 21.424C194.311 21.5787 194.047 21.7067 193.764 21.808C193.487 21.9093 193.199 21.984 192.9 22.032C192.602 22.0853 192.306 22.112 192.012 22.112C191.452 22.112 190.935 22.0187 190.46 21.832C189.991 21.64 189.583 21.3627 189.236 21C188.895 20.632 188.628 20.1787 188.436 19.64C188.244 19.1013 188.148 18.4827 188.148 17.784C188.148 17.2187 188.234 16.6907 188.404 16.2C188.58 15.7093 188.831 15.2853 189.156 14.928C189.482 14.5653 189.879 14.2827 190.348 14.08C190.818 13.872 191.346 13.768 191.932 13.768C192.418 13.768 192.866 13.8507 193.276 14.016C193.692 14.176 194.05 14.4107 194.348 14.72C194.652 15.024 194.89 15.4027 195.06 15.856C195.231 16.304 195.316 16.816 195.316 17.392C195.316 17.616 195.292 17.7653 195.244 17.84C195.196 17.9147 195.106 17.952 194.972 17.952H189.556C189.572 18.464 189.642 18.9093 189.764 19.288C189.892 19.6667 190.068 19.984 190.292 20.24C190.516 20.4907 190.783 20.68 191.092 20.808C191.402 20.9307 191.748 20.992 192.132 20.992C192.49 20.992 192.796 20.952 193.052 20.872C193.314 20.7867 193.538 20.696 193.724 20.6C193.911 20.504 194.066 20.416 194.188 20.336C194.316 20.2507 194.426 20.208 194.516 20.208C194.634 20.208 194.724 20.2533 194.788 20.344L195.188 20.864ZM205.551 18.352C204.895 18.3733 204.335 18.4267 203.871 18.512C203.413 18.592 203.037 18.6987 202.743 18.832C202.455 18.9653 202.245 19.1227 202.111 19.304C201.983 19.4853 201.919 19.688 201.919 19.912C201.919 20.1253 201.954 20.3093 202.023 20.464C202.093 20.6187 202.186 20.7467 202.303 20.848C202.426 20.944 202.567 21.016 202.727 21.064C202.893 21.1067 203.069 21.128 203.255 21.128C203.506 21.128 203.735 21.104 203.943 21.056C204.151 21.0027 204.346 20.928 204.527 20.832C204.714 20.736 204.89 20.6213 205.055 20.488C205.226 20.3547 205.391 20.2027 205.551 20.032V18.352ZM200.951 15.04C201.399 14.608 201.882 14.2853 202.399 14.072C202.917 13.8587 203.49 13.752 204.119 13.752C204.573 13.752 204.975 13.8267 205.327 13.976C205.679 14.1253 205.975 14.3333 206.215 14.6C206.455 14.8667 206.637 15.1893 206.759 15.568C206.882 15.9467 206.943 16.3627 206.943 16.816V22H206.311C206.173 22 206.066 21.9787 205.991 21.936C205.917 21.888 205.858 21.7973 205.815 21.664L205.655 20.896C205.442 21.0933 205.234 21.2693 205.031 21.424C204.829 21.5733 204.615 21.7013 204.391 21.808C204.167 21.9093 203.927 21.9867 203.671 22.04C203.421 22.0987 203.141 22.128 202.831 22.128C202.517 22.128 202.221 22.0853 201.943 22C201.666 21.9093 201.423 21.776 201.215 21.6C201.013 21.424 200.85 21.2027 200.727 20.936C200.61 20.664 200.551 20.344 200.551 19.976C200.551 19.656 200.639 19.3493 200.815 19.056C200.991 18.7573 201.277 18.4933 201.671 18.264C202.066 18.0347 202.581 17.848 203.215 17.704C203.85 17.5547 204.629 17.4693 205.551 17.448V16.816C205.551 16.1867 205.415 15.712 205.143 15.392C204.871 15.0667 204.474 14.904 203.951 14.904C203.599 14.904 203.303 14.9493 203.063 15.04C202.829 15.1253 202.623 15.224 202.447 15.336C202.277 15.4427 202.127 15.5413 201.999 15.632C201.877 15.7173 201.754 15.76 201.631 15.76C201.535 15.76 201.453 15.736 201.383 15.688C201.314 15.6347 201.255 15.5707 201.207 15.496L200.951 15.04ZM211.491 22.128C210.851 22.128 210.358 21.9493 210.011 21.592C209.67 21.2347 209.499 20.72 209.499 20.048V15.088H208.523C208.438 15.088 208.366 15.064 208.307 15.016C208.248 14.9627 208.219 14.8827 208.219 14.776V14.208L209.547 14.04L209.875 11.536C209.891 11.456 209.926 11.392 209.979 11.344C210.038 11.2907 210.112 11.264 210.203 11.264H210.923V14.056H214.739L215.067 11.536C215.083 11.456 215.118 11.392 215.171 11.344C215.23 11.2907 215.304 11.264 215.395 11.264H216.115V14.056H218.459V15.088H216.115V19.952C216.115 20.2933 216.198 20.5467 216.363 20.712C216.534 20.8773 216.747 20.96 217.003 20.96C217.152 20.96 217.28 20.9413 217.387 20.904C217.499 20.8613 217.595 20.816 217.675 20.768C217.755 20.72 217.822 20.6773 217.875 20.64C217.934 20.5973 217.984 20.576 218.027 20.576C218.107 20.576 218.174 20.6213 218.227 20.712L218.651 21.392C218.4 21.6213 218.102 21.8027 217.755 21.936C217.408 22.064 217.051 22.128 216.683 22.128C216.048 22.128 215.558 21.9493 215.211 21.592C214.864 21.2347 214.691 20.72 214.691 20.048V15.088H210.923V19.952C210.923 20.2933 211.006 20.5467 211.171 20.712C211.336 20.8773 211.55 20.96 211.811 20.96C211.96 20.96 212.088 20.9413 212.195 20.904C212.307 20.8613 212.403 20.816 212.483 20.768C212.563 20.72 212.63 20.6773 212.683 20.64C212.742 20.5973 212.792 20.576 212.835 20.576C212.91 20.576 212.976 20.6213 213.035 20.712L213.451 21.392C213.206 21.6213 212.91 21.8027 212.563 21.936C212.216 22.064 211.859 22.128 211.491 22.128ZM221.277 15.52C221.533 14.9653 221.848 14.5333 222.221 14.224C222.594 13.9093 223.05 13.752 223.589 13.752C223.76 13.752 223.922 13.7707 224.077 13.808C224.237 13.8453 224.378 13.904 224.501 13.984L224.397 15.048C224.365 15.1813 224.285 15.248 224.157 15.248C224.082 15.248 223.973 15.232 223.829 15.2C223.685 15.168 223.522 15.152 223.341 15.152C223.085 15.152 222.856 15.1893 222.653 15.264C222.456 15.3387 222.277 15.4507 222.117 15.6C221.962 15.744 221.821 15.9253 221.693 16.144C221.57 16.3573 221.458 16.6027 221.357 16.88V22H219.925V13.896H220.741C220.896 13.896 221.002 13.9253 221.061 13.984C221.12 14.0427 221.16 14.144 221.181 14.288L221.277 15.52ZM230.02 18.352C229.364 18.3733 228.804 18.4267 228.34 18.512C227.881 18.592 227.505 18.6987 227.212 18.832C226.924 18.9653 226.713 19.1227 226.58 19.304C226.452 19.4853 226.388 19.688 226.388 19.912C226.388 20.1253 226.423 20.3093 226.492 20.464C226.561 20.6187 226.655 20.7467 226.772 20.848C226.895 20.944 227.036 21.016 227.196 21.064C227.361 21.1067 227.537 21.128 227.724 21.128C227.975 21.128 228.204 21.104 228.412 21.056C228.62 21.0027 228.815 20.928 228.996 20.832C229.183 20.736 229.359 20.6213 229.524 20.488C229.695 20.3547 229.86 20.2027 230.02 20.032V18.352ZM225.42 15.04C225.868 14.608 226.351 14.2853 226.868 14.072C227.385 13.8587 227.959 13.752 228.588 13.752C229.041 13.752 229.444 13.8267 229.796 13.976C230.148 14.1253 230.444 14.3333 230.684 14.6C230.924 14.8667 231.105 15.1893 231.228 15.568C231.351 15.9467 231.412 16.3627 231.412 16.816V22H230.78C230.641 22 230.535 21.9787 230.46 21.936C230.385 21.888 230.327 21.7973 230.284 21.664L230.124 20.896C229.911 21.0933 229.703 21.2693 229.5 21.424C229.297 21.5733 229.084 21.7013 228.86 21.808C228.636 21.9093 228.396 21.9867 228.14 22.04C227.889 22.0987 227.609 22.128 227.3 22.128C226.985 22.128 226.689 22.0853 226.412 22C226.135 21.9093 225.892 21.776 225.684 21.6C225.481 21.424 225.319 21.2027 225.196 20.936C225.079 20.664 225.02 20.344 225.02 19.976C225.02 19.656 225.108 19.3493 225.284 19.056C225.46 18.7573 225.745 18.4933 226.14 18.264C226.535 18.0347 227.049 17.848 227.684 17.704C228.319 17.5547 229.097 17.4693 230.02 17.448V16.816C230.02 16.1867 229.884 15.712 229.612 15.392C229.34 15.0667 228.943 14.904 228.42 14.904C228.068 14.904 227.772 14.9493 227.532 15.04C227.297 15.1253 227.092 15.224 226.916 15.336C226.745 15.4427 226.596 15.5413 226.468 15.632C226.345 15.7173 226.223 15.76 226.1 15.76C226.004 15.76 225.921 15.736 225.852 15.688C225.783 15.6347 225.724 15.5707 225.676 15.496L225.42 15.04ZM239.221 15.336C239.178 15.3947 239.136 15.44 239.093 15.472C239.05 15.504 238.992 15.52 238.917 15.52C238.837 15.52 238.749 15.488 238.653 15.424C238.557 15.3547 238.437 15.28 238.293 15.2C238.154 15.12 237.981 15.048 237.773 14.984C237.57 14.9147 237.32 14.88 237.021 14.88C236.621 14.88 236.269 14.952 235.965 15.096C235.661 15.2347 235.405 15.4373 235.197 15.704C234.994 15.9707 234.84 16.2933 234.733 16.672C234.632 17.0507 234.581 17.4747 234.581 17.944C234.581 18.4347 234.637 18.872 234.749 19.256C234.861 19.6347 235.018 19.9547 235.221 20.216C235.429 20.472 235.677 20.6693 235.965 20.808C236.258 20.9413 236.586 21.008 236.949 21.008C237.296 21.008 237.581 20.968 237.805 20.888C238.029 20.8027 238.213 20.7093 238.357 20.608C238.506 20.5067 238.629 20.416 238.725 20.336C238.826 20.2507 238.925 20.208 239.021 20.208C239.138 20.208 239.229 20.2533 239.293 20.344L239.693 20.864C239.517 21.0827 239.317 21.2693 239.093 21.424C238.869 21.5787 238.626 21.7093 238.365 21.816C238.109 21.9173 237.84 21.992 237.557 22.04C237.274 22.088 236.986 22.112 236.693 22.112C236.186 22.112 235.714 22.0187 235.277 21.832C234.845 21.6453 234.469 21.376 234.149 21.024C233.829 20.6667 233.578 20.2293 233.397 19.712C233.216 19.1947 233.125 18.6053 233.125 17.944C233.125 17.3413 233.208 16.784 233.373 16.272C233.544 15.76 233.789 15.32 234.109 14.952C234.434 14.5787 234.832 14.288 235.301 14.08C235.776 13.872 236.32 13.768 236.933 13.768C237.504 13.768 238.005 13.8613 238.437 14.048C238.874 14.2293 239.261 14.488 239.597 14.824L239.221 15.336ZM243.71 22.128C243.07 22.128 242.576 21.9493 242.23 21.592C241.888 21.2347 241.718 20.72 241.718 20.048V15.088H240.742C240.656 15.088 240.584 15.064 240.526 15.016C240.467 14.9627 240.438 14.8827 240.438 14.776V14.208L241.766 14.04L242.094 11.536C242.11 11.456 242.144 11.392 242.198 11.344C242.256 11.2907 242.331 11.264 242.422 11.264H243.142V14.056H245.486V15.088H243.142V19.952C243.142 20.2933 243.224 20.5467 243.39 20.712C243.555 20.8773 243.768 20.96 244.03 20.96C244.179 20.96 244.307 20.9413 244.414 20.904C244.526 20.8613 244.622 20.816 244.702 20.768C244.782 20.72 244.848 20.6773 244.902 20.64C244.96 20.5973 245.011 20.576 245.054 20.576C245.128 20.576 245.195 20.6213 245.254 20.712L245.67 21.392C245.424 21.6213 245.128 21.8027 244.782 21.936C244.435 22.064 244.078 22.128 243.71 22.128ZM252.333 17.064C252.333 16.7333 252.285 16.432 252.189 16.16C252.099 15.8827 251.963 15.6453 251.781 15.448C251.605 15.2453 251.389 15.0907 251.133 14.984C250.877 14.872 250.587 14.816 250.261 14.816C249.579 14.816 249.037 15.016 248.637 15.416C248.243 15.8107 247.997 16.36 247.901 17.064H252.333ZM253.485 20.864C253.309 21.0773 253.099 21.264 252.853 21.424C252.608 21.5787 252.344 21.7067 252.061 21.808C251.784 21.9093 251.496 21.984 251.197 22.032C250.899 22.0853 250.603 22.112 250.309 22.112C249.749 22.112 249.232 22.0187 248.757 21.832C248.288 21.64 247.88 21.3627 247.533 21C247.192 20.632 246.925 20.1787 246.733 19.64C246.541 19.1013 246.445 18.4827 246.445 17.784C246.445 17.2187 246.531 16.6907 246.701 16.2C246.877 15.7093 247.128 15.2853 247.453 14.928C247.779 14.5653 248.176 14.2827 248.645 14.08C249.115 13.872 249.643 13.768 250.229 13.768C250.715 13.768 251.163 13.8507 251.573 14.016C251.989 14.176 252.347 14.4107 252.645 14.72C252.949 15.024 253.187 15.4027 253.357 15.856C253.528 16.304 253.613 16.816 253.613 17.392C253.613 17.616 253.589 17.7653 253.541 17.84C253.493 17.9147 253.403 17.952 253.269 17.952H247.853C247.869 18.464 247.939 18.9093 248.061 19.288C248.189 19.6667 248.365 19.984 248.589 20.24C248.813 20.4907 249.08 20.68 249.389 20.808C249.699 20.9307 250.045 20.992 250.429 20.992C250.787 20.992 251.093 20.952 251.349 20.872C251.611 20.7867 251.835 20.696 252.021 20.6C252.208 20.504 252.363 20.416 252.485 20.336C252.613 20.2507 252.723 20.208 252.813 20.208C252.931 20.208 253.021 20.2533 253.085 20.344L253.485 20.864ZM260.642 15.824C260.376 15.4667 260.088 15.2187 259.778 15.08C259.469 14.936 259.122 14.864 258.738 14.864C257.986 14.864 257.408 15.1333 257.002 15.672C256.597 16.2107 256.394 16.9787 256.394 17.976C256.394 18.504 256.44 18.9573 256.53 19.336C256.621 19.7093 256.754 20.0187 256.93 20.264C257.106 20.504 257.322 20.68 257.578 20.792C257.834 20.904 258.125 20.96 258.45 20.96C258.92 20.96 259.328 20.8533 259.674 20.64C260.026 20.4267 260.349 20.1253 260.642 19.736V15.824ZM262.066 10.216V22H261.218C261.016 22 260.888 21.9013 260.834 21.704L260.706 20.72C260.36 21.136 259.965 21.472 259.522 21.728C259.08 21.984 258.568 22.112 257.986 22.112C257.522 22.112 257.101 22.024 256.722 21.848C256.344 21.6667 256.021 21.4027 255.754 21.056C255.488 20.7093 255.282 20.2773 255.138 19.76C254.994 19.2427 254.922 18.648 254.922 17.976C254.922 17.3787 255.002 16.824 255.162 16.312C255.322 15.7947 255.552 15.3467 255.85 14.968C256.149 14.5893 256.514 14.2933 256.946 14.08C257.384 13.8613 257.874 13.752 258.418 13.752C258.914 13.752 259.338 13.8373 259.69 14.008C260.048 14.1733 260.365 14.4053 260.642 14.704V10.216H262.066ZM269.841 20.048C270.103 20.4 270.388 20.648 270.697 20.792C271.012 20.936 271.356 21.008 271.729 21.008C272.492 21.008 273.076 20.7387 273.481 20.2C273.887 19.6613 274.089 18.8587 274.089 17.792C274.089 16.8 273.908 16.072 273.545 15.608C273.188 15.1387 272.676 14.904 272.009 14.904C271.545 14.904 271.14 15.0107 270.793 15.224C270.452 15.4373 270.135 15.7387 269.841 16.128V20.048ZM269.841 15.064C270.183 14.6693 270.567 14.3547 270.993 14.12C271.425 13.8853 271.921 13.768 272.481 13.768C272.956 13.768 273.383 13.8587 273.761 14.04C274.145 14.2213 274.471 14.4853 274.737 14.832C275.004 15.1733 275.207 15.5893 275.345 16.08C275.489 16.5707 275.561 17.1227 275.561 17.736C275.561 18.392 275.481 18.9893 275.321 19.528C275.161 20.0667 274.929 20.528 274.625 20.912C274.327 21.2907 273.961 21.5867 273.529 21.8C273.097 22.008 272.612 22.112 272.073 22.112C271.54 22.112 271.089 22.0133 270.721 21.816C270.359 21.6133 270.041 21.328 269.769 20.96L269.697 21.696C269.655 21.8987 269.532 22 269.329 22H268.409V10.216H269.841V15.064ZM284.151 13.896L279.631 24.392C279.583 24.4987 279.522 24.584 279.447 24.648C279.378 24.712 279.269 24.744 279.119 24.744H278.063L279.543 21.528L276.199 13.896H277.431C277.554 13.896 277.65 13.928 277.719 13.992C277.794 14.0507 277.845 14.1173 277.871 14.192L280.039 19.296C280.125 19.52 280.197 19.7547 280.255 20C280.33 19.7493 280.41 19.512 280.495 19.288L282.599 14.192C282.631 14.1067 282.685 14.0373 282.759 13.984C282.839 13.9253 282.927 13.896 283.023 13.896H284.151ZM297.496 19.632C297.582 19.632 297.656 19.6667 297.72 19.736L298.336 20.4C297.867 20.944 297.296 21.368 296.624 21.672C295.958 21.976 295.15 22.128 294.2 22.128C293.379 22.128 292.632 21.9867 291.96 21.704C291.288 21.416 290.715 21.016 290.24 20.504C289.766 19.9867 289.398 19.368 289.136 18.648C288.875 17.928 288.744 17.136 288.744 16.272C288.744 15.408 288.88 14.616 289.152 13.896C289.424 13.176 289.806 12.5573 290.296 12.04C290.792 11.5227 291.384 11.1227 292.072 10.84C292.76 10.552 293.52 10.408 294.352 10.408C295.168 10.408 295.888 10.5387 296.512 10.8C297.136 11.0613 297.686 11.416 298.16 11.864L297.648 12.576C297.616 12.6293 297.574 12.6747 297.52 12.712C297.472 12.744 297.406 12.76 297.32 12.76C297.224 12.76 297.107 12.7093 296.968 12.608C296.83 12.5013 296.648 12.384 296.424 12.256C296.2 12.128 295.92 12.0133 295.584 11.912C295.248 11.8053 294.835 11.752 294.344 11.752C293.752 11.752 293.211 11.856 292.72 12.064C292.23 12.2667 291.806 12.5627 291.448 12.952C291.096 13.3413 290.822 13.816 290.624 14.376C290.427 14.936 290.328 15.568 290.328 16.272C290.328 16.9867 290.43 17.624 290.632 18.184C290.84 18.744 291.12 19.2187 291.472 19.608C291.83 19.992 292.248 20.2853 292.728 20.488C293.214 20.6907 293.736 20.792 294.296 20.792C294.638 20.792 294.944 20.7733 295.216 20.736C295.494 20.6933 295.747 20.6293 295.976 20.544C296.211 20.4587 296.427 20.352 296.624 20.224C296.827 20.0907 297.027 19.9333 297.224 19.752C297.315 19.672 297.406 19.632 297.496 19.632ZM307.888 11.84H304.176V22H302.632V11.84H298.912V10.536H307.888V11.84ZM314.552 17.744L312.752 13.08C312.699 12.9413 312.643 12.7813 312.584 12.6C312.525 12.4133 312.469 12.216 312.416 12.008C312.304 12.44 312.189 12.8 312.072 13.088L310.272 17.744H314.552ZM317.784 22H316.584C316.445 22 316.333 21.9653 316.248 21.896C316.163 21.8267 316.099 21.7387 316.056 21.632L314.984 18.864H309.84L308.768 21.632C308.736 21.728 308.675 21.8133 308.584 21.888C308.493 21.9627 308.381 22 308.248 22H307.048L311.632 10.536H313.2L317.784 22ZM323.676 15.232C323.612 15.3493 323.513 15.408 323.38 15.408C323.3 15.408 323.209 15.3787 323.108 15.32C323.007 15.2613 322.881 15.1973 322.732 15.128C322.588 15.0533 322.415 14.9867 322.212 14.928C322.009 14.864 321.769 14.832 321.492 14.832C321.252 14.832 321.036 14.864 320.844 14.928C320.652 14.9867 320.487 15.0693 320.348 15.176C320.215 15.2827 320.111 15.408 320.036 15.552C319.967 15.6907 319.932 15.8427 319.932 16.008C319.932 16.216 319.991 16.3893 320.108 16.528C320.231 16.6667 320.391 16.7867 320.588 16.888C320.785 16.9893 321.009 17.08 321.26 17.16C321.511 17.2347 321.767 17.3173 322.028 17.408C322.295 17.4933 322.553 17.5893 322.804 17.696C323.055 17.8027 323.279 17.936 323.476 18.096C323.673 18.256 323.831 18.4533 323.948 18.688C324.071 18.9173 324.132 19.1947 324.132 19.52C324.132 19.8933 324.065 20.24 323.932 20.56C323.799 20.8747 323.601 21.1493 323.34 21.384C323.079 21.6133 322.759 21.7947 322.38 21.928C322.001 22.0613 321.564 22.128 321.068 22.128C320.503 22.128 319.991 22.0373 319.532 21.856C319.073 21.6693 318.684 21.432 318.364 21.144L318.7 20.6C318.743 20.5307 318.793 20.4773 318.852 20.44C318.911 20.4027 318.985 20.384 319.076 20.384C319.172 20.384 319.273 20.4213 319.38 20.496C319.487 20.5707 319.615 20.6533 319.764 20.744C319.919 20.8347 320.105 20.9173 320.324 20.992C320.543 21.0667 320.815 21.104 321.14 21.104C321.417 21.104 321.66 21.0693 321.868 21C322.076 20.9253 322.249 20.8267 322.388 20.704C322.527 20.5813 322.628 20.44 322.692 20.28C322.761 20.12 322.796 19.9493 322.796 19.768C322.796 19.544 322.735 19.36 322.612 19.216C322.495 19.0667 322.337 18.9413 322.14 18.84C321.943 18.7333 321.716 18.6427 321.46 18.568C321.209 18.488 320.951 18.4053 320.684 18.32C320.423 18.2347 320.164 18.1387 319.908 18.032C319.657 17.92 319.433 17.7813 319.236 17.616C319.039 17.4507 318.879 17.248 318.756 17.008C318.639 16.7627 318.58 16.4667 318.58 16.12C318.58 15.8107 318.644 15.5147 318.772 15.232C318.9 14.944 319.087 14.6933 319.332 14.48C319.577 14.2613 319.879 14.088 320.236 13.96C320.593 13.832 321.001 13.768 321.46 13.768C321.993 13.768 322.471 13.8533 322.892 14.024C323.319 14.1893 323.687 14.4187 323.996 14.712L323.676 15.232ZM331.324 15.52C331.58 14.9653 331.894 14.5333 332.268 14.224C332.641 13.9093 333.097 13.752 333.636 13.752C333.806 13.752 333.969 13.7707 334.124 13.808C334.284 13.8453 334.425 13.904 334.548 13.984L334.444 15.048C334.412 15.1813 334.332 15.248 334.204 15.248C334.129 15.248 334.02 15.232 333.876 15.2C333.732 15.168 333.569 15.152 333.388 15.152C333.132 15.152 332.902 15.1893 332.7 15.264C332.502 15.3387 332.324 15.4507 332.164 15.6C332.009 15.744 331.868 15.9253 331.74 16.144C331.617 16.3573 331.505 16.6027 331.404 16.88V22H329.972V13.896H330.788C330.942 13.896 331.049 13.9253 331.108 13.984C331.166 14.0427 331.206 14.144 331.228 14.288L331.324 15.52ZM340.896 17.064C340.896 16.7333 340.848 16.432 340.752 16.16C340.661 15.8827 340.525 15.6453 340.344 15.448C340.168 15.2453 339.952 15.0907 339.696 14.984C339.44 14.872 339.149 14.816 338.824 14.816C338.141 14.816 337.6 15.016 337.2 15.416C336.805 15.8107 336.56 16.36 336.464 17.064H340.896ZM342.048 20.864C341.872 21.0773 341.661 21.264 341.416 21.424C341.17 21.5787 340.906 21.7067 340.624 21.808C340.346 21.9093 340.058 21.984 339.76 22.032C339.461 22.0853 339.165 22.112 338.872 22.112C338.312 22.112 337.794 22.0187 337.32 21.832C336.85 21.64 336.442 21.3627 336.096 21C335.754 20.632 335.488 20.1787 335.296 19.64C335.104 19.1013 335.008 18.4827 335.008 17.784C335.008 17.2187 335.093 16.6907 335.264 16.2C335.44 15.7093 335.69 15.2853 336.016 14.928C336.341 14.5653 336.738 14.2827 337.208 14.08C337.677 13.872 338.205 13.768 338.792 13.768C339.277 13.768 339.725 13.8507 340.136 14.016C340.552 14.176 340.909 14.4107 341.208 14.72C341.512 15.024 341.749 15.4027 341.92 15.856C342.09 16.304 342.176 16.816 342.176 17.392C342.176 17.616 342.152 17.7653 342.104 17.84C342.056 17.9147 341.965 17.952 341.832 17.952H336.416C336.432 18.464 336.501 18.9093 336.624 19.288C336.752 19.6667 336.928 19.984 337.152 20.24C337.376 20.4907 337.642 20.68 337.952 20.808C338.261 20.9307 338.608 20.992 338.992 20.992C339.349 20.992 339.656 20.952 339.912 20.872C340.173 20.7867 340.397 20.696 340.584 20.6C340.77 20.504 340.925 20.416 341.048 20.336C341.176 20.2507 341.285 20.208 341.376 20.208C341.493 20.208 341.584 20.2533 341.648 20.344L342.048 20.864ZM345.397 10.216V22H343.973V10.216H345.397ZM352.098 18.352C351.442 18.3733 350.882 18.4267 350.418 18.512C349.959 18.592 349.583 18.6987 349.29 18.832C349.002 18.9653 348.791 19.1227 348.658 19.304C348.53 19.4853 348.466 19.688 348.466 19.912C348.466 20.1253 348.501 20.3093 348.57 20.464C348.639 20.6187 348.733 20.7467 348.85 20.848C348.973 20.944 349.114 21.016 349.274 21.064C349.439 21.1067 349.615 21.128 349.802 21.128C350.053 21.128 350.282 21.104 350.49 21.056C350.698 21.0027 350.893 20.928 351.074 20.832C351.261 20.736 351.437 20.6213 351.602 20.488C351.773 20.3547 351.938 20.2027 352.098 20.032V18.352ZM347.498 15.04C347.946 14.608 348.429 14.2853 348.946 14.072C349.463 13.8587 350.037 13.752 350.666 13.752C351.119 13.752 351.522 13.8267 351.874 13.976C352.226 14.1253 352.522 14.3333 352.762 14.6C353.002 14.8667 353.183 15.1893 353.306 15.568C353.429 15.9467 353.49 16.3627 353.49 16.816V22H352.858C352.719 22 352.613 21.9787 352.538 21.936C352.463 21.888 352.405 21.7973 352.362 21.664L352.202 20.896C351.989 21.0933 351.781 21.2693 351.578 21.424C351.375 21.5733 351.162 21.7013 350.938 21.808C350.714 21.9093 350.474 21.9867 350.218 22.04C349.967 22.0987 349.687 22.128 349.378 22.128C349.063 22.128 348.767 22.0853 348.49 22C348.213 21.9093 347.97 21.776 347.762 21.6C347.559 21.424 347.397 21.2027 347.274 20.936C347.157 20.664 347.098 20.344 347.098 19.976C347.098 19.656 347.186 19.3493 347.362 19.056C347.538 18.7573 347.823 18.4933 348.218 18.264C348.613 18.0347 349.127 17.848 349.762 17.704C350.397 17.5547 351.175 17.4693 352.098 17.448V16.816C352.098 16.1867 351.962 15.712 351.69 15.392C351.418 15.0667 351.021 14.904 350.498 14.904C350.146 14.904 349.85 14.9493 349.61 15.04C349.375 15.1253 349.17 15.224 348.994 15.336C348.823 15.4427 348.674 15.5413 348.546 15.632C348.423 15.7173 348.301 15.76 348.178 15.76C348.082 15.76 347.999 15.736 347.93 15.688C347.861 15.6347 347.802 15.5707 347.754 15.496L347.498 15.04ZM358.038 22.128C357.398 22.128 356.905 21.9493 356.558 21.592C356.217 21.2347 356.046 20.72 356.046 20.048V15.088H355.07C354.985 15.088 354.913 15.064 354.854 15.016C354.795 14.9627 354.766 14.8827 354.766 14.776V14.208L356.094 14.04L356.422 11.536C356.438 11.456 356.473 11.392 356.526 11.344C356.585 11.2907 356.659 11.264 356.75 11.264H357.47V14.056H359.814V15.088H357.47V19.952C357.47 20.2933 357.553 20.5467 357.718 20.712C357.883 20.8773 358.097 20.96 358.358 20.96C358.507 20.96 358.635 20.9413 358.742 20.904C358.854 20.8613 358.95 20.816 359.03 20.768C359.11 20.72 359.177 20.6773 359.23 20.64C359.289 20.5973 359.339 20.576 359.382 20.576C359.457 20.576 359.523 20.6213 359.582 20.712L359.998 21.392C359.753 21.6213 359.457 21.8027 359.11 21.936C358.763 22.064 358.406 22.128 358.038 22.128ZM366.661 17.064C366.661 16.7333 366.613 16.432 366.517 16.16C366.427 15.8827 366.291 15.6453 366.109 15.448C365.933 15.2453 365.717 15.0907 365.461 14.984C365.205 14.872 364.915 14.816 364.589 14.816C363.907 14.816 363.365 15.016 362.965 15.416C362.571 15.8107 362.325 16.36 362.229 17.064H366.661ZM367.813 20.864C367.637 21.0773 367.427 21.264 367.181 21.424C366.936 21.5787 366.672 21.7067 366.389 21.808C366.112 21.9093 365.824 21.984 365.525 22.032C365.227 22.0853 364.931 22.112 364.637 22.112C364.077 22.112 363.56 22.0187 363.085 21.832C362.616 21.64 362.208 21.3627 361.861 21C361.52 20.632 361.253 20.1787 361.061 19.64C360.869 19.1013 360.773 18.4827 360.773 17.784C360.773 17.2187 360.859 16.6907 361.029 16.2C361.205 15.7093 361.456 15.2853 361.781 14.928C362.107 14.5653 362.504 14.2827 362.973 14.08C363.443 13.872 363.971 13.768 364.557 13.768C365.043 13.768 365.491 13.8507 365.901 14.016C366.317 14.176 366.675 14.4107 366.973 14.72C367.277 15.024 367.515 15.4027 367.685 15.856C367.856 16.304 367.941 16.816 367.941 17.392C367.941 17.616 367.917 17.7653 367.869 17.84C367.821 17.9147 367.731 17.952 367.597 17.952H362.181C362.197 18.464 362.267 18.9093 362.389 19.288C362.517 19.6667 362.693 19.984 362.917 20.24C363.141 20.4907 363.408 20.68 363.717 20.808C364.027 20.9307 364.373 20.992 364.757 20.992C365.115 20.992 365.421 20.952 365.677 20.872C365.939 20.7867 366.163 20.696 366.349 20.6C366.536 20.504 366.691 20.416 366.813 20.336C366.941 20.2507 367.051 20.208 367.141 20.208C367.259 20.208 367.349 20.2533 367.413 20.344L367.813 20.864ZM374.971 15.824C374.704 15.4667 374.416 15.2187 374.107 15.08C373.797 14.936 373.451 14.864 373.067 14.864C372.315 14.864 371.736 15.1333 371.331 15.672C370.925 16.2107 370.723 16.9787 370.723 17.976C370.723 18.504 370.768 18.9573 370.859 19.336C370.949 19.7093 371.083 20.0187 371.259 20.264C371.435 20.504 371.651 20.68 371.907 20.792C372.163 20.904 372.453 20.96 372.779 20.96C373.248 20.96 373.656 20.8533 374.003 20.64C374.355 20.4267 374.677 20.1253 374.971 19.736V15.824ZM376.395 10.216V22H375.547C375.344 22 375.216 21.9013 375.163 21.704L375.035 20.72C374.688 21.136 374.293 21.472 373.851 21.728C373.408 21.984 372.896 22.112 372.315 22.112C371.851 22.112 371.429 22.024 371.051 21.848C370.672 21.6667 370.349 21.4027 370.083 21.056C369.816 20.7093 369.611 20.2773 369.467 19.76C369.323 19.2427 369.251 18.648 369.251 17.976C369.251 17.3787 369.331 16.824 369.491 16.312C369.651 15.7947 369.88 15.3467 370.179 14.968C370.477 14.5893 370.843 14.2933 371.275 14.08C371.712 13.8613 372.203 13.752 372.747 13.752C373.243 13.752 373.667 13.8373 374.019 14.008C374.376 14.1733 374.693 14.4053 374.971 14.704V10.216H376.395ZM385.225 22.128C384.585 22.128 384.092 21.9493 383.745 21.592C383.404 21.2347 383.233 20.72 383.233 20.048V15.088H382.257C382.172 15.088 382.1 15.064 382.041 15.016C381.983 14.9627 381.953 14.8827 381.953 14.776V14.208L383.281 14.04L383.609 11.536C383.625 11.456 383.66 11.392 383.713 11.344C383.772 11.2907 383.847 11.264 383.937 11.264H384.657V14.056H387.001V15.088H384.657V19.952C384.657 20.2933 384.74 20.5467 384.905 20.712C385.071 20.8773 385.284 20.96 385.545 20.96C385.695 20.96 385.823 20.9413 385.929 20.904C386.041 20.8613 386.137 20.816 386.217 20.768C386.297 20.72 386.364 20.6773 386.417 20.64C386.476 20.5973 386.527 20.576 386.569 20.576C386.644 20.576 386.711 20.6213 386.769 20.712L387.185 21.392C386.94 21.6213 386.644 21.8027 386.297 21.936C385.951 22.064 385.593 22.128 385.225 22.128ZM391.841 13.768C392.433 13.768 392.966 13.8667 393.441 14.064C393.916 14.2613 394.321 14.5413 394.657 14.904C394.993 15.2667 395.249 15.7067 395.425 16.224C395.606 16.736 395.697 17.3093 395.697 17.944C395.697 18.584 395.606 19.16 395.425 19.672C395.249 20.184 394.993 20.6213 394.657 20.984C394.321 21.3467 393.916 21.6267 393.441 21.824C392.966 22.016 392.433 22.112 391.841 22.112C391.244 22.112 390.705 22.016 390.225 21.824C389.75 21.6267 389.345 21.3467 389.009 20.984C388.673 20.6213 388.414 20.184 388.233 19.672C388.057 19.16 387.969 18.584 387.969 17.944C387.969 17.3093 388.057 16.736 388.233 16.224C388.414 15.7067 388.673 15.2667 389.009 14.904C389.345 14.5413 389.75 14.2613 390.225 14.064C390.705 13.8667 391.244 13.768 391.841 13.768ZM391.841 21C392.641 21 393.238 20.7333 393.633 20.2C394.028 19.6613 394.225 18.912 394.225 17.952C394.225 16.9867 394.028 16.2347 393.633 15.696C393.238 15.1573 392.641 14.888 391.841 14.888C391.436 14.888 391.081 14.9573 390.777 15.096C390.478 15.2347 390.228 15.4347 390.025 15.696C389.828 15.9573 389.678 16.28 389.577 16.664C389.481 17.0427 389.433 17.472 389.433 17.952C389.433 18.912 389.63 19.6613 390.025 20.2C390.425 20.7333 391.03 21 391.841 21ZM404.085 22.128C403.445 22.128 402.951 21.9493 402.605 21.592C402.263 21.2347 402.093 20.72 402.093 20.048V15.088H401.117C401.031 15.088 400.959 15.064 400.901 15.016C400.842 14.9627 400.813 14.8827 400.813 14.776V14.208L402.141 14.04L402.469 11.536C402.485 11.456 402.519 11.392 402.573 11.344C402.631 11.2907 402.706 11.264 402.797 11.264H403.517V14.056H405.861V15.088H403.517V19.952C403.517 20.2933 403.599 20.5467 403.765 20.712C403.93 20.8773 404.143 20.96 404.405 20.96C404.554 20.96 404.682 20.9413 404.789 20.904C404.901 20.8613 404.997 20.816 405.077 20.768C405.157 20.72 405.223 20.6773 405.277 20.64C405.335 20.5973 405.386 20.576 405.429 20.576C405.503 20.576 405.57 20.6213 405.629 20.712L406.045 21.392C405.799 21.6213 405.503 21.8027 405.157 21.936C404.81 22.064 404.453 22.128 404.085 22.128ZM408.763 14.976C409.11 14.608 409.494 14.3147 409.915 14.096C410.336 13.8773 410.822 13.768 411.371 13.768C411.814 13.768 412.203 13.8427 412.539 13.992C412.88 14.136 413.163 14.344 413.387 14.616C413.616 14.8827 413.79 15.2053 413.907 15.584C414.024 15.9627 414.083 16.3813 414.083 16.84V22H412.651V16.84C412.651 16.2267 412.51 15.752 412.227 15.416C411.95 15.0747 411.526 14.904 410.955 14.904C410.534 14.904 410.139 15.0053 409.771 15.208C409.408 15.4107 409.072 15.6853 408.763 16.032V22H407.331V10.216H408.763V14.976ZM421.677 17.064C421.677 16.7333 421.629 16.432 421.533 16.16C421.442 15.8827 421.306 15.6453 421.125 15.448C420.949 15.2453 420.733 15.0907 420.477 14.984C420.221 14.872 419.93 14.816 419.605 14.816C418.922 14.816 418.381 15.016 417.981 15.416C417.586 15.8107 417.341 16.36 417.245 17.064H421.677ZM422.829 20.864C422.653 21.0773 422.442 21.264 422.197 21.424C421.952 21.5787 421.688 21.7067 421.405 21.808C421.128 21.9093 420.84 21.984 420.541 22.032C420.242 22.0853 419.946 22.112 419.653 22.112C419.093 22.112 418.576 22.0187 418.101 21.832C417.632 21.64 417.224 21.3627 416.877 21C416.536 20.632 416.269 20.1787 416.077 19.64C415.885 19.1013 415.789 18.4827 415.789 17.784C415.789 17.2187 415.874 16.6907 416.045 16.2C416.221 15.7093 416.472 15.2853 416.797 14.928C417.122 14.5653 417.52 14.2827 417.989 14.08C418.458 13.872 418.986 13.768 419.573 13.768C420.058 13.768 420.506 13.8507 420.917 14.016C421.333 14.176 421.69 14.4107 421.989 14.72C422.293 15.024 422.53 15.4027 422.701 15.856C422.872 16.304 422.957 16.816 422.957 17.392C422.957 17.616 422.933 17.7653 422.885 17.84C422.837 17.9147 422.746 17.952 422.613 17.952H417.197C417.213 18.464 417.282 18.9093 417.405 19.288C417.533 19.6667 417.709 19.984 417.933 20.24C418.157 20.4907 418.424 20.68 418.733 20.808C419.042 20.9307 419.389 20.992 419.773 20.992C420.13 20.992 420.437 20.952 420.693 20.872C420.954 20.7867 421.178 20.696 421.365 20.6C421.552 20.504 421.706 20.416 421.829 20.336C421.957 20.2507 422.066 20.208 422.157 20.208C422.274 20.208 422.365 20.2533 422.429 20.344L422.829 20.864ZM430.232 10.216V17.152H430.6C430.707 17.152 430.795 17.1387 430.864 17.112C430.939 17.08 431.016 17.0187 431.096 16.928L433.656 14.184C433.731 14.0933 433.808 14.024 433.888 13.976C433.973 13.9227 434.085 13.896 434.224 13.896H435.512L432.528 17.072C432.384 17.2533 432.229 17.3947 432.064 17.496C432.16 17.56 432.245 17.6347 432.32 17.72C432.4 17.8 432.475 17.8933 432.544 18L435.712 22H434.44C434.317 22 434.211 21.9813 434.12 21.944C434.035 21.9013 433.96 21.8267 433.896 21.72L431.232 18.4C431.152 18.288 431.072 18.216 430.992 18.184C430.917 18.1467 430.8 18.128 430.64 18.128H430.232V22H428.8V10.216H430.232ZM441.896 17.064C441.896 16.7333 441.848 16.432 441.752 16.16C441.661 15.8827 441.525 15.6453 441.344 15.448C441.168 15.2453 440.952 15.0907 440.696 14.984C440.44 14.872 440.149 14.816 439.824 14.816C439.141 14.816 438.6 15.016 438.2 15.416C437.805 15.8107 437.56 16.36 437.464 17.064H441.896ZM443.048 20.864C442.872 21.0773 442.661 21.264 442.416 21.424C442.17 21.5787 441.906 21.7067 441.624 21.808C441.346 21.9093 441.058 21.984 440.76 22.032C440.461 22.0853 440.165 22.112 439.872 22.112C439.312 22.112 438.794 22.0187 438.32 21.832C437.85 21.64 437.442 21.3627 437.096 21C436.754 20.632 436.488 20.1787 436.296 19.64C436.104 19.1013 436.008 18.4827 436.008 17.784C436.008 17.2187 436.093 16.6907 436.264 16.2C436.44 15.7093 436.69 15.2853 437.016 14.928C437.341 14.5653 437.738 14.2827 438.208 14.08C438.677 13.872 439.205 13.768 439.792 13.768C440.277 13.768 440.725 13.8507 441.136 14.016C441.552 14.176 441.909 14.4107 442.208 14.72C442.512 15.024 442.749 15.4027 442.92 15.856C443.09 16.304 443.176 16.816 443.176 17.392C443.176 17.616 443.152 17.7653 443.104 17.84C443.056 17.9147 442.965 17.952 442.832 17.952H437.416C437.432 18.464 437.501 18.9093 437.624 19.288C437.752 19.6667 437.928 19.984 438.152 20.24C438.376 20.4907 438.642 20.68 438.952 20.808C439.261 20.9307 439.608 20.992 439.992 20.992C440.349 20.992 440.656 20.952 440.912 20.872C441.173 20.7867 441.397 20.696 441.584 20.6C441.77 20.504 441.925 20.416 442.048 20.336C442.176 20.2507 442.285 20.208 442.376 20.208C442.493 20.208 442.584 20.2533 442.648 20.344L443.048 20.864ZM451.714 13.896L447.194 24.392C447.146 24.4987 447.084 24.584 447.01 24.648C446.94 24.712 446.831 24.744 446.682 24.744H445.626L447.106 21.528L443.762 13.896H444.994C445.116 13.896 445.212 13.928 445.282 13.992C445.356 14.0507 445.407 14.1173 445.434 14.192L447.602 19.296C447.687 19.52 447.759 19.7547 447.818 20C447.892 19.7493 447.972 19.512 448.058 19.288L450.162 14.192C450.194 14.1067 450.247 14.0373 450.322 13.984C450.402 13.9253 450.49 13.896 450.586 13.896H451.714ZM464.148 13.896L461.524 22H460.396C460.257 22 460.161 21.9093 460.108 21.728L458.316 16.232C458.273 16.1093 458.238 15.9867 458.212 15.864C458.185 15.736 458.158 15.6107 458.132 15.488C458.105 15.6107 458.078 15.736 458.052 15.864C458.025 15.9867 457.99 16.112 457.948 16.24L456.124 21.728C456.076 21.9093 455.969 22 455.804 22H454.732L452.108 13.896H453.228C453.34 13.896 453.433 13.9253 453.508 13.984C453.588 14.0427 453.641 14.112 453.668 14.192L455.22 19.408C455.31 19.792 455.382 20.1547 455.436 20.496C455.484 20.32 455.532 20.1413 455.58 19.96C455.633 19.7787 455.689 19.5947 455.748 19.408L457.46 14.16C457.486 14.08 457.532 14.0133 457.596 13.96C457.665 13.9067 457.748 13.88 457.844 13.88H458.468C458.574 13.88 458.662 13.9067 458.732 13.96C458.801 14.0133 458.849 14.08 458.876 14.16L460.548 19.408C460.606 19.5947 460.66 19.7787 460.708 19.96C460.756 20.1413 460.801 20.32 460.844 20.496C460.87 20.32 460.902 20.144 460.94 19.968C460.982 19.7867 461.028 19.6 461.076 19.408L462.66 14.192C462.686 14.1067 462.737 14.0373 462.812 13.984C462.886 13.9253 462.974 13.896 463.076 13.896H464.148ZM468.841 13.768C469.433 13.768 469.966 13.8667 470.441 14.064C470.916 14.2613 471.321 14.5413 471.657 14.904C471.993 15.2667 472.249 15.7067 472.425 16.224C472.606 16.736 472.697 17.3093 472.697 17.944C472.697 18.584 472.606 19.16 472.425 19.672C472.249 20.184 471.993 20.6213 471.657 20.984C471.321 21.3467 470.916 21.6267 470.441 21.824C469.966 22.016 469.433 22.112 468.841 22.112C468.244 22.112 467.705 22.016 467.225 21.824C466.75 21.6267 466.345 21.3467 466.009 20.984C465.673 20.6213 465.414 20.184 465.233 19.672C465.057 19.16 464.969 18.584 464.969 17.944C464.969 17.3093 465.057 16.736 465.233 16.224C465.414 15.7067 465.673 15.2667 466.009 14.904C466.345 14.5413 466.75 14.2613 467.225 14.064C467.705 13.8667 468.244 13.768 468.841 13.768ZM468.841 21C469.641 21 470.238 20.7333 470.633 20.2C471.028 19.6613 471.225 18.912 471.225 17.952C471.225 16.9867 471.028 16.2347 470.633 15.696C470.238 15.1573 469.641 14.888 468.841 14.888C468.436 14.888 468.081 14.9573 467.777 15.096C467.478 15.2347 467.228 15.4347 467.025 15.696C466.828 15.9573 466.678 16.28 466.577 16.664C466.481 17.0427 466.433 17.472 466.433 17.952C466.433 18.912 466.63 19.6613 467.025 20.2C467.425 20.7333 468.03 21 468.841 21ZM475.855 15.52C476.111 14.9653 476.426 14.5333 476.799 14.224C477.172 13.9093 477.628 13.752 478.167 13.752C478.338 13.752 478.5 13.7707 478.655 13.808C478.815 13.8453 478.956 13.904 479.079 13.984L478.975 15.048C478.943 15.1813 478.863 15.248 478.735 15.248C478.66 15.248 478.551 15.232 478.407 15.2C478.263 15.168 478.1 15.152 477.919 15.152C477.663 15.152 477.434 15.1893 477.231 15.264C477.034 15.3387 476.855 15.4507 476.695 15.6C476.54 15.744 476.399 15.9253 476.271 16.144C476.148 16.3573 476.036 16.6027 475.935 16.88V22H474.503V13.896H475.319C475.474 13.896 475.58 13.9253 475.639 13.984C475.698 14.0427 475.738 14.144 475.759 14.288L475.855 15.52ZM485.299 15.824C485.032 15.4667 484.744 15.2187 484.435 15.08C484.125 14.936 483.779 14.864 483.395 14.864C482.643 14.864 482.064 15.1333 481.659 15.672C481.253 16.2107 481.051 16.9787 481.051 17.976C481.051 18.504 481.096 18.9573 481.187 19.336C481.277 19.7093 481.411 20.0187 481.587 20.264C481.763 20.504 481.979 20.68 482.235 20.792C482.491 20.904 482.781 20.96 483.107 20.96C483.576 20.96 483.984 20.8533 484.331 20.64C484.683 20.4267 485.005 20.1253 485.299 19.736V15.824ZM486.723 10.216V22H485.875C485.672 22 485.544 21.9013 485.491 21.704L485.363 20.72C485.016 21.136 484.621 21.472 484.179 21.728C483.736 21.984 483.224 22.112 482.643 22.112C482.179 22.112 481.757 22.024 481.379 21.848C481 21.6667 480.677 21.4027 480.411 21.056C480.144 20.7093 479.939 20.2773 479.795 19.76C479.651 19.2427 479.579 18.648 479.579 17.976C479.579 17.3787 479.659 16.824 479.819 16.312C479.979 15.7947 480.208 15.3467 480.507 14.968C480.805 14.5893 481.171 14.2933 481.603 14.08C482.04 13.8613 482.531 13.752 483.075 13.752C483.571 13.752 483.995 13.8373 484.347 14.008C484.704 14.1733 485.021 14.4053 485.299 14.704V10.216H486.723ZM493.298 14.4C493.074 14.0213 492.922 13.624 492.842 13.208C492.762 12.7867 492.754 12.3707 492.818 11.96C492.882 11.5493 493.015 11.1573 493.218 10.784C493.42 10.4053 493.69 10.0667 494.026 9.768L494.458 10.04C494.538 10.0933 494.572 10.16 494.562 10.24C494.556 10.3147 494.532 10.3733 494.49 10.416C494.351 10.5867 494.231 10.7947 494.13 11.04C494.034 11.2853 493.972 11.5493 493.946 11.832C493.919 12.1093 493.932 12.3973 493.986 12.696C494.039 12.9947 494.148 13.2827 494.314 13.56C494.383 13.672 494.402 13.7733 494.37 13.864C494.343 13.9493 494.279 14.0133 494.178 14.056L493.298 14.4ZM495.73 14.4C495.506 14.0213 495.354 13.624 495.274 13.208C495.194 12.7867 495.186 12.3707 495.25 11.96C495.314 11.5493 495.447 11.1573 495.65 10.784C495.852 10.4053 496.122 10.0667 496.457 9.768L496.89 10.04C496.97 10.0933 497.004 10.16 496.994 10.24C496.988 10.3147 496.964 10.3733 496.922 10.416C496.783 10.5867 496.663 10.7947 496.562 11.04C496.466 11.2853 496.404 11.5493 496.378 11.832C496.351 12.1093 496.364 12.3973 496.418 12.696C496.471 12.9947 496.58 13.2827 496.746 13.56C496.815 13.672 496.834 13.7733 496.802 13.864C496.775 13.9493 496.711 14.0133 496.61 14.056L495.73 14.4ZM500.341 20.048C500.603 20.4 500.888 20.648 501.197 20.792C501.512 20.936 501.856 21.008 502.229 21.008C502.992 21.008 503.576 20.7387 503.981 20.2C504.387 19.6613 504.589 18.8587 504.589 17.792C504.589 16.8 504.408 16.072 504.045 15.608C503.688 15.1387 503.176 14.904 502.509 14.904C502.045 14.904 501.64 15.0107 501.293 15.224C500.952 15.4373 500.635 15.7387 500.341 16.128V20.048ZM500.341 15.064C500.683 14.6693 501.067 14.3547 501.493 14.12C501.925 13.8853 502.421 13.768 502.981 13.768C503.456 13.768 503.883 13.8587 504.261 14.04C504.645 14.2213 504.971 14.4853 505.237 14.832C505.504 15.1733 505.707 15.5893 505.845 16.08C505.989 16.5707 506.061 17.1227 506.061 17.736C506.061 18.392 505.981 18.9893 505.821 19.528C505.661 20.0667 505.429 20.528 505.125 20.912C504.827 21.2907 504.461 21.5867 504.029 21.8C503.597 22.008 503.112 22.112 502.573 22.112C502.04 22.112 501.589 22.0133 501.221 21.816C500.859 21.6133 500.541 21.328 500.269 20.96L500.197 21.696C500.155 21.8987 500.032 22 499.829 22H498.909V10.216H500.341V15.064ZM511.278 13.768C511.87 13.768 512.404 13.8667 512.878 14.064C513.353 14.2613 513.758 14.5413 514.094 14.904C514.43 15.2667 514.686 15.7067 514.862 16.224C515.044 16.736 515.134 17.3093 515.134 17.944C515.134 18.584 515.044 19.16 514.862 19.672C514.686 20.184 514.43 20.6213 514.094 20.984C513.758 21.3467 513.353 21.6267 512.878 21.824C512.404 22.016 511.87 22.112 511.278 22.112C510.681 22.112 510.142 22.016 509.662 21.824C509.188 21.6267 508.782 21.3467 508.446 20.984C508.11 20.6213 507.852 20.184 507.67 19.672C507.494 19.16 507.406 18.584 507.406 17.944C507.406 17.3093 507.494 16.736 507.67 16.224C507.852 15.7067 508.11 15.2667 508.446 14.904C508.782 14.5413 509.188 14.2613 509.662 14.064C510.142 13.8667 510.681 13.768 511.278 13.768ZM511.278 21C512.078 21 512.676 20.7333 513.07 20.2C513.465 19.6613 513.662 18.912 513.662 17.952C513.662 16.9867 513.465 16.2347 513.07 15.696C512.676 15.1573 512.078 14.888 511.278 14.888C510.873 14.888 510.518 14.9573 510.214 15.096C509.916 15.2347 509.665 15.4347 509.462 15.696C509.265 15.9573 509.116 16.28 509.014 16.664C508.918 17.0427 508.87 17.472 508.87 17.952C508.87 18.912 509.068 19.6613 509.462 20.2C509.862 20.7333 510.468 21 511.278 21ZM520.357 13.768C520.949 13.768 521.482 13.8667 521.957 14.064C522.431 14.2613 522.837 14.5413 523.173 14.904C523.509 15.2667 523.765 15.7067 523.941 16.224C524.122 16.736 524.213 17.3093 524.213 17.944C524.213 18.584 524.122 19.16 523.941 19.672C523.765 20.184 523.509 20.6213 523.173 20.984C522.837 21.3467 522.431 21.6267 521.957 21.824C521.482 22.016 520.949 22.112 520.357 22.112C519.759 22.112 519.221 22.016 518.741 21.824C518.266 21.6267 517.861 21.3467 517.525 20.984C517.189 20.6213 516.93 20.184 516.749 19.672C516.573 19.16 516.485 18.584 516.485 17.944C516.485 17.3093 516.573 16.736 516.749 16.224C516.93 15.7067 517.189 15.2667 517.525 14.904C517.861 14.5413 518.266 14.2613 518.741 14.064C519.221 13.8667 519.759 13.768 520.357 13.768ZM520.357 21C521.157 21 521.754 20.7333 522.149 20.2C522.543 19.6613 522.741 18.912 522.741 17.952C522.741 16.9867 522.543 16.2347 522.149 15.696C521.754 15.1573 521.157 14.888 520.357 14.888C519.951 14.888 519.597 14.9573 519.293 15.096C518.994 15.2347 518.743 15.4347 518.541 15.696C518.343 15.9573 518.194 16.28 518.093 16.664C517.997 17.0427 517.949 17.472 517.949 17.952C517.949 18.912 518.146 19.6613 518.541 20.2C518.941 20.7333 519.546 21 520.357 21ZM527.451 10.216V17.152H527.819C527.925 17.152 528.013 17.1387 528.083 17.112C528.157 17.08 528.235 17.0187 528.315 16.928L530.875 14.184C530.949 14.0933 531.027 14.024 531.107 13.976C531.192 13.9227 531.304 13.896 531.443 13.896H532.731L529.747 17.072C529.603 17.2533 529.448 17.3947 529.283 17.496C529.379 17.56 529.464 17.6347 529.539 17.72C529.619 17.8 529.693 17.8933 529.763 18L532.931 22H531.659C531.536 22 531.429 21.9813 531.339 21.944C531.253 21.9013 531.179 21.8267 531.115 21.72L528.451 18.4C528.371 18.288 528.291 18.216 528.211 18.184C528.136 18.1467 528.019 18.128 527.859 18.128H527.451V22H526.019V10.216H527.451ZM535.128 9.768C535.352 10.1467 535.504 10.5467 535.584 10.968C535.664 11.3893 535.672 11.8053 535.608 12.216C535.544 12.6267 535.41 13.0213 535.208 13.4C535.005 13.7787 534.736 14.1147 534.4 14.408L533.968 14.128C533.888 14.08 533.85 14.0187 533.856 13.944C533.866 13.864 533.893 13.8 533.936 13.752C534.074 13.5813 534.192 13.376 534.288 13.136C534.389 12.8907 534.453 12.6293 534.48 12.352C534.512 12.0693 534.498 11.7787 534.44 11.48C534.386 11.1813 534.277 10.8933 534.112 10.616C534.042 10.504 534.021 10.4053 534.048 10.32C534.08 10.2293 534.146 10.1627 534.248 10.12L535.128 9.768ZM537.56 9.768C537.784 10.1467 537.936 10.5467 538.016 10.968C538.096 11.3893 538.104 11.8053 538.04 12.216C537.976 12.6267 537.842 13.0213 537.64 13.4C537.437 13.7787 537.168 14.1147 536.832 14.408L536.4 14.128C536.32 14.08 536.282 14.0187 536.288 13.944C536.298 13.864 536.325 13.8 536.368 13.752C536.506 13.5813 536.624 13.376 536.72 13.136C536.821 12.8907 536.885 12.6293 536.912 12.352C536.944 12.0693 536.93 11.7787 536.872 11.48C536.818 11.1813 536.709 10.8933 536.544 10.616C536.474 10.504 536.453 10.4053 536.48 10.32C536.512 10.2293 536.578 10.1627 536.68 10.12L537.56 9.768Z" fill="black"/>
</svg>
