<svg width="557" height="32" viewBox="0 0 557 32" fill="none" xmlns="http://www.w3.org/2000/svg">
<path d="M8.712 26.172C8.712 27.204 8.904 27.924 9.288 28.332C9.672 28.716 10.344 28.908 11.304 28.908V29.664C8.712 29.568 7.056 29.52 6.336 29.52C5.544 29.52 3.816 29.556 1.152 29.628L0.144 29.664V28.908C1.272 28.908 2.112 28.692 2.664 28.26C3.24 27.828 3.528 27.06 3.528 25.956V17.172C3.528 16.02 3.42 15.18 3.204 14.652C3.012 14.1 2.676 13.74 2.196 13.572C1.716 13.38 0.984 13.284 0 13.284V12.492C2.088 12.444 3.804 12.288 5.148 12.024C6.492 11.736 7.68 11.28 8.712 10.656V26.172Z" fill="black"/>
<path d="M24.1493 10.548C26.0452 10.548 27.7373 10.944 29.2253 11.736C30.7133 12.528 31.8653 13.644 32.6813 15.084C33.5213 16.524 33.9413 18.18 33.9413 20.052C33.9413 21.972 33.5093 23.7 32.6453 25.236C31.8053 26.772 30.6053 27.984 29.0452 28.872C27.5092 29.736 25.7453 30.168 23.7533 30.168C21.8813 30.168 20.2012 29.772 18.7132 28.98C17.2252 28.188 16.0613 27.072 15.2213 25.632C14.3813 24.192 13.9613 22.524 13.9613 20.628C13.9613 18.732 14.3813 17.016 15.2213 15.48C16.0853 13.944 17.2852 12.744 18.8212 11.88C20.3572 10.992 22.1333 10.548 24.1493 10.548ZM23.8253 11.196C22.9613 11.196 22.1932 11.568 21.5212 12.312C20.8492 13.056 20.3213 14.136 19.9373 15.552C19.5773 16.944 19.3972 18.6 19.3972 20.52C19.3972 23.568 19.8293 25.836 20.6933 27.324C21.5813 28.788 22.7092 29.52 24.0772 29.52C24.9412 29.52 25.6973 29.148 26.3453 28.404C27.0173 27.636 27.5453 26.556 27.9293 25.164C28.3133 23.748 28.5053 22.08 28.5053 20.16C28.5053 17.112 28.0613 14.856 27.1733 13.392C26.3092 11.928 25.1933 11.196 23.8253 11.196Z" fill="black"/>
<path d="M47.3524 10.548C49.2484 10.548 50.9404 10.944 52.4284 11.736C53.9164 12.528 55.0684 13.644 55.8844 15.084C56.7244 16.524 57.1444 18.18 57.1444 20.052C57.1444 21.972 56.7124 23.7 55.8484 25.236C55.0084 26.772 53.8084 27.984 52.2484 28.872C50.7124 29.736 48.9484 30.168 46.9564 30.168C45.0844 30.168 43.4044 29.772 41.9164 28.98C40.4284 28.188 39.2644 27.072 38.4244 25.632C37.5844 24.192 37.1644 22.524 37.1644 20.628C37.1644 18.732 37.5844 17.016 38.4244 15.48C39.2884 13.944 40.4884 12.744 42.0244 11.88C43.5604 10.992 45.3364 10.548 47.3524 10.548ZM47.0284 11.196C46.1644 11.196 45.3964 11.568 44.7244 12.312C44.0524 13.056 43.5244 14.136 43.1404 15.552C42.7804 16.944 42.6004 18.6 42.6004 20.52C42.6004 23.568 43.0324 25.836 43.8964 27.324C44.7844 28.788 45.9124 29.52 47.2804 29.52C48.1444 29.52 48.9004 29.148 49.5484 28.404C50.2204 27.636 50.7484 26.556 51.1324 25.164C51.5164 23.748 51.7084 22.08 51.7084 20.16C51.7084 17.112 51.2644 14.856 50.3764 13.392C49.5124 11.928 48.3964 11.196 47.0284 11.196Z" fill="black"/>
<path d="M82.9035 0.468L61.8435 31.644L61.1595 31.176L82.2195 0L82.9035 0.468ZM65.8035 2.268C67.5555 2.268 68.9595 2.796 70.0155 3.852C71.0955 4.884 71.6355 6.312 71.6355 8.136C71.6355 9.336 71.3835 10.392 70.8795 11.304C70.3755 12.216 69.6795 12.924 68.7915 13.428C67.9035 13.932 66.9075 14.184 65.8035 14.184C64.0515 14.184 62.6355 13.668 61.5555 12.636C60.4755 11.58 59.9355 10.14 59.9355 8.316C59.9355 7.14 60.1875 6.096 60.6915 5.184C61.1955 4.248 61.8915 3.528 62.7795 3.024C63.6915 2.52 64.6995 2.268 65.8035 2.268ZM65.7315 2.916C64.1715 2.916 63.3915 4.704 63.3915 8.28C63.3915 10.008 63.6075 11.316 64.0395 12.204C64.4715 13.092 65.0835 13.536 65.8755 13.536C67.4115 13.536 68.1795 11.76 68.1795 8.208C68.1795 6.456 67.9635 5.136 67.5315 4.248C67.1235 3.36 66.5235 2.916 65.7315 2.916ZM77.8995 18.252C79.6515 18.252 81.0555 18.78 82.1115 19.836C83.1915 20.868 83.7315 22.296 83.7315 24.12C83.7315 25.32 83.4795 26.376 82.9755 27.288C82.4715 28.2 81.7755 28.908 80.8875 29.412C79.9995 29.916 79.0035 30.168 77.8995 30.168C76.1475 30.168 74.7315 29.652 73.6515 28.62C72.5715 27.564 72.0315 26.124 72.0315 24.3C72.0315 23.124 72.2835 22.08 72.7875 21.168C73.2915 20.232 73.9875 19.512 74.8755 19.008C75.7875 18.504 76.7955 18.252 77.8995 18.252ZM77.8275 18.9C76.2675 18.9 75.4875 20.688 75.4875 24.264C75.4875 25.992 75.7035 27.3 76.1355 28.188C76.5675 29.076 77.1795 29.52 77.9715 29.52C79.5075 29.52 80.2755 27.744 80.2755 24.192C80.2755 22.44 80.0595 21.12 79.6275 20.232C79.2195 19.344 78.6195 18.9 77.8275 18.9Z" fill="black"/>
<path d="M102.604 12.022C103.196 12.022 103.729 12.1206 104.204 12.318C104.678 12.5153 105.084 12.7953 105.42 13.158C105.756 13.5206 106.012 13.9606 106.188 14.478C106.369 14.99 106.46 15.5633 106.46 16.198C106.46 16.838 106.369 17.414 106.188 17.926C106.012 18.438 105.756 18.8753 105.42 19.238C105.084 19.6006 104.678 19.8806 104.204 20.078C103.729 20.27 103.196 20.366 102.604 20.366C102.006 20.366 101.468 20.27 100.988 20.078C100.513 19.8806 100.108 19.6006 99.7715 19.238C99.4355 18.8753 99.1768 18.438 98.9955 17.926C98.8195 17.414 98.7315 16.838 98.7315 16.198C98.7315 15.5633 98.8195 14.99 98.9955 14.478C99.1768 13.9606 99.4355 13.5206 99.7715 13.158C100.108 12.7953 100.513 12.5153 100.988 12.318C101.468 12.1206 102.006 12.022 102.604 12.022ZM102.604 19.254C103.404 19.254 104.001 18.9873 104.396 18.454C104.79 17.9153 104.988 17.166 104.988 16.206C104.988 15.2406 104.79 14.4886 104.396 13.95C104.001 13.4113 103.404 13.142 102.604 13.142C102.198 13.142 101.844 13.2113 101.54 13.35C101.241 13.4886 100.99 13.6886 100.788 13.95C100.59 14.2113 100.441 14.534 100.34 14.918C100.244 15.2966 100.196 15.726 100.196 16.206C100.196 17.166 100.393 17.9153 100.788 18.454C101.188 18.9873 101.793 19.254 102.604 19.254Z" fill="black"/>
<path d="M108.622 20.254V13.366L107.726 13.262C107.614 13.2353 107.52 13.1953 107.446 13.142C107.376 13.0833 107.342 13.0006 107.342 12.894V12.31H108.622V11.526C108.622 11.062 108.686 10.6513 108.814 10.294C108.947 9.9313 109.134 9.6273 109.374 9.38197C109.619 9.1313 109.912 8.94197 110.254 8.81397C110.595 8.68597 110.979 8.62197 111.406 8.62197C111.768 8.62197 112.102 8.6753 112.406 8.78197L112.374 9.49397C112.363 9.62197 112.291 9.6913 112.158 9.70197C112.03 9.71264 111.856 9.71797 111.638 9.71797C111.392 9.71797 111.168 9.74997 110.966 9.81397C110.768 9.87797 110.598 9.98197 110.454 10.126C110.31 10.27 110.198 10.4593 110.118 10.694C110.043 10.9286 110.006 11.2193 110.006 11.566V12.31H112.342V13.342H110.054V20.254H108.622Z" fill="black"/>
<path d="M124.164 12.15V20.254H123.316C123.113 20.254 122.985 20.1553 122.932 19.958L122.82 19.086C122.468 19.4753 122.073 19.79 121.636 20.03C121.199 20.2646 120.697 20.382 120.132 20.382C119.689 20.382 119.297 20.31 118.956 20.166C118.62 20.0166 118.337 19.8086 118.108 19.542C117.879 19.2753 117.705 18.9526 117.588 18.574C117.476 18.1953 117.42 17.7766 117.42 17.318V12.15H118.844V17.318C118.844 17.9313 118.983 18.406 119.26 18.742C119.543 19.078 119.972 19.246 120.548 19.246C120.969 19.246 121.361 19.1473 121.724 18.95C122.092 18.7473 122.431 18.47 122.74 18.118V12.15H124.164Z" fill="black"/>
<path d="M131.142 13.486C131.078 13.6033 130.979 13.662 130.846 13.662C130.766 13.662 130.675 13.6326 130.574 13.574C130.473 13.5153 130.347 13.4513 130.198 13.382C130.054 13.3073 129.881 13.2406 129.678 13.182C129.475 13.118 129.235 13.086 128.958 13.086C128.718 13.086 128.502 13.118 128.31 13.182C128.118 13.2406 127.953 13.3233 127.814 13.43C127.681 13.5366 127.577 13.662 127.502 13.806C127.433 13.9446 127.398 14.0966 127.398 14.262C127.398 14.47 127.457 14.6433 127.574 14.782C127.697 14.9206 127.857 15.0406 128.054 15.142C128.251 15.2433 128.475 15.334 128.726 15.414C128.977 15.4886 129.233 15.5713 129.494 15.662C129.761 15.7473 130.019 15.8433 130.27 15.95C130.521 16.0566 130.745 16.19 130.942 16.35C131.139 16.51 131.297 16.7073 131.414 16.942C131.537 17.1713 131.598 17.4486 131.598 17.774C131.598 18.1473 131.531 18.494 131.398 18.814C131.265 19.1286 131.067 19.4033 130.806 19.638C130.545 19.8673 130.225 20.0486 129.846 20.182C129.467 20.3153 129.03 20.382 128.534 20.382C127.969 20.382 127.457 20.2913 126.998 20.11C126.539 19.9233 126.15 19.686 125.83 19.398L126.166 18.854C126.209 18.7846 126.259 18.7313 126.318 18.694C126.377 18.6566 126.451 18.638 126.542 18.638C126.638 18.638 126.739 18.6753 126.846 18.75C126.953 18.8246 127.081 18.9073 127.23 18.998C127.385 19.0886 127.571 19.1713 127.79 19.246C128.009 19.3206 128.281 19.358 128.606 19.358C128.883 19.358 129.126 19.3233 129.334 19.254C129.542 19.1793 129.715 19.0806 129.854 18.958C129.993 18.8353 130.094 18.694 130.158 18.534C130.227 18.374 130.262 18.2033 130.262 18.022C130.262 17.798 130.201 17.614 130.078 17.47C129.961 17.3206 129.803 17.1953 129.606 17.094C129.409 16.9873 129.182 16.8966 128.926 16.822C128.675 16.742 128.417 16.6593 128.15 16.574C127.889 16.4886 127.63 16.3926 127.374 16.286C127.123 16.174 126.899 16.0353 126.702 15.87C126.505 15.7046 126.345 15.502 126.222 15.262C126.105 15.0166 126.046 14.7206 126.046 14.374C126.046 14.0646 126.11 13.7686 126.238 13.486C126.366 13.198 126.553 12.9473 126.798 12.734C127.043 12.5153 127.345 12.342 127.702 12.214C128.059 12.086 128.467 12.022 128.926 12.022C129.459 12.022 129.937 12.1073 130.358 12.278C130.785 12.4433 131.153 12.6726 131.462 12.966L131.142 13.486Z" fill="black"/>
<path d="M138.768 15.318C138.768 14.9873 138.72 14.686 138.624 14.414C138.533 14.1366 138.397 13.8993 138.216 13.702C138.04 13.4993 137.824 13.3446 137.568 13.238C137.312 13.126 137.021 13.07 136.696 13.07C136.013 13.07 135.472 13.27 135.072 13.67C134.677 14.0646 134.432 14.614 134.336 15.318H138.768ZM139.92 19.118C139.744 19.3313 139.533 19.518 139.288 19.678C139.042 19.8326 138.778 19.9606 138.496 20.062C138.218 20.1633 137.93 20.238 137.632 20.286C137.333 20.3393 137.037 20.366 136.744 20.366C136.184 20.366 135.666 20.2726 135.192 20.086C134.722 19.894 134.314 19.6166 133.968 19.254C133.626 18.886 133.36 18.4326 133.168 17.894C132.976 17.3553 132.88 16.7366 132.88 16.038C132.88 15.4726 132.965 14.9446 133.136 14.454C133.312 13.9633 133.562 13.5393 133.888 13.182C134.213 12.8193 134.61 12.5366 135.08 12.334C135.549 12.126 136.077 12.022 136.664 12.022C137.149 12.022 137.597 12.1046 138.008 12.27C138.424 12.43 138.781 12.6646 139.08 12.974C139.384 13.278 139.621 13.6566 139.792 14.11C139.962 14.558 140.048 15.07 140.048 15.646C140.048 15.87 140.024 16.0193 139.976 16.094C139.928 16.1686 139.837 16.206 139.704 16.206H134.288C134.304 16.718 134.373 17.1633 134.496 17.542C134.624 17.9206 134.8 18.238 135.024 18.494C135.248 18.7446 135.514 18.934 135.824 19.062C136.133 19.1846 136.48 19.246 136.864 19.246C137.221 19.246 137.528 19.206 137.784 19.126C138.045 19.0406 138.269 18.95 138.456 18.854C138.642 18.758 138.797 18.67 138.92 18.59C139.048 18.5046 139.157 18.462 139.248 18.462C139.365 18.462 139.456 18.5073 139.52 18.598L139.92 19.118Z" fill="black"/>
<path d="M143.149 13.774C143.405 13.2193 143.72 12.7873 144.093 12.478C144.466 12.1633 144.922 12.006 145.461 12.006C145.632 12.006 145.794 12.0246 145.949 12.062C146.109 12.0993 146.25 12.158 146.373 12.238L146.269 13.302C146.237 13.4353 146.157 13.502 146.029 13.502C145.954 13.502 145.845 13.486 145.701 13.454C145.557 13.422 145.394 13.406 145.213 13.406C144.957 13.406 144.728 13.4433 144.525 13.518C144.328 13.5926 144.149 13.7046 143.989 13.854C143.834 13.998 143.693 14.1793 143.565 14.398C143.442 14.6113 143.33 14.8566 143.229 15.134V20.254H141.797V12.15H142.613C142.768 12.15 142.874 12.1793 142.933 12.238C142.992 12.2966 143.032 12.398 143.053 12.542L143.149 13.774Z" fill="black"/>
<path d="M152.298 13.486C152.234 13.6033 152.135 13.662 152.002 13.662C151.922 13.662 151.831 13.6326 151.73 13.574C151.629 13.5153 151.503 13.4513 151.354 13.382C151.21 13.3073 151.037 13.2406 150.834 13.182C150.631 13.118 150.391 13.086 150.114 13.086C149.874 13.086 149.658 13.118 149.466 13.182C149.274 13.2406 149.109 13.3233 148.97 13.43C148.837 13.5366 148.733 13.662 148.658 13.806C148.589 13.9446 148.554 14.0966 148.554 14.262C148.554 14.47 148.613 14.6433 148.73 14.782C148.853 14.9206 149.013 15.0406 149.21 15.142C149.407 15.2433 149.631 15.334 149.882 15.414C150.133 15.4886 150.389 15.5713 150.65 15.662C150.917 15.7473 151.175 15.8433 151.426 15.95C151.677 16.0566 151.901 16.19 152.098 16.35C152.295 16.51 152.453 16.7073 152.57 16.942C152.693 17.1713 152.754 17.4486 152.754 17.774C152.754 18.1473 152.687 18.494 152.554 18.814C152.421 19.1286 152.223 19.4033 151.962 19.638C151.701 19.8673 151.381 20.0486 151.002 20.182C150.623 20.3153 150.186 20.382 149.69 20.382C149.125 20.382 148.613 20.2913 148.154 20.11C147.695 19.9233 147.306 19.686 146.986 19.398L147.322 18.854C147.365 18.7846 147.415 18.7313 147.474 18.694C147.533 18.6566 147.607 18.638 147.698 18.638C147.794 18.638 147.895 18.6753 148.002 18.75C148.109 18.8246 148.237 18.9073 148.386 18.998C148.541 19.0886 148.727 19.1713 148.946 19.246C149.165 19.3206 149.437 19.358 149.762 19.358C150.039 19.358 150.282 19.3233 150.49 19.254C150.698 19.1793 150.871 19.0806 151.01 18.958C151.149 18.8353 151.25 18.694 151.314 18.534C151.383 18.374 151.418 18.2033 151.418 18.022C151.418 17.798 151.357 17.614 151.234 17.47C151.117 17.3206 150.959 17.1953 150.762 17.094C150.565 16.9873 150.338 16.8966 150.082 16.822C149.831 16.742 149.573 16.6593 149.306 16.574C149.045 16.4886 148.786 16.3926 148.53 16.286C148.279 16.174 148.055 16.0353 147.858 15.87C147.661 15.7046 147.501 15.502 147.378 15.262C147.261 15.0166 147.202 14.7206 147.202 14.374C147.202 14.0646 147.266 13.7686 147.394 13.486C147.522 13.198 147.709 12.9473 147.954 12.734C148.199 12.5153 148.501 12.342 148.858 12.214C149.215 12.086 149.623 12.022 150.082 12.022C150.615 12.022 151.093 12.1073 151.514 12.278C151.941 12.4433 152.309 12.6726 152.618 12.966L152.298 13.486Z" fill="black"/>
<path d="M160.026 13.23C160.372 12.862 160.756 12.5686 161.178 12.35C161.599 12.1313 162.084 12.022 162.634 12.022C163.076 12.022 163.466 12.0966 163.802 12.246C164.143 12.39 164.426 12.598 164.65 12.87C164.879 13.1366 165.052 13.4593 165.17 13.838C165.287 14.2166 165.346 14.6353 165.346 15.094V20.254H163.914V15.094C163.914 14.4806 163.772 14.006 163.49 13.67C163.212 13.3286 162.788 13.158 162.218 13.158C161.796 13.158 161.402 13.2593 161.034 13.462C160.671 13.6646 160.335 13.9393 160.026 14.286V20.254H158.594V8.46997H160.026V13.23Z" fill="black"/>
<path d="M171.908 16.606C171.252 16.6273 170.692 16.6806 170.228 16.766C169.769 16.846 169.393 16.9526 169.1 17.086C168.812 17.2193 168.601 17.3766 168.468 17.558C168.34 17.7393 168.276 17.942 168.276 18.166C168.276 18.3793 168.31 18.5633 168.38 18.718C168.449 18.8726 168.542 19.0006 168.66 19.102C168.782 19.198 168.924 19.27 169.084 19.318C169.249 19.3606 169.425 19.382 169.612 19.382C169.862 19.382 170.092 19.358 170.3 19.31C170.508 19.2566 170.702 19.182 170.884 19.086C171.07 18.99 171.246 18.8753 171.412 18.742C171.582 18.6086 171.748 18.4566 171.908 18.286V16.606ZM167.308 13.294C167.756 12.862 168.238 12.5393 168.756 12.326C169.273 12.1126 169.846 12.006 170.476 12.006C170.929 12.006 171.332 12.0806 171.684 12.23C172.036 12.3793 172.332 12.5873 172.572 12.854C172.812 13.1206 172.993 13.4433 173.116 13.822C173.238 14.2006 173.3 14.6166 173.3 15.07V20.254H172.668C172.529 20.254 172.422 20.2326 172.348 20.19C172.273 20.142 172.214 20.0513 172.172 19.918L172.012 19.15C171.798 19.3473 171.59 19.5233 171.388 19.678C171.185 19.8273 170.972 19.9553 170.748 20.062C170.524 20.1633 170.284 20.2406 170.028 20.294C169.777 20.3526 169.497 20.382 169.188 20.382C168.873 20.382 168.577 20.3393 168.3 20.254C168.022 20.1633 167.78 20.03 167.572 19.854C167.369 19.678 167.206 19.4566 167.084 19.19C166.966 18.918 166.908 18.598 166.908 18.23C166.908 17.91 166.996 17.6033 167.172 17.31C167.348 17.0113 167.633 16.7473 168.028 16.518C168.422 16.2886 168.937 16.102 169.572 15.958C170.206 15.8086 170.985 15.7233 171.908 15.702V15.07C171.908 14.4406 171.772 13.966 171.5 13.646C171.228 13.3206 170.83 13.158 170.308 13.158C169.956 13.158 169.66 13.2033 169.42 13.294C169.185 13.3793 168.98 13.478 168.804 13.59C168.633 13.6966 168.484 13.7953 168.356 13.886C168.233 13.9713 168.11 14.014 167.988 14.014C167.892 14.014 167.809 13.99 167.74 13.942C167.67 13.8886 167.612 13.8246 167.564 13.75L167.308 13.294Z" fill="black"/>
<path d="M180.749 14.078C180.482 13.7206 180.194 13.4726 179.885 13.334C179.575 13.19 179.229 13.118 178.845 13.118C178.093 13.118 177.514 13.3873 177.109 13.926C176.703 14.4646 176.501 15.2326 176.501 16.23C176.501 16.758 176.546 17.2113 176.637 17.59C176.727 17.9633 176.861 18.2726 177.037 18.518C177.213 18.758 177.429 18.934 177.685 19.046C177.941 19.158 178.231 19.214 178.557 19.214C179.026 19.214 179.434 19.1073 179.781 18.894C180.133 18.6806 180.455 18.3793 180.749 17.99V14.078ZM182.173 8.46997V20.254H181.325C181.122 20.254 180.994 20.1553 180.941 19.958L180.813 18.974C180.466 19.39 180.071 19.726 179.629 19.982C179.186 20.238 178.674 20.366 178.093 20.366C177.629 20.366 177.207 20.278 176.829 20.102C176.45 19.9206 176.127 19.6566 175.861 19.31C175.594 18.9633 175.389 18.5313 175.245 18.014C175.101 17.4966 175.029 16.902 175.029 16.23C175.029 15.6326 175.109 15.078 175.269 14.566C175.429 14.0486 175.658 13.6006 175.957 13.222C176.255 12.8433 176.621 12.5473 177.053 12.334C177.49 12.1153 177.981 12.006 178.525 12.006C179.021 12.006 179.445 12.0913 179.797 12.262C180.154 12.4273 180.471 12.6593 180.749 12.958V8.46997H182.173Z" fill="black"/>
<path d="M189.86 13.326C190.036 13.1286 190.222 12.95 190.42 12.79C190.617 12.63 190.825 12.494 191.044 12.382C191.268 12.2646 191.502 12.1766 191.748 12.118C191.998 12.054 192.268 12.022 192.556 12.022C192.998 12.022 193.388 12.0966 193.724 12.246C194.065 12.39 194.348 12.598 194.572 12.87C194.801 13.1366 194.974 13.4593 195.092 13.838C195.209 14.2166 195.268 14.6353 195.268 15.094V20.254H193.836V15.094C193.836 14.4806 193.694 14.006 193.412 13.67C193.134 13.3286 192.71 13.158 192.14 13.158C191.718 13.158 191.324 13.2593 190.956 13.462C190.593 13.6646 190.257 13.9393 189.948 14.286V20.254H188.516V12.15H189.372C189.574 12.15 189.7 12.2486 189.748 12.446L189.86 13.326Z" fill="black"/>
<path d="M202.862 15.318C202.862 14.9873 202.814 14.686 202.718 14.414C202.627 14.1366 202.491 13.8993 202.31 13.702C202.134 13.4993 201.918 13.3446 201.662 13.238C201.406 13.126 201.115 13.07 200.79 13.07C200.107 13.07 199.566 13.27 199.166 13.67C198.771 14.0646 198.526 14.614 198.43 15.318H202.862ZM204.014 19.118C203.838 19.3313 203.627 19.518 203.382 19.678C203.136 19.8326 202.872 19.9606 202.59 20.062C202.312 20.1633 202.024 20.238 201.726 20.286C201.427 20.3393 201.131 20.366 200.838 20.366C200.278 20.366 199.76 20.2726 199.286 20.086C198.816 19.894 198.408 19.6166 198.062 19.254C197.72 18.886 197.454 18.4326 197.262 17.894C197.07 17.3553 196.974 16.7366 196.974 16.038C196.974 15.4726 197.059 14.9446 197.23 14.454C197.406 13.9633 197.656 13.5393 197.982 13.182C198.307 12.8193 198.704 12.5366 199.174 12.334C199.643 12.126 200.171 12.022 200.758 12.022C201.243 12.022 201.691 12.1046 202.102 12.27C202.518 12.43 202.875 12.6646 203.174 12.974C203.478 13.278 203.715 13.6566 203.886 14.11C204.056 14.558 204.142 15.07 204.142 15.646C204.142 15.87 204.118 16.0193 204.07 16.094C204.022 16.1686 203.931 16.206 203.798 16.206H198.382C198.398 16.718 198.467 17.1633 198.59 17.542C198.718 17.9206 198.894 18.238 199.118 18.494C199.342 18.7446 199.608 18.934 199.918 19.062C200.227 19.1846 200.574 19.246 200.958 19.246C201.315 19.246 201.622 19.206 201.878 19.126C202.139 19.0406 202.363 18.95 202.55 18.854C202.736 18.758 202.891 18.67 203.014 18.59C203.142 18.5046 203.251 18.462 203.342 18.462C203.459 18.462 203.55 18.5073 203.614 18.598L204.014 19.118Z" fill="black"/>
<path d="M208.715 16.294C209.003 16.294 209.256 16.254 209.475 16.174C209.693 16.094 209.877 15.982 210.027 15.838C210.176 15.694 210.288 15.5233 210.363 15.326C210.437 15.1233 210.475 14.902 210.475 14.662C210.475 14.166 210.323 13.7713 210.019 13.478C209.72 13.1846 209.285 13.038 208.715 13.038C208.139 13.038 207.699 13.1846 207.395 13.478C207.096 13.7713 206.947 14.166 206.947 14.662C206.947 14.902 206.984 15.1233 207.059 15.326C207.139 15.5233 207.253 15.694 207.403 15.838C207.552 15.982 207.736 16.094 207.955 16.174C208.173 16.254 208.427 16.294 208.715 16.294ZM211.283 20.694C211.283 20.4966 211.227 20.3366 211.115 20.214C211.003 20.0913 210.851 19.9953 210.659 19.926C210.472 19.8566 210.253 19.8086 210.003 19.782C209.752 19.75 209.485 19.726 209.203 19.71C208.925 19.694 208.643 19.678 208.355 19.662C208.067 19.646 207.789 19.6193 207.523 19.582C207.224 19.7206 206.979 19.8966 206.787 20.11C206.6 20.318 206.507 20.5633 206.507 20.846C206.507 21.0273 206.552 21.1953 206.643 21.35C206.739 21.51 206.883 21.646 207.075 21.758C207.267 21.8753 207.507 21.966 207.795 22.03C208.088 22.0993 208.432 22.134 208.827 22.134C209.211 22.134 209.555 22.0993 209.859 22.03C210.163 21.9606 210.419 21.862 210.627 21.734C210.84 21.606 211.003 21.454 211.115 21.278C211.227 21.102 211.283 20.9073 211.283 20.694ZM212.731 12.47V12.998C212.731 13.174 212.619 13.286 212.395 13.334L211.475 13.454C211.656 13.806 211.747 14.1953 211.747 14.622C211.747 15.0166 211.669 15.3766 211.515 15.702C211.365 16.022 211.157 16.2966 210.891 16.526C210.624 16.7553 210.304 16.9313 209.931 17.054C209.557 17.1766 209.152 17.238 208.715 17.238C208.336 17.238 207.979 17.1926 207.643 17.102C207.472 17.2086 207.341 17.3233 207.251 17.446C207.16 17.5633 207.115 17.6833 207.115 17.806C207.115 17.998 207.192 18.1446 207.347 18.246C207.507 18.342 207.715 18.4113 207.971 18.454C208.227 18.4966 208.517 18.5233 208.843 18.534C209.173 18.5446 209.509 18.5633 209.851 18.59C210.197 18.6113 210.533 18.6513 210.859 18.71C211.189 18.7686 211.483 18.8646 211.739 18.998C211.995 19.1313 212.2 19.3153 212.355 19.55C212.515 19.7846 212.595 20.0886 212.595 20.462C212.595 20.8086 212.507 21.1446 212.331 21.47C212.16 21.7953 211.912 22.0833 211.587 22.334C211.261 22.59 210.861 22.7926 210.387 22.942C209.917 23.0966 209.387 23.174 208.795 23.174C208.203 23.174 207.685 23.1153 207.243 22.998C206.8 22.8806 206.432 22.7233 206.139 22.526C205.845 22.3286 205.624 22.0993 205.475 21.838C205.331 21.582 205.259 21.3126 205.259 21.03C205.259 20.63 205.384 20.2913 205.635 20.014C205.885 19.7366 206.229 19.5153 206.667 19.35C206.427 19.2433 206.235 19.102 206.091 18.926C205.952 18.7446 205.883 18.502 205.883 18.198C205.883 18.0806 205.904 17.9606 205.947 17.838C205.989 17.71 206.053 17.5846 206.139 17.462C206.229 17.334 206.339 17.214 206.467 17.102C206.595 16.99 206.744 16.8913 206.915 16.806C206.515 16.582 206.203 16.286 205.979 15.918C205.755 15.5446 205.643 15.1126 205.643 14.622C205.643 14.2273 205.717 13.87 205.867 13.55C206.021 13.2246 206.235 12.95 206.507 12.726C206.779 12.4966 207.101 12.3206 207.475 12.198C207.853 12.0753 208.267 12.014 208.715 12.014C209.067 12.014 209.395 12.054 209.699 12.134C210.003 12.2086 210.28 12.3206 210.531 12.47H212.731Z" fill="black"/>
<path d="M218.595 16.606C217.939 16.6273 217.379 16.6806 216.915 16.766C216.456 16.846 216.08 16.9526 215.787 17.086C215.499 17.2193 215.288 17.3766 215.155 17.558C215.027 17.7393 214.963 17.942 214.963 18.166C214.963 18.3793 214.998 18.5633 215.067 18.718C215.136 18.8726 215.23 19.0006 215.347 19.102C215.47 19.198 215.611 19.27 215.771 19.318C215.936 19.3606 216.112 19.382 216.299 19.382C216.55 19.382 216.779 19.358 216.987 19.31C217.195 19.2566 217.39 19.182 217.571 19.086C217.758 18.99 217.934 18.8753 218.099 18.742C218.27 18.6086 218.435 18.4566 218.595 18.286V16.606ZM213.995 13.294C214.443 12.862 214.926 12.5393 215.443 12.326C215.96 12.1126 216.534 12.006 217.163 12.006C217.616 12.006 218.019 12.0806 218.371 12.23C218.723 12.3793 219.019 12.5873 219.259 12.854C219.499 13.1206 219.68 13.4433 219.803 13.822C219.926 14.2006 219.987 14.6166 219.987 15.07V20.254H219.355C219.216 20.254 219.11 20.2326 219.035 20.19C218.96 20.142 218.902 20.0513 218.859 19.918L218.699 19.15C218.486 19.3473 218.278 19.5233 218.075 19.678C217.872 19.8273 217.659 19.9553 217.435 20.062C217.211 20.1633 216.971 20.2406 216.715 20.294C216.464 20.3526 216.184 20.382 215.875 20.382C215.56 20.382 215.264 20.3393 214.987 20.254C214.71 20.1633 214.467 20.03 214.259 19.854C214.056 19.678 213.894 19.4566 213.771 19.19C213.654 18.918 213.595 18.598 213.595 18.23C213.595 17.91 213.683 17.6033 213.859 17.31C214.035 17.0113 214.32 16.7473 214.715 16.518C215.11 16.2886 215.624 16.102 216.259 15.958C216.894 15.8086 217.672 15.7233 218.595 15.702V15.07C218.595 14.4406 218.459 13.966 218.187 13.646C217.915 13.3206 217.518 13.158 216.995 13.158C216.643 13.158 216.347 13.2033 216.107 13.294C215.872 13.3793 215.667 13.478 215.491 13.59C215.32 13.6966 215.171 13.7953 215.043 13.886C214.92 13.9713 214.798 14.014 214.675 14.014C214.579 14.014 214.496 13.99 214.427 13.942C214.358 13.8886 214.299 13.8246 214.251 13.75L213.995 13.294Z" fill="black"/>
<path d="M229.567 20.254H228.143V13.342H223.967V18.206C223.967 18.5473 224.05 18.8006 224.215 18.966C224.38 19.1313 224.594 19.214 224.855 19.214C225.004 19.214 225.132 19.1953 225.239 19.158C225.351 19.1153 225.447 19.07 225.527 19.022C225.607 18.974 225.674 18.9313 225.727 18.894C225.786 18.8513 225.836 18.83 225.879 18.83C225.954 18.83 226.02 18.8753 226.079 18.966L226.495 19.646C226.25 19.8753 225.954 20.0566 225.607 20.19C225.26 20.318 224.903 20.382 224.535 20.382C223.895 20.382 223.402 20.2033 223.055 19.846C222.714 19.4886 222.543 18.974 222.543 18.302V13.342H221.567C221.482 13.342 221.41 13.318 221.351 13.27C221.292 13.2166 221.263 13.1366 221.263 13.03V12.462L222.591 12.286L222.919 9.78997C222.935 9.70997 222.97 9.64597 223.023 9.59797C223.082 9.54464 223.156 9.51797 223.247 9.51797H223.967V12.31H229.567V20.254ZM229.919 9.54997C229.919 9.68864 229.89 9.8193 229.831 9.94197C229.778 10.0593 229.703 10.1633 229.607 10.254C229.516 10.3446 229.41 10.4166 229.287 10.47C229.164 10.5233 229.034 10.55 228.895 10.55C228.756 10.55 228.626 10.5233 228.503 10.47C228.386 10.4166 228.282 10.3446 228.191 10.254C228.1 10.1633 228.028 10.0593 227.975 9.94197C227.922 9.8193 227.895 9.68864 227.895 9.54997C227.895 9.4113 227.922 9.28064 227.975 9.15797C228.028 9.02997 228.1 8.92064 228.191 8.82997C228.282 8.73397 228.386 8.6593 228.503 8.60597C228.626 8.55264 228.756 8.52597 228.895 8.52597C229.034 8.52597 229.164 8.55264 229.287 8.60597C229.41 8.6593 229.516 8.73397 229.607 8.82997C229.703 8.92064 229.778 9.02997 229.831 9.15797C229.89 9.28064 229.919 9.4113 229.919 9.54997Z" fill="black"/>
<path d="M238.85 12.15L235.546 20.254H234.266L230.962 12.15H232.122C232.24 12.15 232.336 12.1793 232.41 12.238C232.485 12.2966 232.536 12.366 232.562 12.446L234.618 17.662C234.682 17.8593 234.738 18.0513 234.786 18.238C234.834 18.4246 234.88 18.6113 234.922 18.798C234.965 18.6113 235.01 18.4246 235.058 18.238C235.106 18.0513 235.165 17.8593 235.234 17.662L237.314 12.446C237.346 12.3606 237.4 12.2913 237.474 12.238C237.549 12.1793 237.637 12.15 237.738 12.15H238.85Z" fill="black"/>
<path d="M245.362 15.318C245.362 14.9873 245.314 14.686 245.218 14.414C245.127 14.1366 244.991 13.8993 244.81 13.702C244.634 13.4993 244.418 13.3446 244.162 13.238C243.906 13.126 243.615 13.07 243.29 13.07C242.607 13.07 242.066 13.27 241.666 13.67C241.271 14.0646 241.026 14.614 240.93 15.318H245.362ZM246.514 19.118C246.338 19.3313 246.127 19.518 245.882 19.678C245.636 19.8326 245.372 19.9606 245.09 20.062C244.812 20.1633 244.524 20.238 244.226 20.286C243.927 20.3393 243.631 20.366 243.338 20.366C242.778 20.366 242.26 20.2726 241.786 20.086C241.316 19.894 240.908 19.6166 240.562 19.254C240.22 18.886 239.954 18.4326 239.762 17.894C239.57 17.3553 239.474 16.7366 239.474 16.038C239.474 15.4726 239.559 14.9446 239.73 14.454C239.906 13.9633 240.156 13.5393 240.482 13.182C240.807 12.8193 241.204 12.5366 241.674 12.334C242.143 12.126 242.671 12.022 243.258 12.022C243.743 12.022 244.191 12.1046 244.602 12.27C245.018 12.43 245.375 12.6646 245.674 12.974C245.978 13.278 246.215 13.6566 246.386 14.11C246.556 14.558 246.642 15.07 246.642 15.646C246.642 15.87 246.618 16.0193 246.57 16.094C246.522 16.1686 246.431 16.206 246.298 16.206H240.882C240.898 16.718 240.967 17.1633 241.09 17.542C241.218 17.9206 241.394 18.238 241.618 18.494C241.842 18.7446 242.108 18.934 242.418 19.062C242.727 19.1846 243.074 19.246 243.458 19.246C243.815 19.246 244.122 19.206 244.378 19.126C244.639 19.0406 244.863 18.95 245.05 18.854C245.236 18.758 245.391 18.67 245.514 18.59C245.642 18.5046 245.751 18.462 245.842 18.462C245.959 18.462 246.05 18.5073 246.114 18.598L246.514 19.118Z" fill="black"/>
<path d="M257.908 15.318C257.908 14.9873 257.86 14.686 257.764 14.414C257.674 14.1366 257.538 13.8993 257.356 13.702C257.18 13.4993 256.964 13.3446 256.708 13.238C256.452 13.126 256.162 13.07 255.836 13.07C255.154 13.07 254.612 13.27 254.212 13.67C253.818 14.0646 253.572 14.614 253.476 15.318H257.908ZM259.06 19.118C258.884 19.3313 258.674 19.518 258.428 19.678C258.183 19.8326 257.919 19.9606 257.636 20.062C257.359 20.1633 257.071 20.238 256.772 20.286C256.474 20.3393 256.178 20.366 255.884 20.366C255.324 20.366 254.807 20.2726 254.332 20.086C253.863 19.894 253.455 19.6166 253.108 19.254C252.767 18.886 252.5 18.4326 252.308 17.894C252.116 17.3553 252.02 16.7366 252.02 16.038C252.02 15.4726 252.106 14.9446 252.276 14.454C252.452 13.9633 252.703 13.5393 253.028 13.182C253.354 12.8193 253.751 12.5366 254.22 12.334C254.69 12.126 255.218 12.022 255.804 12.022C256.29 12.022 256.738 12.1046 257.148 12.27C257.564 12.43 257.922 12.6646 258.22 12.974C258.524 13.278 258.762 13.6566 258.932 14.11C259.103 14.558 259.188 15.07 259.188 15.646C259.188 15.87 259.164 16.0193 259.116 16.094C259.068 16.1686 258.978 16.206 258.844 16.206H253.428C253.444 16.718 253.514 17.1633 253.636 17.542C253.764 17.9206 253.94 18.238 254.164 18.494C254.388 18.7446 254.655 18.934 254.964 19.062C255.274 19.1846 255.62 19.246 256.004 19.246C256.362 19.246 256.668 19.206 256.924 19.126C257.186 19.0406 257.41 18.95 257.596 18.854C257.783 18.758 257.938 18.67 258.06 18.59C258.188 18.5046 258.298 18.462 258.388 18.462C258.506 18.462 258.596 18.5073 258.66 18.598L259.06 19.118Z" fill="black"/>
<path d="M261.387 20.254V13.366L260.491 13.262C260.379 13.2353 260.286 13.1953 260.211 13.142C260.142 13.0833 260.107 13.0006 260.107 12.894V12.31H261.387V11.646C261.387 11.182 261.451 10.7713 261.579 10.414C261.713 10.0513 261.899 9.7473 262.139 9.50197C262.385 9.2513 262.678 9.06197 263.019 8.93397C263.361 8.80597 263.745 8.74197 264.171 8.74197C264.534 8.74197 264.867 8.7953 265.171 8.90197L265.139 9.62197C265.129 9.74997 265.057 9.8193 264.923 9.82997C264.795 9.84064 264.622 9.84597 264.403 9.84597C264.158 9.84597 263.934 9.87797 263.731 9.94197C263.534 10.0006 263.363 10.102 263.219 10.246C263.075 10.39 262.963 10.582 262.883 10.822C262.809 11.0566 262.771 11.3473 262.771 11.694V12.31H266.427V11.438C266.427 10.974 266.491 10.5633 266.619 10.206C266.753 9.8433 266.939 9.5393 267.179 9.29397C267.425 9.0433 267.718 8.85397 268.059 8.72597C268.401 8.59797 268.785 8.53397 269.211 8.53397C269.569 8.53397 269.902 8.5873 270.211 8.69397L270.179 9.40597C270.169 9.53397 270.097 9.6033 269.963 9.61397C269.835 9.62464 269.662 9.62997 269.443 9.62997C269.198 9.62997 268.974 9.66197 268.771 9.72597C268.574 9.78997 268.403 9.89397 268.259 10.038C268.115 10.182 268.003 10.3713 267.923 10.606C267.849 10.8406 267.811 11.1313 267.811 11.478V12.31H270.147V13.342H267.859V20.254H266.427V13.342H262.819V20.254H261.387Z" fill="black"/>
<path d="M276.658 15.318C276.658 14.9873 276.61 14.686 276.514 14.414C276.424 14.1366 276.288 13.8993 276.106 13.702C275.93 13.4993 275.714 13.3446 275.458 13.238C275.202 13.126 274.912 13.07 274.586 13.07C273.904 13.07 273.362 13.27 272.962 13.67C272.568 14.0646 272.322 14.614 272.226 15.318H276.658ZM277.81 19.118C277.634 19.3313 277.424 19.518 277.178 19.678C276.933 19.8326 276.669 19.9606 276.386 20.062C276.109 20.1633 275.821 20.238 275.522 20.286C275.224 20.3393 274.928 20.366 274.634 20.366C274.074 20.366 273.557 20.2726 273.082 20.086C272.613 19.894 272.205 19.6166 271.858 19.254C271.517 18.886 271.25 18.4326 271.058 17.894C270.866 17.3553 270.77 16.7366 270.77 16.038C270.77 15.4726 270.856 14.9446 271.026 14.454C271.202 13.9633 271.453 13.5393 271.778 13.182C272.104 12.8193 272.501 12.5366 272.97 12.334C273.44 12.126 273.968 12.022 274.554 12.022C275.04 12.022 275.488 12.1046 275.898 12.27C276.314 12.43 276.672 12.6646 276.97 12.974C277.274 13.278 277.512 13.6566 277.682 14.11C277.853 14.558 277.938 15.07 277.938 15.646C277.938 15.87 277.914 16.0193 277.866 16.094C277.818 16.1686 277.728 16.206 277.594 16.206H272.178C272.194 16.718 272.264 17.1633 272.386 17.542C272.514 17.9206 272.69 18.238 272.914 18.494C273.138 18.7446 273.405 18.934 273.714 19.062C274.024 19.1846 274.37 19.246 274.754 19.246C275.112 19.246 275.418 19.206 275.674 19.126C275.936 19.0406 276.16 18.95 276.346 18.854C276.533 18.758 276.688 18.67 276.81 18.59C276.938 18.5046 277.048 18.462 277.138 18.462C277.256 18.462 277.346 18.5073 277.41 18.598L277.81 19.118Z" fill="black"/>
<path d="M285.328 13.59C285.285 13.6486 285.242 13.694 285.2 13.726C285.157 13.758 285.098 13.774 285.024 13.774C284.944 13.774 284.856 13.742 284.76 13.678C284.664 13.6086 284.544 13.534 284.4 13.454C284.261 13.374 284.088 13.302 283.88 13.238C283.677 13.1686 283.426 13.134 283.128 13.134C282.728 13.134 282.376 13.206 282.072 13.35C281.768 13.4886 281.512 13.6913 281.304 13.958C281.101 14.2246 280.946 14.5473 280.84 14.926C280.738 15.3046 280.688 15.7286 280.688 16.198C280.688 16.6886 280.744 17.126 280.856 17.51C280.968 17.8886 281.125 18.2086 281.328 18.47C281.536 18.726 281.784 18.9233 282.072 19.062C282.365 19.1953 282.693 19.262 283.056 19.262C283.402 19.262 283.688 19.222 283.912 19.142C284.136 19.0566 284.32 18.9633 284.464 18.862C284.613 18.7606 284.736 18.67 284.832 18.59C284.933 18.5046 285.032 18.462 285.128 18.462C285.245 18.462 285.336 18.5073 285.4 18.598L285.8 19.118C285.624 19.3366 285.424 19.5233 285.2 19.678C284.976 19.8326 284.733 19.9633 284.472 20.07C284.216 20.1713 283.946 20.246 283.664 20.294C283.381 20.342 283.093 20.366 282.8 20.366C282.293 20.366 281.821 20.2726 281.384 20.086C280.952 19.8993 280.576 19.63 280.256 19.278C279.936 18.9206 279.685 18.4833 279.504 17.966C279.322 17.4486 279.232 16.8593 279.232 16.198C279.232 15.5953 279.314 15.038 279.48 14.526C279.65 14.014 279.896 13.574 280.216 13.206C280.541 12.8326 280.938 12.542 281.408 12.334C281.882 12.126 282.426 12.022 283.04 12.022C283.61 12.022 284.112 12.1153 284.544 12.302C284.981 12.4833 285.368 12.742 285.704 13.078L285.328 13.59Z" fill="black"/>
<path d="M289.816 20.382C289.176 20.382 288.683 20.2033 288.336 19.846C287.995 19.4886 287.824 18.974 287.824 18.302V13.342H286.848C286.763 13.342 286.691 13.318 286.632 13.27C286.573 13.2166 286.544 13.1366 286.544 13.03V12.462L287.872 12.294L288.2 9.78997C288.216 9.70997 288.251 9.64597 288.304 9.59797C288.363 9.54464 288.437 9.51797 288.528 9.51797H289.248V12.31H291.592V13.342H289.248V18.206C289.248 18.5473 289.331 18.8006 289.496 18.966C289.661 19.1313 289.875 19.214 290.136 19.214C290.285 19.214 290.413 19.1953 290.52 19.158C290.632 19.1153 290.728 19.07 290.808 19.022C290.888 18.974 290.955 18.9313 291.008 18.894C291.067 18.8513 291.117 18.83 291.16 18.83C291.235 18.83 291.301 18.8753 291.36 18.966L291.776 19.646C291.531 19.8753 291.235 20.0566 290.888 20.19C290.541 20.318 290.184 20.382 289.816 20.382Z" fill="black"/>
<path d="M297.783 13.486C297.719 13.6033 297.62 13.662 297.487 13.662C297.407 13.662 297.316 13.6326 297.215 13.574C297.113 13.5153 296.988 13.4513 296.839 13.382C296.695 13.3073 296.521 13.2406 296.319 13.182C296.116 13.118 295.876 13.086 295.599 13.086C295.359 13.086 295.143 13.118 294.951 13.182C294.759 13.2406 294.593 13.3233 294.455 13.43C294.321 13.5366 294.217 13.662 294.143 13.806C294.073 13.9446 294.039 14.0966 294.039 14.262C294.039 14.47 294.097 14.6433 294.215 14.782C294.337 14.9206 294.497 15.0406 294.695 15.142C294.892 15.2433 295.116 15.334 295.367 15.414C295.617 15.4886 295.873 15.5713 296.135 15.662C296.401 15.7473 296.66 15.8433 296.911 15.95C297.161 16.0566 297.385 16.19 297.583 16.35C297.78 16.51 297.937 16.7073 298.055 16.942C298.177 17.1713 298.239 17.4486 298.239 17.774C298.239 18.1473 298.172 18.494 298.039 18.814C297.905 19.1286 297.708 19.4033 297.447 19.638C297.185 19.8673 296.865 20.0486 296.487 20.182C296.108 20.3153 295.671 20.382 295.175 20.382C294.609 20.382 294.097 20.2913 293.639 20.11C293.18 19.9233 292.791 19.686 292.471 19.398L292.807 18.854C292.849 18.7846 292.9 18.7313 292.959 18.694C293.017 18.6566 293.092 18.638 293.183 18.638C293.279 18.638 293.38 18.6753 293.487 18.75C293.593 18.8246 293.721 18.9073 293.871 18.998C294.025 19.0886 294.212 19.1713 294.431 19.246C294.649 19.3206 294.921 19.358 295.247 19.358C295.524 19.358 295.767 19.3233 295.975 19.254C296.183 19.1793 296.356 19.0806 296.495 18.958C296.633 18.8353 296.735 18.694 296.799 18.534C296.868 18.374 296.903 18.2033 296.903 18.022C296.903 17.798 296.841 17.614 296.719 17.47C296.601 17.3206 296.444 17.1953 296.247 17.094C296.049 16.9873 295.823 16.8966 295.567 16.822C295.316 16.742 295.057 16.6593 294.791 16.574C294.529 16.4886 294.271 16.3926 294.015 16.286C293.764 16.174 293.54 16.0353 293.343 15.87C293.145 15.7046 292.985 15.502 292.863 15.262C292.745 15.0166 292.687 14.7206 292.687 14.374C292.687 14.0646 292.751 13.7686 292.879 13.486C293.007 13.198 293.193 12.9473 293.439 12.734C293.684 12.5153 293.985 12.342 294.343 12.214C294.7 12.086 295.108 12.022 295.567 12.022C296.1 12.022 296.577 12.1073 296.999 12.278C297.425 12.4433 297.793 12.6726 298.103 12.966L297.783 13.486Z" fill="black"/>
<path d="M304.606 20.254V13.366L303.71 13.262C303.598 13.2353 303.505 13.1953 303.43 13.142C303.361 13.0833 303.326 13.0006 303.326 12.894V12.31H304.606V11.526C304.606 11.062 304.67 10.6513 304.798 10.294C304.931 9.9313 305.118 9.6273 305.358 9.38197C305.603 9.1313 305.897 8.94197 306.238 8.81397C306.579 8.68597 306.963 8.62197 307.39 8.62197C307.753 8.62197 308.086 8.6753 308.39 8.78197L308.358 9.49397C308.347 9.62197 308.275 9.6913 308.142 9.70197C308.014 9.71264 307.841 9.71797 307.622 9.71797C307.377 9.71797 307.153 9.74997 306.95 9.81397C306.753 9.87797 306.582 9.98197 306.438 10.126C306.294 10.27 306.182 10.4593 306.102 10.694C306.027 10.9286 305.99 11.2193 305.99 11.566V12.31H308.326V13.342H306.038V20.254H304.606Z" fill="black"/>
<path d="M311.04 13.774C311.296 13.2193 311.61 12.7873 311.984 12.478C312.357 12.1633 312.813 12.006 313.352 12.006C313.522 12.006 313.685 12.0246 313.84 12.062C314 12.0993 314.141 12.158 314.264 12.238L314.16 13.302C314.128 13.4353 314.048 13.502 313.92 13.502C313.845 13.502 313.736 13.486 313.592 13.454C313.448 13.422 313.285 13.406 313.104 13.406C312.848 13.406 312.618 13.4433 312.416 13.518C312.218 13.5926 312.04 13.7046 311.88 13.854C311.725 13.998 311.584 14.1793 311.456 14.398C311.333 14.6113 311.221 14.8566 311.12 15.134V20.254H309.688V12.15H310.504C310.658 12.15 310.765 12.1793 310.824 12.238C310.882 12.2966 310.922 12.398 310.944 12.542L311.04 13.774Z" fill="black"/>
<path d="M318.604 12.022C319.196 12.022 319.729 12.1206 320.204 12.318C320.678 12.5153 321.084 12.7953 321.42 13.158C321.756 13.5206 322.012 13.9606 322.188 14.478C322.369 14.99 322.46 15.5633 322.46 16.198C322.46 16.838 322.369 17.414 322.188 17.926C322.012 18.438 321.756 18.8753 321.42 19.238C321.084 19.6006 320.678 19.8806 320.204 20.078C319.729 20.27 319.196 20.366 318.604 20.366C318.006 20.366 317.468 20.27 316.988 20.078C316.513 19.8806 316.108 19.6006 315.772 19.238C315.436 18.8753 315.177 18.438 314.996 17.926C314.82 17.414 314.732 16.838 314.732 16.198C314.732 15.5633 314.82 14.99 314.996 14.478C315.177 13.9606 315.436 13.5206 315.772 13.158C316.108 12.7953 316.513 12.5153 316.988 12.318C317.468 12.1206 318.006 12.022 318.604 12.022ZM318.604 19.254C319.404 19.254 320.001 18.9873 320.396 18.454C320.79 17.9153 320.988 17.166 320.988 16.206C320.988 15.2406 320.79 14.4886 320.396 13.95C320.001 13.4113 319.404 13.142 318.604 13.142C318.198 13.142 317.844 13.2113 317.54 13.35C317.241 13.4886 316.99 13.6886 316.788 13.95C316.59 14.2113 316.441 14.534 316.34 14.918C316.244 15.2966 316.196 15.726 316.196 16.206C316.196 17.166 316.393 17.9153 316.788 18.454C317.188 18.9873 317.793 19.254 318.604 19.254Z" fill="black"/>
<path d="M324.266 20.254V12.15H325.122C325.324 12.15 325.45 12.2486 325.498 12.446L325.602 13.278C325.9 12.91 326.236 12.6086 326.61 12.374C326.983 12.1393 327.415 12.022 327.906 12.022C328.45 12.022 328.89 12.174 329.226 12.478C329.567 12.782 329.812 13.1926 329.962 13.71C330.079 13.4166 330.228 13.1633 330.41 12.95C330.596 12.7366 330.804 12.5606 331.034 12.422C331.263 12.2833 331.506 12.182 331.762 12.118C332.023 12.054 332.287 12.022 332.554 12.022C332.98 12.022 333.359 12.0913 333.69 12.23C334.026 12.3633 334.308 12.5606 334.538 12.822C334.772 13.0833 334.951 13.406 335.074 13.79C335.196 14.1686 335.258 14.6033 335.258 15.094V20.254H333.826V15.094C333.826 14.4593 333.687 13.9793 333.41 13.654C333.132 13.3233 332.732 13.158 332.21 13.158C331.975 13.158 331.751 13.2006 331.538 13.286C331.33 13.366 331.146 13.486 330.986 13.646C330.826 13.806 330.698 14.0086 330.602 14.254C330.511 14.494 330.466 14.774 330.466 15.094V20.254H329.034V15.094C329.034 14.4433 328.903 13.958 328.642 13.638C328.38 13.318 327.999 13.158 327.498 13.158C327.146 13.158 326.82 13.254 326.522 13.446C326.223 13.6326 325.948 13.8886 325.698 14.214V20.254H324.266Z" fill="black"/>
<path d="M342.948 18.302C343.209 18.654 343.494 18.902 343.804 19.046C344.118 19.19 344.462 19.262 344.836 19.262C345.598 19.262 346.182 18.9926 346.588 18.454C346.993 17.9153 347.196 17.1126 347.196 16.046C347.196 15.054 347.014 14.326 346.652 13.862C346.294 13.3926 345.782 13.158 345.116 13.158C344.652 13.158 344.246 13.2646 343.9 13.478C343.558 13.6913 343.241 13.9926 342.948 14.382V18.302ZM342.948 13.318C343.289 12.9233 343.673 12.6086 344.1 12.374C344.532 12.1393 345.028 12.022 345.588 12.022C346.062 12.022 346.489 12.1126 346.868 12.294C347.252 12.4753 347.577 12.7393 347.844 13.086C348.11 13.4273 348.313 13.8433 348.452 14.334C348.596 14.8246 348.668 15.3766 348.668 15.99C348.668 16.646 348.588 17.2433 348.428 17.782C348.268 18.3206 348.036 18.782 347.732 19.166C347.433 19.5446 347.068 19.8406 346.636 20.054C346.204 20.262 345.718 20.366 345.18 20.366C344.646 20.366 344.196 20.2673 343.828 20.07C343.465 19.8673 343.148 19.582 342.876 19.214L342.804 19.95C342.761 20.1526 342.638 20.254 342.436 20.254H341.516V8.46997H342.948V13.318Z" fill="black"/>
<path d="M355.893 15.318C355.893 14.9873 355.845 14.686 355.749 14.414C355.658 14.1366 355.522 13.8993 355.341 13.702C355.165 13.4993 354.949 13.3446 354.693 13.238C354.437 13.126 354.146 13.07 353.821 13.07C353.138 13.07 352.597 13.27 352.197 13.67C351.802 14.0646 351.557 14.614 351.461 15.318H355.893ZM357.045 19.118C356.869 19.3313 356.658 19.518 356.413 19.678C356.167 19.8326 355.903 19.9606 355.621 20.062C355.343 20.1633 355.055 20.238 354.757 20.286C354.458 20.3393 354.162 20.366 353.869 20.366C353.309 20.366 352.791 20.2726 352.317 20.086C351.847 19.894 351.439 19.6166 351.093 19.254C350.751 18.886 350.485 18.4326 350.293 17.894C350.101 17.3553 350.005 16.7366 350.005 16.038C350.005 15.4726 350.09 14.9446 350.261 14.454C350.437 13.9633 350.687 13.5393 351.013 13.182C351.338 12.8193 351.735 12.5366 352.205 12.334C352.674 12.126 353.202 12.022 353.789 12.022C354.274 12.022 354.722 12.1046 355.133 12.27C355.549 12.43 355.906 12.6646 356.205 12.974C356.509 13.278 356.746 13.6566 356.917 14.11C357.087 14.558 357.173 15.07 357.173 15.646C357.173 15.87 357.149 16.0193 357.101 16.094C357.053 16.1686 356.962 16.206 356.829 16.206H351.413C351.429 16.718 351.498 17.1633 351.621 17.542C351.749 17.9206 351.925 18.238 352.149 18.494C352.373 18.7446 352.639 18.934 352.949 19.062C353.258 19.1846 353.605 19.246 353.989 19.246C354.346 19.246 354.653 19.206 354.909 19.126C355.17 19.0406 355.394 18.95 355.581 18.854C355.767 18.758 355.922 18.67 356.045 18.59C356.173 18.5046 356.282 18.462 356.373 18.462C356.49 18.462 356.581 18.5073 356.645 18.598L357.045 19.118Z" fill="black"/>
<path d="M360.426 12.15V20.254H359.002V12.15H360.426ZM360.73 9.60597C360.73 9.74464 360.701 9.8753 360.642 9.99797C360.589 10.1153 360.514 10.222 360.418 10.318C360.327 10.4086 360.218 10.4806 360.09 10.534C359.967 10.5873 359.837 10.614 359.698 10.614C359.559 10.614 359.429 10.5873 359.306 10.534C359.189 10.4806 359.085 10.4086 358.994 10.318C358.903 10.222 358.831 10.1153 358.778 9.99797C358.725 9.8753 358.698 9.74464 358.698 9.60597C358.698 9.4673 358.725 9.33664 358.778 9.21397C358.831 9.08597 358.903 8.97664 358.994 8.88597C359.085 8.78997 359.189 8.7153 359.306 8.66197C359.429 8.60864 359.559 8.58197 359.698 8.58197C359.837 8.58197 359.967 8.60864 360.09 8.66197C360.218 8.7153 360.327 8.78997 360.418 8.88597C360.514 8.97664 360.589 9.08597 360.642 9.21397C360.701 9.33664 360.73 9.4673 360.73 9.60597Z" fill="black"/>
<path d="M364.11 13.326C364.286 13.1286 364.472 12.95 364.67 12.79C364.867 12.63 365.075 12.494 365.294 12.382C365.518 12.2646 365.752 12.1766 365.998 12.118C366.248 12.054 366.518 12.022 366.806 12.022C367.248 12.022 367.638 12.0966 367.974 12.246C368.315 12.39 368.598 12.598 368.822 12.87C369.051 13.1366 369.224 13.4593 369.342 13.838C369.459 14.2166 369.518 14.6353 369.518 15.094V20.254H368.086V15.094C368.086 14.4806 367.944 14.006 367.662 13.67C367.384 13.3286 366.96 13.158 366.39 13.158C365.968 13.158 365.574 13.2593 365.206 13.462C364.843 13.6646 364.507 13.9393 364.198 14.286V20.254H362.766V12.15H363.622C363.824 12.15 363.95 12.2486 363.998 12.446L364.11 13.326Z" fill="black"/>
<path d="M374.512 16.294C374.8 16.294 375.053 16.254 375.272 16.174C375.49 16.094 375.674 15.982 375.824 15.838C375.973 15.694 376.085 15.5233 376.16 15.326C376.234 15.1233 376.272 14.902 376.272 14.662C376.272 14.166 376.12 13.7713 375.816 13.478C375.517 13.1846 375.082 13.038 374.512 13.038C373.936 13.038 373.495 13.1846 373.191 13.478C372.893 13.7713 372.743 14.166 372.743 14.662C372.743 14.902 372.781 15.1233 372.855 15.326C372.935 15.5233 373.05 15.694 373.2 15.838C373.349 15.982 373.533 16.094 373.751 16.174C373.97 16.254 374.224 16.294 374.512 16.294ZM377.079 20.694C377.079 20.4966 377.023 20.3366 376.911 20.214C376.799 20.0913 376.648 19.9953 376.456 19.926C376.269 19.8566 376.05 19.8086 375.799 19.782C375.549 19.75 375.282 19.726 375 19.71C374.722 19.694 374.44 19.678 374.152 19.662C373.864 19.646 373.586 19.6193 373.32 19.582C373.021 19.7206 372.775 19.8966 372.583 20.11C372.397 20.318 372.303 20.5633 372.303 20.846C372.303 21.0273 372.349 21.1953 372.44 21.35C372.536 21.51 372.68 21.646 372.872 21.758C373.064 21.8753 373.304 21.966 373.592 22.03C373.885 22.0993 374.229 22.134 374.624 22.134C375.008 22.134 375.352 22.0993 375.656 22.03C375.96 21.9606 376.216 21.862 376.424 21.734C376.637 21.606 376.799 21.454 376.911 21.278C377.023 21.102 377.079 20.9073 377.079 20.694ZM378.527 12.47V12.998C378.527 13.174 378.415 13.286 378.191 13.334L377.272 13.454C377.453 13.806 377.544 14.1953 377.544 14.622C377.544 15.0166 377.466 15.3766 377.312 15.702C377.162 16.022 376.954 16.2966 376.688 16.526C376.421 16.7553 376.101 16.9313 375.728 17.054C375.354 17.1766 374.949 17.238 374.512 17.238C374.133 17.238 373.776 17.1926 373.44 17.102C373.269 17.2086 373.138 17.3233 373.048 17.446C372.957 17.5633 372.911 17.6833 372.911 17.806C372.911 17.998 372.989 18.1446 373.144 18.246C373.304 18.342 373.512 18.4113 373.768 18.454C374.024 18.4966 374.314 18.5233 374.639 18.534C374.97 18.5446 375.306 18.5633 375.648 18.59C375.994 18.6113 376.33 18.6513 376.656 18.71C376.986 18.7686 377.28 18.8646 377.536 18.998C377.792 19.1313 377.997 19.3153 378.152 19.55C378.312 19.7846 378.392 20.0886 378.392 20.462C378.392 20.8086 378.304 21.1446 378.128 21.47C377.957 21.7953 377.709 22.0833 377.384 22.334C377.058 22.59 376.658 22.7926 376.184 22.942C375.714 23.0966 375.184 23.174 374.592 23.174C374 23.174 373.482 23.1153 373.04 22.998C372.597 22.8806 372.229 22.7233 371.936 22.526C371.642 22.3286 371.421 22.0993 371.272 21.838C371.128 21.582 371.056 21.3126 371.056 21.03C371.056 20.63 371.181 20.2913 371.432 20.014C371.682 19.7366 372.026 19.5153 372.464 19.35C372.224 19.2433 372.032 19.102 371.888 18.926C371.749 18.7446 371.68 18.502 371.68 18.198C371.68 18.0806 371.701 17.9606 371.743 17.838C371.786 17.71 371.85 17.5846 371.936 17.462C372.026 17.334 372.136 17.214 372.264 17.102C372.392 16.99 372.541 16.8913 372.712 16.806C372.312 16.582 372 16.286 371.776 15.918C371.552 15.5446 371.44 15.1126 371.44 14.622C371.44 14.2273 371.514 13.87 371.664 13.55C371.818 13.2246 372.031 12.95 372.303 12.726C372.575 12.4966 372.898 12.3206 373.272 12.198C373.65 12.0753 374.064 12.014 374.512 12.014C374.864 12.014 375.192 12.054 375.496 12.134C375.8 12.2086 376.077 12.3206 376.328 12.47H378.527Z" fill="black"/>
<path d="M389.734 13.59C389.691 13.6486 389.648 13.694 389.606 13.726C389.563 13.758 389.504 13.774 389.43 13.774C389.35 13.774 389.262 13.742 389.166 13.678C389.07 13.6086 388.95 13.534 388.806 13.454C388.667 13.374 388.494 13.302 388.286 13.238C388.083 13.1686 387.832 13.134 387.534 13.134C387.134 13.134 386.782 13.206 386.478 13.35C386.174 13.4886 385.918 13.6913 385.71 13.958C385.507 14.2246 385.352 14.5473 385.246 14.926C385.144 15.3046 385.094 15.7286 385.094 16.198C385.094 16.6886 385.15 17.126 385.262 17.51C385.374 17.8886 385.531 18.2086 385.734 18.47C385.942 18.726 386.19 18.9233 386.478 19.062C386.771 19.1953 387.099 19.262 387.462 19.262C387.808 19.262 388.094 19.222 388.318 19.142C388.542 19.0566 388.726 18.9633 388.87 18.862C389.019 18.7606 389.142 18.67 389.238 18.59C389.339 18.5046 389.438 18.462 389.534 18.462C389.651 18.462 389.742 18.5073 389.806 18.598L390.206 19.118C390.03 19.3366 389.83 19.5233 389.606 19.678C389.382 19.8326 389.139 19.9633 388.878 20.07C388.622 20.1713 388.352 20.246 388.07 20.294C387.787 20.342 387.499 20.366 387.206 20.366C386.699 20.366 386.227 20.2726 385.79 20.086C385.358 19.8993 384.982 19.63 384.662 19.278C384.342 18.9206 384.091 18.4833 383.91 17.966C383.728 17.4486 383.638 16.8593 383.638 16.198C383.638 15.5953 383.72 15.038 383.886 14.526C384.056 14.014 384.302 13.574 384.622 13.206C384.947 12.8326 385.344 12.542 385.814 12.334C386.288 12.126 386.832 12.022 387.446 12.022C388.016 12.022 388.518 12.1153 388.95 12.302C389.387 12.4833 389.774 12.742 390.11 13.078L389.734 13.59Z" fill="black"/>
<path d="M395.01 12.022C395.602 12.022 396.135 12.1206 396.61 12.318C397.084 12.5153 397.49 12.7953 397.826 13.158C398.162 13.5206 398.418 13.9606 398.594 14.478C398.775 14.99 398.866 15.5633 398.866 16.198C398.866 16.838 398.775 17.414 398.594 17.926C398.418 18.438 398.162 18.8753 397.826 19.238C397.49 19.6006 397.084 19.8806 396.61 20.078C396.135 20.27 395.602 20.366 395.01 20.366C394.412 20.366 393.874 20.27 393.394 20.078C392.919 19.8806 392.514 19.6006 392.178 19.238C391.842 18.8753 391.583 18.438 391.402 17.926C391.226 17.414 391.138 16.838 391.138 16.198C391.138 15.5633 391.226 14.99 391.402 14.478C391.583 13.9606 391.842 13.5206 392.178 13.158C392.514 12.7953 392.919 12.5153 393.394 12.318C393.874 12.1206 394.412 12.022 395.01 12.022ZM395.01 19.254C395.81 19.254 396.407 18.9873 396.802 18.454C397.196 17.9153 397.394 17.166 397.394 16.206C397.394 15.2406 397.196 14.4886 396.802 13.95C396.407 13.4113 395.81 13.142 395.01 13.142C394.604 13.142 394.25 13.2113 393.946 13.35C393.647 13.4886 393.396 13.6886 393.194 13.95C392.996 14.2113 392.847 14.534 392.746 14.918C392.65 15.2966 392.602 15.726 392.602 16.206C392.602 17.166 392.799 17.9153 393.194 18.454C393.594 18.9873 394.199 19.254 395.01 19.254Z" fill="black"/>
<path d="M403.449 16.294C403.737 16.294 403.99 16.254 404.209 16.174C404.428 16.094 404.612 15.982 404.761 15.838C404.91 15.694 405.022 15.5233 405.097 15.326C405.172 15.1233 405.209 14.902 405.209 14.662C405.209 14.166 405.057 13.7713 404.753 13.478C404.454 13.1846 404.02 13.038 403.449 13.038C402.873 13.038 402.433 13.1846 402.129 13.478C401.83 13.7713 401.681 14.166 401.681 14.662C401.681 14.902 401.718 15.1233 401.793 15.326C401.873 15.5233 401.988 15.694 402.137 15.838C402.286 15.982 402.47 16.094 402.689 16.174C402.908 16.254 403.161 16.294 403.449 16.294ZM406.017 20.694C406.017 20.4966 405.961 20.3366 405.849 20.214C405.737 20.0913 405.585 19.9953 405.393 19.926C405.206 19.8566 404.988 19.8086 404.737 19.782C404.486 19.75 404.22 19.726 403.937 19.71C403.66 19.694 403.377 19.678 403.089 19.662C402.801 19.646 402.524 19.6193 402.257 19.582C401.958 19.7206 401.713 19.8966 401.521 20.11C401.334 20.318 401.241 20.5633 401.241 20.846C401.241 21.0273 401.286 21.1953 401.377 21.35C401.473 21.51 401.617 21.646 401.809 21.758C402.001 21.8753 402.241 21.966 402.529 22.03C402.822 22.0993 403.166 22.134 403.561 22.134C403.945 22.134 404.289 22.0993 404.593 22.03C404.897 21.9606 405.153 21.862 405.361 21.734C405.574 21.606 405.737 21.454 405.849 21.278C405.961 21.102 406.017 20.9073 406.017 20.694ZM407.465 12.47V12.998C407.465 13.174 407.353 13.286 407.129 13.334L406.209 13.454C406.39 13.806 406.481 14.1953 406.481 14.622C406.481 15.0166 406.404 15.3766 406.249 15.702C406.1 16.022 405.892 16.2966 405.625 16.526C405.358 16.7553 405.038 16.9313 404.665 17.054C404.292 17.1766 403.886 17.238 403.449 17.238C403.07 17.238 402.713 17.1926 402.377 17.102C402.206 17.2086 402.076 17.3233 401.985 17.446C401.894 17.5633 401.849 17.6833 401.849 17.806C401.849 17.998 401.926 18.1446 402.081 18.246C402.241 18.342 402.449 18.4113 402.705 18.454C402.961 18.4966 403.252 18.5233 403.577 18.534C403.908 18.5446 404.244 18.5633 404.585 18.59C404.932 18.6113 405.268 18.6513 405.593 18.71C405.924 18.7686 406.217 18.8646 406.473 18.998C406.729 19.1313 406.934 19.3153 407.089 19.55C407.249 19.7846 407.329 20.0886 407.329 20.462C407.329 20.8086 407.241 21.1446 407.065 21.47C406.894 21.7953 406.646 22.0833 406.321 22.334C405.996 22.59 405.596 22.7926 405.121 22.942C404.652 23.0966 404.121 23.174 403.529 23.174C402.937 23.174 402.42 23.1153 401.977 22.998C401.534 22.8806 401.166 22.7233 400.873 22.526C400.58 22.3286 400.358 22.0993 400.209 21.838C400.065 21.582 399.993 21.3126 399.993 21.03C399.993 20.63 400.118 20.2913 400.369 20.014C400.62 19.7366 400.964 19.5153 401.401 19.35C401.161 19.2433 400.969 19.102 400.825 18.926C400.686 18.7446 400.617 18.502 400.617 18.198C400.617 18.0806 400.638 17.9606 400.681 17.838C400.724 17.71 400.788 17.5846 400.873 17.462C400.964 17.334 401.073 17.214 401.201 17.102C401.329 16.99 401.478 16.8913 401.649 16.806C401.249 16.582 400.937 16.286 400.713 15.918C400.489 15.5446 400.377 15.1126 400.377 14.622C400.377 14.2273 400.452 13.87 400.601 13.55C400.756 13.2246 400.969 12.95 401.241 12.726C401.513 12.4966 401.836 12.3206 402.209 12.198C402.588 12.0753 403.001 12.014 403.449 12.014C403.801 12.014 404.129 12.054 404.433 12.134C404.737 12.2086 405.014 12.3206 405.265 12.47H407.465Z" fill="black"/>
<path d="M410.281 13.326C410.457 13.1286 410.644 12.95 410.842 12.79C411.039 12.63 411.247 12.494 411.466 12.382C411.69 12.2646 411.924 12.1766 412.169 12.118C412.42 12.054 412.69 12.022 412.978 12.022C413.42 12.022 413.81 12.0966 414.146 12.246C414.487 12.39 414.769 12.598 414.993 12.87C415.223 13.1366 415.396 13.4593 415.514 13.838C415.631 14.2166 415.69 14.6353 415.69 15.094V20.254H414.258V15.094C414.258 14.4806 414.116 14.006 413.833 13.67C413.556 13.3286 413.132 13.158 412.562 13.158C412.14 13.158 411.746 13.2593 411.378 13.462C411.015 13.6646 410.679 13.9393 410.37 14.286V20.254H408.938V12.15H409.794C409.996 12.15 410.121 12.2486 410.169 12.446L410.281 13.326Z" fill="black"/>
<path d="M419.363 12.15V20.254H417.939V12.15H419.363ZM419.667 9.60597C419.667 9.74464 419.638 9.8753 419.579 9.99797C419.526 10.1153 419.451 10.222 419.355 10.318C419.265 10.4086 419.155 10.4806 419.027 10.534C418.905 10.5873 418.774 10.614 418.635 10.614C418.497 10.614 418.366 10.5873 418.243 10.534C418.126 10.4806 418.022 10.4086 417.931 10.318C417.841 10.222 417.769 10.1153 417.715 9.99797C417.662 9.8753 417.635 9.74464 417.635 9.60597C417.635 9.4673 417.662 9.33664 417.715 9.21397C417.769 9.08597 417.841 8.97664 417.931 8.88597C418.022 8.78997 418.126 8.7153 418.243 8.66197C418.366 8.60864 418.497 8.58197 418.635 8.58197C418.774 8.58197 418.905 8.60864 419.027 8.66197C419.155 8.7153 419.265 8.78997 419.355 8.88597C419.451 8.97664 419.526 9.08597 419.579 9.21397C419.638 9.33664 419.667 9.4673 419.667 9.60597Z" fill="black"/>
<path d="M429.223 20.254H427.799V13.342H423.623V18.206C423.623 18.5473 423.706 18.8006 423.871 18.966C424.036 19.1313 424.25 19.214 424.511 19.214C424.66 19.214 424.788 19.1953 424.895 19.158C425.007 19.1153 425.103 19.07 425.183 19.022C425.263 18.974 425.33 18.9313 425.383 18.894C425.442 18.8513 425.492 18.83 425.535 18.83C425.61 18.83 425.676 18.8753 425.735 18.966L426.151 19.646C425.906 19.8753 425.61 20.0566 425.263 20.19C424.916 20.318 424.559 20.382 424.191 20.382C423.551 20.382 423.058 20.2033 422.711 19.846C422.37 19.4886 422.199 18.974 422.199 18.302V13.342H421.223C421.138 13.342 421.066 13.318 421.007 13.27C420.948 13.2166 420.919 13.1366 420.919 13.03V12.462L422.247 12.286L422.575 9.78997C422.591 9.70997 422.626 9.64597 422.679 9.59797C422.738 9.54464 422.812 9.51797 422.903 9.51797H423.623V12.31H429.223V20.254ZM429.575 9.54997C429.575 9.68864 429.546 9.8193 429.487 9.94197C429.434 10.0593 429.359 10.1633 429.263 10.254C429.172 10.3446 429.066 10.4166 428.943 10.47C428.82 10.5233 428.69 10.55 428.551 10.55C428.412 10.55 428.282 10.5233 428.159 10.47C428.042 10.4166 427.938 10.3446 427.847 10.254C427.756 10.1633 427.684 10.0593 427.631 9.94197C427.578 9.8193 427.551 9.68864 427.551 9.54997C427.551 9.4113 427.578 9.28064 427.631 9.15797C427.684 9.02997 427.756 8.92064 427.847 8.82997C427.938 8.73397 428.042 8.6593 428.159 8.60597C428.282 8.55264 428.412 8.52597 428.551 8.52597C428.69 8.52597 428.82 8.55264 428.943 8.60597C429.066 8.6593 429.172 8.73397 429.263 8.82997C429.359 8.92064 429.434 9.02997 429.487 9.15797C429.546 9.28064 429.575 9.4113 429.575 9.54997Z" fill="black"/>
<path d="M438.507 12.15L435.203 20.254H433.923L430.618 12.15H431.779C431.896 12.15 431.992 12.1793 432.066 12.238C432.141 12.2966 432.192 12.366 432.219 12.446L434.275 17.662C434.339 17.8593 434.395 18.0513 434.443 18.238C434.491 18.4246 434.536 18.6113 434.579 18.798C434.621 18.6113 434.667 18.4246 434.715 18.238C434.763 18.0513 434.821 17.8593 434.891 17.662L436.971 12.446C437.003 12.3606 437.056 12.2913 437.131 12.238C437.205 12.1793 437.293 12.15 437.395 12.15H438.507Z" fill="black"/>
<path d="M445.018 15.318C445.018 14.9873 444.97 14.686 444.874 14.414C444.783 14.1366 444.647 13.8993 444.466 13.702C444.29 13.4993 444.074 13.3446 443.818 13.238C443.562 13.126 443.271 13.07 442.946 13.07C442.263 13.07 441.722 13.27 441.322 13.67C440.927 14.0646 440.682 14.614 440.586 15.318H445.018ZM446.17 19.118C445.994 19.3313 445.783 19.518 445.538 19.678C445.292 19.8326 445.028 19.9606 444.746 20.062C444.468 20.1633 444.18 20.238 443.882 20.286C443.583 20.3393 443.287 20.366 442.994 20.366C442.434 20.366 441.916 20.2726 441.442 20.086C440.972 19.894 440.564 19.6166 440.218 19.254C439.876 18.886 439.61 18.4326 439.418 17.894C439.226 17.3553 439.13 16.7366 439.13 16.038C439.13 15.4726 439.215 14.9446 439.386 14.454C439.562 13.9633 439.812 13.5393 440.138 13.182C440.463 12.8193 440.86 12.5366 441.33 12.334C441.799 12.126 442.327 12.022 442.914 12.022C443.399 12.022 443.847 12.1046 444.258 12.27C444.674 12.43 445.031 12.6646 445.33 12.974C445.634 13.278 445.871 13.6566 446.042 14.11C446.212 14.558 446.298 15.07 446.298 15.646C446.298 15.87 446.274 16.0193 446.226 16.094C446.178 16.1686 446.087 16.206 445.954 16.206H440.538C440.554 16.718 440.623 17.1633 440.746 17.542C440.874 17.9206 441.05 18.238 441.274 18.494C441.498 18.7446 441.764 18.934 442.074 19.062C442.383 19.1846 442.73 19.246 443.114 19.246C443.471 19.246 443.778 19.206 444.034 19.126C444.295 19.0406 444.519 18.95 444.706 18.854C444.892 18.758 445.047 18.67 445.17 18.59C445.298 18.5046 445.407 18.462 445.498 18.462C445.615 18.462 445.706 18.5073 445.77 18.598L446.17 19.118Z" fill="black"/>
<path d="M449.519 8.46997V20.254H448.095V8.46997H449.519Z" fill="black"/>
<path d="M458.82 12.15L454.3 22.646C454.252 22.7526 454.191 22.838 454.116 22.902C454.047 22.966 453.937 22.998 453.788 22.998H452.732L454.212 19.782L450.868 12.15H452.1C452.223 12.15 452.319 12.182 452.388 12.246C452.463 12.3046 452.513 12.3713 452.54 12.446L454.708 17.55C454.793 17.774 454.865 18.0086 454.924 18.254C454.999 18.0033 455.079 17.766 455.164 17.542L457.268 12.446C457.3 12.3606 457.353 12.2913 457.428 12.238C457.508 12.1793 457.596 12.15 457.692 12.15H458.82Z" fill="black"/>
<path d="M467.197 12.022C467.789 12.022 468.323 12.1206 468.797 12.318C469.272 12.5153 469.677 12.7953 470.013 13.158C470.349 13.5206 470.605 13.9606 470.781 14.478C470.963 14.99 471.053 15.5633 471.053 16.198C471.053 16.838 470.963 17.414 470.781 17.926C470.605 18.438 470.349 18.8753 470.013 19.238C469.677 19.6006 469.272 19.8806 468.797 20.078C468.323 20.27 467.789 20.366 467.197 20.366C466.6 20.366 466.061 20.27 465.581 20.078C465.107 19.8806 464.701 19.6006 464.365 19.238C464.029 18.8753 463.771 18.438 463.589 17.926C463.413 17.414 463.325 16.838 463.325 16.198C463.325 15.5633 463.413 14.99 463.589 14.478C463.771 13.9606 464.029 13.5206 464.365 13.158C464.701 12.7953 465.107 12.5153 465.581 12.318C466.061 12.1206 466.6 12.022 467.197 12.022ZM467.197 19.254C467.997 19.254 468.595 18.9873 468.989 18.454C469.384 17.9153 469.581 17.166 469.581 16.206C469.581 15.2406 469.384 14.4886 468.989 13.95C468.595 13.4113 467.997 13.142 467.197 13.142C466.792 13.142 466.437 13.2113 466.133 13.35C465.835 13.4886 465.584 13.6886 465.381 13.95C465.184 14.2113 465.035 14.534 464.933 14.918C464.837 15.2966 464.789 15.726 464.789 16.206C464.789 17.166 464.987 17.9153 465.381 18.454C465.781 18.9873 466.387 19.254 467.197 19.254Z" fill="black"/>
<path d="M479.585 12.15L476.281 20.254H475.001L471.697 12.15H472.857C472.974 12.15 473.07 12.1793 473.145 12.238C473.219 12.2966 473.27 12.366 473.297 12.446L475.353 17.662C475.417 17.8593 475.473 18.0513 475.521 18.238C475.569 18.4246 475.614 18.6113 475.657 18.798C475.699 18.6113 475.745 18.4246 475.793 18.238C475.841 18.0513 475.899 17.8593 475.969 17.662L478.049 12.446C478.081 12.3606 478.134 12.2913 478.209 12.238C478.283 12.1793 478.371 12.15 478.473 12.15H479.585Z" fill="black"/>
<path d="M486.096 15.318C486.096 14.9873 486.048 14.686 485.952 14.414C485.861 14.1366 485.725 13.8993 485.544 13.702C485.368 13.4993 485.152 13.3446 484.896 13.238C484.64 13.126 484.349 13.07 484.024 13.07C483.341 13.07 482.8 13.27 482.4 13.67C482.005 14.0646 481.76 14.614 481.664 15.318H486.096ZM487.248 19.118C487.072 19.3313 486.861 19.518 486.616 19.678C486.371 19.8326 486.107 19.9606 485.824 20.062C485.547 20.1633 485.259 20.238 484.96 20.286C484.661 20.3393 484.365 20.366 484.072 20.366C483.512 20.366 482.995 20.2726 482.52 20.086C482.051 19.894 481.643 19.6166 481.296 19.254C480.955 18.886 480.688 18.4326 480.496 17.894C480.304 17.3553 480.208 16.7366 480.208 16.038C480.208 15.4726 480.293 14.9446 480.464 14.454C480.64 13.9633 480.891 13.5393 481.216 13.182C481.541 12.8193 481.939 12.5366 482.408 12.334C482.877 12.126 483.405 12.022 483.992 12.022C484.477 12.022 484.925 12.1046 485.336 12.27C485.752 12.43 486.109 12.6646 486.408 12.974C486.712 13.278 486.949 13.6566 487.12 14.11C487.291 14.558 487.376 15.07 487.376 15.646C487.376 15.87 487.352 16.0193 487.304 16.094C487.256 16.1686 487.165 16.206 487.032 16.206H481.616C481.632 16.718 481.701 17.1633 481.824 17.542C481.952 17.9206 482.128 18.238 482.352 18.494C482.576 18.7446 482.843 18.934 483.152 19.062C483.461 19.1846 483.808 19.246 484.192 19.246C484.549 19.246 484.856 19.206 485.112 19.126C485.373 19.0406 485.597 18.95 485.784 18.854C485.971 18.758 486.125 18.67 486.248 18.59C486.376 18.5046 486.485 18.462 486.576 18.462C486.693 18.462 486.784 18.5073 486.848 18.598L487.248 19.118Z" fill="black"/>
<path d="M490.477 13.774C490.733 13.2193 491.048 12.7873 491.421 12.478C491.794 12.1633 492.25 12.006 492.789 12.006C492.96 12.006 493.122 12.0246 493.277 12.062C493.437 12.0993 493.578 12.158 493.701 12.238L493.597 13.302C493.565 13.4353 493.485 13.502 493.357 13.502C493.282 13.502 493.173 13.486 493.029 13.454C492.885 13.422 492.722 13.406 492.541 13.406C492.285 13.406 492.056 13.4433 491.853 13.518C491.656 13.5926 491.477 13.7046 491.317 13.854C491.162 13.998 491.021 14.1793 490.893 14.398C490.77 14.6113 490.658 14.8566 490.557 15.134V20.254H489.125V12.15H489.941C490.096 12.15 490.202 12.1793 490.261 12.238C490.32 12.2966 490.36 12.398 490.381 12.542L490.477 13.774Z" fill="black"/>
<path d="M506.129 12.15L503.505 20.254H502.377C502.238 20.254 502.142 20.1633 502.089 19.982L500.297 14.486C500.254 14.3633 500.22 14.2406 500.193 14.118C500.166 13.99 500.14 13.8646 500.113 13.742C500.086 13.8646 500.06 13.99 500.033 14.118C500.006 14.2406 499.972 14.366 499.929 14.494L498.105 19.982C498.057 20.1633 497.95 20.254 497.785 20.254H496.713L494.089 12.15H495.209C495.321 12.15 495.414 12.1793 495.489 12.238C495.569 12.2966 495.622 12.366 495.649 12.446L497.201 17.662C497.292 18.046 497.364 18.4086 497.417 18.75C497.465 18.574 497.513 18.3953 497.561 18.214C497.614 18.0326 497.67 17.8486 497.729 17.662L499.441 12.414C499.468 12.334 499.513 12.2673 499.577 12.214C499.646 12.1606 499.729 12.134 499.825 12.134H500.449C500.556 12.134 500.644 12.1606 500.713 12.214C500.782 12.2673 500.83 12.334 500.857 12.414L502.529 17.662C502.588 17.8486 502.641 18.0326 502.689 18.214C502.737 18.3953 502.782 18.574 502.825 18.75C502.852 18.574 502.884 18.398 502.921 18.222C502.964 18.0406 503.009 17.854 503.057 17.662L504.641 12.446C504.668 12.3606 504.718 12.2913 504.793 12.238C504.868 12.1793 504.956 12.15 505.057 12.15H506.129Z" fill="black"/>
<path d="M508.948 13.23C509.294 12.862 509.678 12.5686 510.1 12.35C510.521 12.1313 511.006 12.022 511.556 12.022C511.998 12.022 512.388 12.0966 512.724 12.246C513.065 12.39 513.348 12.598 513.572 12.87C513.801 13.1366 513.974 13.4593 514.092 13.838C514.209 14.2166 514.268 14.6353 514.268 15.094V20.254H512.836V15.094C512.836 14.4806 512.694 14.006 512.412 13.67C512.134 13.3286 511.71 13.158 511.14 13.158C510.718 13.158 510.324 13.2593 509.956 13.462C509.593 13.6646 509.257 13.9393 508.948 14.286V20.254H507.516V8.46997H508.948V13.23Z" fill="black"/>
<path d="M521.862 15.318C521.862 14.9873 521.813 14.686 521.717 14.414C521.627 14.1366 521.491 13.8993 521.31 13.702C521.134 13.4993 520.917 13.3446 520.661 13.238C520.405 13.126 520.115 13.07 519.79 13.07C519.107 13.07 518.565 13.27 518.165 13.67C517.771 14.0646 517.526 14.614 517.43 15.318H521.862ZM523.014 19.118C522.838 19.3313 522.627 19.518 522.382 19.678C522.136 19.8326 521.872 19.9606 521.59 20.062C521.312 20.1633 521.024 20.238 520.726 20.286C520.427 20.3393 520.131 20.366 519.838 20.366C519.278 20.366 518.76 20.2726 518.286 20.086C517.816 19.894 517.408 19.6166 517.062 19.254C516.72 18.886 516.454 18.4326 516.262 17.894C516.07 17.3553 515.974 16.7366 515.974 16.038C515.974 15.4726 516.059 14.9446 516.23 14.454C516.406 13.9633 516.656 13.5393 516.982 13.182C517.307 12.8193 517.704 12.5366 518.174 12.334C518.643 12.126 519.171 12.022 519.758 12.022C520.243 12.022 520.691 12.1046 521.102 12.27C521.518 12.43 521.875 12.6646 522.174 12.974C522.478 13.278 522.715 13.6566 522.885 14.11C523.056 14.558 523.142 15.07 523.142 15.646C523.142 15.87 523.118 16.0193 523.07 16.094C523.022 16.1686 522.931 16.206 522.798 16.206H517.382C517.398 16.718 517.467 17.1633 517.59 17.542C517.718 17.9206 517.894 18.238 518.118 18.494C518.342 18.7446 518.608 18.934 518.918 19.062C519.227 19.1846 519.574 19.246 519.958 19.246C520.315 19.246 520.622 19.206 520.878 19.126C521.139 19.0406 521.363 18.95 521.549 18.854C521.736 18.758 521.891 18.67 522.014 18.59C522.142 18.5046 522.251 18.462 522.342 18.462C522.459 18.462 522.549 18.5073 522.613 18.598L523.014 19.118Z" fill="black"/>
<path d="M526.363 8.46997V20.254H524.939V8.46997H526.363Z" fill="black"/>
<path d="M528.672 20.254V12.15H529.528C529.731 12.15 529.856 12.2486 529.904 12.446L530.008 13.278C530.307 12.91 530.643 12.6086 531.016 12.374C531.389 12.1393 531.821 12.022 532.312 12.022C532.856 12.022 533.296 12.174 533.632 12.478C533.973 12.782 534.219 13.1926 534.368 13.71C534.485 13.4166 534.635 13.1633 534.816 12.95C535.003 12.7366 535.211 12.5606 535.44 12.422C535.669 12.2833 535.912 12.182 536.168 12.118C536.429 12.054 536.693 12.022 536.96 12.022C537.387 12.022 537.765 12.0913 538.096 12.23C538.432 12.3633 538.715 12.5606 538.944 12.822C539.179 13.0833 539.357 13.406 539.48 13.79C539.603 14.1686 539.664 14.6033 539.664 15.094V20.254H538.232V15.094C538.232 14.4593 538.093 13.9793 537.816 13.654C537.539 13.3233 537.139 13.158 536.616 13.158C536.381 13.158 536.157 13.2006 535.944 13.286C535.736 13.366 535.552 13.486 535.392 13.646C535.232 13.806 535.104 14.0086 535.008 14.254C534.917 14.494 534.872 14.774 534.872 15.094V20.254H533.44V15.094C533.44 14.4433 533.309 13.958 533.048 13.638C532.787 13.318 532.405 13.158 531.904 13.158C531.552 13.158 531.227 13.254 530.928 13.446C530.629 13.6326 530.355 13.8886 530.104 14.214V20.254H528.672Z" fill="black"/>
<path d="M547.252 15.318C547.252 14.9873 547.204 14.686 547.108 14.414C547.017 14.1366 546.881 13.8993 546.7 13.702C546.524 13.4993 546.308 13.3446 546.052 13.238C545.796 13.126 545.505 13.07 545.18 13.07C544.497 13.07 543.956 13.27 543.556 13.67C543.161 14.0646 542.916 14.614 542.82 15.318H547.252ZM548.404 19.118C548.228 19.3313 548.017 19.518 547.772 19.678C547.527 19.8326 547.263 19.9606 546.98 20.062C546.703 20.1633 546.415 20.238 546.116 20.286C545.817 20.3393 545.521 20.366 545.228 20.366C544.668 20.366 544.151 20.2726 543.676 20.086C543.207 19.894 542.799 19.6166 542.452 19.254C542.111 18.886 541.844 18.4326 541.652 17.894C541.46 17.3553 541.364 16.7366 541.364 16.038C541.364 15.4726 541.449 14.9446 541.62 14.454C541.796 13.9633 542.047 13.5393 542.372 13.182C542.697 12.8193 543.095 12.5366 543.564 12.334C544.033 12.126 544.561 12.022 545.148 12.022C545.633 12.022 546.081 12.1046 546.492 12.27C546.908 12.43 547.265 12.6646 547.564 12.974C547.868 13.278 548.105 13.6566 548.276 14.11C548.447 14.558 548.532 15.07 548.532 15.646C548.532 15.87 548.508 16.0193 548.46 16.094C548.412 16.1686 548.321 16.206 548.188 16.206H542.772C542.788 16.718 542.857 17.1633 542.98 17.542C543.108 17.9206 543.284 18.238 543.508 18.494C543.732 18.7446 543.999 18.934 544.308 19.062C544.617 19.1846 544.964 19.246 545.348 19.246C545.705 19.246 546.012 19.206 546.268 19.126C546.529 19.0406 546.753 18.95 546.94 18.854C547.127 18.758 547.281 18.67 547.404 18.59C547.532 18.5046 547.641 18.462 547.732 18.462C547.849 18.462 547.94 18.5073 548.004 18.598L548.404 19.118Z" fill="black"/>
<path d="M555.561 14.078C555.295 13.7206 555.007 13.4726 554.697 13.334C554.388 13.19 554.041 13.118 553.657 13.118C552.905 13.118 552.327 13.3873 551.921 13.926C551.516 14.4646 551.313 15.2326 551.313 16.23C551.313 16.758 551.359 17.2113 551.449 17.59C551.54 17.9633 551.673 18.2726 551.849 18.518C552.025 18.758 552.241 18.934 552.497 19.046C552.753 19.158 553.044 19.214 553.369 19.214C553.839 19.214 554.247 19.1073 554.593 18.894C554.945 18.6806 555.268 18.3793 555.561 17.99V14.078ZM556.985 8.46997V20.254H556.137C555.935 20.254 555.807 20.1553 555.753 19.958L555.625 18.974C555.279 19.39 554.884 19.726 554.441 19.982C553.999 20.238 553.487 20.366 552.905 20.366C552.441 20.366 552.02 20.278 551.641 20.102C551.263 19.9206 550.94 19.6566 550.673 19.31C550.407 18.9633 550.201 18.5313 550.057 18.014C549.913 17.4966 549.841 16.902 549.841 16.23C549.841 15.6326 549.921 15.078 550.081 14.566C550.241 14.0486 550.471 13.6006 550.769 13.222C551.068 12.8433 551.433 12.5473 551.865 12.334C552.303 12.1153 552.793 12.006 553.337 12.006C553.833 12.006 554.257 12.0913 554.609 12.262C554.967 12.4273 555.284 12.6593 555.561 12.958V8.46997H556.985Z" fill="black"/>
</svg>
