<svg width="636" height="103" viewBox="0 0 636 103" fill="none" xmlns="http://www.w3.org/2000/svg">
<rect width="80" height="101" transform="translate(3)" fill="white"/>
<rect x="25" y="57" width="33" height="43" stroke="black" stroke-width="6" stroke-linecap="square" stroke-linejoin="round"/>
<path d="M3 52L41.4753 6.5L81 52H41.4753H3Z" stroke="black" stroke-width="6" stroke-linecap="square" stroke-linejoin="round"/>
<rect x="28" y="45" width="27" height="17" fill="white"/>
<path d="M119.152 44.508C119.152 45.54 119.344 46.26 119.728 46.668C120.112 47.052 120.784 47.244 121.744 47.244V48C119.152 47.904 117.496 47.856 116.776 47.856C115.984 47.856 114.256 47.892 111.592 47.964L110.584 48V47.244C111.712 47.244 112.552 47.028 113.104 46.596C113.68 46.164 113.968 45.396 113.968 44.292V35.508C113.968 34.356 113.86 33.516 113.644 32.988C113.452 32.436 113.116 32.076 112.636 31.908C112.156 31.716 111.424 31.62 110.44 31.62V30.828C112.528 30.78 114.244 30.624 115.588 30.36C116.932 30.072 118.12 29.616 119.152 28.992V44.508ZM134.589 28.884C136.485 28.884 138.177 29.28 139.665 30.072C141.153 30.864 142.305 31.98 143.121 33.42C143.961 34.86 144.381 36.516 144.381 38.388C144.381 40.308 143.949 42.036 143.085 43.572C142.245 45.108 141.045 46.32 139.485 47.208C137.949 48.072 136.185 48.504 134.193 48.504C132.321 48.504 130.641 48.108 129.153 47.316C127.665 46.524 126.501 45.408 125.661 43.968C124.821 42.528 124.401 40.86 124.401 38.964C124.401 37.068 124.821 35.352 125.661 33.816C126.525 32.28 127.725 31.08 129.261 30.216C130.797 29.328 132.573 28.884 134.589 28.884ZM134.265 29.532C133.401 29.532 132.633 29.904 131.961 30.648C131.289 31.392 130.761 32.472 130.377 33.888C130.017 35.28 129.837 36.936 129.837 38.856C129.837 41.904 130.269 44.172 131.133 45.66C132.021 47.124 133.149 47.856 134.517 47.856C135.381 47.856 136.137 47.484 136.785 46.74C137.457 45.972 137.985 44.892 138.369 43.5C138.753 42.084 138.945 40.416 138.945 38.496C138.945 35.448 138.501 33.192 137.613 31.728C136.749 30.264 135.633 29.532 134.265 29.532ZM157.792 28.884C159.688 28.884 161.38 29.28 162.868 30.072C164.356 30.864 165.508 31.98 166.324 33.42C167.164 34.86 167.584 36.516 167.584 38.388C167.584 40.308 167.152 42.036 166.288 43.572C165.448 45.108 164.248 46.32 162.688 47.208C161.152 48.072 159.388 48.504 157.396 48.504C155.524 48.504 153.844 48.108 152.356 47.316C150.868 46.524 149.704 45.408 148.864 43.968C148.024 42.528 147.604 40.86 147.604 38.964C147.604 37.068 148.024 35.352 148.864 33.816C149.728 32.28 150.928 31.08 152.464 30.216C154 29.328 155.776 28.884 157.792 28.884ZM157.468 29.532C156.604 29.532 155.836 29.904 155.164 30.648C154.492 31.392 153.964 32.472 153.58 33.888C153.22 35.28 153.04 36.936 153.04 38.856C153.04 41.904 153.472 44.172 154.336 45.66C155.224 47.124 156.352 47.856 157.72 47.856C158.584 47.856 159.34 47.484 159.988 46.74C160.66 45.972 161.188 44.892 161.572 43.5C161.956 42.084 162.148 40.416 162.148 38.496C162.148 35.448 161.704 33.192 160.816 31.728C159.952 30.264 158.836 29.532 157.468 29.532ZM193.344 18.804L172.284 49.98L171.6 49.512L192.66 18.336L193.344 18.804ZM176.244 20.604C177.996 20.604 179.4 21.132 180.456 22.188C181.536 23.22 182.076 24.648 182.076 26.472C182.076 27.672 181.824 28.728 181.32 29.64C180.816 30.552 180.12 31.26 179.232 31.764C178.344 32.268 177.348 32.52 176.244 32.52C174.492 32.52 173.076 32.004 171.996 30.972C170.916 29.916 170.375 28.476 170.375 26.652C170.375 25.476 170.628 24.432 171.132 23.52C171.636 22.584 172.332 21.864 173.22 21.36C174.132 20.856 175.14 20.604 176.244 20.604ZM176.172 21.252C174.612 21.252 173.832 23.04 173.832 26.616C173.832 28.344 174.048 29.652 174.479 30.54C174.912 31.428 175.524 31.872 176.316 31.872C177.852 31.872 178.62 30.096 178.62 26.544C178.62 24.792 178.404 23.472 177.972 22.584C177.564 21.696 176.964 21.252 176.172 21.252ZM188.34 36.588C190.092 36.588 191.496 37.116 192.552 38.172C193.632 39.204 194.172 40.632 194.172 42.456C194.172 43.656 193.92 44.712 193.416 45.624C192.912 46.536 192.216 47.244 191.328 47.748C190.44 48.252 189.444 48.504 188.34 48.504C186.588 48.504 185.172 47.988 184.092 46.956C183.012 45.9 182.472 44.46 182.472 42.636C182.472 41.46 182.724 40.416 183.228 39.504C183.732 38.568 184.428 37.848 185.316 37.344C186.228 36.84 187.236 36.588 188.34 36.588ZM188.268 37.236C186.708 37.236 185.928 39.024 185.928 42.6C185.928 44.328 186.144 45.636 186.576 46.524C187.008 47.412 187.62 47.856 188.412 47.856C189.948 47.856 190.716 46.08 190.716 42.528C190.716 40.776 190.5 39.456 190.068 38.568C189.66 37.68 189.06 37.236 188.268 37.236ZM213.933 28.884C216.693 28.884 218.853 29.676 220.413 31.26C221.973 32.82 222.753 35.304 222.753 38.712C222.753 42.12 221.973 44.604 220.413 46.164C218.853 47.724 216.693 48.504 213.933 48.504C211.197 48.504 209.037 47.724 207.453 46.164C205.893 44.604 205.113 42.12 205.113 38.712C205.113 35.304 205.893 32.82 207.453 31.26C209.037 29.676 211.197 28.884 213.933 28.884ZM213.933 29.604C212.901 29.604 212.073 30.36 211.449 31.872C210.849 33.36 210.549 35.64 210.549 38.712C210.549 41.784 210.849 44.064 211.449 45.552C212.073 47.04 212.901 47.784 213.933 47.784C214.989 47.784 215.817 47.052 216.417 45.588C217.017 44.1 217.317 41.808 217.317 38.712C217.317 35.616 217.005 33.324 216.381 31.836C215.781 30.348 214.965 29.604 213.933 29.604ZM234.505 19.848C235.993 19.848 237.277 20.244 238.357 21.036C238.717 21.324 239.005 21.708 239.221 22.188C239.461 22.644 239.581 23.16 239.581 23.736C239.581 24.408 239.341 24.996 238.861 25.5C238.381 25.98 237.769 26.22 237.025 26.22C236.209 26.22 235.549 25.992 235.045 25.536C234.541 25.08 234.289 24.456 234.289 23.664C234.289 23.04 234.469 22.488 234.829 22.008C235.189 21.528 235.717 21.192 236.413 21C236.341 20.856 236.185 20.736 235.945 20.64C235.729 20.544 235.453 20.496 235.117 20.496C234.205 20.496 233.557 20.808 233.173 21.432C232.909 21.792 232.729 22.32 232.633 23.016C232.537 23.712 232.489 24.756 232.489 26.148V29.424H236.341V30.144H232.489V44.292C232.489 45.396 232.765 46.164 233.317 46.596C233.893 47.028 234.745 47.244 235.873 47.244V48L234.865 47.964C232.201 47.892 230.473 47.856 229.681 47.856C228.961 47.856 227.401 47.904 225.001 48V47.244C225.865 47.244 226.465 47.064 226.801 46.704C227.137 46.32 227.305 45.636 227.305 44.652V30.144H224.857V29.424H227.305C227.305 27.336 227.473 25.728 227.809 24.6C228.145 23.448 228.733 22.464 229.573 21.648C230.101 21.12 230.809 20.688 231.697 20.352C232.585 20.016 233.521 19.848 234.505 19.848ZM263.987 44.076C263.987 45.18 264.155 45.984 264.491 46.488C264.851 46.992 265.451 47.244 266.291 47.244V48C265.547 47.928 264.803 47.892 264.059 47.892C261.971 47.892 260.219 48.06 258.803 48.396V45.156C257.699 47.388 255.767 48.504 253.007 48.504C251.207 48.504 249.899 48.036 249.083 47.1C248.699 46.644 248.411 46.056 248.219 45.336C248.051 44.592 247.967 43.62 247.967 42.42V33.312C247.967 32.208 247.787 31.404 247.427 30.9C247.091 30.396 246.503 30.144 245.663 30.144V29.388C246.407 29.46 247.151 29.496 247.895 29.496C249.983 29.496 251.735 29.328 253.151 28.992V43.896C253.151 44.904 253.295 45.66 253.583 46.164C253.895 46.668 254.471 46.92 255.311 46.92C256.271 46.92 257.087 46.524 257.759 45.732C258.455 44.916 258.803 43.92 258.803 42.744V33.312C258.803 32.208 258.623 31.404 258.263 30.9C257.927 30.396 257.339 30.144 256.499 30.144V29.388C257.267 29.46 258.011 29.496 258.731 29.496C260.819 29.496 262.571 29.328 263.987 28.992V44.076ZM275.019 28.884C275.931 28.884 276.771 29.004 277.539 29.244C278.307 29.46 278.895 29.712 279.303 30C279.543 30.168 279.759 30.252 279.951 30.252C280.167 30.252 280.347 30.144 280.491 29.928C280.659 29.688 280.767 29.352 280.815 28.92H281.571C281.475 30.144 281.427 32.256 281.427 35.256H280.671C280.455 33.672 279.975 32.352 279.231 31.296C278.511 30.216 277.455 29.676 276.063 29.676C275.343 29.676 274.743 29.88 274.263 30.288C273.807 30.696 273.579 31.26 273.579 31.98C273.579 32.796 273.855 33.504 274.407 34.104C274.959 34.68 275.823 35.388 276.999 36.228L278.043 36.984C279.507 38.088 280.587 39.072 281.283 39.936C281.979 40.8 282.327 41.88 282.327 43.176C282.327 44.232 282.015 45.168 281.391 45.984C280.791 46.8 279.975 47.424 278.943 47.856C277.911 48.288 276.771 48.504 275.523 48.504C274.203 48.504 273.075 48.252 272.139 47.748C271.371 47.364 270.819 47.112 270.483 46.992C270.243 46.92 270.027 47.004 269.835 47.244C269.667 47.46 269.535 47.796 269.439 48.252H268.683C268.779 46.884 268.827 44.484 268.827 41.052H269.583C270.063 45.468 271.683 47.676 274.443 47.676C275.139 47.676 275.727 47.472 276.207 47.064C276.711 46.632 276.963 45.984 276.963 45.12C276.963 44.448 276.807 43.848 276.495 43.32C276.207 42.792 275.835 42.324 275.379 41.916C274.923 41.508 274.239 40.944 273.327 40.224C272.247 39.36 271.419 38.664 270.843 38.136C270.291 37.608 269.811 36.984 269.403 36.264C269.019 35.544 268.827 34.74 268.827 33.852C268.827 32.316 269.427 31.104 270.627 30.216C271.827 29.328 273.291 28.884 275.019 28.884ZM295.104 45.552C297.072 45.552 298.656 44.592 299.856 42.672L300.504 42.888C300.024 44.448 299.16 45.78 297.912 46.884C296.688 47.964 295.152 48.504 293.304 48.504C290.76 48.504 288.732 47.7 287.22 46.092C285.732 44.46 284.988 42.06 284.988 38.892C284.988 35.652 285.792 33.18 287.4 31.476C289.008 29.748 291.144 28.884 293.808 28.884C298.32 28.884 300.576 31.548 300.576 36.876H290.46C290.436 37.236 290.424 37.8 290.424 38.568C290.424 40.152 290.64 41.472 291.072 42.528C291.528 43.584 292.104 44.352 292.8 44.832C293.52 45.312 294.288 45.552 295.104 45.552ZM293.592 29.64C292.728 29.64 292.008 30.18 291.432 31.26C290.88 32.316 290.532 33.96 290.388 36.192H296.04C296.088 34.296 295.896 32.736 295.464 31.512C295.056 30.264 294.432 29.64 293.592 29.64ZM314.834 28.884C315.914 28.884 316.73 29.208 317.282 29.856C317.834 30.504 318.11 31.284 318.11 32.196C318.11 33.084 317.846 33.816 317.318 34.392C316.814 34.944 316.142 35.22 315.302 35.22C314.486 35.22 313.838 35.016 313.358 34.608C312.878 34.176 312.638 33.612 312.638 32.916C312.638 31.764 313.166 30.828 314.222 30.108C314.126 30.084 313.982 30.072 313.79 30.072C313.55 30.072 313.358 30.096 313.214 30.144C312.302 30.288 311.522 30.84 310.874 31.8C310.25 32.76 309.938 33.744 309.938 34.752V44.292C309.938 45.396 310.202 46.164 310.73 46.596C311.282 47.028 312.146 47.244 313.322 47.244V48C312.986 48 312.71 47.988 312.494 47.964C310.046 47.892 308.414 47.856 307.598 47.856C306.95 47.856 305.474 47.892 303.17 47.964C302.978 47.988 302.738 48 302.45 48V47.244C303.314 47.244 303.914 47.064 304.25 46.704C304.586 46.32 304.754 45.636 304.754 44.652V33.312C304.754 32.208 304.586 31.404 304.25 30.9C303.914 30.396 303.314 30.144 302.45 30.144V29.388C303.218 29.46 303.962 29.496 304.682 29.496C306.818 29.496 308.57 29.328 309.938 28.992V32.34C310.394 31.308 311.054 30.48 311.918 29.856C312.782 29.208 313.754 28.884 314.834 28.884ZM326.383 28.884C327.295 28.884 328.135 29.004 328.903 29.244C329.671 29.46 330.259 29.712 330.667 30C330.907 30.168 331.123 30.252 331.315 30.252C331.531 30.252 331.711 30.144 331.855 29.928C332.023 29.688 332.131 29.352 332.179 28.92H332.935C332.839 30.144 332.791 32.256 332.791 35.256H332.035C331.819 33.672 331.339 32.352 330.595 31.296C329.875 30.216 328.819 29.676 327.427 29.676C326.707 29.676 326.107 29.88 325.627 30.288C325.171 30.696 324.943 31.26 324.943 31.98C324.943 32.796 325.219 33.504 325.771 34.104C326.323 34.68 327.187 35.388 328.363 36.228L329.407 36.984C330.871 38.088 331.951 39.072 332.647 39.936C333.343 40.8 333.691 41.88 333.691 43.176C333.691 44.232 333.379 45.168 332.755 45.984C332.155 46.8 331.339 47.424 330.307 47.856C329.275 48.288 328.135 48.504 326.887 48.504C325.567 48.504 324.439 48.252 323.503 47.748C322.735 47.364 322.183 47.112 321.847 46.992C321.607 46.92 321.391 47.004 321.199 47.244C321.031 47.46 320.899 47.796 320.803 48.252H320.047C320.143 46.884 320.191 44.484 320.191 41.052H320.947C321.427 45.468 323.047 47.676 325.807 47.676C326.503 47.676 327.091 47.472 327.571 47.064C328.075 46.632 328.327 45.984 328.327 45.12C328.327 44.448 328.171 43.848 327.859 43.32C327.571 42.792 327.199 42.324 326.743 41.916C326.287 41.508 325.603 40.944 324.691 40.224C323.611 39.36 322.783 38.664 322.207 38.136C321.655 37.608 321.175 36.984 320.767 36.264C320.383 35.544 320.191 34.74 320.191 33.852C320.191 32.316 320.791 31.104 321.991 30.216C323.191 29.328 324.655 28.884 326.383 28.884ZM367.998 29.496C369.222 29.496 370.134 29.46 370.734 29.388V30.108C370.23 30.252 369.774 30.552 369.366 31.008C368.958 31.464 368.598 32.196 368.286 33.204L363.498 48.072C363.234 48.048 362.838 48.036 362.31 48.036C361.806 48.036 361.422 48.048 361.158 48.072L356.262 34.716L352.266 48.072C352.026 48.048 351.642 48.036 351.114 48.036C350.586 48.036 350.19 48.048 349.926 48.072L344.238 32.16C343.95 31.32 343.626 30.78 343.266 30.54C342.906 30.276 342.534 30.144 342.15 30.144V29.388C343.71 29.532 345.414 29.604 347.262 29.604C348.462 29.604 350.022 29.532 351.942 29.388V30.144C351.15 30.144 350.574 30.204 350.214 30.324C349.878 30.444 349.71 30.732 349.71 31.188C349.71 31.5 349.77 31.824 349.89 32.16L353.13 42.348L357.054 29.352L358.386 29.388L359.682 29.352L364.362 43.104L366.63 35.868C366.966 34.74 367.134 33.828 367.134 33.132C367.134 31.26 366.186 30.252 364.29 30.108V29.388C365.418 29.46 366.654 29.496 367.998 29.496ZM381.659 45.552C383.627 45.552 385.211 44.592 386.411 42.672L387.059 42.888C386.579 44.448 385.715 45.78 384.467 46.884C383.243 47.964 381.707 48.504 379.859 48.504C377.315 48.504 375.287 47.7 373.775 46.092C372.287 44.46 371.543 42.06 371.543 38.892C371.543 35.652 372.347 33.18 373.955 31.476C375.563 29.748 377.699 28.884 380.363 28.884C384.875 28.884 387.131 31.548 387.131 36.876H377.015C376.991 37.236 376.979 37.8 376.979 38.568C376.979 40.152 377.195 41.472 377.627 42.528C378.083 43.584 378.659 44.352 379.355 44.832C380.075 45.312 380.843 45.552 381.659 45.552ZM380.147 29.64C379.283 29.64 378.563 30.18 377.987 31.26C377.435 32.316 377.087 33.96 376.943 36.192H382.595C382.643 34.296 382.451 32.736 382.019 31.512C381.611 30.264 380.987 29.64 380.147 29.64ZM401.389 28.884C402.469 28.884 403.285 29.208 403.837 29.856C404.389 30.504 404.665 31.284 404.665 32.196C404.665 33.084 404.401 33.816 403.873 34.392C403.369 34.944 402.697 35.22 401.857 35.22C401.041 35.22 400.393 35.016 399.913 34.608C399.433 34.176 399.193 33.612 399.193 32.916C399.193 31.764 399.721 30.828 400.777 30.108C400.681 30.084 400.537 30.072 400.345 30.072C400.105 30.072 399.913 30.096 399.769 30.144C398.857 30.288 398.077 30.84 397.429 31.8C396.805 32.76 396.493 33.744 396.493 34.752V44.292C396.493 45.396 396.757 46.164 397.285 46.596C397.837 47.028 398.701 47.244 399.877 47.244V48C399.541 48 399.265 47.988 399.049 47.964C396.601 47.892 394.969 47.856 394.153 47.856C393.505 47.856 392.029 47.892 389.725 47.964C389.533 47.988 389.293 48 389.005 48V47.244C389.869 47.244 390.469 47.064 390.805 46.704C391.141 46.32 391.309 45.636 391.309 44.652V33.312C391.309 32.208 391.141 31.404 390.805 30.9C390.469 30.396 389.869 30.144 389.005 30.144V29.388C389.773 29.46 390.517 29.496 391.237 29.496C393.373 29.496 395.125 29.328 396.493 28.992V32.34C396.949 31.308 397.609 30.48 398.473 29.856C399.337 29.208 400.309 28.884 401.389 28.884ZM415.901 45.552C417.869 45.552 419.453 44.592 420.653 42.672L421.301 42.888C420.821 44.448 419.957 45.78 418.709 46.884C417.485 47.964 415.949 48.504 414.101 48.504C411.557 48.504 409.529 47.7 408.017 46.092C406.529 44.46 405.785 42.06 405.785 38.892C405.785 35.652 406.589 33.18 408.197 31.476C409.805 29.748 411.941 28.884 414.605 28.884C419.117 28.884 421.373 31.548 421.373 36.876H411.257C411.233 37.236 411.221 37.8 411.221 38.568C411.221 40.152 411.437 41.472 411.869 42.528C412.325 43.584 412.901 44.352 413.597 44.832C414.317 45.312 415.085 45.552 415.901 45.552ZM414.389 29.64C413.525 29.64 412.805 30.18 412.229 31.26C411.677 32.316 411.329 33.96 411.185 36.192H416.837C416.885 34.296 416.693 32.736 416.261 31.512C415.853 30.264 415.229 29.64 414.389 29.64ZM441.22 28.884C442.108 28.884 442.948 28.98 443.74 29.172C444.532 29.364 445.192 29.628 445.72 29.964C446.344 30.348 446.824 30.84 447.16 31.44C447.52 32.016 447.7 32.652 447.7 33.348C447.7 34.188 447.436 34.884 446.908 35.436C446.38 35.964 445.696 36.228 444.856 36.228C444.016 36.228 443.344 35.988 442.84 35.508C442.336 35.028 442.084 34.38 442.084 33.564C442.084 32.844 442.312 32.22 442.768 31.692C443.224 31.164 443.788 30.804 444.46 30.612C444.268 30.348 443.968 30.144 443.56 30C443.176 29.832 442.756 29.748 442.3 29.748C440.86 29.748 439.732 30.54 438.916 32.124C438.124 33.684 437.728 35.736 437.728 38.28C437.728 40.848 438.184 42.696 439.096 43.824C440.008 44.952 441.148 45.516 442.516 45.516C443.332 45.516 444.148 45.3 444.964 44.868C445.804 44.436 446.56 43.68 447.232 42.6L447.844 42.816C447.364 44.376 446.524 45.72 445.324 46.848C444.124 47.952 442.576 48.504 440.68 48.504C438.208 48.504 436.192 47.688 434.632 46.056C433.072 44.424 432.292 42 432.292 38.784C432.292 36.672 432.676 34.872 433.444 33.384C434.212 31.896 435.268 30.78 436.612 30.036C437.956 29.268 439.492 28.884 441.22 28.884ZM459.007 28.884C461.767 28.884 463.927 29.676 465.487 31.26C467.047 32.82 467.827 35.304 467.827 38.712C467.827 42.12 467.047 44.604 465.487 46.164C463.927 47.724 461.767 48.504 459.007 48.504C456.271 48.504 454.111 47.724 452.527 46.164C450.967 44.604 450.187 42.12 450.187 38.712C450.187 35.304 450.967 32.82 452.527 31.26C454.111 29.676 456.271 28.884 459.007 28.884ZM459.007 29.604C457.975 29.604 457.147 30.36 456.523 31.872C455.923 33.36 455.623 35.64 455.623 38.712C455.623 41.784 455.923 44.064 456.523 45.552C457.147 47.04 457.975 47.784 459.007 47.784C460.063 47.784 460.891 47.052 461.491 45.588C462.091 44.1 462.391 41.808 462.391 38.712C462.391 35.616 462.079 33.324 461.455 31.836C460.855 30.348 460.039 29.604 459.007 29.604ZM483.467 28.884C485.291 28.884 486.611 29.352 487.427 30.288C487.835 30.744 488.123 31.332 488.291 32.052C488.459 32.772 488.543 33.744 488.543 34.968V44.652C488.543 45.636 488.711 46.32 489.047 46.704C489.407 47.064 490.007 47.244 490.847 47.244V48C488.447 47.904 486.863 47.856 486.095 47.856C485.375 47.856 483.815 47.904 481.415 48V47.244C482.135 47.244 482.639 47.064 482.927 46.704C483.215 46.32 483.359 45.636 483.359 44.652V33.456C483.359 32.472 483.191 31.728 482.855 31.224C482.543 30.72 481.967 30.468 481.127 30.468C480.143 30.468 479.303 30.876 478.607 31.692C477.911 32.484 477.563 33.468 477.563 34.644V44.652C477.563 45.636 477.707 46.32 477.995 46.704C478.283 47.064 478.787 47.244 479.507 47.244V48C477.299 47.904 475.811 47.856 475.043 47.856C474.323 47.856 472.667 47.904 470.075 48V47.244C470.939 47.244 471.539 47.064 471.875 46.704C472.211 46.32 472.379 45.636 472.379 44.652V33.312C472.379 32.208 472.211 31.404 471.875 30.9C471.539 30.396 470.939 30.144 470.075 30.144V29.388C470.843 29.46 471.587 29.496 472.307 29.496C474.443 29.496 476.195 29.328 477.563 28.992V32.232C478.643 30 480.611 28.884 483.467 28.884ZM504.86 19.848C506.252 19.848 507.392 19.956 508.28 20.172C509.168 20.388 509.948 20.712 510.62 21.144C511.052 21.408 511.4 21.756 511.664 22.188C511.952 22.62 512.096 23.088 512.096 23.592C512.096 24.456 511.796 25.14 511.196 25.644C510.62 26.124 509.792 26.364 508.712 26.364C507.656 26.364 506.828 26.124 506.228 25.644C505.628 25.14 505.328 24.468 505.328 23.628C505.328 23.004 505.532 22.464 505.94 22.008C506.372 21.528 506.96 21.18 507.704 20.964C507.464 20.82 507.128 20.712 506.696 20.64C506.288 20.544 505.844 20.496 505.364 20.496C503.276 20.496 501.74 21.384 500.756 23.16C500.396 23.784 500.144 24.564 500 25.5C499.856 26.412 499.784 27.72 499.784 29.424H504.068C506.012 29.424 507.524 29.4 508.604 29.352C509.708 29.28 510.764 29.16 511.772 28.992V44.652C511.772 45.636 511.952 46.32 512.312 46.704C512.696 47.064 513.356 47.244 514.292 47.244V48C511.7 47.904 510.032 47.856 509.288 47.856C508.544 47.856 506.876 47.904 504.284 48V47.244C505.148 47.244 505.748 47.064 506.084 46.704C506.42 46.32 506.588 45.636 506.588 44.652V33.312C506.588 32.208 506.396 31.404 506.012 30.9C505.652 30.396 505.004 30.144 504.068 30.144H499.784V44.652C499.784 45.636 500.024 46.32 500.504 46.704C500.984 47.064 501.704 47.244 502.664 47.244V48L501.728 47.964C499.352 47.892 497.876 47.856 497.3 47.856C496.532 47.856 495.032 47.892 492.8 47.964C492.632 47.988 492.392 48 492.08 48V47.244C493.016 47.244 493.664 47.064 494.024 46.704C494.408 46.32 494.6 45.636 494.6 44.652V30.144H491.936V29.424H494.6C494.6 26.472 495.548 24.084 497.444 22.26C498.284 21.492 499.352 20.904 500.648 20.496C501.944 20.064 503.348 19.848 504.86 19.848ZM533.349 44.04C533.349 45.144 533.517 45.948 533.853 46.452C534.189 46.956 534.789 47.208 535.653 47.208V47.964C534.909 47.892 534.165 47.856 533.421 47.856C531.285 47.856 529.533 48.024 528.165 48.36V45.264C527.349 47.424 525.789 48.504 523.485 48.504C521.229 48.504 519.429 47.688 518.085 46.056C516.765 44.4 516.117 41.916 516.141 38.604C516.141 36.492 516.477 34.716 517.149 33.276C517.845 31.812 518.793 30.72 519.993 30C521.217 29.256 522.609 28.884 524.169 28.884C525.921 28.884 527.253 29.34 528.165 30.252V24.132C528.165 23.028 527.985 22.224 527.625 21.72C527.289 21.216 526.701 20.964 525.861 20.964V20.208C526.629 20.28 527.373 20.316 528.093 20.316C530.181 20.316 531.933 20.148 533.349 19.812V44.04ZM524.961 46.956C525.753 46.956 526.449 46.668 527.049 46.092C527.673 45.516 528.045 44.736 528.165 43.752V31.152C527.565 30.336 526.689 29.928 525.537 29.928C524.265 29.928 523.281 30.66 522.585 32.124C521.889 33.588 521.553 35.772 521.577 38.676C521.553 41.604 521.829 43.716 522.405 45.012C523.005 46.308 523.857 46.956 524.961 46.956ZM547.737 45.552C549.705 45.552 551.289 44.592 552.489 42.672L553.137 42.888C552.657 44.448 551.793 45.78 550.545 46.884C549.321 47.964 547.785 48.504 545.937 48.504C543.393 48.504 541.365 47.7 539.853 46.092C538.365 44.46 537.621 42.06 537.621 38.892C537.621 35.652 538.425 33.18 540.033 31.476C541.641 29.748 543.777 28.884 546.441 28.884C550.953 28.884 553.209 31.548 553.209 36.876H543.093C543.069 37.236 543.057 37.8 543.057 38.568C543.057 40.152 543.273 41.472 543.705 42.528C544.161 43.584 544.737 44.352 545.433 44.832C546.153 45.312 546.921 45.552 547.737 45.552ZM546.225 29.64C545.361 29.64 544.641 30.18 544.065 31.26C543.513 32.316 543.165 33.96 543.021 36.192H548.673C548.721 34.296 548.529 32.736 548.097 31.512C547.689 30.264 547.065 29.64 546.225 29.64ZM568.475 28.884C570.299 28.884 571.619 29.352 572.435 30.288C572.843 30.744 573.131 31.332 573.299 32.052C573.467 32.772 573.551 33.744 573.551 34.968V44.652C573.551 45.636 573.719 46.32 574.055 46.704C574.415 47.064 575.015 47.244 575.855 47.244V48C573.455 47.904 571.871 47.856 571.103 47.856C570.383 47.856 568.823 47.904 566.423 48V47.244C567.143 47.244 567.647 47.064 567.935 46.704C568.223 46.32 568.367 45.636 568.367 44.652V33.456C568.367 32.472 568.199 31.728 567.863 31.224C567.551 30.72 566.975 30.468 566.135 30.468C565.151 30.468 564.311 30.876 563.615 31.692C562.919 32.484 562.571 33.468 562.571 34.644V44.652C562.571 45.636 562.715 46.32 563.003 46.704C563.291 47.064 563.795 47.244 564.515 47.244V48C562.307 47.904 560.819 47.856 560.051 47.856C559.331 47.856 557.675 47.904 555.083 48V47.244C555.947 47.244 556.547 47.064 556.883 46.704C557.219 46.32 557.387 45.636 557.387 44.652V33.312C557.387 32.208 557.219 31.404 556.883 30.9C556.547 30.396 555.947 30.144 555.083 30.144V29.388C555.851 29.46 556.595 29.496 557.315 29.496C559.451 29.496 561.203 29.328 562.571 28.992V32.232C563.651 30 565.619 28.884 568.475 28.884ZM584.504 29.388H588.752V30.108H584.504V44.652C584.504 45.372 584.624 45.888 584.864 46.2C585.128 46.488 585.536 46.632 586.088 46.632C587.12 46.632 587.936 45.912 588.536 44.472L589.148 44.796C588.236 47.268 586.592 48.504 584.216 48.504C582.632 48.504 581.432 48.096 580.616 47.28C580.112 46.776 579.764 46.152 579.572 45.408C579.404 44.64 579.32 43.596 579.32 42.276V30.108H576.296V29.388H579.32V24.636C581.312 24.636 583.04 24.252 584.504 23.484V29.388ZM602.689 20.1C603.697 20.1 604.489 20.352 605.065 20.856C605.665 21.336 605.965 22.008 605.965 22.872C605.965 23.736 605.665 24.42 605.065 24.924C604.489 25.404 603.697 25.644 602.689 25.644C601.681 25.644 600.877 25.404 600.277 24.924C599.701 24.42 599.413 23.736 599.413 22.872C599.413 22.008 599.701 21.336 600.277 20.856C600.877 20.352 601.681 20.1 602.689 20.1ZM605.497 44.652C605.497 45.636 605.665 46.32 606.001 46.704C606.361 47.064 606.961 47.244 607.801 47.244V48C605.401 47.904 603.805 47.856 603.013 47.856C602.269 47.856 600.601 47.904 598.009 48V47.244C598.873 47.244 599.473 47.064 599.809 46.704C600.145 46.32 600.313 45.636 600.313 44.652V33.312C600.313 32.208 600.145 31.404 599.809 30.9C599.473 30.396 598.873 30.144 598.009 30.144V29.388C598.777 29.46 599.521 29.496 600.241 29.496C602.377 29.496 604.129 29.328 605.497 28.992V44.652ZM622.756 28.884C624.58 28.884 625.9 29.352 626.716 30.288C627.124 30.744 627.412 31.332 627.58 32.052C627.748 32.772 627.832 33.744 627.832 34.968V44.652C627.832 45.636 628 46.32 628.336 46.704C628.696 47.064 629.296 47.244 630.136 47.244V48C627.736 47.904 626.152 47.856 625.384 47.856C624.664 47.856 623.104 47.904 620.704 48V47.244C621.424 47.244 621.928 47.064 622.216 46.704C622.504 46.32 622.648 45.636 622.648 44.652V33.456C622.648 32.472 622.48 31.728 622.144 31.224C621.832 30.72 621.256 30.468 620.416 30.468C619.432 30.468 618.592 30.876 617.896 31.692C617.2 32.484 616.852 33.468 616.852 34.644V44.652C616.852 45.636 616.996 46.32 617.284 46.704C617.572 47.064 618.076 47.244 618.796 47.244V48C616.588 47.904 615.1 47.856 614.332 47.856C613.612 47.856 611.956 47.904 609.364 48V47.244C610.228 47.244 610.828 47.064 611.164 46.704C611.5 46.32 611.668 45.636 611.668 44.652V33.312C611.668 32.208 611.5 31.404 611.164 30.9C610.828 30.396 610.228 30.144 609.364 30.144V29.388C610.132 29.46 610.876 29.496 611.596 29.496C613.732 29.496 615.484 29.328 616.852 28.992V32.232C617.932 30 619.9 28.884 622.756 28.884ZM119.224 73.884C120.112 73.884 120.952 73.98 121.744 74.172C122.536 74.364 123.196 74.628 123.724 74.964C124.348 75.348 124.828 75.84 125.164 76.44C125.524 77.016 125.704 77.652 125.704 78.348C125.704 79.188 125.44 79.884 124.912 80.436C124.384 80.964 123.7 81.228 122.86 81.228C122.02 81.228 121.348 80.988 120.844 80.508C120.34 80.028 120.088 79.38 120.088 78.564C120.088 77.844 120.316 77.22 120.772 76.692C121.228 76.164 121.792 75.804 122.464 75.612C122.272 75.348 121.972 75.144 121.564 75C121.18 74.832 120.76 74.748 120.304 74.748C118.864 74.748 117.736 75.54 116.92 77.124C116.128 78.684 115.732 80.736 115.732 83.28C115.732 85.848 116.188 87.696 117.1 88.824C118.012 89.952 119.152 90.516 120.52 90.516C121.336 90.516 122.152 90.3 122.968 89.868C123.808 89.436 124.564 88.68 125.236 87.6L125.848 87.816C125.368 89.376 124.528 90.72 123.328 91.848C122.128 92.952 120.58 93.504 118.684 93.504C116.212 93.504 114.196 92.688 112.636 91.056C111.076 89.424 110.296 87 110.296 83.784C110.296 81.672 110.68 79.872 111.448 78.384C112.216 76.896 113.272 75.78 114.616 75.036C115.96 74.268 117.496 73.884 119.224 73.884ZM137.011 73.884C139.771 73.884 141.931 74.676 143.491 76.26C145.051 77.82 145.831 80.304 145.831 83.712C145.831 87.12 145.051 89.604 143.491 91.164C141.931 92.724 139.771 93.504 137.011 93.504C134.275 93.504 132.115 92.724 130.531 91.164C128.971 89.604 128.191 87.12 128.191 83.712C128.191 80.304 128.971 77.82 130.531 76.26C132.115 74.676 134.275 73.884 137.011 73.884ZM137.011 74.604C135.979 74.604 135.151 75.36 134.527 76.872C133.927 78.36 133.627 80.64 133.627 83.712C133.627 86.784 133.927 89.064 134.527 90.552C135.151 92.04 135.979 92.784 137.011 92.784C138.067 92.784 138.895 92.052 139.495 90.588C140.095 89.1 140.395 86.808 140.395 83.712C140.395 80.616 140.083 78.324 139.459 76.836C138.859 75.348 138.043 74.604 137.011 74.604ZM177.023 89.652C177.023 90.636 177.191 91.32 177.527 91.704C177.887 92.064 178.487 92.244 179.327 92.244V93C176.927 92.904 175.343 92.856 174.575 92.856C173.903 92.856 172.415 92.904 170.111 93V92.244C170.759 92.244 171.203 92.064 171.443 91.704C171.707 91.344 171.839 90.66 171.839 89.652V78.456C171.839 77.448 171.683 76.704 171.371 76.224C171.083 75.72 170.519 75.468 169.679 75.468C168.791 75.468 168.011 75.84 167.339 76.584C166.691 77.328 166.307 78.24 166.187 79.32V79.968V89.652C166.187 90.636 166.331 91.32 166.619 91.704C166.931 92.064 167.483 92.244 168.275 92.244V93C165.971 92.904 164.459 92.856 163.739 92.856C163.067 92.856 161.579 92.904 159.275 93V92.244C159.923 92.244 160.367 92.064 160.607 91.704C160.871 91.32 161.003 90.636 161.003 89.652V78.456C161.003 77.448 160.871 76.704 160.607 76.224C160.343 75.72 159.827 75.468 159.059 75.468C158.099 75.468 157.271 75.876 156.575 76.692C155.903 77.484 155.567 78.468 155.567 79.644V89.652C155.567 90.636 155.687 91.32 155.927 91.704C156.191 92.064 156.647 92.244 157.295 92.244V93C155.183 92.904 153.767 92.856 153.047 92.856C152.327 92.856 150.671 92.904 148.079 93V92.244C148.943 92.244 149.543 92.064 149.879 91.704C150.215 91.32 150.383 90.636 150.383 89.652V78.312C150.383 77.208 150.215 76.404 149.879 75.9C149.543 75.396 148.943 75.144 148.079 75.144V74.388C148.847 74.46 149.591 74.496 150.311 74.496C152.447 74.496 154.199 74.328 155.567 73.992V77.232C156.623 75 158.483 73.884 161.147 73.884C162.971 73.884 164.291 74.352 165.107 75.288C165.563 75.768 165.863 76.488 166.007 77.448C166.631 76.152 167.447 75.24 168.455 74.712C169.463 74.16 170.639 73.884 171.983 73.884C173.807 73.884 175.127 74.352 175.943 75.288C176.327 75.72 176.603 76.308 176.771 77.052C176.939 77.796 177.023 78.768 177.023 79.968V89.652ZM193.593 73.884C194.841 73.884 195.945 74.22 196.905 74.892C197.889 75.564 198.657 76.572 199.209 77.916C199.761 79.26 200.037 80.904 200.037 82.848C200.037 86.28 199.281 88.92 197.769 90.768C196.281 92.592 194.253 93.504 191.685 93.504C190.965 93.504 190.281 93.408 189.633 93.216C189.009 93.024 188.469 92.736 188.013 92.352V95.952C188.013 97.008 188.277 97.74 188.805 98.148C189.333 98.556 190.149 98.76 191.253 98.76V99.516L190.281 99.48C187.617 99.408 185.925 99.372 185.205 99.372C184.485 99.372 182.973 99.42 180.669 99.516V98.76C181.461 98.76 182.013 98.58 182.325 98.22C182.661 97.884 182.829 97.248 182.829 96.312V78.312C182.829 77.208 182.649 76.404 182.289 75.9C181.953 75.396 181.365 75.144 180.525 75.144V74.388C181.293 74.46 182.037 74.496 182.757 74.496C184.845 74.496 186.597 74.328 188.013 73.992V77.304C188.517 76.2 189.249 75.36 190.209 74.784C191.169 74.184 192.297 73.884 193.593 73.884ZM190.281 92.532C191.817 92.532 192.921 91.776 193.593 90.264C194.265 88.728 194.601 86.496 194.601 83.568C194.601 80.64 194.325 78.552 193.773 77.304C193.245 76.056 192.477 75.432 191.469 75.432C190.653 75.432 189.921 75.708 189.273 76.26C188.649 76.812 188.229 77.58 188.013 78.564V91.56C188.589 92.208 189.345 92.532 190.281 92.532ZM209.599 89.652C209.599 90.636 209.767 91.32 210.103 91.704C210.439 92.064 211.039 92.244 211.903 92.244V93C209.407 92.904 207.799 92.856 207.079 92.856C206.263 92.856 204.607 92.904 202.111 93V92.244C202.951 92.244 203.539 92.064 203.875 91.704C204.235 91.32 204.415 90.636 204.415 89.652V69.132C204.415 68.028 204.235 67.224 203.875 66.72C203.539 66.216 202.951 65.964 202.111 65.964V65.208C202.879 65.28 203.623 65.316 204.343 65.316C206.431 65.316 208.183 65.148 209.599 64.812V89.652ZM223.667 90.552C225.635 90.552 227.219 89.592 228.419 87.672L229.067 87.888C228.587 89.448 227.723 90.78 226.475 91.884C225.251 92.964 223.715 93.504 221.867 93.504C219.323 93.504 217.295 92.7 215.783 91.092C214.295 89.46 213.551 87.06 213.551 83.892C213.551 80.652 214.355 78.18 215.963 76.476C217.571 74.748 219.707 73.884 222.371 73.884C226.883 73.884 229.139 76.548 229.139 81.876H219.023C218.999 82.236 218.987 82.8 218.987 83.568C218.987 85.152 219.203 86.472 219.635 87.528C220.091 88.584 220.667 89.352 221.363 89.832C222.083 90.312 222.851 90.552 223.667 90.552ZM222.155 74.64C221.291 74.64 220.571 75.18 219.995 76.26C219.443 77.316 219.095 78.96 218.951 81.192H224.603C224.651 79.296 224.459 77.736 224.027 76.512C223.619 75.264 222.995 74.64 222.155 74.64ZM238.531 74.388H242.779V75.108H238.531V89.652C238.531 90.372 238.651 90.888 238.891 91.2C239.155 91.488 239.563 91.632 240.115 91.632C241.147 91.632 241.963 90.912 242.563 89.472L243.175 89.796C242.263 92.268 240.619 93.504 238.243 93.504C236.659 93.504 235.459 93.096 234.643 92.28C234.139 91.776 233.791 91.152 233.599 90.408C233.431 89.64 233.347 88.596 233.347 87.276V75.108H230.323V74.388H233.347V69.636C235.339 69.636 237.067 69.252 238.531 68.484V74.388ZM248.56 65.1C249.568 65.1 250.36 65.352 250.936 65.856C251.536 66.336 251.836 67.008 251.836 67.872C251.836 68.736 251.536 69.42 250.936 69.924C250.36 70.404 249.568 70.644 248.56 70.644C247.552 70.644 246.748 70.404 246.148 69.924C245.572 69.42 245.284 68.736 245.284 67.872C245.284 67.008 245.572 66.336 246.148 65.856C246.748 65.352 247.552 65.1 248.56 65.1ZM251.368 89.652C251.368 90.636 251.536 91.32 251.872 91.704C252.232 92.064 252.832 92.244 253.672 92.244V93C251.272 92.904 249.676 92.856 248.884 92.856C248.14 92.856 246.472 92.904 243.88 93V92.244C244.744 92.244 245.344 92.064 245.68 91.704C246.016 91.32 246.184 90.636 246.184 89.652V78.312C246.184 77.208 246.016 76.404 245.68 75.9C245.344 75.396 244.744 75.144 243.88 75.144V74.388C244.648 74.46 245.392 74.496 246.112 74.496C248.248 74.496 250 74.328 251.368 73.992V89.652ZM268.627 73.884C270.451 73.884 271.771 74.352 272.587 75.288C272.995 75.744 273.283 76.332 273.451 77.052C273.619 77.772 273.703 78.744 273.703 79.968V89.652C273.703 90.636 273.871 91.32 274.207 91.704C274.567 92.064 275.167 92.244 276.007 92.244V93C273.607 92.904 272.023 92.856 271.255 92.856C270.535 92.856 268.975 92.904 266.575 93V92.244C267.295 92.244 267.799 92.064 268.087 91.704C268.375 91.32 268.519 90.636 268.519 89.652V78.456C268.519 77.472 268.351 76.728 268.015 76.224C267.703 75.72 267.127 75.468 266.287 75.468C265.303 75.468 264.463 75.876 263.767 76.692C263.071 77.484 262.723 78.468 262.723 79.644V89.652C262.723 90.636 262.867 91.32 263.155 91.704C263.443 92.064 263.947 92.244 264.667 92.244V93C262.459 92.904 260.971 92.856 260.203 92.856C259.483 92.856 257.827 92.904 255.235 93V92.244C256.099 92.244 256.699 92.064 257.035 91.704C257.371 91.32 257.539 90.636 257.539 89.652V78.312C257.539 77.208 257.371 76.404 257.035 75.9C256.699 75.396 256.099 75.144 255.235 75.144V74.388C256.003 74.46 256.747 74.496 257.467 74.496C259.603 74.496 261.355 74.328 262.723 73.992V77.232C263.803 75 265.771 73.884 268.627 73.884ZM294.166 77.844C293.686 77.844 293.278 77.688 292.942 77.376C292.606 77.04 292.438 76.572 292.438 75.972C292.438 75.396 292.582 74.808 292.87 74.208C292.294 74.448 291.814 74.724 291.43 75.036C291.07 75.324 290.758 75.696 290.494 76.152C291.238 77.04 291.61 78.192 291.61 79.608C291.61 81.504 290.95 82.932 289.63 83.892C288.334 84.852 286.606 85.332 284.446 85.332H283.798C282.814 85.908 282.322 86.544 282.322 87.24C282.322 88.008 282.802 88.392 283.762 88.392H287.686C289.798 88.392 291.478 88.788 292.726 89.58C293.998 90.348 294.634 91.536 294.634 93.144C294.634 94.368 294.238 95.472 293.446 96.456C292.678 97.464 291.502 98.268 289.918 98.868C288.334 99.468 286.39 99.768 284.086 99.768C281.758 99.768 279.886 99.468 278.47 98.868C277.078 98.292 276.382 97.452 276.382 96.348C276.382 95.604 276.718 94.932 277.39 94.332C278.062 93.756 279.058 93.3 280.378 92.964L280.702 93.54C279.838 94.26 279.406 95.088 279.406 96.024C279.406 97.032 279.862 97.8 280.774 98.328C281.686 98.88 282.946 99.156 284.554 99.156C286.234 99.156 287.59 98.82 288.622 98.148C289.678 97.476 290.206 96.528 290.206 95.304C290.206 94.512 289.906 93.888 289.306 93.432C288.73 92.976 287.71 92.748 286.246 92.748H284.014C282.478 92.748 281.278 92.496 280.414 91.992C279.55 91.464 279.118 90.672 279.118 89.616C279.118 88.728 279.43 87.936 280.054 87.24C280.678 86.544 281.626 85.872 282.898 85.224C281.17 85.008 279.802 84.432 278.794 83.496C277.786 82.56 277.282 81.264 277.282 79.608C277.282 77.712 277.93 76.284 279.226 75.324C280.546 74.364 282.286 73.884 284.446 73.884C286.846 73.884 288.682 74.448 289.954 75.576C290.41 74.928 290.974 74.412 291.646 74.028C292.318 73.644 293.002 73.452 293.698 73.452C294.418 73.452 294.982 73.668 295.39 74.1C295.822 74.508 296.038 75.048 296.038 75.72C296.038 76.392 295.846 76.92 295.462 77.304C295.102 77.664 294.67 77.844 294.166 77.844ZM284.446 84.684C285.118 84.684 285.622 84.3 285.958 83.532C286.318 82.764 286.498 81.456 286.498 79.608C286.498 77.76 286.318 76.452 285.958 75.684C285.622 74.916 285.118 74.532 284.446 74.532C283.774 74.532 283.258 74.916 282.898 75.684C282.562 76.452 282.394 77.76 282.394 79.608C282.394 81.456 282.562 82.764 282.898 83.532C283.258 84.3 283.774 84.684 284.446 84.684ZM312.289 74.388H316.537V75.108H312.289V89.652C312.289 90.372 312.409 90.888 312.649 91.2C312.913 91.488 313.321 91.632 313.873 91.632C314.905 91.632 315.721 90.912 316.321 89.472L316.933 89.796C316.021 92.268 314.377 93.504 312.001 93.504C310.417 93.504 309.217 93.096 308.401 92.28C307.897 91.776 307.549 91.152 307.357 90.408C307.189 89.64 307.105 88.596 307.105 87.276V75.108H304.081V74.388H307.105V69.636C309.097 69.636 310.825 69.252 312.289 68.484V74.388ZM324.945 77.232C326.025 75 327.981 73.884 330.813 73.884C332.685 73.884 334.005 74.352 334.773 75.288C335.181 75.744 335.469 76.344 335.637 77.088C335.829 77.808 335.925 78.768 335.925 79.968V89.652C335.925 90.636 336.093 91.32 336.429 91.704C336.765 92.064 337.365 92.244 338.229 92.244V93C335.733 92.904 334.149 92.856 333.477 92.856C332.661 92.856 331.101 92.904 328.797 93V92.244C329.517 92.244 330.021 92.064 330.309 91.704C330.597 91.32 330.741 90.636 330.741 89.652V78.456C330.741 77.472 330.573 76.728 330.237 76.224C329.925 75.72 329.349 75.468 328.509 75.468C327.501 75.468 326.649 75.864 325.953 76.656C325.281 77.424 324.945 78.408 324.945 79.608V89.652C324.945 90.636 325.089 91.32 325.377 91.704C325.665 92.064 326.169 92.244 326.889 92.244V93C324.585 92.904 323.097 92.856 322.425 92.856C321.609 92.856 319.953 92.904 317.457 93V92.244C318.297 92.244 318.885 92.064 319.221 91.704C319.581 91.32 319.761 90.636 319.761 89.652V69.168C319.761 68.064 319.581 67.26 319.221 66.756C318.885 66.252 318.297 66 317.457 66V65.244C318.225 65.316 318.969 65.352 319.689 65.352C321.777 65.352 323.529 65.184 324.945 64.848V77.232ZM350.124 90.552C352.092 90.552 353.676 89.592 354.876 87.672L355.524 87.888C355.044 89.448 354.18 90.78 352.932 91.884C351.708 92.964 350.172 93.504 348.324 93.504C345.78 93.504 343.752 92.7 342.24 91.092C340.752 89.46 340.008 87.06 340.008 83.892C340.008 80.652 340.812 78.18 342.42 76.476C344.028 74.748 346.164 73.884 348.828 73.884C353.34 73.884 355.596 76.548 355.596 81.876H345.48C345.456 82.236 345.444 82.8 345.444 83.568C345.444 85.152 345.66 86.472 346.092 87.528C346.548 88.584 347.124 89.352 347.82 89.832C348.54 90.312 349.308 90.552 350.124 90.552ZM348.612 74.64C347.748 74.64 347.028 75.18 346.452 76.26C345.9 77.316 345.552 78.96 345.408 81.192H351.06C351.108 79.296 350.916 77.736 350.484 76.512C350.076 75.264 349.452 74.64 348.612 74.64ZM385.667 89.652C385.667 90.636 385.847 91.32 386.207 91.704C386.591 92.064 387.251 92.244 388.187 92.244V93C385.595 92.904 383.927 92.856 383.183 92.856C382.439 92.856 380.771 92.904 378.179 93V92.244C379.043 92.244 379.643 92.064 379.979 91.704C380.315 91.32 380.483 90.636 380.483 89.652V68.664C380.483 67.56 380.255 66.78 379.799 66.324C379.559 66.06 379.235 65.856 378.827 65.712C378.443 65.568 378.035 65.496 377.603 65.496C376.955 65.496 376.403 65.604 375.947 65.82C375.515 66.012 375.131 66.312 374.795 66.72C374.315 67.248 374.003 67.92 373.859 68.736C373.739 69.552 373.679 70.788 373.679 72.444V74.424H377.459V75.144H373.679V89.652C373.679 90.636 373.919 91.32 374.399 91.704C374.879 92.064 375.599 92.244 376.559 92.244V93L375.623 92.964C373.247 92.892 371.771 92.856 371.195 92.856C370.427 92.856 368.927 92.892 366.695 92.964C366.527 92.988 366.287 93 365.975 93V92.244C366.911 92.244 367.559 92.064 367.919 91.704C368.303 91.32 368.495 90.636 368.495 89.652V75.144H365.831V74.424H368.495C368.495 72.6 368.699 71.076 369.107 69.852C369.515 68.604 370.175 67.584 371.087 66.792C371.879 66.12 372.791 65.628 373.823 65.316C374.855 65.004 375.923 64.848 377.027 64.848C377.507 64.848 378.251 64.896 379.259 64.992C380.411 65.088 381.323 65.136 381.995 65.136C383.123 65.136 384.347 65.016 385.667 64.776V89.652ZM398.574 73.884C401.334 73.884 403.494 74.676 405.054 76.26C406.614 77.82 407.394 80.304 407.394 83.712C407.394 87.12 406.614 89.604 405.054 91.164C403.494 92.724 401.334 93.504 398.574 93.504C395.838 93.504 393.678 92.724 392.094 91.164C390.534 89.604 389.754 87.12 389.754 83.712C389.754 80.304 390.534 77.82 392.094 76.26C393.678 74.676 395.838 73.884 398.574 73.884ZM398.574 74.604C397.542 74.604 396.714 75.36 396.09 76.872C395.49 78.36 395.19 80.64 395.19 83.712C395.19 86.784 395.49 89.064 396.09 90.552C396.714 92.04 397.542 92.784 398.574 92.784C399.63 92.784 400.458 92.052 401.058 90.588C401.658 89.1 401.958 86.808 401.958 83.712C401.958 80.616 401.646 78.324 401.022 76.836C400.422 75.348 399.606 74.604 398.574 74.604ZM433.951 74.496C435.175 74.496 436.087 74.46 436.687 74.388V75.108C436.183 75.252 435.727 75.552 435.319 76.008C434.911 76.464 434.551 77.196 434.239 78.204L429.451 93.072C429.187 93.048 428.791 93.036 428.263 93.036C427.759 93.036 427.375 93.048 427.111 93.072L422.215 79.716L418.219 93.072C417.979 93.048 417.595 93.036 417.067 93.036C416.539 93.036 416.143 93.048 415.879 93.072L410.191 77.16C409.903 76.32 409.579 75.78 409.219 75.54C408.859 75.276 408.487 75.144 408.103 75.144V74.388C409.663 74.532 411.367 74.604 413.215 74.604C414.415 74.604 415.975 74.532 417.895 74.388V75.144C417.103 75.144 416.527 75.204 416.167 75.324C415.831 75.444 415.663 75.732 415.663 76.188C415.663 76.5 415.723 76.824 415.843 77.16L419.083 87.348L423.007 74.352L424.339 74.388L425.635 74.352L430.315 88.104L432.583 80.868C432.919 79.74 433.087 78.828 433.087 78.132C433.087 76.26 432.139 75.252 430.243 75.108V74.388C431.371 74.46 432.607 74.496 433.951 74.496Z" fill="black"/>
</svg>
