<svg width="634" height="102" viewBox="0 0 634 102" fill="none" xmlns="http://www.w3.org/2000/svg">
<rect x="19" y="53" width="42" height="49" fill="#F4B85D"/>
<path d="M1 53L39.4753 1L79 53H39.4753H1Z" fill="#F4B85D" stroke="#F4B85D"/>
<path d="M117.152 45.508C117.152 46.54 117.344 47.26 117.728 47.668C118.112 48.052 118.784 48.244 119.744 48.244V49C117.152 48.904 115.496 48.856 114.776 48.856C113.984 48.856 112.256 48.892 109.592 48.964L108.584 49V48.244C109.712 48.244 110.552 48.028 111.104 47.596C111.68 47.164 111.968 46.396 111.968 45.292V36.508C111.968 35.356 111.86 34.516 111.644 33.988C111.452 33.436 111.116 33.076 110.636 32.908C110.156 32.716 109.424 32.62 108.44 32.62V31.828C110.528 31.78 112.244 31.624 113.588 31.36C114.932 31.072 116.12 30.616 117.152 29.992V45.508ZM132.589 29.884C134.485 29.884 136.177 30.28 137.665 31.072C139.153 31.864 140.305 32.98 141.121 34.42C141.961 35.86 142.381 37.516 142.381 39.388C142.381 41.308 141.949 43.036 141.085 44.572C140.245 46.108 139.045 47.32 137.485 48.208C135.949 49.072 134.185 49.504 132.193 49.504C130.321 49.504 128.641 49.108 127.153 48.316C125.665 47.524 124.501 46.408 123.661 44.968C122.821 43.528 122.401 41.86 122.401 39.964C122.401 38.068 122.821 36.352 123.661 34.816C124.525 33.28 125.725 32.08 127.261 31.216C128.797 30.328 130.573 29.884 132.589 29.884ZM132.265 30.532C131.401 30.532 130.633 30.904 129.961 31.648C129.289 32.392 128.761 33.472 128.377 34.888C128.017 36.28 127.837 37.936 127.837 39.856C127.837 42.904 128.269 45.172 129.133 46.66C130.021 48.124 131.149 48.856 132.517 48.856C133.381 48.856 134.137 48.484 134.785 47.74C135.457 46.972 135.985 45.892 136.369 44.5C136.753 43.084 136.945 41.416 136.945 39.496C136.945 36.448 136.501 34.192 135.613 32.728C134.749 31.264 133.633 30.532 132.265 30.532ZM155.792 29.884C157.688 29.884 159.38 30.28 160.868 31.072C162.356 31.864 163.508 32.98 164.324 34.42C165.164 35.86 165.584 37.516 165.584 39.388C165.584 41.308 165.152 43.036 164.288 44.572C163.448 46.108 162.248 47.32 160.688 48.208C159.152 49.072 157.388 49.504 155.396 49.504C153.524 49.504 151.844 49.108 150.356 48.316C148.868 47.524 147.704 46.408 146.864 44.968C146.024 43.528 145.604 41.86 145.604 39.964C145.604 38.068 146.024 36.352 146.864 34.816C147.728 33.28 148.928 32.08 150.464 31.216C152 30.328 153.776 29.884 155.792 29.884ZM155.468 30.532C154.604 30.532 153.836 30.904 153.164 31.648C152.492 32.392 151.964 33.472 151.58 34.888C151.22 36.28 151.04 37.936 151.04 39.856C151.04 42.904 151.472 45.172 152.336 46.66C153.224 48.124 154.352 48.856 155.72 48.856C156.584 48.856 157.34 48.484 157.988 47.74C158.66 46.972 159.188 45.892 159.572 44.5C159.956 43.084 160.148 41.416 160.148 39.496C160.148 36.448 159.704 34.192 158.816 32.728C157.952 31.264 156.836 30.532 155.468 30.532ZM191.344 19.804L170.284 50.98L169.6 50.512L190.66 19.336L191.344 19.804ZM174.244 21.604C175.996 21.604 177.4 22.132 178.456 23.188C179.536 24.22 180.076 25.648 180.076 27.472C180.076 28.672 179.824 29.728 179.32 30.64C178.816 31.552 178.12 32.26 177.232 32.764C176.344 33.268 175.348 33.52 174.244 33.52C172.492 33.52 171.076 33.004 169.996 31.972C168.916 30.916 168.375 29.476 168.375 27.652C168.375 26.476 168.628 25.432 169.132 24.52C169.636 23.584 170.332 22.864 171.22 22.36C172.132 21.856 173.14 21.604 174.244 21.604ZM174.172 22.252C172.612 22.252 171.832 24.04 171.832 27.616C171.832 29.344 172.048 30.652 172.479 31.54C172.912 32.428 173.524 32.872 174.316 32.872C175.852 32.872 176.62 31.096 176.62 27.544C176.62 25.792 176.404 24.472 175.972 23.584C175.564 22.696 174.964 22.252 174.172 22.252ZM186.34 37.588C188.092 37.588 189.496 38.116 190.552 39.172C191.632 40.204 192.172 41.632 192.172 43.456C192.172 44.656 191.92 45.712 191.416 46.624C190.912 47.536 190.216 48.244 189.328 48.748C188.44 49.252 187.444 49.504 186.34 49.504C184.588 49.504 183.172 48.988 182.092 47.956C181.012 46.9 180.472 45.46 180.472 43.636C180.472 42.46 180.724 41.416 181.228 40.504C181.732 39.568 182.428 38.848 183.316 38.344C184.228 37.84 185.236 37.588 186.34 37.588ZM186.268 38.236C184.708 38.236 183.928 40.024 183.928 43.6C183.928 45.328 184.144 46.636 184.576 47.524C185.008 48.412 185.62 48.856 186.412 48.856C187.948 48.856 188.716 47.08 188.716 43.528C188.716 41.776 188.5 40.456 188.068 39.568C187.66 38.68 187.06 38.236 186.268 38.236ZM211.933 29.884C214.693 29.884 216.853 30.676 218.413 32.26C219.973 33.82 220.753 36.304 220.753 39.712C220.753 43.12 219.973 45.604 218.413 47.164C216.853 48.724 214.693 49.504 211.933 49.504C209.197 49.504 207.037 48.724 205.453 47.164C203.893 45.604 203.113 43.12 203.113 39.712C203.113 36.304 203.893 33.82 205.453 32.26C207.037 30.676 209.197 29.884 211.933 29.884ZM211.933 30.604C210.901 30.604 210.073 31.36 209.449 32.872C208.849 34.36 208.549 36.64 208.549 39.712C208.549 42.784 208.849 45.064 209.449 46.552C210.073 48.04 210.901 48.784 211.933 48.784C212.989 48.784 213.817 48.052 214.417 46.588C215.017 45.1 215.317 42.808 215.317 39.712C215.317 36.616 215.005 34.324 214.381 32.836C213.781 31.348 212.965 30.604 211.933 30.604ZM232.505 20.848C233.993 20.848 235.277 21.244 236.357 22.036C236.717 22.324 237.005 22.708 237.221 23.188C237.461 23.644 237.581 24.16 237.581 24.736C237.581 25.408 237.341 25.996 236.861 26.5C236.381 26.98 235.769 27.22 235.025 27.22C234.209 27.22 233.549 26.992 233.045 26.536C232.541 26.08 232.289 25.456 232.289 24.664C232.289 24.04 232.469 23.488 232.829 23.008C233.189 22.528 233.717 22.192 234.413 22C234.341 21.856 234.185 21.736 233.945 21.64C233.729 21.544 233.453 21.496 233.117 21.496C232.205 21.496 231.557 21.808 231.173 22.432C230.909 22.792 230.729 23.32 230.633 24.016C230.537 24.712 230.489 25.756 230.489 27.148V30.424H234.341V31.144H230.489V45.292C230.489 46.396 230.765 47.164 231.317 47.596C231.893 48.028 232.745 48.244 233.873 48.244V49L232.865 48.964C230.201 48.892 228.473 48.856 227.681 48.856C226.961 48.856 225.401 48.904 223.001 49V48.244C223.865 48.244 224.465 48.064 224.801 47.704C225.137 47.32 225.305 46.636 225.305 45.652V31.144H222.857V30.424H225.305C225.305 28.336 225.473 26.728 225.809 25.6C226.145 24.448 226.733 23.464 227.573 22.648C228.101 22.12 228.809 21.688 229.697 21.352C230.585 21.016 231.521 20.848 232.505 20.848ZM261.987 45.076C261.987 46.18 262.155 46.984 262.491 47.488C262.851 47.992 263.451 48.244 264.291 48.244V49C263.547 48.928 262.803 48.892 262.059 48.892C259.971 48.892 258.219 49.06 256.803 49.396V46.156C255.699 48.388 253.767 49.504 251.007 49.504C249.207 49.504 247.899 49.036 247.083 48.1C246.699 47.644 246.411 47.056 246.219 46.336C246.051 45.592 245.967 44.62 245.967 43.42V34.312C245.967 33.208 245.787 32.404 245.427 31.9C245.091 31.396 244.503 31.144 243.663 31.144V30.388C244.407 30.46 245.151 30.496 245.895 30.496C247.983 30.496 249.735 30.328 251.151 29.992V44.896C251.151 45.904 251.295 46.66 251.583 47.164C251.895 47.668 252.471 47.92 253.311 47.92C254.271 47.92 255.087 47.524 255.759 46.732C256.455 45.916 256.803 44.92 256.803 43.744V34.312C256.803 33.208 256.623 32.404 256.263 31.9C255.927 31.396 255.339 31.144 254.499 31.144V30.388C255.267 30.46 256.011 30.496 256.731 30.496C258.819 30.496 260.571 30.328 261.987 29.992V45.076ZM273.019 29.884C273.931 29.884 274.771 30.004 275.539 30.244C276.307 30.46 276.895 30.712 277.303 31C277.543 31.168 277.759 31.252 277.951 31.252C278.167 31.252 278.347 31.144 278.491 30.928C278.659 30.688 278.767 30.352 278.815 29.92H279.571C279.475 31.144 279.427 33.256 279.427 36.256H278.671C278.455 34.672 277.975 33.352 277.231 32.296C276.511 31.216 275.455 30.676 274.063 30.676C273.343 30.676 272.743 30.88 272.263 31.288C271.807 31.696 271.579 32.26 271.579 32.98C271.579 33.796 271.855 34.504 272.407 35.104C272.959 35.68 273.823 36.388 274.999 37.228L276.043 37.984C277.507 39.088 278.587 40.072 279.283 40.936C279.979 41.8 280.327 42.88 280.327 44.176C280.327 45.232 280.015 46.168 279.391 46.984C278.791 47.8 277.975 48.424 276.943 48.856C275.911 49.288 274.771 49.504 273.523 49.504C272.203 49.504 271.075 49.252 270.139 48.748C269.371 48.364 268.819 48.112 268.483 47.992C268.243 47.92 268.027 48.004 267.835 48.244C267.667 48.46 267.535 48.796 267.439 49.252H266.683C266.779 47.884 266.827 45.484 266.827 42.052H267.583C268.063 46.468 269.683 48.676 272.443 48.676C273.139 48.676 273.727 48.472 274.207 48.064C274.711 47.632 274.963 46.984 274.963 46.12C274.963 45.448 274.807 44.848 274.495 44.32C274.207 43.792 273.835 43.324 273.379 42.916C272.923 42.508 272.239 41.944 271.327 41.224C270.247 40.36 269.419 39.664 268.843 39.136C268.291 38.608 267.811 37.984 267.403 37.264C267.019 36.544 266.827 35.74 266.827 34.852C266.827 33.316 267.427 32.104 268.627 31.216C269.827 30.328 271.291 29.884 273.019 29.884ZM293.104 46.552C295.072 46.552 296.656 45.592 297.856 43.672L298.504 43.888C298.024 45.448 297.16 46.78 295.912 47.884C294.688 48.964 293.152 49.504 291.304 49.504C288.76 49.504 286.732 48.7 285.22 47.092C283.732 45.46 282.988 43.06 282.988 39.892C282.988 36.652 283.792 34.18 285.4 32.476C287.008 30.748 289.144 29.884 291.808 29.884C296.32 29.884 298.576 32.548 298.576 37.876H288.46C288.436 38.236 288.424 38.8 288.424 39.568C288.424 41.152 288.64 42.472 289.072 43.528C289.528 44.584 290.104 45.352 290.8 45.832C291.52 46.312 292.288 46.552 293.104 46.552ZM291.592 30.64C290.728 30.64 290.008 31.18 289.432 32.26C288.88 33.316 288.532 34.96 288.388 37.192H294.04C294.088 35.296 293.896 33.736 293.464 32.512C293.056 31.264 292.432 30.64 291.592 30.64ZM312.834 29.884C313.914 29.884 314.73 30.208 315.282 30.856C315.834 31.504 316.11 32.284 316.11 33.196C316.11 34.084 315.846 34.816 315.318 35.392C314.814 35.944 314.142 36.22 313.302 36.22C312.486 36.22 311.838 36.016 311.358 35.608C310.878 35.176 310.638 34.612 310.638 33.916C310.638 32.764 311.166 31.828 312.222 31.108C312.126 31.084 311.982 31.072 311.79 31.072C311.55 31.072 311.358 31.096 311.214 31.144C310.302 31.288 309.522 31.84 308.874 32.8C308.25 33.76 307.938 34.744 307.938 35.752V45.292C307.938 46.396 308.202 47.164 308.73 47.596C309.282 48.028 310.146 48.244 311.322 48.244V49C310.986 49 310.71 48.988 310.494 48.964C308.046 48.892 306.414 48.856 305.598 48.856C304.95 48.856 303.474 48.892 301.17 48.964C300.978 48.988 300.738 49 300.45 49V48.244C301.314 48.244 301.914 48.064 302.25 47.704C302.586 47.32 302.754 46.636 302.754 45.652V34.312C302.754 33.208 302.586 32.404 302.25 31.9C301.914 31.396 301.314 31.144 300.45 31.144V30.388C301.218 30.46 301.962 30.496 302.682 30.496C304.818 30.496 306.57 30.328 307.938 29.992V33.34C308.394 32.308 309.054 31.48 309.918 30.856C310.782 30.208 311.754 29.884 312.834 29.884ZM324.383 29.884C325.295 29.884 326.135 30.004 326.903 30.244C327.671 30.46 328.259 30.712 328.667 31C328.907 31.168 329.123 31.252 329.315 31.252C329.531 31.252 329.711 31.144 329.855 30.928C330.023 30.688 330.131 30.352 330.179 29.92H330.935C330.839 31.144 330.791 33.256 330.791 36.256H330.035C329.819 34.672 329.339 33.352 328.595 32.296C327.875 31.216 326.819 30.676 325.427 30.676C324.707 30.676 324.107 30.88 323.627 31.288C323.171 31.696 322.943 32.26 322.943 32.98C322.943 33.796 323.219 34.504 323.771 35.104C324.323 35.68 325.187 36.388 326.363 37.228L327.407 37.984C328.871 39.088 329.951 40.072 330.647 40.936C331.343 41.8 331.691 42.88 331.691 44.176C331.691 45.232 331.379 46.168 330.755 46.984C330.155 47.8 329.339 48.424 328.307 48.856C327.275 49.288 326.135 49.504 324.887 49.504C323.567 49.504 322.439 49.252 321.503 48.748C320.735 48.364 320.183 48.112 319.847 47.992C319.607 47.92 319.391 48.004 319.199 48.244C319.031 48.46 318.899 48.796 318.803 49.252H318.047C318.143 47.884 318.191 45.484 318.191 42.052H318.947C319.427 46.468 321.047 48.676 323.807 48.676C324.503 48.676 325.091 48.472 325.571 48.064C326.075 47.632 326.327 46.984 326.327 46.12C326.327 45.448 326.171 44.848 325.859 44.32C325.571 43.792 325.199 43.324 324.743 42.916C324.287 42.508 323.603 41.944 322.691 41.224C321.611 40.36 320.783 39.664 320.207 39.136C319.655 38.608 319.175 37.984 318.767 37.264C318.383 36.544 318.191 35.74 318.191 34.852C318.191 33.316 318.791 32.104 319.991 31.216C321.191 30.328 322.655 29.884 324.383 29.884ZM365.998 30.496C367.222 30.496 368.134 30.46 368.734 30.388V31.108C368.23 31.252 367.774 31.552 367.366 32.008C366.958 32.464 366.598 33.196 366.286 34.204L361.498 49.072C361.234 49.048 360.838 49.036 360.31 49.036C359.806 49.036 359.422 49.048 359.158 49.072L354.262 35.716L350.266 49.072C350.026 49.048 349.642 49.036 349.114 49.036C348.586 49.036 348.19 49.048 347.926 49.072L342.238 33.16C341.95 32.32 341.626 31.78 341.266 31.54C340.906 31.276 340.534 31.144 340.15 31.144V30.388C341.71 30.532 343.414 30.604 345.262 30.604C346.462 30.604 348.022 30.532 349.942 30.388V31.144C349.15 31.144 348.574 31.204 348.214 31.324C347.878 31.444 347.71 31.732 347.71 32.188C347.71 32.5 347.77 32.824 347.89 33.16L351.13 43.348L355.054 30.352L356.386 30.388L357.682 30.352L362.362 44.104L364.63 36.868C364.966 35.74 365.134 34.828 365.134 34.132C365.134 32.26 364.186 31.252 362.29 31.108V30.388C363.418 30.46 364.654 30.496 365.998 30.496ZM379.659 46.552C381.627 46.552 383.211 45.592 384.411 43.672L385.059 43.888C384.579 45.448 383.715 46.78 382.467 47.884C381.243 48.964 379.707 49.504 377.859 49.504C375.315 49.504 373.287 48.7 371.775 47.092C370.287 45.46 369.543 43.06 369.543 39.892C369.543 36.652 370.347 34.18 371.955 32.476C373.563 30.748 375.699 29.884 378.363 29.884C382.875 29.884 385.131 32.548 385.131 37.876H375.015C374.991 38.236 374.979 38.8 374.979 39.568C374.979 41.152 375.195 42.472 375.627 43.528C376.083 44.584 376.659 45.352 377.355 45.832C378.075 46.312 378.843 46.552 379.659 46.552ZM378.147 30.64C377.283 30.64 376.563 31.18 375.987 32.26C375.435 33.316 375.087 34.96 374.943 37.192H380.595C380.643 35.296 380.451 33.736 380.019 32.512C379.611 31.264 378.987 30.64 378.147 30.64ZM399.389 29.884C400.469 29.884 401.285 30.208 401.837 30.856C402.389 31.504 402.665 32.284 402.665 33.196C402.665 34.084 402.401 34.816 401.873 35.392C401.369 35.944 400.697 36.22 399.857 36.22C399.041 36.22 398.393 36.016 397.913 35.608C397.433 35.176 397.193 34.612 397.193 33.916C397.193 32.764 397.721 31.828 398.777 31.108C398.681 31.084 398.537 31.072 398.345 31.072C398.105 31.072 397.913 31.096 397.769 31.144C396.857 31.288 396.077 31.84 395.429 32.8C394.805 33.76 394.493 34.744 394.493 35.752V45.292C394.493 46.396 394.757 47.164 395.285 47.596C395.837 48.028 396.701 48.244 397.877 48.244V49C397.541 49 397.265 48.988 397.049 48.964C394.601 48.892 392.969 48.856 392.153 48.856C391.505 48.856 390.029 48.892 387.725 48.964C387.533 48.988 387.293 49 387.005 49V48.244C387.869 48.244 388.469 48.064 388.805 47.704C389.141 47.32 389.309 46.636 389.309 45.652V34.312C389.309 33.208 389.141 32.404 388.805 31.9C388.469 31.396 387.869 31.144 387.005 31.144V30.388C387.773 30.46 388.517 30.496 389.237 30.496C391.373 30.496 393.125 30.328 394.493 29.992V33.34C394.949 32.308 395.609 31.48 396.473 30.856C397.337 30.208 398.309 29.884 399.389 29.884ZM413.901 46.552C415.869 46.552 417.453 45.592 418.653 43.672L419.301 43.888C418.821 45.448 417.957 46.78 416.709 47.884C415.485 48.964 413.949 49.504 412.101 49.504C409.557 49.504 407.529 48.7 406.017 47.092C404.529 45.46 403.785 43.06 403.785 39.892C403.785 36.652 404.589 34.18 406.197 32.476C407.805 30.748 409.941 29.884 412.605 29.884C417.117 29.884 419.373 32.548 419.373 37.876H409.257C409.233 38.236 409.221 38.8 409.221 39.568C409.221 41.152 409.437 42.472 409.869 43.528C410.325 44.584 410.901 45.352 411.597 45.832C412.317 46.312 413.085 46.552 413.901 46.552ZM412.389 30.64C411.525 30.64 410.805 31.18 410.229 32.26C409.677 33.316 409.329 34.96 409.185 37.192H414.837C414.885 35.296 414.693 33.736 414.261 32.512C413.853 31.264 413.229 30.64 412.389 30.64ZM439.22 29.884C440.108 29.884 440.948 29.98 441.74 30.172C442.532 30.364 443.192 30.628 443.72 30.964C444.344 31.348 444.824 31.84 445.16 32.44C445.52 33.016 445.7 33.652 445.7 34.348C445.7 35.188 445.436 35.884 444.908 36.436C444.38 36.964 443.696 37.228 442.856 37.228C442.016 37.228 441.344 36.988 440.84 36.508C440.336 36.028 440.084 35.38 440.084 34.564C440.084 33.844 440.312 33.22 440.768 32.692C441.224 32.164 441.788 31.804 442.46 31.612C442.268 31.348 441.968 31.144 441.56 31C441.176 30.832 440.756 30.748 440.3 30.748C438.86 30.748 437.732 31.54 436.916 33.124C436.124 34.684 435.728 36.736 435.728 39.28C435.728 41.848 436.184 43.696 437.096 44.824C438.008 45.952 439.148 46.516 440.516 46.516C441.332 46.516 442.148 46.3 442.964 45.868C443.804 45.436 444.56 44.68 445.232 43.6L445.844 43.816C445.364 45.376 444.524 46.72 443.324 47.848C442.124 48.952 440.576 49.504 438.68 49.504C436.208 49.504 434.192 48.688 432.632 47.056C431.072 45.424 430.292 43 430.292 39.784C430.292 37.672 430.676 35.872 431.444 34.384C432.212 32.896 433.268 31.78 434.612 31.036C435.956 30.268 437.492 29.884 439.22 29.884ZM457.007 29.884C459.767 29.884 461.927 30.676 463.487 32.26C465.047 33.82 465.827 36.304 465.827 39.712C465.827 43.12 465.047 45.604 463.487 47.164C461.927 48.724 459.767 49.504 457.007 49.504C454.271 49.504 452.111 48.724 450.527 47.164C448.967 45.604 448.187 43.12 448.187 39.712C448.187 36.304 448.967 33.82 450.527 32.26C452.111 30.676 454.271 29.884 457.007 29.884ZM457.007 30.604C455.975 30.604 455.147 31.36 454.523 32.872C453.923 34.36 453.623 36.64 453.623 39.712C453.623 42.784 453.923 45.064 454.523 46.552C455.147 48.04 455.975 48.784 457.007 48.784C458.063 48.784 458.891 48.052 459.491 46.588C460.091 45.1 460.391 42.808 460.391 39.712C460.391 36.616 460.079 34.324 459.455 32.836C458.855 31.348 458.039 30.604 457.007 30.604ZM481.467 29.884C483.291 29.884 484.611 30.352 485.427 31.288C485.835 31.744 486.123 32.332 486.291 33.052C486.459 33.772 486.543 34.744 486.543 35.968V45.652C486.543 46.636 486.711 47.32 487.047 47.704C487.407 48.064 488.007 48.244 488.847 48.244V49C486.447 48.904 484.863 48.856 484.095 48.856C483.375 48.856 481.815 48.904 479.415 49V48.244C480.135 48.244 480.639 48.064 480.927 47.704C481.215 47.32 481.359 46.636 481.359 45.652V34.456C481.359 33.472 481.191 32.728 480.855 32.224C480.543 31.72 479.967 31.468 479.127 31.468C478.143 31.468 477.303 31.876 476.607 32.692C475.911 33.484 475.563 34.468 475.563 35.644V45.652C475.563 46.636 475.707 47.32 475.995 47.704C476.283 48.064 476.787 48.244 477.507 48.244V49C475.299 48.904 473.811 48.856 473.043 48.856C472.323 48.856 470.667 48.904 468.075 49V48.244C468.939 48.244 469.539 48.064 469.875 47.704C470.211 47.32 470.379 46.636 470.379 45.652V34.312C470.379 33.208 470.211 32.404 469.875 31.9C469.539 31.396 468.939 31.144 468.075 31.144V30.388C468.843 30.46 469.587 30.496 470.307 30.496C472.443 30.496 474.195 30.328 475.563 29.992V33.232C476.643 31 478.611 29.884 481.467 29.884ZM502.86 20.848C504.252 20.848 505.392 20.956 506.28 21.172C507.168 21.388 507.948 21.712 508.62 22.144C509.052 22.408 509.4 22.756 509.664 23.188C509.952 23.62 510.096 24.088 510.096 24.592C510.096 25.456 509.796 26.14 509.196 26.644C508.62 27.124 507.792 27.364 506.712 27.364C505.656 27.364 504.828 27.124 504.228 26.644C503.628 26.14 503.328 25.468 503.328 24.628C503.328 24.004 503.532 23.464 503.94 23.008C504.372 22.528 504.96 22.18 505.704 21.964C505.464 21.82 505.128 21.712 504.696 21.64C504.288 21.544 503.844 21.496 503.364 21.496C501.276 21.496 499.74 22.384 498.756 24.16C498.396 24.784 498.144 25.564 498 26.5C497.856 27.412 497.784 28.72 497.784 30.424H502.068C504.012 30.424 505.524 30.4 506.604 30.352C507.708 30.28 508.764 30.16 509.772 29.992V45.652C509.772 46.636 509.952 47.32 510.312 47.704C510.696 48.064 511.356 48.244 512.292 48.244V49C509.7 48.904 508.032 48.856 507.288 48.856C506.544 48.856 504.876 48.904 502.284 49V48.244C503.148 48.244 503.748 48.064 504.084 47.704C504.42 47.32 504.588 46.636 504.588 45.652V34.312C504.588 33.208 504.396 32.404 504.012 31.9C503.652 31.396 503.004 31.144 502.068 31.144H497.784V45.652C497.784 46.636 498.024 47.32 498.504 47.704C498.984 48.064 499.704 48.244 500.664 48.244V49L499.728 48.964C497.352 48.892 495.876 48.856 495.3 48.856C494.532 48.856 493.032 48.892 490.8 48.964C490.632 48.988 490.392 49 490.08 49V48.244C491.016 48.244 491.664 48.064 492.024 47.704C492.408 47.32 492.6 46.636 492.6 45.652V31.144H489.936V30.424H492.6C492.6 27.472 493.548 25.084 495.444 23.26C496.284 22.492 497.352 21.904 498.648 21.496C499.944 21.064 501.348 20.848 502.86 20.848ZM531.349 45.04C531.349 46.144 531.517 46.948 531.853 47.452C532.189 47.956 532.789 48.208 533.653 48.208V48.964C532.909 48.892 532.165 48.856 531.421 48.856C529.285 48.856 527.533 49.024 526.165 49.36V46.264C525.349 48.424 523.789 49.504 521.485 49.504C519.229 49.504 517.429 48.688 516.085 47.056C514.765 45.4 514.117 42.916 514.141 39.604C514.141 37.492 514.477 35.716 515.149 34.276C515.845 32.812 516.793 31.72 517.993 31C519.217 30.256 520.609 29.884 522.169 29.884C523.921 29.884 525.253 30.34 526.165 31.252V25.132C526.165 24.028 525.985 23.224 525.625 22.72C525.289 22.216 524.701 21.964 523.861 21.964V21.208C524.629 21.28 525.373 21.316 526.093 21.316C528.181 21.316 529.933 21.148 531.349 20.812V45.04ZM522.961 47.956C523.753 47.956 524.449 47.668 525.049 47.092C525.673 46.516 526.045 45.736 526.165 44.752V32.152C525.565 31.336 524.689 30.928 523.537 30.928C522.265 30.928 521.281 31.66 520.585 33.124C519.889 34.588 519.553 36.772 519.577 39.676C519.553 42.604 519.829 44.716 520.405 46.012C521.005 47.308 521.857 47.956 522.961 47.956ZM545.737 46.552C547.705 46.552 549.289 45.592 550.489 43.672L551.137 43.888C550.657 45.448 549.793 46.78 548.545 47.884C547.321 48.964 545.785 49.504 543.937 49.504C541.393 49.504 539.365 48.7 537.853 47.092C536.365 45.46 535.621 43.06 535.621 39.892C535.621 36.652 536.425 34.18 538.033 32.476C539.641 30.748 541.777 29.884 544.441 29.884C548.953 29.884 551.209 32.548 551.209 37.876H541.093C541.069 38.236 541.057 38.8 541.057 39.568C541.057 41.152 541.273 42.472 541.705 43.528C542.161 44.584 542.737 45.352 543.433 45.832C544.153 46.312 544.921 46.552 545.737 46.552ZM544.225 30.64C543.361 30.64 542.641 31.18 542.065 32.26C541.513 33.316 541.165 34.96 541.021 37.192H546.673C546.721 35.296 546.529 33.736 546.097 32.512C545.689 31.264 545.065 30.64 544.225 30.64ZM566.475 29.884C568.299 29.884 569.619 30.352 570.435 31.288C570.843 31.744 571.131 32.332 571.299 33.052C571.467 33.772 571.551 34.744 571.551 35.968V45.652C571.551 46.636 571.719 47.32 572.055 47.704C572.415 48.064 573.015 48.244 573.855 48.244V49C571.455 48.904 569.871 48.856 569.103 48.856C568.383 48.856 566.823 48.904 564.423 49V48.244C565.143 48.244 565.647 48.064 565.935 47.704C566.223 47.32 566.367 46.636 566.367 45.652V34.456C566.367 33.472 566.199 32.728 565.863 32.224C565.551 31.72 564.975 31.468 564.135 31.468C563.151 31.468 562.311 31.876 561.615 32.692C560.919 33.484 560.571 34.468 560.571 35.644V45.652C560.571 46.636 560.715 47.32 561.003 47.704C561.291 48.064 561.795 48.244 562.515 48.244V49C560.307 48.904 558.819 48.856 558.051 48.856C557.331 48.856 555.675 48.904 553.083 49V48.244C553.947 48.244 554.547 48.064 554.883 47.704C555.219 47.32 555.387 46.636 555.387 45.652V34.312C555.387 33.208 555.219 32.404 554.883 31.9C554.547 31.396 553.947 31.144 553.083 31.144V30.388C553.851 30.46 554.595 30.496 555.315 30.496C557.451 30.496 559.203 30.328 560.571 29.992V33.232C561.651 31 563.619 29.884 566.475 29.884ZM582.504 30.388H586.752V31.108H582.504V45.652C582.504 46.372 582.624 46.888 582.864 47.2C583.128 47.488 583.536 47.632 584.088 47.632C585.12 47.632 585.936 46.912 586.536 45.472L587.148 45.796C586.236 48.268 584.592 49.504 582.216 49.504C580.632 49.504 579.432 49.096 578.616 48.28C578.112 47.776 577.764 47.152 577.572 46.408C577.404 45.64 577.32 44.596 577.32 43.276V31.108H574.296V30.388H577.32V25.636C579.312 25.636 581.04 25.252 582.504 24.484V30.388ZM600.689 21.1C601.697 21.1 602.489 21.352 603.065 21.856C603.665 22.336 603.965 23.008 603.965 23.872C603.965 24.736 603.665 25.42 603.065 25.924C602.489 26.404 601.697 26.644 600.689 26.644C599.681 26.644 598.877 26.404 598.277 25.924C597.701 25.42 597.413 24.736 597.413 23.872C597.413 23.008 597.701 22.336 598.277 21.856C598.877 21.352 599.681 21.1 600.689 21.1ZM603.497 45.652C603.497 46.636 603.665 47.32 604.001 47.704C604.361 48.064 604.961 48.244 605.801 48.244V49C603.401 48.904 601.805 48.856 601.013 48.856C600.269 48.856 598.601 48.904 596.009 49V48.244C596.873 48.244 597.473 48.064 597.809 47.704C598.145 47.32 598.313 46.636 598.313 45.652V34.312C598.313 33.208 598.145 32.404 597.809 31.9C597.473 31.396 596.873 31.144 596.009 31.144V30.388C596.777 30.46 597.521 30.496 598.241 30.496C600.377 30.496 602.129 30.328 603.497 29.992V45.652ZM620.756 29.884C622.58 29.884 623.9 30.352 624.716 31.288C625.124 31.744 625.412 32.332 625.58 33.052C625.748 33.772 625.832 34.744 625.832 35.968V45.652C625.832 46.636 626 47.32 626.336 47.704C626.696 48.064 627.296 48.244 628.136 48.244V49C625.736 48.904 624.152 48.856 623.384 48.856C622.664 48.856 621.104 48.904 618.704 49V48.244C619.424 48.244 619.928 48.064 620.216 47.704C620.504 47.32 620.648 46.636 620.648 45.652V34.456C620.648 33.472 620.48 32.728 620.144 32.224C619.832 31.72 619.256 31.468 618.416 31.468C617.432 31.468 616.592 31.876 615.896 32.692C615.2 33.484 614.852 34.468 614.852 35.644V45.652C614.852 46.636 614.996 47.32 615.284 47.704C615.572 48.064 616.076 48.244 616.796 48.244V49C614.588 48.904 613.1 48.856 612.332 48.856C611.612 48.856 609.956 48.904 607.364 49V48.244C608.228 48.244 608.828 48.064 609.164 47.704C609.5 47.32 609.668 46.636 609.668 45.652V34.312C609.668 33.208 609.5 32.404 609.164 31.9C608.828 31.396 608.228 31.144 607.364 31.144V30.388C608.132 30.46 608.876 30.496 609.596 30.496C611.732 30.496 613.484 30.328 614.852 29.992V33.232C615.932 31 617.9 29.884 620.756 29.884ZM117.224 74.884C118.112 74.884 118.952 74.98 119.744 75.172C120.536 75.364 121.196 75.628 121.724 75.964C122.348 76.348 122.828 76.84 123.164 77.44C123.524 78.016 123.704 78.652 123.704 79.348C123.704 80.188 123.44 80.884 122.912 81.436C122.384 81.964 121.7 82.228 120.86 82.228C120.02 82.228 119.348 81.988 118.844 81.508C118.34 81.028 118.088 80.38 118.088 79.564C118.088 78.844 118.316 78.22 118.772 77.692C119.228 77.164 119.792 76.804 120.464 76.612C120.272 76.348 119.972 76.144 119.564 76C119.18 75.832 118.76 75.748 118.304 75.748C116.864 75.748 115.736 76.54 114.92 78.124C114.128 79.684 113.732 81.736 113.732 84.28C113.732 86.848 114.188 88.696 115.1 89.824C116.012 90.952 117.152 91.516 118.52 91.516C119.336 91.516 120.152 91.3 120.968 90.868C121.808 90.436 122.564 89.68 123.236 88.6L123.848 88.816C123.368 90.376 122.528 91.72 121.328 92.848C120.128 93.952 118.58 94.504 116.684 94.504C114.212 94.504 112.196 93.688 110.636 92.056C109.076 90.424 108.296 88 108.296 84.784C108.296 82.672 108.68 80.872 109.448 79.384C110.216 77.896 111.272 76.78 112.616 76.036C113.96 75.268 115.496 74.884 117.224 74.884ZM135.011 74.884C137.771 74.884 139.931 75.676 141.491 77.26C143.051 78.82 143.831 81.304 143.831 84.712C143.831 88.12 143.051 90.604 141.491 92.164C139.931 93.724 137.771 94.504 135.011 94.504C132.275 94.504 130.115 93.724 128.531 92.164C126.971 90.604 126.191 88.12 126.191 84.712C126.191 81.304 126.971 78.82 128.531 77.26C130.115 75.676 132.275 74.884 135.011 74.884ZM135.011 75.604C133.979 75.604 133.151 76.36 132.527 77.872C131.927 79.36 131.627 81.64 131.627 84.712C131.627 87.784 131.927 90.064 132.527 91.552C133.151 93.04 133.979 93.784 135.011 93.784C136.067 93.784 136.895 93.052 137.495 91.588C138.095 90.1 138.395 87.808 138.395 84.712C138.395 81.616 138.083 79.324 137.459 77.836C136.859 76.348 136.043 75.604 135.011 75.604ZM175.023 90.652C175.023 91.636 175.191 92.32 175.527 92.704C175.887 93.064 176.487 93.244 177.327 93.244V94C174.927 93.904 173.343 93.856 172.575 93.856C171.903 93.856 170.415 93.904 168.111 94V93.244C168.759 93.244 169.203 93.064 169.443 92.704C169.707 92.344 169.839 91.66 169.839 90.652V79.456C169.839 78.448 169.683 77.704 169.371 77.224C169.083 76.72 168.519 76.468 167.679 76.468C166.791 76.468 166.011 76.84 165.339 77.584C164.691 78.328 164.307 79.24 164.187 80.32V80.968V90.652C164.187 91.636 164.331 92.32 164.619 92.704C164.931 93.064 165.483 93.244 166.275 93.244V94C163.971 93.904 162.459 93.856 161.739 93.856C161.067 93.856 159.579 93.904 157.275 94V93.244C157.923 93.244 158.367 93.064 158.607 92.704C158.871 92.32 159.003 91.636 159.003 90.652V79.456C159.003 78.448 158.871 77.704 158.607 77.224C158.343 76.72 157.827 76.468 157.059 76.468C156.099 76.468 155.271 76.876 154.575 77.692C153.903 78.484 153.567 79.468 153.567 80.644V90.652C153.567 91.636 153.687 92.32 153.927 92.704C154.191 93.064 154.647 93.244 155.295 93.244V94C153.183 93.904 151.767 93.856 151.047 93.856C150.327 93.856 148.671 93.904 146.079 94V93.244C146.943 93.244 147.543 93.064 147.879 92.704C148.215 92.32 148.383 91.636 148.383 90.652V79.312C148.383 78.208 148.215 77.404 147.879 76.9C147.543 76.396 146.943 76.144 146.079 76.144V75.388C146.847 75.46 147.591 75.496 148.311 75.496C150.447 75.496 152.199 75.328 153.567 74.992V78.232C154.623 76 156.483 74.884 159.147 74.884C160.971 74.884 162.291 75.352 163.107 76.288C163.563 76.768 163.863 77.488 164.007 78.448C164.631 77.152 165.447 76.24 166.455 75.712C167.463 75.16 168.639 74.884 169.983 74.884C171.807 74.884 173.127 75.352 173.943 76.288C174.327 76.72 174.603 77.308 174.771 78.052C174.939 78.796 175.023 79.768 175.023 80.968V90.652ZM191.593 74.884C192.841 74.884 193.945 75.22 194.905 75.892C195.889 76.564 196.657 77.572 197.209 78.916C197.761 80.26 198.037 81.904 198.037 83.848C198.037 87.28 197.281 89.92 195.769 91.768C194.281 93.592 192.253 94.504 189.685 94.504C188.965 94.504 188.281 94.408 187.633 94.216C187.009 94.024 186.469 93.736 186.013 93.352V96.952C186.013 98.008 186.277 98.74 186.805 99.148C187.333 99.556 188.149 99.76 189.253 99.76V100.516L188.281 100.48C185.617 100.408 183.925 100.372 183.205 100.372C182.485 100.372 180.973 100.42 178.669 100.516V99.76C179.461 99.76 180.013 99.58 180.325 99.22C180.661 98.884 180.829 98.248 180.829 97.312V79.312C180.829 78.208 180.649 77.404 180.289 76.9C179.953 76.396 179.365 76.144 178.525 76.144V75.388C179.293 75.46 180.037 75.496 180.757 75.496C182.845 75.496 184.597 75.328 186.013 74.992V78.304C186.517 77.2 187.249 76.36 188.209 75.784C189.169 75.184 190.297 74.884 191.593 74.884ZM188.281 93.532C189.817 93.532 190.921 92.776 191.593 91.264C192.265 89.728 192.601 87.496 192.601 84.568C192.601 81.64 192.325 79.552 191.773 78.304C191.245 77.056 190.477 76.432 189.469 76.432C188.653 76.432 187.921 76.708 187.273 77.26C186.649 77.812 186.229 78.58 186.013 79.564V92.56C186.589 93.208 187.345 93.532 188.281 93.532ZM207.599 90.652C207.599 91.636 207.767 92.32 208.103 92.704C208.439 93.064 209.039 93.244 209.903 93.244V94C207.407 93.904 205.799 93.856 205.079 93.856C204.263 93.856 202.607 93.904 200.111 94V93.244C200.951 93.244 201.539 93.064 201.875 92.704C202.235 92.32 202.415 91.636 202.415 90.652V70.132C202.415 69.028 202.235 68.224 201.875 67.72C201.539 67.216 200.951 66.964 200.111 66.964V66.208C200.879 66.28 201.623 66.316 202.343 66.316C204.431 66.316 206.183 66.148 207.599 65.812V90.652ZM221.667 91.552C223.635 91.552 225.219 90.592 226.419 88.672L227.067 88.888C226.587 90.448 225.723 91.78 224.475 92.884C223.251 93.964 221.715 94.504 219.867 94.504C217.323 94.504 215.295 93.7 213.783 92.092C212.295 90.46 211.551 88.06 211.551 84.892C211.551 81.652 212.355 79.18 213.963 77.476C215.571 75.748 217.707 74.884 220.371 74.884C224.883 74.884 227.139 77.548 227.139 82.876H217.023C216.999 83.236 216.987 83.8 216.987 84.568C216.987 86.152 217.203 87.472 217.635 88.528C218.091 89.584 218.667 90.352 219.363 90.832C220.083 91.312 220.851 91.552 221.667 91.552ZM220.155 75.64C219.291 75.64 218.571 76.18 217.995 77.26C217.443 78.316 217.095 79.96 216.951 82.192H222.603C222.651 80.296 222.459 78.736 222.027 77.512C221.619 76.264 220.995 75.64 220.155 75.64ZM236.531 75.388H240.779V76.108H236.531V90.652C236.531 91.372 236.651 91.888 236.891 92.2C237.155 92.488 237.563 92.632 238.115 92.632C239.147 92.632 239.963 91.912 240.563 90.472L241.175 90.796C240.263 93.268 238.619 94.504 236.243 94.504C234.659 94.504 233.459 94.096 232.643 93.28C232.139 92.776 231.791 92.152 231.599 91.408C231.431 90.64 231.347 89.596 231.347 88.276V76.108H228.323V75.388H231.347V70.636C233.339 70.636 235.067 70.252 236.531 69.484V75.388ZM246.56 66.1C247.568 66.1 248.36 66.352 248.936 66.856C249.536 67.336 249.836 68.008 249.836 68.872C249.836 69.736 249.536 70.42 248.936 70.924C248.36 71.404 247.568 71.644 246.56 71.644C245.552 71.644 244.748 71.404 244.148 70.924C243.572 70.42 243.284 69.736 243.284 68.872C243.284 68.008 243.572 67.336 244.148 66.856C244.748 66.352 245.552 66.1 246.56 66.1ZM249.368 90.652C249.368 91.636 249.536 92.32 249.872 92.704C250.232 93.064 250.832 93.244 251.672 93.244V94C249.272 93.904 247.676 93.856 246.884 93.856C246.14 93.856 244.472 93.904 241.88 94V93.244C242.744 93.244 243.344 93.064 243.68 92.704C244.016 92.32 244.184 91.636 244.184 90.652V79.312C244.184 78.208 244.016 77.404 243.68 76.9C243.344 76.396 242.744 76.144 241.88 76.144V75.388C242.648 75.46 243.392 75.496 244.112 75.496C246.248 75.496 248 75.328 249.368 74.992V90.652ZM266.627 74.884C268.451 74.884 269.771 75.352 270.587 76.288C270.995 76.744 271.283 77.332 271.451 78.052C271.619 78.772 271.703 79.744 271.703 80.968V90.652C271.703 91.636 271.871 92.32 272.207 92.704C272.567 93.064 273.167 93.244 274.007 93.244V94C271.607 93.904 270.023 93.856 269.255 93.856C268.535 93.856 266.975 93.904 264.575 94V93.244C265.295 93.244 265.799 93.064 266.087 92.704C266.375 92.32 266.519 91.636 266.519 90.652V79.456C266.519 78.472 266.351 77.728 266.015 77.224C265.703 76.72 265.127 76.468 264.287 76.468C263.303 76.468 262.463 76.876 261.767 77.692C261.071 78.484 260.723 79.468 260.723 80.644V90.652C260.723 91.636 260.867 92.32 261.155 92.704C261.443 93.064 261.947 93.244 262.667 93.244V94C260.459 93.904 258.971 93.856 258.203 93.856C257.483 93.856 255.827 93.904 253.235 94V93.244C254.099 93.244 254.699 93.064 255.035 92.704C255.371 92.32 255.539 91.636 255.539 90.652V79.312C255.539 78.208 255.371 77.404 255.035 76.9C254.699 76.396 254.099 76.144 253.235 76.144V75.388C254.003 75.46 254.747 75.496 255.467 75.496C257.603 75.496 259.355 75.328 260.723 74.992V78.232C261.803 76 263.771 74.884 266.627 74.884ZM292.166 78.844C291.686 78.844 291.278 78.688 290.942 78.376C290.606 78.04 290.438 77.572 290.438 76.972C290.438 76.396 290.582 75.808 290.87 75.208C290.294 75.448 289.814 75.724 289.43 76.036C289.07 76.324 288.758 76.696 288.494 77.152C289.238 78.04 289.61 79.192 289.61 80.608C289.61 82.504 288.95 83.932 287.63 84.892C286.334 85.852 284.606 86.332 282.446 86.332H281.798C280.814 86.908 280.322 87.544 280.322 88.24C280.322 89.008 280.802 89.392 281.762 89.392H285.686C287.798 89.392 289.478 89.788 290.726 90.58C291.998 91.348 292.634 92.536 292.634 94.144C292.634 95.368 292.238 96.472 291.446 97.456C290.678 98.464 289.502 99.268 287.918 99.868C286.334 100.468 284.39 100.768 282.086 100.768C279.758 100.768 277.886 100.468 276.47 99.868C275.078 99.292 274.382 98.452 274.382 97.348C274.382 96.604 274.718 95.932 275.39 95.332C276.062 94.756 277.058 94.3 278.378 93.964L278.702 94.54C277.838 95.26 277.406 96.088 277.406 97.024C277.406 98.032 277.862 98.8 278.774 99.328C279.686 99.88 280.946 100.156 282.554 100.156C284.234 100.156 285.59 99.82 286.622 99.148C287.678 98.476 288.206 97.528 288.206 96.304C288.206 95.512 287.906 94.888 287.306 94.432C286.73 93.976 285.71 93.748 284.246 93.748H282.014C280.478 93.748 279.278 93.496 278.414 92.992C277.55 92.464 277.118 91.672 277.118 90.616C277.118 89.728 277.43 88.936 278.054 88.24C278.678 87.544 279.626 86.872 280.898 86.224C279.17 86.008 277.802 85.432 276.794 84.496C275.786 83.56 275.282 82.264 275.282 80.608C275.282 78.712 275.93 77.284 277.226 76.324C278.546 75.364 280.286 74.884 282.446 74.884C284.846 74.884 286.682 75.448 287.954 76.576C288.41 75.928 288.974 75.412 289.646 75.028C290.318 74.644 291.002 74.452 291.698 74.452C292.418 74.452 292.982 74.668 293.39 75.1C293.822 75.508 294.038 76.048 294.038 76.72C294.038 77.392 293.846 77.92 293.462 78.304C293.102 78.664 292.67 78.844 292.166 78.844ZM282.446 85.684C283.118 85.684 283.622 85.3 283.958 84.532C284.318 83.764 284.498 82.456 284.498 80.608C284.498 78.76 284.318 77.452 283.958 76.684C283.622 75.916 283.118 75.532 282.446 75.532C281.774 75.532 281.258 75.916 280.898 76.684C280.562 77.452 280.394 78.76 280.394 80.608C280.394 82.456 280.562 83.764 280.898 84.532C281.258 85.3 281.774 85.684 282.446 85.684ZM310.289 75.388H314.537V76.108H310.289V90.652C310.289 91.372 310.409 91.888 310.649 92.2C310.913 92.488 311.321 92.632 311.873 92.632C312.905 92.632 313.721 91.912 314.321 90.472L314.933 90.796C314.021 93.268 312.377 94.504 310.001 94.504C308.417 94.504 307.217 94.096 306.401 93.28C305.897 92.776 305.549 92.152 305.357 91.408C305.189 90.64 305.105 89.596 305.105 88.276V76.108H302.081V75.388H305.105V70.636C307.097 70.636 308.825 70.252 310.289 69.484V75.388ZM322.945 78.232C324.025 76 325.981 74.884 328.813 74.884C330.685 74.884 332.005 75.352 332.773 76.288C333.181 76.744 333.469 77.344 333.637 78.088C333.829 78.808 333.925 79.768 333.925 80.968V90.652C333.925 91.636 334.093 92.32 334.429 92.704C334.765 93.064 335.365 93.244 336.229 93.244V94C333.733 93.904 332.149 93.856 331.477 93.856C330.661 93.856 329.101 93.904 326.797 94V93.244C327.517 93.244 328.021 93.064 328.309 92.704C328.597 92.32 328.741 91.636 328.741 90.652V79.456C328.741 78.472 328.573 77.728 328.237 77.224C327.925 76.72 327.349 76.468 326.509 76.468C325.501 76.468 324.649 76.864 323.953 77.656C323.281 78.424 322.945 79.408 322.945 80.608V90.652C322.945 91.636 323.089 92.32 323.377 92.704C323.665 93.064 324.169 93.244 324.889 93.244V94C322.585 93.904 321.097 93.856 320.425 93.856C319.609 93.856 317.953 93.904 315.457 94V93.244C316.297 93.244 316.885 93.064 317.221 92.704C317.581 92.32 317.761 91.636 317.761 90.652V70.168C317.761 69.064 317.581 68.26 317.221 67.756C316.885 67.252 316.297 67 315.457 67V66.244C316.225 66.316 316.969 66.352 317.689 66.352C319.777 66.352 321.529 66.184 322.945 65.848V78.232ZM348.124 91.552C350.092 91.552 351.676 90.592 352.876 88.672L353.524 88.888C353.044 90.448 352.18 91.78 350.932 92.884C349.708 93.964 348.172 94.504 346.324 94.504C343.78 94.504 341.752 93.7 340.24 92.092C338.752 90.46 338.008 88.06 338.008 84.892C338.008 81.652 338.812 79.18 340.42 77.476C342.028 75.748 344.164 74.884 346.828 74.884C351.34 74.884 353.596 77.548 353.596 82.876H343.48C343.456 83.236 343.444 83.8 343.444 84.568C343.444 86.152 343.66 87.472 344.092 88.528C344.548 89.584 345.124 90.352 345.82 90.832C346.54 91.312 347.308 91.552 348.124 91.552ZM346.612 75.64C345.748 75.64 345.028 76.18 344.452 77.26C343.9 78.316 343.552 79.96 343.408 82.192H349.06C349.108 80.296 348.916 78.736 348.484 77.512C348.076 76.264 347.452 75.64 346.612 75.64ZM383.667 90.652C383.667 91.636 383.847 92.32 384.207 92.704C384.591 93.064 385.251 93.244 386.187 93.244V94C383.595 93.904 381.927 93.856 381.183 93.856C380.439 93.856 378.771 93.904 376.179 94V93.244C377.043 93.244 377.643 93.064 377.979 92.704C378.315 92.32 378.483 91.636 378.483 90.652V69.664C378.483 68.56 378.255 67.78 377.799 67.324C377.559 67.06 377.235 66.856 376.827 66.712C376.443 66.568 376.035 66.496 375.603 66.496C374.955 66.496 374.403 66.604 373.947 66.82C373.515 67.012 373.131 67.312 372.795 67.72C372.315 68.248 372.003 68.92 371.859 69.736C371.739 70.552 371.679 71.788 371.679 73.444V75.424H375.459V76.144H371.679V90.652C371.679 91.636 371.919 92.32 372.399 92.704C372.879 93.064 373.599 93.244 374.559 93.244V94L373.623 93.964C371.247 93.892 369.771 93.856 369.195 93.856C368.427 93.856 366.927 93.892 364.695 93.964C364.527 93.988 364.287 94 363.975 94V93.244C364.911 93.244 365.559 93.064 365.919 92.704C366.303 92.32 366.495 91.636 366.495 90.652V76.144H363.831V75.424H366.495C366.495 73.6 366.699 72.076 367.107 70.852C367.515 69.604 368.175 68.584 369.087 67.792C369.879 67.12 370.791 66.628 371.823 66.316C372.855 66.004 373.923 65.848 375.027 65.848C375.507 65.848 376.251 65.896 377.259 65.992C378.411 66.088 379.323 66.136 379.995 66.136C381.123 66.136 382.347 66.016 383.667 65.776V90.652ZM396.574 74.884C399.334 74.884 401.494 75.676 403.054 77.26C404.614 78.82 405.394 81.304 405.394 84.712C405.394 88.12 404.614 90.604 403.054 92.164C401.494 93.724 399.334 94.504 396.574 94.504C393.838 94.504 391.678 93.724 390.094 92.164C388.534 90.604 387.754 88.12 387.754 84.712C387.754 81.304 388.534 78.82 390.094 77.26C391.678 75.676 393.838 74.884 396.574 74.884ZM396.574 75.604C395.542 75.604 394.714 76.36 394.09 77.872C393.49 79.36 393.19 81.64 393.19 84.712C393.19 87.784 393.49 90.064 394.09 91.552C394.714 93.04 395.542 93.784 396.574 93.784C397.63 93.784 398.458 93.052 399.058 91.588C399.658 90.1 399.958 87.808 399.958 84.712C399.958 81.616 399.646 79.324 399.022 77.836C398.422 76.348 397.606 75.604 396.574 75.604ZM431.951 75.496C433.175 75.496 434.087 75.46 434.687 75.388V76.108C434.183 76.252 433.727 76.552 433.319 77.008C432.911 77.464 432.551 78.196 432.239 79.204L427.451 94.072C427.187 94.048 426.791 94.036 426.263 94.036C425.759 94.036 425.375 94.048 425.111 94.072L420.215 80.716L416.219 94.072C415.979 94.048 415.595 94.036 415.067 94.036C414.539 94.036 414.143 94.048 413.879 94.072L408.191 78.16C407.903 77.32 407.579 76.78 407.219 76.54C406.859 76.276 406.487 76.144 406.103 76.144V75.388C407.663 75.532 409.367 75.604 411.215 75.604C412.415 75.604 413.975 75.532 415.895 75.388V76.144C415.103 76.144 414.527 76.204 414.167 76.324C413.831 76.444 413.663 76.732 413.663 77.188C413.663 77.5 413.723 77.824 413.843 78.16L417.083 88.348L421.007 75.352L422.339 75.388L423.635 75.352L428.315 89.104L430.583 81.868C430.919 80.74 431.087 79.828 431.087 79.132C431.087 77.26 430.139 76.252 428.243 76.108V75.388C429.371 75.46 430.607 75.496 431.951 75.496Z" fill="black"/>
</svg>
