<svg width="234" height="71" viewBox="0 0 234 71" fill="none" xmlns="http://www.w3.org/2000/svg">
<path d="M14.5 4.86621V8.51604" stroke="#0F4FAD" stroke-width="2" stroke-linecap="round" stroke-linejoin="round"/>
<path d="M14.5 20.6826V24.3324" stroke="#0F4FAD" stroke-width="2" stroke-linecap="round" stroke-linejoin="round"/>
<path d="M7.25 7.2998L10.875 10.9496" stroke="#0F4FAD" stroke-width="2" stroke-linecap="round" stroke-linejoin="round"/>
<path d="M18.125 18.249L21.75 21.8989" stroke="#0F4FAD" stroke-width="2" stroke-linecap="round" stroke-linejoin="round"/>
<path d="M4.83334 14.5996H8.45834" stroke="#0F4FAD" stroke-width="2" stroke-linecap="round" stroke-linejoin="round"/>
<path d="M20.5417 14.5996H24.1667" stroke="#0F4FAD" stroke-width="2" stroke-linecap="round" stroke-linejoin="round"/>
<path d="M7.25 21.8989L10.875 18.249" stroke="#0F4FAD" stroke-width="2" stroke-linecap="round" stroke-linejoin="round"/>
<path d="M18.125 10.9496L21.75 7.2998" stroke="#0F4FAD" stroke-width="2" stroke-linecap="round" stroke-linejoin="round"/>
<path d="M47.656 9.008C47.544 10.368 47.488 11.584 47.488 12.656C47.488 13.408 47.512 14.016 47.56 14.48H47.008C46.688 12.672 46.208 11.4 45.568 10.664C44.928 9.928 44.032 9.56 42.88 9.56H42.088C41.592 9.56 41.232 9.6 41.008 9.68C40.784 9.76 40.632 9.92 40.552 10.16C40.472 10.384 40.432 10.752 40.432 11.264V17.312H41.272C42.12 17.312 42.76 17 43.192 16.376C43.64 15.752 43.952 15.008 44.128 14.144H44.68C44.632 14.816 44.608 15.568 44.608 16.4V17.552C44.608 18.368 44.656 19.504 44.752 20.96H44.2C43.864 18.848 42.888 17.792 41.272 17.792H40.432V23.312C40.432 23.952 40.496 24.424 40.624 24.728C40.768 25.016 41.008 25.208 41.344 25.304C41.696 25.4 42.248 25.456 43 25.472V26C41.032 25.952 39.568 25.928 38.608 25.928C37.808 25.928 36.8 25.944 35.584 25.976L34.816 26V25.52C35.344 25.488 35.728 25.424 35.968 25.328C36.224 25.232 36.392 25.048 36.472 24.776C36.568 24.504 36.616 24.064 36.616 23.456V11.552C36.616 10.944 36.568 10.504 36.472 10.232C36.392 9.96 36.224 9.776 35.968 9.68C35.728 9.584 35.344 9.52 34.816 9.488V9.008C36.544 9.056 39.152 9.08 42.64 9.08C44.992 9.08 46.664 9.056 47.656 9.008ZM51.8991 7.4C52.5711 7.4 53.0991 7.568 53.4831 7.904C53.8831 8.224 54.0831 8.672 54.0831 9.248C54.0831 9.824 53.8831 10.28 53.4831 10.616C53.0991 10.936 52.5711 11.096 51.8991 11.096C51.2271 11.096 50.6911 10.936 50.2911 10.616C49.9071 10.28 49.7151 9.824 49.7151 9.248C49.7151 8.672 49.9071 8.224 50.2911 7.904C50.6911 7.568 51.2271 7.4 51.8991 7.4ZM53.7711 23.768C53.7711 24.424 53.8831 24.88 54.1071 25.136C54.3471 25.376 54.7471 25.496 55.3071 25.496V26C53.7071 25.936 52.6431 25.904 52.1151 25.904C51.6191 25.904 50.5071 25.936 48.7791 26V25.496C49.3551 25.496 49.7551 25.376 49.9791 25.136C50.2031 24.88 50.3151 24.424 50.3151 23.768V16.208C50.3151 15.472 50.2031 14.936 49.9791 14.6C49.7551 14.264 49.3551 14.096 48.7791 14.096V13.592C49.2911 13.64 49.7871 13.664 50.2671 13.664C51.6911 13.664 52.8591 13.552 53.7711 13.328V23.768ZM65.2774 13.256C66.4934 13.256 67.3734 13.568 67.9174 14.192C68.1894 14.496 68.3814 14.888 68.4934 15.368C68.6054 15.848 68.6614 16.496 68.6614 17.312V23.768C68.6614 24.424 68.7734 24.88 68.9974 25.136C69.2374 25.376 69.6374 25.496 70.1974 25.496V26C68.5974 25.936 67.5414 25.904 67.0294 25.904C66.5494 25.904 65.5094 25.936 63.9094 26V25.496C64.3894 25.496 64.7254 25.376 64.9174 25.136C65.1094 24.88 65.2054 24.424 65.2054 23.768V16.304C65.2054 15.648 65.0934 15.152 64.8694 14.816C64.6614 14.48 64.2774 14.312 63.7174 14.312C63.0614 14.312 62.5014 14.584 62.0374 15.128C61.5734 15.656 61.3414 16.312 61.3414 17.096V23.768C61.3414 24.424 61.4374 24.88 61.6294 25.136C61.8214 25.376 62.1574 25.496 62.6374 25.496V26C61.1654 25.936 60.1734 25.904 59.6614 25.904C59.1814 25.904 58.0774 25.936 56.3494 26V25.496C56.9254 25.496 57.3254 25.376 57.5494 25.136C57.7734 24.88 57.8854 24.424 57.8854 23.768V16.208C57.8854 15.472 57.7734 14.936 57.5494 14.6C57.3254 14.264 56.9254 14.096 56.3494 14.096V13.592C56.8614 13.64 57.3574 13.664 57.8374 13.664C59.2614 13.664 60.4294 13.552 61.3414 13.328V15.488C62.0614 14 63.3734 13.256 65.2774 13.256ZM74.2596 26.168C73.2356 26.168 72.4676 25.904 71.9556 25.376C71.4596 24.848 71.2116 24.152 71.2116 23.288C71.2116 22.568 71.3956 21.976 71.7636 21.512C72.1476 21.032 72.6036 20.664 73.1316 20.408C73.6756 20.152 74.3636 19.88 75.1956 19.592C76.0756 19.288 76.7156 19.016 77.1156 18.776C77.5316 18.52 77.7396 18.176 77.7396 17.744V15.872C77.7396 15.2 77.5796 14.68 77.2596 14.312C76.9556 13.928 76.4756 13.736 75.8196 13.736C75.0516 13.736 74.4676 13.928 74.0676 14.312C74.5156 14.472 74.8596 14.712 75.0996 15.032C75.3556 15.352 75.4836 15.728 75.4836 16.16C75.4836 16.704 75.2996 17.136 74.9316 17.456C74.5636 17.776 74.1156 17.936 73.5876 17.936C73.0276 17.936 72.5956 17.76 72.2916 17.408C71.9876 17.056 71.8356 16.616 71.8356 16.088C71.8356 15.64 71.9396 15.264 72.1476 14.96C72.3716 14.64 72.7076 14.344 73.1556 14.072C73.5876 13.816 74.1156 13.616 74.7396 13.472C75.3796 13.328 76.0756 13.256 76.8276 13.256C77.6116 13.256 78.2916 13.336 78.8676 13.496C79.4436 13.656 79.9236 13.928 80.3076 14.312C80.6596 14.664 80.8916 15.096 81.0036 15.608C81.1316 16.12 81.1956 16.816 81.1956 17.696V24.224C81.1956 24.608 81.2276 24.88 81.2916 25.04C81.3716 25.2 81.5156 25.28 81.7236 25.28C81.9636 25.28 82.2516 25.144 82.5876 24.872L82.8276 25.28C82.1076 25.872 81.2276 26.168 80.1876 26.168C79.3076 26.168 78.6916 25.992 78.3396 25.64C77.9876 25.288 77.8036 24.816 77.7876 24.224C76.9876 25.52 75.8116 26.168 74.2596 26.168ZM76.1076 24.632C76.7316 24.632 77.2756 24.304 77.7396 23.648V18.728C77.5476 19.048 77.1396 19.4 76.5156 19.784C75.8916 20.184 75.4196 20.584 75.0996 20.984C74.7796 21.384 74.6196 21.96 74.6196 22.712C74.6196 23.368 74.7556 23.856 75.0276 24.176C75.2996 24.48 75.6596 24.632 76.1076 24.632ZM88.4095 23.768C88.4095 24.424 88.5215 24.88 88.7455 25.136C88.9695 25.376 89.3695 25.496 89.9455 25.496V26C88.2815 25.936 87.2095 25.904 86.7295 25.904C86.1855 25.904 85.0815 25.936 83.4175 26V25.496C83.9775 25.496 84.3695 25.376 84.5935 25.136C84.8335 24.88 84.9535 24.424 84.9535 23.768V10.088C84.9535 9.352 84.8335 8.816 84.5935 8.48C84.3695 8.144 83.9775 7.976 83.4175 7.976V7.472C83.9295 7.52 84.4255 7.544 84.9055 7.544C86.2975 7.544 87.4655 7.432 88.4095 7.208V23.768ZM95.7186 13.256C96.3266 13.256 96.8866 13.336 97.3986 13.496C97.9106 13.64 98.3026 13.808 98.5746 14C98.7346 14.112 98.8786 14.168 99.0066 14.168C99.1506 14.168 99.2706 14.096 99.3666 13.952C99.4786 13.792 99.5506 13.568 99.5826 13.28H100.087C100.023 14.096 99.9906 15.504 99.9906 17.504H99.4866C99.3426 16.448 99.0226 15.568 98.5266 14.864C98.0466 14.144 97.3426 13.784 96.4146 13.784C95.9346 13.784 95.5346 13.92 95.2146 14.192C94.9106 14.464 94.7586 14.84 94.7586 15.32C94.7586 15.864 94.9426 16.336 95.3106 16.736C95.6786 17.12 96.2546 17.592 97.0386 18.152L97.7346 18.656C98.7106 19.392 99.4306 20.048 99.8946 20.624C100.359 21.2 100.591 21.92 100.591 22.784C100.591 23.488 100.383 24.112 99.9666 24.656C99.5666 25.2 99.0226 25.616 98.3346 25.904C97.6466 26.192 96.8866 26.336 96.0546 26.336C95.1746 26.336 94.4226 26.168 93.7986 25.832C93.2866 25.576 92.9186 25.408 92.6946 25.328C92.5346 25.28 92.3906 25.336 92.2626 25.496C92.1506 25.64 92.0626 25.864 91.9986 26.168H91.4946C91.5586 25.256 91.5906 23.656 91.5906 21.368H92.0946C92.4146 24.312 93.4946 25.784 95.3346 25.784C95.7986 25.784 96.1906 25.648 96.5106 25.376C96.8466 25.088 97.0146 24.656 97.0146 24.08C97.0146 23.632 96.9106 23.232 96.7026 22.88C96.5106 22.528 96.2626 22.216 95.9586 21.944C95.6546 21.672 95.1986 21.296 94.5906 20.816C93.8706 20.24 93.3186 19.776 92.9346 19.424C92.5666 19.072 92.2466 18.656 91.9746 18.176C91.7186 17.696 91.5906 17.16 91.5906 16.568C91.5906 15.544 91.9906 14.736 92.7906 14.144C93.5906 13.552 94.5666 13.256 95.7186 13.256Z" fill="#0F4FAD"/>
<path d="M35.7666 61V48.1504H37.2607V61H35.7666ZM47.166 61V54.7686C47.166 53.9834 46.9873 53.3975 46.6299 53.0107C46.2725 52.624 45.7129 52.4307 44.9512 52.4307C43.9434 52.4307 43.2051 52.7031 42.7363 53.248C42.2676 53.793 42.0332 54.6924 42.0332 55.9463V61H40.5742V51.3672H41.7607L41.998 52.6855H42.0684C42.3672 52.2109 42.7861 51.8447 43.3252 51.5869C43.8643 51.3232 44.4648 51.1914 45.127 51.1914C46.2871 51.1914 47.1602 51.4727 47.7461 52.0352C48.332 52.5918 48.625 53.4854 48.625 54.7158V61H47.166ZM60.7891 61.1758C60.1621 61.1758 59.5879 61.0615 59.0664 60.833C58.5508 60.5986 58.1172 60.2412 57.7656 59.7607H57.6602C57.7305 60.3232 57.7656 60.8564 57.7656 61.3604V65.3242H56.3066V51.3672H57.4932L57.6953 52.6855H57.7656C58.1406 52.1582 58.5771 51.7773 59.0752 51.543C59.5732 51.3086 60.1445 51.1914 60.7891 51.1914C62.0664 51.1914 63.0508 51.6279 63.7422 52.501C64.4395 53.374 64.7881 54.5986 64.7881 56.1748C64.7881 57.7568 64.4336 58.9873 63.7246 59.8662C63.0215 60.7393 62.043 61.1758 60.7891 61.1758ZM60.5781 52.4307C59.5938 52.4307 58.8818 52.7031 58.4424 53.248C58.0029 53.793 57.7773 54.6602 57.7656 55.8496V56.1748C57.7656 57.5283 57.9912 58.498 58.4424 59.084C58.8936 59.6641 59.6172 59.9541 60.6133 59.9541C61.4453 59.9541 62.0957 59.6172 62.5645 58.9434C63.0391 58.2695 63.2764 57.3408 63.2764 56.1572C63.2764 54.9561 63.0391 54.0361 62.5645 53.3975C62.0957 52.7529 61.4336 52.4307 60.5781 52.4307ZM71.7402 51.1914C72.168 51.1914 72.5518 51.2266 72.8916 51.2969L72.6895 52.6504C72.291 52.5625 71.9395 52.5186 71.6348 52.5186C70.8555 52.5186 70.1875 52.835 69.6309 53.4678C69.0801 54.1006 68.8047 54.8887 68.8047 55.832V61H67.3457V51.3672H68.5498L68.7168 53.1514H68.7871C69.1445 52.5244 69.5752 52.041 70.0791 51.7012C70.583 51.3613 71.1367 51.1914 71.7402 51.1914ZM83.0078 56.1748C83.0078 57.7451 82.6123 58.9727 81.8213 59.8574C81.0303 60.7363 79.9375 61.1758 78.543 61.1758C77.6816 61.1758 76.917 60.9736 76.249 60.5693C75.5811 60.165 75.0654 59.585 74.7021 58.8291C74.3389 58.0732 74.1572 57.1885 74.1572 56.1748C74.1572 54.6045 74.5498 53.3828 75.335 52.5098C76.1201 51.6309 77.21 51.1914 78.6045 51.1914C79.9521 51.1914 81.0215 51.6396 81.8125 52.5361C82.6094 53.4326 83.0078 54.6455 83.0078 56.1748ZM75.6689 56.1748C75.6689 57.4053 75.915 58.3428 76.4072 58.9873C76.8994 59.6318 77.623 59.9541 78.5781 59.9541C79.5332 59.9541 80.2568 59.6348 80.749 58.9961C81.2471 58.3516 81.4961 57.4111 81.4961 56.1748C81.4961 54.9502 81.2471 54.0215 80.749 53.3887C80.2568 52.75 79.5273 52.4307 78.5605 52.4307C77.6055 52.4307 76.8848 52.7441 76.3984 53.3711C75.9121 53.998 75.6689 54.9326 75.6689 56.1748ZM93.458 51.3672V52.29L91.6738 52.501C91.8379 52.7061 91.9844 52.9756 92.1133 53.3096C92.2422 53.6377 92.3066 54.0098 92.3066 54.4258C92.3066 55.3691 91.9844 56.1221 91.3398 56.6846C90.6953 57.2471 89.8105 57.5283 88.6855 57.5283C88.3984 57.5283 88.1289 57.5049 87.877 57.458C87.2559 57.7861 86.9453 58.1992 86.9453 58.6973C86.9453 58.9609 87.0537 59.1572 87.2705 59.2861C87.4873 59.4092 87.8594 59.4707 88.3867 59.4707H90.0918C91.1348 59.4707 91.9346 59.6904 92.4912 60.1299C93.0537 60.5693 93.335 61.208 93.335 62.0459C93.335 63.1123 92.9072 63.9238 92.0518 64.4805C91.1963 65.043 89.9482 65.3242 88.3076 65.3242C87.0479 65.3242 86.0752 65.0898 85.3896 64.6211C84.71 64.1523 84.3701 63.4902 84.3701 62.6348C84.3701 62.0488 84.5576 61.542 84.9326 61.1143C85.3076 60.6865 85.835 60.3965 86.5146 60.2441C86.2686 60.1328 86.0605 59.96 85.8906 59.7256C85.7266 59.4912 85.6445 59.2188 85.6445 58.9082C85.6445 58.5566 85.7383 58.249 85.9258 57.9854C86.1133 57.7217 86.4092 57.4668 86.8135 57.2207C86.3154 57.0156 85.9082 56.667 85.5918 56.1748C85.2812 55.6826 85.126 55.1201 85.126 54.4873C85.126 53.4326 85.4424 52.6211 86.0752 52.0527C86.708 51.4785 87.6045 51.1914 88.7646 51.1914C89.2686 51.1914 89.7227 51.25 90.127 51.3672H93.458ZM85.7764 62.6172C85.7764 63.1387 85.9961 63.5342 86.4355 63.8037C86.875 64.0732 87.5049 64.208 88.3252 64.208C89.5498 64.208 90.4551 64.0234 91.041 63.6543C91.6328 63.291 91.9287 62.7959 91.9287 62.1689C91.9287 61.6475 91.7676 61.2842 91.4453 61.0791C91.123 60.8799 90.5166 60.7803 89.626 60.7803H87.877C87.2148 60.7803 86.6992 60.9385 86.3301 61.2549C85.9609 61.5713 85.7764 62.0254 85.7764 62.6172ZM86.5674 54.4521C86.5674 55.126 86.7578 55.6357 87.1387 55.9814C87.5195 56.3271 88.0498 56.5 88.7295 56.5C90.1533 56.5 90.8652 55.8086 90.8652 54.4258C90.8652 52.9785 90.1445 52.2549 88.7031 52.2549C88.0176 52.2549 87.4902 52.4395 87.1211 52.8086C86.752 53.1777 86.5674 53.7256 86.5674 54.4521ZM99.8301 51.1914C100.258 51.1914 100.642 51.2266 100.981 51.2969L100.779 52.6504C100.381 52.5625 100.029 52.5186 99.7246 52.5186C98.9453 52.5186 98.2773 52.835 97.7207 53.4678C97.1699 54.1006 96.8945 54.8887 96.8945 55.832V61H95.4355V51.3672H96.6396L96.8066 53.1514H96.877C97.2344 52.5244 97.665 52.041 98.1689 51.7012C98.6729 51.3613 99.2266 51.1914 99.8301 51.1914ZM106.853 61.1758C105.429 61.1758 104.304 60.7422 103.478 59.875C102.657 59.0078 102.247 57.8037 102.247 56.2627C102.247 54.71 102.628 53.4766 103.39 52.5625C104.157 51.6484 105.186 51.1914 106.475 51.1914C107.682 51.1914 108.637 51.5898 109.34 52.3867C110.043 53.1777 110.395 54.2236 110.395 55.5244V56.4473H103.759C103.788 57.5781 104.072 58.4365 104.611 59.0225C105.156 59.6084 105.921 59.9014 106.905 59.9014C107.942 59.9014 108.968 59.6846 109.981 59.251V60.5518C109.466 60.7744 108.977 60.9326 108.514 61.0264C108.057 61.126 107.503 61.1758 106.853 61.1758ZM106.457 52.4131C105.684 52.4131 105.065 52.665 104.603 53.1689C104.146 53.6729 103.876 54.3701 103.794 55.2607H108.83C108.83 54.3408 108.625 53.6377 108.215 53.1514C107.805 52.6592 107.219 52.4131 106.457 52.4131ZM119.104 58.3721C119.104 59.2686 118.771 59.96 118.103 60.4463C117.435 60.9326 116.497 61.1758 115.29 61.1758C114.013 61.1758 113.017 60.9736 112.302 60.5693V59.2158C112.765 59.4502 113.26 59.6348 113.787 59.7695C114.32 59.9043 114.833 59.9717 115.325 59.9717C116.087 59.9717 116.673 59.8516 117.083 59.6113C117.493 59.3652 117.698 58.9932 117.698 58.4951C117.698 58.1201 117.534 57.8008 117.206 57.5371C116.884 57.2676 116.251 56.9512 115.308 56.5879C114.411 56.2539 113.772 55.9639 113.392 55.7178C113.017 55.4658 112.735 55.1816 112.548 54.8652C112.366 54.5488 112.275 54.1709 112.275 53.7314C112.275 52.9463 112.595 52.3281 113.233 51.877C113.872 51.4199 114.748 51.1914 115.861 51.1914C116.898 51.1914 117.912 51.4023 118.902 51.8242L118.384 53.0107C117.417 52.6123 116.541 52.4131 115.756 52.4131C115.064 52.4131 114.543 52.5215 114.191 52.7383C113.84 52.9551 113.664 53.2539 113.664 53.6348C113.664 53.8926 113.729 54.1123 113.857 54.2939C113.992 54.4756 114.206 54.6484 114.499 54.8125C114.792 54.9766 115.354 55.2139 116.187 55.5244C117.329 55.9404 118.1 56.3594 118.498 56.7812C118.902 57.2031 119.104 57.7334 119.104 58.3721ZM127.7 58.3721C127.7 59.2686 127.366 59.96 126.698 60.4463C126.03 60.9326 125.093 61.1758 123.886 61.1758C122.608 61.1758 121.612 60.9736 120.897 60.5693V59.2158C121.36 59.4502 121.855 59.6348 122.383 59.7695C122.916 59.9043 123.429 59.9717 123.921 59.9717C124.683 59.9717 125.269 59.8516 125.679 59.6113C126.089 59.3652 126.294 58.9932 126.294 58.4951C126.294 58.1201 126.13 57.8008 125.802 57.5371C125.479 57.2676 124.847 56.9512 123.903 56.5879C123.007 56.2539 122.368 55.9639 121.987 55.7178C121.612 55.4658 121.331 55.1816 121.144 54.8652C120.962 54.5488 120.871 54.1709 120.871 53.7314C120.871 52.9463 121.19 52.3281 121.829 51.877C122.468 51.4199 123.344 51.1914 124.457 51.1914C125.494 51.1914 126.508 51.4023 127.498 51.8242L126.979 53.0107C126.013 52.6123 125.137 52.4131 124.352 52.4131C123.66 52.4131 123.139 52.5215 122.787 52.7383C122.436 52.9551 122.26 53.2539 122.26 53.6348C122.26 53.8926 122.324 54.1123 122.453 54.2939C122.588 54.4756 122.802 54.6484 123.095 54.8125C123.388 54.9766 123.95 55.2139 124.782 55.5244C125.925 55.9404 126.695 56.3594 127.094 56.7812C127.498 57.2031 127.7 57.7334 127.7 58.3721Z" fill="#4F4F4F"/>
</svg>
