<svg width="245" height="105" viewBox="0 0 245 105" fill="none" xmlns="http://www.w3.org/2000/svg">
<path d="M20 28H30" stroke="#0F4FAD" stroke-width="2" stroke-linecap="round" stroke-linejoin="round"/>
<path d="M24.9813 9.6895C25.4228 9.24802 26.0216 9 26.6459 9C26.9551 9 27.2612 9.06089 27.5468 9.17919C27.8324 9.2975 28.0919 9.4709 28.3105 9.6895C28.5291 9.90809 28.7025 10.1676 28.8208 10.4532C28.9391 10.7388 29 11.0449 29 11.3541C29 11.6632 28.9391 11.9693 28.8208 12.255C28.7025 12.5406 28.5291 12.8001 28.3105 13.0187L14.4389 26.8903L10 28L11.1097 23.5611L24.9813 9.6895Z" stroke="#0F4FAD" stroke-width="2" stroke-linecap="round" stroke-linejoin="round"/>
<path d="M62.088 24.944C61.656 25.44 61.192 25.792 60.696 26C60.2 26.224 59.6 26.336 58.896 26.336C57.968 26.336 57.232 26.144 56.688 25.76C56.16 25.36 55.816 24.688 55.656 23.744L55.224 21.344C55.016 20.176 54.76 19.32 54.456 18.776C54.168 18.216 53.68 17.936 52.992 17.936H51.432V23.456C51.432 24.064 51.472 24.504 51.552 24.776C51.648 25.048 51.816 25.232 52.056 25.328C52.296 25.424 52.688 25.488 53.232 25.52V26C52.368 25.952 51.16 25.928 49.608 25.928C47.896 25.928 46.632 25.952 45.816 26V25.52C46.344 25.488 46.728 25.424 46.968 25.328C47.224 25.232 47.392 25.048 47.472 24.776C47.568 24.504 47.616 24.064 47.616 23.456V11.552C47.616 10.944 47.568 10.504 47.472 10.232C47.392 9.96 47.224 9.776 46.968 9.68C46.728 9.584 46.344 9.52 45.816 9.488V9.008C46.632 9.056 47.848 9.08 49.464 9.08L52.128 9.056C52.448 9.04 52.816 9.032 53.232 9.032C55.44 9.032 57.096 9.392 58.2 10.112C59.32 10.832 59.88 11.864 59.88 13.208C59.88 14.344 59.464 15.344 58.632 16.208C57.8 17.072 56.424 17.616 54.504 17.84C55.944 17.968 57.016 18.28 57.72 18.776C58.424 19.272 58.88 20.016 59.088 21.008L59.64 23.48C59.768 24.12 59.912 24.568 60.072 24.824C60.248 25.08 60.488 25.208 60.792 25.208C60.984 25.192 61.144 25.144 61.272 25.064C61.416 24.984 61.576 24.848 61.752 24.656L62.088 24.944ZM52.92 9.488C52.488 9.488 52.168 9.544 51.96 9.656C51.768 9.768 51.632 9.968 51.552 10.256C51.472 10.544 51.432 10.976 51.432 11.552V17.456H52.464C53.776 17.456 54.672 17.112 55.152 16.424C55.648 15.72 55.896 14.736 55.896 13.472C55.896 12.16 55.664 11.168 55.2 10.496C54.736 9.824 53.976 9.488 52.92 9.488ZM69.2492 24.368C70.5612 24.368 71.6172 23.728 72.4172 22.448L72.8492 22.592C72.5292 23.632 71.9532 24.52 71.1212 25.256C70.3052 25.976 69.2812 26.336 68.0492 26.336C66.3532 26.336 65.0012 25.8 63.9932 24.728C63.0012 23.64 62.5052 22.04 62.5052 19.928C62.5052 17.768 63.0412 16.12 64.1132 14.984C65.1852 13.832 66.6092 13.256 68.3852 13.256C71.3932 13.256 72.8972 15.032 72.8972 18.584H66.1532C66.1372 18.824 66.1292 19.2 66.1292 19.712C66.1292 20.768 66.2732 21.648 66.5612 22.352C66.8652 23.056 67.2492 23.568 67.7132 23.888C68.1932 24.208 68.7052 24.368 69.2492 24.368ZM68.2412 13.76C67.6652 13.76 67.1852 14.12 66.8012 14.84C66.4332 15.544 66.2012 16.64 66.1052 18.128H69.8732C69.9052 16.864 69.7772 15.824 69.4892 15.008C69.2172 14.176 68.8012 13.76 68.2412 13.76ZM79.0389 13.256C79.6469 13.256 80.2069 13.336 80.7189 13.496C81.2309 13.64 81.6229 13.808 81.8949 14C82.0549 14.112 82.1989 14.168 82.3269 14.168C82.4709 14.168 82.5909 14.096 82.6869 13.952C82.7989 13.792 82.8709 13.568 82.9029 13.28H83.4069C83.3429 14.096 83.3109 15.504 83.3109 17.504H82.8069C82.6629 16.448 82.3429 15.568 81.8469 14.864C81.3669 14.144 80.6629 13.784 79.7349 13.784C79.2549 13.784 78.8549 13.92 78.5349 14.192C78.2309 14.464 78.0789 14.84 78.0789 15.32C78.0789 15.864 78.2629 16.336 78.6309 16.736C78.9989 17.12 79.5749 17.592 80.3589 18.152L81.0549 18.656C82.0309 19.392 82.7509 20.048 83.2149 20.624C83.6789 21.2 83.9109 21.92 83.9109 22.784C83.9109 23.488 83.7029 24.112 83.2869 24.656C82.8869 25.2 82.3429 25.616 81.6549 25.904C80.9669 26.192 80.2069 26.336 79.3749 26.336C78.4949 26.336 77.7429 26.168 77.1189 25.832C76.6069 25.576 76.2389 25.408 76.0149 25.328C75.8549 25.28 75.7109 25.336 75.5829 25.496C75.4709 25.64 75.3829 25.864 75.3189 26.168H74.8149C74.8789 25.256 74.9109 23.656 74.9109 21.368H75.4149C75.7349 24.312 76.8149 25.784 78.6549 25.784C79.1189 25.784 79.5109 25.648 79.8309 25.376C80.1669 25.088 80.3349 24.656 80.3349 24.08C80.3349 23.632 80.2309 23.232 80.0229 22.88C79.8309 22.528 79.5829 22.216 79.2789 21.944C78.9749 21.672 78.5189 21.296 77.9109 20.816C77.1909 20.24 76.6389 19.776 76.2549 19.424C75.8869 19.072 75.5669 18.656 75.2949 18.176C75.0389 17.696 74.9109 17.16 74.9109 16.568C74.9109 15.544 75.3109 14.736 76.1109 14.144C76.9109 13.552 77.8869 13.256 79.0389 13.256ZM92.4289 24.368C93.7409 24.368 94.7969 23.728 95.5969 22.448L96.0289 22.592C95.7089 23.632 95.1329 24.52 94.3009 25.256C93.4849 25.976 92.4609 26.336 91.2289 26.336C89.5329 26.336 88.1809 25.8 87.1729 24.728C86.1809 23.64 85.6849 22.04 85.6849 19.928C85.6849 17.768 86.2209 16.12 87.2929 14.984C88.3649 13.832 89.7889 13.256 91.5649 13.256C94.5729 13.256 96.0769 15.032 96.0769 18.584H89.3329C89.3169 18.824 89.3089 19.2 89.3089 19.712C89.3089 20.768 89.4529 21.648 89.7409 22.352C90.0449 23.056 90.4289 23.568 90.8929 23.888C91.3729 24.208 91.8849 24.368 92.4289 24.368ZM91.4209 13.76C90.8449 13.76 90.3649 14.12 89.9809 14.84C89.6129 15.544 89.3809 16.64 89.2849 18.128H93.0529C93.0849 16.864 92.9569 15.824 92.6689 15.008C92.3969 14.176 91.9809 13.76 91.4209 13.76ZM100.635 26.168C99.6106 26.168 98.8426 25.904 98.3306 25.376C97.8346 24.848 97.5866 24.152 97.5866 23.288C97.5866 22.568 97.7706 21.976 98.1386 21.512C98.5226 21.032 98.9786 20.664 99.5066 20.408C100.051 20.152 100.739 19.88 101.571 19.592C102.451 19.288 103.091 19.016 103.491 18.776C103.907 18.52 104.115 18.176 104.115 17.744V15.872C104.115 15.2 103.955 14.68 103.635 14.312C103.331 13.928 102.851 13.736 102.195 13.736C101.427 13.736 100.843 13.928 100.443 14.312C100.891 14.472 101.235 14.712 101.475 15.032C101.731 15.352 101.859 15.728 101.859 16.16C101.859 16.704 101.675 17.136 101.307 17.456C100.939 17.776 100.491 17.936 99.9626 17.936C99.4026 17.936 98.9706 17.76 98.6666 17.408C98.3626 17.056 98.2106 16.616 98.2106 16.088C98.2106 15.64 98.3146 15.264 98.5226 14.96C98.7466 14.64 99.0826 14.344 99.5306 14.072C99.9626 13.816 100.491 13.616 101.115 13.472C101.755 13.328 102.451 13.256 103.203 13.256C103.987 13.256 104.667 13.336 105.243 13.496C105.819 13.656 106.299 13.928 106.683 14.312C107.035 14.664 107.267 15.096 107.379 15.608C107.507 16.12 107.571 16.816 107.571 17.696V24.224C107.571 24.608 107.603 24.88 107.667 25.04C107.747 25.2 107.891 25.28 108.099 25.28C108.339 25.28 108.627 25.144 108.963 24.872L109.203 25.28C108.483 25.872 107.603 26.168 106.563 26.168C105.683 26.168 105.067 25.992 104.715 25.64C104.363 25.288 104.179 24.816 104.163 24.224C103.363 25.52 102.187 26.168 100.635 26.168ZM102.483 24.632C103.107 24.632 103.651 24.304 104.115 23.648V18.728C103.923 19.048 103.515 19.4 102.891 19.784C102.267 20.184 101.795 20.584 101.475 20.984C101.155 21.384 100.995 21.96 100.995 22.712C100.995 23.368 101.131 23.856 101.403 24.176C101.675 24.48 102.035 24.632 102.483 24.632ZM118.145 13.256C118.865 13.256 119.409 13.472 119.777 13.904C120.145 14.336 120.329 14.856 120.329 15.464C120.329 16.056 120.153 16.544 119.801 16.928C119.465 17.296 119.017 17.48 118.457 17.48C117.913 17.48 117.481 17.344 117.161 17.072C116.841 16.784 116.681 16.408 116.681 15.944C116.681 15.176 117.033 14.552 117.737 14.072C117.673 14.056 117.577 14.048 117.449 14.048C117.289 14.048 117.161 14.064 117.065 14.096C116.457 14.192 115.937 14.56 115.505 15.2C115.089 15.84 114.881 16.496 114.881 17.168V23.528C114.881 24.264 115.057 24.776 115.409 25.064C115.777 25.352 116.353 25.496 117.137 25.496V26C116.913 26 116.729 25.992 116.585 25.976C114.953 25.928 113.865 25.904 113.321 25.904C112.889 25.904 111.905 25.928 110.369 25.976C110.241 25.992 110.081 26 109.889 26V25.496C110.465 25.496 110.865 25.376 111.089 25.136C111.313 24.88 111.425 24.424 111.425 23.768V16.208C111.425 15.472 111.313 14.936 111.089 14.6C110.865 14.264 110.465 14.096 109.889 14.096V13.592C110.401 13.64 110.897 13.664 111.377 13.664C112.801 13.664 113.969 13.552 114.881 13.328V15.56C115.185 14.872 115.625 14.32 116.201 13.904C116.777 13.472 117.425 13.256 118.145 13.256ZM127.004 13.256C127.596 13.256 128.156 13.32 128.684 13.448C129.212 13.576 129.652 13.752 130.004 13.976C130.42 14.232 130.74 14.56 130.964 14.96C131.204 15.344 131.324 15.768 131.324 16.232C131.324 16.792 131.148 17.256 130.796 17.624C130.444 17.976 129.988 18.152 129.428 18.152C128.868 18.152 128.42 17.992 128.084 17.672C127.748 17.352 127.58 16.92 127.58 16.376C127.58 15.896 127.732 15.48 128.036 15.128C128.34 14.776 128.716 14.536 129.164 14.408C129.036 14.232 128.836 14.096 128.564 14C128.308 13.888 128.028 13.832 127.724 13.832C126.764 13.832 126.012 14.36 125.468 15.416C124.94 16.456 124.676 17.824 124.676 19.52C124.676 21.232 124.98 22.464 125.588 23.216C126.196 23.968 126.956 24.344 127.868 24.344C128.412 24.344 128.956 24.2 129.5 23.912C130.06 23.624 130.564 23.12 131.012 22.4L131.42 22.544C131.1 23.584 130.54 24.48 129.74 25.232C128.94 25.968 127.908 26.336 126.644 26.336C124.996 26.336 123.652 25.792 122.612 24.704C121.572 23.616 121.052 22 121.052 19.856C121.052 18.448 121.308 17.248 121.82 16.256C122.332 15.264 123.036 14.52 123.932 14.024C124.828 13.512 125.852 13.256 127.004 13.256ZM137.542 15.488C138.262 14 139.566 13.256 141.454 13.256C142.702 13.256 143.582 13.568 144.094 14.192C144.366 14.496 144.558 14.896 144.67 15.392C144.798 15.872 144.862 16.512 144.862 17.312V23.768C144.862 24.424 144.974 24.88 145.198 25.136C145.422 25.376 145.822 25.496 146.398 25.496V26C144.734 25.936 143.678 25.904 143.23 25.904C142.686 25.904 141.646 25.936 140.11 26V25.496C140.59 25.496 140.926 25.376 141.118 25.136C141.31 24.88 141.406 24.424 141.406 23.768V16.304C141.406 15.648 141.294 15.152 141.07 14.816C140.862 14.48 140.478 14.312 139.918 14.312C139.246 14.312 138.678 14.576 138.214 15.104C137.766 15.616 137.542 16.272 137.542 17.072V23.768C137.542 24.424 137.638 24.88 137.83 25.136C138.022 25.376 138.358 25.496 138.838 25.496V26C137.302 25.936 136.31 25.904 135.862 25.904C135.318 25.904 134.214 25.936 132.55 26V25.496C133.11 25.496 133.502 25.376 133.726 25.136C133.966 24.88 134.086 24.424 134.086 23.768V10.112C134.086 9.376 133.966 8.84 133.726 8.504C133.502 8.168 133.11 8 132.55 8V7.496C133.062 7.544 133.558 7.568 134.038 7.568C135.43 7.568 136.598 7.456 137.542 7.232V15.488Z" fill="#0F4FAD"/>
<path d="M56.4697 48.1504V56.4648C56.4697 57.9297 56.0273 59.0811 55.1426 59.9189C54.2578 60.7568 53.042 61.1758 51.4951 61.1758C49.9482 61.1758 48.75 60.7539 47.9004 59.9102C47.0566 59.0664 46.6348 57.9062 46.6348 56.4297V48.1504H48.1289V56.5352C48.1289 57.6074 48.4219 58.4307 49.0078 59.0049C49.5938 59.5791 50.4551 59.8662 51.5918 59.8662C52.6758 59.8662 53.5107 59.5791 54.0967 59.0049C54.6826 58.4248 54.9756 57.5957 54.9756 56.5176V48.1504H56.4697ZM65.874 58.3721C65.874 59.2686 65.54 59.96 64.8721 60.4463C64.2041 60.9326 63.2666 61.1758 62.0596 61.1758C60.7822 61.1758 59.7861 60.9736 59.0713 60.5693V59.2158C59.5342 59.4502 60.0293 59.6348 60.5566 59.7695C61.0898 59.9043 61.6025 59.9717 62.0947 59.9717C62.8564 59.9717 63.4424 59.8516 63.8525 59.6113C64.2627 59.3652 64.4678 58.9932 64.4678 58.4951C64.4678 58.1201 64.3037 57.8008 63.9756 57.5371C63.6533 57.2676 63.0205 56.9512 62.0771 56.5879C61.1807 56.2539 60.542 55.9639 60.1611 55.7178C59.7861 55.4658 59.5049 55.1816 59.3174 54.8652C59.1357 54.5488 59.0449 54.1709 59.0449 53.7314C59.0449 52.9463 59.3643 52.3281 60.0029 51.877C60.6416 51.4199 61.5176 51.1914 62.6309 51.1914C63.668 51.1914 64.6816 51.4023 65.6719 51.8242L65.1533 53.0107C64.1865 52.6123 63.3105 52.4131 62.5254 52.4131C61.834 52.4131 61.3125 52.5215 60.9609 52.7383C60.6094 52.9551 60.4336 53.2539 60.4336 53.6348C60.4336 53.8926 60.498 54.1123 60.627 54.2939C60.7617 54.4756 60.9756 54.6484 61.2686 54.8125C61.5615 54.9766 62.124 55.2139 62.9561 55.5244C64.0986 55.9404 64.8691 56.3594 65.2676 56.7812C65.6719 57.2031 65.874 57.7334 65.874 58.3721ZM72.3252 61.1758C70.9014 61.1758 69.7764 60.7422 68.9502 59.875C68.1299 59.0078 67.7197 57.8037 67.7197 56.2627C67.7197 54.71 68.1006 53.4766 68.8623 52.5625C69.6299 51.6484 70.6582 51.1914 71.9473 51.1914C73.1543 51.1914 74.1094 51.5898 74.8125 52.3867C75.5156 53.1777 75.8672 54.2236 75.8672 55.5244V56.4473H69.2314C69.2607 57.5781 69.5449 58.4365 70.084 59.0225C70.6289 59.6084 71.3936 59.9014 72.3779 59.9014C73.415 59.9014 74.4404 59.6846 75.4541 59.251V60.5518C74.9385 60.7744 74.4492 60.9326 73.9863 61.0264C73.5293 61.126 72.9756 61.1758 72.3252 61.1758ZM71.9297 52.4131C71.1562 52.4131 70.5381 52.665 70.0752 53.1689C69.6182 53.6729 69.3486 54.3701 69.2666 55.2607H74.3027C74.3027 54.3408 74.0977 53.6377 73.6875 53.1514C73.2773 52.6592 72.6914 52.4131 71.9297 52.4131ZM82.7578 51.1914C83.1855 51.1914 83.5693 51.2266 83.9092 51.2969L83.707 52.6504C83.3086 52.5625 82.957 52.5186 82.6523 52.5186C81.873 52.5186 81.2051 52.835 80.6484 53.4678C80.0977 54.1006 79.8223 54.8887 79.8223 55.832V61H78.3633V51.3672H79.5674L79.7344 53.1514H79.8047C80.1621 52.5244 80.5928 52.041 81.0967 51.7012C81.6006 51.3613 82.1543 51.1914 82.7578 51.1914ZM96.6006 58.3721C96.6006 59.2686 96.2666 59.96 95.5986 60.4463C94.9307 60.9326 93.9932 61.1758 92.7861 61.1758C91.5088 61.1758 90.5127 60.9736 89.7979 60.5693V59.2158C90.2607 59.4502 90.7559 59.6348 91.2832 59.7695C91.8164 59.9043 92.3291 59.9717 92.8213 59.9717C93.583 59.9717 94.1689 59.8516 94.5791 59.6113C94.9893 59.3652 95.1943 58.9932 95.1943 58.4951C95.1943 58.1201 95.0303 57.8008 94.7021 57.5371C94.3799 57.2676 93.7471 56.9512 92.8037 56.5879C91.9072 56.2539 91.2686 55.9639 90.8877 55.7178C90.5127 55.4658 90.2314 55.1816 90.0439 54.8652C89.8623 54.5488 89.7715 54.1709 89.7715 53.7314C89.7715 52.9463 90.0908 52.3281 90.7295 51.877C91.3682 51.4199 92.2441 51.1914 93.3574 51.1914C94.3945 51.1914 95.4082 51.4023 96.3984 51.8242L95.8799 53.0107C94.9131 52.6123 94.0371 52.4131 93.252 52.4131C92.5605 52.4131 92.0391 52.5215 91.6875 52.7383C91.3359 52.9551 91.1602 53.2539 91.1602 53.6348C91.1602 53.8926 91.2246 54.1123 91.3535 54.2939C91.4883 54.4756 91.7021 54.6484 91.9951 54.8125C92.2881 54.9766 92.8506 55.2139 93.6826 55.5244C94.8252 55.9404 95.5957 56.3594 95.9941 56.7812C96.3984 57.2031 96.6006 57.7334 96.6006 58.3721ZM100.354 51.3672V57.6162C100.354 58.4014 100.532 58.9873 100.89 59.374C101.247 59.7607 101.807 59.9541 102.568 59.9541C103.576 59.9541 104.312 59.6787 104.774 59.1279C105.243 58.5771 105.478 57.6777 105.478 56.4297V51.3672H106.937V61H105.732L105.521 59.708H105.442C105.144 60.1826 104.728 60.5459 104.194 60.7979C103.667 61.0498 103.063 61.1758 102.384 61.1758C101.212 61.1758 100.333 60.8975 99.7471 60.3408C99.167 59.7842 98.877 58.8936 98.877 57.6689V51.3672H100.354ZM114.434 51.1914C114.861 51.1914 115.245 51.2266 115.585 51.2969L115.383 52.6504C114.984 52.5625 114.633 52.5186 114.328 52.5186C113.549 52.5186 112.881 52.835 112.324 53.4678C111.773 54.1006 111.498 54.8887 111.498 55.832V61H110.039V51.3672H111.243L111.41 53.1514H111.48C111.838 52.5244 112.269 52.041 112.772 51.7012C113.276 51.3613 113.83 51.1914 114.434 51.1914ZM119.496 61L115.84 51.3672H117.404L119.479 57.0801C119.947 58.416 120.223 59.2832 120.305 59.6816H120.375C120.439 59.3711 120.642 58.7295 120.981 57.7568C121.327 56.7783 122.098 54.6484 123.293 51.3672H124.857L121.201 61H119.496ZM130.474 61.1758C129.05 61.1758 127.925 60.7422 127.099 59.875C126.278 59.0078 125.868 57.8037 125.868 56.2627C125.868 54.71 126.249 53.4766 127.011 52.5625C127.778 51.6484 128.807 51.1914 130.096 51.1914C131.303 51.1914 132.258 51.5898 132.961 52.3867C133.664 53.1777 134.016 54.2236 134.016 55.5244V56.4473H127.38C127.409 57.5781 127.693 58.4365 128.232 59.0225C128.777 59.6084 129.542 59.9014 130.526 59.9014C131.563 59.9014 132.589 59.6846 133.603 59.251V60.5518C133.087 60.7744 132.598 60.9326 132.135 61.0264C131.678 61.126 131.124 61.1758 130.474 61.1758ZM130.078 52.4131C129.305 52.4131 128.687 52.665 128.224 53.1689C127.767 53.6729 127.497 54.3701 127.415 55.2607H132.451C132.451 54.3408 132.246 53.6377 131.836 53.1514C131.426 52.6592 130.84 52.4131 130.078 52.4131ZM134.982 51.3672H136.547L138.656 56.8604C139.119 58.1143 139.406 59.0195 139.518 59.5762H139.588C139.664 59.2773 139.822 58.7676 140.062 58.0469C140.309 57.3203 141.105 55.0938 142.453 51.3672H144.018L139.878 62.3359C139.468 63.4199 138.987 64.1875 138.437 64.6387C137.892 65.0957 137.221 65.3242 136.424 65.3242C135.979 65.3242 135.539 65.2744 135.105 65.1748V64.0059C135.428 64.0762 135.788 64.1113 136.187 64.1113C137.188 64.1113 137.903 63.5488 138.331 62.4238L138.867 61.0527L134.982 51.3672ZM151.796 58.3721C151.796 59.2686 151.462 59.96 150.794 60.4463C150.126 60.9326 149.188 61.1758 147.981 61.1758C146.704 61.1758 145.708 60.9736 144.993 60.5693V59.2158C145.456 59.4502 145.951 59.6348 146.479 59.7695C147.012 59.9043 147.524 59.9717 148.017 59.9717C148.778 59.9717 149.364 59.8516 149.774 59.6113C150.185 59.3652 150.39 58.9932 150.39 58.4951C150.39 58.1201 150.226 57.8008 149.897 57.5371C149.575 57.2676 148.942 56.9512 147.999 56.5879C147.103 56.2539 146.464 55.9639 146.083 55.7178C145.708 55.4658 145.427 55.1816 145.239 54.8652C145.058 54.5488 144.967 54.1709 144.967 53.7314C144.967 52.9463 145.286 52.3281 145.925 51.877C146.563 51.4199 147.439 51.1914 148.553 51.1914C149.59 51.1914 150.604 51.4023 151.594 51.8242L151.075 53.0107C150.108 52.6123 149.232 52.4131 148.447 52.4131C147.756 52.4131 147.234 52.5215 146.883 52.7383C146.531 52.9551 146.355 53.2539 146.355 53.6348C146.355 53.8926 146.42 54.1123 146.549 54.2939C146.684 54.4756 146.897 54.6484 147.19 54.8125C147.483 54.9766 148.046 55.2139 148.878 55.5244C150.021 55.9404 150.791 56.3594 151.189 56.7812C151.594 57.2031 151.796 57.7334 151.796 58.3721ZM48.2607 95H46.7666V82.1504H53.9297V83.4775H48.2607V88.1797H53.5869V89.5068H48.2607V95ZM59.915 95.1758C58.4912 95.1758 57.3662 94.7422 56.54 93.875C55.7197 93.0078 55.3096 91.8037 55.3096 90.2627C55.3096 88.71 55.6904 87.4766 56.4521 86.5625C57.2197 85.6484 58.248 85.1914 59.5371 85.1914C60.7441 85.1914 61.6992 85.5898 62.4023 86.3867C63.1055 87.1777 63.457 88.2236 63.457 89.5244V90.4473H56.8213C56.8506 91.5781 57.1348 92.4365 57.6738 93.0225C58.2188 93.6084 58.9834 93.9014 59.9678 93.9014C61.0049 93.9014 62.0303 93.6846 63.0439 93.251V94.5518C62.5283 94.7744 62.0391 94.9326 61.5762 95.0264C61.1191 95.126 60.5654 95.1758 59.915 95.1758ZM59.5195 86.4131C58.7461 86.4131 58.1279 86.665 57.665 87.1689C57.208 87.6729 56.9385 88.3701 56.8564 89.2607H61.8926C61.8926 88.3408 61.6875 87.6377 61.2773 87.1514C60.8672 86.6592 60.2812 86.4131 59.5195 86.4131ZM71.877 95L71.5869 93.6289H71.5166C71.0361 94.2324 70.5557 94.6426 70.0752 94.8594C69.6006 95.0703 69.0059 95.1758 68.291 95.1758C67.3359 95.1758 66.5859 94.9297 66.041 94.4375C65.502 93.9453 65.2324 93.2451 65.2324 92.3369C65.2324 90.3916 66.7881 89.3721 69.8994 89.2783L71.5342 89.2256V88.6279C71.5342 87.8721 71.3701 87.3154 71.042 86.958C70.7197 86.5947 70.2012 86.4131 69.4863 86.4131C68.6836 86.4131 67.7754 86.6592 66.7617 87.1514L66.3135 86.0352C66.7881 85.7773 67.3066 85.5752 67.8691 85.4287C68.4375 85.2822 69.0059 85.209 69.5742 85.209C70.7227 85.209 71.5723 85.4639 72.123 85.9736C72.6797 86.4834 72.958 87.3008 72.958 88.4258V95H71.877ZM68.5811 93.9717C69.4893 93.9717 70.2012 93.7227 70.7168 93.2246C71.2383 92.7266 71.499 92.0293 71.499 91.1328V90.2627L70.04 90.3242C68.8799 90.3652 68.042 90.5469 67.5264 90.8691C67.0166 91.1855 66.7617 91.6807 66.7617 92.3545C66.7617 92.8818 66.9199 93.2832 67.2363 93.5586C67.5586 93.834 68.0068 93.9717 68.5811 93.9717ZM79.084 93.9717C79.3418 93.9717 79.5908 93.9541 79.8311 93.9189C80.0713 93.8779 80.2617 93.8369 80.4023 93.7959V94.9121C80.2441 94.9883 80.0098 95.0498 79.6992 95.0967C79.3945 95.1494 79.1191 95.1758 78.873 95.1758C77.0098 95.1758 76.0781 94.1943 76.0781 92.2314V86.501H74.6982V85.7979L76.0781 85.1914L76.6934 83.1348H77.5371V85.3672H80.332V86.501H77.5371V92.1699C77.5371 92.75 77.6748 93.1953 77.9502 93.5059C78.2256 93.8164 78.6035 93.9717 79.084 93.9717ZM83.707 85.3672V91.6162C83.707 92.4014 83.8857 92.9873 84.2432 93.374C84.6006 93.7607 85.1602 93.9541 85.9219 93.9541C86.9297 93.9541 87.665 93.6787 88.1279 93.1279C88.5967 92.5771 88.8311 91.6777 88.8311 90.4297V85.3672H90.29V95H89.0859L88.875 93.708H88.7959C88.4971 94.1826 88.0811 94.5459 87.5479 94.7979C87.0205 95.0498 86.417 95.1758 85.7373 95.1758C84.5654 95.1758 83.6865 94.8975 83.1006 94.3408C82.5205 93.7842 82.2305 92.8936 82.2305 91.6689V85.3672H83.707ZM97.7871 85.1914C98.2148 85.1914 98.5986 85.2266 98.9385 85.2969L98.7363 86.6504C98.3379 86.5625 97.9863 86.5186 97.6816 86.5186C96.9023 86.5186 96.2344 86.835 95.6777 87.4678C95.127 88.1006 94.8516 88.8887 94.8516 89.832V95H93.3926V85.3672H94.5967L94.7637 87.1514H94.834C95.1914 86.5244 95.6221 86.041 96.126 85.7012C96.6299 85.3613 97.1836 85.1914 97.7871 85.1914ZM104.81 95.1758C103.386 95.1758 102.261 94.7422 101.435 93.875C100.614 93.0078 100.204 91.8037 100.204 90.2627C100.204 88.71 100.585 87.4766 101.347 86.5625C102.114 85.6484 103.143 85.1914 104.432 85.1914C105.639 85.1914 106.594 85.5898 107.297 86.3867C108 87.1777 108.352 88.2236 108.352 89.5244V90.4473H101.716C101.745 91.5781 102.029 92.4365 102.568 93.0225C103.113 93.6084 103.878 93.9014 104.862 93.9014C105.899 93.9014 106.925 93.6846 107.938 93.251V94.5518C107.423 94.7744 106.934 94.9326 106.471 95.0264C106.014 95.126 105.46 95.1758 104.81 95.1758ZM104.414 86.4131C103.641 86.4131 103.022 86.665 102.56 87.1689C102.103 87.6729 101.833 88.3701 101.751 89.2607H106.787C106.787 88.3408 106.582 87.6377 106.172 87.1514C105.762 86.6592 105.176 86.4131 104.414 86.4131ZM123.82 95L122.221 90.9131H117.07L115.488 95H113.977L119.057 82.0977H120.313L125.367 95H123.82ZM121.755 89.5684L120.261 85.5869C120.067 85.083 119.868 84.4648 119.663 83.7324C119.534 84.2949 119.35 84.9131 119.109 85.5869L117.598 89.5684H121.755ZM133.506 95V88.7686C133.506 87.9834 133.327 87.3975 132.97 87.0107C132.612 86.624 132.053 86.4307 131.291 86.4307C130.283 86.4307 129.545 86.7031 129.076 87.248C128.607 87.793 128.373 88.6924 128.373 89.9463V95H126.914V85.3672H128.101L128.338 86.6855H128.408C128.707 86.2109 129.126 85.8447 129.665 85.5869C130.204 85.3232 130.805 85.1914 131.467 85.1914C132.627 85.1914 133.5 85.4727 134.086 86.0352C134.672 86.5918 134.965 87.4854 134.965 88.7158V95H133.506ZM143.895 95L143.604 93.6289H143.534C143.054 94.2324 142.573 94.6426 142.093 94.8594C141.618 95.0703 141.023 95.1758 140.309 95.1758C139.354 95.1758 138.604 94.9297 138.059 94.4375C137.52 93.9453 137.25 93.2451 137.25 92.3369C137.25 90.3916 138.806 89.3721 141.917 89.2783L143.552 89.2256V88.6279C143.552 87.8721 143.388 87.3154 143.06 86.958C142.737 86.5947 142.219 86.4131 141.504 86.4131C140.701 86.4131 139.793 86.6592 138.779 87.1514L138.331 86.0352C138.806 85.7773 139.324 85.5752 139.887 85.4287C140.455 85.2822 141.023 85.209 141.592 85.209C142.74 85.209 143.59 85.4639 144.141 85.9736C144.697 86.4834 144.976 87.3008 144.976 88.4258V95H143.895ZM140.599 93.9717C141.507 93.9717 142.219 93.7227 142.734 93.2246C143.256 92.7266 143.517 92.0293 143.517 91.1328V90.2627L142.058 90.3242C140.897 90.3652 140.06 90.5469 139.544 90.8691C139.034 91.1855 138.779 91.6807 138.779 92.3545C138.779 92.8818 138.938 93.2832 139.254 93.5586C139.576 93.834 140.024 93.9717 140.599 93.9717ZM149.449 95H147.99V81.3242H149.449V95ZM151.014 85.3672H152.578L154.688 90.8604C155.15 92.1143 155.438 93.0195 155.549 93.5762H155.619C155.695 93.2773 155.854 92.7676 156.094 92.0469C156.34 91.3203 157.137 89.0938 158.484 85.3672H160.049L155.909 96.3359C155.499 97.4199 155.019 98.1875 154.468 98.6387C153.923 99.0957 153.252 99.3242 152.455 99.3242C152.01 99.3242 151.57 99.2744 151.137 99.1748V98.0059C151.459 98.0762 151.819 98.1113 152.218 98.1113C153.22 98.1113 153.935 97.5488 154.362 96.4238L154.898 95.0527L151.014 85.3672ZM167.827 92.3721C167.827 93.2686 167.493 93.96 166.825 94.4463C166.157 94.9326 165.22 95.1758 164.013 95.1758C162.735 95.1758 161.739 94.9736 161.024 94.5693V93.2158C161.487 93.4502 161.982 93.6348 162.51 93.7695C163.043 93.9043 163.556 93.9717 164.048 93.9717C164.81 93.9717 165.396 93.8516 165.806 93.6113C166.216 93.3652 166.421 92.9932 166.421 92.4951C166.421 92.1201 166.257 91.8008 165.929 91.5371C165.606 91.2676 164.974 90.9512 164.03 90.5879C163.134 90.2539 162.495 89.9639 162.114 89.7178C161.739 89.4658 161.458 89.1816 161.271 88.8652C161.089 88.5488 160.998 88.1709 160.998 87.7314C160.998 86.9463 161.317 86.3281 161.956 85.877C162.595 85.4199 163.471 85.1914 164.584 85.1914C165.621 85.1914 166.635 85.4023 167.625 85.8242L167.106 87.0107C166.14 86.6123 165.264 86.4131 164.479 86.4131C163.787 86.4131 163.266 86.5215 162.914 86.7383C162.562 86.9551 162.387 87.2539 162.387 87.6348C162.387 87.8926 162.451 88.1123 162.58 88.2939C162.715 88.4756 162.929 88.6484 163.222 88.8125C163.515 88.9766 164.077 89.2139 164.909 89.5244C166.052 89.9404 166.822 90.3594 167.221 90.7812C167.625 91.2031 167.827 91.7334 167.827 92.3721ZM171.668 95H170.209V85.3672H171.668V95ZM170.086 82.7568C170.086 82.4229 170.168 82.1797 170.332 82.0273C170.496 81.8691 170.701 81.79 170.947 81.79C171.182 81.79 171.384 81.8691 171.554 82.0273C171.724 82.1855 171.809 82.4287 171.809 82.7568C171.809 83.085 171.724 83.3311 171.554 83.4951C171.384 83.6533 171.182 83.7324 170.947 83.7324C170.701 83.7324 170.496 83.6533 170.332 83.4951C170.168 83.3311 170.086 83.085 170.086 82.7568ZM180.976 92.3721C180.976 93.2686 180.642 93.96 179.974 94.4463C179.306 94.9326 178.368 95.1758 177.161 95.1758C175.884 95.1758 174.888 94.9736 174.173 94.5693V93.2158C174.636 93.4502 175.131 93.6348 175.658 93.7695C176.191 93.9043 176.704 93.9717 177.196 93.9717C177.958 93.9717 178.544 93.8516 178.954 93.6113C179.364 93.3652 179.569 92.9932 179.569 92.4951C179.569 92.1201 179.405 91.8008 179.077 91.5371C178.755 91.2676 178.122 90.9512 177.179 90.5879C176.282 90.2539 175.644 89.9639 175.263 89.7178C174.888 89.4658 174.606 89.1816 174.419 88.8652C174.237 88.5488 174.146 88.1709 174.146 87.7314C174.146 86.9463 174.466 86.3281 175.104 85.877C175.743 85.4199 176.619 85.1914 177.732 85.1914C178.77 85.1914 179.783 85.4023 180.773 85.8242L180.255 87.0107C179.288 86.6123 178.412 86.4131 177.627 86.4131C176.936 86.4131 176.414 86.5215 176.062 86.7383C175.711 86.9551 175.535 87.2539 175.535 87.6348C175.535 87.8926 175.6 88.1123 175.729 88.2939C175.863 88.4756 176.077 88.6484 176.37 88.8125C176.663 88.9766 177.226 89.2139 178.058 89.5244C179.2 89.9404 179.971 90.3594 180.369 90.7812C180.773 91.2031 180.976 91.7334 180.976 92.3721Z" fill="#4F4F4F"/>
</svg>
