<svg width="246" height="44" viewBox="0 0 246 44" fill="none" xmlns="http://www.w3.org/2000/svg">
<path d="M5.64 23.95C5.76 24.11 5.87 24.26 5.97 24.4C6.07 24.52 6.18 24.66 6.3 24.82C5.96 25.04 5.52 25.33 4.98 25.69C4.44 26.05 3.91 26.45 3.39 26.89C2.89 27.33 2.48 27.78 2.16 28.24C1.84 28.72 1.74 29.18 1.86 29.62C3.3 29.68 4.81 29.49 6.39 29.05C7.99 28.63 9.54 28.04 11.04 27.28C12.56 26.5 13.98 25.61 15.3 24.61C16.62 23.61 17.74 22.58 18.66 21.52C19.04 21.04 19.38 20.51 19.68 19.93C19.22 19.77 18.67 19.69 18.03 19.69C17.39 19.67 16.79 19.69 16.23 19.75C14.37 19.95 12.57 20.15 10.83 20.35C9.11 20.53 7.39 20.72 5.67 20.92C5.07 20.96 4.52 20.97 4.02 20.95C3.54 20.91 3.09 20.81 2.67 20.65C2.27 20.49 1.89 20.26 1.53 19.96C1.17 19.64 0.82 19.22 0.48 18.7C0.28 18.28 0.24 17.87 0.36 17.47C0.48 17.05 0.66 16.67 0.9 16.33C1.76 15.19 2.83 14.13 4.11 13.15C5.41 12.15 6.81 11.24 8.31 10.42C9.83 9.58 11.39 8.83 12.99 8.17C14.61 7.51 16.16 6.95 17.64 6.49C19.14 6.01 20.51 5.63 21.75 5.35C23.01 5.07 24.04 4.9 24.84 4.84C25.78 4.76 26.56 4.99 27.18 5.53C27.48 5.79 27.77 6.13 28.05 6.55C28.33 6.95 28.52 7.34 28.62 7.72C28.7 8.12 28.58 8.53 28.26 8.95C27.56 9.79 26.69 10.58 25.65 11.32C24.63 12.06 23.57 12.74 22.47 13.36C21.37 13.98 20.29 14.53 19.23 15.01C18.19 15.47 17.3 15.85 16.56 16.15C16.3 16.25 16.09 16.32 15.93 16.36C15.77 16.4 15.62 16.4 15.48 16.36C15.34 16.32 15.19 16.23 15.03 16.09C14.89 15.95 14.71 15.76 14.49 15.52C15.49 14.92 16.5 14.34 17.52 13.78C18.54 13.2 19.54 12.6 20.52 11.98C21.52 11.34 22.48 10.67 23.4 9.97C24.34 9.27 25.23 8.48 26.07 7.6C23.93 7.88 21.79 8.34 19.65 8.98C17.53 9.62 15.46 10.42 13.44 11.38C11.44 12.34 9.53 13.44 7.71 14.68C5.91 15.92 4.26 17.26 2.76 18.7C3.92 18.86 5.09 18.92 6.27 18.88C7.47 18.82 8.67 18.73 9.87 18.61C11.09 18.47 12.29 18.34 13.47 18.22C14.67 18.1 15.85 18.04 17.01 18.04C17.87 18.06 18.65 18.22 19.35 18.52C20.07 18.8 20.59 19.34 20.91 20.14C21.03 20.54 20.99 20.96 20.79 21.4C20.59 21.84 20.32 22.26 19.98 22.66C19.12 23.68 18.02 24.69 16.68 25.69C15.34 26.67 13.91 27.55 12.39 28.33C10.87 29.13 9.34 29.78 7.8 30.28C6.26 30.8 4.86 31.09 3.6 31.15C3.22 31.19 2.82 31.13 2.4 30.97C1.98 30.81 1.61 30.58 1.29 30.28C0.99 30 0.77 29.67 0.63 29.29C0.49 28.93 0.5 28.57 0.66 28.21C0.84 27.79 1.1 27.38 1.44 26.98C1.8 26.58 2.2 26.21 2.64 25.87C3.1 25.51 3.58 25.17 4.08 24.85C4.6 24.53 5.12 24.23 5.64 23.95ZM37.2396 19.24C35.7796 20.94 34.3896 22.5 33.0696 23.92C31.7496 25.32 30.3896 26.65 28.9896 27.91C28.6096 28.19 28.2596 28.4 27.9396 28.54C27.6396 28.68 27.2796 28.62 26.8596 28.36C26.7596 28.3 26.6496 28.24 26.5296 28.18C26.4096 28.14 26.2896 28.08 26.1696 28C25.6496 27.78 25.2796 27.48 25.0596 27.1C24.8196 26.72 24.6896 26.27 24.6696 25.75C24.6296 25.01 24.6796 24.29 24.8196 23.59C24.9396 22.89 25.1096 22.2 25.3296 21.52C25.8696 19.74 26.5596 18.04 27.3996 16.42C28.2396 14.8 29.1396 13.2 30.0996 11.62C30.2196 11.46 30.3296 11.3 30.4296 11.14C30.5296 10.96 30.6596 10.75 30.8196 10.51C30.2796 10.51 29.7396 10.52 29.1996 10.54C28.6796 10.54 28.1696 10.51 27.6696 10.45C27.1696 10.39 26.6896 10.28 26.2296 10.12C25.7696 9.94 25.3396 9.65 24.9396 9.25C24.7196 9.05 24.6096 8.85 24.6096 8.65C24.5896 8.45 24.6296 8.27 24.7296 8.11C24.8096 7.95 24.9396 7.82 25.1196 7.72C25.2796 7.62 25.4496 7.57 25.6296 7.57C25.7896 7.79 26.0996 7.96 26.5596 8.08C27.0196 8.2 27.5496 8.29 28.1496 8.35C28.7696 8.41 29.4096 8.45 30.0696 8.47C30.7496 8.47 31.3896 8.47 31.9896 8.47C32.5496 7.81 33.0896 7.15 33.6096 6.49C34.1296 5.83 34.6496 5.19 35.1696 4.57C35.7096 3.93 36.2396 3.32 36.7596 2.74C37.2996 2.16 37.8596 1.62 38.4396 1.12C38.6196 0.979999 38.7996 0.859998 38.9796 0.759998C39.1596 0.659999 39.3596 0.679999 39.5796 0.819999C39.7996 0.979999 39.9996 1.17 40.1796 1.39C40.3796 1.59 40.5596 1.8 40.7196 2.02C40.7396 2.04 40.7096 2.18 40.6296 2.44C40.5496 2.68 40.4496 2.96 40.3296 3.28C40.2296 3.58 40.1296 3.88 40.0296 4.18C39.9296 4.46 39.8696 4.65 39.8496 4.75C39.6896 4.67 39.5496 4.6 39.4296 4.54C39.3096 4.46 39.1896 4.37 39.0696 4.27L36.3696 7.96C37.8696 7.78 39.3996 7.64 40.9596 7.54C42.5396 7.44 44.0296 7.4 45.4296 7.42C46.8296 7.42 48.0896 7.48 49.2096 7.6C50.3496 7.72 51.2496 7.9 51.9096 8.14C52.2896 8.28 52.6296 8.45 52.9296 8.65C53.2296 8.83 53.5096 9.06 53.7696 9.34C53.9096 9.52 53.9696 9.67 53.9496 9.79C53.9496 9.91 53.8196 9.94 53.5596 9.88C52.7796 9.58 51.8996 9.37 50.9196 9.25C49.9596 9.13 48.9396 9.07 47.8596 9.07C46.7996 9.05 45.7096 9.09 44.5896 9.19C43.4696 9.27 42.3696 9.37 41.2896 9.49C40.2296 9.59 39.2096 9.7 38.2296 9.82C37.2496 9.94 36.3696 10.03 35.5896 10.09C35.3496 10.13 35.1396 10.18 34.9596 10.24C34.7996 10.3 34.6496 10.43 34.5096 10.63C33.7096 11.91 32.9296 13.21 32.1696 14.53C31.4096 15.85 30.7096 17.2 30.0696 18.58C29.4496 19.94 28.9096 21.34 28.4496 22.78C28.0096 24.2 27.6896 25.65 27.4896 27.13C28.3496 26.59 29.1696 25.96 29.9496 25.24C30.7296 24.52 31.4896 23.77 32.2296 22.99C32.9696 22.19 33.6996 21.39 34.4196 20.59C35.1396 19.79 35.8796 19.04 36.6396 18.34L37.2396 19.24ZM51.4263 19.51C50.3663 20.49 49.2763 21.43 48.1563 22.33C47.0363 23.23 45.8363 24.01 44.5563 24.67C43.1963 25.39 41.8463 25.35 40.5063 24.55C39.9863 24.21 39.5763 23.82 39.2763 23.38C38.9763 22.94 38.8463 22.41 38.8863 21.79C38.9863 20.29 39.3363 18.92 39.9363 17.68C40.5563 16.44 41.4863 15.37 42.7263 14.47C43.2063 14.11 43.6763 13.91 44.1363 13.87C44.6163 13.81 45.0863 13.86 45.5463 14.02C46.0063 14.16 46.4363 14.38 46.8363 14.68C47.2563 14.96 47.6463 15.26 48.0063 15.58C48.8263 16.32 48.9063 17.13 48.2463 18.01C47.3463 19.21 46.1963 20.05 44.7963 20.53C44.2563 20.73 43.7363 20.75 43.2363 20.59C42.7363 20.41 42.2563 20.23 41.7963 20.05C41.5163 20.53 41.3063 21 41.1663 21.46C41.0263 21.92 40.9563 22.41 40.9563 22.93C40.9563 23.39 41.0363 23.7 41.1963 23.86C41.3763 24.02 41.6963 24.05 42.1563 23.95C42.9763 23.73 43.7563 23.42 44.4963 23.02C45.2363 22.62 45.9463 22.19 46.6263 21.73C47.3063 21.25 47.9663 20.75 48.6063 20.23C49.2463 19.71 49.8963 19.22 50.5563 18.76L51.4263 19.51ZM45.9963 15.64C45.7163 15.74 45.4063 15.92 45.0663 16.18C44.7263 16.44 44.3863 16.74 44.0463 17.08C43.7063 17.4 43.3963 17.73 43.1163 18.07C42.8363 18.39 42.6263 18.68 42.4863 18.94C42.8463 18.98 43.2163 18.91 43.5963 18.73C43.9963 18.55 44.3663 18.31 44.7063 18.01C45.0463 17.71 45.3363 17.36 45.5763 16.96C45.8163 16.54 45.9563 16.1 45.9963 15.64ZM51.9412 33.01C51.9612 33.19 51.9312 33.32 51.8512 33.4C51.7512 33.5 51.6112 33.53 51.4312 33.49C50.8112 33.31 50.3412 33.05 50.0212 32.71C49.6812 32.37 49.4512 31.96 49.3312 31.48C49.2112 31 49.1912 30.46 49.2712 29.86C49.3312 29.26 49.4512 28.62 49.6312 27.94C49.9912 26.48 50.4812 24.99 51.1012 23.47C51.7212 21.95 52.4212 20.49 53.2012 19.09C53.9613 17.67 54.7813 16.35 55.6613 15.13C56.5413 13.91 57.4213 12.87 58.3013 12.01C59.4613 10.85 60.5613 11.14 61.6013 12.88C61.3613 12.94 61.0713 13.14 60.7313 13.48C60.4113 13.8 60.0813 14.16 59.7413 14.56C59.4013 14.96 59.0813 15.36 58.7813 15.76C58.4813 16.14 58.2413 16.43 58.0613 16.63C58.6413 16.35 59.2113 16.07 59.7713 15.79C60.3313 15.51 60.8713 15.28 61.3913 15.1C61.9313 14.9 62.4313 14.76 62.8913 14.68C63.3513 14.6 63.7713 14.62 64.1513 14.74C64.4713 14.84 64.7713 15.02 65.0513 15.28C65.3313 15.52 65.6113 15.79 65.8913 16.09C66.2113 16.43 66.3913 16.8 66.4313 17.2C66.4713 17.58 66.4113 17.96 66.2513 18.34C66.0113 18.9 65.7113 19.43 65.3513 19.93C64.9913 20.41 64.6113 20.86 64.2113 21.28C64.6913 21.14 65.1313 20.99 65.5313 20.83C65.9313 20.65 66.3013 20.46 66.6413 20.26C67.0013 20.06 67.3513 19.84 67.6913 19.6C68.0513 19.34 68.4313 19.06 68.8313 18.76L69.4913 19.75C68.5113 20.61 67.4313 21.33 66.2513 21.91C65.0913 22.49 63.8713 22.96 62.5913 23.32C61.3113 23.68 60.0013 23.96 58.6613 24.16C57.3413 24.34 56.0213 24.46 54.7013 24.52C54.4213 25.1 54.1013 25.77 53.7413 26.53C53.4012 27.29 53.0812 28.06 52.7812 28.84C52.4812 29.64 52.2512 30.4 52.0912 31.12C51.9112 31.86 51.8612 32.49 51.9412 33.01ZM64.2113 15.7C63.3913 15.62 62.5513 15.76 61.6913 16.12C60.8313 16.48 60.0113 17 59.2313 17.68C58.4513 18.36 57.7313 19.16 57.0713 20.08C56.4313 20.98 55.9213 21.92 55.5413 22.9C56.3213 22.7 57.0713 22.45 57.7913 22.15C58.5113 21.85 59.2213 21.5 59.9213 21.1C60.3013 20.86 60.7513 20.54 61.2713 20.14C61.7913 19.72 62.2713 19.27 62.7113 18.79C63.1713 18.29 63.5513 17.77 63.8513 17.23C64.1513 16.69 64.2713 16.18 64.2113 15.7ZM89.797 19.72C89.517 19.96 89.167 20.28 88.747 20.68C88.347 21.08 87.927 21.49 87.487 21.91C87.047 22.33 86.607 22.73 86.167 23.11C85.747 23.47 85.367 23.74 85.027 23.92C84.287 24.3 83.547 24.28 82.807 23.86C82.127 23.5 81.847 22.97 81.967 22.27C82.067 21.59 82.187 20.94 82.327 20.32C82.487 19.68 82.647 19.06 82.807 18.46C81.747 19 80.757 19.61 79.837 20.29C78.917 20.95 78.037 21.65 77.197 22.39C76.357 23.13 75.537 23.9 74.737 24.7C73.937 25.48 73.137 26.25 72.337 27.01C72.157 27.19 71.957 27.39 71.737 27.61C71.517 27.81 71.267 27.86 70.987 27.76C70.647 27.64 70.307 27.49 69.967 27.31C69.627 27.11 69.307 26.9 69.007 26.68C68.867 26.6 68.797 26.42 68.797 26.14C68.797 25.84 68.827 25.53 68.887 25.21C68.947 24.87 69.027 24.56 69.127 24.28C69.227 23.98 69.297 23.78 69.337 23.68C69.797 22.6 70.267 21.53 70.747 20.47C71.207 19.39 71.727 18.33 72.307 17.29C73.167 15.71 74.077 14.17 75.037 12.67C75.997 11.15 77.007 9.7 78.067 8.32C79.127 6.92 80.247 5.59 81.427 4.33C82.607 3.07 83.867 1.9 85.207 0.819999C85.987 0.359999 86.627 0.199999 87.127 0.339998C87.647 0.459998 88.217 0.879998 88.837 1.6C88.937 1.82 88.867 2 88.627 2.14C88.387 2.26 88.197 2.36 88.057 2.44C86.497 3.42 85.007 4.68 83.587 6.22C82.187 7.74 80.867 9.39 79.627 11.17C78.407 12.93 77.277 14.74 76.237 16.6C75.197 18.46 74.277 20.2 73.477 21.82C73.217 22.34 73.127 22.66 73.207 22.78C73.287 22.9 73.567 22.74 74.047 22.3C74.607 21.82 75.197 21.34 75.817 20.86C76.437 20.36 77.067 19.88 77.707 19.42C78.367 18.96 79.027 18.54 79.687 18.16C80.347 17.76 80.977 17.44 81.577 17.2C81.837 17.1 82.097 17.04 82.357 17.02C82.617 17 82.887 17.06 83.167 17.2C83.727 17.52 84.117 17.85 84.337 18.19C84.557 18.51 84.667 18.86 84.667 19.24C84.667 19.6 84.587 19.99 84.427 20.41C84.287 20.81 84.137 21.25 83.977 21.73C83.937 21.91 83.897 22.09 83.857 22.27C83.817 22.45 83.767 22.68 83.707 22.96C84.087 22.8 84.507 22.54 84.967 22.18C85.447 21.8 85.927 21.4 86.407 20.98C86.887 20.54 87.337 20.12 87.757 19.72C88.197 19.32 88.587 19.01 88.927 18.79L89.797 19.72ZM101.537 24.58C101.077 25 100.707 25.33 100.427 25.57C100.167 25.81 99.9471 26 99.7671 26.14C99.6071 26.26 99.4871 26.35 99.4071 26.41C99.3271 26.45 99.2571 26.48 99.1971 26.5C98.8371 26.62 98.4871 26.63 98.1471 26.53C97.8071 26.41 97.5271 26.2 97.3071 25.9C97.0871 25.6 96.9271 25.22 96.8271 24.76C96.7471 24.28 96.7771 23.74 96.9171 23.14L95.7471 24.28C95.3071 24.72 94.7971 25 94.2171 25.12C93.6371 25.24 93.0871 25.23 92.5671 25.09C92.0471 24.93 91.5871 24.65 91.1871 24.25C90.7871 23.85 90.5471 23.35 90.4671 22.75C90.4071 22.07 90.5171 21.36 90.7971 20.62C91.0771 19.88 91.4371 19.17 91.8771 18.49C92.3371 17.79 92.8371 17.15 93.3771 16.57C93.9371 15.97 94.4471 15.49 94.9071 15.13C95.3871 14.75 95.8371 14.47 96.2571 14.29C96.6771 14.11 97.0871 14.02 97.4871 14.02C97.8871 14 98.2871 14.08 98.6871 14.26C99.0871 14.42 99.5171 14.65 99.9771 14.95C100.257 14.79 100.527 14.6 100.787 14.38C101.067 14.16 101.347 14.04 101.627 14.02C101.907 14.02 102.187 14.13 102.467 14.35C102.747 14.55 103.047 14.73 103.367 14.89C103.027 15.65 102.667 16.41 102.287 17.17C101.927 17.93 101.577 18.7 101.237 19.48C100.917 20.26 100.627 21.05 100.367 21.85C100.107 22.65 99.9271 23.46 99.8271 24.28C100.887 23.5 101.837 22.64 102.677 21.7C103.517 20.76 104.337 19.77 105.137 18.73L106.067 19.15C105.407 20.17 104.697 21.13 103.937 22.03C103.197 22.91 102.397 23.76 101.537 24.58ZM99.4671 15.85C99.3271 15.61 99.1571 15.5 98.9571 15.52C98.7771 15.54 98.6071 15.6 98.4471 15.7C97.1671 16.54 96.1071 17.58 95.2671 18.82C94.4271 20.04 93.8471 21.35 93.5271 22.75C93.9671 22.55 94.4771 22.19 95.0571 21.67C95.6371 21.15 96.2071 20.56 96.7671 19.9C97.3471 19.24 97.8771 18.55 98.3571 17.83C98.8371 17.11 99.2071 16.45 99.4671 15.85ZM126.087 19.81C125.447 20.41 124.797 21 124.137 21.58C123.497 22.14 122.847 22.71 122.187 23.29C121.847 23.55 121.497 23.65 121.137 23.59C120.797 23.51 120.427 23.34 120.027 23.08C119.627 22.84 119.407 22.57 119.367 22.27C119.327 21.97 119.307 21.68 119.307 21.4C119.327 20.88 119.367 20.37 119.427 19.87C119.487 19.37 119.537 18.86 119.577 18.34C119.637 17.5 119.527 17.06 119.247 17.02C118.987 16.98 118.537 17.18 117.897 17.62C116.617 18.56 115.397 19.55 114.237 20.59C113.077 21.61 112.037 22.75 111.117 24.01C110.897 24.29 110.717 24.51 110.577 24.67C110.457 24.81 110.317 24.89 110.157 24.91C110.017 24.93 109.827 24.89 109.587 24.79C109.367 24.69 109.057 24.53 108.657 24.31C108.497 24.23 108.347 24.16 108.207 24.1C108.087 24.04 107.957 23.96 107.817 23.86C107.337 23.6 107.097 23.22 107.097 22.72C107.237 21.06 107.627 19.48 108.267 17.98C108.907 16.46 109.877 15.16 111.177 14.08C111.457 13.82 111.747 13.7 112.047 13.72C112.367 13.72 112.677 13.79 112.977 13.93C113.277 14.07 113.567 14.24 113.847 14.44C114.127 14.64 114.377 14.81 114.597 14.95C114.137 15.35 113.677 15.85 113.217 16.45C112.777 17.03 112.357 17.64 111.957 18.28C111.577 18.9 111.227 19.52 110.907 20.14C110.607 20.74 110.367 21.25 110.187 21.67C110.747 21.17 111.367 20.63 112.047 20.05C112.727 19.47 113.417 18.92 114.117 18.4C114.817 17.86 115.497 17.37 116.157 16.93C116.817 16.47 117.407 16.11 117.927 15.85C118.267 15.69 118.607 15.65 118.947 15.73C119.287 15.79 119.647 15.93 120.027 16.15C120.887 16.69 121.327 17.36 121.347 18.16C121.327 18.84 121.277 19.5 121.197 20.14C121.117 20.76 121.167 21.36 121.347 21.94C122.047 21.42 122.717 20.89 123.357 20.35C123.997 19.81 124.637 19.25 125.277 18.67L126.087 19.81ZM135.997 19.54C135.537 20.12 135.057 20.71 134.557 21.31C134.057 21.89 133.567 22.44 133.087 22.96C132.627 23.46 132.197 23.91 131.797 24.31C131.417 24.69 131.117 24.98 130.897 25.18C130.657 25.4 130.377 25.55 130.057 25.63C129.757 25.71 129.447 25.73 129.127 25.69C128.827 25.63 128.517 25.52 128.197 25.36C127.897 25.2 127.627 24.98 127.387 24.7C127.247 24.54 127.137 24.35 127.057 24.13C126.977 23.89 126.917 23.65 126.877 23.41C126.797 22.89 126.847 22.3 127.027 21.64C127.207 20.96 127.457 20.29 127.777 19.63C128.077 18.97 128.407 18.34 128.767 17.74C129.127 17.14 129.457 16.66 129.757 16.3C130.117 15.9 130.567 15.72 131.107 15.76C131.647 15.8 132.097 16.05 132.457 16.51C132.597 16.75 132.627 16.99 132.547 17.23C132.367 17.79 132.137 18.35 131.857 18.91C131.577 19.47 131.287 20.03 130.987 20.59C130.687 21.15 130.407 21.71 130.147 22.27C129.887 22.83 129.697 23.39 129.577 23.95C130.097 23.73 130.597 23.43 131.077 23.05C131.577 22.67 132.057 22.24 132.517 21.76C132.977 21.28 133.427 20.78 133.867 20.26C134.307 19.72 134.737 19.2 135.157 18.7L135.997 19.54ZM131.407 13.69C131.407 13.39 131.437 13.04 131.497 12.64C131.557 12.24 131.657 11.88 131.797 11.56C131.957 11.22 132.167 10.96 132.427 10.78C132.687 10.6 133.017 10.59 133.417 10.75C133.797 10.91 134.097 11.07 134.317 11.23C134.537 11.37 134.677 11.53 134.737 11.71C134.817 11.87 134.817 12.07 134.737 12.31C134.677 12.53 134.557 12.8 134.377 13.12C134.277 13.28 134.197 13.41 134.137 13.51C134.097 13.59 134.057 13.68 134.017 13.78C133.977 13.86 133.927 13.95 133.867 14.05C133.807 14.15 133.737 14.28 133.657 14.44C133.497 14.76 133.357 14.94 133.237 14.98C133.117 15.02 132.867 14.95 132.487 14.77C132.227 14.67 131.977 14.56 131.737 14.44C131.517 14.32 131.407 14.07 131.407 13.69ZM137.423 21.79C137.523 20.29 137.873 18.92 138.473 17.68C139.093 16.44 140.023 15.37 141.263 14.47C141.743 14.11 142.213 13.91 142.673 13.87C143.153 13.81 143.623 13.86 144.083 14.02C144.543 14.16 144.973 14.38 145.373 14.68C145.793 14.96 146.183 15.26 146.543 15.58C147.363 16.32 147.443 17.13 146.783 18.01C145.883 19.21 144.733 20.05 143.333 20.53C142.793 20.73 142.273 20.75 141.773 20.59C141.273 20.41 140.793 20.23 140.333 20.05C140.213 20.29 140.073 20.59 139.913 20.95C139.773 21.31 139.653 21.68 139.553 22.06C139.473 22.42 139.433 22.77 139.433 23.11C139.453 23.43 139.553 23.68 139.733 23.86C140.733 23.62 141.773 23.26 142.853 22.78C143.953 22.3 145.023 21.73 146.063 21.07C147.123 20.39 148.143 19.64 149.123 18.82C150.103 17.98 150.973 17.1 151.733 16.18C152.513 15.24 153.163 14.27 153.683 13.27C154.203 12.27 154.533 11.26 154.673 10.24C154.713 9.94 154.813 9.73 154.973 9.61C155.153 9.47 155.493 9.53 155.993 9.79C156.753 10.39 157.213 10.98 157.373 11.56C157.553 12.14 157.543 12.75 157.343 13.39C156.943 14.69 156.303 15.9 155.423 17.02C154.543 18.12 153.533 19.12 152.393 20.02C151.253 20.92 150.033 21.7 148.733 22.36C147.453 23.02 146.223 23.55 145.043 23.95C144.383 24.17 143.673 24.37 142.913 24.55C142.173 24.73 141.443 24.84 140.723 24.88C140.263 24.92 139.833 24.86 139.433 24.7C139.033 24.54 138.683 24.32 138.383 24.04C138.083 23.76 137.843 23.43 137.663 23.05C137.483 22.65 137.403 22.23 137.423 21.79ZM144.533 15.64C144.253 15.74 143.943 15.92 143.603 16.18C143.263 16.44 142.923 16.74 142.583 17.08C142.243 17.4 141.933 17.73 141.653 18.07C141.373 18.39 141.163 18.68 141.023 18.94C141.383 18.98 141.753 18.91 142.133 18.73C142.533 18.55 142.903 18.31 143.243 18.01C143.583 17.71 143.873 17.36 144.113 16.96C144.353 16.54 144.493 16.1 144.533 15.64ZM172.706 30.58C172.086 30.5 171.596 30.35 171.236 30.13C170.896 29.91 170.636 29.63 170.456 29.29C170.296 28.97 170.206 28.6 170.186 28.18C170.166 27.78 170.176 27.35 170.216 26.89C170.296 26.09 170.466 25.24 170.726 24.34C170.986 23.42 171.286 22.49 171.626 21.55C171.966 20.61 172.336 19.67 172.736 18.73C173.136 17.77 173.516 16.85 173.876 15.97C174.176 15.25 174.306 14.55 174.266 13.87C174.246 13.17 174.126 12.49 173.906 11.83C173.686 11.17 173.406 10.52 173.066 9.88C172.726 9.24 172.396 8.62 172.076 8.02C171.856 7.52 171.786 7.18 171.866 7C171.946 6.82 172.276 6.66 172.856 6.52C174.916 6.08 177.086 5.65 179.366 5.23C181.646 4.79 183.876 4.41 186.056 4.09C188.256 3.75 190.326 3.49 192.266 3.31C194.226 3.11 195.916 3.02 197.336 3.04C198.116 3 198.746 3.19 199.226 3.61C199.706 4.03 200.126 4.51 200.486 5.05C200.686 5.35 200.696 5.59 200.516 5.77C200.356 5.93 199.996 5.99 199.436 5.95C196.876 5.95 194.296 6.07 191.696 6.31C189.116 6.55 186.536 6.79 183.956 7.03C183.556 7.05 183.246 7.25 183.026 7.63C182.546 8.43 181.936 9.43 181.196 10.63C180.476 11.81 179.726 13.1 178.946 14.5C178.166 15.9 177.386 17.35 176.606 18.85C175.846 20.35 175.176 21.81 174.596 23.23C174.016 24.63 173.576 25.94 173.276 27.16C172.976 28.38 172.896 29.41 173.036 30.25C173.076 30.49 173.076 30.6 173.036 30.58C173.016 30.58 172.906 30.58 172.706 30.58ZM173.726 8.47C174.066 9.23 174.386 9.97 174.686 10.69C174.986 11.39 175.286 12.11 175.586 12.85C175.886 12.35 176.156 11.89 176.396 11.47C176.636 11.03 176.876 10.61 177.116 10.21C177.356 9.81 177.596 9.41 177.836 9.01C178.096 8.59 178.376 8.15 178.676 7.69C178.196 7.75 177.756 7.82 177.356 7.9C176.956 7.96 176.556 8.02 176.156 8.08C175.776 8.14 175.386 8.21 174.986 8.29C174.606 8.35 174.186 8.41 173.726 8.47ZM189.865 19.45C189.165 20.09 188.425 20.65 187.645 21.13C186.885 21.61 186.125 22.14 185.365 22.72C185.545 23.48 185.695 24.16 185.815 24.76C185.935 25.36 185.975 25.94 185.935 26.5C185.915 27.04 185.795 27.58 185.575 28.12C185.355 28.68 184.995 29.3 184.495 29.98C183.255 31.52 181.645 32.58 179.665 33.16C178.885 33.38 178.175 33.37 177.535 33.13C176.895 32.91 176.295 32.53 175.735 31.99C175.555 31.77 175.445 31.52 175.405 31.24C175.365 30.98 175.375 30.7 175.435 30.4C175.475 30.1 175.555 29.8 175.675 29.5C175.795 29.2 175.945 28.9 176.125 28.6C176.465 28.02 176.865 27.5 177.325 27.04C177.785 26.58 178.305 26.14 178.885 25.72C179.445 25.3 180.065 24.87 180.745 24.43C181.425 23.99 182.165 23.5 182.965 22.96C182.725 22.28 182.515 21.71 182.335 21.25C182.175 20.79 182.045 20.4 181.945 20.08C181.825 19.76 181.735 19.5 181.675 19.3C181.595 19.08 181.535 18.87 181.495 18.67C181.335 18.01 181.315 17.36 181.435 16.72C181.555 16.08 181.785 15.49 182.125 14.95C182.485 14.41 182.925 13.95 183.445 13.57C183.985 13.17 184.585 12.9 185.245 12.76C185.565 12.7 185.885 12.7 186.205 12.76C186.545 12.82 186.855 12.93 187.135 13.09C187.435 13.25 187.705 13.45 187.945 13.69C188.185 13.93 188.385 14.2 188.545 14.5C188.485 14.54 188.415 14.56 188.335 14.56C188.255 14.56 188.185 14.56 188.125 14.56C187.225 14.6 186.485 14.81 185.905 15.19C185.345 15.55 184.935 16.05 184.675 16.69C184.415 17.33 184.305 18.09 184.345 18.97C184.385 19.83 184.565 20.78 184.885 21.82L189.355 18.7L189.865 19.45ZM176.845 31.3C177.625 31.22 178.395 30.95 179.155 30.49C179.915 30.03 180.595 29.46 181.195 28.78C181.775 28.1 182.225 27.36 182.545 26.56C182.885 25.76 183.015 24.99 182.935 24.25C182.235 24.71 181.525 25.19 180.805 25.69C180.065 26.17 179.405 26.69 178.825 27.25C178.225 27.81 177.735 28.42 177.355 29.08C176.975 29.74 176.805 30.48 176.845 31.3ZM201.961 24.58C201.501 25 201.131 25.33 200.851 25.57C200.591 25.81 200.371 26 200.191 26.14C200.031 26.26 199.911 26.35 199.831 26.41C199.751 26.45 199.681 26.48 199.621 26.5C199.261 26.62 198.911 26.63 198.571 26.53C198.231 26.41 197.951 26.2 197.731 25.9C197.511 25.6 197.351 25.22 197.251 24.76C197.171 24.28 197.201 23.74 197.341 23.14L196.171 24.28C195.731 24.72 195.221 25 194.641 25.12C194.061 25.24 193.511 25.23 192.991 25.09C192.471 24.93 192.011 24.65 191.611 24.25C191.211 23.85 190.971 23.35 190.891 22.75C190.831 22.07 190.941 21.36 191.221 20.62C191.501 19.88 191.861 19.17 192.301 18.49C192.761 17.79 193.261 17.15 193.801 16.57C194.361 15.97 194.871 15.49 195.331 15.13C195.811 14.75 196.261 14.47 196.681 14.29C197.101 14.11 197.511 14.02 197.911 14.02C198.311 14 198.711 14.08 199.111 14.26C199.511 14.42 199.941 14.65 200.401 14.95C200.681 14.79 200.951 14.6 201.211 14.38C201.491 14.16 201.771 14.04 202.051 14.02C202.331 14.02 202.611 14.13 202.891 14.35C203.171 14.55 203.471 14.73 203.791 14.89C203.451 15.65 203.091 16.41 202.711 17.17C202.351 17.93 202.001 18.7 201.661 19.48C201.341 20.26 201.051 21.05 200.791 21.85C200.531 22.65 200.351 23.46 200.251 24.28C201.311 23.5 202.261 22.64 203.101 21.7C203.941 20.76 204.761 19.77 205.561 18.73L206.491 19.15C205.831 20.17 205.121 21.13 204.361 22.03C203.621 22.91 202.821 23.76 201.961 24.58ZM199.891 15.85C199.751 15.61 199.581 15.5 199.381 15.52C199.201 15.54 199.031 15.6 198.871 15.7C197.591 16.54 196.531 17.58 195.691 18.82C194.851 20.04 194.271 21.35 193.951 22.75C194.391 22.55 194.901 22.19 195.481 21.67C196.061 21.15 196.631 20.56 197.191 19.9C197.771 19.24 198.301 18.55 198.781 17.83C199.261 17.11 199.631 16.45 199.891 15.85ZM226.511 19.81C225.871 20.41 225.221 21 224.561 21.58C223.921 22.14 223.271 22.71 222.611 23.29C222.271 23.55 221.921 23.65 221.561 23.59C221.221 23.51 220.851 23.34 220.451 23.08C220.051 22.84 219.831 22.57 219.791 22.27C219.751 21.97 219.731 21.68 219.731 21.4C219.751 20.88 219.791 20.37 219.851 19.87C219.911 19.37 219.961 18.86 220.001 18.34C220.061 17.5 219.951 17.06 219.671 17.02C219.411 16.98 218.961 17.18 218.321 17.62C217.041 18.56 215.821 19.55 214.661 20.59C213.501 21.61 212.461 22.75 211.541 24.01C211.321 24.29 211.141 24.51 211.001 24.67C210.881 24.81 210.741 24.89 210.581 24.91C210.441 24.93 210.251 24.89 210.011 24.79C209.791 24.69 209.481 24.53 209.081 24.31C208.921 24.23 208.771 24.16 208.631 24.1C208.511 24.04 208.381 23.96 208.241 23.86C207.761 23.6 207.521 23.22 207.521 22.72C207.661 21.06 208.051 19.48 208.691 17.98C209.331 16.46 210.301 15.16 211.601 14.08C211.881 13.82 212.171 13.7 212.471 13.72C212.791 13.72 213.101 13.79 213.401 13.93C213.701 14.07 213.991 14.24 214.271 14.44C214.551 14.64 214.801 14.81 215.021 14.95C214.561 15.35 214.101 15.85 213.641 16.45C213.201 17.03 212.781 17.64 212.381 18.28C212.001 18.9 211.651 19.52 211.331 20.14C211.031 20.74 210.791 21.25 210.611 21.67C211.171 21.17 211.791 20.63 212.471 20.05C213.151 19.47 213.841 18.92 214.541 18.4C215.241 17.86 215.921 17.37 216.581 16.93C217.241 16.47 217.831 16.11 218.351 15.85C218.691 15.69 219.031 15.65 219.371 15.73C219.711 15.79 220.071 15.93 220.451 16.15C221.311 16.69 221.751 17.36 221.771 18.16C221.751 18.84 221.701 19.5 221.621 20.14C221.541 20.76 221.591 21.36 221.771 21.94C222.471 21.42 223.141 20.89 223.781 20.35C224.421 19.81 225.061 19.25 225.701 18.67L226.511 19.81ZM241.581 21.7C240.761 21.92 239.971 22.2 239.211 22.54C238.451 22.86 237.711 23.2 236.991 23.56C236.271 23.92 235.551 24.28 234.831 24.64C234.111 25 233.381 25.32 232.641 25.6C231.501 26.06 230.451 25.9 229.491 25.12C229.271 24.92 229.031 24.73 228.771 24.55C228.531 24.37 228.291 24.17 228.051 23.95C227.311 23.35 227.051 22.53 227.271 21.49C227.531 20.41 227.961 19.4 228.561 18.46C229.161 17.5 229.871 16.65 230.691 15.91C231.531 15.15 232.441 14.52 233.421 14.02C234.401 13.5 235.391 13.14 236.391 12.94C237.311 12.78 238.101 12.9 238.761 13.3C239.421 13.7 240.011 14.25 240.531 14.95C240.571 15.01 240.591 15.09 240.591 15.19C240.591 15.27 240.611 15.39 240.651 15.55C240.431 15.47 240.231 15.39 240.051 15.31C239.871 15.21 239.691 15.13 239.511 15.07C239.331 14.99 239.151 14.94 238.971 14.92C238.791 14.9 238.581 14.93 238.341 15.01C236.441 15.67 234.871 16.69 233.631 18.07C232.411 19.43 231.421 21.09 230.661 23.05C231.581 22.79 232.451 22.49 233.271 22.15C234.111 21.79 234.951 21.44 235.791 21.1C236.531 20.8 237.271 20.53 238.011 20.29C238.771 20.05 239.551 19.88 240.351 19.78C241.191 19.68 241.941 19.79 242.601 20.11C243.261 20.41 243.851 20.86 244.371 21.46C244.731 21.92 244.941 22.41 245.001 22.93C245.061 23.45 245.021 23.97 244.881 24.49C244.561 25.69 244.091 26.94 243.471 28.24C242.851 29.54 242.121 30.82 241.281 32.08C240.461 33.36 239.541 34.59 238.521 35.77C237.501 36.97 236.431 38.06 235.311 39.04C234.191 40.02 233.031 40.87 231.831 41.59C230.631 42.33 229.441 42.87 228.261 43.21C227.581 43.41 226.951 43.43 226.371 43.27C225.791 43.13 225.241 42.87 224.721 42.49C224.381 42.25 224.151 41.97 224.031 41.65C223.891 41.33 223.831 40.97 223.851 40.57C223.871 39.89 224.041 39.19 224.361 38.47C224.681 37.77 225.071 37.09 225.531 36.43C225.991 35.79 226.481 35.18 227.001 34.6C227.521 34.04 228.001 33.56 228.441 33.16C230.941 30.8 233.801 28.94 237.021 27.58C237.321 27.44 237.621 27.33 237.921 27.25C238.241 27.15 238.561 27.05 238.881 26.95C239.001 26.91 239.211 26.85 239.511 26.77C239.811 26.69 240.131 26.62 240.471 26.56C240.831 26.48 241.181 26.42 241.521 26.38C241.861 26.34 242.131 26.35 242.331 26.41C242.451 26.13 242.591 25.8 242.751 25.42C242.911 25.04 243.051 24.65 243.171 24.25C243.311 23.85 243.411 23.46 243.471 23.08C243.531 22.7 243.511 22.38 243.411 22.12C243.331 21.86 243.141 21.69 242.841 21.61C242.561 21.51 242.141 21.54 241.581 21.7ZM239.961 27.91C237.601 28.81 235.411 29.94 233.391 31.3C231.391 32.68 229.581 34.33 227.961 36.25C227.621 36.65 227.281 37.1 226.941 37.6C226.601 38.12 226.321 38.63 226.101 39.13C225.861 39.65 225.701 40.13 225.621 40.57C225.541 41.01 225.591 41.36 225.771 41.62C225.951 41.88 226.271 42.01 226.731 42.01C227.191 42.03 227.851 41.85 228.711 41.47C229.991 40.91 231.271 40.1 232.551 39.04C233.851 37.98 235.071 36.8 236.211 35.5C237.351 34.22 238.391 32.89 239.331 31.51C240.291 30.15 241.091 28.89 241.731 27.73L241.971 27.25L239.961 27.91Z" fill="#EBF3B5"/>
</svg>
