<svg width="323" height="292" viewBox="0 0 323 292" fill="none" xmlns="http://www.w3.org/2000/svg">
<path d="M105.984 133.902C116.961 193.638 124.775 293.424 156.523 182.747C188.272 72.0695 86.8568 17.9061 188.307 72.1148" stroke="url(#paint0_linear)" stroke-width="0.68" stroke-miterlimit="10"/>
<path d="M103.562 133.633C114.693 191.062 122.069 293.491 155.207 183.917C188.085 74.5918 92.3976 16.6619 191.551 74.7758" stroke="url(#paint1_linear)" stroke-width="0.68" stroke-miterlimit="10"/>
<path d="M101.14 133.364C112.436 188.489 119.357 293.562 153.863 185.054C187.856 77.04 97.9452 15.4298 194.801 77.4327" stroke="url(#paint2_linear)" stroke-width="0.68" stroke-miterlimit="10"/>
<path d="M98.7181 133.095C110.176 185.909 116.913 293.684 152.533 186.216C187.892 79.5657 103.493 14.1981 198.048 80.1001" stroke="url(#paint3_linear)" stroke-width="0.68" stroke-miterlimit="10"/>
<path d="M96.2963 132.826C107.92 183.335 114.288 293.778 151.197 187.366C187.736 82.0292 109.034 12.9537 201.298 82.757" stroke="url(#paint4_linear)" stroke-width="0.68" stroke-miterlimit="10"/>
<path d="M93.8741 132.558C105.683 180.75 111.652 293.871 149.853 188.504C187.58 84.5096 114.575 11.7587 204.548 85.4143" stroke="url(#paint5_linear)" stroke-width="0.68" stroke-miterlimit="10"/>
<path d="M91.4657 132.281C103.423 178.17 109.03 293.956 148.55 189.666C187.465 86.982 120.171 10.4989 207.83 88.0942" stroke="url(#paint6_linear)" stroke-width="0.68" stroke-miterlimit="10"/>
<path d="M89.023 132.024C101.139 175.613 106.395 294.049 147.186 190.815C187.254 89.4775 125.691 9.26661 211.031 90.7139" stroke="url(#paint7_linear)" stroke-width="0.68" stroke-miterlimit="10"/>
<path d="M86.5806 131.767C98.858 173.045 103.701 294.167 145.843 192.001C187.075 91.9958 131.233 8.07124 214.282 93.4361" stroke="url(#paint8_linear)" stroke-width="0.68" stroke-miterlimit="10"/>
<path d="M84.1788 131.486C96.5939 170.475 101.044 294.222 144.532 193.102C186.908 94.4408 136.787 6.80256 217.532 96.0441" stroke="url(#paint9_linear)" stroke-width="0.68" stroke-miterlimit="10"/>
<path d="M81.7568 131.217C94.3648 167.885 98.4016 294.351 143.175 194.264C186.7 96.9421 142.342 5.58264 220.768 98.7251" stroke="url(#paint10_linear)" stroke-width="0.68" stroke-miterlimit="10"/>
<path d="M79.335 130.948C92.0978 165.31 95.7248 294.451 141.845 195.41C186.537 99.4101 147.91 4.3228 224.033 101.374" stroke="url(#paint11_linear)" stroke-width="0.68" stroke-miterlimit="10"/>
<path d="M76.9126 130.679C89.8407 162.736 93.068 294.54 140.511 196.566C186.346 101.894 153.43 3.10676 227.279 104.042" stroke="url(#paint12_linear)" stroke-width="0.68" stroke-miterlimit="10"/>
<path d="M74.4836 130.414C87.5803 160.157 90.3772 294.648 139.174 197.715C186.145 104.375 158.978 1.87503 230.529 106.699" stroke="url(#paint13_linear)" stroke-width="0.68" stroke-miterlimit="10"/>
<path d="M72.0617 130.145C85.3273 157.589 87.7105 294.733 137.838 198.865C185.952 106.885 164.533 0.638626 233.78 109.355" stroke="url(#paint14_linear)" stroke-width="0.68" stroke-miterlimit="10"/>
<path d="M69.6398 129.876C83.0529 154.984 85.0264 294.821 136.501 200.014C185.727 109.339 170.088 -0.580954 237.023 112.016" stroke="url(#paint15_linear)" stroke-width="0.68" stroke-miterlimit="10"/>
<path d="M67.2175 129.608C80.7998 152.433 82.3283 294.917 135.15 201.172C185.508 111.823 175.629 -1.82499 240.274 114.674" stroke="url(#paint16_linear)" stroke-width="0.68" stroke-miterlimit="10"/>
<path d="M64.7991 129.345C78.5431 149.86 79.6304 295.013 133.827 202.314C185.283 114.294 181.176 -3.05651 243.534 117.333" stroke="url(#paint17_linear)" stroke-width="0.68" stroke-miterlimit="10"/>
<path d="M62.377 129.076C76.2689 147.288 76.9183 295.1 132.486 203.457C185.057 116.764 186.721 -4.29492 246.747 120.004" stroke="url(#paint18_linear)" stroke-width="0.68" stroke-miterlimit="10"/>
<path d="M59.955 128.807C74.026 144.706 74.2065 295.188 131.153 204.613C184.822 119.249 192.272 -5.52065 250.014 122.659" stroke="url(#paint19_linear)" stroke-width="0.68" stroke-miterlimit="10"/>
<path d="M57.5328 128.538C71.7931 142.111 71.4908 295.269 129.816 205.763C184.586 121.718 197.827 -6.74028 253.264 125.316" stroke="url(#paint20_linear)" stroke-width="0.68" stroke-miterlimit="10"/>
<path d="M55.1038 128.274C69.5018 139.557 68.7541 295.33 128.486 206.909C184.339 124.185 203.371 -7.97822 256.508 127.977" stroke="url(#paint21_linear)" stroke-width="0.68" stroke-miterlimit="10"/>
<path d="M52.6713 127.986C67.2311 136.959 66.0284 295.409 127.139 208.04C184.083 126.633 208.905 -9.23469 259.765 130.647" stroke="url(#paint22_linear)" stroke-width="0.68" stroke-miterlimit="10"/>
<path d="M50.2874 127.72C64.9849 134.404 63.3027 295.504 125.792 209.22C183.812 129.121 214.446 -10.4464 262.984 133.297" stroke="url(#paint23_linear)" stroke-width="0.68" stroke-miterlimit="10"/>
<path d="M47.8481 127.486C62.7484 131.819 60.5587 295.569 124.475 210.358C183.6 131.552 220.014 -11.6901 266.255 135.959" stroke="url(#paint24_linear)" stroke-width="0.68" stroke-miterlimit="10"/>
<path d="M45.4018 127.206C60.4606 129.238 57.8155 295.633 123.138 211.507C183.323 134.011 225.573 -12.9038 269.498 138.62" stroke="url(#paint25_linear)" stroke-width="0.68" stroke-miterlimit="10"/>
<path d="M42.9935 126.929C58.204 126.68 55.0859 295.706 121.801 212.657C183.045 136.487 231.11 -14.1545 272.752 141.282" stroke="url(#paint26_linear)" stroke-width="0.68" stroke-miterlimit="10"/>
<path d="M40.5715 126.661C55.9437 124.101 52.3073 295.742 120.464 213.807C182.767 138.915 236.658 -15.3857 276.003 143.94" stroke="url(#paint27_linear)" stroke-width="0.68" stroke-miterlimit="10"/>
<path d="M38.1493 126.392C53.6938 121.524 49.5498 295.798 119.128 214.957C182.486 141.353 242.206 -16.6177 279.246 146.601" stroke="url(#paint28_linear)" stroke-width="0.68" stroke-miterlimit="10"/>
<path d="M35.7207 126.126C51.4304 118.954 46.7819 295.835 117.794 216.112C182.205 143.789 247.754 -17.8502 282.496 149.257" stroke="url(#paint29_linear)" stroke-width="0.68" stroke-miterlimit="10"/>
<path d="M33.2985 125.858C49.17 116.374 44.0137 295.873 116.457 217.262C181.926 146.217 253.312 -19.0636 285.747 151.931" stroke="url(#paint30_linear)" stroke-width="0.68" stroke-miterlimit="10"/>
<path d="M30.8765 125.589C46.9064 113.804 41.242 295.905 115.121 218.411C181.662 148.62 258.849 -20.3138 288.993 154.582" stroke="url(#paint31_linear)" stroke-width="0.68" stroke-miterlimit="10"/>
<path d="M28.4542 125.32C44.6459 111.225 38.4665 295.93 113.79 219.557C181.349 151.051 264.404 -21.5496 292.233 157.221" stroke="url(#paint32_linear)" stroke-width="0.68" stroke-miterlimit="10"/>
<path d="M26.0319 125.051C42.3889 108.651 35.677 295.947 112.46 220.703C181.053 153.464 269.931 -22.7698 295.487 159.9" stroke="url(#paint33_linear)" stroke-width="0.68" stroke-miterlimit="10"/>
<path d="M23.6098 124.782C40.1285 106.071 32.9082 295.952 111.116 221.856C180.764 155.872 275.499 -24.0139 298.737 162.557" stroke="url(#paint34_linear)" stroke-width="0.68" stroke-miterlimit="10"/>
<path d="M21.188 124.513C37.865 103.502 30.0486 295.879 109.779 223.006C180.402 158.201 281.058 -25.227 301.98 165.218" stroke="url(#paint35_linear)" stroke-width="0.68" stroke-miterlimit="10"/>
<path d="M18.7696 124.251C35.5946 100.936 27.3434 295.946 108.443 224.156C180.176 160.656 286.595 -26.4771 305.234 167.882" stroke="url(#paint36_linear)" stroke-width="0.68" stroke-miterlimit="10"/>
<defs>
<linearGradient id="paint0_linear" x1="187.034" y1="201.61" x2="110.816" y2="69.5966" gradientUnits="userSpaceOnUse">
<stop offset="0.0885417" stop-color="#8AE3D4"/>
<stop offset="0.703125" stop-color="#D27F81"/>
</linearGradient>
<linearGradient id="paint1_linear" x1="186.438" y1="200.768" x2="111.981" y2="71.8052" gradientUnits="userSpaceOnUse">
<stop offset="0.0885417" stop-color="#8AE3D4"/>
<stop offset="0.703125" stop-color="#D27F81"/>
</linearGradient>
<linearGradient id="paint2_linear" x1="185.85" y1="199.938" x2="113.135" y2="73.9916" gradientUnits="userSpaceOnUse">
<stop offset="0.0885417" stop-color="#8AE3D4"/>
<stop offset="0.703125" stop-color="#D27F81"/>
</linearGradient>
<linearGradient id="paint3_linear" x1="185.354" y1="199.192" x2="114.336" y2="76.1852" gradientUnits="userSpaceOnUse">
<stop offset="0.0885417" stop-color="#8AE3D4"/>
<stop offset="0.703125" stop-color="#D27F81"/>
</linearGradient>
<linearGradient id="paint4_linear" x1="184.823" y1="198.439" x2="115.488" y2="78.3477" gradientUnits="userSpaceOnUse">
<stop offset="0.0885417" stop-color="#8AE3D4"/>
<stop offset="0.703125" stop-color="#D27F81"/>
</linearGradient>
<linearGradient id="paint5_linear" x1="184.303" y1="197.706" x2="116.644" y2="80.518" gradientUnits="userSpaceOnUse">
<stop offset="0.0885417" stop-color="#8AE3D4"/>
<stop offset="0.703125" stop-color="#D27F81"/>
</linearGradient>
<linearGradient id="paint6_linear" x1="183.814" y1="197.01" x2="117.803" y2="82.6753" gradientUnits="userSpaceOnUse">
<stop offset="0.0885417" stop-color="#8AE3D4"/>
<stop offset="0.703125" stop-color="#D27F81"/>
</linearGradient>
<linearGradient id="paint7_linear" x1="183.302" y1="196.345" x2="118.903" y2="84.8034" gradientUnits="userSpaceOnUse">
<stop offset="0.0885417" stop-color="#8AE3D4"/>
<stop offset="0.703125" stop-color="#D27F81"/>
</linearGradient>
<linearGradient id="paint8_linear" x1="182.797" y1="195.728" x2="120.014" y2="86.9845" gradientUnits="userSpaceOnUse">
<stop offset="0.0885417" stop-color="#8AE3D4"/>
<stop offset="0.703125" stop-color="#D27F81"/>
</linearGradient>
<linearGradient id="paint9_linear" x1="182.332" y1="195.079" x2="121.127" y2="89.0692" gradientUnits="userSpaceOnUse">
<stop offset="0.0885417" stop-color="#8AE3D4"/>
<stop offset="0.703125" stop-color="#D27F81"/>
</linearGradient>
<linearGradient id="paint10_linear" x1="181.875" y1="194.509" x2="122.228" y2="91.1974" gradientUnits="userSpaceOnUse">
<stop offset="0.0885417" stop-color="#8AE3D4"/>
<stop offset="0.703125" stop-color="#D27F81"/>
</linearGradient>
<linearGradient id="paint11_linear" x1="181.436" y1="193.945" x2="123.325" y2="93.2942" gradientUnits="userSpaceOnUse">
<stop offset="0.0885417" stop-color="#8AE3D4"/>
<stop offset="0.703125" stop-color="#D27F81"/>
</linearGradient>
<linearGradient id="paint12_linear" x1="181.007" y1="193.416" x2="124.413" y2="95.3924" gradientUnits="userSpaceOnUse">
<stop offset="0.0885417" stop-color="#8AE3D4"/>
<stop offset="0.703125" stop-color="#D27F81"/>
</linearGradient>
<linearGradient id="paint13_linear" x1="180.586" y1="192.913" x2="125.487" y2="97.4807" gradientUnits="userSpaceOnUse">
<stop offset="0.0885417" stop-color="#8AE3D4"/>
<stop offset="0.703125" stop-color="#D27F81"/>
</linearGradient>
<linearGradient id="paint14_linear" x1="180.184" y1="192.433" x2="126.182" y2="98.8987" gradientUnits="userSpaceOnUse">
<stop offset="0.0885417" stop-color="#8AE3D4"/>
<stop offset="0.703125" stop-color="#D27F81"/>
</linearGradient>
<linearGradient id="paint15_linear" x1="179.787" y1="191.979" x2="125.359" y2="97.7067" gradientUnits="userSpaceOnUse">
<stop offset="0.0885417" stop-color="#8AE3D4"/>
<stop offset="0.703125" stop-color="#D27F81"/>
</linearGradient>
<linearGradient id="paint16_linear" x1="179.438" y1="191.539" x2="124.566" y2="96.4977" gradientUnits="userSpaceOnUse">
<stop offset="0.0885417" stop-color="#8AE3D4"/>
<stop offset="0.703125" stop-color="#D27F81"/>
</linearGradient>
<linearGradient id="paint17_linear" x1="179.247" y1="191.041" x2="123.92" y2="95.2116" gradientUnits="userSpaceOnUse">
<stop offset="0.0885417" stop-color="#8AE3D4"/>
<stop offset="0.703125" stop-color="#D27F81"/>
</linearGradient>
<linearGradient id="paint18_linear" x1="179.136" y1="190.52" x2="123.341" y2="93.8787" gradientUnits="userSpaceOnUse">
<stop offset="0.0885417" stop-color="#8AE3D4"/>
<stop offset="0.703125" stop-color="#D27F81"/>
</linearGradient>
<linearGradient id="paint19_linear" x1="179.126" y1="189.986" x2="122.842" y2="92.4994" gradientUnits="userSpaceOnUse">
<stop offset="0.0885417" stop-color="#8AE3D4"/>
<stop offset="0.703125" stop-color="#D27F81"/>
</linearGradient>
<linearGradient id="paint20_linear" x1="179.163" y1="189.453" x2="122.379" y2="91.0996" gradientUnits="userSpaceOnUse">
<stop offset="0.0885417" stop-color="#8AE3D4"/>
<stop offset="0.703125" stop-color="#D27F81"/>
</linearGradient>
<linearGradient id="paint21_linear" x1="179.226" y1="188.929" x2="121.931" y2="89.6911" gradientUnits="userSpaceOnUse">
<stop offset="0.0885417" stop-color="#8AE3D4"/>
<stop offset="0.703125" stop-color="#D27F81"/>
</linearGradient>
<linearGradient id="paint22_linear" x1="179.327" y1="188.408" x2="121.5" y2="88.2484" gradientUnits="userSpaceOnUse">
<stop offset="0.0885417" stop-color="#8AE3D4"/>
<stop offset="0.703125" stop-color="#D27F81"/>
</linearGradient>
<linearGradient id="paint23_linear" x1="179.462" y1="187.941" x2="121.092" y2="86.841" gradientUnits="userSpaceOnUse">
<stop offset="0.0885417" stop-color="#8AE3D4"/>
<stop offset="0.703125" stop-color="#D27F81"/>
</linearGradient>
<linearGradient id="paint24_linear" x1="179.635" y1="187.457" x2="120.72" y2="85.413" gradientUnits="userSpaceOnUse">
<stop offset="0.0885417" stop-color="#8AE3D4"/>
<stop offset="0.703125" stop-color="#D27F81"/>
</linearGradient>
<linearGradient id="paint25_linear" x1="181.285" y1="189.55" x2="120.318" y2="83.9531" gradientUnits="userSpaceOnUse">
<stop offset="0.0885417" stop-color="#8AE3D4"/>
<stop offset="0.703125" stop-color="#D27F81"/>
</linearGradient>
<linearGradient id="paint26_linear" x1="183.595" y1="192.757" x2="119.94" y2="82.5038" gradientUnits="userSpaceOnUse">
<stop offset="0.0885417" stop-color="#8AE3D4"/>
<stop offset="0.703125" stop-color="#D27F81"/>
</linearGradient>
<linearGradient id="paint27_linear" x1="185.904" y1="195.958" x2="119.564" y2="81.0541" gradientUnits="userSpaceOnUse">
<stop offset="0.0885417" stop-color="#8AE3D4"/>
<stop offset="0.703125" stop-color="#D27F81"/>
</linearGradient>
<linearGradient id="paint28_linear" x1="188.219" y1="199.156" x2="119.194" y2="79.6009" gradientUnits="userSpaceOnUse">
<stop offset="0.0885417" stop-color="#8AE3D4"/>
<stop offset="0.703125" stop-color="#D27F81"/>
</linearGradient>
<linearGradient id="paint29_linear" x1="190.537" y1="202.35" x2="118.827" y2="78.1448" gradientUnits="userSpaceOnUse">
<stop offset="0.0885417" stop-color="#8AE3D4"/>
<stop offset="0.703125" stop-color="#D27F81"/>
</linearGradient>
<linearGradient id="paint30_linear" x1="192.865" y1="205.556" x2="118.463" y2="76.6876" gradientUnits="userSpaceOnUse">
<stop offset="0.0885417" stop-color="#8AE3D4"/>
<stop offset="0.703125" stop-color="#D27F81"/>
</linearGradient>
<linearGradient id="paint31_linear" x1="195.187" y1="208.741" x2="118.092" y2="75.2086" gradientUnits="userSpaceOnUse">
<stop offset="0.0885417" stop-color="#8AE3D4"/>
<stop offset="0.703125" stop-color="#D27F81"/>
</linearGradient>
<linearGradient id="paint32_linear" x1="197.505" y1="211.912" x2="117.707" y2="73.6981" gradientUnits="userSpaceOnUse">
<stop offset="0.0885417" stop-color="#8AE3D4"/>
<stop offset="0.703125" stop-color="#D27F81"/>
</linearGradient>
<linearGradient id="paint33_linear" x1="199.839" y1="215.123" x2="117.301" y2="72.1636" gradientUnits="userSpaceOnUse">
<stop offset="0.0885417" stop-color="#8AE3D4"/>
<stop offset="0.703125" stop-color="#D27F81"/>
</linearGradient>
<linearGradient id="paint34_linear" x1="202.175" y1="218.307" x2="116.894" y2="70.595" gradientUnits="userSpaceOnUse">
<stop offset="0.0885417" stop-color="#8AE3D4"/>
<stop offset="0.703125" stop-color="#D27F81"/>
</linearGradient>
<linearGradient id="paint35_linear" x1="204.5" y1="221.499" x2="116.46" y2="69.0101" gradientUnits="userSpaceOnUse">
<stop offset="0.0885417" stop-color="#8AE3D4"/>
<stop offset="0.703125" stop-color="#D27F81"/>
</linearGradient>
<linearGradient id="paint36_linear" x1="206.844" y1="224.688" x2="116.033" y2="67.3989" gradientUnits="userSpaceOnUse">
<stop offset="0.0885417" stop-color="#8AE3D4"/>
<stop offset="0.703125" stop-color="#D27F81"/>
</linearGradient>
</defs>
</svg>
