<svg width="197" height="241" viewBox="0 0 197 241" fill="none" xmlns="http://www.w3.org/2000/svg">
<path fill-rule="evenodd" clip-rule="evenodd" d="M74.0946 37.1423H88.7528C93.524 37.1423 95.7771 34.9618 95.7771 30.2929V21.109C95.7771 16.44 93.524 14.2852 88.7528 14.2852H74.0946C69.3234 14.2852 67.0703 16.44 67.0703 21.109V30.2929C67.0703 34.9618 69.3234 37.1423 74.0946 37.1423ZM108.38 37.1423H123.038C127.81 37.1423 130.063 34.9618 130.063 30.2929V21.109C130.063 16.44 127.81 14.2852 123.038 14.2852H108.38C103.609 14.2852 101.356 16.44 101.356 21.109V30.2929C101.356 34.9618 103.609 37.1423 108.38 37.1423ZM74.0946 65.7144H88.7528C93.524 65.7144 95.7771 63.5339 95.7771 58.865V49.6811C95.7771 45.0122 93.524 42.8573 88.7528 42.8573H74.0946C69.3234 42.8573 67.0703 45.0122 67.0703 49.6811V58.865C67.0703 63.5339 69.3234 65.7144 74.0946 65.7144ZM108.38 65.7144H123.038C127.81 65.7144 130.063 63.5339 130.063 58.865V49.6811C130.063 45.0122 127.81 42.8573 123.038 42.8573H108.38C103.609 42.8573 101.356 45.0122 101.356 49.6811V58.865C101.356 63.5339 103.609 65.7144 108.38 65.7144Z" fill="#F66700"/>
<path d="M60.566 96.103V109H59.036V99.523C59.036 99.397 59.039 99.262 59.045 99.118C59.057 98.974 59.069 98.827 59.081 98.677L54.653 106.741C54.515 107.011 54.305 107.146 54.023 107.146H53.771C53.489 107.146 53.279 107.011 53.141 106.741L48.623 98.641C48.659 98.959 48.677 99.253 48.677 99.523V109H47.147V96.103H48.434C48.59 96.103 48.71 96.118 48.794 96.148C48.878 96.178 48.959 96.262 49.037 96.4L53.492 104.338C53.564 104.482 53.633 104.632 53.699 104.788C53.771 104.944 53.837 105.103 53.897 105.265C53.957 105.103 54.02 104.944 54.086 104.788C54.152 104.626 54.224 104.473 54.302 104.329L58.676 96.4C58.748 96.262 58.826 96.178 58.91 96.148C59 96.118 59.123 96.103 59.279 96.103H60.566ZM71.1409 99.883L66.0559 111.691C66.0019 111.811 65.9329 111.907 65.8489 111.979C65.7709 112.051 65.6479 112.087 65.4799 112.087H64.2919L65.9569 108.469L62.1949 99.883H63.5809C63.7189 99.883 63.8269 99.919 63.9049 99.991C63.9889 100.057 64.0459 100.132 64.0759 100.216L66.5149 105.958C66.6109 106.21 66.6919 106.474 66.7579 106.75C66.8419 106.468 66.9319 106.201 67.0279 105.949L69.3949 100.216C69.4309 100.12 69.4909 100.042 69.5749 99.982C69.6649 99.916 69.7639 99.883 69.8719 99.883H71.1409ZM88.2781 102.556C88.2781 103.522 88.1251 104.401 87.8191 105.193C87.5131 105.985 87.0811 106.663 86.5231 107.227C85.9651 107.791 85.2931 108.229 84.5071 108.541C83.7271 108.847 82.8631 109 81.9151 109H77.1001V96.103H81.9151C82.8631 96.103 83.7271 96.259 84.5071 96.571C85.2931 96.877 85.9651 97.315 86.5231 97.885C87.0811 98.449 87.5131 99.127 87.8191 99.919C88.1251 100.711 88.2781 101.59 88.2781 102.556ZM86.4871 102.556C86.4871 101.764 86.3791 101.056 86.1631 100.432C85.9471 99.808 85.6411 99.28 85.2451 98.848C84.8491 98.416 84.3691 98.086 83.8051 97.858C83.2411 97.63 82.6111 97.516 81.9151 97.516H78.8461V107.587H81.9151C82.6111 107.587 83.2411 107.473 83.8051 107.245C84.3691 107.017 84.8491 106.69 85.2451 106.264C85.6411 105.832 85.9471 105.304 86.1631 104.68C86.3791 104.056 86.4871 103.348 86.4871 102.556ZM95.128 104.896C94.39 104.92 93.76 104.98 93.238 105.076C92.722 105.166 92.299 105.286 91.969 105.436C91.645 105.586 91.408 105.763 91.258 105.967C91.114 106.171 91.042 106.399 91.042 106.651C91.042 106.891 91.081 107.098 91.159 107.272C91.237 107.446 91.342 107.59 91.474 107.704C91.612 107.812 91.771 107.893 91.951 107.947C92.137 107.995 92.335 108.019 92.545 108.019C92.827 108.019 93.085 107.992 93.319 107.938C93.553 107.878 93.772 107.794 93.976 107.686C94.186 107.578 94.384 107.449 94.57 107.299C94.762 107.149 94.948 106.978 95.128 106.786V104.896ZM89.953 101.17C90.457 100.684 91 100.321 91.582 100.081C92.164 99.841 92.809 99.721 93.517 99.721C94.027 99.721 94.48 99.805 94.876 99.973C95.272 100.141 95.605 100.375 95.875 100.675C96.145 100.975 96.349 101.338 96.487 101.764C96.625 102.19 96.694 102.658 96.694 103.168V109H95.983C95.827 109 95.707 108.976 95.623 108.928C95.539 108.874 95.473 108.772 95.425 108.622L95.245 107.758C95.005 107.98 94.771 108.178 94.543 108.352C94.315 108.52 94.075 108.664 93.823 108.784C93.571 108.898 93.301 108.985 93.013 109.045C92.731 109.111 92.416 109.144 92.068 109.144C91.714 109.144 91.381 109.096 91.069 109C90.757 108.898 90.484 108.748 90.25 108.55C90.022 108.352 89.839 108.103 89.701 107.803C89.569 107.497 89.503 107.137 89.503 106.723C89.503 106.363 89.602 106.018 89.8 105.688C89.998 105.352 90.319 105.055 90.763 104.797C91.207 104.539 91.786 104.329 92.5 104.167C93.214 103.999 94.09 103.903 95.128 103.879V103.168C95.128 102.46 94.975 101.926 94.669 101.566C94.363 101.2 93.916 101.017 93.328 101.017C92.932 101.017 92.599 101.068 92.329 101.17C92.065 101.266 91.834 101.377 91.636 101.503C91.444 101.623 91.276 101.734 91.132 101.836C90.994 101.932 90.856 101.98 90.718 101.98C90.61 101.98 90.517 101.953 90.439 101.899C90.361 101.839 90.295 101.767 90.241 101.683L89.953 101.17ZM106.789 99.883L101.704 111.691C101.65 111.811 101.581 111.907 101.497 111.979C101.419 112.051 101.296 112.087 101.128 112.087H99.9403L101.605 108.469L97.8433 99.883H99.2293C99.3673 99.883 99.4753 99.919 99.5533 99.991C99.6373 100.057 99.6943 100.132 99.7243 100.216L102.163 105.958C102.259 106.21 102.34 106.474 102.406 106.75C102.49 106.468 102.58 106.201 102.676 105.949L105.043 100.216C105.079 100.12 105.139 100.042 105.223 99.982C105.313 99.916 105.412 99.883 105.52 99.883H106.789ZM122.583 96.103L117.327 109H115.761L110.505 96.103H111.9C112.056 96.103 112.182 96.142 112.278 96.22C112.374 96.298 112.446 96.397 112.494 96.517L116.13 105.616C116.208 105.82 116.283 106.042 116.355 106.282C116.433 106.522 116.502 106.774 116.562 107.038C116.622 106.774 116.685 106.522 116.751 106.282C116.817 106.042 116.889 105.82 116.967 105.616L120.594 96.517C120.63 96.415 120.699 96.322 120.801 96.238C120.909 96.148 121.038 96.103 121.188 96.103H122.583ZM125.594 99.883V109H123.992V99.883H125.594ZM125.936 97.021C125.936 97.177 125.903 97.324 125.837 97.462C125.777 97.594 125.693 97.714 125.585 97.822C125.483 97.924 125.36 98.005 125.216 98.065C125.078 98.125 124.931 98.155 124.775 98.155C124.619 98.155 124.472 98.125 124.334 98.065C124.202 98.005 124.085 97.924 123.983 97.822C123.881 97.714 123.8 97.594 123.74 97.462C123.68 97.324 123.65 97.177 123.65 97.021C123.65 96.865 123.68 96.718 123.74 96.58C123.8 96.436 123.881 96.313 123.983 96.211C124.085 96.103 124.202 96.019 124.334 95.959C124.472 95.899 124.619 95.869 124.775 95.869C124.931 95.869 125.078 95.899 125.216 95.959C125.36 96.019 125.483 96.103 125.585 96.211C125.693 96.313 125.777 96.436 125.837 96.58C125.903 96.718 125.936 96.865 125.936 97.021ZM134.328 103.447C134.328 103.075 134.274 102.736 134.166 102.43C134.064 102.118 133.911 101.851 133.707 101.629C133.509 101.401 133.266 101.227 132.978 101.107C132.69 100.981 132.363 100.918 131.997 100.918C131.229 100.918 130.62 101.143 130.17 101.593C129.726 102.037 129.45 102.655 129.342 103.447H134.328ZM135.624 107.722C135.426 107.962 135.189 108.172 134.913 108.352C134.637 108.526 134.34 108.67 134.022 108.784C133.71 108.898 133.386 108.982 133.05 109.036C132.714 109.096 132.381 109.126 132.051 109.126C131.421 109.126 130.839 109.021 130.305 108.811C129.777 108.595 129.318 108.283 128.928 107.875C128.544 107.461 128.244 106.951 128.028 106.345C127.812 105.739 127.704 105.043 127.704 104.257C127.704 103.621 127.8 103.027 127.992 102.475C128.19 101.923 128.472 101.446 128.838 101.044C129.204 100.636 129.651 100.318 130.179 100.09C130.707 99.856 131.301 99.739 131.961 99.739C132.507 99.739 133.011 99.832 133.473 100.018C133.941 100.198 134.343 100.462 134.679 100.81C135.021 101.152 135.288 101.578 135.48 102.088C135.672 102.592 135.768 103.168 135.768 103.816C135.768 104.068 135.741 104.236 135.687 104.32C135.633 104.404 135.531 104.446 135.381 104.446H129.288C129.306 105.022 129.384 105.523 129.522 105.949C129.666 106.375 129.864 106.732 130.116 107.02C130.368 107.302 130.668 107.515 131.016 107.659C131.364 107.797 131.754 107.866 132.186 107.866C132.588 107.866 132.933 107.821 133.221 107.731C133.515 107.635 133.767 107.533 133.977 107.425C134.187 107.317 134.361 107.218 134.499 107.128C134.643 107.032 134.766 106.984 134.868 106.984C135 106.984 135.102 107.035 135.174 107.137L135.624 107.722ZM150.221 99.883L147.269 109H146C145.844 109 145.736 108.898 145.676 108.694L143.66 102.511C143.612 102.373 143.573 102.235 143.543 102.097C143.513 101.953 143.483 101.812 143.453 101.674C143.423 101.812 143.393 101.953 143.363 102.097C143.333 102.235 143.294 102.376 143.246 102.52L141.194 108.694C141.14 108.898 141.02 109 140.834 109H139.628L136.676 99.883H137.936C138.062 99.883 138.167 99.916 138.251 99.982C138.341 100.048 138.401 100.126 138.431 100.216L140.177 106.084C140.279 106.516 140.36 106.924 140.42 107.308C140.474 107.11 140.528 106.909 140.582 106.705C140.642 106.501 140.705 106.294 140.771 106.084L142.697 100.18C142.727 100.09 142.778 100.015 142.85 99.955C142.928 99.895 143.021 99.865 143.129 99.865H143.831C143.951 99.865 144.05 99.895 144.128 99.955C144.206 100.015 144.26 100.09 144.29 100.18L146.171 106.084C146.237 106.294 146.297 106.501 146.351 106.705C146.405 106.909 146.456 107.11 146.504 107.308C146.534 107.11 146.57 106.912 146.612 106.714C146.66 106.51 146.711 106.3 146.765 106.084L148.547 100.216C148.577 100.12 148.634 100.042 148.718 99.982C148.802 99.916 148.901 99.883 149.015 99.883H150.221Z" fill="black"/>
<path d="M18.9901 156.79C19.4881 156.79 19.9261 156.724 20.3041 156.592C20.6881 156.46 21.0091 156.277 21.2671 156.043C21.5311 155.803 21.7291 155.518 21.8611 155.188C21.9931 154.858 22.0591 154.495 22.0591 154.099C22.0591 153.277 21.8041 152.635 21.2941 152.173C20.7901 151.711 20.0221 151.48 18.9901 151.48H16.9201V156.79H18.9901ZM18.9901 150.103C19.8061 150.103 20.5141 150.199 21.1141 150.391C21.7201 150.577 22.2211 150.844 22.6171 151.192C23.0131 151.54 23.3071 151.96 23.4991 152.452C23.6971 152.944 23.7961 153.493 23.7961 154.099C23.7961 154.699 23.6911 155.248 23.4811 155.746C23.2711 156.244 22.9621 156.673 22.5541 157.033C22.1521 157.393 21.6511 157.675 21.0511 157.879C20.4571 158.077 19.7701 158.176 18.9901 158.176H16.9201V163H15.1831V150.103H18.9901ZM26.9609 155.71C27.2489 155.086 27.6029 154.6 28.0229 154.252C28.4429 153.898 28.9559 153.721 29.5619 153.721C29.7539 153.721 29.9369 153.742 30.1109 153.784C30.2909 153.826 30.4499 153.892 30.5879 153.982L30.4709 155.179C30.4349 155.329 30.3449 155.404 30.2009 155.404C30.1169 155.404 29.9939 155.386 29.8319 155.35C29.6699 155.314 29.4869 155.296 29.2829 155.296C28.9949 155.296 28.7369 155.338 28.5089 155.422C28.2869 155.506 28.0859 155.632 27.9059 155.8C27.7319 155.962 27.5729 156.166 27.4289 156.412C27.2909 156.652 27.1649 156.928 27.0509 157.24V163H25.4399V153.883H26.3579C26.5319 153.883 26.6519 153.916 26.7179 153.982C26.7839 154.048 26.8289 154.162 26.8529 154.324L26.9609 155.71ZM35.4704 153.739C36.1364 153.739 36.7364 153.85 37.2704 154.072C37.8044 154.294 38.2604 154.609 38.6384 155.017C39.0164 155.425 39.3044 155.92 39.5024 156.502C39.7064 157.078 39.8084 157.723 39.8084 158.437C39.8084 159.157 39.7064 159.805 39.5024 160.381C39.3044 160.957 39.0164 161.449 38.6384 161.857C38.2604 162.265 37.8044 162.58 37.2704 162.802C36.7364 163.018 36.1364 163.126 35.4704 163.126C34.7984 163.126 34.1924 163.018 33.6524 162.802C33.1184 162.58 32.6624 162.265 32.2844 161.857C31.9064 161.449 31.6154 160.957 31.4114 160.381C31.2134 159.805 31.1144 159.157 31.1144 158.437C31.1144 157.723 31.2134 157.078 31.4114 156.502C31.6154 155.92 31.9064 155.425 32.2844 155.017C32.6624 154.609 33.1184 154.294 33.6524 154.072C34.1924 153.85 34.7984 153.739 35.4704 153.739ZM35.4704 161.875C36.3704 161.875 37.0424 161.575 37.4864 160.975C37.9304 160.369 38.1524 159.526 38.1524 158.446C38.1524 157.36 37.9304 156.514 37.4864 155.908C37.0424 155.302 36.3704 154.999 35.4704 154.999C35.0144 154.999 34.6154 155.077 34.2734 155.233C33.9374 155.389 33.6554 155.614 33.4274 155.908C33.2054 156.202 33.0374 156.565 32.9234 156.997C32.8154 157.423 32.7614 157.906 32.7614 158.446C32.7614 159.526 32.9834 160.369 33.4274 160.975C33.8774 161.575 34.5584 161.875 35.4704 161.875ZM49.4062 153.883L45.6892 163H44.2492L40.5322 153.883H41.8372C41.9692 153.883 42.0772 153.916 42.1612 153.982C42.2452 154.048 42.3022 154.126 42.3322 154.216L44.6452 160.084C44.7172 160.306 44.7802 160.522 44.8342 160.732C44.8882 160.942 44.9392 161.152 44.9872 161.362C45.0352 161.152 45.0862 160.942 45.1402 160.732C45.1942 160.522 45.2602 160.306 45.3382 160.084L47.6782 154.216C47.7142 154.12 47.7742 154.042 47.8582 153.982C47.9422 153.916 48.0412 153.883 48.1552 153.883H49.4062ZM52.5674 153.883V163H50.9654V153.883H52.5674ZM52.9094 151.021C52.9094 151.177 52.8764 151.324 52.8104 151.462C52.7504 151.594 52.6664 151.714 52.5584 151.822C52.4564 151.924 52.3334 152.005 52.1894 152.065C52.0514 152.125 51.9044 152.155 51.7484 152.155C51.5924 152.155 51.4454 152.125 51.3074 152.065C51.1754 152.005 51.0584 151.924 50.9564 151.822C50.8544 151.714 50.7734 151.594 50.7134 151.462C50.6534 151.324 50.6234 151.177 50.6234 151.021C50.6234 150.865 50.6534 150.718 50.7134 150.58C50.7734 150.436 50.8544 150.313 50.9564 150.211C51.0584 150.103 51.1754 150.019 51.3074 149.959C51.4454 149.899 51.5924 149.869 51.7484 149.869C51.9044 149.869 52.0514 149.899 52.1894 149.959C52.3334 150.019 52.4564 150.103 52.5584 150.211C52.6664 150.313 52.7504 150.436 52.8104 150.58C52.8764 150.718 52.9094 150.865 52.9094 151.021ZM61.1397 156.052C60.8397 155.65 60.5157 155.371 60.1677 155.215C59.8197 155.053 59.4297 154.972 58.9977 154.972C58.1517 154.972 57.5007 155.275 57.0447 155.881C56.5887 156.487 56.3607 157.351 56.3607 158.473C56.3607 159.067 56.4117 159.577 56.5137 160.003C56.6157 160.423 56.7657 160.771 56.9637 161.047C57.1617 161.317 57.4047 161.515 57.6927 161.641C57.9807 161.767 58.3077 161.83 58.6737 161.83C59.2017 161.83 59.6607 161.71 60.0507 161.47C60.4467 161.23 60.8097 160.891 61.1397 160.453V156.052ZM62.7417 149.743V163H61.7877C61.5597 163 61.4157 162.889 61.3557 162.667L61.2117 161.56C60.8217 162.028 60.3777 162.406 59.8797 162.694C59.3817 162.982 58.8057 163.126 58.1517 163.126C57.6297 163.126 57.1557 163.027 56.7297 162.829C56.3037 162.625 55.9407 162.328 55.6407 161.938C55.3407 161.548 55.1097 161.062 54.9477 160.48C54.7857 159.898 54.7047 159.229 54.7047 158.473C54.7047 157.801 54.7947 157.177 54.9747 156.601C55.1547 156.019 55.4127 155.515 55.7487 155.089C56.0847 154.663 56.4957 154.33 56.9817 154.09C57.4737 153.844 58.0257 153.721 58.6377 153.721C59.1957 153.721 59.6727 153.817 60.0687 154.009C60.4707 154.195 60.8277 154.456 61.1397 154.792V149.743H62.7417ZM71.3739 157.447C71.3739 157.075 71.3199 156.736 71.2119 156.43C71.1099 156.118 70.9569 155.851 70.7529 155.629C70.5549 155.401 70.3119 155.227 70.0239 155.107C69.7359 154.981 69.4089 154.918 69.0429 154.918C68.2749 154.918 67.6659 155.143 67.2159 155.593C66.7719 156.037 66.4959 156.655 66.3879 157.447H71.3739ZM72.6699 161.722C72.4719 161.962 72.2349 162.172 71.9589 162.352C71.6829 162.526 71.3859 162.67 71.0679 162.784C70.7559 162.898 70.4319 162.982 70.0959 163.036C69.7599 163.096 69.4269 163.126 69.0969 163.126C68.4669 163.126 67.8849 163.021 67.3509 162.811C66.8229 162.595 66.3639 162.283 65.9739 161.875C65.5899 161.461 65.2899 160.951 65.0739 160.345C64.8579 159.739 64.7499 159.043 64.7499 158.257C64.7499 157.621 64.8459 157.027 65.0379 156.475C65.2359 155.923 65.5179 155.446 65.8839 155.044C66.2499 154.636 66.6969 154.318 67.2249 154.09C67.7529 153.856 68.3469 153.739 69.0069 153.739C69.5529 153.739 70.0569 153.832 70.5189 154.018C70.9869 154.198 71.3889 154.462 71.7249 154.81C72.0669 155.152 72.3339 155.578 72.5259 156.088C72.7179 156.592 72.8139 157.168 72.8139 157.816C72.8139 158.068 72.7869 158.236 72.7329 158.32C72.6789 158.404 72.5769 158.446 72.4269 158.446H66.3339C66.3519 159.022 66.4299 159.523 66.5679 159.949C66.7119 160.375 66.9099 160.732 67.1619 161.02C67.4139 161.302 67.7139 161.515 68.0619 161.659C68.4099 161.797 68.7999 161.866 69.2319 161.866C69.6339 161.866 69.9789 161.821 70.2669 161.731C70.5609 161.635 70.8129 161.533 71.0229 161.425C71.2329 161.317 71.4069 161.218 71.5449 161.128C71.6889 161.032 71.8119 160.984 71.9139 160.984C72.0459 160.984 72.1479 161.035 72.2199 161.137L72.6699 161.722ZM84.3282 158.896C83.5902 158.92 82.9602 158.98 82.4382 159.076C81.9222 159.166 81.4992 159.286 81.1692 159.436C80.8452 159.586 80.6082 159.763 80.4582 159.967C80.3142 160.171 80.2422 160.399 80.2422 160.651C80.2422 160.891 80.2812 161.098 80.3592 161.272C80.4372 161.446 80.5422 161.59 80.6742 161.704C80.8122 161.812 80.9712 161.893 81.1512 161.947C81.3372 161.995 81.5352 162.019 81.7452 162.019C82.0272 162.019 82.2852 161.992 82.5192 161.938C82.7532 161.878 82.9722 161.794 83.1762 161.686C83.3862 161.578 83.5842 161.449 83.7702 161.299C83.9622 161.149 84.1482 160.978 84.3282 160.786V158.896ZM79.1532 155.17C79.6572 154.684 80.2002 154.321 80.7822 154.081C81.3642 153.841 82.0092 153.721 82.7172 153.721C83.2272 153.721 83.6802 153.805 84.0762 153.973C84.4722 154.141 84.8052 154.375 85.0752 154.675C85.3452 154.975 85.5492 155.338 85.6872 155.764C85.8252 156.19 85.8942 156.658 85.8942 157.168V163H85.1832C85.0272 163 84.9072 162.976 84.8232 162.928C84.7392 162.874 84.6732 162.772 84.6252 162.622L84.4452 161.758C84.2052 161.98 83.9712 162.178 83.7432 162.352C83.5152 162.52 83.2752 162.664 83.0232 162.784C82.7712 162.898 82.5012 162.985 82.2132 163.045C81.9312 163.111 81.6162 163.144 81.2682 163.144C80.9142 163.144 80.5812 163.096 80.2692 163C79.9572 162.898 79.6842 162.748 79.4502 162.55C79.2222 162.352 79.0392 162.103 78.9012 161.803C78.7692 161.497 78.7032 161.137 78.7032 160.723C78.7032 160.363 78.8022 160.018 79.0002 159.688C79.1982 159.352 79.5192 159.055 79.9632 158.797C80.4072 158.539 80.9862 158.329 81.7002 158.167C82.4142 157.999 83.2902 157.903 84.3282 157.879V157.168C84.3282 156.46 84.1752 155.926 83.8692 155.566C83.5632 155.2 83.1162 155.017 82.5282 155.017C82.1322 155.017 81.7992 155.068 81.5292 155.17C81.2652 155.266 81.0342 155.377 80.8362 155.503C80.6442 155.623 80.4762 155.734 80.3322 155.836C80.1942 155.932 80.0562 155.98 79.9182 155.98C79.8102 155.98 79.7172 155.953 79.6392 155.899C79.5612 155.839 79.4952 155.767 79.4412 155.683L79.1532 155.17ZM98.2499 155.386C98.1779 155.518 98.0669 155.584 97.9169 155.584C97.8269 155.584 97.7249 155.551 97.6109 155.485C97.4969 155.419 97.3559 155.347 97.1879 155.269C97.0259 155.185 96.8309 155.11 96.6029 155.044C96.3749 154.972 96.1049 154.936 95.7929 154.936C95.5229 154.936 95.2799 154.972 95.0639 155.044C94.8479 155.11 94.6619 155.203 94.5059 155.323C94.3559 155.443 94.2389 155.584 94.1549 155.746C94.0769 155.902 94.0379 156.073 94.0379 156.259C94.0379 156.493 94.1039 156.688 94.2359 156.844C94.3739 157 94.5539 157.135 94.7759 157.249C94.9979 157.363 95.2499 157.465 95.5319 157.555C95.8139 157.639 96.1019 157.732 96.3959 157.834C96.6959 157.93 96.9869 158.038 97.2689 158.158C97.5509 158.278 97.8029 158.428 98.0249 158.608C98.2469 158.788 98.4239 159.01 98.5559 159.274C98.6939 159.532 98.7629 159.844 98.7629 160.21C98.7629 160.63 98.6879 161.02 98.5379 161.38C98.3879 161.734 98.1659 162.043 97.8719 162.307C97.5779 162.565 97.2179 162.769 96.7919 162.919C96.3659 163.069 95.8739 163.144 95.3159 163.144C94.6799 163.144 94.1039 163.042 93.5879 162.838C93.0719 162.628 92.6339 162.361 92.2739 162.037L92.6519 161.425C92.6999 161.347 92.7569 161.287 92.8229 161.245C92.8889 161.203 92.9729 161.182 93.0749 161.182C93.1829 161.182 93.2969 161.224 93.4169 161.308C93.5369 161.392 93.6809 161.485 93.8489 161.587C94.0229 161.689 94.2329 161.782 94.4789 161.866C94.7249 161.95 95.0309 161.992 95.3969 161.992C95.7089 161.992 95.9819 161.953 96.2159 161.875C96.4499 161.791 96.6449 161.68 96.8009 161.542C96.9569 161.404 97.0709 161.245 97.1429 161.065C97.2209 160.885 97.2599 160.693 97.2599 160.489C97.2599 160.237 97.1909 160.03 97.0529 159.868C96.9209 159.7 96.7439 159.559 96.5219 159.445C96.2999 159.325 96.0449 159.223 95.7569 159.139C95.4749 159.049 95.1839 158.956 94.8839 158.86C94.5899 158.764 94.2989 158.656 94.0109 158.536C93.7289 158.41 93.4769 158.254 93.2549 158.068C93.0329 157.882 92.8529 157.654 92.7149 157.384C92.5829 157.108 92.5169 156.775 92.5169 156.385C92.5169 156.037 92.5889 155.704 92.7329 155.386C92.8769 155.062 93.0869 154.78 93.3629 154.54C93.6389 154.294 93.9779 154.099 94.3799 153.955C94.7819 153.811 95.2409 153.739 95.7569 153.739C96.3569 153.739 96.8939 153.835 97.3679 154.027C97.8479 154.213 98.2619 154.471 98.6099 154.801L98.2499 155.386ZM102.239 155.206C102.437 154.984 102.647 154.783 102.869 154.603C103.091 154.423 103.325 154.27 103.571 154.144C103.823 154.012 104.087 153.913 104.363 153.847C104.645 153.775 104.948 153.739 105.272 153.739C105.77 153.739 106.208 153.823 106.586 153.991C106.97 154.153 107.288 154.387 107.54 154.693C107.798 154.993 107.993 155.356 108.125 155.782C108.257 156.208 108.323 156.679 108.323 157.195V163H106.712V157.195C106.712 156.505 106.553 155.971 106.235 155.593C105.923 155.209 105.446 155.017 104.804 155.017C104.33 155.017 103.886 155.131 103.472 155.359C103.064 155.587 102.686 155.896 102.338 156.286V163H100.727V153.883H101.69C101.918 153.883 102.059 153.994 102.113 154.216L102.239 155.206ZM115.705 158.896C114.967 158.92 114.337 158.98 113.815 159.076C113.299 159.166 112.876 159.286 112.546 159.436C112.222 159.586 111.985 159.763 111.835 159.967C111.691 160.171 111.619 160.399 111.619 160.651C111.619 160.891 111.658 161.098 111.736 161.272C111.814 161.446 111.919 161.59 112.051 161.704C112.189 161.812 112.348 161.893 112.528 161.947C112.714 161.995 112.912 162.019 113.122 162.019C113.404 162.019 113.662 161.992 113.896 161.938C114.13 161.878 114.349 161.794 114.553 161.686C114.763 161.578 114.961 161.449 115.147 161.299C115.339 161.149 115.525 160.978 115.705 160.786V158.896ZM110.53 155.17C111.034 154.684 111.577 154.321 112.159 154.081C112.741 153.841 113.386 153.721 114.094 153.721C114.604 153.721 115.057 153.805 115.453 153.973C115.849 154.141 116.182 154.375 116.452 154.675C116.722 154.975 116.926 155.338 117.064 155.764C117.202 156.19 117.271 156.658 117.271 157.168V163H116.56C116.404 163 116.284 162.976 116.2 162.928C116.116 162.874 116.05 162.772 116.002 162.622L115.822 161.758C115.582 161.98 115.348 162.178 115.12 162.352C114.892 162.52 114.652 162.664 114.4 162.784C114.148 162.898 113.878 162.985 113.59 163.045C113.308 163.111 112.993 163.144 112.645 163.144C112.291 163.144 111.958 163.096 111.646 163C111.334 162.898 111.061 162.748 110.827 162.55C110.599 162.352 110.416 162.103 110.278 161.803C110.146 161.497 110.08 161.137 110.08 160.723C110.08 160.363 110.179 160.018 110.377 159.688C110.575 159.352 110.896 159.055 111.34 158.797C111.784 158.539 112.363 158.329 113.077 158.167C113.791 157.999 114.667 157.903 115.705 157.879V157.168C115.705 156.46 115.552 155.926 115.246 155.566C114.94 155.2 114.493 155.017 113.905 155.017C113.509 155.017 113.176 155.068 112.906 155.17C112.642 155.266 112.411 155.377 112.213 155.503C112.021 155.623 111.853 155.734 111.709 155.836C111.571 155.932 111.433 155.98 111.295 155.98C111.187 155.98 111.094 155.953 111.016 155.899C110.938 155.839 110.872 155.767 110.818 155.683L110.53 155.17ZM121.322 160.804C121.616 161.2 121.937 161.479 122.285 161.641C122.633 161.803 123.023 161.884 123.455 161.884C124.307 161.884 124.961 161.581 125.417 160.975C125.873 160.369 126.101 159.505 126.101 158.383C126.101 157.789 126.047 157.279 125.939 156.853C125.837 156.427 125.687 156.079 125.489 155.809C125.291 155.533 125.048 155.332 124.76 155.206C124.472 155.08 124.145 155.017 123.779 155.017C123.257 155.017 122.798 155.137 122.402 155.377C122.012 155.617 121.652 155.956 121.322 156.394V160.804ZM121.241 155.296C121.625 154.822 122.069 154.441 122.573 154.153C123.077 153.865 123.653 153.721 124.301 153.721C124.829 153.721 125.306 153.823 125.732 154.027C126.158 154.225 126.521 154.522 126.821 154.918C127.121 155.308 127.352 155.794 127.514 156.376C127.676 156.958 127.757 157.627 127.757 158.383C127.757 159.055 127.667 159.682 127.487 160.264C127.307 160.84 127.046 161.341 126.704 161.767C126.368 162.187 125.954 162.52 125.462 162.766C124.976 163.006 124.427 163.126 123.815 163.126C123.257 163.126 122.777 163.033 122.375 162.847C121.979 162.655 121.628 162.391 121.322 162.055V166.087H119.711V153.883H120.674C120.902 153.883 121.043 153.994 121.097 154.216L121.241 155.296ZM135.111 155.386C135.039 155.518 134.928 155.584 134.778 155.584C134.688 155.584 134.586 155.551 134.472 155.485C134.358 155.419 134.217 155.347 134.049 155.269C133.887 155.185 133.692 155.11 133.464 155.044C133.236 154.972 132.966 154.936 132.654 154.936C132.384 154.936 132.141 154.972 131.925 155.044C131.709 155.11 131.523 155.203 131.367 155.323C131.217 155.443 131.1 155.584 131.016 155.746C130.938 155.902 130.899 156.073 130.899 156.259C130.899 156.493 130.965 156.688 131.097 156.844C131.235 157 131.415 157.135 131.637 157.249C131.859 157.363 132.111 157.465 132.393 157.555C132.675 157.639 132.963 157.732 133.257 157.834C133.557 157.93 133.848 158.038 134.13 158.158C134.412 158.278 134.664 158.428 134.886 158.608C135.108 158.788 135.285 159.01 135.417 159.274C135.555 159.532 135.624 159.844 135.624 160.21C135.624 160.63 135.549 161.02 135.399 161.38C135.249 161.734 135.027 162.043 134.733 162.307C134.439 162.565 134.079 162.769 133.653 162.919C133.227 163.069 132.735 163.144 132.177 163.144C131.541 163.144 130.965 163.042 130.449 162.838C129.933 162.628 129.495 162.361 129.135 162.037L129.513 161.425C129.561 161.347 129.618 161.287 129.684 161.245C129.75 161.203 129.834 161.182 129.936 161.182C130.044 161.182 130.158 161.224 130.278 161.308C130.398 161.392 130.542 161.485 130.71 161.587C130.884 161.689 131.094 161.782 131.34 161.866C131.586 161.95 131.892 161.992 132.258 161.992C132.57 161.992 132.843 161.953 133.077 161.875C133.311 161.791 133.506 161.68 133.662 161.542C133.818 161.404 133.932 161.245 134.004 161.065C134.082 160.885 134.121 160.693 134.121 160.489C134.121 160.237 134.052 160.03 133.914 159.868C133.782 159.7 133.605 159.559 133.383 159.445C133.161 159.325 132.906 159.223 132.618 159.139C132.336 159.049 132.045 158.956 131.745 158.86C131.451 158.764 131.16 158.656 130.872 158.536C130.59 158.41 130.338 158.254 130.116 158.068C129.894 157.882 129.714 157.654 129.576 157.384C129.444 157.108 129.378 156.775 129.378 156.385C129.378 156.037 129.45 155.704 129.594 155.386C129.738 155.062 129.948 154.78 130.224 154.54C130.5 154.294 130.839 154.099 131.241 153.955C131.643 153.811 132.102 153.739 132.618 153.739C133.218 153.739 133.755 153.835 134.229 154.027C134.709 154.213 135.123 154.471 135.471 154.801L135.111 155.386ZM139.199 155.098C139.589 154.684 140.021 154.354 140.495 154.108C140.969 153.862 141.515 153.739 142.133 153.739C142.631 153.739 143.069 153.823 143.447 153.991C143.831 154.153 144.149 154.387 144.401 154.693C144.659 154.993 144.854 155.356 144.986 155.782C145.118 156.208 145.184 156.679 145.184 157.195V163H143.573V157.195C143.573 156.505 143.414 155.971 143.096 155.593C142.784 155.209 142.307 155.017 141.665 155.017C141.191 155.017 140.747 155.131 140.333 155.359C139.925 155.587 139.547 155.896 139.199 156.286V163H137.588V149.743H139.199V155.098ZM151.468 153.739C152.134 153.739 152.734 153.85 153.268 154.072C153.802 154.294 154.258 154.609 154.636 155.017C155.014 155.425 155.302 155.92 155.5 156.502C155.704 157.078 155.806 157.723 155.806 158.437C155.806 159.157 155.704 159.805 155.5 160.381C155.302 160.957 155.014 161.449 154.636 161.857C154.258 162.265 153.802 162.58 153.268 162.802C152.734 163.018 152.134 163.126 151.468 163.126C150.796 163.126 150.19 163.018 149.65 162.802C149.116 162.58 148.66 162.265 148.282 161.857C147.904 161.449 147.613 160.957 147.409 160.381C147.211 159.805 147.112 159.157 147.112 158.437C147.112 157.723 147.211 157.078 147.409 156.502C147.613 155.92 147.904 155.425 148.282 155.017C148.66 154.609 149.116 154.294 149.65 154.072C150.19 153.85 150.796 153.739 151.468 153.739ZM151.468 161.875C152.368 161.875 153.04 161.575 153.484 160.975C153.928 160.369 154.15 159.526 154.15 158.446C154.15 157.36 153.928 156.514 153.484 155.908C153.04 155.302 152.368 154.999 151.468 154.999C151.012 154.999 150.613 155.077 150.271 155.233C149.935 155.389 149.653 155.614 149.425 155.908C149.203 156.202 149.035 156.565 148.921 156.997C148.813 157.423 148.759 157.906 148.759 158.446C148.759 159.526 148.981 160.369 149.425 160.975C149.875 161.575 150.556 161.875 151.468 161.875ZM160.479 163.144C159.759 163.144 159.204 162.943 158.814 162.541C158.43 162.139 158.238 161.56 158.238 160.804V155.224H157.14C157.044 155.224 156.963 155.197 156.897 155.143C156.831 155.083 156.798 154.993 156.798 154.873V154.234L158.292 154.045L158.661 151.228C158.679 151.138 158.718 151.066 158.778 151.012C158.844 150.952 158.928 150.922 159.03 150.922H159.84V154.063H162.477V155.224H159.84V160.696C159.84 161.08 159.933 161.365 160.119 161.551C160.305 161.737 160.545 161.83 160.839 161.83C161.007 161.83 161.151 161.809 161.271 161.767C161.397 161.719 161.505 161.668 161.595 161.614C161.685 161.56 161.76 161.512 161.82 161.47C161.886 161.422 161.943 161.398 161.991 161.398C162.075 161.398 162.15 161.449 162.216 161.551L162.684 162.316C162.408 162.574 162.075 162.778 161.685 162.928C161.295 163.072 160.893 163.144 160.479 163.144ZM172.58 153.739C173.246 153.739 173.846 153.85 174.38 154.072C174.914 154.294 175.37 154.609 175.748 155.017C176.126 155.425 176.414 155.92 176.612 156.502C176.816 157.078 176.918 157.723 176.918 158.437C176.918 159.157 176.816 159.805 176.612 160.381C176.414 160.957 176.126 161.449 175.748 161.857C175.37 162.265 174.914 162.58 174.38 162.802C173.846 163.018 173.246 163.126 172.58 163.126C171.908 163.126 171.302 163.018 170.762 162.802C170.228 162.58 169.772 162.265 169.394 161.857C169.016 161.449 168.725 160.957 168.521 160.381C168.323 159.805 168.224 159.157 168.224 158.437C168.224 157.723 168.323 157.078 168.521 156.502C168.725 155.92 169.016 155.425 169.394 155.017C169.772 154.609 170.228 154.294 170.762 154.072C171.302 153.85 171.908 153.739 172.58 153.739ZM172.58 161.875C173.48 161.875 174.152 161.575 174.596 160.975C175.04 160.369 175.262 159.526 175.262 158.446C175.262 157.36 175.04 156.514 174.596 155.908C174.152 155.302 173.48 154.999 172.58 154.999C172.124 154.999 171.725 155.077 171.383 155.233C171.047 155.389 170.765 155.614 170.537 155.908C170.315 156.202 170.147 156.565 170.033 156.997C169.925 157.423 169.871 157.906 169.871 158.446C169.871 159.526 170.093 160.369 170.537 160.975C170.987 161.575 171.668 161.875 172.58 161.875ZM179.35 163V155.251L178.342 155.134C178.216 155.104 178.111 155.059 178.027 154.999C177.949 154.933 177.91 154.84 177.91 154.72V154.063H179.35V153.181C179.35 152.659 179.422 152.197 179.566 151.795C179.716 151.387 179.926 151.045 180.196 150.769C180.472 150.487 180.802 150.274 181.186 150.13C181.57 149.986 182.002 149.914 182.482 149.914C182.89 149.914 183.265 149.974 183.607 150.094L183.571 150.895C183.559 151.039 183.478 151.117 183.328 151.129C183.184 151.141 182.989 151.147 182.743 151.147C182.467 151.147 182.215 151.183 181.987 151.255C181.765 151.327 181.573 151.444 181.411 151.606C181.249 151.768 181.123 151.981 181.033 152.245C180.949 152.509 180.907 152.836 180.907 153.226V154.063H183.535V155.224H180.961V163H179.35ZM11.4606 197.144C10.7406 197.144 10.1856 196.943 9.79558 196.541C9.41158 196.139 9.21958 195.56 9.21958 194.804V189.224H8.12158C8.02558 189.224 7.94458 189.197 7.87858 189.143C7.81258 189.083 7.77958 188.993 7.77958 188.873V188.234L9.27358 188.045L9.64258 185.228C9.66058 185.138 9.69958 185.066 9.75958 185.012C9.82558 184.952 9.90958 184.922 10.0116 184.922H10.8216V188.063H13.4586V189.224H10.8216V194.696C10.8216 195.08 10.9146 195.365 11.1006 195.551C11.2866 195.737 11.5266 195.83 11.8206 195.83C11.9886 195.83 12.1326 195.809 12.2526 195.767C12.3786 195.719 12.4866 195.668 12.5766 195.614C12.6666 195.56 12.7416 195.512 12.8016 195.47C12.8676 195.422 12.9246 195.398 12.9726 195.398C13.0566 195.398 13.1316 195.449 13.1976 195.551L13.6656 196.316C13.3896 196.574 13.0566 196.778 12.6666 196.928C12.2766 197.072 11.8746 197.144 11.4606 197.144ZM16.7238 189.098C17.1138 188.684 17.5458 188.354 18.0198 188.108C18.4938 187.862 19.0398 187.739 19.6578 187.739C20.1558 187.739 20.5938 187.823 20.9718 187.991C21.3558 188.153 21.6738 188.387 21.9258 188.693C22.1838 188.993 22.3788 189.356 22.5108 189.782C22.6428 190.208 22.7088 190.679 22.7088 191.195V197H21.0978V191.195C21.0978 190.505 20.9388 189.971 20.6208 189.593C20.3088 189.209 19.8318 189.017 19.1898 189.017C18.7158 189.017 18.2718 189.131 17.8578 189.359C17.4498 189.587 17.0718 189.896 16.7238 190.286V197H15.1128V183.743H16.7238V189.098ZM31.2519 191.447C31.2519 191.075 31.1979 190.736 31.0899 190.43C30.9879 190.118 30.8349 189.851 30.6309 189.629C30.4329 189.401 30.1899 189.227 29.9019 189.107C29.6139 188.981 29.2869 188.918 28.9209 188.918C28.1529 188.918 27.5439 189.143 27.0939 189.593C26.6499 190.037 26.3739 190.655 26.2659 191.447H31.2519ZM32.5479 195.722C32.3499 195.962 32.1129 196.172 31.8369 196.352C31.5609 196.526 31.2639 196.67 30.9459 196.784C30.6339 196.898 30.3099 196.982 29.9739 197.036C29.6379 197.096 29.3049 197.126 28.9749 197.126C28.3449 197.126 27.7629 197.021 27.2289 196.811C26.7009 196.595 26.2419 196.283 25.8519 195.875C25.4679 195.461 25.1679 194.951 24.9519 194.345C24.7359 193.739 24.6279 193.043 24.6279 192.257C24.6279 191.621 24.7239 191.027 24.9159 190.475C25.1139 189.923 25.3959 189.446 25.7619 189.044C26.1279 188.636 26.5749 188.318 27.1029 188.09C27.6309 187.856 28.2249 187.739 28.8849 187.739C29.4309 187.739 29.9349 187.832 30.3969 188.018C30.8649 188.198 31.2669 188.462 31.6029 188.81C31.9449 189.152 32.2119 189.578 32.4039 190.088C32.5959 190.592 32.6919 191.168 32.6919 191.816C32.6919 192.068 32.6649 192.236 32.6109 192.32C32.5569 192.404 32.4549 192.446 32.3049 192.446H26.2119C26.2299 193.022 26.3079 193.523 26.4459 193.949C26.5899 194.375 26.7879 194.732 27.0399 195.02C27.2919 195.302 27.5919 195.515 27.9399 195.659C28.2879 195.797 28.6779 195.866 29.1099 195.866C29.5119 195.866 29.8569 195.821 30.1449 195.731C30.4389 195.635 30.6909 195.533 30.9009 195.425C31.1109 195.317 31.2849 195.218 31.4229 195.128C31.5669 195.032 31.6899 194.984 31.7919 194.984C31.9239 194.984 32.0259 195.035 32.0979 195.137L32.5479 195.722ZM45.3671 191.447C45.3671 191.075 45.3131 190.736 45.2051 190.43C45.1031 190.118 44.9501 189.851 44.7461 189.629C44.5481 189.401 44.3051 189.227 44.0171 189.107C43.7291 188.981 43.4021 188.918 43.0361 188.918C42.2681 188.918 41.6591 189.143 41.2091 189.593C40.7651 190.037 40.4891 190.655 40.3811 191.447H45.3671ZM46.6631 195.722C46.4651 195.962 46.2281 196.172 45.9521 196.352C45.6761 196.526 45.3791 196.67 45.0611 196.784C44.7491 196.898 44.4251 196.982 44.0891 197.036C43.7531 197.096 43.4201 197.126 43.0901 197.126C42.4601 197.126 41.8781 197.021 41.3441 196.811C40.8161 196.595 40.3571 196.283 39.9671 195.875C39.5831 195.461 39.2831 194.951 39.0671 194.345C38.8511 193.739 38.7431 193.043 38.7431 192.257C38.7431 191.621 38.8391 191.027 39.0311 190.475C39.2291 189.923 39.5111 189.446 39.8771 189.044C40.2431 188.636 40.6901 188.318 41.2181 188.09C41.7461 187.856 42.3401 187.739 43.0001 187.739C43.5461 187.739 44.0501 187.832 44.5121 188.018C44.9801 188.198 45.3821 188.462 45.7181 188.81C46.0601 189.152 46.3271 189.578 46.5191 190.088C46.7111 190.592 46.8071 191.168 46.8071 191.816C46.8071 192.068 46.7801 192.236 46.7261 192.32C46.6721 192.404 46.5701 192.446 46.4201 192.446H40.3271C40.3451 193.022 40.4231 193.523 40.5611 193.949C40.7051 194.375 40.9031 194.732 41.1551 195.02C41.4071 195.302 41.7071 195.515 42.0551 195.659C42.4031 195.797 42.7931 195.866 43.2251 195.866C43.6271 195.866 43.9721 195.821 44.2601 195.731C44.5541 195.635 44.8061 195.533 45.0161 195.425C45.2261 195.317 45.4001 195.218 45.5381 195.128C45.6821 195.032 45.8051 194.984 45.9071 194.984C46.0391 194.984 46.1411 195.035 46.2131 195.137L46.6631 195.722ZM56.3935 187.883L52.6765 197H51.2365L47.5195 187.883H48.8245C48.9565 187.883 49.0645 187.916 49.1485 187.982C49.2325 188.048 49.2895 188.126 49.3195 188.216L51.6325 194.084C51.7045 194.306 51.7675 194.522 51.8215 194.732C51.8755 194.942 51.9265 195.152 51.9745 195.362C52.0225 195.152 52.0735 194.942 52.1275 194.732C52.1815 194.522 52.2475 194.306 52.3255 194.084L54.6655 188.216C54.7015 188.12 54.7615 188.042 54.8455 187.982C54.9295 187.916 55.0285 187.883 55.1425 187.883H56.3935ZM63.7187 191.447C63.7187 191.075 63.6647 190.736 63.5567 190.43C63.4547 190.118 63.3017 189.851 63.0977 189.629C62.8997 189.401 62.6567 189.227 62.3687 189.107C62.0807 188.981 61.7537 188.918 61.3877 188.918C60.6197 188.918 60.0107 189.143 59.5607 189.593C59.1167 190.037 58.8407 190.655 58.7327 191.447H63.7187ZM65.0147 195.722C64.8167 195.962 64.5797 196.172 64.3037 196.352C64.0277 196.526 63.7307 196.67 63.4127 196.784C63.1007 196.898 62.7767 196.982 62.4407 197.036C62.1047 197.096 61.7717 197.126 61.4417 197.126C60.8117 197.126 60.2297 197.021 59.6957 196.811C59.1677 196.595 58.7087 196.283 58.3187 195.875C57.9347 195.461 57.6347 194.951 57.4187 194.345C57.2027 193.739 57.0947 193.043 57.0947 192.257C57.0947 191.621 57.1907 191.027 57.3827 190.475C57.5807 189.923 57.8627 189.446 58.2287 189.044C58.5947 188.636 59.0417 188.318 59.5697 188.09C60.0977 187.856 60.6917 187.739 61.3517 187.739C61.8977 187.739 62.4017 187.832 62.8637 188.018C63.3317 188.198 63.7337 188.462 64.0697 188.81C64.4117 189.152 64.6787 189.578 64.8707 190.088C65.0627 190.592 65.1587 191.168 65.1587 191.816C65.1587 192.068 65.1317 192.236 65.0777 192.32C65.0237 192.404 64.9217 192.446 64.7717 192.446H58.6787C58.6967 193.022 58.7747 193.523 58.9127 193.949C59.0567 194.375 59.2547 194.732 59.5067 195.02C59.7587 195.302 60.0587 195.515 60.4067 195.659C60.7547 195.797 61.1447 195.866 61.5767 195.866C61.9787 195.866 62.3237 195.821 62.6117 195.731C62.9057 195.635 63.1577 195.533 63.3677 195.425C63.5777 195.317 63.7517 195.218 63.8897 195.128C64.0337 195.032 64.1567 194.984 64.2587 194.984C64.3907 194.984 64.4927 195.035 64.5647 195.137L65.0147 195.722ZM68.6384 189.206C68.8364 188.984 69.0464 188.783 69.2684 188.603C69.4904 188.423 69.7244 188.27 69.9704 188.144C70.2224 188.012 70.4864 187.913 70.7624 187.847C71.0444 187.775 71.3474 187.739 71.6714 187.739C72.1694 187.739 72.6074 187.823 72.9854 187.991C73.3694 188.153 73.6874 188.387 73.9394 188.693C74.1974 188.993 74.3924 189.356 74.5244 189.782C74.6564 190.208 74.7224 190.679 74.7224 191.195V197H73.1114V191.195C73.1114 190.505 72.9524 189.971 72.6344 189.593C72.3224 189.209 71.8454 189.017 71.2034 189.017C70.7294 189.017 70.2854 189.131 69.8714 189.359C69.4634 189.587 69.0854 189.896 68.7374 190.286V197H67.1264V187.883H68.0894C68.3174 187.883 68.4584 187.994 68.5124 188.216L68.6384 189.206ZM79.8395 197.144C79.1195 197.144 78.5645 196.943 78.1745 196.541C77.7905 196.139 77.5985 195.56 77.5985 194.804V189.224H76.5005C76.4045 189.224 76.3235 189.197 76.2575 189.143C76.1915 189.083 76.1585 188.993 76.1585 188.873V188.234L77.6525 188.045L78.0215 185.228C78.0395 185.138 78.0785 185.066 78.1385 185.012C78.2045 184.952 78.2885 184.922 78.3905 184.922H79.2005V188.063H81.8375V189.224H79.2005V194.696C79.2005 195.08 79.2935 195.365 79.4795 195.551C79.6655 195.737 79.9055 195.83 80.1995 195.83C80.3675 195.83 80.5115 195.809 80.6315 195.767C80.7575 195.719 80.8655 195.668 80.9555 195.614C81.0455 195.56 81.1205 195.512 81.1805 195.47C81.2465 195.422 81.3035 195.398 81.3515 195.398C81.4355 195.398 81.5105 195.449 81.5765 195.551L82.0445 196.316C81.7685 196.574 81.4355 196.778 81.0455 196.928C80.6555 197.072 80.2535 197.144 79.8395 197.144ZM88.8017 189.386C88.7297 189.518 88.6187 189.584 88.4687 189.584C88.3787 189.584 88.2767 189.551 88.1627 189.485C88.0487 189.419 87.9077 189.347 87.7397 189.269C87.5777 189.185 87.3827 189.11 87.1547 189.044C86.9267 188.972 86.6567 188.936 86.3447 188.936C86.0747 188.936 85.8317 188.972 85.6157 189.044C85.3997 189.11 85.2137 189.203 85.0577 189.323C84.9077 189.443 84.7907 189.584 84.7067 189.746C84.6287 189.902 84.5897 190.073 84.5897 190.259C84.5897 190.493 84.6557 190.688 84.7877 190.844C84.9257 191 85.1057 191.135 85.3277 191.249C85.5497 191.363 85.8017 191.465 86.0837 191.555C86.3657 191.639 86.6537 191.732 86.9477 191.834C87.2477 191.93 87.5387 192.038 87.8207 192.158C88.1027 192.278 88.3547 192.428 88.5767 192.608C88.7987 192.788 88.9757 193.01 89.1077 193.274C89.2457 193.532 89.3147 193.844 89.3147 194.21C89.3147 194.63 89.2397 195.02 89.0897 195.38C88.9397 195.734 88.7177 196.043 88.4237 196.307C88.1297 196.565 87.7697 196.769 87.3437 196.919C86.9177 197.069 86.4257 197.144 85.8677 197.144C85.2317 197.144 84.6557 197.042 84.1397 196.838C83.6237 196.628 83.1857 196.361 82.8257 196.037L83.2037 195.425C83.2517 195.347 83.3087 195.287 83.3747 195.245C83.4407 195.203 83.5247 195.182 83.6267 195.182C83.7347 195.182 83.8487 195.224 83.9687 195.308C84.0887 195.392 84.2327 195.485 84.4007 195.587C84.5747 195.689 84.7847 195.782 85.0307 195.866C85.2767 195.95 85.5827 195.992 85.9487 195.992C86.2607 195.992 86.5337 195.953 86.7677 195.875C87.0017 195.791 87.1967 195.68 87.3527 195.542C87.5087 195.404 87.6227 195.245 87.6947 195.065C87.7727 194.885 87.8117 194.693 87.8117 194.489C87.8117 194.237 87.7427 194.03 87.6047 193.868C87.4727 193.7 87.2957 193.559 87.0737 193.445C86.8517 193.325 86.5967 193.223 86.3087 193.139C86.0267 193.049 85.7357 192.956 85.4357 192.86C85.1417 192.764 84.8507 192.656 84.5627 192.536C84.2807 192.41 84.0287 192.254 83.8067 192.068C83.5847 191.882 83.4047 191.654 83.2667 191.384C83.1347 191.108 83.0687 190.775 83.0687 190.385C83.0687 190.037 83.1407 189.704 83.2847 189.386C83.4287 189.062 83.6387 188.78 83.9147 188.54C84.1907 188.294 84.5297 188.099 84.9317 187.955C85.3337 187.811 85.7927 187.739 86.3087 187.739C86.9087 187.739 87.4457 187.835 87.9197 188.027C88.3997 188.213 88.8137 188.471 89.1617 188.801L88.8017 189.386ZM100.825 192.896C100.087 192.92 99.4572 192.98 98.9352 193.076C98.4192 193.166 97.9962 193.286 97.6662 193.436C97.3422 193.586 97.1052 193.763 96.9552 193.967C96.8112 194.171 96.7392 194.399 96.7392 194.651C96.7392 194.891 96.7782 195.098 96.8562 195.272C96.9342 195.446 97.0392 195.59 97.1712 195.704C97.3092 195.812 97.4682 195.893 97.6482 195.947C97.8342 195.995 98.0322 196.019 98.2422 196.019C98.5242 196.019 98.7822 195.992 99.0162 195.938C99.2502 195.878 99.4692 195.794 99.6732 195.686C99.8832 195.578 100.081 195.449 100.267 195.299C100.459 195.149 100.645 194.978 100.825 194.786V192.896ZM95.6502 189.17C96.1542 188.684 96.6972 188.321 97.2792 188.081C97.8612 187.841 98.5062 187.721 99.2142 187.721C99.7242 187.721 100.177 187.805 100.573 187.973C100.969 188.141 101.302 188.375 101.572 188.675C101.842 188.975 102.046 189.338 102.184 189.764C102.322 190.19 102.391 190.658 102.391 191.168V197H101.68C101.524 197 101.404 196.976 101.32 196.928C101.236 196.874 101.17 196.772 101.122 196.622L100.942 195.758C100.702 195.98 100.468 196.178 100.24 196.352C100.012 196.52 99.7722 196.664 99.5202 196.784C99.2682 196.898 98.9982 196.985 98.7102 197.045C98.4282 197.111 98.1132 197.144 97.7652 197.144C97.4112 197.144 97.0782 197.096 96.7662 197C96.4542 196.898 96.1812 196.748 95.9472 196.55C95.7192 196.352 95.5362 196.103 95.3982 195.803C95.2662 195.497 95.2002 195.137 95.2002 194.723C95.2002 194.363 95.2992 194.018 95.4972 193.688C95.6952 193.352 96.0162 193.055 96.4602 192.797C96.9042 192.539 97.4832 192.329 98.1972 192.167C98.9112 191.999 99.7872 191.903 100.825 191.879V191.168C100.825 190.46 100.672 189.926 100.366 189.566C100.06 189.2 99.6132 189.017 99.0252 189.017C98.6292 189.017 98.2962 189.068 98.0262 189.17C97.7622 189.266 97.5312 189.377 97.3332 189.503C97.1412 189.623 96.9732 189.734 96.8292 189.836C96.6912 189.932 96.5532 189.98 96.4152 189.98C96.3072 189.98 96.2142 189.953 96.1362 189.899C96.0582 189.839 95.9922 189.767 95.9382 189.683L95.6502 189.17ZM106.344 189.206C106.542 188.984 106.752 188.783 106.974 188.603C107.196 188.423 107.43 188.27 107.676 188.144C107.928 188.012 108.192 187.913 108.468 187.847C108.75 187.775 109.053 187.739 109.377 187.739C109.875 187.739 110.313 187.823 110.691 187.991C111.075 188.153 111.393 188.387 111.645 188.693C111.903 188.993 112.098 189.356 112.23 189.782C112.362 190.208 112.428 190.679 112.428 191.195V197H110.817V191.195C110.817 190.505 110.658 189.971 110.34 189.593C110.028 189.209 109.551 189.017 108.909 189.017C108.435 189.017 107.991 189.131 107.577 189.359C107.169 189.587 106.791 189.896 106.443 190.286V197H104.832V187.883H105.795C106.023 187.883 106.164 187.994 106.218 188.216L106.344 189.206ZM120.809 190.052C120.509 189.65 120.185 189.371 119.837 189.215C119.489 189.053 119.099 188.972 118.667 188.972C117.821 188.972 117.17 189.275 116.714 189.881C116.258 190.487 116.03 191.351 116.03 192.473C116.03 193.067 116.081 193.577 116.183 194.003C116.285 194.423 116.435 194.771 116.633 195.047C116.831 195.317 117.074 195.515 117.362 195.641C117.65 195.767 117.977 195.83 118.343 195.83C118.871 195.83 119.33 195.71 119.72 195.47C120.116 195.23 120.479 194.891 120.809 194.453V190.052ZM122.411 183.743V197H121.457C121.229 197 121.085 196.889 121.025 196.667L120.881 195.56C120.491 196.028 120.047 196.406 119.549 196.694C119.051 196.982 118.475 197.126 117.821 197.126C117.299 197.126 116.825 197.027 116.399 196.829C115.973 196.625 115.61 196.328 115.31 195.938C115.01 195.548 114.779 195.062 114.617 194.48C114.455 193.898 114.374 193.229 114.374 192.473C114.374 191.801 114.464 191.177 114.644 190.601C114.824 190.019 115.082 189.515 115.418 189.089C115.754 188.663 116.165 188.33 116.651 188.09C117.143 187.844 117.695 187.721 118.307 187.721C118.865 187.721 119.342 187.817 119.738 188.009C120.14 188.195 120.497 188.456 120.809 188.792V183.743H122.411ZM132.345 197.144C131.625 197.144 131.07 196.943 130.68 196.541C130.296 196.139 130.104 195.56 130.104 194.804V189.224H129.006C128.91 189.224 128.829 189.197 128.763 189.143C128.697 189.083 128.664 188.993 128.664 188.873V188.234L130.158 188.045L130.527 185.228C130.545 185.138 130.584 185.066 130.644 185.012C130.71 184.952 130.794 184.922 130.896 184.922H131.706V188.063H134.343V189.224H131.706V194.696C131.706 195.08 131.799 195.365 131.985 195.551C132.171 195.737 132.411 195.83 132.705 195.83C132.873 195.83 133.017 195.809 133.137 195.767C133.263 195.719 133.371 195.668 133.461 195.614C133.551 195.56 133.626 195.512 133.686 195.47C133.752 195.422 133.809 195.398 133.857 195.398C133.941 195.398 134.016 195.449 134.082 195.551L134.55 196.316C134.274 196.574 133.941 196.778 133.551 196.928C133.161 197.072 132.759 197.144 132.345 197.144ZM140.939 192.896C140.201 192.92 139.571 192.98 139.049 193.076C138.533 193.166 138.11 193.286 137.78 193.436C137.456 193.586 137.219 193.763 137.069 193.967C136.925 194.171 136.853 194.399 136.853 194.651C136.853 194.891 136.892 195.098 136.97 195.272C137.048 195.446 137.153 195.59 137.285 195.704C137.423 195.812 137.582 195.893 137.762 195.947C137.948 195.995 138.146 196.019 138.356 196.019C138.638 196.019 138.896 195.992 139.13 195.938C139.364 195.878 139.583 195.794 139.787 195.686C139.997 195.578 140.195 195.449 140.381 195.299C140.573 195.149 140.759 194.978 140.939 194.786V192.896ZM135.764 189.17C136.268 188.684 136.811 188.321 137.393 188.081C137.975 187.841 138.62 187.721 139.328 187.721C139.838 187.721 140.291 187.805 140.687 187.973C141.083 188.141 141.416 188.375 141.686 188.675C141.956 188.975 142.16 189.338 142.298 189.764C142.436 190.19 142.505 190.658 142.505 191.168V197H141.794C141.638 197 141.518 196.976 141.434 196.928C141.35 196.874 141.284 196.772 141.236 196.622L141.056 195.758C140.816 195.98 140.582 196.178 140.354 196.352C140.126 196.52 139.886 196.664 139.634 196.784C139.382 196.898 139.112 196.985 138.824 197.045C138.542 197.111 138.227 197.144 137.879 197.144C137.525 197.144 137.192 197.096 136.88 197C136.568 196.898 136.295 196.748 136.061 196.55C135.833 196.352 135.65 196.103 135.512 195.803C135.38 195.497 135.314 195.137 135.314 194.723C135.314 194.363 135.413 194.018 135.611 193.688C135.809 193.352 136.13 193.055 136.574 192.797C137.018 192.539 137.597 192.329 138.311 192.167C139.025 191.999 139.901 191.903 140.939 191.879V191.168C140.939 190.46 140.786 189.926 140.48 189.566C140.174 189.2 139.727 189.017 139.139 189.017C138.743 189.017 138.41 189.068 138.14 189.17C137.876 189.266 137.645 189.377 137.447 189.503C137.255 189.623 137.087 189.734 136.943 189.836C136.805 189.932 136.667 189.98 136.529 189.98C136.421 189.98 136.328 189.953 136.25 189.899C136.172 189.839 136.106 189.767 136.052 189.683L135.764 189.17ZM150.255 189.386C150.183 189.518 150.072 189.584 149.922 189.584C149.832 189.584 149.73 189.551 149.616 189.485C149.502 189.419 149.361 189.347 149.193 189.269C149.031 189.185 148.836 189.11 148.608 189.044C148.38 188.972 148.11 188.936 147.798 188.936C147.528 188.936 147.285 188.972 147.069 189.044C146.853 189.11 146.667 189.203 146.511 189.323C146.361 189.443 146.244 189.584 146.16 189.746C146.082 189.902 146.043 190.073 146.043 190.259C146.043 190.493 146.109 190.688 146.241 190.844C146.379 191 146.559 191.135 146.781 191.249C147.003 191.363 147.255 191.465 147.537 191.555C147.819 191.639 148.107 191.732 148.401 191.834C148.701 191.93 148.992 192.038 149.274 192.158C149.556 192.278 149.808 192.428 150.03 192.608C150.252 192.788 150.429 193.01 150.561 193.274C150.699 193.532 150.768 193.844 150.768 194.21C150.768 194.63 150.693 195.02 150.543 195.38C150.393 195.734 150.171 196.043 149.877 196.307C149.583 196.565 149.223 196.769 148.797 196.919C148.371 197.069 147.879 197.144 147.321 197.144C146.685 197.144 146.109 197.042 145.593 196.838C145.077 196.628 144.639 196.361 144.279 196.037L144.657 195.425C144.705 195.347 144.762 195.287 144.828 195.245C144.894 195.203 144.978 195.182 145.08 195.182C145.188 195.182 145.302 195.224 145.422 195.308C145.542 195.392 145.686 195.485 145.854 195.587C146.028 195.689 146.238 195.782 146.484 195.866C146.73 195.95 147.036 195.992 147.402 195.992C147.714 195.992 147.987 195.953 148.221 195.875C148.455 195.791 148.65 195.68 148.806 195.542C148.962 195.404 149.076 195.245 149.148 195.065C149.226 194.885 149.265 194.693 149.265 194.489C149.265 194.237 149.196 194.03 149.058 193.868C148.926 193.7 148.749 193.559 148.527 193.445C148.305 193.325 148.05 193.223 147.762 193.139C147.48 193.049 147.189 192.956 146.889 192.86C146.595 192.764 146.304 192.656 146.016 192.536C145.734 192.41 145.482 192.254 145.26 192.068C145.038 191.882 144.858 191.654 144.72 191.384C144.588 191.108 144.522 190.775 144.522 190.385C144.522 190.037 144.594 189.704 144.738 189.386C144.882 189.062 145.092 188.78 145.368 188.54C145.644 188.294 145.983 188.099 146.385 187.955C146.787 187.811 147.246 187.739 147.762 187.739C148.362 187.739 148.899 187.835 149.373 188.027C149.853 188.213 150.267 188.471 150.615 188.801L150.255 189.386ZM154.343 183.743V191.546H154.757C154.877 191.546 154.976 191.531 155.054 191.501C155.138 191.465 155.225 191.396 155.315 191.294L158.195 188.207C158.279 188.105 158.366 188.027 158.456 187.973C158.552 187.913 158.678 187.883 158.834 187.883H160.283L156.926 191.456C156.764 191.66 156.59 191.819 156.404 191.933C156.512 192.005 156.608 192.089 156.692 192.185C156.782 192.275 156.866 192.38 156.944 192.5L160.508 197H159.077C158.939 197 158.819 196.979 158.717 196.937C158.621 196.889 158.537 196.805 158.465 196.685L155.468 192.95C155.378 192.824 155.288 192.743 155.198 192.707C155.114 192.665 154.982 192.644 154.802 192.644H154.343V197H152.732V183.743H154.343ZM167.183 189.386C167.111 189.518 167 189.584 166.85 189.584C166.76 189.584 166.658 189.551 166.544 189.485C166.43 189.419 166.289 189.347 166.121 189.269C165.959 189.185 165.764 189.11 165.536 189.044C165.308 188.972 165.038 188.936 164.726 188.936C164.456 188.936 164.213 188.972 163.997 189.044C163.781 189.11 163.595 189.203 163.439 189.323C163.289 189.443 163.172 189.584 163.088 189.746C163.01 189.902 162.971 190.073 162.971 190.259C162.971 190.493 163.037 190.688 163.169 190.844C163.307 191 163.487 191.135 163.709 191.249C163.931 191.363 164.183 191.465 164.465 191.555C164.747 191.639 165.035 191.732 165.329 191.834C165.629 191.93 165.92 192.038 166.202 192.158C166.484 192.278 166.736 192.428 166.958 192.608C167.18 192.788 167.357 193.01 167.489 193.274C167.627 193.532 167.696 193.844 167.696 194.21C167.696 194.63 167.621 195.02 167.471 195.38C167.321 195.734 167.099 196.043 166.805 196.307C166.511 196.565 166.151 196.769 165.725 196.919C165.299 197.069 164.807 197.144 164.249 197.144C163.613 197.144 163.037 197.042 162.521 196.838C162.005 196.628 161.567 196.361 161.207 196.037L161.585 195.425C161.633 195.347 161.69 195.287 161.756 195.245C161.822 195.203 161.906 195.182 162.008 195.182C162.116 195.182 162.23 195.224 162.35 195.308C162.47 195.392 162.614 195.485 162.782 195.587C162.956 195.689 163.166 195.782 163.412 195.866C163.658 195.95 163.964 195.992 164.33 195.992C164.642 195.992 164.915 195.953 165.149 195.875C165.383 195.791 165.578 195.68 165.734 195.542C165.89 195.404 166.004 195.245 166.076 195.065C166.154 194.885 166.193 194.693 166.193 194.489C166.193 194.237 166.124 194.03 165.986 193.868C165.854 193.7 165.677 193.559 165.455 193.445C165.233 193.325 164.978 193.223 164.69 193.139C164.408 193.049 164.117 192.956 163.817 192.86C163.523 192.764 163.232 192.656 162.944 192.536C162.662 192.41 162.41 192.254 162.188 192.068C161.966 191.882 161.786 191.654 161.648 191.384C161.516 191.108 161.45 190.775 161.45 190.385C161.45 190.037 161.522 189.704 161.666 189.386C161.81 189.062 162.02 188.78 162.296 188.54C162.572 188.294 162.911 188.099 163.313 187.955C163.715 187.811 164.174 187.739 164.69 187.739C165.29 187.739 165.827 187.835 166.301 188.027C166.781 188.213 167.195 188.471 167.543 188.801L167.183 189.386ZM177.064 197.144C176.344 197.144 175.789 196.943 175.399 196.541C175.015 196.139 174.823 195.56 174.823 194.804V189.224H173.725C173.629 189.224 173.548 189.197 173.482 189.143C173.416 189.083 173.383 188.993 173.383 188.873V188.234L174.877 188.045L175.246 185.228C175.264 185.138 175.303 185.066 175.363 185.012C175.429 184.952 175.513 184.922 175.615 184.922H176.425V188.063H179.062V189.224H176.425V194.696C176.425 195.08 176.518 195.365 176.704 195.551C176.89 195.737 177.13 195.83 177.424 195.83C177.592 195.83 177.736 195.809 177.856 195.767C177.982 195.719 178.09 195.668 178.18 195.614C178.27 195.56 178.345 195.512 178.405 195.47C178.471 195.422 178.528 195.398 178.576 195.398C178.66 195.398 178.735 195.449 178.801 195.551L179.269 196.316C178.993 196.574 178.66 196.778 178.27 196.928C177.88 197.072 177.478 197.144 177.064 197.144ZM184.507 187.739C185.173 187.739 185.773 187.85 186.307 188.072C186.841 188.294 187.297 188.609 187.675 189.017C188.053 189.425 188.341 189.92 188.539 190.502C188.743 191.078 188.845 191.723 188.845 192.437C188.845 193.157 188.743 193.805 188.539 194.381C188.341 194.957 188.053 195.449 187.675 195.857C187.297 196.265 186.841 196.58 186.307 196.802C185.773 197.018 185.173 197.126 184.507 197.126C183.835 197.126 183.229 197.018 182.689 196.802C182.155 196.58 181.699 196.265 181.321 195.857C180.943 195.449 180.652 194.957 180.448 194.381C180.25 193.805 180.151 193.157 180.151 192.437C180.151 191.723 180.25 191.078 180.448 190.502C180.652 189.92 180.943 189.425 181.321 189.017C181.699 188.609 182.155 188.294 182.689 188.072C183.229 187.85 183.835 187.739 184.507 187.739ZM184.507 195.875C185.407 195.875 186.079 195.575 186.523 194.975C186.967 194.369 187.189 193.526 187.189 192.446C187.189 191.36 186.967 190.514 186.523 189.908C186.079 189.302 185.407 188.999 184.507 188.999C184.051 188.999 183.652 189.077 183.31 189.233C182.974 189.389 182.692 189.614 182.464 189.908C182.242 190.202 182.074 190.565 181.96 190.997C181.852 191.423 181.798 191.906 181.798 192.446C181.798 193.526 182.02 194.369 182.464 194.975C182.914 195.575 183.595 195.875 184.507 195.875ZM69.3702 228.804C69.6642 229.2 69.9852 229.479 70.3332 229.641C70.6872 229.803 71.0742 229.884 71.4942 229.884C72.3522 229.884 73.0092 229.581 73.4652 228.975C73.9212 228.369 74.1492 227.466 74.1492 226.266C74.1492 225.15 73.9452 224.331 73.5372 223.809C73.1352 223.281 72.5592 223.017 71.8092 223.017C71.2872 223.017 70.8312 223.137 70.4412 223.377C70.0572 223.617 69.7002 223.956 69.3702 224.394V228.804ZM69.3702 223.197C69.7542 222.753 70.1862 222.399 70.6662 222.135C71.1522 221.871 71.7102 221.739 72.3402 221.739C72.8742 221.739 73.3542 221.841 73.7802 222.045C74.2122 222.249 74.5782 222.546 74.8782 222.936C75.1782 223.32 75.4062 223.788 75.5622 224.34C75.7242 224.892 75.8052 225.513 75.8052 226.203C75.8052 226.941 75.7152 227.613 75.5352 228.219C75.3552 228.825 75.0942 229.344 74.7522 229.776C74.4162 230.202 74.0052 230.535 73.5192 230.775C73.0332 231.009 72.4872 231.126 71.8812 231.126C71.2812 231.126 70.7742 231.015 70.3602 230.793C69.9522 230.565 69.5952 230.244 69.2892 229.83L69.2082 230.658C69.1602 230.886 69.0222 231 68.7942 231H67.7592V217.743H69.3702V223.197ZM83.9335 225.447C83.9335 225.075 83.8795 224.736 83.7715 224.43C83.6695 224.118 83.5165 223.851 83.3125 223.629C83.1145 223.401 82.8715 223.227 82.5835 223.107C82.2955 222.981 81.9685 222.918 81.6025 222.918C80.8345 222.918 80.2255 223.143 79.7755 223.593C79.3315 224.037 79.0555 224.655 78.9475 225.447H83.9335ZM85.2295 229.722C85.0315 229.962 84.7945 230.172 84.5185 230.352C84.2425 230.526 83.9455 230.67 83.6275 230.784C83.3155 230.898 82.9915 230.982 82.6555 231.036C82.3195 231.096 81.9865 231.126 81.6565 231.126C81.0265 231.126 80.4445 231.021 79.9105 230.811C79.3825 230.595 78.9235 230.283 78.5335 229.875C78.1495 229.461 77.8495 228.951 77.6335 228.345C77.4175 227.739 77.3095 227.043 77.3095 226.257C77.3095 225.621 77.4055 225.027 77.5975 224.475C77.7955 223.923 78.0775 223.446 78.4435 223.044C78.8095 222.636 79.2565 222.318 79.7845 222.09C80.3125 221.856 80.9065 221.739 81.5665 221.739C82.1125 221.739 82.6165 221.832 83.0785 222.018C83.5465 222.198 83.9485 222.462 84.2845 222.81C84.6265 223.152 84.8935 223.578 85.0855 224.088C85.2775 224.592 85.3735 225.168 85.3735 225.816C85.3735 226.068 85.3465 226.236 85.2925 226.32C85.2385 226.404 85.1365 226.446 84.9865 226.446H78.8935C78.9115 227.022 78.9895 227.523 79.1275 227.949C79.2715 228.375 79.4695 228.732 79.7215 229.02C79.9735 229.302 80.2735 229.515 80.6215 229.659C80.9695 229.797 81.3595 229.866 81.7915 229.866C82.1935 229.866 82.5385 229.821 82.8265 229.731C83.1205 229.635 83.3725 229.533 83.5825 229.425C83.7925 229.317 83.9665 229.218 84.1045 229.128C84.2485 229.032 84.3715 228.984 84.4735 228.984C84.6055 228.984 84.7075 229.035 84.7795 229.137L85.2295 229.722ZM97.8867 224.052C97.5867 223.65 97.2627 223.371 96.9147 223.215C96.5667 223.053 96.1767 222.972 95.7447 222.972C94.8987 222.972 94.2477 223.275 93.7917 223.881C93.3357 224.487 93.1077 225.351 93.1077 226.473C93.1077 227.067 93.1587 227.577 93.2607 228.003C93.3627 228.423 93.5127 228.771 93.7107 229.047C93.9087 229.317 94.1517 229.515 94.4397 229.641C94.7277 229.767 95.0547 229.83 95.4207 229.83C95.9487 229.83 96.4077 229.71 96.7977 229.47C97.1937 229.23 97.5567 228.891 97.8867 228.453V224.052ZM99.4887 217.743V231H98.5347C98.3067 231 98.1627 230.889 98.1027 230.667L97.9587 229.56C97.5687 230.028 97.1247 230.406 96.6267 230.694C96.1287 230.982 95.5527 231.126 94.8987 231.126C94.3767 231.126 93.9027 231.027 93.4767 230.829C93.0507 230.625 92.6877 230.328 92.3877 229.938C92.0877 229.548 91.8567 229.062 91.6947 228.48C91.5327 227.898 91.4517 227.229 91.4517 226.473C91.4517 225.801 91.5417 225.177 91.7217 224.601C91.9017 224.019 92.1597 223.515 92.4957 223.089C92.8317 222.663 93.2427 222.33 93.7287 222.09C94.2207 221.844 94.7727 221.721 95.3847 221.721C95.9427 221.721 96.4197 221.817 96.8157 222.009C97.2177 222.195 97.5747 222.456 97.8867 222.792V217.743H99.4887ZM105.862 221.739C106.528 221.739 107.128 221.85 107.662 222.072C108.196 222.294 108.652 222.609 109.03 223.017C109.408 223.425 109.696 223.92 109.894 224.502C110.098 225.078 110.2 225.723 110.2 226.437C110.2 227.157 110.098 227.805 109.894 228.381C109.696 228.957 109.408 229.449 109.03 229.857C108.652 230.265 108.196 230.58 107.662 230.802C107.128 231.018 106.528 231.126 105.862 231.126C105.19 231.126 104.584 231.018 104.044 230.802C103.51 230.58 103.054 230.265 102.676 229.857C102.298 229.449 102.007 228.957 101.803 228.381C101.605 227.805 101.506 227.157 101.506 226.437C101.506 225.723 101.605 225.078 101.803 224.502C102.007 223.92 102.298 223.425 102.676 223.017C103.054 222.609 103.51 222.294 104.044 222.072C104.584 221.85 105.19 221.739 105.862 221.739ZM105.862 229.875C106.762 229.875 107.434 229.575 107.878 228.975C108.322 228.369 108.544 227.526 108.544 226.446C108.544 225.36 108.322 224.514 107.878 223.908C107.434 223.302 106.762 222.999 105.862 222.999C105.406 222.999 105.007 223.077 104.665 223.233C104.329 223.389 104.047 223.614 103.819 223.908C103.597 224.202 103.429 224.565 103.315 224.997C103.207 225.423 103.153 225.906 103.153 226.446C103.153 227.526 103.375 228.369 103.819 228.975C104.269 229.575 104.95 229.875 105.862 229.875ZM113.744 223.206C113.942 222.984 114.152 222.783 114.374 222.603C114.596 222.423 114.83 222.27 115.076 222.144C115.328 222.012 115.592 221.913 115.868 221.847C116.15 221.775 116.453 221.739 116.777 221.739C117.275 221.739 117.713 221.823 118.091 221.991C118.475 222.153 118.793 222.387 119.045 222.693C119.303 222.993 119.498 223.356 119.63 223.782C119.762 224.208 119.828 224.679 119.828 225.195V231H118.217V225.195C118.217 224.505 118.058 223.971 117.74 223.593C117.428 223.209 116.951 223.017 116.309 223.017C115.835 223.017 115.391 223.131 114.977 223.359C114.569 223.587 114.191 223.896 113.843 224.286V231H112.232V221.883H113.195C113.423 221.883 113.564 221.994 113.618 222.216L113.744 223.206ZM128.371 225.447C128.371 225.075 128.317 224.736 128.209 224.43C128.107 224.118 127.954 223.851 127.75 223.629C127.552 223.401 127.309 223.227 127.021 223.107C126.733 222.981 126.406 222.918 126.04 222.918C125.272 222.918 124.663 223.143 124.213 223.593C123.769 224.037 123.493 224.655 123.385 225.447H128.371ZM129.667 229.722C129.469 229.962 129.232 230.172 128.956 230.352C128.68 230.526 128.383 230.67 128.065 230.784C127.753 230.898 127.429 230.982 127.093 231.036C126.757 231.096 126.424 231.126 126.094 231.126C125.464 231.126 124.882 231.021 124.348 230.811C123.82 230.595 123.361 230.283 122.971 229.875C122.587 229.461 122.287 228.951 122.071 228.345C121.855 227.739 121.747 227.043 121.747 226.257C121.747 225.621 121.843 225.027 122.035 224.475C122.233 223.923 122.515 223.446 122.881 223.044C123.247 222.636 123.694 222.318 124.222 222.09C124.75 221.856 125.344 221.739 126.004 221.739C126.55 221.739 127.054 221.832 127.516 222.018C127.984 222.198 128.386 222.462 128.722 222.81C129.064 223.152 129.331 223.578 129.523 224.088C129.715 224.592 129.811 225.168 129.811 225.816C129.811 226.068 129.784 226.236 129.73 226.32C129.676 226.404 129.574 226.446 129.424 226.446H123.331C123.349 227.022 123.427 227.523 123.565 227.949C123.709 228.375 123.907 228.732 124.159 229.02C124.411 229.302 124.711 229.515 125.059 229.659C125.407 229.797 125.797 229.866 126.229 229.866C126.631 229.866 126.976 229.821 127.264 229.731C127.558 229.635 127.81 229.533 128.02 229.425C128.23 229.317 128.404 229.218 128.542 229.128C128.686 229.032 128.809 228.984 128.911 228.984C129.043 228.984 129.145 229.035 129.217 229.137L129.667 229.722Z" fill="black"/>
</svg>
