<svg width="197" height="241" viewBox="0 0 197 241" fill="none" xmlns="http://www.w3.org/2000/svg">
<rect x="70" y="13.5" width="54" height="54" rx="2.5" fill="#F66700" stroke="#F66700"/>
<rect x="73.5" y="25" width="47" height="39" rx="3" fill="white"/>
<rect x="98.5" y="32" width="5" height="5" fill="#F66700"/>
<rect x="104.5" y="32" width="5" height="5" fill="#F66700"/>
<rect x="110.5" y="32" width="5" height="5" fill="#F66700"/>
<rect x="77.5" y="41.5" width="5" height="5" fill="#F66700"/>
<rect x="83.5" y="41.5" width="5" height="5" fill="#F66700"/>
<rect x="89.5" y="41.5" width="5" height="5" fill="#F66700"/>
<rect x="77.5" y="52" width="5" height="5" fill="#F66700"/>
<rect x="83.5" y="52" width="5" height="5" fill="#F66700"/>
<rect x="89.5" y="52" width="5" height="5" fill="#F66700"/>
<path d="M28.701 106.336C28.797 106.336 28.881 106.375 28.953 106.453L29.646 107.2C29.118 107.812 28.476 108.289 27.72 108.631C26.97 108.973 26.061 109.144 24.993 109.144C24.069 109.144 23.229 108.985 22.473 108.667C21.717 108.343 21.072 107.893 20.538 107.317C20.004 106.735 19.59 106.039 19.296 105.229C19.002 104.419 18.855 103.528 18.855 102.556C18.855 101.584 19.008 100.693 19.314 99.883C19.62 99.073 20.049 98.377 20.601 97.795C21.159 97.213 21.825 96.763 22.599 96.445C23.373 96.121 24.228 95.959 25.164 95.959C26.082 95.959 26.892 96.106 27.594 96.4C28.296 96.694 28.914 97.093 29.448 97.597L28.872 98.398C28.836 98.458 28.788 98.509 28.728 98.551C28.674 98.587 28.599 98.605 28.503 98.605C28.395 98.605 28.263 98.548 28.107 98.434C27.951 98.314 27.747 98.182 27.495 98.038C27.243 97.894 26.928 97.765 26.55 97.651C26.172 97.531 25.707 97.471 25.155 97.471C24.489 97.471 23.88 97.588 23.328 97.822C22.776 98.05 22.299 98.383 21.897 98.821C21.501 99.259 21.192 99.793 20.97 100.423C20.748 101.053 20.637 101.764 20.637 102.556C20.637 103.36 20.751 104.077 20.979 104.707C21.213 105.337 21.528 105.871 21.924 106.309C22.326 106.741 22.797 107.071 23.337 107.299C23.883 107.527 24.471 107.641 25.101 107.641C25.485 107.641 25.83 107.62 26.136 107.578C26.448 107.53 26.733 107.458 26.991 107.362C27.255 107.266 27.498 107.146 27.72 107.002C27.948 106.852 28.173 106.675 28.395 106.471C28.497 106.381 28.599 106.336 28.701 106.336ZM36.2334 104.896C35.4954 104.92 34.8654 104.98 34.3434 105.076C33.8274 105.166 33.4044 105.286 33.0744 105.436C32.7504 105.586 32.5134 105.763 32.3634 105.967C32.2194 106.171 32.1474 106.399 32.1474 106.651C32.1474 106.891 32.1864 107.098 32.2644 107.272C32.3424 107.446 32.4474 107.59 32.5794 107.704C32.7174 107.812 32.8764 107.893 33.0564 107.947C33.2424 107.995 33.4404 108.019 33.6504 108.019C33.9324 108.019 34.1904 107.992 34.4244 107.938C34.6584 107.878 34.8774 107.794 35.0814 107.686C35.2914 107.578 35.4894 107.449 35.6754 107.299C35.8674 107.149 36.0534 106.978 36.2334 106.786V104.896ZM31.0584 101.17C31.5624 100.684 32.1054 100.321 32.6874 100.081C33.2694 99.841 33.9144 99.721 34.6224 99.721C35.1324 99.721 35.5854 99.805 35.9814 99.973C36.3774 100.141 36.7104 100.375 36.9804 100.675C37.2504 100.975 37.4544 101.338 37.5924 101.764C37.7304 102.19 37.7994 102.658 37.7994 103.168V109H37.0884C36.9324 109 36.8124 108.976 36.7284 108.928C36.6444 108.874 36.5784 108.772 36.5304 108.622L36.3504 107.758C36.1104 107.98 35.8764 108.178 35.6484 108.352C35.4204 108.52 35.1804 108.664 34.9284 108.784C34.6764 108.898 34.4064 108.985 34.1184 109.045C33.8364 109.111 33.5214 109.144 33.1734 109.144C32.8194 109.144 32.4864 109.096 32.1744 109C31.8624 108.898 31.5894 108.748 31.3554 108.55C31.1274 108.352 30.9444 108.103 30.8064 107.803C30.6744 107.497 30.6084 107.137 30.6084 106.723C30.6084 106.363 30.7074 106.018 30.9054 105.688C31.1034 105.352 31.4244 105.055 31.8684 104.797C32.3124 104.539 32.8914 104.329 33.6054 104.167C34.3194 103.999 35.1954 103.903 36.2334 103.879V103.168C36.2334 102.46 36.0804 101.926 35.7744 101.566C35.4684 101.2 35.0214 101.017 34.4334 101.017C34.0374 101.017 33.7044 101.068 33.4344 101.17C33.1704 101.266 32.9394 101.377 32.7414 101.503C32.5494 101.623 32.3814 101.734 32.2374 101.836C32.0994 101.932 31.9614 101.98 31.8234 101.98C31.7154 101.98 31.6224 101.953 31.5444 101.899C31.4664 101.839 31.4004 101.767 31.3464 101.683L31.0584 101.17ZM41.8957 95.743V109H40.2937V95.743H41.8957ZM50.5956 103.447C50.5956 103.075 50.5416 102.736 50.4336 102.43C50.3316 102.118 50.1786 101.851 49.9746 101.629C49.7766 101.401 49.5336 101.227 49.2456 101.107C48.9576 100.981 48.6306 100.918 48.2646 100.918C47.4966 100.918 46.8876 101.143 46.4376 101.593C45.9936 102.037 45.7176 102.655 45.6096 103.447H50.5956ZM51.8916 107.722C51.6936 107.962 51.4566 108.172 51.1806 108.352C50.9046 108.526 50.6076 108.67 50.2896 108.784C49.9776 108.898 49.6536 108.982 49.3176 109.036C48.9816 109.096 48.6486 109.126 48.3186 109.126C47.6886 109.126 47.1066 109.021 46.5726 108.811C46.0446 108.595 45.5856 108.283 45.1956 107.875C44.8116 107.461 44.5116 106.951 44.2956 106.345C44.0796 105.739 43.9716 105.043 43.9716 104.257C43.9716 103.621 44.0676 103.027 44.2596 102.475C44.4576 101.923 44.7396 101.446 45.1056 101.044C45.4716 100.636 45.9186 100.318 46.4466 100.09C46.9746 99.856 47.5686 99.739 48.2286 99.739C48.7746 99.739 49.2786 99.832 49.7406 100.018C50.2086 100.198 50.6106 100.462 50.9466 100.81C51.2886 101.152 51.5556 101.578 51.7476 102.088C51.9396 102.592 52.0356 103.168 52.0356 103.816C52.0356 104.068 52.0086 104.236 51.9546 104.32C51.9006 104.404 51.7986 104.446 51.6486 104.446H45.5556C45.5736 105.022 45.6516 105.523 45.7896 105.949C45.9336 106.375 46.1316 106.732 46.3836 107.02C46.6356 107.302 46.9356 107.515 47.2836 107.659C47.6316 107.797 48.0216 107.866 48.4536 107.866C48.8556 107.866 49.2006 107.821 49.4886 107.731C49.7826 107.635 50.0346 107.533 50.2446 107.425C50.4546 107.317 50.6286 107.218 50.7666 107.128C50.9106 107.032 51.0336 106.984 51.1356 106.984C51.2676 106.984 51.3696 107.035 51.4416 107.137L51.8916 107.722ZM55.5154 101.206C55.7134 100.984 55.9234 100.783 56.1454 100.603C56.3674 100.423 56.6014 100.27 56.8474 100.144C57.0994 100.012 57.3634 99.913 57.6394 99.847C57.9214 99.775 58.2244 99.739 58.5484 99.739C59.0464 99.739 59.4844 99.823 59.8624 99.991C60.2464 100.153 60.5644 100.387 60.8164 100.693C61.0744 100.993 61.2694 101.356 61.4014 101.782C61.5334 102.208 61.5994 102.679 61.5994 103.195V109H59.9884V103.195C59.9884 102.505 59.8294 101.971 59.5114 101.593C59.1994 101.209 58.7224 101.017 58.0804 101.017C57.6064 101.017 57.1624 101.131 56.7484 101.359C56.3404 101.587 55.9624 101.896 55.6144 102.286V109H54.0034V99.883H54.9664C55.1944 99.883 55.3354 99.994 55.3894 100.216L55.5154 101.206ZM69.9805 102.052C69.6805 101.65 69.3565 101.371 69.0085 101.215C68.6605 101.053 68.2705 100.972 67.8385 100.972C66.9925 100.972 66.3415 101.275 65.8855 101.881C65.4295 102.487 65.2015 103.351 65.2015 104.473C65.2015 105.067 65.2525 105.577 65.3545 106.003C65.4565 106.423 65.6065 106.771 65.8045 107.047C66.0025 107.317 66.2455 107.515 66.5335 107.641C66.8215 107.767 67.1485 107.83 67.5145 107.83C68.0425 107.83 68.5015 107.71 68.8915 107.47C69.2875 107.23 69.6505 106.891 69.9805 106.453V102.052ZM71.5825 95.743V109H70.6285C70.4005 109 70.2565 108.889 70.1965 108.667L70.0525 107.56C69.6625 108.028 69.2185 108.406 68.7205 108.694C68.2225 108.982 67.6465 109.126 66.9925 109.126C66.4705 109.126 65.9965 109.027 65.5705 108.829C65.1445 108.625 64.7815 108.328 64.4815 107.938C64.1815 107.548 63.9505 107.062 63.7885 106.48C63.6265 105.898 63.5455 105.229 63.5455 104.473C63.5455 103.801 63.6355 103.177 63.8155 102.601C63.9955 102.019 64.2535 101.515 64.5895 101.089C64.9255 100.663 65.3365 100.33 65.8225 100.09C66.3145 99.844 66.8665 99.721 67.4785 99.721C68.0365 99.721 68.5135 99.817 68.9095 100.009C69.3115 100.195 69.6685 100.456 69.9805 100.792V95.743H71.5825ZM79.0538 104.896C78.3158 104.92 77.6858 104.98 77.1638 105.076C76.6478 105.166 76.2248 105.286 75.8948 105.436C75.5708 105.586 75.3338 105.763 75.1838 105.967C75.0398 106.171 74.9678 106.399 74.9678 106.651C74.9678 106.891 75.0068 107.098 75.0848 107.272C75.1628 107.446 75.2678 107.59 75.3998 107.704C75.5378 107.812 75.6968 107.893 75.8768 107.947C76.0628 107.995 76.2608 108.019 76.4708 108.019C76.7528 108.019 77.0108 107.992 77.2448 107.938C77.4788 107.878 77.6978 107.794 77.9018 107.686C78.1118 107.578 78.3098 107.449 78.4958 107.299C78.6878 107.149 78.8738 106.978 79.0538 106.786V104.896ZM73.8788 101.17C74.3828 100.684 74.9258 100.321 75.5078 100.081C76.0898 99.841 76.7348 99.721 77.4428 99.721C77.9528 99.721 78.4058 99.805 78.8018 99.973C79.1978 100.141 79.5308 100.375 79.8008 100.675C80.0708 100.975 80.2748 101.338 80.4128 101.764C80.5508 102.19 80.6198 102.658 80.6198 103.168V109H79.9088C79.7528 109 79.6328 108.976 79.5488 108.928C79.4648 108.874 79.3988 108.772 79.3508 108.622L79.1708 107.758C78.9308 107.98 78.6968 108.178 78.4688 108.352C78.2408 108.52 78.0008 108.664 77.7488 108.784C77.4968 108.898 77.2268 108.985 76.9388 109.045C76.6568 109.111 76.3418 109.144 75.9938 109.144C75.6398 109.144 75.3068 109.096 74.9948 109C74.6828 108.898 74.4098 108.748 74.1758 108.55C73.9478 108.352 73.7648 108.103 73.6268 107.803C73.4948 107.497 73.4288 107.137 73.4288 106.723C73.4288 106.363 73.5278 106.018 73.7258 105.688C73.9238 105.352 74.2448 105.055 74.6888 104.797C75.1328 104.539 75.7118 104.329 76.4258 104.167C77.1398 103.999 78.0158 103.903 79.0538 103.879V103.168C79.0538 102.46 78.9008 101.926 78.5948 101.566C78.2888 101.2 77.8418 101.017 77.2538 101.017C76.8578 101.017 76.5248 101.068 76.2548 101.17C75.9908 101.266 75.7598 101.377 75.5618 101.503C75.3698 101.623 75.2018 101.734 75.0578 101.836C74.9198 101.932 74.7818 101.98 74.6438 101.98C74.5358 101.98 74.4428 101.953 74.3648 101.899C74.2868 101.839 74.2208 101.767 74.1667 101.683L73.8788 101.17ZM84.581 101.71C84.869 101.086 85.223 100.6 85.643 100.252C86.063 99.898 86.576 99.721 87.182 99.721C87.374 99.721 87.557 99.742 87.731 99.784C87.911 99.826 88.07 99.892 88.208 99.982L88.091 101.179C88.055 101.329 87.965 101.404 87.821 101.404C87.737 101.404 87.614 101.386 87.452 101.35C87.29 101.314 87.107 101.296 86.903 101.296C86.615 101.296 86.357 101.338 86.129 101.422C85.907 101.506 85.706 101.632 85.526 101.8C85.352 101.962 85.193 102.166 85.049 102.412C84.911 102.652 84.785 102.928 84.671 103.24V109H83.06V99.883H83.978C84.152 99.883 84.272 99.916 84.338 99.982C84.404 100.048 84.449 100.162 84.473 100.324L84.581 101.71ZM95.5274 99.883V109H93.9254V99.883H95.5274ZM95.8694 97.021C95.8694 97.177 95.8364 97.324 95.7704 97.462C95.7104 97.594 95.6264 97.714 95.5184 97.822C95.4164 97.924 95.2934 98.005 95.1494 98.065C95.0114 98.125 94.8644 98.155 94.7084 98.155C94.5524 98.155 94.4054 98.125 94.2674 98.065C94.1354 98.005 94.0184 97.924 93.9164 97.822C93.8144 97.714 93.7334 97.594 93.6734 97.462C93.6134 97.324 93.5834 97.177 93.5834 97.021C93.5834 96.865 93.6134 96.718 93.6734 96.58C93.7334 96.436 93.8144 96.313 93.9164 96.211C94.0184 96.103 94.1354 96.019 94.2674 95.959C94.4054 95.899 94.5524 95.869 94.7084 95.869C94.8644 95.869 95.0114 95.899 95.1494 95.959C95.2934 96.019 95.4164 96.103 95.5184 96.211C95.6264 96.313 95.7104 96.436 95.7704 96.58C95.8364 96.718 95.8694 96.865 95.8694 97.021ZM99.6716 101.206C99.8696 100.984 100.08 100.783 100.302 100.603C100.524 100.423 100.758 100.27 101.004 100.144C101.256 100.012 101.52 99.913 101.796 99.847C102.078 99.775 102.381 99.739 102.705 99.739C103.203 99.739 103.641 99.823 104.019 99.991C104.403 100.153 104.721 100.387 104.973 100.693C105.231 100.993 105.426 101.356 105.558 101.782C105.69 102.208 105.756 102.679 105.756 103.195V109H104.145V103.195C104.145 102.505 103.986 101.971 103.668 101.593C103.356 101.209 102.879 101.017 102.237 101.017C101.763 101.017 101.319 101.131 100.905 101.359C100.497 101.587 100.119 101.896 99.7706 102.286V109H98.1596V99.883H99.1226C99.3506 99.883 99.4916 99.994 99.5456 100.216L99.6716 101.206ZM110.873 109.144C110.153 109.144 109.598 108.943 109.208 108.541C108.824 108.139 108.632 107.56 108.632 106.804V101.224H107.534C107.438 101.224 107.357 101.197 107.291 101.143C107.225 101.083 107.192 100.993 107.192 100.873V100.234L108.686 100.045L109.055 97.228C109.073 97.138 109.112 97.066 109.172 97.012C109.238 96.952 109.322 96.922 109.424 96.922H110.234V100.063H112.871V101.224H110.234V106.696C110.234 107.08 110.327 107.365 110.513 107.551C110.699 107.737 110.939 107.83 111.233 107.83C111.401 107.83 111.545 107.809 111.665 107.767C111.791 107.719 111.899 107.668 111.989 107.614C112.079 107.56 112.154 107.512 112.214 107.47C112.28 107.422 112.337 107.398 112.385 107.398C112.469 107.398 112.544 107.449 112.61 107.551L113.078 108.316C112.802 108.574 112.469 108.778 112.079 108.928C111.689 109.072 111.287 109.144 110.873 109.144ZM120.574 103.447C120.574 103.075 120.52 102.736 120.412 102.43C120.31 102.118 120.157 101.851 119.953 101.629C119.755 101.401 119.512 101.227 119.224 101.107C118.936 100.981 118.609 100.918 118.243 100.918C117.475 100.918 116.866 101.143 116.416 101.593C115.972 102.037 115.696 102.655 115.588 103.447H120.574ZM121.87 107.722C121.672 107.962 121.435 108.172 121.159 108.352C120.883 108.526 120.586 108.67 120.268 108.784C119.956 108.898 119.632 108.982 119.296 109.036C118.96 109.096 118.627 109.126 118.297 109.126C117.667 109.126 117.085 109.021 116.551 108.811C116.023 108.595 115.564 108.283 115.174 107.875C114.79 107.461 114.49 106.951 114.274 106.345C114.058 105.739 113.95 105.043 113.95 104.257C113.95 103.621 114.046 103.027 114.238 102.475C114.436 101.923 114.718 101.446 115.084 101.044C115.45 100.636 115.897 100.318 116.425 100.09C116.953 99.856 117.547 99.739 118.207 99.739C118.753 99.739 119.257 99.832 119.719 100.018C120.187 100.198 120.589 100.462 120.925 100.81C121.267 101.152 121.534 101.578 121.726 102.088C121.918 102.592 122.014 103.168 122.014 103.816C122.014 104.068 121.987 104.236 121.933 104.32C121.879 104.404 121.777 104.446 121.627 104.446H115.534C115.552 105.022 115.63 105.523 115.768 105.949C115.912 106.375 116.11 106.732 116.362 107.02C116.614 107.302 116.914 107.515 117.262 107.659C117.61 107.797 118 107.866 118.432 107.866C118.834 107.866 119.179 107.821 119.467 107.731C119.761 107.635 120.013 107.533 120.223 107.425C120.433 107.317 120.607 107.218 120.745 107.128C120.889 107.032 121.012 106.984 121.114 106.984C121.246 106.984 121.348 107.035 121.42 107.137L121.87 107.722ZM127.159 104.545C127.483 104.545 127.768 104.5 128.014 104.41C128.26 104.32 128.467 104.194 128.635 104.032C128.803 103.87 128.929 103.678 129.013 103.456C129.097 103.228 129.139 102.979 129.139 102.709C129.139 102.151 128.968 101.707 128.626 101.377C128.29 101.047 127.801 100.882 127.159 100.882C126.511 100.882 126.016 101.047 125.674 101.377C125.338 101.707 125.17 102.151 125.17 102.709C125.17 102.979 125.212 103.228 125.296 103.456C125.386 103.678 125.515 103.87 125.683 104.032C125.851 104.194 126.058 104.32 126.304 104.41C126.55 104.5 126.835 104.545 127.159 104.545ZM130.048 109.495C130.048 109.273 129.985 109.093 129.859 108.955C129.733 108.817 129.562 108.709 129.346 108.631C129.136 108.553 128.89 108.499 128.608 108.469C128.326 108.433 128.026 108.406 127.708 108.388C127.396 108.37 127.078 108.352 126.754 108.334C126.43 108.316 126.118 108.286 125.818 108.244C125.482 108.4 125.206 108.598 124.99 108.838C124.78 109.072 124.675 109.348 124.675 109.666C124.675 109.87 124.726 110.059 124.828 110.233C124.936 110.413 125.098 110.566 125.314 110.692C125.53 110.824 125.8 110.926 126.124 110.998C126.454 111.076 126.841 111.115 127.285 111.115C127.717 111.115 128.104 111.076 128.446 110.998C128.788 110.92 129.076 110.809 129.31 110.665C129.55 110.521 129.733 110.35 129.859 110.152C129.985 109.954 130.048 109.735 130.048 109.495ZM131.677 100.243V100.837C131.677 101.035 131.551 101.161 131.299 101.215L130.264 101.35C130.468 101.746 130.57 102.184 130.57 102.664C130.57 103.108 130.483 103.513 130.309 103.879C130.141 104.239 129.907 104.548 129.607 104.806C129.307 105.064 128.947 105.262 128.527 105.4C128.107 105.538 127.651 105.607 127.159 105.607C126.733 105.607 126.331 105.556 125.953 105.454C125.761 105.574 125.614 105.703 125.512 105.841C125.41 105.973 125.359 106.108 125.359 106.246C125.359 106.462 125.446 106.627 125.62 106.741C125.8 106.849 126.034 106.927 126.322 106.975C126.61 107.023 126.937 107.053 127.303 107.065C127.675 107.077 128.053 107.098 128.437 107.128C128.827 107.152 129.205 107.197 129.571 107.263C129.943 107.329 130.273 107.437 130.561 107.587C130.849 107.737 131.08 107.944 131.254 108.208C131.434 108.472 131.524 108.814 131.524 109.234C131.524 109.624 131.425 110.002 131.227 110.368C131.035 110.734 130.756 111.058 130.39 111.34C130.024 111.628 129.574 111.856 129.04 112.024C128.512 112.198 127.915 112.285 127.249 112.285C126.583 112.285 126.001 112.219 125.503 112.087C125.005 111.955 124.591 111.778 124.261 111.556C123.931 111.334 123.682 111.076 123.514 110.782C123.352 110.494 123.271 110.191 123.271 109.873C123.271 109.423 123.412 109.042 123.694 108.73C123.976 108.418 124.363 108.169 124.855 107.983C124.585 107.863 124.369 107.704 124.207 107.506C124.051 107.302 123.973 107.029 123.973 106.687C123.973 106.555 123.997 106.42 124.045 106.282C124.093 106.138 124.165 105.997 124.261 105.859C124.363 105.715 124.486 105.58 124.63 105.454C124.774 105.328 124.942 105.217 125.134 105.121C124.684 104.869 124.333 104.536 124.081 104.122C123.829 103.702 123.703 103.216 123.703 102.664C123.703 102.22 123.787 101.818 123.955 101.458C124.129 101.092 124.369 100.783 124.675 100.531C124.981 100.273 125.344 100.075 125.764 99.937C126.19 99.799 126.655 99.73 127.159 99.73C127.555 99.73 127.924 99.775 128.266 99.865C128.608 99.949 128.92 100.075 129.202 100.243H131.677ZM134.854 101.71C135.142 101.086 135.496 100.6 135.916 100.252C136.336 99.898 136.849 99.721 137.455 99.721C137.647 99.721 137.83 99.742 138.004 99.784C138.184 99.826 138.343 99.892 138.481 99.982L138.364 101.179C138.328 101.329 138.238 101.404 138.094 101.404C138.01 101.404 137.887 101.386 137.725 101.35C137.563 101.314 137.38 101.296 137.176 101.296C136.888 101.296 136.63 101.338 136.402 101.422C136.18 101.506 135.979 101.632 135.799 101.8C135.625 101.962 135.466 102.166 135.322 102.412C135.184 102.652 135.058 102.928 134.944 103.24V109H133.333V99.883H134.251C134.425 99.883 134.545 99.916 134.611 99.982C134.677 100.048 134.722 100.162 134.746 100.324L134.854 101.71ZM144.69 104.896C143.952 104.92 143.322 104.98 142.8 105.076C142.284 105.166 141.861 105.286 141.531 105.436C141.207 105.586 140.97 105.763 140.82 105.967C140.676 106.171 140.604 106.399 140.604 106.651C140.604 106.891 140.643 107.098 140.721 107.272C140.799 107.446 140.904 107.59 141.036 107.704C141.174 107.812 141.333 107.893 141.513 107.947C141.699 107.995 141.897 108.019 142.107 108.019C142.389 108.019 142.647 107.992 142.881 107.938C143.115 107.878 143.334 107.794 143.538 107.686C143.748 107.578 143.946 107.449 144.132 107.299C144.324 107.149 144.51 106.978 144.69 106.786V104.896ZM139.515 101.17C140.019 100.684 140.562 100.321 141.144 100.081C141.726 99.841 142.371 99.721 143.079 99.721C143.589 99.721 144.042 99.805 144.438 99.973C144.834 100.141 145.167 100.375 145.437 100.675C145.707 100.975 145.911 101.338 146.049 101.764C146.187 102.19 146.256 102.658 146.256 103.168V109H145.545C145.389 109 145.269 108.976 145.185 108.928C145.101 108.874 145.035 108.772 144.987 108.622L144.807 107.758C144.567 107.98 144.333 108.178 144.105 108.352C143.877 108.52 143.637 108.664 143.385 108.784C143.133 108.898 142.863 108.985 142.575 109.045C142.293 109.111 141.978 109.144 141.63 109.144C141.276 109.144 140.943 109.096 140.631 109C140.319 108.898 140.046 108.748 139.812 108.55C139.584 108.352 139.401 108.103 139.263 107.803C139.131 107.497 139.065 107.137 139.065 106.723C139.065 106.363 139.164 106.018 139.362 105.688C139.56 105.352 139.881 105.055 140.325 104.797C140.769 104.539 141.348 104.329 142.062 104.167C142.776 103.999 143.652 103.903 144.69 103.879V103.168C144.69 102.46 144.537 101.926 144.231 101.566C143.925 101.2 143.478 101.017 142.89 101.017C142.494 101.017 142.161 101.068 141.891 101.17C141.627 101.266 141.396 101.377 141.198 101.503C141.006 101.623 140.838 101.734 140.694 101.836C140.556 101.932 140.418 101.98 140.28 101.98C140.172 101.98 140.079 101.953 140.001 101.899C139.923 101.839 139.857 101.767 139.803 101.683L139.515 101.17ZM157.034 109H155.432V101.224H150.734V106.696C150.734 107.08 150.827 107.365 151.013 107.551C151.199 107.737 151.439 107.83 151.733 107.83C151.901 107.83 152.045 107.809 152.165 107.767C152.291 107.719 152.399 107.668 152.489 107.614C152.579 107.56 152.654 107.512 152.714 107.47C152.78 107.422 152.837 107.398 152.885 107.398C152.969 107.398 153.044 107.449 153.11 107.551L153.578 108.316C153.302 108.574 152.969 108.778 152.579 108.928C152.189 109.072 151.787 109.144 151.373 109.144C150.653 109.144 150.098 108.943 149.708 108.541C149.324 108.139 149.132 107.56 149.132 106.804V101.224H148.034C147.938 101.224 147.857 101.197 147.791 101.143C147.725 101.083 147.692 100.993 147.692 100.873V100.234L149.186 100.036L149.555 97.228C149.573 97.138 149.612 97.066 149.672 97.012C149.738 96.952 149.822 96.922 149.924 96.922H150.734V100.063H157.034V109ZM157.43 96.958C157.43 97.114 157.397 97.261 157.331 97.399C157.271 97.531 157.187 97.648 157.079 97.75C156.977 97.852 156.857 97.933 156.719 97.993C156.581 98.053 156.434 98.083 156.278 98.083C156.122 98.083 155.975 98.053 155.837 97.993C155.705 97.933 155.588 97.852 155.486 97.75C155.384 97.648 155.303 97.531 155.243 97.399C155.183 97.261 155.153 97.114 155.153 96.958C155.153 96.802 155.183 96.655 155.243 96.517C155.303 96.373 155.384 96.25 155.486 96.148C155.588 96.04 155.705 95.956 155.837 95.896C155.975 95.836 156.122 95.806 156.278 95.806C156.434 95.806 156.581 95.836 156.719 95.896C156.857 95.956 156.977 96.04 157.079 96.148C157.187 96.25 157.271 96.373 157.331 96.517C157.397 96.655 157.43 96.802 157.43 96.958ZM163.508 99.739C164.174 99.739 164.774 99.85 165.308 100.072C165.842 100.294 166.298 100.609 166.676 101.017C167.054 101.425 167.342 101.92 167.54 102.502C167.744 103.078 167.846 103.723 167.846 104.437C167.846 105.157 167.744 105.805 167.54 106.381C167.342 106.957 167.054 107.449 166.676 107.857C166.298 108.265 165.842 108.58 165.308 108.802C164.774 109.018 164.174 109.126 163.508 109.126C162.836 109.126 162.23 109.018 161.69 108.802C161.156 108.58 160.7 108.265 160.322 107.857C159.944 107.449 159.653 106.957 159.449 106.381C159.251 105.805 159.152 105.157 159.152 104.437C159.152 103.723 159.251 103.078 159.449 102.502C159.653 101.92 159.944 101.425 160.322 101.017C160.7 100.609 161.156 100.294 161.69 100.072C162.23 99.85 162.836 99.739 163.508 99.739ZM163.508 107.875C164.408 107.875 165.08 107.575 165.524 106.975C165.968 106.369 166.19 105.526 166.19 104.446C166.19 103.36 165.968 102.514 165.524 101.908C165.08 101.302 164.408 100.999 163.508 100.999C163.052 100.999 162.653 101.077 162.311 101.233C161.975 101.389 161.693 101.614 161.465 101.908C161.243 102.202 161.075 102.565 160.961 102.997C160.853 103.423 160.799 103.906 160.799 104.446C160.799 105.526 161.021 106.369 161.465 106.975C161.915 107.575 162.596 107.875 163.508 107.875ZM171.39 101.206C171.588 100.984 171.798 100.783 172.02 100.603C172.242 100.423 172.476 100.27 172.722 100.144C172.974 100.012 173.238 99.913 173.514 99.847C173.796 99.775 174.099 99.739 174.423 99.739C174.921 99.739 175.359 99.823 175.737 99.991C176.121 100.153 176.439 100.387 176.691 100.693C176.949 100.993 177.144 101.356 177.276 101.782C177.408 102.208 177.474 102.679 177.474 103.195V109H175.863V103.195C175.863 102.505 175.704 101.971 175.386 101.593C175.074 101.209 174.597 101.017 173.955 101.017C173.481 101.017 173.037 101.131 172.623 101.359C172.215 101.587 171.837 101.896 171.489 102.286V109H169.878V99.883H170.841C171.069 99.883 171.21 99.994 171.264 100.216L171.39 101.206Z" fill="black"/>
<path d="M28.9787 155.755H29.6357C29.8637 155.755 30.0467 155.728 30.1847 155.674C30.3227 155.614 30.4487 155.515 30.5627 155.377L34.8557 150.517C34.9757 150.361 35.1017 150.253 35.2337 150.193C35.3657 150.133 35.5277 150.103 35.7197 150.103H37.1957L32.2817 155.656C32.1617 155.8 32.0447 155.92 31.9307 156.016C31.8227 156.106 31.7057 156.181 31.5797 156.241C31.7417 156.295 31.8887 156.376 32.0207 156.484C32.1527 156.586 32.2817 156.721 32.4077 156.889L37.5377 163H36.0257C35.9117 163 35.8127 162.994 35.7287 162.982C35.6507 162.964 35.5817 162.94 35.5217 162.91C35.4617 162.874 35.4077 162.835 35.3597 162.793C35.3177 162.745 35.2757 162.691 35.2337 162.631L30.7877 157.51C30.6677 157.36 30.5387 157.255 30.4007 157.195C30.2627 157.129 30.0527 157.096 29.7707 157.096H28.9787V163H27.2417V150.103H28.9787V155.755ZM40.2937 155.206C40.4917 154.984 40.7017 154.783 40.9237 154.603C41.1457 154.423 41.3797 154.27 41.6257 154.144C41.8777 154.012 42.1417 153.913 42.4177 153.847C42.6997 153.775 43.0027 153.739 43.3267 153.739C43.8247 153.739 44.2627 153.823 44.6407 153.991C45.0247 154.153 45.3427 154.387 45.5947 154.693C45.8527 154.993 46.0477 155.356 46.1797 155.782C46.3117 156.208 46.3777 156.679 46.3777 157.195V163H44.7667V157.195C44.7667 156.505 44.6077 155.971 44.2897 155.593C43.9777 155.209 43.5007 155.017 42.8587 155.017C42.3847 155.017 41.9407 155.131 41.5267 155.359C41.1187 155.587 40.7407 155.896 40.3927 156.286V163H38.7817V153.883H39.7447C39.9727 153.883 40.1137 153.994 40.1677 154.216L40.2937 155.206ZM52.6618 153.739C53.3278 153.739 53.9278 153.85 54.4618 154.072C54.9958 154.294 55.4518 154.609 55.8298 155.017C56.2078 155.425 56.4958 155.92 56.6938 156.502C56.8978 157.078 56.9998 157.723 56.9998 158.437C56.9998 159.157 56.8978 159.805 56.6938 160.381C56.4958 160.957 56.2078 161.449 55.8298 161.857C55.4518 162.265 54.9958 162.58 54.4618 162.802C53.9278 163.018 53.3278 163.126 52.6618 163.126C51.9898 163.126 51.3838 163.018 50.8438 162.802C50.3098 162.58 49.8538 162.265 49.4758 161.857C49.0978 161.449 48.8068 160.957 48.6028 160.381C48.4048 159.805 48.3058 159.157 48.3058 158.437C48.3058 157.723 48.4048 157.078 48.6028 156.502C48.8068 155.92 49.0978 155.425 49.4758 155.017C49.8538 154.609 50.3098 154.294 50.8438 154.072C51.3838 153.85 51.9898 153.739 52.6618 153.739ZM52.6618 161.875C53.5618 161.875 54.2338 161.575 54.6778 160.975C55.1218 160.369 55.3438 159.526 55.3438 158.446C55.3438 157.36 55.1218 156.514 54.6778 155.908C54.2338 155.302 53.5618 154.999 52.6618 154.999C52.2058 154.999 51.8068 155.077 51.4648 155.233C51.1288 155.389 50.8468 155.614 50.6188 155.908C50.3968 156.202 50.2288 156.565 50.1148 156.997C50.0068 157.423 49.9528 157.906 49.9528 158.446C49.9528 159.526 50.1748 160.369 50.6188 160.975C51.0688 161.575 51.7498 161.875 52.6618 161.875ZM71.4641 153.883L68.5121 163H67.2431C67.0871 163 66.9791 162.898 66.9191 162.694L64.9031 156.511C64.8551 156.373 64.8161 156.235 64.7861 156.097C64.7561 155.953 64.7261 155.812 64.6961 155.674C64.6661 155.812 64.6361 155.953 64.6061 156.097C64.5761 156.235 64.5371 156.376 64.4891 156.52L62.4371 162.694C62.3831 162.898 62.2631 163 62.0771 163H60.8711L57.9191 153.883H59.1791C59.3051 153.883 59.4101 153.916 59.4941 153.982C59.5841 154.048 59.6441 154.126 59.6741 154.216L61.4201 160.084C61.5221 160.516 61.6031 160.924 61.6631 161.308C61.7171 161.11 61.7711 160.909 61.8251 160.705C61.8851 160.501 61.9481 160.294 62.0141 160.084L63.9401 154.18C63.9701 154.09 64.0211 154.015 64.0931 153.955C64.1711 153.895 64.2641 153.865 64.3721 153.865H65.0741C65.1941 153.865 65.2931 153.895 65.3711 153.955C65.4491 154.015 65.5031 154.09 65.5331 154.18L67.4141 160.084C67.4801 160.294 67.5401 160.501 67.5941 160.705C67.6481 160.909 67.6991 161.11 67.7471 161.308C67.7771 161.11 67.8131 160.912 67.8551 160.714C67.9031 160.51 67.9541 160.3 68.0081 160.084L69.7901 154.216C69.8201 154.12 69.8771 154.042 69.9611 153.982C70.0451 153.916 70.1441 153.883 70.2581 153.883H71.4641ZM78.8712 160.804C79.1652 161.2 79.4862 161.479 79.8342 161.641C80.1822 161.803 80.5722 161.884 81.0042 161.884C81.8562 161.884 82.5102 161.581 82.9662 160.975C83.4222 160.369 83.6502 159.505 83.6502 158.383C83.6502 157.789 83.5962 157.279 83.4882 156.853C83.3862 156.427 83.2362 156.079 83.0382 155.809C82.8402 155.533 82.5972 155.332 82.3092 155.206C82.0212 155.08 81.6942 155.017 81.3282 155.017C80.8062 155.017 80.3472 155.137 79.9512 155.377C79.5612 155.617 79.2012 155.956 78.8712 156.394V160.804ZM78.7902 155.296C79.1742 154.822 79.6182 154.441 80.1222 154.153C80.6262 153.865 81.2022 153.721 81.8502 153.721C82.3782 153.721 82.8552 153.823 83.2812 154.027C83.7072 154.225 84.0702 154.522 84.3702 154.918C84.6702 155.308 84.9012 155.794 85.0632 156.376C85.2252 156.958 85.3062 157.627 85.3062 158.383C85.3062 159.055 85.2162 159.682 85.0362 160.264C84.8562 160.84 84.5952 161.341 84.2532 161.767C83.9172 162.187 83.5032 162.52 83.0112 162.766C82.5252 163.006 81.9762 163.126 81.3642 163.126C80.8062 163.126 80.3262 163.033 79.9242 162.847C79.5282 162.655 79.1772 162.391 78.8712 162.055V166.087H77.2602V153.883H78.2232C78.4512 153.883 78.5922 153.994 78.6462 154.216L78.7902 155.296ZM88.8711 155.71C89.1591 155.086 89.5131 154.6 89.9331 154.252C90.3531 153.898 90.8661 153.721 91.4721 153.721C91.6641 153.721 91.8471 153.742 92.0211 153.784C92.2011 153.826 92.3601 153.892 92.4981 153.982L92.3811 155.179C92.3451 155.329 92.2551 155.404 92.1111 155.404C92.0271 155.404 91.9041 155.386 91.7421 155.35C91.5801 155.314 91.3971 155.296 91.1931 155.296C90.9051 155.296 90.6471 155.338 90.4191 155.422C90.1971 155.506 89.9961 155.632 89.8161 155.8C89.6421 155.962 89.4831 156.166 89.3391 156.412C89.2011 156.652 89.0751 156.928 88.9611 157.24V163H87.3501V153.883H88.2681C88.4421 153.883 88.5621 153.916 88.6281 153.982C88.6941 154.048 88.7391 154.162 88.7631 154.324L88.8711 155.71ZM99.6396 157.447C99.6396 157.075 99.5856 156.736 99.4776 156.43C99.3756 156.118 99.2226 155.851 99.0186 155.629C98.8206 155.401 98.5776 155.227 98.2896 155.107C98.0016 154.981 97.6746 154.918 97.3086 154.918C96.5406 154.918 95.9316 155.143 95.4816 155.593C95.0376 156.037 94.7616 156.655 94.6536 157.447H99.6396ZM100.936 161.722C100.738 161.962 100.501 162.172 100.225 162.352C99.9486 162.526 99.6516 162.67 99.3336 162.784C99.0216 162.898 98.6976 162.982 98.3616 163.036C98.0256 163.096 97.6926 163.126 97.3626 163.126C96.7326 163.126 96.1506 163.021 95.6166 162.811C95.0886 162.595 94.6296 162.283 94.2396 161.875C93.8556 161.461 93.5556 160.951 93.3396 160.345C93.1236 159.739 93.0156 159.043 93.0156 158.257C93.0156 157.621 93.1116 157.027 93.3036 156.475C93.5016 155.923 93.7836 155.446 94.1496 155.044C94.5156 154.636 94.9626 154.318 95.4906 154.09C96.0186 153.856 96.6126 153.739 97.2726 153.739C97.8186 153.739 98.3226 153.832 98.7846 154.018C99.2526 154.198 99.6546 154.462 99.9906 154.81C100.333 155.152 100.6 155.578 100.792 156.088C100.984 156.592 101.08 157.168 101.08 157.816C101.08 158.068 101.053 158.236 100.999 158.32C100.945 158.404 100.843 158.446 100.693 158.446H94.5996C94.6176 159.022 94.6956 159.523 94.8336 159.949C94.9776 160.375 95.1756 160.732 95.4276 161.02C95.6796 161.302 95.9796 161.515 96.3276 161.659C96.6756 161.797 97.0656 161.866 97.4976 161.866C97.8996 161.866 98.2446 161.821 98.5326 161.731C98.8266 161.635 99.0786 161.533 99.2886 161.425C99.4986 161.317 99.6726 161.218 99.8106 161.128C99.9546 161.032 100.078 160.984 100.18 160.984C100.312 160.984 100.414 161.035 100.486 161.137L100.936 161.722ZM102.903 156.925H107.349V158.284H102.903V156.925ZM111.338 160.804C111.632 161.2 111.953 161.479 112.301 161.641C112.649 161.803 113.039 161.884 113.471 161.884C114.323 161.884 114.977 161.581 115.433 160.975C115.889 160.369 116.117 159.505 116.117 158.383C116.117 157.789 116.063 157.279 115.955 156.853C115.853 156.427 115.703 156.079 115.505 155.809C115.307 155.533 115.064 155.332 114.776 155.206C114.488 155.08 114.161 155.017 113.795 155.017C113.273 155.017 112.814 155.137 112.418 155.377C112.028 155.617 111.668 155.956 111.338 156.394V160.804ZM111.257 155.296C111.641 154.822 112.085 154.441 112.589 154.153C113.093 153.865 113.669 153.721 114.317 153.721C114.845 153.721 115.322 153.823 115.748 154.027C116.174 154.225 116.537 154.522 116.837 154.918C117.137 155.308 117.368 155.794 117.53 156.376C117.692 156.958 117.773 157.627 117.773 158.383C117.773 159.055 117.683 159.682 117.503 160.264C117.323 160.84 117.062 161.341 116.72 161.767C116.384 162.187 115.97 162.52 115.478 162.766C114.992 163.006 114.443 163.126 113.831 163.126C113.273 163.126 112.793 163.033 112.391 162.847C111.995 162.655 111.644 162.391 111.338 162.055V166.087H109.727V153.883H110.69C110.918 153.883 111.059 153.994 111.113 154.216L111.257 155.296ZM121.473 149.743V163H119.871V149.743H121.473ZM129.012 158.896C128.274 158.92 127.644 158.98 127.122 159.076C126.606 159.166 126.183 159.286 125.853 159.436C125.529 159.586 125.292 159.763 125.142 159.967C124.998 160.171 124.926 160.399 124.926 160.651C124.926 160.891 124.965 161.098 125.043 161.272C125.121 161.446 125.226 161.59 125.358 161.704C125.496 161.812 125.655 161.893 125.835 161.947C126.021 161.995 126.219 162.019 126.429 162.019C126.711 162.019 126.969 161.992 127.203 161.938C127.437 161.878 127.656 161.794 127.86 161.686C128.07 161.578 128.268 161.449 128.454 161.299C128.646 161.149 128.832 160.978 129.012 160.786V158.896ZM123.837 155.17C124.341 154.684 124.884 154.321 125.466 154.081C126.048 153.841 126.693 153.721 127.401 153.721C127.911 153.721 128.364 153.805 128.76 153.973C129.156 154.141 129.489 154.375 129.759 154.675C130.029 154.975 130.233 155.338 130.371 155.764C130.509 156.19 130.578 156.658 130.578 157.168V163H129.867C129.711 163 129.591 162.976 129.507 162.928C129.423 162.874 129.357 162.772 129.309 162.622L129.129 161.758C128.889 161.98 128.655 162.178 128.427 162.352C128.199 162.52 127.959 162.664 127.707 162.784C127.455 162.898 127.185 162.985 126.897 163.045C126.615 163.111 126.3 163.144 125.952 163.144C125.598 163.144 125.265 163.096 124.953 163C124.641 162.898 124.368 162.748 124.134 162.55C123.906 162.352 123.723 162.103 123.585 161.803C123.453 161.497 123.387 161.137 123.387 160.723C123.387 160.363 123.486 160.018 123.684 159.688C123.882 159.352 124.203 159.055 124.647 158.797C125.091 158.539 125.67 158.329 126.384 158.167C127.098 157.999 127.974 157.903 129.012 157.879V157.168C129.012 156.46 128.859 155.926 128.553 155.566C128.247 155.2 127.8 155.017 127.212 155.017C126.816 155.017 126.483 155.068 126.213 155.17C125.949 155.266 125.718 155.377 125.52 155.503C125.328 155.623 125.16 155.734 125.016 155.836C124.878 155.932 124.74 155.98 124.602 155.98C124.494 155.98 124.401 155.953 124.323 155.899C124.245 155.839 124.179 155.767 124.125 155.683L123.837 155.17ZM134.53 155.206C134.728 154.984 134.938 154.783 135.16 154.603C135.382 154.423 135.616 154.27 135.862 154.144C136.114 154.012 136.378 153.913 136.654 153.847C136.936 153.775 137.239 153.739 137.563 153.739C138.061 153.739 138.499 153.823 138.877 153.991C139.261 154.153 139.579 154.387 139.831 154.693C140.089 154.993 140.284 155.356 140.416 155.782C140.548 156.208 140.614 156.679 140.614 157.195V163H139.003V157.195C139.003 156.505 138.844 155.971 138.526 155.593C138.214 155.209 137.737 155.017 137.095 155.017C136.621 155.017 136.177 155.131 135.763 155.359C135.355 155.587 134.977 155.896 134.629 156.286V163H133.018V153.883H133.981C134.209 153.883 134.35 153.994 134.404 154.216L134.53 155.206ZM144.567 155.206C144.765 154.984 144.975 154.783 145.197 154.603C145.419 154.423 145.653 154.27 145.899 154.144C146.151 154.012 146.415 153.913 146.691 153.847C146.973 153.775 147.276 153.739 147.6 153.739C148.098 153.739 148.536 153.823 148.914 153.991C149.298 154.153 149.616 154.387 149.868 154.693C150.126 154.993 150.321 155.356 150.453 155.782C150.585 156.208 150.651 156.679 150.651 157.195V163H149.04V157.195C149.04 156.505 148.881 155.971 148.563 155.593C148.251 155.209 147.774 155.017 147.132 155.017C146.658 155.017 146.214 155.131 145.8 155.359C145.392 155.587 145.014 155.896 144.666 156.286V163H143.055V153.883H144.018C144.246 153.883 144.387 153.994 144.441 154.216L144.567 155.206ZM159.194 157.447C159.194 157.075 159.14 156.736 159.032 156.43C158.93 156.118 158.777 155.851 158.573 155.629C158.375 155.401 158.132 155.227 157.844 155.107C157.556 154.981 157.229 154.918 156.863 154.918C156.095 154.918 155.486 155.143 155.036 155.593C154.592 156.037 154.316 156.655 154.208 157.447H159.194ZM160.49 161.722C160.292 161.962 160.055 162.172 159.779 162.352C159.503 162.526 159.206 162.67 158.888 162.784C158.576 162.898 158.252 162.982 157.916 163.036C157.58 163.096 157.247 163.126 156.917 163.126C156.287 163.126 155.705 163.021 155.171 162.811C154.643 162.595 154.184 162.283 153.794 161.875C153.41 161.461 153.11 160.951 152.894 160.345C152.678 159.739 152.57 159.043 152.57 158.257C152.57 157.621 152.666 157.027 152.858 156.475C153.056 155.923 153.338 155.446 153.704 155.044C154.07 154.636 154.517 154.318 155.045 154.09C155.573 153.856 156.167 153.739 156.827 153.739C157.373 153.739 157.877 153.832 158.339 154.018C158.807 154.198 159.209 154.462 159.545 154.81C159.887 155.152 160.154 155.578 160.346 156.088C160.538 156.592 160.634 157.168 160.634 157.816C160.634 158.068 160.607 158.236 160.553 158.32C160.499 158.404 160.397 158.446 160.247 158.446H154.154C154.172 159.022 154.25 159.523 154.388 159.949C154.532 160.375 154.73 160.732 154.982 161.02C155.234 161.302 155.534 161.515 155.882 161.659C156.23 161.797 156.62 161.866 157.052 161.866C157.454 161.866 157.799 161.821 158.087 161.731C158.381 161.635 158.633 161.533 158.843 161.425C159.053 161.317 159.227 161.218 159.365 161.128C159.509 161.032 159.632 160.984 159.734 160.984C159.866 160.984 159.968 161.035 160.04 161.137L160.49 161.722ZM168.542 156.052C168.242 155.65 167.918 155.371 167.57 155.215C167.222 155.053 166.832 154.972 166.4 154.972C165.554 154.972 164.903 155.275 164.447 155.881C163.991 156.487 163.763 157.351 163.763 158.473C163.763 159.067 163.814 159.577 163.916 160.003C164.018 160.423 164.168 160.771 164.366 161.047C164.564 161.317 164.807 161.515 165.095 161.641C165.383 161.767 165.71 161.83 166.076 161.83C166.604 161.83 167.063 161.71 167.453 161.47C167.849 161.23 168.212 160.891 168.542 160.453V156.052ZM170.144 149.743V163H169.19C168.962 163 168.818 162.889 168.758 162.667L168.614 161.56C168.224 162.028 167.78 162.406 167.282 162.694C166.784 162.982 166.208 163.126 165.554 163.126C165.032 163.126 164.558 163.027 164.132 162.829C163.706 162.625 163.343 162.328 163.043 161.938C162.743 161.548 162.512 161.062 162.35 160.48C162.188 159.898 162.107 159.229 162.107 158.473C162.107 157.801 162.197 157.177 162.377 156.601C162.557 156.019 162.815 155.515 163.151 155.089C163.487 154.663 163.898 154.33 164.384 154.09C164.876 153.844 165.428 153.721 166.04 153.721C166.598 153.721 167.075 153.817 167.471 154.009C167.873 154.195 168.23 154.456 168.542 154.792V149.743H170.144ZM11.5819 191.447C11.5819 191.075 11.5279 190.736 11.4199 190.43C11.3179 190.118 11.1649 189.851 10.9609 189.629C10.7629 189.401 10.5199 189.227 10.2319 189.107C9.94394 188.981 9.61694 188.918 9.25094 188.918C8.48294 188.918 7.87394 189.143 7.42394 189.593C6.97994 190.037 6.70394 190.655 6.59594 191.447H11.5819ZM12.8779 195.722C12.6799 195.962 12.4429 196.172 12.1669 196.352C11.8909 196.526 11.5939 196.67 11.2759 196.784C10.9639 196.898 10.6399 196.982 10.3039 197.036C9.96794 197.096 9.63494 197.126 9.30494 197.126C8.67494 197.126 8.09294 197.021 7.55894 196.811C7.03094 196.595 6.57194 196.283 6.18194 195.875C5.79794 195.461 5.49794 194.951 5.28194 194.345C5.06594 193.739 4.95794 193.043 4.95794 192.257C4.95794 191.621 5.05394 191.027 5.24594 190.475C5.44394 189.923 5.72594 189.446 6.09194 189.044C6.45794 188.636 6.90494 188.318 7.43294 188.09C7.96094 187.856 8.55494 187.739 9.21494 187.739C9.76094 187.739 10.2649 187.832 10.7269 188.018C11.1949 188.198 11.5969 188.462 11.9329 188.81C12.2749 189.152 12.5419 189.578 12.7339 190.088C12.9259 190.592 13.0219 191.168 13.0219 191.816C13.0219 192.068 12.9949 192.236 12.9409 192.32C12.8869 192.404 12.7849 192.446 12.6349 192.446H6.54194C6.55994 193.022 6.63794 193.523 6.77594 193.949C6.91994 194.375 7.11794 194.732 7.36994 195.02C7.62194 195.302 7.92194 195.515 8.26994 195.659C8.61794 195.797 9.00794 195.866 9.43994 195.866C9.84194 195.866 10.1869 195.821 10.4749 195.731C10.7689 195.635 11.0209 195.533 11.2309 195.425C11.4409 195.317 11.6149 195.218 11.7529 195.128C11.8969 195.032 12.0199 194.984 12.1219 194.984C12.2539 194.984 12.3559 195.035 12.4279 195.137L12.8779 195.722ZM22.6083 187.883L18.8913 197H17.4513L13.7343 187.883H15.0393C15.1713 187.883 15.2793 187.916 15.3633 187.982C15.4473 188.048 15.5043 188.126 15.5343 188.216L17.8473 194.084C17.9193 194.306 17.9823 194.522 18.0363 194.732C18.0903 194.942 18.1413 195.152 18.1893 195.362C18.2373 195.152 18.2883 194.942 18.3423 194.732C18.3963 194.522 18.4623 194.306 18.5403 194.084L20.8803 188.216C20.9163 188.12 20.9763 188.042 21.0603 187.982C21.1443 187.916 21.2433 187.883 21.3573 187.883H22.6083ZM29.9335 191.447C29.9335 191.075 29.8795 190.736 29.7715 190.43C29.6695 190.118 29.5165 189.851 29.3125 189.629C29.1145 189.401 28.8715 189.227 28.5835 189.107C28.2955 188.981 27.9685 188.918 27.6025 188.918C26.8345 188.918 26.2255 189.143 25.7755 189.593C25.3315 190.037 25.0555 190.655 24.9475 191.447H29.9335ZM31.2295 195.722C31.0315 195.962 30.7945 196.172 30.5185 196.352C30.2425 196.526 29.9455 196.67 29.6275 196.784C29.3155 196.898 28.9915 196.982 28.6555 197.036C28.3195 197.096 27.9865 197.126 27.6565 197.126C27.0265 197.126 26.4445 197.021 25.9105 196.811C25.3825 196.595 24.9235 196.283 24.5335 195.875C24.1495 195.461 23.8495 194.951 23.6335 194.345C23.4175 193.739 23.3095 193.043 23.3095 192.257C23.3095 191.621 23.4055 191.027 23.5975 190.475C23.7955 189.923 24.0775 189.446 24.4435 189.044C24.8095 188.636 25.2565 188.318 25.7845 188.09C26.3125 187.856 26.9065 187.739 27.5665 187.739C28.1125 187.739 28.6165 187.832 29.0785 188.018C29.5465 188.198 29.9485 188.462 30.2845 188.81C30.6265 189.152 30.8935 189.578 31.0855 190.088C31.2775 190.592 31.3735 191.168 31.3735 191.816C31.3735 192.068 31.3465 192.236 31.2925 192.32C31.2385 192.404 31.1365 192.446 30.9865 192.446H24.8935C24.9115 193.022 24.9895 193.523 25.1275 193.949C25.2715 194.375 25.4695 194.732 25.7215 195.02C25.9735 195.302 26.2735 195.515 26.6215 195.659C26.9695 195.797 27.3595 195.866 27.7915 195.866C28.1935 195.866 28.5385 195.821 28.8265 195.731C29.1205 195.635 29.3725 195.533 29.5825 195.425C29.7925 195.317 29.9665 195.218 30.1045 195.128C30.2485 195.032 30.3715 194.984 30.4735 194.984C30.6055 194.984 30.7075 195.035 30.7795 195.137L31.2295 195.722ZM34.8533 189.206C35.0513 188.984 35.2613 188.783 35.4833 188.603C35.7053 188.423 35.9393 188.27 36.1853 188.144C36.4373 188.012 36.7013 187.913 36.9773 187.847C37.2593 187.775 37.5623 187.739 37.8863 187.739C38.3843 187.739 38.8223 187.823 39.2003 187.991C39.5843 188.153 39.9023 188.387 40.1543 188.693C40.4123 188.993 40.6073 189.356 40.7393 189.782C40.8713 190.208 40.9373 190.679 40.9373 191.195V197H39.3263V191.195C39.3263 190.505 39.1673 189.971 38.8493 189.593C38.5373 189.209 38.0603 189.017 37.4183 189.017C36.9443 189.017 36.5003 189.131 36.0863 189.359C35.6783 189.587 35.3003 189.896 34.9523 190.286V197H33.3413V187.883H34.3043C34.5323 187.883 34.6733 187.994 34.7273 188.216L34.8533 189.206ZM46.0543 197.144C45.3343 197.144 44.7793 196.943 44.3893 196.541C44.0053 196.139 43.8133 195.56 43.8133 194.804V189.224H42.7153C42.6193 189.224 42.5383 189.197 42.4723 189.143C42.4063 189.083 42.3733 188.993 42.3733 188.873V188.234L43.8673 188.045L44.2363 185.228C44.2543 185.138 44.2933 185.066 44.3533 185.012C44.4193 184.952 44.5033 184.922 44.6053 184.922H45.4153V188.063H48.0523V189.224H45.4153V194.696C45.4153 195.08 45.5083 195.365 45.6943 195.551C45.8803 195.737 46.1203 195.83 46.4143 195.83C46.5823 195.83 46.7263 195.809 46.8463 195.767C46.9723 195.719 47.0803 195.668 47.1703 195.614C47.2603 195.56 47.3353 195.512 47.3953 195.47C47.4613 195.422 47.5183 195.398 47.5663 195.398C47.6503 195.398 47.7253 195.449 47.7913 195.551L48.2593 196.316C47.9833 196.574 47.6503 196.778 47.2603 196.928C46.8703 197.072 46.4683 197.144 46.0543 197.144ZM55.0165 189.386C54.9445 189.518 54.8335 189.584 54.6835 189.584C54.5935 189.584 54.4915 189.551 54.3775 189.485C54.2635 189.419 54.1225 189.347 53.9545 189.269C53.7925 189.185 53.5975 189.11 53.3695 189.044C53.1415 188.972 52.8715 188.936 52.5595 188.936C52.2895 188.936 52.0465 188.972 51.8305 189.044C51.6145 189.11 51.4285 189.203 51.2725 189.323C51.1225 189.443 51.0055 189.584 50.9215 189.746C50.8435 189.902 50.8045 190.073 50.8045 190.259C50.8045 190.493 50.8705 190.688 51.0025 190.844C51.1405 191 51.3205 191.135 51.5425 191.249C51.7645 191.363 52.0165 191.465 52.2985 191.555C52.5805 191.639 52.8685 191.732 53.1625 191.834C53.4625 191.93 53.7535 192.038 54.0355 192.158C54.3175 192.278 54.5695 192.428 54.7915 192.608C55.0135 192.788 55.1905 193.01 55.3225 193.274C55.4605 193.532 55.5295 193.844 55.5295 194.21C55.5295 194.63 55.4545 195.02 55.3045 195.38C55.1545 195.734 54.9325 196.043 54.6385 196.307C54.3445 196.565 53.9845 196.769 53.5585 196.919C53.1325 197.069 52.6405 197.144 52.0825 197.144C51.4465 197.144 50.8705 197.042 50.3545 196.838C49.8385 196.628 49.4005 196.361 49.0405 196.037L49.4185 195.425C49.4665 195.347 49.5235 195.287 49.5895 195.245C49.6555 195.203 49.7395 195.182 49.8415 195.182C49.9495 195.182 50.0635 195.224 50.1835 195.308C50.3035 195.392 50.4475 195.485 50.6155 195.587C50.7895 195.689 50.9995 195.782 51.2455 195.866C51.4915 195.95 51.7975 195.992 52.1635 195.992C52.4755 195.992 52.7485 195.953 52.9825 195.875C53.2165 195.791 53.4115 195.68 53.5675 195.542C53.7235 195.404 53.8375 195.245 53.9095 195.065C53.9875 194.885 54.0265 194.693 54.0265 194.489C54.0265 194.237 53.9575 194.03 53.8195 193.868C53.6875 193.7 53.5105 193.559 53.2885 193.445C53.0665 193.325 52.8115 193.223 52.5235 193.139C52.2415 193.049 51.9505 192.956 51.6505 192.86C51.3565 192.764 51.0655 192.656 50.7775 192.536C50.4955 192.41 50.2435 192.254 50.0215 192.068C49.7995 191.882 49.6195 191.654 49.4815 191.384C49.3495 191.108 49.2835 190.775 49.2835 190.385C49.2835 190.037 49.3555 189.704 49.4995 189.386C49.6435 189.062 49.8535 188.78 50.1295 188.54C50.4055 188.294 50.7445 188.099 51.1465 187.955C51.5485 187.811 52.0075 187.739 52.5235 187.739C53.1235 187.739 53.6605 187.835 54.1345 188.027C54.6145 188.213 55.0285 188.471 55.3765 188.801L55.0165 189.386ZM74.3029 187.883L71.3509 197H70.0819C69.9259 197 69.8179 196.898 69.7579 196.694L67.7419 190.511C67.6939 190.373 67.6549 190.235 67.6249 190.097C67.5949 189.953 67.5649 189.812 67.5349 189.674C67.5049 189.812 67.4749 189.953 67.4449 190.097C67.4149 190.235 67.3759 190.376 67.3279 190.52L65.2759 196.694C65.2219 196.898 65.1019 197 64.9159 197H63.7099L60.7579 187.883H62.0179C62.1439 187.883 62.2489 187.916 62.3329 187.982C62.4229 188.048 62.4829 188.126 62.5129 188.216L64.2589 194.084C64.3609 194.516 64.4419 194.924 64.5019 195.308C64.5559 195.11 64.6099 194.909 64.6639 194.705C64.7239 194.501 64.7869 194.294 64.8529 194.084L66.7789 188.18C66.8089 188.09 66.8599 188.015 66.9319 187.955C67.0099 187.895 67.1029 187.865 67.2109 187.865H67.9129C68.0329 187.865 68.1319 187.895 68.2099 187.955C68.2879 188.015 68.3419 188.09 68.3719 188.18L70.2529 194.084C70.3189 194.294 70.3789 194.501 70.4329 194.705C70.4869 194.909 70.5379 195.11 70.5859 195.308C70.6159 195.11 70.6519 194.912 70.6939 194.714C70.7419 194.51 70.7929 194.3 70.8469 194.084L72.6289 188.216C72.6589 188.12 72.7159 188.042 72.7999 187.982C72.8839 187.916 72.9829 187.883 73.0969 187.883H74.3029ZM77.4738 189.098C77.8638 188.684 78.2958 188.354 78.7698 188.108C79.2438 187.862 79.7898 187.739 80.4078 187.739C80.9058 187.739 81.3438 187.823 81.7218 187.991C82.1058 188.153 82.4238 188.387 82.6758 188.693C82.9338 188.993 83.1288 189.356 83.2608 189.782C83.3928 190.208 83.4588 190.679 83.4588 191.195V197H81.8478V191.195C81.8478 190.505 81.6888 189.971 81.3708 189.593C81.0588 189.209 80.5818 189.017 79.9398 189.017C79.4658 189.017 79.0218 189.131 78.6078 189.359C78.1998 189.587 77.8218 189.896 77.4738 190.286V197H75.8628V183.743H77.4738V189.098ZM92.0019 191.447C92.0019 191.075 91.9479 190.736 91.8399 190.43C91.7379 190.118 91.5849 189.851 91.3809 189.629C91.1829 189.401 90.9399 189.227 90.6519 189.107C90.3639 188.981 90.0369 188.918 89.6709 188.918C88.9029 188.918 88.2939 189.143 87.8439 189.593C87.3999 190.037 87.1239 190.655 87.0159 191.447H92.0019ZM93.2979 195.722C93.0999 195.962 92.8629 196.172 92.5869 196.352C92.3109 196.526 92.0139 196.67 91.6959 196.784C91.3839 196.898 91.0599 196.982 90.7239 197.036C90.3879 197.096 90.0549 197.126 89.7249 197.126C89.0949 197.126 88.5129 197.021 87.9789 196.811C87.4509 196.595 86.9919 196.283 86.6019 195.875C86.2179 195.461 85.9179 194.951 85.7019 194.345C85.4859 193.739 85.3779 193.043 85.3779 192.257C85.3779 191.621 85.4739 191.027 85.6659 190.475C85.8639 189.923 86.1459 189.446 86.5119 189.044C86.8779 188.636 87.3249 188.318 87.8529 188.09C88.3809 187.856 88.9749 187.739 89.6349 187.739C90.1809 187.739 90.6849 187.832 91.1469 188.018C91.6149 188.198 92.0169 188.462 92.3529 188.81C92.6949 189.152 92.9619 189.578 93.1539 190.088C93.3459 190.592 93.4419 191.168 93.4419 191.816C93.4419 192.068 93.4149 192.236 93.3609 192.32C93.3069 192.404 93.2049 192.446 93.0549 192.446H86.9619C86.9799 193.022 87.0579 193.523 87.1959 193.949C87.3399 194.375 87.5379 194.732 87.7899 195.02C88.0419 195.302 88.3419 195.515 88.6899 195.659C89.0379 195.797 89.4279 195.866 89.8599 195.866C90.2619 195.866 90.6069 195.821 90.8949 195.731C91.1889 195.635 91.4409 195.533 91.6509 195.425C91.8609 195.317 92.0349 195.218 92.1729 195.128C92.3169 195.032 92.4399 194.984 92.5419 194.984C92.6739 194.984 92.7759 195.035 92.8479 195.137L93.2979 195.722ZM96.9216 189.206C97.1196 188.984 97.3296 188.783 97.5516 188.603C97.7736 188.423 98.0076 188.27 98.2536 188.144C98.5056 188.012 98.7696 187.913 99.0456 187.847C99.3276 187.775 99.6306 187.739 99.9546 187.739C100.453 187.739 100.891 187.823 101.269 187.991C101.653 188.153 101.971 188.387 102.223 188.693C102.481 188.993 102.676 189.356 102.808 189.782C102.94 190.208 103.006 190.679 103.006 191.195V197H101.395V191.195C101.395 190.505 101.236 189.971 100.918 189.593C100.606 189.209 100.129 189.017 99.4866 189.017C99.0126 189.017 98.5686 189.131 98.1546 189.359C97.7466 189.587 97.3686 189.896 97.0206 190.286V197H95.4096V187.883H96.3726C96.6006 187.883 96.7416 187.994 96.7956 188.216L96.9216 189.206ZM115.362 189.386C115.29 189.518 115.179 189.584 115.029 189.584C114.939 189.584 114.837 189.551 114.723 189.485C114.609 189.419 114.468 189.347 114.3 189.269C114.138 189.185 113.943 189.11 113.715 189.044C113.487 188.972 113.217 188.936 112.905 188.936C112.635 188.936 112.392 188.972 112.176 189.044C111.96 189.11 111.774 189.203 111.618 189.323C111.468 189.443 111.351 189.584 111.267 189.746C111.189 189.902 111.15 190.073 111.15 190.259C111.15 190.493 111.216 190.688 111.348 190.844C111.486 191 111.666 191.135 111.888 191.249C112.11 191.363 112.362 191.465 112.644 191.555C112.926 191.639 113.214 191.732 113.508 191.834C113.808 191.93 114.099 192.038 114.381 192.158C114.663 192.278 114.915 192.428 115.137 192.608C115.359 192.788 115.536 193.01 115.668 193.274C115.806 193.532 115.875 193.844 115.875 194.21C115.875 194.63 115.8 195.02 115.65 195.38C115.5 195.734 115.278 196.043 114.984 196.307C114.69 196.565 114.33 196.769 113.904 196.919C113.478 197.069 112.986 197.144 112.428 197.144C111.792 197.144 111.216 197.042 110.7 196.838C110.184 196.628 109.746 196.361 109.386 196.037L109.764 195.425C109.812 195.347 109.869 195.287 109.935 195.245C110.001 195.203 110.085 195.182 110.187 195.182C110.295 195.182 110.409 195.224 110.529 195.308C110.649 195.392 110.793 195.485 110.961 195.587C111.135 195.689 111.345 195.782 111.591 195.866C111.837 195.95 112.143 195.992 112.509 195.992C112.821 195.992 113.094 195.953 113.328 195.875C113.562 195.791 113.757 195.68 113.913 195.542C114.069 195.404 114.183 195.245 114.255 195.065C114.333 194.885 114.372 194.693 114.372 194.489C114.372 194.237 114.303 194.03 114.165 193.868C114.033 193.7 113.856 193.559 113.634 193.445C113.412 193.325 113.157 193.223 112.869 193.139C112.587 193.049 112.296 192.956 111.996 192.86C111.702 192.764 111.411 192.656 111.123 192.536C110.841 192.41 110.589 192.254 110.367 192.068C110.145 191.882 109.965 191.654 109.827 191.384C109.695 191.108 109.629 190.775 109.629 190.385C109.629 190.037 109.701 189.704 109.845 189.386C109.989 189.062 110.199 188.78 110.475 188.54C110.751 188.294 111.09 188.099 111.492 187.955C111.894 187.811 112.353 187.739 112.869 187.739C113.469 187.739 114.006 187.835 114.48 188.027C114.96 188.213 115.374 188.471 115.722 188.801L115.362 189.386ZM124.184 189.503C124.136 189.569 124.088 189.62 124.04 189.656C123.992 189.692 123.926 189.71 123.842 189.71C123.752 189.71 123.653 189.674 123.545 189.602C123.437 189.524 123.302 189.44 123.14 189.35C122.984 189.26 122.789 189.179 122.555 189.107C122.327 189.029 122.045 188.99 121.709 188.99C121.259 188.99 120.863 189.071 120.521 189.233C120.179 189.389 119.891 189.617 119.657 189.917C119.429 190.217 119.255 190.58 119.135 191.006C119.021 191.432 118.964 191.909 118.964 192.437C118.964 192.989 119.027 193.481 119.153 193.913C119.279 194.339 119.456 194.699 119.684 194.993C119.918 195.281 120.197 195.503 120.521 195.659C120.851 195.809 121.22 195.884 121.628 195.884C122.018 195.884 122.339 195.839 122.591 195.749C122.843 195.653 123.05 195.548 123.212 195.434C123.38 195.32 123.518 195.218 123.626 195.128C123.74 195.032 123.851 194.984 123.959 194.984C124.091 194.984 124.193 195.035 124.265 195.137L124.715 195.722C124.517 195.968 124.292 196.178 124.04 196.352C123.788 196.526 123.515 196.673 123.221 196.793C122.933 196.907 122.63 196.991 122.312 197.045C121.994 197.099 121.67 197.126 121.34 197.126C120.77 197.126 120.239 197.021 119.747 196.811C119.261 196.601 118.838 196.298 118.478 195.902C118.118 195.5 117.836 195.008 117.632 194.426C117.428 193.844 117.326 193.181 117.326 192.437C117.326 191.759 117.419 191.132 117.605 190.556C117.797 189.98 118.073 189.485 118.433 189.071C118.799 188.651 119.246 188.324 119.774 188.09C120.308 187.856 120.92 187.739 121.61 187.739C122.252 187.739 122.816 187.844 123.302 188.054C123.794 188.258 124.229 188.549 124.607 188.927L124.184 189.503ZM128.046 189.098C128.436 188.684 128.868 188.354 129.342 188.108C129.816 187.862 130.362 187.739 130.98 187.739C131.478 187.739 131.916 187.823 132.294 187.991C132.678 188.153 132.996 188.387 133.248 188.693C133.506 188.993 133.701 189.356 133.833 189.782C133.965 190.208 134.031 190.679 134.031 191.195V197H132.42V191.195C132.42 190.505 132.261 189.971 131.943 189.593C131.631 189.209 131.154 189.017 130.512 189.017C130.038 189.017 129.594 189.131 129.18 189.359C128.772 189.587 128.394 189.896 128.046 190.286V197H126.435V183.743H128.046V189.098ZM142.574 191.447C142.574 191.075 142.52 190.736 142.412 190.43C142.31 190.118 142.157 189.851 141.953 189.629C141.755 189.401 141.512 189.227 141.224 189.107C140.936 188.981 140.609 188.918 140.243 188.918C139.475 188.918 138.866 189.143 138.416 189.593C137.972 190.037 137.696 190.655 137.588 191.447H142.574ZM143.87 195.722C143.672 195.962 143.435 196.172 143.159 196.352C142.883 196.526 142.586 196.67 142.268 196.784C141.956 196.898 141.632 196.982 141.296 197.036C140.96 197.096 140.627 197.126 140.297 197.126C139.667 197.126 139.085 197.021 138.551 196.811C138.023 196.595 137.564 196.283 137.174 195.875C136.79 195.461 136.49 194.951 136.274 194.345C136.058 193.739 135.95 193.043 135.95 192.257C135.95 191.621 136.046 191.027 136.238 190.475C136.436 189.923 136.718 189.446 137.084 189.044C137.45 188.636 137.897 188.318 138.425 188.09C138.953 187.856 139.547 187.739 140.207 187.739C140.753 187.739 141.257 187.832 141.719 188.018C142.187 188.198 142.589 188.462 142.925 188.81C143.267 189.152 143.534 189.578 143.726 190.088C143.918 190.592 144.014 191.168 144.014 191.816C144.014 192.068 143.987 192.236 143.933 192.32C143.879 192.404 143.777 192.446 143.627 192.446H137.534C137.552 193.022 137.63 193.523 137.768 193.949C137.912 194.375 138.11 194.732 138.362 195.02C138.614 195.302 138.914 195.515 139.262 195.659C139.61 195.797 140 195.866 140.432 195.866C140.834 195.866 141.179 195.821 141.467 195.731C141.761 195.635 142.013 195.533 142.223 195.425C142.433 195.317 142.607 195.218 142.745 195.128C142.889 195.032 143.012 194.984 143.114 194.984C143.246 194.984 143.348 195.035 143.42 195.137L143.87 195.722ZM151.922 190.052C151.622 189.65 151.298 189.371 150.95 189.215C150.602 189.053 150.212 188.972 149.78 188.972C148.934 188.972 148.283 189.275 147.827 189.881C147.371 190.487 147.143 191.351 147.143 192.473C147.143 193.067 147.194 193.577 147.296 194.003C147.398 194.423 147.548 194.771 147.746 195.047C147.944 195.317 148.187 195.515 148.475 195.641C148.763 195.767 149.09 195.83 149.456 195.83C149.984 195.83 150.443 195.71 150.833 195.47C151.229 195.23 151.592 194.891 151.922 194.453V190.052ZM153.524 183.743V197H152.57C152.342 197 152.198 196.889 152.138 196.667L151.994 195.56C151.604 196.028 151.16 196.406 150.662 196.694C150.164 196.982 149.588 197.126 148.934 197.126C148.412 197.126 147.938 197.027 147.512 196.829C147.086 196.625 146.723 196.328 146.423 195.938C146.123 195.548 145.892 195.062 145.73 194.48C145.568 193.898 145.487 193.229 145.487 192.473C145.487 191.801 145.577 191.177 145.757 190.601C145.937 190.019 146.195 189.515 146.531 189.089C146.867 188.663 147.278 188.33 147.764 188.09C148.256 187.844 148.808 187.721 149.42 187.721C149.978 187.721 150.455 187.817 150.851 188.009C151.253 188.195 151.61 188.456 151.922 188.792V183.743H153.524ZM163.551 187.883V197H162.597C162.369 197 162.225 196.889 162.165 196.667L162.039 195.686C161.643 196.124 161.199 196.478 160.707 196.748C160.215 197.012 159.651 197.144 159.015 197.144C158.517 197.144 158.076 197.063 157.692 196.901C157.314 196.733 156.996 196.499 156.738 196.199C156.48 195.899 156.285 195.536 156.153 195.11C156.027 194.684 155.964 194.213 155.964 193.697V187.883H157.566V193.697C157.566 194.387 157.722 194.921 158.034 195.299C158.352 195.677 158.835 195.866 159.483 195.866C159.957 195.866 160.398 195.755 160.806 195.533C161.22 195.305 161.601 194.993 161.949 194.597V187.883H163.551ZM167.747 183.743V197H166.145V183.743H167.747ZM172.037 187.883V197H170.435V187.883H172.037ZM172.379 185.021C172.379 185.177 172.346 185.324 172.28 185.462C172.22 185.594 172.136 185.714 172.028 185.822C171.926 185.924 171.803 186.005 171.659 186.065C171.521 186.125 171.374 186.155 171.218 186.155C171.062 186.155 170.915 186.125 170.777 186.065C170.645 186.005 170.528 185.924 170.426 185.822C170.324 185.714 170.243 185.594 170.183 185.462C170.123 185.324 170.093 185.177 170.093 185.021C170.093 184.865 170.123 184.718 170.183 184.58C170.243 184.436 170.324 184.313 170.426 184.211C170.528 184.103 170.645 184.019 170.777 183.959C170.915 183.899 171.062 183.869 171.218 183.869C171.374 183.869 171.521 183.899 171.659 183.959C171.803 184.019 171.926 184.103 172.028 184.211C172.136 184.313 172.22 184.436 172.28 184.58C172.346 184.718 172.379 184.865 172.379 185.021ZM176.181 189.206C176.379 188.984 176.589 188.783 176.811 188.603C177.033 188.423 177.267 188.27 177.513 188.144C177.765 188.012 178.029 187.913 178.305 187.847C178.587 187.775 178.89 187.739 179.214 187.739C179.712 187.739 180.15 187.823 180.528 187.991C180.912 188.153 181.23 188.387 181.482 188.693C181.74 188.993 181.935 189.356 182.067 189.782C182.199 190.208 182.265 190.679 182.265 191.195V197H180.654V191.195C180.654 190.505 180.495 189.971 180.177 189.593C179.865 189.209 179.388 189.017 178.746 189.017C178.272 189.017 177.828 189.131 177.414 189.359C177.006 189.587 176.628 189.896 176.28 190.286V197H174.669V187.883H175.632C175.86 187.883 176.001 187.994 176.055 188.216L176.181 189.206ZM187.884 192.545C188.208 192.545 188.493 192.5 188.739 192.41C188.985 192.32 189.192 192.194 189.36 192.032C189.528 191.87 189.654 191.678 189.738 191.456C189.822 191.228 189.864 190.979 189.864 190.709C189.864 190.151 189.693 189.707 189.351 189.377C189.015 189.047 188.526 188.882 187.884 188.882C187.236 188.882 186.741 189.047 186.399 189.377C186.063 189.707 185.895 190.151 185.895 190.709C185.895 190.979 185.937 191.228 186.021 191.456C186.111 191.678 186.24 191.87 186.408 192.032C186.576 192.194 186.783 192.32 187.029 192.41C187.275 192.5 187.56 192.545 187.884 192.545ZM190.773 197.495C190.773 197.273 190.71 197.093 190.584 196.955C190.458 196.817 190.287 196.709 190.071 196.631C189.861 196.553 189.615 196.499 189.333 196.469C189.051 196.433 188.751 196.406 188.433 196.388C188.121 196.37 187.803 196.352 187.479 196.334C187.155 196.316 186.843 196.286 186.543 196.244C186.207 196.4 185.931 196.598 185.715 196.838C185.505 197.072 185.4 197.348 185.4 197.666C185.4 197.87 185.451 198.059 185.553 198.233C185.661 198.413 185.823 198.566 186.039 198.692C186.255 198.824 186.525 198.926 186.849 198.998C187.179 199.076 187.566 199.115 188.01 199.115C188.442 199.115 188.829 199.076 189.171 198.998C189.513 198.92 189.801 198.809 190.035 198.665C190.275 198.521 190.458 198.35 190.584 198.152C190.71 197.954 190.773 197.735 190.773 197.495ZM192.402 188.243V188.837C192.402 189.035 192.276 189.161 192.024 189.215L190.989 189.35C191.193 189.746 191.295 190.184 191.295 190.664C191.295 191.108 191.208 191.513 191.034 191.879C190.866 192.239 190.632 192.548 190.332 192.806C190.032 193.064 189.672 193.262 189.252 193.4C188.832 193.538 188.376 193.607 187.884 193.607C187.458 193.607 187.056 193.556 186.678 193.454C186.486 193.574 186.339 193.703 186.237 193.841C186.135 193.973 186.083 194.108 186.083 194.246C186.083 194.462 186.171 194.627 186.345 194.741C186.525 194.849 186.759 194.927 187.047 194.975C187.335 195.023 187.662 195.053 188.028 195.065C188.4 195.077 188.778 195.098 189.162 195.128C189.552 195.152 189.93 195.197 190.296 195.263C190.668 195.329 190.998 195.437 191.286 195.587C191.574 195.737 191.805 195.944 191.979 196.208C192.159 196.472 192.249 196.814 192.249 197.234C192.249 197.624 192.15 198.002 191.952 198.368C191.76 198.734 191.481 199.058 191.115 199.34C190.749 199.628 190.299 199.856 189.765 200.024C189.237 200.198 188.64 200.285 187.974 200.285C187.308 200.285 186.726 200.219 186.228 200.087C185.73 199.955 185.316 199.778 184.986 199.556C184.656 199.334 184.407 199.076 184.239 198.782C184.077 198.494 183.996 198.191 183.996 197.873C183.996 197.423 184.137 197.042 184.419 196.73C184.701 196.418 185.088 196.169 185.58 195.983C185.31 195.863 185.094 195.704 184.932 195.506C184.776 195.302 184.698 195.029 184.698 194.687C184.698 194.555 184.722 194.42 184.77 194.282C184.818 194.138 184.89 193.997 184.986 193.859C185.088 193.715 185.211 193.58 185.355 193.454C185.499 193.328 185.667 193.217 185.859 193.121C185.409 192.869 185.058 192.536 184.806 192.122C184.554 191.702 184.428 191.216 184.428 190.664C184.428 190.22 184.512 189.818 184.68 189.458C184.854 189.092 185.094 188.783 185.4 188.531C185.706 188.273 186.069 188.075 186.489 187.937C186.915 187.799 187.38 187.73 187.884 187.73C188.28 187.73 188.649 187.775 188.991 187.865C189.333 187.949 189.645 188.075 189.927 188.243H192.402ZM71.921 221.883V231H70.319V221.883H71.921ZM72.263 219.021C72.263 219.177 72.23 219.324 72.164 219.462C72.104 219.594 72.02 219.714 71.912 219.822C71.81 219.924 71.687 220.005 71.543 220.065C71.405 220.125 71.258 220.155 71.102 220.155C70.946 220.155 70.799 220.125 70.661 220.065C70.529 220.005 70.412 219.924 70.31 219.822C70.208 219.714 70.127 219.594 70.067 219.462C70.007 219.324 69.977 219.177 69.977 219.021C69.977 218.865 70.007 218.718 70.067 218.58C70.127 218.436 70.208 218.313 70.31 218.211C70.412 218.103 70.529 218.019 70.661 217.959C70.799 217.899 70.946 217.869 71.102 217.869C71.258 217.869 71.405 217.899 71.543 217.959C71.687 218.019 71.81 218.103 71.912 218.211C72.02 218.313 72.104 218.436 72.164 218.58C72.23 218.718 72.263 218.865 72.263 219.021ZM76.0652 223.206C76.2632 222.984 76.4732 222.783 76.6952 222.603C76.9172 222.423 77.1512 222.27 77.3972 222.144C77.6492 222.012 77.9132 221.913 78.1892 221.847C78.4712 221.775 78.7742 221.739 79.0982 221.739C79.5962 221.739 80.0342 221.823 80.4122 221.991C80.7962 222.153 81.1142 222.387 81.3662 222.693C81.6242 222.993 81.8192 223.356 81.9512 223.782C82.0832 224.208 82.1492 224.679 82.1492 225.195V231H80.5382V225.195C80.5382 224.505 80.3792 223.971 80.0612 223.593C79.7492 223.209 79.2722 223.017 78.6302 223.017C78.1562 223.017 77.7122 223.131 77.2982 223.359C76.8902 223.587 76.5122 223.896 76.1642 224.286V231H74.5532V221.883H75.5162C75.7442 221.883 75.8852 221.994 75.9392 222.216L76.0652 223.206ZM91.9948 231.144C91.2748 231.144 90.7198 230.943 90.3298 230.541C89.9458 230.139 89.7538 229.56 89.7538 228.804V223.224H88.6558C88.5598 223.224 88.4788 223.197 88.4128 223.143C88.3468 223.083 88.3138 222.993 88.3138 222.873V222.234L89.8078 222.045L90.1768 219.228C90.1948 219.138 90.2338 219.066 90.2938 219.012C90.3598 218.952 90.4438 218.922 90.5458 218.922H91.3558V222.063H93.9928V223.224H91.3558V228.696C91.3558 229.08 91.4488 229.365 91.6348 229.551C91.8208 229.737 92.0608 229.83 92.3548 229.83C92.5228 229.83 92.6668 229.809 92.7868 229.767C92.9128 229.719 93.0208 229.668 93.1108 229.614C93.2008 229.56 93.2758 229.512 93.3358 229.47C93.4018 229.422 93.4588 229.398 93.5068 229.398C93.5908 229.398 93.6658 229.449 93.7318 229.551L94.1998 230.316C93.9238 230.574 93.5908 230.778 93.2008 230.928C92.8108 231.072 92.4088 231.144 91.9948 231.144ZM100.588 226.896C99.8499 226.92 99.2199 226.98 98.6979 227.076C98.1819 227.166 97.7589 227.286 97.4289 227.436C97.1049 227.586 96.8679 227.763 96.7179 227.967C96.5739 228.171 96.5019 228.399 96.5019 228.651C96.5019 228.891 96.5409 229.098 96.6189 229.272C96.6969 229.446 96.8019 229.59 96.9339 229.704C97.0719 229.812 97.2309 229.893 97.4109 229.947C97.5969 229.995 97.7949 230.019 98.0049 230.019C98.2869 230.019 98.5449 229.992 98.7789 229.938C99.0129 229.878 99.2319 229.794 99.4359 229.686C99.6459 229.578 99.8439 229.449 100.03 229.299C100.222 229.149 100.408 228.978 100.588 228.786V226.896ZM95.4129 223.17C95.9169 222.684 96.4599 222.321 97.0419 222.081C97.6239 221.841 98.2689 221.721 98.9769 221.721C99.4869 221.721 99.9399 221.805 100.336 221.973C100.732 222.141 101.065 222.375 101.335 222.675C101.605 222.975 101.809 223.338 101.947 223.764C102.085 224.19 102.154 224.658 102.154 225.168V231H101.443C101.287 231 101.167 230.976 101.083 230.928C100.999 230.874 100.933 230.772 100.885 230.622L100.705 229.758C100.465 229.98 100.231 230.178 100.003 230.352C99.7749 230.52 99.5349 230.664 99.2829 230.784C99.0309 230.898 98.7609 230.985 98.4729 231.045C98.1909 231.111 97.8759 231.144 97.5279 231.144C97.1739 231.144 96.8409 231.096 96.5289 231C96.2169 230.898 95.9439 230.748 95.7099 230.55C95.4819 230.352 95.2989 230.103 95.1609 229.803C95.0289 229.497 94.9629 229.137 94.9629 228.723C94.9629 228.363 95.0619 228.018 95.2599 227.688C95.4579 227.352 95.7789 227.055 96.2229 226.797C96.6669 226.539 97.2459 226.329 97.9599 226.167C98.6739 225.999 99.5499 225.903 100.588 225.879V225.168C100.588 224.46 100.435 223.926 100.129 223.566C99.8229 223.2 99.3759 223.017 98.7879 223.017C98.3919 223.017 98.0589 223.068 97.7889 223.17C97.5249 223.266 97.2939 223.377 97.0959 223.503C96.9039 223.623 96.7359 223.734 96.5919 223.836C96.4539 223.932 96.3159 223.98 96.1779 223.98C96.0699 223.98 95.9769 223.953 95.8989 223.899C95.8209 223.839 95.7549 223.767 95.7009 223.683L95.4129 223.17ZM109.904 223.386C109.832 223.518 109.721 223.584 109.571 223.584C109.481 223.584 109.379 223.551 109.265 223.485C109.151 223.419 109.01 223.347 108.842 223.269C108.68 223.185 108.485 223.11 108.257 223.044C108.029 222.972 107.759 222.936 107.447 222.936C107.177 222.936 106.934 222.972 106.718 223.044C106.502 223.11 106.316 223.203 106.16 223.323C106.01 223.443 105.893 223.584 105.809 223.746C105.731 223.902 105.692 224.073 105.692 224.259C105.692 224.493 105.758 224.688 105.89 224.844C106.028 225 106.208 225.135 106.43 225.249C106.652 225.363 106.904 225.465 107.186 225.555C107.468 225.639 107.756 225.732 108.05 225.834C108.35 225.93 108.641 226.038 108.923 226.158C109.205 226.278 109.457 226.428 109.679 226.608C109.901 226.788 110.078 227.01 110.21 227.274C110.348 227.532 110.417 227.844 110.417 228.21C110.417 228.63 110.342 229.02 110.192 229.38C110.042 229.734 109.82 230.043 109.526 230.307C109.232 230.565 108.872 230.769 108.446 230.919C108.02 231.069 107.528 231.144 106.97 231.144C106.334 231.144 105.758 231.042 105.242 230.838C104.726 230.628 104.288 230.361 103.928 230.037L104.306 229.425C104.354 229.347 104.411 229.287 104.477 229.245C104.543 229.203 104.627 229.182 104.729 229.182C104.837 229.182 104.951 229.224 105.071 229.308C105.191 229.392 105.335 229.485 105.503 229.587C105.677 229.689 105.887 229.782 106.133 229.866C106.379 229.95 106.685 229.992 107.051 229.992C107.363 229.992 107.636 229.953 107.87 229.875C108.104 229.791 108.299 229.68 108.455 229.542C108.611 229.404 108.725 229.245 108.797 229.065C108.875 228.885 108.914 228.693 108.914 228.489C108.914 228.237 108.845 228.03 108.707 227.868C108.575 227.7 108.398 227.559 108.176 227.445C107.954 227.325 107.699 227.223 107.411 227.139C107.129 227.049 106.838 226.956 106.538 226.86C106.244 226.764 105.953 226.656 105.665 226.536C105.383 226.41 105.131 226.254 104.909 226.068C104.687 225.882 104.507 225.654 104.369 225.384C104.237 225.108 104.171 224.775 104.171 224.385C104.171 224.037 104.243 223.704 104.387 223.386C104.531 223.062 104.741 222.78 105.017 222.54C105.293 222.294 105.632 222.099 106.034 221.955C106.436 221.811 106.895 221.739 107.411 221.739C108.011 221.739 108.548 221.835 109.022 222.027C109.502 222.213 109.916 222.471 110.264 222.801L109.904 223.386ZM113.992 217.743V225.546H114.406C114.526 225.546 114.625 225.531 114.703 225.501C114.787 225.465 114.874 225.396 114.964 225.294L117.844 222.207C117.928 222.105 118.015 222.027 118.105 221.973C118.201 221.913 118.327 221.883 118.483 221.883H119.932L116.575 225.456C116.413 225.66 116.239 225.819 116.053 225.933C116.161 226.005 116.257 226.089 116.341 226.185C116.431 226.275 116.515 226.38 116.593 226.5L120.157 231H118.726C118.588 231 118.468 230.979 118.366 230.937C118.27 230.889 118.186 230.805 118.114 230.685L115.117 226.95C115.027 226.824 114.937 226.743 114.847 226.707C114.763 226.665 114.631 226.644 114.451 226.644H113.992V231H112.381V217.743H113.992ZM126.832 223.386C126.76 223.518 126.649 223.584 126.499 223.584C126.409 223.584 126.307 223.551 126.193 223.485C126.079 223.419 125.938 223.347 125.77 223.269C125.608 223.185 125.413 223.11 125.185 223.044C124.957 222.972 124.687 222.936 124.375 222.936C124.105 222.936 123.862 222.972 123.646 223.044C123.43 223.11 123.244 223.203 123.088 223.323C122.938 223.443 122.821 223.584 122.737 223.746C122.659 223.902 122.62 224.073 122.62 224.259C122.62 224.493 122.686 224.688 122.818 224.844C122.956 225 123.136 225.135 123.358 225.249C123.58 225.363 123.832 225.465 124.114 225.555C124.396 225.639 124.684 225.732 124.978 225.834C125.278 225.93 125.569 226.038 125.851 226.158C126.133 226.278 126.385 226.428 126.607 226.608C126.829 226.788 127.006 227.01 127.138 227.274C127.276 227.532 127.345 227.844 127.345 228.21C127.345 228.63 127.27 229.02 127.12 229.38C126.97 229.734 126.748 230.043 126.454 230.307C126.16 230.565 125.8 230.769 125.374 230.919C124.948 231.069 124.456 231.144 123.898 231.144C123.262 231.144 122.686 231.042 122.17 230.838C121.654 230.628 121.216 230.361 120.856 230.037L121.234 229.425C121.282 229.347 121.339 229.287 121.405 229.245C121.471 229.203 121.555 229.182 121.657 229.182C121.765 229.182 121.879 229.224 121.999 229.308C122.119 229.392 122.263 229.485 122.431 229.587C122.605 229.689 122.815 229.782 123.061 229.866C123.307 229.95 123.613 229.992 123.979 229.992C124.291 229.992 124.564 229.953 124.798 229.875C125.032 229.791 125.227 229.68 125.383 229.542C125.539 229.404 125.653 229.245 125.725 229.065C125.803 228.885 125.842 228.693 125.842 228.489C125.842 228.237 125.773 228.03 125.635 227.868C125.503 227.7 125.326 227.559 125.104 227.445C124.882 227.325 124.627 227.223 124.339 227.139C124.057 227.049 123.766 226.956 123.466 226.86C123.172 226.764 122.881 226.656 122.593 226.536C122.311 226.41 122.059 226.254 121.837 226.068C121.615 225.882 121.435 225.654 121.297 225.384C121.165 225.108 121.099 224.775 121.099 224.385C121.099 224.037 121.171 223.704 121.315 223.386C121.459 223.062 121.669 222.78 121.945 222.54C122.221 222.294 122.56 222.099 122.962 221.955C123.364 221.811 123.823 221.739 124.339 221.739C124.939 221.739 125.476 221.835 125.95 222.027C126.43 222.213 126.844 222.471 127.192 222.801L126.832 223.386Z" fill="black"/>
</svg>
