<svg width="197" height="296" viewBox="0 0 197 296" fill="none" xmlns="http://www.w3.org/2000/svg">
<rect x="70" y="68.5" width="54" height="54" rx="2.5" fill="#F66700" stroke="#F66700"/>
<rect x="73.5" y="80" width="47" height="39" rx="3" fill="white"/>
<rect x="98.5" y="87" width="5" height="5" fill="#F66700"/>
<rect x="104.5" y="87" width="5" height="5" fill="#F66700"/>
<rect x="110.5" y="87" width="5" height="5" fill="#F66700"/>
<rect x="77.5" y="96.5" width="5" height="5" fill="#F66700"/>
<rect x="83.5" y="96.5" width="5" height="5" fill="#F66700"/>
<rect x="89.5" y="96.5" width="5" height="5" fill="#F66700"/>
<rect x="77.5" y="107" width="5" height="5" fill="#F66700"/>
<rect x="83.5" y="107" width="5" height="5" fill="#F66700"/>
<rect x="89.5" y="107" width="5" height="5" fill="#F66700"/>
<path d="M28.701 161.336C28.797 161.336 28.881 161.375 28.953 161.453L29.646 162.2C29.118 162.812 28.476 163.289 27.72 163.631C26.97 163.973 26.061 164.144 24.993 164.144C24.069 164.144 23.229 163.985 22.473 163.667C21.717 163.343 21.072 162.893 20.538 162.317C20.004 161.735 19.59 161.039 19.296 160.229C19.002 159.419 18.855 158.528 18.855 157.556C18.855 156.584 19.008 155.693 19.314 154.883C19.62 154.073 20.049 153.377 20.601 152.795C21.159 152.213 21.825 151.763 22.599 151.445C23.373 151.121 24.228 150.959 25.164 150.959C26.082 150.959 26.892 151.106 27.594 151.4C28.296 151.694 28.914 152.093 29.448 152.597L28.872 153.398C28.836 153.458 28.788 153.509 28.728 153.551C28.674 153.587 28.599 153.605 28.503 153.605C28.395 153.605 28.263 153.548 28.107 153.434C27.951 153.314 27.747 153.182 27.495 153.038C27.243 152.894 26.928 152.765 26.55 152.651C26.172 152.531 25.707 152.471 25.155 152.471C24.489 152.471 23.88 152.588 23.328 152.822C22.776 153.05 22.299 153.383 21.897 153.821C21.501 154.259 21.192 154.793 20.97 155.423C20.748 156.053 20.637 156.764 20.637 157.556C20.637 158.36 20.751 159.077 20.979 159.707C21.213 160.337 21.528 160.871 21.924 161.309C22.326 161.741 22.797 162.071 23.337 162.299C23.883 162.527 24.471 162.641 25.101 162.641C25.485 162.641 25.83 162.62 26.136 162.578C26.448 162.53 26.733 162.458 26.991 162.362C27.255 162.266 27.498 162.146 27.72 162.002C27.948 161.852 28.173 161.675 28.395 161.471C28.497 161.381 28.599 161.336 28.701 161.336ZM36.2334 159.896C35.4954 159.92 34.8654 159.98 34.3434 160.076C33.8274 160.166 33.4044 160.286 33.0744 160.436C32.7504 160.586 32.5134 160.763 32.3634 160.967C32.2194 161.171 32.1474 161.399 32.1474 161.651C32.1474 161.891 32.1864 162.098 32.2644 162.272C32.3424 162.446 32.4474 162.59 32.5794 162.704C32.7174 162.812 32.8764 162.893 33.0564 162.947C33.2424 162.995 33.4404 163.019 33.6504 163.019C33.9324 163.019 34.1904 162.992 34.4244 162.938C34.6584 162.878 34.8774 162.794 35.0814 162.686C35.2914 162.578 35.4894 162.449 35.6754 162.299C35.8674 162.149 36.0534 161.978 36.2334 161.786V159.896ZM31.0584 156.17C31.5624 155.684 32.1054 155.321 32.6874 155.081C33.2694 154.841 33.9144 154.721 34.6224 154.721C35.1324 154.721 35.5854 154.805 35.9814 154.973C36.3774 155.141 36.7104 155.375 36.9804 155.675C37.2504 155.975 37.4544 156.338 37.5924 156.764C37.7304 157.19 37.7994 157.658 37.7994 158.168V164H37.0884C36.9324 164 36.8124 163.976 36.7284 163.928C36.6444 163.874 36.5784 163.772 36.5304 163.622L36.3504 162.758C36.1104 162.98 35.8764 163.178 35.6484 163.352C35.4204 163.52 35.1804 163.664 34.9284 163.784C34.6764 163.898 34.4064 163.985 34.1184 164.045C33.8364 164.111 33.5214 164.144 33.1734 164.144C32.8194 164.144 32.4864 164.096 32.1744 164C31.8624 163.898 31.5894 163.748 31.3554 163.55C31.1274 163.352 30.9444 163.103 30.8064 162.803C30.6744 162.497 30.6084 162.137 30.6084 161.723C30.6084 161.363 30.7074 161.018 30.9054 160.688C31.1034 160.352 31.4244 160.055 31.8684 159.797C32.3124 159.539 32.8914 159.329 33.6054 159.167C34.3194 158.999 35.1954 158.903 36.2334 158.879V158.168C36.2334 157.46 36.0804 156.926 35.7744 156.566C35.4684 156.2 35.0214 156.017 34.4334 156.017C34.0374 156.017 33.7044 156.068 33.4344 156.17C33.1704 156.266 32.9394 156.377 32.7414 156.503C32.5494 156.623 32.3814 156.734 32.2374 156.836C32.0994 156.932 31.9614 156.98 31.8234 156.98C31.7154 156.98 31.6224 156.953 31.5444 156.899C31.4664 156.839 31.4004 156.767 31.3464 156.683L31.0584 156.17ZM41.8957 150.743V164H40.2937V150.743H41.8957ZM50.5956 158.447C50.5956 158.075 50.5416 157.736 50.4336 157.43C50.3316 157.118 50.1786 156.851 49.9746 156.629C49.7766 156.401 49.5336 156.227 49.2456 156.107C48.9576 155.981 48.6306 155.918 48.2646 155.918C47.4966 155.918 46.8876 156.143 46.4376 156.593C45.9936 157.037 45.7176 157.655 45.6096 158.447H50.5956ZM51.8916 162.722C51.6936 162.962 51.4566 163.172 51.1806 163.352C50.9046 163.526 50.6076 163.67 50.2896 163.784C49.9776 163.898 49.6536 163.982 49.3176 164.036C48.9816 164.096 48.6486 164.126 48.3186 164.126C47.6886 164.126 47.1066 164.021 46.5726 163.811C46.0446 163.595 45.5856 163.283 45.1956 162.875C44.8116 162.461 44.5116 161.951 44.2956 161.345C44.0796 160.739 43.9716 160.043 43.9716 159.257C43.9716 158.621 44.0676 158.027 44.2596 157.475C44.4576 156.923 44.7396 156.446 45.1056 156.044C45.4716 155.636 45.9186 155.318 46.4466 155.09C46.9746 154.856 47.5686 154.739 48.2286 154.739C48.7746 154.739 49.2786 154.832 49.7406 155.018C50.2086 155.198 50.6106 155.462 50.9466 155.81C51.2886 156.152 51.5556 156.578 51.7476 157.088C51.9396 157.592 52.0356 158.168 52.0356 158.816C52.0356 159.068 52.0086 159.236 51.9546 159.32C51.9006 159.404 51.7986 159.446 51.6486 159.446H45.5556C45.5736 160.022 45.6516 160.523 45.7896 160.949C45.9336 161.375 46.1316 161.732 46.3836 162.02C46.6356 162.302 46.9356 162.515 47.2836 162.659C47.6316 162.797 48.0216 162.866 48.4536 162.866C48.8556 162.866 49.2006 162.821 49.4886 162.731C49.7826 162.635 50.0346 162.533 50.2446 162.425C50.4546 162.317 50.6286 162.218 50.7666 162.128C50.9106 162.032 51.0336 161.984 51.1356 161.984C51.2676 161.984 51.3696 162.035 51.4416 162.137L51.8916 162.722ZM55.5154 156.206C55.7134 155.984 55.9234 155.783 56.1454 155.603C56.3674 155.423 56.6014 155.27 56.8474 155.144C57.0994 155.012 57.3634 154.913 57.6394 154.847C57.9214 154.775 58.2244 154.739 58.5484 154.739C59.0464 154.739 59.4844 154.823 59.8624 154.991C60.2464 155.153 60.5644 155.387 60.8164 155.693C61.0744 155.993 61.2694 156.356 61.4014 156.782C61.5334 157.208 61.5994 157.679 61.5994 158.195V164H59.9884V158.195C59.9884 157.505 59.8294 156.971 59.5114 156.593C59.1994 156.209 58.7224 156.017 58.0804 156.017C57.6064 156.017 57.1624 156.131 56.7484 156.359C56.3404 156.587 55.9624 156.896 55.6144 157.286V164H54.0034V154.883H54.9664C55.1944 154.883 55.3354 154.994 55.3894 155.216L55.5154 156.206ZM69.9805 157.052C69.6805 156.65 69.3565 156.371 69.0085 156.215C68.6605 156.053 68.2705 155.972 67.8385 155.972C66.9925 155.972 66.3415 156.275 65.8855 156.881C65.4295 157.487 65.2015 158.351 65.2015 159.473C65.2015 160.067 65.2525 160.577 65.3545 161.003C65.4565 161.423 65.6065 161.771 65.8045 162.047C66.0025 162.317 66.2455 162.515 66.5335 162.641C66.8215 162.767 67.1485 162.83 67.5145 162.83C68.0425 162.83 68.5015 162.71 68.8915 162.47C69.2875 162.23 69.6505 161.891 69.9805 161.453V157.052ZM71.5825 150.743V164H70.6285C70.4005 164 70.2565 163.889 70.1965 163.667L70.0525 162.56C69.6625 163.028 69.2185 163.406 68.7205 163.694C68.2225 163.982 67.6465 164.126 66.9925 164.126C66.4705 164.126 65.9965 164.027 65.5705 163.829C65.1445 163.625 64.7815 163.328 64.4815 162.938C64.1815 162.548 63.9505 162.062 63.7885 161.48C63.6265 160.898 63.5455 160.229 63.5455 159.473C63.5455 158.801 63.6355 158.177 63.8155 157.601C63.9955 157.019 64.2535 156.515 64.5895 156.089C64.9255 155.663 65.3365 155.33 65.8225 155.09C66.3145 154.844 66.8665 154.721 67.4785 154.721C68.0365 154.721 68.5135 154.817 68.9095 155.009C69.3115 155.195 69.6685 155.456 69.9805 155.792V150.743H71.5825ZM79.0538 159.896C78.3158 159.92 77.6858 159.98 77.1638 160.076C76.6478 160.166 76.2248 160.286 75.8948 160.436C75.5708 160.586 75.3338 160.763 75.1838 160.967C75.0398 161.171 74.9678 161.399 74.9678 161.651C74.9678 161.891 75.0068 162.098 75.0848 162.272C75.1628 162.446 75.2678 162.59 75.3998 162.704C75.5378 162.812 75.6968 162.893 75.8768 162.947C76.0628 162.995 76.2608 163.019 76.4708 163.019C76.7528 163.019 77.0108 162.992 77.2448 162.938C77.4788 162.878 77.6978 162.794 77.9018 162.686C78.1118 162.578 78.3098 162.449 78.4958 162.299C78.6878 162.149 78.8738 161.978 79.0538 161.786V159.896ZM73.8788 156.17C74.3828 155.684 74.9258 155.321 75.5078 155.081C76.0898 154.841 76.7348 154.721 77.4428 154.721C77.9528 154.721 78.4058 154.805 78.8018 154.973C79.1978 155.141 79.5308 155.375 79.8008 155.675C80.0708 155.975 80.2748 156.338 80.4128 156.764C80.5508 157.19 80.6198 157.658 80.6198 158.168V164H79.9088C79.7528 164 79.6328 163.976 79.5488 163.928C79.4648 163.874 79.3988 163.772 79.3508 163.622L79.1708 162.758C78.9308 162.98 78.6968 163.178 78.4688 163.352C78.2408 163.52 78.0008 163.664 77.7488 163.784C77.4968 163.898 77.2268 163.985 76.9388 164.045C76.6568 164.111 76.3418 164.144 75.9938 164.144C75.6398 164.144 75.3068 164.096 74.9948 164C74.6828 163.898 74.4098 163.748 74.1758 163.55C73.9478 163.352 73.7648 163.103 73.6268 162.803C73.4948 162.497 73.4288 162.137 73.4288 161.723C73.4288 161.363 73.5278 161.018 73.7258 160.688C73.9238 160.352 74.2448 160.055 74.6888 159.797C75.1328 159.539 75.7118 159.329 76.4258 159.167C77.1398 158.999 78.0158 158.903 79.0538 158.879V158.168C79.0538 157.46 78.9008 156.926 78.5948 156.566C78.2888 156.2 77.8418 156.017 77.2538 156.017C76.8578 156.017 76.5248 156.068 76.2548 156.17C75.9908 156.266 75.7598 156.377 75.5618 156.503C75.3698 156.623 75.2018 156.734 75.0578 156.836C74.9198 156.932 74.7818 156.98 74.6438 156.98C74.5358 156.98 74.4428 156.953 74.3648 156.899C74.2868 156.839 74.2208 156.767 74.1667 156.683L73.8788 156.17ZM84.581 156.71C84.869 156.086 85.223 155.6 85.643 155.252C86.063 154.898 86.576 154.721 87.182 154.721C87.374 154.721 87.557 154.742 87.731 154.784C87.911 154.826 88.07 154.892 88.208 154.982L88.091 156.179C88.055 156.329 87.965 156.404 87.821 156.404C87.737 156.404 87.614 156.386 87.452 156.35C87.29 156.314 87.107 156.296 86.903 156.296C86.615 156.296 86.357 156.338 86.129 156.422C85.907 156.506 85.706 156.632 85.526 156.8C85.352 156.962 85.193 157.166 85.049 157.412C84.911 157.652 84.785 157.928 84.671 158.24V164H83.06V154.883H83.978C84.152 154.883 84.272 154.916 84.338 154.982C84.404 155.048 84.449 155.162 84.473 155.324L84.581 156.71ZM95.5274 154.883V164H93.9254V154.883H95.5274ZM95.8694 152.021C95.8694 152.177 95.8364 152.324 95.7704 152.462C95.7104 152.594 95.6264 152.714 95.5184 152.822C95.4164 152.924 95.2934 153.005 95.1494 153.065C95.0114 153.125 94.8644 153.155 94.7084 153.155C94.5524 153.155 94.4054 153.125 94.2674 153.065C94.1354 153.005 94.0184 152.924 93.9164 152.822C93.8144 152.714 93.7334 152.594 93.6734 152.462C93.6134 152.324 93.5834 152.177 93.5834 152.021C93.5834 151.865 93.6134 151.718 93.6734 151.58C93.7334 151.436 93.8144 151.313 93.9164 151.211C94.0184 151.103 94.1354 151.019 94.2674 150.959C94.4054 150.899 94.5524 150.869 94.7084 150.869C94.8644 150.869 95.0114 150.899 95.1494 150.959C95.2934 151.019 95.4164 151.103 95.5184 151.211C95.6264 151.313 95.7104 151.436 95.7704 151.58C95.8364 151.718 95.8694 151.865 95.8694 152.021ZM99.6716 156.206C99.8696 155.984 100.08 155.783 100.302 155.603C100.524 155.423 100.758 155.27 101.004 155.144C101.256 155.012 101.52 154.913 101.796 154.847C102.078 154.775 102.381 154.739 102.705 154.739C103.203 154.739 103.641 154.823 104.019 154.991C104.403 155.153 104.721 155.387 104.973 155.693C105.231 155.993 105.426 156.356 105.558 156.782C105.69 157.208 105.756 157.679 105.756 158.195V164H104.145V158.195C104.145 157.505 103.986 156.971 103.668 156.593C103.356 156.209 102.879 156.017 102.237 156.017C101.763 156.017 101.319 156.131 100.905 156.359C100.497 156.587 100.119 156.896 99.7706 157.286V164H98.1596V154.883H99.1226C99.3506 154.883 99.4916 154.994 99.5456 155.216L99.6716 156.206ZM110.873 164.144C110.153 164.144 109.598 163.943 109.208 163.541C108.824 163.139 108.632 162.56 108.632 161.804V156.224H107.534C107.438 156.224 107.357 156.197 107.291 156.143C107.225 156.083 107.192 155.993 107.192 155.873V155.234L108.686 155.045L109.055 152.228C109.073 152.138 109.112 152.066 109.172 152.012C109.238 151.952 109.322 151.922 109.424 151.922H110.234V155.063H112.871V156.224H110.234V161.696C110.234 162.08 110.327 162.365 110.513 162.551C110.699 162.737 110.939 162.83 111.233 162.83C111.401 162.83 111.545 162.809 111.665 162.767C111.791 162.719 111.899 162.668 111.989 162.614C112.079 162.56 112.154 162.512 112.214 162.47C112.28 162.422 112.337 162.398 112.385 162.398C112.469 162.398 112.544 162.449 112.61 162.551L113.078 163.316C112.802 163.574 112.469 163.778 112.079 163.928C111.689 164.072 111.287 164.144 110.873 164.144ZM120.574 158.447C120.574 158.075 120.52 157.736 120.412 157.43C120.31 157.118 120.157 156.851 119.953 156.629C119.755 156.401 119.512 156.227 119.224 156.107C118.936 155.981 118.609 155.918 118.243 155.918C117.475 155.918 116.866 156.143 116.416 156.593C115.972 157.037 115.696 157.655 115.588 158.447H120.574ZM121.87 162.722C121.672 162.962 121.435 163.172 121.159 163.352C120.883 163.526 120.586 163.67 120.268 163.784C119.956 163.898 119.632 163.982 119.296 164.036C118.96 164.096 118.627 164.126 118.297 164.126C117.667 164.126 117.085 164.021 116.551 163.811C116.023 163.595 115.564 163.283 115.174 162.875C114.79 162.461 114.49 161.951 114.274 161.345C114.058 160.739 113.95 160.043 113.95 159.257C113.95 158.621 114.046 158.027 114.238 157.475C114.436 156.923 114.718 156.446 115.084 156.044C115.45 155.636 115.897 155.318 116.425 155.09C116.953 154.856 117.547 154.739 118.207 154.739C118.753 154.739 119.257 154.832 119.719 155.018C120.187 155.198 120.589 155.462 120.925 155.81C121.267 156.152 121.534 156.578 121.726 157.088C121.918 157.592 122.014 158.168 122.014 158.816C122.014 159.068 121.987 159.236 121.933 159.32C121.879 159.404 121.777 159.446 121.627 159.446H115.534C115.552 160.022 115.63 160.523 115.768 160.949C115.912 161.375 116.11 161.732 116.362 162.02C116.614 162.302 116.914 162.515 117.262 162.659C117.61 162.797 118 162.866 118.432 162.866C118.834 162.866 119.179 162.821 119.467 162.731C119.761 162.635 120.013 162.533 120.223 162.425C120.433 162.317 120.607 162.218 120.745 162.128C120.889 162.032 121.012 161.984 121.114 161.984C121.246 161.984 121.348 162.035 121.42 162.137L121.87 162.722ZM127.159 159.545C127.483 159.545 127.768 159.5 128.014 159.41C128.26 159.32 128.467 159.194 128.635 159.032C128.803 158.87 128.929 158.678 129.013 158.456C129.097 158.228 129.139 157.979 129.139 157.709C129.139 157.151 128.968 156.707 128.626 156.377C128.29 156.047 127.801 155.882 127.159 155.882C126.511 155.882 126.016 156.047 125.674 156.377C125.338 156.707 125.17 157.151 125.17 157.709C125.17 157.979 125.212 158.228 125.296 158.456C125.386 158.678 125.515 158.87 125.683 159.032C125.851 159.194 126.058 159.32 126.304 159.41C126.55 159.5 126.835 159.545 127.159 159.545ZM130.048 164.495C130.048 164.273 129.985 164.093 129.859 163.955C129.733 163.817 129.562 163.709 129.346 163.631C129.136 163.553 128.89 163.499 128.608 163.469C128.326 163.433 128.026 163.406 127.708 163.388C127.396 163.37 127.078 163.352 126.754 163.334C126.43 163.316 126.118 163.286 125.818 163.244C125.482 163.4 125.206 163.598 124.99 163.838C124.78 164.072 124.675 164.348 124.675 164.666C124.675 164.87 124.726 165.059 124.828 165.233C124.936 165.413 125.098 165.566 125.314 165.692C125.53 165.824 125.8 165.926 126.124 165.998C126.454 166.076 126.841 166.115 127.285 166.115C127.717 166.115 128.104 166.076 128.446 165.998C128.788 165.92 129.076 165.809 129.31 165.665C129.55 165.521 129.733 165.35 129.859 165.152C129.985 164.954 130.048 164.735 130.048 164.495ZM131.677 155.243V155.837C131.677 156.035 131.551 156.161 131.299 156.215L130.264 156.35C130.468 156.746 130.57 157.184 130.57 157.664C130.57 158.108 130.483 158.513 130.309 158.879C130.141 159.239 129.907 159.548 129.607 159.806C129.307 160.064 128.947 160.262 128.527 160.4C128.107 160.538 127.651 160.607 127.159 160.607C126.733 160.607 126.331 160.556 125.953 160.454C125.761 160.574 125.614 160.703 125.512 160.841C125.41 160.973 125.359 161.108 125.359 161.246C125.359 161.462 125.446 161.627 125.62 161.741C125.8 161.849 126.034 161.927 126.322 161.975C126.61 162.023 126.937 162.053 127.303 162.065C127.675 162.077 128.053 162.098 128.437 162.128C128.827 162.152 129.205 162.197 129.571 162.263C129.943 162.329 130.273 162.437 130.561 162.587C130.849 162.737 131.08 162.944 131.254 163.208C131.434 163.472 131.524 163.814 131.524 164.234C131.524 164.624 131.425 165.002 131.227 165.368C131.035 165.734 130.756 166.058 130.39 166.34C130.024 166.628 129.574 166.856 129.04 167.024C128.512 167.198 127.915 167.285 127.249 167.285C126.583 167.285 126.001 167.219 125.503 167.087C125.005 166.955 124.591 166.778 124.261 166.556C123.931 166.334 123.682 166.076 123.514 165.782C123.352 165.494 123.271 165.191 123.271 164.873C123.271 164.423 123.412 164.042 123.694 163.73C123.976 163.418 124.363 163.169 124.855 162.983C124.585 162.863 124.369 162.704 124.207 162.506C124.051 162.302 123.973 162.029 123.973 161.687C123.973 161.555 123.997 161.42 124.045 161.282C124.093 161.138 124.165 160.997 124.261 160.859C124.363 160.715 124.486 160.58 124.63 160.454C124.774 160.328 124.942 160.217 125.134 160.121C124.684 159.869 124.333 159.536 124.081 159.122C123.829 158.702 123.703 158.216 123.703 157.664C123.703 157.22 123.787 156.818 123.955 156.458C124.129 156.092 124.369 155.783 124.675 155.531C124.981 155.273 125.344 155.075 125.764 154.937C126.19 154.799 126.655 154.73 127.159 154.73C127.555 154.73 127.924 154.775 128.266 154.865C128.608 154.949 128.92 155.075 129.202 155.243H131.677ZM134.854 156.71C135.142 156.086 135.496 155.6 135.916 155.252C136.336 154.898 136.849 154.721 137.455 154.721C137.647 154.721 137.83 154.742 138.004 154.784C138.184 154.826 138.343 154.892 138.481 154.982L138.364 156.179C138.328 156.329 138.238 156.404 138.094 156.404C138.01 156.404 137.887 156.386 137.725 156.35C137.563 156.314 137.38 156.296 137.176 156.296C136.888 156.296 136.63 156.338 136.402 156.422C136.18 156.506 135.979 156.632 135.799 156.8C135.625 156.962 135.466 157.166 135.322 157.412C135.184 157.652 135.058 157.928 134.944 158.24V164H133.333V154.883H134.251C134.425 154.883 134.545 154.916 134.611 154.982C134.677 155.048 134.722 155.162 134.746 155.324L134.854 156.71ZM144.69 159.896C143.952 159.92 143.322 159.98 142.8 160.076C142.284 160.166 141.861 160.286 141.531 160.436C141.207 160.586 140.97 160.763 140.82 160.967C140.676 161.171 140.604 161.399 140.604 161.651C140.604 161.891 140.643 162.098 140.721 162.272C140.799 162.446 140.904 162.59 141.036 162.704C141.174 162.812 141.333 162.893 141.513 162.947C141.699 162.995 141.897 163.019 142.107 163.019C142.389 163.019 142.647 162.992 142.881 162.938C143.115 162.878 143.334 162.794 143.538 162.686C143.748 162.578 143.946 162.449 144.132 162.299C144.324 162.149 144.51 161.978 144.69 161.786V159.896ZM139.515 156.17C140.019 155.684 140.562 155.321 141.144 155.081C141.726 154.841 142.371 154.721 143.079 154.721C143.589 154.721 144.042 154.805 144.438 154.973C144.834 155.141 145.167 155.375 145.437 155.675C145.707 155.975 145.911 156.338 146.049 156.764C146.187 157.19 146.256 157.658 146.256 158.168V164H145.545C145.389 164 145.269 163.976 145.185 163.928C145.101 163.874 145.035 163.772 144.987 163.622L144.807 162.758C144.567 162.98 144.333 163.178 144.105 163.352C143.877 163.52 143.637 163.664 143.385 163.784C143.133 163.898 142.863 163.985 142.575 164.045C142.293 164.111 141.978 164.144 141.63 164.144C141.276 164.144 140.943 164.096 140.631 164C140.319 163.898 140.046 163.748 139.812 163.55C139.584 163.352 139.401 163.103 139.263 162.803C139.131 162.497 139.065 162.137 139.065 161.723C139.065 161.363 139.164 161.018 139.362 160.688C139.56 160.352 139.881 160.055 140.325 159.797C140.769 159.539 141.348 159.329 142.062 159.167C142.776 158.999 143.652 158.903 144.69 158.879V158.168C144.69 157.46 144.537 156.926 144.231 156.566C143.925 156.2 143.478 156.017 142.89 156.017C142.494 156.017 142.161 156.068 141.891 156.17C141.627 156.266 141.396 156.377 141.198 156.503C141.006 156.623 140.838 156.734 140.694 156.836C140.556 156.932 140.418 156.98 140.28 156.98C140.172 156.98 140.079 156.953 140.001 156.899C139.923 156.839 139.857 156.767 139.803 156.683L139.515 156.17ZM157.034 164H155.432V156.224H150.734V161.696C150.734 162.08 150.827 162.365 151.013 162.551C151.199 162.737 151.439 162.83 151.733 162.83C151.901 162.83 152.045 162.809 152.165 162.767C152.291 162.719 152.399 162.668 152.489 162.614C152.579 162.56 152.654 162.512 152.714 162.47C152.78 162.422 152.837 162.398 152.885 162.398C152.969 162.398 153.044 162.449 153.11 162.551L153.578 163.316C153.302 163.574 152.969 163.778 152.579 163.928C152.189 164.072 151.787 164.144 151.373 164.144C150.653 164.144 150.098 163.943 149.708 163.541C149.324 163.139 149.132 162.56 149.132 161.804V156.224H148.034C147.938 156.224 147.857 156.197 147.791 156.143C147.725 156.083 147.692 155.993 147.692 155.873V155.234L149.186 155.036L149.555 152.228C149.573 152.138 149.612 152.066 149.672 152.012C149.738 151.952 149.822 151.922 149.924 151.922H150.734V155.063H157.034V164ZM157.43 151.958C157.43 152.114 157.397 152.261 157.331 152.399C157.271 152.531 157.187 152.648 157.079 152.75C156.977 152.852 156.857 152.933 156.719 152.993C156.581 153.053 156.434 153.083 156.278 153.083C156.122 153.083 155.975 153.053 155.837 152.993C155.705 152.933 155.588 152.852 155.486 152.75C155.384 152.648 155.303 152.531 155.243 152.399C155.183 152.261 155.153 152.114 155.153 151.958C155.153 151.802 155.183 151.655 155.243 151.517C155.303 151.373 155.384 151.25 155.486 151.148C155.588 151.04 155.705 150.956 155.837 150.896C155.975 150.836 156.122 150.806 156.278 150.806C156.434 150.806 156.581 150.836 156.719 150.896C156.857 150.956 156.977 151.04 157.079 151.148C157.187 151.25 157.271 151.373 157.331 151.517C157.397 151.655 157.43 151.802 157.43 151.958ZM163.508 154.739C164.174 154.739 164.774 154.85 165.308 155.072C165.842 155.294 166.298 155.609 166.676 156.017C167.054 156.425 167.342 156.92 167.54 157.502C167.744 158.078 167.846 158.723 167.846 159.437C167.846 160.157 167.744 160.805 167.54 161.381C167.342 161.957 167.054 162.449 166.676 162.857C166.298 163.265 165.842 163.58 165.308 163.802C164.774 164.018 164.174 164.126 163.508 164.126C162.836 164.126 162.23 164.018 161.69 163.802C161.156 163.58 160.7 163.265 160.322 162.857C159.944 162.449 159.653 161.957 159.449 161.381C159.251 160.805 159.152 160.157 159.152 159.437C159.152 158.723 159.251 158.078 159.449 157.502C159.653 156.92 159.944 156.425 160.322 156.017C160.7 155.609 161.156 155.294 161.69 155.072C162.23 154.85 162.836 154.739 163.508 154.739ZM163.508 162.875C164.408 162.875 165.08 162.575 165.524 161.975C165.968 161.369 166.19 160.526 166.19 159.446C166.19 158.36 165.968 157.514 165.524 156.908C165.08 156.302 164.408 155.999 163.508 155.999C163.052 155.999 162.653 156.077 162.311 156.233C161.975 156.389 161.693 156.614 161.465 156.908C161.243 157.202 161.075 157.565 160.961 157.997C160.853 158.423 160.799 158.906 160.799 159.446C160.799 160.526 161.021 161.369 161.465 161.975C161.915 162.575 162.596 162.875 163.508 162.875ZM171.39 156.206C171.588 155.984 171.798 155.783 172.02 155.603C172.242 155.423 172.476 155.27 172.722 155.144C172.974 155.012 173.238 154.913 173.514 154.847C173.796 154.775 174.099 154.739 174.423 154.739C174.921 154.739 175.359 154.823 175.737 154.991C176.121 155.153 176.439 155.387 176.691 155.693C176.949 155.993 177.144 156.356 177.276 156.782C177.408 157.208 177.474 157.679 177.474 158.195V164H175.863V158.195C175.863 157.505 175.704 156.971 175.386 156.593C175.074 156.209 174.597 156.017 173.955 156.017C173.481 156.017 173.037 156.131 172.623 156.359C172.215 156.587 171.837 156.896 171.489 157.286V164H169.878V154.883H170.841C171.069 154.883 171.21 154.994 171.264 155.216L171.39 156.206Z" fill="black"/>
<path d="M28.9787 210.755H29.6357C29.8637 210.755 30.0467 210.728 30.1847 210.674C30.3227 210.614 30.4487 210.515 30.5627 210.377L34.8557 205.517C34.9757 205.361 35.1017 205.253 35.2337 205.193C35.3657 205.133 35.5277 205.103 35.7197 205.103H37.1957L32.2817 210.656C32.1617 210.8 32.0447 210.92 31.9307 211.016C31.8227 211.106 31.7057 211.181 31.5797 211.241C31.7417 211.295 31.8887 211.376 32.0207 211.484C32.1527 211.586 32.2817 211.721 32.4077 211.889L37.5377 218H36.0257C35.9117 218 35.8127 217.994 35.7287 217.982C35.6507 217.964 35.5817 217.94 35.5217 217.91C35.4617 217.874 35.4077 217.835 35.3597 217.793C35.3177 217.745 35.2757 217.691 35.2337 217.631L30.7877 212.51C30.6677 212.36 30.5387 212.255 30.4007 212.195C30.2627 212.129 30.0527 212.096 29.7707 212.096H28.9787V218H27.2417V205.103H28.9787V210.755ZM40.2937 210.206C40.4917 209.984 40.7017 209.783 40.9237 209.603C41.1457 209.423 41.3797 209.27 41.6257 209.144C41.8777 209.012 42.1417 208.913 42.4177 208.847C42.6997 208.775 43.0027 208.739 43.3267 208.739C43.8247 208.739 44.2627 208.823 44.6407 208.991C45.0247 209.153 45.3427 209.387 45.5947 209.693C45.8527 209.993 46.0477 210.356 46.1797 210.782C46.3117 211.208 46.3777 211.679 46.3777 212.195V218H44.7667V212.195C44.7667 211.505 44.6077 210.971 44.2897 210.593C43.9777 210.209 43.5007 210.017 42.8587 210.017C42.3847 210.017 41.9407 210.131 41.5267 210.359C41.1187 210.587 40.7407 210.896 40.3927 211.286V218H38.7817V208.883H39.7447C39.9727 208.883 40.1137 208.994 40.1677 209.216L40.2937 210.206ZM52.6618 208.739C53.3278 208.739 53.9278 208.85 54.4618 209.072C54.9958 209.294 55.4518 209.609 55.8298 210.017C56.2078 210.425 56.4958 210.92 56.6938 211.502C56.8978 212.078 56.9998 212.723 56.9998 213.437C56.9998 214.157 56.8978 214.805 56.6938 215.381C56.4958 215.957 56.2078 216.449 55.8298 216.857C55.4518 217.265 54.9958 217.58 54.4618 217.802C53.9278 218.018 53.3278 218.126 52.6618 218.126C51.9898 218.126 51.3838 218.018 50.8438 217.802C50.3098 217.58 49.8538 217.265 49.4758 216.857C49.0978 216.449 48.8068 215.957 48.6028 215.381C48.4048 214.805 48.3058 214.157 48.3058 213.437C48.3058 212.723 48.4048 212.078 48.6028 211.502C48.8068 210.92 49.0978 210.425 49.4758 210.017C49.8538 209.609 50.3098 209.294 50.8438 209.072C51.3838 208.85 51.9898 208.739 52.6618 208.739ZM52.6618 216.875C53.5618 216.875 54.2338 216.575 54.6778 215.975C55.1218 215.369 55.3438 214.526 55.3438 213.446C55.3438 212.36 55.1218 211.514 54.6778 210.908C54.2338 210.302 53.5618 209.999 52.6618 209.999C52.2058 209.999 51.8068 210.077 51.4648 210.233C51.1288 210.389 50.8468 210.614 50.6188 210.908C50.3968 211.202 50.2288 211.565 50.1148 211.997C50.0068 212.423 49.9528 212.906 49.9528 213.446C49.9528 214.526 50.1748 215.369 50.6188 215.975C51.0688 216.575 51.7498 216.875 52.6618 216.875ZM71.4641 208.883L68.5121 218H67.2431C67.0871 218 66.9791 217.898 66.9191 217.694L64.9031 211.511C64.8551 211.373 64.8161 211.235 64.7861 211.097C64.7561 210.953 64.7261 210.812 64.6961 210.674C64.6661 210.812 64.6361 210.953 64.6061 211.097C64.5761 211.235 64.5371 211.376 64.4891 211.52L62.4371 217.694C62.3831 217.898 62.2631 218 62.0771 218H60.8711L57.9191 208.883H59.1791C59.3051 208.883 59.4101 208.916 59.4941 208.982C59.5841 209.048 59.6441 209.126 59.6741 209.216L61.4201 215.084C61.5221 215.516 61.6031 215.924 61.6631 216.308C61.7171 216.11 61.7711 215.909 61.8251 215.705C61.8851 215.501 61.9481 215.294 62.0141 215.084L63.9401 209.18C63.9701 209.09 64.0211 209.015 64.0931 208.955C64.1711 208.895 64.2641 208.865 64.3721 208.865H65.0741C65.1941 208.865 65.2931 208.895 65.3711 208.955C65.4491 209.015 65.5031 209.09 65.5331 209.18L67.4141 215.084C67.4801 215.294 67.5401 215.501 67.5941 215.705C67.6481 215.909 67.6991 216.11 67.7471 216.308C67.7771 216.11 67.8131 215.912 67.8551 215.714C67.9031 215.51 67.9541 215.3 68.0081 215.084L69.7901 209.216C69.8201 209.12 69.8771 209.042 69.9611 208.982C70.0451 208.916 70.1441 208.883 70.2581 208.883H71.4641ZM78.8712 215.804C79.1652 216.2 79.4862 216.479 79.8342 216.641C80.1822 216.803 80.5722 216.884 81.0042 216.884C81.8562 216.884 82.5102 216.581 82.9662 215.975C83.4222 215.369 83.6502 214.505 83.6502 213.383C83.6502 212.789 83.5962 212.279 83.4882 211.853C83.3862 211.427 83.2362 211.079 83.0382 210.809C82.8402 210.533 82.5972 210.332 82.3092 210.206C82.0212 210.08 81.6942 210.017 81.3282 210.017C80.8062 210.017 80.3472 210.137 79.9512 210.377C79.5612 210.617 79.2012 210.956 78.8712 211.394V215.804ZM78.7902 210.296C79.1742 209.822 79.6182 209.441 80.1222 209.153C80.6262 208.865 81.2022 208.721 81.8502 208.721C82.3782 208.721 82.8552 208.823 83.2812 209.027C83.7072 209.225 84.0702 209.522 84.3702 209.918C84.6702 210.308 84.9012 210.794 85.0632 211.376C85.2252 211.958 85.3062 212.627 85.3062 213.383C85.3062 214.055 85.2162 214.682 85.0362 215.264C84.8562 215.84 84.5952 216.341 84.2532 216.767C83.9172 217.187 83.5032 217.52 83.0112 217.766C82.5252 218.006 81.9762 218.126 81.3642 218.126C80.8062 218.126 80.3262 218.033 79.9242 217.847C79.5282 217.655 79.1772 217.391 78.8712 217.055V221.087H77.2602V208.883H78.2232C78.4512 208.883 78.5922 208.994 78.6462 209.216L78.7902 210.296ZM88.8711 210.71C89.1591 210.086 89.5131 209.6 89.9331 209.252C90.3531 208.898 90.8661 208.721 91.4721 208.721C91.6641 208.721 91.8471 208.742 92.0211 208.784C92.2011 208.826 92.3601 208.892 92.4981 208.982L92.3811 210.179C92.3451 210.329 92.2551 210.404 92.1111 210.404C92.0271 210.404 91.9041 210.386 91.7421 210.35C91.5801 210.314 91.3971 210.296 91.1931 210.296C90.9051 210.296 90.6471 210.338 90.4191 210.422C90.1971 210.506 89.9961 210.632 89.8161 210.8C89.6421 210.962 89.4831 211.166 89.3391 211.412C89.2011 211.652 89.0751 211.928 88.9611 212.24V218H87.3501V208.883H88.2681C88.4421 208.883 88.5621 208.916 88.6281 208.982C88.6941 209.048 88.7391 209.162 88.7631 209.324L88.8711 210.71ZM99.6396 212.447C99.6396 212.075 99.5856 211.736 99.4776 211.43C99.3756 211.118 99.2226 210.851 99.0186 210.629C98.8206 210.401 98.5776 210.227 98.2896 210.107C98.0016 209.981 97.6746 209.918 97.3086 209.918C96.5406 209.918 95.9316 210.143 95.4816 210.593C95.0376 211.037 94.7616 211.655 94.6536 212.447H99.6396ZM100.936 216.722C100.738 216.962 100.501 217.172 100.225 217.352C99.9486 217.526 99.6516 217.67 99.3336 217.784C99.0216 217.898 98.6976 217.982 98.3616 218.036C98.0256 218.096 97.6926 218.126 97.3626 218.126C96.7326 218.126 96.1506 218.021 95.6166 217.811C95.0886 217.595 94.6296 217.283 94.2396 216.875C93.8556 216.461 93.5556 215.951 93.3396 215.345C93.1236 214.739 93.0156 214.043 93.0156 213.257C93.0156 212.621 93.1116 212.027 93.3036 211.475C93.5016 210.923 93.7836 210.446 94.1496 210.044C94.5156 209.636 94.9626 209.318 95.4906 209.09C96.0186 208.856 96.6126 208.739 97.2726 208.739C97.8186 208.739 98.3226 208.832 98.7846 209.018C99.2526 209.198 99.6546 209.462 99.9906 209.81C100.333 210.152 100.6 210.578 100.792 211.088C100.984 211.592 101.08 212.168 101.08 212.816C101.08 213.068 101.053 213.236 100.999 213.32C100.945 213.404 100.843 213.446 100.693 213.446H94.5996C94.6176 214.022 94.6956 214.523 94.8336 214.949C94.9776 215.375 95.1756 215.732 95.4276 216.02C95.6796 216.302 95.9796 216.515 96.3276 216.659C96.6756 216.797 97.0656 216.866 97.4976 216.866C97.8996 216.866 98.2446 216.821 98.5326 216.731C98.8266 216.635 99.0786 216.533 99.2886 216.425C99.4986 216.317 99.6726 216.218 99.8106 216.128C99.9546 216.032 100.078 215.984 100.18 215.984C100.312 215.984 100.414 216.035 100.486 216.137L100.936 216.722ZM102.903 211.925H107.349V213.284H102.903V211.925ZM111.338 215.804C111.632 216.2 111.953 216.479 112.301 216.641C112.649 216.803 113.039 216.884 113.471 216.884C114.323 216.884 114.977 216.581 115.433 215.975C115.889 215.369 116.117 214.505 116.117 213.383C116.117 212.789 116.063 212.279 115.955 211.853C115.853 211.427 115.703 211.079 115.505 210.809C115.307 210.533 115.064 210.332 114.776 210.206C114.488 210.08 114.161 210.017 113.795 210.017C113.273 210.017 112.814 210.137 112.418 210.377C112.028 210.617 111.668 210.956 111.338 211.394V215.804ZM111.257 210.296C111.641 209.822 112.085 209.441 112.589 209.153C113.093 208.865 113.669 208.721 114.317 208.721C114.845 208.721 115.322 208.823 115.748 209.027C116.174 209.225 116.537 209.522 116.837 209.918C117.137 210.308 117.368 210.794 117.53 211.376C117.692 211.958 117.773 212.627 117.773 213.383C117.773 214.055 117.683 214.682 117.503 215.264C117.323 215.84 117.062 216.341 116.72 216.767C116.384 217.187 115.97 217.52 115.478 217.766C114.992 218.006 114.443 218.126 113.831 218.126C113.273 218.126 112.793 218.033 112.391 217.847C111.995 217.655 111.644 217.391 111.338 217.055V221.087H109.727V208.883H110.69C110.918 208.883 111.059 208.994 111.113 209.216L111.257 210.296ZM121.473 204.743V218H119.871V204.743H121.473ZM129.012 213.896C128.274 213.92 127.644 213.98 127.122 214.076C126.606 214.166 126.183 214.286 125.853 214.436C125.529 214.586 125.292 214.763 125.142 214.967C124.998 215.171 124.926 215.399 124.926 215.651C124.926 215.891 124.965 216.098 125.043 216.272C125.121 216.446 125.226 216.59 125.358 216.704C125.496 216.812 125.655 216.893 125.835 216.947C126.021 216.995 126.219 217.019 126.429 217.019C126.711 217.019 126.969 216.992 127.203 216.938C127.437 216.878 127.656 216.794 127.86 216.686C128.07 216.578 128.268 216.449 128.454 216.299C128.646 216.149 128.832 215.978 129.012 215.786V213.896ZM123.837 210.17C124.341 209.684 124.884 209.321 125.466 209.081C126.048 208.841 126.693 208.721 127.401 208.721C127.911 208.721 128.364 208.805 128.76 208.973C129.156 209.141 129.489 209.375 129.759 209.675C130.029 209.975 130.233 210.338 130.371 210.764C130.509 211.19 130.578 211.658 130.578 212.168V218H129.867C129.711 218 129.591 217.976 129.507 217.928C129.423 217.874 129.357 217.772 129.309 217.622L129.129 216.758C128.889 216.98 128.655 217.178 128.427 217.352C128.199 217.52 127.959 217.664 127.707 217.784C127.455 217.898 127.185 217.985 126.897 218.045C126.615 218.111 126.3 218.144 125.952 218.144C125.598 218.144 125.265 218.096 124.953 218C124.641 217.898 124.368 217.748 124.134 217.55C123.906 217.352 123.723 217.103 123.585 216.803C123.453 216.497 123.387 216.137 123.387 215.723C123.387 215.363 123.486 215.018 123.684 214.688C123.882 214.352 124.203 214.055 124.647 213.797C125.091 213.539 125.67 213.329 126.384 213.167C127.098 212.999 127.974 212.903 129.012 212.879V212.168C129.012 211.46 128.859 210.926 128.553 210.566C128.247 210.2 127.8 210.017 127.212 210.017C126.816 210.017 126.483 210.068 126.213 210.17C125.949 210.266 125.718 210.377 125.52 210.503C125.328 210.623 125.16 210.734 125.016 210.836C124.878 210.932 124.74 210.98 124.602 210.98C124.494 210.98 124.401 210.953 124.323 210.899C124.245 210.839 124.179 210.767 124.125 210.683L123.837 210.17ZM134.53 210.206C134.728 209.984 134.938 209.783 135.16 209.603C135.382 209.423 135.616 209.27 135.862 209.144C136.114 209.012 136.378 208.913 136.654 208.847C136.936 208.775 137.239 208.739 137.563 208.739C138.061 208.739 138.499 208.823 138.877 208.991C139.261 209.153 139.579 209.387 139.831 209.693C140.089 209.993 140.284 210.356 140.416 210.782C140.548 211.208 140.614 211.679 140.614 212.195V218H139.003V212.195C139.003 211.505 138.844 210.971 138.526 210.593C138.214 210.209 137.737 210.017 137.095 210.017C136.621 210.017 136.177 210.131 135.763 210.359C135.355 210.587 134.977 210.896 134.629 211.286V218H133.018V208.883H133.981C134.209 208.883 134.35 208.994 134.404 209.216L134.53 210.206ZM144.567 210.206C144.765 209.984 144.975 209.783 145.197 209.603C145.419 209.423 145.653 209.27 145.899 209.144C146.151 209.012 146.415 208.913 146.691 208.847C146.973 208.775 147.276 208.739 147.6 208.739C148.098 208.739 148.536 208.823 148.914 208.991C149.298 209.153 149.616 209.387 149.868 209.693C150.126 209.993 150.321 210.356 150.453 210.782C150.585 211.208 150.651 211.679 150.651 212.195V218H149.04V212.195C149.04 211.505 148.881 210.971 148.563 210.593C148.251 210.209 147.774 210.017 147.132 210.017C146.658 210.017 146.214 210.131 145.8 210.359C145.392 210.587 145.014 210.896 144.666 211.286V218H143.055V208.883H144.018C144.246 208.883 144.387 208.994 144.441 209.216L144.567 210.206ZM159.194 212.447C159.194 212.075 159.14 211.736 159.032 211.43C158.93 211.118 158.777 210.851 158.573 210.629C158.375 210.401 158.132 210.227 157.844 210.107C157.556 209.981 157.229 209.918 156.863 209.918C156.095 209.918 155.486 210.143 155.036 210.593C154.592 211.037 154.316 211.655 154.208 212.447H159.194ZM160.49 216.722C160.292 216.962 160.055 217.172 159.779 217.352C159.503 217.526 159.206 217.67 158.888 217.784C158.576 217.898 158.252 217.982 157.916 218.036C157.58 218.096 157.247 218.126 156.917 218.126C156.287 218.126 155.705 218.021 155.171 217.811C154.643 217.595 154.184 217.283 153.794 216.875C153.41 216.461 153.11 215.951 152.894 215.345C152.678 214.739 152.57 214.043 152.57 213.257C152.57 212.621 152.666 212.027 152.858 211.475C153.056 210.923 153.338 210.446 153.704 210.044C154.07 209.636 154.517 209.318 155.045 209.09C155.573 208.856 156.167 208.739 156.827 208.739C157.373 208.739 157.877 208.832 158.339 209.018C158.807 209.198 159.209 209.462 159.545 209.81C159.887 210.152 160.154 210.578 160.346 211.088C160.538 211.592 160.634 212.168 160.634 212.816C160.634 213.068 160.607 213.236 160.553 213.32C160.499 213.404 160.397 213.446 160.247 213.446H154.154C154.172 214.022 154.25 214.523 154.388 214.949C154.532 215.375 154.73 215.732 154.982 216.02C155.234 216.302 155.534 216.515 155.882 216.659C156.23 216.797 156.62 216.866 157.052 216.866C157.454 216.866 157.799 216.821 158.087 216.731C158.381 216.635 158.633 216.533 158.843 216.425C159.053 216.317 159.227 216.218 159.365 216.128C159.509 216.032 159.632 215.984 159.734 215.984C159.866 215.984 159.968 216.035 160.04 216.137L160.49 216.722ZM168.542 211.052C168.242 210.65 167.918 210.371 167.57 210.215C167.222 210.053 166.832 209.972 166.4 209.972C165.554 209.972 164.903 210.275 164.447 210.881C163.991 211.487 163.763 212.351 163.763 213.473C163.763 214.067 163.814 214.577 163.916 215.003C164.018 215.423 164.168 215.771 164.366 216.047C164.564 216.317 164.807 216.515 165.095 216.641C165.383 216.767 165.71 216.83 166.076 216.83C166.604 216.83 167.063 216.71 167.453 216.47C167.849 216.23 168.212 215.891 168.542 215.453V211.052ZM170.144 204.743V218H169.19C168.962 218 168.818 217.889 168.758 217.667L168.614 216.56C168.224 217.028 167.78 217.406 167.282 217.694C166.784 217.982 166.208 218.126 165.554 218.126C165.032 218.126 164.558 218.027 164.132 217.829C163.706 217.625 163.343 217.328 163.043 216.938C162.743 216.548 162.512 216.062 162.35 215.48C162.188 214.898 162.107 214.229 162.107 213.473C162.107 212.801 162.197 212.177 162.377 211.601C162.557 211.019 162.815 210.515 163.151 210.089C163.487 209.663 163.898 209.33 164.384 209.09C164.876 208.844 165.428 208.721 166.04 208.721C166.598 208.721 167.075 208.817 167.471 209.009C167.873 209.195 168.23 209.456 168.542 209.792V204.743H170.144ZM11.5819 246.447C11.5819 246.075 11.5279 245.736 11.4199 245.43C11.3179 245.118 11.1649 244.851 10.9609 244.629C10.7629 244.401 10.5199 244.227 10.2319 244.107C9.94394 243.981 9.61694 243.918 9.25094 243.918C8.48294 243.918 7.87394 244.143 7.42394 244.593C6.97994 245.037 6.70394 245.655 6.59594 246.447H11.5819ZM12.8779 250.722C12.6799 250.962 12.4429 251.172 12.1669 251.352C11.8909 251.526 11.5939 251.67 11.2759 251.784C10.9639 251.898 10.6399 251.982 10.3039 252.036C9.96794 252.096 9.63494 252.126 9.30494 252.126C8.67494 252.126 8.09294 252.021 7.55894 251.811C7.03094 251.595 6.57194 251.283 6.18194 250.875C5.79794 250.461 5.49794 249.951 5.28194 249.345C5.06594 248.739 4.95794 248.043 4.95794 247.257C4.95794 246.621 5.05394 246.027 5.24594 245.475C5.44394 244.923 5.72594 244.446 6.09194 244.044C6.45794 243.636 6.90494 243.318 7.43294 243.09C7.96094 242.856 8.55494 242.739 9.21494 242.739C9.76094 242.739 10.2649 242.832 10.7269 243.018C11.1949 243.198 11.5969 243.462 11.9329 243.81C12.2749 244.152 12.5419 244.578 12.7339 245.088C12.9259 245.592 13.0219 246.168 13.0219 246.816C13.0219 247.068 12.9949 247.236 12.9409 247.32C12.8869 247.404 12.7849 247.446 12.6349 247.446H6.54194C6.55994 248.022 6.63794 248.523 6.77594 248.949C6.91994 249.375 7.11794 249.732 7.36994 250.02C7.62194 250.302 7.92194 250.515 8.26994 250.659C8.61794 250.797 9.00794 250.866 9.43994 250.866C9.84194 250.866 10.1869 250.821 10.4749 250.731C10.7689 250.635 11.0209 250.533 11.2309 250.425C11.4409 250.317 11.6149 250.218 11.7529 250.128C11.8969 250.032 12.0199 249.984 12.1219 249.984C12.2539 249.984 12.3559 250.035 12.4279 250.137L12.8779 250.722ZM22.6083 242.883L18.8913 252H17.4513L13.7343 242.883H15.0393C15.1713 242.883 15.2793 242.916 15.3633 242.982C15.4473 243.048 15.5043 243.126 15.5343 243.216L17.8473 249.084C17.9193 249.306 17.9823 249.522 18.0363 249.732C18.0903 249.942 18.1413 250.152 18.1893 250.362C18.2373 250.152 18.2883 249.942 18.3423 249.732C18.3963 249.522 18.4623 249.306 18.5403 249.084L20.8803 243.216C20.9163 243.12 20.9763 243.042 21.0603 242.982C21.1443 242.916 21.2433 242.883 21.3573 242.883H22.6083ZM29.9335 246.447C29.9335 246.075 29.8795 245.736 29.7715 245.43C29.6695 245.118 29.5165 244.851 29.3125 244.629C29.1145 244.401 28.8715 244.227 28.5835 244.107C28.2955 243.981 27.9685 243.918 27.6025 243.918C26.8345 243.918 26.2255 244.143 25.7755 244.593C25.3315 245.037 25.0555 245.655 24.9475 246.447H29.9335ZM31.2295 250.722C31.0315 250.962 30.7945 251.172 30.5185 251.352C30.2425 251.526 29.9455 251.67 29.6275 251.784C29.3155 251.898 28.9915 251.982 28.6555 252.036C28.3195 252.096 27.9865 252.126 27.6565 252.126C27.0265 252.126 26.4445 252.021 25.9105 251.811C25.3825 251.595 24.9235 251.283 24.5335 250.875C24.1495 250.461 23.8495 249.951 23.6335 249.345C23.4175 248.739 23.3095 248.043 23.3095 247.257C23.3095 246.621 23.4055 246.027 23.5975 245.475C23.7955 244.923 24.0775 244.446 24.4435 244.044C24.8095 243.636 25.2565 243.318 25.7845 243.09C26.3125 242.856 26.9065 242.739 27.5665 242.739C28.1125 242.739 28.6165 242.832 29.0785 243.018C29.5465 243.198 29.9485 243.462 30.2845 243.81C30.6265 244.152 30.8935 244.578 31.0855 245.088C31.2775 245.592 31.3735 246.168 31.3735 246.816C31.3735 247.068 31.3465 247.236 31.2925 247.32C31.2385 247.404 31.1365 247.446 30.9865 247.446H24.8935C24.9115 248.022 24.9895 248.523 25.1275 248.949C25.2715 249.375 25.4695 249.732 25.7215 250.02C25.9735 250.302 26.2735 250.515 26.6215 250.659C26.9695 250.797 27.3595 250.866 27.7915 250.866C28.1935 250.866 28.5385 250.821 28.8265 250.731C29.1205 250.635 29.3725 250.533 29.5825 250.425C29.7925 250.317 29.9665 250.218 30.1045 250.128C30.2485 250.032 30.3715 249.984 30.4735 249.984C30.6055 249.984 30.7075 250.035 30.7795 250.137L31.2295 250.722ZM34.8533 244.206C35.0513 243.984 35.2613 243.783 35.4833 243.603C35.7053 243.423 35.9393 243.27 36.1853 243.144C36.4373 243.012 36.7013 242.913 36.9773 242.847C37.2593 242.775 37.5623 242.739 37.8863 242.739C38.3843 242.739 38.8223 242.823 39.2003 242.991C39.5843 243.153 39.9023 243.387 40.1543 243.693C40.4123 243.993 40.6073 244.356 40.7393 244.782C40.8713 245.208 40.9373 245.679 40.9373 246.195V252H39.3263V246.195C39.3263 245.505 39.1673 244.971 38.8493 244.593C38.5373 244.209 38.0603 244.017 37.4183 244.017C36.9443 244.017 36.5003 244.131 36.0863 244.359C35.6783 244.587 35.3003 244.896 34.9523 245.286V252H33.3413V242.883H34.3043C34.5323 242.883 34.6733 242.994 34.7273 243.216L34.8533 244.206ZM46.0543 252.144C45.3343 252.144 44.7793 251.943 44.3893 251.541C44.0053 251.139 43.8133 250.56 43.8133 249.804V244.224H42.7153C42.6193 244.224 42.5383 244.197 42.4723 244.143C42.4063 244.083 42.3733 243.993 42.3733 243.873V243.234L43.8673 243.045L44.2363 240.228C44.2543 240.138 44.2933 240.066 44.3533 240.012C44.4193 239.952 44.5033 239.922 44.6053 239.922H45.4153V243.063H48.0523V244.224H45.4153V249.696C45.4153 250.08 45.5083 250.365 45.6943 250.551C45.8803 250.737 46.1203 250.83 46.4143 250.83C46.5823 250.83 46.7263 250.809 46.8463 250.767C46.9723 250.719 47.0803 250.668 47.1703 250.614C47.2603 250.56 47.3353 250.512 47.3953 250.47C47.4613 250.422 47.5183 250.398 47.5663 250.398C47.6503 250.398 47.7253 250.449 47.7913 250.551L48.2593 251.316C47.9833 251.574 47.6503 251.778 47.2603 251.928C46.8703 252.072 46.4683 252.144 46.0543 252.144ZM55.0165 244.386C54.9445 244.518 54.8335 244.584 54.6835 244.584C54.5935 244.584 54.4915 244.551 54.3775 244.485C54.2635 244.419 54.1225 244.347 53.9545 244.269C53.7925 244.185 53.5975 244.11 53.3695 244.044C53.1415 243.972 52.8715 243.936 52.5595 243.936C52.2895 243.936 52.0465 243.972 51.8305 244.044C51.6145 244.11 51.4285 244.203 51.2725 244.323C51.1225 244.443 51.0055 244.584 50.9215 244.746C50.8435 244.902 50.8045 245.073 50.8045 245.259C50.8045 245.493 50.8705 245.688 51.0025 245.844C51.1405 246 51.3205 246.135 51.5425 246.249C51.7645 246.363 52.0165 246.465 52.2985 246.555C52.5805 246.639 52.8685 246.732 53.1625 246.834C53.4625 246.93 53.7535 247.038 54.0355 247.158C54.3175 247.278 54.5695 247.428 54.7915 247.608C55.0135 247.788 55.1905 248.01 55.3225 248.274C55.4605 248.532 55.5295 248.844 55.5295 249.21C55.5295 249.63 55.4545 250.02 55.3045 250.38C55.1545 250.734 54.9325 251.043 54.6385 251.307C54.3445 251.565 53.9845 251.769 53.5585 251.919C53.1325 252.069 52.6405 252.144 52.0825 252.144C51.4465 252.144 50.8705 252.042 50.3545 251.838C49.8385 251.628 49.4005 251.361 49.0405 251.037L49.4185 250.425C49.4665 250.347 49.5235 250.287 49.5895 250.245C49.6555 250.203 49.7395 250.182 49.8415 250.182C49.9495 250.182 50.0635 250.224 50.1835 250.308C50.3035 250.392 50.4475 250.485 50.6155 250.587C50.7895 250.689 50.9995 250.782 51.2455 250.866C51.4915 250.95 51.7975 250.992 52.1635 250.992C52.4755 250.992 52.7485 250.953 52.9825 250.875C53.2165 250.791 53.4115 250.68 53.5675 250.542C53.7235 250.404 53.8375 250.245 53.9095 250.065C53.9875 249.885 54.0265 249.693 54.0265 249.489C54.0265 249.237 53.9575 249.03 53.8195 248.868C53.6875 248.7 53.5105 248.559 53.2885 248.445C53.0665 248.325 52.8115 248.223 52.5235 248.139C52.2415 248.049 51.9505 247.956 51.6505 247.86C51.3565 247.764 51.0655 247.656 50.7775 247.536C50.4955 247.41 50.2435 247.254 50.0215 247.068C49.7995 246.882 49.6195 246.654 49.4815 246.384C49.3495 246.108 49.2835 245.775 49.2835 245.385C49.2835 245.037 49.3555 244.704 49.4995 244.386C49.6435 244.062 49.8535 243.78 50.1295 243.54C50.4055 243.294 50.7445 243.099 51.1465 242.955C51.5485 242.811 52.0075 242.739 52.5235 242.739C53.1235 242.739 53.6605 242.835 54.1345 243.027C54.6145 243.213 55.0285 243.471 55.3765 243.801L55.0165 244.386ZM74.3029 242.883L71.3509 252H70.0819C69.9259 252 69.8179 251.898 69.7579 251.694L67.7419 245.511C67.6939 245.373 67.6549 245.235 67.6249 245.097C67.5949 244.953 67.5649 244.812 67.5349 244.674C67.5049 244.812 67.4749 244.953 67.4449 245.097C67.4149 245.235 67.3759 245.376 67.3279 245.52L65.2759 251.694C65.2219 251.898 65.1019 252 64.9159 252H63.7099L60.7579 242.883H62.0179C62.1439 242.883 62.2489 242.916 62.3329 242.982C62.4229 243.048 62.4829 243.126 62.5129 243.216L64.2589 249.084C64.3609 249.516 64.4419 249.924 64.5019 250.308C64.5559 250.11 64.6099 249.909 64.6639 249.705C64.7239 249.501 64.7869 249.294 64.8529 249.084L66.7789 243.18C66.8089 243.09 66.8599 243.015 66.9319 242.955C67.0099 242.895 67.1029 242.865 67.2109 242.865H67.9129C68.0329 242.865 68.1319 242.895 68.2099 242.955C68.2879 243.015 68.3419 243.09 68.3719 243.18L70.2529 249.084C70.3189 249.294 70.3789 249.501 70.4329 249.705C70.4869 249.909 70.5379 250.11 70.5859 250.308C70.6159 250.11 70.6519 249.912 70.6939 249.714C70.7419 249.51 70.7929 249.3 70.8469 249.084L72.6289 243.216C72.6589 243.12 72.7159 243.042 72.7999 242.982C72.8839 242.916 72.9829 242.883 73.0969 242.883H74.3029ZM77.4738 244.098C77.8638 243.684 78.2958 243.354 78.7698 243.108C79.2438 242.862 79.7898 242.739 80.4078 242.739C80.9058 242.739 81.3438 242.823 81.7218 242.991C82.1058 243.153 82.4238 243.387 82.6758 243.693C82.9338 243.993 83.1288 244.356 83.2608 244.782C83.3928 245.208 83.4588 245.679 83.4588 246.195V252H81.8478V246.195C81.8478 245.505 81.6888 244.971 81.3708 244.593C81.0588 244.209 80.5818 244.017 79.9398 244.017C79.4658 244.017 79.0218 244.131 78.6078 244.359C78.1998 244.587 77.8218 244.896 77.4738 245.286V252H75.8628V238.743H77.4738V244.098ZM92.0019 246.447C92.0019 246.075 91.9479 245.736 91.8399 245.43C91.7379 245.118 91.5849 244.851 91.3809 244.629C91.1829 244.401 90.9399 244.227 90.6519 244.107C90.3639 243.981 90.0369 243.918 89.6709 243.918C88.9029 243.918 88.2939 244.143 87.8439 244.593C87.3999 245.037 87.1239 245.655 87.0159 246.447H92.0019ZM93.2979 250.722C93.0999 250.962 92.8629 251.172 92.5869 251.352C92.3109 251.526 92.0139 251.67 91.6959 251.784C91.3839 251.898 91.0599 251.982 90.7239 252.036C90.3879 252.096 90.0549 252.126 89.7249 252.126C89.0949 252.126 88.5129 252.021 87.9789 251.811C87.4509 251.595 86.9919 251.283 86.6019 250.875C86.2179 250.461 85.9179 249.951 85.7019 249.345C85.4859 248.739 85.3779 248.043 85.3779 247.257C85.3779 246.621 85.4739 246.027 85.6659 245.475C85.8639 244.923 86.1459 244.446 86.5119 244.044C86.8779 243.636 87.3249 243.318 87.8529 243.09C88.3809 242.856 88.9749 242.739 89.6349 242.739C90.1809 242.739 90.6849 242.832 91.1469 243.018C91.6149 243.198 92.0169 243.462 92.3529 243.81C92.6949 244.152 92.9619 244.578 93.1539 245.088C93.3459 245.592 93.4419 246.168 93.4419 246.816C93.4419 247.068 93.4149 247.236 93.3609 247.32C93.3069 247.404 93.2049 247.446 93.0549 247.446H86.9619C86.9799 248.022 87.0579 248.523 87.1959 248.949C87.3399 249.375 87.5379 249.732 87.7899 250.02C88.0419 250.302 88.3419 250.515 88.6899 250.659C89.0379 250.797 89.4279 250.866 89.8599 250.866C90.2619 250.866 90.6069 250.821 90.8949 250.731C91.1889 250.635 91.4409 250.533 91.6509 250.425C91.8609 250.317 92.0349 250.218 92.1729 250.128C92.3169 250.032 92.4399 249.984 92.5419 249.984C92.6739 249.984 92.7759 250.035 92.8479 250.137L93.2979 250.722ZM96.9216 244.206C97.1196 243.984 97.3296 243.783 97.5516 243.603C97.7736 243.423 98.0076 243.27 98.2536 243.144C98.5056 243.012 98.7696 242.913 99.0456 242.847C99.3276 242.775 99.6306 242.739 99.9546 242.739C100.453 242.739 100.891 242.823 101.269 242.991C101.653 243.153 101.971 243.387 102.223 243.693C102.481 243.993 102.676 244.356 102.808 244.782C102.94 245.208 103.006 245.679 103.006 246.195V252H101.395V246.195C101.395 245.505 101.236 244.971 100.918 244.593C100.606 244.209 100.129 244.017 99.4866 244.017C99.0126 244.017 98.5686 244.131 98.1546 244.359C97.7466 244.587 97.3686 244.896 97.0206 245.286V252H95.4096V242.883H96.3726C96.6006 242.883 96.7416 242.994 96.7956 243.216L96.9216 244.206ZM115.362 244.386C115.29 244.518 115.179 244.584 115.029 244.584C114.939 244.584 114.837 244.551 114.723 244.485C114.609 244.419 114.468 244.347 114.3 244.269C114.138 244.185 113.943 244.11 113.715 244.044C113.487 243.972 113.217 243.936 112.905 243.936C112.635 243.936 112.392 243.972 112.176 244.044C111.96 244.11 111.774 244.203 111.618 244.323C111.468 244.443 111.351 244.584 111.267 244.746C111.189 244.902 111.15 245.073 111.15 245.259C111.15 245.493 111.216 245.688 111.348 245.844C111.486 246 111.666 246.135 111.888 246.249C112.11 246.363 112.362 246.465 112.644 246.555C112.926 246.639 113.214 246.732 113.508 246.834C113.808 246.93 114.099 247.038 114.381 247.158C114.663 247.278 114.915 247.428 115.137 247.608C115.359 247.788 115.536 248.01 115.668 248.274C115.806 248.532 115.875 248.844 115.875 249.21C115.875 249.63 115.8 250.02 115.65 250.38C115.5 250.734 115.278 251.043 114.984 251.307C114.69 251.565 114.33 251.769 113.904 251.919C113.478 252.069 112.986 252.144 112.428 252.144C111.792 252.144 111.216 252.042 110.7 251.838C110.184 251.628 109.746 251.361 109.386 251.037L109.764 250.425C109.812 250.347 109.869 250.287 109.935 250.245C110.001 250.203 110.085 250.182 110.187 250.182C110.295 250.182 110.409 250.224 110.529 250.308C110.649 250.392 110.793 250.485 110.961 250.587C111.135 250.689 111.345 250.782 111.591 250.866C111.837 250.95 112.143 250.992 112.509 250.992C112.821 250.992 113.094 250.953 113.328 250.875C113.562 250.791 113.757 250.68 113.913 250.542C114.069 250.404 114.183 250.245 114.255 250.065C114.333 249.885 114.372 249.693 114.372 249.489C114.372 249.237 114.303 249.03 114.165 248.868C114.033 248.7 113.856 248.559 113.634 248.445C113.412 248.325 113.157 248.223 112.869 248.139C112.587 248.049 112.296 247.956 111.996 247.86C111.702 247.764 111.411 247.656 111.123 247.536C110.841 247.41 110.589 247.254 110.367 247.068C110.145 246.882 109.965 246.654 109.827 246.384C109.695 246.108 109.629 245.775 109.629 245.385C109.629 245.037 109.701 244.704 109.845 244.386C109.989 244.062 110.199 243.78 110.475 243.54C110.751 243.294 111.09 243.099 111.492 242.955C111.894 242.811 112.353 242.739 112.869 242.739C113.469 242.739 114.006 242.835 114.48 243.027C114.96 243.213 115.374 243.471 115.722 243.801L115.362 244.386ZM124.184 244.503C124.136 244.569 124.088 244.62 124.04 244.656C123.992 244.692 123.926 244.71 123.842 244.71C123.752 244.71 123.653 244.674 123.545 244.602C123.437 244.524 123.302 244.44 123.14 244.35C122.984 244.26 122.789 244.179 122.555 244.107C122.327 244.029 122.045 243.99 121.709 243.99C121.259 243.99 120.863 244.071 120.521 244.233C120.179 244.389 119.891 244.617 119.657 244.917C119.429 245.217 119.255 245.58 119.135 246.006C119.021 246.432 118.964 246.909 118.964 247.437C118.964 247.989 119.027 248.481 119.153 248.913C119.279 249.339 119.456 249.699 119.684 249.993C119.918 250.281 120.197 250.503 120.521 250.659C120.851 250.809 121.22 250.884 121.628 250.884C122.018 250.884 122.339 250.839 122.591 250.749C122.843 250.653 123.05 250.548 123.212 250.434C123.38 250.32 123.518 250.218 123.626 250.128C123.74 250.032 123.851 249.984 123.959 249.984C124.091 249.984 124.193 250.035 124.265 250.137L124.715 250.722C124.517 250.968 124.292 251.178 124.04 251.352C123.788 251.526 123.515 251.673 123.221 251.793C122.933 251.907 122.63 251.991 122.312 252.045C121.994 252.099 121.67 252.126 121.34 252.126C120.77 252.126 120.239 252.021 119.747 251.811C119.261 251.601 118.838 251.298 118.478 250.902C118.118 250.5 117.836 250.008 117.632 249.426C117.428 248.844 117.326 248.181 117.326 247.437C117.326 246.759 117.419 246.132 117.605 245.556C117.797 244.98 118.073 244.485 118.433 244.071C118.799 243.651 119.246 243.324 119.774 243.09C120.308 242.856 120.92 242.739 121.61 242.739C122.252 242.739 122.816 242.844 123.302 243.054C123.794 243.258 124.229 243.549 124.607 243.927L124.184 244.503ZM128.046 244.098C128.436 243.684 128.868 243.354 129.342 243.108C129.816 242.862 130.362 242.739 130.98 242.739C131.478 242.739 131.916 242.823 132.294 242.991C132.678 243.153 132.996 243.387 133.248 243.693C133.506 243.993 133.701 244.356 133.833 244.782C133.965 245.208 134.031 245.679 134.031 246.195V252H132.42V246.195C132.42 245.505 132.261 244.971 131.943 244.593C131.631 244.209 131.154 244.017 130.512 244.017C130.038 244.017 129.594 244.131 129.18 244.359C128.772 244.587 128.394 244.896 128.046 245.286V252H126.435V238.743H128.046V244.098ZM142.574 246.447C142.574 246.075 142.52 245.736 142.412 245.43C142.31 245.118 142.157 244.851 141.953 244.629C141.755 244.401 141.512 244.227 141.224 244.107C140.936 243.981 140.609 243.918 140.243 243.918C139.475 243.918 138.866 244.143 138.416 244.593C137.972 245.037 137.696 245.655 137.588 246.447H142.574ZM143.87 250.722C143.672 250.962 143.435 251.172 143.159 251.352C142.883 251.526 142.586 251.67 142.268 251.784C141.956 251.898 141.632 251.982 141.296 252.036C140.96 252.096 140.627 252.126 140.297 252.126C139.667 252.126 139.085 252.021 138.551 251.811C138.023 251.595 137.564 251.283 137.174 250.875C136.79 250.461 136.49 249.951 136.274 249.345C136.058 248.739 135.95 248.043 135.95 247.257C135.95 246.621 136.046 246.027 136.238 245.475C136.436 244.923 136.718 244.446 137.084 244.044C137.45 243.636 137.897 243.318 138.425 243.09C138.953 242.856 139.547 242.739 140.207 242.739C140.753 242.739 141.257 242.832 141.719 243.018C142.187 243.198 142.589 243.462 142.925 243.81C143.267 244.152 143.534 244.578 143.726 245.088C143.918 245.592 144.014 246.168 144.014 246.816C144.014 247.068 143.987 247.236 143.933 247.32C143.879 247.404 143.777 247.446 143.627 247.446H137.534C137.552 248.022 137.63 248.523 137.768 248.949C137.912 249.375 138.11 249.732 138.362 250.02C138.614 250.302 138.914 250.515 139.262 250.659C139.61 250.797 140 250.866 140.432 250.866C140.834 250.866 141.179 250.821 141.467 250.731C141.761 250.635 142.013 250.533 142.223 250.425C142.433 250.317 142.607 250.218 142.745 250.128C142.889 250.032 143.012 249.984 143.114 249.984C143.246 249.984 143.348 250.035 143.42 250.137L143.87 250.722ZM151.922 245.052C151.622 244.65 151.298 244.371 150.95 244.215C150.602 244.053 150.212 243.972 149.78 243.972C148.934 243.972 148.283 244.275 147.827 244.881C147.371 245.487 147.143 246.351 147.143 247.473C147.143 248.067 147.194 248.577 147.296 249.003C147.398 249.423 147.548 249.771 147.746 250.047C147.944 250.317 148.187 250.515 148.475 250.641C148.763 250.767 149.09 250.83 149.456 250.83C149.984 250.83 150.443 250.71 150.833 250.47C151.229 250.23 151.592 249.891 151.922 249.453V245.052ZM153.524 238.743V252H152.57C152.342 252 152.198 251.889 152.138 251.667L151.994 250.56C151.604 251.028 151.16 251.406 150.662 251.694C150.164 251.982 149.588 252.126 148.934 252.126C148.412 252.126 147.938 252.027 147.512 251.829C147.086 251.625 146.723 251.328 146.423 250.938C146.123 250.548 145.892 250.062 145.73 249.48C145.568 248.898 145.487 248.229 145.487 247.473C145.487 246.801 145.577 246.177 145.757 245.601C145.937 245.019 146.195 244.515 146.531 244.089C146.867 243.663 147.278 243.33 147.764 243.09C148.256 242.844 148.808 242.721 149.42 242.721C149.978 242.721 150.455 242.817 150.851 243.009C151.253 243.195 151.61 243.456 151.922 243.792V238.743H153.524ZM163.551 242.883V252H162.597C162.369 252 162.225 251.889 162.165 251.667L162.039 250.686C161.643 251.124 161.199 251.478 160.707 251.748C160.215 252.012 159.651 252.144 159.015 252.144C158.517 252.144 158.076 252.063 157.692 251.901C157.314 251.733 156.996 251.499 156.738 251.199C156.48 250.899 156.285 250.536 156.153 250.11C156.027 249.684 155.964 249.213 155.964 248.697V242.883H157.566V248.697C157.566 249.387 157.722 249.921 158.034 250.299C158.352 250.677 158.835 250.866 159.483 250.866C159.957 250.866 160.398 250.755 160.806 250.533C161.22 250.305 161.601 249.993 161.949 249.597V242.883H163.551ZM167.747 238.743V252H166.145V238.743H167.747ZM172.037 242.883V252H170.435V242.883H172.037ZM172.379 240.021C172.379 240.177 172.346 240.324 172.28 240.462C172.22 240.594 172.136 240.714 172.028 240.822C171.926 240.924 171.803 241.005 171.659 241.065C171.521 241.125 171.374 241.155 171.218 241.155C171.062 241.155 170.915 241.125 170.777 241.065C170.645 241.005 170.528 240.924 170.426 240.822C170.324 240.714 170.243 240.594 170.183 240.462C170.123 240.324 170.093 240.177 170.093 240.021C170.093 239.865 170.123 239.718 170.183 239.58C170.243 239.436 170.324 239.313 170.426 239.211C170.528 239.103 170.645 239.019 170.777 238.959C170.915 238.899 171.062 238.869 171.218 238.869C171.374 238.869 171.521 238.899 171.659 238.959C171.803 239.019 171.926 239.103 172.028 239.211C172.136 239.313 172.22 239.436 172.28 239.58C172.346 239.718 172.379 239.865 172.379 240.021ZM176.181 244.206C176.379 243.984 176.589 243.783 176.811 243.603C177.033 243.423 177.267 243.27 177.513 243.144C177.765 243.012 178.029 242.913 178.305 242.847C178.587 242.775 178.89 242.739 179.214 242.739C179.712 242.739 180.15 242.823 180.528 242.991C180.912 243.153 181.23 243.387 181.482 243.693C181.74 243.993 181.935 244.356 182.067 244.782C182.199 245.208 182.265 245.679 182.265 246.195V252H180.654V246.195C180.654 245.505 180.495 244.971 180.177 244.593C179.865 244.209 179.388 244.017 178.746 244.017C178.272 244.017 177.828 244.131 177.414 244.359C177.006 244.587 176.628 244.896 176.28 245.286V252H174.669V242.883H175.632C175.86 242.883 176.001 242.994 176.055 243.216L176.181 244.206ZM187.884 247.545C188.208 247.545 188.493 247.5 188.739 247.41C188.985 247.32 189.192 247.194 189.36 247.032C189.528 246.87 189.654 246.678 189.738 246.456C189.822 246.228 189.864 245.979 189.864 245.709C189.864 245.151 189.693 244.707 189.351 244.377C189.015 244.047 188.526 243.882 187.884 243.882C187.236 243.882 186.741 244.047 186.399 244.377C186.063 244.707 185.895 245.151 185.895 245.709C185.895 245.979 185.937 246.228 186.021 246.456C186.111 246.678 186.24 246.87 186.408 247.032C186.576 247.194 186.783 247.32 187.029 247.41C187.275 247.5 187.56 247.545 187.884 247.545ZM190.773 252.495C190.773 252.273 190.71 252.093 190.584 251.955C190.458 251.817 190.287 251.709 190.071 251.631C189.861 251.553 189.615 251.499 189.333 251.469C189.051 251.433 188.751 251.406 188.433 251.388C188.121 251.37 187.803 251.352 187.479 251.334C187.155 251.316 186.843 251.286 186.543 251.244C186.207 251.4 185.931 251.598 185.715 251.838C185.505 252.072 185.4 252.348 185.4 252.666C185.4 252.87 185.451 253.059 185.553 253.233C185.661 253.413 185.823 253.566 186.039 253.692C186.255 253.824 186.525 253.926 186.849 253.998C187.179 254.076 187.566 254.115 188.01 254.115C188.442 254.115 188.829 254.076 189.171 253.998C189.513 253.92 189.801 253.809 190.035 253.665C190.275 253.521 190.458 253.35 190.584 253.152C190.71 252.954 190.773 252.735 190.773 252.495ZM192.402 243.243V243.837C192.402 244.035 192.276 244.161 192.024 244.215L190.989 244.35C191.193 244.746 191.295 245.184 191.295 245.664C191.295 246.108 191.208 246.513 191.034 246.879C190.866 247.239 190.632 247.548 190.332 247.806C190.032 248.064 189.672 248.262 189.252 248.4C188.832 248.538 188.376 248.607 187.884 248.607C187.458 248.607 187.056 248.556 186.678 248.454C186.486 248.574 186.339 248.703 186.237 248.841C186.135 248.973 186.083 249.108 186.083 249.246C186.083 249.462 186.171 249.627 186.345 249.741C186.525 249.849 186.759 249.927 187.047 249.975C187.335 250.023 187.662 250.053 188.028 250.065C188.4 250.077 188.778 250.098 189.162 250.128C189.552 250.152 189.93 250.197 190.296 250.263C190.668 250.329 190.998 250.437 191.286 250.587C191.574 250.737 191.805 250.944 191.979 251.208C192.159 251.472 192.249 251.814 192.249 252.234C192.249 252.624 192.15 253.002 191.952 253.368C191.76 253.734 191.481 254.058 191.115 254.34C190.749 254.628 190.299 254.856 189.765 255.024C189.237 255.198 188.64 255.285 187.974 255.285C187.308 255.285 186.726 255.219 186.228 255.087C185.73 254.955 185.316 254.778 184.986 254.556C184.656 254.334 184.407 254.076 184.239 253.782C184.077 253.494 183.996 253.191 183.996 252.873C183.996 252.423 184.137 252.042 184.419 251.73C184.701 251.418 185.088 251.169 185.58 250.983C185.31 250.863 185.094 250.704 184.932 250.506C184.776 250.302 184.698 250.029 184.698 249.687C184.698 249.555 184.722 249.42 184.77 249.282C184.818 249.138 184.89 248.997 184.986 248.859C185.088 248.715 185.211 248.58 185.355 248.454C185.499 248.328 185.667 248.217 185.859 248.121C185.409 247.869 185.058 247.536 184.806 247.122C184.554 246.702 184.428 246.216 184.428 245.664C184.428 245.22 184.512 244.818 184.68 244.458C184.854 244.092 185.094 243.783 185.4 243.531C185.706 243.273 186.069 243.075 186.489 242.937C186.915 242.799 187.38 242.73 187.884 242.73C188.28 242.73 188.649 242.775 188.991 242.865C189.333 242.949 189.645 243.075 189.927 243.243H192.402ZM71.921 276.883V286H70.319V276.883H71.921ZM72.263 274.021C72.263 274.177 72.23 274.324 72.164 274.462C72.104 274.594 72.02 274.714 71.912 274.822C71.81 274.924 71.687 275.005 71.543 275.065C71.405 275.125 71.258 275.155 71.102 275.155C70.946 275.155 70.799 275.125 70.661 275.065C70.529 275.005 70.412 274.924 70.31 274.822C70.208 274.714 70.127 274.594 70.067 274.462C70.007 274.324 69.977 274.177 69.977 274.021C69.977 273.865 70.007 273.718 70.067 273.58C70.127 273.436 70.208 273.313 70.31 273.211C70.412 273.103 70.529 273.019 70.661 272.959C70.799 272.899 70.946 272.869 71.102 272.869C71.258 272.869 71.405 272.899 71.543 272.959C71.687 273.019 71.81 273.103 71.912 273.211C72.02 273.313 72.104 273.436 72.164 273.58C72.23 273.718 72.263 273.865 72.263 274.021ZM76.0652 278.206C76.2632 277.984 76.4732 277.783 76.6952 277.603C76.9172 277.423 77.1512 277.27 77.3972 277.144C77.6492 277.012 77.9132 276.913 78.1892 276.847C78.4712 276.775 78.7742 276.739 79.0982 276.739C79.5962 276.739 80.0342 276.823 80.4122 276.991C80.7962 277.153 81.1142 277.387 81.3662 277.693C81.6242 277.993 81.8192 278.356 81.9512 278.782C82.0832 279.208 82.1492 279.679 82.1492 280.195V286H80.5382V280.195C80.5382 279.505 80.3792 278.971 80.0612 278.593C79.7492 278.209 79.2722 278.017 78.6302 278.017C78.1562 278.017 77.7122 278.131 77.2982 278.359C76.8902 278.587 76.5122 278.896 76.1642 279.286V286H74.5532V276.883H75.5162C75.7442 276.883 75.8852 276.994 75.9392 277.216L76.0652 278.206ZM91.9948 286.144C91.2748 286.144 90.7198 285.943 90.3298 285.541C89.9458 285.139 89.7538 284.56 89.7538 283.804V278.224H88.6558C88.5598 278.224 88.4788 278.197 88.4128 278.143C88.3468 278.083 88.3138 277.993 88.3138 277.873V277.234L89.8078 277.045L90.1768 274.228C90.1948 274.138 90.2338 274.066 90.2938 274.012C90.3598 273.952 90.4438 273.922 90.5458 273.922H91.3558V277.063H93.9928V278.224H91.3558V283.696C91.3558 284.08 91.4488 284.365 91.6348 284.551C91.8208 284.737 92.0608 284.83 92.3548 284.83C92.5228 284.83 92.6668 284.809 92.7868 284.767C92.9128 284.719 93.0208 284.668 93.1108 284.614C93.2008 284.56 93.2758 284.512 93.3358 284.47C93.4018 284.422 93.4588 284.398 93.5068 284.398C93.5908 284.398 93.6658 284.449 93.7318 284.551L94.1998 285.316C93.9238 285.574 93.5908 285.778 93.2008 285.928C92.8108 286.072 92.4088 286.144 91.9948 286.144ZM100.588 281.896C99.8499 281.92 99.2199 281.98 98.6979 282.076C98.1819 282.166 97.7589 282.286 97.4289 282.436C97.1049 282.586 96.8679 282.763 96.7179 282.967C96.5739 283.171 96.5019 283.399 96.5019 283.651C96.5019 283.891 96.5409 284.098 96.6189 284.272C96.6969 284.446 96.8019 284.59 96.9339 284.704C97.0719 284.812 97.2309 284.893 97.4109 284.947C97.5969 284.995 97.7949 285.019 98.0049 285.019C98.2869 285.019 98.5449 284.992 98.7789 284.938C99.0129 284.878 99.2319 284.794 99.4359 284.686C99.6459 284.578 99.8439 284.449 100.03 284.299C100.222 284.149 100.408 283.978 100.588 283.786V281.896ZM95.4129 278.17C95.9169 277.684 96.4599 277.321 97.0419 277.081C97.6239 276.841 98.2689 276.721 98.9769 276.721C99.4869 276.721 99.9399 276.805 100.336 276.973C100.732 277.141 101.065 277.375 101.335 277.675C101.605 277.975 101.809 278.338 101.947 278.764C102.085 279.19 102.154 279.658 102.154 280.168V286H101.443C101.287 286 101.167 285.976 101.083 285.928C100.999 285.874 100.933 285.772 100.885 285.622L100.705 284.758C100.465 284.98 100.231 285.178 100.003 285.352C99.7749 285.52 99.5349 285.664 99.2829 285.784C99.0309 285.898 98.7609 285.985 98.4729 286.045C98.1909 286.111 97.8759 286.144 97.5279 286.144C97.1739 286.144 96.8409 286.096 96.5289 286C96.2169 285.898 95.9439 285.748 95.7099 285.55C95.4819 285.352 95.2989 285.103 95.1609 284.803C95.0289 284.497 94.9629 284.137 94.9629 283.723C94.9629 283.363 95.0619 283.018 95.2599 282.688C95.4579 282.352 95.7789 282.055 96.2229 281.797C96.6669 281.539 97.2459 281.329 97.9599 281.167C98.6739 280.999 99.5499 280.903 100.588 280.879V280.168C100.588 279.46 100.435 278.926 100.129 278.566C99.8229 278.2 99.3759 278.017 98.7879 278.017C98.3919 278.017 98.0589 278.068 97.7889 278.17C97.5249 278.266 97.2939 278.377 97.0959 278.503C96.9039 278.623 96.7359 278.734 96.5919 278.836C96.4539 278.932 96.3159 278.98 96.1779 278.98C96.0699 278.98 95.9769 278.953 95.8989 278.899C95.8209 278.839 95.7549 278.767 95.7009 278.683L95.4129 278.17ZM109.904 278.386C109.832 278.518 109.721 278.584 109.571 278.584C109.481 278.584 109.379 278.551 109.265 278.485C109.151 278.419 109.01 278.347 108.842 278.269C108.68 278.185 108.485 278.11 108.257 278.044C108.029 277.972 107.759 277.936 107.447 277.936C107.177 277.936 106.934 277.972 106.718 278.044C106.502 278.11 106.316 278.203 106.16 278.323C106.01 278.443 105.893 278.584 105.809 278.746C105.731 278.902 105.692 279.073 105.692 279.259C105.692 279.493 105.758 279.688 105.89 279.844C106.028 280 106.208 280.135 106.43 280.249C106.652 280.363 106.904 280.465 107.186 280.555C107.468 280.639 107.756 280.732 108.05 280.834C108.35 280.93 108.641 281.038 108.923 281.158C109.205 281.278 109.457 281.428 109.679 281.608C109.901 281.788 110.078 282.01 110.21 282.274C110.348 282.532 110.417 282.844 110.417 283.21C110.417 283.63 110.342 284.02 110.192 284.38C110.042 284.734 109.82 285.043 109.526 285.307C109.232 285.565 108.872 285.769 108.446 285.919C108.02 286.069 107.528 286.144 106.97 286.144C106.334 286.144 105.758 286.042 105.242 285.838C104.726 285.628 104.288 285.361 103.928 285.037L104.306 284.425C104.354 284.347 104.411 284.287 104.477 284.245C104.543 284.203 104.627 284.182 104.729 284.182C104.837 284.182 104.951 284.224 105.071 284.308C105.191 284.392 105.335 284.485 105.503 284.587C105.677 284.689 105.887 284.782 106.133 284.866C106.379 284.95 106.685 284.992 107.051 284.992C107.363 284.992 107.636 284.953 107.87 284.875C108.104 284.791 108.299 284.68 108.455 284.542C108.611 284.404 108.725 284.245 108.797 284.065C108.875 283.885 108.914 283.693 108.914 283.489C108.914 283.237 108.845 283.03 108.707 282.868C108.575 282.7 108.398 282.559 108.176 282.445C107.954 282.325 107.699 282.223 107.411 282.139C107.129 282.049 106.838 281.956 106.538 281.86C106.244 281.764 105.953 281.656 105.665 281.536C105.383 281.41 105.131 281.254 104.909 281.068C104.687 280.882 104.507 280.654 104.369 280.384C104.237 280.108 104.171 279.775 104.171 279.385C104.171 279.037 104.243 278.704 104.387 278.386C104.531 278.062 104.741 277.78 105.017 277.54C105.293 277.294 105.632 277.099 106.034 276.955C106.436 276.811 106.895 276.739 107.411 276.739C108.011 276.739 108.548 276.835 109.022 277.027C109.502 277.213 109.916 277.471 110.264 277.801L109.904 278.386ZM113.992 272.743V280.546H114.406C114.526 280.546 114.625 280.531 114.703 280.501C114.787 280.465 114.874 280.396 114.964 280.294L117.844 277.207C117.928 277.105 118.015 277.027 118.105 276.973C118.201 276.913 118.327 276.883 118.483 276.883H119.932L116.575 280.456C116.413 280.66 116.239 280.819 116.053 280.933C116.161 281.005 116.257 281.089 116.341 281.185C116.431 281.275 116.515 281.38 116.593 281.5L120.157 286H118.726C118.588 286 118.468 285.979 118.366 285.937C118.27 285.889 118.186 285.805 118.114 285.685L115.117 281.95C115.027 281.824 114.937 281.743 114.847 281.707C114.763 281.665 114.631 281.644 114.451 281.644H113.992V286H112.381V272.743H113.992ZM126.832 278.386C126.76 278.518 126.649 278.584 126.499 278.584C126.409 278.584 126.307 278.551 126.193 278.485C126.079 278.419 125.938 278.347 125.77 278.269C125.608 278.185 125.413 278.11 125.185 278.044C124.957 277.972 124.687 277.936 124.375 277.936C124.105 277.936 123.862 277.972 123.646 278.044C123.43 278.11 123.244 278.203 123.088 278.323C122.938 278.443 122.821 278.584 122.737 278.746C122.659 278.902 122.62 279.073 122.62 279.259C122.62 279.493 122.686 279.688 122.818 279.844C122.956 280 123.136 280.135 123.358 280.249C123.58 280.363 123.832 280.465 124.114 280.555C124.396 280.639 124.684 280.732 124.978 280.834C125.278 280.93 125.569 281.038 125.851 281.158C126.133 281.278 126.385 281.428 126.607 281.608C126.829 281.788 127.006 282.01 127.138 282.274C127.276 282.532 127.345 282.844 127.345 283.21C127.345 283.63 127.27 284.02 127.12 284.38C126.97 284.734 126.748 285.043 126.454 285.307C126.16 285.565 125.8 285.769 125.374 285.919C124.948 286.069 124.456 286.144 123.898 286.144C123.262 286.144 122.686 286.042 122.17 285.838C121.654 285.628 121.216 285.361 120.856 285.037L121.234 284.425C121.282 284.347 121.339 284.287 121.405 284.245C121.471 284.203 121.555 284.182 121.657 284.182C121.765 284.182 121.879 284.224 121.999 284.308C122.119 284.392 122.263 284.485 122.431 284.587C122.605 284.689 122.815 284.782 123.061 284.866C123.307 284.95 123.613 284.992 123.979 284.992C124.291 284.992 124.564 284.953 124.798 284.875C125.032 284.791 125.227 284.68 125.383 284.542C125.539 284.404 125.653 284.245 125.725 284.065C125.803 283.885 125.842 283.693 125.842 283.489C125.842 283.237 125.773 283.03 125.635 282.868C125.503 282.7 125.326 282.559 125.104 282.445C124.882 282.325 124.627 282.223 124.339 282.139C124.057 282.049 123.766 281.956 123.466 281.86C123.172 281.764 122.881 281.656 122.593 281.536C122.311 281.41 122.059 281.254 121.837 281.068C121.615 280.882 121.435 280.654 121.297 280.384C121.165 280.108 121.099 279.775 121.099 279.385C121.099 279.037 121.171 278.704 121.315 278.386C121.459 278.062 121.669 277.78 121.945 277.54C122.221 277.294 122.56 277.099 122.962 276.955C123.364 276.811 123.823 276.739 124.339 276.739C124.939 276.739 125.476 276.835 125.95 277.027C126.43 277.213 126.844 277.471 127.192 277.801L126.832 278.386Z" fill="black"/>
</svg>
