<svg width="197" height="241" viewBox="0 0 197 241" fill="none" xmlns="http://www.w3.org/2000/svg">
<path d="M116.385 47.8737C116.063 48.6152 115.967 49.4377 116.109 50.2351C116.251 51.0326 116.625 51.7685 117.182 52.3479L117.327 52.4954C117.777 52.952 118.133 53.4942 118.376 54.0911C118.619 54.688 118.745 55.3278 118.745 55.9739C118.745 56.62 118.619 57.2598 118.376 57.8567C118.133 58.4536 117.777 58.9958 117.327 59.4524C116.878 59.9096 116.345 60.2722 115.758 60.5197C115.172 60.7671 114.543 60.8944 113.908 60.8944C113.272 60.8944 112.643 60.7671 112.057 60.5197C111.47 60.2722 110.937 59.9096 110.488 59.4524L110.343 59.3049C109.773 58.7382 109.05 58.358 108.266 58.2134C107.482 58.0688 106.674 58.1665 105.945 58.4937C105.23 58.8053 104.62 59.3228 104.191 59.9823C103.761 60.6418 103.531 61.4147 103.528 62.2058V62.6237C103.528 63.9277 103.019 65.1782 102.112 66.1003C101.206 67.0224 99.9765 67.5404 98.6946 67.5404C97.4128 67.5404 96.1834 67.0224 95.277 66.1003C94.3705 65.1782 93.8613 63.9277 93.8613 62.6237V62.4024C93.8426 61.5888 93.5837 60.7996 93.1182 60.1376C92.6527 59.4756 92.0022 58.9713 91.2513 58.6904C90.5224 58.3631 89.7138 58.2655 88.9299 58.4101C88.1459 58.5547 87.4225 58.9349 86.853 59.5016L86.708 59.6491C86.2591 60.1063 85.726 60.4689 85.1393 60.7163C84.5525 60.9637 83.9236 61.0911 83.2884 61.0911C82.6532 61.0911 82.0243 60.9637 81.4375 60.7163C80.8507 60.4689 80.3177 60.1063 79.8688 59.6491C79.4194 59.1925 79.0629 58.6502 78.8197 58.0534C78.5764 57.4565 78.4513 56.8167 78.4513 56.1706C78.4513 55.5244 78.5764 54.8847 78.8197 54.2878C79.0629 53.6909 79.4194 53.1487 79.8688 52.692L80.0138 52.5445C80.5709 51.9652 80.9447 51.2293 81.0868 50.4318C81.229 49.6343 81.133 48.8118 80.8113 48.0704C80.505 47.3433 79.9963 46.7232 79.3479 46.2864C78.6996 45.8496 77.9398 45.6152 77.1621 45.612H76.7513C75.4694 45.612 74.24 45.094 73.3336 44.172C72.4272 43.2499 71.918 41.9993 71.918 40.6954C71.918 39.3914 72.4272 38.1408 73.3336 37.2188C74.24 36.2967 75.4694 35.7787 76.7513 35.7787H76.9688C77.7687 35.7597 78.5445 35.4963 79.1953 35.0228C79.8461 34.5493 80.3418 33.8876 80.618 33.1237C80.9397 32.3822 81.0356 31.5597 80.8935 30.7623C80.7513 29.9648 80.3776 29.2289 79.8205 28.6495L79.6755 28.502C79.2261 28.0454 78.8696 27.5032 78.6263 26.9063C78.3831 26.3094 78.2579 25.6696 78.2579 25.0235C78.2579 24.3774 78.3831 23.7376 78.6263 23.1407C78.8696 22.5438 79.2261 22.0016 79.6755 21.5449C80.1244 21.0878 80.6574 20.7252 81.2442 20.4777C81.8309 20.2303 82.4599 20.103 83.0951 20.103C83.7302 20.103 84.3592 20.2303 84.9459 20.4777C85.5327 20.7252 86.0657 21.0878 86.5146 21.5449L86.6596 21.6924C87.2292 22.2592 87.9526 22.6394 88.7365 22.784C89.5205 22.9286 90.3291 22.8309 91.058 22.5037H91.2513C91.9661 22.1921 92.5757 21.6746 93.0051 21.0151C93.4344 20.3555 93.6649 19.5827 93.668 18.7916V18.3737C93.668 17.0697 94.1772 15.8191 95.0836 14.8971C95.99 13.975 97.2194 13.457 98.5013 13.457C99.7832 13.457 101.013 13.975 101.919 14.8971C102.825 15.8191 103.335 17.0697 103.335 18.3737V18.5949C103.338 19.386 103.568 20.1589 103.998 20.8184C104.427 21.478 105.037 21.9954 105.751 22.307C106.48 22.6343 107.289 22.7319 108.073 22.5873C108.857 22.4427 109.58 22.0625 110.15 21.4958L110.295 21.3483C110.744 20.8911 111.277 20.5285 111.863 20.2811C112.45 20.0336 113.079 19.9063 113.714 19.9063C114.349 19.9063 114.978 20.0336 115.565 20.2811C116.152 20.5285 116.685 20.8911 117.134 21.3483C117.583 21.8049 117.94 22.3472 118.183 22.944C118.426 23.5409 118.551 24.1807 118.551 24.8268C118.551 25.4729 118.426 26.1127 118.183 26.7096C117.94 27.3065 117.583 27.8487 117.134 28.3054L116.989 28.4529C116.432 29.0322 116.058 29.7681 115.916 30.5656C115.774 31.3631 115.87 32.1856 116.191 32.927V33.1237C116.498 33.8508 117.006 34.4709 117.655 34.9077C118.303 35.3445 119.063 35.5789 119.84 35.582H120.251C121.533 35.582 122.763 36.1 123.669 37.0221C124.575 37.9441 125.085 39.1947 125.085 40.4987C125.085 41.8027 124.575 43.0533 123.669 43.9753C122.763 44.8974 121.533 45.4154 120.251 45.4154H120.034C119.256 45.4185 118.496 45.6529 117.848 46.0897C117.2 46.5265 116.691 47.1466 116.385 47.8737Z" fill="#F66700"/>
<path d="M98.5 47.875C102.504 47.875 105.75 44.5731 105.75 40.5C105.75 36.4269 102.504 33.125 98.5 33.125C94.4959 33.125 91.25 36.4269 91.25 40.5C91.25 44.5731 94.4959 47.875 98.5 47.875Z" fill="white" stroke="white" stroke-width="2" stroke-linecap="round" stroke-linejoin="round"/>
<path d="M29.454 102.79C29.952 102.79 30.39 102.724 30.768 102.592C31.152 102.46 31.473 102.277 31.731 102.043C31.995 101.803 32.193 101.518 32.325 101.188C32.457 100.858 32.523 100.495 32.523 100.099C32.523 99.277 32.268 98.635 31.758 98.173C31.254 97.711 30.486 97.48 29.454 97.48H27.384V102.79H29.454ZM29.454 96.103C30.27 96.103 30.978 96.199 31.578 96.391C32.184 96.577 32.685 96.844 33.081 97.192C33.477 97.54 33.771 97.96 33.963 98.452C34.161 98.944 34.26 99.493 34.26 100.099C34.26 100.699 34.155 101.248 33.945 101.746C33.735 102.244 33.426 102.673 33.018 103.033C32.616 103.393 32.115 103.675 31.515 103.879C30.921 104.077 30.234 104.176 29.454 104.176H27.384V109H25.647V96.103H29.454ZM37.4248 101.71C37.7128 101.086 38.0668 100.6 38.4868 100.252C38.9068 99.898 39.4198 99.721 40.0258 99.721C40.2178 99.721 40.4008 99.742 40.5748 99.784C40.7548 99.826 40.9138 99.892 41.0518 99.982L40.9348 101.179C40.8988 101.329 40.8088 101.404 40.6648 101.404C40.5808 101.404 40.4578 101.386 40.2958 101.35C40.1338 101.314 39.9508 101.296 39.7468 101.296C39.4588 101.296 39.2008 101.338 38.9728 101.422C38.7508 101.506 38.5498 101.632 38.3698 101.8C38.1958 101.962 38.0368 102.166 37.8928 102.412C37.7548 102.652 37.6288 102.928 37.5148 103.24V109H35.9038V99.883H36.8218C36.9958 99.883 37.1158 99.916 37.1818 99.982C37.2478 100.048 37.2928 100.162 37.3168 100.324L37.4248 101.71ZM45.9343 99.739C46.6003 99.739 47.2003 99.85 47.7343 100.072C48.2683 100.294 48.7243 100.609 49.1023 101.017C49.4803 101.425 49.7683 101.92 49.9663 102.502C50.1703 103.078 50.2723 103.723 50.2723 104.437C50.2723 105.157 50.1703 105.805 49.9663 106.381C49.7683 106.957 49.4803 107.449 49.1023 107.857C48.7243 108.265 48.2683 108.58 47.7343 108.802C47.2003 109.018 46.6003 109.126 45.9343 109.126C45.2623 109.126 44.6563 109.018 44.1163 108.802C43.5823 108.58 43.1263 108.265 42.7483 107.857C42.3703 107.449 42.0793 106.957 41.8753 106.381C41.6773 105.805 41.5783 105.157 41.5783 104.437C41.5783 103.723 41.6773 103.078 41.8753 102.502C42.0793 101.92 42.3703 101.425 42.7483 101.017C43.1263 100.609 43.5823 100.294 44.1163 100.072C44.6563 99.85 45.2623 99.739 45.9343 99.739ZM45.9343 107.875C46.8343 107.875 47.5063 107.575 47.9503 106.975C48.3943 106.369 48.6163 105.526 48.6163 104.446C48.6163 103.36 48.3943 102.514 47.9503 101.908C47.5063 101.302 46.8343 100.999 45.9343 100.999C45.4783 100.999 45.0793 101.077 44.7373 101.233C44.4013 101.389 44.1193 101.614 43.8913 101.908C43.6693 102.202 43.5013 102.565 43.3873 102.997C43.2793 103.423 43.2253 103.906 43.2253 104.446C43.2253 105.526 43.4473 106.369 43.8913 106.975C44.3413 107.575 45.0223 107.875 45.9343 107.875ZM53.9962 99.883V109.675C53.9962 110.041 53.9482 110.38 53.8522 110.692C53.7562 111.01 53.6032 111.286 53.3932 111.52C53.1832 111.754 52.9132 111.937 52.5832 112.069C52.2592 112.207 51.8692 112.276 51.4132 112.276C51.2212 112.276 51.0442 112.261 50.8822 112.231C50.7202 112.201 50.5582 112.156 50.3962 112.096L50.4592 111.232C50.4712 111.178 50.4922 111.136 50.5222 111.106C50.5462 111.082 50.5822 111.067 50.6302 111.061C50.6782 111.055 50.7412 111.052 50.8192 111.052C50.8912 111.058 50.9842 111.061 51.0982 111.061C51.5662 111.061 51.8992 110.95 52.0972 110.728C52.2952 110.512 52.3942 110.161 52.3942 109.675V99.883H53.9962ZM54.3292 97.021C54.3292 97.177 54.2962 97.324 54.2302 97.462C54.1702 97.594 54.0862 97.714 53.9782 97.822C53.8762 97.924 53.7562 98.005 53.6182 98.065C53.4802 98.125 53.3332 98.155 53.1772 98.155C53.0212 98.155 52.8742 98.125 52.7362 98.065C52.6042 98.005 52.4872 97.924 52.3852 97.822C52.2832 97.714 52.2022 97.594 52.1422 97.462C52.0822 97.324 52.0522 97.177 52.0522 97.021C52.0522 96.865 52.0822 96.718 52.1422 96.58C52.2022 96.436 52.2832 96.313 52.3852 96.211C52.4872 96.103 52.6042 96.019 52.7362 95.959C52.8742 95.899 53.0212 95.869 53.1772 95.869C53.3332 95.869 53.4802 95.899 53.6182 95.959C53.7562 96.019 53.8762 96.103 53.9782 96.211C54.0862 96.313 54.1702 96.436 54.2302 96.58C54.2962 96.718 54.3292 96.865 54.3292 97.021ZM62.7304 103.447C62.7304 103.075 62.6764 102.736 62.5684 102.43C62.4664 102.118 62.3134 101.851 62.1094 101.629C61.9114 101.401 61.6684 101.227 61.3804 101.107C61.0924 100.981 60.7654 100.918 60.3994 100.918C59.6314 100.918 59.0224 101.143 58.5724 101.593C58.1284 102.037 57.8524 102.655 57.7444 103.447H62.7304ZM64.0264 107.722C63.8284 107.962 63.5914 108.172 63.3154 108.352C63.0394 108.526 62.7424 108.67 62.4244 108.784C62.1124 108.898 61.7884 108.982 61.4524 109.036C61.1164 109.096 60.7834 109.126 60.4534 109.126C59.8234 109.126 59.2414 109.021 58.7074 108.811C58.1794 108.595 57.7204 108.283 57.3304 107.875C56.9464 107.461 56.6464 106.951 56.4304 106.345C56.2144 105.739 56.1064 105.043 56.1064 104.257C56.1064 103.621 56.2024 103.027 56.3944 102.475C56.5924 101.923 56.8744 101.446 57.2404 101.044C57.6064 100.636 58.0534 100.318 58.5814 100.09C59.1094 99.856 59.7034 99.739 60.3634 99.739C60.9094 99.739 61.4134 99.832 61.8754 100.018C62.3434 100.198 62.7454 100.462 63.0814 100.81C63.4234 101.152 63.6904 101.578 63.8824 102.088C64.0744 102.592 64.1704 103.168 64.1704 103.816C64.1704 104.068 64.1434 104.236 64.0894 104.32C64.0354 104.404 63.9334 104.446 63.7834 104.446H57.6904C57.7084 105.022 57.7864 105.523 57.9244 105.949C58.0684 106.375 58.2664 106.732 58.5184 107.02C58.7704 107.302 59.0704 107.515 59.4184 107.659C59.7664 107.797 60.1564 107.866 60.5884 107.866C60.9904 107.866 61.3354 107.821 61.6234 107.731C61.9174 107.635 62.1694 107.533 62.3794 107.425C62.5894 107.317 62.7634 107.218 62.9014 107.128C63.0454 107.032 63.1684 106.984 63.2704 106.984C63.4024 106.984 63.5044 107.035 63.5764 107.137L64.0264 107.722ZM72.4831 101.503C72.4351 101.569 72.3871 101.62 72.3391 101.656C72.2911 101.692 72.2251 101.71 72.1411 101.71C72.0511 101.71 71.9521 101.674 71.8441 101.602C71.7361 101.524 71.6011 101.44 71.4391 101.35C71.2831 101.26 71.0881 101.179 70.8541 101.107C70.6261 101.029 70.3441 100.99 70.0081 100.99C69.5581 100.99 69.1621 101.071 68.8201 101.233C68.4781 101.389 68.1901 101.617 67.9561 101.917C67.7281 102.217 67.5541 102.58 67.4341 103.006C67.3201 103.432 67.2631 103.909 67.2631 104.437C67.2631 104.989 67.3261 105.481 67.4521 105.913C67.5781 106.339 67.7551 106.699 67.9831 106.993C68.2171 107.281 68.4961 107.503 68.8201 107.659C69.1501 107.809 69.5191 107.884 69.9271 107.884C70.3171 107.884 70.6381 107.839 70.8901 107.749C71.1421 107.653 71.3491 107.548 71.5111 107.434C71.6791 107.32 71.8171 107.218 71.9251 107.128C72.0391 107.032 72.1501 106.984 72.2581 106.984C72.3901 106.984 72.4921 107.035 72.5641 107.137L73.0141 107.722C72.8161 107.968 72.5911 108.178 72.3391 108.352C72.0871 108.526 71.8141 108.673 71.5201 108.793C71.2321 108.907 70.9291 108.991 70.6111 109.045C70.2931 109.099 69.9691 109.126 69.6391 109.126C69.0691 109.126 68.5381 109.021 68.0461 108.811C67.5601 108.601 67.1371 108.298 66.7771 107.902C66.4171 107.5 66.1351 107.008 65.9311 106.426C65.7271 105.844 65.6251 105.181 65.6251 104.437C65.6251 103.759 65.7181 103.132 65.9041 102.556C66.0961 101.98 66.3721 101.485 66.7321 101.071C67.0981 100.651 67.5451 100.324 68.0731 100.09C68.6071 99.856 69.2191 99.739 69.9091 99.739C70.5511 99.739 71.1151 99.844 71.6011 100.054C72.0931 100.258 72.5281 100.549 72.9061 100.927L72.4831 101.503ZM77.5328 109.144C76.8128 109.144 76.2578 108.943 75.8678 108.541C75.4838 108.139 75.2918 107.56 75.2918 106.804V101.224H74.1938C74.0978 101.224 74.0168 101.197 73.9508 101.143C73.8848 101.083 73.8518 100.993 73.8518 100.873V100.234L75.3458 100.045L75.7148 97.228C75.7328 97.138 75.7718 97.066 75.8318 97.012C75.8978 96.952 75.9818 96.922 76.0838 96.922H76.8938V100.063H79.5308V101.224H76.8938V106.696C76.8938 107.08 76.9868 107.365 77.1728 107.551C77.3588 107.737 77.5988 107.83 77.8928 107.83C78.0608 107.83 78.2048 107.809 78.3248 107.767C78.4508 107.719 78.5588 107.668 78.6488 107.614C78.7388 107.56 78.8138 107.512 78.8738 107.47C78.9398 107.422 78.9968 107.398 79.0448 107.398C79.1288 107.398 79.2038 107.449 79.2698 107.551L79.7378 108.316C79.4618 108.574 79.1288 108.778 78.7388 108.928C78.3488 109.072 77.9468 109.144 77.5328 109.144ZM87.4015 106.804C87.6955 107.2 88.0165 107.479 88.3645 107.641C88.7185 107.803 89.1055 107.884 89.5255 107.884C90.3835 107.884 91.0405 107.581 91.4965 106.975C91.9525 106.369 92.1805 105.466 92.1805 104.266C92.1805 103.15 91.9765 102.331 91.5685 101.809C91.1665 101.281 90.5905 101.017 89.8405 101.017C89.3185 101.017 88.8625 101.137 88.4725 101.377C88.0885 101.617 87.7315 101.956 87.4015 102.394V106.804ZM87.4015 101.197C87.7855 100.753 88.2175 100.399 88.6975 100.135C89.1835 99.871 89.7415 99.739 90.3715 99.739C90.9055 99.739 91.3855 99.841 91.8115 100.045C92.2435 100.249 92.6095 100.546 92.9095 100.936C93.2095 101.32 93.4375 101.788 93.5935 102.34C93.7555 102.892 93.8365 103.513 93.8365 104.203C93.8365 104.941 93.7465 105.613 93.5665 106.219C93.3865 106.825 93.1255 107.344 92.7835 107.776C92.4475 108.202 92.0365 108.535 91.5505 108.775C91.0645 109.009 90.5185 109.126 89.9125 109.126C89.3125 109.126 88.8055 109.015 88.3915 108.793C87.9835 108.565 87.6265 108.244 87.3205 107.83L87.2395 108.658C87.1915 108.886 87.0535 109 86.8255 109H85.7905V95.743H87.4015V101.197ZM97.3838 101.71C97.6718 101.086 98.0258 100.6 98.4458 100.252C98.8658 99.898 99.3788 99.721 99.9848 99.721C100.177 99.721 100.36 99.742 100.534 99.784C100.714 99.826 100.873 99.892 101.011 99.982L100.894 101.179C100.858 101.329 100.768 101.404 100.624 101.404C100.54 101.404 100.417 101.386 100.255 101.35C100.093 101.314 99.9098 101.296 99.7058 101.296C99.4178 101.296 99.1598 101.338 98.9318 101.422C98.7098 101.506 98.5088 101.632 98.3288 101.8C98.1548 101.962 97.9958 102.166 97.8518 102.412C97.7138 102.652 97.5878 102.928 97.4738 103.24V109H95.8628V99.883H96.7808C96.9548 99.883 97.0748 99.916 97.1408 99.982C97.2068 100.048 97.2518 100.162 97.2758 100.324L97.3838 101.71ZM108.152 103.447C108.152 103.075 108.098 102.736 107.99 102.43C107.888 102.118 107.735 101.851 107.531 101.629C107.333 101.401 107.09 101.227 106.802 101.107C106.514 100.981 106.187 100.918 105.821 100.918C105.053 100.918 104.444 101.143 103.994 101.593C103.55 102.037 103.274 102.655 103.166 103.447H108.152ZM109.448 107.722C109.25 107.962 109.013 108.172 108.737 108.352C108.461 108.526 108.164 108.67 107.846 108.784C107.534 108.898 107.21 108.982 106.874 109.036C106.538 109.096 106.205 109.126 105.875 109.126C105.245 109.126 104.663 109.021 104.129 108.811C103.601 108.595 103.142 108.283 102.752 107.875C102.368 107.461 102.068 106.951 101.852 106.345C101.636 105.739 101.528 105.043 101.528 104.257C101.528 103.621 101.624 103.027 101.816 102.475C102.014 101.923 102.296 101.446 102.662 101.044C103.028 100.636 103.475 100.318 104.003 100.09C104.531 99.856 105.125 99.739 105.785 99.739C106.331 99.739 106.835 99.832 107.297 100.018C107.765 100.198 108.167 100.462 108.503 100.81C108.845 101.152 109.112 101.578 109.304 102.088C109.496 102.592 109.592 103.168 109.592 103.816C109.592 104.068 109.565 104.236 109.511 104.32C109.457 104.404 109.355 104.446 109.205 104.446H103.112C103.13 105.022 103.208 105.523 103.346 105.949C103.49 106.375 103.688 106.732 103.94 107.02C104.192 107.302 104.492 107.515 104.84 107.659C105.188 107.797 105.578 107.866 106.01 107.866C106.412 107.866 106.757 107.821 107.045 107.731C107.339 107.635 107.591 107.533 107.801 107.425C108.011 107.317 108.185 107.218 108.323 107.128C108.467 107.032 108.59 106.984 108.692 106.984C108.824 106.984 108.926 107.035 108.998 107.137L109.448 107.722ZM116.501 104.896C115.763 104.92 115.133 104.98 114.611 105.076C114.095 105.166 113.672 105.286 113.342 105.436C113.018 105.586 112.781 105.763 112.631 105.967C112.487 106.171 112.415 106.399 112.415 106.651C112.415 106.891 112.454 107.098 112.532 107.272C112.61 107.446 112.715 107.59 112.847 107.704C112.985 107.812 113.144 107.893 113.324 107.947C113.51 107.995 113.708 108.019 113.918 108.019C114.2 108.019 114.458 107.992 114.692 107.938C114.926 107.878 115.145 107.794 115.349 107.686C115.559 107.578 115.757 107.449 115.943 107.299C116.135 107.149 116.321 106.978 116.501 106.786V104.896ZM111.326 101.17C111.83 100.684 112.373 100.321 112.955 100.081C113.537 99.841 114.182 99.721 114.89 99.721C115.4 99.721 115.853 99.805 116.249 99.973C116.645 100.141 116.978 100.375 117.248 100.675C117.518 100.975 117.722 101.338 117.86 101.764C117.998 102.19 118.067 102.658 118.067 103.168V109H117.356C117.2 109 117.08 108.976 116.996 108.928C116.912 108.874 116.846 108.772 116.798 108.622L116.618 107.758C116.378 107.98 116.144 108.178 115.916 108.352C115.688 108.52 115.448 108.664 115.196 108.784C114.944 108.898 114.674 108.985 114.386 109.045C114.104 109.111 113.789 109.144 113.441 109.144C113.087 109.144 112.754 109.096 112.442 109C112.13 108.898 111.857 108.748 111.623 108.55C111.395 108.352 111.212 108.103 111.074 107.803C110.942 107.497 110.876 107.137 110.876 106.723C110.876 106.363 110.975 106.018 111.173 105.688C111.371 105.352 111.692 105.055 112.136 104.797C112.58 104.539 113.159 104.329 113.873 104.167C114.587 103.999 115.463 103.903 116.501 103.879V103.168C116.501 102.46 116.348 101.926 116.042 101.566C115.736 101.2 115.289 101.017 114.701 101.017C114.305 101.017 113.972 101.068 113.702 101.17C113.438 101.266 113.207 101.377 113.009 101.503C112.817 101.623 112.649 101.734 112.505 101.836C112.367 101.932 112.229 101.98 112.091 101.98C111.983 101.98 111.89 101.953 111.812 101.899C111.734 101.839 111.668 101.767 111.614 101.683L111.326 101.17ZM122.118 95.743V103.546H122.532C122.652 103.546 122.751 103.531 122.829 103.501C122.913 103.465 123 103.396 123.09 103.294L125.97 100.207C126.054 100.105 126.141 100.027 126.231 99.973C126.327 99.913 126.453 99.883 126.609 99.883H128.058L124.701 103.456C124.539 103.66 124.365 103.819 124.179 103.933C124.287 104.005 124.383 104.089 124.467 104.185C124.557 104.275 124.641 104.38 124.719 104.5L128.283 109H126.852C126.714 109 126.594 108.979 126.492 108.937C126.396 108.889 126.312 108.805 126.24 108.685L123.243 104.95C123.153 104.824 123.063 104.743 122.973 104.707C122.889 104.665 122.757 104.644 122.577 104.644H122.118V109H120.507V95.743H122.118ZM135.131 102.052C134.831 101.65 134.507 101.371 134.159 101.215C133.811 101.053 133.421 100.972 132.989 100.972C132.143 100.972 131.492 101.275 131.036 101.881C130.58 102.487 130.352 103.351 130.352 104.473C130.352 105.067 130.403 105.577 130.505 106.003C130.607 106.423 130.757 106.771 130.955 107.047C131.153 107.317 131.396 107.515 131.684 107.641C131.972 107.767 132.299 107.83 132.665 107.83C133.193 107.83 133.652 107.71 134.042 107.47C134.438 107.23 134.801 106.891 135.131 106.453V102.052ZM136.733 95.743V109H135.779C135.551 109 135.407 108.889 135.347 108.667L135.203 107.56C134.813 108.028 134.369 108.406 133.871 108.694C133.373 108.982 132.797 109.126 132.143 109.126C131.621 109.126 131.147 109.027 130.721 108.829C130.295 108.625 129.932 108.328 129.632 107.938C129.332 107.548 129.101 107.062 128.939 106.48C128.777 105.898 128.696 105.229 128.696 104.473C128.696 103.801 128.786 103.177 128.966 102.601C129.146 102.019 129.404 101.515 129.74 101.089C130.076 100.663 130.487 100.33 130.973 100.09C131.465 99.844 132.017 99.721 132.629 99.721C133.187 99.721 133.664 99.817 134.06 100.009C134.462 100.195 134.819 100.456 135.131 100.792V95.743H136.733ZM143.106 99.739C143.772 99.739 144.372 99.85 144.906 100.072C145.44 100.294 145.896 100.609 146.274 101.017C146.652 101.425 146.94 101.92 147.138 102.502C147.342 103.078 147.444 103.723 147.444 104.437C147.444 105.157 147.342 105.805 147.138 106.381C146.94 106.957 146.652 107.449 146.274 107.857C145.896 108.265 145.44 108.58 144.906 108.802C144.372 109.018 143.772 109.126 143.106 109.126C142.434 109.126 141.828 109.018 141.288 108.802C140.754 108.58 140.298 108.265 139.92 107.857C139.542 107.449 139.251 106.957 139.047 106.381C138.849 105.805 138.75 105.157 138.75 104.437C138.75 103.723 138.849 103.078 139.047 102.502C139.251 101.92 139.542 101.425 139.92 101.017C140.298 100.609 140.754 100.294 141.288 100.072C141.828 99.85 142.434 99.739 143.106 99.739ZM143.106 107.875C144.006 107.875 144.678 107.575 145.122 106.975C145.566 106.369 145.788 105.526 145.788 104.446C145.788 103.36 145.566 102.514 145.122 101.908C144.678 101.302 144.006 100.999 143.106 100.999C142.65 100.999 142.251 101.077 141.909 101.233C141.573 101.389 141.291 101.614 141.063 101.908C140.841 102.202 140.673 102.565 140.559 102.997C140.451 103.423 140.397 103.906 140.397 104.446C140.397 105.526 140.619 106.369 141.063 106.975C141.513 107.575 142.194 107.875 143.106 107.875ZM161.908 99.883L158.956 109H157.687C157.531 109 157.423 108.898 157.363 108.694L155.347 102.511C155.299 102.373 155.26 102.235 155.23 102.097C155.2 101.953 155.17 101.812 155.14 101.674C155.11 101.812 155.08 101.953 155.05 102.097C155.02 102.235 154.981 102.376 154.933 102.52L152.881 108.694C152.827 108.898 152.707 109 152.521 109H151.315L148.363 99.883H149.623C149.749 99.883 149.854 99.916 149.938 99.982C150.028 100.048 150.088 100.126 150.118 100.216L151.864 106.084C151.966 106.516 152.047 106.924 152.107 107.308C152.161 107.11 152.215 106.909 152.269 106.705C152.329 106.501 152.392 106.294 152.458 106.084L154.384 100.18C154.414 100.09 154.465 100.015 154.537 99.955C154.615 99.895 154.708 99.865 154.816 99.865H155.518C155.638 99.865 155.737 99.895 155.815 99.955C155.893 100.015 155.947 100.09 155.977 100.18L157.858 106.084C157.924 106.294 157.984 106.501 158.038 106.705C158.092 106.909 158.143 107.11 158.191 107.308C158.221 107.11 158.257 106.912 158.299 106.714C158.347 106.51 158.398 106.3 158.452 106.084L160.234 100.216C160.264 100.12 160.321 100.042 160.405 99.982C160.489 99.916 160.588 99.883 160.702 99.883H161.908ZM164.98 101.206C165.178 100.984 165.388 100.783 165.61 100.603C165.832 100.423 166.066 100.27 166.312 100.144C166.564 100.012 166.828 99.913 167.104 99.847C167.386 99.775 167.689 99.739 168.013 99.739C168.511 99.739 168.949 99.823 169.327 99.991C169.711 100.153 170.029 100.387 170.281 100.693C170.539 100.993 170.734 101.356 170.866 101.782C170.998 102.208 171.064 102.679 171.064 103.195V109H169.453V103.195C169.453 102.505 169.294 101.971 168.976 101.593C168.664 101.209 168.187 101.017 167.545 101.017C167.071 101.017 166.627 101.131 166.213 101.359C165.805 101.587 165.427 101.896 165.079 102.286V109H163.468V99.883H164.431C164.659 99.883 164.8 99.994 164.854 100.216L164.98 101.206Z" fill="black"/>
<path d="M37.7089 156.799V161.749C37.0609 162.217 36.3679 162.568 35.6299 162.802C34.8979 163.03 34.0939 163.144 33.2179 163.144C32.1799 163.144 31.2439 162.985 30.4099 162.667C29.5759 162.343 28.8619 161.893 28.2679 161.317C27.6799 160.735 27.2269 160.039 26.9089 159.229C26.5909 158.419 26.4319 157.528 26.4319 156.556C26.4319 155.572 26.5849 154.675 26.8909 153.865C27.2029 153.055 27.6439 152.362 28.2139 151.786C28.7839 151.204 29.4769 150.754 30.2929 150.436C31.1089 150.118 32.0209 149.959 33.0289 149.959C33.5389 149.959 34.0129 149.998 34.4509 150.076C34.8889 150.148 35.2939 150.256 35.6659 150.4C36.0379 150.538 36.3829 150.709 36.7009 150.913C37.0189 151.111 37.3159 151.336 37.5919 151.588L37.0969 152.38C37.0189 152.5 36.9169 152.578 36.7909 152.614C36.6709 152.644 36.5359 152.614 36.3859 152.524C36.2419 152.44 36.0769 152.338 35.8909 152.218C35.7049 152.098 35.4769 151.984 35.2069 151.876C34.9429 151.762 34.6279 151.666 34.2619 151.588C33.9019 151.51 33.4729 151.471 32.9749 151.471C32.2489 151.471 31.5919 151.591 31.0039 151.831C30.4159 152.065 29.9149 152.404 29.5009 152.848C29.0869 153.286 28.7689 153.82 28.5469 154.45C28.3249 155.074 28.2139 155.776 28.2139 156.556C28.2139 157.366 28.3279 158.092 28.5559 158.734C28.7899 159.37 29.1199 159.913 29.5459 160.363C29.9779 160.807 30.4999 161.146 31.1119 161.38C31.7239 161.614 32.4109 161.731 33.1729 161.731C33.7729 161.731 34.3039 161.665 34.7659 161.533C35.2339 161.395 35.6899 161.206 36.1339 160.966V158.131H34.1269C34.0129 158.131 33.9199 158.098 33.8479 158.032C33.7819 157.966 33.7489 157.885 33.7489 157.789V156.799H37.7089ZM41.6251 153.883V163H40.0231V153.883H41.6251ZM41.9671 151.021C41.9671 151.177 41.9341 151.324 41.8681 151.462C41.8081 151.594 41.7241 151.714 41.6161 151.822C41.5141 151.924 41.3911 152.005 41.2471 152.065C41.1091 152.125 40.9621 152.155 40.8061 152.155C40.6501 152.155 40.5031 152.125 40.3651 152.065C40.2331 152.005 40.1161 151.924 40.0141 151.822C39.9121 151.714 39.8311 151.594 39.7711 151.462C39.7111 151.324 39.6811 151.177 39.6811 151.021C39.6811 150.865 39.7111 150.718 39.7711 150.58C39.8311 150.436 39.9121 150.313 40.0141 150.211C40.1161 150.103 40.2331 150.019 40.3651 149.959C40.5031 149.899 40.6501 149.869 40.8061 149.869C40.9621 149.869 41.1091 149.899 41.2471 149.959C41.3911 150.019 41.5141 150.103 41.6161 150.211C41.7241 150.313 41.8081 150.436 41.8681 150.58C41.9341 150.718 41.9671 150.865 41.9671 151.021ZM52.0693 153.883L48.3523 163H46.9123L43.1953 153.883H44.5003C44.6323 153.883 44.7403 153.916 44.8243 153.982C44.9083 154.048 44.9653 154.126 44.9953 154.216L47.3083 160.084C47.3803 160.306 47.4433 160.522 47.4973 160.732C47.5513 160.942 47.6023 161.152 47.6503 161.362C47.6983 161.152 47.7493 160.942 47.8033 160.732C47.8573 160.522 47.9233 160.306 48.0013 160.084L50.3413 154.216C50.3773 154.12 50.4373 154.042 50.5213 153.982C50.6053 153.916 50.7043 153.883 50.8183 153.883H52.0693ZM59.3944 157.447C59.3944 157.075 59.3404 156.736 59.2324 156.43C59.1304 156.118 58.9774 155.851 58.7734 155.629C58.5754 155.401 58.3324 155.227 58.0444 155.107C57.7564 154.981 57.4294 154.918 57.0634 154.918C56.2954 154.918 55.6864 155.143 55.2364 155.593C54.7924 156.037 54.5164 156.655 54.4084 157.447H59.3944ZM60.6904 161.722C60.4924 161.962 60.2554 162.172 59.9794 162.352C59.7034 162.526 59.4064 162.67 59.0884 162.784C58.7764 162.898 58.4524 162.982 58.1164 163.036C57.7804 163.096 57.4474 163.126 57.1174 163.126C56.4874 163.126 55.9054 163.021 55.3714 162.811C54.8434 162.595 54.3844 162.283 53.9944 161.875C53.6104 161.461 53.3104 160.951 53.0944 160.345C52.8784 159.739 52.7704 159.043 52.7704 158.257C52.7704 157.621 52.8664 157.027 53.0584 156.475C53.2564 155.923 53.5384 155.446 53.9044 155.044C54.2704 154.636 54.7174 154.318 55.2454 154.09C55.7734 153.856 56.3674 153.739 57.0274 153.739C57.5734 153.739 58.0774 153.832 58.5394 154.018C59.0074 154.198 59.4094 154.462 59.7454 154.81C60.0874 155.152 60.3544 155.578 60.5464 156.088C60.7384 156.592 60.8344 157.168 60.8344 157.816C60.8344 158.068 60.8074 158.236 60.7534 158.32C60.6994 158.404 60.5974 158.446 60.4474 158.446H54.3544C54.3724 159.022 54.4504 159.523 54.5884 159.949C54.7324 160.375 54.9304 160.732 55.1824 161.02C55.4344 161.302 55.7344 161.515 56.0824 161.659C56.4304 161.797 56.8204 161.866 57.2524 161.866C57.6544 161.866 57.9994 161.821 58.2874 161.731C58.5814 161.635 58.8334 161.533 59.0434 161.425C59.2534 161.317 59.4274 161.218 59.5654 161.128C59.7094 161.032 59.8324 160.984 59.9344 160.984C60.0664 160.984 60.1684 161.035 60.2404 161.137L60.6904 161.722ZM72.7177 155.386C72.6457 155.518 72.5347 155.584 72.3847 155.584C72.2947 155.584 72.1927 155.551 72.0787 155.485C71.9647 155.419 71.8237 155.347 71.6557 155.269C71.4937 155.185 71.2987 155.11 71.0707 155.044C70.8427 154.972 70.5727 154.936 70.2607 154.936C69.9907 154.936 69.7477 154.972 69.5317 155.044C69.3157 155.11 69.1297 155.203 68.9737 155.323C68.8237 155.443 68.7067 155.584 68.6227 155.746C68.5447 155.902 68.5057 156.073 68.5057 156.259C68.5057 156.493 68.5717 156.688 68.7037 156.844C68.8417 157 69.0217 157.135 69.2437 157.249C69.4657 157.363 69.7177 157.465 69.9997 157.555C70.2817 157.639 70.5697 157.732 70.8637 157.834C71.1637 157.93 71.4547 158.038 71.7367 158.158C72.0187 158.278 72.2707 158.428 72.4927 158.608C72.7147 158.788 72.8917 159.01 73.0237 159.274C73.1617 159.532 73.2307 159.844 73.2307 160.21C73.2307 160.63 73.1557 161.02 73.0057 161.38C72.8557 161.734 72.6337 162.043 72.3397 162.307C72.0457 162.565 71.6857 162.769 71.2597 162.919C70.8337 163.069 70.3417 163.144 69.7837 163.144C69.1477 163.144 68.5717 163.042 68.0557 162.838C67.5397 162.628 67.1017 162.361 66.7417 162.037L67.1197 161.425C67.1677 161.347 67.2247 161.287 67.2907 161.245C67.3567 161.203 67.4407 161.182 67.5427 161.182C67.6507 161.182 67.7647 161.224 67.8847 161.308C68.0047 161.392 68.1487 161.485 68.3167 161.587C68.4907 161.689 68.7007 161.782 68.9467 161.866C69.1927 161.95 69.4987 161.992 69.8647 161.992C70.1767 161.992 70.4497 161.953 70.6837 161.875C70.9177 161.791 71.1127 161.68 71.2687 161.542C71.4247 161.404 71.5387 161.245 71.6107 161.065C71.6887 160.885 71.7277 160.693 71.7277 160.489C71.7277 160.237 71.6587 160.03 71.5207 159.868C71.3887 159.7 71.2117 159.559 70.9897 159.445C70.7677 159.325 70.5127 159.223 70.2247 159.139C69.9427 159.049 69.6517 158.956 69.3517 158.86C69.0577 158.764 68.7667 158.656 68.4787 158.536C68.1967 158.41 67.9447 158.254 67.7227 158.068C67.5007 157.882 67.3207 157.654 67.1827 157.384C67.0507 157.108 66.9847 156.775 66.9847 156.385C66.9847 156.037 67.0567 155.704 67.2007 155.386C67.3447 155.062 67.5547 154.78 67.8307 154.54C68.1067 154.294 68.4457 154.099 68.8477 153.955C69.2497 153.811 69.7087 153.739 70.2247 153.739C70.8247 153.739 71.3617 153.835 71.8357 154.027C72.3157 154.213 72.7297 154.471 73.0777 154.801L72.7177 155.386ZM77.9938 163.144C77.2738 163.144 76.7188 162.943 76.3288 162.541C75.9448 162.139 75.7528 161.56 75.7528 160.804V155.224H74.6548C74.5588 155.224 74.4778 155.197 74.4118 155.143C74.3458 155.083 74.3128 154.993 74.3128 154.873V154.234L75.8068 154.045L76.1758 151.228C76.1938 151.138 76.2328 151.066 76.2928 151.012C76.3588 150.952 76.4428 150.922 76.5448 150.922H77.3548V154.063H79.9918V155.224H77.3548V160.696C77.3548 161.08 77.4478 161.365 77.6338 161.551C77.8198 161.737 78.0598 161.83 78.3538 161.83C78.5218 161.83 78.6658 161.809 78.7858 161.767C78.9118 161.719 79.0198 161.668 79.1098 161.614C79.1998 161.56 79.2748 161.512 79.3348 161.47C79.4008 161.422 79.4578 161.398 79.5058 161.398C79.5898 161.398 79.6648 161.449 79.7308 161.551L80.1988 162.316C79.9228 162.574 79.5898 162.778 79.1998 162.928C78.8098 163.072 78.4078 163.144 77.9938 163.144ZM83.167 155.71C83.455 155.086 83.809 154.6 84.229 154.252C84.649 153.898 85.162 153.721 85.768 153.721C85.96 153.721 86.143 153.742 86.317 153.784C86.497 153.826 86.656 153.892 86.794 153.982L86.677 155.179C86.641 155.329 86.551 155.404 86.407 155.404C86.323 155.404 86.2 155.386 86.038 155.35C85.876 155.314 85.693 155.296 85.489 155.296C85.201 155.296 84.943 155.338 84.715 155.422C84.493 155.506 84.292 155.632 84.112 155.8C83.938 155.962 83.779 156.166 83.635 156.412C83.497 156.652 83.371 156.928 83.257 157.24V163H81.646V153.883H82.564C82.738 153.883 82.858 153.916 82.924 153.982C82.99 154.048 83.035 154.162 83.059 154.324L83.167 155.71ZM95.6996 153.883V163H94.7456C94.5176 163 94.3736 162.889 94.3136 162.667L94.1876 161.686C93.7916 162.124 93.3476 162.478 92.8556 162.748C92.3636 163.012 91.7996 163.144 91.1636 163.144C90.6656 163.144 90.2246 163.063 89.8406 162.901C89.4626 162.733 89.1446 162.499 88.8866 162.199C88.6286 161.899 88.4336 161.536 88.3016 161.11C88.1756 160.684 88.1126 160.213 88.1126 159.697V153.883H89.7146V159.697C89.7146 160.387 89.8706 160.921 90.1826 161.299C90.5006 161.677 90.9836 161.866 91.6316 161.866C92.1056 161.866 92.5466 161.755 92.9546 161.533C93.3686 161.305 93.7496 160.993 94.0976 160.597V153.883H95.6996ZM104.585 155.503C104.537 155.569 104.489 155.62 104.441 155.656C104.393 155.692 104.327 155.71 104.243 155.71C104.153 155.71 104.054 155.674 103.946 155.602C103.838 155.524 103.703 155.44 103.541 155.35C103.385 155.26 103.19 155.179 102.956 155.107C102.728 155.029 102.446 154.99 102.11 154.99C101.66 154.99 101.264 155.071 100.922 155.233C100.58 155.389 100.292 155.617 100.058 155.917C99.8297 156.217 99.6557 156.58 99.5357 157.006C99.4217 157.432 99.3647 157.909 99.3647 158.437C99.3647 158.989 99.4277 159.481 99.5537 159.913C99.6797 160.339 99.8567 160.699 100.085 160.993C100.319 161.281 100.598 161.503 100.922 161.659C101.252 161.809 101.621 161.884 102.029 161.884C102.419 161.884 102.74 161.839 102.992 161.749C103.244 161.653 103.451 161.548 103.613 161.434C103.781 161.32 103.919 161.218 104.027 161.128C104.141 161.032 104.252 160.984 104.36 160.984C104.492 160.984 104.594 161.035 104.666 161.137L105.116 161.722C104.918 161.968 104.693 162.178 104.441 162.352C104.189 162.526 103.916 162.673 103.622 162.793C103.334 162.907 103.031 162.991 102.713 163.045C102.395 163.099 102.071 163.126 101.741 163.126C101.171 163.126 100.64 163.021 100.148 162.811C99.6617 162.601 99.2387 162.298 98.8787 161.902C98.5187 161.5 98.2367 161.008 98.0327 160.426C97.8287 159.844 97.7267 159.181 97.7267 158.437C97.7267 157.759 97.8197 157.132 98.0057 156.556C98.1977 155.98 98.4737 155.485 98.8337 155.071C99.1997 154.651 99.6467 154.324 100.175 154.09C100.709 153.856 101.321 153.739 102.011 153.739C102.653 153.739 103.217 153.844 103.703 154.054C104.195 154.258 104.63 154.549 105.008 154.927L104.585 155.503ZM109.634 163.144C108.914 163.144 108.359 162.943 107.969 162.541C107.585 162.139 107.393 161.56 107.393 160.804V155.224H106.295C106.199 155.224 106.118 155.197 106.052 155.143C105.986 155.083 105.953 154.993 105.953 154.873V154.234L107.447 154.045L107.816 151.228C107.834 151.138 107.873 151.066 107.933 151.012C107.999 150.952 108.083 150.922 108.185 150.922H108.995V154.063H111.632V155.224H108.995V160.696C108.995 161.08 109.088 161.365 109.274 161.551C109.46 161.737 109.7 161.83 109.994 161.83C110.162 161.83 110.306 161.809 110.426 161.767C110.552 161.719 110.66 161.668 110.75 161.614C110.84 161.56 110.915 161.512 110.975 161.47C111.041 161.422 111.098 161.398 111.146 161.398C111.23 161.398 111.305 161.449 111.371 161.551L111.839 162.316C111.563 162.574 111.23 162.778 110.84 162.928C110.45 163.072 110.048 163.144 109.634 163.144ZM120.784 153.883V163H119.83C119.602 163 119.458 162.889 119.398 162.667L119.272 161.686C118.876 162.124 118.432 162.478 117.94 162.748C117.448 163.012 116.884 163.144 116.248 163.144C115.75 163.144 115.309 163.063 114.925 162.901C114.547 162.733 114.229 162.499 113.971 162.199C113.713 161.899 113.518 161.536 113.386 161.11C113.26 160.684 113.197 160.213 113.197 159.697V153.883H114.799V159.697C114.799 160.387 114.955 160.921 115.267 161.299C115.585 161.677 116.068 161.866 116.716 161.866C117.19 161.866 117.631 161.755 118.039 161.533C118.453 161.305 118.834 160.993 119.182 160.597V153.883H120.784ZM124.845 155.71C125.133 155.086 125.487 154.6 125.907 154.252C126.327 153.898 126.84 153.721 127.446 153.721C127.638 153.721 127.821 153.742 127.995 153.784C128.175 153.826 128.334 153.892 128.472 153.982L128.355 155.179C128.319 155.329 128.229 155.404 128.085 155.404C128.001 155.404 127.878 155.386 127.716 155.35C127.554 155.314 127.371 155.296 127.167 155.296C126.879 155.296 126.621 155.338 126.393 155.422C126.171 155.506 125.97 155.632 125.79 155.8C125.616 155.962 125.457 156.166 125.313 156.412C125.175 156.652 125.049 156.928 124.935 157.24V163H123.324V153.883H124.242C124.416 153.883 124.536 153.916 124.602 153.982C124.668 154.048 124.713 154.162 124.737 154.324L124.845 155.71ZM135.613 157.447C135.613 157.075 135.559 156.736 135.451 156.43C135.349 156.118 135.196 155.851 134.992 155.629C134.794 155.401 134.551 155.227 134.263 155.107C133.975 154.981 133.648 154.918 133.282 154.918C132.514 154.918 131.905 155.143 131.455 155.593C131.011 156.037 130.735 156.655 130.627 157.447H135.613ZM136.909 161.722C136.711 161.962 136.474 162.172 136.198 162.352C135.922 162.526 135.625 162.67 135.307 162.784C134.995 162.898 134.671 162.982 134.335 163.036C133.999 163.096 133.666 163.126 133.336 163.126C132.706 163.126 132.124 163.021 131.59 162.811C131.062 162.595 130.603 162.283 130.213 161.875C129.829 161.461 129.529 160.951 129.313 160.345C129.097 159.739 128.989 159.043 128.989 158.257C128.989 157.621 129.085 157.027 129.277 156.475C129.475 155.923 129.757 155.446 130.123 155.044C130.489 154.636 130.936 154.318 131.464 154.09C131.992 153.856 132.586 153.739 133.246 153.739C133.792 153.739 134.296 153.832 134.758 154.018C135.226 154.198 135.628 154.462 135.964 154.81C136.306 155.152 136.573 155.578 136.765 156.088C136.957 156.592 137.053 157.168 137.053 157.816C137.053 158.068 137.026 158.236 136.972 158.32C136.918 158.404 136.816 158.446 136.666 158.446H130.573C130.591 159.022 130.669 159.523 130.807 159.949C130.951 160.375 131.149 160.732 131.401 161.02C131.653 161.302 131.953 161.515 132.301 161.659C132.649 161.797 133.039 161.866 133.471 161.866C133.873 161.866 134.218 161.821 134.506 161.731C134.8 161.635 135.052 161.533 135.262 161.425C135.472 161.317 135.646 161.218 135.784 161.128C135.928 161.032 136.051 160.984 136.153 160.984C136.285 160.984 136.387 161.035 136.459 161.137L136.909 161.722ZM148.567 158.896C147.829 158.92 147.199 158.98 146.677 159.076C146.161 159.166 145.738 159.286 145.408 159.436C145.084 159.586 144.847 159.763 144.697 159.967C144.553 160.171 144.481 160.399 144.481 160.651C144.481 160.891 144.52 161.098 144.598 161.272C144.676 161.446 144.781 161.59 144.913 161.704C145.051 161.812 145.21 161.893 145.39 161.947C145.576 161.995 145.774 162.019 145.984 162.019C146.266 162.019 146.524 161.992 146.758 161.938C146.992 161.878 147.211 161.794 147.415 161.686C147.625 161.578 147.823 161.449 148.009 161.299C148.201 161.149 148.387 160.978 148.567 160.786V158.896ZM143.392 155.17C143.896 154.684 144.439 154.321 145.021 154.081C145.603 153.841 146.248 153.721 146.956 153.721C147.466 153.721 147.919 153.805 148.315 153.973C148.711 154.141 149.044 154.375 149.314 154.675C149.584 154.975 149.788 155.338 149.926 155.764C150.064 156.19 150.133 156.658 150.133 157.168V163H149.422C149.266 163 149.146 162.976 149.062 162.928C148.978 162.874 148.912 162.772 148.864 162.622L148.684 161.758C148.444 161.98 148.21 162.178 147.982 162.352C147.754 162.52 147.514 162.664 147.262 162.784C147.01 162.898 146.74 162.985 146.452 163.045C146.17 163.111 145.855 163.144 145.507 163.144C145.153 163.144 144.82 163.096 144.508 163C144.196 162.898 143.923 162.748 143.689 162.55C143.461 162.352 143.278 162.103 143.14 161.803C143.008 161.497 142.942 161.137 142.942 160.723C142.942 160.363 143.041 160.018 143.239 159.688C143.437 159.352 143.758 159.055 144.202 158.797C144.646 158.539 145.225 158.329 145.939 158.167C146.653 157.999 147.529 157.903 148.567 157.879V157.168C148.567 156.46 148.414 155.926 148.108 155.566C147.802 155.2 147.355 155.017 146.767 155.017C146.371 155.017 146.038 155.068 145.768 155.17C145.504 155.266 145.273 155.377 145.075 155.503C144.883 155.623 144.715 155.734 144.571 155.836C144.433 155.932 144.295 155.98 144.157 155.98C144.049 155.98 143.956 155.953 143.878 155.899C143.8 155.839 143.734 155.767 143.68 155.683L143.392 155.17ZM154.086 155.206C154.284 154.984 154.494 154.783 154.716 154.603C154.938 154.423 155.172 154.27 155.418 154.144C155.67 154.012 155.934 153.913 156.21 153.847C156.492 153.775 156.795 153.739 157.119 153.739C157.617 153.739 158.055 153.823 158.433 153.991C158.817 154.153 159.135 154.387 159.387 154.693C159.645 154.993 159.84 155.356 159.972 155.782C160.104 156.208 160.17 156.679 160.17 157.195V163H158.559V157.195C158.559 156.505 158.4 155.971 158.082 155.593C157.77 155.209 157.293 155.017 156.651 155.017C156.177 155.017 155.733 155.131 155.319 155.359C154.911 155.587 154.533 155.896 154.185 156.286V163H152.574V153.883H153.537C153.765 153.883 153.906 153.994 153.96 154.216L154.086 155.206ZM168.551 156.052C168.251 155.65 167.927 155.371 167.579 155.215C167.231 155.053 166.841 154.972 166.409 154.972C165.563 154.972 164.912 155.275 164.456 155.881C164 156.487 163.772 157.351 163.772 158.473C163.772 159.067 163.823 159.577 163.925 160.003C164.027 160.423 164.177 160.771 164.375 161.047C164.573 161.317 164.816 161.515 165.104 161.641C165.392 161.767 165.719 161.83 166.085 161.83C166.613 161.83 167.072 161.71 167.462 161.47C167.858 161.23 168.221 160.891 168.551 160.453V156.052ZM170.153 149.743V163H169.199C168.971 163 168.827 162.889 168.767 162.667L168.623 161.56C168.233 162.028 167.789 162.406 167.291 162.694C166.793 162.982 166.217 163.126 165.563 163.126C165.041 163.126 164.567 163.027 164.141 162.829C163.715 162.625 163.352 162.328 163.052 161.938C162.752 161.548 162.521 161.062 162.359 160.48C162.197 159.898 162.116 159.229 162.116 158.473C162.116 157.801 162.206 157.177 162.386 156.601C162.566 156.019 162.824 155.515 163.16 155.089C163.496 154.663 163.907 154.33 164.393 154.09C164.885 153.844 165.437 153.721 166.049 153.721C166.607 153.721 167.084 153.817 167.48 154.009C167.882 154.195 168.239 154.456 168.551 154.792V149.743H170.153ZM9.39325 187.739C10.0593 187.739 10.6593 187.85 11.1933 188.072C11.7273 188.294 12.1833 188.609 12.5613 189.017C12.9393 189.425 13.2273 189.92 13.4253 190.502C13.6293 191.078 13.7313 191.723 13.7313 192.437C13.7313 193.157 13.6293 193.805 13.4253 194.381C13.2273 194.957 12.9393 195.449 12.5613 195.857C12.1833 196.265 11.7273 196.58 11.1933 196.802C10.6593 197.018 10.0593 197.126 9.39325 197.126C8.72125 197.126 8.11525 197.018 7.57525 196.802C7.04125 196.58 6.58525 196.265 6.20725 195.857C5.82925 195.449 5.53825 194.957 5.33425 194.381C5.13625 193.805 5.03725 193.157 5.03725 192.437C5.03725 191.723 5.13625 191.078 5.33425 190.502C5.53825 189.92 5.82925 189.425 6.20725 189.017C6.58525 188.609 7.04125 188.294 7.57525 188.072C8.11525 187.85 8.72125 187.739 9.39325 187.739ZM9.39325 195.875C10.2933 195.875 10.9653 195.575 11.4093 194.975C11.8533 194.369 12.0753 193.526 12.0753 192.446C12.0753 191.36 11.8533 190.514 11.4093 189.908C10.9653 189.302 10.2933 188.999 9.39325 188.999C8.93725 188.999 8.53825 189.077 8.19625 189.233C7.86025 189.389 7.57825 189.614 7.35025 189.908C7.12825 190.202 6.96025 190.565 6.84625 190.997C6.73825 191.423 6.68425 191.906 6.68425 192.446C6.68425 193.526 6.90625 194.369 7.35025 194.975C7.80025 195.575 8.48125 195.875 9.39325 195.875ZM17.2841 189.71C17.5721 189.086 17.9261 188.6 18.3461 188.252C18.7661 187.898 19.2791 187.721 19.8851 187.721C20.0771 187.721 20.2601 187.742 20.4341 187.784C20.6141 187.826 20.7731 187.892 20.9111 187.982L20.7941 189.179C20.7581 189.329 20.6681 189.404 20.5241 189.404C20.4401 189.404 20.3171 189.386 20.1551 189.35C19.9931 189.314 19.8101 189.296 19.6061 189.296C19.3181 189.296 19.0601 189.338 18.8321 189.422C18.6101 189.506 18.4091 189.632 18.2291 189.8C18.0551 189.962 17.8961 190.166 17.7521 190.412C17.6141 190.652 17.4881 190.928 17.3741 191.24V197H15.7631V187.883H16.6811C16.8551 187.883 16.9751 187.916 17.0411 187.982C17.1071 188.048 17.1521 188.162 17.1761 188.324L17.2841 189.71ZM25.2858 192.545C25.6098 192.545 25.8948 192.5 26.1408 192.41C26.3868 192.32 26.5938 192.194 26.7618 192.032C26.9298 191.87 27.0558 191.678 27.1398 191.456C27.2238 191.228 27.2658 190.979 27.2658 190.709C27.2658 190.151 27.0948 189.707 26.7528 189.377C26.4168 189.047 25.9278 188.882 25.2858 188.882C24.6378 188.882 24.1428 189.047 23.8008 189.377C23.4648 189.707 23.2968 190.151 23.2968 190.709C23.2968 190.979 23.3388 191.228 23.4228 191.456C23.5128 191.678 23.6418 191.87 23.8098 192.032C23.9778 192.194 24.1848 192.32 24.4308 192.41C24.6768 192.5 24.9618 192.545 25.2858 192.545ZM28.1748 197.495C28.1748 197.273 28.1118 197.093 27.9858 196.955C27.8598 196.817 27.6888 196.709 27.4728 196.631C27.2628 196.553 27.0168 196.499 26.7348 196.469C26.4528 196.433 26.1528 196.406 25.8348 196.388C25.5228 196.37 25.2048 196.352 24.8808 196.334C24.5568 196.316 24.2448 196.286 23.9448 196.244C23.6088 196.4 23.3328 196.598 23.1168 196.838C22.9068 197.072 22.8018 197.348 22.8018 197.666C22.8018 197.87 22.8528 198.059 22.9548 198.233C23.0628 198.413 23.2248 198.566 23.4408 198.692C23.6568 198.824 23.9268 198.926 24.2508 198.998C24.5808 199.076 24.9678 199.115 25.4118 199.115C25.8438 199.115 26.2308 199.076 26.5728 198.998C26.9148 198.92 27.2028 198.809 27.4368 198.665C27.6768 198.521 27.8598 198.35 27.9858 198.152C28.1118 197.954 28.1748 197.735 28.1748 197.495ZM29.8038 188.243V188.837C29.8038 189.035 29.6778 189.161 29.4258 189.215L28.3908 189.35C28.5948 189.746 28.6968 190.184 28.6968 190.664C28.6968 191.108 28.6098 191.513 28.4358 191.879C28.2678 192.239 28.0338 192.548 27.7338 192.806C27.4338 193.064 27.0738 193.262 26.6538 193.4C26.2338 193.538 25.7778 193.607 25.2858 193.607C24.8598 193.607 24.4578 193.556 24.0798 193.454C23.8878 193.574 23.7408 193.703 23.6388 193.841C23.5368 193.973 23.4858 194.108 23.4858 194.246C23.4858 194.462 23.5728 194.627 23.7468 194.741C23.9268 194.849 24.1608 194.927 24.4488 194.975C24.7368 195.023 25.0638 195.053 25.4298 195.065C25.8018 195.077 26.1798 195.098 26.5638 195.128C26.9538 195.152 27.3318 195.197 27.6978 195.263C28.0698 195.329 28.3998 195.437 28.6878 195.587C28.9758 195.737 29.2068 195.944 29.3808 196.208C29.5608 196.472 29.6508 196.814 29.6508 197.234C29.6508 197.624 29.5518 198.002 29.3538 198.368C29.1618 198.734 28.8828 199.058 28.5168 199.34C28.1508 199.628 27.7008 199.856 27.1668 200.024C26.6388 200.198 26.0418 200.285 25.3758 200.285C24.7098 200.285 24.1278 200.219 23.6298 200.087C23.1318 199.955 22.7178 199.778 22.3878 199.556C22.0578 199.334 21.8088 199.076 21.6408 198.782C21.4788 198.494 21.3978 198.191 21.3978 197.873C21.3978 197.423 21.5388 197.042 21.8208 196.73C22.1028 196.418 22.4898 196.169 22.9818 195.983C22.7118 195.863 22.4958 195.704 22.3338 195.506C22.1778 195.302 22.0998 195.029 22.0998 194.687C22.0998 194.555 22.1238 194.42 22.1718 194.282C22.2198 194.138 22.2918 193.997 22.3878 193.859C22.4898 193.715 22.6128 193.58 22.7568 193.454C22.9008 193.328 23.0688 193.217 23.2608 193.121C22.8108 192.869 22.4598 192.536 22.2078 192.122C21.9558 191.702 21.8298 191.216 21.8298 190.664C21.8298 190.22 21.9138 189.818 22.0818 189.458C22.2558 189.092 22.4958 188.783 22.8018 188.531C23.1078 188.273 23.4708 188.075 23.8908 187.937C24.3168 187.799 24.7818 187.73 25.2858 187.73C25.6818 187.73 26.0508 187.775 26.3928 187.865C26.7348 187.949 27.0468 188.075 27.3288 188.243H29.8038ZM36.4014 192.896C35.6634 192.92 35.0334 192.98 34.5114 193.076C33.9954 193.166 33.5724 193.286 33.2424 193.436C32.9184 193.586 32.6814 193.763 32.5314 193.967C32.3874 194.171 32.3154 194.399 32.3154 194.651C32.3154 194.891 32.3544 195.098 32.4324 195.272C32.5104 195.446 32.6154 195.59 32.7474 195.704C32.8854 195.812 33.0444 195.893 33.2244 195.947C33.4104 195.995 33.6084 196.019 33.8184 196.019C34.1004 196.019 34.3584 195.992 34.5924 195.938C34.8264 195.878 35.0454 195.794 35.2494 195.686C35.4594 195.578 35.6574 195.449 35.8434 195.299C36.0354 195.149 36.2214 194.978 36.4014 194.786V192.896ZM31.2264 189.17C31.7304 188.684 32.2734 188.321 32.8554 188.081C33.4374 187.841 34.0824 187.721 34.7904 187.721C35.3004 187.721 35.7534 187.805 36.1494 187.973C36.5454 188.141 36.8784 188.375 37.1484 188.675C37.4184 188.975 37.6224 189.338 37.7604 189.764C37.8984 190.19 37.9674 190.658 37.9674 191.168V197H37.2564C37.1004 197 36.9804 196.976 36.8964 196.928C36.8124 196.874 36.7464 196.772 36.6984 196.622L36.5184 195.758C36.2784 195.98 36.0444 196.178 35.8164 196.352C35.5884 196.52 35.3484 196.664 35.0964 196.784C34.8444 196.898 34.5744 196.985 34.2864 197.045C34.0044 197.111 33.6894 197.144 33.3414 197.144C32.9874 197.144 32.6544 197.096 32.3424 197C32.0304 196.898 31.7574 196.748 31.5234 196.55C31.2954 196.352 31.1124 196.103 30.9744 195.803C30.8424 195.497 30.7764 195.137 30.7764 194.723C30.7764 194.363 30.8754 194.018 31.0734 193.688C31.2714 193.352 31.5924 193.055 32.0364 192.797C32.4804 192.539 33.0594 192.329 33.7734 192.167C34.4874 191.999 35.3634 191.903 36.4014 191.879V191.168C36.4014 190.46 36.2484 189.926 35.9424 189.566C35.6364 189.2 35.1894 189.017 34.6014 189.017C34.2054 189.017 33.8724 189.068 33.6024 189.17C33.3384 189.266 33.1074 189.377 32.9094 189.503C32.7174 189.623 32.5494 189.734 32.4054 189.836C32.2674 189.932 32.1294 189.98 31.9914 189.98C31.8834 189.98 31.7904 189.953 31.7124 189.899C31.6344 189.839 31.5684 189.767 31.5144 189.683L31.2264 189.17ZM41.9197 189.206C42.1177 188.984 42.3277 188.783 42.5497 188.603C42.7717 188.423 43.0057 188.27 43.2517 188.144C43.5037 188.012 43.7677 187.913 44.0437 187.847C44.3257 187.775 44.6287 187.739 44.9527 187.739C45.4507 187.739 45.8887 187.823 46.2667 187.991C46.6507 188.153 46.9687 188.387 47.2207 188.693C47.4787 188.993 47.6737 189.356 47.8057 189.782C47.9377 190.208 48.0037 190.679 48.0037 191.195V197H46.3927V191.195C46.3927 190.505 46.2337 189.971 45.9157 189.593C45.6037 189.209 45.1267 189.017 44.4847 189.017C44.0107 189.017 43.5667 189.131 43.1527 189.359C42.7447 189.587 42.3667 189.896 42.0187 190.286V197H40.4077V187.883H41.3707C41.5987 187.883 41.7397 187.994 41.7937 188.216L41.9197 189.206ZM52.1368 187.883V197H50.5348V187.883H52.1368ZM52.4788 185.021C52.4788 185.177 52.4458 185.324 52.3798 185.462C52.3198 185.594 52.2358 185.714 52.1278 185.822C52.0258 185.924 51.9028 186.005 51.7588 186.065C51.6208 186.125 51.4738 186.155 51.3178 186.155C51.1618 186.155 51.0148 186.125 50.8768 186.065C50.7448 186.005 50.6278 185.924 50.5258 185.822C50.4238 185.714 50.3428 185.594 50.2828 185.462C50.2228 185.324 50.1928 185.177 50.1928 185.021C50.1928 184.865 50.2228 184.718 50.2828 184.58C50.3428 184.436 50.4238 184.313 50.5258 184.211C50.6278 184.103 50.7448 184.019 50.8768 183.959C51.0148 183.899 51.1618 183.869 51.3178 183.869C51.4738 183.869 51.6208 183.899 51.7588 183.959C51.9028 184.019 52.0258 184.103 52.1278 184.211C52.2358 184.313 52.3198 184.436 52.3798 184.58C52.4458 184.718 52.4788 184.865 52.4788 185.021ZM61.06 188.567C61.06 188.681 61.039 188.792 60.997 188.9C60.961 189.008 60.91 189.101 60.844 189.179L55.903 195.749H60.889V197H54.022V196.334C54.022 196.256 54.04 196.166 54.076 196.064C54.112 195.956 54.166 195.854 54.238 195.758L59.206 189.143H54.301V187.883H61.06V188.567ZM67.8487 192.896C67.1107 192.92 66.4807 192.98 65.9587 193.076C65.4427 193.166 65.0197 193.286 64.6897 193.436C64.3657 193.586 64.1287 193.763 63.9787 193.967C63.8347 194.171 63.7627 194.399 63.7627 194.651C63.7627 194.891 63.8017 195.098 63.8797 195.272C63.9577 195.446 64.0627 195.59 64.1947 195.704C64.3327 195.812 64.4917 195.893 64.6717 195.947C64.8577 195.995 65.0557 196.019 65.2657 196.019C65.5477 196.019 65.8057 195.992 66.0397 195.938C66.2737 195.878 66.4927 195.794 66.6967 195.686C66.9067 195.578 67.1047 195.449 67.2907 195.299C67.4827 195.149 67.6687 194.978 67.8487 194.786V192.896ZM62.6737 189.17C63.1777 188.684 63.7207 188.321 64.3027 188.081C64.8847 187.841 65.5297 187.721 66.2377 187.721C66.7477 187.721 67.2007 187.805 67.5967 187.973C67.9927 188.141 68.3257 188.375 68.5957 188.675C68.8657 188.975 69.0697 189.338 69.2077 189.764C69.3457 190.19 69.4147 190.658 69.4147 191.168V197H68.7037C68.5477 197 68.4277 196.976 68.3437 196.928C68.2597 196.874 68.1937 196.772 68.1457 196.622L67.9657 195.758C67.7257 195.98 67.4917 196.178 67.2637 196.352C67.0357 196.52 66.7957 196.664 66.5437 196.784C66.2917 196.898 66.0217 196.985 65.7337 197.045C65.4517 197.111 65.1367 197.144 64.7887 197.144C64.4347 197.144 64.1017 197.096 63.7897 197C63.4777 196.898 63.2047 196.748 62.9707 196.55C62.7427 196.352 62.5597 196.103 62.4217 195.803C62.2897 195.497 62.2237 195.137 62.2237 194.723C62.2237 194.363 62.3227 194.018 62.5207 193.688C62.7187 193.352 63.0397 193.055 63.4837 192.797C63.9277 192.539 64.5067 192.329 65.2207 192.167C65.9347 191.999 66.8107 191.903 67.8487 191.879V191.168C67.8487 190.46 67.6957 189.926 67.3897 189.566C67.0837 189.2 66.6367 189.017 66.0487 189.017C65.6527 189.017 65.3197 189.068 65.0497 189.17C64.7857 189.266 64.5547 189.377 64.3567 189.503C64.1647 189.623 63.9967 189.734 63.8527 189.836C63.7147 189.932 63.5767 189.98 63.4387 189.98C63.3307 189.98 63.2377 189.953 63.1597 189.899C63.0817 189.839 63.0157 189.767 62.9617 189.683L62.6737 189.17ZM80.1919 197H78.5899V189.224H73.8919V194.696C73.8919 195.08 73.9849 195.365 74.1709 195.551C74.3569 195.737 74.5969 195.83 74.8909 195.83C75.0589 195.83 75.2029 195.809 75.3229 195.767C75.4489 195.719 75.5569 195.668 75.6469 195.614C75.7369 195.56 75.8119 195.512 75.8719 195.47C75.9379 195.422 75.9949 195.398 76.0429 195.398C76.1269 195.398 76.2019 195.449 76.2679 195.551L76.7359 196.316C76.4599 196.574 76.1269 196.778 75.7369 196.928C75.3469 197.072 74.9449 197.144 74.5309 197.144C73.8109 197.144 73.2559 196.943 72.8659 196.541C72.4819 196.139 72.2899 195.56 72.2899 194.804V189.224H71.1919C71.0959 189.224 71.0149 189.197 70.9489 189.143C70.8829 189.083 70.8499 188.993 70.8499 188.873V188.234L72.3439 188.036L72.7129 185.228C72.7309 185.138 72.7699 185.066 72.8299 185.012C72.8959 184.952 72.9799 184.922 73.0819 184.922H73.8919V188.063H80.1919V197ZM80.5879 184.958C80.5879 185.114 80.5549 185.261 80.4889 185.399C80.4289 185.531 80.3449 185.648 80.2369 185.75C80.1349 185.852 80.0149 185.933 79.8769 185.993C79.7389 186.053 79.5919 186.083 79.4359 186.083C79.2799 186.083 79.1329 186.053 78.9949 185.993C78.8629 185.933 78.7459 185.852 78.6439 185.75C78.5419 185.648 78.4609 185.531 78.4009 185.399C78.3409 185.261 78.3109 185.114 78.3109 184.958C78.3109 184.802 78.3409 184.655 78.4009 184.517C78.4609 184.373 78.5419 184.25 78.6439 184.148C78.7459 184.04 78.8629 183.956 78.9949 183.896C79.1329 183.836 79.2799 183.806 79.4359 183.806C79.5919 183.806 79.7389 183.836 79.8769 183.896C80.0149 183.956 80.1349 184.04 80.2369 184.148C80.3449 184.25 80.4289 184.373 80.4889 184.517C80.5549 184.655 80.5879 184.802 80.5879 184.958ZM86.6667 187.739C87.3327 187.739 87.9327 187.85 88.4667 188.072C89.0007 188.294 89.4567 188.609 89.8347 189.017C90.2127 189.425 90.5007 189.92 90.6987 190.502C90.9027 191.078 91.0047 191.723 91.0047 192.437C91.0047 193.157 90.9027 193.805 90.6987 194.381C90.5007 194.957 90.2127 195.449 89.8347 195.857C89.4567 196.265 89.0007 196.58 88.4667 196.802C87.9327 197.018 87.3327 197.126 86.6667 197.126C85.9947 197.126 85.3887 197.018 84.8487 196.802C84.3147 196.58 83.8587 196.265 83.4807 195.857C83.1027 195.449 82.8117 194.957 82.6077 194.381C82.4097 193.805 82.3107 193.157 82.3107 192.437C82.3107 191.723 82.4097 191.078 82.6077 190.502C82.8117 189.92 83.1027 189.425 83.4807 189.017C83.8587 188.609 84.3147 188.294 84.8487 188.072C85.3887 187.85 85.9947 187.739 86.6667 187.739ZM86.6667 195.875C87.5667 195.875 88.2387 195.575 88.6827 194.975C89.1267 194.369 89.3487 193.526 89.3487 192.446C89.3487 191.36 89.1267 190.514 88.6827 189.908C88.2387 189.302 87.5667 188.999 86.6667 188.999C86.2107 188.999 85.8117 189.077 85.4697 189.233C85.1337 189.389 84.8517 189.614 84.6237 189.908C84.4017 190.202 84.2337 190.565 84.1197 190.997C84.0117 191.423 83.9577 191.906 83.9577 192.446C83.9577 193.526 84.1797 194.369 84.6237 194.975C85.0737 195.575 85.7547 195.875 86.6667 195.875ZM94.5486 189.206C94.7466 188.984 94.9566 188.783 95.1786 188.603C95.4006 188.423 95.6346 188.27 95.8806 188.144C96.1326 188.012 96.3966 187.913 96.6726 187.847C96.9546 187.775 97.2576 187.739 97.5816 187.739C98.0796 187.739 98.5176 187.823 98.8956 187.991C99.2796 188.153 99.5976 188.387 99.8496 188.693C100.108 188.993 100.303 189.356 100.435 189.782C100.567 190.208 100.633 190.679 100.633 191.195V197H99.0216V191.195C99.0216 190.505 98.8626 189.971 98.5446 189.593C98.2326 189.209 97.7556 189.017 97.1136 189.017C96.6396 189.017 96.1956 189.131 95.7816 189.359C95.3736 189.587 94.9956 189.896 94.6476 190.286V197H93.0366V187.883H93.9996C94.2276 187.883 94.3686 187.994 94.4226 188.216L94.5486 189.206ZM111.522 187.739C112.188 187.739 112.788 187.85 113.322 188.072C113.856 188.294 114.312 188.609 114.69 189.017C115.068 189.425 115.356 189.92 115.554 190.502C115.758 191.078 115.86 191.723 115.86 192.437C115.86 193.157 115.758 193.805 115.554 194.381C115.356 194.957 115.068 195.449 114.69 195.857C114.312 196.265 113.856 196.58 113.322 196.802C112.788 197.018 112.188 197.126 111.522 197.126C110.85 197.126 110.244 197.018 109.704 196.802C109.17 196.58 108.714 196.265 108.336 195.857C107.958 195.449 107.667 194.957 107.463 194.381C107.265 193.805 107.166 193.157 107.166 192.437C107.166 191.723 107.265 191.078 107.463 190.502C107.667 189.92 107.958 189.425 108.336 189.017C108.714 188.609 109.17 188.294 109.704 188.072C110.244 187.85 110.85 187.739 111.522 187.739ZM111.522 195.875C112.422 195.875 113.094 195.575 113.538 194.975C113.982 194.369 114.204 193.526 114.204 192.446C114.204 191.36 113.982 190.514 113.538 189.908C113.094 189.302 112.422 188.999 111.522 188.999C111.066 188.999 110.667 189.077 110.325 189.233C109.989 189.389 109.707 189.614 109.479 189.908C109.257 190.202 109.089 190.565 108.975 190.997C108.867 191.423 108.813 191.906 108.813 192.446C108.813 193.526 109.035 194.369 109.479 194.975C109.929 195.575 110.61 195.875 111.522 195.875ZM119.503 194.804C119.797 195.2 120.118 195.479 120.466 195.641C120.814 195.803 121.204 195.884 121.636 195.884C122.488 195.884 123.142 195.581 123.598 194.975C124.054 194.369 124.282 193.505 124.282 192.383C124.282 191.789 124.228 191.279 124.12 190.853C124.018 190.427 123.868 190.079 123.67 189.809C123.472 189.533 123.229 189.332 122.941 189.206C122.653 189.08 122.326 189.017 121.96 189.017C121.438 189.017 120.979 189.137 120.583 189.377C120.193 189.617 119.833 189.956 119.503 190.394V194.804ZM119.422 189.296C119.806 188.822 120.25 188.441 120.754 188.153C121.258 187.865 121.834 187.721 122.482 187.721C123.01 187.721 123.487 187.823 123.913 188.027C124.339 188.225 124.702 188.522 125.002 188.918C125.302 189.308 125.533 189.794 125.695 190.376C125.857 190.958 125.938 191.627 125.938 192.383C125.938 193.055 125.848 193.682 125.668 194.264C125.488 194.84 125.227 195.341 124.885 195.767C124.549 196.187 124.135 196.52 123.643 196.766C123.157 197.006 122.608 197.126 121.996 197.126C121.438 197.126 120.958 197.033 120.556 196.847C120.16 196.655 119.809 196.391 119.503 196.055V200.087H117.892V187.883H118.855C119.083 187.883 119.224 187.994 119.278 188.216L119.422 189.296ZM136.319 197H134.717V189.224H130.019V194.696C130.019 195.08 130.112 195.365 130.298 195.551C130.484 195.737 130.724 195.83 131.018 195.83C131.186 195.83 131.33 195.809 131.45 195.767C131.576 195.719 131.684 195.668 131.774 195.614C131.864 195.56 131.939 195.512 131.999 195.47C132.065 195.422 132.122 195.398 132.17 195.398C132.254 195.398 132.329 195.449 132.395 195.551L132.863 196.316C132.587 196.574 132.254 196.778 131.864 196.928C131.474 197.072 131.072 197.144 130.658 197.144C129.938 197.144 129.383 196.943 128.993 196.541C128.609 196.139 128.417 195.56 128.417 194.804V189.224H127.319C127.223 189.224 127.142 189.197 127.076 189.143C127.01 189.083 126.977 188.993 126.977 188.873V188.234L128.471 188.036L128.84 185.228C128.858 185.138 128.897 185.066 128.957 185.012C129.023 184.952 129.107 184.922 129.209 184.922H130.019V188.063H136.319V197ZM136.715 184.958C136.715 185.114 136.682 185.261 136.616 185.399C136.556 185.531 136.472 185.648 136.364 185.75C136.262 185.852 136.142 185.933 136.004 185.993C135.866 186.053 135.719 186.083 135.563 186.083C135.407 186.083 135.26 186.053 135.122 185.993C134.99 185.933 134.873 185.852 134.771 185.75C134.669 185.648 134.588 185.531 134.528 185.399C134.468 185.261 134.438 185.114 134.438 184.958C134.438 184.802 134.468 184.655 134.528 184.517C134.588 184.373 134.669 184.25 134.771 184.148C134.873 184.04 134.99 183.956 135.122 183.896C135.26 183.836 135.407 183.806 135.563 183.806C135.719 183.806 135.866 183.836 136.004 183.896C136.142 183.956 136.262 184.04 136.364 184.148C136.472 184.25 136.556 184.373 136.616 184.517C136.682 184.655 136.715 184.802 136.715 184.958ZM142.794 187.739C143.46 187.739 144.06 187.85 144.594 188.072C145.128 188.294 145.584 188.609 145.962 189.017C146.34 189.425 146.628 189.92 146.826 190.502C147.03 191.078 147.132 191.723 147.132 192.437C147.132 193.157 147.03 193.805 146.826 194.381C146.628 194.957 146.34 195.449 145.962 195.857C145.584 196.265 145.128 196.58 144.594 196.802C144.06 197.018 143.46 197.126 142.794 197.126C142.122 197.126 141.516 197.018 140.976 196.802C140.442 196.58 139.986 196.265 139.608 195.857C139.23 195.449 138.939 194.957 138.735 194.381C138.537 193.805 138.438 193.157 138.438 192.437C138.438 191.723 138.537 191.078 138.735 190.502C138.939 189.92 139.23 189.425 139.608 189.017C139.986 188.609 140.442 188.294 140.976 188.072C141.516 187.85 142.122 187.739 142.794 187.739ZM142.794 195.875C143.694 195.875 144.366 195.575 144.81 194.975C145.254 194.369 145.476 193.526 145.476 192.446C145.476 191.36 145.254 190.514 144.81 189.908C144.366 189.302 143.694 188.999 142.794 188.999C142.338 188.999 141.939 189.077 141.597 189.233C141.261 189.389 140.979 189.614 140.751 189.908C140.529 190.202 140.361 190.565 140.247 190.997C140.139 191.423 140.085 191.906 140.085 192.446C140.085 193.526 140.307 194.369 140.751 194.975C141.201 195.575 141.882 195.875 142.794 195.875ZM150.676 189.206C150.874 188.984 151.084 188.783 151.306 188.603C151.528 188.423 151.762 188.27 152.008 188.144C152.26 188.012 152.524 187.913 152.8 187.847C153.082 187.775 153.385 187.739 153.709 187.739C154.207 187.739 154.645 187.823 155.023 187.991C155.407 188.153 155.725 188.387 155.977 188.693C156.235 188.993 156.43 189.356 156.562 189.782C156.694 190.208 156.76 190.679 156.76 191.195V197H155.149V191.195C155.149 190.505 154.99 189.971 154.672 189.593C154.36 189.209 153.883 189.017 153.241 189.017C152.767 189.017 152.323 189.131 151.909 189.359C151.501 189.587 151.123 189.896 150.775 190.286V197H149.164V187.883H150.127C150.355 187.883 150.496 187.994 150.55 188.216L150.676 189.206ZM164.511 189.386C164.439 189.518 164.328 189.584 164.178 189.584C164.088 189.584 163.986 189.551 163.872 189.485C163.758 189.419 163.617 189.347 163.449 189.269C163.287 189.185 163.092 189.11 162.864 189.044C162.636 188.972 162.366 188.936 162.054 188.936C161.784 188.936 161.541 188.972 161.325 189.044C161.109 189.11 160.923 189.203 160.767 189.323C160.617 189.443 160.5 189.584 160.416 189.746C160.338 189.902 160.299 190.073 160.299 190.259C160.299 190.493 160.365 190.688 160.497 190.844C160.635 191 160.815 191.135 161.037 191.249C161.259 191.363 161.511 191.465 161.793 191.555C162.075 191.639 162.363 191.732 162.657 191.834C162.957 191.93 163.248 192.038 163.53 192.158C163.812 192.278 164.064 192.428 164.286 192.608C164.508 192.788 164.685 193.01 164.817 193.274C164.955 193.532 165.024 193.844 165.024 194.21C165.024 194.63 164.949 195.02 164.799 195.38C164.649 195.734 164.427 196.043 164.133 196.307C163.839 196.565 163.479 196.769 163.053 196.919C162.627 197.069 162.135 197.144 161.577 197.144C160.941 197.144 160.365 197.042 159.849 196.838C159.333 196.628 158.895 196.361 158.535 196.037L158.913 195.425C158.961 195.347 159.018 195.287 159.084 195.245C159.15 195.203 159.234 195.182 159.336 195.182C159.444 195.182 159.558 195.224 159.678 195.308C159.798 195.392 159.942 195.485 160.11 195.587C160.284 195.689 160.494 195.782 160.74 195.866C160.986 195.95 161.292 195.992 161.658 195.992C161.97 195.992 162.243 195.953 162.477 195.875C162.711 195.791 162.906 195.68 163.062 195.542C163.218 195.404 163.332 195.245 163.404 195.065C163.482 194.885 163.521 194.693 163.521 194.489C163.521 194.237 163.452 194.03 163.314 193.868C163.182 193.7 163.005 193.559 162.783 193.445C162.561 193.325 162.306 193.223 162.018 193.139C161.736 193.049 161.445 192.956 161.145 192.86C160.851 192.764 160.56 192.656 160.272 192.536C159.99 192.41 159.738 192.254 159.516 192.068C159.294 191.882 159.114 191.654 158.976 191.384C158.844 191.108 158.778 190.775 158.778 190.385C158.778 190.037 158.85 189.704 158.994 189.386C159.138 189.062 159.348 188.78 159.624 188.54C159.9 188.294 160.239 188.099 160.641 187.955C161.043 187.811 161.502 187.739 162.018 187.739C162.618 187.739 163.155 187.835 163.629 188.027C164.109 188.213 164.523 188.471 164.871 188.801L164.511 189.386ZM172.187 197V189.251L171.179 189.134C171.053 189.104 170.948 189.059 170.864 188.999C170.786 188.933 170.747 188.84 170.747 188.72V188.063H172.187V187.181C172.187 186.659 172.259 186.197 172.403 185.795C172.553 185.387 172.763 185.045 173.033 184.769C173.309 184.487 173.639 184.274 174.023 184.13C174.407 183.986 174.839 183.914 175.319 183.914C175.727 183.914 176.102 183.974 176.444 184.094L176.408 184.895C176.396 185.039 176.315 185.117 176.165 185.129C176.021 185.141 175.826 185.147 175.58 185.147C175.304 185.147 175.052 185.183 174.824 185.255C174.602 185.327 174.41 185.444 174.248 185.606C174.086 185.768 173.96 185.981 173.87 186.245C173.786 186.509 173.744 186.836 173.744 187.226V188.063H176.372V189.224H173.798V197H172.187ZM181.448 187.739C182.114 187.739 182.714 187.85 183.248 188.072C183.782 188.294 184.238 188.609 184.616 189.017C184.994 189.425 185.282 189.92 185.48 190.502C185.684 191.078 185.786 191.723 185.786 192.437C185.786 193.157 185.684 193.805 185.48 194.381C185.282 194.957 184.994 195.449 184.616 195.857C184.238 196.265 183.782 196.58 183.248 196.802C182.714 197.018 182.114 197.126 181.448 197.126C180.776 197.126 180.17 197.018 179.63 196.802C179.096 196.58 178.64 196.265 178.262 195.857C177.884 195.449 177.593 194.957 177.389 194.381C177.191 193.805 177.092 193.157 177.092 192.437C177.092 191.723 177.191 191.078 177.389 190.502C177.593 189.92 177.884 189.425 178.262 189.017C178.64 188.609 179.096 188.294 179.63 188.072C180.17 187.85 180.776 187.739 181.448 187.739ZM181.448 195.875C182.348 195.875 183.02 195.575 183.464 194.975C183.908 194.369 184.13 193.526 184.13 192.446C184.13 191.36 183.908 190.514 183.464 189.908C183.02 189.302 182.348 188.999 181.448 188.999C180.992 188.999 180.593 189.077 180.251 189.233C179.915 189.389 179.633 189.614 179.405 189.908C179.183 190.202 179.015 190.565 178.901 190.997C178.793 191.423 178.739 191.906 178.739 192.446C178.739 193.526 178.961 194.369 179.405 194.975C179.855 195.575 180.536 195.875 181.448 195.875ZM189.339 189.71C189.627 189.086 189.981 188.6 190.401 188.252C190.821 187.898 191.334 187.721 191.94 187.721C192.132 187.721 192.315 187.742 192.489 187.784C192.669 187.826 192.828 187.892 192.966 187.982L192.849 189.179C192.813 189.329 192.723 189.404 192.579 189.404C192.495 189.404 192.372 189.386 192.21 189.35C192.048 189.314 191.865 189.296 191.661 189.296C191.373 189.296 191.115 189.338 190.887 189.422C190.665 189.506 190.464 189.632 190.284 189.8C190.11 189.962 189.951 190.166 189.807 190.412C189.669 190.652 189.543 190.928 189.429 191.24V197H187.818V187.883H188.736C188.91 187.883 189.03 187.916 189.096 187.982C189.162 188.048 189.207 188.162 189.231 188.324L189.339 189.71ZM27.9887 231V221.883H28.9517C29.1797 221.883 29.3207 221.994 29.3747 222.216L29.4917 223.152C29.8277 222.738 30.2057 222.399 30.6257 222.135C31.0457 221.871 31.5317 221.739 32.0837 221.739C32.6957 221.739 33.1907 221.91 33.5687 222.252C33.9527 222.594 34.2287 223.056 34.3967 223.638C34.5287 223.308 34.6967 223.023 34.9007 222.783C35.1107 222.543 35.3447 222.345 35.6027 222.189C35.8607 222.033 36.1337 221.919 36.4217 221.847C36.7157 221.775 37.0127 221.739 37.3127 221.739C37.7927 221.739 38.2187 221.817 38.5907 221.973C38.9687 222.123 39.2867 222.345 39.5447 222.639C39.8087 222.933 40.0097 223.296 40.1477 223.728C40.2857 224.154 40.3547 224.643 40.3547 225.195V231H38.7437V225.195C38.7437 224.481 38.5877 223.941 38.2757 223.575C37.9637 223.203 37.5137 223.017 36.9257 223.017C36.6617 223.017 36.4097 223.065 36.1697 223.161C35.9357 223.251 35.7287 223.386 35.5487 223.566C35.3687 223.746 35.2247 223.974 35.1167 224.25C35.0147 224.52 34.9637 224.835 34.9637 225.195V231H33.3527V225.195C33.3527 224.463 33.2057 223.917 32.9117 223.557C32.6177 223.197 32.1887 223.017 31.6247 223.017C31.2287 223.017 30.8627 223.125 30.5267 223.341C30.1907 223.551 29.8817 223.839 29.5997 224.205V231H27.9887ZM47.7305 226.896C46.9925 226.92 46.3625 226.98 45.8405 227.076C45.3245 227.166 44.9015 227.286 44.5715 227.436C44.2475 227.586 44.0105 227.763 43.8605 227.967C43.7165 228.171 43.6445 228.399 43.6445 228.651C43.6445 228.891 43.6835 229.098 43.7615 229.272C43.8395 229.446 43.9445 229.59 44.0765 229.704C44.2145 229.812 44.3735 229.893 44.5535 229.947C44.7395 229.995 44.9375 230.019 45.1475 230.019C45.4295 230.019 45.6875 229.992 45.9215 229.938C46.1555 229.878 46.3745 229.794 46.5785 229.686C46.7885 229.578 46.9865 229.449 47.1725 229.299C47.3645 229.149 47.5505 228.978 47.7305 228.786V226.896ZM42.5555 223.17C43.0595 222.684 43.6025 222.321 44.1845 222.081C44.7665 221.841 45.4115 221.721 46.1195 221.721C46.6295 221.721 47.0825 221.805 47.4785 221.973C47.8745 222.141 48.2075 222.375 48.4775 222.675C48.7475 222.975 48.9515 223.338 49.0895 223.764C49.2275 224.19 49.2965 224.658 49.2965 225.168V231H48.5855C48.4295 231 48.3095 230.976 48.2255 230.928C48.1415 230.874 48.0755 230.772 48.0275 230.622L47.8475 229.758C47.6075 229.98 47.3735 230.178 47.1455 230.352C46.9175 230.52 46.6775 230.664 46.4255 230.784C46.1735 230.898 45.9035 230.985 45.6155 231.045C45.3335 231.111 45.0185 231.144 44.6705 231.144C44.3165 231.144 43.9835 231.096 43.6715 231C43.3595 230.898 43.0865 230.748 42.8525 230.55C42.6245 230.352 42.4415 230.103 42.3035 229.803C42.1715 229.497 42.1055 229.137 42.1055 228.723C42.1055 228.363 42.2045 228.018 42.4025 227.688C42.6005 227.352 42.9215 227.055 43.3655 226.797C43.8095 226.539 44.3885 226.329 45.1025 226.167C45.8165 225.999 46.6925 225.903 47.7305 225.879V225.168C47.7305 224.46 47.5775 223.926 47.2715 223.566C46.9655 223.2 46.5185 223.017 45.9305 223.017C45.5345 223.017 45.2015 223.068 44.9315 223.17C44.6675 223.266 44.4365 223.377 44.2385 223.503C44.0465 223.623 43.8785 223.734 43.7345 223.836C43.5965 223.932 43.4585 223.98 43.3205 223.98C43.2125 223.98 43.1195 223.953 43.0415 223.899C42.9635 223.839 42.8975 223.767 42.8435 223.683L42.5555 223.17ZM53.2488 223.206C53.4468 222.984 53.6568 222.783 53.8788 222.603C54.1008 222.423 54.3348 222.27 54.5808 222.144C54.8328 222.012 55.0968 221.913 55.3728 221.847C55.6548 221.775 55.9578 221.739 56.2818 221.739C56.7798 221.739 57.2178 221.823 57.5958 221.991C57.9798 222.153 58.2978 222.387 58.5498 222.693C58.8078 222.993 59.0028 223.356 59.1348 223.782C59.2668 224.208 59.3328 224.679 59.3328 225.195V231H57.7218V225.195C57.7218 224.505 57.5628 223.971 57.2448 223.593C56.9328 223.209 56.4558 223.017 55.8138 223.017C55.3398 223.017 54.8958 223.131 54.4818 223.359C54.0738 223.587 53.6958 223.896 53.3478 224.286V231H51.7368V221.883H52.6998C52.9278 221.883 53.0688 221.994 53.1228 222.216L53.2488 223.206ZM66.7149 226.896C65.9769 226.92 65.3469 226.98 64.8249 227.076C64.3089 227.166 63.8859 227.286 63.5559 227.436C63.2319 227.586 62.9949 227.763 62.8449 227.967C62.7009 228.171 62.6289 228.399 62.6289 228.651C62.6289 228.891 62.6679 229.098 62.7459 229.272C62.8239 229.446 62.9289 229.59 63.0609 229.704C63.1989 229.812 63.3579 229.893 63.5379 229.947C63.7239 229.995 63.9219 230.019 64.1319 230.019C64.4139 230.019 64.6719 229.992 64.9059 229.938C65.1399 229.878 65.3589 229.794 65.5629 229.686C65.7729 229.578 65.9709 229.449 66.1569 229.299C66.3489 229.149 66.5349 228.978 66.7149 228.786V226.896ZM61.5399 223.17C62.0439 222.684 62.5869 222.321 63.1689 222.081C63.7509 221.841 64.3959 221.721 65.1039 221.721C65.6139 221.721 66.0669 221.805 66.4629 221.973C66.8589 222.141 67.1919 222.375 67.4619 222.675C67.7319 222.975 67.9359 223.338 68.0739 223.764C68.2119 224.19 68.2809 224.658 68.2809 225.168V231H67.5699C67.4139 231 67.2939 230.976 67.2099 230.928C67.1259 230.874 67.0599 230.772 67.0119 230.622L66.8319 229.758C66.5919 229.98 66.3579 230.178 66.1299 230.352C65.9019 230.52 65.6619 230.664 65.4099 230.784C65.1579 230.898 64.8879 230.985 64.5999 231.045C64.3179 231.111 64.0029 231.144 63.6549 231.144C63.3009 231.144 62.9679 231.096 62.6559 231C62.3439 230.898 62.0709 230.748 61.8369 230.55C61.6089 230.352 61.4259 230.103 61.2879 229.803C61.1559 229.497 61.0899 229.137 61.0899 228.723C61.0899 228.363 61.1889 228.018 61.3869 227.688C61.5849 227.352 61.9059 227.055 62.3499 226.797C62.7939 226.539 63.3729 226.329 64.0869 226.167C64.8009 225.999 65.6769 225.903 66.7149 225.879V225.168C66.7149 224.46 66.5619 223.926 66.2559 223.566C65.9499 223.2 65.5029 223.017 64.9149 223.017C64.5189 223.017 64.1859 223.068 63.9159 223.17C63.6519 223.266 63.4209 223.377 63.2229 223.503C63.0309 223.623 62.8629 223.734 62.7189 223.836C62.5809 223.932 62.4429 223.98 62.3049 223.98C62.1969 223.98 62.1039 223.953 62.0259 223.899C61.9479 223.839 61.8819 223.767 61.8279 223.683L61.5399 223.17ZM73.8981 226.545C74.2221 226.545 74.5071 226.5 74.7531 226.41C74.9991 226.32 75.2061 226.194 75.3741 226.032C75.5421 225.87 75.6681 225.678 75.7521 225.456C75.8361 225.228 75.8781 224.979 75.8781 224.709C75.8781 224.151 75.7071 223.707 75.3651 223.377C75.0291 223.047 74.5401 222.882 73.8981 222.882C73.2501 222.882 72.7551 223.047 72.4131 223.377C72.0771 223.707 71.9091 224.151 71.9091 224.709C71.9091 224.979 71.9511 225.228 72.0351 225.456C72.1251 225.678 72.2541 225.87 72.4221 226.032C72.5901 226.194 72.7971 226.32 73.0431 226.41C73.2891 226.5 73.5741 226.545 73.8981 226.545ZM76.7871 231.495C76.7871 231.273 76.7241 231.093 76.5981 230.955C76.4721 230.817 76.3011 230.709 76.0851 230.631C75.8751 230.553 75.6291 230.499 75.3471 230.469C75.0651 230.433 74.7651 230.406 74.4471 230.388C74.1351 230.37 73.8171 230.352 73.4931 230.334C73.1691 230.316 72.8571 230.286 72.5571 230.244C72.2211 230.4 71.9451 230.598 71.7291 230.838C71.5191 231.072 71.4141 231.348 71.4141 231.666C71.4141 231.87 71.4651 232.059 71.5671 232.233C71.6751 232.413 71.8371 232.566 72.0531 232.692C72.2691 232.824 72.5391 232.926 72.8631 232.998C73.1931 233.076 73.5801 233.115 74.0241 233.115C74.4561 233.115 74.8431 233.076 75.1851 232.998C75.5271 232.92 75.8151 232.809 76.0491 232.665C76.2891 232.521 76.4721 232.35 76.5981 232.152C76.7241 231.954 76.7871 231.735 76.7871 231.495ZM78.4161 222.243V222.837C78.4161 223.035 78.2901 223.161 78.0381 223.215L77.0031 223.35C77.2071 223.746 77.3091 224.184 77.3091 224.664C77.3091 225.108 77.2221 225.513 77.0481 225.879C76.8801 226.239 76.6461 226.548 76.3461 226.806C76.0461 227.064 75.6861 227.262 75.2661 227.4C74.8461 227.538 74.3901 227.607 73.8981 227.607C73.4721 227.607 73.0701 227.556 72.6921 227.454C72.5001 227.574 72.3531 227.703 72.2511 227.841C72.1491 227.973 72.0981 228.108 72.0981 228.246C72.0981 228.462 72.1851 228.627 72.3591 228.741C72.5391 228.849 72.7731 228.927 73.0611 228.975C73.3491 229.023 73.6761 229.053 74.0421 229.065C74.4141 229.077 74.7921 229.098 75.1761 229.128C75.5661 229.152 75.9441 229.197 76.3101 229.263C76.6821 229.329 77.0121 229.437 77.3001 229.587C77.5881 229.737 77.8191 229.944 77.9931 230.208C78.1731 230.472 78.2631 230.814 78.2631 231.234C78.2631 231.624 78.1641 232.002 77.9661 232.368C77.7741 232.734 77.4951 233.058 77.1291 233.34C76.7631 233.628 76.3131 233.856 75.7791 234.024C75.2511 234.198 74.6541 234.285 73.9881 234.285C73.3221 234.285 72.7401 234.219 72.2421 234.087C71.7441 233.955 71.3301 233.778 71.0001 233.556C70.6701 233.334 70.4211 233.076 70.2531 232.782C70.0911 232.494 70.0101 232.191 70.0101 231.873C70.0101 231.423 70.1511 231.042 70.4331 230.73C70.7151 230.418 71.1021 230.169 71.5941 229.983C71.3241 229.863 71.1081 229.704 70.9461 229.506C70.7901 229.302 70.7121 229.029 70.7121 228.687C70.7121 228.555 70.7361 228.42 70.7841 228.282C70.8321 228.138 70.9041 227.997 71.0001 227.859C71.1021 227.715 71.2251 227.58 71.3691 227.454C71.5131 227.328 71.6811 227.217 71.8731 227.121C71.4231 226.869 71.0721 226.536 70.8201 226.122C70.5681 225.702 70.4421 225.216 70.4421 224.664C70.4421 224.22 70.5261 223.818 70.6941 223.458C70.8681 223.092 71.1081 222.783 71.4141 222.531C71.7201 222.273 72.0831 222.075 72.5031 221.937C72.9291 221.799 73.3941 221.73 73.8981 221.73C74.2941 221.73 74.6631 221.775 75.0051 221.865C75.3471 221.949 75.6591 222.075 75.9411 222.243H78.4161ZM81.7647 221.883V231H80.1627V221.883H81.7647ZM82.1067 219.021C82.1067 219.177 82.0737 219.324 82.0077 219.462C81.9477 219.594 81.8637 219.714 81.7557 219.822C81.6537 219.924 81.5307 220.005 81.3867 220.065C81.2487 220.125 81.1017 220.155 80.9457 220.155C80.7897 220.155 80.6427 220.125 80.5047 220.065C80.3727 220.005 80.2557 219.924 80.1537 219.822C80.0517 219.714 79.9707 219.594 79.9107 219.462C79.8507 219.324 79.8207 219.177 79.8207 219.021C79.8207 218.865 79.8507 218.718 79.9107 218.58C79.9707 218.436 80.0517 218.313 80.1537 218.211C80.2557 218.103 80.3727 218.019 80.5047 217.959C80.6427 217.899 80.7897 217.869 80.9457 217.869C81.1017 217.869 81.2487 217.899 81.3867 217.959C81.5307 218.019 81.6537 218.103 81.7557 218.211C81.8637 218.313 81.9477 218.436 82.0077 218.58C82.0737 218.718 82.1067 218.865 82.1067 219.021ZM85.9089 223.206C86.1069 222.984 86.3169 222.783 86.5389 222.603C86.7609 222.423 86.9949 222.27 87.2409 222.144C87.4929 222.012 87.7569 221.913 88.0329 221.847C88.3149 221.775 88.6179 221.739 88.9419 221.739C89.4399 221.739 89.8779 221.823 90.2559 221.991C90.6399 222.153 90.9579 222.387 91.2099 222.693C91.4679 222.993 91.6629 223.356 91.7949 223.782C91.9269 224.208 91.9929 224.679 91.9929 225.195V231H90.3819V225.195C90.3819 224.505 90.2229 223.971 89.9049 223.593C89.5929 223.209 89.1159 223.017 88.4739 223.017C87.9999 223.017 87.5559 223.131 87.1419 223.359C86.7339 223.587 86.3559 223.896 86.0079 224.286V231H84.3969V221.883H85.3599C85.5879 221.883 85.7289 221.994 85.7829 222.216L85.9089 223.206ZM97.611 226.545C97.935 226.545 98.22 226.5 98.466 226.41C98.712 226.32 98.919 226.194 99.087 226.032C99.255 225.87 99.381 225.678 99.465 225.456C99.549 225.228 99.591 224.979 99.591 224.709C99.591 224.151 99.42 223.707 99.078 223.377C98.742 223.047 98.253 222.882 97.611 222.882C96.963 222.882 96.468 223.047 96.126 223.377C95.79 223.707 95.622 224.151 95.622 224.709C95.622 224.979 95.664 225.228 95.748 225.456C95.838 225.678 95.967 225.87 96.135 226.032C96.303 226.194 96.51 226.32 96.756 226.41C97.002 226.5 97.287 226.545 97.611 226.545ZM100.5 231.495C100.5 231.273 100.437 231.093 100.311 230.955C100.185 230.817 100.014 230.709 99.798 230.631C99.588 230.553 99.342 230.499 99.06 230.469C98.778 230.433 98.478 230.406 98.16 230.388C97.848 230.37 97.53 230.352 97.206 230.334C96.882 230.316 96.57 230.286 96.27 230.244C95.934 230.4 95.658 230.598 95.442 230.838C95.232 231.072 95.127 231.348 95.127 231.666C95.127 231.87 95.178 232.059 95.28 232.233C95.388 232.413 95.55 232.566 95.766 232.692C95.982 232.824 96.252 232.926 96.576 232.998C96.906 233.076 97.293 233.115 97.737 233.115C98.169 233.115 98.556 233.076 98.898 232.998C99.24 232.92 99.528 232.809 99.762 232.665C100.002 232.521 100.185 232.35 100.311 232.152C100.437 231.954 100.5 231.735 100.5 231.495ZM102.129 222.243V222.837C102.129 223.035 102.003 223.161 101.751 223.215L100.716 223.35C100.92 223.746 101.022 224.184 101.022 224.664C101.022 225.108 100.935 225.513 100.761 225.879C100.593 226.239 100.359 226.548 100.059 226.806C99.759 227.064 99.399 227.262 98.979 227.4C98.559 227.538 98.103 227.607 97.611 227.607C97.185 227.607 96.783 227.556 96.405 227.454C96.213 227.574 96.066 227.703 95.964 227.841C95.862 227.973 95.811 228.108 95.811 228.246C95.811 228.462 95.898 228.627 96.072 228.741C96.252 228.849 96.486 228.927 96.774 228.975C97.062 229.023 97.389 229.053 97.755 229.065C98.127 229.077 98.505 229.098 98.889 229.128C99.279 229.152 99.657 229.197 100.023 229.263C100.395 229.329 100.725 229.437 101.013 229.587C101.301 229.737 101.532 229.944 101.706 230.208C101.886 230.472 101.976 230.814 101.976 231.234C101.976 231.624 101.877 232.002 101.679 232.368C101.487 232.734 101.208 233.058 100.842 233.34C100.476 233.628 100.026 233.856 99.492 234.024C98.964 234.198 98.367 234.285 97.701 234.285C97.035 234.285 96.453 234.219 95.955 234.087C95.457 233.955 95.043 233.778 94.713 233.556C94.383 233.334 94.134 233.076 93.966 232.782C93.804 232.494 93.723 232.191 93.723 231.873C93.723 231.423 93.864 231.042 94.146 230.73C94.428 230.418 94.815 230.169 95.307 229.983C95.037 229.863 94.821 229.704 94.659 229.506C94.503 229.302 94.425 229.029 94.425 228.687C94.425 228.555 94.449 228.42 94.497 228.282C94.545 228.138 94.617 227.997 94.713 227.859C94.815 227.715 94.938 227.58 95.082 227.454C95.226 227.328 95.394 227.217 95.586 227.121C95.136 226.869 94.785 226.536 94.533 226.122C94.281 225.702 94.155 225.216 94.155 224.664C94.155 224.22 94.239 223.818 94.407 223.458C94.581 223.092 94.821 222.783 95.127 222.531C95.433 222.273 95.796 222.075 96.216 221.937C96.642 221.799 97.107 221.73 97.611 221.73C98.007 221.73 98.376 221.775 98.718 221.865C99.06 221.949 99.372 222.075 99.654 222.243H102.129ZM110.002 228.804C110.296 229.2 110.617 229.479 110.965 229.641C111.313 229.803 111.703 229.884 112.135 229.884C112.987 229.884 113.641 229.581 114.097 228.975C114.553 228.369 114.781 227.505 114.781 226.383C114.781 225.789 114.727 225.279 114.619 224.853C114.517 224.427 114.367 224.079 114.169 223.809C113.971 223.533 113.728 223.332 113.44 223.206C113.152 223.08 112.825 223.017 112.459 223.017C111.937 223.017 111.478 223.137 111.082 223.377C110.692 223.617 110.332 223.956 110.002 224.394V228.804ZM109.921 223.296C110.305 222.822 110.749 222.441 111.253 222.153C111.757 221.865 112.333 221.721 112.981 221.721C113.509 221.721 113.986 221.823 114.412 222.027C114.838 222.225 115.201 222.522 115.501 222.918C115.801 223.308 116.032 223.794 116.194 224.376C116.356 224.958 116.437 225.627 116.437 226.383C116.437 227.055 116.347 227.682 116.167 228.264C115.987 228.84 115.726 229.341 115.384 229.767C115.048 230.187 114.634 230.52 114.142 230.766C113.656 231.006 113.107 231.126 112.495 231.126C111.937 231.126 111.457 231.033 111.055 230.847C110.659 230.655 110.308 230.391 110.002 230.055V234.087H108.391V221.883H109.354C109.582 221.883 109.723 221.994 109.777 222.216L109.921 223.296ZM120.002 223.71C120.29 223.086 120.644 222.6 121.064 222.252C121.484 221.898 121.997 221.721 122.603 221.721C122.795 221.721 122.978 221.742 123.152 221.784C123.332 221.826 123.491 221.892 123.629 221.982L123.512 223.179C123.476 223.329 123.386 223.404 123.242 223.404C123.158 223.404 123.035 223.386 122.873 223.35C122.711 223.314 122.528 223.296 122.324 223.296C122.036 223.296 121.778 223.338 121.55 223.422C121.328 223.506 121.127 223.632 120.947 223.8C120.773 223.962 120.614 224.166 120.47 224.412C120.332 224.652 120.206 224.928 120.092 225.24V231H118.481V221.883H119.399C119.573 221.883 119.693 221.916 119.759 221.982C119.825 222.048 119.87 222.162 119.894 222.324L120.002 223.71ZM128.511 221.739C129.177 221.739 129.777 221.85 130.311 222.072C130.845 222.294 131.301 222.609 131.679 223.017C132.057 223.425 132.345 223.92 132.543 224.502C132.747 225.078 132.849 225.723 132.849 226.437C132.849 227.157 132.747 227.805 132.543 228.381C132.345 228.957 132.057 229.449 131.679 229.857C131.301 230.265 130.845 230.58 130.311 230.802C129.777 231.018 129.177 231.126 128.511 231.126C127.839 231.126 127.233 231.018 126.693 230.802C126.159 230.58 125.703 230.265 125.325 229.857C124.947 229.449 124.656 228.957 124.452 228.381C124.254 227.805 124.155 227.157 124.155 226.437C124.155 225.723 124.254 225.078 124.452 224.502C124.656 223.92 124.947 223.425 125.325 223.017C125.703 222.609 126.159 222.294 126.693 222.072C127.233 221.85 127.839 221.739 128.511 221.739ZM128.511 229.875C129.411 229.875 130.083 229.575 130.527 228.975C130.971 228.369 131.193 227.526 131.193 226.446C131.193 225.36 130.971 224.514 130.527 223.908C130.083 223.302 129.411 222.999 128.511 222.999C128.055 222.999 127.656 223.077 127.314 223.233C126.978 223.389 126.696 223.614 126.468 223.908C126.246 224.202 126.078 224.565 125.964 224.997C125.856 225.423 125.802 225.906 125.802 226.446C125.802 227.526 126.024 228.369 126.468 228.975C126.918 229.575 127.599 229.875 128.511 229.875ZM136.573 221.883V231.675C136.573 232.041 136.525 232.38 136.429 232.692C136.333 233.01 136.18 233.286 135.97 233.52C135.76 233.754 135.49 233.937 135.16 234.069C134.836 234.207 134.446 234.276 133.99 234.276C133.798 234.276 133.621 234.261 133.459 234.231C133.297 234.201 133.135 234.156 132.973 234.096L133.036 233.232C133.048 233.178 133.069 233.136 133.099 233.106C133.123 233.082 133.159 233.067 133.207 233.061C133.255 233.055 133.318 233.052 133.396 233.052C133.468 233.058 133.561 233.061 133.675 233.061C134.143 233.061 134.476 232.95 134.674 232.728C134.872 232.512 134.971 232.161 134.971 231.675V221.883H136.573ZM136.906 219.021C136.906 219.177 136.873 219.324 136.807 219.462C136.747 219.594 136.663 219.714 136.555 219.822C136.453 219.924 136.333 220.005 136.195 220.065C136.057 220.125 135.91 220.155 135.754 220.155C135.598 220.155 135.451 220.125 135.313 220.065C135.181 220.005 135.064 219.924 134.962 219.822C134.86 219.714 134.779 219.594 134.719 219.462C134.659 219.324 134.629 219.177 134.629 219.021C134.629 218.865 134.659 218.718 134.719 218.58C134.779 218.436 134.86 218.313 134.962 218.211C135.064 218.103 135.181 218.019 135.313 217.959C135.451 217.899 135.598 217.869 135.754 217.869C135.91 217.869 136.057 217.899 136.195 217.959C136.333 218.019 136.453 218.103 136.555 218.211C136.663 218.313 136.747 218.436 136.807 218.58C136.873 218.718 136.906 218.865 136.906 219.021ZM145.308 225.447C145.308 225.075 145.254 224.736 145.146 224.43C145.044 224.118 144.891 223.851 144.687 223.629C144.489 223.401 144.246 223.227 143.958 223.107C143.67 222.981 143.343 222.918 142.977 222.918C142.209 222.918 141.6 223.143 141.15 223.593C140.706 224.037 140.43 224.655 140.322 225.447H145.308ZM146.604 229.722C146.406 229.962 146.169 230.172 145.893 230.352C145.617 230.526 145.32 230.67 145.002 230.784C144.69 230.898 144.366 230.982 144.03 231.036C143.694 231.096 143.361 231.126 143.031 231.126C142.401 231.126 141.819 231.021 141.285 230.811C140.757 230.595 140.298 230.283 139.908 229.875C139.524 229.461 139.224 228.951 139.008 228.345C138.792 227.739 138.684 227.043 138.684 226.257C138.684 225.621 138.78 225.027 138.972 224.475C139.17 223.923 139.452 223.446 139.818 223.044C140.184 222.636 140.631 222.318 141.159 222.09C141.687 221.856 142.281 221.739 142.941 221.739C143.487 221.739 143.991 221.832 144.453 222.018C144.921 222.198 145.323 222.462 145.659 222.81C146.001 223.152 146.268 223.578 146.46 224.088C146.652 224.592 146.748 225.168 146.748 225.816C146.748 226.068 146.721 226.236 146.667 226.32C146.613 226.404 146.511 226.446 146.361 226.446H140.268C140.286 227.022 140.364 227.523 140.502 227.949C140.646 228.375 140.844 228.732 141.096 229.02C141.348 229.302 141.648 229.515 141.996 229.659C142.344 229.797 142.734 229.866 143.166 229.866C143.568 229.866 143.913 229.821 144.201 229.731C144.495 229.635 144.747 229.533 144.957 229.425C145.167 229.317 145.341 229.218 145.479 229.128C145.623 229.032 145.746 228.984 145.848 228.984C145.98 228.984 146.082 229.035 146.154 229.137L146.604 229.722ZM155.06 223.503C155.012 223.569 154.964 223.62 154.916 223.656C154.868 223.692 154.802 223.71 154.718 223.71C154.628 223.71 154.529 223.674 154.421 223.602C154.313 223.524 154.178 223.44 154.016 223.35C153.86 223.26 153.665 223.179 153.431 223.107C153.203 223.029 152.921 222.99 152.585 222.99C152.135 222.99 151.739 223.071 151.397 223.233C151.055 223.389 150.767 223.617 150.533 223.917C150.305 224.217 150.131 224.58 150.011 225.006C149.897 225.432 149.84 225.909 149.84 226.437C149.84 226.989 149.903 227.481 150.029 227.913C150.155 228.339 150.332 228.699 150.56 228.993C150.794 229.281 151.073 229.503 151.397 229.659C151.727 229.809 152.096 229.884 152.504 229.884C152.894 229.884 153.215 229.839 153.467 229.749C153.719 229.653 153.926 229.548 154.088 229.434C154.256 229.32 154.394 229.218 154.502 229.128C154.616 229.032 154.727 228.984 154.835 228.984C154.967 228.984 155.069 229.035 155.141 229.137L155.591 229.722C155.393 229.968 155.168 230.178 154.916 230.352C154.664 230.526 154.391 230.673 154.097 230.793C153.809 230.907 153.506 230.991 153.188 231.045C152.87 231.099 152.546 231.126 152.216 231.126C151.646 231.126 151.115 231.021 150.623 230.811C150.137 230.601 149.714 230.298 149.354 229.902C148.994 229.5 148.712 229.008 148.508 228.426C148.304 227.844 148.202 227.181 148.202 226.437C148.202 225.759 148.295 225.132 148.481 224.556C148.673 223.98 148.949 223.485 149.309 223.071C149.675 222.651 150.122 222.324 150.65 222.09C151.184 221.856 151.796 221.739 152.486 221.739C153.128 221.739 153.692 221.844 154.178 222.054C154.67 222.258 155.105 222.549 155.483 222.927L155.06 223.503ZM160.11 231.144C159.39 231.144 158.835 230.943 158.445 230.541C158.061 230.139 157.869 229.56 157.869 228.804V223.224H156.771C156.675 223.224 156.594 223.197 156.528 223.143C156.462 223.083 156.429 222.993 156.429 222.873V222.234L157.923 222.045L158.292 219.228C158.31 219.138 158.349 219.066 158.409 219.012C158.475 218.952 158.559 218.922 158.661 218.922H159.471V222.063H162.108V223.224H159.471V228.696C159.471 229.08 159.564 229.365 159.75 229.551C159.936 229.737 160.176 229.83 160.47 229.83C160.638 229.83 160.782 229.809 160.902 229.767C161.028 229.719 161.136 229.668 161.226 229.614C161.316 229.56 161.391 229.512 161.451 229.47C161.517 229.422 161.574 229.398 161.622 229.398C161.706 229.398 161.781 229.449 161.847 229.551L162.315 230.316C162.039 230.574 161.706 230.778 161.316 230.928C160.926 231.072 160.524 231.144 160.11 231.144ZM169.072 223.386C169 223.518 168.889 223.584 168.739 223.584C168.649 223.584 168.547 223.551 168.433 223.485C168.319 223.419 168.178 223.347 168.01 223.269C167.848 223.185 167.653 223.11 167.425 223.044C167.197 222.972 166.927 222.936 166.615 222.936C166.345 222.936 166.102 222.972 165.886 223.044C165.67 223.11 165.484 223.203 165.328 223.323C165.178 223.443 165.061 223.584 164.977 223.746C164.899 223.902 164.86 224.073 164.86 224.259C164.86 224.493 164.926 224.688 165.058 224.844C165.196 225 165.376 225.135 165.598 225.249C165.82 225.363 166.072 225.465 166.354 225.555C166.636 225.639 166.924 225.732 167.218 225.834C167.518 225.93 167.809 226.038 168.091 226.158C168.373 226.278 168.625 226.428 168.847 226.608C169.069 226.788 169.246 227.01 169.378 227.274C169.516 227.532 169.585 227.844 169.585 228.21C169.585 228.63 169.51 229.02 169.36 229.38C169.21 229.734 168.988 230.043 168.694 230.307C168.4 230.565 168.04 230.769 167.614 230.919C167.188 231.069 166.696 231.144 166.138 231.144C165.502 231.144 164.926 231.042 164.41 230.838C163.894 230.628 163.456 230.361 163.096 230.037L163.474 229.425C163.522 229.347 163.579 229.287 163.645 229.245C163.711 229.203 163.795 229.182 163.897 229.182C164.005 229.182 164.119 229.224 164.239 229.308C164.359 229.392 164.503 229.485 164.671 229.587C164.845 229.689 165.055 229.782 165.301 229.866C165.547 229.95 165.853 229.992 166.219 229.992C166.531 229.992 166.804 229.953 167.038 229.875C167.272 229.791 167.467 229.68 167.623 229.542C167.779 229.404 167.893 229.245 167.965 229.065C168.043 228.885 168.082 228.693 168.082 228.489C168.082 228.237 168.013 228.03 167.875 227.868C167.743 227.7 167.566 227.559 167.344 227.445C167.122 227.325 166.867 227.223 166.579 227.139C166.297 227.049 166.006 226.956 165.706 226.86C165.412 226.764 165.121 226.656 164.833 226.536C164.551 226.41 164.299 226.254 164.077 226.068C163.855 225.882 163.675 225.654 163.537 225.384C163.405 225.108 163.339 224.775 163.339 224.385C163.339 224.037 163.411 223.704 163.555 223.386C163.699 223.062 163.909 222.78 164.185 222.54C164.461 222.294 164.8 222.099 165.202 221.955C165.604 221.811 166.063 221.739 166.579 221.739C167.179 221.739 167.716 221.835 168.19 222.027C168.67 222.213 169.084 222.471 169.432 222.801L169.072 223.386Z" fill="black"/>
</svg>
