<svg width="197" height="241" viewBox="0 0 197 241" fill="none" xmlns="http://www.w3.org/2000/svg">
<path d="M70.5 20C70.5 16.6863 73.1863 14 76.5 14H120.5C123.814 14 126.5 16.6863 126.5 20V21.8357C126.5 24.6103 124.598 27.023 121.9 27.6702L77.8996 38.225C74.1268 39.13 70.5 36.2703 70.5 32.3905V20Z" fill="#F66700"/>
<path d="M126.5 60C126.5 63.3137 123.814 66 120.5 66H76.5C73.1863 66 70.5 63.3137 70.5 60V58.1643C70.5 55.3897 72.4024 52.977 75.1004 52.3298L119.1 41.775C122.873 40.87 126.5 43.7297 126.5 47.6095V60Z" fill="#F66700"/>
<path d="M70.75 46.367C70.75 45.1663 71.5766 44.1236 72.7457 43.8497L123.564 31.9446C124.936 31.6231 126.25 32.6646 126.25 34.0741C126.25 35.0774 125.567 35.952 124.594 36.1957L73.9635 48.8749C72.3314 49.2836 70.75 48.0494 70.75 46.367Z" stroke="#F66700" stroke-width="0.5"/>
<path d="M68.244 98.119C68.19 98.209 68.13 98.278 68.064 98.326C68.004 98.368 67.929 98.389 67.839 98.389C67.737 98.389 67.617 98.338 67.479 98.236C67.341 98.134 67.167 98.023 66.957 97.903C66.753 97.777 66.504 97.663 66.21 97.561C65.922 97.459 65.571 97.408 65.157 97.408C64.767 97.408 64.422 97.462 64.122 97.57C63.828 97.672 63.579 97.813 63.375 97.993C63.177 98.173 63.027 98.386 62.925 98.632C62.823 98.872 62.772 99.133 62.772 99.415C62.772 99.775 62.859 100.075 63.033 100.315C63.213 100.549 63.447 100.75 63.735 100.918C64.029 101.086 64.359 101.233 64.725 101.359C65.097 101.479 65.475 101.605 65.859 101.737C66.249 101.869 66.627 102.019 66.993 102.187C67.365 102.349 67.695 102.556 67.983 102.808C68.277 103.06 68.511 103.369 68.685 103.735C68.865 104.101 68.955 104.551 68.955 105.085C68.955 105.649 68.859 106.18 68.667 106.678C68.475 107.17 68.193 107.599 67.821 107.965C67.455 108.331 67.002 108.619 66.462 108.829C65.928 109.039 65.319 109.144 64.635 109.144C63.795 109.144 63.033 108.994 62.349 108.694C61.665 108.388 61.08 107.977 60.594 107.461L61.098 106.633C61.146 106.567 61.203 106.513 61.269 106.471C61.341 106.423 61.419 106.399 61.503 106.399C61.581 106.399 61.668 106.432 61.764 106.498C61.866 106.558 61.98 106.636 62.106 106.732C62.232 106.828 62.376 106.933 62.538 107.047C62.7 107.161 62.883 107.266 63.087 107.362C63.297 107.458 63.534 107.539 63.798 107.605C64.062 107.665 64.359 107.695 64.689 107.695C65.103 107.695 65.472 107.638 65.796 107.524C66.12 107.41 66.393 107.251 66.615 107.047C66.843 106.837 67.017 106.588 67.137 106.3C67.257 106.012 67.317 105.691 67.317 105.337C67.317 104.947 67.227 104.629 67.047 104.383C66.873 104.131 66.642 103.921 66.354 103.753C66.066 103.585 65.736 103.444 65.364 103.33C64.992 103.21 64.614 103.09 64.23 102.97C63.846 102.844 63.468 102.7 63.096 102.538C62.724 102.376 62.394 102.166 62.106 101.908C61.818 101.65 61.584 101.329 61.404 100.945C61.23 100.555 61.143 100.075 61.143 99.505C61.143 99.049 61.23 98.608 61.404 98.182C61.584 97.756 61.842 97.378 62.178 97.048C62.52 96.718 62.937 96.454 63.429 96.256C63.927 96.058 64.497 95.959 65.139 95.959C65.859 95.959 66.513 96.073 67.101 96.301C67.695 96.529 68.217 96.859 68.667 97.291L68.244 98.119ZM72.4601 106.804C72.7541 107.2 73.0751 107.479 73.4231 107.641C73.7711 107.803 74.1611 107.884 74.5931 107.884C75.4451 107.884 76.0991 107.581 76.5551 106.975C77.0111 106.369 77.2391 105.505 77.2391 104.383C77.2391 103.789 77.1851 103.279 77.0771 102.853C76.9751 102.427 76.8251 102.079 76.6271 101.809C76.4291 101.533 76.1861 101.332 75.8981 101.206C75.6101 101.08 75.2831 101.017 74.9171 101.017C74.3951 101.017 73.9361 101.137 73.5401 101.377C73.1501 101.617 72.7901 101.956 72.4601 102.394V106.804ZM72.3791 101.296C72.7631 100.822 73.2071 100.441 73.7111 100.153C74.2151 99.865 74.7911 99.721 75.4391 99.721C75.9671 99.721 76.4441 99.823 76.8701 100.027C77.2961 100.225 77.6591 100.522 77.9591 100.918C78.2591 101.308 78.4901 101.794 78.6521 102.376C78.8141 102.958 78.8951 103.627 78.8951 104.383C78.8951 105.055 78.8051 105.682 78.6251 106.264C78.4451 106.84 78.1841 107.341 77.8421 107.767C77.5061 108.187 77.0921 108.52 76.6001 108.766C76.1141 109.006 75.5651 109.126 74.9531 109.126C74.3951 109.126 73.9151 109.033 73.5131 108.847C73.1171 108.655 72.7661 108.391 72.4601 108.055V112.087H70.8491V99.883H71.8121C72.0401 99.883 72.1811 99.994 72.2351 100.216L72.3791 101.296ZM82.5949 95.743V109H80.9929V95.743H82.5949ZM86.8848 99.883V109H85.2828V99.883H86.8848ZM87.2268 97.021C87.2268 97.177 87.1938 97.324 87.1278 97.462C87.0678 97.594 86.9838 97.714 86.8758 97.822C86.7738 97.924 86.6508 98.005 86.5068 98.065C86.3688 98.125 86.2218 98.155 86.0658 98.155C85.9098 98.155 85.7628 98.125 85.6248 98.065C85.4928 98.005 85.3758 97.924 85.2738 97.822C85.1718 97.714 85.0908 97.594 85.0308 97.462C84.9708 97.324 84.9408 97.177 84.9408 97.021C84.9408 96.865 84.9708 96.718 85.0308 96.58C85.0908 96.436 85.1718 96.313 85.2738 96.211C85.3758 96.103 85.4928 96.019 85.6248 95.959C85.7628 95.899 85.9098 95.869 86.0658 95.869C86.2218 95.869 86.3688 95.899 86.5068 95.959C86.6508 96.019 86.7738 96.103 86.8758 96.211C86.9838 96.313 87.0678 96.436 87.1278 96.58C87.1938 96.718 87.2268 96.865 87.2268 97.021ZM92.316 109.144C91.596 109.144 91.041 108.943 90.651 108.541C90.267 108.139 90.075 107.56 90.075 106.804V101.224H88.977C88.881 101.224 88.8 101.197 88.734 101.143C88.668 101.083 88.635 100.993 88.635 100.873V100.234L90.129 100.045L90.498 97.228C90.516 97.138 90.555 97.066 90.615 97.012C90.681 96.952 90.765 96.922 90.867 96.922H91.677V100.063H94.314V101.224H91.677V106.696C91.677 107.08 91.77 107.365 91.956 107.551C92.142 107.737 92.382 107.83 92.676 107.83C92.844 107.83 92.988 107.809 93.108 107.767C93.234 107.719 93.342 107.668 93.432 107.614C93.522 107.56 93.597 107.512 93.657 107.47C93.723 107.422 93.78 107.398 93.828 107.398C93.912 107.398 93.987 107.449 94.053 107.551L94.521 108.316C94.245 108.574 93.912 108.778 93.522 108.928C93.132 109.072 92.73 109.144 92.316 109.144ZM107.946 99.883L104.229 109H102.789L99.0722 99.883H100.377C100.509 99.883 100.617 99.916 100.701 99.982C100.785 100.048 100.842 100.126 100.872 100.216L103.185 106.084C103.257 106.306 103.32 106.522 103.374 106.732C103.428 106.942 103.479 107.152 103.527 107.362C103.575 107.152 103.626 106.942 103.68 106.732C103.734 106.522 103.8 106.306 103.878 106.084L106.218 100.216C106.254 100.12 106.314 100.042 106.398 99.982C106.482 99.916 106.581 99.883 106.695 99.883H107.946ZM111.107 99.883V109H109.505V99.883H111.107ZM111.449 97.021C111.449 97.177 111.416 97.324 111.35 97.462C111.29 97.594 111.206 97.714 111.098 97.822C110.996 97.924 110.873 98.005 110.729 98.065C110.591 98.125 110.444 98.155 110.288 98.155C110.132 98.155 109.985 98.125 109.847 98.065C109.715 98.005 109.598 97.924 109.496 97.822C109.394 97.714 109.313 97.594 109.253 97.462C109.193 97.324 109.163 97.177 109.163 97.021C109.163 96.865 109.193 96.718 109.253 96.58C109.313 96.436 109.394 96.313 109.496 96.211C109.598 96.103 109.715 96.019 109.847 95.959C109.985 95.899 110.132 95.869 110.288 95.869C110.444 95.869 110.591 95.899 110.729 95.959C110.873 96.019 110.996 96.103 111.098 96.211C111.206 96.313 111.29 96.436 111.35 96.58C111.416 96.718 111.449 96.865 111.449 97.021ZM119.842 103.447C119.842 103.075 119.788 102.736 119.68 102.43C119.578 102.118 119.425 101.851 119.221 101.629C119.023 101.401 118.78 101.227 118.492 101.107C118.204 100.981 117.877 100.918 117.511 100.918C116.743 100.918 116.134 101.143 115.684 101.593C115.24 102.037 114.964 102.655 114.856 103.447H119.842ZM121.138 107.722C120.94 107.962 120.703 108.172 120.427 108.352C120.151 108.526 119.854 108.67 119.536 108.784C119.224 108.898 118.9 108.982 118.564 109.036C118.228 109.096 117.895 109.126 117.565 109.126C116.935 109.126 116.353 109.021 115.819 108.811C115.291 108.595 114.832 108.283 114.442 107.875C114.058 107.461 113.758 106.951 113.542 106.345C113.326 105.739 113.218 105.043 113.218 104.257C113.218 103.621 113.314 103.027 113.506 102.475C113.704 101.923 113.986 101.446 114.352 101.044C114.718 100.636 115.165 100.318 115.693 100.09C116.221 99.856 116.815 99.739 117.475 99.739C118.021 99.739 118.525 99.832 118.987 100.018C119.455 100.198 119.857 100.462 120.193 100.81C120.535 101.152 120.802 101.578 120.994 102.088C121.186 102.592 121.282 103.168 121.282 103.816C121.282 104.068 121.255 104.236 121.201 104.32C121.147 104.404 121.045 104.446 120.895 104.446H114.802C114.82 105.022 114.898 105.523 115.036 105.949C115.18 106.375 115.378 106.732 115.63 107.02C115.882 107.302 116.182 107.515 116.53 107.659C116.878 107.797 117.268 107.866 117.7 107.866C118.102 107.866 118.447 107.821 118.735 107.731C119.029 107.635 119.281 107.533 119.491 107.425C119.701 107.317 119.875 107.218 120.013 107.128C120.157 107.032 120.28 106.984 120.382 106.984C120.514 106.984 120.616 107.035 120.688 107.137L121.138 107.722ZM135.735 99.883L132.783 109H131.514C131.358 109 131.25 108.898 131.19 108.694L129.174 102.511C129.126 102.373 129.087 102.235 129.057 102.097C129.027 101.953 128.997 101.812 128.967 101.674C128.937 101.812 128.907 101.953 128.877 102.097C128.847 102.235 128.808 102.376 128.76 102.52L126.708 108.694C126.654 108.898 126.534 109 126.348 109H125.142L122.19 99.883H123.45C123.576 99.883 123.681 99.916 123.765 99.982C123.855 100.048 123.915 100.126 123.945 100.216L125.691 106.084C125.793 106.516 125.874 106.924 125.934 107.308C125.988 107.11 126.042 106.909 126.096 106.705C126.156 106.501 126.219 106.294 126.285 106.084L128.211 100.18C128.241 100.09 128.292 100.015 128.364 99.955C128.442 99.895 128.535 99.865 128.643 99.865H129.345C129.465 99.865 129.564 99.895 129.642 99.955C129.72 100.015 129.774 100.09 129.804 100.18L131.685 106.084C131.751 106.294 131.811 106.501 131.865 106.705C131.919 106.909 131.97 107.11 132.018 107.308C132.048 107.11 132.084 106.912 132.126 106.714C132.174 106.51 132.225 106.3 132.279 106.084L134.061 100.216C134.091 100.12 134.148 100.042 134.232 99.982C134.316 99.916 134.415 99.883 134.529 99.883H135.735Z" fill="black"/>
<path d="M25.2111 150.103L19.9551 163H18.3891L13.1331 150.103H14.5281C14.6841 150.103 14.8101 150.142 14.9061 150.22C15.0021 150.298 15.0741 150.397 15.1221 150.517L18.7581 159.616C18.8361 159.82 18.9111 160.042 18.9831 160.282C19.0611 160.522 19.1301 160.774 19.1901 161.038C19.2501 160.774 19.3131 160.522 19.3791 160.282C19.4451 160.042 19.5171 159.82 19.5951 159.616L23.2221 150.517C23.2581 150.415 23.3271 150.322 23.4291 150.238C23.5371 150.148 23.6661 150.103 23.8161 150.103H25.2111ZM28.2217 153.883V163H26.6197V153.883H28.2217ZM28.5637 151.021C28.5637 151.177 28.5307 151.324 28.4647 151.462C28.4047 151.594 28.3207 151.714 28.2127 151.822C28.1107 151.924 27.9877 152.005 27.8437 152.065C27.7057 152.125 27.5587 152.155 27.4027 152.155C27.2467 152.155 27.0997 152.125 26.9617 152.065C26.8297 152.005 26.7127 151.924 26.6107 151.822C26.5087 151.714 26.4277 151.594 26.3677 151.462C26.3077 151.324 26.2777 151.177 26.2777 151.021C26.2777 150.865 26.3077 150.718 26.3677 150.58C26.4277 150.436 26.5087 150.313 26.6107 150.211C26.7127 150.103 26.8297 150.019 26.9617 149.959C27.0997 149.899 27.2467 149.869 27.4027 149.869C27.5587 149.869 27.7057 149.899 27.8437 149.959C27.9877 150.019 28.1107 150.103 28.2127 150.211C28.3207 150.313 28.4047 150.436 28.4647 150.58C28.5307 150.718 28.5637 150.865 28.5637 151.021ZM36.956 157.447C36.956 157.075 36.902 156.736 36.794 156.43C36.692 156.118 36.539 155.851 36.335 155.629C36.137 155.401 35.894 155.227 35.606 155.107C35.318 154.981 34.991 154.918 34.625 154.918C33.857 154.918 33.248 155.143 32.798 155.593C32.354 156.037 32.078 156.655 31.97 157.447H36.956ZM38.252 161.722C38.054 161.962 37.817 162.172 37.541 162.352C37.265 162.526 36.968 162.67 36.65 162.784C36.338 162.898 36.014 162.982 35.678 163.036C35.342 163.096 35.009 163.126 34.679 163.126C34.049 163.126 33.467 163.021 32.933 162.811C32.405 162.595 31.946 162.283 31.556 161.875C31.172 161.461 30.872 160.951 30.656 160.345C30.44 159.739 30.332 159.043 30.332 158.257C30.332 157.621 30.428 157.027 30.62 156.475C30.818 155.923 31.1 155.446 31.466 155.044C31.832 154.636 32.279 154.318 32.807 154.09C33.335 153.856 33.929 153.739 34.589 153.739C35.135 153.739 35.639 153.832 36.101 154.018C36.569 154.198 36.971 154.462 37.307 154.81C37.649 155.152 37.916 155.578 38.108 156.088C38.3 156.592 38.396 157.168 38.396 157.816C38.396 158.068 38.369 158.236 38.315 158.32C38.261 158.404 38.159 158.446 38.009 158.446H31.916C31.934 159.022 32.012 159.523 32.15 159.949C32.294 160.375 32.492 160.732 32.744 161.02C32.996 161.302 33.296 161.515 33.644 161.659C33.992 161.797 34.382 161.866 34.814 161.866C35.216 161.866 35.561 161.821 35.849 161.731C36.143 161.635 36.395 161.533 36.605 161.425C36.815 161.317 36.989 161.218 37.127 161.128C37.271 161.032 37.394 160.984 37.496 160.984C37.628 160.984 37.73 161.035 37.802 161.137L38.252 161.722ZM52.8488 153.883L49.8968 163H48.6278C48.4718 163 48.3638 162.898 48.3038 162.694L46.2878 156.511C46.2398 156.373 46.2008 156.235 46.1708 156.097C46.1408 155.953 46.1108 155.812 46.0808 155.674C46.0508 155.812 46.0208 155.953 45.9908 156.097C45.9608 156.235 45.9218 156.376 45.8738 156.52L43.8218 162.694C43.7678 162.898 43.6478 163 43.4618 163H42.2558L39.3038 153.883H40.5638C40.6898 153.883 40.7948 153.916 40.8788 153.982C40.9688 154.048 41.0288 154.126 41.0588 154.216L42.8048 160.084C42.9068 160.516 42.9878 160.924 43.0478 161.308C43.1018 161.11 43.1558 160.909 43.2098 160.705C43.2698 160.501 43.3328 160.294 43.3988 160.084L45.3248 154.18C45.3548 154.09 45.4058 154.015 45.4778 153.955C45.5558 153.895 45.6488 153.865 45.7568 153.865H46.4588C46.5788 153.865 46.6778 153.895 46.7558 153.955C46.8338 154.015 46.8878 154.09 46.9178 154.18L48.7988 160.084C48.8648 160.294 48.9248 160.501 48.9788 160.705C49.0328 160.909 49.0838 161.11 49.1318 161.308C49.1618 161.11 49.1978 160.912 49.2398 160.714C49.2878 160.51 49.3388 160.3 49.3928 160.084L51.1748 154.216C51.2048 154.12 51.2618 154.042 51.3458 153.982C51.4298 153.916 51.5288 153.883 51.6428 153.883H52.8488ZM61.444 163.144C60.724 163.144 60.169 162.943 59.779 162.541C59.395 162.139 59.203 161.56 59.203 160.804V155.224H58.105C58.009 155.224 57.928 155.197 57.862 155.143C57.796 155.083 57.763 154.993 57.763 154.873V154.234L59.257 154.045L59.626 151.228C59.644 151.138 59.683 151.066 59.743 151.012C59.809 150.952 59.893 150.922 59.995 150.922H60.805V154.063H63.442V155.224H60.805V160.696C60.805 161.08 60.898 161.365 61.084 161.551C61.27 161.737 61.51 161.83 61.804 161.83C61.972 161.83 62.116 161.809 62.236 161.767C62.362 161.719 62.47 161.668 62.56 161.614C62.65 161.56 62.725 161.512 62.785 161.47C62.851 161.422 62.908 161.398 62.956 161.398C63.04 161.398 63.115 161.449 63.181 161.551L63.649 162.316C63.373 162.574 63.04 162.778 62.65 162.928C62.26 163.072 61.858 163.144 61.444 163.144ZM66.7071 155.098C67.0971 154.684 67.5291 154.354 68.0031 154.108C68.4771 153.862 69.0231 153.739 69.6411 153.739C70.1391 153.739 70.5771 153.823 70.9551 153.991C71.3391 154.153 71.6571 154.387 71.9091 154.693C72.1671 154.993 72.3621 155.356 72.4941 155.782C72.6261 156.208 72.6921 156.679 72.6921 157.195V163H71.0811V157.195C71.0811 156.505 70.9221 155.971 70.6041 155.593C70.2921 155.209 69.8151 155.017 69.1731 155.017C68.6991 155.017 68.2551 155.131 67.8411 155.359C67.4331 155.587 67.0551 155.896 66.7071 156.286V163H65.0961V149.743H66.7071V155.098ZM81.2353 157.447C81.2353 157.075 81.1813 156.736 81.0733 156.43C80.9713 156.118 80.8183 155.851 80.6143 155.629C80.4163 155.401 80.1733 155.227 79.8853 155.107C79.5973 154.981 79.2703 154.918 78.9043 154.918C78.1363 154.918 77.5273 155.143 77.0773 155.593C76.6333 156.037 76.3573 156.655 76.2493 157.447H81.2353ZM82.5313 161.722C82.3333 161.962 82.0963 162.172 81.8203 162.352C81.5443 162.526 81.2473 162.67 80.9293 162.784C80.6173 162.898 80.2933 162.982 79.9573 163.036C79.6213 163.096 79.2883 163.126 78.9583 163.126C78.3283 163.126 77.7463 163.021 77.2123 162.811C76.6843 162.595 76.2253 162.283 75.8353 161.875C75.4513 161.461 75.1513 160.951 74.9353 160.345C74.7193 159.739 74.6113 159.043 74.6113 158.257C74.6113 157.621 74.7073 157.027 74.8993 156.475C75.0973 155.923 75.3793 155.446 75.7453 155.044C76.1113 154.636 76.5583 154.318 77.0863 154.09C77.6143 153.856 78.2083 153.739 78.8683 153.739C79.4143 153.739 79.9183 153.832 80.3803 154.018C80.8483 154.198 81.2503 154.462 81.5863 154.81C81.9283 155.152 82.1953 155.578 82.3873 156.088C82.5793 156.592 82.6753 157.168 82.6753 157.816C82.6753 158.068 82.6483 158.236 82.5943 158.32C82.5403 158.404 82.4383 158.446 82.2883 158.446H76.1953C76.2133 159.022 76.2913 159.523 76.4293 159.949C76.5733 160.375 76.7713 160.732 77.0233 161.02C77.2753 161.302 77.5753 161.515 77.9233 161.659C78.2713 161.797 78.6613 161.866 79.0933 161.866C79.4953 161.866 79.8403 161.821 80.1283 161.731C80.4223 161.635 80.6743 161.533 80.8843 161.425C81.0943 161.317 81.2683 161.218 81.4063 161.128C81.5503 161.032 81.6733 160.984 81.7753 160.984C81.9073 160.984 82.0093 161.035 82.0813 161.137L82.5313 161.722ZM95.1885 156.052C94.8885 155.65 94.5645 155.371 94.2165 155.215C93.8685 155.053 93.4785 154.972 93.0465 154.972C92.2005 154.972 91.5495 155.275 91.0935 155.881C90.6375 156.487 90.4095 157.351 90.4095 158.473C90.4095 159.067 90.4605 159.577 90.5625 160.003C90.6645 160.423 90.8145 160.771 91.0125 161.047C91.2105 161.317 91.4535 161.515 91.7415 161.641C92.0295 161.767 92.3565 161.83 92.7225 161.83C93.2505 161.83 93.7095 161.71 94.0995 161.47C94.4955 161.23 94.8585 160.891 95.1885 160.453V156.052ZM96.7905 149.743V163H95.8365C95.6085 163 95.4645 162.889 95.4045 162.667L95.2605 161.56C94.8705 162.028 94.4265 162.406 93.9285 162.694C93.4305 162.982 92.8545 163.126 92.2005 163.126C91.6785 163.126 91.2045 163.027 90.7785 162.829C90.3525 162.625 89.9895 162.328 89.6895 161.938C89.3895 161.548 89.1585 161.062 88.9965 160.48C88.8345 159.898 88.7535 159.229 88.7535 158.473C88.7535 157.801 88.8435 157.177 89.0235 156.601C89.2035 156.019 89.4615 155.515 89.7975 155.089C90.1335 154.663 90.5445 154.33 91.0305 154.09C91.5225 153.844 92.0745 153.721 92.6865 153.721C93.2445 153.721 93.7215 153.817 94.1175 154.009C94.5195 154.195 94.8765 154.456 95.1885 154.792V149.743H96.7905ZM104.262 158.896C103.524 158.92 102.894 158.98 102.372 159.076C101.856 159.166 101.433 159.286 101.103 159.436C100.779 159.586 100.542 159.763 100.392 159.967C100.248 160.171 100.176 160.399 100.176 160.651C100.176 160.891 100.215 161.098 100.293 161.272C100.371 161.446 100.476 161.59 100.608 161.704C100.746 161.812 100.905 161.893 101.085 161.947C101.271 161.995 101.469 162.019 101.679 162.019C101.961 162.019 102.219 161.992 102.453 161.938C102.687 161.878 102.906 161.794 103.11 161.686C103.32 161.578 103.518 161.449 103.704 161.299C103.896 161.149 104.082 160.978 104.262 160.786V158.896ZM99.0868 155.17C99.5908 154.684 100.134 154.321 100.716 154.081C101.298 153.841 101.943 153.721 102.651 153.721C103.161 153.721 103.614 153.805 104.01 153.973C104.406 154.141 104.739 154.375 105.009 154.675C105.279 154.975 105.483 155.338 105.621 155.764C105.759 156.19 105.828 156.658 105.828 157.168V163H105.117C104.961 163 104.841 162.976 104.757 162.928C104.673 162.874 104.607 162.772 104.559 162.622L104.379 161.758C104.139 161.98 103.905 162.178 103.677 162.352C103.449 162.52 103.209 162.664 102.957 162.784C102.705 162.898 102.435 162.985 102.147 163.045C101.865 163.111 101.55 163.144 101.202 163.144C100.848 163.144 100.515 163.096 100.203 163C99.8908 162.898 99.6178 162.748 99.3838 162.55C99.1558 162.352 98.9728 162.103 98.8348 161.803C98.7028 161.497 98.6368 161.137 98.6368 160.723C98.6368 160.363 98.7358 160.018 98.9338 159.688C99.1318 159.352 99.4528 159.055 99.8968 158.797C100.341 158.539 100.92 158.329 101.634 158.167C102.348 157.999 103.224 157.903 104.262 157.879V157.168C104.262 156.46 104.109 155.926 103.803 155.566C103.497 155.2 103.05 155.017 102.462 155.017C102.066 155.017 101.733 155.068 101.463 155.17C101.199 155.266 100.968 155.377 100.77 155.503C100.578 155.623 100.41 155.734 100.266 155.836C100.128 155.932 99.9898 155.98 99.8518 155.98C99.7438 155.98 99.6508 155.953 99.5728 155.899C99.4948 155.839 99.4288 155.767 99.3748 155.683L99.0868 155.17ZM115.923 153.883L110.838 165.691C110.784 165.811 110.715 165.907 110.631 165.979C110.553 166.051 110.43 166.087 110.262 166.087H109.074L110.739 162.469L106.977 153.883H108.363C108.501 153.883 108.609 153.919 108.687 153.991C108.771 154.057 108.828 154.132 108.858 154.216L111.297 159.958C111.393 160.21 111.474 160.474 111.54 160.75C111.624 160.468 111.714 160.201 111.81 159.949L114.177 154.216C114.213 154.12 114.273 154.042 114.357 153.982C114.447 153.916 114.546 153.883 114.654 153.883H115.923ZM118.445 149.239C118.697 149.665 118.868 150.115 118.958 150.589C119.048 151.063 119.057 151.531 118.985 151.993C118.913 152.455 118.763 152.899 118.535 153.325C118.307 153.751 118.004 154.129 117.626 154.459L117.14 154.144C117.05 154.09 117.008 154.021 117.014 153.937C117.026 153.847 117.056 153.775 117.104 153.721C117.26 153.529 117.392 153.298 117.5 153.028C117.614 152.752 117.686 152.458 117.716 152.146C117.752 151.828 117.737 151.501 117.671 151.165C117.611 150.829 117.488 150.505 117.302 150.193C117.224 150.067 117.2 149.956 117.23 149.86C117.266 149.758 117.341 149.683 117.455 149.635L118.445 149.239ZM126.094 155.386C126.022 155.518 125.911 155.584 125.761 155.584C125.671 155.584 125.569 155.551 125.455 155.485C125.341 155.419 125.2 155.347 125.032 155.269C124.87 155.185 124.675 155.11 124.447 155.044C124.219 154.972 123.949 154.936 123.637 154.936C123.367 154.936 123.124 154.972 122.908 155.044C122.692 155.11 122.506 155.203 122.35 155.323C122.2 155.443 122.083 155.584 121.999 155.746C121.921 155.902 121.882 156.073 121.882 156.259C121.882 156.493 121.948 156.688 122.08 156.844C122.218 157 122.398 157.135 122.62 157.249C122.842 157.363 123.094 157.465 123.376 157.555C123.658 157.639 123.946 157.732 124.24 157.834C124.54 157.93 124.831 158.038 125.113 158.158C125.395 158.278 125.647 158.428 125.869 158.608C126.091 158.788 126.268 159.01 126.4 159.274C126.538 159.532 126.607 159.844 126.607 160.21C126.607 160.63 126.532 161.02 126.382 161.38C126.232 161.734 126.01 162.043 125.716 162.307C125.422 162.565 125.062 162.769 124.636 162.919C124.21 163.069 123.718 163.144 123.16 163.144C122.524 163.144 121.948 163.042 121.432 162.838C120.916 162.628 120.478 162.361 120.118 162.037L120.496 161.425C120.544 161.347 120.601 161.287 120.667 161.245C120.733 161.203 120.817 161.182 120.919 161.182C121.027 161.182 121.141 161.224 121.261 161.308C121.381 161.392 121.525 161.485 121.693 161.587C121.867 161.689 122.077 161.782 122.323 161.866C122.569 161.95 122.875 161.992 123.241 161.992C123.553 161.992 123.826 161.953 124.06 161.875C124.294 161.791 124.489 161.68 124.645 161.542C124.801 161.404 124.915 161.245 124.987 161.065C125.065 160.885 125.104 160.693 125.104 160.489C125.104 160.237 125.035 160.03 124.897 159.868C124.765 159.7 124.588 159.559 124.366 159.445C124.144 159.325 123.889 159.223 123.601 159.139C123.319 159.049 123.028 158.956 122.728 158.86C122.434 158.764 122.143 158.656 121.855 158.536C121.573 158.41 121.321 158.254 121.099 158.068C120.877 157.882 120.697 157.654 120.559 157.384C120.427 157.108 120.361 156.775 120.361 156.385C120.361 156.037 120.433 155.704 120.577 155.386C120.721 155.062 120.931 154.78 121.207 154.54C121.483 154.294 121.822 154.099 122.224 153.955C122.626 153.811 123.085 153.739 123.601 153.739C124.201 153.739 124.738 153.835 125.212 154.027C125.692 154.213 126.106 154.471 126.454 154.801L126.094 155.386ZM139.278 157.447C139.278 157.075 139.224 156.736 139.116 156.43C139.014 156.118 138.861 155.851 138.657 155.629C138.459 155.401 138.216 155.227 137.928 155.107C137.64 154.981 137.313 154.918 136.947 154.918C136.179 154.918 135.57 155.143 135.12 155.593C134.676 156.037 134.4 156.655 134.292 157.447H139.278ZM140.574 161.722C140.376 161.962 140.139 162.172 139.863 162.352C139.587 162.526 139.29 162.67 138.972 162.784C138.66 162.898 138.336 162.982 138 163.036C137.664 163.096 137.331 163.126 137.001 163.126C136.371 163.126 135.789 163.021 135.255 162.811C134.727 162.595 134.268 162.283 133.878 161.875C133.494 161.461 133.194 160.951 132.978 160.345C132.762 159.739 132.654 159.043 132.654 158.257C132.654 157.621 132.75 157.027 132.942 156.475C133.14 155.923 133.422 155.446 133.788 155.044C134.154 154.636 134.601 154.318 135.129 154.09C135.657 153.856 136.251 153.739 136.911 153.739C137.457 153.739 137.961 153.832 138.423 154.018C138.891 154.198 139.293 154.462 139.629 154.81C139.971 155.152 140.238 155.578 140.43 156.088C140.622 156.592 140.718 157.168 140.718 157.816C140.718 158.068 140.691 158.236 140.637 158.32C140.583 158.404 140.481 158.446 140.331 158.446H134.238C134.256 159.022 134.334 159.523 134.472 159.949C134.616 160.375 134.814 160.732 135.066 161.02C135.318 161.302 135.618 161.515 135.966 161.659C136.314 161.797 136.704 161.866 137.136 161.866C137.538 161.866 137.883 161.821 138.171 161.731C138.465 161.635 138.717 161.533 138.927 161.425C139.137 161.317 139.311 161.218 139.449 161.128C139.593 161.032 139.716 160.984 139.818 160.984C139.95 160.984 140.052 161.035 140.124 161.137L140.574 161.722ZM150.305 153.883L146.588 163H145.148L141.431 153.883H142.736C142.868 153.883 142.976 153.916 143.06 153.982C143.144 154.048 143.201 154.126 143.231 154.216L145.544 160.084C145.616 160.306 145.679 160.522 145.733 160.732C145.787 160.942 145.838 161.152 145.886 161.362C145.934 161.152 145.985 160.942 146.039 160.732C146.093 160.522 146.159 160.306 146.237 160.084L148.577 154.216C148.613 154.12 148.673 154.042 148.757 153.982C148.841 153.916 148.94 153.883 149.054 153.883H150.305ZM157.63 157.447C157.63 157.075 157.576 156.736 157.468 156.43C157.366 156.118 157.213 155.851 157.009 155.629C156.811 155.401 156.568 155.227 156.28 155.107C155.992 154.981 155.665 154.918 155.299 154.918C154.531 154.918 153.922 155.143 153.472 155.593C153.028 156.037 152.752 156.655 152.644 157.447H157.63ZM158.926 161.722C158.728 161.962 158.491 162.172 158.215 162.352C157.939 162.526 157.642 162.67 157.324 162.784C157.012 162.898 156.688 162.982 156.352 163.036C156.016 163.096 155.683 163.126 155.353 163.126C154.723 163.126 154.141 163.021 153.607 162.811C153.079 162.595 152.62 162.283 152.23 161.875C151.846 161.461 151.546 160.951 151.33 160.345C151.114 159.739 151.006 159.043 151.006 158.257C151.006 157.621 151.102 157.027 151.294 156.475C151.492 155.923 151.774 155.446 152.14 155.044C152.506 154.636 152.953 154.318 153.481 154.09C154.009 153.856 154.603 153.739 155.263 153.739C155.809 153.739 156.313 153.832 156.775 154.018C157.243 154.198 157.645 154.462 157.981 154.81C158.323 155.152 158.59 155.578 158.782 156.088C158.974 156.592 159.07 157.168 159.07 157.816C159.07 158.068 159.043 158.236 158.989 158.32C158.935 158.404 158.833 158.446 158.683 158.446H152.59C152.608 159.022 152.686 159.523 152.824 159.949C152.968 160.375 153.166 160.732 153.418 161.02C153.67 161.302 153.97 161.515 154.318 161.659C154.666 161.797 155.056 161.866 155.488 161.866C155.89 161.866 156.235 161.821 156.523 161.731C156.817 161.635 157.069 161.533 157.279 161.425C157.489 161.317 157.663 161.218 157.801 161.128C157.945 161.032 158.068 160.984 158.17 160.984C158.302 160.984 158.404 161.035 158.476 161.137L158.926 161.722ZM162.55 155.206C162.748 154.984 162.958 154.783 163.18 154.603C163.402 154.423 163.636 154.27 163.882 154.144C164.134 154.012 164.398 153.913 164.674 153.847C164.956 153.775 165.259 153.739 165.583 153.739C166.081 153.739 166.519 153.823 166.897 153.991C167.281 154.153 167.599 154.387 167.851 154.693C168.109 154.993 168.304 155.356 168.436 155.782C168.568 156.208 168.634 156.679 168.634 157.195V163H167.023V157.195C167.023 156.505 166.864 155.971 166.546 155.593C166.234 155.209 165.757 155.017 165.115 155.017C164.641 155.017 164.197 155.131 163.783 155.359C163.375 155.587 162.997 155.896 162.649 156.286V163H161.038V153.883H162.001C162.229 153.883 162.37 153.994 162.424 154.216L162.55 155.206ZM173.751 163.144C173.031 163.144 172.476 162.943 172.086 162.541C171.702 162.139 171.51 161.56 171.51 160.804V155.224H170.412C170.316 155.224 170.235 155.197 170.169 155.143C170.103 155.083 170.07 154.993 170.07 154.873V154.234L171.564 154.045L171.933 151.228C171.951 151.138 171.99 151.066 172.05 151.012C172.116 150.952 172.2 150.922 172.302 150.922H173.112V154.063H175.749V155.224H173.112V160.696C173.112 161.08 173.205 161.365 173.391 161.551C173.577 161.737 173.817 161.83 174.111 161.83C174.279 161.83 174.423 161.809 174.543 161.767C174.669 161.719 174.777 161.668 174.867 161.614C174.957 161.56 175.032 161.512 175.092 161.47C175.158 161.422 175.215 161.398 175.263 161.398C175.347 161.398 175.422 161.449 175.488 161.551L175.956 162.316C175.68 162.574 175.347 162.778 174.957 162.928C174.567 163.072 174.165 163.144 173.751 163.144ZM182.713 155.386C182.641 155.518 182.53 155.584 182.38 155.584C182.29 155.584 182.188 155.551 182.074 155.485C181.96 155.419 181.819 155.347 181.651 155.269C181.489 155.185 181.294 155.11 181.066 155.044C180.838 154.972 180.568 154.936 180.256 154.936C179.986 154.936 179.743 154.972 179.527 155.044C179.311 155.11 179.125 155.203 178.969 155.323C178.819 155.443 178.702 155.584 178.618 155.746C178.54 155.902 178.501 156.073 178.501 156.259C178.501 156.493 178.567 156.688 178.699 156.844C178.837 157 179.017 157.135 179.239 157.249C179.461 157.363 179.713 157.465 179.995 157.555C180.277 157.639 180.565 157.732 180.859 157.834C181.159 157.93 181.45 158.038 181.732 158.158C182.014 158.278 182.266 158.428 182.488 158.608C182.71 158.788 182.887 159.01 183.019 159.274C183.157 159.532 183.226 159.844 183.226 160.21C183.226 160.63 183.151 161.02 183.001 161.38C182.851 161.734 182.629 162.043 182.335 162.307C182.041 162.565 181.681 162.769 181.255 162.919C180.829 163.069 180.337 163.144 179.779 163.144C179.143 163.144 178.567 163.042 178.051 162.838C177.535 162.628 177.097 162.361 176.737 162.037L177.115 161.425C177.163 161.347 177.22 161.287 177.286 161.245C177.352 161.203 177.436 161.182 177.538 161.182C177.646 161.182 177.76 161.224 177.88 161.308C178 161.392 178.144 161.485 178.312 161.587C178.486 161.689 178.696 161.782 178.942 161.866C179.188 161.95 179.494 161.992 179.86 161.992C180.172 161.992 180.445 161.953 180.679 161.875C180.913 161.791 181.108 161.68 181.264 161.542C181.42 161.404 181.534 161.245 181.606 161.065C181.684 160.885 181.723 160.693 181.723 160.489C181.723 160.237 181.654 160.03 181.516 159.868C181.384 159.7 181.207 159.559 180.985 159.445C180.763 159.325 180.508 159.223 180.22 159.139C179.938 159.049 179.647 158.956 179.347 158.86C179.053 158.764 178.762 158.656 178.474 158.536C178.192 158.41 177.94 158.254 177.718 158.068C177.496 157.882 177.316 157.654 177.178 157.384C177.046 157.108 176.98 156.775 176.98 156.385C176.98 156.037 177.052 155.704 177.196 155.386C177.34 155.062 177.55 154.78 177.826 154.54C178.102 154.294 178.441 154.099 178.843 153.955C179.245 153.811 179.704 153.739 180.22 153.739C180.82 153.739 181.357 153.835 181.831 154.027C182.311 154.213 182.725 154.471 183.073 154.801L182.713 155.386ZM26.628 192.896C25.89 192.92 25.26 192.98 24.738 193.076C24.222 193.166 23.799 193.286 23.469 193.436C23.145 193.586 22.908 193.763 22.758 193.967C22.614 194.171 22.542 194.399 22.542 194.651C22.542 194.891 22.581 195.098 22.659 195.272C22.737 195.446 22.842 195.59 22.974 195.704C23.112 195.812 23.271 195.893 23.451 195.947C23.637 195.995 23.835 196.019 24.045 196.019C24.327 196.019 24.585 195.992 24.819 195.938C25.053 195.878 25.272 195.794 25.476 195.686C25.686 195.578 25.884 195.449 26.07 195.299C26.262 195.149 26.448 194.978 26.628 194.786V192.896ZM21.453 189.17C21.957 188.684 22.5 188.321 23.082 188.081C23.664 187.841 24.309 187.721 25.017 187.721C25.527 187.721 25.98 187.805 26.376 187.973C26.772 188.141 27.105 188.375 27.375 188.675C27.645 188.975 27.849 189.338 27.987 189.764C28.125 190.19 28.194 190.658 28.194 191.168V197H27.483C27.327 197 27.207 196.976 27.123 196.928C27.039 196.874 26.973 196.772 26.925 196.622L26.745 195.758C26.505 195.98 26.271 196.178 26.043 196.352C25.815 196.52 25.575 196.664 25.323 196.784C25.071 196.898 24.801 196.985 24.513 197.045C24.231 197.111 23.916 197.144 23.568 197.144C23.214 197.144 22.881 197.096 22.569 197C22.257 196.898 21.984 196.748 21.75 196.55C21.522 196.352 21.339 196.103 21.201 195.803C21.069 195.497 21.003 195.137 21.003 194.723C21.003 194.363 21.102 194.018 21.3 193.688C21.498 193.352 21.819 193.055 22.263 192.797C22.707 192.539 23.286 192.329 24 192.167C24.714 191.999 25.59 191.903 26.628 191.879V191.168C26.628 190.46 26.475 189.926 26.169 189.566C25.863 189.2 25.416 189.017 24.828 189.017C24.432 189.017 24.099 189.068 23.829 189.17C23.565 189.266 23.334 189.377 23.136 189.503C22.944 189.623 22.776 189.734 22.632 189.836C22.494 189.932 22.356 189.98 22.218 189.98C22.11 189.98 22.017 189.953 21.939 189.899C21.861 189.839 21.795 189.767 21.741 189.683L21.453 189.17ZM32.1462 189.206C32.3442 188.984 32.5542 188.783 32.7762 188.603C32.9982 188.423 33.2322 188.27 33.4782 188.144C33.7302 188.012 33.9942 187.913 34.2702 187.847C34.5522 187.775 34.8552 187.739 35.1792 187.739C35.6772 187.739 36.1152 187.823 36.4932 187.991C36.8772 188.153 37.1952 188.387 37.4472 188.693C37.7052 188.993 37.9002 189.356 38.0322 189.782C38.1642 190.208 38.2302 190.679 38.2302 191.195V197H36.6192V191.195C36.6192 190.505 36.4602 189.971 36.1422 189.593C35.8302 189.209 35.3532 189.017 34.7112 189.017C34.2372 189.017 33.7932 189.131 33.3792 189.359C32.9712 189.587 32.5932 189.896 32.2452 190.286V197H30.6342V187.883H31.5972C31.8252 187.883 31.9662 187.994 32.0202 188.216L32.1462 189.206ZM46.6113 190.052C46.3113 189.65 45.9873 189.371 45.6393 189.215C45.2913 189.053 44.9013 188.972 44.4693 188.972C43.6233 188.972 42.9723 189.275 42.5163 189.881C42.0603 190.487 41.8323 191.351 41.8323 192.473C41.8323 193.067 41.8833 193.577 41.9853 194.003C42.0873 194.423 42.2373 194.771 42.4353 195.047C42.6333 195.317 42.8763 195.515 43.1643 195.641C43.4523 195.767 43.7793 195.83 44.1453 195.83C44.6733 195.83 45.1323 195.71 45.5223 195.47C45.9183 195.23 46.2813 194.891 46.6113 194.453V190.052ZM48.2133 183.743V197H47.2593C47.0313 197 46.8873 196.889 46.8273 196.667L46.6833 195.56C46.2933 196.028 45.8493 196.406 45.3513 196.694C44.8533 196.982 44.2773 197.126 43.6233 197.126C43.1013 197.126 42.6273 197.027 42.2013 196.829C41.7753 196.625 41.4123 196.328 41.1123 195.938C40.8123 195.548 40.5813 195.062 40.4193 194.48C40.2573 193.898 40.1763 193.229 40.1763 192.473C40.1763 191.801 40.2663 191.177 40.4463 190.601C40.6263 190.019 40.8843 189.515 41.2203 189.089C41.5563 188.663 41.9673 188.33 42.4533 188.09C42.9453 187.844 43.4973 187.721 44.1093 187.721C44.6673 187.721 45.1443 187.817 45.5403 188.009C45.9423 188.195 46.2993 188.456 46.6113 188.792V183.743H48.2133ZM58.1481 197.144C57.4281 197.144 56.8731 196.943 56.4831 196.541C56.0991 196.139 55.9071 195.56 55.9071 194.804V189.224H54.8091C54.7131 189.224 54.6321 189.197 54.5661 189.143C54.5001 189.083 54.4671 188.993 54.4671 188.873V188.234L55.9611 188.045L56.3301 185.228C56.3481 185.138 56.3871 185.066 56.4471 185.012C56.5131 184.952 56.5971 184.922 56.6991 184.922H57.5091V188.063H60.1461V189.224H57.5091V194.696C57.5091 195.08 57.6021 195.365 57.7881 195.551C57.9741 195.737 58.2141 195.83 58.5081 195.83C58.6761 195.83 58.8201 195.809 58.9401 195.767C59.0661 195.719 59.1741 195.668 59.2641 195.614C59.3541 195.56 59.4291 195.512 59.4891 195.47C59.5551 195.422 59.6121 195.398 59.6601 195.398C59.7441 195.398 59.8191 195.449 59.8851 195.551L60.3531 196.316C60.0771 196.574 59.7441 196.778 59.3541 196.928C58.9641 197.072 58.5621 197.144 58.1481 197.144ZM66.7413 192.896C66.0033 192.92 65.3733 192.98 64.8513 193.076C64.3353 193.166 63.9123 193.286 63.5823 193.436C63.2583 193.586 63.0213 193.763 62.8713 193.967C62.7273 194.171 62.6553 194.399 62.6553 194.651C62.6553 194.891 62.6943 195.098 62.7723 195.272C62.8503 195.446 62.9553 195.59 63.0873 195.704C63.2253 195.812 63.3843 195.893 63.5643 195.947C63.7503 195.995 63.9483 196.019 64.1583 196.019C64.4403 196.019 64.6983 195.992 64.9323 195.938C65.1663 195.878 65.3853 195.794 65.5893 195.686C65.7993 195.578 65.9973 195.449 66.1833 195.299C66.3753 195.149 66.5613 194.978 66.7413 194.786V192.896ZM61.5663 189.17C62.0703 188.684 62.6133 188.321 63.1953 188.081C63.7773 187.841 64.4223 187.721 65.1303 187.721C65.6403 187.721 66.0933 187.805 66.4893 187.973C66.8853 188.141 67.2183 188.375 67.4883 188.675C67.7583 188.975 67.9623 189.338 68.1003 189.764C68.2383 190.19 68.3073 190.658 68.3073 191.168V197H67.5963C67.4403 197 67.3203 196.976 67.2363 196.928C67.1523 196.874 67.0863 196.772 67.0383 196.622L66.8583 195.758C66.6183 195.98 66.3843 196.178 66.1562 196.352C65.9283 196.52 65.6883 196.664 65.4363 196.784C65.1843 196.898 64.9143 196.985 64.6263 197.045C64.3443 197.111 64.0293 197.144 63.6813 197.144C63.3273 197.144 62.9943 197.096 62.6823 197C62.3703 196.898 62.0973 196.748 61.8633 196.55C61.6353 196.352 61.4523 196.103 61.3143 195.803C61.1823 195.497 61.1163 195.137 61.1163 194.723C61.1163 194.363 61.2153 194.018 61.4133 193.688C61.6113 193.352 61.9323 193.055 62.3763 192.797C62.8203 192.539 63.3993 192.329 64.1133 192.167C64.8273 191.999 65.7033 191.903 66.7413 191.879V191.168C66.7413 190.46 66.5883 189.926 66.2823 189.566C65.9763 189.2 65.5293 189.017 64.9413 189.017C64.5453 189.017 64.2123 189.068 63.9423 189.17C63.6783 189.266 63.4473 189.377 63.2493 189.503C63.0573 189.623 62.8893 189.734 62.7453 189.836C62.6073 189.932 62.4693 189.98 62.3313 189.98C62.2233 189.98 62.1303 189.953 62.0523 189.899C61.9743 189.839 61.9083 189.767 61.8542 189.683L61.5663 189.17ZM76.0575 189.386C75.9855 189.518 75.8745 189.584 75.7245 189.584C75.6345 189.584 75.5325 189.551 75.4185 189.485C75.3045 189.419 75.1635 189.347 74.9955 189.269C74.8335 189.185 74.6385 189.11 74.4105 189.044C74.1825 188.972 73.9125 188.936 73.6005 188.936C73.3305 188.936 73.0875 188.972 72.8715 189.044C72.6555 189.11 72.4695 189.203 72.3135 189.323C72.1635 189.443 72.0465 189.584 71.9625 189.746C71.8845 189.902 71.8455 190.073 71.8455 190.259C71.8455 190.493 71.9115 190.688 72.0435 190.844C72.1815 191 72.3615 191.135 72.5835 191.249C72.8055 191.363 73.0575 191.465 73.3395 191.555C73.6215 191.639 73.9095 191.732 74.2035 191.834C74.5035 191.93 74.7945 192.038 75.0765 192.158C75.3585 192.278 75.6105 192.428 75.8325 192.608C76.0545 192.788 76.2315 193.01 76.3635 193.274C76.5015 193.532 76.5705 193.844 76.5705 194.21C76.5705 194.63 76.4955 195.02 76.3455 195.38C76.1955 195.734 75.9735 196.043 75.6795 196.307C75.3855 196.565 75.0255 196.769 74.5995 196.919C74.1735 197.069 73.6815 197.144 73.1235 197.144C72.4875 197.144 71.9115 197.042 71.3955 196.838C70.8795 196.628 70.4415 196.361 70.0815 196.037L70.4595 195.425C70.5075 195.347 70.5645 195.287 70.6305 195.245C70.6965 195.203 70.7805 195.182 70.8825 195.182C70.9905 195.182 71.1045 195.224 71.2245 195.308C71.3445 195.392 71.4885 195.485 71.6565 195.587C71.8305 195.689 72.0405 195.782 72.2865 195.866C72.5325 195.95 72.8385 195.992 73.2045 195.992C73.5165 195.992 73.7895 195.953 74.0235 195.875C74.2575 195.791 74.4525 195.68 74.6085 195.542C74.7645 195.404 74.8785 195.245 74.9505 195.065C75.0285 194.885 75.0675 194.693 75.0675 194.489C75.0675 194.237 74.9985 194.03 74.8605 193.868C74.7285 193.7 74.5515 193.559 74.3295 193.445C74.1075 193.325 73.8525 193.223 73.5645 193.139C73.2825 193.049 72.9915 192.956 72.6915 192.86C72.3975 192.764 72.1065 192.656 71.8185 192.536C71.5365 192.41 71.2845 192.254 71.0625 192.068C70.8405 191.882 70.6605 191.654 70.5225 191.384C70.3905 191.108 70.3245 190.775 70.3245 190.385C70.3245 190.037 70.3965 189.704 70.5405 189.386C70.6845 189.062 70.8945 188.78 71.1705 188.54C71.4465 188.294 71.7855 188.099 72.1875 187.955C72.5895 187.811 73.0485 187.739 73.5645 187.739C74.1645 187.739 74.7015 187.835 75.1755 188.027C75.6555 188.213 76.0695 188.471 76.4175 188.801L76.0575 189.386ZM80.1456 183.743V191.546H80.5596C80.6796 191.546 80.7786 191.531 80.8566 191.501C80.9406 191.465 81.0276 191.396 81.1176 191.294L83.9976 188.207C84.0816 188.105 84.1686 188.027 84.2586 187.973C84.3546 187.913 84.4806 187.883 84.6366 187.883H86.0856L82.7286 191.456C82.5666 191.66 82.3926 191.819 82.2066 191.933C82.3146 192.005 82.4106 192.089 82.4946 192.185C82.5846 192.275 82.6686 192.38 82.7466 192.5L86.3106 197H84.8796C84.7416 197 84.6216 196.979 84.5196 196.937C84.4236 196.889 84.3396 196.805 84.2676 196.685L81.2706 192.95C81.1806 192.824 81.0906 192.743 81.0006 192.707C80.9166 192.665 80.7846 192.644 80.6046 192.644H80.1456V197H78.5346V183.743H80.1456ZM92.9853 189.386C92.9133 189.518 92.8023 189.584 92.6523 189.584C92.5623 189.584 92.4603 189.551 92.3463 189.485C92.2323 189.419 92.0913 189.347 91.9233 189.269C91.7613 189.185 91.5663 189.11 91.3383 189.044C91.1103 188.972 90.8403 188.936 90.5283 188.936C90.2583 188.936 90.0153 188.972 89.7993 189.044C89.5833 189.11 89.3973 189.203 89.2413 189.323C89.0913 189.443 88.9743 189.584 88.8903 189.746C88.8123 189.902 88.7733 190.073 88.7733 190.259C88.7733 190.493 88.8393 190.688 88.9713 190.844C89.1093 191 89.2893 191.135 89.5113 191.249C89.7333 191.363 89.9853 191.465 90.2673 191.555C90.5493 191.639 90.8373 191.732 91.1313 191.834C91.4313 191.93 91.7223 192.038 92.0043 192.158C92.2863 192.278 92.5383 192.428 92.7603 192.608C92.9823 192.788 93.1593 193.01 93.2913 193.274C93.4293 193.532 93.4983 193.844 93.4983 194.21C93.4983 194.63 93.4233 195.02 93.2733 195.38C93.1233 195.734 92.9013 196.043 92.6073 196.307C92.3133 196.565 91.9533 196.769 91.5273 196.919C91.1013 197.069 90.6093 197.144 90.0513 197.144C89.4153 197.144 88.8393 197.042 88.3233 196.838C87.8073 196.628 87.3693 196.361 87.0093 196.037L87.3873 195.425C87.4353 195.347 87.4923 195.287 87.5583 195.245C87.6243 195.203 87.7083 195.182 87.8103 195.182C87.9183 195.182 88.0323 195.224 88.1523 195.308C88.2723 195.392 88.4163 195.485 88.5843 195.587C88.7583 195.689 88.9683 195.782 89.2143 195.866C89.4603 195.95 89.7663 195.992 90.1323 195.992C90.4443 195.992 90.7173 195.953 90.9512 195.875C91.1853 195.791 91.3803 195.68 91.5363 195.542C91.6923 195.404 91.8063 195.245 91.8783 195.065C91.9563 194.885 91.9953 194.693 91.9953 194.489C91.9953 194.237 91.9263 194.03 91.7883 193.868C91.6563 193.7 91.4793 193.559 91.2573 193.445C91.0353 193.325 90.7803 193.223 90.4923 193.139C90.2103 193.049 89.9193 192.956 89.6193 192.86C89.3253 192.764 89.0343 192.656 88.7463 192.536C88.4643 192.41 88.2123 192.254 87.9903 192.068C87.7683 191.882 87.5883 191.654 87.4503 191.384C87.3183 191.108 87.2523 190.775 87.2523 190.385C87.2523 190.037 87.3243 189.704 87.4683 189.386C87.6123 189.062 87.8223 188.78 88.0983 188.54C88.3743 188.294 88.7133 188.099 89.1153 187.955C89.5173 187.811 89.9763 187.739 90.4923 187.739C91.0923 187.739 91.6293 187.835 92.1033 188.027C92.5833 188.213 92.9973 188.471 93.3453 188.801L92.9853 189.386ZM101.76 187.883V197H100.158V187.883H101.76ZM102.102 185.021C102.102 185.177 102.069 185.324 102.003 185.462C101.943 185.594 101.859 185.714 101.751 185.822C101.649 185.924 101.526 186.005 101.382 186.065C101.244 186.125 101.097 186.155 100.941 186.155C100.785 186.155 100.638 186.125 100.5 186.065C100.368 186.005 100.251 185.924 100.149 185.822C100.047 185.714 99.9658 185.594 99.9058 185.462C99.8458 185.324 99.8158 185.177 99.8158 185.021C99.8158 184.865 99.8458 184.718 99.9058 184.58C99.9658 184.436 100.047 184.313 100.149 184.211C100.251 184.103 100.368 184.019 100.5 183.959C100.638 183.899 100.785 183.869 100.941 183.869C101.097 183.869 101.244 183.899 101.382 183.959C101.526 184.019 101.649 184.103 101.751 184.211C101.859 184.313 101.943 184.436 102.003 184.58C102.069 184.718 102.102 184.865 102.102 185.021ZM105.904 189.206C106.102 188.984 106.312 188.783 106.534 188.603C106.756 188.423 106.99 188.27 107.236 188.144C107.488 188.012 107.752 187.913 108.028 187.847C108.31 187.775 108.613 187.739 108.937 187.739C109.435 187.739 109.873 187.823 110.251 187.991C110.635 188.153 110.953 188.387 111.205 188.693C111.463 188.993 111.658 189.356 111.79 189.782C111.922 190.208 111.988 190.679 111.988 191.195V197H110.377V191.195C110.377 190.505 110.218 189.971 109.9 189.593C109.588 189.209 109.111 189.017 108.469 189.017C107.995 189.017 107.551 189.131 107.137 189.359C106.729 189.587 106.351 189.896 106.003 190.286V197H104.392V187.883H105.355C105.583 187.883 105.724 187.994 105.778 188.216L105.904 189.206ZM123.976 192.896C123.238 192.92 122.608 192.98 122.086 193.076C121.57 193.166 121.147 193.286 120.817 193.436C120.493 193.586 120.256 193.763 120.106 193.967C119.962 194.171 119.89 194.399 119.89 194.651C119.89 194.891 119.929 195.098 120.007 195.272C120.085 195.446 120.19 195.59 120.322 195.704C120.46 195.812 120.619 195.893 120.799 195.947C120.985 195.995 121.183 196.019 121.393 196.019C121.675 196.019 121.933 195.992 122.167 195.938C122.401 195.878 122.62 195.794 122.824 195.686C123.034 195.578 123.232 195.449 123.418 195.299C123.61 195.149 123.796 194.978 123.976 194.786V192.896ZM118.801 189.17C119.305 188.684 119.848 188.321 120.43 188.081C121.012 187.841 121.657 187.721 122.365 187.721C122.875 187.721 123.328 187.805 123.724 187.973C124.12 188.141 124.453 188.375 124.723 188.675C124.993 188.975 125.197 189.338 125.335 189.764C125.473 190.19 125.542 190.658 125.542 191.168V197H124.831C124.675 197 124.555 196.976 124.471 196.928C124.387 196.874 124.321 196.772 124.273 196.622L124.093 195.758C123.853 195.98 123.619 196.178 123.391 196.352C123.163 196.52 122.923 196.664 122.671 196.784C122.419 196.898 122.149 196.985 121.861 197.045C121.579 197.111 121.264 197.144 120.916 197.144C120.562 197.144 120.229 197.096 119.917 197C119.605 196.898 119.332 196.748 119.098 196.55C118.87 196.352 118.687 196.103 118.549 195.803C118.417 195.497 118.351 195.137 118.351 194.723C118.351 194.363 118.45 194.018 118.648 193.688C118.846 193.352 119.167 193.055 119.611 192.797C120.055 192.539 120.634 192.329 121.348 192.167C122.062 191.999 122.938 191.903 123.976 191.879V191.168C123.976 190.46 123.823 189.926 123.517 189.566C123.211 189.2 122.764 189.017 122.176 189.017C121.78 189.017 121.447 189.068 121.177 189.17C120.913 189.266 120.682 189.377 120.484 189.503C120.292 189.623 120.124 189.734 119.98 189.836C119.842 189.932 119.704 189.98 119.566 189.98C119.458 189.98 119.365 189.953 119.287 189.899C119.209 189.839 119.143 189.767 119.089 189.683L118.801 189.17ZM137.897 189.386C137.825 189.518 137.714 189.584 137.564 189.584C137.474 189.584 137.372 189.551 137.258 189.485C137.144 189.419 137.003 189.347 136.835 189.269C136.673 189.185 136.478 189.11 136.25 189.044C136.022 188.972 135.752 188.936 135.44 188.936C135.17 188.936 134.927 188.972 134.711 189.044C134.495 189.11 134.309 189.203 134.153 189.323C134.003 189.443 133.886 189.584 133.802 189.746C133.724 189.902 133.685 190.073 133.685 190.259C133.685 190.493 133.751 190.688 133.883 190.844C134.021 191 134.201 191.135 134.423 191.249C134.645 191.363 134.897 191.465 135.179 191.555C135.461 191.639 135.749 191.732 136.043 191.834C136.343 191.93 136.634 192.038 136.916 192.158C137.198 192.278 137.45 192.428 137.672 192.608C137.894 192.788 138.071 193.01 138.203 193.274C138.341 193.532 138.41 193.844 138.41 194.21C138.41 194.63 138.335 195.02 138.185 195.38C138.035 195.734 137.813 196.043 137.519 196.307C137.225 196.565 136.865 196.769 136.439 196.919C136.013 197.069 135.521 197.144 134.963 197.144C134.327 197.144 133.751 197.042 133.235 196.838C132.719 196.628 132.281 196.361 131.921 196.037L132.299 195.425C132.347 195.347 132.404 195.287 132.47 195.245C132.536 195.203 132.62 195.182 132.722 195.182C132.83 195.182 132.944 195.224 133.064 195.308C133.184 195.392 133.328 195.485 133.496 195.587C133.67 195.689 133.88 195.782 134.126 195.866C134.372 195.95 134.678 195.992 135.044 195.992C135.356 195.992 135.629 195.953 135.863 195.875C136.097 195.791 136.292 195.68 136.448 195.542C136.604 195.404 136.718 195.245 136.79 195.065C136.868 194.885 136.907 194.693 136.907 194.489C136.907 194.237 136.838 194.03 136.7 193.868C136.568 193.7 136.391 193.559 136.169 193.445C135.947 193.325 135.692 193.223 135.404 193.139C135.122 193.049 134.831 192.956 134.531 192.86C134.237 192.764 133.946 192.656 133.658 192.536C133.376 192.41 133.124 192.254 132.902 192.068C132.68 191.882 132.5 191.654 132.362 191.384C132.23 191.108 132.164 190.775 132.164 190.385C132.164 190.037 132.236 189.704 132.38 189.386C132.524 189.062 132.734 188.78 133.01 188.54C133.286 188.294 133.625 188.099 134.027 187.955C134.429 187.811 134.888 187.739 135.404 187.739C136.004 187.739 136.541 187.835 137.015 188.027C137.495 188.213 137.909 188.471 138.257 188.801L137.897 189.386ZM142.066 187.883V197H140.464V187.883H142.066ZM142.408 185.021C142.408 185.177 142.375 185.324 142.309 185.462C142.249 185.594 142.165 185.714 142.057 185.822C141.955 185.924 141.832 186.005 141.688 186.065C141.55 186.125 141.403 186.155 141.247 186.155C141.091 186.155 140.944 186.125 140.806 186.065C140.674 186.005 140.557 185.924 140.455 185.822C140.353 185.714 140.272 185.594 140.212 185.462C140.152 185.324 140.122 185.177 140.122 185.021C140.122 184.865 140.152 184.718 140.212 184.58C140.272 184.436 140.353 184.313 140.455 184.211C140.557 184.103 140.674 184.019 140.806 183.959C140.944 183.899 141.091 183.869 141.247 183.869C141.403 183.869 141.55 183.899 141.688 183.959C141.832 184.019 141.955 184.103 142.057 184.211C142.165 184.313 142.249 184.436 142.309 184.58C142.375 184.718 142.408 184.865 142.408 185.021ZM146.211 189.206C146.409 188.984 146.619 188.783 146.841 188.603C147.063 188.423 147.297 188.27 147.543 188.144C147.795 188.012 148.059 187.913 148.335 187.847C148.617 187.775 148.92 187.739 149.244 187.739C149.742 187.739 150.18 187.823 150.558 187.991C150.942 188.153 151.26 188.387 151.512 188.693C151.77 188.993 151.965 189.356 152.097 189.782C152.229 190.208 152.295 190.679 152.295 191.195V197H150.684V191.195C150.684 190.505 150.525 189.971 150.207 189.593C149.895 189.209 149.418 189.017 148.776 189.017C148.302 189.017 147.858 189.131 147.444 189.359C147.036 189.587 146.658 189.896 146.31 190.286V197H144.699V187.883H145.662C145.89 187.883 146.031 187.994 146.085 188.216L146.211 189.206ZM157.913 192.545C158.237 192.545 158.522 192.5 158.768 192.41C159.014 192.32 159.221 192.194 159.389 192.032C159.557 191.87 159.683 191.678 159.767 191.456C159.851 191.228 159.893 190.979 159.893 190.709C159.893 190.151 159.722 189.707 159.38 189.377C159.044 189.047 158.555 188.882 157.913 188.882C157.265 188.882 156.77 189.047 156.428 189.377C156.092 189.707 155.924 190.151 155.924 190.709C155.924 190.979 155.966 191.228 156.05 191.456C156.14 191.678 156.269 191.87 156.437 192.032C156.605 192.194 156.812 192.32 157.058 192.41C157.304 192.5 157.589 192.545 157.913 192.545ZM160.802 197.495C160.802 197.273 160.739 197.093 160.613 196.955C160.487 196.817 160.316 196.709 160.1 196.631C159.89 196.553 159.644 196.499 159.362 196.469C159.08 196.433 158.78 196.406 158.462 196.388C158.15 196.37 157.832 196.352 157.508 196.334C157.184 196.316 156.872 196.286 156.572 196.244C156.236 196.4 155.96 196.598 155.744 196.838C155.534 197.072 155.429 197.348 155.429 197.666C155.429 197.87 155.48 198.059 155.582 198.233C155.69 198.413 155.852 198.566 156.068 198.692C156.284 198.824 156.554 198.926 156.878 198.998C157.208 199.076 157.595 199.115 158.039 199.115C158.471 199.115 158.858 199.076 159.2 198.998C159.542 198.92 159.83 198.809 160.064 198.665C160.304 198.521 160.487 198.35 160.613 198.152C160.739 197.954 160.802 197.735 160.802 197.495ZM162.431 188.243V188.837C162.431 189.035 162.305 189.161 162.053 189.215L161.018 189.35C161.222 189.746 161.324 190.184 161.324 190.664C161.324 191.108 161.237 191.513 161.063 191.879C160.895 192.239 160.661 192.548 160.361 192.806C160.061 193.064 159.701 193.262 159.281 193.4C158.861 193.538 158.405 193.607 157.913 193.607C157.487 193.607 157.085 193.556 156.707 193.454C156.515 193.574 156.368 193.703 156.266 193.841C156.164 193.973 156.113 194.108 156.113 194.246C156.113 194.462 156.2 194.627 156.374 194.741C156.554 194.849 156.788 194.927 157.076 194.975C157.364 195.023 157.691 195.053 158.057 195.065C158.429 195.077 158.807 195.098 159.191 195.128C159.581 195.152 159.959 195.197 160.325 195.263C160.697 195.329 161.027 195.437 161.315 195.587C161.603 195.737 161.834 195.944 162.008 196.208C162.188 196.472 162.278 196.814 162.278 197.234C162.278 197.624 162.179 198.002 161.981 198.368C161.789 198.734 161.51 199.058 161.144 199.34C160.778 199.628 160.328 199.856 159.794 200.024C159.266 200.198 158.669 200.285 158.003 200.285C157.337 200.285 156.755 200.219 156.257 200.087C155.759 199.955 155.345 199.778 155.015 199.556C154.685 199.334 154.436 199.076 154.268 198.782C154.106 198.494 154.025 198.191 154.025 197.873C154.025 197.423 154.166 197.042 154.448 196.73C154.73 196.418 155.117 196.169 155.609 195.983C155.339 195.863 155.123 195.704 154.961 195.506C154.805 195.302 154.727 195.029 154.727 194.687C154.727 194.555 154.751 194.42 154.799 194.282C154.847 194.138 154.919 193.997 155.015 193.859C155.117 193.715 155.24 193.58 155.384 193.454C155.528 193.328 155.696 193.217 155.888 193.121C155.438 192.869 155.087 192.536 154.835 192.122C154.583 191.702 154.457 191.216 154.457 190.664C154.457 190.22 154.541 189.818 154.709 189.458C154.883 189.092 155.123 188.783 155.429 188.531C155.735 188.273 156.098 188.075 156.518 187.937C156.944 187.799 157.409 187.73 157.913 187.73C158.309 187.73 158.678 187.775 159.02 187.865C159.362 187.949 159.674 188.075 159.956 188.243H162.431ZM165.743 183.743V197H164.141V183.743H165.743ZM174.443 191.447C174.443 191.075 174.389 190.736 174.281 190.43C174.179 190.118 174.026 189.851 173.822 189.629C173.624 189.401 173.381 189.227 173.093 189.107C172.805 188.981 172.478 188.918 172.112 188.918C171.344 188.918 170.735 189.143 170.285 189.593C169.841 190.037 169.565 190.655 169.457 191.447H174.443ZM175.739 195.722C175.541 195.962 175.304 196.172 175.028 196.352C174.752 196.526 174.455 196.67 174.137 196.784C173.825 196.898 173.501 196.982 173.165 197.036C172.829 197.096 172.496 197.126 172.166 197.126C171.536 197.126 170.954 197.021 170.42 196.811C169.892 196.595 169.433 196.283 169.043 195.875C168.659 195.461 168.359 194.951 168.143 194.345C167.927 193.739 167.819 193.043 167.819 192.257C167.819 191.621 167.915 191.027 168.107 190.475C168.305 189.923 168.587 189.446 168.953 189.044C169.319 188.636 169.766 188.318 170.294 188.09C170.822 187.856 171.416 187.739 172.076 187.739C172.622 187.739 173.126 187.832 173.588 188.018C174.056 188.198 174.458 188.462 174.794 188.81C175.136 189.152 175.403 189.578 175.595 190.088C175.787 190.592 175.883 191.168 175.883 191.816C175.883 192.068 175.856 192.236 175.802 192.32C175.748 192.404 175.646 192.446 175.496 192.446H169.403C169.421 193.022 169.499 193.523 169.637 193.949C169.781 194.375 169.979 194.732 170.231 195.02C170.483 195.302 170.783 195.515 171.131 195.659C171.479 195.797 171.869 195.866 172.301 195.866C172.703 195.866 173.048 195.821 173.336 195.731C173.63 195.635 173.882 195.533 174.092 195.425C174.302 195.317 174.476 195.218 174.614 195.128C174.758 195.032 174.881 194.984 174.983 194.984C175.115 194.984 175.217 195.035 175.289 195.137L175.739 195.722ZM69.8107 217.743V231H68.2087V217.743H69.8107ZM76.2516 221.739C76.9176 221.739 77.5176 221.85 78.0516 222.072C78.5856 222.294 79.0416 222.609 79.4196 223.017C79.7976 223.425 80.0856 223.92 80.2836 224.502C80.4876 225.078 80.5896 225.723 80.5896 226.437C80.5896 227.157 80.4876 227.805 80.2836 228.381C80.0856 228.957 79.7976 229.449 79.4196 229.857C79.0416 230.265 78.5856 230.58 78.0516 230.802C77.5176 231.018 76.9176 231.126 76.2516 231.126C75.5796 231.126 74.9736 231.018 74.4336 230.802C73.8996 230.58 73.4436 230.265 73.0656 229.857C72.6876 229.449 72.3966 228.957 72.1926 228.381C71.9946 227.805 71.8956 227.157 71.8956 226.437C71.8956 225.723 71.9946 225.078 72.1926 224.502C72.3966 223.92 72.6876 223.425 73.0656 223.017C73.4436 222.609 73.8996 222.294 74.4336 222.072C74.9736 221.85 75.5796 221.739 76.2516 221.739ZM76.2516 229.875C77.1516 229.875 77.8236 229.575 78.2676 228.975C78.7116 228.369 78.9336 227.526 78.9336 226.446C78.9336 225.36 78.7116 224.514 78.2676 223.908C77.8236 223.302 77.1516 222.999 76.2516 222.999C75.7956 222.999 75.3966 223.077 75.0546 223.233C74.7186 223.389 74.4366 223.614 74.2086 223.908C73.9866 224.202 73.8186 224.565 73.7046 224.997C73.5966 225.423 73.5426 225.906 73.5426 226.446C73.5426 227.526 73.7646 228.369 74.2086 228.975C74.6586 229.575 75.3396 229.875 76.2516 229.875ZM88.9665 223.503C88.9185 223.569 88.8705 223.62 88.8225 223.656C88.7745 223.692 88.7085 223.71 88.6245 223.71C88.5345 223.71 88.4355 223.674 88.3275 223.602C88.2195 223.524 88.0845 223.44 87.9225 223.35C87.7665 223.26 87.5715 223.179 87.3375 223.107C87.1095 223.029 86.8275 222.99 86.4915 222.99C86.0415 222.99 85.6455 223.071 85.3035 223.233C84.9615 223.389 84.6735 223.617 84.4395 223.917C84.2115 224.217 84.0375 224.58 83.9175 225.006C83.8035 225.432 83.7465 225.909 83.7465 226.437C83.7465 226.989 83.8095 227.481 83.9355 227.913C84.0615 228.339 84.2385 228.699 84.4665 228.993C84.7005 229.281 84.9795 229.503 85.3035 229.659C85.6335 229.809 86.0025 229.884 86.4105 229.884C86.8005 229.884 87.1215 229.839 87.3735 229.749C87.6255 229.653 87.8325 229.548 87.9945 229.434C88.1625 229.32 88.3005 229.218 88.4085 229.128C88.5225 229.032 88.6335 228.984 88.7415 228.984C88.8735 228.984 88.9755 229.035 89.0475 229.137L89.4975 229.722C89.2995 229.968 89.0745 230.178 88.8225 230.352C88.5705 230.526 88.2975 230.673 88.0035 230.793C87.7155 230.907 87.4125 230.991 87.0945 231.045C86.7765 231.099 86.4525 231.126 86.1225 231.126C85.5525 231.126 85.0215 231.021 84.5295 230.811C84.0435 230.601 83.6205 230.298 83.2605 229.902C82.9005 229.5 82.6185 229.008 82.4145 228.426C82.2105 227.844 82.1085 227.181 82.1085 226.437C82.1085 225.759 82.2015 225.132 82.3875 224.556C82.5795 223.98 82.8555 223.485 83.2155 223.071C83.5815 222.651 84.0285 222.324 84.5565 222.09C85.0905 221.856 85.7025 221.739 86.3925 221.739C87.0345 221.739 87.5985 221.844 88.0845 222.054C88.5765 222.258 89.0115 222.549 89.3895 222.927L88.9665 223.503ZM96.1582 226.896C95.4202 226.92 94.7902 226.98 94.2682 227.076C93.7522 227.166 93.3292 227.286 92.9992 227.436C92.6752 227.586 92.4382 227.763 92.2882 227.967C92.1442 228.171 92.0722 228.399 92.0722 228.651C92.0722 228.891 92.1112 229.098 92.1892 229.272C92.2672 229.446 92.3722 229.59 92.5042 229.704C92.6422 229.812 92.8012 229.893 92.9812 229.947C93.1672 229.995 93.3652 230.019 93.5752 230.019C93.8572 230.019 94.1152 229.992 94.3492 229.938C94.5832 229.878 94.8022 229.794 95.0062 229.686C95.2162 229.578 95.4142 229.449 95.6002 229.299C95.7922 229.149 95.9782 228.978 96.1582 228.786V226.896ZM90.9832 223.17C91.4872 222.684 92.0302 222.321 92.6122 222.081C93.1942 221.841 93.8392 221.721 94.5472 221.721C95.0572 221.721 95.5102 221.805 95.9062 221.973C96.3022 222.141 96.6352 222.375 96.9052 222.675C97.1752 222.975 97.3792 223.338 97.5172 223.764C97.6552 224.19 97.7242 224.658 97.7242 225.168V231H97.0132C96.8572 231 96.7372 230.976 96.6532 230.928C96.5692 230.874 96.5032 230.772 96.4552 230.622L96.2752 229.758C96.0352 229.98 95.8012 230.178 95.5732 230.352C95.3452 230.52 95.1052 230.664 94.8532 230.784C94.6012 230.898 94.3312 230.985 94.0432 231.045C93.7612 231.111 93.4462 231.144 93.0982 231.144C92.7442 231.144 92.4112 231.096 92.0992 231C91.7872 230.898 91.5142 230.748 91.2802 230.55C91.0522 230.352 90.8692 230.103 90.7312 229.803C90.5992 229.497 90.5332 229.137 90.5332 228.723C90.5332 228.363 90.6322 228.018 90.8302 227.688C91.0282 227.352 91.3492 227.055 91.7932 226.797C92.2372 226.539 92.8162 226.329 93.5302 226.167C94.2442 225.999 95.1202 225.903 96.1582 225.879V225.168C96.1582 224.46 96.0052 223.926 95.6992 223.566C95.3932 223.2 94.9462 223.017 94.3582 223.017C93.9622 223.017 93.6292 223.068 93.3592 223.17C93.0952 223.266 92.8642 223.377 92.6662 223.503C92.4742 223.623 92.3062 223.734 92.1622 223.836C92.0242 223.932 91.8862 223.98 91.7482 223.98C91.6402 223.98 91.5472 223.953 91.4692 223.899C91.3912 223.839 91.3252 223.767 91.2712 223.683L90.9832 223.17ZM108.501 231H106.899V223.224H102.201V228.696C102.201 229.08 102.294 229.365 102.48 229.551C102.666 229.737 102.906 229.83 103.2 229.83C103.368 229.83 103.512 229.809 103.632 229.767C103.758 229.719 103.866 229.668 103.956 229.614C104.046 229.56 104.121 229.512 104.181 229.47C104.247 229.422 104.304 229.398 104.352 229.398C104.436 229.398 104.511 229.449 104.577 229.551L105.045 230.316C104.769 230.574 104.436 230.778 104.046 230.928C103.656 231.072 103.254 231.144 102.84 231.144C102.12 231.144 101.565 230.943 101.175 230.541C100.791 230.139 100.599 229.56 100.599 228.804V223.224H99.5015C99.4055 223.224 99.3245 223.197 99.2585 223.143C99.1925 223.083 99.1595 222.993 99.1595 222.873V222.234L100.653 222.036L101.022 219.228C101.04 219.138 101.079 219.066 101.139 219.012C101.205 218.952 101.289 218.922 101.391 218.922H102.201V222.063H108.501V231ZM108.897 218.958C108.897 219.114 108.864 219.261 108.798 219.399C108.738 219.531 108.654 219.648 108.546 219.75C108.444 219.852 108.324 219.933 108.186 219.993C108.048 220.053 107.901 220.083 107.745 220.083C107.589 220.083 107.442 220.053 107.304 219.993C107.172 219.933 107.055 219.852 106.953 219.75C106.851 219.648 106.77 219.531 106.71 219.399C106.65 219.261 106.62 219.114 106.62 218.958C106.62 218.802 106.65 218.655 106.71 218.517C106.77 218.373 106.851 218.25 106.953 218.148C107.055 218.04 107.172 217.956 107.304 217.896C107.442 217.836 107.589 217.806 107.745 217.806C107.901 217.806 108.048 217.836 108.186 217.896C108.324 217.956 108.444 218.04 108.546 218.148C108.654 218.25 108.738 218.373 108.798 218.517C108.864 218.655 108.897 218.802 108.897 218.958ZM114.976 221.739C115.642 221.739 116.242 221.85 116.776 222.072C117.31 222.294 117.766 222.609 118.144 223.017C118.522 223.425 118.81 223.92 119.008 224.502C119.212 225.078 119.314 225.723 119.314 226.437C119.314 227.157 119.212 227.805 119.008 228.381C118.81 228.957 118.522 229.449 118.144 229.857C117.766 230.265 117.31 230.58 116.776 230.802C116.242 231.018 115.642 231.126 114.976 231.126C114.304 231.126 113.698 231.018 113.158 230.802C112.624 230.58 112.168 230.265 111.79 229.857C111.412 229.449 111.121 228.957 110.917 228.381C110.719 227.805 110.62 227.157 110.62 226.437C110.62 225.723 110.719 225.078 110.917 224.502C111.121 223.92 111.412 223.425 111.79 223.017C112.168 222.609 112.624 222.294 113.158 222.072C113.698 221.85 114.304 221.739 114.976 221.739ZM114.976 229.875C115.876 229.875 116.548 229.575 116.992 228.975C117.436 228.369 117.658 227.526 117.658 226.446C117.658 225.36 117.436 224.514 116.992 223.908C116.548 223.302 115.876 222.999 114.976 222.999C114.52 222.999 114.121 223.077 113.779 223.233C113.443 223.389 113.161 223.614 112.933 223.908C112.711 224.202 112.543 224.565 112.429 224.997C112.321 225.423 112.267 225.906 112.267 226.446C112.267 227.526 112.489 228.369 112.933 228.975C113.383 229.575 114.064 229.875 114.976 229.875ZM122.858 223.206C123.056 222.984 123.266 222.783 123.488 222.603C123.71 222.423 123.944 222.27 124.19 222.144C124.442 222.012 124.706 221.913 124.982 221.847C125.264 221.775 125.567 221.739 125.891 221.739C126.389 221.739 126.827 221.823 127.205 221.991C127.589 222.153 127.907 222.387 128.159 222.693C128.417 222.993 128.612 223.356 128.744 223.782C128.876 224.208 128.942 224.679 128.942 225.195V231H127.331V225.195C127.331 224.505 127.172 223.971 126.854 223.593C126.542 223.209 126.065 223.017 125.423 223.017C124.949 223.017 124.505 223.131 124.091 223.359C123.683 223.587 123.305 223.896 122.957 224.286V231H121.346V221.883H122.309C122.537 221.883 122.678 221.994 122.732 222.216L122.858 223.206Z" fill="black"/>
</svg>
