<svg width="197" height="241" viewBox="0 0 197 241" fill="none" xmlns="http://www.w3.org/2000/svg">
<g opacity="0.4" filter="url(#filter0_i)">
<path d="M125.5 41C125.5 55.3594 113.859 67 99.5 67C85.1406 67 73.5 55.3594 73.5 41C73.5 26.6406 85.1406 15 99.5 15C113.859 15 125.5 26.6406 125.5 41ZM83.9 41C83.9 49.6156 90.8844 56.6 99.5 56.6C108.116 56.6 115.1 49.6156 115.1 41C115.1 32.3844 108.116 25.4 99.5 25.4C90.8844 25.4 83.9 32.3844 83.9 41Z" fill="#F66700"/>
</g>
<path d="M99.5 20.2C99.5 17.3281 101.851 14.9477 104.665 15.5183C106.3 15.8495 107.902 16.338 109.45 16.9791C112.604 18.2858 115.47 20.2009 117.885 22.6152C120.299 25.0295 122.214 27.8958 123.521 31.0502C124.827 34.2047 125.5 37.5856 125.5 41C125.5 44.4144 124.827 47.7953 123.521 50.9498C122.214 54.1042 120.299 56.9705 117.885 59.3848C115.47 61.7991 112.604 63.7142 109.45 65.0209C107.902 65.662 106.3 66.1505 104.665 66.4817C101.851 67.0523 99.5 64.6719 99.5 61.8C99.5 58.9281 101.89 56.681 104.604 55.7413C104.896 55.6404 105.184 55.5308 105.47 55.4125C107.363 54.6285 109.082 53.4795 110.531 52.0309C111.979 50.5823 113.129 48.8625 113.913 46.9699C114.696 45.0772 115.1 43.0486 115.1 41C115.1 38.9514 114.696 36.9228 113.913 35.0301C113.129 33.1375 111.979 31.4177 110.531 29.9691C109.082 28.5205 107.363 27.3715 105.47 26.5875C105.184 26.4692 104.896 26.3596 104.604 26.2587C101.89 25.319 99.5 23.0719 99.5 20.2Z" fill="#F66700"/>
<g filter="url(#filter1_i)">
<path d="M115.92 41.2686C115.92 50.191 108.687 57.424 99.7647 57.424C90.8424 57.424 83.6094 50.191 83.6094 41.2686C83.6094 32.3463 90.8424 25.1133 99.7647 25.1133C108.687 25.1133 115.92 32.3463 115.92 41.2686ZM90.0715 41.2686C90.0715 46.622 94.4113 50.9618 99.7647 50.9618C105.118 50.9618 109.458 46.622 109.458 41.2686C109.458 35.9152 105.118 31.5754 99.7647 31.5754C94.4113 31.5754 90.0715 35.9152 90.0715 41.2686Z" fill="#3D66C8" fill-opacity="0.4"/>
</g>
<path d="M99.7647 28.3423C99.7647 26.5578 101.225 25.0787 102.974 25.4332C104.527 25.748 106.031 26.2908 107.436 27.0488C109.793 28.3206 111.797 30.1584 113.267 32.3969C114.738 34.6354 115.629 37.2043 115.86 39.8725C116.091 42.5408 115.655 45.2246 114.591 47.6826C113.528 50.1406 111.87 52.2955 109.766 53.9536C107.663 55.6117 105.181 56.7208 102.542 57.1813C99.9039 57.6418 97.1925 57.4391 94.6519 56.5915C93.1377 56.0863 91.7124 55.3615 90.4199 54.4449C88.9642 53.4127 89.0425 51.3354 90.3433 50.1138C91.6441 48.8923 93.6788 49.0192 95.2587 49.8487C95.7193 50.0906 96.2002 50.2958 96.697 50.4615C98.2214 50.9701 99.8482 51.0917 101.431 50.8154C103.014 50.5391 104.504 49.8736 105.766 48.8788C107.028 47.8839 108.023 46.5909 108.661 45.1162C109.299 43.6414 109.56 42.0311 109.422 40.4301C109.283 38.8292 108.749 37.2878 107.866 35.9447C106.984 34.6017 105.782 33.499 104.368 32.7359C103.907 32.4872 103.428 32.2771 102.936 32.1069C101.25 31.523 99.7647 30.1267 99.7647 28.3423Z" fill="#3D66C8"/>
<path d="M25.954 102.79C26.452 102.79 26.89 102.724 27.268 102.592C27.652 102.46 27.973 102.277 28.231 102.043C28.495 101.803 28.693 101.518 28.825 101.188C28.957 100.858 29.023 100.495 29.023 100.099C29.023 99.277 28.768 98.635 28.258 98.173C27.754 97.711 26.986 97.48 25.954 97.48H23.884V102.79H25.954ZM25.954 96.103C26.77 96.103 27.478 96.199 28.078 96.391C28.684 96.577 29.185 96.844 29.581 97.192C29.977 97.54 30.271 97.96 30.463 98.452C30.661 98.944 30.76 99.493 30.76 100.099C30.76 100.699 30.655 101.248 30.445 101.746C30.235 102.244 29.926 102.673 29.518 103.033C29.116 103.393 28.615 103.675 28.015 103.879C27.421 104.077 26.734 104.176 25.954 104.176H23.884V109H22.147V96.103H25.954ZM33.9248 101.71C34.2128 101.086 34.5668 100.6 34.9868 100.252C35.4068 99.898 35.9198 99.721 36.5258 99.721C36.7178 99.721 36.9008 99.742 37.0748 99.784C37.2548 99.826 37.4138 99.892 37.5518 99.982L37.4348 101.179C37.3988 101.329 37.3088 101.404 37.1648 101.404C37.0808 101.404 36.9578 101.386 36.7958 101.35C36.6338 101.314 36.4508 101.296 36.2468 101.296C35.9588 101.296 35.7008 101.338 35.4728 101.422C35.2508 101.506 35.0498 101.632 34.8698 101.8C34.6958 101.962 34.5368 102.166 34.3928 102.412C34.2548 102.652 34.1288 102.928 34.0148 103.24V109H32.4038V99.883H33.3218C33.4958 99.883 33.6158 99.916 33.6818 99.982C33.7478 100.048 33.7928 100.162 33.8168 100.324L33.9248 101.71ZM42.4343 99.739C43.1003 99.739 43.7003 99.85 44.2343 100.072C44.7683 100.294 45.2243 100.609 45.6023 101.017C45.9803 101.425 46.2683 101.92 46.4663 102.502C46.6703 103.078 46.7723 103.723 46.7723 104.437C46.7723 105.157 46.6703 105.805 46.4663 106.381C46.2683 106.957 45.9803 107.449 45.6023 107.857C45.2243 108.265 44.7683 108.58 44.2343 108.802C43.7003 109.018 43.1003 109.126 42.4343 109.126C41.7623 109.126 41.1563 109.018 40.6163 108.802C40.0823 108.58 39.6263 108.265 39.2483 107.857C38.8703 107.449 38.5793 106.957 38.3753 106.381C38.1773 105.805 38.0783 105.157 38.0783 104.437C38.0783 103.723 38.1773 103.078 38.3753 102.502C38.5793 101.92 38.8703 101.425 39.2483 101.017C39.6263 100.609 40.0823 100.294 40.6163 100.072C41.1563 99.85 41.7623 99.739 42.4343 99.739ZM42.4343 107.875C43.3343 107.875 44.0063 107.575 44.4503 106.975C44.8943 106.369 45.1163 105.526 45.1163 104.446C45.1163 103.36 44.8943 102.514 44.4503 101.908C44.0063 101.302 43.3343 100.999 42.4343 100.999C41.9783 100.999 41.5793 101.077 41.2373 101.233C40.9013 101.389 40.6193 101.614 40.3913 101.908C40.1693 102.202 40.0013 102.565 39.8873 102.997C39.7793 103.423 39.7253 103.906 39.7253 104.446C39.7253 105.526 39.9473 106.369 40.3913 106.975C40.8413 107.575 41.5223 107.875 42.4343 107.875ZM54.7442 102.052C54.4442 101.65 54.1202 101.371 53.7722 101.215C53.4242 101.053 53.0342 100.972 52.6022 100.972C51.7562 100.972 51.1052 101.275 50.6492 101.881C50.1932 102.487 49.9652 103.351 49.9652 104.473C49.9652 105.067 50.0162 105.577 50.1182 106.003C50.2202 106.423 50.3702 106.771 50.5682 107.047C50.7662 107.317 51.0092 107.515 51.2972 107.641C51.5852 107.767 51.9122 107.83 52.2782 107.83C52.8062 107.83 53.2652 107.71 53.6552 107.47C54.0512 107.23 54.4142 106.891 54.7442 106.453V102.052ZM56.3462 95.743V109H55.3922C55.1642 109 55.0202 108.889 54.9602 108.667L54.8162 107.56C54.4262 108.028 53.9822 108.406 53.4842 108.694C52.9862 108.982 52.4102 109.126 51.7562 109.126C51.2342 109.126 50.7602 109.027 50.3342 108.829C49.9082 108.625 49.5452 108.328 49.2452 107.938C48.9452 107.548 48.7142 107.062 48.5522 106.48C48.3902 105.898 48.3092 105.229 48.3092 104.473C48.3092 103.801 48.3992 103.177 48.5792 102.601C48.7592 102.019 49.0172 101.515 49.3532 101.089C49.6892 100.663 50.1002 100.33 50.5862 100.09C51.0782 99.844 51.6302 99.721 52.2422 99.721C52.8002 99.721 53.2772 99.817 53.6732 100.009C54.0752 100.195 54.4322 100.456 54.7442 100.792V95.743H56.3462ZM66.3734 99.883V109H65.4194C65.1914 109 65.0474 108.889 64.9874 108.667L64.8614 107.686C64.4654 108.124 64.0214 108.478 63.5294 108.748C63.0374 109.012 62.4734 109.144 61.8374 109.144C61.3394 109.144 60.8984 109.063 60.5144 108.901C60.1364 108.733 59.8184 108.499 59.5604 108.199C59.3024 107.899 59.1074 107.536 58.9754 107.11C58.8494 106.684 58.7864 106.213 58.7864 105.697V99.883H60.3884V105.697C60.3884 106.387 60.5444 106.921 60.8564 107.299C61.1744 107.677 61.6574 107.866 62.3054 107.866C62.7794 107.866 63.2204 107.755 63.6284 107.533C64.0424 107.305 64.4234 106.993 64.7714 106.597V99.883H66.3734ZM75.2585 101.503C75.2105 101.569 75.1625 101.62 75.1145 101.656C75.0665 101.692 75.0005 101.71 74.9165 101.71C74.8265 101.71 74.7275 101.674 74.6195 101.602C74.5115 101.524 74.3765 101.44 74.2145 101.35C74.0585 101.26 73.8635 101.179 73.6295 101.107C73.4015 101.029 73.1195 100.99 72.7835 100.99C72.3335 100.99 71.9375 101.071 71.5955 101.233C71.2535 101.389 70.9655 101.617 70.7315 101.917C70.5035 102.217 70.3295 102.58 70.2095 103.006C70.0955 103.432 70.0385 103.909 70.0385 104.437C70.0385 104.989 70.1015 105.481 70.2275 105.913C70.3535 106.339 70.5305 106.699 70.7585 106.993C70.9925 107.281 71.2715 107.503 71.5955 107.659C71.9255 107.809 72.2945 107.884 72.7025 107.884C73.0925 107.884 73.4135 107.839 73.6655 107.749C73.9175 107.653 74.1245 107.548 74.2865 107.434C74.4545 107.32 74.5925 107.218 74.7005 107.128C74.8145 107.032 74.9255 106.984 75.0335 106.984C75.1655 106.984 75.2675 107.035 75.3395 107.137L75.7895 107.722C75.5915 107.968 75.3665 108.178 75.1145 108.352C74.8625 108.526 74.5895 108.673 74.2955 108.793C74.0075 108.907 73.7045 108.991 73.3865 109.045C73.0685 109.099 72.7445 109.126 72.4145 109.126C71.8445 109.126 71.3135 109.021 70.8215 108.811C70.3355 108.601 69.9125 108.298 69.5525 107.902C69.1925 107.5 68.9105 107.008 68.7065 106.426C68.5025 105.844 68.4005 105.181 68.4005 104.437C68.4005 103.759 68.4935 103.132 68.6795 102.556C68.8715 101.98 69.1475 101.485 69.5075 101.071C69.8735 100.651 70.3205 100.324 70.8485 100.09C71.3825 99.856 71.9945 99.739 72.6845 99.739C73.3265 99.739 73.8905 99.844 74.3765 100.054C74.8685 100.258 75.3035 100.549 75.6815 100.927L75.2585 101.503ZM85.9692 109H84.3672V101.224H79.6692V106.696C79.6692 107.08 79.7622 107.365 79.9482 107.551C80.1342 107.737 80.3742 107.83 80.6682 107.83C80.8362 107.83 80.9802 107.809 81.1002 107.767C81.2262 107.719 81.3342 107.668 81.4242 107.614C81.5142 107.56 81.5892 107.512 81.6492 107.47C81.7152 107.422 81.7722 107.398 81.8202 107.398C81.9042 107.398 81.9792 107.449 82.0452 107.551L82.5132 108.316C82.2372 108.574 81.9042 108.778 81.5142 108.928C81.1242 109.072 80.7222 109.144 80.3082 109.144C79.5882 109.144 79.0332 108.943 78.6432 108.541C78.2592 108.139 78.0672 107.56 78.0672 106.804V101.224H76.9692C76.8732 101.224 76.7922 101.197 76.7262 101.143C76.6602 101.083 76.6272 100.993 76.6272 100.873V100.234L78.1212 100.036L78.4902 97.228C78.5082 97.138 78.5472 97.066 78.6072 97.012C78.6732 96.952 78.7572 96.922 78.8592 96.922H79.6692V100.063H85.9692V109ZM86.3652 96.958C86.3652 97.114 86.3322 97.261 86.2662 97.399C86.2062 97.531 86.1222 97.648 86.0142 97.75C85.9122 97.852 85.7922 97.933 85.6542 97.993C85.5162 98.053 85.3692 98.083 85.2132 98.083C85.0572 98.083 84.9102 98.053 84.7722 97.993C84.6402 97.933 84.5232 97.852 84.4212 97.75C84.3192 97.648 84.2382 97.531 84.1782 97.399C84.1182 97.261 84.0882 97.114 84.0882 96.958C84.0882 96.802 84.1182 96.655 84.1782 96.517C84.2382 96.373 84.3192 96.25 84.4212 96.148C84.5232 96.04 84.6402 95.956 84.7722 95.896C84.9102 95.836 85.0572 95.806 85.2132 95.806C85.3692 95.806 85.5162 95.836 85.6542 95.896C85.7922 95.956 85.9122 96.04 86.0142 96.148C86.1222 96.25 86.2062 96.373 86.2662 96.517C86.3322 96.655 86.3652 96.802 86.3652 96.958ZM96.413 99.883L92.696 109H91.256L87.539 99.883H88.844C88.976 99.883 89.084 99.916 89.168 99.982C89.252 100.048 89.309 100.126 89.339 100.216L91.652 106.084C91.724 106.306 91.787 106.522 91.841 106.732C91.895 106.942 91.946 107.152 91.994 107.362C92.042 107.152 92.093 106.942 92.147 106.732C92.201 106.522 92.267 106.306 92.345 106.084L94.685 100.216C94.721 100.12 94.781 100.042 94.865 99.982C94.949 99.916 95.048 99.883 95.162 99.883H96.413ZM99.5743 99.883V109H97.9723V99.883H99.5743ZM99.9163 97.021C99.9163 97.177 99.8833 97.324 99.8173 97.462C99.7573 97.594 99.6733 97.714 99.5653 97.822C99.4633 97.924 99.3403 98.005 99.1963 98.065C99.0583 98.125 98.9113 98.155 98.7553 98.155C98.5993 98.155 98.4523 98.125 98.3143 98.065C98.1823 98.005 98.0653 97.924 97.9633 97.822C97.8613 97.714 97.7803 97.594 97.7203 97.462C97.6603 97.324 97.6303 97.177 97.6303 97.021C97.6303 96.865 97.6603 96.718 97.7203 96.58C97.7803 96.436 97.8613 96.313 97.9633 96.211C98.0653 96.103 98.1823 96.019 98.3143 95.959C98.4523 95.899 98.5993 95.869 98.7553 95.869C98.9113 95.869 99.0583 95.899 99.1963 95.959C99.3403 96.019 99.4633 96.103 99.5653 96.211C99.6733 96.313 99.7573 96.436 99.8173 96.58C99.8833 96.718 99.9163 96.865 99.9163 97.021ZM105.006 109.144C104.286 109.144 103.731 108.943 103.341 108.541C102.957 108.139 102.765 107.56 102.765 106.804V101.224H101.667C101.571 101.224 101.49 101.197 101.424 101.143C101.358 101.083 101.325 100.993 101.325 100.873V100.234L102.819 100.045L103.188 97.228C103.206 97.138 103.245 97.066 103.305 97.012C103.371 96.952 103.455 96.922 103.557 96.922H104.367V100.063H107.004V101.224H104.367V106.696C104.367 107.08 104.46 107.365 104.646 107.551C104.832 107.737 105.072 107.83 105.366 107.83C105.534 107.83 105.678 107.809 105.798 107.767C105.924 107.719 106.032 107.668 106.122 107.614C106.212 107.56 106.287 107.512 106.347 107.47C106.413 107.422 106.47 107.398 106.518 107.398C106.602 107.398 106.677 107.449 106.743 107.551L107.211 108.316C106.935 108.574 106.602 108.778 106.212 108.928C105.822 109.072 105.42 109.144 105.006 109.144ZM116.524 99.883L111.439 111.691C111.385 111.811 111.316 111.907 111.232 111.979C111.154 112.051 111.031 112.087 110.863 112.087H109.675L111.34 108.469L107.578 99.883H108.964C109.102 99.883 109.21 99.919 109.288 99.991C109.372 100.057 109.429 100.132 109.459 100.216L111.898 105.958C111.994 106.21 112.075 106.474 112.141 106.75C112.225 106.468 112.315 106.201 112.411 105.949L114.778 100.216C114.814 100.12 114.874 100.042 114.958 99.982C115.048 99.916 115.147 99.883 115.255 99.883H116.524ZM124.904 109.144C124.184 109.144 123.629 108.943 123.239 108.541C122.855 108.139 122.663 107.56 122.663 106.804V101.224H121.565C121.469 101.224 121.388 101.197 121.322 101.143C121.256 101.083 121.223 100.993 121.223 100.873V100.234L122.717 100.045L123.086 97.228C123.104 97.138 123.143 97.066 123.203 97.012C123.269 96.952 123.353 96.922 123.455 96.922H124.265V100.063H126.902V101.224H124.265V106.696C124.265 107.08 124.358 107.365 124.544 107.551C124.73 107.737 124.97 107.83 125.264 107.83C125.432 107.83 125.576 107.809 125.696 107.767C125.822 107.719 125.93 107.668 126.02 107.614C126.11 107.56 126.185 107.512 126.245 107.47C126.311 107.422 126.368 107.398 126.416 107.398C126.5 107.398 126.575 107.449 126.641 107.551L127.109 108.316C126.833 108.574 126.5 108.778 126.11 108.928C125.72 109.072 125.318 109.144 124.904 109.144ZM130.077 101.71C130.365 101.086 130.719 100.6 131.139 100.252C131.559 99.898 132.072 99.721 132.678 99.721C132.87 99.721 133.053 99.742 133.227 99.784C133.407 99.826 133.566 99.892 133.704 99.982L133.587 101.179C133.551 101.329 133.461 101.404 133.317 101.404C133.233 101.404 133.11 101.386 132.948 101.35C132.786 101.314 132.603 101.296 132.399 101.296C132.111 101.296 131.853 101.338 131.625 101.422C131.403 101.506 131.202 101.632 131.022 101.8C130.848 101.962 130.689 102.166 130.545 102.412C130.407 102.652 130.281 102.928 130.167 103.24V109H128.556V99.883H129.474C129.648 99.883 129.768 99.916 129.834 99.982C129.9 100.048 129.945 100.162 129.969 100.324L130.077 101.71ZM139.913 104.896C139.175 104.92 138.545 104.98 138.023 105.076C137.507 105.166 137.084 105.286 136.754 105.436C136.43 105.586 136.193 105.763 136.043 105.967C135.899 106.171 135.827 106.399 135.827 106.651C135.827 106.891 135.866 107.098 135.944 107.272C136.022 107.446 136.127 107.59 136.259 107.704C136.397 107.812 136.556 107.893 136.736 107.947C136.922 107.995 137.12 108.019 137.33 108.019C137.612 108.019 137.87 107.992 138.104 107.938C138.338 107.878 138.557 107.794 138.761 107.686C138.971 107.578 139.169 107.449 139.355 107.299C139.547 107.149 139.733 106.978 139.913 106.786V104.896ZM134.738 101.17C135.242 100.684 135.785 100.321 136.367 100.081C136.949 99.841 137.594 99.721 138.302 99.721C138.812 99.721 139.265 99.805 139.661 99.973C140.057 100.141 140.39 100.375 140.66 100.675C140.93 100.975 141.134 101.338 141.272 101.764C141.41 102.19 141.479 102.658 141.479 103.168V109H140.768C140.612 109 140.492 108.976 140.408 108.928C140.324 108.874 140.258 108.772 140.21 108.622L140.03 107.758C139.79 107.98 139.556 108.178 139.328 108.352C139.1 108.52 138.86 108.664 138.608 108.784C138.356 108.898 138.086 108.985 137.798 109.045C137.516 109.111 137.201 109.144 136.853 109.144C136.499 109.144 136.166 109.096 135.854 109C135.542 108.898 135.269 108.748 135.035 108.55C134.807 108.352 134.624 108.103 134.486 107.803C134.354 107.497 134.288 107.137 134.288 106.723C134.288 106.363 134.387 106.018 134.585 105.688C134.783 105.352 135.104 105.055 135.548 104.797C135.992 104.539 136.571 104.329 137.285 104.167C137.999 103.999 138.875 103.903 139.913 103.879V103.168C139.913 102.46 139.76 101.926 139.454 101.566C139.148 101.2 138.701 101.017 138.113 101.017C137.717 101.017 137.384 101.068 137.114 101.17C136.85 101.266 136.619 101.377 136.421 101.503C136.229 101.623 136.061 101.734 135.917 101.836C135.779 101.932 135.641 101.98 135.503 101.98C135.395 101.98 135.302 101.953 135.224 101.899C135.146 101.839 135.08 101.767 135.026 101.683L134.738 101.17ZM150.264 101.503C150.216 101.569 150.168 101.62 150.12 101.656C150.072 101.692 150.006 101.71 149.922 101.71C149.832 101.71 149.733 101.674 149.625 101.602C149.517 101.524 149.382 101.44 149.22 101.35C149.064 101.26 148.869 101.179 148.635 101.107C148.407 101.029 148.125 100.99 147.789 100.99C147.339 100.99 146.943 101.071 146.601 101.233C146.259 101.389 145.971 101.617 145.737 101.917C145.509 102.217 145.335 102.58 145.215 103.006C145.101 103.432 145.044 103.909 145.044 104.437C145.044 104.989 145.107 105.481 145.233 105.913C145.359 106.339 145.536 106.699 145.764 106.993C145.998 107.281 146.277 107.503 146.601 107.659C146.931 107.809 147.3 107.884 147.708 107.884C148.098 107.884 148.419 107.839 148.671 107.749C148.923 107.653 149.13 107.548 149.292 107.434C149.46 107.32 149.598 107.218 149.706 107.128C149.82 107.032 149.931 106.984 150.039 106.984C150.171 106.984 150.273 107.035 150.345 107.137L150.795 107.722C150.597 107.968 150.372 108.178 150.12 108.352C149.868 108.526 149.595 108.673 149.301 108.793C149.013 108.907 148.71 108.991 148.392 109.045C148.074 109.099 147.75 109.126 147.42 109.126C146.85 109.126 146.319 109.021 145.827 108.811C145.341 108.601 144.918 108.298 144.558 107.902C144.198 107.5 143.916 107.008 143.712 106.426C143.508 105.844 143.406 105.181 143.406 104.437C143.406 103.759 143.499 103.132 143.685 102.556C143.877 101.98 144.153 101.485 144.513 101.071C144.879 100.651 145.326 100.324 145.854 100.09C146.388 99.856 147 99.739 147.69 99.739C148.332 99.739 148.896 99.844 149.382 100.054C149.874 100.258 150.309 100.549 150.687 100.927L150.264 101.503ZM154.126 95.743V103.546H154.54C154.66 103.546 154.759 103.531 154.837 103.501C154.921 103.465 155.008 103.396 155.098 103.294L157.978 100.207C158.062 100.105 158.149 100.027 158.239 99.973C158.335 99.913 158.461 99.883 158.617 99.883H160.066L156.709 103.456C156.547 103.66 156.373 103.819 156.187 103.933C156.295 104.005 156.391 104.089 156.475 104.185C156.565 104.275 156.649 104.38 156.727 104.5L160.291 109H158.86C158.722 109 158.602 108.979 158.5 108.937C158.404 108.889 158.32 108.805 158.248 108.685L155.251 104.95C155.161 104.824 155.071 104.743 154.981 104.707C154.897 104.665 154.765 104.644 154.585 104.644H154.126V109H152.515V95.743H154.126ZM167.248 103.447C167.248 103.075 167.194 102.736 167.086 102.43C166.984 102.118 166.831 101.851 166.627 101.629C166.429 101.401 166.186 101.227 165.898 101.107C165.61 100.981 165.283 100.918 164.917 100.918C164.149 100.918 163.54 101.143 163.09 101.593C162.646 102.037 162.37 102.655 162.262 103.447H167.248ZM168.544 107.722C168.346 107.962 168.109 108.172 167.833 108.352C167.557 108.526 167.26 108.67 166.942 108.784C166.63 108.898 166.306 108.982 165.97 109.036C165.634 109.096 165.301 109.126 164.971 109.126C164.341 109.126 163.759 109.021 163.225 108.811C162.697 108.595 162.238 108.283 161.848 107.875C161.464 107.461 161.164 106.951 160.948 106.345C160.732 105.739 160.624 105.043 160.624 104.257C160.624 103.621 160.72 103.027 160.912 102.475C161.11 101.923 161.392 101.446 161.758 101.044C162.124 100.636 162.571 100.318 163.099 100.09C163.627 99.856 164.221 99.739 164.881 99.739C165.427 99.739 165.931 99.832 166.393 100.018C166.861 100.198 167.263 100.462 167.599 100.81C167.941 101.152 168.208 101.578 168.4 102.088C168.592 102.592 168.688 103.168 168.688 103.816C168.688 104.068 168.661 104.236 168.607 104.32C168.553 104.404 168.451 104.446 168.301 104.446H162.208C162.226 105.022 162.304 105.523 162.442 105.949C162.586 106.375 162.784 106.732 163.036 107.02C163.288 107.302 163.588 107.515 163.936 107.659C164.284 107.797 164.674 107.866 165.106 107.866C165.508 107.866 165.853 107.821 166.141 107.731C166.435 107.635 166.687 107.533 166.897 107.425C167.107 107.317 167.281 107.218 167.419 107.128C167.563 107.032 167.686 106.984 167.788 106.984C167.92 106.984 168.022 107.035 168.094 107.137L168.544 107.722ZM172.177 101.71C172.465 101.086 172.819 100.6 173.239 100.252C173.659 99.898 174.172 99.721 174.778 99.721C174.97 99.721 175.153 99.742 175.327 99.784C175.507 99.826 175.666 99.892 175.804 99.982L175.687 101.179C175.651 101.329 175.561 101.404 175.417 101.404C175.333 101.404 175.21 101.386 175.048 101.35C174.886 101.314 174.703 101.296 174.499 101.296C174.211 101.296 173.953 101.338 173.725 101.422C173.503 101.506 173.302 101.632 173.122 101.8C172.948 101.962 172.789 102.166 172.645 102.412C172.507 102.652 172.381 102.928 172.267 103.24V109H170.656V99.883H171.574C171.748 99.883 171.868 99.916 171.934 99.982C172 100.048 172.045 100.162 172.069 100.324L172.177 101.71Z" fill="black"/>
<path d="M23.443 150.103V163H21.913V153.523C21.913 153.397 21.916 153.262 21.922 153.118C21.934 152.974 21.946 152.827 21.958 152.677L17.53 160.741C17.392 161.011 17.182 161.146 16.9 161.146H16.648C16.366 161.146 16.156 161.011 16.018 160.741L11.5 152.641C11.536 152.959 11.554 153.253 11.554 153.523V163H10.024V150.103H11.311C11.467 150.103 11.587 150.118 11.671 150.148C11.755 150.178 11.836 150.262 11.914 150.4L16.369 158.338C16.441 158.482 16.51 158.632 16.576 158.788C16.648 158.944 16.714 159.103 16.774 159.265C16.834 159.103 16.897 158.944 16.963 158.788C17.029 158.626 17.101 158.473 17.179 158.329L21.553 150.4C21.625 150.262 21.703 150.178 21.787 150.148C21.877 150.118 22 150.103 22.156 150.103H23.443ZM29.9245 153.739C30.5905 153.739 31.1905 153.85 31.7245 154.072C32.2585 154.294 32.7145 154.609 33.0925 155.017C33.4705 155.425 33.7585 155.92 33.9565 156.502C34.1605 157.078 34.2625 157.723 34.2625 158.437C34.2625 159.157 34.1605 159.805 33.9565 160.381C33.7585 160.957 33.4705 161.449 33.0925 161.857C32.7145 162.265 32.2585 162.58 31.7245 162.802C31.1905 163.018 30.5905 163.126 29.9245 163.126C29.2525 163.126 28.6465 163.018 28.1065 162.802C27.5725 162.58 27.1165 162.265 26.7385 161.857C26.3605 161.449 26.0695 160.957 25.8655 160.381C25.6675 159.805 25.5685 159.157 25.5685 158.437C25.5685 157.723 25.6675 157.078 25.8655 156.502C26.0695 155.92 26.3605 155.425 26.7385 155.017C27.1165 154.609 27.5725 154.294 28.1065 154.072C28.6465 153.85 29.2525 153.739 29.9245 153.739ZM29.9245 161.875C30.8245 161.875 31.4965 161.575 31.9405 160.975C32.3845 160.369 32.6065 159.526 32.6065 158.446C32.6065 157.36 32.3845 156.514 31.9405 155.908C31.4965 155.302 30.8245 154.999 29.9245 154.999C29.4685 154.999 29.0695 155.077 28.7275 155.233C28.3915 155.389 28.1095 155.614 27.8815 155.908C27.6595 156.202 27.4915 156.565 27.3775 156.997C27.2695 157.423 27.2155 157.906 27.2155 158.446C27.2155 159.526 27.4375 160.369 27.8815 160.975C28.3315 161.575 29.0125 161.875 29.9245 161.875ZM44.5962 163H42.9942V155.224H38.2962V160.696C38.2962 161.08 38.3892 161.365 38.5752 161.551C38.7612 161.737 39.0012 161.83 39.2952 161.83C39.4632 161.83 39.6072 161.809 39.7272 161.767C39.8532 161.719 39.9612 161.668 40.0512 161.614C40.1412 161.56 40.2162 161.512 40.2762 161.47C40.3422 161.422 40.3992 161.398 40.4472 161.398C40.5312 161.398 40.6062 161.449 40.6722 161.551L41.1402 162.316C40.8642 162.574 40.5312 162.778 40.1412 162.928C39.7512 163.072 39.3492 163.144 38.9352 163.144C38.2152 163.144 37.6602 162.943 37.2702 162.541C36.8862 162.139 36.6942 161.56 36.6942 160.804V155.224H35.5962C35.5002 155.224 35.4192 155.197 35.3532 155.143C35.2872 155.083 35.2542 154.993 35.2542 154.873V154.234L36.7482 154.036L37.1172 151.228C37.1352 151.138 37.1742 151.066 37.2342 151.012C37.3002 150.952 37.3842 150.922 37.4862 150.922H38.2962V154.063H44.5962V163ZM44.9922 150.958C44.9922 151.114 44.9592 151.261 44.8932 151.399C44.8332 151.531 44.7492 151.648 44.6412 151.75C44.5392 151.852 44.4192 151.933 44.2812 151.993C44.1432 152.053 43.9962 152.083 43.8402 152.083C43.6842 152.083 43.5372 152.053 43.3992 151.993C43.2672 151.933 43.1502 151.852 43.0482 151.75C42.9462 151.648 42.8652 151.531 42.8052 151.399C42.7452 151.261 42.7152 151.114 42.7152 150.958C42.7152 150.802 42.7452 150.655 42.8052 150.517C42.8652 150.373 42.9462 150.25 43.0482 150.148C43.1502 150.04 43.2672 149.956 43.3992 149.896C43.5372 149.836 43.6842 149.806 43.8402 149.806C43.9962 149.806 44.1432 149.836 44.2812 149.896C44.4192 149.956 44.5392 150.04 44.6412 150.148C44.7492 150.25 44.8332 150.373 44.8932 150.517C44.9592 150.655 44.9922 150.802 44.9922 150.958ZM55.04 153.883L51.323 163H49.883L46.166 153.883H47.471C47.603 153.883 47.711 153.916 47.795 153.982C47.879 154.048 47.936 154.126 47.966 154.216L50.279 160.084C50.351 160.306 50.414 160.522 50.468 160.732C50.522 160.942 50.573 161.152 50.621 161.362C50.669 161.152 50.72 160.942 50.774 160.732C50.828 160.522 50.894 160.306 50.972 160.084L53.312 154.216C53.348 154.12 53.408 154.042 53.492 153.982C53.576 153.916 53.675 153.883 53.789 153.883H55.04ZM61.2569 158.896C60.5189 158.92 59.8889 158.98 59.3669 159.076C58.8509 159.166 58.4279 159.286 58.0979 159.436C57.7739 159.586 57.5369 159.763 57.3869 159.967C57.2429 160.171 57.1709 160.399 57.1709 160.651C57.1709 160.891 57.2099 161.098 57.2879 161.272C57.3659 161.446 57.4709 161.59 57.6029 161.704C57.7409 161.812 57.8999 161.893 58.0799 161.947C58.2659 161.995 58.4639 162.019 58.6739 162.019C58.9559 162.019 59.2139 161.992 59.4479 161.938C59.6819 161.878 59.9009 161.794 60.1049 161.686C60.3149 161.578 60.5129 161.449 60.6989 161.299C60.8909 161.149 61.0769 160.978 61.2569 160.786V158.896ZM56.0819 155.17C56.5859 154.684 57.1289 154.321 57.7109 154.081C58.2929 153.841 58.9379 153.721 59.6459 153.721C60.1559 153.721 60.6089 153.805 61.0049 153.973C61.4009 154.141 61.7339 154.375 62.0039 154.675C62.2739 154.975 62.4779 155.338 62.6159 155.764C62.7539 156.19 62.8229 156.658 62.8229 157.168V163H62.1119C61.9559 163 61.8359 162.976 61.7519 162.928C61.6679 162.874 61.6019 162.772 61.5539 162.622L61.3739 161.758C61.1339 161.98 60.8999 162.178 60.6719 162.352C60.4439 162.52 60.2039 162.664 59.9519 162.784C59.6999 162.898 59.4299 162.985 59.1419 163.045C58.8599 163.111 58.5449 163.144 58.1969 163.144C57.8429 163.144 57.5099 163.096 57.1979 163C56.8859 162.898 56.6129 162.748 56.3789 162.55C56.1509 162.352 55.9679 162.103 55.8299 161.803C55.6979 161.497 55.6319 161.137 55.6319 160.723C55.6319 160.363 55.7309 160.018 55.9289 159.688C56.1269 159.352 56.4479 159.055 56.8919 158.797C57.3359 158.539 57.9149 158.329 58.6289 158.167C59.3429 157.999 60.2189 157.903 61.2569 157.879V157.168C61.2569 156.46 61.1039 155.926 60.7979 155.566C60.4919 155.2 60.0449 155.017 59.4569 155.017C59.0609 155.017 58.7279 155.068 58.4579 155.17C58.1939 155.266 57.9629 155.377 57.7649 155.503C57.5729 155.623 57.4049 155.734 57.2609 155.836C57.1229 155.932 56.9849 155.98 56.8469 155.98C56.7389 155.98 56.6459 155.953 56.5679 155.899C56.4899 155.839 56.4239 155.767 56.3699 155.683L56.0819 155.17ZM67.9391 163.144C67.2191 163.144 66.6641 162.943 66.2741 162.541C65.8901 162.139 65.6981 161.56 65.6981 160.804V155.224H64.6001C64.5041 155.224 64.4231 155.197 64.3571 155.143C64.2911 155.083 64.2581 154.993 64.2581 154.873V154.234L65.7521 154.045L66.1211 151.228C66.1391 151.138 66.1781 151.066 66.2381 151.012C66.3041 150.952 66.3881 150.922 66.4901 150.922H67.3001V154.063H69.9371V155.224H67.3001V160.696C67.3001 161.08 67.3931 161.365 67.5791 161.551C67.7651 161.737 68.0051 161.83 68.2991 161.83C68.4671 161.83 68.6111 161.809 68.7311 161.767C68.8571 161.719 68.9651 161.668 69.0551 161.614C69.1451 161.56 69.2201 161.512 69.2801 161.47C69.3461 161.422 69.4031 161.398 69.4511 161.398C69.5351 161.398 69.6101 161.449 69.6761 161.551L70.1441 162.316C69.8681 162.574 69.5351 162.778 69.1451 162.928C68.7551 163.072 68.3531 163.144 67.9391 163.144ZM77.6405 157.447C77.6405 157.075 77.5865 156.736 77.4785 156.43C77.3765 156.118 77.2235 155.851 77.0195 155.629C76.8215 155.401 76.5785 155.227 76.2905 155.107C76.0025 154.981 75.6755 154.918 75.3095 154.918C74.5415 154.918 73.9325 155.143 73.4825 155.593C73.0385 156.037 72.7625 156.655 72.6545 157.447H77.6405ZM78.9365 161.722C78.7385 161.962 78.5015 162.172 78.2255 162.352C77.9495 162.526 77.6525 162.67 77.3345 162.784C77.0225 162.898 76.6985 162.982 76.3625 163.036C76.0265 163.096 75.6935 163.126 75.3635 163.126C74.7335 163.126 74.1515 163.021 73.6175 162.811C73.0895 162.595 72.6305 162.283 72.2405 161.875C71.8565 161.461 71.5565 160.951 71.3405 160.345C71.1245 159.739 71.0165 159.043 71.0165 158.257C71.0165 157.621 71.1125 157.027 71.3045 156.475C71.5025 155.923 71.7845 155.446 72.1505 155.044C72.5165 154.636 72.9635 154.318 73.4915 154.09C74.0195 153.856 74.6135 153.739 75.2735 153.739C75.8195 153.739 76.3235 153.832 76.7855 154.018C77.2535 154.198 77.6555 154.462 77.9915 154.81C78.3335 155.152 78.6005 155.578 78.7925 156.088C78.9845 156.592 79.0805 157.168 79.0805 157.816C79.0805 158.068 79.0535 158.236 78.9995 158.32C78.9455 158.404 78.8435 158.446 78.6935 158.446H72.6005C72.6185 159.022 72.6965 159.523 72.8345 159.949C72.9785 160.375 73.1765 160.732 73.4285 161.02C73.6805 161.302 73.9805 161.515 74.3285 161.659C74.6765 161.797 75.0665 161.866 75.4985 161.866C75.9005 161.866 76.2455 161.821 76.5335 161.731C76.8275 161.635 77.0795 161.533 77.2895 161.425C77.4995 161.317 77.6735 161.218 77.8115 161.128C77.9555 161.032 78.0785 160.984 78.1805 160.984C78.3125 160.984 78.4145 161.035 78.4865 161.137L78.9365 161.722ZM88.4528 163.144C87.7328 163.144 87.1778 162.943 86.7878 162.541C86.4038 162.139 86.2118 161.56 86.2118 160.804V155.224H85.1138C85.0178 155.224 84.9368 155.197 84.8708 155.143C84.8048 155.083 84.7718 154.993 84.7718 154.873V154.234L86.2658 154.045L86.6348 151.228C86.6528 151.138 86.6918 151.066 86.7518 151.012C86.8178 150.952 86.9018 150.922 87.0038 150.922H87.8138V154.063H90.4508V155.224H87.8138V160.696C87.8138 161.08 87.9068 161.365 88.0928 161.551C88.2788 161.737 88.5188 161.83 88.8128 161.83C88.9808 161.83 89.1248 161.809 89.2448 161.767C89.3708 161.719 89.4788 161.668 89.5688 161.614C89.6588 161.56 89.7338 161.512 89.7938 161.47C89.8598 161.422 89.9168 161.398 89.9648 161.398C90.0488 161.398 90.1238 161.449 90.1898 161.551L90.6578 162.316C90.3818 162.574 90.0488 162.778 89.6588 162.928C89.2688 163.072 88.8668 163.144 88.4528 163.144ZM95.8952 153.739C96.5612 153.739 97.1612 153.85 97.6952 154.072C98.2292 154.294 98.6852 154.609 99.0632 155.017C99.4412 155.425 99.7292 155.92 99.9272 156.502C100.131 157.078 100.233 157.723 100.233 158.437C100.233 159.157 100.131 159.805 99.9272 160.381C99.7292 160.957 99.4412 161.449 99.0632 161.857C98.6852 162.265 98.2292 162.58 97.6952 162.802C97.1612 163.018 96.5612 163.126 95.8952 163.126C95.2232 163.126 94.6172 163.018 94.0772 162.802C93.5432 162.58 93.0872 162.265 92.7092 161.857C92.3312 161.449 92.0402 160.957 91.8362 160.381C91.6382 159.805 91.5392 159.157 91.5392 158.437C91.5392 157.723 91.6382 157.078 91.8362 156.502C92.0402 155.92 92.3312 155.425 92.7092 155.017C93.0872 154.609 93.5432 154.294 94.0772 154.072C94.6172 153.85 95.2232 153.739 95.8952 153.739ZM95.8952 161.875C96.7952 161.875 97.4672 161.575 97.9112 160.975C98.3552 160.369 98.5772 159.526 98.5772 158.446C98.5772 157.36 98.3552 156.514 97.9112 155.908C97.4672 155.302 96.7952 154.999 95.8952 154.999C95.4392 154.999 95.0402 155.077 94.6982 155.233C94.3622 155.389 94.0802 155.614 93.8522 155.908C93.6302 156.202 93.4622 156.565 93.3482 156.997C93.2402 157.423 93.1862 157.906 93.1862 158.446C93.1862 159.526 93.4082 160.369 93.8522 160.975C94.3022 161.575 94.9832 161.875 95.8952 161.875ZM113.216 155.503C113.168 155.569 113.12 155.62 113.072 155.656C113.024 155.692 112.958 155.71 112.874 155.71C112.784 155.71 112.685 155.674 112.577 155.602C112.469 155.524 112.334 155.44 112.172 155.35C112.016 155.26 111.821 155.179 111.587 155.107C111.359 155.029 111.077 154.99 110.741 154.99C110.291 154.99 109.895 155.071 109.553 155.233C109.211 155.389 108.923 155.617 108.689 155.917C108.461 156.217 108.287 156.58 108.167 157.006C108.053 157.432 107.996 157.909 107.996 158.437C107.996 158.989 108.059 159.481 108.185 159.913C108.311 160.339 108.488 160.699 108.716 160.993C108.95 161.281 109.229 161.503 109.553 161.659C109.883 161.809 110.252 161.884 110.66 161.884C111.05 161.884 111.371 161.839 111.623 161.749C111.875 161.653 112.082 161.548 112.244 161.434C112.412 161.32 112.55 161.218 112.658 161.128C112.772 161.032 112.883 160.984 112.991 160.984C113.123 160.984 113.225 161.035 113.297 161.137L113.747 161.722C113.549 161.968 113.324 162.178 113.072 162.352C112.82 162.526 112.547 162.673 112.253 162.793C111.965 162.907 111.662 162.991 111.344 163.045C111.026 163.099 110.702 163.126 110.372 163.126C109.802 163.126 109.271 163.021 108.779 162.811C108.293 162.601 107.87 162.298 107.51 161.902C107.15 161.5 106.868 161.008 106.664 160.426C106.46 159.844 106.358 159.181 106.358 158.437C106.358 157.759 106.451 157.132 106.637 156.556C106.829 155.98 107.105 155.485 107.465 155.071C107.831 154.651 108.278 154.324 108.806 154.09C109.34 153.856 109.952 153.739 110.642 153.739C111.284 153.739 111.848 153.844 112.334 154.054C112.826 154.258 113.261 154.549 113.639 154.927L113.216 155.503ZM117.122 149.743V163H115.52V149.743H117.122ZM123.563 153.739C124.229 153.739 124.829 153.85 125.363 154.072C125.897 154.294 126.353 154.609 126.731 155.017C127.109 155.425 127.397 155.92 127.595 156.502C127.799 157.078 127.901 157.723 127.901 158.437C127.901 159.157 127.799 159.805 127.595 160.381C127.397 160.957 127.109 161.449 126.731 161.857C126.353 162.265 125.897 162.58 125.363 162.802C124.829 163.018 124.229 163.126 123.563 163.126C122.891 163.126 122.285 163.018 121.745 162.802C121.211 162.58 120.755 162.265 120.377 161.857C119.999 161.449 119.708 160.957 119.504 160.381C119.306 159.805 119.207 159.157 119.207 158.437C119.207 157.723 119.306 157.078 119.504 156.502C119.708 155.92 119.999 155.425 120.377 155.017C120.755 154.609 121.211 154.294 121.745 154.072C122.285 153.85 122.891 153.739 123.563 153.739ZM123.563 161.875C124.463 161.875 125.135 161.575 125.579 160.975C126.023 160.369 126.245 159.526 126.245 158.446C126.245 157.36 126.023 156.514 125.579 155.908C125.135 155.302 124.463 154.999 123.563 154.999C123.107 154.999 122.708 155.077 122.366 155.233C122.03 155.389 121.748 155.614 121.52 155.908C121.298 156.202 121.13 156.565 121.016 156.997C120.908 157.423 120.854 157.906 120.854 158.446C120.854 159.526 121.076 160.369 121.52 160.975C121.97 161.575 122.651 161.875 123.563 161.875ZM135.243 155.386C135.171 155.518 135.06 155.584 134.91 155.584C134.82 155.584 134.718 155.551 134.604 155.485C134.49 155.419 134.349 155.347 134.181 155.269C134.019 155.185 133.824 155.11 133.596 155.044C133.368 154.972 133.098 154.936 132.786 154.936C132.516 154.936 132.273 154.972 132.057 155.044C131.841 155.11 131.655 155.203 131.499 155.323C131.349 155.443 131.232 155.584 131.148 155.746C131.07 155.902 131.031 156.073 131.031 156.259C131.031 156.493 131.097 156.688 131.229 156.844C131.367 157 131.547 157.135 131.769 157.249C131.991 157.363 132.243 157.465 132.525 157.555C132.807 157.639 133.095 157.732 133.389 157.834C133.689 157.93 133.98 158.038 134.262 158.158C134.544 158.278 134.796 158.428 135.018 158.608C135.24 158.788 135.417 159.01 135.549 159.274C135.687 159.532 135.756 159.844 135.756 160.21C135.756 160.63 135.681 161.02 135.531 161.38C135.381 161.734 135.159 162.043 134.865 162.307C134.571 162.565 134.211 162.769 133.785 162.919C133.359 163.069 132.867 163.144 132.309 163.144C131.673 163.144 131.097 163.042 130.581 162.838C130.065 162.628 129.627 162.361 129.267 162.037L129.645 161.425C129.693 161.347 129.75 161.287 129.816 161.245C129.882 161.203 129.966 161.182 130.068 161.182C130.176 161.182 130.29 161.224 130.41 161.308C130.53 161.392 130.674 161.485 130.842 161.587C131.016 161.689 131.226 161.782 131.472 161.866C131.718 161.95 132.024 161.992 132.39 161.992C132.702 161.992 132.975 161.953 133.209 161.875C133.443 161.791 133.638 161.68 133.794 161.542C133.95 161.404 134.064 161.245 134.136 161.065C134.214 160.885 134.253 160.693 134.253 160.489C134.253 160.237 134.184 160.03 134.046 159.868C133.914 159.7 133.737 159.559 133.515 159.445C133.293 159.325 133.038 159.223 132.75 159.139C132.468 159.049 132.177 158.956 131.877 158.86C131.583 158.764 131.292 158.656 131.004 158.536C130.722 158.41 130.47 158.254 130.248 158.068C130.026 157.882 129.846 157.654 129.708 157.384C129.576 157.108 129.51 156.775 129.51 156.385C129.51 156.037 129.582 155.704 129.726 155.386C129.87 155.062 130.08 154.78 130.356 154.54C130.632 154.294 130.971 154.099 131.373 153.955C131.775 153.811 132.234 153.739 132.75 153.739C133.35 153.739 133.887 153.835 134.361 154.027C134.841 154.213 135.255 154.471 135.603 154.801L135.243 155.386ZM143.822 157.447C143.822 157.075 143.768 156.736 143.66 156.43C143.558 156.118 143.405 155.851 143.201 155.629C143.003 155.401 142.76 155.227 142.472 155.107C142.184 154.981 141.857 154.918 141.491 154.918C140.723 154.918 140.114 155.143 139.664 155.593C139.22 156.037 138.944 156.655 138.836 157.447H143.822ZM145.118 161.722C144.92 161.962 144.683 162.172 144.407 162.352C144.131 162.526 143.834 162.67 143.516 162.784C143.204 162.898 142.88 162.982 142.544 163.036C142.208 163.096 141.875 163.126 141.545 163.126C140.915 163.126 140.333 163.021 139.799 162.811C139.271 162.595 138.812 162.283 138.422 161.875C138.038 161.461 137.738 160.951 137.522 160.345C137.306 159.739 137.198 159.043 137.198 158.257C137.198 157.621 137.294 157.027 137.486 156.475C137.684 155.923 137.966 155.446 138.332 155.044C138.698 154.636 139.145 154.318 139.673 154.09C140.201 153.856 140.795 153.739 141.455 153.739C142.001 153.739 142.505 153.832 142.967 154.018C143.435 154.198 143.837 154.462 144.173 154.81C144.515 155.152 144.782 155.578 144.974 156.088C145.166 156.592 145.262 157.168 145.262 157.816C145.262 158.068 145.235 158.236 145.181 158.32C145.127 158.404 145.025 158.446 144.875 158.446H138.782C138.8 159.022 138.878 159.523 139.016 159.949C139.16 160.375 139.358 160.732 139.61 161.02C139.862 161.302 140.162 161.515 140.51 161.659C140.858 161.797 141.248 161.866 141.68 161.866C142.082 161.866 142.427 161.821 142.715 161.731C143.009 161.635 143.261 161.533 143.471 161.425C143.681 161.317 143.855 161.218 143.993 161.128C144.137 161.032 144.26 160.984 144.362 160.984C144.494 160.984 144.596 161.035 144.668 161.137L145.118 161.722ZM153.356 155.71C153.644 155.086 153.998 154.6 154.418 154.252C154.838 153.898 155.351 153.721 155.957 153.721C156.149 153.721 156.332 153.742 156.506 153.784C156.686 153.826 156.845 153.892 156.983 153.982L156.866 155.179C156.83 155.329 156.74 155.404 156.596 155.404C156.512 155.404 156.389 155.386 156.227 155.35C156.065 155.314 155.882 155.296 155.678 155.296C155.39 155.296 155.132 155.338 154.904 155.422C154.682 155.506 154.481 155.632 154.301 155.8C154.127 155.962 153.968 156.166 153.824 156.412C153.686 156.652 153.56 156.928 153.446 157.24V163H151.835V153.883H152.753C152.927 153.883 153.047 153.916 153.113 153.982C153.179 154.048 153.224 154.162 153.248 154.324L153.356 155.71ZM160.084 153.883V163H158.482V153.883H160.084ZM160.426 151.021C160.426 151.177 160.393 151.324 160.327 151.462C160.267 151.594 160.183 151.714 160.075 151.822C159.973 151.924 159.85 152.005 159.706 152.065C159.568 152.125 159.421 152.155 159.265 152.155C159.109 152.155 158.962 152.125 158.824 152.065C158.692 152.005 158.575 151.924 158.473 151.822C158.371 151.714 158.29 151.594 158.23 151.462C158.17 151.324 158.14 151.177 158.14 151.021C158.14 150.865 158.17 150.718 158.23 150.58C158.29 150.436 158.371 150.313 158.473 150.211C158.575 150.103 158.692 150.019 158.824 149.959C158.962 149.899 159.109 149.869 159.265 149.869C159.421 149.869 159.568 149.899 159.706 149.959C159.85 150.019 159.973 150.103 160.075 150.211C160.183 150.313 160.267 150.436 160.327 150.58C160.393 150.718 160.426 150.865 160.426 151.021ZM164.228 155.206C164.426 154.984 164.636 154.783 164.858 154.603C165.08 154.423 165.314 154.27 165.56 154.144C165.812 154.012 166.076 153.913 166.352 153.847C166.634 153.775 166.937 153.739 167.261 153.739C167.759 153.739 168.197 153.823 168.575 153.991C168.959 154.153 169.277 154.387 169.529 154.693C169.787 154.993 169.982 155.356 170.114 155.782C170.246 156.208 170.312 156.679 170.312 157.195V163H168.701V157.195C168.701 156.505 168.542 155.971 168.224 155.593C167.912 155.209 167.435 155.017 166.793 155.017C166.319 155.017 165.875 155.131 165.461 155.359C165.053 155.587 164.675 155.896 164.327 156.286V163H162.716V153.883H163.679C163.907 153.883 164.048 153.994 164.102 154.216L164.228 155.206ZM175.93 158.545C176.254 158.545 176.539 158.5 176.785 158.41C177.031 158.32 177.238 158.194 177.406 158.032C177.574 157.87 177.7 157.678 177.784 157.456C177.868 157.228 177.91 156.979 177.91 156.709C177.91 156.151 177.739 155.707 177.397 155.377C177.061 155.047 176.572 154.882 175.93 154.882C175.282 154.882 174.787 155.047 174.445 155.377C174.109 155.707 173.941 156.151 173.941 156.709C173.941 156.979 173.983 157.228 174.067 157.456C174.157 157.678 174.286 157.87 174.454 158.032C174.622 158.194 174.829 158.32 175.075 158.41C175.321 158.5 175.606 158.545 175.93 158.545ZM178.819 163.495C178.819 163.273 178.756 163.093 178.63 162.955C178.504 162.817 178.333 162.709 178.117 162.631C177.907 162.553 177.661 162.499 177.379 162.469C177.097 162.433 176.797 162.406 176.479 162.388C176.167 162.37 175.849 162.352 175.525 162.334C175.201 162.316 174.889 162.286 174.589 162.244C174.253 162.4 173.977 162.598 173.761 162.838C173.551 163.072 173.446 163.348 173.446 163.666C173.446 163.87 173.497 164.059 173.599 164.233C173.707 164.413 173.869 164.566 174.085 164.692C174.301 164.824 174.571 164.926 174.895 164.998C175.225 165.076 175.612 165.115 176.056 165.115C176.488 165.115 176.875 165.076 177.217 164.998C177.559 164.92 177.847 164.809 178.081 164.665C178.321 164.521 178.504 164.35 178.63 164.152C178.756 163.954 178.819 163.735 178.819 163.495ZM180.448 154.243V154.837C180.448 155.035 180.322 155.161 180.07 155.215L179.035 155.35C179.239 155.746 179.341 156.184 179.341 156.664C179.341 157.108 179.254 157.513 179.08 157.879C178.912 158.239 178.678 158.548 178.378 158.806C178.078 159.064 177.718 159.262 177.298 159.4C176.878 159.538 176.422 159.607 175.93 159.607C175.504 159.607 175.102 159.556 174.724 159.454C174.532 159.574 174.385 159.703 174.283 159.841C174.181 159.973 174.13 160.108 174.13 160.246C174.13 160.462 174.217 160.627 174.391 160.741C174.571 160.849 174.805 160.927 175.093 160.975C175.381 161.023 175.708 161.053 176.074 161.065C176.446 161.077 176.824 161.098 177.208 161.128C177.598 161.152 177.976 161.197 178.342 161.263C178.714 161.329 179.044 161.437 179.332 161.587C179.62 161.737 179.851 161.944 180.025 162.208C180.205 162.472 180.295 162.814 180.295 163.234C180.295 163.624 180.196 164.002 179.998 164.368C179.806 164.734 179.527 165.058 179.161 165.34C178.795 165.628 178.345 165.856 177.811 166.024C177.283 166.198 176.686 166.285 176.02 166.285C175.354 166.285 174.772 166.219 174.274 166.087C173.776 165.955 173.362 165.778 173.032 165.556C172.702 165.334 172.453 165.076 172.285 164.782C172.123 164.494 172.042 164.191 172.042 163.873C172.042 163.423 172.183 163.042 172.465 162.73C172.747 162.418 173.134 162.169 173.626 161.983C173.356 161.863 173.14 161.704 172.978 161.506C172.822 161.302 172.744 161.029 172.744 160.687C172.744 160.555 172.768 160.42 172.816 160.282C172.864 160.138 172.936 159.997 173.032 159.859C173.134 159.715 173.257 159.58 173.401 159.454C173.545 159.328 173.713 159.217 173.905 159.121C173.455 158.869 173.104 158.536 172.852 158.122C172.6 157.702 172.474 157.216 172.474 156.664C172.474 156.22 172.558 155.818 172.726 155.458C172.9 155.092 173.14 154.783 173.446 154.531C173.752 154.273 174.115 154.075 174.535 153.937C174.961 153.799 175.426 153.73 175.93 153.73C176.326 153.73 176.695 153.775 177.037 153.865C177.379 153.949 177.691 154.075 177.973 154.243H180.448ZM187.415 155.386C187.343 155.518 187.232 155.584 187.082 155.584C186.992 155.584 186.89 155.551 186.776 155.485C186.662 155.419 186.521 155.347 186.353 155.269C186.191 155.185 185.996 155.11 185.768 155.044C185.54 154.972 185.27 154.936 184.958 154.936C184.688 154.936 184.445 154.972 184.229 155.044C184.013 155.11 183.827 155.203 183.671 155.323C183.521 155.443 183.404 155.584 183.32 155.746C183.242 155.902 183.203 156.073 183.203 156.259C183.203 156.493 183.269 156.688 183.401 156.844C183.539 157 183.719 157.135 183.941 157.249C184.163 157.363 184.415 157.465 184.697 157.555C184.979 157.639 185.267 157.732 185.561 157.834C185.861 157.93 186.152 158.038 186.434 158.158C186.716 158.278 186.968 158.428 187.19 158.608C187.412 158.788 187.589 159.01 187.721 159.274C187.859 159.532 187.928 159.844 187.928 160.21C187.928 160.63 187.853 161.02 187.703 161.38C187.553 161.734 187.331 162.043 187.037 162.307C186.743 162.565 186.383 162.769 185.957 162.919C185.531 163.069 185.039 163.144 184.481 163.144C183.845 163.144 183.269 163.042 182.753 162.838C182.237 162.628 181.799 162.361 181.439 162.037L181.817 161.425C181.865 161.347 181.922 161.287 181.988 161.245C182.054 161.203 182.138 161.182 182.24 161.182C182.348 161.182 182.462 161.224 182.582 161.308C182.702 161.392 182.846 161.485 183.014 161.587C183.188 161.689 183.398 161.782 183.644 161.866C183.89 161.95 184.196 161.992 184.562 161.992C184.874 161.992 185.147 161.953 185.381 161.875C185.615 161.791 185.81 161.68 185.966 161.542C186.122 161.404 186.236 161.245 186.308 161.065C186.386 160.885 186.425 160.693 186.425 160.489C186.425 160.237 186.356 160.03 186.218 159.868C186.086 159.7 185.909 159.559 185.687 159.445C185.465 159.325 185.21 159.223 184.922 159.139C184.64 159.049 184.349 158.956 184.049 158.86C183.755 158.764 183.464 158.656 183.176 158.536C182.894 158.41 182.642 158.254 182.42 158.068C182.198 157.882 182.018 157.654 181.88 157.384C181.748 157.108 181.682 156.775 181.682 156.385C181.682 156.037 181.754 155.704 181.898 155.386C182.042 155.062 182.252 154.78 182.528 154.54C182.804 154.294 183.143 154.099 183.545 153.955C183.947 153.811 184.406 153.739 184.922 153.739C185.522 153.739 186.059 153.835 186.533 154.027C187.013 154.213 187.427 154.471 187.775 154.801L187.415 155.386ZM37.1573 192.896C36.4193 192.92 35.7893 192.98 35.2673 193.076C34.7513 193.166 34.3283 193.286 33.9983 193.436C33.6743 193.586 33.4373 193.763 33.2873 193.967C33.1433 194.171 33.0713 194.399 33.0713 194.651C33.0713 194.891 33.1103 195.098 33.1883 195.272C33.2663 195.446 33.3713 195.59 33.5033 195.704C33.6413 195.812 33.8003 195.893 33.9803 195.947C34.1663 195.995 34.3643 196.019 34.5743 196.019C34.8563 196.019 35.1143 195.992 35.3483 195.938C35.5823 195.878 35.8013 195.794 36.0053 195.686C36.2153 195.578 36.4133 195.449 36.5993 195.299C36.7913 195.149 36.9773 194.978 37.1573 194.786V192.896ZM31.9823 189.17C32.4863 188.684 33.0293 188.321 33.6113 188.081C34.1933 187.841 34.8383 187.721 35.5463 187.721C36.0563 187.721 36.5093 187.805 36.9053 187.973C37.3013 188.141 37.6343 188.375 37.9043 188.675C38.1743 188.975 38.3783 189.338 38.5163 189.764C38.6543 190.19 38.7233 190.658 38.7233 191.168V197H38.0123C37.8563 197 37.7363 196.976 37.6523 196.928C37.5683 196.874 37.5023 196.772 37.4543 196.622L37.2743 195.758C37.0343 195.98 36.8003 196.178 36.5723 196.352C36.3443 196.52 36.1043 196.664 35.8523 196.784C35.6003 196.898 35.3303 196.985 35.0423 197.045C34.7603 197.111 34.4453 197.144 34.0973 197.144C33.7433 197.144 33.4103 197.096 33.0983 197C32.7863 196.898 32.5133 196.748 32.2793 196.55C32.0513 196.352 31.8683 196.103 31.7303 195.803C31.5983 195.497 31.5323 195.137 31.5323 194.723C31.5323 194.363 31.6313 194.018 31.8293 193.688C32.0273 193.352 32.3483 193.055 32.7923 192.797C33.2363 192.539 33.8153 192.329 34.5293 192.167C35.2433 191.999 36.1193 191.903 37.1573 191.879V191.168C37.1573 190.46 37.0043 189.926 36.6983 189.566C36.3923 189.2 35.9453 189.017 35.3573 189.017C34.9613 189.017 34.6283 189.068 34.3583 189.17C34.0943 189.266 33.8633 189.377 33.6653 189.503C33.4733 189.623 33.3053 189.734 33.1613 189.836C33.0233 189.932 32.8853 189.98 32.7473 189.98C32.6393 189.98 32.5463 189.953 32.4683 189.899C32.3903 189.839 32.3243 189.767 32.2703 189.683L31.9823 189.17ZM42.6755 189.206C42.8735 188.984 43.0835 188.783 43.3055 188.603C43.5275 188.423 43.7615 188.27 44.0075 188.144C44.2595 188.012 44.5235 187.913 44.7995 187.847C45.0815 187.775 45.3845 187.739 45.7085 187.739C46.2065 187.739 46.6445 187.823 47.0225 187.991C47.4065 188.153 47.7245 188.387 47.9765 188.693C48.2345 188.993 48.4295 189.356 48.5615 189.782C48.6935 190.208 48.7595 190.679 48.7595 191.195V197H47.1485V191.195C47.1485 190.505 46.9895 189.971 46.6715 189.593C46.3595 189.209 45.8825 189.017 45.2405 189.017C44.7665 189.017 44.3225 189.131 43.9085 189.359C43.5005 189.587 43.1225 189.896 42.7745 190.286V197H41.1635V187.883H42.1265C42.3545 187.883 42.4955 187.994 42.5495 188.216L42.6755 189.206ZM57.1406 190.052C56.8406 189.65 56.5166 189.371 56.1686 189.215C55.8206 189.053 55.4306 188.972 54.9986 188.972C54.1526 188.972 53.5016 189.275 53.0456 189.881C52.5896 190.487 52.3616 191.351 52.3616 192.473C52.3616 193.067 52.4126 193.577 52.5146 194.003C52.6166 194.423 52.7666 194.771 52.9646 195.047C53.1626 195.317 53.4056 195.515 53.6936 195.641C53.9816 195.767 54.3086 195.83 54.6746 195.83C55.2026 195.83 55.6616 195.71 56.0516 195.47C56.4476 195.23 56.8106 194.891 57.1406 194.453V190.052ZM58.7426 183.743V197H57.7886C57.5606 197 57.4166 196.889 57.3566 196.667L57.2126 195.56C56.8226 196.028 56.3786 196.406 55.8806 196.694C55.3826 196.982 54.8066 197.126 54.1526 197.126C53.6306 197.126 53.1566 197.027 52.7306 196.829C52.3046 196.625 51.9416 196.328 51.6416 195.938C51.3416 195.548 51.1106 195.062 50.9486 194.48C50.7866 193.898 50.7056 193.229 50.7056 192.473C50.7056 191.801 50.7956 191.177 50.9756 190.601C51.1556 190.019 51.4136 189.515 51.7496 189.089C52.0856 188.663 52.4966 188.33 52.9826 188.09C53.4746 187.844 54.0266 187.721 54.6386 187.721C55.1966 187.721 55.6736 187.817 56.0696 188.009C56.4716 188.195 56.8286 188.456 57.1406 188.792V183.743H58.7426ZM73.2509 187.883L69.5339 197H68.0939L64.3769 187.883H65.6819C65.8139 187.883 65.9219 187.916 66.0059 187.982C66.0899 188.048 66.1469 188.126 66.1769 188.216L68.4899 194.084C68.5619 194.306 68.6249 194.522 68.6789 194.732C68.7329 194.942 68.7839 195.152 68.8319 195.362C68.8799 195.152 68.9309 194.942 68.9849 194.732C69.0389 194.522 69.1049 194.306 69.1829 194.084L71.5229 188.216C71.5589 188.12 71.6189 188.042 71.7029 187.982C71.7869 187.916 71.8859 187.883 71.9999 187.883H73.2509ZM76.4122 187.883V197H74.8102V187.883H76.4122ZM76.7542 185.021C76.7542 185.177 76.7212 185.324 76.6552 185.462C76.5952 185.594 76.5112 185.714 76.4032 185.822C76.3012 185.924 76.1782 186.005 76.0342 186.065C75.8962 186.125 75.7492 186.155 75.5932 186.155C75.4372 186.155 75.2902 186.125 75.1522 186.065C75.0202 186.005 74.9032 185.924 74.8012 185.822C74.6992 185.714 74.6182 185.594 74.5582 185.462C74.4982 185.324 74.4682 185.177 74.4682 185.021C74.4682 184.865 74.4982 184.718 74.5582 184.58C74.6182 184.436 74.6992 184.313 74.8012 184.211C74.9032 184.103 75.0202 184.019 75.1522 183.959C75.2902 183.899 75.4372 183.869 75.5932 183.869C75.7492 183.869 75.8962 183.899 76.0342 183.959C76.1782 184.019 76.3012 184.103 76.4032 184.211C76.5112 184.313 76.5952 184.436 76.6552 184.58C76.7212 184.718 76.7542 184.865 76.7542 185.021ZM84.3544 189.386C84.2824 189.518 84.1714 189.584 84.0214 189.584C83.9314 189.584 83.8294 189.551 83.7154 189.485C83.6014 189.419 83.4604 189.347 83.2924 189.269C83.1304 189.185 82.9354 189.11 82.7074 189.044C82.4794 188.972 82.2094 188.936 81.8974 188.936C81.6274 188.936 81.3844 188.972 81.1684 189.044C80.9524 189.11 80.7664 189.203 80.6104 189.323C80.4604 189.443 80.3434 189.584 80.2594 189.746C80.1814 189.902 80.1424 190.073 80.1424 190.259C80.1424 190.493 80.2084 190.688 80.3404 190.844C80.4784 191 80.6584 191.135 80.8804 191.249C81.1024 191.363 81.3544 191.465 81.6364 191.555C81.9184 191.639 82.2064 191.732 82.5004 191.834C82.8004 191.93 83.0914 192.038 83.3734 192.158C83.6554 192.278 83.9074 192.428 84.1294 192.608C84.3514 192.788 84.5284 193.01 84.6604 193.274C84.7984 193.532 84.8674 193.844 84.8674 194.21C84.8674 194.63 84.7924 195.02 84.6424 195.38C84.4924 195.734 84.2704 196.043 83.9764 196.307C83.6824 196.565 83.3224 196.769 82.8964 196.919C82.4704 197.069 81.9784 197.144 81.4204 197.144C80.7844 197.144 80.2084 197.042 79.6924 196.838C79.1764 196.628 78.7384 196.361 78.3784 196.037L78.7564 195.425C78.8044 195.347 78.8614 195.287 78.9274 195.245C78.9934 195.203 79.0774 195.182 79.1794 195.182C79.2874 195.182 79.4014 195.224 79.5214 195.308C79.6414 195.392 79.7854 195.485 79.9534 195.587C80.1274 195.689 80.3374 195.782 80.5834 195.866C80.8294 195.95 81.1354 195.992 81.5014 195.992C81.8134 195.992 82.0864 195.953 82.3204 195.875C82.5544 195.791 82.7494 195.68 82.9054 195.542C83.0614 195.404 83.1754 195.245 83.2474 195.065C83.3254 194.885 83.3644 194.693 83.3644 194.489C83.3644 194.237 83.2954 194.03 83.1574 193.868C83.0254 193.7 82.8484 193.559 82.6264 193.445C82.4044 193.325 82.1494 193.223 81.8614 193.139C81.5794 193.049 81.2884 192.956 80.9884 192.86C80.6944 192.764 80.4034 192.656 80.1154 192.536C79.8334 192.41 79.5814 192.254 79.3594 192.068C79.1374 191.882 78.9574 191.654 78.8194 191.384C78.6874 191.108 78.6214 190.775 78.6214 190.385C78.6214 190.037 78.6934 189.704 78.8374 189.386C78.9814 189.062 79.1914 188.78 79.4674 188.54C79.7434 188.294 80.0824 188.099 80.4844 187.955C80.8864 187.811 81.3454 187.739 81.8614 187.739C82.4614 187.739 82.9984 187.835 83.4724 188.027C83.9524 188.213 84.3664 188.471 84.7144 188.801L84.3544 189.386ZM94.3285 187.883V197H93.3745C93.1465 197 93.0025 196.889 92.9425 196.667L92.8165 195.686C92.4205 196.124 91.9765 196.478 91.4845 196.748C90.9925 197.012 90.4285 197.144 89.7925 197.144C89.2945 197.144 88.8535 197.063 88.4695 196.901C88.0915 196.733 87.7735 196.499 87.5155 196.199C87.2575 195.899 87.0625 195.536 86.9305 195.11C86.8045 194.684 86.7415 194.213 86.7415 193.697V187.883H88.3435V193.697C88.3435 194.387 88.4995 194.921 88.8115 195.299C89.1295 195.677 89.6125 195.866 90.2605 195.866C90.7345 195.866 91.1755 195.755 91.5835 195.533C91.9975 195.305 92.3785 194.993 92.7265 194.597V187.883H94.3285ZM101.81 192.896C101.072 192.92 100.442 192.98 99.9196 193.076C99.4036 193.166 98.9806 193.286 98.6506 193.436C98.3266 193.586 98.0896 193.763 97.9396 193.967C97.7956 194.171 97.7236 194.399 97.7236 194.651C97.7236 194.891 97.7626 195.098 97.8406 195.272C97.9186 195.446 98.0236 195.59 98.1556 195.704C98.2936 195.812 98.4526 195.893 98.6326 195.947C98.8186 195.995 99.0166 196.019 99.2266 196.019C99.5086 196.019 99.7666 195.992 100.001 195.938C100.235 195.878 100.454 195.794 100.658 195.686C100.868 195.578 101.066 195.449 101.252 195.299C101.444 195.149 101.63 194.978 101.81 194.786V192.896ZM96.6346 189.17C97.1386 188.684 97.6816 188.321 98.2636 188.081C98.8456 187.841 99.4906 187.721 100.199 187.721C100.709 187.721 101.162 187.805 101.558 187.973C101.954 188.141 102.287 188.375 102.557 188.675C102.827 188.975 103.031 189.338 103.169 189.764C103.307 190.19 103.376 190.658 103.376 191.168V197H102.665C102.509 197 102.389 196.976 102.305 196.928C102.221 196.874 102.155 196.772 102.107 196.622L101.927 195.758C101.687 195.98 101.453 196.178 101.225 196.352C100.997 196.52 100.757 196.664 100.505 196.784C100.253 196.898 99.9826 196.985 99.6946 197.045C99.4126 197.111 99.0976 197.144 98.7496 197.144C98.3956 197.144 98.0626 197.096 97.7506 197C97.4386 196.898 97.1656 196.748 96.9316 196.55C96.7036 196.352 96.5206 196.103 96.3826 195.803C96.2506 195.497 96.1846 195.137 96.1846 194.723C96.1846 194.363 96.2836 194.018 96.4816 193.688C96.6796 193.352 97.0006 193.055 97.4446 192.797C97.8886 192.539 98.4676 192.329 99.1816 192.167C99.8956 191.999 100.772 191.903 101.81 191.879V191.168C101.81 190.46 101.657 189.926 101.351 189.566C101.045 189.2 100.598 189.017 100.01 189.017C99.6136 189.017 99.2806 189.068 99.0106 189.17C98.7466 189.266 98.5156 189.377 98.3176 189.503C98.1256 189.623 97.9576 189.734 97.8136 189.836C97.6756 189.932 97.5376 189.98 97.3996 189.98C97.2916 189.98 97.1986 189.953 97.1206 189.899C97.0426 189.839 96.9766 189.767 96.9226 189.683L96.6346 189.17ZM107.472 183.743V197H105.87V183.743H107.472ZM111.726 183.743V197H110.124V183.743H111.726ZM122.19 187.883L117.105 199.691C117.051 199.811 116.982 199.907 116.898 199.979C116.82 200.051 116.697 200.087 116.529 200.087H115.341L117.006 196.469L113.244 187.883H114.63C114.768 187.883 114.876 187.919 114.954 187.991C115.038 188.057 115.095 188.132 115.125 188.216L117.564 193.958C117.66 194.21 117.741 194.474 117.807 194.75C117.891 194.468 117.981 194.201 118.077 193.949L120.444 188.216C120.48 188.12 120.54 188.042 120.624 187.982C120.714 187.916 120.813 187.883 120.921 187.883H122.19ZM130.57 197.144C129.85 197.144 129.295 196.943 128.905 196.541C128.521 196.139 128.329 195.56 128.329 194.804V189.224H127.231C127.135 189.224 127.054 189.197 126.988 189.143C126.922 189.083 126.889 188.993 126.889 188.873V188.234L128.383 188.045L128.752 185.228C128.77 185.138 128.809 185.066 128.869 185.012C128.935 184.952 129.019 184.922 129.121 184.922H129.931V188.063H132.568V189.224H129.931V194.696C129.931 195.08 130.024 195.365 130.21 195.551C130.396 195.737 130.636 195.83 130.93 195.83C131.098 195.83 131.242 195.809 131.362 195.767C131.488 195.719 131.596 195.668 131.686 195.614C131.776 195.56 131.851 195.512 131.911 195.47C131.977 195.422 132.034 195.398 132.082 195.398C132.166 195.398 132.241 195.449 132.307 195.551L132.775 196.316C132.499 196.574 132.166 196.778 131.776 196.928C131.386 197.072 130.984 197.144 130.57 197.144ZM135.743 189.71C136.031 189.086 136.385 188.6 136.805 188.252C137.225 187.898 137.738 187.721 138.344 187.721C138.536 187.721 138.719 187.742 138.893 187.784C139.073 187.826 139.232 187.892 139.37 187.982L139.253 189.179C139.217 189.329 139.127 189.404 138.983 189.404C138.899 189.404 138.776 189.386 138.614 189.35C138.452 189.314 138.269 189.296 138.065 189.296C137.777 189.296 137.519 189.338 137.291 189.422C137.069 189.506 136.868 189.632 136.688 189.8C136.514 189.962 136.355 190.166 136.211 190.412C136.073 190.652 135.947 190.928 135.833 191.24V197H134.222V187.883H135.14C135.314 187.883 135.434 187.916 135.5 187.982C135.566 188.048 135.611 188.162 135.635 188.324L135.743 189.71ZM145.579 192.896C144.841 192.92 144.211 192.98 143.689 193.076C143.173 193.166 142.75 193.286 142.42 193.436C142.096 193.586 141.859 193.763 141.709 193.967C141.565 194.171 141.493 194.399 141.493 194.651C141.493 194.891 141.532 195.098 141.61 195.272C141.688 195.446 141.793 195.59 141.925 195.704C142.063 195.812 142.222 195.893 142.402 195.947C142.588 195.995 142.786 196.019 142.996 196.019C143.278 196.019 143.536 195.992 143.77 195.938C144.004 195.878 144.223 195.794 144.427 195.686C144.637 195.578 144.835 195.449 145.021 195.299C145.213 195.149 145.399 194.978 145.579 194.786V192.896ZM140.404 189.17C140.908 188.684 141.451 188.321 142.033 188.081C142.615 187.841 143.26 187.721 143.968 187.721C144.478 187.721 144.931 187.805 145.327 187.973C145.723 188.141 146.056 188.375 146.326 188.675C146.596 188.975 146.8 189.338 146.938 189.764C147.076 190.19 147.145 190.658 147.145 191.168V197H146.434C146.278 197 146.158 196.976 146.074 196.928C145.99 196.874 145.924 196.772 145.876 196.622L145.696 195.758C145.456 195.98 145.222 196.178 144.994 196.352C144.766 196.52 144.526 196.664 144.274 196.784C144.022 196.898 143.752 196.985 143.464 197.045C143.182 197.111 142.867 197.144 142.519 197.144C142.165 197.144 141.832 197.096 141.52 197C141.208 196.898 140.935 196.748 140.701 196.55C140.473 196.352 140.29 196.103 140.152 195.803C140.02 195.497 139.954 195.137 139.954 194.723C139.954 194.363 140.053 194.018 140.251 193.688C140.449 193.352 140.77 193.055 141.214 192.797C141.658 192.539 142.237 192.329 142.951 192.167C143.665 191.999 144.541 191.903 145.579 191.879V191.168C145.579 190.46 145.426 189.926 145.12 189.566C144.814 189.2 144.367 189.017 143.779 189.017C143.383 189.017 143.05 189.068 142.78 189.17C142.516 189.266 142.285 189.377 142.087 189.503C141.895 189.623 141.727 189.734 141.583 189.836C141.445 189.932 141.307 189.98 141.169 189.98C141.061 189.98 140.968 189.953 140.89 189.899C140.812 189.839 140.746 189.767 140.692 189.683L140.404 189.17ZM155.93 189.503C155.882 189.569 155.834 189.62 155.786 189.656C155.738 189.692 155.672 189.71 155.588 189.71C155.498 189.71 155.399 189.674 155.291 189.602C155.183 189.524 155.048 189.44 154.886 189.35C154.73 189.26 154.535 189.179 154.301 189.107C154.073 189.029 153.791 188.99 153.455 188.99C153.005 188.99 152.609 189.071 152.267 189.233C151.925 189.389 151.637 189.617 151.403 189.917C151.175 190.217 151.001 190.58 150.881 191.006C150.767 191.432 150.71 191.909 150.71 192.437C150.71 192.989 150.773 193.481 150.899 193.913C151.025 194.339 151.202 194.699 151.43 194.993C151.664 195.281 151.943 195.503 152.267 195.659C152.597 195.809 152.966 195.884 153.374 195.884C153.764 195.884 154.085 195.839 154.337 195.749C154.589 195.653 154.796 195.548 154.958 195.434C155.126 195.32 155.264 195.218 155.372 195.128C155.486 195.032 155.597 194.984 155.705 194.984C155.837 194.984 155.939 195.035 156.011 195.137L156.461 195.722C156.263 195.968 156.038 196.178 155.786 196.352C155.534 196.526 155.261 196.673 154.967 196.793C154.679 196.907 154.376 196.991 154.058 197.045C153.74 197.099 153.416 197.126 153.086 197.126C152.516 197.126 151.985 197.021 151.493 196.811C151.007 196.601 150.584 196.298 150.224 195.902C149.864 195.5 149.582 195.008 149.378 194.426C149.174 193.844 149.072 193.181 149.072 192.437C149.072 191.759 149.165 191.132 149.351 190.556C149.543 189.98 149.819 189.485 150.179 189.071C150.545 188.651 150.992 188.324 151.52 188.09C152.054 187.856 152.666 187.739 153.356 187.739C153.998 187.739 154.562 187.844 155.048 188.054C155.54 188.258 155.975 188.549 156.353 188.927L155.93 189.503ZM159.792 183.743V191.546H160.206C160.326 191.546 160.425 191.531 160.503 191.501C160.587 191.465 160.674 191.396 160.764 191.294L163.644 188.207C163.728 188.105 163.815 188.027 163.905 187.973C164.001 187.913 164.127 187.883 164.283 187.883H165.732L162.375 191.456C162.213 191.66 162.039 191.819 161.853 191.933C161.961 192.005 162.057 192.089 162.141 192.185C162.231 192.275 162.315 192.38 162.393 192.5L165.957 197H164.526C164.388 197 164.268 196.979 164.166 196.937C164.07 196.889 163.986 196.805 163.914 196.685L160.917 192.95C160.827 192.824 160.737 192.743 160.647 192.707C160.563 192.665 160.431 192.644 160.251 192.644H159.792V197H158.181V183.743H159.792ZM53.5675 228.804C53.8615 229.2 54.1825 229.479 54.5305 229.641C54.8785 229.803 55.2685 229.884 55.7005 229.884C56.5525 229.884 57.2065 229.581 57.6625 228.975C58.1185 228.369 58.3465 227.505 58.3465 226.383C58.3465 225.789 58.2925 225.279 58.1845 224.853C58.0825 224.427 57.9325 224.079 57.7345 223.809C57.5365 223.533 57.2935 223.332 57.0055 223.206C56.7175 223.08 56.3905 223.017 56.0245 223.017C55.5025 223.017 55.0435 223.137 54.6475 223.377C54.2575 223.617 53.8975 223.956 53.5675 224.394V228.804ZM53.4865 223.296C53.8705 222.822 54.3145 222.441 54.8185 222.153C55.3225 221.865 55.8985 221.721 56.5465 221.721C57.0745 221.721 57.5515 221.823 57.9775 222.027C58.4035 222.225 58.7665 222.522 59.0665 222.918C59.3665 223.308 59.5975 223.794 59.7595 224.376C59.9215 224.958 60.0025 225.627 60.0025 226.383C60.0025 227.055 59.9125 227.682 59.7325 228.264C59.5525 228.84 59.2915 229.341 58.9495 229.767C58.6135 230.187 58.1995 230.52 57.7075 230.766C57.2215 231.006 56.6725 231.126 56.0605 231.126C55.5025 231.126 55.0225 231.033 54.6205 230.847C54.2245 230.655 53.8735 230.391 53.5675 230.055V234.087H51.9565V221.883H52.9195C53.1475 221.883 53.2885 221.994 53.3425 222.216L53.4865 223.296ZM63.5673 223.71C63.8553 223.086 64.2093 222.6 64.6293 222.252C65.0493 221.898 65.5623 221.721 66.1683 221.721C66.3603 221.721 66.5433 221.742 66.7173 221.784C66.8973 221.826 67.0563 221.892 67.1943 221.982L67.0773 223.179C67.0413 223.329 66.9513 223.404 66.8073 223.404C66.7233 223.404 66.6003 223.386 66.4383 223.35C66.2763 223.314 66.0933 223.296 65.8893 223.296C65.6013 223.296 65.3433 223.338 65.1153 223.422C64.8933 223.506 64.6923 223.632 64.5123 223.8C64.3383 223.962 64.1793 224.166 64.0353 224.412C63.8973 224.652 63.7713 224.928 63.6573 225.24V231H62.0463V221.883H62.9643C63.1383 221.883 63.2583 221.916 63.3243 221.982C63.3903 222.048 63.4353 222.162 63.4593 222.324L63.5673 223.71ZM72.0768 221.739C72.7428 221.739 73.3428 221.85 73.8768 222.072C74.4108 222.294 74.8668 222.609 75.2448 223.017C75.6228 223.425 75.9108 223.92 76.1088 224.502C76.3128 225.078 76.4148 225.723 76.4148 226.437C76.4148 227.157 76.3128 227.805 76.1088 228.381C75.9108 228.957 75.6228 229.449 75.2448 229.857C74.8668 230.265 74.4108 230.58 73.8768 230.802C73.3428 231.018 72.7428 231.126 72.0768 231.126C71.4048 231.126 70.7988 231.018 70.2588 230.802C69.7248 230.58 69.2688 230.265 68.8908 229.857C68.5128 229.449 68.2218 228.957 68.0178 228.381C67.8198 227.805 67.7208 227.157 67.7208 226.437C67.7208 225.723 67.8198 225.078 68.0178 224.502C68.2218 223.92 68.5128 223.425 68.8908 223.017C69.2688 222.609 69.7248 222.294 70.2588 222.072C70.7988 221.85 71.4048 221.739 72.0768 221.739ZM72.0768 229.875C72.9768 229.875 73.6488 229.575 74.0928 228.975C74.5368 228.369 74.7588 227.526 74.7588 226.446C74.7588 225.36 74.5368 224.514 74.0928 223.908C73.6488 223.302 72.9768 222.999 72.0768 222.999C71.6208 222.999 71.2218 223.077 70.8798 223.233C70.5438 223.389 70.2618 223.614 70.0338 223.908C69.8118 224.202 69.6438 224.565 69.5298 224.997C69.4218 225.423 69.3678 225.906 69.3678 226.446C69.3678 227.526 69.5898 228.369 70.0338 228.975C70.4838 229.575 71.1648 229.875 72.0768 229.875ZM84.3867 224.052C84.0867 223.65 83.7627 223.371 83.4147 223.215C83.0667 223.053 82.6767 222.972 82.2447 222.972C81.3987 222.972 80.7477 223.275 80.2917 223.881C79.8357 224.487 79.6077 225.351 79.6077 226.473C79.6077 227.067 79.6587 227.577 79.7607 228.003C79.8627 228.423 80.0127 228.771 80.2107 229.047C80.4087 229.317 80.6517 229.515 80.9397 229.641C81.2277 229.767 81.5547 229.83 81.9207 229.83C82.4487 229.83 82.9077 229.71 83.2977 229.47C83.6937 229.23 84.0567 228.891 84.3867 228.453V224.052ZM85.9887 217.743V231H85.0347C84.8067 231 84.6627 230.889 84.6027 230.667L84.4587 229.56C84.0687 230.028 83.6247 230.406 83.1267 230.694C82.6287 230.982 82.0527 231.126 81.3987 231.126C80.8767 231.126 80.4027 231.027 79.9767 230.829C79.5507 230.625 79.1877 230.328 78.8877 229.938C78.5877 229.548 78.3567 229.062 78.1947 228.48C78.0327 227.898 77.9517 227.229 77.9517 226.473C77.9517 225.801 78.0417 225.177 78.2217 224.601C78.4017 224.019 78.6597 223.515 78.9957 223.089C79.3317 222.663 79.7427 222.33 80.2287 222.09C80.7207 221.844 81.2727 221.721 81.8847 221.721C82.4427 221.721 82.9197 221.817 83.3157 222.009C83.7177 222.195 84.0747 222.456 84.3867 222.792V217.743H85.9887ZM96.016 221.883V231H95.062C94.834 231 94.69 230.889 94.63 230.667L94.504 229.686C94.108 230.124 93.664 230.478 93.172 230.748C92.68 231.012 92.116 231.144 91.48 231.144C90.982 231.144 90.541 231.063 90.157 230.901C89.779 230.733 89.461 230.499 89.203 230.199C88.945 229.899 88.75 229.536 88.618 229.11C88.492 228.684 88.429 228.213 88.429 227.697V221.883H90.031V227.697C90.031 228.387 90.187 228.921 90.499 229.299C90.817 229.677 91.3 229.866 91.948 229.866C92.422 229.866 92.863 229.755 93.271 229.533C93.685 229.305 94.066 228.993 94.414 228.597V221.883H96.016ZM104.901 223.503C104.853 223.569 104.805 223.62 104.757 223.656C104.709 223.692 104.643 223.71 104.559 223.71C104.469 223.71 104.37 223.674 104.262 223.602C104.154 223.524 104.019 223.44 103.857 223.35C103.701 223.26 103.506 223.179 103.272 223.107C103.044 223.029 102.762 222.99 102.426 222.99C101.976 222.99 101.58 223.071 101.238 223.233C100.896 223.389 100.608 223.617 100.374 223.917C100.146 224.217 99.9721 224.58 99.8521 225.006C99.7381 225.432 99.6811 225.909 99.6811 226.437C99.6811 226.989 99.7441 227.481 99.8701 227.913C99.9961 228.339 100.173 228.699 100.401 228.993C100.635 229.281 100.914 229.503 101.238 229.659C101.568 229.809 101.937 229.884 102.345 229.884C102.735 229.884 103.056 229.839 103.308 229.749C103.56 229.653 103.767 229.548 103.929 229.434C104.097 229.32 104.235 229.218 104.343 229.128C104.457 229.032 104.568 228.984 104.676 228.984C104.808 228.984 104.91 229.035 104.982 229.137L105.432 229.722C105.234 229.968 105.009 230.178 104.757 230.352C104.505 230.526 104.232 230.673 103.938 230.793C103.65 230.907 103.347 230.991 103.029 231.045C102.711 231.099 102.387 231.126 102.057 231.126C101.487 231.126 100.956 231.021 100.464 230.811C99.9781 230.601 99.5551 230.298 99.1951 229.902C98.8351 229.5 98.5531 229.008 98.3491 228.426C98.1451 227.844 98.0431 227.181 98.0431 226.437C98.0431 225.759 98.1361 225.132 98.3221 224.556C98.5141 223.98 98.7901 223.485 99.1501 223.071C99.5161 222.651 99.9631 222.324 100.491 222.09C101.025 221.856 101.637 221.739 102.327 221.739C102.969 221.739 103.533 221.844 104.019 222.054C104.511 222.258 104.946 222.549 105.324 222.927L104.901 223.503ZM115.612 231H114.01V223.224H109.312V228.696C109.312 229.08 109.405 229.365 109.591 229.551C109.777 229.737 110.017 229.83 110.311 229.83C110.479 229.83 110.623 229.809 110.743 229.767C110.869 229.719 110.977 229.668 111.067 229.614C111.157 229.56 111.232 229.512 111.292 229.47C111.358 229.422 111.415 229.398 111.463 229.398C111.547 229.398 111.622 229.449 111.688 229.551L112.156 230.316C111.88 230.574 111.547 230.778 111.157 230.928C110.767 231.072 110.365 231.144 109.951 231.144C109.231 231.144 108.676 230.943 108.286 230.541C107.902 230.139 107.71 229.56 107.71 228.804V223.224H106.612C106.516 223.224 106.435 223.197 106.369 223.143C106.303 223.083 106.27 222.993 106.27 222.873V222.234L107.764 222.036L108.133 219.228C108.151 219.138 108.19 219.066 108.25 219.012C108.316 218.952 108.4 218.922 108.502 218.922H109.312V222.063H115.612V231ZM116.008 218.958C116.008 219.114 115.975 219.261 115.909 219.399C115.849 219.531 115.765 219.648 115.657 219.75C115.555 219.852 115.435 219.933 115.297 219.993C115.159 220.053 115.012 220.083 114.856 220.083C114.7 220.083 114.553 220.053 114.415 219.993C114.283 219.933 114.166 219.852 114.064 219.75C113.962 219.648 113.881 219.531 113.821 219.399C113.761 219.261 113.731 219.114 113.731 218.958C113.731 218.802 113.761 218.655 113.821 218.517C113.881 218.373 113.962 218.25 114.064 218.148C114.166 218.04 114.283 217.956 114.415 217.896C114.553 217.836 114.7 217.806 114.856 217.806C115.012 217.806 115.159 217.836 115.297 217.896C115.435 217.956 115.555 218.04 115.657 218.148C115.765 218.25 115.849 218.373 115.909 218.517C115.975 218.655 116.008 218.802 116.008 218.958ZM126.056 221.883L122.339 231H120.899L117.182 221.883H118.487C118.619 221.883 118.727 221.916 118.811 221.982C118.895 222.048 118.952 222.126 118.982 222.216L121.295 228.084C121.367 228.306 121.43 228.522 121.484 228.732C121.538 228.942 121.589 229.152 121.637 229.362C121.685 229.152 121.736 228.942 121.79 228.732C121.844 228.522 121.91 228.306 121.988 228.084L124.328 222.216C124.364 222.12 124.424 222.042 124.508 221.982C124.592 221.916 124.691 221.883 124.805 221.883H126.056ZM129.217 221.883V231H127.615V221.883H129.217ZM129.559 219.021C129.559 219.177 129.526 219.324 129.46 219.462C129.4 219.594 129.316 219.714 129.208 219.822C129.106 219.924 128.983 220.005 128.839 220.065C128.701 220.125 128.554 220.155 128.398 220.155C128.242 220.155 128.095 220.125 127.957 220.065C127.825 220.005 127.708 219.924 127.606 219.822C127.504 219.714 127.423 219.594 127.363 219.462C127.303 219.324 127.273 219.177 127.273 219.021C127.273 218.865 127.303 218.718 127.363 218.58C127.423 218.436 127.504 218.313 127.606 218.211C127.708 218.103 127.825 218.019 127.957 217.959C128.095 217.899 128.242 217.869 128.398 217.869C128.554 217.869 128.701 217.899 128.839 217.959C128.983 218.019 129.106 218.103 129.208 218.211C129.316 218.313 129.4 218.436 129.46 218.58C129.526 218.718 129.559 218.865 129.559 219.021ZM134.648 231.144C133.928 231.144 133.373 230.943 132.983 230.541C132.599 230.139 132.407 229.56 132.407 228.804V223.224H131.309C131.213 223.224 131.132 223.197 131.066 223.143C131 223.083 130.967 222.993 130.967 222.873V222.234L132.461 222.045L132.83 219.228C132.848 219.138 132.887 219.066 132.947 219.012C133.013 218.952 133.097 218.922 133.199 218.922H134.009V222.063H136.646V223.224H134.009V228.696C134.009 229.08 134.102 229.365 134.288 229.551C134.474 229.737 134.714 229.83 135.008 229.83C135.176 229.83 135.32 229.809 135.44 229.767C135.566 229.719 135.674 229.668 135.764 229.614C135.854 229.56 135.929 229.512 135.989 229.47C136.055 229.422 136.112 229.398 136.16 229.398C136.244 229.398 136.319 229.449 136.385 229.551L136.853 230.316C136.577 230.574 136.244 230.778 135.854 230.928C135.464 231.072 135.062 231.144 134.648 231.144ZM146.166 221.883L141.081 233.691C141.027 233.811 140.958 233.907 140.874 233.979C140.796 234.051 140.673 234.087 140.505 234.087H139.317L140.982 230.469L137.22 221.883H138.606C138.744 221.883 138.852 221.919 138.93 221.991C139.014 222.057 139.071 222.132 139.101 222.216L141.54 227.958C141.636 228.21 141.717 228.474 141.783 228.75C141.867 228.468 141.957 228.201 142.053 227.949L144.42 222.216C144.456 222.12 144.516 222.042 144.6 221.982C144.69 221.916 144.789 221.883 144.897 221.883H146.166Z" fill="black"/>
<defs>
<filter id="filter0_i" x="73.5" y="15" width="52" height="56" filterUnits="userSpaceOnUse" color-interpolation-filters="sRGB">
<feFlood flood-opacity="0" result="BackgroundImageFix"/>
<feBlend mode="normal" in="SourceGraphic" in2="BackgroundImageFix" result="shape"/>
<feColorMatrix in="SourceAlpha" type="matrix" values="0 0 0 0 0 0 0 0 0 0 0 0 0 0 0 0 0 0 127 0" result="hardAlpha"/>
<feOffset dy="4"/>
<feGaussianBlur stdDeviation="2"/>
<feComposite in2="hardAlpha" operator="arithmetic" k2="-1" k3="1"/>
<feColorMatrix type="matrix" values="0 0 0 0 0 0 0 0 0 0 0 0 0 0 0 0 0 0 0.25 0"/>
<feBlend mode="normal" in2="shape" result="effect1_innerShadow"/>
</filter>
<filter id="filter1_i" x="83.6094" y="25.1133" width="32.3107" height="36.3107" filterUnits="userSpaceOnUse" color-interpolation-filters="sRGB">
<feFlood flood-opacity="0" result="BackgroundImageFix"/>
<feBlend mode="normal" in="SourceGraphic" in2="BackgroundImageFix" result="shape"/>
<feColorMatrix in="SourceAlpha" type="matrix" values="0 0 0 0 0 0 0 0 0 0 0 0 0 0 0 0 0 0 127 0" result="hardAlpha"/>
<feOffset dy="4"/>
<feGaussianBlur stdDeviation="2"/>
<feComposite in2="hardAlpha" operator="arithmetic" k2="-1" k3="1"/>
<feColorMatrix type="matrix" values="0 0 0 0 0 0 0 0 0 0 0 0 0 0 0 0 0 0 0.25 0"/>
<feBlend mode="normal" in2="shape" result="effect1_innerShadow"/>
</filter>
</defs>
</svg>
