<svg width="600" height="91" viewBox="0 0 600 91" fill="none" xmlns="http://www.w3.org/2000/svg">
<circle cx="25" cy="27" r="25" fill="#F66700"/>
<path d="M28.2614 33.508C28.2614 34.54 28.4534 35.26 28.8374 35.668C29.2214 36.052 29.8934 36.244 30.8534 36.244V37C28.2614 36.904 26.6054 36.856 25.8854 36.856C25.0934 36.856 23.3654 36.892 20.7014 36.964L19.6934 37V36.244C20.8214 36.244 21.6614 36.028 22.2134 35.596C22.7894 35.164 23.0774 34.396 23.0774 33.292V24.508C23.0774 23.356 22.9694 22.516 22.7534 21.988C22.5614 21.436 22.2254 21.076 21.7454 20.908C21.2654 20.716 20.5334 20.62 19.5494 20.62V19.828C21.6374 19.78 23.3534 19.624 24.6974 19.36C26.0414 19.072 27.2294 18.616 28.2614 17.992V33.508Z" fill="white"/>
<path d="M110.6 12.505L103.895 34H101.285L95.84 17.605C95.79 17.445 95.74 17.275 95.69 17.095C95.65 16.915 95.605 16.725 95.555 16.525C95.505 16.725 95.455 16.915 95.405 17.095C95.355 17.275 95.305 17.445 95.255 17.605L89.78 34H87.17L80.465 12.505H82.88C83.14 12.505 83.355 12.57 83.525 12.7C83.705 12.83 83.82 12.995 83.87 13.195L88.31 28.135C88.38 28.405 88.445 28.695 88.505 29.005C88.575 29.315 88.64 29.645 88.7 29.995C88.77 29.645 88.84 29.315 88.91 29.005C88.99 28.685 89.075 28.395 89.165 28.135L94.22 13.195C94.28 13.025 94.395 12.87 94.565 12.73C94.745 12.58 94.96 12.505 95.21 12.505H96.05C96.31 12.505 96.52 12.57 96.68 12.7C96.84 12.83 96.96 12.995 97.04 13.195L102.08 28.135C102.17 28.395 102.25 28.675 102.32 28.975C102.4 29.275 102.475 29.59 102.545 29.92C102.595 29.59 102.65 29.275 102.71 28.975C102.77 28.675 102.835 28.395 102.905 28.135L107.36 13.195C107.41 13.015 107.52 12.855 107.69 12.715C107.87 12.575 108.085 12.505 108.335 12.505H110.6ZM115.873 18.805V34H113.203V18.805H115.873ZM116.443 14.035C116.443 14.295 116.388 14.54 116.278 14.77C116.178 14.99 116.038 15.19 115.858 15.37C115.688 15.54 115.483 15.675 115.243 15.775C115.012 15.875 114.768 15.925 114.508 15.925C114.248 15.925 114.003 15.875 113.773 15.775C113.553 15.675 113.358 15.54 113.188 15.37C113.018 15.19 112.883 14.99 112.783 14.77C112.683 14.54 112.633 14.295 112.633 14.035C112.633 13.775 112.683 13.53 112.783 13.3C112.883 13.06 113.018 12.855 113.188 12.685C113.358 12.505 113.553 12.365 113.773 12.265C114.003 12.165 114.248 12.115 114.508 12.115C114.768 12.115 115.012 12.165 115.243 12.265C115.483 12.365 115.688 12.505 115.858 12.685C116.038 12.855 116.178 13.06 116.278 13.3C116.388 13.53 116.443 13.775 116.443 14.035ZM122.78 21.01C123.11 20.64 123.46 20.305 123.83 20.005C124.2 19.705 124.59 19.45 125 19.24C125.42 19.02 125.86 18.855 126.32 18.745C126.79 18.625 127.295 18.565 127.835 18.565C128.665 18.565 129.395 18.705 130.025 18.985C130.665 19.255 131.195 19.645 131.615 20.155C132.045 20.655 132.37 21.26 132.59 21.97C132.81 22.68 132.92 23.465 132.92 24.325V34H130.235V24.325C130.235 23.175 129.97 22.285 129.44 21.655C128.92 21.015 128.125 20.695 127.055 20.695C126.265 20.695 125.525 20.885 124.835 21.265C124.155 21.645 123.525 22.16 122.945 22.81V34H120.26V18.805H121.865C122.245 18.805 122.48 18.99 122.57 19.36L122.78 21.01ZM146.888 22.42C146.388 21.75 145.848 21.285 145.268 21.025C144.688 20.755 144.038 20.62 143.318 20.62C141.908 20.62 140.823 21.125 140.063 22.135C139.303 23.145 138.923 24.585 138.923 26.455C138.923 27.445 139.008 28.295 139.178 29.005C139.348 29.705 139.598 30.285 139.928 30.745C140.258 31.195 140.663 31.525 141.143 31.735C141.623 31.945 142.168 32.05 142.778 32.05C143.658 32.05 144.423 31.85 145.073 31.45C145.733 31.05 146.338 30.485 146.888 29.755V22.42ZM149.558 11.905V34H147.968C147.588 34 147.348 33.815 147.248 33.445L147.008 31.6C146.358 32.38 145.618 33.01 144.788 33.49C143.958 33.97 142.998 34.21 141.908 34.21C141.038 34.21 140.248 34.045 139.538 33.715C138.828 33.375 138.223 32.88 137.723 32.23C137.223 31.58 136.838 30.77 136.568 29.8C136.298 28.83 136.163 27.715 136.163 26.455C136.163 25.335 136.313 24.295 136.613 23.335C136.913 22.365 137.343 21.525 137.903 20.815C138.463 20.105 139.148 19.55 139.958 19.15C140.778 18.74 141.698 18.535 142.718 18.535C143.648 18.535 144.443 18.695 145.103 19.015C145.773 19.325 146.368 19.76 146.888 20.32V11.905H149.558ZM160.18 18.565C161.29 18.565 162.29 18.75 163.18 19.12C164.07 19.49 164.83 20.015 165.46 20.695C166.09 21.375 166.57 22.2 166.9 23.17C167.24 24.13 167.41 25.205 167.41 26.395C167.41 27.595 167.24 28.675 166.9 29.635C166.57 30.595 166.09 31.415 165.46 32.095C164.83 32.775 164.07 33.3 163.18 33.67C162.29 34.03 161.29 34.21 160.18 34.21C159.06 34.21 158.05 34.03 157.15 33.67C156.26 33.3 155.5 32.775 154.87 32.095C154.24 31.415 153.755 30.595 153.415 29.635C153.085 28.675 152.92 27.595 152.92 26.395C152.92 25.205 153.085 24.13 153.415 23.17C153.755 22.2 154.24 21.375 154.87 20.695C155.5 20.015 156.26 19.49 157.15 19.12C158.05 18.75 159.06 18.565 160.18 18.565ZM160.18 32.125C161.68 32.125 162.8 31.625 163.54 30.625C164.28 29.615 164.65 28.21 164.65 26.41C164.65 24.6 164.28 23.19 163.54 22.18C162.8 21.17 161.68 20.665 160.18 20.665C159.42 20.665 158.755 20.795 158.185 21.055C157.625 21.315 157.155 21.69 156.775 22.18C156.405 22.67 156.125 23.275 155.935 23.995C155.755 24.705 155.665 25.51 155.665 26.41C155.665 28.21 156.035 29.615 156.775 30.625C157.525 31.625 158.66 32.125 160.18 32.125ZM191.517 18.805L186.597 34H184.482C184.222 34 184.042 33.83 183.942 33.49L180.582 23.185C180.502 22.955 180.437 22.725 180.387 22.495C180.337 22.255 180.287 22.02 180.237 21.79C180.187 22.02 180.137 22.255 180.087 22.495C180.037 22.725 179.972 22.96 179.892 23.2L176.472 33.49C176.382 33.83 176.182 34 175.872 34H173.862L168.942 18.805H171.042C171.252 18.805 171.427 18.86 171.567 18.97C171.717 19.08 171.817 19.21 171.867 19.36L174.777 29.14C174.947 29.86 175.082 30.54 175.182 31.18C175.272 30.85 175.362 30.515 175.452 30.175C175.552 29.835 175.657 29.49 175.767 29.14L178.977 19.3C179.027 19.15 179.112 19.025 179.232 18.925C179.362 18.825 179.517 18.775 179.697 18.775H180.867C181.067 18.775 181.232 18.825 181.362 18.925C181.492 19.025 181.582 19.15 181.632 19.3L184.767 29.14C184.877 29.49 184.977 29.835 185.067 30.175C185.157 30.515 185.242 30.85 185.322 31.18C185.372 30.85 185.432 30.52 185.502 30.19C185.582 29.85 185.667 29.5 185.757 29.14L188.727 19.36C188.777 19.2 188.872 19.07 189.012 18.97C189.152 18.86 189.317 18.805 189.507 18.805H191.517ZM205.843 34.24C204.643 34.24 203.718 33.905 203.068 33.235C202.428 32.565 202.108 31.6 202.108 30.34V21.04H200.278C200.118 21.04 199.983 20.995 199.873 20.905C199.763 20.805 199.708 20.655 199.708 20.455V19.39L202.198 19.075L202.812 14.38C202.843 14.23 202.908 14.11 203.008 14.02C203.118 13.92 203.258 13.87 203.428 13.87H204.778V19.105H209.173V21.04H204.778V30.16C204.778 30.8 204.933 31.275 205.243 31.585C205.553 31.895 205.953 32.05 206.443 32.05C206.723 32.05 206.963 32.015 207.163 31.945C207.373 31.865 207.553 31.78 207.703 31.69C207.853 31.6 207.978 31.52 208.078 31.45C208.188 31.37 208.283 31.33 208.363 31.33C208.503 31.33 208.628 31.415 208.738 31.585L209.518 32.86C209.058 33.29 208.503 33.63 207.853 33.88C207.203 34.12 206.533 34.24 205.843 34.24ZM218.247 18.565C219.357 18.565 220.357 18.75 221.247 19.12C222.137 19.49 222.897 20.015 223.527 20.695C224.157 21.375 224.637 22.2 224.967 23.17C225.307 24.13 225.477 25.205 225.477 26.395C225.477 27.595 225.307 28.675 224.967 29.635C224.637 30.595 224.157 31.415 223.527 32.095C222.897 32.775 222.137 33.3 221.247 33.67C220.357 34.03 219.357 34.21 218.247 34.21C217.127 34.21 216.117 34.03 215.217 33.67C214.327 33.3 213.567 32.775 212.937 32.095C212.307 31.415 211.822 30.595 211.482 29.635C211.152 28.675 210.987 27.595 210.987 26.395C210.987 25.205 211.152 24.13 211.482 23.17C211.822 22.2 212.307 21.375 212.937 20.695C213.567 20.015 214.327 19.49 215.217 19.12C216.117 18.75 217.127 18.565 218.247 18.565ZM218.247 32.125C219.747 32.125 220.867 31.625 221.607 30.625C222.347 29.615 222.717 28.21 222.717 26.41C222.717 24.6 222.347 23.19 221.607 22.18C220.867 21.17 219.747 20.665 218.247 20.665C217.487 20.665 216.822 20.795 216.252 21.055C215.692 21.315 215.222 21.69 214.842 22.18C214.472 22.67 214.192 23.275 214.002 23.995C213.822 24.705 213.732 25.51 213.732 26.41C213.732 28.21 214.102 29.615 214.842 30.625C215.592 31.625 216.727 32.125 218.247 32.125ZM245.389 21.31C245.269 21.53 245.084 21.64 244.834 21.64C244.684 21.64 244.514 21.585 244.324 21.475C244.134 21.365 243.899 21.245 243.619 21.115C243.349 20.975 243.024 20.85 242.644 20.74C242.264 20.62 241.814 20.56 241.294 20.56C240.844 20.56 240.439 20.62 240.079 20.74C239.719 20.85 239.409 21.005 239.149 21.205C238.899 21.405 238.704 21.64 238.564 21.91C238.434 22.17 238.369 22.455 238.369 22.765C238.369 23.155 238.479 23.48 238.699 23.74C238.929 24 239.229 24.225 239.599 24.415C239.969 24.605 240.389 24.775 240.859 24.925C241.329 25.065 241.809 25.22 242.299 25.39C242.799 25.55 243.284 25.73 243.754 25.93C244.224 26.13 244.644 26.38 245.014 26.68C245.384 26.98 245.679 27.35 245.899 27.79C246.129 28.22 246.244 28.74 246.244 29.35C246.244 30.05 246.119 30.7 245.869 31.3C245.619 31.89 245.249 32.405 244.759 32.845C244.269 33.275 243.669 33.615 242.959 33.865C242.249 34.115 241.429 34.24 240.499 34.24C239.439 34.24 238.479 34.07 237.619 33.73C236.759 33.38 236.029 32.935 235.429 32.395L236.059 31.375C236.139 31.245 236.234 31.145 236.344 31.075C236.454 31.005 236.594 30.97 236.764 30.97C236.944 30.97 237.134 31.04 237.334 31.18C237.534 31.32 237.774 31.475 238.054 31.645C238.344 31.815 238.694 31.97 239.104 32.11C239.514 32.25 240.024 32.32 240.634 32.32C241.154 32.32 241.609 32.255 241.999 32.125C242.389 31.985 242.714 31.8 242.974 31.57C243.234 31.34 243.424 31.075 243.544 30.775C243.674 30.475 243.739 30.155 243.739 29.815C243.739 29.395 243.624 29.05 243.394 28.78C243.174 28.5 242.879 28.265 242.509 28.075C242.139 27.875 241.714 27.705 241.234 27.565C240.764 27.415 240.279 27.26 239.779 27.1C239.289 26.94 238.804 26.76 238.324 26.56C237.854 26.35 237.434 26.09 237.064 25.78C236.694 25.47 236.394 25.09 236.164 24.64C235.944 24.18 235.834 23.625 235.834 22.975C235.834 22.395 235.954 21.84 236.194 21.31C236.434 20.77 236.784 20.3 237.244 19.9C237.704 19.49 238.269 19.165 238.939 18.925C239.609 18.685 240.374 18.565 241.234 18.565C242.234 18.565 243.129 18.725 243.919 19.045C244.719 19.355 245.409 19.785 245.989 20.335L245.389 21.31ZM252.202 20.83C252.852 20.14 253.572 19.59 254.362 19.18C255.152 18.77 256.062 18.565 257.092 18.565C257.922 18.565 258.652 18.705 259.282 18.985C259.922 19.255 260.452 19.645 260.872 20.155C261.302 20.655 261.627 21.26 261.847 21.97C262.067 22.68 262.177 23.465 262.177 24.325V34H259.492V24.325C259.492 23.175 259.227 22.285 258.697 21.655C258.177 21.015 257.382 20.695 256.312 20.695C255.522 20.695 254.782 20.885 254.092 21.265C253.412 21.645 252.782 22.16 252.202 22.81V34H249.517V11.905H252.202V20.83ZM272.651 18.565C273.761 18.565 274.761 18.75 275.651 19.12C276.541 19.49 277.301 20.015 277.931 20.695C278.561 21.375 279.041 22.2 279.371 23.17C279.711 24.13 279.881 25.205 279.881 26.395C279.881 27.595 279.711 28.675 279.371 29.635C279.041 30.595 278.561 31.415 277.931 32.095C277.301 32.775 276.541 33.3 275.651 33.67C274.761 34.03 273.761 34.21 272.651 34.21C271.531 34.21 270.521 34.03 269.621 33.67C268.731 33.3 267.971 32.775 267.341 32.095C266.711 31.415 266.226 30.595 265.886 29.635C265.556 28.675 265.391 27.595 265.391 26.395C265.391 25.205 265.556 24.13 265.886 23.17C266.226 22.2 266.711 21.375 267.341 20.695C267.971 20.015 268.731 19.49 269.621 19.12C270.521 18.75 271.531 18.565 272.651 18.565ZM272.651 32.125C274.151 32.125 275.271 31.625 276.011 30.625C276.751 29.615 277.121 28.21 277.121 26.41C277.121 24.6 276.751 23.19 276.011 22.18C275.271 21.17 274.151 20.665 272.651 20.665C271.891 20.665 271.226 20.795 270.656 21.055C270.096 21.315 269.626 21.69 269.246 22.18C268.876 22.67 268.596 23.275 268.406 23.995C268.226 24.705 268.136 25.51 268.136 26.41C268.136 28.21 268.506 29.615 269.246 30.625C269.996 31.625 271.131 32.125 272.651 32.125ZM303.988 18.805L299.068 34H296.953C296.693 34 296.513 33.83 296.413 33.49L293.053 23.185C292.973 22.955 292.908 22.725 292.858 22.495C292.808 22.255 292.758 22.02 292.708 21.79C292.658 22.02 292.608 22.255 292.558 22.495C292.508 22.725 292.443 22.96 292.363 23.2L288.943 33.49C288.853 33.83 288.653 34 288.343 34H286.333L281.413 18.805H283.513C283.723 18.805 283.898 18.86 284.038 18.97C284.188 19.08 284.288 19.21 284.338 19.36L287.248 29.14C287.418 29.86 287.553 30.54 287.653 31.18C287.743 30.85 287.833 30.515 287.923 30.175C288.023 29.835 288.128 29.49 288.238 29.14L291.448 19.3C291.498 19.15 291.583 19.025 291.703 18.925C291.833 18.825 291.988 18.775 292.168 18.775H293.338C293.538 18.775 293.703 18.825 293.833 18.925C293.963 19.025 294.053 19.15 294.103 19.3L297.238 29.14C297.348 29.49 297.448 29.835 297.538 30.175C297.628 30.515 297.713 30.85 297.793 31.18C297.843 30.85 297.903 30.52 297.973 30.19C298.053 29.85 298.138 29.5 298.228 29.14L301.198 19.36C301.248 19.2 301.343 19.07 301.483 18.97C301.623 18.86 301.788 18.805 301.978 18.805H303.988ZM318.313 34.24C317.113 34.24 316.188 33.905 315.538 33.235C314.898 32.565 314.578 31.6 314.578 30.34V21.04H312.748C312.588 21.04 312.453 20.995 312.343 20.905C312.233 20.805 312.178 20.655 312.178 20.455V19.39L314.668 19.075L315.283 14.38C315.313 14.23 315.378 14.11 315.478 14.02C315.588 13.92 315.728 13.87 315.898 13.87H317.248V19.105H321.643V21.04H317.248V30.16C317.248 30.8 317.403 31.275 317.713 31.585C318.023 31.895 318.423 32.05 318.913 32.05C319.193 32.05 319.433 32.015 319.633 31.945C319.843 31.865 320.023 31.78 320.173 31.69C320.323 31.6 320.448 31.52 320.548 31.45C320.658 31.37 320.753 31.33 320.833 31.33C320.973 31.33 321.098 31.415 321.208 31.585L321.988 32.86C321.528 33.29 320.973 33.63 320.323 33.88C319.673 34.12 319.003 34.24 318.313 34.24ZM327.085 20.83C327.735 20.14 328.455 19.59 329.245 19.18C330.035 18.77 330.945 18.565 331.975 18.565C332.805 18.565 333.535 18.705 334.165 18.985C334.805 19.255 335.335 19.645 335.755 20.155C336.185 20.655 336.51 21.26 336.73 21.97C336.95 22.68 337.06 23.465 337.06 24.325V34H334.375V24.325C334.375 23.175 334.11 22.285 333.58 21.655C333.06 21.015 332.265 20.695 331.195 20.695C330.405 20.695 329.665 20.885 328.975 21.265C328.295 21.645 327.665 22.16 327.085 22.81V34H324.4V11.905H327.085V20.83ZM351.299 24.745C351.299 24.125 351.209 23.56 351.029 23.05C350.859 22.53 350.604 22.085 350.264 21.715C349.934 21.335 349.529 21.045 349.049 20.845C348.569 20.635 348.024 20.53 347.414 20.53C346.134 20.53 345.119 20.905 344.369 21.655C343.629 22.395 343.169 23.425 342.989 24.745H351.299ZM353.459 31.87C353.129 32.27 352.734 32.62 352.274 32.92C351.814 33.21 351.319 33.45 350.789 33.64C350.269 33.83 349.729 33.97 349.169 34.06C348.609 34.16 348.054 34.21 347.504 34.21C346.454 34.21 345.484 34.035 344.594 33.685C343.714 33.325 342.949 32.805 342.299 32.125C341.659 31.435 341.159 30.585 340.799 29.575C340.439 28.565 340.259 27.405 340.259 26.095C340.259 25.035 340.419 24.045 340.739 23.125C341.069 22.205 341.539 21.41 342.149 20.74C342.759 20.06 343.504 19.53 344.384 19.15C345.264 18.76 346.254 18.565 347.354 18.565C348.264 18.565 349.104 18.72 349.874 19.03C350.654 19.33 351.324 19.77 351.884 20.35C352.454 20.92 352.899 21.63 353.219 22.48C353.539 23.32 353.699 24.28 353.699 25.36C353.699 25.78 353.654 26.06 353.564 26.2C353.474 26.34 353.304 26.41 353.054 26.41H342.899C342.929 27.37 343.059 28.205 343.289 28.915C343.529 29.625 343.859 30.22 344.279 30.7C344.699 31.17 345.199 31.525 345.779 31.765C346.359 31.995 347.009 32.11 347.729 32.11C348.399 32.11 348.974 32.035 349.454 31.885C349.944 31.725 350.364 31.555 350.714 31.375C351.064 31.195 351.354 31.03 351.584 30.88C351.824 30.72 352.029 30.64 352.199 30.64C352.419 30.64 352.589 30.725 352.709 30.895L353.459 31.87ZM369.319 34.24C368.119 34.24 367.194 33.905 366.544 33.235C365.904 32.565 365.584 31.6 365.584 30.34V21.04H363.754C363.594 21.04 363.459 20.995 363.349 20.905C363.239 20.805 363.184 20.655 363.184 20.455V19.39L365.674 19.075L366.289 14.38C366.319 14.23 366.384 14.11 366.484 14.02C366.594 13.92 366.734 13.87 366.904 13.87H368.254V19.105H372.649V21.04H368.254V30.16C368.254 30.8 368.409 31.275 368.719 31.585C369.029 31.895 369.429 32.05 369.919 32.05C370.199 32.05 370.439 32.015 370.639 31.945C370.849 31.865 371.029 31.78 371.179 31.69C371.329 31.6 371.454 31.52 371.554 31.45C371.664 31.37 371.759 31.33 371.839 31.33C371.979 31.33 372.104 31.415 372.214 31.585L372.994 32.86C372.534 33.29 371.979 33.63 371.329 33.88C370.679 34.12 370.009 34.24 369.319 34.24ZM383.641 27.16C382.411 27.2 381.361 27.3 380.491 27.46C379.631 27.61 378.926 27.81 378.376 28.06C377.836 28.31 377.441 28.605 377.191 28.945C376.951 29.285 376.831 29.665 376.831 30.085C376.831 30.485 376.896 30.83 377.026 31.12C377.156 31.41 377.331 31.65 377.551 31.84C377.781 32.02 378.046 32.155 378.346 32.245C378.656 32.325 378.986 32.365 379.336 32.365C379.806 32.365 380.236 32.32 380.626 32.23C381.016 32.13 381.381 31.99 381.721 31.81C382.071 31.63 382.401 31.415 382.711 31.165C383.031 30.915 383.341 30.63 383.641 30.31V27.16ZM375.016 20.95C375.856 20.14 376.761 19.535 377.731 19.135C378.701 18.735 379.776 18.535 380.956 18.535C381.806 18.535 382.561 18.675 383.221 18.955C383.881 19.235 384.436 19.625 384.886 20.125C385.336 20.625 385.676 21.23 385.906 21.94C386.136 22.65 386.251 23.43 386.251 24.28V34H385.066C384.806 34 384.606 33.96 384.466 33.88C384.326 33.79 384.216 33.62 384.136 33.37L383.836 31.93C383.436 32.3 383.046 32.63 382.666 32.92C382.286 33.2 381.886 33.44 381.466 33.64C381.046 33.83 380.596 33.975 380.116 34.075C379.646 34.185 379.121 34.24 378.541 34.24C377.951 34.24 377.396 34.16 376.876 34C376.356 33.83 375.901 33.58 375.511 33.25C375.131 32.92 374.826 32.505 374.596 32.005C374.376 31.495 374.266 30.895 374.266 30.205C374.266 29.605 374.431 29.03 374.761 28.48C375.091 27.92 375.626 27.425 376.366 26.995C377.106 26.565 378.071 26.215 379.261 25.945C380.451 25.665 381.911 25.505 383.641 25.465V24.28C383.641 23.1 383.386 22.21 382.876 21.61C382.366 21 381.621 20.695 380.641 20.695C379.981 20.695 379.426 20.78 378.976 20.95C378.536 21.11 378.151 21.295 377.821 21.505C377.501 21.705 377.221 21.89 376.981 22.06C376.751 22.22 376.521 22.3 376.291 22.3C376.111 22.3 375.956 22.255 375.826 22.165C375.696 22.065 375.586 21.945 375.496 21.805L375.016 20.95ZM399.168 21.31C399.048 21.53 398.863 21.64 398.613 21.64C398.463 21.64 398.293 21.585 398.103 21.475C397.913 21.365 397.678 21.245 397.398 21.115C397.128 20.975 396.803 20.85 396.423 20.74C396.043 20.62 395.593 20.56 395.073 20.56C394.623 20.56 394.218 20.62 393.858 20.74C393.498 20.85 393.188 21.005 392.928 21.205C392.678 21.405 392.483 21.64 392.343 21.91C392.213 22.17 392.148 22.455 392.148 22.765C392.148 23.155 392.258 23.48 392.478 23.74C392.708 24 393.008 24.225 393.378 24.415C393.748 24.605 394.168 24.775 394.638 24.925C395.108 25.065 395.588 25.22 396.078 25.39C396.578 25.55 397.063 25.73 397.533 25.93C398.003 26.13 398.423 26.38 398.793 26.68C399.163 26.98 399.458 27.35 399.678 27.79C399.908 28.22 400.023 28.74 400.023 29.35C400.023 30.05 399.898 30.7 399.648 31.3C399.398 31.89 399.028 32.405 398.538 32.845C398.048 33.275 397.448 33.615 396.738 33.865C396.028 34.115 395.208 34.24 394.278 34.24C393.218 34.24 392.258 34.07 391.398 33.73C390.538 33.38 389.808 32.935 389.208 32.395L389.838 31.375C389.918 31.245 390.013 31.145 390.123 31.075C390.233 31.005 390.373 30.97 390.543 30.97C390.723 30.97 390.913 31.04 391.113 31.18C391.313 31.32 391.553 31.475 391.833 31.645C392.123 31.815 392.473 31.97 392.883 32.11C393.293 32.25 393.803 32.32 394.413 32.32C394.933 32.32 395.388 32.255 395.778 32.125C396.168 31.985 396.493 31.8 396.753 31.57C397.013 31.34 397.203 31.075 397.323 30.775C397.453 30.475 397.518 30.155 397.518 29.815C397.518 29.395 397.403 29.05 397.173 28.78C396.953 28.5 396.658 28.265 396.288 28.075C395.918 27.875 395.493 27.705 395.013 27.565C394.543 27.415 394.058 27.26 393.558 27.1C393.068 26.94 392.583 26.76 392.103 26.56C391.633 26.35 391.213 26.09 390.843 25.78C390.473 25.47 390.173 25.09 389.943 24.64C389.723 24.18 389.613 23.625 389.613 22.975C389.613 22.395 389.733 21.84 389.973 21.31C390.213 20.77 390.563 20.3 391.023 19.9C391.483 19.49 392.048 19.165 392.718 18.925C393.388 18.685 394.153 18.565 395.013 18.565C396.013 18.565 396.908 18.725 397.698 19.045C398.498 19.355 399.188 19.785 399.768 20.335L399.168 21.31ZM405.982 11.905V24.91H406.672C406.872 24.91 407.037 24.885 407.167 24.835C407.307 24.775 407.452 24.66 407.602 24.49L412.402 19.345C412.542 19.175 412.687 19.045 412.837 18.955C412.997 18.855 413.207 18.805 413.467 18.805H415.882L410.287 24.76C410.017 25.1 409.727 25.365 409.417 25.555C409.597 25.675 409.757 25.815 409.897 25.975C410.047 26.125 410.187 26.3 410.317 26.5L416.257 34H413.872C413.642 34 413.442 33.965 413.272 33.895C413.112 33.815 412.972 33.675 412.852 33.475L407.857 27.25C407.707 27.04 407.557 26.905 407.407 26.845C407.267 26.775 407.047 26.74 406.747 26.74H405.982V34H403.297V11.905H405.982ZM427.381 21.31C427.261 21.53 427.076 21.64 426.826 21.64C426.676 21.64 426.506 21.585 426.316 21.475C426.126 21.365 425.891 21.245 425.611 21.115C425.341 20.975 425.016 20.85 424.636 20.74C424.256 20.62 423.806 20.56 423.286 20.56C422.836 20.56 422.431 20.62 422.071 20.74C421.711 20.85 421.401 21.005 421.141 21.205C420.891 21.405 420.696 21.64 420.556 21.91C420.426 22.17 420.361 22.455 420.361 22.765C420.361 23.155 420.471 23.48 420.691 23.74C420.921 24 421.221 24.225 421.591 24.415C421.961 24.605 422.381 24.775 422.851 24.925C423.321 25.065 423.801 25.22 424.291 25.39C424.791 25.55 425.276 25.73 425.746 25.93C426.216 26.13 426.636 26.38 427.006 26.68C427.376 26.98 427.671 27.35 427.891 27.79C428.121 28.22 428.236 28.74 428.236 29.35C428.236 30.05 428.111 30.7 427.861 31.3C427.611 31.89 427.241 32.405 426.751 32.845C426.261 33.275 425.661 33.615 424.951 33.865C424.241 34.115 423.421 34.24 422.491 34.24C421.431 34.24 420.471 34.07 419.611 33.73C418.751 33.38 418.021 32.935 417.421 32.395L418.051 31.375C418.131 31.245 418.226 31.145 418.336 31.075C418.446 31.005 418.586 30.97 418.756 30.97C418.936 30.97 419.126 31.04 419.326 31.18C419.526 31.32 419.766 31.475 420.046 31.645C420.336 31.815 420.686 31.97 421.096 32.11C421.506 32.25 422.016 32.32 422.626 32.32C423.146 32.32 423.601 32.255 423.991 32.125C424.381 31.985 424.706 31.8 424.966 31.57C425.226 31.34 425.416 31.075 425.536 30.775C425.666 30.475 425.731 30.155 425.731 29.815C425.731 29.395 425.616 29.05 425.386 28.78C425.166 28.5 424.871 28.265 424.501 28.075C424.131 27.875 423.706 27.705 423.226 27.565C422.756 27.415 422.271 27.26 421.771 27.1C421.281 26.94 420.796 26.76 420.316 26.56C419.846 26.35 419.426 26.09 419.056 25.78C418.686 25.47 418.386 25.09 418.156 24.64C417.936 24.18 417.826 23.625 417.826 22.975C417.826 22.395 417.946 21.84 418.186 21.31C418.426 20.77 418.776 20.3 419.236 19.9C419.696 19.49 420.261 19.165 420.931 18.925C421.601 18.685 422.366 18.565 423.226 18.565C424.226 18.565 425.121 18.725 425.911 19.045C426.711 19.355 427.401 19.785 427.981 20.335L427.381 21.31ZM90.965 66.31C90.845 66.53 90.66 66.64 90.41 66.64C90.26 66.64 90.09 66.585 89.9 66.475C89.71 66.365 89.475 66.245 89.195 66.115C88.925 65.975 88.6 65.85 88.22 65.74C87.84 65.62 87.39 65.56 86.87 65.56C86.42 65.56 86.015 65.62 85.655 65.74C85.295 65.85 84.985 66.005 84.725 66.205C84.475 66.405 84.28 66.64 84.14 66.91C84.01 67.17 83.945 67.455 83.945 67.765C83.945 68.155 84.055 68.48 84.275 68.74C84.505 69 84.805 69.225 85.175 69.415C85.545 69.605 85.965 69.775 86.435 69.925C86.905 70.065 87.385 70.22 87.875 70.39C88.375 70.55 88.86 70.73 89.33 70.93C89.8 71.13 90.22 71.38 90.59 71.68C90.96 71.98 91.255 72.35 91.475 72.79C91.705 73.22 91.82 73.74 91.82 74.35C91.82 75.05 91.695 75.7 91.445 76.3C91.195 76.89 90.825 77.405 90.335 77.845C89.845 78.275 89.245 78.615 88.535 78.865C87.825 79.115 87.005 79.24 86.075 79.24C85.015 79.24 84.055 79.07 83.195 78.73C82.335 78.38 81.605 77.935 81.005 77.395L81.635 76.375C81.715 76.245 81.81 76.145 81.92 76.075C82.03 76.005 82.17 75.97 82.34 75.97C82.52 75.97 82.71 76.04 82.91 76.18C83.11 76.32 83.35 76.475 83.63 76.645C83.92 76.815 84.27 76.97 84.68 77.11C85.09 77.25 85.6 77.32 86.21 77.32C86.73 77.32 87.185 77.255 87.575 77.125C87.965 76.985 88.29 76.8 88.55 76.57C88.81 76.34 89 76.075 89.12 75.775C89.25 75.475 89.315 75.155 89.315 74.815C89.315 74.395 89.2 74.05 88.97 73.78C88.75 73.5 88.455 73.265 88.085 73.075C87.715 72.875 87.29 72.705 86.81 72.565C86.34 72.415 85.855 72.26 85.355 72.1C84.865 71.94 84.38 71.76 83.9 71.56C83.43 71.35 83.01 71.09 82.64 70.78C82.27 70.47 81.97 70.09 81.74 69.64C81.52 69.18 81.41 68.625 81.41 67.975C81.41 67.395 81.53 66.84 81.77 66.31C82.01 65.77 82.36 65.3 82.82 64.9C83.28 64.49 83.845 64.165 84.515 63.925C85.185 63.685 85.95 63.565 86.81 63.565C87.81 63.565 88.705 63.725 89.495 64.045C90.295 64.355 90.985 64.785 91.565 65.335L90.965 66.31ZM105.669 66.505C105.589 66.615 105.509 66.7 105.429 66.76C105.349 66.82 105.239 66.85 105.099 66.85C104.949 66.85 104.784 66.79 104.604 66.67C104.424 66.54 104.199 66.4 103.929 66.25C103.669 66.1 103.344 65.965 102.954 65.845C102.574 65.715 102.104 65.65 101.544 65.65C100.794 65.65 100.134 65.785 99.5635 66.055C98.9935 66.315 98.5135 66.695 98.1235 67.195C97.7435 67.695 97.4535 68.3 97.2535 69.01C97.0635 69.72 96.9685 70.515 96.9685 71.395C96.9685 72.315 97.0735 73.135 97.2835 73.855C97.4935 74.565 97.7885 75.165 98.1685 75.655C98.5585 76.135 99.0235 76.505 99.5635 76.765C100.114 77.015 100.729 77.14 101.409 77.14C102.059 77.14 102.594 77.065 103.014 76.915C103.434 76.755 103.779 76.58 104.049 76.39C104.329 76.2 104.559 76.03 104.739 75.88C104.929 75.72 105.114 75.64 105.294 75.64C105.514 75.64 105.684 75.725 105.804 75.895L106.554 76.87C106.224 77.28 105.849 77.63 105.429 77.92C105.009 78.21 104.554 78.455 104.064 78.655C103.584 78.845 103.079 78.985 102.549 79.075C102.019 79.165 101.479 79.21 100.929 79.21C99.9785 79.21 99.0935 79.035 98.2735 78.685C97.4635 78.335 96.7585 77.83 96.1585 77.17C95.5585 76.5 95.0885 75.68 94.7485 74.71C94.4085 73.74 94.2385 72.635 94.2385 71.395C94.2385 70.265 94.3935 69.22 94.7035 68.26C95.0235 67.3 95.4835 66.475 96.0835 65.785C96.6935 65.085 97.4385 64.54 98.3185 64.15C99.2085 63.76 100.229 63.565 101.379 63.565C102.449 63.565 103.389 63.74 104.199 64.09C105.019 64.43 105.744 64.915 106.374 65.545L105.669 66.505ZM112.105 65.83C112.755 65.14 113.475 64.59 114.265 64.18C115.055 63.77 115.965 63.565 116.995 63.565C117.825 63.565 118.555 63.705 119.185 63.985C119.825 64.255 120.355 64.645 120.775 65.155C121.205 65.655 121.53 66.26 121.75 66.97C121.97 67.68 122.08 68.465 122.08 69.325V79H119.395V69.325C119.395 68.175 119.13 67.285 118.6 66.655C118.08 66.015 117.285 65.695 116.215 65.695C115.425 65.695 114.685 65.885 113.995 66.265C113.315 66.645 112.685 67.16 112.105 67.81V79H109.42V56.905H112.105V65.83ZM136.318 69.745C136.318 69.125 136.228 68.56 136.048 68.05C135.878 67.53 135.623 67.085 135.283 66.715C134.953 66.335 134.548 66.045 134.068 65.845C133.588 65.635 133.043 65.53 132.433 65.53C131.153 65.53 130.138 65.905 129.388 66.655C128.648 67.395 128.188 68.425 128.008 69.745H136.318ZM138.478 76.87C138.148 77.27 137.753 77.62 137.293 77.92C136.833 78.21 136.338 78.45 135.808 78.64C135.288 78.83 134.748 78.97 134.188 79.06C133.628 79.16 133.073 79.21 132.523 79.21C131.473 79.21 130.503 79.035 129.613 78.685C128.733 78.325 127.968 77.805 127.318 77.125C126.678 76.435 126.178 75.585 125.818 74.575C125.458 73.565 125.278 72.405 125.278 71.095C125.278 70.035 125.438 69.045 125.758 68.125C126.088 67.205 126.558 66.41 127.168 65.74C127.778 65.06 128.523 64.53 129.403 64.15C130.283 63.76 131.273 63.565 132.373 63.565C133.283 63.565 134.123 63.72 134.893 64.03C135.673 64.33 136.343 64.77 136.903 65.35C137.473 65.92 137.918 66.63 138.238 67.48C138.558 68.32 138.718 69.28 138.718 70.36C138.718 70.78 138.673 71.06 138.583 71.2C138.493 71.34 138.323 71.41 138.073 71.41H127.918C127.948 72.37 128.078 73.205 128.308 73.915C128.548 74.625 128.878 75.22 129.298 75.7C129.718 76.17 130.218 76.525 130.798 76.765C131.378 76.995 132.028 77.11 132.748 77.11C133.418 77.11 133.993 77.035 134.473 76.885C134.963 76.725 135.383 76.555 135.733 76.375C136.083 76.195 136.373 76.03 136.603 75.88C136.843 75.72 137.048 75.64 137.218 75.64C137.438 75.64 137.608 75.725 137.728 75.895L138.478 76.87ZM151.898 67.42C151.398 66.75 150.858 66.285 150.278 66.025C149.698 65.755 149.048 65.62 148.328 65.62C146.918 65.62 145.833 66.125 145.073 67.135C144.313 68.145 143.933 69.585 143.933 71.455C143.933 72.445 144.018 73.295 144.188 74.005C144.358 74.705 144.608 75.285 144.938 75.745C145.268 76.195 145.673 76.525 146.153 76.735C146.633 76.945 147.178 77.05 147.788 77.05C148.668 77.05 149.433 76.85 150.083 76.45C150.743 76.05 151.348 75.485 151.898 74.755V67.42ZM154.568 56.905V79H152.978C152.598 79 152.358 78.815 152.258 78.445L152.018 76.6C151.368 77.38 150.628 78.01 149.798 78.49C148.968 78.97 148.008 79.21 146.918 79.21C146.048 79.21 145.258 79.045 144.548 78.715C143.838 78.375 143.233 77.88 142.733 77.23C142.233 76.58 141.848 75.77 141.578 74.8C141.308 73.83 141.173 72.715 141.173 71.455C141.173 70.335 141.323 69.295 141.623 68.335C141.923 67.365 142.353 66.525 142.913 65.815C143.473 65.105 144.158 64.55 144.968 64.15C145.788 63.74 146.708 63.535 147.728 63.535C148.658 63.535 149.453 63.695 150.113 64.015C150.783 64.325 151.378 64.76 151.898 65.32V56.905H154.568ZM171.28 63.805V79H169.69C169.31 79 169.07 78.815 168.97 78.445L168.76 76.81C168.1 77.54 167.36 78.13 166.54 78.58C165.72 79.02 164.78 79.24 163.72 79.24C162.89 79.24 162.155 79.105 161.515 78.835C160.885 78.555 160.355 78.165 159.925 77.665C159.495 77.165 159.17 76.56 158.95 75.85C158.74 75.14 158.635 74.355 158.635 73.495V63.805H161.305V73.495C161.305 74.645 161.565 75.535 162.085 76.165C162.615 76.795 163.42 77.11 164.5 77.11C165.29 77.11 166.025 76.925 166.705 76.555C167.395 76.175 168.03 75.655 168.61 74.995V63.805H171.28ZM178.273 56.905V79H175.603V56.905H178.273ZM192.773 69.745C192.773 69.125 192.683 68.56 192.503 68.05C192.333 67.53 192.078 67.085 191.738 66.715C191.408 66.335 191.003 66.045 190.523 65.845C190.043 65.635 189.498 65.53 188.888 65.53C187.608 65.53 186.593 65.905 185.843 66.655C185.103 67.395 184.643 68.425 184.463 69.745H192.773ZM194.933 76.87C194.603 77.27 194.208 77.62 193.748 77.92C193.288 78.21 192.793 78.45 192.263 78.64C191.743 78.83 191.203 78.97 190.643 79.06C190.083 79.16 189.528 79.21 188.978 79.21C187.928 79.21 186.958 79.035 186.068 78.685C185.188 78.325 184.423 77.805 183.773 77.125C183.133 76.435 182.633 75.585 182.273 74.575C181.913 73.565 181.733 72.405 181.733 71.095C181.733 70.035 181.893 69.045 182.213 68.125C182.543 67.205 183.013 66.41 183.623 65.74C184.233 65.06 184.978 64.53 185.858 64.15C186.738 63.76 187.728 63.565 188.828 63.565C189.738 63.565 190.578 63.72 191.348 64.03C192.128 64.33 192.798 64.77 193.358 65.35C193.928 65.92 194.373 66.63 194.693 67.48C195.013 68.32 195.173 69.28 195.173 70.36C195.173 70.78 195.128 71.06 195.038 71.2C194.948 71.34 194.778 71.41 194.528 71.41H184.373C184.403 72.37 184.533 73.205 184.763 73.915C185.003 74.625 185.333 75.22 185.753 75.7C186.173 76.17 186.673 76.525 187.253 76.765C187.833 76.995 188.483 77.11 189.203 77.11C189.873 77.11 190.448 77.035 190.928 76.885C191.418 76.725 191.838 76.555 192.188 76.375C192.538 76.195 192.828 76.03 193.058 75.88C193.298 75.72 193.503 75.64 193.673 75.64C193.893 75.64 194.063 75.725 194.183 75.895L194.933 76.87ZM208.353 67.42C207.853 66.75 207.313 66.285 206.733 66.025C206.153 65.755 205.503 65.62 204.783 65.62C203.373 65.62 202.288 66.125 201.528 67.135C200.768 68.145 200.388 69.585 200.388 71.455C200.388 72.445 200.473 73.295 200.643 74.005C200.813 74.705 201.063 75.285 201.393 75.745C201.723 76.195 202.128 76.525 202.608 76.735C203.088 76.945 203.633 77.05 204.243 77.05C205.123 77.05 205.888 76.85 206.538 76.45C207.198 76.05 207.803 75.485 208.353 74.755V67.42ZM211.023 56.905V79H209.433C209.053 79 208.813 78.815 208.713 78.445L208.473 76.6C207.823 77.38 207.083 78.01 206.253 78.49C205.423 78.97 204.463 79.21 203.373 79.21C202.503 79.21 201.713 79.045 201.003 78.715C200.293 78.375 199.688 77.88 199.188 77.23C198.688 76.58 198.303 75.77 198.033 74.8C197.763 73.83 197.628 72.715 197.628 71.455C197.628 70.335 197.778 69.295 198.078 68.335C198.378 67.365 198.808 66.525 199.368 65.815C199.928 65.105 200.613 64.55 201.423 64.15C202.243 63.74 203.163 63.535 204.183 63.535C205.113 63.535 205.908 63.695 206.568 64.015C207.238 64.325 207.833 64.76 208.353 65.32V56.905H211.023ZM223.906 79V66.085L222.226 65.89C222.016 65.84 221.841 65.765 221.701 65.665C221.571 65.555 221.506 65.4 221.506 65.2V64.105H223.906V62.635C223.906 61.765 224.026 60.995 224.266 60.325C224.516 59.645 224.866 59.075 225.316 58.615C225.776 58.145 226.326 57.79 226.966 57.55C227.606 57.31 228.326 57.19 229.126 57.19C229.806 57.19 230.431 57.29 231.001 57.49L230.941 58.825C230.921 59.065 230.786 59.195 230.536 59.215C230.296 59.235 229.971 59.245 229.561 59.245C229.101 59.245 228.681 59.305 228.301 59.425C227.931 59.545 227.611 59.74 227.341 60.01C227.071 60.28 226.861 60.635 226.711 61.075C226.571 61.515 226.501 62.06 226.501 62.71V64.105H230.881V66.04H226.591V79H223.906ZM239.34 63.565C240.45 63.565 241.45 63.75 242.34 64.12C243.23 64.49 243.99 65.015 244.62 65.695C245.25 66.375 245.73 67.2 246.06 68.17C246.4 69.13 246.57 70.205 246.57 71.395C246.57 72.595 246.4 73.675 246.06 74.635C245.73 75.595 245.25 76.415 244.62 77.095C243.99 77.775 243.23 78.3 242.34 78.67C241.45 79.03 240.45 79.21 239.34 79.21C238.22 79.21 237.21 79.03 236.31 78.67C235.42 78.3 234.66 77.775 234.03 77.095C233.4 76.415 232.915 75.595 232.575 74.635C232.245 73.675 232.08 72.595 232.08 71.395C232.08 70.205 232.245 69.13 232.575 68.17C232.915 67.2 233.4 66.375 234.03 65.695C234.66 65.015 235.42 64.49 236.31 64.12C237.21 63.75 238.22 63.565 239.34 63.565ZM239.34 77.125C240.84 77.125 241.96 76.625 242.7 75.625C243.44 74.615 243.81 73.21 243.81 71.41C243.81 69.6 243.44 68.19 242.7 67.18C241.96 66.17 240.84 65.665 239.34 65.665C238.58 65.665 237.915 65.795 237.345 66.055C236.785 66.315 236.315 66.69 235.935 67.18C235.565 67.67 235.285 68.275 235.095 68.995C234.915 69.705 234.825 70.51 234.825 71.41C234.825 73.21 235.195 74.615 235.935 75.625C236.685 76.625 237.82 77.125 239.34 77.125ZM252.492 66.85C252.972 65.81 253.562 65 254.262 64.42C254.962 63.83 255.817 63.535 256.827 63.535C257.147 63.535 257.452 63.57 257.742 63.64C258.042 63.71 258.307 63.82 258.537 63.97L258.342 65.965C258.282 66.215 258.132 66.34 257.892 66.34C257.752 66.34 257.547 66.31 257.277 66.25C257.007 66.19 256.702 66.16 256.362 66.16C255.882 66.16 255.452 66.23 255.072 66.37C254.702 66.51 254.367 66.72 254.067 67C253.777 67.27 253.512 67.61 253.272 68.02C253.042 68.42 252.832 68.88 252.642 69.4V79H249.957V63.805H251.487C251.777 63.805 251.977 63.86 252.087 63.97C252.197 64.08 252.272 64.27 252.312 64.54L252.492 66.85ZM272.581 79.24C271.381 79.24 270.456 78.905 269.806 78.235C269.166 77.565 268.846 76.6 268.846 75.34V66.04H267.016C266.856 66.04 266.721 65.995 266.611 65.905C266.501 65.805 266.446 65.655 266.446 65.455V64.39L268.936 64.075L269.551 59.38C269.581 59.23 269.646 59.11 269.746 59.02C269.856 58.92 269.996 58.87 270.166 58.87H271.516V64.105H275.911V66.04H271.516V75.16C271.516 75.8 271.671 76.275 271.981 76.585C272.291 76.895 272.691 77.05 273.181 77.05C273.461 77.05 273.701 77.015 273.901 76.945C274.111 76.865 274.291 76.78 274.441 76.69C274.591 76.6 274.716 76.52 274.816 76.45C274.926 76.37 275.021 76.33 275.101 76.33C275.241 76.33 275.366 76.415 275.476 76.585L276.256 77.86C275.796 78.29 275.241 78.63 274.591 78.88C273.941 79.12 273.271 79.24 272.581 79.24ZM281.353 65.83C282.003 65.14 282.723 64.59 283.513 64.18C284.303 63.77 285.213 63.565 286.243 63.565C287.073 63.565 287.803 63.705 288.433 63.985C289.073 64.255 289.603 64.645 290.023 65.155C290.453 65.655 290.778 66.26 290.998 66.97C291.218 67.68 291.328 68.465 291.328 69.325V79H288.643V69.325C288.643 68.175 288.378 67.285 287.848 66.655C287.328 66.015 286.533 65.695 285.463 65.695C284.673 65.695 283.933 65.885 283.243 66.265C282.563 66.645 281.933 67.16 281.353 67.81V79H278.668V56.905H281.353V65.83ZM305.566 69.745C305.566 69.125 305.476 68.56 305.296 68.05C305.126 67.53 304.871 67.085 304.531 66.715C304.201 66.335 303.796 66.045 303.316 65.845C302.836 65.635 302.291 65.53 301.681 65.53C300.401 65.53 299.386 65.905 298.636 66.655C297.896 67.395 297.436 68.425 297.256 69.745H305.566ZM307.726 76.87C307.396 77.27 307.001 77.62 306.541 77.92C306.081 78.21 305.586 78.45 305.056 78.64C304.536 78.83 303.996 78.97 303.436 79.06C302.876 79.16 302.321 79.21 301.771 79.21C300.721 79.21 299.751 79.035 298.861 78.685C297.981 78.325 297.216 77.805 296.566 77.125C295.926 76.435 295.426 75.585 295.066 74.575C294.706 73.565 294.526 72.405 294.526 71.095C294.526 70.035 294.686 69.045 295.006 68.125C295.336 67.205 295.806 66.41 296.416 65.74C297.026 65.06 297.771 64.53 298.651 64.15C299.531 63.76 300.521 63.565 301.621 63.565C302.531 63.565 303.371 63.72 304.141 64.03C304.921 64.33 305.591 64.77 306.151 65.35C306.721 65.92 307.166 66.63 307.486 67.48C307.806 68.32 307.966 69.28 307.966 70.36C307.966 70.78 307.921 71.06 307.831 71.2C307.741 71.34 307.571 71.41 307.321 71.41H297.166C297.196 72.37 297.326 73.205 297.556 73.915C297.796 74.625 298.126 75.22 298.546 75.7C298.966 76.17 299.466 76.525 300.046 76.765C300.626 76.995 301.276 77.11 301.996 77.11C302.666 77.11 303.241 77.035 303.721 76.885C304.211 76.725 304.631 76.555 304.981 76.375C305.331 76.195 305.621 76.03 305.851 75.88C306.091 75.72 306.296 75.64 306.466 75.64C306.686 75.64 306.856 75.725 306.976 75.895L307.726 76.87ZM328.822 67.42C328.322 66.75 327.782 66.285 327.202 66.025C326.622 65.755 325.972 65.62 325.252 65.62C323.842 65.62 322.757 66.125 321.997 67.135C321.237 68.145 320.857 69.585 320.857 71.455C320.857 72.445 320.942 73.295 321.112 74.005C321.282 74.705 321.532 75.285 321.862 75.745C322.192 76.195 322.597 76.525 323.077 76.735C323.557 76.945 324.102 77.05 324.712 77.05C325.592 77.05 326.357 76.85 327.007 76.45C327.667 76.05 328.272 75.485 328.822 74.755V67.42ZM331.492 56.905V79H329.902C329.522 79 329.282 78.815 329.182 78.445L328.942 76.6C328.292 77.38 327.552 78.01 326.722 78.49C325.892 78.97 324.932 79.21 323.842 79.21C322.972 79.21 322.182 79.045 321.472 78.715C320.762 78.375 320.157 77.88 319.657 77.23C319.157 76.58 318.772 75.77 318.502 74.8C318.232 73.83 318.097 72.715 318.097 71.455C318.097 70.335 318.247 69.295 318.547 68.335C318.847 67.365 319.277 66.525 319.837 65.815C320.397 65.105 321.082 64.55 321.892 64.15C322.712 63.74 323.632 63.535 324.652 63.535C325.582 63.535 326.377 63.695 327.037 64.015C327.707 64.325 328.302 64.76 328.822 65.32V56.905H331.492ZM343.944 72.16C342.714 72.2 341.664 72.3 340.794 72.46C339.934 72.61 339.229 72.81 338.679 73.06C338.139 73.31 337.744 73.605 337.494 73.945C337.254 74.285 337.134 74.665 337.134 75.085C337.134 75.485 337.199 75.83 337.329 76.12C337.459 76.41 337.634 76.65 337.854 76.84C338.084 77.02 338.349 77.155 338.649 77.245C338.959 77.325 339.289 77.365 339.639 77.365C340.109 77.365 340.539 77.32 340.929 77.23C341.319 77.13 341.684 76.99 342.024 76.81C342.374 76.63 342.704 76.415 343.014 76.165C343.334 75.915 343.644 75.63 343.944 75.31V72.16ZM335.319 65.95C336.159 65.14 337.064 64.535 338.034 64.135C339.004 63.735 340.079 63.535 341.259 63.535C342.109 63.535 342.864 63.675 343.524 63.955C344.184 64.235 344.739 64.625 345.189 65.125C345.639 65.625 345.979 66.23 346.209 66.94C346.439 67.65 346.554 68.43 346.554 69.28V79H345.369C345.109 79 344.909 78.96 344.769 78.88C344.629 78.79 344.519 78.62 344.439 78.37L344.139 76.93C343.739 77.3 343.349 77.63 342.969 77.92C342.589 78.2 342.189 78.44 341.769 78.64C341.349 78.83 340.899 78.975 340.419 79.075C339.949 79.185 339.424 79.24 338.844 79.24C338.254 79.24 337.699 79.16 337.179 79C336.659 78.83 336.204 78.58 335.814 78.25C335.434 77.92 335.129 77.505 334.899 77.005C334.679 76.495 334.569 75.895 334.569 75.205C334.569 74.605 334.734 74.03 335.064 73.48C335.394 72.92 335.929 72.425 336.669 71.995C337.409 71.565 338.374 71.215 339.564 70.945C340.754 70.665 342.214 70.505 343.944 70.465V69.28C343.944 68.1 343.689 67.21 343.179 66.61C342.669 66 341.924 65.695 340.944 65.695C340.284 65.695 339.729 65.78 339.279 65.95C338.839 66.11 338.454 66.295 338.124 66.505C337.804 66.705 337.524 66.89 337.284 67.06C337.054 67.22 336.824 67.3 336.594 67.3C336.414 67.3 336.259 67.255 336.129 67.165C335.999 67.065 335.889 66.945 335.799 66.805L335.319 65.95ZM363.379 63.805L354.904 83.485C354.814 83.685 354.699 83.845 354.559 83.965C354.429 84.085 354.224 84.145 353.944 84.145H351.964L354.739 78.115L348.469 63.805H350.779C351.009 63.805 351.189 63.865 351.319 63.985C351.459 64.095 351.554 64.22 351.604 64.36L355.669 73.93C355.829 74.35 355.964 74.79 356.074 75.25C356.214 74.78 356.364 74.335 356.524 73.915L360.469 64.36C360.529 64.2 360.629 64.07 360.769 63.97C360.919 63.86 361.084 63.805 361.264 63.805H363.379Z" fill="black"/>
</svg>
