<?xml version="1.0" encoding="UTF-8"?>
<svg viewBox="0 0 600 91" xmlns="http://www.w3.org/2000/svg">
<circle cx="25" cy="27" r="25" fill="#F66700"/>
<path d="m28.261 33.508c0 1.032 0.192 1.752 0.576 2.16 0.384 0.384 1.056 0.576 2.016 0.576v0.756c-2.592-0.096-4.248-0.144-4.968-0.144-0.792 0-2.52 0.036-5.184 0.108l-1.008 0.036v-0.756c1.128 0 1.968-0.216 2.52-0.648 0.576-0.432 0.864-1.2 0.864-2.304v-8.784c0-1.152-0.108-1.992-0.324-2.52-0.192-0.552-0.528-0.912-1.008-1.08-0.48-0.192-1.212-0.288-2.196-0.288v-0.792c2.088-0.048 3.804-0.204 5.148-0.468 1.344-0.288 2.532-0.744 3.564-1.368v15.516z" fill="#fff"/>
<path d="m110.6 12.505l-6.705 21.495h-2.61l-5.445-16.395c-0.05-0.16-0.1-0.33-0.15-0.51-0.04-0.18-0.085-0.37-0.135-0.57-0.05 0.2-0.1 0.39-0.15 0.57s-0.1 0.35-0.15 0.51l-5.475 16.395h-2.61l-6.705-21.495h2.415c0.26 0 0.475 0.065 0.645 0.195 0.18 0.13 0.295 0.295 0.345 0.495l4.44 14.94c0.07 0.27 0.135 0.56 0.195 0.87 0.07 0.31 0.135 0.64 0.195 0.99 0.07-0.35 0.14-0.68 0.21-0.99 0.08-0.32 0.165-0.61 0.255-0.87l5.055-14.94c0.06-0.17 0.175-0.325 0.345-0.465 0.18-0.15 0.395-0.225 0.645-0.225h0.84c0.26 0 0.47 0.065 0.63 0.195s0.28 0.295 0.36 0.495l5.04 14.94c0.09 0.26 0.17 0.54 0.24 0.84 0.08 0.3 0.155 0.615 0.225 0.945 0.05-0.33 0.105-0.645 0.165-0.945s0.125-0.58 0.195-0.84l4.455-14.94c0.05-0.18 0.16-0.34 0.33-0.48 0.18-0.14 0.395-0.21 0.645-0.21h2.265zm5.273 6.3v15.195h-2.67v-15.195h2.67zm0.57-4.77c0 0.26-0.055 0.505-0.165 0.735-0.1 0.22-0.24 0.42-0.42 0.6-0.17 0.17-0.375 0.305-0.615 0.405-0.231 0.1-0.475 0.15-0.735 0.15s-0.505-0.05-0.735-0.15c-0.22-0.1-0.415-0.235-0.585-0.405-0.17-0.18-0.305-0.38-0.405-0.6-0.1-0.23-0.15-0.475-0.15-0.735s0.05-0.505 0.15-0.735c0.1-0.24 0.235-0.445 0.405-0.615 0.17-0.18 0.365-0.32 0.585-0.42 0.23-0.1 0.475-0.15 0.735-0.15s0.504 0.05 0.735 0.15c0.24 0.1 0.445 0.24 0.615 0.42 0.18 0.17 0.32 0.375 0.42 0.615 0.11 0.23 0.165 0.475 0.165 0.735zm6.337 6.975c0.33-0.37 0.68-0.705 1.05-1.005s0.76-0.555 1.17-0.765c0.42-0.22 0.86-0.385 1.32-0.495 0.47-0.12 0.975-0.18 1.515-0.18 0.83 0 1.56 0.14 2.19 0.42 0.64 0.27 1.17 0.66 1.59 1.17 0.43 0.5 0.755 1.105 0.975 1.815s0.33 1.495 0.33 2.355v9.675h-2.685v-9.675c0-1.15-0.265-2.04-0.795-2.67-0.52-0.64-1.315-0.96-2.385-0.96-0.79 0-1.53 0.19-2.22 0.57-0.68 0.38-1.31 0.895-1.89 1.545v11.19h-2.685v-15.195h1.605c0.38 0 0.615 0.185 0.705 0.555l0.21 1.65zm24.108 1.41c-0.5-0.67-1.04-1.135-1.62-1.395-0.58-0.27-1.23-0.405-1.95-0.405-1.41 0-2.495 0.505-3.255 1.515s-1.14 2.45-1.14 4.32c0 0.99 0.085 1.84 0.255 2.55 0.17 0.7 0.42 1.28 0.75 1.74 0.33 0.45 0.735 0.78 1.215 0.99s1.025 0.315 1.635 0.315c0.88 0 1.645-0.2 2.295-0.6 0.66-0.4 1.265-0.965 1.815-1.695v-7.335zm2.67-10.515v22.095h-1.59c-0.38 0-0.62-0.185-0.72-0.555l-0.24-1.845c-0.65 0.78-1.39 1.41-2.22 1.89s-1.79 0.72-2.88 0.72c-0.87 0-1.66-0.165-2.37-0.495-0.71-0.34-1.315-0.835-1.815-1.485s-0.885-1.46-1.155-2.43-0.405-2.085-0.405-3.345c0-1.12 0.15-2.16 0.45-3.12 0.3-0.97 0.73-1.81 1.29-2.52s1.245-1.265 2.055-1.665c0.82-0.41 1.74-0.615 2.76-0.615 0.93 0 1.725 0.16 2.385 0.48 0.67 0.31 1.265 0.745 1.785 1.305v-8.415h2.67zm10.622 6.66c1.11 0 2.11 0.185 3 0.555s1.65 0.895 2.28 1.575 1.11 1.505 1.44 2.475c0.34 0.96 0.51 2.035 0.51 3.225 0 1.2-0.17 2.28-0.51 3.24-0.33 0.96-0.81 1.78-1.44 2.46s-1.39 1.205-2.28 1.575c-0.89 0.36-1.89 0.54-3 0.54-1.12 0-2.13-0.18-3.03-0.54-0.89-0.37-1.65-0.895-2.28-1.575s-1.115-1.5-1.455-2.46c-0.33-0.96-0.495-2.04-0.495-3.24 0-1.19 0.165-2.265 0.495-3.225 0.34-0.97 0.825-1.795 1.455-2.475s1.39-1.205 2.28-1.575c0.9-0.37 1.91-0.555 3.03-0.555zm0 13.56c1.5 0 2.62-0.5 3.36-1.5 0.74-1.01 1.11-2.415 1.11-4.215 0-1.81-0.37-3.22-1.11-4.23s-1.86-1.515-3.36-1.515c-0.76 0-1.425 0.13-1.995 0.39-0.56 0.26-1.03 0.635-1.41 1.125-0.37 0.49-0.65 1.095-0.84 1.815-0.18 0.71-0.27 1.515-0.27 2.415 0 1.8 0.37 3.205 1.11 4.215 0.75 1 1.885 1.5 3.405 1.5zm31.337-13.32l-4.92 15.195h-2.115c-0.26 0-0.44-0.17-0.54-0.51l-3.36-10.305c-0.08-0.23-0.145-0.46-0.195-0.69-0.05-0.24-0.1-0.475-0.15-0.705-0.05 0.23-0.1 0.465-0.15 0.705-0.05 0.23-0.115 0.465-0.195 0.705l-3.42 10.29c-0.09 0.34-0.29 0.51-0.6 0.51h-2.01l-4.92-15.195h2.1c0.21 0 0.385 0.055 0.525 0.165 0.15 0.11 0.25 0.24 0.3 0.39l2.91 9.78c0.17 0.72 0.305 1.4 0.405 2.04 0.09-0.33 0.18-0.665 0.27-1.005 0.1-0.34 0.205-0.685 0.315-1.035l3.21-9.84c0.05-0.15 0.135-0.275 0.255-0.375 0.13-0.1 0.285-0.15 0.465-0.15h1.17c0.2 0 0.365 0.05 0.495 0.15s0.22 0.225 0.27 0.375l3.135 9.84c0.11 0.35 0.21 0.695 0.3 1.035s0.175 0.675 0.255 1.005c0.05-0.33 0.11-0.66 0.18-0.99 0.08-0.34 0.165-0.69 0.255-1.05l2.97-9.78c0.05-0.16 0.145-0.29 0.285-0.39 0.14-0.11 0.305-0.165 0.495-0.165h2.01zm14.326 15.435c-1.2 0-2.125-0.335-2.775-1.005-0.64-0.67-0.96-1.635-0.96-2.895v-9.3h-1.83c-0.16 0-0.295-0.045-0.405-0.135-0.11-0.1-0.165-0.25-0.165-0.45v-1.065l2.49-0.315 0.614-4.695c0.031-0.15 0.096-0.27 0.196-0.36 0.11-0.1 0.25-0.15 0.42-0.15h1.35v5.235h4.395v1.935h-4.395v9.12c0 0.64 0.155 1.115 0.465 1.425s0.71 0.465 1.2 0.465c0.28 0 0.52-0.035 0.72-0.105 0.21-0.08 0.39-0.165 0.54-0.255s0.275-0.17 0.375-0.24c0.11-0.08 0.205-0.12 0.285-0.12 0.14 0 0.265 0.085 0.375 0.255l0.78 1.275c-0.46 0.43-1.015 0.77-1.665 1.02-0.65 0.24-1.32 0.36-2.01 0.36zm12.404-15.675c1.11 0 2.11 0.185 3 0.555s1.65 0.895 2.28 1.575 1.11 1.505 1.44 2.475c0.34 0.96 0.51 2.035 0.51 3.225 0 1.2-0.17 2.28-0.51 3.24-0.33 0.96-0.81 1.78-1.44 2.46s-1.39 1.205-2.28 1.575c-0.89 0.36-1.89 0.54-3 0.54-1.12 0-2.13-0.18-3.03-0.54-0.89-0.37-1.65-0.895-2.28-1.575s-1.115-1.5-1.455-2.46c-0.33-0.96-0.495-2.04-0.495-3.24 0-1.19 0.165-2.265 0.495-3.225 0.34-0.97 0.825-1.795 1.455-2.475s1.39-1.205 2.28-1.575c0.9-0.37 1.91-0.555 3.03-0.555zm0 13.56c1.5 0 2.62-0.5 3.36-1.5 0.74-1.01 1.11-2.415 1.11-4.215 0-1.81-0.37-3.22-1.11-4.23s-1.86-1.515-3.36-1.515c-0.76 0-1.425 0.13-1.995 0.39-0.56 0.26-1.03 0.635-1.41 1.125-0.37 0.49-0.65 1.095-0.84 1.815-0.18 0.71-0.27 1.515-0.27 2.415 0 1.8 0.37 3.205 1.11 4.215 0.75 1 1.885 1.5 3.405 1.5zm27.142-10.815c-0.12 0.22-0.305 0.33-0.555 0.33-0.15 0-0.32-0.055-0.51-0.165s-0.425-0.23-0.705-0.36c-0.27-0.14-0.595-0.265-0.975-0.375-0.38-0.12-0.83-0.18-1.35-0.18-0.45 0-0.855 0.06-1.215 0.18-0.36 0.11-0.67 0.265-0.93 0.465-0.25 0.2-0.445 0.435-0.585 0.705-0.13 0.26-0.195 0.545-0.195 0.855 0 0.39 0.11 0.715 0.33 0.975 0.23 0.26 0.53 0.485 0.9 0.675s0.79 0.36 1.26 0.51c0.47 0.14 0.95 0.295 1.44 0.465 0.5 0.16 0.985 0.34 1.455 0.54s0.89 0.45 1.26 0.75 0.665 0.67 0.885 1.11c0.23 0.43 0.345 0.95 0.345 1.56 0 0.7-0.125 1.35-0.375 1.95-0.25 0.59-0.62 1.105-1.11 1.545-0.49 0.43-1.09 0.77-1.8 1.02s-1.53 0.375-2.46 0.375c-1.06 0-2.02-0.17-2.88-0.51-0.86-0.35-1.59-0.795-2.19-1.335l0.63-1.02c0.08-0.13 0.175-0.23 0.285-0.3s0.25-0.105 0.42-0.105c0.18 0 0.37 0.07 0.57 0.21s0.44 0.295 0.72 0.465c0.29 0.17 0.64 0.325 1.05 0.465s0.92 0.21 1.53 0.21c0.52 0 0.975-0.065 1.365-0.195 0.39-0.14 0.715-0.325 0.975-0.555s0.45-0.495 0.57-0.795c0.13-0.3 0.195-0.62 0.195-0.96 0-0.42-0.115-0.765-0.345-1.035-0.22-0.28-0.515-0.515-0.885-0.705-0.37-0.2-0.795-0.37-1.275-0.51-0.47-0.15-0.955-0.305-1.455-0.465-0.49-0.16-0.975-0.34-1.455-0.54-0.47-0.21-0.89-0.47-1.26-0.78s-0.67-0.69-0.9-1.14c-0.22-0.46-0.33-1.015-0.33-1.665 0-0.58 0.12-1.135 0.36-1.665 0.24-0.54 0.59-1.01 1.05-1.41 0.46-0.41 1.025-0.735 1.695-0.975s1.435-0.36 2.295-0.36c1 0 1.895 0.16 2.685 0.48 0.8 0.31 1.49 0.74 2.07 1.29l-0.6 0.975zm6.813-0.48c0.65-0.69 1.37-1.24 2.16-1.65s1.7-0.615 2.73-0.615c0.83 0 1.56 0.14 2.19 0.42 0.64 0.27 1.17 0.66 1.59 1.17 0.43 0.5 0.755 1.105 0.975 1.815s0.33 1.495 0.33 2.355v9.675h-2.685v-9.675c0-1.15-0.265-2.04-0.795-2.67-0.52-0.64-1.315-0.96-2.385-0.96-0.79 0-1.53 0.19-2.22 0.57-0.68 0.38-1.31 0.895-1.89 1.545v11.19h-2.685v-22.095h2.685v8.925zm20.449-2.265c1.11 0 2.11 0.185 3 0.555s1.65 0.895 2.28 1.575 1.11 1.505 1.44 2.475c0.34 0.96 0.51 2.035 0.51 3.225 0 1.2-0.17 2.28-0.51 3.24-0.33 0.96-0.81 1.78-1.44 2.46s-1.39 1.205-2.28 1.575c-0.89 0.36-1.89 0.54-3 0.54-1.12 0-2.13-0.18-3.03-0.54-0.89-0.37-1.65-0.895-2.28-1.575s-1.115-1.5-1.455-2.46c-0.33-0.96-0.495-2.04-0.495-3.24 0-1.19 0.165-2.265 0.495-3.225 0.34-0.97 0.825-1.795 1.455-2.475s1.39-1.205 2.28-1.575c0.9-0.37 1.91-0.555 3.03-0.555zm0 13.56c1.5 0 2.62-0.5 3.36-1.5 0.74-1.01 1.11-2.415 1.11-4.215 0-1.81-0.37-3.22-1.11-4.23s-1.86-1.515-3.36-1.515c-0.76 0-1.425 0.13-1.995 0.39-0.56 0.26-1.03 0.635-1.41 1.125-0.37 0.49-0.65 1.095-0.84 1.815-0.18 0.71-0.27 1.515-0.27 2.415 0 1.8 0.37 3.205 1.11 4.215 0.75 1 1.885 1.5 3.405 1.5zm31.337-13.32l-4.92 15.195h-2.115c-0.26 0-0.44-0.17-0.54-0.51l-3.36-10.305c-0.08-0.23-0.145-0.46-0.195-0.69-0.05-0.24-0.1-0.475-0.15-0.705-0.05 0.23-0.1 0.465-0.15 0.705-0.05 0.23-0.115 0.465-0.195 0.705l-3.42 10.29c-0.09 0.34-0.29 0.51-0.6 0.51h-2.01l-4.92-15.195h2.1c0.21 0 0.385 0.055 0.525 0.165 0.15 0.11 0.25 0.24 0.3 0.39l2.91 9.78c0.17 0.72 0.305 1.4 0.405 2.04 0.09-0.33 0.18-0.665 0.27-1.005 0.1-0.34 0.205-0.685 0.315-1.035l3.21-9.84c0.05-0.15 0.135-0.275 0.255-0.375 0.13-0.1 0.285-0.15 0.465-0.15h1.17c0.2 0 0.365 0.05 0.495 0.15s0.22 0.225 0.27 0.375l3.135 9.84c0.11 0.35 0.21 0.695 0.3 1.035s0.175 0.675 0.255 1.005c0.05-0.33 0.11-0.66 0.18-0.99 0.08-0.34 0.165-0.69 0.255-1.05l2.97-9.78c0.05-0.16 0.145-0.29 0.285-0.39 0.14-0.11 0.305-0.165 0.495-0.165h2.01zm14.325 15.435c-1.2 0-2.125-0.335-2.775-1.005-0.64-0.67-0.96-1.635-0.96-2.895v-9.3h-1.83c-0.16 0-0.295-0.045-0.405-0.135-0.11-0.1-0.165-0.25-0.165-0.45v-1.065l2.49-0.315 0.615-4.695c0.03-0.15 0.095-0.27 0.195-0.36 0.11-0.1 0.25-0.15 0.42-0.15h1.35v5.235h4.395v1.935h-4.395v9.12c0 0.64 0.155 1.115 0.465 1.425s0.71 0.465 1.2 0.465c0.28 0 0.52-0.035 0.72-0.105 0.21-0.08 0.39-0.165 0.54-0.255s0.275-0.17 0.375-0.24c0.11-0.08 0.205-0.12 0.285-0.12 0.14 0 0.265 0.085 0.375 0.255l0.78 1.275c-0.46 0.43-1.015 0.77-1.665 1.02-0.65 0.24-1.32 0.36-2.01 0.36zm8.772-13.41c0.65-0.69 1.37-1.24 2.16-1.65s1.7-0.615 2.73-0.615c0.83 0 1.56 0.14 2.19 0.42 0.64 0.27 1.17 0.66 1.59 1.17 0.43 0.5 0.755 1.105 0.975 1.815s0.33 1.495 0.33 2.355v9.675h-2.685v-9.675c0-1.15-0.265-2.04-0.795-2.67-0.52-0.64-1.315-0.96-2.385-0.96-0.79 0-1.53 0.19-2.22 0.57-0.68 0.38-1.31 0.895-1.89 1.545v11.19h-2.685v-22.095h2.685v8.925zm24.214 3.915c0-0.62-0.09-1.185-0.27-1.695-0.17-0.52-0.425-0.965-0.765-1.335-0.33-0.38-0.735-0.67-1.215-0.87-0.48-0.21-1.025-0.315-1.635-0.315-1.28 0-2.295 0.375-3.045 1.125-0.74 0.74-1.2 1.77-1.38 3.09h8.31zm2.16 7.125c-0.33 0.4-0.725 0.75-1.185 1.05-0.46 0.29-0.955 0.53-1.485 0.72-0.52 0.19-1.06 0.33-1.62 0.42-0.56 0.1-1.115 0.15-1.665 0.15-1.05 0-2.02-0.175-2.91-0.525-0.88-0.36-1.645-0.88-2.295-1.56-0.64-0.69-1.14-1.54-1.5-2.55s-0.54-2.17-0.54-3.48c0-1.06 0.16-2.05 0.48-2.97 0.33-0.92 0.8-1.715 1.41-2.385 0.61-0.68 1.355-1.21 2.235-1.59 0.88-0.39 1.87-0.585 2.97-0.585 0.91 0 1.75 0.155 2.52 0.465 0.78 0.3 1.45 0.74 2.01 1.32 0.57 0.57 1.015 1.28 1.335 2.13 0.32 0.84 0.48 1.8 0.48 2.88 0 0.42-0.045 0.7-0.135 0.84s-0.26 0.21-0.51 0.21h-10.155c0.03 0.96 0.16 1.795 0.39 2.505 0.24 0.71 0.57 1.305 0.99 1.785 0.42 0.47 0.92 0.825 1.5 1.065 0.58 0.23 1.23 0.345 1.95 0.345 0.67 0 1.245-0.075 1.725-0.225 0.49-0.16 0.91-0.33 1.26-0.51s0.64-0.345 0.87-0.495c0.24-0.16 0.445-0.24 0.615-0.24 0.22 0 0.39 0.085 0.51 0.255l0.75 0.975zm15.86 2.37c-1.2 0-2.125-0.335-2.775-1.005-0.64-0.67-0.96-1.635-0.96-2.895v-9.3h-1.83c-0.16 0-0.295-0.045-0.405-0.135-0.11-0.1-0.165-0.25-0.165-0.45v-1.065l2.49-0.315 0.615-4.695c0.03-0.15 0.095-0.27 0.195-0.36 0.11-0.1 0.25-0.15 0.42-0.15h1.35v5.235h4.395v1.935h-4.395v9.12c0 0.64 0.155 1.115 0.465 1.425s0.71 0.465 1.2 0.465c0.28 0 0.52-0.035 0.72-0.105 0.21-0.08 0.39-0.165 0.54-0.255s0.275-0.17 0.375-0.24c0.11-0.08 0.205-0.12 0.285-0.12 0.14 0 0.265 0.085 0.375 0.255l0.78 1.275c-0.46 0.43-1.015 0.77-1.665 1.02-0.65 0.24-1.32 0.36-2.01 0.36zm14.322-7.08c-1.23 0.04-2.28 0.14-3.15 0.3-0.86 0.15-1.565 0.35-2.115 0.6-0.54 0.25-0.935 0.545-1.185 0.885-0.24 0.34-0.36 0.72-0.36 1.14 0 0.4 0.065 0.745 0.195 1.035s0.305 0.53 0.525 0.72c0.23 0.18 0.495 0.315 0.795 0.405 0.31 0.08 0.64 0.12 0.99 0.12 0.47 0 0.9-0.045 1.29-0.135 0.39-0.1 0.755-0.24 1.095-0.42 0.35-0.18 0.68-0.395 0.99-0.645 0.32-0.25 0.63-0.535 0.93-0.855v-3.15zm-8.625-6.21c0.84-0.81 1.745-1.415 2.715-1.815s2.045-0.6 3.225-0.6c0.85 0 1.605 0.14 2.265 0.42s1.215 0.67 1.665 1.17 0.79 1.105 1.02 1.815 0.345 1.49 0.345 2.34v9.72h-1.185c-0.26 0-0.46-0.04-0.6-0.12-0.14-0.09-0.25-0.26-0.33-0.51l-0.3-1.44c-0.4 0.37-0.79 0.7-1.17 0.99-0.38 0.28-0.78 0.52-1.2 0.72-0.42 0.19-0.87 0.335-1.35 0.435-0.47 0.11-0.995 0.165-1.575 0.165-0.59 0-1.145-0.08-1.665-0.24-0.52-0.17-0.975-0.42-1.365-0.75-0.38-0.33-0.685-0.745-0.915-1.245-0.22-0.51-0.33-1.11-0.33-1.8 0-0.6 0.165-1.175 0.495-1.725 0.33-0.56 0.865-1.055 1.605-1.485s1.705-0.78 2.895-1.05c1.19-0.28 2.65-0.44 4.38-0.48v-1.185c0-1.18-0.255-2.07-0.765-2.67-0.51-0.61-1.255-0.915-2.235-0.915-0.66 0-1.215 0.085-1.665 0.255-0.44 0.16-0.825 0.345-1.155 0.555-0.32 0.2-0.6 0.385-0.84 0.555-0.23 0.16-0.46 0.24-0.69 0.24-0.18 0-0.335-0.045-0.465-0.135-0.13-0.1-0.24-0.22-0.33-0.36l-0.48-0.855zm24.152 0.36c-0.12 0.22-0.305 0.33-0.555 0.33-0.15 0-0.32-0.055-0.51-0.165s-0.425-0.23-0.705-0.36c-0.27-0.14-0.595-0.265-0.975-0.375-0.38-0.12-0.83-0.18-1.35-0.18-0.45 0-0.855 0.06-1.215 0.18-0.36 0.11-0.67 0.265-0.93 0.465-0.25 0.2-0.445 0.435-0.585 0.705-0.13 0.26-0.195 0.545-0.195 0.855 0 0.39 0.11 0.715 0.33 0.975 0.23 0.26 0.53 0.485 0.9 0.675s0.79 0.36 1.26 0.51c0.47 0.14 0.95 0.295 1.44 0.465 0.5 0.16 0.985 0.34 1.455 0.54s0.89 0.45 1.26 0.75 0.665 0.67 0.885 1.11c0.23 0.43 0.345 0.95 0.345 1.56 0 0.7-0.125 1.35-0.375 1.95-0.25 0.59-0.62 1.105-1.11 1.545-0.49 0.43-1.09 0.77-1.8 1.02s-1.53 0.375-2.46 0.375c-1.06 0-2.02-0.17-2.88-0.51-0.86-0.35-1.59-0.795-2.19-1.335l0.63-1.02c0.08-0.13 0.175-0.23 0.285-0.3s0.25-0.105 0.42-0.105c0.18 0 0.37 0.07 0.57 0.21s0.44 0.295 0.72 0.465c0.29 0.17 0.64 0.325 1.05 0.465s0.92 0.21 1.53 0.21c0.52 0 0.975-0.065 1.365-0.195 0.39-0.14 0.715-0.325 0.975-0.555s0.45-0.495 0.57-0.795c0.13-0.3 0.195-0.62 0.195-0.96 0-0.42-0.115-0.765-0.345-1.035-0.22-0.28-0.515-0.515-0.885-0.705-0.37-0.2-0.795-0.37-1.275-0.51-0.47-0.15-0.955-0.305-1.455-0.465-0.49-0.16-0.975-0.34-1.455-0.54-0.47-0.21-0.89-0.47-1.26-0.78s-0.67-0.69-0.9-1.14c-0.22-0.46-0.33-1.015-0.33-1.665 0-0.58 0.12-1.135 0.36-1.665 0.24-0.54 0.59-1.01 1.05-1.41 0.46-0.41 1.025-0.735 1.695-0.975s1.435-0.36 2.295-0.36c1 0 1.895 0.16 2.685 0.48 0.8 0.31 1.49 0.74 2.07 1.29l-0.6 0.975zm6.814-9.405v13.005h0.69c0.2 0 0.365-0.025 0.495-0.075 0.14-0.06 0.285-0.175 0.435-0.345l4.8-5.145c0.14-0.17 0.285-0.3 0.435-0.39 0.16-0.1 0.37-0.15 0.63-0.15h2.415l-5.595 5.955c-0.27 0.34-0.56 0.605-0.87 0.795 0.18 0.12 0.34 0.26 0.48 0.42 0.15 0.15 0.29 0.325 0.42 0.525l5.94 7.5h-2.385c-0.23 0-0.43-0.035-0.6-0.105-0.16-0.08-0.3-0.22-0.42-0.42l-4.995-6.225c-0.15-0.21-0.3-0.345-0.45-0.405-0.14-0.07-0.36-0.105-0.66-0.105h-0.765v7.26h-2.685v-22.095h2.685zm21.399 9.405c-0.12 0.22-0.305 0.33-0.555 0.33-0.15 0-0.32-0.055-0.51-0.165s-0.425-0.23-0.705-0.36c-0.27-0.14-0.595-0.265-0.975-0.375-0.38-0.12-0.83-0.18-1.35-0.18-0.45 0-0.855 0.06-1.215 0.18-0.36 0.11-0.67 0.265-0.93 0.465-0.25 0.2-0.445 0.435-0.585 0.705-0.13 0.26-0.195 0.545-0.195 0.855 0 0.39 0.11 0.715 0.33 0.975 0.23 0.26 0.53 0.485 0.9 0.675s0.79 0.36 1.26 0.51c0.47 0.14 0.95 0.295 1.44 0.465 0.5 0.16 0.985 0.34 1.455 0.54s0.89 0.45 1.26 0.75 0.665 0.67 0.885 1.11c0.23 0.43 0.345 0.95 0.345 1.56 0 0.7-0.125 1.35-0.375 1.95-0.25 0.59-0.62 1.105-1.11 1.545-0.49 0.43-1.09 0.77-1.8 1.02s-1.53 0.375-2.46 0.375c-1.06 0-2.02-0.17-2.88-0.51-0.86-0.35-1.59-0.795-2.19-1.335l0.63-1.02c0.08-0.13 0.175-0.23 0.285-0.3s0.25-0.105 0.42-0.105c0.18 0 0.37 0.07 0.57 0.21s0.44 0.295 0.72 0.465c0.29 0.17 0.64 0.325 1.05 0.465s0.92 0.21 1.53 0.21c0.52 0 0.975-0.065 1.365-0.195 0.39-0.14 0.715-0.325 0.975-0.555s0.45-0.495 0.57-0.795c0.13-0.3 0.195-0.62 0.195-0.96 0-0.42-0.115-0.765-0.345-1.035-0.22-0.28-0.515-0.515-0.885-0.705-0.37-0.2-0.795-0.37-1.275-0.51-0.47-0.15-0.955-0.305-1.455-0.465-0.49-0.16-0.975-0.34-1.455-0.54-0.47-0.21-0.89-0.47-1.26-0.78s-0.67-0.69-0.9-1.14c-0.22-0.46-0.33-1.015-0.33-1.665 0-0.58 0.12-1.135 0.36-1.665 0.24-0.54 0.59-1.01 1.05-1.41 0.46-0.41 1.025-0.735 1.695-0.975s1.435-0.36 2.295-0.36c1 0 1.895 0.16 2.685 0.48 0.8 0.31 1.49 0.74 2.07 1.29l-0.6 0.975zm-336.42 45c-0.12 0.22-0.305 0.33-0.555 0.33-0.15 0-0.32-0.055-0.51-0.165s-0.425-0.23-0.705-0.36c-0.27-0.14-0.595-0.265-0.975-0.375-0.38-0.12-0.83-0.18-1.35-0.18-0.45 0-0.855 0.06-1.215 0.18-0.36 0.11-0.67 0.265-0.93 0.465-0.25 0.2-0.445 0.435-0.585 0.705-0.13 0.26-0.195 0.545-0.195 0.855 0 0.39 0.11 0.715 0.33 0.975 0.23 0.26 0.53 0.485 0.9 0.675s0.79 0.36 1.26 0.51c0.47 0.14 0.95 0.295 1.44 0.465 0.5 0.16 0.985 0.34 1.455 0.54s0.89 0.45 1.26 0.75 0.665 0.67 0.885 1.11c0.23 0.43 0.345 0.95 0.345 1.56 0 0.7-0.125 1.35-0.375 1.95-0.25 0.59-0.62 1.105-1.11 1.545-0.49 0.43-1.09 0.77-1.8 1.02s-1.53 0.375-2.46 0.375c-1.06 0-2.02-0.17-2.88-0.51-0.86-0.35-1.59-0.795-2.19-1.335l0.63-1.02c0.08-0.13 0.175-0.23 0.285-0.3s0.25-0.105 0.42-0.105c0.18 0 0.37 0.07 0.57 0.21s0.44 0.295 0.72 0.465c0.29 0.17 0.64 0.325 1.05 0.465s0.92 0.21 1.53 0.21c0.52 0 0.975-0.065 1.365-0.195 0.39-0.14 0.715-0.325 0.975-0.555s0.45-0.495 0.57-0.795c0.13-0.3 0.195-0.62 0.195-0.96 0-0.42-0.115-0.765-0.345-1.035-0.22-0.28-0.515-0.515-0.885-0.705-0.37-0.2-0.795-0.37-1.275-0.51-0.47-0.15-0.955-0.305-1.455-0.465-0.49-0.16-0.975-0.34-1.455-0.54-0.47-0.21-0.89-0.47-1.26-0.78s-0.67-0.69-0.9-1.14c-0.22-0.46-0.33-1.015-0.33-1.665 0-0.58 0.12-1.135 0.36-1.665 0.24-0.54 0.59-1.01 1.05-1.41 0.46-0.41 1.025-0.735 1.695-0.975s1.435-0.36 2.295-0.36c1 0 1.895 0.16 2.685 0.48 0.8 0.31 1.49 0.74 2.07 1.29l-0.6 0.975zm14.704 0.195c-0.08 0.11-0.16 0.195-0.24 0.255s-0.19 0.09-0.33 0.09c-0.15 0-0.315-0.06-0.495-0.18-0.18-0.13-0.405-0.27-0.675-0.42-0.26-0.15-0.585-0.285-0.975-0.405-0.38-0.13-0.85-0.195-1.41-0.195-0.75 0-1.41 0.135-1.9805 0.405-0.57 0.26-1.05 0.64-1.44 1.14-0.38 0.5-0.67 1.105-0.87 1.815-0.19 0.71-0.285 1.505-0.285 2.385 0 0.92 0.105 1.74 0.315 2.46 0.21 0.71 0.505 1.31 0.885 1.8 0.39 0.48 0.855 0.85 1.395 1.11 0.5505 0.25 1.1655 0.375 1.8455 0.375 0.65 0 1.185-0.075 1.605-0.225 0.42-0.16 0.765-0.335 1.035-0.525 0.28-0.19 0.51-0.36 0.69-0.51 0.19-0.16 0.375-0.24 0.555-0.24 0.22 0 0.39 0.085 0.51 0.255l0.75 0.975c-0.33 0.41-0.705 0.76-1.125 1.05s-0.875 0.535-1.365 0.735c-0.48 0.19-0.985 0.33-1.515 0.42s-1.07 0.135-1.62 0.135c-0.9505 0-1.8355-0.175-2.6555-0.525-0.81-0.35-1.515-0.855-2.115-1.515-0.6-0.67-1.07-1.49-1.41-2.46s-0.51-2.075-0.51-3.315c0-1.13 0.155-2.175 0.465-3.135 0.32-0.96 0.78-1.785 1.38-2.475 0.61-0.7 1.355-1.245 2.235-1.635 0.89-0.39 1.9105-0.585 3.0605-0.585 1.07 0 2.01 0.175 2.82 0.525 0.82 0.34 1.545 0.825 2.175 1.455l-0.705 0.96zm6.436-0.675c0.65-0.69 1.37-1.24 2.16-1.65s1.7-0.615 2.73-0.615c0.83 0 1.56 0.14 2.19 0.42 0.64 0.27 1.17 0.66 1.59 1.17 0.43 0.5 0.755 1.105 0.975 1.815s0.33 1.495 0.33 2.355v9.675h-2.685v-9.675c0-1.15-0.265-2.04-0.795-2.67-0.52-0.64-1.315-0.96-2.385-0.96-0.79 0-1.53 0.19-2.22 0.57-0.68 0.38-1.31 0.895-1.89 1.545v11.19h-2.685v-22.095h2.685v8.925zm24.213 3.915c0-0.62-0.09-1.185-0.27-1.695-0.17-0.52-0.425-0.965-0.765-1.335-0.33-0.38-0.735-0.67-1.215-0.87-0.48-0.21-1.025-0.315-1.635-0.315-1.28 0-2.295 0.375-3.045 1.125-0.74 0.74-1.2 1.77-1.38 3.09h8.31zm2.16 7.125c-0.33 0.4-0.725 0.75-1.185 1.05-0.46 0.29-0.955 0.53-1.485 0.72-0.52 0.19-1.06 0.33-1.62 0.42-0.56 0.1-1.115 0.15-1.665 0.15-1.05 0-2.02-0.175-2.91-0.525-0.88-0.36-1.645-0.88-2.295-1.56-0.64-0.69-1.14-1.54-1.5-2.55s-0.54-2.17-0.54-3.48c0-1.06 0.16-2.05 0.48-2.97 0.33-0.92 0.8-1.715 1.41-2.385 0.61-0.68 1.355-1.21 2.235-1.59 0.88-0.39 1.87-0.585 2.97-0.585 0.91 0 1.75 0.155 2.52 0.465 0.78 0.3 1.45 0.74 2.01 1.32 0.57 0.57 1.015 1.28 1.335 2.13 0.32 0.84 0.48 1.8 0.48 2.88 0 0.42-0.045 0.7-0.135 0.84s-0.26 0.21-0.51 0.21h-10.155c0.03 0.96 0.16 1.795 0.39 2.505 0.24 0.71 0.57 1.305 0.99 1.785 0.42 0.47 0.92 0.825 1.5 1.065 0.58 0.23 1.23 0.345 1.95 0.345 0.67 0 1.245-0.075 1.725-0.225 0.49-0.16 0.91-0.33 1.26-0.51s0.64-0.345 0.87-0.495c0.24-0.16 0.445-0.24 0.615-0.24 0.22 0 0.39 0.085 0.51 0.255l0.75 0.975zm13.42-9.45c-0.5-0.67-1.04-1.135-1.62-1.395-0.58-0.27-1.23-0.405-1.95-0.405-1.41 0-2.495 0.505-3.255 1.515s-1.14 2.45-1.14 4.32c0 0.99 0.085 1.84 0.255 2.55 0.17 0.7 0.42 1.28 0.75 1.74 0.33 0.45 0.735 0.78 1.215 0.99s1.025 0.315 1.635 0.315c0.88 0 1.645-0.2 2.295-0.6 0.66-0.4 1.265-0.965 1.815-1.695v-7.335zm2.67-10.515v22.095h-1.59c-0.38 0-0.62-0.185-0.72-0.555l-0.24-1.845c-0.65 0.78-1.39 1.41-2.22 1.89s-1.79 0.72-2.88 0.72c-0.87 0-1.66-0.165-2.37-0.495-0.71-0.34-1.315-0.835-1.815-1.485s-0.885-1.46-1.155-2.43-0.405-2.085-0.405-3.345c0-1.12 0.15-2.16 0.45-3.12 0.3-0.97 0.73-1.81 1.29-2.52s1.245-1.265 2.055-1.665c0.82-0.41 1.74-0.615 2.76-0.615 0.93 0 1.725 0.16 2.385 0.48 0.67 0.31 1.265 0.745 1.785 1.305v-8.415h2.67zm16.712 6.9v15.195h-1.59c-0.38 0-0.62-0.185-0.72-0.555l-0.21-1.635c-0.66 0.73-1.4 1.32-2.22 1.77-0.82 0.44-1.76 0.66-2.82 0.66-0.83 0-1.565-0.135-2.205-0.405-0.63-0.28-1.16-0.67-1.59-1.17s-0.755-1.105-0.975-1.815c-0.21-0.71-0.315-1.495-0.315-2.355v-9.69h2.67v9.69c0 1.15 0.26 2.04 0.78 2.67 0.53 0.63 1.335 0.945 2.415 0.945 0.79 0 1.525-0.185 2.205-0.555 0.69-0.38 1.325-0.9 1.905-1.56v-11.19h2.67zm6.993-6.9v22.095h-2.67v-22.095h2.67zm14.5 12.84c0-0.62-0.09-1.185-0.27-1.695-0.17-0.52-0.425-0.965-0.765-1.335-0.33-0.38-0.735-0.67-1.215-0.87-0.48-0.21-1.025-0.315-1.635-0.315-1.28 0-2.295 0.375-3.045 1.125-0.74 0.74-1.2 1.77-1.38 3.09h8.31zm2.16 7.125c-0.33 0.4-0.725 0.75-1.185 1.05-0.46 0.29-0.955 0.53-1.485 0.72-0.52 0.19-1.06 0.33-1.62 0.42-0.56 0.1-1.115 0.15-1.665 0.15-1.05 0-2.02-0.175-2.91-0.525-0.88-0.36-1.645-0.88-2.295-1.56-0.64-0.69-1.14-1.54-1.5-2.55s-0.54-2.17-0.54-3.48c0-1.06 0.16-2.05 0.48-2.97 0.33-0.92 0.8-1.715 1.41-2.385 0.61-0.68 1.355-1.21 2.235-1.59 0.88-0.39 1.87-0.585 2.97-0.585 0.91 0 1.75 0.155 2.52 0.465 0.78 0.3 1.45 0.74 2.01 1.32 0.57 0.57 1.015 1.28 1.335 2.13 0.32 0.84 0.48 1.8 0.48 2.88 0 0.42-0.045 0.7-0.135 0.84s-0.26 0.21-0.51 0.21h-10.155c0.03 0.96 0.16 1.795 0.39 2.505 0.24 0.71 0.57 1.305 0.99 1.785 0.42 0.47 0.92 0.825 1.5 1.065 0.58 0.23 1.23 0.345 1.95 0.345 0.67 0 1.245-0.075 1.725-0.225 0.49-0.16 0.91-0.33 1.26-0.51s0.64-0.345 0.87-0.495c0.24-0.16 0.445-0.24 0.615-0.24 0.22 0 0.39 0.085 0.51 0.255l0.75 0.975zm13.42-9.45c-0.5-0.67-1.04-1.135-1.62-1.395-0.58-0.27-1.23-0.405-1.95-0.405-1.41 0-2.495 0.505-3.255 1.515s-1.14 2.45-1.14 4.32c0 0.99 0.085 1.84 0.255 2.55 0.17 0.7 0.42 1.28 0.75 1.74 0.33 0.45 0.735 0.78 1.215 0.99s1.025 0.315 1.635 0.315c0.88 0 1.645-0.2 2.295-0.6 0.66-0.4 1.265-0.965 1.815-1.695v-7.335zm2.67-10.515v22.095h-1.59c-0.38 0-0.62-0.185-0.72-0.555l-0.24-1.845c-0.65 0.78-1.39 1.41-2.22 1.89s-1.79 0.72-2.88 0.72c-0.87 0-1.66-0.165-2.37-0.495-0.71-0.34-1.315-0.835-1.815-1.485s-0.885-1.46-1.155-2.43-0.405-2.085-0.405-3.345c0-1.12 0.15-2.16 0.45-3.12 0.3-0.97 0.73-1.81 1.29-2.52s1.245-1.265 2.055-1.665c0.82-0.41 1.74-0.615 2.76-0.615 0.93 0 1.725 0.16 2.385 0.48 0.67 0.31 1.265 0.745 1.785 1.305v-8.415h2.67zm12.883 22.095v-12.915l-1.68-0.195c-0.21-0.05-0.385-0.125-0.525-0.225-0.13-0.11-0.195-0.265-0.195-0.465v-1.095h2.4v-1.47c0-0.87 0.12-1.64 0.36-2.31 0.25-0.68 0.6-1.25 1.05-1.71 0.46-0.47 1.01-0.825 1.65-1.065s1.36-0.36 2.16-0.36c0.68 0 1.305 0.1 1.875 0.3l-0.06 1.335c-0.02 0.24-0.155 0.37-0.405 0.39-0.24 0.02-0.565 0.03-0.975 0.03-0.46 0-0.88 0.06-1.26 0.18-0.37 0.12-0.69 0.315-0.96 0.585s-0.48 0.625-0.63 1.065c-0.14 0.44-0.21 0.985-0.21 1.635v1.395h4.38v1.935h-4.29v12.96h-2.685zm15.434-15.435c1.11 0 2.11 0.185 3 0.555s1.65 0.895 2.28 1.575 1.11 1.505 1.44 2.475c0.34 0.96 0.51 2.035 0.51 3.225 0 1.2-0.17 2.28-0.51 3.24-0.33 0.96-0.81 1.78-1.44 2.46s-1.39 1.205-2.28 1.575c-0.89 0.36-1.89 0.54-3 0.54-1.12 0-2.13-0.18-3.03-0.54-0.89-0.37-1.65-0.895-2.28-1.575s-1.115-1.5-1.455-2.46c-0.33-0.96-0.495-2.04-0.495-3.24 0-1.19 0.165-2.265 0.495-3.225 0.34-0.97 0.825-1.795 1.455-2.475s1.39-1.205 2.28-1.575c0.9-0.37 1.91-0.555 3.03-0.555zm0 13.56c1.5 0 2.62-0.5 3.36-1.5 0.74-1.01 1.11-2.415 1.11-4.215 0-1.81-0.37-3.22-1.11-4.23s-1.86-1.515-3.36-1.515c-0.76 0-1.425 0.13-1.995 0.39-0.56 0.26-1.03 0.635-1.41 1.125-0.37 0.49-0.65 1.095-0.84 1.815-0.18 0.71-0.27 1.515-0.27 2.415 0 1.8 0.37 3.205 1.11 4.215 0.75 1 1.885 1.5 3.405 1.5zm13.152-10.275c0.48-1.04 1.07-1.85 1.77-2.43 0.7-0.59 1.555-0.885 2.565-0.885 0.32 0 0.625 0.035 0.915 0.105 0.3 0.07 0.565 0.18 0.795 0.33l-0.195 1.995c-0.06 0.25-0.21 0.375-0.45 0.375-0.14 0-0.345-0.03-0.615-0.09s-0.575-0.09-0.915-0.09c-0.48 0-0.91 0.07-1.29 0.21-0.37 0.14-0.705 0.35-1.005 0.63-0.29 0.27-0.555 0.61-0.795 1.02-0.23 0.4-0.44 0.86-0.63 1.38v9.6h-2.685v-15.195h1.53c0.29 0 0.49 0.055 0.6 0.165s0.185 0.3 0.225 0.57l0.18 2.31zm20.089 12.39c-1.2 0-2.125-0.335-2.775-1.005-0.64-0.67-0.96-1.635-0.96-2.895v-9.3h-1.83c-0.16 0-0.295-0.045-0.405-0.135-0.11-0.1-0.165-0.25-0.165-0.45v-1.065l2.49-0.315 0.615-4.695c0.03-0.15 0.095-0.27 0.195-0.36 0.11-0.1 0.25-0.15 0.42-0.15h1.35v5.235h4.395v1.935h-4.395v9.12c0 0.64 0.155 1.115 0.465 1.425s0.71 0.465 1.2 0.465c0.28 0 0.52-0.035 0.72-0.105 0.21-0.08 0.39-0.165 0.54-0.255s0.275-0.17 0.375-0.24c0.11-0.08 0.205-0.12 0.285-0.12 0.14 0 0.265 0.085 0.375 0.255l0.78 1.275c-0.46 0.43-1.015 0.77-1.665 1.02-0.65 0.24-1.32 0.36-2.01 0.36zm8.772-13.41c0.65-0.69 1.37-1.24 2.16-1.65s1.7-0.615 2.73-0.615c0.83 0 1.56 0.14 2.19 0.42 0.64 0.27 1.17 0.66 1.59 1.17 0.43 0.5 0.755 1.105 0.975 1.815s0.33 1.495 0.33 2.355v9.675h-2.685v-9.675c0-1.15-0.265-2.04-0.795-2.67-0.52-0.64-1.315-0.96-2.385-0.96-0.79 0-1.53 0.19-2.22 0.57-0.68 0.38-1.31 0.895-1.89 1.545v11.19h-2.685v-22.095h2.685v8.925zm24.213 3.915c0-0.62-0.09-1.185-0.27-1.695-0.17-0.52-0.425-0.965-0.765-1.335-0.33-0.38-0.735-0.67-1.215-0.87-0.48-0.21-1.025-0.315-1.635-0.315-1.28 0-2.295 0.375-3.045 1.125-0.74 0.74-1.2 1.77-1.38 3.09h8.31zm2.16 7.125c-0.33 0.4-0.725 0.75-1.185 1.05-0.46 0.29-0.955 0.53-1.485 0.72-0.52 0.19-1.06 0.33-1.62 0.42-0.56 0.1-1.115 0.15-1.665 0.15-1.05 0-2.02-0.175-2.91-0.525-0.88-0.36-1.645-0.88-2.295-1.56-0.64-0.69-1.14-1.54-1.5-2.55s-0.54-2.17-0.54-3.48c0-1.06 0.16-2.05 0.48-2.97 0.33-0.92 0.8-1.715 1.41-2.385 0.61-0.68 1.355-1.21 2.235-1.59 0.88-0.39 1.87-0.585 2.97-0.585 0.91 0 1.75 0.155 2.52 0.465 0.78 0.3 1.45 0.74 2.01 1.32 0.57 0.57 1.015 1.28 1.335 2.13 0.32 0.84 0.48 1.8 0.48 2.88 0 0.42-0.045 0.7-0.135 0.84s-0.26 0.21-0.51 0.21h-10.155c0.03 0.96 0.16 1.795 0.39 2.505 0.24 0.71 0.57 1.305 0.99 1.785 0.42 0.47 0.92 0.825 1.5 1.065 0.58 0.23 1.23 0.345 1.95 0.345 0.67 0 1.245-0.075 1.725-0.225 0.49-0.16 0.91-0.33 1.26-0.51s0.64-0.345 0.87-0.495c0.24-0.16 0.445-0.24 0.615-0.24 0.22 0 0.39 0.085 0.51 0.255l0.75 0.975zm21.096-9.45c-0.5-0.67-1.04-1.135-1.62-1.395-0.58-0.27-1.23-0.405-1.95-0.405-1.41 0-2.495 0.505-3.255 1.515s-1.14 2.45-1.14 4.32c0 0.99 0.085 1.84 0.255 2.55 0.17 0.7 0.42 1.28 0.75 1.74 0.33 0.45 0.735 0.78 1.215 0.99s1.025 0.315 1.635 0.315c0.88 0 1.645-0.2 2.295-0.6 0.66-0.4 1.265-0.965 1.815-1.695v-7.335zm2.67-10.515v22.095h-1.59c-0.38 0-0.62-0.185-0.72-0.555l-0.24-1.845c-0.65 0.78-1.39 1.41-2.22 1.89s-1.79 0.72-2.88 0.72c-0.87 0-1.66-0.165-2.37-0.495-0.71-0.34-1.315-0.835-1.815-1.485s-0.885-1.46-1.155-2.43-0.405-2.085-0.405-3.345c0-1.12 0.15-2.16 0.45-3.12 0.3-0.97 0.73-1.81 1.29-2.52s1.245-1.265 2.055-1.665c0.82-0.41 1.74-0.615 2.76-0.615 0.93 0 1.725 0.16 2.385 0.48 0.67 0.31 1.265 0.745 1.785 1.305v-8.415h2.67zm12.452 15.255c-1.23 0.04-2.28 0.14-3.15 0.3-0.86 0.15-1.565 0.35-2.115 0.6-0.54 0.25-0.935 0.545-1.185 0.885-0.24 0.34-0.36 0.72-0.36 1.14 0 0.4 0.065 0.745 0.195 1.035s0.305 0.53 0.525 0.72c0.23 0.18 0.495 0.315 0.795 0.405 0.31 0.08 0.64 0.12 0.99 0.12 0.47 0 0.9-0.045 1.29-0.135 0.39-0.1 0.755-0.24 1.095-0.42 0.35-0.18 0.68-0.395 0.99-0.645 0.32-0.25 0.63-0.535 0.93-0.855v-3.15zm-8.625-6.21c0.84-0.81 1.745-1.415 2.715-1.815s2.045-0.6 3.225-0.6c0.85 0 1.605 0.14 2.265 0.42s1.215 0.67 1.665 1.17 0.79 1.105 1.02 1.815 0.345 1.49 0.345 2.34v9.72h-1.185c-0.26 0-0.46-0.04-0.6-0.12-0.14-0.09-0.25-0.26-0.33-0.51l-0.3-1.44c-0.4 0.37-0.79 0.7-1.17 0.99-0.38 0.28-0.78 0.52-1.2 0.72-0.42 0.19-0.87 0.335-1.35 0.435-0.47 0.11-0.995 0.165-1.575 0.165-0.59 0-1.145-0.08-1.665-0.24-0.52-0.17-0.975-0.42-1.365-0.75-0.38-0.33-0.685-0.745-0.915-1.245-0.22-0.51-0.33-1.11-0.33-1.8 0-0.6 0.165-1.175 0.495-1.725 0.33-0.56 0.865-1.055 1.605-1.485s1.705-0.78 2.895-1.05c1.19-0.28 2.65-0.44 4.38-0.48v-1.185c0-1.18-0.255-2.07-0.765-2.67-0.51-0.61-1.255-0.915-2.235-0.915-0.66 0-1.215 0.085-1.665 0.255-0.44 0.16-0.825 0.345-1.155 0.555-0.32 0.2-0.6 0.385-0.84 0.555-0.23 0.16-0.46 0.24-0.69 0.24-0.18 0-0.335-0.045-0.465-0.135-0.13-0.1-0.24-0.22-0.33-0.36l-0.48-0.855zm28.06-2.145l-8.475 19.68c-0.09 0.2-0.205 0.36-0.345 0.48-0.13 0.12-0.335 0.18-0.615 0.18h-1.98l2.775-6.03-6.27-14.31h2.31c0.23 0 0.41 0.06 0.54 0.18 0.14 0.11 0.235 0.235 0.285 0.375l4.065 9.57c0.16 0.42 0.295 0.86 0.405 1.32 0.14-0.47 0.29-0.915 0.45-1.335l3.945-9.555c0.06-0.16 0.16-0.29 0.3-0.39 0.15-0.11 0.315-0.165 0.495-0.165h2.115z"/>
</svg>
