<svg width="302" height="155" viewBox="0 0 302 155" fill="none" xmlns="http://www.w3.org/2000/svg">
<path d="M36 70.5C16.3873 70.5 0.5 54.8234 0.5 35.5C0.5 16.1766 16.3873 0.5 36 0.5C55.6127 0.5 71.5 16.1766 71.5 35.5C71.5 54.8234 55.6127 70.5 36 70.5Z" fill="#BDBDBD" stroke="black"/>
<path d="M36 49.8359H52.5" stroke="#828282" stroke-width="2" stroke-linecap="round" stroke-linejoin="round"/>
<path d="M44.25 20.2734C44.9793 19.5606 45.9686 19.1602 47 19.1602C47.5107 19.1602 48.0164 19.2585 48.4883 19.4495C48.9601 19.6405 49.3889 19.9204 49.75 20.2734C50.1111 20.6263 50.3976 21.0453 50.593 21.5064C50.7885 21.9675 50.8891 22.4617 50.8891 22.9609C50.8891 23.46 50.7885 23.9542 50.593 24.4153C50.3976 24.8764 50.1111 25.2954 49.75 25.6484L26.8333 48.0442L19.5 49.8359L21.3333 42.6692L44.25 20.2734Z" stroke="#828282" stroke-width="2" stroke-linecap="round" stroke-linejoin="round"/>
<path d="M126.208 35.504C125.596 36.2067 124.939 36.7053 124.236 37C123.533 37.3173 122.683 37.476 121.686 37.476C120.371 37.476 119.329 37.204 118.558 36.66C117.81 36.0933 117.323 35.1413 117.096 33.804L116.484 30.404C116.189 28.7493 115.827 27.5367 115.396 26.766C114.988 25.9727 114.297 25.576 113.322 25.576H111.112V33.396C111.112 34.2573 111.169 34.8807 111.282 35.266C111.418 35.6513 111.656 35.912 111.996 36.048C112.336 36.184 112.891 36.2747 113.662 36.32V37C112.438 36.932 110.727 36.898 108.528 36.898C106.103 36.898 104.312 36.932 103.156 37V36.32C103.904 36.2747 104.448 36.184 104.788 36.048C105.151 35.912 105.389 35.6513 105.502 35.266C105.638 34.8807 105.706 34.2573 105.706 33.396V16.532C105.706 15.6707 105.638 15.0473 105.502 14.662C105.389 14.2767 105.151 14.016 104.788 13.88C104.448 13.744 103.904 13.6533 103.156 13.608V12.928C104.312 12.996 106.035 13.03 108.324 13.03L112.098 12.996C112.551 12.9733 113.073 12.962 113.662 12.962C116.79 12.962 119.136 13.472 120.7 14.492C122.287 15.512 123.08 16.974 123.08 18.878C123.08 20.4873 122.491 21.904 121.312 23.128C120.133 24.352 118.184 25.1227 115.464 25.44C117.504 25.6213 119.023 26.0633 120.02 26.766C121.017 27.4687 121.663 28.5227 121.958 29.928L122.74 33.43C122.921 34.3367 123.125 34.9713 123.352 35.334C123.601 35.6967 123.941 35.878 124.372 35.878C124.644 35.8553 124.871 35.7873 125.052 35.674C125.256 35.5607 125.483 35.368 125.732 35.096L126.208 35.504ZM113.22 13.608C112.608 13.608 112.155 13.6873 111.86 13.846C111.588 14.0047 111.395 14.288 111.282 14.696C111.169 15.104 111.112 15.716 111.112 16.532V24.896H112.574C114.433 24.896 115.702 24.4087 116.382 23.434C117.085 22.4367 117.436 21.0427 117.436 19.252C117.436 17.3933 117.107 15.988 116.45 15.036C115.793 14.084 114.716 13.608 113.22 13.608ZM136.353 34.688C138.212 34.688 139.708 33.7813 140.841 31.968L141.453 32.172C141 33.6453 140.184 34.9033 139.005 35.946C137.849 36.966 136.398 37.476 134.653 37.476C132.25 37.476 130.335 36.7167 128.907 35.198C127.502 33.6567 126.799 31.39 126.799 28.398C126.799 25.338 127.558 23.0033 129.077 21.394C130.596 19.762 132.613 18.946 135.129 18.946C139.39 18.946 141.521 21.462 141.521 26.494H131.967C131.944 26.834 131.933 27.3667 131.933 28.092C131.933 29.588 132.137 30.8347 132.545 31.832C132.976 32.8293 133.52 33.5547 134.177 34.008C134.857 34.4613 135.582 34.688 136.353 34.688ZM134.925 19.66C134.109 19.66 133.429 20.17 132.885 21.19C132.364 22.1873 132.035 23.74 131.899 25.848H137.237C137.282 24.0573 137.101 22.584 136.693 21.428C136.308 20.2493 135.718 19.66 134.925 19.66ZM150.222 18.946C151.083 18.946 151.876 19.0593 152.602 19.286C153.327 19.49 153.882 19.728 154.268 20C154.494 20.1587 154.698 20.238 154.88 20.238C155.084 20.238 155.254 20.136 155.39 19.932C155.548 19.7053 155.65 19.388 155.696 18.98H156.41C156.319 20.136 156.274 22.1307 156.274 24.964H155.56C155.356 23.468 154.902 22.2213 154.2 21.224C153.52 20.204 152.522 19.694 151.208 19.694C150.528 19.694 149.961 19.8867 149.508 20.272C149.077 20.6573 148.862 21.19 148.862 21.87C148.862 22.6407 149.122 23.3093 149.644 23.876C150.165 24.42 150.981 25.0887 152.092 25.882L153.078 26.596C154.46 27.6387 155.48 28.568 156.138 29.384C156.795 30.2 157.124 31.22 157.124 32.444C157.124 33.4413 156.829 34.3253 156.24 35.096C155.673 35.8667 154.902 36.456 153.928 36.864C152.953 37.272 151.876 37.476 150.698 37.476C149.451 37.476 148.386 37.238 147.502 36.762C146.776 36.3993 146.255 36.1613 145.938 36.048C145.711 35.98 145.507 36.0593 145.326 36.286C145.167 36.49 145.042 36.8073 144.952 37.238H144.238C144.328 35.946 144.374 33.6793 144.374 30.438H145.088C145.541 34.6087 147.071 36.694 149.678 36.694C150.335 36.694 150.89 36.5013 151.344 36.116C151.82 35.708 152.058 35.096 152.058 34.28C152.058 33.6453 151.91 33.0787 151.616 32.58C151.344 32.0813 150.992 31.6393 150.562 31.254C150.131 30.8687 149.485 30.336 148.624 29.656C147.604 28.84 146.822 28.1827 146.278 27.684C145.756 27.1853 145.303 26.596 144.918 25.916C144.555 25.236 144.374 24.4767 144.374 23.638C144.374 22.1873 144.94 21.0427 146.074 20.204C147.207 19.3653 148.59 18.946 150.222 18.946ZM169.191 34.688C171.05 34.688 172.546 33.7813 173.679 31.968L174.291 32.172C173.838 33.6453 173.022 34.9033 171.843 35.946C170.687 36.966 169.236 37.476 167.491 37.476C165.088 37.476 163.173 36.7167 161.745 35.198C160.34 33.6567 159.637 31.39 159.637 28.398C159.637 25.338 160.396 23.0033 161.915 21.394C163.434 19.762 165.451 18.946 167.967 18.946C172.228 18.946 174.359 21.462 174.359 26.494H164.805C164.782 26.834 164.771 27.3667 164.771 28.092C164.771 29.588 164.975 30.8347 165.383 31.832C165.814 32.8293 166.358 33.5547 167.015 34.008C167.695 34.4613 168.42 34.688 169.191 34.688ZM167.763 19.66C166.947 19.66 166.267 20.17 165.723 21.19C165.202 22.1873 164.873 23.74 164.737 25.848H170.075C170.12 24.0573 169.939 22.584 169.531 21.428C169.146 20.2493 168.556 19.66 167.763 19.66ZM180.816 37.238C179.365 37.238 178.277 36.864 177.552 36.116C176.849 35.368 176.498 34.382 176.498 33.158C176.498 32.138 176.758 31.2993 177.28 30.642C177.824 29.962 178.47 29.4407 179.218 29.078C179.988 28.7153 180.963 28.33 182.142 27.922C183.388 27.4913 184.295 27.106 184.862 26.766C185.451 26.4033 185.746 25.916 185.746 25.304V22.652C185.746 21.7 185.519 20.9633 185.066 20.442C184.635 19.898 183.955 19.626 183.026 19.626C181.938 19.626 181.11 19.898 180.544 20.442C181.178 20.6687 181.666 21.0087 182.006 21.462C182.368 21.9153 182.55 22.448 182.55 23.06C182.55 23.8307 182.289 24.4427 181.768 24.896C181.246 25.3493 180.612 25.576 179.864 25.576C179.07 25.576 178.458 25.3267 178.028 24.828C177.597 24.3293 177.382 23.706 177.382 22.958C177.382 22.3233 177.529 21.7907 177.824 21.36C178.141 20.9067 178.617 20.4873 179.252 20.102C179.864 19.7393 180.612 19.456 181.496 19.252C182.402 19.048 183.388 18.946 184.454 18.946C185.564 18.946 186.528 19.0593 187.344 19.286C188.16 19.5127 188.84 19.898 189.384 20.442C189.882 20.9407 190.211 21.5527 190.37 22.278C190.551 23.0033 190.642 23.9893 190.642 25.236V34.484C190.642 35.028 190.687 35.4133 190.778 35.64C190.891 35.8667 191.095 35.98 191.39 35.98C191.73 35.98 192.138 35.7873 192.614 35.402L192.954 35.98C191.934 36.8187 190.687 37.238 189.214 37.238C187.967 37.238 187.094 36.9887 186.596 36.49C186.097 35.9913 185.836 35.3227 185.814 34.484C184.68 36.32 183.014 37.238 180.816 37.238ZM183.434 35.062C184.318 35.062 185.088 34.5973 185.746 33.668V26.698C185.474 27.1513 184.896 27.65 184.012 28.194C183.128 28.7607 182.459 29.3273 182.006 29.894C181.552 30.4607 181.326 31.2767 181.326 32.342C181.326 33.2713 181.518 33.9627 181.904 34.416C182.289 34.8467 182.799 35.062 183.434 35.062ZM205.621 18.946C206.641 18.946 207.412 19.252 207.933 19.864C208.455 20.476 208.715 21.2127 208.715 22.074C208.715 22.9127 208.466 23.604 207.967 24.148C207.491 24.6693 206.857 24.93 206.063 24.93C205.293 24.93 204.681 24.7373 204.227 24.352C203.774 23.944 203.547 23.4113 203.547 22.754C203.547 21.666 204.046 20.782 205.043 20.102C204.953 20.0793 204.817 20.068 204.635 20.068C204.409 20.068 204.227 20.0907 204.091 20.136C203.23 20.272 202.493 20.7933 201.881 21.7C201.292 22.6067 200.997 23.536 200.997 24.488V33.498C200.997 34.5407 201.247 35.266 201.745 35.674C202.267 36.082 203.083 36.286 204.193 36.286V37C203.876 37 203.615 36.9887 203.411 36.966C201.099 36.898 199.558 36.864 198.787 36.864C198.175 36.864 196.781 36.898 194.605 36.966C194.424 36.9887 194.197 37 193.925 37V36.286C194.741 36.286 195.308 36.116 195.625 35.776C195.943 35.4133 196.101 34.7673 196.101 33.838V23.128C196.101 22.0853 195.943 21.326 195.625 20.85C195.308 20.374 194.741 20.136 193.925 20.136V19.422C194.651 19.49 195.353 19.524 196.033 19.524C198.051 19.524 199.705 19.3653 200.997 19.048V22.21C201.428 21.2353 202.051 20.4533 202.867 19.864C203.683 19.252 204.601 18.946 205.621 18.946ZM218.172 18.946C219.01 18.946 219.804 19.0367 220.552 19.218C221.3 19.3993 221.923 19.6487 222.422 19.966C223.011 20.3287 223.464 20.7933 223.782 21.36C224.122 21.904 224.292 22.5047 224.292 23.162C224.292 23.9553 224.042 24.6127 223.544 25.134C223.045 25.6327 222.399 25.882 221.606 25.882C220.812 25.882 220.178 25.6553 219.702 25.202C219.226 24.7487 218.988 24.1367 218.988 23.366C218.988 22.686 219.203 22.0967 219.634 21.598C220.064 21.0993 220.597 20.7593 221.232 20.578C221.05 20.3287 220.767 20.136 220.382 20C220.019 19.8413 219.622 19.762 219.192 19.762C217.832 19.762 216.766 20.51 215.996 22.006C215.248 23.4793 214.874 25.4173 214.874 27.82C214.874 30.2453 215.304 31.9907 216.166 33.056C217.027 34.1213 218.104 34.654 219.396 34.654C220.166 34.654 220.937 34.45 221.708 34.042C222.501 33.634 223.215 32.92 223.85 31.9L224.428 32.104C223.974 33.5773 223.181 34.8467 222.048 35.912C220.914 36.9547 219.452 37.476 217.662 37.476C215.327 37.476 213.423 36.7053 211.95 35.164C210.476 33.6227 209.74 31.3333 209.74 28.296C209.74 26.3013 210.102 24.6013 210.828 23.196C211.553 21.7907 212.55 20.7367 213.82 20.034C215.089 19.3087 216.54 18.946 218.172 18.946ZM233.101 22.108C234.121 20 235.968 18.946 238.643 18.946C240.411 18.946 241.657 19.388 242.383 20.272C242.768 20.7027 243.04 21.2693 243.199 21.972C243.38 22.652 243.471 23.5587 243.471 24.692V33.838C243.471 34.7673 243.629 35.4133 243.947 35.776C244.264 36.116 244.831 36.286 245.647 36.286V37C243.289 36.9093 241.793 36.864 241.159 36.864C240.388 36.864 238.915 36.9093 236.739 37V36.286C237.419 36.286 237.895 36.116 238.167 35.776C238.439 35.4133 238.575 34.7673 238.575 33.838V23.264C238.575 22.3347 238.416 21.632 238.099 21.156C237.804 20.68 237.26 20.442 236.467 20.442C235.515 20.442 234.71 20.816 234.053 21.564C233.418 22.2893 233.101 23.2187 233.101 24.352V33.838C233.101 34.7673 233.237 35.4133 233.509 35.776C233.781 36.116 234.257 36.286 234.937 36.286V37C232.761 36.9093 231.355 36.864 230.721 36.864C229.95 36.864 228.386 36.9093 226.029 37V36.286C226.822 36.286 227.377 36.116 227.695 35.776C228.035 35.4133 228.205 34.7673 228.205 33.838V14.492C228.205 13.4493 228.035 12.69 227.695 12.214C227.377 11.738 226.822 11.5 226.029 11.5V10.786C226.754 10.854 227.457 10.888 228.137 10.888C230.109 10.888 231.763 10.7293 233.101 10.412V22.108Z" fill="#828282"/>
<path d="M108.336 73.096C106.885 73.096 105.755 72.68 104.944 71.848C104.133 71.016 103.728 69.8053 103.728 68.216V61.8H104.912V68.168C104.912 69.4693 105.205 70.44 105.792 71.08C106.379 71.72 107.227 72.04 108.336 72.04C109.456 72.04 110.309 71.72 110.896 71.08C111.483 70.44 111.776 69.4693 111.776 68.168V61.8H112.928V68.216C112.928 69.8053 112.523 71.016 111.712 71.848C110.912 72.68 109.787 73.096 108.336 73.096ZM118.512 73.08C117.829 73.08 117.173 72.984 116.544 72.792C115.925 72.5893 115.44 72.3387 115.088 72.04L115.6 71.144C115.952 71.4213 116.395 71.6507 116.928 71.832C117.461 72.0027 118.016 72.088 118.592 72.088C119.36 72.088 119.925 71.9707 120.288 71.736C120.661 71.4907 120.848 71.1493 120.848 70.712C120.848 70.4027 120.747 70.1627 120.544 69.992C120.341 69.8107 120.085 69.6773 119.776 69.592C119.467 69.496 119.056 69.4053 118.544 69.32C117.861 69.192 117.312 69.064 116.896 68.936C116.48 68.7973 116.123 68.568 115.824 68.248C115.536 67.928 115.392 67.4853 115.392 66.92C115.392 66.216 115.685 65.64 116.272 65.192C116.859 64.744 117.675 64.52 118.72 64.52C119.264 64.52 119.808 64.5947 120.352 64.744C120.896 64.8827 121.344 65.0693 121.696 65.304L121.2 66.216C120.507 65.736 119.68 65.496 118.72 65.496C117.995 65.496 117.445 65.624 117.072 65.88C116.709 66.136 116.528 66.472 116.528 66.888C116.528 67.208 116.629 67.464 116.832 67.656C117.045 67.848 117.307 67.992 117.616 68.088C117.925 68.1733 118.352 68.264 118.896 68.36C119.568 68.488 120.107 68.616 120.512 68.744C120.917 68.872 121.264 69.0907 121.552 69.4C121.84 69.7093 121.984 70.136 121.984 70.68C121.984 71.416 121.675 72.0027 121.056 72.44C120.448 72.8667 119.6 73.08 118.512 73.08ZM131.412 69.144H124.372C124.436 70.0187 124.772 70.728 125.38 71.272C125.988 71.8053 126.756 72.072 127.684 72.072C128.207 72.072 128.687 71.9813 129.124 71.8C129.561 71.608 129.94 71.3307 130.26 70.968L130.9 71.704C130.527 72.152 130.057 72.4933 129.492 72.728C128.937 72.9627 128.324 73.08 127.652 73.08C126.788 73.08 126.02 72.8987 125.348 72.536C124.687 72.1627 124.169 71.6507 123.796 71C123.423 70.3493 123.236 69.6133 123.236 68.792C123.236 67.9707 123.412 67.2347 123.764 66.584C124.127 65.9333 124.617 65.4267 125.236 65.064C125.865 64.7013 126.569 64.52 127.348 64.52C128.127 64.52 128.825 64.7013 129.444 65.064C130.063 65.4267 130.548 65.9333 130.9 66.584C131.252 67.224 131.428 67.96 131.428 68.792L131.412 69.144ZM127.348 65.496C126.537 65.496 125.855 65.7573 125.3 66.28C124.756 66.792 124.447 67.464 124.372 68.296H130.34C130.265 67.464 129.951 66.792 129.396 66.28C128.852 65.7573 128.169 65.496 127.348 65.496ZM134.828 66.232C135.095 65.6667 135.49 65.24 136.012 64.952C136.546 64.664 137.202 64.52 137.98 64.52V65.624L137.708 65.608C136.823 65.608 136.13 65.88 135.628 66.424C135.127 66.968 134.876 67.7307 134.876 68.712V73H133.74V64.584H134.828V66.232ZM144.35 64.584H145.486V73H144.35V64.584ZM144.926 62.744C144.691 62.744 144.494 62.664 144.334 62.504C144.174 62.344 144.094 62.152 144.094 61.928C144.094 61.7147 144.174 61.528 144.334 61.368C144.494 61.208 144.691 61.128 144.926 61.128C145.16 61.128 145.358 61.208 145.518 61.368C145.678 61.5173 145.758 61.6987 145.758 61.912C145.758 62.1467 145.678 62.344 145.518 62.504C145.358 62.664 145.16 62.744 144.926 62.744ZM152.935 64.52C153.991 64.52 154.828 64.8293 155.447 65.448C156.076 66.056 156.391 66.9467 156.391 68.12V73H155.255V68.232C155.255 67.3573 155.036 66.6907 154.599 66.232C154.161 65.7733 153.537 65.544 152.727 65.544C151.82 65.544 151.1 65.816 150.567 66.36C150.044 66.8933 149.783 67.6347 149.783 68.584V73H148.647V64.584H149.735V66.136C150.044 65.624 150.471 65.2293 151.015 64.952C151.569 64.664 152.209 64.52 152.935 64.52ZM163.907 72.488C163.693 72.68 163.427 72.8293 163.107 72.936C162.797 73.032 162.472 73.08 162.131 73.08C161.341 73.08 160.733 72.8667 160.307 72.44C159.88 72.0133 159.667 71.4107 159.667 70.632V65.544H158.163V64.584H159.667V62.744H160.803V64.584H163.363V65.544H160.803V70.568C160.803 71.0693 160.925 71.4533 161.171 71.72C161.427 71.976 161.789 72.104 162.259 72.104C162.493 72.104 162.717 72.0667 162.931 71.992C163.155 71.9173 163.347 71.8107 163.507 71.672L163.907 72.488ZM173.006 69.144H165.966C166.03 70.0187 166.366 70.728 166.974 71.272C167.582 71.8053 168.35 72.072 169.278 72.072C169.8 72.072 170.28 71.9813 170.718 71.8C171.155 71.608 171.534 71.3307 171.854 70.968L172.494 71.704C172.12 72.152 171.651 72.4933 171.086 72.728C170.531 72.9627 169.918 73.08 169.246 73.08C168.382 73.08 167.614 72.8987 166.942 72.536C166.28 72.1627 165.763 71.6507 165.39 71C165.016 70.3493 164.83 69.6133 164.83 68.792C164.83 67.9707 165.006 67.2347 165.358 66.584C165.72 65.9333 166.211 65.4267 166.83 65.064C167.459 64.7013 168.163 64.52 168.942 64.52C169.72 64.52 170.419 64.7013 171.038 65.064C171.656 65.4267 172.142 65.9333 172.494 66.584C172.846 67.224 173.022 67.96 173.022 68.792L173.006 69.144ZM168.942 65.496C168.131 65.496 167.448 65.7573 166.894 66.28C166.35 66.792 166.04 67.464 165.966 68.296H171.934C171.859 67.464 171.544 66.792 170.99 66.28C170.446 65.7573 169.763 65.496 168.942 65.496ZM176.422 66.232C176.689 65.6667 177.083 65.24 177.606 64.952C178.139 64.664 178.795 64.52 179.574 64.52V65.624L179.302 65.608C178.417 65.608 177.723 65.88 177.222 66.424C176.721 66.968 176.47 67.7307 176.47 68.712V73H175.334V64.584H176.422V66.232ZM189.062 64.584L185.318 73H184.15L180.422 64.584H181.606L184.758 71.752L187.942 64.584H189.062ZM190.662 64.584H191.798V73H190.662V64.584ZM191.238 62.744C191.003 62.744 190.806 62.664 190.646 62.504C190.486 62.344 190.406 62.152 190.406 61.928C190.406 61.7147 190.486 61.528 190.646 61.368C190.806 61.208 191.003 61.128 191.238 61.128C191.473 61.128 191.67 61.208 191.83 61.368C191.99 61.5173 192.07 61.6987 192.07 61.912C192.07 62.1467 191.99 62.344 191.83 62.504C191.67 62.664 191.473 62.744 191.238 62.744ZM202.287 69.144H195.247C195.311 70.0187 195.647 70.728 196.255 71.272C196.863 71.8053 197.631 72.072 198.559 72.072C199.082 72.072 199.562 71.9813 199.999 71.8C200.436 71.608 200.815 71.3307 201.135 70.968L201.775 71.704C201.402 72.152 200.932 72.4933 200.367 72.728C199.812 72.9627 199.199 73.08 198.527 73.08C197.663 73.08 196.895 72.8987 196.223 72.536C195.562 72.1627 195.044 71.6507 194.671 71C194.298 70.3493 194.111 69.6133 194.111 68.792C194.111 67.9707 194.287 67.2347 194.639 66.584C195.002 65.9333 195.492 65.4267 196.111 65.064C196.74 64.7013 197.444 64.52 198.223 64.52C199.002 64.52 199.7 64.7013 200.319 65.064C200.938 65.4267 201.423 65.9333 201.775 66.584C202.127 67.224 202.303 67.96 202.303 68.792L202.287 69.144ZM198.223 65.496C197.412 65.496 196.73 65.7573 196.175 66.28C195.631 66.792 195.322 67.464 195.247 68.296H201.215C201.14 67.464 200.826 66.792 200.271 66.28C199.727 65.7573 199.044 65.496 198.223 65.496ZM216.811 64.584L213.627 73H212.555L209.899 66.104L207.243 73H206.171L203.003 64.584H204.091L206.731 71.736L209.435 64.584H210.411L213.099 71.736L215.771 64.584H216.811ZM220.684 73.08C220.001 73.08 219.345 72.984 218.716 72.792C218.097 72.5893 217.612 72.3387 217.26 72.04L217.772 71.144C218.124 71.4213 218.566 71.6507 219.1 71.832C219.633 72.0027 220.188 72.088 220.764 72.088C221.532 72.088 222.097 71.9707 222.46 71.736C222.833 71.4907 223.02 71.1493 223.02 70.712C223.02 70.4027 222.918 70.1627 222.716 69.992C222.513 69.8107 222.257 69.6773 221.948 69.592C221.638 69.496 221.228 69.4053 220.716 69.32C220.033 69.192 219.484 69.064 219.068 68.936C218.652 68.7973 218.294 68.568 217.996 68.248C217.708 67.928 217.564 67.4853 217.564 66.92C217.564 66.216 217.857 65.64 218.444 65.192C219.03 64.744 219.846 64.52 220.892 64.52C221.436 64.52 221.98 64.5947 222.524 64.744C223.068 64.8827 223.516 65.0693 223.868 65.304L223.372 66.216C222.678 65.736 221.852 65.496 220.892 65.496C220.166 65.496 219.617 65.624 219.244 65.88C218.881 66.136 218.7 66.472 218.7 66.888C218.7 67.208 218.801 67.464 219.004 67.656C219.217 67.848 219.478 67.992 219.788 68.088C220.097 68.1733 220.524 68.264 221.068 68.36C221.74 68.488 222.278 68.616 222.684 68.744C223.089 68.872 223.436 69.0907 223.724 69.4C224.012 69.7093 224.156 70.136 224.156 70.68C224.156 71.416 223.846 72.0027 223.228 72.44C222.62 72.8667 221.772 73.08 220.684 73.08ZM108.688 98.096C107.579 98.096 106.576 97.8507 105.68 97.36C104.795 96.8693 104.096 96.192 103.584 95.328C103.083 94.4533 102.832 93.4773 102.832 92.4C102.832 91.3227 103.083 90.352 103.584 89.488C104.096 88.6133 104.8 87.9307 105.696 87.44C106.592 86.9493 107.595 86.704 108.704 86.704C109.536 86.704 110.304 86.8427 111.008 87.12C111.712 87.3973 112.309 87.8027 112.8 88.336L112.048 89.088C111.173 88.2027 110.069 87.76 108.736 87.76C107.851 87.76 107.045 87.9627 106.32 88.368C105.595 88.7733 105.024 89.328 104.608 90.032C104.203 90.736 104 91.5253 104 92.4C104 93.2747 104.203 94.064 104.608 94.768C105.024 95.472 105.595 96.0267 106.32 96.432C107.045 96.8373 107.851 97.04 108.736 97.04C110.08 97.04 111.184 96.592 112.048 95.696L112.8 96.448C112.309 96.9813 111.707 97.392 110.992 97.68C110.288 97.9573 109.52 98.096 108.688 98.096ZM118.149 98.08C117.338 98.08 116.608 97.8987 115.957 97.536C115.306 97.1627 114.794 96.6507 114.421 96C114.048 95.3493 113.861 94.6133 113.861 93.792C113.861 92.9707 114.048 92.2347 114.421 91.584C114.794 90.9333 115.306 90.4267 115.957 90.064C116.608 89.7013 117.338 89.52 118.149 89.52C118.96 89.52 119.69 89.7013 120.341 90.064C120.992 90.4267 121.498 90.9333 121.861 91.584C122.234 92.2347 122.421 92.9707 122.421 93.792C122.421 94.6133 122.234 95.3493 121.861 96C121.498 96.6507 120.992 97.1627 120.341 97.536C119.69 97.8987 118.96 98.08 118.149 98.08ZM118.149 97.072C118.746 97.072 119.28 96.9387 119.749 96.672C120.229 96.3947 120.602 96.0053 120.869 95.504C121.136 95.0027 121.269 94.432 121.269 93.792C121.269 93.152 121.136 92.5813 120.869 92.08C120.602 91.5787 120.229 91.1947 119.749 90.928C119.28 90.6507 118.746 90.512 118.149 90.512C117.552 90.512 117.013 90.6507 116.533 90.928C116.064 91.1947 115.69 91.5787 115.413 92.08C115.146 92.5813 115.013 93.152 115.013 93.792C115.013 94.432 115.146 95.0027 115.413 95.504C115.69 96.0053 116.064 96.3947 116.533 96.672C117.013 96.9387 117.552 97.072 118.149 97.072ZM135.236 89.52C136.292 89.52 137.119 89.824 137.716 90.432C138.324 91.04 138.628 91.936 138.628 93.12V98H137.492V93.232C137.492 92.3573 137.279 91.6907 136.852 91.232C136.436 90.7733 135.844 90.544 135.076 90.544C134.202 90.544 133.514 90.816 133.012 91.36C132.511 91.8933 132.26 92.6347 132.26 93.584V98H131.124V93.232C131.124 92.3573 130.911 91.6907 130.484 91.232C130.068 90.7733 129.471 90.544 128.692 90.544C127.828 90.544 127.14 90.816 126.628 91.36C126.127 91.8933 125.876 92.6347 125.876 93.584V98H124.74V89.584H125.828V91.12C126.127 90.608 126.543 90.2133 127.076 89.936C127.61 89.6587 128.223 89.52 128.916 89.52C129.62 89.52 130.228 89.6693 130.74 89.968C131.263 90.2667 131.652 90.7093 131.908 91.296C132.218 90.7413 132.66 90.3093 133.236 90C133.823 89.68 134.49 89.52 135.236 89.52ZM146.045 89.52C146.834 89.52 147.549 89.7013 148.189 90.064C148.829 90.416 149.33 90.9173 149.693 91.568C150.056 92.2187 150.237 92.96 150.237 93.792C150.237 94.6347 150.056 95.3813 149.693 96.032C149.33 96.6827 148.829 97.1893 148.189 97.552C147.56 97.904 146.845 98.08 146.045 98.08C145.362 98.08 144.744 97.9413 144.189 97.664C143.645 97.376 143.197 96.96 142.845 96.416V101.104H141.709V89.584H142.797V91.248C143.138 90.6933 143.586 90.2667 144.141 89.968C144.706 89.6693 145.341 89.52 146.045 89.52ZM145.965 97.072C146.552 97.072 147.085 96.9387 147.565 96.672C148.045 96.3947 148.418 96.0053 148.685 95.504C148.962 95.0027 149.101 94.432 149.101 93.792C149.101 93.152 148.962 92.5867 148.685 92.096C148.418 91.5947 148.045 91.2053 147.565 90.928C147.085 90.6507 146.552 90.512 145.965 90.512C145.368 90.512 144.829 90.6507 144.349 90.928C143.88 91.2053 143.506 91.5947 143.229 92.096C142.962 92.5867 142.829 93.152 142.829 93.792C142.829 94.432 142.962 95.0027 143.229 95.504C143.506 96.0053 143.88 96.3947 144.349 96.672C144.829 96.9387 145.368 97.072 145.965 97.072ZM159.881 94.144H152.841C152.905 95.0187 153.241 95.728 153.849 96.272C154.457 96.8053 155.225 97.072 156.153 97.072C156.675 97.072 157.155 96.9813 157.593 96.8C158.03 96.608 158.409 96.3307 158.729 95.968L159.369 96.704C158.995 97.152 158.526 97.4933 157.961 97.728C157.406 97.9627 156.793 98.08 156.121 98.08C155.257 98.08 154.489 97.8987 153.817 97.536C153.155 97.1627 152.638 96.6507 152.265 96C151.891 95.3493 151.705 94.6133 151.705 93.792C151.705 92.9707 151.881 92.2347 152.233 91.584C152.595 90.9333 153.086 90.4267 153.705 90.064C154.334 89.7013 155.038 89.52 155.817 89.52C156.595 89.52 157.294 89.7013 157.913 90.064C158.531 90.4267 159.017 90.9333 159.369 91.584C159.721 92.224 159.897 92.96 159.897 93.792L159.881 94.144ZM155.817 90.496C155.006 90.496 154.323 90.7573 153.769 91.28C153.225 91.792 152.915 92.464 152.841 93.296H158.809C158.734 92.464 158.419 91.792 157.865 91.28C157.321 90.7573 156.638 90.496 155.817 90.496ZM166.641 97.488C166.428 97.68 166.161 97.8293 165.841 97.936C165.532 98.032 165.206 98.08 164.865 98.08C164.076 98.08 163.468 97.8667 163.041 97.44C162.614 97.0133 162.401 96.4107 162.401 95.632V90.544H160.897V89.584H162.401V87.744H163.537V89.584H166.097V90.544H163.537V95.568C163.537 96.0693 163.66 96.4533 163.905 96.72C164.161 96.976 164.524 97.104 164.993 97.104C165.228 97.104 165.452 97.0667 165.665 96.992C165.889 96.9173 166.081 96.8107 166.241 96.672L166.641 97.488ZM168.709 89.584H169.845V98H168.709V89.584ZM169.285 87.744C169.05 87.744 168.853 87.664 168.693 87.504C168.533 87.344 168.453 87.152 168.453 86.928C168.453 86.7147 168.533 86.528 168.693 86.368C168.853 86.208 169.05 86.128 169.285 86.128C169.52 86.128 169.717 86.208 169.877 86.368C170.037 86.5173 170.117 86.6987 170.117 86.912C170.117 87.1467 170.037 87.344 169.877 87.504C169.717 87.664 169.52 87.744 169.285 87.744ZM177.438 97.488C177.225 97.68 176.958 97.8293 176.638 97.936C176.329 98.032 176.003 98.08 175.662 98.08C174.873 98.08 174.265 97.8667 173.838 97.44C173.411 97.0133 173.198 96.4107 173.198 95.632V90.544H171.694V89.584H173.198V87.744H174.334V89.584H176.894V90.544H174.334V95.568C174.334 96.0693 174.457 96.4533 174.702 96.72C174.958 96.976 175.321 97.104 175.79 97.104C176.025 97.104 176.249 97.0667 176.462 96.992C176.686 96.9173 176.878 96.8107 177.038 96.672L177.438 97.488ZM182.649 98.08C181.838 98.08 181.108 97.8987 180.457 97.536C179.806 97.1627 179.294 96.6507 178.921 96C178.548 95.3493 178.361 94.6133 178.361 93.792C178.361 92.9707 178.548 92.2347 178.921 91.584C179.294 90.9333 179.806 90.4267 180.457 90.064C181.108 89.7013 181.838 89.52 182.649 89.52C183.46 89.52 184.19 89.7013 184.841 90.064C185.492 90.4267 185.998 90.9333 186.361 91.584C186.734 92.2347 186.921 92.9707 186.921 93.792C186.921 94.6133 186.734 95.3493 186.361 96C185.998 96.6507 185.492 97.1627 184.841 97.536C184.19 97.8987 183.46 98.08 182.649 98.08ZM182.649 97.072C183.246 97.072 183.78 96.9387 184.249 96.672C184.729 96.3947 185.102 96.0053 185.369 95.504C185.636 95.0027 185.769 94.432 185.769 93.792C185.769 93.152 185.636 92.5813 185.369 92.08C185.102 91.5787 184.729 91.1947 184.249 90.928C183.78 90.6507 183.246 90.512 182.649 90.512C182.052 90.512 181.513 90.6507 181.033 90.928C180.564 91.1947 180.19 91.5787 179.913 92.08C179.646 92.5813 179.513 93.152 179.513 93.792C179.513 94.432 179.646 95.0027 179.913 95.504C180.19 96.0053 180.564 96.3947 181.033 96.672C181.513 96.9387 182.052 97.072 182.649 97.072ZM190.328 91.232C190.595 90.6667 190.99 90.24 191.512 89.952C192.046 89.664 192.702 89.52 193.48 89.52V90.624L193.208 90.608C192.323 90.608 191.63 90.88 191.128 91.424C190.627 91.968 190.376 92.7307 190.376 93.712V98H189.24V89.584H190.328V91.232ZM202.634 87.008C202.143 87.008 201.77 87.1413 201.514 87.408C201.268 87.6747 201.146 88.0693 201.146 88.592V89.584H203.738V90.544H201.178V98H200.042V90.544H198.538V89.584H200.042V88.544C200.042 87.776 200.26 87.168 200.698 86.72C201.146 86.272 201.775 86.048 202.586 86.048C202.906 86.048 203.215 86.096 203.514 86.192C203.812 86.2773 204.063 86.4053 204.266 86.576L203.882 87.424C203.551 87.1467 203.135 87.008 202.634 87.008ZM212.459 94.144H205.419C205.483 95.0187 205.819 95.728 206.427 96.272C207.035 96.8053 207.803 97.072 208.731 97.072C209.254 97.072 209.734 96.9813 210.171 96.8C210.608 96.608 210.987 96.3307 211.307 95.968L211.947 96.704C211.574 97.152 211.104 97.4933 210.539 97.728C209.984 97.9627 209.371 98.08 208.699 98.08C207.835 98.08 207.067 97.8987 206.395 97.536C205.734 97.1627 205.216 96.6507 204.843 96C204.47 95.3493 204.283 94.6133 204.283 93.792C204.283 92.9707 204.459 92.2347 204.811 91.584C205.174 90.9333 205.664 90.4267 206.283 90.064C206.912 89.7013 207.616 89.52 208.395 89.52C209.174 89.52 209.872 89.7013 210.491 90.064C211.11 90.4267 211.595 90.9333 211.947 91.584C212.299 92.224 212.475 92.96 212.475 93.792L212.459 94.144ZM208.395 90.496C207.584 90.496 206.902 90.7573 206.347 91.28C205.803 91.792 205.494 92.464 205.419 93.296H211.387C211.312 92.464 210.998 91.792 210.443 91.28C209.899 90.7573 209.216 90.496 208.395 90.496ZM217.497 89.52C218.595 89.52 219.438 89.7973 220.025 90.352C220.611 90.896 220.905 91.7067 220.905 92.784V98H219.817V96.688C219.561 97.1253 219.182 97.4667 218.681 97.712C218.19 97.9573 217.603 98.08 216.921 98.08C215.982 98.08 215.235 97.856 214.681 97.408C214.126 96.96 213.849 96.368 213.849 95.632C213.849 94.9173 214.105 94.3413 214.617 93.904C215.139 93.4667 215.966 93.248 217.097 93.248H219.769V92.736C219.769 92.0107 219.566 91.4613 219.161 91.088C218.755 90.704 218.163 90.512 217.385 90.512C216.851 90.512 216.339 90.6027 215.849 90.784C215.358 90.9547 214.937 91.1947 214.585 91.504L214.073 90.656C214.499 90.2933 215.011 90.016 215.609 89.824C216.206 89.6213 216.835 89.52 217.497 89.52ZM217.097 97.184C217.737 97.184 218.286 97.04 218.745 96.752C219.203 96.4533 219.545 96.0267 219.769 95.472V94.096H217.129C215.689 94.096 214.969 94.5973 214.969 95.6C214.969 96.0907 215.155 96.48 215.529 96.768C215.902 97.0453 216.425 97.184 217.097 97.184ZM228.422 97.488C228.209 97.68 227.942 97.8293 227.622 97.936C227.313 98.032 226.988 98.08 226.646 98.08C225.857 98.08 225.249 97.8667 224.822 97.44C224.396 97.0133 224.182 96.4107 224.182 95.632V90.544H222.678V89.584H224.182V87.744H225.318V89.584H227.878V90.544H225.318V95.568C225.318 96.0693 225.441 96.4533 225.686 96.72C225.942 96.976 226.305 97.104 226.774 97.104C227.009 97.104 227.233 97.0667 227.446 96.992C227.67 96.9173 227.862 96.8107 228.022 96.672L228.422 97.488ZM238.074 89.584V98H236.986V96.464C236.688 96.976 236.277 97.376 235.754 97.664C235.232 97.9413 234.634 98.08 233.962 98.08C232.864 98.08 231.994 97.776 231.354 97.168C230.725 96.5493 230.41 95.648 230.41 94.464V89.584H231.546V94.352C231.546 95.2373 231.765 95.9093 232.202 96.368C232.64 96.8267 233.264 97.056 234.074 97.056C234.96 97.056 235.658 96.7893 236.17 96.256C236.682 95.712 236.938 94.96 236.938 94V89.584H238.074ZM242.344 91.232C242.611 90.6667 243.005 90.24 243.528 89.952C244.061 89.664 244.717 89.52 245.496 89.52V90.624L245.224 90.608C244.339 90.608 243.645 90.88 243.144 91.424C242.643 91.968 242.392 92.7307 242.392 93.712V98H241.256V89.584H242.344V91.232ZM254.803 94.144H247.763C247.827 95.0187 248.163 95.728 248.771 96.272C249.379 96.8053 250.147 97.072 251.075 97.072C251.597 97.072 252.077 96.9813 252.515 96.8C252.952 96.608 253.331 96.3307 253.651 95.968L254.291 96.704C253.917 97.152 253.448 97.4933 252.883 97.728C252.328 97.9627 251.715 98.08 251.043 98.08C250.179 98.08 249.411 97.8987 248.739 97.536C248.077 97.1627 247.56 96.6507 247.187 96C246.813 95.3493 246.627 94.6133 246.627 93.792C246.627 92.9707 246.803 92.2347 247.155 91.584C247.517 90.9333 248.008 90.4267 248.627 90.064C249.256 89.7013 249.96 89.52 250.739 89.52C251.517 89.52 252.216 89.7013 252.835 90.064C253.453 90.4267 253.939 90.9333 254.291 91.584C254.643 92.224 254.819 92.96 254.819 93.792L254.803 94.144ZM250.739 90.496C249.928 90.496 249.245 90.7573 248.691 91.28C248.147 91.792 247.837 92.464 247.763 93.296H253.731C253.656 92.464 253.341 91.792 252.787 91.28C252.243 90.7573 251.56 90.496 250.739 90.496ZM106.528 114.52C107.627 114.52 108.469 114.797 109.056 115.352C109.643 115.896 109.936 116.707 109.936 117.784V123H108.848V121.688C108.592 122.125 108.213 122.467 107.712 122.712C107.221 122.957 106.635 123.08 105.952 123.08C105.013 123.08 104.267 122.856 103.712 122.408C103.157 121.96 102.88 121.368 102.88 120.632C102.88 119.917 103.136 119.341 103.648 118.904C104.171 118.467 104.997 118.248 106.128 118.248H108.8V117.736C108.8 117.011 108.597 116.461 108.192 116.088C107.787 115.704 107.195 115.512 106.416 115.512C105.883 115.512 105.371 115.603 104.88 115.784C104.389 115.955 103.968 116.195 103.616 116.504L103.104 115.656C103.531 115.293 104.043 115.016 104.64 114.824C105.237 114.621 105.867 114.52 106.528 114.52ZM106.128 122.184C106.768 122.184 107.317 122.04 107.776 121.752C108.235 121.453 108.576 121.027 108.8 120.472V119.096H106.16C104.72 119.096 104 119.597 104 120.6C104 121.091 104.187 121.48 104.56 121.768C104.933 122.045 105.456 122.184 106.128 122.184ZM117.31 114.52C118.366 114.52 119.203 114.829 119.822 115.448C120.451 116.056 120.766 116.947 120.766 118.12V123H119.63V118.232C119.63 117.357 119.411 116.691 118.974 116.232C118.536 115.773 117.912 115.544 117.102 115.544C116.195 115.544 115.475 115.816 114.942 116.36C114.419 116.893 114.158 117.635 114.158 118.584V123H113.022V114.584H114.11V116.136C114.419 115.624 114.846 115.229 115.39 114.952C115.944 114.664 116.584 114.52 117.31 114.52ZM126.794 114.52C127.892 114.52 128.735 114.797 129.322 115.352C129.908 115.896 130.202 116.707 130.202 117.784V123H129.114V121.688C128.858 122.125 128.479 122.467 127.978 122.712C127.487 122.957 126.9 123.08 126.218 123.08C125.279 123.08 124.532 122.856 123.978 122.408C123.423 121.96 123.146 121.368 123.146 120.632C123.146 119.917 123.402 119.341 123.914 118.904C124.436 118.467 125.263 118.248 126.394 118.248H129.066V117.736C129.066 117.011 128.863 116.461 128.458 116.088C128.052 115.704 127.46 115.512 126.682 115.512C126.148 115.512 125.636 115.603 125.146 115.784C124.655 115.955 124.234 116.195 123.882 116.504L123.37 115.656C123.796 115.293 124.308 115.016 124.906 114.824C125.503 114.621 126.132 114.52 126.794 114.52ZM126.394 122.184C127.034 122.184 127.583 122.04 128.042 121.752C128.5 121.453 128.842 121.027 129.066 120.472V119.096H126.426C124.986 119.096 124.266 119.597 124.266 120.6C124.266 121.091 124.452 121.48 124.826 121.768C125.199 122.045 125.722 122.184 126.394 122.184ZM133.287 111.128H134.423V123H133.287V111.128ZM144.656 114.584L140.448 124.008C140.107 124.797 139.712 125.357 139.264 125.688C138.816 126.019 138.277 126.184 137.648 126.184C137.243 126.184 136.864 126.12 136.512 125.992C136.16 125.864 135.856 125.672 135.6 125.416L136.128 124.568C136.555 124.995 137.067 125.208 137.664 125.208C138.048 125.208 138.373 125.101 138.64 124.888C138.917 124.675 139.173 124.312 139.408 123.8L139.776 122.984L136.016 114.584H137.2L140.368 121.736L143.536 114.584H144.656ZM148.418 123.08C147.735 123.08 147.079 122.984 146.45 122.792C145.831 122.589 145.346 122.339 144.994 122.04L145.506 121.144C145.858 121.421 146.301 121.651 146.834 121.832C147.367 122.003 147.922 122.088 148.498 122.088C149.266 122.088 149.831 121.971 150.194 121.736C150.567 121.491 150.754 121.149 150.754 120.712C150.754 120.403 150.653 120.163 150.45 119.992C150.247 119.811 149.991 119.677 149.682 119.592C149.373 119.496 148.962 119.405 148.45 119.32C147.767 119.192 147.218 119.064 146.802 118.936C146.386 118.797 146.029 118.568 145.73 118.248C145.442 117.928 145.298 117.485 145.298 116.92C145.298 116.216 145.591 115.64 146.178 115.192C146.765 114.744 147.581 114.52 148.626 114.52C149.17 114.52 149.714 114.595 150.258 114.744C150.802 114.883 151.25 115.069 151.602 115.304L151.106 116.216C150.413 115.736 149.586 115.496 148.626 115.496C147.901 115.496 147.351 115.624 146.978 115.88C146.615 116.136 146.434 116.472 146.434 116.888C146.434 117.208 146.535 117.464 146.738 117.656C146.951 117.848 147.213 117.992 147.522 118.088C147.831 118.173 148.258 118.264 148.802 118.36C149.474 118.488 150.013 118.616 150.418 118.744C150.823 118.872 151.17 119.091 151.458 119.4C151.746 119.709 151.89 120.136 151.89 120.68C151.89 121.416 151.581 122.003 150.962 122.44C150.354 122.867 149.506 123.08 148.418 123.08ZM153.99 114.584H155.126V123H153.99V114.584ZM154.566 112.744C154.332 112.744 154.134 112.664 153.974 112.504C153.814 112.344 153.734 112.152 153.734 111.928C153.734 111.715 153.814 111.528 153.974 111.368C154.134 111.208 154.332 111.128 154.566 111.128C154.801 111.128 154.998 111.208 155.158 111.368C155.318 111.517 155.398 111.699 155.398 111.912C155.398 112.147 155.318 112.344 155.158 112.504C154.998 112.664 154.801 112.744 154.566 112.744ZM160.543 123.08C159.86 123.08 159.204 122.984 158.575 122.792C157.956 122.589 157.471 122.339 157.119 122.04L157.631 121.144C157.983 121.421 158.426 121.651 158.959 121.832C159.492 122.003 160.047 122.088 160.623 122.088C161.391 122.088 161.956 121.971 162.319 121.736C162.692 121.491 162.879 121.149 162.879 120.712C162.879 120.403 162.778 120.163 162.575 119.992C162.372 119.811 162.116 119.677 161.807 119.592C161.498 119.496 161.087 119.405 160.575 119.32C159.892 119.192 159.343 119.064 158.927 118.936C158.511 118.797 158.154 118.568 157.855 118.248C157.567 117.928 157.423 117.485 157.423 116.92C157.423 116.216 157.716 115.64 158.303 115.192C158.89 114.744 159.706 114.52 160.751 114.52C161.295 114.52 161.839 114.595 162.383 114.744C162.927 114.883 163.375 115.069 163.727 115.304L163.231 116.216C162.538 115.736 161.711 115.496 160.751 115.496C160.026 115.496 159.476 115.624 159.103 115.88C158.74 116.136 158.559 116.472 158.559 116.888C158.559 117.208 158.66 117.464 158.863 117.656C159.076 117.848 159.338 117.992 159.647 118.088C159.956 118.173 160.383 118.264 160.927 118.36C161.599 118.488 162.138 118.616 162.543 118.744C162.948 118.872 163.295 119.091 163.583 119.4C163.871 119.709 164.015 120.136 164.015 120.68C164.015 121.416 163.706 122.003 163.087 122.44C162.479 122.867 161.631 123.08 160.543 123.08ZM108.016 136.8C109.445 136.8 110.565 137.141 111.376 137.824C112.187 138.507 112.592 139.445 112.592 140.64C112.592 141.835 112.187 142.773 111.376 143.456C110.565 144.128 109.445 144.464 108.016 144.464H105.008V148H103.824V136.8H108.016ZM107.984 143.424C109.093 143.424 109.941 143.184 110.528 142.704C111.115 142.213 111.408 141.525 111.408 140.64C111.408 139.733 111.115 139.04 110.528 138.56C109.941 138.069 109.093 137.824 107.984 137.824H105.008V143.424H107.984ZM122.193 144.144H115.153C115.217 145.019 115.553 145.728 116.161 146.272C116.769 146.805 117.537 147.072 118.465 147.072C118.988 147.072 119.468 146.981 119.905 146.8C120.343 146.608 120.721 146.331 121.041 145.968L121.681 146.704C121.308 147.152 120.839 147.493 120.273 147.728C119.719 147.963 119.105 148.08 118.433 148.08C117.569 148.08 116.801 147.899 116.129 147.536C115.468 147.163 114.951 146.651 114.577 146C114.204 145.349 114.017 144.613 114.017 143.792C114.017 142.971 114.193 142.235 114.545 141.584C114.908 140.933 115.399 140.427 116.017 140.064C116.647 139.701 117.351 139.52 118.129 139.52C118.908 139.52 119.607 139.701 120.225 140.064C120.844 140.427 121.329 140.933 121.681 141.584C122.033 142.224 122.209 142.96 122.209 143.792L122.193 144.144ZM118.129 140.496C117.319 140.496 116.636 140.757 116.081 141.28C115.537 141.792 115.228 142.464 115.153 143.296H121.121C121.047 142.464 120.732 141.792 120.177 141.28C119.633 140.757 118.951 140.496 118.129 140.496ZM125.61 141.232C125.876 140.667 126.271 140.24 126.794 139.952C127.327 139.664 127.983 139.52 128.762 139.52V140.624L128.49 140.608C127.604 140.608 126.911 140.88 126.41 141.424C125.908 141.968 125.658 142.731 125.658 143.712V148H124.522V139.584H125.61V141.232ZM133.137 148.08C132.454 148.08 131.798 147.984 131.169 147.792C130.55 147.589 130.065 147.339 129.713 147.04L130.225 146.144C130.577 146.421 131.02 146.651 131.553 146.832C132.086 147.003 132.641 147.088 133.217 147.088C133.985 147.088 134.55 146.971 134.913 146.736C135.286 146.491 135.473 146.149 135.473 145.712C135.473 145.403 135.372 145.163 135.169 144.992C134.966 144.811 134.71 144.677 134.401 144.592C134.092 144.496 133.681 144.405 133.169 144.32C132.486 144.192 131.937 144.064 131.521 143.936C131.105 143.797 130.748 143.568 130.449 143.248C130.161 142.928 130.017 142.485 130.017 141.92C130.017 141.216 130.31 140.64 130.897 140.192C131.484 139.744 132.3 139.52 133.345 139.52C133.889 139.52 134.433 139.595 134.977 139.744C135.521 139.883 135.969 140.069 136.321 140.304L135.825 141.216C135.132 140.736 134.305 140.496 133.345 140.496C132.62 140.496 132.07 140.624 131.697 140.88C131.334 141.136 131.153 141.472 131.153 141.888C131.153 142.208 131.254 142.464 131.457 142.656C131.67 142.848 131.932 142.992 132.241 143.088C132.55 143.173 132.977 143.264 133.521 143.36C134.193 143.488 134.732 143.616 135.137 143.744C135.542 143.872 135.889 144.091 136.177 144.4C136.465 144.709 136.609 145.136 136.609 145.68C136.609 146.416 136.3 147.003 135.681 147.44C135.073 147.867 134.225 148.08 133.137 148.08ZM142.149 148.08C141.338 148.08 140.608 147.899 139.957 147.536C139.306 147.163 138.794 146.651 138.421 146C138.048 145.349 137.861 144.613 137.861 143.792C137.861 142.971 138.048 142.235 138.421 141.584C138.794 140.933 139.306 140.427 139.957 140.064C140.608 139.701 141.338 139.52 142.149 139.52C142.96 139.52 143.69 139.701 144.341 140.064C144.992 140.427 145.498 140.933 145.861 141.584C146.234 142.235 146.421 142.971 146.421 143.792C146.421 144.613 146.234 145.349 145.861 146C145.498 146.651 144.992 147.163 144.341 147.536C143.69 147.899 142.96 148.08 142.149 148.08ZM142.149 147.072C142.746 147.072 143.28 146.939 143.749 146.672C144.229 146.395 144.602 146.005 144.869 145.504C145.136 145.003 145.269 144.432 145.269 143.792C145.269 143.152 145.136 142.581 144.869 142.08C144.602 141.579 144.229 141.195 143.749 140.928C143.28 140.651 142.746 140.512 142.149 140.512C141.552 140.512 141.013 140.651 140.533 140.928C140.064 141.195 139.69 141.579 139.413 142.08C139.146 142.581 139.013 143.152 139.013 143.792C139.013 144.432 139.146 145.003 139.413 145.504C139.69 146.005 140.064 146.395 140.533 146.672C141.013 146.939 141.552 147.072 142.149 147.072ZM153.028 139.52C154.084 139.52 154.922 139.829 155.54 140.448C156.17 141.056 156.484 141.947 156.484 143.12V148H155.348V143.232C155.348 142.357 155.13 141.691 154.692 141.232C154.255 140.773 153.631 140.544 152.82 140.544C151.914 140.544 151.194 140.816 150.66 141.36C150.138 141.893 149.876 142.635 149.876 143.584V148H148.74V139.584H149.828V141.136C150.138 140.624 150.564 140.229 151.108 139.952C151.663 139.664 152.303 139.52 153.028 139.52ZM162.512 139.52C163.611 139.52 164.454 139.797 165.04 140.352C165.627 140.896 165.92 141.707 165.92 142.784V148H164.832V146.688C164.576 147.125 164.198 147.467 163.696 147.712C163.206 147.957 162.619 148.08 161.936 148.08C160.998 148.08 160.251 147.856 159.696 147.408C159.142 146.96 158.864 146.368 158.864 145.632C158.864 144.917 159.12 144.341 159.632 143.904C160.155 143.467 160.982 143.248 162.112 143.248H164.784V142.736C164.784 142.011 164.582 141.461 164.176 141.088C163.771 140.704 163.179 140.512 162.4 140.512C161.867 140.512 161.355 140.603 160.864 140.784C160.374 140.955 159.952 141.195 159.6 141.504L159.088 140.656C159.515 140.293 160.027 140.016 160.624 139.824C161.222 139.621 161.851 139.52 162.512 139.52ZM162.112 147.184C162.752 147.184 163.302 147.04 163.76 146.752C164.219 146.453 164.56 146.027 164.784 145.472V144.096H162.144C160.704 144.096 159.984 144.597 159.984 145.6C159.984 146.091 160.171 146.48 160.544 146.768C160.918 147.045 161.44 147.184 162.112 147.184ZM171.262 148.08C170.579 148.08 169.923 147.984 169.294 147.792C168.675 147.589 168.19 147.339 167.838 147.04L168.35 146.144C168.702 146.421 169.145 146.651 169.678 146.832C170.211 147.003 170.766 147.088 171.342 147.088C172.11 147.088 172.675 146.971 173.038 146.736C173.411 146.491 173.598 146.149 173.598 145.712C173.598 145.403 173.497 145.163 173.294 144.992C173.091 144.811 172.835 144.677 172.526 144.592C172.217 144.496 171.806 144.405 171.294 144.32C170.611 144.192 170.062 144.064 169.646 143.936C169.23 143.797 168.873 143.568 168.574 143.248C168.286 142.928 168.142 142.485 168.142 141.92C168.142 141.216 168.435 140.64 169.022 140.192C169.609 139.744 170.425 139.52 171.47 139.52C172.014 139.52 172.558 139.595 173.102 139.744C173.646 139.883 174.094 140.069 174.446 140.304L173.95 141.216C173.257 140.736 172.43 140.496 171.47 140.496C170.745 140.496 170.195 140.624 169.822 140.88C169.459 141.136 169.278 141.472 169.278 141.888C169.278 142.208 169.379 142.464 169.582 142.656C169.795 142.848 170.057 142.992 170.366 143.088C170.675 143.173 171.102 143.264 171.646 143.36C172.318 143.488 172.857 143.616 173.262 143.744C173.667 143.872 174.014 144.091 174.302 144.4C174.59 144.709 174.734 145.136 174.734 145.68C174.734 146.416 174.425 147.003 173.806 147.44C173.198 147.867 172.35 148.08 171.262 148.08Z" fill="#828282"/>
</svg>
