<svg width="245" height="40" viewBox="0 0 245 40" fill="none" xmlns="http://www.w3.org/2000/svg">
<path d="M20 28H30" stroke="#CE8200" stroke-width="2" stroke-linecap="round" stroke-linejoin="round"/>
<path d="M24.9813 9.6895C25.4228 9.24802 26.0216 9 26.6459 9C26.9551 9 27.2612 9.06089 27.5468 9.17919C27.8324 9.2975 28.0919 9.4709 28.3105 9.6895C28.5291 9.90809 28.7025 10.1676 28.8208 10.4532C28.9391 10.7388 29 11.0449 29 11.3541C29 11.6632 28.9391 11.9693 28.8208 12.255C28.7025 12.5406 28.5291 12.8001 28.3105 13.0187L14.4389 26.8903L10 28L11.1097 23.5611L24.9813 9.6895Z" stroke="#CE8200" stroke-width="2" stroke-linecap="round" stroke-linejoin="round"/>
<path d="M62.088 24.944C61.656 25.44 61.192 25.792 60.696 26C60.2 26.224 59.6 26.336 58.896 26.336C57.968 26.336 57.232 26.144 56.688 25.76C56.16 25.36 55.816 24.688 55.656 23.744L55.224 21.344C55.016 20.176 54.76 19.32 54.456 18.776C54.168 18.216 53.68 17.936 52.992 17.936H51.432V23.456C51.432 24.064 51.472 24.504 51.552 24.776C51.648 25.048 51.816 25.232 52.056 25.328C52.296 25.424 52.688 25.488 53.232 25.52V26C52.368 25.952 51.16 25.928 49.608 25.928C47.896 25.928 46.632 25.952 45.816 26V25.52C46.344 25.488 46.728 25.424 46.968 25.328C47.224 25.232 47.392 25.048 47.472 24.776C47.568 24.504 47.616 24.064 47.616 23.456V11.552C47.616 10.944 47.568 10.504 47.472 10.232C47.392 9.96 47.224 9.776 46.968 9.68C46.728 9.584 46.344 9.52 45.816 9.488V9.008C46.632 9.056 47.848 9.08 49.464 9.08L52.128 9.056C52.448 9.04 52.816 9.032 53.232 9.032C55.44 9.032 57.096 9.392 58.2 10.112C59.32 10.832 59.88 11.864 59.88 13.208C59.88 14.344 59.464 15.344 58.632 16.208C57.8 17.072 56.424 17.616 54.504 17.84C55.944 17.968 57.016 18.28 57.72 18.776C58.424 19.272 58.88 20.016 59.088 21.008L59.64 23.48C59.768 24.12 59.912 24.568 60.072 24.824C60.248 25.08 60.488 25.208 60.792 25.208C60.984 25.192 61.144 25.144 61.272 25.064C61.416 24.984 61.576 24.848 61.752 24.656L62.088 24.944ZM52.92 9.488C52.488 9.488 52.168 9.544 51.96 9.656C51.768 9.768 51.632 9.968 51.552 10.256C51.472 10.544 51.432 10.976 51.432 11.552V17.456H52.464C53.776 17.456 54.672 17.112 55.152 16.424C55.648 15.72 55.896 14.736 55.896 13.472C55.896 12.16 55.664 11.168 55.2 10.496C54.736 9.824 53.976 9.488 52.92 9.488ZM69.2492 24.368C70.5612 24.368 71.6172 23.728 72.4172 22.448L72.8492 22.592C72.5292 23.632 71.9532 24.52 71.1212 25.256C70.3052 25.976 69.2812 26.336 68.0492 26.336C66.3532 26.336 65.0012 25.8 63.9932 24.728C63.0012 23.64 62.5052 22.04 62.5052 19.928C62.5052 17.768 63.0412 16.12 64.1132 14.984C65.1852 13.832 66.6092 13.256 68.3852 13.256C71.3932 13.256 72.8972 15.032 72.8972 18.584H66.1532C66.1372 18.824 66.1292 19.2 66.1292 19.712C66.1292 20.768 66.2732 21.648 66.5612 22.352C66.8652 23.056 67.2492 23.568 67.7132 23.888C68.1932 24.208 68.7052 24.368 69.2492 24.368ZM68.2412 13.76C67.6652 13.76 67.1852 14.12 66.8012 14.84C66.4332 15.544 66.2012 16.64 66.1052 18.128H69.8732C69.9052 16.864 69.7772 15.824 69.4892 15.008C69.2172 14.176 68.8012 13.76 68.2412 13.76ZM79.0389 13.256C79.6469 13.256 80.2069 13.336 80.7189 13.496C81.2309 13.64 81.6229 13.808 81.8949 14C82.0549 14.112 82.1989 14.168 82.3269 14.168C82.4709 14.168 82.5909 14.096 82.6869 13.952C82.7989 13.792 82.8709 13.568 82.9029 13.28H83.4069C83.3429 14.096 83.3109 15.504 83.3109 17.504H82.8069C82.6629 16.448 82.3429 15.568 81.8469 14.864C81.3669 14.144 80.6629 13.784 79.7349 13.784C79.2549 13.784 78.8549 13.92 78.5349 14.192C78.2309 14.464 78.0789 14.84 78.0789 15.32C78.0789 15.864 78.2629 16.336 78.6309 16.736C78.9989 17.12 79.5749 17.592 80.3589 18.152L81.0549 18.656C82.0309 19.392 82.7509 20.048 83.2149 20.624C83.6789 21.2 83.9109 21.92 83.9109 22.784C83.9109 23.488 83.7029 24.112 83.2869 24.656C82.8869 25.2 82.3429 25.616 81.6549 25.904C80.9669 26.192 80.2069 26.336 79.3749 26.336C78.4949 26.336 77.7429 26.168 77.1189 25.832C76.6069 25.576 76.2389 25.408 76.0149 25.328C75.8549 25.28 75.7109 25.336 75.5829 25.496C75.4709 25.64 75.3829 25.864 75.3189 26.168H74.8149C74.8789 25.256 74.9109 23.656 74.9109 21.368H75.4149C75.7349 24.312 76.8149 25.784 78.6549 25.784C79.1189 25.784 79.5109 25.648 79.8309 25.376C80.1669 25.088 80.3349 24.656 80.3349 24.08C80.3349 23.632 80.2309 23.232 80.0229 22.88C79.8309 22.528 79.5829 22.216 79.2789 21.944C78.9749 21.672 78.5189 21.296 77.9109 20.816C77.1909 20.24 76.6389 19.776 76.2549 19.424C75.8869 19.072 75.5669 18.656 75.2949 18.176C75.0389 17.696 74.9109 17.16 74.9109 16.568C74.9109 15.544 75.3109 14.736 76.1109 14.144C76.9109 13.552 77.8869 13.256 79.0389 13.256ZM92.4289 24.368C93.7409 24.368 94.7969 23.728 95.5969 22.448L96.0289 22.592C95.7089 23.632 95.1329 24.52 94.3009 25.256C93.4849 25.976 92.4609 26.336 91.2289 26.336C89.5329 26.336 88.1809 25.8 87.1729 24.728C86.1809 23.64 85.6849 22.04 85.6849 19.928C85.6849 17.768 86.2209 16.12 87.2929 14.984C88.3649 13.832 89.7889 13.256 91.5649 13.256C94.5729 13.256 96.0769 15.032 96.0769 18.584H89.3329C89.3169 18.824 89.3089 19.2 89.3089 19.712C89.3089 20.768 89.4529 21.648 89.7409 22.352C90.0449 23.056 90.4289 23.568 90.8929 23.888C91.3729 24.208 91.8849 24.368 92.4289 24.368ZM91.4209 13.76C90.8449 13.76 90.3649 14.12 89.9809 14.84C89.6129 15.544 89.3809 16.64 89.2849 18.128H93.0529C93.0849 16.864 92.9569 15.824 92.6689 15.008C92.3969 14.176 91.9809 13.76 91.4209 13.76ZM100.635 26.168C99.6106 26.168 98.8426 25.904 98.3306 25.376C97.8346 24.848 97.5866 24.152 97.5866 23.288C97.5866 22.568 97.7706 21.976 98.1386 21.512C98.5226 21.032 98.9786 20.664 99.5066 20.408C100.051 20.152 100.739 19.88 101.571 19.592C102.451 19.288 103.091 19.016 103.491 18.776C103.907 18.52 104.115 18.176 104.115 17.744V15.872C104.115 15.2 103.955 14.68 103.635 14.312C103.331 13.928 102.851 13.736 102.195 13.736C101.427 13.736 100.843 13.928 100.443 14.312C100.891 14.472 101.235 14.712 101.475 15.032C101.731 15.352 101.859 15.728 101.859 16.16C101.859 16.704 101.675 17.136 101.307 17.456C100.939 17.776 100.491 17.936 99.9626 17.936C99.4026 17.936 98.9706 17.76 98.6666 17.408C98.3626 17.056 98.2106 16.616 98.2106 16.088C98.2106 15.64 98.3146 15.264 98.5226 14.96C98.7466 14.64 99.0826 14.344 99.5306 14.072C99.9626 13.816 100.491 13.616 101.115 13.472C101.755 13.328 102.451 13.256 103.203 13.256C103.987 13.256 104.667 13.336 105.243 13.496C105.819 13.656 106.299 13.928 106.683 14.312C107.035 14.664 107.267 15.096 107.379 15.608C107.507 16.12 107.571 16.816 107.571 17.696V24.224C107.571 24.608 107.603 24.88 107.667 25.04C107.747 25.2 107.891 25.28 108.099 25.28C108.339 25.28 108.627 25.144 108.963 24.872L109.203 25.28C108.483 25.872 107.603 26.168 106.563 26.168C105.683 26.168 105.067 25.992 104.715 25.64C104.363 25.288 104.179 24.816 104.163 24.224C103.363 25.52 102.187 26.168 100.635 26.168ZM102.483 24.632C103.107 24.632 103.651 24.304 104.115 23.648V18.728C103.923 19.048 103.515 19.4 102.891 19.784C102.267 20.184 101.795 20.584 101.475 20.984C101.155 21.384 100.995 21.96 100.995 22.712C100.995 23.368 101.131 23.856 101.403 24.176C101.675 24.48 102.035 24.632 102.483 24.632ZM118.145 13.256C118.865 13.256 119.409 13.472 119.777 13.904C120.145 14.336 120.329 14.856 120.329 15.464C120.329 16.056 120.153 16.544 119.801 16.928C119.465 17.296 119.017 17.48 118.457 17.48C117.913 17.48 117.481 17.344 117.161 17.072C116.841 16.784 116.681 16.408 116.681 15.944C116.681 15.176 117.033 14.552 117.737 14.072C117.673 14.056 117.577 14.048 117.449 14.048C117.289 14.048 117.161 14.064 117.065 14.096C116.457 14.192 115.937 14.56 115.505 15.2C115.089 15.84 114.881 16.496 114.881 17.168V23.528C114.881 24.264 115.057 24.776 115.409 25.064C115.777 25.352 116.353 25.496 117.137 25.496V26C116.913 26 116.729 25.992 116.585 25.976C114.953 25.928 113.865 25.904 113.321 25.904C112.889 25.904 111.905 25.928 110.369 25.976C110.241 25.992 110.081 26 109.889 26V25.496C110.465 25.496 110.865 25.376 111.089 25.136C111.313 24.88 111.425 24.424 111.425 23.768V16.208C111.425 15.472 111.313 14.936 111.089 14.6C110.865 14.264 110.465 14.096 109.889 14.096V13.592C110.401 13.64 110.897 13.664 111.377 13.664C112.801 13.664 113.969 13.552 114.881 13.328V15.56C115.185 14.872 115.625 14.32 116.201 13.904C116.777 13.472 117.425 13.256 118.145 13.256ZM127.004 13.256C127.596 13.256 128.156 13.32 128.684 13.448C129.212 13.576 129.652 13.752 130.004 13.976C130.42 14.232 130.74 14.56 130.964 14.96C131.204 15.344 131.324 15.768 131.324 16.232C131.324 16.792 131.148 17.256 130.796 17.624C130.444 17.976 129.988 18.152 129.428 18.152C128.868 18.152 128.42 17.992 128.084 17.672C127.748 17.352 127.58 16.92 127.58 16.376C127.58 15.896 127.732 15.48 128.036 15.128C128.34 14.776 128.716 14.536 129.164 14.408C129.036 14.232 128.836 14.096 128.564 14C128.308 13.888 128.028 13.832 127.724 13.832C126.764 13.832 126.012 14.36 125.468 15.416C124.94 16.456 124.676 17.824 124.676 19.52C124.676 21.232 124.98 22.464 125.588 23.216C126.196 23.968 126.956 24.344 127.868 24.344C128.412 24.344 128.956 24.2 129.5 23.912C130.06 23.624 130.564 23.12 131.012 22.4L131.42 22.544C131.1 23.584 130.54 24.48 129.74 25.232C128.94 25.968 127.908 26.336 126.644 26.336C124.996 26.336 123.652 25.792 122.612 24.704C121.572 23.616 121.052 22 121.052 19.856C121.052 18.448 121.308 17.248 121.82 16.256C122.332 15.264 123.036 14.52 123.932 14.024C124.828 13.512 125.852 13.256 127.004 13.256ZM137.542 15.488C138.262 14 139.566 13.256 141.454 13.256C142.702 13.256 143.582 13.568 144.094 14.192C144.366 14.496 144.558 14.896 144.67 15.392C144.798 15.872 144.862 16.512 144.862 17.312V23.768C144.862 24.424 144.974 24.88 145.198 25.136C145.422 25.376 145.822 25.496 146.398 25.496V26C144.734 25.936 143.678 25.904 143.23 25.904C142.686 25.904 141.646 25.936 140.11 26V25.496C140.59 25.496 140.926 25.376 141.118 25.136C141.31 24.88 141.406 24.424 141.406 23.768V16.304C141.406 15.648 141.294 15.152 141.07 14.816C140.862 14.48 140.478 14.312 139.918 14.312C139.246 14.312 138.678 14.576 138.214 15.104C137.766 15.616 137.542 16.272 137.542 17.072V23.768C137.542 24.424 137.638 24.88 137.83 25.136C138.022 25.376 138.358 25.496 138.838 25.496V26C137.302 25.936 136.31 25.904 135.862 25.904C135.318 25.904 134.214 25.936 132.55 26V25.496C133.11 25.496 133.502 25.376 133.726 25.136C133.966 24.88 134.086 24.424 134.086 23.768V10.112C134.086 9.376 133.966 8.84 133.726 8.504C133.502 8.168 133.11 8 132.55 8V7.496C133.062 7.544 133.558 7.568 134.038 7.568C135.43 7.568 136.598 7.456 137.542 7.232V15.488Z" fill="#CE8200"/>
</svg>
