<svg width="302" height="155" viewBox="0 0 302 155" fill="none" xmlns="http://www.w3.org/2000/svg">
<path d="M36 70.5C16.3873 70.5 0.5 54.8234 0.5 35.5C0.5 16.1766 16.3873 0.5 36 0.5C55.6127 0.5 71.5 16.1766 71.5 35.5C71.5 54.8234 55.6127 70.5 36 70.5Z" fill="#4F4F4F" stroke="black"/>
<g clip-path="url(#clip0)">
<path d="M36 46.859L46.859 36L51.5128 40.6538L40.6538 51.5128L36 46.859Z" stroke="#BDBDBD" stroke-width="2" stroke-linecap="round" stroke-linejoin="round"/>
<path d="M45.3049 37.5524L42.978 25.9178L20.4844 20.4883L25.9139 42.9819L37.5485 45.3088L45.3049 37.5524Z" stroke="#BDBDBD" stroke-width="2" stroke-linecap="round" stroke-linejoin="round"/>
<path d="M20.4844 20.4883L32.2524 32.2563" stroke="#BDBDBD" stroke-width="2" stroke-linecap="round" stroke-linejoin="round"/>
<path d="M34.4463 37.5489C36.1598 37.5489 37.5489 36.1598 37.5489 34.4463C37.5489 32.7328 36.1598 31.3438 34.4463 31.3438C32.7328 31.3438 31.3438 32.7328 31.3438 34.4463C31.3438 36.1598 32.7328 37.5489 34.4463 37.5489Z" stroke="#BDBDBD" stroke-width="2" stroke-linecap="round" stroke-linejoin="round"/>
</g>
<path d="M113.662 12.928C118.082 12.928 121.391 13.9367 123.59 15.954C125.789 17.9487 126.888 20.8613 126.888 24.692C126.888 27.1627 126.344 29.3273 125.256 31.186C124.191 33.022 122.638 34.45 120.598 35.47C118.581 36.49 116.167 37 113.356 37L111.248 36.966C109.933 36.9207 108.981 36.898 108.392 36.898C106.057 36.898 104.312 36.932 103.156 37V36.32C103.904 36.2747 104.448 36.184 104.788 36.048C105.151 35.912 105.389 35.6513 105.502 35.266C105.638 34.8807 105.706 34.2573 105.706 33.396V16.532C105.706 15.6707 105.638 15.0473 105.502 14.662C105.389 14.2767 105.151 14.016 104.788 13.88C104.448 13.744 103.904 13.6533 103.156 13.608V12.928C104.108 12.996 105.479 13.03 107.27 13.03H108.324L109.684 12.996C111.543 12.9507 112.869 12.928 113.662 12.928ZM113.628 13.54C112.925 13.54 112.393 13.6193 112.03 13.778C111.69 13.9367 111.452 14.22 111.316 14.628C111.18 15.036 111.112 15.648 111.112 16.464V33.464C111.112 34.28 111.18 34.892 111.316 35.3C111.452 35.708 111.69 35.9913 112.03 36.15C112.393 36.3087 112.937 36.388 113.662 36.388C116.405 36.388 118.354 35.436 119.51 33.532C120.666 31.6053 121.244 28.704 121.244 24.828C121.244 20.952 120.643 18.1073 119.442 16.294C118.263 14.458 116.325 13.54 113.628 13.54ZM139.208 34.688C141.067 34.688 142.563 33.7813 143.696 31.968L144.308 32.172C143.855 33.6453 143.039 34.9033 141.86 35.946C140.704 36.966 139.254 37.476 137.508 37.476C135.106 37.476 133.19 36.7167 131.762 35.198C130.357 33.6567 129.654 31.39 129.654 28.398C129.654 25.338 130.414 23.0033 131.932 21.394C133.451 19.762 135.468 18.946 137.984 18.946C142.246 18.946 144.376 21.462 144.376 26.494H134.822C134.8 26.834 134.788 27.3667 134.788 28.092C134.788 29.588 134.992 30.8347 135.4 31.832C135.831 32.8293 136.375 33.5547 137.032 34.008C137.712 34.4613 138.438 34.688 139.208 34.688ZM137.78 19.66C136.964 19.66 136.284 20.17 135.74 21.19C135.219 22.1873 134.89 23.74 134.754 25.848H140.092C140.138 24.0573 139.956 22.584 139.548 21.428C139.163 20.2493 138.574 19.66 137.78 19.66ZM153.077 18.946C153.939 18.946 154.732 19.0593 155.457 19.286C156.183 19.49 156.738 19.728 157.123 20C157.35 20.1587 157.554 20.238 157.735 20.238C157.939 20.238 158.109 20.136 158.245 19.932C158.404 19.7053 158.506 19.388 158.551 18.98H159.265C159.175 20.136 159.129 22.1307 159.129 24.964H158.415C158.211 23.468 157.758 22.2213 157.055 21.224C156.375 20.204 155.378 19.694 154.063 19.694C153.383 19.694 152.817 19.8867 152.363 20.272C151.933 20.6573 151.717 21.19 151.717 21.87C151.717 22.6407 151.978 23.3093 152.499 23.876C153.021 24.42 153.837 25.0887 154.947 25.882L155.933 26.596C157.316 27.6387 158.336 28.568 158.993 29.384C159.651 30.2 159.979 31.22 159.979 32.444C159.979 33.4413 159.685 34.3253 159.095 35.096C158.529 35.8667 157.758 36.456 156.783 36.864C155.809 37.272 154.732 37.476 153.553 37.476C152.307 37.476 151.241 37.238 150.357 36.762C149.632 36.3993 149.111 36.1613 148.793 36.048C148.567 35.98 148.363 36.0593 148.181 36.286C148.023 36.49 147.898 36.8073 147.807 37.238H147.093C147.184 35.946 147.229 33.6793 147.229 30.438H147.943C148.397 34.6087 149.927 36.694 152.533 36.694C153.191 36.694 153.746 36.5013 154.199 36.116C154.675 35.708 154.913 35.096 154.913 34.28C154.913 33.6453 154.766 33.0787 154.471 32.58C154.199 32.0813 153.848 31.6393 153.417 31.254C152.987 30.8687 152.341 30.336 151.479 29.656C150.459 28.84 149.677 28.1827 149.133 27.684C148.612 27.1853 148.159 26.596 147.773 25.916C147.411 25.236 147.229 24.4767 147.229 23.638C147.229 22.1873 147.796 21.0427 148.929 20.204C150.063 19.3653 151.445 18.946 153.077 18.946ZM166.47 10.65C167.422 10.65 168.17 10.888 168.714 11.364C169.281 11.8173 169.564 12.452 169.564 13.268C169.564 14.084 169.281 14.73 168.714 15.206C168.17 15.6593 167.422 15.886 166.47 15.886C165.518 15.886 164.759 15.6593 164.192 15.206C163.648 14.73 163.376 14.084 163.376 13.268C163.376 12.452 163.648 11.8173 164.192 11.364C164.759 10.888 165.518 10.65 166.47 10.65ZM169.122 33.838C169.122 34.7673 169.281 35.4133 169.598 35.776C169.938 36.116 170.505 36.286 171.298 36.286V37C169.032 36.9093 167.524 36.864 166.776 36.864C166.074 36.864 164.498 36.9093 162.05 37V36.286C162.866 36.286 163.433 36.116 163.75 35.776C164.068 35.4133 164.226 34.7673 164.226 33.838V23.128C164.226 22.0853 164.068 21.326 163.75 20.85C163.433 20.374 162.866 20.136 162.05 20.136V19.422C162.776 19.49 163.478 19.524 164.158 19.524C166.176 19.524 167.83 19.3653 169.122 19.048V33.838ZM188.891 22.686C188.438 22.686 188.052 22.5387 187.735 22.244C187.418 21.9267 187.259 21.4847 187.259 20.918C187.259 20.374 187.395 19.8187 187.667 19.252C187.123 19.4787 186.67 19.7393 186.307 20.034C185.967 20.306 185.672 20.6573 185.423 21.088C186.126 21.9267 186.477 23.0147 186.477 24.352C186.477 26.1427 185.854 27.4913 184.607 28.398C183.383 29.3047 181.751 29.758 179.711 29.758H179.099C178.17 30.302 177.705 30.9027 177.705 31.56C177.705 32.2853 178.158 32.648 179.065 32.648H182.771C184.766 32.648 186.352 33.022 187.531 33.77C188.732 34.4953 189.333 35.6173 189.333 37.136C189.333 38.292 188.959 39.3347 188.211 40.264C187.486 41.216 186.375 41.9753 184.879 42.542C183.383 43.1087 181.547 43.392 179.371 43.392C177.172 43.392 175.404 43.1087 174.067 42.542C172.752 41.998 172.095 41.2047 172.095 40.162C172.095 39.4593 172.412 38.8247 173.047 38.258C173.682 37.714 174.622 37.2833 175.869 36.966L176.175 37.51C175.359 38.19 174.951 38.972 174.951 39.856C174.951 40.808 175.382 41.5333 176.243 42.032C177.104 42.5533 178.294 42.814 179.813 42.814C181.4 42.814 182.68 42.4967 183.655 41.862C184.652 41.2273 185.151 40.332 185.151 39.176C185.151 38.428 184.868 37.8387 184.301 37.408C183.757 36.9773 182.794 36.762 181.411 36.762H179.303C177.852 36.762 176.719 36.524 175.903 36.048C175.087 35.5493 174.679 34.8013 174.679 33.804C174.679 32.9653 174.974 32.2173 175.563 31.56C176.152 30.9027 177.048 30.268 178.249 29.656C176.617 29.452 175.325 28.908 174.373 28.024C173.421 27.14 172.945 25.916 172.945 24.352C172.945 22.5613 173.557 21.2127 174.781 20.306C176.028 19.3993 177.671 18.946 179.711 18.946C181.978 18.946 183.712 19.4787 184.913 20.544C185.344 19.932 185.876 19.4447 186.511 19.082C187.146 18.7193 187.792 18.538 188.449 18.538C189.129 18.538 189.662 18.742 190.047 19.15C190.455 19.5353 190.659 20.0453 190.659 20.68C190.659 21.3147 190.478 21.8133 190.115 22.176C189.775 22.516 189.367 22.686 188.891 22.686ZM179.711 29.146C180.346 29.146 180.822 28.7833 181.139 28.058C181.479 27.3327 181.649 26.0973 181.649 24.352C181.649 22.6067 181.479 21.3713 181.139 20.646C180.822 19.9207 180.346 19.558 179.711 19.558C179.076 19.558 178.589 19.9207 178.249 20.646C177.932 21.3713 177.773 22.6067 177.773 24.352C177.773 26.0973 177.932 27.3327 178.249 28.058C178.589 28.7833 179.076 29.146 179.711 29.146ZM204.216 18.946C205.939 18.946 207.185 19.388 207.956 20.272C208.341 20.7027 208.613 21.258 208.772 21.938C208.931 22.618 209.01 23.536 209.01 24.692V33.838C209.01 34.7673 209.169 35.4133 209.486 35.776C209.826 36.116 210.393 36.286 211.186 36.286V37C208.919 36.9093 207.423 36.864 206.698 36.864C206.018 36.864 204.545 36.9093 202.278 37V36.286C202.958 36.286 203.434 36.116 203.706 35.776C203.978 35.4133 204.114 34.7673 204.114 33.838V23.264C204.114 22.3347 203.955 21.632 203.638 21.156C203.343 20.68 202.799 20.442 202.006 20.442C201.077 20.442 200.283 20.8273 199.626 21.598C198.969 22.346 198.64 23.2753 198.64 24.386V33.838C198.64 34.7673 198.776 35.4133 199.048 35.776C199.32 36.116 199.796 36.286 200.476 36.286V37C198.391 36.9093 196.985 36.864 196.26 36.864C195.58 36.864 194.016 36.9093 191.568 37V36.286C192.384 36.286 192.951 36.116 193.268 35.776C193.585 35.4133 193.744 34.7673 193.744 33.838V23.128C193.744 22.0853 193.585 21.326 193.268 20.85C192.951 20.374 192.384 20.136 191.568 20.136V19.422C192.293 19.49 192.996 19.524 193.676 19.524C195.693 19.524 197.348 19.3653 198.64 19.048V22.108C199.66 20 201.519 18.946 204.216 18.946Z" fill="#4F4F4F"/>
<path d="M110.88 67.224C111.616 67.384 112.181 67.704 112.576 68.184C112.981 68.6533 113.184 69.2613 113.184 70.008C113.184 70.968 112.827 71.7093 112.112 72.232C111.408 72.744 110.363 73 108.976 73H103.824V61.8H108.656C109.904 61.8 110.869 62.0507 111.552 62.552C112.245 63.0533 112.592 63.7627 112.592 64.68C112.592 65.2987 112.437 65.8267 112.128 66.264C111.829 66.6907 111.413 67.0107 110.88 67.224ZM105.008 62.776V66.84H108.576C109.483 66.84 110.181 66.6693 110.672 66.328C111.163 65.976 111.408 65.4693 111.408 64.808C111.408 64.1467 111.163 63.6453 110.672 63.304C110.181 62.952 109.483 62.776 108.576 62.776H105.008ZM108.96 72.024C109.963 72.024 110.72 71.8533 111.232 71.512C111.744 71.1707 112 70.6373 112 69.912C112 68.5147 110.987 67.816 108.96 67.816H105.008V72.024H108.96ZM116.735 66.232C117.001 65.6667 117.396 65.24 117.919 64.952C118.452 64.664 119.108 64.52 119.887 64.52V65.624L119.615 65.608C118.729 65.608 118.036 65.88 117.535 66.424C117.033 66.968 116.783 67.7307 116.783 68.712V73H115.647V64.584H116.735V66.232ZM124.872 64.52C125.97 64.52 126.813 64.7973 127.4 65.352C127.986 65.896 128.28 66.7067 128.28 67.784V73H127.192V71.688C126.936 72.1253 126.557 72.4667 126.056 72.712C125.565 72.9573 124.978 73.08 124.296 73.08C123.357 73.08 122.61 72.856 122.056 72.408C121.501 71.96 121.224 71.368 121.224 70.632C121.224 69.9173 121.48 69.3413 121.992 68.904C122.514 68.4667 123.341 68.248 124.472 68.248H127.144V67.736C127.144 67.0107 126.941 66.4613 126.536 66.088C126.13 65.704 125.538 65.512 124.76 65.512C124.226 65.512 123.714 65.6027 123.224 65.784C122.733 65.9547 122.312 66.1947 121.96 66.504L121.448 65.656C121.874 65.2933 122.386 65.016 122.984 64.824C123.581 64.6213 124.21 64.52 124.872 64.52ZM124.472 72.184C125.112 72.184 125.661 72.04 126.12 71.752C126.578 71.4533 126.92 71.0267 127.144 70.472V69.096H124.504C123.064 69.096 122.344 69.5973 122.344 70.6C122.344 71.0907 122.53 71.48 122.904 71.768C123.277 72.0453 123.8 72.184 124.472 72.184ZM131.365 64.584H132.501V73H131.365V64.584ZM131.941 62.744C131.707 62.744 131.509 62.664 131.349 62.504C131.189 62.344 131.109 62.152 131.109 61.928C131.109 61.7147 131.189 61.528 131.349 61.368C131.509 61.208 131.707 61.128 131.941 61.128C132.176 61.128 132.373 61.208 132.533 61.368C132.693 61.5173 132.773 61.6987 132.773 61.912C132.773 62.1467 132.693 62.344 132.533 62.504C132.373 62.664 132.176 62.744 131.941 62.744ZM139.95 64.52C141.006 64.52 141.843 64.8293 142.462 65.448C143.091 66.056 143.406 66.9467 143.406 68.12V73H142.27V68.232C142.27 67.3573 142.051 66.6907 141.614 66.232C141.177 65.7733 140.553 65.544 139.742 65.544C138.835 65.544 138.115 65.816 137.582 66.36C137.059 66.8933 136.798 67.6347 136.798 68.584V73H135.662V64.584H136.75V66.136C137.059 65.624 137.486 65.2293 138.03 64.952C138.585 64.664 139.225 64.52 139.95 64.52ZM148.746 73.08C148.064 73.08 147.408 72.984 146.778 72.792C146.16 72.5893 145.674 72.3387 145.322 72.04L145.834 71.144C146.186 71.4213 146.629 71.6507 147.162 71.832C147.696 72.0027 148.25 72.088 148.826 72.088C149.594 72.088 150.16 71.9707 150.522 71.736C150.896 71.4907 151.082 71.1493 151.082 70.712C151.082 70.4027 150.981 70.1627 150.778 69.992C150.576 69.8107 150.32 69.6773 150.01 69.592C149.701 69.496 149.29 69.4053 148.778 69.32C148.096 69.192 147.546 69.064 147.13 68.936C146.714 68.7973 146.357 68.568 146.058 68.248C145.77 67.928 145.626 67.4853 145.626 66.92C145.626 66.216 145.92 65.64 146.506 65.192C147.093 64.744 147.909 64.52 148.954 64.52C149.498 64.52 150.042 64.5947 150.586 64.744C151.13 64.8827 151.578 65.0693 151.93 65.304L151.434 66.216C150.741 65.736 149.914 65.496 148.954 65.496C148.229 65.496 147.68 65.624 147.306 65.88C146.944 66.136 146.762 66.472 146.762 66.888C146.762 67.208 146.864 67.464 147.066 67.656C147.28 67.848 147.541 67.992 147.85 68.088C148.16 68.1733 148.586 68.264 149.13 68.36C149.802 68.488 150.341 68.616 150.746 68.744C151.152 68.872 151.498 69.0907 151.786 69.4C152.074 69.7093 152.218 70.136 152.218 70.68C152.218 71.416 151.909 72.0027 151.29 72.44C150.682 72.8667 149.834 73.08 148.746 73.08ZM158.75 72.488C158.537 72.68 158.27 72.8293 157.95 72.936C157.641 73.032 157.316 73.08 156.974 73.08C156.185 73.08 155.577 72.8667 155.15 72.44C154.724 72.0133 154.51 71.4107 154.51 70.632V65.544H153.006V64.584H154.51V62.744H155.646V64.584H158.206V65.544H155.646V70.568C155.646 71.0693 155.769 71.4533 156.014 71.72C156.27 71.976 156.633 72.104 157.102 72.104C157.337 72.104 157.561 72.0667 157.774 71.992C157.998 71.9173 158.19 71.8107 158.35 71.672L158.75 72.488ZM163.962 73.08C163.151 73.08 162.42 72.8987 161.77 72.536C161.119 72.1627 160.607 71.6507 160.234 71C159.86 70.3493 159.674 69.6133 159.674 68.792C159.674 67.9707 159.86 67.2347 160.234 66.584C160.607 65.9333 161.119 65.4267 161.77 65.064C162.42 64.7013 163.151 64.52 163.962 64.52C164.772 64.52 165.503 64.7013 166.154 65.064C166.804 65.4267 167.311 65.9333 167.674 66.584C168.047 67.2347 168.234 67.9707 168.234 68.792C168.234 69.6133 168.047 70.3493 167.674 71C167.311 71.6507 166.804 72.1627 166.154 72.536C165.503 72.8987 164.772 73.08 163.962 73.08ZM163.962 72.072C164.559 72.072 165.092 71.9387 165.562 71.672C166.042 71.3947 166.415 71.0053 166.682 70.504C166.948 70.0027 167.082 69.432 167.082 68.792C167.082 68.152 166.948 67.5813 166.682 67.08C166.415 66.5787 166.042 66.1947 165.562 65.928C165.092 65.6507 164.559 65.512 163.962 65.512C163.364 65.512 162.826 65.6507 162.346 65.928C161.876 66.1947 161.503 66.5787 161.226 67.08C160.959 67.5813 160.826 68.152 160.826 68.792C160.826 69.432 160.959 70.0027 161.226 70.504C161.503 71.0053 161.876 71.3947 162.346 71.672C162.826 71.9387 163.364 72.072 163.962 72.072ZM171.641 66.232C171.907 65.6667 172.302 65.24 172.825 64.952C173.358 64.664 174.014 64.52 174.793 64.52V65.624L174.521 65.608C173.635 65.608 172.942 65.88 172.441 66.424C171.939 66.968 171.689 67.7307 171.689 68.712V73H170.553V64.584H171.641V66.232ZM187.346 64.52C188.402 64.52 189.228 64.824 189.826 65.432C190.434 66.04 190.738 66.936 190.738 68.12V73H189.602V68.232C189.602 67.3573 189.388 66.6907 188.962 66.232C188.546 65.7733 187.954 65.544 187.186 65.544C186.311 65.544 185.623 65.816 185.122 66.36C184.62 66.8933 184.37 67.6347 184.37 68.584V73H183.234V68.232C183.234 67.3573 183.02 66.6907 182.594 66.232C182.178 65.7733 181.58 65.544 180.802 65.544C179.938 65.544 179.25 65.816 178.738 66.36C178.236 66.8933 177.986 67.6347 177.986 68.584V73H176.85V64.584H177.938V66.12C178.236 65.608 178.652 65.2133 179.186 64.936C179.719 64.6587 180.332 64.52 181.026 64.52C181.73 64.52 182.338 64.6693 182.85 64.968C183.372 65.2667 183.762 65.7093 184.018 66.296C184.327 65.7413 184.77 65.3093 185.346 65C185.932 64.68 186.599 64.52 187.346 64.52ZM198.006 64.584H199.142V73H198.006V64.584ZM198.582 62.744C198.347 62.744 198.15 62.664 197.99 62.504C197.83 62.344 197.75 62.152 197.75 61.928C197.75 61.7147 197.83 61.528 197.99 61.368C198.15 61.208 198.347 61.128 198.582 61.128C198.817 61.128 199.014 61.208 199.174 61.368C199.334 61.5173 199.414 61.6987 199.414 61.912C199.414 62.1467 199.334 62.344 199.174 62.504C199.014 62.664 198.817 62.744 198.582 62.744ZM209.983 61.128V73H208.895V71.336C208.553 71.9013 208.1 72.3333 207.535 72.632C206.98 72.9307 206.351 73.08 205.647 73.08C204.857 73.08 204.143 72.8987 203.503 72.536C202.863 72.1733 202.361 71.6667 201.999 71.016C201.636 70.3653 201.455 69.624 201.455 68.792C201.455 67.96 201.636 67.2187 201.999 66.568C202.361 65.9173 202.863 65.416 203.503 65.064C204.143 64.7013 204.857 64.52 205.647 64.52C206.329 64.52 206.943 64.664 207.487 64.952C208.041 65.2293 208.495 65.64 208.847 66.184V61.128H209.983ZM205.743 72.072C206.329 72.072 206.857 71.9387 207.327 71.672C207.807 71.3947 208.18 71.0053 208.447 70.504C208.724 70.0027 208.863 69.432 208.863 68.792C208.863 68.152 208.724 67.5813 208.447 67.08C208.18 66.5787 207.807 66.1947 207.327 65.928C206.857 65.6507 206.329 65.512 205.743 65.512C205.145 65.512 204.607 65.6507 204.127 65.928C203.657 66.1947 203.284 66.5787 203.007 67.08C202.74 67.5813 202.607 68.152 202.607 68.792C202.607 69.432 202.74 70.0027 203.007 70.504C203.284 71.0053 203.657 71.3947 204.127 71.672C204.607 71.9387 205.145 72.072 205.743 72.072ZM220.475 69.144H213.435C213.499 70.0187 213.835 70.728 214.443 71.272C215.051 71.8053 215.819 72.072 216.747 72.072C217.269 72.072 217.749 71.9813 218.187 71.8C218.624 71.608 219.003 71.3307 219.323 70.968L219.963 71.704C219.589 72.152 219.12 72.4933 218.555 72.728C218 72.9627 217.387 73.08 216.715 73.08C215.851 73.08 215.083 72.8987 214.411 72.536C213.749 72.1627 213.232 71.6507 212.859 71C212.485 70.3493 212.299 69.6133 212.299 68.792C212.299 67.9707 212.475 67.2347 212.827 66.584C213.189 65.9333 213.68 65.4267 214.299 65.064C214.928 64.7013 215.632 64.52 216.411 64.52C217.189 64.52 217.888 64.7013 218.507 65.064C219.125 65.4267 219.611 65.9333 219.963 66.584C220.315 67.224 220.491 67.96 220.491 68.792L220.475 69.144ZM216.411 65.496C215.6 65.496 214.917 65.7573 214.363 66.28C213.819 66.792 213.509 67.464 213.435 68.296H219.403C219.328 67.464 219.013 66.792 218.459 66.28C217.915 65.7573 217.232 65.496 216.411 65.496ZM225.512 64.52C226.611 64.52 227.454 64.7973 228.04 65.352C228.627 65.896 228.92 66.7067 228.92 67.784V73H227.832V71.688C227.576 72.1253 227.198 72.4667 226.696 72.712C226.206 72.9573 225.619 73.08 224.936 73.08C223.998 73.08 223.251 72.856 222.696 72.408C222.142 71.96 221.864 71.368 221.864 70.632C221.864 69.9173 222.12 69.3413 222.632 68.904C223.155 68.4667 223.982 68.248 225.112 68.248H227.784V67.736C227.784 67.0107 227.582 66.4613 227.176 66.088C226.771 65.704 226.179 65.512 225.4 65.512C224.867 65.512 224.355 65.6027 223.864 65.784C223.374 65.9547 222.952 66.1947 222.6 66.504L222.088 65.656C222.515 65.2933 223.027 65.016 223.624 64.824C224.222 64.6213 224.851 64.52 225.512 64.52ZM225.112 72.184C225.752 72.184 226.302 72.04 226.76 71.752C227.219 71.4533 227.56 71.0267 227.784 70.472V69.096H225.144C223.704 69.096 222.984 69.5973 222.984 70.6C222.984 71.0907 223.171 71.48 223.544 71.768C223.918 72.0453 224.44 72.184 225.112 72.184ZM236.438 72.488C236.225 72.68 235.958 72.8293 235.638 72.936C235.329 73.032 235.003 73.08 234.662 73.08C233.873 73.08 233.265 72.8667 232.838 72.44C232.411 72.0133 232.198 71.4107 232.198 70.632V65.544H230.694V64.584H232.198V62.744H233.334V64.584H235.894V65.544H233.334V70.568C233.334 71.0693 233.457 71.4533 233.702 71.72C233.958 71.976 234.321 72.104 234.79 72.104C235.025 72.104 235.249 72.0667 235.462 71.992C235.686 71.9173 235.878 71.8107 236.038 71.672L236.438 72.488ZM238.506 64.584H239.642V73H238.506V64.584ZM239.082 62.744C238.847 62.744 238.65 62.664 238.49 62.504C238.33 62.344 238.25 62.152 238.25 61.928C238.25 61.7147 238.33 61.528 238.49 61.368C238.65 61.208 238.847 61.128 239.082 61.128C239.317 61.128 239.514 61.208 239.674 61.368C239.834 61.5173 239.914 61.6987 239.914 61.912C239.914 62.1467 239.834 62.344 239.674 62.504C239.514 62.664 239.317 62.744 239.082 62.744ZM246.243 73.08C245.432 73.08 244.701 72.8987 244.051 72.536C243.4 72.1627 242.888 71.6507 242.515 71C242.141 70.3493 241.955 69.6133 241.955 68.792C241.955 67.9707 242.141 67.2347 242.515 66.584C242.888 65.9333 243.4 65.4267 244.051 65.064C244.701 64.7013 245.432 64.52 246.243 64.52C247.053 64.52 247.784 64.7013 248.435 65.064C249.085 65.4267 249.592 65.9333 249.955 66.584C250.328 67.2347 250.515 67.9707 250.515 68.792C250.515 69.6133 250.328 70.3493 249.955 71C249.592 71.6507 249.085 72.1627 248.435 72.536C247.784 72.8987 247.053 73.08 246.243 73.08ZM246.243 72.072C246.84 72.072 247.373 71.9387 247.843 71.672C248.323 71.3947 248.696 71.0053 248.963 70.504C249.229 70.0027 249.363 69.432 249.363 68.792C249.363 68.152 249.229 67.5813 248.963 67.08C248.696 66.5787 248.323 66.1947 247.843 65.928C247.373 65.6507 246.84 65.512 246.243 65.512C245.645 65.512 245.107 65.6507 244.627 65.928C244.157 66.1947 243.784 66.5787 243.507 67.08C243.24 67.5813 243.107 68.152 243.107 68.792C243.107 69.432 243.24 70.0027 243.507 70.504C243.784 71.0053 244.157 71.3947 244.627 71.672C245.107 71.9387 245.645 72.072 246.243 72.072ZM257.122 64.52C258.178 64.52 259.015 64.8293 259.634 65.448C260.263 66.056 260.578 66.9467 260.578 68.12V73H259.442V68.232C259.442 67.3573 259.223 66.6907 258.786 66.232C258.349 65.7733 257.725 65.544 256.914 65.544C256.007 65.544 255.287 65.816 254.754 66.36C254.231 66.8933 253.97 67.6347 253.97 68.584V73H252.834V64.584H253.922V66.136C254.231 65.624 254.658 65.2293 255.202 64.952C255.757 64.664 256.397 64.52 257.122 64.52ZM106 87.824H102.064V86.8H111.12V87.824H107.184V98H106V87.824ZM115.247 89.52C116.345 89.52 117.188 89.7973 117.775 90.352C118.361 90.896 118.655 91.7067 118.655 92.784V98H117.567V96.688C117.311 97.1253 116.932 97.4667 116.431 97.712C115.94 97.9573 115.353 98.08 114.671 98.08C113.732 98.08 112.985 97.856 112.431 97.408C111.876 96.96 111.599 96.368 111.599 95.632C111.599 94.9173 111.855 94.3413 112.367 93.904C112.889 93.4667 113.716 93.248 114.847 93.248H117.519V92.736C117.519 92.0107 117.316 91.4613 116.911 91.088C116.505 90.704 115.913 90.512 115.135 90.512C114.601 90.512 114.089 90.6027 113.599 90.784C113.108 90.9547 112.687 91.1947 112.335 91.504L111.823 90.656C112.249 90.2933 112.761 90.016 113.359 89.824C113.956 89.6213 114.585 89.52 115.247 89.52ZM114.847 97.184C115.487 97.184 116.036 97.04 116.495 96.752C116.953 96.4533 117.295 96.0267 117.519 95.472V94.096H114.879C113.439 94.096 112.719 94.5973 112.719 95.6C112.719 96.0907 112.905 96.48 113.279 96.768C113.652 97.0453 114.175 97.184 114.847 97.184ZM123.996 98.08C123.314 98.08 122.658 97.984 122.028 97.792C121.41 97.5893 120.924 97.3387 120.572 97.04L121.084 96.144C121.436 96.4213 121.879 96.6507 122.412 96.832C122.946 97.0027 123.5 97.088 124.076 97.088C124.844 97.088 125.41 96.9707 125.772 96.736C126.146 96.4907 126.332 96.1493 126.332 95.712C126.332 95.4027 126.231 95.1627 126.028 94.992C125.826 94.8107 125.57 94.6773 125.26 94.592C124.951 94.496 124.54 94.4053 124.028 94.32C123.346 94.192 122.796 94.064 122.38 93.936C121.964 93.7973 121.607 93.568 121.308 93.248C121.02 92.928 120.876 92.4853 120.876 91.92C120.876 91.216 121.17 90.64 121.756 90.192C122.343 89.744 123.159 89.52 124.204 89.52C124.748 89.52 125.292 89.5947 125.836 89.744C126.38 89.8827 126.828 90.0693 127.18 90.304L126.684 91.216C125.991 90.736 125.164 90.496 124.204 90.496C123.479 90.496 122.93 90.624 122.556 90.88C122.194 91.136 122.012 91.472 122.012 91.888C122.012 92.208 122.114 92.464 122.316 92.656C122.53 92.848 122.791 92.992 123.1 93.088C123.41 93.1733 123.836 93.264 124.38 93.36C125.052 93.488 125.591 93.616 125.996 93.744C126.402 93.872 126.748 94.0907 127.036 94.4C127.324 94.7093 127.468 95.136 127.468 95.68C127.468 96.416 127.159 97.0027 126.54 97.44C125.932 97.8667 125.084 98.08 123.996 98.08ZM132.688 93.776L130.704 95.6V98H129.568V86.128H130.704V94.176L135.728 89.584H137.136L133.536 93.024L137.472 98H136.08L132.688 93.776ZM146.149 87.008C145.659 87.008 145.285 87.1413 145.029 87.408C144.784 87.6747 144.661 88.0693 144.661 88.592V89.584H147.253V90.544H144.693V98H143.557V90.544H142.053V89.584H143.557V88.544C143.557 87.776 143.776 87.168 144.213 86.72C144.661 86.272 145.291 86.048 146.101 86.048C146.421 86.048 146.731 86.096 147.029 86.192C147.328 86.2773 147.579 86.4053 147.781 86.576L147.397 87.424C147.067 87.1467 146.651 87.008 146.149 87.008ZM148.789 86.128H149.925V98H148.789V86.128ZM156.54 98.08C155.729 98.08 154.998 97.8987 154.348 97.536C153.697 97.1627 153.185 96.6507 152.812 96C152.438 95.3493 152.252 94.6133 152.252 93.792C152.252 92.9707 152.438 92.2347 152.812 91.584C153.185 90.9333 153.697 90.4267 154.348 90.064C154.998 89.7013 155.729 89.52 156.54 89.52C157.35 89.52 158.081 89.7013 158.732 90.064C159.382 90.4267 159.889 90.9333 160.252 91.584C160.625 92.2347 160.812 92.9707 160.812 93.792C160.812 94.6133 160.625 95.3493 160.252 96C159.889 96.6507 159.382 97.1627 158.732 97.536C158.081 97.8987 157.35 98.08 156.54 98.08ZM156.54 97.072C157.137 97.072 157.67 96.9387 158.14 96.672C158.62 96.3947 158.993 96.0053 159.26 95.504C159.526 95.0027 159.66 94.432 159.66 93.792C159.66 93.152 159.526 92.5813 159.26 92.08C158.993 91.5787 158.62 91.1947 158.14 90.928C157.67 90.6507 157.137 90.512 156.54 90.512C155.942 90.512 155.404 90.6507 154.924 90.928C154.454 91.1947 154.081 91.5787 153.804 92.08C153.537 92.5813 153.404 93.152 153.404 93.792C153.404 94.432 153.537 95.0027 153.804 95.504C154.081 96.0053 154.454 96.3947 154.924 96.672C155.404 96.9387 155.942 97.072 156.54 97.072ZM175.249 89.584L172.065 98H170.993L168.337 91.104L165.681 98H164.609L161.441 89.584H162.529L165.169 96.736L167.873 89.584H168.849L171.537 96.736L174.209 89.584H175.249ZM179.121 98.08C178.439 98.08 177.783 97.984 177.153 97.792C176.535 97.5893 176.049 97.3387 175.697 97.04L176.209 96.144C176.561 96.4213 177.004 96.6507 177.537 96.832C178.071 97.0027 178.625 97.088 179.201 97.088C179.969 97.088 180.535 96.9707 180.897 96.736C181.271 96.4907 181.457 96.1493 181.457 95.712C181.457 95.4027 181.356 95.1627 181.153 94.992C180.951 94.8107 180.695 94.6773 180.385 94.592C180.076 94.496 179.665 94.4053 179.153 94.32C178.471 94.192 177.921 94.064 177.505 93.936C177.089 93.7973 176.732 93.568 176.433 93.248C176.145 92.928 176.001 92.4853 176.001 91.92C176.001 91.216 176.295 90.64 176.881 90.192C177.468 89.744 178.284 89.52 179.329 89.52C179.873 89.52 180.417 89.5947 180.961 89.744C181.505 89.8827 181.953 90.0693 182.305 90.304L181.809 91.216C181.116 90.736 180.289 90.496 179.329 90.496C178.604 90.496 178.055 90.624 177.681 90.88C177.319 91.136 177.137 91.472 177.137 91.888C177.137 92.208 177.239 92.464 177.441 92.656C177.655 92.848 177.916 92.992 178.225 93.088C178.535 93.1733 178.961 93.264 179.505 93.36C180.177 93.488 180.716 93.616 181.121 93.744C181.527 93.872 181.873 94.0907 182.161 94.4C182.449 94.7093 182.593 95.136 182.593 95.68C182.593 96.416 182.284 97.0027 181.665 97.44C181.057 97.8667 180.209 98.08 179.121 98.08ZM119.2 111.8L115.424 123H114.176L110.896 113.448L107.6 123H106.368L102.592 111.8H103.808L107.04 121.432L110.384 111.8H111.488L114.784 121.48L118.064 111.8H119.2ZM121.084 114.584H122.22V123H121.084V114.584ZM121.66 112.744C121.425 112.744 121.228 112.664 121.068 112.504C120.908 112.344 120.828 112.152 120.828 111.928C120.828 111.715 120.908 111.528 121.068 111.368C121.228 111.208 121.425 111.128 121.66 111.128C121.895 111.128 122.092 111.208 122.252 111.368C122.412 111.517 122.492 111.699 122.492 111.912C122.492 112.147 122.412 112.344 122.252 112.504C122.092 112.664 121.895 112.744 121.66 112.744ZM126.469 116.232C126.736 115.667 127.13 115.24 127.653 114.952C128.186 114.664 128.842 114.52 129.621 114.52V115.624L129.349 115.608C128.464 115.608 127.77 115.88 127.269 116.424C126.768 116.968 126.517 117.731 126.517 118.712V123H125.381V114.584H126.469V116.232ZM138.928 119.144H131.888C131.952 120.019 132.288 120.728 132.896 121.272C133.504 121.805 134.272 122.072 135.2 122.072C135.722 122.072 136.202 121.981 136.64 121.8C137.077 121.608 137.456 121.331 137.776 120.968L138.416 121.704C138.042 122.152 137.573 122.493 137.008 122.728C136.453 122.963 135.84 123.08 135.168 123.08C134.304 123.08 133.536 122.899 132.864 122.536C132.202 122.163 131.685 121.651 131.312 121C130.938 120.349 130.752 119.613 130.752 118.792C130.752 117.971 130.928 117.235 131.28 116.584C131.642 115.933 132.133 115.427 132.752 115.064C133.381 114.701 134.085 114.52 134.864 114.52C135.642 114.52 136.341 114.701 136.96 115.064C137.578 115.427 138.064 115.933 138.416 116.584C138.768 117.224 138.944 117.96 138.944 118.792L138.928 119.144ZM134.864 115.496C134.053 115.496 133.37 115.757 132.816 116.28C132.272 116.792 131.962 117.464 131.888 118.296H137.856C137.781 117.464 137.466 116.792 136.912 116.28C136.368 115.757 135.685 115.496 134.864 115.496ZM144.04 112.008C143.549 112.008 143.176 112.141 142.92 112.408C142.675 112.675 142.552 113.069 142.552 113.592V114.584H145.144V115.544H142.584V123H141.448V115.544H139.944V114.584H141.448V113.544C141.448 112.776 141.667 112.168 142.104 111.72C142.552 111.272 143.181 111.048 143.992 111.048C144.312 111.048 144.621 111.096 144.92 111.192C145.219 111.277 145.469 111.405 145.672 111.576L145.288 112.424C144.957 112.147 144.541 112.008 144.04 112.008ZM149.047 116.232C149.314 115.667 149.708 115.24 150.231 114.952C150.764 114.664 151.42 114.52 152.199 114.52V115.624L151.927 115.608C151.042 115.608 150.348 115.88 149.847 116.424C149.346 116.968 149.095 117.731 149.095 118.712V123H147.959V114.584H149.047V116.232ZM157.184 114.52C158.283 114.52 159.126 114.797 159.712 115.352C160.299 115.896 160.592 116.707 160.592 117.784V123H159.504V121.688C159.248 122.125 158.87 122.467 158.368 122.712C157.878 122.957 157.291 123.08 156.608 123.08C155.67 123.08 154.923 122.856 154.368 122.408C153.814 121.96 153.536 121.368 153.536 120.632C153.536 119.917 153.792 119.341 154.304 118.904C154.827 118.467 155.654 118.248 156.784 118.248H159.456V117.736C159.456 117.011 159.254 116.461 158.848 116.088C158.443 115.704 157.851 115.512 157.072 115.512C156.539 115.512 156.027 115.603 155.536 115.784C155.046 115.955 154.624 116.195 154.272 116.504L153.76 115.656C154.187 115.293 154.699 115.016 155.296 114.824C155.894 114.621 156.523 114.52 157.184 114.52ZM156.784 122.184C157.424 122.184 157.974 122.04 158.432 121.752C158.891 121.453 159.232 121.027 159.456 120.472V119.096H156.816C155.376 119.096 154.656 119.597 154.656 120.6C154.656 121.091 154.843 121.48 155.216 121.768C155.59 122.045 156.112 122.184 156.784 122.184ZM174.174 114.52C175.23 114.52 176.056 114.824 176.654 115.432C177.262 116.04 177.566 116.936 177.566 118.12V123H176.43V118.232C176.43 117.357 176.216 116.691 175.79 116.232C175.374 115.773 174.782 115.544 174.014 115.544C173.139 115.544 172.451 115.816 171.95 116.36C171.448 116.893 171.198 117.635 171.198 118.584V123H170.062V118.232C170.062 117.357 169.848 116.691 169.422 116.232C169.006 115.773 168.408 115.544 167.63 115.544C166.766 115.544 166.078 115.816 165.566 116.36C165.064 116.893 164.814 117.635 164.814 118.584V123H163.678V114.584H164.766V116.12C165.064 115.608 165.48 115.213 166.014 114.936C166.547 114.659 167.16 114.52 167.854 114.52C168.558 114.52 169.166 114.669 169.678 114.968C170.2 115.267 170.59 115.709 170.846 116.296C171.155 115.741 171.598 115.309 172.174 115C172.76 114.68 173.427 114.52 174.174 114.52ZM188.006 119.144H180.966C181.03 120.019 181.366 120.728 181.974 121.272C182.582 121.805 183.35 122.072 184.278 122.072C184.8 122.072 185.28 121.981 185.718 121.8C186.155 121.608 186.534 121.331 186.854 120.968L187.494 121.704C187.12 122.152 186.651 122.493 186.086 122.728C185.531 122.963 184.918 123.08 184.246 123.08C183.382 123.08 182.614 122.899 181.942 122.536C181.28 122.163 180.763 121.651 180.39 121C180.016 120.349 179.83 119.613 179.83 118.792C179.83 117.971 180.006 117.235 180.358 116.584C180.72 115.933 181.211 115.427 181.83 115.064C182.459 114.701 183.163 114.52 183.942 114.52C184.72 114.52 185.419 114.701 186.038 115.064C186.656 115.427 187.142 115.933 187.494 116.584C187.846 117.224 188.022 117.96 188.022 118.792L188.006 119.144ZM183.942 115.496C183.131 115.496 182.448 115.757 181.894 116.28C181.35 116.792 181.04 117.464 180.966 118.296H186.934C186.859 117.464 186.544 116.792 185.99 116.28C185.446 115.757 184.763 115.496 183.942 115.496ZM192.59 123.08C191.907 123.08 191.251 122.984 190.622 122.792C190.003 122.589 189.518 122.339 189.166 122.04L189.678 121.144C190.03 121.421 190.473 121.651 191.006 121.832C191.539 122.003 192.094 122.088 192.67 122.088C193.438 122.088 194.003 121.971 194.366 121.736C194.739 121.491 194.926 121.149 194.926 120.712C194.926 120.403 194.825 120.163 194.622 119.992C194.419 119.811 194.163 119.677 193.854 119.592C193.545 119.496 193.134 119.405 192.622 119.32C191.939 119.192 191.39 119.064 190.974 118.936C190.558 118.797 190.201 118.568 189.902 118.248C189.614 117.928 189.47 117.485 189.47 116.92C189.47 116.216 189.763 115.64 190.35 115.192C190.937 114.744 191.753 114.52 192.798 114.52C193.342 114.52 193.886 114.595 194.43 114.744C194.974 114.883 195.422 115.069 195.774 115.304L195.278 116.216C194.585 115.736 193.758 115.496 192.798 115.496C192.073 115.496 191.523 115.624 191.15 115.88C190.787 116.136 190.606 116.472 190.606 116.888C190.606 117.208 190.707 117.464 190.91 117.656C191.123 117.848 191.385 117.992 191.694 118.088C192.003 118.173 192.43 118.264 192.974 118.36C193.646 118.488 194.185 118.616 194.59 118.744C194.995 118.872 195.342 119.091 195.63 119.4C195.918 119.709 196.062 120.136 196.062 120.68C196.062 121.416 195.753 122.003 195.134 122.44C194.526 122.867 193.678 123.08 192.59 123.08ZM103.824 136.8H105.008V148H103.824V136.8ZM112.7 139.52C113.756 139.52 114.593 139.829 115.212 140.448C115.841 141.056 116.156 141.947 116.156 143.12V148H115.02V143.232C115.02 142.357 114.801 141.691 114.364 141.232C113.927 140.773 113.303 140.544 112.492 140.544C111.585 140.544 110.865 140.816 110.332 141.36C109.809 141.893 109.548 142.635 109.548 143.584V148H108.412V139.584H109.5V141.136C109.809 140.624 110.236 140.229 110.78 139.952C111.335 139.664 111.975 139.52 112.7 139.52ZM123.672 147.488C123.459 147.68 123.192 147.829 122.872 147.936C122.563 148.032 122.238 148.08 121.896 148.08C121.107 148.08 120.499 147.867 120.072 147.44C119.646 147.013 119.432 146.411 119.432 145.632V140.544H117.928V139.584H119.432V137.744H120.568V139.584H123.128V140.544H120.568V145.568C120.568 146.069 120.691 146.453 120.936 146.72C121.192 146.976 121.555 147.104 122.024 147.104C122.259 147.104 122.483 147.067 122.696 146.992C122.92 146.917 123.112 146.811 123.272 146.672L123.672 147.488ZM132.771 144.144H125.731C125.795 145.019 126.131 145.728 126.739 146.272C127.347 146.805 128.115 147.072 129.043 147.072C129.566 147.072 130.046 146.981 130.483 146.8C130.921 146.608 131.299 146.331 131.619 145.968L132.259 146.704C131.886 147.152 131.417 147.493 130.851 147.728C130.297 147.963 129.683 148.08 129.011 148.08C128.147 148.08 127.379 147.899 126.707 147.536C126.046 147.163 125.529 146.651 125.155 146C124.782 145.349 124.595 144.613 124.595 143.792C124.595 142.971 124.771 142.235 125.123 141.584C125.486 140.933 125.977 140.427 126.595 140.064C127.225 139.701 127.929 139.52 128.707 139.52C129.486 139.52 130.185 139.701 130.803 140.064C131.422 140.427 131.907 140.933 132.259 141.584C132.611 142.224 132.787 142.96 132.787 143.792L132.771 144.144ZM128.707 140.496C127.897 140.496 127.214 140.757 126.659 141.28C126.115 141.792 125.806 142.464 125.731 143.296H131.699C131.625 142.464 131.31 141.792 130.755 141.28C130.211 140.757 129.529 140.496 128.707 140.496ZM136.188 141.232C136.454 140.667 136.849 140.24 137.372 139.952C137.905 139.664 138.561 139.52 139.34 139.52V140.624L139.068 140.608C138.182 140.608 137.489 140.88 136.988 141.424C136.486 141.968 136.236 142.731 136.236 143.712V148H135.1V139.584H136.188V141.232ZM144.325 139.52C145.424 139.52 146.266 139.797 146.853 140.352C147.44 140.896 147.733 141.707 147.733 142.784V148H146.645V146.688C146.389 147.125 146.01 147.467 145.509 147.712C145.018 147.957 144.432 148.08 143.749 148.08C142.81 148.08 142.064 147.856 141.509 147.408C140.954 146.96 140.677 146.368 140.677 145.632C140.677 144.917 140.933 144.341 141.445 143.904C141.968 143.467 142.794 143.248 143.925 143.248H146.597V142.736C146.597 142.011 146.394 141.461 145.989 141.088C145.584 140.704 144.992 140.512 144.213 140.512C143.68 140.512 143.168 140.603 142.677 140.784C142.186 140.955 141.765 141.195 141.413 141.504L140.901 140.656C141.328 140.293 141.84 140.016 142.437 139.824C143.034 139.621 143.664 139.52 144.325 139.52ZM143.925 147.184C144.565 147.184 145.114 147.04 145.573 146.752C146.032 146.453 146.373 146.027 146.597 145.472V144.096H143.957C142.517 144.096 141.797 144.597 141.797 145.6C141.797 146.091 141.984 146.48 142.357 146.768C142.73 147.045 143.253 147.184 143.925 147.184ZM154.338 148.08C153.506 148.08 152.759 147.899 152.098 147.536C151.447 147.173 150.935 146.667 150.562 146.016C150.188 145.355 150.002 144.613 150.002 143.792C150.002 142.971 150.188 142.235 150.562 141.584C150.935 140.933 151.447 140.427 152.098 140.064C152.759 139.701 153.506 139.52 154.338 139.52C155.063 139.52 155.708 139.664 156.274 139.952C156.85 140.229 157.303 140.64 157.634 141.184L156.786 141.76C156.508 141.344 156.156 141.035 155.73 140.832C155.303 140.619 154.839 140.512 154.338 140.512C153.73 140.512 153.18 140.651 152.69 140.928C152.21 141.195 151.831 141.579 151.554 142.08C151.287 142.581 151.154 143.152 151.154 143.792C151.154 144.443 151.287 145.019 151.554 145.52C151.831 146.011 152.21 146.395 152.69 146.672C153.18 146.939 153.73 147.072 154.338 147.072C154.839 147.072 155.303 146.971 155.73 146.768C156.156 146.565 156.508 146.256 156.786 145.84L157.634 146.416C157.303 146.96 156.85 147.376 156.274 147.664C155.698 147.941 155.052 148.08 154.338 148.08ZM164.391 147.488C164.178 147.68 163.911 147.829 163.591 147.936C163.282 148.032 162.956 148.08 162.615 148.08C161.826 148.08 161.218 147.867 160.791 147.44C160.364 147.013 160.151 146.411 160.151 145.632V140.544H158.647V139.584H160.151V137.744H161.287V139.584H163.847V140.544H161.287V145.568C161.287 146.069 161.41 146.453 161.655 146.72C161.911 146.976 162.274 147.104 162.743 147.104C162.978 147.104 163.202 147.067 163.415 146.992C163.639 146.917 163.831 146.811 163.991 146.672L164.391 147.488ZM166.459 139.584H167.595V148H166.459V139.584ZM167.035 137.744C166.8 137.744 166.603 137.664 166.443 137.504C166.283 137.344 166.203 137.152 166.203 136.928C166.203 136.715 166.283 136.528 166.443 136.368C166.603 136.208 166.8 136.128 167.035 136.128C167.27 136.128 167.467 136.208 167.627 136.368C167.787 136.517 167.867 136.699 167.867 136.912C167.867 137.147 167.787 137.344 167.627 137.504C167.467 137.664 167.27 137.744 167.035 137.744ZM177.828 139.584L174.084 148H172.916L169.188 139.584H170.372L173.524 146.752L176.708 139.584H177.828ZM186.521 144.144H179.481C179.545 145.019 179.881 145.728 180.489 146.272C181.097 146.805 181.865 147.072 182.793 147.072C183.316 147.072 183.796 146.981 184.233 146.8C184.671 146.608 185.049 146.331 185.369 145.968L186.009 146.704C185.636 147.152 185.167 147.493 184.601 147.728C184.047 147.963 183.433 148.08 182.761 148.08C181.897 148.08 181.129 147.899 180.457 147.536C179.796 147.163 179.279 146.651 178.905 146C178.532 145.349 178.345 144.613 178.345 143.792C178.345 142.971 178.521 142.235 178.873 141.584C179.236 140.933 179.727 140.427 180.345 140.064C180.975 139.701 181.679 139.52 182.457 139.52C183.236 139.52 183.935 139.701 184.553 140.064C185.172 140.427 185.657 140.933 186.009 141.584C186.361 142.224 186.537 142.96 186.537 143.792L186.521 144.144ZM182.457 140.496C181.647 140.496 180.964 140.757 180.409 141.28C179.865 141.792 179.556 142.464 179.481 143.296H185.449C185.375 142.464 185.06 141.792 184.505 141.28C183.961 140.757 183.279 140.496 182.457 140.496ZM197.373 139.52C198.162 139.52 198.877 139.701 199.517 140.064C200.157 140.416 200.658 140.917 201.021 141.568C201.384 142.219 201.565 142.96 201.565 143.792C201.565 144.635 201.384 145.381 201.021 146.032C200.658 146.683 200.157 147.189 199.517 147.552C198.888 147.904 198.173 148.08 197.373 148.08C196.69 148.08 196.072 147.941 195.517 147.664C194.973 147.376 194.525 146.96 194.173 146.416V151.104H193.037V139.584H194.125V141.248C194.466 140.693 194.914 140.267 195.469 139.968C196.034 139.669 196.669 139.52 197.373 139.52ZM197.293 147.072C197.88 147.072 198.413 146.939 198.893 146.672C199.373 146.395 199.746 146.005 200.013 145.504C200.29 145.003 200.429 144.432 200.429 143.792C200.429 143.152 200.29 142.587 200.013 142.096C199.746 141.595 199.373 141.205 198.893 140.928C198.413 140.651 197.88 140.512 197.293 140.512C196.696 140.512 196.157 140.651 195.677 140.928C195.208 141.205 194.834 141.595 194.557 142.096C194.29 142.587 194.157 143.152 194.157 143.792C194.157 144.432 194.29 145.003 194.557 145.504C194.834 146.005 195.208 146.395 195.677 146.672C196.157 146.939 196.696 147.072 197.293 147.072ZM204.969 141.232C205.236 140.667 205.63 140.24 206.153 139.952C206.686 139.664 207.342 139.52 208.121 139.52V140.624L207.849 140.608C206.964 140.608 206.27 140.88 205.769 141.424C205.268 141.968 205.017 142.731 205.017 143.712V148H203.881V139.584H204.969V141.232ZM213.54 148.08C212.729 148.08 211.998 147.899 211.348 147.536C210.697 147.163 210.185 146.651 209.812 146C209.438 145.349 209.252 144.613 209.252 143.792C209.252 142.971 209.438 142.235 209.812 141.584C210.185 140.933 210.697 140.427 211.348 140.064C211.998 139.701 212.729 139.52 213.54 139.52C214.35 139.52 215.081 139.701 215.732 140.064C216.382 140.427 216.889 140.933 217.252 141.584C217.625 142.235 217.812 142.971 217.812 143.792C217.812 144.613 217.625 145.349 217.252 146C216.889 146.651 216.382 147.163 215.732 147.536C215.081 147.899 214.35 148.08 213.54 148.08ZM213.54 147.072C214.137 147.072 214.67 146.939 215.14 146.672C215.62 146.395 215.993 146.005 216.26 145.504C216.526 145.003 216.66 144.432 216.66 143.792C216.66 143.152 216.526 142.581 216.26 142.08C215.993 141.579 215.62 141.195 215.14 140.928C214.67 140.651 214.137 140.512 213.54 140.512C212.942 140.512 212.404 140.651 211.924 140.928C211.454 141.195 211.081 141.579 210.804 142.08C210.537 142.581 210.404 143.152 210.404 143.792C210.404 144.432 210.537 145.003 210.804 145.504C211.081 146.005 211.454 146.395 211.924 146.672C212.404 146.939 212.942 147.072 213.54 147.072ZM224.563 147.488C224.35 147.68 224.083 147.829 223.763 147.936C223.454 148.032 223.128 148.08 222.787 148.08C221.998 148.08 221.39 147.867 220.963 147.44C220.536 147.013 220.323 146.411 220.323 145.632V140.544H218.819V139.584H220.323V137.744H221.459V139.584H224.019V140.544H221.459V145.568C221.459 146.069 221.582 146.453 221.827 146.72C222.083 146.976 222.446 147.104 222.915 147.104C223.15 147.104 223.374 147.067 223.587 146.992C223.811 146.917 224.003 146.811 224.163 146.672L224.563 147.488ZM229.774 148.08C228.963 148.08 228.233 147.899 227.582 147.536C226.931 147.163 226.419 146.651 226.046 146C225.673 145.349 225.486 144.613 225.486 143.792C225.486 142.971 225.673 142.235 226.046 141.584C226.419 140.933 226.931 140.427 227.582 140.064C228.233 139.701 228.963 139.52 229.774 139.52C230.585 139.52 231.315 139.701 231.966 140.064C232.617 140.427 233.123 140.933 233.486 141.584C233.859 142.235 234.046 142.971 234.046 143.792C234.046 144.613 233.859 145.349 233.486 146C233.123 146.651 232.617 147.163 231.966 147.536C231.315 147.899 230.585 148.08 229.774 148.08ZM229.774 147.072C230.371 147.072 230.905 146.939 231.374 146.672C231.854 146.395 232.227 146.005 232.494 145.504C232.761 145.003 232.894 144.432 232.894 143.792C232.894 143.152 232.761 142.581 232.494 142.08C232.227 141.579 231.854 141.195 231.374 140.928C230.905 140.651 230.371 140.512 229.774 140.512C229.177 140.512 228.638 140.651 228.158 140.928C227.689 141.195 227.315 141.579 227.038 142.08C226.771 142.581 226.638 143.152 226.638 143.792C226.638 144.432 226.771 145.003 227.038 145.504C227.315 146.005 227.689 146.395 228.158 146.672C228.638 146.939 229.177 147.072 229.774 147.072ZM240.797 147.488C240.584 147.68 240.317 147.829 239.997 147.936C239.688 148.032 239.363 148.08 239.021 148.08C238.232 148.08 237.624 147.867 237.197 147.44C236.771 147.013 236.557 146.411 236.557 145.632V140.544H235.053V139.584H236.557V137.744H237.693V139.584H240.253V140.544H237.693V145.568C237.693 146.069 237.816 146.453 238.061 146.72C238.317 146.976 238.68 147.104 239.149 147.104C239.384 147.104 239.608 147.067 239.821 146.992C240.045 146.917 240.237 146.811 240.397 146.672L240.797 147.488ZM249.781 139.584L245.573 149.008C245.232 149.797 244.837 150.357 244.389 150.688C243.941 151.019 243.402 151.184 242.773 151.184C242.368 151.184 241.989 151.12 241.637 150.992C241.285 150.864 240.981 150.672 240.725 150.416L241.253 149.568C241.68 149.995 242.192 150.208 242.789 150.208C243.173 150.208 243.498 150.101 243.765 149.888C244.042 149.675 244.298 149.312 244.533 148.8L244.901 147.984L241.141 139.584H242.325L245.493 146.736L248.661 139.584H249.781ZM255.717 139.52C256.506 139.52 257.221 139.701 257.861 140.064C258.501 140.416 259.002 140.917 259.365 141.568C259.728 142.219 259.909 142.96 259.909 143.792C259.909 144.635 259.728 145.381 259.365 146.032C259.002 146.683 258.501 147.189 257.861 147.552C257.232 147.904 256.517 148.08 255.717 148.08C255.034 148.08 254.416 147.941 253.861 147.664C253.317 147.376 252.869 146.96 252.517 146.416V151.104H251.381V139.584H252.469V141.248C252.81 140.693 253.258 140.267 253.813 139.968C254.378 139.669 255.013 139.52 255.717 139.52ZM255.637 147.072C256.224 147.072 256.757 146.939 257.237 146.672C257.717 146.395 258.09 146.005 258.357 145.504C258.634 145.003 258.773 144.432 258.773 143.792C258.773 143.152 258.634 142.587 258.357 142.096C258.09 141.595 257.717 141.205 257.237 140.928C256.757 140.651 256.224 140.512 255.637 140.512C255.04 140.512 254.501 140.651 254.021 140.928C253.552 141.205 253.178 141.595 252.901 142.096C252.634 142.587 252.501 143.152 252.501 143.792C252.501 144.432 252.634 145.003 252.901 145.504C253.178 146.005 253.552 146.395 254.021 146.672C254.501 146.939 255.04 147.072 255.637 147.072ZM269.553 144.144H262.513C262.577 145.019 262.913 145.728 263.521 146.272C264.129 146.805 264.897 147.072 265.825 147.072C266.347 147.072 266.827 146.981 267.265 146.8C267.702 146.608 268.081 146.331 268.401 145.968L269.041 146.704C268.667 147.152 268.198 147.493 267.633 147.728C267.078 147.963 266.465 148.08 265.793 148.08C264.929 148.08 264.161 147.899 263.489 147.536C262.827 147.163 262.31 146.651 261.937 146C261.563 145.349 261.377 144.613 261.377 143.792C261.377 142.971 261.553 142.235 261.905 141.584C262.267 140.933 262.758 140.427 263.377 140.064C264.006 139.701 264.71 139.52 265.489 139.52C266.267 139.52 266.966 139.701 267.585 140.064C268.203 140.427 268.689 140.933 269.041 141.584C269.393 142.224 269.569 142.96 269.569 143.792L269.553 144.144ZM265.489 140.496C264.678 140.496 263.995 140.757 263.441 141.28C262.897 141.792 262.587 142.464 262.513 143.296H268.481C268.406 142.464 268.091 141.792 267.537 141.28C266.993 140.757 266.31 140.496 265.489 140.496Z" fill="#828282"/>
<defs>
<clipPath id="clip0">
<rect width="44" height="34" fill="white" transform="translate(14 18)"/>
</clipPath>
</defs>
</svg>
