<svg width="245" height="40" viewBox="0 0 245 40" fill="none" xmlns="http://www.w3.org/2000/svg">
<path d="M20 27.7L27.7 20L31 23.3L23.3 31L20 27.7Z" stroke="#CE8200" stroke-width="2" stroke-linecap="round" stroke-linejoin="round"/>
<path d="M26 20.6875L24.4062 12.7188L9 9L12.7188 24.4062L20.6875 26L26 20.6875Z" stroke="#CE8200" stroke-width="2" stroke-linecap="round" stroke-linejoin="round"/>
<path d="M9 9L17 17" stroke="#CE8200" stroke-width="2" stroke-linecap="round" stroke-linejoin="round"/>
<path d="M18.5 21C19.8807 21 21 19.8807 21 18.5C21 17.1193 19.8807 16 18.5 16C17.1193 16 16 17.1193 16 18.5C16 19.8807 17.1193 21 18.5 21Z" stroke="#CE8200" stroke-width="2" stroke-linecap="round" stroke-linejoin="round"/>
<path d="M53.232 9.008C56.352 9.008 58.688 9.72 60.24 11.144C61.792 12.552 62.568 14.608 62.568 17.312C62.568 19.056 62.184 20.584 61.416 21.896C60.664 23.192 59.568 24.2 58.128 24.92C56.704 25.64 55 26 53.016 26L51.528 25.976C50.6 25.944 49.928 25.928 49.512 25.928C47.864 25.928 46.632 25.952 45.816 26V25.52C46.344 25.488 46.728 25.424 46.968 25.328C47.224 25.232 47.392 25.048 47.472 24.776C47.568 24.504 47.616 24.064 47.616 23.456V11.552C47.616 10.944 47.568 10.504 47.472 10.232C47.392 9.96 47.224 9.776 46.968 9.68C46.728 9.584 46.344 9.52 45.816 9.488V9.008C46.488 9.056 47.456 9.08 48.72 9.08H49.464L50.424 9.056C51.736 9.024 52.672 9.008 53.232 9.008ZM53.208 9.44C52.712 9.44 52.336 9.496 52.08 9.608C51.84 9.72 51.672 9.92 51.576 10.208C51.48 10.496 51.432 10.928 51.432 11.504V23.504C51.432 24.08 51.48 24.512 51.576 24.8C51.672 25.088 51.84 25.288 52.08 25.4C52.336 25.512 52.72 25.568 53.232 25.568C55.168 25.568 56.544 24.896 57.36 23.552C58.176 22.192 58.584 20.144 58.584 17.408C58.584 14.672 58.16 12.664 57.312 11.384C56.48 10.088 55.112 9.44 53.208 9.44ZM71.2648 24.368C72.5768 24.368 73.6328 23.728 74.4328 22.448L74.8648 22.592C74.5448 23.632 73.9688 24.52 73.1368 25.256C72.3208 25.976 71.2968 26.336 70.0648 26.336C68.3688 26.336 67.0168 25.8 66.0088 24.728C65.0168 23.64 64.5208 22.04 64.5208 19.928C64.5208 17.768 65.0568 16.12 66.1288 14.984C67.2008 13.832 68.6248 13.256 70.4008 13.256C73.4088 13.256 74.9128 15.032 74.9128 18.584H68.1688C68.1528 18.824 68.1448 19.2 68.1448 19.712C68.1448 20.768 68.2888 21.648 68.5768 22.352C68.8808 23.056 69.2648 23.568 69.7288 23.888C70.2088 24.208 70.7208 24.368 71.2648 24.368ZM70.2568 13.76C69.6808 13.76 69.2008 14.12 68.8168 14.84C68.4488 15.544 68.2168 16.64 68.1208 18.128H71.8888C71.9208 16.864 71.7928 15.824 71.5048 15.008C71.2328 14.176 70.8168 13.76 70.2568 13.76ZM81.0546 13.256C81.6626 13.256 82.2226 13.336 82.7346 13.496C83.2466 13.64 83.6386 13.808 83.9106 14C84.0706 14.112 84.2146 14.168 84.3426 14.168C84.4866 14.168 84.6066 14.096 84.7026 13.952C84.8146 13.792 84.8866 13.568 84.9186 13.28H85.4226C85.3586 14.096 85.3266 15.504 85.3266 17.504H84.8226C84.6786 16.448 84.3586 15.568 83.8626 14.864C83.3826 14.144 82.6786 13.784 81.7506 13.784C81.2706 13.784 80.8706 13.92 80.5506 14.192C80.2466 14.464 80.0946 14.84 80.0946 15.32C80.0946 15.864 80.2786 16.336 80.6466 16.736C81.0146 17.12 81.5906 17.592 82.3746 18.152L83.0706 18.656C84.0466 19.392 84.7666 20.048 85.2306 20.624C85.6946 21.2 85.9266 21.92 85.9266 22.784C85.9266 23.488 85.7186 24.112 85.3026 24.656C84.9026 25.2 84.3586 25.616 83.6706 25.904C82.9826 26.192 82.2226 26.336 81.3906 26.336C80.5106 26.336 79.7586 26.168 79.1346 25.832C78.6226 25.576 78.2546 25.408 78.0306 25.328C77.8706 25.28 77.7266 25.336 77.5986 25.496C77.4866 25.64 77.3986 25.864 77.3346 26.168H76.8306C76.8946 25.256 76.9266 23.656 76.9266 21.368H77.4306C77.7506 24.312 78.8306 25.784 80.6706 25.784C81.1346 25.784 81.5266 25.648 81.8466 25.376C82.1826 25.088 82.3506 24.656 82.3506 24.08C82.3506 23.632 82.2466 23.232 82.0386 22.88C81.8466 22.528 81.5986 22.216 81.2946 21.944C80.9906 21.672 80.5346 21.296 79.9266 20.816C79.2066 20.24 78.6546 19.776 78.2706 19.424C77.9026 19.072 77.5826 18.656 77.3106 18.176C77.0546 17.696 76.9266 17.16 76.9266 16.568C76.9266 15.544 77.3266 14.736 78.1266 14.144C78.9266 13.552 79.9026 13.256 81.0546 13.256ZM90.5085 7.4C91.1805 7.4 91.7085 7.568 92.0925 7.904C92.4925 8.224 92.6925 8.672 92.6925 9.248C92.6925 9.824 92.4925 10.28 92.0925 10.616C91.7085 10.936 91.1805 11.096 90.5085 11.096C89.8365 11.096 89.3005 10.936 88.9005 10.616C88.5165 10.28 88.3245 9.824 88.3245 9.248C88.3245 8.672 88.5165 8.224 88.9005 7.904C89.3005 7.568 89.8365 7.4 90.5085 7.4ZM92.3805 23.768C92.3805 24.424 92.4925 24.88 92.7165 25.136C92.9565 25.376 93.3565 25.496 93.9165 25.496V26C92.3165 25.936 91.2525 25.904 90.7245 25.904C90.2285 25.904 89.1165 25.936 87.3885 26V25.496C87.9645 25.496 88.3645 25.376 88.5885 25.136C88.8125 24.88 88.9245 24.424 88.9245 23.768V16.208C88.9245 15.472 88.8125 14.936 88.5885 14.6C88.3645 14.264 87.9645 14.096 87.3885 14.096V13.592C87.9005 13.64 88.3965 13.664 88.8765 13.664C90.3005 13.664 91.4685 13.552 92.3805 13.328V23.768ZM106.335 15.896C106.015 15.896 105.743 15.792 105.519 15.584C105.295 15.36 105.183 15.048 105.183 14.648C105.183 14.264 105.279 13.872 105.471 13.472C105.087 13.632 104.767 13.816 104.511 14.024C104.271 14.216 104.063 14.464 103.887 14.768C104.383 15.36 104.631 16.128 104.631 17.072C104.631 18.336 104.191 19.288 103.311 19.928C102.447 20.568 101.295 20.888 99.8548 20.888H99.4228C98.7668 21.272 98.4388 21.696 98.4388 22.16C98.4388 22.672 98.7588 22.928 99.3988 22.928H102.015C103.423 22.928 104.543 23.192 105.375 23.72C106.223 24.232 106.647 25.024 106.647 26.096C106.647 26.912 106.383 27.648 105.855 28.304C105.343 28.976 104.559 29.512 103.503 29.912C102.447 30.312 101.151 30.512 99.6148 30.512C98.0628 30.512 96.8148 30.312 95.8708 29.912C94.9428 29.528 94.4788 28.968 94.4788 28.232C94.4788 27.736 94.7028 27.288 95.1508 26.888C95.5988 26.504 96.2628 26.2 97.1428 25.976L97.3588 26.36C96.7828 26.84 96.4948 27.392 96.4948 28.016C96.4948 28.688 96.7988 29.2 97.4068 29.552C98.0148 29.92 98.8548 30.104 99.9268 30.104C101.047 30.104 101.951 29.88 102.639 29.432C103.343 28.984 103.695 28.352 103.695 27.536C103.695 27.008 103.495 26.592 103.095 26.288C102.711 25.984 102.031 25.832 101.055 25.832H99.5668C98.5428 25.832 97.7428 25.664 97.1668 25.328C96.5908 24.976 96.3028 24.448 96.3028 23.744C96.3028 23.152 96.5108 22.624 96.9268 22.16C97.3428 21.696 97.9748 21.248 98.8228 20.816C97.6708 20.672 96.7588 20.288 96.0868 19.664C95.4148 19.04 95.0788 18.176 95.0788 17.072C95.0788 15.808 95.5108 14.856 96.3748 14.216C97.2548 13.576 98.4148 13.256 99.8548 13.256C101.455 13.256 102.679 13.632 103.527 14.384C103.831 13.952 104.207 13.608 104.655 13.352C105.103 13.096 105.559 12.968 106.023 12.968C106.503 12.968 106.879 13.112 107.151 13.4C107.439 13.672 107.583 14.032 107.583 14.48C107.583 14.928 107.455 15.28 107.199 15.536C106.959 15.776 106.671 15.896 106.335 15.896ZM99.8548 20.456C100.303 20.456 100.639 20.2 100.863 19.688C101.103 19.176 101.223 18.304 101.223 17.072C101.223 15.84 101.103 14.968 100.863 14.456C100.639 13.944 100.303 13.688 99.8548 13.688C99.4068 13.688 99.0628 13.944 98.8228 14.456C98.5988 14.968 98.4868 15.84 98.4868 17.072C98.4868 18.304 98.5988 19.176 98.8228 19.688C99.0628 20.2 99.4068 20.456 99.8548 20.456ZM117.152 13.256C118.368 13.256 119.248 13.568 119.792 14.192C120.064 14.496 120.256 14.888 120.368 15.368C120.48 15.848 120.536 16.496 120.536 17.312V23.768C120.536 24.424 120.648 24.88 120.872 25.136C121.112 25.376 121.512 25.496 122.072 25.496V26C120.472 25.936 119.416 25.904 118.904 25.904C118.424 25.904 117.384 25.936 115.784 26V25.496C116.264 25.496 116.6 25.376 116.792 25.136C116.984 24.88 117.08 24.424 117.08 23.768V16.304C117.08 15.648 116.968 15.152 116.744 14.816C116.536 14.48 116.152 14.312 115.592 14.312C114.936 14.312 114.376 14.584 113.912 15.128C113.448 15.656 113.216 16.312 113.216 17.096V23.768C113.216 24.424 113.312 24.88 113.504 25.136C113.696 25.376 114.032 25.496 114.512 25.496V26C113.04 25.936 112.048 25.904 111.536 25.904C111.056 25.904 109.952 25.936 108.224 26V25.496C108.8 25.496 109.2 25.376 109.424 25.136C109.648 24.88 109.76 24.424 109.76 23.768V16.208C109.76 15.472 109.648 14.936 109.424 14.6C109.2 14.264 108.8 14.096 108.224 14.096V13.592C108.736 13.64 109.232 13.664 109.712 13.664C111.136 13.664 112.304 13.552 113.216 13.328V15.488C113.936 14 115.248 13.256 117.152 13.256Z" fill="#CE8200"/>
</svg>
