<svg width="245" height="71" viewBox="0 0 245 71" fill="none" xmlns="http://www.w3.org/2000/svg">
<path d="M20 9V13" stroke="#F66700" stroke-width="2" stroke-linecap="round" stroke-linejoin="round"/>
<path d="M20 27V31" stroke="#F66700" stroke-width="2" stroke-linecap="round" stroke-linejoin="round"/>
<path d="M12 12L16 16" stroke="#F66700" stroke-width="2" stroke-linecap="round" stroke-linejoin="round"/>
<path d="M24 24L28 28" stroke="#F66700" stroke-width="2" stroke-linecap="round" stroke-linejoin="round"/>
<path d="M10 20H14" stroke="#F66700" stroke-width="2" stroke-linecap="round" stroke-linejoin="round"/>
<path d="M27 20H31" stroke="#F66700" stroke-width="2" stroke-linecap="round" stroke-linejoin="round"/>
<path d="M12 28L16 24" stroke="#F66700" stroke-width="2" stroke-linecap="round" stroke-linejoin="round"/>
<path d="M24 16L28 12" stroke="#F66700" stroke-width="2" stroke-linecap="round" stroke-linejoin="round"/>
<path d="M58.656 9.008C58.544 10.368 58.488 11.584 58.488 12.656C58.488 13.408 58.512 14.016 58.56 14.48H58.008C57.688 12.672 57.208 11.4 56.568 10.664C55.928 9.928 55.032 9.56 53.88 9.56H53.088C52.592 9.56 52.232 9.6 52.008 9.68C51.784 9.76 51.632 9.92 51.552 10.16C51.472 10.384 51.432 10.752 51.432 11.264V17.312H52.272C53.12 17.312 53.76 17 54.192 16.376C54.64 15.752 54.952 15.008 55.128 14.144H55.68C55.632 14.816 55.608 15.568 55.608 16.4V17.552C55.608 18.368 55.656 19.504 55.752 20.96H55.2C54.864 18.848 53.888 17.792 52.272 17.792H51.432V23.312C51.432 23.952 51.496 24.424 51.624 24.728C51.768 25.016 52.008 25.208 52.344 25.304C52.696 25.4 53.248 25.456 54 25.472V26C52.032 25.952 50.568 25.928 49.608 25.928C48.808 25.928 47.8 25.944 46.584 25.976L45.816 26V25.52C46.344 25.488 46.728 25.424 46.968 25.328C47.224 25.232 47.392 25.048 47.472 24.776C47.568 24.504 47.616 24.064 47.616 23.456V11.552C47.616 10.944 47.568 10.504 47.472 10.232C47.392 9.96 47.224 9.776 46.968 9.68C46.728 9.584 46.344 9.52 45.816 9.488V9.008C47.544 9.056 50.152 9.08 53.64 9.08C55.992 9.08 57.664 9.056 58.656 9.008ZM62.8991 7.4C63.5711 7.4 64.0991 7.568 64.4831 7.904C64.8831 8.224 65.0831 8.672 65.0831 9.248C65.0831 9.824 64.8831 10.28 64.4831 10.616C64.0991 10.936 63.5711 11.096 62.8991 11.096C62.2271 11.096 61.6911 10.936 61.2911 10.616C60.9071 10.28 60.7151 9.824 60.7151 9.248C60.7151 8.672 60.9071 8.224 61.2911 7.904C61.6911 7.568 62.2271 7.4 62.8991 7.4ZM64.7711 23.768C64.7711 24.424 64.8831 24.88 65.1071 25.136C65.3471 25.376 65.7471 25.496 66.3071 25.496V26C64.7071 25.936 63.6431 25.904 63.1151 25.904C62.6191 25.904 61.5071 25.936 59.7791 26V25.496C60.3551 25.496 60.7551 25.376 60.9791 25.136C61.2031 24.88 61.3151 24.424 61.3151 23.768V16.208C61.3151 15.472 61.2031 14.936 60.9791 14.6C60.7551 14.264 60.3551 14.096 59.7791 14.096V13.592C60.2911 13.64 60.7871 13.664 61.2671 13.664C62.6911 13.664 63.8591 13.552 64.7711 13.328V23.768ZM76.2774 13.256C77.4934 13.256 78.3734 13.568 78.9174 14.192C79.1894 14.496 79.3814 14.888 79.4934 15.368C79.6054 15.848 79.6614 16.496 79.6614 17.312V23.768C79.6614 24.424 79.7734 24.88 79.9974 25.136C80.2374 25.376 80.6374 25.496 81.1974 25.496V26C79.5974 25.936 78.5414 25.904 78.0294 25.904C77.5494 25.904 76.5094 25.936 74.9094 26V25.496C75.3894 25.496 75.7254 25.376 75.9174 25.136C76.1094 24.88 76.2054 24.424 76.2054 23.768V16.304C76.2054 15.648 76.0934 15.152 75.8694 14.816C75.6614 14.48 75.2774 14.312 74.7174 14.312C74.0614 14.312 73.5014 14.584 73.0374 15.128C72.5734 15.656 72.3414 16.312 72.3414 17.096V23.768C72.3414 24.424 72.4374 24.88 72.6294 25.136C72.8214 25.376 73.1574 25.496 73.6374 25.496V26C72.1654 25.936 71.1734 25.904 70.6614 25.904C70.1814 25.904 69.0774 25.936 67.3494 26V25.496C67.9254 25.496 68.3254 25.376 68.5494 25.136C68.7734 24.88 68.8854 24.424 68.8854 23.768V16.208C68.8854 15.472 68.7734 14.936 68.5494 14.6C68.3254 14.264 67.9254 14.096 67.3494 14.096V13.592C67.8614 13.64 68.3574 13.664 68.8374 13.664C70.2614 13.664 71.4294 13.552 72.3414 13.328V15.488C73.0614 14 74.3734 13.256 76.2774 13.256ZM85.2596 26.168C84.2356 26.168 83.4676 25.904 82.9556 25.376C82.4596 24.848 82.2116 24.152 82.2116 23.288C82.2116 22.568 82.3956 21.976 82.7636 21.512C83.1476 21.032 83.6036 20.664 84.1316 20.408C84.6756 20.152 85.3636 19.88 86.1956 19.592C87.0756 19.288 87.7156 19.016 88.1156 18.776C88.5316 18.52 88.7396 18.176 88.7396 17.744V15.872C88.7396 15.2 88.5796 14.68 88.2596 14.312C87.9556 13.928 87.4756 13.736 86.8196 13.736C86.0516 13.736 85.4676 13.928 85.0676 14.312C85.5156 14.472 85.8596 14.712 86.0996 15.032C86.3556 15.352 86.4836 15.728 86.4836 16.16C86.4836 16.704 86.2996 17.136 85.9316 17.456C85.5636 17.776 85.1156 17.936 84.5876 17.936C84.0276 17.936 83.5956 17.76 83.2916 17.408C82.9876 17.056 82.8356 16.616 82.8356 16.088C82.8356 15.64 82.9396 15.264 83.1476 14.96C83.3716 14.64 83.7076 14.344 84.1556 14.072C84.5876 13.816 85.1156 13.616 85.7396 13.472C86.3796 13.328 87.0756 13.256 87.8276 13.256C88.6116 13.256 89.2916 13.336 89.8676 13.496C90.4436 13.656 90.9236 13.928 91.3076 14.312C91.6596 14.664 91.8916 15.096 92.0036 15.608C92.1316 16.12 92.1956 16.816 92.1956 17.696V24.224C92.1956 24.608 92.2276 24.88 92.2916 25.04C92.3716 25.2 92.5156 25.28 92.7236 25.28C92.9636 25.28 93.2516 25.144 93.5876 24.872L93.8276 25.28C93.1076 25.872 92.2276 26.168 91.1876 26.168C90.3076 26.168 89.6916 25.992 89.3396 25.64C88.9876 25.288 88.8036 24.816 88.7876 24.224C87.9876 25.52 86.8116 26.168 85.2596 26.168ZM87.1076 24.632C87.7316 24.632 88.2756 24.304 88.7396 23.648V18.728C88.5476 19.048 88.1396 19.4 87.5156 19.784C86.8916 20.184 86.4196 20.584 86.0996 20.984C85.7796 21.384 85.6196 21.96 85.6196 22.712C85.6196 23.368 85.7556 23.856 86.0276 24.176C86.2996 24.48 86.6596 24.632 87.1076 24.632ZM99.4095 23.768C99.4095 24.424 99.5215 24.88 99.7455 25.136C99.9695 25.376 100.37 25.496 100.946 25.496V26C99.2815 25.936 98.2095 25.904 97.7295 25.904C97.1855 25.904 96.0815 25.936 94.4175 26V25.496C94.9775 25.496 95.3695 25.376 95.5935 25.136C95.8335 24.88 95.9535 24.424 95.9535 23.768V10.088C95.9535 9.352 95.8335 8.816 95.5935 8.48C95.3695 8.144 94.9775 7.976 94.4175 7.976V7.472C94.9295 7.52 95.4255 7.544 95.9055 7.544C97.2975 7.544 98.4655 7.432 99.4095 7.208V23.768ZM106.719 13.256C107.327 13.256 107.887 13.336 108.399 13.496C108.911 13.64 109.303 13.808 109.575 14C109.735 14.112 109.879 14.168 110.007 14.168C110.151 14.168 110.271 14.096 110.367 13.952C110.479 13.792 110.551 13.568 110.583 13.28H111.087C111.023 14.096 110.991 15.504 110.991 17.504H110.487C110.343 16.448 110.023 15.568 109.527 14.864C109.047 14.144 108.343 13.784 107.415 13.784C106.935 13.784 106.535 13.92 106.215 14.192C105.911 14.464 105.759 14.84 105.759 15.32C105.759 15.864 105.943 16.336 106.311 16.736C106.679 17.12 107.255 17.592 108.039 18.152L108.735 18.656C109.711 19.392 110.431 20.048 110.895 20.624C111.359 21.2 111.591 21.92 111.591 22.784C111.591 23.488 111.383 24.112 110.967 24.656C110.567 25.2 110.023 25.616 109.335 25.904C108.647 26.192 107.887 26.336 107.055 26.336C106.175 26.336 105.423 26.168 104.799 25.832C104.287 25.576 103.919 25.408 103.695 25.328C103.535 25.28 103.391 25.336 103.263 25.496C103.151 25.64 103.063 25.864 102.999 26.168H102.495C102.559 25.256 102.591 23.656 102.591 21.368H103.095C103.415 24.312 104.495 25.784 106.335 25.784C106.799 25.784 107.191 25.648 107.511 25.376C107.847 25.088 108.015 24.656 108.015 24.08C108.015 23.632 107.911 23.232 107.703 22.88C107.511 22.528 107.263 22.216 106.959 21.944C106.655 21.672 106.199 21.296 105.591 20.816C104.871 20.24 104.319 19.776 103.935 19.424C103.567 19.072 103.247 18.656 102.975 18.176C102.719 17.696 102.591 17.16 102.591 16.568C102.591 15.544 102.991 14.736 103.791 14.144C104.591 13.552 105.567 13.256 106.719 13.256Z" fill="#F66700"/>
<path d="M48.393 49.525V54.034H53.694V55.456H48.393V61H46.647V48.103H54.594V49.525H48.393ZM58.1036 51.883V61H56.5016V51.883H58.1036ZM58.4456 49.021C58.4456 49.177 58.4126 49.324 58.3466 49.462C58.2866 49.594 58.2026 49.714 58.0946 49.822C57.9926 49.924 57.8696 50.005 57.7256 50.065C57.5876 50.125 57.4406 50.155 57.2846 50.155C57.1286 50.155 56.9816 50.125 56.8436 50.065C56.7116 50.005 56.5946 49.924 56.4926 49.822C56.3906 49.714 56.3096 49.594 56.2496 49.462C56.1896 49.324 56.1596 49.177 56.1596 49.021C56.1596 48.865 56.1896 48.718 56.2496 48.58C56.3096 48.436 56.3906 48.313 56.4926 48.211C56.5946 48.103 56.7116 48.019 56.8436 47.959C56.9816 47.899 57.1286 47.869 57.2846 47.869C57.4406 47.869 57.5876 47.899 57.7256 47.959C57.8696 48.019 57.9926 48.103 58.0946 48.211C58.2026 48.313 58.2866 48.436 58.3466 48.58C58.4126 48.718 58.4456 48.865 58.4456 49.021ZM62.2478 53.206C62.4458 52.984 62.6558 52.783 62.8778 52.603C63.0998 52.423 63.3338 52.27 63.5798 52.144C63.8318 52.012 64.0958 51.913 64.3718 51.847C64.6538 51.775 64.9568 51.739 65.2808 51.739C65.7788 51.739 66.2168 51.823 66.5948 51.991C66.9788 52.153 67.2968 52.387 67.5488 52.693C67.8068 52.993 68.0018 53.356 68.1338 53.782C68.2658 54.208 68.3318 54.679 68.3318 55.195V61H66.7208V55.195C66.7208 54.505 66.5618 53.971 66.2438 53.593C65.9318 53.209 65.4548 53.017 64.8128 53.017C64.3388 53.017 63.8948 53.131 63.4808 53.359C63.0728 53.587 62.6948 53.896 62.3468 54.286V61H60.7358V51.883H61.6988C61.9268 51.883 62.0678 51.994 62.1218 52.216L62.2478 53.206ZM75.7139 56.896C74.9759 56.92 74.3459 56.98 73.8239 57.076C73.3079 57.166 72.8849 57.286 72.5549 57.436C72.2309 57.586 71.9939 57.763 71.8439 57.967C71.6999 58.171 71.6279 58.399 71.6279 58.651C71.6279 58.891 71.6669 59.098 71.7449 59.272C71.8229 59.446 71.9279 59.59 72.0599 59.704C72.1979 59.812 72.3569 59.893 72.5369 59.947C72.7229 59.995 72.9209 60.019 73.1309 60.019C73.4129 60.019 73.6709 59.992 73.9049 59.938C74.1389 59.878 74.3579 59.794 74.5619 59.686C74.7719 59.578 74.9699 59.449 75.1559 59.299C75.3479 59.149 75.5339 58.978 75.7139 58.786V56.896ZM70.5389 53.17C71.0429 52.684 71.5859 52.321 72.1679 52.081C72.7499 51.841 73.3949 51.721 74.1029 51.721C74.6129 51.721 75.0659 51.805 75.4619 51.973C75.8579 52.141 76.1909 52.375 76.4609 52.675C76.7309 52.975 76.9349 53.338 77.0729 53.764C77.2109 54.19 77.2799 54.658 77.2799 55.168V61H76.5689C76.4129 61 76.2929 60.976 76.2089 60.928C76.1249 60.874 76.0589 60.772 76.0109 60.622L75.8309 59.758C75.5909 59.98 75.3569 60.178 75.1289 60.352C74.9009 60.52 74.6609 60.664 74.4089 60.784C74.1569 60.898 73.8869 60.985 73.5989 61.045C73.3169 61.111 73.0019 61.144 72.6539 61.144C72.2999 61.144 71.9669 61.096 71.6549 61C71.3429 60.898 71.0699 60.748 70.8359 60.55C70.6079 60.352 70.4249 60.103 70.2869 59.803C70.1549 59.497 70.0889 59.137 70.0889 58.723C70.0889 58.363 70.1879 58.018 70.3859 57.688C70.5839 57.352 70.9049 57.055 71.3489 56.797C71.7929 56.539 72.3719 56.329 73.0859 56.167C73.7999 55.999 74.6759 55.903 75.7139 55.879V55.168C75.7139 54.46 75.5609 53.926 75.2549 53.566C74.9489 53.2 74.5019 53.017 73.9139 53.017C73.5179 53.017 73.1849 53.068 72.9149 53.17C72.6509 53.266 72.4199 53.377 72.2219 53.503C72.0299 53.623 71.8619 53.734 71.7179 53.836C71.5799 53.932 71.4419 53.98 71.3039 53.98C71.1959 53.98 71.1029 53.953 71.0249 53.899C70.9469 53.839 70.8809 53.767 70.8269 53.683L70.5389 53.17ZM81.3762 47.743V61H79.7742V47.743H81.3762ZM90.1905 58.804C90.4845 59.2 90.8055 59.479 91.1535 59.641C91.5015 59.803 91.8915 59.884 92.3235 59.884C93.1755 59.884 93.8295 59.581 94.2855 58.975C94.7415 58.369 94.9695 57.505 94.9695 56.383C94.9695 55.789 94.9155 55.279 94.8075 54.853C94.7055 54.427 94.5555 54.079 94.3575 53.809C94.1595 53.533 93.9165 53.332 93.6285 53.206C93.3405 53.08 93.0135 53.017 92.6475 53.017C92.1255 53.017 91.6665 53.137 91.2705 53.377C90.8805 53.617 90.5205 53.956 90.1905 54.394V58.804ZM90.1095 53.296C90.4935 52.822 90.9375 52.441 91.4415 52.153C91.9455 51.865 92.5215 51.721 93.1695 51.721C93.6975 51.721 94.1745 51.823 94.6005 52.027C95.0265 52.225 95.3895 52.522 95.6895 52.918C95.9895 53.308 96.2205 53.794 96.3825 54.376C96.5445 54.958 96.6255 55.627 96.6255 56.383C96.6255 57.055 96.5355 57.682 96.3555 58.264C96.1755 58.84 95.9145 59.341 95.5725 59.767C95.2365 60.187 94.8225 60.52 94.3305 60.766C93.8445 61.006 93.2955 61.126 92.6835 61.126C92.1255 61.126 91.6455 61.033 91.2435 60.847C90.8475 60.655 90.4965 60.391 90.1905 60.055V64.087H88.5795V51.883H89.5425C89.7705 51.883 89.9115 51.994 89.9655 52.216L90.1095 53.296ZM100.19 53.71C100.478 53.086 100.832 52.6 101.252 52.252C101.672 51.898 102.185 51.721 102.791 51.721C102.983 51.721 103.166 51.742 103.34 51.784C103.52 51.826 103.679 51.892 103.817 51.982L103.7 53.179C103.664 53.329 103.574 53.404 103.43 53.404C103.346 53.404 103.223 53.386 103.061 53.35C102.899 53.314 102.716 53.296 102.512 53.296C102.224 53.296 101.966 53.338 101.738 53.422C101.516 53.506 101.315 53.632 101.135 53.8C100.961 53.962 100.802 54.166 100.658 54.412C100.52 54.652 100.394 54.928 100.28 55.24V61H98.6694V51.883H99.5874C99.7614 51.883 99.8814 51.916 99.9474 51.982C100.013 52.048 100.058 52.162 100.082 52.324L100.19 53.71ZM108.7 51.739C109.366 51.739 109.966 51.85 110.5 52.072C111.034 52.294 111.49 52.609 111.868 53.017C112.246 53.425 112.534 53.92 112.732 54.502C112.936 55.078 113.038 55.723 113.038 56.437C113.038 57.157 112.936 57.805 112.732 58.381C112.534 58.957 112.246 59.449 111.868 59.857C111.49 60.265 111.034 60.58 110.5 60.802C109.966 61.018 109.366 61.126 108.7 61.126C108.028 61.126 107.422 61.018 106.882 60.802C106.348 60.58 105.892 60.265 105.514 59.857C105.136 59.449 104.845 58.957 104.641 58.381C104.443 57.805 104.344 57.157 104.344 56.437C104.344 55.723 104.443 55.078 104.641 54.502C104.845 53.92 105.136 53.425 105.514 53.017C105.892 52.609 106.348 52.294 106.882 52.072C107.422 51.85 108.028 51.739 108.7 51.739ZM108.7 59.875C109.6 59.875 110.272 59.575 110.716 58.975C111.16 58.369 111.382 57.526 111.382 56.446C111.382 55.36 111.16 54.514 110.716 53.908C110.272 53.302 109.6 52.999 108.7 52.999C108.244 52.999 107.845 53.077 107.503 53.233C107.167 53.389 106.885 53.614 106.657 53.908C106.435 54.202 106.267 54.565 106.153 54.997C106.045 55.423 105.991 55.906 105.991 56.446C105.991 57.526 106.213 58.369 106.657 58.975C107.107 59.575 107.788 59.875 108.7 59.875ZM117.711 61.144C116.991 61.144 116.436 60.943 116.046 60.541C115.662 60.139 115.47 59.56 115.47 58.804V53.224H114.372C114.276 53.224 114.195 53.197 114.129 53.143C114.063 53.083 114.03 52.993 114.03 52.873V52.234L115.524 52.045L115.893 49.228C115.911 49.138 115.95 49.066 116.01 49.012C116.076 48.952 116.16 48.922 116.262 48.922H117.072V52.063H119.709V53.224H117.072V58.696C117.072 59.08 117.165 59.365 117.351 59.551C117.537 59.737 117.777 59.83 118.071 59.83C118.239 59.83 118.383 59.809 118.503 59.767C118.629 59.719 118.737 59.668 118.827 59.614C118.917 59.56 118.992 59.512 119.052 59.47C119.118 59.422 119.175 59.398 119.223 59.398C119.307 59.398 119.382 59.449 119.448 59.551L119.916 60.316C119.64 60.574 119.307 60.778 118.917 60.928C118.527 61.072 118.125 61.144 117.711 61.144ZM125.153 51.739C125.819 51.739 126.419 51.85 126.953 52.072C127.487 52.294 127.943 52.609 128.321 53.017C128.699 53.425 128.987 53.92 129.185 54.502C129.389 55.078 129.491 55.723 129.491 56.437C129.491 57.157 129.389 57.805 129.185 58.381C128.987 58.957 128.699 59.449 128.321 59.857C127.943 60.265 127.487 60.58 126.953 60.802C126.419 61.018 125.819 61.126 125.153 61.126C124.481 61.126 123.875 61.018 123.335 60.802C122.801 60.58 122.345 60.265 121.967 59.857C121.589 59.449 121.298 58.957 121.094 58.381C120.896 57.805 120.797 57.157 120.797 56.437C120.797 55.723 120.896 55.078 121.094 54.502C121.298 53.92 121.589 53.425 121.967 53.017C122.345 52.609 122.801 52.294 123.335 52.072C123.875 51.85 124.481 51.739 125.153 51.739ZM125.153 59.875C126.053 59.875 126.725 59.575 127.169 58.975C127.613 58.369 127.835 57.526 127.835 56.446C127.835 55.36 127.613 54.514 127.169 53.908C126.725 53.302 126.053 52.999 125.153 52.999C124.697 52.999 124.298 53.077 123.956 53.233C123.62 53.389 123.338 53.614 123.11 53.908C122.888 54.202 122.72 54.565 122.606 54.997C122.498 55.423 122.444 55.906 122.444 56.446C122.444 57.526 122.666 58.369 123.11 58.975C123.56 59.575 124.241 59.875 125.153 59.875ZM134.164 61.144C133.444 61.144 132.889 60.943 132.499 60.541C132.115 60.139 131.923 59.56 131.923 58.804V53.224H130.825C130.729 53.224 130.648 53.197 130.582 53.143C130.516 53.083 130.483 52.993 130.483 52.873V52.234L131.977 52.045L132.346 49.228C132.364 49.138 132.403 49.066 132.463 49.012C132.529 48.952 132.613 48.922 132.715 48.922H133.525V52.063H136.162V53.224H133.525V58.696C133.525 59.08 133.618 59.365 133.804 59.551C133.99 59.737 134.23 59.83 134.524 59.83C134.692 59.83 134.836 59.809 134.956 59.767C135.082 59.719 135.19 59.668 135.28 59.614C135.37 59.56 135.445 59.512 135.505 59.47C135.571 59.422 135.628 59.398 135.676 59.398C135.76 59.398 135.835 59.449 135.901 59.551L136.369 60.316C136.093 60.574 135.76 60.778 135.37 60.928C134.98 61.072 134.578 61.144 134.164 61.144ZM145.682 51.883L140.597 63.691C140.543 63.811 140.474 63.907 140.39 63.979C140.312 64.051 140.189 64.087 140.021 64.087H138.833L140.498 60.469L136.736 51.883H138.122C138.26 51.883 138.368 51.919 138.446 51.991C138.53 52.057 138.587 52.132 138.617 52.216L141.056 57.958C141.152 58.21 141.233 58.474 141.299 58.75C141.383 58.468 141.473 58.201 141.569 57.949L143.936 52.216C143.972 52.12 144.032 52.042 144.116 51.982C144.206 51.916 144.305 51.883 144.413 51.883H145.682ZM148.708 58.804C149.002 59.2 149.323 59.479 149.671 59.641C150.019 59.803 150.409 59.884 150.841 59.884C151.693 59.884 152.347 59.581 152.803 58.975C153.259 58.369 153.487 57.505 153.487 56.383C153.487 55.789 153.433 55.279 153.325 54.853C153.223 54.427 153.073 54.079 152.875 53.809C152.677 53.533 152.434 53.332 152.146 53.206C151.858 53.08 151.531 53.017 151.165 53.017C150.643 53.017 150.184 53.137 149.788 53.377C149.398 53.617 149.038 53.956 148.708 54.394V58.804ZM148.627 53.296C149.011 52.822 149.455 52.441 149.959 52.153C150.463 51.865 151.039 51.721 151.687 51.721C152.215 51.721 152.692 51.823 153.118 52.027C153.544 52.225 153.907 52.522 154.207 52.918C154.507 53.308 154.738 53.794 154.9 54.376C155.062 54.958 155.143 55.627 155.143 56.383C155.143 57.055 155.053 57.682 154.873 58.264C154.693 58.84 154.432 59.341 154.09 59.767C153.754 60.187 153.34 60.52 152.848 60.766C152.362 61.006 151.813 61.126 151.201 61.126C150.643 61.126 150.163 61.033 149.761 60.847C149.365 60.655 149.014 60.391 148.708 60.055V64.087H147.097V51.883H148.06C148.288 51.883 148.429 51.994 148.483 52.216L148.627 53.296ZM163.289 55.447C163.289 55.075 163.235 54.736 163.127 54.43C163.025 54.118 162.872 53.851 162.668 53.629C162.47 53.401 162.227 53.227 161.939 53.107C161.651 52.981 161.324 52.918 160.958 52.918C160.19 52.918 159.581 53.143 159.131 53.593C158.687 54.037 158.411 54.655 158.303 55.447H163.289ZM164.585 59.722C164.387 59.962 164.15 60.172 163.874 60.352C163.598 60.526 163.301 60.67 162.983 60.784C162.671 60.898 162.347 60.982 162.011 61.036C161.675 61.096 161.342 61.126 161.012 61.126C160.382 61.126 159.8 61.021 159.266 60.811C158.738 60.595 158.279 60.283 157.889 59.875C157.505 59.461 157.205 58.951 156.989 58.345C156.773 57.739 156.665 57.043 156.665 56.257C156.665 55.621 156.761 55.027 156.953 54.475C157.151 53.923 157.433 53.446 157.799 53.044C158.165 52.636 158.612 52.318 159.14 52.09C159.668 51.856 160.262 51.739 160.922 51.739C161.468 51.739 161.972 51.832 162.434 52.018C162.902 52.198 163.304 52.462 163.64 52.81C163.982 53.152 164.249 53.578 164.441 54.088C164.633 54.592 164.729 55.168 164.729 55.816C164.729 56.068 164.702 56.236 164.648 56.32C164.594 56.404 164.492 56.446 164.342 56.446H158.249C158.267 57.022 158.345 57.523 158.483 57.949C158.627 58.375 158.825 58.732 159.077 59.02C159.329 59.302 159.629 59.515 159.977 59.659C160.325 59.797 160.715 59.866 161.147 59.866C161.549 59.866 161.894 59.821 162.182 59.731C162.476 59.635 162.728 59.533 162.938 59.425C163.148 59.317 163.322 59.218 163.46 59.128C163.604 59.032 163.727 58.984 163.829 58.984C163.961 58.984 164.063 59.035 164.135 59.137L164.585 59.722Z" fill="#4F4F4F"/>
</svg>
