<svg width="234" height="32" viewBox="0 0 234 32" fill="none" xmlns="http://www.w3.org/2000/svg">
<path d="M14.5 4.86646V8.51628" stroke="#CE8200" stroke-width="2" stroke-linecap="round" stroke-linejoin="round"/>
<path d="M14.5 20.6824V24.3322" stroke="#CE8200" stroke-width="2" stroke-linecap="round" stroke-linejoin="round"/>
<path d="M7.25 7.29968L10.875 10.9495" stroke="#CE8200" stroke-width="2" stroke-linecap="round" stroke-linejoin="round"/>
<path d="M18.125 18.2491L21.75 21.899" stroke="#CE8200" stroke-width="2" stroke-linecap="round" stroke-linejoin="round"/>
<path d="M4.83337 14.5994H8.45837" stroke="#CE8200" stroke-width="2" stroke-linecap="round" stroke-linejoin="round"/>
<path d="M20.5416 14.5994H24.1666" stroke="#CE8200" stroke-width="2" stroke-linecap="round" stroke-linejoin="round"/>
<path d="M7.25 21.899L10.875 18.2491" stroke="#CE8200" stroke-width="2" stroke-linecap="round" stroke-linejoin="round"/>
<path d="M18.125 10.9495L21.75 7.29968" stroke="#CE8200" stroke-width="2" stroke-linecap="round" stroke-linejoin="round"/>
<path d="M47.656 9.008C47.544 10.368 47.488 11.584 47.488 12.656C47.488 13.408 47.512 14.016 47.56 14.48H47.008C46.688 12.672 46.208 11.4 45.568 10.664C44.928 9.928 44.032 9.56 42.88 9.56H42.088C41.592 9.56 41.232 9.6 41.008 9.68C40.784 9.76 40.632 9.92 40.552 10.16C40.472 10.384 40.432 10.752 40.432 11.264V17.312H41.272C42.12 17.312 42.76 17 43.192 16.376C43.64 15.752 43.952 15.008 44.128 14.144H44.68C44.632 14.816 44.608 15.568 44.608 16.4V17.552C44.608 18.368 44.656 19.504 44.752 20.96H44.2C43.864 18.848 42.888 17.792 41.272 17.792H40.432V23.312C40.432 23.952 40.496 24.424 40.624 24.728C40.768 25.016 41.008 25.208 41.344 25.304C41.696 25.4 42.248 25.456 43 25.472V26C41.032 25.952 39.568 25.928 38.608 25.928C37.808 25.928 36.8 25.944 35.584 25.976L34.816 26V25.52C35.344 25.488 35.728 25.424 35.968 25.328C36.224 25.232 36.392 25.048 36.472 24.776C36.568 24.504 36.616 24.064 36.616 23.456V11.552C36.616 10.944 36.568 10.504 36.472 10.232C36.392 9.96 36.224 9.776 35.968 9.68C35.728 9.584 35.344 9.52 34.816 9.488V9.008C36.544 9.056 39.152 9.08 42.64 9.08C44.992 9.08 46.664 9.056 47.656 9.008ZM51.8991 7.4C52.5711 7.4 53.0991 7.568 53.4831 7.904C53.8831 8.224 54.0831 8.672 54.0831 9.248C54.0831 9.824 53.8831 10.28 53.4831 10.616C53.0991 10.936 52.5711 11.096 51.8991 11.096C51.2271 11.096 50.6911 10.936 50.2911 10.616C49.9071 10.28 49.7151 9.824 49.7151 9.248C49.7151 8.672 49.9071 8.224 50.2911 7.904C50.6911 7.568 51.2271 7.4 51.8991 7.4ZM53.7711 23.768C53.7711 24.424 53.8831 24.88 54.1071 25.136C54.3471 25.376 54.7471 25.496 55.3071 25.496V26C53.7071 25.936 52.6431 25.904 52.1151 25.904C51.6191 25.904 50.5071 25.936 48.7791 26V25.496C49.3551 25.496 49.7551 25.376 49.9791 25.136C50.2031 24.88 50.3151 24.424 50.3151 23.768V16.208C50.3151 15.472 50.2031 14.936 49.9791 14.6C49.7551 14.264 49.3551 14.096 48.7791 14.096V13.592C49.2911 13.64 49.7871 13.664 50.2671 13.664C51.6911 13.664 52.8591 13.552 53.7711 13.328V23.768ZM65.2774 13.256C66.4934 13.256 67.3734 13.568 67.9174 14.192C68.1894 14.496 68.3814 14.888 68.4934 15.368C68.6054 15.848 68.6614 16.496 68.6614 17.312V23.768C68.6614 24.424 68.7734 24.88 68.9974 25.136C69.2374 25.376 69.6374 25.496 70.1974 25.496V26C68.5974 25.936 67.5414 25.904 67.0294 25.904C66.5494 25.904 65.5094 25.936 63.9094 26V25.496C64.3894 25.496 64.7254 25.376 64.9174 25.136C65.1094 24.88 65.2054 24.424 65.2054 23.768V16.304C65.2054 15.648 65.0934 15.152 64.8694 14.816C64.6614 14.48 64.2774 14.312 63.7174 14.312C63.0614 14.312 62.5014 14.584 62.0374 15.128C61.5734 15.656 61.3414 16.312 61.3414 17.096V23.768C61.3414 24.424 61.4374 24.88 61.6294 25.136C61.8214 25.376 62.1574 25.496 62.6374 25.496V26C61.1654 25.936 60.1734 25.904 59.6614 25.904C59.1814 25.904 58.0774 25.936 56.3494 26V25.496C56.9254 25.496 57.3254 25.376 57.5494 25.136C57.7734 24.88 57.8854 24.424 57.8854 23.768V16.208C57.8854 15.472 57.7734 14.936 57.5494 14.6C57.3254 14.264 56.9254 14.096 56.3494 14.096V13.592C56.8614 13.64 57.3574 13.664 57.8374 13.664C59.2614 13.664 60.4294 13.552 61.3414 13.328V15.488C62.0614 14 63.3734 13.256 65.2774 13.256ZM74.2596 26.168C73.2356 26.168 72.4676 25.904 71.9556 25.376C71.4596 24.848 71.2116 24.152 71.2116 23.288C71.2116 22.568 71.3956 21.976 71.7636 21.512C72.1476 21.032 72.6036 20.664 73.1316 20.408C73.6756 20.152 74.3636 19.88 75.1956 19.592C76.0756 19.288 76.7156 19.016 77.1156 18.776C77.5316 18.52 77.7396 18.176 77.7396 17.744V15.872C77.7396 15.2 77.5796 14.68 77.2596 14.312C76.9556 13.928 76.4756 13.736 75.8196 13.736C75.0516 13.736 74.4676 13.928 74.0676 14.312C74.5156 14.472 74.8596 14.712 75.0996 15.032C75.3556 15.352 75.4836 15.728 75.4836 16.16C75.4836 16.704 75.2996 17.136 74.9316 17.456C74.5636 17.776 74.1156 17.936 73.5876 17.936C73.0276 17.936 72.5956 17.76 72.2916 17.408C71.9876 17.056 71.8356 16.616 71.8356 16.088C71.8356 15.64 71.9396 15.264 72.1476 14.96C72.3716 14.64 72.7076 14.344 73.1556 14.072C73.5876 13.816 74.1156 13.616 74.7396 13.472C75.3796 13.328 76.0756 13.256 76.8276 13.256C77.6116 13.256 78.2916 13.336 78.8676 13.496C79.4436 13.656 79.9236 13.928 80.3076 14.312C80.6596 14.664 80.8916 15.096 81.0036 15.608C81.1316 16.12 81.1956 16.816 81.1956 17.696V24.224C81.1956 24.608 81.2276 24.88 81.2916 25.04C81.3716 25.2 81.5156 25.28 81.7236 25.28C81.9636 25.28 82.2516 25.144 82.5876 24.872L82.8276 25.28C82.1076 25.872 81.2276 26.168 80.1876 26.168C79.3076 26.168 78.6916 25.992 78.3396 25.64C77.9876 25.288 77.8036 24.816 77.7876 24.224C76.9876 25.52 75.8116 26.168 74.2596 26.168ZM76.1076 24.632C76.7316 24.632 77.2756 24.304 77.7396 23.648V18.728C77.5476 19.048 77.1396 19.4 76.5156 19.784C75.8916 20.184 75.4196 20.584 75.0996 20.984C74.7796 21.384 74.6196 21.96 74.6196 22.712C74.6196 23.368 74.7556 23.856 75.0276 24.176C75.2996 24.48 75.6596 24.632 76.1076 24.632ZM88.4095 23.768C88.4095 24.424 88.5215 24.88 88.7455 25.136C88.9695 25.376 89.3695 25.496 89.9455 25.496V26C88.2815 25.936 87.2095 25.904 86.7295 25.904C86.1855 25.904 85.0815 25.936 83.4175 26V25.496C83.9775 25.496 84.3695 25.376 84.5935 25.136C84.8335 24.88 84.9535 24.424 84.9535 23.768V10.088C84.9535 9.352 84.8335 8.816 84.5935 8.48C84.3695 8.144 83.9775 7.976 83.4175 7.976V7.472C83.9295 7.52 84.4255 7.544 84.9055 7.544C86.2975 7.544 87.4655 7.432 88.4095 7.208V23.768ZM95.7186 13.256C96.3266 13.256 96.8866 13.336 97.3986 13.496C97.9106 13.64 98.3026 13.808 98.5746 14C98.7346 14.112 98.8786 14.168 99.0066 14.168C99.1506 14.168 99.2706 14.096 99.3666 13.952C99.4786 13.792 99.5506 13.568 99.5826 13.28H100.087C100.023 14.096 99.9906 15.504 99.9906 17.504H99.4866C99.3426 16.448 99.0226 15.568 98.5266 14.864C98.0466 14.144 97.3426 13.784 96.4146 13.784C95.9346 13.784 95.5346 13.92 95.2146 14.192C94.9106 14.464 94.7586 14.84 94.7586 15.32C94.7586 15.864 94.9426 16.336 95.3106 16.736C95.6786 17.12 96.2546 17.592 97.0386 18.152L97.7346 18.656C98.7106 19.392 99.4306 20.048 99.8946 20.624C100.359 21.2 100.591 21.92 100.591 22.784C100.591 23.488 100.383 24.112 99.9666 24.656C99.5666 25.2 99.0226 25.616 98.3346 25.904C97.6466 26.192 96.8866 26.336 96.0546 26.336C95.1746 26.336 94.4226 26.168 93.7986 25.832C93.2866 25.576 92.9186 25.408 92.6946 25.328C92.5346 25.28 92.3906 25.336 92.2626 25.496C92.1506 25.64 92.0626 25.864 91.9986 26.168H91.4946C91.5586 25.256 91.5906 23.656 91.5906 21.368H92.0946C92.4146 24.312 93.4946 25.784 95.3346 25.784C95.7986 25.784 96.1906 25.648 96.5106 25.376C96.8466 25.088 97.0146 24.656 97.0146 24.08C97.0146 23.632 96.9106 23.232 96.7026 22.88C96.5106 22.528 96.2626 22.216 95.9586 21.944C95.6546 21.672 95.1986 21.296 94.5906 20.816C93.8706 20.24 93.3186 19.776 92.9346 19.424C92.5666 19.072 92.2466 18.656 91.9746 18.176C91.7186 17.696 91.5906 17.16 91.5906 16.568C91.5906 15.544 91.9906 14.736 92.7906 14.144C93.5906 13.552 94.5666 13.256 95.7186 13.256Z" fill="#CE8200"/>
</svg>
