<svg width="302" height="130" viewBox="0 0 302 130" fill="none" xmlns="http://www.w3.org/2000/svg">
<path d="M36 70.5C16.3873 70.5 0.5 54.8234 0.5 35.5C0.5 16.1766 16.3873 0.5 36 0.5C55.6127 0.5 71.5 16.1766 71.5 35.5C71.5 54.8234 55.6127 70.5 36 70.5Z" fill="#828282" stroke="black"/>
<path d="M25.7622 30.8852C26.0815 31.1983 26.5109 31.3736 26.958 31.3736C27.4052 31.3736 27.8345 31.1983 28.1539 30.8852L30.8872 28.1519C31.2002 27.8326 31.3756 27.4032 31.3756 26.9561C31.3756 26.5089 31.2002 26.0796 30.8872 25.7602L24.4468 19.3198C26.3451 18.4608 28.4601 18.2007 30.5099 18.5742C32.5598 18.9477 34.4471 19.937 35.9204 21.4104C37.3938 22.8837 38.3831 24.771 38.7566 26.8209C39.1301 28.8707 38.87 30.9857 38.011 32.884L49.8155 44.6886C50.4952 45.3682 50.877 46.29 50.877 47.2511C50.877 48.2122 50.4952 49.134 49.8155 49.8136C49.1359 50.4932 48.2142 50.875 47.253 50.875C46.2919 50.875 45.3702 50.4932 44.6905 49.8136L32.886 38.009C30.9877 38.868 28.8727 39.1281 26.8228 38.7546C24.773 38.3811 22.8856 37.3918 21.4123 35.9185C19.939 34.4451 18.9497 32.5578 18.5762 30.508C18.2027 28.4581 18.4628 26.3431 19.3218 24.4448L25.7451 30.8682L25.7622 30.8852Z" stroke="#4F4F4F" stroke-width="2" stroke-linecap="round" stroke-linejoin="round"/>
<path d="M124.814 13.608C124.066 13.7213 123.511 13.914 123.148 14.186C122.808 14.458 122.57 14.8887 122.434 15.478C122.321 16.0673 122.264 16.94 122.264 18.096V27.106C122.264 30.3473 121.799 32.75 120.87 34.314C120.258 35.3113 119.374 36.0933 118.218 36.66C117.062 37.204 115.645 37.476 113.968 37.476C111.339 37.476 109.299 36.9093 107.848 35.776C106.805 34.9373 106.103 33.8833 105.74 32.614C105.377 31.322 105.196 29.52 105.196 27.208V16.532C105.196 15.6707 105.128 15.0473 104.992 14.662C104.879 14.2767 104.641 14.016 104.278 13.88C103.938 13.744 103.394 13.6533 102.646 13.608V12.928C103.802 12.996 105.57 13.03 107.95 13.03C110.307 13.03 112.109 12.996 113.356 12.928V13.608C112.54 13.6533 111.939 13.744 111.554 13.88C111.191 14.016 110.942 14.2767 110.806 14.662C110.67 15.0473 110.602 15.6707 110.602 16.532V29.35C110.602 31.73 110.942 33.4867 111.622 34.62C112.325 35.7307 113.549 36.286 115.294 36.286C117.561 36.286 119.159 35.5267 120.088 34.008C121.017 32.4667 121.482 30.2907 121.482 27.48V18.504C121.482 17.1893 121.403 16.2147 121.244 15.58C121.085 14.9453 120.779 14.492 120.326 14.22C119.873 13.9253 119.159 13.7213 118.184 13.608V12.928C119.045 12.996 120.269 13.03 121.856 13.03C123.125 13.03 124.111 12.996 124.814 12.928V13.608ZM132.159 18.946C133.021 18.946 133.814 19.0593 134.539 19.286C135.265 19.49 135.82 19.728 136.205 20C136.432 20.1587 136.636 20.238 136.817 20.238C137.021 20.238 137.191 20.136 137.327 19.932C137.486 19.7053 137.588 19.388 137.633 18.98H138.347C138.257 20.136 138.211 22.1307 138.211 24.964H137.497C137.293 23.468 136.84 22.2213 136.137 21.224C135.457 20.204 134.46 19.694 133.145 19.694C132.465 19.694 131.899 19.8867 131.445 20.272C131.015 20.6573 130.799 21.19 130.799 21.87C130.799 22.6407 131.06 23.3093 131.581 23.876C132.103 24.42 132.919 25.0887 134.029 25.882L135.015 26.596C136.398 27.6387 137.418 28.568 138.075 29.384C138.733 30.2 139.061 31.22 139.061 32.444C139.061 33.4413 138.767 34.3253 138.177 35.096C137.611 35.8667 136.84 36.456 135.865 36.864C134.891 37.272 133.814 37.476 132.635 37.476C131.389 37.476 130.323 37.238 129.439 36.762C128.714 36.3993 128.193 36.1613 127.875 36.048C127.649 35.98 127.445 36.0593 127.263 36.286C127.105 36.49 126.98 36.8073 126.889 37.238H126.175C126.266 35.946 126.311 33.6793 126.311 30.438H127.025C127.479 34.6087 129.009 36.694 131.615 36.694C132.273 36.694 132.828 36.5013 133.281 36.116C133.757 35.708 133.995 35.096 133.995 34.28C133.995 33.6453 133.848 33.0787 133.553 32.58C133.281 32.0813 132.93 31.6393 132.499 31.254C132.069 30.8687 131.423 30.336 130.561 29.656C129.541 28.84 128.759 28.1827 128.215 27.684C127.694 27.1853 127.241 26.596 126.855 25.916C126.493 25.236 126.311 24.4767 126.311 23.638C126.311 22.1873 126.878 21.0427 128.011 20.204C129.145 19.3653 130.527 18.946 132.159 18.946ZM145.62 37.238C144.17 37.238 143.082 36.864 142.356 36.116C141.654 35.368 141.302 34.382 141.302 33.158C141.302 32.138 141.563 31.2993 142.084 30.642C142.628 29.962 143.274 29.4407 144.022 29.078C144.793 28.7153 145.768 28.33 146.946 27.922C148.193 27.4913 149.1 27.106 149.666 26.766C150.256 26.4033 150.55 25.916 150.55 25.304V22.652C150.55 21.7 150.324 20.9633 149.87 20.442C149.44 19.898 148.76 19.626 147.83 19.626C146.742 19.626 145.915 19.898 145.348 20.442C145.983 20.6687 146.47 21.0087 146.81 21.462C147.173 21.9153 147.354 22.448 147.354 23.06C147.354 23.8307 147.094 24.4427 146.572 24.896C146.051 25.3493 145.416 25.576 144.668 25.576C143.875 25.576 143.263 25.3267 142.832 24.828C142.402 24.3293 142.186 23.706 142.186 22.958C142.186 22.3233 142.334 21.7907 142.628 21.36C142.946 20.9067 143.422 20.4873 144.056 20.102C144.668 19.7393 145.416 19.456 146.3 19.252C147.207 19.048 148.193 18.946 149.258 18.946C150.369 18.946 151.332 19.0593 152.148 19.286C152.964 19.5127 153.644 19.898 154.188 20.442C154.687 20.9407 155.016 21.5527 155.174 22.278C155.356 23.0033 155.446 23.9893 155.446 25.236V34.484C155.446 35.028 155.492 35.4133 155.582 35.64C155.696 35.8667 155.9 35.98 156.194 35.98C156.534 35.98 156.942 35.7873 157.418 35.402L157.758 35.98C156.738 36.8187 155.492 37.238 154.018 37.238C152.772 37.238 151.899 36.9887 151.4 36.49C150.902 35.9913 150.641 35.3227 150.618 34.484C149.485 36.32 147.819 37.238 145.62 37.238ZM148.238 35.062C149.122 35.062 149.893 34.5973 150.55 33.668V26.698C150.278 27.1513 149.7 27.65 148.816 28.194C147.932 28.7607 147.264 29.3273 146.81 29.894C146.357 30.4607 146.13 31.2767 146.13 32.342C146.13 33.2713 146.323 33.9627 146.708 34.416C147.094 34.8467 147.604 35.062 148.238 35.062ZM170.392 18.946C172.228 18.946 173.713 19.7053 174.846 21.224C175.979 22.72 176.546 24.896 176.546 27.752C176.546 31.084 175.821 33.5433 174.37 35.13C172.919 36.694 171.049 37.476 168.76 37.476C167.196 37.476 165.927 37.0793 164.952 36.286C164.136 36.218 163.32 36.3087 162.504 36.558C161.688 36.8073 161.042 37.136 160.566 37.544L160.056 37.238C160.215 36.6713 160.294 36.0367 160.294 35.334V14.492C160.294 13.4493 160.124 12.69 159.784 12.214C159.467 11.738 158.911 11.5 158.118 11.5V10.786C158.821 10.854 159.523 10.888 160.226 10.888C162.198 10.888 163.853 10.7293 165.19 10.412V22.176C165.666 21.1333 166.357 20.34 167.264 19.796C168.171 19.2293 169.213 18.946 170.392 18.946ZM167.706 36.762C168.953 36.762 169.882 36.0593 170.494 34.654C171.106 33.2487 171.412 31.1067 171.412 28.228C171.412 25.44 171.151 23.4453 170.63 22.244C170.109 21.02 169.361 20.408 168.386 20.408C167.661 20.408 166.992 20.68 166.38 21.224C165.791 21.7453 165.394 22.4593 165.19 23.366V35.844C165.938 36.456 166.777 36.762 167.706 36.762ZM183.072 10.65C184.024 10.65 184.772 10.888 185.316 11.364C185.883 11.8173 186.166 12.452 186.166 13.268C186.166 14.084 185.883 14.73 185.316 15.206C184.772 15.6593 184.024 15.886 183.072 15.886C182.12 15.886 181.361 15.6593 180.794 15.206C180.25 14.73 179.978 14.084 179.978 13.268C179.978 12.452 180.25 11.8173 180.794 11.364C181.361 10.888 182.12 10.65 183.072 10.65ZM185.724 33.838C185.724 34.7673 185.883 35.4133 186.2 35.776C186.54 36.116 187.107 36.286 187.9 36.286V37C185.633 36.9093 184.126 36.864 183.378 36.864C182.675 36.864 181.1 36.9093 178.652 37V36.286C179.468 36.286 180.035 36.116 180.352 35.776C180.669 35.4133 180.828 34.7673 180.828 33.838V23.128C180.828 22.0853 180.669 21.326 180.352 20.85C180.035 20.374 179.468 20.136 178.652 20.136V19.422C179.377 19.49 180.08 19.524 180.76 19.524C182.777 19.524 184.432 19.3653 185.724 19.048V33.838ZM196.313 33.838C196.313 34.7673 196.471 35.4133 196.789 35.776C197.106 36.116 197.673 36.286 198.489 36.286V37C196.131 36.9093 194.613 36.864 193.933 36.864C193.162 36.864 191.598 36.9093 189.241 37V36.286C190.034 36.286 190.589 36.116 190.907 35.776C191.247 35.4133 191.417 34.7673 191.417 33.838V14.458C191.417 13.4153 191.247 12.656 190.907 12.18C190.589 11.704 190.034 11.466 189.241 11.466V10.752C189.966 10.82 190.669 10.854 191.349 10.854C193.321 10.854 194.975 10.6953 196.313 10.378V33.838ZM204.355 10.65C205.307 10.65 206.055 10.888 206.599 11.364C207.166 11.8173 207.449 12.452 207.449 13.268C207.449 14.084 207.166 14.73 206.599 15.206C206.055 15.6593 205.307 15.886 204.355 15.886C203.403 15.886 202.644 15.6593 202.077 15.206C201.533 14.73 201.261 14.084 201.261 13.268C201.261 12.452 201.533 11.8173 202.077 11.364C202.644 10.888 203.403 10.65 204.355 10.65ZM207.007 33.838C207.007 34.7673 207.166 35.4133 207.483 35.776C207.823 36.116 208.39 36.286 209.183 36.286V37C206.916 36.9093 205.409 36.864 204.661 36.864C203.958 36.864 202.383 36.9093 199.935 37V36.286C200.751 36.286 201.318 36.116 201.635 35.776C201.952 35.4133 202.111 34.7673 202.111 33.838V23.128C202.111 22.0853 201.952 21.326 201.635 20.85C201.318 20.374 200.751 20.136 199.935 20.136V19.422C200.66 19.49 201.363 19.524 202.043 19.524C204.06 19.524 205.715 19.3653 207.007 19.048V33.838ZM217.562 19.422H221.574V20.102H217.562V33.838C217.562 34.518 217.675 35.0053 217.902 35.3C218.151 35.572 218.536 35.708 219.058 35.708C220.032 35.708 220.803 35.028 221.37 33.668L221.948 33.974C221.086 36.3087 219.534 37.476 217.29 37.476C215.794 37.476 214.66 37.0907 213.89 36.32C213.414 35.844 213.085 35.2547 212.904 34.552C212.745 33.8267 212.666 32.8407 212.666 31.594V20.102H209.81V19.422H212.666V14.934C214.547 14.934 216.179 14.5713 217.562 13.846V19.422ZM236.621 19.524C237.754 19.524 238.627 19.49 239.239 19.422V20.102C238.763 20.238 238.332 20.5327 237.947 20.986C237.584 21.4167 237.233 22.0967 236.893 23.026L230.807 40.128C230.354 41.3067 229.855 42.1113 229.311 42.542C228.654 43.1087 227.668 43.392 226.353 43.392C225.401 43.392 224.54 43.154 223.769 42.678C223.021 42.2247 222.647 41.556 222.647 40.672C222.647 39.9693 222.896 39.4027 223.395 38.972C223.894 38.564 224.551 38.36 225.367 38.36C226.138 38.36 226.75 38.5413 227.203 38.904C227.679 39.2893 227.917 39.822 227.917 40.502C227.917 40.978 227.77 41.4087 227.475 41.794C227.18 42.202 226.761 42.508 226.217 42.712C226.376 42.7347 226.636 42.746 226.999 42.746C228.404 42.746 229.436 41.8507 230.093 40.06L230.637 38.428L223.429 22.04C223.066 21.2693 222.715 20.7593 222.375 20.51C222.035 20.2607 221.684 20.136 221.321 20.136V19.422C222.817 19.558 224.37 19.626 225.979 19.626C227.316 19.626 228.892 19.558 230.705 19.422V20.136C229.98 20.136 229.436 20.1927 229.073 20.306C228.733 20.3967 228.563 20.6573 228.563 21.088C228.563 21.3373 228.642 21.6547 228.801 22.04L232.949 32.07L235.295 25.542C235.658 24.4767 235.839 23.57 235.839 22.822C235.839 21.1673 235 20.2607 233.323 20.102V19.422C234.388 19.49 235.488 19.524 236.621 19.524Z" fill="#828282"/>
<path d="M108.336 73.096C106.885 73.096 105.755 72.68 104.944 71.848C104.133 71.016 103.728 69.8053 103.728 68.216V61.8H104.912V68.168C104.912 69.4693 105.205 70.44 105.792 71.08C106.379 71.72 107.227 72.04 108.336 72.04C109.456 72.04 110.309 71.72 110.896 71.08C111.483 70.44 111.776 69.4693 111.776 68.168V61.8H112.928V68.216C112.928 69.8053 112.523 71.016 111.712 71.848C110.912 72.68 109.787 73.096 108.336 73.096ZM118.512 73.08C117.829 73.08 117.173 72.984 116.544 72.792C115.925 72.5893 115.44 72.3387 115.088 72.04L115.6 71.144C115.952 71.4213 116.395 71.6507 116.928 71.832C117.461 72.0027 118.016 72.088 118.592 72.088C119.36 72.088 119.925 71.9707 120.288 71.736C120.661 71.4907 120.848 71.1493 120.848 70.712C120.848 70.4027 120.747 70.1627 120.544 69.992C120.341 69.8107 120.085 69.6773 119.776 69.592C119.467 69.496 119.056 69.4053 118.544 69.32C117.861 69.192 117.312 69.064 116.896 68.936C116.48 68.7973 116.123 68.568 115.824 68.248C115.536 67.928 115.392 67.4853 115.392 66.92C115.392 66.216 115.685 65.64 116.272 65.192C116.859 64.744 117.675 64.52 118.72 64.52C119.264 64.52 119.808 64.5947 120.352 64.744C120.896 64.8827 121.344 65.0693 121.696 65.304L121.2 66.216C120.507 65.736 119.68 65.496 118.72 65.496C117.995 65.496 117.445 65.624 117.072 65.88C116.709 66.136 116.528 66.472 116.528 66.888C116.528 67.208 116.629 67.464 116.832 67.656C117.045 67.848 117.307 67.992 117.616 68.088C117.925 68.1733 118.352 68.264 118.896 68.36C119.568 68.488 120.107 68.616 120.512 68.744C120.917 68.872 121.264 69.0907 121.552 69.4C121.84 69.7093 121.984 70.136 121.984 70.68C121.984 71.416 121.675 72.0027 121.056 72.44C120.448 72.8667 119.6 73.08 118.512 73.08ZM127.028 64.52C128.127 64.52 128.969 64.7973 129.556 65.352C130.143 65.896 130.436 66.7067 130.436 67.784V73H129.348V71.688C129.092 72.1253 128.713 72.4667 128.212 72.712C127.721 72.9573 127.135 73.08 126.452 73.08C125.513 73.08 124.767 72.856 124.212 72.408C123.657 71.96 123.38 71.368 123.38 70.632C123.38 69.9173 123.636 69.3413 124.148 68.904C124.671 68.4667 125.497 68.248 126.628 68.248H129.3V67.736C129.3 67.0107 129.097 66.4613 128.692 66.088C128.287 65.704 127.695 65.512 126.916 65.512C126.383 65.512 125.871 65.6027 125.38 65.784C124.889 65.9547 124.468 66.1947 124.116 66.504L123.604 65.656C124.031 65.2933 124.543 65.016 125.14 64.824C125.737 64.6213 126.367 64.52 127.028 64.52ZM126.628 72.184C127.268 72.184 127.817 72.04 128.276 71.752C128.735 71.4533 129.076 71.0267 129.3 70.472V69.096H126.66C125.22 69.096 124.5 69.5973 124.5 70.6C124.5 71.0907 124.687 71.48 125.06 71.768C125.433 72.0453 125.956 72.184 126.628 72.184ZM137.858 64.52C138.647 64.52 139.362 64.7013 140.002 65.064C140.642 65.416 141.143 65.9173 141.506 66.568C141.868 67.2187 142.05 67.96 142.05 68.792C142.05 69.624 141.868 70.3653 141.506 71.016C141.143 71.6667 140.642 72.1733 140.002 72.536C139.362 72.8987 138.647 73.08 137.858 73.08C137.154 73.08 136.519 72.9307 135.954 72.632C135.399 72.3333 134.951 71.9013 134.61 71.336V73H133.522V61.128H134.658V66.184C135.01 65.64 135.458 65.2293 136.002 64.952C136.556 64.664 137.175 64.52 137.858 64.52ZM137.778 72.072C138.364 72.072 138.898 71.9387 139.378 71.672C139.858 71.3947 140.231 71.0053 140.498 70.504C140.775 70.0027 140.914 69.432 140.914 68.792C140.914 68.152 140.775 67.5813 140.498 67.08C140.231 66.5787 139.858 66.1947 139.378 65.928C138.898 65.6507 138.364 65.512 137.778 65.512C137.18 65.512 136.642 65.6507 136.161 65.928C135.692 66.1947 135.319 66.5787 135.042 67.08C134.775 67.5813 134.642 68.152 134.642 68.792C134.642 69.432 134.775 70.0027 135.042 70.504C135.319 71.0053 135.692 71.3947 136.161 71.672C136.642 71.9387 137.18 72.072 137.778 72.072ZM144.365 64.584H145.501V73H144.365V64.584ZM144.941 62.744C144.707 62.744 144.509 62.664 144.349 62.504C144.189 62.344 144.109 62.152 144.109 61.928C144.109 61.7147 144.189 61.528 144.349 61.368C144.509 61.208 144.707 61.128 144.941 61.128C145.176 61.128 145.373 61.208 145.533 61.368C145.693 61.5173 145.773 61.6987 145.773 61.912C145.773 62.1467 145.693 62.344 145.533 62.504C145.373 62.664 145.176 62.744 144.941 62.744ZM148.662 61.128H149.798V73H148.662V61.128ZM152.959 64.584H154.095V73H152.959V64.584ZM153.535 62.744C153.3 62.744 153.103 62.664 152.943 62.504C152.783 62.344 152.703 62.152 152.703 61.928C152.703 61.7147 152.783 61.528 152.943 61.368C153.103 61.208 153.3 61.128 153.535 61.128C153.77 61.128 153.967 61.208 154.127 61.368C154.287 61.5173 154.367 61.6987 154.367 61.912C154.367 62.1467 154.287 62.344 154.127 62.504C153.967 62.664 153.77 62.744 153.535 62.744ZM161.688 72.488C161.475 72.68 161.208 72.8293 160.888 72.936C160.579 73.032 160.253 73.08 159.912 73.08C159.123 73.08 158.515 72.8667 158.088 72.44C157.661 72.0133 157.448 71.4107 157.448 70.632V65.544H155.944V64.584H157.448V62.744H158.584V64.584H161.144V65.544H158.584V70.568C158.584 71.0693 158.707 71.4533 158.952 71.72C159.208 71.976 159.571 72.104 160.04 72.104C160.275 72.104 160.499 72.0667 160.712 71.992C160.936 71.9173 161.128 71.8107 161.288 71.672L161.688 72.488ZM170.672 64.584L166.464 74.008C166.122 74.7973 165.728 75.3573 165.28 75.688C164.832 76.0187 164.293 76.184 163.664 76.184C163.258 76.184 162.88 76.12 162.528 75.992C162.176 75.864 161.872 75.672 161.616 75.416L162.144 74.568C162.57 74.9947 163.082 75.208 163.68 75.208C164.064 75.208 164.389 75.1013 164.656 74.888C164.933 74.6747 165.189 74.312 165.424 73.8L165.792 72.984L162.032 64.584H163.216L166.384 71.736L169.552 64.584H170.672ZM180.891 72.488C180.678 72.68 180.411 72.8293 180.091 72.936C179.782 73.032 179.456 73.08 179.115 73.08C178.326 73.08 177.718 72.8667 177.291 72.44C176.864 72.0133 176.651 71.4107 176.651 70.632V65.544H175.147V64.584H176.651V62.744H177.787V64.584H180.347V65.544H177.787V70.568C177.787 71.0693 177.91 71.4533 178.155 71.72C178.411 71.976 178.774 72.104 179.243 72.104C179.478 72.104 179.702 72.0667 179.915 71.992C180.139 71.9173 180.331 71.8107 180.491 71.672L180.891 72.488ZM189.99 69.144H182.95C183.014 70.0187 183.35 70.728 183.958 71.272C184.566 71.8053 185.334 72.072 186.262 72.072C186.785 72.072 187.265 71.9813 187.702 71.8C188.139 71.608 188.518 71.3307 188.838 70.968L189.478 71.704C189.105 72.152 188.635 72.4933 188.07 72.728C187.515 72.9627 186.902 73.08 186.23 73.08C185.366 73.08 184.598 72.8987 183.926 72.536C183.265 72.1627 182.747 71.6507 182.374 71C182.001 70.3493 181.814 69.6133 181.814 68.792C181.814 67.9707 181.99 67.2347 182.342 66.584C182.705 65.9333 183.195 65.4267 183.814 65.064C184.443 64.7013 185.147 64.52 185.926 64.52C186.705 64.52 187.403 64.7013 188.022 65.064C188.641 65.4267 189.126 65.9333 189.478 66.584C189.83 67.224 190.006 67.96 190.006 68.792L189.99 69.144ZM185.926 65.496C185.115 65.496 184.433 65.7573 183.878 66.28C183.334 66.792 183.025 67.464 182.95 68.296H188.918C188.843 67.464 188.529 66.792 187.974 66.28C187.43 65.7573 186.747 65.496 185.926 65.496ZM194.574 73.08C193.892 73.08 193.236 72.984 192.606 72.792C191.988 72.5893 191.502 72.3387 191.15 72.04L191.662 71.144C192.014 71.4213 192.457 71.6507 192.99 71.832C193.524 72.0027 194.078 72.088 194.654 72.088C195.422 72.088 195.988 71.9707 196.35 71.736C196.724 71.4907 196.91 71.1493 196.91 70.712C196.91 70.4027 196.809 70.1627 196.606 69.992C196.404 69.8107 196.148 69.6773 195.838 69.592C195.529 69.496 195.118 69.4053 194.606 69.32C193.924 69.192 193.374 69.064 192.958 68.936C192.542 68.7973 192.185 68.568 191.886 68.248C191.598 67.928 191.454 67.4853 191.454 66.92C191.454 66.216 191.748 65.64 192.334 65.192C192.921 64.744 193.737 64.52 194.782 64.52C195.326 64.52 195.87 64.5947 196.414 64.744C196.958 64.8827 197.406 65.0693 197.758 65.304L197.262 66.216C196.569 65.736 195.742 65.496 194.782 65.496C194.057 65.496 193.508 65.624 193.134 65.88C192.772 66.136 192.59 66.472 192.59 66.888C192.59 67.208 192.692 67.464 192.894 67.656C193.108 67.848 193.369 67.992 193.678 68.088C193.988 68.1733 194.414 68.264 194.958 68.36C195.63 68.488 196.169 68.616 196.574 68.744C196.98 68.872 197.326 69.0907 197.614 69.4C197.902 69.7093 198.046 70.136 198.046 70.68C198.046 71.416 197.737 72.0027 197.118 72.44C196.51 72.8667 195.662 73.08 194.574 73.08ZM204.579 72.488C204.365 72.68 204.099 72.8293 203.779 72.936C203.469 73.032 203.144 73.08 202.803 73.08C202.013 73.08 201.405 72.8667 200.979 72.44C200.552 72.0133 200.339 71.4107 200.339 70.632V65.544H198.835V64.584H200.339V62.744H201.475V64.584H204.035V65.544H201.475V70.568C201.475 71.0693 201.597 71.4533 201.843 71.72C202.099 71.976 202.461 72.104 202.931 72.104C203.165 72.104 203.389 72.0667 203.603 71.992C203.827 71.9173 204.019 71.8107 204.179 71.672L204.579 72.488ZM206.647 64.584H207.783V73H206.647V64.584ZM207.223 62.744C206.988 62.744 206.791 62.664 206.631 62.504C206.471 62.344 206.391 62.152 206.391 61.928C206.391 61.7147 206.471 61.528 206.631 61.368C206.791 61.208 206.988 61.128 207.223 61.128C207.457 61.128 207.655 61.208 207.815 61.368C207.975 61.5173 208.055 61.6987 208.055 61.912C208.055 62.1467 207.975 62.344 207.815 62.504C207.655 62.664 207.457 62.744 207.223 62.744ZM215.231 64.52C216.287 64.52 217.125 64.8293 217.743 65.448C218.373 66.056 218.687 66.9467 218.687 68.12V73H217.551V68.232C217.551 67.3573 217.333 66.6907 216.895 66.232C216.458 65.7733 215.834 65.544 215.023 65.544C214.117 65.544 213.397 65.816 212.863 66.36C212.341 66.8933 212.079 67.6347 212.079 68.584V73H210.943V64.584H212.031V66.136C212.341 65.624 212.767 65.2293 213.311 64.952C213.866 64.664 214.506 64.52 215.231 64.52ZM229.595 64.584V71.976C229.595 73.4053 229.243 74.4613 228.539 75.144C227.845 75.8373 226.795 76.184 225.387 76.184C224.608 76.184 223.867 76.0667 223.163 75.832C222.469 75.608 221.904 75.2933 221.467 74.888L222.043 74.024C222.448 74.3867 222.939 74.6693 223.515 74.872C224.101 75.0747 224.715 75.176 225.355 75.176C226.421 75.176 227.205 74.9253 227.707 74.424C228.208 73.9333 228.459 73.1653 228.459 72.12V71.048C228.107 71.5813 227.643 71.9867 227.067 72.264C226.501 72.5413 225.872 72.68 225.179 72.68C224.389 72.68 223.669 72.5093 223.019 72.168C222.379 71.816 221.872 71.3307 221.499 70.712C221.136 70.0827 220.955 69.3733 220.955 68.584C220.955 67.7947 221.136 67.0907 221.499 66.472C221.872 65.8533 222.379 65.3733 223.019 65.032C223.659 64.6907 224.379 64.52 225.179 64.52C225.893 64.52 226.539 64.664 227.115 64.952C227.691 65.24 228.155 65.656 228.507 66.2V64.584H229.595ZM225.291 71.672C225.899 71.672 226.448 71.544 226.939 71.288C227.429 71.0213 227.808 70.6533 228.075 70.184C228.352 69.7147 228.491 69.1813 228.491 68.584C228.491 67.9867 228.352 67.4587 228.075 67C227.808 66.5307 227.429 66.168 226.939 65.912C226.459 65.6453 225.909 65.512 225.291 65.512C224.683 65.512 224.133 65.64 223.643 65.896C223.163 66.152 222.784 66.5147 222.507 66.984C222.24 67.4533 222.107 67.9867 222.107 68.584C222.107 69.1813 222.24 69.7147 222.507 70.184C222.784 70.6533 223.163 71.0213 223.643 71.288C224.133 71.544 224.683 71.672 225.291 71.672ZM110.848 95.008H104.608L103.264 98H102.032L107.152 86.8H108.32L113.44 98H112.192L110.848 95.008ZM110.416 94.048L107.728 88.032L105.04 94.048H110.416ZM117.837 87.008C117.346 87.008 116.973 87.1413 116.717 87.408C116.471 87.6747 116.349 88.0693 116.349 88.592V89.584H118.941V90.544H116.381V98H115.245V90.544H113.741V89.584H115.245V88.544C115.245 87.776 115.463 87.168 115.901 86.72C116.349 86.272 116.978 86.048 117.789 86.048C118.109 86.048 118.418 86.096 118.717 86.192C119.015 86.2773 119.266 86.4053 119.469 86.576L119.085 87.424C118.754 87.1467 118.338 87.008 117.837 87.008ZM123.259 87.008C122.768 87.008 122.395 87.1413 122.139 87.408C121.893 87.6747 121.771 88.0693 121.771 88.592V89.584H124.363V90.544H121.803V98H120.667V90.544H119.163V89.584H120.667V88.544C120.667 87.776 120.885 87.168 121.323 86.72C121.771 86.272 122.4 86.048 123.211 86.048C123.531 86.048 123.84 86.096 124.139 86.192C124.437 86.2773 124.688 86.4053 124.891 86.576L124.507 87.424C124.176 87.1467 123.76 87.008 123.259 87.008ZM127.179 89.584H128.315V98H127.179V89.584ZM127.755 87.744C127.52 87.744 127.323 87.664 127.163 87.504C127.003 87.344 126.923 87.152 126.923 86.928C126.923 86.7147 127.003 86.528 127.163 86.368C127.323 86.208 127.52 86.128 127.755 86.128C127.989 86.128 128.187 86.208 128.347 86.368C128.507 86.5173 128.587 86.6987 128.587 86.912C128.587 87.1467 128.507 87.344 128.347 87.504C128.187 87.664 127.989 87.744 127.755 87.744ZM135.778 89.52C136.834 89.52 137.672 89.8293 138.29 90.448C138.92 91.056 139.234 91.9467 139.234 93.12V98H138.098V93.232C138.098 92.3573 137.88 91.6907 137.442 91.232C137.005 90.7733 136.381 90.544 135.57 90.544C134.664 90.544 133.944 90.816 133.41 91.36C132.888 91.8933 132.626 92.6347 132.626 93.584V98H131.49V89.584H132.578V91.136C132.888 90.624 133.314 90.2293 133.858 89.952C134.413 89.664 135.053 89.52 135.778 89.52ZM142.318 89.584H143.454V98H142.318V89.584ZM142.894 87.744C142.66 87.744 142.462 87.664 142.302 87.504C142.142 87.344 142.062 87.152 142.062 86.928C142.062 86.7147 142.142 86.528 142.302 86.368C142.462 86.208 142.66 86.128 142.894 86.128C143.129 86.128 143.326 86.208 143.486 86.368C143.646 86.5173 143.726 86.6987 143.726 86.912C143.726 87.1467 143.646 87.344 143.486 87.504C143.326 87.664 143.129 87.744 142.894 87.744ZM151.047 97.488C150.834 97.68 150.567 97.8293 150.247 97.936C149.938 98.032 149.613 98.08 149.271 98.08C148.482 98.08 147.874 97.8667 147.447 97.44C147.021 97.0133 146.807 96.4107 146.807 95.632V90.544H145.303V89.584H146.807V87.744H147.943V89.584H150.503V90.544H147.943V95.568C147.943 96.0693 148.066 96.4533 148.311 96.72C148.567 96.976 148.93 97.104 149.399 97.104C149.634 97.104 149.858 97.0667 150.071 96.992C150.295 96.9173 150.487 96.8107 150.647 96.672L151.047 97.488ZM160.031 89.584L155.823 99.008C155.482 99.7973 155.087 100.357 154.639 100.688C154.191 101.019 153.652 101.184 153.023 101.184C152.618 101.184 152.239 101.12 151.887 100.992C151.535 100.864 151.231 100.672 150.975 100.416L151.503 99.568C151.93 99.9947 152.442 100.208 153.039 100.208C153.423 100.208 153.748 100.101 154.015 99.888C154.292 99.6747 154.548 99.312 154.783 98.8L155.151 97.984L151.391 89.584H152.575L155.743 96.736L158.911 89.584H160.031ZM176.314 89.52C177.37 89.52 178.197 89.824 178.794 90.432C179.402 91.04 179.706 91.936 179.706 93.12V98H178.57V93.232C178.57 92.3573 178.357 91.6907 177.93 91.232C177.514 90.7733 176.922 90.544 176.154 90.544C175.28 90.544 174.592 90.816 174.09 91.36C173.589 91.8933 173.338 92.6347 173.338 93.584V98H172.202V93.232C172.202 92.3573 171.989 91.6907 171.562 91.232C171.146 90.7733 170.549 90.544 169.77 90.544C168.906 90.544 168.218 90.816 167.706 91.36C167.205 91.8933 166.954 92.6347 166.954 93.584V98H165.818V89.584H166.906V91.12C167.205 90.608 167.621 90.2133 168.154 89.936C168.688 89.6587 169.301 89.52 169.994 89.52C170.698 89.52 171.306 89.6693 171.818 89.968C172.341 90.2667 172.73 90.7093 172.986 91.296C173.296 90.7413 173.738 90.3093 174.314 90C174.901 89.68 175.568 89.52 176.314 89.52ZM185.731 89.52C186.83 89.52 187.672 89.7973 188.259 90.352C188.846 90.896 189.139 91.7067 189.139 92.784V98H188.051V96.688C187.795 97.1253 187.416 97.4667 186.915 97.712C186.424 97.9573 185.838 98.08 185.155 98.08C184.216 98.08 183.47 97.856 182.915 97.408C182.36 96.96 182.083 96.368 182.083 95.632C182.083 94.9173 182.339 94.3413 182.851 93.904C183.374 93.4667 184.2 93.248 185.331 93.248H188.003V92.736C188.003 92.0107 187.8 91.4613 187.395 91.088C186.99 90.704 186.398 90.512 185.619 90.512C185.086 90.512 184.574 90.6027 184.083 90.784C183.592 90.9547 183.171 91.1947 182.819 91.504L182.307 90.656C182.734 90.2933 183.246 90.016 183.843 89.824C184.44 89.6213 185.07 89.52 185.731 89.52ZM185.331 97.184C185.971 97.184 186.52 97.04 186.979 96.752C187.438 96.4533 187.779 96.0267 188.003 95.472V94.096H185.363C183.923 94.096 183.203 94.5973 183.203 95.6C183.203 96.0907 183.39 96.48 183.763 96.768C184.136 97.0453 184.659 97.184 185.331 97.184ZM196.561 89.52C197.35 89.52 198.065 89.7013 198.705 90.064C199.345 90.416 199.846 90.9173 200.209 91.568C200.571 92.2187 200.753 92.96 200.753 93.792C200.753 94.6347 200.571 95.3813 200.209 96.032C199.846 96.6827 199.345 97.1893 198.705 97.552C198.075 97.904 197.361 98.08 196.561 98.08C195.878 98.08 195.259 97.9413 194.705 97.664C194.161 97.376 193.713 96.96 193.361 96.416V101.104H192.225V89.584H193.313V91.248C193.654 90.6933 194.102 90.2667 194.657 89.968C195.222 89.6693 195.857 89.52 196.561 89.52ZM196.481 97.072C197.067 97.072 197.601 96.9387 198.081 96.672C198.561 96.3947 198.934 96.0053 199.201 95.504C199.478 95.0027 199.617 94.432 199.617 93.792C199.617 93.152 199.478 92.5867 199.201 92.096C198.934 91.5947 198.561 91.2053 198.081 90.928C197.601 90.6507 197.067 90.512 196.481 90.512C195.883 90.512 195.345 90.6507 194.865 90.928C194.395 91.2053 194.022 91.5947 193.745 92.096C193.478 92.5867 193.345 93.152 193.345 93.792C193.345 94.432 193.478 95.0027 193.745 95.504C194.022 96.0053 194.395 96.3947 194.865 96.672C195.345 96.9387 195.883 97.072 196.481 97.072ZM207.404 89.52C208.194 89.52 208.908 89.7013 209.548 90.064C210.188 90.416 210.69 90.9173 211.052 91.568C211.415 92.2187 211.596 92.96 211.596 93.792C211.596 94.6347 211.415 95.3813 211.052 96.032C210.69 96.6827 210.188 97.1893 209.548 97.552C208.919 97.904 208.204 98.08 207.404 98.08C206.722 98.08 206.103 97.9413 205.548 97.664C205.004 97.376 204.556 96.96 204.204 96.416V101.104H203.068V89.584H204.156V91.248C204.498 90.6933 204.946 90.2667 205.5 89.968C206.066 89.6693 206.7 89.52 207.404 89.52ZM207.324 97.072C207.911 97.072 208.444 96.9387 208.924 96.672C209.404 96.3947 209.778 96.0053 210.044 95.504C210.322 95.0027 210.46 94.432 210.46 93.792C210.46 93.152 210.322 92.5867 210.044 92.096C209.778 91.5947 209.404 91.2053 208.924 90.928C208.444 90.6507 207.911 90.512 207.324 90.512C206.727 90.512 206.188 90.6507 205.708 90.928C205.239 91.2053 204.866 91.5947 204.588 92.096C204.322 92.5867 204.188 93.152 204.188 93.792C204.188 94.432 204.322 95.0027 204.588 95.504C204.866 96.0053 205.239 96.3947 205.708 96.672C206.188 96.9387 206.727 97.072 207.324 97.072ZM213.912 89.584H215.048V98H213.912V89.584ZM214.488 87.744C214.253 87.744 214.056 87.664 213.896 87.504C213.736 87.344 213.656 87.152 213.656 86.928C213.656 86.7147 213.736 86.528 213.896 86.368C214.056 86.208 214.253 86.128 214.488 86.128C214.723 86.128 214.92 86.208 215.08 86.368C215.24 86.5173 215.32 86.6987 215.32 86.912C215.32 87.1467 215.24 87.344 215.08 87.504C214.92 87.664 214.723 87.744 214.488 87.744ZM222.497 89.52C223.553 89.52 224.39 89.8293 225.009 90.448C225.638 91.056 225.953 91.9467 225.953 93.12V98H224.817V93.232C224.817 92.3573 224.598 91.6907 224.161 91.232C223.724 90.7733 223.1 90.544 222.289 90.544C221.382 90.544 220.662 90.816 220.129 91.36C219.606 91.8933 219.345 92.6347 219.345 93.584V98H218.209V89.584H219.297V91.136C219.606 90.624 220.033 90.2293 220.577 89.952C221.132 89.664 221.772 89.52 222.497 89.52ZM236.86 89.584V96.976C236.86 98.4053 236.508 99.4613 235.804 100.144C235.111 100.837 234.06 101.184 232.652 101.184C231.874 101.184 231.132 101.067 230.428 100.832C229.735 100.608 229.17 100.293 228.732 99.888L229.308 99.024C229.714 99.3867 230.204 99.6693 230.78 99.872C231.367 100.075 231.98 100.176 232.62 100.176C233.687 100.176 234.471 99.9253 234.972 99.424C235.474 98.9333 235.724 98.1653 235.724 97.12V96.048C235.372 96.5813 234.908 96.9867 234.332 97.264C233.767 97.5413 233.138 97.68 232.444 97.68C231.655 97.68 230.935 97.5093 230.284 97.168C229.644 96.816 229.138 96.3307 228.764 95.712C228.402 95.0827 228.22 94.3733 228.22 93.584C228.22 92.7947 228.402 92.0907 228.764 91.472C229.138 90.8533 229.644 90.3733 230.284 90.032C230.924 89.6907 231.644 89.52 232.444 89.52C233.159 89.52 233.804 89.664 234.38 89.952C234.956 90.24 235.42 90.656 235.772 91.2V89.584H236.86ZM232.556 96.672C233.164 96.672 233.714 96.544 234.204 96.288C234.695 96.0213 235.074 95.6533 235.34 95.184C235.618 94.7147 235.756 94.1813 235.756 93.584C235.756 92.9867 235.618 92.4587 235.34 92C235.074 91.5307 234.695 91.168 234.204 90.912C233.724 90.6453 233.175 90.512 232.556 90.512C231.948 90.512 231.399 90.64 230.908 90.896C230.428 91.152 230.05 91.5147 229.772 91.984C229.506 92.4533 229.372 92.9867 229.372 93.584C229.372 94.1813 229.506 94.7147 229.772 95.184C230.05 95.6533 230.428 96.0213 230.908 96.288C231.399 96.544 231.948 96.672 232.556 96.672ZM103.824 111.8H108.384C109.568 111.8 110.613 112.04 111.52 112.52C112.427 112.989 113.131 113.651 113.632 114.504C114.133 115.347 114.384 116.312 114.384 117.4C114.384 118.488 114.133 119.459 113.632 120.312C113.131 121.155 112.427 121.816 111.52 122.296C110.613 122.765 109.568 123 108.384 123H103.824V111.8ZM108.32 121.976C109.301 121.976 110.16 121.784 110.896 121.4C111.632 121.005 112.203 120.467 112.608 119.784C113.013 119.091 113.216 118.296 113.216 117.4C113.216 116.504 113.013 115.715 112.608 115.032C112.203 114.339 111.632 113.8 110.896 113.416C110.16 113.021 109.301 112.824 108.32 112.824H105.008V121.976H108.32ZM124.131 119.144H117.091C117.155 120.019 117.491 120.728 118.099 121.272C118.707 121.805 119.475 122.072 120.403 122.072C120.925 122.072 121.405 121.981 121.843 121.8C122.28 121.608 122.659 121.331 122.979 120.968L123.619 121.704C123.245 122.152 122.776 122.493 122.211 122.728C121.656 122.963 121.043 123.08 120.371 123.08C119.507 123.08 118.739 122.899 118.067 122.536C117.405 122.163 116.888 121.651 116.515 121C116.141 120.349 115.955 119.613 115.955 118.792C115.955 117.971 116.131 117.235 116.483 116.584C116.845 115.933 117.336 115.427 117.955 115.064C118.584 114.701 119.288 114.52 120.067 114.52C120.845 114.52 121.544 114.701 122.163 115.064C122.781 115.427 123.267 115.933 123.619 116.584C123.971 117.224 124.147 117.96 124.147 118.792L124.131 119.144ZM120.067 115.496C119.256 115.496 118.573 115.757 118.019 116.28C117.475 116.792 117.165 117.464 117.091 118.296H123.059C122.984 117.464 122.669 116.792 122.115 116.28C121.571 115.757 120.888 115.496 120.067 115.496ZM128.715 123.08C128.032 123.08 127.376 122.984 126.747 122.792C126.128 122.589 125.643 122.339 125.291 122.04L125.803 121.144C126.155 121.421 126.598 121.651 127.131 121.832C127.664 122.003 128.219 122.088 128.795 122.088C129.563 122.088 130.128 121.971 130.491 121.736C130.864 121.491 131.051 121.149 131.051 120.712C131.051 120.403 130.95 120.163 130.747 119.992C130.544 119.811 130.288 119.677 129.979 119.592C129.67 119.496 129.259 119.405 128.747 119.32C128.064 119.192 127.515 119.064 127.099 118.936C126.683 118.797 126.326 118.568 126.027 118.248C125.739 117.928 125.595 117.485 125.595 116.92C125.595 116.216 125.888 115.64 126.475 115.192C127.062 114.744 127.878 114.52 128.923 114.52C129.467 114.52 130.011 114.595 130.555 114.744C131.099 114.883 131.547 115.069 131.899 115.304L131.403 116.216C130.71 115.736 129.883 115.496 128.923 115.496C128.198 115.496 127.648 115.624 127.275 115.88C126.912 116.136 126.731 116.472 126.731 116.888C126.731 117.208 126.832 117.464 127.035 117.656C127.248 117.848 127.51 117.992 127.819 118.088C128.128 118.173 128.555 118.264 129.099 118.36C129.771 118.488 130.31 118.616 130.715 118.744C131.12 118.872 131.467 119.091 131.755 119.4C132.043 119.709 132.187 120.136 132.187 120.68C132.187 121.416 131.878 122.003 131.259 122.44C130.651 122.867 129.803 123.08 128.715 123.08ZM134.287 114.584H135.423V123H134.287V114.584ZM134.863 112.744C134.628 112.744 134.431 112.664 134.271 112.504C134.111 112.344 134.031 112.152 134.031 111.928C134.031 111.715 134.111 111.528 134.271 111.368C134.431 111.208 134.628 111.128 134.863 111.128C135.098 111.128 135.295 111.208 135.455 111.368C135.615 111.517 135.695 111.699 135.695 111.912C135.695 112.147 135.615 112.344 135.455 112.504C135.295 112.664 135.098 112.744 134.863 112.744ZM146.376 114.584V121.976C146.376 123.405 146.024 124.461 145.32 125.144C144.627 125.837 143.576 126.184 142.168 126.184C141.389 126.184 140.648 126.067 139.944 125.832C139.251 125.608 138.685 125.293 138.248 124.888L138.824 124.024C139.229 124.387 139.72 124.669 140.296 124.872C140.883 125.075 141.496 125.176 142.136 125.176C143.203 125.176 143.987 124.925 144.488 124.424C144.989 123.933 145.24 123.165 145.24 122.12V121.048C144.888 121.581 144.424 121.987 143.848 122.264C143.283 122.541 142.653 122.68 141.96 122.68C141.171 122.68 140.451 122.509 139.8 122.168C139.16 121.816 138.653 121.331 138.28 120.712C137.917 120.083 137.736 119.373 137.736 118.584C137.736 117.795 137.917 117.091 138.28 116.472C138.653 115.853 139.16 115.373 139.8 115.032C140.44 114.691 141.16 114.52 141.96 114.52C142.675 114.52 143.32 114.664 143.896 114.952C144.472 115.24 144.936 115.656 145.288 116.2V114.584H146.376ZM142.072 121.672C142.68 121.672 143.229 121.544 143.72 121.288C144.211 121.021 144.589 120.653 144.856 120.184C145.133 119.715 145.272 119.181 145.272 118.584C145.272 117.987 145.133 117.459 144.856 117C144.589 116.531 144.211 116.168 143.72 115.912C143.24 115.645 142.691 115.512 142.072 115.512C141.464 115.512 140.915 115.64 140.424 115.896C139.944 116.152 139.565 116.515 139.288 116.984C139.021 117.453 138.888 117.987 138.888 118.584C138.888 119.181 139.021 119.715 139.288 120.184C139.565 120.653 139.944 121.021 140.424 121.288C140.915 121.544 141.464 121.672 142.072 121.672ZM153.841 114.52C154.897 114.52 155.734 114.829 156.353 115.448C156.982 116.056 157.297 116.947 157.297 118.12V123H156.161V118.232C156.161 117.357 155.942 116.691 155.505 116.232C155.067 115.773 154.443 115.544 153.633 115.544C152.726 115.544 152.006 115.816 151.473 116.36C150.95 116.893 150.689 117.635 150.689 118.584V123H149.553V114.584H150.641V116.136C150.95 115.624 151.377 115.229 151.921 114.952C152.475 114.664 153.115 114.52 153.841 114.52ZM164.568 114.584H165.704V123H164.568V114.584ZM165.144 112.744C164.91 112.744 164.712 112.664 164.552 112.504C164.392 112.344 164.312 112.152 164.312 111.928C164.312 111.715 164.392 111.528 164.552 111.368C164.712 111.208 164.91 111.128 165.144 111.128C165.379 111.128 165.576 111.208 165.736 111.368C165.896 111.517 165.976 111.699 165.976 111.912C165.976 112.147 165.896 112.344 165.736 112.504C165.576 112.664 165.379 112.744 165.144 112.744ZM173.297 122.488C173.084 122.68 172.817 122.829 172.497 122.936C172.188 123.032 171.863 123.08 171.521 123.08C170.732 123.08 170.124 122.867 169.697 122.44C169.271 122.013 169.057 121.411 169.057 120.632V115.544H167.553V114.584H169.057V112.744H170.193V114.584H172.753V115.544H170.193V120.568C170.193 121.069 170.316 121.453 170.561 121.72C170.817 121.976 171.18 122.104 171.649 122.104C171.884 122.104 172.108 122.067 172.321 121.992C172.545 121.917 172.737 121.811 172.897 121.672L173.297 122.488ZM182.396 119.144H175.356C175.42 120.019 175.756 120.728 176.364 121.272C176.972 121.805 177.74 122.072 178.668 122.072C179.191 122.072 179.671 121.981 180.108 121.8C180.546 121.608 180.924 121.331 181.244 120.968L181.884 121.704C181.511 122.152 181.042 122.493 180.476 122.728C179.922 122.963 179.308 123.08 178.636 123.08C177.772 123.08 177.004 122.899 176.332 122.536C175.671 122.163 175.154 121.651 174.78 121C174.407 120.349 174.22 119.613 174.22 118.792C174.22 117.971 174.396 117.235 174.748 116.584C175.111 115.933 175.602 115.427 176.22 115.064C176.85 114.701 177.554 114.52 178.332 114.52C179.111 114.52 179.81 114.701 180.428 115.064C181.047 115.427 181.532 115.933 181.884 116.584C182.236 117.224 182.412 117.96 182.412 118.792L182.396 119.144ZM178.332 115.496C177.522 115.496 176.839 115.757 176.284 116.28C175.74 116.792 175.431 117.464 175.356 118.296H181.324C181.25 117.464 180.935 116.792 180.38 116.28C179.836 115.757 179.154 115.496 178.332 115.496ZM185.813 116.232C186.079 115.667 186.474 115.24 186.997 114.952C187.53 114.664 188.186 114.52 188.965 114.52V115.624L188.693 115.608C187.807 115.608 187.114 115.88 186.613 116.424C186.111 116.968 185.861 117.731 185.861 118.712V123H184.725V114.584H185.813V116.232ZM193.95 114.52C195.049 114.52 195.891 114.797 196.478 115.352C197.065 115.896 197.358 116.707 197.358 117.784V123H196.27V121.688C196.014 122.125 195.635 122.467 195.134 122.712C194.643 122.957 194.057 123.08 193.374 123.08C192.435 123.08 191.689 122.856 191.134 122.408C190.579 121.96 190.302 121.368 190.302 120.632C190.302 119.917 190.558 119.341 191.07 118.904C191.593 118.467 192.419 118.248 193.55 118.248H196.222V117.736C196.222 117.011 196.019 116.461 195.614 116.088C195.209 115.704 194.617 115.512 193.838 115.512C193.305 115.512 192.793 115.603 192.302 115.784C191.811 115.955 191.39 116.195 191.038 116.504L190.526 115.656C190.953 115.293 191.465 115.016 192.062 114.824C192.659 114.621 193.289 114.52 193.95 114.52ZM193.55 122.184C194.19 122.184 194.739 122.04 195.198 121.752C195.657 121.453 195.998 121.027 196.222 120.472V119.096H193.582C192.142 119.096 191.422 119.597 191.422 120.6C191.422 121.091 191.609 121.48 191.982 121.768C192.355 122.045 192.878 122.184 193.55 122.184ZM204.875 122.488C204.662 122.68 204.395 122.829 204.075 122.936C203.766 123.032 203.441 123.08 203.099 123.08C202.31 123.08 201.702 122.867 201.275 122.44C200.849 122.013 200.635 121.411 200.635 120.632V115.544H199.131V114.584H200.635V112.744H201.771V114.584H204.331V115.544H201.771V120.568C201.771 121.069 201.894 121.453 202.139 121.72C202.395 121.976 202.758 122.104 203.227 122.104C203.462 122.104 203.686 122.067 203.899 121.992C204.123 121.917 204.315 121.811 204.475 121.672L204.875 122.488ZM206.943 114.584H208.079V123H206.943V114.584ZM207.519 112.744C207.285 112.744 207.087 112.664 206.927 112.504C206.767 112.344 206.687 112.152 206.687 111.928C206.687 111.715 206.767 111.528 206.927 111.368C207.087 111.208 207.285 111.128 207.519 111.128C207.754 111.128 207.951 111.208 208.111 111.368C208.271 111.517 208.351 111.699 208.351 111.912C208.351 112.147 208.271 112.344 208.111 112.504C207.951 112.664 207.754 112.744 207.519 112.744ZM214.68 123.08C213.87 123.08 213.139 122.899 212.488 122.536C211.838 122.163 211.326 121.651 210.952 121C210.579 120.349 210.392 119.613 210.392 118.792C210.392 117.971 210.579 117.235 210.952 116.584C211.326 115.933 211.838 115.427 212.488 115.064C213.139 114.701 213.87 114.52 214.68 114.52C215.491 114.52 216.222 114.701 216.872 115.064C217.523 115.427 218.03 115.933 218.392 116.584C218.766 117.235 218.952 117.971 218.952 118.792C218.952 119.613 218.766 120.349 218.392 121C218.03 121.651 217.523 122.163 216.872 122.536C216.222 122.899 215.491 123.08 214.68 123.08ZM214.68 122.072C215.278 122.072 215.811 121.939 216.28 121.672C216.76 121.395 217.134 121.005 217.4 120.504C217.667 120.003 217.8 119.432 217.8 118.792C217.8 118.152 217.667 117.581 217.4 117.08C217.134 116.579 216.76 116.195 216.28 115.928C215.811 115.651 215.278 115.512 214.68 115.512C214.083 115.512 213.544 115.651 213.064 115.928C212.595 116.195 212.222 116.579 211.944 117.08C211.678 117.581 211.544 118.152 211.544 118.792C211.544 119.432 211.678 120.003 211.944 120.504C212.222 121.005 212.595 121.395 213.064 121.672C213.544 121.939 214.083 122.072 214.68 122.072ZM225.56 114.52C226.616 114.52 227.453 114.829 228.072 115.448C228.701 116.056 229.016 116.947 229.016 118.12V123H227.88V118.232C227.88 117.357 227.661 116.691 227.224 116.232C226.786 115.773 226.162 115.544 225.352 115.544C224.445 115.544 223.725 115.816 223.192 116.36C222.669 116.893 222.408 117.635 222.408 118.584V123H221.272V114.584H222.36V116.136C222.669 115.624 223.096 115.229 223.64 114.952C224.194 114.664 224.834 114.52 225.56 114.52ZM234.356 123.08C233.673 123.08 233.017 122.984 232.388 122.792C231.769 122.589 231.284 122.339 230.932 122.04L231.444 121.144C231.796 121.421 232.238 121.651 232.772 121.832C233.305 122.003 233.86 122.088 234.436 122.088C235.204 122.088 235.769 121.971 236.132 121.736C236.505 121.491 236.692 121.149 236.692 120.712C236.692 120.403 236.59 120.163 236.388 119.992C236.185 119.811 235.929 119.677 235.62 119.592C235.31 119.496 234.9 119.405 234.388 119.32C233.705 119.192 233.156 119.064 232.74 118.936C232.324 118.797 231.966 118.568 231.668 118.248C231.38 117.928 231.236 117.485 231.236 116.92C231.236 116.216 231.529 115.64 232.116 115.192C232.702 114.744 233.518 114.52 234.564 114.52C235.108 114.52 235.652 114.595 236.196 114.744C236.74 114.883 237.188 115.069 237.54 115.304L237.044 116.216C236.35 115.736 235.524 115.496 234.564 115.496C233.838 115.496 233.289 115.624 232.916 115.88C232.553 116.136 232.372 116.472 232.372 116.888C232.372 117.208 232.473 117.464 232.676 117.656C232.889 117.848 233.15 117.992 233.46 118.088C233.769 118.173 234.196 118.264 234.74 118.36C235.412 118.488 235.95 118.616 236.356 118.744C236.761 118.872 237.108 119.091 237.396 119.4C237.684 119.709 237.828 120.136 237.828 120.68C237.828 121.416 237.518 122.003 236.9 122.44C236.292 122.867 235.444 123.08 234.356 123.08Z" fill="#828282"/>
</svg>
