<svg width="245" height="139" viewBox="0 0 245 139" fill="none" xmlns="http://www.w3.org/2000/svg">
<path d="M13.9819 17.4546C14.1983 17.6667 14.4892 17.7855 14.7922 17.7855C15.0952 17.7855 15.3861 17.6667 15.6025 17.4546L17.4546 15.6025C17.6667 15.3861 17.7855 15.0952 17.7855 14.7922C17.7855 14.4892 17.6667 14.1983 17.4546 13.9819L13.0905 9.61774C14.3768 9.03566 15.81 8.85942 17.199 9.1125C18.588 9.36558 19.8669 10.036 20.8652 11.0343C21.8636 12.0327 22.534 13.3116 22.787 14.7006C23.0401 16.0896 22.8639 17.5227 22.2818 18.809L30.2808 26.808C30.7413 27.2685 31 27.8931 31 28.5444C31 29.1956 30.7413 29.8202 30.2808 30.2808C29.8202 30.7413 29.1956 31 28.5444 31C27.8931 31 27.2685 30.7413 26.808 30.2808L18.809 22.2818C17.5227 22.8639 16.0896 23.0401 14.7006 22.787C13.3116 22.534 12.0327 21.8636 11.0343 20.8652C10.036 19.8669 9.36558 18.588 9.1125 17.199C8.85942 15.81 9.03566 14.3768 9.61774 13.0905L13.9703 17.4431L13.9819 17.4546Z" stroke="#F66700" stroke-width="2" stroke-linecap="round" stroke-linejoin="round"/>
<path d="M61.104 9.488C60.576 9.568 60.184 9.704 59.928 9.896C59.688 10.088 59.52 10.392 59.424 10.808C59.344 11.224 59.304 11.84 59.304 12.656V19.016C59.304 21.304 58.976 23 58.32 24.104C57.888 24.808 57.264 25.36 56.448 25.76C55.632 26.144 54.632 26.336 53.448 26.336C51.592 26.336 50.152 25.936 49.128 25.136C48.392 24.544 47.896 23.8 47.64 22.904C47.384 21.992 47.256 20.72 47.256 19.088V11.552C47.256 10.944 47.208 10.504 47.112 10.232C47.032 9.96 46.864 9.776 46.608 9.68C46.368 9.584 45.984 9.52 45.456 9.488V9.008C46.272 9.056 47.52 9.08 49.2 9.08C50.864 9.08 52.136 9.056 53.016 9.008V9.488C52.44 9.52 52.016 9.584 51.744 9.68C51.488 9.776 51.312 9.96 51.216 10.232C51.12 10.504 51.072 10.944 51.072 11.552V20.6C51.072 22.28 51.312 23.52 51.792 24.32C52.288 25.104 53.152 25.496 54.384 25.496C55.984 25.496 57.112 24.96 57.768 23.888C58.424 22.8 58.752 21.264 58.752 19.28V12.944C58.752 12.016 58.696 11.328 58.584 10.88C58.472 10.432 58.256 10.112 57.936 9.92C57.616 9.712 57.112 9.568 56.424 9.488V9.008C57.032 9.056 57.896 9.08 59.016 9.08C59.912 9.08 60.608 9.056 61.104 9.008V9.488ZM66.2889 13.256C66.8969 13.256 67.4569 13.336 67.9689 13.496C68.4809 13.64 68.8729 13.808 69.1449 14C69.3049 14.112 69.4489 14.168 69.5769 14.168C69.7209 14.168 69.8409 14.096 69.9369 13.952C70.0489 13.792 70.1209 13.568 70.1529 13.28H70.6569C70.5929 14.096 70.5609 15.504 70.5609 17.504H70.0569C69.9129 16.448 69.5929 15.568 69.0969 14.864C68.6169 14.144 67.9129 13.784 66.9849 13.784C66.5049 13.784 66.1049 13.92 65.7849 14.192C65.4809 14.464 65.3289 14.84 65.3289 15.32C65.3289 15.864 65.5129 16.336 65.8809 16.736C66.2489 17.12 66.8249 17.592 67.6089 18.152L68.3049 18.656C69.2809 19.392 70.0009 20.048 70.4649 20.624C70.9289 21.2 71.1609 21.92 71.1609 22.784C71.1609 23.488 70.9529 24.112 70.5369 24.656C70.1369 25.2 69.5929 25.616 68.9049 25.904C68.2169 26.192 67.4569 26.336 66.6249 26.336C65.7449 26.336 64.9929 26.168 64.3689 25.832C63.8569 25.576 63.4889 25.408 63.2649 25.328C63.1049 25.28 62.9609 25.336 62.8329 25.496C62.7209 25.64 62.6329 25.864 62.5689 26.168H62.0649C62.1289 25.256 62.1609 23.656 62.1609 21.368H62.6649C62.9849 24.312 64.0649 25.784 65.9049 25.784C66.3689 25.784 66.7609 25.648 67.0809 25.376C67.4169 25.088 67.5849 24.656 67.5849 24.08C67.5849 23.632 67.4809 23.232 67.2729 22.88C67.0809 22.528 66.8329 22.216 66.5289 21.944C66.2249 21.672 65.7689 21.296 65.1609 20.816C64.4409 20.24 63.8889 19.776 63.5049 19.424C63.1369 19.072 62.8169 18.656 62.5449 18.176C62.2889 17.696 62.1609 17.16 62.1609 16.568C62.1609 15.544 62.5609 14.736 63.3609 14.144C64.1609 13.552 65.1369 13.256 66.2889 13.256ZM75.7909 26.168C74.7669 26.168 73.9989 25.904 73.4869 25.376C72.9909 24.848 72.7429 24.152 72.7429 23.288C72.7429 22.568 72.9269 21.976 73.2949 21.512C73.6789 21.032 74.1349 20.664 74.6629 20.408C75.2069 20.152 75.8949 19.88 76.7269 19.592C77.6069 19.288 78.2469 19.016 78.6469 18.776C79.0629 18.52 79.2709 18.176 79.2709 17.744V15.872C79.2709 15.2 79.1109 14.68 78.7909 14.312C78.4869 13.928 78.0069 13.736 77.3509 13.736C76.5829 13.736 75.9989 13.928 75.5989 14.312C76.0469 14.472 76.3909 14.712 76.6309 15.032C76.8869 15.352 77.0149 15.728 77.0149 16.16C77.0149 16.704 76.8309 17.136 76.4629 17.456C76.0949 17.776 75.6469 17.936 75.1189 17.936C74.5589 17.936 74.1269 17.76 73.8229 17.408C73.5189 17.056 73.3669 16.616 73.3669 16.088C73.3669 15.64 73.4709 15.264 73.6789 14.96C73.9029 14.64 74.2389 14.344 74.6869 14.072C75.1189 13.816 75.6469 13.616 76.2709 13.472C76.9109 13.328 77.6069 13.256 78.3589 13.256C79.1429 13.256 79.8229 13.336 80.3989 13.496C80.9749 13.656 81.4549 13.928 81.8389 14.312C82.1909 14.664 82.4229 15.096 82.5349 15.608C82.6629 16.12 82.7269 16.816 82.7269 17.696V24.224C82.7269 24.608 82.7589 24.88 82.8229 25.04C82.9029 25.2 83.0469 25.28 83.2549 25.28C83.4949 25.28 83.7829 25.144 84.1189 24.872L84.3589 25.28C83.6389 25.872 82.7589 26.168 81.7189 26.168C80.8389 26.168 80.2229 25.992 79.8709 25.64C79.5189 25.288 79.3349 24.816 79.3189 24.224C78.5189 25.52 77.3429 26.168 75.7909 26.168ZM77.6389 24.632C78.2629 24.632 78.8069 24.304 79.2709 23.648V18.728C79.0789 19.048 78.6709 19.4 78.0469 19.784C77.4229 20.184 76.9509 20.584 76.6309 20.984C76.3109 21.384 76.1509 21.96 76.1509 22.712C76.1509 23.368 76.2869 23.856 76.5589 24.176C76.8309 24.48 77.1909 24.632 77.6389 24.632ZM93.2768 13.256C94.5728 13.256 95.6208 13.792 96.4208 14.864C97.2208 15.92 97.6208 17.456 97.6208 19.472C97.6208 21.824 97.1088 23.56 96.0848 24.68C95.0608 25.784 93.7408 26.336 92.1248 26.336C91.0208 26.336 90.1248 26.056 89.4368 25.496C88.8608 25.448 88.2848 25.512 87.7088 25.688C87.1328 25.864 86.6768 26.096 86.3408 26.384L85.9808 26.168C86.0928 25.768 86.1488 25.32 86.1488 24.824V10.112C86.1488 9.376 86.0288 8.84 85.7888 8.504C85.5648 8.168 85.1728 8 84.6128 8V7.496C85.1088 7.544 85.6048 7.568 86.1008 7.568C87.4928 7.568 88.6608 7.456 89.6048 7.232V15.536C89.9408 14.8 90.4288 14.24 91.0688 13.856C91.7088 13.456 92.4448 13.256 93.2768 13.256ZM91.3808 25.832C92.2608 25.832 92.9168 25.336 93.3488 24.344C93.7808 23.352 93.9968 21.84 93.9968 19.808C93.9968 17.84 93.8128 16.432 93.4448 15.584C93.0768 14.72 92.5488 14.288 91.8608 14.288C91.3488 14.288 90.8768 14.48 90.4448 14.864C90.0288 15.232 89.7488 15.736 89.6048 16.376V25.184C90.1328 25.616 90.7248 25.832 91.3808 25.832ZM102.227 7.4C102.899 7.4 103.427 7.568 103.811 7.904C104.211 8.224 104.411 8.672 104.411 9.248C104.411 9.824 104.211 10.28 103.811 10.616C103.427 10.936 102.899 11.096 102.227 11.096C101.555 11.096 101.019 10.936 100.619 10.616C100.235 10.28 100.043 9.824 100.043 9.248C100.043 8.672 100.235 8.224 100.619 7.904C101.019 7.568 101.555 7.4 102.227 7.4ZM104.099 23.768C104.099 24.424 104.211 24.88 104.435 25.136C104.675 25.376 105.075 25.496 105.635 25.496V26C104.035 25.936 102.971 25.904 102.443 25.904C101.947 25.904 100.835 25.936 99.1073 26V25.496C99.6833 25.496 100.083 25.376 100.307 25.136C100.531 24.88 100.643 24.424 100.643 23.768V16.208C100.643 15.472 100.531 14.936 100.307 14.6C100.083 14.264 99.6833 14.096 99.1073 14.096V13.592C99.6193 13.64 100.115 13.664 100.595 13.664C102.019 13.664 103.187 13.552 104.099 13.328V23.768ZM111.574 23.768C111.574 24.424 111.686 24.88 111.91 25.136C112.134 25.376 112.534 25.496 113.11 25.496V26C111.446 25.936 110.374 25.904 109.894 25.904C109.35 25.904 108.246 25.936 106.582 26V25.496C107.142 25.496 107.534 25.376 107.758 25.136C107.998 24.88 108.118 24.424 108.118 23.768V10.088C108.118 9.352 107.998 8.816 107.758 8.48C107.534 8.144 107.142 7.976 106.582 7.976V7.472C107.094 7.52 107.59 7.544 108.07 7.544C109.462 7.544 110.63 7.432 111.574 7.208V23.768ZM117.251 7.4C117.923 7.4 118.451 7.568 118.835 7.904C119.235 8.224 119.435 8.672 119.435 9.248C119.435 9.824 119.235 10.28 118.835 10.616C118.451 10.936 117.923 11.096 117.251 11.096C116.579 11.096 116.043 10.936 115.643 10.616C115.259 10.28 115.067 9.824 115.067 9.248C115.067 8.672 115.259 8.224 115.643 7.904C116.043 7.568 116.579 7.4 117.251 7.4ZM119.123 23.768C119.123 24.424 119.235 24.88 119.459 25.136C119.699 25.376 120.099 25.496 120.659 25.496V26C119.059 25.936 117.995 25.904 117.467 25.904C116.971 25.904 115.859 25.936 114.131 26V25.496C114.707 25.496 115.107 25.376 115.331 25.136C115.555 24.88 115.667 24.424 115.667 23.768V16.208C115.667 15.472 115.555 14.936 115.331 14.6C115.107 14.264 114.707 14.096 114.131 14.096V13.592C114.643 13.64 115.139 13.664 115.619 13.664C117.043 13.664 118.211 13.552 119.123 13.328V23.768ZM126.573 13.592H129.405V14.072H126.573V23.768C126.573 24.248 126.653 24.592 126.813 24.8C126.989 24.992 127.261 25.088 127.629 25.088C128.317 25.088 128.861 24.608 129.261 23.648L129.669 23.864C129.061 25.512 127.965 26.336 126.381 26.336C125.325 26.336 124.525 26.064 123.981 25.52C123.645 25.184 123.413 24.768 123.285 24.272C123.173 23.76 123.117 23.064 123.117 22.184V14.072H121.101V13.592H123.117V10.424C124.445 10.424 125.597 10.168 126.573 9.656V13.592ZM140.027 13.664C140.827 13.664 141.443 13.64 141.875 13.592V14.072C141.539 14.168 141.235 14.376 140.963 14.696C140.707 15 140.459 15.48 140.219 16.136L135.923 28.208C135.603 29.04 135.251 29.608 134.867 29.912C134.403 30.312 133.707 30.512 132.779 30.512C132.107 30.512 131.499 30.344 130.955 30.008C130.427 29.688 130.163 29.216 130.163 28.592C130.163 28.096 130.339 27.696 130.691 27.392C131.043 27.104 131.507 26.96 132.083 26.96C132.627 26.96 133.059 27.088 133.379 27.344C133.715 27.616 133.883 27.992 133.883 28.472C133.883 28.808 133.779 29.112 133.571 29.384C133.363 29.672 133.067 29.888 132.683 30.032C132.795 30.048 132.979 30.056 133.235 30.056C134.227 30.056 134.955 29.424 135.419 28.16L135.803 27.008L130.715 15.44C130.459 14.896 130.211 14.536 129.971 14.36C129.731 14.184 129.482 14.096 129.226 14.096V13.592C130.283 13.688 131.379 13.736 132.515 13.736C133.459 13.736 134.571 13.688 135.851 13.592V14.096C135.339 14.096 134.955 14.136 134.699 14.216C134.459 14.28 134.339 14.464 134.339 14.768C134.339 14.944 134.395 15.168 134.507 15.44L137.435 22.52L139.091 17.912C139.347 17.16 139.475 16.52 139.475 15.992C139.475 14.824 138.883 14.184 137.699 14.072V13.592C138.451 13.64 139.227 13.664 140.027 13.664Z" fill="#F66700"/>
<path d="M51.624 59.614C52.158 59.614 52.635 59.524 53.055 59.344C53.475 59.164 53.829 58.912 54.117 58.588C54.411 58.264 54.633 57.877 54.783 57.427C54.939 56.977 55.017 56.482 55.017 55.942V48.103H56.754V55.942C56.754 56.686 56.634 57.376 56.394 58.012C56.16 58.648 55.821 59.2 55.377 59.668C54.939 60.13 54.402 60.493 53.766 60.757C53.13 61.021 52.416 61.153 51.624 61.153C50.832 61.153 50.118 61.021 49.482 60.757C48.846 60.493 48.306 60.13 47.862 59.668C47.418 59.2 47.076 58.648 46.836 58.012C46.602 57.376 46.485 56.686 46.485 55.942V48.103H48.222V55.933C48.222 56.473 48.297 56.968 48.447 57.418C48.603 57.868 48.825 58.255 49.113 58.579C49.407 58.903 49.764 59.158 50.184 59.344C50.61 59.524 51.09 59.614 51.624 59.614ZM64.3759 53.386C64.3039 53.518 64.1929 53.584 64.0429 53.584C63.9529 53.584 63.8509 53.551 63.7369 53.485C63.6229 53.419 63.4819 53.347 63.3139 53.269C63.1519 53.185 62.9569 53.11 62.7289 53.044C62.5009 52.972 62.2309 52.936 61.9189 52.936C61.6489 52.936 61.4059 52.972 61.1899 53.044C60.9739 53.11 60.7879 53.203 60.6319 53.323C60.4819 53.443 60.3649 53.584 60.2809 53.746C60.2029 53.902 60.1639 54.073 60.1639 54.259C60.1639 54.493 60.2299 54.688 60.3619 54.844C60.4999 55 60.6799 55.135 60.9019 55.249C61.1239 55.363 61.3759 55.465 61.6579 55.555C61.9399 55.639 62.2279 55.732 62.5219 55.834C62.8219 55.93 63.1129 56.038 63.3949 56.158C63.6769 56.278 63.9289 56.428 64.1509 56.608C64.3729 56.788 64.5499 57.01 64.6819 57.274C64.8199 57.532 64.8889 57.844 64.8889 58.21C64.8889 58.63 64.8139 59.02 64.6639 59.38C64.5139 59.734 64.2919 60.043 63.9979 60.307C63.7039 60.565 63.3439 60.769 62.9179 60.919C62.4919 61.069 61.9999 61.144 61.4419 61.144C60.8059 61.144 60.2299 61.042 59.7139 60.838C59.1979 60.628 58.7599 60.361 58.3999 60.037L58.7779 59.425C58.8259 59.347 58.8829 59.287 58.9489 59.245C59.0149 59.203 59.0989 59.182 59.2009 59.182C59.3089 59.182 59.4229 59.224 59.5429 59.308C59.6629 59.392 59.8069 59.485 59.9749 59.587C60.1489 59.689 60.3589 59.782 60.6049 59.866C60.8509 59.95 61.1569 59.992 61.5229 59.992C61.8349 59.992 62.1079 59.953 62.3419 59.875C62.5759 59.791 62.7709 59.68 62.9269 59.542C63.0829 59.404 63.1969 59.245 63.2689 59.065C63.3469 58.885 63.3859 58.693 63.3859 58.489C63.3859 58.237 63.3169 58.03 63.1789 57.868C63.0469 57.7 62.8699 57.559 62.6479 57.445C62.4259 57.325 62.1709 57.223 61.8829 57.139C61.6009 57.049 61.3099 56.956 61.0099 56.86C60.7159 56.764 60.4249 56.656 60.1369 56.536C59.8549 56.41 59.6029 56.254 59.3809 56.068C59.1589 55.882 58.9789 55.654 58.8409 55.384C58.7089 55.108 58.6429 54.775 58.6429 54.385C58.6429 54.037 58.7149 53.704 58.8589 53.386C59.0029 53.062 59.2129 52.78 59.4889 52.54C59.7649 52.294 60.1039 52.099 60.5059 51.955C60.9079 51.811 61.3669 51.739 61.8829 51.739C62.4829 51.739 63.0199 51.835 63.4939 52.027C63.9739 52.213 64.3879 52.471 64.7359 52.801L64.3759 53.386ZM71.794 56.896C71.056 56.92 70.426 56.98 69.904 57.076C69.388 57.166 68.965 57.286 68.635 57.436C68.311 57.586 68.074 57.763 67.924 57.967C67.78 58.171 67.708 58.399 67.708 58.651C67.708 58.891 67.747 59.098 67.825 59.272C67.903 59.446 68.008 59.59 68.14 59.704C68.278 59.812 68.437 59.893 68.617 59.947C68.803 59.995 69.001 60.019 69.211 60.019C69.493 60.019 69.751 59.992 69.985 59.938C70.219 59.878 70.438 59.794 70.642 59.686C70.852 59.578 71.05 59.449 71.236 59.299C71.428 59.149 71.614 58.978 71.794 58.786V56.896ZM66.619 53.17C67.123 52.684 67.666 52.321 68.248 52.081C68.83 51.841 69.475 51.721 70.183 51.721C70.693 51.721 71.146 51.805 71.542 51.973C71.938 52.141 72.271 52.375 72.541 52.675C72.811 52.975 73.015 53.338 73.153 53.764C73.291 54.19 73.36 54.658 73.36 55.168V61H72.649C72.493 61 72.373 60.976 72.289 60.928C72.205 60.874 72.139 60.772 72.091 60.622L71.911 59.758C71.671 59.98 71.437 60.178 71.209 60.352C70.981 60.52 70.741 60.664 70.489 60.784C70.237 60.898 69.967 60.985 69.679 61.045C69.397 61.111 69.082 61.144 68.734 61.144C68.38 61.144 68.047 61.096 67.735 61C67.423 60.898 67.15 60.748 66.916 60.55C66.688 60.352 66.505 60.103 66.367 59.803C66.235 59.497 66.169 59.137 66.169 58.723C66.169 58.363 66.268 58.018 66.466 57.688C66.664 57.352 66.985 57.055 67.429 56.797C67.873 56.539 68.452 56.329 69.166 56.167C69.88 55.999 70.756 55.903 71.794 55.879V55.168C71.794 54.46 71.641 53.926 71.335 53.566C71.029 53.2 70.582 53.017 69.994 53.017C69.598 53.017 69.265 53.068 68.995 53.17C68.731 53.266 68.5 53.377 68.302 53.503C68.11 53.623 67.942 53.734 67.798 53.836C67.66 53.932 67.522 53.98 67.384 53.98C67.276 53.98 67.183 53.953 67.105 53.899C67.027 53.839 66.961 53.767 66.907 53.683L66.619 53.17ZM77.4113 58.804C77.7053 59.2 78.0263 59.479 78.3743 59.641C78.7283 59.803 79.1153 59.884 79.5353 59.884C80.3933 59.884 81.0503 59.581 81.5063 58.975C81.9623 58.369 82.1903 57.466 82.1903 56.266C82.1903 55.15 81.9863 54.331 81.5783 53.809C81.1763 53.281 80.6003 53.017 79.8503 53.017C79.3283 53.017 78.8723 53.137 78.4823 53.377C78.0983 53.617 77.7413 53.956 77.4113 54.394V58.804ZM77.4113 53.197C77.7953 52.753 78.2273 52.399 78.7073 52.135C79.1933 51.871 79.7513 51.739 80.3813 51.739C80.9153 51.739 81.3953 51.841 81.8213 52.045C82.2533 52.249 82.6193 52.546 82.9193 52.936C83.2193 53.32 83.4473 53.788 83.6033 54.34C83.7653 54.892 83.8463 55.513 83.8463 56.203C83.8463 56.941 83.7563 57.613 83.5762 58.219C83.3963 58.825 83.1353 59.344 82.7933 59.776C82.4573 60.202 82.0463 60.535 81.5603 60.775C81.0743 61.009 80.5283 61.126 79.9223 61.126C79.3223 61.126 78.8153 61.015 78.4013 60.793C77.9933 60.565 77.6363 60.244 77.3303 59.83L77.2493 60.658C77.2013 60.886 77.0633 61 76.8353 61H75.8003V47.743H77.4113V53.197ZM87.5645 51.883V61H85.9625V51.883H87.5645ZM87.9065 49.021C87.9065 49.177 87.8735 49.324 87.8075 49.462C87.7475 49.594 87.6635 49.714 87.5555 49.822C87.4535 49.924 87.3305 50.005 87.1865 50.065C87.0485 50.125 86.9015 50.155 86.7455 50.155C86.5895 50.155 86.4425 50.125 86.3045 50.065C86.1725 50.005 86.0555 49.924 85.9535 49.822C85.8515 49.714 85.7705 49.594 85.7105 49.462C85.6505 49.324 85.6205 49.177 85.6205 49.021C85.6205 48.865 85.6505 48.718 85.7105 48.58C85.7705 48.436 85.8515 48.313 85.9535 48.211C86.0555 48.103 86.1725 48.019 86.3045 47.959C86.4425 47.899 86.5895 47.869 86.7455 47.869C86.9015 47.869 87.0485 47.899 87.1865 47.959C87.3305 48.019 87.4535 48.103 87.5555 48.211C87.6635 48.313 87.7475 48.436 87.8075 48.58C87.8735 48.718 87.9065 48.865 87.9065 49.021ZM91.8527 47.743V61H90.2507V47.743H91.8527ZM96.1426 51.883V61H94.5406V51.883H96.1426ZM96.4846 49.021C96.4846 49.177 96.4516 49.324 96.3856 49.462C96.3256 49.594 96.2416 49.714 96.1336 49.822C96.0316 49.924 95.9086 50.005 95.7646 50.065C95.6266 50.125 95.4796 50.155 95.3236 50.155C95.1676 50.155 95.0206 50.125 94.8826 50.065C94.7506 50.005 94.6336 49.924 94.5316 49.822C94.4296 49.714 94.3486 49.594 94.2886 49.462C94.2286 49.324 94.1986 49.177 94.1986 49.021C94.1986 48.865 94.2286 48.718 94.2886 48.58C94.3486 48.436 94.4296 48.313 94.5316 48.211C94.6336 48.103 94.7506 48.019 94.8826 47.959C95.0206 47.899 95.1676 47.869 95.3236 47.869C95.4796 47.869 95.6266 47.899 95.7646 47.959C95.9086 48.019 96.0316 48.103 96.1336 48.211C96.2416 48.313 96.3256 48.436 96.3856 48.58C96.4516 48.718 96.4846 48.865 96.4846 49.021ZM101.574 61.144C100.854 61.144 100.299 60.943 99.9089 60.541C99.5249 60.139 99.3329 59.56 99.3329 58.804V53.224H98.2349C98.1389 53.224 98.0579 53.197 97.9919 53.143C97.9259 53.083 97.8929 52.993 97.8929 52.873V52.234L99.3869 52.045L99.7559 49.228C99.7739 49.138 99.8129 49.066 99.8729 49.012C99.9389 48.952 100.023 48.922 100.125 48.922H100.935V52.063H103.572V53.224H100.935V58.696C100.935 59.08 101.028 59.365 101.214 59.551C101.4 59.737 101.64 59.83 101.934 59.83C102.102 59.83 102.246 59.809 102.366 59.767C102.492 59.719 102.6 59.668 102.69 59.614C102.78 59.56 102.855 59.512 102.915 59.47C102.981 59.422 103.038 59.398 103.086 59.398C103.17 59.398 103.245 59.449 103.311 59.551L103.779 60.316C103.503 60.574 103.17 60.778 102.78 60.928C102.39 61.072 101.988 61.144 101.574 61.144ZM113.092 51.883L108.007 63.691C107.953 63.811 107.884 63.907 107.8 63.979C107.722 64.051 107.599 64.087 107.431 64.087H106.243L107.908 60.469L104.146 51.883H105.532C105.67 51.883 105.778 51.919 105.856 51.991C105.94 52.057 105.997 52.132 106.027 52.216L108.466 57.958C108.562 58.21 108.643 58.474 108.709 58.75C108.793 58.468 108.883 58.201 108.979 57.949L111.346 52.216C111.382 52.12 111.442 52.042 111.526 51.982C111.616 51.916 111.715 51.883 111.823 51.883H113.092ZM121.472 61.144C120.752 61.144 120.197 60.943 119.807 60.541C119.423 60.139 119.231 59.56 119.231 58.804V53.224H118.133C118.037 53.224 117.956 53.197 117.89 53.143C117.824 53.083 117.791 52.993 117.791 52.873V52.234L119.285 52.045L119.654 49.228C119.672 49.138 119.711 49.066 119.771 49.012C119.837 48.952 119.921 48.922 120.023 48.922H120.833V52.063H123.47V53.224H120.833V58.696C120.833 59.08 120.926 59.365 121.112 59.551C121.298 59.737 121.538 59.83 121.832 59.83C122 59.83 122.144 59.809 122.264 59.767C122.39 59.719 122.498 59.668 122.588 59.614C122.678 59.56 122.753 59.512 122.813 59.47C122.879 59.422 122.936 59.398 122.984 59.398C123.068 59.398 123.143 59.449 123.209 59.551L123.677 60.316C123.401 60.574 123.068 60.778 122.678 60.928C122.288 61.072 121.886 61.144 121.472 61.144ZM131.174 55.447C131.174 55.075 131.12 54.736 131.012 54.43C130.91 54.118 130.757 53.851 130.553 53.629C130.355 53.401 130.112 53.227 129.824 53.107C129.536 52.981 129.209 52.918 128.843 52.918C128.075 52.918 127.466 53.143 127.016 53.593C126.572 54.037 126.296 54.655 126.188 55.447H131.174ZM132.47 59.722C132.272 59.962 132.035 60.172 131.759 60.352C131.483 60.526 131.186 60.67 130.868 60.784C130.556 60.898 130.232 60.982 129.896 61.036C129.56 61.096 129.227 61.126 128.897 61.126C128.267 61.126 127.685 61.021 127.151 60.811C126.623 60.595 126.164 60.283 125.774 59.875C125.39 59.461 125.09 58.951 124.874 58.345C124.658 57.739 124.55 57.043 124.55 56.257C124.55 55.621 124.646 55.027 124.838 54.475C125.036 53.923 125.318 53.446 125.684 53.044C126.05 52.636 126.497 52.318 127.025 52.09C127.553 51.856 128.147 51.739 128.807 51.739C129.353 51.739 129.857 51.832 130.319 52.018C130.787 52.198 131.189 52.462 131.525 52.81C131.867 53.152 132.134 53.578 132.326 54.088C132.518 54.592 132.614 55.168 132.614 55.816C132.614 56.068 132.587 56.236 132.533 56.32C132.479 56.404 132.377 56.446 132.227 56.446H126.134C126.152 57.022 126.23 57.523 126.368 57.949C126.512 58.375 126.71 58.732 126.962 59.02C127.214 59.302 127.514 59.515 127.862 59.659C128.21 59.797 128.6 59.866 129.032 59.866C129.434 59.866 129.779 59.821 130.067 59.731C130.361 59.635 130.613 59.533 130.823 59.425C131.033 59.317 131.207 59.218 131.345 59.128C131.489 59.032 131.612 58.984 131.714 58.984C131.846 58.984 131.948 59.035 132.02 59.137L132.47 59.722ZM139.892 53.386C139.82 53.518 139.709 53.584 139.559 53.584C139.469 53.584 139.367 53.551 139.253 53.485C139.139 53.419 138.998 53.347 138.83 53.269C138.668 53.185 138.473 53.11 138.245 53.044C138.017 52.972 137.747 52.936 137.435 52.936C137.165 52.936 136.922 52.972 136.706 53.044C136.49 53.11 136.304 53.203 136.148 53.323C135.998 53.443 135.881 53.584 135.797 53.746C135.719 53.902 135.68 54.073 135.68 54.259C135.68 54.493 135.746 54.688 135.878 54.844C136.016 55 136.196 55.135 136.418 55.249C136.64 55.363 136.892 55.465 137.174 55.555C137.456 55.639 137.744 55.732 138.038 55.834C138.338 55.93 138.629 56.038 138.911 56.158C139.193 56.278 139.445 56.428 139.667 56.608C139.889 56.788 140.066 57.01 140.198 57.274C140.336 57.532 140.405 57.844 140.405 58.21C140.405 58.63 140.33 59.02 140.18 59.38C140.03 59.734 139.808 60.043 139.514 60.307C139.22 60.565 138.86 60.769 138.434 60.919C138.008 61.069 137.516 61.144 136.958 61.144C136.322 61.144 135.746 61.042 135.23 60.838C134.714 60.628 134.276 60.361 133.916 60.037L134.294 59.425C134.342 59.347 134.399 59.287 134.465 59.245C134.531 59.203 134.615 59.182 134.717 59.182C134.825 59.182 134.939 59.224 135.059 59.308C135.179 59.392 135.323 59.485 135.491 59.587C135.665 59.689 135.875 59.782 136.121 59.866C136.367 59.95 136.673 59.992 137.039 59.992C137.351 59.992 137.624 59.953 137.857 59.875C138.092 59.791 138.287 59.68 138.443 59.542C138.599 59.404 138.713 59.245 138.785 59.065C138.863 58.885 138.902 58.693 138.902 58.489C138.902 58.237 138.833 58.03 138.695 57.868C138.563 57.7 138.386 57.559 138.164 57.445C137.942 57.325 137.687 57.223 137.399 57.139C137.117 57.049 136.826 56.956 136.526 56.86C136.232 56.764 135.941 56.656 135.653 56.536C135.371 56.41 135.119 56.254 134.897 56.068C134.675 55.882 134.495 55.654 134.357 55.384C134.225 55.108 134.159 54.775 134.159 54.385C134.159 54.037 134.231 53.704 134.375 53.386C134.519 53.062 134.729 52.78 135.005 52.54C135.281 52.294 135.62 52.099 136.022 51.955C136.424 51.811 136.883 51.739 137.399 51.739C137.999 51.739 138.536 51.835 139.01 52.027C139.49 52.213 139.904 52.471 140.252 52.801L139.892 53.386ZM150.829 61H149.227V53.224H144.529V58.696C144.529 59.08 144.622 59.365 144.808 59.551C144.994 59.737 145.234 59.83 145.528 59.83C145.696 59.83 145.84 59.809 145.96 59.767C146.086 59.719 146.194 59.668 146.284 59.614C146.374 59.56 146.449 59.512 146.509 59.47C146.575 59.422 146.632 59.398 146.68 59.398C146.764 59.398 146.839 59.449 146.905 59.551L147.373 60.316C147.097 60.574 146.764 60.778 146.374 60.928C145.984 61.072 145.582 61.144 145.168 61.144C144.448 61.144 143.893 60.943 143.503 60.541C143.119 60.139 142.927 59.56 142.927 58.804V53.224H141.829C141.733 53.224 141.652 53.197 141.586 53.143C141.52 53.083 141.487 52.993 141.487 52.873V52.234L142.981 52.036L143.35 49.228C143.368 49.138 143.407 49.066 143.467 49.012C143.533 48.952 143.617 48.922 143.719 48.922H144.529V52.063H150.829V61ZM151.225 48.958C151.225 49.114 151.192 49.261 151.126 49.399C151.066 49.531 150.982 49.648 150.874 49.75C150.772 49.852 150.652 49.933 150.514 49.993C150.376 50.053 150.229 50.083 150.073 50.083C149.917 50.083 149.77 50.053 149.632 49.993C149.5 49.933 149.383 49.852 149.281 49.75C149.179 49.648 149.098 49.531 149.038 49.399C148.978 49.261 148.948 49.114 148.948 48.958C148.948 48.802 148.978 48.655 149.038 48.517C149.098 48.373 149.179 48.25 149.281 48.148C149.383 48.04 149.5 47.956 149.632 47.896C149.77 47.836 149.917 47.806 150.073 47.806C150.229 47.806 150.376 47.836 150.514 47.896C150.652 47.956 150.772 48.04 150.874 48.148C150.982 48.25 151.066 48.373 151.126 48.517C151.192 48.655 151.225 48.802 151.225 48.958ZM154.972 53.206C155.17 52.984 155.38 52.783 155.602 52.603C155.824 52.423 156.058 52.27 156.304 52.144C156.556 52.012 156.82 51.913 157.096 51.847C157.378 51.775 157.681 51.739 158.005 51.739C158.503 51.739 158.941 51.823 159.319 51.991C159.703 52.153 160.021 52.387 160.273 52.693C160.531 52.993 160.726 53.356 160.858 53.782C160.99 54.208 161.056 54.679 161.056 55.195V61H159.445V55.195C159.445 54.505 159.286 53.971 158.968 53.593C158.656 53.209 158.179 53.017 157.537 53.017C157.063 53.017 156.619 53.131 156.205 53.359C155.797 53.587 155.419 53.896 155.071 54.286V61H153.46V51.883H154.423C154.651 51.883 154.792 51.994 154.846 52.216L154.972 53.206ZM166.675 56.545C166.999 56.545 167.284 56.5 167.53 56.41C167.776 56.32 167.983 56.194 168.151 56.032C168.319 55.87 168.445 55.678 168.529 55.456C168.613 55.228 168.655 54.979 168.655 54.709C168.655 54.151 168.484 53.707 168.142 53.377C167.806 53.047 167.317 52.882 166.675 52.882C166.027 52.882 165.532 53.047 165.19 53.377C164.854 53.707 164.686 54.151 164.686 54.709C164.686 54.979 164.728 55.228 164.812 55.456C164.902 55.678 165.031 55.87 165.199 56.032C165.367 56.194 165.574 56.32 165.82 56.41C166.066 56.5 166.351 56.545 166.675 56.545ZM169.564 61.495C169.564 61.273 169.501 61.093 169.375 60.955C169.249 60.817 169.078 60.709 168.862 60.631C168.652 60.553 168.406 60.499 168.124 60.469C167.842 60.433 167.542 60.406 167.224 60.388C166.912 60.37 166.594 60.352 166.27 60.334C165.946 60.316 165.634 60.286 165.334 60.244C164.998 60.4 164.722 60.598 164.506 60.838C164.296 61.072 164.191 61.348 164.191 61.666C164.191 61.87 164.242 62.059 164.344 62.233C164.452 62.413 164.614 62.566 164.83 62.692C165.046 62.824 165.316 62.926 165.64 62.998C165.97 63.076 166.357 63.115 166.801 63.115C167.233 63.115 167.62 63.076 167.962 62.998C168.304 62.92 168.592 62.809 168.826 62.665C169.066 62.521 169.249 62.35 169.375 62.152C169.501 61.954 169.564 61.735 169.564 61.495ZM171.193 52.243V52.837C171.193 53.035 171.067 53.161 170.815 53.215L169.78 53.35C169.984 53.746 170.086 54.184 170.086 54.664C170.086 55.108 169.999 55.513 169.825 55.879C169.657 56.239 169.423 56.548 169.123 56.806C168.823 57.064 168.463 57.262 168.043 57.4C167.623 57.538 167.167 57.607 166.675 57.607C166.249 57.607 165.847 57.556 165.469 57.454C165.277 57.574 165.13 57.703 165.028 57.841C164.926 57.973 164.875 58.108 164.875 58.246C164.875 58.462 164.962 58.627 165.136 58.741C165.316 58.849 165.55 58.927 165.838 58.975C166.126 59.023 166.453 59.053 166.819 59.065C167.191 59.077 167.569 59.098 167.953 59.128C168.343 59.152 168.721 59.197 169.087 59.263C169.459 59.329 169.789 59.437 170.077 59.587C170.365 59.737 170.596 59.944 170.77 60.208C170.95 60.472 171.04 60.814 171.04 61.234C171.04 61.624 170.941 62.002 170.743 62.368C170.551 62.734 170.272 63.058 169.906 63.34C169.54 63.628 169.09 63.856 168.556 64.024C168.028 64.198 167.431 64.285 166.765 64.285C166.099 64.285 165.517 64.219 165.019 64.087C164.521 63.955 164.107 63.778 163.777 63.556C163.447 63.334 163.198 63.076 163.03 62.782C162.868 62.494 162.787 62.191 162.787 61.873C162.787 61.423 162.928 61.042 163.21 60.73C163.492 60.418 163.879 60.169 164.371 59.983C164.101 59.863 163.885 59.704 163.723 59.506C163.567 59.302 163.489 59.029 163.489 58.687C163.489 58.555 163.513 58.42 163.561 58.282C163.609 58.138 163.681 57.997 163.777 57.859C163.879 57.715 164.002 57.58 164.146 57.454C164.29 57.328 164.458 57.217 164.65 57.121C164.2 56.869 163.849 56.536 163.597 56.122C163.345 55.702 163.219 55.216 163.219 54.664C163.219 54.22 163.303 53.818 163.471 53.458C163.645 53.092 163.885 52.783 164.191 52.531C164.497 52.273 164.86 52.075 165.28 51.937C165.706 51.799 166.171 51.73 166.675 51.73C167.071 51.73 167.44 51.775 167.782 51.865C168.124 51.949 168.436 52.075 168.718 52.243H171.193ZM53.496 90.212L51.471 84.965C51.411 84.809 51.348 84.629 51.282 84.425C51.216 84.215 51.153 83.993 51.093 83.759C50.967 84.245 50.838 84.65 50.706 84.974L48.681 90.212H53.496ZM57.132 95H55.782C55.626 95 55.5 94.961 55.404 94.883C55.308 94.805 55.236 94.706 55.188 94.586L53.982 91.472H48.195L46.989 94.586C46.953 94.694 46.884 94.79 46.782 94.874C46.68 94.958 46.554 95 46.404 95H45.054L50.211 82.103H51.975L57.132 95ZM58.6583 95V87.251L57.6503 87.134C57.5183 87.104 57.4133 87.059 57.3353 86.999C57.2573 86.933 57.2183 86.84 57.2183 86.72V86.063H58.6583V85.316C58.6583 84.794 58.7303 84.332 58.8743 83.93C59.0243 83.522 59.2343 83.18 59.5043 82.904C59.7743 82.622 60.1013 82.409 60.4853 82.265C60.8693 82.121 61.3013 82.049 61.7813 82.049C62.1893 82.049 62.5673 82.109 62.9153 82.229L62.8703 83.039C62.8583 83.183 62.7803 83.261 62.6363 83.273C62.4923 83.285 62.2943 83.291 62.0423 83.291C61.7663 83.291 61.5143 83.327 61.2863 83.399C61.0643 83.465 60.8723 83.579 60.7103 83.741C60.5543 83.903 60.4313 84.119 60.3413 84.389C60.2573 84.653 60.2153 84.98 60.2153 85.37V86.063H64.3283V85.559C64.3283 85.001 64.4153 84.491 64.5893 84.029C64.7633 83.561 65.0243 83.159 65.3723 82.823C65.7203 82.487 66.1523 82.226 66.6683 82.04C67.1903 81.854 67.7933 81.761 68.4773 81.761C68.7053 81.761 68.9393 81.776 69.1793 81.806C69.4193 81.836 69.6263 81.881 69.8003 81.941L69.7373 82.778C69.7313 82.838 69.7073 82.88 69.6653 82.904C69.6293 82.928 69.5783 82.943 69.5123 82.949C69.4463 82.955 69.3623 82.958 69.2603 82.958C69.1643 82.952 69.0533 82.949 68.9273 82.949C67.8593 82.949 67.0853 83.171 66.6053 83.615C66.1253 84.053 65.8853 84.716 65.8853 85.604V86.063H71.3933V95H69.7823V87.224H65.9303V95H64.3283V87.224H60.2603V95H58.6583ZM75.5369 87.206C75.7349 86.984 75.9449 86.783 76.1669 86.603C76.3889 86.423 76.6229 86.27 76.8689 86.144C77.1209 86.012 77.3849 85.913 77.6609 85.847C77.9429 85.775 78.2459 85.739 78.5699 85.739C79.0679 85.739 79.5059 85.823 79.8839 85.991C80.2679 86.153 80.5859 86.387 80.8379 86.693C81.0959 86.993 81.2909 87.356 81.4229 87.782C81.5549 88.208 81.6209 88.679 81.6209 89.195V95H80.0099V89.195C80.0099 88.505 79.8509 87.971 79.5329 87.593C79.2209 87.209 78.7439 87.017 78.1019 87.017C77.6279 87.017 77.1839 87.131 76.7699 87.359C76.3619 87.587 75.9839 87.896 75.6359 88.286V95H74.0249V85.883H74.9879C75.2159 85.883 75.3569 85.994 75.4109 86.216L75.5369 87.206ZM85.754 85.883V95H84.152V85.883H85.754ZM86.096 83.021C86.096 83.177 86.063 83.324 85.997 83.462C85.937 83.594 85.853 83.714 85.745 83.822C85.643 83.924 85.52 84.005 85.376 84.065C85.238 84.125 85.091 84.155 84.935 84.155C84.779 84.155 84.632 84.125 84.494 84.065C84.362 84.005 84.245 83.924 84.143 83.822C84.041 83.714 83.96 83.594 83.9 83.462C83.84 83.324 83.81 83.177 83.81 83.021C83.81 82.865 83.84 82.718 83.9 82.58C83.96 82.436 84.041 82.313 84.143 82.211C84.245 82.103 84.362 82.019 84.494 81.959C84.632 81.899 84.779 81.869 84.935 81.869C85.091 81.869 85.238 81.899 85.376 81.959C85.52 82.019 85.643 82.103 85.745 82.211C85.853 82.313 85.937 82.436 85.997 82.58C86.063 82.718 86.096 82.865 86.096 83.021ZM91.1852 95.144C90.4652 95.144 89.9102 94.943 89.5202 94.541C89.1362 94.139 88.9442 93.56 88.9442 92.804V87.224H87.8462C87.7502 87.224 87.6692 87.197 87.6032 87.143C87.5372 87.083 87.5042 86.993 87.5042 86.873V86.234L88.9982 86.045L89.3672 83.228C89.3852 83.138 89.4242 83.066 89.4842 83.012C89.5502 82.952 89.6342 82.922 89.7362 82.922H90.5462V86.063H93.1832V87.224H90.5462V92.696C90.5462 93.08 90.6392 93.365 90.8252 93.551C91.0112 93.737 91.2512 93.83 91.5452 93.83C91.7132 93.83 91.8572 93.809 91.9772 93.767C92.1032 93.719 92.2112 93.668 92.3012 93.614C92.3912 93.56 92.4662 93.512 92.5262 93.47C92.5922 93.422 92.6492 93.398 92.6972 93.398C92.7812 93.398 92.8562 93.449 92.9222 93.551L93.3902 94.316C93.1142 94.574 92.7812 94.778 92.3912 94.928C92.0012 95.072 91.5992 95.144 91.1852 95.144ZM102.703 85.883L97.6184 97.691C97.5644 97.811 97.4954 97.907 97.4114 97.979C97.3334 98.051 97.2104 98.087 97.0424 98.087H95.8544L97.5194 94.469L93.7574 85.883H95.1434C95.2814 85.883 95.3894 85.919 95.4674 85.991C95.5514 86.057 95.6084 86.132 95.6384 86.216L98.0774 91.958C98.1734 92.21 98.2544 92.474 98.3204 92.75C98.4044 92.468 98.4944 92.201 98.5904 91.949L100.957 86.216C100.993 86.12 101.053 86.042 101.137 85.982C101.227 85.916 101.326 85.883 101.434 85.883H102.703ZM108.285 95V85.883H109.248C109.476 85.883 109.617 85.994 109.671 86.216L109.788 87.152C110.124 86.738 110.502 86.399 110.922 86.135C111.342 85.871 111.828 85.739 112.38 85.739C112.992 85.739 113.487 85.91 113.865 86.252C114.249 86.594 114.525 87.056 114.693 87.638C114.825 87.308 114.993 87.023 115.197 86.783C115.407 86.543 115.641 86.345 115.899 86.189C116.157 86.033 116.43 85.919 116.718 85.847C117.012 85.775 117.309 85.739 117.609 85.739C118.089 85.739 118.515 85.817 118.887 85.973C119.265 86.123 119.583 86.345 119.841 86.639C120.105 86.933 120.306 87.296 120.444 87.728C120.582 88.154 120.651 88.643 120.651 89.195V95H119.04V89.195C119.04 88.481 118.884 87.941 118.572 87.575C118.26 87.203 117.81 87.017 117.222 87.017C116.958 87.017 116.706 87.065 116.466 87.161C116.232 87.251 116.025 87.386 115.845 87.566C115.665 87.746 115.521 87.974 115.413 88.25C115.311 88.52 115.26 88.835 115.26 89.195V95H113.649V89.195C113.649 88.463 113.502 87.917 113.208 87.557C112.914 87.197 112.485 87.017 111.921 87.017C111.525 87.017 111.159 87.125 110.823 87.341C110.487 87.551 110.178 87.839 109.896 88.205V95H108.285ZM128.026 90.896C127.288 90.92 126.658 90.98 126.136 91.076C125.62 91.166 125.197 91.286 124.867 91.436C124.543 91.586 124.306 91.763 124.156 91.967C124.012 92.171 123.94 92.399 123.94 92.651C123.94 92.891 123.979 93.098 124.057 93.272C124.135 93.446 124.24 93.59 124.372 93.704C124.51 93.812 124.669 93.893 124.849 93.947C125.035 93.995 125.233 94.019 125.443 94.019C125.725 94.019 125.983 93.992 126.217 93.938C126.451 93.878 126.67 93.794 126.874 93.686C127.084 93.578 127.282 93.449 127.468 93.299C127.66 93.149 127.846 92.978 128.026 92.786V90.896ZM122.851 87.17C123.355 86.684 123.898 86.321 124.48 86.081C125.062 85.841 125.707 85.721 126.415 85.721C126.925 85.721 127.378 85.805 127.774 85.973C128.17 86.141 128.503 86.375 128.773 86.675C129.043 86.975 129.247 87.338 129.385 87.764C129.523 88.19 129.592 88.658 129.592 89.168V95H128.881C128.725 95 128.605 94.976 128.521 94.928C128.437 94.874 128.371 94.772 128.323 94.622L128.143 93.758C127.903 93.98 127.669 94.178 127.441 94.352C127.213 94.52 126.973 94.664 126.721 94.784C126.469 94.898 126.199 94.985 125.911 95.045C125.629 95.111 125.314 95.144 124.966 95.144C124.612 95.144 124.279 95.096 123.967 95C123.655 94.898 123.382 94.748 123.148 94.55C122.92 94.352 122.737 94.103 122.599 93.803C122.467 93.497 122.401 93.137 122.401 92.723C122.401 92.363 122.5 92.018 122.698 91.688C122.896 91.352 123.217 91.055 123.661 90.797C124.105 90.539 124.684 90.329 125.398 90.167C126.112 89.999 126.988 89.903 128.026 89.879V89.168C128.026 88.46 127.873 87.926 127.567 87.566C127.261 87.2 126.814 87.017 126.226 87.017C125.83 87.017 125.497 87.068 125.227 87.17C124.963 87.266 124.732 87.377 124.534 87.503C124.342 87.623 124.174 87.734 124.03 87.836C123.892 87.932 123.754 87.98 123.616 87.98C123.508 87.98 123.415 87.953 123.337 87.899C123.259 87.839 123.193 87.767 123.139 87.683L122.851 87.17ZM133.644 92.804C133.938 93.2 134.259 93.479 134.607 93.641C134.955 93.803 135.345 93.884 135.777 93.884C136.629 93.884 137.283 93.581 137.739 92.975C138.195 92.369 138.423 91.505 138.423 90.383C138.423 89.789 138.369 89.279 138.261 88.853C138.159 88.427 138.009 88.079 137.811 87.809C137.613 87.533 137.37 87.332 137.082 87.206C136.794 87.08 136.467 87.017 136.101 87.017C135.579 87.017 135.12 87.137 134.724 87.377C134.334 87.617 133.974 87.956 133.644 88.394V92.804ZM133.563 87.296C133.947 86.822 134.391 86.441 134.895 86.153C135.399 85.865 135.975 85.721 136.623 85.721C137.151 85.721 137.628 85.823 138.054 86.027C138.48 86.225 138.843 86.522 139.143 86.918C139.443 87.308 139.674 87.794 139.836 88.376C139.998 88.958 140.079 89.627 140.079 90.383C140.079 91.055 139.989 91.682 139.809 92.264C139.629 92.84 139.368 93.341 139.026 93.767C138.69 94.187 138.276 94.52 137.784 94.766C137.298 95.006 136.749 95.126 136.137 95.126C135.579 95.126 135.099 95.033 134.697 94.847C134.301 94.655 133.95 94.391 133.644 94.055V98.087H132.033V85.883H132.996C133.224 85.883 133.365 85.994 133.419 86.216L133.563 87.296ZM143.734 92.804C144.028 93.2 144.349 93.479 144.697 93.641C145.045 93.803 145.435 93.884 145.867 93.884C146.719 93.884 147.373 93.581 147.829 92.975C148.285 92.369 148.513 91.505 148.513 90.383C148.513 89.789 148.459 89.279 148.351 88.853C148.249 88.427 148.099 88.079 147.901 87.809C147.703 87.533 147.46 87.332 147.172 87.206C146.884 87.08 146.557 87.017 146.191 87.017C145.669 87.017 145.21 87.137 144.814 87.377C144.424 87.617 144.064 87.956 143.734 88.394V92.804ZM143.653 87.296C144.037 86.822 144.481 86.441 144.985 86.153C145.489 85.865 146.065 85.721 146.713 85.721C147.241 85.721 147.718 85.823 148.144 86.027C148.57 86.225 148.933 86.522 149.233 86.918C149.533 87.308 149.764 87.794 149.926 88.376C150.088 88.958 150.169 89.627 150.169 90.383C150.169 91.055 150.079 91.682 149.899 92.264C149.719 92.84 149.458 93.341 149.116 93.767C148.78 94.187 148.366 94.52 147.874 94.766C147.388 95.006 146.839 95.126 146.227 95.126C145.669 95.126 145.189 95.033 144.787 94.847C144.391 94.655 144.04 94.391 143.734 94.055V98.087H142.123V85.883H143.086C143.314 85.883 143.455 85.994 143.509 86.216L143.653 87.296ZM153.904 85.883V95H152.302V85.883H153.904ZM154.246 83.021C154.246 83.177 154.213 83.324 154.147 83.462C154.087 83.594 154.003 83.714 153.895 83.822C153.793 83.924 153.67 84.005 153.526 84.065C153.388 84.125 153.241 84.155 153.085 84.155C152.929 84.155 152.782 84.125 152.644 84.065C152.512 84.005 152.395 83.924 152.293 83.822C152.191 83.714 152.11 83.594 152.05 83.462C151.99 83.324 151.96 83.177 151.96 83.021C151.96 82.865 151.99 82.718 152.05 82.58C152.11 82.436 152.191 82.313 152.293 82.211C152.395 82.103 152.512 82.019 152.644 81.959C152.782 81.899 152.929 81.869 153.085 81.869C153.241 81.869 153.388 81.899 153.526 81.959C153.67 82.019 153.793 82.103 153.895 82.211C154.003 82.313 154.087 82.436 154.147 82.58C154.213 82.718 154.246 82.865 154.246 83.021ZM158.049 87.206C158.247 86.984 158.457 86.783 158.679 86.603C158.901 86.423 159.135 86.27 159.381 86.144C159.633 86.012 159.897 85.913 160.173 85.847C160.455 85.775 160.758 85.739 161.082 85.739C161.58 85.739 162.018 85.823 162.396 85.991C162.78 86.153 163.098 86.387 163.35 86.693C163.608 86.993 163.803 87.356 163.935 87.782C164.067 88.208 164.133 88.679 164.133 89.195V95H162.522V89.195C162.522 88.505 162.363 87.971 162.045 87.593C161.733 87.209 161.256 87.017 160.614 87.017C160.14 87.017 159.696 87.131 159.282 87.359C158.874 87.587 158.496 87.896 158.148 88.286V95H156.537V85.883H157.5C157.728 85.883 157.869 85.994 157.923 86.216L158.049 87.206ZM169.751 90.545C170.075 90.545 170.36 90.5 170.606 90.41C170.852 90.32 171.059 90.194 171.227 90.032C171.395 89.87 171.521 89.678 171.605 89.456C171.689 89.228 171.731 88.979 171.731 88.709C171.731 88.151 171.56 87.707 171.218 87.377C170.882 87.047 170.393 86.882 169.751 86.882C169.103 86.882 168.608 87.047 168.266 87.377C167.93 87.707 167.762 88.151 167.762 88.709C167.762 88.979 167.804 89.228 167.888 89.456C167.978 89.678 168.107 89.87 168.275 90.032C168.443 90.194 168.65 90.32 168.896 90.41C169.142 90.5 169.427 90.545 169.751 90.545ZM172.64 95.495C172.64 95.273 172.577 95.093 172.451 94.955C172.325 94.817 172.154 94.709 171.938 94.631C171.728 94.553 171.482 94.499 171.2 94.469C170.918 94.433 170.618 94.406 170.3 94.388C169.988 94.37 169.67 94.352 169.346 94.334C169.022 94.316 168.71 94.286 168.41 94.244C168.074 94.4 167.798 94.598 167.582 94.838C167.372 95.072 167.267 95.348 167.267 95.666C167.267 95.87 167.318 96.059 167.42 96.233C167.528 96.413 167.69 96.566 167.906 96.692C168.122 96.824 168.392 96.926 168.716 96.998C169.046 97.076 169.433 97.115 169.877 97.115C170.309 97.115 170.696 97.076 171.038 96.998C171.38 96.92 171.668 96.809 171.902 96.665C172.142 96.521 172.325 96.35 172.451 96.152C172.577 95.954 172.64 95.735 172.64 95.495ZM174.269 86.243V86.837C174.269 87.035 174.143 87.161 173.891 87.215L172.856 87.35C173.06 87.746 173.162 88.184 173.162 88.664C173.162 89.108 173.075 89.513 172.901 89.879C172.733 90.239 172.499 90.548 172.199 90.806C171.899 91.064 171.539 91.262 171.119 91.4C170.699 91.538 170.243 91.607 169.751 91.607C169.325 91.607 168.923 91.556 168.545 91.454C168.353 91.574 168.206 91.703 168.104 91.841C168.002 91.973 167.951 92.108 167.951 92.246C167.951 92.462 168.038 92.627 168.212 92.741C168.392 92.849 168.626 92.927 168.914 92.975C169.202 93.023 169.529 93.053 169.895 93.065C170.267 93.077 170.645 93.098 171.029 93.128C171.419 93.152 171.797 93.197 172.163 93.263C172.535 93.329 172.865 93.437 173.153 93.587C173.441 93.737 173.672 93.944 173.846 94.208C174.026 94.472 174.116 94.814 174.116 95.234C174.116 95.624 174.017 96.002 173.819 96.368C173.627 96.734 173.348 97.058 172.982 97.34C172.616 97.628 172.166 97.856 171.632 98.024C171.104 98.198 170.507 98.285 169.841 98.285C169.175 98.285 168.593 98.219 168.095 98.087C167.597 97.955 167.183 97.778 166.853 97.556C166.523 97.334 166.274 97.076 166.106 96.782C165.944 96.494 165.863 96.191 165.863 95.873C165.863 95.423 166.004 95.042 166.286 94.73C166.568 94.418 166.955 94.169 167.447 93.983C167.177 93.863 166.961 93.704 166.799 93.506C166.643 93.302 166.565 93.029 166.565 92.687C166.565 92.555 166.589 92.42 166.637 92.282C166.685 92.138 166.757 91.997 166.853 91.859C166.955 91.715 167.078 91.58 167.222 91.454C167.366 91.328 167.534 91.217 167.726 91.121C167.276 90.869 166.925 90.536 166.673 90.122C166.421 89.702 166.295 89.216 166.295 88.664C166.295 88.22 166.379 87.818 166.547 87.458C166.721 87.092 166.961 86.783 167.267 86.531C167.573 86.273 167.936 86.075 168.356 85.937C168.782 85.799 169.247 85.73 169.751 85.73C170.147 85.73 170.516 85.775 170.858 85.865C171.2 85.949 171.512 86.075 171.794 86.243H174.269ZM57.825 122.556C57.825 123.522 57.672 124.401 57.366 125.193C57.06 125.985 56.628 126.663 56.07 127.227C55.512 127.791 54.84 128.229 54.054 128.541C53.274 128.847 52.41 129 51.462 129H46.647V116.103H51.462C52.41 116.103 53.274 116.259 54.054 116.571C54.84 116.877 55.512 117.315 56.07 117.885C56.628 118.449 57.06 119.127 57.366 119.919C57.672 120.711 57.825 121.59 57.825 122.556ZM56.034 122.556C56.034 121.764 55.926 121.056 55.71 120.432C55.494 119.808 55.188 119.28 54.792 118.848C54.396 118.416 53.916 118.086 53.352 117.858C52.788 117.63 52.158 117.516 51.462 117.516H48.393V127.587H51.462C52.158 127.587 52.788 127.473 53.352 127.245C53.916 127.017 54.396 126.69 54.792 126.264C55.188 125.832 55.494 125.304 55.71 124.68C55.926 124.056 56.034 123.348 56.034 122.556ZM65.9413 123.447C65.9413 123.075 65.8873 122.736 65.7793 122.43C65.6773 122.118 65.5243 121.851 65.3203 121.629C65.1223 121.401 64.8793 121.227 64.5913 121.107C64.3033 120.981 63.9763 120.918 63.6103 120.918C62.8423 120.918 62.2333 121.143 61.7833 121.593C61.3393 122.037 61.0633 122.655 60.9553 123.447H65.9413ZM67.2373 127.722C67.0393 127.962 66.8023 128.172 66.5263 128.352C66.2503 128.526 65.9533 128.67 65.6353 128.784C65.3233 128.898 64.9993 128.982 64.6633 129.036C64.3273 129.096 63.9943 129.126 63.6643 129.126C63.0343 129.126 62.4523 129.021 61.9183 128.811C61.3903 128.595 60.9313 128.283 60.5413 127.875C60.1573 127.461 59.8573 126.951 59.6413 126.345C59.4253 125.739 59.3173 125.043 59.3173 124.257C59.3173 123.621 59.4133 123.027 59.6053 122.475C59.8033 121.923 60.0853 121.446 60.4513 121.044C60.8173 120.636 61.2643 120.318 61.7923 120.09C62.3203 119.856 62.9143 119.739 63.5743 119.739C64.1203 119.739 64.6243 119.832 65.0863 120.018C65.5543 120.198 65.9563 120.462 66.2923 120.81C66.6343 121.152 66.9013 121.578 67.0933 122.088C67.2853 122.592 67.3813 123.168 67.3813 123.816C67.3813 124.068 67.3543 124.236 67.3003 124.32C67.2463 124.404 67.1443 124.446 66.9943 124.446H60.9013C60.9193 125.022 60.9973 125.523 61.1353 125.949C61.2793 126.375 61.4773 126.732 61.7293 127.02C61.9813 127.302 62.2813 127.515 62.6293 127.659C62.9773 127.797 63.3673 127.866 63.7993 127.866C64.2013 127.866 64.5463 127.821 64.8343 127.731C65.1283 127.635 65.3803 127.533 65.5903 127.425C65.8003 127.317 65.9743 127.218 66.1123 127.128C66.2563 127.032 66.3793 126.984 66.4813 126.984C66.6133 126.984 66.7153 127.035 66.7873 127.137L67.2373 127.722ZM74.6591 121.386C74.5871 121.518 74.4761 121.584 74.3261 121.584C74.2361 121.584 74.1341 121.551 74.0201 121.485C73.9061 121.419 73.7651 121.347 73.5971 121.269C73.4351 121.185 73.2401 121.11 73.0121 121.044C72.7841 120.972 72.5141 120.936 72.2021 120.936C71.9321 120.936 71.6891 120.972 71.4731 121.044C71.2571 121.11 71.0711 121.203 70.9151 121.323C70.7651 121.443 70.6481 121.584 70.5641 121.746C70.4861 121.902 70.4471 122.073 70.4471 122.259C70.4471 122.493 70.5131 122.688 70.6451 122.844C70.7831 123 70.9631 123.135 71.1851 123.249C71.4071 123.363 71.6591 123.465 71.9411 123.555C72.2231 123.639 72.5111 123.732 72.8051 123.834C73.1051 123.93 73.3961 124.038 73.6781 124.158C73.9601 124.278 74.2121 124.428 74.4341 124.608C74.6561 124.788 74.8331 125.01 74.9651 125.274C75.1031 125.532 75.1721 125.844 75.1721 126.21C75.1721 126.63 75.0971 127.02 74.9471 127.38C74.7971 127.734 74.5751 128.043 74.2811 128.307C73.9871 128.565 73.6271 128.769 73.2011 128.919C72.7751 129.069 72.2831 129.144 71.7251 129.144C71.0891 129.144 70.5131 129.042 69.9971 128.838C69.4811 128.628 69.0431 128.361 68.6831 128.037L69.0611 127.425C69.1091 127.347 69.1661 127.287 69.2321 127.245C69.2981 127.203 69.3821 127.182 69.4841 127.182C69.5921 127.182 69.7061 127.224 69.8261 127.308C69.9461 127.392 70.0901 127.485 70.2581 127.587C70.4321 127.689 70.6421 127.782 70.8881 127.866C71.1341 127.95 71.4401 127.992 71.8061 127.992C72.1181 127.992 72.3911 127.953 72.6251 127.875C72.8591 127.791 73.0541 127.68 73.2101 127.542C73.3661 127.404 73.4801 127.245 73.5521 127.065C73.6301 126.885 73.6691 126.693 73.6691 126.489C73.6691 126.237 73.6001 126.03 73.4621 125.868C73.3301 125.7 73.1531 125.559 72.9311 125.445C72.7091 125.325 72.4541 125.223 72.1661 125.139C71.8841 125.049 71.5931 124.956 71.2931 124.86C70.9991 124.764 70.7081 124.656 70.4201 124.536C70.1381 124.41 69.8861 124.254 69.6641 124.068C69.4421 123.882 69.2621 123.654 69.1241 123.384C68.9921 123.108 68.9261 122.775 68.9261 122.385C68.9261 122.037 68.9981 121.704 69.1421 121.386C69.2861 121.062 69.4961 120.78 69.7721 120.54C70.0481 120.294 70.3871 120.099 70.7891 119.955C71.1911 119.811 71.6501 119.739 72.1661 119.739C72.7661 119.739 73.3031 119.835 73.7771 120.027C74.2571 120.213 74.6711 120.471 75.0191 120.801L74.6591 121.386ZM78.8282 119.883V129H77.2262V119.883H78.8282ZM79.1702 117.021C79.1702 117.177 79.1372 117.324 79.0712 117.462C79.0112 117.594 78.9272 117.714 78.8192 117.822C78.7172 117.924 78.5942 118.005 78.4502 118.065C78.3122 118.125 78.1652 118.155 78.0092 118.155C77.8532 118.155 77.7062 118.125 77.5682 118.065C77.4362 118.005 77.3192 117.924 77.2172 117.822C77.1152 117.714 77.0342 117.594 76.9742 117.462C76.9142 117.324 76.8842 117.177 76.8842 117.021C76.8842 116.865 76.9142 116.718 76.9742 116.58C77.0342 116.436 77.1152 116.313 77.2172 116.211C77.3192 116.103 77.4362 116.019 77.5682 115.959C77.7062 115.899 77.8532 115.869 78.0092 115.869C78.1652 115.869 78.3122 115.899 78.4502 115.959C78.5942 116.019 78.7172 116.103 78.8192 116.211C78.9272 116.313 79.0112 116.436 79.0712 116.58C79.1372 116.718 79.1702 116.865 79.1702 117.021ZM84.6374 124.545C84.9614 124.545 85.2464 124.5 85.4924 124.41C85.7384 124.32 85.9454 124.194 86.1134 124.032C86.2814 123.87 86.4074 123.678 86.4914 123.456C86.5754 123.228 86.6174 122.979 86.6174 122.709C86.6174 122.151 86.4464 121.707 86.1044 121.377C85.7684 121.047 85.2794 120.882 84.6374 120.882C83.9894 120.882 83.4944 121.047 83.1524 121.377C82.8164 121.707 82.6484 122.151 82.6484 122.709C82.6484 122.979 82.6904 123.228 82.7744 123.456C82.8644 123.678 82.9934 123.87 83.1614 124.032C83.3294 124.194 83.5364 124.32 83.7824 124.41C84.0284 124.5 84.3134 124.545 84.6374 124.545ZM87.5264 129.495C87.5264 129.273 87.4634 129.093 87.3374 128.955C87.2114 128.817 87.0404 128.709 86.8244 128.631C86.6144 128.553 86.3684 128.499 86.0864 128.469C85.8044 128.433 85.5044 128.406 85.1864 128.388C84.8744 128.37 84.5564 128.352 84.2324 128.334C83.9084 128.316 83.5964 128.286 83.2964 128.244C82.9604 128.4 82.6844 128.598 82.4684 128.838C82.2584 129.072 82.1534 129.348 82.1534 129.666C82.1534 129.87 82.2044 130.059 82.3064 130.233C82.4144 130.413 82.5764 130.566 82.7924 130.692C83.0084 130.824 83.2784 130.926 83.6024 130.998C83.9324 131.076 84.3194 131.115 84.7634 131.115C85.1954 131.115 85.5824 131.076 85.9244 130.998C86.2664 130.92 86.5544 130.809 86.7884 130.665C87.0284 130.521 87.2114 130.35 87.3374 130.152C87.4634 129.954 87.5264 129.735 87.5264 129.495ZM89.1554 120.243V120.837C89.1554 121.035 89.0294 121.161 88.7774 121.215L87.7424 121.35C87.9464 121.746 88.0484 122.184 88.0484 122.664C88.0484 123.108 87.9614 123.513 87.7874 123.879C87.6194 124.239 87.3854 124.548 87.0854 124.806C86.7854 125.064 86.4254 125.262 86.0054 125.4C85.5854 125.538 85.1294 125.607 84.6374 125.607C84.2114 125.607 83.8094 125.556 83.4314 125.454C83.2394 125.574 83.0924 125.703 82.9904 125.841C82.8884 125.973 82.8374 126.108 82.8374 126.246C82.8374 126.462 82.9244 126.627 83.0984 126.741C83.2784 126.849 83.5124 126.927 83.8004 126.975C84.0884 127.023 84.4154 127.053 84.7814 127.065C85.1534 127.077 85.5314 127.098 85.9154 127.128C86.3054 127.152 86.6834 127.197 87.0494 127.263C87.4214 127.329 87.7514 127.437 88.0394 127.587C88.3274 127.737 88.5584 127.944 88.7324 128.208C88.9124 128.472 89.0024 128.814 89.0024 129.234C89.0024 129.624 88.9034 130.002 88.7054 130.368C88.5134 130.734 88.2344 131.058 87.8684 131.34C87.5024 131.628 87.0524 131.856 86.5184 132.024C85.9904 132.198 85.3934 132.285 84.7274 132.285C84.0614 132.285 83.4794 132.219 82.9814 132.087C82.4834 131.955 82.0694 131.778 81.7394 131.556C81.4094 131.334 81.1604 131.076 80.9924 130.782C80.8304 130.494 80.7494 130.191 80.7494 129.873C80.7494 129.423 80.8904 129.042 81.1724 128.73C81.4544 128.418 81.8414 128.169 82.3334 127.983C82.0634 127.863 81.8474 127.704 81.6854 127.506C81.5294 127.302 81.4514 127.029 81.4514 126.687C81.4514 126.555 81.4754 126.42 81.5234 126.282C81.5714 126.138 81.6434 125.997 81.7394 125.859C81.8414 125.715 81.9644 125.58 82.1084 125.454C82.2524 125.328 82.4204 125.217 82.6124 125.121C82.1624 124.869 81.8114 124.536 81.5594 124.122C81.3074 123.702 81.1814 123.216 81.1814 122.664C81.1814 122.22 81.2654 121.818 81.4334 121.458C81.6074 121.092 81.8474 120.783 82.1534 120.531C82.4594 120.273 82.8224 120.075 83.2424 119.937C83.6684 119.799 84.1334 119.73 84.6374 119.73C85.0334 119.73 85.4024 119.775 85.7444 119.865C86.0864 119.949 86.3984 120.075 86.6804 120.243H89.1554ZM92.324 121.206C92.522 120.984 92.732 120.783 92.954 120.603C93.176 120.423 93.41 120.27 93.656 120.144C93.908 120.012 94.172 119.913 94.448 119.847C94.73 119.775 95.033 119.739 95.357 119.739C95.855 119.739 96.293 119.823 96.671 119.991C97.055 120.153 97.373 120.387 97.625 120.693C97.883 120.993 98.078 121.356 98.21 121.782C98.342 122.208 98.408 122.679 98.408 123.195V129H96.797V123.195C96.797 122.505 96.638 121.971 96.32 121.593C96.008 121.209 95.531 121.017 94.889 121.017C94.415 121.017 93.971 121.131 93.557 121.359C93.149 121.587 92.771 121.896 92.423 122.286V129H90.812V119.883H91.775C92.003 119.883 92.144 119.994 92.198 120.216L92.324 121.206ZM107.147 119.883V129H105.545V119.883H107.147ZM107.489 117.021C107.489 117.177 107.456 117.324 107.39 117.462C107.33 117.594 107.246 117.714 107.138 117.822C107.036 117.924 106.913 118.005 106.769 118.065C106.631 118.125 106.484 118.155 106.328 118.155C106.172 118.155 106.025 118.125 105.887 118.065C105.755 118.005 105.638 117.924 105.536 117.822C105.434 117.714 105.353 117.594 105.293 117.462C105.233 117.324 105.203 117.177 105.203 117.021C105.203 116.865 105.233 116.718 105.293 116.58C105.353 116.436 105.434 116.313 105.536 116.211C105.638 116.103 105.755 116.019 105.887 115.959C106.025 115.899 106.172 115.869 106.328 115.869C106.484 115.869 106.631 115.899 106.769 115.959C106.913 116.019 107.036 116.103 107.138 116.211C107.246 116.313 107.33 116.436 107.39 116.58C107.456 116.718 107.489 116.865 107.489 117.021ZM112.578 129.144C111.858 129.144 111.303 128.943 110.913 128.541C110.529 128.139 110.337 127.56 110.337 126.804V121.224H109.239C109.143 121.224 109.062 121.197 108.996 121.143C108.93 121.083 108.897 120.993 108.897 120.873V120.234L110.391 120.045L110.76 117.228C110.778 117.138 110.817 117.066 110.877 117.012C110.943 116.952 111.027 116.922 111.129 116.922H111.939V120.063H114.576V121.224H111.939V126.696C111.939 127.08 112.032 127.365 112.218 127.551C112.404 127.737 112.644 127.83 112.938 127.83C113.106 127.83 113.25 127.809 113.37 127.767C113.496 127.719 113.604 127.668 113.694 127.614C113.784 127.56 113.859 127.512 113.919 127.47C113.985 127.422 114.042 127.398 114.09 127.398C114.174 127.398 114.249 127.449 114.315 127.551L114.783 128.316C114.507 128.574 114.174 128.778 113.784 128.928C113.394 129.072 112.992 129.144 112.578 129.144ZM122.279 123.447C122.279 123.075 122.225 122.736 122.117 122.43C122.015 122.118 121.862 121.851 121.658 121.629C121.46 121.401 121.217 121.227 120.929 121.107C120.641 120.981 120.314 120.918 119.948 120.918C119.18 120.918 118.571 121.143 118.121 121.593C117.677 122.037 117.401 122.655 117.293 123.447H122.279ZM123.575 127.722C123.377 127.962 123.14 128.172 122.864 128.352C122.588 128.526 122.291 128.67 121.973 128.784C121.661 128.898 121.337 128.982 121.001 129.036C120.665 129.096 120.332 129.126 120.002 129.126C119.372 129.126 118.79 129.021 118.256 128.811C117.728 128.595 117.269 128.283 116.879 127.875C116.495 127.461 116.195 126.951 115.979 126.345C115.763 125.739 115.655 125.043 115.655 124.257C115.655 123.621 115.751 123.027 115.943 122.475C116.141 121.923 116.423 121.446 116.789 121.044C117.155 120.636 117.602 120.318 118.13 120.09C118.658 119.856 119.252 119.739 119.912 119.739C120.458 119.739 120.962 119.832 121.424 120.018C121.892 120.198 122.294 120.462 122.63 120.81C122.972 121.152 123.239 121.578 123.431 122.088C123.623 122.592 123.719 123.168 123.719 123.816C123.719 124.068 123.692 124.236 123.638 124.32C123.584 124.404 123.482 124.446 123.332 124.446H117.239C117.257 125.022 117.335 125.523 117.473 125.949C117.617 126.375 117.815 126.732 118.067 127.02C118.319 127.302 118.619 127.515 118.967 127.659C119.315 127.797 119.705 127.866 120.137 127.866C120.539 127.866 120.884 127.821 121.172 127.731C121.466 127.635 121.718 127.533 121.928 127.425C122.138 127.317 122.312 127.218 122.45 127.128C122.594 127.032 122.717 126.984 122.819 126.984C122.951 126.984 123.053 127.035 123.125 127.137L123.575 127.722ZM127.208 121.71C127.496 121.086 127.85 120.6 128.27 120.252C128.69 119.898 129.203 119.721 129.809 119.721C130.001 119.721 130.184 119.742 130.358 119.784C130.538 119.826 130.697 119.892 130.835 119.982L130.718 121.179C130.682 121.329 130.592 121.404 130.448 121.404C130.364 121.404 130.241 121.386 130.079 121.35C129.917 121.314 129.734 121.296 129.53 121.296C129.242 121.296 128.984 121.338 128.756 121.422C128.534 121.506 128.333 121.632 128.153 121.8C127.979 121.962 127.82 122.166 127.676 122.412C127.538 122.652 127.412 122.928 127.298 123.24V129H125.687V119.883H126.605C126.779 119.883 126.899 119.916 126.965 119.982C127.031 120.048 127.076 120.162 127.1 120.324L127.208 121.71ZM137.044 124.896C136.306 124.92 135.676 124.98 135.154 125.076C134.638 125.166 134.215 125.286 133.885 125.436C133.561 125.586 133.324 125.763 133.174 125.967C133.03 126.171 132.958 126.399 132.958 126.651C132.958 126.891 132.997 127.098 133.075 127.272C133.153 127.446 133.258 127.59 133.39 127.704C133.528 127.812 133.687 127.893 133.867 127.947C134.053 127.995 134.251 128.019 134.461 128.019C134.743 128.019 135.001 127.992 135.235 127.938C135.469 127.878 135.688 127.794 135.892 127.686C136.102 127.578 136.3 127.449 136.486 127.299C136.678 127.149 136.864 126.978 137.044 126.786V124.896ZM131.869 121.17C132.373 120.684 132.916 120.321 133.498 120.081C134.08 119.841 134.725 119.721 135.433 119.721C135.943 119.721 136.396 119.805 136.792 119.973C137.188 120.141 137.521 120.375 137.791 120.675C138.061 120.975 138.265 121.338 138.403 121.764C138.541 122.19 138.61 122.658 138.61 123.168V129H137.899C137.743 129 137.623 128.976 137.539 128.928C137.455 128.874 137.389 128.772 137.341 128.622L137.161 127.758C136.921 127.98 136.687 128.178 136.459 128.352C136.231 128.52 135.991 128.664 135.739 128.784C135.487 128.898 135.217 128.985 134.929 129.045C134.647 129.111 134.332 129.144 133.984 129.144C133.63 129.144 133.297 129.096 132.985 129C132.673 128.898 132.4 128.748 132.166 128.55C131.938 128.352 131.755 128.103 131.617 127.803C131.485 127.497 131.419 127.137 131.419 126.723C131.419 126.363 131.518 126.018 131.716 125.688C131.914 125.352 132.235 125.055 132.679 124.797C133.123 124.539 133.702 124.329 134.416 124.167C135.13 123.999 136.006 123.903 137.044 123.879V123.168C137.044 122.46 136.891 121.926 136.585 121.566C136.279 121.2 135.832 121.017 135.244 121.017C134.848 121.017 134.515 121.068 134.245 121.17C133.981 121.266 133.75 121.377 133.552 121.503C133.36 121.623 133.192 121.734 133.048 121.836C132.91 121.932 132.772 121.98 132.634 121.98C132.526 121.98 132.433 121.953 132.355 121.899C132.277 121.839 132.211 121.767 132.157 121.683L131.869 121.17ZM149.387 129H147.785V121.224H143.087V126.696C143.087 127.08 143.18 127.365 143.366 127.551C143.552 127.737 143.792 127.83 144.086 127.83C144.254 127.83 144.398 127.809 144.518 127.767C144.644 127.719 144.752 127.668 144.842 127.614C144.932 127.56 145.007 127.512 145.067 127.47C145.133 127.422 145.19 127.398 145.238 127.398C145.322 127.398 145.397 127.449 145.463 127.551L145.931 128.316C145.655 128.574 145.322 128.778 144.932 128.928C144.542 129.072 144.14 129.144 143.726 129.144C143.006 129.144 142.451 128.943 142.061 128.541C141.677 128.139 141.485 127.56 141.485 126.804V121.224H140.387C140.291 121.224 140.21 121.197 140.144 121.143C140.078 121.083 140.045 120.993 140.045 120.873V120.234L141.539 120.036L141.908 117.228C141.926 117.138 141.965 117.066 142.025 117.012C142.091 116.952 142.175 116.922 142.277 116.922H143.087V120.063H149.387V129ZM149.783 116.958C149.783 117.114 149.75 117.261 149.684 117.399C149.624 117.531 149.54 117.648 149.432 117.75C149.33 117.852 149.21 117.933 149.072 117.993C148.934 118.053 148.787 118.083 148.631 118.083C148.475 118.083 148.328 118.053 148.19 117.993C148.058 117.933 147.941 117.852 147.839 117.75C147.737 117.648 147.656 117.531 147.596 117.399C147.536 117.261 147.506 117.114 147.506 116.958C147.506 116.802 147.536 116.655 147.596 116.517C147.656 116.373 147.737 116.25 147.839 116.148C147.941 116.04 148.058 115.956 148.19 115.896C148.328 115.836 148.475 115.806 148.631 115.806C148.787 115.806 148.934 115.836 149.072 115.896C149.21 115.956 149.33 116.04 149.432 116.148C149.54 116.25 149.624 116.373 149.684 116.517C149.75 116.655 149.783 116.802 149.783 116.958ZM155.862 119.739C156.528 119.739 157.128 119.85 157.662 120.072C158.196 120.294 158.652 120.609 159.03 121.017C159.408 121.425 159.696 121.92 159.894 122.502C160.098 123.078 160.2 123.723 160.2 124.437C160.2 125.157 160.098 125.805 159.894 126.381C159.696 126.957 159.408 127.449 159.03 127.857C158.652 128.265 158.196 128.58 157.662 128.802C157.128 129.018 156.528 129.126 155.862 129.126C155.19 129.126 154.584 129.018 154.044 128.802C153.51 128.58 153.054 128.265 152.676 127.857C152.298 127.449 152.007 126.957 151.803 126.381C151.605 125.805 151.506 125.157 151.506 124.437C151.506 123.723 151.605 123.078 151.803 122.502C152.007 121.92 152.298 121.425 152.676 121.017C153.054 120.609 153.51 120.294 154.044 120.072C154.584 119.85 155.19 119.739 155.862 119.739ZM155.862 127.875C156.762 127.875 157.434 127.575 157.878 126.975C158.322 126.369 158.544 125.526 158.544 124.446C158.544 123.36 158.322 122.514 157.878 121.908C157.434 121.302 156.762 120.999 155.862 120.999C155.406 120.999 155.007 121.077 154.665 121.233C154.329 121.389 154.047 121.614 153.819 121.908C153.597 122.202 153.429 122.565 153.315 122.997C153.207 123.423 153.153 123.906 153.153 124.446C153.153 125.526 153.375 126.369 153.819 126.975C154.269 127.575 154.95 127.875 155.862 127.875ZM163.744 121.206C163.942 120.984 164.152 120.783 164.374 120.603C164.596 120.423 164.83 120.27 165.076 120.144C165.328 120.012 165.592 119.913 165.868 119.847C166.15 119.775 166.453 119.739 166.777 119.739C167.275 119.739 167.713 119.823 168.091 119.991C168.475 120.153 168.793 120.387 169.045 120.693C169.303 120.993 169.498 121.356 169.63 121.782C169.762 122.208 169.828 122.679 169.828 123.195V129H168.217V123.195C168.217 122.505 168.058 121.971 167.74 121.593C167.428 121.209 166.951 121.017 166.309 121.017C165.835 121.017 165.391 121.131 164.977 121.359C164.569 121.587 164.191 121.896 163.843 122.286V129H162.232V119.883H163.195C163.423 119.883 163.564 119.994 163.618 120.216L163.744 121.206ZM177.579 121.386C177.507 121.518 177.396 121.584 177.246 121.584C177.156 121.584 177.054 121.551 176.94 121.485C176.826 121.419 176.685 121.347 176.517 121.269C176.355 121.185 176.16 121.11 175.932 121.044C175.704 120.972 175.434 120.936 175.122 120.936C174.852 120.936 174.609 120.972 174.393 121.044C174.177 121.11 173.991 121.203 173.835 121.323C173.685 121.443 173.568 121.584 173.484 121.746C173.406 121.902 173.367 122.073 173.367 122.259C173.367 122.493 173.433 122.688 173.565 122.844C173.703 123 173.883 123.135 174.105 123.249C174.327 123.363 174.579 123.465 174.861 123.555C175.143 123.639 175.431 123.732 175.725 123.834C176.025 123.93 176.316 124.038 176.598 124.158C176.88 124.278 177.132 124.428 177.354 124.608C177.576 124.788 177.753 125.01 177.885 125.274C178.023 125.532 178.092 125.844 178.092 126.21C178.092 126.63 178.017 127.02 177.867 127.38C177.717 127.734 177.495 128.043 177.201 128.307C176.907 128.565 176.547 128.769 176.121 128.919C175.695 129.069 175.203 129.144 174.645 129.144C174.009 129.144 173.433 129.042 172.917 128.838C172.401 128.628 171.963 128.361 171.603 128.037L171.981 127.425C172.029 127.347 172.086 127.287 172.152 127.245C172.218 127.203 172.302 127.182 172.404 127.182C172.512 127.182 172.626 127.224 172.746 127.308C172.866 127.392 173.01 127.485 173.178 127.587C173.352 127.689 173.562 127.782 173.808 127.866C174.054 127.95 174.36 127.992 174.726 127.992C175.038 127.992 175.311 127.953 175.545 127.875C175.779 127.791 175.974 127.68 176.13 127.542C176.286 127.404 176.4 127.245 176.472 127.065C176.55 126.885 176.589 126.693 176.589 126.489C176.589 126.237 176.52 126.03 176.382 125.868C176.25 125.7 176.073 125.559 175.851 125.445C175.629 125.325 175.374 125.223 175.086 125.139C174.804 125.049 174.513 124.956 174.213 124.86C173.919 124.764 173.628 124.656 173.34 124.536C173.058 124.41 172.806 124.254 172.584 124.068C172.362 123.882 172.182 123.654 172.044 123.384C171.912 123.108 171.846 122.775 171.846 122.385C171.846 122.037 171.918 121.704 172.062 121.386C172.206 121.062 172.416 120.78 172.692 120.54C172.968 120.294 173.307 120.099 173.709 119.955C174.111 119.811 174.57 119.739 175.086 119.739C175.686 119.739 176.223 119.835 176.697 120.027C177.177 120.213 177.591 120.471 177.939 120.801L177.579 121.386Z" fill="#4F4F4F"/>
</svg>
