<svg width="166" height="71" viewBox="0 0 166 71" fill="none" xmlns="http://www.w3.org/2000/svg">
<path d="M14.5 4.86719V8.51702" stroke="#F66700" stroke-width="2" stroke-linecap="round" stroke-linejoin="round"/>
<path d="M14.5 20.6836V24.3334" stroke="#F66700" stroke-width="2" stroke-linecap="round" stroke-linejoin="round"/>
<path d="M7.25 7.30078L10.875 10.9506" stroke="#F66700" stroke-width="2" stroke-linecap="round" stroke-linejoin="round"/>
<path d="M18.125 18.25L21.75 21.8998" stroke="#F66700" stroke-width="2" stroke-linecap="round" stroke-linejoin="round"/>
<path d="M4.83203 14.5977H8.45703" stroke="#F66700" stroke-width="2" stroke-linecap="round" stroke-linejoin="round"/>
<path d="M20.543 14.5977H24.168" stroke="#F66700" stroke-width="2" stroke-linecap="round" stroke-linejoin="round"/>
<path d="M7.25 21.8998L10.875 18.25" stroke="#F66700" stroke-width="2" stroke-linecap="round" stroke-linejoin="round"/>
<path d="M18.125 10.9506L21.75 7.30078" stroke="#F66700" stroke-width="2" stroke-linecap="round" stroke-linejoin="round"/>
<path d="M47.656 9.008C47.544 10.368 47.488 11.584 47.488 12.656C47.488 13.408 47.512 14.016 47.56 14.48H47.008C46.688 12.672 46.208 11.4 45.568 10.664C44.928 9.928 44.032 9.56 42.88 9.56H42.088C41.592 9.56 41.232 9.6 41.008 9.68C40.784 9.76 40.632 9.92 40.552 10.16C40.472 10.384 40.432 10.752 40.432 11.264V17.312H41.272C42.12 17.312 42.76 17 43.192 16.376C43.64 15.752 43.952 15.008 44.128 14.144H44.68C44.632 14.816 44.608 15.568 44.608 16.4V17.552C44.608 18.368 44.656 19.504 44.752 20.96H44.2C43.864 18.848 42.888 17.792 41.272 17.792H40.432V23.312C40.432 23.952 40.496 24.424 40.624 24.728C40.768 25.016 41.008 25.208 41.344 25.304C41.696 25.4 42.248 25.456 43 25.472V26C41.032 25.952 39.568 25.928 38.608 25.928C37.808 25.928 36.8 25.944 35.584 25.976L34.816 26V25.52C35.344 25.488 35.728 25.424 35.968 25.328C36.224 25.232 36.392 25.048 36.472 24.776C36.568 24.504 36.616 24.064 36.616 23.456V11.552C36.616 10.944 36.568 10.504 36.472 10.232C36.392 9.96 36.224 9.776 35.968 9.68C35.728 9.584 35.344 9.52 34.816 9.488V9.008C36.544 9.056 39.152 9.08 42.64 9.08C44.992 9.08 46.664 9.056 47.656 9.008ZM51.8991 7.4C52.5711 7.4 53.0991 7.568 53.4831 7.904C53.8831 8.224 54.0831 8.672 54.0831 9.248C54.0831 9.824 53.8831 10.28 53.4831 10.616C53.0991 10.936 52.5711 11.096 51.8991 11.096C51.2271 11.096 50.6911 10.936 50.2911 10.616C49.9071 10.28 49.7151 9.824 49.7151 9.248C49.7151 8.672 49.9071 8.224 50.2911 7.904C50.6911 7.568 51.2271 7.4 51.8991 7.4ZM53.7711 23.768C53.7711 24.424 53.8831 24.88 54.1071 25.136C54.3471 25.376 54.7471 25.496 55.3071 25.496V26C53.7071 25.936 52.6431 25.904 52.1151 25.904C51.6191 25.904 50.5071 25.936 48.7791 26V25.496C49.3551 25.496 49.7551 25.376 49.9791 25.136C50.2031 24.88 50.3151 24.424 50.3151 23.768V16.208C50.3151 15.472 50.2031 14.936 49.9791 14.6C49.7551 14.264 49.3551 14.096 48.7791 14.096V13.592C49.2911 13.64 49.7871 13.664 50.2671 13.664C51.6911 13.664 52.8591 13.552 53.7711 13.328V23.768ZM65.2774 13.256C66.4934 13.256 67.3734 13.568 67.9174 14.192C68.1894 14.496 68.3814 14.888 68.4934 15.368C68.6054 15.848 68.6614 16.496 68.6614 17.312V23.768C68.6614 24.424 68.7734 24.88 68.9974 25.136C69.2374 25.376 69.6374 25.496 70.1974 25.496V26C68.5974 25.936 67.5414 25.904 67.0294 25.904C66.5494 25.904 65.5094 25.936 63.9094 26V25.496C64.3894 25.496 64.7254 25.376 64.9174 25.136C65.1094 24.88 65.2054 24.424 65.2054 23.768V16.304C65.2054 15.648 65.0934 15.152 64.8694 14.816C64.6614 14.48 64.2774 14.312 63.7174 14.312C63.0614 14.312 62.5014 14.584 62.0374 15.128C61.5734 15.656 61.3414 16.312 61.3414 17.096V23.768C61.3414 24.424 61.4374 24.88 61.6294 25.136C61.8214 25.376 62.1574 25.496 62.6374 25.496V26C61.1654 25.936 60.1734 25.904 59.6614 25.904C59.1814 25.904 58.0774 25.936 56.3494 26V25.496C56.9254 25.496 57.3254 25.376 57.5494 25.136C57.7734 24.88 57.8854 24.424 57.8854 23.768V16.208C57.8854 15.472 57.7734 14.936 57.5494 14.6C57.3254 14.264 56.9254 14.096 56.3494 14.096V13.592C56.8614 13.64 57.3574 13.664 57.8374 13.664C59.2614 13.664 60.4294 13.552 61.3414 13.328V15.488C62.0614 14 63.3734 13.256 65.2774 13.256ZM74.2596 26.168C73.2356 26.168 72.4676 25.904 71.9556 25.376C71.4596 24.848 71.2116 24.152 71.2116 23.288C71.2116 22.568 71.3956 21.976 71.7636 21.512C72.1476 21.032 72.6036 20.664 73.1316 20.408C73.6756 20.152 74.3636 19.88 75.1956 19.592C76.0756 19.288 76.7156 19.016 77.1156 18.776C77.5316 18.52 77.7396 18.176 77.7396 17.744V15.872C77.7396 15.2 77.5796 14.68 77.2596 14.312C76.9556 13.928 76.4756 13.736 75.8196 13.736C75.0516 13.736 74.4676 13.928 74.0676 14.312C74.5156 14.472 74.8596 14.712 75.0996 15.032C75.3556 15.352 75.4836 15.728 75.4836 16.16C75.4836 16.704 75.2996 17.136 74.9316 17.456C74.5636 17.776 74.1156 17.936 73.5876 17.936C73.0276 17.936 72.5956 17.76 72.2916 17.408C71.9876 17.056 71.8356 16.616 71.8356 16.088C71.8356 15.64 71.9396 15.264 72.1476 14.96C72.3716 14.64 72.7076 14.344 73.1556 14.072C73.5876 13.816 74.1156 13.616 74.7396 13.472C75.3796 13.328 76.0756 13.256 76.8276 13.256C77.6116 13.256 78.2916 13.336 78.8676 13.496C79.4436 13.656 79.9236 13.928 80.3076 14.312C80.6596 14.664 80.8916 15.096 81.0036 15.608C81.1316 16.12 81.1956 16.816 81.1956 17.696V24.224C81.1956 24.608 81.2276 24.88 81.2916 25.04C81.3716 25.2 81.5156 25.28 81.7236 25.28C81.9636 25.28 82.2516 25.144 82.5876 24.872L82.8276 25.28C82.1076 25.872 81.2276 26.168 80.1876 26.168C79.3076 26.168 78.6916 25.992 78.3396 25.64C77.9876 25.288 77.8036 24.816 77.7876 24.224C76.9876 25.52 75.8116 26.168 74.2596 26.168ZM76.1076 24.632C76.7316 24.632 77.2756 24.304 77.7396 23.648V18.728C77.5476 19.048 77.1396 19.4 76.5156 19.784C75.8916 20.184 75.4196 20.584 75.0996 20.984C74.7796 21.384 74.6196 21.96 74.6196 22.712C74.6196 23.368 74.7556 23.856 75.0276 24.176C75.2996 24.48 75.6596 24.632 76.1076 24.632ZM88.4095 23.768C88.4095 24.424 88.5215 24.88 88.7455 25.136C88.9695 25.376 89.3695 25.496 89.9455 25.496V26C88.2815 25.936 87.2095 25.904 86.7295 25.904C86.1855 25.904 85.0815 25.936 83.4175 26V25.496C83.9775 25.496 84.3695 25.376 84.5935 25.136C84.8335 24.88 84.9535 24.424 84.9535 23.768V10.088C84.9535 9.352 84.8335 8.816 84.5935 8.48C84.3695 8.144 83.9775 7.976 83.4175 7.976V7.472C83.9295 7.52 84.4255 7.544 84.9055 7.544C86.2975 7.544 87.4655 7.432 88.4095 7.208V23.768ZM95.7186 13.256C96.3266 13.256 96.8866 13.336 97.3986 13.496C97.9106 13.64 98.3026 13.808 98.5746 14C98.7346 14.112 98.8786 14.168 99.0066 14.168C99.1506 14.168 99.2706 14.096 99.3666 13.952C99.4786 13.792 99.5506 13.568 99.5826 13.28H100.087C100.023 14.096 99.9906 15.504 99.9906 17.504H99.4866C99.3426 16.448 99.0226 15.568 98.5266 14.864C98.0466 14.144 97.3426 13.784 96.4146 13.784C95.9346 13.784 95.5346 13.92 95.2146 14.192C94.9106 14.464 94.7586 14.84 94.7586 15.32C94.7586 15.864 94.9426 16.336 95.3106 16.736C95.6786 17.12 96.2546 17.592 97.0386 18.152L97.7346 18.656C98.7106 19.392 99.4306 20.048 99.8946 20.624C100.359 21.2 100.591 21.92 100.591 22.784C100.591 23.488 100.383 24.112 99.9666 24.656C99.5666 25.2 99.0226 25.616 98.3346 25.904C97.6466 26.192 96.8866 26.336 96.0546 26.336C95.1746 26.336 94.4226 26.168 93.7986 25.832C93.2866 25.576 92.9186 25.408 92.6946 25.328C92.5346 25.28 92.3906 25.336 92.2626 25.496C92.1506 25.64 92.0626 25.864 91.9986 26.168H91.4946C91.5586 25.256 91.5906 23.656 91.5906 21.368H92.0946C92.4146 24.312 93.4946 25.784 95.3346 25.784C95.7986 25.784 96.1906 25.648 96.5106 25.376C96.8466 25.088 97.0146 24.656 97.0146 24.08C97.0146 23.632 96.9106 23.232 96.7026 22.88C96.5106 22.528 96.2626 22.216 95.9586 21.944C95.6546 21.672 95.1986 21.296 94.5906 20.816C93.8706 20.24 93.3186 19.776 92.9346 19.424C92.5666 19.072 92.2466 18.656 91.9746 18.176C91.7186 17.696 91.5906 17.16 91.5906 16.568C91.5906 15.544 91.9906 14.736 92.7906 14.144C93.5906 13.552 94.5666 13.256 95.7186 13.256Z" fill="#F66700"/>
<path d="M37.393 49.525V54.034H42.694V55.456H37.393V61H35.647V48.103H43.594V49.525H37.393ZM47.1036 51.883V61H45.5016V51.883H47.1036ZM47.4456 49.021C47.4456 49.177 47.4126 49.324 47.3466 49.462C47.2866 49.594 47.2026 49.714 47.0946 49.822C46.9926 49.924 46.8696 50.005 46.7256 50.065C46.5876 50.125 46.4406 50.155 46.2846 50.155C46.1286 50.155 45.9816 50.125 45.8436 50.065C45.7116 50.005 45.5946 49.924 45.4926 49.822C45.3906 49.714 45.3096 49.594 45.2496 49.462C45.1896 49.324 45.1596 49.177 45.1596 49.021C45.1596 48.865 45.1896 48.718 45.2496 48.58C45.3096 48.436 45.3906 48.313 45.4926 48.211C45.5946 48.103 45.7116 48.019 45.8436 47.959C45.9816 47.899 46.1286 47.869 46.2846 47.869C46.4406 47.869 46.5876 47.899 46.7256 47.959C46.8696 48.019 46.9926 48.103 47.0946 48.211C47.2026 48.313 47.2866 48.436 47.3466 48.58C47.4126 48.718 47.4456 48.865 47.4456 49.021ZM51.2478 53.206C51.4458 52.984 51.6558 52.783 51.8778 52.603C52.0998 52.423 52.3338 52.27 52.5798 52.144C52.8318 52.012 53.0958 51.913 53.3718 51.847C53.6538 51.775 53.9568 51.739 54.2808 51.739C54.7788 51.739 55.2168 51.823 55.5948 51.991C55.9788 52.153 56.2968 52.387 56.5488 52.693C56.8068 52.993 57.0018 53.356 57.1338 53.782C57.2658 54.208 57.3318 54.679 57.3318 55.195V61H55.7208V55.195C55.7208 54.505 55.5618 53.971 55.2438 53.593C54.9318 53.209 54.4548 53.017 53.8128 53.017C53.3388 53.017 52.8948 53.131 52.4808 53.359C52.0728 53.587 51.6948 53.896 51.3468 54.286V61H49.7358V51.883H50.6988C50.9268 51.883 51.0678 51.994 51.1218 52.216L51.2478 53.206ZM64.7139 56.896C63.9759 56.92 63.3459 56.98 62.8239 57.076C62.3079 57.166 61.8849 57.286 61.5549 57.436C61.2309 57.586 60.9939 57.763 60.8439 57.967C60.6999 58.171 60.6279 58.399 60.6279 58.651C60.6279 58.891 60.6669 59.098 60.7449 59.272C60.8229 59.446 60.9279 59.59 61.0599 59.704C61.1979 59.812 61.3569 59.893 61.5369 59.947C61.7229 59.995 61.9209 60.019 62.1309 60.019C62.4129 60.019 62.6709 59.992 62.9049 59.938C63.1389 59.878 63.3579 59.794 63.5619 59.686C63.7719 59.578 63.9699 59.449 64.1559 59.299C64.3479 59.149 64.5339 58.978 64.7139 58.786V56.896ZM59.5389 53.17C60.0429 52.684 60.5859 52.321 61.1679 52.081C61.7499 51.841 62.3949 51.721 63.1029 51.721C63.6129 51.721 64.0659 51.805 64.4619 51.973C64.8579 52.141 65.1909 52.375 65.4609 52.675C65.7309 52.975 65.9349 53.338 66.0729 53.764C66.2109 54.19 66.2799 54.658 66.2799 55.168V61H65.5689C65.4129 61 65.2929 60.976 65.2089 60.928C65.1249 60.874 65.0589 60.772 65.0109 60.622L64.8309 59.758C64.5909 59.98 64.3569 60.178 64.1289 60.352C63.9009 60.52 63.6609 60.664 63.4089 60.784C63.1569 60.898 62.8869 60.985 62.5989 61.045C62.3169 61.111 62.0019 61.144 61.6539 61.144C61.2999 61.144 60.9669 61.096 60.6549 61C60.3429 60.898 60.0699 60.748 59.8359 60.55C59.6079 60.352 59.4249 60.103 59.2869 59.803C59.1549 59.497 59.0889 59.137 59.0889 58.723C59.0889 58.363 59.1879 58.018 59.3859 57.688C59.5839 57.352 59.9049 57.055 60.3489 56.797C60.7929 56.539 61.3719 56.329 62.0859 56.167C62.7999 55.999 63.6759 55.903 64.7139 55.879V55.168C64.7139 54.46 64.5609 53.926 64.2549 53.566C63.9489 53.2 63.5019 53.017 62.9139 53.017C62.5179 53.017 62.1849 53.068 61.9149 53.17C61.6509 53.266 61.4199 53.377 61.2219 53.503C61.0299 53.623 60.8619 53.734 60.7179 53.836C60.5799 53.932 60.4419 53.98 60.3039 53.98C60.1959 53.98 60.1029 53.953 60.0249 53.899C59.9469 53.839 59.8809 53.767 59.8269 53.683L59.5389 53.17ZM70.3762 47.743V61H68.7742V47.743H70.3762ZM79.1905 58.804C79.4845 59.2 79.8055 59.479 80.1535 59.641C80.5015 59.803 80.8915 59.884 81.3235 59.884C82.1755 59.884 82.8295 59.581 83.2855 58.975C83.7415 58.369 83.9695 57.505 83.9695 56.383C83.9695 55.789 83.9155 55.279 83.8075 54.853C83.7055 54.427 83.5555 54.079 83.3575 53.809C83.1595 53.533 82.9165 53.332 82.6285 53.206C82.3405 53.08 82.0135 53.017 81.6475 53.017C81.1255 53.017 80.6665 53.137 80.2705 53.377C79.8805 53.617 79.5205 53.956 79.1905 54.394V58.804ZM79.1095 53.296C79.4935 52.822 79.9375 52.441 80.4415 52.153C80.9455 51.865 81.5215 51.721 82.1695 51.721C82.6975 51.721 83.1745 51.823 83.6005 52.027C84.0265 52.225 84.3895 52.522 84.6895 52.918C84.9895 53.308 85.2205 53.794 85.3825 54.376C85.5445 54.958 85.6255 55.627 85.6255 56.383C85.6255 57.055 85.5355 57.682 85.3555 58.264C85.1755 58.84 84.9145 59.341 84.5725 59.767C84.2365 60.187 83.8225 60.52 83.3305 60.766C82.8445 61.006 82.2955 61.126 81.6835 61.126C81.1255 61.126 80.6455 61.033 80.2435 60.847C79.8475 60.655 79.4965 60.391 79.1905 60.055V64.087H77.5795V51.883H78.5425C78.7705 51.883 78.9115 51.994 78.9655 52.216L79.1095 53.296ZM89.1904 53.71C89.4784 53.086 89.8324 52.6 90.2524 52.252C90.6724 51.898 91.1854 51.721 91.7914 51.721C91.9834 51.721 92.1664 51.742 92.3404 51.784C92.5204 51.826 92.6794 51.892 92.8174 51.982L92.7004 53.179C92.6644 53.329 92.5744 53.404 92.4304 53.404C92.3464 53.404 92.2234 53.386 92.0614 53.35C91.8994 53.314 91.7164 53.296 91.5124 53.296C91.2244 53.296 90.9664 53.338 90.7384 53.422C90.5164 53.506 90.3154 53.632 90.1354 53.8C89.9614 53.962 89.8024 54.166 89.6584 54.412C89.5204 54.652 89.3944 54.928 89.2804 55.24V61H87.6694V51.883H88.5874C88.7614 51.883 88.8814 51.916 88.9474 51.982C89.0134 52.048 89.0584 52.162 89.0824 52.324L89.1904 53.71ZM97.6999 51.739C98.3659 51.739 98.9659 51.85 99.4999 52.072C100.034 52.294 100.49 52.609 100.868 53.017C101.246 53.425 101.534 53.92 101.732 54.502C101.936 55.078 102.038 55.723 102.038 56.437C102.038 57.157 101.936 57.805 101.732 58.381C101.534 58.957 101.246 59.449 100.868 59.857C100.49 60.265 100.034 60.58 99.4999 60.802C98.9659 61.018 98.3659 61.126 97.6999 61.126C97.0279 61.126 96.4219 61.018 95.8819 60.802C95.3479 60.58 94.8919 60.265 94.5139 59.857C94.1359 59.449 93.8449 58.957 93.6409 58.381C93.4429 57.805 93.3439 57.157 93.3439 56.437C93.3439 55.723 93.4429 55.078 93.6409 54.502C93.8449 53.92 94.1359 53.425 94.5139 53.017C94.8919 52.609 95.3479 52.294 95.8819 52.072C96.4219 51.85 97.0279 51.739 97.6999 51.739ZM97.6999 59.875C98.5999 59.875 99.2719 59.575 99.7159 58.975C100.16 58.369 100.382 57.526 100.382 56.446C100.382 55.36 100.16 54.514 99.7159 53.908C99.2719 53.302 98.5999 52.999 97.6999 52.999C97.2439 52.999 96.8449 53.077 96.5029 53.233C96.1669 53.389 95.8849 53.614 95.6569 53.908C95.4349 54.202 95.2669 54.565 95.1529 54.997C95.0449 55.423 94.9909 55.906 94.9909 56.446C94.9909 57.526 95.2129 58.369 95.6569 58.975C96.1069 59.575 96.7879 59.875 97.6999 59.875ZM106.711 61.144C105.991 61.144 105.436 60.943 105.046 60.541C104.662 60.139 104.47 59.56 104.47 58.804V53.224H103.372C103.276 53.224 103.195 53.197 103.129 53.143C103.063 53.083 103.03 52.993 103.03 52.873V52.234L104.524 52.045L104.893 49.228C104.911 49.138 104.95 49.066 105.01 49.012C105.076 48.952 105.16 48.922 105.262 48.922H106.072V52.063H108.709V53.224H106.072V58.696C106.072 59.08 106.165 59.365 106.351 59.551C106.537 59.737 106.777 59.83 107.071 59.83C107.239 59.83 107.383 59.809 107.503 59.767C107.629 59.719 107.737 59.668 107.827 59.614C107.917 59.56 107.992 59.512 108.052 59.47C108.118 59.422 108.175 59.398 108.223 59.398C108.307 59.398 108.382 59.449 108.448 59.551L108.916 60.316C108.64 60.574 108.307 60.778 107.917 60.928C107.527 61.072 107.125 61.144 106.711 61.144ZM114.153 51.739C114.819 51.739 115.419 51.85 115.953 52.072C116.487 52.294 116.943 52.609 117.321 53.017C117.699 53.425 117.987 53.92 118.185 54.502C118.389 55.078 118.491 55.723 118.491 56.437C118.491 57.157 118.389 57.805 118.185 58.381C117.987 58.957 117.699 59.449 117.321 59.857C116.943 60.265 116.487 60.58 115.953 60.802C115.419 61.018 114.819 61.126 114.153 61.126C113.481 61.126 112.875 61.018 112.335 60.802C111.801 60.58 111.345 60.265 110.967 59.857C110.589 59.449 110.298 58.957 110.094 58.381C109.896 57.805 109.797 57.157 109.797 56.437C109.797 55.723 109.896 55.078 110.094 54.502C110.298 53.92 110.589 53.425 110.967 53.017C111.345 52.609 111.801 52.294 112.335 52.072C112.875 51.85 113.481 51.739 114.153 51.739ZM114.153 59.875C115.053 59.875 115.725 59.575 116.169 58.975C116.613 58.369 116.835 57.526 116.835 56.446C116.835 55.36 116.613 54.514 116.169 53.908C115.725 53.302 115.053 52.999 114.153 52.999C113.697 52.999 113.298 53.077 112.956 53.233C112.62 53.389 112.338 53.614 112.11 53.908C111.888 54.202 111.72 54.565 111.606 54.997C111.498 55.423 111.444 55.906 111.444 56.446C111.444 57.526 111.666 58.369 112.11 58.975C112.56 59.575 113.241 59.875 114.153 59.875ZM123.164 61.144C122.444 61.144 121.889 60.943 121.499 60.541C121.115 60.139 120.923 59.56 120.923 58.804V53.224H119.825C119.729 53.224 119.648 53.197 119.582 53.143C119.516 53.083 119.483 52.993 119.483 52.873V52.234L120.977 52.045L121.346 49.228C121.364 49.138 121.403 49.066 121.463 49.012C121.529 48.952 121.613 48.922 121.715 48.922H122.525V52.063H125.162V53.224H122.525V58.696C122.525 59.08 122.618 59.365 122.804 59.551C122.99 59.737 123.23 59.83 123.524 59.83C123.692 59.83 123.836 59.809 123.956 59.767C124.082 59.719 124.19 59.668 124.28 59.614C124.37 59.56 124.445 59.512 124.505 59.47C124.571 59.422 124.628 59.398 124.676 59.398C124.76 59.398 124.835 59.449 124.901 59.551L125.369 60.316C125.093 60.574 124.76 60.778 124.37 60.928C123.98 61.072 123.578 61.144 123.164 61.144ZM134.682 51.883L129.597 63.691C129.543 63.811 129.474 63.907 129.39 63.979C129.312 64.051 129.189 64.087 129.021 64.087H127.833L129.498 60.469L125.736 51.883H127.122C127.26 51.883 127.368 51.919 127.446 51.991C127.53 52.057 127.587 52.132 127.617 52.216L130.056 57.958C130.152 58.21 130.233 58.474 130.299 58.75C130.383 58.468 130.473 58.201 130.569 57.949L132.936 52.216C132.972 52.12 133.032 52.042 133.116 51.982C133.206 51.916 133.305 51.883 133.413 51.883H134.682ZM137.708 58.804C138.002 59.2 138.323 59.479 138.671 59.641C139.019 59.803 139.409 59.884 139.841 59.884C140.693 59.884 141.347 59.581 141.803 58.975C142.259 58.369 142.487 57.505 142.487 56.383C142.487 55.789 142.433 55.279 142.325 54.853C142.223 54.427 142.073 54.079 141.875 53.809C141.677 53.533 141.434 53.332 141.146 53.206C140.858 53.08 140.531 53.017 140.165 53.017C139.643 53.017 139.184 53.137 138.788 53.377C138.398 53.617 138.038 53.956 137.708 54.394V58.804ZM137.627 53.296C138.011 52.822 138.455 52.441 138.959 52.153C139.463 51.865 140.039 51.721 140.687 51.721C141.215 51.721 141.692 51.823 142.118 52.027C142.544 52.225 142.907 52.522 143.207 52.918C143.507 53.308 143.738 53.794 143.9 54.376C144.062 54.958 144.143 55.627 144.143 56.383C144.143 57.055 144.053 57.682 143.873 58.264C143.693 58.84 143.432 59.341 143.09 59.767C142.754 60.187 142.34 60.52 141.848 60.766C141.362 61.006 140.813 61.126 140.201 61.126C139.643 61.126 139.163 61.033 138.761 60.847C138.365 60.655 138.014 60.391 137.708 60.055V64.087H136.097V51.883H137.06C137.288 51.883 137.429 51.994 137.483 52.216L137.627 53.296ZM152.289 55.447C152.289 55.075 152.235 54.736 152.127 54.43C152.025 54.118 151.872 53.851 151.668 53.629C151.47 53.401 151.227 53.227 150.939 53.107C150.651 52.981 150.324 52.918 149.958 52.918C149.19 52.918 148.581 53.143 148.131 53.593C147.687 54.037 147.411 54.655 147.303 55.447H152.289ZM153.585 59.722C153.387 59.962 153.15 60.172 152.874 60.352C152.598 60.526 152.301 60.67 151.983 60.784C151.671 60.898 151.347 60.982 151.011 61.036C150.675 61.096 150.342 61.126 150.012 61.126C149.382 61.126 148.8 61.021 148.266 60.811C147.738 60.595 147.279 60.283 146.889 59.875C146.505 59.461 146.205 58.951 145.989 58.345C145.773 57.739 145.665 57.043 145.665 56.257C145.665 55.621 145.761 55.027 145.953 54.475C146.151 53.923 146.433 53.446 146.799 53.044C147.165 52.636 147.612 52.318 148.14 52.09C148.668 51.856 149.262 51.739 149.922 51.739C150.468 51.739 150.972 51.832 151.434 52.018C151.902 52.198 152.304 52.462 152.64 52.81C152.982 53.152 153.249 53.578 153.441 54.088C153.633 54.592 153.729 55.168 153.729 55.816C153.729 56.068 153.702 56.236 153.648 56.32C153.594 56.404 153.492 56.446 153.342 56.446H147.249C147.267 57.022 147.345 57.523 147.483 57.949C147.627 58.375 147.825 58.732 148.077 59.02C148.329 59.302 148.629 59.515 148.977 59.659C149.325 59.797 149.715 59.866 150.147 59.866C150.549 59.866 150.894 59.821 151.182 59.731C151.476 59.635 151.728 59.533 151.938 59.425C152.148 59.317 152.322 59.218 152.46 59.128C152.604 59.032 152.727 58.984 152.829 58.984C152.961 58.984 153.063 59.035 153.135 59.137L153.585 59.722Z" fill="#4F4F4F"/>
</svg>
