<svg width="245" height="40" viewBox="0 0 245 40" fill="none" xmlns="http://www.w3.org/2000/svg">
<path d="M13.982 17.4548C14.1984 17.6669 14.4893 17.7857 14.7923 17.7857C15.0953 17.7857 15.3862 17.6669 15.6026 17.4548L17.4548 15.6026C17.6669 15.3862 17.7857 15.0953 17.7857 14.7923C17.7857 14.4893 17.6669 14.1984 17.4548 13.982L13.0906 9.61786C14.3769 9.03578 15.8101 8.85954 17.1991 9.11262C18.5881 9.3657 19.867 10.0361 20.8654 11.0344C21.8637 12.0328 22.5341 13.3117 22.7872 14.7007C23.0402 16.0897 22.864 17.5228 22.2819 18.8091L30.2809 26.8081C30.7414 27.2686 31.0001 27.8932 31.0001 28.5445C31.0001 29.1958 30.7414 29.8204 30.2809 30.2809C29.8204 30.7414 29.1958 31.0001 28.5445 31.0001C27.8932 31.0001 27.2686 30.7414 26.8081 30.2809L18.8091 22.2819C17.5228 22.864 16.0897 23.0402 14.7007 22.7872C13.3117 22.5341 12.0328 21.8637 11.0344 20.8654C10.0361 19.867 9.3657 18.5881 9.11262 17.1991C8.85954 15.8101 9.03578 14.3769 9.61786 13.0906L13.9704 17.4432L13.982 17.4548Z" stroke="#CE8200" stroke-width="2" stroke-linecap="round" stroke-linejoin="round"/>
<path d="M61.104 9.488C60.576 9.568 60.184 9.704 59.928 9.896C59.688 10.088 59.52 10.392 59.424 10.808C59.344 11.224 59.304 11.84 59.304 12.656V19.016C59.304 21.304 58.976 23 58.32 24.104C57.888 24.808 57.264 25.36 56.448 25.76C55.632 26.144 54.632 26.336 53.448 26.336C51.592 26.336 50.152 25.936 49.128 25.136C48.392 24.544 47.896 23.8 47.64 22.904C47.384 21.992 47.256 20.72 47.256 19.088V11.552C47.256 10.944 47.208 10.504 47.112 10.232C47.032 9.96 46.864 9.776 46.608 9.68C46.368 9.584 45.984 9.52 45.456 9.488V9.008C46.272 9.056 47.52 9.08 49.2 9.08C50.864 9.08 52.136 9.056 53.016 9.008V9.488C52.44 9.52 52.016 9.584 51.744 9.68C51.488 9.776 51.312 9.96 51.216 10.232C51.12 10.504 51.072 10.944 51.072 11.552V20.6C51.072 22.28 51.312 23.52 51.792 24.32C52.288 25.104 53.152 25.496 54.384 25.496C55.984 25.496 57.112 24.96 57.768 23.888C58.424 22.8 58.752 21.264 58.752 19.28V12.944C58.752 12.016 58.696 11.328 58.584 10.88C58.472 10.432 58.256 10.112 57.936 9.92C57.616 9.712 57.112 9.568 56.424 9.488V9.008C57.032 9.056 57.896 9.08 59.016 9.08C59.912 9.08 60.608 9.056 61.104 9.008V9.488ZM66.2889 13.256C66.8969 13.256 67.4569 13.336 67.9689 13.496C68.4809 13.64 68.8729 13.808 69.1449 14C69.3049 14.112 69.4489 14.168 69.5769 14.168C69.7209 14.168 69.8409 14.096 69.9369 13.952C70.0489 13.792 70.1209 13.568 70.1529 13.28H70.6569C70.5929 14.096 70.5609 15.504 70.5609 17.504H70.0569C69.9129 16.448 69.5929 15.568 69.0969 14.864C68.6169 14.144 67.9129 13.784 66.9849 13.784C66.5049 13.784 66.1049 13.92 65.7849 14.192C65.4809 14.464 65.3289 14.84 65.3289 15.32C65.3289 15.864 65.5129 16.336 65.8809 16.736C66.2489 17.12 66.8249 17.592 67.6089 18.152L68.3049 18.656C69.2809 19.392 70.0009 20.048 70.4649 20.624C70.9289 21.2 71.1609 21.92 71.1609 22.784C71.1609 23.488 70.9529 24.112 70.5369 24.656C70.1369 25.2 69.5929 25.616 68.9049 25.904C68.2169 26.192 67.4569 26.336 66.6249 26.336C65.7449 26.336 64.9929 26.168 64.3689 25.832C63.8569 25.576 63.4889 25.408 63.2649 25.328C63.1049 25.28 62.9609 25.336 62.8329 25.496C62.7209 25.64 62.6329 25.864 62.5689 26.168H62.0649C62.1289 25.256 62.1609 23.656 62.1609 21.368H62.6649C62.9849 24.312 64.0649 25.784 65.9049 25.784C66.3689 25.784 66.7609 25.648 67.0809 25.376C67.4169 25.088 67.5849 24.656 67.5849 24.08C67.5849 23.632 67.4809 23.232 67.2729 22.88C67.0809 22.528 66.8329 22.216 66.5289 21.944C66.2249 21.672 65.7689 21.296 65.1609 20.816C64.4409 20.24 63.8889 19.776 63.5049 19.424C63.1369 19.072 62.8169 18.656 62.5449 18.176C62.2889 17.696 62.1609 17.16 62.1609 16.568C62.1609 15.544 62.5609 14.736 63.3609 14.144C64.1609 13.552 65.1369 13.256 66.2889 13.256ZM75.7909 26.168C74.7669 26.168 73.9989 25.904 73.4869 25.376C72.9909 24.848 72.7429 24.152 72.7429 23.288C72.7429 22.568 72.9269 21.976 73.2949 21.512C73.6789 21.032 74.1349 20.664 74.6629 20.408C75.2069 20.152 75.8949 19.88 76.7269 19.592C77.6069 19.288 78.2469 19.016 78.6469 18.776C79.0629 18.52 79.2709 18.176 79.2709 17.744V15.872C79.2709 15.2 79.1109 14.68 78.7909 14.312C78.4869 13.928 78.0069 13.736 77.3509 13.736C76.5829 13.736 75.9989 13.928 75.5989 14.312C76.0469 14.472 76.3909 14.712 76.6309 15.032C76.8869 15.352 77.0149 15.728 77.0149 16.16C77.0149 16.704 76.8309 17.136 76.4629 17.456C76.0949 17.776 75.6469 17.936 75.1189 17.936C74.5589 17.936 74.1269 17.76 73.8229 17.408C73.5189 17.056 73.3669 16.616 73.3669 16.088C73.3669 15.64 73.4709 15.264 73.6789 14.96C73.9029 14.64 74.2389 14.344 74.6869 14.072C75.1189 13.816 75.6469 13.616 76.2709 13.472C76.9109 13.328 77.6069 13.256 78.3589 13.256C79.1429 13.256 79.8229 13.336 80.3989 13.496C80.9749 13.656 81.4549 13.928 81.8389 14.312C82.1909 14.664 82.4229 15.096 82.5349 15.608C82.6629 16.12 82.7269 16.816 82.7269 17.696V24.224C82.7269 24.608 82.7589 24.88 82.8229 25.04C82.9029 25.2 83.0469 25.28 83.2549 25.28C83.4949 25.28 83.7829 25.144 84.1189 24.872L84.3589 25.28C83.6389 25.872 82.7589 26.168 81.7189 26.168C80.8389 26.168 80.2229 25.992 79.8709 25.64C79.5189 25.288 79.3349 24.816 79.3189 24.224C78.5189 25.52 77.3429 26.168 75.7909 26.168ZM77.6389 24.632C78.2629 24.632 78.8069 24.304 79.2709 23.648V18.728C79.0789 19.048 78.6709 19.4 78.0469 19.784C77.4229 20.184 76.9509 20.584 76.6309 20.984C76.3109 21.384 76.1509 21.96 76.1509 22.712C76.1509 23.368 76.2869 23.856 76.5589 24.176C76.8309 24.48 77.1909 24.632 77.6389 24.632ZM93.2768 13.256C94.5728 13.256 95.6208 13.792 96.4208 14.864C97.2208 15.92 97.6208 17.456 97.6208 19.472C97.6208 21.824 97.1088 23.56 96.0848 24.68C95.0608 25.784 93.7408 26.336 92.1248 26.336C91.0208 26.336 90.1248 26.056 89.4368 25.496C88.8608 25.448 88.2848 25.512 87.7088 25.688C87.1328 25.864 86.6768 26.096 86.3408 26.384L85.9808 26.168C86.0928 25.768 86.1488 25.32 86.1488 24.824V10.112C86.1488 9.376 86.0288 8.84 85.7888 8.504C85.5648 8.168 85.1728 8 84.6128 8V7.496C85.1088 7.544 85.6048 7.568 86.1008 7.568C87.4928 7.568 88.6608 7.456 89.6048 7.232V15.536C89.9408 14.8 90.4288 14.24 91.0688 13.856C91.7088 13.456 92.4448 13.256 93.2768 13.256ZM91.3808 25.832C92.2608 25.832 92.9168 25.336 93.3488 24.344C93.7808 23.352 93.9968 21.84 93.9968 19.808C93.9968 17.84 93.8128 16.432 93.4448 15.584C93.0768 14.72 92.5488 14.288 91.8608 14.288C91.3488 14.288 90.8768 14.48 90.4448 14.864C90.0288 15.232 89.7488 15.736 89.6048 16.376V25.184C90.1328 25.616 90.7248 25.832 91.3808 25.832ZM102.227 7.4C102.899 7.4 103.427 7.568 103.811 7.904C104.211 8.224 104.411 8.672 104.411 9.248C104.411 9.824 104.211 10.28 103.811 10.616C103.427 10.936 102.899 11.096 102.227 11.096C101.555 11.096 101.019 10.936 100.619 10.616C100.235 10.28 100.043 9.824 100.043 9.248C100.043 8.672 100.235 8.224 100.619 7.904C101.019 7.568 101.555 7.4 102.227 7.4ZM104.099 23.768C104.099 24.424 104.211 24.88 104.435 25.136C104.675 25.376 105.075 25.496 105.635 25.496V26C104.035 25.936 102.971 25.904 102.443 25.904C101.947 25.904 100.835 25.936 99.1073 26V25.496C99.6833 25.496 100.083 25.376 100.307 25.136C100.531 24.88 100.643 24.424 100.643 23.768V16.208C100.643 15.472 100.531 14.936 100.307 14.6C100.083 14.264 99.6833 14.096 99.1073 14.096V13.592C99.6193 13.64 100.115 13.664 100.595 13.664C102.019 13.664 103.187 13.552 104.099 13.328V23.768ZM111.574 23.768C111.574 24.424 111.686 24.88 111.91 25.136C112.134 25.376 112.534 25.496 113.11 25.496V26C111.446 25.936 110.374 25.904 109.894 25.904C109.35 25.904 108.246 25.936 106.582 26V25.496C107.142 25.496 107.534 25.376 107.758 25.136C107.998 24.88 108.118 24.424 108.118 23.768V10.088C108.118 9.352 107.998 8.816 107.758 8.48C107.534 8.144 107.142 7.976 106.582 7.976V7.472C107.094 7.52 107.59 7.544 108.07 7.544C109.462 7.544 110.63 7.432 111.574 7.208V23.768ZM117.251 7.4C117.923 7.4 118.451 7.568 118.835 7.904C119.235 8.224 119.435 8.672 119.435 9.248C119.435 9.824 119.235 10.28 118.835 10.616C118.451 10.936 117.923 11.096 117.251 11.096C116.579 11.096 116.043 10.936 115.643 10.616C115.259 10.28 115.067 9.824 115.067 9.248C115.067 8.672 115.259 8.224 115.643 7.904C116.043 7.568 116.579 7.4 117.251 7.4ZM119.123 23.768C119.123 24.424 119.235 24.88 119.459 25.136C119.699 25.376 120.099 25.496 120.659 25.496V26C119.059 25.936 117.995 25.904 117.467 25.904C116.971 25.904 115.859 25.936 114.131 26V25.496C114.707 25.496 115.107 25.376 115.331 25.136C115.555 24.88 115.667 24.424 115.667 23.768V16.208C115.667 15.472 115.555 14.936 115.331 14.6C115.107 14.264 114.707 14.096 114.131 14.096V13.592C114.643 13.64 115.139 13.664 115.619 13.664C117.043 13.664 118.211 13.552 119.123 13.328V23.768ZM126.573 13.592H129.405V14.072H126.573V23.768C126.573 24.248 126.653 24.592 126.813 24.8C126.989 24.992 127.261 25.088 127.629 25.088C128.317 25.088 128.861 24.608 129.261 23.648L129.669 23.864C129.061 25.512 127.965 26.336 126.381 26.336C125.325 26.336 124.525 26.064 123.981 25.52C123.645 25.184 123.413 24.768 123.285 24.272C123.173 23.76 123.117 23.064 123.117 22.184V14.072H121.101V13.592H123.117V10.424C124.445 10.424 125.597 10.168 126.573 9.656V13.592ZM140.027 13.664C140.827 13.664 141.443 13.64 141.875 13.592V14.072C141.539 14.168 141.235 14.376 140.963 14.696C140.707 15 140.459 15.48 140.219 16.136L135.923 28.208C135.603 29.04 135.251 29.608 134.867 29.912C134.403 30.312 133.707 30.512 132.779 30.512C132.107 30.512 131.499 30.344 130.955 30.008C130.427 29.688 130.163 29.216 130.163 28.592C130.163 28.096 130.339 27.696 130.691 27.392C131.043 27.104 131.507 26.96 132.083 26.96C132.627 26.96 133.059 27.088 133.379 27.344C133.715 27.616 133.883 27.992 133.883 28.472C133.883 28.808 133.779 29.112 133.571 29.384C133.363 29.672 133.067 29.888 132.683 30.032C132.795 30.048 132.979 30.056 133.235 30.056C134.227 30.056 134.955 29.424 135.419 28.16L135.803 27.008L130.715 15.44C130.459 14.896 130.211 14.536 129.971 14.36C129.731 14.184 129.482 14.096 129.226 14.096V13.592C130.283 13.688 131.379 13.736 132.515 13.736C133.459 13.736 134.571 13.688 135.851 13.592V14.096C135.339 14.096 134.955 14.136 134.699 14.216C134.459 14.28 134.339 14.464 134.339 14.768C134.339 14.944 134.395 15.168 134.507 15.44L137.435 22.52L139.091 17.912C139.347 17.16 139.475 16.52 139.475 15.992C139.475 14.824 138.883 14.184 137.699 14.072V13.592C138.451 13.64 139.227 13.664 140.027 13.664Z" fill="#CE8200"/>
</svg>
