<svg width="245" height="139" viewBox="0 0 245 139" fill="none" xmlns="http://www.w3.org/2000/svg">
<path d="M20 27.7L27.7 20L31 23.3L23.3 31L20 27.7Z" stroke="#F66700" stroke-width="2" stroke-linecap="round" stroke-linejoin="round"/>
<path d="M26 20.6875L24.4062 12.7188L9 9L12.7188 24.4062L20.6875 26L26 20.6875Z" stroke="#F66700" stroke-width="2" stroke-linecap="round" stroke-linejoin="round"/>
<path d="M9 9L17 17" stroke="#F66700" stroke-width="2" stroke-linecap="round" stroke-linejoin="round"/>
<path d="M18.5 21C19.8807 21 21 19.8807 21 18.5C21 17.1193 19.8807 16 18.5 16C17.1193 16 16 17.1193 16 18.5C16 19.8807 17.1193 21 18.5 21Z" stroke="#F66700" stroke-width="2" stroke-linecap="round" stroke-linejoin="round"/>
<path d="M53.232 9.008C56.352 9.008 58.688 9.72 60.24 11.144C61.792 12.552 62.568 14.608 62.568 17.312C62.568 19.056 62.184 20.584 61.416 21.896C60.664 23.192 59.568 24.2 58.128 24.92C56.704 25.64 55 26 53.016 26L51.528 25.976C50.6 25.944 49.928 25.928 49.512 25.928C47.864 25.928 46.632 25.952 45.816 26V25.52C46.344 25.488 46.728 25.424 46.968 25.328C47.224 25.232 47.392 25.048 47.472 24.776C47.568 24.504 47.616 24.064 47.616 23.456V11.552C47.616 10.944 47.568 10.504 47.472 10.232C47.392 9.96 47.224 9.776 46.968 9.68C46.728 9.584 46.344 9.52 45.816 9.488V9.008C46.488 9.056 47.456 9.08 48.72 9.08H49.464L50.424 9.056C51.736 9.024 52.672 9.008 53.232 9.008ZM53.208 9.44C52.712 9.44 52.336 9.496 52.08 9.608C51.84 9.72 51.672 9.92 51.576 10.208C51.48 10.496 51.432 10.928 51.432 11.504V23.504C51.432 24.08 51.48 24.512 51.576 24.8C51.672 25.088 51.84 25.288 52.08 25.4C52.336 25.512 52.72 25.568 53.232 25.568C55.168 25.568 56.544 24.896 57.36 23.552C58.176 22.192 58.584 20.144 58.584 17.408C58.584 14.672 58.16 12.664 57.312 11.384C56.48 10.088 55.112 9.44 53.208 9.44ZM71.2648 24.368C72.5768 24.368 73.6328 23.728 74.4328 22.448L74.8648 22.592C74.5448 23.632 73.9688 24.52 73.1368 25.256C72.3208 25.976 71.2968 26.336 70.0648 26.336C68.3688 26.336 67.0168 25.8 66.0088 24.728C65.0168 23.64 64.5208 22.04 64.5208 19.928C64.5208 17.768 65.0568 16.12 66.1288 14.984C67.2008 13.832 68.6248 13.256 70.4008 13.256C73.4088 13.256 74.9128 15.032 74.9128 18.584H68.1688C68.1528 18.824 68.1448 19.2 68.1448 19.712C68.1448 20.768 68.2888 21.648 68.5768 22.352C68.8808 23.056 69.2648 23.568 69.7288 23.888C70.2088 24.208 70.7208 24.368 71.2648 24.368ZM70.2568 13.76C69.6808 13.76 69.2008 14.12 68.8168 14.84C68.4488 15.544 68.2168 16.64 68.1208 18.128H71.8888C71.9208 16.864 71.7928 15.824 71.5048 15.008C71.2328 14.176 70.8168 13.76 70.2568 13.76ZM81.0546 13.256C81.6626 13.256 82.2226 13.336 82.7346 13.496C83.2466 13.64 83.6386 13.808 83.9106 14C84.0706 14.112 84.2146 14.168 84.3426 14.168C84.4866 14.168 84.6066 14.096 84.7026 13.952C84.8146 13.792 84.8866 13.568 84.9186 13.28H85.4226C85.3586 14.096 85.3266 15.504 85.3266 17.504H84.8226C84.6786 16.448 84.3586 15.568 83.8626 14.864C83.3826 14.144 82.6786 13.784 81.7506 13.784C81.2706 13.784 80.8706 13.92 80.5506 14.192C80.2466 14.464 80.0946 14.84 80.0946 15.32C80.0946 15.864 80.2786 16.336 80.6466 16.736C81.0146 17.12 81.5906 17.592 82.3746 18.152L83.0706 18.656C84.0466 19.392 84.7666 20.048 85.2306 20.624C85.6946 21.2 85.9266 21.92 85.9266 22.784C85.9266 23.488 85.7186 24.112 85.3026 24.656C84.9026 25.2 84.3586 25.616 83.6706 25.904C82.9826 26.192 82.2226 26.336 81.3906 26.336C80.5106 26.336 79.7586 26.168 79.1346 25.832C78.6226 25.576 78.2546 25.408 78.0306 25.328C77.8706 25.28 77.7266 25.336 77.5986 25.496C77.4866 25.64 77.3986 25.864 77.3346 26.168H76.8306C76.8946 25.256 76.9266 23.656 76.9266 21.368H77.4306C77.7506 24.312 78.8306 25.784 80.6706 25.784C81.1346 25.784 81.5266 25.648 81.8466 25.376C82.1826 25.088 82.3506 24.656 82.3506 24.08C82.3506 23.632 82.2466 23.232 82.0386 22.88C81.8466 22.528 81.5986 22.216 81.2946 21.944C80.9906 21.672 80.5346 21.296 79.9266 20.816C79.2066 20.24 78.6546 19.776 78.2706 19.424C77.9026 19.072 77.5826 18.656 77.3106 18.176C77.0546 17.696 76.9266 17.16 76.9266 16.568C76.9266 15.544 77.3266 14.736 78.1266 14.144C78.9266 13.552 79.9026 13.256 81.0546 13.256ZM90.5085 7.4C91.1805 7.4 91.7085 7.568 92.0925 7.904C92.4925 8.224 92.6925 8.672 92.6925 9.248C92.6925 9.824 92.4925 10.28 92.0925 10.616C91.7085 10.936 91.1805 11.096 90.5085 11.096C89.8365 11.096 89.3005 10.936 88.9005 10.616C88.5165 10.28 88.3245 9.824 88.3245 9.248C88.3245 8.672 88.5165 8.224 88.9005 7.904C89.3005 7.568 89.8365 7.4 90.5085 7.4ZM92.3805 23.768C92.3805 24.424 92.4925 24.88 92.7165 25.136C92.9565 25.376 93.3565 25.496 93.9165 25.496V26C92.3165 25.936 91.2525 25.904 90.7245 25.904C90.2285 25.904 89.1165 25.936 87.3885 26V25.496C87.9645 25.496 88.3645 25.376 88.5885 25.136C88.8125 24.88 88.9245 24.424 88.9245 23.768V16.208C88.9245 15.472 88.8125 14.936 88.5885 14.6C88.3645 14.264 87.9645 14.096 87.3885 14.096V13.592C87.9005 13.64 88.3965 13.664 88.8765 13.664C90.3005 13.664 91.4685 13.552 92.3805 13.328V23.768ZM106.335 15.896C106.015 15.896 105.743 15.792 105.519 15.584C105.295 15.36 105.183 15.048 105.183 14.648C105.183 14.264 105.279 13.872 105.471 13.472C105.087 13.632 104.767 13.816 104.511 14.024C104.271 14.216 104.063 14.464 103.887 14.768C104.383 15.36 104.631 16.128 104.631 17.072C104.631 18.336 104.191 19.288 103.311 19.928C102.447 20.568 101.295 20.888 99.8548 20.888H99.4228C98.7668 21.272 98.4388 21.696 98.4388 22.16C98.4388 22.672 98.7588 22.928 99.3988 22.928H102.015C103.423 22.928 104.543 23.192 105.375 23.72C106.223 24.232 106.647 25.024 106.647 26.096C106.647 26.912 106.383 27.648 105.855 28.304C105.343 28.976 104.559 29.512 103.503 29.912C102.447 30.312 101.151 30.512 99.6148 30.512C98.0628 30.512 96.8148 30.312 95.8708 29.912C94.9428 29.528 94.4788 28.968 94.4788 28.232C94.4788 27.736 94.7028 27.288 95.1508 26.888C95.5988 26.504 96.2628 26.2 97.1428 25.976L97.3588 26.36C96.7828 26.84 96.4948 27.392 96.4948 28.016C96.4948 28.688 96.7988 29.2 97.4068 29.552C98.0148 29.92 98.8548 30.104 99.9268 30.104C101.047 30.104 101.951 29.88 102.639 29.432C103.343 28.984 103.695 28.352 103.695 27.536C103.695 27.008 103.495 26.592 103.095 26.288C102.711 25.984 102.031 25.832 101.055 25.832H99.5668C98.5428 25.832 97.7428 25.664 97.1668 25.328C96.5908 24.976 96.3028 24.448 96.3028 23.744C96.3028 23.152 96.5108 22.624 96.9268 22.16C97.3428 21.696 97.9748 21.248 98.8228 20.816C97.6708 20.672 96.7588 20.288 96.0868 19.664C95.4148 19.04 95.0788 18.176 95.0788 17.072C95.0788 15.808 95.5108 14.856 96.3748 14.216C97.2548 13.576 98.4148 13.256 99.8548 13.256C101.455 13.256 102.679 13.632 103.527 14.384C103.831 13.952 104.207 13.608 104.655 13.352C105.103 13.096 105.559 12.968 106.023 12.968C106.503 12.968 106.879 13.112 107.151 13.4C107.439 13.672 107.583 14.032 107.583 14.48C107.583 14.928 107.455 15.28 107.199 15.536C106.959 15.776 106.671 15.896 106.335 15.896ZM99.8548 20.456C100.303 20.456 100.639 20.2 100.863 19.688C101.103 19.176 101.223 18.304 101.223 17.072C101.223 15.84 101.103 14.968 100.863 14.456C100.639 13.944 100.303 13.688 99.8548 13.688C99.4068 13.688 99.0628 13.944 98.8228 14.456C98.5988 14.968 98.4868 15.84 98.4868 17.072C98.4868 18.304 98.5988 19.176 98.8228 19.688C99.0628 20.2 99.4068 20.456 99.8548 20.456ZM117.152 13.256C118.368 13.256 119.248 13.568 119.792 14.192C120.064 14.496 120.256 14.888 120.368 15.368C120.48 15.848 120.536 16.496 120.536 17.312V23.768C120.536 24.424 120.648 24.88 120.872 25.136C121.112 25.376 121.512 25.496 122.072 25.496V26C120.472 25.936 119.416 25.904 118.904 25.904C118.424 25.904 117.384 25.936 115.784 26V25.496C116.264 25.496 116.6 25.376 116.792 25.136C116.984 24.88 117.08 24.424 117.08 23.768V16.304C117.08 15.648 116.968 15.152 116.744 14.816C116.536 14.48 116.152 14.312 115.592 14.312C114.936 14.312 114.376 14.584 113.912 15.128C113.448 15.656 113.216 16.312 113.216 17.096V23.768C113.216 24.424 113.312 24.88 113.504 25.136C113.696 25.376 114.032 25.496 114.512 25.496V26C113.04 25.936 112.048 25.904 111.536 25.904C111.056 25.904 109.952 25.936 108.224 26V25.496C108.8 25.496 109.2 25.376 109.424 25.136C109.648 24.88 109.76 24.424 109.76 23.768V16.208C109.76 15.472 109.648 14.936 109.424 14.6C109.2 14.264 108.8 14.096 108.224 14.096V13.592C108.736 13.64 109.232 13.664 109.712 13.664C111.136 13.664 112.304 13.552 113.216 13.328V15.488C113.936 14 115.248 13.256 117.152 13.256Z" fill="#F66700"/>
<path d="M51.174 59.614C51.672 59.614 52.101 59.557 52.461 59.443C52.821 59.329 53.115 59.17 53.343 58.966C53.577 58.756 53.748 58.51 53.856 58.228C53.964 57.94 54.018 57.625 54.018 57.283C54.018 56.617 53.781 56.092 53.307 55.708C52.833 55.318 52.122 55.123 51.174 55.123H48.384V59.614H51.174ZM48.384 49.48V53.881H50.688C51.18 53.881 51.606 53.827 51.966 53.719C52.332 53.611 52.632 53.461 52.866 53.269C53.106 53.077 53.283 52.846 53.397 52.576C53.511 52.3 53.568 52 53.568 51.676C53.568 50.914 53.34 50.359 52.884 50.011C52.428 49.657 51.72 49.48 50.76 49.48H48.384ZM50.76 48.103C51.552 48.103 52.233 48.181 52.803 48.337C53.379 48.493 53.85 48.715 54.216 49.003C54.588 49.291 54.861 49.645 55.035 50.065C55.209 50.479 55.296 50.947 55.296 51.469C55.296 51.787 55.245 52.093 55.143 52.387C55.047 52.675 54.9 52.945 54.702 53.197C54.504 53.449 54.252 53.677 53.946 53.881C53.646 54.079 53.292 54.241 52.884 54.367C53.832 54.547 54.543 54.886 55.017 55.384C55.497 55.876 55.737 56.524 55.737 57.328C55.737 57.874 55.635 58.372 55.431 58.822C55.233 59.272 54.939 59.659 54.549 59.983C54.165 60.307 53.691 60.559 53.127 60.739C52.563 60.913 51.921 61 51.201 61H46.647V48.103H50.76ZM59.2334 53.71C59.5214 53.086 59.8754 52.6 60.2954 52.252C60.7154 51.898 61.2284 51.721 61.8344 51.721C62.0264 51.721 62.2094 51.742 62.3834 51.784C62.5634 51.826 62.7224 51.892 62.8604 51.982L62.7434 53.179C62.7074 53.329 62.6174 53.404 62.4734 53.404C62.3894 53.404 62.2664 53.386 62.1044 53.35C61.9424 53.314 61.7594 53.296 61.5554 53.296C61.2674 53.296 61.0094 53.338 60.7814 53.422C60.5594 53.506 60.3584 53.632 60.1784 53.8C60.0044 53.962 59.8454 54.166 59.7014 54.412C59.5634 54.652 59.4374 54.928 59.3234 55.24V61H57.7124V51.883H58.6304C58.8044 51.883 58.9244 51.916 58.9904 51.982C59.0564 52.048 59.1014 52.162 59.1254 52.324L59.2334 53.71ZM69.0694 56.896C68.3314 56.92 67.7014 56.98 67.1794 57.076C66.6634 57.166 66.2404 57.286 65.9104 57.436C65.5864 57.586 65.3494 57.763 65.1994 57.967C65.0554 58.171 64.9834 58.399 64.9834 58.651C64.9834 58.891 65.0224 59.098 65.1004 59.272C65.1784 59.446 65.2834 59.59 65.4154 59.704C65.5534 59.812 65.7124 59.893 65.8924 59.947C66.0784 59.995 66.2764 60.019 66.4864 60.019C66.7684 60.019 67.0264 59.992 67.2604 59.938C67.4944 59.878 67.7134 59.794 67.9174 59.686C68.1274 59.578 68.3254 59.449 68.5114 59.299C68.7034 59.149 68.8894 58.978 69.0694 58.786V56.896ZM63.8944 53.17C64.3984 52.684 64.9414 52.321 65.5234 52.081C66.1054 51.841 66.7504 51.721 67.4584 51.721C67.9684 51.721 68.4214 51.805 68.8174 51.973C69.2134 52.141 69.5464 52.375 69.8164 52.675C70.0864 52.975 70.2904 53.338 70.4284 53.764C70.5664 54.19 70.6354 54.658 70.6354 55.168V61H69.9244C69.7684 61 69.6484 60.976 69.5644 60.928C69.4804 60.874 69.4144 60.772 69.3664 60.622L69.1864 59.758C68.9464 59.98 68.7124 60.178 68.4844 60.352C68.2564 60.52 68.0164 60.664 67.7644 60.784C67.5124 60.898 67.2424 60.985 66.9544 61.045C66.6724 61.111 66.3574 61.144 66.0094 61.144C65.6554 61.144 65.3224 61.096 65.0104 61C64.6984 60.898 64.4254 60.748 64.1914 60.55C63.9634 60.352 63.7804 60.103 63.6424 59.803C63.5104 59.497 63.4444 59.137 63.4444 58.723C63.4444 58.363 63.5434 58.018 63.7414 57.688C63.9394 57.352 64.2604 57.055 64.7044 56.797C65.1484 56.539 65.7274 56.329 66.4414 56.167C67.1554 55.999 68.0314 55.903 69.0694 55.879V55.168C69.0694 54.46 68.9164 53.926 68.6104 53.566C68.3044 53.2 67.8574 53.017 67.2694 53.017C66.8734 53.017 66.5404 53.068 66.2704 53.17C66.0064 53.266 65.7754 53.377 65.5774 53.503C65.3854 53.623 65.2174 53.734 65.0734 53.836C64.9354 53.932 64.7974 53.98 64.6594 53.98C64.5514 53.98 64.4584 53.953 64.3804 53.899C64.3024 53.839 64.2364 53.767 64.1824 53.683L63.8944 53.17ZM74.7676 51.883V61H73.1656V51.883H74.7676ZM75.1096 49.021C75.1096 49.177 75.0766 49.324 75.0106 49.462C74.9506 49.594 74.8666 49.714 74.7586 49.822C74.6566 49.924 74.5336 50.005 74.3896 50.065C74.2516 50.125 74.1046 50.155 73.9486 50.155C73.7926 50.155 73.6456 50.125 73.5076 50.065C73.3756 50.005 73.2586 49.924 73.1566 49.822C73.0546 49.714 72.9736 49.594 72.9136 49.462C72.8536 49.324 72.8236 49.177 72.8236 49.021C72.8236 48.865 72.8536 48.718 72.9136 48.58C72.9736 48.436 73.0546 48.313 73.1566 48.211C73.2586 48.103 73.3756 48.019 73.5076 47.959C73.6456 47.899 73.7926 47.869 73.9486 47.869C74.1046 47.869 74.2516 47.899 74.3896 47.959C74.5336 48.019 74.6566 48.103 74.7586 48.211C74.8666 48.313 74.9506 48.436 75.0106 48.58C75.0766 48.718 75.1096 48.865 75.1096 49.021ZM78.9119 53.206C79.1099 52.984 79.3199 52.783 79.5419 52.603C79.7639 52.423 79.9979 52.27 80.2439 52.144C80.4959 52.012 80.7599 51.913 81.0359 51.847C81.3179 51.775 81.6209 51.739 81.9449 51.739C82.4429 51.739 82.8809 51.823 83.2589 51.991C83.6429 52.153 83.9609 52.387 84.2129 52.693C84.4709 52.993 84.6659 53.356 84.7979 53.782C84.9299 54.208 84.9959 54.679 84.9959 55.195V61H83.3849V55.195C83.3849 54.505 83.2259 53.971 82.9079 53.593C82.5959 53.209 82.1189 53.017 81.4769 53.017C81.0029 53.017 80.5589 53.131 80.1449 53.359C79.7369 53.587 79.3589 53.896 79.0109 54.286V61H77.3999V51.883H78.3629C78.5909 51.883 78.7319 51.994 78.7859 52.216L78.9119 53.206ZM92.747 53.386C92.675 53.518 92.564 53.584 92.414 53.584C92.324 53.584 92.222 53.551 92.108 53.485C91.994 53.419 91.853 53.347 91.685 53.269C91.523 53.185 91.328 53.11 91.1 53.044C90.872 52.972 90.602 52.936 90.29 52.936C90.02 52.936 89.777 52.972 89.561 53.044C89.345 53.11 89.159 53.203 89.003 53.323C88.853 53.443 88.736 53.584 88.652 53.746C88.574 53.902 88.535 54.073 88.535 54.259C88.535 54.493 88.601 54.688 88.733 54.844C88.871 55 89.051 55.135 89.273 55.249C89.495 55.363 89.747 55.465 90.029 55.555C90.311 55.639 90.599 55.732 90.893 55.834C91.193 55.93 91.484 56.038 91.766 56.158C92.048 56.278 92.3 56.428 92.522 56.608C92.744 56.788 92.921 57.01 93.053 57.274C93.191 57.532 93.26 57.844 93.26 58.21C93.26 58.63 93.185 59.02 93.035 59.38C92.885 59.734 92.663 60.043 92.369 60.307C92.075 60.565 91.715 60.769 91.289 60.919C90.863 61.069 90.371 61.144 89.813 61.144C89.177 61.144 88.601 61.042 88.085 60.838C87.569 60.628 87.131 60.361 86.771 60.037L87.149 59.425C87.197 59.347 87.254 59.287 87.32 59.245C87.386 59.203 87.47 59.182 87.572 59.182C87.68 59.182 87.794 59.224 87.914 59.308C88.034 59.392 88.178 59.485 88.346 59.587C88.52 59.689 88.73 59.782 88.976 59.866C89.222 59.95 89.528 59.992 89.894 59.992C90.206 59.992 90.479 59.953 90.713 59.875C90.947 59.791 91.142 59.68 91.298 59.542C91.454 59.404 91.568 59.245 91.64 59.065C91.718 58.885 91.757 58.693 91.757 58.489C91.757 58.237 91.688 58.03 91.55 57.868C91.418 57.7 91.241 57.559 91.019 57.445C90.797 57.325 90.542 57.223 90.254 57.139C89.972 57.049 89.681 56.956 89.381 56.86C89.087 56.764 88.796 56.656 88.508 56.536C88.226 56.41 87.974 56.254 87.752 56.068C87.53 55.882 87.35 55.654 87.212 55.384C87.08 55.108 87.014 54.775 87.014 54.385C87.014 54.037 87.086 53.704 87.23 53.386C87.374 53.062 87.584 52.78 87.86 52.54C88.136 52.294 88.475 52.099 88.877 51.955C89.279 51.811 89.738 51.739 90.254 51.739C90.854 51.739 91.391 51.835 91.865 52.027C92.345 52.213 92.759 52.471 93.107 52.801L92.747 53.386ZM98.0231 61.144C97.3031 61.144 96.7481 60.943 96.3581 60.541C95.9741 60.139 95.7821 59.56 95.7821 58.804V53.224H94.6841C94.5881 53.224 94.5071 53.197 94.4411 53.143C94.3751 53.083 94.3421 52.993 94.3421 52.873V52.234L95.8361 52.045L96.2051 49.228C96.2231 49.138 96.2621 49.066 96.3221 49.012C96.3881 48.952 96.4721 48.922 96.5741 48.922H97.3841V52.063H100.021V53.224H97.3841V58.696C97.3841 59.08 97.4771 59.365 97.6631 59.551C97.8491 59.737 98.0891 59.83 98.3831 59.83C98.5511 59.83 98.6951 59.809 98.8151 59.767C98.9411 59.719 99.0491 59.668 99.1391 59.614C99.2291 59.56 99.3041 59.512 99.3641 59.47C99.4301 59.422 99.4871 59.398 99.5351 59.398C99.6191 59.398 99.6941 59.449 99.7601 59.551L100.228 60.316C99.9521 60.574 99.6191 60.778 99.2291 60.928C98.8391 61.072 98.4371 61.144 98.0231 61.144ZM105.466 51.739C106.132 51.739 106.732 51.85 107.266 52.072C107.8 52.294 108.256 52.609 108.634 53.017C109.012 53.425 109.3 53.92 109.498 54.502C109.702 55.078 109.804 55.723 109.804 56.437C109.804 57.157 109.702 57.805 109.498 58.381C109.3 58.957 109.012 59.449 108.634 59.857C108.256 60.265 107.8 60.58 107.266 60.802C106.732 61.018 106.132 61.126 105.466 61.126C104.794 61.126 104.188 61.018 103.648 60.802C103.114 60.58 102.658 60.265 102.28 59.857C101.902 59.449 101.611 58.957 101.407 58.381C101.209 57.805 101.11 57.157 101.11 56.437C101.11 55.723 101.209 55.078 101.407 54.502C101.611 53.92 101.902 53.425 102.28 53.017C102.658 52.609 103.114 52.294 103.648 52.072C104.188 51.85 104.794 51.739 105.466 51.739ZM105.466 59.875C106.366 59.875 107.038 59.575 107.482 58.975C107.926 58.369 108.148 57.526 108.148 56.446C108.148 55.36 107.926 54.514 107.482 53.908C107.038 53.302 106.366 52.999 105.466 52.999C105.01 52.999 104.611 53.077 104.269 53.233C103.933 53.389 103.651 53.614 103.423 53.908C103.201 54.202 103.033 54.565 102.919 54.997C102.811 55.423 102.757 55.906 102.757 56.446C102.757 57.526 102.979 58.369 103.423 58.975C103.873 59.575 104.554 59.875 105.466 59.875ZM113.356 53.71C113.644 53.086 113.998 52.6 114.418 52.252C114.838 51.898 115.351 51.721 115.957 51.721C116.149 51.721 116.332 51.742 116.506 51.784C116.686 51.826 116.845 51.892 116.983 51.982L116.866 53.179C116.83 53.329 116.74 53.404 116.596 53.404C116.512 53.404 116.389 53.386 116.227 53.35C116.065 53.314 115.882 53.296 115.678 53.296C115.39 53.296 115.132 53.338 114.904 53.422C114.682 53.506 114.481 53.632 114.301 53.8C114.127 53.962 113.968 54.166 113.824 54.412C113.686 54.652 113.56 54.928 113.446 55.24V61H111.835V51.883H112.753C112.927 51.883 113.047 51.916 113.113 51.982C113.179 52.048 113.224 52.162 113.248 52.324L113.356 53.71ZM118.392 61V51.883H119.355C119.583 51.883 119.724 51.994 119.778 52.216L119.895 53.152C120.231 52.738 120.609 52.399 121.029 52.135C121.449 51.871 121.935 51.739 122.487 51.739C123.099 51.739 123.594 51.91 123.972 52.252C124.356 52.594 124.632 53.056 124.8 53.638C124.932 53.308 125.1 53.023 125.304 52.783C125.514 52.543 125.748 52.345 126.006 52.189C126.264 52.033 126.537 51.919 126.825 51.847C127.119 51.775 127.416 51.739 127.716 51.739C128.196 51.739 128.622 51.817 128.994 51.973C129.372 52.123 129.69 52.345 129.948 52.639C130.212 52.933 130.413 53.296 130.551 53.728C130.689 54.154 130.758 54.643 130.758 55.195V61H129.147V55.195C129.147 54.481 128.991 53.941 128.679 53.575C128.367 53.203 127.917 53.017 127.329 53.017C127.065 53.017 126.813 53.065 126.573 53.161C126.339 53.251 126.132 53.386 125.952 53.566C125.772 53.746 125.628 53.974 125.52 54.25C125.418 54.52 125.367 54.835 125.367 55.195V61H123.756V55.195C123.756 54.463 123.609 53.917 123.315 53.557C123.021 53.197 122.592 53.017 122.028 53.017C121.632 53.017 121.266 53.125 120.93 53.341C120.594 53.551 120.285 53.839 120.003 54.205V61H118.392ZM134.885 51.883V61H133.283V51.883H134.885ZM135.227 49.021C135.227 49.177 135.194 49.324 135.128 49.462C135.068 49.594 134.984 49.714 134.876 49.822C134.774 49.924 134.651 50.005 134.507 50.065C134.369 50.125 134.222 50.155 134.066 50.155C133.91 50.155 133.763 50.125 133.625 50.065C133.493 50.005 133.376 49.924 133.274 49.822C133.172 49.714 133.091 49.594 133.031 49.462C132.971 49.324 132.941 49.177 132.941 49.021C132.941 48.865 132.971 48.718 133.031 48.58C133.091 48.436 133.172 48.313 133.274 48.211C133.376 48.103 133.493 48.019 133.625 47.959C133.763 47.899 133.91 47.869 134.066 47.869C134.222 47.869 134.369 47.899 134.507 47.959C134.651 48.019 134.774 48.103 134.876 48.211C134.984 48.313 135.068 48.436 135.128 48.58C135.194 48.718 135.227 48.865 135.227 49.021ZM139.029 53.206C139.227 52.984 139.437 52.783 139.659 52.603C139.881 52.423 140.115 52.27 140.361 52.144C140.613 52.012 140.877 51.913 141.153 51.847C141.435 51.775 141.738 51.739 142.062 51.739C142.56 51.739 142.998 51.823 143.376 51.991C143.76 52.153 144.078 52.387 144.33 52.693C144.588 52.993 144.783 53.356 144.915 53.782C145.047 54.208 145.113 54.679 145.113 55.195V61H143.502V55.195C143.502 54.505 143.343 53.971 143.025 53.593C142.713 53.209 142.236 53.017 141.594 53.017C141.12 53.017 140.676 53.131 140.262 53.359C139.854 53.587 139.476 53.896 139.128 54.286V61H137.517V51.883H138.48C138.708 51.883 138.849 51.994 138.903 52.216L139.029 53.206ZM150.731 56.545C151.055 56.545 151.34 56.5 151.586 56.41C151.832 56.32 152.039 56.194 152.207 56.032C152.375 55.87 152.501 55.678 152.585 55.456C152.669 55.228 152.711 54.979 152.711 54.709C152.711 54.151 152.54 53.707 152.198 53.377C151.862 53.047 151.373 52.882 150.731 52.882C150.083 52.882 149.588 53.047 149.246 53.377C148.91 53.707 148.742 54.151 148.742 54.709C148.742 54.979 148.784 55.228 148.868 55.456C148.958 55.678 149.087 55.87 149.255 56.032C149.423 56.194 149.63 56.32 149.876 56.41C150.122 56.5 150.407 56.545 150.731 56.545ZM153.62 61.495C153.62 61.273 153.557 61.093 153.431 60.955C153.305 60.817 153.134 60.709 152.918 60.631C152.708 60.553 152.462 60.499 152.18 60.469C151.898 60.433 151.598 60.406 151.28 60.388C150.968 60.37 150.65 60.352 150.326 60.334C150.002 60.316 149.69 60.286 149.39 60.244C149.054 60.4 148.778 60.598 148.562 60.838C148.352 61.072 148.247 61.348 148.247 61.666C148.247 61.87 148.298 62.059 148.4 62.233C148.508 62.413 148.67 62.566 148.886 62.692C149.102 62.824 149.372 62.926 149.696 62.998C150.026 63.076 150.413 63.115 150.857 63.115C151.289 63.115 151.676 63.076 152.018 62.998C152.36 62.92 152.648 62.809 152.882 62.665C153.122 62.521 153.305 62.35 153.431 62.152C153.557 61.954 153.62 61.735 153.62 61.495ZM155.249 52.243V52.837C155.249 53.035 155.123 53.161 154.871 53.215L153.836 53.35C154.04 53.746 154.142 54.184 154.142 54.664C154.142 55.108 154.055 55.513 153.881 55.879C153.713 56.239 153.479 56.548 153.179 56.806C152.879 57.064 152.519 57.262 152.099 57.4C151.679 57.538 151.223 57.607 150.731 57.607C150.305 57.607 149.903 57.556 149.525 57.454C149.333 57.574 149.186 57.703 149.084 57.841C148.982 57.973 148.931 58.108 148.931 58.246C148.931 58.462 149.018 58.627 149.192 58.741C149.372 58.849 149.606 58.927 149.894 58.975C150.182 59.023 150.509 59.053 150.875 59.065C151.247 59.077 151.625 59.098 152.009 59.128C152.399 59.152 152.777 59.197 153.143 59.263C153.515 59.329 153.845 59.437 154.133 59.587C154.421 59.737 154.652 59.944 154.826 60.208C155.006 60.472 155.096 60.814 155.096 61.234C155.096 61.624 154.997 62.002 154.799 62.368C154.607 62.734 154.328 63.058 153.962 63.34C153.596 63.628 153.146 63.856 152.612 64.024C152.084 64.198 151.487 64.285 150.821 64.285C150.155 64.285 149.573 64.219 149.075 64.087C148.577 63.955 148.163 63.778 147.833 63.556C147.503 63.334 147.254 63.076 147.086 62.782C146.924 62.494 146.843 62.191 146.843 61.873C146.843 61.423 146.984 61.042 147.266 60.73C147.548 60.418 147.935 60.169 148.427 59.983C148.157 59.863 147.941 59.704 147.779 59.506C147.623 59.302 147.545 59.029 147.545 58.687C147.545 58.555 147.569 58.42 147.617 58.282C147.665 58.138 147.737 57.997 147.833 57.859C147.935 57.715 148.058 57.58 148.202 57.454C148.346 57.328 148.514 57.217 148.706 57.121C148.256 56.869 147.905 56.536 147.653 56.122C147.401 55.702 147.275 55.216 147.275 54.664C147.275 54.22 147.359 53.818 147.527 53.458C147.701 53.092 147.941 52.783 148.247 52.531C148.553 52.273 148.916 52.075 149.336 51.937C149.762 51.799 150.227 51.73 150.731 51.73C151.127 51.73 151.496 51.775 151.838 51.865C152.18 51.949 152.492 52.075 152.774 52.243H155.249ZM63.36 82.103L59.337 95H57.771L54.504 85.163C54.474 85.067 54.444 84.965 54.414 84.857C54.39 84.749 54.363 84.635 54.333 84.515C54.303 84.635 54.273 84.749 54.243 84.857C54.213 84.965 54.183 85.067 54.153 85.163L50.868 95H49.302L45.279 82.103H46.728C46.884 82.103 47.013 82.142 47.115 82.22C47.223 82.298 47.292 82.397 47.322 82.517L49.986 91.481C50.028 91.643 50.067 91.817 50.103 92.003C50.145 92.189 50.184 92.387 50.22 92.597C50.262 92.387 50.304 92.189 50.346 92.003C50.394 91.811 50.445 91.637 50.499 91.481L53.532 82.517C53.568 82.415 53.637 82.322 53.739 82.238C53.847 82.148 53.976 82.103 54.126 82.103H54.63C54.786 82.103 54.912 82.142 55.008 82.22C55.104 82.298 55.176 82.397 55.224 82.517L58.248 91.481C58.302 91.637 58.35 91.805 58.392 91.985C58.44 92.165 58.485 92.354 58.527 92.552C58.557 92.354 58.59 92.165 58.626 91.985C58.662 91.805 58.701 91.637 58.743 91.481L61.416 82.517C61.446 82.409 61.512 82.313 61.614 82.229C61.722 82.145 61.851 82.103 62.001 82.103H63.36ZM66.5235 85.883V95H64.9215V85.883H66.5235ZM66.8655 83.021C66.8655 83.177 66.8325 83.324 66.7665 83.462C66.7065 83.594 66.6225 83.714 66.5145 83.822C66.4125 83.924 66.2895 84.005 66.1455 84.065C66.0075 84.125 65.8605 84.155 65.7045 84.155C65.5485 84.155 65.4015 84.125 65.2635 84.065C65.1315 84.005 65.0145 83.924 64.9125 83.822C64.8105 83.714 64.7295 83.594 64.6695 83.462C64.6095 83.324 64.5795 83.177 64.5795 83.021C64.5795 82.865 64.6095 82.718 64.6695 82.58C64.7295 82.436 64.8105 82.313 64.9125 82.211C65.0145 82.103 65.1315 82.019 65.2635 81.959C65.4015 81.899 65.5485 81.869 65.7045 81.869C65.8605 81.869 66.0075 81.899 66.1455 81.959C66.2895 82.019 66.4125 82.103 66.5145 82.211C66.6225 82.313 66.7065 82.436 66.7665 82.58C66.8325 82.718 66.8655 82.865 66.8655 83.021ZM70.6767 87.71C70.9647 87.086 71.3187 86.6 71.7387 86.252C72.1587 85.898 72.6717 85.721 73.2777 85.721C73.4697 85.721 73.6527 85.742 73.8267 85.784C74.0067 85.826 74.1657 85.892 74.3037 85.982L74.1867 87.179C74.1507 87.329 74.0607 87.404 73.9167 87.404C73.8327 87.404 73.7097 87.386 73.5477 87.35C73.3857 87.314 73.2027 87.296 72.9987 87.296C72.7107 87.296 72.4527 87.338 72.2247 87.422C72.0027 87.506 71.8017 87.632 71.6217 87.8C71.4477 87.962 71.2887 88.166 71.1447 88.412C71.0067 88.652 70.8807 88.928 70.7667 89.24V95H69.1557V85.883H70.0737C70.2477 85.883 70.3677 85.916 70.4337 85.982C70.4997 86.048 70.5447 86.162 70.5687 86.324L70.6767 87.71ZM81.4452 89.447C81.4452 89.075 81.3912 88.736 81.2832 88.43C81.1812 88.118 81.0282 87.851 80.8242 87.629C80.6262 87.401 80.3832 87.227 80.0952 87.107C79.8072 86.981 79.4802 86.918 79.1142 86.918C78.3462 86.918 77.7372 87.143 77.2872 87.593C76.8432 88.037 76.5672 88.655 76.4592 89.447H81.4452ZM82.7412 93.722C82.5432 93.962 82.3062 94.172 82.0302 94.352C81.7542 94.526 81.4572 94.67 81.1392 94.784C80.8272 94.898 80.5032 94.982 80.1672 95.036C79.8312 95.096 79.4982 95.126 79.1682 95.126C78.5382 95.126 77.9562 95.021 77.4222 94.811C76.8942 94.595 76.4352 94.283 76.0452 93.875C75.6612 93.461 75.3612 92.951 75.1452 92.345C74.9292 91.739 74.8212 91.043 74.8212 90.257C74.8212 89.621 74.9172 89.027 75.1092 88.475C75.3072 87.923 75.5892 87.446 75.9552 87.044C76.3212 86.636 76.7682 86.318 77.2962 86.09C77.8242 85.856 78.4182 85.739 79.0782 85.739C79.6242 85.739 80.1282 85.832 80.5902 86.018C81.0582 86.198 81.4602 86.462 81.7962 86.81C82.1382 87.152 82.4052 87.578 82.5972 88.088C82.7892 88.592 82.8852 89.168 82.8852 89.816C82.8852 90.068 82.8582 90.236 82.8042 90.32C82.7502 90.404 82.6482 90.446 82.4982 90.446H76.4052C76.4232 91.022 76.5012 91.523 76.6392 91.949C76.7832 92.375 76.9812 92.732 77.2332 93.02C77.4852 93.302 77.7852 93.515 78.1332 93.659C78.4812 93.797 78.8712 93.866 79.3032 93.866C79.7052 93.866 80.0502 93.821 80.3382 93.731C80.6322 93.635 80.8842 93.533 81.0942 93.425C81.3042 93.317 81.4782 93.218 81.6162 93.128C81.7602 93.032 81.8832 92.984 81.9852 92.984C82.1172 92.984 82.2192 93.035 82.2912 93.137L82.7412 93.722ZM85.3591 95V87.251L84.3511 87.134C84.2251 87.104 84.1201 87.059 84.0361 86.999C83.9581 86.933 83.9191 86.84 83.9191 86.72V86.063H85.3591V85.181C85.3591 84.659 85.4311 84.197 85.5751 83.795C85.7251 83.387 85.9351 83.045 86.2051 82.769C86.4811 82.487 86.8111 82.274 87.1951 82.13C87.5791 81.986 88.0111 81.914 88.4911 81.914C88.8991 81.914 89.2741 81.974 89.6161 82.094L89.5801 82.895C89.5681 83.039 89.4871 83.117 89.3371 83.129C89.1931 83.141 88.9981 83.147 88.7521 83.147C88.4761 83.147 88.2241 83.183 87.9961 83.255C87.7741 83.327 87.5821 83.444 87.4201 83.606C87.2581 83.768 87.1321 83.981 87.0421 84.245C86.9581 84.509 86.9161 84.836 86.9161 85.226V86.063H89.5441V87.224H86.9701V95H85.3591ZM92.5966 87.71C92.8846 87.086 93.2386 86.6 93.6586 86.252C94.0786 85.898 94.5916 85.721 95.1976 85.721C95.3896 85.721 95.5726 85.742 95.7466 85.784C95.9266 85.826 96.0856 85.892 96.2236 85.982L96.1066 87.179C96.0706 87.329 95.9806 87.404 95.8366 87.404C95.7526 87.404 95.6296 87.386 95.4676 87.35C95.3056 87.314 95.1226 87.296 94.9186 87.296C94.6306 87.296 94.3726 87.338 94.1446 87.422C93.9226 87.506 93.7216 87.632 93.5416 87.8C93.3676 87.962 93.2086 88.166 93.0646 88.412C92.9266 88.652 92.8006 88.928 92.6866 89.24V95H91.0756V85.883H91.9936C92.1676 85.883 92.2876 85.916 92.3536 85.982C92.4196 86.048 92.4646 86.162 92.4886 86.324L92.5966 87.71ZM102.433 90.896C101.695 90.92 101.065 90.98 100.543 91.076C100.027 91.166 99.6037 91.286 99.2737 91.436C98.9497 91.586 98.7127 91.763 98.5627 91.967C98.4187 92.171 98.3467 92.399 98.3467 92.651C98.3467 92.891 98.3857 93.098 98.4637 93.272C98.5417 93.446 98.6467 93.59 98.7787 93.704C98.9167 93.812 99.0757 93.893 99.2557 93.947C99.4417 93.995 99.6397 94.019 99.8497 94.019C100.132 94.019 100.39 93.992 100.624 93.938C100.858 93.878 101.077 93.794 101.281 93.686C101.491 93.578 101.689 93.449 101.875 93.299C102.067 93.149 102.253 92.978 102.433 92.786V90.896ZM97.2577 87.17C97.7617 86.684 98.3047 86.321 98.8867 86.081C99.4687 85.841 100.114 85.721 100.822 85.721C101.332 85.721 101.785 85.805 102.181 85.973C102.577 86.141 102.91 86.375 103.18 86.675C103.45 86.975 103.654 87.338 103.792 87.764C103.93 88.19 103.999 88.658 103.999 89.168V95H103.288C103.132 95 103.012 94.976 102.928 94.928C102.844 94.874 102.778 94.772 102.73 94.622L102.55 93.758C102.31 93.98 102.076 94.178 101.848 94.352C101.62 94.52 101.38 94.664 101.128 94.784C100.876 94.898 100.606 94.985 100.318 95.045C100.036 95.111 99.7207 95.144 99.3727 95.144C99.0187 95.144 98.6857 95.096 98.3737 95C98.0617 94.898 97.7887 94.748 97.5547 94.55C97.3267 94.352 97.1437 94.103 97.0057 93.803C96.8737 93.497 96.8077 93.137 96.8077 92.723C96.8077 92.363 96.9067 92.018 97.1047 91.688C97.3027 91.352 97.6237 91.055 98.0677 90.797C98.5117 90.539 99.0907 90.329 99.8047 90.167C100.519 89.999 101.395 89.903 102.433 89.879V89.168C102.433 88.46 102.28 87.926 101.974 87.566C101.668 87.2 101.221 87.017 100.633 87.017C100.237 87.017 99.9037 87.068 99.6337 87.17C99.3697 87.266 99.1387 87.377 98.9407 87.503C98.7487 87.623 98.5807 87.734 98.4367 87.836C98.2987 87.932 98.1607 87.98 98.0227 87.98C97.9147 87.98 97.8217 87.953 97.7437 87.899C97.6657 87.839 97.5997 87.767 97.5457 87.683L97.2577 87.17ZM106.439 95V85.883H107.402C107.63 85.883 107.771 85.994 107.825 86.216L107.942 87.152C108.278 86.738 108.656 86.399 109.076 86.135C109.496 85.871 109.982 85.739 110.534 85.739C111.146 85.739 111.641 85.91 112.019 86.252C112.403 86.594 112.679 87.056 112.847 87.638C112.979 87.308 113.147 87.023 113.351 86.783C113.561 86.543 113.795 86.345 114.053 86.189C114.311 86.033 114.584 85.919 114.872 85.847C115.166 85.775 115.463 85.739 115.763 85.739C116.243 85.739 116.669 85.817 117.041 85.973C117.419 86.123 117.737 86.345 117.995 86.639C118.259 86.933 118.46 87.296 118.598 87.728C118.736 88.154 118.805 88.643 118.805 89.195V95H117.194V89.195C117.194 88.481 117.038 87.941 116.726 87.575C116.414 87.203 115.964 87.017 115.376 87.017C115.112 87.017 114.86 87.065 114.62 87.161C114.386 87.251 114.179 87.386 113.999 87.566C113.819 87.746 113.675 87.974 113.567 88.25C113.465 88.52 113.414 88.835 113.414 89.195V95H111.803V89.195C111.803 88.463 111.656 87.917 111.362 87.557C111.068 87.197 110.639 87.017 110.075 87.017C109.679 87.017 109.313 87.125 108.977 87.341C108.641 87.551 108.332 87.839 108.05 88.205V95H106.439ZM127.342 89.447C127.342 89.075 127.288 88.736 127.18 88.43C127.078 88.118 126.925 87.851 126.721 87.629C126.523 87.401 126.28 87.227 125.992 87.107C125.704 86.981 125.377 86.918 125.011 86.918C124.243 86.918 123.634 87.143 123.184 87.593C122.74 88.037 122.464 88.655 122.356 89.447H127.342ZM128.638 93.722C128.44 93.962 128.203 94.172 127.927 94.352C127.651 94.526 127.354 94.67 127.036 94.784C126.724 94.898 126.4 94.982 126.064 95.036C125.728 95.096 125.395 95.126 125.065 95.126C124.435 95.126 123.853 95.021 123.319 94.811C122.791 94.595 122.332 94.283 121.942 93.875C121.558 93.461 121.258 92.951 121.042 92.345C120.826 91.739 120.718 91.043 120.718 90.257C120.718 89.621 120.814 89.027 121.006 88.475C121.204 87.923 121.486 87.446 121.852 87.044C122.218 86.636 122.665 86.318 123.193 86.09C123.721 85.856 124.315 85.739 124.975 85.739C125.521 85.739 126.025 85.832 126.487 86.018C126.955 86.198 127.357 86.462 127.693 86.81C128.035 87.152 128.302 87.578 128.494 88.088C128.686 88.592 128.782 89.168 128.782 89.816C128.782 90.068 128.755 90.236 128.701 90.32C128.647 90.404 128.545 90.446 128.395 90.446H122.302C122.32 91.022 122.398 91.523 122.536 91.949C122.68 92.375 122.878 92.732 123.13 93.02C123.382 93.302 123.682 93.515 124.03 93.659C124.378 93.797 124.768 93.866 125.2 93.866C125.602 93.866 125.947 93.821 126.235 93.731C126.529 93.635 126.781 93.533 126.991 93.425C127.201 93.317 127.375 93.218 127.513 93.128C127.657 93.032 127.78 92.984 127.882 92.984C128.014 92.984 128.116 93.035 128.188 93.137L128.638 93.722ZM136.059 87.386C135.987 87.518 135.876 87.584 135.726 87.584C135.636 87.584 135.534 87.551 135.42 87.485C135.306 87.419 135.165 87.347 134.997 87.269C134.835 87.185 134.64 87.11 134.412 87.044C134.184 86.972 133.914 86.936 133.602 86.936C133.332 86.936 133.089 86.972 132.873 87.044C132.657 87.11 132.471 87.203 132.315 87.323C132.165 87.443 132.048 87.584 131.964 87.746C131.886 87.902 131.847 88.073 131.847 88.259C131.847 88.493 131.913 88.688 132.045 88.844C132.183 89 132.363 89.135 132.585 89.249C132.807 89.363 133.059 89.465 133.341 89.555C133.623 89.639 133.911 89.732 134.205 89.834C134.505 89.93 134.796 90.038 135.078 90.158C135.36 90.278 135.612 90.428 135.834 90.608C136.056 90.788 136.233 91.01 136.365 91.274C136.503 91.532 136.572 91.844 136.572 92.21C136.572 92.63 136.497 93.02 136.347 93.38C136.197 93.734 135.975 94.043 135.681 94.307C135.387 94.565 135.027 94.769 134.601 94.919C134.175 95.069 133.683 95.144 133.125 95.144C132.489 95.144 131.913 95.042 131.397 94.838C130.881 94.628 130.443 94.361 130.083 94.037L130.461 93.425C130.509 93.347 130.566 93.287 130.632 93.245C130.698 93.203 130.782 93.182 130.884 93.182C130.992 93.182 131.106 93.224 131.226 93.308C131.346 93.392 131.49 93.485 131.658 93.587C131.832 93.689 132.042 93.782 132.288 93.866C132.534 93.95 132.84 93.992 133.206 93.992C133.518 93.992 133.791 93.953 134.025 93.875C134.259 93.791 134.454 93.68 134.61 93.542C134.766 93.404 134.88 93.245 134.952 93.065C135.03 92.885 135.069 92.693 135.069 92.489C135.069 92.237 135 92.03 134.862 91.868C134.73 91.7 134.553 91.559 134.331 91.445C134.109 91.325 133.854 91.223 133.566 91.139C133.284 91.049 132.993 90.956 132.693 90.86C132.399 90.764 132.108 90.656 131.82 90.536C131.538 90.41 131.286 90.254 131.064 90.068C130.842 89.882 130.662 89.654 130.524 89.384C130.392 89.108 130.326 88.775 130.326 88.385C130.326 88.037 130.398 87.704 130.542 87.386C130.686 87.062 130.896 86.78 131.172 86.54C131.448 86.294 131.787 86.099 132.189 85.955C132.591 85.811 133.05 85.739 133.566 85.739C134.166 85.739 134.703 85.835 135.177 86.027C135.657 86.213 136.071 86.471 136.419 86.801L136.059 87.386ZM50.454 122.79C50.952 122.79 51.39 122.724 51.768 122.592C52.152 122.46 52.473 122.277 52.731 122.043C52.995 121.803 53.193 121.518 53.325 121.188C53.457 120.858 53.523 120.495 53.523 120.099C53.523 119.277 53.268 118.635 52.758 118.173C52.254 117.711 51.486 117.48 50.454 117.48H48.384V122.79H50.454ZM50.454 116.103C51.27 116.103 51.978 116.199 52.578 116.391C53.184 116.577 53.685 116.844 54.081 117.192C54.477 117.54 54.771 117.96 54.963 118.452C55.161 118.944 55.26 119.493 55.26 120.099C55.26 120.699 55.155 121.248 54.945 121.746C54.735 122.244 54.426 122.673 54.018 123.033C53.616 123.393 53.115 123.675 52.515 123.879C51.921 124.077 51.234 124.176 50.454 124.176H48.384V129H46.647V116.103H50.454ZM58.4248 121.71C58.7128 121.086 59.0668 120.6 59.4868 120.252C59.9068 119.898 60.4198 119.721 61.0258 119.721C61.2178 119.721 61.4008 119.742 61.5748 119.784C61.7548 119.826 61.9138 119.892 62.0518 119.982L61.9348 121.179C61.8988 121.329 61.8088 121.404 61.6648 121.404C61.5808 121.404 61.4578 121.386 61.2958 121.35C61.1338 121.314 60.9508 121.296 60.7468 121.296C60.4588 121.296 60.2008 121.338 59.9728 121.422C59.7508 121.506 59.5498 121.632 59.3698 121.8C59.1958 121.962 59.0368 122.166 58.8928 122.412C58.7548 122.652 58.6288 122.928 58.5148 123.24V129H56.9038V119.883H57.8218C57.9958 119.883 58.1158 119.916 58.1818 119.982C58.2478 120.048 58.2928 120.162 58.3168 120.324L58.4248 121.71ZM66.9343 119.739C67.6003 119.739 68.2003 119.85 68.7343 120.072C69.2683 120.294 69.7243 120.609 70.1023 121.017C70.4803 121.425 70.7683 121.92 70.9663 122.502C71.1703 123.078 71.2723 123.723 71.2723 124.437C71.2723 125.157 71.1703 125.805 70.9663 126.381C70.7683 126.957 70.4803 127.449 70.1023 127.857C69.7243 128.265 69.2683 128.58 68.7343 128.802C68.2003 129.018 67.6003 129.126 66.9343 129.126C66.2623 129.126 65.6563 129.018 65.1163 128.802C64.5823 128.58 64.1263 128.265 63.7483 127.857C63.3703 127.449 63.0793 126.957 62.8753 126.381C62.6773 125.805 62.5783 125.157 62.5783 124.437C62.5783 123.723 62.6773 123.078 62.8753 122.502C63.0793 121.92 63.3703 121.425 63.7483 121.017C64.1263 120.609 64.5823 120.294 65.1163 120.072C65.6563 119.85 66.2623 119.739 66.9343 119.739ZM66.9343 127.875C67.8343 127.875 68.5063 127.575 68.9503 126.975C69.3943 126.369 69.6163 125.526 69.6163 124.446C69.6163 123.36 69.3943 122.514 68.9503 121.908C68.5063 121.302 67.8343 120.999 66.9343 120.999C66.4783 120.999 66.0793 121.077 65.7373 121.233C65.4013 121.389 65.1193 121.614 64.8913 121.908C64.6693 122.202 64.5013 122.565 64.3873 122.997C64.2793 123.423 64.2253 123.906 64.2253 124.446C64.2253 125.526 64.4473 126.369 64.8913 126.975C65.3413 127.575 66.0223 127.875 66.9343 127.875ZM75.945 129.144C75.225 129.144 74.67 128.943 74.28 128.541C73.896 128.139 73.704 127.56 73.704 126.804V121.224H72.606C72.51 121.224 72.429 121.197 72.363 121.143C72.297 121.083 72.264 120.993 72.264 120.873V120.234L73.758 120.045L74.127 117.228C74.145 117.138 74.184 117.066 74.244 117.012C74.31 116.952 74.394 116.922 74.496 116.922H75.306V120.063H77.943V121.224H75.306V126.696C75.306 127.08 75.399 127.365 75.585 127.551C75.771 127.737 76.011 127.83 76.305 127.83C76.473 127.83 76.617 127.809 76.737 127.767C76.863 127.719 76.971 127.668 77.061 127.614C77.151 127.56 77.226 127.512 77.286 127.47C77.352 127.422 77.409 127.398 77.457 127.398C77.541 127.398 77.616 127.449 77.682 127.551L78.15 128.316C77.874 128.574 77.541 128.778 77.151 128.928C76.761 129.072 76.359 129.144 75.945 129.144ZM83.3874 119.739C84.0534 119.739 84.6534 119.85 85.1874 120.072C85.7214 120.294 86.1774 120.609 86.5554 121.017C86.9334 121.425 87.2214 121.92 87.4194 122.502C87.6234 123.078 87.7254 123.723 87.7254 124.437C87.7254 125.157 87.6234 125.805 87.4194 126.381C87.2214 126.957 86.9334 127.449 86.5554 127.857C86.1774 128.265 85.7214 128.58 85.1874 128.802C84.6534 129.018 84.0534 129.126 83.3874 129.126C82.7154 129.126 82.1094 129.018 81.5694 128.802C81.0354 128.58 80.5794 128.265 80.2014 127.857C79.8234 127.449 79.5324 126.957 79.3284 126.381C79.1304 125.805 79.0314 125.157 79.0314 124.437C79.0314 123.723 79.1304 123.078 79.3284 122.502C79.5324 121.92 79.8234 121.425 80.2014 121.017C80.5794 120.609 81.0354 120.294 81.5694 120.072C82.1094 119.85 82.7154 119.739 83.3874 119.739ZM83.3874 127.875C84.2874 127.875 84.9594 127.575 85.4034 126.975C85.8474 126.369 86.0694 125.526 86.0694 124.446C86.0694 123.36 85.8474 122.514 85.4034 121.908C84.9594 121.302 84.2874 120.999 83.3874 120.999C82.9314 120.999 82.5324 121.077 82.1904 121.233C81.8544 121.389 81.5724 121.614 81.3444 121.908C81.1224 122.202 80.9544 122.565 80.8404 122.997C80.7324 123.423 80.6784 123.906 80.6784 124.446C80.6784 125.526 80.9004 126.369 81.3444 126.975C81.7944 127.575 82.4754 127.875 83.3874 127.875ZM92.3981 129.144C91.6781 129.144 91.1231 128.943 90.7331 128.541C90.3491 128.139 90.1571 127.56 90.1571 126.804V121.224H89.0591C88.9631 121.224 88.8821 121.197 88.8161 121.143C88.7501 121.083 88.7171 120.993 88.7171 120.873V120.234L90.2111 120.045L90.5801 117.228C90.5981 117.138 90.6371 117.066 90.6971 117.012C90.7631 116.952 90.8471 116.922 90.9491 116.922H91.7591V120.063H94.3961V121.224H91.7591V126.696C91.7591 127.08 91.8521 127.365 92.0381 127.551C92.2241 127.737 92.4641 127.83 92.7581 127.83C92.9261 127.83 93.0701 127.809 93.1901 127.767C93.3161 127.719 93.4241 127.668 93.5141 127.614C93.6041 127.56 93.6791 127.512 93.7391 127.47C93.8051 127.422 93.8621 127.398 93.9101 127.398C93.9941 127.398 94.0691 127.449 94.1351 127.551L94.6031 128.316C94.3271 128.574 93.9941 128.778 93.6041 128.928C93.2141 129.072 92.8121 129.144 92.3981 129.144ZM103.916 119.883L98.8313 131.691C98.7773 131.811 98.7083 131.907 98.6243 131.979C98.5463 132.051 98.4233 132.087 98.2553 132.087H97.0673L98.7323 128.469L94.9703 119.883H96.3563C96.4943 119.883 96.6023 119.919 96.6803 119.991C96.7643 120.057 96.8213 120.132 96.8513 120.216L99.2903 125.958C99.3863 126.21 99.4673 126.474 99.5332 126.75C99.6173 126.468 99.7073 126.201 99.8033 125.949L102.17 120.216C102.206 120.12 102.266 120.042 102.35 119.982C102.44 119.916 102.539 119.883 102.647 119.883H103.916ZM106.943 126.804C107.237 127.2 107.558 127.479 107.906 127.641C108.254 127.803 108.644 127.884 109.076 127.884C109.928 127.884 110.582 127.581 111.038 126.975C111.494 126.369 111.722 125.505 111.722 124.383C111.722 123.789 111.668 123.279 111.56 122.853C111.458 122.427 111.308 122.079 111.11 121.809C110.912 121.533 110.669 121.332 110.381 121.206C110.093 121.08 109.766 121.017 109.4 121.017C108.878 121.017 108.419 121.137 108.023 121.377C107.633 121.617 107.273 121.956 106.943 122.394V126.804ZM106.862 121.296C107.246 120.822 107.69 120.441 108.194 120.153C108.698 119.865 109.274 119.721 109.922 119.721C110.45 119.721 110.927 119.823 111.353 120.027C111.779 120.225 112.142 120.522 112.442 120.918C112.742 121.308 112.973 121.794 113.135 122.376C113.297 122.958 113.378 123.627 113.378 124.383C113.378 125.055 113.288 125.682 113.107 126.264C112.928 126.84 112.667 127.341 112.325 127.767C111.989 128.187 111.575 128.52 111.083 128.766C110.597 129.006 110.048 129.126 109.436 129.126C108.878 129.126 108.398 129.033 107.996 128.847C107.6 128.655 107.249 128.391 106.943 128.055V132.087H105.332V119.883H106.295C106.523 119.883 106.664 119.994 106.718 120.216L106.862 121.296ZM117.113 119.883V129H115.511V119.883H117.113ZM117.455 117.021C117.455 117.177 117.422 117.324 117.356 117.462C117.296 117.594 117.212 117.714 117.104 117.822C117.002 117.924 116.879 118.005 116.735 118.065C116.597 118.125 116.45 118.155 116.294 118.155C116.138 118.155 115.991 118.125 115.853 118.065C115.721 118.005 115.604 117.924 115.502 117.822C115.4 117.714 115.319 117.594 115.259 117.462C115.199 117.324 115.169 117.177 115.169 117.021C115.169 116.865 115.199 116.718 115.259 116.58C115.319 116.436 115.4 116.313 115.502 116.211C115.604 116.103 115.721 116.019 115.853 115.959C115.991 115.899 116.138 115.869 116.294 115.869C116.45 115.869 116.597 115.899 116.735 115.959C116.879 116.019 117.002 116.103 117.104 116.211C117.212 116.313 117.296 116.436 117.356 116.58C117.422 116.718 117.455 116.865 117.455 117.021ZM121.258 121.206C121.456 120.984 121.666 120.783 121.888 120.603C122.11 120.423 122.344 120.27 122.59 120.144C122.842 120.012 123.106 119.913 123.382 119.847C123.664 119.775 123.967 119.739 124.291 119.739C124.789 119.739 125.227 119.823 125.605 119.991C125.989 120.153 126.307 120.387 126.559 120.693C126.817 120.993 127.012 121.356 127.144 121.782C127.276 122.208 127.342 122.679 127.342 123.195V129H125.731V123.195C125.731 122.505 125.572 121.971 125.254 121.593C124.942 121.209 124.465 121.017 123.823 121.017C123.349 121.017 122.905 121.131 122.491 121.359C122.083 121.587 121.705 121.896 121.357 122.286V129H119.746V119.883H120.709C120.937 119.883 121.078 119.994 121.132 120.216L121.258 121.206ZM132.96 124.545C133.284 124.545 133.569 124.5 133.815 124.41C134.061 124.32 134.268 124.194 134.436 124.032C134.604 123.87 134.73 123.678 134.814 123.456C134.898 123.228 134.94 122.979 134.94 122.709C134.94 122.151 134.769 121.707 134.427 121.377C134.091 121.047 133.602 120.882 132.96 120.882C132.312 120.882 131.817 121.047 131.475 121.377C131.139 121.707 130.971 122.151 130.971 122.709C130.971 122.979 131.013 123.228 131.097 123.456C131.187 123.678 131.316 123.87 131.484 124.032C131.652 124.194 131.859 124.32 132.105 124.41C132.351 124.5 132.636 124.545 132.96 124.545ZM135.849 129.495C135.849 129.273 135.786 129.093 135.66 128.955C135.534 128.817 135.363 128.709 135.147 128.631C134.937 128.553 134.691 128.499 134.409 128.469C134.127 128.433 133.827 128.406 133.509 128.388C133.197 128.37 132.879 128.352 132.555 128.334C132.231 128.316 131.919 128.286 131.619 128.244C131.283 128.4 131.007 128.598 130.791 128.838C130.581 129.072 130.476 129.348 130.476 129.666C130.476 129.87 130.527 130.059 130.629 130.233C130.737 130.413 130.899 130.566 131.115 130.692C131.331 130.824 131.601 130.926 131.925 130.998C132.255 131.076 132.642 131.115 133.086 131.115C133.518 131.115 133.905 131.076 134.247 130.998C134.589 130.92 134.877 130.809 135.111 130.665C135.351 130.521 135.534 130.35 135.66 130.152C135.786 129.954 135.849 129.735 135.849 129.495ZM137.478 120.243V120.837C137.478 121.035 137.352 121.161 137.1 121.215L136.065 121.35C136.269 121.746 136.371 122.184 136.371 122.664C136.371 123.108 136.284 123.513 136.11 123.879C135.942 124.239 135.708 124.548 135.408 124.806C135.108 125.064 134.748 125.262 134.328 125.4C133.908 125.538 133.452 125.607 132.96 125.607C132.534 125.607 132.132 125.556 131.754 125.454C131.562 125.574 131.415 125.703 131.313 125.841C131.211 125.973 131.16 126.108 131.16 126.246C131.16 126.462 131.247 126.627 131.421 126.741C131.601 126.849 131.835 126.927 132.123 126.975C132.411 127.023 132.738 127.053 133.104 127.065C133.476 127.077 133.854 127.098 134.238 127.128C134.628 127.152 135.006 127.197 135.372 127.263C135.744 127.329 136.074 127.437 136.362 127.587C136.65 127.737 136.881 127.944 137.055 128.208C137.235 128.472 137.325 128.814 137.325 129.234C137.325 129.624 137.226 130.002 137.028 130.368C136.836 130.734 136.557 131.058 136.191 131.34C135.825 131.628 135.375 131.856 134.841 132.024C134.313 132.198 133.716 132.285 133.05 132.285C132.384 132.285 131.802 132.219 131.304 132.087C130.806 131.955 130.392 131.778 130.062 131.556C129.732 131.334 129.483 131.076 129.315 130.782C129.153 130.494 129.072 130.191 129.072 129.873C129.072 129.423 129.213 129.042 129.495 128.73C129.777 128.418 130.164 128.169 130.656 127.983C130.386 127.863 130.17 127.704 130.008 127.506C129.852 127.302 129.774 127.029 129.774 126.687C129.774 126.555 129.798 126.42 129.846 126.282C129.894 126.138 129.966 125.997 130.062 125.859C130.164 125.715 130.287 125.58 130.431 125.454C130.575 125.328 130.743 125.217 130.935 125.121C130.485 124.869 130.134 124.536 129.882 124.122C129.63 123.702 129.504 123.216 129.504 122.664C129.504 122.22 129.588 121.818 129.756 121.458C129.93 121.092 130.17 120.783 130.476 120.531C130.782 120.273 131.145 120.075 131.565 119.937C131.991 119.799 132.456 119.73 132.96 119.73C133.356 119.73 133.725 119.775 134.067 119.865C134.409 119.949 134.721 120.075 135.003 120.243H137.478Z" fill="#4F4F4F"/>
</svg>
