<svg width="375" height="510" viewBox="0 0 375 510" fill="none" xmlns="http://www.w3.org/2000/svg">
<g clip-path="url(#clip0)">
<rect width="375" height="510" fill="#F2F2F7"/>
<rect y="-318" width="375" height="828" fill="white"/>
<path d="M23.7842 32H25.1787V22.8525H25.27L29.0552 32H30.3169L34.102 22.8525H34.1933V32H35.5879V20.022H33.853L29.7524 30.0161H29.6196L25.519 20.022H23.7842V32ZM41.7272 32.1577C44.2755 32.1577 45.8527 30.3979 45.8527 27.5342V27.5176C45.8527 24.6455 44.2755 22.894 41.7272 22.894C39.1788 22.894 37.6017 24.6455 37.6017 27.5176V27.5342C37.6017 30.3979 39.1788 32.1577 41.7272 32.1577ZM41.7272 30.8794C40.0338 30.8794 39.0792 29.6426 39.0792 27.5342V27.5176C39.0792 25.4009 40.0338 24.1724 41.7272 24.1724C43.4205 24.1724 44.3751 25.4009 44.3751 27.5176V27.5342C44.3751 29.6426 43.4205 30.8794 41.7272 30.8794ZM47.6839 32H49.1282V26.7041C49.1282 25.1353 50.033 24.1724 51.4607 24.1724C52.8885 24.1724 53.5525 24.9443 53.5525 26.5547V32H54.9969V26.2061C54.9969 24.0811 53.8763 22.894 51.8675 22.894C50.5477 22.894 49.7093 23.4502 49.261 24.3965H49.1282V23.0518H47.6839V32ZM60.5053 32.1577C61.7504 32.1577 62.7465 31.5684 63.2944 30.5723H63.4272V32H64.8715V19.499H63.4272V24.4629H63.2944C62.8046 23.5083 61.7338 22.894 60.5053 22.894C58.2309 22.894 56.7534 24.7119 56.7534 27.5176V27.5342C56.7534 30.3232 58.2392 32.1577 60.5053 32.1577ZM60.8374 30.8794C59.2021 30.8794 58.2309 29.6177 58.2309 27.5342V27.5176C58.2309 25.4341 59.2021 24.1724 60.8374 24.1724C62.4643 24.1724 63.4604 25.4507 63.4604 27.5176V27.5342C63.4604 29.6011 62.4643 30.8794 60.8374 30.8794ZM69.691 32.1577C70.8946 32.1577 71.8326 31.6348 72.3971 30.6802H72.5299V32H73.9742V25.874C73.9742 24.0146 72.754 22.894 70.5709 22.894C68.6617 22.894 67.3004 23.8403 67.068 25.2432L67.0597 25.293H68.504L68.5123 25.2681C68.7447 24.5708 69.4503 24.1724 70.5211 24.1724C71.8575 24.1724 72.5299 24.77 72.5299 25.874V26.6875L69.965 26.8452C67.8815 26.9697 66.7028 27.8911 66.7028 29.4849V29.5015C66.7028 31.1284 67.9894 32.1577 69.691 32.1577ZM68.1803 29.4683V29.4517C68.1803 28.5635 68.7779 28.082 70.1393 27.999L72.5299 27.8496V28.6631C72.5299 29.9414 71.4591 30.9043 69.9899 30.9043C68.9523 30.9043 68.1803 30.373 68.1803 29.4683ZM76.6355 35.1377C78.221 35.1377 78.9597 34.5566 79.6985 32.5479L83.1931 23.0518H81.6741L79.2254 30.4146H79.0926L76.6355 23.0518H75.0916L78.4036 32.0083L78.2376 32.5396C77.9138 33.5688 77.4158 33.9424 76.594 33.9424C76.3948 33.9424 76.1707 33.9341 75.9964 33.9009V35.0879C76.1956 35.1211 76.4446 35.1377 76.6355 35.1377ZM83.082 35.0464H84.1528L85.456 30.3232H83.8041L83.082 35.0464ZM91.6834 32H93.2522L94.4558 28.5718H99.2205L100.424 32H101.993L97.5769 20.022H96.0994L91.6834 32ZM96.7717 21.9561H96.9045L98.7805 27.3018H94.8958L96.7717 21.9561ZM106.082 32.1577C107.393 32.1577 108.298 31.6182 108.738 30.6636H108.871V32H110.315V23.0518H108.871V28.3477C108.871 29.9165 108.033 30.8794 106.455 30.8794C105.028 30.8794 104.447 30.1074 104.447 28.4971V23.0518H103.002V28.8457C103.002 30.9624 104.048 32.1577 106.082 32.1577ZM116.289 35.1543C118.729 35.1543 120.273 33.876 120.273 31.8755V23.0518H118.829V24.5293H118.729C118.181 23.5166 117.202 22.894 115.94 22.894C113.599 22.894 112.155 24.7119 112.155 27.2188V27.2354C112.155 29.7422 113.591 31.5352 115.907 31.5352C117.135 31.5352 118.148 30.979 118.712 29.9912H118.845V31.8008C118.845 33.1206 117.891 33.876 116.289 33.876C115.002 33.876 114.205 33.3945 114.047 32.7139L114.039 32.7056H112.545L112.528 32.7139C112.753 34.1831 114.13 35.1543 116.289 35.1543ZM116.222 30.2568C114.562 30.2568 113.632 29.0117 113.632 27.2354V27.2188C113.632 25.4424 114.562 24.1724 116.222 24.1724C117.874 24.1724 118.878 25.4424 118.878 27.2188V27.2354C118.878 29.0117 117.882 30.2568 116.222 30.2568ZM126.915 32H134.668V30.6553H128.991V30.5225L131.713 27.7085C133.88 25.4756 134.469 24.4795 134.469 23.1099V23.0933C134.469 21.1592 132.867 19.7397 130.775 19.7397C128.484 19.7397 126.841 21.2671 126.832 23.3921L126.849 23.4004L128.277 23.4087L128.285 23.3921C128.285 21.981 129.24 21.043 130.676 21.043C132.087 21.043 132.942 21.9893 132.942 23.251V23.2676C132.942 24.3135 132.494 24.936 130.966 26.5879L126.915 30.9707V32ZM136.765 32H144.518V30.6553H138.84V30.5225L141.563 27.7085C143.73 25.4756 144.319 24.4795 144.319 23.1099V23.0933C144.319 21.1592 142.717 19.7397 140.625 19.7397C138.334 19.7397 136.69 21.2671 136.682 23.3921L136.699 23.4004L138.127 23.4087L138.135 23.3921C138.135 21.981 139.089 21.043 140.525 21.043C141.937 21.043 142.792 21.9893 142.792 23.251V23.2676C142.792 24.3135 142.343 24.936 140.816 26.5879L136.765 30.9707V32ZM146.009 35.0464H147.08L148.383 30.3232H146.731L146.009 35.0464ZM155.374 32H163.127V30.6553H157.449V30.5225L160.172 27.7085C162.338 25.4756 162.928 24.4795 162.928 23.1099V23.0933C162.928 21.1592 161.326 19.7397 159.234 19.7397C156.943 19.7397 155.299 21.2671 155.291 23.3921L155.308 23.4004L156.735 23.4087L156.744 23.3921C156.744 21.981 157.698 21.043 159.134 21.043C160.545 21.043 161.4 21.9893 161.4 23.251V23.2676C161.4 24.3135 160.952 24.936 159.425 26.5879L155.374 30.9707V32ZM169.233 32.2822C171.881 32.2822 173.475 29.8667 173.475 26.0151V25.9985C173.475 22.147 171.881 19.7397 169.233 19.7397C166.585 19.7397 165.008 22.147 165.008 25.9985V26.0151C165.008 29.8667 166.585 32.2822 169.233 32.2822ZM169.233 30.979C167.515 30.979 166.51 29.0698 166.51 26.0151V25.9985C166.51 22.9438 167.515 21.0513 169.233 21.0513C170.951 21.0513 171.972 22.9438 171.972 25.9985V26.0151C171.972 29.0698 170.951 30.979 169.233 30.979ZM175.522 32H183.275V30.6553H177.597V30.5225L180.32 27.7085C182.486 25.4756 183.076 24.4795 183.076 23.1099V23.0933C183.076 21.1592 181.473 19.7397 179.382 19.7397C177.091 19.7397 175.447 21.2671 175.439 23.3921L175.455 23.4004L176.883 23.4087L176.891 23.3921C176.891 21.981 177.846 21.043 179.282 21.043C180.693 21.043 181.548 21.9893 181.548 23.251V23.2676C181.548 24.3135 181.1 24.936 179.573 26.5879L175.522 30.9707V32ZM189.381 32.2822C192.029 32.2822 193.623 29.8667 193.623 26.0151V25.9985C193.623 22.147 192.029 19.7397 189.381 19.7397C186.733 19.7397 185.156 22.147 185.156 25.9985V26.0151C185.156 29.8667 186.733 32.2822 189.381 32.2822ZM189.381 30.979C187.663 30.979 186.658 29.0698 186.658 26.0151V25.9985C186.658 22.9438 187.663 21.0513 189.381 21.0513C191.099 21.0513 192.12 22.9438 192.12 25.9985V26.0151C192.12 29.0698 191.099 30.979 189.381 30.979Z" fill="#007AFF"/>
<path d="M130.317 357.223C132.999 357.223 134.965 355.571 134.965 353.335V353.317C134.965 351.415 133.639 350.2 131.69 350.033V349.996C133.36 349.643 134.529 348.511 134.529 346.86V346.841C134.529 344.81 132.85 343.39 130.299 343.39C127.794 343.39 126.068 344.847 125.855 347.027L125.846 347.12H127.451L127.46 347.027C127.599 345.672 128.722 344.837 130.299 344.837C131.932 344.837 132.85 345.645 132.85 347.045V347.064C132.85 348.4 131.737 349.383 130.141 349.383H128.536V350.793H130.215C132.089 350.793 133.268 351.712 133.268 353.354V353.373C133.268 354.792 132.071 355.775 130.317 355.775C128.536 355.775 127.321 354.866 127.191 353.549L127.182 353.456H125.577L125.586 353.567C125.762 355.683 127.553 357.223 130.317 357.223ZM141.699 357.315C144.659 357.315 146.44 354.616 146.44 350.311V350.292C146.44 345.988 144.659 343.297 141.699 343.297C138.74 343.297 136.977 345.988 136.977 350.292V350.311C136.977 354.616 138.74 357.315 141.699 357.315ZM141.699 355.859C139.779 355.859 138.656 353.725 138.656 350.311V350.292C138.656 346.878 139.779 344.763 141.699 344.763C143.62 344.763 144.761 346.878 144.761 350.292V350.311C144.761 353.725 143.62 355.859 141.699 355.859Z" fill="black"/>
<path d="M72.9785 357H81.6435V355.497H75.2978V355.349L78.3408 352.204C80.7622 349.708 81.4209 348.595 81.4209 347.064V347.045C81.4209 344.884 79.6303 343.297 77.2925 343.297C74.7319 343.297 72.895 345.004 72.8857 347.379L72.9043 347.389L74.5 347.398L74.5092 347.379C74.5092 345.802 75.5761 344.754 77.1811 344.754C78.7583 344.754 79.7138 345.812 79.7138 347.222V347.24C79.7138 348.409 79.2129 349.105 77.5058 350.951L72.9785 355.85V357ZM88.3682 343.297C85.6685 343.297 83.6831 345.236 83.6831 347.908V347.927C83.6831 350.497 85.5572 352.408 88.0713 352.408C89.8804 352.408 91.1421 351.434 91.6338 350.339H91.8101C91.8101 350.441 91.8101 350.552 91.8008 350.654C91.6988 353.447 90.7061 355.822 88.2754 355.822C86.9209 355.822 85.9839 355.126 85.5757 354.003L85.5386 353.901H83.8594L83.8872 354.022C84.3418 355.998 86.0117 357.315 88.2569 357.315C91.5039 357.315 93.4058 354.644 93.4058 350.079V350.061C93.4058 345.023 90.8174 343.297 88.3682 343.297ZM88.3589 350.951C86.6241 350.951 85.3623 349.671 85.3623 347.89V347.871C85.3623 346.136 86.7075 344.772 88.3867 344.772C90.0845 344.772 91.4112 346.164 91.4112 347.927V347.936C91.4112 349.68 90.0938 350.951 88.3589 350.951Z" fill="black"/>
<path d="M20.0224 357H28.6875V355.497H22.3418V355.349L25.3847 352.204C27.8061 349.708 28.4648 348.595 28.4648 347.064V347.045C28.4648 344.884 26.6743 343.297 24.3364 343.297C21.7759 343.297 19.9389 345.004 19.9297 347.379L19.9482 347.389L21.5439 347.398L21.5532 347.379C21.5532 345.802 22.6201 344.754 24.2251 344.754C25.8022 344.754 26.7578 345.812 26.7578 347.222V347.24C26.7578 348.409 26.2568 349.105 24.5498 350.951L20.0224 355.85V357ZM35.607 357.223C38.4458 357.223 40.4683 355.627 40.4683 353.382V353.363C40.4683 351.712 39.3086 350.339 37.5923 349.94V349.903C39.0581 349.448 39.9859 348.335 39.9859 346.925V346.906C39.9859 344.884 38.1397 343.39 35.607 343.39C33.0742 343.39 31.2281 344.884 31.2281 346.906V346.925C31.2281 348.335 32.1558 349.448 33.6216 349.903V349.94C31.9053 350.339 30.7456 351.712 30.7456 353.363V353.382C30.7456 355.627 32.7681 357.223 35.607 357.223ZM35.607 349.281C33.9927 349.281 32.8887 348.363 32.8887 347.064V347.045C32.8887 345.747 33.9927 344.828 35.607 344.828C37.2212 344.828 38.3252 345.747 38.3252 347.045V347.064C38.3252 348.363 37.2212 349.281 35.607 349.281ZM35.607 355.766C33.7608 355.766 32.4434 354.727 32.4434 353.28V353.261C32.4434 351.795 33.7515 350.747 35.607 350.747C37.4624 350.747 38.7705 351.795 38.7705 353.261V353.28C38.7705 354.727 37.4532 355.766 35.607 355.766Z" fill="black"/>
<path d="M337.318 308H345.983V306.497H339.637V306.349L342.68 303.204C345.102 300.708 345.76 299.595 345.76 298.064V298.045C345.76 295.884 343.97 294.297 341.632 294.297C339.071 294.297 337.234 296.004 337.225 298.379L337.244 298.389L338.839 298.398L338.849 298.379C338.849 296.802 339.915 295.754 341.52 295.754C343.098 295.754 344.053 296.812 344.053 298.222V298.24C344.053 299.409 343.552 300.105 341.845 301.951L337.318 306.85V308ZM348.885 308H350.639L356.595 296.162V294.613H347.735V296.106H354.897V296.236L348.885 308Z" fill="black"/>
<path d="M283.631 308H292.296V306.497H285.95V306.349L288.993 303.204C291.415 300.708 292.073 299.595 292.073 298.064V298.045C292.073 295.884 290.283 294.297 287.945 294.297C285.384 294.297 283.547 296.004 283.538 298.379L283.557 298.389L285.152 298.398L285.162 298.379C285.162 296.802 286.228 295.754 287.833 295.754C289.411 295.754 290.366 296.812 290.366 298.222V298.24C290.366 299.409 289.865 300.105 288.158 301.951L283.631 306.85V308ZM299.373 308.315C302.073 308.315 304.058 306.376 304.058 303.705V303.686C304.058 301.116 302.184 299.205 299.67 299.205C297.861 299.205 296.599 300.179 296.107 301.274H295.931C295.931 301.172 295.931 301.061 295.94 300.958C296.043 298.166 297.035 295.791 299.466 295.791C300.82 295.791 301.757 296.487 302.166 297.609L302.203 297.711H303.882L303.854 297.591C303.399 295.615 301.73 294.297 299.484 294.297C296.237 294.297 294.335 296.969 294.335 301.534V301.552C294.335 306.59 296.924 308.315 299.373 308.315ZM296.33 303.686V303.677C296.33 301.933 297.647 300.662 299.382 300.662C301.117 300.662 302.379 301.942 302.379 303.723V303.742C302.379 305.477 301.034 306.84 299.355 306.84C297.657 306.84 296.33 305.449 296.33 303.686Z" fill="black"/>
<path d="M231.475 308H240.14V306.497H233.794V306.349L236.837 303.204C239.259 300.708 239.917 299.595 239.917 298.064V298.045C239.917 295.884 238.127 294.297 235.789 294.297C233.228 294.297 231.392 296.004 231.382 298.379L231.401 298.389L232.997 298.398L233.006 298.379C233.006 296.802 234.073 295.754 235.678 295.754C237.255 295.754 238.21 296.812 238.21 298.222V298.24C238.21 299.409 237.709 300.105 236.002 301.951L231.475 306.85V308ZM246.883 308.315C249.602 308.315 251.541 306.432 251.541 303.732V303.714C251.541 301.125 249.731 299.242 247.217 299.242C246.002 299.242 244.954 299.734 244.36 300.634H244.211L244.666 296.106H250.798V294.613H243.349L242.644 302.304H244.091C244.258 301.988 244.471 301.729 244.703 301.506C245.278 300.958 246.039 300.689 246.93 300.689C248.665 300.689 249.908 301.96 249.908 303.742V303.76C249.908 305.569 248.683 306.84 246.902 306.84C245.334 306.84 244.174 305.82 244.017 304.54L244.007 304.465H242.402L242.412 304.567C242.606 306.71 244.388 308.315 246.883 308.315Z" fill="black"/>
<path d="M179.537 308H188.202V306.497H181.856V306.349L184.899 303.204C187.321 300.708 187.979 299.595 187.979 298.064V298.045C187.979 295.884 186.189 294.297 183.851 294.297C181.29 294.297 179.454 296.004 179.444 298.379L179.463 298.389L181.059 298.398L181.068 298.379C181.068 296.802 182.135 295.754 183.74 295.754C185.317 295.754 186.272 296.812 186.272 298.222V298.24C186.272 299.409 185.771 300.105 184.064 301.951L179.537 306.85V308ZM196.383 308H198.016V305.226H199.918V303.732H198.016V294.613H195.595C193.721 297.405 191.67 300.671 189.861 303.705V305.226H196.383V308ZM191.568 303.742V303.63C193.025 301.172 194.778 298.407 196.281 296.162H196.393V303.742H191.568Z" fill="black"/>
<path d="M126.618 308H135.283V306.497H128.937V306.349L131.98 303.204C134.402 300.708 135.061 299.595 135.061 298.064V298.045C135.061 295.884 133.27 294.297 130.932 294.297C128.372 294.297 126.535 296.004 126.525 298.379L126.544 298.389L128.14 298.398L128.149 298.379C128.149 296.802 129.216 295.754 130.821 295.754C132.398 295.754 133.353 296.812 133.353 298.222V298.24C133.353 299.409 132.853 300.105 131.145 301.951L126.618 306.85V308ZM142.184 308.223C144.865 308.223 146.832 306.571 146.832 304.335V304.317C146.832 302.415 145.505 301.2 143.557 301.033V300.996C145.227 300.643 146.396 299.511 146.396 297.86V297.841C146.396 295.81 144.717 294.39 142.166 294.39C139.661 294.39 137.935 295.847 137.722 298.027L137.712 298.12H139.317L139.327 298.027C139.466 296.672 140.588 295.837 142.166 295.837C143.798 295.837 144.717 296.645 144.717 298.045V298.064C144.717 299.4 143.604 300.383 142.008 300.383H140.403V301.793H142.082C143.956 301.793 145.134 302.712 145.134 304.354V304.373C145.134 305.792 143.938 306.775 142.184 306.775C140.403 306.775 139.188 305.866 139.058 304.549L139.048 304.456H137.443L137.453 304.567C137.629 306.683 139.419 308.223 142.184 308.223Z" fill="black"/>
<path d="M73.6181 308H82.2832V306.497H75.9375V306.349L78.9804 303.204C81.4018 300.708 82.0605 299.595 82.0605 298.064V298.045C82.0605 295.884 80.27 294.297 77.9321 294.297C75.3716 294.297 73.5346 296.004 73.5254 298.379L73.5439 298.389L75.1396 298.398L75.1489 298.379C75.1489 296.802 76.2158 295.754 77.8208 295.754C79.3979 295.754 80.3535 296.812 80.3535 298.222V298.24C80.3535 299.409 79.8525 300.105 78.1455 301.951L73.6181 306.85V308ZM84.6289 308H93.294V306.497H86.9483V306.349L89.9912 303.204C92.4126 300.708 93.0713 299.595 93.0713 298.064V298.045C93.0713 295.884 91.2808 294.297 88.9429 294.297C86.3824 294.297 84.5454 296.004 84.5362 298.379L84.5547 298.389L86.1504 298.398L86.1597 298.379C86.1597 296.802 87.2266 295.754 88.8316 295.754C90.4087 295.754 91.3643 296.812 91.3643 298.222V298.24C91.3643 299.409 90.8633 300.105 89.1563 301.951L84.6289 306.85V308Z" fill="black"/>
<circle opacity="0.2" cx="82.9883" cy="301" r="18" fill="#007AFF"/>
<path d="M73.6064 308H82.2715V306.497H75.9258V306.349L78.9687 303.204C81.3901 300.708 82.0488 299.595 82.0488 298.064V298.045C82.0488 295.884 80.2583 294.297 77.9204 294.297C75.3598 294.297 73.5229 296.004 73.5136 298.379L73.5322 298.389L75.1279 298.398L75.1372 298.379C75.1372 296.802 76.2041 295.754 77.8091 295.754C79.3862 295.754 80.3418 296.812 80.3418 298.222V298.24C80.3418 299.409 79.8408 300.105 78.1338 301.951L73.6064 306.85V308ZM84.6172 308H93.2823V306.497H86.9366V306.349L89.9795 303.204C92.4009 300.708 93.0596 299.595 93.0596 298.064V298.045C93.0596 295.884 91.2691 294.297 88.9312 294.297C86.3706 294.297 84.5337 296.004 84.5244 298.379L84.543 298.389L86.1387 298.398L86.148 298.379C86.148 296.802 87.2149 295.754 88.8199 295.754C90.397 295.754 91.3526 296.812 91.3526 298.222V298.24C91.3526 299.409 90.8516 300.105 89.1446 301.951L84.6172 306.85V308Z" fill="#007AFF"/>
<path d="M21.8901 308H30.5551V306.497H24.2094V306.349L27.2524 303.204C29.6738 300.708 30.3325 299.595 30.3325 298.064V298.045C30.3325 295.884 28.542 294.297 26.2041 294.297C23.6435 294.297 21.8066 296.004 21.7973 298.379L21.8159 298.389L23.4116 298.398L23.4209 298.379C23.4209 296.802 24.4878 295.754 26.0927 295.754C27.6699 295.754 28.6255 296.812 28.6255 298.222V298.24C28.6255 299.409 28.1245 300.105 26.4175 301.951L21.8901 306.85V308ZM36.1758 308H37.8457V294.613H36.1851L32.6226 297.173V298.936L36.0274 296.468H36.1758V308Z" fill="black"/>
<path d="M337.243 259H345.908V257.497H339.562V257.349L342.605 254.204C345.026 251.708 345.685 250.595 345.685 249.064V249.045C345.685 246.884 343.895 245.297 341.557 245.297C338.996 245.297 337.159 247.004 337.15 249.379L337.168 249.389L338.764 249.398L338.773 249.379C338.773 247.802 339.84 246.754 341.445 246.754C343.022 246.754 343.978 247.812 343.978 249.222V249.24C343.978 250.409 343.477 251.105 341.77 252.951L337.243 257.85V259ZM352.734 259.315C355.694 259.315 357.475 256.616 357.475 252.311V252.292C357.475 247.988 355.694 245.297 352.734 245.297C349.775 245.297 348.012 247.988 348.012 252.292V252.311C348.012 256.616 349.775 259.315 352.734 259.315ZM352.734 257.859C350.814 257.859 349.691 255.725 349.691 252.311V252.292C349.691 248.878 350.814 246.763 352.734 246.763C354.655 246.763 355.796 248.878 355.796 252.292V252.311C355.796 255.725 354.655 257.859 352.734 257.859Z" fill="black"/>
<path d="M288.939 259H290.609V245.613H288.949L285.386 248.173V249.936L288.791 247.468H288.939V259ZM298.401 245.297C295.701 245.297 293.716 247.236 293.716 249.908V249.927C293.716 252.497 295.59 254.408 298.104 254.408C299.913 254.408 301.175 253.434 301.667 252.339H301.843C301.843 252.441 301.843 252.552 301.834 252.654C301.731 255.447 300.739 257.822 298.308 257.822C296.954 257.822 296.017 257.126 295.608 256.003L295.571 255.901H293.892L293.92 256.022C294.375 257.998 296.044 259.315 298.29 259.315C301.537 259.315 303.439 256.644 303.439 252.079V252.061C303.439 247.023 300.85 245.297 298.401 245.297ZM298.392 252.951C296.657 252.951 295.395 251.671 295.395 249.89V249.871C295.395 248.136 296.74 246.772 298.419 246.772C300.117 246.772 301.444 248.164 301.444 249.927V249.936C301.444 251.68 300.126 252.951 298.392 252.951Z" fill="black"/>
<path d="M235.983 259H237.653V245.613H235.993L232.43 248.173V249.936L235.835 247.468H235.983V259ZM245.64 259.223C248.479 259.223 250.501 257.627 250.501 255.382V255.363C250.501 253.712 249.341 252.339 247.625 251.94V251.903C249.091 251.448 250.019 250.335 250.019 248.925V248.906C250.019 246.884 248.172 245.39 245.64 245.39C243.107 245.39 241.261 246.884 241.261 248.906V248.925C241.261 250.335 242.189 251.448 243.654 251.903V251.94C241.938 252.339 240.778 253.712 240.778 255.363V255.382C240.778 257.627 242.801 259.223 245.64 259.223ZM245.64 251.281C244.025 251.281 242.921 250.363 242.921 249.064V249.045C242.921 247.747 244.025 246.828 245.64 246.828C247.254 246.828 248.358 247.747 248.358 249.045V249.064C248.358 250.363 247.254 251.281 245.64 251.281ZM245.64 257.766C243.793 257.766 242.476 256.727 242.476 255.28V255.261C242.476 253.795 243.784 252.747 245.64 252.747C247.495 252.747 248.803 253.795 248.803 255.261V255.28C248.803 256.727 247.486 257.766 245.64 257.766Z" fill="black"/>
<path d="M184.306 259H185.976V245.613H184.315L180.753 248.173V249.936L184.158 247.468H184.306V259ZM189.945 259H191.699L197.655 247.162V245.613H188.795V247.106H195.957V247.236L189.945 259Z" fill="black"/>
<path d="M131.228 259H132.898V245.613H131.238L127.675 248.173V249.936L131.08 247.468H131.228V259ZM141.043 259.315C143.742 259.315 145.728 257.376 145.728 254.705V254.686C145.728 252.116 143.854 250.205 141.339 250.205C139.53 250.205 138.269 251.179 137.777 252.274H137.601C137.601 252.172 137.601 252.061 137.61 251.958C137.712 249.166 138.705 246.791 141.135 246.791C142.49 246.791 143.427 247.487 143.835 248.609L143.872 248.711H145.551L145.523 248.591C145.069 246.615 143.399 245.297 141.154 245.297C137.907 245.297 136.005 247.969 136.005 252.534V252.552C136.005 257.59 138.593 259.315 141.043 259.315ZM138 254.686V254.677C138 252.933 139.317 251.662 141.052 251.662C142.787 251.662 144.048 252.942 144.048 254.723V254.742C144.048 256.477 142.703 257.84 141.024 257.84C139.326 257.84 138 256.449 138 254.686Z" fill="black"/>
<path d="M78.4634 259H80.1333V245.613H78.4726L74.9101 248.173V249.936L78.3149 247.468H78.4634V259ZM87.9434 259.315C90.6616 259.315 92.6006 257.432 92.6006 254.732V254.714C92.6006 252.125 90.7915 250.242 88.2774 250.242C87.062 250.242 86.0137 250.734 85.4199 251.634H85.2715L85.7261 247.106H91.8584V245.613H84.4087L83.7036 253.304H85.1509C85.3179 252.988 85.5313 252.729 85.7632 252.506C86.3384 251.958 87.0991 251.689 87.9898 251.689C89.7246 251.689 90.9678 252.96 90.9678 254.742V254.76C90.9678 256.569 89.7432 257.84 87.9619 257.84C86.3941 257.84 85.2344 256.82 85.0767 255.54L85.0674 255.465H83.4624L83.4717 255.567C83.6665 257.71 85.4478 259.315 87.9434 259.315Z" fill="black"/>
<path d="M25.2846 259H26.9546V245.613H25.2939L21.7314 248.173V249.936L25.1362 247.468H25.2846V259ZM36.481 259H38.1138V256.226H40.0157V254.732H38.1138V245.613H35.6924C33.8184 248.405 31.7681 251.671 29.959 254.705V256.226H36.481V259ZM31.666 254.742V254.63C33.1226 252.172 34.876 249.407 36.3789 247.162H36.4903V254.742H31.666Z" fill="black"/>
<path d="M341.974 210H343.644V196.613H341.983L338.42 199.173V200.936L341.825 198.468H341.974V210ZM351.611 210.223C354.293 210.223 356.259 208.571 356.259 206.335V206.317C356.259 204.415 354.933 203.2 352.984 203.033V202.996C354.654 202.643 355.823 201.511 355.823 199.86V199.841C355.823 197.81 354.144 196.39 351.593 196.39C349.088 196.39 347.362 197.847 347.149 200.027L347.14 200.12H348.745L348.754 200.027C348.893 198.672 350.016 197.837 351.593 197.837C353.226 197.837 354.144 198.645 354.144 200.045V200.064C354.144 201.4 353.031 202.383 351.435 202.383H349.83V203.793H351.509C353.383 203.793 354.562 204.712 354.562 206.354V206.373C354.562 207.792 353.365 208.775 351.611 208.775C349.83 208.775 348.615 207.866 348.485 206.549L348.476 206.456H346.871L346.88 206.567C347.056 208.683 348.847 210.223 351.611 210.223Z" fill="black"/>
<path d="M288.755 210H290.425V196.613H288.764L285.202 199.173V200.936L288.606 198.468H288.755V210ZM293.837 210H302.502V208.497H296.157V208.349L299.2 205.204C301.621 202.708 302.28 201.595 302.28 200.064V200.045C302.28 197.884 300.489 196.297 298.151 196.297C295.591 196.297 293.754 198.004 293.745 200.379L293.763 200.389L295.359 200.398L295.368 200.379C295.368 198.802 296.435 197.754 298.04 197.754C299.617 197.754 300.573 198.812 300.573 200.222V200.24C300.573 201.409 300.072 202.105 298.365 203.951L293.837 208.85V210Z" fill="black"/>
<path d="M236.246 210H237.915V196.613H236.255L232.692 199.173V200.936L236.097 198.468H236.246V210ZM244.603 210H246.273V196.613H244.612L241.05 199.173V200.936L244.455 198.468H244.603V210Z" fill="black"/>
<path d="M184.231 210H185.901V196.613H184.24L180.678 199.173V200.936L184.082 198.468H184.231V210ZM193.794 210.315C196.754 210.315 198.535 207.616 198.535 203.311V203.292C198.535 198.988 196.754 196.297 193.794 196.297C190.835 196.297 189.072 198.988 189.072 203.292V203.311C189.072 207.616 190.835 210.315 193.794 210.315ZM193.794 208.859C191.874 208.859 190.751 206.725 190.751 203.311V203.292C190.751 199.878 191.874 197.763 193.794 197.763C195.715 197.763 196.856 199.878 196.856 203.292V203.311C196.856 206.725 195.715 208.859 193.794 208.859Z" fill="black"/>
<path d="M136.921 196.297C134.222 196.297 132.236 198.236 132.236 200.908V200.927C132.236 203.497 134.11 205.408 136.625 205.408C138.434 205.408 139.695 204.434 140.187 203.339H140.363C140.363 203.441 140.363 203.552 140.354 203.654C140.252 206.447 139.259 208.822 136.829 208.822C135.474 208.822 134.537 208.126 134.129 207.003L134.092 206.901H132.413L132.44 207.022C132.895 208.998 134.565 210.315 136.81 210.315C140.057 210.315 141.959 207.644 141.959 203.079V203.061C141.959 198.023 139.371 196.297 136.921 196.297ZM136.912 203.951C135.177 203.951 133.916 202.671 133.916 200.89V200.871C133.916 199.136 135.261 197.772 136.94 197.772C138.638 197.772 139.964 199.164 139.964 200.927V200.936C139.964 202.68 138.647 203.951 136.912 203.951Z" fill="black"/>
<path d="M84.1562 210.223C86.9951 210.223 89.0176 208.627 89.0176 206.382V206.363C89.0176 204.712 87.8579 203.339 86.1416 202.94V202.903C87.6074 202.448 88.5352 201.335 88.5352 199.925V199.906C88.5352 197.884 86.689 196.39 84.1562 196.39C81.6235 196.39 79.7773 197.884 79.7773 199.906V199.925C79.7773 201.335 80.7051 202.448 82.1709 202.903V202.94C80.4546 203.339 79.2949 204.712 79.2949 206.363V206.382C79.2949 208.627 81.3174 210.223 84.1562 210.223ZM84.1562 202.281C82.542 202.281 81.438 201.363 81.438 200.064V200.045C81.438 198.747 82.542 197.828 84.1562 197.828C85.7705 197.828 86.8745 198.747 86.8745 200.045V200.064C86.8745 201.363 85.7705 202.281 84.1562 202.281ZM84.1562 208.766C82.3101 208.766 80.9927 207.727 80.9927 206.28V206.261C80.9927 204.795 82.3008 203.747 84.1562 203.747C86.0117 203.747 87.3198 204.795 87.3198 206.261V206.28C87.3198 207.727 86.0024 208.766 84.1562 208.766Z" fill="black"/>
<path d="M27.9658 210H29.7192L35.6753 198.162V196.613H26.8154V198.106H33.9775V198.236L27.9658 210Z" fill="black"/>
<path d="M347.926 161.315C350.626 161.315 352.611 159.376 352.611 156.705V156.686C352.611 154.116 350.737 152.205 348.223 152.205C346.414 152.205 345.152 153.179 344.661 154.274H344.484C344.484 154.172 344.484 154.061 344.494 153.958C344.596 151.166 345.588 148.791 348.019 148.791C349.374 148.791 350.311 149.487 350.719 150.609L350.756 150.711H352.435L352.407 150.591C351.953 148.615 350.283 147.297 348.038 147.297C344.791 147.297 342.889 149.969 342.889 154.534V154.552C342.889 159.59 345.477 161.315 347.926 161.315ZM344.883 156.686V156.677C344.883 154.933 346.201 153.662 347.936 153.662C349.67 153.662 350.932 154.942 350.932 156.723V156.742C350.932 158.477 349.587 159.84 347.908 159.84C346.21 159.84 344.883 158.449 344.883 156.686Z" fill="black"/>
<path d="M293.327 161.315C296.045 161.315 297.984 159.432 297.984 156.732V156.714C297.984 154.125 296.175 152.242 293.661 152.242C292.446 152.242 291.397 152.734 290.804 153.634H290.655L291.11 149.106H297.242V147.613H289.792L289.087 155.304H290.535C290.702 154.988 290.915 154.729 291.147 154.506C291.722 153.958 292.483 153.689 293.374 153.689C295.108 153.689 296.352 154.96 296.352 156.742V156.76C296.352 158.569 295.127 159.84 293.346 159.84C291.778 159.84 290.618 158.82 290.46 157.54L290.451 157.465H288.846L288.855 157.567C289.05 159.71 290.832 161.315 293.327 161.315Z" fill="black"/>
<path d="M188.628 161.223C191.309 161.223 193.276 159.571 193.276 157.335V157.317C193.276 155.415 191.949 154.2 190.001 154.033V153.996C191.671 153.643 192.84 152.511 192.84 150.86V150.841C192.84 148.81 191.161 147.39 188.609 147.39C186.104 147.39 184.379 148.847 184.166 151.027L184.156 151.12H185.761L185.771 151.027C185.91 149.672 187.032 148.837 188.609 148.837C190.242 148.837 191.161 149.645 191.161 151.045V151.064C191.161 152.4 190.047 153.383 188.452 153.383H186.847V154.793H188.526C190.4 154.793 191.578 155.712 191.578 157.354V157.373C191.578 158.792 190.381 159.775 188.628 159.775C186.847 159.775 185.631 158.866 185.501 157.549L185.492 157.456H183.887L183.896 157.567C184.073 159.683 185.863 161.223 188.628 161.223Z" fill="black"/>
<path d="M243.638 161H245.271V158.226H247.173V156.732H245.271V147.613H242.85C240.976 150.405 238.925 153.671 237.116 156.705V158.226H243.638V161ZM238.823 156.742V156.63C240.28 154.172 242.033 151.407 243.536 149.162H243.647V156.742H238.823Z" fill="black"/>
<path d="M131.358 161H140.023V159.497H133.677V159.349L136.72 156.204C139.142 153.708 139.8 152.595 139.8 151.064V151.045C139.8 148.884 138.01 147.297 135.672 147.297C133.111 147.297 131.274 149.004 131.265 151.379L131.284 151.389L132.879 151.398L132.889 151.379C132.889 149.802 133.956 148.754 135.561 148.754C137.138 148.754 138.093 149.812 138.093 151.222V151.24C138.093 152.409 137.592 153.105 135.885 154.951L131.358 159.85V161Z" fill="black"/>
<path d="M83.7251 161H85.395V147.613H83.7344L80.1719 150.173V151.936L83.5767 149.468H83.7251V161Z" fill="black"/>
<path d="M341.75 115.229C343.946 115.229 345.324 114.111 345.324 112.328V112.321C345.324 110.938 344.517 110.163 342.588 109.757L341.604 109.547C340.461 109.306 339.998 108.9 339.998 108.252V108.246C339.998 107.465 340.722 106.989 341.737 106.989C342.785 106.983 343.464 107.491 343.578 108.202L343.591 108.278H345.159L345.152 108.195C345.038 106.723 343.775 105.612 341.744 105.612C339.763 105.612 338.354 106.716 338.354 108.354V108.36C338.354 109.725 339.166 110.601 341.039 110.995L342.023 111.198C343.203 111.452 343.68 111.852 343.68 112.512V112.518C343.68 113.305 342.905 113.851 341.801 113.851C340.639 113.851 339.82 113.343 339.744 112.575L339.738 112.512H338.151L338.157 112.601C338.271 114.181 339.623 115.229 341.75 115.229ZM346.407 115H348.121L348.883 112.632H352.272L353.041 115H354.754L351.504 105.84H349.657L346.407 115ZM350.527 107.542H350.635L351.866 111.369H349.295L350.527 107.542ZM357.514 115H359.151V107.218H361.976V105.84H354.695V107.218H357.514V115Z" fill="#3C3C43" fill-opacity="0.3"/>
<path d="M284.514 115H286.151V111.261H289.992V109.928H286.151V107.218H290.353V105.84H284.514V115ZM292.091 115H293.729V111.553H295.544L297.34 115H299.213L297.213 111.306C298.299 110.912 298.94 109.909 298.94 108.697V108.684C298.94 106.938 297.759 105.84 295.792 105.84H292.091V115ZM293.729 110.296V107.167H295.588C296.629 107.167 297.258 107.764 297.258 108.722V108.735C297.258 109.719 296.655 110.296 295.62 110.296H293.729ZM300.849 115H302.486V105.84H300.849V115Z" fill="#3C3C43" fill-opacity="0.3"/>
<path d="M233.876 115H235.514V107.218H238.338V105.84H231.057V107.218H233.876V115ZM239.974 115H241.612V111.026H246.068V115H247.699V105.84H246.068V109.649H241.612V105.84H239.974V115ZM253.645 115.229C255.975 115.229 257.409 113.864 257.409 111.845V105.84H255.772V111.712C255.772 112.975 255.01 113.813 253.651 113.813C252.287 113.813 251.519 112.975 251.519 111.712V105.84H249.881V111.845C249.881 113.864 251.328 115.229 253.645 115.229Z" fill="#3C3C43" fill-opacity="0.3"/>
<path d="M174.34 115H175.882L177.736 108.443H177.831L179.697 115H181.233L183.69 105.84H181.995L180.427 112.715H180.338L178.51 105.84H177.057L175.254 112.715H175.159L173.591 105.84H171.883L174.34 115ZM185.3 115H191.229V113.623H186.938V111.001H190.994V109.7H186.938V107.218H191.229V105.84H185.3V115ZM193.182 115H196.616C199.359 115 200.926 113.318 200.926 110.385V110.373C200.926 107.503 199.339 105.84 196.616 105.84H193.182V115ZM194.82 113.623V107.218H196.401C198.197 107.218 199.257 108.386 199.257 110.398V110.411C199.257 112.467 198.222 113.623 196.401 113.623H194.82Z" fill="#3C3C43" fill-opacity="0.3"/>
<path d="M124.891 115H126.529V107.218H129.354V105.84H122.073V107.218H124.891V115ZM134.748 115.229C137.077 115.229 138.512 113.864 138.512 111.845V105.84H136.874V111.712C136.874 112.975 136.112 113.813 134.754 113.813C133.389 113.813 132.621 112.975 132.621 111.712V105.84H130.983V111.845C130.983 113.864 132.431 115.229 134.748 115.229ZM140.687 115H146.616V113.623H142.325V111.001H146.381V109.7H142.325V107.218H146.616V105.84H140.687V115Z" fill="#3C3C43" fill-opacity="0.3"/>
<path d="M70.3832 115H71.8622V108.487H71.9701L74.5092 115H75.6263L78.1654 108.487H78.2797V115H79.7523V105.84H77.8734L75.1249 112.886H75.017L72.2621 105.84H70.3832V115ZM85.8823 115.229C88.5547 115.229 90.2114 113.369 90.2114 110.423V110.411C90.2114 107.459 88.5483 105.612 85.8823 105.612C83.2227 105.612 81.5469 107.459 81.5469 110.411V110.423C81.5469 113.369 83.1973 115.229 85.8823 115.229ZM85.8823 113.813C84.2319 113.813 83.2163 112.48 83.2163 110.423V110.411C83.2163 108.341 84.2573 107.027 85.8823 107.027C87.5073 107.027 88.542 108.341 88.542 110.411V110.423C88.542 112.48 87.5137 113.813 85.8823 113.813ZM92.0123 115H93.5929V108.69H93.6945L98.195 115H99.6105V105.84H98.0363V112.15H97.9347L93.4342 105.84H92.0123V115Z" fill="#3C3C43" fill-opacity="0.3"/>
<path d="M24.7709 115.229C26.9672 115.229 28.3446 114.111 28.3446 112.328V112.321C28.3446 110.938 27.5384 110.163 25.6088 109.757L24.6249 109.547C23.4823 109.306 23.0189 108.9 23.0189 108.252V108.246C23.0189 107.465 23.7426 106.989 24.7582 106.989C25.8055 106.983 26.4847 107.491 26.599 108.202L26.6117 108.278H28.1796L28.1732 108.195C28.059 106.723 26.7958 105.612 24.7645 105.612C22.7841 105.612 21.3749 106.716 21.3749 108.354V108.36C21.3749 109.725 22.1874 110.601 24.0599 110.995L25.0438 111.198C26.2245 111.452 26.7006 111.852 26.7006 112.512V112.518C26.7006 113.305 25.9261 113.851 24.8217 113.851C23.66 113.851 22.8412 113.343 22.765 112.575L22.7587 112.512H21.1718L21.1781 112.601C21.2924 114.181 22.6444 115.229 24.7709 115.229ZM33.8652 115.229C36.1948 115.229 37.6294 113.864 37.6294 111.845V105.84H35.9917V111.712C35.9917 112.975 35.23 113.813 33.8716 113.813C32.5068 113.813 31.7388 112.975 31.7388 111.712V105.84H30.1011V111.845C30.1011 113.864 31.5483 115.229 33.8652 115.229ZM39.8048 115H41.3854V108.69H41.4869L45.9874 115H47.403V105.84H45.8287V112.15H45.7272L41.2267 105.84H39.8048V115Z" fill="#3C3C43" fill-opacity="0.3"/>
<path d="M20.5728 84H22.1416L23.3452 80.5718H28.1099L29.3135 84H30.8823L26.4663 72.022H24.9888L20.5728 84ZM25.6611 73.9561H25.7939L27.6699 79.3018H23.7852L25.6611 73.9561ZM34.9713 84.1577C36.2829 84.1577 37.1877 83.6182 37.6276 82.6636H37.7604V84H39.2047V75.0518H37.7604V80.3477C37.7604 81.9165 36.922 82.8794 35.3449 82.8794C33.9171 82.8794 33.3361 82.1074 33.3361 80.4971V75.0518H31.8918V80.8457C31.8918 82.9624 32.9377 84.1577 34.9713 84.1577ZM45.178 87.1543C47.6185 87.1543 49.1624 85.876 49.1624 83.8755V75.0518H47.7181V76.5293H47.6185C47.0706 75.5166 46.0911 74.894 44.8294 74.894C42.4886 74.894 41.0443 76.7119 41.0443 79.2188V79.2354C41.0443 81.7422 42.4803 83.5352 44.7962 83.5352C46.0247 83.5352 47.0374 82.979 47.6019 81.9912H47.7347V83.8008C47.7347 85.1206 46.7801 85.876 45.178 85.876C43.8914 85.876 43.0946 85.3945 42.9368 84.7139L42.9285 84.7056H41.4344L41.4178 84.7139C41.6419 86.1831 43.0198 87.1543 45.178 87.1543ZM45.1116 82.2568C43.4515 82.2568 42.5218 81.0117 42.5218 79.2354V79.2188C42.5218 77.4424 43.4515 76.1724 45.1116 76.1724C46.7635 76.1724 47.7679 77.4424 47.7679 79.2188V79.2354C47.7679 81.0117 46.7718 82.2568 45.1116 82.2568ZM54.4385 84.1577C55.75 84.1577 56.6548 83.6182 57.0947 82.6636H57.2275V84H58.6719V75.0518H57.2275V80.3477C57.2275 81.9165 56.3891 82.8794 54.812 82.8794C53.3843 82.8794 52.8032 82.1074 52.8032 80.4971V75.0518H51.3589V80.8457C51.3589 82.9624 52.4048 84.1577 54.4385 84.1577ZM64.0309 84.1577C66.0646 84.1577 67.6168 83.0537 67.6168 81.46V81.4434C67.6168 80.165 66.8034 79.4346 65.1183 79.0278L63.7404 78.6958C62.6862 78.4385 62.2379 78.0566 62.2379 77.4507V77.4341C62.2379 76.6455 63.0182 76.0977 64.0807 76.0977C65.1598 76.0977 65.8571 76.5874 66.048 77.293H67.4674C67.2682 75.832 65.965 74.894 64.089 74.894C62.1881 74.894 60.7604 76.0146 60.7604 77.5005V77.5088C60.7604 78.7954 61.5158 79.5259 63.1925 79.9243L64.5788 80.2563C65.6828 80.522 66.1393 80.9453 66.1393 81.5513V81.5679C66.1393 82.3813 65.2843 82.9541 64.0807 82.9541C62.9352 82.9541 62.2213 82.4644 61.9806 81.7173H60.5031C60.6691 83.1948 62.0387 84.1577 64.0309 84.1577ZM72.5442 84.0664C72.8265 84.0664 73.1004 84.0332 73.3826 83.9834V82.7549C73.117 82.7798 72.9759 82.7881 72.7186 82.7881C71.7889 82.7881 71.4236 82.3647 71.4236 81.3105V76.2471H73.3826V75.0518H71.4236V72.7358H69.9295V75.0518H68.5184V76.2471H69.9295V81.6758C69.9295 83.3857 70.7015 84.0664 72.5442 84.0664ZM79.4938 84H87.2467V82.6553H81.569V82.5225L84.2916 79.7085C86.4581 77.4756 87.0475 76.4795 87.0475 75.1099V75.0933C87.0475 73.1592 85.4454 71.7397 83.3536 71.7397C81.0626 71.7397 79.4191 73.2671 79.4108 75.3921L79.4274 75.4004L80.8551 75.4087L80.8634 75.3921C80.8634 73.981 81.818 73.043 83.254 73.043C84.6652 73.043 85.5201 73.9893 85.5201 75.251V75.2676C85.5201 76.3135 85.0719 76.936 83.5446 78.5879L79.4938 82.9707V84ZM93.3528 84.2822C96.0008 84.2822 97.5945 81.8667 97.5945 78.0151V77.9985C97.5945 74.147 96.0008 71.7397 93.3528 71.7397C90.7049 71.7397 89.1277 74.147 89.1277 77.9985V78.0151C89.1277 81.8667 90.7049 84.2822 93.3528 84.2822ZM93.3528 82.979C91.6346 82.979 90.6302 81.0698 90.6302 78.0151V77.9985C90.6302 74.9438 91.6346 73.0513 93.3528 73.0513C95.0711 73.0513 96.0921 74.9438 96.0921 77.9985V78.0151C96.0921 81.0698 95.0711 82.979 93.3528 82.979ZM99.6415 84H107.394V82.6553H101.717V82.5225L104.439 79.7085C106.606 77.4756 107.195 76.4795 107.195 75.1099V75.0933C107.195 73.1592 105.593 71.7397 103.501 71.7397C101.21 71.7397 99.5668 73.2671 99.5585 75.3921L99.5751 75.4004L101.003 75.4087L101.011 75.3921C101.011 73.981 101.966 73.043 103.402 73.043C104.813 73.043 105.668 73.9893 105.668 75.251V75.2676C105.668 76.3135 105.22 76.936 103.692 78.5879L99.6415 82.9707V84ZM113.501 84.2822C116.149 84.2822 117.742 81.8667 117.742 78.0151V77.9985C117.742 74.147 116.149 71.7397 113.501 71.7397C110.853 71.7397 109.275 74.147 109.275 77.9985V78.0151C109.275 81.8667 110.853 84.2822 113.501 84.2822ZM113.501 82.979C111.782 82.979 110.778 81.0698 110.778 78.0151V77.9985C110.778 74.9438 111.782 73.0513 113.501 73.0513C115.219 73.0513 116.24 74.9438 116.24 77.9985V78.0151C116.24 81.0698 115.219 82.979 113.501 82.979Z" fill="black"/>
<path d="M143.88 77.917C143.874 77.5806 143.759 77.314 143.486 77.0474L138.707 72.3755C138.503 72.1787 138.269 72.0771 137.977 72.0771C137.393 72.0771 136.91 72.5532 136.91 73.1309C136.91 73.4229 137.031 73.6895 137.253 73.9116L141.392 77.9106L137.253 81.9224C137.031 82.1382 136.91 82.4048 136.91 82.7031C136.91 83.2808 137.393 83.7568 137.977 83.7568C138.262 83.7568 138.503 83.6616 138.707 83.4585L143.486 78.7866C143.759 78.52 143.88 78.2471 143.88 77.917Z" fill="#007AFF"/>
<path d="M307.12 76.083C307.126 76.4194 307.241 76.686 307.514 76.9526L312.293 81.6245C312.497 81.8213 312.731 81.9229 313.023 81.9229C313.607 81.9229 314.09 81.4468 314.09 80.8691C314.09 80.5771 313.969 80.3105 313.747 80.0884L309.608 76.0894L313.747 72.0776C313.969 71.8618 314.09 71.5952 314.09 71.2969C314.09 70.7192 313.607 70.2432 313.023 70.2432C312.738 70.2432 312.497 70.3384 312.293 70.5415L307.514 75.2134C307.241 75.48 307.12 75.7529 307.12 76.083Z" fill="#007AFF"/>
<path d="M356.88 75.917C356.874 75.5806 356.759 75.314 356.486 75.0474L351.707 70.3755C351.503 70.1787 351.269 70.0771 350.977 70.0771C350.393 70.0771 349.91 70.5532 349.91 71.1309C349.91 71.4229 350.031 71.6895 350.253 71.9116L354.392 75.9106L350.253 79.9224C350.031 80.1382 349.91 80.4048 349.91 80.7031C349.91 81.2808 350.393 81.7568 350.977 81.7568C351.262 81.7568 351.503 81.6616 351.707 81.4585L356.486 76.7866C356.759 76.52 356.88 76.2471 356.88 75.917Z" fill="#007AFF"/>
<line x1="15" y1="377.875" x2="360" y2="377.875" stroke="black" stroke-opacity="0.35" stroke-width="0.25"/>
<line x1="15" y1="49.875" x2="360" y2="49.875" stroke="black" stroke-opacity="0.35" stroke-width="0.25"/>
<path d="M17.2604 407H23.0748V405.775H18.6822V402.925H22.84V401.744H18.6822V399.065H23.0748V397.84H17.2604V407ZM26.7907 407H28.257L30.7453 400.106H29.298L27.5842 405.604H27.4763L25.7561 400.106H24.2961L26.7907 407ZM34.677 407.133C36.4417 407.133 37.3938 406.118 37.6223 405.21L37.635 405.153L36.3084 405.159L36.283 405.21C36.1179 405.565 35.5911 406.003 34.7088 406.003C33.5725 406.003 32.8489 405.235 32.8235 403.915H37.7112V403.433C37.7112 401.363 36.5305 399.973 34.6072 399.973C32.6839 399.973 31.4397 401.414 31.4397 403.566V403.572C31.4397 405.756 32.6585 407.133 34.677 407.133ZM34.6136 401.103C35.5467 401.103 36.2386 401.7 36.3465 402.931H32.8426C32.9632 401.744 33.6741 401.103 34.6136 401.103ZM39.2689 407H40.6463V402.957C40.6463 401.846 41.2748 401.154 42.284 401.154C43.2933 401.154 43.7694 401.719 43.7694 402.861V407H45.1405V402.538C45.1405 400.894 44.2899 399.973 42.7474 399.973C41.7445 399.973 41.0843 400.417 40.7479 401.154H40.6463V400.106H39.2689V407ZM49.5864 407.044C49.853 407.044 50.1069 407.013 50.329 406.975V405.876C50.1386 405.896 50.018 405.902 49.8085 405.902C49.1293 405.902 48.85 405.597 48.85 404.854V401.192H50.329V400.106H48.85V398.367H47.4472V400.106H46.3681V401.192H47.4472V405.185C47.4472 406.511 48.0693 407.044 49.5864 407.044ZM54.2608 407.133C55.8985 407.133 57.1172 406.264 57.1172 404.988V404.975C57.1172 403.979 56.4824 403.414 55.1558 403.103L54.064 402.855C53.2896 402.671 52.9722 402.404 52.9722 401.973V401.96C52.9722 401.408 53.5181 401.033 54.2735 401.033C55.0479 401.033 55.5366 401.395 55.6699 401.877V401.89H56.9839V401.884C56.8633 400.76 55.854 399.973 54.2798 399.973C52.7183 399.973 51.6011 400.836 51.6011 402.036V402.042C51.6011 403.052 52.2041 403.642 53.5054 403.94L54.6035 404.194C55.4033 404.378 55.7271 404.67 55.7271 405.102V405.115C55.7271 405.68 55.1367 406.067 54.2861 406.067C53.4673 406.067 52.9658 405.718 52.7944 405.197L52.7881 405.191H51.4107V405.197C51.544 406.353 52.5977 407.133 54.2608 407.133ZM65.0759 407.133C67.0944 407.133 68.3322 405.781 68.3322 403.56V403.547C68.3322 401.325 67.0881 399.973 65.0759 399.973C63.0573 399.973 61.8132 401.332 61.8132 403.547V403.56C61.8132 405.781 63.051 407.133 65.0759 407.133ZM65.0759 405.984C63.8888 405.984 63.2223 405.089 63.2223 403.56V403.547C63.2223 402.017 63.8888 401.122 65.0759 401.122C66.2565 401.122 66.9294 402.017 66.9294 403.547V403.56C66.9294 405.083 66.2565 405.984 65.0759 405.984ZM69.8962 407H71.2737V402.957C71.2737 401.846 71.9021 401.154 72.9114 401.154C73.9207 401.154 74.3967 401.719 74.3967 402.861V407H75.7678V402.538C75.7678 400.894 74.9172 399.973 73.3748 399.973C72.3718 399.973 71.7117 400.417 71.3753 401.154H71.2737V400.106H69.8962V407ZM80.54 407H82.0317L82.8632 404.524H86.3671L87.1923 407H88.6904L85.3832 397.84H83.8471L80.54 407ZM84.558 399.446H84.6659L85.9863 403.382H83.2441L84.558 399.446ZM92 407.133C93.0029 407.133 93.7012 406.702 94.0312 405.959H94.1392V407H95.5103V400.106H94.1392V404.15C94.1392 405.261 93.5488 405.953 92.4443 405.953C91.4351 405.953 91.0161 405.388 91.0161 404.245V400.106H89.6387V404.569C89.6387 406.2 90.4448 407.133 92 407.133ZM100.331 409.431C102.286 409.431 103.524 408.428 103.524 406.86V400.106H102.152V401.236H102.07C101.67 400.462 100.921 399.986 99.9561 399.986C98.1661 399.986 97.0679 401.376 97.0679 403.344V403.356C97.0679 405.299 98.1597 406.664 99.9307 406.664C100.877 406.664 101.638 406.245 102.057 405.496H102.159V406.854C102.159 407.793 101.486 408.327 100.35 408.327C99.4166 408.327 98.858 407.99 98.7437 407.514L98.7374 407.501H97.3472L97.3345 407.514C97.4996 408.663 98.5787 409.431 100.331 409.431ZM100.312 405.527C99.1373 405.527 98.4771 404.632 98.4771 403.35V403.337C98.4771 402.055 99.1373 401.154 100.312 401.154C101.473 401.154 102.184 402.055 102.184 403.337V403.35C102.184 404.639 101.48 405.527 100.312 405.527ZM108.899 407H115.069V405.788H110.835V405.661L112.777 403.725C114.44 402.074 114.923 401.274 114.923 400.233V400.214C114.923 398.704 113.666 397.618 111.958 397.618C110.117 397.618 108.822 398.799 108.816 400.475L108.829 400.487H110.162L110.168 400.468C110.168 399.465 110.854 398.792 111.882 398.792C112.885 398.792 113.501 399.453 113.501 400.348V400.367C113.501 401.109 113.152 401.579 111.939 402.842L108.899 406.035V407ZM116.855 407H123.025V405.788H118.791V405.661L120.733 403.725C122.396 402.074 122.879 401.274 122.879 400.233V400.214C122.879 398.704 121.622 397.618 119.914 397.618C118.074 397.618 116.779 398.799 116.772 400.475L116.785 400.487H118.118L118.124 400.468C118.124 399.465 118.81 398.792 119.838 398.792C120.841 398.792 121.457 399.453 121.457 400.348V400.367C121.457 401.109 121.108 401.579 119.895 402.842L116.855 406.035V407ZM124.405 409.38H125.376L126.43 405.654H124.963L124.405 409.38ZM132.141 407H138.311V405.788H134.077V405.661L136.02 403.725C137.683 402.074 138.165 401.274 138.165 400.233V400.214C138.165 398.704 136.908 397.618 135.201 397.618C133.36 397.618 132.065 398.799 132.059 400.475L132.071 400.487H133.404L133.411 400.468C133.411 399.465 134.096 398.792 135.125 398.792C136.127 398.792 136.743 399.453 136.743 400.348V400.367C136.743 401.109 136.394 401.579 135.182 402.842L132.141 406.035V407ZM143.328 407.222C145.436 407.222 146.712 405.375 146.712 402.423V402.411C146.712 399.459 145.436 397.618 143.328 397.618C141.214 397.618 139.945 399.459 139.945 402.411V402.423C139.945 405.375 141.214 407.222 143.328 407.222ZM143.328 406.042C142.097 406.042 141.38 404.664 141.38 402.423V402.411C141.38 400.17 142.097 398.805 143.328 398.805C144.553 398.805 145.277 400.17 145.277 402.411V402.423C145.277 404.664 144.553 406.042 143.328 406.042ZM148.46 407H154.63V405.788H150.396V405.661L152.338 403.725C154.001 402.074 154.484 401.274 154.484 400.233V400.214C154.484 398.704 153.227 397.618 151.519 397.618C149.678 397.618 148.384 398.799 148.377 400.475L148.39 400.487H149.723L149.729 400.468C149.729 399.465 150.415 398.792 151.443 398.792C152.446 398.792 153.062 399.453 153.062 400.348V400.367C153.062 401.109 152.713 401.579 151.5 402.842L148.46 406.035V407ZM159.647 407.222C161.754 407.222 163.03 405.375 163.03 402.423V402.411C163.03 399.459 161.754 397.618 159.647 397.618C157.533 397.618 156.263 399.459 156.263 402.411V402.423C156.263 405.375 157.533 407.222 159.647 407.222ZM159.647 406.042C158.415 406.042 157.698 404.664 157.698 402.423V402.411C157.698 400.17 158.415 398.805 159.647 398.805C160.872 398.805 161.596 400.17 161.596 402.411V402.423C161.596 404.664 160.872 406.042 159.647 406.042ZM165.838 402.296C166.365 402.296 166.765 401.89 166.765 401.376C166.765 400.855 166.365 400.449 165.838 400.449C165.311 400.449 164.905 400.855 164.905 401.376C164.905 401.89 165.311 402.296 165.838 402.296ZM165.838 407.095C166.365 407.095 166.765 406.689 166.765 406.175C166.765 405.654 166.365 405.248 165.838 405.248C165.311 405.248 164.905 405.654 164.905 406.175C164.905 406.689 165.311 407.095 165.838 407.095Z" fill="#007AFF"/>
<rect x="19" y="426" width="5" height="20" fill="black"/>
<path d="M40.5364 441.222C42.6692 441.222 44.034 440.13 44.034 438.378V438.372C44.034 437.014 43.2469 436.239 41.3235 435.827L40.3269 435.604C39.1399 435.351 38.6575 434.906 38.6575 434.227V434.221C38.6575 433.357 39.451 432.856 40.5237 432.856C41.6346 432.85 42.3518 433.396 42.4724 434.145L42.4851 434.227H43.8626L43.8562 434.138C43.7547 432.716 42.4851 431.618 40.5428 431.618C38.6004 431.618 37.2293 432.71 37.2229 434.291V434.297C37.2229 435.649 38.0227 436.512 39.8826 436.906L40.8855 437.122C42.0979 437.382 42.593 437.839 42.593 438.543V438.55C42.593 439.4 41.7615 439.984 40.5935 439.984C39.3684 439.984 38.4861 439.451 38.4099 438.62L38.4036 438.55H37.0071L37.0135 438.632C37.1404 440.175 38.4671 441.222 40.5364 441.222ZM48.2704 441.044C48.537 441.044 48.7909 441.013 49.013 440.975V439.876C48.8226 439.896 48.702 439.902 48.4925 439.902C47.8133 439.902 47.534 439.597 47.534 438.854V435.192H49.013V434.106H47.534V432.367H46.1312V434.106H45.0521V435.192H46.1312V439.185C46.1312 440.511 46.7533 441.044 48.2704 441.044ZM52.4306 441.114C53.3447 441.114 54.0683 440.721 54.4746 440.022H54.5825V441H55.9472V436.284C55.9472 434.836 54.9697 433.973 53.2368 433.973C51.6689 433.973 50.5834 434.729 50.4184 435.858L50.4121 435.903H51.7387L51.7451 435.877C51.9101 435.389 52.4116 435.109 53.1733 435.109C54.1064 435.109 54.5825 435.528 54.5825 436.284V436.893L52.7163 437.001C51.0722 437.103 50.1455 437.82 50.1455 439.051V439.064C50.1455 440.314 51.1166 441.114 52.4306 441.114ZM51.5165 439.007V438.994C51.5165 438.372 51.9482 438.029 52.9003 437.972L54.5825 437.864V438.455C54.5825 439.343 53.8271 440.016 52.7988 440.016C52.0561 440.016 51.5165 439.642 51.5165 439.007ZM57.8731 441H59.2505V438.493L59.8408 437.902L62.2149 441H63.8906L60.8247 437.014L63.7002 434.106H62.0879L59.3521 437.014H59.2505V431.402H57.8731V441ZM67.6065 441.133C69.3712 441.133 70.3233 440.118 70.5519 439.21L70.5646 439.153L69.2379 439.159L69.2125 439.21C69.0475 439.565 68.5206 440.003 67.6383 440.003C66.5021 440.003 65.7784 439.235 65.753 437.915H70.6407V437.433C70.6407 435.363 69.4601 433.973 67.5367 433.973C65.6134 433.973 64.3692 435.414 64.3692 437.566V437.572C64.3692 439.756 65.588 441.133 67.6065 441.133ZM67.5431 435.103C68.4762 435.103 69.1681 435.7 69.276 436.931H65.7721C65.8927 435.744 66.6036 435.103 67.5431 435.103ZM72.2619 441H73.6393V436.957C73.6393 435.846 74.2678 435.154 75.277 435.154C76.2863 435.154 76.7624 435.719 76.7624 436.861V441H78.1335V436.538C78.1335 434.894 77.2829 433.973 75.7404 433.973C74.7375 433.973 74.0773 434.417 73.7409 435.154H73.6393V431.402H72.2619V441ZM82.8967 441.133C84.9153 441.133 86.1531 439.781 86.1531 437.56V437.547C86.1531 435.325 84.9089 433.973 82.8967 433.973C80.8782 433.973 79.634 435.332 79.634 437.547V437.56C79.634 439.781 80.8718 441.133 82.8967 441.133ZM82.8967 439.984C81.7097 439.984 81.0432 439.089 81.0432 437.56V437.547C81.0432 436.017 81.7097 435.122 82.8967 435.122C84.0774 435.122 84.7503 436.017 84.7503 437.547V437.56C84.7503 439.083 84.0774 439.984 82.8967 439.984ZM87.7806 441H89.158V431.402H87.7806V441ZM93.642 441.114C94.6069 441.114 95.3622 440.67 95.7621 439.915H95.87V441H97.2411V431.402H95.87V435.198H95.7621C95.394 434.456 94.5878 433.986 93.642 433.986C91.8901 433.986 90.7856 435.363 90.7856 437.547V437.56C90.7856 439.724 91.9091 441.114 93.642 441.114ZM94.0356 439.94C92.8803 439.94 92.1884 439.039 92.1884 437.56V437.547C92.1884 436.068 92.8803 435.167 94.0356 435.167C95.1781 435.167 95.8891 436.074 95.8891 437.547V437.56C95.8891 439.032 95.1845 439.94 94.0356 439.94ZM102.106 441.133C103.871 441.133 104.823 440.118 105.051 439.21L105.064 439.153L103.737 439.159L103.712 439.21C103.547 439.565 103.02 440.003 102.138 440.003C101.001 440.003 100.278 439.235 100.252 437.915H105.14V437.433C105.14 435.363 103.959 433.973 102.036 433.973C100.113 433.973 98.8687 435.414 98.8687 437.566V437.572C98.8687 439.756 100.087 441.133 102.106 441.133ZM102.042 435.103C102.976 435.103 103.667 435.7 103.775 436.931H100.271C100.392 435.744 101.103 435.103 102.042 435.103ZM106.698 441H108.075V436.88C108.075 435.884 108.793 435.236 109.846 435.236C110.107 435.236 110.341 435.268 110.589 435.319V434.049C110.449 434.018 110.208 433.986 109.986 433.986C109.066 433.986 108.424 434.417 108.177 435.147H108.075V434.106H106.698V441ZM115.456 441H116.751V434.278H116.853L119.538 441H120.592L123.283 434.278H123.378V441H124.673V431.84H123.035L120.115 439.146H120.014L117.094 431.84H115.456V441ZM129.627 441.133C131.391 441.133 132.344 440.118 132.572 439.21L132.585 439.153L131.258 439.159L131.233 439.21C131.068 439.565 130.541 440.003 129.659 440.003C128.522 440.003 127.799 439.235 127.773 437.915H132.661V437.433C132.661 435.363 131.48 433.973 129.557 433.973C127.634 433.973 126.389 435.414 126.389 437.566V437.572C126.389 439.756 127.608 441.133 129.627 441.133ZM129.563 435.103C130.496 435.103 131.188 435.7 131.296 436.931H127.792C127.913 435.744 128.624 435.103 129.563 435.103ZM137.113 441.133C138.878 441.133 139.83 440.118 140.058 439.21L140.071 439.153L138.745 439.159L138.719 439.21C138.554 439.565 138.027 440.003 137.145 440.003C136.009 440.003 135.285 439.235 135.26 437.915H140.147V437.433C140.147 435.363 138.967 433.973 137.043 433.973C135.12 433.973 133.876 435.414 133.876 437.566V437.572C133.876 439.756 135.095 441.133 137.113 441.133ZM137.05 435.103C137.983 435.103 138.675 435.7 138.783 436.931H135.279C135.399 435.744 136.11 435.103 137.05 435.103ZM144.308 441.044C144.574 441.044 144.828 441.013 145.05 440.975V439.876C144.86 439.896 144.739 439.902 144.53 439.902C143.851 439.902 143.571 439.597 143.571 438.854V435.192H145.05V434.106H143.571V432.367H142.168V434.106H141.089V435.192H142.168V439.185C142.168 440.511 142.791 441.044 144.308 441.044ZM147.294 432.875C147.763 432.875 148.157 432.488 148.157 432.018C148.157 431.542 147.763 431.155 147.294 431.155C146.817 431.155 146.43 431.542 146.43 432.018C146.43 432.488 146.817 432.875 147.294 432.875ZM146.602 441H147.973V434.106H146.602V441ZM149.899 441H151.276V436.957C151.276 435.846 151.904 435.154 152.914 435.154C153.923 435.154 154.399 435.719 154.399 436.861V441H155.77V436.538C155.77 434.894 154.92 433.973 153.377 433.973C152.374 433.973 151.714 434.417 151.378 435.154H151.276V434.106H149.899V441ZM160.527 443.431C162.482 443.431 163.72 442.428 163.72 440.86V434.106H162.349V435.236H162.266C161.866 434.462 161.117 433.986 160.153 433.986C158.363 433.986 157.264 435.376 157.264 437.344V437.356C157.264 439.299 158.356 440.664 160.127 440.664C161.073 440.664 161.835 440.245 162.254 439.496H162.355V440.854C162.355 441.793 161.682 442.327 160.546 442.327C159.613 442.327 159.054 441.99 158.94 441.514L158.934 441.501H157.544L157.531 441.514C157.696 442.663 158.775 443.431 160.527 443.431ZM160.508 439.527C159.334 439.527 158.674 438.632 158.674 437.35V437.337C158.674 436.055 159.334 435.154 160.508 435.154C161.67 435.154 162.381 436.055 162.381 437.337V437.35C162.381 438.639 161.676 439.527 160.508 439.527Z" fill="black"/>
<path d="M218.73 441H220.152V431.84H218.73L216.318 433.554V434.951L218.622 433.307H218.73V441ZM222.668 441H228.838V439.788H224.604V439.661L226.547 437.725C228.21 436.074 228.692 435.274 228.692 434.233V434.214C228.692 432.704 227.435 431.618 225.728 431.618C223.887 431.618 222.592 432.799 222.586 434.475L222.598 434.487H223.931L223.938 434.468C223.938 433.465 224.623 432.792 225.652 432.792C226.654 432.792 227.27 433.453 227.27 434.348V434.367C227.27 435.109 226.921 435.579 225.709 436.842L222.668 440.035V441ZM234.258 441H235.679V437.871H237.825C239.621 437.871 240.866 436.646 240.866 434.855V434.843C240.866 433.046 239.621 431.84 237.825 431.84H234.258V441ZM237.47 433.04C238.701 433.04 239.418 433.707 239.418 434.849V434.862C239.418 436.011 238.701 436.677 237.47 436.677H235.679V433.04H237.47ZM242.62 441H243.915V434.278H244.016L246.702 441H247.755L250.447 434.278H250.542V441H251.837V431.84H250.199L247.279 439.146H247.178L244.258 431.84H242.62V441ZM257.352 437.94H261.598V436.677H257.352V437.94ZM269.201 441H270.623V431.84H269.201L266.789 433.554V434.951L269.093 433.307H269.201V441ZM276.773 441H278.195V437.871H280.34C282.137 437.871 283.381 436.646 283.381 434.855V434.843C283.381 433.046 282.137 431.84 280.34 431.84H276.773V441ZM279.985 433.04C281.216 433.04 281.933 433.707 281.933 434.849V434.862C281.933 436.011 281.216 436.677 279.985 436.677H278.195V433.04H279.985ZM285.135 441H286.43V434.278H286.532L289.217 441H290.27L292.962 434.278H293.057V441H294.352V431.84H292.714L289.794 439.146H289.693L286.773 431.84H285.135V441Z" fill="black"/>
<rect x="20" y="461" width="5" height="20" fill="#FFD704"/>
<path d="M42.2844 476.222C44.5886 476.222 45.9914 474.857 45.9914 472.845V466.84H44.5695V472.737C44.5695 474.064 43.7443 474.965 42.2844 474.965C40.8244 474.965 39.9929 474.064 39.9929 472.737V466.84H38.571V472.845C38.571 474.857 39.9865 476.222 42.2844 476.222ZM50.5515 476.133C52.1892 476.133 53.408 475.264 53.408 473.988V473.975C53.408 472.979 52.7732 472.414 51.4466 472.103L50.3548 471.855C49.5804 471.671 49.263 471.404 49.263 470.973V470.96C49.263 470.408 49.8089 470.033 50.5642 470.033C51.3387 470.033 51.8274 470.395 51.9607 470.877V470.89H53.2747V470.884C53.1541 469.76 52.1448 468.973 50.5706 468.973C49.0091 468.973 47.8919 469.836 47.8919 471.036V471.042C47.8919 472.052 48.4949 472.642 49.7962 472.94L50.8943 473.194C51.6941 473.378 52.0179 473.67 52.0179 474.102V474.115C52.0179 474.68 51.4275 475.067 50.5769 475.067C49.7581 475.067 49.2566 474.718 49.0852 474.197L49.0789 474.191H47.7014V474.197C47.8347 475.353 48.8885 476.133 50.5515 476.133ZM56.8636 476.114C57.7777 476.114 58.5013 475.721 58.9076 475.022H59.0155V476H60.3802V471.284C60.3802 469.836 59.4027 468.973 57.6698 468.973C56.1019 468.973 55.0165 469.729 54.8514 470.858L54.8451 470.903H56.1717L56.1781 470.877C56.3431 470.389 56.8446 470.109 57.6063 470.109C58.5394 470.109 59.0155 470.528 59.0155 471.284V471.893L57.1493 472.001C55.5052 472.103 54.5785 472.82 54.5785 474.051V474.064C54.5785 475.314 55.5497 476.114 56.8636 476.114ZM55.9496 474.007V473.994C55.9496 473.372 56.3812 473.029 57.3334 472.972L59.0155 472.864V473.455C59.0155 474.343 58.2601 475.016 57.2318 475.016C56.4891 475.016 55.9496 474.642 55.9496 474.007ZM65.9052 476.114C67.6445 476.114 68.7617 474.724 68.7617 472.56V472.547C68.7617 470.363 67.6572 468.986 65.9052 468.986C64.9594 468.986 64.1533 469.456 63.7851 470.198H63.6835V466.402H62.3061V476H63.6835V474.915H63.7851C64.185 475.67 64.9404 476.114 65.9052 476.114ZM65.518 474.94C64.3691 474.94 63.6581 474.032 63.6581 472.56V472.547C63.6581 471.074 64.3691 470.167 65.518 470.167C66.6669 470.167 67.3588 471.068 67.3588 472.547V472.56C67.3588 474.039 66.6669 474.94 65.518 474.94ZM71.043 467.875C71.5127 467.875 71.9063 467.488 71.9063 467.018C71.9063 466.542 71.5127 466.155 71.043 466.155C70.5669 466.155 70.1797 466.542 70.1797 467.018C70.1797 467.488 70.5669 467.875 71.043 467.875ZM70.3511 476H71.7222V469.106H70.3511V476ZM73.7115 476H75.089V466.402H73.7115V476ZM77.7765 467.875C78.2463 467.875 78.6398 467.488 78.6398 467.018C78.6398 466.542 78.2463 466.155 77.7765 466.155C77.3005 466.155 76.9133 466.542 76.9133 467.018C76.9133 467.488 77.3005 467.875 77.7765 467.875ZM77.0846 476H78.4557V469.106H77.0846V476ZM82.9841 476.044C83.2507 476.044 83.5046 476.013 83.7268 475.975V474.876C83.5364 474.896 83.4158 474.902 83.2063 474.902C82.5271 474.902 82.2478 474.597 82.2478 473.854V470.192H83.7268V469.106H82.2478V467.367H80.845V469.106H79.7659V470.192H80.845V474.185C80.845 475.511 81.467 476.044 82.9841 476.044ZM85.9256 478.425C87.3221 478.425 88.0204 477.911 88.6043 476.267L91.1688 469.106H89.7215L88.0013 474.616H87.8807L86.1541 469.106H84.6688L87.1698 476.006L87.0682 476.362C86.8651 477.06 86.4779 477.333 85.8368 477.333C85.6781 477.333 85.5067 477.327 85.3734 477.308V478.393C85.5511 478.412 85.7542 478.425 85.9256 478.425ZM98.4419 476H99.8638V468.065H102.739V466.84H95.5601V468.065H98.4419V476ZM105.897 476.133C107.661 476.133 108.613 475.118 108.842 474.21L108.855 474.153L107.528 474.159L107.503 474.21C107.337 474.565 106.811 475.003 105.928 475.003C104.792 475.003 104.068 474.235 104.043 472.915H108.931V472.433C108.931 470.363 107.75 468.973 105.827 468.973C103.903 468.973 102.659 470.414 102.659 472.566V472.572C102.659 474.756 103.878 476.133 105.897 476.133ZM105.833 470.103C106.766 470.103 107.458 470.7 107.566 471.931H104.062C104.183 470.744 104.894 470.103 105.833 470.103ZM112.996 476.133C114.633 476.133 115.852 475.264 115.852 473.988V473.975C115.852 472.979 115.217 472.414 113.891 472.103L112.799 471.855C112.025 471.671 111.707 471.404 111.707 470.973V470.96C111.707 470.408 112.253 470.033 113.008 470.033C113.783 470.033 114.272 470.395 114.405 470.877V470.89H115.719V470.884C115.598 469.76 114.589 468.973 113.015 468.973C111.453 468.973 110.336 469.836 110.336 471.036V471.042C110.336 472.052 110.939 472.642 112.24 472.94L113.339 473.194C114.138 473.378 114.462 473.67 114.462 474.102V474.115C114.462 474.68 113.872 475.067 113.021 475.067C112.202 475.067 111.701 474.718 111.529 474.197L111.523 474.191H110.146V474.197C110.279 475.353 111.333 476.133 112.996 476.133ZM119.968 476.044C120.235 476.044 120.489 476.013 120.711 475.975V474.876C120.52 474.896 120.4 474.902 120.19 474.902C119.511 474.902 119.232 474.597 119.232 473.854V470.192H120.711V469.106H119.232V467.367H117.829V469.106H116.75V470.192H117.829V474.185C117.829 475.511 118.451 476.044 119.968 476.044ZM122.954 467.875C123.424 467.875 123.817 467.488 123.817 467.018C123.817 466.542 123.424 466.155 122.954 466.155C122.478 466.155 122.091 466.542 122.091 467.018C122.091 467.488 122.478 467.875 122.954 467.875ZM122.262 476H123.633V469.106H122.262V476ZM125.559 476H126.936V471.957C126.936 470.846 127.565 470.154 128.574 470.154C129.583 470.154 130.059 470.719 130.059 471.861V476H131.431V471.538C131.431 469.894 130.58 468.973 129.038 468.973C128.035 468.973 127.374 469.417 127.038 470.154H126.936V469.106H125.559V476ZM136.187 478.431C138.143 478.431 139.38 477.428 139.38 475.86V469.106H138.009V470.236H137.927C137.527 469.462 136.778 468.986 135.813 468.986C134.023 468.986 132.925 470.376 132.925 472.344V472.356C132.925 474.299 134.017 475.664 135.788 475.664C136.733 475.664 137.495 475.245 137.914 474.496H138.016V475.854C138.016 476.793 137.343 477.327 136.207 477.327C135.273 477.327 134.715 476.99 134.601 476.514L134.594 476.501H133.204L133.191 476.514C133.356 477.663 134.436 478.431 136.187 478.431ZM136.168 474.527C134.994 474.527 134.334 473.632 134.334 472.35V472.337C134.334 471.055 134.994 470.154 136.168 470.154C137.33 470.154 138.041 471.055 138.041 472.337V472.35C138.041 473.639 137.336 474.527 136.168 474.527ZM147.472 476H149.04L152.303 466.84H150.76L148.31 474.286H148.202L145.752 466.84H144.21L147.472 476ZM153.664 476H159.834V474.788H155.6V474.661L157.542 472.725C159.205 471.074 159.688 470.274 159.688 469.233V469.214C159.688 467.704 158.431 466.618 156.723 466.618C154.883 466.618 153.588 467.799 153.581 469.475L153.594 469.487H154.927L154.933 469.468C154.933 468.465 155.619 467.792 156.647 467.792C157.65 467.792 158.266 468.453 158.266 469.348V469.367C158.266 470.109 157.917 470.579 156.704 471.842L153.664 475.035V476ZM162.515 476.095C163.042 476.095 163.442 475.689 163.442 475.175C163.442 474.654 163.042 474.248 162.515 474.248C161.988 474.248 161.582 474.654 161.582 475.175C161.582 475.689 161.988 476.095 162.515 476.095Z" fill="black"/>
<path d="M223.755 476H225.126V474.178H226.389V472.972H225.126V466.84H223.101C221.838 468.738 220.492 470.903 219.286 472.972V474.178H223.755V476ZM220.651 472.998V472.909C221.59 471.303 222.708 469.519 223.692 468.04H223.774V472.998H220.651ZM231.676 476H233.097V472.871H235.243C237.039 472.871 238.283 471.646 238.283 469.855V469.843C238.283 468.046 237.039 466.84 235.243 466.84H231.676V476ZM234.887 468.04C236.119 468.04 236.836 468.707 236.836 469.849V469.862C236.836 471.011 236.119 471.677 234.887 471.677H233.097V468.04H234.887ZM240.038 476H241.333V469.278H241.434L244.12 476H245.173L247.865 469.278H247.96V476H249.255V466.84H247.617L244.697 474.146H244.596L241.676 466.84H240.038V476ZM254.77 472.94H259.016V471.677H254.77V472.94ZM267.552 476.222C269.482 476.222 270.841 474.927 270.841 473.048V473.036C270.841 471.277 269.609 469.995 267.889 469.995C267.045 469.995 266.327 470.351 265.94 470.966H265.832L266.112 468.046H270.32V466.84H264.994L264.537 472.16H265.762C265.87 471.95 266.016 471.772 266.181 471.626C266.543 471.296 267.019 471.131 267.578 471.131C268.682 471.131 269.482 471.931 269.482 473.061V473.074C269.482 474.223 268.695 475.029 267.565 475.029C266.562 475.029 265.832 474.388 265.712 473.582L265.705 473.531H264.372L264.379 473.613C264.506 475.099 265.75 476.222 267.552 476.222ZM276.184 476H277.606V472.871H279.751C281.548 472.871 282.792 471.646 282.792 469.855V469.843C282.792 468.046 281.548 466.84 279.751 466.84H276.184V476ZM279.396 468.04C280.627 468.04 281.345 468.707 281.345 469.849V469.862C281.345 471.011 280.627 471.677 279.396 471.677H277.606V468.04H279.396ZM284.546 476H285.841V469.278H285.943L288.628 476H289.682L292.373 469.278H292.468V476H293.763V466.84H292.125L289.206 474.146H289.104L286.184 466.84H284.546V476Z" fill="black"/>
</g>
<defs>
<clipPath id="clip0">
<rect width="375" height="510" fill="white"/>
</clipPath>
</defs>
</svg>
