<svg width="393" height="360" viewBox="0 0 393 360" fill="none" xmlns="http://www.w3.org/2000/svg">
<g opacity="0.4" clip-path="url(#clip0)">
<g clip-path="url(#clip1)">
<rect x="7" y="-415" width="375" height="812" rx="30" fill="white"/>
<line x1="67" y1="37.75" x2="382" y2="37.75" stroke="#A3A3A3" stroke-width="0.5"/>
<line x1="67" y1="91.75" x2="382" y2="91.75" stroke="#A3A3A3" stroke-width="0.5"/>
<line x1="67" y1="145.75" x2="382" y2="145.75" stroke="#A3A3A3" stroke-width="0.5"/>
<line x1="67" y1="199.75" x2="382" y2="199.75" stroke="#A3A3A3" stroke-width="0.5"/>
<line x1="67" y1="253.75" x2="382" y2="253.75" stroke="#A3A3A3" stroke-width="0.5"/>
<line x1="67" y1="307.75" x2="382" y2="307.75" stroke="#A3A3A3" stroke-width="0.5"/>
<path d="M35.418 42H29.8281V41.2207L32.7812 37.9395C33.2188 37.4434 33.5195 37.041 33.6836 36.7324C33.8516 36.4199 33.9355 36.0977 33.9355 35.7656C33.9355 35.3203 33.8008 34.9551 33.5312 34.6699C33.2617 34.3848 32.9023 34.2422 32.4531 34.2422C31.9141 34.2422 31.4941 34.3965 31.1934 34.7051C30.8965 35.0098 30.748 35.4355 30.748 35.9824H29.6641C29.6641 35.1973 29.916 34.5625 30.4199 34.0781C30.9277 33.5938 31.6055 33.3516 32.4531 33.3516C33.2461 33.3516 33.873 33.5605 34.334 33.9785C34.7949 34.3926 35.0254 34.9453 35.0254 35.6367C35.0254 36.4766 34.4902 37.4766 33.4199 38.6367L31.1348 41.1152H35.418V42ZM40.9492 38.6602V42H39.8242V33.4688H42.9707C43.9043 33.4688 44.6348 33.707 45.1621 34.1836C45.6934 34.6602 45.959 35.291 45.959 36.0762C45.959 36.9043 45.6992 37.543 45.1797 37.9922C44.6641 38.4375 43.9238 38.6602 42.959 38.6602H40.9492ZM40.9492 37.7402H42.9707C43.5723 37.7402 44.0332 37.5996 44.3535 37.3184C44.6738 37.0332 44.834 36.623 44.834 36.0879C44.834 35.5801 44.6738 35.1738 44.3535 34.8691C44.0332 34.5645 43.5938 34.4062 43.0352 34.3945H40.9492V37.7402ZM48.8477 33.4688L51.6367 40.4297L54.4258 33.4688H55.8848V42H54.7598V38.6777L54.8652 35.0918L52.0645 42H51.2031L48.4082 35.1094L48.5195 38.6777V42H47.3945V33.4688H48.8477Z" fill="#A3A3A3"/>
<path d="M31.4043 91.207H32.2188C32.7305 91.1992 33.1328 91.0645 33.4258 90.8027C33.7188 90.541 33.8652 90.1875 33.8652 89.7422C33.8652 88.7422 33.3672 88.2422 32.3711 88.2422C31.9023 88.2422 31.5273 88.377 31.2461 88.6465C30.9688 88.9121 30.8301 89.2656 30.8301 89.707H29.7461C29.7461 89.0312 29.9922 88.4707 30.4844 88.0254C30.9805 87.5762 31.6094 87.3516 32.3711 87.3516C33.1758 87.3516 33.8066 87.5645 34.2637 87.9902C34.7207 88.416 34.9492 89.0078 34.9492 89.7656C34.9492 90.1367 34.8281 90.4961 34.5859 90.8438C34.3477 91.1914 34.0215 91.4512 33.6074 91.623C34.0762 91.7715 34.4375 92.0176 34.6914 92.3613C34.9492 92.7051 35.0781 93.125 35.0781 93.6211C35.0781 94.3867 34.8281 94.9941 34.3281 95.4434C33.8281 95.8926 33.1777 96.1172 32.377 96.1172C31.5762 96.1172 30.9238 95.9004 30.4199 95.4668C29.9199 95.0332 29.6699 94.4609 29.6699 93.75H30.7598C30.7598 94.1992 30.9062 94.5586 31.1992 94.8281C31.4922 95.0977 31.8848 95.2324 32.377 95.2324C32.9004 95.2324 33.3008 95.0957 33.5781 94.8223C33.8555 94.5488 33.9941 94.1562 33.9941 93.6445C33.9941 93.1484 33.8418 92.7676 33.5371 92.502C33.2324 92.2363 32.793 92.0996 32.2188 92.0918H31.4043V91.207ZM40.9492 92.6602V96H39.8242V87.4688H42.9707C43.9043 87.4688 44.6348 87.707 45.1621 88.1836C45.6934 88.6602 45.959 89.291 45.959 90.0762C45.959 90.9043 45.6992 91.543 45.1797 91.9922C44.6641 92.4375 43.9238 92.6602 42.959 92.6602H40.9492ZM40.9492 91.7402H42.9707C43.5723 91.7402 44.0332 91.5996 44.3535 91.3184C44.6738 91.0332 44.834 90.623 44.834 90.0879C44.834 89.5801 44.6738 89.1738 44.3535 88.8691C44.0332 88.5645 43.5938 88.4062 43.0352 88.3945H40.9492V91.7402ZM48.8477 87.4688L51.6367 94.4297L54.4258 87.4688H55.8848V96H54.7598V92.6777L54.8652 89.0918L52.0645 96H51.2031L48.4082 89.1094L48.5195 92.6777V96H47.3945V87.4688H48.8477Z" fill="#A3A3A3"/>
<path d="M34.4043 147.135H35.5879V148.02H34.4043V150H33.3145V148.02H29.4297V147.381L33.25 141.469H34.4043V147.135ZM30.6602 147.135H33.3145V142.951L33.1855 143.186L30.6602 147.135ZM40.9492 146.66V150H39.8242V141.469H42.9707C43.9043 141.469 44.6348 141.707 45.1621 142.184C45.6934 142.66 45.959 143.291 45.959 144.076C45.959 144.904 45.6992 145.543 45.1797 145.992C44.6641 146.438 43.9238 146.66 42.959 146.66H40.9492ZM40.9492 145.74H42.9707C43.5723 145.74 44.0332 145.6 44.3535 145.318C44.6738 145.033 44.834 144.623 44.834 144.088C44.834 143.58 44.6738 143.174 44.3535 142.869C44.0332 142.564 43.5938 142.406 43.0352 142.395H40.9492V145.74ZM48.8477 141.469L51.6367 148.43L54.4258 141.469H55.8848V150H54.7598V146.678L54.8652 143.092L52.0645 150H51.2031L48.4082 143.109L48.5195 146.678V150H47.3945V141.469H48.8477Z" fill="#A3A3A3"/>
<path d="M30.3262 199.723L30.7598 195.469H35.1309V196.471H31.6797L31.4219 198.797C31.8398 198.551 32.3145 198.428 32.8457 198.428C33.623 198.428 34.2402 198.686 34.6973 199.201C35.1543 199.713 35.3828 200.406 35.3828 201.281C35.3828 202.16 35.1445 202.854 34.668 203.361C34.1953 203.865 33.5332 204.117 32.6816 204.117C31.9277 204.117 31.3125 203.908 30.8359 203.49C30.3594 203.072 30.0879 202.494 30.0215 201.756H31.0469C31.1133 202.244 31.2871 202.613 31.5684 202.863C31.8496 203.109 32.2207 203.232 32.6816 203.232C33.1855 203.232 33.5801 203.061 33.8652 202.717C34.1543 202.373 34.2988 201.898 34.2988 201.293C34.2988 200.723 34.1426 200.266 33.8301 199.922C33.5215 199.574 33.1094 199.4 32.5938 199.4C32.1211 199.4 31.75 199.504 31.4805 199.711L31.1934 199.945L30.3262 199.723ZM40.9492 200.66V204H39.8242V195.469H42.9707C43.9043 195.469 44.6348 195.707 45.1621 196.184C45.6934 196.66 45.959 197.291 45.959 198.076C45.959 198.904 45.6992 199.543 45.1797 199.992C44.6641 200.438 43.9238 200.66 42.959 200.66H40.9492ZM40.9492 199.74H42.9707C43.5723 199.74 44.0332 199.6 44.3535 199.318C44.6738 199.033 44.834 198.623 44.834 198.088C44.834 197.58 44.6738 197.174 44.3535 196.869C44.0332 196.564 43.5938 196.406 43.0352 196.395H40.9492V199.74ZM48.8477 195.469L51.6367 202.43L54.4258 195.469H55.8848V204H54.7598V200.678L54.8652 197.092L52.0645 204H51.2031L48.4082 197.109L48.5195 200.678V204H47.3945V195.469H48.8477Z" fill="#A3A3A3"/>
<path d="M34.082 249.463V250.383H33.8828C33.0391 250.398 32.3672 250.648 31.8672 251.133C31.3672 251.617 31.0781 252.299 31 253.178C31.4492 252.662 32.0625 252.404 32.8398 252.404C33.582 252.404 34.1738 252.666 34.6152 253.189C35.0605 253.713 35.2832 254.389 35.2832 255.217C35.2832 256.096 35.043 256.799 34.5625 257.326C34.0859 257.854 33.4453 258.117 32.6406 258.117C31.8242 258.117 31.1621 257.805 30.6543 257.18C30.1465 256.551 29.8926 255.742 29.8926 254.754V254.338C29.8926 252.768 30.2266 251.568 30.8945 250.74C31.5664 249.908 32.5645 249.482 33.8887 249.463H34.082ZM32.6582 253.307C32.2871 253.307 31.9453 253.418 31.6328 253.641C31.3203 253.863 31.1035 254.143 30.9824 254.479V254.877C30.9824 255.58 31.1406 256.146 31.457 256.576C31.7734 257.006 32.168 257.221 32.6406 257.221C33.1289 257.221 33.5117 257.041 33.7891 256.682C34.0703 256.322 34.2109 255.852 34.2109 255.27C34.2109 254.684 34.0684 254.211 33.7832 253.852C33.502 253.488 33.127 253.307 32.6582 253.307ZM40.9492 254.66V258H39.8242V249.469H42.9707C43.9043 249.469 44.6348 249.707 45.1621 250.184C45.6934 250.66 45.959 251.291 45.959 252.076C45.959 252.904 45.6992 253.543 45.1797 253.992C44.6641 254.438 43.9238 254.66 42.959 254.66H40.9492ZM40.9492 253.74H42.9707C43.5723 253.74 44.0332 253.6 44.3535 253.318C44.6738 253.033 44.834 252.623 44.834 252.088C44.834 251.58 44.6738 251.174 44.3535 250.869C44.0332 250.564 43.5938 250.406 43.0352 250.395H40.9492V253.74ZM48.8477 249.469L51.6367 256.43L54.4258 249.469H55.8848V258H54.7598V254.678L54.8652 251.092L52.0645 258H51.2031L48.4082 251.109L48.5195 254.678V258H47.3945V249.469H48.8477Z" fill="#A3A3A3"/>
<path d="M35.3359 304.078L31.8027 312H30.666L34.1875 304.359H29.5703V303.469H35.3359V304.078ZM40.9492 308.66V312H39.8242V303.469H42.9707C43.9043 303.469 44.6348 303.707 45.1621 304.184C45.6934 304.66 45.959 305.291 45.959 306.076C45.959 306.904 45.6992 307.543 45.1797 307.992C44.6641 308.438 43.9238 308.66 42.959 308.66H40.9492ZM40.9492 307.74H42.9707C43.5723 307.74 44.0332 307.6 44.3535 307.318C44.6738 307.033 44.834 306.623 44.834 306.088C44.834 305.58 44.6738 305.174 44.3535 304.869C44.0332 304.564 43.5938 304.406 43.0352 304.395H40.9492V307.74ZM48.8477 303.469L51.6367 310.43L54.4258 303.469H55.8848V312H54.7598V308.678L54.8652 305.092L52.0645 312H51.2031L48.4082 305.109L48.5195 308.678V312H47.3945V303.469H48.8477Z" fill="#A3A3A3"/>
<g clip-path="url(#clip2)">
<rect x="7" y="104" width="375" height="325" fill="white"/>
<circle cx="55" cy="134" r="15" fill="#C4C4C4" fill-opacity="0.5" stroke="#C4C4C4" stroke-opacity="0.5" stroke-width="2"/>
<path d="M97.5793 141H104.851V139.655H99.0734V129.022H97.5793V141ZM109.911 141.158C112.459 141.158 114.036 139.398 114.036 136.534V136.518C114.036 133.646 112.459 131.894 109.911 131.894C107.363 131.894 105.786 133.646 105.786 136.518V136.534C105.786 139.398 107.363 141.158 109.911 141.158ZM109.911 139.879C108.218 139.879 107.263 138.643 107.263 136.534V136.518C107.263 134.401 108.218 133.172 109.911 133.172C111.604 133.172 112.559 134.401 112.559 136.518V136.534C112.559 138.643 111.604 139.879 109.911 139.879ZM115.868 141H117.312V135.455C117.312 134.144 118.292 133.272 119.669 133.272C119.985 133.272 120.259 133.305 120.558 133.355V131.952C120.417 131.927 120.109 131.894 119.835 131.894C118.624 131.894 117.785 132.442 117.445 133.38H117.312V132.052H115.868V141ZM125.336 141.158C127.444 141.158 128.722 139.962 129.029 138.75L129.046 138.684H127.602L127.569 138.759C127.328 139.298 126.581 139.871 125.369 139.871C123.775 139.871 122.754 138.792 122.713 136.941H129.154V136.376C129.154 133.704 127.676 131.894 125.244 131.894C122.812 131.894 121.235 133.787 121.235 136.551V136.559C121.235 139.365 122.779 141.158 125.336 141.158ZM125.236 133.181C126.556 133.181 127.535 134.019 127.685 135.787H122.737C122.895 134.085 123.908 133.181 125.236 133.181ZM130.985 141H132.43V135.455C132.43 134.193 133.318 133.172 134.488 133.172C135.617 133.172 136.347 133.861 136.347 134.924V141H137.792V135.248C137.792 134.11 138.614 133.172 139.859 133.172C141.12 133.172 141.726 133.828 141.726 135.148V141H143.171V134.816C143.171 132.94 142.15 131.894 140.324 131.894C139.087 131.894 138.066 132.517 137.584 133.463H137.452C137.036 132.533 136.19 131.894 134.978 131.894C133.807 131.894 132.961 132.45 132.562 133.413H132.43V132.052H130.985V141ZM150.502 130.325C151.05 130.325 151.498 129.877 151.498 129.329C151.498 128.781 151.05 128.333 150.502 128.333C149.954 128.333 149.506 128.781 149.506 129.329C149.506 129.877 149.954 130.325 150.502 130.325ZM149.772 141H151.216V132.052H149.772V141ZM153.529 143.988H154.973V139.589H155.106C155.596 140.543 156.666 141.158 157.895 141.158C160.169 141.158 161.647 139.34 161.647 136.534V136.518C161.647 133.729 160.161 131.894 157.895 131.894C156.65 131.894 155.654 132.483 155.106 133.479H154.973V132.052H153.529V143.988ZM157.563 139.879C155.936 139.879 154.94 138.601 154.94 136.534V136.518C154.94 134.451 155.936 133.172 157.563 133.172C159.198 133.172 160.169 134.434 160.169 136.518V136.534C160.169 138.618 159.198 139.879 157.563 139.879ZM166.566 141.158C168.6 141.158 170.152 140.054 170.152 138.46V138.443C170.152 137.165 169.338 136.435 167.653 136.028L166.275 135.696C165.221 135.438 164.773 135.057 164.773 134.451V134.434C164.773 133.646 165.553 133.098 166.616 133.098C167.695 133.098 168.392 133.587 168.583 134.293H170.002C169.803 132.832 168.5 131.894 166.624 131.894C164.723 131.894 163.295 133.015 163.295 134.5V134.509C163.295 135.795 164.051 136.526 165.728 136.924L167.114 137.256C168.218 137.522 168.674 137.945 168.674 138.551V138.568C168.674 139.381 167.819 139.954 166.616 139.954C165.47 139.954 164.756 139.464 164.516 138.717H163.038C163.204 140.195 164.574 141.158 166.566 141.158ZM174.98 141.158C176.291 141.158 177.196 140.618 177.636 139.664H177.769V141H179.213V132.052H177.769V137.348C177.769 138.917 176.93 139.879 175.353 139.879C173.925 139.879 173.344 139.107 173.344 137.497V132.052H171.9V137.846C171.9 139.962 172.946 141.158 174.98 141.158ZM181.501 141H182.945V135.455C182.945 134.193 183.833 133.172 185.004 133.172C186.133 133.172 186.863 133.861 186.863 134.924V141H188.307V135.248C188.307 134.11 189.129 133.172 190.374 133.172C191.636 133.172 192.242 133.828 192.242 135.148V141H193.686V134.816C193.686 132.94 192.665 131.894 190.839 131.894C189.602 131.894 188.581 132.517 188.1 133.463H187.967C187.552 132.533 186.705 131.894 185.493 131.894C184.323 131.894 183.476 132.45 183.078 133.413H182.945V132.052H181.501V141Z" fill="#A3A3A3"/>
<line x1="96" y1="160.75" x2="381" y2="160.75" stroke="black" stroke-opacity="0.35" stroke-width="0.5"/>
<circle cx="55" cy="196" r="15" stroke="#C4C4C4" stroke-width="2"/>
<path d="M97.5793 203H104.851V201.655H99.0734V191.022H97.5793V203ZM109.911 203.158C112.459 203.158 114.036 201.398 114.036 198.534V198.518C114.036 195.646 112.459 193.894 109.911 193.894C107.363 193.894 105.786 195.646 105.786 198.518V198.534C105.786 201.398 107.363 203.158 109.911 203.158ZM109.911 201.879C108.218 201.879 107.263 200.643 107.263 198.534V198.518C107.263 196.401 108.218 195.172 109.911 195.172C111.604 195.172 112.559 196.401 112.559 198.518V198.534C112.559 200.643 111.604 201.879 109.911 201.879ZM115.868 203H117.312V197.455C117.312 196.144 118.292 195.272 119.669 195.272C119.985 195.272 120.259 195.305 120.558 195.355V193.952C120.417 193.927 120.109 193.894 119.835 193.894C118.624 193.894 117.785 194.442 117.445 195.38H117.312V194.052H115.868V203ZM125.336 203.158C127.444 203.158 128.722 201.962 129.029 200.75L129.046 200.684H127.602L127.569 200.759C127.328 201.298 126.581 201.871 125.369 201.871C123.775 201.871 122.754 200.792 122.713 198.941H129.154V198.376C129.154 195.704 127.676 193.894 125.244 193.894C122.812 193.894 121.235 195.787 121.235 198.551V198.559C121.235 201.365 122.779 203.158 125.336 203.158ZM125.236 195.181C126.556 195.181 127.535 196.019 127.685 197.787H122.737C122.895 196.085 123.908 195.181 125.236 195.181ZM130.985 203H132.43V197.455C132.43 196.193 133.318 195.172 134.488 195.172C135.617 195.172 136.347 195.861 136.347 196.924V203H137.792V197.248C137.792 196.11 138.614 195.172 139.859 195.172C141.12 195.172 141.726 195.828 141.726 197.148V203H143.171V196.816C143.171 194.94 142.15 193.894 140.324 193.894C139.087 193.894 138.066 194.517 137.584 195.463H137.452C137.036 194.533 136.19 193.894 134.978 193.894C133.807 193.894 132.961 194.45 132.562 195.413H132.43V194.052H130.985V203ZM150.502 192.325C151.05 192.325 151.498 191.877 151.498 191.329C151.498 190.781 151.05 190.333 150.502 190.333C149.954 190.333 149.506 190.781 149.506 191.329C149.506 191.877 149.954 192.325 150.502 192.325ZM149.772 203H151.216V194.052H149.772V203ZM153.529 205.988H154.973V201.589H155.106C155.596 202.543 156.666 203.158 157.895 203.158C160.169 203.158 161.647 201.34 161.647 198.534V198.518C161.647 195.729 160.161 193.894 157.895 193.894C156.65 193.894 155.654 194.483 155.106 195.479H154.973V194.052H153.529V205.988ZM157.563 201.879C155.936 201.879 154.94 200.601 154.94 198.534V198.518C154.94 196.451 155.936 195.172 157.563 195.172C159.198 195.172 160.169 196.434 160.169 198.518V198.534C160.169 200.618 159.198 201.879 157.563 201.879ZM166.566 203.158C168.6 203.158 170.152 202.054 170.152 200.46V200.443C170.152 199.165 169.338 198.435 167.653 198.028L166.275 197.696C165.221 197.438 164.773 197.057 164.773 196.451V196.434C164.773 195.646 165.553 195.098 166.616 195.098C167.695 195.098 168.392 195.587 168.583 196.293H170.002C169.803 194.832 168.5 193.894 166.624 193.894C164.723 193.894 163.295 195.015 163.295 196.5V196.509C163.295 197.795 164.051 198.526 165.728 198.924L167.114 199.256C168.218 199.522 168.674 199.945 168.674 200.551V200.568C168.674 201.381 167.819 201.954 166.616 201.954C165.47 201.954 164.756 201.464 164.516 200.717H163.038C163.204 202.195 164.574 203.158 166.566 203.158ZM174.98 203.158C176.291 203.158 177.196 202.618 177.636 201.664H177.769V203H179.213V194.052H177.769V199.348C177.769 200.917 176.93 201.879 175.353 201.879C173.925 201.879 173.344 201.107 173.344 199.497V194.052H171.9V199.846C171.9 201.962 172.946 203.158 174.98 203.158ZM181.501 203H182.945V197.455C182.945 196.193 183.833 195.172 185.004 195.172C186.133 195.172 186.863 195.861 186.863 196.924V203H188.307V197.248C188.307 196.11 189.129 195.172 190.374 195.172C191.636 195.172 192.242 195.828 192.242 197.148V203H193.686V196.816C193.686 194.94 192.665 193.894 190.839 193.894C189.602 193.894 188.581 194.517 188.1 195.463H187.967C187.552 194.533 186.705 193.894 185.493 193.894C184.323 193.894 183.476 194.45 183.078 195.413H182.945V194.052H181.501V203Z" fill="black"/>
<line x1="96" y1="222.75" x2="381" y2="222.75" stroke="black" stroke-opacity="0.35" stroke-width="0.5"/>
<circle cx="55" cy="258" r="15" stroke="#C4C4C4" stroke-width="2"/>
<path d="M97.5793 265H104.851V263.655H99.0734V253.022H97.5793V265ZM109.911 265.158C112.459 265.158 114.036 263.398 114.036 260.534V260.518C114.036 257.646 112.459 255.894 109.911 255.894C107.363 255.894 105.786 257.646 105.786 260.518V260.534C105.786 263.398 107.363 265.158 109.911 265.158ZM109.911 263.879C108.218 263.879 107.263 262.643 107.263 260.534V260.518C107.263 258.401 108.218 257.172 109.911 257.172C111.604 257.172 112.559 258.401 112.559 260.518V260.534C112.559 262.643 111.604 263.879 109.911 263.879ZM115.868 265H117.312V259.455C117.312 258.144 118.292 257.272 119.669 257.272C119.985 257.272 120.259 257.305 120.558 257.355V255.952C120.417 255.927 120.109 255.894 119.835 255.894C118.624 255.894 117.785 256.442 117.445 257.38H117.312V256.052H115.868V265ZM125.336 265.158C127.444 265.158 128.722 263.962 129.029 262.75L129.046 262.684H127.602L127.569 262.759C127.328 263.298 126.581 263.871 125.369 263.871C123.775 263.871 122.754 262.792 122.713 260.941H129.154V260.376C129.154 257.704 127.676 255.894 125.244 255.894C122.812 255.894 121.235 257.787 121.235 260.551V260.559C121.235 263.365 122.779 265.158 125.336 265.158ZM125.236 257.181C126.556 257.181 127.535 258.019 127.685 259.787H122.737C122.895 258.085 123.908 257.181 125.236 257.181ZM130.985 265H132.43V259.455C132.43 258.193 133.318 257.172 134.488 257.172C135.617 257.172 136.347 257.861 136.347 258.924V265H137.792V259.248C137.792 258.11 138.614 257.172 139.859 257.172C141.12 257.172 141.726 257.828 141.726 259.148V265H143.171V258.816C143.171 256.94 142.15 255.894 140.324 255.894C139.087 255.894 138.066 256.517 137.584 257.463H137.452C137.036 256.533 136.19 255.894 134.978 255.894C133.807 255.894 132.961 256.45 132.562 257.413H132.43V256.052H130.985V265ZM150.502 254.325C151.05 254.325 151.498 253.877 151.498 253.329C151.498 252.781 151.05 252.333 150.502 252.333C149.954 252.333 149.506 252.781 149.506 253.329C149.506 253.877 149.954 254.325 150.502 254.325ZM149.772 265H151.216V256.052H149.772V265ZM153.529 267.988H154.973V263.589H155.106C155.596 264.543 156.666 265.158 157.895 265.158C160.169 265.158 161.647 263.34 161.647 260.534V260.518C161.647 257.729 160.161 255.894 157.895 255.894C156.65 255.894 155.654 256.483 155.106 257.479H154.973V256.052H153.529V267.988ZM157.563 263.879C155.936 263.879 154.94 262.601 154.94 260.534V260.518C154.94 258.451 155.936 257.172 157.563 257.172C159.198 257.172 160.169 258.434 160.169 260.518V260.534C160.169 262.618 159.198 263.879 157.563 263.879ZM166.566 265.158C168.6 265.158 170.152 264.054 170.152 262.46V262.443C170.152 261.165 169.338 260.435 167.653 260.028L166.275 259.696C165.221 259.438 164.773 259.057 164.773 258.451V258.434C164.773 257.646 165.553 257.098 166.616 257.098C167.695 257.098 168.392 257.587 168.583 258.293H170.002C169.803 256.832 168.5 255.894 166.624 255.894C164.723 255.894 163.295 257.015 163.295 258.5V258.509C163.295 259.795 164.051 260.526 165.728 260.924L167.114 261.256C168.218 261.522 168.674 261.945 168.674 262.551V262.568C168.674 263.381 167.819 263.954 166.616 263.954C165.47 263.954 164.756 263.464 164.516 262.717H163.038C163.204 264.195 164.574 265.158 166.566 265.158ZM174.98 265.158C176.291 265.158 177.196 264.618 177.636 263.664H177.769V265H179.213V256.052H177.769V261.348C177.769 262.917 176.93 263.879 175.353 263.879C173.925 263.879 173.344 263.107 173.344 261.497V256.052H171.9V261.846C171.9 263.962 172.946 265.158 174.98 265.158ZM181.501 265H182.945V259.455C182.945 258.193 183.833 257.172 185.004 257.172C186.133 257.172 186.863 257.861 186.863 258.924V265H188.307V259.248C188.307 258.11 189.129 257.172 190.374 257.172C191.636 257.172 192.242 257.828 192.242 259.148V265H193.686V258.816C193.686 256.94 192.665 255.894 190.839 255.894C189.602 255.894 188.581 256.517 188.1 257.463H187.967C187.552 256.533 186.705 255.894 185.493 255.894C184.323 255.894 183.476 256.45 183.078 257.413H182.945V256.052H181.501V265Z" fill="black"/>
<line x1="96" y1="284.75" x2="381" y2="284.75" stroke="black" stroke-opacity="0.35" stroke-width="0.5"/>
<circle cx="55" cy="320" r="15" stroke="#C4C4C4" stroke-width="2"/>
</g>
<rect x="7" y="70" width="375" height="34" fill="#EDEDED"/>
<path d="M30.6315 93H33.1383V83.0889H36.7326V81.022H27.0372V83.0889H30.6315V93ZM39.2112 93.1411C40.4065 93.1411 41.3694 92.6348 41.8343 91.7881H41.9837V93H44.3743V86.7578C44.3743 84.8071 43.0047 83.6616 40.5809 83.6616C38.2815 83.6616 36.7708 84.7241 36.5799 86.3262L36.5716 86.4009H38.8128L38.8294 86.3677C39.0203 85.8281 39.5765 85.521 40.448 85.521C41.4441 85.521 41.9837 85.9692 41.9837 86.7578V87.5132L39.7757 87.646C37.5013 87.7788 36.2313 88.7417 36.2313 90.3853V90.4019C36.2313 92.062 37.4681 93.1411 39.2112 93.1411ZM38.597 90.2524V90.2358C38.597 89.5718 39.1033 89.1816 40.1409 89.1152L41.9837 88.999V89.6714C41.9837 90.6343 41.1453 91.373 40.0247 91.373C39.1863 91.373 38.597 90.9497 38.597 90.2524ZM49.9741 93.1909C52.3149 93.1909 53.9834 92.0122 53.9834 90.2026V90.1943C53.9834 88.8413 53.1284 88.0776 51.3022 87.6875L49.7832 87.3638C48.8369 87.1562 48.4965 86.874 48.4965 86.3843V86.376C48.4965 85.7617 49.0942 85.3716 49.9326 85.3716C50.8374 85.3716 51.3769 85.8281 51.5097 86.3179L51.518 86.3594H53.7675V86.3262C53.6679 84.8569 52.3398 83.6616 49.9409 83.6616C47.6582 83.6616 46.1308 84.8071 46.1308 86.5254V86.5337C46.1308 87.9033 46.9941 88.7583 48.7373 89.1318L50.2646 89.4556C51.1943 89.6631 51.5595 89.9702 51.5595 90.46V90.4766C51.5595 91.0825 50.9287 91.481 49.999 91.481C49.0444 91.481 48.4882 91.0742 48.2973 90.5098L48.2807 90.4766H45.8984L45.9067 90.5098C46.081 92.0786 47.4921 93.1909 49.9741 93.1909ZM55.6403 93H58.0641V89.937L58.7281 89.2314L61.3927 93H64.2565L60.5045 87.7373L64.0157 83.8608H61.2682L58.2135 87.4717H58.0641V80.3662H55.6403V93ZM68.6277 93.1909C70.9685 93.1909 72.637 92.0122 72.637 90.2026V90.1943C72.637 88.8413 71.782 88.0776 69.9558 87.6875L68.4368 87.3638C67.4905 87.1562 67.1502 86.874 67.1502 86.3843V86.376C67.1502 85.7617 67.7478 85.3716 68.5862 85.3716C69.491 85.3716 70.0305 85.8281 70.1634 86.3179L70.1717 86.3594H72.4212V86.3262C72.3216 84.8569 70.9934 83.6616 68.5945 83.6616C66.3118 83.6616 64.7845 84.8071 64.7845 86.5254V86.5337C64.7845 87.9033 65.6477 88.7583 67.3909 89.1318L68.9182 89.4556C69.8479 89.6631 70.2132 89.9702 70.2132 90.46V90.4766C70.2132 91.0825 69.5823 91.481 68.6526 91.481C67.698 91.481 67.1419 91.0742 66.951 90.5098L66.9344 90.4766H64.552L64.5603 90.5098C64.7346 92.0786 66.1458 93.1909 68.6277 93.1909ZM78.8893 93H81.3131V85.687H83.1974V83.8608H81.2633V83.1719C81.2633 82.375 81.6119 81.9351 82.5499 81.9351C82.8653 81.9351 83.1227 81.96 83.2721 81.9849V80.3662C82.9234 80.3164 82.5167 80.2749 82.027 80.2749C79.8189 80.2749 78.8893 81.188 78.8893 83.0059V83.8608H77.4117V85.687H78.8893V93ZM88.4568 93.1909C91.2708 93.1909 92.9641 91.4146 92.9641 88.4346V88.418C92.9641 85.4629 91.2459 83.6616 88.4568 83.6616C85.6677 83.6616 83.9495 85.4712 83.9495 88.418V88.4346C83.9495 91.4062 85.6428 93.1909 88.4568 93.1909ZM88.4568 91.29C87.1619 91.29 86.4314 90.2358 86.4314 88.4346V88.418C86.4314 86.6333 87.1702 85.5625 88.4568 85.5625C89.7351 85.5625 90.4822 86.6333 90.4822 88.418V88.4346C90.4822 90.2358 89.7434 91.29 88.4568 91.29ZM94.5297 93H96.9535V87.8867C96.9535 86.5918 97.8251 85.8032 99.203 85.8032C99.5766 85.8032 99.9501 85.8613 100.315 85.9443V83.8276C100.075 83.7612 99.7343 83.7114 99.4106 83.7114C98.2236 83.7114 97.3935 84.2925 97.103 85.2803H96.9535V83.8608H94.5297V93ZM109.29 93.0332C109.755 93.0332 110.203 92.9834 110.502 92.9253V91.124C110.27 91.1489 110.104 91.1655 109.788 91.1655C108.967 91.1655 108.618 90.8003 108.618 89.9785V85.687H110.502V83.8608H108.618V81.6777H106.169V83.8608H104.758V85.687H106.169V90.5347C106.169 92.311 107.066 93.0332 109.29 93.0332ZM112.192 93H114.616V87.7124C114.616 86.4756 115.297 85.6704 116.417 85.6704C117.563 85.6704 118.094 86.3511 118.094 87.6377V93H120.518V87.0898C120.518 84.9067 119.422 83.6616 117.389 83.6616C116.085 83.6616 115.181 84.2842 114.766 85.272H114.616V80.3662H112.192V93ZM126.475 93.1909C129.148 93.1909 130.326 91.647 130.608 90.5015L130.625 90.4185H128.367L128.342 90.4683C128.176 90.8169 127.587 91.3813 126.524 91.3813C125.238 91.3813 124.433 90.5098 124.408 89.0073H130.7V88.252C130.7 85.4878 129.04 83.6616 126.375 83.6616C123.711 83.6616 122.009 85.5293 122.009 88.4346V88.4429C122.009 91.373 123.694 93.1909 126.475 93.1909ZM126.417 85.4795C127.471 85.4795 128.226 86.1602 128.376 87.4883H124.433C124.582 86.1934 125.362 85.4795 126.417 85.4795ZM139.509 93.1411C140.795 93.1411 141.766 92.5684 142.24 91.5806H142.389V93H144.813V80.3662H142.389V85.3218H142.24C141.783 84.3257 140.762 83.7114 139.509 83.7114C137.193 83.7114 135.798 85.4795 135.798 88.418V88.4346C135.798 91.3564 137.226 93.1411 139.509 93.1411ZM140.33 91.1323C139.052 91.1323 138.264 90.1196 138.264 88.4346V88.418C138.264 86.7495 139.052 85.7202 140.33 85.7202C141.609 85.7202 142.414 86.7495 142.414 88.4263V88.4429C142.414 90.1196 141.617 91.1323 140.33 91.1323ZM149.4 93.1411C150.595 93.1411 151.558 92.6348 152.023 91.7881H152.172V93H154.563V86.7578C154.563 84.8071 153.193 83.6616 150.77 83.6616C148.47 83.6616 146.96 84.7241 146.769 86.3262L146.76 86.4009H149.002L149.018 86.3677C149.209 85.8281 149.765 85.521 150.637 85.521C151.633 85.521 152.172 85.9692 152.172 86.7578V87.5132L149.964 87.646C147.69 87.7788 146.42 88.7417 146.42 90.3853V90.4019C146.42 92.062 147.657 93.1411 149.4 93.1411ZM148.786 90.2524V90.2358C148.786 89.5718 149.292 89.1816 150.33 89.1152L152.172 88.999V89.6714C152.172 90.6343 151.334 91.373 150.213 91.373C149.375 91.373 148.786 90.9497 148.786 90.2524ZM157.365 96.2207C159.623 96.2207 160.827 95.4072 161.64 92.9917L164.753 83.8608H162.196L160.279 90.7837H160.113L158.196 83.8608H155.531L158.743 93L158.66 93.3486C158.486 94.0625 157.988 94.3945 157.125 94.3945C156.901 94.3945 156.66 94.3862 156.494 94.3696V96.1958C156.776 96.2124 157.083 96.2207 157.365 96.2207ZM167.771 87.1978C168.626 87.1978 169.232 86.5752 169.232 85.7534C169.232 84.9316 168.626 84.3174 167.771 84.3174C166.925 84.3174 166.31 84.9316 166.31 85.7534C166.31 86.5752 166.925 87.1978 167.771 87.1978ZM167.771 93.2075C168.626 93.2075 169.232 92.585 169.232 91.7632C169.232 90.9414 168.626 90.3271 167.771 90.3271C166.925 90.3271 166.31 90.9414 166.31 91.7632C166.31 92.585 166.925 93.2075 167.771 93.2075Z" fill="#EB4D3D"/>
<g clip-path="url(#clip3)">
<g filter="url(#filter0_b)">
<path fill-rule="evenodd" clip-rule="evenodd" d="M7 397H382V314H7V397Z" fill="#F8F8F8" fill-opacity="0.92"/>
</g>
<g opacity="0.2">
<path fill-rule="evenodd" clip-rule="evenodd" d="M7 314.5H382V314H7V314.5Z" fill="black"/>
</g>
</g>
<g clip-path="url(#clip4)">
<rect x="308.5" y="321.5" width="22" height="22" rx="2.5" fill="#007AFF" stroke="#007AFF"/>
<rect x="310" y="326" width="19" height="16" rx="3" fill="#DADADA"/>
<rect x="320" y="329" width="2" height="2" fill="#007AFF"/>
<rect x="323" y="329" width="2" height="2" fill="#007AFF"/>
<rect x="326" y="329" width="2" height="2" fill="#007AFF"/>
</g>
<g clip-path="url(#clip5)">
<path fill-rule="evenodd" clip-rule="evenodd" d="M185.619 328.31C185.619 329.033 185.033 329.619 184.31 329.619C183.586 329.619 183 329.033 183 328.31C183 327.586 183.586 327 184.31 327C185.033 327 185.619 327.586 185.619 328.31ZM188.5 327.524C188.066 327.524 187.714 327.876 187.714 328.31C187.714 328.743 188.066 329.095 188.5 329.095H204.214C204.648 329.095 205 328.743 205 328.31C205 327.876 204.648 327.524 204.214 327.524H188.5ZM184.31 335.381C185.033 335.381 185.619 334.795 185.619 334.071C185.619 333.348 185.033 332.762 184.31 332.762C183.586 332.762 183 333.348 183 334.071C183 334.795 183.586 335.381 184.31 335.381ZM188.5 333.286C188.066 333.286 187.714 333.637 187.714 334.071C187.714 334.505 188.066 334.857 188.5 334.857H204.214C204.648 334.857 205 334.505 205 334.071C205 333.637 204.648 333.286 204.214 333.286H188.5ZM187.714 339.833C187.714 339.399 188.066 339.048 188.5 339.048H204.214C204.648 339.048 205 339.399 205 339.833C205 340.267 204.648 340.619 204.214 340.619H188.5C188.066 340.619 187.714 340.267 187.714 339.833ZM185.619 339.833C185.619 340.557 185.033 341.143 184.31 341.143C183.586 341.143 183 340.557 183 339.833C183 339.11 183.586 338.524 184.31 338.524C185.033 338.524 185.619 339.11 185.619 339.833Z" fill="#A3A3A3"/>
</g>
<path fill-rule="evenodd" clip-rule="evenodd" d="M60.4585 332H65.5889C67.2588 332 68.0474 331.237 68.0474 329.603V326.388C68.0474 324.754 67.2588 324 65.5889 324H60.4585C58.7886 324 58 324.754 58 326.388V329.603C58 331.237 58.7886 332 60.4585 332ZM72.4585 332H77.5889C79.2588 332 80.0474 331.237 80.0474 329.603V326.388C80.0474 324.754 79.2588 324 77.5889 324H72.4585C70.7886 324 70 324.754 70 326.388V329.603C70 331.237 70.7886 332 72.4585 332ZM60.4585 342H65.5889C67.2588 342 68.0474 341.237 68.0474 339.603V336.388C68.0474 334.754 67.2588 334 65.5889 334H60.4585C58.7886 334 58 334.754 58 336.388V339.603C58 341.237 58.7886 342 60.4585 342ZM72.4585 342H77.5889C79.2588 342 80.0474 341.237 80.0474 339.603V336.388C80.0474 334.754 79.2588 334 77.5889 334H72.4585C70.7886 334 70 334.754 70 336.388V339.603C70 341.237 70.7886 342 72.4585 342Z" fill="#007AFF"/>
</g>
</g>
<g clip-path="url(#clip6)" filter="url(#filter1_d)">
<g clip-path="url(#clip7)">
<rect x="14" y="-423" width="375" height="812" rx="30" fill="white"/>
<line x1="74" y1="83.75" x2="389" y2="83.75" stroke="#A3A3A3" stroke-width="0.5"/>
<line x1="74" y1="137.75" x2="389" y2="137.75" stroke="#A3A3A3" stroke-width="0.5"/>
<line x1="74" y1="191.75" x2="389" y2="191.75" stroke="#A3A3A3" stroke-width="0.5"/>
<line x1="74" y1="245.75" x2="389" y2="245.75" stroke="#A3A3A3" stroke-width="0.5"/>
<line x1="74" y1="299.75" x2="389" y2="299.75" stroke="#A3A3A3" stroke-width="0.5"/>
<path d="M38.4043 83.207H39.2188C39.7305 83.1992 40.1328 83.0645 40.4258 82.8027C40.7188 82.541 40.8652 82.1875 40.8652 81.7422C40.8652 80.7422 40.3672 80.2422 39.3711 80.2422C38.9023 80.2422 38.5273 80.377 38.2461 80.6465C37.9688 80.9121 37.8301 81.2656 37.8301 81.707H36.7461C36.7461 81.0312 36.9922 80.4707 37.4844 80.0254C37.9805 79.5762 38.6094 79.3516 39.3711 79.3516C40.1758 79.3516 40.8066 79.5645 41.2637 79.9902C41.7207 80.416 41.9492 81.0078 41.9492 81.7656C41.9492 82.1367 41.8281 82.4961 41.5859 82.8438C41.3477 83.1914 41.0215 83.4512 40.6074 83.623C41.0762 83.7715 41.4375 84.0176 41.6914 84.3613C41.9492 84.7051 42.0781 85.125 42.0781 85.6211C42.0781 86.3867 41.8281 86.9941 41.3281 87.4434C40.8281 87.8926 40.1777 88.1172 39.377 88.1172C38.5762 88.1172 37.9238 87.9004 37.4199 87.4668C36.9199 87.0332 36.6699 86.4609 36.6699 85.75H37.7598C37.7598 86.1992 37.9062 86.5586 38.1992 86.8281C38.4922 87.0977 38.8848 87.2324 39.377 87.2324C39.9004 87.2324 40.3008 87.0957 40.5781 86.8223C40.8555 86.5488 40.9941 86.1562 40.9941 85.6445C40.9941 85.1484 40.8418 84.7676 40.5371 84.502C40.2324 84.2363 39.793 84.0996 39.2188 84.0918H38.4043V83.207ZM47.9492 84.6602V88H46.8242V79.4688H49.9707C50.9043 79.4688 51.6348 79.707 52.1621 80.1836C52.6934 80.6602 52.959 81.291 52.959 82.0762C52.959 82.9043 52.6992 83.543 52.1797 83.9922C51.6641 84.4375 50.9238 84.6602 49.959 84.6602H47.9492ZM47.9492 83.7402H49.9707C50.5723 83.7402 51.0332 83.5996 51.3535 83.3184C51.6738 83.0332 51.834 82.623 51.834 82.0879C51.834 81.5801 51.6738 81.1738 51.3535 80.8691C51.0332 80.5645 50.5938 80.4062 50.0352 80.3945H47.9492V83.7402ZM55.8477 79.4688L58.6367 86.4297L61.4258 79.4688H62.8848V88H61.7598V84.6777L61.8652 81.0918L59.0645 88H58.2031L55.4082 81.1094L55.5195 84.6777V88H54.3945V79.4688H55.8477Z" fill="#A3A3A3"/>
<path d="M41.4043 139.135H42.5879V140.02H41.4043V142H40.3145V140.02H36.4297V139.381L40.25 133.469H41.4043V139.135ZM37.6602 139.135H40.3145V134.951L40.1855 135.186L37.6602 139.135ZM47.9492 138.66V142H46.8242V133.469H49.9707C50.9043 133.469 51.6348 133.707 52.1621 134.184C52.6934 134.66 52.959 135.291 52.959 136.076C52.959 136.904 52.6992 137.543 52.1797 137.992C51.6641 138.438 50.9238 138.66 49.959 138.66H47.9492ZM47.9492 137.74H49.9707C50.5723 137.74 51.0332 137.6 51.3535 137.318C51.6738 137.033 51.834 136.623 51.834 136.088C51.834 135.58 51.6738 135.174 51.3535 134.869C51.0332 134.564 50.5938 134.406 50.0352 134.395H47.9492V137.74ZM55.8477 133.469L58.6367 140.43L61.4258 133.469H62.8848V142H61.7598V138.678L61.8652 135.092L59.0645 142H58.2031L55.4082 135.109L55.5195 138.678V142H54.3945V133.469H55.8477Z" fill="#A3A3A3"/>
<path d="M37.3262 191.723L37.7598 187.469H42.1309V188.471H38.6797L38.4219 190.797C38.8398 190.551 39.3145 190.428 39.8457 190.428C40.623 190.428 41.2402 190.686 41.6973 191.201C42.1543 191.713 42.3828 192.406 42.3828 193.281C42.3828 194.16 42.1445 194.854 41.668 195.361C41.1953 195.865 40.5332 196.117 39.6816 196.117C38.9277 196.117 38.3125 195.908 37.8359 195.49C37.3594 195.072 37.0879 194.494 37.0215 193.756H38.0469C38.1133 194.244 38.2871 194.613 38.5684 194.863C38.8496 195.109 39.2207 195.232 39.6816 195.232C40.1855 195.232 40.5801 195.061 40.8652 194.717C41.1543 194.373 41.2988 193.898 41.2988 193.293C41.2988 192.723 41.1426 192.266 40.8301 191.922C40.5215 191.574 40.1094 191.4 39.5938 191.4C39.1211 191.4 38.75 191.504 38.4805 191.711L38.1934 191.945L37.3262 191.723ZM47.9492 192.66V196H46.8242V187.469H49.9707C50.9043 187.469 51.6348 187.707 52.1621 188.184C52.6934 188.66 52.959 189.291 52.959 190.076C52.959 190.904 52.6992 191.543 52.1797 191.992C51.6641 192.438 50.9238 192.66 49.959 192.66H47.9492ZM47.9492 191.74H49.9707C50.5723 191.74 51.0332 191.6 51.3535 191.318C51.6738 191.033 51.834 190.623 51.834 190.088C51.834 189.58 51.6738 189.174 51.3535 188.869C51.0332 188.564 50.5938 188.406 50.0352 188.395H47.9492V191.74ZM55.8477 187.469L58.6367 194.43L61.4258 187.469H62.8848V196H61.7598V192.678L61.8652 189.092L59.0645 196H58.2031L55.4082 189.109L55.5195 192.678V196H54.3945V187.469H55.8477Z" fill="#A3A3A3"/>
<path d="M41.082 241.463V242.383H40.8828C40.0391 242.398 39.3672 242.648 38.8672 243.133C38.3672 243.617 38.0781 244.299 38 245.178C38.4492 244.662 39.0625 244.404 39.8398 244.404C40.582 244.404 41.1738 244.666 41.6152 245.189C42.0605 245.713 42.2832 246.389 42.2832 247.217C42.2832 248.096 42.043 248.799 41.5625 249.326C41.0859 249.854 40.4453 250.117 39.6406 250.117C38.8242 250.117 38.1621 249.805 37.6543 249.18C37.1465 248.551 36.8926 247.742 36.8926 246.754V246.338C36.8926 244.768 37.2266 243.568 37.8945 242.74C38.5664 241.908 39.5645 241.482 40.8887 241.463H41.082ZM39.6582 245.307C39.2871 245.307 38.9453 245.418 38.6328 245.641C38.3203 245.863 38.1035 246.143 37.9824 246.479V246.877C37.9824 247.58 38.1406 248.146 38.457 248.576C38.7734 249.006 39.168 249.221 39.6406 249.221C40.1289 249.221 40.5117 249.041 40.7891 248.682C41.0703 248.322 41.2109 247.852 41.2109 247.27C41.2109 246.684 41.0684 246.211 40.7832 245.852C40.502 245.488 40.127 245.307 39.6582 245.307ZM47.9492 246.66V250H46.8242V241.469H49.9707C50.9043 241.469 51.6348 241.707 52.1621 242.184C52.6934 242.66 52.959 243.291 52.959 244.076C52.959 244.904 52.6992 245.543 52.1797 245.992C51.6641 246.438 50.9238 246.66 49.959 246.66H47.9492ZM47.9492 245.74H49.9707C50.5723 245.74 51.0332 245.6 51.3535 245.318C51.6738 245.033 51.834 244.623 51.834 244.088C51.834 243.58 51.6738 243.174 51.3535 242.869C51.0332 242.564 50.5938 242.406 50.0352 242.395H47.9492V245.74ZM55.8477 241.469L58.6367 248.43L61.4258 241.469H62.8848V250H61.7598V246.678L61.8652 243.092L59.0645 250H58.2031L55.4082 243.109L55.5195 246.678V250H54.3945V241.469H55.8477Z" fill="#A3A3A3"/>
<path d="M42.3359 296.078L38.8027 304H37.666L41.1875 296.359H36.5703V295.469H42.3359V296.078ZM47.9492 300.66V304H46.8242V295.469H49.9707C50.9043 295.469 51.6348 295.707 52.1621 296.184C52.6934 296.66 52.959 297.291 52.959 298.076C52.959 298.904 52.6992 299.543 52.1797 299.992C51.6641 300.438 50.9238 300.66 49.959 300.66H47.9492ZM47.9492 299.74H49.9707C50.5723 299.74 51.0332 299.6 51.3535 299.318C51.6738 299.033 51.834 298.623 51.834 298.088C51.834 297.58 51.6738 297.174 51.3535 296.869C51.0332 296.564 50.5938 296.406 50.0352 296.395H47.9492V299.74ZM55.8477 295.469L58.6367 302.43L61.4258 295.469H62.8848V304H61.7598V300.678L61.8652 297.092L59.0645 304H58.2031L55.4082 297.109L55.5195 300.678V304H54.3945V295.469H55.8477Z" fill="#A3A3A3"/>
<g clip-path="url(#clip8)">
<rect x="14" y="96" width="375" height="325" fill="white"/>
<circle cx="62" cy="126" r="15" fill="#C4C4C4" fill-opacity="0.5" stroke="#C4C4C4" stroke-opacity="0.5" stroke-width="2"/>
<path d="M104.579 133H111.851V131.655H106.073V121.022H104.579V133ZM116.911 133.158C119.459 133.158 121.036 131.398 121.036 128.534V128.518C121.036 125.646 119.459 123.894 116.911 123.894C114.363 123.894 112.786 125.646 112.786 128.518V128.534C112.786 131.398 114.363 133.158 116.911 133.158ZM116.911 131.879C115.218 131.879 114.263 130.643 114.263 128.534V128.518C114.263 126.401 115.218 125.172 116.911 125.172C118.604 125.172 119.559 126.401 119.559 128.518V128.534C119.559 130.643 118.604 131.879 116.911 131.879ZM122.868 133H124.312V127.455C124.312 126.144 125.292 125.272 126.669 125.272C126.985 125.272 127.259 125.305 127.558 125.355V123.952C127.417 123.927 127.109 123.894 126.835 123.894C125.624 123.894 124.785 124.442 124.445 125.38H124.312V124.052H122.868V133ZM132.336 133.158C134.444 133.158 135.722 131.962 136.029 130.75L136.046 130.684H134.602L134.569 130.759C134.328 131.298 133.581 131.871 132.369 131.871C130.775 131.871 129.754 130.792 129.713 128.941H136.154V128.376C136.154 125.704 134.676 123.894 132.244 123.894C129.812 123.894 128.235 125.787 128.235 128.551V128.559C128.235 131.365 129.779 133.158 132.336 133.158ZM132.236 125.181C133.556 125.181 134.535 126.019 134.685 127.787H129.737C129.895 126.085 130.908 125.181 132.236 125.181ZM137.985 133H139.43V127.455C139.43 126.193 140.318 125.172 141.488 125.172C142.617 125.172 143.347 125.861 143.347 126.924V133H144.792V127.248C144.792 126.11 145.614 125.172 146.859 125.172C148.12 125.172 148.726 125.828 148.726 127.148V133H150.171V126.816C150.171 124.94 149.15 123.894 147.324 123.894C146.087 123.894 145.066 124.517 144.584 125.463H144.452C144.036 124.533 143.19 123.894 141.978 123.894C140.807 123.894 139.961 124.45 139.562 125.413H139.43V124.052H137.985V133ZM157.502 122.325C158.05 122.325 158.498 121.877 158.498 121.329C158.498 120.781 158.05 120.333 157.502 120.333C156.954 120.333 156.506 120.781 156.506 121.329C156.506 121.877 156.954 122.325 157.502 122.325ZM156.772 133H158.216V124.052H156.772V133ZM160.529 135.988H161.973V131.589H162.106C162.596 132.543 163.666 133.158 164.895 133.158C167.169 133.158 168.647 131.34 168.647 128.534V128.518C168.647 125.729 167.161 123.894 164.895 123.894C163.65 123.894 162.654 124.483 162.106 125.479H161.973V124.052H160.529V135.988ZM164.563 131.879C162.936 131.879 161.94 130.601 161.94 128.534V128.518C161.94 126.451 162.936 125.172 164.563 125.172C166.198 125.172 167.169 126.434 167.169 128.518V128.534C167.169 130.618 166.198 131.879 164.563 131.879ZM173.566 133.158C175.6 133.158 177.152 132.054 177.152 130.46V130.443C177.152 129.165 176.338 128.435 174.653 128.028L173.275 127.696C172.221 127.438 171.773 127.057 171.773 126.451V126.434C171.773 125.646 172.553 125.098 173.616 125.098C174.695 125.098 175.392 125.587 175.583 126.293H177.002C176.803 124.832 175.5 123.894 173.624 123.894C171.723 123.894 170.295 125.015 170.295 126.5V126.509C170.295 127.795 171.051 128.526 172.728 128.924L174.114 129.256C175.218 129.522 175.674 129.945 175.674 130.551V130.568C175.674 131.381 174.819 131.954 173.616 131.954C172.47 131.954 171.756 131.464 171.516 130.717H170.038C170.204 132.195 171.574 133.158 173.566 133.158ZM181.98 133.158C183.291 133.158 184.196 132.618 184.636 131.664H184.769V133H186.213V124.052H184.769V129.348C184.769 130.917 183.93 131.879 182.353 131.879C180.925 131.879 180.344 131.107 180.344 129.497V124.052H178.9V129.846C178.9 131.962 179.946 133.158 181.98 133.158ZM188.501 133H189.945V127.455C189.945 126.193 190.833 125.172 192.004 125.172C193.133 125.172 193.863 125.861 193.863 126.924V133H195.307V127.248C195.307 126.11 196.129 125.172 197.374 125.172C198.636 125.172 199.242 125.828 199.242 127.148V133H200.686V126.816C200.686 124.94 199.665 123.894 197.839 123.894C196.602 123.894 195.581 124.517 195.1 125.463H194.967C194.552 124.533 193.705 123.894 192.493 123.894C191.323 123.894 190.476 124.45 190.078 125.413H189.945V124.052H188.501V133Z" fill="#A3A3A3"/>
<line x1="103" y1="152.75" x2="388" y2="152.75" stroke="black" stroke-opacity="0.35" stroke-width="0.5"/>
<circle cx="62" cy="188" r="15" stroke="#C4C4C4" stroke-width="2"/>
<path d="M104.579 195H111.851V193.655H106.073V183.022H104.579V195ZM116.911 195.158C119.459 195.158 121.036 193.398 121.036 190.534V190.518C121.036 187.646 119.459 185.894 116.911 185.894C114.363 185.894 112.786 187.646 112.786 190.518V190.534C112.786 193.398 114.363 195.158 116.911 195.158ZM116.911 193.879C115.218 193.879 114.263 192.643 114.263 190.534V190.518C114.263 188.401 115.218 187.172 116.911 187.172C118.604 187.172 119.559 188.401 119.559 190.518V190.534C119.559 192.643 118.604 193.879 116.911 193.879ZM122.868 195H124.312V189.455C124.312 188.144 125.292 187.272 126.669 187.272C126.985 187.272 127.259 187.305 127.558 187.355V185.952C127.417 185.927 127.109 185.894 126.835 185.894C125.624 185.894 124.785 186.442 124.445 187.38H124.312V186.052H122.868V195ZM132.336 195.158C134.444 195.158 135.722 193.962 136.029 192.75L136.046 192.684H134.602L134.569 192.759C134.328 193.298 133.581 193.871 132.369 193.871C130.775 193.871 129.754 192.792 129.713 190.941H136.154V190.376C136.154 187.704 134.676 185.894 132.244 185.894C129.812 185.894 128.235 187.787 128.235 190.551V190.559C128.235 193.365 129.779 195.158 132.336 195.158ZM132.236 187.181C133.556 187.181 134.535 188.019 134.685 189.787H129.737C129.895 188.085 130.908 187.181 132.236 187.181ZM137.985 195H139.43V189.455C139.43 188.193 140.318 187.172 141.488 187.172C142.617 187.172 143.347 187.861 143.347 188.924V195H144.792V189.248C144.792 188.11 145.614 187.172 146.859 187.172C148.12 187.172 148.726 187.828 148.726 189.148V195H150.171V188.816C150.171 186.94 149.15 185.894 147.324 185.894C146.087 185.894 145.066 186.517 144.584 187.463H144.452C144.036 186.533 143.19 185.894 141.978 185.894C140.807 185.894 139.961 186.45 139.562 187.413H139.43V186.052H137.985V195ZM157.502 184.325C158.05 184.325 158.498 183.877 158.498 183.329C158.498 182.781 158.05 182.333 157.502 182.333C156.954 182.333 156.506 182.781 156.506 183.329C156.506 183.877 156.954 184.325 157.502 184.325ZM156.772 195H158.216V186.052H156.772V195ZM160.529 197.988H161.973V193.589H162.106C162.596 194.543 163.666 195.158 164.895 195.158C167.169 195.158 168.647 193.34 168.647 190.534V190.518C168.647 187.729 167.161 185.894 164.895 185.894C163.65 185.894 162.654 186.483 162.106 187.479H161.973V186.052H160.529V197.988ZM164.563 193.879C162.936 193.879 161.94 192.601 161.94 190.534V190.518C161.94 188.451 162.936 187.172 164.563 187.172C166.198 187.172 167.169 188.434 167.169 190.518V190.534C167.169 192.618 166.198 193.879 164.563 193.879ZM173.566 195.158C175.6 195.158 177.152 194.054 177.152 192.46V192.443C177.152 191.165 176.338 190.435 174.653 190.028L173.275 189.696C172.221 189.438 171.773 189.057 171.773 188.451V188.434C171.773 187.646 172.553 187.098 173.616 187.098C174.695 187.098 175.392 187.587 175.583 188.293H177.002C176.803 186.832 175.5 185.894 173.624 185.894C171.723 185.894 170.295 187.015 170.295 188.5V188.509C170.295 189.795 171.051 190.526 172.728 190.924L174.114 191.256C175.218 191.522 175.674 191.945 175.674 192.551V192.568C175.674 193.381 174.819 193.954 173.616 193.954C172.47 193.954 171.756 193.464 171.516 192.717H170.038C170.204 194.195 171.574 195.158 173.566 195.158ZM181.98 195.158C183.291 195.158 184.196 194.618 184.636 193.664H184.769V195H186.213V186.052H184.769V191.348C184.769 192.917 183.93 193.879 182.353 193.879C180.925 193.879 180.344 193.107 180.344 191.497V186.052H178.9V191.846C178.9 193.962 179.946 195.158 181.98 195.158ZM188.501 195H189.945V189.455C189.945 188.193 190.833 187.172 192.004 187.172C193.133 187.172 193.863 187.861 193.863 188.924V195H195.307V189.248C195.307 188.11 196.129 187.172 197.374 187.172C198.636 187.172 199.242 187.828 199.242 189.148V195H200.686V188.816C200.686 186.94 199.665 185.894 197.839 185.894C196.602 185.894 195.581 186.517 195.1 187.463H194.967C194.552 186.533 193.705 185.894 192.493 185.894C191.323 185.894 190.476 186.45 190.078 187.413H189.945V186.052H188.501V195Z" fill="black"/>
<line x1="103" y1="214.75" x2="388" y2="214.75" stroke="black" stroke-opacity="0.35" stroke-width="0.5"/>
<circle cx="62" cy="250" r="15" stroke="#C4C4C4" stroke-width="2"/>
<path d="M104.579 257H111.851V255.655H106.073V245.022H104.579V257ZM116.911 257.158C119.459 257.158 121.036 255.398 121.036 252.534V252.518C121.036 249.646 119.459 247.894 116.911 247.894C114.363 247.894 112.786 249.646 112.786 252.518V252.534C112.786 255.398 114.363 257.158 116.911 257.158ZM116.911 255.879C115.218 255.879 114.263 254.643 114.263 252.534V252.518C114.263 250.401 115.218 249.172 116.911 249.172C118.604 249.172 119.559 250.401 119.559 252.518V252.534C119.559 254.643 118.604 255.879 116.911 255.879ZM122.868 257H124.312V251.455C124.312 250.144 125.292 249.272 126.669 249.272C126.985 249.272 127.259 249.305 127.558 249.355V247.952C127.417 247.927 127.109 247.894 126.835 247.894C125.624 247.894 124.785 248.442 124.445 249.38H124.312V248.052H122.868V257ZM132.336 257.158C134.444 257.158 135.722 255.962 136.029 254.75L136.046 254.684H134.602L134.569 254.759C134.328 255.298 133.581 255.871 132.369 255.871C130.775 255.871 129.754 254.792 129.713 252.941H136.154V252.376C136.154 249.704 134.676 247.894 132.244 247.894C129.812 247.894 128.235 249.787 128.235 252.551V252.559C128.235 255.365 129.779 257.158 132.336 257.158ZM132.236 249.181C133.556 249.181 134.535 250.019 134.685 251.787H129.737C129.895 250.085 130.908 249.181 132.236 249.181ZM137.985 257H139.43V251.455C139.43 250.193 140.318 249.172 141.488 249.172C142.617 249.172 143.347 249.861 143.347 250.924V257H144.792V251.248C144.792 250.11 145.614 249.172 146.859 249.172C148.12 249.172 148.726 249.828 148.726 251.148V257H150.171V250.816C150.171 248.94 149.15 247.894 147.324 247.894C146.087 247.894 145.066 248.517 144.584 249.463H144.452C144.036 248.533 143.19 247.894 141.978 247.894C140.807 247.894 139.961 248.45 139.562 249.413H139.43V248.052H137.985V257ZM157.502 246.325C158.05 246.325 158.498 245.877 158.498 245.329C158.498 244.781 158.05 244.333 157.502 244.333C156.954 244.333 156.506 244.781 156.506 245.329C156.506 245.877 156.954 246.325 157.502 246.325ZM156.772 257H158.216V248.052H156.772V257ZM160.529 259.988H161.973V255.589H162.106C162.596 256.543 163.666 257.158 164.895 257.158C167.169 257.158 168.647 255.34 168.647 252.534V252.518C168.647 249.729 167.161 247.894 164.895 247.894C163.65 247.894 162.654 248.483 162.106 249.479H161.973V248.052H160.529V259.988ZM164.563 255.879C162.936 255.879 161.94 254.601 161.94 252.534V252.518C161.94 250.451 162.936 249.172 164.563 249.172C166.198 249.172 167.169 250.434 167.169 252.518V252.534C167.169 254.618 166.198 255.879 164.563 255.879ZM173.566 257.158C175.6 257.158 177.152 256.054 177.152 254.46V254.443C177.152 253.165 176.338 252.435 174.653 252.028L173.275 251.696C172.221 251.438 171.773 251.057 171.773 250.451V250.434C171.773 249.646 172.553 249.098 173.616 249.098C174.695 249.098 175.392 249.587 175.583 250.293H177.002C176.803 248.832 175.5 247.894 173.624 247.894C171.723 247.894 170.295 249.015 170.295 250.5V250.509C170.295 251.795 171.051 252.526 172.728 252.924L174.114 253.256C175.218 253.522 175.674 253.945 175.674 254.551V254.568C175.674 255.381 174.819 255.954 173.616 255.954C172.47 255.954 171.756 255.464 171.516 254.717H170.038C170.204 256.195 171.574 257.158 173.566 257.158ZM181.98 257.158C183.291 257.158 184.196 256.618 184.636 255.664H184.769V257H186.213V248.052H184.769V253.348C184.769 254.917 183.93 255.879 182.353 255.879C180.925 255.879 180.344 255.107 180.344 253.497V248.052H178.9V253.846C178.9 255.962 179.946 257.158 181.98 257.158ZM188.501 257H189.945V251.455C189.945 250.193 190.833 249.172 192.004 249.172C193.133 249.172 193.863 249.861 193.863 250.924V257H195.307V251.248C195.307 250.11 196.129 249.172 197.374 249.172C198.636 249.172 199.242 249.828 199.242 251.148V257H200.686V250.816C200.686 248.94 199.665 247.894 197.839 247.894C196.602 247.894 195.581 248.517 195.1 249.463H194.967C194.552 248.533 193.705 247.894 192.493 247.894C191.323 247.894 190.476 248.45 190.078 249.413H189.945V248.052H188.501V257Z" fill="black"/>
<line x1="103" y1="276.75" x2="388" y2="276.75" stroke="black" stroke-opacity="0.35" stroke-width="0.5"/>
<circle cx="62" cy="312" r="15" stroke="#C4C4C4" stroke-width="2"/>
</g>
<rect x="14" y="62" width="375" height="34" fill="#EBEBEB"/>
<path d="M37.6315 85H40.1383V75.0889H43.7326V73.022H34.0372V75.0889H37.6315V85ZM46.2112 85.1411C47.4065 85.1411 48.3694 84.6348 48.8343 83.7881H48.9837V85H51.3743V78.7578C51.3743 76.8071 50.0047 75.6616 47.5809 75.6616C45.2815 75.6616 43.7708 76.7241 43.5799 78.3262L43.5716 78.4009H45.8128L45.8294 78.3677C46.0203 77.8281 46.5765 77.521 47.448 77.521C48.4441 77.521 48.9837 77.9692 48.9837 78.7578V79.5132L46.7757 79.646C44.5013 79.7788 43.2313 80.7417 43.2313 82.3853V82.4019C43.2313 84.062 44.4681 85.1411 46.2112 85.1411ZM45.597 82.2524V82.2358C45.597 81.5718 46.1033 81.1816 47.1409 81.1152L48.9837 80.999V81.6714C48.9837 82.6343 48.1453 83.373 47.0247 83.373C46.1863 83.373 45.597 82.9497 45.597 82.2524ZM56.9741 85.1909C59.3149 85.1909 60.9834 84.0122 60.9834 82.2026V82.1943C60.9834 80.8413 60.1284 80.0776 58.3022 79.6875L56.7832 79.3638C55.8369 79.1562 55.4965 78.874 55.4965 78.3843V78.376C55.4965 77.7617 56.0942 77.3716 56.9326 77.3716C57.8374 77.3716 58.3769 77.8281 58.5097 78.3179L58.518 78.3594H60.7675V78.3262C60.6679 76.8569 59.3398 75.6616 56.9409 75.6616C54.6582 75.6616 53.1308 76.8071 53.1308 78.5254V78.5337C53.1308 79.9033 53.9941 80.7583 55.7373 81.1318L57.2646 81.4556C58.1943 81.6631 58.5595 81.9702 58.5595 82.46V82.4766C58.5595 83.0825 57.9287 83.481 56.999 83.481C56.0444 83.481 55.4882 83.0742 55.2973 82.5098L55.2807 82.4766H52.8984L52.9067 82.5098C53.081 84.0786 54.4921 85.1909 56.9741 85.1909ZM62.6403 85H65.0641V81.937L65.7281 81.2314L68.3927 85H71.2565L67.5045 79.7373L71.0157 75.8608H68.2682L65.2135 79.4717H65.0641V72.3662H62.6403V85ZM75.6277 85.1909C77.9685 85.1909 79.637 84.0122 79.637 82.2026V82.1943C79.637 80.8413 78.782 80.0776 76.9558 79.6875L75.4368 79.3638C74.4905 79.1562 74.1502 78.874 74.1502 78.3843V78.376C74.1502 77.7617 74.7478 77.3716 75.5862 77.3716C76.491 77.3716 77.0305 77.8281 77.1634 78.3179L77.1717 78.3594H79.4212V78.3262C79.3216 76.8569 77.9934 75.6616 75.5945 75.6616C73.3118 75.6616 71.7845 76.8071 71.7845 78.5254V78.5337C71.7845 79.9033 72.6477 80.7583 74.3909 81.1318L75.9182 81.4556C76.8479 81.6631 77.2132 81.9702 77.2132 82.46V82.4766C77.2132 83.0825 76.5823 83.481 75.6526 83.481C74.698 83.481 74.1419 83.0742 73.951 82.5098L73.9344 82.4766H71.552L71.5603 82.5098C71.7346 84.0786 73.1458 85.1909 75.6277 85.1909ZM85.8893 85H88.3131V77.687H90.1974V75.8608H88.2633V75.1719C88.2633 74.375 88.6119 73.9351 89.5499 73.9351C89.8653 73.9351 90.1227 73.96 90.2721 73.9849V72.3662C89.9234 72.3164 89.5167 72.2749 89.027 72.2749C86.8189 72.2749 85.8893 73.188 85.8893 75.0059V75.8608H84.4117V77.687H85.8893V85ZM95.4568 85.1909C98.2708 85.1909 99.9641 83.4146 99.9641 80.4346V80.418C99.9641 77.4629 98.2459 75.6616 95.4568 75.6616C92.6677 75.6616 90.9495 77.4712 90.9495 80.418V80.4346C90.9495 83.4062 92.6428 85.1909 95.4568 85.1909ZM95.4568 83.29C94.1619 83.29 93.4314 82.2358 93.4314 80.4346V80.418C93.4314 78.6333 94.1702 77.5625 95.4568 77.5625C96.7351 77.5625 97.4822 78.6333 97.4822 80.418V80.4346C97.4822 82.2358 96.7434 83.29 95.4568 83.29ZM101.53 85H103.954V79.8867C103.954 78.5918 104.825 77.8032 106.203 77.8032C106.577 77.8032 106.95 77.8613 107.315 77.9443V75.8276C107.075 75.7612 106.734 75.7114 106.411 75.7114C105.224 75.7114 104.393 76.2925 104.103 77.2803H103.954V75.8608H101.53V85ZM116.29 85.0332C116.755 85.0332 117.203 84.9834 117.502 84.9253V83.124C117.27 83.1489 117.104 83.1655 116.788 83.1655C115.967 83.1655 115.618 82.8003 115.618 81.9785V77.687H117.502V75.8608H115.618V73.6777H113.169V75.8608H111.758V77.687H113.169V82.5347C113.169 84.311 114.066 85.0332 116.29 85.0332ZM119.192 85H121.616V79.7124C121.616 78.4756 122.297 77.6704 123.417 77.6704C124.563 77.6704 125.094 78.3511 125.094 79.6377V85H127.518V79.0898C127.518 76.9067 126.422 75.6616 124.389 75.6616C123.085 75.6616 122.181 76.2842 121.766 77.272H121.616V72.3662H119.192V85ZM133.475 85.1909C136.148 85.1909 137.326 83.647 137.608 82.5015L137.625 82.4185H135.367L135.342 82.4683C135.176 82.8169 134.587 83.3813 133.524 83.3813C132.238 83.3813 131.433 82.5098 131.408 81.0073H137.7V80.252C137.7 77.4878 136.04 75.6616 133.375 75.6616C130.711 75.6616 129.009 77.5293 129.009 80.4346V80.4429C129.009 83.373 130.694 85.1909 133.475 85.1909ZM133.417 77.4795C134.471 77.4795 135.226 78.1602 135.376 79.4883H131.433C131.582 78.1934 132.362 77.4795 133.417 77.4795ZM146.509 85.1411C147.795 85.1411 148.766 84.5684 149.24 83.5806H149.389V85H151.813V72.3662H149.389V77.3218H149.24C148.783 76.3257 147.762 75.7114 146.509 75.7114C144.193 75.7114 142.798 77.4795 142.798 80.418V80.4346C142.798 83.3564 144.226 85.1411 146.509 85.1411ZM147.33 83.1323C146.052 83.1323 145.264 82.1196 145.264 80.4346V80.418C145.264 78.7495 146.052 77.7202 147.33 77.7202C148.609 77.7202 149.414 78.7495 149.414 80.4263V80.4429C149.414 82.1196 148.617 83.1323 147.33 83.1323ZM156.4 85.1411C157.595 85.1411 158.558 84.6348 159.023 83.7881H159.172V85H161.563V78.7578C161.563 76.8071 160.193 75.6616 157.77 75.6616C155.47 75.6616 153.96 76.7241 153.769 78.3262L153.76 78.4009H156.002L156.018 78.3677C156.209 77.8281 156.765 77.521 157.637 77.521C158.633 77.521 159.172 77.9692 159.172 78.7578V79.5132L156.964 79.646C154.69 79.7788 153.42 80.7417 153.42 82.3853V82.4019C153.42 84.062 154.657 85.1411 156.4 85.1411ZM155.786 82.2524V82.2358C155.786 81.5718 156.292 81.1816 157.33 81.1152L159.172 80.999V81.6714C159.172 82.6343 158.334 83.373 157.213 83.373C156.375 83.373 155.786 82.9497 155.786 82.2524ZM164.365 88.2207C166.623 88.2207 167.827 87.4072 168.64 84.9917L171.753 75.8608H169.196L167.279 82.7837H167.113L165.196 75.8608H162.531L165.743 85L165.66 85.3486C165.486 86.0625 164.988 86.3945 164.125 86.3945C163.901 86.3945 163.66 86.3862 163.494 86.3696V88.1958C163.776 88.2124 164.083 88.2207 164.365 88.2207ZM174.771 79.1978C175.626 79.1978 176.232 78.5752 176.232 77.7534C176.232 76.9316 175.626 76.3174 174.771 76.3174C173.925 76.3174 173.31 76.9316 173.31 77.7534C173.31 78.5752 173.925 79.1978 174.771 79.1978ZM174.771 85.2075C175.626 85.2075 176.232 84.585 176.232 83.7632C176.232 82.9414 175.626 82.3271 174.771 82.3271C173.925 82.3271 173.31 82.9414 173.31 83.7632C173.31 84.585 173.925 85.2075 174.771 85.2075Z" fill="#EB4D3D"/>
</g>
</g>
<path d="M5.496 348.746C5.46 348.806 5.42 348.852 5.376 348.884C5.336 348.912 5.286 348.926 5.226 348.926C5.158 348.926 5.078 348.892 4.986 348.824C4.894 348.756 4.778 348.682 4.638 348.602C4.502 348.518 4.336 348.442 4.14 348.374C3.948 348.306 3.714 348.272 3.438 348.272C3.178 348.272 2.948 348.308 2.748 348.38C2.552 348.448 2.386 348.542 2.25 348.662C2.118 348.782 2.018 348.924 1.95 349.088C1.882 349.248 1.848 349.422 1.848 349.61C1.848 349.85 1.906 350.05 2.022 350.21C2.142 350.366 2.298 350.5 2.49 350.612C2.686 350.724 2.906 350.822 3.15 350.906C3.398 350.986 3.65 351.07 3.906 351.158C4.166 351.246 4.418 351.346 4.662 351.458C4.91 351.566 5.13 351.704 5.322 351.872C5.518 352.04 5.674 352.246 5.79 352.49C5.91 352.734 5.97 353.034 5.97 353.39C5.97 353.766 5.906 354.12 5.778 354.452C5.65 354.78 5.462 355.066 5.214 355.31C4.97 355.554 4.668 355.746 4.308 355.886C3.952 356.026 3.546 356.096 3.09 356.096C2.53 356.096 2.022 355.996 1.566 355.796C1.11 355.592 0.72 355.318 0.396 354.974L0.732 354.422C0.764 354.378 0.802 354.342 0.846 354.314C0.894 354.282 0.946 354.266 1.002 354.266C1.054 354.266 1.112 354.288 1.176 354.332C1.244 354.372 1.32 354.424 1.404 354.488C1.488 354.552 1.584 354.622 1.692 354.698C1.8 354.774 1.922 354.844 2.058 354.908C2.198 354.972 2.356 355.026 2.532 355.07C2.708 355.11 2.906 355.13 3.126 355.13C3.402 355.13 3.648 355.092 3.864 355.016C4.08 354.94 4.262 354.834 4.41 354.698C4.562 354.558 4.678 354.392 4.758 354.2C4.838 354.008 4.878 353.794 4.878 353.558C4.878 353.298 4.818 353.086 4.698 352.922C4.582 352.754 4.428 352.614 4.236 352.502C4.044 352.39 3.824 352.296 3.576 352.22C3.328 352.14 3.076 352.06 2.82 351.98C2.564 351.896 2.312 351.8 2.064 351.692C1.816 351.584 1.596 351.444 1.404 351.272C1.212 351.1 1.056 350.886 0.936 350.63C0.82 350.37 0.762 350.05 0.762 349.67C0.762 349.366 0.82 349.072 0.936 348.788C1.056 348.504 1.228 348.252 1.452 348.032C1.68 347.812 1.958 347.636 2.286 347.504C2.618 347.372 2.998 347.306 3.426 347.306C3.906 347.306 4.342 347.382 4.734 347.534C5.13 347.686 5.478 347.906 5.778 348.194L5.496 348.746ZM8.30672 354.536C8.50272 354.8 8.71672 354.986 8.94872 355.094C9.18072 355.202 9.44072 355.256 9.72872 355.256C10.2967 355.256 10.7327 355.054 11.0367 354.65C11.3407 354.246 11.4927 353.67 11.4927 352.922C11.4927 352.526 11.4567 352.186 11.3847 351.902C11.3167 351.618 11.2167 351.386 11.0847 351.206C10.9527 351.022 10.7907 350.888 10.5987 350.804C10.4067 350.72 10.1887 350.678 9.94472 350.678C9.59672 350.678 9.29072 350.758 9.02672 350.918C8.76672 351.078 8.52672 351.304 8.30672 351.596V354.536ZM8.25272 350.864C8.50872 350.548 8.80472 350.294 9.14072 350.102C9.47672 349.91 9.86072 349.814 10.2927 349.814C10.6447 349.814 10.9627 349.882 11.2467 350.018C11.5307 350.15 11.7727 350.348 11.9727 350.612C12.1727 350.872 12.3267 351.196 12.4347 351.584C12.5427 351.972 12.5967 352.418 12.5967 352.922C12.5967 353.37 12.5367 353.788 12.4167 354.176C12.2967 354.56 12.1227 354.894 11.8947 355.178C11.6707 355.458 11.3947 355.68 11.0667 355.844C10.7427 356.004 10.3767 356.084 9.96872 356.084C9.59672 356.084 9.27672 356.022 9.00872 355.898C8.74472 355.77 8.51072 355.594 8.30672 355.37V358.058H7.23272V349.922H7.87472C8.02672 349.922 8.12072 349.996 8.15672 350.144L8.25272 350.864ZM15.0633 347.162V356H13.9953V347.162H15.0633ZM17.9232 349.922V356H16.8552V349.922H17.9232ZM18.1512 348.014C18.1512 348.118 18.1292 348.216 18.0852 348.308C18.0452 348.396 17.9892 348.476 17.9172 348.548C17.8492 348.616 17.7672 348.67 17.6712 348.71C17.5792 348.75 17.4812 348.77 17.3772 348.77C17.2732 348.77 17.1752 348.75 17.0832 348.71C16.9952 348.67 16.9172 348.616 16.8492 348.548C16.7812 348.476 16.7272 348.396 16.6872 348.308C16.6472 348.216 16.6272 348.118 16.6272 348.014C16.6272 347.91 16.6472 347.812 16.6872 347.72C16.7272 347.624 16.7812 347.542 16.8492 347.474C16.9172 347.402 16.9952 347.346 17.0832 347.306C17.1752 347.266 17.2732 347.246 17.3772 347.246C17.4812 347.246 17.5792 347.266 17.6712 347.306C17.7672 347.346 17.8492 347.402 17.9172 347.474C17.9892 347.542 18.0452 347.624 18.0852 347.72C18.1292 347.812 18.1512 347.91 18.1512 348.014ZM21.544 356.096C21.064 356.096 20.694 355.962 20.434 355.694C20.178 355.426 20.05 355.04 20.05 354.536V350.816H19.318C19.254 350.816 19.2 350.798 19.156 350.762C19.112 350.722 19.09 350.662 19.09 350.582V350.156L20.086 350.03L20.332 348.152C20.344 348.092 20.37 348.044 20.41 348.008C20.454 347.968 20.51 347.948 20.578 347.948H21.118V350.042H22.876V350.816H21.118V354.464C21.118 354.72 21.18 354.91 21.304 355.034C21.428 355.158 21.588 355.22 21.784 355.22C21.896 355.22 21.992 355.206 22.072 355.178C22.156 355.146 22.228 355.112 22.288 355.076C22.348 355.04 22.398 355.008 22.438 354.98C22.482 354.948 22.52 354.932 22.552 354.932C22.608 354.932 22.658 354.966 22.702 355.034L23.014 355.544C22.83 355.716 22.608 355.852 22.348 355.952C22.088 356.048 21.82 356.096 21.544 356.096ZM31.2791 351.002C31.2471 351.046 31.2151 351.08 31.1831 351.104C31.1511 351.128 31.1071 351.14 31.0511 351.14C30.9911 351.14 30.9251 351.116 30.8531 351.068C30.7811 351.016 30.6911 350.96 30.5831 350.9C30.4791 350.84 30.3491 350.786 30.1931 350.738C30.0411 350.686 29.8531 350.66 29.6291 350.66C29.3291 350.66 29.0651 350.714 28.8371 350.822C28.6091 350.926 28.4171 351.078 28.2611 351.278C28.1091 351.478 27.9931 351.72 27.9131 352.004C27.8371 352.288 27.7991 352.606 27.7991 352.958C27.7991 353.326 27.8411 353.654 27.9251 353.942C28.0091 354.226 28.1271 354.466 28.2791 354.662C28.4351 354.854 28.6211 355.002 28.8371 355.106C29.0571 355.206 29.3031 355.256 29.5751 355.256C29.8351 355.256 30.0491 355.226 30.2171 355.166C30.3851 355.102 30.5231 355.032 30.6311 354.956C30.7431 354.88 30.8351 354.812 30.9071 354.752C30.9831 354.688 31.0571 354.656 31.1291 354.656C31.2171 354.656 31.2851 354.69 31.3331 354.758L31.6331 355.148C31.5011 355.312 31.3511 355.452 31.1831 355.568C31.0151 355.684 30.8331 355.782 30.6371 355.862C30.4451 355.938 30.2431 355.994 30.0311 356.03C29.8191 356.066 29.6031 356.084 29.3831 356.084C29.0031 356.084 28.6491 356.014 28.3211 355.874C27.9971 355.734 27.7151 355.532 27.4751 355.268C27.2351 355 27.0471 354.672 26.9111 354.284C26.7751 353.896 26.7071 353.454 26.7071 352.958C26.7071 352.506 26.7691 352.088 26.8931 351.704C27.0211 351.32 27.2051 350.99 27.4451 350.714C27.6891 350.434 27.9871 350.216 28.3391 350.06C28.6951 349.904 29.1031 349.826 29.5631 349.826C29.9911 349.826 30.3671 349.896 30.6911 350.036C31.0191 350.172 31.3091 350.366 31.5611 350.618L31.2791 351.002ZM36.0736 353.264C35.5816 353.28 35.1616 353.32 34.8136 353.384C34.4696 353.444 34.1876 353.524 33.9676 353.624C33.7516 353.724 33.5936 353.842 33.4936 353.978C33.3976 354.114 33.3496 354.266 33.3496 354.434C33.3496 354.594 33.3756 354.732 33.4276 354.848C33.4796 354.964 33.5496 355.06 33.6376 355.136C33.7296 355.208 33.8356 355.262 33.9556 355.298C34.0796 355.33 34.2116 355.346 34.3516 355.346C34.5396 355.346 34.7116 355.328 34.8676 355.292C35.0236 355.252 35.1696 355.196 35.3056 355.124C35.4456 355.052 35.5776 354.966 35.7016 354.866C35.8296 354.766 35.9536 354.652 36.0736 354.524V353.264ZM32.6236 350.78C32.9596 350.456 33.3216 350.214 33.7096 350.054C34.0976 349.894 34.5276 349.814 34.9996 349.814C35.3396 349.814 35.6416 349.87 35.9056 349.982C36.1696 350.094 36.3916 350.25 36.5716 350.45C36.7516 350.65 36.8876 350.892 36.9796 351.176C37.0716 351.46 37.1176 351.772 37.1176 352.112V356H36.6436C36.5396 356 36.4596 355.984 36.4036 355.952C36.3476 355.916 36.3036 355.848 36.2716 355.748L36.1516 355.172C35.9916 355.32 35.8356 355.452 35.6836 355.568C35.5316 355.68 35.3716 355.776 35.2036 355.856C35.0356 355.932 34.8556 355.99 34.6636 356.03C34.4756 356.074 34.2656 356.096 34.0336 356.096C33.7976 356.096 33.5756 356.064 33.3676 356C33.1596 355.932 32.9776 355.832 32.8216 355.7C32.6696 355.568 32.5476 355.402 32.4556 355.202C32.3676 354.998 32.3236 354.758 32.3236 354.482C32.3236 354.242 32.3896 354.012 32.5216 353.792C32.6536 353.568 32.8676 353.37 33.1636 353.198C33.4596 353.026 33.8456 352.886 34.3216 352.778C34.7976 352.666 35.3816 352.602 36.0736 352.586V352.112C36.0736 351.64 35.9716 351.284 35.7676 351.044C35.5636 350.8 35.2656 350.678 34.8736 350.678C34.6096 350.678 34.3876 350.712 34.2076 350.78C34.0316 350.844 33.8776 350.918 33.7456 351.002C33.6176 351.082 33.5056 351.156 33.4096 351.224C33.3176 351.288 33.2256 351.32 33.1336 351.32C33.0616 351.32 32.9996 351.302 32.9476 351.266C32.8956 351.226 32.8516 351.178 32.8156 351.122L32.6236 350.78ZM39.8484 347.162V356H38.7804V347.162H39.8484ZM45.6484 352.298C45.6484 352.05 45.6124 351.824 45.5404 351.62C45.4724 351.412 45.3704 351.234 45.2344 351.086C45.1024 350.934 44.9404 350.818 44.7484 350.738C44.5564 350.654 44.3384 350.612 44.0944 350.612C43.5824 350.612 43.1764 350.762 42.8764 351.062C42.5804 351.358 42.3964 351.77 42.3244 352.298H45.6484ZM46.5124 355.148C46.3804 355.308 46.2224 355.448 46.0384 355.568C45.8544 355.684 45.6564 355.78 45.4444 355.856C45.2364 355.932 45.0204 355.988 44.7964 356.024C44.5724 356.064 44.3504 356.084 44.1304 356.084C43.7104 356.084 43.3224 356.014 42.9664 355.874C42.6144 355.73 42.3084 355.522 42.0484 355.25C41.7924 354.974 41.5924 354.634 41.4484 354.23C41.3044 353.826 41.2324 353.362 41.2324 352.838C41.2324 352.414 41.2964 352.018 41.4244 351.65C41.5564 351.282 41.7444 350.964 41.9884 350.696C42.2324 350.424 42.5304 350.212 42.8824 350.06C43.2344 349.904 43.6304 349.826 44.0704 349.826C44.4344 349.826 44.7704 349.888 45.0784 350.012C45.3904 350.132 45.6584 350.308 45.8824 350.54C46.1104 350.768 46.2884 351.052 46.4164 351.392C46.5444 351.728 46.6084 352.112 46.6084 352.544C46.6084 352.712 46.5904 352.824 46.5544 352.88C46.5184 352.936 46.4504 352.964 46.3504 352.964H42.2884C42.3004 353.348 42.3524 353.682 42.4444 353.966C42.5404 354.25 42.6724 354.488 42.8404 354.68C43.0084 354.868 43.2084 355.01 43.4404 355.106C43.6724 355.198 43.9324 355.244 44.2204 355.244C44.4884 355.244 44.7184 355.214 44.9104 355.154C45.1064 355.09 45.2744 355.022 45.4144 354.95C45.5544 354.878 45.6704 354.812 45.7624 354.752C45.8584 354.688 45.9404 354.656 46.0084 354.656C46.0964 354.656 46.1644 354.69 46.2124 354.758L46.5124 355.148ZM48.9282 350.804C49.0602 350.656 49.2002 350.522 49.3482 350.402C49.4962 350.282 49.6522 350.18 49.8162 350.096C49.9842 350.008 50.1602 349.942 50.3442 349.898C50.5322 349.85 50.7342 349.826 50.9502 349.826C51.2822 349.826 51.5742 349.882 51.8262 349.994C52.0822 350.102 52.2942 350.258 52.4622 350.462C52.6342 350.662 52.7642 350.904 52.8522 351.188C52.9402 351.472 52.9842 351.786 52.9842 352.13V356H51.9102V352.13C51.9102 351.67 51.8042 351.314 51.5922 351.062C51.3842 350.806 51.0662 350.678 50.6382 350.678C50.3222 350.678 50.0262 350.754 49.7502 350.906C49.4782 351.058 49.2262 351.264 48.9942 351.524V356H47.9202V349.922H48.5622C48.7142 349.922 48.8082 349.996 48.8442 350.144L48.9282 350.804ZM58.5716 351.368C58.3716 351.1 58.1556 350.914 57.9236 350.81C57.6916 350.702 57.4316 350.648 57.1436 350.648C56.5796 350.648 56.1456 350.85 55.8416 351.254C55.5376 351.658 55.3856 352.234 55.3856 352.982C55.3856 353.378 55.4196 353.718 55.4876 354.002C55.5556 354.282 55.6556 354.514 55.7876 354.698C55.9196 354.878 56.0816 355.01 56.2736 355.094C56.4656 355.178 56.6836 355.22 56.9276 355.22C57.2796 355.22 57.5856 355.14 57.8456 354.98C58.1096 354.82 58.3516 354.594 58.5716 354.302V351.368ZM59.6396 347.162V356H59.0036C58.8516 356 58.7556 355.926 58.7156 355.778L58.6196 355.04C58.3596 355.352 58.0636 355.604 57.7316 355.796C57.3996 355.988 57.0156 356.084 56.5796 356.084C56.2316 356.084 55.9156 356.018 55.6316 355.886C55.3476 355.75 55.1056 355.552 54.9056 355.292C54.7056 355.032 54.5516 354.708 54.4436 354.32C54.3356 353.932 54.2816 353.486 54.2816 352.982C54.2816 352.534 54.3416 352.118 54.4616 351.734C54.5816 351.346 54.7536 351.01 54.9776 350.726C55.2016 350.442 55.4756 350.22 55.7996 350.06C56.1276 349.896 56.4956 349.814 56.9036 349.814C57.2756 349.814 57.5936 349.878 57.8576 350.006C58.1256 350.13 58.3636 350.304 58.5716 350.528V347.162H59.6396ZM64.6205 353.264C64.1285 353.28 63.7085 353.32 63.3605 353.384C63.0165 353.444 62.7345 353.524 62.5145 353.624C62.2985 353.724 62.1405 353.842 62.0405 353.978C61.9445 354.114 61.8965 354.266 61.8965 354.434C61.8965 354.594 61.9225 354.732 61.9745 354.848C62.0265 354.964 62.0965 355.06 62.1845 355.136C62.2765 355.208 62.3825 355.262 62.5025 355.298C62.6265 355.33 62.7585 355.346 62.8985 355.346C63.0865 355.346 63.2585 355.328 63.4145 355.292C63.5705 355.252 63.7165 355.196 63.8525 355.124C63.9925 355.052 64.1245 354.966 64.2485 354.866C64.3765 354.766 64.5005 354.652 64.6205 354.524V353.264ZM61.1705 350.78C61.5065 350.456 61.8685 350.214 62.2565 350.054C62.6445 349.894 63.0745 349.814 63.5465 349.814C63.8865 349.814 64.1885 349.87 64.4525 349.982C64.7165 350.094 64.9385 350.25 65.1185 350.45C65.2985 350.65 65.4345 350.892 65.5265 351.176C65.6185 351.46 65.6645 351.772 65.6645 352.112V356H65.1905C65.0865 356 65.0065 355.984 64.9505 355.952C64.8945 355.916 64.8505 355.848 64.8185 355.748L64.6985 355.172C64.5385 355.32 64.3825 355.452 64.2305 355.568C64.0785 355.68 63.9185 355.776 63.7505 355.856C63.5825 355.932 63.4025 355.99 63.2105 356.03C63.0225 356.074 62.8125 356.096 62.5805 356.096C62.3445 356.096 62.1225 356.064 61.9145 356C61.7065 355.932 61.5245 355.832 61.3685 355.7C61.2165 355.568 61.0945 355.402 61.0025 355.202C60.9145 354.998 60.8705 354.758 60.8705 354.482C60.8705 354.242 60.9365 354.012 61.0685 353.792C61.2005 353.568 61.4145 353.37 61.7105 353.198C62.0065 353.026 62.3925 352.886 62.8685 352.778C63.3445 352.666 63.9285 352.602 64.6205 352.586V352.112C64.6205 351.64 64.5185 351.284 64.3145 351.044C64.1105 350.8 63.8125 350.678 63.4205 350.678C63.1565 350.678 62.9345 350.712 62.7545 350.78C62.5785 350.844 62.4245 350.918 62.2925 351.002C62.1645 351.082 62.0525 351.156 61.9565 351.224C61.8645 351.288 61.7725 351.32 61.6805 351.32C61.6085 351.32 61.5465 351.302 61.4945 351.266C61.4425 351.226 61.3985 351.178 61.3625 351.122L61.1705 350.78ZM68.3053 351.14C68.4973 350.724 68.7333 350.4 69.0133 350.168C69.2933 349.932 69.6353 349.814 70.0393 349.814C70.1673 349.814 70.2893 349.828 70.4053 349.856C70.5253 349.884 70.6313 349.928 70.7233 349.988L70.6453 350.786C70.6213 350.886 70.5613 350.936 70.4653 350.936C70.4093 350.936 70.3273 350.924 70.2193 350.9C70.1113 350.876 69.9893 350.864 69.8533 350.864C69.6613 350.864 69.4893 350.892 69.3373 350.948C69.1893 351.004 69.0553 351.088 68.9353 351.2C68.8193 351.308 68.7133 351.444 68.6173 351.608C68.5253 351.768 68.4413 351.952 68.3653 352.16V356H67.2913V349.922H67.9033C68.0193 349.922 68.0993 349.944 68.1433 349.988C68.1873 350.032 68.2173 350.108 68.2333 350.216L68.3053 351.14ZM79.3899 349.922L76.9119 356H75.9519L73.4739 349.922H74.3439C74.4319 349.922 74.5039 349.944 74.5599 349.988C74.6159 350.032 74.6539 350.084 74.6739 350.144L76.2159 354.056C76.2639 354.204 76.3059 354.348 76.3419 354.488C76.3779 354.628 76.4119 354.768 76.4439 354.908C76.4759 354.768 76.5099 354.628 76.5459 354.488C76.5819 354.348 76.6259 354.204 76.6779 354.056L78.2379 350.144C78.2619 350.08 78.3019 350.028 78.3579 349.988C78.4139 349.944 78.4799 349.922 78.5559 349.922H79.3899ZM81.4974 349.922V356H80.4294V349.922H81.4974ZM81.7254 348.014C81.7254 348.118 81.7034 348.216 81.6594 348.308C81.6194 348.396 81.5634 348.476 81.4914 348.548C81.4234 348.616 81.3414 348.67 81.2454 348.71C81.1534 348.75 81.0554 348.77 80.9514 348.77C80.8474 348.77 80.7494 348.75 80.6574 348.71C80.5694 348.67 80.4914 348.616 80.4234 348.548C80.3554 348.476 80.3014 348.396 80.2614 348.308C80.2214 348.216 80.2014 348.118 80.2014 348.014C80.2014 347.91 80.2214 347.812 80.2614 347.72C80.3014 347.624 80.3554 347.542 80.4234 347.474C80.4914 347.402 80.5694 347.346 80.6574 347.306C80.7494 347.266 80.8474 347.246 80.9514 347.246C81.0554 347.246 81.1534 347.266 81.2454 347.306C81.3414 347.346 81.4234 347.402 81.4914 347.474C81.5634 347.542 81.6194 347.624 81.6594 347.72C81.7034 347.812 81.7254 347.91 81.7254 348.014ZM87.3203 352.298C87.3203 352.05 87.2843 351.824 87.2123 351.62C87.1443 351.412 87.0423 351.234 86.9063 351.086C86.7743 350.934 86.6123 350.818 86.4203 350.738C86.2283 350.654 86.0103 350.612 85.7663 350.612C85.2543 350.612 84.8483 350.762 84.5483 351.062C84.2523 351.358 84.0683 351.77 83.9963 352.298H87.3203ZM88.1843 355.148C88.0523 355.308 87.8943 355.448 87.7103 355.568C87.5263 355.684 87.3283 355.78 87.1163 355.856C86.9083 355.932 86.6923 355.988 86.4683 356.024C86.2443 356.064 86.0223 356.084 85.8023 356.084C85.3823 356.084 84.9943 356.014 84.6383 355.874C84.2863 355.73 83.9803 355.522 83.7203 355.25C83.4643 354.974 83.2643 354.634 83.1203 354.23C82.9763 353.826 82.9043 353.362 82.9043 352.838C82.9043 352.414 82.9683 352.018 83.0963 351.65C83.2283 351.282 83.4163 350.964 83.6603 350.696C83.9043 350.424 84.2023 350.212 84.5543 350.06C84.9063 349.904 85.3023 349.826 85.7423 349.826C86.1063 349.826 86.4423 349.888 86.7503 350.012C87.0623 350.132 87.3303 350.308 87.5543 350.54C87.7823 350.768 87.9603 351.052 88.0883 351.392C88.2163 351.728 88.2803 352.112 88.2803 352.544C88.2803 352.712 88.2623 352.824 88.2263 352.88C88.1903 352.936 88.1223 352.964 88.0223 352.964H83.9603C83.9723 353.348 84.0243 353.682 84.1163 353.966C84.2123 354.25 84.3443 354.488 84.5123 354.68C84.6803 354.868 84.8803 355.01 85.1123 355.106C85.3443 355.198 85.6043 355.244 85.8923 355.244C86.1603 355.244 86.3903 355.214 86.5823 355.154C86.7783 355.09 86.9463 355.022 87.0863 354.95C87.2263 354.878 87.3423 354.812 87.4343 354.752C87.5303 354.688 87.6123 354.656 87.6803 354.656C87.7683 354.656 87.8363 354.69 87.8843 354.758L88.1843 355.148ZM97.9155 349.922L95.9475 356H95.1015C94.9975 356 94.9255 355.932 94.8855 355.796L93.5415 351.674C93.5095 351.582 93.4835 351.49 93.4635 351.398C93.4435 351.302 93.4235 351.208 93.4035 351.116C93.3835 351.208 93.3635 351.302 93.3435 351.398C93.3235 351.49 93.2975 351.584 93.2655 351.68L91.8975 355.796C91.8615 355.932 91.7815 356 91.6575 356H90.8535L88.8855 349.922H89.7255C89.8095 349.922 89.8795 349.944 89.9355 349.988C89.9955 350.032 90.0355 350.084 90.0555 350.144L91.2195 354.056C91.2875 354.344 91.3415 354.616 91.3815 354.872C91.4175 354.74 91.4535 354.606 91.4895 354.47C91.5295 354.334 91.5715 354.196 91.6155 354.056L92.8995 350.12C92.9195 350.06 92.9535 350.01 93.0015 349.97C93.0535 349.93 93.1155 349.91 93.1875 349.91H93.6555C93.7355 349.91 93.8015 349.93 93.8535 349.97C93.9055 350.01 93.9415 350.06 93.9615 350.12L95.2155 354.056C95.2595 354.196 95.2995 354.334 95.3355 354.47C95.3715 354.606 95.4055 354.74 95.4375 354.872C95.4575 354.74 95.4815 354.608 95.5095 354.476C95.5415 354.34 95.5755 354.2 95.6115 354.056L96.7995 350.144C96.8195 350.08 96.8575 350.028 96.9135 349.988C96.9695 349.944 97.0355 349.922 97.1115 349.922H97.9155Z" fill="#535353"/>
<defs>
<filter id="filter0_b" x="-20.1828" y="286.817" width="429.366" height="137.366" filterUnits="userSpaceOnUse" color-interpolation-filters="sRGB">
<feFlood flood-opacity="0" result="BackgroundImageFix"/>
<feGaussianBlur in="BackgroundImage" stdDeviation="13.5914"/>
<feComposite in2="SourceAlpha" operator="in" result="effect1_backgroundBlur"/>
<feBlend mode="normal" in="SourceGraphic" in2="effect1_backgroundBlur" result="shape"/>
</filter>
<filter id="filter1_d" x="10" y="62" width="383" height="251" filterUnits="userSpaceOnUse" color-interpolation-filters="sRGB">
<feFlood flood-opacity="0" result="BackgroundImageFix"/>
<feColorMatrix in="SourceAlpha" type="matrix" values="0 0 0 0 0 0 0 0 0 0 0 0 0 0 0 0 0 0 127 0"/>
<feOffset dy="4"/>
<feGaussianBlur stdDeviation="2"/>
<feColorMatrix type="matrix" values="0 0 0 0 0 0 0 0 0 0 0 0 0 0 0 0 0 0 0.25 0"/>
<feBlend mode="normal" in2="BackgroundImageFix" result="effect1_dropShadow"/>
<feBlend mode="normal" in="SourceGraphic" in2="effect1_dropShadow" result="shape"/>
</filter>
<clipPath id="clip0">
<rect width="375" height="333" fill="white" transform="translate(7)"/>
</clipPath>
<clipPath id="clip1">
<rect x="7" y="-415" width="375" height="812" rx="30" fill="white"/>
</clipPath>
<clipPath id="clip2">
<rect width="374" height="210" fill="white" transform="translate(7 104)"/>
</clipPath>
<clipPath id="clip3">
<rect width="375" height="83" fill="white" transform="matrix(1 0 0 -1 7 397)"/>
</clipPath>
<clipPath id="clip4">
<rect width="140" height="42" fill="white" transform="translate(249.781 319)"/>
</clipPath>
<clipPath id="clip5">
<rect width="140" height="42" fill="white" transform="translate(124.391 319)"/>
</clipPath>
<clipPath id="clip6">
<rect width="375" height="243" fill="white" transform="translate(14 62)"/>
</clipPath>
<clipPath id="clip7">
<rect x="14" y="-423" width="375" height="812" rx="30" fill="white"/>
</clipPath>
<clipPath id="clip8">
<rect width="374" height="210" fill="white" transform="translate(14 96)"/>
</clipPath>
</defs>
</svg>
