<svg width="390" height="353" viewBox="0 0 390 353" fill="none" xmlns="http://www.w3.org/2000/svg">
<g clip-path="url(#clip0)">
<g opacity="0.48">
<g clip-path="url(#clip1)">
<rect y="-309" width="375" height="812" rx="30" fill="white"/>
<rect x="23" y="-102" width="330" height="160" rx="10" fill="#F2F1F6"/>
<path d="M52.4657 14H53.8876V4.84033H52.4657L50.0536 6.5542V7.95068L52.3578 6.30664H52.4657V14ZM60.0371 14H61.459V10.8706H63.6045C65.4009 10.8706 66.6451 9.64551 66.6451 7.85547V7.84277C66.6451 6.04639 65.4009 4.84033 63.6045 4.84033H60.0371V14ZM63.2491 6.04004C64.4805 6.04004 65.1978 6.70654 65.1978 7.84912V7.86182C65.1978 9.01074 64.4805 9.67725 63.2491 9.67725H61.459V6.04004H63.2491ZM68.3995 14H69.6945V7.27783H69.796L72.4811 14H73.5348L76.2262 7.27783H76.3214V14H77.6163V4.84033H75.9786L73.0587 12.1465H72.9571L70.0372 4.84033H68.3995V14Z" fill="black" fill-opacity="0.36"/>
<line x1="94" y1="8.75" x2="343" y2="8.75" stroke="black" stroke-opacity="0.36" stroke-width="0.5"/>
<path d="M48.3363 43H54.5062V41.7876H50.2723V41.6606L52.2147 39.7246C53.8778 38.0742 54.3602 37.2744 54.3602 36.2334V36.2144C54.3602 34.7036 53.1034 33.6182 51.3959 33.6182C49.5551 33.6182 48.2601 34.7988 48.2538 36.4746L48.2665 36.4873H49.5995L49.6058 36.4683C49.6058 35.4653 50.2914 34.7925 51.3197 34.7925C52.3226 34.7925 52.9384 35.4526 52.9384 36.3477V36.3667C52.9384 37.1094 52.5892 37.5791 51.3768 38.8423L48.3363 42.0352V43ZM59.9258 43H61.3477V39.8706H63.4932C65.2896 39.8706 66.5337 38.6455 66.5337 36.8555V36.8428C66.5337 35.0464 65.2896 33.8403 63.4932 33.8403H59.9258V43ZM63.1377 35.04C64.3692 35.04 65.0865 35.7065 65.0865 36.8491V36.8618C65.0865 38.0107 64.3692 38.6772 63.1377 38.6772H61.3477V35.04H63.1377ZM68.2882 43H69.5831V36.2778H69.6847L72.3697 43H73.4235L76.1149 36.2778H76.2101V43H77.505V33.8403H75.8673L72.9474 41.1465H72.8458L69.9259 33.8403H68.2882V43Z" fill="black" fill-opacity="0.36"/>
<line x1="94" y1="37.75" x2="343" y2="37.75" stroke="black" stroke-opacity="0.36" stroke-width="0.5"/>
<rect x="23" y="81" width="160" height="229" rx="10" fill="#F2F1F6"/>
<path d="M42.0361 113H44.3564V109.917H46.4941V107.876H44.3564V97.499H40.9297C38.792 100.711 36.5146 104.374 34.4736 107.876V109.917H42.0361V113ZM36.7832 107.919V107.769C38.373 105.051 40.2637 102.032 41.9287 99.5293H42.0684V107.919H36.7832Z" fill="black"/>
<path d="M36.8778 130H38.2996V122.065H41.1751V120.84H33.9959V122.065H36.8778V130ZM43.2787 130.114C44.1928 130.114 44.9164 129.721 45.3227 129.022H45.4306V130H46.7953V125.284C46.7953 123.836 45.8178 122.973 44.0849 122.973C42.517 122.973 41.4316 123.729 41.2665 124.858L41.2602 124.903H42.5868L42.5932 124.877C42.7582 124.389 43.2597 124.109 44.0214 124.109C44.9545 124.109 45.4306 124.528 45.4306 125.284V125.893L43.5644 126.001C41.9203 126.103 40.9936 126.82 40.9936 128.051V128.064C40.9936 129.314 41.9648 130.114 43.2787 130.114ZM42.3647 128.007V127.994C42.3647 127.372 42.7963 127.029 43.7485 126.972L45.4306 126.864V127.455C45.4306 128.343 44.6752 129.016 43.6469 129.016C42.9042 129.016 42.3647 128.642 42.3647 128.007ZM51.165 130.133C52.8027 130.133 54.0215 129.264 54.0215 127.988V127.975C54.0215 126.979 53.3867 126.414 52.0601 126.103L50.9683 125.855C50.1938 125.671 49.8765 125.404 49.8765 124.973V124.96C49.8765 124.408 50.4224 124.033 51.1777 124.033C51.9521 124.033 52.4409 124.395 52.5742 124.877V124.89H53.8882V124.884C53.7676 123.76 52.7583 122.973 51.1841 122.973C49.6226 122.973 48.5054 123.836 48.5054 125.036V125.042C48.5054 126.052 49.1084 126.642 50.4097 126.94L51.5078 127.194C52.3076 127.378 52.6313 127.67 52.6313 128.102V128.115C52.6313 128.68 52.041 129.067 51.1904 129.067C50.3716 129.067 49.8701 128.718 49.6987 128.197L49.6924 128.191H48.3149V128.197C48.4482 129.353 49.502 130.133 51.165 130.133ZM55.649 130H57.0264V127.493L57.6168 126.902L59.9908 130H61.6666L58.6007 126.014L61.4762 123.106H59.8638L57.128 126.014H57.0264V120.402H55.649V130ZM65.0841 130.133C66.7218 130.133 67.9406 129.264 67.9406 127.988V127.975C67.9406 126.979 67.3058 126.414 65.9792 126.103L64.8874 125.855C64.1129 125.671 63.7956 125.404 63.7956 124.973V124.96C63.7956 124.408 64.3415 124.033 65.0968 124.033C65.8713 124.033 66.36 124.395 66.4933 124.877V124.89H67.8073V124.884C67.6867 123.76 66.6774 122.973 65.1032 122.973C63.5417 122.973 62.4245 123.836 62.4245 125.036V125.042C62.4245 126.052 63.0275 126.642 64.3288 126.94L65.4269 127.194C66.2267 127.378 66.5504 127.67 66.5504 128.102V128.115C66.5504 128.68 65.9601 129.067 65.1095 129.067C64.2907 129.067 63.7892 128.718 63.6178 128.197L63.6115 128.191H62.234V128.197C62.3673 129.353 63.4211 130.133 65.0841 130.133Z" fill="#007AFF"/>
<line opacity="0.35" x1="30" y1="138.625" x2="176" y2="138.625" stroke="black" stroke-width="0.75"/>
<path d="M33.9722 159H35.1753V151.25H33.9722V159ZM39.2575 159.038C39.4831 159.038 39.6979 159.011 39.8859 158.979V158.049C39.7248 158.065 39.6227 158.071 39.4455 158.071C38.8708 158.071 38.6345 157.813 38.6345 157.185V154.085H39.8859V153.167H38.6345V151.695H37.4474V153.167H36.5344V154.085H37.4474V157.464C37.4474 158.586 37.9738 159.038 39.2575 159.038ZM43.6996 159.113C45.1927 159.113 45.9984 158.253 46.1918 157.485L46.2025 157.437L45.0799 157.442L45.0585 157.485C44.9188 157.786 44.473 158.157 43.7264 158.157C42.765 158.157 42.1527 157.507 42.1312 156.39H46.267V155.981C46.267 154.23 45.2679 153.054 43.6405 153.054C42.013 153.054 40.9603 154.273 40.9603 156.094V156.1C40.9603 157.947 41.9916 159.113 43.6996 159.113ZM43.6459 154.01C44.4354 154.01 45.0209 154.515 45.1122 155.557H42.1473C42.2494 154.553 42.8509 154.01 43.6459 154.01ZM47.7227 159H48.8882V155.514C48.8882 154.671 49.4952 154.123 50.3868 154.123C50.607 154.123 50.8057 154.15 51.0152 154.193V153.119C50.897 153.092 50.6929 153.065 50.5049 153.065C49.7261 153.065 49.1836 153.43 48.9742 154.048H48.8882V153.167H47.7227V159ZM53.7546 159.097C54.528 159.097 55.1404 158.764 55.4841 158.173H55.5754V159H56.7302V155.009C56.7302 153.785 55.903 153.054 54.4367 153.054C53.1101 153.054 52.1916 153.693 52.052 154.649L52.0466 154.687H53.1692L53.1745 154.666C53.3142 154.252 53.7385 154.016 54.383 154.016C55.1726 154.016 55.5754 154.37 55.5754 155.009V155.525L53.9963 155.616C52.6052 155.702 51.821 156.309 51.821 157.351V157.362C51.821 158.42 52.6428 159.097 53.7546 159.097ZM52.9812 157.313V157.303C52.9812 156.776 53.3464 156.486 54.1521 156.438L55.5754 156.347V156.846C55.5754 157.598 54.9363 158.167 54.0661 158.167C53.4377 158.167 52.9812 157.851 52.9812 157.313ZM60.6459 159.038C60.8715 159.038 61.0863 159.011 61.2743 158.979V158.049C61.1132 158.065 61.0111 158.071 60.8339 158.071C60.2592 158.071 60.0229 157.813 60.0229 157.185V154.085H61.2743V153.167H60.0229V151.695H58.8358V153.167H57.9228V154.085H58.8358V157.464C58.8358 158.586 59.3622 159.038 60.6459 159.038ZM65.088 159.113C66.5811 159.113 67.3868 158.253 67.5802 157.485L67.5909 157.437L66.4683 157.442L66.4469 157.485C66.3072 157.786 65.8614 158.157 65.1148 158.157C64.1534 158.157 63.5411 157.507 63.5196 156.39H67.6554V155.981C67.6554 154.23 66.6563 153.054 65.0289 153.054C63.4014 153.054 62.3487 154.273 62.3487 156.094V156.1C62.3487 157.947 63.38 159.113 65.088 159.113ZM65.0343 154.01C65.8238 154.01 66.4093 154.515 66.5006 155.557H63.5357C63.6378 154.553 64.2393 154.01 65.0343 154.01ZM74.6596 159.113C76.3676 159.113 77.415 157.969 77.415 156.089V156.078C77.415 154.198 76.3622 153.054 74.6596 153.054C72.9516 153.054 71.8989 154.204 71.8989 156.078V156.089C71.8989 157.969 72.9462 159.113 74.6596 159.113ZM74.6596 158.141C73.6552 158.141 73.0913 157.383 73.0913 156.089V156.078C73.0913 154.784 73.6552 154.026 74.6596 154.026C75.6586 154.026 76.228 154.784 76.228 156.078V156.089C76.228 157.378 75.6586 158.141 74.6596 158.141ZM78.8761 159H80.0416V155.579C80.0416 154.639 80.5734 154.053 81.4274 154.053C82.2814 154.053 82.6842 154.531 82.6842 155.498V159H83.8444V155.224C83.8444 153.833 83.1246 153.054 81.8195 153.054C80.9708 153.054 80.4122 153.43 80.1276 154.053H80.0416V153.167H78.8761V159ZM90.8218 159.038C91.0473 159.038 91.2622 159.011 91.4502 158.979V158.049C91.289 158.065 91.187 158.071 91.0097 158.071C90.435 158.071 90.1987 157.813 90.1987 157.185V154.085H91.4502V153.167H90.1987V151.695H89.0117V153.167H88.0986V154.085H89.0117V157.464C89.0117 158.586 89.5381 159.038 90.8218 159.038ZM94.4796 159.097C95.2531 159.097 95.8654 158.764 96.2091 158.173H96.3004V159H97.4552V155.009C97.4552 153.785 96.6281 153.054 95.1618 153.054C93.8351 153.054 92.9167 153.693 92.777 154.649L92.7716 154.687H93.8942L93.8996 154.666C94.0392 154.252 94.4635 154.016 95.1081 154.016C95.8976 154.016 96.3004 154.37 96.3004 155.009V155.525L94.7213 155.616C93.3302 155.702 92.5461 156.309 92.5461 157.351V157.362C92.5461 158.42 93.3678 159.097 94.4796 159.097ZM93.7062 157.313V157.303C93.7062 156.776 94.0714 156.486 94.8771 156.438L96.3004 156.347V156.846C96.3004 157.598 95.6613 158.167 94.7912 158.167C94.1628 158.167 93.7062 157.851 93.7062 157.313ZM101.29 159.113C102.676 159.113 103.707 158.377 103.707 157.297V157.287C103.707 156.443 103.17 155.965 102.048 155.702L101.124 155.493C100.469 155.337 100.2 155.111 100.2 154.746V154.735C100.2 154.268 100.662 153.951 101.301 153.951C101.956 153.951 102.37 154.257 102.483 154.666V154.676H103.595V154.671C103.493 153.72 102.639 153.054 101.306 153.054C99.9852 153.054 99.0399 153.785 99.0399 154.8V154.805C99.0399 155.659 99.5501 156.159 100.651 156.411L101.58 156.626C102.257 156.782 102.531 157.029 102.531 157.394V157.405C102.531 157.883 102.032 158.21 101.312 158.21C100.619 158.21 100.195 157.915 100.05 157.475L100.044 157.469H98.8788V157.475C98.9915 158.452 99.8831 159.113 101.29 159.113ZM105.222 159H106.388V156.878L106.887 156.379L108.896 159H110.314L107.72 155.627L110.153 153.167H108.789L106.474 155.627H106.388V150.879H105.222V159ZM114.939 159H116.099V154.085H117.383V153.167H116.088V152.608C116.088 152.018 116.341 151.706 116.985 151.706C117.168 151.706 117.324 151.717 117.431 151.733V150.879C117.232 150.847 117.007 150.825 116.744 150.825C115.53 150.825 114.939 151.395 114.939 152.555V153.167H113.977V154.085H114.939V159ZM118.817 159H119.982V150.879H118.817V159ZM124.258 159.113C125.966 159.113 127.013 157.969 127.013 156.089V156.078C127.013 154.198 125.961 153.054 124.258 153.054C122.55 153.054 121.497 154.204 121.497 156.078V156.089C121.497 157.969 122.545 159.113 124.258 159.113ZM124.258 158.141C123.254 158.141 122.69 157.383 122.69 156.089V156.078C122.69 154.784 123.254 154.026 124.258 154.026C125.257 154.026 125.826 154.784 125.826 156.078V156.089C125.826 157.378 125.257 158.141 124.258 158.141ZM129.372 159H130.559L131.762 154.649H131.853L133.061 159H134.259L135.865 153.167H134.71L133.668 157.668H133.577L132.374 153.167H131.268L130.064 157.668H129.978L128.931 153.167H127.76L129.372 159ZM139.088 159.113C140.474 159.113 141.505 158.377 141.505 157.297V157.287C141.505 156.443 140.968 155.965 139.845 155.702L138.921 155.493C138.266 155.337 137.998 155.111 137.998 154.746V154.735C137.998 154.268 138.46 153.951 139.099 153.951C139.754 153.951 140.168 154.257 140.28 154.666V154.676H141.392V154.671C141.29 153.72 140.436 153.054 139.104 153.054C137.783 153.054 136.838 153.785 136.838 154.8V154.805C136.838 155.659 137.348 156.159 138.449 156.411L139.378 156.626C140.055 156.782 140.329 157.029 140.329 157.394V157.405C140.329 157.883 139.829 158.21 139.109 158.21C138.417 158.21 137.992 157.915 137.847 157.475L137.842 157.469H136.676V157.475C136.789 158.452 137.681 159.113 139.088 159.113Z" fill="black"/>
<line x1="30" y1="166.75" x2="176" y2="166.75" stroke="black" stroke-opacity="0.35" stroke-width="0.5" stroke-dasharray="1 1"/>
<path d="M36.5933 185.188C38.3979 185.188 39.5527 184.264 39.5527 182.782V182.776C39.5527 181.627 38.8867 180.972 37.2593 180.623L36.416 180.435C35.4116 180.22 35.0034 179.844 35.0034 179.269V179.264C35.0034 178.533 35.6748 178.109 36.5825 178.109C37.5225 178.104 38.1294 178.565 38.2314 179.199L38.2422 179.269H39.4077L39.4023 179.194C39.3164 177.991 38.2422 177.062 36.5986 177.062C34.9551 177.062 33.7949 177.985 33.7896 179.323V179.328C33.7896 180.472 34.4663 181.203 36.04 181.536L36.8887 181.718C37.9146 181.938 38.3335 182.325 38.3335 182.921V182.927C38.3335 183.646 37.6299 184.141 36.6416 184.141C35.605 184.141 34.8584 183.689 34.7939 182.986L34.7886 182.927H33.6069L33.6123 182.997C33.7197 184.302 34.8423 185.188 36.5933 185.188ZM43.5275 185.113C44.9723 185.113 45.8049 184.334 46.0143 183.201L46.0251 183.152H44.9079L44.8971 183.179C44.7092 183.808 44.258 184.141 43.5275 184.141C42.5661 184.141 41.9699 183.356 41.9699 182.067V182.057C41.9699 180.8 42.5554 180.026 43.5275 180.026C44.301 180.026 44.7736 180.456 44.9025 181.031L44.9079 181.047L46.0251 181.042V181.015C45.8639 179.881 44.9885 179.054 43.5221 179.054C41.8195 179.054 40.7829 180.209 40.7829 182.057V182.067C40.7829 183.953 41.8249 185.113 43.5275 185.113ZM47.4701 185H48.6356V181.579C48.6356 180.639 49.1673 180.053 50.0213 180.053C50.8754 180.053 51.2782 180.531 51.2782 181.498V185H52.4383V181.224C52.4383 179.833 51.7186 179.054 50.4134 179.054C49.5648 179.054 49.0062 179.43 48.7215 180.053H48.6356V176.879H47.4701V185ZM56.585 185.113C58.0782 185.113 58.8838 184.253 59.0772 183.485L59.0879 183.437L57.9654 183.442L57.9439 183.485C57.8042 183.786 57.3584 184.157 56.6119 184.157C55.6504 184.157 55.0381 183.507 55.0166 182.39H59.1524V181.981C59.1524 180.23 58.1534 179.054 56.5259 179.054C54.8985 179.054 53.8457 180.273 53.8457 182.094V182.1C53.8457 183.947 54.877 185.113 56.585 185.113ZM56.5313 180.01C57.3208 180.01 57.9063 180.515 57.9976 181.557H55.0328C55.1348 180.553 55.7364 180.01 56.5313 180.01ZM62.7351 185.097C63.5515 185.097 64.1906 184.721 64.529 184.082H64.6203V185H65.7805V176.879H64.6203V180.091H64.529C64.2175 179.462 63.5354 179.065 62.7351 179.065C61.2527 179.065 60.3181 180.23 60.3181 182.078V182.089C60.3181 183.92 61.2688 185.097 62.7351 185.097ZM63.0681 184.103C62.0905 184.103 61.5051 183.34 61.5051 182.089V182.078C61.5051 180.827 62.0905 180.064 63.0681 180.064C64.0349 180.064 64.6364 180.832 64.6364 182.078V182.089C64.6364 183.335 64.0403 184.103 63.0681 184.103ZM69.5297 185.113C70.3783 185.113 70.9691 184.748 71.2484 184.119H71.3397V185H72.4999V179.167H71.3397V182.588C71.3397 183.528 70.8402 184.114 69.9057 184.114C69.0517 184.114 68.6972 183.636 68.6972 182.669V179.167H67.5316V182.943C67.5316 184.323 68.2138 185.113 69.5297 185.113ZM74.3048 185H75.4703V176.879H74.3048V185ZM79.7244 185.113C81.2175 185.113 82.0232 184.253 82.2166 183.485L82.2273 183.437L81.1047 183.442L81.0833 183.485C80.9436 183.786 80.4978 184.157 79.7512 184.157C78.7898 184.157 78.1775 183.507 78.156 182.39H82.2918V181.981C82.2918 180.23 81.2927 179.054 79.6653 179.054C78.0379 179.054 76.9851 180.273 76.9851 182.094V182.1C76.9851 183.947 78.0164 185.113 79.7244 185.113ZM79.6707 180.01C80.4602 180.01 81.0457 180.515 81.137 181.557H78.1721C78.2742 180.553 78.8757 180.01 79.6707 180.01ZM88.7696 185.113C89.6183 185.113 90.2091 184.748 90.4884 184.119H90.5797V185H91.7399V179.167H90.5797V182.588C90.5797 183.528 90.0802 184.114 89.1456 184.114C88.2916 184.114 87.9371 183.636 87.9371 182.669V179.167H86.7716V182.943C86.7716 184.323 87.4537 185.113 88.7696 185.113ZM95.6126 185.113C96.9983 185.113 98.0296 184.377 98.0296 183.297V183.287C98.0296 182.443 97.4925 181.965 96.3699 181.702L95.4461 181.493C94.7908 181.337 94.5223 181.111 94.5223 180.746V180.735C94.5223 180.268 94.9842 179.951 95.6233 179.951C96.2786 179.951 96.6922 180.257 96.805 180.666V180.676H97.9168V180.671C97.8147 179.72 96.9607 179.054 95.6287 179.054C94.3074 179.054 93.3621 179.785 93.3621 180.8V180.805C93.3621 181.659 93.8724 182.159 94.9734 182.411L95.9026 182.626C96.5794 182.782 96.8533 183.029 96.8533 183.394V183.405C96.8533 183.883 96.3538 184.21 95.6341 184.21C94.9412 184.21 94.5169 183.915 94.3719 183.475L94.3665 183.469H93.201V183.475C93.3138 184.452 94.2054 185.113 95.6126 185.113ZM101.091 185.097C101.865 185.097 102.477 184.764 102.821 184.173H102.912V185H104.067V181.009C104.067 179.785 103.24 179.054 101.773 179.054C100.447 179.054 99.5283 179.693 99.3886 180.649L99.3833 180.687H100.506L100.511 180.666C100.651 180.252 101.075 180.016 101.72 180.016C102.509 180.016 102.912 180.37 102.912 181.009V181.525L101.333 181.616C99.9419 181.702 99.1577 182.309 99.1577 183.351V183.362C99.1577 184.42 99.9795 185.097 101.091 185.097ZM100.318 183.313V183.303C100.318 182.776 100.683 182.486 101.489 182.438L102.912 182.347V182.846C102.912 183.598 102.273 184.167 101.403 184.167C100.774 184.167 100.318 183.851 100.318 183.313ZM108.88 185.097C110.351 185.097 111.297 183.92 111.297 182.089V182.078C111.297 180.23 110.362 179.065 108.88 179.065C108.079 179.065 107.397 179.462 107.086 180.091H107V176.879H105.834V185H107V184.082H107.086C107.424 184.721 108.063 185.097 108.88 185.097ZM108.552 184.103C107.58 184.103 106.978 183.335 106.978 182.089V182.078C106.978 180.832 107.58 180.064 108.552 180.064C109.524 180.064 110.11 180.827 110.11 182.078V182.089C110.11 183.34 109.524 184.103 108.552 184.103ZM113.365 178.125C113.762 178.125 114.095 177.797 114.095 177.4C114.095 176.997 113.762 176.669 113.365 176.669C112.962 176.669 112.634 176.997 112.634 177.4C112.634 177.797 112.962 178.125 113.365 178.125ZM112.779 185H113.939V179.167H112.779V185ZM115.76 185H116.926V176.879H115.76V185ZM119.338 178.125C119.735 178.125 120.068 177.797 120.068 177.4C120.068 176.997 119.735 176.669 119.338 176.669C118.935 176.669 118.607 176.997 118.607 177.4C118.607 177.797 118.935 178.125 119.338 178.125ZM118.752 185H119.912V179.167H118.752V185ZM123.882 185.038C124.107 185.038 124.322 185.011 124.51 184.979V184.049C124.349 184.065 124.247 184.071 124.07 184.071C123.495 184.071 123.259 183.813 123.259 183.185V180.085H124.51V179.167H123.259V177.695H122.072V179.167H121.159V180.085H122.072V183.464C122.072 184.586 122.598 185.038 123.882 185.038ZM126.508 187.052C127.69 187.052 128.281 186.617 128.775 185.226L130.945 179.167H129.72L128.265 183.829H128.163L126.702 179.167H125.445L127.561 185.005L127.475 185.306C127.303 185.897 126.976 186.128 126.433 186.128C126.299 186.128 126.154 186.123 126.041 186.106V187.025C126.191 187.041 126.363 187.052 126.508 187.052ZM137.476 185.038C137.702 185.038 137.917 185.011 138.105 184.979V184.049C137.944 184.065 137.842 184.071 137.664 184.071C137.09 184.071 136.853 183.813 136.853 183.185V180.085H138.105V179.167H136.853V177.695H135.666V179.167H134.753V180.085H135.666V183.464C135.666 184.586 136.193 185.038 137.476 185.038ZM141.919 185.113C143.412 185.113 144.217 184.253 144.411 183.485L144.421 183.437L143.299 183.442L143.277 183.485C143.138 183.786 142.692 184.157 141.945 184.157C140.984 184.157 140.372 183.507 140.35 182.39H144.486V181.981C144.486 180.23 143.487 179.054 141.859 179.054C140.232 179.054 139.179 180.273 139.179 182.094V182.1C139.179 183.947 140.211 185.113 141.919 185.113ZM141.865 180.01C142.654 180.01 143.24 180.515 143.331 181.557H140.366C140.468 180.553 141.07 180.01 141.865 180.01ZM148.063 185.113C149.449 185.113 150.48 184.377 150.48 183.297V183.287C150.48 182.443 149.943 181.965 148.821 181.702L147.897 181.493C147.241 181.337 146.973 181.111 146.973 180.746V180.735C146.973 180.268 147.435 179.951 148.074 179.951C148.729 179.951 149.143 180.257 149.256 180.666V180.676H150.367V180.671C150.265 179.72 149.411 179.054 148.079 179.054C146.758 179.054 145.813 179.785 145.813 180.8V180.805C145.813 181.659 146.323 182.159 147.424 182.411L148.353 182.626C149.03 182.782 149.304 183.029 149.304 183.394V183.405C149.304 183.883 148.804 184.21 148.085 184.21C147.392 184.21 146.968 183.915 146.823 183.475L146.817 183.469H145.652V183.475C145.764 184.452 146.656 185.113 148.063 185.113ZM154.101 185.038C154.326 185.038 154.541 185.011 154.729 184.979V184.049C154.568 184.065 154.466 184.071 154.289 184.071C153.714 184.071 153.478 183.813 153.478 183.185V180.085H154.729V179.167H153.478V177.695H152.29V179.167H151.377V180.085H152.29V183.464C152.29 184.586 152.817 185.038 154.101 185.038ZM156.765 178.125C157.162 178.125 157.495 177.797 157.495 177.4C157.495 176.997 157.162 176.669 156.765 176.669C156.362 176.669 156.034 176.997 156.034 177.4C156.034 177.797 156.362 178.125 156.765 178.125ZM156.179 185H157.339V179.167H156.179V185ZM159.107 185H160.272V181.579C160.272 180.639 160.804 180.053 161.658 180.053C162.512 180.053 162.915 180.531 162.915 181.498V185H164.075V181.224C164.075 179.833 163.355 179.054 162.05 179.054C161.201 179.054 160.643 179.43 160.358 180.053H160.272V179.167H159.107V185ZM168.238 187.057C169.892 187.057 170.939 186.208 170.939 184.882V179.167H169.779V180.123H169.709C169.371 179.468 168.737 179.065 167.921 179.065C166.406 179.065 165.477 180.241 165.477 181.906V181.917C165.477 183.561 166.401 184.715 167.899 184.715C168.7 184.715 169.344 184.361 169.699 183.727H169.785V184.876C169.785 185.671 169.215 186.123 168.254 186.123C167.464 186.123 166.992 185.838 166.895 185.435L166.89 185.424H165.713L165.703 185.435C165.842 186.407 166.755 187.057 168.238 187.057ZM168.222 183.754C167.228 183.754 166.669 182.997 166.669 181.912V181.901C166.669 180.816 167.228 180.053 168.222 180.053C169.205 180.053 169.806 180.816 169.806 181.901V181.912C169.806 183.002 169.21 183.754 168.222 183.754ZM33.8379 199.944H35.0034V197.076H35.0894C35.4009 197.705 36.083 198.097 36.8833 198.097C38.3657 198.097 39.3003 196.937 39.3003 195.089V195.078C39.3003 193.241 38.355 192.065 36.8833 192.065C36.0669 192.065 35.4277 192.446 35.0894 193.085H35.0034V192.167H33.8379V199.944ZM36.5557 197.103C35.5835 197.103 34.9819 196.335 34.9819 195.089V195.078C34.9819 193.832 35.5835 193.064 36.5557 193.064C37.5278 193.064 38.1133 193.821 38.1133 195.078V195.089C38.1133 196.34 37.5278 197.103 36.5557 197.103ZM42.3727 198.097C43.1462 198.097 43.7585 197.764 44.1022 197.173H44.1935V198H45.3483V194.009C45.3483 192.785 44.5212 192.054 43.0549 192.054C41.7282 192.054 40.8097 192.693 40.6701 193.649L40.6647 193.687H41.7873L41.7927 193.666C41.9323 193.252 42.3566 193.016 43.0012 193.016C43.7907 193.016 44.1935 193.37 44.1935 194.009V194.525L42.6144 194.616C41.2233 194.702 40.4391 195.309 40.4391 196.351V196.362C40.4391 197.42 41.2609 198.097 42.3727 198.097ZM41.5993 196.313V196.303C41.5993 195.776 41.9645 195.486 42.7702 195.438L44.1935 195.347V195.846C44.1935 196.598 43.5544 197.167 42.6843 197.167C42.0558 197.167 41.5993 196.851 41.5993 196.313ZM47.0619 198H48.2274V194.514C48.2274 193.671 48.8343 193.123 49.7259 193.123C49.9462 193.123 50.1449 193.15 50.3544 193.193V192.119C50.2362 192.092 50.0321 192.065 49.8441 192.065C49.0653 192.065 48.5228 192.43 48.3133 193.048H48.2274V192.167H47.0619V198ZM54.0391 198.038C54.2647 198.038 54.4795 198.011 54.6675 197.979V197.049C54.5064 197.065 54.4043 197.071 54.2271 197.071C53.6524 197.071 53.4161 196.813 53.4161 196.185V193.085H54.6675V192.167H53.4161V190.695H52.229V192.167H51.316V193.085H52.229V196.464C52.229 197.586 52.7554 198.038 54.0391 198.038ZM56.7033 191.125C57.1008 191.125 57.4338 190.797 57.4338 190.4C57.4338 189.997 57.1008 189.669 56.7033 189.669C56.3005 189.669 55.9729 189.997 55.9729 190.4C55.9729 190.797 56.3005 191.125 56.7033 191.125ZM56.1179 198H57.278V192.167H56.1179V198ZM61.4999 198.113C62.9447 198.113 63.7772 197.334 63.9867 196.201L63.9975 196.152H62.8803L62.8695 196.179C62.6815 196.808 62.2304 197.141 61.4999 197.141C60.5385 197.141 59.9423 196.356 59.9423 195.067V195.057C59.9423 193.8 60.5277 193.026 61.4999 193.026C62.2733 193.026 62.746 193.456 62.8749 194.031L62.8803 194.047L63.9975 194.042V194.015C63.8363 192.881 62.9608 192.054 61.4945 192.054C59.7919 192.054 58.7553 193.209 58.7553 195.057V195.067C58.7553 196.953 59.7973 198.113 61.4999 198.113ZM65.9957 191.125C66.3931 191.125 66.7262 190.797 66.7262 190.4C66.7262 189.997 66.3931 189.669 65.9957 189.669C65.5929 189.669 65.2652 189.997 65.2652 190.4C65.2652 190.797 65.5929 191.125 65.9957 191.125ZM65.4102 198H66.5704V192.167H65.4102V198ZM68.3377 199.944H69.5032V197.076H69.5891C69.9006 197.705 70.5828 198.097 71.3831 198.097C72.8655 198.097 73.8001 196.937 73.8001 195.089V195.078C73.8001 193.241 72.8547 192.065 71.3831 192.065C70.5667 192.065 69.9275 192.446 69.5891 193.085H69.5032V192.167H68.3377V199.944ZM71.0554 197.103C70.0833 197.103 69.4817 196.335 69.4817 195.089V195.078C69.4817 193.832 70.0833 193.064 71.0554 193.064C72.0276 193.064 72.613 193.821 72.613 195.078V195.089C72.613 196.34 72.0276 197.103 71.0554 197.103ZM76.8725 198.097C77.6459 198.097 78.2582 197.764 78.602 197.173H78.6933V198H79.8481V194.009C79.8481 192.785 79.0209 192.054 77.5546 192.054C76.228 192.054 75.3095 192.693 75.1699 193.649L75.1645 193.687H76.2871L76.2924 193.666C76.4321 193.252 76.8564 193.016 77.5009 193.016C78.2905 193.016 78.6933 193.37 78.6933 194.009V194.525L77.1142 194.616C75.7231 194.702 74.9389 195.309 74.9389 196.351V196.362C74.9389 197.42 75.7607 198.097 76.8725 198.097ZM76.0991 196.313V196.303C76.0991 195.776 76.4643 195.486 77.27 195.438L78.6933 195.347V195.846C78.6933 196.598 78.0541 197.167 77.184 197.167C76.5556 197.167 76.0991 196.851 76.0991 196.313ZM81.5616 198H82.7272V194.579C82.7272 193.639 83.2589 193.053 84.1129 193.053C84.9669 193.053 85.3697 193.531 85.3697 194.498V198H86.5299V194.224C86.5299 192.833 85.8102 192.054 84.505 192.054C83.6564 192.054 83.0978 192.43 82.8131 193.053H82.7272V192.167H81.5616V198ZM90.4295 198.038C90.6551 198.038 90.8699 198.011 91.0579 197.979V197.049C90.8968 197.065 90.7947 197.071 90.6175 197.071C90.0428 197.071 89.8064 196.813 89.8064 196.185V193.085H91.0579V192.167H89.8064V190.695H88.6194V192.167H87.7063V193.085H88.6194V196.464C88.6194 197.586 89.1458 198.038 90.4295 198.038ZM94.5224 198.113C95.9082 198.113 96.9394 197.377 96.9394 196.297V196.287C96.9394 195.443 96.4023 194.965 95.2798 194.702L94.3559 194.493C93.7007 194.337 93.4321 194.111 93.4321 193.746V193.735C93.4321 193.268 93.894 192.951 94.5332 192.951C95.1885 192.951 95.602 193.257 95.7148 193.666V193.676H96.8266V193.671C96.7246 192.72 95.8706 192.054 94.5386 192.054C93.2173 192.054 92.272 192.785 92.272 193.8V193.805C92.272 194.659 92.7822 195.159 93.8833 195.411L94.8125 195.626C95.4892 195.782 95.7632 196.029 95.7632 196.394V196.405C95.7632 196.883 95.2637 197.21 94.5439 197.21C93.8511 197.21 93.4267 196.915 93.2817 196.475L93.2763 196.469H92.1108V196.475C92.2236 197.452 93.1152 198.113 94.5224 198.113Z" fill="black"/>
<line x1="30" y1="205.75" x2="176" y2="205.75" stroke="black" stroke-opacity="0.35" stroke-width="0.5" stroke-dasharray="1 1"/>
<path d="M33.9722 224H35.1753V221.019H36.8726L38.4517 224H39.8428L38.1025 220.831C39.0479 220.514 39.6064 219.666 39.6064 218.624V218.613C39.6064 217.173 38.6182 216.25 37.0283 216.25H33.9722V224ZM35.1753 220.042V217.259H36.8726C37.8018 217.259 38.3711 217.786 38.3711 218.645V218.656C38.3711 219.537 37.834 220.042 36.9102 220.042H35.1753ZM43.5329 224.113C45.0261 224.113 45.8317 223.253 46.0251 222.485L46.0358 222.437L44.9133 222.442L44.8918 222.485C44.7521 222.786 44.3063 223.157 43.5597 223.157C42.5983 223.157 41.986 222.507 41.9645 221.39H46.1003V220.981C46.1003 219.23 45.1013 218.054 43.4738 218.054C41.8464 218.054 40.7936 219.273 40.7936 221.094V221.1C40.7936 222.947 41.8249 224.113 43.5329 224.113ZM43.4792 219.01C44.2687 219.01 44.8542 219.515 44.9455 220.557H41.9806C42.0827 219.553 42.6843 219.01 43.4792 219.01ZM47.556 225.944H48.7215V223.076H48.8075C49.119 223.705 49.8011 224.097 50.6014 224.097C52.0838 224.097 53.0184 222.937 53.0184 221.089V221.078C53.0184 219.241 52.0731 218.065 50.6014 218.065C49.785 218.065 49.1459 218.446 48.8075 219.085H48.7215V218.167H47.556V225.944ZM50.2738 223.103C49.3016 223.103 48.7001 222.335 48.7001 221.089V221.078C48.7001 219.832 49.3016 219.064 50.2738 219.064C51.246 219.064 51.8314 219.821 51.8314 221.078V221.089C51.8314 222.34 51.246 223.103 50.2738 223.103ZM54.544 224H55.7095V215.879H54.544V224ZM58.0837 226.052C59.2654 226.052 59.8562 225.617 60.3503 224.226L62.5202 218.167H61.2956L59.8401 222.829H59.738L58.2771 218.167H57.0202L59.1364 224.005L59.0505 224.306C58.8786 224.897 58.551 225.128 58.0085 225.128C57.8742 225.128 57.7292 225.123 57.6164 225.106V226.025C57.7668 226.041 57.9387 226.052 58.0837 226.052ZM68.9713 224.113C70.357 224.113 71.3883 223.377 71.3883 222.297V222.287C71.3883 221.443 70.8512 220.965 69.7286 220.702L68.8048 220.493C68.1495 220.337 67.8809 220.111 67.8809 219.746V219.735C67.8809 219.268 68.3428 218.951 68.982 218.951C69.6373 218.951 70.0509 219.257 70.1637 219.666V219.676H71.2755V219.671C71.1734 218.72 70.3194 218.054 68.9874 218.054C67.6661 218.054 66.7208 218.785 66.7208 219.8V219.805C66.7208 220.659 67.231 221.159 68.3321 221.411L69.2613 221.626C69.9381 221.782 70.212 222.029 70.212 222.394V222.405C70.212 222.883 69.7125 223.21 68.9928 223.21C68.2999 223.21 67.8756 222.915 67.7305 222.475L67.7252 222.469H66.5596V222.475C66.6724 223.452 67.564 224.113 68.9713 224.113ZM75.0086 224.038C75.2341 224.038 75.449 224.011 75.637 223.979V223.049C75.4758 223.065 75.3738 223.071 75.1965 223.071C74.6218 223.071 74.3855 222.813 74.3855 222.185V219.085H75.637V218.167H74.3855V216.695H73.1985V218.167H72.2854V219.085H73.1985V222.464C73.1985 223.586 73.7249 224.038 75.0086 224.038ZM78.6664 224.097C79.4399 224.097 80.0522 223.764 80.3959 223.173H80.4872V224H81.642V220.009C81.642 218.785 80.8149 218.054 79.3486 218.054C78.0219 218.054 77.1035 218.693 76.9638 219.649L76.9584 219.687H78.081L78.0864 219.666C78.226 219.252 78.6503 219.016 79.2949 219.016C80.0844 219.016 80.4872 219.37 80.4872 220.009V220.525L78.9081 220.616C77.517 220.702 76.7329 221.309 76.7329 222.351V222.362C76.7329 223.42 77.5546 224.097 78.6664 224.097ZM77.893 222.313V222.303C77.893 221.776 78.2582 221.486 79.0639 221.438L80.4872 221.347V221.846C80.4872 222.598 79.8481 223.167 78.978 223.167C78.3496 223.167 77.893 222.851 77.893 222.313ZM83.4093 224H84.5748V221.878L85.0743 221.379L87.0831 224H88.5011L85.9069 220.627L88.34 218.167H86.9757L84.6608 220.627H84.5748V215.879H83.4093V224ZM91.783 224.113C93.2762 224.113 94.0818 223.253 94.2752 222.485L94.2859 222.437L93.1634 222.442L93.1419 222.485C93.0022 222.786 92.5564 223.157 91.8099 223.157C90.8484 223.157 90.2361 222.507 90.2146 221.39H94.3504V220.981C94.3504 219.23 93.3514 218.054 91.7239 218.054C90.0965 218.054 89.0438 219.273 89.0438 221.094V221.1C89.0438 222.947 90.075 224.113 91.783 224.113ZM91.7293 219.01C92.5188 219.01 93.1043 219.515 93.1956 220.557H90.2308C90.3328 219.553 90.9344 219.01 91.7293 219.01ZM95.8598 224H97.0254V220.579C97.0254 219.639 97.5571 219.053 98.4111 219.053C99.2651 219.053 99.6679 219.531 99.6679 220.498V224H100.828V220.224C100.828 218.833 100.108 218.054 98.8032 218.054C97.9546 218.054 97.396 218.43 97.1113 219.053H97.0254V215.879H95.8598V224ZM104.996 224.113C106.704 224.113 107.752 222.969 107.752 221.089V221.078C107.752 219.198 106.699 218.054 104.996 218.054C103.288 218.054 102.236 219.204 102.236 221.078V221.089C102.236 222.969 103.283 224.113 104.996 224.113ZM104.996 223.141C103.992 223.141 103.428 222.383 103.428 221.089V221.078C103.428 219.784 103.992 219.026 104.996 219.026C105.995 219.026 106.565 219.784 106.565 221.078V221.089C106.565 222.378 105.995 223.141 104.996 223.141ZM109.266 224H110.432V215.879H109.266V224ZM114.364 224.097C115.18 224.097 115.819 223.721 116.158 223.082H116.249V224H117.409V215.879H116.249V219.091H116.158C115.846 218.462 115.164 218.065 114.364 218.065C112.881 218.065 111.947 219.23 111.947 221.078V221.089C111.947 222.92 112.897 224.097 114.364 224.097ZM114.697 223.103C113.719 223.103 113.134 222.34 113.134 221.089V221.078C113.134 219.827 113.719 219.064 114.697 219.064C115.664 219.064 116.265 219.832 116.265 221.078V221.089C116.265 222.335 115.669 223.103 114.697 223.103ZM121.663 224.113C123.156 224.113 123.962 223.253 124.155 222.485L124.166 222.437L123.044 222.442L123.022 222.485C122.883 222.786 122.437 223.157 121.69 223.157C120.729 223.157 120.116 222.507 120.095 221.39H124.231V220.981C124.231 219.23 123.232 218.054 121.604 218.054C119.977 218.054 118.924 219.273 118.924 221.094V221.1C118.924 222.947 119.955 224.113 121.663 224.113ZM121.61 219.01C122.399 219.01 122.985 219.515 123.076 220.557H120.111C120.213 219.553 120.815 219.01 121.61 219.01ZM125.686 224H126.852V220.514C126.852 219.671 127.459 219.123 128.35 219.123C128.571 219.123 128.769 219.15 128.979 219.193V218.119C128.861 218.092 128.657 218.065 128.469 218.065C127.69 218.065 127.147 218.43 126.938 219.048H126.852V218.167H125.686V224ZM135.688 224.113C137.181 224.113 137.987 223.253 138.18 222.485L138.191 222.437L137.068 222.442L137.047 222.485C136.907 222.786 136.461 223.157 135.715 223.157C134.753 223.157 134.141 222.507 134.119 221.39H138.255V220.981C138.255 219.23 137.256 218.054 135.629 218.054C134.001 218.054 132.948 219.273 132.948 221.094V221.1C132.948 222.947 133.98 224.113 135.688 224.113ZM135.634 219.01C136.424 219.01 137.009 219.515 137.1 220.557H134.135C134.238 219.553 134.839 219.01 135.634 219.01ZM139.711 224H140.876V220.417C140.876 219.655 141.397 219.053 142.101 219.053C142.788 219.053 143.224 219.472 143.224 220.138V224H144.384V220.31C144.384 219.606 144.872 219.053 145.614 219.053C146.376 219.053 146.742 219.451 146.742 220.256V224H147.902V219.977C147.902 218.763 147.214 218.054 146.038 218.054C145.227 218.054 144.556 218.468 144.26 219.096H144.169C143.911 218.468 143.347 218.054 142.552 218.054C141.789 218.054 141.22 218.425 140.962 219.064H140.876V218.167H139.711V224ZM151.2 224.097C151.973 224.097 152.586 223.764 152.929 223.173H153.021V224H154.175V220.009C154.175 218.785 153.348 218.054 151.882 218.054C150.555 218.054 149.637 218.693 149.497 219.649L149.492 219.687H150.614L150.62 219.666C150.759 219.252 151.184 219.016 151.828 219.016C152.618 219.016 153.021 219.37 153.021 220.009V220.525L151.442 220.616C150.05 220.702 149.266 221.309 149.266 222.351V222.362C149.266 223.42 150.088 224.097 151.2 224.097ZM150.426 222.313V222.303C150.426 221.776 150.792 221.486 151.597 221.438L153.021 221.347V221.846C153.021 222.598 152.381 223.167 151.511 223.167C150.883 223.167 150.426 222.851 150.426 222.313ZM156.496 217.125C156.893 217.125 157.226 216.797 157.226 216.4C157.226 215.997 156.893 215.669 156.496 215.669C156.093 215.669 155.765 215.997 155.765 216.4C155.765 216.797 156.093 217.125 156.496 217.125ZM155.91 224H157.071V218.167H155.91V224ZM158.892 224H160.057V215.879H158.892V224Z" fill="white"/>
<line x1="30" y1="231.75" x2="176" y2="231.75" stroke="black" stroke-opacity="0.35" stroke-width="0.5" stroke-dasharray="1 1"/>
<path d="M33.9722 250H38.8062V248.963H35.1753V242.25H33.9722V250ZM42.4694 250.113C44.1774 250.113 45.2248 248.969 45.2248 247.089V247.078C45.2248 245.198 44.1721 244.054 42.4694 244.054C40.7614 244.054 39.7087 245.204 39.7087 247.078V247.089C39.7087 248.969 40.756 250.113 42.4694 250.113ZM42.4694 249.141C41.465 249.141 40.9011 248.383 40.9011 247.089V247.078C40.9011 245.784 41.465 245.026 42.4694 245.026C43.4684 245.026 44.0378 245.784 44.0378 247.078V247.089C44.0378 248.378 43.4684 249.141 42.4694 249.141ZM46.6859 250H47.8514V246.514C47.8514 245.671 48.4584 245.123 49.35 245.123C49.5702 245.123 49.7689 245.15 49.9784 245.193V244.119C49.8602 244.092 49.6561 244.065 49.4681 244.065C48.6893 244.065 48.1468 244.43 47.9374 245.048H47.8514V244.167H46.6859V250ZM53.459 250.113C54.9522 250.113 55.7579 249.253 55.9512 248.485L55.962 248.437L54.8394 248.442L54.8179 248.485C54.6783 248.786 54.2325 249.157 53.4859 249.157C52.5245 249.157 51.9121 248.507 51.8907 247.39H56.0264V246.981C56.0264 245.23 55.0274 244.054 53.3999 244.054C51.7725 244.054 50.7198 245.273 50.7198 247.094V247.1C50.7198 248.947 51.751 250.113 53.459 250.113ZM53.4053 245.01C54.1949 245.01 54.7803 245.515 54.8716 246.557H51.9068C52.0088 245.553 52.6104 245.01 53.4053 245.01ZM57.4821 250H58.6477V246.417C58.6477 245.655 59.1687 245.053 59.8723 245.053C60.5598 245.053 60.9948 245.472 60.9948 246.138V250H62.155V246.31C62.155 245.606 62.6438 245.053 63.385 245.053C64.1477 245.053 64.5129 245.451 64.5129 246.256V250H65.6731V245.977C65.6731 244.763 64.9856 244.054 63.8093 244.054C62.9983 244.054 62.3269 244.468 62.0315 245.096H61.9402C61.6823 244.468 61.1184 244.054 60.3235 244.054C59.5608 244.054 58.9914 244.425 58.7336 245.064H58.6477V244.167H57.4821V250ZM70.5826 250H71.7857V242.25H70.5826V250ZM73.6658 251.944H74.8313V249.076H74.9172C75.2288 249.705 75.9109 250.097 76.7112 250.097C78.1936 250.097 79.1282 248.937 79.1282 247.089V247.078C79.1282 245.241 78.1829 244.065 76.7112 244.065C75.8948 244.065 75.2556 244.446 74.9172 245.085H74.8313V244.167H73.6658V251.944ZM76.3836 249.103C75.4114 249.103 74.8098 248.335 74.8098 247.089V247.078C74.8098 245.832 75.4114 245.064 76.3836 245.064C77.3557 245.064 77.9412 245.821 77.9412 247.078V247.089C77.9412 248.34 77.3557 249.103 76.3836 249.103ZM82.7216 250.113C84.1074 250.113 85.1386 249.377 85.1386 248.297V248.287C85.1386 247.443 84.6015 246.965 83.4789 246.702L82.5551 246.493C81.8998 246.337 81.6313 246.111 81.6313 245.746V245.735C81.6313 245.268 82.0932 244.951 82.7324 244.951C83.3876 244.951 83.8012 245.257 83.914 245.666V245.676H85.0258V245.671C84.9238 244.72 84.0698 244.054 82.7377 244.054C81.4164 244.054 80.4711 244.785 80.4711 245.8V245.805C80.4711 246.659 80.9814 247.159 82.0825 247.411L83.0117 247.626C83.6884 247.782 83.9623 248.029 83.9623 248.394V248.405C83.9623 248.883 83.4628 249.21 82.7431 249.21C82.0502 249.21 81.6259 248.915 81.4809 248.475L81.4755 248.469H80.31V248.475C80.4228 249.452 81.3144 250.113 82.7216 250.113ZM88.5441 250.113C89.3927 250.113 89.9835 249.748 90.2628 249.119H90.3541V250H91.5143V244.167H90.3541V247.588C90.3541 248.528 89.8546 249.114 88.92 249.114C88.066 249.114 87.7115 248.636 87.7115 247.669V244.167H86.546V247.943C86.546 249.323 87.2281 250.113 88.5441 250.113ZM93.2654 250H94.431V246.417C94.431 245.655 94.952 245.053 95.6556 245.053C96.3431 245.053 96.7781 245.472 96.7781 246.138V250H97.9383V246.31C97.9383 245.606 98.4271 245.053 99.1683 245.053C99.931 245.053 100.296 245.451 100.296 246.256V250H101.456V245.977C101.456 244.763 100.769 244.054 99.5926 244.054C98.7815 244.054 98.1102 244.468 97.8147 245.096H97.7234C97.4656 244.468 96.9017 244.054 96.1067 244.054C95.344 244.054 94.7747 244.425 94.5169 245.064H94.431V244.167H93.2654V250Z" fill="white"/>
<line x1="30" y1="257.75" x2="176" y2="257.75" stroke="black" stroke-opacity="0.35" stroke-width="0.5" stroke-dasharray="1 1"/>
<line x1="30" y1="246.75" x2="176" y2="246.75" stroke="white" stroke-width="0.5"/>
<line x1="30" y1="220.75" x2="176" y2="220.75" stroke="white" stroke-width="0.5"/>
<rect x="193" y="81" width="160" height="229" rx="10" fill="#F2F1F6"/>
<path d="M236.579 105H238.001V101.871H240.147C241.943 101.871 243.187 100.646 243.187 98.8555V98.8428C243.187 97.0464 241.943 95.8403 240.147 95.8403H236.579V105ZM239.791 97.04C241.023 97.04 241.74 97.7065 241.74 98.8491V98.8618C241.74 100.011 241.023 100.677 239.791 100.677H238.001V97.04H239.791ZM244.783 105H246.16V100.88C246.16 99.8838 246.878 99.2363 247.931 99.2363C248.192 99.2363 248.426 99.2681 248.674 99.3188V98.0493C248.534 98.0176 248.293 97.9858 248.071 97.9858C247.151 97.9858 246.509 98.4175 246.262 99.1475H246.16V98.1064H244.783V105ZM252.65 105.133C254.669 105.133 255.906 103.781 255.906 101.56V101.547C255.906 99.3252 254.662 97.9731 252.65 97.9731C250.632 97.9731 249.387 99.3315 249.387 101.547V101.56C249.387 103.781 250.625 105.133 252.65 105.133ZM252.65 103.984C251.463 103.984 250.797 103.089 250.797 101.56V101.547C250.797 100.017 251.463 99.1221 252.65 99.1221C253.831 99.1221 254.504 100.017 254.504 101.547V101.56C254.504 103.083 253.831 103.984 252.65 103.984ZM259.984 105.114C260.949 105.114 261.704 104.67 262.104 103.915H262.212V105H263.583V95.4023H262.212V99.1982H262.104C261.736 98.4556 260.93 97.9858 259.984 97.9858C258.232 97.9858 257.128 99.3633 257.128 101.547V101.56C257.128 103.724 258.251 105.114 259.984 105.114ZM260.378 103.94C259.222 103.94 258.531 103.039 258.531 101.56V101.547C258.531 100.068 259.222 99.1665 260.378 99.1665C261.52 99.1665 262.231 100.074 262.231 101.547V101.56C262.231 103.032 261.527 103.94 260.378 103.94ZM267.851 105.133C268.854 105.133 269.553 104.702 269.883 103.959H269.991V105H271.362V98.1064H269.991V102.15C269.991 103.261 269.4 103.953 268.296 103.953C267.287 103.953 266.868 103.388 266.868 102.245V98.1064H265.49V102.569C265.49 104.2 266.296 105.133 267.851 105.133ZM276.169 105.133C277.877 105.133 278.861 104.213 279.108 102.874L279.121 102.816H277.801L277.788 102.848C277.566 103.591 277.033 103.984 276.169 103.984C275.033 103.984 274.329 103.058 274.329 101.534V101.521C274.329 100.036 275.02 99.1221 276.169 99.1221C277.083 99.1221 277.642 99.6299 277.794 100.309L277.801 100.328L279.121 100.322V100.29C278.931 98.9507 277.896 97.9731 276.163 97.9731C274.151 97.9731 272.926 99.3379 272.926 101.521V101.534C272.926 103.762 274.157 105.133 276.169 105.133ZM283.307 105.044C283.573 105.044 283.827 105.013 284.049 104.975V103.876C283.859 103.896 283.738 103.902 283.529 103.902C282.85 103.902 282.57 103.597 282.57 102.854V99.1919H284.049V98.1064H282.57V96.3672H281.168V98.1064H280.088V99.1919H281.168V103.185C281.168 104.511 281.79 105.044 283.307 105.044ZM286.293 96.875C286.762 96.875 287.156 96.4878 287.156 96.0181C287.156 95.542 286.762 95.1548 286.293 95.1548C285.817 95.1548 285.429 95.542 285.429 96.0181C285.429 96.4878 285.817 96.875 286.293 96.875ZM285.601 105H286.972V98.1064H285.601V105ZM290.796 105H292.262L294.75 98.1064H293.303L291.589 103.604H291.481L289.761 98.1064H288.301L290.796 105ZM296.771 96.875C297.241 96.875 297.635 96.4878 297.635 96.0181C297.635 95.542 297.241 95.1548 296.771 95.1548C296.295 95.1548 295.908 95.542 295.908 96.0181C295.908 96.4878 296.295 96.875 296.771 96.875ZM296.079 105H297.45V98.1064H296.079V105ZM301.979 105.044C302.245 105.044 302.499 105.013 302.722 104.975V103.876C302.531 103.896 302.411 103.902 302.201 103.902C301.522 103.902 301.243 103.597 301.243 102.854V99.1919H302.722V98.1064H301.243V96.3672H299.84V98.1064H298.761V99.1919H299.84V103.185C299.84 104.511 300.462 105.044 301.979 105.044ZM304.92 107.425C306.317 107.425 307.015 106.911 307.599 105.267L310.164 98.1064H308.716L306.996 103.616H306.875L305.149 98.1064H303.664L306.164 105.006L306.063 105.362C305.86 106.06 305.473 106.333 304.831 106.333C304.673 106.333 304.501 106.327 304.368 106.308V107.393C304.546 107.412 304.749 107.425 304.92 107.425Z" fill="black"/>
<path d="M242.68 285.222C244.813 285.222 246.177 284.13 246.177 282.378V282.372C246.177 281.014 245.39 280.239 243.467 279.827L242.47 279.604C241.283 279.351 240.801 278.906 240.801 278.227V278.221C240.801 277.357 241.594 276.856 242.667 276.856C243.778 276.85 244.495 277.396 244.616 278.145L244.629 278.227H246.006L246 278.138C245.898 276.716 244.629 275.618 242.686 275.618C240.744 275.618 239.373 276.71 239.366 278.291V278.297C239.366 279.649 240.166 280.512 242.026 280.906L243.029 281.122C244.241 281.382 244.737 281.839 244.737 282.543V282.55C244.737 283.4 243.905 283.984 242.737 283.984C241.512 283.984 240.63 283.451 240.553 282.62L240.547 282.55H239.151L239.157 282.632C239.284 284.175 240.611 285.222 242.68 285.222ZM247.875 285H249.252V280.957C249.252 279.846 249.881 279.154 250.89 279.154C251.899 279.154 252.375 279.719 252.375 280.861V285H253.746V280.538C253.746 278.894 252.896 277.973 251.353 277.973C250.35 277.973 249.69 278.417 249.354 279.154H249.252V275.402H247.875V285ZM258.51 285.133C260.528 285.133 261.766 283.781 261.766 281.56V281.547C261.766 279.325 260.522 277.973 258.51 277.973C256.491 277.973 255.247 279.332 255.247 281.547V281.56C255.247 283.781 256.485 285.133 258.51 285.133ZM258.51 283.984C257.323 283.984 256.656 283.089 256.656 281.56V281.547C256.656 280.017 257.323 279.122 258.51 279.122C259.69 279.122 260.363 280.017 260.363 281.547V281.56C260.363 283.083 259.69 283.984 258.51 283.984ZM264.39 285H265.793L267.215 279.858H267.323L268.751 285H270.166L272.064 278.106H270.7L269.468 283.426H269.36L267.938 278.106H266.631L265.209 283.426H265.107L263.87 278.106H262.486L264.39 285ZM277.027 285H278.322V278.278H278.423L281.108 285H282.162L284.854 278.278H284.949V285H286.244V275.84H284.606L281.686 283.146H281.585L278.665 275.84H277.027V285ZM291.223 285.133C293.241 285.133 294.479 283.781 294.479 281.56V281.547C294.479 279.325 293.235 277.973 291.223 277.973C289.204 277.973 287.96 279.332 287.96 281.547V281.56C287.96 283.781 289.198 285.133 291.223 285.133ZM291.223 283.984C290.036 283.984 289.369 283.089 289.369 281.56V281.547C289.369 280.017 290.036 279.122 291.223 279.122C292.403 279.122 293.076 280.017 293.076 281.547V281.56C293.076 283.083 292.403 283.984 291.223 283.984ZM296.043 285H297.421V280.88C297.421 279.884 298.138 279.236 299.192 279.236C299.452 279.236 299.687 279.268 299.934 279.319V278.049C299.795 278.018 299.553 277.986 299.331 277.986C298.411 277.986 297.77 278.417 297.522 279.147H297.421V278.106H296.043V285ZM303.885 285.133C305.65 285.133 306.602 284.118 306.83 283.21L306.843 283.153L305.516 283.159L305.491 283.21C305.326 283.565 304.799 284.003 303.917 284.003C302.781 284.003 302.057 283.235 302.032 281.915H306.919V281.433C306.919 279.363 305.739 277.973 303.815 277.973C301.892 277.973 300.648 279.414 300.648 281.566V281.572C300.648 283.756 301.867 285.133 303.885 285.133ZM303.822 279.103C304.755 279.103 305.447 279.7 305.555 280.931H302.051C302.171 279.744 302.882 279.103 303.822 279.103Z" fill="#007AFF"/>
<g filter="url(#filter0_i)">
<path d="M305 196C305 213.673 290.673 228 273 228C255.327 228 241 213.673 241 196C241 178.327 255.327 164 273 164C290.673 164 305 178.327 305 196ZM253.8 196C253.8 206.604 262.396 215.2 273 215.2C283.604 215.2 292.2 206.604 292.2 196C292.2 185.396 283.604 176.8 273 176.8C262.396 176.8 253.8 185.396 253.8 196Z" fill="#35C759" fill-opacity="0.4"/>
</g>
<path d="M273 170C273 166.686 275.709 163.943 278.965 164.561C282.18 165.171 285.295 166.273 288.195 167.838C292.864 170.357 296.833 173.997 299.746 178.431C302.658 182.865 304.423 187.954 304.881 193.239C305.338 198.524 304.475 203.84 302.368 208.709C300.261 213.577 296.977 217.846 292.811 221.13C288.645 224.414 283.728 226.611 278.502 227.523C273.276 228.436 267.905 228.034 262.873 226.355C259.746 225.312 256.811 223.796 254.165 221.87C251.486 219.919 251.631 216.067 254.047 213.798L254.63 213.251C257.046 210.982 260.821 211.209 263.722 212.81C264.741 213.372 265.812 213.842 266.924 214.213C269.943 215.22 273.165 215.461 276.301 214.914C279.437 214.367 282.387 213.049 284.887 211.078C287.386 209.108 289.357 206.546 290.621 203.625C291.885 200.704 292.403 197.514 292.128 194.343C291.854 191.172 290.795 188.119 289.048 185.459C287.3 182.798 284.918 180.614 282.117 179.103C281.086 178.546 280.01 178.088 278.903 177.73C275.75 176.711 273 174.114 273 170.8V170Z" fill="#35C759"/>
<g opacity="0.4" filter="url(#filter1_i)">
<path d="M324 195.5C324 223.943 300.943 247 272.5 247C244.057 247 221 223.943 221 195.5C221 167.057 244.057 144 272.5 144C300.943 144 324 167.057 324 195.5ZM241.6 195.5C241.6 212.566 255.434 226.4 272.5 226.4C289.566 226.4 303.4 212.566 303.4 195.5C303.4 178.434 289.566 164.6 272.5 164.6C255.434 164.6 241.6 178.434 241.6 195.5Z" fill="#EB4D3D"/>
</g>
<path d="M272.5 150C272.5 146.686 275.195 143.964 278.486 144.349C283.194 144.9 287.812 146.099 292.208 147.92C298.456 150.508 304.134 154.302 308.916 159.084C313.698 163.866 317.492 169.544 320.08 175.792C322.668 182.04 324 188.737 324 195.5C324 202.263 322.668 208.96 320.08 215.208C317.492 221.456 313.698 227.134 308.916 231.916C304.134 236.698 298.456 240.492 292.208 243.08C287.812 244.901 283.194 246.1 278.486 246.651C275.195 247.036 272.5 244.314 272.5 241V232.4C272.5 229.086 275.211 226.459 278.462 225.819C280.466 225.425 282.43 224.833 284.325 224.048C288.074 222.495 291.48 220.219 294.35 217.35C297.219 214.48 299.495 211.074 301.048 207.325C302.601 203.576 303.4 199.558 303.4 195.5C303.4 191.442 302.601 187.424 301.048 183.675C299.495 179.926 297.219 176.52 294.35 173.65C291.48 170.781 288.074 168.505 284.325 166.952C282.43 166.167 280.466 165.575 278.462 165.181C275.211 164.541 272.5 161.914 272.5 158.6V150Z" fill="#EB4D3D"/>
</g>
</g>
</g>
<g opacity="0.9" filter="url(#filter2_d)">
<rect x="203" y="62" width="158" height="239" rx="10" fill="#F2F1F6"/>
<path d="M237.073 86H238.823V82.1484H241.463C243.674 82.1484 245.206 80.6406 245.206 78.4375V78.4219C245.206 76.2109 243.674 74.7266 241.463 74.7266H237.073V86ZM241.026 76.2031C242.542 76.2031 243.424 77.0234 243.424 78.4297V78.4453C243.424 79.8594 242.542 80.6797 241.026 80.6797H238.823V76.2031H241.026ZM247.188 86H248.883V80.9297C248.883 79.7031 249.766 78.9062 251.063 78.9062C251.383 78.9062 251.672 78.9453 251.977 79.0078V77.4453C251.805 77.4062 251.508 77.3672 251.235 77.3672C250.102 77.3672 249.313 77.8984 249.008 78.7969H248.883V77.5156H247.188V86ZM256.889 86.1641C259.374 86.1641 260.897 84.5 260.897 81.7656V81.75C260.897 79.0156 259.366 77.3516 256.889 77.3516C254.405 77.3516 252.874 79.0234 252.874 81.75V81.7656C252.874 84.5 254.397 86.1641 256.889 86.1641ZM256.889 84.75C255.428 84.75 254.608 83.6484 254.608 81.7656V81.75C254.608 79.8672 255.428 78.7656 256.889 78.7656C258.342 78.7656 259.171 79.8672 259.171 81.75V81.7656C259.171 83.6406 258.342 84.75 256.889 84.75ZM265.934 86.1406C267.122 86.1406 268.052 85.5938 268.544 84.6641H268.677V86H270.364V74.1875H268.677V78.8594H268.544C268.091 77.9453 267.098 77.3672 265.934 77.3672C263.778 77.3672 262.419 79.0625 262.419 81.75V81.7656C262.419 84.4297 263.802 86.1406 265.934 86.1406ZM266.419 84.6953C264.997 84.6953 264.145 83.5859 264.145 81.7656V81.75C264.145 79.9297 264.997 78.8203 266.419 78.8203C267.825 78.8203 268.7 79.9375 268.7 81.75V81.7656C268.7 83.5781 267.833 84.6953 266.419 84.6953ZM275.636 86.1641C276.87 86.1641 277.729 85.6328 278.136 84.7188H278.268V86H279.956V77.5156H278.268V82.4922C278.268 83.8594 277.542 84.7109 276.182 84.7109C274.94 84.7109 274.425 84.0156 274.425 82.6094V77.5156H272.729V83.0078C272.729 85.0156 273.722 86.1641 275.636 86.1641ZM285.892 86.1641C287.993 86.1641 289.204 85.0312 289.509 83.3828L289.524 83.3125H287.899L287.884 83.3516C287.61 84.2656 286.954 84.75 285.892 84.75C284.493 84.75 283.626 83.6094 283.626 81.7344V81.7188C283.626 79.8906 284.477 78.7656 285.892 78.7656C287.017 78.7656 287.704 79.3906 287.892 80.2266L287.899 80.25L289.524 80.2422V80.2031C289.29 78.5547 288.017 77.3516 285.884 77.3516C283.407 77.3516 281.899 79.0312 281.899 81.7188V81.7344C281.899 84.4766 283.415 86.1641 285.892 86.1641ZM294.694 86.0547C295.022 86.0547 295.335 86.0156 295.608 85.9688V84.6172C295.374 84.6406 295.226 84.6484 294.968 84.6484C294.132 84.6484 293.788 84.2734 293.788 83.3594V78.8516H295.608V77.5156H293.788V75.375H292.062V77.5156H290.733V78.8516H292.062V83.7656C292.062 85.3984 292.827 86.0547 294.694 86.0547ZM298.388 76C298.966 76 299.45 75.5234 299.45 74.9453C299.45 74.3594 298.966 73.8828 298.388 73.8828C297.802 73.8828 297.325 74.3594 297.325 74.9453C297.325 75.5234 297.802 76 298.388 76ZM297.536 86H299.224V77.5156H297.536V86ZM303.948 86H305.753L308.816 77.5156H307.034L304.925 84.2812H304.792L302.675 77.5156H300.878L303.948 86ZM311.322 76C311.9 76 312.384 75.5234 312.384 74.9453C312.384 74.3594 311.9 73.8828 311.322 73.8828C310.736 73.8828 310.259 74.3594 310.259 74.9453C310.259 75.5234 310.736 76 311.322 76ZM310.47 86H312.158V77.5156H310.47V86ZM317.749 86.0547C318.077 86.0547 318.39 86.0156 318.663 85.9688V84.6172C318.429 84.6406 318.281 84.6484 318.023 84.6484C317.187 84.6484 316.843 84.2734 316.843 83.3594V78.8516H318.663V77.5156H316.843V75.375H315.117V77.5156H313.788V78.8516H315.117V83.7656C315.117 85.3984 315.882 86.0547 317.749 86.0547ZM321.388 88.9844C323.107 88.9844 323.966 88.3516 324.685 86.3281L327.841 77.5156H326.06L323.943 84.2969H323.794L321.669 77.5156H319.841L322.919 86.0078L322.794 86.4453C322.544 87.3047 322.068 87.6406 321.279 87.6406C321.083 87.6406 320.872 87.6328 320.708 87.6094V88.9453C320.927 88.9688 321.177 88.9844 321.388 88.9844Z" fill="black"/>
<path d="M251.68 267.222C253.813 267.222 255.177 266.13 255.177 264.378V264.372C255.177 263.014 254.39 262.239 252.467 261.827L251.47 261.604C250.283 261.351 249.801 260.906 249.801 260.227V260.221C249.801 259.357 250.594 258.856 251.667 258.856C252.778 258.85 253.495 259.396 253.616 260.145L253.629 260.227H255.006L255 260.138C254.898 258.716 253.629 257.618 251.686 257.618C249.744 257.618 248.373 258.71 248.366 260.291V260.297C248.366 261.649 249.166 262.512 251.026 262.906L252.029 263.122C253.241 263.382 253.737 263.839 253.737 264.543V264.55C253.737 265.4 252.905 265.984 251.737 265.984C250.512 265.984 249.63 265.451 249.553 264.62L249.547 264.55H248.151L248.157 264.632C248.284 266.175 249.611 267.222 251.68 267.222ZM256.875 267H258.252V262.957C258.252 261.846 258.881 261.154 259.89 261.154C260.899 261.154 261.375 261.719 261.375 262.861V267H262.746V262.538C262.746 260.894 261.896 259.973 260.353 259.973C259.35 259.973 258.69 260.417 258.354 261.154H258.252V257.402H256.875V267ZM267.51 267.133C269.528 267.133 270.766 265.781 270.766 263.56V263.547C270.766 261.325 269.522 259.973 267.51 259.973C265.491 259.973 264.247 261.332 264.247 263.547V263.56C264.247 265.781 265.485 267.133 267.51 267.133ZM267.51 265.984C266.323 265.984 265.656 265.089 265.656 263.56V263.547C265.656 262.017 266.323 261.122 267.51 261.122C268.69 261.122 269.363 262.017 269.363 263.547V263.56C269.363 265.083 268.69 265.984 267.51 265.984ZM273.39 267H274.793L276.215 261.858H276.323L277.751 267H279.166L281.064 260.106H279.7L278.468 265.426H278.36L276.938 260.106H275.631L274.209 265.426H274.107L272.87 260.106H271.486L273.39 267ZM286.027 267H287.322V260.278H287.423L290.108 267H291.162L293.854 260.278H293.949V267H295.244V257.84H293.606L290.686 265.146H290.585L287.665 257.84H286.027V267ZM300.223 267.133C302.241 267.133 303.479 265.781 303.479 263.56V263.547C303.479 261.325 302.235 259.973 300.223 259.973C298.204 259.973 296.96 261.332 296.96 263.547V263.56C296.96 265.781 298.198 267.133 300.223 267.133ZM300.223 265.984C299.036 265.984 298.369 265.089 298.369 263.56V263.547C298.369 262.017 299.036 261.122 300.223 261.122C301.403 261.122 302.076 262.017 302.076 263.547V263.56C302.076 265.083 301.403 265.984 300.223 265.984ZM305.043 267H306.421V262.88C306.421 261.884 307.138 261.236 308.192 261.236C308.452 261.236 308.687 261.268 308.934 261.319V260.049C308.795 260.018 308.553 259.986 308.331 259.986C307.411 259.986 306.77 260.417 306.522 261.147H306.421V260.106H305.043V267ZM312.885 267.133C314.65 267.133 315.602 266.118 315.83 265.21L315.843 265.153L314.516 265.159L314.491 265.21C314.326 265.565 313.799 266.003 312.917 266.003C311.781 266.003 311.057 265.235 311.032 263.915H315.919V263.433C315.919 261.363 314.739 259.973 312.815 259.973C310.892 259.973 309.648 261.414 309.648 263.566V263.572C309.648 265.756 310.867 267.133 312.885 267.133ZM312.822 261.103C313.755 261.103 314.447 261.7 314.555 262.931H311.051C311.171 261.744 311.882 261.103 312.822 261.103Z" fill="#007AFF"/>
<g opacity="0.4" filter="url(#filter3_i)">
<path d="M344 174.5C344 208.466 316.466 236 282.5 236C248.534 236 221 208.466 221 174.5C221 140.534 248.534 113 282.5 113C316.466 113 344 140.534 344 174.5ZM245.6 174.5C245.6 194.879 262.121 211.4 282.5 211.4C302.879 211.4 319.4 194.879 319.4 174.5C319.4 154.121 302.879 137.6 282.5 137.6C262.121 137.6 245.6 154.121 245.6 174.5Z" fill="#EB4D3D"/>
</g>
<path d="M282.5 119C282.5 115.686 285.193 112.97 288.491 113.292C294.512 113.882 300.425 115.358 306.035 117.681C313.497 120.772 320.276 125.302 325.987 131.013C331.698 136.724 336.228 143.503 339.319 150.965C342.409 158.426 344 166.424 344 174.5C344 182.576 342.409 190.574 339.319 198.035C336.228 205.497 331.698 212.276 325.987 217.987C320.276 223.698 313.497 228.228 306.035 231.319C300.425 233.642 294.512 235.118 288.491 235.708C285.193 236.03 282.5 233.314 282.5 230V217.4C282.5 214.086 285.204 211.45 288.474 210.913C291.263 210.456 293.997 209.678 296.621 208.591C301.098 206.737 305.166 204.019 308.592 200.592C312.019 197.166 314.737 193.098 316.591 188.621C318.446 184.144 319.4 179.346 319.4 174.5C319.4 169.654 318.446 164.856 316.591 160.379C314.737 155.902 312.019 151.834 308.592 148.408C305.166 144.981 301.098 142.263 296.621 140.409C293.997 139.322 291.263 138.544 288.474 138.087C285.204 137.55 282.5 134.914 282.5 131.6V119Z" fill="#EB4D3D"/>
<g filter="url(#filter4_i)">
<path d="M319 174C319 194.435 302.435 211 282 211C261.565 211 245 194.435 245 174C245 153.565 261.565 137 282 137C302.435 137 319 153.565 319 174ZM259.8 174C259.8 186.261 269.739 196.2 282 196.2C294.261 196.2 304.2 186.261 304.2 174C304.2 161.739 294.261 151.8 282 151.8C269.739 151.8 259.8 161.739 259.8 174Z" fill="#35C759" fill-opacity="0.4"/>
</g>
<path d="M282 143C282 139.686 284.704 136.95 287.974 137.485C292.018 138.147 295.939 139.478 299.57 141.438C304.968 144.35 309.557 148.559 312.925 153.686C316.293 158.813 318.333 164.696 318.862 170.807C319.391 176.918 318.393 183.065 315.957 188.694C313.521 194.324 309.724 199.259 304.906 203.057C300.089 206.854 294.404 209.394 288.361 210.449C282.319 211.504 276.109 211.039 270.29 209.098C266.377 207.792 262.722 205.846 259.471 203.351C256.843 201.333 256.986 197.489 259.402 195.221L261.443 193.304C263.859 191.036 267.631 191.244 270.462 192.966C271.877 193.827 273.39 194.531 274.974 195.059C278.465 196.224 282.191 196.502 285.817 195.869C289.442 195.237 292.854 193.712 295.744 191.434C298.634 189.156 300.913 186.194 302.374 182.817C303.836 179.439 304.435 175.751 304.117 172.084C303.8 168.418 302.576 164.888 300.555 161.812C298.534 158.736 295.781 156.21 292.542 154.463C291.072 153.67 289.524 153.048 287.927 152.606C284.734 151.721 282 149.114 282 145.8V143Z" fill="#35C759"/>
</g>
<path d="M37.044 333.402V342H36.024V335.682C36.024 335.598 36.026 335.508 36.03 335.412C36.038 335.316 36.046 335.218 36.054 335.118L33.102 340.494C33.01 340.674 32.87 340.764 32.682 340.764H32.514C32.326 340.764 32.186 340.674 32.094 340.494L29.082 335.094C29.106 335.306 29.118 335.502 29.118 335.682V342H28.098V333.402H28.956C29.06 333.402 29.14 333.412 29.196 333.432C29.252 333.452 29.306 333.508 29.358 333.6L32.328 338.892C32.376 338.988 32.422 339.088 32.466 339.192C32.514 339.296 32.558 339.402 32.598 339.51C32.638 339.402 32.68 339.296 32.724 339.192C32.768 339.084 32.816 338.982 32.868 338.886L35.784 333.6C35.832 333.508 35.884 333.452 35.94 333.432C36 333.412 36.082 333.402 36.186 333.402H37.044ZM44.0939 335.922L40.7039 343.794C40.6679 343.874 40.6219 343.938 40.5659 343.986C40.5139 344.034 40.4319 344.058 40.3199 344.058H39.5279L40.6379 341.646L38.1299 335.922H39.0539C39.1459 335.922 39.2179 335.946 39.2699 335.994C39.3259 336.038 39.3639 336.088 39.3839 336.144L41.0099 339.972C41.0739 340.14 41.1279 340.316 41.1719 340.5C41.2279 340.312 41.2879 340.134 41.3519 339.966L42.9299 336.144C42.9539 336.08 42.9939 336.028 43.0499 335.988C43.1099 335.944 43.1759 335.922 43.2479 335.922H44.0939ZM55.5188 337.704C55.5188 338.348 55.4168 338.934 55.2128 339.462C55.0088 339.99 54.7208 340.442 54.3488 340.818C53.9768 341.194 53.5288 341.486 53.0048 341.694C52.4848 341.898 51.9088 342 51.2768 342H48.0668V333.402H51.2768C51.9088 333.402 52.4848 333.506 53.0048 333.714C53.5288 333.918 53.9768 334.21 54.3488 334.59C54.7208 334.966 55.0088 335.418 55.2128 335.946C55.4168 336.474 55.5188 337.06 55.5188 337.704ZM54.3248 337.704C54.3248 337.176 54.2528 336.704 54.1088 336.288C53.9648 335.872 53.7608 335.52 53.4968 335.232C53.2328 334.944 52.9128 334.724 52.5368 334.572C52.1608 334.42 51.7408 334.344 51.2768 334.344H49.2308V341.058H51.2768C51.7408 341.058 52.1608 340.982 52.5368 340.83C52.9128 340.678 53.2328 340.46 53.4968 340.176C53.7608 339.888 53.9648 339.536 54.1088 339.12C54.2528 338.704 54.3248 338.232 54.3248 337.704ZM60.0853 339.264C59.5933 339.28 59.1733 339.32 58.8253 339.384C58.4813 339.444 58.1993 339.524 57.9793 339.624C57.7633 339.724 57.6053 339.842 57.5053 339.978C57.4093 340.114 57.3613 340.266 57.3613 340.434C57.3613 340.594 57.3873 340.732 57.4393 340.848C57.4913 340.964 57.5613 341.06 57.6493 341.136C57.7413 341.208 57.8473 341.262 57.9673 341.298C58.0913 341.33 58.2233 341.346 58.3633 341.346C58.5513 341.346 58.7233 341.328 58.8793 341.292C59.0353 341.252 59.1813 341.196 59.3173 341.124C59.4573 341.052 59.5893 340.966 59.7133 340.866C59.8413 340.766 59.9653 340.652 60.0853 340.524V339.264ZM56.6353 336.78C56.9713 336.456 57.3333 336.214 57.7213 336.054C58.1093 335.894 58.5393 335.814 59.0113 335.814C59.3513 335.814 59.6533 335.87 59.9173 335.982C60.1813 336.094 60.4033 336.25 60.5833 336.45C60.7633 336.65 60.8993 336.892 60.9913 337.176C61.0833 337.46 61.1293 337.772 61.1293 338.112V342H60.6553C60.5513 342 60.4713 341.984 60.4153 341.952C60.3593 341.916 60.3153 341.848 60.2833 341.748L60.1633 341.172C60.0033 341.32 59.8473 341.452 59.6953 341.568C59.5433 341.68 59.3833 341.776 59.2153 341.856C59.0473 341.932 58.8673 341.99 58.6753 342.03C58.4873 342.074 58.2773 342.096 58.0453 342.096C57.8093 342.096 57.5873 342.064 57.3793 342C57.1713 341.932 56.9893 341.832 56.8333 341.7C56.6813 341.568 56.5593 341.402 56.4673 341.202C56.3793 340.998 56.3353 340.758 56.3353 340.482C56.3353 340.242 56.4013 340.012 56.5333 339.792C56.6653 339.568 56.8793 339.37 57.1753 339.198C57.4713 339.026 57.8573 338.886 58.3333 338.778C58.8093 338.666 59.3933 338.602 60.0853 338.586V338.112C60.0853 337.64 59.9833 337.284 59.7793 337.044C59.5753 336.8 59.2773 336.678 58.8853 336.678C58.6213 336.678 58.3993 336.712 58.2193 336.78C58.0433 336.844 57.8893 336.918 57.7573 337.002C57.6293 337.082 57.5173 337.156 57.4213 337.224C57.3293 337.288 57.2373 337.32 57.1453 337.32C57.0733 337.32 57.0113 337.302 56.9593 337.266C56.9073 337.226 56.8633 337.178 56.8273 337.122L56.6353 336.78ZM67.8595 335.922L64.4695 343.794C64.4335 343.874 64.3875 343.938 64.3315 343.986C64.2795 344.034 64.1975 344.058 64.0855 344.058H63.2935L64.4035 341.646L61.8955 335.922H62.8195C62.9115 335.922 62.9835 335.946 63.0355 335.994C63.0915 336.038 63.1295 336.088 63.1495 336.144L64.7755 339.972C64.8395 340.14 64.8935 340.316 64.9375 340.5C64.9935 340.312 65.0535 340.134 65.1175 339.966L66.6955 336.144C66.7195 336.08 66.7595 336.028 66.8155 335.988C66.8755 335.944 66.9415 335.922 67.0135 335.922H67.8595ZM73.4464 342.096C72.9664 342.096 72.5964 341.962 72.3364 341.694C72.0804 341.426 71.9524 341.04 71.9524 340.536V336.816H71.2204C71.1564 336.816 71.1024 336.798 71.0584 336.762C71.0144 336.722 70.9924 336.662 70.9924 336.582V336.156L71.9884 336.03L72.2344 334.152C72.2464 334.092 72.2724 334.044 72.3124 334.008C72.3564 333.968 72.4124 333.948 72.4804 333.948H73.0204V336.042H74.7784V336.816H73.0204V340.464C73.0204 340.72 73.0824 340.91 73.2064 341.034C73.3304 341.158 73.4904 341.22 73.6864 341.22C73.7984 341.22 73.8944 341.206 73.9744 341.178C74.0584 341.146 74.1304 341.112 74.1904 341.076C74.2504 341.04 74.3004 341.008 74.3404 340.98C74.3844 340.948 74.4224 340.932 74.4544 340.932C74.5104 340.932 74.5604 340.966 74.6044 341.034L74.9164 341.544C74.7324 341.716 74.5104 341.852 74.2504 341.952C73.9904 342.048 73.7224 342.096 73.4464 342.096ZM79.1752 339.264C78.6832 339.28 78.2632 339.32 77.9152 339.384C77.5712 339.444 77.2892 339.524 77.0692 339.624C76.8532 339.724 76.6952 339.842 76.5952 339.978C76.4992 340.114 76.4512 340.266 76.4512 340.434C76.4512 340.594 76.4772 340.732 76.5292 340.848C76.5812 340.964 76.6512 341.06 76.7392 341.136C76.8312 341.208 76.9372 341.262 77.0572 341.298C77.1812 341.33 77.3132 341.346 77.4532 341.346C77.6412 341.346 77.8132 341.328 77.9692 341.292C78.1252 341.252 78.2712 341.196 78.4072 341.124C78.5472 341.052 78.6792 340.966 78.8032 340.866C78.9312 340.766 79.0552 340.652 79.1752 340.524V339.264ZM75.7252 336.78C76.0612 336.456 76.4232 336.214 76.8112 336.054C77.1992 335.894 77.6292 335.814 78.1012 335.814C78.4412 335.814 78.7432 335.87 79.0072 335.982C79.2712 336.094 79.4932 336.25 79.6732 336.45C79.8532 336.65 79.9892 336.892 80.0812 337.176C80.1732 337.46 80.2192 337.772 80.2192 338.112V342H79.7452C79.6412 342 79.5612 341.984 79.5052 341.952C79.4492 341.916 79.4052 341.848 79.3732 341.748L79.2532 341.172C79.0932 341.32 78.9372 341.452 78.7852 341.568C78.6332 341.68 78.4732 341.776 78.3052 341.856C78.1372 341.932 77.9572 341.99 77.7652 342.03C77.5772 342.074 77.3672 342.096 77.1352 342.096C76.8992 342.096 76.6772 342.064 76.4692 342C76.2612 341.932 76.0792 341.832 75.9232 341.7C75.7712 341.568 75.6492 341.402 75.5572 341.202C75.4692 340.998 75.4252 340.758 75.4252 340.482C75.4252 340.242 75.4912 340.012 75.6232 339.792C75.7552 339.568 75.9692 339.37 76.2652 339.198C76.5612 339.026 76.9472 338.886 77.4232 338.778C77.8992 338.666 78.4832 338.602 79.1752 338.586V338.112C79.1752 337.64 79.0732 337.284 78.8692 337.044C78.6652 336.8 78.3672 336.678 77.9752 336.678C77.7112 336.678 77.4892 336.712 77.3092 336.78C77.1332 336.844 76.9792 336.918 76.8472 337.002C76.7192 337.082 76.6072 337.156 76.5112 337.224C76.4192 337.288 76.3272 337.32 76.2352 337.32C76.1632 337.32 76.1012 337.302 76.0492 337.266C75.9972 337.226 75.9532 337.178 75.9172 337.122L75.7252 336.78ZM82.92 340.536C83.116 340.8 83.33 340.986 83.562 341.094C83.798 341.202 84.056 341.256 84.336 341.256C84.908 341.256 85.346 341.054 85.65 340.65C85.954 340.246 86.106 339.644 86.106 338.844C86.106 338.1 85.97 337.554 85.698 337.206C85.43 336.854 85.046 336.678 84.546 336.678C84.198 336.678 83.894 336.758 83.634 336.918C83.378 337.078 83.14 337.304 82.92 337.596V340.536ZM82.92 336.798C83.176 336.502 83.464 336.266 83.784 336.09C84.108 335.914 84.48 335.826 84.9 335.826C85.256 335.826 85.576 335.894 85.86 336.03C86.148 336.166 86.392 336.364 86.592 336.624C86.792 336.88 86.944 337.192 87.048 337.56C87.156 337.928 87.21 338.342 87.21 338.802C87.21 339.294 87.15 339.742 87.03 340.146C86.91 340.55 86.736 340.896 86.508 341.184C86.284 341.468 86.01 341.69 85.686 341.85C85.362 342.006 84.998 342.084 84.594 342.084C84.194 342.084 83.856 342.01 83.58 341.862C83.308 341.71 83.07 341.496 82.866 341.22L82.812 341.772C82.78 341.924 82.688 342 82.536 342H81.846V333.162H82.92V336.798Z" fill="#535353"/>
<defs>
<filter id="filter0_i" x="241" y="164" width="64" height="68" filterUnits="userSpaceOnUse" color-interpolation-filters="sRGB">
<feFlood flood-opacity="0" result="BackgroundImageFix"/>
<feBlend mode="normal" in="SourceGraphic" in2="BackgroundImageFix" result="shape"/>
<feColorMatrix in="SourceAlpha" type="matrix" values="0 0 0 0 0 0 0 0 0 0 0 0 0 0 0 0 0 0 127 0" result="hardAlpha"/>
<feOffset dy="4"/>
<feGaussianBlur stdDeviation="2"/>
<feComposite in2="hardAlpha" operator="arithmetic" k2="-1" k3="1"/>
<feColorMatrix type="matrix" values="0 0 0 0 0 0 0 0 0 0 0 0 0 0 0 0 0 0 0.25 0"/>
<feBlend mode="normal" in2="shape" result="effect1_innerShadow"/>
</filter>
<filter id="filter1_i" x="221" y="144" width="103" height="107" filterUnits="userSpaceOnUse" color-interpolation-filters="sRGB">
<feFlood flood-opacity="0" result="BackgroundImageFix"/>
<feBlend mode="normal" in="SourceGraphic" in2="BackgroundImageFix" result="shape"/>
<feColorMatrix in="SourceAlpha" type="matrix" values="0 0 0 0 0 0 0 0 0 0 0 0 0 0 0 0 0 0 127 0" result="hardAlpha"/>
<feOffset dy="4"/>
<feGaussianBlur stdDeviation="2"/>
<feComposite in2="hardAlpha" operator="arithmetic" k2="-1" k3="1"/>
<feColorMatrix type="matrix" values="0 0 0 0 0 0 0 0 0 0 0 0 0 0 0 0 0 0 0.25 0"/>
<feBlend mode="normal" in2="shape" result="effect1_innerShadow"/>
</filter>
<filter id="filter2_d" x="170" y="62" width="224" height="283" filterUnits="userSpaceOnUse" color-interpolation-filters="sRGB">
<feFlood flood-opacity="0" result="BackgroundImageFix"/>
<feColorMatrix in="SourceAlpha" type="matrix" values="0 0 0 0 0 0 0 0 0 0 0 0 0 0 0 0 0 0 127 0"/>
<feOffset dy="4"/>
<feGaussianBlur stdDeviation="2"/>
<feColorMatrix type="matrix" values="0 0 0 0 0 0 0 0 0 0 0 0 0 0 0 0 0 0 0.25 0"/>
<feBlend mode="normal" in2="BackgroundImageFix" result="effect1_dropShadow"/>
<feBlend mode="normal" in="SourceGraphic" in2="effect1_dropShadow" result="shape"/>
</filter>
<filter id="filter3_i" x="221" y="113" width="123" height="127" filterUnits="userSpaceOnUse" color-interpolation-filters="sRGB">
<feFlood flood-opacity="0" result="BackgroundImageFix"/>
<feBlend mode="normal" in="SourceGraphic" in2="BackgroundImageFix" result="shape"/>
<feColorMatrix in="SourceAlpha" type="matrix" values="0 0 0 0 0 0 0 0 0 0 0 0 0 0 0 0 0 0 127 0" result="hardAlpha"/>
<feOffset dy="4"/>
<feGaussianBlur stdDeviation="2"/>
<feComposite in2="hardAlpha" operator="arithmetic" k2="-1" k3="1"/>
<feColorMatrix type="matrix" values="0 0 0 0 0 0 0 0 0 0 0 0 0 0 0 0 0 0 0.25 0"/>
<feBlend mode="normal" in2="shape" result="effect1_innerShadow"/>
</filter>
<filter id="filter4_i" x="245" y="137" width="74" height="78" filterUnits="userSpaceOnUse" color-interpolation-filters="sRGB">
<feFlood flood-opacity="0" result="BackgroundImageFix"/>
<feBlend mode="normal" in="SourceGraphic" in2="BackgroundImageFix" result="shape"/>
<feColorMatrix in="SourceAlpha" type="matrix" values="0 0 0 0 0 0 0 0 0 0 0 0 0 0 0 0 0 0 127 0" result="hardAlpha"/>
<feOffset dy="4"/>
<feGaussianBlur stdDeviation="2"/>
<feComposite in2="hardAlpha" operator="arithmetic" k2="-1" k3="1"/>
<feColorMatrix type="matrix" values="0 0 0 0 0 0 0 0 0 0 0 0 0 0 0 0 0 0 0.25 0"/>
<feBlend mode="normal" in2="shape" result="effect1_innerShadow"/>
</filter>
<clipPath id="clip0">
<rect width="352" height="353" fill="white" transform="translate(23)"/>
</clipPath>
<clipPath id="clip1">
<rect y="-309" width="375" height="812" rx="30" fill="white"/>
</clipPath>
</defs>
</svg>
