<svg width="401" height="264" viewBox="0 0 401 264" fill="none" xmlns="http://www.w3.org/2000/svg">
<g opacity="0.48" clip-path="url(#clip0)">
<g clip-path="url(#clip1)">
<rect x="2" y="-128" width="375" height="812" rx="30" fill="#F2F2F7"/>
<rect x="2" y="17" width="375" height="574" fill="white"/>
<line x1="17" y1="69.875" x2="362" y2="69.875" stroke="black" stroke-opacity="0.35" stroke-width="0.25"/>
<line x1="17" y1="139.875" x2="362" y2="139.875" stroke="black" stroke-opacity="0.35" stroke-width="0.25"/>
<path d="M25.5273 49H27.0215V44.2603H29.9683L32.5332 49H34.2847L31.5122 44.0278C33.0146 43.5547 33.9194 42.2598 33.9194 40.5996V40.583C33.9194 38.4331 32.4087 37.022 30.1011 37.022H25.5273V49ZM27.0215 42.9321V38.3501H29.9019C31.4458 38.3501 32.3755 39.2051 32.3755 40.6328V40.6494C32.3755 42.1104 31.5039 42.9321 29.9683 42.9321H27.0215ZM39.4445 49.1577C41.5529 49.1577 42.8312 47.9624 43.1383 46.7505L43.1549 46.6841H41.7106L41.6774 46.7588C41.4367 47.2983 40.6896 47.8711 39.4777 47.8711C37.8839 47.8711 36.8629 46.792 36.8214 44.9409H43.2629V44.3765C43.2629 41.7036 41.7853 39.894 39.3532 39.894C36.9211 39.894 35.3439 41.7866 35.3439 44.5508V44.5591C35.3439 47.3647 36.8879 49.1577 39.4445 49.1577ZM39.3449 41.1807C40.6647 41.1807 41.6442 42.019 41.7936 43.7871H36.8463C37.0041 42.0854 38.0168 41.1807 39.3449 41.1807ZM45.0941 49H46.5384V43.4551C46.5384 42.1934 47.4266 41.1724 48.597 41.1724C49.7259 41.1724 50.4564 41.8613 50.4564 42.9238V49H51.9007V43.2476C51.9007 42.1104 52.7225 41.1724 53.9676 41.1724C55.2293 41.1724 55.8353 41.8281 55.8353 43.1479V49H57.2796V42.8159C57.2796 40.9399 56.2586 39.894 54.4324 39.894C53.1956 39.894 52.1746 40.5166 51.6932 41.4629H51.5604C51.1453 40.5332 50.2987 39.894 49.0867 39.894C47.9163 39.894 47.0696 40.4502 46.6712 41.4131H46.5384V40.0518H45.0941V49ZM60.2397 38.3252C60.7876 38.3252 61.2358 37.877 61.2358 37.3291C61.2358 36.7812 60.7876 36.333 60.2397 36.333C59.6919 36.333 59.2436 36.7812 59.2436 37.3291C59.2436 37.877 59.6919 38.3252 60.2397 38.3252ZM59.5093 49H60.9536V40.0518H59.5093V49ZM63.2663 49H64.7106V43.7041C64.7106 42.1353 65.6154 41.1724 67.0431 41.1724C68.4708 41.1724 69.1349 41.9443 69.1349 43.5547V49H70.5792V43.2061C70.5792 41.0811 69.4586 39.894 67.4498 39.894C66.13 39.894 65.2916 40.4502 64.8434 41.3965H64.7106V40.0518H63.2663V49ZM76.0877 49.1577C77.3328 49.1577 78.3289 48.5684 78.8768 47.5723H79.0096V49H80.4539V36.499H79.0096V41.4629H78.8768C78.387 40.5083 77.3162 39.894 76.0877 39.894C73.8133 39.894 72.3357 41.7119 72.3357 44.5176V44.5342C72.3357 47.3232 73.8216 49.1577 76.0877 49.1577ZM76.4197 47.8794C74.7845 47.8794 73.8133 46.6177 73.8133 44.5342V44.5176C73.8133 42.4341 74.7845 41.1724 76.4197 41.1724C78.0467 41.1724 79.0428 42.4507 79.0428 44.5176V44.5342C79.0428 46.6011 78.0467 47.8794 76.4197 47.8794ZM86.4687 49.1577C88.5771 49.1577 89.8554 47.9624 90.1626 46.7505L90.1792 46.6841H88.7348L88.7016 46.7588C88.4609 47.2983 87.7138 47.8711 86.5019 47.8711C84.9082 47.8711 83.8872 46.792 83.8457 44.9409H90.2871V44.3765C90.2871 41.7036 88.8095 39.894 86.3774 39.894C83.9453 39.894 82.3681 41.7866 82.3681 44.5508V44.5591C82.3681 47.3647 83.9121 49.1577 86.4687 49.1577ZM86.3691 41.1807C87.6889 41.1807 88.6684 42.019 88.8178 43.7871H83.8706C84.0283 42.0854 85.041 41.1807 86.3691 41.1807ZM92.1183 49H93.5626V43.4551C93.5626 42.1436 94.5421 41.272 95.92 41.272C96.2355 41.272 96.5094 41.3052 96.8082 41.355V39.9521C96.6671 39.9272 96.36 39.894 96.0861 39.894C94.8741 39.894 94.0358 40.4419 93.6954 41.3799H93.5626V40.0518H92.1183V49Z" fill="black"/>
<rect x="309" y="29" width="51" height="30" rx="15" fill="#35C759"/>
<mask id="mask0" mask-type="alpha" maskUnits="userSpaceOnUse" x="309" y="29" width="51" height="30">
<rect x="309" y="29" width="51" height="30" rx="15" fill="white"/>
</mask>
<g mask="url(#mask0)">
<g filter="url(#filter0_ddd)">
<rect x="332" y="31" width="26" height="26" rx="13" fill="white"/>
</g>
</g>
<rect x="-54" y="90" width="124" height="30" rx="15" fill="#F2F2F7"/>
<mask id="mask1" mask-type="alpha" maskUnits="userSpaceOnUse" x="-54" y="90" width="124" height="30">
<rect x="-54" y="90" width="124" height="30" rx="15" fill="white"/>
</mask>
<g mask="url(#mask1)">
<path d="M-32.7114 110H-26.5415V108.788H-30.7754V108.661L-28.833 106.725C-27.1699 105.074 -26.6875 104.274 -26.6875 103.233V103.214C-26.6875 101.704 -27.9443 100.618 -29.6518 100.618C-31.4927 100.618 -32.7876 101.799 -32.7939 103.475L-32.7812 103.487H-31.4482L-31.4419 103.468C-31.4419 102.465 -30.7563 101.792 -29.728 101.792C-28.7251 101.792 -28.1094 102.453 -28.1094 103.348V103.367C-28.1094 104.109 -28.4585 104.579 -29.6709 105.842L-32.7114 109.035V110ZM-18.7669 110.114C-17.8021 110.114 -17.0467 109.67 -16.6468 108.915H-16.5389V110H-15.1678V100.402H-16.5389V104.198H-16.6468C-17.015 103.456 -17.8211 102.986 -18.7669 102.986C-20.5189 102.986 -21.6234 104.363 -21.6234 106.547V106.56C-21.6234 108.724 -20.4998 110.114 -18.7669 110.114ZM-18.3734 108.94C-19.5286 108.94 -20.2205 108.039 -20.2205 106.56V106.547C-20.2205 105.068 -19.5286 104.167 -18.3734 104.167C-17.2308 104.167 -16.5198 105.074 -16.5198 106.547V106.56C-16.5198 108.032 -17.2244 108.94 -18.3734 108.94ZM-11.3059 110.114C-10.3918 110.114 -9.6682 109.721 -9.26195 109.022H-9.15404V110H-7.7893V105.284C-7.7893 103.836 -8.76684 102.973 -10.4997 102.973C-12.0676 102.973 -13.1531 103.729 -13.3181 104.858L-13.3245 104.903H-11.9978L-11.9914 104.877C-11.8264 104.389 -11.3249 104.109 -10.5632 104.109C-9.63012 104.109 -9.15404 104.528 -9.15404 105.284V105.893L-11.0203 106.001C-12.6643 106.103 -13.5911 106.82 -13.5911 108.051V108.064C-13.5911 109.314 -12.6199 110.114 -11.3059 110.114ZM-12.22 108.007V107.994C-12.22 107.372 -11.7883 107.029 -10.8362 106.972L-9.15404 106.864V107.455C-9.15404 108.343 -9.90941 109.016 -10.9377 109.016C-11.6804 109.016 -12.22 108.642 -12.22 108.007ZM-5.48258 112.425C-4.08609 112.425 -3.38785 111.911 -2.80387 110.267L-0.239414 103.106H-1.68668L-3.40689 108.616H-3.5275L-5.25406 103.106H-6.73941L-4.23844 110.006L-4.34 110.362C-4.54313 111.06 -4.93033 111.333 -5.57145 111.333C-5.73014 111.333 -5.90152 111.327 -6.03482 111.308V112.393C-5.85709 112.412 -5.65396 112.425 -5.48258 112.425ZM3.39396 110.133C5.03166 110.133 6.25041 109.264 6.25041 107.988V107.975C6.25041 106.979 5.61564 106.414 4.28898 106.103L3.19719 105.855C2.42277 105.671 2.10539 105.404 2.10539 104.973V104.96C2.10539 104.408 2.65129 104.033 3.40666 104.033C4.18107 104.033 4.66984 104.395 4.80314 104.877V104.89H6.11711V104.884C5.9965 103.76 4.98722 102.973 3.41301 102.973C1.85148 102.973 0.734295 103.836 0.734295 105.036V105.042C0.734295 106.052 1.33732 106.642 2.63859 106.94L3.73674 107.194C4.53654 107.378 4.86027 107.67 4.86027 108.102V108.115C4.86027 108.68 4.26994 109.067 3.41935 109.067C2.60051 109.067 2.09904 108.718 1.92765 108.197L1.92131 108.191H0.543865V108.197C0.677166 109.353 1.73088 110.133 3.39396 110.133ZM14.9517 110.114C16.691 110.114 17.8082 108.724 17.8082 106.56V106.547C17.8082 104.363 16.7037 102.986 14.9517 102.986C14.0059 102.986 13.1998 103.456 12.8316 104.198H12.7301V100.402H11.3526V110H12.7301V108.915H12.8316C13.2315 109.67 13.9869 110.114 14.9517 110.114ZM14.5645 108.94C13.4156 108.94 12.7047 108.032 12.7047 106.56V106.547C12.7047 105.074 13.4156 104.167 14.5645 104.167C15.7135 104.167 16.4053 105.068 16.4053 106.547V106.56C16.4053 108.039 15.7135 108.94 14.5645 108.94ZM22.2668 110.133C24.0314 110.133 24.9836 109.118 25.2121 108.21L25.2248 108.153L23.8981 108.159L23.8727 108.21C23.7077 108.565 23.1808 109.003 22.2985 109.003C21.1623 109.003 20.4386 108.235 20.4132 106.915H25.3009V106.433C25.3009 104.363 24.1203 102.973 22.1969 102.973C20.2736 102.973 19.0295 104.414 19.0295 106.566V106.572C19.0295 108.756 20.2482 110.133 22.2668 110.133ZM22.2033 104.103C23.1364 104.103 23.8283 104.7 23.9362 105.931H20.4323C20.5529 104.744 21.2638 104.103 22.2033 104.103ZM27.3474 110H28.7185V104.192H30.2356V103.106H28.7058V102.446C28.7058 101.748 29.0041 101.38 29.7659 101.38C29.9817 101.38 30.1658 101.393 30.2927 101.412V100.402C30.0578 100.364 29.7912 100.339 29.4802 100.339C28.0456 100.339 27.3474 101.012 27.3474 102.383V103.106H26.2112V104.192H27.3474V110ZM34.3577 110.133C36.3763 110.133 37.6141 108.781 37.6141 106.56V106.547C37.6141 104.325 36.3699 102.973 34.3577 102.973C32.3392 102.973 31.095 104.332 31.095 106.547V106.56C31.095 108.781 32.3328 110.133 34.3577 110.133ZM34.3577 108.984C33.1707 108.984 32.5042 108.089 32.5042 106.56V106.547C32.5042 105.017 33.1707 104.122 34.3577 104.122C35.5384 104.122 36.2112 105.017 36.2112 106.547V106.56C36.2112 108.083 35.5384 108.984 34.3577 108.984ZM39.1781 110H40.5556V105.88C40.5556 104.884 41.2729 104.236 42.3266 104.236C42.5868 104.236 42.8217 104.268 43.0692 104.319V103.049C42.9296 103.018 42.6884 102.986 42.4662 102.986C41.5458 102.986 40.9047 103.417 40.6571 104.147H40.5556V103.106H39.1781V110ZM47.02 110.133C48.7847 110.133 49.7368 109.118 49.9653 108.21L49.978 108.153L48.6514 108.159L48.626 108.21C48.4609 108.565 47.9341 109.003 47.0517 109.003C45.9155 109.003 45.1919 108.235 45.1665 106.915H50.0542V106.433C50.0542 104.363 48.8735 102.973 46.9502 102.973C45.0268 102.973 43.7827 104.414 43.7827 106.566V106.572C43.7827 108.756 45.0014 110.133 47.02 110.133ZM46.9565 104.103C47.8896 104.103 48.5815 104.7 48.6894 105.931H45.1855C45.3061 104.744 46.0171 104.103 46.9565 104.103Z" fill="black"/>
</g>
<rect x="90" y="90" width="124" height="30" rx="15" fill="#F2F2F7"/>
<mask id="mask2" mask-type="alpha" maskUnits="userSpaceOnUse" x="90" y="90" width="124" height="30">
<rect x="90" y="90" width="124" height="30" rx="15" fill="white"/>
</mask>
<g mask="url(#mask2)">
<path d="M112.318 110H113.74V100.84H112.318L109.906 102.554V103.951L112.21 102.307H112.318V110ZM121.058 110H122.461L123.882 104.858H123.99L125.419 110H126.834L128.732 103.106H127.367L126.136 108.426H126.028L124.606 103.106H123.299L121.877 108.426H121.775L120.537 103.106H119.153L121.058 110ZM132.689 110.133C134.454 110.133 135.406 109.118 135.635 108.21L135.647 108.153L134.321 108.159L134.295 108.21C134.13 108.565 133.603 109.003 132.721 109.003C131.585 109.003 130.861 108.235 130.836 106.915H135.723V106.433C135.723 104.363 134.543 102.973 132.619 102.973C130.696 102.973 129.452 104.414 129.452 106.566V106.572C129.452 108.756 130.671 110.133 132.689 110.133ZM132.626 104.103C133.559 104.103 134.251 104.7 134.359 105.931H130.855C130.975 104.744 131.686 104.103 132.626 104.103ZM140.176 110.133C141.94 110.133 142.892 109.118 143.121 108.21L143.134 108.153L141.807 108.159L141.782 108.21C141.617 108.565 141.09 109.003 140.207 109.003C139.071 109.003 138.347 108.235 138.322 106.915H143.21V106.433C143.21 104.363 142.029 102.973 140.106 102.973C138.182 102.973 136.938 104.414 136.938 106.566V106.572C136.938 108.756 138.157 110.133 140.176 110.133ZM140.112 104.103C141.045 104.103 141.737 104.7 141.845 105.931H138.341C138.462 104.744 139.173 104.103 140.112 104.103ZM144.831 110H146.208V107.493L146.799 106.902L149.173 110H150.849L147.783 106.014L150.658 103.106H149.046L146.31 106.014H146.208V100.402H144.831V110ZM159.163 110.114C160.902 110.114 162.019 108.724 162.019 106.56V106.547C162.019 104.363 160.915 102.986 159.163 102.986C158.217 102.986 157.411 103.456 157.043 104.198H156.941V100.402H155.564V110H156.941V108.915H157.043C157.442 109.67 158.198 110.114 159.163 110.114ZM158.775 108.94C157.627 108.94 156.916 108.032 156.916 106.56V106.547C156.916 105.074 157.627 104.167 158.775 104.167C159.924 104.167 160.616 105.068 160.616 106.547V106.56C160.616 108.039 159.924 108.94 158.775 108.94ZM166.478 110.133C168.242 110.133 169.194 109.118 169.423 108.21L169.436 108.153L168.109 108.159L168.084 108.21C167.919 108.565 167.392 109.003 166.509 109.003C165.373 109.003 164.65 108.235 164.624 106.915H169.512V106.433C169.512 104.363 168.331 102.973 166.408 102.973C164.485 102.973 163.24 104.414 163.24 106.566V106.572C163.24 108.756 164.459 110.133 166.478 110.133ZM166.414 104.103C167.347 104.103 168.039 104.7 168.147 105.931H164.643C164.764 104.744 165.475 104.103 166.414 104.103ZM171.558 110H172.929V104.192H174.447V103.106H172.917V102.446C172.917 101.748 173.215 101.38 173.977 101.38C174.193 101.38 174.377 101.393 174.504 101.412V100.402C174.269 100.364 174.002 100.339 173.691 100.339C172.257 100.339 171.558 101.012 171.558 102.383V103.106H170.422V104.192H171.558V110ZM178.569 110.133C180.587 110.133 181.825 108.781 181.825 106.56V106.547C181.825 104.325 180.581 102.973 178.569 102.973C176.55 102.973 175.306 104.332 175.306 106.547V106.56C175.306 108.781 176.544 110.133 178.569 110.133ZM178.569 108.984C177.382 108.984 176.715 108.089 176.715 106.56V106.547C176.715 105.017 177.382 104.122 178.569 104.122C179.749 104.122 180.422 105.017 180.422 106.547V106.56C180.422 108.083 179.749 108.984 178.569 108.984ZM183.389 110H184.767V105.88C184.767 104.884 185.484 104.236 186.538 104.236C186.798 104.236 187.033 104.268 187.28 104.319V103.049C187.141 103.018 186.899 102.986 186.677 102.986C185.757 102.986 185.116 103.417 184.868 104.147H184.767V103.106H183.389V110ZM191.231 110.133C192.996 110.133 193.948 109.118 194.176 108.21L194.189 108.153L192.862 108.159L192.837 108.21C192.672 108.565 192.145 109.003 191.263 109.003C190.126 109.003 189.403 108.235 189.377 106.915H194.265V106.433C194.265 104.363 193.084 102.973 191.161 102.973C189.238 102.973 187.994 104.414 187.994 106.566V106.572C187.994 108.756 189.212 110.133 191.231 110.133ZM191.167 104.103C192.101 104.103 192.792 104.7 192.9 105.931H189.396C189.517 104.744 190.228 104.103 191.167 104.103Z" fill="black"/>
</g>
<rect x="234" y="90" width="124" height="30" rx="15" fill="#A3A3A3"/>
<mask id="mask3" mask-type="alpha" maskUnits="userSpaceOnUse" x="234" y="90" width="124" height="30">
<rect x="234" y="90" width="124" height="30" rx="15" fill="white"/>
</mask>
<g mask="url(#mask3)">
<path d="M277.365 110.222C279.409 110.222 280.901 109.054 281.167 107.296V107.258H279.758L279.745 107.283C279.485 108.318 278.577 108.965 277.365 108.965C275.715 108.965 274.686 107.601 274.686 105.43V105.417C274.686 103.24 275.715 101.875 277.359 101.875C278.565 101.875 279.485 102.605 279.752 103.729V103.748H281.161L281.167 103.716C280.926 101.894 279.377 100.618 277.359 100.618C274.813 100.618 273.233 102.459 273.233 105.417V105.43C273.233 108.381 274.82 110.222 277.365 110.222ZM285.099 110.133C286.102 110.133 286.8 109.702 287.13 108.959H287.238V110H288.609V103.106H287.238V107.15C287.238 108.261 286.648 108.953 285.543 108.953C284.534 108.953 284.115 108.388 284.115 107.245V103.106H282.738V107.569C282.738 109.2 283.544 110.133 285.099 110.133ZM293.023 110.133C294.661 110.133 295.88 109.264 295.88 107.988V107.975C295.88 106.979 295.245 106.414 293.918 106.103L292.827 105.855C292.052 105.671 291.735 105.404 291.735 104.973V104.96C291.735 104.408 292.281 104.033 293.036 104.033C293.811 104.033 294.299 104.395 294.433 104.877V104.89H295.747V104.884C295.626 103.76 294.617 102.973 293.042 102.973C291.481 102.973 290.364 103.836 290.364 105.036V105.042C290.364 106.052 290.967 106.642 292.268 106.94L293.366 107.194C294.166 107.378 294.49 107.67 294.49 108.102V108.115C294.49 108.68 293.899 109.067 293.049 109.067C292.23 109.067 291.728 108.718 291.557 108.197L291.551 108.191H290.173V108.197C290.307 109.353 291.36 110.133 293.023 110.133ZM299.996 110.044C300.262 110.044 300.516 110.013 300.738 109.975V108.876C300.548 108.896 300.427 108.902 300.218 108.902C299.539 108.902 299.259 108.597 299.259 107.854V104.192H300.738V103.106H299.259V101.367H297.856V103.106H296.777V104.192H297.856V108.185C297.856 109.511 298.479 110.044 299.996 110.044ZM305.108 110.133C307.127 110.133 308.364 108.781 308.364 106.56V106.547C308.364 104.325 307.12 102.973 305.108 102.973C303.089 102.973 301.845 104.332 301.845 106.547V106.56C301.845 108.781 303.083 110.133 305.108 110.133ZM305.108 108.984C303.921 108.984 303.255 108.089 303.255 106.56V106.547C303.255 105.017 303.921 104.122 305.108 104.122C306.289 104.122 306.962 105.017 306.962 106.547V106.56C306.962 108.083 306.289 108.984 305.108 108.984ZM309.928 110H311.306V105.766C311.306 104.865 311.922 104.154 312.753 104.154C313.566 104.154 314.08 104.649 314.08 105.436V110H315.451V105.639C315.451 104.808 316.029 104.154 316.904 104.154C317.806 104.154 318.237 104.624 318.237 105.576V110H319.609V105.246C319.609 103.811 318.796 102.973 317.406 102.973C316.447 102.973 315.654 103.462 315.305 104.205H315.197C314.892 103.462 314.226 102.973 313.286 102.973C312.385 102.973 311.712 103.411 311.407 104.167H311.306V103.106H309.928V110Z" fill="white"/>
</g>
<path d="M31.5762 167H32.9708V157.853H33.0621L36.8472 167H38.1089L41.8941 157.853H41.9854V167H43.3799V155.022H41.6451L37.5445 165.016H37.4117L33.3111 155.022H31.5762V167ZM49.5193 167.158C52.0676 167.158 53.6447 165.398 53.6447 162.534V162.518C53.6447 159.646 52.0676 157.894 49.5193 157.894C46.9709 157.894 45.3938 159.646 45.3938 162.518V162.534C45.3938 165.398 46.9709 167.158 49.5193 167.158ZM49.5193 165.879C47.8259 165.879 46.8713 164.643 46.8713 162.534V162.518C46.8713 160.401 47.8259 159.172 49.5193 159.172C51.2126 159.172 52.1672 160.401 52.1672 162.518V162.534C52.1672 164.643 51.2126 165.879 49.5193 165.879ZM55.476 167H56.9203V161.704C56.9203 160.135 57.8251 159.172 59.2528 159.172C60.6805 159.172 61.3446 159.944 61.3446 161.555V167H62.7889V161.206C62.7889 159.081 61.6683 157.894 59.6596 157.894C58.3397 157.894 57.5014 158.45 57.0531 159.396H56.9203V158.052H55.476V167ZM68.2974 167.158C69.5425 167.158 70.5386 166.568 71.0865 165.572H71.2193V167H72.6636V154.499H71.2193V159.463H71.0865C70.5967 158.508 69.5259 157.894 68.2974 157.894C66.023 157.894 64.5455 159.712 64.5455 162.518V162.534C64.5455 165.323 66.0313 167.158 68.2974 167.158ZM68.6294 165.879C66.9942 165.879 66.023 164.618 66.023 162.534V162.518C66.023 160.434 66.9942 159.172 68.6294 159.172C70.2564 159.172 71.2525 160.451 71.2525 162.518V162.534C71.2525 164.601 70.2564 165.879 68.6294 165.879ZM77.4831 167.158C78.6867 167.158 79.6247 166.635 80.1892 165.68H80.322V167H81.7663V160.874C81.7663 159.015 80.5461 157.894 78.363 157.894C76.4538 157.894 75.0925 158.84 74.8601 160.243L74.8518 160.293H76.2961L76.3044 160.268C76.5368 159.571 77.2424 159.172 78.3132 159.172C79.6496 159.172 80.322 159.77 80.322 160.874V161.688L77.757 161.845C75.6735 161.97 74.4948 162.891 74.4948 164.485V164.501C74.4948 166.128 75.7814 167.158 77.4831 167.158ZM75.9724 164.468V164.452C75.9724 163.563 76.57 163.082 77.9314 162.999L80.322 162.85V163.663C80.322 164.941 79.2512 165.904 77.7819 165.904C76.7443 165.904 75.9724 165.373 75.9724 164.468ZM84.4276 170.138C86.0131 170.138 86.7518 169.557 87.4906 167.548L90.9852 158.052H89.4662L87.0174 165.415H86.8846L84.4276 158.052H82.8837L86.1957 167.008L86.0297 167.54C85.7059 168.569 85.2079 168.942 84.3861 168.942C84.1869 168.942 83.9628 168.934 83.7884 168.901V170.088C83.9877 170.121 84.2367 170.138 84.4276 170.138ZM90.874 170.046H91.9448L93.2481 165.323H91.5962L90.874 170.046ZM99.4754 167H101.044L102.248 163.572H107.013L108.216 167H109.785L105.369 155.022H103.891L99.4754 167ZM104.564 156.956H104.697L106.573 162.302H102.688L104.564 156.956ZM113.874 167.158C115.186 167.158 116.09 166.618 116.53 165.664H116.663V167H118.107V158.052H116.663V163.348C116.663 164.917 115.825 165.879 114.248 165.879C112.82 165.879 112.239 165.107 112.239 163.497V158.052H110.794V163.846C110.794 165.962 111.84 167.158 113.874 167.158ZM124.081 170.154C126.521 170.154 128.065 168.876 128.065 166.875V158.052H126.621V159.529H126.521C125.973 158.517 124.994 157.894 123.732 157.894C121.391 157.894 119.947 159.712 119.947 162.219V162.235C119.947 164.742 121.383 166.535 123.699 166.535C124.927 166.535 125.94 165.979 126.505 164.991H126.637V166.801C126.637 168.121 125.683 168.876 124.081 168.876C122.794 168.876 121.997 168.395 121.84 167.714L121.831 167.706H120.337L120.32 167.714C120.545 169.183 121.923 170.154 124.081 170.154ZM124.014 165.257C122.354 165.257 121.424 164.012 121.424 162.235V162.219C121.424 160.442 122.354 159.172 124.014 159.172C125.666 159.172 126.671 160.442 126.671 162.219V162.235C126.671 164.012 125.674 165.257 124.014 165.257ZM138.8 167.199C141.34 167.199 143.149 165.771 143.149 163.763V163.746C143.149 162.269 142.112 161.04 140.576 160.683V160.65C141.888 160.243 142.718 159.247 142.718 157.985V157.969C142.718 156.159 141.066 154.823 138.8 154.823C136.534 154.823 134.882 156.159 134.882 157.969V157.985C134.882 159.247 135.712 160.243 137.023 160.65V160.683C135.488 161.04 134.45 162.269 134.45 163.746V163.763C134.45 165.771 136.26 167.199 138.8 167.199ZM138.8 160.094C137.355 160.094 136.368 159.272 136.368 158.11V158.093C136.368 156.931 137.355 156.109 138.8 156.109C140.244 156.109 141.232 156.931 141.232 158.093V158.11C141.232 159.272 140.244 160.094 138.8 160.094ZM138.8 165.896C137.148 165.896 135.969 164.966 135.969 163.671V163.655C135.969 162.343 137.14 161.405 138.8 161.405C140.46 161.405 141.63 162.343 141.63 163.655V163.671C141.63 164.966 140.452 165.896 138.8 165.896ZM144.217 170.046H145.288L146.591 165.323H144.939L144.217 170.046ZM153.582 167H161.335V165.655H155.657V165.522L158.38 162.708C160.546 160.476 161.136 159.479 161.136 158.11V158.093C161.136 156.159 159.534 154.74 157.442 154.74C155.151 154.74 153.507 156.267 153.499 158.392L153.516 158.4L154.943 158.409L154.952 158.392C154.952 156.981 155.906 156.043 157.342 156.043C158.753 156.043 159.608 156.989 159.608 158.251V158.268C159.608 159.313 159.16 159.936 157.633 161.588L153.582 165.971V167ZM167.441 167.282C170.089 167.282 171.683 164.867 171.683 161.015V160.999C171.683 157.147 170.089 154.74 167.441 154.74C164.793 154.74 163.216 157.147 163.216 160.999V161.015C163.216 164.867 164.793 167.282 167.441 167.282ZM167.441 165.979C165.723 165.979 164.718 164.07 164.718 161.015V160.999C164.718 157.944 165.723 156.051 167.441 156.051C169.159 156.051 170.18 157.944 170.18 160.999V161.015C170.18 164.07 169.159 165.979 167.441 165.979ZM173.73 167H181.483V165.655H175.805V165.522L178.528 162.708C180.694 160.476 181.283 159.479 181.283 158.11V158.093C181.283 156.159 179.681 154.74 177.59 154.74C175.299 154.74 173.655 156.267 173.647 158.392L173.663 158.4L175.091 158.409L175.099 158.392C175.099 156.981 176.054 156.043 177.49 156.043C178.901 156.043 179.756 156.989 179.756 158.251V158.268C179.756 159.313 179.308 159.936 177.781 161.588L173.73 165.971V167ZM187.589 167.282C190.237 167.282 191.831 164.867 191.831 161.015V160.999C191.831 157.147 190.237 154.74 187.589 154.74C184.941 154.74 183.364 157.147 183.364 160.999V161.015C183.364 164.867 184.941 167.282 187.589 167.282ZM187.589 165.979C185.871 165.979 184.866 164.07 184.866 161.015V160.999C184.866 157.944 185.871 156.051 187.589 156.051C189.307 156.051 190.328 157.944 190.328 160.999V161.015C190.328 164.07 189.307 165.979 187.589 165.979Z" fill="black"/>
<path d="M361.779 207.949C361.77 207.607 361.643 207.314 361.379 207.051L353.781 199.619C353.557 199.404 353.293 199.287 352.971 199.287C352.316 199.287 351.809 199.795 351.809 200.449C351.809 200.762 351.936 201.055 352.16 201.279L358.996 207.949L352.16 214.619C351.936 214.844 351.809 215.127 351.809 215.449C351.809 216.104 352.316 216.611 352.971 216.611C353.283 216.611 353.557 216.494 353.781 216.279L361.379 208.838C361.652 208.584 361.779 208.291 361.779 207.949Z" fill="#FF1A36"/>
<path d="M306.221 207.949C306.221 208.291 306.348 208.584 306.621 208.838L314.219 216.279C314.434 216.494 314.707 216.611 315.029 216.611C315.674 216.611 316.191 216.104 316.191 215.449C316.191 215.127 316.055 214.844 315.84 214.619L308.994 207.949L315.84 201.279C316.055 201.055 316.191 200.762 316.191 200.449C316.191 199.795 315.674 199.287 315.029 199.287C314.707 199.287 314.434 199.404 314.219 199.619L306.621 207.051C306.348 207.314 306.221 207.607 306.221 207.949Z" fill="#FF1A36"/>
<path d="M154.88 207.417C154.874 207.081 154.759 206.814 154.486 206.547L149.707 201.875C149.503 201.679 149.269 201.577 148.977 201.577C148.393 201.577 147.91 202.053 147.91 202.631C147.91 202.923 148.031 203.189 148.253 203.412L152.392 207.411L148.253 211.422C148.031 211.638 147.91 211.905 147.91 212.203C147.91 212.781 148.393 213.257 148.977 213.257C149.262 213.257 149.503 213.162 149.707 212.958L154.486 208.287C154.759 208.02 154.88 207.747 154.88 207.417Z" fill="#FF0000"/>
<path d="M18.2637 214H20.9004L22.0918 210.357H27.3359L28.5273 214H31.1738L26.1348 199.908H23.3027L18.2637 214ZM24.6895 202.418H24.748L26.7012 208.414H22.7266L24.6895 202.418ZM36.007 214.205C37.5695 214.205 38.6339 213.482 39.171 212.379H39.2198V214H41.6515V203.648H39.2198V209.645C39.2198 211.148 38.3312 212.154 36.9347 212.154C35.548 212.154 34.8644 211.324 34.8644 209.859V203.648H32.4327V210.338C32.4327 212.74 33.7316 214.205 36.007 214.205ZM48.7014 217.623C51.6995 217.623 53.5842 216.051 53.5842 213.707V203.648H51.1526V205.406H51.094C50.508 204.215 49.3752 203.434 47.9104 203.434C45.2932 203.434 43.6038 205.445 43.6038 208.717V208.727C43.6038 211.949 45.2737 213.941 47.8713 213.941C49.3557 213.941 50.5276 213.238 51.1038 212.135H51.1526V213.629C51.1526 214.947 50.2834 215.787 48.7014 215.787C47.4319 215.787 46.6018 215.338 46.3381 214.742L46.3088 214.664H43.9163L43.9358 214.752C44.2288 216.373 45.9573 217.623 48.7014 217.623ZM48.633 212.066C47.0705 212.066 46.0842 210.807 46.0842 208.766V208.756C46.0842 206.744 47.0705 205.484 48.633 205.484C50.137 205.484 51.1623 206.764 51.1623 208.766V208.775C51.1623 210.787 50.1467 212.066 48.633 212.066ZM59.4818 214.205C61.0443 214.205 62.1087 213.482 62.6459 212.379H62.6947V214H65.1263V203.648H62.6947V209.645C62.6947 211.148 61.806 212.154 60.4095 212.154C59.0228 212.154 58.3392 211.324 58.3392 209.859V203.648H55.9076V210.338C55.9076 212.74 57.2064 214.205 59.4818 214.205ZM71.5513 214.205C74.0903 214.205 75.897 212.896 75.897 210.943V210.934C75.897 209.43 75.0669 208.59 72.9282 208.111L71.1997 207.73C70.1255 207.486 69.7251 207.096 69.7251 206.5V206.49C69.7251 205.729 70.3989 205.23 71.4731 205.23C72.6059 205.23 73.27 205.836 73.3774 206.666L73.3872 206.744H75.6528L75.643 206.637C75.5552 204.85 74.0513 203.434 71.4731 203.434C68.9731 203.434 67.3227 204.713 67.3227 206.607V206.617C67.3227 208.15 68.3188 209.117 70.3013 209.557L72.02 209.938C73.0942 210.182 73.4555 210.533 73.4555 211.158V211.168C73.4555 211.93 72.7427 212.408 71.561 212.408C70.3305 212.408 69.6567 211.881 69.4712 210.992L69.4516 210.904H67.0591L67.0688 210.992C67.2837 212.916 68.8364 214.205 71.5513 214.205ZM81.6773 214.205C82.1656 214.205 82.5953 214.156 82.8785 214.117V212.291C82.7125 212.301 82.527 212.33 82.2926 212.33C81.4039 212.33 80.9547 212.008 80.9547 210.992V205.523H82.8785V203.648H80.9547V201.021H78.484V203.648H77.0191V205.523H78.484V211.197C78.484 213.326 79.5094 214.205 81.6773 214.205ZM89.3612 214H99.2635V211.939H92.6913V211.832L95.7967 208.883C98.2772 206.5 99.0487 205.377 99.0487 203.717V203.697C99.0487 201.373 97.076 199.664 94.2538 199.664C91.3924 199.664 89.2245 201.51 89.2245 204.088V204.156H91.5877V204.088C91.617 202.73 92.7108 201.686 94.2733 201.686C95.6307 201.686 96.578 202.584 96.5877 203.844V203.863C96.5877 204.908 96.1873 205.621 94.3416 207.428L89.3612 212.281V214ZM106.831 214.244C110.278 214.244 112.368 211.441 112.368 206.959V206.939C112.368 202.457 110.278 199.664 106.831 199.664C103.374 199.664 101.294 202.457 101.294 206.939V206.959C101.294 211.441 103.374 214.244 106.831 214.244ZM106.831 212.184C104.927 212.184 103.833 210.211 103.833 206.959V206.939C103.833 203.688 104.927 201.734 106.831 201.734C108.726 201.734 109.829 203.688 109.829 206.939V206.959C109.829 210.211 108.726 212.184 106.831 212.184ZM114.496 214H124.399V211.939H117.826V211.832L120.932 208.883C123.412 206.5 124.184 205.377 124.184 203.717V203.697C124.184 201.373 122.211 199.664 119.389 199.664C116.527 199.664 114.359 201.51 114.359 204.088V204.156H116.723V204.088C116.752 202.73 117.846 201.686 119.408 201.686C120.766 201.686 121.713 202.584 121.723 203.844V203.863C121.723 204.908 121.322 205.621 119.477 207.428L114.496 212.281V214ZM131.966 214.244C135.413 214.244 137.503 211.441 137.503 206.959V206.939C137.503 202.457 135.413 199.664 131.966 199.664C128.509 199.664 126.429 202.457 126.429 206.939V206.959C126.429 211.441 128.509 214.244 131.966 214.244ZM131.966 212.184C130.062 212.184 128.968 210.211 128.968 206.959V206.939C128.968 203.688 130.062 201.734 131.966 201.734C133.861 201.734 134.964 203.688 134.964 206.939V206.959C134.964 210.211 133.861 212.184 131.966 212.184Z" fill="black"/>
<line x1="17" y1="181.875" x2="362" y2="181.875" stroke="black" stroke-opacity="0.35" stroke-width="0.25"/>
</g>
<rect x="2" y="-128" width="375" height="812" rx="30" stroke="#E9E9E9"/>
</g>
<g clip-path="url(#clip2)" filter="url(#filter1_d)">
<rect x="-50" y="81" width="124" height="30" rx="15" fill="#F2F2F7"/>
<mask id="mask4" mask-type="alpha" maskUnits="userSpaceOnUse" x="-50" y="81" width="124" height="30">
<rect x="-50" y="81" width="124" height="30" rx="15" fill="white"/>
</mask>
<g mask="url(#mask4)">
<path d="M-28.7114 101H-22.5415V99.7876H-26.7754V99.6606L-24.833 97.7246C-23.1699 96.0742 -22.6875 95.2744 -22.6875 94.2334V94.2144C-22.6875 92.7036 -23.9443 91.6182 -25.6518 91.6182C-27.4927 91.6182 -28.7876 92.7988 -28.7939 94.4746L-28.7812 94.4873H-27.4482L-27.4419 94.4683C-27.4419 93.4653 -26.7563 92.7925 -25.728 92.7925C-24.7251 92.7925 -24.1094 93.4526 -24.1094 94.3477V94.3667C-24.1094 95.1094 -24.4585 95.5791 -25.6709 96.8423L-28.7114 100.035V101ZM-14.7669 101.114C-13.8021 101.114 -13.0467 100.67 -12.6468 99.9146H-12.5389V101H-11.1678V91.4023H-12.5389V95.1982H-12.6468C-13.015 94.4556 -13.8211 93.9858 -14.7669 93.9858C-16.5189 93.9858 -17.6234 95.3633 -17.6234 97.5469V97.5596C-17.6234 99.7241 -16.4998 101.114 -14.7669 101.114ZM-14.3734 99.9399C-15.5286 99.9399 -16.2205 99.0386 -16.2205 97.5596V97.5469C-16.2205 96.0679 -15.5286 95.1665 -14.3734 95.1665C-13.2308 95.1665 -12.5198 96.0742 -12.5198 97.5469V97.5596C-12.5198 99.0322 -13.2244 99.9399 -14.3734 99.9399ZM-7.3059 101.114C-6.39184 101.114 -5.6682 100.721 -5.26195 100.022H-5.15404V101H-3.7893V96.2837C-3.7893 94.8364 -4.76684 93.9731 -6.49975 93.9731C-8.06762 93.9731 -9.15307 94.7285 -9.31811 95.8584L-9.32445 95.9028H-7.99779L-7.99145 95.8774C-7.82641 95.3887 -7.32494 95.1094 -6.56322 95.1094C-5.63012 95.1094 -5.15404 95.5283 -5.15404 96.2837V96.8931L-7.02025 97.001C-8.6643 97.1025 -9.59105 97.8198 -9.59105 99.0513V99.064C-9.59105 100.314 -8.61986 101.114 -7.3059 101.114ZM-8.21996 99.0068V98.9941C-8.21996 98.3721 -7.78832 98.0293 -6.83617 97.9722L-5.15404 97.8643V98.4546C-5.15404 99.3433 -5.90941 100.016 -6.93773 100.016C-7.68041 100.016 -8.21996 99.6416 -8.21996 99.0068ZM-1.48258 103.425C-0.0860939 103.425 0.612148 102.911 1.19613 101.267L3.76059 94.1064H2.31332L0.593105 99.6162H0.4725L-1.25406 94.1064H-2.73941L-0.238438 101.006L-0.34 101.362C-0.543125 102.06 -0.930332 102.333 -1.57145 102.333C-1.73014 102.333 -1.90152 102.327 -2.03482 102.308V103.393C-1.85709 103.412 -1.65396 103.425 -1.48258 103.425ZM7.39396 101.133C9.03166 101.133 10.2504 100.264 10.2504 98.9878V98.9751C10.2504 97.9785 9.61564 97.4136 8.28898 97.1025L7.19719 96.855C6.42277 96.6709 6.10539 96.4043 6.10539 95.9727V95.96C6.10539 95.4077 6.65129 95.0332 7.40666 95.0332C8.18107 95.0332 8.66984 95.395 8.80314 95.8774V95.8901H10.1171V95.8838C9.9965 94.7603 8.98722 93.9731 7.41301 93.9731C5.85148 93.9731 4.73429 94.8364 4.73429 96.0361V96.0425C4.73429 97.0518 5.33732 97.6421 6.63859 97.9404L7.73674 98.1943C8.53654 98.3784 8.86027 98.6704 8.86027 99.1021V99.1147C8.86027 99.6797 8.26994 100.067 7.41935 100.067C6.60051 100.067 6.09904 99.7178 5.92765 99.1973L5.92131 99.1909H4.54387V99.1973C4.67717 100.353 5.73088 101.133 7.39396 101.133ZM18.9517 101.114C20.691 101.114 21.8082 99.7241 21.8082 97.5596V97.5469C21.8082 95.3633 20.7037 93.9858 18.9517 93.9858C18.0059 93.9858 17.1998 94.4556 16.8316 95.1982H16.7301V91.4023H15.3526V101H16.7301V99.9146H16.8316C17.2315 100.67 17.9869 101.114 18.9517 101.114ZM18.5645 99.9399C17.4156 99.9399 16.7047 99.0322 16.7047 97.5596V97.5469C16.7047 96.0742 17.4156 95.1665 18.5645 95.1665C19.7135 95.1665 20.4053 96.0679 20.4053 97.5469V97.5596C20.4053 99.0386 19.7135 99.9399 18.5645 99.9399ZM26.2668 101.133C28.0314 101.133 28.9836 100.118 29.2121 99.21L29.2248 99.1528L27.8981 99.1592L27.8727 99.21C27.7077 99.5654 27.1808 100.003 26.2985 100.003C25.1623 100.003 24.4386 99.2354 24.4132 97.915H29.3009V97.4326C29.3009 95.3633 28.1203 93.9731 26.1969 93.9731C24.2736 93.9731 23.0295 95.4141 23.0295 97.5659V97.5723C23.0295 99.7559 24.2482 101.133 26.2668 101.133ZM26.2033 95.103C27.1364 95.103 27.8283 95.6997 27.9362 96.9312H24.4323C24.5529 95.7441 25.2638 95.103 26.2033 95.103ZM31.3474 101H32.7185V95.1919H34.2356V94.1064H32.7058V93.4463C32.7058 92.748 33.0041 92.3799 33.7659 92.3799C33.9817 92.3799 34.1658 92.3926 34.2927 92.4116V91.4023C34.0578 91.3643 33.7912 91.3389 33.4802 91.3389C32.0456 91.3389 31.3474 92.0117 31.3474 93.3828V94.1064H30.2112V95.1919H31.3474V101ZM38.3577 101.133C40.3763 101.133 41.6141 99.7812 41.6141 97.5596V97.5469C41.6141 95.3252 40.3699 93.9731 38.3577 93.9731C36.3392 93.9731 35.095 95.3315 35.095 97.5469V97.5596C35.095 99.7812 36.3328 101.133 38.3577 101.133ZM38.3577 99.9844C37.1707 99.9844 36.5042 99.0894 36.5042 97.5596V97.5469C36.5042 96.0171 37.1707 95.1221 38.3577 95.1221C39.5384 95.1221 40.2112 96.0171 40.2112 97.5469V97.5596C40.2112 99.083 39.5384 99.9844 38.3577 99.9844ZM43.1781 101H44.5556V96.8804C44.5556 95.8838 45.2729 95.2363 46.3266 95.2363C46.5868 95.2363 46.8217 95.2681 47.0692 95.3188V94.0493C46.9296 94.0176 46.6884 93.9858 46.4662 93.9858C45.5458 93.9858 44.9047 94.4175 44.6571 95.1475H44.5556V94.1064H43.1781V101ZM51.02 101.133C52.7847 101.133 53.7368 100.118 53.9653 99.21L53.978 99.1528L52.6514 99.1592L52.626 99.21C52.4609 99.5654 51.9341 100.003 51.0517 100.003C49.9155 100.003 49.1919 99.2354 49.1665 97.915H54.0542V97.4326C54.0542 95.3633 52.8735 93.9731 50.9502 93.9731C49.0268 93.9731 47.7827 95.4141 47.7827 97.5659V97.5723C47.7827 99.7559 49.0014 101.133 51.02 101.133ZM50.9565 95.103C51.8896 95.103 52.5815 95.6997 52.6894 96.9312H49.1855C49.3061 95.7441 50.0171 95.103 50.9565 95.103Z" fill="black"/>
</g>
<rect x="94" y="81" width="124" height="30" rx="15" fill="#F2F2F7"/>
<mask id="mask5" mask-type="alpha" maskUnits="userSpaceOnUse" x="94" y="81" width="124" height="30">
<rect x="94" y="81" width="124" height="30" rx="15" fill="white"/>
</mask>
<g mask="url(#mask5)">
<path d="M116.318 101H117.74V91.8403H116.318L113.906 93.5542V94.9507L116.21 93.3066H116.318V101ZM125.058 101H126.461L127.882 95.8584H127.99L129.419 101H130.834L132.732 94.1064H131.367L130.136 99.4258H130.028L128.606 94.1064H127.299L125.877 99.4258H125.775L124.537 94.1064H123.153L125.058 101ZM136.689 101.133C138.454 101.133 139.406 100.118 139.635 99.21L139.647 99.1528L138.321 99.1592L138.295 99.21C138.13 99.5654 137.603 100.003 136.721 100.003C135.585 100.003 134.861 99.2354 134.836 97.915H139.723V97.4326C139.723 95.3633 138.543 93.9731 136.619 93.9731C134.696 93.9731 133.452 95.4141 133.452 97.5659V97.5723C133.452 99.7559 134.671 101.133 136.689 101.133ZM136.626 95.103C137.559 95.103 138.251 95.6997 138.359 96.9312H134.855C134.975 95.7441 135.686 95.103 136.626 95.103ZM144.176 101.133C145.94 101.133 146.892 100.118 147.121 99.21L147.134 99.1528L145.807 99.1592L145.782 99.21C145.617 99.5654 145.09 100.003 144.207 100.003C143.071 100.003 142.347 99.2354 142.322 97.915H147.21V97.4326C147.21 95.3633 146.029 93.9731 144.106 93.9731C142.182 93.9731 140.938 95.4141 140.938 97.5659V97.5723C140.938 99.7559 142.157 101.133 144.176 101.133ZM144.112 95.103C145.045 95.103 145.737 95.6997 145.845 96.9312H142.341C142.462 95.7441 143.173 95.103 144.112 95.103ZM148.831 101H150.208V98.4927L150.799 97.9023L153.173 101H154.849L151.783 97.0137L154.658 94.1064H153.046L150.31 97.0137H150.208V91.4023H148.831V101ZM163.163 101.114C164.902 101.114 166.019 99.7241 166.019 97.5596V97.5469C166.019 95.3633 164.915 93.9858 163.163 93.9858C162.217 93.9858 161.411 94.4556 161.043 95.1982H160.941V91.4023H159.564V101H160.941V99.9146H161.043C161.442 100.67 162.198 101.114 163.163 101.114ZM162.775 99.9399C161.627 99.9399 160.916 99.0322 160.916 97.5596V97.5469C160.916 96.0742 161.627 95.1665 162.775 95.1665C163.924 95.1665 164.616 96.0679 164.616 97.5469V97.5596C164.616 99.0386 163.924 99.9399 162.775 99.9399ZM170.478 101.133C172.242 101.133 173.194 100.118 173.423 99.21L173.436 99.1528L172.109 99.1592L172.084 99.21C171.919 99.5654 171.392 100.003 170.509 100.003C169.373 100.003 168.65 99.2354 168.624 97.915H173.512V97.4326C173.512 95.3633 172.331 93.9731 170.408 93.9731C168.485 93.9731 167.24 95.4141 167.24 97.5659V97.5723C167.24 99.7559 168.459 101.133 170.478 101.133ZM170.414 95.103C171.347 95.103 172.039 95.6997 172.147 96.9312H168.643C168.764 95.7441 169.475 95.103 170.414 95.103ZM175.558 101H176.929V95.1919H178.447V94.1064H176.917V93.4463C176.917 92.748 177.215 92.3799 177.977 92.3799C178.193 92.3799 178.377 92.3926 178.504 92.4116V91.4023C178.269 91.3643 178.002 91.3389 177.691 91.3389C176.257 91.3389 175.558 92.0117 175.558 93.3828V94.1064H174.422V95.1919H175.558V101ZM182.569 101.133C184.587 101.133 185.825 99.7812 185.825 97.5596V97.5469C185.825 95.3252 184.581 93.9731 182.569 93.9731C180.55 93.9731 179.306 95.3315 179.306 97.5469V97.5596C179.306 99.7812 180.544 101.133 182.569 101.133ZM182.569 99.9844C181.382 99.9844 180.715 99.0894 180.715 97.5596V97.5469C180.715 96.0171 181.382 95.1221 182.569 95.1221C183.749 95.1221 184.422 96.0171 184.422 97.5469V97.5596C184.422 99.083 183.749 99.9844 182.569 99.9844ZM187.389 101H188.767V96.8804C188.767 95.8838 189.484 95.2363 190.538 95.2363C190.798 95.2363 191.033 95.2681 191.28 95.3188V94.0493C191.141 94.0176 190.899 93.9858 190.677 93.9858C189.757 93.9858 189.116 94.4175 188.868 95.1475H188.767V94.1064H187.389V101ZM195.231 101.133C196.996 101.133 197.948 100.118 198.176 99.21L198.189 99.1528L196.862 99.1592L196.837 99.21C196.672 99.5654 196.145 100.003 195.263 100.003C194.126 100.003 193.403 99.2354 193.377 97.915H198.265V97.4326C198.265 95.3633 197.084 93.9731 195.161 93.9731C193.238 93.9731 191.994 95.4141 191.994 97.5659V97.5723C191.994 99.7559 193.212 101.133 195.231 101.133ZM195.167 95.103C196.101 95.103 196.792 95.6997 196.9 96.9312H193.396C193.517 95.7441 194.228 95.103 195.167 95.103Z" fill="black"/>
</g>
<rect x="238" y="81" width="124" height="30" rx="15" fill="#A3A3A3"/>
<mask id="mask6" mask-type="alpha" maskUnits="userSpaceOnUse" x="238" y="81" width="124" height="30">
<rect x="238" y="81" width="124" height="30" rx="15" fill="white"/>
</mask>
<g mask="url(#mask6)">
<path d="M281.365 101.222C283.409 101.222 284.901 100.054 285.167 98.2959V98.2578H283.758L283.745 98.2832C283.485 99.3179 282.577 99.9653 281.365 99.9653C279.715 99.9653 278.686 98.6006 278.686 96.4297V96.417C278.686 94.2397 279.715 92.875 281.359 92.875C282.565 92.875 283.485 93.605 283.752 94.7285V94.7476H285.161L285.167 94.7158C284.926 92.894 283.377 91.6182 281.359 91.6182C278.813 91.6182 277.233 93.459 277.233 96.417V96.4297C277.233 99.3813 278.82 101.222 281.365 101.222ZM289.099 101.133C290.102 101.133 290.8 100.702 291.13 99.959H291.238V101H292.609V94.1064H291.238V98.1499C291.238 99.2607 290.648 99.9526 289.543 99.9526C288.534 99.9526 288.115 99.3877 288.115 98.2451V94.1064H286.738V98.5688C286.738 100.2 287.544 101.133 289.099 101.133ZM297.023 101.133C298.661 101.133 299.88 100.264 299.88 98.9878V98.9751C299.88 97.9785 299.245 97.4136 297.918 97.1025L296.827 96.855C296.052 96.6709 295.735 96.4043 295.735 95.9727V95.96C295.735 95.4077 296.281 95.0332 297.036 95.0332C297.811 95.0332 298.299 95.395 298.433 95.8774V95.8901H299.747V95.8838C299.626 94.7603 298.617 93.9731 297.042 93.9731C295.481 93.9731 294.364 94.8364 294.364 96.0361V96.0425C294.364 97.0518 294.967 97.6421 296.268 97.9404L297.366 98.1943C298.166 98.3784 298.49 98.6704 298.49 99.1021V99.1147C298.49 99.6797 297.899 100.067 297.049 100.067C296.23 100.067 295.728 99.7178 295.557 99.1973L295.551 99.1909H294.173V99.1973C294.307 100.353 295.36 101.133 297.023 101.133ZM303.996 101.044C304.262 101.044 304.516 101.013 304.738 100.975V99.8765C304.548 99.8955 304.427 99.9019 304.218 99.9019C303.539 99.9019 303.259 99.5972 303.259 98.8545V95.1919H304.738V94.1064H303.259V92.3672H301.856V94.1064H300.777V95.1919H301.856V99.1846C301.856 100.511 302.479 101.044 303.996 101.044ZM309.108 101.133C311.127 101.133 312.364 99.7812 312.364 97.5596V97.5469C312.364 95.3252 311.12 93.9731 309.108 93.9731C307.089 93.9731 305.845 95.3315 305.845 97.5469V97.5596C305.845 99.7812 307.083 101.133 309.108 101.133ZM309.108 99.9844C307.921 99.9844 307.255 99.0894 307.255 97.5596V97.5469C307.255 96.0171 307.921 95.1221 309.108 95.1221C310.289 95.1221 310.962 96.0171 310.962 97.5469V97.5596C310.962 99.083 310.289 99.9844 309.108 99.9844ZM313.928 101H315.306V96.7661C315.306 95.8647 315.922 95.1538 316.753 95.1538C317.566 95.1538 318.08 95.6489 318.08 96.436V101H319.451V96.6392C319.451 95.8076 320.029 95.1538 320.904 95.1538C321.806 95.1538 322.237 95.6235 322.237 96.5757V101H323.609V96.2456C323.609 94.811 322.796 93.9731 321.406 93.9731C320.447 93.9731 319.654 94.4619 319.305 95.2046H319.197C318.892 94.4619 318.226 93.9731 317.286 93.9731C316.385 93.9731 315.712 94.4111 315.407 95.1665H315.306V94.1064H313.928V101Z" fill="white"/>
</g>
</g>
<path d="M5.48 246.566C5.816 246.566 6.112 246.526 6.368 246.446C6.628 246.362 6.844 246.246 7.016 246.098C7.192 245.946 7.324 245.766 7.412 245.558C7.5 245.35 7.544 245.12 7.544 244.868C7.544 244.356 7.376 243.97 7.04 243.71C6.704 243.45 6.2 243.32 5.528 243.32H4.256V246.566H5.48ZM9.452 251H8.42C8.208 251 8.052 250.918 7.952 250.754L5.72 247.682C5.652 247.586 5.578 247.518 5.498 247.478C5.422 247.434 5.302 247.412 5.138 247.412H4.256V251H3.098V242.402H5.528C6.072 242.402 6.542 242.458 6.938 242.57C7.334 242.678 7.66 242.836 7.916 243.044C8.176 243.252 8.368 243.504 8.492 243.8C8.616 244.092 8.678 244.42 8.678 244.784C8.678 245.088 8.63 245.372 8.534 245.636C8.438 245.9 8.298 246.138 8.114 246.35C7.934 246.558 7.712 246.736 7.448 246.884C7.188 247.032 6.892 247.144 6.56 247.22C6.708 247.304 6.836 247.426 6.944 247.586L9.452 251ZM14.0507 247.298C14.0507 247.05 14.0147 246.824 13.9427 246.62C13.8747 246.412 13.7727 246.234 13.6367 246.086C13.5047 245.934 13.3427 245.818 13.1507 245.738C12.9587 245.654 12.7407 245.612 12.4967 245.612C11.9847 245.612 11.5787 245.762 11.2787 246.062C10.9827 246.358 10.7987 246.77 10.7267 247.298H14.0507ZM14.9147 250.148C14.7827 250.308 14.6247 250.448 14.4407 250.568C14.2567 250.684 14.0587 250.78 13.8467 250.856C13.6387 250.932 13.4227 250.988 13.1987 251.024C12.9747 251.064 12.7527 251.084 12.5327 251.084C12.1127 251.084 11.7247 251.014 11.3687 250.874C11.0167 250.73 10.7107 250.522 10.4507 250.25C10.1947 249.974 9.99472 249.634 9.85072 249.23C9.70672 248.826 9.63472 248.362 9.63472 247.838C9.63472 247.414 9.69872 247.018 9.82672 246.65C9.95872 246.282 10.1467 245.964 10.3907 245.696C10.6347 245.424 10.9327 245.212 11.2847 245.06C11.6367 244.904 12.0327 244.826 12.4727 244.826C12.8367 244.826 13.1727 244.888 13.4807 245.012C13.7927 245.132 14.0607 245.308 14.2847 245.54C14.5127 245.768 14.6907 246.052 14.8187 246.392C14.9467 246.728 15.0107 247.112 15.0107 247.544C15.0107 247.712 14.9927 247.824 14.9567 247.88C14.9207 247.936 14.8527 247.964 14.7527 247.964H10.6907C10.7027 248.348 10.7547 248.682 10.8467 248.966C10.9427 249.25 11.0747 249.488 11.2427 249.68C11.4107 249.868 11.6107 250.01 11.8427 250.106C12.0747 250.198 12.3347 250.244 12.6227 250.244C12.8907 250.244 13.1207 250.214 13.3127 250.154C13.5087 250.09 13.6767 250.022 13.8167 249.95C13.9567 249.878 14.0727 249.812 14.1647 249.752C14.2607 249.688 14.3427 249.656 14.4107 249.656C14.4987 249.656 14.5667 249.69 14.6147 249.758L14.9147 250.148ZM16.3226 251V244.922H16.9646C17.1166 244.922 17.2106 244.996 17.2466 245.144L17.3246 245.768C17.5486 245.492 17.8006 245.266 18.0806 245.09C18.3606 244.914 18.6846 244.826 19.0526 244.826C19.4606 244.826 19.7906 244.94 20.0426 245.168C20.2986 245.396 20.4826 245.704 20.5946 246.092C20.6826 245.872 20.7946 245.682 20.9306 245.522C21.0706 245.362 21.2266 245.23 21.3986 245.126C21.5706 245.022 21.7526 244.946 21.9446 244.898C22.1406 244.85 22.3386 244.826 22.5386 244.826C22.8586 244.826 23.1426 244.878 23.3906 244.982C23.6426 245.082 23.8546 245.23 24.0266 245.426C24.2026 245.622 24.3366 245.864 24.4286 246.152C24.5206 246.436 24.5666 246.762 24.5666 247.13V251H23.4926V247.13C23.4926 246.654 23.3886 246.294 23.1806 246.05C22.9726 245.802 22.6726 245.678 22.2806 245.678C22.1046 245.678 21.9366 245.71 21.7766 245.774C21.6206 245.834 21.4826 245.924 21.3626 246.044C21.2426 246.164 21.1466 246.316 21.0746 246.5C21.0066 246.68 20.9726 246.89 20.9726 247.13V251H19.8986V247.13C19.8986 246.642 19.8006 246.278 19.6046 246.038C19.4086 245.798 19.1226 245.678 18.7466 245.678C18.4826 245.678 18.2386 245.75 18.0146 245.894C17.7906 246.034 17.5846 246.226 17.3966 246.47V251H16.3226ZM27.3178 244.922V251H26.2498V244.922H27.3178ZM27.5458 243.014C27.5458 243.118 27.5238 243.216 27.4798 243.308C27.4398 243.396 27.3838 243.476 27.3118 243.548C27.2438 243.616 27.1618 243.67 27.0658 243.71C26.9737 243.75 26.8758 243.77 26.7718 243.77C26.6678 243.77 26.5698 243.75 26.4778 243.71C26.3898 243.67 26.3118 243.616 26.2438 243.548C26.1758 243.476 26.1218 243.396 26.0818 243.308C26.0418 243.216 26.0218 243.118 26.0218 243.014C26.0218 242.91 26.0418 242.812 26.0818 242.72C26.1218 242.624 26.1758 242.542 26.2438 242.474C26.3118 242.402 26.3898 242.346 26.4778 242.306C26.5698 242.266 26.6678 242.246 26.7718 242.246C26.8758 242.246 26.9737 242.266 27.0658 242.306C27.1618 242.346 27.2438 242.402 27.3118 242.474C27.3838 242.542 27.4398 242.624 27.4798 242.72C27.5238 242.812 27.5458 242.91 27.5458 243.014ZM30.0806 245.804C30.2126 245.656 30.3526 245.522 30.5006 245.402C30.6486 245.282 30.8046 245.18 30.9686 245.096C31.1366 245.008 31.3126 244.942 31.4966 244.898C31.6846 244.85 31.8866 244.826 32.1026 244.826C32.4346 244.826 32.7266 244.882 32.9786 244.994C33.2346 245.102 33.4466 245.258 33.6146 245.462C33.7866 245.662 33.9166 245.904 34.0046 246.188C34.0926 246.472 34.1366 246.786 34.1366 247.13V251H33.0626V247.13C33.0626 246.67 32.9566 246.314 32.7446 246.062C32.5366 245.806 32.2186 245.678 31.7906 245.678C31.4746 245.678 31.1786 245.754 30.9026 245.906C30.6306 246.058 30.3786 246.264 30.1466 246.524V251H29.0726V244.922H29.7146C29.8666 244.922 29.9606 244.996 29.9966 245.144L30.0806 245.804ZM39.724 246.368C39.524 246.1 39.308 245.914 39.076 245.81C38.844 245.702 38.584 245.648 38.296 245.648C37.732 245.648 37.298 245.85 36.994 246.254C36.69 246.658 36.538 247.234 36.538 247.982C36.538 248.378 36.572 248.718 36.64 249.002C36.708 249.282 36.808 249.514 36.94 249.698C37.072 249.878 37.234 250.01 37.426 250.094C37.618 250.178 37.836 250.22 38.08 250.22C38.432 250.22 38.738 250.14 38.998 249.98C39.262 249.82 39.504 249.594 39.724 249.302V246.368ZM40.792 242.162V251H40.156C40.004 251 39.908 250.926 39.868 250.778L39.772 250.04C39.512 250.352 39.216 250.604 38.884 250.796C38.552 250.988 38.168 251.084 37.732 251.084C37.384 251.084 37.068 251.018 36.784 250.886C36.5 250.75 36.258 250.552 36.058 250.292C35.858 250.032 35.704 249.708 35.596 249.32C35.488 248.932 35.434 248.486 35.434 247.982C35.434 247.534 35.494 247.118 35.614 246.734C35.734 246.346 35.906 246.01 36.13 245.726C36.354 245.442 36.628 245.22 36.952 245.06C37.28 244.896 37.648 244.814 38.056 244.814C38.428 244.814 38.746 244.878 39.01 245.006C39.278 245.13 39.516 245.304 39.724 245.528V242.162H40.792ZM46.5468 247.298C46.5468 247.05 46.5108 246.824 46.4388 246.62C46.3708 246.412 46.2688 246.234 46.1328 246.086C46.0008 245.934 45.8388 245.818 45.6468 245.738C45.4548 245.654 45.2368 245.612 44.9928 245.612C44.4808 245.612 44.0748 245.762 43.7748 246.062C43.4788 246.358 43.2948 246.77 43.2228 247.298H46.5468ZM47.4108 250.148C47.2788 250.308 47.1208 250.448 46.9368 250.568C46.7528 250.684 46.5548 250.78 46.3428 250.856C46.1348 250.932 45.9188 250.988 45.6948 251.024C45.4708 251.064 45.2488 251.084 45.0288 251.084C44.6088 251.084 44.2208 251.014 43.8648 250.874C43.5128 250.73 43.2068 250.522 42.9468 250.25C42.6908 249.974 42.4908 249.634 42.3468 249.23C42.2028 248.826 42.1308 248.362 42.1308 247.838C42.1308 247.414 42.1948 247.018 42.3228 246.65C42.4548 246.282 42.6428 245.964 42.8868 245.696C43.1308 245.424 43.4288 245.212 43.7808 245.06C44.1328 244.904 44.5288 244.826 44.9688 244.826C45.3328 244.826 45.6688 244.888 45.9768 245.012C46.2888 245.132 46.5568 245.308 46.7808 245.54C47.0088 245.768 47.1868 246.052 47.3148 246.392C47.4428 246.728 47.5068 247.112 47.5068 247.544C47.5068 247.712 47.4888 247.824 47.4528 247.88C47.4168 247.936 47.3488 247.964 47.2488 247.964H43.1868C43.1988 248.348 43.2508 248.682 43.3428 248.966C43.4388 249.25 43.5708 249.488 43.7388 249.68C43.9068 249.868 44.1068 250.01 44.3388 250.106C44.5708 250.198 44.8308 250.244 45.1188 250.244C45.3868 250.244 45.6168 250.214 45.8088 250.154C46.0048 250.09 46.1728 250.022 46.3128 249.95C46.4528 249.878 46.5688 249.812 46.6608 249.752C46.7568 249.688 46.8388 249.656 46.9068 249.656C46.9948 249.656 47.0628 249.69 47.1108 249.758L47.4108 250.148ZM49.8327 246.14C50.0247 245.724 50.2607 245.4 50.5407 245.168C50.8207 244.932 51.1627 244.814 51.5667 244.814C51.6947 244.814 51.8167 244.828 51.9327 244.856C52.0527 244.884 52.1587 244.928 52.2507 244.988L52.1727 245.786C52.1487 245.886 52.0887 245.936 51.9927 245.936C51.9367 245.936 51.8547 245.924 51.7467 245.9C51.6387 245.876 51.5167 245.864 51.3807 245.864C51.1887 245.864 51.0167 245.892 50.8647 245.948C50.7167 246.004 50.5827 246.088 50.4627 246.2C50.3467 246.308 50.2407 246.444 50.1447 246.608C50.0527 246.768 49.9687 246.952 49.8927 247.16V251H48.8187V244.922H49.4307C49.5467 244.922 49.6267 244.944 49.6707 244.988C49.7147 245.032 49.7447 245.108 49.7607 245.216L49.8327 246.14ZM58.5643 244.826C59.0083 244.826 59.4083 244.9 59.7643 245.048C60.1203 245.196 60.4243 245.406 60.6763 245.678C60.9283 245.95 61.1203 246.28 61.2523 246.668C61.3883 247.052 61.4563 247.482 61.4563 247.958C61.4563 248.438 61.3883 248.87 61.2523 249.254C61.1203 249.638 60.9283 249.966 60.6763 250.238C60.4243 250.51 60.1203 250.72 59.7643 250.868C59.4083 251.012 59.0083 251.084 58.5643 251.084C58.1163 251.084 57.7123 251.012 57.3523 250.868C56.9963 250.72 56.6923 250.51 56.4403 250.238C56.1883 249.966 55.9943 249.638 55.8583 249.254C55.7263 248.87 55.6603 248.438 55.6603 247.958C55.6603 247.482 55.7263 247.052 55.8583 246.668C55.9943 246.28 56.1883 245.95 56.4403 245.678C56.6923 245.406 56.9963 245.196 57.3523 245.048C57.7123 244.9 58.1163 244.826 58.5643 244.826ZM58.5643 250.25C59.1643 250.25 59.6123 250.05 59.9083 249.65C60.2043 249.246 60.3523 248.684 60.3523 247.964C60.3523 247.24 60.2043 246.676 59.9083 246.272C59.6123 245.868 59.1643 245.666 58.5643 245.666C58.2603 245.666 57.9943 245.718 57.7663 245.822C57.5423 245.926 57.3543 246.076 57.2023 246.272C57.0543 246.468 56.9423 246.71 56.8663 246.998C56.7943 247.282 56.7583 247.604 56.7583 247.964C56.7583 248.684 56.9063 249.246 57.2023 249.65C57.5023 250.05 57.9563 250.25 58.5643 250.25ZM63.8848 249.536C64.0808 249.8 64.2948 249.986 64.5268 250.094C64.7588 250.202 65.0188 250.256 65.3068 250.256C65.8748 250.256 66.3108 250.054 66.6148 249.65C66.9188 249.246 67.0708 248.67 67.0708 247.922C67.0708 247.526 67.0348 247.186 66.9628 246.902C66.8948 246.618 66.7948 246.386 66.6628 246.206C66.5308 246.022 66.3688 245.888 66.1768 245.804C65.9848 245.72 65.7668 245.678 65.5228 245.678C65.1748 245.678 64.8688 245.758 64.6048 245.918C64.3448 246.078 64.1048 246.304 63.8848 246.596V249.536ZM63.8308 245.864C64.0868 245.548 64.3828 245.294 64.7188 245.102C65.0548 244.91 65.4388 244.814 65.8708 244.814C66.2228 244.814 66.5408 244.882 66.8248 245.018C67.1088 245.15 67.3508 245.348 67.5508 245.612C67.7508 245.872 67.9048 246.196 68.0128 246.584C68.1208 246.972 68.1748 247.418 68.1748 247.922C68.1748 248.37 68.1148 248.788 67.9948 249.176C67.8748 249.56 67.7008 249.894 67.4728 250.178C67.2488 250.458 66.9728 250.68 66.6448 250.844C66.3208 251.004 65.9548 251.084 65.5468 251.084C65.1748 251.084 64.8548 251.022 64.5868 250.898C64.3228 250.77 64.0888 250.594 63.8848 250.37V253.058H62.8108V244.922H63.4528C63.6048 244.922 63.6988 244.996 63.7348 245.144L63.8308 245.864ZM75.0954 251H74.0274V245.816H70.8954V249.464C70.8954 249.72 70.9574 249.91 71.0814 250.034C71.2054 250.158 71.3654 250.22 71.5614 250.22C71.6734 250.22 71.7694 250.206 71.8494 250.178C71.9334 250.146 72.0054 250.112 72.0654 250.076C72.1254 250.04 72.1754 250.008 72.2154 249.98C72.2594 249.948 72.2974 249.932 72.3294 249.932C72.3854 249.932 72.4354 249.966 72.4794 250.034L72.7914 250.544C72.6074 250.716 72.3854 250.852 72.1254 250.952C71.8654 251.048 71.5974 251.096 71.3214 251.096C70.8414 251.096 70.4714 250.962 70.2114 250.694C69.9554 250.426 69.8274 250.04 69.8274 249.536V245.816H69.0954C69.0314 245.816 68.9774 245.798 68.9334 245.762C68.8894 245.722 68.8674 245.662 68.8674 245.582V245.156L69.8634 245.024L70.1094 243.152C70.1214 243.092 70.1474 243.044 70.1874 243.008C70.2314 242.968 70.2874 242.948 70.3554 242.948H70.8954V245.042H75.0954V251ZM75.3594 242.972C75.3594 243.076 75.3374 243.174 75.2934 243.266C75.2534 243.354 75.1974 243.432 75.1254 243.5C75.0574 243.568 74.9774 243.622 74.8854 243.662C74.7934 243.702 74.6954 243.722 74.5914 243.722C74.4874 243.722 74.3894 243.702 74.2974 243.662C74.2094 243.622 74.1314 243.568 74.0634 243.5C73.9954 243.432 73.9414 243.354 73.9014 243.266C73.8614 243.174 73.8414 243.076 73.8414 242.972C73.8414 242.868 73.8614 242.77 73.9014 242.678C73.9414 242.582 73.9954 242.5 74.0634 242.432C74.1314 242.36 74.2094 242.304 74.2974 242.264C74.3894 242.224 74.4874 242.204 74.5914 242.204C74.6954 242.204 74.7934 242.224 74.8854 242.264C74.9774 242.304 75.0574 242.36 75.1254 242.432C75.1974 242.5 75.2534 242.582 75.2934 242.678C75.3374 242.77 75.3594 242.868 75.3594 242.972ZM79.4119 244.826C79.8559 244.826 80.2559 244.9 80.6119 245.048C80.9679 245.196 81.2719 245.406 81.5239 245.678C81.7759 245.95 81.9679 246.28 82.0999 246.668C82.2359 247.052 82.3039 247.482 82.3039 247.958C82.3039 248.438 82.2359 248.87 82.0999 249.254C81.9679 249.638 81.7759 249.966 81.5239 250.238C81.2719 250.51 80.9679 250.72 80.6119 250.868C80.2559 251.012 79.8559 251.084 79.4119 251.084C78.9639 251.084 78.5599 251.012 78.1999 250.868C77.8439 250.72 77.5399 250.51 77.2879 250.238C77.0359 249.966 76.8419 249.638 76.7059 249.254C76.5739 248.87 76.5079 248.438 76.5079 247.958C76.5079 247.482 76.5739 247.052 76.7059 246.668C76.8419 246.28 77.0359 245.95 77.2879 245.678C77.5399 245.406 77.8439 245.196 78.1999 245.048C78.5599 244.9 78.9639 244.826 79.4119 244.826ZM79.4119 250.25C80.0119 250.25 80.4599 250.05 80.7559 249.65C81.0519 249.246 81.1999 248.684 81.1999 247.964C81.1999 247.24 81.0519 246.676 80.7559 246.272C80.4599 245.868 80.0119 245.666 79.4119 245.666C79.1079 245.666 78.8419 245.718 78.6139 245.822C78.3899 245.926 78.2019 246.076 78.0499 246.272C77.9019 246.468 77.7899 246.71 77.7139 246.998C77.6419 247.282 77.6059 247.604 77.6059 247.964C77.6059 248.684 77.7539 249.246 78.0499 249.65C78.3499 250.05 78.8039 250.25 79.4119 250.25ZM84.6665 245.804C84.7985 245.656 84.9385 245.522 85.0865 245.402C85.2345 245.282 85.3905 245.18 85.5545 245.096C85.7225 245.008 85.8985 244.942 86.0825 244.898C86.2705 244.85 86.4725 244.826 86.6885 244.826C87.0205 244.826 87.3125 244.882 87.5645 244.994C87.8205 245.102 88.0325 245.258 88.2005 245.462C88.3725 245.662 88.5025 245.904 88.5905 246.188C88.6785 246.472 88.7225 246.786 88.7225 247.13V251H87.6485V247.13C87.6485 246.67 87.5425 246.314 87.3305 246.062C87.1225 245.806 86.8045 245.678 86.3765 245.678C86.0605 245.678 85.7645 245.754 85.4885 245.906C85.2165 246.058 84.9645 246.264 84.7325 246.524V251H83.6585V244.922H84.3005C84.4525 244.922 84.5465 244.996 84.5825 245.144L84.6665 245.804ZM93.8899 245.924C93.8419 246.012 93.7679 246.056 93.6679 246.056C93.6079 246.056 93.5399 246.034 93.4639 245.99C93.3879 245.946 93.2939 245.898 93.1819 245.846C93.0739 245.79 92.9439 245.74 92.7919 245.696C92.6399 245.648 92.4599 245.624 92.2519 245.624C92.0719 245.624 91.9099 245.648 91.7659 245.696C91.6219 245.74 91.4979 245.802 91.3939 245.882C91.2939 245.962 91.2159 246.056 91.1599 246.164C91.1079 246.268 91.0819 246.382 91.0819 246.506C91.0819 246.662 91.1259 246.792 91.2139 246.896C91.3059 247 91.4259 247.09 91.5739 247.166C91.7219 247.242 91.8899 247.31 92.0779 247.37C92.2659 247.426 92.4579 247.488 92.6539 247.556C92.8539 247.62 93.0479 247.692 93.2359 247.772C93.4239 247.852 93.5919 247.952 93.7399 248.072C93.8879 248.192 94.0059 248.34 94.0939 248.516C94.1859 248.688 94.2319 248.896 94.2319 249.14C94.2319 249.42 94.1819 249.68 94.0819 249.92C93.9819 250.156 93.8339 250.362 93.6379 250.538C93.4419 250.71 93.2019 250.846 92.9179 250.946C92.6339 251.046 92.3059 251.096 91.9339 251.096C91.5099 251.096 91.1259 251.028 90.7819 250.892C90.4379 250.752 90.1459 250.574 89.9059 250.358L90.1579 249.95C90.1899 249.898 90.2279 249.858 90.2719 249.83C90.3159 249.802 90.3719 249.788 90.4399 249.788C90.5119 249.788 90.5879 249.816 90.6679 249.872C90.7479 249.928 90.8439 249.99 90.9559 250.058C91.0719 250.126 91.2119 250.188 91.3759 250.244C91.5399 250.3 91.7439 250.328 91.9879 250.328C92.1959 250.328 92.3779 250.302 92.5339 250.25C92.6899 250.194 92.8199 250.12 92.9239 250.028C93.0279 249.936 93.1039 249.83 93.1519 249.71C93.2039 249.59 93.2299 249.462 93.2299 249.326C93.2299 249.158 93.1839 249.02 93.0919 248.912C93.0039 248.8 92.8859 248.706 92.7379 248.63C92.5899 248.55 92.4199 248.482 92.2279 248.426C92.0399 248.366 91.8459 248.304 91.6459 248.24C91.4499 248.176 91.2559 248.104 91.0639 248.024C90.8759 247.94 90.7079 247.836 90.5599 247.712C90.4119 247.588 90.2919 247.436 90.1999 247.256C90.1119 247.072 90.0679 246.85 90.0679 246.59C90.0679 246.358 90.1159 246.136 90.2119 245.924C90.3079 245.708 90.4479 245.52 90.6319 245.36C90.8159 245.196 91.0419 245.066 91.3099 244.97C91.5779 244.874 91.8839 244.826 92.2279 244.826C92.6279 244.826 92.9859 244.89 93.3019 245.018C93.6219 245.142 93.8979 245.314 94.1299 245.534L93.8899 245.924Z" fill="#535353"/>
<defs>
<filter id="filter0_ddd" x="324" y="26" width="42" height="42" filterUnits="userSpaceOnUse" color-interpolation-filters="sRGB">
<feFlood flood-opacity="0" result="BackgroundImageFix"/>
<feColorMatrix in="SourceAlpha" type="matrix" values="0 0 0 0 0 0 0 0 0 0 0 0 0 0 0 0 0 0 127 0"/>
<feOffset dy="3"/>
<feGaussianBlur stdDeviation="0.5"/>
<feColorMatrix type="matrix" values="0 0 0 0 0 0 0 0 0 0 0 0 0 0 0 0 0 0 0.03 0"/>
<feBlend mode="normal" in2="BackgroundImageFix" result="effect1_dropShadow"/>
<feColorMatrix in="SourceAlpha" type="matrix" values="0 0 0 0 0 0 0 0 0 0 0 0 0 0 0 0 0 0 127 0"/>
<feOffset dy="1"/>
<feGaussianBlur stdDeviation="0.5"/>
<feColorMatrix type="matrix" values="0 0 0 0 0 0 0 0 0 0 0 0 0 0 0 0 0 0 0.01 0"/>
<feBlend mode="normal" in2="effect1_dropShadow" result="effect2_dropShadow"/>
<feColorMatrix in="SourceAlpha" type="matrix" values="0 0 0 0 0 0 0 0 0 0 0 0 0 0 0 0 0 0 127 0"/>
<feOffset dy="3"/>
<feGaussianBlur stdDeviation="4"/>
<feColorMatrix type="matrix" values="0 0 0 0 0 0 0 0 0 0 0 0 0 0 0 0 0 0 0.1 0"/>
<feBlend mode="normal" in2="effect2_dropShadow" result="effect3_dropShadow"/>
<feBlend mode="normal" in="SourceGraphic" in2="effect3_dropShadow" result="shape"/>
</filter>
<filter id="filter1_d" x="0" y="81" width="371" height="38" filterUnits="userSpaceOnUse" color-interpolation-filters="sRGB">
<feFlood flood-opacity="0" result="BackgroundImageFix"/>
<feColorMatrix in="SourceAlpha" type="matrix" values="0 0 0 0 0 0 0 0 0 0 0 0 0 0 0 0 0 0 127 0"/>
<feOffset dy="4"/>
<feGaussianBlur stdDeviation="2"/>
<feColorMatrix type="matrix" values="0 0 0 0 0 0 0 0 0 0 0 0 0 0 0 0 0 0 0.25 0"/>
<feBlend mode="normal" in2="BackgroundImageFix" result="effect1_dropShadow"/>
<feBlend mode="normal" in="SourceGraphic" in2="effect1_dropShadow" result="shape"/>
</filter>
<clipPath id="clip0">
<rect width="375" height="233" fill="white" transform="translate(2)"/>
</clipPath>
<clipPath id="clip1">
<rect x="2" y="-128" width="375" height="812" rx="30" fill="white"/>
</clipPath>
<clipPath id="clip2">
<rect width="363" height="30" fill="white" transform="translate(4 81)"/>
</clipPath>
</defs>
</svg>
