<svg width="397" height="196" viewBox="0 0 397 196" fill="none" xmlns="http://www.w3.org/2000/svg">
<path fill-rule="evenodd" clip-rule="evenodd" d="M312.273 28.1024C312.273 28.1587 312.042 28.2048 311.759 28.2048C311.477 28.2048 311.245 28.2508 311.245 28.3071C311.245 28.3634 311.107 28.4095 310.937 28.4095C310.768 28.4095 310.629 28.4556 310.629 28.5119C310.629 28.5682 310.49 28.6143 310.321 28.6143C310.151 28.6143 310.012 28.6603 310.012 28.7166C310.012 28.773 309.92 28.819 309.807 28.819C309.694 28.819 309.601 28.8651 309.601 28.9214C309.601 28.9777 309.509 29.0238 309.396 29.0238C309.283 29.0238 309.19 29.0698 309.19 29.1262C309.19 29.1825 309.051 29.2285 308.882 29.2285C308.712 29.2285 308.574 29.2746 308.574 29.3309C308.574 29.3872 308.481 29.4333 308.368 29.4333C308.255 29.4333 308.163 29.4794 308.163 29.5357C308.163 29.592 308.08 29.638 307.98 29.638C307.879 29.638 307.73 29.7302 307.649 29.8428C307.567 29.9554 307.418 30.0476 307.318 30.0476C307.217 30.0476 307.135 30.0936 307.135 30.1499C307.135 30.2062 307.042 30.2523 306.929 30.2523C306.816 30.2523 306.724 30.2984 306.724 30.3547C306.724 30.411 306.631 30.4571 306.518 30.4571C306.405 30.4571 306.313 30.5031 306.313 30.5594C306.313 30.6158 306.22 30.6618 306.107 30.6618C305.994 30.6618 305.902 30.7079 305.902 30.7642C305.902 30.8205 305.82 30.8666 305.719 30.8666C305.618 30.8666 305.47 30.9587 305.388 31.0713C305.307 31.1839 305.158 31.2761 305.057 31.2761C304.957 31.2761 304.874 31.3222 304.874 31.3785C304.874 31.4348 304.792 31.4808 304.691 31.4808C304.591 31.4808 304.442 31.573 304.36 31.6856C304.279 31.7982 304.13 31.8904 304.029 31.8904C303.929 31.8904 303.847 31.9364 303.847 31.9927C303.847 32.049 303.764 32.0951 303.664 32.0951C303.563 32.0951 303.414 32.1873 303.333 32.2999C303.251 32.4125 303.113 32.5046 303.025 32.5046C302.936 32.5046 302.798 32.5968 302.716 32.7094C302.635 32.822 302.496 32.9141 302.408 32.9141C302.32 32.9141 302.181 33.0063 302.1 33.1189C302.018 33.2315 301.879 33.3236 301.791 33.3236C301.703 33.3236 301.565 33.4158 301.483 33.5284C301.402 33.641 301.263 33.7332 301.175 33.7332C301.087 33.7332 300.948 33.8253 300.867 33.9379C300.785 34.0505 300.646 34.1427 300.558 34.1427C300.47 34.1427 300.331 34.2348 300.25 34.3474C300.169 34.46 300.03 34.5522 299.942 34.5522C299.854 34.5522 299.715 34.6443 299.633 34.7569C299.552 34.8696 299.413 34.9617 299.325 34.9617C299.237 34.9617 299.098 35.0538 299.017 35.1664C298.935 35.2791 298.797 35.3712 298.709 35.3712C298.621 35.3712 298.482 35.4633 298.4 35.576C298.319 35.6886 298.188 35.7807 298.111 35.7807C298.033 35.7807 297.839 35.9189 297.681 36.0878C297.523 36.2568 297.338 36.395 297.27 36.395C297.202 36.395 297.017 36.5332 296.859 36.7021C296.701 36.871 296.516 37.0092 296.448 37.0092C296.38 37.0092 296.195 37.1475 296.037 37.3164C295.878 37.4853 295.693 37.6235 295.626 37.6235C295.558 37.6235 295.373 37.7617 295.215 37.9306C295.056 38.0996 294.871 38.2378 294.804 38.2378C294.736 38.2378 294.551 38.376 294.393 38.5449C294.234 38.7138 294.05 38.852 293.984 38.852C293.917 38.852 293.685 39.0363 293.468 39.2616C293.251 39.4868 293.019 39.6711 292.954 39.6711C292.889 39.6711 292.657 39.8554 292.44 40.0806C292.223 40.3058 291.992 40.4901 291.928 40.4901C291.863 40.4901 291.585 40.7204 291.31 41.002C291.035 41.2835 290.758 41.5139 290.694 41.5139C290.631 41.5139 290.307 41.7903 289.974 42.1281C289.641 42.466 289.318 42.7424 289.255 42.7424C289.193 42.7424 288.823 43.0649 288.433 43.459C288.042 43.8532 287.673 44.1757 287.611 44.1757C287.55 44.1757 287.087 44.5903 286.583 45.0971C286.078 45.6039 285.617 46.0185 285.556 46.0185C285.496 46.0185 284.848 46.6174 284.117 47.3494C283.385 48.0814 282.739 48.6803 282.68 48.6803C282.543 48.6803 271.991 59.192 271.991 59.329C271.991 59.3864 270.973 60.4454 269.73 61.6823C268.487 62.9192 267.469 63.9791 267.469 64.0377C267.469 64.0963 266.776 64.8331 265.928 65.675C265.08 66.517 264.387 67.2542 264.387 67.3134C264.387 67.3727 263.785 68.0174 263.051 68.7464C262.316 69.4753 261.715 70.1199 261.715 70.1787C261.715 70.2376 261.415 70.5845 261.049 70.9494C260.481 71.5145 260.329 71.6129 260.021 71.6129C259.822 71.6129 259.66 71.659 259.66 71.7153C259.66 71.7716 259.521 71.8177 259.351 71.8177C259.182 71.8177 259.043 71.8638 259.043 71.9201C259.043 71.9764 258.812 72.0225 258.529 72.0225C258.247 72.0225 258.015 72.0685 258.015 72.1248C258.015 72.1811 257.83 72.2272 257.604 72.2272C257.378 72.2272 257.193 72.2733 257.193 72.3296C257.193 72.3859 257.008 72.432 256.782 72.432C256.556 72.432 256.371 72.478 256.371 72.5343C256.371 72.5907 256.14 72.6367 255.857 72.6367C255.575 72.6367 255.344 72.6828 255.344 72.7391C255.344 72.7954 255.112 72.8415 254.83 72.8415C254.547 72.8415 254.316 72.8876 254.316 72.9439C254.316 73.0008 254.042 73.0462 253.699 73.0462C253.357 73.0462 253.083 73.0917 253.083 73.1486C253.083 73.2055 252.809 73.251 252.466 73.251C252.124 73.251 251.85 73.2964 251.85 73.3534C251.85 73.4103 251.576 73.4557 251.233 73.4557C250.891 73.4557 250.617 73.5012 250.617 73.5581C250.617 73.6166 250.308 73.6605 249.897 73.6605C249.486 73.6605 249.178 73.7044 249.178 73.7629C249.178 73.8236 248.801 73.8653 248.253 73.8653C247.705 73.8653 247.328 73.9069 247.328 73.9676C247.328 74.0291 246.917 74.07 246.301 74.07C245.684 74.07 245.273 74.111 245.273 74.1724C245.273 74.2349 244.793 74.2748 244.04 74.2748C243.286 74.2748 242.807 74.3146 242.807 74.3771C242.807 74.4408 242.224 74.4795 241.265 74.4795C240.306 74.4795 239.724 74.5182 239.724 74.5819C239.724 74.648 238.525 74.6843 236.333 74.6843C234.141 74.6843 232.942 74.648 232.942 74.5819C232.942 74.5205 232.531 74.4795 231.914 74.4795C231.298 74.4795 230.887 74.4386 230.887 74.3771C230.887 74.3164 230.51 74.2748 229.962 74.2748C229.414 74.2748 229.037 74.2331 229.037 74.1724C229.037 74.1155 228.763 74.07 228.42 74.07C228.078 74.07 227.804 74.0246 227.804 73.9676C227.804 73.9113 227.619 73.8653 227.393 73.8653C227.167 73.8653 226.982 73.8192 226.982 73.7629C226.982 73.7066 226.797 73.6605 226.571 73.6605C226.344 73.6605 226.16 73.6144 226.16 73.5581C226.16 73.5018 226.021 73.4557 225.851 73.4557C225.682 73.4557 225.543 73.4097 225.543 73.3534C225.543 73.2971 225.404 73.251 225.235 73.251C225.065 73.251 224.926 73.2049 224.926 73.1486C224.926 73.0923 224.788 73.0462 224.618 73.0462C224.449 73.0462 224.31 73.0002 224.31 72.9439C224.31 72.8876 224.171 72.8415 224.002 72.8415C223.832 72.8415 223.693 72.7954 223.693 72.7391C223.693 72.6828 223.601 72.6367 223.488 72.6367C223.375 72.6367 223.282 72.5907 223.282 72.5343C223.282 72.478 223.19 72.432 223.077 72.432C222.964 72.432 222.871 72.3859 222.871 72.3296C222.871 72.2733 222.779 72.2272 222.666 72.2272C222.553 72.2272 222.46 72.1811 222.46 72.1248C222.46 72.0685 222.368 72.0225 222.255 72.0225C222.142 72.0225 222.049 71.9764 222.049 71.9201C222.049 71.8638 221.957 71.8177 221.844 71.8177C221.731 71.8177 221.638 71.7716 221.638 71.7153C221.638 71.659 221.556 71.6129 221.455 71.6129C221.355 71.6129 221.206 71.5208 221.124 71.4082C221.043 71.2956 220.912 71.2034 220.834 71.2034C220.757 71.2034 220.563 71.0652 220.405 70.8963C220.247 70.7274 220.062 70.5892 219.994 70.5892C219.926 70.5892 219.741 70.451 219.583 70.282C219.424 70.1131 219.239 69.9749 219.172 69.9749C219.104 69.9749 218.919 69.8367 218.761 69.6678C218.602 69.4988 218.422 69.3606 218.359 69.3606C218.185 69.3606 215.472 66.6198 215.472 66.4438C215.472 66.3588 215.426 66.2893 215.37 66.2893C215.313 66.2893 215.267 66.059 215.267 65.7774C215.267 65.4959 215.313 65.2655 215.37 65.2655C215.426 65.2655 215.472 65.1734 215.472 65.0608C215.472 64.9243 215.541 64.856 215.678 64.856C215.791 64.856 215.883 64.8099 215.883 64.7536C215.883 64.6973 216.022 64.6513 216.192 64.6513C216.361 64.6513 216.5 64.6973 216.5 64.7536C216.5 64.8099 216.639 64.856 216.808 64.856C216.978 64.856 217.117 64.9021 217.117 64.9584C217.117 65.0147 217.209 65.0608 217.322 65.0608C217.435 65.0608 217.528 65.1068 217.528 65.1631C217.528 65.2195 217.61 65.2655 217.71 65.2655C217.811 65.2655 217.96 65.3577 218.041 65.4703C218.123 65.5829 218.272 65.675 218.372 65.675C218.473 65.675 218.555 65.7211 218.555 65.7774C218.555 65.8337 218.765 65.8798 219.022 65.8798C219.381 65.8798 219.548 65.8216 219.742 65.6285C219.88 65.4902 219.994 65.306 219.994 65.2189C219.994 65.1319 220.04 65.0608 220.097 65.0608C220.153 65.0608 220.199 64.9686 220.199 64.856C220.199 64.7434 220.153 64.6513 220.097 64.6513C220.04 64.6513 219.994 64.5809 219.994 64.495C219.994 64.409 219.787 64.1326 219.534 63.8808C219.281 63.6288 219.004 63.4227 218.918 63.4227C218.831 63.4227 218.761 63.3767 218.761 63.3203C218.761 63.264 218.668 63.218 218.555 63.218C218.442 63.218 218.35 63.1719 218.35 63.1156C218.35 63.0593 218.257 63.0132 218.144 63.0132C218.031 63.0132 217.939 62.9671 217.939 62.9108C217.939 62.8545 217.8 62.8085 217.63 62.8085C217.461 62.8085 217.322 62.7624 217.322 62.7061C217.322 62.644 216.877 62.6037 216.192 62.6037C215.507 62.6037 215.061 62.644 215.061 62.7061C215.061 62.7624 214.969 62.8085 214.856 62.8085C214.743 62.8085 214.65 62.8545 214.65 62.9108C214.65 62.9671 214.58 63.0132 214.493 63.0132C214.29 63.0132 213.417 63.8823 213.417 64.0855C213.417 64.1714 213.371 64.2417 213.314 64.2417C213.258 64.2417 213.212 64.3339 213.212 64.4465C213.212 64.5591 213.165 64.6513 213.109 64.6513C213.052 64.6513 213.006 64.8355 213.006 65.0608C213.006 65.286 212.96 65.4703 212.903 65.4703C212.842 65.4703 212.801 65.8457 212.801 66.3917C212.801 66.9377 212.842 67.3131 212.903 67.3131C212.96 67.3131 213.006 67.4052 213.006 67.5178C213.006 67.6305 213.052 67.7226 213.109 67.7226C213.165 67.7226 213.212 67.8147 213.212 67.9273C213.212 68.04 213.258 68.1321 213.314 68.1321C213.371 68.1321 213.417 68.2242 213.417 68.3369C213.417 68.4495 213.463 68.5416 213.52 68.5416C213.576 68.5416 213.623 68.6143 213.623 68.7032C213.623 68.7921 213.808 69.0418 214.034 69.2583C214.26 69.4747 214.445 69.7024 214.445 69.7643C214.445 69.9097 215.536 70.9987 215.681 70.9987C215.742 70.9987 216.064 71.2751 216.397 71.6129C216.73 71.9508 217.055 72.2272 217.119 72.2272C217.183 72.2272 217.413 72.4115 217.63 72.6367C217.848 72.862 218.08 73.0462 218.146 73.0462C218.213 73.0462 218.397 73.1844 218.555 73.3534C218.714 73.5223 218.907 73.6605 218.985 73.6605C219.063 73.6605 219.193 73.7526 219.275 73.8653C219.356 73.9779 219.495 74.07 219.583 74.07C219.671 74.07 219.81 74.1622 219.891 74.2748C219.973 74.3874 220.111 74.4795 220.199 74.4795C220.287 74.4795 220.426 74.5717 220.508 74.6843C220.589 74.7969 220.738 74.889 220.839 74.889C220.939 74.889 221.021 74.9351 221.021 74.9914C221.021 75.0477 221.114 75.0938 221.227 75.0938C221.34 75.0938 221.433 75.1399 221.433 75.1962C221.433 75.2525 221.525 75.2985 221.638 75.2985C221.751 75.2985 221.844 75.3446 221.844 75.4009C221.844 75.4572 221.936 75.5033 222.049 75.5033C222.162 75.5033 222.255 75.5494 222.255 75.6057C222.255 75.662 222.393 75.7081 222.563 75.7081C222.732 75.7081 222.871 75.7541 222.871 75.8104C222.871 75.8667 222.964 75.9128 223.077 75.9128C223.19 75.9128 223.282 75.9589 223.282 76.0152C223.282 76.0715 223.421 76.1176 223.59 76.1176C223.76 76.1176 223.899 76.1636 223.899 76.2199C223.899 76.2763 223.991 76.3223 224.104 76.3223C224.217 76.3223 224.31 76.3684 224.31 76.4247C224.31 76.481 224.449 76.5271 224.618 76.5271C224.788 76.5271 224.926 76.5732 224.926 76.6295C224.926 76.6858 225.111 76.7318 225.337 76.7318C225.563 76.7318 225.748 76.7779 225.748 76.8342C225.748 76.8905 225.933 76.9366 226.16 76.9366C226.386 76.9366 226.571 76.9827 226.571 77.039C226.571 77.0953 226.802 77.1413 227.084 77.1413C227.367 77.1413 227.598 77.1874 227.598 77.2437C227.598 77.3034 227.941 77.3461 228.42 77.3461C228.9 77.3461 229.242 77.3888 229.242 77.4485C229.242 77.5114 229.756 77.5509 230.578 77.5509C231.4 77.5509 231.914 77.5903 231.914 77.6532C231.914 77.7192 233.01 77.7556 234.997 77.7556C236.984 77.7556 238.08 77.7192 238.08 77.6532C238.08 77.5893 238.696 77.5509 239.724 77.5509C240.752 77.5509 241.368 77.5125 241.368 77.4485C241.368 77.3864 241.813 77.3461 242.498 77.3461C243.184 77.3461 243.629 77.3058 243.629 77.2437C243.629 77.1817 244.074 77.1413 244.759 77.1413C245.444 77.1413 245.89 77.101 245.89 77.039C245.89 76.9783 246.266 76.9366 246.814 76.9366C247.362 76.9366 247.739 76.8949 247.739 76.8342C247.739 76.7745 248.082 76.7318 248.561 76.7318C249.041 76.7318 249.383 76.6891 249.383 76.6295C249.383 76.571 249.692 76.5271 250.103 76.5271C250.514 76.5271 250.822 76.4832 250.822 76.4247C250.822 76.3678 251.096 76.3223 251.439 76.3223C251.781 76.3223 252.055 76.2769 252.055 76.2199C252.055 76.1636 252.286 76.1176 252.569 76.1176C252.852 76.1176 253.083 76.0715 253.083 76.0152C253.083 75.9583 253.357 75.9128 253.699 75.9128C254.042 75.9128 254.316 75.8674 254.316 75.8104C254.316 75.7541 254.547 75.7081 254.83 75.7081C255.112 75.7081 255.344 75.662 255.344 75.6057C255.344 75.5494 255.529 75.5033 255.755 75.5033C255.981 75.5033 256.166 75.4572 256.166 75.4009C256.166 75.3446 256.351 75.2985 256.577 75.2985C257.139 75.2985 257.114 75.4965 256.474 76.1176C256.191 76.3918 255.96 76.6689 255.96 76.7332C255.96 76.7976 255.775 77.0273 255.549 77.2437C255.323 77.4602 255.138 77.6914 255.138 77.7577C255.138 77.824 254.999 78.0074 254.83 78.1651C254.66 78.3229 254.521 78.5062 254.521 78.5726C254.521 78.6388 254.337 78.8701 254.11 79.0865C253.884 79.303 253.699 79.5342 253.699 79.6005C253.699 79.6668 253.561 79.8502 253.391 80.0079C253.222 80.1657 253.083 80.349 253.083 80.4154C253.083 80.4816 252.898 80.7129 252.672 80.9293C252.446 81.1458 252.261 81.377 252.261 81.4433C252.261 81.5096 252.122 81.693 251.952 81.8507C251.783 82.0085 251.644 82.1928 251.644 82.2602C251.644 82.3277 251.505 82.512 251.336 82.6698C251.166 82.8275 251.028 83.0109 251.028 83.0772C251.028 83.1435 250.843 83.3747 250.617 83.5912C250.39 83.8076 250.206 84.0389 250.206 84.1051C250.206 84.1714 250.067 84.3548 249.897 84.5126C249.728 84.6703 249.589 84.8546 249.589 84.9221C249.589 84.9895 249.45 85.1738 249.281 85.3316C249.111 85.4893 248.972 85.6736 248.972 85.7411C248.972 85.8086 248.834 85.9928 248.664 86.1506C248.495 86.3084 248.356 86.4926 248.356 86.5601C248.356 86.6276 248.217 86.8119 248.048 86.9696C247.878 87.1274 247.739 87.3117 247.739 87.3791C247.739 87.4466 247.601 87.6309 247.431 87.7886C247.261 87.9464 247.123 88.1307 247.123 88.1982C247.123 88.2656 246.984 88.4499 246.814 88.6077C246.645 88.7654 246.506 88.9497 246.506 89.0172C246.506 89.0846 246.367 89.2689 246.198 89.4267C246.028 89.5844 245.89 89.7687 245.89 89.8362C245.89 89.9037 245.751 90.0879 245.581 90.2457C245.412 90.4035 245.273 90.5878 245.273 90.6552C245.273 90.7227 245.134 90.907 244.965 91.0647C244.795 91.2225 244.656 91.4068 244.656 91.4742C244.656 91.5417 244.518 91.726 244.348 91.8838C244.179 92.0415 244.04 92.2258 244.04 92.2933C244.04 92.3607 243.901 92.545 243.732 92.7028C243.562 92.8605 243.423 93.0448 243.423 93.1123C243.423 93.1798 243.285 93.364 243.115 93.5218C242.945 93.6796 242.807 93.8638 242.807 93.9313C242.807 93.9988 242.668 94.1831 242.498 94.3408C242.329 94.4986 242.19 94.6829 242.19 94.7503C242.19 94.8178 242.051 95.0021 241.882 95.1598C241.712 95.3176 241.574 95.5019 241.574 95.5694C241.574 95.6368 241.435 95.8211 241.265 95.9789C241.096 96.1366 240.957 96.3209 240.957 96.3884C240.957 96.4558 240.818 96.6401 240.649 96.7979C240.479 96.9557 240.34 97.1483 240.34 97.2258C240.34 97.3034 240.248 97.4333 240.135 97.5145C240.022 97.5957 239.929 97.7256 239.929 97.8032C239.929 97.8807 239.791 98.0734 239.621 98.2312C239.452 98.3889 239.313 98.5732 239.313 98.6407C239.313 98.7082 239.174 98.8924 239.005 99.0502C238.835 99.208 238.696 99.3922 238.696 99.4597C238.696 99.5272 238.558 99.7115 238.388 99.8692C238.218 100.027 238.08 100.211 238.08 100.279C238.08 100.346 237.941 100.53 237.771 100.688C237.602 100.846 237.463 101.03 237.463 101.098C237.463 101.165 237.324 101.35 237.155 101.507C236.985 101.665 236.847 101.849 236.847 101.917C236.847 101.984 236.708 102.169 236.538 102.326C236.369 102.484 236.23 102.668 236.23 102.736C236.23 102.803 236.091 102.988 235.922 103.145C235.752 103.303 235.613 103.487 235.613 103.555C235.613 103.622 235.475 103.807 235.305 103.964C235.136 104.122 234.997 104.315 234.997 104.392C234.997 104.47 234.904 104.6 234.791 104.681C234.678 104.762 234.586 104.892 234.586 104.97C234.586 105.047 234.447 105.24 234.278 105.398C234.108 105.555 233.969 105.74 233.969 105.807C233.969 105.875 233.831 106.059 233.661 106.217C233.491 106.374 233.353 106.559 233.353 106.626C233.353 106.694 233.214 106.878 233.044 107.036C232.875 107.193 232.736 107.378 232.736 107.445C232.736 107.513 232.597 107.697 232.428 107.855C232.258 108.012 232.12 108.205 232.12 108.283C232.12 108.36 232.027 108.49 231.914 108.571C231.801 108.653 231.709 108.782 231.709 108.86C231.709 108.938 231.57 109.13 231.4 109.288C231.231 109.446 231.092 109.63 231.092 109.697C231.092 109.765 230.953 109.949 230.784 110.107C230.614 110.265 230.475 110.449 230.475 110.517C230.475 110.584 230.337 110.768 230.167 110.926C229.998 111.084 229.859 111.268 229.859 111.336C229.859 111.403 229.72 111.587 229.551 111.745C229.381 111.903 229.242 112.095 229.242 112.173C229.242 112.251 229.15 112.381 229.037 112.462C228.924 112.543 228.831 112.673 228.831 112.75C228.831 112.828 228.693 113.021 228.523 113.178C228.353 113.336 228.215 113.52 228.215 113.588C228.215 113.655 228.076 113.84 227.906 113.997C227.737 114.155 227.598 114.339 227.598 114.407C227.598 114.474 227.459 114.659 227.29 114.816C227.12 114.974 226.982 115.167 226.982 115.244C226.982 115.322 226.889 115.452 226.776 115.533C226.663 115.614 226.571 115.744 226.571 115.822C226.571 115.899 226.432 116.092 226.262 116.25C226.093 116.407 225.954 116.592 225.954 116.659C225.954 116.727 225.815 116.911 225.646 117.069C225.476 117.226 225.337 117.419 225.337 117.497C225.337 117.574 225.245 117.704 225.132 117.785C225.019 117.867 224.926 117.996 224.926 118.074C224.926 118.152 224.788 118.344 224.618 118.502C224.449 118.66 224.31 118.844 224.31 118.911C224.31 118.979 224.171 119.163 224.002 119.321C223.832 119.479 223.693 119.671 223.693 119.749C223.693 119.827 223.601 119.956 223.488 120.038C223.375 120.119 223.282 120.249 223.282 120.326C223.282 120.404 223.143 120.597 222.974 120.754C222.804 120.912 222.666 121.096 222.666 121.164C222.666 121.231 222.527 121.416 222.357 121.573C222.188 121.731 222.049 121.915 222.049 121.983C222.049 122.05 221.91 122.235 221.741 122.392C221.571 122.55 221.433 122.743 221.433 122.82C221.433 122.898 221.34 123.028 221.227 123.109C221.114 123.19 221.021 123.32 221.021 123.398C221.021 123.475 220.883 123.668 220.713 123.826C220.544 123.983 220.405 124.168 220.405 124.235C220.405 124.303 220.266 124.487 220.097 124.645C219.927 124.802 219.788 124.995 219.788 125.073C219.788 125.15 219.696 125.28 219.583 125.361C219.47 125.442 219.377 125.572 219.377 125.65C219.377 125.727 219.239 125.92 219.069 126.078C218.899 126.236 218.761 126.42 218.761 126.487C218.761 126.555 218.622 126.739 218.452 126.897C218.283 127.055 218.144 127.247 218.144 127.325C218.144 127.403 218.052 127.532 217.939 127.614C217.826 127.695 217.733 127.825 217.733 127.902C217.733 127.98 217.594 128.172 217.425 128.33C217.255 128.488 217.117 128.672 217.117 128.74C217.117 128.807 216.978 128.992 216.808 129.149C216.639 129.307 216.5 129.5 216.5 129.577C216.5 129.655 216.408 129.785 216.294 129.866C216.181 129.947 216.089 130.077 216.089 130.155C216.089 130.232 215.95 130.425 215.781 130.583C215.611 130.74 215.472 130.925 215.472 130.992C215.472 131.06 215.334 131.244 215.164 131.402C214.995 131.559 214.856 131.752 214.856 131.83C214.856 131.907 214.763 132.037 214.65 132.118C214.537 132.199 214.445 132.329 214.445 132.407C214.445 132.484 214.306 132.677 214.137 132.835C213.967 132.993 213.828 133.177 213.828 133.244C213.828 133.312 213.689 133.496 213.52 133.654C213.35 133.812 213.212 134.004 213.212 134.082C213.212 134.159 213.119 134.289 213.006 134.371C212.893 134.452 212.801 134.582 212.801 134.659C212.801 134.737 212.662 134.929 212.492 135.087C212.323 135.245 212.184 135.429 212.184 135.497C212.184 135.564 212.045 135.748 211.876 135.906C211.706 136.064 211.567 136.257 211.567 136.334C211.567 136.412 211.475 136.542 211.362 136.623C211.249 136.704 211.156 136.834 211.156 136.912C211.156 136.989 211.018 137.182 210.848 137.34C210.679 137.497 210.54 137.682 210.54 137.749C210.54 137.816 210.401 138.001 210.232 138.159C210.062 138.316 209.923 138.509 209.923 138.586C209.923 138.664 209.831 138.794 209.718 138.875C209.605 138.956 209.512 139.086 209.512 139.164C209.512 139.241 209.374 139.434 209.204 139.592C209.034 139.75 208.896 139.934 208.896 140.001C208.896 140.069 208.757 140.253 208.587 140.411C208.418 140.569 208.279 140.753 208.279 140.82C208.279 140.888 208.14 141.072 207.971 141.23C207.801 141.388 207.663 141.58 207.663 141.658C207.663 141.735 207.57 141.865 207.457 141.947C207.344 142.028 207.252 142.158 207.252 142.235C207.252 142.313 207.113 142.505 206.943 142.663C206.774 142.821 206.635 143.005 206.635 143.073C206.635 143.14 206.496 143.324 206.327 143.482C206.157 143.64 206.018 143.824 206.018 143.892C206.018 143.959 205.88 144.143 205.71 144.301C205.541 144.459 205.402 144.652 205.402 144.729C205.402 144.807 205.309 144.937 205.196 145.018C205.083 145.099 204.991 145.229 204.991 145.307C204.991 145.384 204.852 145.577 204.683 145.734C204.513 145.892 204.374 146.077 204.374 146.144C204.374 146.211 204.236 146.396 204.066 146.554C203.896 146.711 203.758 146.904 203.758 146.981C203.758 147.059 203.665 147.189 203.552 147.27C203.439 147.351 203.347 147.481 203.347 147.559C203.347 147.636 203.208 147.829 203.038 147.987C202.869 148.145 202.73 148.329 202.73 148.396C202.73 148.464 202.591 148.648 202.422 148.806C202.252 148.964 202.113 149.148 202.113 149.215C202.113 149.283 201.975 149.467 201.805 149.625C201.636 149.783 201.497 149.975 201.497 150.053C201.497 150.13 201.404 150.26 201.291 150.341C201.178 150.423 201.086 150.553 201.086 150.63C201.086 150.708 200.947 150.9 200.778 151.058C200.608 151.216 200.469 151.4 200.469 151.468C200.469 151.535 200.331 151.719 200.161 151.877C199.991 152.035 199.853 152.219 199.853 152.287C199.853 152.354 199.714 152.538 199.544 152.696C199.375 152.854 199.236 153.047 199.236 153.124C199.236 153.202 199.144 153.332 199.031 153.413C198.918 153.494 198.825 153.624 198.825 153.702C198.825 153.779 198.686 153.972 198.517 154.129C198.347 154.287 198.209 154.472 198.209 154.539C198.209 154.606 198.07 154.791 197.9 154.948C197.731 155.106 197.592 155.299 197.592 155.376C197.592 155.454 197.5 155.584 197.387 155.665C197.273 155.746 197.181 155.876 197.181 155.954C197.181 156.031 197.042 156.224 196.873 156.382C196.703 156.54 196.564 156.724 196.564 156.791C196.564 156.859 196.426 157.043 196.256 157.201C196.087 157.359 195.948 157.543 195.948 157.61C195.948 157.678 195.809 157.862 195.64 158.02C195.47 158.178 195.331 158.37 195.331 158.448C195.331 158.525 195.239 158.655 195.126 158.736C195.013 158.818 194.92 158.948 194.92 159.025C194.92 159.103 194.782 159.295 194.612 159.453C194.442 159.611 194.304 159.795 194.304 159.863C194.304 159.93 194.165 160.114 193.995 160.272C193.826 160.43 193.687 160.623 193.687 160.7C193.687 160.778 193.595 160.908 193.482 160.989C193.369 161.07 193.276 161.2 193.276 161.277C193.276 161.355 193.137 161.548 192.968 161.705C192.798 161.863 192.66 162.056 192.66 162.133C192.66 162.211 192.567 162.341 192.454 162.422C192.341 162.503 192.248 162.633 192.248 162.711C192.248 162.788 192.11 162.981 191.94 163.139C191.771 163.296 191.632 163.489 191.632 163.567C191.632 163.644 191.539 163.774 191.426 163.855C191.313 163.937 191.221 164.066 191.221 164.144C191.221 164.222 191.082 164.414 190.913 164.572C190.743 164.73 190.604 164.922 190.604 165C190.604 165.078 190.512 165.207 190.399 165.289C190.286 165.37 190.193 165.5 190.193 165.577C190.193 165.655 190.055 165.848 189.885 166.005C189.715 166.163 189.577 166.356 189.577 166.433C189.577 166.511 189.484 166.641 189.371 166.722C189.258 166.803 189.166 166.941 189.166 167.029C189.166 167.117 189.073 167.255 188.96 167.336C188.847 167.417 188.755 167.547 188.755 167.625C188.755 167.702 188.616 167.895 188.446 168.053C188.277 168.211 188.138 168.403 188.138 168.481C188.138 168.558 188.046 168.688 187.933 168.769C187.819 168.851 187.727 168.989 187.727 169.077C187.727 169.164 187.635 169.303 187.521 169.384C187.408 169.465 187.316 169.603 187.316 169.691C187.316 169.779 187.223 169.917 187.11 169.998C186.997 170.079 186.905 170.217 186.905 170.305C186.905 170.393 186.812 170.531 186.699 170.612C186.586 170.693 186.494 170.832 186.494 170.919C186.494 171.007 186.401 171.145 186.288 171.227C186.175 171.308 186.083 171.446 186.083 171.534C186.083 171.621 185.99 171.76 185.877 171.841C185.764 171.922 185.672 172.06 185.672 172.148C185.672 172.236 185.579 172.374 185.466 172.455C185.353 172.536 185.261 172.674 185.261 172.762C185.261 172.85 185.168 172.988 185.055 173.069C184.942 173.151 184.85 173.289 184.85 173.376C184.85 173.464 184.757 173.602 184.644 173.684C184.531 173.765 184.439 173.913 184.439 174.013C184.439 174.114 184.392 174.196 184.336 174.196C184.279 174.196 184.233 174.288 184.233 174.4C184.233 174.513 184.187 174.605 184.13 174.605C184.074 174.605 184.028 174.697 184.028 174.81C184.028 174.922 183.981 175.015 183.925 175.015C183.868 175.015 183.822 175.107 183.822 175.219C183.822 175.332 183.776 175.424 183.719 175.424C183.663 175.424 183.617 175.516 183.617 175.629C183.617 175.741 183.57 175.834 183.514 175.834C183.457 175.834 183.411 175.972 183.411 176.141C183.411 176.31 183.365 176.448 183.308 176.448C183.252 176.448 183.206 176.678 183.206 176.96C183.206 177.241 183.159 177.472 183.103 177.472C183.046 177.472 183 177.745 183 178.086C183 178.427 183.046 178.7 183.103 178.7C183.159 178.7 183.206 178.93 183.206 179.212C183.206 179.494 183.252 179.724 183.308 179.724C183.365 179.724 183.411 179.816 183.411 179.929C183.411 180.041 183.457 180.133 183.514 180.133C183.57 180.133 183.617 180.215 183.617 180.316C183.617 180.416 183.709 180.564 183.822 180.645C183.935 180.726 184.028 180.853 184.028 180.926C184.028 181.1 185.113 182.181 185.287 182.181C185.361 182.181 185.488 182.273 185.569 182.386C185.651 182.498 185.799 182.59 185.9 182.59C186.001 182.59 186.083 182.637 186.083 182.693C186.083 182.749 186.175 182.795 186.288 182.795C186.401 182.795 186.494 182.841 186.494 182.898C186.494 182.955 186.768 183 187.11 183C187.453 183 187.727 182.955 187.727 182.898C187.727 182.841 187.8 182.795 187.888 182.795C188.096 182.795 188.344 182.549 188.344 182.342C188.344 182.253 188.39 182.181 188.446 182.181C188.504 182.181 188.549 181.89 188.549 181.512C188.549 180.885 188.527 180.821 188.193 180.488C187.997 180.293 187.766 180.133 187.679 180.133C187.592 180.133 187.521 180.087 187.521 180.031C187.521 179.975 187.429 179.929 187.316 179.929C187.203 179.929 187.11 179.883 187.11 179.826C187.11 179.77 187.04 179.724 186.954 179.724C186.685 179.724 185.672 178.634 185.672 178.344C185.672 178.202 185.626 178.086 185.569 178.086C185.51 178.086 185.466 177.779 185.466 177.369C185.466 176.96 185.51 176.653 185.569 176.653C185.626 176.653 185.672 176.468 185.672 176.243C185.672 176.018 185.718 175.834 185.775 175.834C185.831 175.834 185.877 175.741 185.877 175.629C185.877 175.516 185.924 175.424 185.98 175.424C186.037 175.424 186.083 175.286 186.083 175.117C186.083 174.948 186.129 174.81 186.186 174.81C186.242 174.81 186.288 174.718 186.288 174.605C186.288 174.492 186.335 174.4 186.391 174.4C186.448 174.4 186.494 174.308 186.494 174.196C186.494 174.083 186.54 173.991 186.597 173.991C186.653 173.991 186.699 173.899 186.699 173.786C186.699 173.673 186.746 173.581 186.802 173.581C186.859 173.581 186.905 173.489 186.905 173.376C186.905 173.264 186.951 173.172 187.008 173.172C187.064 173.172 187.11 173.09 187.11 172.99C187.11 172.889 187.203 172.741 187.316 172.66C187.429 172.579 187.521 172.43 187.521 172.33C187.521 172.23 187.568 172.148 187.624 172.148C187.681 172.148 187.727 172.056 187.727 171.943C187.727 171.831 187.773 171.738 187.83 171.738C187.886 171.738 187.933 171.656 187.933 171.556C187.933 171.456 188.025 171.308 188.138 171.227C188.251 171.145 188.344 170.997 188.344 170.897C188.344 170.797 188.39 170.715 188.446 170.715C188.503 170.715 188.549 170.633 188.549 170.533C188.549 170.432 188.642 170.284 188.755 170.203C188.868 170.122 188.96 169.983 188.96 169.896C188.96 169.808 189.053 169.67 189.166 169.589C189.279 169.507 189.371 169.369 189.371 169.281C189.371 169.194 189.464 169.055 189.577 168.974C189.69 168.893 189.782 168.755 189.782 168.667C189.782 168.579 189.875 168.441 189.988 168.36C190.101 168.279 190.193 168.141 190.193 168.053C190.193 167.965 190.286 167.827 190.399 167.746C190.512 167.665 190.604 167.526 190.604 167.439C190.604 167.351 190.697 167.213 190.81 167.131C190.923 167.05 191.015 166.912 191.015 166.824C191.015 166.737 191.108 166.598 191.221 166.517C191.334 166.436 191.426 166.298 191.426 166.21C191.426 166.122 191.519 165.984 191.632 165.903C191.745 165.822 191.837 165.684 191.837 165.596C191.837 165.508 191.93 165.37 192.043 165.289C192.156 165.207 192.248 165.069 192.248 164.982C192.248 164.894 192.341 164.756 192.454 164.674C192.567 164.593 192.66 164.455 192.66 164.367C192.66 164.28 192.752 164.141 192.865 164.06C192.978 163.979 193.071 163.841 193.071 163.753C193.071 163.665 193.163 163.527 193.276 163.446C193.389 163.365 193.482 163.235 193.482 163.157C193.482 163.08 193.62 162.887 193.79 162.729C193.959 162.571 194.098 162.379 194.098 162.301C194.098 162.224 194.191 162.094 194.304 162.013C194.417 161.931 194.509 161.793 194.509 161.705C194.509 161.618 194.602 161.479 194.715 161.398C194.828 161.317 194.92 161.187 194.92 161.11C194.92 161.032 195.059 160.839 195.229 160.682C195.398 160.524 195.537 160.331 195.537 160.254C195.537 160.176 195.629 160.046 195.742 159.965C195.855 159.884 195.948 159.754 195.948 159.676C195.948 159.599 196.087 159.406 196.256 159.248C196.426 159.091 196.564 158.898 196.564 158.82C196.564 158.743 196.657 158.613 196.77 158.532C196.883 158.451 196.975 158.321 196.975 158.243C196.975 158.166 197.114 157.973 197.284 157.815C197.453 157.657 197.592 157.473 197.592 157.406C197.592 157.338 197.731 157.154 197.9 156.996C198.07 156.838 198.209 156.646 198.209 156.568C198.209 156.49 198.301 156.361 198.414 156.279C198.527 156.198 198.62 156.068 198.62 155.991C198.62 155.913 198.758 155.721 198.928 155.563C199.097 155.405 199.236 155.221 199.236 155.153C199.236 155.086 199.375 154.901 199.544 154.744C199.714 154.586 199.853 154.402 199.853 154.334C199.853 154.267 199.991 154.082 200.161 153.925C200.331 153.767 200.469 153.574 200.469 153.497C200.469 153.419 200.562 153.289 200.675 153.208C200.788 153.127 200.88 152.997 200.88 152.919C200.88 152.842 201.019 152.649 201.189 152.491C201.358 152.334 201.497 152.149 201.497 152.082C201.497 152.014 201.636 151.83 201.805 151.672C201.975 151.515 202.113 151.322 202.113 151.244C202.113 151.167 202.206 151.037 202.319 150.956C202.432 150.875 202.525 150.745 202.525 150.667C202.525 150.59 202.663 150.397 202.833 150.239C203.002 150.081 203.141 149.897 203.141 149.83C203.141 149.762 203.28 149.578 203.449 149.42C203.619 149.262 203.758 149.078 203.758 149.011C203.758 148.943 203.896 148.759 204.066 148.601C204.236 148.443 204.374 148.251 204.374 148.173C204.374 148.096 204.467 147.966 204.58 147.884C204.693 147.803 204.785 147.673 204.785 147.596C204.785 147.518 204.924 147.326 205.094 147.168C205.263 147.01 205.402 146.826 205.402 146.758C205.402 146.691 205.541 146.507 205.71 146.349C205.88 146.191 206.018 146.007 206.018 145.939C206.018 145.872 206.157 145.687 206.327 145.53C206.496 145.372 206.635 145.179 206.635 145.102C206.635 145.024 206.727 144.894 206.84 144.813C206.954 144.732 207.046 144.602 207.046 144.524C207.046 144.447 207.185 144.254 207.354 144.096C207.524 143.939 207.663 143.754 207.663 143.687C207.663 143.619 207.801 143.435 207.971 143.277C208.14 143.12 208.279 142.927 208.279 142.849C208.279 142.772 208.372 142.642 208.485 142.561C208.598 142.48 208.69 142.35 208.69 142.272C208.69 142.195 208.829 142.002 208.998 141.844C209.168 141.686 209.307 141.502 209.307 141.435C209.307 141.367 209.445 141.183 209.615 141.025C209.785 140.867 209.923 140.683 209.923 140.616C209.923 140.548 210.062 140.364 210.232 140.206C210.401 140.048 210.54 139.856 210.54 139.778C210.54 139.701 210.632 139.571 210.745 139.489C210.858 139.408 210.951 139.278 210.951 139.201C210.951 139.123 211.09 138.931 211.259 138.773C211.429 138.615 211.567 138.431 211.567 138.363C211.567 138.296 211.706 138.112 211.876 137.954C212.045 137.796 212.184 137.603 212.184 137.526C212.184 137.448 212.277 137.318 212.39 137.237C212.503 137.156 212.595 137.026 212.595 136.948C212.595 136.871 212.734 136.678 212.903 136.52C213.073 136.363 213.212 136.178 213.212 136.111C213.212 136.043 213.35 135.859 213.52 135.701C213.689 135.544 213.828 135.351 213.828 135.274C213.828 135.196 213.921 135.066 214.034 134.985C214.147 134.904 214.239 134.774 214.239 134.696C214.239 134.619 214.378 134.426 214.548 134.268C214.717 134.11 214.856 133.926 214.856 133.859C214.856 133.791 214.995 133.607 215.164 133.449C215.334 133.291 215.472 133.099 215.472 133.021C215.472 132.944 215.565 132.814 215.678 132.732C215.791 132.651 215.883 132.521 215.883 132.444C215.883 132.366 216.022 132.174 216.192 132.016C216.361 131.858 216.5 131.674 216.5 131.606C216.5 131.539 216.639 131.355 216.808 131.197C216.978 131.039 217.117 130.846 217.117 130.769C217.117 130.691 217.209 130.561 217.322 130.48C217.435 130.399 217.528 130.269 217.528 130.191C217.528 130.114 217.666 129.921 217.836 129.764C218.005 129.606 218.144 129.421 218.144 129.354C218.144 129.287 218.283 129.102 218.452 128.945C218.622 128.787 218.761 128.594 218.761 128.517C218.761 128.439 218.853 128.309 218.966 128.228C219.079 128.147 219.172 128.017 219.172 127.939C219.172 127.862 219.311 127.669 219.48 127.511C219.65 127.353 219.788 127.169 219.788 127.102C219.788 127.034 219.927 126.85 220.097 126.692C220.266 126.534 220.405 126.342 220.405 126.264C220.405 126.187 220.497 126.057 220.61 125.976C220.723 125.894 220.816 125.764 220.816 125.687C220.816 125.609 220.955 125.417 221.124 125.259C221.294 125.101 221.433 124.917 221.433 124.849C221.433 124.782 221.571 124.598 221.741 124.44C221.91 124.282 222.049 124.089 222.049 124.012C222.049 123.934 222.142 123.804 222.255 123.723C222.368 123.642 222.46 123.512 222.46 123.435C222.46 123.357 222.599 123.164 222.768 123.007C222.938 122.849 223.077 122.665 223.077 122.597C223.077 122.53 223.215 122.345 223.385 122.188C223.555 122.03 223.693 121.846 223.693 121.778C223.693 121.711 223.832 121.526 224.002 121.369C224.171 121.211 224.31 121.018 224.31 120.941C224.31 120.863 224.402 120.733 224.515 120.652C224.628 120.571 224.721 120.441 224.721 120.363C224.721 120.286 224.86 120.093 225.029 119.935C225.199 119.778 225.337 119.593 225.337 119.526C225.337 119.458 225.476 119.274 225.646 119.116C225.815 118.958 225.954 118.766 225.954 118.688C225.954 118.611 226.046 118.481 226.16 118.4C226.273 118.318 226.365 118.189 226.365 118.111C226.365 118.033 226.504 117.841 226.673 117.683C226.843 117.525 226.982 117.341 226.982 117.273C226.982 117.206 227.12 117.022 227.29 116.864C227.459 116.706 227.598 116.522 227.598 116.454C227.598 116.387 227.737 116.203 227.906 116.045C228.076 115.887 228.215 115.694 228.215 115.617C228.215 115.539 228.307 115.409 228.42 115.328C228.533 115.247 228.626 115.117 228.626 115.04C228.626 114.962 228.764 114.769 228.934 114.612C229.104 114.454 229.242 114.27 229.242 114.202C229.242 114.135 229.381 113.95 229.551 113.793C229.72 113.635 229.859 113.451 229.859 113.383C229.859 113.316 229.998 113.131 230.167 112.974C230.337 112.816 230.475 112.623 230.475 112.546C230.475 112.468 230.568 112.338 230.681 112.257C230.794 112.176 230.887 112.046 230.887 111.968C230.887 111.891 231.025 111.698 231.195 111.54C231.364 111.383 231.503 111.198 231.503 111.131C231.503 111.063 231.642 110.879 231.811 110.721C231.981 110.564 232.12 110.379 232.12 110.312C232.12 110.244 232.258 110.06 232.428 109.902C232.597 109.744 232.736 109.56 232.736 109.493C232.736 109.425 232.875 109.241 233.044 109.083C233.214 108.925 233.353 108.741 233.353 108.674C233.353 108.606 233.491 108.422 233.661 108.264C233.831 108.106 233.969 107.922 233.969 107.855C233.969 107.787 234.108 107.603 234.278 107.445C234.447 107.287 234.586 107.095 234.586 107.017C234.586 106.94 234.678 106.81 234.791 106.729C234.904 106.647 234.997 106.517 234.997 106.44C234.997 106.362 235.136 106.17 235.305 106.012C235.475 105.854 235.613 105.67 235.613 105.602C235.613 105.535 235.752 105.351 235.922 105.193C236.091 105.035 236.23 104.851 236.23 104.783C236.23 104.716 236.369 104.532 236.538 104.374C236.708 104.216 236.847 104.032 236.847 103.964C236.847 103.897 236.985 103.713 237.155 103.555C237.324 103.397 237.463 103.213 237.463 103.145C237.463 103.078 237.602 102.894 237.771 102.736C237.941 102.578 238.08 102.394 238.08 102.326C238.08 102.259 238.218 102.075 238.388 101.917C238.558 101.759 238.696 101.575 238.696 101.507C238.696 101.44 238.835 101.256 239.005 101.098C239.174 100.94 239.313 100.756 239.313 100.688C239.313 100.621 239.452 100.436 239.621 100.279C239.791 100.121 239.929 99.9367 239.929 99.8692C239.929 99.8018 240.068 99.6175 240.238 99.4597C240.407 99.3019 240.546 99.1177 240.546 99.0502C240.546 98.9827 240.685 98.7985 240.854 98.6407C241.024 98.4829 241.163 98.2986 241.163 98.2312C241.163 98.1637 241.301 97.9794 241.471 97.8217C241.64 97.6639 241.779 97.4796 241.779 97.4122C241.779 97.3447 241.918 97.1604 242.087 97.0026C242.257 96.8449 242.396 96.6606 242.396 96.5931C242.396 96.5257 242.534 96.3414 242.704 96.1836C242.874 96.0259 243.012 95.8416 243.012 95.7741C243.012 95.7066 243.151 95.5224 243.321 95.3646C243.49 95.2068 243.629 95.0226 243.629 94.9551C243.629 94.8876 243.768 94.7033 243.937 94.5456C244.107 94.3878 244.245 94.2045 244.245 94.1381C244.245 94.0719 244.43 93.8406 244.656 93.6242C244.883 93.4077 245.067 93.1765 245.067 93.1102C245.067 93.0439 245.206 92.8605 245.376 92.7028C245.545 92.545 245.684 92.3607 245.684 92.2933C245.684 92.2258 245.823 92.0415 245.992 91.8838C246.162 91.726 246.301 91.5426 246.301 91.4763C246.301 91.4101 246.486 91.1788 246.712 90.9624C246.938 90.7459 247.123 90.5147 247.123 90.4484C247.123 90.3821 247.261 90.1987 247.431 90.041C247.601 89.8832 247.739 89.6998 247.739 89.6335C247.739 89.5673 247.924 89.336 248.15 89.1196C248.376 88.9031 248.561 88.6728 248.561 88.6077C248.561 88.5426 248.746 88.3122 248.972 88.0958C249.198 87.8793 249.383 87.649 249.383 87.5839C249.383 87.5188 249.568 87.2884 249.794 87.072C250.021 86.8556 250.206 86.6252 250.206 86.5601C250.206 86.495 250.39 86.2646 250.617 86.0482C250.843 85.8318 251.028 85.6014 251.028 85.5363C251.028 85.4712 251.213 85.2409 251.439 85.0244C251.665 84.808 251.85 84.5783 251.85 84.5139C251.85 84.4496 252.081 84.1726 252.363 83.8983C252.646 83.624 252.877 83.3481 252.877 83.285C252.877 83.2219 253.155 82.899 253.494 82.5674C253.833 82.2358 254.11 81.9139 254.11 81.8521C254.11 81.7902 254.48 81.375 254.933 80.9293C255.385 80.4837 255.755 80.0703 255.755 80.0107C255.755 79.9511 256.818 78.8442 258.118 77.5509C259.418 76.2575 260.482 75.1514 260.482 75.0927C260.482 74.8669 261.4 74.07 261.661 74.07C261.803 74.07 261.92 74.0239 261.92 73.9676C261.92 73.9113 262.059 73.8653 262.229 73.8653C262.398 73.8653 262.537 73.8192 262.537 73.7629C262.537 73.7066 262.676 73.6605 262.845 73.6605C263.015 73.6605 263.153 73.6144 263.153 73.5581C263.153 73.5018 263.338 73.4557 263.564 73.4557C263.79 73.4557 263.975 73.4097 263.975 73.3534C263.975 73.2971 264.114 73.251 264.284 73.251C264.453 73.251 264.592 73.2049 264.592 73.1486C264.592 73.0923 264.731 73.0462 264.9 73.0462C265.07 73.0462 265.209 73.0002 265.209 72.9439C265.209 72.8876 265.347 72.8415 265.517 72.8415C265.686 72.8415 265.825 72.7954 265.825 72.7391C265.825 72.6828 265.964 72.6367 266.133 72.6367C266.303 72.6367 266.442 72.5907 266.442 72.5343C266.442 72.478 266.58 72.432 266.75 72.432C266.92 72.432 267.058 72.3859 267.058 72.3296C267.058 72.2733 267.151 72.2272 267.264 72.2272C267.377 72.2272 267.469 72.1811 267.469 72.1248C267.469 72.0685 267.608 72.0225 267.778 72.0225C267.947 72.0225 268.086 71.9764 268.086 71.9201C268.086 71.8638 268.225 71.8177 268.394 71.8177C268.564 71.8177 268.702 71.7716 268.702 71.7153C268.702 71.659 268.795 71.6129 268.908 71.6129C269.021 71.6129 269.113 71.5669 269.113 71.5106C269.113 71.4543 269.252 71.4082 269.422 71.4082C269.591 71.4082 269.73 71.3621 269.73 71.3058C269.73 71.2495 269.823 71.2034 269.936 71.2034C270.049 71.2034 270.141 71.1574 270.141 71.1011C270.141 71.0448 270.28 70.9987 270.449 70.9987C270.619 70.9987 270.758 70.9526 270.758 70.8963C270.758 70.84 270.85 70.7939 270.963 70.7939C271.076 70.7939 271.169 70.7479 271.169 70.6915C271.169 70.6352 271.307 70.5892 271.477 70.5892C271.647 70.5892 271.785 70.5431 271.785 70.4868C271.785 70.4305 271.878 70.3844 271.991 70.3844C272.104 70.3844 272.196 70.3383 272.196 70.282C272.196 70.2257 272.335 70.1797 272.505 70.1797C272.674 70.1797 272.813 70.1336 272.813 70.0773C272.813 70.021 272.905 69.9749 273.018 69.9749C273.131 69.9749 273.224 69.9288 273.224 69.8725C273.224 69.8162 273.316 69.7701 273.429 69.7701C273.542 69.7701 273.635 69.7241 273.635 69.6678C273.635 69.6115 273.774 69.5654 273.943 69.5654C274.113 69.5654 274.252 69.5193 274.252 69.463C274.252 69.4067 274.344 69.3606 274.457 69.3606C274.57 69.3606 274.663 69.3146 274.663 69.2583C274.663 69.2019 274.755 69.1559 274.868 69.1559C274.981 69.1559 275.074 69.1098 275.074 69.0535C275.074 68.9972 275.166 68.9511 275.279 68.9511C275.392 68.9511 275.485 68.9051 275.485 68.8487C275.485 68.7924 275.577 68.7464 275.69 68.7464C275.803 68.7464 275.896 68.7003 275.896 68.644C275.896 68.5877 276.034 68.5416 276.204 68.5416C276.374 68.5416 276.512 68.4955 276.512 68.4392C276.512 68.3829 276.605 68.3369 276.718 68.3369C276.831 68.3369 276.923 68.2908 276.923 68.2345C276.923 68.1782 277.016 68.1321 277.129 68.1321C277.242 68.1321 277.334 68.086 277.334 68.0297C277.334 67.9734 277.427 67.9273 277.54 67.9273C277.653 67.9273 277.745 67.8813 277.745 67.825C277.745 67.7687 277.838 67.7226 277.951 67.7226C278.064 67.7226 278.156 67.6765 278.156 67.6202C278.156 67.5639 278.249 67.5178 278.362 67.5178C278.475 67.5178 278.567 67.4718 278.567 67.4155C278.567 67.3591 278.66 67.3131 278.773 67.3131C278.886 67.3131 278.979 67.267 278.979 67.2107C278.979 67.1544 279.071 67.1083 279.184 67.1083C279.297 67.1083 279.39 67.0623 279.39 67.0059C279.39 66.9496 279.482 66.9036 279.595 66.9036C279.708 66.9036 279.801 66.8575 279.801 66.8012C279.801 66.7449 279.893 66.6988 280.006 66.6988C280.119 66.6988 280.212 66.6527 280.212 66.5964C280.212 66.5401 280.304 66.4941 280.417 66.4941C280.53 66.4941 280.623 66.448 280.623 66.3917C280.623 66.3354 280.705 66.2893 280.806 66.2893C280.906 66.2893 281.055 66.1972 281.137 66.0845C281.218 65.9719 281.367 65.8798 281.467 65.8798C281.568 65.8798 281.65 65.8337 281.65 65.7774C281.65 65.7211 281.743 65.675 281.856 65.675C281.969 65.675 282.061 65.629 282.061 65.5727C282.061 65.5163 282.154 65.4703 282.267 65.4703C282.38 65.4703 282.472 65.4242 282.472 65.3679C282.472 65.3116 282.565 65.2655 282.678 65.2655C282.791 65.2655 282.883 65.2195 282.883 65.1631C282.883 65.1068 282.966 65.0608 283.066 65.0608C283.167 65.0608 283.316 64.9686 283.397 64.856C283.479 64.7434 283.628 64.6513 283.728 64.6513C283.829 64.6513 283.911 64.6052 283.911 64.5489C283.911 64.4926 283.993 64.4465 284.094 64.4465C284.194 64.4465 284.343 64.3544 284.425 64.2417C284.506 64.1291 284.655 64.037 284.756 64.037C284.856 64.037 284.939 63.9909 284.939 63.9346C284.939 63.8783 285.031 63.8322 285.144 63.8322C285.257 63.8322 285.35 63.7862 285.35 63.7299C285.35 63.6735 285.432 63.6275 285.533 63.6275C285.633 63.6275 285.782 63.5353 285.864 63.4227C285.945 63.3101 286.084 63.218 286.172 63.218C286.26 63.218 286.399 63.1258 286.48 63.0132C286.562 62.9006 286.71 62.8085 286.811 62.8085C286.912 62.8085 286.994 62.7624 286.994 62.7061C286.994 62.6498 287.076 62.6037 287.177 62.6037C287.277 62.6037 287.426 62.5116 287.508 62.3989C287.589 62.2863 287.728 62.1942 287.816 62.1942C287.904 62.1942 288.043 62.102 288.124 61.9894C288.206 61.8768 288.344 61.7847 288.433 61.7847C288.521 61.7847 288.659 61.6925 288.741 61.5799C288.822 61.4673 288.961 61.3752 289.049 61.3752C289.137 61.3752 289.276 61.283 289.357 61.1704C289.439 61.0578 289.578 60.9657 289.666 60.9657C289.754 60.9657 289.892 60.8735 289.974 60.7609C290.055 60.6483 290.194 60.5561 290.282 60.5561C290.37 60.5561 290.509 60.464 290.59 60.3514C290.672 60.2388 290.811 60.1466 290.899 60.1466C290.987 60.1466 291.126 60.0545 291.207 59.9419C291.289 59.8293 291.419 59.7371 291.497 59.7371C291.575 59.7371 291.768 59.5989 291.926 59.43C292.085 59.2611 292.27 59.1229 292.337 59.1229C292.405 59.1229 292.59 58.9846 292.748 58.8157C292.907 58.6468 293.092 58.5086 293.16 58.5086C293.227 58.5086 293.412 58.3704 293.571 58.2015C293.729 58.0325 293.913 57.8943 293.98 57.8943C294.046 57.8943 294.278 57.71 294.495 57.4848C294.713 57.2596 294.945 57.0753 295.011 57.0753C295.078 57.0753 295.262 56.9371 295.42 56.7682C295.579 56.5992 295.762 56.461 295.827 56.461C295.892 56.461 296.218 56.1846 296.551 55.8468C296.883 55.5089 297.207 55.2325 297.269 55.2325C297.332 55.2325 297.702 54.91 298.092 54.5159C298.482 54.1217 298.85 53.7992 298.909 53.7992C299.05 53.7992 306.107 46.7694 306.107 46.6296C306.107 46.5711 306.57 46.0658 307.135 45.5066C307.7 44.9474 308.163 44.44 308.163 44.3791C308.163 44.3181 308.486 43.9502 308.882 43.5614C309.278 43.1727 309.601 42.8034 309.601 42.7407C309.601 42.678 309.832 42.4024 310.115 42.1281C310.398 41.8539 310.629 41.5768 310.629 41.5125C310.629 41.4481 310.814 41.2184 311.04 41.002C311.266 40.7856 311.451 40.5552 311.451 40.4901C311.451 40.425 311.636 40.1946 311.862 39.9782C312.088 39.7618 312.273 39.5305 312.273 39.4643C312.273 39.3979 312.412 39.2146 312.581 39.0568C312.751 38.899 312.89 38.7148 312.89 38.6473C312.89 38.5798 313.028 38.3955 313.198 38.2378C313.367 38.08 313.506 37.8873 313.506 37.8098C313.506 37.7322 313.599 37.6023 313.712 37.5211C313.825 37.44 313.917 37.3017 313.917 37.214C313.917 37.1263 314.01 36.9881 314.123 36.9069C314.236 36.8257 314.328 36.6875 314.328 36.5997C314.328 36.512 314.421 36.3738 314.534 36.2926C314.647 36.2114 314.739 36.0732 314.739 35.9855C314.739 35.8977 314.832 35.7595 314.945 35.6783C315.058 35.5972 315.15 35.4488 315.15 35.3486C315.15 35.2485 315.197 35.1664 315.253 35.1664C315.31 35.1664 315.356 35.0844 315.356 34.9843C315.356 34.8841 315.448 34.7357 315.561 34.6546C315.674 34.5734 315.767 34.425 315.767 34.3248C315.767 34.2247 315.813 34.1427 315.87 34.1427C315.926 34.1427 315.972 34.0505 315.972 33.9379C315.972 33.8253 316.019 33.7332 316.075 33.7332C316.132 33.7332 316.178 33.641 316.178 33.5284C316.178 33.4158 316.224 33.3236 316.281 33.3236C316.337 33.3236 316.383 33.1854 316.383 33.0165C316.383 32.8476 316.43 32.7094 316.486 32.7094C316.543 32.7094 316.589 32.6172 316.589 32.5046C316.589 32.392 316.635 32.2999 316.692 32.2999C316.748 32.2999 316.794 32.1156 316.794 31.8904C316.794 31.6651 316.841 31.4808 316.897 31.4808C316.958 31.4808 317 31.1054 317 30.5594C317 30.0135 316.958 29.638 316.897 29.638C316.841 29.638 316.794 29.5459 316.794 29.4333C316.794 29.3207 316.748 29.2285 316.692 29.2285C316.635 29.2285 316.589 29.1574 316.589 29.0704C316.589 28.8655 316.131 28.4095 315.926 28.4095C315.838 28.4095 315.767 28.3634 315.767 28.3071C315.767 28.2508 315.674 28.2048 315.561 28.2048C315.448 28.2048 315.356 28.1587 315.356 28.1024C315.356 28.0387 314.773 28 313.814 28C312.855 28 312.273 28.0387 312.273 28.1024ZM314.328 30.3547C314.328 30.411 314.421 30.4571 314.534 30.4571C314.694 30.4571 314.739 30.5254 314.739 30.7642C314.739 30.9331 314.693 31.0713 314.637 31.0713C314.58 31.0713 314.534 31.2095 314.534 31.3785C314.534 31.5474 314.488 31.6856 314.431 31.6856C314.374 31.6856 314.328 31.8238 314.328 31.9927C314.328 32.1617 314.282 32.2999 314.225 32.2999C314.169 32.2999 314.123 32.392 314.123 32.5046C314.123 32.6172 314.076 32.7094 314.02 32.7094C313.963 32.7094 313.917 32.8015 313.917 32.9141C313.917 33.0268 313.871 33.1189 313.814 33.1189C313.758 33.1189 313.712 33.211 313.712 33.3236C313.712 33.4363 313.665 33.5284 313.609 33.5284C313.552 33.5284 313.506 33.6104 313.506 33.7105C313.506 33.8108 313.414 33.9591 313.301 34.0403C313.188 34.1215 313.095 34.2698 313.095 34.37C313.095 34.4702 313.049 34.5522 312.992 34.5522C312.936 34.5522 312.89 34.6342 312.89 34.7343C312.89 34.8345 312.797 34.9829 312.684 35.0641C312.571 35.1453 312.479 35.2835 312.479 35.3712C312.479 35.4589 312.386 35.5972 312.273 35.6783C312.16 35.7595 312.067 35.8977 312.067 35.9855C312.067 36.0732 311.975 36.2114 311.862 36.2926C311.749 36.3738 311.656 36.5037 311.656 36.5813C311.656 36.6588 311.518 36.8515 311.348 37.0092C311.179 37.167 311.04 37.3597 311.04 37.4372C311.04 37.5148 310.947 37.6447 310.834 37.7259C310.721 37.8071 310.629 37.937 310.629 38.0146C310.629 38.0921 310.49 38.2848 310.321 38.4425C310.151 38.6003 310.012 38.7837 310.012 38.85C310.012 38.9162 309.827 39.1475 309.601 39.3639C309.375 39.5804 309.19 39.8107 309.19 39.8758C309.19 39.9409 309.005 40.1713 308.779 40.3877C308.553 40.6041 308.368 40.8339 308.368 40.8983C308.368 40.9626 308.137 41.2396 307.854 41.5139C307.572 41.7881 307.34 42.0637 307.34 42.1264C307.34 42.1892 307.017 42.5584 306.621 42.9472C306.226 43.3359 305.902 43.7032 305.902 43.7635C305.902 43.8238 305.162 44.6082 304.258 45.5066C303.353 46.405 302.614 47.1904 302.614 47.252C302.614 47.3964 302.353 47.6565 302.208 47.6565C302.147 47.6565 301.034 48.7161 299.736 50.0112C298.438 51.3063 297.326 52.3659 297.266 52.3659C297.205 52.3659 296.883 52.6423 296.551 52.9802C296.218 53.318 295.894 53.5945 295.83 53.5945C295.767 53.5945 295.49 53.8248 295.215 54.1063C294.939 54.3879 294.66 54.6182 294.595 54.6182C294.529 54.6182 294.345 54.7564 294.187 54.9254C294.029 55.0943 293.845 55.2325 293.778 55.2325C293.712 55.2325 293.48 55.4168 293.262 55.642C293.045 55.8672 292.813 56.0515 292.746 56.0515C292.68 56.0515 292.496 56.1897 292.337 56.3587C292.179 56.5276 291.986 56.6658 291.908 56.6658C291.83 56.6658 291.7 56.7579 291.618 56.8705C291.537 56.9832 291.406 57.0753 291.328 57.0753C291.251 57.0753 291.057 57.2135 290.899 57.3824C290.74 57.5514 290.547 57.6896 290.469 57.6896C290.391 57.6896 290.261 57.7817 290.179 57.8943C290.098 58.0069 289.959 58.0991 289.871 58.0991C289.783 58.0991 289.644 58.1912 289.563 58.3038C289.481 58.4164 289.343 58.5086 289.255 58.5086C289.167 58.5086 289.028 58.6007 288.946 58.7133C288.865 58.826 288.726 58.9181 288.638 58.9181C288.55 58.9181 288.411 59.0102 288.33 59.1229C288.248 59.2355 288.11 59.3276 288.021 59.3276C287.933 59.3276 287.795 59.4197 287.713 59.5324C287.632 59.645 287.493 59.7371 287.405 59.7371C287.317 59.7371 287.178 59.8293 287.097 59.9419C287.015 60.0545 286.866 60.1466 286.766 60.1466C286.665 60.1466 286.583 60.1927 286.583 60.249C286.583 60.3053 286.501 60.3514 286.4 60.3514C286.299 60.3514 286.151 60.4435 286.069 60.5561C285.988 60.6688 285.849 60.7609 285.761 60.7609C285.673 60.7609 285.534 60.853 285.452 60.9657C285.371 61.0783 285.222 61.1704 285.121 61.1704C285.021 61.1704 284.939 61.2165 284.939 61.2728C284.939 61.3291 284.856 61.3752 284.756 61.3752C284.655 61.3752 284.506 61.4673 284.425 61.5799C284.343 61.6925 284.194 61.7847 284.094 61.7847C283.993 61.7847 283.911 61.8307 283.911 61.8871C283.911 61.9434 283.819 61.9894 283.706 61.9894C283.592 61.9894 283.5 62.0355 283.5 62.0918C283.5 62.1481 283.418 62.1942 283.317 62.1942C283.217 62.1942 283.068 62.2863 282.986 62.3989C282.905 62.5116 282.756 62.6037 282.655 62.6037C282.555 62.6037 282.472 62.6498 282.472 62.7061C282.472 62.7624 282.38 62.8085 282.267 62.8085C282.154 62.8085 282.061 62.8545 282.061 62.9108C282.061 62.9671 281.969 63.0132 281.856 63.0132C281.743 63.0132 281.65 63.0593 281.65 63.1156C281.65 63.1719 281.558 63.218 281.445 63.218C281.332 63.218 281.239 63.264 281.239 63.3203C281.239 63.3767 281.157 63.4227 281.056 63.4227C280.956 63.4227 280.807 63.5149 280.725 63.6275C280.644 63.7401 280.495 63.8322 280.394 63.8322C280.294 63.8322 280.212 63.8783 280.212 63.9346C280.212 63.9909 280.119 64.037 280.006 64.037C279.893 64.037 279.801 64.0831 279.801 64.1394C279.801 64.1957 279.708 64.2417 279.595 64.2417C279.482 64.2417 279.39 64.2878 279.39 64.3441C279.39 64.4004 279.297 64.4465 279.184 64.4465C279.071 64.4465 278.979 64.4926 278.979 64.5489C278.979 64.6052 278.886 64.6513 278.773 64.6513C278.66 64.6513 278.567 64.6973 278.567 64.7536C278.567 64.8099 278.475 64.856 278.362 64.856C278.249 64.856 278.156 64.9021 278.156 64.9584C278.156 65.0147 278.064 65.0608 277.951 65.0608C277.838 65.0608 277.745 65.1068 277.745 65.1631C277.745 65.2195 277.653 65.2655 277.54 65.2655C277.427 65.2655 277.334 65.3116 277.334 65.3679C277.334 65.4242 277.242 65.4703 277.129 65.4703C277.016 65.4703 276.923 65.5163 276.923 65.5727C276.923 65.629 276.785 65.675 276.615 65.675C276.445 65.675 276.307 65.7211 276.307 65.7774C276.307 65.8337 276.214 65.8798 276.101 65.8798C275.988 65.8798 275.896 65.9259 275.896 65.9822C275.896 66.0385 275.803 66.0845 275.69 66.0845C275.577 66.0845 275.485 66.1306 275.485 66.1869C275.485 66.2432 275.392 66.2893 275.279 66.2893C275.166 66.2893 275.074 66.3354 275.074 66.3917C275.074 66.448 274.981 66.4941 274.868 66.4941C274.755 66.4941 274.663 66.5401 274.663 66.5964C274.663 66.6527 274.524 66.6988 274.354 66.6988C274.185 66.6988 274.046 66.7449 274.046 66.8012C274.046 66.8575 273.954 66.9036 273.84 66.9036C273.727 66.9036 273.635 66.9496 273.635 67.0059C273.635 67.0623 273.542 67.1083 273.429 67.1083C273.316 67.1083 273.224 67.1544 273.224 67.2107C273.224 67.267 273.085 67.3131 272.916 67.3131C272.746 67.3131 272.607 67.3591 272.607 67.4155C272.607 67.4718 272.515 67.5178 272.402 67.5178C272.289 67.5178 272.196 67.5639 272.196 67.6202C272.196 67.6765 272.058 67.7226 271.888 67.7226C271.718 67.7226 271.58 67.7687 271.58 67.825C271.58 67.8813 271.487 67.9273 271.374 67.9273C271.261 67.9273 271.169 67.9734 271.169 68.0297C271.169 68.086 271.03 68.1321 270.86 68.1321C270.691 68.1321 270.552 68.1782 270.552 68.2345C270.552 68.2908 270.46 68.3369 270.347 68.3369C270.234 68.3369 270.141 68.3829 270.141 68.4392C270.141 68.4955 270.002 68.5416 269.833 68.5416C269.663 68.5416 269.525 68.5877 269.525 68.644C269.525 68.7003 269.386 68.7464 269.216 68.7464C269.047 68.7464 268.908 68.7924 268.908 68.8487C268.908 68.9051 268.815 68.9511 268.702 68.9511C268.589 68.9511 268.497 68.9972 268.497 69.0535C268.497 69.1098 268.358 69.1559 268.189 69.1559C268.019 69.1559 267.88 69.2019 267.88 69.2583C267.88 69.3146 267.742 69.3606 267.572 69.3606C267.403 69.3606 267.264 69.4067 267.264 69.463C267.264 69.5193 267.125 69.5654 266.956 69.5654C266.786 69.5654 266.647 69.6115 266.647 69.6678C266.647 69.7241 266.509 69.7701 266.339 69.7701C266.169 69.7701 266.031 69.8162 266.031 69.8725C266.031 69.9288 265.938 69.9749 265.825 69.9749C265.712 69.9749 265.62 69.9489 265.62 69.9171C265.62 69.8852 265.851 69.6349 266.133 69.3606C266.416 69.0864 266.647 68.8124 266.647 68.7518C266.647 68.6912 268.127 67.1684 269.936 65.3679C271.744 63.5674 273.224 62.0475 273.224 61.9904C273.224 61.8537 283.982 51.1374 284.119 51.1374C284.177 51.1374 284.824 50.5385 285.555 49.8065C286.287 49.0745 286.935 48.4756 286.995 48.4756C287.055 48.4756 287.563 48.0149 288.124 47.4518C288.686 46.8887 289.195 46.428 289.256 46.428C289.317 46.428 289.687 46.1055 290.077 45.7114C290.467 45.3172 290.837 44.9947 290.899 44.9947C290.962 44.9947 291.285 44.7183 291.618 44.3804C291.951 44.0426 292.275 43.7662 292.338 43.7662C292.402 43.7662 292.679 43.5358 292.954 43.2543C293.229 42.9728 293.507 42.7424 293.572 42.7424C293.637 42.7424 293.867 42.5581 294.084 42.3329C294.302 42.1077 294.533 41.9234 294.598 41.9234C294.664 41.9234 294.895 41.7391 295.112 41.5139C295.329 41.2886 295.56 41.1044 295.626 41.1044C295.691 41.1044 295.922 40.9201 296.14 40.6948C296.357 40.4696 296.589 40.2853 296.655 40.2853C296.722 40.2853 296.906 40.1471 297.064 39.9782C297.223 39.8093 297.408 39.6711 297.475 39.6711C297.543 39.6711 297.728 39.5329 297.887 39.3639C298.045 39.195 298.238 39.0568 298.316 39.0568C298.394 39.0568 298.524 38.9647 298.606 38.852C298.687 38.7394 298.818 38.6473 298.896 38.6473C298.973 38.6473 299.167 38.5091 299.325 38.3402C299.484 38.1712 299.677 38.033 299.755 38.033C299.833 38.033 299.963 37.9409 300.044 37.8283C300.126 37.7157 300.265 37.6235 300.353 37.6235C300.441 37.6235 300.58 37.5314 300.661 37.4188C300.743 37.3061 300.881 37.214 300.969 37.214C301.057 37.214 301.196 37.1219 301.278 37.0092C301.359 36.8966 301.489 36.8045 301.567 36.8045C301.645 36.8045 301.839 36.6663 301.997 36.4974C302.155 36.3284 302.349 36.1902 302.426 36.1902C302.504 36.1902 302.635 36.0981 302.716 35.9855C302.798 35.8729 302.936 35.7807 303.025 35.7807C303.113 35.7807 303.251 35.6886 303.333 35.576C303.414 35.4633 303.563 35.3712 303.664 35.3712C303.764 35.3712 303.847 35.3251 303.847 35.2688C303.847 35.2125 303.929 35.1664 304.029 35.1664C304.13 35.1664 304.279 35.0743 304.36 34.9617C304.442 34.8491 304.581 34.7569 304.669 34.7569C304.757 34.7569 304.896 34.6648 304.977 34.5522C305.058 34.4396 305.197 34.3474 305.285 34.3474C305.373 34.3474 305.512 34.2553 305.594 34.1427C305.675 34.0301 305.824 33.9379 305.925 33.9379C306.025 33.9379 306.107 33.8918 306.107 33.8355C306.107 33.7792 306.19 33.7332 306.29 33.7332C306.391 33.7332 306.54 33.641 306.621 33.5284C306.703 33.4158 306.852 33.3236 306.952 33.3236C307.053 33.3236 307.135 33.2776 307.135 33.2213C307.135 33.165 307.217 33.1189 307.318 33.1189C307.418 33.1189 307.567 33.0268 307.649 32.9141C307.73 32.8015 307.879 32.7094 307.98 32.7094C308.08 32.7094 308.163 32.6633 308.163 32.607C308.163 32.5507 308.255 32.5046 308.368 32.5046C308.481 32.5046 308.574 32.4586 308.574 32.4022C308.574 32.3459 308.666 32.2999 308.779 32.2999C308.892 32.2999 308.985 32.2538 308.985 32.1975C308.985 32.1412 309.077 32.0951 309.19 32.0951C309.303 32.0951 309.396 32.049 309.396 31.9927C309.396 31.9364 309.478 31.8904 309.579 31.8904C309.679 31.8904 309.828 31.7982 309.91 31.6856C309.997 31.5654 310.176 31.4808 310.343 31.4808C310.5 31.4808 310.629 31.4348 310.629 31.3785C310.629 31.3222 310.721 31.2761 310.834 31.2761C310.947 31.2761 311.04 31.23 311.04 31.1737C311.04 31.1174 311.132 31.0713 311.245 31.0713C311.358 31.0713 311.451 31.0253 311.451 30.969C311.451 30.9126 311.59 30.8666 311.759 30.8666C311.929 30.8666 312.067 30.8205 312.067 30.7642C312.067 30.7079 312.252 30.6618 312.479 30.6618C312.705 30.6618 312.89 30.6158 312.89 30.5594C312.89 30.5025 313.164 30.4571 313.506 30.4571C313.849 30.4571 314.123 30.4116 314.123 30.3547C314.123 30.2984 314.169 30.2523 314.225 30.2523C314.282 30.2523 314.328 30.2984 314.328 30.3547Z" fill="black"/>
<path d="M47.224 102.044C48.472 102.044 49.468 102.164 50.212 102.404C50.956 102.644 51.712 102.992 52.48 103.448C52.744 103.592 52.972 103.712 53.164 103.808C53.38 103.904 53.56 103.952 53.704 103.952C53.92 103.952 54.088 103.832 54.208 103.592C54.328 103.328 54.424 102.92 54.496 102.368H55.324C55.204 103.976 55.144 106.712 55.144 110.576H54.316C54.22 109.28 53.92 108.044 53.416 106.868C52.936 105.692 52.24 104.744 51.328 104.024C50.44 103.28 49.396 102.908 48.196 102.908C47.02 102.908 46.06 103.244 45.316 103.916C44.596 104.564 44.236 105.452 44.236 106.58C44.236 107.42 44.416 108.152 44.776 108.776C45.136 109.4 45.64 109.976 46.288 110.504C46.936 111.008 47.932 111.704 49.276 112.592L50.428 113.384C51.844 114.32 52.96 115.136 53.776 115.832C54.592 116.528 55.252 117.344 55.756 118.28C56.284 119.192 56.548 120.26 56.548 121.484C56.548 123.02 56.152 124.316 55.36 125.372C54.568 126.404 53.488 127.184 52.12 127.712C50.776 128.24 49.276 128.504 47.62 128.504C46.276 128.504 45.16 128.384 44.272 128.144C43.384 127.904 42.568 127.58 41.824 127.172C41.296 126.836 40.888 126.668 40.6 126.668C40.384 126.668 40.216 126.8 40.096 127.064C39.976 127.304 39.88 127.7 39.808 128.252H38.98C39.076 126.74 39.124 123.5 39.124 118.532H39.952C40.12 121.22 40.72 123.404 41.752 125.084C42.784 126.74 44.368 127.568 46.504 127.568C47.8 127.568 48.868 127.22 49.708 126.524C50.548 125.828 50.968 124.832 50.968 123.536C50.968 122.192 50.536 121.04 49.672 120.08C48.808 119.12 47.44 118.04 45.568 116.84C44.128 115.904 42.976 115.088 42.112 114.392C41.248 113.696 40.54 112.88 39.988 111.944C39.436 110.984 39.16 109.88 39.16 108.632C39.16 107.192 39.52 105.98 40.24 104.996C40.984 103.988 41.968 103.244 43.192 102.764C44.416 102.284 45.76 102.044 47.224 102.044ZM66.1954 109.388H70.4434V110.108H66.1954V124.652C66.1954 125.372 66.3154 125.888 66.5554 126.2C66.8194 126.488 67.2274 126.632 67.7794 126.632C68.8114 126.632 69.6274 125.912 70.2274 124.472L70.8394 124.796C69.9274 127.268 68.2834 128.504 65.9074 128.504C64.3234 128.504 63.1234 128.096 62.3074 127.28C61.8034 126.776 61.4554 126.152 61.2634 125.408C61.0954 124.64 61.0114 123.596 61.0114 122.276V110.108H57.9874V109.388H61.0114V104.636C63.0034 104.636 64.7314 104.252 66.1954 103.484V109.388ZM81.9871 125.552C83.9551 125.552 85.5391 124.592 86.7391 122.672L87.3871 122.888C86.9071 124.448 86.0431 125.78 84.7951 126.884C83.5711 127.964 82.0351 128.504 80.1871 128.504C77.6431 128.504 75.6151 127.7 74.1031 126.092C72.6151 124.46 71.8711 122.06 71.8711 118.892C71.8711 115.652 72.6751 113.18 74.2831 111.476C75.8911 109.748 78.0271 108.884 80.6911 108.884C85.2031 108.884 87.4591 111.548 87.4591 116.876H77.3431C77.3191 117.236 77.3071 117.8 77.3071 118.568C77.3071 120.152 77.5231 121.472 77.9551 122.528C78.4111 123.584 78.9871 124.352 79.6831 124.832C80.4031 125.312 81.1711 125.552 81.9871 125.552ZM80.4751 109.64C79.6111 109.64 78.8911 110.18 78.3151 111.26C77.7631 112.316 77.4151 113.96 77.2711 116.192H82.9231C82.9711 114.296 82.7791 112.736 82.3471 111.512C81.9391 110.264 81.3151 109.64 80.4751 109.64ZM102.468 108.884C103.716 108.884 104.82 109.22 105.78 109.892C106.764 110.564 107.532 111.572 108.084 112.916C108.636 114.26 108.912 115.904 108.912 117.848C108.912 121.28 108.156 123.92 106.644 125.768C105.156 127.592 103.128 128.504 100.56 128.504C99.8397 128.504 99.1557 128.408 98.5077 128.216C97.8837 128.024 97.3437 127.736 96.8877 127.352V130.952C96.8877 132.008 97.1517 132.74 97.6797 133.148C98.2077 133.556 99.0237 133.76 100.128 133.76V134.516L99.1557 134.48C96.4917 134.408 94.7997 134.372 94.0797 134.372C93.3597 134.372 91.8477 134.42 89.5437 134.516V133.76C90.3357 133.76 90.8877 133.58 91.1997 133.22C91.5357 132.884 91.7037 132.248 91.7037 131.312V113.312C91.7037 112.208 91.5237 111.404 91.1637 110.9C90.8277 110.396 90.2397 110.144 89.3997 110.144V109.388C90.1677 109.46 90.9117 109.496 91.6317 109.496C93.7197 109.496 95.4717 109.328 96.8877 108.992V112.304C97.3917 111.2 98.1237 110.36 99.0837 109.784C100.044 109.184 101.172 108.884 102.468 108.884ZM99.1557 127.532C100.692 127.532 101.796 126.776 102.468 125.264C103.14 123.728 103.476 121.496 103.476 118.568C103.476 115.64 103.2 113.552 102.648 112.304C102.12 111.056 101.352 110.432 100.344 110.432C99.5277 110.432 98.7957 110.708 98.1477 111.26C97.5237 111.812 97.1037 112.58 96.8877 113.564V126.56C97.4637 127.208 98.2197 127.532 99.1557 127.532ZM118.438 112.232C119.518 110 121.474 108.884 124.306 108.884C126.178 108.884 127.498 109.352 128.266 110.288C128.674 110.744 128.962 111.344 129.13 112.088C129.322 112.808 129.418 113.768 129.418 114.968V124.652C129.418 125.636 129.586 126.32 129.922 126.704C130.258 127.064 130.858 127.244 131.722 127.244V128C129.226 127.904 127.642 127.856 126.97 127.856C126.154 127.856 124.594 127.904 122.29 128V127.244C123.01 127.244 123.514 127.064 123.802 126.704C124.09 126.32 124.234 125.636 124.234 124.652V113.456C124.234 112.472 124.066 111.728 123.73 111.224C123.418 110.72 122.842 110.468 122.002 110.468C120.994 110.468 120.142 110.864 119.446 111.656C118.774 112.424 118.438 113.408 118.438 114.608V124.652C118.438 125.636 118.582 126.32 118.87 126.704C119.158 127.064 119.662 127.244 120.382 127.244V128C118.078 127.904 116.59 127.856 115.918 127.856C115.102 127.856 113.446 127.904 110.95 128V127.244C111.79 127.244 112.378 127.064 112.714 126.704C113.074 126.32 113.254 125.636 113.254 124.652V104.168C113.254 103.064 113.074 102.26 112.714 101.756C112.378 101.252 111.79 101 110.95 101V100.244C111.718 100.316 112.462 100.352 113.182 100.352C115.27 100.352 117.022 100.184 118.438 99.848V112.232ZM137.784 128.252C136.248 128.252 135.096 127.856 134.328 127.064C133.584 126.272 133.212 125.228 133.212 123.932C133.212 122.852 133.488 121.964 134.04 121.268C134.616 120.548 135.3 119.996 136.092 119.612C136.908 119.228 137.94 118.82 139.188 118.388C140.508 117.932 141.468 117.524 142.068 117.164C142.692 116.78 143.004 116.264 143.004 115.616V112.808C143.004 111.8 142.764 111.02 142.284 110.468C141.828 109.892 141.108 109.604 140.124 109.604C138.972 109.604 138.096 109.892 137.496 110.468C138.168 110.708 138.684 111.068 139.044 111.548C139.428 112.028 139.62 112.592 139.62 113.24C139.62 114.056 139.344 114.704 138.792 115.184C138.24 115.664 137.568 115.904 136.776 115.904C135.936 115.904 135.288 115.64 134.832 115.112C134.376 114.584 134.148 113.924 134.148 113.132C134.148 112.46 134.304 111.896 134.616 111.44C134.952 110.96 135.456 110.516 136.128 110.108C136.776 109.724 137.568 109.424 138.504 109.208C139.464 108.992 140.508 108.884 141.636 108.884C142.812 108.884 143.832 109.004 144.696 109.244C145.56 109.484 146.28 109.892 146.856 110.468C147.384 110.996 147.732 111.644 147.9 112.412C148.092 113.18 148.188 114.224 148.188 115.544V125.336C148.188 125.912 148.236 126.32 148.332 126.56C148.452 126.8 148.668 126.92 148.98 126.92C149.34 126.92 149.772 126.716 150.276 126.308L150.636 126.92C149.556 127.808 148.236 128.252 146.676 128.252C145.356 128.252 144.432 127.988 143.904 127.46C143.376 126.932 143.1 126.224 143.076 125.336C141.876 127.28 140.112 128.252 137.784 128.252ZM140.556 125.948C141.492 125.948 142.308 125.456 143.004 124.472V117.092C142.716 117.572 142.104 118.1 141.168 118.676C140.232 119.276 139.524 119.876 139.044 120.476C138.564 121.076 138.324 121.94 138.324 123.068C138.324 124.052 138.528 124.784 138.936 125.264C139.344 125.72 139.884 125.948 140.556 125.948ZM165.057 108.884C166.881 108.884 168.201 109.352 169.017 110.288C169.425 110.744 169.713 111.332 169.881 112.052C170.049 112.772 170.133 113.744 170.133 114.968V124.652C170.133 125.636 170.301 126.32 170.637 126.704C170.997 127.064 171.597 127.244 172.437 127.244V128C170.037 127.904 168.453 127.856 167.685 127.856C166.965 127.856 165.405 127.904 163.005 128V127.244C163.725 127.244 164.229 127.064 164.517 126.704C164.805 126.32 164.949 125.636 164.949 124.652V113.456C164.949 112.472 164.781 111.728 164.445 111.224C164.133 110.72 163.557 110.468 162.717 110.468C161.733 110.468 160.893 110.876 160.197 111.692C159.501 112.484 159.153 113.468 159.153 114.644V124.652C159.153 125.636 159.297 126.32 159.585 126.704C159.873 127.064 160.377 127.244 161.097 127.244V128C158.889 127.904 157.401 127.856 156.633 127.856C155.913 127.856 154.257 127.904 151.665 128V127.244C152.529 127.244 153.129 127.064 153.465 126.704C153.801 126.32 153.969 125.636 153.969 124.652V113.312C153.969 112.208 153.801 111.404 153.465 110.9C153.129 110.396 152.529 110.144 151.665 110.144V109.388C152.433 109.46 153.177 109.496 153.897 109.496C156.033 109.496 157.785 109.328 159.153 108.992V112.232C160.233 110 162.201 108.884 165.057 108.884ZM178.458 100.1C179.466 100.1 180.258 100.352 180.834 100.856C181.434 101.336 181.734 102.008 181.734 102.872C181.734 103.736 181.434 104.42 180.834 104.924C180.258 105.404 179.466 105.644 178.458 105.644C177.45 105.644 176.646 105.404 176.046 104.924C175.47 104.42 175.182 103.736 175.182 102.872C175.182 102.008 175.47 101.336 176.046 100.856C176.646 100.352 177.45 100.1 178.458 100.1ZM181.266 124.652C181.266 125.636 181.434 126.32 181.77 126.704C182.13 127.064 182.73 127.244 183.57 127.244V128C181.17 127.904 179.574 127.856 178.782 127.856C178.038 127.856 176.37 127.904 173.778 128V127.244C174.642 127.244 175.242 127.064 175.578 126.704C175.914 126.32 176.082 125.636 176.082 124.652V113.312C176.082 112.208 175.914 111.404 175.578 110.9C175.242 110.396 174.642 110.144 173.778 110.144V109.388C174.546 109.46 175.29 109.496 176.01 109.496C178.146 109.496 179.898 109.328 181.266 108.992V124.652ZM195.718 125.552C197.686 125.552 199.27 124.592 200.47 122.672L201.118 122.888C200.638 124.448 199.774 125.78 198.526 126.884C197.302 127.964 195.766 128.504 193.918 128.504C191.374 128.504 189.346 127.7 187.834 126.092C186.346 124.46 185.602 122.06 185.602 118.892C185.602 115.652 186.406 113.18 188.014 111.476C189.622 109.748 191.758 108.884 194.422 108.884C198.934 108.884 201.19 111.548 201.19 116.876H191.074C191.05 117.236 191.038 117.8 191.038 118.568C191.038 120.152 191.254 121.472 191.686 122.528C192.142 123.584 192.718 124.352 193.414 124.832C194.134 125.312 194.902 125.552 195.718 125.552ZM194.206 109.64C193.342 109.64 192.622 110.18 192.046 111.26C191.494 112.316 191.146 113.96 191.002 116.192H196.654C196.702 114.296 196.51 112.736 196.078 111.512C195.67 110.264 195.046 109.64 194.206 109.64Z" fill="black"/>
<path d="M247.992 108.884C248.904 108.884 249.744 109.004 250.512 109.244C251.28 109.46 251.868 109.712 252.276 110C252.516 110.168 252.732 110.252 252.924 110.252C253.14 110.252 253.32 110.144 253.464 109.928C253.632 109.688 253.74 109.352 253.788 108.92H254.544C254.448 110.144 254.4 112.256 254.4 115.256H253.644C253.428 113.672 252.948 112.352 252.204 111.296C251.484 110.216 250.428 109.676 249.036 109.676C248.316 109.676 247.716 109.88 247.236 110.288C246.78 110.696 246.552 111.26 246.552 111.98C246.552 112.796 246.828 113.504 247.38 114.104C247.932 114.68 248.796 115.388 249.972 116.228L251.016 116.984C252.48 118.088 253.56 119.072 254.256 119.936C254.952 120.8 255.3 121.88 255.3 123.176C255.3 124.232 254.988 125.168 254.364 125.984C253.764 126.8 252.948 127.424 251.916 127.856C250.884 128.288 249.744 128.504 248.496 128.504C247.176 128.504 246.048 128.252 245.112 127.748C244.344 127.364 243.792 127.112 243.456 126.992C243.216 126.92 243 127.004 242.808 127.244C242.64 127.46 242.508 127.796 242.412 128.252H241.656C241.752 126.884 241.8 124.484 241.8 121.052H242.556C243.036 125.468 244.656 127.676 247.416 127.676C248.112 127.676 248.7 127.472 249.18 127.064C249.684 126.632 249.936 125.984 249.936 125.12C249.936 124.448 249.78 123.848 249.468 123.32C249.18 122.792 248.808 122.324 248.352 121.916C247.896 121.508 247.212 120.944 246.3 120.224C245.22 119.36 244.392 118.664 243.816 118.136C243.264 117.608 242.784 116.984 242.376 116.264C241.992 115.544 241.8 114.74 241.8 113.852C241.8 112.316 242.4 111.104 243.6 110.216C244.8 109.328 246.264 108.884 247.992 108.884ZM262.245 128.252C260.709 128.252 259.557 127.856 258.789 127.064C258.045 126.272 257.673 125.228 257.673 123.932C257.673 122.852 257.949 121.964 258.501 121.268C259.077 120.548 259.761 119.996 260.553 119.612C261.369 119.228 262.401 118.82 263.649 118.388C264.969 117.932 265.929 117.524 266.529 117.164C267.153 116.78 267.465 116.264 267.465 115.616V112.808C267.465 111.8 267.225 111.02 266.745 110.468C266.289 109.892 265.569 109.604 264.585 109.604C263.433 109.604 262.557 109.892 261.957 110.468C262.629 110.708 263.145 111.068 263.505 111.548C263.889 112.028 264.081 112.592 264.081 113.24C264.081 114.056 263.805 114.704 263.253 115.184C262.701 115.664 262.029 115.904 261.237 115.904C260.397 115.904 259.749 115.64 259.293 115.112C258.837 114.584 258.609 113.924 258.609 113.132C258.609 112.46 258.765 111.896 259.077 111.44C259.413 110.96 259.917 110.516 260.589 110.108C261.237 109.724 262.029 109.424 262.965 109.208C263.925 108.992 264.969 108.884 266.097 108.884C267.273 108.884 268.293 109.004 269.157 109.244C270.021 109.484 270.741 109.892 271.317 110.468C271.845 110.996 272.193 111.644 272.361 112.412C272.553 113.18 272.649 114.224 272.649 115.544V125.336C272.649 125.912 272.697 126.32 272.793 126.56C272.913 126.8 273.129 126.92 273.441 126.92C273.801 126.92 274.233 126.716 274.737 126.308L275.097 126.92C274.017 127.808 272.697 128.252 271.137 128.252C269.817 128.252 268.893 127.988 268.365 127.46C267.837 126.932 267.561 126.224 267.537 125.336C266.337 127.28 264.573 128.252 262.245 128.252ZM265.017 125.948C265.953 125.948 266.769 125.456 267.465 124.472V117.092C267.177 117.572 266.565 118.1 265.629 118.676C264.693 119.276 263.985 119.876 263.505 120.476C263.025 121.076 262.785 121.94 262.785 123.068C262.785 124.052 262.989 124.784 263.397 125.264C263.805 125.72 264.345 125.948 265.017 125.948ZM289.518 108.884C291.342 108.884 292.662 109.352 293.478 110.288C293.886 110.744 294.174 111.332 294.342 112.052C294.51 112.772 294.594 113.744 294.594 114.968V124.652C294.594 125.636 294.762 126.32 295.098 126.704C295.458 127.064 296.058 127.244 296.898 127.244V128C294.498 127.904 292.914 127.856 292.146 127.856C291.426 127.856 289.866 127.904 287.466 128V127.244C288.186 127.244 288.69 127.064 288.978 126.704C289.266 126.32 289.41 125.636 289.41 124.652V113.456C289.41 112.472 289.242 111.728 288.906 111.224C288.594 110.72 288.018 110.468 287.178 110.468C286.194 110.468 285.354 110.876 284.658 111.692C283.962 112.484 283.614 113.468 283.614 114.644V124.652C283.614 125.636 283.758 126.32 284.046 126.704C284.334 127.064 284.838 127.244 285.558 127.244V128C283.35 127.904 281.862 127.856 281.094 127.856C280.374 127.856 278.718 127.904 276.126 128V127.244C276.99 127.244 277.59 127.064 277.926 126.704C278.262 126.32 278.43 125.636 278.43 124.652V113.312C278.43 112.208 278.262 111.404 277.926 110.9C277.59 110.396 276.99 110.144 276.126 110.144V109.388C276.894 109.46 277.638 109.496 278.358 109.496C280.494 109.496 282.246 109.328 283.614 108.992V112.232C284.694 110 286.662 108.884 289.518 108.884ZM315.057 112.844C314.577 112.844 314.169 112.688 313.833 112.376C313.497 112.04 313.329 111.572 313.329 110.972C313.329 110.396 313.473 109.808 313.761 109.208C313.185 109.448 312.705 109.724 312.321 110.036C311.961 110.324 311.649 110.696 311.385 111.152C312.129 112.04 312.501 113.192 312.501 114.608C312.501 116.504 311.841 117.932 310.521 118.892C309.225 119.852 307.497 120.332 305.337 120.332H304.689C303.705 120.908 303.213 121.544 303.213 122.24C303.213 123.008 303.693 123.392 304.653 123.392H308.577C310.689 123.392 312.369 123.788 313.617 124.58C314.889 125.348 315.525 126.536 315.525 128.144C315.525 129.368 315.129 130.472 314.337 131.456C313.569 132.464 312.393 133.268 310.809 133.868C309.225 134.468 307.281 134.768 304.977 134.768C302.649 134.768 300.777 134.468 299.361 133.868C297.969 133.292 297.273 132.452 297.273 131.348C297.273 130.604 297.609 129.932 298.281 129.332C298.953 128.756 299.949 128.3 301.269 127.964L301.593 128.54C300.729 129.26 300.297 130.088 300.297 131.024C300.297 132.032 300.753 132.8 301.665 133.328C302.577 133.88 303.837 134.156 305.445 134.156C307.125 134.156 308.481 133.82 309.513 133.148C310.569 132.476 311.097 131.528 311.097 130.304C311.097 129.512 310.797 128.888 310.197 128.432C309.621 127.976 308.601 127.748 307.137 127.748H304.905C303.369 127.748 302.169 127.496 301.305 126.992C300.441 126.464 300.009 125.672 300.009 124.616C300.009 123.728 300.321 122.936 300.945 122.24C301.569 121.544 302.517 120.872 303.789 120.224C302.061 120.008 300.693 119.432 299.685 118.496C298.677 117.56 298.173 116.264 298.173 114.608C298.173 112.712 298.821 111.284 300.117 110.324C301.437 109.364 303.177 108.884 305.337 108.884C307.737 108.884 309.573 109.448 310.845 110.576C311.301 109.928 311.865 109.412 312.537 109.028C313.209 108.644 313.893 108.452 314.589 108.452C315.309 108.452 315.873 108.668 316.281 109.1C316.713 109.508 316.929 110.048 316.929 110.72C316.929 111.392 316.737 111.92 316.353 112.304C315.993 112.664 315.561 112.844 315.057 112.844ZM305.337 119.684C306.009 119.684 306.513 119.3 306.849 118.532C307.209 117.764 307.389 116.456 307.389 114.608C307.389 112.76 307.209 111.452 306.849 110.684C306.513 109.916 306.009 109.532 305.337 109.532C304.665 109.532 304.149 109.916 303.789 110.684C303.453 111.452 303.285 112.76 303.285 114.608C303.285 116.456 303.453 117.764 303.789 118.532C304.149 119.3 304.665 119.684 305.337 119.684Z" fill="black"/>
</svg>
