<svg width="397" height="196" viewBox="0 0 397 196" fill="none" xmlns="http://www.w3.org/2000/svg">
<path fill-rule="evenodd" clip-rule="evenodd" d="M268.992 54.8752C266.832 57.3252 261.679 64.1172 258.22 69.0717C254.701 74.1132 247.961 77.8052 241.35 78.3132C239.023 78.4922 236.511 78.4857 235.766 78.2987L234.413 77.9592L235.632 76.3547C237.04 74.5032 238.75 68.7635 238.75 68C238.75 67.014 237.784 68.868 237.5 70C237.344 70.621 235.987 73.8447 234.697 75.1717C231.966 77.9812 231.47 77.9947 225.368 75.4332C218.199 72.4232 211.385 73.0427 207.782 77.0312C205.505 79.5512 205.287 82.5847 207.231 84.6822C210.535 88.2477 216.852 87.8087 226 83.3787L231.25 80.8357L238.75 80.7932C245.771 80.7527 246.431 80.6657 249.076 79.4257L251.901 78.1012L247.794 84.4257C240.91 95.0282 232.043 105.856 224.5 120C218.31 131.606 210.655 149.331 209.5 150.5C208.668 151.343 205.5 159.257 205.5 160C205.5 160.631 206.348 160.75 207 160.5C207.447 160.329 212.225 151.761 215.5 145C227.742 119.725 230.424 115.318 248.059 88.9842C254.004 80.1057 259.263 72.8297 261.249 70.7342C266.514 65.1802 273.975 54.1737 273.26 53.0162C272.578 51.9122 270.996 52.6007 268.992 54.8752ZM223.741 77.5592C225.671 78.3807 227.7 79.2412 228.25 79.4717C229.092 79.8242 228.656 80.1742 225.5 81.6797C221.029 83.8127 216.83 84.5 213.5 84.5C211.477 84.5 210.677 84.7537 209.462 83.5387C207.545 81.6222 207.615 80.2317 209.727 78.2392C213 75.1532 217.567 74.9312 223.741 77.5592Z" fill="black"/>
<path d="M47.224 102.044C48.472 102.044 49.468 102.164 50.212 102.404C50.956 102.644 51.712 102.992 52.48 103.448C52.744 103.592 52.972 103.712 53.164 103.808C53.38 103.904 53.56 103.952 53.704 103.952C53.92 103.952 54.088 103.832 54.208 103.592C54.328 103.328 54.424 102.92 54.496 102.368H55.324C55.204 103.976 55.144 106.712 55.144 110.576H54.316C54.22 109.28 53.92 108.044 53.416 106.868C52.936 105.692 52.24 104.744 51.328 104.024C50.44 103.28 49.396 102.908 48.196 102.908C47.02 102.908 46.06 103.244 45.316 103.916C44.596 104.564 44.236 105.452 44.236 106.58C44.236 107.42 44.416 108.152 44.776 108.776C45.136 109.4 45.64 109.976 46.288 110.504C46.936 111.008 47.932 111.704 49.276 112.592L50.428 113.384C51.844 114.32 52.96 115.136 53.776 115.832C54.592 116.528 55.252 117.344 55.756 118.28C56.284 119.192 56.548 120.26 56.548 121.484C56.548 123.02 56.152 124.316 55.36 125.372C54.568 126.404 53.488 127.184 52.12 127.712C50.776 128.24 49.276 128.504 47.62 128.504C46.276 128.504 45.16 128.384 44.272 128.144C43.384 127.904 42.568 127.58 41.824 127.172C41.296 126.836 40.888 126.668 40.6 126.668C40.384 126.668 40.216 126.8 40.096 127.064C39.976 127.304 39.88 127.7 39.808 128.252H38.98C39.076 126.74 39.124 123.5 39.124 118.532H39.952C40.12 121.22 40.72 123.404 41.752 125.084C42.784 126.74 44.368 127.568 46.504 127.568C47.8 127.568 48.868 127.22 49.708 126.524C50.548 125.828 50.968 124.832 50.968 123.536C50.968 122.192 50.536 121.04 49.672 120.08C48.808 119.12 47.44 118.04 45.568 116.84C44.128 115.904 42.976 115.088 42.112 114.392C41.248 113.696 40.54 112.88 39.988 111.944C39.436 110.984 39.16 109.88 39.16 108.632C39.16 107.192 39.52 105.98 40.24 104.996C40.984 103.988 41.968 103.244 43.192 102.764C44.416 102.284 45.76 102.044 47.224 102.044ZM66.1954 109.388H70.4434V110.108H66.1954V124.652C66.1954 125.372 66.3154 125.888 66.5554 126.2C66.8194 126.488 67.2274 126.632 67.7794 126.632C68.8114 126.632 69.6274 125.912 70.2274 124.472L70.8394 124.796C69.9274 127.268 68.2834 128.504 65.9074 128.504C64.3234 128.504 63.1234 128.096 62.3074 127.28C61.8034 126.776 61.4554 126.152 61.2634 125.408C61.0954 124.64 61.0114 123.596 61.0114 122.276V110.108H57.9874V109.388H61.0114V104.636C63.0034 104.636 64.7314 104.252 66.1954 103.484V109.388ZM81.9871 125.552C83.9551 125.552 85.5391 124.592 86.7391 122.672L87.3871 122.888C86.9071 124.448 86.0431 125.78 84.7951 126.884C83.5711 127.964 82.0351 128.504 80.1871 128.504C77.6431 128.504 75.6151 127.7 74.1031 126.092C72.6151 124.46 71.8711 122.06 71.8711 118.892C71.8711 115.652 72.6751 113.18 74.2831 111.476C75.8911 109.748 78.0271 108.884 80.6911 108.884C85.2031 108.884 87.4591 111.548 87.4591 116.876H77.3431C77.3191 117.236 77.3071 117.8 77.3071 118.568C77.3071 120.152 77.5231 121.472 77.9551 122.528C78.4111 123.584 78.9871 124.352 79.6831 124.832C80.4031 125.312 81.1711 125.552 81.9871 125.552ZM80.4751 109.64C79.6111 109.64 78.8911 110.18 78.3151 111.26C77.7631 112.316 77.4151 113.96 77.2711 116.192H82.9231C82.9711 114.296 82.7791 112.736 82.3471 111.512C81.9391 110.264 81.3151 109.64 80.4751 109.64ZM102.468 108.884C103.716 108.884 104.82 109.22 105.78 109.892C106.764 110.564 107.532 111.572 108.084 112.916C108.636 114.26 108.912 115.904 108.912 117.848C108.912 121.28 108.156 123.92 106.644 125.768C105.156 127.592 103.128 128.504 100.56 128.504C99.8397 128.504 99.1557 128.408 98.5077 128.216C97.8837 128.024 97.3437 127.736 96.8877 127.352V130.952C96.8877 132.008 97.1517 132.74 97.6797 133.148C98.2077 133.556 99.0237 133.76 100.128 133.76V134.516L99.1557 134.48C96.4917 134.408 94.7997 134.372 94.0797 134.372C93.3597 134.372 91.8477 134.42 89.5437 134.516V133.76C90.3357 133.76 90.8877 133.58 91.1997 133.22C91.5357 132.884 91.7037 132.248 91.7037 131.312V113.312C91.7037 112.208 91.5237 111.404 91.1637 110.9C90.8277 110.396 90.2397 110.144 89.3997 110.144V109.388C90.1677 109.46 90.9117 109.496 91.6317 109.496C93.7197 109.496 95.4717 109.328 96.8877 108.992V112.304C97.3917 111.2 98.1237 110.36 99.0837 109.784C100.044 109.184 101.172 108.884 102.468 108.884ZM99.1557 127.532C100.692 127.532 101.796 126.776 102.468 125.264C103.14 123.728 103.476 121.496 103.476 118.568C103.476 115.64 103.2 113.552 102.648 112.304C102.12 111.056 101.352 110.432 100.344 110.432C99.5277 110.432 98.7957 110.708 98.1477 111.26C97.5237 111.812 97.1037 112.58 96.8877 113.564V126.56C97.4637 127.208 98.2197 127.532 99.1557 127.532ZM118.438 112.232C119.518 110 121.474 108.884 124.306 108.884C126.178 108.884 127.498 109.352 128.266 110.288C128.674 110.744 128.962 111.344 129.13 112.088C129.322 112.808 129.418 113.768 129.418 114.968V124.652C129.418 125.636 129.586 126.32 129.922 126.704C130.258 127.064 130.858 127.244 131.722 127.244V128C129.226 127.904 127.642 127.856 126.97 127.856C126.154 127.856 124.594 127.904 122.29 128V127.244C123.01 127.244 123.514 127.064 123.802 126.704C124.09 126.32 124.234 125.636 124.234 124.652V113.456C124.234 112.472 124.066 111.728 123.73 111.224C123.418 110.72 122.842 110.468 122.002 110.468C120.994 110.468 120.142 110.864 119.446 111.656C118.774 112.424 118.438 113.408 118.438 114.608V124.652C118.438 125.636 118.582 126.32 118.87 126.704C119.158 127.064 119.662 127.244 120.382 127.244V128C118.078 127.904 116.59 127.856 115.918 127.856C115.102 127.856 113.446 127.904 110.95 128V127.244C111.79 127.244 112.378 127.064 112.714 126.704C113.074 126.32 113.254 125.636 113.254 124.652V104.168C113.254 103.064 113.074 102.26 112.714 101.756C112.378 101.252 111.79 101 110.95 101V100.244C111.718 100.316 112.462 100.352 113.182 100.352C115.27 100.352 117.022 100.184 118.438 99.848V112.232ZM137.784 128.252C136.248 128.252 135.096 127.856 134.328 127.064C133.584 126.272 133.212 125.228 133.212 123.932C133.212 122.852 133.488 121.964 134.04 121.268C134.616 120.548 135.3 119.996 136.092 119.612C136.908 119.228 137.94 118.82 139.188 118.388C140.508 117.932 141.468 117.524 142.068 117.164C142.692 116.78 143.004 116.264 143.004 115.616V112.808C143.004 111.8 142.764 111.02 142.284 110.468C141.828 109.892 141.108 109.604 140.124 109.604C138.972 109.604 138.096 109.892 137.496 110.468C138.168 110.708 138.684 111.068 139.044 111.548C139.428 112.028 139.62 112.592 139.62 113.24C139.62 114.056 139.344 114.704 138.792 115.184C138.24 115.664 137.568 115.904 136.776 115.904C135.936 115.904 135.288 115.64 134.832 115.112C134.376 114.584 134.148 113.924 134.148 113.132C134.148 112.46 134.304 111.896 134.616 111.44C134.952 110.96 135.456 110.516 136.128 110.108C136.776 109.724 137.568 109.424 138.504 109.208C139.464 108.992 140.508 108.884 141.636 108.884C142.812 108.884 143.832 109.004 144.696 109.244C145.56 109.484 146.28 109.892 146.856 110.468C147.384 110.996 147.732 111.644 147.9 112.412C148.092 113.18 148.188 114.224 148.188 115.544V125.336C148.188 125.912 148.236 126.32 148.332 126.56C148.452 126.8 148.668 126.92 148.98 126.92C149.34 126.92 149.772 126.716 150.276 126.308L150.636 126.92C149.556 127.808 148.236 128.252 146.676 128.252C145.356 128.252 144.432 127.988 143.904 127.46C143.376 126.932 143.1 126.224 143.076 125.336C141.876 127.28 140.112 128.252 137.784 128.252ZM140.556 125.948C141.492 125.948 142.308 125.456 143.004 124.472V117.092C142.716 117.572 142.104 118.1 141.168 118.676C140.232 119.276 139.524 119.876 139.044 120.476C138.564 121.076 138.324 121.94 138.324 123.068C138.324 124.052 138.528 124.784 138.936 125.264C139.344 125.72 139.884 125.948 140.556 125.948ZM165.057 108.884C166.881 108.884 168.201 109.352 169.017 110.288C169.425 110.744 169.713 111.332 169.881 112.052C170.049 112.772 170.133 113.744 170.133 114.968V124.652C170.133 125.636 170.301 126.32 170.637 126.704C170.997 127.064 171.597 127.244 172.437 127.244V128C170.037 127.904 168.453 127.856 167.685 127.856C166.965 127.856 165.405 127.904 163.005 128V127.244C163.725 127.244 164.229 127.064 164.517 126.704C164.805 126.32 164.949 125.636 164.949 124.652V113.456C164.949 112.472 164.781 111.728 164.445 111.224C164.133 110.72 163.557 110.468 162.717 110.468C161.733 110.468 160.893 110.876 160.197 111.692C159.501 112.484 159.153 113.468 159.153 114.644V124.652C159.153 125.636 159.297 126.32 159.585 126.704C159.873 127.064 160.377 127.244 161.097 127.244V128C158.889 127.904 157.401 127.856 156.633 127.856C155.913 127.856 154.257 127.904 151.665 128V127.244C152.529 127.244 153.129 127.064 153.465 126.704C153.801 126.32 153.969 125.636 153.969 124.652V113.312C153.969 112.208 153.801 111.404 153.465 110.9C153.129 110.396 152.529 110.144 151.665 110.144V109.388C152.433 109.46 153.177 109.496 153.897 109.496C156.033 109.496 157.785 109.328 159.153 108.992V112.232C160.233 110 162.201 108.884 165.057 108.884ZM178.458 100.1C179.466 100.1 180.258 100.352 180.834 100.856C181.434 101.336 181.734 102.008 181.734 102.872C181.734 103.736 181.434 104.42 180.834 104.924C180.258 105.404 179.466 105.644 178.458 105.644C177.45 105.644 176.646 105.404 176.046 104.924C175.47 104.42 175.182 103.736 175.182 102.872C175.182 102.008 175.47 101.336 176.046 100.856C176.646 100.352 177.45 100.1 178.458 100.1ZM181.266 124.652C181.266 125.636 181.434 126.32 181.77 126.704C182.13 127.064 182.73 127.244 183.57 127.244V128C181.17 127.904 179.574 127.856 178.782 127.856C178.038 127.856 176.37 127.904 173.778 128V127.244C174.642 127.244 175.242 127.064 175.578 126.704C175.914 126.32 176.082 125.636 176.082 124.652V113.312C176.082 112.208 175.914 111.404 175.578 110.9C175.242 110.396 174.642 110.144 173.778 110.144V109.388C174.546 109.46 175.29 109.496 176.01 109.496C178.146 109.496 179.898 109.328 181.266 108.992V124.652ZM195.718 125.552C197.686 125.552 199.27 124.592 200.47 122.672L201.118 122.888C200.638 124.448 199.774 125.78 198.526 126.884C197.302 127.964 195.766 128.504 193.918 128.504C191.374 128.504 189.346 127.7 187.834 126.092C186.346 124.46 185.602 122.06 185.602 118.892C185.602 115.652 186.406 113.18 188.014 111.476C189.622 109.748 191.758 108.884 194.422 108.884C198.934 108.884 201.19 111.548 201.19 116.876H191.074C191.05 117.236 191.038 117.8 191.038 118.568C191.038 120.152 191.254 121.472 191.686 122.528C192.142 123.584 192.718 124.352 193.414 124.832C194.134 125.312 194.902 125.552 195.718 125.552ZM194.206 109.64C193.342 109.64 192.622 110.18 192.046 111.26C191.494 112.316 191.146 113.96 191.002 116.192H196.654C196.702 114.296 196.51 112.736 196.078 111.512C195.67 110.264 195.046 109.64 194.206 109.64Z" fill="black"/>
<path d="M247.992 108.884C248.904 108.884 249.744 109.004 250.512 109.244C251.28 109.46 251.868 109.712 252.276 110C252.516 110.168 252.732 110.252 252.924 110.252C253.14 110.252 253.32 110.144 253.464 109.928C253.632 109.688 253.74 109.352 253.788 108.92H254.544C254.448 110.144 254.4 112.256 254.4 115.256H253.644C253.428 113.672 252.948 112.352 252.204 111.296C251.484 110.216 250.428 109.676 249.036 109.676C248.316 109.676 247.716 109.88 247.236 110.288C246.78 110.696 246.552 111.26 246.552 111.98C246.552 112.796 246.828 113.504 247.38 114.104C247.932 114.68 248.796 115.388 249.972 116.228L251.016 116.984C252.48 118.088 253.56 119.072 254.256 119.936C254.952 120.8 255.3 121.88 255.3 123.176C255.3 124.232 254.988 125.168 254.364 125.984C253.764 126.8 252.948 127.424 251.916 127.856C250.884 128.288 249.744 128.504 248.496 128.504C247.176 128.504 246.048 128.252 245.112 127.748C244.344 127.364 243.792 127.112 243.456 126.992C243.216 126.92 243 127.004 242.808 127.244C242.64 127.46 242.508 127.796 242.412 128.252H241.656C241.752 126.884 241.8 124.484 241.8 121.052H242.556C243.036 125.468 244.656 127.676 247.416 127.676C248.112 127.676 248.7 127.472 249.18 127.064C249.684 126.632 249.936 125.984 249.936 125.12C249.936 124.448 249.78 123.848 249.468 123.32C249.18 122.792 248.808 122.324 248.352 121.916C247.896 121.508 247.212 120.944 246.3 120.224C245.22 119.36 244.392 118.664 243.816 118.136C243.264 117.608 242.784 116.984 242.376 116.264C241.992 115.544 241.8 114.74 241.8 113.852C241.8 112.316 242.4 111.104 243.6 110.216C244.8 109.328 246.264 108.884 247.992 108.884ZM262.245 128.252C260.709 128.252 259.557 127.856 258.789 127.064C258.045 126.272 257.673 125.228 257.673 123.932C257.673 122.852 257.949 121.964 258.501 121.268C259.077 120.548 259.761 119.996 260.553 119.612C261.369 119.228 262.401 118.82 263.649 118.388C264.969 117.932 265.929 117.524 266.529 117.164C267.153 116.78 267.465 116.264 267.465 115.616V112.808C267.465 111.8 267.225 111.02 266.745 110.468C266.289 109.892 265.569 109.604 264.585 109.604C263.433 109.604 262.557 109.892 261.957 110.468C262.629 110.708 263.145 111.068 263.505 111.548C263.889 112.028 264.081 112.592 264.081 113.24C264.081 114.056 263.805 114.704 263.253 115.184C262.701 115.664 262.029 115.904 261.237 115.904C260.397 115.904 259.749 115.64 259.293 115.112C258.837 114.584 258.609 113.924 258.609 113.132C258.609 112.46 258.765 111.896 259.077 111.44C259.413 110.96 259.917 110.516 260.589 110.108C261.237 109.724 262.029 109.424 262.965 109.208C263.925 108.992 264.969 108.884 266.097 108.884C267.273 108.884 268.293 109.004 269.157 109.244C270.021 109.484 270.741 109.892 271.317 110.468C271.845 110.996 272.193 111.644 272.361 112.412C272.553 113.18 272.649 114.224 272.649 115.544V125.336C272.649 125.912 272.697 126.32 272.793 126.56C272.913 126.8 273.129 126.92 273.441 126.92C273.801 126.92 274.233 126.716 274.737 126.308L275.097 126.92C274.017 127.808 272.697 128.252 271.137 128.252C269.817 128.252 268.893 127.988 268.365 127.46C267.837 126.932 267.561 126.224 267.537 125.336C266.337 127.28 264.573 128.252 262.245 128.252ZM265.017 125.948C265.953 125.948 266.769 125.456 267.465 124.472V117.092C267.177 117.572 266.565 118.1 265.629 118.676C264.693 119.276 263.985 119.876 263.505 120.476C263.025 121.076 262.785 121.94 262.785 123.068C262.785 124.052 262.989 124.784 263.397 125.264C263.805 125.72 264.345 125.948 265.017 125.948ZM289.518 108.884C291.342 108.884 292.662 109.352 293.478 110.288C293.886 110.744 294.174 111.332 294.342 112.052C294.51 112.772 294.594 113.744 294.594 114.968V124.652C294.594 125.636 294.762 126.32 295.098 126.704C295.458 127.064 296.058 127.244 296.898 127.244V128C294.498 127.904 292.914 127.856 292.146 127.856C291.426 127.856 289.866 127.904 287.466 128V127.244C288.186 127.244 288.69 127.064 288.978 126.704C289.266 126.32 289.41 125.636 289.41 124.652V113.456C289.41 112.472 289.242 111.728 288.906 111.224C288.594 110.72 288.018 110.468 287.178 110.468C286.194 110.468 285.354 110.876 284.658 111.692C283.962 112.484 283.614 113.468 283.614 114.644V124.652C283.614 125.636 283.758 126.32 284.046 126.704C284.334 127.064 284.838 127.244 285.558 127.244V128C283.35 127.904 281.862 127.856 281.094 127.856C280.374 127.856 278.718 127.904 276.126 128V127.244C276.99 127.244 277.59 127.064 277.926 126.704C278.262 126.32 278.43 125.636 278.43 124.652V113.312C278.43 112.208 278.262 111.404 277.926 110.9C277.59 110.396 276.99 110.144 276.126 110.144V109.388C276.894 109.46 277.638 109.496 278.358 109.496C280.494 109.496 282.246 109.328 283.614 108.992V112.232C284.694 110 286.662 108.884 289.518 108.884ZM315.057 112.844C314.577 112.844 314.169 112.688 313.833 112.376C313.497 112.04 313.329 111.572 313.329 110.972C313.329 110.396 313.473 109.808 313.761 109.208C313.185 109.448 312.705 109.724 312.321 110.036C311.961 110.324 311.649 110.696 311.385 111.152C312.129 112.04 312.501 113.192 312.501 114.608C312.501 116.504 311.841 117.932 310.521 118.892C309.225 119.852 307.497 120.332 305.337 120.332H304.689C303.705 120.908 303.213 121.544 303.213 122.24C303.213 123.008 303.693 123.392 304.653 123.392H308.577C310.689 123.392 312.369 123.788 313.617 124.58C314.889 125.348 315.525 126.536 315.525 128.144C315.525 129.368 315.129 130.472 314.337 131.456C313.569 132.464 312.393 133.268 310.809 133.868C309.225 134.468 307.281 134.768 304.977 134.768C302.649 134.768 300.777 134.468 299.361 133.868C297.969 133.292 297.273 132.452 297.273 131.348C297.273 130.604 297.609 129.932 298.281 129.332C298.953 128.756 299.949 128.3 301.269 127.964L301.593 128.54C300.729 129.26 300.297 130.088 300.297 131.024C300.297 132.032 300.753 132.8 301.665 133.328C302.577 133.88 303.837 134.156 305.445 134.156C307.125 134.156 308.481 133.82 309.513 133.148C310.569 132.476 311.097 131.528 311.097 130.304C311.097 129.512 310.797 128.888 310.197 128.432C309.621 127.976 308.601 127.748 307.137 127.748H304.905C303.369 127.748 302.169 127.496 301.305 126.992C300.441 126.464 300.009 125.672 300.009 124.616C300.009 123.728 300.321 122.936 300.945 122.24C301.569 121.544 302.517 120.872 303.789 120.224C302.061 120.008 300.693 119.432 299.685 118.496C298.677 117.56 298.173 116.264 298.173 114.608C298.173 112.712 298.821 111.284 300.117 110.324C301.437 109.364 303.177 108.884 305.337 108.884C307.737 108.884 309.573 109.448 310.845 110.576C311.301 109.928 311.865 109.412 312.537 109.028C313.209 108.644 313.893 108.452 314.589 108.452C315.309 108.452 315.873 108.668 316.281 109.1C316.713 109.508 316.929 110.048 316.929 110.72C316.929 111.392 316.737 111.92 316.353 112.304C315.993 112.664 315.561 112.844 315.057 112.844ZM305.337 119.684C306.009 119.684 306.513 119.3 306.849 118.532C307.209 117.764 307.389 116.456 307.389 114.608C307.389 112.76 307.209 111.452 306.849 110.684C306.513 109.916 306.009 109.532 305.337 109.532C304.665 109.532 304.149 109.916 303.789 110.684C303.453 111.452 303.285 112.76 303.285 114.608C303.285 116.456 303.453 117.764 303.789 118.532C304.149 119.3 304.665 119.684 305.337 119.684Z" fill="black"/>
</svg>
