<svg xmlns="http://www.w3.org/2000/svg" xmlns:xlink="http://www.w3.org/1999/xlink" viewBox="0 0 336.8 256.8"><defs><style>.cls-1,.cls-10,.cls-11,.cls-12,.cls-13,.cls-14,.cls-15,.cls-16,.cls-17,.cls-18,.cls-19,.cls-2,.cls-20,.cls-21,.cls-22,.cls-23,.cls-24,.cls-25,.cls-26,.cls-27,.cls-28,.cls-29,.cls-3,.cls-30,.cls-31,.cls-32,.cls-33,.cls-34,.cls-35,.cls-36,.cls-37,.cls-4,.cls-5,.cls-6,.cls-7,.cls-8,.cls-9{fill:none;stroke-miterlimit:10;stroke-width:0.68px;}.cls-1{stroke:url(#radial-gradient);}.cls-2{stroke:url(#radial-gradient-2);}.cls-3{stroke:url(#radial-gradient-3);}.cls-4{stroke:url(#radial-gradient-4);}.cls-5{stroke:url(#radial-gradient-5);}.cls-6{stroke:url(#radial-gradient-6);}.cls-7{stroke:url(#radial-gradient-7);}.cls-8{stroke:url(#radial-gradient-8);}.cls-9{stroke:url(#radial-gradient-9);}.cls-10{stroke:url(#radial-gradient-10);}.cls-11{stroke:url(#radial-gradient-11);}.cls-12{stroke:url(#radial-gradient-12);}.cls-13{stroke:url(#radial-gradient-13);}.cls-14{stroke:url(#radial-gradient-14);}.cls-15{stroke:url(#radial-gradient-15);}.cls-16{stroke:url(#radial-gradient-16);}.cls-17{stroke:url(#radial-gradient-17);}.cls-18{stroke:url(#radial-gradient-18);}.cls-19{stroke:url(#radial-gradient-19);}.cls-20{stroke:url(#radial-gradient-20);}.cls-21{stroke:url(#radial-gradient-21);}.cls-22{stroke:url(#radial-gradient-22);}.cls-23{stroke:url(#radial-gradient-23);}.cls-24{stroke:url(#radial-gradient-24);}.cls-25{stroke:url(#radial-gradient-25);}.cls-26{stroke:url(#radial-gradient-26);}.cls-27{stroke:url(#radial-gradient-27);}.cls-28{stroke:url(#radial-gradient-28);}.cls-29{stroke:url(#radial-gradient-29);}.cls-30{stroke:url(#radial-gradient-30);}.cls-31{stroke:url(#radial-gradient-31);}.cls-32{stroke:url(#radial-gradient-32);}.cls-33{stroke:url(#radial-gradient-33);}.cls-34{stroke:url(#radial-gradient-34);}.cls-35{stroke:url(#radial-gradient-35);}.cls-36{stroke:url(#radial-gradient-36);}.cls-37{stroke:url(#radial-gradient-37);}</style><radialGradient id="radial-gradient" cx="175.49" cy="149.3" r="96.11" gradientTransform="translate(-737.32 144.86) rotate(-78.64) scale(1 6)" gradientUnits="userSpaceOnUse"><stop offset="0" stop-color="#ffcfff"/><stop offset="0" stop-color="#f9cacb"/><stop offset="1" stop-color="#8ae3d4"/></radialGradient><radialGradient id="radial-gradient-2" cx="175.61" cy="148.28" r="95.61" gradientTransform="translate(-731.23 145.16) rotate(-78.64) scale(1 6)" xlink:href="#radial-gradient"/><radialGradient id="radial-gradient-3" cx="175.72" cy="147.25" r="95.17" gradientTransform="translate(-725.06 145.46) rotate(-78.64) scale(1 6)" xlink:href="#radial-gradient"/><radialGradient id="radial-gradient-4" cx="175.79" cy="146.12" r="94.8" gradientTransform="translate(-718.41 145.73) rotate(-78.64) scale(1 6)" xlink:href="#radial-gradient"/><radialGradient id="radial-gradient-5" cx="175.9" cy="145.04" r="94.5" gradientTransform="translate(-711.96 146.03) rotate(-78.64) scale(1 6)" xlink:href="#radial-gradient"/><radialGradient id="radial-gradient-6" cx="176.01" cy="143.95" r="94.26" gradientTransform="translate(-705.43 146.34) rotate(-78.64) scale(1 6)" xlink:href="#radial-gradient"/><radialGradient id="radial-gradient-7" cx="176.12" cy="142.84" r="94.1" gradientTransform="translate(-698.82 146.65) rotate(-78.64) scale(1 6)" xlink:href="#radial-gradient"/><radialGradient id="radial-gradient-8" cx="176.24" cy="141.72" r="93.99" gradientTransform="translate(-692.14 146.97) rotate(-78.64) scale(1 6)" xlink:href="#radial-gradient"/><radialGradient id="radial-gradient-9" cx="176.36" cy="140.59" r="93.95" gradientTransform="translate(-685.39 147.3) rotate(-78.64) scale(1 6)" xlink:href="#radial-gradient"/><radialGradient id="radial-gradient-10" cx="176.49" cy="139.44" r="93.98" gradientTransform="translate(-678.55 147.63) rotate(-78.64) scale(1 6)" xlink:href="#radial-gradient"/><radialGradient id="radial-gradient-11" cx="176.61" cy="138.29" r="94.07" gradientTransform="translate(-671.64 147.96) rotate(-78.64) scale(1 6)" xlink:href="#radial-gradient"/><radialGradient id="radial-gradient-12" cx="176.75" cy="137.12" r="94.22" gradientTransform="translate(-664.65 148.31) rotate(-78.64) scale(1 6)" xlink:href="#radial-gradient"/><radialGradient id="radial-gradient-13" cx="176.88" cy="135.93" r="94.42" gradientTransform="translate(-657.58 148.65) rotate(-78.64) scale(1 6)" xlink:href="#radial-gradient"/><radialGradient id="radial-gradient-14" cx="177.02" cy="134.74" r="94.69" gradientTransform="translate(-650.44 149.01) rotate(-78.64) scale(1 6)" xlink:href="#radial-gradient"/><radialGradient id="radial-gradient-15" cx="177.16" cy="133.9" r="95.17" gradientTransform="translate(-645.4 149.3) rotate(-78.64) scale(1 6)" xlink:href="#radial-gradient"/><radialGradient id="radial-gradient-16" cx="177.31" cy="135.32" r="96.58" gradientTransform="translate(-653.65 149.19) rotate(-78.64) scale(1 6)" xlink:href="#radial-gradient"/><radialGradient id="radial-gradient-17" cx="177.41" cy="136.73" r="98.03" gradientTransform="translate(-661.83 149.03) rotate(-78.64) scale(1 6)" xlink:href="#radial-gradient"/><radialGradient id="radial-gradient-18" cx="177.31" cy="138.12" r="99.62" gradientTransform="translate(-670.11 148.68) rotate(-78.64) scale(1 6)" xlink:href="#radial-gradient"/><radialGradient id="radial-gradient-19" cx="177.08" cy="139.5" r="101.3" gradientTransform="translate(-678.39 148.2) rotate(-78.64) scale(1 6)" xlink:href="#radial-gradient"/><radialGradient id="radial-gradient-20" cx="176.77" cy="140.86" r="103.05" gradientTransform="translate(-686.62 147.65) rotate(-78.64) scale(1 6)" xlink:href="#radial-gradient"/><radialGradient id="radial-gradient-21" cx="176.41" cy="142.19" r="104.84" gradientTransform="translate(-694.79 147.05) rotate(-78.64) scale(1 6)" xlink:href="#radial-gradient"/><radialGradient id="radial-gradient-22" cx="176" cy="143.51" r="106.67" gradientTransform="translate(-702.89 146.41) rotate(-78.64) scale(1 6)" xlink:href="#radial-gradient"/><radialGradient id="radial-gradient-23" cx="175.56" cy="144.82" r="108.54" gradientTransform="translate(-710.9 145.74) rotate(-78.64) scale(1 6)" xlink:href="#radial-gradient"/><radialGradient id="radial-gradient-24" cx="175.11" cy="146.1" r="110.42" gradientTransform="translate(-718.83 145.06) rotate(-78.64) scale(1 6)" xlink:href="#radial-gradient"/><radialGradient id="radial-gradient-25" cx="174.63" cy="147.37" r="112.34" gradientTransform="translate(-726.66 144.37) rotate(-78.64) scale(1 6)" xlink:href="#radial-gradient"/><radialGradient id="radial-gradient-26" cx="174.15" cy="146.68" r="114.98" gradientTransform="translate(-723 144.02) rotate(-78.64) scale(1 6)" xlink:href="#radial-gradient"/><radialGradient id="radial-gradient-27" cx="173.65" cy="144.95" r="118.04" gradientTransform="translate(-713.2 143.85) rotate(-78.64) scale(1 6)" xlink:href="#radial-gradient"/><radialGradient id="radial-gradient-28" cx="173.15" cy="143.21" r="121.11" gradientTransform="translate(-703.39 143.67) rotate(-78.64) scale(1 6)" xlink:href="#radial-gradient"/><radialGradient id="radial-gradient-29" cx="172.64" cy="141.47" r="124.2" gradientTransform="translate(-693.56 143.48) rotate(-78.64) scale(1 6)" xlink:href="#radial-gradient"/><radialGradient id="radial-gradient-30" cx="172.12" cy="139.73" r="127.3" gradientTransform="translate(-683.71 143.29) rotate(-78.64) scale(1 6)" xlink:href="#radial-gradient"/><radialGradient id="radial-gradient-31" cx="171.6" cy="137.98" r="130.42" gradientTransform="translate(-673.85 143.1) rotate(-78.64) scale(1 6)" xlink:href="#radial-gradient"/><radialGradient id="radial-gradient-32" cx="171.07" cy="136.24" r="133.55" gradientTransform="translate(-664.08 142.9) rotate(-78.64) scale(1 6)" xlink:href="#radial-gradient"/><radialGradient id="radial-gradient-33" cx="170.54" cy="134.54" r="136.71" gradientTransform="translate(-654.45 142.7) rotate(-78.64) scale(1 6)" xlink:href="#radial-gradient"/><radialGradient id="radial-gradient-34" cx="170.01" cy="132.85" r="139.89" gradientTransform="translate(-644.95 142.48) rotate(-78.64) scale(1 6)" xlink:href="#radial-gradient"/><radialGradient id="radial-gradient-35" cx="169.48" cy="131.18" r="143.09" gradientTransform="translate(-635.58 142.26) rotate(-78.64) scale(1 6)" xlink:href="#radial-gradient"/><radialGradient id="radial-gradient-36" cx="168.95" cy="129.54" r="146.3" gradientTransform="translate(-626.33 142.04) rotate(-78.64) scale(1 6)" xlink:href="#radial-gradient"/><radialGradient id="radial-gradient-37" cx="168.4" cy="127.91" r="149.53" gradientTransform="translate(-617.19 141.8) rotate(-78.64) scale(1 6)" xlink:href="#radial-gradient"/></defs><title>Asset 10</title><g id="Layer_2" data-name="Layer 2"><g id="design"><path class="cls-1" d="M221.19,181.57c25.62-80.45,79.88-207.44-24.35-95S169.06,336.27,92.62,198.93"/><path class="cls-2" d="M223.66,183.6c24-77.76,80.4-207.65-24.64-97.53-104.61,110-36.78,247.8-108.26,107.33"/><path class="cls-3" d="M226.13,185.63c22.36-75.06,80.92-207.87-24.93-100-105,107.64-45.78,245.86-112.31,102.27"/><path class="cls-4" d="M228.6,187.66c20.74-72.37,81.2-208.33-25.22-102.51C97.76,190.17,148.6,329.07,87,182.36"/><path class="cls-5" d="M231.07,189.69c19.11-69.67,81.65-208.62-25.51-105-106.08,102.58-63.79,242-120.4,92.16"/><path class="cls-6" d="M233.54,191.72c17.48-67,82.11-208.91-25.8-107.5C101.21,184.34,135,324.27,83.29,171.31"/><path class="cls-7" d="M236,193.75c15.85-64.29,82.58-209.2-26.09-110-107,97.67-81.79,238.11-128.49,82"/><path class="cls-8" d="M238.49,195.78c14.22-61.59,83-209.49-26.39-112.48-107.41,95.23-90.79,236.17-132.54,77"/><path class="cls-9" d="M241,197.8c12.59-58.89,83.51-209.76-26.68-115C106.44,175.62,114.49,317.07,77.7,154.75"/><path class="cls-10" d="M243.43,199.83c11-56.19,84-210-27-117.45C108.19,172.72,107.67,314.67,75.83,149.23"/><path class="cls-11" d="M245.9,201.86c9.33-53.5,84.48-210.32-27.27-119.94C110,169.83,100.85,312.27,74,143.7"/><path class="cls-12" d="M248.37,203.89c7.7-50.81,85-210.6-27.56-122.43C111.72,166.93,94,309.87,72.1,138.18"/><path class="cls-13" d="M250.84,205.92C256.92,157.81,336.32-4.95,223,81,113.49,164.05,87.21,307.47,70.23,132.66"/><path class="cls-14" d="M253.31,208c4.45-45.42,86-211.13-28.14-127.41-109.9,80.62-144.79,224.53-156.8,46.6"/><path class="cls-15" d="M255.78,210c2.82-42.72,86.5-211.39-28.43-129.9C117.06,158.28,73.56,302.67,66.5,121.62"/><path class="cls-16" d="M258.26,212c1.18-40,87-211.65-28.73-132.39C118.85,155.41,66.74,300.27,64.64,116.09"/><path class="cls-17" d="M260.73,214c-.45-37.33,87.53-211.9-29-134.88C120.64,152.55,59.92,297.87,62.77,110.57"/><path class="cls-18" d="M263.2,216.07C261.13,181.43,351.26,3.93,233.89,78.7c-111.44,71-180.79,216.77-173,26.35"/><path class="cls-19" d="M265.67,218.1c-3.7-31.95,88.6-212.38-29.6-139.86C124.25,146.83,46.28,293.07,59,99.53"/><path class="cls-20" d="M268.14,220.13c-5.33-29.25,89.14-212.6-29.89-142.35C126.06,144,39.46,290.67,57.18,94"/><path class="cls-21" d="M270.61,222.16c-7-26.56,89.68-212.83-30.19-144.84-112.54,63.82-207.78,211-185.11,11.16"/><path class="cls-22" d="M273.08,224.19c-8.59-23.86,90.23-213-30.48-147.34C129.7,138.31,25.82,285.87,53.44,83"/><path class="cls-23" d="M275.56,226.22C265.34,205.05,366.33,13,244.78,76.39c-113.26,59.1-225.79,207.08-193.2,1"/><path class="cls-24" d="M278,228.25C266.18,209.77,369.36,14.81,247,75.93c-113.61,56.74-234.79,205.14-197.25-4"/><path class="cls-25" d="M280.5,230.28C267,214.5,372.39,16.65,249.14,75.47c-114,54.39-243.79,203.2-201.29-9.08"/><path class="cls-26" d="M283,232.31C267.86,219.22,375.42,18.5,251.32,75,137,127.06-1.47,276.27,46,60.87"/><path class="cls-27" d="M285.44,234.34c-16.73-10.39,93-214-31.94-159.79C138.84,124.27-8.29,273.87,44.12,55.35"/><path class="cls-28" d="M287.91,236.36c-18.36-7.69,93.58-214.12-32.23-162.27-115,47.4-270.79,197.38-213.43-24.26"/><path class="cls-29" d="M290.38,238.39c-20-5,94.15-214.27-32.52-164.76C142.52,118.71-21.93,269.07,40.39,44.31"/><path class="cls-30" d="M292.85,240.42C271.23,238.12,387.57,26,260,73.17,144.35,116-28.75,266.67,38.52,38.78"/><path class="cls-31" d="M295.33,242.45c-23.26.39,95.28-214.54-33.12-169.74-116,40.48-297.78,191.56-225.56-39.45"/><path class="cls-32" d="M297.8,244.48c-24.88,3.09,95.85-214.65-33.41-172.23C148,110.44-42.4,261.87,34.79,27.74"/><path class="cls-33" d="M300.27,246.51c-26.51,5.78,96.42-214.76-33.7-174.72C149.86,107.7-49.22,259.47,32.92,22.22"/><path class="cls-34" d="M302.74,248.54c-28.14,8.48,97-214.86-34-177.21C151.7,105-56,257.07,31.06,16.7"/><path class="cls-35" d="M305.21,250.57c-29.77,11.17,97.55-214.94-34.28-179.7-117.4,31.38-333.79,183.8-241.74-59.7"/><path class="cls-36" d="M307.68,252.6c-31.4,13.87,98.15-214.87-34.57-182.19C155.39,99.67-69.68,252.27,27.33,5.65"/><path class="cls-37" d="M310.15,254.63c-33,16.56,98.67-215.08-34.86-184.68C157.18,96.83-76.5,249.87,25.46.13"/></g></g></svg>